<svg xmlns="http://www.w3.org/2000/svg" version="1.1" viewBox="0 0 48 48">
 <path d="m8.79 5c-0.99 0-1.79 0.8-1.79 1.79v8.21l-4 4v10l4 4v8.2c0 1 0.8 1.8 1.79 1.8h6.21l4-4h10l4 4h6.2c1 0 1.8-0.8 1.8-1.8v-8.2l4-4v-10l-4-4v-8.21c0-0.99-0.8-1.79-1.8-1.79h-6.2l-4 4h-10l-4-4h-6.21zm12.7 7h2v3h-2v-3zm-6.4 2.7l2.1 2.1-1.4 1.4-2.1-2.1 1.4-1.4zm14.8 0l1.4 1.4-2.1 2.1-1.4-1.4 2.1-2.1zm-7.4 2.3a6.5 6.5 0 0 1 5.8 3.6 7.5 7.5 0 0 1 6.2 7.4 7.5 7.5 0 0 1 -7.5 7.5h-7a5.5 5.5 0 0 1 -5.5 -5.5 5.5 5.5 0 0 1 1.9 -4.2 6.5 6.5 0 0 1 -0.4 -2.3 6.5 6.5 0 0 1 6.5 -6.5zm-11.5 5.5h3v2h-3v-2zm16 0c-2.5 0-4.6 1.6-5.3 4h-1.7c-1.9 0-3.4 1.6-3.4 3.5s1.5 3.5 3.4 3.5h7c3 0 5.5-2.5 5.5-5.5s-2.5-5.5-5.5-5.5z" fill="#fff"/>
</svg>
