<?xml version="1.0" encoding="UTF-8" standalone="no"?>
<svg
   xmlns:dc="http://purl.org/dc/elements/1.1/"
   xmlns:cc="http://creativecommons.org/ns#"
   xmlns:rdf="http://www.w3.org/1999/02/22-rdf-syntax-ns#"
   xmlns:svg="http://www.w3.org/2000/svg"
   xmlns="http://www.w3.org/2000/svg"
   viewBox="0 0 192 192"
   height="192"
   width="192"
   id="svg5348"
   version="1.1">
  <metadata
     id="metadata5354">
    <rdf:RDF>
      <cc:Work
         rdf:about="">
        <dc:format>image/svg+xml</dc:format>
        <dc:type
           rdf:resource="http://purl.org/dc/dcmitype/StillImage" />
        <dc:title></dc:title>
      </cc:Work>
    </rdf:RDF>
  </metadata>
  <defs
     id="defs5352" />
  <path
     id="path5901"
     d="M 95.999999,8.2949202 A 87.705376,87.705376 0 0 0 8.2949203,95.999999 87.705376,87.705376 0 0 0 95.999999,183.70508 87.705376,87.705376 0 0 0 183.70508,95.999999 87.705376,87.705376 0 0 0 95.999999,8.2949202 Z m 0,27.1484378 c 13.334791,4.5e-5 26.154551,5.115109 36.544921,13.386719 l 5.11719,-5.117187 10.625,10.625 -5.11719,5.117187 c 8.27161,10.390377 13.38667,23.210132 13.38672,36.544922 -6e-5,16.593381 -7.90967,32.394671 -19.98633,43.697271 l -5.46875,-5.79297 -5.38281,-5.70118 c 9.19136,-8.61921 15.46675,-20.46519 15.4668,-32.203121 -3e-5,-8.847535 -3.57133,-17.754862 -9.26172,-25.298828 l -4.88867,4.888672 -10.625,-10.625 4.88867,-4.888672 c -7.54397,-5.690387 -16.4513,-9.261689 -25.298832,-9.261719 -22.384738,7.6e-5 -45.185471,22.800809 -45.185547,45.185547 3.9e-5,11.578371 6.108246,23.259511 15.095703,31.847661 l -5.71875,6.05664 -5.132812,5.4375 C 43.192985,128.06424 35.443413,112.42154 35.443358,95.999999 35.443466,64.292374 64.292373,35.443466 95.999999,35.443358 Z"
     style="opacity:1;fill:#ffffff;fill-opacity:1;stroke:none;stroke-width:2.91415668;stroke-linecap:square;stroke-linejoin:miter;stroke-miterlimit:4;stroke-dasharray:none;stroke-opacity:1;paint-order:fill markers stroke" />
</svg>
