<?xml version="1.0" encoding="UTF-8" standalone="no"?>
<svg
   xmlns:dc="http://purl.org/dc/elements/1.1/"
   xmlns:cc="http://creativecommons.org/ns#"
   xmlns:rdf="http://www.w3.org/1999/02/22-rdf-syntax-ns#"
   xmlns:svg="http://www.w3.org/2000/svg"
   xmlns="http://www.w3.org/2000/svg"
   version="1.1"
   id="svg4750"
   width="192"
   height="192"
   viewBox="0 0 192 192">
  <metadata
     id="metadata4756">
    <rdf:RDF>
      <cc:Work
         rdf:about="">
        <dc:format>image/svg+xml</dc:format>
        <dc:type
           rdf:resource="http://purl.org/dc/dcmitype/StillImage" />
        <dc:title></dc:title>
      </cc:Work>
    </rdf:RDF>
  </metadata>
  <defs
     id="defs4754" />
  <path
     id="rect4762"
     d="m 35.833983,12.601561 c -12.870301,0 -23.232422,10.362121 -23.232422,23.232422 V 156.16602 c 0,12.8703 10.362121,23.23242 23.232422,23.23242 H 156.16602 c 12.8703,0 23.23242,-10.36212 23.23242,-23.23242 V 35.833983 c 0,-12.870301 -10.36212,-23.232422 -23.23242,-23.232422 z m 60.166016,8.619141 c 55.978781,0 54.201171,123.705078 54.201171,123.705078 0,0 -0.029,14.50219 -2.99609,18.35547 -2.96703,3.85328 -10.40877,2.71182 -11.48242,-11.71289 -2.0008,-19.18553 4.34898,-57.115236 -30.26563,-57.115236 -3.52665,-0.20816 -6.334953,-0.28125 -9.457031,-0.28125 -3.122078,0 -5.93038,0.07309 -9.457031,0.28125 -34.614613,0 -28.264815,37.929706 -30.265625,57.115236 -1.073643,14.42471 -8.515395,15.56617 -11.482422,11.71289 -2.967032,-3.85328 -2.996094,-18.35547 -2.996094,-18.35547 0,0 -1.777599,-123.705078 54.201172,-123.705078 z m 0,15.269531 c -20.990096,0 -29.470221,36.329751 -30.978516,44.466797 0,0 12.176715,-3.929687 30.978516,-3.929687 18.801811,0 30.978521,3.929687 30.978521,3.929687 -1.50828,-8.137046 -9.98843,-44.466797 -30.978521,-44.466797 z m 0,62.304688 c 11.098511,3.4e-5 20.095201,5.789989 20.093751,12.931639 0,6.39022 -4.0853,10.94422 -5.19727,18.85156 -1.11197,7.90735 1.04493,19.18555 1.04493,19.18555 -3.2942,-4.59967 -7.30499,-6.75538 -8.75,-13.95117 0,0 -2.27054,0.92948 -3.11329,7.26172 -1.427825,10.72859 -1.977635,12.16962 -7.984371,19.64453 -0.544319,-10.02557 -0.962275,-11.46985 -2.71875,-15.56836 -1.655791,-3.86358 -6.317852,-10.34742 -9.498047,-16.50391 -3.504373,-6.78406 -3.970703,-14.13587 -3.970703,-18.91992 -0.0014,-7.14165 8.99524,-12.931605 20.09375,-12.931639 z"
     style="opacity:1;fill:#ffffff;fill-opacity:1;stroke:none;stroke-width:2.75510192;stroke-linecap:square;stroke-linejoin:miter;stroke-miterlimit:4;stroke-dasharray:none;stroke-opacity:1;paint-order:fill markers stroke" />
</svg>
