<?xml version="1.0" encoding="UTF-8" standalone="no"?>
<svg
   xmlns:dc="http://purl.org/dc/elements/1.1/"
   xmlns:cc="http://creativecommons.org/ns#"
   xmlns:rdf="http://www.w3.org/1999/02/22-rdf-syntax-ns#"
   xmlns:svg="http://www.w3.org/2000/svg"
   xmlns="http://www.w3.org/2000/svg"
   viewBox="0 0 192 192"
   height="192"
   width="192"
   id="svg4750"
   version="1.1">
  <metadata
     id="metadata4756">
    <rdf:RDF>
      <cc:Work
         rdf:about="">
        <dc:format>image/svg+xml</dc:format>
        <dc:type
           rdf:resource="http://purl.org/dc/dcmitype/StillImage" />
        <dc:title></dc:title>
      </cc:Work>
    </rdf:RDF>
  </metadata>
  <defs
     id="defs4754" />
  <path
     id="path4557"
     d="m 36.904294,14.08399 c -12.641498,0 -22.820313,10.178815 -22.820313,22.820312 V 155.0957 c 0,12.64149 10.178815,22.82031 22.820313,22.82031 H 155.0957 c 12.64149,0 22.82032,-10.17882 22.82032,-22.82031 V 36.904302 c 0,-12.641497 -10.17883,-22.820309 -22.82032,-22.820312 z m 59.095703,9.882812 c 14.044213,0 24.581873,7.672276 32.201173,18.865234 7.61929,11.192957 12.50151,25.931299 15.69141,40.625 6.37496,29.365234 5.93816,58.627964 5.9375,58.671864 v 0.0137 c -3e-5,0.0158 -0.005,3.55137 -0.37696,7.58789 -0.18623,2.02277 -0.46218,4.17057 -0.88867,6.10156 -0.42648,1.93099 -0.94619,3.63545 -1.92773,4.91016 -1.82929,2.37569 -5.33178,3.20853 -8.17774,1.27539 -2.84321,-1.93127 -4.94686,-6.14836 -5.48632,-13.34961 -0.98883,-9.51648 0.0283,-22.48488 -2.76172,-32.88086 -1.39604,-5.20196 -3.69873,-9.70104 -7.56836,-12.91797 -6.90105,-5.465513 -17.20358,-7.423822 -26.642586,-7.423822 -9.953455,0 -17.67295,1.488954 -26.642578,7.423822 -3.869636,3.21692 -6.172309,7.71601 -7.56836,12.91797 -2.789962,10.39598 -1.772882,23.36438 -2.761718,32.88086 -0.53945,7.20125 -2.643116,11.41834 -5.486328,13.34961 -2.845961,1.93314 -6.348454,1.1003 -8.177735,-1.27539 -0.981529,-1.27471 -1.501246,-2.97918 -1.927734,-4.91016 -0.426485,-1.93099 -0.702439,-4.07879 -0.888672,-6.10156 -0.371626,-4.03652 -0.376924,-7.57199 -0.376953,-7.58789 v -0.0137 -0.002 c -7.39e-4,-0.0494 -0.436873,-29.30743 5.9375,-58.669914 3.189878,-14.693636 8.072111,-29.432043 15.691406,-40.625 C 71.41812,31.639028 81.955781,23.966752 95.999994,23.966752 Z m 0,14.005859 c -20.990096,0 -29.470221,36.329752 -30.978516,44.466797 0,0 12.176715,-3.929687 30.978516,-3.929687 18.801813,0 30.978523,3.929687 30.978523,3.929687 -1.50828,-8.137045 -9.98843,-44.466797 -30.978523,-44.466797 z m 0,62.304689 c 11.827863,3e-5 21.415613,6.17027 21.414063,13.78124 0,6.81015 -4.35401,11.66288 -5.53906,20.08985 -1.18504,8.42699 1.11328,20.44726 1.11328,20.44726 -3.51068,-4.90194 -7.78425,-7.19853 -9.32422,-14.86719 0,0 -2.42023,0.98991 -3.31836,7.73829 -1.521656,11.43361 -2.106342,12.96942 -8.507812,20.93554 -0.580089,-10.6844 -1.026536,-12.22395 -2.898438,-16.5918 -1.764602,-4.11746 -6.731912,-11.02682 -10.121094,-17.58789 -3.734664,-7.22987 -4.232421,-15.06563 -4.232421,-20.16406 -0.0015,-7.61097 9.586211,-13.78121 21.414062,-13.78124 z"
     style="opacity:1;fill:#ffffff;fill-opacity:1;stroke:none;stroke-width:2.70612288;stroke-linecap:square;stroke-linejoin:miter;stroke-miterlimit:4;stroke-dasharray:none;stroke-opacity:1;paint-order:fill markers stroke" />
</svg>
