<svg xmlns="http://www.w3.org/2000/svg" viewBox="0 0 192 192" height="192" width="192">
    <path d="M36.904 14.084a22.772 22.772 0 0 0-22.82 22.82v118.192c0 12.64 10.18 22.82 22.82 22.82h118.192c12.64 0 22.82-10.18 22.82-22.82V36.904c0-12.64-10.18-22.82-22.82-22.82zM96 23.967c14.044 0 24.582 7.672 32.2 18.865 7.62 11.193 12.503 25.93 15.693 40.625 6.375 29.365 5.938 58.628 5.937 58.672v.01c0 .016-.005 3.55-.377 7.588-.186 2.022-.462 4.17-.89 6.1-.425 1.93-.945 3.636-1.926 4.91-1.83 2.377-5.332 3.21-8.178 1.277-2.846-1.932-4.95-6.15-5.49-13.35-.99-9.516.03-22.485-2.76-32.88-1.396-5.203-3.7-9.702-7.568-12.92-6.9-5.464-17.204-7.423-26.643-7.423-9.954 0-17.674 1.49-26.644 7.424-3.87 3.216-6.172 7.715-7.568 12.917-2.79 10.396-1.775 23.365-2.764 32.88-.54 7.202-2.643 11.42-5.486 13.35-2.845 1.934-6.347 1.1-8.177-1.275-.98-1.275-1.5-2.98-1.926-4.91-.427-1.93-.703-4.08-.89-6.102a94.95 94.95 0 0 1-.376-7.587v-.017c0-.05-.437-29.308 5.937-58.67C51.297 68.76 56.18 54.023 63.8 42.83 71.416 31.64 81.954 23.966 96 23.966zm0 14.006c-20.99 0-29.47 36.33-30.98 44.466 0 0 12.178-3.93 30.98-3.93s30.98 3.93 30.98 3.93c-1.51-8.14-9.99-44.47-30.98-44.47zm0 62.304c11.828 0 21.416 6.17 21.414 13.782 0 6.81-4.354 11.66-5.54 20.086-1.184 8.427 1.114 20.448 1.114 20.448-3.51-4.902-7.784-7.2-9.324-14.867 0 0-2.42.988-3.318 7.737-1.522 11.433-2.107 12.97-8.508 20.935-.58-10.685-1.027-12.225-2.9-16.59-1.763-4.12-6.73-11.03-10.12-17.59-3.734-7.23-4.232-15.066-4.232-20.164-.002-7.612 9.586-13.783 21.414-13.783z" fill="#fff" paint-order="fill markers stroke"/>
</svg>
