<?xml version="1.0" encoding="UTF-8" standalone="no"?>
<svg
   xmlns:dc="http://purl.org/dc/elements/1.1/"
   xmlns:cc="http://creativecommons.org/ns#"
   xmlns:rdf="http://www.w3.org/1999/02/22-rdf-syntax-ns#"
   xmlns:svg="http://www.w3.org/2000/svg"
   xmlns="http://www.w3.org/2000/svg"
   viewBox="0 0 192 192"
   height="192"
   width="192"
   id="svg4750"
   version="1.1">
  <metadata
     id="metadata4756">
    <rdf:RDF>
      <cc:Work
         rdf:about="">
        <dc:format>image/svg+xml</dc:format>
        <dc:type
           rdf:resource="http://purl.org/dc/dcmitype/StillImage" />
        <dc:title></dc:title>
      </cc:Work>
    </rdf:RDF>
  </metadata>
  <defs
     id="defs4754" />
  <path
     id="path4489"
     d="M 36.521484 13.552734 C 23.798074 13.552734 13.552734 23.798074 13.552734 36.521484 L 13.552734 155.47852 C 13.552734 168.20193 23.798074 178.44727 36.521484 178.44727 L 155.47852 178.44727 C 168.20193 178.44727 178.44727 168.20193 178.44727 155.47852 L 178.44727 36.521484 C 178.44727 23.798074 168.20193 13.552734 155.47852 13.552734 L 36.521484 13.552734 z M 96.310547 23.794922 C 112.56167 23.574597 125.59067 35.781048 132.56445 49.605469 C 146.50026 77.223822 149.53059 108.83143 150.79492 139.31055 C 150.54966 148.14544 151.95626 154.85814 147.20508 162.73633 C 142.97985 167.69735 135.59202 163.34445 134.44922 157.89844 C 129.93384 141.65965 134.91314 127.28507 127.64258 111.7168 C 123.4324 101.33434 111.42569 98.524464 101.43164 99.017578 C 89.722252 99.272745 75.081429 96.905507 66.935547 107.57812 C 56.580013 122.85819 61.879413 138.72277 58.261719 155.85547 C 57.541918 161.34193 51.37531 167.71662 45.867188 163.66406 C 40.63053 158.30809 41.796141 153.03304 41.189453 146.12305 C 41.771118 114.57081 44.609926 82.014822 57.796875 52.945312 C 64.461684 38.236895 77.464184 24.048545 94.728516 23.855469 C 95.259357 23.822137 95.786317 23.802029 96.310547 23.794922 z M 96 105.7832 C 106.82984 105.78324 115.60884 111.43358 115.60742 118.40234 C 115.60742 124.63787 111.62021 129.08096 110.53516 136.79688 C 109.45011 144.5128 111.55469 155.51758 111.55469 155.51758 C 108.34024 151.02926 104.42761 148.92589 103.01758 141.9043 C 103.01758 141.9043 100.80087 142.81128 99.978516 148.99023 C 98.585255 159.45911 98.048826 160.8662 92.1875 168.16016 C 91.656358 158.37729 91.249111 156.96609 89.535156 152.9668 C 87.919448 149.19675 83.370787 142.87074 80.267578 136.86328 C 76.848038 130.24345 76.392578 123.07058 76.392578 118.40234 C 76.391178 111.43358 85.170161 105.78324 96 105.7832 z "
     style="opacity:1;fill:#ffffff;fill-opacity:1;stroke:none;stroke-width:2.72365737;stroke-linecap:square;stroke-linejoin:miter;stroke-miterlimit:4;stroke-dasharray:none;stroke-opacity:1;paint-order:fill markers stroke" />
</svg>
