<svg xmlns="http://www.w3.org/2000/svg" viewBox="0 0 192 192" height="192" width="192">
    <path d="M15.236 32a7.19 7.19 0 0 0-7.205 7.205v113.59A7.19 7.19 0 0 0 15.24 160h161.528a7.19 7.19 0 0 0 7.205-7.205V39.205A7.19 7.19 0 0 0 176.764 32H15.236zm7.1 11.86h6.107c1.662 0 3 1.34 3 3v98.28c0 1.66-1.338 3-3 3h-6.107c-1.662 0-3-1.34-3-3V46.86c0-1.66 1.338-3 3-3zm19.666 0h13.52c1.663 0 3 1.34 3 3v98.28c0 1.66-1.337 3-3 3h-13.52c-1.662 0-3-1.34-3-3V46.86c0-1.66 1.338-3 3-3zm27.078 0h10.31c1.66 0 3 1.34 3 3v98.28c0 1.66-1.34 3-3 3H69.08c-1.662 0-3-1.34-3-3V46.86c0-1.66 1.338-3 3-3zm23.865 0h6.11c1.662 0 3 1.34 3 3v98.28c0 1.66-1.338 3-3 3h-6.11c-1.662 0-3-1.34-3-3V46.86c0-1.66 1.338-3 3-3zm19.666 0h10.31c1.664 0 3 1.34 3 3v98.28c0 1.66-1.336 3-3 3h-10.31c-1.66 0-3-1.34-3-3V46.86c0-1.66 1.34-3 3-3zm23.87 0h6.11c1.66 0 3 1.34 3 3v98.28c0 1.66-1.34 3-3 3h-6.11c-1.663 0-3-1.34-3-3V46.86c0-1.66 1.337-3 3-3zm19.665 0h13.52c1.663 0 3 1.34 3 3v98.28c0 1.66-1.337 3-3 3h-13.52c-1.662 0-3-1.34-3-3V46.86c0-1.66 1.338-3 3-3z" fill="#fff"/>
</svg>
