<?xml version="1.0" encoding="UTF-8" standalone="no"?>
<svg
   xmlns:dc="http://purl.org/dc/elements/1.1/"
   xmlns:cc="http://creativecommons.org/ns#"
   xmlns:rdf="http://www.w3.org/1999/02/22-rdf-syntax-ns#"
   xmlns:svg="http://www.w3.org/2000/svg"
   xmlns="http://www.w3.org/2000/svg"
   viewBox="0 0 192 192"
   height="192"
   width="192"
   id="svg5802"
   version="1.1">
  <metadata
     id="metadata5808">
    <rdf:RDF>
      <cc:Work
         rdf:about="">
        <dc:format>image/svg+xml</dc:format>
        <dc:type
           rdf:resource="http://purl.org/dc/dcmitype/StillImage" />
        <dc:title></dc:title>
      </cc:Work>
    </rdf:RDF>
  </metadata>
  <defs
     id="defs5806" />
  <path
     id="path6364"
     d="M 95.999998,8.4023419 A 87.598457,87.598457 0 0 0 8.4023419,95.999998 87.598457,87.598457 0 0 0 95.999998,183.59766 87.598457,87.598457 0 0 0 183.59766,95.999998 87.598457,87.598457 0 0 0 95.999998,8.4023419 Z M 77.808592,25.087889 87.968748,36.078123 81.791014,47.691404 61.529295,59.552732 53.621092,85.746092 88.710936,96.865232 51.142576,153.81641 A 73.266411,73.266411 0 0 1 39.935545,143.05273 L 34.347654,95.876951 53.621092,85.746092 26.193357,73.832029 a 73.266411,73.266411 0 0 1 51.615235,-48.74414 z m 50.771488,5.386718 a 73.266411,73.266411 0 0 1 23.41601,18.394532 l -35.60937,1.292968 z m 27.55078,23.814453 a 73.266411,73.266411 0 0 1 13.13476,41.710938 73.266411,73.266411 0 0 1 -25.375,55.328122 l -3.7832,-41.61328 -24.46289,-6.91992 -5.68359,-27.675781 z"
     style="opacity:1;fill:#ffffff;fill-opacity:1;stroke:none;stroke-width:1;stroke-opacity:1" />
</svg>
