<svg xmlns="http://www.w3.org/2000/svg" viewBox="0 0 192 192" height="192" width="192">
    <path d="M96 8.402A87.598 87.598 0 0 0 8.402 96 87.598 87.598 0 0 0 96 183.598 87.598 87.598 0 0 0 183.598 96 87.598 87.598 0 0 0 96 8.402zM77.81 25.088l10.16 10.99-6.18 11.613-20.26 11.865-7.91 26.193 35.09 11.12-37.567 56.95a73.266 73.266 0 0 1-11.207-10.763L34.348 95.88 53.62 85.75 26.196 73.83A73.266 73.266 0 0 1 77.81 25.088zm50.77 5.387a73.266 73.266 0 0 1 23.416 18.394l-35.61 1.29zm27.55 23.814A73.266 73.266 0 0 1 169.267 96a73.266 73.266 0 0 1-25.375 55.328l-3.783-41.613-24.464-6.92-5.684-27.676z" fill="#fff"/>
</svg>
