<svg xmlns="http://www.w3.org/2000/svg" viewBox="0 0 192 192" height="192" width="192">
    <path d="M27.922 19.52a8.38 8.38 0 0 0-8.4 8.402v51.646a8.38 8.38 0 0 0 8.4 8.4h51.646a8.38 8.38 0 0 0 8.4-8.4V27.922a8.38 8.38 0 0 0-8.4-8.4zm19.824 12.357h12v15.87h15.867v12H59.746v15.866h-12V59.746h-15.87v-12h15.87z" fill="#fff"/>
    <rect ry="8.402" y="19.521" x="104.031" height="68.448" width="68.448" fill="#fff"/>
    <path d="M112.432 104.03a8.38 8.38 0 0 0-8.4 8.402v51.646a8.38 8.38 0 0 0 8.4 8.4h51.646a8.38 8.38 0 0 0 8.4-8.4v-51.646a8.38 8.38 0 0 0-8.4-8.4zm3.955 16.363h43.736v12h-43.736zm0 23.722h43.736v12h-43.736z" fill="#fff"/>
    <rect ry="8.402" y="104.031" x="19.521" height="68.448" width="68.448" fill="#fff"/>
</svg>
