<?xml version="1.0" encoding="UTF-8" standalone="no"?>
<svg
   xmlns:dc="http://purl.org/dc/elements/1.1/"
   xmlns:cc="http://creativecommons.org/ns#"
   xmlns:rdf="http://www.w3.org/1999/02/22-rdf-syntax-ns#"
   xmlns:svg="http://www.w3.org/2000/svg"
   xmlns="http://www.w3.org/2000/svg"
   width="192"
   height="192"
   viewBox="0 0 50.799999 50.799999"
   version="1.1"
   id="svg8">
  <defs
     id="defs2" />
  <metadata
     id="metadata5">
    <rdf:RDF>
      <cc:Work
         rdf:about="">
        <dc:format>image/svg+xml</dc:format>
        <dc:type
           rdf:resource="http://purl.org/dc/dcmitype/StillImage" />
        <dc:title></dc:title>
      </cc:Work>
    </rdf:RDF>
  </metadata>
  <path
     id="path5511"
     transform="scale(0.26458333)"
     d="M 28.919922 18.660156 C 24.746211 18.660156 21.386719 23.773657 21.386719 30.121094 L 21.386719 161.87891 C 21.386719 168.22634 24.746211 173.33984 28.919922 173.33984 L 163.08008 173.33984 C 167.2538 173.33984 170.61328 168.22634 170.61328 161.87891 L 170.61328 30.121094 C 170.61328 23.773658 167.2538 18.660156 163.08008 18.660156 L 28.919922 18.660156 z M 63.388672 30.662109 A 10.001366 10.001366 0 0 1 73.388672 40.662109 A 10.001366 10.001366 0 0 1 63.388672 50.664062 A 10.001366 10.001366 0 0 1 53.386719 40.662109 A 10.001366 10.001366 0 0 1 63.388672 30.662109 z M 128.61133 30.662109 A 10.001366 10.001366 0 0 1 138.61328 40.662109 A 10.001366 10.001366 0 0 1 128.61133 50.664062 A 10.001366 10.001366 0 0 1 118.61133 40.662109 A 10.001366 10.001366 0 0 1 128.61133 30.662109 z M 61.701172 79.423828 C 70.28138 79.423828 76.693577 80.839338 80.939453 83.669922 C 85.214814 86.471021 87.353516 90.702113 87.353516 96.363281 C 87.353516 100.22585 86.335263 103.39629 84.300781 105.87305 C 82.266299 108.32032 79.259806 110.04438 75.279297 111.04688 C 79.73157 112.1968 83.108354 114.20243 85.408203 117.0625 C 87.737538 119.89308 88.902344 123.50514 88.902344 127.89844 C 88.902344 134.44416 86.395305 139.42737 81.382812 142.84766 C 76.37032 146.23846 69.057504 147.93359 59.445312 147.93359 C 56.054509 147.93359 52.648805 147.65397 49.228516 147.09375 C 45.837712 146.56302 42.476364 145.75111 39.144531 144.66016 L 39.144531 131.52539 C 42.328938 133.11759 45.483939 134.32676 48.609375 135.15234 C 51.764297 135.94845 54.861457 136.3457 57.898438 136.3457 C 62.409681 136.3457 65.857789 135.56467 68.246094 134.00195 C 70.663884 132.43923 71.873047 130.19834 71.873047 127.2793 C 71.873047 124.2718 70.634964 122.00198 68.158203 120.46875 C 65.710927 118.90603 62.085393 118.12305 57.279297 118.12305 L 50.466797 118.12305 L 50.466797 107.15625 L 57.632812 107.15625 C 61.908174 107.15625 65.092094 106.49285 67.185547 105.16602 C 69.279 103.80969 70.326172 101.75971 70.326172 99.017578 C 70.326172 96.481847 69.30792 94.520572 67.273438 93.134766 C 65.238955 91.748959 62.365532 91.056641 58.650391 91.056641 C 55.908262 91.056641 53.135083 91.365185 50.333984 91.984375 C 47.532886 92.603565 44.748176 93.517667 41.976562 94.726562 L 41.976562 82.255859 C 45.337881 81.312331 48.668355 80.604576 51.970703 80.132812 C 55.273051 79.661049 58.516765 79.423828 61.701172 79.423828 z M 121.63086 80.619141 L 137.81836 80.619141 L 137.81836 134.88672 L 152.85547 134.88672 L 152.85547 146.65039 L 106.68164 146.65039 L 106.68164 134.88672 L 121.71875 134.88672 L 121.71875 92.207031 L 106.2832 95.390625 L 106.2832 83.802734 L 121.63086 80.619141 z "
     style="opacity:1;fill:#ffffff;fill-opacity:1;stroke:none;stroke-width:1.12545609;stroke-opacity:1" />
</svg>
