<?xml version="1.0" encoding="UTF-8" standalone="no"?>
<svg
   xmlns:dc="http://purl.org/dc/elements/1.1/"
   xmlns:cc="http://creativecommons.org/ns#"
   xmlns:rdf="http://www.w3.org/1999/02/22-rdf-syntax-ns#"
   xmlns:svg="http://www.w3.org/2000/svg"
   xmlns="http://www.w3.org/2000/svg"
   viewBox="0 0 192 192"
   height="192"
   width="192"
   id="svg5219"
   version="1.1">
  <metadata
     id="metadata5225">
    <rdf:RDF>
      <cc:Work
         rdf:about="">
        <dc:format>image/svg+xml</dc:format>
        <dc:type
           rdf:resource="http://purl.org/dc/dcmitype/StillImage" />
        <dc:title></dc:title>
      </cc:Work>
    </rdf:RDF>
  </metadata>
  <defs
     id="defs5223" />
  <path
     style="opacity:1;fill:#ffffff;fill-opacity:1;stroke:none;stroke-width:7.77269173;stroke-linecap:square;stroke-linejoin:miter;stroke-miterlimit:4;stroke-dasharray:none;stroke-opacity:1;paint-order:fill markers stroke"
     d="m 26.824414,31.030017 v 9.491836 h -10.39582 c -4.459644,0 -8.052734,3.5931 -8.052734,8.05275 V 152.91725 c 0,4.45965 3.59309,8.05273 8.052734,8.05273 H 175.57141 c 4.45964,0 8.05273,-3.59308 8.05273,-8.05273 V 48.574603 c 0,-4.45965 -3.59309,-8.05275 -8.05273,-8.05275 H 61.82004 V 31.030017 Z M 162.32856,53.541333 c 4.57129,-0.001 8.27737,3.70482 8.27613,8.27611 -0.002,4.56927 -3.70687,8.2722 -8.27613,8.27095 -4.56724,-0.002 -8.26932,-3.7037 -8.27094,-8.27095 -10e-4,-4.56927 3.70167,-8.27449 8.27094,-8.27611 z M 96,67.921953 c 21.1233,0.001 38.24687,17.12458 38.24789,38.247877 C 134.24974,127.29517 117.12533,144.4219 96,144.42291 74.874668,144.4219 57.750264,127.29517 57.75211,106.16983 57.753134,85.046533 74.876698,67.922963 96,67.921953 Z"
     id="path5550" />
</svg>
