<svg xmlns="http://www.w3.org/2000/svg" width="192" height="192" viewBox="0 0 192 192">
    <path d="M50.746 13.188a37.552 37.552 0 0 0-37.55 37.558 37.552 37.552 0 0 0 37.55 37.55h37.55v-37.55a37.552 37.552 0 0 0-37.55-37.558zm90.508 0a37.552 37.552 0 0 1 37.55 37.558 37.552 37.552 0 0 1-37.55 37.55h-37.55v-37.55a37.552 37.552 0 0 1 37.55-37.558zM50.746 178.812a37.552 37.552 0 0 1-37.55-37.558 37.552 37.552 0 0 1 37.55-37.55h37.55v37.55a37.552 37.552 0 0 1-37.55 37.558zm90.508 0a37.552 37.552 0 0 0 37.55-37.558 37.552 37.552 0 0 0-37.55-37.55h-37.55v37.55a37.552 37.552 0 0 0 37.55 37.558z" fill="#fff"/>
</svg>
