<?xml version="1.0" encoding="UTF-8" standalone="no"?>
<svg
   xmlns:dc="http://purl.org/dc/elements/1.1/"
   xmlns:cc="http://creativecommons.org/ns#"
   xmlns:rdf="http://www.w3.org/1999/02/22-rdf-syntax-ns#"
   xmlns:svg="http://www.w3.org/2000/svg"
   xmlns="http://www.w3.org/2000/svg"
   xmlns:xlink="http://www.w3.org/1999/xlink"
   viewBox="0 0 192 192"
   height="192"
   width="192"
   id="svg10530"
   version="1.1">
  <metadata
     id="metadata10536">
    <rdf:RDF>
      <cc:Work
         rdf:about="">
        <dc:format>image/svg+xml</dc:format>
        <dc:type
           rdf:resource="http://purl.org/dc/dcmitype/StillImage" />
        <dc:title></dc:title>
      </cc:Work>
    </rdf:RDF>
  </metadata>
  <defs
     id="defs10534" />
    <path
       id="path11083"
       d="M 96 7.7792969 A 88.21978 88.21978 0 0 0 7.7792969 96 A 88.21978 88.21978 0 0 0 96 184.2207 A 88.21978 88.21978 0 0 0 184.2207 96 A 88.21978 88.21978 0 0 0 96 7.7792969 z M 114.94727 36.291016 C 118.60079 36.423584 121.88676 38.855637 124.39453 42.740234 C 129.15001 50.106574 124.11348 47.774346 130.64062 44.697266 C 137.16776 41.620186 143.48242 50.748047 143.48242 50.748047 C 143.48242 50.748047 148.99969 57.684755 146.67969 68.382812 C 142.48153 87.741484 106.49023 92.439453 106.49023 92.439453 C 98.750919 82.555501 96.661466 51.320181 104.5332 42.087891 C 107.83757 38.212402 111.14082 36.442483 114.21094 36.294922 C 114.45764 36.283064 114.7037 36.282178 114.94727 36.291016 z M 62.783203 44.753906 C 64.503678 44.725858 66.376925 44.885312 68.382812 45.320312 C 87.741481 49.51847 92.439453 85.509766 92.439453 85.509766 C 82.555499 93.249089 51.320184 95.338542 42.087891 87.466797 C 33.22963 79.913965 35.373891 72.360957 42.740234 67.605469 C 50.106577 62.849983 47.774346 67.886514 44.697266 61.359375 C 41.620185 54.832235 50.748047 48.517578 50.748047 48.517578 C 50.748047 48.517578 55.327812 44.875449 62.783203 44.753906 z M 85.509766 99.560547 C 93.249096 109.4445 95.338537 140.67982 87.466797 149.91211 C 79.913957 158.77037 72.360959 156.62612 67.605469 149.25977 C 62.849989 141.89343 67.886515 144.22565 61.359375 147.30273 C 54.832235 150.37981 48.517578 141.25195 48.517578 141.25195 C 48.517578 141.25195 43.000312 134.31525 45.320312 123.61719 C 49.518472 104.25852 85.509766 99.560547 85.509766 99.560547 z M 128.79102 99.560547 C 137.62281 99.551956 145.87298 101.08932 149.91211 104.5332 C 158.77037 112.08604 156.62612 119.63904 149.25977 124.39453 C 141.89343 129.15001 144.22565 124.11348 147.30273 130.64062 C 150.37981 137.16776 141.25195 143.48242 141.25195 143.48242 C 141.25195 143.48242 134.31525 148.99969 123.61719 146.67969 C 104.25852 142.48153 99.560547 106.49023 99.560547 106.49023 C 105.12027 102.13686 117.43585 99.571592 128.79102 99.560547 z "
       style="opacity:1;fill:#ffffff;fill-opacity:1;stroke:none;stroke-width:1.21857929;stroke-opacity:1" />
</svg>
