<?xml version="1.0" encoding="UTF-8" standalone="no"?>
<svg
   xmlns:dc="http://purl.org/dc/elements/1.1/"
   xmlns:cc="http://creativecommons.org/ns#"
   xmlns:rdf="http://www.w3.org/1999/02/22-rdf-syntax-ns#"
   xmlns:svg="http://www.w3.org/2000/svg"
   xmlns="http://www.w3.org/2000/svg"
   width="192"
   height="192"
   viewBox="0 0 50.799999 50.799999"
   version="1.1"
   id="svg8">
  <defs
     id="defs2" />
  <metadata
     id="metadata5">
    <rdf:RDF>
      <cc:Work
         rdf:about="">
        <dc:format>image/svg+xml</dc:format>
        <dc:type
           rdf:resource="http://purl.org/dc/dcmitype/StillImage" />
        <dc:title></dc:title>
      </cc:Work>
    </rdf:RDF>
  </metadata>
  <g
     id="layer1"
     transform="matrix(0.27112392,0,0,0.27112392,-0.62789655,-29.095908)">
    <path
       style="opacity:1;fill:#ffffff;fill-opacity:1;stroke:none;stroke-width:0.27132526;stroke-opacity:1"
       d="M 95.999741,117.27669 A 83.723228,83.723228 0 0 0 12.276688,200.99974 83.723228,83.723228 0 0 0 95.999741,284.72331 83.723228,83.723228 0 0 0 179.72331,200.99974 83.723228,83.723228 0 0 0 95.999741,117.27669 Z M 59.81642,170.11532 a 11.442026,11.442026 0 0 1 11.442197,11.4422 11.442026,11.442026 0 0 1 -11.442197,11.4422 11.442026,11.442026 0 0 1 -11.442195,-11.4422 11.442026,11.442026 0 0 1 11.442195,-11.4422 z m 36.183321,0 a 11.442026,11.442026 0 0 1 11.442199,11.4422 11.442026,11.442026 0 0 1 -11.442199,11.4422 11.442026,11.442026 0 0 1 -11.441679,-11.4422 11.442026,11.442026 0 0 1 11.441679,-11.4422 z m 36.183839,0 a 11.442026,11.442026 0 0 1 11.44168,11.4422 11.442026,11.442026 0 0 1 -11.44168,11.4422 11.442026,11.442026 0 0 1 -11.4422,-11.4422 11.442026,11.442026 0 0 1 11.4422,-11.4422 z m -72.36716,38.88445 a 11.442026,11.442026 0 0 1 11.442197,11.4422 11.442026,11.442026 0 0 1 -11.442197,11.44219 11.442026,11.442026 0 0 1 -11.442195,-11.44219 11.442026,11.442026 0 0 1 11.442195,-11.4422 z m 36.183321,0 a 11.442026,11.442026 0 0 1 11.442199,11.4422 11.442026,11.442026 0 0 1 -11.442199,11.44219 11.442026,11.442026 0 0 1 -11.441679,-11.44219 11.442026,11.442026 0 0 1 11.441679,-11.4422 z m 36.183839,0 a 11.442026,11.442026 0 0 1 11.44168,11.4422 11.442026,11.442026 0 0 1 -11.44168,11.44219 11.442026,11.442026 0 0 1 -11.4422,-11.44219 11.442026,11.442026 0 0 1 11.4422,-11.4422 z"
       id="path5683" />
  </g>
</svg>
