<?xml version="1.0" encoding="UTF-8" standalone="no"?>
<svg
   xmlns:dc="http://purl.org/dc/elements/1.1/"
   xmlns:cc="http://creativecommons.org/ns#"
   xmlns:rdf="http://www.w3.org/1999/02/22-rdf-syntax-ns#"
   xmlns:svg="http://www.w3.org/2000/svg"
   xmlns="http://www.w3.org/2000/svg"
   version="1.1"
   id="svg5881"
   width="192"
   height="192"
   viewBox="0 0 192 192">
  <metadata
     id="metadata5887">
    <rdf:RDF>
      <cc:Work
         rdf:about="">
        <dc:format>image/svg+xml</dc:format>
        <dc:type
           rdf:resource="http://purl.org/dc/dcmitype/StillImage" />
        <dc:title></dc:title>
      </cc:Work>
    </rdf:RDF>
  </metadata>
  <defs
     id="defs5885" />
  <path
     id="path7741"
     d="M 18.417969 27.931641 C 13.007661 27.931641 8.6503906 32.286959 8.6503906 37.697266 L 8.6503906 65.908203 L 183.34961 65.908203 L 183.34961 53.699219 C 183.34961 48.288909 178.99234 43.9375 173.58203 43.9375 L 129.64062 43.9375 C 120.84746 43.45796 114.31445 41.583984 114.31445 41.583984 C 114.31445 41.583984 84.083808 34.147687 73.488281 30.642578 C 65.331524 27.944221 64.001299 27.931641 62.78125 27.931641 L 61.275391 27.931641 L 52.878906 27.931641 L 18.417969 27.931641 z M 8.6503906 81.869141 L 8.6503906 108.45312 L 8.6503906 154.30273 C 8.6503906 159.71304 13.007666 164.06836 18.417969 164.06836 L 173.58203 164.06836 C 178.99234 164.06836 183.34961 159.71304 183.34961 154.30273 L 183.34961 81.869141 L 8.6503906 81.869141 z M 147.00195 103.3125 C 149.08307 103.3125 151.22428 103.47345 153.42383 103.79492 C 155.62338 104.09948 157.89817 104.56538 160.25 105.19141 L 160.25 113.21094 C 158.16889 112.28036 156.13975 111.57727 154.16016 111.10352 C 152.18056 110.62977 150.31042 110.39258 148.55078 110.39258 C 146.21587 110.39258 144.48974 110.71448 143.37305 111.35742 C 142.25635 112.00037 141.69727 112.99995 141.69727 114.35352 C 141.69727 115.36869 142.06999 116.16301 142.81445 116.73828 C 143.57584 117.29663 144.94619 117.77948 146.92578 118.18555 L 151.08789 119.02148 C 155.30088 119.86747 158.2957 121.15506 160.07227 122.88086 C 161.84883 124.60666 162.73828 127.05934 162.73828 130.24023 C 162.73828 134.41938 161.49304 137.5328 159.00586 139.58008 C 156.53559 141.61043 152.75492 142.625 147.66211 142.625 C 145.25952 142.625 142.84919 142.39628 140.42969 141.93945 C 138.01018 141.48262 135.58943 140.8069 133.16992 139.91016 L 133.16992 131.66211 C 135.58943 132.948 137.92547 133.92021 140.17578 134.58008 C 142.44301 135.22302 144.62462 135.54492 146.72266 135.54492 C 148.85453 135.54492 150.48748 135.18914 151.62109 134.47852 C 152.75471 133.76789 153.32227 132.75332 153.32227 131.43359 C 153.32227 130.24922 152.9326 129.33435 152.1543 128.69141 C 151.39291 128.04846 149.86162 127.47439 147.56055 126.9668 L 143.7793 126.12891 C 139.9893 125.31676 137.21472 124.02265 135.45508 122.24609 C 133.71236 120.46953 132.83984 118.07419 132.83984 115.0625 C 132.83984 111.28942 134.05771 108.38778 136.49414 106.35742 C 138.93057 104.32707 142.43365 103.3125 147.00195 103.3125 z M 98.349609 103.99805 L 124.71875 103.99805 L 124.71875 111.38281 L 108.12109 111.38281 L 108.12109 118.43945 L 123.72852 118.43945 L 123.72852 125.82422 L 108.12109 125.82422 L 108.12109 134.50391 L 125.27734 134.50391 L 125.27734 141.88867 L 98.349609 141.88867 L 98.349609 103.99805 z "
     style="opacity:1;fill:#ffffff;fill-opacity:1;stroke:none;stroke-width:7.98000002;stroke-linecap:square;stroke-linejoin:miter;stroke-miterlimit:4;stroke-dasharray:none;stroke-opacity:1;paint-order:fill markers stroke" />
</svg>
