<?xml version="1.0" encoding="UTF-8" standalone="no"?>
<svg
   xmlns:dc="http://purl.org/dc/elements/1.1/"
   xmlns:cc="http://creativecommons.org/ns#"
   xmlns:rdf="http://www.w3.org/1999/02/22-rdf-syntax-ns#"
   xmlns:svg="http://www.w3.org/2000/svg"
   xmlns="http://www.w3.org/2000/svg"
   viewBox="0 0 192 192"
   height="192"
   width="192"
   id="svg5188"
   version="1.1">
  <metadata
     id="metadata5194">
    <rdf:RDF>
      <cc:Work
         rdf:about="">
        <dc:format>image/svg+xml</dc:format>
        <dc:type
           rdf:resource="http://purl.org/dc/dcmitype/StillImage" />
        <dc:title></dc:title>
      </cc:Work>
    </rdf:RDF>
  </metadata>
  <defs
     id="defs5192" />
  <path
     id="rect5198"
     d="m 27.921876,19.767579 c -4.51756,0 -8.154297,3.636737 -8.154297,8.154297 V 164.07812 c 0,4.51756 3.636737,8.1543 8.154297,8.1543 H 164.07812 c 4.51756,0 8.1543,-3.63674 8.1543,-8.1543 V 27.921876 c 0,-4.51756 -3.63674,-8.154297 -8.1543,-8.154297 z M 61.652345,55.47461 h 68.695315 c 3.1486,0 5.68359,2.534993 5.68359,5.683594 V 130.8418 c 0,3.1486 -2.53499,5.68359 -5.68359,5.68359 H 61.652345 c -3.148601,0 -5.683594,-2.53499 -5.683594,-5.68359 V 61.158204 c 0,-3.148601 2.534993,-5.683594 5.683594,-5.683594 z"
     style="opacity:1;fill:#ffffff;fill-opacity:1;stroke:none;stroke-width:1.00488603;stroke-opacity:1" />
</svg>
