<?xml version="1.0" encoding="UTF-8" standalone="no"?>
<svg
   xmlns:dc="http://purl.org/dc/elements/1.1/"
   xmlns:cc="http://creativecommons.org/ns#"
   xmlns:rdf="http://www.w3.org/1999/02/22-rdf-syntax-ns#"
   xmlns:svg="http://www.w3.org/2000/svg"
   xmlns="http://www.w3.org/2000/svg"
   version="1.1"
   id="svg4728"
   width="192"
   height="192"
   viewBox="0 0 192 192">
  <metadata
     id="metadata4734">
    <rdf:RDF>
      <cc:Work
         rdf:about="">
        <dc:format>image/svg+xml</dc:format>
        <dc:type
           rdf:resource="http://purl.org/dc/dcmitype/StillImage" />
        <dc:title></dc:title>
      </cc:Work>
    </rdf:RDF>
  </metadata>
  <defs
     id="defs4732" />
  <g
     id="layer1"
     style="display:inline" />
  <path
     style="opacity:1;fill:#ffffff;fill-opacity:1;stroke:none;stroke-width:7.92456007;stroke-linecap:square;stroke-linejoin:miter;stroke-miterlimit:4;stroke-dasharray:none;stroke-opacity:1;paint-order:fill markers stroke"
     d="M 31.496094 12.222656 C 24.651306 12.222656 19.140625 17.733337 19.140625 24.578125 L 19.140625 153.58398 C 19.140625 160.42877 24.651306 165.93945 31.496094 165.93945 L 54.417969 165.93945 C 65.048912 176.59337 80.7006 181.90358 95.746094 180.82812 C 110.65748 180.77863 126.29565 175.79847 137.58203 165.93945 L 160.50391 165.93945 C 167.34869 165.93945 172.85936 160.42877 172.85938 153.58398 L 172.85938 24.578125 C 172.85938 17.733337 167.34869 12.222656 160.50391 12.222656 L 31.496094 12.222656 z M 73.736328 28.822266 L 79.78125 37.273438 L 90.03125 35.572266 L 88.328125 45.822266 L 96.78125 51.867188 L 88.328125 57.912109 L 90.03125 68.162109 L 79.78125 66.460938 L 73.736328 74.912109 L 67.691406 66.460938 L 57.439453 68.162109 L 59.142578 57.912109 L 50.689453 51.867188 L 59.142578 45.822266 L 57.439453 35.572266 L 67.691406 37.273438 L 73.736328 28.822266 z M 148.93555 93.109375 L 148.93555 138.95312 C 148.93555 138.95312 146.7215 154.75557 131.47656 165.93945 C 130.50427 166.65274 129.49925 167.35308 128.41797 168.02344 C 126.77841 169.03991 125.00995 170.00157 123.10352 170.88867 C 121.19708 171.77577 119.15194 172.58978 116.95898 173.31055 C 114.76603 174.03132 112.4249 174.65831 109.92578 175.17578 C 107.42666 175.69326 104.77023 176.09973 101.94531 176.37695 C 99.120398 176.65417 96.127385 176.80273 92.957031 176.80273 C 90.849619 176.80273 88.832386 176.71272 86.902344 176.54102 C 86.902344 176.54102 86.900391 176.54102 86.900391 176.54102 C 86.25685 176.48375 85.624393 176.41691 85 176.3418 C 82.502426 176.04136 80.155803 175.60183 77.953125 175.04102 C 75.750447 174.4802 73.689796 173.79871 71.763672 173.01758 C 71.281577 172.82207 70.809238 172.61985 70.34375 172.41211 C 69.878947 172.20451 69.423078 171.99265 68.974609 171.77344 C 68.077247 171.3353 67.212862 170.87328 66.378906 170.39258 C 64.710995 169.43118 63.166322 168.39066 61.738281 167.28906 C 61.169973 166.85067 60.633912 166.39562 60.101562 165.93945 C 45.919404 153.78685 44.279297 135.7832 44.279297 135.7832 L 44.279297 105.39062 C 78.731986 105.39062 88.94885 128.45053 91.847656 139.16602 L 91.845703 139.10547 C 91.845703 139.10547 98.349224 93.109375 148.93555 93.109375 z "
     id="rect4738" />
  <path
     style="fill:#ff0000;fill-opacity:1;stroke:none;stroke-width:1px;stroke-linecap:butt;stroke-linejoin:miter;stroke-opacity:1"
     d="M 125.33594 169.68555 C 126.37521 169.13693 127.46708 168.61296 128.41797 168.02344 C 129.25822 167.50251 129.97204 166.93233 130.74609 166.38477 C 129.09813 167.55065 127.28962 168.65279 125.33594 169.68555 z "
     id="path4857" />
  <path
     style="fill:#ff0000;fill-opacity:1;stroke:none;stroke-width:1px;stroke-linecap:butt;stroke-linejoin:miter;stroke-opacity:1"
     d="M 116.20898 173.50977 C 116.44624 173.43502 116.72511 173.38742 116.95898 173.31055 C 119.15194 172.58978 121.19708 171.77577 123.10352 170.88867 C 123.43216 170.73575 123.69906 170.55175 124.01953 170.39453 C 121.64469 171.56106 119.05051 172.6129 116.20898 173.50977 z "
     id="path4855" />
  <path
     style="fill:#ff0000;fill-opacity:1;stroke:none;stroke-width:1px;stroke-linecap:butt;stroke-linejoin:miter;stroke-opacity:1"
     d="M 106.88281 175.63281 C 107.88217 175.46877 108.97291 175.37309 109.92578 175.17578 C 111.60384 174.82832 113.10986 174.36569 114.64844 173.92383 C 112.24012 174.61663 109.63789 175.17954 106.88281 175.63281 z "
     id="path4853" />
  <path
     style="fill:#ff0000;fill-opacity:1;stroke:none;stroke-width:1px;stroke-linecap:butt;stroke-linejoin:miter;stroke-opacity:1"
     d="M 92.957031 176.80273 C 96.127385 176.80273 99.120396 176.65417 101.94531 176.37695 C 102.70924 176.30199 103.36394 176.14626 104.10352 176.05273 C 100.63069 176.49259 96.984647 176.80273 92.957031 176.80273 z "
     id="path4851" />
  <path
     style="fill:#ff0000;fill-opacity:1;stroke:none;stroke-width:1px;stroke-linecap:butt;stroke-linejoin:miter;stroke-opacity:1"
     d="M 83.4375 176.05273 C 83.976475 176.13292 84.446174 176.27518 85 176.3418 C 87.497574 176.64223 90.14622 176.80273 92.957031 176.80273 C 89.524434 176.80273 86.404909 176.49474 83.4375 176.05273 z "
     id="path4849" />
  <path
     style="fill:#ff0000;fill-opacity:1;stroke:none;stroke-width:1px;stroke-linecap:butt;stroke-linejoin:miter;stroke-opacity:1"
     d="M 74.84375 174.02344 C 75.879454 174.36333 76.84646 174.75925 77.953125 175.04102 C 78.896915 175.28131 79.975689 175.40306 80.972656 175.59766 C 78.809085 175.17458 76.760428 174.65335 74.84375 174.02344 z "
     id="path4847" />
  <path
     style="fill:#ff0000;fill-opacity:1;stroke:none;stroke-width:1px;stroke-linecap:butt;stroke-linejoin:miter;stroke-opacity:1"
     d="M 66.195312 170.26953 C 66.260953 170.30784 66.312876 170.35452 66.378906 170.39258 C 68.046818 171.35397 69.837548 172.23644 71.763672 173.01758 C 72.11444 173.15983 72.530934 173.25123 72.890625 173.38672 C 70.480143 172.47709 68.21908 171.45207 66.195312 170.26953 z "
     id="path4845" />
  <path
     style="fill:#ff0000;fill-opacity:1;stroke:none;stroke-width:1px;stroke-linecap:butt;stroke-linejoin:miter;stroke-opacity:1"
     d="M 60.628906 166.31445 C 61.01237 166.63322 61.336785 166.97935 61.738281 167.28906 C 63.028035 168.28399 64.444995 169.20966 65.929688 170.0918 C 63.986161 168.93566 62.242522 167.65573 60.628906 166.31445 z "
     id="path4544" />
</svg>
