<?xml version="1.0" encoding="UTF-8" standalone="no"?>
<svg
   xmlns:dc="http://purl.org/dc/elements/1.1/"
   xmlns:cc="http://creativecommons.org/ns#"
   xmlns:rdf="http://www.w3.org/1999/02/22-rdf-syntax-ns#"
   xmlns:svg="http://www.w3.org/2000/svg"
   xmlns="http://www.w3.org/2000/svg"
   viewBox="0 0 192 192"
   height="192"
   width="192"
   id="svg4728"
   version="1.1">
  <metadata
     id="metadata4734">
    <rdf:RDF>
      <cc:Work
         rdf:about="">
        <dc:format>image/svg+xml</dc:format>
        <dc:type
           rdf:resource="http://purl.org/dc/dcmitype/StillImage" />
        <dc:title></dc:title>
      </cc:Work>
    </rdf:RDF>
  </metadata>
  <defs
     id="defs4732" />
  <g
     style="display:inline;fill:#ff00ff;stroke:none"
     id="layer1" />
  <path
     id="rect4738"
     d="m 31.496089,12.234375 c -6.844788,0 -12.355469,5.510681 -12.355469,12.355469 V 153.5957 c 0,6.84479 5.510682,12.35547 12.355469,12.35547 h 13.859375 l 2.394531,2.66406 c 11.427123,11.45182 28.398169,18.16045 48.015625,17.99415 8.01303,-0.0277 17.67392,-1.78017 26.29688,-4.92383 8.62551,-3.14458 16.01018,-7.66224 22,-12.89453 l 3.04102,-2.83985 h 13.40039 c 6.84478,0 12.35544,-5.51068 12.35547,-12.35547 V 24.589844 c 0,-6.844788 -5.51069,-12.355469 -12.35547,-12.355469 z m 42.240234,16.599609 6.044922,8.451172 10.25,-1.701172 -1.703125,10.25 8.453125,6.044922 -8.453125,6.044922 1.703125,10.25 -10.25,-1.701172 -6.044922,8.451172 -6.044922,-8.451172 -10.251953,1.701172 1.703125,-10.25 -8.453125,-6.044922 8.453125,-6.044922 -1.703125,-10.25 10.251953,1.701172 z m 75.199227,64.28711 v 0.06055 c 6.6e-4,0 0.001,0 0.002,0 v 45.843746 c 0,0 -2.21404,15.80245 -17.45898,26.98633 -0.97229,0.71329 -1.97732,1.41362 -3.0586,2.08398 -1.63956,1.01647 -3.40802,1.97814 -5.31445,2.86524 -1.90644,0.8871 -3.95157,1.7011 -6.14453,2.42187 -2.19295,0.72077 -4.53409,1.34777 -7.03321,1.86524 -2.49912,0.51748 -5.15554,0.92395 -7.98046,1.20117 -2.824933,0.27722 -5.817931,0.42579 -8.988291,0.42578 -2.10741,0 -4.124638,-0.09 -6.054687,-0.26172 h -0.002 c -0.64354,-0.0573 -1.275992,-0.12412 -1.900391,-0.19922 -2.49757,-0.30044 -4.844195,-0.73997 -7.046875,-1.30078 -2.20268,-0.56082 -4.263333,-1.24231 -6.189453,-2.02344 -0.4821,-0.19551 -0.954432,-0.39772 -1.419922,-0.60546 -0.4648,-0.2076 -0.92067,-0.41947 -1.369141,-0.63868 -0.897359,-0.43814 -1.761753,-0.90016 -2.595703,-1.38086 -1.667911,-0.9614 -3.212585,-2.00191 -4.640625,-3.10351 -0.56831,-0.43839 -1.104368,-0.89344 -1.636718,-1.34961 -11.075729,-9.49079 -14.467908,-22.43368 -15.4375,-27.69922 -0.02347,-0.12453 -0.03185,-0.19033 -0.05273,-0.30664 -0.222825,-1.26875 -0.332031,-2.15039 -0.332031,-2.15039 v -0.0449 c -2.4e-5,-2.7e-4 -0.002,-0.0156 -0.002,-0.0156 v -30.39258 c 34.452689,0 44.669552,23.0599 47.568359,33.77539 l -0.002,-0.0605 c 0,0 6.50351,-45.996093 57.089847,-45.996093 z"
     style="opacity:1;fill:#ffffff;fill-opacity:1;stroke:none;stroke-width:7.92456007;stroke-linecap:square;stroke-linejoin:miter;stroke-miterlimit:4;stroke-dasharray:none;stroke-opacity:1;paint-order:fill markers stroke" />
  <g
     style="display:inline"
     id="layer2" />
  <path
     id="path6068"
     d="m 350.45508,65.853516 h -0.7461 l 0.37305,0.521484 z"
     style="opacity:0.428;fill:#00ffff;fill-opacity:1;stroke:none;stroke-opacity:1" />
</svg>
