<?xml version="1.0" encoding="UTF-8" standalone="no"?>
<svg
   xmlns:dc="http://purl.org/dc/elements/1.1/"
   xmlns:cc="http://creativecommons.org/ns#"
   xmlns:rdf="http://www.w3.org/1999/02/22-rdf-syntax-ns#"
   xmlns:svg="http://www.w3.org/2000/svg"
   xmlns="http://www.w3.org/2000/svg"
   version="1.1"
   id="svg4728"
   width="192"
   height="192"
   viewBox="0 0 192 192">
  <metadata
     id="metadata4734">
    <rdf:RDF>
      <cc:Work
         rdf:about="">
        <dc:format>image/svg+xml</dc:format>
        <dc:type
           rdf:resource="http://purl.org/dc/dcmitype/StillImage" />
        <dc:title></dc:title>
      </cc:Work>
    </rdf:RDF>
  </metadata>
  <defs
     id="defs4732" />
  <g
     id="layer1"
     style="display:inline;fill:#ff0000;stroke:none" />
  <path
     style="opacity:1;fill:#ffffff;fill-opacity:1;stroke:none;stroke-width:7.92456007;stroke-linecap:square;stroke-linejoin:miter;stroke-miterlimit:4;stroke-dasharray:none;stroke-opacity:1;paint-order:fill markers stroke"
     d="m 31.496089,12.234171 c -6.844788,0 -12.355469,5.510681 -12.355469,12.355469 v 129.00585 c 0,6.84479 5.510681,12.35547 12.355469,12.35547 h 18.921875 c 10.630943,10.65392 26.580836,17.0507 45.328125,16.88868 7.455701,-0.0248 16.841111,-1.71354 25.025391,-4.69727 8.18428,-2.98372 15.16736,-7.2619 20.81055,-12.19141 h 18.92188 c 6.84478,0 12.35545,-5.51068 12.35547,-12.35547 V 24.58964 c 0,-6.844788 -5.51069,-12.355469 -12.35547,-12.355469 z m 42.240234,16.59961 6.044922,8.451172 10.25,-1.701172 -1.703125,10.25 8.453125,6.044922 -8.453125,6.044921 1.703125,10.25 -10.25,-1.701171 -6.044922,8.451171 -6.044922,-8.451171 -10.251953,1.701171 1.703125,-10.25 -8.453125,-6.044921 8.453125,-6.044922 -1.703125,-10.25 10.251953,1.701172 z M 148.93555,93.12089 v 45.84375 c 0,0 -2.21405,15.80244 -17.45899,26.98632 -0.97229,0.71329 -1.97731,1.41363 -3.05859,2.08399 -1.63956,1.01647 -3.40802,1.97813 -5.31445,2.86523 -1.90644,0.8871 -3.95158,1.70111 -6.14454,2.42188 -2.19295,0.72077 -4.53408,1.34776 -7.0332,1.86523 -2.49912,0.51748 -5.15555,0.92395 -7.98047,1.20117 -2.824918,0.27722 -5.81793,0.42578 -8.988284,0.42578 -2.107412,0 -4.124645,-0.09 -6.054687,-0.26171 h -0.002 c -0.643541,-0.0573 -1.275998,-0.12411 -1.900391,-0.19922 -2.497574,-0.30044 -4.844196,-0.73997 -7.046875,-1.30078 -2.202679,-0.56082 -4.263329,-1.24231 -6.189453,-2.02344 -0.482095,-0.19551 -0.954435,-0.39773 -1.419922,-0.60547 -0.464803,-0.2076 -0.920671,-0.41946 -1.369141,-0.63867 -0.897362,-0.43814 -1.761747,-0.90016 -2.595703,-1.38086 -1.667911,-0.9614 -3.212584,-2.00192 -4.640625,-3.10352 -0.568308,-0.43839 -1.104368,-0.89344 -1.636719,-1.34961 -14.182064,-12.1526 -15.822218,-30.15625 -15.822218,-30.15625 v -30.39257 c 34.452689,0 44.669552,23.0599 47.568359,33.77539 l -0.002,-0.0606 c 0,0 6.503518,-45.99609 57.089849,-45.99609 z"
     id="rect4738" />
</svg>
