<svg xmlns="http://www.w3.org/2000/svg" viewBox="0 0 192 192" height="192" width="192">
    <path d="M21.127 31.63A13.315 13.315 0 0 0 7.783 44.972v102.054a13.315 13.315 0 0 0 13.344 13.344h149.746c7.392 0 13.344-5.95 13.344-13.343V44.973a13.315 13.315 0 0 0-13.344-13.344zM55.6 62.89A33.112 33.112 0 0 1 88.71 96a33.112 33.112 0 0 1-7.564 21.03h29.7A33.112 33.112 0 0 1 103.29 96a33.112 33.112 0 0 1 33.11-33.11A33.112 33.112 0 0 1 169.512 96a33.112 33.112 0 0 1-33.112 33.11H58.068v-.122a33.112 33.112 0 0 1-2.468.123A33.112 33.112 0 0 1 22.488 96 33.112 33.112 0 0 1 55.6 62.89zm0 12.083C44.59 74.973 34.572 84.99 34.572 96c0 11.01 10.017 21.03 21.028 21.03 11.01 0 21.027-10.02 21.027-21.03 0-11.01-10.017-21.027-21.027-21.027zm80.8 0c-11.01 0-21.027 10.017-21.027 21.027 0 11.01 10.017 21.03 21.027 21.03 11.01 0 21.028-10.02 21.028-21.03 0-11.01-10.017-21.027-21.028-21.027z" fill="#fff" paint-order="fill markers stroke"/>
</svg>
