<?xml version="1.0" encoding="UTF-8" standalone="no"?>
<svg
   xmlns:dc="http://purl.org/dc/elements/1.1/"
   xmlns:cc="http://creativecommons.org/ns#"
   xmlns:rdf="http://www.w3.org/1999/02/22-rdf-syntax-ns#"
   xmlns:svg="http://www.w3.org/2000/svg"
   xmlns="http://www.w3.org/2000/svg"
   viewBox="0 0 192 192"
   height="192"
   width="192"
   id="svg4545"
   version="1.1">
  <metadata
     id="metadata4551">
    <rdf:RDF>
      <cc:Work
         rdf:about="">
        <dc:format>image/svg+xml</dc:format>
        <dc:type
           rdf:resource="http://purl.org/dc/dcmitype/StillImage" />
        <dc:title></dc:title>
      </cc:Work>
    </rdf:RDF>
  </metadata>
  <defs
     id="defs4549" />
  <path
     id="rect4555"
     d="m 58.471685,12.064451 c -6.775999,0 -12.230469,5.456428 -12.230469,12.232421 V 60.5957 H 42.411138 36.004888 3.3681695 L 23.774419,95.941404 v 71.761726 c 0,6.77599 5.454475,12.23242 12.230469,12.23242 h 95.402332 c 6.776,0 12.23047,-5.45643 12.23047,-12.23242 V 131.4043 h 12.35742 c 6.77599,0 12.23047,-5.45643 12.23047,-12.23242 V 47.410153 l 20.40625,-35.345702 h -32.63672 -8.52734 z m 2.964844,13.958983 h 68.191401 24.63867 9.91211 l -9.91211,17.169922 v 73.015634 c -0.0489,0.68121 -0.55337,1.23671 -1.23633,1.23633 h -9.39258 V 72.828123 c 0,-6.775994 -5.45447,-12.232422 -12.23047,-12.232422 H 60.2002 v -33.33594 c -3.79e-4,-0.682956 0.553369,-1.236701 1.236329,-1.236327 z M 71.608404,36.55859 v 13.5 H 142.8584 v -13.5 z M 62.92481,96.941404 a 8.875,8.875 0 0 1 8.875,8.875006 8.875,8.875 0 0 1 -8.875,8.875 8.875,8.875 0 0 1 -8.875,-8.875 8.875,8.875 0 0 1 8.875,-8.875006 z m 41.56249,0 a 8.875,8.875 0 0 1 8.875,8.875006 8.875,8.875 0 0 1 -8.875,8.875 8.875,8.875 0 0 1 -8.87499,-8.875 8.875,8.875 0 0 1 8.87499,-8.875006 z M 53.182622,130.92969 H 114.22949 A 31.875,31.875 0 0 1 83.7002,153.69141 31.875,31.875 0 0 1 53.182622,130.92969 Z"
     style="opacity:1;fill:#ffffff;fill-opacity:1;stroke:none;stroke-width:1.04686892;stroke-opacity:1" />
</svg>
