<?xml version="1.0" encoding="UTF-8" standalone="no"?>
<svg
   xmlns:dc="http://purl.org/dc/elements/1.1/"
   xmlns:cc="http://creativecommons.org/ns#"
   xmlns:rdf="http://www.w3.org/1999/02/22-rdf-syntax-ns#"
   xmlns:svg="http://www.w3.org/2000/svg"
   xmlns="http://www.w3.org/2000/svg"
   version="1.1"
   id="svg4545"
   width="192"
   height="192"
   viewBox="0 0 192 192">
  <metadata
     id="metadata4551">
    <rdf:RDF>
      <cc:Work
         rdf:about="">
        <dc:format>image/svg+xml</dc:format>
        <dc:type
           rdf:resource="http://purl.org/dc/dcmitype/StillImage" />
        <dc:title></dc:title>
      </cc:Work>
    </rdf:RDF>
  </metadata>
  <defs
     id="defs4549" />
  <path
     id="rect4555"
     d="m 59.089649,13.444448 c -6.664593,0 -12.029384,5.366719 -12.029384,12.031307 V 61.17779 H 43.293156 36.992233 4.8920977 L 24.962847,95.94237 v 70.58187 c 0,6.66459 5.364796,12.03131 12.029386,12.03131 h 93.831887 c 6.6646,0 12.02939,-5.36672 12.02939,-12.03131 V 130.8222 h 12.15425 c 6.66459,0 12.02939,-5.36672 12.02939,-12.0313 V 48.209028 l 20.07075,-34.76458 h -32.10014 -8.38713 z m 2.916099,13.729483 h 67.070262 24.23165 9.74915 l -9.74915,16.887629 v 71.81515 c -0.0481,0.67002 -0.54426,1.21638 -1.21599,1.21601 h -9.23816 V 73.209097 c 0,-6.664587 -5.36479,-12.031307 -12.02939,-12.031307 H 60.789746 V 28.389932 c -3.72e-4,-0.671726 0.544271,-1.216368 1.216002,-1.216001 z m 12.678689,10.484892 c -1.415561,0 -2.551105,1.135543 -2.551105,2.551105 v 7.929944 c 0,1.41556 1.135544,2.551106 2.551105,2.551106 h 64.728533 c 1.41557,0 2.55304,-1.135651 2.55304,-2.551106 v -7.929944 c 0,-1.415454 -1.13747,-2.551105 -2.55304,-2.551105 z M 63.469561,96.925929 c 4.820942,0 8.729088,3.908141 8.729085,8.729081 0,4.82094 -3.908145,8.72908 -8.729085,8.72908 -4.820941,0 -8.729086,-3.90814 -8.729086,-8.72908 -3e-6,-4.82094 3.908143,-8.729081 8.729086,-8.729081 z m 40.877239,0 c 4.82094,0 8.72908,3.908141 8.72908,8.729081 0,4.82094 -3.90814,8.72908 -8.72908,8.72908 -4.820931,-1e-5 -8.727159,-3.90815 -8.727159,-8.72908 -3e-6,-4.82094 3.906225,-8.729074 8.727159,-8.729081 z M 53.887546,130.3554 h 60.041264 c -3.96173,13.27835 -16.16867,22.3809 -30.025429,22.3875 -13.852497,-0.0117 -26.055316,-9.11322 -30.015835,-22.3875 z"
     style="opacity:1;fill:#ffffff;fill-opacity:1;stroke:none;stroke-width:1.02965724;stroke-opacity:1" />
  <g
     style="display:inline"
     id="layer1" />
</svg>
