<?xml version="1.0" encoding="UTF-8" standalone="no"?>
<svg
   xmlns:dc="http://purl.org/dc/elements/1.1/"
   xmlns:cc="http://creativecommons.org/ns#"
   xmlns:rdf="http://www.w3.org/1999/02/22-rdf-syntax-ns#"
   xmlns:svg="http://www.w3.org/2000/svg"
   xmlns="http://www.w3.org/2000/svg"
   width="192"
   height="192"
   viewBox="0 0 50.799999 50.799999"
   version="1.1"
   id="svg8">
  <defs
     id="defs2" />
  <metadata
     id="metadata5">
    <rdf:RDF>
      <cc:Work
         rdf:about="">
        <dc:format>image/svg+xml</dc:format>
        <dc:type
           rdf:resource="http://purl.org/dc/dcmitype/StillImage" />
        <dc:title></dc:title>
      </cc:Work>
    </rdf:RDF>
  </metadata>
  <path
     id="path5511"
     transform="scale(0.26458333)"
     d="M 20.785156 29.878906 C 16.105271 29.878906 12.337891 33.648242 12.337891 38.328125 L 12.337891 135.47266 C 12.337891 140.15254 16.105271 143.92187 20.785156 143.92188 L 32.449219 143.92188 C 32.497861 144.16509 32.53125 144.41092 32.53125 144.66406 L 32.53125 176.0918 L 67.386719 143.92188 L 171.21484 143.92188 C 175.89474 143.92188 179.66211 140.15254 179.66211 135.47266 L 179.66211 38.328125 C 179.66211 33.648242 175.89474 29.878906 171.21484 29.878906 L 20.785156 29.878906 z M 55.517578 72.613281 A 14.287665 14.287665 0 0 1 69.806641 86.900391 A 14.287665 14.287665 0 0 1 55.517578 101.1875 A 14.287665 14.287665 0 0 1 41.230469 86.900391 A 14.287665 14.287665 0 0 1 55.517578 72.613281 z M 96 72.613281 A 14.287665 14.287665 0 0 1 110.28711 86.900391 A 14.287665 14.287665 0 0 1 96 101.1875 A 14.287665 14.287665 0 0 1 81.712891 86.900391 A 14.287665 14.287665 0 0 1 96 72.613281 z M 136.48242 72.613281 A 14.287665 14.287665 0 0 1 150.76953 86.900391 A 14.287665 14.287665 0 0 1 136.48242 101.1875 A 14.287665 14.287665 0 0 1 122.19336 86.900391 A 14.287665 14.287665 0 0 1 136.48242 72.613281 z "
     style="opacity:1;fill:#ffffff;fill-opacity:1;stroke:none;stroke-width:1.02330077;stroke-opacity:1" />
</svg>
