<?xml version="1.0" encoding="UTF-8" standalone="no"?>
<svg
   xmlns:dc="http://purl.org/dc/elements/1.1/"
   xmlns:cc="http://creativecommons.org/ns#"
   xmlns:rdf="http://www.w3.org/1999/02/22-rdf-syntax-ns#"
   xmlns:svg="http://www.w3.org/2000/svg"
   xmlns="http://www.w3.org/2000/svg"
   version="1.1"
   id="svg7188"
   width="192"
   height="192"
   viewBox="0 0 192 192">
  <metadata
     id="metadata7194">
    <rdf:RDF>
      <cc:Work
         rdf:about="">
        <dc:format>image/svg+xml</dc:format>
        <dc:type
           rdf:resource="http://purl.org/dc/dcmitype/StillImage" />
        <dc:title></dc:title>
      </cc:Work>
    </rdf:RDF>
  </metadata>
  <defs
     id="defs7192" />
  <path
     style="opacity:1;fill:#ffffff;fill-opacity:1;stroke:none;stroke-width:2.48301363;stroke-opacity:1"
     d="M 95.999977,15.693321 A 64.699039,64.699039 0 0 0 56.390914,29.279058 l -7.08121,-7.081212 -0.08312,-0.08299 -0.0053,0.0053 a 8.1382439,8.1382439 0 0 0 -5.746015,-2.389824 8.1382439,8.1382439 0 0 0 -8.141055,8.141036 8.1382439,8.1382439 0 0 0 2.389845,5.746026 l -0.0053,0.0053 7.195507,7.195514 a 64.699039,64.699039 0 0 0 -13.611473,39.57776 v 95.910671 h 45.422573 l 7.673478,-31.21345 0.65461,-2.67038 A 23.337095,23.337095 0 0 1 72.527553,121.7559 23.337095,23.337095 0 0 1 95.864899,98.418549 23.337095,23.337095 0 0 1 119.20224,121.7559 a 23.337095,23.337095 0 0 1 -12.5259,20.66695 l 0.65461,2.67038 7.67348,31.21345 h 45.69278 V 80.396009 a 64.699039,64.699039 0 0 0 -13.58055,-39.60907 l 7.08121,-7.081214 0.0831,-0.08299 -0.005,-0.0053 a 8.1382439,8.1382439 0 0 0 2.38997,-5.745893 8.1382439,8.1382439 0 0 0 -8.14106,-8.141036 8.1382439,8.1382439 0 0 0 -5.74601,2.38985 l -0.005,-0.0053 -7.19551,7.195487 A 64.699039,64.699039 0 0 0 95.999977,15.693321 Z"
     id="path7741" />
</svg>
