<?xml version="1.0" encoding="UTF-8" standalone="no"?>
<svg
   xmlns:dc="http://purl.org/dc/elements/1.1/"
   xmlns:cc="http://creativecommons.org/ns#"
   xmlns:rdf="http://www.w3.org/1999/02/22-rdf-syntax-ns#"
   xmlns:svg="http://www.w3.org/2000/svg"
   xmlns="http://www.w3.org/2000/svg"
   viewBox="0 0 192 192"
   height="192"
   width="192"
   id="svg317"
   version="1.1">
  <metadata
     id="metadata323">
    <rdf:RDF>
      <cc:Work
         rdf:about="">
        <dc:format>image/svg+xml</dc:format>
        <dc:type
           rdf:resource="http://purl.org/dc/dcmitype/StillImage" />
        <dc:title></dc:title>
      </cc:Work>
    </rdf:RDF>
  </metadata>
  <defs
     id="defs321" />
  <g
     style="display:inline"
     id="layer4">
    <path
       id="path327"
       d="M 96,8.15625 A 87.722008,87.84317 0 0 0 8.2773438,96 87.722008,87.84317 0 0 0 96,183.84375 87.722008,87.84317 0 0 0 183.72266,96 87.722008,87.84317 0 0 0 96,8.15625 Z M 55.96875,46.130859 h 80.0625 c 5.45016,0 9.83789,4.387729 9.83789,9.837891 0,5.450162 -4.38773,9.837891 -9.83789,9.837891 H 65.806641 v 60.386719 h 70.224609 c 5.45016,0 9.83789,4.38773 9.83789,9.83789 0,5.45016 -4.38773,9.83789 -9.83789,9.83789 h -80.0625 c -5.450162,0 -9.837891,-4.38773 -9.837891,-9.83789 v -80.0625 c 0,-5.450162 4.387729,-9.837891 9.837891,-9.837891 z"
       mask="none"
       style="opacity:1;fill:#ffffff;fill-opacity:1;stroke:none;stroke-width:0.980663;stroke-opacity:1" />
  </g>
</svg>
