<svg xmlns="http://www.w3.org/2000/svg" viewBox="0 0 192 192" height="192" width="192">
    <path d="M56.327 79.382l-9.138 9.14-9.144 9.137a148.534 148.534 0 0 0 57.03 56.593l18.226-18.226c-12.4-5.98-23.826-13.966-33.563-23.703-9.576-9.576-17.467-20.782-23.414-32.945z" fill="#fff" paint-order="fill markers stroke"/>
    <path d="M24.445 18.64h35.583s8.85-.94 9.637 7.414c.995 10.58 4.652 26.396 4.652 26.396s2.608 7.787-2.428 12.646c-5.366 5.175-33.15 33.772-33.15 33.772s-22.67-38.658-19.98-74.4c0 0 .164-5.032 5.682-5.827zm148.982 148.847v-35.583s.94-8.85-7.413-9.637c-10.58-.996-26.396-4.653-26.396-4.653s-7.787-2.608-12.646 2.43c-5.175 5.362-33.77 33.15-33.77 33.15s38.655 22.665 74.398 19.975c0 0 5.032-.167 5.827-5.685z" fill="#fff"/>
</svg>
