<svg xmlns="http://www.w3.org/2000/svg" viewBox="0 0 192 192" height="192" width="192">
    <path d="M155.42 103.8c.32-2.56.56-5.16.56-7.8 0-2.64-.24-5.24-.56-7.8l16.92-13.24c1.52-1.2 1.96-3.36.96-5.12l-16-27.72c-1-1.72-3.08-2.44-4.88-1.72l-19.92 8.04c-4.12-3.16-8.64-5.84-13.52-7.88l-3-21.2c-.36-1.88-2-3.36-4-3.36h-32c-2 0-3.64 1.48-3.96 3.36l-3 21.2a59.2 59.2 0 0 0-13.52 7.88L39.58 40.4c-1.8-.68-3.88 0-4.88 1.72l-16 27.72c-1 1.72-.56 3.88.96 5.12L36.54 88.2c-.32 2.56-.56 5.16-.56 7.8 0 2.64.24 5.24.56 7.8l-16.88 13.24c-1.52 1.2-1.96 3.36-.96 5.12l16 27.72c1 1.72 3.08 2.44 4.88 1.72l19.92-8.04c4.12 3.16 8.64 5.84 13.52 7.88l3 21.2c.32 1.88 1.96 3.36 3.96 3.36h32c2 0 3.64-1.48 3.96-3.36l3-21.2a59.2 59.2 0 0 0 13.52-7.88l19.92 8.04c1.8.68 3.88 0 4.88-1.72l16-27.72c1-1.72.56-3.88-.96-5.12zM95.98 124c-15.48 0-28-12.52-28-28s12.52-28 28-28 28 12.52 28 28-12.52 28-28 28z" fill="#fff"/>
</svg>
