<?xml version="1.0" encoding="UTF-8" standalone="no"?>
<svg
   xmlns:dc="http://purl.org/dc/elements/1.1/"
   xmlns:cc="http://creativecommons.org/ns#"
   xmlns:rdf="http://www.w3.org/1999/02/22-rdf-syntax-ns#"
   xmlns:svg="http://www.w3.org/2000/svg"
   xmlns="http://www.w3.org/2000/svg"
   id="svg7138"
   version="1.1"
   viewBox="0 0 192 192"
   height="192"
   width="192">
  <metadata
     id="metadata7144">
    <rdf:RDF>
      <cc:Work
         rdf:about="">
        <dc:format>image/svg+xml</dc:format>
        <dc:type
           rdf:resource="http://purl.org/dc/dcmitype/StillImage" />
        <dc:title></dc:title>
      </cc:Work>
    </rdf:RDF>
  </metadata>
  <defs
     id="defs7142" />
  <path
     style="fill:#ffffff;stroke-width:4"
     id="path7136"
     d="m 155.42,103.8 c 0.32,-2.56 0.56,-5.159997 0.56,-7.8 0,-2.640001 -0.24,-5.24 -0.56,-7.8 l 16.92,-13.24 c 1.52,-1.2 1.96,-3.36 0.96,-5.12 l -16,-27.72 c -1,-1.72 -3.08,-2.44 -4.88,-1.72 l -19.92,8.04 c -4.12,-3.16 -8.64,-5.84 -13.52,-7.88 l -3,-21.2 c -0.36,-1.88 -2,-3.36 -4,-3.36 h -32 c -2,0 -3.64,1.48 -3.96,3.36 l -3,21.2 c -4.88,2.04 -9.4,4.68 -13.52,7.88 L 39.58,40.4 c -1.8,-0.68 -3.88,0 -4.88,1.72 l -16,27.72 c -1,1.72 -0.56,3.879999 0.96,5.12 L 36.54,88.2 c -0.32,2.56 -0.56,5.159999 -0.56,7.8 0,2.640004 0.24,5.24 0.56,7.8 l -16.88,13.24 c -1.52,1.2 -1.96,3.36 -0.96,5.12 l 16,27.72 c 1,1.72 3.08,2.44 4.88,1.72 l 19.92,-8.04 c 4.12,3.16 8.64,5.84 13.52,7.88 l 3,21.2 c 0.32,1.88 1.96,3.36 3.96,3.36 h 32 c 2,0 3.64,-1.48 3.96,-3.36 l 3,-21.2 c 4.88,-2.04 9.4,-4.68 13.52,-7.88 l 19.92,8.04 c 1.8,0.68 3.88,0 4.88,-1.72 l 16,-27.72 c 1,-1.72 0.56,-3.88 -0.96,-5.12 z M 95.98,124 c -15.48,0 -28,-12.52 -28,-28 0,-15.480001 12.52,-28 28,-28 15.48,0 28,12.519999 28,28 0,15.48 -12.52,28 -28,28 z" />
</svg>
