<?xml version="1.0" encoding="UTF-8" standalone="no"?>
<svg
   xmlns:dc="http://purl.org/dc/elements/1.1/"
   xmlns:cc="http://creativecommons.org/ns#"
   xmlns:rdf="http://www.w3.org/1999/02/22-rdf-syntax-ns#"
   xmlns:svg="http://www.w3.org/2000/svg"
   xmlns="http://www.w3.org/2000/svg"
   viewBox="0 0 192 192"
   height="192"
   width="192"
   id="svg157"
   version="1.1">
  <metadata
     id="metadata163">
    <rdf:RDF>
      <cc:Work
         rdf:about="">
        <dc:format>image/svg+xml</dc:format>
        <dc:type
           rdf:resource="http://purl.org/dc/dcmitype/StillImage" />
        <dc:title></dc:title>
      </cc:Work>
    </rdf:RDF>
  </metadata>
  <defs
     id="defs161" />
  <path
     id="rect6134"
     d="M 38.175781 16.525391 C 33.113706 16.525391 29.039062 20.601987 29.039062 25.664062 L 29.039062 166.33594 C 29.039062 171.39801 33.113706 175.47461 38.175781 175.47461 L 41.404297 175.47461 L 41.404297 16.525391 L 38.175781 16.525391 z M 58.005859 16.525391 L 58.005859 175.47461 L 153.82422 175.47461 C 158.88629 175.47461 162.96094 171.39801 162.96094 166.33594 L 162.96094 25.664062 C 162.96094 20.601987 158.88629 16.525391 153.82422 16.525391 L 58.005859 16.525391 z M 110.48438 57.552734 C 130.61532 57.552964 148.93141 75.869058 148.93164 96 C 148.93219 116.13144 130.6158 134.44704 110.48438 134.44727 C 90.352428 134.44783 72.034603 116.13194 72.035156 96 C 72.035385 75.868559 90.352925 57.55218 110.48438 57.552734 z "
     style="opacity:1;fill:#ffffff;fill-opacity:1;stroke:none;stroke-width:4.77874613;stroke-linecap:square;stroke-linejoin:miter;stroke-miterlimit:4;stroke-dasharray:none;stroke-opacity:1;paint-order:fill markers stroke" />
</svg>
