<?xml version="1.0" encoding="UTF-8" standalone="no"?>
<svg
   xmlns:dc="http://purl.org/dc/elements/1.1/"
   xmlns:cc="http://creativecommons.org/ns#"
   xmlns:rdf="http://www.w3.org/1999/02/22-rdf-syntax-ns#"
   xmlns:svg="http://www.w3.org/2000/svg"
   xmlns="http://www.w3.org/2000/svg"
   version="1.1"
   id="svg157"
   width="192"
   height="192"
   viewBox="0 0 192 192">
  <metadata
     id="metadata163">
    <rdf:RDF>
      <cc:Work
         rdf:about="">
        <dc:format>image/svg+xml</dc:format>
        <dc:type
           rdf:resource="http://purl.org/dc/dcmitype/StillImage" />
        <dc:title></dc:title>
      </cc:Work>
    </rdf:RDF>
  </metadata>
  <defs
     id="defs161" />
  <path
     id="path6190"
     d="m 38.476561,16.52539 c -5.062075,0 -9.136719,4.076597 -9.136719,9.138672 V 166.33594 c 0,5.06207 4.074644,9.13867 9.136719,9.13867 h 3.228515 V 16.52539 Z m 19.228515,0 v 158.94922 h 95.818364 c 5.06207,0 9.13672,-4.0766 9.13672,-9.13867 V 25.664062 c 0,-5.062075 -4.07465,-9.138672 -9.13672,-9.138672 z M 110.1836,57.445312 c 20.20359,2.31e-4 38.55444,18.351062 38.55468,38.554688 5.5e-4,20.20412 -18.35061,38.55446 -38.55468,38.55469 C 89.978936,134.55525 71.626395,116.20463 71.626951,96 71.627181,75.795869 89.979426,57.444755 110.1836,57.445312 Z"
     style="opacity:1;fill:#ffffff;fill-opacity:1;stroke:none;stroke-width:4.77874613;stroke-linecap:square;stroke-linejoin:miter;stroke-miterlimit:4;stroke-dasharray:none;stroke-opacity:1;paint-order:fill markers stroke" />
</svg>
