<?xml version="1.0" encoding="UTF-8" standalone="no"?>
<svg
   xmlns:dc="http://purl.org/dc/elements/1.1/"
   xmlns:cc="http://creativecommons.org/ns#"
   xmlns:rdf="http://www.w3.org/1999/02/22-rdf-syntax-ns#"
   xmlns:svg="http://www.w3.org/2000/svg"
   xmlns="http://www.w3.org/2000/svg"
   version="1.1"
   id="svg157"
   width="192"
   height="192"
   viewBox="0 0 192 192">
  <metadata
     id="metadata163">
    <rdf:RDF>
      <cc:Work
         rdf:about="">
        <dc:format>image/svg+xml</dc:format>
        <dc:type
           rdf:resource="http://purl.org/dc/dcmitype/StillImage" />
        <dc:title></dc:title>
      </cc:Work>
    </rdf:RDF>
  </metadata>
  <defs
     id="defs161" />
  <g
     id="layer1"
     style="display:inline;fill:#ffffff">
    <path
       style="opacity:1;fill:#ffffff;fill-opacity:1;stroke:none;stroke-width:1.02653193;stroke-opacity:1"
       d="M 48.983742,16.524969 V 175.47402 H 152.52955 c 5.98212,0 10.79656,-4.81648 10.79656,-10.7986 V 27.321531 c 0,-5.982116 -4.81444,-10.796561 -10.79656,-10.796561 z M 105.19578,53.354801 A 42.903513,43.085311 0 0 1 148.09957,96.441479 42.903513,43.085311 0 0 1 105.19578,139.52611 42.903513,43.085311 0 0 1 62.291983,96.441479 42.903513,43.085311 0 0 1 105.19578,53.354801 Z m 0,9.739869 c -8.67144,-5.6e-5 -17.293227,3.58285 -23.436251,9.752063 -6.143025,6.169212 -9.727952,14.854151 -9.727677,23.594746 1.36e-4,8.740331 3.586725,17.423821 9.729709,23.592711 6.142984,6.16887 14.76304,9.75211 23.434219,9.75206 8.67117,5e-5 17.29122,-3.58319 23.43421,-9.75206 6.14299,-6.16889 9.72957,-14.85238 9.72971,-23.592713 2.8e-4,-8.740595 -3.58465,-17.425535 -9.72768,-23.594746 -6.14302,-6.169212 -14.76481,-9.752117 -23.43624,-9.752061 z"
       id="rect4642" />
    <path
       style="opacity:1;fill:#ffffff;fill-opacity:1;stroke:none;stroke-width:1.04043663;stroke-opacity:1"
       d="m 39.472484,16.525984 c -5.982129,0 -10.798594,4.816465 -10.798594,10.798595 V 164.67643 c 0,5.98213 4.816464,10.7986 10.798594,10.7986 h 1.463114 V 16.525984 Z"
       id="rect4644" />
  </g>
</svg>
