<?xml version="1.0" encoding="UTF-8" standalone="no"?>
<svg
   xmlns:dc="http://purl.org/dc/elements/1.1/"
   xmlns:cc="http://creativecommons.org/ns#"
   xmlns:rdf="http://www.w3.org/1999/02/22-rdf-syntax-ns#"
   xmlns:svg="http://www.w3.org/2000/svg"
   xmlns="http://www.w3.org/2000/svg"
   version="1.1"
   id="svg5057"
   width="192"
   height="192"
   viewBox="0 0 192 192">
  <metadata
     id="metadata5063">
    <rdf:RDF>
      <cc:Work
         rdf:about="">
        <dc:format>image/svg+xml</dc:format>
        <dc:type
           rdf:resource="http://purl.org/dc/dcmitype/StillImage" />
        <dc:title></dc:title>
      </cc:Work>
    </rdf:RDF>
  </metadata>
  <defs
     id="defs5061" />
  <path
     style="opacity:1;fill:#ffffff;fill-opacity:1;stroke:none;stroke-width:1.08221507;stroke-opacity:1"
     id="path5069"
     d="M 96.012428,20.605284 C 80.875092,20.612364 65.815676,26.701029 54.799799,37.293365 43.788227,47.881564 36.948,62.864556 36.118622,78.273817 V 136.55261 H 50.439476 V 78.183481 a 2.2229857,2.152315 0 0 1 0.0063,-0.17465 C 52.429165,54.325552 73.398734,34.432309 96.014544,34.432724 118.62984,34.433102 139.59594,54.326211 141.5792,78.008831 a 2.2229857,2.152315 0 0 1 -0.0187,0.477778 v 58.066001 h 14.32087 V 78.482594 a 2.2229857,2.152315 0 0 1 -0.0228,-0.188702 C 155.03453,62.886336 148.20162,47.903071 137.19603,37.311432 126.19095,26.720278 111.14318,20.625658 96.014502,20.605284 Z" />
  <rect
     style="opacity:1;fill:#ffffff;fill-opacity:1;stroke:none;stroke-width:0.87326831;stroke-opacity:1"
     id="rect5655"
     width="40.559273"
     height="53.87859"
     x="27.181126"
     y="105.9412"
     ry="6.1076937" />
  <rect
     style="opacity:1;fill:#ffffff;fill-opacity:1;stroke:none;stroke-width:0.96163815;stroke-opacity:1"
     id="rect5676"
     width="17.54184"
     height="76.835388"
     x="60.32925"
     y="94.366272"
     ry="3.2786191" />
  <rect
     transform="scale(-1,1)"
     style="opacity:1;fill:#ffffff;fill-opacity:1;stroke:none;stroke-width:0.87326831;stroke-opacity:1"
     id="rect5655-3"
     width="40.559273"
     height="53.87859"
     x="-164.81888"
     y="105.84468"
     ry="6.1076937" />
  <rect
     style="opacity:1;fill:#ffffff;fill-opacity:1;stroke:none;stroke-width:0.96163815;stroke-opacity:1"
     id="rect5676-3"
     width="17.54184"
     height="76.835388"
     x="114.1289"
     y="94.559326"
     ry="3.2786191" />
</svg>
