<svg id="Layer_1" data-name="Layer 1" xmlns="http://www.w3.org/2000/svg" viewBox="0 0 48 48"><defs><style>.cls-1{fill:#fff;}</style></defs><title>1list</title><path class="cls-1" d="M24,2A22,22,0,1,0,46,24,22,22,0,0,0,24,2ZM17.37,16.34h4.26a2,2,0,0,1,0,4.07H17.37a2,2,0,0,1,0-4.07Zm0,5.63H29.64a2,2,0,0,1,0,4.06H17.37a2,2,0,0,1,0-4.06ZM12.6,31.66a2,2,0,1,1,2-2A2,2,0,0,1,12.6,31.66Zm0-5.63a2,2,0,1,1,2-2A2,2,0,0,1,12.6,26Zm0-5.62a2,2,0,1,1,2-2A2,2,0,0,1,12.6,20.41ZM38.09,31.66H17.37a2,2,0,0,1,0-4.07H38.09a2,2,0,0,1,0,4.07Z"/></svg>