<svg id="Layer_1" data-name="Layer 1" xmlns="http://www.w3.org/2000/svg" viewBox="0 0 48 48">
  <defs>
    <style>
      .cls-1 {
        fill: #fff;
      }
    </style>
  </defs>
  <title>5th Edition Spellbook</title>
  <g>
    <polygon class="cls-1" points="13.97 20.86 13.97 29.26 16.83 28.05 13.97 20.86"/>
    <polygon class="cls-1" points="23.43 12.75 15.8 17.16 23.43 16.67 23.43 12.75"/>
    <polygon class="cls-1" points="22.97 17.84 14.22 18.4 17.66 27.05 22.97 17.84"/>
    <polygon class="cls-1" points="29.45 27.78 24 18.34 18.55 27.78 29.45 27.78"/>
    <polygon class="cls-1" points="30.34 27.05 33.78 18.4 25.03 17.84 30.34 27.05"/>
    <polygon class="cls-1" points="24.57 12.75 24.57 16.67 32.2 17.16 24.57 12.75"/>
    <polygon class="cls-1" points="34.03 29.26 34.03 20.86 31.17 28.05 34.03 29.26"/>
    <polygon class="cls-1" points="18.76 28.92 24 35.34 29.24 28.92 18.76 28.92"/>
    <polygon class="cls-1" points="26.41 34.19 33.33 30.2 30.61 29.05 26.41 34.19"/>
    <polygon class="cls-1" points="14.68 30.2 21.59 34.19 17.39 29.05 14.68 30.2"/>
    <path class="cls-1" d="M36.42,5H11.58a2,2,0,0,0-2,2V41a2,2,0,0,0,2,2H36.42a2,2,0,0,0,2-2V7A2,2,0,0,0,36.42,5ZM34.9,30.62,24.29,36.75a.58.58,0,0,1-.57,0L13.1,30.62a.55.55,0,0,1-.28-.49V17.87a.56.56,0,0,1,.29-.49l10.61-6.13a.58.58,0,0,1,.57,0L34.9,17.38a.55.55,0,0,1,.28.49V30.13A.56.56,0,0,1,34.9,30.62Z"/>
  </g>
</svg>
