<svg xmlns="http://www.w3.org/2000/svg" viewBox="0 0 48 48"><defs><style>.cls-1{fill:#fff;}</style></defs><g id="Layer_1" data-name="Layer 1"><polygon class="cls-1" points="25.45 18.67 18.18 19.14 21.04 26.31 25.45 18.67"/><polygon class="cls-1" points="26.01 14.21 20.12 17.61 26.01 17.23 26.01 14.21"/><polygon class="cls-1" points="17.88 22.16 17.88 28.44 20.02 27.54 17.88 22.16"/><polygon class="cls-1" points="27.41 14.21 27.41 17.23 33.29 17.61 27.41 14.21"/><polygon class="cls-1" points="28.57 19.71 32.38 26.31 35.23 19.14 27.97 18.67 28.57 19.71"/><polygon class="cls-1" points="31.28 27.21 26.71 19.29 22.13 27.21 31.28 27.21"/><path class="cls-1" d="M38,4H13.41V44H38a2,2,0,0,0,2-2V6A2,2,0,0,0,38,4ZM36.93,29.5a.55.55,0,0,1-.06.22.53.53,0,0,1,0,.12.75.75,0,0,1-.26.27l-9.52,5.5h0a.62.62,0,0,1-.32.09.59.59,0,0,1-.32-.09h0l-9.53-5.5a.75.75,0,0,1-.26-.27.53.53,0,0,1,0-.12.55.55,0,0,1-.06-.22v-11s0,0,0,0a.6.6,0,0,1,.06-.23.29.29,0,0,1,0-.1h0a.59.59,0,0,1,.24-.23h0l9.53-5.5h0a.69.69,0,0,1,.32-.08.65.65,0,0,1,.31.08h0l9.52,5.5h0a.59.59,0,0,1,.24.23h0a.29.29,0,0,1,0,.1.6.6,0,0,1,.06.23s0,0,0,0Z"/><polygon class="cls-1" points="35.53 28.44 35.53 22.16 33.4 27.54 35.53 28.44"/><polygon class="cls-1" points="29.66 32.48 34.66 29.59 32.7 28.76 29.66 32.48"/><polygon class="cls-1" points="22.39 28.61 26.71 33.89 31.02 28.61 22.39 28.61"/><polygon class="cls-1" points="18.75 29.59 23.75 32.48 20.71 28.76 18.75 29.59"/><path class="cls-1" d="M8,6V42a2,2,0,0,0,2,2h1.41V4H10A2,2,0,0,0,8,6Z"/></g></svg>