<svg id="Layer_1" data-name="Layer 1" xmlns="http://www.w3.org/2000/svg" viewBox="0 0 48 48"><defs><style>.cls-1{fill:#fff;}</style></defs><title>5th Edition Spellbook</title><polygon class="cls-1" points="13.97 20.86 13.97 29.26 16.83 28.05 13.97 20.86"/><polygon class="cls-1" points="23.43 12.75 15.8 17.16 23.43 16.67 23.43 12.75"/><polygon class="cls-1" points="22.97 17.84 14.22 18.4 17.66 27.05 22.97 17.84"/><polygon class="cls-1" points="29.45 27.78 24 18.34 18.55 27.78 29.45 27.78"/><polygon class="cls-1" points="30.34 27.05 33.78 18.4 25.03 17.84 30.34 27.05"/><polygon class="cls-1" points="24.57 12.75 24.57 16.67 32.2 17.16 24.57 12.75"/><path class="cls-1" d="M36.42,5H11.58a2,2,0,0,0-2,2V41a2,2,0,0,0,2,2H36.42a2,2,0,0,0,2-2V7A2,2,0,0,0,36.42,5ZM35.17,30.12h0a.51.51,0,0,1,0,.13v0l0,.12h0a1,1,0,0,1-.08.11h0a.5.5,0,0,1-.12.08L24.29,36.73h0l-.08,0h-.05l-.13,0h0l-.13,0h-.05l-.08,0h0L13.12,30.61a.5.5,0,0,1-.12-.08h0a1,1,0,0,1-.08-.11h0l-.05-.12v0a.51.51,0,0,1,0-.13h0V17.86s0-.06,0-.09,0,0,0-.05a.32.32,0,0,1,0-.09s0,0,0,0h0a.18.18,0,0,1,.05-.07l0,0,.11-.08h0l10.59-6.12h0l.09,0h0l.13,0h0l.13,0h0l.09,0h0l10.59,6.12h0l.11.08,0,0a.18.18,0,0,1,0,.07h0s0,0,0,0a.32.32,0,0,1,0,.09s0,0,0,.05,0,.06,0,.09V30.12Z"/><polygon class="cls-1" points="34.03 29.26 34.03 20.86 31.17 28.05 34.03 29.26"/><polygon class="cls-1" points="18.76 28.92 24 35.34 29.24 28.92 18.76 28.92"/><polygon class="cls-1" points="26.41 34.19 33.33 30.2 30.61 29.05 26.41 34.19"/><polygon class="cls-1" points="14.68 30.2 21.59 34.19 17.39 29.05 14.68 30.2"/></svg>