<?xml version="1.0" encoding="UTF-8"?>
<svg width="48" height="48" viewBox="0 0 48 48">
    <path d="m 21.529747,2.0174456 c 1.730018,0.041123 3.743645,0.7898523 5.119151,2.6404039 0.822467,1.1060768 1.020994,2.3539583 1.134438,3.4883961 0.127624,1.1486182 0.113443,2.2405144 0.127624,2.8786354 0.02836,1.50313 -0.184346,2.08453 -0.411234,3.105524 -0.255248,1.21952 -0.638121,2.509943 -1.20534,4.154878 -0.198527,0.581399 -0.439595,1.262062 -0.680663,1.942725 0.212707,0.283609 0.397054,0.567218 0.623941,0.850828 1.687476,2.09871 3.530938,4.126517 5.317677,5.927437 2.751012,-0.538858 4.948985,-0.89337 6.849168,-0.652302 1.318784,0.184347 2.283056,0.311971 3.176426,0.553039 0.893369,0.241068 1.701656,0.652302 2.41068,1.233701 1.375506,1.120257 2.155432,2.765192 1.985266,4.310863 -0.05672,0.59558 -0.198527,1.318784 -0.638121,1.942725 -0.439595,0.623941 -0.964272,1.006814 -1.659115,1.50313 l -0.538858,0.255249 c -1.531491,0.425414 -2.665929,0.382872 -4.225781,0.241068 l -0.382873,-0.08508 C 37.24171,35.869068 36.561048,35.457834 34.987015,34.649548 l -0.283609,-0.184347 c -1.276243,-1.035174 -2.722651,-2.339777 -4.19742,-3.757825 -1.701656,0.326151 -3.289869,0.694843 -5.615467,1.20534 -2.339778,0.510497 -4.055615,0.808287 -5.587106,1.120258 -0.666482,1.276242 -1.389686,2.197973 -2.283056,3.559298 -0.638121,0.978453 -1.531491,2.112891 -2.339777,3.119704 -0.794107,1.006814 -1.559852,2.027808 -1.630755,2.141251 h -0.01418 c -0.311971,0.354512 -0.964272,1.120258 -1.673296,1.886003 -0.382873,0.397053 -0.765745,0.794106 -1.162799,1.148618 -0.4112336,0.340332 -0.7373844,0.666482 -1.446408,0.90755 l -0.099263,0.02836 C 6.1439352,46.476061 3.9885034,45.043833 2.8398852,43.498162 v -0.01418 C 2.4584305,42.945124 2.1308616,42.264461 2.0358524,41.527076 c -0.093591,-0.723204 0.00709,-1.418047 0.1744198,-2.169612 0.4707917,-2.11289 2.101546,-3.403313 3.8287275,-4.679556 1.6307542,-1.21952 1.9285441,-1.474769 4.7079173,-2.779372 1.687476,-0.779926 3.502576,-1.418047 6.154324,-2.056168 0.02836,-0.0709 0.04254,-0.09926 0.08508,-0.170166 1.176979,-2.09871 2.949538,-4.963165 3.88545,-6.934251 0.32615,-0.694843 0.581399,-1.332964 0.836647,-1.985266 C 18.95741,16.966499 16.759437,13.024328 16.24894,9.2806833 L 16.23476,9.2523223 C 16.064594,7.6924705 16.107135,6.6005741 16.433286,5.664663 c 0.326151,-0.9359112 0.89337,-1.5031301 1.20534,-1.9001833 0.921731,-1.1060768 2.41068,-1.7810672 3.842908,-1.744198 v -0.00567 z m -0.694843,3.3494275 c -0.02836,0 -0.05672,0 -0.08508,0.028361 -0.09926,0.042541 -0.170166,0.1843461 -0.453776,0.5246775 -0.439594,0.5246774 -0.538858,0.6239407 -0.62394,0.8508283 -0.0709,0.2127071 -0.155986,0.7799259 -0.01418,2.0561684 0.29779,2.2263337 1.673296,5.0766087 3.545118,7.9977857 0.453775,-1.361325 0.794107,-2.481582 0.992633,-3.403313 0.255249,-1.21952 0.354512,-1.106077 0.326151,-2.339778 -0.01418,-0.723204 0,-1.6874758 -0.09926,-2.5666651 C 24.3233,7.6215681 24.068052,6.8558226 23.926247,6.6714765 23.359028,5.905731 22.068605,5.4094145 21.444665,5.395234 c -0.340332,0 -0.510497,-0.028361 -0.609761,-0.028361 z m 3.190607,18.6331399 c 0,0 -2.566666,3.672742 -3.374953,5.062429 2.353959,-0.382873 3.715284,-0.709024 6.749905,-1.687477 z m 13.301282,5.686369 c -0.709023,0 -1.602393,0.127625 -2.651748,0.29779 0.709024,0.638122 1.403867,1.233701 2.041988,1.744198 1.347145,0.709024 1.871822,1.006814 2.736831,1.304604 1.148618,0.113444 1.673296,0.113444 2.509943,-0.08508 0.28361,-0.241068 0.609761,-0.496317 0.609761,-0.496317 0.01418,0 0,0.08508 0.04254,-0.354511 0.05672,-0.467956 0.02836,-0.680663 -0.765745,-1.332965 -0.382873,-0.31197 -0.623941,-0.439594 -1.176979,-0.59558 -1.304604,-0.31197 -2.197974,-0.368692 -3.346592,-0.482136 z m -23.44032,4.438488 c 0,0 -2.424861,1.176979 -3.374952,1.701657 -0.9500921,0.524677 -0.765746,0.340331 -2.4106807,1.559852 -1.6307543,1.20534 -2.3397779,1.971085 -2.5383045,2.70847 -0.2127071,0.723204 0.014181,1.304603 0.4679556,1.900183 0.4679556,0.581399 1.0635354,0.652302 1.5882128,0.538858 0.510497,-0.127624 0.779926,-0.581399 1.2762425,-1.106077 0.4963165,-0.538858 1.2904233,-1.488949 1.7158373,-1.942725 h 0.01418 c 0.411233,-0.581399 0.822467,-1.134437 1.403866,-1.871822 0.921731,-1.162799 1.857642,-3.488396 1.857642,-3.488396 z" fill="#fff"/>
</svg>
