<?xml version="1.0" encoding="UTF-8"?>
<svg version="1.1" viewBox="0 0 48 48" xmlns="http://www.w3.org/2000/svg">
    <path d="m24.295 9.582-19.295 19.295v9.541h0.98438v-9.1562l18.311-18.311v27.467h1.9492v-1.1113l1.1113 1.1113h3.1738v-2.3379l2.3398 2.3379h2.3379l-0.39062-0.38867v-3.1191l2.7285 2.7285v0.7793h3.1172l-1.5586-1.5586v-3.1172l2.7266 2.7285v1.9473h1.1699v-10.131l-18.705-18.705zm-1.9473 5.8457-2.7285 2.7266v3.1172l2.7285-2.7266v-3.1172zm3.8965 0 2.7266 2.7266v3.1172l-2.7266-2.7266v-3.1172zm-8.1836 4.2852-2.7285 2.7285v3.1172l2.7285-2.7285v-3.1172zm12.469 0 2.7285 2.7285v3.1172l-2.7285-2.7285v-3.1172zm-8.1816 1.1699-2.7285 2.7266v3.1191l2.7285-2.7285v-3.1172zm3.8965 0 2.7266 2.7266v3.1191l-2.7266-2.7285v-3.1172zm-12.471 3.1172-2.7266 2.7285v3.1172l2.7266-2.7285v-3.1172zm21.043 0 2.7285 2.7285v3.1172l-2.7285-2.7285v-3.1172zm-16.756 1.1699-2.7285 2.7266v3.1172l2.7285-2.7266v-3.1172zm12.469 0 2.7285 2.7266v3.1172l-2.7285-2.7266v-3.1172zm-8.1816 1.168-2.7285 2.7285v3.1172l2.7285-2.7285v-3.1172zm3.8965 0 2.7266 2.7285v3.1172l-2.7266-2.7285v-3.1172zm-16.756 1.9492-2.7285 2.7266v3.1172l2.7285-2.7266v-3.1172zm29.615 0 2.7266 2.7266v3.1172l-2.7266-2.7266v-3.1172zm-25.33 1.168-2.7266 2.7285v3.1172l2.7266-2.7285v-3.1172zm21.043 0 2.7285 2.7285v3.1172l-2.7285-2.7285v-3.1172zm-16.756 1.1699-2.7285 2.7266v3.1191l2.7285-2.7285v-3.1172zm12.469 0 2.7285 2.7266v3.1191l-2.7285-2.7285v-3.1172zm-8.1816 1.168-2.7285 2.7285v3.1172l2.7285-2.7285v-3.1172zm3.8965 0 2.7266 2.7285v3.1172l-2.7266-2.7285v-3.1172zm-16.756 1.9492-2.7285 2.7285v1.9473h1.1699l1.5586-1.5586v-3.1172zm4.2852 1.168-2.7266 2.7285v0.7793h2.3379l0.38867-0.38867v-3.1191zm4.2871 1.1699-2.3379 2.3379h2.3379v-2.3379z" fill="#fff"/>
    <path d="m22.347 37.307-1.1165 1.1111h1.1165z" fill="#fff"/>
</svg>
