<svg xmlns="http://www.w3.org/2000/svg" viewBox="0 0 48 48"><defs><style>.cls-1{fill:#2b2b2b;}.cls-2{fill:#fff;}</style></defs><title>Action Launcher</title><g id="Layer_2" data-name="Layer 2"><rect class="cls-1" x="-394.86" y="-7" width="511.97" height="251.55"/></g><g id="Layer_1" data-name="Layer 1"><circle class="cls-2" cx="24" cy="24" r="3.25"/><path class="cls-2" d="M24,2A22,22,0,1,0,46,24,22,22,0,0,0,24,2ZM36.9,25.64H35.28v10a1.23,1.23,0,0,1-1.23,1.23H28.49a1.23,1.23,0,0,1-1.24-1.23V32a3.25,3.25,0,1,0-6.5,0v3.67a1.23,1.23,0,0,1-1.24,1.23H14a1.23,1.23,0,0,1-1.23-1.23v-10H11.1a1.86,1.86,0,0,1-1.2-3.27L22.53,11.62a2.25,2.25,0,0,1,2.94,0L38.1,22.37A1.86,1.86,0,0,1,36.9,25.64Z"/></g></svg>