<?xml version="1.0" encoding="UTF-8"?>
<svg data-name="Layer 1" viewBox="0 0 48 48" xmlns="http://www.w3.org/2000/svg">
    <defs>
        <style>.cls-1{fill:#fff;}</style>
    </defs>
    <path class="cls-1" d="m 14.503883,2.0000003 c -1.970283,0 -3.566849,1.596566 -3.566849,3.5668494 v 9.0714133 c 0.0018,0.958324 0.385351,1.876035 1.068395,2.548224 l 6.898123,6.795264 -6.898123,6.762085 c -0.683044,0.672189 -1.066696,1.589899 -1.068395,2.548224 v 9.137772 C 10.937034,44.400115 12.5336,46 14.503883,46 h 18.992234 c 1.970283,0 3.566849,-1.599885 3.566849,-3.570168 v -9.104593 c -0.0018,-0.958324 -0.385351,-1.876035 -1.068395,-2.548224 l -6.898123,-6.795264 6.898123,-6.762085 c 0.683044,-0.672189 1.066696,-1.5899 1.068395,-2.548224 V 5.5668497 c 0,-1.9702834 -1.596566,-3.5668494 -3.566849,-3.5668494 z m 3.566851,7.1337006 H 29.929266 V 13.178343 L 24,18.988161 18.070734,13.178343 Z M 24,28.975341 l 5.929266,5.809818 v 4.044642 H 18.070734 v -4.044642 z"/>
</svg>
