<?xml version="1.0" encoding="UTF-8"?>
<svg version="1.1" viewBox="0 0 48 48" xmlns="http://www.w3.org/2000/svg">
    <path d="m24 2a22 22 0 0 0-22 22 22 22 0 0 0 22 22 22 22 0 0 0 22-22 22 22 0 0 0-22-22zm0 2a20 20 0 0 1 20 20 20 20 0 0 1-20 20 20 20 0 0 1-20-20 20 20 0 0 1 20-20z" fill="#fff"/>
    <path d="m16.992 7.5664c-0.27485 0.00526-0.54683 0.20554-0.76758 0.58789l-6.7773 15.186c-0.4963 1.0485 1.1055 1.7618 1.5527 0.69141l1.7988-4.0312h8.4609l0.99609 2.209a2.5 2.5 0 0 0-0.75586 1.791 2.5 2.5 0 0 0 0.33203 1.2402l-11.236 9.8691a0.50005 0.50005 0 1 0 0.66016 0.75l11.236-9.8691a2.5 2.5 0 0 0 1.4238 0.50586l3.4902 10.764c0.2552 0.77999 1.3581 0.78127 1.6152 0.001953l3.543-10.789 3.4102 10.518c0.2533 0.78397 1.362 0.78527 1.6172 0.001954l4.3535-13.266c0.19001-0.55158-0.21934-1.1263-0.80273-1.127-0.37253-3.32e-4 -0.70188 0.24193-0.8125 0.59766l-3.541 10.791-3.4121-10.52c-0.25426-0.7803-1.3572-0.78298-1.6152-0.003906l-3.543 10.791-2.6895-8.2793a2.5 2.5 0 0 0 0.9707-1.9766 2.5 2.5 0 0 0-0.27539-1.1426l5.6465-6.9141a1.0001 1.0001 0 0 0-0.79688-1.6426 1.0001 1.0001 0 0 0-0.75391 0.37891l-5.6484 6.916a2.5 2.5 0 0 0-0.67188-0.095703 2.5 2.5 0 0 0-0.19336 0.007812c-1.4451-3.2054-6.0312-13.357-6.0312-13.357-0.23064-0.39949-0.50836-0.58925-0.7832-0.58398zm0.011718 3.0078 3.4883 7.7266h-6.9355l3.4473-7.7266z" color="#000000" color-rendering="auto" dominant-baseline="auto" fill="#fff" image-rendering="auto" shape-rendering="auto" solid-color="#000000" style="font-feature-settings:normal;font-variant-alternates:normal;font-variant-caps:normal;font-variant-ligatures:normal;font-variant-numeric:normal;font-variant-position:normal;isolation:auto;mix-blend-mode:normal;shape-padding:0;text-decoration-color:#000000;text-decoration-line:none;text-decoration-style:solid;text-indent:0;text-orientation:mixed;text-transform:none;white-space:normal"/>
</svg>
