<?xml version="1.0" encoding="UTF-8"?>
<svg viewBox="0 0 48 48" xmlns="http://www.w3.org/2000/svg">
    <defs>
        <style>.cls-1{fill:#fff;}</style>
    </defs>
    <path class="cls-1" d="m 24,4.7403508 c -0.781346,0 -1.563743,0.2692525 -2.193525,0.8127406 L 2.9707055,21.633117 c -1.9433623,1.67179 -0.7748274,4.858524 1.7886111,4.876443 H 7.249973 v 14.914806 c 0,1.013178 0.822043,1.835221 1.8352207,1.835221 h 8.2177093 c 1.018997,0.0083 1.849819,-0.816189 1.849785,-1.835221 v -5.473618 c 0,-6.463079 9.694624,-6.463079 9.694624,0 v 5.429922 c -3.4e-5,1.019032 0.830788,1.84066 1.849785,1.832308 h 8.293449 c 1.013177,0 1.832307,-0.81913 1.832307,-1.832308 V 26.465864 h 2.417831 c 2.563439,-0.01792 3.731972,-3.207565 1.78861,-4.879356 L 26.193525,5.5530914 C 25.563743,5.0096033 24.781347,4.7403508 24,4.7403508 Z M 24,19.171591 A 4.8473122,4.8473122 0 0 1 28.847312,24.018903 4.8473122,4.8473122 0 0 1 24,28.866215 4.8473122,4.8473122 0 0 1 19.152688,24.018903 4.8473122,4.8473122 0 0 1 24,19.171591 Z"/>
</svg>
