<svg xmlns="http://www.w3.org/2000/svg" viewBox="0 0 48 48" height="48" width="48">
  <path d="M 14.058594 0 L 7.0292969 7.0292969 L 0 14.060547 L 0 24 L 0 33.939453 L 7.0292969 40.970703 L 14.058594 48 L 24.058594 48 L 34.058594 48 L 41.029297 41.029297 L 48 34.060547 L 48 24 L 48 13.941406 L 41.029297 6.9707031 L 34.058594 0 L 24.058594 0 L 14.058594 0 z M 10.791016 11.396484 C 11.2409 11.360669 12.26804 11.627157 14.097656 12.240234 C 16.893766 13.177141 17.002505 13.194572 20.001953 13.277344 C 24.044581 13.388878 24.41667 13.513331 26.171875 15.3125 C 27.536209 16.710887 28.127697 17.066406 29.089844 17.066406 C 30.055468 17.066406 30.519999 16.707809 32.087891 14.753906 C 32.959276 13.667972 33.436782 13.337764 34.150391 13.333984 C 34.823385 13.329033 35.228933 13.562904 36.162109 14.5 C 36.606805 14.946551 37.086708 15.386673 37.228516 15.478516 C 37.370286 15.570358 37.486328 15.687636 37.486328 15.738281 C 37.486328 15.788965 37.279363 16.015416 37.027344 16.242188 C 35.988178 17.176487 35.117835 18.597682 34.808594 19.867188 C 34.730169 20.18909 34.626213 21.301053 34.576172 22.337891 C 34.47349 24.465047 34.298608 25.348498 33.8125 26.203125 C 33.44973 26.84092 32.351638 27.954334 30.636719 29.419922 C 28.799007 30.990429 28.112867 31.91899 27.554688 33.589844 C 27.39741 34.060584 27.1912 34.925438 27.097656 35.511719 L 26.927734 36.578125 L 26.322266 36.603516 C 25.425467 36.643881 24.786551 36.297426 23.765625 35.212891 C 23.331626 34.751826 22.935008 34.373047 22.882812 34.373047 C 22.830606 34.373047 22.603675 34.4585 22.378906 34.560547 C 21.576596 34.924591 21.095295 34.756141 20.523438 33.914062 C 20.123106 33.324532 19.811579 33.091431 19.064453 32.824219 C 18.806644 32.731998 18.515997 32.583337 18.419922 32.494141 C 18.267947 32.352711 18.258876 32.288819 18.353516 32.001953 C 18.479143 31.621279 19.120352 30.990662 19.861328 30.517578 C 20.144377 30.336841 21.19961 29.732506 22.205078 29.175781 C 24.379028 27.972002 25.493705 27.252833 25.720703 26.90625 C 25.930467 26.586086 26.009512 25.932221 25.869141 25.669922 C 25.5712 25.113197 24.693963 25.02634 22.955078 25.380859 C 21.515554 25.674529 19.579197 25.697278 18.876953 25.429688 C 17.577911 24.93491 17.065156 24.216745 16.576172 22.208984 C 16.507445 21.926805 16.315019 21.635253 15.919922 21.212891 C 15.612612 20.884412 15.361328 20.551648 15.361328 20.472656 C 15.361328 20.393778 15.722054 20.088969 16.164062 19.794922 C 17.002297 19.237177 17.254919 18.918798 17.080078 18.640625 C 16.999083 18.511743 16.758699 18.473089 15.726562 18.427734 C 14.324989 18.366015 13.890632 18.235555 13.253906 17.677734 C 12.928837 17.392947 12.361328 16.621316 12.361328 16.464844 C 12.361328 16.431584 12.878123 16.405633 13.509766 16.408203 C 14.724098 16.413154 15.311262 16.300531 15.763672 15.978516 C 15.934998 15.856588 16.016567 15.722759 15.998047 15.597656 C 15.974531 15.439218 15.752791 15.335246 14.751953 15.011719 C 12.700924 14.348563 11.655999 13.763605 11.054688 12.941406 C 10.756679 12.533935 10.451913 11.722872 10.525391 11.53125 C 10.55512 11.45377 10.641054 11.408423 10.791016 11.396484 z M 34.484375 15.210938 C 34.42797 15.195725 34.373538 15.208235 34.306641 15.244141 C 34.040222 15.386704 34.001324 15.608783 34.205078 15.8125 C 34.408855 16.016217 34.628883 15.975441 34.771484 15.708984 C 34.843106 15.575189 34.821041 15.490774 34.673828 15.34375 C 34.600222 15.270049 34.54078 15.22615 34.484375 15.210938 z " style="fill:#ffffff" />
</svg>
