<svg xmlns="http://www.w3.org/2000/svg" viewBox="0 0 48 48" height="48" width="48">
  <path style="fill:#ffffff" d="M 14.472819,1 7.7364095,7.7364095 1,14.474691 V 24 33.525309 L 7.7364095,40.26359 14.472819,47 h 9.583334 9.583333 L 40.319743,40.319743 47,33.641358 V 24 14.360514 L 40.319743,7.6802571 33.639486,1 H 24.056153 Z M 11.34139,11.92163 c 0.431139,-0.03432 1.415482,0.221062 3.168864,0.808594 2.679605,0.897869 2.783813,0.914574 5.658284,0.993897 3.874185,0.106887 4.230771,0.226155 5.912842,1.950358 1.307487,1.340121 1.87433,1.680827 2.796387,1.680827 0.92539,0 1.370565,-0.343656 2.873129,-2.216146 0.835077,-1.040687 1.292687,-1.357136 1.976562,-1.360759 0.644953,-0.0047 1.033603,0.219382 1.927896,1.117432 0.426167,0.427945 0.886075,0.849729 1.021974,0.937745 0.135863,0.08802 0.24707,0.200407 0.24707,0.248941 0,0.04857 -0.198342,0.265588 -0.43986,0.482911 -0.995867,0.89537 -1.829946,2.257349 -2.126302,3.473958 -0.07516,0.30849 -0.174782,1.374121 -0.222738,2.367758 -0.0984,2.038524 -0.265999,2.885165 -0.731852,3.704182 -0.347655,0.61122 -1.399993,1.678242 -3.043457,3.082764 -1.761141,1.505069 -2.418691,2.39494 -2.953613,3.996175 -0.150725,0.451126 -0.348343,1.279944 -0.437989,1.841797 l -0.162842,1.021972 -0.58024,0.02433 c -0.859432,0.03868 -1.471727,-0.293336 -2.450114,-1.332682 -0.415916,-0.441854 -0.796008,-0.80485 -0.846029,-0.80485 -0.05003,0 -0.267507,0.08189 -0.48291,0.179687 -0.768881,0.348876 -1.230128,0.187444 -1.778157,-0.619548 -0.383652,-0.564966 -0.682198,-0.788355 -1.398194,-1.044433 -0.247067,-0.08838 -0.525604,-0.230845 -0.617676,-0.316325 -0.145642,-0.135537 -0.154335,-0.196766 -0.06364,-0.47168 0.120393,-0.364812 0.734885,-0.969154 1.444987,-1.422526 0.271255,-0.173206 1.28252,-0.75236 2.246093,-1.285889 2.083369,-1.153621 3.151601,-1.842825 3.369141,-2.174967 0.201024,-0.306824 0.276775,-0.933444 0.142253,-1.184814 -0.285527,-0.533528 -1.126212,-0.616766 -2.792644,-0.277019 -1.379543,0.281434 -3.235219,0.303235 -3.908203,0.0468 -1.244915,-0.474163 -1.736305,-1.162404 -2.204915,-3.086508 -0.06586,-0.270422 -0.250271,-0.549826 -0.628906,-0.954589 -0.294505,-0.314793 -0.535319,-0.633692 -0.535319,-0.709392 0,-0.07559 0.345695,-0.3677 0.769286,-0.649495 0.803309,-0.534506 1.045405,-0.839619 0.877849,-1.106202 -0.07762,-0.123512 -0.307988,-0.160555 -1.297119,-0.20402 -1.343175,-0.05915 -1.759433,-0.184172 -2.369629,-0.71875 -0.311525,-0.272921 -0.855387,-1.012401 -0.855387,-1.162353 0,-0.03187 0.495262,-0.05674 1.100586,-0.05428 1.163735,0.0047 1.726434,-0.103186 2.159993,-0.411784 0.164188,-0.116847 0.242358,-0.2451 0.22461,-0.36499 -0.02254,-0.151837 -0.235037,-0.251477 -1.194174,-0.561523 -1.965569,-0.635525 -2.966956,-1.19611 -3.543212,-1.98405 -0.285592,-0.390493 -0.577659,-1.167762 -0.507243,-1.3514 0.02849,-0.07425 0.110844,-0.117709 0.254557,-0.129151 z m 22.706136,3.655519 c -0.05405,-0.01458 -0.106219,-0.0026 -0.170328,0.03182 -0.255319,0.136623 -0.292596,0.349449 -0.09733,0.544678 0.195287,0.195229 0.406147,0.156152 0.542806,-0.0992 0.06864,-0.12822 0.04749,-0.209118 -0.09359,-0.350016 -0.07054,-0.07063 -0.127504,-0.1127 -0.181559,-0.127278 z" />
</svg>
