<?xml version="1.0" encoding="UTF-8"?>
<svg version="1.1" viewBox="0 0 48 48" xmlns="http://www.w3.org/2000/svg">
    <path d="m 26.906869,13.97406 h 2.291315 v 19.791293 h -1.847169 l -0.340559,-1.87451 h -0.103532 c -0.416624,0.59021 -0.973006,1.092734 -1.667362,1.509317 -0.694369,0.416624 -1.587293,0.626631 -2.680919,0.626631 -1.735853,0 -3.124229,-0.600379 -4.165685,-1.798207 -1.041554,-1.215139 -1.563858,-3.020725 -1.563858,-5.416241 0,-2.395516 0.522304,-4.201116 1.563858,-5.416241 1.058907,-1.232506 2.457033,-1.847169 4.193026,-1.847169 1.076273,0 1.952067,0.200117 2.629167,0.599388 0.694369,0.399258 1.257922,0.88475 1.691913,1.457564 h 0.155298 c -0.03472,-0.225672 -0.06881,-0.555001 -0.103532,-0.988978 -0.03472,-0.451344 -0.05177,-0.80761 -0.05177,-1.067988 v -5.574287 z m 6.723989,0 h 2.291315 v 4.819629 c 0,0.59021 -0.01705,1.143886 -0.05176,1.664712 -0.01735,0.503417 -0.04429,0.903664 -0.07901,1.198762 h 0.130774 c 0.399258,-0.590209 0.945764,-1.085578 1.640161,-1.484905 0.69437,-0.399257 1.589944,-0.599388 2.68357,-0.599388 1.735853,0 3.124229,0.607535 4.165685,1.822618 1.058907,1.197786 1.588409,2.996174 1.588409,5.39169 0,2.395517 -0.52946,4.201117 -1.588409,5.416242 -1.058907,1.215139 -2.447129,1.822618 -4.165685,1.822618 -1.093626,0 -1.989173,-0.200117 -2.68357,-0.599389 -0.694369,-0.399257 -1.240875,-0.877579 -1.640161,-1.433013 h -0.18254 l -0.468614,1.770866 H 33.630858 V 13.973209 Z M 8.3016862,19.572898 c 1.7012588,0 2.9601848,0.373312 3.7760808,1.119753 0.815895,0.746442 1.223285,1.937282 1.223285,3.569073 v 9.502973 H 11.63369 l -0.44137,-1.978013 h -0.103532 c -0.607577,0.763809 -1.2519235,1.327361 -1.9289118,1.691913 -0.6769883,0.364551 -1.5967785,0.547622 -2.7598726,0.547622 -1.2672119,0 -2.3162843,-0.332064 -3.1494771,-0.991713 C 2.4172919,32.357504 1.999998,31.308418 1.999998,29.885029 c 0,-1.388738 0.5465064,-2.457591 1.6401608,-3.204019 1.0936266,-0.763809 2.7771698,-1.178369 5.0511877,-1.247808 l 2.3702685,-0.07901 v -0.833695 c 0,-1.163066 -0.251269,-1.97076 -0.754686,-2.42202 C 9.8035117,21.647133 9.0909666,21.4228 8.171009,21.4228 c -0.729089,0 -1.421854,0.112166 -2.0815172,0.337838 -0.6596494,0.208305 -1.2770601,0.452418 -1.8499586,0.730163 L 3.5366131,20.771688 c 0.6075765,-0.329817 1.3272636,-0.608023 2.1604704,-0.833695 0.8332346,-0.243025 1.7019563,-0.365081 2.6046167,-0.365081 z m 14.5951718,1.874509 c -1.232506,0 -2.159494,0.495368 -2.784423,1.484905 -0.607577,0.972114 -0.912704,2.282248 -0.912704,3.931476 0,1.666525 0.305127,2.959627 0.912704,3.879584 0.624929,0.920042 1.561765,1.381318 2.811624,1.381318 1.475559,0 2.50753,-0.400248 3.097725,-1.198777 0.607577,-0.815881 0.912704,-2.038135 0.912704,-3.669926 V 26.83914 c 0,-1.735854 -0.288081,-3.065921 -0.860938,-3.985879 -0.572856,-0.937394 -1.631791,-1.405812 -3.176678,-1.405812 z m 16.956791,0.02724 c -1.492856,0 -2.524826,0.42445 -3.097725,1.275052 -0.55549,0.850601 -0.833695,2.170653 -0.833695,3.958677 v 0.103532 c 0,1.718556 0.278192,3.03858 0.833695,3.958677 0.572857,0.902674 1.621887,1.35406 3.149477,1.35406 1.249859,0 2.179581,-0.461276 2.787074,-1.381317 0.62493,-0.920042 0.937227,-2.247236 0.937227,-3.983228 0,-3.523877 -1.259052,-5.285536 -3.776081,-5.285536 z m -28.819291,5.467994 -2.0569668,0.07901 c -1.7358531,0.06944 -2.9410742,0.34491 -3.6181742,0.83096 -0.6596493,0.48605 -0.9889787,1.174394 -0.9889787,2.059757 0,0.781162 0.234223,1.351884 0.7029201,1.716463 0.48605,0.364538 1.1007546,0.547623 1.8471687,0.547623 1.1630663,0 2.1367566,-0.322174 2.9179184,-0.96447 0.7985145,-0.659647 1.1960425,-1.66471 1.1960425,-3.01877 v -1.250529 z" fill="#fff"/>
</svg>
