<?xml version="1.0" encoding="UTF-8" standalone="no"?>
<svg
   xmlns:dc="http://purl.org/dc/elements/1.1/"
   xmlns:cc="http://creativecommons.org/ns#"
   xmlns:rdf="http://www.w3.org/1999/02/22-rdf-syntax-ns#"
   xmlns:svg="http://www.w3.org/2000/svg"
   xmlns="http://www.w3.org/2000/svg"
   xmlns:sodipodi="http://sodipodi.sourceforge.net/DTD/sodipodi-0.dtd"
   xmlns:inkscape="http://www.inkscape.org/namespaces/inkscape"
   width="48"
   height="48"
   viewBox="0 0 48 48"
   version="1.1"
   id="svg4"
   sodipodi:docname="adbmanager.svg"
   inkscape:version="0.92.4 (5da689c313, 2019-01-14)">
  <metadata
     id="metadata10">
    <rdf:RDF>
      <cc:Work
         rdf:about="">
        <dc:format>image/svg+xml</dc:format>
        <dc:type
           rdf:resource="http://purl.org/dc/dcmitype/StillImage" />
        <dc:title></dc:title>
      </cc:Work>
    </rdf:RDF>
  </metadata>
  <defs
     id="defs8" />
  <sodipodi:namedview
     pagecolor="#ffffff"
     bordercolor="#666666"
     borderopacity="1"
     objecttolerance="10"
     gridtolerance="10"
     guidetolerance="10"
     inkscape:pageopacity="0"
     inkscape:pageshadow="2"
     inkscape:window-width="1920"
     inkscape:window-height="1027"
     id="namedview6"
     showgrid="false"
     inkscape:pagecheckerboard="true"
     inkscape:zoom="8.3333333"
     inkscape:cx="32.478719"
     inkscape:cy="30.739022"
     inkscape:window-x="-8"
     inkscape:window-y="-8"
     inkscape:window-maximized="1"
     inkscape:current-layer="svg4" />
  <path
     d="M 24 2 A 22 22 0 0 0 2 24 A 22 22 0 0 0 24 46 A 22 22 0 0 0 46 24 A 22 22 0 0 0 24 2 z M 26.083984 14.8125 L 27.726562 14.8125 L 27.726562 29 L 26.402344 29 L 26.158203 27.65625 L 26.083984 27.65625 C 25.785318 28.079361 25.38645 28.439615 24.888672 28.738281 C 24.390894 29.036948 23.750797 29.1875 22.966797 29.1875 C 21.722352 29.1875 20.727135 28.757104 19.980469 27.898438 C 19.233802 27.027326 18.859375 25.732958 18.859375 24.015625 C 18.859375 22.298292 19.233802 21.003924 19.980469 20.132812 C 20.73958 19.249257 21.741884 18.808594 22.986328 18.808594 C 23.757884 18.808594 24.38576 18.952059 24.871094 19.238281 C 25.368872 19.524503 25.772873 19.872536 26.083984 20.283203 L 26.195312 20.283203 C 26.170424 20.121425 26.145983 19.88533 26.121094 19.574219 C 26.096205 19.250663 26.083984 18.99526 26.083984 18.808594 L 26.083984 14.8125 z M 30.904297 14.8125 L 32.546875 14.8125 L 32.546875 18.267578 C 32.546875 18.690689 32.534655 19.087604 32.509766 19.460938 C 32.497321 19.821826 32.478014 20.108757 32.453125 20.320312 L 32.546875 20.320312 C 32.833097 19.897201 33.224878 19.542082 33.722656 19.255859 C 34.220434 18.969637 34.862484 18.826172 35.646484 18.826172 C 36.890929 18.826172 37.886146 19.261701 38.632812 20.132812 C 39.391924 20.991479 39.771484 22.280714 39.771484 23.998047 C 39.771484 25.71538 39.391924 27.009748 38.632812 27.880859 C 37.873701 28.75197 36.878484 29.1875 35.646484 29.1875 C 34.862484 29.1875 34.220434 29.044035 33.722656 28.757812 C 33.224878 28.47159 32.833097 28.128691 32.546875 27.730469 L 32.416016 27.730469 L 32.080078 29 L 30.904297 29 L 30.904297 14.8125 z M 12.746094 18.826172 C 13.965649 18.826172 14.868236 19.093795 15.453125 19.628906 C 16.038014 20.164017 16.330078 21.017722 16.330078 22.1875 L 16.330078 29 L 15.134766 29 L 14.818359 27.582031 L 14.744141 27.582031 C 14.308585 28.129587 13.846661 28.533589 13.361328 28.794922 C 12.875995 29.056255 12.21659 29.1875 11.382812 29.1875 C 10.474368 29.1875 9.7223333 28.949451 9.125 28.476562 C 8.5276667 27.991229 8.2285156 27.239194 8.2285156 26.21875 C 8.2285156 25.223194 8.6202969 24.456986 9.4042969 23.921875 C 10.188297 23.374319 11.395168 23.077122 13.025391 23.027344 L 14.724609 22.970703 L 14.724609 22.373047 C 14.724609 21.539269 14.544483 20.960274 14.183594 20.636719 C 13.822705 20.313163 13.311899 20.152344 12.652344 20.152344 C 12.129677 20.152344 11.633045 20.232753 11.160156 20.394531 C 10.687267 20.543865 10.244651 20.718858 9.8339844 20.917969 L 9.3300781 19.685547 C 9.7656337 19.449102 10.281573 19.249668 10.878906 19.087891 C 11.47624 18.913668 12.098983 18.826172 12.746094 18.826172 z M 23.208984 20.169922 C 22.325429 20.169922 21.660891 20.525042 21.212891 21.234375 C 20.777335 21.931264 20.558594 22.870512 20.558594 24.052734 C 20.558594 25.247401 20.777335 26.174429 21.212891 26.833984 C 21.660891 27.49354 22.332516 27.824219 23.228516 27.824219 C 24.286293 27.824219 25.026108 27.537288 25.449219 26.964844 C 25.884774 26.379955 26.103516 25.503762 26.103516 24.333984 L 26.103516 24.035156 C 26.103516 22.790712 25.896995 21.83729 25.486328 21.177734 C 25.075661 20.505734 24.31654 20.169922 23.208984 20.169922 z M 35.365234 20.189453 C 34.295012 20.189453 33.555198 20.493738 33.144531 21.103516 C 32.746309 21.713293 32.546875 22.659629 32.546875 23.941406 L 32.546875 24.015625 C 32.546875 25.247625 32.746309 26.19396 33.144531 26.853516 C 33.555198 27.500627 34.307233 27.824219 35.402344 27.824219 C 36.298344 27.824219 36.964835 27.49354 37.400391 26.833984 C 37.848391 26.174429 38.072266 25.22296 38.072266 23.978516 C 38.072266 21.452293 37.169679 20.189453 35.365234 20.189453 z M 14.705078 24.109375 L 13.230469 24.166016 C 11.986024 24.215793 11.122052 24.413274 10.636719 24.761719 C 10.16383 25.110163 9.9277344 25.603615 9.9277344 26.238281 C 9.9277344 26.798281 10.095641 27.207417 10.431641 27.46875 C 10.780085 27.730083 11.220748 27.861328 11.755859 27.861328 C 12.589637 27.861328 13.287656 27.630366 13.847656 27.169922 C 14.420101 26.697033 14.705078 25.976526 14.705078 25.005859 L 14.705078 24.109375 z "
     id="circle2"
     style="fill:#ffffff" />
</svg>
