<svg xmlns="http://www.w3.org/2000/svg" viewBox="0 0 48 48"><defs><style>.cls-1{fill:#fff;}</style></defs><g id="Layer_1" data-name="Layer 1"><path class="cls-1" d="M38.32,31.39a3.7,3.7,0,0,1-3.71,3.7A3.35,3.35,0,0,1,33.9,35a3.85,3.85,0,0,1,.1.83,3.7,3.7,0,0,1-6.4,2.53,3.7,3.7,0,0,1-7.23,0A3.7,3.7,0,0,1,14,35.85a3.32,3.32,0,0,1,.11-.83,3.51,3.51,0,0,1-.72.07,3.69,3.69,0,0,1-3.7-3.7c0-.05,0-.09,0-.14H5v9.22a2,2,0,0,0,2,2H41a2,2,0,0,0,2-2V31.25H38.3C38.3,31.3,38.32,31.34,38.32,31.39Z"/><path class="cls-1" d="M39.41,13.43l2.66-2.62a3.1,3.1,0,0,0,0-4.38h0a3.11,3.11,0,0,0-4.4,0L35.05,9.1a18.91,18.91,0,0,0-22.1,0L10.31,6.46a3.26,3.26,0,0,0-2.23-.94h0a3.06,3.06,0,0,0-2.18.9h0a3.1,3.1,0,0,0,0,4.38l2.67,2.62A19,19,0,0,0,5,24.52v3.9H43v-3.9A19,19,0,0,0,39.41,13.43ZM19,20.6a3,3,0,1,1-3-3,3,3,0,0,1,3,3Zm13,3h0a3,3,0,1,1,3-3A3,3,0,0,1,32,23.6Z"/></g></svg>