<svg id="Layer_1" data-name="Layer 1" xmlns="http://www.w3.org/2000/svg" viewBox="0 0 48 48"><defs><style>.cls-1{fill:#fff;}</style></defs><title>Adobe Lightroom</title><path class="cls-1" d="M24,2A22,22,0,1,0,46,24,22,22,0,0,0,24,2ZM38.5,36.13a2.37,2.37,0,0,1-2.37,2.37H11.87A2.37,2.37,0,0,1,9.5,36.13V11.87A2.37,2.37,0,0,1,11.87,9.5H36.13a2.37,2.37,0,0,1,2.37,2.37Z"/><path class="cls-1" d="M36.13,10.5H11.87a1.37,1.37,0,0,0-1.37,1.37V36.13a1.37,1.37,0,0,0,1.37,1.37H36.13a1.37,1.37,0,0,0,1.37-1.37V11.87A1.37,1.37,0,0,0,36.13,10.5ZM23.77,30.25H16.05V17.75H18.7V28.06h5.07Zm8-7.22A3.37,3.37,0,0,0,31,23a2.74,2.74,0,0,0-1.94.64,2.31,2.31,0,0,0-.7,1.79v4.87H25.73V20.69h2l.38,1.61h.13a3.66,3.66,0,0,1,1.2-1.3,3,3,0,0,1,1.65-.49,4.33,4.33,0,0,1,.88.08Z"/></svg>