<svg id="Layer_1" data-name="Layer 1" xmlns="http://www.w3.org/2000/svg" viewBox="0 0 48 48"><defs><style>.cls-1{fill:#fff;}</style></defs><title>Adobe Rush</title><path class="cls-1" d="M36.13,10.5H11.87a1.37,1.37,0,0,0-1.37,1.37V36.13a1.37,1.37,0,0,0,1.37,1.37H36.13a1.37,1.37,0,0,0,1.37-1.37V11.87A1.37,1.37,0,0,0,36.13,10.5ZM21,30.16l-3-4.79H16.59v4.79H13.94V17.67h3.64a6.21,6.21,0,0,1,3.77.93,3.27,3.27,0,0,1,1.22,2.81,3.34,3.34,0,0,1-.6,2,4.13,4.13,0,0,1-1.72,1.35q2.82,4.22,3.67,5.44Zm13.08,0h-2l-.35-1.22h-.14a2.73,2.73,0,0,1-1.19,1,4.05,4.05,0,0,1-1.75.36,3.35,3.35,0,0,1-2.54-.9,3.63,3.63,0,0,1-.85-2.59V20.61h2.6v5.58a2.72,2.72,0,0,0,.37,1.55,1.36,1.36,0,0,0,1.17.52A1.75,1.75,0,0,0,31,27.52a4.45,4.45,0,0,0,.49-2.42V20.61h2.61Z"/><path class="cls-1" d="M19.29,20.21a3.73,3.73,0,0,0-1.89-.37h-.81v3.37h.86a3.36,3.36,0,0,0,1.85-.41,1.5,1.5,0,0,0,.6-1.32A1.4,1.4,0,0,0,19.29,20.21Z"/><path class="cls-1" d="M24,2A22,22,0,1,0,46,24,22,22,0,0,0,24,2ZM38.5,36.13a2.37,2.37,0,0,1-2.37,2.37H11.87A2.37,2.37,0,0,1,9.5,36.13V11.87A2.37,2.37,0,0,1,11.87,9.5H36.13a2.37,2.37,0,0,1,2.37,2.37Z"/></svg>