<?xml version="1.0" encoding="UTF-8"?>
<svg version="1.1" viewBox="0 0 48 48" xmlns="http://www.w3.org/2000/svg">
    <path d="m7 5c-1.108 0-2 0.892-2 2v34c0 1.108 0.892 2 2 2h34c1.108 0 2-0.892 2-2v-34c0-1.108-0.892-2-2-2zm22.012 5.3281 4.9492 4.9492-12.02 12.021-6.0678 1.1166 1.1167-6.0678zm1.9082 14.379c0.12138-3e-3 0.24418 0.0059 0.36914 0.02734 0.99318 0.11398 1.8152 1.0181 1.5957 2.043-0.26922 1.4483-1.3854 2.6659-2.6426 3.2812-0.33195 0.16247-0.72852 0.38476-0.72852 0.38476s0.25952 0.71646 0.64844 0.77344c1.8409-0.15113 3.9961-3.7012 5.207-2.6055 0.48568 0.43947-1.221 1.4297-0.63867 2.1484 0.30575 0.37736 2.2383-0.94336 2.2383-0.94336l0.15039 1.6562c-1.0718 0.64915-3.1736 1.7041-4.0254 0.02148-0.90117 0.75925-2.0603 1.3616-3.2715 1.2031-0.80043-0.13418-1.6366-0.78262-1.7031-1.6113-1.5592 0.65852-3.0861 1.0481-4.7676 1.2207-2.653 0.13445-5.3129 0.12849-7.9688 0.20703l-0.03711-1.5117c2.0502-0.04945 4.1002-0.08317 6.1504-0.13476 2.2899 0.05147 4.4002-0.19552 6.4492-1.207 0.08337-1.1114 0.40015-2.6859 0.98633-3.6445 0.39391-0.6993 1.1386-1.2876 1.9883-1.3086zm0.02539 1.0137c-0.3047-0.01761-0.66393 0.20347-0.98047 0.80469-0.72999 1.3866-0.62695 2.4238-0.62695 2.4238s0.83512-0.28471 1.8203-1.1973c0.86756-0.80359 0.45745-1.9925-0.21289-2.0312z" fill="#fff"/>
</svg>
