<svg id="Layer_1" data-name="Layer 1" xmlns="http://www.w3.org/2000/svg" viewBox="0 0 48 48"><defs><style>.cls-1{fill:#fff;}</style></defs><title>Adobe Phothoshop Express</title><path class="cls-1" d="M24,2A22,22,0,1,0,46,24,22,22,0,0,0,24,2ZM38.5,36.13a2.37,2.37,0,0,1-2.37,2.37H11.87A2.37,2.37,0,0,1,9.5,36.13V11.87A2.37,2.37,0,0,1,11.87,9.5H36.13a2.37,2.37,0,0,1,2.37,2.37Z"/><path class="cls-1" d="M19.13,19.84H17.92v3.71h.88a2.87,2.87,0,0,0,1.83-.49,1.69,1.69,0,0,0,.6-1.4,1.75,1.75,0,0,0-.51-1.38A2.41,2.41,0,0,0,19.13,19.84Z"/><path class="cls-1" d="M36.13,10.5H11.87a1.37,1.37,0,0,0-1.37,1.37V36.13a1.37,1.37,0,0,0,1.37,1.37H36.13a1.37,1.37,0,0,0,1.37-1.37V11.87A1.37,1.37,0,0,0,36.13,10.5ZM22.65,24.65a5.42,5.42,0,0,1-3.59,1.07H17.92v4.44H15.28V17.67h4a5.26,5.26,0,0,1,3.45,1,3.55,3.55,0,0,1,1.19,2.91A3.82,3.82,0,0,1,22.65,24.65Zm9.05,4.91a5.06,5.06,0,0,1-3.05.77,10,10,0,0,1-1.78-.14,6.7,6.7,0,0,1-1.38-.41V27.62a9.52,9.52,0,0,0,1.64.58,6.83,6.83,0,0,0,1.6.23c.95,0,1.42-.28,1.42-.82a.65.65,0,0,0-.19-.5,2.46,2.46,0,0,0-.65-.44q-.45-.24-1.23-.57a7.86,7.86,0,0,1-1.61-.85,2.38,2.38,0,0,1-.76-.9,3.12,3.12,0,0,1-.23-1.26,2.29,2.29,0,0,1,1-2,4.81,4.81,0,0,1,2.79-.69,8,8,0,0,1,3.36.75l-.78,1.88a12.74,12.74,0,0,0-1.35-.5,3.92,3.92,0,0,0-1.27-.2c-.77,0-1.15.21-1.15.62a.72.72,0,0,0,.37.61,10.62,10.62,0,0,0,1.63.76,7.31,7.31,0,0,1,1.64.85,2.61,2.61,0,0,1,.77.9,2.85,2.85,0,0,1,.24,1.22A2.63,2.63,0,0,1,31.7,29.56Z"/></svg>