<?xml version="1.0" encoding="UTF-8"?>
<svg version="1.1" viewBox="0 0 48 48" xmlns="http://www.w3.org/2000/svg">
    <path d="m 6.0405617,43.478 c 0.7696354,-0.343561 1.6369182,-1.744675 8.4267533,-13.614577 5.38697,-9.417566 6.317242,-11.002633 7.230133,-12.320337 1.041837,-1.50396 1.379649,-1.765965 2.276507,-1.765965 0.684516,0 0.959687,0.161997 1.574349,0.926838 1.097917,1.366238 2.370939,3.499634 7.950105,13.32375 3.141892,5.532384 4.853979,8.503372 6.314779,10.95817 1.095773,1.841279 1.285724,2.115306 1.610558,2.322419 0.51703,0.329614 0.92051,0.417934 1.732799,0.379307 0.928258,-0.04415 1.419985,-0.281153 2.148038,-1.035349 C 46.10601,41.822123 46.173619,41.409114 45.71739,40.1304 45.111939,38.43352 43.922023,36.2513 36.5136,23.251401 27.282291,7.0531235 26.060033,5.0645474 25.006942,4.5301085 24.575481,4.3112638 23.447655,4.2259418 23.13351,4.3883968 22.183469,4.879675 21.152175,6.5795962 9.5998956,26.695788 2.5636964,38.948053 2.00087,39.999116 2.000001,40.887241 c -0.00103,1.108982 0.8401553,2.285631 1.905586,2.665532 0.5775705,0.20594 1.5852123,0.170716 2.1348588,-0.07462 z M 18.944291,43.42757 c 0.612432,-0.299633 1.168075,-0.852437 1.438321,-1.430978 0.190081,-0.406927 0.218295,-0.568837 0.210647,-1.209078 -0.01101,-0.917105 -0.221973,-1.590861 -0.737641,-2.355152 -0.528863,-0.783829 -1.13624,-1.254063 -1.992342,-1.542486 -1.640104,-0.552485 -3.192874,0.445453 -3.468059,2.228712 -0.11581,0.750691 0.07111,1.727005 0.492509,2.572548 0.386766,0.775994 0.707951,1.182124 1.205659,1.524527 0.584002,0.401799 0.89935,0.488396 1.683121,0.462123 0.571763,-0.01916 0.792186,-0.06638 1.16777,-0.250129 z m 12.642304,0.0097 c 1.230064,-0.563693 1.975686,-1.880816 1.729322,-3.055134 -0.255459,-1.217883 -4.147332,-8.147803 -6.968127,-12.407816 -1.231338,-1.859529 -1.409673,-2.059545 -1.986259,-2.227119 -1.312083,-0.381436 -2.714775,0.229157 -3.364647,1.464565 -0.204275,0.388359 -0.227912,0.516103 -0.224711,1.214306 0.0033,0.73208 0.0251,0.83022 0.35189,1.588399 1.553494,3.604059 5.703433,10.791465 7.440142,12.885481 0.55993,0.675174 0.899103,0.814186 1.895738,0.777036 0.497665,-0.01855 0.77104,-0.07672 1.126753,-0.23973 z" fill="#fff"/>
</svg>
