<?xml version="1.0" encoding="UTF-8"?>
<svg version="1.1" viewBox="0 0 48 48" xmlns="http://www.w3.org/2000/svg">
    <path d="m11 6c-1.108 0-2 0.892-2 2v4c0 1.108 0.892 2 2 2h26c1.108 0 2-0.892 2-2v-4c0-1.108-0.892-2-2-2h-26zm24 2a2 2 0 0 1 2 2 2 2 0 0 1-2 2 2 2 0 0 1-2-2 2 2 0 0 1 2-2z" fill="#fff"/>
    <path d="m11 16.5c-1.108 0-2 0.892-2 2v4c0 1.108 0.892 2 2 2h26c1.108 0 2-0.892 2-2v-4c0-1.108-0.892-2-2-2h-26zm24 2a2 2 0 0 1 2 2 2 2 0 0 1-2 2 2 2 0 0 1-2-2 2 2 0 0 1 2-2z" fill="#fff"/>
    <path d="m11 27c-1.108 0-2 0.892-2 2v13c0 1.108 0.892 2 2 2h26c1.108 0 2-0.892 2-2v-13c0-1.108-0.892-2-2-2h-26zm24 2a2 2 0 0 1 2 2 2 2 0 0 1-2 2 2 2 0 0 1-2-2 2 2 0 0 1 2-2z" fill="#fff"/>
</svg>
