<?xml version="1.0" encoding="UTF-8" standalone="no"?>
<svg
   xmlns:dc="http://purl.org/dc/elements/1.1/"
   xmlns:cc="http://creativecommons.org/ns#"
   xmlns:rdf="http://www.w3.org/1999/02/22-rdf-syntax-ns#"
   xmlns:svg="http://www.w3.org/2000/svg"
   xmlns="http://www.w3.org/2000/svg"
   xmlns:sodipodi="http://sodipodi.sourceforge.net/DTD/sodipodi-0.dtd"
   xmlns:inkscape="http://www.inkscape.org/namespaces/inkscape"
   width="48"
   height="48"
   version="1.1"
   id="svg6"
   sodipodi:docname="airbnb.svg"
   inkscape:version="0.92.4 5da689c313, 2019-01-14">
  <metadata
     id="metadata12">
    <rdf:RDF>
      <cc:Work
         rdf:about="">
        <dc:format>image/svg+xml</dc:format>
        <dc:type
           rdf:resource="http://purl.org/dc/dcmitype/StillImage" />
        <dc:title></dc:title>
      </cc:Work>
    </rdf:RDF>
  </metadata>
  <defs
     id="defs10" />
  <sodipodi:namedview
     pagecolor="#ffffff"
     bordercolor="#666666"
     borderopacity="1"
     objecttolerance="10"
     gridtolerance="10"
     guidetolerance="10"
     inkscape:pageopacity="0"
     inkscape:pageshadow="2"
     inkscape:window-width="1250"
     inkscape:window-height="1397"
     id="namedview8"
     showgrid="false"
     inkscape:pagecheckerboard="true"
     inkscape:zoom="4.9166667"
     inkscape:cx="-30"
     inkscape:cy="24"
     inkscape:window-x="1290"
     inkscape:window-y="23"
     inkscape:window-maximized="0"
     inkscape:current-layer="svg6" />
  <path
     d="m 27.76213,21.884295 c -1.853,-1.4416 -3.98225,-1.64645 -6.15655,-0.59075 -1.36255,0.6613 -2.9478,2.09695 -2.76335,5.18755 0.2312,3.90575 2.3188,6.82125 4.5288,9.91015 l 0.82535,1.1526 0.697,-0.92055 c 1.91675,-2.53215 3.8471,-5.2853 4.5475,-8.653 0.3672,-1.76715 0.59245,-4.32055 -1.67875,-6.086 z m 0.0136,5.7409 c -0.5474,2.63245 -1.9924,4.9249 -3.54535,7.04395 -1.8598,-2.61885 -3.50625,-5.1646 -3.6924,-8.29005 -0.1054,-1.7765 0.4692,-2.90615 1.8088,-3.5564 0.66895,-0.3247 1.3192,-0.48705 1.94735,-0.48705 0.85,0 1.6609,0.2975 2.4242,0.88995 1.19,0.92565 1.5062,2.24145 1.0574,4.3996 z"
     style="fill:#ffffff"
     id="path2" />
  <path
     style="fill:#ffffff"
     d="m 30.618808,9.4065013 -1.36085,-2.77355 c -1.0132,-2.0672004 -2.8679,-3.3133004 -4.9623,-3.3328504 -2.142,0.0102 -4.05195,1.2206 -5.1306,3.3184004 -0.3247,0.6307 -0.6579,1.2563 -0.99195,1.8819 -0.5559,1.04295 -1.13135,2.1207497 -1.65495,3.2112997 -3.68475,7.6738 -7.0804997,14.79935 -10.3810501,21.78295 -0.9707,2.0536 -1.0064,4.21515 -0.10455,6.25175 0.8585004,1.93715 2.3910504,3.383 4.3146001,4.07235 0.7939,0.2839 1.6201,0.425 2.4514,0.425 1.18745,0 2.38595,-0.2873 3.5173,-0.85595 1.43735,-0.7242 2.6945,-1.7561 3.9117,-2.754 0.5304,-0.4352 1.0608,-0.8704 1.6048,-1.27925 1.42035,-1.0642 0.6375,-2.28055 0.33235,-2.754 -1.4042,-2.17855 -2.85685,-4.4319 -3.9865,-6.766 -1.09225,-2.2559 -1.3226,-4.5271 -0.68425,-6.74985 1.01405,-3.52835 4.79485,-5.5471 8.6037,-4.5968 3.5751,0.89165 5.7477,4.4591 5.05325,8.29855 -0.476,2.63415 -1.6201,5.185 -3.71025,8.26965 -0.13345,0.19635 -0.29325,0.4012 -0.45475,0.60775 -0.5882,0.7548 -1.25545,1.61075 -1.1084,2.53215 v 0.0017 c 0.15725,0.9741 1.0455,1.67705 1.83005,2.29585 0.1751,0.13855 0.34765,0.27455 0.5049,0.40885 1.97625,1.69235 4.22195,3.264 7.24795,3.30395 l 0.0629,8.5e-4 0.06205,-0.0085 c 0.1904,-0.0255 0.38335,-0.04505 0.57545,-0.06375 0.4692,-0.0459 0.9554,-0.0935 1.4467,-0.2312 2.1488,-0.60095 3.8964,-2.0689 4.7957,-4.0273 0.90695,-1.9771 0.8738,-4.2024 -0.0918,-6.2679 -3.7995,-8.11665 -7.8115,-16.2945 -11.6926,-24.2020497 z m 10.2408,29.7584997 c -0.6902,1.5045 -2.0417,2.63415 -3.70855,3.09995 -0.3485,0.0969 -0.74035,0.136 -1.1543,0.1768 -0.19125,0.0187 -0.3825,0.03825 -0.57205,0.06205 -2.31795,-0.05015 -4.1191,-1.1934 -6.1047,-2.89425 -0.1734,-0.1479 -0.3638,-0.2992 -0.5576,-0.45135 -0.4573,-0.36125 -1.1458,-0.90525 -1.20445,-1.2274 -0.0017,-0.23205 0.49895,-0.8755 0.76925,-1.2223 0.18615,-0.238 0.3689,-0.47345 0.5219,-0.69955 1.5011,-2.2151 3.3099,-5.23175 3.97545,-8.92075 0.8551,-4.73195 -1.85895,-9.1392 -6.31465,-10.25015 -4.70305,-1.173 -9.38145,1.3634 -10.6488,5.7766 -0.7463,2.60015 -0.4743,5.35245 0.78795,7.9594 1.1747,2.42675 2.6554,4.72515 4.097,6.96235 0.11985,0.1853 0.17085,0.29325 0.1938,0.3502 -0.02465,0.02465 -0.0646,0.06035 -0.12665,0.1071 -0.56355,0.42245 -1.1135,0.87295 -1.66345,1.32515 -1.19765,0.9826 -2.32815,1.9108 -3.5972,2.54915 -1.50365,0.7565 -3.14755,0.87975 -4.6308,0.34935 -1.4815497,-0.5304 -2.6655997,-1.6524 -3.3328497,-3.16115 -0.70635,-1.59375 -0.6766,-3.22065 0.0867,-4.8365 3.2988497,-6.98105 6.6928997,-14.1032 10.3759497,-21.77445 0.5083,-1.05825 1.0744,-2.1199 1.62265,-3.1466997 0.33745,-0.63325 0.67575,-1.2665 1.00385,-1.90485 0.77265,-1.5028 2.1046,-2.3961504 3.5683,-2.3961504 0.01105,0 0.02295,0 0.03485,0 1.43735,0.0136 2.72765,0.9035504 3.45185,2.3817004 l 1.3617,2.7743997 c 3.87685,7.90075 7.8863,16.07095 11.67985,24.1723 0.74885,1.6065 0.7803,3.32435 0.085,4.83905 z m 4.19475,-7.6058 c -2.3715,-5.1765 -5.03285,-10.7984 -8.37675,-17.69105 -1.41185,-2.90785 -3.07445,-6.2789497 -4.9487,-9.4826001 -1.25885,-2.1522 -3.21895,-3.64224999 -5.51905,-4.19559999 -2.2593,-0.54315 -4.61635,-0.1292 -6.63765,1.16364999 -1.9635,1.25715 -3.08125,3.1433 -3.91595,4.8220504 l -1.94735,3.9048997 c -2.19215,4.39025 -4.4582497,8.9301 -6.6257497,13.42745 l -0.05015,0.1037 c -1.5257504,3.1654 -3.1033504,6.4379 -4.3154504,9.80475 -1.85045001,5.1425 0.57885,10.76865 5.6499504,13.08745 3.8793997,1.7748 7.8905497,1.26735 11.9237997,-1.5113 1.09225,-0.7514 2.0961,-1.632 3.1586,-2.5653 0.2805,-0.24565 0.5678,-0.4981 0.8653,-0.75565 0.11815,0.1598 0.255,0.31705 0.4216,0.4556 0.34765,0.28985 0.69105,0.5865 1.0353,0.88485 1.0778,0.9333 2.193,1.89805 3.451,2.6452 2.12755,1.26395 4.2602,1.89635 6.341,1.89635 2.06125,0 4.07065,-0.6205 5.97125,-1.86235 4.6019,-3.00475 6.01545,-8.68445 3.519,-14.1321 z m -4.44805,12.71005 c -3.2844,2.1454 -6.8221,2.1216 -10.5145,-0.07225 -1.1288,-0.67065 -2.13775,-1.54445 -3.20705,-2.46925 -0.35275,-0.3043 -0.7038,-0.60945 -1.0608,-0.9061 -0.12325,-0.10285 -0.2516,-0.31535 -0.37485,-0.5219 -0.08245,-0.13685 -0.1632,-0.2703 -0.2499,-0.3927 l -0.5321,-0.76075 -0.7106,0.5967 c -0.578,0.48535 -1.1152,0.9554 -1.6286,1.40675 -1.06845,0.93755 -1.99155,1.7476 -3.00135,2.4429 -3.55555,2.448 -6.9088,2.89425 -10.2518497,1.3651 -4.2610504,-1.94905 -6.3061504,-6.66315 -4.7574504,-10.96585 1.18235,-3.28355 2.7404004,-6.51695 4.2474504,-9.64325 l 0.05015,-0.10285 c 2.1623997,-4.48715 4.4259497,-9.0219 6.6155497,-13.40705 l 1.9482,-3.9065997 c 0.731,-1.4713504 1.6966,-3.1144004 3.31075,-4.1471504 1.62775,-1.0421 3.519,-1.377 5.32355,-0.94265 1.84535,0.4437 3.4255,1.65155 4.4489,3.40085 1.84365,3.1509504 3.48925,6.4872001 4.8875,9.3661501 3.33795,6.8816 5.99505,12.49245 8.3606,17.65705 2.1641,4.726 1.02425,9.4367 -2.9036,12.00285 z"
     id="path4" />
</svg>
