<?xml version="1.0" encoding="UTF-8"?>
<svg version="1.1" viewBox="0 0 48 48" xmlns="http://www.w3.org/2000/svg">
    <path d="m5.5078 23.5a0.50005 0.50005 0 1 0 0 1h0.54297a2.0002 2.0002 0 0 1-0.019531-0.83203c0.0097454-0.057506 0.019551-0.11051 0.029297-0.16797h-0.55273zm4.6133 0c-0.048775 0.28602-0.097688 0.548-0.14648 0.83594a2.0002 2.0002 0 0 1-0.03125 0.16406h4.1094c-0.056985-0.33883-0.1149-0.6619-0.17188-1h-3.7598zm9.8789 0v1h1.8809c0.057787-0.34006 0.11391-0.65867 0.17188-1h-2.0527zm6.1211 0c-0.057796 0.34014-0.11586 0.6586-0.17383 1h2.0527v-1h-1.8789zm7.8262 0c0.056941 0.33886 0.11494 0.66186 0.17188 1h3.7617c0.048518-0.28454 0.095992-0.54561 0.14453-0.83203a2.0002 2.0002 0 0 1 0.033203-0.16797h-4.1113zm8 0a2.0002 2.0002 0 0 1 0.021484 0.83594c-0.009525 0.056205-0.019771 0.1079-0.029297 0.16406h0.55274a0.50005 0.50005 0 1 0 0-1h-0.54492z" color="#000000" color-rendering="auto" dominant-baseline="auto" fill="#fff" image-rendering="auto" shape-rendering="auto" solid-color="#000000" style="font-feature-settings:normal;font-variant-alternates:normal;font-variant-caps:normal;font-variant-ligatures:normal;font-variant-numeric:normal;font-variant-position:normal;isolation:auto;mix-blend-mode:normal;shape-padding:0;text-decoration-color:#000000;text-decoration-line:none;text-decoration-style:solid;text-indent:0;text-orientation:mixed;text-transform:none;white-space:normal"/>
    <path d="m12.096 8.0059c-0.50332-0.047362-0.97613 0.21419-1.2559 0.50195-0.55179 0.56764-0.807 1.2745-1.1211 2.2266-0.3141 0.95204-0.6137 2.1335-0.91406 3.4883-0.60073 2.7096-1.196 6.1119-1.7891 9.6113a1.0004 1.0004 0 1 0 1.9727 0.33398c0.59196-3.4931 1.1833-6.8783 1.7676-9.5137 0.29213-1.3177 0.58488-2.4491 0.86328-3.293 0.15396-0.46665 0.23349-0.54957 0.36328-0.80664 0.13698 0.26507 0.24259 0.39872 0.40625 0.88086 0.55612 1.6384 1.1513 4.3407 1.7402 7.6055 0.95274 5.2816 1.8809 11.474 2.8711 15.652v-10.834c-0.30241-1.7585-0.60425-3.5105-0.9043-5.1738-0.59606-3.3043-1.1856-6.0399-1.8145-7.8926-0.31444-0.92635-0.59711-1.6269-1.0859-2.1797-0.24441-0.27639-0.59629-0.56006-1.0996-0.60742zm15.83 0.099609c-0.46654 0.033983-0.8312 0.28285-1.0859 0.54297-0.50946 0.52023-0.79936 1.1864-1.1172 2.0859-0.31783 0.89955-0.62014 2.0298-0.92188 3.3945-1.2033 5.4426-2.3881 14.042-3.5547 19.312-0.29078 1.3136-0.58072 2.3802-0.85547 3.1582-0.1617 0.45786-0.26767 0.60094-0.39062 0.81055v2.4844c0.025682-4.25e-4 0.05031 0.00585 0.076172 0.003907 0.46684-0.035081 0.82972-0.2845 1.084-0.54492 0.50852-0.52085 0.79944-1.1882 1.1172-2.0879 0.31775-0.89972 0.62016-2.0276 0.92188-3.3906 1.2034-5.4367 2.388-14.038 3.5547-19.314 0.29077-1.3151 0.5808-2.3828 0.85547-3.1602 0.16178-0.45788 0.26788-0.59991 0.39062-0.80859v-2.4824c-0.025009 4.026e-4 -0.049034-0.0057407-0.074219-0.0039062zm3.0742 5.1992v10.836c0.30247 1.7593 0.60426 3.5116 0.9043 5.1758 0.59608 3.3061 1.1855 6.0414 1.8145 7.8926 0.31447 0.92558 0.59782 1.6235 1.0859 2.1758 0.24406 0.27615 0.594 0.56023 1.0957 0.60938s0.97506-0.21146 1.2559-0.49805c0.55585-0.5673 0.81083-1.2728 1.125-2.2246s0.6137-2.1329 0.91406-3.4883c0.60074-2.7109 1.196-6.1159 1.7891-9.6152a1.0004 1.0004 0 1 0-1.9727-0.33398c-0.59198 3.4931-1.1833 6.8811-1.7676 9.5176-0.29213 1.3183-0.58496 2.4498-0.86328 3.293-0.15413 0.46695-0.23178 0.54889-0.36133 0.80469-0.13728-0.26499-0.24383-0.40096-0.4082-0.88477-0.55606-1.6367-1.1513-4.3352-1.7402-7.6016-0.95267-5.2838-1.8807-11.481-2.8711-15.658z" color="#000000" color-rendering="auto" dominant-baseline="auto" fill="#fff" image-rendering="auto" shape-rendering="auto" solid-color="#000000" style="font-feature-settings:normal;font-variant-alternates:normal;font-variant-caps:normal;font-variant-ligatures:normal;font-variant-numeric:normal;font-variant-position:normal;isolation:auto;mix-blend-mode:normal;paint-order:stroke markers fill;shape-padding:0;text-decoration-color:#000000;text-decoration-line:none;text-decoration-style:solid;text-indent:0;text-orientation:mixed;text-transform:none;white-space:normal"/>
    <path d="m24 4c-3.324 0-6 2.4327-6 5.4545v29.091c0 3.0218 2.676 5.4545 6 5.4545s6-2.4327 6-5.4545v-29.091c0-3.0218-2.676-5.4545-6-5.4545zm0 0.90909c2.77 0 5 2.0273 5 4.5455v29.091c0 2.5182-2.23 4.5455-5 4.5455s-5-2.0273-5-4.5455v-29.091c0-2.5182 2.23-4.5455 5-4.5455z" fill="#fff" style="paint-order:stroke markers fill"/>
</svg>
