<?xml version="1.0" encoding="UTF-8"?>
<svg version="1.1" viewBox="0 0 48 48" xmlns="http://www.w3.org/2000/svg">
    <path d="m2.9993 23.5c-1.3324-0.016-1.3324 1.0157 0 0.99972l1.0007 1.38e-4c-0.15008-0.37999 0.11596-0.67107 0.28658-0.99986zm5.3167 0c-0.17358 0.34815-0.34364 0.6979-0.69238 0.99972h4.4664c-0.06539-0.3335-0.13534-0.66667-0.20674-0.99972zm7.4933 0c0.06837 0.33299 0.12936 0.66638 0.19309 0.99972h0.98494v-0.99972zm4.1738 0v0.99972h1.5349c0.24225-0.33366 0.49328-0.66563 0.73334-0.99972zm6.4148 0c-0.23936 0.33361-0.48329 0.66629-0.72359 0.99972h2.2975v-0.99972zm4.5697 0v0.99972h1.2502c-0.08196-0.33301-0.16368-0.6662-0.2399-0.99972zm4.9345 0c0.07833 0.33381 0.16697 0.66661 0.25355 0.99972h3.4834c0.16823-0.34709 0.33063-0.69633 0.66703-0.99972zm7.9735 0c0.20036 0.39882-0.06337 0.65618-0.21878 0.99972h1.3438c1.3324 0.016 1.3324-1.0157 0-0.99972z" color="#000000" color-rendering="auto" dominant-baseline="auto" fill="#fff" image-rendering="auto" shape-rendering="auto" solid-color="#000000" style="font-feature-settings:normal;font-variant-alternates:normal;font-variant-caps:normal;font-variant-ligatures:normal;font-variant-numeric:normal;font-variant-position:normal;isolation:auto;mix-blend-mode:normal;shape-padding:0;text-decoration-color:#000000;text-decoration-line:none;text-decoration-style:solid;text-indent:0;text-orientation:mixed;text-transform:none;white-space:normal"/>
    <path d="m31.01 6.3477c-0.89966 0.28912 0.23577 2.1883 0.0967 3.1755 1.8142 6.7706 2.7513 23.371 4.4642 26.841 0.50001 1.8174 3.0653 1.8659 3.6105 0.06354 1.3636-4.351 2.3993-7.3774 3.5723-11.481 0 0 0.793-2.6343-0.13868-2.922-0.94295-0.29115-1.7832 2.3634-1.7832 2.3634-1.0895 3.63-1.8352 6.6363-3.0272 10.233-0.65996 1.909-1.1324-1.4856-1.3926-2.3169-1.6129-7.6952-1.8106-15.607-3.3443-23.313-0.27892-1.0778-0.65276-2.6528-2.0576-2.6433zm-20.172 3.6816c-1.7503 0.28129-2.1825 2.3537-2.7736 3.7379-1.0876 3.2908-1.6626 5.5264-2.6698 8.8424 0 0-1.0844 3.0172 0.042299 3.343 1.1217 0.32432 1.8915-2.9483 1.8915-2.9483 1.1683-3.7436 1.7408-6.2848 3.1599-9.9438 0.71128-1.7247 0.96847 1.5735 1.2394 2.2461 1.4862 7.5316 1.5105 15.268 2.9667 22.802 0.01362 1.218 1.4557 3.517 2.4952 2.4823-0.22645-1.4254-0.12907-2.1973-0.63276-3.3542-1.4675-8.0034-1.3683-16.247-3.3054-24.173-0.38924-1.1962-0.8183-3.0603-2.4136-3.0342zm17.162 0.4082c-2.7752 7.0492-5.2116 14.228-8 21.273v5.2246c2.9471-6.855 5.389-13.913 8-20.9z" color="#000000" color-rendering="auto" dominant-baseline="auto" fill="#fff" image-rendering="auto" shape-rendering="auto" solid-color="#000000" style="font-feature-settings:normal;font-variant-alternates:normal;font-variant-caps:normal;font-variant-ligatures:normal;font-variant-numeric:normal;font-variant-position:normal;isolation:auto;mix-blend-mode:normal;shape-padding:0;text-decoration-color:#000000;text-decoration-line:none;text-decoration-style:solid;text-indent:0;text-orientation:mixed;text-transform:none;white-space:normal"/>
    <path d="m24 2c-3.324 0-6 2.676-6 6v32c0 3.324 2.676 6 6 6s6-2.676 6-6v-32c0-3.324-2.676-6-6-6zm0 1c2.77 0 5 2.23 5 5v32c0 2.77-2.23 5-5 5s-5-2.23-5-5v-32c0-2.77 2.23-5 5-5z" fill="#fff" style="paint-order:stroke markers fill"/>
</svg>
