<svg xmlns="http://www.w3.org/2000/svg" viewBox="0 0 48 48"><defs><style>.cls-1{fill:#fff;}</style></defs><g id="Layer_1" data-name="Layer 1"><path class="cls-1" d="M24,4A20,20,0,1,1,4,24,20,20,0,0,1,24,4m0-2A22,22,0,1,0,46,24,22,22,0,0,0,24,2Z"/><circle class="cls-1" cx="24" cy="24" r="3.51"/><rect class="cls-1" x="22.72" y="6.51" width="2.67" height="17.74"/><rect class="cls-1" x="29.42" y="20.03" width="2.67" height="15.47" transform="translate(-8.66 40.52) rotate(-60)"/><rect class="cls-1" x="15.58" y="19.45" width="1.38" height="17.66" transform="translate(-0.08 56.51) rotate(-120)"/><path class="cls-1" d="M13.9,17.88l-3-1.71c-.08.15-.17.29-.26.43l3,1.71C13.72,18.16,13.82,18,13.9,17.88Z"/><path class="cls-1" d="M18.31,13.64l-1.71-3c-.14.09-.28.18-.43.26l1.71,3C18,13.81,18.16,13.72,18.31,13.64Z"/><path class="cls-1" d="M34.36,18.31l3-1.71c-.08-.14-.17-.28-.25-.43l-3,1.71C34.18,18,34.28,18.16,34.36,18.31Z"/><path class="cls-1" d="M12.18,24c0-.08,0-.17,0-.25H8.78a1.57,1.57,0,0,0,0,.5h3.41C12.19,24.17,12.18,24.08,12.18,24Z"/><path class="cls-1" d="M30.12,13.9l1.71-3c-.15-.08-.29-.17-.43-.26l-1.71,3C29.84,13.72,30,13.82,30.12,13.9Z"/><path class="cls-1" d="M24,12.18h.25V8.78l-.25,0-.25,0v3.41Z"/><path class="cls-1" d="M13.64,29.69l-3,1.71c.09.14.18.28.26.43l3-1.71C13.81,30,13.72,29.84,13.64,29.69Z"/><path class="cls-1" d="M39.22,23.75H35.81c0,.08,0,.17,0,.25s0,.17,0,.25h3.41a1.57,1.57,0,0,0,0-.5Z"/><path class="cls-1" d="M34.1,30.12l3,1.71c.08-.15.17-.29.25-.43l-3-1.71C34.28,29.84,34.18,30,34.1,30.12Z"/><path class="cls-1" d="M24,35.82h-.25v3.41l.25,0,.25,0V35.81Z"/><path class="cls-1" d="M29.69,34.36l1.71,3c.14-.09.28-.18.43-.26l-1.71-3C30,34.19,29.84,34.28,29.69,34.36Z"/><path class="cls-1" d="M17.88,34.1l-1.71,3c.15.08.29.17.43.26l1.71-3C18.16,34.28,18,34.19,17.88,34.1Z"/></g></svg>