<?xml version="1.0" encoding="UTF-8"?>
<svg width="48" height="48" viewBox="0 0 48 48">
    <path d="m 8.6655768,6.9702194 h 2.1206892 l 4.611286,13.3714736 h -2.30721 L 12.074668,17.219436 H 7.331721 L 6.3035078,20.341693 H 4.001 L 8.6640094,6.9702194 Z m 8.3871472,0 h 2.231975 V 18.559561 h 6.263323 v 1.782132 h -8.495298 z m 10.393417,0 h 4.420063 c 1.697492,0 3.0721,0.5297806 4.130094,1.5877743 1.065831,1.0595612 1.601881,2.4216303 1.601881,4.0877743 v 2.029781 c 0,1.670846 -0.53605,3.032915 -1.601881,4.086206 -1.057994,1.053292 -2.432602,1.579938 -4.128527,1.579938 H 27.447708 V 6.9702194 Z m 12.783699,0 h 2.231975 V 20.341693 H 40.22984 Z M 29.678116,8.7601881 v 9.7993729 h 2.189655 c 1.070533,0 1.92163,-0.360501 2.551724,-1.083072 0.631662,-0.72884 0.946709,-1.661442 0.946709,-2.80094 v -2.04859 C 35.366204,11.5 35.051157,10.576803 34.419495,9.8526646 33.789401,9.1253918 32.938304,8.7601881 31.867771,8.7601881 Z M 9.69379,10.083072 7.9492759,15.354232 H 11.469652 L 9.7517837,10.083072 Z M 2.001,27.658307 h 10.429467 v 1.791536 H 8.2972382 V 41.029781 H 6.0683981 V 29.449843 H 2.001 Z m 14.713166,0 h 2.12069 l 4.609718,13.371474 h -2.304076 l -1.023511,-3.122257 h -4.735109 l -1.028213,3.122257 h -2.308778 z m 8.380878,0 h 2.231975 v 11.590909 h 6.263323 v 1.780565 H 25.096611 V 27.658307 Z m 10.399686,0 h 2.231975 v 5.666144 h 0.871474 l 4.344827,-5.666144 h 2.617555 l 0.02665,0.04702 -5.014107,6.280564 5.4279,7.043888 h -2.819749 l -4.362069,-5.785267 h -1.092477 v 5.785267 H 35.49473 Z m -17.755485,3.112853 -1.74138,5.272727 h 3.514107 L 17.792536,30.77116 h -0.05486 z" fill="#fff"/>
</svg>
