<?xml version="1.0" encoding="UTF-8" standalone="no"?>
<svg
   xmlns:dc="http://purl.org/dc/elements/1.1/"
   xmlns:cc="http://creativecommons.org/ns#"
   xmlns:rdf="http://www.w3.org/1999/02/22-rdf-syntax-ns#"
   xmlns:svg="http://www.w3.org/2000/svg"
   xmlns="http://www.w3.org/2000/svg"
   xmlns:sodipodi="http://sodipodi.sourceforge.net/DTD/sodipodi-0.dtd"
   xmlns:inkscape="http://www.inkscape.org/namespaces/inkscape"
   version="1.1"
   height="48"
   width="48"
   xml:space="preserve"
   >
     <g><g
       transform="translate(-28.540539,-17.42475)"><path
         d="m 3.1171875,3.0429688 c 0,0 -3.06640625,-0.01172 -3.06640625,3.0585937 V 37.207031 c 0,0 0.16108888,2.839844 3.13867185,2.839844 H 37.087891 c 0,0 2.96289,-0.02344 2.96289,-3.195313 V 5.9453125 c 0,0 -0.01172,-2.9023437 -3.378906,-2.9023437 z M 8.171875,12.679688 c 0,0 0.8710936,-0.01563 1.4941406,0.623046 0.6230474,0.638672 0.6230464,1.353516 0.6230464,1.353516 0,0 0.05469,0.640625 -0.25,1.152344 -0.3046875,0.511719 -0.4722589,0.544194 -0.4746089,0.583984 -0.0023,0.03979 0.052734,0.25586 0.052734,0.25586 0,0 0.210938,1.1875 0.6718749,2.160156 0.460938,0.972656 0.320313,0.757812 0.632813,1.257812 0.3125,0.5 0.3125,0.550782 0.671875,1.003906 0.359375,0.453126 0.742188,0.91797 1.050781,1.207032 0.308594,0.289063 0.511719,0.515624 0.882813,0.789062 0.371094,0.273437 0.550781,0.417969 0.792968,0.570313 0.242188,0.152344 0.992188,0.59375 1.277344,0.71875 0.285157,0.125 0.808594,0.34375 1.097656,0.441406 0.289063,0.09766 0.601563,0.195313 0.894532,0.261719 0.292969,0.06641 1.183594,0.222656 1.421875,0.238281 0.238281,0.01563 0.875,0.05859 0.984375,0.05859 0.109375,0 0.742187,-0.01172 1.183594,-0.06641 0.441406,-0.05469 1.078124,-0.164062 1.40625,-0.25 0.328124,-0.08594 1.25,-0.374999 1.644531,-0.558593 0.394529,-0.183586 -0.148438,0.105469 0.394531,-0.183594 0.542969,-0.289062 1.140625,-0.636719 1.433594,-0.851563 0.292969,-0.214843 -0.1875,0.164063 0.292968,-0.214843 0.480469,-0.378906 1.136719,-0.96875 1.410157,-1.269531 0.273437,-0.300782 0.574219,-0.644531 0.746093,-0.886719 0.171876,-0.242187 0.425782,-0.585938 0.59375,-0.878907 0.167969,-0.292968 0.535157,-0.95703 0.710938,-1.382812 0.175781,-0.425781 0.471283,-1.260992 0.597656,-1.839844 l 0.125,-0.580078 c 0,0 -0.3125,-0.306641 -0.429687,-0.513672 -0.117188,-0.207032 -0.292969,-0.640624 -0.292969,-0.957031 0,-0.316406 0.03125,-0.792969 0.246094,-1.121094 0.214844,-0.328125 0.214844,-0.332031 0.214844,-0.332031 0,0 0.628906,-0.785156 1.617187,-0.789062 0.988281,-0.0039 1.527344,0.617187 1.527344,0.617187 0,0 0.628906,0.660156 0.628906,1.367187 0,0.707032 -0.09375,0.851563 -0.199219,1.050782 -0.105468,0.199219 -0.359375,0.539062 -0.515625,0.667968 -0.15625,0.128907 -0.386719,0.273438 -0.386719,0.273438 0,0 -0.191406,1.011719 -0.238281,1.152344 -0.04687,0.140625 -0.3125,1.042969 -0.453125,1.410156 -0.140625,0.367188 -0.566406,1.429688 -1.082031,2.230469 -0.515625,0.800781 -0.988281,1.449218 -1.359375,1.851562 -0.371094,0.402343 -1.246094,1.394532 -2.261719,2.054688 -1.015625,0.660156 -1.488281,1.011719 -2.429687,1.375 -0.941406,0.363281 -1.242188,0.480468 -1.71875,0.601562 -0.476563,0.121093 -2.15625,0.507813 -3.402344,0.441407 -1.246094,-0.06641 -1.859375,-0.07031 -2.859375,-0.332032 -1,-0.261719 -1.828125,-0.511718 -2.523437,-0.867187 C 13.921875,26.21875 13.128906,25.8125 12.546875,25.355469 11.964844,24.898438 10.945312,24.109375 10.289062,23.304688 9.6328125,22.5 8.96875,21.609374 8.609375,20.894531 8.25,20.179687 7.8554692,19.316407 7.7382812,18.953125 c -0.117187,-0.363281 -0.3125,-0.976562 -0.40625,-1.40625 -0.09375,-0.429687 -0.1777343,-0.890625 -0.1777343,-0.890625 0,0 -0.3007821,-0.189453 -0.3925781,-0.273438 -0.0918,-0.08398 -0.031251,-0.04687 -0.087891,-0.08789 -0.05664,-0.04102 -0.3964839,-0.498048 -0.4667969,-0.697266 -0.07031,-0.199219 -0.1601562,-0.496094 -0.1601562,-0.75 0,-0.253907 0.0625,-0.742188 0.2578125,-1.046875 0.195312,-0.304688 0.4687507,-0.636718 0.7148437,-0.773437 0.246094,-0.136719 0.6132818,-0.347656 1.1523441,-0.347656 z"
         style="fill:#ffffff;fill-opacity:1;stroke:#ffffff;stroke-width:0.1;stroke-linecap:butt;stroke-linejoin:miter;stroke-miterlimit:4;stroke-dasharray:none;stroke-opacity:1"
         transform="translate(28.625781,18.102339)"
         /><path
         d="m 31.67569,20.15186 h 34 c 0,0 -0.0847,-1.999516 -1.999516,-1.999516 -1.914816,0 -30.000968,0 -30.000968,0 0,0 -1.900563,-0.01716 -1.999516,1.999516 z"
         style="fill:#ffffff;fill-opacity:1;stroke:#ffffff;stroke-width:0.1;stroke-linecap:butt;stroke-linejoin:miter;stroke-miterlimit:4;stroke-dasharray:none;stroke-opacity:1"
         /></g></g></svg>
