<svg height="48" width="48">
   <path
     d="m 3.7303636,3.6427785 c 0,0 -3.67051091,-0.014365 -3.67051091,3.6614498 V 44.540501 c 0,0 0.19282458,3.399646 3.75701331,3.399646 h 40.576681 c 0,0 3.546601,-0.02874 3.546601,-3.825094 V 7.1171216 c 0,0 -0.01403,-3.4743431 -4.044576,-3.4743431 z M 9.7808618,15.178872 c 0,0 1.0427052,-0.01916 1.7884972,0.745793 0.745792,0.764588 0.745791,1.620395 0.745791,1.620395 0,0 0.06547,0.766862 -0.299251,1.379418 -0.364714,0.612557 -0.565298,0.651462 -0.568111,0.699107 -0.0028,0.04788 0.06313,0.306218 0.06313,0.306218 0,0 0.252494,1.421556 0.804239,2.585976 0.551747,1.164419 0.383418,0.907161 0.757482,1.505712 0.374065,0.598549 0.374065,0.659362 0.804239,1.201769 0.430175,0.542405 0.888405,1.098937 1.257793,1.444899 0.369389,0.346082 0.612532,0.617344 1.056734,0.944631 0.444202,0.327288 0.659289,0.500388 0.949188,0.682706 0.289901,0.182438 1.187657,0.710838 1.528991,0.860476 0.341334,0.149638 0.967892,0.411443 1.313902,0.5284 0.34601,0.117319 0.720075,0.233793 1.070762,0.313281 0.350685,0.079 1.41677,0.266594 1.701995,0.285269 0.285223,0.01916 1.04738,0.07063 1.178303,0.07063 0.130923,0 0.888404,-0.01437 1.416771,-0.07902 0.528367,-0.06584 1.290523,-0.196444 1.683291,-0.299275 0.392768,-0.102951 1.496259,-0.448913 1.968516,-0.668701 0.472254,-0.219786 -0.177681,0.126176 0.472257,-0.219786 0.649937,-0.346082 1.365337,-0.762314 1.716022,-1.019451 0.350687,-0.257137 -0.224439,0.196444 0.350686,-0.257137 0.575124,-0.453582 1.36066,-1.159751 1.687968,-1.519838 0.327305,-0.360087 0.687344,-0.771531 0.893079,-1.061468 0.205736,-0.289939 0.509664,-0.701382 0.710723,-1.052132 0.201059,-0.35075 0.640586,-1.145625 0.850998,-1.65535 0.21041,-0.509724 0.564128,-1.509543 0.715398,-2.202544 l 0.149626,-0.694317 c 0,0 -0.374065,-0.367151 -0.514339,-0.614951 -0.140275,-0.2478 -0.350685,-0.766862 -0.350685,-1.145626 0,-0.378761 0.0374,-0.949299 0.294576,-1.342068 0.25717,-0.392888 0.25717,-0.397557 0.25717,-0.397557 0,0 0.752805,-0.939843 1.935785,-0.944511 1.182979,0 1.828241,0.73885 1.828241,0.73885 0,0 0.752805,0.790205 0.752805,1.636674 0,0.846351 -0.112218,1.019332 -0.238466,1.257794 -0.126246,0.238582 -0.430175,0.645356 -0.617206,0.799663 -0.187033,0.154306 -0.462907,0.327287 -0.462907,0.327287 0,0 -0.229114,1.211226 -0.285224,1.379538 -0.05611,0.168311 -0.374064,1.248575 -0.542394,1.688031 -0.168329,0.439575 -0.677992,1.711494 -1.295198,2.67013 -0.617208,0.958638 -1.18298,1.734837 -1.627182,2.216551 -0.444203,0.481593 -1.491584,1.669356 -2.707295,2.459682 -1.215711,0.790205 -1.781483,1.211106 -2.908353,1.646012 -1.12687,0.434787 -1.486909,0.575086 -2.057356,0.720056 -0.57045,0.144968 -2.581048,0.607886 -4.072631,0.528399 -1.491584,-0.079 -2.225686,-0.08379 -3.422693,-0.397437 C 19.319522,32.53777 18.32825,32.238494 17.495956,31.812925 16.663661,31.387476 15.714471,30.901094 15.017776,30.35402 14.321077,29.806834 13.100689,28.862323 12.315153,27.899016 11.529617,26.935709 10.73473,25.869573 10.304556,25.013766 9.874378,24.15808 9.4021217,23.124623 9.2618468,22.689716 9.1215731,22.254811 8.887782,21.520749 8.7755625,21.006355 8.6633431,20.491961 8.5628133,19.940218 8.5628133,19.940218 c 0,0 -0.3600384,-0.226851 -0.4699189,-0.327407 C 7.9830091,19.512255 8.0554864,19.556546 7.9876882,19.507465 7.9198898,19.458385 7.5130941,18.911309 7.4289289,18.672847 7.344767,18.434264 7.2372207,18.078965 7.2372207,17.775021 c 0,-0.304063 0.074813,-0.888488 0.3086036,-1.253244 0.2337899,-0.364756 0.561098,-0.762193 0.8556731,-0.925956 0.2945763,-0.163644 0.7341028,-0.416112 1.3793644,-0.416112 z"
     style="fill:#ffffff;fill-opacity:1;stroke:#ffffff;stroke-width:0.11970537;stroke-linecap:butt;stroke-linejoin:miter;stroke-miterlimit:4;stroke-dasharray:none;stroke-opacity:1;image-rendering:auto"
     /><path
     d="M 3.6498307,2.4535793 H 44.348081 c 0,0 -0.101386,-2.39372103 -2.393435,-2.39372103 -2.292049,0 -35.9113799,0 -35.9113799,0 0,0 -2.2749878,-0.020351 -2.3934354,2.39372103 z"
     style="fill:#ffffff;fill-opacity:1;stroke:#ffffff;stroke-width:0.11970537;stroke-linecap:butt;stroke-linejoin:miter;stroke-miterlimit:4;stroke-dasharray:none;stroke-opacity:1"
     /></svg>
