<?xml version="1.0" encoding="UTF-8" standalone="no"?>
<svg
   xmlns:dc="http://purl.org/dc/elements/1.1/"
   xmlns:cc="http://creativecommons.org/ns#"
   xmlns:rdf="http://www.w3.org/1999/02/22-rdf-syntax-ns#"
   xmlns:svg="http://www.w3.org/2000/svg"
   xmlns="http://www.w3.org/2000/svg"
   xmlns:sodipodi="http://sodipodi.sourceforge.net/DTD/sodipodi-0.dtd"
   xmlns:inkscape="http://www.inkscape.org/namespaces/inkscape"
   viewBox="0 0 48 48"
   version="1.1"
   id="svg4"
   sodipodi:docname="alipay.svg"
   inkscape:version="0.92.4 (fd57863, 2020-04-02)">
  <metadata
     id="metadata10">
    <rdf:RDF>
      <cc:Work
         rdf:about="">
        <dc:format>image/svg+xml</dc:format>
        <dc:type
           rdf:resource="http://purl.org/dc/dcmitype/StillImage" />
      </cc:Work>
    </rdf:RDF>
  </metadata>
  <defs
     id="defs8" />
  <sodipodi:namedview
     pagecolor="#ffffff"
     bordercolor="#666666"
     borderopacity="1"
     objecttolerance="10"
     gridtolerance="10"
     guidetolerance="10"
     inkscape:pageopacity="0"
     inkscape:pageshadow="2"
     inkscape:window-width="1920"
     inkscape:window-height="1015"
     id="namedview6"
     showgrid="false"
     inkscape:snap-bbox="false"
     inkscape:object-paths="true"
     inkscape:snap-intersection-paths="true"
     inkscape:snap-smooth-nodes="true"
     inkscape:snap-midpoints="true"
     inkscape:zoom="11.247659"
     inkscape:cx="20.503678"
     inkscape:cy="27.593994"
     inkscape:window-x="0"
     inkscape:window-y="28"
     inkscape:window-maximized="1"
     inkscape:current-layer="svg4" />
  <path
     style="fill:#ffffff;fill-opacity:1"
     d="M 7 5 C 5.892 5 5 5.892 5 7 L 5 41 C 5 42.108 5.892 43 7 43 L 41 43 C 42.108 43 43 42.108 43 41 L 43 36.78125 C 38.322494 34.789597 32.758075 32.408082 27.765625 30.246094 C 24.418242 34.550007 20.570697 36.794247 15.46875 36.773438 C 11.087494 36.755558 7.4480219 34.361201 7.4511719 30.148438 C 7.4543219 25.935674 11.222886 23.132919 15.003906 23.265625 C 18.677806 23.397427 21.4082 23.956108 26.351562 25.523438 C 27.297868 24.005467 28.023128 22.438661 28.445312 20.324219 L 13.757812 20.324219 L 13.757812 18.863281 L 21.394531 18.863281 L 21.394531 16.183594 L 12.009766 16.183594 L 12.009766 14.671875 L 21.394531 14.671875 L 21.394531 10.664062 C 21.394905 10.388751 21.605031 10.158949 21.878906 10.130859 L 25.695312 10.130859 L 25.695312 14.671875 L 34.898438 14.671875 L 34.898438 16.183594 L 25.695312 16.183594 L 25.695312 18.863281 L 33.234375 18.863281 C 32.481237 21.622539 31.644693 23.92656 30.160156 26.761719 C 36.066352 28.721497 40.53598 30.343053 43 31.214844 L 43 7 C 43 5.892 42.108 5 41 5 L 7 5 z M 14.691406 25.724609 C 11.003413 25.753399 8.8105467 27.608513 8.8105469 29.933594 C 8.8105471 32.513506 11.443526 34.259766 14.691406 34.259766 C 18.935433 34.259766 22.601502 31.289765 24.431641 28.617188 C 22.453883 27.588016 18.981697 25.691109 14.691406 25.724609 z "
     id="rect2-6" />
</svg>
