<?xml version="1.0" encoding="UTF-8" standalone="no"?>
<svg
   xmlns:dc="http://purl.org/dc/elements/1.1/"
   xmlns:cc="http://creativecommons.org/ns#"
   xmlns:rdf="http://www.w3.org/1999/02/22-rdf-syntax-ns#"
   xmlns:svg="http://www.w3.org/2000/svg"
   xmlns="http://www.w3.org/2000/svg"
   xmlns:sodipodi="http://sodipodi.sourceforge.net/DTD/sodipodi-0.dtd"
   xmlns:inkscape="http://www.inkscape.org/namespaces/inkscape"
   width="48"
   height="48"
   viewBox="0 0 48 48"
   version="1.1"
   id="svg165"
   sodipodi:docname="altcoinprices.svg"
   inkscape:version="0.92.5 (2060ec1f9f, 2020-04-08)">
  <metadata
     id="metadata171">
    <rdf:RDF>
      <cc:Work
         rdf:about="">
        <dc:format>image/svg+xml</dc:format>
        <dc:type
           rdf:resource="http://purl.org/dc/dcmitype/StillImage" />
        <dc:title />
      </cc:Work>
    </rdf:RDF>
  </metadata>
  <defs
     id="defs169" />
  <sodipodi:namedview
     pagecolor="#ffffff"
     bordercolor="#666666"
     borderopacity="1"
     objecttolerance="10"
     gridtolerance="10"
     guidetolerance="10"
     inkscape:pageopacity="0"
     inkscape:pageshadow="2"
     inkscape:window-width="1366"
     inkscape:window-height="768"
     id="namedview167"
     showgrid="false"
     inkscape:zoom="3.4766083"
     inkscape:cx="-14.111857"
     inkscape:cy="-6.568347"
     inkscape:window-x="0"
     inkscape:window-y="0"
     inkscape:window-maximized="0"
     inkscape:current-layer="svg165" />
  <path
     style="fill:#ffffff;stroke-width:0.25162962;stroke:none"
     d="M 20.308704,45.755619 C 12.828984,44.327081 7.0782885,39.892603 3.9608505,33.149424 0.74073947,26.18422 1.5396815,17.488574 5.9673565,11.310575 7.2503305,9.5204029 9.9887997,6.8300229 11.746595,5.6327949 17.808676,1.5039427 26.419768,0.8272877 33.179579,3.9485987 c 2.459604,1.1357012 3.905031,2.1451792 6.138175,4.2868402 3.014714,2.8911821 5.014223,6.2739821 6.105876,10.3299781 0.76769,2.852345 0.768388,7.959619 0.0027,10.816759 -2.179117,8.118087 -8.320796,14.138998 -16.425075,16.102116 -2.294736,0.555856 -6.512159,0.687516 -8.691285,0.271327 z m -6.734542,-9.193794 c 2.325419,-1.062651 5.093489,-2.978786 6.774411,-4.689439 1.45406,-1.479788 1.569493,-1.543537 3.102689,-1.713814 3.473329,-0.385746 6.532547,-1.869218 8.803521,-4.268957 3.191518,-3.372488 5.071843,-7.910783 5.080275,-12.261558 0.0048,-2.471892 -0.15928,-2.619374 -2.869005,-2.578534 -4.454153,0.06714 -9.643793,2.384203 -12.556494,5.606235 -0.893282,0.988177 -0.990995,1.029226 -2.449384,1.029226 -1.712161,0 -2.880784,0.408256 -3.687505,1.28823 -0.64754,0.706346 -4.515117,7.925622 -4.752627,8.871331 -0.115029,0.458051 -0.05256,0.695195 0.209621,0.795746 0.205443,0.07878 1.814278,-0.493949 3.575244,-1.272731 1.76094,-0.778782 3.250844,-1.366864 3.310901,-1.306854 0.06006,0.06001 -0.662996,0.88849 -1.60677,1.841067 -0.943774,0.952575 -2.162867,2.411146 -2.709121,3.241269 -1.382575,2.101144 -2.890349,5.158458 -2.890349,5.860798 0,0.694091 0.280099,0.647629 2.664593,-0.442015 z M 27.85057,21.482328 c -1.778712,-1.112555 -1.589881,-3.904445 0.31793,-4.701095 1.12299,-0.46893 2.124832,-0.283085 2.95695,0.548533 2.224788,2.223433 -0.610766,5.818934 -3.27488,4.152562 z m 4.441214,-5.319527 c -0.694988,-0.694563 -0.388585,-1.886519 0.516276,-2.008333 0.881051,-0.118612 1.285896,0.04511 1.551346,0.627358 0.22583,0.495354 0.198546,0.745904 -0.137055,1.257762 -0.506711,0.772864 -1.234069,0.819286 -1.930567,0.123209 z m -7.491095,19.238828 c 4.625993,-2.503558 5.382622,-3.076001 5.73325,-4.337645 0.273832,-0.985311 0.347959,-2.310691 0.129226,-2.310691 -0.07219,0 -0.570141,0.290267 -1.106577,0.645037 -1.278343,0.845459 -4.129527,1.797802 -6.02347,2.011946 L 22.0225,31.581079 20.845947,34.30145 c -0.647114,1.496203 -1.102023,2.840927 -1.01088,2.988277 0.318661,0.515295 1.011409,0.251892 4.965622,-1.888098 z"
     id="path84"
     inkscape:connector-curvature="0" />
</svg>
