<svg viewBox="0 0 48 48" xmlns="http://www.w3.org/2000/svg">
    <defs>
        <style>.cls-1{fill:#fff;fill-rule:evenodd;}</style>
    </defs>
    <path class="cls-1" d="M 2,2.4613295 V 6.845353 h 4.4595094 l 7.9086626,16.679611 -2.973007,5.379865 c -0.355461,0.646465 -0.53882,1.372983 -0.534212,2.110717 0.03976,2.405207 1.978816,4.347163 4.384024,4.386927 H 41.601375 V 31.015546 H 16.197267 c -0.307277,0.0087 -0.560253,-0.241451 -0.551631,-0.548728 l 0.07549,-0.267106 1.962648,-3.582705 h 16.351532 c 1.595786,0.0063 3.067363,-0.862814 3.835296,-2.261691 L 45.732809,10.099982 C 45.911472,9.7771191 46.003186,9.4150621 45.999916,9.0460731 45.991816,7.8344071 45.013764,6.8535288 43.802097,6.845353 H 11.261612 L 9.1944434,2.4613295 Z m 24.178904,7.5631665 a 5.083841,5.083841 0 0 1 3.30689,1.103263 c 1.070283,1.010822 0.981324,2.316855 0.981324,3.803358 v 3.449152 a 2.9730065,2.9730065 0 0 0 0.772285,2.110718 0.43108594,0.43108594 0 0 1 0,0.595183 l -1.69264,1.486503 a 0.44595097,0.44595097 0 0 1 -0.522598,0 5.3068165,5.3068165 0 0 1 -1.277464,-1.486503 4.3257244,4.3257244 0 0 1 -3.640772,1.605539 3.1365218,3.1365218 0 0 1 -3.315599,-3.434635 3.7905832,3.7905832 0 0 1 2.363308,-3.626255 15.816394,15.816394 0 0 1 4.177888,-0.786802 v -0.284525 a 2.9730065,2.9730065 0 0 0 -0.267107,-1.60554 1.4865032,1.4865032 0 0 0 -1.251334,-0.577762 1.6797486,1.6797486 0 0 0 -1.768126,1.321014 0.49054607,0.49054607 0 0 1 -0.386141,0.418079 l -2.154269,-0.238074 a 0.38649084,0.38649084 0 0 1 -0.328076,-0.461628 c 0.490546,-2.60138 2.854202,-3.388182 4.950172,-3.388182 a 5.083841,5.083841 0 0 1 0.05226,-0.0029 z m 1.225204,6.616681 c -1.605423,-10e-7 -3.283661,0.341896 -3.283661,2.229755 0,0.951362 0.491125,1.60554 1.338432,1.60554 a 1.7986689,1.7986689 0 0 0 1.486504,-1.010359 4.3703195,4.3703195 0 0 0 0.415175,-2.348791 z M 15.102713,36.61316 c -1.059933,0.02659 -2.132878,0.434432 -3.010749,1.312304 -2.8091896,2.80919 -0.820263,7.612523 3.153013,7.612523 2.462919,0 4.45951,-1.996591 4.45951,-4.45951 0,-2.731626 -2.269919,-4.523804 -4.601774,-4.465317 z m 21.87076,0 c -1.063267,0.03258 -2.136389,0.452157 -3.01075,1.341337 -2.797952,2.845375 -0.735898,7.650008 3.25463,7.58349 2.451196,3.52e-4 4.42557,-2.008666 4.384022,-4.45951 -3.8e-4,-2.743869 -2.288714,-4.536983 -4.627902,-4.465317 z"/>
</svg>
