<svg xmlns="http://www.w3.org/2000/svg" viewBox="0 0 48 48"><defs><style>.cls-1{fill:#fff;fill-rule:evenodd;}</style></defs><title>amazonshopping</title><g id="Layer_1" data-name="Layer 1"><path class="cls-1" d="M24,2A22,22,0,1,0,46,24,22,22,0,0,0,24,2ZM16.68,41.12a3,3,0,1,1,3-3A3,3,0,0,1,16.68,41.12Zm14.78,0a3,3,0,1,1,2.95-3A2.95,2.95,0,0,1,31.46,41.12Zm5.73-23.84L31.9,26.87a2.93,2.93,0,0,1-2.58,1.52h-11L17,30.8l-.05.18a.36.36,0,0,0,.37.37H34.41V34.3H16.68a3,3,0,0,1-2.95-2.95,2.91,2.91,0,0,1,.36-1.42l2-3.62L10.77,15.09h-3V12.14h4.84L14,15.09H35.89a1.49,1.49,0,0,1,1.48,1.48A1.44,1.44,0,0,1,37.19,17.28Z"/><path class="cls-1" d="M26.92,22.85V20.53c0-1,.06-1.88-.66-2.56A3.42,3.42,0,0,0,24,17.23c-1.41,0-3,.53-3.33,2.28a.26.26,0,0,0,.22.31l1.45.16a.33.33,0,0,0,.26-.28,1.13,1.13,0,0,1,1.19-.89,1,1,0,0,1,.84.39,2,2,0,0,1,.18,1.08v.19A10.64,10.64,0,0,0,22,21a2.55,2.55,0,0,0-1.59,2.44,2.11,2.11,0,0,0,2.23,2.31,2.91,2.91,0,0,0,2.45-1.08,3.57,3.57,0,0,0,.86,1,.3.3,0,0,0,.35,0h0l1.14-1a.29.29,0,0,0,0-.4A2,2,0,0,1,26.92,22.85ZM24.83,22a2.94,2.94,0,0,1-.28,1.58,1.21,1.21,0,0,1-1,.68c-.57,0-.9-.44-.9-1.08,0-1.27,1.13-1.5,2.21-1.5Z"/></g></svg>