<svg viewBox="0 0 48 48" xmlns="http://www.w3.org/2000/svg">
    <path d="m 20.647315,2.0000002 h 6.705563 c 0.905719,0 1.633782,0.7280902 1.633782,1.633782 v 1.0643697 c 3.131052,0.8029265 6.02137,2.3512183 8.424495,4.5129276 l 1.17347,-1.1734701 -3.137183,-3.0840496 c 1.041387,-1.0558821 2.465796,-1.6452261 3.948761,-1.633782 1.063103,0.0103 2.100265,0.3292223 2.985549,0.9180214 l 0.335271,-0.3352713 c 0.18474,-0.1912119 0.436742,-0.3028873 0.702477,-0.3113341 0.932204,-0.029356 1.413347,1.1029118 0.745066,1.7535363 l -0.319318,0.3193177 c 1.513346,2.1621181 1.272993,5.0953512 -0.572096,6.9822652 L 40.040193,9.4692122 38.856082,10.655979 c 3.329962,3.676963 5.177776,8.458283 5.186086,13.419029 -0.0016,5.380772 -2.16675,10.534842 -6.008426,14.302404 l 2.671517,4.611429 c 1.362938,2.290864 -2.111029,4.302301 -3.419335,1.979693 L 34.915087,40.87863 c -3.248763,2.111982 -7.040167,3.236774 -10.915086,3.238409 -3.876145,-0.0018 -7.668503,-1.127612 -10.91781,-3.240998 l -2.368249,4.092493 C 9.4057315,47.291006 5.9318058,45.279678 7.2946078,42.988841 L 9.9635362,38.374824 C 6.1236308,34.607398 3.9594691,29.454418 3.9578342,24.075144 3.9703546,19.116169 5.8210432,14.337847 9.1519585,10.664017 L 7.9572077,9.4692667 4.7268371,12.646368 C 2.8817479,10.759453 2.6414218,7.8262204 4.1547409,5.6641023 L 3.8354232,5.3447846 C 3.1792265,4.7049502 3.6320451,3.5915207 4.5485543,3.5912483 c 0.2768656,0 0.5418919,0.112347 0.7344117,0.3113341 L 5.6155807,4.2351971 C 6.5018584,3.6468475 7.5400974,3.3288241 8.6038541,3.3198323 10.086819,3.3084018 11.511338,3.8977595 12.552615,4.9536143 L 9.4154317,8.0376639 10.599542,9.2217743 C 12.996673,7.0510732 15.883448,5.4926315 19.01341,4.6795552 V 3.6338094 c 0,-0.905719 0.728091,-1.633782 1.633782,-1.633782 z m 3.352714,6.2770906 C 15.27499,8.2768279 8.2017165,15.349955 8.2017165,24.075403 8.2014535,32.800442 15.274581,39.873715 24.000029,39.873715 32.725067,39.873978 39.798341,32.800851 39.798341,24.075403 39.798604,15.350364 32.725476,8.2770908 24.000029,8.2770908 Z m 0,2.1527172 c 0.376211,0 0.681196,0.304986 0.681196,0.681197 0,0.376211 -0.304985,0.681197 -0.681196,0.681197 -0.376212,0 -0.681197,-0.304986 -0.681197,-0.681197 0,-0.376211 0.304985,-0.681197 0.681197,-0.681197 z m -0.008,2.240456 c 0.269196,-0.0042 0.4885,0.215095 0.48429,0.48429 v 8.419182 c 1.201236,0.228432 2.070429,1.278551 2.070293,2.501217 3.75e-4,1.406535 -1.139955,2.546858 -2.546449,2.54645 -0.439236,-2.8e-5 -0.870992,-0.113692 -1.253293,-0.329958 l -6.907742,6.907742 c -0.642042,0.668622 -1.631875,-0.321225 -0.963253,-0.963253 l 6.910467,-6.910467 c -0.216743,-0.381266 -0.33132,-0.812068 -0.332615,-1.250636 0.0011,-1.221713 0.869997,-2.270292 2.070157,-2.498629 v -8.421771 c -0.0041,-0.262941 0.205394,-0.479603 0.468323,-0.48429 z m 0.008,23.666133 c 0.376211,0 0.681196,0.304986 0.681196,0.681197 0,0.376211 -0.304985,0.681196 -0.681196,0.681196 -0.376212,0 -0.681197,-0.304985 -0.681197,-0.681196 0,-0.376211 0.304985,-0.681197 0.681197,-0.681197 z" fill="#fff"/>
</svg>
