<?xml version="1.0" encoding="UTF-8" standalone="no"?>
<!-- Created with Inkscape (http://www.inkscape.org/) -->

<svg
   xmlns:dc="http://purl.org/dc/elements/1.1/"
   xmlns:cc="http://creativecommons.org/ns#"
   xmlns:rdf="http://www.w3.org/1999/02/22-rdf-syntax-ns#"
   xmlns:svg="http://www.w3.org/2000/svg"
   xmlns="http://www.w3.org/2000/svg"
   xmlns:sodipodi="http://sodipodi.sourceforge.net/DTD/sodipodi-0.dtd"
   xmlns:inkscape="http://www.inkscape.org/namespaces/inkscape"
   width="48px"
   height="48px"
   viewBox="0 0 48 48"
   version="1.1"
   id="SVGRoot"
   inkscape:version="0.92.3 (2405546, 2018-03-11)"
   sodipodi:docname="amongus.svg">
  <sodipodi:namedview
     id="base"
     pagecolor="#ffffff"
     bordercolor="#666666"
     borderopacity="1.0"
     inkscape:pageopacity="0.0"
     inkscape:pageshadow="2"
     inkscape:zoom="3.7712362"
     inkscape:cx="24.779946"
     inkscape:cy="25.671732"
     inkscape:document-units="px"
     inkscape:current-layer="layer1"
     showgrid="false"
     inkscape:window-width="1024"
     inkscape:window-height="581"
     inkscape:window-x="0"
     inkscape:window-y="19"
     inkscape:window-maximized="1"
     inkscape:grid-bbox="true"
     inkscape:pagecheckerboard="true" />
  <defs
     id="defs26" />
  <metadata
     id="metadata29">
    <rdf:RDF>
      <cc:Work
         rdf:about="">
        <dc:format>image/svg+xml</dc:format>
        <dc:type
           rdf:resource="http://purl.org/dc/dcmitype/StillImage" />
        <dc:title></dc:title>
      </cc:Work>
    </rdf:RDF>
  </metadata>
  <g
     id="layer1"
     inkscape:groupmode="layer"
     inkscape:label="Capa 1" />
  <g
     inkscape:groupmode="layer"
     id="layer2"
     inkscape:label="Capa 2"
     style="opacity:1">
    <path
       style="fill:#ffffff;stroke:none;stroke-width:0.18174262;stroke-linecap:butt;stroke-linejoin:miter;stroke-miterlimit:4;stroke-dasharray:none;stroke-opacity:1"
       d="m 22.849511,13.847225 c 0.928164,0.97492 2.297917,1.104214 1.5346,6.846032 -0.686857,1.438949 -1.633468,3.02348 -4.49,4.507017 -4.75894,1.185491 -9.304899,0.692825 -14.0638384,-1.976948 -4.5072785,-3.461242 -0.7174328,-9.139463 4.2167824,-10.060036 4.616514,-0.48573 8.978776,-0.756744 12.802456,0.683935 z"
       id="path73"
       inkscape:connector-curvature="0"
       sodipodi:nodetypes="cccccc" />
    <path
       style="fill:#ffffff;stroke:none;stroke-width:0.09087131;stroke-linecap:butt;stroke-linejoin:miter;stroke-miterlimit:4;stroke-dasharray:none;stroke-opacity:1"
       d="m 10.912246,9.5953163 c 1.407317,-1.7253401 2.619859,-3.4461491 8.774761,-5.2818957 l 6.304197,0.1703836 c 3.910743,0.3084538 5.657076,2.708244 7.241308,7.2413078 0.71314,2.63618 0.820631,5.277951 1.703836,7.582074 l 0.08519,23.598144 H 6.652654 C 5.4345488,37.780131 6.0383254,32.427205 6.588756,27.080943 c 6.868591,2.755317 12.726502,1.668771 17.613416,-0.873217 2.960719,-2.833155 4.00205,-6.171308 3.492865,-10.563786 -1.394379,-2.114131 -1.339351,-3.478889 -5.452279,-5.537474 L 16.790484,9.5101242 Z"
       id="path883"
       inkscape:connector-curvature="0"
       sodipodi:nodetypes="ccccccccccccc" />
    <path
       style="fill:#ffffff;stroke:none;stroke-width:0.09087131;stroke-linecap:butt;stroke-linejoin:miter;stroke-miterlimit:4;stroke-dasharray:none;stroke-opacity:1"
       d="m 38.028412,42.861479 c 0.535557,-7.353798 0.587059,-14.828224 -0.120474,-22.409181 1.22639,0.09677 3.123593,0.154074 3.493902,0.301198 0.531606,0.326428 0.867206,0.701856 1.174676,1.084315 1.332064,7.523585 1.253579,16.002315 0.604538,21.053788 z"
       id="path885"
       inkscape:connector-curvature="0"
       sodipodi:nodetypes="cccccc" />
  </g>
</svg>
