<?xml version="1.0" encoding="UTF-8"?>
<svg version="1.1" viewBox="0 0 48 48" xmlns="http://www.w3.org/2000/svg">
    <path d="m23.451 15.556-1.8283 3.1663a6.0945 6.0945 0 0 1 3.0472 5.2779 6.0945 6.0945 0 0 1-3.0472 5.2779l1.8283 3.1663a9.7512 9.7512 0 0 0 4.8756-8.4442 9.7512 9.7512 0 0 0-4.8756-8.4442z" fill="#fff" style="paint-order:stroke markers fill"/>
    <path d="m29.546 5-1.8283 3.1663a18.283 18.283 0 0 1 9.1417 15.834 18.283 18.283 0 0 1-9.1417 15.834l1.8283 3.1663a21.94 21.94 0 0 0 10.97-19 21.94 21.94 0 0 0-10.97-19z" fill="#fff" style="paint-order:stroke markers fill"/>
    <path d="m26.498 10.278-1.8283 3.1663a12.189 12.189 0 0 1 6.0945 10.556 12.189 12.189 0 0 1-6.0945 10.556l1.8283 3.1663a15.846 15.846 0 0 0 7.9228-13.722 15.846 15.846 0 0 0-7.9228-13.722z" fill="#fff" style="paint-order:stroke markers fill"/>
    <rect x="13.091" y="22.476" width="12.189" height="3.0472" fill="#fff" style="paint-order:stroke markers fill"/>
    <path d="m11.141 20.343a3.6567 3.6567 0 0 0-3.6567 3.6567 3.6567 3.6567 0 0 0 3.6567 3.6567 3.6567 3.6567 0 0 0 3.6567-3.6567 3.6567 3.6567 0 0 0-3.6567-3.6567zm0 2.4378a1.2189 1.2189 0 0 1 1.2189 1.2189 1.2189 1.2189 0 0 1-1.2189 1.2189 1.2189 1.2189 0 0 1-1.2189-1.2189 1.2189 1.2189 0 0 1 1.2189-1.2189z" fill="#fff" style="paint-order:stroke markers fill"/>
</svg>
