<?xml version="1.0" encoding="UTF-8" standalone="no"?>
<svg
   xmlns:dc="http://purl.org/dc/elements/1.1/"
   xmlns:cc="http://creativecommons.org/ns#"
   xmlns:rdf="http://www.w3.org/1999/02/22-rdf-syntax-ns#"
   xmlns:svg="http://www.w3.org/2000/svg"
   xmlns="http://www.w3.org/2000/svg"
   xmlns:sodipodi="http://sodipodi.sourceforge.net/DTD/sodipodi-0.dtd"
   xmlns:inkscape="http://www.inkscape.org/namespaces/inkscape"
   width="48"
   height="48"
   viewBox="0 0 48 48"
   version="1.1"
   id="svg4"
   sodipodi:docname="androidcustomization.svg"
   inkscape:version="1.0.2 (e86c870879, 2021-01-15)">
  <metadata
     id="metadata10">
    <rdf:RDF>
      <cc:Work
         rdf:about="">
        <dc:format>image/svg+xml</dc:format>
        <dc:type
           rdf:resource="http://purl.org/dc/dcmitype/StillImage" />
        <dc:title></dc:title>
      </cc:Work>
    </rdf:RDF>
  </metadata>
  <defs
     id="defs8" />
  <sodipodi:namedview
     pagecolor="#ffffff"
     bordercolor="#666666"
     borderopacity="1"
     objecttolerance="10"
     gridtolerance="10"
     guidetolerance="10"
     inkscape:pageopacity="0"
     inkscape:pageshadow="2"
     inkscape:window-width="2540"
     inkscape:window-height="1394"
     id="namedview6"
     showgrid="false"
     inkscape:pagecheckerboard="false"
     inkscape:zoom="13.083333"
     inkscape:cx="41.114263"
     inkscape:cy="23.262969"
     inkscape:window-x="0"
     inkscape:window-y="0"
     inkscape:window-maximized="1"
     inkscape:current-layer="svg4"
     inkscape:document-rotation="0" />
  <path
     id="circle2"
     style="fill:#ffffff;fill-opacity:1"
     d="M 24 2 C 11.849736 2 2 11.849736 2 24 C 2 36.150264 11.942171 45.793208 24.087891 45.460938 C 25.903348 45.411271 28.45171 43.792821 28.984375 41.107422 C 29.67733 37.613925 26.837593 36.282472 27.316406 35.158203 C 27.682006 34.299763 27.837568 34.581873 32.916016 34.658203 C 37.046765 34.720286 44.106677 31.172882 45.183594 23.896484 C 46.962472 11.877145 36.150264 2 24 2 z M 17.964844 10.814453 A 3.2092109 3.2092109 0 0 1 18.035156 10.814453 A 3.2092109 3.2092109 0 0 1 21.244141 14.023438 A 3.2092109 3.2092109 0 0 1 18.035156 17.232422 A 3.2092109 3.2092109 0 0 1 14.826172 14.023438 A 3.2092109 3.2092109 0 0 1 17.964844 10.814453 z M 28.830078 10.830078 A 3.2092109 3.2092109 0 0 1 28.900391 10.830078 A 3.2092109 3.2092109 0 0 1 32.109375 14.039062 A 3.2092109 3.2092109 0 0 1 28.900391 17.248047 A 3.2092109 3.2092109 0 0 1 25.691406 14.039062 A 3.2092109 3.2092109 0 0 1 28.830078 10.830078 z M 35.4375 19.390625 A 3.2092109 3.2092109 0 0 1 38.646484 22.599609 A 3.2092109 3.2092109 0 0 1 35.4375 25.810547 A 3.2092109 3.2092109 0 0 1 32.228516 22.599609 A 3.2092109 3.2092109 0 0 1 35.4375 19.390625 z M 11.484375 19.527344 A 3.2092109 3.2092109 0 0 1 11.554688 19.527344 A 3.2092109 3.2092109 0 0 1 14.763672 22.736328 A 3.2092109 3.2092109 0 0 1 11.554688 25.945312 A 3.2092109 3.2092109 0 0 1 8.3457031 22.736328 A 3.2092109 3.2092109 0 0 1 11.484375 19.527344 z " />
</svg>
