<?xml version="1.0" encoding="UTF-8"?>
<svg version="1.1" viewBox="0 0 48 48" xmlns="http://www.w3.org/2000/svg">
    <path d="m23.049 5.0007c-0.02114 0.0042-0.04114 0.020069-0.05927 0.052156-0.52268 0.92483-0.46188 2.7126-0.4457 3.0962-5.2098 0.7111-9.2273 5.1684-9.2268 10.573h0.26552c-0.01314-0.14108-0.02027-0.28267-0.02134-0.42436 2.61e-4 -2.7482 2.2279-4.9759 4.9761-4.9761 2.7482 2.62e-4 4.9759 2.2279 4.9761 4.9761-0.0011 0.14169-0.0081 0.28328-0.02134 0.42436h1.0147c-0.0135-0.14502-0.02061-0.29056-0.02134-0.43622-1e-3 -2.749 2.2271-4.9782 4.9761-4.9785 2.749 2.62e-4 4.9772 2.2294 4.9761 4.9785-7.26e-4 0.14564-0.0079 0.29119-0.02134 0.43622h0.26552c4.92e-4 -5.4223-4.0426-9.8913-9.2766-10.58l0.73017-2.2166c0.31592-0.95577-1.6061 1.0707-1.8705 2.1289-0.08907-0.00218-0.17592-0.014238-0.26552-0.014226-0.06558-6.1e-6 -0.12909 0.00825-0.1944 0.00947 0.0144-0.95768-0.48278-3.1031-0.75626-3.0487z" fill="#fff" stroke-width="1.2138"/>
    <path d="m34.638 38.665c-2.6532 10.017-16.203 1.605 0-14.382v7.1913z" fill="#fff" stroke-width="1.2138"/>
    <path d="m13.356 38.665c2.6532 10.017 16.203 1.605 0-14.382v7.1913z" fill="#fff" stroke-width="1.2138"/>
    <path d="m21.571 23.578h4.8552l-2.4276 3.6414z" fill="#fff" stroke-width="1.2138"/>
    <path d="m20.978 18.294a2.4276 2.4276 0 0 0-2.4276-2.4276 2.4276 2.4276 0 0 0-2.4276 2.4276 2.4276 2.4276 0 0 0 2.4276 2.4276 2.4276 2.4276 0 0 0 0.90087-0.17543c-0.1743-0.13876-0.29397-0.34208-0.29397-0.58319v-0.30345c0-0.42028 0.33835-0.75862 0.75862-0.75862h0.30345c0.24006 2e-6 0.44438 0.11861 0.58319 0.29159a2.4276 2.4276 0 0 0 0.17543-0.89849z" fill="#fff" stroke-width="1.2138"/>
    <path d="m31.904 18.288a2.4276 2.4276 0 0 0-2.4276-2.4276 2.4276 2.4276 0 0 0-2.4276 2.4276 2.4276 2.4276 0 0 0 2.4276 2.4276 2.4276 2.4276 0 0 0 0.90087-0.17543c-0.1743-0.13876-0.29397-0.34208-0.29397-0.58319l-1e-6 -0.30345c0-0.42028 0.33835-0.75862 0.75862-0.75862h0.30345c0.24005 6e-6 0.44437 0.11861 0.5832 0.2916a2.4276 2.4276 0 0 0 0.17544-0.8985z" fill="#fff" stroke-width="1.2138"/>
</svg>
