<svg viewBox="0 0 48 48" xmlns="http://www.w3.org/2000/svg">
    <path d="m 35.082908,1.9999999 c 2.104405,0 3.810362,1.7059573 3.810362,3.8103625 0,2.104405 -1.705957,3.8103625 -3.810362,3.8103625 -2.104405,0 -3.810363,-1.7059575 -3.810363,-3.8103625 0,-2.1044052 1.705958,-3.8103625 3.810363,-3.8103625 z M 20.949927,8.9279317 h 9.629825 c 0.358867,-0.00277 0.702492,0.1413298 0.953283,0.3976633 l 6.318274,6.290563 4.420021,-5.36222 c 0.455858,-0.5611626 1.27751,-0.6498401 1.842829,-0.198139 l 0.903403,0.663696 c 0.598573,0.458629 0.690022,1.326007 0.20091,1.898254 l -6.110436,7.426743 c -0.497426,0.604115 -1.413298,0.642912 -1.953677,0.08383 l -4.4893,-4.267606 -5.764039,6.401409 5.750183,5.791751 c 0.322842,0.322841 0.455858,0.787013 0.351939,1.231786 l -3.297695,15.657124 c -0.151029,0.74406 -0.89786,1.209617 -1.634992,1.011478 L 26.435463,45.521961 C 25.749598,45.34322 25.329765,44.654584 25.48218,43.970104 l 2.798884,-12.802818 -5.999589,-5.999589 -5.958021,6.692382 c -0.06969,0.08092 -0.17597,0.170428 -0.300673,0.257719 -0.33254,0.230008 -0.799483,0.440617 -1.084914,0.435075 H 3.8531759 C 3.1077304,32.553295 2.4398778,31.911346 2.4675895,31.167286 V 29.7817 C 2.4904515,29.062581 3.132671,28.382258 3.8531759,28.396113 H 12.859488 L 26.022558,12.46187 h -4.156759 l -5.542345,6.927932 c -0.443388,0.538993 -1.289981,0.74406 -1.856686,0.332541 l -0.717734,-0.554235 c -0.586103,-0.451701 -0.666467,-1.281667 -0.20091,-1.856685 l 6.373697,-7.8008522 c 0.253563,-0.3076002 0.633213,-0.512667 1.030877,-0.5085102 z" fill="#fff"/>
</svg>
