<svg width="48" height="48" version="1.1" viewBox="0 0 48 48" xmlns="http://www.w3.org/2000/svg">
  <path d="m7 5c-1.108 0-2 0.892-2 2v34c0 1.108 0.892 2 2 2h34c1.108 0 2-0.892 2-2v-34c0-1.108-0.892-2-2-2zm1.789 2h30.42c0.9914 0 1.789 0.7977 1.789 1.789v27.35a18.02 16.64 0 0 0 -6.857 -8.252l2.941-5.094c0.5934-1.028 0.2696-2.318-0.7227-2.891-0.3721-0.2148-0.7825-0.2964-1.184-0.2617-0.6684 0.05778-1.305 0.4396-1.676 1.082l-3.094 5.361a18.02 16.64 0 0 0 -6.41 -1.109 18.02 16.64 0 0 0 -6.404 1.111l-3.096-5.363c-0.3709-0.6424-1.007-1.024-1.676-1.082-0.401-0.03467-0.8134 0.04687-1.186 0.2617-0.9923 0.5729-1.314 1.863-0.7207 2.891l2.936 5.08a18.02 16.64 0 0 0 -6.852 8.322v-27.41c0-0.9914 0.7977-1.789 1.789-1.789zm0.2109 2v1.303l4.141 1.484-4.141 1.473v1.297l5.506-2.16v-1.23zm6.447 7.115v1.041h5.438v-1.041zm0.2324 15.87a1.505 1.505 0 0 1 1.504 1.508 1.505 1.505 0 0 1 -1.504 1.504 1.505 1.505 0 0 1 -1.506 -1.504 1.505 1.505 0 0 1 1.506 -1.508zm16.64 0a1.505 1.505 0 0 1 1.506 1.508 1.505 1.505 0 0 1 -1.506 1.504 1.505 1.505 0 0 1 -1.504 -1.504 1.505 1.505 0 0 1 1.504 -1.508z" fill="#fff"/>
</svg>
