<svg viewBox="0 0 48 48" xmlns="http://www.w3.org/2000/svg">
<path d="m 12.957198,35.299611 c 0,0.171206 -0.171206,0.342412 -0.342412,0.342412 H 6.6225681 c -0.1712062,0 -0.3424125,-0.171206 -0.3424125,-0.342412 L 2,12.871595 c 0,-0.171206 0,-0.342412 0.1712062,-0.342412 h 5.4785992 c 0.1712063,0 0.3424125,0.171206 0.3424125,0.342412 l 1.540856,9.587549 c 0,0.171206 0.1712063,0.171206 0.1712063,0.171206 l 0.1712062,-0.171206 1.3696496,-9.587549 c 0,-0.171206 0.171206,-0.342412 0.342413,-0.342412 h 5.307393 c 0.171206,0 0.342412,0.171206 0.342412,0.342412 z m 18.490273,0 c 0,0.171206 -0.171206,0.342412 -0.342413,0.342412 h -5.821011 c -0.171207,0 -0.342413,-0.171206 -0.342413,-0.342412 l -1.36965,-5.478599 c 0,-0.342413 -0.171206,-0.513619 -0.342412,-0.513619 -0.171206,0 -0.171206,0.171206 -0.171206,0.513619 v 5.478599 c 0,0.171206 -0.171206,0.342412 -0.342413,0.342412 h -4.622568 c -0.171206,0 -0.342412,-0.171206 -0.342412,-0.513618 v -22.25681 c 0,-0.171206 0.171206,-0.342412 0.342412,-0.342412 h 5.136187 c 0.171206,0 0.342412,0.171206 0.513619,0.342412 l 1.883268,7.019456 c 0,0.171206 0.171206,0.342412 0.171206,0.342412 0.171207,0 0.171207,-0.171206 0.171207,-0.342412 v -6.848249 c 0,-0.171207 0.171206,-0.342413 0.342412,-0.342413 h 4.793774 c 0.171207,0 0.342413,0.171206 0.342413,0.513619 z m 7.70428,-16.435798 c -0.171206,0 -0.513619,0.171206 -0.513619,0.513619 v 9.587549 c 0,0.342412 0.171207,0.513618 0.513619,0.513618 0.342412,0 0.513619,-0.171206 0.513619,-0.513618 v -3.081713 c 0,-0.171206 0.171206,-0.513618 0.342412,-0.513618 l 5.821012,0.171206 C 46,25.540856 46,25.712062 46,25.712062 c 0,7.361868 -3.081712,9.929961 -7.019455,9.929961 -4.280156,0 -6.677043,-3.937743 -6.677043,-8.217898 V 21.2607 c 0,-5.649805 2.568093,-8.902723 6.848249,-8.902723 4.451362,0 6.848249,3.766537 6.848249,8.217898 0,0.856032 0,0.856032 -0.342412,0.856032 l -5.649806,0.171206 c -0.342412,0 -0.513619,-0.171206 -0.513619,-0.684825 v -1.883269 c 0.171207,-0.171206 0,-0.171206 -0.342412,-0.171206 z" fill="#fff"/>
</svg>
