<?xml version="1.0" encoding="utf-8"?>
<!-- Generator: Adobe Illustrator 21.1.0, SVG Export Plug-In . SVG Version: 6.00 Build 0)  -->
<svg version="1.2" baseProfile="tiny" id="Layer_1" xmlns="http://www.w3.org/2000/svg" xmlns:xlink="http://www.w3.org/1999/xlink"
	 x="0px" y="0px" viewBox="0 0 48 48" overflow="scroll" xml:space="preserve">
<path fill="#FFFFFF" d="M42,8H6c-1.1,0-2,0.9-2,2v28c0,1.1,0.9,2,2,2h36c1.1,0,2-0.9,2-2V10C44,8.9,43.1,8,42,8z M17.4,30.5
	c0,0.1-0.1,0.2-0.2,0.2h-3.5c-0.1,0-0.2-0.1-0.2-0.2L11,17.4c0-0.1,0-0.2,0.1-0.2h3.2c0.1,0,0.2,0.1,0.2,0.2l0.9,5.6
	c0,0.1,0.1,0.1,0.1,0.1c0,0,0.1-0.1,0.1-0.1l0.8-5.6c0-0.1,0.1-0.2,0.2-0.2h3.1c0.1,0,0.2,0.1,0.2,0.2L17.4,30.5z M28.2,30.5
	c0,0.1-0.1,0.2-0.2,0.2h-3.4c-0.1,0-0.2-0.1-0.2-0.2l-0.8-3.2c0-0.2-0.1-0.3-0.2-0.3c-0.1,0-0.1,0.1-0.1,0.3v3.2
	c0,0.1-0.1,0.2-0.2,0.2h-2.7c-0.1,0-0.2-0.1-0.2-0.3v-13c0-0.1,0.1-0.2,0.2-0.2h3c0.1,0,0.2,0.1,0.3,0.2l1.1,4.1
	c0,0.1,0.1,0.2,0.1,0.2c0.1,0,0.1-0.1,0.1-0.2v-4c0-0.1,0.1-0.2,0.2-0.2H28c0.1,0,0.2,0.1,0.2,0.3V30.5z M32.7,20.9
	c-0.1,0-0.3,0.1-0.3,0.3v5.6c0,0.2,0.1,0.3,0.3,0.3c0.2,0,0.3-0.1,0.3-0.3v-1.8c0-0.1,0.1-0.3,0.2-0.3l3.4,0.1
	c0.1,0,0.1,0.1,0.1,0.1c0,4.3-1.8,5.8-4.1,5.8c-2.5,0-3.9-2.3-3.9-4.8v-3.6c0-3.3,1.5-5.2,4-5.2c2.6,0,4,2.2,4,4.8
	c0,0.5,0,0.5-0.2,0.5l-3.3,0.1c-0.2,0-0.3-0.1-0.3-0.4v-1.1C33,20.9,32.9,20.9,32.7,20.9z"/>
</svg>
