<?xml version="1.0" encoding="UTF-8"?>
<svg viewBox="0 0 48 48" xmlns="http://www.w3.org/2000/svg">
  <path d="m 18.234058,4.5689797 c -0.683368,-0.013 -1.391298,0.03239 -2.117906,0.140871 h -0.0025 c -1.771509,0.2664 -4.045608,1.381418 -5.469581,3.536321 l -8.6440705,4.9960253 2.093619,1.211967 7.4175305,4.291675 c 0.705999,1.147185 1.599387,2.349239 2.703245,3.606757 -5.3810505,2.532275 -8.0994105,6.063491 -8.3016115,9.669022 -0.221145,3.943342 2.305267,7.493833 5.8631035,9.404283 3.557839,1.910446 8.304973,2.211787 12.612717,-0.386179 1.381832,-0.833371 2.66952,-2.069995 3.898212,-3.504747 1.336202,1.355021 2.9688,3.217271 3.966217,4.026937 v 0.0025 c 3.625899,2.937717 8.491821,2.170888 10.944136,-0.626629 1.22616,-1.398758 1.79986,-3.43778 1.14396,-5.46964 -0.65589,-2.031861 -2.38472,-3.96167 -5.336053,-5.697945 -2.557717,-1.506404 -3.824986,-3.131436 -4.28439,-4.437404 -0.459402,-1.305968 -0.207031,-2.287744 0.422611,-3.011702 0.629639,-0.723959 1.731075,-1.218303 3.27887,-1.061382 1.547793,0.15692 3.530843,1.00051 5.646942,3.018988 L 46,22.253086 c -2.466351,-2.352572 -4.995516,-3.543531 -7.296094,-3.776772 -2.300578,-0.23324 -4.381152,0.525284 -5.67123,2.008611 -0.699668,0.804477 -1.077622,1.824649 -1.214395,2.916979 l -0.0753,-0.017 C 30.802839,27.59259 29.495962,30.81295 28.007498,33.274946 26.958769,32.162691 26.257017,31.580657 25.192528,30.4114 22.464073,27.414408 20.333283,25.024633 18.639646,23.185744 24.903343,20.065958 27.727778,15.565382 27.159849,11.517826 26.609377,7.5946707 23.017612,4.6599797 18.234038,4.5690507 Z m -0.03886,2.780968 c 0.524949,0.0012 1.018975,0.04396 1.481562,0.123869 2.775525,0.47962 4.411918,2.294911 4.711856,4.4325453 0.375317,2.674842 -1.55791,6.379934 -7.643408,9.144403 -4.53106,-4.911596 -5.017914,-8.174662 -4.332965,-10.159638 0.710959,-2.0603533 3.008571,-3.2482293 4.116803,-3.4148813 0.585326,-0.08738 1.141202,-0.127544 1.666152,-0.126298 z M 16.07972,24.521508 c 1.576999,1.692915 4.071883,4.505381 7.045924,7.772134 1.174855,1.290484 2.043902,2.025956 3.191434,3.242437 -1.092131,1.309325 -2.218569,2.412269 -3.373592,3.108854 -3.459338,2.086299 -7.07366,1.803273 -9.843895,0.315743 -2.770234,-1.48753 -4.5388965,-4.14853 -4.3912555,-6.781187 0.141607,-2.52504 2.0531695,-5.392083 7.3713845,-7.657981 z m 17.161844,3.611613 c 0.970324,1.436118 2.274119,2.83049 4.342681,4.048797 h 0.0025 c 2.576206,1.515586 3.727542,3.015327 4.092514,4.145947 0.36497,1.130622 0.0989,1.985845 -0.585339,2.766395 -1.368131,1.560714 -4.61027,2.293629 -7.0775,0.296313 -0.878485,-0.713123 -2.634332,-2.682043 -4.009935,-4.0828 1.252254,-1.938543 2.317333,-4.377568 3.23515,-7.174652 z" fill="#fff" stroke-width="2.7979683"/>
</svg>
