<svg xmlns="http://www.w3.org/2000/svg" width="48" height="48"><defs><clipPath id="a"><path d="M0 0v48h45.25L32.7 0z" fill="#fff"/></clipPath><mask maskUnits="userSpaceOnUse" id="b"><g stroke-width="2.25"><path fill="#fff" d="M.07-.04h48v48h-48z"/><path d="M7.53 15.36l5.5-3.18c-1.59 2.43-.89 4.64.55 6.68z" stroke="#000"/><path clip-path="url(#a)" d="M39.89 23.42c-7.37-7.03-14.3.97-5.42 6.2 8.89 5.23.75 11.61-4.15 7.64-3.4-2.76-11.3-12-13.64-14.42-8.4-8.73-2.54-12.83.12-13.23 8.44-1.26 11.87 8.8-.12 13.53-19.82 7.8 7.27 29.04 13.62.62" fill="none" stroke="#000"/></g></mask></defs><circle cx="24" cy="24" r="22" mask="url(#b)" fill="#fff"/></svg>