<?xml version="1.0" encoding="UTF-8"?>
<svg version="1.1" viewBox="0 0 48 48" xmlns="http://www.w3.org/2000/svg">
    <path d="m41.475 11.049-27.499 0.01234c-0.64923 0.01449-1.0997 0.47061-1.3064 1.0508 0.03477 0.19145-0.02904 0.39734 0.14633 0.54477l14.351 12.041c0.33589 0.28213 0.82593 0.28213 1.1618 0l12.866-10.798v21.244h-27.799c-0.30533-0.0043-0.53491 0.10868-0.68757 0.27855-0.07217 0.08031-0.06949 0.19605-0.10754 0.29618 0.15147 0.68382 0.67442 1.2323 1.4051 1.2323h27.469c0.84545 0 1.525-0.67955 1.525-1.525v-22.852c0-0.84545-0.67955-1.525-1.525-1.525zm-25.599 1.8194h23.741l-11.87 9.9592z" fill="#fff" stroke-width=".78591"/>
    <path d="m13.376 15.368a0.90321 0.90321 0 0 0-0.55151 0.21872l-2.9975 2.5153-1.4993 1.2583a0.90321 0.90321 0 1 0 1.1606 1.3841l1.4993-1.2583 2.9975-2.5153a0.90321 0.90321 0 0 0-0.60913-1.6028zm-6.918 5.8056a0.90321 0.90321 0 0 0-0.55151 0.21872l-0.57621 0.48331a0.90321 0.90321 0 1 0 1.1606 1.3841l0.57621-0.48331a0.90321 0.90321 0 0 0-0.60913-1.6028z" color="#000000" color-rendering="auto" dominant-baseline="auto" fill="#fff" image-rendering="auto" shape-rendering="auto" solid-color="#000000" style="font-feature-settings:normal;font-variant-alternates:normal;font-variant-caps:normal;font-variant-ligatures:normal;font-variant-numeric:normal;font-variant-position:normal;isolation:auto;mix-blend-mode:normal;shape-padding:0;text-decoration-color:#000000;text-decoration-line:none;text-decoration-style:solid;text-indent:0;text-orientation:mixed;text-transform:none;white-space:normal"/>
    <path d="m18.241 19.451a0.90321 0.90321 0 0 0-0.55151 0.21872l-0.57738 0.48448a0.90321 0.90321 0 1 0 1.1618 1.3829l0.57621-0.48331a0.90321 0.90321 0 0 0-0.60914-1.6028zm-2.9975 2.5165a0.90321 0.90321 0 0 0-0.55269 0.21872l-1.4993 1.2571-2.9975 2.5153-2.9975 2.5165a0.90321 0.90321 0 1 0 1.1606 1.3829l2.9975-2.5153 2.9986-2.5153 1.4981-1.2583a0.90321 0.90321 0 0 0-0.60796-1.6016z" color="#000000" color-rendering="auto" dominant-baseline="auto" fill="#fff" image-rendering="auto" shape-rendering="auto" solid-color="#000000" style="font-feature-settings:normal;font-variant-alternates:normal;font-variant-caps:normal;font-variant-ligatures:normal;font-variant-numeric:normal;font-variant-position:normal;isolation:auto;mix-blend-mode:normal;shape-padding:0;text-decoration-color:#000000;text-decoration-line:none;text-decoration-style:solid;text-indent:0;text-orientation:mixed;text-transform:none;white-space:normal"/>
    <path d="m23.014 23.456a0.90321 0.90321 0 0 0-0.55151 0.21872l-2.9975 2.5165-2.9986 2.5153-1.4981 1.2571a0.90321 0.90321 0 1 0 1.1606 1.3841l1.4993-1.2582 5.9949-5.0307a0.90321 0.90321 0 0 0-0.60914-1.6028zm-9.9155 8.3209a0.90321 0.90321 0 0 0-0.55269 0.21872l-0.57621 0.48331a0.90321 0.90321 0 1 0 1.1606 1.3841l0.57738-0.48331a0.90321 0.90321 0 0 0-0.60913-1.6028z" color="#000000" color-rendering="auto" dominant-baseline="auto" fill="#fff" image-rendering="auto" shape-rendering="auto" solid-color="#000000" style="font-feature-settings:normal;font-variant-alternates:normal;font-variant-caps:normal;font-variant-ligatures:normal;font-variant-numeric:normal;font-variant-position:normal;isolation:auto;mix-blend-mode:normal;shape-padding:0;text-decoration-color:#000000;text-decoration-line:none;text-decoration-style:solid;text-indent:0;text-orientation:mixed;text-transform:none;white-space:normal"/>
</svg>
