<?xml version="1.0" encoding="UTF-8"?>
<svg version="1.1" viewBox="0 0 48 48" xmlns="http://www.w3.org/2000/svg">
    <defs>
        <style>.cls-1{fill:#fff;}</style>
    </defs>
    <path class="cls-1" d="m13.53 44.428c1.3537 0.40272 3.4722 0.4721 3.4722 0.4721l2.4502-7.0714c3.0729 0.57871 5.3708 0.81899 8.4606 0l2.5974 7.0866s1.7835 2e-3 3.325-0.48733l-7.068-20.305c-0.12014-0.68361 0.31304-1.0982 0.5787-1.6921 0.23351-0.52118 0.37396-1.0999 0.38919-1.6752 0.0017-2.3808-1.8579-4.1338-4.0526-4.078-2.2759 0-4.0611 1.7683-4.0594 4.0662 0 0.46025 0.08122 0.91882 0.24705 1.3486 0.33504 0.87483 0.90867 1.2556 0.65654 2.1998zm10.322-18.275 2.8766 8.4606c-2.1828 0.54995-3.9139 0.39596-6.0916 0l2.8766-8.4606z"/>
    <path class="cls-1" d="m16.576 28.861c0.18952-0.56687 0.87144-2.8444 0.87144-2.8444-0.99835-1.3012-1.8867-2.5906-1.885-5.3065-0.0017-4.8327 4.0898-8.0934 8.1205-8.0917 3.3538-2e-3 8.1222 2.6126 8.112 8.1019-0.0017 2.4637-1.3808 4.7701-1.9679 5.3031l0.96281 2.8377c1.5381-0.98481 3.6617-4.2151 3.7311-8.1492 0.022-6.0341-5.1457-10.863-10.796-10.811-6.8717 8e-3 -10.933 5.5163-10.841 10.838-0.03554 3.1 1.0846 6.249 3.6922 8.1222z"/>
    <path class="cls-1" d="m14.207 35.46c0.21659-0.51102 0.82237-2.6532 0.82237-2.6532-5.5603-4.1609-6.2507-9.2034-6.2371-12.237 0-7.5011 6.7126-14.721 14.891-14.733 8.0392-0.093 14.899 6.9072 14.899 14.902 0.04399 5.5823-3.5501 10.55-6.2693 12.014l0.84606 2.7074c4.9342-3.017 8.1222-8.2355 8.1222-14.721 0.0067-9.2373-7.2203-17.654-17.598-17.654-9.42 0-17.598 7.9529-17.598 17.654 0 6.9377 4.3437 12.577 8.1222 14.721z"/>
</svg>
