<svg height="48" viewBox="0 0 12.7 12.7" width="48" xmlns="http://www.w3.org/2000/svg"><path d="m6.35.52916633a5.8208331 5.8208331 0 0 0 -5.82083333 5.82083397 5.8208331 5.8208331 0 0 0 5.82083333 5.8208327 5.8208331 5.8208331 0 0 0 5.820834-5.8208327 5.8208331 5.8208331 0 0 0 -5.820834-5.82083397zm-.2780191.79374997a3.4395833 3.7041667 0 0 1 3.4395838 3.704167h-.245464a3.1937854 3.4394611 0 0 0 -3.1941198-3.439583zm0 .79375a2.7025298 2.9104167 0 0 1 2.7026768 2.910417h-.245463a2.4568454 2.6458332 0 0 0 -2.4572138-2.645833zm0 .859896a1.74625 2.0506193 0 0 1 1.7466633 2.050521h-.2258259a1.5208543 1.7859375 0 0 0 -1.5208374-1.785937zm0 1.150834c.3653131 0 .6614583.296149.6614583.661459-.0003797.24336-.1343572.466856-.3488161.581876l2.9770796 5.5991417-.467155.248563-.03307-.06253-4.6803346-1.3420367-.5172811 1.0603997-.4754232-.232027 2.5703858-5.2704787c-.214585-.11533-.348402-.33929-.348299-.58291 0-.36531.2961449-.661459.6614583-.661459zm.00672 1.79524-.6671427 1.368392 1.1280966-.501779zm.5539713 1.042313-1.304313.580327 2.113566.941027zm-1.425238.744141-.870748 1.784904 3.0473592-.815971zm2.411739 1.111043-3.1972208.856795 4.3098143 1.2355837z" fill="#fff" stroke-width=".264583"/></svg>