<?xml version="1.0" encoding="UTF-8"?>
<svg version="1.1" viewBox="0 0 48 48" xmlns="http://www.w3.org/2000/svg">
    <path d="m24 3a18.418 18.418 0 0 0-18.418 18.418 18.418 18.418 0 0 0 8.4336 15.474l1.0892-2.9817a15.348 15.348 0 0 1-6.4531-12.492 15.348 15.348 0 0 1 15.348-15.348 15.348 15.348 0 0 1 15.348 15.348 15.348 15.348 0 0 1-6.4431 12.476l1.0832 2.9757a18.418 18.418 0 0 0 8.4296-15.452 18.418 18.418 0 0 0-18.418-18.418zm0 7.1625a11.255 11.255 0 0 0-11.255 11.255 11.255 11.255 0 0 0 3.8371 8.4456l1.1611-3.1796a8.1858 8.1858 0 0 1-1.9285-5.266 8.1858 8.1858 0 0 1 8.1858-8.1858 8.1858 8.1858 0 0 1 8.1858 8.1858 8.1858 8.1858 0 0 1-1.9085 5.254l1.1571 3.1836a11.255 11.255 0 0 0 3.8211-8.4376 11.255 11.255 0 0 0-11.255-11.255zm0 7.1625c-2.2604 0-4.0929 1.8324-4.0929 4.0929 0.0021 1.1063 0.45196 2.1646 1.247 2.9338l-7.1186 19.491c1.0257 0.45545 2.0813 0.84006 3.1596 1.1511l2.1084-5.7916a18.418 18.418 0 0 0 4.6964 0.63352 18.418 18.418 0 0 0 4.6924-0.64751l2.1164 5.8116c1.0767-0.31718 2.1304-0.70779 3.1536-1.1691l-7.0946-19.495c0.78304-0.769 1.2244-1.8203 1.2251-2.9178 0-2.2604-1.8324-4.0929-4.0929-4.0929zm0 8.9712 3.6472 10.016a15.348 15.348 0 0 1-3.6472 0.45365 15.348 15.348 0 0 1-3.6392-0.47164z" fill="#fff"/>
</svg>
