<?xml version="1.0" encoding="utf-8"?>
<!-- Generator: Adobe Illustrator 21.1.0, SVG Export Plug-In . SVG Version: 6.00 Build 0)  -->
<svg version="1.0" id="Layer_1" xmlns="http://www.w3.org/2000/svg" xmlns:xlink="http://www.w3.org/1999/xlink" x="0px" y="0px"
	 viewBox="0 0 48 48" style="enable-background:new 0 0 48 48;" xml:space="preserve">
<style type="text/css">
	.st0{fill:#FFFFFF;}
</style>
<g>
	<path class="st0" d="M11.5,40.1c-2-1.3-3.6-3-4.9-4.9C2.9,29.8,2,23.8,4,17.4c1.7-5.2,5.1-9,9.9-11.6c4-2.2,8.4-2.9,12.9-2.4
		c8.4,1,15.7,6.6,18.1,15c2.4,8.8-1.6,18.3-9.6,22.8c-0.3,0.2-0.7,0.4-1.1,0.7c-0.2-0.3-0.5-0.6-0.7-1c-2.6-4.9-5.1-9.9-7.7-14.8
		c-0.6-1.2-1.2-2.4-1.9-3.5c-0.4-0.7-0.2-1.1,0.2-1.7c0.8-1.2,0.7-2.3-0.3-3.2c-0.9-0.9-2.3-1-3.3-0.2c-1.1,0.8-1.2,2.2-0.4,3.6
		c0.2,0.3,0.3,0.8,0.2,1.1c-2.7,5.7-5.4,11.3-8.2,17C12,39.4,11.8,39.7,11.5,40.1z M23.3,6.7c-0.2,0-0.4-0.1-0.6,0
		c-0.3,0.2-0.6,0.4-0.9,0.6c0.3,0.3,0.5,0.7,0.8,0.9c0.1,0.1,0.4,0.1,0.7,0.1c2.9,0.2,5.1,1.6,7,3.7c1.9,2.2,2.7,4.7,2.9,7.5
		c0.1,0.6,0.2,1.1,0.9,1c0.8-0.1,0.7-0.6,0.7-1.2c-0.3-3-1.2-5.8-3.2-8.2C29.4,8.6,26.7,7.1,23.3,6.7z M22.6,9.7
		c-0.1,0.1-0.5,0.5-0.8,0.8c0.4,0.3,0.7,0.8,1.1,0.8c3.3,0.4,5.4,2.3,6.7,5.2c0.5,1.1,0.5,2.3,0.8,3.4c0.1,0.3,0.7,0.5,1,0.7
		c0.2-0.4,0.6-0.7,0.5-1.1c-0.1-1-0.4-2-0.6-3C30.3,12.8,26.8,9.9,22.6,9.7z M28.6,20c-0.1-0.6-0.1-1-0.2-1.4
		c-0.4-3-2.9-5.6-5.6-5.8c-0.3,0-0.7,0.4-1.1,0.5c0.3,0.3,0.5,0.7,0.8,0.8c2,0.5,3.3,1.8,4,3.7c0.2,0.7,0.3,1.4,0.6,2.1
		c0.1,0.3,0.5,0.6,0.8,0.5C28.3,20.5,28.5,20.1,28.6,20z"/>
	<path class="st0" d="M31.5,43.1c-1.5,0.3-2.8,0.8-4.2,0.9c-4.4,0.4-8.7,0.1-12.7-1.9c-0.6-0.3-0.8-0.6-0.5-1.2c0,0,0-0.1,0-0.1
		c1-2.5,1-2.5,3.6-1.8c4.5,1.2,8.9,2.5,13.4,3.8C31.2,42.7,31.2,42.8,31.5,43.1z"/>
	<path class="st0" d="M30.8,41.2c-4.5-1.3-8.9-2.6-13.5-3.9c1.4-0.4,2.6-0.8,3.8-1.1c1.7-0.5,3.5-0.8,5.2-1.3c1-0.3,1.4,0.1,1.8,0.9
		C28.9,37.5,29.8,39.3,30.8,41.2z"/>
	<path class="st0" d="M26,33.6c-3.2,0.9-6.2,1.6-9.2,2.4c-0.1-0.1-0.2-0.2-0.3-0.2c0.4-1,0.9-1.9,1.3-2.9c1.1-2.2,1.1-2.3,3.4-1.3
		C22.8,32.2,24.3,32.9,26,33.6z"/>
	<path class="st0" d="M25.8,32.1c-1.8-0.8-3.7-1.6-5.8-2.5c1.3-0.6,2.4-1.2,3.5-1.6c0.2-0.1,0.7,0.2,0.8,0.4
		c0.6,1.1,1.2,2.3,1.8,3.4C25.9,31.9,25.8,32,25.8,32.1z"/>
	<path class="st0" d="M22.1,24.3c0.5,0.9,0.8,1.5,1.2,2.3c-0.9,0.4-1.8,0.8-2.6,1.1c-0.1-0.1-0.1-0.1-0.2-0.2
		C21,26.5,21.5,25.6,22.1,24.3z"/>
</g>
</svg>
