<?xml version="1.0" encoding="UTF-8" standalone="no"?>
<svg width="48" height="48" viewBox="0 0 48 48" version="1.1" xmlns="http://www.w3.org/2000/svg">
    <defs>
        <style>.cls-1{fill:#fff;}</style>
    </defs>
        <path
            id="path1"
            d="m 13.529913,44.42806 c 1.353693,0.40272 3.472223,0.4721 3.472223,0.4721 l 2.450182,-7.07136 c 3.072882,0.57871 5.370774,0.81899 8.460578,0 l 2.597396,7.08659 c 0,0 1.78349,0.002 3.325007,-0.48733 L 26.767333,24.12267 c -0.12014,-0.68361 0.313042,-1.09818 0.578704,-1.69211 0.233511,-0.52118 0.373957,-1.09988 0.389186,-1.6752 0.0017,-2.38081 -1.857942,-4.13384 -4.052617,-4.078 -2.275895,0 -4.061077,1.76826 -4.059385,4.06616 0,0.46025 0.08122,0.91882 0.24705,1.34861 0.335038,0.87483 0.908666,1.25555 0.65654,2.19975 z m 10.321906,-18.27485 2.876596,8.46057 c -2.18283,0.54995 -3.913864,0.39596 -6.091616,0 l 2.876596,-8.46057 z"
            class="cls-1" />
        <path
            id="path2"
            d="m 16.575723,28.8606 c 0.189516,-0.56687 0.871439,-2.84445 0.871439,-2.84445 -0.998349,-1.30124 -1.886709,-2.59063 -1.885017,-5.30647 -0.0017,-4.83268 4.089843,-8.09339 8.120461,-8.09171 3.353773,-0.002 8.122155,2.61263 8.112002,8.10186 -0.0017,2.46372 -1.380767,4.77007 -1.96793,5.30309 l 0.962813,2.83768 c 1.538134,-0.98481 3.661738,-4.21507 3.731115,-8.14924 0.022,-6.03408 -5.145722,-10.86338 -10.795697,-10.81092 -6.87168,0.008 -10.932757,5.51629 -10.841384,10.838 -0.03554,3.09996 1.084647,6.24898 3.692198,8.12216 z"
            class="cls-1" />
        <path
            id="path3"
            d="M 14.20676,35.45985 C 14.423351,34.94883 15.029128,32.8066 15.029128,32.8066 9.4688363,28.64569 8.7784539,23.60319 8.7919906,20.56922 c 0,-7.50114 6.7126224,-14.7214 14.8906154,-14.73324 8.039241,-0.093 14.899077,6.90721 14.899077,14.90246 0.04399,5.58228 -3.550059,10.55034 -6.269288,12.01402 l 0.846058,2.70739 C 38.092662,32.4428 41.280608,27.22432 41.280608,20.73844 41.287308,11.50118 34.060351,3.0846 23.682606,3.0846 c -9.420006,0 -17.5980002,7.95294 -17.5980002,17.65384 0,6.93768 4.3436602,12.57749 8.1221542,14.72141 z"
            class="cls-1" />
</svg>
