<svg xmlns="http://www.w3.org/2000/svg" height="48" width="48" version="1.1" viewBox="0 0 48 48">
 <path fill="#fff" d="m7 5c-1.11 0-2 0.89-2 2v34c0 1.1 0.89 2 2 2h34c1.1 0 2-0.9 2-2v-34c0-1.11-0.9-2-2-2h-34zm16 3.5a4 4 0 0 1 4 4 4 4 0 0 1 -1.4 3.1l1.3 4.2a8.25 8.25 0 0 1 1.1 0 8.25 8.25 0 0 1 8.2 8.2 8.25 8.25 0 0 1 -8.2 8.2 8.25 8.25 0 0 1 -8.2 -8.2 8.25 8.25 0 0 1 0 -1.1l-4.2-1.3a4 4 0 0 1 -3.1 1.4 4 4 0 0 1 -4 -4 4 4 0 0 1 4 -4 4 4 0 0 1 4 3.7l4.2 1.4a8.25 8.25 0 0 1 3.4 -3.4l-1.4-4.2a4 4 0 0 1 -3.7 -4 4 4 0 0 1 4 -4z"/>
</svg>
