<?xml version="1.0" encoding="UTF-8" standalone="no"?>
<svg width="48" height="48" viewBox="0 0 48 48" version="1.1" >
    <defs>
        <style>.cls-1{fill:#fff;}</style>
    </defs>
    <path
        class="cls-1"
     d="M 24 2 A 22 22 0 0 0 2 24 A 22 22 0 0 0 24 46 A 22 22 0 0 0 46 24 A 22 22 0 0 0 24 2 z M 22.400391 10.369141 C 23.627765 10.445511 24.104347 11.791631 24.699219 12.880859 A 11.202135 11.202135 0 0 1 27.916016 13.441406 C 28.928045 12.51917 29.905348 11.251133 31.318359 12.080078 C 32.732714 12.909811 32.133535 14.386628 31.84375 15.716797 A 11.202135 11.202135 0 0 1 33.904297 18.160156 C 35.280982 18.094032 36.852299 17.744193 37.324219 19.359375 C 37.780836 20.922177 36.489053 21.63815 35.460938 22.412109 A 11.202135 11.202135 0 0 1 35.59375 24.066406 A 11.202135 11.202135 0 0 1 35.464844 25.673828 C 36.541154 26.479737 37.916996 27.207794 37.378906 28.736328 C 36.843282 30.25785 35.305774 29.954801 33.941406 29.894531 A 11.202135 11.202135 0 0 1 31.761719 32.484375 C 32.030223 33.790941 32.549793 35.211119 31.273438 35.984375 C 29.980607 36.76761 28.982714 35.568706 27.958984 34.669922 A 11.202135 11.202135 0 0 1 24.568359 35.261719 C 23.889351 36.413917 23.334145 37.811642 22.003906 37.615234 C 20.647661 37.414989 20.613948 35.84994 20.349609 34.501953 A 11.202135 11.202135 0 0 1 17.423828 32.820312 C 16.117571 33.309017 14.72213 34.140035 13.779297 32.964844 C 12.844472 31.799633 13.875535 30.600892 14.568359 29.425781 A 11.202135 11.202135 0 0 1 13.427734 26.304688 C 12.100487 25.841542 10.4727 25.59414 10.5 24.068359 C 10.52704 22.557063 12.111486 22.301307 13.414062 21.845703 A 11.202135 11.202135 0 0 1 14.556641 18.705078 C 13.863946 17.557164 12.851586 16.38488 13.779297 15.173828 C 14.720455 13.945224 16.11071 14.79565 17.416016 15.302734 A 11.202135 11.202135 0 0 1 20.267578 13.65625 C 20.472901 12.270339 20.416439 10.630647 21.976562 10.390625 C 22.127144 10.367395 22.268374 10.360941 22.400391 10.369141 z "
     id="circle4307"
     inkscape:label="path4307" />
</svg>
