<?xml version="1.0" encoding="utf-8"?>
<!-- Generator: Adobe Illustrator 21.1.0, SVG Export Plug-In . SVG Version: 6.00 Build 0)  -->
<svg version="1.0" id="Layer_1" xmlns="http://www.w3.org/2000/svg" xmlns:xlink="http://www.w3.org/1999/xlink" x="0px" y="0px"
	 viewBox="0 0 48 48" style="enable-background:new 0 0 48 48;" xml:space="preserve">
<style type="text/css">
	.st0{fill:#FFFFFF;}
</style>
<path class="st0" d="M24.1,42.8c-5,0-10,0-15.1,0c-2.3,0-3.5-1.1-3.5-3.5c0-10,0-20.1,0-30.1c0-2.3,1.1-3.5,3.5-3.5
	c10,0,20.1,0,30.1,0c2.4,0,3.5,1.1,3.5,3.5c0,10,0,20.1,0,30.1c0,2.3-1.1,3.5-3.5,3.5C34.2,42.8,29.1,42.8,24.1,42.8z M19.9,15
	c-2.9,2.9-5.8,5.9-8.8,8.8c-0.5,0.5-0.1,0.8,0.2,1.1c2,2,4,4,6,6c0.9,0.9,1.7,1.8,2.3,2.6c3.3-3.3,6.4-6.4,9.4-9.4
	C26.1,21.3,23,18.2,19.9,15z M28.3,15c-0.8,0.8-1.5,1.4-2.3,2.2c2.4,2.4,4.8,4.7,7.3,7.2c-2.4,2.4-4.8,4.8-7.1,7.1
	c0.7,0.7,1.4,1.4,2.2,2.2c2.9-3,5.9-5.9,8.8-8.8c0.4-0.4,0.2-0.7-0.1-1.1c-1-1-2-2-3-3C32.2,18.8,30.3,16.9,28.3,15z"/>
</svg>
