<svg width="48" height="48" version="1.1" viewBox="0 0 48 48" xmlns="http://www.w3.org/2000/svg">
  <path d="m29.758 5.9551v14.705h3.0156v-3.2871l1.2949-0.99414 3.1836 4.2812h3.4824l-4.6582-5.9824 4.3906-4.582h-3.4023l-3.0938 3.2129-1.3164 1.6055h-0.03906l0.1582-2.4004v-6.5586zm-17.23 3.9219c-1.5492 0-2.9601 0.31874-4.2324 0.95508l0.99805 1.9473c1.1932-0.51033 2.2319-0.76562 3.1152-0.76562 1.147 0 1.7207 0.53636 1.7207 1.6074v0.46289l-1.918 0.05664c-1.6546 0.0567-2.8947 0.35314-3.7188 0.88867-0.81743 0.52923-1.2246 1.3531-1.2246 2.4746 0 1.0711 0.30172 1.8969 0.9082 2.4766 0.61307 0.57963 1.4504 0.86914 2.5117 0.86914 0.86358 0 1.5637-0.1165 2.0977-0.34961 0.54056-0.23941 1.0647-0.66426 1.5723-1.2754h0.07813l0.58398 1.4355h2.1055v-7.0391c0-1.2601-0.39448-2.199-1.1855-2.8164-0.79106-0.61743-1.9289-0.92773-3.4121-0.92773zm11.127 0.019531c-1.3975 0-2.4794 0.25876-3.2441 0.77539-0.7581 0.51033-1.1367 1.2351-1.1367 2.1738 0 0.54813 0.08959 1.0107 0.26758 1.3887 0.18458 0.37172 0.47361 0.70237 0.86914 0.99219 0.40212 0.28982 1.0285 0.60509 1.8789 0.94531 0.5933 0.23941 1.0679 0.4501 1.4238 0.63281 0.35598 0.17641 0.60692 0.33751 0.75195 0.48242 0.14503 0.13861 0.2168 0.32202 0.2168 0.54883 0 0.60483-0.54632 0.90625-1.6406 0.90625-0.53397 0-1.154-0.08575-1.8594-0.25586-0.69877-0.17011-1.3283-0.3808-1.8887-0.63281v2.3828c0.49441 0.20161 1.0249 0.35232 1.5918 0.45312 0.56693 0.1071 1.2524 0.16016 2.0566 0.16016 1.5689 0 2.7468-0.28258 3.5312-0.84961 0.79106-0.56703 1.1855-1.3929 1.1855-2.4766 0-0.52293-0.09594-0.97354-0.28711-1.3516-0.19117-0.37802-0.48655-0.71214-0.88867-1.002-0.40212-0.28982-1.0349-0.60163-1.8984-0.93555-0.96905-0.37172-1.5986-0.65279-1.8887-0.8418-0.28346-0.18901-0.42578-0.41161-0.42578-0.66992 0-0.45992 0.44404-0.68945 1.334-0.68945 0.50101 0 0.99338 0.07189 1.4746 0.2168 0.48123 0.14491 0.99899 0.32983 1.5527 0.55664l0.9082-2.0781c-1.2591-0.55443-2.5531-0.83203-3.8848-0.83203zm-9.5254 5.8691v0.86914c0 0.63633-0.21091 1.1469-0.63281 1.5312-0.41531 0.38432-0.9731 0.57617-1.6719 0.57617-0.97564 0-1.4629-0.40601-1.4629-1.2188 0-0.56703 0.21409-0.98841 0.64258-1.2656 0.42849-0.27721 1.0822-0.42987 1.959-0.45508zm-8.1289 5.2188c-1.108 0-2 0.892-2 2v17.061c0 1.108 0.892 2 2 2h36c1.108 0 2-0.892 2-2v-17.061c0-1.108-0.892-2-2-2zm3.1289 2.877h3.1152v2.9297h-3.1152zm4.4609 0h3.1133v2.9297h-3.1133zm4.5039 0h3.1133v2.9297h-3.1133zm4.4141 0h3.1152v2.9297h-3.1152zm4.4609 0h3.1152v2.9297h-3.1152zm4.3711 0h7.5312v2.9297h-7.5312zm-22.211 4.1934h4.6934v2.8887h-4.6934zm6.0977 0h2.9824v2.8887h-2.9824zm4.2852 0h4.6934v2.8887h-4.6934zm5.9648 0h2.9824v2.8887h-2.9824zm4.5039 0h2.9824v2.8887h-2.9824zm4.1973 0h4.6934v2.8887h-4.6934zm-25.049 4.2793h6.0098v2.8867h-6.0098zm7.6035 0h4.3438v2.8867h-4.3438zm5.791 0h3.1152v2.8867h-3.1152zm4.459 0h4.5195v2.8867h-4.5195zm5.8789 0h6.0098v2.8867h-6.0098zm-17.592 4.0293h17.678v2.8047h-17.678z" fill="#fff"/>
</svg>
