<svg width="48" height="48" version="1.1" viewBox="0 0 48 48" xmlns="http://www.w3.org/2000/svg">
 <path d="m29.76 5.955v14.7h3.016v-3.287l1.295-0.9941 3.184 4.281h3.482l-4.658-5.982 4.391-4.582h-3.402l-3.094 3.213-1.316 1.606h-0.03906l0.1582-2.4v-6.559zm-17.23 3.922c-1.549 0-2.96 0.3187-4.232 0.9551l0.998 1.947c1.193-0.5103 2.232-0.7656 3.115-0.7656 1.147 0 1.721 0.5364 1.721 1.607v0.4629l-1.918 0.05664c-1.655 0.0567-2.895 0.3531-3.719 0.8887-0.8174 0.5292-1.225 1.353-1.225 2.475 0 1.071 0.3017 1.897 0.9082 2.477 0.6131 0.5796 1.45 0.8691 2.512 0.8691 0.8636 0 1.564-0.1165 2.098-0.3496 0.5406-0.2394 1.065-0.6643 1.572-1.275h0.07813l0.584 1.436h2.106v-7.039c0-1.26-0.3945-2.199-1.186-2.816-0.7911-0.6174-1.929-0.9277-3.412-0.9277zm11.13 0.01953c-1.398 0-2.479 0.2588-3.244 0.7754-0.7581 0.5103-1.137 1.235-1.137 2.174 0 0.5481 0.08959 1.011 0.2676 1.389 0.1846 0.3717 0.4736 0.7024 0.8691 0.9922 0.4021 0.2898 1.028 0.6051 1.879 0.9453 0.5933 0.2394 1.068 0.4501 1.424 0.6328 0.356 0.1764 0.6069 0.3375 0.752 0.4824 0.145 0.1386 0.2168 0.322 0.2168 0.5488 0 0.6048-0.5463 0.9062-1.641 0.9062-0.534 0-1.154-0.08575-1.859-0.2559-0.6988-0.1701-1.328-0.3808-1.889-0.6328v2.383c0.4944 0.2016 1.025 0.3523 1.592 0.4531 0.5669 0.1071 1.252 0.1602 2.057 0.1602 1.569 0 2.747-0.2826 3.531-0.8496 0.7911-0.567 1.186-1.393 1.186-2.477 0-0.5229-0.09594-0.9735-0.2871-1.352-0.1912-0.378-0.4866-0.7121-0.8887-1.002-0.4021-0.2898-1.035-0.6016-1.898-0.9356-0.969-0.3717-1.599-0.6528-1.889-0.8418-0.2835-0.189-0.4258-0.4116-0.4258-0.6699 0-0.4599 0.444-0.6894 1.334-0.6894 0.501 0 0.9934 0.07189 1.475 0.2168 0.4812 0.1449 0.999 0.3298 1.553 0.5566l0.9082-2.078c-1.259-0.5544-2.553-0.832-3.885-0.832zm-9.525 5.869v0.8691c0 0.6363-0.2109 1.147-0.6328 1.531-0.4153 0.3843-0.9731 0.5762-1.672 0.5762-0.9756 0-1.463-0.406-1.463-1.219 0-0.567 0.2141-0.9884 0.6426-1.266 0.4285-0.2772 1.082-0.4299 1.959-0.4551zm-8.129 5.219c-1.108 0-2 0.892-2 2v17.06c0 1.108 0.892 2 2 2h36c1.108 0 2-0.892 2-2v-17.06c0-1.108-0.892-2-2-2zm3.129 2.877h3.115v2.93h-3.115zm4.461 0h3.113v2.93h-3.113zm4.504 0h3.113v2.93h-3.113zm4.414 0h3.115v2.93h-3.115zm4.461 0h3.115v2.93h-3.115zm4.371 0h7.531v2.93h-7.531zm-22.21 4.193h4.693v2.889h-4.693zm6.098 0h2.982v2.889h-2.982zm4.285 0h4.693v2.889h-4.693zm5.965 0h2.982v2.889h-2.982zm4.504 0h2.982v2.889h-2.982zm4.197 0h4.693v2.889h-4.693zm-25.05 4.279h6.01v2.887h-6.01zm7.604 0h4.344v2.887h-4.344zm5.791 0h3.115v2.887h-3.115zm4.459 0h4.52v2.887h-4.52zm5.879 0h6.01v2.887h-6.01zm-17.59 4.029h17.68v2.805h-17.68z" fill="#fff"/>
</svg>
