<svg width="48" height="48" version="1.1" viewBox="0 0 48 48" xmlns="http://www.w3.org/2000/svg">
 <g>
  <path d="m29.758 7.9561v8.3828h2.8613l0.1543-2.2129v-6.1699zm2.8613 8.3828-0.0039 0.04492h0.03906l0.03906-0.04492zm0.07422 0h3.5293l-0.14648-0.17773 4.3906-4.3105h-3.4023l-3.0938 3.0215zm3.5293 0 4.5098 5.4512h-3.4805l-3.1836-4.0273-1.2949 0.93359v3.0938h-3.0156v-5.4512h-3.7988c0.18765 0.09648 0.38808 0.19338 0.52344 0.28516 0.40212 0.27265 0.6975 0.58773 0.88867 0.94336 0.19117 0.35562 0.28711 0.77758 0.28711 1.2695 0 1.0195-0.39448 1.7966-1.1855 2.3301-0.78447 0.53344-1.9623 0.80078-3.5312 0.80078-0.80425 0-1.4897-0.05158-2.0566-0.15234-0.56693-0.09483-1.0974-0.23611-1.5918-0.42578v-2.2402c0.56034 0.23708 1.1899 0.43567 1.8887 0.5957 0.70536 0.16003 1.3254 0.24023 1.8594 0.24023 1.0943 0 1.6406-0.28452 1.6406-0.85352 0-0.21338-0.07177-0.38523-0.2168-0.51562-0.14503-0.13632-0.39598-0.28717-0.75196-0.45312-0.35598-0.17189-0.83053-0.37047-1.4238-0.5957-0.85039-0.32006-1.4768-0.61798-1.8789-0.89063-0.15269-0.10525-0.27523-0.22116-0.39648-0.33789h-2.8887v5.4512h-2.1055l-0.58398-1.3516h-0.07813c-0.5076 0.57493-1.0317 0.97399-1.5723 1.1992-0.53397 0.2193-1.2341 0.33008-2.0977 0.33008-1.0613 0-1.8986-0.27307-2.5117-0.81836-0.60648-0.54529-0.9082-1.3225-0.9082-2.3301 0-1.055 0.40718-1.8302 1.2246-2.3281 0.09347-0.05715 0.21225-0.10099 0.31641-0.15234h-2.8086c-1.108 0-2 0.892-2 2v19.705c0 1.108 0.892 2 2 2h36c1.108 0 2-0.892 2-2v-19.705c0-1.108-0.892-2-2-2zm-27.414 0h8.3164v-1.1719c0-1.1854-0.39448-2.0695-1.1855-2.6504s-1.9289-0.87109-3.4121-0.87109c-1.5492 0-2.9601 0.2998-4.2324 0.89844l0.99805 1.8301c1.1932-0.48009 2.2319-0.71875 3.1152-0.71875 1.147 0 1.7207 0.50411 1.7207 1.5117v0.43555l-1.918 0.05273c-1.467 0.04729-2.5883 0.28224-3.4023 0.68359zm11.205 0h5.9453c-0.36981-0.19013-0.80212-0.38731-1.375-0.5957-0.96905-0.3497-1.5986-0.6132-1.8887-0.79102-0.28346-0.17781-0.42578-0.38785-0.42578-0.63086 0-0.43268 0.44404-0.64844 1.334-0.64844 0.50101 0 0.99338 0.0668 1.4746 0.20312 0.48123 0.13632 0.99899 0.31202 1.5527 0.52539l0.9082-1.9551c-1.2591-0.52158-2.5531-0.7832-3.8848-0.7832-1.3975 0-2.4794 0.24249-3.2441 0.72852-0.7581 0.4801-1.1367 1.1618-1.1367 2.0449 0 0.51566 0.08959 0.95102 0.26758 1.3066 0.11333 0.2147 0.27981 0.41004 0.47266 0.5957zm-5.8848 0.8457-1.166 0.03516c-0.87676 0.02371-1.5305 0.16694-1.959 0.42774-0.42849 0.26079-0.64258 0.65602-0.64258 1.1895 0 0.76459 0.48725 1.1484 1.4629 1.1484 0.69877 0 1.2566-0.18142 1.6719-0.54297 0.4219-0.36155 0.63281-0.84082 0.63281-1.4395zm-5 5.5371h3.1152v2.9297h-3.1152zm4.4609 0h3.1133v2.9297h-3.1133zm4.5039 0h3.1133v2.9297h-3.1133zm4.4141 0h3.1152v2.9297h-3.1152zm4.4609 0h3.1152v2.9297h-3.1152zm4.3711 0h7.5312v2.9297h-7.5312zm-22.211 4.1934h4.6934v2.8887h-4.6934zm6.0977 0h2.9824v2.8887h-2.9824zm4.2852 0h4.6934v2.8887h-4.6934zm5.9648 0h2.9824v2.8887h-2.9824zm4.5039 0h2.9824v2.8887h-2.9824zm4.1973 0h4.6934v2.8887h-4.6934zm-25.049 4.2793h6.0098v2.8867h-6.0098zm7.6035 0h4.3438v2.8867h-4.3438zm5.791 0h3.1152v2.8867h-3.1152zm4.459 0h4.5195v2.8867h-4.5195zm5.8789 0h6.0098v2.8867h-6.0098zm-17.592 4.0293h17.678v2.8047h-17.678z" fill="#fff" stroke-width=".8607"/>
 </g>
</svg>
