<?xml version="1.0" encoding="UTF-8"?>
<svg data-name="Layer 1" viewBox="0 0 48 48" xmlns="http://www.w3.org/2000/svg">
    <defs>
        <style>.cls-1{fill:#fff;}</style>
    </defs>
    <path class="cls-1" d="M 2.0407352,24.138569 C 1.9184568,23.975531 2.0347884,23.742867 2.238586,23.742867 h 1.9785077 c 0.1513552,-0.0025 0.2910976,-0.08163 0.3709702,-0.210216 0.053524,-0.06689 0.083897,-0.149327 0.08656,-0.234948 C 5.3602783,4.1752014 30.458907,-2.4032082 40.436151,13.924522 c 0.122061,0.174504 0.122061,0.406684 0,0.581187 l -4.006479,5.045195 c -0.08653,0.173362 -0.333901,0.173362 -0.420432,0 C 31.152378,6.5982921 12.058651,9.453785 11.203699,23.260606 c -0.0011,0.103414 0.03392,0.203976 0.09892,0.28441 v 0.06183 c 0.08493,0.09496 0.206476,0.148978 0.333874,0.148388 H 13.615 c 0.203798,0 0.320129,0.232664 0.197851,0.395701 l -5.6882096,7.172091 c -0.1036985,0.121987 -0.2920042,0.121987 -0.3957015,0 z m 43.7250208,0.123656 h -1.978508 c -0.14791,0.0038 -0.285359,0.07717 -0.37097,0.197851 -0.05234,0.07224 -0.08243,0.1582 -0.08656,0.247314 -0.305265,8.51367 -6.155636,15.820498 -14.396417,17.980427 -8.240782,2.159928 -16.923067,-1.337857 -21.3651099,-8.607247 -0.1185373,-0.175595 -0.1185373,-0.405592 0,-0.581187 l 4.0683069,-5.045195 c 0.08653,-0.173361 0.333901,-0.173361 0.420433,0 4.856861,12.952612 23.950588,10.097119 24.80554,-3.709701 -8.68e-4,-0.106877 -0.03549,-0.210752 -0.09893,-0.296777 v 0 c -0.08493,-0.09496 -0.206476,-0.148978 -0.333874,-0.148388 h -2.040336 c -0.203797,0 -0.320128,-0.232664 -0.19785,-0.395701 L 39.87969,16.73153 c 0.103699,-0.121987 0.292005,-0.121987 0.395702,0 l 5.688209,7.172091 c 0.07945,0.155868 -0.02363,0.342696 -0.19785,0.358604 z"/>
</svg>
