<?xml version="1.0" encoding="utf-8"?>
<!-- Generator: Adobe Illustrator 21.1.0, SVG Export Plug-In . SVG Version: 6.00 Build 0)  -->
<svg version="1.0" id="Layer_1" xmlns="http://www.w3.org/2000/svg" xmlns:xlink="http://www.w3.org/1999/xlink" x="0px" y="0px"
	 viewBox="0 0 48 48" style="enable-background:new 0 0 48 48;" xml:space="preserve">
<style type="text/css">
	.st0{fill:#FFFFFF;}
</style>
<path class="st0" d="M14.6,10c6.3-3.2,12.6-3.3,18.9,0c1-1.6,1.9-3.1,2.9-4.6c0.2-0.3,0.4-0.6,0.6-0.9c0.3-0.5,0.8-0.6,1.3-0.4
	c0.5,0.3,0.6,0.8,0.3,1.3c-0.6,1.1-1.2,2.1-1.9,3.1c-0.3,0.5-0.5,0.9-0.9,1.4c-0.6,0.8-0.5,1.3,0.3,1.9c3.6,3,6,6.8,6.9,11.4
	c0.2,1.3,0.4,2.5,0.4,3.8c0,4.3,0,8.6,0,12.9c0,2.4-1.1,3.4-3.4,3.4c-10.6,0-21.2,0-31.9,0c-2.2,0-3.3-1.1-3.3-3.3
	c0-4.2,0-8.5,0-12.7c0-6.3,2.4-11.5,7.2-15.5c0.8-0.6,0.9-1.1,0.3-1.9C11.3,8.5,10.5,7,9.7,5.6C9.3,5,9.1,4.4,9.9,4
	c0.7-0.4,1.1,0.2,1.4,0.7C12.3,6.4,13.4,8.1,14.6,10z M30.7,24.5c-4.1-3.6-8.9-3.4-12.6-0.5c-3.1,2.6-4.3,7.6-1.7,11.6
	c2.3,3.5,5.8,5.2,11.1,3.6c3.1-0.9,6.4-5.3,5.5-8.5c-0.7-0.1-1.3-0.1-2,0.1c-0.1,4.2-3.3,6.6-6.7,6.8c-2.7,0.1-5.6-1.4-6.8-5.1
	c-0.8-2.7,0.8-6.4,3.4-7.7c2.8-1.3,6-0.7,7.8,1.4c-0.9,0.8-1.8,1.7-2.6,2.7c2.4,0,4.6,0,6.9,0c0-2.4,0-4.7,0-7.3
	C32.3,22.7,31.5,23.6,30.7,24.5z M30,18.5c0,1.4,0.8,2.2,2.2,2.3c1.3,0,2.3-1,2.3-2.3c0-1.2-1-2.2-2.2-2.2C31,16.2,30,17.2,30,18.5z
	 M18,18.5c0-1.3-1.1-2.3-2.3-2.2c-1.2,0-2.2,1-2.2,2.3c0,1.3,1.1,2.3,2.3,2.2C17.1,20.7,18,19.7,18,18.5z M28.2,32.9
	c-0.9-0.5-1.7-1.1-2.7-1.6C25,31,24.7,30.7,24.7,30c0-1.1,0.2-2.1-0.1-3.2c-0.5,0-1-0.2-1.4,0.2c0,1.4,0,2.9,0,4.3
	c0,0.4,0.1,0.7,0.5,0.9c1.3,0.7,2.6,1.5,4,2.3C27.8,33.9,28.3,33.6,28.2,32.9z"/>
</svg>
