<svg xmlns="http://www.w3.org/2000/svg" viewBox="0 0 48 48"><defs><style>.cls-1{fill:#2b2b2b;}.cls-2{fill:#fff;}</style></defs><title>apkupdater</title><g id="Layer_2" data-name="Layer 2"><rect class="cls-1" x="-566.86" y="-445.59" width="1581.09" height="513.47"/></g><g id="Layer_1" data-name="Layer 1"><path class="cls-2" d="M28,34H25.64V29.85a.36.36,0,0,0-.36-.36H22.72a.36.36,0,0,0-.36.36V34H20a.4.4,0,0,0-.29.67l4,4.27a.41.41,0,0,0,.58,0l4-4.27A.4.4,0,0,0,28,34Z"/><path class="cls-2" d="M39.41,13.43l2.66-2.62a3.1,3.1,0,0,0,0-4.38h0a3.11,3.11,0,0,0-4.4,0L35.05,9.1a18.91,18.91,0,0,0-22.1,0L10.31,6.46a3.26,3.26,0,0,0-2.23-.94h0a3.06,3.06,0,0,0-2.18.9h0a3.1,3.1,0,0,0,0,4.38l2.67,2.62A19,19,0,0,0,5,24.52v16a2,2,0,0,0,2,2H41a2,2,0,0,0,2-2V24.52A19,19,0,0,0,39.41,13.43ZM12.85,20.6a3.15,3.15,0,0,1,6.3,0h0a3.15,3.15,0,1,1-6.3,0ZM24,40.84a6.59,6.59,0,1,1,6.58-6.58A6.58,6.58,0,0,1,24,40.84Zm8-17.09h0a3.15,3.15,0,1,1,3.15-3.15A3.15,3.15,0,0,1,32,23.75Z"/></g></svg>