<svg
   xmlns:svg="http://www.w3.org/2000/svg"
   viewBox="0 0 48 48"
   width="48"
   height="48"
   >
  <path
     d="m 40.470944,1.0059275 c 0.87334,-0.06958 1.471946,0.478885 1.560726,1.3570309 0.0216,0.2087287 0.03578,0.4192048 0.03578,0.6303458 0.0047,5.386412 0.0051,10.7709248 0.0028,16.1550578 0,5.367228 0.0021,10.735215 -0.0028,16.099974 0,1.175654 -0.162345,2.329464 -0.685391,3.399415 -0.813357,1.6651 -2.1456,2.710871 -3.911503,3.212321 -0.983716,0.280717 -1.986807,0.441618 -3.011361,0.487204 -2.682379,0.127167 -5.000637,-1.693021 -5.480434,-4.329757 -0.398273,-2.17618 0.642236,-4.574594 2.928736,-5.69507 0.911728,-0.451058 1.887258,-0.702733 2.870993,-0.913855 1.065278,-0.230325 2.135342,-0.432406 3.195796,-0.677148 0.772575,-0.17754 1.288461,-0.649606 1.439599,-1.45337 0.03599,-0.17754 0.04956,-0.362659 0.04956,-0.545023 0.0025,-5.115363 0.0021,-10.227308 -0.0027,-15.340201 0,-0.175149 -0.02838,-0.352288 -0.07157,-0.520236 -0.110376,-0.424675 -0.419394,-0.684613 -0.856055,-0.660623 -0.451058,0.02639 -0.896646,0.0984 -1.340506,0.187176 -2.14256,0.422282 -4.281702,0.85634 -6.421793,1.288214 -2.185677,0.439073 -4.371355,0.882534 -6.559502,1.324 -1.290816,0.261514 -2.582089,0.520217 -3.872944,0.781731 -0.04559,0.0096 -0.09169,0.02375 -0.134879,0.03577 -0.779755,0.215927 -1.062296,0.575642 -1.09829,1.381799 -0.0047,0.122362 -0.0027,0.244077 -0.0027,0.368851 -0.0025,7.332192 -7.06e-4,14.666092 -0.0055,21.995434 0,1.185246 -0.13051,2.356057 -0.605577,3.457348 -0.784561,1.809058 -2.172192,2.934624 -4.043513,3.479192 -0.988503,0.285522 -2.003712,0.448475 -3.030545,0.48445 -2.7015638,0.100765 -4.9430846,-1.69344 -5.4061664,-4.351791 -0.4006854,-2.291286 0.6472318,-4.750672 3.2480304,-5.851963 1.005294,-0.422282 2.060885,-0.654583 3.121528,-0.875335 0.808551,-0.170341 1.618887,-0.325468 2.425006,-0.498221 1.077283,-0.235131 1.641756,-0.910873 1.687343,-2.012069 0.0048,-0.143958 0.0027,-0.279939 0.0027,-0.423897 0,-8.342309 -0.0021,-16.687088 0.0027,-25.0288282 0,-0.3479002 0.03679,-0.7049366 0.118353,-1.0432256 0.196744,-0.8037641 0.770923,-1.2624961 1.538693,-1.4616327 0.71979,-0.1871435 1.450673,-0.3164265 2.179979,-0.4651901 2.065824,-0.4174764 4.132977,-0.8346109 6.1988,-1.249675 2.135342,-0.431874 4.267266,-0.8590945 6.402609,-1.2909686 C 34.822779,2.0616837 36.70846,1.675472 38.598965,1.303582 39.217991,1.1812186 39.846912,1.0566937 40.470724,1.0063018 Z"
     style="fill:#ffffff"
     />
</svg>
