<svg width="48" height="48">
     <path
     style="fill:#ffffff;stroke-width:1.26315796"
     d="M 1.4804474,0 C 0.6583405,0 -0.0035,0.6618406 -0.0035,1.4839474 V 26.711053 c 0,0.822107 0.6618405,1.483947 1.4839474,1.483947 H 26.707553 c 0.822107,0 1.483947,-0.66184 1.483947,-1.483947 V 1.4839474 C 28.1915,0.6618406 27.52966,0 26.707553,0 Z M 21.486203,1.7100176 c 0.459789,-0.036632 0.774941,0.2521237 0.821678,0.7144395 0.01137,0.1098947 0.01884,0.2207014 0.01884,0.3318593 0.0025,2.8357893 0.0027,5.6706372 0.0015,8.5051636 0,2.825683 0.0011,5.651759 -0.0015,8.47618 0,0.618947 -0.08547,1.226353 -0.360843,1.789722 -0.42821,0.876631 -1.129582,1.427177 -2.059266,1.691177 -0.517895,0.14779 -1.046021,0.232504 -1.585389,0.256504 -1.412211,0.06695 -2.632661,-0.89133 -2.885293,-2.279541 -0.209684,-1.145684 0.338125,-2.408433 1.541914,-2.998327 0.48,-0.237474 0.993587,-0.369967 1.511482,-0.481124 0.560842,-0.121264 1.124168,-0.227653 1.682484,-0.356495 0.406736,-0.09347 0.678335,-0.342001 0.757914,-0.765161 0.01895,-0.09347 0.02609,-0.190934 0.02609,-0.286935 0.0013,-2.693053 0.0011,-5.384419 -0.0014,-8.0762094 0,-0.092211 -0.01494,-0.1854711 -0.03768,-0.2738922 -0.05811,-0.223579 -0.220797,-0.3604323 -0.450692,-0.3478002 -0.237473,0.013895 -0.47206,0.051806 -0.705744,0.098543 -1.128001,0.222316 -2.254171,0.4508417 -3.380908,0.6782107 -1.150737,0.2311575 -2.301366,0.4646284 -3.453366,0.6970498 -0.679579,0.1376842 -1.359399,0.2738792 -2.038978,0.4115634 -0.024,0.00505 -0.04827,0.012505 -0.07101,0.018834 -0.410525,0.1136842 -0.55927,0.3030606 -0.578217,0.7274829 -0.0025,0.06442 -0.0014,0.128504 -0.0014,0.194188 -0.0013,3.860211 -3.72e-4,7.721349 -0.0029,11.580296 0,0.623999 -0.06871,1.240366 -0.3188158,1.820155 -0.413054,0.952421 -1.143564,1.54501 -2.128828,1.831747 -0.520421,0.150316 -1.0549014,0.236107 -1.5955324,0.255054 -1.4223162,0.05305 -2.6023757,-0.891554 -2.8461652,-2.291133 -0.2109473,-1.206317 0.3407544,-2.501141 1.7100179,-3.080931 0.5292625,-0.222315 1.0850394,-0.344623 1.6433553,-0.460835 0.4256844,-0.08968 0.8522954,-0.171352 1.2767164,-0.262299 0.567158,-0.123789 0.86434,-0.479552 0.88834,-1.059342 0.0025,-0.07579 0.0014,-0.147381 0.0014,-0.223171 0,-4.392 -0.0011,-8.7852789 0.0014,-13.17728 0,-0.1831576 0.01937,-0.3711293 0.06231,-0.5492342 0.103578,-0.4231579 0.405873,-0.6646659 0.810084,-0.7695082 0.3789468,-0.098526 0.7637408,-0.1665932 1.1477408,-0.2449093 1.087579,-0.2197892 2.175946,-0.4393954 3.263525,-0.6579217 1.12421,-0.2273684 2.246552,-0.452291 3.370763,-0.6796594 0.992842,-0.2008422 1.985569,-0.4041659 2.980937,-0.5999555 0.325895,-0.064421 0.657013,-0.1299836 0.985434,-0.1565099 z"
	 />
</svg>
