<?xml version="1.0" encoding="UTF-8" standalone="no"?>
<svg
   xmlns:dc="http://purl.org/dc/elements/1.1/"
   xmlns:cc="http://creativecommons.org/ns#"
   xmlns:rdf="http://www.w3.org/1999/02/22-rdf-syntax-ns#"
   xmlns:svg="http://www.w3.org/2000/svg"
   xmlns="http://www.w3.org/2000/svg"
   id="svg4679"
   viewBox="0 0 48 48"
   version="1.1">
  <metadata
     id="metadata4685">
    <rdf:RDF>
      <cc:Work
         rdf:about="">
        <dc:format>image/svg+xml</dc:format>
        <dc:type
           rdf:resource="http://purl.org/dc/dcmitype/StillImage" />
        <dc:title></dc:title>
      </cc:Work>
    </rdf:RDF>
  </metadata>
  <defs
     id="defs4683" />
  <path
     id="path4667"
     d="M 6 8 C 4.892 8 4 8.892 4 10 L 4 38 C 4 39.108 4.892 40 6 40 L 42 40 C 43.108 40 44 39.108 44 38 L 44 21 L 43.998047 21.845703 A 2 2 0 0 0 43.427734 20.427734 L 31.597656 8.5996094 A 2 2 0 0 0 30.189453 8 L 6 8 z M 19 12.5 C 25.351 12.499999 30.5 17.649 30.5 24 C 30.500001 30.351 25.351 35.5 19 35.5 C 12.649 35.500001 7.5 30.351 7.5 24 C 7.4999994 17.649 12.649 12.5 19 12.5 z "
     style="fill:#ffffff" />
  <rect
     id="rect4669"
     height="8"
     width="2.5"
     y="23"
     x="17.75"
     style="fill:#ffffff;paint-order:markers fill stroke" />
  <rect
     id="rect4671"
     height="2.5"
     width="2.5"
     y="17.5"
     x="17.75"
     style="fill:#ffffff;paint-order:markers fill stroke" />
</svg>
