<?xml version="1.0" encoding="UTF-8" standalone="no"?>
<svg
   xmlns:dc="http://purl.org/dc/elements/1.1/"
   xmlns:cc="http://creativecommons.org/ns#"
   xmlns:rdf="http://www.w3.org/1999/02/22-rdf-syntax-ns#"
   xmlns:svg="http://www.w3.org/2000/svg"
   xmlns="http://www.w3.org/2000/svg"
   xmlns:sodipodi="http://sodipodi.sourceforge.net/DTD/sodipodi-0.dtd"
   xmlns:inkscape="http://www.inkscape.org/namespaces/inkscape"
   width="48"
   height="48"
   viewBox="0 0 48 48"
   version="1.1"
   id="svg12"
   sodipodi:docname="appmanager.svg"
   inkscape:version="0.92.3 (2405546, 2018-03-11)">
  <metadata
     id="metadata18">
    <rdf:RDF>
      <cc:Work
         rdf:about="">
        <dc:format>image/svg+xml</dc:format>
        <dc:type
           rdf:resource="http://purl.org/dc/dcmitype/StillImage" />
        <dc:title></dc:title>
      </cc:Work>
    </rdf:RDF>
  </metadata>
  <defs
     id="defs16" />
  <sodipodi:namedview
     pagecolor="#ffffff"
     bordercolor="#666666"
     borderopacity="1"
     objecttolerance="10"
     gridtolerance="10"
     guidetolerance="10"
     inkscape:pageopacity="0"
     inkscape:pageshadow="2"
     inkscape:window-width="1024"
     inkscape:window-height="581"
     id="namedview14"
     showgrid="false"
     inkscape:pagecheckerboard="true"
     inkscape:zoom="8.5208333"
     inkscape:cx="24"
     inkscape:cy="24"
     inkscape:window-x="0"
     inkscape:window-y="19"
     inkscape:window-maximized="1"
     inkscape:current-layer="svg12" />
  <path
     d="M 7 5 C 5.892 5 5 5.892 5 7 L 5 41 C 5 42.108 5.892 43 7 43 L 41 43 C 42.108 43 43 42.108 43 41 L 43 7 C 43 5.892 42.108 5 41 5 L 7 5 z M 20.996094 9 L 26.996094 9 C 27.371095 9 27.678594 9.2783594 27.746094 9.6308594 L 28.308594 13.605469 C 29.223594 13.987969 30.07125 14.489531 30.84375 15.082031 L 34.578125 13.576172 C 34.915625 13.441171 35.306641 13.575938 35.494141 13.898438 L 38.494141 19.09375 C 38.681641 19.42375 38.5975 19.831641 38.3125 20.056641 L 35.142578 22.537109 C 35.202576 23.017109 35.246094 23.505 35.246094 24 C 35.246094 24.495 35.202578 24.982891 35.142578 25.462891 L 38.306641 27.943359 C 38.591641 28.175859 38.673828 28.58375 38.486328 28.90625 L 35.486328 34.101562 C 35.301283 34.418428 34.913137 34.55463 34.570312 34.423828 L 30.837891 32.917969 C 30.061994 33.520474 29.207438 34.016375 28.300781 34.394531 L 27.738281 38.369141 C 27.678281 38.721641 27.371094 39 26.996094 39 L 20.996094 39 C 20.621094 39 20.313906 38.721641 20.253906 38.369141 L 19.691406 34.394531 C 18.776406 34.012031 17.92875 33.510469 17.15625 32.917969 L 13.421875 34.423828 C 13.084375 34.558828 12.693359 34.424062 12.505859 34.101562 L 9.5058594 28.90625 C 9.3183594 28.57625 9.4025 28.168359 9.6875 27.943359 L 12.851562 25.462891 C 12.791565 24.982891 12.746094 24.495 12.746094 24 C 12.75068 23.510792 12.786215 23.021954 12.851562 22.537109 L 9.6875 20.056641 C 9.402501 19.824141 9.3183594 19.41625 9.5058594 19.09375 L 12.505859 13.898438 C 12.690904 13.581571 13.07905 13.445369 13.421875 13.576172 L 17.15625 15.082031 C 17.932147 14.479526 18.784749 13.983625 19.691406 13.605469 L 20.253906 9.6308594 C 20.313906 9.2783594 20.621094 9 20.996094 9 z M 24 19.5 A 4.5000002 4.5000002 0 0 0 19.5 24 A 4.5000002 4.5000002 0 0 0 24 28.5 A 4.5000002 4.5000002 0 0 0 28.5 24 A 4.5000002 4.5000002 0 0 0 24 19.5 z "
     id="rect10"
     style="fill:#ffffff" />
  <path
     style="fill:#ff00ff;fill-opacity:1;stroke:none;stroke-opacity:1"
     id="path1022"
     cy="24"
     r="4" />
</svg>
