<?xml version="1.0" encoding="UTF-8"?>
<svg version="1.1" viewBox="0 0 48 48" xmlns="http://www.w3.org/2000/svg">
    <path d="m7 5c-1.108 0-2 0.892-2 2v34c0 1.108 0.892 2 2 2h34c1.108 0 2-0.892 2-2v-34c0-1.108-0.892-2-2-2h-34zm1 3h32v32h-32v-32z" fill="#fff"/>
    <path d="m12.572 12.572v4.5703h4.5703v-4.5703zm9.1426 0v4.5703h13.713v-4.5703zm-9.1426 9.1426v4.5703h4.5703v-4.5703zm9.1426 0v4.5703h13.713v-4.5703zm-9.1426 9.1426v4.5703h4.5703v-4.5703zm9.1426 0v4.5703h13.713v-4.5703z" fill="#fff"/>
</svg>
