<?xml version="1.0" encoding="utf-8"?>
<!-- Generator: Adobe Illustrator 21.1.0, SVG Export Plug-In . SVG Version: 6.00 Build 0)  -->
<svg version="1.0" id="Layer_1" xmlns="http://www.w3.org/2000/svg" xmlns:xlink="http://www.w3.org/1999/xlink" x="0px" y="0px"
	 viewBox="0 0 48 48" style="enable-background:new 0 0 48 48;" xml:space="preserve">
<style type="text/css">
	.st0{fill:#FFFFFF;}
	.st1{fill:none;stroke:#FFFFFF;stroke-miterlimit:10;}
</style>
<path class="st0" d="M6,3.8h36c1.1,0,2,1.1,2,2.5v35.4c0,1.4-0.9,2.5-2,2.5H6c-1.1,0-2-1.1-2-2.5V6.3C4,4.9,4.9,3.8,6,3.8z"/>
<path class="st0" d="M37.1,24c0,4.9,0,9.7,0,14.6c0,2-0.9,2.9-2.9,2.9c-6.7,0-13.5,0-20.2,0c-2.1,0-3-0.9-3-3c0-7.1,0-14.1,0-21.2
	c0-0.8,0.2-1.4,0.8-2c2.7-2.6,5.4-5.3,8-8c0.6-0.6,1.2-0.8,2-0.8c4.1,0,8.2,0,12.4,0c2.1,0,2.9,0.8,2.9,2.9
	C37.1,14.3,37.1,19.1,37.1,24z M24,23.7C24,23.7,24,23.7,24,23.7c1.4,0,2.7,0,4.1,0c0.8,0,0.9-0.3,0.8-1c-0.3-1-0.6-1.9-1.4-2.6
	c-0.5-0.4-0.5-0.8-0.1-1.3c0.1-0.1,0.5-0.1,0.2-0.4c-0.2-0.2-0.5,0-0.5,0.1c-0.6,0.8-1.3,0.5-2,0.3c-0.8-0.2-1.6-0.2-2.3,0.1
	c-0.8,0.3-1.3,0.2-1.9-0.5c-0.2-0.2-0.4-0.6-0.7-0.2c-0.3,0.3,0.1,0.5,0.3,0.7c0.7,0.5,0.4,0.9-0.1,1.4c-0.7,0.6-1,1.5-1.3,2.4
	c-0.2,0.7,0,1.1,0.8,1.1C21.3,23.7,22.6,23.7,24,23.7z M19,25.7c-0.2-0.2-0.4-0.2-0.4-0.3c-0.4-0.7-0.9-1.3-1.8-0.8
	c-0.9,0.6-0.5,1.3-0.1,2c0.8,1.5,1.8,2.9,2.5,4.5c0.3,0.7,1,1.3,1.8,0.8c0.8-0.4,0.7-1.1,0.3-1.8c-0.3-0.5-0.5-1,0.2-1.2
	c2.4-0.7,2.4-3.3,4.2-4.8c-1.8,0-3.4,0.1-4.9,0C19.6,23.9,18.7,24.1,19,25.7z M19,31.7c0.2,0.9-0.3,1.8,0.7,1.9
	c1.1,0.1,1.1,0.6,1,1.4c0,0.5,0,1,0,1.5c0,0.7,0.3,1.2,1.1,1.2c0.8,0,1.1-0.5,1.2-1.2c0-0.7,0-1.4,0-2.1c0-0.5,0.2-0.7,0.7-0.7
	c0.9-0.1,1.6,0,1.4,1.2c-0.1,0.5,0,1.1,0,1.6c0,0.7,0.4,1.2,1.1,1.2c0.8,0,1.1-0.5,1.1-1.2c0-0.7,0-1.3,0-2c0-0.5,0.1-0.7,0.7-0.8
	c1.3-0.1,1-1.2,1-2c-0.1-1.2-0.9-0.2-1.3-0.4c-0.3-0.1-0.6,0-0.9-0.1c-1-0.4-1.8-0.1-2.6,0.4c-0.5,0.4-1.1,0.6-1.6,0.9
	C21.1,33.4,20.3,33.3,19,31.7z M31.7,28.7C31.7,28.7,31.7,28.7,31.7,28.7c0-1,0-2.1,0-3.1c0-0.7-0.4-1.1-1.1-1.1c-0.6,0-1,0.4-1,1
	c0,0.7,0,1.4,0,2.1c0,0.5,0.1,0.8,0.7,0.5c0.7-0.4,0.8,0,0.6,0.6c-0.2,0.6-0.7,1.1-1.1,1.7c-0.4,0.6-0.4,1.4,0,2
	c0.3,0.4,0.7,0.6,1.2,0.4c0.7-0.3,0.7-0.9,0.7-1.6C31.7,30.3,31.7,29.5,31.7,28.7z M29.5,11.2c0,0.7,0,1.4,0,2.1
	c0,0.9,0.6,0.8,1.1,0.8c0.5,0,1.1,0.1,1.1-0.7c0-1.3,0-2.6,0-3.8c0-0.6-0.2-0.8-0.8-0.8c-1-0.1-1.6,0.2-1.4,1.3
	C29.6,10.3,29.5,10.8,29.5,11.2z M29,26.7C29,26.7,29,26.7,29,26.7c0-0.5,0-1.1,0-1.6c0-0.3-0.1-0.6-0.5-0.4
	c-0.8,0.5-1.6,0.9-2.3,1.5c-0.7,0.6-0.7,1.5-0.2,2.3c0.5,0.8,1.3,1,2.2,0.8c1-0.2,0.9-0.9,0.9-1.7C29,27.3,29,27,29,26.7z
	 M28.3,11.4c0-0.7,0-1.3,0-2c0.1-0.9-0.5-0.8-1.1-0.8c-0.6,0-1.1,0-1.1,0.8c0,1.3,0,2.6,0,3.8c0,0.5,0.1,0.7,0.7,0.8
	c1,0.1,1.6-0.1,1.4-1.3C28.3,12.3,28.3,11.8,28.3,11.4z M25,11.4c0-0.7,0-1.3,0-2c0.1-0.8-0.5-0.8-1.1-0.8c-0.6,0-1.1,0-1,0.8
	c0,1.3,0,2.6,0,3.8c0,0.6,0.2,0.8,0.8,0.8c0.9,0,1.4-0.1,1.3-1.2C25,12.4,25,11.9,25,11.4z M32.9,11.4c0,0.6,0,1.2,0,1.9
	c-0.1,0.8,0.5,0.8,1,0.8c0.5,0,1.1,0.1,1.1-0.8c-0.1-1.1,0-2.2,0-3.3c0-0.7,0.1-1.4-1-1.3c-1.1,0-1.1,0.5-1.1,1.3
	C32.9,10.4,32.9,10.9,32.9,11.4z M21.8,12.8c0-0.4,0-0.5,0-0.6c0-0.7,0.1-1.3-1-1.4c-1.2,0-1.1,0.6-1.1,1.4c0,0.3,0,0.6,0,0.9
	c-0.1,0.7,0.2,1,1,1C22,14.2,21.8,13.3,21.8,12.8z"/>
<path class="st1" d="M22.3,21.6c0,0.3-0.1,0.5-0.4,0.5c-0.3,0-0.5-0.1-0.5-0.4c0-0.4,0.1-0.5,0.5-0.5C22.2,21.2,22.3,21.4,22.3,21.6
	z"/>
<path class="st1" d="M26.4,21.6c0,0.3-0.2,0.5-0.5,0.5c-0.2,0-0.4-0.1-0.4-0.4c0-0.3,0.1-0.5,0.4-0.5C26.3,21.2,26.4,21.4,26.4,21.6
	z"/>
</svg>
