<?xml version="1.0" encoding="utf-8"?>
<!-- Generator: Adobe Illustrator 21.1.0, SVG Export Plug-In . SVG Version: 6.00 Build 0)  -->
<svg version="1.0" id="Layer_1" xmlns="http://www.w3.org/2000/svg" xmlns:xlink="http://www.w3.org/1999/xlink" x="0px" y="0px"
	 viewBox="0 0 48 48" style="enable-background:new 0 0 48 48;" xml:space="preserve">
<style type="text/css">
	.st0{fill:#FFFFFF;}
</style>
<g>
	<path class="st0" d="M7.9,19.8c-0.2,0-0.4,0-0.6-0.1c0-3.3,0-6.5,0-9.8c0.2,0,0.5-0.1,0.7-0.1C8.1,9.9,8.3,10,8.4,10
		c0.5,0,1,0,1.5,0c3.7,0,7.4,0,11,0c2.8,0,5.7,0,8.5,0c0,0,0,0,0,0c0,0.5,0,0.9,0,1.4c0,0.4,0,0.8,0,1.3c0,0.4,0,0.8,0,1.3
		c0,0.5,0,0.9,0,1.4c0,0.4,0,0.9,0,1.3c0,0.5,0,0.9,0,1.4c0,0.4,0,0.9,0,1.3c0,0.2,0,0.3-0.1,0.5c-0.2,0-0.4,0-0.6,0
		c-4.4,0-8.9,0-13.3,0c-2.1,0-4.2,0-6.2,0C8.8,19.8,8.3,19.8,7.9,19.8z M15.1,16.8C15.1,16.8,15.1,16.8,15.1,16.8
		c0-0.2,0-0.3-0.1-0.5c-0.4-1.1-0.8-2.2-1.2-3.3c-0.1-0.2-0.3-0.4-0.4-0.7c-0.1-0.3-0.3-0.6-0.4-0.9c-0.6,0-1.1,0-1.7,0
		c-0.7,1.8-1.4,3.7-2.1,5.5c0.1,0.1,0.2,0.1,0.3,0.2c0,0.3,0.2,0.4,0.4,0.4c0.3,0,0.6,0,0.9,0c0.2-0.3,0.3-0.7,0.5-1.1
		c0.3,0,0.6,0,0.9,0c0.4,0,0.8-0.1,1.1-0.1c0.2,0.3,0.3,0.5,0.5,0.8c0.4,0.4,0.9,0.1,1.5,0.2C15.2,17.1,15.2,16.9,15.1,16.8z
		 M26.9,11.8c0-0.1,0-0.2,0-0.3c-0.5,0-0.9,0-1.4,0c-0.5,1.2-0.9,2.5-1.3,3.7c-0.1-0.1-0.2-0.1-0.2-0.2c-0.2-0.6-0.4-1.2-0.6-1.8
		c-0.2-0.4-0.4-0.8-0.7-1.2c-0.1-0.2-0.1-0.3-0.2-0.5c-0.5,0-0.9,0-1.5,0c0.7,1.9,1.4,3.8,2.2,5.7c0.1,0.2,0.2,0.3,0.3,0.4
		c0.6,0,1,0,1.6,0c0.1-0.1,0.2-0.2,0.3-0.4c0.3-0.7,0.5-1.3,0.7-2c0.3-0.9,0.7-1.9,1-2.8C27,12.1,27.2,11.9,26.9,11.8z M16.1,17.2
		c0.4,0.5,1,0.2,1.4,0.2c0.3-0.7-0.1-1.4,0.3-2c0.4,0,0.9,0,1.3,0c0.3,0,0.7-0.1,1-0.3c0.6-0.3,1-1.4,0.5-2.2
		c-0.2-0.7-0.6-1.2-1.3-1.3c-1.1-0.2-2.2-0.1-3.4-0.1c0,1.9,0,3.7,0,5.4C15.9,17,16,17.1,16.1,17.2z"/>
	<path class="st0" d="M7.9,19.8c0.4,0,0.9,0,1.3,0c0,6.4,0,12.8,0,19.2c0,0.1,0,0.2,0,0.3c0,0.6,0.3,0.8,0.9,0.9c0.2,0,0.3,0,0.5,0
		c8.5,0,17,0,25.4,0c0.3,0,0.6,0,0.8,0c0.9,0,1.1-0.2,1.1-1.1c0-10.6,0-21.2,0-31.8c0-0.8-0.2-1.1-1.1-1.1c-3.7,0-7.4,0-11,0
		C25.9,5.8,26,5.4,26.1,5c0.2,0,0.5,0,0.7,0c3.2,0,6.5,0.1,9.7,0c1.8,0,2.8,1.3,2.8,2.8c0,10.3,0,20.6,0,30.9c0,1.4-0.6,2.4-1.8,2.7
		c-0.2,0.1-0.5,0.1-0.8,0.1c-8.8,0-17.5,0-26.3,0c-1.2,0-2.4-0.8-2.6-2.6c0-0.1,0-0.1,0-0.2C7.9,32.3,7.9,26.1,7.9,19.8z"/>
	<path class="st0" d="M26.1,5c-0.1,0.4-0.2,0.8-0.3,1.2c-1.2,0-2.5,0-3.7,0c-3.9,0-7.7,0-11.6,0c-0.5,0-0.9,0-1.2,0.6c0,1,0,2,0,3
		c0.4,0,0.7,0.1,1.1,0.1c6.1,0,12.3,0,18.4,0c0.2,0,0.4,0.1,0.6,0.1c-2.8,0-5.7,0-8.5,0c-3.7,0-7.4,0-11,0c-0.5,0-1,0-1.5,0
		c-0.2,0-0.3-0.1-0.5-0.2c0-0.7,0-1.4,0-2.1c0-1.8,1.2-2.8,2.8-2.8C15.8,5,21,5,26.1,5z"/>
	<path class="st0" d="M29.4,10.1c1.2,0,2.4,0,3.5,0c0.3,0,0.7,0.1,1,0.1c0,0.4,0,0.7,0,1.1c-0.4,0.1-0.8,0.1-1.3,0.2
		c-1.1,0-2.2,0-3.3,0C29.5,11,29.4,10.6,29.4,10.1z"/>
	<path class="st0" d="M29.5,15.4c1.5,0,3,0,4.5,0c0,0.4,0,0.8,0,1.2c-1.5,0-3,0-4.5,0C29.5,16.2,29.5,15.8,29.5,15.4z"/>
	<path class="st0" d="M29.5,18c1.5,0,3,0,4.5,0c0,0.4,0,0.8,0,1.1c-0.3,0-0.5,0.1-0.8,0.1c-1.2,0-2.5,0-3.7,0
		C29.5,18.9,29.5,18.5,29.5,18z"/>
	<path class="st0" d="M29.5,12.8c1.2,0,2.5,0,3.7,0c0.3,0,0.6,0.1,0.8,0.1c0,0.4,0,0.7,0,1.1c-1.5,0.1-3,0-4.5,0.1
		C29.5,13.6,29.5,13.2,29.5,12.8z"/>
	<path class="st0" d="M13,11.5c-0.6,0-1.1,0-1.7,0C11.8,11.5,12.4,11.5,13,11.5z"/>
	<path class="st0" d="M19.4,21.9c-0.5,0-1,0-1.5,0c-0.3,0-0.6-0.1-0.9-0.2c0-0.4,0-0.6,0-1c0.3-0.1,0.7-0.2,1-0.2c2.5,0,5,0,7.4,0
		c2.8,0,5.6,0,8.4,0c0,0.4,0,0.7,0,1c-0.3,0.4-0.7,0.4-1.1,0.4c-3.4,0-6.8,0-10.2,0c-0.7,0-1.5,0-2.2,0
		C20.2,21.9,19.8,21.9,19.4,21.9z"/>
	<path class="st0" d="M21.6,27.1c0.1,0,0.3,0,0.4,0c3.7,0,7.3,0,11,0c0.3,0,0.6,0.1,0.9,0.1c0,0.4,0,0.7,0,1.1
		c-0.3,0-0.6,0.1-0.9,0.1c-3.2,0-6.3,0-9.5,0c-1.3,0-2.5,0.1-3.8,0.1c-0.9-0.1-1.7-0.1-2.7-0.2c0-0.3-0.1-0.6-0.1-1
		c0.3-0.1,0.6-0.2,0.9-0.2c0.9,0,1.8,0,2.8,0C21,27.1,21.3,27.1,21.6,27.1z"/>
	<path class="st0" d="M19.5,31.1c-0.5,0-1-0.1-1.5-0.1c-0.3,0-0.6,0-0.9-0.1c0-0.4,0-0.7,0-1.1c1.1-0.2,2.2,0,3.3-0.1
		c4.5,0,9,0,13.6,0c0,0.4,0,0.8,0,1.2c-0.3,0-0.6,0.1-0.8,0.1c-3.8,0-7.6,0-11.4,0C21,31,20.3,31.1,19.5,31.1z"/>
	<path class="st0" d="M18.3,33.6c-0.4,0-0.8-0.1-1.2-0.1c0-0.4,0-0.7,0-1.1c0.6-0.1,1.1-0.2,1.6-0.2c0.7,0,1.4,0.1,2.1,0.1
		c4,0,8.1,0,12.1,0c0.3,0,0.6,0,1,0c0,0.4,0,0.8,0.1,1.2c-0.4,0-0.6,0.1-0.9,0.1c-4.6,0-9.3,0-13.9,0C18.9,33.6,18.6,33.6,18.3,33.6
		z"/>
	<path class="st0" d="M22.1,24.6c-0.2,0-0.5-0.1-0.7-0.1c-1.1,0-2.3,0-3.4,0c-0.2,0-0.5,0-0.8-0.1c0-0.4,0-0.6-0.1-1
		c0.8-0.5,1.7-0.1,2.5-0.2c4.8,0,9.6,0,14.4,0c0,0.4,0,0.8,0,1.2c-0.3,0-0.6,0.1-0.9,0.1c-3.3,0-6.6,0-9.9,0
		C22.8,24.5,22.4,24.5,22.1,24.6z"/>
	<path class="st0" d="M20.4,36.3c-0.8,0-1.5,0-2.3,0c-0.3,0-0.7-0.1-1-0.1c0-0.4,0-0.7,0-0.9c0.7-0.4,1.5-0.2,2.2-0.3
		c2.6,0,5.2,0,7.8,0c0.6,0,1.1,0.1,1.8,0.2c0,0.3,0,0.6,0,0.8c-0.3,0.4-0.7,0.4-1,0.4C25.3,36.2,22.9,36.3,20.4,36.3z"/>
	<path class="st0" d="M12.3,13.4c0.2,0.5,0.4,1,0.6,1.5c-0.4,0-0.7,0-1.1,0C12,14.5,12.2,14,12.3,13.4z"/>
	<path class="st0" d="M19,12.9c0.2,0.7,0,1.1-0.8,1.2c-0.2,0-0.3,0-0.5,0c0-0.4,0-0.8,0-1.3C18.2,12.9,18.6,12.9,19,12.9z"/>
	<path class="st0" d="M12.9,28.9c-0.2,0-0.4-0.1-0.6,0.1c-0.2,0.2-0.2,0.3-0.2,0.7c-0.2-0.3-0.2-0.3-0.3-0.5c0-0.4,0.2-0.6,0.6-0.6
		c0.4,0,0.5,0.2,0.7,0.5C13.2,29.1,12.9,28.9,12.9,28.9z"/>
	<path class="st0" d="M13.2,29.2c0,0,0-0.1,0-0.1c0.4,0,0.4,0.4,0.2,0.5c-0.2,0.1-0.3,0.2-0.5,0.4c-0.4,0.1-0.5,0.1-0.7-0.2
		C12.7,29.6,13,29.5,13.2,29.2z"/>
</g>
</svg>
