<?xml version="1.0" encoding="UTF-8"?>
<svg width="48" height="48" viewBox="0 0 48 48" xmlns="http://www.w3.org/2000/svg">
    <path d="M 17.245239,2.2376485 C 41.994193,2.9226023 52.550886,28.344445 41.804236,45.74839 L 35.840637,42.076061 C 44.688947,27.781785 34.279611,9.2556859 17.245942,9.1325655 V 2.2380003 Z M 16.908575,15.971902 c 8.22378,-0.0014 14.891355,6.66464 14.891937,14.88842 C 31.801451,44.12601 15.764597,50.768548 6.3843665,41.390535 -2.9958622,32.012521 3.6428872,15.974096 16.908575,15.971902 Z m -0.329787,6.9461 c -10.32609,0.474104 -10.0070816,15.846374 0.329787,15.891675 4.39001,-4.85e-4 7.948694,-3.559169 7.949179,-7.949179 -5.29e-4,-4.519369 -3.763466,-8.129294 -8.278966,-7.94232 z" fill="#fff"/>
</svg>
