<svg version="1.1" viewBox="0 0 48 48" xmlns="http://www.w3.org/2000/svg">
  <path
     style="fill:#ffffff"
     d="m 23.250038,38.719872 h 1.67377 v 6.333188 h -1.67377 z m -1.777548,6.084384 c 0.06958,-0.708229 0.130433,-1.265435 0.215033,-2.002946 0.01678,-0.01783 0.802086,0.07389 0.824496,0.09631 -0.02803,0.700993 -0.135198,1.399446 -0.234569,2.088731 -0.259015,0.04367 -0.675817,-0.15108 -0.80496,-0.182095 z m 4.185324,-1.902628 c 0.02113,-0.02113 0.812317,-0.117235 0.828852,-0.100699 0.02578,0.02578 0.221403,2.066248 0.200089,2.087083 -0.284052,0.05927 -0.506282,0.06599 -0.812312,0.10146 -0.104816,-0.691438 -0.154241,-1.393967 -0.216629,-2.087844 z m -6.331831,1.590002 c -0.02335,-0.02335 0.37409,-2.010685 0.409117,-2.045713 0.01161,-0.01161 0.815948,0.161714 0.825957,0.177967 -0.132519,0.746573 -0.296212,1.382193 -0.469389,2.063178 -0.273076,-0.04566 -0.488086,-0.123783 -0.765685,-0.195432 z m 8.28581,-1.867707 c 0.0107,-0.01487 0.817083,-0.186406 0.828079,-0.176171 0.181417,0.702734 0.283935,1.347761 0.376851,2.0609 -0.23214,0.08316 -0.441238,0.105301 -0.688878,0.1644 -0.30563,-0.527937 -0.369924,-1.340871 -0.516052,-2.049129 z m -10.423517,1.243426 c 0.174306,-0.6871 0.468627,-1.396449 0.730488,-1.956135 0.496725,0.157652 0.693831,0.24262 0.689422,0.297196 -0.01357,0.167975 -0.625698,1.939379 -0.668956,1.935857 -0.2778,-0.05152 -0.49214,-0.179402 -0.750954,-0.276918 z M 29.56566,42.20841 c -0.0044,-0.05458 0.192697,-0.139544 0.689422,-0.297196 0.397738,0.600866 0.447023,1.049343 0.730492,1.956005 0,0.02974 -0.694109,0.2811 -0.776268,0.2811 C 29.949998,43.482726 29.788663,42.93416 29.56566,42.20841 Z m -14.393213,0.772526 0.902005,-1.807603 0.699467,0.303646 c -0.285291,0.644349 -0.574778,1.287315 -0.865997,1.928731 -0.286938,-0.05706 -0.557476,-0.315974 -0.735475,-0.424774 z m 16.227888,-1.504139 0.732407,-0.336699 0.886506,1.899935 c -0.241579,0.178565 -0.468696,0.238584 -0.756594,0.374049 z m -17.831026,0.768804 c -0.385643,-0.22285 -0.706592,-0.421248 -0.713214,-0.440888 -0.01183,-0.03509 2.401133,-4.244178 2.479413,-4.324976 0.04419,-0.04561 1.47363,0.758076 1.460203,0.820983 -0.0103,0.04831 -2.451921,4.276396 -2.493822,4.318502 -0.01726,0.01735 -0.346933,-0.150774 -0.73258,-0.373621 z m 17.808717,-3.943655 c -0.01344,-0.06063 1.418254,-0.865667 1.460998,-0.821522 0.05711,0.05898 2.489306,4.279645 2.489306,4.319772 0,0.02744 -0.331772,0.224846 -1.409793,0.838766 -0.89353,-1.352277 -1.720954,-2.894148 -2.540511,-4.337016 z m -20.024743,2.484005 c 0.433082,-0.584098 0.875947,-1.197255 1.224034,-1.675101 0.284886,0.1082 0.452242,0.282558 0.718901,0.467962 -0.399579,0.563483 -0.820794,1.118254 -1.243979,1.659823 -0.271474,-0.119683 -0.439356,-0.278005 -0.698956,-0.452684 z m 23.52385,-1.206691 c 0.204338,-0.196006 0.505388,-0.332826 0.719401,-0.468328 0.460863,0.629401 0.82761,1.135305 1.223465,1.674362 -0.209296,0.163552 -0.438091,0.302647 -0.655852,0.45201 -0.497749,-0.453062 -0.937053,-1.178303 -1.287014,-1.658044 z M 9.6748771,39.360936 c 0.4602259,-0.520433 0.9336419,-1.032764 1.4088309,-1.537253 0.04126,-0.01565 0.608267,0.491024 0.608267,0.543543 0,0.06059 -1.341276,1.52894 -1.394773,1.526909 C 10.049803,39.738321 9.9042803,39.564096 9.6748771,39.360936 Z M 36.481875,38.364509 c 0,-0.05065 0.568331,-0.555974 0.608267,-0.540826 0.512882,0.528956 0.881918,0.95209 1.408827,1.537249 -0.183182,0.202039 -0.41949,0.362006 -0.620667,0.533203 -0.532019,-0.497916 -0.899508,-0.945718 -1.396427,-1.529626 z M 8.1861021,37.779221 c 0,-0.04643 1.480427,-1.388975 1.53163,-1.388975 0.05065,0 0.5559749,0.568331 0.5408279,0.608267 -0.01318,0.03474 -1.5210499,1.406558 -1.5424979,1.403306 -0.2101345,-0.193415 -0.3399702,-0.396202 -0.52996,-0.622598 z M 37.91529,36.998513 c -0.01565,-0.04126 0.491024,-0.608267 0.543539,-0.608267 0.06059,0 1.52894,1.341273 1.526913,1.39477 -0.155819,0.247397 -0.330043,0.392921 -0.533203,0.622324 C 38.932107,37.947116 38.419778,37.4737 37.91529,36.998513 Z M 6.8563031,36.05807 c 0.5423013,-0.496827 1.0127543,-0.80826 1.647049,-1.272066 0.1966011,0.204275 0.3325566,0.505929 0.467959,0.720314 C 8.4059037,35.921475 7.842551,36.326571 7.2969501,36.72837 7.1229214,36.524767 6.9985039,36.276612 6.8563031,36.05807 Z M 39.180556,35.484748 c 0.149432,-0.261231 0.300734,-0.436182 0.489707,-0.698431 0.546863,0.392061 1.087627,0.793629 1.625265,1.197473 -0.0404,0.35786 -0.260199,0.482886 -0.425657,0.738503 -0.564339,-0.410802 -1.127258,-0.823736 -1.689315,-1.237545 z M 5.4628531,33.780972 c 0.04131,-0.04018 4.273132,-2.484601 4.318919,-2.494753 0.06098,-0.01352 0.8649519,1.417562 0.8206069,1.460698 -0.05855,0.05695 -4.2772189,2.489784 -4.3174269,2.489784 C 5.942236,34.759942 5.7376524,34.320365 5.4628531,33.780972 Z M 37.571466,32.74663 c -0.04561,-0.04404 0.760672,-1.473751 0.82323,-1.459759 0.04986,0.01117 4.274049,2.450926 4.31582,2.492697 0.03309,0.03309 -0.747498,1.424488 -0.811056,1.445672 -1.537445,-0.837854 -2.727886,-1.533813 -4.327994,-2.47861 z m -19.591543,1.336317 c -0.342289,-0.185045 -0.603606,-0.566683 -0.641116,-0.936326 0.453844,-1.866786 1.252143,-2.893351 2.140311,-5.034455 -0.02044,-0.0533 -0.889446,-1.144828 -1.794753,-2.254354 l -0.473471,-0.580284 c -0.08837,0.999715 -0.09905,1.915596 -0.15585,2.927111 -0.03861,0.337267 -1.076574,4.463933 -1.251023,4.973775 -0.276574,0.808312 -1.063529,1.154615 -1.70268,0.74928 -0.33231,-0.210741 -0.458919,-0.414557 -0.479072,-0.771181 0.261049,-1.971613 0.504672,-2.636369 1.022285,-4.727989 0.01789,-1.728008 0.218282,-3.496553 0.297894,-5.219517 L 15.36393,22.06955 c -0.08854,-0.103444 -0.200945,-0.273092 -0.249791,-0.376994 -0.0554,-0.11787 -0.267791,-0.354666 -0.564757,-0.62966 -0.516899,-0.478661 -0.58544,-0.602061 -0.46441,-0.83611 0.136609,-0.26417 0.325567,-0.253993 0.742858,0.04 0.179341,0.126354 0.680785,0.619705 0.709225,0.610224 0.02844,-0.0095 -0.15195,-0.969611 0.0042,-1.647516 0.394739,-1.713413 0.510317,-2.044532 0.803474,-2.301926 0.153135,-0.134457 0.172079,-0.138676 0.760385,-0.169299 0.331836,-0.01728 1.49903,-0.02455 2.593765,-0.01616 1.777069,0.01361 2.005628,0.02358 2.132206,0.09287 0.346124,0.189482 2.269755,2.890786 2.503328,3.515355 0.200589,0.536362 0.123725,0.735905 -1.229735,3.192584 -1.090217,1.978867 -1.240113,2.275642 -1.188025,2.352153 0.02426,0.03561 1.222296,1.013045 2.662341,2.172082 l 2.618266,2.107345 0.351802,-0.342355 c 0.689396,-0.670882 1.517905,-0.854935 2.279316,-0.50635 0.286862,0.13133 0.804143,0.607667 1.050929,0.967743 l 0.178962,0.261122 0.382069,0.003 c 0.294301,0.0026 0.423635,0.02487 0.563018,0.09735 0.389477,0.202567 0.668839,0.60595 0.791886,1.143428 0.08119,0.354663 0.120069,0.412234 0.483202,0.715657 0.335533,0.280353 0.365607,0.295953 0.670104,0.347568 0.273778,0.04641 0.64746,0.240173 0.84591,0.438622 0.259869,0.259869 0.547121,0.719562 0.487132,0.779564 -0.112447,0.112473 -13.017713,0.06789 -13.314505,-0.046 -0.111468,-0.04278 -0.09513,-0.07905 0.163284,-0.362377 0.422935,-0.463723 0.894106,-0.698187 1.540662,-0.766676 0.230203,-0.02439 0.268782,-0.04278 0.311749,-0.148653 0.184593,-0.454849 0.284165,-0.610736 0.482124,-0.754824 0.115525,-0.08409 0.260943,-0.165705 0.32314,-0.181371 0.246508,-0.06209 0.410287,-0.175796 0.583297,-0.404943 0.251469,-0.333067 0.483824,-0.54893 0.765942,-0.711583 0.195389,-0.112643 0.229594,-0.149357 0.180949,-0.19422 -0.033,-0.03043 -0.945495,-0.764867 -2.02779,-1.632099 -1.0823,-0.867232 -2.150116,-1.725037 -2.372932,-1.906234 -0.566548,-0.460733 -0.60151,-0.445776 -0.181575,0.07768 0.409917,0.510964 0.477232,0.728958 0.364998,1.18202 -0.142626,0.575766 -2.425038,4.982654 -2.843607,5.490457 -0.26947,0.326915 -0.973197,0.526152 -1.277454,0.361672 z m 3.084358,-11.331673 c -0.09508,0 -1.976049,0.814783 -1.976049,0.855967 0.276371,0.346824 0.706271,0.615083 1.067303,0.894284 0.33997,-0.576683 0.644021,-1.187434 0.908746,-1.750251 z m -2.18056,-3.754671 h -1.315703 c -0.134621,0.524692 -0.234438,1.134394 -0.322727,1.628533 0.584224,-0.567077 1.019616,-1.009004 1.63843,-1.628533 z M 4.6680791,32.171025 c 0.6457602,-0.287442 1.2915222,-0.57488 1.937284,-0.862318 l 0.3698426,0.732406 -1.9330766,0.886506 c -0.178572,-0.241574 -0.2385863,-0.468696 -0.37405,-0.756594 z m 36.5048449,-0.154855 0.39556,-0.707476 c 0.645761,0.287438 1.291522,0.574878 1.937283,0.862318 -0.0834,0.266835 -0.256644,0.521794 -0.374046,0.755424 -0.381529,-0.150365 -1.65169,-0.776872 -1.958797,-0.910266 z M 3.9411621,30.10499 c 0.06425,-0.05371 1.963381,-0.650473 1.986908,-0.624346 0.1096014,0.242948 0.1634729,0.456072 0.254923,0.719462 -0.6633567,0.319142 -1.1932922,0.453062 -1.962895,0.693827 C 4.0595106,30.643316 4.036389,30.393659 3.9411621,30.10499 Z m 38.0575529,0.146009 c -0.02183,-0.02183 0.200746,-0.718023 0.245773,-0.768785 0.02404,-0.02709 1.935927,0.567996 1.986124,0.618193 0.03461,0.03461 -0.236703,0.793439 -0.282644,0.790456 -0.692492,-0.204633 -1.23047,-0.392776 -1.949253,-0.639864 z M 3.4105971,27.964061 c 0.01473,-0.01474 2.033605,-0.451314 2.047662,-0.442814 0.01565,0.0095 0.189786,0.814035 0.178603,0.825218 -0.01813,0.01813 -1.927402,0.421326 -1.995115,0.421326 -0.2020779,-0.169379 -0.1813848,-0.551364 -0.23115,-0.80373 z m 39.1259389,0.381956 c -0.01083,-0.01083 0.163653,-0.815065 0.179054,-0.825326 0.01509,-0.01004 2.027986,0.423696 2.044939,0.440649 0.01548,0.01548 -0.124594,0.702737 -0.173305,0.85986 -0.765796,0.06723 -1.068032,-0.251984 -2.050688,-0.475183 z M 3.0946661,25.782427 c 0.6916765,-0.106093 1.3960866,-0.15285 2.089699,-0.212424 0.02251,0.02252 0.114388,0.80783 0.09647,0.824548 -0.6977039,0.09952 -1.4023225,0.14839 -2.103119,0.201876 -0.027692,-0.271332 -0.055367,-0.542667 -0.08305,-0.814 z m 39.7983509,0.611619 c -0.01804,-0.01609 0.07405,-0.801599 0.0966,-0.824152 0.69967,0.0377 1.395117,0.129373 2.089566,0.212525 l -0.08304,0.813987 c -0.741598,-0.02763 -1.371657,-0.113039 -2.103126,-0.20236 z M 3.0290801,23.158396 h 6.333186 v 1.67377 h -6.333186 z m 35.7824989,0 h 6.333188 v 1.67377 H 38.811579 Z M 3.0294972,22.27772 c 0.026949,-0.288216 0.1169279,-0.573792 0.1482079,-0.883554 0.7065747,0.02993 1.3320719,0.110595 2.037312,0.18019 0.08531,8.7e-4 0.052436,0.271031 -0.031344,0.856397 z M 42.878254,21.590033 c 0.682215,-0.09973 1.372031,-0.140651 2.059963,-0.186608 l 0.140952,0.804721 c -0.682861,0.100756 -1.372755,0.156975 -2.059148,0.226466 -0.12121,-0.258783 -0.109926,-0.599249 -0.141767,-0.844579 z M 3.4098211,20.025741 c -0.02166,-0.02166 0.143941,-0.754635 0.17824,-0.788933 0.02498,-0.02498 2.010802,0.369307 2.048163,0.406666 0.01161,0.01161 -0.161742,0.816046 -0.177965,0.825857 -0.7224196,-0.141535 -1.2873838,-0.269516 -2.048438,-0.44359 z M 42.538763,19.713207 c 0.641261,-0.303353 1.357339,-0.364202 2.047508,-0.475911 0.03609,0.03607 0.198546,0.767651 0.175589,0.790608 -0.687232,0.164515 -1.242965,0.275667 -1.977328,0.433025 -0.18812,-0.238023 -0.151126,-0.419849 -0.245769,-0.747722 z M 24.866559,19.583536 c -0.287305,-0.07247 -0.539257,-0.225642 -0.784712,-0.477053 -0.699362,-0.716328 -0.70611,-1.814572 -0.01539,-2.505291 0.86791,-0.867909 2.335126,-0.622197 2.877256,0.481849 0.118965,0.242271 0.128852,0.302334 0.128852,0.782635 0.052,0.796476 -0.43456,1.13062 -0.975026,1.60737 -0.204289,0.103707 -0.315915,0.127494 -0.653508,0.139264 -0.223924,0.0078 -0.483785,-0.0051 -0.577475,-0.02878 z M 3.9411621,17.885672 c -0.03088,-0.02598 0.238866,-0.789026 0.278936,-0.789026 0.6862872,0.173432 1.3912096,0.468129 1.950634,0.731111 -0.139502,0.43953 -0.237205,0.690156 -0.272391,0.698723 C 5.2001613,18.330973 4.6641553,18.135208 3.9411621,17.885672 Z M 41.978175,17.745986 c 0,-0.02245 1.99422,-0.660798 2.009286,-0.643178 0.03422,0.04001 0.259999,0.770515 0.243312,0.787199 -0.666293,0.235157 -1.204935,0.404383 -1.917035,0.639292 -0.212191,-0.115645 -0.255477,-0.54265 -0.335563,-0.783313 z M 5.4621981,14.155044 c 0.0232,-0.09647 0.789081,-1.401154 0.822518,-1.401154 0.04035,0 4.2605809,2.43321 4.3177669,2.489446 -0.206904,0.544977 -0.461424,0.913146 -0.7817629,1.452888 -1.5606215,-0.837841 -2.7787166,-1.538293 -4.358522,-2.54118 z m 32.1113109,1.149012 c 1.496619,-0.982841 2.59425,-1.587144 4.325942,-2.538708 0.06325,0.02108 0.844253,1.412484 0.811321,1.445416 -1.590656,0.938087 -3.022597,1.758882 -4.343642,2.523159 -0.283624,-0.465185 -0.541335,-0.950869 -0.793621,-1.429867 z M 4.6679761,15.819801 c 0.083985,-0.267212 0.2563802,-0.522048 0.374153,-0.756829 0.08552,5.22e-4 1.852774,0.806445 1.8679,0.851821 0.01513,0.0454 -0.246234,0.682871 -0.300894,0.733878 -0.7000367,-0.253345 -1.2117754,-0.502406 -1.941159,-0.82887 z m 36.4993389,0.230661 1.975784,-0.988625 c 0.163048,0.249223 0.229893,0.469759 0.362668,0.757729 -0.645762,0.287437 -1.291523,0.574879 -1.937283,0.862321 z M 6.8563031,11.932551 c 0.1211724,-0.260062 0.2741349,-0.423076 0.440647,-0.670332 0.5771448,0.427945 1.0940455,0.797887 1.674361,1.222053 0.03091,0.02794 -0.439706,0.73192 -0.480182,0.718289 -0.592766,-0.415594 -1.0591009,-0.78158 -1.634826,-1.27001 z m 32.3242529,0.573291 c 0.594039,-0.439632 1.04943,-0.770256 1.68931,-1.23754 0.23407,0.175936 0.340725,0.582042 0.425657,0.738501 -0.568037,0.435835 -1.013489,0.752695 -1.62526,1.197469 -0.180387,-0.217755 -0.332905,-0.473341 -0.489707,-0.69843 z M 8.2087201,10.210233 C 8.3488654,9.9560357 8.5245717,9.8123219 8.7198491,9.5819334 9.2407675,10.042599 9.753583,10.516452 10.25856,10.99208 10.27115,11.02527 9.7887641,11.585524 9.7263891,11.610158 9.159167,11.162492 8.7405897,10.749359 8.2087201,10.210233 Z M 37.93566,11.018989 c 0.496705,-0.546039 0.93171,-0.907237 1.516879,-1.4357396 0.202851,0.1829906 0.362243,0.4208316 0.533203,0.6223256 0.0017,0.04835 -1.451146,1.384127 -1.526065,1.402972 -0.232545,-0.154401 -0.340819,-0.374919 -0.524017,-0.589558 z M 12.856056,6.1859404 c 0.0213,-0.06316 1.413214,-0.847409 1.445833,-0.814627 0.0417,0.04189 2.483461,4.270023 2.493822,4.318256 0.0077,0.0359 -1.357252,0.8477056 -1.425328,0.8477056 C 14.493545,9.1630139 13.664049,7.6399154 12.856056,6.1859404 Z m 18.522079,3.502107 c 0.01074,-0.04797 2.453599,-4.276356 2.493822,-4.316597 0.03396,-0.03395 1.422967,0.745471 1.444698,0.810664 0.01644,0.04926 -2.448721,4.3234316 -2.503944,4.3414576 -0.532917,-0.239373 -0.924848,-0.510248 -1.434576,-0.8355246 z M 9.6754081,8.6291924 C 9.8582216,8.4265036 10.095888,8.267274 10.297202,8.0964784 c 0.0535,-0.002 1.394773,1.466318 1.394773,1.526912 0,0.04292 -0.554248,0.5524046 -0.598999,0.5506206 C 10.572192,9.6481678 10.204638,9.2197161 9.6754081,8.6291924 Z m 26.8064669,0.996912 c 0,-0.05766 1.345599,-1.531617 1.396427,-1.529626 0.246024,0.1569034 0.391655,0.3300747 0.620667,0.533201 C 38.038746,9.1501147 37.56533,9.662442 37.090142,10.166933 36.835679,10.029543 36.698152,9.8265112 36.481875,9.6261044 Z M 23.250038,2.9374524 h 1.67377 v 6.333186 h -1.67377 z M 11.38717,7.2245564 c -0.01646,-0.04583 0.609359,-0.491228 0.664412,-0.472876 0.464206,0.5677062 0.783124,1.0273172 1.244636,1.660044 -0.223355,0.1723785 -0.45801,0.3323357 -0.685787,0.497016 C 12.166438,8.3295691 11.83454,7.8572847 11.38717,7.2245564 Z m 23.490906,1.187224 c 0.392021,-0.5468006 0.793541,-1.0875082 1.197342,-1.625086 0.267032,-0.03503 0.376074,0.1947341 0.640334,0.347607 l 0.09817,0.07805 C 36.407413,7.7804465 35.985845,8.3422305 35.562104,8.8947994 35.306831,8.749839 35.120115,8.5879812 34.878076,8.4117804 Z M 16.039811,6.8839811 c -0.281808,-0.6081069 -0.624418,-1.324565 -0.85756,-1.9575097 0.249024,-0.1440746 0.456213,-0.2222646 0.728737,-0.350485 0.287506,0.6459178 0.575016,1.2918333 0.862527,1.937749 -0.246033,0.2585665 -0.683221,0.3629602 -0.733704,0.3702457 z M 31.428128,6.4951844 c 0.278144,-0.684658 0.513152,-1.1962731 0.833491,-1.919152 0.267477,0.084103 0.522578,0.2566118 0.757629,0.374505 -8.7e-4,0.107373 -0.812474,1.85572 -0.866097,1.865248 -0.27998,-0.046208 -0.473111,-0.2049312 -0.725023,-0.320601 z m -14.239852,-2.37189 c 0,-0.03713 0.763889,-0.301388 0.79136,-0.273759 0.04952,0.0498 0.647251,1.964322 0.620706,1.988123 -0.242998,0.1083299 -0.45561,0.1627488 -0.718849,0.253942 -0.31963,-0.6661326 -0.450897,-1.1933001 -0.693217,-1.968306 z m 12.377258,1.659171 c 0.0054,-0.06889 0.603123,-1.907466 0.62832,-1.932659 0.02778,-0.02779 0.79172,0.236106 0.79172,0.273488 0,0.08744 -0.640907,1.980393 -0.669434,1.977206 -0.281267,-0.047674 -0.514809,-0.2145481 -0.750606,-0.318035 z M 19.325322,3.4995504 c 0.03191,-0.0319 0.771837,-0.201563 0.791838,-0.181564 0.163372,0.6883699 0.276981,1.2442439 0.435866,1.979702 -0.196873,0.1934369 -0.428638,0.1588994 -0.748189,0.245763 C 19.490073,4.98352 19.427294,4.0638707 19.325322,3.4995504 Z m 8.330799,1.87703 c 0.06786,-0.7441229 0.215138,-1.2520679 0.399978,-2.058005 0.02196,-0.02194 0.754659,0.143208 0.789364,0.177911 -0.09193,0.7772712 -0.267731,1.4206171 -0.430843,2.059253 -0.264258,-0.05353 -0.49192,-0.1158953 -0.758499,-0.179159 z m -5.99019,-0.253184 c -0.08357,-0.7622936 -0.131124,-1.384157 -0.180189,-2.037312 l 0.813982,-0.08304 c 0.09931,0.6836687 0.156645,1.3738586 0.226478,2.060837 -0.301996,0.1631669 -0.651725,0.054003 -0.860314,0.059522 z m 3.993705,-0.03269 c 0.04135,-0.6996014 0.131944,-1.3952194 0.214881,-2.09002 0.236341,0.031895 0.607349,0.079944 0.844333,0.1033039 l -0.188137,2.122742 C 26.271282,5.2130927 25.914867,5.1262631 25.659636,5.0907064 Z" />
</svg>
