<?xml version="1.0" encoding="UTF-8"?>
<svg width="48" height="48" viewBox="0 0 48 48">
    <defs>
        <style>.cls-1{fill:#fff;fill-rule:evenodd;}</style>
    </defs>
    <path class="cls-1" d="m 28.781429,38.582857 c 0.163879,-0.791337 0.253317,-1.596277 0.267142,-2.404286 0.125715,-4.462857 -2.027142,-8.281428 -4.714285,-8.517142 -2.687143,-0.235715 -5.075715,3.142857 -5.185715,7.668571 v 0.235714 c -0.0121,1.004965 0.09878,2.007635 0.33,2.985715 C 14.434286,39.494286 9.0285714,41.977143 2.0514286,46 10.93,30.065714 15.298571,21.768571 18.095714,15.938571 c 1.895904,1.518293 4.016507,2.732339 6.285715,3.598572 -2.080184,-1.444091 -3.998012,-3.109018 -5.72,-4.965714 C 20.845714,9.8571429 22.024286,6.7142857 23.988571,2 28.011429,11.428571 28.97,14.367143 40.724286,36.257143 c -1.895731,-1.085389 -3.938921,-1.889962 -6.065715,-2.388572 2.723819,1.452945 5.275167,3.208314 7.605715,5.232858 1.147143,2.184285 2.357143,4.4 3.724285,6.898571 -6.882857,-3.975714 -12.225714,-6.442857 -17.207142,-7.417143 z"/>
</svg>
