<?xml version="1.0" encoding="UTF-8"?>
<svg width="48" height="48" viewBox="0 0 48 48">
    <path d="m 16.031113,13.559446 v 0 c 5.281908,-2.402615 11.358043,-2.335451 16.585551,0.183333 3.58832,1.706819 6.556917,4.487477 8.494442,7.956664 l -3.666665,1.772222 c -4.668439,-8.31265 -15.01685,-11.53144 -23.57666,-7.333331 -2.536925,1.308579 -4.7499397,3.166676 -6.4777765,5.438887 1.9814185,-3.502283 5.0005475,-6.303624 8.6411085,-8.017775 z m 5.768888,6.538887 c -3.582641,-0.01112 -7.003935,1.48877 -9.423331,4.13111 2.514824,-4.016339 6.885563,-6.49355 11.62333,-6.587776 4.794767,0.04737 9.212506,2.608925 11.635552,6.746664 l -3.556665,1.76 C 29.907089,22.512163 26.033266,20.232089 21.800001,20.098333 Z m 8.482219,6.929998 -3.556665,1.772221 c -1.049342,-1.755386 -2.856976,-2.921309 -4.888888,-3.153332 -1.464247,-0.07134 -2.9089,0.359902 -4.094443,1.222222 1.26261,-2.010252 3.354563,-3.354119 5.707776,-3.666666 2.819717,-0.128361 5.467998,1.354486 6.83222,3.825555 z M 23.78,36.133884 2.2688949,25.378331 c -0.1621365,-0.08774 -0.2647714,-0.25569 -0.2688888,-0.44 v -2.444443 c -0.00127,-0.182795 0.1912019,-0.302264 0.3544443,-0.22 L 23.78,32.992773 c 0.137363,0.07388 0.302637,0.07388 0.44,0 L 45.645549,22.28611 c 0.163243,-0.08227 0.355722,0.0372 0.354445,0.22 v 2.444444 c -0.0042,0.184309 -0.106749,0.352257 -0.268889,0.439999 L 24.22,36.146106 c -0.139408,0.07009 -0.304699,0.06551 -0.44,-0.01222 z" fill="#fff"/>
</svg>
