<?xml version="1.0" encoding="UTF-8"?>
<svg viewBox="0 0 48 48" xmlns="http://www.w3.org/2000/svg">
    <path d="m 23.999415,2.0012186 c 4.277169,0 7.48931,2.3372106 9.809461,5.7467597 2.321369,3.4095487 3.809239,7.8999667 4.780436,12.3757617 1.942395,8.946715 1.809571,17.860529 1.809571,17.873934 v 0.0037 c 0,0.0037 -0.0024,1.080869 -0.115763,2.311621 -0.05198,0.624398 -0.142335,1.245008 -0.270522,1.858314 -0.12795,0.587349 -0.286363,1.108896 -0.584912,1.495181 -0.59354,0.774091 -1.690332,0.945716 -2.491969,0.389941 -0.867619,-0.589786 -1.508585,-1.874155 -1.673092,-4.067575 -0.300985,-2.900188 0.0097,-6.848344 -0.84081,-10.016616 -0.426499,-1.584137 -1.127174,-2.956243 -2.305528,-3.93597 -2.102028,-1.664562 -5.239836,-2.26166 -8.115653,-2.26166 -3.031794,0 -5.383627,0.454526 -8.115653,2.26166 -1.179573,0.979727 -1.881467,2.351833 -2.306747,3.93597 -0.849341,3.168272 -0.541043,7.116428 -0.840811,10.016616 -0.165725,2.19342 -0.806691,3.479008 -1.671873,4.066357 -0.801636,0.55573 -1.8984286,0.384104 -2.491968,-0.389986 C 8.2750332,43.278941 8.1166196,42.758613 7.9886701,42.171264 7.8599395,41.55755 7.7687846,40.936551 7.7157112,40.311731 7.6467647,39.543837 7.6085626,38.773495 7.6011659,38.002548 v -0.0061 c 0,-0.01462 -0.1340423,-8.927218 1.8083527,-17.872715 C 10.381934,15.647945 11.871023,11.158746 14.191173,7.7491969 16.510105,4.3372106 19.722247,2 23.999415,2 Z m 0,4.2649828 c -6.393818,0 -8.977179,11.0694586 -9.437798,13.5480226 0,0 3.710535,-1.197851 9.437798,-1.197851 5.727263,0 9.437798,1.197851 9.437798,1.197851 -0.4594,-2.481001 -3.042761,-13.5492412 -9.437798,-13.5492412 z m 0,18.9816106 c 3.603301,0 6.524205,1.87903 6.524205,4.197962 0,2.074 -1.328237,3.552121 -1.687714,6.117204 -0.361915,2.568738 0.337543,6.23053 0.337543,6.23053 -1.068683,-1.492744 -2.371331,-2.193419 -2.83926,-4.529411 0,0 -0.738452,0.302204 -1.011411,2.359144 C 24.859723,43.105905 24.680594,43.573834 22.730887,46 22.554195,42.74399 22.417716,42.274842 21.847427,40.945386 21.311257,39.690263 19.796579,37.58458 18.764453,35.58613 17.626312,33.384181 17.47521,30.997009 17.47521,29.444555 c 0,-2.32015 2.919685,-4.19918 6.522987,-4.19918 z" fill="#fff" paint-order="fill markers stroke"/>
</svg>
