<?xml version="1.0" encoding="UTF-8"?>
<svg width="48" height="48" viewBox="0 0 48 48" xmlns="http://www.w3.org/2000/svg">
    <path d="m 24,5.0645971 c 4.84465,0 9.503303,1.8599736 13.275561,4.8649934 l 1.859974,-1.8599736 3.859445,3.8594451 -1.859973,1.859974 C 44.140026,17.559841 46,22.218494 46,27.063144 c 0,6.027477 -2.87424,11.770145 -7.261162,15.873712 l -1.986394,-2.104095 -1.955879,-2.070674 c 3.337781,-3.129987 5.616249,-7.432629 5.617702,-11.69749 0,-3.214267 -1.297622,-6.451783 -3.36539,-9.190885 l -1.775693,1.775694 -3.859446,-3.859446 1.775694,-1.772787 c -2.740555,-2.069221 -5.976618,-3.36539 -9.190885,-3.36539 -8.133025,0 -16.4157201,8.282695 -16.4157201,16.414267 0,4.205284 2.2188904,8.449802 5.4840161,11.569617 l -2.077939,2.2 -1.8643333,1.976222 C 4.8146631,38.709775 2,33.028137 2,27.063144 c 0,-11.518758 10.479789,-22 22,-22 z" fill="#fff" paint-order="fill markers stroke"/>
</svg>
