<?xml version="1.0" encoding="UTF-8"?>
<svg data-name="Layer 1" viewBox="0 0 48 48" xmlns="http://www.w3.org/2000/svg">
    <defs>
        <style>.cls-1{fill:#fff;}</style>
    </defs>
    <path class="cls-1" d="m 45.24375,31.19125 -4.4,7.63125 c -0.275709,0.479248 -0.86431,0.679372 -1.375,0.4675 l -5.5,-2.21375 c -1.138885,0.880865 -2.386692,1.611063 -3.7125,2.1725 L 29.5,45.07875 C 29.407243,45.607483 28.950532,45.99482 28.41375,46 H 19.6 c -0.537993,-0.0093 -0.996357,-0.393251 -1.1,-0.92125 l -0.825,-5.83 c -1.32472,-0.563606 -2.572258,-1.293647 -3.7125,-2.1725 l -5.5,2.21375 c -0.5106901,0.211872 -1.0992905,0.01169 -1.375,-0.4675 l -4.4,-7.63125 C 2.4341669,30.729478 2.543711,30.152931 2.94875,29.81625 L 7.59625,26.1725 C 7.5141763,25.451414 7.4820164,24.725519 7.5,24 7.502475,23.282426 7.5530063,22.565823 7.65125,21.855 L 3.00375,18.21125 C 2.598711,17.874569 2.4891669,17.298022 2.7425,16.83625 L 7.1425,9.205 C 7.4222369,8.7306759 8.0066188,8.531987 8.5175,8.7375 l 5.5,2.21375 C 15.158324,10.07326 16.405749,9.3432865 17.73,8.77875 L 18.5,2.92125 C 18.603643,2.3932507 19.062007,2.0093723 19.6,2 h 8.8 c 0.537994,0.00938 0.996357,0.3932507 1.1,0.92125 l 0.825,5.83 c 1.32472,0.5636056 2.572258,1.293647 3.7125,2.1725 l 5.5,-2.21375 c 0.51069,-0.2118724 1.099291,-0.011688 1.375,0.4675 l 4.4,7.63125 c 0.253333,0.461772 0.143789,1.038319 -0.26125,1.375 L 40.39,21.8275 c 0.22,1.421538 0.22,2.868462 0,4.29 l 4.6475,3.64375 c 0.416031,0.358376 0.504053,0.968668 0.20625,1.43 z M 25.85625,17.51 c -0.826218,-1.426831 -2.886282,-1.426831 -3.7125,0 l -6.16,10.87625 c -0.369948,0.657359 -0.369948,1.460141 0,2.1175 0.381877,0.655772 1.083642,1.059024 1.8425,1.05875 h 12.375 c 0.758858,2.74e-4 1.460623,-0.402978 1.8425,-1.05875 0.369948,-0.657359 0.369948,-1.460141 0,-2.1175 z M 21.48375,27.31375 24,22.8725 l 2.51625,4.44125 z"/>
</svg>
