<svg xmlns="http://www.w3.org/2000/svg" viewBox="0 0 48 48"><defs><style>.cls-1{fill:#2b2b2b;}.cls-2{fill:#fff;}</style></defs><title>Aurora Droid</title><g id="Layer_2" data-name="Layer 2"><rect class="cls-1" x="-449.45" y="-7" width="511.97" height="251.55"/></g><g id="Layer_1" data-name="Layer 1"><polygon class="cls-2" points="21.47 37.35 26.53 37.35 24 32.88 21.47 37.35"/><path class="cls-2" d="M37.19,24.24H10.81a2.1,2.1,0,0,0-2.1,2.11V30.7A15.29,15.29,0,0,0,24,46h0A15.29,15.29,0,0,0,39.29,30.7V26.35A2.1,2.1,0,0,0,37.19,24.24ZM32.07,40.58a2.15,2.15,0,0,1-1.86,1.06H17.79a2.14,2.14,0,0,1-1.87-3.2l6.21-11a2.15,2.15,0,0,1,3.74,0l6.21,11A2.15,2.15,0,0,1,32.07,40.58Z"/><path class="cls-2" d="M34,8.26,37.8,4.45a1.43,1.43,0,0,0-2-2L31.62,6.58a15.22,15.22,0,0,0-7.62-2h0a15.22,15.22,0,0,0-7.62,2L12.22,2.43a1.43,1.43,0,0,0-2,2L14,8.26a15.25,15.25,0,0,0-5.3,11.58h0A2.1,2.1,0,0,0,10.81,22H37.19a2.1,2.1,0,0,0,2.1-2.11h0A15.25,15.25,0,0,0,34,8.26ZM17.35,17.74a2.29,2.29,0,1,1,2.29-2.29A2.29,2.29,0,0,1,17.35,17.74Zm13.32,0A2.29,2.29,0,1,1,33,15.45,2.29,2.29,0,0,1,30.67,17.74Z"/></g></svg>