<svg xmlns="http://www.w3.org/2000/svg" viewBox="0 0 48 48"><defs><style>.cls-1{fill:#2b2b2b;}.cls-2{fill:#fff;}</style></defs><title>Aurora Store</title><g id="Layer_2" data-name="Layer 2"><rect class="cls-1" x="-449.45" y="-60.11" width="511.97" height="251.55"/></g><g id="Layer_1" data-name="Layer 1"><path class="cls-2" d="M42.16,19.66H34L25.83,6a2.13,2.13,0,0,0-3.66,0L14.05,19.66H5.84a3.25,3.25,0,0,0-3.15,4.1L7.3,40.81A3,3,0,0,0,10.17,43H37.83a3,3,0,0,0,2.87-2.19l4.61-17A3.25,3.25,0,0,0,42.16,19.66ZM24,11.29l5,8.37H19Zm8,26.56a2.13,2.13,0,0,1-1.84,1H17.83A2.13,2.13,0,0,1,16,35.72l6.18-10.89a2.12,2.12,0,0,1,3.7,0L32,35.72A2.13,2.13,0,0,1,32,37.85Z"/><polygon class="cls-2" points="21.49 34.64 26.52 34.64 24 30.2 21.49 34.64"/></g></svg>