<svg viewBox="0 0 48 48" xmlns="http://www.w3.org/2000/svg">
    <defs>
        <style>.cls-1{fill:#fff;}</style>
    </defs>
    <path class="cls-1" d="m 24,4.4843193 c -0.729811,0 -1.458606,0.3568965 -1.885376,1.0697347 l -8.339356,13.98532 H 5.3444372 C 3.1439254,19.540342 1.543772,21.630371 2.1174466,23.75479 l 4.7363069,17.5096 c 0.3547483,1.33118 1.562237,2.256344 2.9398651,2.25127 H 38.206382 c 1.377628,0.0051 2.585118,-0.92009 2.939865,-2.25127 l 4.736306,-17.5096 c 0.573675,-2.124419 -1.026478,-4.21445 -3.22699,-4.215416 h -8.43083 L 25.885376,5.554054 C 25.458606,4.8412158 24.729811,4.4843193 24,4.4843193 Z m 0,6.4692267 5.125071,8.585828 H 18.874929 Z m -0.07877,12.791079 a 2.1726032,2.1726032 0 0 1 1.979391,1.115472 l 6.321851,11.175043 a 2.2246416,2.2246416 0 0 1 0,2.185207 2.1986224,2.1986224 0 0 1 -1.90062,1.092603 H 17.650198 a 2.1986224,2.1986224 0 0 1 -1.898081,-1.092603 2.2246416,2.2246416 0 0 1 0,-2.185207 l 6.347261,-11.175043 a 2.1726032,2.1726032 0 0 1 1.821853,-1.115472 z M 24,30.376473 l -2.60192,4.55336 h 5.20384 z"/>
</svg>
