<?xml version="1.0" encoding="UTF-8"?>
<svg data-name="Layer 1" version="1.1" viewBox="0 0 48 48" xmlns="http://www.w3.org/2000/svg">
    <path d="m 11.099625,2.0018465 c 0.04901,-0.00246 0.09811,-0.00246 0.147116,0 0.356871,0.013939 0.696408,0.157556 0.954964,0.4039303 l 4.153942,4.1539415 c 4.722915,-2.7194978 10.536332,-2.7194978 15.259248,0 l 4.124069,-4.1539415 c 0.56678,-0.5401293 1.457786,-0.5401293 2.024566,0 0.54013,0.5667805 0.54013,1.4577858 0,2.0245663 l -3.814875,3.8148755 c 3.376908,2.8985044 5.317241,7.1289244 5.310928,11.5791824 0.0077,1.146287 -0.905979,2.086596 -2.052014,2.111886 H 10.793355 C 9.6238737,21.943819 8.6739029,20.993882 8.6814693,19.824401 8.6752139,15.374143 10.615488,11.143723 13.992397,8.2452186 L 10.177521,4.4303431 c -0.5401293,-0.5667805 -0.5401293,-1.4577858 0,-2.0245663 0.250234,-0.2392644 0.577011,-0.3823405 0.922551,-0.4039303 z m 6.253317,11.1453915 c -1.264124,7e-5 -2.28888,1.024827 -2.288951,2.288951 7.1e-5,1.264124 1.024827,2.288881 2.288951,2.288951 1.264124,-7e-5 2.288881,-1.024827 2.288951,-2.288951 -7e-5,-1.264124 -1.024827,-2.288881 -2.288951,-2.288951 z m 13.294555,0 c -2.032137,0.02641 -3.024449,2.490342 -1.578272,3.917888 1.446177,1.427546 3.897037,0.403372 3.897096,-1.628937 -7.1e-5,-1.264124 -1.024828,-2.288881 -2.288951,-2.288951 -0.01,-6.5e-5 -0.01995,-6.5e-5 -0.02992,0 z M 10.792474,24.225225 h 26.414215 c 1.167047,6.35e-4 2.11259,0.947265 2.111886,2.114311 l -0.01496,4.3559 c -2e-6,8.452486 -6.85209,15.304563 -15.30457,15.304563 -8.452479,0 -15.3045671,-6.852077 -15.3045671,-15.304562 V 26.2946 c 0.023541,-1.143735 0.9530041,-2.061036 2.0969491,-2.069502 z m 13.114554,2.396186 c -0.667761,0.03659 -1.270981,0.410543 -1.600734,0.992355 l -5.704888,10.060788 c -0.350289,0.607191 -0.350289,1.355077 0,1.962268 0.351437,0.602515 0.99795,0.971413 1.695457,0.967425 h 11.40467 c 0.697507,0.004 1.344021,-0.364909 1.695458,-0.967425 0.350289,-0.607191 0.350289,-1.355077 0,-1.962268 L 25.71955,27.613766 c -0.364302,-0.641906 -1.057818,-1.025277 -1.795161,-0.992355 -0.0059,-2.6e-5 -0.01162,-2.6e-5 -0.01745,0 z m 0.104719,5.954209 2.326356,4.101601 h -4.650158 z" fill="#fff"/>
</svg>
