<svg id="Layer_1" data-name="Layer 1" xmlns="http://www.w3.org/2000/svg" viewBox="0 0 48 48"><defs><style>.cls-1{fill:#fff;}</style></defs><title>Aurora Droid</title><path class="cls-1" d="M25.27,26.37a1.46,1.46,0,0,0-2.54,0l-4.24,7.48a1.46,1.46,0,0,0,0,1.46,1.45,1.45,0,0,0,1.26.72h8.48a1.45,1.45,0,0,0,1.26-.72,1.46,1.46,0,0,0,0-1.46Zm-3,6.74L24,30.06l1.73,3.05Z"/><path class="cls-1" d="M28.55,16.61a1.56,1.56,0,1,0,1.56,1.56A1.56,1.56,0,0,0,28.55,16.61Z"/><circle class="cls-1" cx="19.47" cy="18.17" r="1.56"/><path class="cls-1" d="M24,2A22,22,0,1,0,46,24,22,22,0,0,0,24,2ZM34.43,28.57a10.43,10.43,0,0,1-20.86,0v-3A1.44,1.44,0,0,1,15,24.16H33a1.44,1.44,0,0,1,1.44,1.44ZM33,22.6H15a1.43,1.43,0,0,1-1.44-1.44,10.38,10.38,0,0,1,3.62-7.89l-2.6-2.6a1,1,0,0,1,0-1.38,1,1,0,0,1,1.38,0l2.83,2.83a10.42,10.42,0,0,1,10.4,0L32,9.29a1,1,0,0,1,1.38,0,1,1,0,0,1,0,1.38l-2.6,2.6a10.38,10.38,0,0,1,3.62,7.89A1.43,1.43,0,0,1,33,22.6Z"/></svg>