<svg height="48" viewBox="0 0 12.7 12.7" width="48" xmlns="http://www.w3.org/2000/svg"><path d="m6.35.52916633a5.8208333 5.8208333 0 0 0 -5.82083333 5.82083397 5.8208333 5.8208333 0 0 0 5.82083333 5.8208327 5.8208333 5.8208333 0 0 0 5.820834-5.8208327 5.8208333 5.8208333 0 0 0 -5.820834-5.82083397zm1.4743287 2.95382497c.116935-.000004.2338314.04506.3229777.134359l1.2335163 1.233c.8828613.88343.8972323 2.31014.04444 3.21169-.007.0084-.01383.01677-.0217.02377-.0038.0046-.0079.0084-.01189.01137-.0037.0036-.0071.0084-.01085.01137-.0083.0079-.01597.01522-.02429.02222-.9016541.85241-2.3286261.837981-3.2116902-.04496l-1.2329976-1.233515c-.1785909-.17784-.1785909-.467756 0-.645956.1781929-.17835.4670134-.17835.6454386 0l1.2340333 1.233517c.5384628.53837 1.4113262.541938 1.9544029.01137.530996-.54312.527412-1.416559-.01085-1.954919l-1.2330019-1.234035c-.1786625-.178244-.1785207-.466539-.000517-.644922.089063-.089315.206043-.134355.3229779-.134359zm-2.868042.457853c.5797291.0074 1.1569531.231347 1.5983521.672828l1.2335164 1.234033c.1785249.17832.1781267.467108 0 .645438-.178525.17829-.4673452.17829-.6454386 0l-1.2335166-1.232999c-.5386282-.53839-1.4120083-.542399-1.9549195-.01137-.5310248.54297-.5277437 1.416549.010852 1.954919l1.2340334 1.234034c.178126.177929.1780741.467108-.0005167.645438-.1784255.17822-.4669798.17822-.6454389 0l-1.234033-1.233515c-.8828311-.88293-.8971997-2.309761-.044442-3.211691.0068-.008.013924-.01577.021704-.02377.00381-.0042.00782-.0084.011886-.01137.0039-.0037.00696-.0089.010852-.01188.00767-.0077.015968-.0147.024288-.0217.4507439-.426135 1.0330923-.635774 1.6128214-.628386z" fill="#fff" stroke-width=".264583"/></svg>