<?xml version="1.0" encoding="UTF-8"?>
<svg width="48" height="48" viewBox="0 0 12.7 12.7" xmlns="http://www.w3.org/2000/svg">
    <path d="m 8.6667991,1.8447369 c 0.1837698,-6.3e-6 0.367461,0.070811 0.5075592,0.2111451 l 1.9384307,1.9376446 c 1.387404,1.3882995 1.409986,3.6302942 0.06984,5.0471477 -0.011,0.0132 -0.02173,0.026354 -0.0341,0.037354 -0.006,0.00723 -0.01241,0.0132 -0.01868,0.017868 -0.0058,0.00566 -0.01116,0.0132 -0.01705,0.017868 -0.01304,0.012415 -0.0251,0.023918 -0.03817,0.034918 C 9.6576971,10.488235 7.4152624,10.465558 6.0274814,9.0780283 L 4.0898248,7.1395982 c -0.280652,-0.2794734 -0.280652,-0.7350792 0,-1.0151183 0.2800235,-0.2802749 0.7339006,-0.2802749 1.0143012,0 l 1.9392161,1.9384303 c 0.8461834,0.846042 2.2178409,0.8516522 3.0713159,0.017868 0.83446,-0.8535066 0.828819,-2.2261698 -0.01705,-3.0721018 L 8.1599628,3.0694603 C 7.8792008,2.7893583 7.8794208,2.3362983 8.1591503,2.0559763 8.2991118,1.9156188 8.4829397,1.8448312 8.6667095,1.8448312 Z M 4.1597718,2.5642426 c 0.9110386,0.011629 1.8182115,0.3635637 2.5118662,1.0573442 l 1.9384304,1.9392161 c 0.280542,0.2802277 0.2799291,0.7340577 0,1.0143012 -0.280542,0.2801805 -0.7344349,0.2801805 -1.0143012,0 L 5.6573369,4.6374595 C 4.8108863,3.7913861 3.438396,3.7850844 2.5852352,4.6195916 1.7507437,5.4728624 1.7558981,6.8456043 2.602289,7.6916934 l 1.939216,1.939216 c 0.2799292,0.2796149 0.2798349,0.7340576 -8.12e-4,1.0143016 -0.2804005,0.28007 -0.7338534,0.28007 -1.0143011,0 L 1.5871758,8.7067803 C 0.1998191,7.3192664 0.17723682,5.0769575 1.5173357,3.6596325 c 0.010686,-0.012572 0.021881,-0.024782 0.034108,-0.037354 0.00599,-0.0066 0.012289,-0.0132 0.018679,-0.017868 0.00613,-0.00581 0.010938,-0.013986 0.017054,-0.018669 0.012053,-0.0121 0.025094,-0.023101 0.038168,-0.034101 C 2.3336766,2.881966 3.2488483,2.552535 4.1598398,2.5641326 Z" fill="#fff" stroke-width=".26458"/>
</svg>
