<?xml version="1.0" encoding="UTF-8"?>
<svg viewBox="0 0 48 48" xmlns="http://www.w3.org/2000/svg">
  <path d="m 32.756405,6.9722376 c 0.694563,-2.65e-5 1.388829,0.2676283 1.918333,0.7980283 l 7.326353,7.3233781 c 5.243731,5.247118 5.32908,13.720799 0.263962,19.075834 -0.04158,0.04989 -0.08213,0.09959 -0.128882,0.141165 -0.02268,0.02721 -0.0469,0.04989 -0.0706,0.06754 -0.02192,0.02154 -0.04218,0.04989 -0.06444,0.06754 -0.04929,0.04694 -0.09487,0.09041 -0.144265,0.131981 -5.355333,5.062877 -13.830678,4.977168 -19.075834,-0.267024 l -7.323423,-7.326349 c -1.060732,-1.056276 -1.060732,-2.778251 0,-3.836666 1.058354,-1.059307 2.773795,-1.059307 3.833578,0 l 7.32932,7.326349 c 3.198171,3.197639 8.38239,3.218842 11.608122,0.06754 3.153865,-3.225853 3.132544,-8.41387 -0.06444,-11.611093 l -7.323382,-7.32935 C 29.779657,10.542458 29.780488,8.8301058 30.837731,7.7706211 31.366722,7.240138 32.061505,6.9725928 32.756065,6.9725928 Z M 15.721973,9.6916264 c 3.443293,0.043956 6.871978,1.3740996 9.493666,3.9962646 l 7.326349,7.329319 c 1.060317,1.059126 1.058,2.774389 0,3.833579 -1.060316,1.058948 -2.775817,1.058948 -3.833578,0 L 21.382061,17.527407 C 18.182876,14.329651 12.995513,14.305832 9.7709676,17.459866 6.616986,20.684828 6.6364657,25.873143 9.8354085,29.07096 l 7.3293195,7.32932 c 1.058,1.056812 1.057644,2.774392 -0.0031,3.833582 -1.059783,1.058532 -2.773617,1.058532 -3.833578,0 L 5.9987763,32.907516 C 0.75522266,27.663369 0.66987337,19.188501 5.7348141,13.831683 c 0.040403,-0.04751 0.082696,-0.09366 0.1289197,-0.141166 0.022677,-0.02494 0.04645,-0.04989 0.070602,-0.06754 0.023055,-0.02192 0.041348,-0.05288 0.064441,-0.07056 0.045543,-0.04573 0.094828,-0.08731 0.1442646,-0.128882 C 8.820201,10.89248 12.279115,9.647387 15.722234,9.6912182 Z" fill="#fff"/>
</svg>
