<?xml version="1.0" encoding="UTF-8" standalone="no"?>
<svg
   width="48"
   height="48"
   viewBox="0 0 12.7 12.7"
   version="1.1"
   id="svg5"
   xmlns="http://www.w3.org/2000/svg"
   xmlns:svg="http://www.w3.org/2000/svg">
  <defs
     id="defs2">
    <style
       id="style909">.cls-1{fill:#fff;}</style>
    <style
       id="style952">.cls-1{fill:#fff;}</style>
  </defs>
  <path
     id="rect943"
     style="fill:#ffffff;stroke-width:0.306358"
     d="m 1.5192872,0.5291668 c -0.54853455,0 -0.99012045,0.4415854 -0.99012045,0.9901204 v 9.6614258 c 0,0.548535 0.4415859,0.99012 0.99012045,0.99012 h 9.6614258 c 0.548534,0 0.99012,-0.441585 0.99012,-0.99012 V 1.5192872 c 0,-0.548535 -0.441586,-0.9901204 -0.99012,-0.9901204 z M 6.3722208,3.1202231 10.368359,5.0952961 6.3722208,7.0708862 2.3765992,5.0952961 Z M 3.29799,5.8725092 l 3.030306,1.4981 3.0303059,-1.4981 0.9653151,0.476974 -3.995621,1.97559 -3.9961385,-1.97559 z m 0,1.254188 3.030306,1.499133 3.0303059,-1.499133 0.9653151,0.478007 -3.995621,1.975073 -3.9961385,-1.975073 z" />
</svg>
