<svg viewBox="0 0 48 48" xmlns="http://www.w3.org/2000/svg">
    <path d="m 41.039897,2.0218855 c -0.42036,-0.039572 -0.877688,0.056599 -1.346094,0.335806 L 35.167599,5.0613599 C 25.538476,-0.56746172 13.221206,1.883684 6.4805925,10.770059 -0.26002233,19.656436 0.70049714,32.177963 8.7164277,39.933508 l -3.2920452,1.968914 c -1.0044229,0.615122 -1.3363205,1.918029 -0.749106,2.939019 0.3884487,0.660716 1.0991667,1.062235 1.8655894,1.05621 0.394046,0.0054 0.7811281,-0.100124 1.1164819,-0.307104 l 4.7902572,-2.852916 c 3.447124,2.121134 7.415871,3.246643 11.463322,3.248994 20.043754,0.0026 29.686604,-24.580115 14.987849,-38.2072471 L 41.92677,6.1032186 c 2.029758,-1.2098957 0.934687,-3.909854 -0.886873,-4.0813331 z m -17.13184,4.0268011 a 17.634114,17.634114 0 0 1 6.836664,1.5383927 L 13.62436,17.873646 a 6.1131596,6.1131596 0 0 0 -2.057887,8.435328 6.4511468,6.4511468 0 0 0 8.817057,2.218616 l 8.817057,-5.304011 a 2.0867035,2.0867035 0 0 1 2.850044,0.720403 1.7340212,1.7340212 0 0 1 -0.599858,2.32194 L 12.625552,37.536945 A 17.634114,17.634114 0 0 1 23.908057,6.0486866 Z M 34.975301,10.175941 A 17.634114,17.634114 0 0 1 16.79873,40.108587 L 33.655037,30.014319 a 6.1278547,6.1278547 0 0 0 2.100941,-8.377925 6.4511468,6.4511468 0 0 0 -8.817058,-2.218616 l -8.817057,5.304011 a 2.0867035,2.0867035 0 0 1 -2.852914,-0.720405 1.704631,1.704631 0 0 1 -0.18943,-1.30591 1.6899359,1.6899359 0 0 1 0.792158,-1.073431 z" fill="#fff"/>
</svg>
