<?xml version="1.0" encoding="UTF-8"?>
<svg version="1.1" viewBox="0 0 48 48" xmlns="http://www.w3.org/2000/svg">
    <path d="m19.795 3c-0.525 0-0.95502 0.38931-1.0391 0.88281l-0.78906 5.5645c-1.2693 0.52942-2.4626 1.2249-3.5488 2.0684l-5.2285-2.1113c-0.47996-0.18312-1.0222 0.009535-1.2812 0.45312l-4.1992 7.2754c-0.2625 0.4515-0.14705 1.0182 0.25195 1.3438l4.4316 3.4766c-0.091487 0.67878-0.14202 1.362-0.14844 2.0469 0 0.693 0.064436 1.3749 0.14844 2.0469l-4.4316 3.4766c-0.399 0.315-0.51445 0.8817-0.25195 1.3438l4.1992 7.2754c0.2625 0.4515 0.8088 0.64212 1.2812 0.45312l5.2285-2.1113c1.0815 0.8295 2.2678 1.5329 3.5488 2.0684l0.78906 5.5645c0.084 0.4935 0.51402 0.88281 1.0391 0.88281h8.4004c0.525 0 0.95502-0.38931 1.0391-0.88281l0.78711-5.5645c1.2693-0.52942 2.4626-1.2249 3.5488-2.0684l5.2285 2.1113c0.47996 0.18312 1.0222-0.009505 1.2812-0.45312l4.2012-7.2754c0.2625-0.4515 0.14705-1.0182-0.25195-1.3438l-4.4316-3.4766c0.084-0.672 0.14648-1.3539 0.14648-2.0469s-0.062495-1.3749-0.14648-2.0469l4.4414-3.4766c0.399-0.315 0.51445-0.8817 0.25195-1.3438l-4.1992-7.2754c-0.2625-0.4515-0.8088-0.64212-1.2812-0.45312l-5.2285 2.1113c-1.0815-0.8295-2.2678-1.5329-3.5488-2.0684l-0.78906-5.5645c-0.0945-0.4935-0.52386-0.88281-1.0488-0.88281h-8.4004zm10.57 10.65c0.12724 0.13409 0.33356 0.33358 0.48047 0.48438l-2.0117 2.0137 0.73633 2.75 2.752 0.73828 2.0059-2.0059c0.35894 0.36621 0.6055 0.6288 0.5957 0.66016-0.52964 1.4162-1.5035 2.1686-2.6816 2.4102-0.47125 0.096622-0.97511 0.11183-1.4961 0.054687-0.26049-0.02857-0.52583-0.075322-0.79297-0.13867l-0.33594 0.33789-2.9355 2.9473 6.791 6.791c0.38374 0.38373 0.38374 1.0029 0 1.3867l-0.58398 0.58594c-0.38373 0.38373-1.0029 0.38373-1.3867 0l-6.793-6.791c-1.0785 1.0785-2.9686 2.9548-3.2441 3.2285a4 4 0 0 1 0.35742 1.6387 4 4 0 0 1-4 4 4 4 0 0 1-4-4 4 4 0 0 1 4-4 4 4 0 0 1 1.709 0.38867l3.2207-3.2188-3.873-3.873-2.2188 2.2207c-0.36189 0.3619-0.94284 0.3619-1.3047 0l-1.9609-1.9629c-0.36178-0.36189-0.44812-0.9744-0.085937-1.3359l4.8672-4.8555c0.42837-0.42848 0.42818-0.43126 0.95703 0.074219 0.16664 0.13573 0.32444 0.24957 0.47852 0.33984 0.30814 0.18062 0.59782 0.26888 0.88672 0.26758 0.2889-2e-3 0.91062-0.1333 1.3887-0.61133 0.49758-0.49773 0.49566-0.49709 0.95508-0.052734l0.4375 0.45117c0.53299 0.53299 0.53328 0.53561 0 1.0684l-2.4297 2.4277 3.8711 3.8711 3.2793-3.2793c-0.29761-0.85669-0.33555-1.647-0.15625-2.3477v-0.001953c0.11989-0.46739 0.33748-0.89357 0.63867-1.2754 0.45178-0.57274 1.0929-1.0427 1.8828-1.3867zm-11.941 14.58-2.5 0.66992-0.66992 2.502 1.8301 1.8301 2.502-0.67188 0.66797-2.498-1.8301-1.832z" fill="#fff"/>
</svg>
