<?xml version="1.0" encoding="UTF-8"?>
<svg version="1.1" viewBox="0 0 48 48" xmlns="http://www.w3.org/2000/svg">
    <defs>
        <style>.cls-1{fill:#fff;}</style>
    </defs>
    <path class="cls-1" d="m23.818 5.1504c-0.70705 0.021814-1.3829 0.12351-1.8477 0.23828-2.155 1.287-0.69929 3.4119-3.0273 4.5684-0.51428 0.25589-1.6995 0.76281-2.2539 0.74023-1.6733-0.07024-3.0524-2.4817-5.2676-0.87109l-0.99414 0.90039c-0.3462 0.35623-0.74854 0.80095-0.9668 1.25-0.79776 1.6357 0.83517 2.8839 1.1914 4.2637 0.22829 0.88807-0.33718 1.9648-0.74609 2.75-1.0286 1.9743-2.8713 1.066-4.1758 2.373-0.7501 0.7526-0.59764 2.1553-0.58008 3.1562 0.06021 3.176 2.3484 2.345 3.959 3.3359 0.70996 0.43651 1.0282 1.4285 1.3066 2.1836 0.19568 0.52933 0.36595 0.92691 0.24805 1.5039-0.16808 0.82536-1.2217 2.1086-1.3848 3.0117-0.32613 1.7862 2.3993 4.2647 4.1504 3.916 1.2644-0.25087 2.2814-1.3153 3.2598-1.3379 0.48668-0.01254 2.0451 0.57446 2.4941 0.82031 1.4676 0.8103 1.1458 2.3575 1.8457 3.6094 0.75762 1.3597 2.8247 1.4489 4.1895 1.1504 2.5388-0.55693 1.8424-2.7686 2.7832-4.0781 0.39888-0.55693 2.0665-1.2711 2.7363-1.4316 1.8941-0.45909 3.2776 2.0953 5.2695 1.1094 0.45156-0.22327 0.89266-0.65269 1.2539-1.0039l0.92578-0.99805c1.5152-2.0245-0.78501-3.4948-0.91797-5.0176-0.04767-0.56445 0.43661-1.707 0.66992-2.2539 1.0787-2.5338 4.0927-1.0728 4.7324-3.2754 0.30355-1.0461 0.34992-3.6202-0.46289-4.4004-0.95079-0.91567-2.7374-0.87039-3.5879-1.5703-0.52181-0.42898-0.94776-1.6491-1.166-2.2988-0.70745-2.1223 1.6374-3.0814 1.2285-5.0156-0.20069-0.93825-1.8329-2.5894-2.6758-3.0059-1.5755-0.77769-2.9937 0.80391-4.2656 1.1426-0.77769 0.20571-2.03-0.32818-2.75-0.67187-1.8263-0.87302-1.1963-2.6366-2.1973-3.9512-0.53153-0.69616-1.7981-0.87815-2.9766-0.8418zm6.8242 9.377v0.001953c0.15911 6.4e-4 0.31718 0.011786 0.47461 0.035156-0.10359 0.13962-0.17578 0.30416-0.17578 0.49219v0.074218c-0.099083-0.01137-0.19905-0.01553-0.29883-0.015625-1.5302-3.6e-4 -2.7699 1.2394-2.7695 2.7695 0.001581 0.64595 0.22887 1.2715 0.64258 1.7676l0.36914 0.36719c0.49484 0.40801 1.1165 0.63171 1.7578 0.63281 1.5289 3.55e-4 2.7684-1.2387 2.7695-2.7676-0.00155-0.10416-0.007944-0.20716-0.021484-0.31055h0.068359c0.19231 0 0.36071-0.075595 0.50195-0.18359 0.02535 0.16382 0.038191 0.32839 0.039062 0.49414 0 1.8541-1.5033 3.3574-3.3574 3.3574-0.46538-0.00151-0.8832-0.057343-1.3086-0.24609l-2.9727 2.9844 6.1699 6.1699c0.34864 0.34863 0.34864 0.91113 0 1.2598l-0.53125 0.5332c-0.34863 0.34864-0.91113 0.34864-1.2598 0l-6.1719-6.1699c-1.0503 1.0503-3.1582 3.1445-3.1582 3.1445 0.19429 0.43198 0.2223 0.72368 0.22266 1.1973 0 1.8541-1.5033 3.3574-3.3574 3.3574s-3.3574-1.5033-3.3574-3.3574 1.5033-3.3574 3.3574-3.3574c0.53722-7.69e-4 0.95423 0.06811 1.4316 0.31445l3.084-3.082-3.5195-3.5195-2.0156 2.0176c-0.32879 0.32879-0.85676 0.32879-1.1855 0l-1.7812-1.7832c-0.32868-0.32879-0.4072-0.8844-0.078124-1.2129l4.4219-4.4121c0.38919-0.38929 0.38866-0.3909 0.86914 0.06836 0.1514 0.12332 0.29557 0.22658 0.43555 0.30859 0.27996 0.1641 0.54221 0.24339 0.80469 0.24219 0.26247-0.001888 0.8274-0.12039 1.2617-0.55469 0.45207-0.45221 0.45174-0.45255 0.86914-0.048828l0.39648 0.41016c0.48424 0.48424 0.4845 0.48672 0 0.9707l-2.207 2.2051 3.5176 3.5176 2.9785-2.9785c-0.1998-0.43625-0.27234-0.85611-0.27344-1.3359 0-1.8541 1.5033-3.3574 3.3574-3.3574zm-12.367 12.816c-1.5302-3.7e-4 -2.7699 1.2413-2.7695 2.7715-3.63e-4 1.5302 1.2394 2.7699 2.7695 2.7695 1.5302 3.59e-4 2.7718-1.2394 2.7715-2.7695 3.61e-4 -1.5302-1.2413-2.7719-2.7715-2.7715z" />
</svg>
