<?xml version="1.0" encoding="UTF-8"?>
<svg version="1.1" viewBox="0 0 48 48" xmlns="http://www.w3.org/2000/svg">
    <path d="m24 2a22 22 0 0 0-22 22 22 22 0 0 0 22 22 22 22 0 0 0 22-22 22 22 0 0 0-0.13867-2.3926 10 10 0 0 1-8.543-9.8809 10 10 0 0 1 1.0215-4.375 22 22 0 0 0-14.34-5.3516zm-5.5977 4.9746a7.8533 7.8533 0 0 1 0.7207 0.0039062l7.1133 7.1133 3.1426-3.1426a3.7267 3.7267 0 0 1 0.61719 0.003906l-3.4492 3.4492 0.003906 0.003906a7.8533 7.8533 0 0 1 0.003907 0.60742l3.9785-3.9785a3.7267 3.7267 0 0 1 0.47461 0.14453l-4.5586 4.5586 0.052734 0.052735a7.8533 7.8533 0 0 1-0.099609 0.61523l5.0332-5.0332a3.7267 3.7267 0 0 1 0.38867 0.23242l-5.1855 5.1836a3.7267 3.7267 0 0 1-0.23633-0.38281l-7.7227-7.7207-1.5566-1.5586a7.8533 7.8533 0 0 1 0.61719-0.097656l8.4004 8.4004 0.35742-0.35938-0.31055-0.31055-0.20703 0.20703a3.7267 3.7267 0 0 1-0.001953-0.41602l-7.5762-7.5762zm1.5195 0.085938a7.8533 7.8533 0 0 1 0.91602 0.19922l5.4355 5.4375a7.8533 7.8533 0 0 1 0.076171 0.33594 3.7267 3.7267 0 0 1 0.71094-1.0059 3.7267 3.7267 0 0 1 1.5469-0.92578l-2.2031 2.2031a7.8533 7.8533 0 0 1 0.0625 0.30273l-0.18164-0.18164-0.15039 0.14844a3.7267 3.7267 0 0 1 0.078125-0.2207l-6.0996-6.0996-0.19141-0.19336zm-3.377 0.20508 0.021484 0.021484 1.7559 1.7578 7.9336 7.9316a7.8533 7.8533 0 0 1-0.17773 0.54102l-8.1133-8.1152-1.7578-1.7559-0.19726-0.19727a7.8533 7.8533 0 0 1 0.53516-0.18359zm-1.043 0.39062 0.34766 0.34766 1.7559 1.7578 8.2695 8.2695a7.8533 7.8533 0 0 1-0.23828 0.47656l-8.3887-8.3887-1.7578-1.7559-0.47461-0.47656a7.8533 7.8533 0 0 1 0.48633-0.23047zm6.4531 0.0039062a7.8533 7.8533 0 0 1 2.3145 1.5977 7.8533 7.8533 0 0 1 1.584 2.3027l-3.8984-3.9004zm-7.3887 0.49414 10.807 10.807a7.8533 7.8533 0 0 1-0.2832 0.43359l-10.953-10.953a7.8533 7.8533 0 0 1 0.42969-0.28711zm-0.83984 0.59375 2.4453 2.4453 8.6035 8.6016a7.8533 7.8533 0 0 1-0.33398 0.38477l-10.383-10.383-0.70703-0.70898a7.8533 7.8533 0 0 1 0.375-0.33984zm-0.73633 0.69531 0.70898 0.71094 1.7578 1.7559 8.623 8.625a7.8533 7.8533 0 0 1-0.37695 0.33984l-8.6055-8.6055-1.7559-1.7578-0.68555-0.68359a7.8533 7.8533 0 0 1 0.33398-0.38477zm-0.64844 0.78516 0.64062 0.64258 1.7578 1.7559 8.5547 8.5547a7.8533 7.8533 0 0 1-0.42969 0.28711l-8.4844-8.4824-1.7559-1.7578-0.56641-0.56641a7.8533 7.8533 0 0 1 0.2832-0.43359zm-0.54688 0.88672 10.621 10.621a7.8533 7.8533 0 0 1-0.48633 0.23047l-10.375-10.375a7.8533 7.8533 0 0 1 0.24023-0.47656zm20.375 0.76367a3.7267 3.7267 0 0 1 0.16016 0.14844 3.7267 3.7267 0 0 1 0.14844 0.16406l-5.2578 5.2559a3.7267 3.7267 0 0 1-0.16016-0.14844 3.7267 3.7267 0 0 1-0.14648-0.16406l5.2559-5.2559zm-20.818 0.22656 10.07 10.07a7.8533 7.8533 0 0 1-0.53516 0.18164l-7.9375-7.9395-1.7578-1.7559-0.015625-0.015625a7.8533 7.8533 0 0 1 0.17578-0.54102zm21.4 0.43164a3.7267 3.7267 0 0 1 0.23828 0.38281l-5.0352 5.0332a3.7267 3.7267 0 0 1-0.38867-0.23242l5.1855-5.1836zm-21.723 0.67969 9.2793 9.2793a7.8533 7.8533 0 0 1-0.61719 0.099609l-7.459-7.4609-1.3047-1.3027a7.8533 7.8533 0 0 1 0.10156-0.61523zm22.15 0.13281a3.7267 3.7267 0 0 1 0.14258 0.47656l-4.4648 4.4648a3.7267 3.7267 0 0 1-0.47461-0.14453l4.7969-4.7969zm0.23047 1.0098a3.7267 3.7267 0 0 1-0.005859 0.625l-3.3926 3.3926a3.7267 3.7267 0 0 1-0.61719-0.003906l4.0156-4.0137zm-22.533 0.13672 0.99609 0.99805 7.1562 7.1543a7.8533 7.8533 0 0 1-0.7207-0.003907l-7.4277-7.4277a7.8533 7.8533 0 0 1-0.003906-0.7207zm22.381 1.2559a3.7267 3.7267 0 0 1-0.92773 1.5469 3.7267 3.7267 0 0 1-1.5469 0.92578l2.4746-2.4727zm-22.293 0.26367 0.19141 0.19336 6.3535 6.3535a7.8533 7.8533 0 0 1-0.91602-0.19922l-5.4375-5.4375a7.8533 7.8533 0 0 1-0.19141-0.91016zm0.61133 2.0469 3.9004 3.9004a7.8533 7.8533 0 0 1-2.3145-1.5977 7.8533 7.8533 0 0 1-1.5859-2.3027zm12.074 14.529a5.6943 5.6943 0 0 1 0.52344 0.001953l0.45898 0.45898 4.9258 4.9277a5.6943 5.6943 0 0 1 0.003906 0.52344l-5.1895-5.1914-0.72266-0.7207zm-0.47852 0.039062 6.3535 6.3535a5.6943 5.6943 0 0 1-0.074219 0.44727l-5.5977-5.5996-1.1309-1.1289a5.6943 5.6943 0 0 1 0.44922-0.072266zm1.582 0.023438a5.6943 5.6943 0 0 1 0.66406 0.14453l3.9414 3.9414a5.6943 5.6943 0 0 1 0.14062 0.66016l-4.7461-4.7461zm-2.4492 0.14844 0.015624 0.015625 7.0254 7.0254a5.6943 5.6943 0 0 1-0.12891 0.39258l-5.8828-5.8848-1.2734-1.2734-0.14453-0.14258a5.6943 5.6943 0 0 1 0.38867-0.13281zm-0.75586 0.2832 1.5254 1.5254 5.9961 5.998a5.6943 5.6943 0 0 1-0.17383 0.3457l-6.082-6.084-1.2734-1.2734-0.3457-0.34375a5.6943 5.6943 0 0 1 0.35352-0.16797zm4.6777 0.003906a5.6943 5.6943 0 0 1 1.6777 1.1582 5.6943 5.6943 0 0 1 1.1504 1.6699l-2.8281-2.8281zm-5.3574 0.35742 0.41211 0.41016 1.2734 1.2734 6.1504 6.1523a5.6943 5.6943 0 0 1-0.20508 0.31445l-6.2051-6.207-1.2734-1.2734-0.46289-0.46094a5.6943 5.6943 0 0 1 0.31055-0.20898zm-0.60742 0.43164 0.5 0.49805 1.2734 1.2734 6.2363 6.2383a5.6943 5.6943 0 0 1-0.24023 0.27734l-7.5293-7.5293-0.51367-0.51172a5.6943 5.6943 0 0 1 0.27344-0.24609zm-0.53516 0.50391 0.51563 0.51367 7.5273 7.5273a5.6943 5.6943 0 0 1-0.27344 0.24609l-8.0098-8.0098a5.6943 5.6943 0 0 1 0.24023-0.27734zm-0.46875 0.56836 7.9414 7.9414a5.6943 5.6943 0 0 1-0.31055 0.20898l-7.8359-7.8359a5.6943 5.6943 0 0 1 0.20508-0.31445zm-0.39844 0.64258 0.34375 0.3418 7.3594 7.3594a5.6943 5.6943 0 0 1-0.35352 0.16797l-5.9922-5.9941-1.5293-1.5293a5.6943 5.6943 0 0 1 0.17188-0.3457zm-0.32031 0.71875 0.14453 0.14258 1.2734 1.2734 5.8828 5.8848a5.6943 5.6943 0 0 1-0.38672 0.13281l-5.7559-5.7578-1.2852-1.2852a5.6943 5.6943 0 0 1 0.12695-0.39062zm-0.23242 0.80469 1.1309 1.1309 5.5957 5.5977a5.6943 5.6943 0 0 1-0.44726 0.072266l-5.4082-5.4102-0.94531-0.94336a5.6943 5.6943 0 0 1 0.074219-0.44726zm-0.11133 0.92773 5.9121 5.9121a5.6943 5.6943 0 0 1-0.52344-0.001953l-4.9258-4.9277-0.45898-0.45898a5.6943 5.6943 0 0 1-0.003907-0.52344zm0.0625 1.1035 0.14063 0.13867 4.6055 4.6074a5.6943 5.6943 0 0 1-0.66406-0.14453l-3.9414-3.9414a5.6943 5.6943 0 0 1-0.14063-0.66016zm0.44531 1.4824 2.8262 2.8281a5.6943 5.6943 0 0 1-1.6777-1.1582 5.6943 5.6943 0 0 1-1.1484-1.6699z" fill="#fff"/>
</svg>
