<?xml version="1.0" encoding="utf-8"?>
<!-- Generator: Adobe Illustrator 21.1.0, SVG Export Plug-In . SVG Version: 6.00 Build 0)  -->
<svg version="1.0" id="Layer_1" xmlns="http://www.w3.org/2000/svg" xmlns:xlink="http://www.w3.org/1999/xlink" x="0px" y="0px"
	 viewBox="0 0 48 48" style="enable-background:new 0 0 48 48;" xml:space="preserve">
<style type="text/css">
	.st0{fill:#FFFFFF;}
</style>
<path class="st0" d="M41.9,22.3c0,6.1,0,12.2,0,18.2c-0.5,0.9-1.2,1.6-2.1,2.1c-5.9,0-11.8,0-17.7,0c0-0.4,0.3-0.6,0.6-0.9
	c1.1-1.1,2.2-2.2,3.3-3.4c0.6-0.6,1.2-1.1,1.5-2c3.4,0,6.8-0.1,10.3,0c0.8,0,1-0.2,1-1c0-3.7,0-7.3,0-11c0.5,0.1,0.8-0.4,1.1-0.7
	C40.6,23.2,41,22.4,41.9,22.3z M30.4,37.9c-1,0-1.6,0.5-1.7,1.4c0,1,0.5,1.7,1.5,1.7c1,0,1.6-0.6,1.7-1.5
	C31.9,38.6,31.3,38,30.4,37.9z M21.9,36.5c-0.3-0.5-0.2-0.8-0.1-1.2c0-1.9-0.1-3.7-0.1-5.6c-0.2,0-0.5,0-0.5-0.3
	c0-0.3,0.3-0.3,0.5-0.3c0-0.2,0-0.4,0-0.6c-0.1,0-0.2-0.1-0.2-0.1c0.1,0,0.2-0.1,0.2-0.1c0-0.2,0.1-0.4,0.1-0.6c0-3-0.1-6-0.1-8.9
	c-0.3,0-0.6,0-0.9,0c-0.8,0.7-1.6,1.4-2.3,2.3c0.2,2.9,0.1,5.8,0,8.7c0,0.5,0.1,0.9,0.1,1.4c0.2,0,0.4-0.1,0.4,0.2
	c0,0.3-0.3,0.2-0.4,0.2c0,2.1-0.1,4.1-0.1,6.2c0,0.8,0.1,1.6,0.1,2.4c0.3,0.1,0.4,0.2,0.1,0.4c0.2,1.1,1.1,1.6,1.9,2.1
	c0.5,0,0.9,0,1.4,0c0-0.4,0.3-0.6,0.6-0.9c1.1-1.1,2.2-2.2,3.3-3.4c0.6-0.6,1.2-1.1,1.5-2C25.7,36.5,23.8,36.5,21.9,36.5z M25.5,7.9
	c-0.3,0.3-0.7,0.5-0.6,1c3,0,6.1,0.1,9.1,0.1c1.6,0,3.1,0,4.7,0c0.1,0,0.2,0.1,0.2,0.2c0,0.8,0,1.7,0.1,2.5c0.9-0.3,1.4-1.1,2-1.7
	c0.3-0.3,0.6-0.6,1-0.7c0-0.6,0-1.3,0-1.9c-0.6-0.9-1.2-1.8-2.3-2.1c-3.9,0-7.9,0-11.8,0C27.3,6.5,26.2,7.1,25.5,7.9z M20.8,5.4
	c-1.1,0.6-2.1,1.3-2.1,2.7c0,2.2,0,4.4,0,6.6c0.3-0.1,0.6-0.3,0.9-0.4c0.5-0.9,1.2-1.6,2.2-2c0-1.1-0.3-2.4,0.2-3.1
	c0.5-0.7,1.9-0.1,2.9-0.3c0-0.5,0.4-0.7,0.6-1c0.7-0.9,1.8-1.5,2.3-2.6C25.4,5.4,23.1,5.4,20.8,5.4z M38.8,19c0,1.8,0.1,3.6,0.1,5.4
	c0.5,0.1,0.8-0.4,1.1-0.7c0.6-0.5,1-1.3,2-1.5c0-4.3,0-8.5,0-12.8c-0.4,0.1-0.7,0.4-1,0.7c-0.6,0.6-1.1,1.4-2,1.7
	C38.8,14.2,38.8,16.6,38.8,19z M18.8,16.2c-0.1,0.1-0.1,0.1-0.2,0.2c-2.1,2.1-4.3,4.2-6.4,6.4c-0.9,0.9-1.7,1.3-3,1.2
	c-1.8-0.2-3.1,0.9-3.7,2.5c-0.6,1.6-0.1,3.3,1.2,4.4c1.5,1.2,3.1,1.1,4.7,0.4c0.7-0.7,1.4-1.4,1.7-2.5c-0.4-1.9,0.6-3.2,2-4.4
	c1.2-1,2.2-2.2,3.4-3.3c0.6-0.9,1.4-1.6,2.3-2.3c0.2-0.5,0.6-0.4,0.9-0.2c1.5,0.1,2.8-0.2,3.6-1.8c-0.6-0.9-0.6-1.8,0-2.7
	c-0.2-0.3-0.3-0.5-0.5-0.8c-0.9-0.9-2-1.1-3.1-1c-1,0.3-1.7,1-2.2,2C19.3,14.9,19.7,15.8,18.8,16.2z M14.1,32.9
	c0.5,0.3,0.7,0.6,0.7,1.1c0,2.1,1.7,3.7,3.8,3.7c0-2.1,0.1-4.1,0.1-6.2c0-0.1,0-0.3,0-0.4c0-0.5-0.1-0.9-0.1-1.4
	c-0.2,0-0.3,0-0.5,0.1c-1.9,1.2-3.4,0-4.9-1c-0.3,1-1,1.7-1.7,2.5C12.3,31.8,13.2,32.4,14.1,32.9z M18.7,14.7c0,0.4,0,0.8,0,1.2
	c0.1,0.1,0.1,0.2,0.2,0.3c0.9-0.4,0.5-1.3,0.7-1.9C19.3,14.4,19,14.6,18.7,14.7z M18.8,40.5c0.3-0.2,0.1-0.3-0.1-0.4
	C18.7,40.3,18.7,40.4,18.8,40.5z M18.7,16.3c0.1-0.1,0.1-0.1,0.2-0.2c-0.1-0.1-0.1-0.2-0.2-0.3C18.7,16,18.7,16.2,18.7,16.3z
	 M21.2,29.3c0,0.3,0.3,0.3,0.5,0.3c0-0.2,0-0.4,0-0.6C21.5,29.1,21.2,29,21.2,29.3z M20.8,18.8c0.3,0,0.6,0,0.9,0
	c0-0.1,0.1-0.1,0.1-0.2C21.4,18.4,21.1,18.2,20.8,18.8z M19.1,31.4c0-0.3-0.3-0.2-0.4-0.2c0,0.1,0,0.3,0,0.4
	C18.9,31.5,19.1,31.6,19.1,31.4z M21.5,28.4c0.1,0,0.2,0.1,0.2,0.1c0-0.1,0-0.1,0-0.2C21.6,28.3,21.6,28.3,21.5,28.4z M38.6,9.1
	c0.1,0.1,0.1,0.1,0.2,0.2C38.8,9.1,38.8,9,38.6,9.1z M25.3,14.1c-0.6,0.9-0.6,1.8,0,2.7c0.4,0,0.8,0.3,1.2,0.2
	c0.6,0,0.8-0.7,1.4-0.8c0-1.8-0.2-1.5,1.5-1.5c1.3,0,2.5,0,3.8,0c-0.8-0.8-1.9-1-2.7-1.6c-0.8-0.4-1.6-0.8-2.4-1.1
	c-0.3-0.1-0.8-0.7-1.1,0.1C27,13.1,26.7,14,25.3,14.1z M26.3,32.7c1.9,1.5,4,1.9,6.3,1c2.3-0.9,3.6-2.7,3.9-5.1
	c0.1-0.6,0.2-1.4-0.7-1.4c-0.8-0.1-0.8,0.6-0.9,1.2c-0.3,2.2-1.8,3.7-4,4.1c-1.7,0.3-3.7-0.7-4.5-2.3c-0.5-0.6-0.7-1.4-0.7-2.1
	c0-0.5-0.2-1-0.8-1c-0.7,0-0.8,0.5-0.8,1.1c0,1.3,0.5,2.4,1.2,3.5C25.6,32,26,32.4,26.3,32.7z M35.2,24.8c0.5,0,1,0.2,1.3-0.4
	c0.2-0.5,0.1-1.1-0.3-1.5c-0.2-0.3-0.5-0.5-0.8-0.7c-2.1-0.2-2.9,0.6-2.6,2.4C33.5,25,34.4,24.7,35.2,24.8z M27.3,19.3
	c1.8-0.9,3.6-1.7,5.3-2.5c0.1-0.2,0.5-0.2,0.5-0.5c-0.2,0-0.4,0-0.6-0.1c-1.5,0-3,0-4.5,0c-0.6,0.1-0.8,0.8-1.4,0.8
	C26.8,17.8,26.8,18.6,27.3,19.3z M27,24.8c0.8,0,1.1-0.4,1-1.1c-0.1-0.3-0.3-0.6-0.4-1c-0.6-0.5-1.3-0.8-2-0.6
	c-0.7,0.2-1.3,0.7-1.4,1.4C24,24,24,24.6,24.7,24.8C25.4,24.8,26.2,24.8,27,24.8z"/>
</svg>
