<?xml version="1.0" encoding="UTF-8"?>
<svg version="1.1" viewBox="0 0 48 48" xmlns="http://www.w3.org/2000/svg">
    <path d="m19.795 3c-0.525 0-0.95506 0.38931-1.0391 0.88281l-0.78906 5.5645c-1.2693 0.52942-2.4626 1.2249-3.5488 2.0684l-5.2285-2.1113c-0.47996-0.18312-1.0222 0.00953-1.2812 0.45312l-4.1992 7.2754c-0.2625 0.4515-0.14705 1.0183 0.25195 1.3438l4.4316 3.4766c-0.091487 0.67878-0.14202 1.362-0.14844 2.0469 0 0.693 0.064438 1.3749 0.14844 2.0469l-4.4316 3.4766c-0.399 0.315-0.51445 0.88175-0.25195 1.3438l4.1992 7.2754c0.2625 0.4515 0.80875 0.64212 1.2812 0.45312l5.2285-2.1113c1.0815 0.8295 2.2678 1.5329 3.5488 2.0684l0.78906 5.5645c0.084 0.4935 0.51406 0.88281 1.0391 0.88281h8.4004c0.525 0 0.95506-0.38931 1.0391-0.88281l0.78711-5.5645c1.2693-0.52942 2.4626-1.2249 3.5488-2.0684l5.2285 2.1113c0.47996 0.18312 1.0222-0.0095 1.2812-0.45312l4.2012-7.2754c0.2625-0.4515 0.14705-1.0183-0.25195-1.3438l-4.4316-3.4766c0.084-0.672 0.14648-1.3539 0.14648-2.0469s-0.06249-1.3749-0.14648-2.0469l4.4414-3.4766c0.399-0.315 0.51445-0.88175 0.25195-1.3438l-4.1992-7.2754c-0.2625-0.4515-0.80875-0.64212-1.2812-0.45312l-5.2285 2.1113c-1.0815-0.8295-2.2678-1.5329-3.5488-2.0684l-0.78906-5.5645c-0.0945-0.4935-0.52383-0.88281-1.0488-0.88281h-8.4004zm10.57 10.65c0.12724 0.13409 0.33356 0.33359 0.48047 0.48438l-2.0117 2.0137 0.73633 2.75 2.752 0.73828 2.0059-2.0059c0.35894 0.36621 0.6055 0.6288 0.5957 0.66016-0.84743 2.2659-2.8336 2.833-4.9707 2.3262l-3.2715 3.2852 6.791 6.791c0.38374 0.38373 0.38374 1.0029 0 1.3867l-0.58398 0.58594c-0.38373 0.38373-1.0029 0.38373-1.3867 0l-6.793-6.791c-1.156 1.156-3.4766 3.4609-3.4766 3.4609 0.21385 0.47547 0.24374 0.79706 0.24414 1.3184 0 2.0408-1.6545 3.6953-3.6953 3.6953-2.0408 0-3.6953-1.6545-3.6953-3.6953 0-2.0408 1.6546-3.6953 3.6953-3.6953 0.59131-8.45e-4 1.0507 0.074541 1.5762 0.3457l3.3945-3.3926-3.873-3.873-2.2188 2.2207c-0.36189 0.3619-0.94285 0.3619-1.3047 0l-1.9609-1.9629c-0.36178-0.36189-0.44812-0.97436-0.085937-1.3359l4.8672-4.8555c0.42837-0.42848 0.42818-0.43126 0.95703 0.074219 0.16664 0.13573 0.32444 0.24957 0.47852 0.33984 0.30814 0.18062 0.59782 0.26888 0.88672 0.26758 0.2889-2e-3 0.91065-0.1333 1.3887-0.61133 0.49758-0.49773 0.49566-0.49709 0.95508-0.052734l0.4375 0.45117c0.53299 0.53299 0.53328 0.53565 0 1.0684l-2.4297 2.4277 3.8711 3.8711 3.2793-3.2793c-0.79431-2.2865 0.25876-4.0942 2.3652-5.0117zm-11.941 14.58-2.5 0.66992-0.66992 2.502 1.8301 1.8301 2.502-0.67188 0.66797-2.498-1.8301-1.832z" fill="#fff" stroke-width="1.05"/>
</svg>
