<svg
   width="48"
   height="48"
   >
<path
   style="fill:#ffffff"
   d="m 36.65582,31.922817 c 0,6.08 -4.896,11.008 -10.976,11.008 h -3.264 c -6.048,0 -10.976,-4.928 -10.976,-11.008 v -11.104 c 0,-6.08 4.896,-11.008 10.976,-11.008 h 3.296 c 6.048,0 10.976,4.928 10.976,11.008 v 11.104 z m 9.184,-17.344 h 1.856 V 8.1788171 c 0,-4.768 -3.072,-7.77600009 -7.84,-7.77600009 H 8.2398197 c -4.768,0 -7.84000004,3.00800009 -7.84000004,7.77600009 V 14.578817 H 2.2558197 c 3.456,0 6.016,3.008 6.016,6.304 v 6.304 c 0,3.296 -2.56,6.304 -6.016,6.304 H 0.39981966 v 6.4 c 0,4.768 3.07200004,7.776 7.84000004,7.776 H 39.85582 c 4.768,0 7.84,-3.008 7.84,-7.776 v -6.4 h -1.856 c -3.456,0 -6.016,-3.008 -6.016,-6.304 v -6.304 c -0.032,-3.328 2.528,-6.304 6.016,-6.304 z"
   /><path
   style="fill:#ffffff"
   d="m 32.019279,27.354981 c 0,3.296 -3.456,6.304 -6.912,6.304 h -1.92 c -3.456,0 -6.912,-3.008 -6.912,-6.304 v -6.304 c 0,-3.296 3.456,-6.304 6.912,-6.304 h 1.92 c 3.488,0 6.912,3.008 6.912,6.304 z m -6.24,-15.744 h -3.488 c -5.056,0 -9.184,4.608 -9.184,9.664 v 10.624 c 0,5.056 4.128,9.664 9.184,9.664 h 3.488 c 5.056,0 9.376,-4.608 9.376,-9.664 v -10.624 c 0.032,-5.056 -4.32,-9.664 -9.376,-9.664 z"
   /><path
   style="fill:#ffffff"
   d="m 24.549656,30.662976 h -0.192 c -2.624,0 -5.12,-1.536 -5.12,-4.224 v -2.56 c 0,0 0,-0.928 -0.864,-0.928 -0.864,0 -0.864,0.928 -0.864,0.928 v 2.56 c 0,3.648 3.264,5.952 6.848,5.952 h 0.192 c 0,0 0.832,0 0.832,-0.832 0,-0.864 -0.832,-0.896 -0.832,-0.896"
   />
</svg>
