<?xml version="1.0" encoding="utf-8"?>
<!-- Generator: Adobe Illustrator 21.1.0, SVG Export Plug-In . SVG Version: 6.00 Build 0)  -->
<svg version="1.0" id="Layer_1" xmlns="http://www.w3.org/2000/svg" xmlns:xlink="http://www.w3.org/1999/xlink" x="0px" y="0px"
	 viewBox="0 0 48 48" style="enable-background:new 0 0 48 48;" xml:space="preserve">
<style type="text/css">
	.st0{fill:#FFFFFF;}
</style>
<path class="st0" d="M24,2C11.8,2,2,11.8,2,24s9.8,22,22,22s22-9.8,22-22S36.2,2,24,2z M19.5,19.4c0-1.9,0-3.7,0-5.6
	c0-1.1,0.5-1.9,1.4-2.5c2-1.1,4-1.1,6,0c0.9,0.5,1.4,1.3,1.4,2.4c0,3.7,0,7.5,0,11.2c0,1.2-0.6,2-1.6,2.5c-1.9,1-3.9,1-5.8,0
	c-1-0.5-1.6-1.4-1.5-2.6C19.5,23,19.5,21.2,19.5,19.4z M26.2,30.8c-0.1,0.5-0.1,0.9-0.2,1.4c-0.4,0.1-0.8,0.2-1.3,0.4
	c0,0.4,0,0.8,0,1.3c1.9,0.3,3.9,0.1,5.7,1.2c0,0.2,0.1,0.4,0.1,0.5c0,0.2,0,0.4,0,0.5c-2,1.7-10.4,1.8-13.1,0.1
	c0-0.3-0.1-0.6-0.1-0.9c0.8-0.9,1.8-0.9,2.8-1.1c1-0.2,2-0.2,3-0.3c0-0.5,0-0.9,0-1.3c-0.5-0.1-0.9-0.3-1.3-0.4
	c0-0.5-0.1-0.9-0.1-1.4c-3.6-0.9-5.5-3.2-5-7.2c-0.3-0.1-0.6-0.3-0.9-0.4c0-0.3,0-0.7,0-1.1c0.7,0,1.2,0,2,0c0,0.7,0,1.3,0,2
	c0,3.6,1.5,5.3,5,5.8c1.5,0.2,3,0,4.5-0.6c1.7-0.8,2.7-2.1,2.8-4c0-1,0-2,0-3.1c0.7,0,1.4,0,2.1,0c0,0.3,0.1,0.7,0.1,1
	c-0.4,0.2-0.7,0.3-1.1,0.4C31.6,27.5,29.8,29.8,26.2,30.8z"/>
</svg>
