<?xml version="1.0" encoding="UTF-8"?>
<svg version="1.1" viewBox="0 0 48 48" xmlns="http://www.w3.org/2000/svg">
    <path d="m24.274 15.707c-5.4408-0.052512-10.974 0.87005-14.537 2.9274 0 18.293 12.62 24.366 14.263 24.366s14.263-7.0591 14.263-24.366c-3.1996-1.8473-8.5483-2.8749-13.989-2.9274zm-0.27393 4.7102a3.5658 3.5658 0 0 1 3.5658 3.5658 3.5658 3.5658 0 0 1-1.3906 2.8229 4.7544 7.1315 0 0 1 2.549 5.5924h-9.453a4.7544 7.1315 0 0 1 2.5536-5.5947 3.5658 3.5658 0 0 1-1.3906-2.8206 3.5658 3.5658 0 0 1 3.5658-3.5658z" fill="#fff"/>
    <path d="m24.098 5a9.5087 9.5087 0 0 0-9.5041 9.3833c1.1511-0.29218 2.3667-0.52471 3.6261-0.69412a5.9429 5.9429 0 0 1 5.8779-5.1235 5.9429 5.9429 0 0 1 5.8895 5.1931c1.2687 0.18163 2.4817 0.42013 3.6168 0.71269a9.5087 9.5087 0 0 0-9.5064-9.4716z" fill="#fff"/>
</svg>
