<?xml version="1.0" encoding="UTF-8"?>
<svg version="1.1" viewBox="0 0 48 48" xmlns="http://www.w3.org/2000/svg">
    <path d="m13.215 5a8.2165 8.2165 0 0 0-8.2148 8.2148 8.2165 8.2165 0 0 0 8.2148 8.2168h21.57a8.2165 8.2165 0 0 0 8.2148-8.2168 8.2165 8.2165 0 0 0-8.2148-8.2148 8.2165 8.2165 0 0 0-8.2168 8.2148v3.7949h3.4219v-3.7949a4.7932 4.7932 0 0 1 4.7949-4.791 4.7932 4.7932 0 0 1 4.791 4.791 4.7932 4.7932 0 0 1-4.791 4.7949h-21.57a4.7932 4.7932 0 0 1-4.791-4.7949 4.7932 4.7932 0 0 1 4.791-4.791 4.7932 4.7932 0 0 1 4.7949 4.791v3.7949h3.4219v-3.7949a8.2165 8.2165 0 0 0-8.2168-8.2148z" fill="#fff" style="paint-order:stroke markers fill"/>
    <path d="m18.01 22.432v4.1367h-2e-3v3.4219h2e-3v4.7949a4.7932 4.7932 0 0 1-4.7949 4.791 4.7932 4.7932 0 0 1-4.791-4.791 4.7932 4.7932 0 0 1 4.791-4.7949h3.793v-3.4219h-3.793a8.2165 8.2165 0 0 0-8.2148 8.2168 8.2165 8.2165 0 0 0 8.2148 8.2148 8.2165 8.2165 0 0 0 8.2168-8.2148v-12.354z" fill="#fff" style="paint-order:stroke markers fill"/>
    <path d="m26.568 22.432v12.354a8.2165 8.2165 0 0 0 8.2168 8.2148 8.2165 8.2165 0 0 0 8.2148-8.2148 8.2165 8.2165 0 0 0-8.2148-8.2168h-3.7949v3.4219h3.7949a4.7932 4.7932 0 0 1 4.791 4.7949 4.7932 4.7932 0 0 1-4.791 4.791 4.7932 4.7932 0 0 1-4.7949-4.791v-12.354z" fill="#fff" style="paint-order:stroke markers fill"/>
    <path d="m22.432 26.568v3.4219h3.1367v-3.4219z" fill="#fff" style="paint-order:stroke markers fill"/>
</svg>
