<?xml version="1.0" encoding="UTF-8"?>
<svg version="1.1" viewBox="0 0 48 48" xmlns="http://www.w3.org/2000/svg">
    <path d="m43 29.693a10.532 10.532 0 0 1-10.532 10.532 10.532 10.532 0 0 1-10.532-10.532 10.532 10.532 0 0 1 10.532-10.532 10.532 10.532 0 0 1 10.532 10.532z" fill="#fff" stroke-dashoffset="5.18" stroke-linecap="round" stroke-linejoin="round" stroke-width="1.7008" style="paint-order:stroke markers fill"/>
    <path d="m16.702 13.626a5.8511 5.8511 0 0 1-5.8511 5.8511 5.8511 5.8511 0 0 1-5.8511-5.8511 5.8511 5.8511 0 0 1 5.8511-5.8511 5.8511 5.8511 0 0 1 5.8511 5.8511z" fill="#fff" stroke-dashoffset="5.18" stroke-linecap="round" stroke-linejoin="round" stroke-width="1.7008" style="paint-order:stroke markers fill"/>
</svg>
