<?xml version="1.0" encoding="utf-8"?>
<!-- Generator: Adobe Illustrator 21.1.0, SVG Export Plug-In . SVG Version: 6.00 Build 0)  -->
<svg version="1.0" id="Layer_1" xmlns="http://www.w3.org/2000/svg" xmlns:xlink="http://www.w3.org/1999/xlink" x="0px" y="0px"
	 viewBox="0 0 48 48" style="enable-background:new 0 0 48 48;" xml:space="preserve">
<style type="text/css">
	.st0{fill:#FFFFFF;}
</style>
<path class="st0" d="M40,23.7c0,4.7,0,9.4,0,14.2c0,3.1-1.6,4.8-4.6,4.8c-7.5,0.1-15,0.1-22.5,0c-3,0-4.8-1.8-4.8-5
	C8,28.4,8,19.1,8.1,9.8c0-1.5,0.8-3,1.5-4.3c0.2-0.5,1.2-0.9,1.8-0.9c8.5-0.1,17-0.1,25.5,0c1.6,0,3.1,2.2,3.1,4.6
	C40,14,40,18.9,40,23.7C40,23.7,40,23.7,40,23.7z M14.6,39.9c0.5,0,1,0.1,1.4,0.1c6.5,0,13,0,19.4,0c3.2,0,3.6-1.8,3-4.8
	c-7.9,0-15.9,0-23.9,0C14.6,36.9,14.6,38.3,14.6,39.9z M14.5,14.6c8.1,0,16.1,0,24.1,0c0-1.6,0-3.1,0-4.6c-8.1,0-16,0-24.1,0
	C14.5,11.5,14.5,13,14.5,14.6z M14.5,19.6c8.1,0,16.1,0,24.1,0c0-1.5,0-2.9,0-4.4c-8.1,0-16.1,0-24.1,0
	C14.5,16.7,14.5,18.1,14.5,19.6z M14.5,34.5c8.1,0,16.1,0,24,0c0-1.5,0-2.8,0-4.2c-8.1,0-16,0-24,0C14.5,31.8,14.5,33.1,14.5,34.5z
	 M38.6,20.4c-8.1,0-16.1,0-24.1,0c0,1.5,0,2.8,0,4.2c8.1,0,16.1,0,24.1,0C38.6,23.1,38.6,21.8,38.6,20.4z M38.6,29.5
	c0-1.5,0-2.8,0-4.2c-8.1,0-16,0-24,0c0,1.5,0,2.8,0,4.2C22.6,29.5,30.5,29.5,38.6,29.5z M13.6,39.8c0-1.5,0-3,0-4.5
	c-1.4,0-2.8,0-4.1,0C8.9,39,10.3,40.6,13.6,39.8z M13.7,30.3c-1.4,0-2.8,0-4.2,0c0,1.4,0,2.8,0,4.2c1.4,0,2.8,0,4.2,0
	C13.7,33.1,13.7,31.7,13.7,30.3z M9.5,19.6c1.5,0,2.8,0,4.2,0c0-1.5,0-2.8,0-4.3c-1.4,0-2.7,0-4.2,0C9.5,16.7,9.5,18.1,9.5,19.6z
	 M13.7,20.3c-1.4,0-2.8,0-4.3,0c0,1.4,0,2.8,0,4.2c1.5,0,2.8,0,4.3,0C13.7,23.1,13.7,21.8,13.7,20.3z M9.5,29.4c1.5,0,2.8,0,4.2,0
	c0-1.5,0-2.8,0-4.1c-1.5,0-2.8,0-4.2,0C9.5,26.7,9.5,28,9.5,29.4z M9.5,14.7c1.4,0,2.6,0,4.1,0c0-1.4,0-2.6,0-4c-1.4,0-2.6,0-4.1,0
	C9.5,12.1,9.5,13.3,9.5,14.7z"/>
</svg>
