<?xml version="1.0" encoding="UTF-8"?>
<svg version="1.1" viewBox="0 0 48 48" xmlns="http://www.w3.org/2000/svg">
    <path d="m11 6.0098c-1.108 0-2 0.892-2 2v6c0-1.108 0.892-2 2-2h1v-1.5996c0-0.7756 0.71321-1.4004 1.5996-1.4004h20.801c0.8864 0 1.5996 0.62479 1.5996 1.4004v1.5996h1c1.108 0 2 0.892 2 2v-6c0-1.108-0.892-2-2-2zm0 7.9805c-1.108 0-2 0.892-2 2v6c0-1.108 0.892-2 2-2h1v-1.5996c0-0.7756 0.71321-1.4004 1.5996-1.4004h20.801c0.8864 0 1.5996 0.62479 1.5996 1.4004v1.5996h1c1.108 0 2 0.892 2 2v-6c0-1.108-0.892-2-2-2zm0 8c-1.108 0-2 0.892-2 2v16c0 1.108 0.892 2 2 2h26c1.108 0 2-0.892 2-2v-16c0-1.108-0.892-2-2-2zm2.5996 3h20.801c0.8864 0 1.5996 0.62479 1.5996 1.4004v11.199c0 0.7756-0.71321 1.4004-1.5996 1.4004h-20.801c-0.8864 0-1.5996-0.62479-1.5996-1.4004v-11.199c0-0.7756 0.71321-1.4004 1.5996-1.4004zm13.678 1.3418-2.123 2.1211 3.5371 3.5352-3.5371 3.5352 2.123 2.123 3.5352-3.5371 2.1211-2.1211-2.1211-2.1211z" fill="#fff"/>
</svg>
