<?xml version="1.0" encoding="UTF-8"?>
<svg version="1.1" viewBox="0 0 48 48" xmlns="http://www.w3.org/2000/svg">
    <path d="m7.15 19.282 3.7822-2.5094c-0.51166-1.4534-1.1573-2.7896-0.71632-5.0765l-1.6195 0.34259c-0.47177 1.7091 0.03353 2.7668 0.24915 4.0176l-1.5884 1.09z" fill="#fff"/>
    <path d="m7.195 20.479-0.10671 3.2993 3.9063-2.8944 0.46512-1.5409c-1.9797-0.27244-2.9702 0.60908-4.2647 1.136z" fill="#fff"/>
    <path d="m5.7623 25.711 5.17-2.6473-0.03114 2.0244c-2.0779 0.67468-3.1898 2.4763-4.5782 3.9553z" fill="#fff"/>
    <path d="m7.2884 36.393 2.4604-1.7752 0.5606 1.6195c-0.79424 0.77003-1.6191 1.6318-2.5365 2.7713z" fill="#fff"/>
    <path d="m6.3852 29.915 2.1178-1.1212c-0.17349 1.5076-0.49738 2.9346 0.2803 4.7962l-1.6803 1.885z" fill="#fff"/>
    <path d="m7.7455 39.691 2.9792-1.0496 0.72566 1.3584-2.5938 2.5186z" fill="#fff"/>
    <path d="m15.206 39.708c-2.1049-1.3348-3.0442-1.4375-2.7057-4.984 0 0 1.5355 0.63722 1.6916 0.98081-0.08563 1.4671 0.78723 2.8682 1.0142 4.0032z" fill="#fff"/>
    <path d="m18.159 38.013-0.61494 2.5055c-0.30627-0.61581-1.2764-1.7712-1.2255-2.6577l0.09486-1.6509c0.77972 0.35371 1.3068 1.0232 1.7456 1.8031z" fill="#fff"/>
    <path d="m21.884 42.965c-1.6328-0.3619-2.6354-2.0455-2.0437-3.7066 0 0 1.5084 0.45002 2.0171 0.78732z" fill="#fff"/>
    <path d="m25.368 39.233c0 1.1976-0.68386 3.2495-1.8779 3.7671l-0.21321-3.3447z" fill="#fff"/>
    <path d="m28.964 42.418c-0.55741-0.10333-2.1136-0.75522-2.1136-0.75522s-0.3466-1.9709-0.1282-2.6261l1.7405-1.0929c-0.0903 1.3127 0.50133 4.4743 0.50133 4.4743z" fill="#fff"/>
    <path d="m32.564 41.546c-0.68626 0.17045-1.3948 0.31067-1.8193-0.49533-0.8448-1.6039-1.1112-2.5565-0.64289-3.6599l1.3067 0.56222c0.17672 0.6773 0.81455 3.0844 1.1554 3.593z" fill="#fff"/>
    <path d="m35.189 38.937-1.9371-0.34584c-0.34537-0.93117-0.8434-2.5045-0.8434-2.5045 2.1936 0.72509 1.471 1.1692 2.7805 2.8503z" fill="#fff"/>
    <path d="m39.646 39.078-2.9412-2.9876-0.38364 1.8144c1.6363 1.2576 1.4803 2.5151 1.9098 3.7726z" fill="#fff"/>
    <path d="m40.712 34.907-2.2704-1.5852-0.75061 1.4295c0.79424 0.77003 1.6191 1.6318 2.5365 2.7713z" fill="#fff"/>
    <path d="m41.362 30.454-2.1178-1.1212c0.17349 1.5076 0.75051 0.90952-0.02717 2.7712l1.6803 1.885z" fill="#fff"/>
    <path d="m42.238 25.321-5.17-2.6473-0.22198 2.1088c2.1919 1.3587 2.5818 2.5523 4.5782 3.9553z" fill="#fff"/>
    <path d="m40.805 19.583 1.0948 3.4513-4.8944-3.0464-0.08511-2.1869z" fill="#fff"/>
    <path d="m40.85 17.795-3.7822-2.5094c0.51166-1.4534 0.29738-1.7685-0.14356-4.0554l1.7807-0.40981c0.47177 1.7091 0.66512 2.4981 0.4495 3.7489l1.5884 1.09z" fill="#fff"/>
    <path d="m35.177 9.2228 1.1286 1.0749 3.1171-1.0749-1.2898-1.9347z" fill="#fff"/>
    <path d="m9.1571 10.263c2.5313-3.9012 2.2569-4.0802 7.8484-5.0454l2.5538 2.7096 0.68517-2.2424 2.1178 0.80975 2.0867-1.2769 0.46716 2.8964 1.4949-0.74746 0.52945-2.367h1.1523l0.15572 1.8998 2.2735-1.7129c2.8203 0.8409 3.3012 1.6818 4.6716 2.5227l-1.4326 1.0278c-3.0293-1.1965-3.0479-0.97628-4.1733-1.2769-1.8694 1.916-3.9598 2.506-6.0731 2.9587l-0.31144-2.1801-1.7129-0.5606-0.82558 2.6759-4.9361-3.2676c-2.4467 1.2384-3.5632 1.9825-5.17 4.0176z" fill="#fff"/>
    <path d="m28.495 32.31c-0.17313 1.0209-0.18646 2.462-1.219 3.1492 0 0-0.59128-0.90062-0.93307-1.4137 0 0-0.37365 1.3556-0.57147 2.1884-0.34806 0.16775-1.0325 0.51043-1.7116 0.16775l-0.43826-2.0108-0.9226 2.0117c-0.68447 0-1.0316-0.16776-1.5412-0.50865-0.04225-0.56932-0.0085-2.2289-0.0085-2.2289l-1.0178 1.2045c-0.68268-0.50864-0.85312-1.8794-0.85312-2.7289 2.8378-1.4709 6.5892-1.5711 9.2166 0.16955z" fill="#fff"/>
    <path d="m31.218 10.073c-1.7571 0.0057-2.9481 0.97217-3.2705 2.7386-0.84249-0.08715-2.2796-0.06586-3.9355 0.97999-0.29051-0.23241-2.5457-1.1979-4.0777-0.76351-0.72344-2.1614-2.4448-2.7226-3.9195-2.8717-1.2052-0.10839-3.1481 1.1462-3.4239 1.8282-0.46466 1.1491-0.52136 2.1514 0.01815 3.2554 0.55509 1.1359 1.3535 1.958 2.4353 2.5347-0.68769 1.2719-0.75473 2.9479-0.34524 4.2626 0.26816 0.86094-1.2928-0.1876-0.5224 1.1468 0.81168 1.4059 1.9568 2.4476 2.51 3.8197 0 0-4.8818 1.0779-6.4382 1.9047 0.16719 0.65845 0.18666 1.1489 0.18666 1.1489 1.473-0.72959 4.5935-1.9458 6.3647-1.8554l0.10975 1.1273c-1.6657 0.81187-4.3033 1.748-6.0121 2.9814l0.5224 1.2228c1.6216-1.1952 4.2848-2.4342 6.1846-3.1508l0.9761 1.0461c1.1068-0.50876 3.5167-1.4664 4.744-1.4523l0.30765-1.7712c-0.82459-0.30602-1.4498-1.0592-1.1913-1.9561-0.83042 0.90545-1.9564-0.22694-1.1865-1.0539 1.2442-0.79158 4.3763-0.85239 5.5134-0.05067 0.87668 0.6181-0.28983 2.082-1.1281 1.1923 0.26561 0.66763-0.61673 1.634-1.2254 1.8502l0.31888 1.8014c1.4775-0.0421 3.5265 1.2996 4.4004 1.6942l0.89054-1.2725c1.2649 0.81048 4.9058 2.1685 6.1703 3.433v-1.2643c-1.6133-1.464-3.9306-1.9912-5.8769-2.9227l0.25018-1.3632c2.0594 0.27616 4.8499 1.314 6.6624 2.3113l0.06827-1.444c-1.9488-0.92549-4.1949-1.9178-6.9502-2.0684 2.1448-2.5927 3.1551-4.3466 3.2424-5.8575 0 0-0.50891 0.03884-1.0612 0.41049 0.4511-0.97989 0.46234-4.1516 0.46234-4.1516 2.1227-0.54581 2.1462-2.425 2.0295-4.3698-0.06732-1.1221-0.68205-2.3612-1.8688-2.73-0.70033-0.21764-1.3488-0.3225-1.9345-0.32061zm0.6611 1.2816c1.3655 0.02518 1.6893 1.4454 1.6683 2.1268-0.03888 1.2639-0.15186 1.6027-0.88363 2.0581-1.1353 0.07107-2.0132-1.4657-3.0558-1.8796-0.15341-1.2497 0.32556-1.9026 1.6199-2.2244 0.2396-0.05957 0.4561-0.0844 0.65116-0.0808zm-15.296 0.27568c1.3545 0.05244 2.1418 1.9459 1.5871 2.0598-0.59166 0.12149-2.1963 2.1858-2.6967 2.0058-1.5353-0.55225-2.1544-2.1239-1.5063-3.0782 0.27156-0.48301 1.4973-0.89502 2.3376-0.97221 0.09511-0.01394 0.18797-0.01862 0.27827-0.01512zm8.6397 3.4524c2.4818 0 2.5071 0.68784 3.2714 1.3572 0.74786 0.655-0.05593 0.50036-0.9411 0.50036-1.1642 0-1.2442-1.4669-2.3303-1.8576zm-2.3869 0.07475c-1.0861 0.39065-1.1661 1.8576-2.3303 1.8576-0.88517 0-1.689 0.15463-0.9411-0.50036 0.76426-0.66936 0.78961-1.3572 3.2714-1.3572zm4.2419 3.1309h4.0924c0.02655 0.48942 0.06942 1.0012-0.83048 1.0012-0.7779 1.3474-1.6163 1.5214-2.6224 1.0379 0 0-0.13244 1.8341-0.08555 2.5161 0.28695 1.2901 2.1981 0.48974 2.1981 2.2694 0 1.7128-1.0258 0.37714-1.7495 0.14648 0-1.5438-1.4233-0.24487-1.4233-2.5675 0-2.0003-1.0191-4.4035 0.42086-4.4035zm-10.356 0.03068h4.0924c1.44 0 0.42129 2.4036 0.42129 4.4039 0 2.3226-1.4233 1.0233-1.4233 2.5671-0.72372 0.23066-1.75 1.5664-1.75-0.14648 0-1.7796 1.9111-0.97878 2.1981-2.2689 0.04688-0.68195-0.08556-2.5165-0.08556-2.5165-1.006 0.4835-1.844 0.3099-2.6219-1.0375-0.8999 0-0.85746-0.51217-0.83092-1.0016zm1.5287 9.64 1.9799 0.0285s-1.9048 1.824-1.9799-0.0285zm9.322 0.13568h1.7081c0.46986 1.7535-1.7081 0-1.7081 0z" fill="#fff"/>
</svg>
