<?xml version="1.0" encoding="UTF-8" standalone="no"?>
<svg
   xmlns:dc="http://purl.org/dc/elements/1.1/"
   xmlns:cc="http://creativecommons.org/ns#"
   xmlns:rdf="http://www.w3.org/1999/02/22-rdf-syntax-ns#"
   xmlns:svg="http://www.w3.org/2000/svg"
   xmlns="http://www.w3.org/2000/svg"
   xmlns:sodipodi="http://sodipodi.sourceforge.net/DTD/sodipodi-0.dtd"
   xmlns:inkscape="http://www.inkscape.org/namespaces/inkscape"
   width="48"
   height="48"
   viewBox="0 0 48 48"
   version="1.1"
   id="svg4"
   sodipodi:docname="bankid_square.svg"
   inkscape:version="0.92.3 (2405546, 2018-03-11)">
  <metadata
     id="metadata10">
    <rdf:RDF>
      <cc:Work
         rdf:about="">
        <dc:format>image/svg+xml</dc:format>
        <dc:type
           rdf:resource="http://purl.org/dc/dcmitype/StillImage" />
        <dc:title></dc:title>
      </cc:Work>
    </rdf:RDF>
  </metadata>
  <defs
     id="defs8" />
  <sodipodi:namedview
     pagecolor="#ffffff"
     bordercolor="#666666"
     borderopacity="1"
     objecttolerance="10"
     gridtolerance="10"
     guidetolerance="10"
     inkscape:pageopacity="0"
     inkscape:pageshadow="2"
     inkscape:window-width="1920"
     inkscape:window-height="1037"
     id="namedview6"
     showgrid="true"
     inkscape:pagecheckerboard="true"
     inkscape:snap-bbox="true"
     inkscape:bbox-nodes="true"
     inkscape:snap-nodes="false"
     inkscape:zoom="13.906433"
     inkscape:cx="15.789016"
     inkscape:cy="22.495513"
     inkscape:window-x="1920"
     inkscape:window-y="43"
     inkscape:window-maximized="1"
     inkscape:current-layer="svg4">
    <inkscape:grid
       type="xygrid"
       id="grid4870"
       empspacing="4" />
  </sodipodi:namedview>
  <g
     id="g4868"
     transform="matrix(0.35591824,0,0,0.35591824,135.62199,-82.091512)"
     style="fill:#ffffff;fill-opacity:1">
    <path
       id="path4813"
       d="m -333.3,300.2 4.4,-28.1 c -1.8,0 -4.8,0 -4.8,0 -2.2,0 -5.1,-1.2 -6,-3.5 -0.3,-0.8 -0.9,-3.5 2.8,-6.1 1.3,-0.9 2.2,-1.9 2.3,-2.7 0.2,-0.8 0,-1.5 -0.6,-2.1 -0.7,-0.7 -2.3,-1.2 -4.3,-1.2 -3.4,0 -5.8,2 -6,3.4 -0.2,1.1 0.7,1.9 1.4,2.4 2.1,1.6 2.6,3.9 1.3,6.1 -1.4,2.2 -4.3,3.7 -7.4,3.7 0,0 -3.1,0 -4.9,0 -0.4,2.7 -7,44.7 -7.5,48 h 26.4 c 0.1,-1.4 1.3,-9.4 2.9,-19.9 z"
       inkscape:connector-curvature="0"
       style="fill:#ffffff;fill-opacity:1" />
    <path
       id="path4815"
       d="m -298,247.5 h -26.8 l -3.6,22.7 h 4.6 c 2.5,0 4.9,-1.1 5.9,-2.8 0.3,-0.5 0.5,-1 0.5,-1.4 0,-0.9 -0.6,-1.7 -1.3,-2.1 -1.8,-1.3 -2.1,-2.7 -2.1,-3.7 0,-0.2 0,-0.4 0,-0.5 0.4,-2.4 3.6,-5 7.9,-5 2.6,0 4.5,0.6 5.7,1.7 1,1 1.5,2.4 1.2,3.8 -0.4,1.7 -2.1,3.1 -3.1,3.8 -2.6,1.8 -2.3,3.4 -2.1,3.9 0.5,1.4 2.6,2.3 4.2,2.3 h 7 v 0 c 9.5,0.1 14.6,4.4 12.9,14.6 -1.5,9.4 -8.7,13.5 -17.3,13.6 l -3.6,21.7 h 5 c 21.3,0 38.6,-13.7 42.1,-35.2 4.3,-26.7 -12.7,-37.4 -37.1,-37.4 z"
       inkscape:connector-curvature="0"
       style="fill:#ffffff;fill-opacity:1" />
    <g
       id="g4837"
       style="fill:#ffffff;fill-opacity:1">
	<g
   id="g4825"
   style="fill:#ffffff;fill-opacity:1">
		<path
   id="path4817"
   d="m -364.1,329.8 h 10.8 c 4.6,0 5.7,2.3 5.4,4.5 -0.3,1.7 -1.4,3 -3.5,3.8 2.6,1 3.6,2.5 3.2,4.9 -0.5,3 -3.1,5.2 -6.5,5.2 H -367 Z m 7.1,7.7 c 2.1,0 3.1,-1.1 3.3,-2.4 0.2,-1.4 -0.4,-2.4 -2.5,-2.4 h -1.9 l -0.8,4.8 z m -1.2,8 c 2.2,0 3.4,-0.9 3.7,-2.7 0.2,-1.5 -0.6,-2.5 -2.7,-2.5 h -2.1 l -0.8,5.2 z"
   inkscape:connector-curvature="0"
   style="fill:#ffffff;fill-opacity:1" />

		<path
   id="path4819"
   d="m -333.2,348.4 c -2.8,0.2 -4.2,-0.1 -4.8,-1.3 -1.5,0.9 -3.1,1.4 -4.9,1.4 -3.2,0 -4.3,-1.6 -4,-3.5 0.1,-0.9 0.6,-1.7 1.5,-2.4 1.7,-1.5 6.1,-1.7 7.8,-2.9 0.1,-1.3 -0.4,-1.8 -2,-1.8 -1.9,0 -3.4,0.6 -6.1,2.4 l 0.6,-4.2 c 2.3,-1.7 4.5,-2.4 7.1,-2.4 3.3,0 6.2,1.3 5.6,4.9 l -0.6,4.1 c -0.2,1.4 -0.2,1.9 1.4,1.9 z m -4.8,-6.3 c -1.5,0.9 -4.3,0.8 -4.6,2.7 -0.1,0.9 0.4,1.6 1.3,1.6 0.9,0 2,-0.4 2.8,-1 -0.1,-0.3 0,-0.7 0.1,-1.3 z"
   inkscape:connector-curvature="0"
   style="fill:#ffffff;fill-opacity:1" />

		<path
   id="path4821"
   d="m -327.9,334 h 5.6 l -0.3,1.9 c 1.8,-1.5 3.1,-2.1 4.9,-2.1 3.1,0 4.6,1.9 4.1,5.1 l -1.5,9.4 h -5.6 l 1.2,-7.8 c 0.2,-1.4 -0.2,-2.1 -1.3,-2.1 -0.9,0 -1.7,0.5 -2.5,1.5 l -1.3,8.3 h -5.6 z"
   inkscape:connector-curvature="0"
   style="fill:#ffffff;fill-opacity:1" />

		<path
   id="path4823"
   d="m -309.2,329.8 h 5.6 l -1.4,9.1 5.4,-4.9 h 6.9 l -6.9,6.1 5.5,8.2 h -7.1 l -4.3,-6.6 h -0.1 l -1,6.6 h -5.6 z"
   inkscape:connector-curvature="0"
   style="fill:#ffffff;fill-opacity:1" />

	</g>

	<g
   id="g4835"
   style="fill:#ffffff;fill-opacity:1">
		<path
   id="path4827"
   d="m -364.1,329.8 h 10.8 c 4.6,0 5.7,2.3 5.4,4.5 -0.3,1.7 -1.4,3 -3.5,3.8 2.6,1 3.6,2.5 3.2,4.9 -0.5,3 -3.1,5.2 -6.5,5.2 H -367 Z m 7.1,7.7 c 2.1,0 3.1,-1.1 3.3,-2.4 0.2,-1.4 -0.4,-2.4 -2.5,-2.4 h -1.9 l -0.8,4.8 z m -1.2,8 c 2.2,0 3.4,-0.9 3.7,-2.7 0.2,-1.5 -0.6,-2.5 -2.7,-2.5 h -2.1 l -0.8,5.2 z"
   inkscape:connector-curvature="0"
   style="fill:#ffffff;fill-opacity:1" />

		<path
   id="path4829"
   d="m -333.2,348.4 c -2.8,0.2 -4.2,-0.1 -4.8,-1.3 -1.5,0.9 -3.1,1.4 -4.9,1.4 -3.2,0 -4.3,-1.6 -4,-3.5 0.1,-0.9 0.6,-1.7 1.5,-2.4 1.7,-1.5 6.1,-1.7 7.8,-2.9 0.1,-1.3 -0.4,-1.8 -2,-1.8 -1.9,0 -3.4,0.6 -6.1,2.4 l 0.6,-4.2 c 2.3,-1.7 4.5,-2.4 7.1,-2.4 3.3,0 6.2,1.3 5.6,4.9 l -0.6,4.1 c -0.2,1.4 -0.2,1.9 1.4,1.9 z m -4.8,-6.3 c -1.5,0.9 -4.3,0.8 -4.6,2.7 -0.1,0.9 0.4,1.6 1.3,1.6 0.9,0 2,-0.4 2.8,-1 -0.1,-0.3 0,-0.7 0.1,-1.3 z"
   inkscape:connector-curvature="0"
   style="fill:#ffffff;fill-opacity:1" />

		<path
   id="path4831"
   d="m -327.9,334 h 5.6 l -0.3,1.9 c 1.8,-1.5 3.1,-2.1 4.9,-2.1 3.1,0 4.6,1.9 4.1,5.1 l -1.5,9.4 h -5.6 l 1.2,-7.8 c 0.2,-1.4 -0.2,-2.1 -1.3,-2.1 -0.9,0 -1.7,0.5 -2.5,1.5 l -1.3,8.3 h -5.6 z"
   inkscape:connector-curvature="0"
   style="fill:#ffffff;fill-opacity:1" />

		<path
   id="path4833"
   d="m -309.2,329.8 h 5.6 l -1.4,9.1 5.4,-4.9 h 6.9 l -6.9,6.1 5.5,8.2 h -7.1 l -4.3,-6.6 h -0.1 l -1,6.6 h -5.6 z"
   inkscape:connector-curvature="0"
   style="fill:#ffffff;fill-opacity:1" />

	</g>

</g>
    <g
       id="g4843"
       style="fill:#ffffff;fill-opacity:1">
	<path
   id="path4839"
   d="m -289.4,329.8 h 6.5 l -2.9,18.4 h -6.5 z"
   inkscape:connector-curvature="0"
   style="fill:#ffffff;fill-opacity:1" />

	<path
   id="path4841"
   d="m -279.8,329.8 h 9.2 c 7.1,0 9.2,5.2 8.5,9.5 -0.6,4.2 -4,9 -10.2,9 h -10.3 z m 6,14.1 c 3.1,0 4.9,-1.5 5.4,-4.8 0.4,-2.4 -0.4,-4.8 -3.8,-4.8 h -1.8 l -1.5,9.7 z"
   inkscape:connector-curvature="0"
   style="fill:#ffffff;fill-opacity:1" />

</g>
  </g>
</svg>
