<?xml version="1.0" encoding="UTF-8"?>
<svg xmlns="http://www.w3.org/2000/svg" viewBox="0 0 48 48">
  <path
     style="fill:#ffffff"
     d="m 15.986387,8.5738524 c 1.453009,0.5113594 3.835196,1.4405366 5.08865,2.5692686 l 9.15458,-0.09354 c 0.25568,-0.324277 0.349221,-0.455234 0.629845,-0.823164 0.661026,-0.8855245 0.698442,-1.7897576 -0.710914,-1.8022298 -0.754567,-0.012472 -12.665499,0.037417 -14.056147,0.056125 -0.212027,-0.012472 -0.374165,-0.012472 -0.106014,0.09354 z M 37.238982,11.454926 21.32448,11.748022 c 0.0686,0.648554 -0.629845,1.590203 -2.070381,2.475728 -0.742095,0.455235 -2.425839,1.359468 -8.400014,3.623168 -0.08107,0.02495 -0.03742,0.118486 0.01247,0.106014 10.326965,-2.619158 17.180427,-4.571054 26.372424,-6.323396 0.28686,-0.04989 0.461471,-0.17461 0,-0.17461 z m -9.597342,2.831185 -14.268174,3.60446 c -0.02495,0.01247 -0.05612,0.05612 0.02494,0.05612 L 24.448758,17.59747 c 0.673497,-0.02494 1.159912,-0.567485 1.415592,-0.904233 l 1.80223,-2.34477 c 0.04365,-0.03742 0.04365,-0.09354 -0.02494,-0.06236 z M 16.647413,25.966307 h 0.848108 l -2.045437,-4.764372 h -0.835636 l -2.032966,4.764372 h 0.841872 L 13.8287,24.981005 h 2.413367 z m -1.615147,-3.941208 0.941649,2.2637 H 14.103088 Z M 8.4023438,21.201172 v 4.765625 0.01172 H 11.677734 V 25.28125 H 9.1699219 v -4.080078 z m 21.0290532,9.248884 c 0,-1.384412 -1.022718,-2.463255 -2.475727,-2.463255 -1.453009,0 -2.475728,1.066371 -2.475728,2.463255 0,1.40312 1.022719,2.463256 2.475728,2.463256 0.218263,0 0.417818,-0.02494 0.6049,-0.0686 l 0.349222,0.848108 H 28.7579 l -0.498887,-1.11626 c 0.729622,-0.43029 1.172384,-1.209802 1.172384,-2.126507 z M 26.95567,32.21487 c -1.035191,0 -1.708689,-0.767039 -1.708689,-1.764814 0,-0.997774 0.661026,-1.764813 1.708689,-1.764813 1.035191,0 1.708688,0.767039 1.708688,1.764813 0,0.604901 -0.255679,1.128732 -0.685969,1.453009 l -0.187083,-0.442762 h -0.810692 l 0.311805,0.729622 c -0.118486,0.01247 -0.230736,0.02494 -0.336749,0.02494 z m 10.12741,4.726956 v -1.309579 h 2.594213 v -0.698442 h -3.361252 v 4.783081 h 3.392433 V 39.012208 H 37.08308 v -1.37194 h 2.032965 v -0.698442 z m -8.350125,-2.008021 -2.032965,4.783081 h 0.848108 l 0.405346,-0.985302 h 2.394659 l 0.405346,0.985302 h 0.848108 l -2.032966,-4.764373 h -0.835636 z m -0.511359,3.099337 0.929177,-2.263701 0.929178,2.263701 z M 15.337834,34.840263 c -1.453009,0 -2.475728,1.066372 -2.475728,2.463256 0,1.384412 1.022719,2.463256 2.475728,2.463256 1.453009,0 2.475728,-1.066372 2.475728,-2.463256 0.01871,-1.396884 -1.022719,-2.463256 -2.475728,-2.463256 z m 0,4.215597 c -1.035191,0 -1.708689,-0.767039 -1.708689,-1.764813 0,-0.997775 0.661026,-1.764814 1.708689,-1.764814 1.035191,0 1.708689,0.767039 1.708689,1.764814 0,0.997774 -0.65479,1.764813 -1.708689,1.764813 z m 5.37551,-2.157687 c -0.835636,-0.149666 -1.253454,-0.268152 -1.240982,-0.661025 0.01247,-0.361694 0.311804,-0.629845 0.835636,-0.68597 0.118486,-0.01247 0.243207,-0.01247 0.374165,0 0.43029,0.02494 0.873053,0.187082 1.159913,0.43029 0.02494,0.01247 0.0686,0.03742 0.08107,0.0686 l 0.417818,-0.604901 c -0.392874,-0.349221 -1.078843,-0.592428 -1.764813,-0.592428 -1.11626,0 -1.870827,0.6049 -1.8833,1.440536 -0.02494,0.985303 0.873053,1.184858 1.708689,1.334524 0.94165,0.17461 1.37194,0.268152 1.359468,0.68597 -0.01247,0.392873 -0.349221,0.710914 -1.035191,0.754566 -0.09354,0 -0.174611,0 -0.268152,0 -0.617373,-0.03742 -1.103788,-0.243207 -1.440537,-0.567484 -0.02494,-0.02494 -0.05612,-0.03742 -0.08107,-0.0686 l -0.43029,0.617373 c 0.498887,0.473943 1.184857,0.729623 2.032965,0.729623 1.222274,0 1.964368,-0.604901 1.989313,-1.496662 0.03742,-1.060135 -0.916705,-1.222273 -1.814702,-1.384412 z m 14.767061,2.114035 h -2.195104 v -4.078403 h -0.754567 v 4.783081 h 2.949671 z m -10.033869,0.704678 v -4.084639 h 1.471717 v -0.698442 h -3.691765 v 0.698442 h 1.471717 v 0.01871 4.065931 z M 10.492392,34.933805 h -2.08909 v 4.783081 H 9.1703411 V 37.964545 H 10.36767 c 0.03742,0 0.218263,0 0.25568,-0.01247 0.848108,-0.05612 1.428065,-0.698442 1.428065,-1.509133 0,-0.835636 -0.617373,-1.509134 -1.559023,-1.509134 z m -0.0686,2.332297 H 9.1765772 v -1.627619 h 1.2534538 c 0.486415,0 0.860581,0.336749 0.860581,0.823164 -0.0062,0.467707 -0.380402,0.804455 -0.866817,0.804455 z m 25.767614,-9.197743 v 4.763672 0.0059 h 3.511719 v -0.697266 h -2.744141 v -1.373047 h 2.150391 v -0.697266 h -2.150391 v -1.304687 h 2.71875 v -0.697266 z m -5.574218,0 v 2.867188 c 0,1.290871 0.846908,1.978515 2.08789,1.978515 1.253454,0 2.089844,-0.675172 2.089844,-1.978515 v -2.867188 h -0.767578 v 2.855469 c 0,0.848108 -0.499102,1.291016 -1.322266,1.291016 -0.810692,0 -1.322266,-0.442908 -1.322266,-1.291016 v -2.855469 z m -11.613282,0 v 4.763672 h 0.767578 v -3.541015 l 2.732422,3.541015 h 0.716797 v -4.763672 h -0.767578 v 3.486329 l -2.707031,-3.486329 z m -3.828125,0 -2.033203,4.763672 h 0.847656 l 0.40625,-0.984375 h 2.394532 l 0.404296,0.984375 h 0.84961 l -2.033203,-4.763672 z m 0.417969,0.822266 0.941406,2.263672 H 14.664062 Z M 8.4023438,28.068359 v 4.763672 h 2.6445312 c 0.835636,0 1.373047,-0.523976 1.373047,-1.291015 0,-0.604901 -0.40661,-1.065862 -0.917969,-1.171875 0.386637,-0.130958 0.699219,-0.510571 0.699219,-1.046875 0,-0.698442 -0.511267,-1.253907 -1.359375,-1.253907 z m 0.7734374,0.697266 h 1.5605468 c 0.43029,0 0.685547,0.269236 0.685547,0.662109 0,0.392874 -0.256387,0.660157 -0.667969,0.660157 H 9.1757812 Z m 0,2.007813 h 1.7539068 c 0.442762,-10e-7 0.710937,0.294626 0.710937,0.6875 0,0.417817 -0.275165,0.685546 -0.699219,0.685546 H 9.1757812 Z M 4.9734526,4.9818645 H 43.138324 V 43.146736 H 4.9734526 Z" />
</svg>
