<?xml version="1.0" encoding="UTF-8"?>
<svg version="1.1" viewBox="0 0 48 48" xmlns="http://www.w3.org/2000/svg">
    <path d="m15 5v9.625a13 13 0 0 1 3-2.1523v-7.4727h-3zm5 0v6.6484a13 13 0 0 1 3-0.60547v-6.043h-3zm5 0v6.0488a13 13 0 0 1 3 0.58984v-6.6387h-3zm5 0v7.4785a13 13 0 0 1 3 2.1602v-9.6387h-3zm-15 28.361v9.6387h3v-7.4785a13 13 0 0 1-3-2.1602zm18 0.013672a13 13 0 0 1-3 2.1523v7.4727h3v-9.625zm-5 2.9766a13 13 0 0 1-3 0.60547v6.043h3v-6.6484zm-8 0.009766v6.6387h3v-6.0488a13 13 0 0 1-3-0.58984z" fill="#fff"/>
    <path d="m24 13a11 11 0 0 0-11 11 11 11 0 0 0 11 11 11 11 0 0 0 8.9375-4.6035l-0.23828 0.41211 4.3301 2.5 1.5-2.5977-4.3301-2.5-0.20117 0.34961a11 11 0 0 0 1.002-4.5605 11 11 0 0 0-11-11zm0 2a9 9 0 0 1 9 9 9 9 0 0 1-9 9 9 9 0 0 1-9-9 9 9 0 0 1 9-9z" fill="#fff"/>
    <path d="m24 29c5.1943-4.0878 4.999-5.5328 4.999-6.6655 0-1.1326-0.93732-2.4995-2.4995-2.4995-1.5622 0-2.4995 1.6664-2.4995 1.6664s-0.93732-1.6664-2.4995-1.6664-2.4995 1.3669-2.4995 2.4995-0.19528 2.5777 4.999 6.6655z" fill="#fff"/>
</svg>
