<?xml version="1.0" encoding="UTF-8" standalone="no"?>
<svg
   xmlns:dc="http://purl.org/dc/elements/1.1/"
   xmlns:cc="http://creativecommons.org/ns#"
   xmlns:rdf="http://www.w3.org/1999/02/22-rdf-syntax-ns#"
   xmlns:svg="http://www.w3.org/2000/svg"
   xmlns="http://www.w3.org/2000/svg"
   xmlns:sodipodi="http://sodipodi.sourceforge.net/DTD/sodipodi-0.dtd"
   xmlns:inkscape="http://www.inkscape.org/namespaces/inkscape"
   width="48"
   height="48"
   viewBox="0 0 48 48"
   version="1.1"
   id="svg994"
   sodipodi:docname="batterychargelimit.svg"
   inkscape:version="0.92.4 5da689c313, 2019-01-14">
  <metadata
     id="metadata1000">
    <rdf:RDF>
      <cc:Work
         rdf:about="">
        <dc:format>image/svg+xml</dc:format>
        <dc:type
           rdf:resource="http://purl.org/dc/dcmitype/StillImage" />
        <dc:title />
      </cc:Work>
    </rdf:RDF>
  </metadata>
  <defs
     id="defs998" />
  <sodipodi:namedview
     pagecolor="#ffffff"
     bordercolor="#666666"
     borderopacity="1"
     objecttolerance="10"
     gridtolerance="10"
     guidetolerance="10"
     inkscape:pageopacity="0"
     inkscape:pageshadow="2"
     id="namedview996"
     showgrid="true"
     inkscape:snap-global="true"
     inkscape:zoom="3.4766084"
     inkscape:cx="30.036496"
     inkscape:cy="35.526778"
     inkscape:window-x="0"
     inkscape:window-y="44"
     inkscape:window-maximized="1"
     inkscape:current-layer="svg994"
     inkscape:snap-object-midpoints="true">
    <inkscape:grid
       type="xygrid"
       id="grid1548" />
  </sodipodi:namedview>
  <path
     style="fill:#ffffff;fill-opacity:1"
     d="M 24,2 C 11.849736,2 2,11.849736 2,24 2,36.150264 11.849736,46 24,46 36.150264,46 46,36.150264 46,24 46,11.849736 36.150264,2 24,2 Z m -4,8.372881 h 8 c 0.831,0 1.5,0.669 1.5,1.5 v 0.957031 h 1.007812 c 1.108001,0 2,0.892 2,2 V 33.91585 c 0,1.108 -0.891999,2 -2,2 H 17.492188 c -1.108001,0 -2.000003,-0.892 -2,-2 V 14.829912 c 0,-1.108 0.891999,-2 2,-2 H 18.5 v -0.957031 c 0,-0.831 0.669,-1.5 1.5,-1.5 z m -2,4 c -0.554,0 -1,0.446 -1,1 v 4.737288 c 3.424755,0 11,0.05085 14,0.05085 l 0,-4.788136 c 0,-0.554 -0.446,-1 -1,-1 z m 5.998047,8.960938 v 0.002 c -0.771109,0.447717 -1.645452,0.683281 -2.537109,0.685547 -0.428782,-0.0012 -0.856642,-0.05563 -1.271485,-0.164063 v 6.125 c 0,1.336179 1.524457,2.47459 3.810547,3.429687 2.286234,-1.143115 3.810547,-2.096223 3.810547,-3.429687 v -6.128906 c -0.414566,0.109353 -0.842744,0.165793 -1.271485,0.167969 -0.892799,-0.0017 -1.768919,-0.239215 -2.541015,-0.6875 z M 24,24.372881 c 0.612412,0.35591 1.308754,0.543573 2.017578,0.544922 0.340392,-0.0017 0.678675,-0.04599 1.007813,-0.132813 l -0.01367,3.587891 H 24 v 4 c -1.815007,-0.758287 -3.025391,-1.661817 -3.025391,-2.722656 l 0.01367,-1.277344 H 24 Z"
     id="circle992"
     inkscape:connector-curvature="0"
     sodipodi:nodetypes="sssssssscssssscsscssssccsssccccscscccccccccccccc" />
  <path
     style="fill:#501616;stroke-width:0.99999994"
     d="m 23.998875,26.000052 v 0.000382"
     id="path1326" />
  <path
     style="fill:#501616;stroke-width:0.99999994"
     d="m 23.998836,26 0.000039,0.000052"
     id="path1310" />
</svg>
