<?xml version="1.0" encoding="UTF-8"?>
<svg version="1.1" viewBox="0 0 48 48" xmlns="http://www.w3.org/2000/svg">
    <path d="m24 2c-11.11 0-20.292 8.2373-21.783 18.938h11.934v-16.307h5.8242v4.2695h0.10156c0.2363 0 0.42578 0.18948 0.42578 0.42578v2.248h6.9395v-2.248c0-0.2363 0.18948-0.42578 0.42578-0.42578h0.10547v-4.2695h5.8242v16.307h11.986c-1.4912-10.7-10.673-18.938-21.783-18.938zm-8.8496 3.6309v16.307h-13.051c-0.063163 0.67918-0.099609 1.3668-0.099609 2.0625 0 12.15 9.8497 22 22 22s22-9.8497 22-22c0-0.69568-0.036446-1.3833-0.099609-2.0625h-13.104v-16.307h-3.8242v3.2754c0.22369 0.013812 0.40234 0.19271 0.40234 0.41992v2.248h0.75391c0.52741 0 0.95117 0.42376 0.95117 0.95117v25.451c0 0.52741-0.42376 0.95312-0.95117 0.95313h-12.258c-0.52741 0-0.95117-0.42572-0.95117-0.95313v-25.451c0-0.52741 0.42376-0.95117 0.95117-0.95117h0.69726v-2.248c0-0.22868 0.18051-0.41018 0.40625-0.42188v-3.2734h-3.8242zm7.3301 7.6328 1.5293 10.535-0.007813 0.43555-5.5215-1.5605 7.0371 14.637-1.5273-10.535 0.00586-0.43555 5.5234 1.5605-7.0391-14.637z" fill="#fff"/>
</svg>
