<svg viewBox="0 0 48 48" xmlns="http://www.w3.org/2000/svg"><g fill="#fff"><path d="m5.1894531 6c-1.213 0-2.1894531.9022844-2.1894531 2.0214844v23.9589846c0 1.12.9765531 2.021484 2.1894531 2.021484h37.6191409c1.213 0 2.189453-.902284 2.189453-2.021484v-23.9589846c0-1.12-.976553-2.0214844-2.189453-2.0214844zm7.2597659 4.201172h3.660156c2.377197 0 2.943359 1.168103 2.943359 2.091797 0 1.311003-.848773 2.722656-3.828125 2.722656h-3.814453zm9.863281 0h3.660156c2.376466 0 2.941406 1.168103 2.941406 2.091797 0 1.311003-.847311 2.721434-3.828124 2.720703h-3.814454zm8.994141 4.304687h3.662109c2.375005 0 2.941406 1.171279 2.941406 2.095703 0 1.310272-.849264 2.720704-3.830078 2.720704h-3.814453zm-20.177735 2.9375h3.660156c2.377198 0 2.94336 1.172009 2.94336 2.095703 0 1.307349-.848042 2.722657-3.828125 2.722657h-3.816406zm9.861328 0h3.66211c2.375005 0 2.941406 1.172009 2.941406 2.095703 0 1.307349-.847311 2.722657-3.828125 2.722657h-3.816406zm8.894532 4.609375h3.660156c2.376466 0 2.941406 1.167372 2.941406 2.091797 0 1.307348-.846089 2.722655-3.826172 2.722657h-3.814453zm-10.310547 2.931641h3.662109c2.375005 0 2.939453 1.171531 2.939453 2.099609 0 1.307349-.847311 2.717527-3.828125 2.716797h-3.814453z"/><path d="m8 33v9l10-9z"/></g></svg>