<?xml version="1.0" encoding="UTF-8" standalone="no"?>
<!-- Created with Inkscape (http://www.inkscape.org/) -->

<svg
   width="48"
   height="48"
   >
     <path
     style="fill:#ffffff;"
     d="m 24.00105,0 c -2.28662,0 -4.49532,0.3266 -6.59039,0.92391 v 12.97324 c 1.89483,-1.23831 4.15725,-1.9609 6.58993,-1.9609 6.6626,0 12.06433,5.4016 12.06433,12.06469 0,6.66309 -5.40173,12.06457 -12.06433,12.06457 -6.66309,0 -12.06481,-5.40148 -12.06481,-12.06457 0,-0.21434 0.006,-0.42722 0.017,-0.63891 l -0.017,0.0133 V 3.25641 C 4.79959,7.41584 0,15.14554 0,24.00094 0,37.25618 10.74581,48.00199 24.00105,48.00199 37.25614,48.00199 48,37.25618 48,24.00094 48,10.74586 37.25614,0 24.00105,0 Z m -4.8e-4,16.68504 c -4.04053,0 -7.31578,3.27536 -7.31578,7.3159 0,4.04038 3.27525,7.31578 7.31578,7.31578 4.04038,0 7.31532,-3.2754 7.31532,-7.31578 0,-4.04054 -3.27494,-7.3159 -7.31532,-7.3159 z"
     />
</svg>
