<svg id="Layer_1" data-name="Layer 1" xmlns="http://www.w3.org/2000/svg" viewBox="0 0 48 48"><defs><style>.cls-1{fill:#fff;}</style></defs><title>Bestiary_1</title><polygon class="cls-1" points="21.96 30.87 26.04 30.87 24 26.75 21.96 30.87"/><path class="cls-1" d="M18.48,22.8a2.81,2.81,0,1,0,2.81,2.81A2.81,2.81,0,0,0,18.48,22.8Z"/><path class="cls-1" d="M29.52,22.8a2.81,2.81,0,1,0,2.81,2.81A2.81,2.81,0,0,0,29.52,22.8Z"/><path class="cls-1" d="M24,2A22,22,0,1,0,46,24,22,22,0,0,0,24,2Zm7,31V38H28.06V33.53h-2.6V38H22.54V33.53h-2.6V38H17V33a12.56,12.56,0,1,1,14,0Z"/></svg>