<svg id="Layer_1" data-name="Layer 1" xmlns="http://www.w3.org/2000/svg" viewBox="0 0 48 48"><defs><style>.cls-1{fill:#fff;}</style></defs><title>Bestiary</title><polygon class="cls-1" points="17.39 14.31 17.39 13.48 16.78 14.11 16.9 14.91 17.39 14.31"/><path class="cls-1" d="M24,2A22,22,0,1,0,46,24,22,22,0,0,0,24,2Zm1.54,6.42H29l2.49,1.05h-1.4l-.48.39h1.71l2.31,1.36,1.49,1.66L34,12.31l-1.18-.44,1.31,1.66,1.4,5.21v3.8l-.7.79L35.12,22l-.48-1-1.79,3.54-1.58,1.31-2.45,1.49-4,1.18-2,.17-1.4-.52H23l.48-.35-2.19-.35L19.38,26.3,19.07,25l.92.79.83.17L20,24.51v-2L20.6,21v1.66H21l.22-1.23,1.4-1.26,1.43-.35h3.07l2.23,1.66-1.23,1.44-1.39.66-.88,0v-.35l.35-.53-.61.18-.26.66h-.44L25,23l.22-.74-.61.57-.31,1L23.4,23l.65,1.27,2.5-.19,2.23-.82,1-1.09,1.53-2.93V16.81l-2.71-4.15-2.27-.48-.7-1.4.74-1.84-1.22.4-1.06-.22ZM13.49,15l.78.37.8-.58-.37-.66,0-1.61L15.51,11l1.71-2.11.53-1,.13-1.48.74,1.13,0,1.47L17.38,10.2l-.72,1.34-.31,1.07,1.36-1.79,1.22-1.54.74-1.34L19.87,6l.75,1.52.2,1.71L20,10.35l1.05-.19L22.49,9l1.14-1.22V9.07l.53.6,1.14-.11.57-.24-.74,1.27,0,1,1.44,1.1H24.15l-1.7.28-.93.52-1-.78L19,12.39l1.38.78,1.15,1.61.23,1.15-1.13.17-.56.8-.12,1.16.51.68.43.28-1,.11.4.43.49.29h-1.4l-1.07-.7.64-.43,0-.62-.48-.72.72-.11,0-1-.48-.55.5-.29h.82l-.64-.39-1.71.14-1.17.52-.17.57.25.62-1.07-.06-.77.52v1.36l-.88-.56L13,16.8,12.6,15l1.07,1.08ZM36.55,36.27l-.38-1.18-.61-1.38-.31,2.83-.42,1.22-1.34,1.61L34,38V36.5l-1.26,2.83-1.07,1.41-1.42,1.33,1-1.6L31.35,39l-3.43,2H25l-3.13-1-2.22,0-1.9.34-1.19.27,1.07-1,1.43-.42L17,38.1l-2.67-.34L12.9,38l-1.45.57,1-1,2.44-.84h1.87l-1.18-1.56-.19-1.49.11-2.48.08-3.21-.65-2.6-1.3-1.68,1.34.47L16.46,26l1,2.7.34,3.3.42-1.15.86-1.18,1.24-.81L19.51,30l-.65,1.3-.26,1.64.47,1.57,1.7,2.14,2.49.64,2.13.23,3.75-1.07,1.14-.87,1.07-2.07V30.73L30,27.52l1.72-1.14,1.6-1.61,1.87,3.1,1,3.32L36.55,34Z"/></svg>