<?xml version="1.0" encoding="utf-8"?>
<!-- Generator: Adobe Illustrator 21.1.0, SVG Export Plug-In . SVG Version: 6.00 Build 0)  -->
<svg version="1.0" id="Layer_1" xmlns="http://www.w3.org/2000/svg" xmlns:xlink="http://www.w3.org/1999/xlink" x="0px" y="0px"
	 viewBox="0 0 48 48" style="enable-background:new 0 0 48 48;" xml:space="preserve">
<style type="text/css">
	.st0{fill:#FFFFFF;}
</style>
<g>
	<path class="st0" d="M27.4,40.5c-6.5,0-13.1,0-19.6,0c-1.9,0-2.9-1.1-2.9-3c0-9.9,0-19.9,0-29.8c0-2.2,1-3.2,3.2-3.2
		c9.8,0,19.6,0,29.5,0c2.3,0,3.4,1.1,3.4,3.4c0,6.4,0,12.7,0,19.1c-3.5-2.9-7.3-3.2-11.4-1.4c-0.1-2.1-0.1-4.1-0.2-6.2
		c0-1.1,0.1-2.2,0.1-3.4c0-2.9,0-2.9-2.9-3c-0.9,0-1.2-0.3-1.1-1.1c0-0.5,0.2-1.2-0.7-1.1c-1.2,0-2.4,0-3.6,0
		c-0.2,0-0.6,0.4-0.6,0.6c0.3,1.9-0.9,1.7-2.1,1.7c-0.3,0-0.7,0-1,0c-0.7-0.1-1,0.2-1,0.9c0,1.8,0,3.6,0.1,5.4c0,4.8,0,9.6-0.1,14.5
		c0,0.7,0.4,0.8,1,0.8c2.5,0,4.9,0,7.4,0C25.1,36.7,26,38.8,27.4,40.5z"/>
	<path class="st0" d="M27.4,40.5c-1.5-1.8-2.4-3.8-2.7-6.1c0-0.6,0.1-1.2,0.1-1.7c0.4-3.2,2.2-5.4,4.7-7.2c4.1-1.8,7.9-1.5,11.4,1.4
		c1.8,2,2.9,4.3,2.9,7.1c-0.1,4-2,6.9-5.6,8.5c-3.5,1.6-6.9,1.1-10-1.3C28,41.1,27.7,40.8,27.4,40.5z M39.1,34c0-1.2,0-1.2-1.1-1.3
		c-2.4-0.1-2.4-0.1-2.4-2.5c0-0.8-0.3-1.2-1.1-1.2c-0.9,0-1.2,0.3-1.2,1.2c0,2.4,0,2.4-2.4,2.4c-0.9,0-1.3,0.2-1.3,1.2
		c0,1,0.4,1.2,1.3,1.2c2.4,0,2.4,0,2.4,2.3c0,0.9,0.2,1.4,1.2,1.4c1,0,1.1-0.5,1.1-1.3c0-2.3,0-2.3,2.3-2.3
		C38.7,35,39.3,34.9,39.1,34z"/>
	<path class="st0" d="M29.4,19.4c-4.3,0-8.6,0-12.9-0.1c0-1.8,0-3.6-0.1-5.4c0-0.7,0.3-1,1-0.9c0.3,0,0.7,0,1,0
		c1.2,0.1,2.4,0.2,2.1-1.7c0-0.2,0.4-0.5,0.6-0.6c1.2-0.1,2.4,0,3.6,0c0.9,0,0.8,0.6,0.7,1.1c-0.1,0.9,0.3,1.1,1.1,1.1
		c2.9,0,2.9,0,2.9,3C29.5,17.1,29.4,18.2,29.4,19.4z"/>
</g>
</svg>
