<?xml version="1.0" encoding="UTF-8" standalone="no"?>
<svg
   xmlns:dc="http://purl.org/dc/elements/1.1/"
   xmlns:cc="http://creativecommons.org/ns#"
   xmlns:rdf="http://www.w3.org/1999/02/22-rdf-syntax-ns#"
   xmlns:svg="http://www.w3.org/2000/svg"
   xmlns="http://www.w3.org/2000/svg"
   id="svg1548"
   version="1.1"
   viewBox="0 0 48 48"
   height="48"
   width="48">
  <metadata
     id="metadata1554">
    <rdf:RDF>
      <cc:Work
         rdf:about="">
        <dc:format>image/svg+xml</dc:format>
        <dc:type
           rdf:resource="http://purl.org/dc/dcmitype/StillImage" />
        <dc:title></dc:title>
      </cc:Work>
    </rdf:RDF>
  </metadata>
  <defs
     id="defs1552" />
  <path
     d="m 37.895645,17.820107 c 0,0.508574 -0.412279,0.920855 -0.920856,0.920855 -0.508578,0 -0.920857,-0.412281 -0.920857,-0.920855 0,-0.508578 0.412279,-0.920857 0.920857,-0.920857 0.508577,0 0.920856,0.412279 0.920856,0.920857 z m -3.422244,0 c 0,0.508574 -0.412279,0.920855 -0.92085,0.920855 -0.508567,0 -0.92085,-0.412281 -0.92085,-0.920855 0,-0.508578 0.412283,-0.920857 0.92085,-0.920857 0.508571,0 0.92085,0.412279 0.92085,0.920857 z M 14.40845,7.9148272 C 12.985747,8.4901731 10.390614,11.082892 9.928282,14.100019 h 7.095255 c -0.713881,2.641907 -0.970443,4.550936 0.107913,7.079073 l -7.203168,5.84e-4 c -0.5731567,2.358761 1.921401,4.728152 3.287731,5.778133 0,0 -5.6326776,-0.798226 -6.143818,-0.018 -0.5714612,0.872315 -1.0576283,1.232001 7.552083,9.273292 10.527677,9.832632 9.08991,9.781091 18.992621,-0.147479 7.431234,-7.450661 7.642959,-8.240574 6.89561,-9.129413 -0.462167,-0.549662 -5.832674,0 -5.832674,0 1.403742,-0.886015 3.088095,-2.690158 3.088095,-5.757131 H 31.293184 V 14.100006 H 37.76793 C 37.71178,11.449508 35.457778,8.5963346 33.836316,7.9148262 Z m 8.553878,5.1168568 h 6.71216 l 0.03768,9.264299 -7.505318,0.03771 c -4.981327,-0.03729 -4.602033,-9.302067 0.755393,-9.302067 z m 4.300313,2.645663 -5.057503,0.0324 0.01972,3.953195 4.994562,-0.06839 -0.01253,-0.868694 -3.455008,0.0252 0.0108,-2.04314 3.534136,-0.0341 z"
     style="fill:#ffffff;fill-opacity:1;stroke:none;stroke-width:0.01740203;stroke-miterlimit:4;stroke-dasharray:none;stroke-opacity:1"
     id="circle1625" />
</svg>
