<?xml version="1.0" encoding="UTF-8"?>
<svg version="1.1" viewBox="0 0 48 48" xmlns="http://www.w3.org/2000/svg">
    <path d="m37.896 17.82c0 0.50857-0.41228 0.92086-0.92086 0.92086s-0.92086-0.41228-0.92086-0.92086 0.41228-0.92086 0.92086-0.92086 0.92086 0.41228 0.92086 0.92086zm-3.4222 0c0 0.50857-0.41228 0.92086-0.92085 0.92086s-0.92085-0.41228-0.92085-0.92086 0.41228-0.92086 0.92085-0.92086 0.92085 0.41228 0.92085 0.92086zm-20.065-9.9053c-1.4227 0.57535-4.0178 3.1681-4.4802 6.1852h7.0953c-0.71388 2.6419-0.97044 4.5509 0.10791 7.0791l-7.2032 5.84e-4c-0.57316 2.3588 1.9214 4.7282 3.2877 5.7781 0 0-5.6327-0.79823-6.1438-0.018-0.57146 0.87232-1.0576 1.232 7.5521 9.2733 10.528 9.8326 9.0899 9.7811 18.993-0.14748 7.4312-7.4507 7.643-8.2406 6.8956-9.1294-0.46217-0.54966-5.8327 0-5.8327 0 1.4037-0.88602 3.0881-2.6902 3.0881-5.7571h-6.4747v-7.0791h6.4747c-0.05615-2.6505-2.3102-5.5037-3.9316-6.1852zm8.5539 5.1169h6.7122l0.03768 9.2643-7.5053 0.03771c-4.9813-0.03729-4.602-9.3021 0.75539-9.3021zm4.3003 2.6457-5.0575 0.0324 0.01972 3.9532 4.9946-0.06839-0.01253-0.86869-3.455 0.0252 0.0108-2.0431 3.5341-0.0341z" fill="#fff"/>
</svg>
