<?xml version="1.0" encoding="UTF-8"?>
<svg version="1.1" viewBox="0 0 48 48" xmlns="http://www.w3.org/2000/svg">
    <path d="m23.709 5.0637c-0.24423 0.00511-0.45655 1.0861-0.81922 1.7621-0.40722 0.75901 0.50407 1.4247 0.92607 1.4247s1.2343-0.61591 0.83808-1.3807c-0.38487-0.74292-0.47637-1.2693-0.83808-1.7369-0.03669-0.047441-0.07195-0.069869-0.10685-0.069141zm-9.5708 1.035c-0.24423 0.0051-0.45655 1.084-0.81922 1.76-0.40722 0.759 0.50407 1.4268 0.92607 1.4268s1.2343-0.61801 0.83807-1.3828c-0.38487-0.74292-0.47637-1.2693-0.83807-1.7369-0.03669-0.047442-0.07198-0.067775-0.10686-0.067046zm19.561 0.19904c-0.24423 0.0051-0.45864 1.0861-0.82131 1.7621-0.40722 0.75901 0.50616 1.4247 0.92817 1.4247 0.422 0 1.2343-0.61592 0.83807-1.3807-0.38487-0.74292-0.47637-1.2693-0.83807-1.7369-0.03669-0.047441-0.07196-0.069869-0.10686-0.069141zm-11.136 2.4346v5.9168a15.95 6.5522 0 0 0-6.5097 0.82969v4.8105h-2.3257v-0.65579h1.6845v-9.6819h-0.33942c-0.2328 0.28336-0.58256 0.45885-0.82131 0.45885-0.22932 0-0.58444-0.18211-0.84226-0.45885h-0.41694v6.4678a15.95 6.5522 0 0 0-4.9509 4.4125h0.00629c-0.00138 1.6051-0.00793 3.2262 0.018857 4.777 0.38252 3.4995 7.398 6.2564 15.926 6.2583 8.5235-0.0042 15.533-2.7605 15.915-6.2583 0.03402-0.29897 0.05305-0.62328 0.07124-0.94912-0.0037-0.32319-0.01051-0.67177-0.01051-0.98055v-2.8474h-0.09428a15.95 6.5522 0 0 0-4.2155-4.1066v3.2538h-2.3257v-0.43999h1.6405v-9.6818h-0.33942c-0.2328 0.28335-0.58465 0.45675-0.82341 0.45675-0.22932 0-0.58235-0.18002-0.84017-0.45675h-0.41694v5.8079a15.95 6.5522 0 0 0-7.0084-1.0162v4.3978h-2.3257v-0.63275h1.7641v-9.6818h-0.33942c-0.2328 0.28336-0.58256 0.45885-0.82131 0.45885-0.22932 0-0.58444-0.18211-0.84226-0.45885zm-14.522 12.1h-0.039808v4.3978h0.00629c-0.00178 1.7404-0.010234 3.5035 0.018857 5.1877 0.38252 3.4995 7.398 6.2564 15.926 6.2583 8.5235-0.0042 15.533-2.7605 15.915-6.2583 0.13359-1.1739 0.14142-2.555 0.1278-3.9473-0.02053 0.38086-0.04815 0.7498-0.088 1.1-0.38233 3.4978-7.3916 6.2541-15.915 6.2583-8.5275-0.0019-15.543-2.7588-15.926-6.2583-0.03779-2.1875-0.02447-4.5053-0.025142-6.7381zm-0.039808 4.3978v11.222h0.00629a15.95 6.5522 0 0 0 15.944 6.4846 15.95 6.5522 0 0 0 15.942-6.4846h0.07333v-5.9168c-0.0206 0.49886-0.04967 0.9858-0.10057 1.4331-0.38234 3.4978-7.3916 6.2541-15.915 6.2583-8.5275-0.0019-15.543-2.7588-15.926-6.2583-0.037789-2.1875-0.024471-4.5053-0.025143-6.7381z" fill="#fff"/>
</svg>
