<?xml version="1.0" encoding="UTF-8" standalone="no"?>
<!-- Created with Inkscape (http://www.inkscape.org/) -->

<svg
   xmlns:dc="http://purl.org/dc/elements/1.1/"
   xmlns:cc="http://creativecommons.org/ns#"
   xmlns:rdf="http://www.w3.org/1999/02/22-rdf-syntax-ns#"
   xmlns:svg="http://www.w3.org/2000/svg"
   xmlns="http://www.w3.org/2000/svg"
   xmlns:sodipodi="http://sodipodi.sourceforge.net/DTD/sodipodi-0.dtd"
   xmlns:inkscape="http://www.inkscape.org/namespaces/inkscape"
   id="SVGRoot"
   version="1.1"
   viewBox="0 0 48 48"
   height="48px"
   width="48px"
   sodipodi:docname="bitwarden2.svg"
   inkscape:version="0.92.4 (5da689c313, 2019-01-14)">
  <defs
     id="defs3732" />
  <sodipodi:namedview
     id="base"
     pagecolor="#000000"
     bordercolor="#666666"
     borderopacity="1.0"
     inkscape:pageopacity="0"
     inkscape:pageshadow="2"
     inkscape:zoom="10.666667"
     inkscape:cx="-27.626439"
     inkscape:cy="25.798618"
     inkscape:document-units="px"
     inkscape:current-layer="layer2"
     showgrid="false"
     inkscape:window-width="1920"
     inkscape:window-height="1023"
     inkscape:window-x="0"
     inkscape:window-y="25"
     inkscape:window-maximized="1"
     inkscape:grid-bbox="true" />
  <metadata
     id="metadata3735">
    <rdf:RDF>
      <cc:Work
         rdf:about="">
        <dc:format>image/svg+xml</dc:format>
        <dc:type
           rdf:resource="http://purl.org/dc/dcmitype/StillImage" />
        <dc:title></dc:title>
      </cc:Work>
    </rdf:RDF>
  </metadata>
  <g
     inkscape:groupmode="layer"
     id="layer2"
     inkscape:label="Layer 2"
     style="display:inline">
    <path
       style="fill:#fffffa;fill-opacity:1"
       d="M 9.5566406 5.8808594 L 9.0859375 6.4628906 C 8.6292573 7.0268668 8.6160258 7.3958731 8.6953125 17.503906 C 8.7866395 29.146923 8.7502271 28.869689 10.603516 32.121094 C 11.552578 33.786125 15.134016 37.427606 17.376953 39.007812 C 19.367949 40.410522 23.496909 42.721281 24 42.714844 C 24.198016 42.712344 25.374335 42.172357 26.615234 41.513672 C 29.575403 39.942378 32.185622 38.042905 34.404297 35.845703 C 36.520886 33.749598 37.690392 32.068174 38.587891 29.828125 L 39.240234 28.199219 L 39.310547 17.507812 C 39.381812 6.8243717 39.381318 6.8147045 38.865234 6.3476562 C 38.36542 5.8953299 37.883467 5.8808594 23.953125 5.8808594 L 9.5566406 5.8808594 z M 24 10.560547 L 29.412109 10.560547 L 34.822266 10.560547 L 34.751953 19.025391 L 34.679688 27.492188 L 33.904297 29.068359 C 32.681857 31.550273 28.357551 35.446575 24.779297 37.291016 L 24 37.691406 L 24 24.126953 L 24 10.560547 z "
       id="rect820" />
  </g>
</svg>
