<svg height="48" viewBox="0 0 12.7 12.7" width="48" xmlns="http://www.w3.org/2000/svg"><path d="m1.8520834 1.3229163c-.2931583 0-.5291667.236007-.5291667.529167v8.9958327c0 .29316.2360084.529167.5291667.529167h8.9958336c.293158 0 .529167-.236007.529167-.529167v-8.9958327c0-.29316-.236009-.529167-.529167-.529167zm4.4979166 1.915646 2.7646896 2.132686v3.545003h-1.475879v-.555521h.920357v-2.75177l-2.2076171-1.707906-2.2107179 1.707906v2.75177h.9203571v.555521h-1.4758789v-3.545003zm-.8784992 4.795056h.2785359c.1808644 0 .2237589.08886.2237589.159163.0000005.09974-.064777.207223-.291455.207223h-.2899047zm.7503417 0h.2785361c.1808083 0 .2237589.08886.2237589.159163-.0000002.09974-.064666.207273-.2914552.207223h-.2899047zm.6841961.327628h.278536c.180698 0 .223759.08938.223759.159681-.000001.09969-.06466.206705-.291455.206705h-.2899052zm-1.535307.223759h.2785361c.1808644 0 .2242757.08886.2242757.159164.0000002.09946-.064721.207222-.2914552.207222h-.2904215zm.7503419 0h.2785359c.1806982 0 .2237589.08886.2237589.159164-.0000003.09946-.064149.207222-.2909382.207222h-.2904215zm.6769614.350366h.2785357c.180809 0 .223759.08886.223759.159164.000001.09947-.06472.207222-.291455.207222h-.2899049zm-.7844484.223243h.2785359c.1806975 0 .2237589.08908.2237589.15968.0000006.09947-.064666.206766-.2914549.206706h-.2899048z" fill="#fff" stroke-width=".264583"/></svg>