<svg height="48" viewBox="0 0 12.7 12.7" width="48" xmlns="http://www.w3.org/2000/svg"><path d="m1.8520832 1.951302c-.2931584 0-.5291667.236007-.5291667.529167v.606164h1.1244792v-1.135331zm.7276041 0v1.135331h1.1467v-1.135331zm1.2789916 0v1.135331h1.1461835v-1.135331zm1.2784752 0v1.135331h1.1466999v-1.135331zm1.2789914 0v1.135331h1.1467v-1.135331zm1.278992 0v1.135331h1.146183v-1.135331zm1.278475 0v1.135331h1.1467005v-1.135331zm1.2789915 0v1.135331h1.12448v-.606164c0-.29316-.236009-.529167-.529167-.529167zm-8.9296875 1.267623v1.1467h1.1244792v-1.1467zm1.2567708 0v1.1467h1.1467v-1.1467zm1.2789916 0v1.1467h1.1461835v-1.1467zm3.8364586 0v1.1467h1.146183v-1.1467zm1.278475 0v1.1467h1.1467005v-1.1467zm1.2789915 0v1.1467h1.12448v-1.1467zm-8.9296875 1.278992v1.1467h1.1244792v-1.1467zm1.2567708 0v1.1467h1.1467v-1.1467zm1.2789916 0v1.1467h1.1461835v-1.1467zm3.8364586 0v1.1467h1.146183v-1.1467zm1.278475 0v1.1467h1.1467005v-1.1467zm1.2789915 0v1.1467h1.12448v-1.1467zm-8.9296875 1.278991v1.146184h1.1244792v-1.146184zm1.2567708 0v1.146184h1.1467v-1.146184zm1.2789916 0v1.146184h1.1461835v-1.146184zm1.2784752 0v1.146184h1.1466999v-1.146184zm1.2789914 0v1.146184h1.1467v-1.146184zm1.278992 0v1.146184h1.146183v-1.146184zm1.278475 0v1.146184h1.1467005v-1.146184zm1.2789915 0v1.146184h1.12448v-1.146184zm-8.9296875 1.278475v1.1467h1.1244792v-1.1467zm3.8142376 0v1.1467h1.1466999v-1.1467zm1.2789914 0v1.1467h1.1467v-1.1467zm3.8364585 0v1.1467h1.12448v-1.1467zm-8.9296875 1.278992v1.1467h1.1244792v-1.1467zm1.2567708 0v1.1467h1.1467v-1.1467zm6.3939252 0v1.1467h1.1467005v-1.1467zm1.2789915 0v1.1467h1.12448v-1.1467zm-8.9296875 1.278992v.606164c0 .29316.2360083.529167.5291667.529167h.5953125v-1.135331zm1.2567708 0v1.135331h1.1467v-1.135331zm1.2789916 0v1.135331h1.1461835v-1.135331zm1.2784752 0v1.135331h1.1466999v-1.135331zm1.2789914 0v1.135331h1.1467v-1.135331zm1.278992 0v1.135331h1.146183v-1.135331zm1.278475 0v1.135331h1.1467005v-1.135331zm1.2789915 0v1.135331h.595313c.293158 0 .529167-.236007.529167-.529167v-.606164z" fill="#fff" stroke-width=".247495"/></svg>