<?xml version="1.0" encoding="utf-8"?>
<!-- Generator: Adobe Illustrator 21.1.0, SVG Export Plug-In . SVG Version: 6.00 Build 0)  -->
<svg version="1.0" id="Layer_1" xmlns="http://www.w3.org/2000/svg" xmlns:xlink="http://www.w3.org/1999/xlink" x="0px" y="0px"
	 viewBox="0 0 48 48" style="enable-background:new 0 0 48 48;" xml:space="preserve">
<style type="text/css">
	.st0{fill:#FFFFFF;}
</style>
<path class="st0" d="M38,4H10C8.9,4,8,4.9,8,6v36c0,1.1,0.9,2,2,2h28c1.1,0,2-0.9,2-2V6C40,4.9,39.1,4,38,4z M11.7,7.6
	c1.8,0,3.6,0,5.4,0c0,1.8,0,3.6,0,5.4c-1.8,0-3.6,0-5.4,0C11.7,11.2,11.7,9.4,11.7,7.6z M17.2,14.5c0,1.8,0,3.5,0,5.4
	c-1.8,0-3.6,0-5.4,0c0-1.8,0-3.5,0-5.4C13.6,14.5,15.4,14.5,17.2,14.5z M11.7,21.1c1.8,0,3.6,0,5.4,0c0,1.8,0,3.6,0,5.4
	c-1.8,0-3.6,0-5.4,0C11.7,24.7,11.7,22.9,11.7,21.1z M17.2,40.4c-1.8,0-3.6,0-5.4,0c0-1.8,0-3.6,0-5.4c1.8,0,3.6,0,5.4,0
	C17.2,36.8,17.2,38.6,17.2,40.4z M17.2,33.4c-1.8,0-3.6,0-5.4,0c0-1.8,0-3.5,0-5.4c1.8,0,3.6,0,5.4,0C17.2,29.8,17.2,31.6,17.2,33.4
	z M18.5,14.5c1.8,0,3.6,0,5.4,0c0,1.8,0,3.6,0,5.4c-1.8,0-3.6,0-5.4,0C18.5,18.1,18.5,16.4,18.5,14.5z M18.5,21.2c1.8,0,3.6,0,5.4,0
	c0,1.8,0,3.5,0,5.4c-1.8,0-3.6,0-5.4,0C18.5,24.7,18.5,23,18.5,21.2z M24,40.4c-1.9,0-3.6,0-5.4,0c0-1.8,0-3.6,0-5.4
	c1.8,0,3.6,0,5.4,0C24,36.8,24,38.6,24,40.4z M29.3,33.1c-1.8,0-3.6,0-5.4,0c0-1.8,0-3.5,0-5.3c1.8,0,3.6,0,5.4,0
	C29.3,29.5,29.3,31.3,29.3,33.1z M30.9,20.8c1.8,0,3.6,0,5.4,0c0,1.8,0,3.5,0,5.4c-1.8,0-3.6,0-5.4,0C30.9,24.4,30.9,22.7,30.9,20.8
	z M36.2,40.1c-1.8,0-3.6,0-5.4,0c0-1.8,0-3.6,0-5.4c1.8,0,3.5,0,5.4,0C36.2,36.5,36.2,38.3,36.2,40.1z M36.3,33.1
	c-1.8,0-3.6,0-5.4,0c0-1.8,0-3.5,0-5.3c1.8,0,3.5,0,5.4,0C36.3,29.5,36.3,31.3,36.3,33.1z"/>
</svg>
