<svg id="Layer_1" data-name="Layer 1" xmlns="http://www.w3.org/2000/svg" viewBox="0 0 48 48"><defs><style>.cls-1{fill:#fff;}</style></defs><title>blokkada</title><path class="cls-1" d="M18.07,33.13a41.79,41.79,0,0,0,5.84,6,40.88,40.88,0,0,0,4-3.85L12.36,21.66A27.5,27.5,0,0,0,18.07,33.13Z"/><path class="cls-1" d="M12.31,14.38h0Z"/><path class="cls-1" d="M12.05,18.47c0,.55,0,1.09.08,1.63l20.6,8.44L12.25,14.88A32.45,32.45,0,0,0,12.05,18.47Z"/><path class="cls-1" d="M24,2A22,22,0,1,0,46,24,22,22,0,0,0,24,2Zm-.09,40.67c-.41,0-14.74-10.74-14.74-24.2,0-4.67,1-8.66,1.22-8.66.53,0,1.48,2.19,5.13,2.19C20.1,12,23,9.27,23.91,9.27S27.72,12,32.3,12c3.65,0,4.6-2.19,5.13-2.19.23,0,1.21,4,1.21,8.66C38.64,31.93,24.31,42.67,23.91,42.67Z"/><path class="cls-1" d="M32.3,14.88a16.73,16.73,0,0,1-8.39-2.48c-.49.27-1.1.61-1.83.95L35,23.45a17.55,17.55,0,0,0,.75-5,32.6,32.6,0,0,0-.26-4.09A9.88,9.88,0,0,1,32.3,14.88Z"/></svg>