<?xml version="1.0" encoding="utf-8"?>
<!-- Generator: Adobe Illustrator 23.0.3, SVG Export Plug-In . SVG Version: 6.00 Build 0)  -->
<svg version="1.1" id="Layer_1" xmlns="http://www.w3.org/2000/svg" xmlns:xlink="http://www.w3.org/1999/xlink" x="0px" y="0px"
	 viewBox="0 0 48 48" style="enable-background:new 0 0 48 48;" xml:space="preserve">
<style type="text/css">
	.st0{fill:#FFFFFF;}
</style>
<title>blokkada</title>
<g>
	<path class="st0" d="M41.8,2.7c-0.7,0-2,2.9-6.8,2.9C29,5.6,25.2,2,24,2s-5,3.6-11,3.6c-4.8,0-6.1-2.9-6.8-2.9
		C5.9,2.7,4.6,8,4.6,14.1C4.6,31.9,23.5,46,24,46s19.4-14.1,19.4-31.9C43.4,8,42.1,2.7,41.8,2.7z M35,9.4c1.4,0,2.9-0.2,4.2-0.7
		c0.2,1.8,0.3,3.6,0.3,5.4c0,2.2-0.4,4.4-1,6.6l-17-13.3c1-0.4,1.8-0.9,2.4-1.3C27.4,8.2,31.2,9.3,35,9.4z M8.4,14.1
		c0-1.6,0.1-3.2,0.3-4.7l27,18L8.5,16.3C8.4,15.6,8.4,14.8,8.4,14.1z M8.8,8.7L8.8,8.7L8.8,8.7z M24,41.3c-2.8-2.4-5.4-5-7.7-7.9
		c-2.9-3.7-6.4-9.1-7.5-15.1l20.5,17.9C27.6,38.1,25.9,39.8,24,41.3z"/>
</g>
</svg>
