<?xml version="1.0" encoding="UTF-8"?>
<svg version="1.1" viewBox="0 0 48 48" xmlns="http://www.w3.org/2000/svg">
    <path d="m24.207 5c-4.9926 0-9.3951 2.4426-12.191 6.1579l2.6628 1.9979c2.2058-2.9404 5.5555-4.9612 9.5283-4.9612 3.9731 0 7.3232 2.0205 9.5283 4.9612l2.6644-1.9963c-2.7956-3.7165-7.1993-6.1596-12.193-6.1596zm0 5.3322c-3.25 0-6.0097 1.6755-7.8325 4.0976l2.497 1.8732c1.2327-1.6453 3.1066-2.7744 5.3355-2.7744s4.1028 1.1292 5.3355 2.7744l2.497-1.8732c-1.8228-2.4221-4.5824-4.0976-7.8325-4.0976zm0 5.2534a4.7165 4.7165 0 0 0-3.7693 1.8912l3.7693 2.827 3.7693-2.827a4.7165 4.7165 0 0 0-3.7693-1.8912zm-17.858 7.2415v5.0432h5.0432v-5.0432zm7.5649 0v5.0432h5.0432v-5.0432zm7.5649 0v5.0432h5.0432v-5.0432zm7.5649 0v5.0432h5.0432v-5.0432zm7.5649 0v5.0432h5.0432v-5.0432zm-30.259 7.5649v5.0432h5.0432v-5.0432zm7.5649 0v5.0432h5.0432v-5.0432zm7.5649 0v5.0432h5.0432v-5.0432zm7.5649 0v5.0432h5.0432v-5.0432zm7.5649 0v5.0432h5.0432v-5.0432zm-30.259 7.5649v5.0432h5.0432v-5.0432zm7.5649 0v5.0432h20.173v-5.0432zm22.695 0v5.0432h5.0432v-5.0432z" fill="#fff" stroke-width=".84054"/>
</svg>
