<?xml version="1.0" encoding="UTF-8" standalone="no"?>
<svg
   xmlns:dc="http://purl.org/dc/elements/1.1/"
   xmlns:cc="http://creativecommons.org/ns#"
   xmlns:rdf="http://www.w3.org/1999/02/22-rdf-syntax-ns#"
   xmlns:svg="http://www.w3.org/2000/svg"
   xmlns="http://www.w3.org/2000/svg"
   xmlns:sodipodi="http://sodipodi.sourceforge.net/DTD/sodipodi-0.dtd"
   xmlns:inkscape="http://www.inkscape.org/namespaces/inkscape"
   width="48"
   height="48"
   viewBox="0 0 48 48"
   version="1.1"
   id="svg4"
   sodipodi:docname="bodhitimer.svg"
   inkscape:version="1.0.2 (e86c870879, 2021-01-15)">
  <metadata
     id="metadata10">
    <rdf:RDF>
      <cc:Work
         rdf:about="">
        <dc:format>image/svg+xml</dc:format>
        <dc:type
           rdf:resource="http://purl.org/dc/dcmitype/StillImage" />
        <dc:title></dc:title>
      </cc:Work>
    </rdf:RDF>
  </metadata>
  <defs
     id="defs8" />
  <sodipodi:namedview
     pagecolor="#ffffff"
     bordercolor="#666666"
     borderopacity="1"
     objecttolerance="10"
     gridtolerance="10"
     guidetolerance="10"
     inkscape:pageopacity="0"
     inkscape:pageshadow="2"
     inkscape:window-width="1600"
     inkscape:window-height="836"
     id="namedview6"
     showgrid="false"
     inkscape:zoom="12.791667"
     inkscape:cx="23.92671"
     inkscape:cy="23.722449"
     inkscape:window-x="0"
     inkscape:window-y="0"
     inkscape:window-maximized="1"
     inkscape:current-layer="svg4" />
  <g
     id="g20"
     transform="matrix(0.09002745,0,0,-0.09002745,39.551854,32.051746)"
     style="fill:#ffffff">
    <path
       d="m 0,0 c -2.081,5.869 -2.5,11.838 -2.134,17.904 0.228,3.782 -1.305,7.418 -2.908,10.101 -4.29,7.178 -6.936,14.714 -8.116,22.832 -1.537,10.565 -5.35,19.85 -13.796,26.842 -1.086,0.899 -2.221,1.738 -2.789,3.331 -2.756,7.724 -7.024,14.377 -13.843,19.29 -2.322,1.673 -4.935,3.773 -5.949,6.273 -2.757,6.8 -8.054,10.393 -13.986,13.97 -3.365,2.03 -7.935,2.715 -9.913,6.695 -3.146,6.333 -5.809,13.008 -14.079,14.291 -0.884,0.137 -0.213,2.087 -1.707,1.985 -0.647,0.274 -1.294,0.548 -1.941,0.823 -2.646,2.359 -5.439,4.459 -9.038,5.138 0.004,1.986 -0.907,2.836 -2.963,3.122 -3.173,0.443 -6.257,1.587 -8.77,3.572 -4.016,3.175 -8.323,4.43 -13.313,3.137 -0.62,0.158 -1.239,0.316 -1.86,0.473 -0.003,0.574 -0.11,1.024 -0.32,1.393 -0.28,0.492 -0.746,0.84 -1.398,1.145 -0.162,0.076 -0.337,0.15 -0.524,0.222 -2.25,0.875 -4.59,0.642 -6.841,1.193 -7.574,1.854 -14.456,5.006 -20.16,10.449 -0.29,0.126 -0.594,0.189 -0.911,0.191 -0.57,0.982 -1.14,1.965 -1.712,2.947 -0.312,0.737 0.116,1.91 -1.192,2.058 -0.249,0.906 -0.465,1.827 -0.691,2.743 -0.019,0.075 -0.037,0.151 -0.055,0.226 -0.008,0.028 -0.015,0.055 -0.022,0.083 -0.738,2.946 -1.645,5.814 -4.22,7.921 0.003,0.007 0.003,0.013 0.005,0.021 0.32,0.878 -0.081,1.35 -0.749,1.672 -0.095,0.046 -0.198,0.09 -0.303,0.131 0.099,4.583 -1.701,8.529 -4.109,12.273 -0.01,0.131 -0.009,0.264 -0.003,0.4 0.001,0.007 0.002,0.015 0.002,0.022 0.051,0.938 0.362,1.952 -0.857,2.509 -0.019,0.125 -0.034,0.251 -0.053,0.377 -0.411,2.79 -0.654,5.616 -1.237,8.37 -0.011,0.052 -0.018,0.105 -0.03,0.158 -0.105,0.488 -0.23,0.972 -0.362,1.454 -0.027,0.101 -0.047,0.203 -0.075,0.304 -0.135,0.473 -0.295,0.94 -0.461,1.407 -0.038,0.106 -0.066,0.215 -0.105,0.32 -0.214,0.57 -0.453,1.134 -0.725,1.692 -1.154,8.271 -2.184,16.574 -6.198,24.11 0.015,0.545 0.009,1.084 -0.017,1.616 -0.019,0.389 -0.062,0.77 -0.102,1.152 -0.015,0.141 -0.02,0.284 -0.038,0.424 -0.065,0.499 -0.152,0.992 -0.255,1.479 -0.004,0.018 -0.006,0.036 -0.01,0.054 -0.547,2.525 -1.631,4.879 -3.317,7.04 0.213,1.007 -0.013,1.902 -0.347,2.773 -0.143,0.371 -0.301,0.74 -0.46,1.108 -0.122,0.284 -0.242,0.568 -0.348,0.856 -2.93,8.025 -7.765,15.084 -11.457,22.726 -5.308,10.988 -11.842,21.357 -16.586,32.64 -3.261,7.76 -6.194,15.666 -11.505,22.424 -1.127,1.436 -3.038,3.038 -2.359,5.471 h -2 c 1.988,-4.65 5.053,-9.146 6.344,-13.69 3.654,-12.868 9.753,-24.654 14.496,-37.013 4.538,-11.824 11.337,-22.747 14.187,-35.263 1.123,-4.916 2.89,-9.791 3.214,-14.759 0.447,-6.86 5.15,-13.054 2.944,-20.254 -0.259,-0.844 0.299,-1.589 1.048,-2.087 0.003,-0.282 0,-0.563 -0.007,-0.845 0,-0.011 -0.001,-0.022 -0.001,-0.032 -0.113,-4.189 -1.193,-8.429 0.691,-12.511 0.005,-0.012 0.009,-0.025 0.015,-0.037 -1.262,-0.906 -1.052,-2.218 -0.923,-3.507 -3.201,-4.726 0.258,-9.955 -1.546,-15.249 -3.089,-9.061 -11.771,-18.454 -21.173,-19.321 -12.348,-1.14 -24.056,-4.633 -35.238,-9.719 -3.021,-1.374 -7.211,-2.285 -8.082,-6.671 -1.363,-0.007 -2.41,-0.463 -3.306,-1.134 -1.972,-1.477 -3.214,-3.993 -5.486,-5.043 -4.815,-0.857 -8.29,-3.169 -10.996,-6.318 -2.104,-2.449 -3.742,-5.405 -5.182,-8.575 -0.125,-0.039 -0.238,-0.084 -0.34,-0.135 -0.051,-0.024 -0.091,-0.055 -0.135,-0.083 -0.046,-0.028 -0.098,-0.054 -0.138,-0.086 -0.055,-0.041 -0.098,-0.089 -0.143,-0.136 -0.021,-0.022 -0.048,-0.041 -0.068,-0.065 -0.048,-0.058 -0.086,-0.122 -0.122,-0.188 -0.008,-0.015 -0.021,-0.028 -0.028,-0.044 -0.038,-0.074 -0.065,-0.154 -0.087,-0.236 -0.003,-0.009 -0.007,-0.017 -0.009,-0.025 -0.023,-0.09 -0.036,-0.185 -0.043,-0.285 0,-0.001 0,-0.002 0,-0.003 -0.013,-0.202 0.008,-0.421 0.057,-0.655 -1.823,-0.724 -2.03,-2.206 -1.796,-3.894 -0.099,-0.787 -0.456,-1.341 -0.981,-1.861 -0.175,-0.172 -0.368,-0.342 -0.577,-0.515 -4.562,-3.789 -9.379,-7.228 -13.673,-11.407 -3.872,-3.768 -6.947,-8.1 -10.526,-12.013 -5.323,-5.821 -9.026,-12.453 -12.271,-19.475 -0.088,-1.258 -0.175,-2.515 -0.263,-3.773 -1.152,-1.119 -2.304,-2.238 -3.291,-3.493 -0.592,-0.752 -1.125,-1.554 -1.564,-2.432 -0.69,-1.059 -1.379,-2.116 -2.068,-3.174 l 0.002,0.003 -0.002,-0.003 h 0.019 c -2.134,-3.672 -3.77,-7.503 -4.8,-11.523 -0.621,-2.428 -1.022,-4.923 -1.179,-7.494 -0.356,-5.81 -1.066,-11.515 -3.949,-16.74 -5.6,-10.144 -7.253,-21.338 -6.992,-32.576 0.146,-6.299 0.228,-12.585 0.016,-18.872 -0.11,-3.309 -0.241,-6.635 -0.419,-9.919 -0.314,-5.807 2.665,-10.766 3.154,-16.308 0.904,-10.24 5.984,-18.894 11.546,-27.056 15.362,-22.541 36.29,-37.926 61.964,-47.116 18.954,-6.786 38.321,-8.402 58.252,-6.528 8.35,0.785 16.429,2.85 25.206,4.428 -0.577,-0.078 -1.16,-0.172 -1.751,-0.29 0.591,0.118 1.174,0.212 1.751,0.29 0.919,0.165 1.838,0.33 2.773,0.482 -0.032,-0.088 -0.058,-0.176 -0.089,-0.265 2.666,0.095 5.214,-0.191 7.702,-0.724 0.217,0.382 0.462,0.755 0.746,1.119 1.284,1.65 2.99,0.168 4.426,-0.322 9.484,-3.235 19.249,-5.305 29.237,-5.307 18.308,-0.002 36.04,2.808 53.922,7.705 27.447,7.516 48.361,23.548 66.524,44.112 5.326,6.03 8.773,13.66 11.638,21.323 0.4,1.071 0.814,2.307 0.663,3.388 -0.965,6.867 2.141,13.328 1.75,20.304 -0.199,3.554 2.258,7.879 2.621,11.916 C -1.048,-11.085 1.996,-5.629 0,0"
       style="fill:#ffffff;fill-opacity:1;fill-rule:evenodd;stroke:none"
       id="path22" />
  </g>
  <g
     id="g104"
     transform="matrix(0.09002745,0,0,-0.09002745,23.276929,42.869473)"
     style="fill:#ffffff">
    <path
       d="m 0,0 c -2.718,-7.674 -1.986,-15.039 0.199,-22.047 0.141,-0.453 0.277,-0.904 0.407,-1.354 1.951,-6.755 2.566,-13.226 -0.601,-19.822 0.001,-10e-4 0.002,-0.002 0.003,-0.003 -0.138,-0.321 -0.489,-0.806 -0.387,-0.936 0.589,-0.751 0.914,-0.086 1.261,0.337 3.863,2.457 8.055,5.632 8.266,10 0.449,9.275 2.748,18.883 -1.546,27.859 C 6.598,-3.868 7.72,-0.58 8.565,0.91 7.762,5.137 2.315,5.494 0,0"
       style="fill:#ffffff;fill-opacity:1;fill-rule:evenodd;stroke:none"
       id="path106" />
  </g>
</svg>
