<svg id="Layer_1" data-name="Layer 1" xmlns="http://www.w3.org/2000/svg" viewBox="0 0 48 48"><defs><style>.cls-1{fill:#fff;}</style></defs><title>bookreader</title><path class="cls-1" d="M27.14,27.12l.07.17V27.1Z"/><path class="cls-1" d="M27.21,27.29H21.13v6.8h6.08a3.4,3.4,0,1,0,0-6.8Z"/><path class="cls-1" d="M29,19.89a3.4,3.4,0,0,0-3.4-3.4H21.13v6.8h4.43A3.4,3.4,0,0,0,29,19.89Z"/><path class="cls-1" d="M24,2A22,22,0,1,0,46,24,22,22,0,0,0,24,2Zm3.21,36.09H15.38a2,2,0,0,1,0-4h1.75V16.49H15.38a2,2,0,0,1-2-2h0a2,2,0,0,1,2-2H25.56a7.4,7.4,0,0,1,5.76,12,7.4,7.4,0,0,1-4.11,13.56Z"/></svg>