<?xml version="1.0" encoding="UTF-8" standalone="no"?>
<svg
   xmlns:dc="http://purl.org/dc/elements/1.1/"
   xmlns:cc="http://creativecommons.org/ns#"
   xmlns:rdf="http://www.w3.org/1999/02/22-rdf-syntax-ns#"
   xmlns:svg="http://www.w3.org/2000/svg"
   xmlns="http://www.w3.org/2000/svg"
   xmlns:sodipodi="http://sodipodi.sourceforge.net/DTD/sodipodi-0.dtd"
   xmlns:inkscape="http://www.inkscape.org/namespaces/inkscape"
   height="46.45459"
   stroke-miterlimit="1.414"
   viewBox="-0.092 0.015 51.9104 50.767477"
   width="47.500023"
   version="1.1"
   id="svg1540"
   sodipodi:docname="bookingcom-1.svg"
   style="clip-rule:evenodd;fill-rule:evenodd;stroke-linejoin:round;stroke-miterlimit:1.41400003"
   inkscape:version="0.92.4 5da689c313, 2019-01-14">
  <metadata
     id="metadata1546">
    <rdf:RDF>
      <cc:Work
         rdf:about="">
        <dc:format>image/svg+xml</dc:format>
        <dc:type
           rdf:resource="http://purl.org/dc/dcmitype/StillImage" />
        <dc:title></dc:title>
      </cc:Work>
    </rdf:RDF>
  </metadata>
  <defs
     id="defs1544" />
  <sodipodi:namedview
     pagecolor="#ffffff"
     bordercolor="#666666"
     borderopacity="1"
     objecttolerance="10"
     gridtolerance="10"
     guidetolerance="10"
     inkscape:pageopacity="0"
     inkscape:pageshadow="2"
     inkscape:window-width="2520"
     inkscape:window-height="1397"
     id="namedview1542"
     showgrid="false"
     inkscape:pagecheckerboard="true"
     inkscape:zoom="1"
     inkscape:cx="3999.8646"
     inkscape:cy="-1230.4618"
     inkscape:window-x="20"
     inkscape:window-y="23"
     inkscape:window-maximized="0"
     inkscape:current-layer="svg1540" />
  <path
     style="fill:#ffffff;fill-opacity:1;stroke-width:0.019"
     d="m 9.6572,0.00389758 c -5.3796,0 -9.7492,4.36760002 -9.7492,9.74730002 V 41.024498 c 0,5.3783 4.3696,9.7473 9.7493,9.7473 h 32.4118 c 5.3797,0 9.7493,-4.369 9.7493,-9.7473 V 9.7511976 c 0,-5.3797 -4.3696,-9.74730002 -9.7493,-9.74730002 z M 17.0641,12.962898 h 0.6122 v 0 h 5.3721 c 4.7078,0 7.7498,2.5299 7.7498,6.4527 0,2.5611 -1.2868,4.0456 -2.0551,4.7057 l -0.66,0.5643 0.7558,0.4248 c 1.8344,1.0327 2.9255,3.0628 2.9255,5.4386 0,4.4121 -3.3773,7.2605 -8.6099,7.2605 h -8.6181 v -22.2584 c 0.015,-1.4034 1.1327,-2.5382 2.5277,-2.5903 z m 3.8104,4.0749 c -1.0681,0.071 -1.5553,0.6184 -1.5553,1.7698 v 1.3159 2.8839 h 3.7625 c 2.1134,0 2.8671,-1.6345 2.8671,-3.0337 0,-1.8386 -1.0994,-2.9359 -2.9338,-2.9359 z m -0.2269,9.8153 c -0.9141,0.127 -1.3284,0.683 -1.3284,1.7512 v 4.9992 h 4.1809 10e-5 c 2.0676,0 3.3502,-1.264 3.3502,-3.3961 0,-2.0759 -1.3159,-3.3586 -3.3502,-3.3586 z m 16.4223,4.8078 c 1.6939,0 3.0717,1.3756 3.0717,3.076 0,1.6982 -1.3778,3.076 -3.0718,3.076 -1.6896,0 -3.061,-1.3778 -3.061,-3.076 0,-1.7004 1.3714,-3.076 3.0611,-3.076 z"
     id="path1530"
     inkscape:connector-curvature="0" />
  <path
     d="m -0.0902,39.395298 h 14.6323 v 11.3765 H -0.0902 Z"
     id="path1532"
     inkscape:connector-curvature="0"
     style="fill:#ffffff;fill-opacity:1;stroke-width:0.01097928" />
</svg>
