<?xml version="1.0" encoding="UTF-8"?>
<svg version="1.1" viewBox="0 0 48 48" xmlns="http://www.w3.org/2000/svg">
    <path d="m24 2a22 22 0 0 0-22 22 22 22 0 0 0 22 22 22 22 0 0 0 22-22 22 22 0 0 0-22-22zm-8.832 8.3027h15.66l-9.002 9h-6.6582c-2.493 0-4.5-2.007-4.5-4.5s2.007-4.5 4.5-4.5zm18 0c2.493 0 4.5 2.007 4.5 4.5s-2.007 4.5-4.5 4.5h-4.5v-4.5c0-2.493 2.007-4.5 4.5-4.5zm-4.6934 2.8301c-0.18578 0.52439-0.30664 1.0803-0.30664 1.6699v4.5h-5.8633l6.1699-6.1699zm9.1934 4.0117v15.658c0 2.493-2.007 4.5-4.5 4.5s-4.5-2.007-4.5-4.5v-6.6582l9-9zm-2.8301 2.3535-6.1699 6.1699v-5.8652h4.5c0.58956 0 1.1456-0.11894 1.6699-0.30469zm-13.033 0.30469 6.3633 0.025391v6.3398l-9.5 9.5c-1.7628 1.7628-4.6005 1.7628-6.3633 0s-1.7628-4.6024 0-6.3652l9.5-9.5z" fill="#fff"/>
</svg>
