<?xml version="1.0" encoding="UTF-8" standalone="no"?>
<svg
   xmlns:dc="http://purl.org/dc/elements/1.1/"
   xmlns:cc="http://creativecommons.org/ns#"
   xmlns:rdf="http://www.w3.org/1999/02/22-rdf-syntax-ns#"
   xmlns:svg="http://www.w3.org/2000/svg"
   xmlns="http://www.w3.org/2000/svg"
   id="svg861"
   version="1.1"
   viewBox="0 0 48 48"
   height="48"
   width="48">
  <metadata
     id="metadata867">
    <rdf:RDF>
      <cc:Work
         rdf:about="">
        <dc:format>image/svg+xml</dc:format>
        <dc:type
           rdf:resource="http://purl.org/dc/dcmitype/StillImage" />
        <dc:title></dc:title>
      </cc:Work>
    </rdf:RDF>
  </metadata>
  <defs
     id="defs865" />
  <path
     d="M 25.649414,29.795136 V 27.90578 a 7.3559414,7.358442 0 0 1 -5.202012,-2.15466 l -1.335549,1.336003 a 9.2451808,9.2483237 0 0 0 6.537561,2.708013 z m 9.123046,-0.534624 -3.538994,-3.49272 a 7.4758713,7.3781199 0 0 1 -5.286982,2.161241 v 4.939979 a 12.481299,12.318099 0 0 0 8.825976,-3.6085 z m 3.932592,-9.00802 h -4.985614 a 7.4470742,7.4470742 0 0 1 -2.18155,5.266571 l 3.525738,3.525738 a 12.43322,12.43322 0 0 0 3.641426,-8.792309 z M 13.054546,7.6193547 A 17.446679,17.446679 0 0 0 7.9443359,19.955292 H 9.8439841 A 15.547859,15.547859 0 0 1 14.39686,8.9616682 Z m 7.321171,18.2039043 -1.263864,1.263864 a 9.2465033,9.2465033 0 0 0 6.537561,2.708013 v -1.787629 a 7.4587091,7.4587091 0 0 1 -5.273697,-2.184248 z m 16.470739,5.620314 a 15.415383,15.22124 0 0 1 -10.899972,4.457922 v 4.47915 a 19.952437,19.701154 0 0 0 14.10918,-5.770211 z m -1.809652,-1.810547 a 12.857665,12.604913 0 0 1 -9.09032,3.693054 v 1.947143 a 14.844035,14.552235 0 0 0 10.495899,-4.262249 l -1.403624,-1.377948 z m -9.09032,-19.433038 v 1.934232 a 7.5332205,7.5332205 0 0 1 5.327381,2.205838 l 1.367736,-1.367736 a 9.4679908,9.4679908 0 0 0 -6.695117,-2.772334 z m 9.069046,0.983458 -3.517289,3.517289 a 7.4300206,7.4300206 0 0 1 2.176444,5.254557 h 4.974729 A 12.404749,12.404749 0 0 0 35.01553,11.183446 Z M 14.898591,9.5158392 A 14.763846,14.763846 0 0 0 10.575498,19.955292 h 7.096471 a 7.6678061,7.6678061 0 0 1 2.245023,-5.421052 z m 10.750823,3.1425778 a 7,7 0 0 0 -4.949219,2.050781 l 1.478516,1.478516 a 5.25,5.25 0 0 1 3.470703,-1.328125 z m 0.296875,0 v 2.214844 a 5.25,5.25 0 0 1 3.337891,1.447265 l 1.611328,-1.611328 a 7,7 0 0 0 -4.949219,-2.050781 z m -5.535156,2.347656 a 7,7 0 0 0 -2.050781,4.949219 h 2.05664 a 5.25,5.25 0 0 1 1.462891,-3.480469 z m 10.783203,0 -1.617188,1.617188 a 5.25,5.25 0 0 1 1.326172,3.332031 h 2.339844 a 7,7 0 0 0 -2.048828,-4.949219 z m -12.841797,5.246094 a 7,7 0 0 0 2.050781,4.949219 l 1.462891,-1.462891 a 5.25,5.25 0 0 1 -1.451172,-3.486328 z m 12.548828,0 a 5.25,5.25 0 0 1 -1.318359,3.337891 l 1.611328,1.611328 a 7,7 0 0 0 2.048828,-4.949219 z m -1.603515,3.640625 a 5.25,5.25 0 0 1 -3.341797,1.455078 v 2.203125 a 7,7 0 0 0 4.949218,-2.050781 z m -7.125,0.134766 -1.472657,1.472656 a 7,7 0 0 0 4.949219,2.048828 v -2.189453 a 5.25,5.25 0 0 1 -3.476562,-1.332031 z"
     style="fill:#ffffff;fill-opacity:1;stroke:none;stroke-width:0.00499263;stroke-miterlimit:4;stroke-dasharray:none;stroke-opacity:1"
     id="path904" />
</svg>
