<?xml version="1.0" encoding="UTF-8"?>
<svg version="1.1" viewBox="0 0 48 48" xmlns="http://www.w3.org/2000/svg">
    <path d="m25.649 29.795v-1.8894a7.3559 7.3584 0 0 1-5.202-2.1547l-1.3355 1.336a9.2452 9.2483 0 0 0 6.5376 2.708zm9.123-0.53462-3.539-3.4927a7.4759 7.3781 0 0 1-5.287 2.1612v4.94a12.481 12.318 0 0 0 8.826-3.6085zm3.9326-9.008h-4.9856a7.4471 7.4471 0 0 1-2.1816 5.2666l3.5257 3.5257a12.433 12.433 0 0 0 3.6414-8.7923zm-25.651-12.633a17.447 17.447 0 0 0-5.1102 12.336h1.8996a15.548 15.548 0 0 1 4.5529-10.994zm7.3212 18.204-1.2639 1.2639a9.2465 9.2465 0 0 0 6.5376 2.708v-1.7876a7.4587 7.4587 0 0 1-5.2737-2.1842zm16.471 5.6203a15.415 15.221 0 0 1-10.9 4.4579v4.4792a19.952 19.701 0 0 0 14.109-5.7702zm-1.8097-1.8105a12.858 12.605 0 0 1-9.0903 3.6931v1.9471a14.844 14.552 0 0 0 10.496-4.2622l-1.4036-1.3779zm-9.0903-19.433v1.9342a7.5332 7.5332 0 0 1 5.3274 2.2058l1.3677-1.3677a9.468 9.468 0 0 0-6.6951-2.7723zm9.069 0.98346-3.5173 3.5173a7.43 7.43 0 0 1 2.1764 5.2546h4.9747a12.405 12.405 0 0 0-3.6339-8.7718zm-20.117-1.6676a14.764 14.764 0 0 0-4.3231 10.439h7.0965a7.6678 7.6678 0 0 1 2.245-5.4211zm10.751 3.1426a7 7 0 0 0-4.9492 2.0508l1.4785 1.4785a5.25 5.25 0 0 1 3.4707-1.3281zm0.29688 0v2.2148a5.25 5.25 0 0 1 3.3379 1.4473l1.6113-1.6113a7 7 0 0 0-4.9492-2.0508zm-5.5352 2.3477a7 7 0 0 0-2.0508 4.9492h2.0566a5.25 5.25 0 0 1 1.4629-3.4805zm10.783 0-1.6172 1.6172a5.25 5.25 0 0 1 1.3262 3.332h2.3398a7 7 0 0 0-2.0488-4.9492zm-12.842 5.2461a7 7 0 0 0 2.0508 4.9492l1.4629-1.4629a5.25 5.25 0 0 1-1.4512-3.4863zm12.549 0a5.25 5.25 0 0 1-1.3184 3.3379l1.6113 1.6113a7 7 0 0 0 2.0488-4.9492zm-1.6035 3.6406a5.25 5.25 0 0 1-3.3418 1.4551v2.2031a7 7 0 0 0 4.9492-2.0508zm-7.125 0.13477-1.4727 1.4727a7 7 0 0 0 4.9492 2.0488v-2.1895a5.25 5.25 0 0 1-3.4766-1.332z" fill="#fff"/>
</svg>
