<?xml version="1.0" encoding="UTF-8"?>
<svg version="1.1" viewBox="0 0 48 48" xmlns="http://www.w3.org/2000/svg">
    <path d="m26.485 9.5496v4.191a11.492 11.492 0 0 1 6.1988 2.5832l2.9545-2.9545a15.67 15.67 0 0 0-9.1534-3.8197zm-17.999 0.018364a22.983 22.983 0 0 0-5.9846 14.432h7.319a15.67 15.67 0 0 1 3.8299-9.2676zm15.909 6.1376a9.4023 9.4023 0 0 0-4.8174 1.9996l2.2363 2.2363a6.2682 6.2682 0 0 1 2.5811-1.0753zm2.0894 0.0062v3.1586a6.2682 6.2682 0 0 1 2.5832 1.0692l2.2404-2.2404a9.4023 9.4023 0 0 0-4.8236-1.9874zm-11.351 0.50394a13.581 13.581 0 0 0-3.23 7.7842h2.0976a11.492 11.492 0 0 1 2.6117-6.3049zm2.9607 2.9607a9.4023 9.4023 0 0 0-1.9874 4.8236h3.1586a6.2682 6.2682 0 0 1 1.0692-2.5832zm14.685 0.0062-2.2363 2.2363a6.2682 6.2682 0 0 1 1.0753 2.5811h3.1606a9.4023 9.4023 0 0 0-1.9996-4.8174zm-16.678 6.9068a9.4023 9.4023 0 0 0 1.9996 4.8174l2.2363-2.2363a6.2682 6.2682 0 0 1-1.0753-2.5811zm15.513 0a6.2682 6.2682 0 0 1-1.0692 2.5832l2.2404 2.2404a9.4023 9.4023 0 0 0 1.9874-4.8236zm5.1929 0a11.492 11.492 0 0 1-2.5281 6.3172l2.9607 2.9607a15.67 15.67 0 0 0 3.7544-9.2778zm-7.7414 4.0584a6.2682 6.2682 0 0 1-2.5811 1.0753v3.1606a9.4023 9.4023 0 0 0 4.8174-1.9996zm-7.2537 0.0021-2.2404 2.2404a9.4023 9.4023 0 0 0 4.8236 1.9872v-3.1586a6.2682 6.2682 0 0 1-2.5832-1.0692zm10.977 3.7217a11.492 11.492 0 0 1-6.3049 2.6138v7.3108a18.805 18.805 0 0 0 11.481-4.7481z" fill="#fff"/>
</svg>
