<?xml version="1.0" encoding="UTF-8" standalone="no"?>
<svg
   xmlns:dc="http://purl.org/dc/elements/1.1/"
   xmlns:cc="http://creativecommons.org/ns#"
   xmlns:rdf="http://www.w3.org/1999/02/22-rdf-syntax-ns#"
   xmlns:svg="http://www.w3.org/2000/svg"
   xmlns="http://www.w3.org/2000/svg"
   id="svg894"
   version="1.1"
   viewBox="0 0 48 48"
   height="48"
   width="48">
  <metadata
     id="metadata900">
    <rdf:RDF>
      <cc:Work
         rdf:about="">
        <dc:format>image/svg+xml</dc:format>
        <dc:type
           rdf:resource="http://purl.org/dc/dcmitype/StillImage" />
        <dc:title></dc:title>
      </cc:Work>
    </rdf:RDF>
  </metadata>
  <defs
     id="defs898" />
  <style
     type="text/css"
     id="style963">
	.st0{fill:#FFFFFF;}
</style>
  <path
     style="fill:#ffffff;stroke-width:0.88336504"
     class="st0"
     d="m 11.908384,6.9753413 c 2.253608,0.215645 2.743042,0.1488873 4.151816,-2.0317348 0.971701,-1.4133841 2.296749,-1.7667301 3.886805,-1.7667301 3.080708,-2.247e-4 6.095219,0 9.186996,0 0.706693,0 1.501722,0.2650095 1.943404,0.8833651 0.795029,0.9717015 1.590057,1.8550668 2.561758,2.7384319 0.26501,0.2650089 0.706693,0.4416826 1.148375,0.3533453 1.855067,-0.530019 3.673225,0.1039965 4.946844,1.5900576 1.254301,1.5608227 1.974077,2.6904547 1.236711,3.8868077 -0.176673,0.353346 -0.176673,0.795028 0,1.148375 1.325047,2.385085 0.618356,4.770169 0,7.155256 -1.060038,3.710133 -1.943403,7.420265 -2.915105,11.130399 -0.530018,2.031739 -0.883365,4.151815 -2.473421,5.653537 -1.060039,0.883365 -2.120077,1.76673 -3.356788,2.473423 -2.208412,1.590055 -4.505162,3.091777 -6.801911,4.593497 -0.81628,0.508767 -1.568804,0.508767 -2.385085,0.08834 C 20.653697,43.281645 18.180276,41.691589 15.795191,40.013195 14.82349,39.39484 13.940124,38.688147 13.056758,37.981456 11.201692,36.479735 10.848346,34.271322 10.22999,32.151246 9.1699528,28.087766 8.1099151,24.112625 6.9615406,20.049144 L 6.4315215,17.929069 C 6.166512,17.045704 6.2548485,16.074003 6.6081946,15.190637 7.2708305,13.555402 7.5148125,13.266786 6.8273714,11.386571 6.4867722,10.131379 7.8024237,9.1011546 8.8166072,8.2120527 9.7998265,7.3508278 11.057464,6.8500975 11.908384,6.9753413 Z m 21.46577,7.5086037 c -1.76673,0.706692 -3.26845,1.236711 -4.858509,1.855066 -1.289843,0.61467 -1.4073,1.208784 -0.971701,2.473423 l 1.325047,2.385085 c 0.4287,0.684875 0.127803,1.238713 -0.441682,1.678394 -1.148374,0.706693 -2.296749,1.50172 -3.445123,2.296749 -0.706693,0.530019 -0.706693,0.971702 -0.176674,1.590058 1.413384,1.50172 3.180114,2.650094 5.123518,3.356786 0.353346,0.176673 0.795029,0.176673 1.236711,0 0.706693,-0.530018 1.325048,-1.148375 1.855067,-1.855066 0.795029,-1.148375 0.353346,-2.296749 -0.176673,-3.356787 -0.353346,-0.618356 -0.176673,-1.413384 0.353345,-1.943404 l 3.975143,-4.240152 c 1.148375,-1.236711 1.236712,-2.031739 0.353347,-3.356787 -0.883365,-1.325048 -2.120077,-2.826768 -3.091778,-4.328488 -0.618355,-1.0600381 -1.50172,-1.5900584 -2.826768,-1.0600381 -0.530019,0.1766721 -1.060038,0.2650081 -1.590057,0.2650081 -0.883366,0.08834 -1.678394,0 -2.56176,-0.176672 -1.76673,-0.4416831 -3.445123,-1.3250485 -5.300189,-0.4416831 -1.678394,0.7950301 -3.533459,0.9717021 -5.300189,0.353347 -0.993275,-0.418508 -2.11079,-0.396963 -2.561758,0.1766721 -1.325049,1.766731 -2.738433,3.53346 -3.975144,5.388527 -0.8833642,1.325047 -0.6183542,2.208412 0.441682,3.356787 0.883365,1.060038 1.855067,2.031739 2.915104,3.003441 2.127941,1.706376 2.225202,2.060784 1.06004,4.416826 -0.795029,1.50172 1.23671,3.555151 2.473422,3.908496 0.265009,0 0.530019,0 0.795029,-0.08834 1.855065,-0.706692 3.533458,-1.611748 4.946842,-3.025132 0.883365,-0.971702 0.971701,-1.413384 -0.176673,-2.208412 -1.148374,-0.795029 -2.031739,-1.325048 -3.00344,-1.943404 -0.651567,-0.464271 -0.883365,-0.883365 -0.618356,-1.501721 0.487801,-0.890749 1.004492,-1.823406 1.413383,-2.561758 0.618357,-1.325047 0.353347,-2.120076 -1.060037,-2.650095 l -4.593497,-1.76673 c 1.943403,-0.530019 3.975142,-0.353347 5.918544,0.353346 1.148374,0.441683 1.325048,0.530019 1.060038,1.76673 -0.353346,1.678393 -0.618355,3.268451 -0.971701,4.946843 -0.121322,0.563231 0.176672,1.148376 0.706692,1.325049 1.620308,0.417312 3.326386,0.382645 4.68184,0 0.717762,-0.254164 0.971701,-0.530019 0.883365,-1.325049 -0.353346,-1.766729 -0.618356,-3.533459 -0.971703,-5.300189 -0.08834,-0.530019 -0.176672,-1.060038 0.53002,-1.236711 2.031739,-0.883366 4.416826,-1.060038 6.625238,-0.530019 z m -9.239545,14.345739 c -0.129226,-0.05526 -0.231748,-0.04838 -0.368287,0.01315 -1.76673,0.795029 -3.576005,1.685382 -5.342734,2.568747 -0.530019,0.265009 -0.508328,0.739677 -0.154982,1.004687 1.590057,1.23671 3.180113,2.473421 4.770171,3.798469 0.441682,0.441682 1.148374,0.441682 1.678393,0 v 0 c 1.50172,-1.236711 3.091778,-2.473422 4.681834,-3.798469 0.618357,-0.441683 0.53002,-0.795029 -0.08834,-1.236712 -1.914697,-0.910043 -3.567849,-1.617767 -5.176053,-2.349867 z"
     id="path967" />
</svg>
