<?xml version="1.0" encoding="utf-8"?>
<!-- Generator: Adobe Illustrator 22.0.0, SVG Export Plug-In . SVG Version: 6.00 Build 0)  -->
<svg version="1.1" id="Logo" xmlns="http://www.w3.org/2000/svg" xmlns:xlink="http://www.w3.org/1999/xlink" x="0px" y="0px"
	 viewBox="0 0 40.4 48" style="enable-background:new 0 0 40.4 48;" xml:space="preserve">
<style type="text/css">
	.st0{fill:#FFFFFF;}
</style>
<title>Frost Logo Making Template</title>
<path class="st0" d="M6.6,4.6c0.2,0,0.4,0,0.6,0.1c1.3,0.6,2.1,0,2.8-1c0.4-0.5,0.9-0.9,1.3-1.4c1.1-1.6,2.6-2,4.4-2
	c3.5,0.1,6.9,0,10.4,0c0.8,0,1.7,0.3,2.2,1c0.9,1.1,1.8,2.1,2.9,3.1c0.3,0.3,0.8,0.5,1.3,0.4c2.1-0.6,4.3,0.1,5.6,1.8
	c0.2,0.2,0.3,0.4,0.5,0.5c1.4,1,2,2.2,0.9,3.9c-0.2,0.4-0.2,0.9,0,1.3c1.5,2.7,0.7,5.4,0,8.1c-1.2,4.2-2.2,8.4-3.3,12.6
	c-0.6,2.3-1,4.7-2.8,6.4c-1.2,1-2.4,2-3.8,2.8c-2.5,1.8-5.1,3.5-7.7,5.2c-0.8,0.7-1.9,0.7-2.7,0.1c-2.7-1.8-5.5-3.6-8.2-5.5
	c-1.1-0.7-2.1-1.5-3.1-2.3c-2.1-1.7-2.5-4.2-3.2-6.6c-1.2-4.6-2.4-9.1-3.7-13.7c-0.2-0.8-0.4-1.6-0.6-2.4c-0.3-1-0.2-2.1,0.2-3.1
	c0.7-1.4,1-2.8,0-4.2C0.1,9.1,0.4,8.6,0.9,8.2c0.8-0.7,1.5-1.5,2.2-2.2C4,5,5.3,4.6,6.6,4.6z M30.9,13.1c-2,0.8-3.7,1.4-5.5,2.1
	c-1,0.2-1.6,1.2-1.4,2.2c0.1,0.2,0.2,0.4,0.3,0.6c0.5,0.9,1,1.8,1.5,2.7c0.4,0.5,0.3,1.3-0.2,1.7c-0.1,0.1-0.2,0.1-0.3,0.2
	c-1.3,0.8-2.6,1.7-3.9,2.6c-0.8,0.6-0.8,1.1-0.2,1.8c1.6,1.7,3.6,3,5.8,3.8c0.4,0.2,0.9,0.2,1.4,0c0.8-0.6,1.5-1.3,2.1-2.1
	c0.9-1.3,0.4-2.6-0.2-3.8c-0.4-0.7-0.2-1.6,0.4-2.2c1.5-1.6,3-3.2,4.5-4.8c1.3-1.4,1.4-2.3,0.4-3.8s-2.4-3.2-3.5-4.9
	C31.4,8,30.4,7.4,28.9,8c-0.6,0.2-1.2,0.3-1.8,0.3c-1,0.1-1.9,0-2.9-0.2c-2-0.5-3.9-1.5-6-0.5c-1.9,0.9-4,1.1-6,0.4
	c-0.5-0.2-1.1-0.3-1.6-0.3c-0.5,0-1,0.1-1.3,0.5c-1.5,2-3.1,4-4.5,6.1c-1,1.5-0.7,2.5,0.5,3.8c1,1.2,2.1,2.3,3.3,3.4
	c1.7,1.4,2.2,2.9,1.2,5c-0.9,1.7,1.4,4.2,2.8,4.6c0.3,0,0.6,0,0.9-0.1c2.1-0.8,4-2,5.6-3.6c1-1.1,1.1-1.6-0.2-2.5s-2.3-1.5-3.4-2.2
	c-0.7-0.3-1-1-0.7-1.7c0-0.1,0.1-0.2,0.2-0.3c0.5-0.9,0.9-1.7,1.4-2.6c0.7-1.5,0.4-2.4-1.2-3l-5.2-2c2.2-0.6,4.5-0.4,6.7,0.4
	c1.3,0.5,1.5,0.6,1.2,2c-0.4,1.9-0.7,3.7-1.1,5.6c-0.2,0.6,0.2,1.3,0.8,1.5c0,0,0.1,0,0.1,0c1.7,0.5,3.5,0.5,5.2,0
	c0.8-0.2,1.1-0.6,1-1.5c-0.4-2-0.7-4-1.1-6c-0.1-0.6-0.2-1.2,0.6-1.4C25.7,12.7,28.4,12.5,30.9,13.1z M20.2,29.3l-0.1,0.1
	c-0.1,0-0.2,0-0.3,0c-2,0.9-4,1.8-6,2.8c-0.6,0.3-0.4,0.9,0,1.2c1.8,1.4,3.6,2.8,5.4,4.3c0.5,0.5,1.3,0.5,1.9,0c0,0,0,0,0,0
	c1.7-1.4,3.5-2.8,5.3-4.3c0.7-0.5,0.6-0.9-0.1-1.4c-0.7-0.4-1.5-0.9-2.3-1.2C22.8,30.4,21.5,29.9,20.2,29.3z"/>
</svg>
