<svg id="Layer_1" data-name="Layer 1" xmlns="http://www.w3.org/2000/svg" viewBox="0 0 48 48"><defs><style>.cls-1{fill:#fff;}</style></defs><title>bromite</title><path class="cls-1" d="M23.91,22.79a15.38,15.38,0,0,0-7.49,1.9A22.93,22.93,0,0,1,23,28.1a31,31,0,0,1,8.48-3.41A15.21,15.21,0,0,0,23.91,22.79Z"/><path class="cls-1" d="M23.88,30A22.29,22.29,0,0,0,10.23,24.4a13.94,13.94,0,0,0,26.52,8.28,12.9,12.9,0,0,1-4.09.68A12.71,12.71,0,0,1,23.88,30Z"/><path class="cls-1" d="M24.46,29.31a11.9,11.9,0,0,0,8.2,3.18,12,12,0,0,0,4.48-.88,13.84,13.84,0,0,0,.63-4.14,14.55,14.55,0,0,0-.27-2.74,30,30,0,0,0-13.81,4C23.94,28.89,24.21,29.09,24.46,29.31Z"/><path class="cls-1" d="M39.59,12.57a1.46,1.46,0,0,0,1.82-.35l1.21-1.9a1.46,1.46,0,0,0-.35-1.82l-10-6.41a1.46,1.46,0,0,0-1.82.35l-1.21,1.9a1.46,1.46,0,0,0,.35,1.82l.86.61L28.76,9.54a18.08,18.08,0,0,0-4.94-.69A18.62,18.62,0,1,0,37,14.3L38.55,12Zm-1,14.9A14.82,14.82,0,1,1,23.82,12.66,14.82,14.82,0,0,1,38.64,27.47Z"/></svg>