<?xml version="1.0" encoding="utf-8"?>
<!-- Generator: Adobe Illustrator 21.1.0, SVG Export Plug-In . SVG Version: 6.00 Build 0)  -->
<svg version="1.0" id="Layer_1" xmlns="http://www.w3.org/2000/svg" xmlns:xlink="http://www.w3.org/1999/xlink" x="0px" y="0px"
	 viewBox="0 0 48 48" style="enable-background:new 0 0 48 48;" xml:space="preserve">
<style type="text/css">
	.st0{fill:#FFFFFF;}
</style>
<path class="st0" d="M26.6,46.2c-13.5,0-22-8.9-21.5-19.7C5.6,15.6,14.9,7.8,26.3,8.9c3.9,0.4,4.7-0.6,4-4.4
	c-0.1-0.7,0.1-1.9,0.7-2.3c0.5-0.4,1.7-0.3,2.3,0c2.6,1.4,5.2,2.8,7.7,4.4c0.7,0.4,1.4,1.6,1.3,2.2c-0.1,0.7-1.2,1.4-2,1.7
	c-3.1,1-3.7,2.8-1.7,5.5c4.7,6.3,5.6,13.1,2.1,20.1C37.3,42.7,31.6,46.1,26.6,46.2z M9.7,22.4c4.1,1.9,7.9,3.7,11.8,5.3
	c0.9,0.4,2.1,0.1,3.1-0.1c3.9-0.9,7.8-2.1,11.8-2.9c2-0.4,2.6-1.1,1.8-3.1c-2.1-5.5-8.3-9.8-14.5-9.7C17.2,12,11.4,16.4,9.7,22.4z"
	/>
</svg>
