<?xml version="1.0" encoding="UTF-8" standalone="no"?>
<!-- Created with Inkscape (http://www.inkscape.org/) -->

<svg
   xmlns:dc="http://purl.org/dc/elements/1.1/"
   xmlns:cc="http://creativecommons.org/ns#"
   xmlns:rdf="http://www.w3.org/1999/02/22-rdf-syntax-ns#"
   xmlns:svg="http://www.w3.org/2000/svg"
   xmlns="http://www.w3.org/2000/svg"
   xmlns:sodipodi="http://sodipodi.sourceforge.net/DTD/sodipodi-0.dtd"
   xmlns:inkscape="http://www.inkscape.org/namespaces/inkscape"
   version="1.1"
   xml:space="preserve"
   width="48"
   height="48" >
     <g
     style="display:inline"
     transform="matrix(1.3333333,0,0,-1.3333333,-164.47567,1758.6171)"><g
       style="stroke:none;stroke-opacity:1;stroke-width:1.00135806;stroke-miterlimit:4;stroke-dasharray:none;fill:#ffffff;fill-opacity:1"
       transform="matrix(0.2097152,0,0,0.2097152,110.26684,1035.0347)"><g
         style="stroke:none;stroke-opacity:1;stroke-width:1.00135806;stroke-miterlimit:4;stroke-dasharray:none;fill:#ffffff;fill-opacity:1"><g
           style="stroke:none;stroke-opacity:1;stroke-width:1.00135806;stroke-miterlimit:4;stroke-dasharray:none;fill:#ffffff;fill-opacity:1"><g
             style="stroke:none;stroke-opacity:1;stroke-width:1.00135806;stroke-miterlimit:4;stroke-dasharray:none;fill:#ffffff;fill-opacity:1"><path
               d="m 109.338,1315.254 c -6.217,-17.624 3.031,-36.929 20.652,-43.141 v 0 c 17.617,-6.21 36.934,3.026 43.14,20.648 v 0 c 6.209,17.621 -3.036,36.93 -20.648,43.143 v 0 c -3.72,1.311 -7.515,1.934 -11.247,1.934 v 0 c -13.941,-10e-4 -26.993,-8.685 -31.897,-22.584"
               style="fill:#ffffff;stroke:none;stroke-opacity:1;stroke-width:1.00135806;stroke-miterlimit:4;stroke-dasharray:none;fill-opacity:1"
               /></g></g></g></g><g
       style="fill:#ffffff;fill-opacity:1"
       transform="matrix(0.2097152,0,0,0.2097152,110.26684,1035.0347)"><g
         style="fill:#ffffff;fill-opacity:1"><g
           style="fill:#ffffff;fill-opacity:1"><g
             style="fill:#ffffff;fill-opacity:1"><path
               d="m 141.197,1260.564 c -18.684,-0.068 -33.809,-5.392 -33.787,-11.905 v 0 c 0.018,-6.493 15.183,-11.703 33.865,-11.639 v 0 c 18.674,0.062 33.797,5.389 33.779,11.894 v 0 c -0.025,6.462 -15.01,11.651 -33.531,11.651 v 0 c -0.108,0 -0.217,0 -0.326,-10e-4"
               style="fill:#ffffff;stroke:none;fill-opacity:1"
               /></g></g></g></g><g
       style="fill:#ffffff;fill-opacity:1"
       transform="matrix(0.2097152,0,0,0.2097152,110.26684,1035.0347)"><g
         style="fill:#ffffff;fill-opacity:1"><g
           style="fill:#ffffff;fill-opacity:1"><g
             style="fill:#ffffff;fill-opacity:1"><path
               d="m 107.415,1222.763 v -2.032 c 0,-0.943 15.144,-1.887 33.826,-1.887 v 0 c 18.678,0 33.819,0.944 33.819,1.887 v 0 2.032 c 0,0.954 -15.141,1.896 -33.819,1.896 v 0 c -18.682,0 -33.826,-0.942 -33.826,-1.896"
               style="fill:#ffffff;stroke:none;fill-opacity:1"
               /></g></g></g></g></g>
         </svg>
