<?xml version="1.0" encoding="UTF-8"?>
<svg version="1.1" viewBox="0 0 48 48" xmlns="http://www.w3.org/2000/svg">
    <path d="m46 23.478a22 22 0 0 0-2.4844-9.5898l-5.2109 3.0098a16 16 0 0 1 1.7012 7.0996 16 16 0 0 1-15 15.963v5.9883a22 22 0 0 0 18.053-10.951 22 22 0 0 0 2.9414-11.52zm-3.4844-11.322a22 22 0 0 0-18.51-10.158 22 22 0 0 0-18.531 10.146l5.2305 3.0195a16 16 0 0 1 13.301-7.166 16 16 0 0 1 13.305 7.1641zm-19.51 27.791a16 16 0 0 1-15-15.949 16 16 0 0 1 1.6992-7.1016l-5.209-3.0078a22 22 0 0 0 0.45703 21.109 22 22 0 0 0 18.053 10.975z" fill="#fff"/>
    <text x="17.240685" y="31.328001" fill="#ffffff" font-family="Cantarell" font-size="21.333px" font-weight="bold" letter-spacing="0px" word-spacing="0px" style="font-feature-settings:normal;font-variant-caps:normal;font-variant-ligatures:normal;font-variant-numeric:normal;line-height:1.25" xml:space="preserve"><tspan x="17.240685" y="31.328001">$</tspan></text>
</svg>
