<?xml version="1.0" encoding="UTF-8" standalone="no"?>
<!-- Created with Inkscape (http://www.inkscape.org/) -->

<svg
   xmlns:dc="http://purl.org/dc/elements/1.1/"
   xmlns:cc="http://creativecommons.org/ns#"
   xmlns:rdf="http://www.w3.org/1999/02/22-rdf-syntax-ns#"
   xmlns:svg="http://www.w3.org/2000/svg"
   xmlns="http://www.w3.org/2000/svg"
   xmlns:sodipodi="http://sodipodi.sourceforge.net/DTD/sodipodi-0.dtd"
   xmlns:inkscape="http://www.inkscape.org/namespaces/inkscape"
   width="48"
   height="48"
   viewBox="0 0 12.7 12.7"
   version="1.1"
   id="svg32"
   inkscape:version="0.92.3 (2405546, 2018-03-11)"
   sodipodi:docname="busybox.svg">
  <defs
     id="defs26" />
  <sodipodi:namedview
     id="base"
     pagecolor="#ffffff"
     bordercolor="#666666"
     borderopacity="1.0"
     inkscape:pageopacity="0.0"
     inkscape:pageshadow="2"
     inkscape:zoom="20.48"
     inkscape:cx="21.073846"
     inkscape:cy="20.739773"
     inkscape:document-units="mm"
     inkscape:current-layer="layer1"
     showgrid="false"
     units="px"
     inkscape:window-width="2560"
     inkscape:window-height="1385"
     inkscape:window-x="1920"
     inkscape:window-y="27"
     inkscape:window-maximized="1"
     inkscape:pagecheckerboard="true" />
  <metadata
     id="metadata29">
    <rdf:RDF>
      <cc:Work
         rdf:about="">
        <dc:format>image/svg+xml</dc:format>
        <dc:type
           rdf:resource="http://purl.org/dc/dcmitype/StillImage" />
        <dc:title></dc:title>
      </cc:Work>
    </rdf:RDF>
  </metadata>
  <g
     inkscape:label="Layer 1"
     inkscape:groupmode="layer"
     id="layer1">
    <path
       style="fill:#ffffff;stroke-width:0.04216135"
       id="path45"
       inkscape:connector-curvature="0"
       d="m 3.8612736,10.877881 c -0.9162238,-0.24704 -1.6990732,-0.46213 -1.7396654,-0.47797 -0.068701,-0.0268 -0.073804,-0.1543 -0.073804,-1.8438501 0,-1.41418 -0.011643,-1.8191 -0.052717,-1.83336 -0.4738044,-0.1645 -0.5377147,-0.1989 -0.5377147,-0.28941 0,-0.09 0.1151825,-0.51391 0.4396007,-1.61802 l 0.1517286,-0.51638 -0.5970553,-0.89358 c -0.3283804,-0.49147 -0.60541918,-0.92554 -0.61564158,-0.96461 -0.0102224,-0.0391 0.003007,-0.0844 0.0293982,-0.10067 0.0263914,-0.0163 1.07658848,-0.23653 2.33377138,-0.4894 1.2571829,-0.25287 2.307665,-0.46798 2.3344048,-0.47801 0.082095,-0.0308 0.1471943,0.0527 0.7308169,0.93713 l 0.5647038,0.85579 0.7431745,-0.74188 0.743175,-0.74188 0.8410495,0.23194 c 1.694144,0.46719 2.361415,0.65692 2.454193,0.69783 0.05219,0.023 0.09489,0.0762 0.09489,0.11828 0,0.0455 -0.31601,0.36362 -0.781296,0.78644 -0.429712,0.39049 -0.79045,0.72479 -0.801638,0.74289 -0.01119,0.0181 0.379938,0.43175 0.86917,0.91924 0.612678,0.6105 0.885115,0.91001 0.875382,0.96237 -0.01144,0.0615 -0.188893,0.12011 -0.931348,0.30741 l -0.917219,0.23139 v 1.84549 1.8454901 l -0.09489,0.0355 c -0.05219,0.0195 -0.3890524,0.0965 -0.7485833,0.17098 -0.3595308,0.0745 -1.3230946,0.27618 -2.1412527,0.44816 -0.8181581,0.17198 -1.4918831,0.31025 -1.4971666,0.30727 -0.00528,-0.003 -0.759244,-0.20755 -1.6754677,-0.45459 z M 5.4638744,8.6740709 c 0,-1.30282 -0.01519,-2.35075 -0.033754,-2.32873 -0.018565,0.022 -0.1057628,0.33794 -0.1937726,0.70204 -0.08801,0.3641 -0.1836142,0.68157 -0.2124539,0.70549 -0.037629,0.0312 -0.4265162,-0.092 -1.377198,-0.43622 l -1.3247621,-0.47971 -0.011033,1.66693 c -0.00607,0.9168 -0.00247,1.6754801 0.00799,1.6859301 0.017462,0.0174 3.0413088,0.843 3.1133545,0.84998 0.017397,0.002 0.03163,-1.0628801 0.031629,-2.3657101 z M 3.7904877,10.089441 c -0.037682,-0.016 -0.036136,-0.0688 0.00639,-0.2187301 0.030851,-0.10874 0.067728,-0.26573 0.081949,-0.34888 l 0.025855,-0.15118 -0.2328113,-0.0558 c -0.1280463,-0.0307 -0.2403059,-0.048 -0.2494657,-0.0385 -0.00916,0.01 -0.051754,0.15958 -0.094654,0.33344 -0.07316,0.2965 -0.084543,0.31521 -0.1834343,0.30146 -0.057989,-0.008 -0.113251,-0.0222 -0.1228047,-0.0314 -0.00955,-0.009 0.021154,-0.169 0.06824,-0.35509 0.047085,-0.18609 0.073736,-0.34568 0.059223,-0.35465 -0.014513,-0.009 -0.1021552,-0.03 -0.1947607,-0.0467 -0.2424487,-0.0439 -0.3159816,-0.0928 -0.3159816,-0.21051 0,-0.12343 -0.019136,-0.12128 0.2970423,-0.0334 0.2781091,0.0773 0.3168083,0.0625 0.3499494,-0.13369 0.011748,-0.0695 0.034168,-0.18559 0.049821,-0.25788 0.028346,-0.1309 0.02747,-0.13166 -0.2181986,-0.19134 -0.2299609,-0.0559 -0.2475322,-0.0688 -0.2595667,-0.19112 l -0.012908,-0.13119 0.1605163,0.0543 c 0.2449584,0.0829 0.4343897,0.11663 0.4369427,0.0778 0.00126,-0.0192 0.035962,-0.16773 0.077107,-0.33 0.068952,-0.27194 0.082807,-0.29389 0.176941,-0.28038 0.056172,0.008 0.1102871,0.0225 0.1202556,0.0322 0.00997,0.01 -0.013997,0.15477 -0.053258,0.32253 -0.03926,0.16777 -0.071139,0.31852 -0.070842,0.33501 4.589e-4,0.0255 0.3890117,0.15969 0.4622393,0.15969 0.013559,0 0.060722,-0.1513 0.1048063,-0.33623 0.077819,-0.32644 0.083329,-0.33547 0.1891052,-0.31019 0.059923,0.0143 0.1140689,0.0301 0.1203246,0.035 0.012938,0.0102 -0.1047005,0.53085 -0.1417256,0.62727 -0.017957,0.0468 0.023428,0.0756 0.158458,0.11054 0.1005193,0.026 0.2159741,0.0569 0.2565662,0.0686 0.04784,0.0139 0.073804,0.0633 0.073804,0.14059 v 0.11919 l -0.2592945,-0.0806 c -0.142612,-0.0444 -0.2666951,-0.0733 -0.2757397,-0.0642 -0.041543,0.0415 -0.1479078,0.49315 -0.128219,0.54442 0.012165,0.0317 0.1284164,0.0814 0.258338,0.11044 0.2195757,0.0491 0.2362204,0.0613 0.2362204,0.17359 v 0.12075 l -0.2749924,-0.0762 c -0.178178,-0.0494 -0.2842733,-0.0612 -0.3013547,-0.0336 -0.0145,0.0234 -0.057937,0.168 -0.096527,0.32123 C 4.0040085,10.094121 3.9421694,10.153781 3.7904842,10.089581 Z M 4.0455193,8.8630609 c 0.035535,-0.1557 0.060807,-0.28609 0.05616,-0.28975 -0.042041,-0.0332 -0.4555531,-0.1283 -0.4675055,-0.10756 -0.055824,0.0969 -0.151886,0.52902 -0.1236456,0.55627 0.039226,0.0378 0.2944746,0.11462 0.4000201,0.12032 0.053181,0.003 0.086138,-0.0653 0.134971,-0.27928 z m 1.8952208,2.1384501 c 0.097255,-0.0227 0.9549317,-0.20321 1.9059487,-0.40105 0.9510171,-0.19783 1.7718229,-0.36926 1.8240129,-0.38095 l 0.094891,-0.0213 V 8.4709109 c 0,-0.95002 -0.01003,-1.72731 -0.022289,-1.72731 -0.023393,0 -2.185207,0.53685 -2.3007343,0.57135 -0.045472,0.0136 -0.3263254,-0.26223 -0.8816295,-0.8658 -0.4481943,-0.48714 -0.830941,-0.88572 -0.8505475,-0.88572 -0.041711,0 -0.049186,5.4096401 -0.00753,5.4512701 0.035469,0.0355 0.027797,0.0359 0.2378812,-0.0132 z m 0.282261,-1.1773401 c 0,-0.27371 0.00746,-0.29874 0.094891,-0.31824 0.1181273,-0.0263 1.8249334,-0.34973 2.1403156,-0.40552 0.2567561,-0.0454 0.6134899,-0.1192 0.7274964,-0.15046 0.065224,-0.0179 0.073804,0.0143 0.073804,0.27685 0,0.2738 -0.00744,0.29871 -0.094891,0.31795 -0.1649195,0.0363 -0.69521,0.13832 -1.7607523,0.33883 -0.5682907,0.10694 -1.0664676,0.2041601 -1.1070598,0.2160501 -0.065355,0.0192 -0.073804,-0.0124 -0.073804,-0.2754601 z m -1.0734106,-3.42548 c 0.1471951,-0.58687 0.2544027,-1.07906 0.2382388,-1.09376 -0.033718,-0.0307 -3.1022663,-0.87825 -3.1190086,-0.86152 -0.019984,0.02 -0.548584,1.89955 -0.5377091,1.91197 0.023167,0.0264 3.1222124,1.13763 3.1360475,1.12445 0.00814,-0.008 0.1352363,-0.49428 0.2824314,-1.08114 z m 4.3542302,0.14819 1.9945213,-0.4948 -0.82139,-0.8209 -0.8213899,-0.82091 -0.4140049,0.091 c -0.2277026,0.0501 -0.8979478,0.19576 -1.4894341,0.32377 -1.6966364,0.36717 -2.0865361,0.45388 -2.1026174,0.4676 -0.00826,0.007 0.3048797,0.35648 0.6958662,0.77652 0.3909869,0.42005 0.7478022,0.81002 0.7929235,0.86661 0.045121,0.0566 0.1020557,0.10357 0.1265211,0.10439 0.024465,8.2e-4 0.9420176,-0.22117 2.0390042,-0.49331 z m -6.3862598,-2.58414 c 0.4670308,-0.0922 1.4261984,-0.2817 2.1314832,-0.42105 0.7052852,-0.13935 1.2912134,-0.26223 1.3020626,-0.27308 0.020487,-0.0205 -0.2169424,-0.40291 -0.7210034,-1.16135 -0.161772,-0.24341 -0.2995868,-0.44919 -0.3062558,-0.45729 -0.011393,-0.0138 -4.1945617,0.81954 -4.3097731,0.8586 -0.034152,0.0116 0.139952,0.30829 0.4811642,0.82 0.2940742,0.44101 0.5433418,0.80184 0.5539279,0.80184 0.010586,0 0.4013636,-0.0754 0.8683944,-0.16767 z m 7.1186371,-0.15898 c 0.194723,-0.17966 0.520722,-0.47701 0.724442,-0.66077 0.255152,-0.23015 0.353216,-0.34351 0.315172,-0.3643 -0.07896,-0.0432 -2.7851669,-0.79788 -2.8609771,-0.79788 -0.065254,0 -1.380232,1.29017 -1.3463484,1.32095 0.018441,0.0168 2.7331439,0.82164 2.7870182,0.82633 0.014659,10e-4 0.1859703,-0.14467 0.3806933,-0.32433 z" />
  </g>
</svg>
