<?xml version="1.0" encoding="UTF-8" standalone="no"?>
<svg
   xmlns:dc="http://purl.org/dc/elements/1.1/"
   xmlns:cc="http://creativecommons.org/ns#"
   xmlns:rdf="http://www.w3.org/1999/02/22-rdf-syntax-ns#"
   xmlns:svg="http://www.w3.org/2000/svg"
   xmlns="http://www.w3.org/2000/svg"
   id="svg4"
   version="1.1"
   viewBox="0 0 48 48">
  <metadata
     id="metadata10">
    <rdf:RDF>
      <cc:Work
         rdf:about="">
        <dc:format>image/svg+xml</dc:format>
        <dc:type
           rdf:resource="http://purl.org/dc/dcmitype/StillImage" />
        <dc:title></dc:title>
      </cc:Work>
    </rdf:RDF>
  </metadata>
  <defs
     id="defs8" />
  <path
     id="path4576"
     d="m 6,11.659507 c -1.108,0 -2,0.892 -2,2 v 23.396 c 0,1.108 0.892,2 2,2 h 36 c 1.108,0 2,-0.892 2,-2 v -23.396 c 0,-1.108 -0.892,-2 -2,-2 z m 8.5664,6.2188 h 18.867 c 1.108,0 2,0.892 2,2 v 2.6172 c 0,1.108 -0.892,2 -2,2 h -18.867 c -1.108,0 -2,-0.892 -2,-2 v -2.6172 c 0,-1.108 0.892,-2 2,-2 z"
     style="fill:#ffffff;stroke-width:0.9253" />
  <rect
     rx="2"
     y="8.9444923"
     x="8.674448"
     height="6.9257808"
     width="30.651104"
     id="rect4643"
     style="opacity:1;fill:#ffffff;fill-opacity:1;stroke:none;stroke-width:3.0467267;stroke-linecap:round;stroke-linejoin:round;stroke-miterlimit:4;stroke-dasharray:none;stroke-opacity:1" />
</svg>
