<?xml version="1.0" encoding="utf-8"?>
<!-- Generator: Adobe Illustrator 21.1.0, SVG Export Plug-In . SVG Version: 6.00 Build 0)  -->
<svg version="1.0" id="Layer_1" xmlns="http://www.w3.org/2000/svg" xmlns:xlink="http://www.w3.org/1999/xlink" x="0px" y="0px"
	 viewBox="0 0 48 48" style="enable-background:new 0 0 48 48;" xml:space="preserve">
<style type="text/css">
	.st0{fill:#FFFFFF;}
</style>
<g>
	<path class="st0" d="M41,5H7C5.9,5,5,5.9,5,7v34c0,1.1,0.9,2,2,2h34c1.1,0,2-0.9,2-2V7C43,5.9,42.1,5,41,5z M15,27.6
		c0.4,0.6,1,0.9,1.7,0.9c1.3,0,2-0.9,2.2-2.6l4.5,0.3c-0.2,2-0.9,3.5-2.2,4.5s-2.8,1.6-4.6,1.6c-2.2,0-3.9-0.7-5.3-2.2s-2-3.4-2-6
		c0-2.5,0.6-4.5,1.9-6.1s3-2.3,5.3-2.3c2.1,0,3.7,0.6,4.9,1.8s1.8,2.7,1.9,4.7l-4.6,0.2c0-1.1-0.2-1.8-0.6-2.3s-0.9-0.7-1.4-0.7
		c-1.5,0-2.3,1.6-2.3,4.7C14.4,25.8,14.6,27,15,27.6z M33.7,32l-0.9-3.2h-4.3l-1,3.2h-4l4.9-16h5.2l5,16H33.7z"/>
	<polygon class="st0" points="29.3,25.4 31.9,25.4 30.6,20.7 	"/>
</g>
</svg>
