<?xml version="1.0" encoding="utf-8"?>
<!-- Generator: Adobe Illustrator 21.1.0, SVG Export Plug-In . SVG Version: 6.00 Build 0)  -->
<svg version="1.0" id="Layer_1" xmlns="http://www.w3.org/2000/svg" xmlns:xlink="http://www.w3.org/1999/xlink" x="0px" y="0px"
	 viewBox="0 0 48 48" style="enable-background:new 0 0 48 48;" xml:space="preserve">
<style type="text/css">
	.st0{fill:#FFFFFF;}
</style>
<g>
	<path class="st0" d="M24.2,42.7C14,42.7,5.7,34.4,5.8,24.1C5.8,14,14.1,5.7,24.3,5.7s18.4,8.4,18.4,18.6
		C42.7,34.5,34.4,42.7,24.2,42.7z M24.2,25.1c3.5,0,7,0,10.5,0c0.8,0,1.1-0.2,1.1-1s-0.4-0.9-1-0.9c-7,0-14,0-21,0
		c-0.7,0-1.1,0.1-1.1,1s0.5,1,1.2,1C17.3,25.1,20.8,25.1,24.2,25.1z M24.2,21.5c2.8,0,2.8,0,2.8-2.8c0-2.7,0-2.7-2.8-2.7
		s-2.8,0-2.8,2.8C21.4,21.5,21.4,21.5,24.2,21.5z M21.4,32.4c1.8,0,3.3,0,4.9,0c0.2,0,0.6-0.4,0.6-0.6c0.1-1.4,0.1-2.8,0-4.2
		c0-0.2-0.4-0.6-0.7-0.6c-1.4-0.1-2.8-0.1-4.2,0c-0.2,0-0.6,0.4-0.6,0.6C21.4,29,21.4,30.6,21.4,32.4z"/>
</g>
</svg>
