<svg xmlns="http://www.w3.org/2000/svg" viewBox="0 0 48 48"><defs><style>.a{fill:#fff;}</style></defs><path class="a" d="M30.39,22.66a2.05,2.05,0,0,0-1.68.74,3.29,3.29,0,0,0-.61,2.14,2.92,2.92,0,0,0,.55,1.88,2,2,0,0,0,1.67.7,2.57,2.57,0,0,0,1.81-.69,2.11,2.11,0,0,0,.75-1.59,3.62,3.62,0,0,0-.7-2.26A2.16,2.16,0,0,0,30.39,22.66Z"/><path class="a" d="M40.5,4.5H7.5a2,2,0,0,0-2,2v35a2,2,0,0,0,2,2h33a2,2,0,0,0,2-2V6.5A2,2,0,0,0,40.5,4.5ZM32.2,8.58h0a2.51,2.51,0,0,1,2.51,2.51h0A2.52,2.52,0,1,1,32.2,8.58ZM13.29,11.09A2.51,2.51,0,0,1,15.8,8.58h0a2.51,2.51,0,1,1-2.51,2.51Zm7.08,25.4H16.9V27l0-1.56,0-1.7c-.57.57-1,1-1.2,1.13L13.9,26.37l-1.67-2.09,5.29-4.21h2.85Zm13.92-2.17q-2.05,2.38-6.19,2.39a11.14,11.14,0,0,1-2.21-.16V33.77a7.93,7.93,0,0,0,2,.23,7,7,0,0,0,2.87-.51,3.61,3.61,0,0,0,1.72-1.6,7.21,7.21,0,0,0,.68-3H33a3.8,3.8,0,0,1-1.51,1.48,4.67,4.67,0,0,1-2.13.43A4.3,4.3,0,0,1,26,29.4a5.47,5.47,0,0,1-1.24-3.82,5.7,5.7,0,0,1,1.5-4.17,5.45,5.45,0,0,1,4.08-1.53,5.87,5.87,0,0,1,3.19.85,5.46,5.46,0,0,1,2.09,2.48,9.3,9.3,0,0,1,.73,3.86C36.33,30.31,35.65,32.72,34.29,34.32Z"/></svg>