<svg xmlns="http://www.w3.org/2000/svg" viewBox="0 0 48 48"><defs><style>.a{fill:#fff;}</style></defs><path class="a" d="M30.46,25.84l-3,4.55H31.4V27.6c0-.46,0-1.14.06-2s.06-1.4.09-1.54h-.09A12.25,12.25,0,0,1,30.46,25.84Z"/><path class="a" d="M40.5,4.5H7.5a2,2,0,0,0-2,2v35a2,2,0,0,0,2,2h33a2,2,0,0,0,2-2V6.5A2,2,0,0,0,40.5,4.5ZM32.2,8.58h0a2.51,2.51,0,0,1,2.51,2.51h0A2.52,2.52,0,1,1,32.2,8.58ZM13.29,11.09A2.51,2.51,0,0,1,15.8,8.58h0a2.51,2.51,0,1,1-2.51,2.51Zm7.08,25.4H16.9V27l0-1.56,0-1.7c-.57.57-1,1-1.2,1.13L13.9,26.37l-1.67-2.09,5.29-4.21h2.85Zm16.4-3.41h-2v3.41H31.4V33.08h-7V30.67l7.2-10.6h3.2V30.39h2Z"/></svg>