<svg xmlns="http://www.w3.org/2000/svg" viewBox="0 0 48 48"><defs><style>.a{fill:#fff;}</style></defs><path class="a" d="M24,26.37a4.58,4.58,0,0,0,1.54-1.06A1.92,1.92,0,0,0,26,24.06a1.47,1.47,0,0,0-.56-1.22A2.21,2.21,0,0,0,24,22.39a2.14,2.14,0,0,0-1.43.46A1.5,1.5,0,0,0,22,24.06a1.85,1.85,0,0,0,.43,1.21A4.77,4.77,0,0,0,24,26.37Z"/><path class="a" d="M40.5,4.5H7.5a2,2,0,0,0-2,2v35a2,2,0,0,0,2,2h33a2,2,0,0,0,2-2V6.5A2,2,0,0,0,40.5,4.5ZM15.8,13.6a2.51,2.51,0,0,1-2.51-2.51h0A2.51,2.51,0,0,1,15.8,8.58h0a2.51,2.51,0,1,1,0,5ZM28.18,35.48A6.58,6.58,0,0,1,24,36.71a6.93,6.93,0,0,1-4.24-1.15,3.81,3.81,0,0,1-1.54-3.24A4.26,4.26,0,0,1,19,29.83a6.16,6.16,0,0,1,2.4-1.92,6.22,6.22,0,0,1-2-1.9,4.19,4.19,0,0,1-.62-2.21,3.42,3.42,0,0,1,1.46-2.86A6.24,6.24,0,0,1,24,19.85a6.18,6.18,0,0,1,3.8,1.08,3.4,3.4,0,0,1,1.44,2.89,3.81,3.81,0,0,1-.69,2.24,6.11,6.11,0,0,1-2.25,1.76A7.69,7.69,0,0,1,29,29.88a3.81,3.81,0,0,1,.81,2.35A3.9,3.9,0,0,1,28.18,35.48Zm6.53-24.39A2.52,2.52,0,1,1,32.2,8.58h0a2.51,2.51,0,0,1,2.51,2.51Z"/><path class="a" d="M23.85,29.33c-1.6.74-2.39,1.66-2.39,2.79a1.81,1.81,0,0,0,.67,1.5,2.86,2.86,0,0,0,1.84.54,2.82,2.82,0,0,0,1.93-.56,1.82,1.82,0,0,0,.64-1.46,2,2,0,0,0-.63-1.41A8.21,8.21,0,0,0,23.85,29.33Z"/></svg>