<svg xmlns="http://www.w3.org/2000/svg" viewBox="0 0 48 48"><defs><style>.a{fill:#fff;}</style></defs><path class="a" d="M40.5,4.5H7.5a2,2,0,0,0-2,2v35a2,2,0,0,0,2,2h33a2,2,0,0,0,2-2V6.5A2,2,0,0,0,40.5,4.5ZM15.8,13.6a2.51,2.51,0,0,1-2.51-2.51h0A2.51,2.51,0,0,1,15.8,8.58h0a2.51,2.51,0,1,1,0,5ZM30.19,33.08h-2v3.41H24.82V33.08h-7V30.67L25,20.07h3.2V30.39h2Zm4.52-22A2.52,2.52,0,1,1,32.2,8.58h0a2.51,2.51,0,0,1,2.51,2.51Z"/><path class="a" d="M23.88,25.84l-3,4.55h3.95V27.6c0-.46,0-1.14.06-2s.06-1.4.09-1.54h-.09A12.25,12.25,0,0,1,23.88,25.84Z"/></svg>