<?xml version="1.0" encoding="utf-8"?>
<!-- Generator: Adobe Illustrator 21.1.0, SVG Export Plug-In . SVG Version: 6.00 Build 0)  -->
<svg version="1.0" id="Layer_1" xmlns="http://www.w3.org/2000/svg" xmlns:xlink="http://www.w3.org/1999/xlink" x="0px" y="0px"
	 viewBox="0 0 48 48" style="enable-background:new 0 0 48 48;" xml:space="preserve">
<style type="text/css">
	.st0{fill:#FFFFFF;}
</style>
<path class="st0" d="M41,5H7C5.9,5,5,5.9,5,7v34c0,1.1,0.9,2,2,2h34c1.1,0,2-0.9,2-2V7C43,5.9,42.1,5,41,5z M11.9,10.6
	c-0.7,0-1.3-0.6-1.3-1.3S11.2,8,11.9,8c0.7,0,1.3,0.6,1.3,1.3S12.6,10.6,11.9,10.6z M18,32.9v-9.5h-1.8l3.9-7.4l3.9,7.4h-1.7v9.5H18
	z M27.9,32.9L24,25.5h1.7V16H30v9.5h1.8L27.9,32.9z M36,10.6c-0.7,0-1.3-0.6-1.3-1.3S35.3,8,36,8s1.3,0.6,1.3,1.3S36.7,10.6,36,10.6
	z"/>
</svg>
