<?xml version="1.0" encoding="UTF-8" standalone="no"?>
<svg
   xmlns:dc="http://purl.org/dc/elements/1.1/"
   xmlns:cc="http://creativecommons.org/ns#"
   xmlns:rdf="http://www.w3.org/1999/02/22-rdf-syntax-ns#"
   xmlns:svg="http://www.w3.org/2000/svg"
   xmlns="http://www.w3.org/2000/svg"
   xmlns:sodipodi="http://sodipodi.sourceforge.net/DTD/sodipodi-0.dtd"
   xmlns:inkscape="http://www.inkscape.org/namespaces/inkscape"
   version="1.1"
   viewBox="0 0 48 48"
   id="svg2"
   inkscape:version="0.91 r13725"
   sodipodi:docname="callabike.svg">
  <metadata
     id="metadata10">
    <rdf:RDF>
      <cc:Work
         rdf:about="">
        <dc:format>image/svg+xml</dc:format>
        <dc:type
           rdf:resource="http://purl.org/dc/dcmitype/StillImage" />
      </cc:Work>
    </rdf:RDF>
  </metadata>
  <defs
     id="defs8" />
  <sodipodi:namedview
     pagecolor="#ffffff"
     bordercolor="#666666"
     borderopacity="1"
     objecttolerance="10"
     gridtolerance="10"
     guidetolerance="10"
     inkscape:pageopacity="0"
     inkscape:pageshadow="2"
     inkscape:window-width="1366"
     inkscape:window-height="715"
     id="namedview6"
     showgrid="false"
     inkscape:zoom="9.8333333"
     inkscape:cx="26.415349"
     inkscape:cy="21.2871"
     inkscape:window-x="0"
     inkscape:window-y="27"
     inkscape:window-maximized="1"
     inkscape:current-layer="svg2" />
  <path
     style="fill:#ffffff"
     d="M 7 5 C 5.892 5 5 5.892 5 7 L 5 41 C 5 42.108 5.892 43 7 43 L 41 43 C 42.108 43 43 42.108 43 41 L 43 7 C 43 5.892 42.108 5 41 5 L 7 5 z M 24.892578 8.03125 L 28.865234 8.03125 C 30.291034 8.03125 31.322384 8.27131 31.958984 8.75 C 32.600624 9.22869 32.921875 9.9948281 32.921875 11.048828 C 32.921875 11.603898 32.802619 12.078503 32.568359 12.470703 C 32.339199 12.857723 32.000824 13.143611 31.552734 13.332031 C 32.123074 13.515361 32.5643 13.853726 32.875 14.347656 C 33.1857 14.841586 33.341807 15.449969 33.341797 16.167969 C 33.341797 17.267969 33.004251 18.087153 32.332031 18.626953 C 31.664941 19.166743 30.648003 19.4375 29.283203 19.4375 L 24.892578 19.4375 L 24.892578 8.03125 z M 14.658203 8.0332031 L 17.453125 8.0332031 C 19.011425 8.0332031 20.168934 8.15673 20.927734 8.40625 C 21.691584 8.65069 22.345825 9.0674431 22.890625 9.6582031 C 23.374395 10.172533 23.73453 10.767253 23.96875 11.439453 C 24.203 12.111643 24.322266 12.872156 24.322266 13.722656 C 24.322266 14.583266 24.20301 15.352097 23.96875 16.029297 C 23.7345 16.701487 23.374375 17.294294 22.890625 17.808594 C 22.340655 18.399304 21.681109 18.818759 20.912109 19.068359 C 20.143159 19.312789 18.991025 19.4375 17.453125 19.4375 L 14.658203 19.4375 L 14.658203 8.0332031 z M 27.544922 10.03125 L 27.544922 12.447266 L 29.003906 12.447266 C 29.421476 12.447266 29.739245 12.344325 29.953125 12.140625 C 30.172095 11.936925 30.279297 11.637434 30.279297 11.240234 C 30.279297 10.848124 30.172095 10.549393 29.953125 10.345703 C 29.739245 10.136923 29.421476 10.03125 29.003906 10.03125 L 27.544922 10.03125 z M 17.310547 10.255859 L 17.310547 17.214844 L 18.257812 17.214844 C 19.337412 17.214844 20.162122 16.914159 20.732422 16.318359 C 21.302762 15.722549 21.589844 14.858256 21.589844 13.722656 C 21.589844 12.592156 21.302752 11.731325 20.732422 11.140625 C 20.167172 10.549915 19.342513 10.255859 18.257812 10.255859 L 17.310547 10.255859 z M 27.544922 14.449219 L 27.544922 17.435547 L 29.095703 17.435547 C 29.630393 17.435547 30.030142 17.310077 30.294922 17.060547 C 30.564822 16.811017 30.701172 16.435771 30.701172 15.931641 C 30.701172 15.437691 30.564802 15.066726 30.294922 14.822266 C 30.030122 14.572726 29.630393 14.449219 29.095703 14.449219 L 27.544922 14.449219 z M 29.765625 21.845703 C 29.981055 21.869099 30.149731 22.025033 30.113281 22.367188 C 30.107687 22.497011 30.05725 22.543687 29.96875 22.671875 C 29.880249 22.800062 29.624227 22.925896 29.554688 23.103516 C 29.485108 23.281136 29.5625 23.652344 29.5625 23.652344 L 31.902344 29.140625 C 33.467256 28.739898 35.201042 29.005267 36.632812 30.021484 C 39.195214 31.840202 39.817329 35.361242 38.023438 37.888672 C 36.229548 40.416107 32.697167 40.994485 30.134766 39.175781 C 27.572366 37.357078 26.95025 33.830177 28.744141 31.302734 C 29.252866 30.585984 29.900386 30.025143 30.626953 29.632812 L 30.613281 29.601562 L 29.683594 27.517578 L 24.242188 35.287109 C 24.242188 35.287109 24.035805 35.552679 23.892578 35.630859 C 23.749531 35.708931 23.419922 35.736328 23.419922 35.736328 L 20.214844 35.625 C 20.087471 36.452606 19.774013 37.262942 19.257812 37.990234 C 18.13663 39.569877 16.335422 40.386794 14.517578 40.333984 C 13.426873 40.302286 12.330044 39.955453 11.369141 39.273438 C 8.8067405 37.454733 8.1807184 33.929785 9.9746094 31.402344 C 11.768498 28.87491 15.30088 28.304344 17.863281 30.123047 C 17.923751 30.165972 17.980763 30.211079 18.039062 30.255859 L 18.423828 29.851562 L 20.029297 28.087891 L 19.589844 26.830078 C 19.589844 26.830078 18.845913 26.833725 18.535156 26.609375 C 18.357707 26.481267 18.143943 26.313121 18.144531 26.083984 C 18.145131 25.854847 18.318966 25.634448 18.580078 25.439453 C 18.841191 25.244457 19.348904 25.167184 19.710938 25.121094 C 20.507319 25.040056 21.737827 25.209657 22.058594 25.304688 C 22.379361 25.399716 22.496456 25.586092 22.572266 25.759766 C 22.648076 25.93344 22.560547 26.214844 22.560547 26.214844 L 21.761719 26.378906 L 20.841797 26.580078 L 21.197266 27.505859 L 28.144531 24.083984 C 28.063311 23.815188 28.110947 23.5217 28.154297 23.253906 C 28.188828 23.087215 28.230319 22.913281 28.318359 22.767578 C 28.565807 22.388593 29.240942 21.944894 29.541016 21.865234 C 29.617738 21.845785 29.693815 21.837905 29.765625 21.845703 z M 28.603516 25.105469 C 26.316312 26.293567 23.995135 27.450343 21.748047 28.701172 L 23.730469 33.435547 L 23.859375 33.359375 L 28.986328 25.96875 L 28.603516 25.105469 z M 20.642578 29.433594 L 19.066406 31.269531 C 19.727419 32.113754 20.128534 33.112637 20.244141 34.144531 L 22.59375 34.099609 L 20.642578 29.433594 z M 33.357422 30.5625 C 33.083388 30.563981 32.809945 30.594097 32.542969 30.650391 L 33.974609 34.029297 C 33.974609 34.029297 34.267216 34.733366 33.689453 35 C 33.11169 35.266634 32.681641 34.427734 32.681641 34.427734 L 31.277344 31.154297 C 30.832759 31.426583 30.433429 31.789172 30.113281 32.240234 C 28.832685 34.04448 29.272579 36.557577 31.095703 37.851562 C 31.779377 38.336804 32.561274 38.582186 33.337891 38.603516 C 34.63225 38.639077 35.91447 38.053441 36.714844 36.925781 C 37.995439 35.121535 37.559453 32.612355 35.736328 31.318359 C 35.012403 30.804555 34.179524 30.558057 33.357422 30.5625 z M 14.710938 30.662109 C 13.421083 30.631417 12.144965 31.216503 11.347656 32.339844 C 10.06706 34.14409 10.506953 36.657173 12.330078 37.951172 C 13.01375 38.436415 13.791743 38.681795 14.568359 38.703125 C 15.862723 38.738687 17.146894 38.153051 17.947266 37.025391 C 18.267416 36.574329 18.481208 36.079651 18.591797 35.570312 L 14.939453 35.443359 C 14.939453 35.443359 14.269757 35.496013 14.056641 34.945312 C 13.909317 34.564624 14.392578 34.085938 14.392578 34.085938 L 16.947266 31.400391 C 16.264235 30.921884 15.48485 30.680525 14.710938 30.662109 z M 17.972656 32.443359 L 16.324219 34.216797 L 18.644531 34.175781 C 18.560137 33.56145 18.330588 32.967304 17.972656 32.443359 z "
     id="path4" />
</svg>
