<svg width="48" height="48" version="1.1" viewBox="0 0 48 48" xmlns="http://www.w3.org/2000/svg">
 <path d="m23.969 2.1953c-5.9819 0.013816-11.686 2.4952-15.785 6.8477l8.5313 14.777 12.139-21.025c-1.6023-0.37722-3.2383-0.59216-4.8848-0.59961zm5.2129 0.64844-8.5469 14.809h24.191c-2.2367-7.3534-8.1734-12.985-15.645-14.809zm-21.203 6.4395c-3.7034 4.0093-5.7813 9.2543-5.791 14.717 0.00149 2.1666 0.32827 4.3006 0.94922 6.3359 0.00173 0.0035 0.0023 0.0065 0.00391 0.0098h16.996zm20.053 8.6855 11.984 20.758c3.7085-4.0104 5.7873-9.2599 5.7969-14.727-0.0049-2.0423-0.30983-4.0707-0.88086-6.0312zm3.418 6.5215-12.004 20.791c1.5073 0.33134 3.0423 0.51948 4.5859 0.52539 5.9786-0.0098 11.681-2.4845 15.783-6.8301zm-28.141 6.1699c1.0499 3.2737 2.8413 6.2632 5.2656 8.7031l0.00195 2e-3 0.017578 0.01758h0.00195c2.8961 2.9069 6.5584 4.9229 10.557 5.8398l8.4102-14.562h-7.1523z" fill="#fff" style="paint-order:normal"/>
</svg>
