<?xml version="1.0" encoding="UTF-8"?>
<svg viewBox="0 0 48 48" xmlns="http://www.w3.org/2000/svg">
    <path d="M6.707 7.757v2.373h-2.6a2.01 2.01 0 0 0-2.012 2.014V38.23a2.01 2.01 0 0 0 2.013 2.012h39.785a2.01 2.01 0 0 0 2.012-2.013V12.143a2.01 2.01 0 0 0-2.013-2.014H15.456V7.757zm33.876 5.628a2.07 2.07 0 1 1 0 4.137 2.07 2.07 0 0 1 0-4.137zM24 16.98c5.28 0 9.562 4.282 9.563 9.563 0 5.282-4.28 9.563-9.562 9.564-5.28 0-9.562-4.282-9.56-9.564 0-5.28 4.28-9.56 9.56-9.56z" fill="#fff" paint-order="fill markers stroke"/>
</svg>
