<?xml version="1.0" encoding="utf-8"?>
<!-- Generator: Adobe Illustrator 21.1.0, SVG Export Plug-In . SVG Version: 6.00 Build 0)  -->
<svg version="1.0" id="Layer_1" xmlns="http://www.w3.org/2000/svg" xmlns:xlink="http://www.w3.org/1999/xlink" x="0px" y="0px"
	 viewBox="0 0 48 48" style="enable-background:new 0 0 48 48;" xml:space="preserve">
<style type="text/css">
	.st0{fill:#FFFFFF;}
</style>
<path class="st0" d="M22.8,2.3c1,0,1.5,0,2.2,0c2.4,0,3.4,0.3,3.8,0.4c8.8,2.3,14.4,7.9,16.4,16.8c0.1,0.4,0.3,1.6,0.3,2
	c0,2.3,0,2.3,0,4.5c0,0.6-0.2,2-0.3,2.4c-1.3,5.9-4.4,10.5-9.5,13.7c-4.9,3.1-10.3,4.1-16.1,2.9c-4.5-0.9-8.3-3-11.4-6.3
	c-5.1-5.6-7.1-12.2-5.4-19.7C4.7,10.8,9.9,5.5,18,3C18.8,2.7,21,2.3,22.8,2.3z M27.1,18.1c-0.9-0.5-1.7-0.2-2.4-1
	c-2.9-3.3-6.2-6.3-9.3-9.4c-0.5-0.5-1.1-0.6-1.7-0.2c-3.2,1.9-5.5,4.7-7.1,8C5.9,16.8,6,17,7.5,17c4.1,0,8.3,0,12.4,0
	c0.5,0,1.4-0.2,1.2,0.7c-0.1,0.6-0.7,1.1-1.6,0.9c-0.4-0.1-0.8-0.2-1.2-0.2c-3.8,0-7.6,0-11.4,0c-1.3,0-1.8,0.4-2,1.7
	c-0.5,3.4-0.4,6.8,0.8,10.1c0.5,1.4,0.7,1.4,1.7,0.4c2.9-2.8,5.7-5.7,8.5-8.5c0.3-0.3,0.5-0.5,0.8-0.8c0.2-0.1,0.4-0.3,0.6-0.2
	c0.3,0.2,0.2,0.4,0.2,0.7c-0.1,0.7-0.5,1.2-1,1.6c-2.9,2.8-5.7,5.7-8.5,8.5c-1,1-1.1,1.3-0.3,2.5c1.9,2.9,4.6,5.1,7.7,6.6
	c1.3,0.6,1.5,0.5,1.5-0.9c0-4,0-7.9,0-11.9c0-0.3,0-0.7,0-1c0-0.2,0.1-0.5,0.3-0.5c0.3,0,0.4,0.1,0.6,0.3c0.4,0.5,0.4,1.2,0.4,1.8
	c0,3.9,0,7.8,0,11.7c0,1.4,0.3,1.8,1.7,2c3.4,0.5,6.7,0.4,9.9-0.7c1.6-0.6,1.7-0.7,0.4-1.9c-2.7-2.7-5.5-5.5-8.2-8.2
	c-0.2-0.2-0.5-0.5-0.7-0.7c-0.2-0.2-0.3-0.4-0.2-0.6c0.1-0.3,0.4-0.3,0.7-0.3c0.7,0.1,1.1,0.5,1.6,1c2.8,2.8,5.7,5.7,8.5,8.5
	c0.6,0.6,1,0.9,1.9,0.4c3.2-2,5.6-4.7,7.3-8.2c0.5-1,0.3-1.3-0.8-1.3c-2.2,0-4.4,0-6.5,0c-2.1,0-4.2,0-6.3,0c-0.3,0-0.7,0-0.7-0.4
	c-0.1-0.3,0.2-0.5,0.5-0.7c0.5-0.3,1.1-0.3,1.8-0.3c3.9,0,7.8,0,11.7,0c1.1,0,1.7-0.4,1.9-1.5c0.5-3.4,0.5-6.7-0.6-10
	c-0.6-1.8-0.8-1.8-2.1-0.5c-2.7,2.7-5.5,5.5-8.2,8.2c-0.2,0.2-0.5,0.5-0.7,0.7c-0.2,0.2-0.4,0.3-0.6,0.2c-0.3-0.1-0.3-0.4-0.3-0.7
	c0-0.7,0.5-1.1,0.9-1.5c2.9-2.9,5.8-5.8,8.7-8.7c0.7-0.7,0.8-1.3,0.2-2.2c-1.9-3-4.5-5.2-7.7-6.8c-1.5-0.8-1.7-0.7-1.7,1
	c0,4.2,0,8.4,0,12.5c0,0.4,0.1,1-0.5,1c-0.5,0-0.8-0.5-0.9-1c0-0.3,0-0.5,0-0.8c0-4.3,0-8.6,0-12.9c0-0.9-0.5-1.3-1.3-1.5
	c-3.5-0.8-6.9-0.5-10.3,0.6c-1.7,0.5-1.8,0.8-0.5,2c2.8,2.9,5.7,5.7,8.5,8.5C26.4,16.6,26.9,17.1,27.1,18.1z"/>
</svg>
