<svg id="svg4" width="48" height="48" version="1.1" viewBox="0 0 48 48" xmlns="http://www.w3.org/2000/svg">
 <path id="path932" d="m11.814 2.0205c-5.3867 0-9.793 4.4069-9.793 9.7949v24.369c0 5.388 4.4063 9.7949 9.793 9.7949h24.371c5.3867 0 9.793-4.4069 9.793-9.7949v-24.369c0-5.388-4.4063-9.7949-9.793-9.7949zm-0.0013 0.82031h24.377c4.9333 0 8.9707 4.038 8.9707 8.9727v24.375c0 0.30665-0.01627 0.60757-0.04693 0.90624h-42.227c-0.030667-0.29867-0.046933-0.59959-0.046933-0.90624v-24.375c0-4.9347 4.038-8.9727 8.9727-8.9727zm5.6543 6.9648c-2.912 0-5.3362 0.90241-7.2695 2.7051-1.9333 1.8027-2.8984 4.1727-2.8984 7.1113 0 2.9027 0.95467 5.2727 2.8613 7.1113 1.9067 1.8387 4.3152 2.7578 7.2285 2.7578 3.072 0 5.4986-1.0273 7.2813-3.0859l-3.1504-2.957c-0.9 1.2667-2.2247 1.9004-3.9727 1.9004-1.572 0-2.8519-0.53232-3.8399-1.5977-0.988-1.064-1.4824-2.4396-1.4824-4.1289 0-1.6533 0.50744-3.0209 1.5234-4.1035 1.0147-1.0813 2.3063-1.623 3.8769-1.623 0.76 0 1.4815 0.14488 2.1602 0.43553 0.68 0.29068 1.2222 0.71664 1.6289 1.2793l3.0723-3.0605c-0.7587-0.86267-1.7786-1.5349-3.0586-2.0176-1.2813-0.484-2.6009-0.72657-3.9609-0.72657zm17.037 0.02547c-0.90133 0-1.7707 0.11573-2.6094 0.34375-0.83865 0.22935-1.6117 0.56825-2.3184 1.0176-0.70533 0.448-1.2694 1.063-1.6934 1.8457-0.42265 0.78268-0.63476 1.667-0.63476 2.6524 0 0.80932 0.13053 1.5207 0.39453 2.1367 0.26533 0.616 0.64596 1.1259 1.1406 1.5312 0.49333 0.40533 0.98713 0.73124 1.4805 0.97656 0.496 0.24668 1.088 0.48356 1.7773 0.71289 0.63465 0.21067 1.0923 0.36495 1.375 0.46095 0.28265 0.09733 0.62653 0.23415 1.0332 0.41015 0.40533 0.176 0.69093 0.337 0.84961 0.48633 0.15867 0.14933 0.30355 0.33468 0.43555 0.55468 0.13333 0.22 0.19725 0.47063 0.19725 0.75196 0 0.704-0.24123 1.219-0.72656 1.543-0.48532 0.32668-1.1085 0.49024-1.8672 0.49024-0.74133 0-1.4889-0.18536-2.2383-0.55468-0.75068-0.36934-1.3558-0.84446-1.8145-1.4258l-2.9668 3.0098c0.812 0.844 1.8463 1.5039 3.0996 1.9785 1.2547 0.47467 2.5599 0.71289 3.9199 0.71289 2.012 0 3.7123-0.53367 5.0977-1.5977 1.3867-1.064 2.0781-2.6082 2.0781-4.6309 0-0.704-0.1312-1.3501-0.39648-1.9395-0.26533-0.59067-0.56572-1.0601-0.9004-1.4121-0.336-0.352-0.80864-0.69029-1.418-1.0156-0.608-0.32533-1.1068-0.55788-1.4961-0.69921-0.388-0.14-0.92528-0.32669-1.6133-0.55469-0.53067-0.15867-0.93609-0.29353-1.2187-0.4082-0.28268-0.11467-0.57068-0.25583-0.86133-0.42383-0.292-0.16667-0.50039-0.36008-0.62305-0.58008-0.124-0.22-0.18359-0.47868-0.18359-0.77735 0-0.668 0.25991-1.1488 0.78125-1.4395 0.52-0.28933 1.1332-0.43359 1.8398-0.43359 0.6 0 1.2118 0.1486 1.8398 0.44727 0.62667 0.3 1.1254 0.68744 1.4961 1.1621l2.8867-3.0351c-0.796-0.73867-1.7437-1.3071-2.8477-1.7031-1.1027-0.39465-2.2003-0.59375-3.2949-0.59375z" fill="#fff"/>
</svg>
