<svg xmlns="http://www.w3.org/2000/svg" viewBox="0 0 48 48"><defs><style>.cls-1{fill:#fff;}</style></defs><title>canvasstudent</title><g id="Layer_1" data-name="Layer 1"><path class="cls-1" d="M24,33.34a2.18,2.18,0,1,0,2.18,2.18A2.17,2.17,0,0,0,24,33.34Z"/><path class="cls-1" d="M24,39.79a6.21,6.21,0,0,0-6.13,5.33,21.79,21.79,0,0,0,12.26,0A6.21,6.21,0,0,0,24,39.79Z"/><circle class="cls-1" cx="15.86" cy="32.15" r="2.18"/><path class="cls-1" d="M12.84,35.16a6.2,6.2,0,0,0-8.11-.55,22.12,22.12,0,0,0,8.66,8.66A6.2,6.2,0,0,0,12.84,35.16Z"/><circle class="cls-1" cx="12.48" cy="24" r="2.18"/><path class="cls-1" d="M8.21,24a6.21,6.21,0,0,0-5.33-6.13,21.79,21.79,0,0,0,0,12.26A6.21,6.21,0,0,0,8.21,24Z"/><circle class="cls-1" cx="15.86" cy="15.86" r="2.18"/><path class="cls-1" d="M12.84,12.84a6.2,6.2,0,0,0,.55-8.11,22.12,22.12,0,0,0-8.66,8.66A6.2,6.2,0,0,0,12.84,12.84Z"/><path class="cls-1" d="M24,10.3a2.19,2.19,0,1,0,2.18,2.18A2.18,2.18,0,0,0,24,10.3Z"/><path class="cls-1" d="M24,8.22a6.21,6.21,0,0,0,6.13-5.34,21.79,21.79,0,0,0-12.26,0A6.21,6.21,0,0,0,24,8.22Z"/><circle class="cls-1" cx="32.14" cy="15.86" r="2.18"/><path class="cls-1" d="M35.16,12.84a6.2,6.2,0,0,0,8.11.55,22.12,22.12,0,0,0-8.66-8.66A6.2,6.2,0,0,0,35.16,12.84Z"/><circle class="cls-1" cx="35.52" cy="24" r="2.18"/><path class="cls-1" d="M45.12,17.87a6.19,6.19,0,0,0,0,12.26,21.79,21.79,0,0,0,0-12.26Z"/><circle class="cls-1" cx="32.14" cy="32.15" r="2.18"/><path class="cls-1" d="M35.16,35.16a6.2,6.2,0,0,0-.55,8.11,22.12,22.12,0,0,0,8.66-8.66A6.2,6.2,0,0,0,35.16,35.16Z"/></g></svg>