<?xml version="1.0" encoding="utf-8"?>
<!-- Generator: Adobe Illustrator 21.1.0, SVG Export Plug-In . SVG Version: 6.00 Build 0)  -->
<svg version="1.0" id="Layer_1" xmlns="http://www.w3.org/2000/svg" xmlns:xlink="http://www.w3.org/1999/xlink" x="0px" y="0px"
	 viewBox="0 0 48 48" style="enable-background:new 0 0 48 48;" xml:space="preserve">
<style type="text/css">
	.st0{fill:#FFFFFF;}
</style>
<path class="st0" d="M24,2C11.8,2,2,11.8,2,24s9.8,22,22,22s22-9.8,22-22S36.2,2,24,2z M18,15.1h18.6c1.8,0,3.2,1.4,3.2,3.2
	s-1.4,3.2-3.2,3.2H18c-1.8,0-3.2-1.4-3.2-3.2S16.3,15.1,18,15.1z M11.3,33.2c-0.7,0-1.3-0.6-1.3-1.3s0.6-1.3,1.3-1.3
	s1.3,0.6,1.3,1.3S12,33.2,11.3,33.2z M11.3,29.3c-0.7,0-1.3-0.6-1.3-1.3s0.6-1.3,1.3-1.3s1.3,0.6,1.3,1.3S12,29.3,11.3,29.3z
	 M11.3,21.5c-0.7,0-1.3-0.6-1.3-1.3s0.6-1.3,1.3-1.3s1.3,0.6,1.3,1.3S12,21.5,11.3,21.5z M11.3,17.6c-0.7,0-1.3-0.6-1.3-1.3
	s0.6-1.3,1.3-1.3s1.3,0.6,1.3,1.3S12,17.6,11.3,17.6z M36.6,33.2H18c-1.8,0-3.2-1.4-3.2-3.2s1.4-3.2,3.2-3.2h18.6
	c1.8,0,3.2,1.4,3.2,3.2S38.4,33.2,36.6,33.2z"/>
</svg>
