<?xml version="1.0" encoding="UTF-8"?>
<svg version="1.1" viewBox="0 0 48 48" xmlns="http://www.w3.org/2000/svg">
    <path d="m11.047 5.0469-0.90625 0.90625h17.887v-0.90625h-16.98zm18.451 0v9.1211a4 4 0 0 1 0.95117-0.11719 4 4 0 0 1 0.95117 0.11914v-9.0352h0.001953v-0.087891h-1.9043zm3.375 0v0.90625h4.9863l-0.90625-0.90625h-4.0801zm-27.826 6v0.90625h22.98v-0.90625h-22.98zm27.826 0v0.90625h10.08v-0.90625h-10.08zm-2.4238 4.2871a2.716 2.716 0 0 0-2.7148 2.7168 2.716 2.716 0 0 0 2.7148 2.7148 2.716 2.716 0 0 0 2.7168-2.7148 2.716 2.716 0 0 0-2.7168-2.7168zm-4.1152 1.5117c-1.9035-0.0106-4.0523 0.2181-6.459 0.80664l-2.875 4.8477c-8.5943 0-11.303 4.1099-12 5.7012v3.2988c2.0923-4.7297 4.7108-7.3008 13-7.3008l3-5.1992c2.0874-0.43089 3.8793-0.59444 5.4688-0.60352a4 4 0 0 1-0.019531-0.3457 4 4 0 0 1 0.18359-1.1953c-0.10078-0.0019-0.19663-0.009166-0.29883-0.009766zm-21.287 0.20117v0.90625h11.986c0.24456-0.33142 0.50701-0.63863 0.79883-0.90625h-12.785zm30.674 0c0.52562 0.27471 1.0336 0.57929 1.5273 0.90625h5.7051v-0.90625h-7.2324zm-5.2715 0.015625a0.98765 0.98765 0 0 1 0.98828 0.98828 0.98765 0.98765 0 0 1-0.98828 0.98633 0.98765 0.98765 0 0 1-0.98633-0.98633 0.98765 0.98765 0 0 1 0.98633-0.98828zm3.9551 1.5527a4 4 0 0 1-0.49024 1.4277c1.0612 0.57596 1.8299 1.1917 2.3867 1.6562 3.0204 2.5198 6.6992 9.8008 6.6992 9.8008v-3.2988s-2.7062-5.2458-5.7266-7.7656c-0.57205-0.47723-1.5269-1.1697-2.8691-1.8203zm-4.9062 3.3145v21.08h1.9023v-21.078a4 4 0 0 1-0.95117 0.11914 4 4 0 0 1-0.95117-0.12109zm-24.451 1.1172v0.90625h0.80273c0.37907-0.32235 0.77793-0.62744 1.2031-0.90625h-2.0059zm15.518 0c-0.17086 0.2772-0.31975 0.5802-0.45117 0.90625h7.9141v-0.90625h-7.4629zm12.309 0v0.90625h2.7598c-0.30917-0.31336-0.62979-0.61554-0.96484-0.90625h-1.7949zm9.4707 0c0.21963 0.27212 0.42198 0.54936 0.60938 0.83203v-0.83203h-0.60938zm-33.67 6c-0.18578 0.23785-0.35886 0.4968-0.51367 0.78516-0.020572 0.03714-0.043788 0.08351-0.064453 0.12109h19.932v-0.90625h-19.354zm24.199 0v0.90625h7.0449c-0.17162-0.30868-0.36149-0.60233-0.53906-0.90625h-6.5059zm-27.486 6c-0.11536 0.20057-0.22922 0.3913-0.33984 0.57031v0.33594h22.98v-0.90625h-22.641zm27.486 0v0.90625h10.08v-0.24219c-0.11884-0.22159-0.24008-0.44074-0.35742-0.66406h-9.7227zm-22.732 6 0.90625 0.90625h16.98v-0.90625h-17.887zm22.732 0v0.90625h4.0801l0.90625-0.90625h-4.9863z" fill="#fff"/>
</svg>
