<?xml version="1.0" encoding="UTF-8" standalone="no"?>
<svg
   xmlns:dc="http://purl.org/dc/elements/1.1/"
   xmlns:cc="http://creativecommons.org/ns#"
   xmlns:rdf="http://www.w3.org/1999/02/22-rdf-syntax-ns#"
   xmlns:svg="http://www.w3.org/2000/svg"
   xmlns="http://www.w3.org/2000/svg"
   xmlns:sodipodi="http://sodipodi.sourceforge.net/DTD/sodipodi-0.dtd"
   xmlns:inkscape="http://www.inkscape.org/namespaces/inkscape"
   version="1.0"
   width="48pt"
   height="48pt"
   viewBox="0 0 48 48"
   preserveAspectRatio="xMidYMid meet"
   id="svg6"
   sodipodi:docname="2Dp9ZAJJBLpswRPfFPNNRfXl5FuT0l-cv1znKYuolC7F5g6yegT89bCi22DzUs884-U_s128.svg"
   inkscape:version="0.92.4 5da689c313, 2019-01-14">
  <metadata
     id="metadata12">
    <rdf:RDF>
      <cc:Work
         rdf:about="">
        <dc:format>image/svg+xml</dc:format>
        <dc:type
           rdf:resource="http://purl.org/dc/dcmitype/StillImage" />
        <dc:title></dc:title>
      </cc:Work>
    </rdf:RDF>
  </metadata>
  <defs
     id="defs10" />
  <sodipodi:namedview
     pagecolor="#ffffff"
     bordercolor="#666666"
     borderopacity="1"
     objecttolerance="10"
     gridtolerance="10"
     guidetolerance="10"
     inkscape:pageopacity="0"
     inkscape:pageshadow="2"
     inkscape:window-width="2520"
     inkscape:window-height="1397"
     id="namedview8"
     showgrid="false"
     inkscape:pagecheckerboard="true"
     inkscape:zoom="11.0625"
     inkscape:cx="20.734379"
     inkscape:cy="34.514741"
     inkscape:window-x="20"
     inkscape:window-y="23"
     inkscape:window-maximized="0"
     inkscape:current-layer="svg6" />
  <path
     style="fill:#ffffff;fill-opacity:1;stroke:none;stroke-width:0.058"
     d="m 30.94163,1.2602367 c 0.986,0.986 0.986,27.7820003 0,28.7680003 -1.102,1.102 -3.828,0.87 -4.524,-0.406 -0.348,-0.696 -0.58,-6.264 -0.58,-13.978 0,-7.7140003 0.232,-13.2820003 0.58,-13.9780003 0.696,-1.27600001 3.422,-1.50800001 4.524,-0.406 z"
     id="path845"
     inkscape:connector-curvature="0" />
  <path
     style="fill:#ffffff;fill-opacity:1;stroke:none;stroke-width:0.058"
     d="m 21.42963,9.6122363 c 0.754,0.7539997 0.928,2.5520007 0.928,10.4400007 0,5.51 -0.232,10.092 -0.58,10.73 -0.696,1.276 -3.422,1.508 -4.524,0.406 -0.986,-0.986 -0.986,-20.822001 0,-21.8080007 0.986,-0.9859996 3.132,-0.8699996 4.176,0.232 z"
     id="path843"
     inkscape:connector-curvature="0" />
  <path
     style="fill:#ffffff;fill-opacity:1;stroke:none;stroke-width:0.058"
     d="m 10.11963,35.132237 c 1.334,1.74 3.132,3.132 5.742,4.408 3.306,1.624 4.466,1.914 8.236,1.914 3.48,0 4.988,-0.29 7.54,-1.508 3.306,-1.624 5.684,-3.596 7.308,-6.032 1.682,-2.552 4.93,-2.378 5.626,0.29 0.812,3.074 -6.554,9.918 -12.934,12.006 -4.234,1.392 -11.484,1.392 -15.544,0 -8.0620001,-2.842 -15.48600013,-12.006 -11.0200001,-13.688 1.972,-0.696 2.9,-0.232 5.0460001,2.61 z"
     id="path2"
     inkscape:connector-curvature="0" />
</svg>
