<?xml version="1.0" encoding="utf-8"?>
<!-- Generator: Adobe Illustrator 25.2.0, SVG Export Plug-In . SVG Version: 6.00 Build 0)  -->
<svg version="1.1"
	 id="SVGRoot" sodipodi:docname="celsius.svg" xmlns:cc="http://creativecommons.org/ns#" xmlns:dc="http://purl.org/dc/elements/1.1/" xmlns:inkscape="http://www.inkscape.org/namespaces/inkscape" xmlns:rdf="http://www.w3.org/1999/02/22-rdf-syntax-ns#" xmlns:sodipodi="http://sodipodi.sourceforge.net/DTD/sodipodi-0.dtd" xmlns:svg="http://www.w3.org/2000/svg"
	 xmlns="http://www.w3.org/2000/svg" xmlns:xlink="http://www.w3.org/1999/xlink" x="0px" y="0px" viewBox="0 0 48 48"
	 style="enable-background:new 0 0 48 48;" xml:space="preserve">
<style type="text/css">
	.st0{fill:#FFFFFF;}
</style>
<sodipodi:namedview  bordercolor="#666666" borderopacity="1.0" id="base" inkscape:current-layer="layer1" inkscape:cx="-22.253467" inkscape:cy="20.514052" inkscape:document-rotation="0" inkscape:document-units="px" inkscape:grid-bbox="true" inkscape:pageopacity="0" inkscape:pageshadow="2" inkscape:window-height="1380" inkscape:window-maximized="1" inkscape:window-width="2560" inkscape:window-x="0" inkscape:window-y="60" inkscape:zoom="10.666667" pagecolor="#000000" showgrid="false">
	</sodipodi:namedview>
<g id="layer1" inkscape:groupmode="layer" inkscape:label="Layer 3">
	<g id="g989">
		<path id="path981" class="st0" d="M24,2C11.8,2,2,11.8,2,24s9.8,22,22,22s22-9.8,22-22S36.2,2,24,2z M24.4,10.3
			c0.6,0,1.2,0.1,1.8,0.2c1.2,0.2,2.3,0.5,3.4,1c1,0.5,2,1.1,2.7,1.9c0.2,0.2,0.1,0.4,0,0.6s-0.4,0.5-0.7,0.8
			c-0.3,0.3-0.6,0.6-0.9,0.8s-0.6,0.3-0.8,0.1c-0.9-0.6-1.7-1.1-2.7-1.4c-0.9-0.3-1.8-0.5-2.8-0.5c-0.9,0-1.9,0-2.7,0.2
			s-1.8,0.5-2.6,0.9c-0.8,0.4-1.6,0.9-2.3,1.6c-0.7,0.6-1.3,1.3-1.8,2.1s-0.9,1.7-1.2,2.6c-0.3,0.9-0.4,1.9-0.4,3s0.2,2.1,0.5,3
			c0.3,1,0.8,1.8,1.3,2.7c0.6,0.8,1.2,1.5,2,2.2c0.8,0.6,1.6,1.1,2.5,1.5c0.9,0.4,1.8,0.7,2.8,0.8c1,0.1,2,0.1,3,0c1-0.2,2-0.5,3-1
			c1-0.5,2-1.2,2.9-2.1c0.2-0.2,0.5-0.1,0.8,0c0.3,0.1,0.7,0.4,0.9,0.6c0.3,0.2,0.6,0.4,0.8,0.6s0.3,0.4,0.2,0.6
			c-0.9,1.1-2,2-3.1,2.7c-1.2,0.7-2.4,1.2-3.7,1.6s-2.7,0.5-4,0.4c-1.3,0-2.7-0.3-4-0.7c-1.3-0.4-2.5-1-3.6-1.7s-2.1-1.7-3-2.8
			c-0.8-1.1-1.5-2.3-2-3.7c-0.5-1.4-0.7-3-0.7-4.7s0.3-3.3,0.7-4.7c0.5-1.4,1.1-2.6,1.9-3.7c0.8-1.1,1.8-2,2.8-2.7
			c1.1-0.8,2.2-1.3,3.4-1.8c1.2-0.4,2.5-0.7,3.7-0.8C23.2,10.3,23.8,10.3,24.4,10.3z M35.2,16.3C35.2,16.3,35.2,16.3,35.2,16.3
			C35.2,16.3,35.2,16.3,35.2,16.3c1.9,0,3.4,1.5,3.4,3.3c0,1.8-1.5,3.3-3.3,3.3c0,0,0,0,0,0c-1.8,0-3.3-1.5-3.3-3.3c0,0,0,0,0,0
			C31.9,17.9,33.4,16.4,35.2,16.3z"/>
		<circle id="path75-6" class="st0" cx="35.3" cy="19.7" r="1.1"/>
	</g>
</g>
</svg>
