<?xml version="1.0" encoding="UTF-8"?>
<svg version="1.1" viewBox="0 0 48 48" xmlns="http://www.w3.org/2000/svg">
    <path d="m16.546 5.6129c-0.88282 0-1.5945 0.71168-1.5945 1.5945v6.9861h22.065c1.3582 0 2.4516 1.0934 2.4516 2.4516v6.129h2.0829c0.88283 0 1.5945-0.71168 1.5945-1.5945v-13.972c0-0.88283-0.71168-1.5945-1.5945-1.5945zm-4.9032 9.8065c-0.88283 0-1.5945 0.71168-1.5945 1.5945v6.9861h22.065c1.3582 0 2.4516 1.0934 2.4516 2.4516v6.129h2.0829c0.88283 0 1.5945-0.71168 1.5945-1.5945v-13.972c0-0.88283-0.71168-1.5945-1.5945-1.5945zm-4.9032 9.8064c-0.88282 0-1.5945 0.71168-1.5945 1.5945v13.972c0 0.88283 0.71168 1.5945 1.5945 1.5945h25.005c0.88282 0 1.5945-0.71168 1.5945-1.5945v-13.972c0-0.88283-0.71168-1.5945-1.5945-1.5945z" fill="#fff"/>
</svg>
