<?xml version="1.0" encoding="utf-8"?>
<!-- Generator: Adobe Illustrator 21.1.0, SVG Export Plug-In . SVG Version: 6.00 Build 0)  -->
<svg version="1.0" id="Layer_1" xmlns="http://www.w3.org/2000/svg" xmlns:xlink="http://www.w3.org/1999/xlink" x="0px" y="0px"
	 viewBox="0 0 48 48" style="enable-background:new 0 0 48 48;" xml:space="preserve">
<style type="text/css">
	.st0{fill:#FFFFFF;}
</style>
<path class="st0" d="M41,5H7C5.9,5,5,5.9,5,7v34c0,1.1,0.9,2,2,2h34c1.1,0,2-0.9,2-2V7C43,5.9,42.1,5,41,5z M29.1,14.4l-2.6,3.3
	h-1.3l1.9-3.3H29.1z M23.6,14.4h2.1L23,17.7h-1.3L23.6,14.4z M27.4,31l-0.1-1.9h0c-0.6,0.9-1.8,2.2-3.8,2.2c-1.8,0-4-1-4-5.1v-6.8
	h2.1v6.4c0,2.2,0.7,3.7,2.6,3.7c1.4,0,2.4-1,2.8-1.9c0.1-0.3,0.2-0.7,0.2-1.1v-7.1h2.1v8.4c0,1.2,0,2.3,0.1,3.2H27.4z"/>
</svg>
