<?xml version="1.0" encoding="UTF-8" standalone="no"?>
<!-- Created with Inkscape (http://www.inkscape.org/) -->

<svg
   xmlns:dc="http://purl.org/dc/elements/1.1/"
   xmlns:cc="http://creativecommons.org/ns#"
   xmlns:rdf="http://www.w3.org/1999/02/22-rdf-syntax-ns#"
   xmlns:svg="http://www.w3.org/2000/svg"
   xmlns="http://www.w3.org/2000/svg"
   xmlns:sodipodi="http://sodipodi.sourceforge.net/DTD/sodipodi-0.dtd"
   xmlns:inkscape="http://www.inkscape.org/namespaces/inkscape"
   width="48"
   height="48"
   viewBox="0 0 12.7 12.7"
   version="1.1"
   id="svg8"
   sodipodi:docname="Checkey_48x48.svg"
   inkscape:version="0.92.3 (2405546, 2018-03-11)">
  <defs
     id="defs2" />
  <sodipodi:namedview
     id="base"
     pagecolor="#ffffff"
     bordercolor="#666666"
     borderopacity="1.0"
     inkscape:pageopacity="0.0"
     inkscape:pageshadow="2"
     inkscape:zoom="5.6"
     inkscape:cx="33.738977"
     inkscape:cy="0.5538275"
     inkscape:document-units="mm"
     inkscape:current-layer="svg8"
     showgrid="false"
     units="px"
     inkscape:pagecheckerboard="true"
     inkscape:window-width="2560"
     inkscape:window-height="1385"
     inkscape:window-x="1920"
     inkscape:window-y="27"
     inkscape:window-maximized="1" />
  <metadata
     id="metadata5">
    <rdf:RDF>
      <cc:Work
         rdf:about="">
        <dc:format>image/svg+xml</dc:format>
        <dc:type
           rdf:resource="http://purl.org/dc/dcmitype/StillImage" />
        <dc:title></dc:title>
      </cc:Work>
    </rdf:RDF>
  </metadata>
  <g
     inkscape:label="Layer 1"
     inkscape:groupmode="layer"
     id="layer1">
    <path
       id="path21"
       style="fill:#ffffff;stroke-width:0.08945733"
       d="m 4.3980016,-0.00387 c 0.0032,0.001 0.0064,0.002 0.0095,0.003 0.0012,-0.001 0.0025,-0.002 0.0037,-0.003 z m 0.756377,0 c -2.08e-4,2.7e-4 -3.26e-4,5.3e-4 -5.43e-4,0.001 -0.0014,-0.002 0.0042,5.3e-4 0.01167,0.003 0.0029,-0.002 0.0072,-0.002 0.01061,-0.004 z m 0.345303,0 c 0.0016,0.001 0.0032,0.001 0.0048,0.003 0.0021,-0.002 -6.51e-4,-0.002 -0.0011,-0.003 z m 0.03289,0 c 0.0041,0.002 0.0082,0.004 0.0122,0.006 -0.0013,-0.001 -0.0028,-0.003 -0.0042,-0.004 -0.0012,-8e-4 -0.0037,10e-5 -0.0042,-0.002 -9.1e-5,-2.4e-4 0.0028,-5.3e-4 0.01008,-0.001 z m 0.552166,0 c 0.0037,0.001 0.0077,0.003 0.01114,0.005 0.0012,3e-5 0.0025,-5e-5 0.0037,0 -0.0041,-0.002 -0.006,-0.002 -0.01061,-0.005 z m -0.990822,0.004 c -0.002,0.002 -0.0029,0.005 -0.0048,0.007 9.24e-4,10e-6 0.0017,-5.3e-4 0.0027,-5.3e-4 -1.75e-4,-0.001 0.0038,-0.008 0.0021,-0.006 z m 1.753034,0.005 c -0.0012,0.001 -8.96e-4,0.004 -0.0048,0.007 0.0015,-0.002 0.0032,-0.004 0.0048,-0.005 9.3e-5,-0.001 -1.57e-4,-0.001 0,-0.002 z m -0.765925,5.3e-4 c -0.0023,5.3e-4 -0.0046,5e-5 -0.0069,5.3e-4 0.01257,0.006 0.0296,0.0137 0.02122,0.008 -0.0045,-0.003 -0.0095,-0.006 -0.01432,-0.008 z m 3.59571,0.002 c -0.0016,5.3e-4 -0.0032,10e-4 -0.0048,0.002 0.0016,-2.1e-4 0.0032,-2.6e-4 0.0048,-5.3e-4 1.07e-4,-2.7e-4 -1.12e-4,-8e-4 0,-10e-4 z m -5.44e-4,0.002 c -0.0032,1.7e-4 -0.0039,10e-4 -0.0064,10e-4 0.0021,-7e-5 0.0042,-5.3e-4 0.0064,-5.3e-4 z m -4.586532,0.002 c -0.002,5.3e-4 -0.0039,10e-4 -0.0058,0.002 -7.88e-4,10e-4 -0.0014,0.002 -0.0021,0.003 5.43e-4,-1.7e-4 0.001,-2.6e-4 0.0016,-5.3e-4 0.002,-10e-4 0.0043,-0.003 0.0064,-0.004 z m 0.738343,0.006 c -0.0067,0.003 -0.01372,0.004 -0.02069,0.006 -8.42e-4,2.1e-4 -0.002,-2e-5 -0.0027,-5.3e-4 h -5.43e-4 c -0.0073,0.002 -0.01489,0.004 -0.02228,0.006 -9.78e-4,2.2e-4 -0.0029,2.7e-4 -0.0027,-5.3e-4 -0.0063,0.003 -0.01226,0.006 -0.01856,0.008 -0.0014,-9e-5 -0.01844,-0.001 -0.01804,-0.002 6.25e-4,-0.001 0.003,-0.001 0.0042,-0.002 7.33e-4,-5.3e-4 0.0015,-10e-4 0.0021,-0.002 -0.023,0.0104 -0.01667,0.0124 -0.03289,0.0109 -0.002,-2e-4 -0.0043,-8e-4 -0.0064,-0.001 -7.88e-4,-1.2e-4 -0.0017,1.1e-4 -0.0021,-5.3e-4 -4.34e-4,-5.3e-4 0.0018,-8e-4 0.0011,-0.002 -0.01946,0.009 -0.02996,0.0103 -0.04986,0.009 -0.01214,0 -0.02392,1e-5 -0.03607,0 -0.01214,-10e-6 -0.02446,-1.5e-4 -0.0366,0 -0.01092,0 -0.02198,-0.001 -0.03289,-5.3e-4 -0.01082,0.001 -0.02277,0.004 -0.03342,0 -0.0011,-5.3e-4 -0.0052,-0.003 -0.0085,-0.005 -0.01516,8e-4 -0.02972,8e-4 -0.0435,-0.007 -0.0043,-1.4e-4 -0.0084,-5.3e-4 -0.01273,-5.3e-4 -0.02,10e-4 -0.0413,0.006 -0.05675,-0.0109 0.02038,0.006 0.02475,0.006 0.0122,0.006 -0.0084,6e-5 -0.01653,-1.5e-4 -0.02493,-5.3e-4 -0.01568,-5.3e-4 -0.03107,0.003 -0.04668,0 -0.0035,-0.002 -0.0071,-0.004 -0.01061,-0.006 -0.0068,-0.001 -0.01389,-0.002 -0.009,0 -0.01293,-10e-6 -0.0258,8e-4 -0.03872,0 -0.007,-5.3e-4 -0.01584,0.002 -0.0064,-0.004 9.78e-4,-5.4e-4 -0.0022,0.001 -0.0032,0.002 -0.0064,0.002 -0.01268,0.005 -0.01909,0.007 0.0015,-5.3e-4 0.0034,-0.001 0.0048,-0.002 -0.01495,0.008 -0.02258,0.008 -0.03448,0.007 -0.0112,0.006 -0.01656,0.006 -0.02175,0.006 h -5.43e-4 c -0.0059,0.005 -0.01374,0.006 -0.02069,0.009 -5.6e-5,0 -0.01374,5.3e-4 -0.01379,5.3e-4 -8.97e-4,-1.1e-4 -0.0018,-2.7e-4 -0.0027,-5.3e-4 -0.0059,0.003 -0.01215,0.005 -0.01856,0.006 l -5.43e-4,5.3e-4 h -5.43e-4 c -0.0055,0.004 -0.01097,0.007 -0.01644,0.0109 0.0014,-2.5e-4 -0.0022,2e-5 -0.0021,0 -4.07e-4,-8e-4 -0.0011,-0.002 -0.0053,-0.004 -0.0049,0.003 -0.0099,0.007 -0.01485,0.0104 -4.08e-4,2.7e-4 -6.52e-4,8e-4 -0.0011,0.001 h -5.44e-4 c -0.0021,0.001 -0.005,0.003 -0.0037,0.002 0.0016,-8e-4 -10e-5,-8e-4 0.0016,-0.002 -0.0028,0.001 -0.0057,0.003 -0.0085,0.004 l -5.44e-4,5.3e-4 c -0.0045,0.003 -0.009,0.006 -0.01379,0.009 -0.0021,0.001 0.0035,-0.003 0.0053,-0.004 0.006,-0.0103 -0.0014,-0.004 -0.01485,0.003 v 5.3e-4 c 2.53e-4,0.006 -0.0016,0.009 -0.0053,0.008 -5.97e-4,-6e-5 -3.25e-4,0.001 -0.0011,0.001 -0.0037,0.003 -0.0074,0.006 -0.01114,0.008 -5.16e-4,8e-4 -4.61e-4,0.002 -0.0011,0.003 -4.07e-4,5.3e-4 -7.87e-4,5.3e-4 -0.0016,0.001 1.98e-4,-5.3e-4 8.15e-4,-0.002 0.0011,-0.002 -0.0023,0.002 -0.0047,0.003 -0.0069,0.005 -0.003,0.005 -0.004,0.009 -0.0244,0.0145 -0.0012,-1.7e-4 -0.0016,-2.7e-4 -0.0032,-5.3e-4 -5.71e-4,0.001 -0.0015,0.002 -0.0021,0.003 -0.01156,0.004 -0.02244,0.01 -0.03395,0.014 8.96e-4,6e-5 0.0017,-10e-6 0.0027,0 0.0026,-0.001 -0.0058,0.003 -0.0048,0.002 h -5.43e-4 v 5.3e-4 c -0.0011,0.001 -0.0026,0.002 -0.0037,0.003 l -5.43e-4,5.3e-4 c -0.01,0.01 -0.01268,0.01 -0.01644,0.0114 0.0033,0.007 0.0044,0.0155 -0.0016,0.0244 -0.01903,0.0303 -0.07534,0.0487 -0.159656,0.0576 -0.0069,0.003 -0.01421,0.005 -0.02069,0.008 -0.04761,0.005 -0.09335,-0.004 -0.140031,-0.003 -0.0029,-6e-5 -0.005,7e-5 -0.008,0 -0.01421,-2.7e-4 -0.02519,5.3e-4 -0.04031,0 -0.02103,-5e-5 -0.04205,5e-5 -0.06312,0 -0.02354,7e-5 -0.04701,5.3e-4 -0.07055,5.3e-4 -0.03786,0.002 -0.06287,-0.006 -0.09176,-0.0177 -0.0028,-2.7e-4 -0.0047,-2.4e-4 -0.0074,-5.3e-4 -0.518871,-0.0537 -0.55761,-0.0431 -1.251653,0.36546 -0.396236,0.23324 -0.737955,0.49938 -0.767516,0.59802 -0.0293,0.0977 -0.197072,0.29939 -0.372884,0.44852 -0.306298,0.2598 -0.316766,0.28862 -0.255662,0.68887 0.04365,0.28591 0.09753,0.39863 0.170795,0.35664 0.05887,-0.0337 0.03873,0.0153 -0.04455,0.10901 -0.332936,0.37466 -0.609631,1.66393 -0.578687,2.69734 0.01791,0.59826 0.227989,1.44868 0.399405,1.61706 0.07136,0.0701 0.06176,0.1235 -0.03501,0.19311 -0.114938,0.0826 -0.107855,0.11165 0.05039,0.20869 0.162057,0.0993 0.193614,0.0891 0.261497,-0.0883 0.04357,-0.11385 0.04264,-0.21485 -0.0021,-0.23153 -0.04361,-0.0162 -0.07956,-0.0665 -0.07956,-0.11161 0,-0.0451 0.07819,-0.0341 0.173447,0.0244 0.13636,0.0836 0.20323,0.0818 0.315599,-0.01 0.119605,-0.0975 0.142683,-0.0946 0.142683,0.0197 0,0.0751 -0.0504,0.15418 -0.112449,0.17598 -0.06205,0.0218 -0.08024,0.0739 -0.04031,0.11577 0.04007,0.042 0.100604,0.0363 0.135257,-0.013 0.03453,-0.049 0.179812,-0.17749 0.323025,-0.28552 0.143213,-0.10803 0.215873,-0.19675 0.161247,-0.19675 -0.05463,0 -0.224547,-0.11981 -0.377658,-0.26682 -0.280589,-0.26944 -0.287942,-0.50548 -0.0122,-0.39454 0.251076,0.10106 0.916034,0.12261 0.916034,0.0296 0,-0.0482 0.04289,-0.0618 0.09494,-0.0301 0.163765,0.0994 -0.09509,0.30732 -0.382432,0.30732 -0.146114,0 -0.354623,-0.042 -0.463056,-0.0935 -0.190448,-0.0904 -0.190978,-0.0891 -0.02175,0.0441 0.09636,0.0758 0.251429,0.13808 0.344773,0.13808 0.225111,0 0.429602,0.20845 0.341589,0.34833 -0.06469,0.10283 -0.308382,0.26324 -0.635972,0.41841 -0.07446,0.0353 -0.192669,0.14213 -0.262557,0.23776 -0.118516,0.1621 -0.134844,0.16374 -0.239749,0.0228 -0.07757,-0.10417 -0.131946,-0.12019 -0.175569,-0.0509 -0.03479,0.0553 0.02826,0.19616 0.140031,0.31303 0.15965,0.16692 0.180665,0.23926 0.09813,0.3369 -0.07885,0.0933 -0.06648,0.28129 -0.0085,0.35197 6.63e-4,7.9e-4 9.15e-4,0.002 0.0016,0.003 0.0018,0.002 0.0034,0.005 0.0053,0.007 0.0212,0.0207 0.04754,0.0264 0.07744,0.008 0.03781,-0.0229 0.141409,0.0371 0.230202,0.13342 0.165605,0.17971 0.07553,0.24569 -0.119344,0.0872 -0.06447,-0.0524 -0.06179,-0.0347 0.0069,0.0436 0.06365,0.0726 0.222563,0.14051 0.352729,0.15106 0.203639,0.0166 0.231951,0.0541 0.204211,0.26942 -0.02175,0.16882 8.96e-4,0.23003 0.06949,0.18844 0.06677,-0.0405 0.08173,-0.0101 0.04349,0.0877 -0.131118,0.33566 0.641529,1.3871 1.475625,2.00796 0.229296,0.17067 0.490578,0.38277 0.580809,0.47187 0.09023,0.0892 0.239558,0.14301 0.331512,0.1194 0.09195,-0.0236 0.145895,-0.009 0.119875,0.0322 -0.02603,0.0414 0.171882,0.14284 0.439717,0.22581 0.386827,0.11975 0.545581,0.13112 0.77229,0.0535 0.163918,-0.0562 0.262548,-0.0619 0.231793,-0.013 -0.09233,0.14675 0.12608,0.0938 0.614225,-0.14899 0.598637,-0.29771 1.25382,-0.82178 1.17806,-0.9422 -0.03317,-0.0527 -0.01473,-0.0657 0.04296,-0.0306 0.28597,0.17361 1.0203756,-1.44101 1.0443944,-2.29607 0.0059,-0.20885 0.04127,-0.3617 0.0785,-0.3395 0.03723,0.0222 0.06789,-0.0239 0.06789,-0.10279 0,-0.079 -0.03747,-0.12096 -0.08274,-0.0934 -0.2354884,0.14296 0.385841,-0.84109 0.661432,-1.04758 0.319028,-0.239 0.323556,-0.2518 0.323556,-0.8851 0,-0.3535 -0.03464,-0.68045 -0.07744,-0.72677 -0.04389,-0.0475 -0.02652,-0.37289 0.03978,-0.74597 C 11.139325,4.4409 11.127632,4.35 10.781889,3.25201 10.651774,2.83862 10.510196,2.55077 10.425978,2.52887 10.348988,2.50887 10.170835,2.46677 10.030285,2.43597 9.7927566,2.38387 9.7784486,2.35707 9.8276656,2.0513 c 0.04635,-0.28799 0.01336,-0.37159 -0.263618,-0.67122 -0.174019,-0.18824 -0.31613,-0.37349 -0.31613,-0.41166 0,-0.0382 -0.07119,-0.098 -0.158065,-0.13289 -0.284071,-0.11385 -1.506574,-0.39716 -1.719087,-0.39817 -0.21068,-0.001 -0.628565,-0.18925 -0.687953,-0.28448 -0.0013,-2.6e-4 -0.0013,1.7e-4 -0.0032,-5.3e-4 -0.0015,-5.3e-4 -0.0059,-0.002 -0.0042,-0.002 0.002,-2e-5 0.0028,5.3e-4 0.0058,0.001 -1.56e-4,-2.7e-4 -3.8e-4,-8e-4 -5.43e-4,-0.001 -0.0073,-0.001 -0.01394,-0.003 -0.02069,-0.006 -0.0066,7.9e-4 -0.01325,0.002 -0.02016,-5.3e-4 -0.0024,-0.001 -0.0045,-0.003 -0.0074,-0.005 -7.33e-4,6e-5 -0.0014,5.3e-4 -0.0021,5.3e-4 -0.0048,2.6e-4 -0.01003,-8e-5 -0.01485,0 -0.003,-0.001 -0.02762,-0.008 -0.02864,-0.0171 -3.8e-4,-0.004 0.0065,0.003 0.0085,0.006 0.0015,0.002 -0.0095,-0.003 -0.0069,-0.004 0.0033,-8e-4 -7.5e-5,-0.001 -0.009,-0.004 -0.0028,-9e-5 -0.0058,8e-5 -0.0085,-5.3e-4 -0.0049,-10e-4 -0.0091,-0.004 -0.01379,-0.005 l -5.43e-4,-5.3e-4 c -6.79e-4,-1.6e-4 -0.0011,1e-4 -0.0016,0 -0.0054,-0.001 -0.01033,-0.003 -0.01538,-0.005 -0.0021,-8e-4 -0.0052,-0.003 -0.0058,-0.004 -0.0021,-5.3e-4 -0.0043,-0.001 -0.0064,-0.002 -0.0022,-7.9e-4 -0.0051,-0.002 -0.0058,-0.004 -0.0023,-8e-4 -0.0047,-0.001 -0.0069,-0.002 -3.81e-4,-1.6e-4 -0.0027,-0.002 -0.0048,-0.004 -0.002,-5.3e-4 -0.0039,-7.9e-4 -0.0058,-0.002 -0.0026,-10e-4 -0.01008,-0.003 -0.0074,-0.004 0.0032,-0.001 0.01156,0.003 0.0095,0.003 -0.0057,-0.002 -0.01111,-0.003 -0.01644,-0.006 -0.0026,-0.002 -0.0054,-0.004 -0.0069,-0.006 h -5.44e-4 -5.43e-4 c -0.0053,-10e-5 -0.01091,8e-5 -0.01591,-0.001 -0.0025,-7.9e-4 -0.0046,-0.003 -0.0069,-0.004 -0.0048,5.3e-4 -0.0048,0.001 -0.01008,0.002 -0.03921,0.003 -0.07461,-0.01 -0.107144,-0.0291 h -5.43e-4 c -0.0019,-2.7e-4 -0.0097,-0.003 -0.01326,-0.004 -9.51e-4,-9e-5 -4.89e-4,10e-5 -0.0016,0 -5.43e-4,-2.7e-4 -10e-4,-8e-4 -0.0016,-0.001 -0.0052,-0.001 -0.01061,-0.003 -0.0175,-0.005 h -5.43e-4 c -0.01184,0 -0.0237,-5.3e-4 -0.03554,-5.3e-4 -0.01342,2e-4 -0.02696,0.001 -0.04031,-5.4e-4 -0.0011,-1.6e-4 -0.0029,5.4e-4 -0.0032,-5.3e-4 -0.01301,0.005 -0.01388,0.007 -0.02334,0.006 7.88e-4,-0.001 0.0035,-0.003 0.0027,-0.003 -0.0017,5.3e-4 -0.0026,0.002 -0.0042,0.003 -0.01134,0.003 -0.01017,0.002 -0.01326,0.003 -0.0024,0.002 -0.0071,0.002 -0.01061,0.003 0.0033,-0.003 0.01079,-0.0138 0.0069,-0.0114 -0.0069,0.004 -0.01255,0.01 -0.01856,0.015 -4.62e-4,5e-5 -5.98e-4,5.3e-4 -0.0011,5.3e-4 -0.0031,0.003 -0.0062,0.005 -0.0095,0.008 -8.96e-4,5.3e-4 -0.01433,-8e-4 -0.009,0 -5.98e-4,-7e-5 -0.01119,5.3e-4 -0.0175,0.002 -0.0052,-5.3e-4 -0.01092,-2e-5 -0.01591,-0.002 -0.0049,-0.002 -0.0068,-0.004 -0.01008,-0.006 -0.0031,-2.7e-4 -0.007,-5.4e-4 -0.0053,0 -7.6e-4,-3e-5 -0.01661,0.001 -0.0064,-0.001 0.001,-2.6e-4 -0.0021,2.7e-4 -0.0032,5.3e-4 -0.0051,0.001 -0.01024,0.002 -0.01538,0.003 -0.0061,-0.003 -0.01251,-0.005 -0.01856,-0.008 -0.0023,-2.7e-4 -0.0046,-5.3e-4 -0.0069,-0.001 -0.0028,-7.9e-4 -0.0053,-0.002 -0.008,-0.004 -7.06e-4,-5.3e-4 -0.001,-0.001 -0.0021,-0.002 h -5.43e-4 c -0.0059,2e-5 -0.01213,-2.6e-4 -0.01803,-5.3e-4 -0.0064,-2.6e-4 -0.01212,-2.6e-4 -0.01857,0.001 -0.0045,-2.6e-4 -0.02654,-0.003 -0.02652,-0.006 1.4e-5,-0.002 0.0078,1.9e-4 0.0058,0 -0.02377,-0.002 6.79e-4,0.002 -0.02228,-0.003 -0.0023,-8e-4 -0.0049,-8e-4 -0.0069,-0.002 -7.34e-4,-5.3e-4 0.0018,-2.6e-4 0.0027,-5.3e-4 -0.0052,-5.3e-4 -0.01014,-0.001 -0.01538,-0.002 -0.0041,-0.001 -0.008,-0.004 -0.01167,-0.006 -0.009,3e-5 -0.01808,-10e-5 -0.02705,-5.4e-4 -0.0032,-7.9e-4 -0.0026,2.7e-4 -0.008,0.001 -0.01314,0.002 -0.02459,-5.3e-4 -0.03607,-0.007 -0.0071,-8e-4 -0.01458,-0.002 -0.01061,0 -4.62e-4,-10e-6 -0.01725,-0.001 -0.0175,-0.002 z m -0.849187,0.1251 c 0.0017,-0.002 0.0035,-0.005 0.0027,-0.004 -0.0012,0.001 -0.0021,0.002 -0.0032,0.004 z m 0.07054,-0.0358 c 5.98e-4,-5.4e-4 0.001,-0.001 0.0016,-0.002 7.6e-4,-0.001 0.0015,-0.002 0.0021,-0.004 -2.24e-4,-8e-4 2.08e-4,-0.002 0,-0.003 -0.0017,0.004 -0.0028,0.006 -0.0037,0.008 z m 0.05145,-0.0322 c 6.52e-4,-2.7e-4 0.0014,-2.6e-4 0.0021,-5.3e-4 l -5.43e-4,-5.3e-4 h -5.43e-4 c -7.33e-4,5.3e-4 -2.26e-4,5.3e-4 -0.0011,0.001 z m 0.111918,-0.053 c -0.0033,0.004 -0.006,0.009 -0.009,0.0135 8.42e-4,-5.3e-4 2.72e-4,1.7e-4 0.0011,-5.3e-4 0.0039,-0.003 0.01102,-0.017 0.008,-0.013 z m 4.378608,0.002 c -0.0019,2.6e-4 -0.0025,1.5e-4 -0.0037,5.3e-4 -0.0023,5.3e-4 -0.0041,0.002 -0.0064,0.003 0.0013,-2.3e-4 0.0027,-8e-4 0.0042,-10e-4 0.0022,-0.001 0.0036,-0.002 0.0058,-0.003 z m -4.410433,0.006 c -0.0029,0.003 -0.0053,0.008 -0.008,0.0119 2.99e-4,-2.1e-4 7.61e-4,-2.6e-4 0.0011,-5.3e-4 0.0036,-0.003 0.0097,-0.0152 0.0069,-0.0114 z m 1.153131,0.0161 c 0.0032,0.001 0.0094,0.003 0.0074,0.003 -0.0015,-8e-4 -0.0027,-0.002 -0.0042,-0.003 -7.06e-4,-4e-5 -0.0022,8e-5 -0.0032,0 z m 3.181983,0.0104 c -0.0052,0.002 -0.0065,0.002 -0.01061,0.004 0.0014,-8e-4 -0.0057,0.005 -0.0058,0.005 0.0036,-0.002 0.0071,-0.003 0.01061,-0.005 0.002,-0.001 0.0042,-0.003 0.0058,-0.004 z m -4.496361,0.0478 c -7.6e-4,1e-4 -0.0013,0.001 -0.0021,0.001 2.28e-4,0.002 2.71e-4,0.006 0.0011,0.005 1.08e-4,-1.7e-4 7.6e-4,-0.004 0.0011,-0.006 z m 0.0037,0.007 c -0.0023,0.004 -0.0046,0.008 -0.0069,0.0114 5.7e-4,-2.5e-4 0.0011,-8e-4 0.0016,-0.001 9.78e-4,-0.002 0.0026,-0.005 0.0053,-0.0104 z m 4.41839,0.19155 c -1.5e-4,0 -0.0037,0.002 -0.0037,0.002 2.34e-4,2.6e-4 2.98e-4,8e-4 5.43e-4,0.001 5.7e-4,-2.6e-4 0.0011,-1.5e-4 0.0016,-5.3e-4 6.79e-4,-5.3e-4 9.51e-4,-0.002 0.0016,-0.002 z m 0.0042,0.009 c -5.98e-4,5.3e-4 -10e-4,0.001 -0.0016,0.002 0.0013,0.002 0.0024,0.003 0.0037,0.005 -8.15e-4,-0.002 -0.0014,-0.004 -0.0021,-0.007 z m -5.25486,0.23256 c 0.0461,0.0112 0.0658,0.0573 0.05463,0.13342 -0.01388,0.0946 -0.112482,0.17099 -0.24081,0.18636 -0.15336,0.0184 -0.182069,0.003 -0.09707,-0.054 0.06629,-0.0441 0.115072,-0.11607 0.108206,-0.15937 -0.0069,-0.0433 0.04729,-0.0909 0.120405,-0.1059 0.02104,-0.004 0.03927,-0.004 0.05463,-5.3e-4 z m 3.000049,0.0789 c 0.01169,2.7e-4 0.0217,0.004 0.02864,0.0104 0.02779,0.0273 -0.02237,0.0768 -0.111388,0.11006 -0.128643,0.0481 -0.13887,0.0383 -0.05039,-0.0493 0.04592,-0.0455 0.09806,-0.0721 0.133135,-0.0711 z m -3.598893,0.027 c 0.02439,5.4e-4 0.02683,0.0353 0.0037,0.0945 -0.06,0.1536 -0.124648,0.18204 -0.124648,0.0545 0,-0.0459 0.04004,-0.10773 0.08911,-0.13757 0.01279,-0.008 0.02369,-0.0116 0.03182,-0.0114 z m 9.1072914,0.67745 v 5.4e-4 h 5.43e-4 v -5.4e-4 z m -9.8138094,0.0732 c 0.0049,0.003 0.01024,0.0145 0.01591,0.0358 0.0227,0.0853 0.0227,0.22515 0,0.31043 -0.0227,0.0853 -0.04084,0.0155 -0.04084,-0.15521 0,-0.12797 0.01013,-0.19939 0.02493,-0.19104 z m 7.4316984,0.17079 c 3.8e-4,-5.3e-4 -0.01129,0.006 -0.0085,0.005 0.0016,-8e-4 0.0032,-0.001 0.0048,-0.002 0.0012,-7.9e-4 0.0025,-0.002 0.0037,-0.003 z m -7.6120414,0.004 c 0.0051,0.005 0.01072,0.0184 0.01644,0.04 0.02288,0.0863 0.02101,0.20572 -0.0037,0.26579 -0.02472,0.06 -0.04321,-0.0105 -0.04137,-0.15677 0.0014,-0.10973 0.01321,-0.16472 0.02864,-0.14899 z m 7.6035544,0.001 c 0.0033,-0.004 -0.0049,0.003 -0.0122,0.008 l 5.43e-4,5.3e-4 c 0.0032,-0.002 0.0064,-0.004 0.0095,-0.007 0.0016,-0.002 4.61e-4,-2.6e-4 0.0021,-0.002 z m 0.12624,0.10071 c 0.001,0.004 0.0023,0.009 0.0032,0.013 6.9e-5,2.7e-4 -6.9e-5,8e-4 0,10e-4 h 5.43e-4 5.43e-4 c -0.0014,-0.005 -0.0028,-0.009 -0.0042,-0.014 z m -2.2691314,0.0187 c 0.06915,0 0.205847,0.0242 0.360154,0.0727 0.1814,0.0571 0.190205,0.0717 0.04509,0.0737 -0.09929,0.001 -0.261939,-0.0318 -0.361215,-0.0737 -0.115002,-0.0485 -0.113176,-0.0727 -0.04402,-0.0727 z m 2.2754964,0.003 c 4.61e-4,0.004 5.97e-4,0.007 0.0011,0.0109 1.47e-4,8e-4 1.86e-4,0.001 5.43e-4,0.002 h 5.43e-4 c -4.62e-4,-0.003 -5.97e-4,-0.006 -0.0011,-0.009 -4.07e-4,-10e-4 -5.98e-4,-0.002 -0.0011,-0.004 z m 1.576405,0.028 c 0.0017,7.9e-4 0.003,10e-4 0.0048,0.002 3.8e-4,-2.6e-4 6.79e-4,-7.9e-4 0.0011,-0.001 -0.0058,-10e-4 -10e-4,-10e-6 -0.0058,-10e-4 z m 0.01061,0.003 c -0.0016,5.4e-4 -0.0021,0 -0.0037,5.4e-4 0.002,10e-4 0.0032,0.002 0.0053,0.003 0.0013,2.7e-4 0.0042,8e-4 0.0053,10e-4 6.24e-4,-8e-4 0.0011,-10e-4 0.0021,-0.002 -0.0019,-8e-4 -0.0036,-8e-4 -0.0053,-0.001 -0.0012,-1.8e-4 -0.0025,-5.3e-4 -0.0037,-10e-4 z m 0.009,0.002 c 4.07e-4,1.7e-4 6.24e-4,2.7e-4 0.0011,5.3e-4 -2.72e-4,-2.2e-4 -1.75e-4,-8e-4 -5.43e-4,-0.001 z m 0.0011,5.3e-4 c 2.98e-4,2.4e-4 7.6e-4,2.7e-4 0.0011,5.3e-4 v -5.3e-4 c -3.8e-4,-1.5e-4 -6.79e-4,1.5e-4 -0.0011,0 z m 0.0011,5.3e-4 c -0.0022,0.001 -1.58e-4,6e-5 -0.0027,0.002 0.0013,2.6e-4 0.0055,0.001 0.0064,0.002 -0.0012,-10e-4 -0.0025,-0.002 -0.0037,-0.003 z m -0.0027,0.002 c -3.25e-4,-7e-5 -0.0012,-5.3e-4 -0.0016,-5.3e-4 -2.99e-4,2.6e-4 -9.23e-4,7.9e-4 -0.0011,10e-4 3.53e-4,1.6e-4 7.06e-4,-1.7e-4 0.0011,0 0.0014,-8e-4 2.99e-4,2.7e-4 0.0016,-5.3e-4 z M 6.8723766,1.92394 c 0.0031,-0.0106 0.07166,0.0495 0.181403,0.16144 0.146321,0.14928 0.308806,0.25753 0.361216,0.24035 0.05241,-0.0172 0.11643,0.0477 0.142152,0.14432 0.04008,0.15058 0.0233,0.16168 -0.116692,0.0758 -0.186058,-0.11414 -0.448735,0.0375 -0.448735,0.25904 0,0.26364 -0.292537,0.66595 -0.547392,0.75324 -0.145745,0.0499 -0.265209,0.12537 -0.265209,0.16716 0,0.0418 -0.138831,0.10155 -0.308704,0.13289 v -5.3e-4 c -0.227345,0.0419 -0.345932,0.13112 -0.449265,0.33691 l -0.140561,0.27929 0.0011,-0.26579 c 9.51e-4,-0.31203 0.179326,-0.57622 0.388797,-0.57622 0.0814,0 0.147987,-0.0324 0.147987,-0.0722 0,-0.0397 0.142548,-0.13937 0.317191,-0.22115 0.174642,-0.0818 0.363551,-0.24782 0.419561,-0.36857 0.056,-0.12075 0.132021,-0.20066 0.169203,-0.17806 0.03718,0.0226 0.09088,-0.0185 0.119345,-0.0914 0.02846,-0.0729 0.02108,-0.1329 -0.01644,-0.1329 -0.128319,0 -0.09611,-0.36371 0.0366,-0.41374 0.103938,-0.0392 0.109988,-0.081 0.02811,-0.19467 -0.01435,-0.0199 -0.02066,-0.0318 -0.01963,-0.0353 z m 1.480399,0.0348 c 0.01083,-0.006 0.05856,0.0172 0.150639,0.0654 0.111692,0.0585 0.20315,0.12472 0.20315,0.14743 10e-7,0.0939 -0.166845,0.0314 -0.282182,-0.1059 -0.05616,-0.0669 -0.08243,-0.10131 -0.07161,-0.10694 z m -3.83652,0.0976 c 0.192874,0.0157 0.20307,0.0355 0.09654,0.19311 -0.140907,0.20847 -0.291656,0.27183 -0.365989,0.15366 -0.102865,-0.16349 0.05295,-0.36435 0.269452,-0.34677 z m 6.3745734,0.24243 c 0.0014,0.004 0.003,0.008 0.0048,0.0114 0.0015,0.003 -0.002,-0.007 -0.0037,-0.0104 -4.61e-4,-8e-4 -6.52e-4,-2.7e-4 -0.0011,-10e-4 z m -0.05994,0.005 c 6.79e-4,8e-4 0.0014,0.002 0.0021,0.003 9.5e-5,4e-5 -10e-4,-0.002 -0.0011,-0.002 -3.26e-4,-1.9e-4 -7.33e-4,-2.6e-4 -0.0011,-5.3e-4 z m 0.0037,0.003 c 0.0017,0.002 0.003,0.005 0.0048,0.007 5.16e-4,5.3e-4 -0.0024,-0.004 -0.0032,-0.005 -1.45e-4,-2.2e-4 -3.53e-4,-8e-4 -5.43e-4,-10e-4 l -5.43e-4,-5.4e-4 z m -0.0011,5.3e-4 c 0.0019,0.005 0.0042,0.0104 0.0064,0.0156 0.0014,0.003 0.0024,0.005 0.0037,0.008 l 5.43e-4,5.3e-4 c 3.26e-4,5.3e-4 7.4e-5,10e-4 5.43e-4,0.002 0.0022,0.003 0.0041,0.006 0.0064,0.008 -0.002,-0.005 -0.0043,-0.01 -0.0064,-0.0145 -0.0028,-0.004 -0.0095,-0.0178 -0.009,-0.0156 -8.97e-4,-10e-4 -0.0013,-0.003 -0.0021,-0.004 z m 0.06577,0.0332 c 0.0037,0.007 0.007,0.0133 0.01114,0.0197 0.0037,0.006 0.0097,0.007 0.01273,0.0104 -0.0083,-0.004 -0.0084,-8e-4 -0.02387,-0.0301 z m 1.430009,0.0903 v 5.3e-4 c 3.26e-4,-6e-5 7.34e-4,-5.3e-4 0.0011,-5.3e-4 -3.53e-4,5e-5 -7.06e-4,-5e-5 -0.0011,0 z M 8.2445126,2.4791 c 0.04964,0 0.115185,0.0401 0.145865,0.0888 0.03068,0.0488 0.01516,0.0888 -0.03448,0.0888 -0.04964,0 -0.115195,-0.0401 -0.145865,-0.0888 -0.03068,-0.0488 -0.01517,-0.0888 0.03448,-0.0888 z m -0.440778,0.0966 c 0.07447,-0.003 0.196577,0.0337 0.271044,0.081 0.164992,0.10474 0.02217,0.10474 -0.225959,0 -0.119034,-0.0502 -0.134353,-0.078 -0.04509,-0.081 z m -0.608391,0.006 c 0.01452,0.003 0.03864,0.0374 0.07797,0.10382 0.05271,0.089 0.07838,0.17917 0.05729,0.19987 -0.06397,0.0628 -0.158817,-0.0718 -0.155943,-0.22115 0.0011,-0.0577 0.0062,-0.0857 0.02069,-0.0825 z m 3.7728694,0.006 c 7.06e-4,0.003 0.0014,0.006 0.0021,0.009 -7.6e-4,-0.003 -5.16e-4,-0.004 -0.0016,-0.008 z M 4.1528606,2.6573 c 0.03445,0 0.01194,0.0598 -0.04986,0.13289 -0.0618,0.0731 -0.150735,0.1329 -0.197846,0.1329 -0.04711,0 -0.02461,-0.0598 0.04986,-0.1329 0.07447,-0.0731 0.163401,-0.13289 0.197846,-0.13289 z m 6.8646814,0.0218 c 3.53e-4,10e-4 0.0032,0.006 0.0037,0.008 0.0033,0.003 0.0062,0.007 0.0095,0.01 -0.0037,-0.006 -0.008,-0.0111 -0.0122,-0.0166 -4.88e-4,-5.3e-4 -5.43e-4,-5.3e-4 -0.0011,-10e-4 z m 0.0095,0.0182 c 0.0024,0.004 0.0052,0.007 0.008,0.0109 -5.43e-4,-0.002 -9.5e-4,-0.002 -0.0016,-0.004 -0.0024,-0.003 -0.0069,-0.008 -0.0064,-0.007 z m -0.858218,0.23153 c 0.01264,-0.002 0.03442,0.0257 0.07214,0.0831 0.06358,0.0966 0.08758,0.10154 0.08858,0.0171 7.61e-4,-0.0643 0.04213,-0.0914 0.09176,-0.0613 0.04965,0.0302 0.09017,0.0834 0.09017,0.11888 0,0.0356 -0.08106,0.0713 -0.180342,0.0784 -0.115048,0.009 -0.180184,-0.0412 -0.179282,-0.13653 5.97e-4,-0.0645 0.0043,-0.0973 0.01697,-0.0997 z m -2.5937474,0.0353 c 0.0054,0.002 0.01125,0.0102 0.0175,0.0254 0.02504,0.0609 0.02504,0.16068 0,0.22166 -0.02503,0.061 -0.04509,0.0113 -0.04509,-0.11057 0,-0.0914 0.01126,-0.1425 0.02758,-0.13653 z m -4.929183,0.094 c 0.0092,-10e-4 0.01916,0.002 0.0297,0.008 0.04218,0.0256 0.05346,0.0833 0.02493,0.12874 -0.07298,0.11595 -0.10184,0.1033 -0.10184,-0.0462 0,-0.0533 0.01971,-0.0879 0.04721,-0.0908 z m 1.798651,0.0514 c 0.01227,-10e-4 0.01963,0.002 0.01963,0.0104 0,0.0987 -0.363727,0.31436 -0.408954,0.24243 -0.02969,-0.0472 0.01978,-0.11173 0.109797,-0.14327 0.09002,-0.0315 0.19403,-0.0732 0.231263,-0.0929 0.01862,-0.01 0.036,-0.0155 0.04827,-0.0166 z m 3.30504,0.122 c 0.0018,-0.003 0.0087,-0.002 0.02122,0.003 0.01668,0.006 0.0425,0.018 0.07797,0.0358 0.09929,0.0499 0.241662,0.13155 0.316129,0.18117 0.07447,0.0496 0.08891,0.0906 0.03236,0.0914 -0.05654,8e-4 -0.198402,-0.0809 -0.315599,-0.18117 -0.0942,-0.0806 -0.13737,-0.1217 -0.132075,-0.12978 z m -4.250247,0.007 c 0.02115,-0.0164 0.0354,0.0635 0.06206,0.26163 0.02906,0.21605 0.09168,0.3457 0.159656,0.33224 0.06137,-0.0122 0.111388,0.038 0.111388,0.11109 0,0.0731 -0.05116,0.13289 -0.11351,0.13289 -0.169835,0 -0.34223,-0.45469 -0.268922,-0.70911 0.02141,-0.0743 0.03664,-0.11891 0.04933,-0.12874 z m 1.137749,0.0503 c 0.03135,10e-4 0.05873,0.01 0.07373,0.0244 0.02999,0.0295 -0.02367,0.0502 -0.118814,0.0462 -0.105148,-0.004 -0.126636,-0.0251 -0.05463,-0.0535 0.03258,-0.0128 0.06836,-0.0184 0.09972,-0.0171 z m 5.4474014,0.0877 c 0.0076,-0.007 0.03287,0.0116 0.07744,0.055 0.06167,0.0601 0.08931,0.13205 0.06153,0.15937 -0.0278,0.0273 -0.07857,-0.0221 -0.112449,-0.10954 -0.02449,-0.0632 -0.0341,-0.0974 -0.02652,-0.10486 z m -2.6690674,0.0924 c 0.03646,-0.005 0.09046,0.0129 0.137909,0.0493 0.06325,0.0485 0.338536,0.16327 0.611573,0.25489 0.273036,0.0916 0.58995,0.26187 0.704396,0.37792 0.258967,0.26261 0.220998,0.31185 -0.109796,0.14327 -0.139926,-0.0713 -0.292054,-0.12925 -0.338408,-0.12925 -0.140903,0 -1.091974,-0.6271 -1.035377,-0.68265 0.0073,-0.007 0.01755,-0.0118 0.0297,-0.0135 z m -3.650873,0.004 c 0.01511,0.006 0.04023,0.0348 0.07532,0.094 0.0506,0.0853 0.171041,0.15522 0.267861,0.15522 0.135421,0 0.176099,0.0612 0.176099,0.26578 0,0.14629 -0.02026,0.26579 -0.04509,0.26579 -0.02482,0 -0.04676,-0.10937 -0.04827,-0.24347 -0.0024,-0.21587 -0.01384,-0.22518 -0.09919,-0.081 -0.0893,0.15087 -0.1056,0.14503 -0.222776,-0.0768 -0.108011,-0.2045 -0.149294,-0.39631 -0.103962,-0.37947 z m 1.095845,0.0166 c 0.03237,0.001 0.05516,0.0369 0.05516,0.094 0,0.076 -0.04053,0.13808 -0.09017,0.13808 -0.04964,0 -0.09017,-0.0377 -0.09017,-0.0836 0,-0.0459 0.04053,-0.10795 0.09017,-0.13809 0.01241,-0.008 0.02422,-0.0109 0.03501,-0.0104 z M 0.03464055,3.69977 c -7.93e-4,5.3e-4 -8.13e-4,5.3e-4 -0.0016,10e-4 -0.0023,0.002 -0.0025,0.002 -0.0042,0.004 0.0017,-10e-4 0.0041,-0.002 0.0058,-0.004 2.9e-5,-4e-5 -3e-5,-10e-4 0,-10e-4 z M 2.9811176,3.81969 c 0.04029,10e-4 0.02549,0.033 -0.04137,0.11213 -0.08769,0.10379 -0.08646,0.16915 0.0064,0.3151 0.133984,0.21073 0.218427,0.23212 0.286957,0.0732 0.02629,-0.061 0.04195,0.0388 0.03448,0.22166 -0.0075,0.18286 -0.01524,0.33194 -0.0175,0.3312 -0.0778,-0.0256 -0.233667,-0.19 -0.377128,-0.39764 -0.195527,-0.28299 -0.171022,-0.60105 0.04986,-0.64786 0.02579,-0.005 0.04492,-0.008 0.05835,-0.008 z m -0.808358,0.0213 c 0.01079,0.002 0.0226,0.006 0.03501,0.0135 0.04964,0.0301 0.09017,0.0725 0.09017,0.094 0,0.0215 -0.04053,0.0394 -0.09017,0.0394 -0.04964,0 -0.09017,-0.0423 -0.09017,-0.094 0,-0.0387 0.0228,-0.0583 0.05516,-0.0529 z m 9.4472894,0.11524 c 0.0032,0.003 0.0072,0.008 0.01008,0.0119 0.005,0.004 0.01425,0.0142 0.0175,0.0166 -0.0048,-0.007 -0.006,-0.009 -0.009,-0.013 -0.0062,-0.005 -0.0098,-0.008 -0.01857,-0.0156 z m 0.115101,0.16301 c 9.24e-4,0.002 0.0017,0.003 0.0027,0.005 3.8e-4,5.4e-4 0.0013,10e-4 0.0016,0.002 0.0013,0.002 -0.0055,-0.008 -0.0042,-0.006 z m 0.0085,0.0125 c 0.0053,0.008 0.0106,0.0167 0.01591,0.0249 -4.89e-4,-0.001 -4.7e-5,-0.002 -5.44e-4,-0.002 -0.0048,-0.008 -0.01031,-0.0152 -0.01538,-0.0228 z m 0.07797,0.10538 c 2.71e-4,5.4e-4 1.27e-4,0.001 5.43e-4,0.002 0.0028,0.004 0.0033,0.003 0.0064,0.007 -0.0048,-0.005 -6.52e-4,-0.003 -0.0069,-0.009 z m 0.0069,0.009 c 0.0061,0.007 0.007,0.009 0.01061,0.0135 0.0022,0.002 0.005,0.006 0.0069,0.007 0.01,0.007 -0.0058,-0.009 -0.0175,-0.0208 z m -6.9543214,0.0415 c 0.02521,-0.0116 0.04508,0.0529 0.08062,0.21024 0.0642,0.28426 0.231262,0.40392 0.231262,0.1656 0,-0.0675 0.08159,-0.14372 0.180873,-0.16923 0.09928,-0.0255 0.180343,-0.01 0.180343,0.0343 0,0.0442 -0.03328,0.0805 -0.07373,0.0805 -0.04045,0 -0.137086,0.12962 -0.21482,0.28811 -0.164509,0.3354 -0.85948,1.13013 -0.988171,1.13013 -0.04835,0 -0.06251,-0.0401 -0.03183,-0.0888 0.08181,-0.13 -0.142496,-0.10682 -0.439187,0.0452 -0.299709,0.1535 -0.28037,0.14944 -0.358032,0.0732 -0.134837,-0.13246 -0.03602,-0.20894 0.450325,-0.34782 0.625386,-0.17858 1.110471,-0.63601 1.042804,-0.98373 -0.03166,-0.16267 -0.06349,-0.18966 -0.119875,-0.10226 -0.0946,0.14661 -0.09211,0.004 0.0042,-0.23568 0.02331,-0.0581 0.04004,-0.0927 0.05516,-0.0997 z m 4.450745,0.0228 c 0.01508,0.002 0.03545,0.0167 0.06153,0.0426 0.194222,0.193 0.196569,0.92548 0.0037,1.13479 -0.157408,0.17085 -0.153111,0.18064 0.141622,0.35715 0.288435,0.17303 0.292141,0.18111 0.07744,0.1791 -0.446302,-0.005 -0.739688,-0.4199 -0.4307,-0.60945 0.161529,-0.0991 0.177237,-0.1764 0.133665,-0.64838 -0.03137,-0.33985 -0.03246,-0.46036 0.01273,-0.45578 z m -5.91364,0.0576 c 0.0066,-0.004 0.01643,0.0615 0.03607,0.19207 0.02165,0.14393 0.11676,0.35822 0.211107,0.47604 0.09435,0.11781 0.144002,0.25933 0.110327,0.31458 -0.03367,0.0553 0.01033,0.0431 0.0976,-0.0265 0.08727,-0.0696 0.219531,-0.24248 0.294383,-0.38467 0.166821,-0.31687 0.25167,-0.26217 0.168673,0.10902 -0.03386,0.15143 -0.16283,0.3404 -0.286426,0.41997 -0.2463,0.15854 -0.73185,0.21947 -0.806237,0.10122 -0.02582,-0.0411 -0.111722,-0.0747 -0.190951,-0.0747 -0.123558,0 -0.119381,0.0285 0.02811,0.1983 0.169505,0.19517 0.169206,0.19605 -0.0032,0.0665 -0.159104,-0.11959 -0.169012,-0.11734 -0.11351,0.028 0.04092,0.10669 0.02727,0.13981 -0.04137,0.0981 -0.07007,-0.0426 -0.08804,0.0115 -0.05675,0.17235 0.02513,0.12915 0.0104,0.23515 -0.03236,0.23515 -0.06774,0 -0.108323,-0.11636 -0.09441,-0.26942 0.0024,-0.0263 -0.110646,-0.12385 -0.250889,-0.21647 -0.312869,-0.20656 -0.58542,-0.6314 -0.455629,-0.71016 0.05043,-0.0305 0.09176,-0.002 0.09176,0.0628 0,0.13921 0.616957,0.73427 0.688484,0.66395 0.05861,-0.0576 -0.254625,-0.37778 -0.429109,-0.43865 -0.06826,-0.0238 -0.09438,-0.0742 -0.05835,-0.11213 0.03603,-0.038 0.131028,-0.0153 0.211637,0.0504 0.08061,0.0657 0.261867,0.11074 0.402588,0.10019 0.14072,-0.0106 0.282861,0.024 0.316129,0.0768 0.03837,0.061 0.1085,0.0295 0.190951,-0.0862 0.09635,-0.13513 0.105423,-0.22681 0.03554,-0.35508 -0.05185,-0.0952 -0.08807,-0.30552 -0.08062,-0.46721 0.0067,-0.14669 0.0098,-0.2202 0.01644,-0.22426 z m 8.2490734,0.20972 c 0.0025,0.007 0.0053,0.0128 0.008,0.0192 -0.0015,-0.005 -0.003,-0.01 -0.0048,-0.0145 -6.79e-4,-0.002 -0.0023,-0.004 -0.0032,-0.005 z M 4.6498316,4.87468 c 0.05257,0 0.07099,0.0401 0.04031,0.0888 -0.03068,0.0488 -0.07411,0.0888 -0.09601,0.0888 -0.02189,0 -0.03978,-0.0401 -0.03978,-0.0888 0,-0.0488 0.04291,-0.0888 0.09548,-0.0888 z m -1.430009,0.27254 c 0.01169,2.6e-4 0.02116,0.004 0.02811,0.0104 0.02779,0.0273 -0.02237,0.0773 -0.111388,0.11057 -0.128638,0.0481 -0.138869,0.0378 -0.05039,-0.0498 0.04592,-0.0455 0.09859,-0.0721 0.133666,-0.0711 z m 6.8625584,0.21855 c 0.01014,-0.002 0.01937,-0.001 0.02705,0.002 0.01025,0.005 0.01774,0.0146 0.02281,0.0296 0.01846,0.0544 0.07482,0.0741 0.125179,0.0436 0.05353,-0.0325 0.04905,0.0227 -0.01061,0.13238 -0.05636,0.10326 -0.146587,0.18792 -0.200499,0.18792 -0.0637,0 -0.05809,-0.0474 0.01591,-0.13497 0.09687,-0.11463 0.0882,-0.12561 -0.05675,-0.0722 -0.1545658,0.057 -0.1583078,0.0477 -0.03872,-0.0966 0.0449,-0.0541 0.08521,-0.0855 0.1156306,-0.0919 z M 0.97986355,5.49243 c -4.21e-4,5.3e-4 -9.91e-4,8e-4 -0.0016,0.002 -0.0018,0.003 -0.0042,0.005 -0.0058,0.008 -0.0018,0.004 0.0043,-0.005 0.0074,-0.009 -6e-6,-2.6e-4 6e-6,-7.9e-4 0,-0.001 z m -0.0854,0.1329 c -7.8e-5,5.3e-4 -4.59e-4,5.3e-4 -5.29e-4,0.001 -1.12e-4,-1.9e-4 6.33e-4,0.002 5.29e-4,0.002 -6.08e-4,-0.001 0.0033,0.005 0.0027,0.003 -0.0012,-0.002 -0.0017,-0.004 -0.0027,-0.006 z m 0.08009,0.0322 c -8.29e-4,0.003 -0.0013,0.007 -0.0021,0.0104 4.75e-4,-0.004 0.0014,-0.002 0.0021,-0.008 7.7e-5,-5.3e-4 -7.3e-5,-0.001 0,-0.002 z m -0.0053,0.0223 c -0.0018,0.007 -0.0031,0.0145 -0.0048,0.0218 -4.24e-4,8e-4 -3.99e-4,0.001 -0.0011,0.003 -2.77e-4,5.3e-4 -2.72e-4,5.3e-4 -5.3e-4,0.001 v 5.3e-4 c 5.9e-5,7.9e-4 -4.5e-5,0.001 0,0.002 2.46e-4,0.003 3.89e-4,0.003 5.3e-4,0.005 0.0099,-0.0245 0.007,-0.0256 0.0058,-0.0327 z m -0.0069,0.0275 c -0.0015,0.006 -0.0027,0.0105 -0.0037,0.015 7.3e-4,-0.001 0.002,-0.003 0.0027,-0.004 4.35e-4,-0.002 5.62e-4,-0.002 0.0011,-0.005 3.53e-4,-0.002 1.36e-4,-0.004 0,-0.006 z m 0.0726701,0.4262 c -0.0025,0.005 -4.94e-4,0.002 -0.0027,0.007 -1.87e-4,0.001 -3.45e-4,0.002 -5.3e-4,0.003 2.6e-4,5.3e-4 8.1e-4,10e-4 0.0011,0.002 9.05e-4,-0.005 0.0039,-0.015 0.0021,-0.0114 z m 4.439076,0.0815 c 0.133588,-0.006 0.268475,0.0296 0.299156,0.0784 0.03068,0.0487 0.04292,0.0839 0.02758,0.0779 -0.01534,-0.006 -0.149697,-0.0407 -0.298626,-0.0779 l -0.270513,-0.068 z m 6.1114853,0.004 c 0.0011,0.005 0.0018,0.009 0.0032,0.014 0.0011,0.004 -0.0011,-0.007 -0.0016,-0.0109 -6.1e-5,-1.5e-4 -4.62e-4,-0.001 -5.43e-4,-0.002 -8.8e-5,-2.1e-4 -9.51e-4,-0.001 -0.0011,-0.002 z m 0.008,0.0275 c 0.001,0.006 0.0013,0.0118 0.0021,0.0177 -4.08e-4,-8e-4 9.5e-4,0.002 5.43e-4,10e-4 10e-4,0.002 5e-5,-10e-5 0.0011,0.002 -9.23e-4,-0.006 -0.0018,-0.0121 -0.0027,-0.0182 -3.53e-4,-8e-4 -7.06e-4,-0.002 -0.0011,-0.003 z m -2.8642613,0.0135 c 0.04475,-0.006 0.06736,0.007 0.06736,0.0394 0,0.0546 -0.08106,0.11984 -0.180343,0.14536 -0.216318,0.0556 -0.240939,0.20349 -0.03395,0.20349 0.111244,0 0.122506,0.0282 0.04721,0.11732 -0.0795,0.0941 -0.04151,0.11005 0.192011,0.082 0.235202,-0.0282 0.264782,-0.015 0.155413,0.0685 -0.116135,0.0886 -0.112629,0.0963 0.02281,0.0535 0.08687,-0.0274 0.158064,-0.0114 0.158064,0.0358 0,0.0472 0.04663,0.0862 0.103962,0.0862 0.0578,0 0.02795,-0.085 -0.06736,-0.19051 -0.12664,-0.13968 -0.136326,-0.17911 -0.0366,-0.14847 0.07447,0.0228 0.202273,0.17807 0.284305,0.34521 0.164373,0.33491 0.08994,0.52535 -0.205272,0.52535 -0.09321,0 -0.169204,0.0347 -0.169204,0.0768 0,0.10354 -0.726872,0.0997 -0.930885,-0.005 v 5.3e-4 c -0.110178,-0.0567 -0.206627,-0.0499 -0.293852,0.0213 -0.103118,0.084 -0.129422,0.078 -0.129422,-0.0306 0,-0.4166 0.358691,-0.57547 0.541557,-0.23983 0.09939,0.18252 0.361216,0.24679 0.361216,0.0888 0,-0.0487 -0.07119,-0.0896 -0.158065,-0.0903 -0.134984,-0.001 -0.138552,-0.0138 -0.02281,-0.0872 0.115708,-0.0734 0.112691,-0.0862 -0.02228,-0.0872 -0.08687,-8e-4 -0.158065,-0.0346 -0.158065,-0.0753 0,-0.16871 0.263226,-0.0569 0.360685,0.15314 0.09679,0.20865 0.1132,0.21409 0.197316,0.0664 0.06739,-0.11826 0.154678,-0.1465 0.330981,-0.10642 0.36584,0.0832 0.04637,-0.10694 -0.369702,-0.22011 -0.193965,-0.0528 -0.338937,-0.14742 -0.338937,-0.22166 0,-0.0713 -0.05751,-0.12978 -0.128362,-0.12978 -0.170997,0 -0.68371,0.61786 -0.68371,0.82384 0,0.0966 -0.04101,0.13719 -0.100249,0.10123 -0.18147,-0.11017 -0.0055,-0.77242 0.262558,-0.9884 0.134003,-0.10798 0.296694,-0.19734 0.361215,-0.19934 0.06452,-0.002 0.237028,-0.0642 0.383493,-0.13861 0.0873,-0.0444 0.154158,-0.0692 0.198907,-0.0753 z m 2.8700963,0.0275 c 5.7e-4,0.004 10e-4,0.009 0.0016,0.0135 3.53e-4,-0.001 7.33e-4,-0.005 5.43e-4,-0.01 -6.24e-4,-0.001 -0.0013,-0.002 -0.0021,-0.004 z m -2.4468213,0.006 c 0.05257,0 0.09548,0.0394 0.09548,0.0883 0,0.0488 -0.01789,0.0888 -0.03978,0.0888 -0.0219,0 -0.0648,-0.0401 -0.09548,-0.0888 -0.03068,-0.0488 -0.01279,-0.0883 0.03978,-0.0883 z M 5.2476547,6.5697 c 0.189628,0.006 0.27313,0.0285 0.185646,0.0509 -0.08748,0.0224 -0.132955,0.082 -0.10131,0.13237 0.03731,0.0594 -0.01798,0.0686 -0.157004,0.0265 -0.121746,-0.0369 -0.1818,-0.031 -0.138969,0.013 0.04147,0.0426 0.204124,0.0855 0.361215,0.0955 0.627477,0.0397 0.647779,0.0512 0.609982,0.35196 -0.0072,0.0573 0.03472,0.13316 0.09335,0.16872 0.06386,0.0388 0.0824,0.0266 0.04668,-0.0301 -0.0328,-0.0521 -0.0093,-0.11125 0.05198,-0.13134 0.08146,-0.0267 0.06701,-0.10319 -0.05357,-0.28396 -0.114744,-0.17203 -0.127655,-0.23507 -0.04296,-0.20764 0.302867,0.0982 0.384953,0.86862 0.0854,0.80152 -0.05441,-0.0122 -0.100616,0.0273 -0.102371,0.0883 -0.0018,0.0609 -0.05762,0.0146 -0.124118,-0.10331 L 5.8406697,7.32773 5.7361777,7.5198 c -0.08038,0.14749 -0.187814,0.19259 -0.462525,0.19259 -0.224655,0 -0.358961,-0.0415 -0.360686,-0.11109 -0.0015,-0.0615 -0.04389,-0.042 -0.09494,0.0441 -0.09363,0.15791 -0.263619,0.21291 -0.263619,0.0851 0,-0.0387 -0.128635,-0.1086 -0.285895,-0.15521 -0.193842,-0.0575 -0.295127,-0.14924 -0.315069,-0.28448 -0.01618,-0.10969 0.01351,-0.19934 0.0663,-0.19934 0.0528,0 0.273116,-0.11951 0.489577,-0.26579 0.282136,-0.19072 0.491181,-0.26296 0.738343,-0.25593 z m 4.000419,0.002 c 0.08534,0 0.06869,0.0283 -0.04509,0.0763 -0.09929,0.042 -0.241663,0.0763 -0.31613,0.0763 -0.08534,0 -0.0687,-0.0283 0.04509,-0.0763 0.09929,-0.042 0.241663,-0.0763 0.31613,-0.0763 z M 11.6636,6.73107 c 3.54e-4,0.002 7.88e-4,0.005 0.0011,0.007 l 5.43e-4,-5.4e-4 c -7.61e-4,-0.003 -9.78e-4,-0.004 -0.0016,-0.007 z m -0.0016,0.005 c 2.2e-4,0.001 3.53e-4,0.002 5.43e-4,0.004 l 5.43e-4,-5.3e-4 c -2.49e-4,-8e-4 -6.51e-4,-0.002 -0.0011,-0.003 z M 4.9113597,6.87882 c -0.101592,-0.01 -0.270556,0.1166 -0.447143,0.33847 -0.128514,0.16151 -0.120865,0.16746 0.150109,0.11472 0.196117,-0.0381 0.319622,-0.0151 0.394631,0.0737 0.135609,0.16053 0.234273,0.16448 0.293852,0.0119 0.06056,-0.15501 -0.24682,-0.3378 -0.451386,-0.26838 -0.144197,0.049 -0.143156,0.0405 0.01008,-0.0768 0.0944,-0.0723 0.134411,-0.15365 0.08911,-0.18117 -0.01158,-0.007 -0.02474,-0.0111 -0.03925,-0.0125 z m 6.2753853,0.0104 c 4.62e-4,0.002 5.7e-4,0.003 0.0011,0.005 -3.53e-4,-0.002 -7.6e-4,-0.004 -0.0011,-0.005 z m -5.6394023,0.1131 c -0.103326,0 -0.180343,0.0589 -0.180343,0.13809 0,0.0847 0.0432,0.11416 0.112449,0.0758 0.09026,-0.05 0.09026,-0.0384 0,0.0571 -0.06205,0.0657 -0.112449,0.15102 -0.112449,0.19 0,0.1634 0.191358,0.0537 0.272636,-0.15626 0.116789,-0.30153 0.116138,-0.30472 -0.09229,-0.30472 z m -1.454939,0.17754 c -0.04964,0 -0.06516,0.0395 -0.03448,0.0883 0.03068,0.0488 0.09675,0.0888 0.146396,0.0888 0.04963,0 0.06516,-0.0401 0.03448,-0.0888 -0.03068,-0.0488 -0.09675,-0.0883 -0.146395,-0.0883 z m 7.6327263,0.0903 c 0.0012,0.006 0.005,0.024 0.0037,0.0171 -8.15e-4,-0.005 -0.0016,-0.009 -0.0027,-0.014 -2.47e-4,-10e-4 -0.0013,-0.004 -0.0011,-0.003 z m -1.7296957,0.0317 c 0.0095,-0.009 0.02219,0.003 0.0366,0.0384 h -5.43e-4 c 0.02611,0.064 0.0231,0.14032 -0.0069,0.16975 -0.02999,0.0295 -0.05111,-0.0229 -0.04721,-0.11628 0.0022,-0.0516 0.0085,-0.0826 0.01804,-0.0919 z m -8.6734086,0.13082 -5.3e-4,5.3e-4 c 0.0026,0.002 0.0047,0.004 0.0064,0.005 -3.12e-4,-10e-4 -2.4e-4,-0.002 -5.29e-4,-0.003 -0.0019,-10e-4 -0.0047,-0.002 -0.0053,-0.003 z m 0.141091,0.12926 5.3e-4,5.3e-4 z m 0.413197,0.19208 c -0.01532,-10e-4 -0.02878,0.002 -0.03978,0.008 -0.1309,0.0795 -0.09122,0.19975 0.07797,0.23672 0.217292,0.0475 0.248863,0.007 0.115631,-0.15107 -0.04676,-0.0554 -0.107854,-0.0909 -0.153821,-0.094 z m 8.0883566,0.0462 c 0.05257,0 0.09548,0.0401 0.09548,0.0888 0,0.0488 -0.01789,0.0888 -0.03978,0.0888 -0.02189,0 -0.0648,-0.0401 -0.09548,-0.0888 -0.03068,-0.0488 -0.01279,-0.0888 0.03978,-0.0888 z m -1.2242066,0.0311 c 0.03289,-0.006 0.05623,0.0125 0.05623,0.0504 0,0.0608 0.07541,0.0635 0.225958,0.007 0.124106,-0.0462 0.225428,-0.0502 0.225428,-0.008 0,0.0419 -0.09145,0.10035 -0.20315,0.12978 v 5.3e-4 c -0.275014,0.0724 -0.319416,0.0689 -0.37978,-0.027 -0.02855,-0.0454 -0.01067,-0.10745 0.03978,-0.13808 0.01261,-0.008 0.02457,-0.0125 0.03554,-0.0145 z M 0.07182915,7.98809 c 0.0013,0.005 0.0012,0.008 0.0021,0.0125 2.9e-4,10e-4 0.0019,0.005 0.0016,0.004 -0.0028,-0.0127 -0.0013,-0.007 -0.0037,-0.0166 z m -0.06896,0.0228 c -0.0013,0.003 -0.0013,10e-4 -0.0027,0.004 -9.32e-4,0.002 0.0022,-0.002 0.0042,-0.004 -5.31e-4,-10e-6 -0.0011,10e-6 -0.0016,0 z m 11.44166485,0.009 c -3.5e-5,2.6e-4 4.5e-5,5.3e-4 0,10e-4 1.2e-4,-2.7e-4 3.8e-4,-8e-4 5.43e-4,-10e-4 z m -0.0048,0.0285 c -5.44e-4,0.004 -6.25e-4,0.012 -0.0027,0.0203 -5.16e-4,0.002 10e-4,-0.004 0.0016,-0.006 4.89e-4,-0.005 8.97e-4,-0.0115 0.0011,-0.014 z m -0.545271,0.0374 c -5.16e-4,2.7e-4 -0.0038,0.003 -0.0048,0.004 -4.07e-4,5.3e-4 -6.52e-4,10e-4 -0.0011,0.002 8.15e-4,-10e-4 0.0081,-0.007 0.0058,-0.006 z m -0.9563447,0.003 c 0.01173,0.005 0.0031,0.0367 -0.02069,0.0976 -0.03127,0.08 -0.09306,0.14535 -0.1373776,0.14535 -0.11607,0 -0.09987,-0.0514 0.05675,-0.1791 0.05747,-0.0469 0.08958,-0.0687 0.1013096,-0.0639 z m 1.4957807,0 c -6.51e-4,0.002 -0.0015,0.003 -0.0021,0.005 v 5.4e-4 c -1.82e-4,0.001 -3.53e-4,0.002 -5.43e-4,0.004 -4.35e-4,0.003 0.0037,-0.012 0.0027,-0.009 z m -0.552696,0.008 c -5.16e-4,8e-4 -0.0016,8e-4 -0.0021,0.002 -3.81e-4,0.001 -6.52e-4,0.002 -0.0011,0.003 h 5.43e-4 l 5.43e-4,-5.3e-4 c 7.6e-4,-10e-4 0.0014,-0.003 0.0021,-0.004 z m -9.0733443,0.0929 c -0.0046,2.7e-4 -0.0052,8e-4 -0.0085,10e-4 -0.0013,0.002 -0.0019,0.003 -0.0032,0.005 0.01277,-0.002 0.01918,-0.002 0.02387,-0.003 -5.13e-4,-2.6e-4 -0.0011,-0.001 -0.0016,-0.002 -0.0023,-5.3e-4 -10e-4,-8e-4 -0.01061,-10e-4 z m -0.01008,0.002 c -0.0027,1.4e-4 -0.0049,5.3e-4 -0.0074,0.001 0.0011,10e-4 0.0021,0.002 0.0032,0.003 0.0016,-0.002 0.0024,-0.002 0.0042,-0.004 z m 5.995324,0.14068 c 0.04964,0 0.115716,0.0401 0.146396,0.0888 0.03068,0.0488 0.01517,0.0888 -0.03448,0.0888 -0.04964,0 -0.115716,-0.04 -0.146396,-0.0888 -0.03068,-0.0488 -0.01517,-0.0888 0.03448,-0.0888 z m -7.56748555,0.0129 c -8.61e-4,2.6e-4 -0.0018,-7e-5 -0.0027,5.3e-4 -0.0044,0.003 -0.01227,0.009 -0.009,0.007 0.0039,-0.002 0.0078,-0.005 0.01167,-0.007 z M 10.711997,8.37537 c 7.61e-4,10e-4 0.0015,0.002 0.0042,0.005 1.03e-4,-5.3e-4 -1.08e-4,-5.3e-4 0,-10e-4 v -5.3e-4 c -4.35e-4,-5.3e-4 -0.0012,-10e-4 -0.0016,-0.002 -7.88e-4,-8e-4 -0.0019,-10e-4 -0.0027,-0.002 z m 0.0313,0.0343 c 2.06e-4,5.4e-4 3.26e-4,10e-4 5.43e-4,0.002 l 5.43e-4,5.3e-4 c 5.98e-4,5.3e-4 4.89e-4,5.3e-4 0.0011,10e-4 -2.48e-4,-5.3e-4 -1.18e-4,-10e-4 -5.43e-4,-0.002 -3.53e-4,-5.3e-4 -7.06e-4,-10e-4 -0.0011,-0.002 z m 0.0058,0.005 c 1.46e-4,2.7e-4 3.81e-4,8e-4 5.43e-4,0.001 l 5.44e-4,-5.4e-4 c -2.37e-4,-2.6e-4 -8.15e-4,-9e-5 -0.0011,-5.3e-4 z m -3.1899383,0.0509 0.06471,0.22166 c 0.04389,0.14966 0.01068,0.31699 -0.102901,0.51497 -0.09252,0.16127 -0.168673,0.33087 -0.168673,0.37688 0,0.14051 0.33145,0.0929 0.463055,-0.0664 0.06814,-0.0826 0.08307,-0.12611 0.03342,-0.0971 -0.05465,0.032 -0.09017,-0.10156 -0.09017,-0.33795 0,-0.48142 0.07424,-0.49823 0.211637,-0.0478 0.120481,0.395 0.12847,0.54875 0.03554,0.68731 -0.09783,0.14593 -0.396639,0.20166 -0.653476,0.122 -0.124108,-0.0385 -0.349395,-0.0739 -0.501246,-0.0789 -0.151852,-0.005 -0.353714,-0.0645 -0.448204,-0.13238 -0.145968,-0.10484 -0.153807,-0.14464 -0.05145,-0.26579 0.06625,-0.0784 0.196932,-0.14275 0.29014,-0.14275 0.09321,0 0.169203,-0.0489 0.169203,-0.1085 0,-0.0596 0.06425,-0.0181 0.142683,0.0919 l 0.142682,0.19987 0.159657,-0.20246 c 0.08774,-0.11134 0.191745,-0.32195 0.231262,-0.46825 z m -5.681847,0.11109 -5.29e-4,5.3e-4 c 5.08e-4,-7e-5 0.0011,6e-5 0.0016,0 V 8.57666 Z M 0.37622715,8.68048 c -0.0017,0.001 -0.0036,0.002 -0.0053,0.003 -6.38e-4,5.3e-4 -0.0015,5.3e-4 -0.0021,0.001 l -5.3e-4,5.3e-4 c -3.94e-4,2.7e-4 -6.57e-4,-2e-4 -0.0011,5.4e-4 -5.13e-4,5.3e-4 -5.24e-4,0.001 -0.0011,0.002 -0.0034,0.003 -0.0034,0.005 -0.0074,0.009 -6.41e-4,1.7e-4 0.0048,-10e-4 0.0042,-10e-4 l 5.29e-4,-5.3e-4 h 5.3e-4 c 0.0015,-0.002 0.0032,-0.003 0.0048,-0.005 0.0024,-0.003 0.0051,-0.006 0.0074,-0.009 z m -0.01326,0.0145 -0.0058,0.003 c -4.02e-4,5.3e-4 -1.49e-4,5.3e-4 -5.3e-4,0.001 0.0011,-2.6e-4 0.0021,-7.9e-4 0.0032,-0.001 0.001,-10e-4 0.0022,-0.002 0.0032,-0.003 z m -0.0058,0.003 c 9.12e-4,-10e-4 6.98e-4,-10e-4 0.0016,-0.002 6.41e-4,-1.7e-4 -0.005,10e-4 -0.0042,10e-4 -0.0022,0.002 -0.0024,0.002 -0.0042,0.004 0.0014,-5.3e-4 0.0028,-10e-4 0.0042,-0.002 z m 1.58011755,-0.009 c 0.0013,10e-4 0.0024,0.002 0.0037,0.004 -3.9e-5,2.6e-4 -0.0015,-0.004 -0.0016,-0.004 -7.09e-4,10e-6 -0.0014,0 -0.0021,0 z m 0.0854,0.003 c -0.01184,0.0109 -0.02303,0.0223 -0.03554,0.0327 -2.6e-5,2.6e-4 -5.05e-4,7.9e-4 -5.29e-4,0.001 0.01223,-0.0111 0.02497,-0.0218 0.036069,-0.0337 z m -0.06683,0.004 c 0.0021,0.005 0.0038,0.0104 0.0058,0.0156 h 5.29e-4 c -0.0014,-0.004 -0.0017,-0.006 -0.0042,-0.013 -0.0013,-10e-4 -8.72e-4,-10e-4 -0.0021,-0.003 z m 0.0085,0.0104 c 0.0015,0.004 8.18e-4,0.005 0.0027,0.01 8.94e-4,-10e-4 0.0018,-0.002 0.0027,-0.004 -0.0022,-0.002 -0.0025,-0.003 -0.0053,-0.006 z m -1.71643355,0.054 c -0.0062,0.005 -0.0065,0.005 -0.01114,0.009 0.0046,-0.002 0.0025,-0.002 0.0064,-0.003 h 5.29e-4 l 5.3e-4,-5.3e-4 c 0.002,-0.003 0.0017,-0.002 0.0037,-0.005 z m -0.008,0.004 c 0.004,-0.003 -0.01274,0.007 -0.01803,0.0109 0.003,-0.001 0.0018,-7.9e-4 0.009,-0.004 0.0036,-0.003 0.01,-0.007 0.009,-0.007 z m -0.01379,0.0119 c -1.7e-5,-1.1e-4 -0.0036,0.002 -0.0042,0.002 1.1e-4,-2e-5 0.002,-5.4e-4 0.0021,-5.4e-4 0.0014,-10e-4 8.94e-4,-5.3e-4 0.0021,-0.002 z M 2.0200067,9.07114 c 9.45e-4,0.004 0.0022,0.008 0.0032,0.0125 3.94e-4,5.3e-4 6.65e-4,10e-4 0.0011,0.002 0.0025,0.004 -0.0053,-0.0194 -0.0042,-0.0145 z m 7.8905106,0.0945 c 0.0244,5.3e-4 0.02683,0.0353 0.0037,0.0945 -0.06001,0.15359 -0.1246486,0.18203 -0.1246486,0.0545 0,-0.0459 0.04004,-0.10774 0.08911,-0.13757 0.01279,-0.008 0.02369,-0.0116 0.03183,-0.0114 z m -3.1071926,0.2434 c -0.03136,-10e-4 -0.06714,0.004 -0.09972,0.0171 -0.07199,0.0283 -0.05051,0.0495 0.05463,0.0535 0.09515,0.004 0.148806,-0.0173 0.118814,-0.0467 -0.015,-0.0148 -0.04237,-0.0226 -0.07373,-0.0239 z m -3.953212,0.0701 c -10e-4,0.002 -0.0022,0.003 -0.0032,0.005 -1.67e-4,5.3e-4 -3.53e-4,10e-4 -5.43e-4,0.002 0.0014,-0.002 0.0023,-0.003 0.0032,-0.005 2.42e-4,-5.3e-4 -3.9e-5,-10e-4 5.44e-4,-0.002 z m 7.6274223,0.61983 c -6.52e-4,0.002 -4.07e-4,0.004 -0.0016,0.007 -0.0038,0.008 -0.0038,0.006 0.0016,-0.007 z m -3.7044443,0.22997 c 0.566118,-2.7e-4 1.120775,0.0211 1.120775,0.0649 0,0.0374 -0.05039,0.0712 -0.112449,0.0742 -0.06205,0.003 -0.03192,0.0389 0.06736,0.0789 0.168484,0.0678 0.164298,0.0789 -0.06736,0.16871 -0.136508,0.0529 -0.248236,0.15947 -0.248236,0.23672 0,0.0772 -0.03899,0.11708 -0.08646,0.0882 -0.04747,-0.0288 -0.06351,-0.1111 -0.03554,-0.18273 0.05443,-0.13933 -0.04109,-0.16861 -0.203151,-0.0623 v -0.001 c -0.05461,0.0358 -0.115412,0.10742 -0.135256,0.15885 -0.0247,0.064 -0.101599,0.0605 -0.243463,-0.0104 -0.204394,-0.10227 -0.203208,-0.10454 0.09017,-0.17546 0.622786,-0.1505 0.767722,-0.21369 0.397814,-0.17391 -0.193139,0.0208 -0.417664,0.002 -0.499124,-0.0405 -0.08147,-0.0423 -0.289287,-0.0444 -0.461464,-0.005 l -0.312947,0.0721 0.406301,0.0239 c 0.397553,0.0234 0.39872,0.0249 0.07214,0.0587 -0.268156,0.0277 -0.322641,0.0637 -0.27794,0.18429 0.04942,0.13333 0.03505,0.132 -0.132074,-0.0119 -0.103447,-0.0891 -0.27958,-0.14887 -0.390919,-0.1329 -0.111339,0.016 -0.216376,-0.0121 -0.233915,-0.0623 -0.01754,-0.0503 0.07648,-0.10025 0.209516,-0.1111 0.332947,-0.0271 0.390275,-0.10797 0.07638,-0.10797 -0.140655,0 -0.225528,-0.0299 -0.188299,-0.0665 0.04468,-0.0437 0.622021,-0.0656 1.188139,-0.0659 z m 1.425766,0.16716 c 0.03289,10e-4 0.05622,0.0364 0.05622,0.0934 0,0.1557 -0.05417,0.17852 -0.131544,0.0555 -0.02856,-0.0454 -0.01067,-0.10744 0.03978,-0.13808 0.01261,-0.008 0.02458,-0.0113 0.03554,-0.0109 z m -4.774301,0.15781 c 0.0012,0.005 0.0026,0.01 0.0037,0.015 v 5.3e-4 c 4.89e-4,0.002 0.0011,0.004 0.0016,0.006 0.0053,0.003 0.01123,0.007 0.01804,0.0119 -0.0077,-0.0114 -0.01566,-0.0222 -0.02334,-0.0337 z m 0.01962,0.0794 c 3.81e-4,0.001 2.99e-4,0.003 5.44e-4,0.004 v 5.3e-4 c 3.53e-4,10e-4 8.69e-4,0.002 0.0011,0.003 l 5.43e-4,5.3e-4 c -10e-4,-0.004 -0.0014,-0.005 -0.0021,-0.008 z m 6.9463653,0.0524 c -0.0032,0.009 -0.0063,0.018 -0.0095,0.027 0.0017,-0.004 0.0033,-0.007 0.0048,-0.0114 0.002,-0.005 0.0068,-0.0207 0.0048,-0.0156 z m -7.2731033,0.37325 c 6.25e-4,10e-4 9.51e-4,0.003 0.0016,0.004 2.58e-4,2.5e-4 -3e-5,7.9e-4 5.43e-4,10e-4 3.53e-4,2.7e-4 6.79e-4,8e-4 0.0011,0.001 -6.52e-4,-0.002 -0.0015,-0.003 -0.0021,-0.005 -4.62e-4,-5.4e-4 -5.98e-4,-10e-4 -0.0011,-0.002 z m 0.0042,0.005 c 1.29e-4,2.3e-4 -1.3e-4,8e-4 0,0.001 3.8e-4,10e-4 -1.28e-4,5.3e-4 5.43e-4,0.002 3.53e-4,5.3e-4 -1.24e-4,0.002 5.43e-4,0.003 2.72e-4,2.7e-4 7.61e-4,5.4e-4 0.0011,10e-4 -5.44e-4,-10e-4 6.7e-5,-0.002 -5.44e-4,-0.003 -3.26e-4,-0.002 1.19e-4,-8e-4 -5.43e-4,-0.003 -2.71e-4,-2.5e-4 -7.87e-4,2e-5 -0.0011,-5.3e-4 z m 0.0011,5.3e-4 c 2.99e-4,10e-4 7.61e-4,0.002 0.0011,0.004 7.34e-4,5.3e-4 0.0014,10e-4 0.0021,0.002 -1.39e-4,-8e-4 -3.81e-4,-0.002 -5.44e-4,-0.003 -9.23e-4,-8e-4 -0.0017,-0.002 -0.0027,-0.003 z m 0.0011,0.004 c 2e-4,10e-4 -1.83e-4,8e-4 0,0.002 v 5.3e-4 c 3.26e-4,0.002 7.88e-4,0.002 0.0011,0.004 -7.88e-4,-0.002 -0.0014,-0.003 -0.0021,-0.005 l -5.43e-4,-5.3e-4 c 4.9e-5,5.3e-4 -4.8e-5,10e-4 0,0.002 4.07e-4,8e-4 6.25e-4,0.002 0.0011,0.003 1.26e-4,4e-5 5.16e-4,0.002 5.43e-4,0.002 1.7e-5,-9e-5 0.0011,0.001 0.0011,0.001 7.4e-5,5.3e-4 -7.2e-5,5.3e-4 0,10e-4 2.31e-4,5.3e-4 8.41e-4,10e-4 0.0011,0.002 -1.18e-4,-2.6e-4 7.9e-5,-7.9e-4 0,-0.001 -2.15e-4,-8e-4 -3.26e-4,-0.002 -5.44e-4,-0.003 -7.33e-4,-0.002 -2.71e-4,-0.002 -0.0011,-0.004 -2.1e-4,-8e-4 -3.26e-4,-0.002 -5.43e-4,-0.003 z m 3.817425,0.003 c 0.07739,0 0.140561,0.0401 0.140561,0.0888 0,0.0488 -0.03815,0.0888 -0.08487,0.0888 -0.04671,0 -0.10988,-0.0401 -0.140561,-0.0888 -0.03067,-0.0488 0.0075,-0.0888 0.08487,-0.0888 z m -3.812647,0.027 c 2e-4,0.001 8.69e-4,0.005 0.0011,0.006 9.77e-4,0.002 0.0022,0.003 0.0032,0.005 -2.99e-4,-0.002 -7.88e-4,-0.003 -0.0011,-0.005 -0.0011,-0.002 -0.0021,-0.004 -0.0032,-0.005 z m 5.306841,0.41634 c 0.04965,0 0.0907,0.0401 0.0907,0.0888 0,0.0488 -0.04106,0.0888 -0.0907,0.0888 -0.04965,0 -0.09017,-0.04 -0.09017,-0.0888 0,-0.0488 0.04052,-0.0888 0.09017,-0.0888 z m -3.985568,0.0883 v 5.3e-4 c -2.2e-5,0 0.0011,5.3e-4 0.0011,5.3e-4 -5.16e-4,-5.3e-4 2.72e-4,-5.3e-4 -5.43e-4,-0.001 z m 0.0042,10e-4 c 5.7e-4,5.3e-4 0.001,0.001 0.0016,0.002 5e-5,2e-5 0.0031,10e-4 0.0032,10e-4 -2.4e-4,-2.7e-4 -0.0013,-10e-4 -0.0016,-0.002 -9.51e-4,-2.5e-4 -0.0023,-8e-4 -0.0032,-0.001 z m 0.0785,0.055 c 9.23e-4,0.002 0.0017,0.003 0.0032,0.006 0.0019,0.001 0.003,0.002 0.0048,0.003 -5.7e-4,-10e-4 -0.0011,-0.003 -0.0016,-0.004 -0.0022,-0.002 -0.0042,-0.003 -0.0064,-0.005 z m -0.02016,0.0104 c -1.06e-4,-5e-5 0.0022,0.003 0.0021,0.003 0.0013,10e-4 0.0024,0.002 0.0037,0.004 0.0013,0.001 -0.0012,-0.002 -0.0027,-0.005 l -5.43e-4,-5.3e-4 c -8.69e-4,-5.3e-4 -0.0018,-0.001 -0.0027,-0.002 z m -0.854505,0.40439 c 6.24e-4,0.002 4.07e-4,0.002 0.0011,0.004 0.0012,0.003 9.23e-4,0.003 0.0021,0.006 0.0011,0.002 0.0012,0.002 0.0027,0.005 -5.98e-4,-0.003 -0.0015,-0.005 -0.0021,-0.008 -9.77e-4,-0.002 -0.0028,-0.004 -0.0037,-0.007 z m 6.152859,0.0836 c -0.0044,0.003 -0.0051,0.006 -0.009,0.009 0.0039,-0.003 0.0079,-0.006 0.01167,-0.009 -8.96e-4,0 -0.0018,-10e-6 -0.0027,0 z m 0.01697,0.001 c -0.0027,0.003 -0.0053,0.007 -0.008,0.01 0.0013,-0.001 0.0024,-0.002 0.0037,-0.004 0.005,-0.007 -0.0012,0.002 0.0042,-0.006 z m -0.05622,0.0208 c -9.78e-4,5.3e-4 -0.0022,10e-4 -0.0032,0.002 -5.97e-4,7.9e-4 -5.16e-4,2.6e-4 -0.0027,0.004 3.25e-4,-4e-5 7.33e-4,4e-5 0.0011,0 0.0017,-0.002 0.0028,-0.002 0.0037,-0.004 6.25e-4,-10e-4 5.7e-4,-0.002 0.0011,-0.003 z m -4.24176,0.1521 c 9.78e-4,0.002 0.0017,0.005 0.0027,0.007 -1.36e-4,-2.7e-4 1.41e-4,-8e-4 0,-0.001 -8.14e-4,-0.002 -0.0017,-0.004 -0.0027,-0.006 z m -0.679468,0.19208 c -0.0014,10e-4 -0.0018,0.002 -0.0032,0.003 3.8e-4,2.6e-4 0.0027,8e-4 0.0032,10e-4 9.24e-4,-8e-4 0.0023,-0.002 0.0032,-0.003 -0.001,-5.3e-4 -0.0021,-10e-4 -0.0032,-0.002 z m 0.190951,0.0379 c 0.0011,7.9e-4 0.0011,7.9e-4 0.0021,0.002 1.93e-4,1.3e-4 8.42e-4,8e-4 0.0011,0.001 4.07e-4,2.7e-4 6.79e-4,-6e-5 0.0011,5.3e-4 l 5.43e-4,5.4e-4 c 0.0012,5.3e-4 0.0025,0.001 0.0037,0.002 -2.35e-4,-5.3e-4 -2.98e-4,-10e-4 -5.43e-4,-0.002 h -5.43e-4 c -0.0011,-1.4e-4 -0.0021,-2.6e-4 -0.0032,-5.3e-4 -3.26e-4,-5.3e-4 -7.33e-4,-10e-4 -0.0011,-0.002 -0.0011,-2.7e-4 -0.0021,-8e-4 -0.0032,-0.001 z m 0.01432,0.004 c 1.48e-4,10e-4 -1.5e-4,0.002 0,0.003 h 5.43e-4 c 0.0012,8e-5 0.0042,5.3e-4 0.0053,5.3e-4 -2.65e-4,-5.3e-4 -7.87e-4,-10e-4 -0.0011,-0.002 -0.0015,-5.3e-4 -0.0028,-0.001 -0.0042,-0.002 z m 0.0048,0.002 c 0.0014,5.3e-4 0.0023,10e-4 0.0037,0.002 7.88e-4,3e-5 0.0036,5.4e-4 0.0042,5.4e-4 -8.96e-4,-5.4e-4 -0.0017,-0.001 -0.0027,-0.002 -0.002,-5.3e-4 -0.0038,-0.002 -0.0058,-0.002 1.69e-4,2.7e-4 3.53e-4,8e-4 5.43e-4,10e-4 z m 0.0037,0.002 c -4.89e-4,-10e-6 -0.0021,-5.3e-4 -0.0027,-5.3e-4 4.34e-4,10e-4 0.0012,0.002 0.0016,0.003 0.0065,0.003 0.01309,0.005 0.01963,0.008 l 5.43e-4,-5.3e-4 c -2.6e-4,-2.7e-4 6.8e-5,-8e-4 -5.43e-4,-10e-4 h -5.44e-4 l -5.43e-4,-5.3e-4 c -9.23e-4,-5.3e-4 -0.0012,-5.3e-4 -0.0021,-10e-4 -0.0065,-0.003 -0.0096,-0.004 -0.01538,-0.007 z m 4.547281,0.0286 c -3.26e-4,7.9e-4 1.4e-5,7.9e-4 -5.43e-4,0.002 4.07e-4,-1.7e-4 6.52e-4,-2.7e-4 0.0011,-5.3e-4 4.5e-5,-2.7e-4 -4.7e-5,-8e-4 0,-10e-4 z"
       inkscape:connector-curvature="0" />
  </g>
</svg>
