<?xml version="1.0" encoding="utf-8"?>
<!-- Generator: Adobe Illustrator 21.1.0, SVG Export Plug-In . SVG Version: 6.00 Build 0)  -->
<svg version="1.0" id="Layer_1" xmlns="http://www.w3.org/2000/svg" xmlns:xlink="http://www.w3.org/1999/xlink" x="0px" y="0px"
	 viewBox="0 0 48 48" style="enable-background:new 0 0 48 48;" xml:space="preserve">
<style type="text/css">
	.st0{fill:#FFFFFF;}
</style>
<g>
	<path class="st0" d="M18.7,18.5c-0.3-0.1-0.8,0-1.1,0.3c-0.2,0.2-1.1,1.7-1.1,1.8c0,0.1,0.2,0,0.7-0.2c0.3-0.2,0.6-0.3,0.9-0.6
		c0.4-0.4,0.8-1,0.8-1.2C18.9,18.6,18.8,18.5,18.7,18.5z"/>
	<path class="st0" d="M14.3,26c-0.5-0.3-1,0.2-1.1,1.2c0,0.2,0,0.5,0,0.5c0,0.1,0.1,0.1,0.8-0.4c0.4-0.3,0.6-0.5,0.6-0.8
		C14.6,26.3,14.4,26.1,14.3,26z"/>
	<path class="st0" d="M34.2,25.6c-0.6-2.5-1.1-4.2-1.9-5.7c-0.5-1-1-1.6-1.7-2.3c-1.3-1.3-2.9-2-4.8-2.1c-0.9,0-1.9,0.1-2.1,0.3
		c-0.2,0.2-0.1,0.5,0,0.6c0.1,0.1,0.2,0.1,0.7,0c2-0.3,3.9,0.3,5.4,1.7c1.5,1.4,2.5,3.7,3.4,7.6c0.6,2.8,1,5.3,1.2,8.3
		c0.1,0.8,0.1,0.9,0.2,1c0.2,0.2,0.4,0.2,0.6,0c0.1-0.1,0.1-0.1,0.1-0.7C35.2,31.1,34.8,28.6,34.2,25.6z"/>
	<path class="st0" d="M41,5H7C5.9,5,5,5.9,5,7v34c0,1.1,0.9,2,2,2h34c1.1,0,2-0.9,2-2V7C43,5.9,42.1,5,41,5z M27.3,35.5
		c-7.9,0-8.4,0-8.4-0.1c0-0.1,0-0.4,0-0.7c0-0.5,0-0.7,0.1-1.1c0.3-1,0.6-1.4,2.1-2.9c1.3-1.2,1.6-1.6,2-2.5
		c0.5-0.9,0.7-1.8,0.7-2.9c0-0.7,0-1.5-0.1-1.6c0,0-0.1,0-0.3,0.1c-0.5,0.4-1.3,0.9-2.4,1.4c-2.2,1.1-2.5,1.5-3.3,3
		c-0.2,0.4-0.5,0.8-0.6,1c-0.5,0.8-1.3,1.1-1.7,0.8c-0.2-0.1-0.3-0.3-0.3-0.5c0-0.2,0-0.2-0.3-0.2c-1.3-0.1-2.2-0.7-2.4-1.8
		c-0.2-0.7,0-1.7,0.5-2.7c0.1-0.2,0.5-0.9,0.9-1.5c0.9-1.3,1.1-1.8,1.4-2.5c0.2-0.5,0.2-0.5,0.2-1.5c0-1.2,0-1.2,1-2.2
		c0.8-0.8,1.2-1.3,1.2-1.6c0-0.1,0-0.8-0.1-1.5c-0.1-1.5-0.1-1.6,0-1.6c0,0,0.8,0.4,1.6,0.9s1.6,0.9,1.7,0.9c0,0,0.5-0.4,1-1
		c0.6-0.6,1-1,1-1c0,0,0.3,0.6,0.7,1.4l0.6,1.4l0.2,0c0.9-0.1,2.1,0,2.5,0.1c1.5,0.3,2.8,1,3.9,2.1c1.3,1.3,2.1,2.8,2.9,5.2
		c1.2,3.5,2,8.2,2,11.8l0,1.1L27.3,35.5z"/>
</g>
</svg>
