<?xml version="1.0" encoding="UTF-8" standalone="no"?>
<svg
   xmlns:dc="http://purl.org/dc/elements/1.1/"
   xmlns:cc="http://creativecommons.org/ns#"
   xmlns:rdf="http://www.w3.org/1999/02/22-rdf-syntax-ns#"
   xmlns:svg="http://www.w3.org/2000/svg"
   xmlns="http://www.w3.org/2000/svg"
   xmlns:sodipodi="http://sodipodi.sourceforge.net/DTD/sodipodi-0.dtd"
   xmlns:inkscape="http://www.inkscape.org/namespaces/inkscape"
   width="48"
   height="48"
   viewBox="0 0 48 48"
   version="1.1"
   id="svg904"
   sodipodi:docname="chip.svg"
   inkscape:version="0.92.2 5c3e80d, 2017-08-06">
  <metadata
     id="metadata910">
    <rdf:RDF>
      <cc:Work
         rdf:about="">
        <dc:format>image/svg+xml</dc:format>
        <dc:type
           rdf:resource="http://purl.org/dc/dcmitype/StillImage" />
        <dc:title></dc:title>
      </cc:Work>
    </rdf:RDF>
  </metadata>
  <defs
     id="defs908" />
  <sodipodi:namedview
     pagecolor="#ffffff"
     bordercolor="#666666"
     borderopacity="1"
     objecttolerance="10"
     gridtolerance="10"
     guidetolerance="10"
     inkscape:pageopacity="0"
     inkscape:pageshadow="2"
     inkscape:window-width="1840"
     inkscape:window-height="970"
     id="namedview906"
     showgrid="false"
     inkscape:showpageshadow="false"
     inkscape:pagecheckerboard="true"
     inkscape:snap-bbox="true"
     inkscape:bbox-paths="true"
     inkscape:bbox-nodes="true"
     inkscape:snap-bbox-edge-midpoints="true"
     inkscape:snap-bbox-midpoints="true"
     inkscape:object-paths="true"
     inkscape:snap-intersection-paths="true"
     inkscape:snap-smooth-nodes="true"
     inkscape:snap-midpoints="true"
     inkscape:snap-object-midpoints="true"
     inkscape:snap-center="true"
     inkscape:snap-text-baseline="true"
     inkscape:snap-page="true"
     inkscape:zoom="5.7010484"
     inkscape:cx="10.394774"
     inkscape:cy="1.4136406"
     inkscape:window-x="40"
     inkscape:window-y="40"
     inkscape:window-maximized="1"
     inkscape:current-layer="svg904" />
  <path
     style="fill:#ffffff;stroke-width:0.25"
     d="M 10 4 C 8.892 4 8 4.892 8 6 L 8 42 C 8 43.108 8.892 44 10 44 L 38 44 C 39.108 44 40 43.108 40 42 L 40 6 C 40 4.892 39.108 4 38 4 L 10 4 z M 17.677734 7.3496094 A 0.320925 0.320925 0 0 1 17.708984 7.3496094 L 20.757812 7.3496094 L 23.806641 7.3496094 A 0.320925 0.320925 0 0 1 24.126953 7.6699219 L 24.126953 12.068359 A 0.320925 0.320925 0 0 1 24.035156 12.292969 L 20.986328 15.384766 A 0.320925 0.320925 0 0 1 20.529297 15.384766 L 17.480469 12.292969 A 0.320925 0.320925 0 0 1 17.388672 12.068359 L 17.388672 7.6699219 A 0.320925 0.320925 0 0 1 17.677734 7.3496094 z M 11.638672 13.388672 A 0.320925 0.320925 0 0 1 11.669922 13.388672 L 16.068359 13.388672 A 0.320925 0.320925 0 0 1 16.294922 13.480469 L 19.384766 16.529297 A 0.320925 0.320925 0 0 1 19.384766 16.986328 L 16.294922 20.035156 A 0.320925 0.320925 0 0 1 16.068359 20.126953 L 11.669922 20.126953 A 0.320925 0.320925 0 0 1 11.349609 19.806641 L 11.349609 16.757812 L 11.349609 13.708984 A 0.320925 0.320925 0 0 1 11.638672 13.388672 z M 25.414062 13.388672 A 0.320925 0.320925 0 0 1 25.445312 13.388672 L 29.84375 13.388672 A 0.320925 0.320925 0 0 1 30.164062 13.708984 L 30.164062 16.757812 L 30.164062 19.806641 A 0.320925 0.320925 0 0 1 29.84375 20.126953 L 25.445312 20.126953 A 0.320925 0.320925 0 0 1 25.220703 20.035156 L 22.128906 16.986328 A 0.320925 0.320925 0 0 1 22.128906 16.529297 L 25.220703 13.480469 A 0.320925 0.320925 0 0 1 25.414062 13.388672 z M 20.753906 18.033203 A 0.320925 0.320925 0 0 1 20.986328 18.128906 L 24.035156 21.220703 A 0.320925 0.320925 0 0 1 24.126953 21.445312 L 24.126953 25.84375 A 0.320925 0.320925 0 0 1 23.806641 26.164062 L 20.757812 26.164062 L 17.708984 26.164062 A 0.320925 0.320925 0 0 1 17.388672 25.84375 L 17.388672 21.445312 A 0.320925 0.320925 0 0 1 17.480469 21.220703 L 20.529297 18.128906 A 0.320925 0.320925 0 0 1 20.753906 18.033203 z M 32.216797 28.482422 A 4.6112499 4.6112499 0 0 1 36.494141 31.896484 A 4.6112499 4.6112499 0 0 1 33.234375 37.544922 A 4.6112499 4.6112499 0 0 1 27.585938 34.283203 A 4.6112499 4.6112499 0 0 1 30.845703 28.636719 A 4.6112499 4.6112499 0 0 1 32.216797 28.482422 z M 21.205078 31.431641 A 4.6112499 4.6112499 0 0 1 25.482422 34.847656 A 4.6112499 4.6112499 0 0 1 22.222656 40.494141 A 4.6112499 4.6112499 0 0 1 16.574219 37.234375 A 4.6112499 4.6112499 0 0 1 19.835938 31.585938 A 4.6112499 4.6112499 0 0 1 21.205078 31.431641 z "
     id="rect1093" />
</svg>
