<?xml version="1.0" encoding="utf-8"?>
<!-- Generator: Adobe Illustrator 21.1.0, SVG Export Plug-In . SVG Version: 6.00 Build 0)  -->
<svg version="1.0" id="Layer_1" xmlns="http://www.w3.org/2000/svg" xmlns:xlink="http://www.w3.org/1999/xlink" x="0px" y="0px"
	 viewBox="0 0 48 48" style="enable-background:new 0 0 48 48;" xml:space="preserve">
<style type="text/css">
	.st0{fill:#FCFDFE;}
</style>
<path class="st0" d="M13.7,22.6c-1.7-2.9-3.3-5.6-4.8-8.3c-0.6-1.1-1.2-2.2-1.9-3.2C6.6,10.5,6.5,10.2,7,9.6
	C16.8-1.9,34.6,0,42,12.8c0.5,0.9,0.2,0.9-0.6,0.9c-5.8,0-11.6,0-17.4,0c-5.5,0-9,2.9-10.1,8.2C13.8,22.1,13.8,22.2,13.7,22.6z"/>
<path class="st0" d="M29.1,15.4c4.7,0,9.2,0,13.6,0c0.7,0,0.8,0.5,0.9,1c2.1,6.3,1.6,12.3-1.9,18c-4.1,6.8-10.3,10.1-18.2,10.5
	c-0.4,0-0.9,0.1-1.1-0.2c-0.3-0.4,0.2-0.7,0.4-1.1c2.9-5,5.8-10,8.7-14.9c2.6-4.4,1.9-9.1-1.9-12.6C29.5,15.9,29.4,15.7,29.1,15.4z"
	/>
<path class="st0" d="M5.5,11.8c2.3,3.9,4.5,7.7,6.7,11.5c0.9,1.5,1.8,3.1,2.7,4.6c2.4,4.1,6.4,5.9,11,4.8c0.3-0.1,0.8-0.4,1.1-0.1
	c0.2,0.3-0.1,0.7-0.3,1c-1.9,3.3-3.9,6.5-5.7,9.8c-0.4,0.8-0.9,1-1.8,0.8c-8.1-1.5-15.2-8.6-16.7-16.8c-1-5.2-0.2-10.1,2.4-14.7
	C5,12.5,5.2,12.2,5.5,11.8z"/>
<path class="st0" d="M31.3,23.4c0,4.3-3.6,7.9-7.9,7.9c-4.3,0-7.9-3.6-7.9-7.9c0-4.3,3.6-7.9,7.9-7.9C27.7,15.5,31.3,19.1,31.3,23.4
	z M22.2,24.3c-0.1,0.1-0.3,0.2-0.4,0.3c-0.5-0.6-1.1-1.3-1.6-1.9c-0.5-0.5-1-0.5-1.5,0c-0.4,0.5-0.4,1,0,1.4
	c1.4,1.4,2.7,2.7,4.1,4.1c0.3,0.3,0.6,0.4,0.9,0c1.4-1.4,2.7-2.7,4.1-4.1c0.4-0.4,0.5-1,0-1.4c-0.5-0.5-1-0.5-1.5,0
	c-0.4,0.4-0.9,0.9-1.3,1.3c-0.1,0.1-0.3,0.3-0.5,0.3c-0.3,0-0.2-0.3-0.2-0.6c0-1.4,0-2.7,0-4.1c0-0.8-0.1-1.5-1.1-1.5
	c-1.1,0-1.1,0.8-1.1,1.5C22.2,21.2,22.2,22.7,22.2,24.3z"/>
</svg>
