<?xml version="1.0" encoding="UTF-8"?>
<svg version="1.1" viewBox="0 0 48 48" xmlns="http://www.w3.org/2000/svg">
    <path d="m19.5 33.868c0 0.55228-0.44772 1-1 1s-1-0.44772-1-1 0.44772-1 1-1 1 0.44772 1 1zm-4.6199-4.3999c0 0.55228-0.44772 1-1 1s-1-0.44772-1-1 0.44772-1 1-1 1 0.44772 1 1zm4.5649-15.62c0 0.55228-0.44772 1-1 1s-1-0.44772-1-1 0.44772-1 1-1 1 0.44772 1 1zm-4.7849 3.9049c0 0.55228-0.44772 1-1 1s-1-0.44772-1-1 0.44772-1 1-1 1 0.44772 1 1zm7.6786 17.167v-1.2604c0-0.69315 0.27214-1.2512 0.61017-1.2512s0.61017 0.55802 0.61017 1.2512v1.2604c0 0.69315-0.27214 1.2512-0.61017 1.2512s-0.61017-0.55802-0.61017-1.2512zm0.11017-20.788v-1.5c0-0.6925 0.223-1.25 0.5-1.25s0.5 0.5575 0.5 1.25v1.5c0 0.6925-0.223 1.25-0.5 1.25s-0.5-0.5575-0.5-1.25zm-10.132 9.1534h1.5c0.6925 0 1.25 0.223 1.25 0.5s-0.5575 0.5-1.25 0.5h-1.5c-0.6925 0-1.25-0.223-1.25-0.5s0.5575-0.5 1.25-0.5zm10.378-13.498c-4.7657 0.086401-9.16 2.5915-11.662 6.6484-2.7791 4.5057-2.7791 10.194 0 14.699 2.7792 4.5062 7.8626 7.0593 13.137 6.5977l-0.08008-0.91406c-4.9003 0.39965-9.6108-1.9824-12.193-6.166-2.5969-4.2098-2.5969-9.5245 0-13.734 2.5816-4.1851 7.2923-6.5688 12.193-6.1699l0.08008-0.91016c-0.4903-0.042835-0.98252-0.059785-1.4746-0.05078zm4.122 0.87104c-0.53595 0.54183 2.3169 3.0453 2.3169 3.0453s1.3193 1.2522 1.3836 2.074c0.05033 0.59815-0.32144 1.8336-0.70157 2.2892-0.46678 0.55902-1.6854 1.1376-2.3535 1.5066-1.7302 0.95873-2.2724 1.6994-3.343 3.3541-0.32144 0.49753-0.83015 1.2271-0.52827 1.8392 1.1421 0.86104 3.9929 2.1599 4.2356 1.3735 0.23244-0.82522-2.88-1.8152-2.88-1.8152l1.9566-2.2361 1.8923 5.02-3.083 3.3765-0.54292 7.8185 1.1746-0.0033c0.27672-1.5401 0.60654-6.2415 1.4842-7.2058 0.69039-0.75468 3.329-1.6491 4.3855-2.0181l4.9667 9.2239h1.8712s-3.5816-7.8319-3.8052-8.3853l-1.691-4.1927c-0.914-2.2892-1.8699-3.902-1.9007-6.4288l0.15932-4.447c-0.232-0.82176-1.5625-1.9929-1.5625-1.9929s-2.899-2.7375-3.4349-2.1956zm-0.73537 4.9432c-2.2417 1.3109-0.65685 3.8041 1.0845 3.1948 1.6295-0.5702 1.5792-3.5107-1.0845-3.1948z" fill="#fff"/>
</svg>
