<?xml version="1.0" encoding="UTF-8"?>
<svg version="1.1" viewBox="0 0 48 48" xmlns="http://www.w3.org/2000/svg">
    <path d="m21.594 4a17.626 17.626 0 0 0-13.793 6.6934 17.626 17.626 0 0 0-0.90039 20.619 17.626 17.626 0 0 0 19.287 7.3379l-0.45312-1.6895a15.863 15.863 0 0 1-4.0234 0.52734 15.863 15.863 0 0 1-15.863-15.861 15.863 15.863 0 0 1 15.863-15.863 15.863 15.863 0 0 1 5.3438 0.94727l0.59766-1.6465a17.626 17.626 0 0 0-6.0586-1.0645zm-0.2207 2.7188c-0.34874 0-0.62891 0.28017-0.62891 0.62891v3.1465c0 0.34873 0.28017 0.63086 0.62891 0.63086h0.50391c0.34874 0 0.62891-0.28213 0.62891-0.63086v-3.1465c0-0.34873-0.28017-0.62891-0.62891-0.62891h-0.50391zm9.7754 0.7168c-0.17067-0.00418-0.34289 0.0075435-0.51758 0.039062-1.3975 0.24642-2.3305 1.579-2.084 2.9766 0.24643 1.3975 1.5771 2.3305 2.9746 2.084 1.3975-0.24644 2.3323-1.5771 2.0859-2.9746-0.21562-1.2229-1.2623-2.0924-2.457-2.125h-0.001953zm6.0859 4.2266c-0.34234-0.03507-0.6855 0.13163-0.86328 0.45117l-2.3086 4.0801-4.9336-3.4395c-0.19658-0.14088-0.44184-0.19507-0.67969-0.15039l-6.3945 1.127 0.009765 0.048828c-0.26459 0.04362-0.49263 0.22305-0.625 0.45703l-3.3203 5.9277c-0.24185 0.43638-0.090635 0.9796 0.35156 1.2109l0.54102 0.2832c0.42454 0.20693 0.96202-0.027675 1.1934-0.4375l2.8711-5.25 2.7598-0.48828-6.875 12.123-5.9824 1.0566c-0.48012 0.07507-0.82488 0.60179-0.75586 1.082l0.16016 0.91992c0.0687 0.49738 0.58895 0.84732 1.084 0.75977l7.3613-1.3008c0.1902-0.02957 0.47602-0.22237 0.66992-0.41406 0.07278-0.07276 0.13116-0.14713 0.16797-0.20898l3.1738-5.1406 4.6855 3.2812-0.22656 5.5918c0.63322-1.4306 1.6922-2.6291 3.0137-3.4434l0.13086-3.9492c0.01703-0.30756-0.12672-0.60269-0.37891-0.7793l-4.4961-3.1719 3.0781-4.9258 3.4805 2.3086c0.42436 0.30796 1.0295 0.17429 1.2891-0.28516l3.1875-5.6465c0.25778-0.43734 0.095717-1.0038-0.35547-1.2383l-0.67774-0.33398c-0.10707-0.05859-0.22183-0.093875-0.33594-0.10547zm-29.877 9.082c-0.34873 0-0.62695 0.28213-0.62695 0.63086v0.50195c0 0.34874 0.27822 0.63086 0.62695 0.63086h3.1484c0.34874 0 0.63086-0.28213 0.63086-0.63086v-0.50195c0-0.34874-0.28213-0.63086-0.63086-0.63086h-3.1484zm14.016 11.395c-0.34874 0-0.62891 0.28017-0.62891 0.62891v3.1465c0 0.34873 0.28017 0.63086 0.62891 0.63086h0.50391c0.34874 0 0.62891-0.28213 0.62891-0.63086v-3.1465c0-0.34873-0.28017-0.62891-0.62891-0.62891h-0.50391z" fill="#fff" stroke-width=".88128"/>
    <path d="m36.325 29.645c-3.68 0-6.6816 2.9967-6.6816 6.6777 0 3.68 3.0016 6.6777 6.6816 6.6777a6.687 6.687 0 0 0 6.6758-6.6777 6.687 6.687 0 0 0-6.6758-6.6777zm-4.1289 2.3711h1.9902c0.097 0 0.17383 0.07783 0.17383 0.17383v1.9902a0.175 0.175 0 0 1-0.17383 0.17578h-1.9902a0.177 0.177 0 0 1-0.17773-0.17578v-1.9902c0-0.096 0.08173-0.17383 0.17773-0.17383zm3.1328 0h1.9941c0.096 0 0.17383 0.07783 0.17383 0.17383v1.9902a0.175 0.175 0 0 1-0.17383 0.17578h-1.9941a0.175 0.175 0 0 1-0.17187-0.17578v-1.9902c0-0.096 0.07588-0.17383 0.17187-0.17383zm3.1387 0h1.9902c0.096 0 0.17188 0.07783 0.17188 0.17383v1.9902a0.174 0.174 0 0 1-0.17188 0.17578h-1.9902a0.175 0.175 0 0 1-0.17383-0.17578v-1.9902c0-0.096 0.07783-0.17383 0.17383-0.17383zm-6.2793 3.1367h1.9941c0.096 0 0.17188 0.07783 0.17188 0.17383v1.9902a0.174 0.174 0 0 1-0.17188 0.17578h-1.9941a0.175 0.175 0 0 1-0.17188-0.17578v-1.9902c0-0.096 0.07588-0.17383 0.17188-0.17383zm3.1387 0h1.9902c0.096 0 0.17188 0.07783 0.17188 0.17383v1.9902a0.174 0.174 0 0 1-0.17188 0.17578h-1.9902a0.175 0.175 0 0 1-0.17383-0.17578v-1.9902c0-0.096 0.07783-0.17383 0.17383-0.17383zm3.1367 0h1.9902c0.096 0 0.17188 0.07783 0.17188 0.17383v1.9902a0.174 0.174 0 0 1-0.17188 0.17578h-1.9902a0.177 0.177 0 0 1-0.17773-0.17578v-1.9902c0-0.096 0.08173-0.17383 0.17773-0.17383zm-6.2754 3.1367h1.9941a0.17 0.17 0 0 1 0.17188 0.17188v1.9922a0.172 0.172 0 0 1-0.17188 0.17383h-1.9941a0.174 0.174 0 0 1-0.17188-0.17383v-1.9922c0-0.097 0.07588-0.17188 0.17188-0.17188zm3.1387 0h1.9902a0.17 0.17 0 0 1 0.17188 0.17188v1.9922a0.172 0.172 0 0 1-0.17188 0.17383h-1.9902a0.174 0.174 0 0 1-0.17383-0.17383v-1.9922c0-0.097 0.07783-0.17188 0.17383-0.17188zm3.1367 0h1.9902a0.17 0.17 0 0 1 0.17188 0.17188v1.9922a0.172 0.172 0 0 1-0.17188 0.17383h-1.9902a0.175 0.175 0 0 1-0.17773-0.17383v-1.9922c0-0.097 0.08173-0.17188 0.17773-0.17188z" color="#000000" color-rendering="auto" dominant-baseline="auto" fill="#fff" image-rendering="auto" shape-rendering="auto" solid-color="#000000" style="font-feature-settings:normal;font-variant-alternates:normal;font-variant-caps:normal;font-variant-ligatures:normal;font-variant-numeric:normal;font-variant-position:normal;isolation:auto;mix-blend-mode:normal;paint-order:stroke markers fill;shape-padding:0;text-decoration-color:#000000;text-decoration-line:none;text-decoration-style:solid;text-indent:0;text-orientation:mixed;text-transform:none;white-space:normal"/>
</svg>
