<?xml version="1.0" encoding="UTF-8"?>
<svg version="1.1" viewBox="0 0 48 48" xmlns="http://www.w3.org/2000/svg">
    <path d="m23.964 4a20 20 0 0 0-15.652 7.5957 20 20 0 0 0-1.0215 23.395 20 20 0 0 0 21.885 8.3281l-0.51367-1.918a18 18 0 0 1-4.5645 0.59961 18 18 0 0 1-18-18 18 18 0 0 1 18-18 18 18 0 0 1 6.0625 1.0762l0.67969-1.8691a20 20 0 0 0-6.875-1.207zm-0.25 3.084c-0.39572 0-0.71484 0.31913-0.71484 0.71484v3.5703c0 0.39571 0.31913 0.71484 0.71484 0.71484h0.57031c0.39572 0 0.71484-0.31913 0.71484-0.71484v-3.5703c0-0.39571-0.31913-0.71484-0.71484-0.71484zm11.092 0.81445c-0.19366-0.00474-0.38967 0.00916-0.58789 0.044922-1.5858 0.27962-2.6449 1.7912-2.3652 3.377 0.27963 1.5858 1.7912 2.6449 3.377 2.3652 1.5858-0.27964 2.6448-1.7912 2.3652-3.377-0.24466-1.3876-1.4314-2.3732-2.7871-2.4102zm6.9062 4.7949c-0.38846-0.03979-0.77874 0.15108-0.98047 0.51367l-2.6191 4.6289-5.5977-3.9023c-0.22306-0.15986-0.50159-0.22258-0.77148-0.17188l-7.2559 1.2793 0.0098 0.05469c-0.30023 0.0495-0.55878 0.25403-0.70898 0.51953l-3.7676 6.7266c-0.27443 0.49516-0.10137 1.1105 0.40039 1.373l0.61328 0.32226c0.48173 0.23481 1.091-0.03106 1.3535-0.49609l3.2578-5.957 3.1309-0.55469-7.8008 13.756-6.7871 1.1992c-0.5448 0.08518-0.9377 0.68167-0.85938 1.2266l0.18359 1.0449c0.07795 0.56438 0.66678 0.96068 1.2285 0.86133l8.3535-1.4746c0.21582-0.03355 0.53975-0.25318 0.75977-0.4707 0.08258-0.08256 0.14964-0.16614 0.19141-0.23633l3.6016-5.834 5.3164 3.7246-0.40625 10.021c-0.0239 0.53606 0.38322 0.99742 0.92383 1.041l1.2891 0.10938c0.5818 0.05142 1.0846-0.39972 1.0996-0.98047l0.40426-12.236c0.01933-0.34899-0.14353-0.68241-0.42969-0.88281l-5.1016-3.5996 3.4922-5.5898 3.9492 2.6191c0.48152 0.34945 1.1684 0.19907 1.4629-0.32227l3.6172-6.4082c0.29251-0.49625 0.10963-1.1382-0.40234-1.4043l-0.76953-0.37891c-0.12149-0.06648-0.25138-0.10793-0.38086-0.12109zm-33.902 10.307c-0.39571 0-0.71289 0.31913-0.71289 0.71484v0.57031c0 0.39572 0.31718 0.71484 0.71289 0.71484h3.5723c0.39572 0 0.71484-0.31913 0.71484-0.71484v-0.57031c0-0.39572-0.31913-0.71484-0.71484-0.71484zm15.904 12.928c-0.39572 0-0.71484 0.31913-0.71484 0.71484v3.5703c0 0.39571 0.31913 0.71484 0.71484 0.71484h0.57031c0.39572 0 0.71484-0.31913 0.71484-0.71484v-3.5703c0-0.39571-0.31913-0.71484-0.71484-0.71484z" fill="#fff"/>
</svg>
