<?xml version="1.0" encoding="UTF-8"?>
<svg version="1.1" viewBox="0 0 48 48" xmlns="http://www.w3.org/2000/svg">
    <path d="m20.044 4.5578c-2.0516 0.063646-4.1037 0.50924-6.0445 1.3465-5.7483 2.4796-9.6074 7.9902-9.9709 14.239-0.3643 6.2502 2.8301 12.171 8.2525 15.302l0.54047-0.94004c-5.018-2.9367-7.9652-8.4397-7.6289-14.244 0.33985-5.8395 3.9464-10.988 9.3173-13.304 5.3395-2.303 11.52-1.417 15.997 2.2935l0.6929-0.82687c-0.4459-0.37406-0.90996-0.72586-1.3927-1.0509-2.922-1.968-6.3437-2.9216-9.7631-2.8155zm2.6862 2.7023c-0.29804 0.052527-0.5772 0.21985-0.7645 0.48734-0.37461 0.53499-0.24397 1.2722 0.29102 1.6468 0.53499 0.37461 1.2722 0.24397 1.6468-0.29102 0.3746-0.535 0.24627-1.2722-0.28871-1.6468-0.2675-0.18731-0.58657-0.24888-0.88462-0.19632zm-7.2848 0.53816c-0.29804 0.052522-0.5772 0.21985-0.7645 0.48734-0.37461 0.535-0.24397 1.2722 0.29102 1.6468s1.2722 0.24397 1.6468-0.29102 0.24397-1.2722-0.29103-1.6468c-0.2675-0.1873-0.58426-0.24888-0.88231-0.19633zm13.269 1.2565c-0.30233 0.061409-0.72403 0.4069-1.0763 0.91001l-1.0186 1.4528c-0.46971 0.67083-0.63095 1.3619-0.36262 1.5498 0.26832 0.18789 0.86298-0.20224 1.3327-0.87305l1.0163-1.4528c0.46972-0.67083 0.63326-1.3619 0.36493-1.5498-0.0672-0.047057-0.1556-0.057358-0.25638-0.036875zm6.6889 0.29333c-0.19366-0.00474-0.39074 0.00814-0.58896 0.043898-1.5858 0.27962-2.6448 1.791-2.3651 3.3768 0.27963 1.5858 1.791 2.6448 3.3768 2.3651 1.5858-0.27964 2.6447-1.791 2.3651-3.3768-0.24466-1.3876-1.4321-2.372-2.7878-2.409zm-26.13 3.5754c-0.10153 0.0153-0.17938 0.05541-0.22635 0.12241-0.1879 0.26832 0.19993 0.86297 0.87076 1.3327l1.4528 1.0163c0.67082 0.46972 1.3619 0.63327 1.5498 0.36494 0.18789-0.26832-0.19994-0.86297-0.87075-1.3327l-1.4528-1.0163c-0.50312-0.35229-1.0183-0.53293-1.3235-0.48734zm33.036 1.2195c-0.38846-0.03979-0.77989 0.15016-0.98162 0.51275l-2.6192 4.6286-5.5964-3.9011c-0.22306-0.15986-0.50154-0.22393-0.77143-0.17323l-7.2571 1.2796 0.01015 0.0555c-0.30023 0.0495-0.55888 0.25417-0.70908 0.51967l-3.7671 6.7258c-0.27443 0.49516-0.10218 1.1118 0.39958 1.3743l0.61438 0.32105c0.48173 0.23481 1.091-0.03156 1.3535-0.49659l3.2567-5.9567 3.1319-0.55432-7.8021 13.757-6.7859 1.1987c-0.5448 0.08518-0.93753 0.68151-0.8592 1.2264l0.18246 1.044c0.07795 0.56438 0.66706 0.96087 1.2288 0.86152l8.3542-1.4736c0.21582-0.03355 0.53987-0.25365 0.75989-0.47117 0.08258-0.08256 0.14994-0.1654 0.19171-0.23559l3.6008-5.8343 5.3169 3.7232-0.40651 10.022c-0.0239 0.53606 0.38327 0.9981 0.92388 1.0417l1.2888 0.1085c0.5818 0.05142 1.0844-0.39855 1.0994-0.9793l0.40463-12.237c0.01933-0.34899-0.14341-0.68191-0.42957-0.88231l-5.1021-3.6008 3.4923-5.5895 3.9496 2.6192c0.48152 0.34945 1.1675 0.2003 1.462-0.32104l3.617-6.4094c0.29251-0.49625 0.11008-1.1382-0.40189-1.4043l-0.76908-0.37879c-0.12149-0.06648-0.25161-0.10694-0.38109-0.1201zm-34.597 5.1529c-0.29805 0.052483-0.5749 0.21983-0.7622 0.48733-0.37461 0.535-0.24628 1.2722 0.28871 1.6468 0.53499 0.37461 1.2722 0.24397 1.6468-0.29101 0.37461-0.535 0.24628-1.2722-0.28871-1.6468-0.2675-0.18732-0.58657-0.24889-0.88461-0.19632zm1.492 7.3933c-0.29804 0.05248-0.5772 0.21986-0.7645 0.48734-0.37461 0.535-0.24397 1.2722 0.29103 1.6468 0.53499 0.37461 1.2722 0.24397 1.6468-0.29102 0.3746-0.535 0.24397-1.2722-0.29103-1.6468-0.2675-0.1873-0.58426-0.24888-0.8823-0.19633zm5.206 2.7047c-0.34124 0.03499-0.79067 0.36023-1.1433 0.86382l-0.85458 1.2195c-0.47018 0.67149-0.58383 1.3991-0.25637 1.6283 0.32743 0.22928 0.96878-0.1277 1.4389-0.79916l0.85459-1.2218c0.47017-0.67148 0.58613-1.3967 0.25868-1.626-0.08175-0.05716-0.1842-0.07625-0.29795-0.06459z" fill="#fff" stroke-width="1.1826"/>
    <path d="m26.817 10.658c-0.53595 0.54183 2.3169 3.0453 2.3169 3.0453s1.3193 1.2522 1.3836 2.074c0.05033 0.59815-0.32144 1.8336-0.70157 2.2892-0.46678 0.55902-1.6854 1.1376-2.3535 1.5066-1.7302 0.95873-2.2724 1.6994-3.343 3.3541-0.32144 0.49753-0.83015 1.2271-0.52827 1.8392 1.1421 0.86104 3.9929 2.1599 4.2356 1.3735 0.23244-0.82522-2.88-1.8152-2.88-1.8152l1.9566-2.2361 1.8923 5.02-3.083 3.3765-0.54292 7.8185 1.1746-0.0033c0.27672-1.5401 0.60654-6.2415 1.4842-7.2058 0.69039-0.75468 3.329-1.6491 4.3855-2.0181l4.9667 9.2239h1.8712s-3.5816-7.8319-3.8052-8.3853l-1.691-4.1927c-0.914-2.2892-1.8699-3.902-1.9007-6.4288l0.15932-4.447c-0.232-0.82176-1.5625-1.9929-1.5625-1.9929s-2.899-2.7375-3.4349-2.1956z" display="none"/>
    <path d="m26.082 15.602c-2.2417 1.3109-0.65685 3.8041 1.0845 3.1948 1.6295-0.5702 1.5792-3.5107-1.0845-3.1948z" display="none"/>
</svg>
