<?xml version="1.0" encoding="utf-8"?>
<!-- Generator: Adobe Illustrator 21.1.0, SVG Export Plug-In . SVG Version: 6.00 Build 0)  -->
<svg version="1.0" id="Layer_1" xmlns="http://www.w3.org/2000/svg" xmlns:xlink="http://www.w3.org/1999/xlink" x="0px" y="0px"
	 viewBox="0 0 48 48" style="enable-background:new 0 0 48 48;" xml:space="preserve">
<style type="text/css">
	.st0{fill:#FFFFFF;}
</style>
<path class="st0" d="M23.9,45.6c-12.1,0-22-10-21.9-22.1C2,12.4,12,1.9,24.1,2C35.5,2.1,46,10.9,46,23.6
	C46,35.7,36.1,45.6,23.9,45.6z M24.9,24.6c-0.7,0.7-1.2,1.2-1.7,1.8c-0.6,0.7-0.6,1.5,0.1,2.2c0.7,0.7,1.5,0.7,2.2,0
	c1.5-1.4,3-2.9,4.4-4.4c0.7-0.7,0.7-1.6,0-2.3c-1.4-1.5-2.9-2.9-4.3-4.3c-0.7-0.7-1.6-0.8-2.3-0.1c-0.7,0.7-0.6,1.5,0,2.3
	c0.4,0.5,0.8,0.9,1.4,1.5c-0.6,0-1,0.1-1.4,0.1c-1.3,0-2.5,0-3.8,0c-1.2,0.1-1.9,0.7-1.9,1.6c0,1,0.8,1.6,2.1,1.6
	C21.3,24.6,23,24.6,24.9,24.6z M15.5,23c0-1.2-0.9-2.1-2-2.2c-1.1,0-2.1,0.9-2.2,2c-0.1,1.2,0.9,2.2,2.1,2.2
	C14.6,25.1,15.5,24.2,15.5,23z M36.7,23c0-1.1-1-2.1-2.1-2.1c-1.2,0-2.1,0.9-2.1,2.1c0,1.2,0.9,2.1,2.2,2.1
	C35.8,25.1,36.7,24.1,36.7,23z"/>
</svg>
