<?xml version="1.0" encoding="UTF-8" standalone="no"?>
<svg
   xmlns:dc="http://purl.org/dc/elements/1.1/"
   xmlns:cc="http://creativecommons.org/ns#"
   xmlns:rdf="http://www.w3.org/1999/02/22-rdf-syntax-ns#"
   xmlns:svg="http://www.w3.org/2000/svg"
   xmlns="http://www.w3.org/2000/svg"
   xmlns:sodipodi="http://sodipodi.sourceforge.net/DTD/sodipodi-0.dtd"
   xmlns:inkscape="http://www.inkscape.org/namespaces/inkscape"
   width="48"
   height="48"
   viewBox="0 0 48 48"
   version="1.1"
   id="svg4605"
   sodipodi:docname="clashroyale.svg"
   inkscape:version="0.92.1 r">
  <metadata
     id="metadata4611">
    <rdf:RDF>
      <cc:Work
         rdf:about="">
        <dc:format>image/svg+xml</dc:format>
        <dc:type
           rdf:resource="http://purl.org/dc/dcmitype/StillImage" />
        <dc:title></dc:title>
      </cc:Work>
    </rdf:RDF>
  </metadata>
  <defs
     id="defs4609">
    <inkscape:perspective
       sodipodi:type="inkscape:persp3d"
       inkscape:vp_x="0 : 24 : 1"
       inkscape:vp_y="0 : 1000 : 0"
       inkscape:vp_z="48 : 24 : 1"
       inkscape:persp3d-origin="24 : 16 : 1"
       id="perspective5498" />
  </defs>
  <sodipodi:namedview
     pagecolor="#ffffff"
     bordercolor="#666666"
     borderopacity="1"
     objecttolerance="10"
     gridtolerance="10"
     guidetolerance="10"
     inkscape:pageopacity="0"
     inkscape:pageshadow="2"
     inkscape:window-width="640"
     inkscape:window-height="480"
     id="namedview4607"
     showgrid="false"
     inkscape:pagecheckerboard="true"
     inkscape:showpageshadow="false"
     inkscape:snap-intersection-paths="true"
     inkscape:object-paths="true"
     inkscape:snap-smooth-nodes="true"
     inkscape:snap-midpoints="true"
     inkscape:snap-object-midpoints="true"
     inkscape:snap-center="true"
     inkscape:snap-text-baseline="true"
     inkscape:snap-bbox="true"
     inkscape:bbox-paths="true"
     inkscape:bbox-nodes="true"
     inkscape:snap-bbox-edge-midpoints="true"
     inkscape:snap-bbox-midpoints="true"
     inkscape:zoom="5.7010484"
     inkscape:cx="20.31029"
     inkscape:cy="28.274864"
     inkscape:current-layer="svg4605" />
  <path
     style="fill:#ffffff"
     d="M 7 5 C 5.892 5 5 5.892 5 7 L 5 41 C 5 42.108 5.892 43 7 43 L 41 43 C 42.108 43 43 42.108 43 41 L 43 7 C 43 5.892 42.108 5 41 5 L 7 5 z M 9.984375 12.203125 L 17.363281 12.203125 L 17.363281 15.40625 L 20.310547 15.40625 L 20.310547 12.203125 L 27.689453 12.203125 L 27.689453 15.40625 L 30.636719 15.40625 L 30.636719 12.203125 L 38.015625 12.203125 L 38.015625 15.40625 L 38.015625 22.566406 L 9.984375 22.566406 L 9.984375 15.40625 L 9.984375 12.203125 z M 21.845703 28.939453 C 23.186963 29.033742 23.992121 30.238304 24 31.421875 C 24.007878 30.238305 24.813035 29.033742 26.154297 28.939453 C 26.967182 28.882313 27.976723 29.232714 29.125 30.244141 C 33.466692 33.629581 36.615088 33.020531 38.986328 31.458984 C 38.350141 34.148317 35.92136 35.448348 34.244141 35.679688 C 27.940113 36.315874 25.308611 34.204943 24.267578 32.556641 C 24.08337 32.208727 23.997374 31.816398 24 31.421875 C 24.002626 31.816399 23.91663 32.208727 23.732422 32.556641 C 22.691389 34.204944 20.059887 36.315874 13.755859 35.679688 C 12.07864 35.448346 9.6498585 34.148317 9.0136719 31.458984 C 11.384911 33.020531 14.533308 33.629581 18.875 30.244141 C 20.023277 29.232714 21.032818 28.882308 21.845703 28.939453 z "
     id="path6183" />
</svg>
