<svg height="48" width="48" xmlns="http://www.w3.org/2000/svg"><mask id="a" maskUnits="userSpaceOnUse"><g><path d="M0 0h48v48H0z" fill="#fff"/><circle cx="13" cy="39" r="3"/><circle cx="35" cy="39" r="3"/><circle cx="35" cy="9" r="3"/><circle cx="13" cy="9" r="3"/><path d="M21 6h6v6h-6zM32 21h6v6h-6zM21 36h6v6h-6zM10 21h6v6h-6z"/><path d="M13 9h22v30H13zM16 17h16M16 21h12M16 29h16M16 25h16M16 33h12" fill="#fff" stroke="#000" stroke-width="2"/></g></mask><rect fill="#fff" height="40" mask="url(#a)" rx="2" width="32" x="8" y="4"/></svg>