<?xml version="1.0" encoding="UTF-8"?>
<svg version="1.1" viewBox="0 0 48 48" xmlns="http://www.w3.org/2000/svg">
    <path d="m21.732 13.136c-4.4939 0-8.1368 3.643-8.1368 8.1368 0.0022 1.0443 0.20545 2.0785 0.59861 3.046l2.0289 0.09535s0.42401-0.49682 0.65158-0.73104c-0.37224-0.749-0.56623-1.5739-0.56682-2.4103 0-2.9959 2.4287-5.4246 5.4246-5.4246 2.6609 9.42e-4 4.9282 1.9317 5.3531 4.5584 0.02385 0.0034 0.04768 0.0071 0.07151 0.01058l2.7123 0.88997c2.4e-5 -0.01153 2.4e-5 -0.02296 0-0.03443 0-4.4939-3.643-8.1368-8.1368-8.1368z" fill="#fff"/>
    <rect x="5.4594" y="20.257" width="4.7465" height="2.0342" rx="1.3561" ry="1.3561" fill="#fff"/>
    <rect x="33.26" y="20.257" width="4.7465" height="2.0342" rx="1.3561" ry="1.3561" fill="#fff"/>
    <rect transform="rotate(45)" x="14.137" y="-1.3419" width="4.7465" height="2.0342" rx="1.3561" ry="1.3561" fill="#fff"/>
    <rect transform="rotate(90)" x="5" y="-22.75" width="4.7465" height="2.0342" rx="1.3561" ry="1.3561" fill="#fff"/>
    <rect transform="rotate(135)" x="-16.599" y="-31.427" width="4.7465" height="2.0342" rx="1.3561" ry="1.3561" fill="#fff"/>
    <path d="m25.046 20.216a11.392 11.392 0 0 0-8.8229 4.1982 7.3232 7.3232 0 0 0-1.3482-0.12979 7.3232 7.3232 0 0 0-7.3237 7.3237 7.3232 7.3232 0 0 0 7.3237 7.3237 7.3232 7.3232 0 0 0 1.3482-0.12979 11.392 11.392 0 0 0 8.8229 4.1982 11.392 11.392 0 0 0 8.8229-4.1982 7.3232 7.3232 0 0 0 1.3482 0.12979 7.3232 7.3232 0 0 0 7.3237-7.3237 7.3232 7.3232 0 0 0-7.3237-7.3237 7.3232 7.3232 0 0 0-1.3482 0.12979 11.392 11.392 0 0 0-8.8229-4.1982zm0 2.4421a9.3574 8.9505 0 0 1 7.9117 4.1744 5.289 5.289 0 0 1 2.2594-0.51385 5.289 5.289 0 0 1 5.2895 5.2895 5.289 5.289 0 0 1-5.2895 5.2895 5.289 5.289 0 0 1-2.2673-0.51915 9.3574 8.9505 0 0 1-7.9038 4.1797 9.3574 8.9505 0 0 1-7.9117-4.1744 5.289 5.289 0 0 1-2.2594 0.51385 5.289 5.289 0 0 1-5.2895-5.2895 5.289 5.289 0 0 1 5.2895-5.2895 5.289 5.289 0 0 1 2.2673 0.51915 9.3574 8.9505 0 0 1 7.9038-4.1797z" fill="#fff"/>
</svg>
