<svg xmlns:rdf="http://www.w3.org/1999/02/22-rdf-syntax-ns#" xmlns="http://www.w3.org/2000/svg" viewBox="0 0 48 48" width="48" version="1.1" xmlns:cc="http://creativecommons.org/ns#" height="48" xmlns:dc="http://purl.org/dc/elements/1.1/">
 <path fill="#fff" d="m8.8 5c-1 0-1.8 0.8-1.8 1.8v8.21l-4 4v10l4 4v8.2c0 1 0.8 1.8 1.8 1.8h6.21l4-4h10l4 4h6.2c1 0 1.8-0.8 1.8-1.8v-8.2l4-4v-10l-4-4v-8.21c0-1-0.8-1.8-1.8-1.8h-6.2l-4 4h-10l-4-4h-6.21zm16.2 9v20l-5.5-5.5h-6.5v-9h6.5l5.5-5.5zm2 0.1a10 10 0 0 1 8.5 9.9 10 10 0 0 1 -8.5 9.9v-1.7a8.33 8.33 0 0 0 6.8 -8.2 8.33 8.33 0 0 0 -6.8 -8.2v-1.7zm0 3.4a6.66 6.66 0 0 1 5.2 6.5 6.66 6.66 0 0 1 -5.2 6.5v-1.7a5 5 0 0 0 3.5 -4.8 5 5 0 0 0 -3.5 -4.8v-1.7zm0 3.5a3.33 3.33 0 0 1 1.8 3 3.33 3.33 0 0 1 -1.8 3v-6z"/>
</svg>
