<svg xmlns:rdf="http://www.w3.org/1999/02/22-rdf-syntax-ns#" xmlns="http://www.w3.org/2000/svg" height="48" width="48" version="1.1" xmlns:cc="http://creativecommons.org/ns#" viewBox="0 0 48 48" xmlns:dc="http://purl.org/dc/elements/1.1/">
 <path fill="#fff" d="m8.8 5c-1 0-1.8 0.8-1.8 1.8v8.21l-4 4v10l4 4v8.2c0 1 0.8 1.8 1.8 1.8h6.21l4-4h10l4 4h6.2c1 0 1.8-0.8 1.8-1.8v-8.2l4-4v-10l-4-4v-8.21c0-1-0.8-1.8-1.8-1.8h-6.2l-4 4h-10l-4-4h-6.21zm6.71 9.5h17c0.6 0 1 0.4 1 1v1h-19v-1c0-0.6 0.4-1 1-1zm2 3.7c0.8 0 1.5 0.7 1.5 1.5v4.8c0 0.8 0.7 1.5 1.5 1.5s1.5-0.7 1.5-1.5v-4.8c0-0.8 0.7-1.5 1.5-1.5s1.5 0.7 1.5 1.5v0.8c0 0.8 0.7 1.5 1.5 1.5s1.5-0.7 1.5-1.5v-0.8c0-0.8 0.7-1.5 1.5-1.5s1.5 0.7 1.5 1.5v2.8c0 0.8 0.7 1.5 1.5 1.5 0.4 0 0.7-0.2 1-0.4v8.9c0 0.6-0.4 1-1 1h-17c-0.6 0-1-0.4-1-1v-8c0.8 0 1.5-0.7 1.5-1.5v-3.2c0-0.9 0.7-1.6 1.5-1.6z"/>
</svg>
