<?xml version="1.0" encoding="utf-8"?>
<!-- Generator: Adobe Illustrator 21.1.0, SVG Export Plug-In . SVG Version: 6.00 Build 0)  -->
<svg version="1.0" id="Layer_1" xmlns="http://www.w3.org/2000/svg" xmlns:xlink="http://www.w3.org/1999/xlink" x="0px" y="0px"
	 viewBox="0 0 48 48" style="enable-background:new 0 0 48 48;" xml:space="preserve">
<style type="text/css">
	.st0{fill:#FFFFFF;}
</style>
<path class="st0" d="M23.9,45.7c-12,0-21.7-9.7-21.6-21.8c0-12,9.7-21.7,21.8-21.6c12,0,21.7,9.7,21.6,21.8
	C45.7,36.1,36,45.7,23.9,45.7z M18.3,23.9c0,4,0,8,0,12c0,0.9,0.2,1.2,1.1,1.1c1.5-0.1,3,0,4.5,0c0.6,0,0.9-0.2,0.9-0.9
	c0-0.9,0-1.7,0-2.6c0-7.1,0-14.1,0-21.2c0-1-0.2-1.3-1.3-1.3c-1.4,0.1-2.7,0.1-4.1,0c-0.9,0-1.2,0.2-1.1,1.1
	C18.3,16,18.3,20,18.3,23.9z M36.5,35.2C36.3,34.1,36.2,33,36,32c-0.9-5.4-1.7-10.7-2.5-16.1c-0.1-0.7-0.4-0.9-1.1-0.8
	c-1.7,0.3-3.3,0.6-5,0.8c-0.8,0.1-1,0.4-0.8,1.2c0.6,3.4,1.1,6.9,1.6,10.3c0.5,2.9,1,5.7,1.4,8.6c0.1,0.7,0.3,0.9,1.1,0.7
	c1.7-0.3,3.5-0.6,5.3-0.8C36.4,35.9,36.6,35.7,36.5,35.2z M16.8,25.2c0-2.9,0-5.8,0-8.7c0-3.3,0-3.3-3.3-3.3c-2,0-2,0-2,2
	c0,6.8,0,13.6,0,20.4c0,0.9,0.2,1.4,1.2,1.3c1-0.1,2-0.1,3,0c0.9,0.1,1.1-0.3,1.1-1.1C16.8,32.3,16.8,28.8,16.8,25.2z"/>
<path class="st0" d="M21.5,14.2c-0.6,0-1.2,0-1.7,0c-0.4,0-0.7-0.1-0.7-0.6c0-0.4,0.3-0.6,0.7-0.6c1.2,0,2.5,0,3.7,0
	c0.4,0,0.8,0.1,0.7,0.6c0,0.5-0.4,0.6-0.8,0.6C22.7,14.2,22.1,14.2,21.5,14.2z"/>
<path class="st0" d="M21.6,34c0.6,0,1.2,0,1.7,0c0.4,0,0.7,0.1,0.8,0.6c0,0.5-0.3,0.6-0.7,0.6c-1.2,0-2.4,0-3.6,0
	c-0.4,0-0.8-0.1-0.8-0.6s0.3-0.6,0.7-0.6C20.3,34,21,34,21.6,34z"/>
<path class="st0" d="M28,18.2c-0.5,0-0.8-0.1-0.9-0.5s0.1-0.6,0.5-0.7c1.4-0.3,2.8-0.5,4.3-0.7c0.4-0.1,0.9-0.1,1,0.4
	c0.1,0.7-0.4,0.7-0.9,0.8C30.6,17.8,29.3,18,28,18.2z"/>
<path class="st0" d="M30.7,35.3c-0.4,0.1-0.6,0-0.7-0.4s0.1-0.7,0.5-0.7c1.5-0.3,3-0.6,4.5-0.8c0.4-0.1,0.6,0.2,0.6,0.6
	c0,0.4-0.2,0.6-0.5,0.7C33.7,34.9,32.2,35.1,30.7,35.3z"/>
<path class="st0" d="M14.1,35.2c-0.5,0-0.9,0-1.4,0c-0.4,0-0.6-0.2-0.6-0.6c0-0.4,0.3-0.6,0.6-0.6c0.9,0,1.7,0,2.6,0
	c0.4,0,0.6,0.1,0.7,0.5c0,0.5-0.2,0.7-0.7,0.7C14.9,35.2,14.5,35.2,14.1,35.2L14.1,35.2z"/>
<path class="st0" d="M14,16.3c-0.5-0.3-1.6,0.5-1.6-0.5s1.1-0.4,1.7-0.5c0.4-0.1,0.8,0,1.2,0s0.8,0,0.8,0.6c0,0.5-0.4,0.5-0.7,0.5
	C14.9,16.3,14.5,16.3,14,16.3z"/>
</svg>
