<svg id="Layer_1" data-name="Layer 1" xmlns="http://www.w3.org/2000/svg" viewBox="0 0 48 48"><defs><style>.cls-1{fill:#fff;}</style></defs><title>controlloid</title><circle class="cls-1" cx="30.35" cy="28.34" r="1.82"/><path class="cls-1" d="M17.73,27H15.5V24.79a.46.46,0,0,0-.46-.46H12.93a.46.46,0,0,0-.46.46V27H10.24a.47.47,0,0,0-.46.46v2.12a.46.46,0,0,0,.46.46h2.23v2.23a.46.46,0,0,0,.46.46H15a.46.46,0,0,0,.46-.46V30.05h2.23a.46.46,0,0,0,.46-.46V27.47A.47.47,0,0,0,17.73,27Z"/><circle class="cls-1" cx="33.98" cy="25.48" r="1.82"/><circle class="cls-1" cx="37.32" cy="28.73" r="1.82"/><path class="cls-1" d="M33.68,29.77a1.82,1.82,0,1,0,1.82,1.82A1.81,1.81,0,0,0,33.68,29.77Z"/><path class="cls-1" d="M24,2A22,22,0,1,0,46,24,22,22,0,0,0,24,2Zm0,6a14,14,0,0,1,9,3.2,1.3,1.3,0,0,1,.09,1.91h0a1.29,1.29,0,0,1-1.71.09,11.57,11.57,0,0,0-14.68,0,1.27,1.27,0,0,1-1.7-.09h0A1.3,1.3,0,0,1,15,11.17,14.14,14.14,0,0,1,24,8Zm5.38,8.77h0a1.32,1.32,0,0,1-1.68.12,6.41,6.41,0,0,0-7.41,0,1.3,1.3,0,0,1-1.67-.12h0a1.3,1.3,0,0,1,.18-2,9,9,0,0,1,10.39,0A1.3,1.3,0,0,1,29.39,16.75Zm4.44,20a8.15,8.15,0,0,1-5.38-2h-8.9a8.16,8.16,0,1,1-5.38-14.3H33.83a8.17,8.17,0,1,1,0,16.33Z"/></svg>