<?xml version="1.0" encoding="UTF-8"?>
<svg version="1.1" viewBox="0 0 48 48" xmlns="http://www.w3.org/2000/svg">
    <path d="m24 12c-3.038 0-5.5 2.462-5.5 5.5s2.462 5.5 5.5 5.5 5.5-2.462 5.5-5.5-2.462-5.5-5.5-5.5zm0 13c-6.12 0-11 1.71-11 3.75v5.25h22v-5.25c0-2.04-4.881-3.7499-11-3.75z" fill="#fff"/>
    <path d="m13.953 5.002-1.7734 3.252-2.1797 3.8613 3.7031-0.08789 4.4336-0.044922-1.9277-3.1621-0.050781-0.085938a17 17 0 0 1 22.021 7.2617 17 17 0 0 1 1.3066 13.221l2.4102-1.3223a19 19 0 0 0-1.9629-12.859 19 19 0 0 0-24.785-8.0098l-1.1953-2.0234zm-5.8301 13.441-2.4121 1.3223a19 19 0 0 0 1.9648 12.859 19 19 0 0 0 24.869 7.9707l1.5176 2.5645 2.1211-3.8965 1.8164-3.2266-4.4336 0.11133-3.7031 0.041015 1.6523 2.7031a17 17 0 0 1-22.088-7.2285 17 17 0 0 1-1.3047-13.221z" fill="#fff"/>
</svg>
