<svg height="48" viewBox="0 0 12.7 12.7" width="48" xmlns="http://www.w3.org/2000/svg"><path d="m7.5892009 1.2138771c-.3704359 0-.6686931.298253-.6686931.668693v3.6318201a.92604167.92604167 0 0 0 -.396875-.09043.92604167.92604167 0 0 0 -.2878378.04702v-1.3094801c0-.2981799-.2397834-.5384689-.5379516-.5384689h-4.630725c-.29816833 0-.53795173.24029-.53795173.53847v5.7712237c0 .2981601.2397834.5384681.53795173.5384681h4.630725c.2981682 0 .5379516-.240308.5379516-.5384681v-2.7031947a.92604167.92604167 0 0 0 .2878378.04651.92604167.92604167 0 0 0 .396875-.09043v3.6318198c0 .37043.2982572.668693.6686931.668693h3.9129401c.370436 0 .668693-.298263.668693-.668693v-8.9348549c0-.37044-.298257-.668693-.668693-.668693zm1.0004558.342615h1.9125453c.03918 0 .0708.0316.0708.0708v.0863c0 .0392-.03163.07131-.0708.07131h-1.9125453c-.03918 0-.071313-.03211-.071314-.07131v-.0863c0-.0392.032139-.0708.071314-.0708zm2.6024253 0a.11413398.11413398 0 0 1 0 0 .11413398.11413398 0 0 1 .0083 0 .11413398.11413398 0 0 1 .113688.114205.11413398.11413398 0 0 1 -.113688.113688.11413398.11413398 0 0 1 -.114205-.113688.11413398.11413398 0 0 1 .10542-.114205zm-3.9289594.570507h4.5650964v8.4459969h-4.5650964v-3.6674768a.92604167.92604167 0 0 0 .1865519-.555522.92604167.92604167 0 0 0 -.1865519-.556038zm-4.8374308 1.8381311h1.9130616c.039175 0 .070797.0316.070797.0708v.08733c0 .0392-.031622.0708-.070797.0708h-1.9130616c-.039175 0-.07028-.0317-.07028-.0708v-.08733c0-.0392.031105-.0708.07028-.0708zm2.6039755 0h.00775c.063037 0 .1142085.05116.114205.114205 0 .0629-.051347.113688-.114205.113688s-.1139547-.05081-.1142047-.113688c0-.06.04657-.109985.1064535-.114205zm-3.9299928.570508h4.5656127v1.468644a.92604167.92604167 0 0 0 -.067696.345198.92604167.92604167 0 0 0 .067696.345716v1.492932h-4.5656127zm2.6458333.887801a.92604167.92604167 0 0 0 -.9260416.926041.92604167.92604167 0 0 0 .9260416.926042.92604167.92604167 0 0 0 .9260417-.926042.92604167.92604167 0 0 0 -.9260417-.926041zm5.5562499 0a.92604167.92604167 0 0 0 -.9260415.926558.92604167.92604167 0 0 0 .9260415.926042.92604167.92604167 0 0 0 .9260423-.926042.92604167.92604167 0 0 0 -.9260423-.926041zm-.712101 5.4921708h1.9125453c.03918 0 .0708.0316.0708.0708v.0863c0 .0392-.03163.0708-.0708.0708h-1.9125453c-.03918 0-.071313-.0316-.071314-.0708v-.0863c0-.0392.032139-.0708.071314-.0708z" fill="#fff"/></svg>