<?xml version="1.0" encoding="UTF-8"?>
<svg version="1.1" viewBox="0 0 48 48" xmlns="http://www.w3.org/2000/svg">
    <defs>
        <style>.cls-1{fill:#fff;}</style>
    </defs>
    <path class="cls-1" d="m23.998 2c-12.15 0-22 9.8497-22 22s9.8497 22 22 22c3.7516 0 7.2843-0.94183 10.375-2.5977l2.1055 0.56445 7.3691 1.9727a1.712 1.712 0 0 0 2.0957-2.0957l-1.9746-7.3691-0.56445-2.1074c1.654-3.0894 2.5938-6.6178 2.5938-10.367 0-12.15-9.8497-22-22-22zm-9.748 15.25c1.22 0 2.25 1.03 2.25 2.25s-1.03 2.25-2.25 2.25c-1.222 0-2.25-1.03-2.25-2.25s1.027-2.25 2.25-2.25zm9.75 0c1.22 0 2.25 1.03 2.25 2.25s-1.03 2.25-2.25 2.25c-1.222 0-2.25-1.03-2.25-2.25s1.027-2.25 2.25-2.25zm9.75 0c1.22 0 2.25 1.03 2.25 2.25s-1.03 2.25-2.25 2.25c-1.222 0-2.25-1.03-2.25-2.25s1.027-2.25 2.25-2.25zm-19.5 9c1.22 0 2.25 1.03 2.25 2.25s-1.03 2.25-2.25 2.25c-1.222 0-2.25-1.03-2.25-2.25s1.027-2.25 2.25-2.25zm9.75 0c1.22 0 2.25 1.03 2.25 2.25s-1.03 2.25-2.25 2.25c-1.222 0-2.25-1.03-2.25-2.25s1.027-2.25 2.25-2.25zm9.75 0c1.22 0 2.25 1.03 2.25 2.25s-1.03 2.25-2.25 2.25c-1.222 0-2.25-1.03-2.25-2.25s1.027-2.25 2.25-2.25z"/>
</svg>
