<?xml version="1.0" encoding="UTF-8" standalone="no"?>
<svg width="48" height="48" viewBox="0 0 48 48" version="1.1" >
    <defs>
        <style>.cls-1{fill:#fff;}</style>
    </defs>
    <path
        class="cls-1"
        d="M 23.998047 2 C 11.847783 2 1.9980469 11.849736 1.9980469 24 C 1.9980469 36.150264 11.847783 46 23.998047 46 C 27.749601 46 31.28235 45.05817 34.373047 43.402344 L 36.478516 43.966797 L 43.847656 45.939453 A 1.712 1.712 0 0 0 45.943359 43.84375 L 43.96875 36.474609 L 43.404297 34.367188 C 45.058333 31.27777 45.998047 27.74938 45.998047 24 C 45.998047 11.849736 36.148311 2 23.998047 2 z M 14.25 17.25 C 15.47 17.25 16.5 18.28 16.5 19.5 C 16.5 20.72 15.47 21.75 14.25 21.75 C 13.028 21.75 12 20.72 12 19.5 C 12 18.28 13.027 17.25 14.25 17.25 z M 24 17.25 C 25.22 17.25 26.25 18.28 26.25 19.5 C 26.25 20.72 25.22 21.75 24 21.75 C 22.778 21.75 21.75 20.72 21.75 19.5 C 21.75 18.28 22.777 17.25 24 17.25 z M 33.75 17.25 C 34.97 17.25 36 18.28 36 19.5 C 36 20.72 34.97 21.75 33.75 21.75 C 32.528 21.75 31.5 20.72 31.5 19.5 C 31.5 18.28 32.527 17.25 33.75 17.25 z M 14.25 26.25 C 15.47 26.25 16.5 27.28 16.5 28.5 C 16.5 29.72 15.47 30.75 14.25 30.75 C 13.028 30.75 12 29.72 12 28.5 C 12 27.28 13.027 26.25 14.25 26.25 z M 24 26.25 C 25.22 26.25 26.25 27.28 26.25 28.5 C 26.25 29.72 25.22 30.75 24 30.75 C 22.778 30.75 21.75 29.72 21.75 28.5 C 21.75 27.28 22.777 26.25 24 26.25 z M 33.75 26.25 C 34.97 26.25 36 27.28 36 28.5 C 36 29.72 34.97 30.75 33.75 30.75 C 32.528 30.75 31.5 29.72 31.5 28.5 C 31.5 27.28 32.527 26.25 33.75 26.25 z "
     id="path1175" />
</svg>
