<?xml version="1.0" encoding="UTF-8" standalone="no"?>
<svg
   width="48"
   height="48"
   viewBox="0 0 12.7 12.7"
   version="1.1"
   id="svg5"
   xmlns="http://www.w3.org/2000/svg"
   xmlns:svg="http://www.w3.org/2000/svg">
  <defs
     id="defs2">
    <style
       id="style909">.cls-1{fill:#fff;}</style>
    <style
       id="style952">.cls-1{fill:#fff;}</style>
  </defs>
  <path
     d="m 10.337551,11.726458 c 0.164892,-0.187805 0.243779,-0.359578 0.243582,-0.530402 -3.18e-4,-0.310284 -0.245899,-0.731193 -0.467592,-0.801554 -0.143697,-0.04561 -0.6322121,-0.852799 -0.6322121,-1.0446291 0,-0.036168 0.1394352,-0.1697678 0.3098521,-0.2969075 L 10.101028,8.8218023 9.7401128,8.4535417 9.3791935,8.085281 9.120592,8.282527 C 8.1767671,9.0024175 6.856896,8.9157982 6.0201518,8.0790514 4.5975914,6.6564915 5.4917675,4.2723802 7.5167348,4.0887634 8.0502204,4.0403934 8.6097897,4.2015918 9.072922,4.5370865 L 9.3830623,4.7617521 9.7268637,4.4084062 10.070668,4.0550591 9.7759989,3.7977357 C 9.6139324,3.6562081 9.4813289,3.5016232 9.4813289,3.454214 c 0,-0.2041592 0.200633,-0.4966095 0.4359407,-0.6354445 C 10.439484,2.5106558 10.443865,1.7067317 9.9250996,1.3903809 9.5333039,1.1514915 9.1985879,1.1917533 8.8734652,1.5168782 8.6073675,1.7829746 8.5974615,1.8128272 8.6396638,2.2216922 c 0.024605,0.2384727 0.00553,0.5289081 -0.043121,0.6579153 L 8.5093658,3.110571 7.91491,3.068592 C 7.58796,3.0455 7.2970608,3.004519 7.2684638,2.977522 7.2398818,2.950525 7.1854318,2.7693163 7.1475052,2.574836 7.0965642,2.3136499 7.1074122,2.1629686 7.1890152,1.9983 7.3381274,1.6974227 7.2573182,1.2580215 7.0067873,1.0074983 6.7266303,0.72733765 6.127335,0.72155985 5.8349989,0.99620425 5.4602995,1.3482165 5.4986391,2.0401053 5.9076989,2.30813 6.0280339,2.386981 6.1091223,2.5587554 6.1706655,2.8651882 6.2196005,3.108868 6.2508025,3.3152715 6.2400005,3.3238618 6.2291875,3.3325118 6.0722877,3.4316922 5.8913094,3.544386 5.5850856,3.7350769 5.5469298,3.7412944 5.3412616,3.634026 5.0598612,3.4872505 4.9693184,3.4888232 4.637565,3.646257 4.1381755,3.8832327 3.9860968,4.5038357 4.3278763,4.910019 4.5018442,5.1167673 4.5103421,5.1632611 4.4295072,5.4660955 4.3453572,5.7813542 4.3274679,5.7965598 4.0407569,5.7965598 3.8428765,5.7965598 3.7243797,5.7553019 3.6938652,5.6757862 3.5641564,5.337766 2.8017905,5.2184715 2.46489,5.4834758 2.226582,5.6709288 2.0617655,6.1146323 2.1374342,6.3650173 2.2999967,6.90294 2.9224812,7.1831967 3.3706349,6.9202337 3.5504551,6.8147222 3.7274146,6.7793778 3.9618227,6.8021669 4.2485613,6.8300409 4.3026614,6.8643899 4.3404171,7.042473 4.3646391,7.1567552 4.4509146,7.4341645 4.5321256,7.6589425 L 4.6797865,8.0676345 4.299784,8.3857911 C 4.0054751,8.6322018 3.8540151,8.7039487 3.6281589,8.7039487 c -0.4255712,0 -0.8259527,0.412268 -0.8259527,0.850472 0,0.6175243 0.619035,1.0314773 1.1892755,0.7952783 C 4.2402833,10.246638 4.5301048,9.8648973 4.5306322,9.6395423 4.5307968,9.5706723 4.7102301,9.3631375 4.9293798,9.178348 L 5.3278366,8.842366 5.538361,9.0395359 C 5.654145,9.1479789 5.9002721,9.3125988 6.0853029,9.4053587 6.4082509,9.56726 6.4169014,9.5808871 6.3013913,9.7458001 6.1329069,9.9863495 6.1497548,10.450246 6.3355613,10.686458 6.5779158,10.994561 6.9137,11.102094 7.2855484,10.990685 7.6701572,10.875454 7.870497,10.58696 7.870497,10.148358 c 0,-0.3231818 0.00673,-0.3315932 0.3051593,-0.3793081 0.1678369,-0.026842 0.3139274,-0.038783 0.3246456,-0.026536 0.010693,0.012247 0.1270019,0.2367838 0.2584084,0.4989911 0.1629061,0.32506 0.2162526,0.512563 0.167671,0.589336 -0.1612181,0.254771 -0.080653,0.632072 0.1935102,0.906235 0.224614,0.224612 1.0064145,0.23003 1.2176795,-0.01058 z"
     style="fill:#ffffff;stroke-width:0.0207904"
     id="path1628" />
</svg>
