<?xml version="1.0" encoding="UTF-8" standalone="no"?>
<svg
   xmlns:dc="http://purl.org/dc/elements/1.1/"
   xmlns:cc="http://creativecommons.org/ns#"
   xmlns:rdf="http://www.w3.org/1999/02/22-rdf-syntax-ns#"
   xmlns:svg="http://www.w3.org/2000/svg"
   xmlns="http://www.w3.org/2000/svg"
   id="svg881"
   version="1.1"
   viewBox="0 0 48 48"
   height="48"
   width="48">
  <metadata
     id="metadata887">
    <rdf:RDF>
      <cc:Work
         rdf:about="">
        <dc:format>image/svg+xml</dc:format>
        <dc:type
           rdf:resource="http://purl.org/dc/dcmitype/StillImage" />
        <dc:title></dc:title>
      </cc:Work>
    </rdf:RDF>
  </metadata>
  <defs
     id="defs885">
    <clipPath
       id="clipPath18"
       clipPathUnits="userSpaceOnUse">
      <path
         id="path16"
         d="M 0,288 H 792 V 0 H 0 Z" />
    </clipPath>
  </defs>
  <path
     style="fill:#ffffff;stroke-width:0.14666666"
     d="M 24,1.9999999 A 22,22 0 0 0 2.0000001,24 22,22 0 0 0 2.8880209,30.144242 c 6.7216417,0.49687 15.3883951,-0.256575 17.0001521,-0.486401 0.787508,-0.11264 1.514186,-0.278337 2.22034,-0.511042 C 21.759648,28.850917 21.412076,28.555054 21.060076,28.258201 19.72639,27.126136 15.629248,24.344703 13.22,19.14625 11.706987,15.88321 11.69716,12.031239 13.531667,8.896487 17.336008,2.3825249 23.778203,2.9264107 25.618778,3.0564582 c 5.250667,0.3725334 8.581724,4.4806759 10.097084,8.0133808 2.503499,5.832842 -2.096353,14.042849 -10.005994,18.378314 -0.03465,0.01879 -0.0748,0.0374 -0.11,0.05619 0.18402,0.144512 0.346399,0.271811 0.465492,0.367235 0.301354,0.246207 0.702616,0.660238 1.056174,1.045284 1.783467,-0.630858 4.733034,-1.335015 9.231979,-1.456061 1.309028,-0.03447 5.708469,-0.06178 8.933779,-0.01577 A 22,22 0 0 0 46,24 22,22 0 0 0 24,1.9999999 Z m 0.525653,2.3962217 c -3.127758,0.010542 -7.482255,1.7303733 -9.524744,5.2227084 -1.381206,2.360747 -1.479069,4.716479 -0.244915,7.689119 0.162892,0.385633 0.469086,1.091347 0.674034,1.488722 0.387585,0.74976 0.391335,1.10594 1.347216,2.384479 1.767627,2.36368 3.482059,4.112946 6.591979,6.595132 0,0 0.28931,0.222466 0.684915,0.528515 0.02915,-0.01568 0.05711,-0.02658 0.08626,-0.04235 7.558421,-4.11312 12.052617,-11.669634 10.240606,-16.330701 -1.135787,-2.921013 -5.175335,-7.018981 -8.92805,-7.4840152 -0.293388,-0.035383 -0.603707,-0.052617 -0.927263,-0.051608 z m -0.94732,26.0115624 c -1.459626,0.549899 -3.215758,1.029527 -5.12732,1.314848 -2.892202,0.431842 -9.6022755,0.731647 -14.8525754,0.480389 A 22,22 0 0 0 24,46 22,22 0 0 0 44.749896,31.23393 c -0.155183,-0.0073 -0.531355,-0.02466 -0.617604,-0.02924 -1.504021,-0.08332 -9.853269,0.09306 -10.425076,0.135493 -2.747168,0.198687 -4.095153,0.62348 -4.883826,0.857367 -0.111274,0.03328 -0.241092,0.08113 -0.380132,0.137216 3.257365,3.298048 4.569821,6.858473 4.009555,8.728958 -0.566913,1.888086 -2.641843,3.452066 -4.930237,3.714508 -0.03227,0.0055 -0.219478,0.02264 -0.510464,0.02264 -1.127189,0 -3.827469,-0.285038 -5.477368,-2.818457 -0.796501,-1.22496 -3.181493,-5.450445 3.361014,-10.021752 0,0 0.09167,-0.06609 0.267831,-0.170729 -0.200053,-0.175212 -0.366474,-0.319513 -0.484394,-0.424527 -0.361002,-0.320714 -0.732041,-0.638678 -1.100862,-0.957632 z m 3.11036,2.779223 c -0.189685,0.101879 -0.31052,0.169585 -0.31052,0.169585 -2.810326,1.712277 -5.12271,5.664229 -3.779243,7.990747 0.760714,1.316874 2.24873,1.824808 4.553542,1.561203 1.864821,-0.218048 3.236218,-1.071217 3.566117,-2.311429 0.638688,-2.394976 -1.988296,-5.43676 -4.029896,-7.410106 z"
     id="circle26" />
</svg>
