<?xml version="1.0" encoding="UTF-8" standalone="no"?>
<svg
   xmlns:dc="http://purl.org/dc/elements/1.1/"
   xmlns:cc="http://creativecommons.org/ns#"
   xmlns:rdf="http://www.w3.org/1999/02/22-rdf-syntax-ns#"
   xmlns:svg="http://www.w3.org/2000/svg"
   xmlns="http://www.w3.org/2000/svg"
   xmlns:sodipodi="http://sodipodi.sourceforge.net/DTD/sodipodi-0.dtd"
   xmlns:inkscape="http://www.inkscape.org/namespaces/inkscape"
   viewBox="0 0 48 48"
   height="48"
   width="48"
   xml:space="preserve"
   id="svg2"
   version="1.1"
   sodipodi:docname="CS_PromoLogoOrangeCMYK_fullsize.svg"
   inkscape:version="0.92.4 5da689c313, 2019-01-14"><sodipodi:namedview
     pagecolor="#ffffff"
     bordercolor="#666666"
     borderopacity="1"
     objecttolerance="10"
     gridtolerance="10"
     guidetolerance="10"
     inkscape:pageopacity="0"
     inkscape:pageshadow="2"
     inkscape:window-width="1890"
     inkscape:window-height="1049"
     id="namedview34"
     showgrid="false"
     inkscape:pagecheckerboard="true"
     inkscape:zoom="7.1212121"
     inkscape:cx="42.544508"
     inkscape:cy="3.6350095"
     inkscape:window-x="3370"
     inkscape:window-y="1091"
     inkscape:window-maximized="0"
     inkscape:current-layer="svg2" /><metadata
     id="metadata8"><rdf:RDF><cc:Work
         rdf:about=""><dc:format>image/svg+xml</dc:format><dc:type
           rdf:resource="http://purl.org/dc/dcmitype/StillImage" /><dc:title></dc:title></cc:Work></rdf:RDF></metadata><defs
     id="defs6"><clipPath
       id="clipPath18"
       clipPathUnits="userSpaceOnUse"><path
         id="path16"
         d="M 0,288 H 792 V 0 H 0 Z"
         inkscape:connector-curvature="0" /></clipPath></defs><path
     style="fill:#ffffff;stroke-width:0.16"
     d="M 24,0 A 24,24 0 0 0 0,24 24,24 0 0 0 0.96875,30.70281 c 7.3327,0.54204 16.78734,-0.2799 18.54562,-0.53062 0.8591,-0.12288 1.65184,-0.30364 2.42219,-0.5575 C 21.55598,29.29191 21.17681,28.96915 20.79281,28.64531 19.33788,27.41033 14.86827,24.37604 12.24,18.705 10.58944,15.14532 10.57872,10.94317 12.58,7.52344 16.73019,0.4173 23.75804,1.01063 25.76594,1.1525 c 5.728,0.4064 9.36188,4.88801 11.015,8.74187 2.73109,6.3631 -2.28693,15.31947 -10.91563,20.04907 -0.0378,0.0205 -0.0816,0.0408 -0.12,0.0613 0.20075,0.15765 0.37789,0.29652 0.50781,0.40062 0.32875,0.26859 0.76649,0.72026 1.15219,1.14031 1.9456,-0.68821 5.16331,-1.45638 10.07125,-1.58843 1.42803,-0.0376 6.22742,-0.0674 9.74594,-0.0172 A 24,24 0 0 0 48,24 24,24 0 0 0 24,0 Z m 0.57344,2.61406 c -3.4121,0.0115 -8.16246,1.88768 -10.39063,5.6975 -1.50677,2.57536 -1.61353,5.14525 -0.26718,8.38813 0.1777,0.42069 0.51173,1.19056 0.73531,1.62406 0.42282,0.81792 0.42691,1.20648 1.46969,2.60125 1.92832,2.57856 3.79861,4.48685 7.19125,7.19469 0,0 0.31561,0.24269 0.74718,0.57656 0.0318,-0.0171 0.0623,-0.029 0.0941,-0.0462 C 32.39871,24.16301 37.30147,15.91954 35.32473,10.83474 34.08569,7.64818 29.67891,3.17767 25.58504,2.67036 25.26498,2.63176 24.92645,2.61296 24.57348,2.61406 Z M 23.54,30.99031 c -1.59232,0.59989 -3.5081,1.12312 -5.59344,1.43438 -3.15513,0.4711 -10.47521,0.79816 -16.20281,0.52406 A 24,24 0 0 0 24,48 24,24 0 0 0 46.63625,31.89156 c -0.16929,-0.008 -0.57966,-0.0269 -0.67375,-0.0319 -1.64075,-0.0909 -10.74902,0.10152 -11.37281,0.14781 -2.99691,0.21675 -4.46744,0.68016 -5.32781,0.93531 -0.12139,0.0363 -0.26301,0.0885 -0.41469,0.14969 3.55349,3.59787 4.98526,7.48197 4.37406,9.5225 -0.61845,2.05973 -2.88201,3.76589 -5.37844,4.05219 -0.0352,0.006 -0.23943,0.0247 -0.55687,0.0247 -1.22966,0 -4.17542,-0.31095 -5.97531,-3.07468 -0.86891,-1.33632 -3.47072,-5.94594 3.66656,-10.93282 0,0 0.1,-0.0721 0.29218,-0.18625 C 25.05113,32.30697 24.86958,32.14955 24.74094,32.03499 24.34712,31.68512 23.94235,31.33825 23.54,30.9903 Z m 3.39312,3.03188 c -0.20693,0.11114 -0.33875,0.185 -0.33875,0.185 -3.06581,1.86794 -5.58841,6.17916 -4.12281,8.71718 0.82987,1.43659 2.45316,1.9907 4.9675,1.70313 2.03435,-0.23787 3.53042,-1.1686 3.89031,-2.52156 0.69675,-2.6127 -2.16905,-5.93101 -4.39625,-8.08375 z"
     id="circle26"
     inkscape:connector-curvature="0" /></svg>