<svg id="Layer_1" data-name="Layer 1" xmlns="http://www.w3.org/2000/svg" viewBox="0 0 48 48"><defs><style>.cls-1{fill:#fff;}</style></defs><title>cozydrive</title><path class="cls-1" d="M43.54,11.64H24.87c-2.22-.12-6.69-4.78-9.24-4.78H4.46A2.45,2.45,0,0,0,2,9.31H2V16a.4.4,0,0,0,.4.4H45.6A.4.4,0,0,0,46,16V14.1A2.46,2.46,0,0,0,43.54,11.64Z"/><path class="cls-1" d="M34.63,31.91a5.19,5.19,0,0,1-1.78.33,5,5,0,0,1-1.77-.33.45.45,0,0,0-.59.23.44.44,0,0,0,.23.59,5.61,5.61,0,0,0,2.13.41A5.82,5.82,0,0,0,35,32.73a.45.45,0,0,0-.36-.82Z"/><path class="cls-1" d="M45.6,20.44H2.4a.4.4,0,0,0-.4.41V38.69a2.45,2.45,0,0,0,2.45,2.45H43.54A2.44,2.44,0,0,0,46,38.69h0V20.85A.4.4,0,0,0,45.6,20.44Zm-8.35,16h-8.8a3.71,3.71,0,0,1,0-7.42,3.35,3.35,0,0,1,.71.07c0-.11,0-.21,0-.32a3.71,3.71,0,0,1,7.42,0c0,.11,0,.22,0,.32a4.17,4.17,0,0,1,.71-.07,3.71,3.71,0,0,1,0,7.42Z"/></svg>