<svg xmlns="http://www.w3.org/2000/svg" viewBox="0 0 48 48">
  <path
     style="fill:#ffffff"
     d="m 7.2289694,6.4184351 26.1403216,0.051304 c 2.341655,-0.011066 3.456504,0.7977209 4.211553,1.2544601 0.293234,0.1773819 0.565495,0.3547839 0.605025,0.3942293 0.03953,0.039443 0.159506,0.1392808 0.266612,0.2218609 0.42954,0.3311762 1.207728,1.0471622 1.207728,1.1111919 0,0.011358 0.07432,0.098076 0.16516,0.1926838 0.895429,0.9326099 1.711615,2.5140049 2.023779,3.9211569 0.05496,0.247738 0.124462,0.558538 0.154453,0.690666 0.08904,0.392281 0.124856,1.697044 0.0643,2.342254 -0.203249,2.165354 -1.124028,4.1342 -2.658491,5.684482 -0.575729,0.581664 -0.727348,0.708555 -1.444916,1.209248 -0.585996,0.408886 -0.584149,0.392902 -0.08097,0.701584 0.214192,0.131399 0.897575,0.656686 1.277719,0.982126 0.142287,0.121813 0.705048,0.753116 1.031086,1.156672 0.715542,0.885666 1.473413,2.501517 1.687888,3.598732 0.03874,0.198192 0.09414,0.454937 0.123112,0.57055 0.09518,0.379842 0.135405,1.924477 0.06569,2.52243 -0.161064,1.381322 -0.709064,2.920235 -1.432883,4.023874 -1.182143,1.802468 -2.997661,3.205058 -4.939733,3.816222 -0.181674,0.05718 -0.384371,0.125417 -0.450434,0.151655 -0.141888,0.05635 -1.051234,0.207623 -1.771706,0.294725 L 7.2289694,41.372093 Z M 26.470343,36.476233 c 0.487991,-0.05791 1.003033,-0.194347 1.448556,-0.299719 1.381087,-0.376275 2.770214,-1.110376 3.648515,-1.568869 0.420432,-0.342701 0.963497,-0.676656 1.320499,-0.998018 0.221293,-0.209553 0.382489,-0.320404 0.868098,-0.754236 L 28.68359,27.859089 c -1.933328,1.447724 -2.750059,1.833435 -5.460582,1.381331 -3.103128,-0.956399 -4.8957,-5.042674 -3.637135,-7.697416 1.256962,-2.287549 3.494686,-3.240333 5.720511,-3.236057 1.654769,0.222888 2.211515,0.883953 3.384725,1.624505 l 4.917389,-5.164975 c -0.474988,-0.329878 -1.36153,-1.137366 -2.100528,-1.621563 -5.92978,-3.4711902 -13.101242,-2.189731 -17.119394,3.24991 -1.219015,1.680975 -1.951534,3.444824 -2.304322,5.548566 -0.415049,3.40542 0.664441,7.341395 2.57473,9.791885 0.65436,0.83252 1.612906,1.761076 2.490117,2.403218 2.965644,1.947387 6.006859,2.750671 9.321242,2.33774 z" />
</svg>
