<?xml version="1.0" encoding="UTF-8"?>
<svg version="1.1" viewBox="0 0 48 48" xmlns="http://www.w3.org/2000/svg">
    <path d="m24 2a22 22 0 0 0-22 22 22 22 0 0 0 22 22 22 22 0 0 0 22-22 22 22 0 0 0-22-22zm0 4a18 18 0 0 1 18 18 18 18 0 0 1-18 18 18 18 0 0 1-18-18 18 18 0 0 1 18-18zm0 2a16 16 0 0 0-16 16 16 16 0 0 0 16 16 16 16 0 0 0 16-16 16 16 0 0 0-16-16zm-8.6426 8h17.285c0.7519 0 1.3574 0.5575 1.3574 1.25-1e-6 0.6925-0.60552 1.25-1.3574 1.25h-17.285c-0.7519 0-1.3574-0.5575-1.3574-1.25s0.60552-1.25 1.3574-1.25zm-0.03125 4.5h2.5586c0.73472 0 1.3262 0.5575 1.3262 1.25-1e-6 0.6925-0.59145 1.25-1.3262 1.25h-2.5586c-0.73472 0-1.3262-0.5575-1.3262-1.25s0.59145-1.25 1.3262-1.25zm16.396 0h0.98633c0.7152 0 1.291 0.5575 1.291 1.25s-0.57581 1.25-1.291 1.25h-0.98633c-0.7152 0-1.291-0.5575-1.291-1.25s0.57581-1.25 1.291-1.25zm-3.8418 0.09375c0.31967-1.49e-4 0.63993 0.12235 0.88477 0.36719 0.48967 0.48967 0.49013 1.2774 0 1.7676l-4.3125 4.3125c-0.12242 0.12242-0.2636 0.21422-0.41406 0.27539-0.15052 0.061308-0.31087 0.091723-0.4707 0.091797-0.15984-7.4e-5 -0.32018-0.030489-0.4707-0.091797-0.15047-0.061167-0.29164-0.15297-0.41406-0.27539l-2.4844-2.4844c-0.49013-0.49013-0.48967-1.2779 0-1.7676 0.48967-0.48967 1.2774-0.49013 1.7676 0l1.6016 1.6016 3.4277-3.4297c0.24506-0.24506 0.56509-0.36704 0.88476-0.36719zm-12.555 4.4062h2.5586c0.73472 0 1.3262 0.5575 1.3262 1.25s-0.59145 1.25-1.3262 1.25h-2.5586c-0.73472 0-1.3262-0.5575-1.3262-1.25s0.59145-1.25 1.3262-1.25zm14.074 0h3.498c0.61004 0 1.1016 0.49152 1.1016 1.1016v0.29688c0 0.61004-0.49152 1.1016-1.1016 1.1016h-3.498c-0.61004 0-1.1016-0.49152-1.1016-1.1016v-0.29688c0-0.61004 0.49152-1.1016 1.1016-1.1016zm-14.074 5h2.5586c0.73472 0 1.3262 0.5575 1.3262 1.25s-0.59145 1.25-1.3262 1.25h-2.5586c-0.73472 0-1.3262-0.5575-1.3262-1.25-1e-6 -0.6925 0.59145-1.25 1.3262-1.25zm6.918 0h3.5117c0.69315 0 1.252 0.5575 1.252 1.25s-0.55881 1.25-1.252 1.25h-3.5117c-0.69315-1e-6 -1.252-0.5575-1.252-1.25s0.55881-1.25 1.252-1.25zm7.8711 0h2.5586c0.73472 0 1.3262 0.5575 1.3262 1.25s-0.59145 1.25-1.3262 1.25h-2.5586c-0.73472 0-1.3262-0.5575-1.3262-1.25 1e-6 -0.6925 0.59145-1.25 1.3262-1.25z" fill="#ffffffff"/>
</svg>
