<svg id="svg4" width="48" height="48" version="1.1" viewBox="0 0 48 48" xmlns="http://www.w3.org/2000/svg">
 <path id="path911" d="m11.814 2.0195c-5.3867 0-9.793 4.4069-9.793 9.7949v24.369c0 5.388 4.4063 9.7949 9.793 9.7949h24.371c5.3867 0 9.793-4.4069 9.793-9.7949v-24.369c0-5.388-4.4063-9.7949-9.793-9.7949h-24.371zm20.68 3.6895h8.6895v8.6914h-8.6895v-8.6914zm3.5078 1.5625v1.9453h-1.9453v1.6758h1.9453v1.9453h1.6758v-1.9453h1.9434v-1.6758h-1.9434v-1.9453h-1.6758zm-26.187 9.0586c0.50536-0.0038 1.087 0 1.7559 0h12.705c5.4014 0 5.1055-0.24578 5.1055 5.1055v12.705c0 5.3004 0.34679 5.1055-5.1055 5.1055h-12.705c-5.2997 0-5.1055 0.19493-5.1055-5.1055v-12.705c0-4.6823-0.18791-5.0792 3.3496-5.1055zm0.015625 2.8477c-0.36294 0-0.6582 0.29713-0.6582 0.66016v1.6426c0 0.36303 0.29526 0.66016 0.6582 0.66016h1.6426c0.36294 0 0.66016-0.29713 0.66016-0.66016v-1.6426c0-0.36303-0.29721-0.66016-0.66016-0.66016h-1.6426zm3.668 0c-0.10334 0-0.19786 0.029446-0.28516 0.072266-0.27521 0.07946-0.48242 0.32305-0.48242 0.62305v1.6426c0 0.36303 0.29721 0.66016 0.66016 0.66016h1.6426c0.10284 0 0.19622-0.029835 0.2832-0.072265 0.27609-0.0789 0.48438-0.32243 0.48438-0.62305v-1.6426c0-0.36303-0.29721-0.66016-0.66016-0.66016h-1.6426zm3.668 0c-0.36294 0-0.66016 0.29713-0.66016 0.66016v1.6426c0 0.36303 0.29721 0.66016 0.66016 0.66016h1.6426c0.36294 0 0.6582-0.29712 0.6582-0.66016v-1.6426c0-0.36303-0.29526-0.66016-0.6582-0.66016h-1.6426zm3.666 0c-0.36294 0-0.6582 0.29713-0.6582 0.66016v1.6426c0 0.36303 0.29526 0.66016 0.6582 0.66016h1.6426c0.36294 0 0.66016-0.29712 0.66016-0.66016v-1.6426c0-0.36303-0.29721-0.66016-0.66016-0.66016h-1.6426zm3.668 0c-0.36294 0-0.66016 0.29713-0.66016 0.66016v1.6426c0 0.36303 0.29721 0.66016 0.66016 0.66016h1.6426c0.36294 0 0.66016-0.29713 0.66016-0.66016v-1.6426c0-0.36303-0.29721-0.66016-0.66016-0.66016h-1.6426zm0 3.5449c-0.36294 0-0.66016 0.29712-0.66016 0.66016v1.6406c0 0.36303 0.29721 0.66016 0.66016 0.66016h1.6426c0.36294 0 0.66016-0.29713 0.66016-0.66016v-1.6406c0-0.36303-0.29721-0.66016-0.66016-0.66016h-1.6426zm-14.67 0.085938c-0.36294 0-0.6582 0.29713-0.6582 0.66016v1.6426c0 0.36303 0.29526 0.66016 0.6582 0.66016h1.6426c0.36294 0 0.66016-0.29713 0.66016-0.66016v-1.6426c0-0.36303-0.29721-0.66016-0.66016-0.66016h-1.6426zm7.3359 0c-0.36294 0-0.66016 0.29712-0.66016 0.66016v1.6426c0 0.36303 0.29721 0.6582 0.66016 0.6582h1.6426c0.36294 0 0.6582-0.29517 0.6582-0.6582v-1.6426c0-0.36303-0.29526-0.66016-0.6582-0.66016h-1.6426zm3.5977 3.625c-0.36294 0-0.66016 0.29712-0.66016 0.66016v1.6426c0 0.36303 0.29721 0.66016 0.66016 0.66016h1.6426c0.36294 0 0.6582-0.29712 0.6582-0.66016v-1.6426c0-0.36303-0.29526-0.66016-0.6582-0.66016h-1.6426zm-3.6445 0.005859c-0.36294 0-0.66016 0.29712-0.66016 0.66016v1.6406c0 0.36303 0.29721 0.66016 0.66016 0.66016h1.6426c0.36294 0 0.66016-0.29713 0.66016-0.66016v-1.6406c0-0.36303-0.29721-0.66016-0.66016-0.66016h-1.6426zm-7.2891 0.001953c-0.36294 0-0.6582 0.29713-0.6582 0.66016v1.6406c0 0.36303 0.29526 0.66016 0.6582 0.66016h1.6426c0.36294 0 0.66016-0.29713 0.66016-0.66016v-1.6406c0-0.36303-0.29721-0.66016-0.66016-0.66016h-1.6426zm3.6445 0.017578c-0.36294 0-0.66016 0.29713-0.66016 0.66016v1.6426c0 0.36303 0.29721 0.66016 0.66016 0.66016h1.6426c0.36294 0 0.66016-0.29712 0.66016-0.66016v-1.6426c0-0.36303-0.29722-0.66016-0.66016-0.66016h-1.6426zm3.6914 3.6113c-0.36294 0-0.66016 0.29713-0.66016 0.66016v1.6406c0 0.36303 0.29721 0.66016 0.66016 0.66016h1.6426c0.36294 0 0.6582-0.29712 0.6582-0.66016v-1.6406c0-0.36303-0.29526-0.66016-0.6582-0.66016h-1.6426zm3.5723 0c-0.36294 0-0.66016 0.29713-0.66016 0.66016v1.6406c0 0.36303 0.29721 0.66016 0.66016 0.66016h1.6406c0.36294 0 0.66016-0.29712 0.66016-0.66016v-1.6406c0-0.36303-0.29721-0.66016-0.66016-0.66016h-1.6406zm-10.908 0.001954c-0.36294 0-0.6582 0.29713-0.6582 0.66016v1.6426c0 0.36303 0.29526 0.6582 0.6582 0.6582h1.6426c0.36294 0 0.66016-0.29517 0.66016-0.6582v-1.6426c0-0.36303-0.29721-0.66016-0.66016-0.66016h-1.6426zm14.645 0.023437c-0.36294 0-0.66016 0.29712-0.66016 0.66016v1.6406c0 0.36303 0.29721 0.66016 0.66016 0.66016h1.6426c0.36294 0 0.66016-0.29713 0.66016-0.66016v-1.6406c0-0.36303-0.29721-0.66016-0.66016-0.66016h-1.6426zm-11.084 0.058594c-0.36294 0-0.66016 0.29712-0.66016 0.66016v1.6406c0 0.36303 0.29721 0.66016 0.66016 0.66016h1.6426c0.36294 0 0.6582-0.29712 0.6582-0.66016v-1.6406c0-0.36303-0.29526-0.66016-0.6582-0.66016h-1.6426zm7.4062 3.6562c-0.36294 0-0.66016 0.29713-0.66016 0.66016v1.6426c0 0.36303 0.29721 0.66016 0.66016 0.66016h1.6426c0.36294 0 0.66016-0.29713 0.66016-0.66016v-1.6426c0-0.36303-0.29721-0.66016-0.66016-0.66016h-1.6426zm3.668 0c-0.36294 0-0.66016 0.29713-0.66016 0.66016v1.6426c0 0.36303 0.29721 0.66016 0.66016 0.66016h1.6406c0.36294 0 0.66016-0.29713 0.66016-0.66016v-1.6426c0-0.36303-0.29721-0.66016-0.66016-0.66016h-1.6406zm-11.074 0.037109c-0.36294 0-0.66016 0.29713-0.66016 0.66016v1.6406c0 0.36303 0.29721 0.66016 0.66016 0.66016h1.6426c0.36294 0 0.6582-0.29713 0.6582-0.66016v-1.6406c0-0.36303-0.29526-0.66016-0.6582-0.66016h-1.6426z" fill="#fff"/>
</svg>
