<?xml version="1.0" encoding="UTF-8"?>
<svg version="1.1" viewBox="0 0 48 48" xmlns="http://www.w3.org/2000/svg">
    <path d="m7 5c-1.108 0-2 0.892-2 2v34c0 1.108 0.892 2 2 2h34c1.108 0 2-0.892 2-2v-34c0-1.108-0.892-2-2-2zm0.96586 11.719h4.9146c1.4614 0 2.5819 0.41302 3.3613 1.2387 0.78454 0.81926 1.1768 1.9897 1.1768 3.5113 0 1.528-0.39223 2.7046-1.1768 3.5303-0.77941 0.81926-1.9 1.229-3.3613 1.229h-1.9536v5.0523h-2.961zm11.537 0h3.1226c1.7434 0 3.0409 0.15943 3.8921 0.47803 0.85632 0.3121 1.5895 0.84538 2.1997 1.5996 0.53841 0.65671 0.93869 1.4142 1.2002 2.2725 0.26151 0.85827 0.39209 1.8302 0.39209 2.916 0 1.0988-0.13058 2.0805-0.39209 2.9453-0.26151 0.85827-0.66179 1.6158-1.2002 2.2725-0.61532 0.75424-1.3534 1.2908-2.2148 1.6094-0.86145 0.3121-2.1541 0.46827-3.877 0.46827h-3.1226zm13.075 0h7.9913v2.8384h-5.0303v2.7115h4.7305v2.8379h-4.7305v6.1739h-2.961zm-21.652 2.7212v4.0669h1.6387c0.5743 0 1.0178-0.17526 1.3306-0.52637 0.31279-0.35761 0.46924-0.86153 0.46924-1.5117 0-0.6502-0.15646-1.1509-0.46924-1.502-0.31279-0.35111-0.75627-0.52686-1.3306-0.52686zm11.538 0.11718v8.8848h1.061c1.2101 0 2.1333-0.38038 2.7691-1.1411 0.64097-0.76074 0.96142-1.866 0.96142-3.3159 0-1.4434-0.31778-2.5421-0.95358-3.2964-0.63584-0.75424-1.5616-1.1313-2.7768-1.1313z" fill="#fff" stroke-width=".99998"/>
</svg>
