<?xml version="1.0" encoding="UTF-8" standalone="no"?>
<!-- Created with Inkscape (http://www.inkscape.org/) -->

<svg
   xmlns:dc="http://purl.org/dc/elements/1.1/"
   xmlns:cc="http://creativecommons.org/ns#"
   xmlns:rdf="http://www.w3.org/1999/02/22-rdf-syntax-ns#"
   xmlns:svg="http://www.w3.org/2000/svg"
   xmlns="http://www.w3.org/2000/svg"
   xmlns:sodipodi="http://sodipodi.sourceforge.net/DTD/sodipodi-0.dtd"
   xmlns:inkscape="http://www.inkscape.org/namespaces/inkscape"
   width="192"
   height="192"
   viewBox="0 0 50.799968 50.799962"
   version="1.1"
   id="svg8"
   inkscape:version="0.92.2 2405546, 2018-03-11"
   sodipodi:docname="cuprumpdf.svg">
  <defs
     id="defs2" />
  <sodipodi:namedview
     id="base"
     pagecolor="#ffffff"
     bordercolor="#666666"
     borderopacity="1.0"
     inkscape:pageopacity="0.0"
     inkscape:pageshadow="2"
     inkscape:zoom="2.8"
     inkscape:cx="38.172425"
     inkscape:cy="74.398158"
     inkscape:document-units="mm"
     inkscape:current-layer="g21"
     showgrid="false"
     inkscape:window-width="1840"
     inkscape:window-height="970"
     inkscape:window-x="40"
     inkscape:window-y="40"
     inkscape:window-maximized="1"
     units="px"
     inkscape:pagecheckerboard="true" />
  <metadata
     id="metadata5">
    <rdf:RDF>
      <cc:Work
         rdf:about="">
        <dc:format>image/svg+xml</dc:format>
        <dc:type
           rdf:resource="http://purl.org/dc/dcmitype/StillImage" />
        <dc:title></dc:title>
      </cc:Work>
    </rdf:RDF>
  </metadata>
  <g
     inkscape:label="Layer 1"
     inkscape:groupmode="layer"
     id="layer1">
    <g
       id="g21">
      <path
         style="fill:#ffffff;stroke-width:1.05833328"
         d="m 7.4083336,5.2916668 c -1.1726334,0 -2.1166667,0.9440333 -2.1166667,2.1166666 V 43.391666 c 0,1.172633 0.9440333,2.116667 2.1166667,2.116667 H 43.391666 c 1.172634,0 2.116667,-0.944034 2.116667,-2.116667 V 7.4083334 c 0,-1.1726333 -0.944033,-2.1166666 -2.116667,-2.1166666 z M 8.4304933,17.694527 h 5.2012327 c 1.54663,0 2.732536,0.43711 3.557406,1.311031 0.830296,0.86704 1.245402,2.105835 1.245402,3.716052 0,1.617099 -0.415106,2.862285 -1.245402,3.736206 -0.82487,0.867041 -2.010776,1.300695 -3.557406,1.300695 h -2.067574 v 5.346962 H 8.4304933 Z m 12.2101077,0 h 3.304707 c 1.845103,0 3.218285,0.16873 4.119128,0.505912 0.906272,0.330301 1.682239,0.894693 2.328024,1.69292 0.569812,0.695008 0.993442,1.496694 1.270206,2.405021 0.276765,0.908328 0.414962,1.936944 0.414962,3.086117 0,1.162934 -0.138197,2.201913 -0.414962,3.117123 -0.276764,0.908328 -0.700394,1.710013 -1.270206,2.40502 -0.651214,0.798227 -1.432346,1.366073 -2.344042,1.703255 -0.911698,0.330301 -2.279714,0.495578 -4.10311,0.495578 h -3.304707 z m 13.83843,0 h 8.457367 v 3.003951 H 37.61269 v 2.869592 h 5.006414 v 3.003433 H 37.61269 v 6.53397 h -3.133659 z m -22.914879,2.879928 v 4.30413 h 1.734261 c 0.607799,0 1.07715,-0.185484 1.408183,-0.557072 0.331033,-0.37847 0.496611,-0.911776 0.496611,-1.599903 0,-0.688127 -0.165578,-1.217978 -0.496611,-1.589567 -0.331033,-0.371588 -0.800384,-0.557588 -1.408183,-0.557588 z m 12.210624,0.124023 v 9.403043 h 1.122929 c 1.280718,0 2.257652,-0.402569 2.930569,-1.207677 0.678347,-0.805109 1.017511,-1.974824 1.017511,-3.509347 0,-1.527642 -0.336322,-2.690449 -1.009242,-3.488676 -0.672918,-0.798228 -1.652693,-1.197343 -2.938838,-1.197343 z"
         id="rect884"
         inkscape:connector-curvature="0" />
    </g>
  </g>
</svg>
