<?xml version="1.0" encoding="UTF-8" standalone="no"?>
<!-- Created with Inkscape (http://www.inkscape.org/) -->

<svg
   xmlns:dc="http://purl.org/dc/elements/1.1/"
   xmlns:cc="http://creativecommons.org/ns#"
   xmlns:rdf="http://www.w3.org/1999/02/22-rdf-syntax-ns#"
   xmlns:svg="http://www.w3.org/2000/svg"
   xmlns="http://www.w3.org/2000/svg"
   xmlns:sodipodi="http://sodipodi.sourceforge.net/DTD/sodipodi-0.dtd"
   xmlns:inkscape="http://www.inkscape.org/namespaces/inkscape"
   width="185"
   height="185"
   viewBox="0 0 48.947914 48.947881"
   version="1.1"
   id="svg8"
   inkscape:version="0.92.3 (2405546, 2018-03-11)"
   sodipodi:docname="cuprumpdf.svg">
  <defs
     id="defs2" />
  <sodipodi:namedview
     id="base"
     pagecolor="#ffffff"
     bordercolor="#666666"
     borderopacity="1.0"
     inkscape:pageopacity="0.0"
     inkscape:pageshadow="2"
     inkscape:zoom="0.98994949"
     inkscape:cx="-151.01008"
     inkscape:cy="-24.277461"
     inkscape:document-units="mm"
     inkscape:current-layer="g21"
     showgrid="false"
     inkscape:window-width="1920"
     inkscape:window-height="1003"
     inkscape:window-x="-9"
     inkscape:window-y="-9"
     inkscape:window-maximized="1"
     units="px" />
  <metadata
     id="metadata5">
    <rdf:RDF>
      <cc:Work
         rdf:about="">
        <dc:format>image/svg+xml</dc:format>
        <dc:type
           rdf:resource="http://purl.org/dc/dcmitype/StillImage" />
        <dc:title />
      </cc:Work>
    </rdf:RDF>
  </metadata>
  <g
     inkscape:label="Layer 1"
     inkscape:groupmode="layer"
     id="layer1">
    <g
       id="g21">
      <path
         style="fill:#ffffff;fill-opacity:1;stroke-width:0.35277775"
         d="m 1.5434028,24.433093 v -9.91949 l 4.508809,0.14048 c 5.1418012,0.1602 6.5053762,0.66024 7.5732812,2.77717 0.959035,1.90112 0.857398,6.22794 -0.182872,7.78513 -1.095304,1.63958 -2.817049,2.43221 -5.2846352,2.43288 l -2.028472,5.4e-4 v 3.35139 3.35139 h -2.293055 -2.293056 z m 8.113889,-3.13329 v -1.76388 h -1.763889 -1.763889 v 1.76388 1.76389 h 1.763889 1.763889 z m 8.1138882,3.175 v -9.9595 l 4.749684,0.1388 c 5.14919,0.15047 5.76837,0.36371 7.39936,2.54823 0.67108,0.89884 0.72735,1.46149 0.72735,7.27247 0,5.81099 -0.0563,6.37364 -0.72735,7.27248 -1.63099,2.18452 -2.25017,2.39776 -7.39936,2.54823 l -4.749684,0.1388 z m 8.466674,0 v -4.93888 h -1.76389 -1.76389 v 4.93888 4.93889 h 1.76389 1.76389 z m 8.11389,0 v -9.87777 h 6.52638 6.52639 v 2.46944 2.46945 h -4.23333 -4.23333 v 1.76388 1.76389 h 2.46944 2.46945 v 2.29306 2.29305 h -2.46945 -2.46944 v 3.35139 3.35139 h -2.29306 -2.29305 z"
         id="path23"
         inkscape:connector-curvature="0" />
    </g>
  </g>
</svg>
