<?xml version="1.0" encoding="UTF-8" standalone="no"?>
<!-- Created with Inkscape (http://www.inkscape.org/) -->

<svg
   xmlns:dc="http://purl.org/dc/elements/1.1/"
   xmlns:cc="http://creativecommons.org/ns#"
   xmlns:rdf="http://www.w3.org/1999/02/22-rdf-syntax-ns#"
   xmlns:svg="http://www.w3.org/2000/svg"
   xmlns="http://www.w3.org/2000/svg"
   xmlns:sodipodi="http://sodipodi.sourceforge.net/DTD/sodipodi-0.dtd"
   xmlns:inkscape="http://www.inkscape.org/namespaces/inkscape"
   width="192"
   height="192"
   viewBox="0 0 50.799968 50.799962"
   version="1.1"
   id="svg8"
   inkscape:version="0.92.3 (2405546, 2018-03-11)"
   sodipodi:docname="cuprumpdf.svg">
  <defs
     id="defs2" />
  <sodipodi:namedview
     id="base"
     pagecolor="#ffffff"
     bordercolor="#666666"
     borderopacity="1.0"
     inkscape:pageopacity="0.0"
     inkscape:pageshadow="2"
     inkscape:zoom="0.98994949"
     inkscape:cx="-508.60408"
     inkscape:cy="-24.277461"
     inkscape:document-units="mm"
     inkscape:current-layer="g21"
     showgrid="false"
     inkscape:window-width="1920"
     inkscape:window-height="1003"
     inkscape:window-x="-9"
     inkscape:window-y="-9"
     inkscape:window-maximized="1"
     units="px" />
  <metadata
     id="metadata5">
    <rdf:RDF>
      <cc:Work
         rdf:about="">
        <dc:format>image/svg+xml</dc:format>
        <dc:type
           rdf:resource="http://purl.org/dc/dcmitype/StillImage" />
        <dc:title />
      </cc:Work>
    </rdf:RDF>
  </metadata>
  <g
     inkscape:label="Layer 1"
     inkscape:groupmode="layer"
     id="layer1">
    <g
       id="g21">
      <path
         style="fill:#ffffff;fill-opacity:1;stroke-width:0.35820511"
         d="M 2.1166667,25.358506 V 15.286409 L 6.694842,15.42905 c 5.220905,0.162665 6.605458,0.670398 7.689793,2.819896 0.973789,1.930368 0.870588,6.323754 -0.185686,7.904901 -1.112155,1.664804 -2.860388,2.469629 -5.3659365,2.470309 l -2.0596793,0.000548 v 3.40295 3.40295 H 4.4450004 2.1166667 Z M 10.355385,22.177012 V 20.385995 H 8.564359 6.7733332 v 1.791017 1.791027 h 1.7910258 1.791026 z m 8.238716,3.223846 V 15.288135 l 4.822756,0.140935 c 5.228409,0.152785 5.857115,0.369306 7.513197,2.587434 0.681404,0.912668 0.73854,1.483974 0.73854,7.384354 0,5.90039 -0.05717,6.471696 -0.73854,7.384364 -1.656082,2.218128 -2.284788,2.434649 -7.513197,2.587434 l -4.822756,0.140935 z m 8.596931,0 v -5.014863 h -1.791027 -1.791027 v 5.014863 5.014873 h 1.791027 1.791027 z m 8.238719,0 V 15.371122 h 6.626786 6.626796 v 2.507432 2.507441 h -4.298458 -4.298459 v 1.791017 1.791027 h 2.507432 2.507441 v 2.328337 2.328328 h -2.507441 -2.507432 v 3.40295 3.40295 h -2.328337 -2.328328 z"
         id="path23"
         inkscape:connector-curvature="0" />
    </g>
  </g>
</svg>
