<svg xmlns="http://www.w3.org/2000/svg" viewBox="0 0 48 48">
  <path
     style="fill:#ffffff"
     d="M 22.303318,42.662565 C 17.859609,42.257032 13.965592,40.434999 10.816893,37.288016 5.8761035,32.349918 4.1588797,25.384538 6.2179581,18.633878 7.6595355,13.907686 11.276827,9.6528021 15.769226,7.3990845 20.057012,5.2480206 25.297038,4.8343428 29.887602,6.284502 c 1.527885,0.482658 4.025344,1.7815882 4.025344,2.093583 l -5.355485,3.951102 c -4.169119,-1.681783 -10.849762,-0.267284 -13.815998,2.925579 -1.832555,1.972565 -3.008155,4.733556 -3.325608,7.810462 -0.411886,3.992196 1.526006,8.305184 4.859362,10.815029 1.250898,0.941859 2.624672,1.627634 4.181116,2.087163 0.959605,0.28332 1.555709,0.363874 3.107816,0.419958 2.621907,0.280296 5.683716,-0.994285 6.640135,-1.442278 l 3.350745,4.815992 c -3.385901,2.458051 -8.91691,3.082167 -11.251711,2.901473 z m 9.739278,-8.731607 10.143059,-7.371868 c 0.293035,-0.07663 0.296637,0.06214 0.03401,1.310631 -0.463322,2.202574 -1.502014,4.599976 -2.914784,6.72764 -0.742891,1.118801 -3.570334,4.06898 -3.899127,4.068373 z M 30.623587,32.015672 26.857431,26.857577 40.993594,16.765345 c 0.149118,0 0.316901,0.184489 0.449932,0.494727 0.383695,0.894817 0.948989,3.37036 1.114082,4.878814 0.139979,1.279001 0.135287,1.522625 -0.0343,1.781022 z M 22.257515,20.105189 35.871228,9.773184 c 0.78479,0 4.48433,4.400963 4.238362,5.041948 L 25.741628,24.81293 Z" />
</svg>
