<?xml version="1.0" encoding="UTF-8" standalone="no"?>
<svg
   xmlns:dc="http://purl.org/dc/elements/1.1/"
   xmlns:cc="http://creativecommons.org/ns#"
   xmlns:rdf="http://www.w3.org/1999/02/22-rdf-syntax-ns#"
   xmlns:svg="http://www.w3.org/2000/svg"
   xmlns="http://www.w3.org/2000/svg"
   xmlns:sodipodi="http://sodipodi.sourceforge.net/DTD/sodipodi-0.dtd"
   xmlns:inkscape="http://www.inkscape.org/namespaces/inkscape"
   width="48"
   height="48"
   viewBox="0 0 48 48"
   version="1.1"
   id="svg4"
   sodipodi:docname="Cythara.svg"
   inkscape:version="0.92.3 (2405546, 2018-03-11)">
  <metadata
     id="metadata10">
    <rdf:RDF>
      <cc:Work
         rdf:about="">
        <dc:format>image/svg+xml</dc:format>
        <dc:type
           rdf:resource="http://purl.org/dc/dcmitype/StillImage" />
        <dc:title></dc:title>
      </cc:Work>
    </rdf:RDF>
  </metadata>
  <defs
     id="defs8" />
  <sodipodi:namedview
     pagecolor="#969696"
     bordercolor="#666666"
     borderopacity="1"
     objecttolerance="10"
     gridtolerance="10"
     guidetolerance="10"
     inkscape:pageopacity="0"
     inkscape:pageshadow="2"
     inkscape:window-width="1920"
     inkscape:window-height="1046"
     id="namedview6"
     showgrid="false"
     inkscape:zoom="6.9532167"
     inkscape:cx="-4.6825598"
     inkscape:cy="34.724465"
     inkscape:window-x="0"
     inkscape:window-y="0"
     inkscape:window-maximized="1"
     inkscape:current-layer="svg4" />
  <path
     style="display:inline;fill:#ffffff"
     d="M 7 5 C 5.892 5 5 5.892 5 7 L 5 41 C 5 42.108 5.892 43 7 43 L 41 43 C 42.108 43 43 42.108 43 41 L 43 7 C 43 5.892 42.108 5 41 5 L 7 5 z M 25.181641 7.6660156 C 25.296191 7.6487026 25.403019 7.6511071 25.474609 7.6738281 C 25.9389 7.8211886 35.651689 16.895969 35.435547 16.980469 C 35.386427 16.999669 33.684451 16.347999 31.654297 15.53125 C 29.624145 14.7145 27.557484 13.898141 27.060547 13.71875 L 26.15625 13.392578 L 26.119141 22.896484 C 26.082371 32.323952 26.081103 32.402313 25.794922 32.935547 C 25.096772 34.236384 23.817705 35.021426 22.265625 35.103516 C 21.758618 35.130336 21.149347 35.074561 20.841797 34.972656 C 19.465752 34.516711 18.49168 33.578677 18.140625 32.371094 C 17.332743 29.592076 20.340898 27.06744 23.328125 28.017578 C 23.808495 28.170368 24.245821 28.297874 24.300781 28.298828 C 24.355737 28.299769 24.416607 23.720211 24.435547 18.123047 L 24.470703 7.9472656 L 24.841797 7.7675781 C 24.944009 7.7185926 25.06709 7.6833266 25.181641 7.6660156 z M 20.730469 21.367188 C 20.920284 21.354157 21.026621 21.376241 21.082031 21.431641 C 21.318055 21.667666 21.07533 21.797773 19.833984 22.103516 C 17.508505 22.676294 15.589738 24.027722 14.302734 25.998047 C 13.677814 26.95476 12.982422 28.76594 12.982422 29.4375 C 12.982422 29.612399 12.945251 29.851851 12.900391 29.96875 C 12.815001 30.191276 12.506192 30.256842 12.394531 30.076172 C 12.28093 29.89236 12.677983 28.113992 13.019531 27.273438 C 14.212932 24.336461 16.749487 22.206102 19.878906 21.513672 C 20.266842 21.427838 20.540653 21.380218 20.730469 21.367188 z M 20.814453 22.986328 C 20.921796 22.97705 21.01358 22.977569 21.085938 22.988281 C 21.16863 23.000521 21.22419 23.026599 21.25 23.068359 C 21.381961 23.281877 21.287621 23.329271 20.322266 23.53125 C 17.523833 24.116759 15.294891 26.351422 14.646484 29.222656 C 14.505277 29.847942 14.36615 30.181641 14.244141 30.181641 C 14.141301 30.181641 14.056641 30.083505 14.056641 29.964844 C 14.056641 29.491317 14.503475 28.050671 14.90625 27.226562 C 15.39146 26.233789 16.713172 24.757371 17.662109 24.148438 C 18.552875 23.576834 20.063053 23.051274 20.814453 22.986328 z M 14.285156 31.431641 C 14.370687 31.402865 14.47437 31.545821 14.53125 31.884766 C 15.053378 34.996287 17.439848 37.522891 20.419922 38.115234 C 20.952664 38.221126 21.3125 38.359999 21.3125 38.460938 C 21.3125 38.738045 21.15463 38.754348 20.238281 38.564453 C 18.299539 38.162691 16.362761 36.805389 15.279297 35.089844 C 14.668757 34.123124 14.180014 32.798368 14.146484 32.015625 C 14.131364 31.662632 14.199626 31.460411 14.285156 31.431641 z M 29.542969 31.460938 C 29.583496 31.440207 29.623976 31.452101 29.666016 31.494141 C 29.894346 31.722471 29.450872 33.421311 28.878906 34.509766 C 27.749286 36.659435 25.687157 38.193036 23.353516 38.617188 C 22.973879 38.686188 22.630637 38.710715 22.591797 38.671875 C 22.366346 38.446424 22.624823 38.27211 23.414062 38.115234 C 26.09516 37.582317 28.521116 35.264601 29.119141 32.666016 C 29.298793 31.885373 29.421382 31.523138 29.542969 31.460938 z M 31.15625 31.658203 C 31.384839 31.658203 31.403349 31.723851 31.318359 32.230469 C 30.660158 36.153921 27.963404 39.197161 24.320312 40.128906 C 23.146826 40.429033 22.712432 40.457088 22.582031 40.246094 C 22.437142 40.011657 22.658443 39.901702 23.75 39.664062 C 24.999575 39.392021 26.653794 38.599962 27.560547 37.839844 C 29.096075 36.552633 30.256562 34.644978 30.667969 32.730469 C 30.858307 31.84472 30.943083 31.658203 31.15625 31.658203 z M 12.408203 31.662109 C 12.453931 31.656579 12.521758 31.670824 12.611328 31.683594 C 12.859017 31.718914 12.927343 31.839088 13.001953 32.363281 C 13.490633 35.796801 16.501711 38.951608 19.96875 39.664062 C 21.025091 39.881133 21.268864 40.003836 21.119141 40.246094 C 20.990369 40.454449 20.451916 40.416579 19.308594 40.117188 C 17.545927 39.655611 15.808813 38.521651 14.478516 36.966797 C 13.701465 36.058577 12.777101 34.112289 12.519531 32.839844 C 12.324103 31.874407 12.271019 31.678669 12.408203 31.662109 z "
     id="path870" />
</svg>
