<?xml version="1.0" encoding="UTF-8" standalone="no"?>
<!-- Created with Inkscape (http://www.inkscape.org/) -->

<svg
   xmlns:dc="http://purl.org/dc/elements/1.1/"
   xmlns:cc="http://creativecommons.org/ns#"
   xmlns:rdf="http://www.w3.org/1999/02/22-rdf-syntax-ns#"
   xmlns:svg="http://www.w3.org/2000/svg"
   xmlns="http://www.w3.org/2000/svg"
   xmlns:sodipodi="http://sodipodi.sourceforge.net/DTD/sodipodi-0.dtd"
   xmlns:inkscape="http://www.inkscape.org/namespaces/inkscape"
   id="SVGRoot"
   version="1.1"
   viewBox="0 0 48 48"
   height="48px"
   width="48px"
   sodipodi:docname="dark sky.svg"
   inkscape:version="0.92.4 (5da689c313, 2019-01-14)">
  <defs
     id="defs3732" />
  <sodipodi:namedview
     id="base"
     pagecolor="#000000"
     bordercolor="#666666"
     borderopacity="1.0"
     inkscape:pageopacity="0"
     inkscape:pageshadow="2"
     inkscape:zoom="10.666667"
     inkscape:cx="6.1235603"
     inkscape:cy="25.798618"
     inkscape:document-units="px"
     inkscape:current-layer="layer2"
     showgrid="false"
     inkscape:window-width="1920"
     inkscape:window-height="1023"
     inkscape:window-x="0"
     inkscape:window-y="25"
     inkscape:window-maximized="1"
     inkscape:grid-bbox="true" />
  <metadata
     id="metadata3735">
    <rdf:RDF>
      <cc:Work
         rdf:about="">
        <dc:format>image/svg+xml</dc:format>
        <dc:type
           rdf:resource="http://purl.org/dc/dcmitype/StillImage" />
        <dc:title></dc:title>
      </cc:Work>
    </rdf:RDF>
  </metadata>
  <g
     inkscape:groupmode="layer"
     id="layer2"
     inkscape:label="Layer 2"
     style="display:inline">
    <path
       style="display:inline;fill:#ffffff;fill-opacity:1"
       d="M 24.234375 6.9257812 C 24.142935 6.8983343 23.983989 7.1834465 23.880859 7.5585938 C 23.619243 8.5102465 22.437505 10.529388 21.117188 12.28125 C 20.503248 13.095853 20 13.798871 20 13.84375 C 20 13.88863 20.341766 13.754204 20.759766 13.544922 C 21.177766 13.335641 21.980813 13.006739 22.542969 12.814453 C 23.830158 12.374167 25.23399 12.057989 26.519531 11.917969 C 27.069531 11.858069 27.519531 11.759567 27.519531 11.699219 C 27.519531 11.502285 24.405281 6.9770793 24.234375 6.9257812 z M 28.080078 12.451172 L 27.414062 13.185547 C 26.02987 14.712207 24.21949 17.677144 23.771484 19.150391 L 23.664062 19.5 L 24.90625 19.117188 C 25.588936 18.906555 26.166938 18.754828 26.191406 18.779297 C 26.215876 18.803767 25.95758 19.39411 25.617188 20.091797 C 24.741844 21.885957 24.194054 23.491037 23.917969 25.074219 C 23.700499 26.321288 23.595003 28.160156 23.740234 28.160156 C 23.773044 28.160156 24.138235 28.009526 24.552734 27.826172 C 24.967235 27.64282 25.342297 27.527843 25.384766 27.570312 C 25.427236 27.612783 25.387878 27.924788 25.298828 28.263672 C 24.440621 31.53047 24.442011 36.658323 25.300781 40.375 L 25.478516 41.150391 L 26.21875 41.044922 C 26.625964 40.986442 27.554265 40.736033 28.28125 40.488281 C 33.162834 38.824673 36.480469 34.128789 36.480469 28.880859 C 36.480469 25.804486 35.364832 22.996638 32.509766 18.880859 C 31.62462 17.604859 30.265994 15.635851 29.490234 14.505859 L 28.080078 12.451172 z M 18.980469 15.087891 C 18.887839 14.995261 17.655792 16.474487 16.115234 18.529297 C 12.053988 23.94622 11.016785 28.979584 12.984375 33.710938 C 14.649425 37.71479 18.612836 40.662104 22.945312 41.117188 C 23.873977 41.214737 25.070321 41.178198 25.236328 41.048828 C 25.255996 41.0335 25.100417 40.769674 24.890625 40.460938 C 24.244119 39.509519 23.084463 37.101282 22.666016 35.839844 C 22.447079 35.179844 22.161148 34.005228 22.03125 33.230469 C 21.901351 32.455711 21.75631 31.781702 21.707031 31.732422 C 21.657751 31.683144 21.35632 31.803925 21.039062 32 C 20.721805 32.196075 20.438814 32.330865 20.410156 32.298828 C 20.381498 32.26679 20.210133 31.592781 20.027344 30.800781 C 19.577394 28.851215 19.312681 26.089227 19.441406 24.679688 C 19.507166 23.959591 19.487585 23.519531 19.390625 23.519531 C 19.304725 23.519531 18.920617 23.660328 18.537109 23.832031 C 18.145353 24.007424 17.778849 24.083536 17.701172 24.005859 C 17.623492 23.928179 17.643764 22.824231 17.746094 21.486328 C 17.922013 19.186458 18.268121 17.327917 18.792969 15.855469 C 18.931174 15.467742 19.014982 15.122404 18.980469 15.087891 z "
       id="path847" />
  </g>
</svg>
