<?xml version="1.0" encoding="UTF-8"?>
<svg version="1.1" viewBox="0 0 48 48" xmlns="http://www.w3.org/2000/svg">
    <path d="m19.932 9.5664a15 15 0 0 0-10.932 14.434 15 15 0 0 0 10.932 14.424z" display="none"/>
    <path d="m24 2a22 22 0 0 0-22 22 22 22 0 0 0 22 22 22 22 0 0 0 22-22 22 22 0 0 0-22-22zm0.54297 5a17 17 0 0 1 17 17 17 17 0 0 1-17 17 17 17 0 0 1-4.6113-0.65234v-1.9238a15 15 0 0 1-10.932-14.424 15 15 0 0 1 10.932-14.434v-1.9238a17 17 0 0 1 4.6113-0.64258z" fill="#fff"/>
    <path d="m24 9c-1.3757 0.00135-2.7446 0.19194-4.0684 0.56641v28.857c1.3233 0.37777 2.6922 0.57164 4.0684 0.57617 8.2843 0 15-6.7157 15-15s-6.7157-15-15-15zm0 4c6.0751 0 11 4.9249 11 11s-4.9249 11-11 11z" fill="#fff"/>
</svg>
