<?xml version="1.0" encoding="UTF-8" standalone="no"?>
<svg
   xmlns:dc="http://purl.org/dc/elements/1.1/"
   xmlns:cc="http://creativecommons.org/ns#"
   xmlns:rdf="http://www.w3.org/1999/02/22-rdf-syntax-ns#"
   xmlns:svg="http://www.w3.org/2000/svg"
   xmlns="http://www.w3.org/2000/svg"
   id="svg4564"
   version="1.1"
   viewBox="0 0 48 48"
   height="48"
   width="48">
  <metadata
     id="metadata4570">
    <rdf:RDF>
      <cc:Work
         rdf:about="">
        <dc:format>image/svg+xml</dc:format>
        <dc:type
           rdf:resource="http://purl.org/dc/dcmitype/StillImage" />
        <dc:title></dc:title>
      </cc:Work>
    </rdf:RDF>
  </metadata>
  <defs
     id="defs4568" />
  <path
     id="rect4562"
     d="M 7 5 C 5.892 5 5 5.892 5 7 L 5 41 C 5 42.108 5.892 43 7 43 L 23.175781 43 L 23.175781 42.175781 L 23.175781 38.316406 L 23.175781 34.447266 C 23.175781 34.376484 23.186505 34.309611 23.203125 34.244141 A 7.8347528 7.8347528 0 0 1 23.175781 33.623047 A 7.8347528 7.8347528 0 0 1 24.654297 29.058594 L 23.546875 27.949219 C 23.051026 27.453369 23.051026 26.656006 23.546875 26.160156 C 23.7948 25.912232 24.117851 25.789062 24.441406 25.789062 C 24.764961 25.789062 25.089966 25.912232 25.337891 26.160156 L 26.443359 27.265625 A 7.8347528 7.8347528 0 0 1 31.009766 25.789062 A 7.8347528 7.8347528 0 0 1 35.576172 27.267578 L 36.683594 26.160156 C 37.179443 25.664307 37.976807 25.664307 38.472656 26.160156 C 38.968506 26.656006 38.968506 27.453369 38.472656 27.949219 L 37.367188 29.056641 A 7.8347528 7.8347528 0 0 1 38.845703 33.623047 A 7.8347528 7.8347528 0 0 1 38.814453 34.238281 C 38.832163 34.305768 38.845703 34.374066 38.845703 34.447266 L 38.845703 38.316406 L 38.845703 42.175781 L 38.845703 43 L 41 43 C 42.108 43 43 42.108 43 41 L 43 7 C 43 5.892 42.108 5 41 5 L 7 5 z M 31.800781 8.4785156 A 0.44267939 0.54573291 0 0 1 32.011719 8.5507812 L 34.962891 10.652344 L 37.914062 12.753906 A 0.44267939 0.54573291 0 0 1 37.914062 13.697266 L 34.962891 15.798828 L 32.011719 17.898438 A 0.44267939 0.54573291 0 0 1 31.347656 17.427734 L 31.347656 15.072266 L 21.755859 15.072266 C 21.003238 15.072266 20.396484 14.465512 20.396484 13.712891 L 20.396484 12.736328 C 20.396484 11.983706 21.003238 11.378906 21.755859 11.378906 L 31.347656 11.378906 L 31.347656 9.0234375 A 0.44267939 0.54573291 0 0 1 31.800781 8.4785156 z M 16.199219 15.851562 A 0.44267939 0.54573291 0 0 1 16.652344 16.396484 L 16.652344 18.751953 L 26.244141 18.751953 C 26.996762 18.751953 27.603516 19.356753 27.603516 20.109375 L 27.603516 21.085938 C 27.603516 21.838559 26.996762 22.445312 26.244141 22.445312 L 16.652344 22.445312 L 16.652344 24.798828 A 0.44267939 0.54573291 0 0 1 15.988281 25.271484 L 13.037109 23.171875 L 10.085938 21.070312 A 0.44267939 0.54573291 0 0 1 10.085938 20.125 L 13.037109 18.025391 L 15.988281 15.923828 A 0.44267939 0.54573291 0 0 1 16.199219 15.851562 z M 27.691406 32.277344 A 1.4576284 1.4576284 0 0 0 26.232422 33.734375 A 1.4576284 1.4576284 0 0 0 27.691406 35.193359 A 1.4576284 1.4576284 0 0 0 29.148438 33.734375 A 1.4576284 1.4576284 0 0 0 27.691406 32.277344 z M 34.328125 32.277344 A 1.4576284 1.4576284 0 0 0 32.873047 33.734375 A 1.4576284 1.4576284 0 0 0 34.328125 35.191406 A 1.4576284 1.4576284 0 0 0 35.787109 33.734375 A 1.4576284 1.4576284 0 0 0 34.328125 32.277344 z "
     style="fill:#ffffff" />
</svg>
