<?xml version="1.0" encoding="utf-8"?>
<!-- Generator: Adobe Illustrator 21.1.0, SVG Export Plug-In . SVG Version: 6.00 Build 0)  -->
<svg version="1.0" id="Layer_1" xmlns="http://www.w3.org/2000/svg" xmlns:xlink="http://www.w3.org/1999/xlink" x="0px" y="0px"
	 viewBox="0 0 48 48" style="enable-background:new 0 0 48 48;" xml:space="preserve">
<style type="text/css">
	.st0{fill:#FFFFFF;}
</style>
<g>
	<path class="st0" d="M28.8,12.9c-0.8,0-1.2,0.1-1.2,0.3c0,0.3,0,0.8,0,1.4c0,0.6,0,1.1,0,1.4c0,0.3,0,0.7,0,1.3c0,0.6,0,1,0,1.3
		c0,0.2,0.4,0.3,1.2,0.3c0.9,0,1.6-0.3,2.1-0.9c0.5-0.6,0.7-1.3,0.7-2.2c0-0.9-0.3-1.6-0.8-2.1C30.3,13.2,29.6,12.9,28.8,12.9z"/>
	<path class="st0" d="M20.5,15.8c0-0.9-0.3-1.6-0.8-2.1c-0.5-0.6-1.2-0.8-2.1-0.8c-0.8,0-1.2,0.1-1.2,0.3c0,0.3,0,0.8,0,1.4
		c0,0.6,0,1.1,0,1.4c0,0.3,0,0.7,0,1.3c0,0.6,0,1,0,1.3c0,0.2,0.4,0.3,1.2,0.3c0.9,0,1.6-0.3,2.1-0.9C20.2,17.5,20.5,16.8,20.5,15.8
		z"/>
	<path class="st0" d="M41,5H7C5.9,5,5,5.9,5,7v34c0,1.1,0.9,2,2,2h34c1.1,0,2-0.9,2-2V7C43,5.9,42.1,5,41,5z M14.8,21.3
		c-0.5,0-0.9,0-1.1,0c-0.1,0-0.2-0.1-0.2-0.2c0-0.6,0-1.4,0.1-2.5c0-1.1,0.1-2,0.1-2.5c0-0.6,0-1.5-0.1-2.6c0-1.2-0.1-2-0.1-2.6
		c0-0.1,0.1-0.2,0.2-0.2c0.4,0,1-0.1,1.8-0.1c1.6,0,2.6,0,3,0.1c1.2,0.1,2.2,0.4,2.8,0.9c0.6,0.5,1.1,1.1,1.5,1.9
		c0.4,0.8,0.5,1.6,0.5,2.4c0,1.5-0.5,2.8-1.4,3.9c-0.9,1-2,1.5-3.6,1.6c-0.3,0-1.1,0-2.4,0C15.7,21.3,15.3,21.3,14.8,21.3z
		 M30.4,34.8c-0.4,0.1-0.6-0.3-0.8-0.6c-0.3-0.4,0.2-1.1-0.6-1.2c-0.1,0-0.4,0.2-0.4,0.3c-0.1,0.7-0.5,1.5,0.2,2.1
		c0.8,0.6,0.7,1.4,0.7,2.3c0,0.5-0.1,0.9-0.6,1c-0.6,0-0.7-0.5-0.8-0.9c-0.4-1.5-0.4-1.6-1.7-0.4c-1.6,0.8-1.9,0.6-1.9-1.1
		c0-1,0-2.1,0-3.1c0-0.4-0.1-0.7-0.6-0.7c-0.4,0-0.4,0.4-0.5,0.7c0,1.1,0,2.2,0,3.3c0,0.5,0.1,1.1-0.4,1.4c-0.6,0.3-1.1-0.1-1.5-0.4
		c-0.2-0.2-0.4-0.4-0.6-0.5c-0.8-0.3-0.9,0.3-1,0.8c-0.1,0.5-0.1,1.1-0.8,1.1c-0.7,0-0.8-0.7-0.9-1.2c-0.1-0.8,0.1-1.5,0.6-2.1
		c0.4-0.5,0.3-0.9,0.2-1.6c-0.7,0.3-1,2.2-2.1,0.6c0-0.7,0-1.3,0-2c0.5-0.8,1.2-1.2,2.2-1.1c0.9,0.1,1.2-0.4,0.5-1.2
		c-0.6-0.7-1.2-1.4-1.1-2.5c0.1-0.6,0.3-1.2,0.9-1.2c0.7-0.1,0.8,0.5,0.8,1.1c0,0.5,0.2,1.1,0.7,1.1c0.6,0,0.6-0.7,0.6-1.1
		c0.1-0.6,0-1.2,0.4-1.7c0.3-0.4,0.6-0.8,1.2-0.7c0.5,0.1,0.4,0.6,0.5,1c0.1,0.2,0.1,0.6,0.4,0.6c0.3,0,0.3-0.3,0.4-0.4
		c0.1-0.4,0-1.1,0.7-1c0.7,0.1,1,0.6,1.2,1.2c0.2,0.5,0.1,1.1,0.2,1.7c0.1,0.4,0.1,0.9,0.6,0.9c0.4,0,0.6-0.5,0.7-0.8
		c0.1-0.6-0.1-1.7,0.9-1.5c1,0.1,0.7,1.2,0.8,1.9c0.1,0.7-0.3,1.3-0.6,2c-0.3,0.5-0.2,1,0.5,1c0.8,0,1.1,0.5,1.7,0.9
		c0,0.7,0,1.3,0,2C31.1,34.4,30.7,34.7,30.4,34.8z M33.1,19.7c-0.9,1-2,1.5-3.6,1.6c-0.3,0-1.1,0-2.4,0c-0.3,0-0.6,0-1.1,0
		c-0.5,0-0.9,0-1.1,0c-0.1,0-0.2-0.1-0.2-0.2c0-0.6,0-1.4,0.1-2.5c0-1.1,0.1-2,0.1-2.5c0-0.6,0-1.5-0.1-2.6c0-1.2-0.1-2-0.1-2.6
		c0-0.1,0.1-0.2,0.2-0.2c0.4,0,1-0.1,1.8-0.1c1.6,0,2.6,0,3,0.1c1.2,0.1,2.2,0.4,2.8,0.9c0.6,0.5,1.1,1.1,1.5,1.9
		c0.4,0.8,0.5,1.6,0.5,2.4C34.5,17.3,34.1,18.6,33.1,19.7z"/>
</g>
</svg>
