<?xml version="1.0" encoding="UTF-8"?>
<svg version="1.1" viewBox="0 0 48 48" xmlns="http://www.w3.org/2000/svg">
    <path d="m21.098 5.8964a18.338 18.338 0 0 0-13.883 10.642c1.8382-0.88526 4.115-0.8711 5.9616 0.23679 2.0008-1.4184 4.291-2.2057 6.664-2.7022-1.0668-0.85671-1.4571-2.2056-1.2377-3.3429 0.20391-1.0568 0.80445-1.9643 1.6138-2.6485 0.14695-0.67032 0.31508-1.3977 0.8019-2.0953 0.02193-0.031425 0.05625-0.058441 0.07959-0.089543zm5.8123 0.027858c0.92952 1.2337 0.96682 3.0255 0.15123 4.3279 1.4937 0.66041 2.3404 2.28 2.0058 3.8742 0.7213 0.27436 1.4412 0.53373 2.4157 0.91533 1.1031 0.43194 2.2202 1.0169 3.2136 1.7849 1.806-1.1327 4.0726-1.2427 5.9317-0.39399a18.338 18.338 0 0 0-13.718-10.508zm-1.5143 3.9857c0.0867-0.010178 0.14968 0.051189 0.2348 0.047756 0.07325 0.011258 0.11033-0.040888 0.18704-0.021889zm0.19302 1.6317c-0.03818 0.02509-0.07652-0.0026-0.11541 0.0199-0.05532 0.02332-0.07391 0.08263-0.13133 0.10347zm-19.785 14.966a18.338 18.338 0 0 0 0.20893 1.1044c0.19759-0.02382 0.39761-0.04577 0.61685-0.04577h0.70241c-0.56599-0.27859-1.0797-0.63668-1.5282-1.0586zm36.283 0.04179c-0.44618 0.40744-0.95502 0.75128-1.5163 1.0168h0.69843c0.21924 0 0.41926 0.02195 0.61685 0.04577a18.338 18.338 0 0 0 0.20097-1.0626zm-35.716 2.5251a18.338 18.338 0 0 0 0.72629 2.0575h1.3591c-0.25871-0.64927-0.46068-1.3299-0.60889-2.0376h-1.2178c-0.091959 0-0.17001-0.01552-0.25868-0.0199zm35.168 0c-0.09256 0.0048-0.17444 0.0199-0.27062 0.0199h-1.2755c-0.14023 0.70452-0.34066 1.3858-0.60292 2.0376h1.4088a18.338 18.338 0 0 0 0.74022-2.0575zm-33.71 3.5857a18.338 18.338 0 0 0 1.2596 2.0376h1.562c-0.54385-0.63508-1.0456-1.3053-1.4605-2.0376zm30.807 0c-0.41736 0.7222-0.90084 1.4051-1.4486 2.0376h1.6058a18.338 18.338 0 0 0 1.2795-2.0376zm-28.327 3.5658a18.338 18.338 0 0 0 2.1709 2.0376h2.7122c-0.03896-0.02006-0.0806-0.03538-0.11939-0.05572-1.0483-0.5496-2.0263-1.2175-2.9151-1.9819zm25.337 0c-0.92118 0.79018-1.938 1.4735-3.0126 2.0376h2.7937a18.338 18.338 0 0 0 2.1411-2.0376zm-21.001 3.5658a18.338 18.338 0 0 0 9.3045 2.547 18.338 18.338 0 0 0 9.2627-2.547h-4.7657c-2.9064 0.78048-6.0994 0.74682-9.1214 0z" fill="#fff"/>
    <path d="m23.949 5.6616a2.547 2.547 0 0 0-2.547 2.547 2.547 2.547 0 0 0 0.02786 0.35021c-1.2141 0.8364-1.8565 2.1017-1.7073 3.2832 0.09614 0.76138 0.6712 1.4985 1.5083 1.7093 0.8371 0.21081 1.8211 0.0082 3.0126-0.59098 0.67128-0.33753 1.2319-0.39412 1.6138-0.32434 0.38191 0.06978 0.57234 0.2419 0.65466 0.41588s0.10721 0.41018-0.12735 0.79793c-0.15341 0.2536-0.44768 0.55755-0.88548 0.86558a15.211 12.257 0 0 0-1.6138-0.08158 15.211 12.257 0 0 0-10.6 3.4663 5.094 5.094 0 0 0-3.1917-1.1302 5.094 5.094 0 0 0-5.094 5.094 5.094 5.094 0 0 0 2.3321 4.2782v-0.36613c0-2.4954 1.2321-4.4666 3.0445-4.7876 4.5437-0.80476 9.0774-1.2009 13.603-1.1979 4.5251 3e-3 9.0392 0.40534 13.543 1.1979 1.8137 0.31918 3.0445 2.2922 3.0445 4.7876v0.42185a5.094 5.094 0 0 0 2.4336-4.3339 5.094 5.094 0 0 0-5.094-5.094 5.094 5.094 0 0 0-3.3091 1.2317 15.211 12.257 0 0 0-7.1634-3.2096c0.091-0.11628 0.18584-0.2318 0.25868-0.3522 0.44018-0.72767 0.52011-1.5661 0.20097-2.2406-0.31914-0.67447-0.9882-1.1243-1.761-1.2655-0.77281-0.1412-1.6611 0.0021-2.5749 0.46164-0.99966 0.50264-1.662 0.54911-1.954 0.47557-0.29202-0.07355-0.33034-0.15417-0.36414-0.42185-0.04778-0.37838 0.22847-1.1027 0.87951-1.6695a2.547 2.547 0 0 0 1.8307 0.77604 2.547 2.547 0 0 0 2.547-2.547 2.547 2.547 0 0 0-2.547-2.547zm0 20.117c-0.27462 0-0.38311 0.05542-0.48552 0.13929-0.10242 0.08386-0.21088 0.23904-0.31241 0.49945-0.20304 0.52082-0.3242 1.3942-0.55517 2.3281s-0.59805 1.965-1.4406 2.7679-2.1226 1.2994-3.9299 1.2994h-6.654a15.211 12.257 0 0 0 13.314 6.3357 15.211 12.257 0 0 0 13.292-6.3357h-6.5048c-1.8073 0-3.0873-0.49652-3.9299-1.2994s-1.2097-1.834-1.4406-2.7679c-0.23097-0.9339-0.35212-1.8073-0.55517-2.3281-0.10152-0.26041-0.20999-0.41559-0.31241-0.49945-0.10241-0.08386-0.2109-0.13929-0.48552-0.13929z" fill="#fff"/>
    <path d="m24.029 20.83c-4.398-3e-3 -8.8048 0.38079-13.222 1.1632-1.3087 0.23178-2.3991 1.7842-2.3991 3.9992v1.9986c0 2.215 1.0701 3.9992 2.3991 3.9992h6.5957c6.5971 0 3.4149-6.9023 6.5976-6.9023s5.26e-4 6.9023 6.5976 6.9023h6.5957c1.329 0 2.3991-1.7842 2.3991-3.9992v-1.9986c0-2.215-1.0902-3.7689-2.3991-3.9992-4.3791-0.77063-8.7666-1.1602-13.165-1.1632zm-0.0019 2.0887c4.2756 0.0029 8.5414 0.38232 12.804 1.1325-0.07531-0.01327 0.6726 0.41153 0.6726 1.9412v1.9986c0 0.77113-0.21275 1.4359-0.40433 1.7553-0.07538 0.12564-0.09113 0.13991-0.09965 0.15522h-6.4022c-1.285 0-1.6807-0.26846-1.9258-0.50206-0.24516-0.2336-0.45212-0.65719-0.62661-1.3625-0.17449-0.70526-0.24527-1.5823-0.65344-2.6291-0.20409-0.52339-0.52964-1.1388-1.1421-1.6403-0.61244-0.50154-1.4743-0.76842-2.2497-0.76842s-1.6372 0.26688-2.2497 0.76842c-0.61244 0.50154-0.938 1.1169-1.1421 1.6403-0.40817 1.0468-0.47895 1.9238-0.65344 2.6291-0.17449 0.70526-0.38145 1.1288-0.62661 1.3625-0.24516 0.2336-0.64079 0.50206-1.9258 0.50206h-6.4022c-0.0087-0.0153-0.02427-0.02955-0.09964-0.15522-0.19158-0.31937-0.40433-0.98415-0.40433-1.7553v-1.9986c0-1.5295 0.74677-1.9559 0.67452-1.9431 4.2979-0.76122 8.5805-1.1334 12.856-1.1306z" fill="#fff"/>
</svg>
