<?xml version="1.0" encoding="UTF-8" standalone="no"?>
<!-- Created with Inkscape (http://www.inkscape.org/) -->

<svg
   xmlns:dc="http://purl.org/dc/elements/1.1/"
   xmlns:cc="http://creativecommons.org/ns#"
   xmlns:rdf="http://www.w3.org/1999/02/22-rdf-syntax-ns#"
   xmlns:svg="http://www.w3.org/2000/svg"
   xmlns="http://www.w3.org/2000/svg"
   xmlns:sodipodi="http://sodipodi.sourceforge.net/DTD/sodipodi-0.dtd"
   xmlns:inkscape="http://www.inkscape.org/namespaces/inkscape"
   id="SVGRoot"
   version="1.1"
   viewBox="0 0 48 48"
   height="48px"
   width="48px"
   sodipodi:docname="deco.svg"
   inkscape:version="0.92.4 (5da689c313, 2019-01-14)">
  <defs
     id="defs3732" />
  <sodipodi:namedview
     id="base"
     pagecolor="#000000"
     bordercolor="#666666"
     borderopacity="1.0"
     inkscape:pageopacity="0"
     inkscape:pageshadow="2"
     inkscape:zoom="11.313708"
     inkscape:cx="-6.6612985"
     inkscape:cy="14.63776"
     inkscape:document-units="px"
     inkscape:current-layer="layer2"
     showgrid="false"
     inkscape:window-width="1852"
     inkscape:window-height="1012"
     inkscape:window-x="68"
     inkscape:window-y="32"
     inkscape:window-maximized="1"
     inkscape:grid-bbox="true" />
  <metadata
     id="metadata3735">
    <rdf:RDF>
      <cc:Work
         rdf:about="">
        <dc:format>image/svg+xml</dc:format>
        <dc:type
           rdf:resource="http://purl.org/dc/dcmitype/StillImage" />
        <dc:title></dc:title>
      </cc:Work>
    </rdf:RDF>
  </metadata>
  <g
     inkscape:groupmode="layer"
     id="layer2"
     inkscape:label="Layer 2"
     style="display:inline">
    <path
       style="fill:#ffffff;stroke-width:0.75852287"
       d="M 23.9375 7.25 A 16.6875 16.6875 0 0 0 23.865234 7.2519531 L 23.955078 23.283203 A 0.85937577 0.85937577 0 0 1 24.787109 24.140625 A 0.85937577 0.85937577 0 0 1 23.927734 25 A 0.85937577 0.85937577 0 0 1 23.068359 24.140625 A 0.85937577 0.85937577 0 0 1 23.740234 23.302734 L 20.574219 7.6113281 A 16.6875 16.6875 0 0 0 7.25 23.9375 A 16.6875 16.6875 0 0 0 23.9375 40.625 A 16.6875 16.6875 0 0 0 40.625 23.9375 A 16.6875 16.6875 0 0 0 23.9375 7.25 z "
       id="circle23" />
  </g>
</svg>
