<?xml version="1.0" encoding="UTF-8"?>
<svg version="1.1" viewBox="0 0 48 48" xmlns="http://www.w3.org/2000/svg">
    <path d="m24 5c-0.45984 0-0.91951 0.26461-1.8392 0.79559l-11.041 6.3747c-1.8394 1.062-1.8392 1.0624-1.8392 3.1863v12.749c2e-7 2.1239-1.733e-4 2.1244 1.8392 3.1863l11.041 6.3747 1.8392 1.0515 7.4163 4.2815v-8.5531l5.464-3.1546c1.8394-1.062 1.8392-1.0624 1.8392-3.1863v-12.749c0-2.1239 1.75e-4 -2.1244-1.8392-3.1863l-11.041-6.3747c-0.91968-0.53098-1.3793-0.79559-1.8392-0.79559zm-4.216 8.5214a2.5395 2.5395 0 0 1 2.5396 2.5396 2.5395 2.5395 0 0 1-0.02976 0.37498l6.1862 3.5177a2.5395 2.5395 0 0 1 1.5634-0.54164 2.5395 2.5395 0 0 1 2.5396 2.5396 2.5395 2.5395 0 0 1-2.5396 2.5396 2.5395 2.5395 0 0 1-2.5396-2.5396 2.5395 2.5395 0 0 1 0.02381-0.31943l-6.2239-3.5395a2.5395 2.5395 0 0 1-1.5198 0.50791 2.5395 2.5395 0 0 1-2.5396-2.5396 2.5395 2.5395 0 0 1 2.5396-2.5396zm6.1902 9.6781 0.96424 1.6705-4.7418 2.738a2.5395 2.5395 0 0 1 0.02579 0.33728 2.5395 2.5395 0 0 1-2.5396 2.5396 2.5395 2.5395 0 0 1-2.5396-2.5396 2.5395 2.5395 0 0 1 2.5396-2.5396 2.5395 2.5395 0 0 1 1.5495 0.53172z" fill="#fff" style="paint-order:stroke markers fill"/>
</svg>
