<?xml version="1.0" encoding="UTF-8"?>
<svg version="1.1" viewBox="0 0 48 48" xmlns="http://www.w3.org/2000/svg">
    <path d="m10.415 29.939h6.481v1.2495h-6.481z" fill="#fff" style="paint-order:stroke markers fill"/>
    <path d="m10.415 34.938h5.4009v1.2495h-5.4009z" fill="#fff" style="paint-order:stroke markers fill"/>
    <path d="m10.415 32.438h7.5612v1.2495h-7.5612z" fill="#fff" style="paint-order:stroke markers fill"/>
    <path d="m7.7969 19.375v20h32.406v-20h-32.406zm24.76 9.0781 1.3203 1.8711h-0.7793v4.3613h-1.0801v-4.3613h-0.78125l1.3203-1.8711zm3.6953 0 1.3203 1.8711h-0.78125v4.3613h-1.0801v-4.3613h-0.78125l1.3223-1.8711zm-26.916 0.26367h9.7207v8.7246h-9.7207v-8.7246zm20.82 7.2148h8.6406v1.2461h-8.6406v-1.2461z" fill="#fff" style="paint-order:stroke markers fill"/>
    <path d="m33.841 11.987-0.691 4.6713h-1.0312l0.61303-4.6713h1.1092zm-2.2184 0-0.39002 3.405h-1.0523s0.33319-3.405 0.33319-3.405h1.1092zm4.4369 0-0.73332 4.0446h-1.0417l0.66581-4.0446h1.1092zm-31.059-3.9868 2.8 10.375h32.403l2.7969-10.375h-38zm24.459 3.2618h7.8282s-1.1879 6.0111-1.1879 6.0111h-7.1277s0.4875-6.0111 0.4875-6.0111z" fill="#fff" style="paint-order:stroke markers fill"/>
</svg>
