<?xml version="1.0" encoding="UTF-8"?>
<svg version="1.1" viewBox="0 0 48 48" xmlns="http://www.w3.org/2000/svg">
    <path d="m41.036 26.66c-1.4026 0.10409-2.5465 0.8958-3.3333 1.7713-1.6829 1.8728-2.9897 3.2437-4.0229 4.0906-1.0332 0.84696-1.7108 1.1261-2.2701 1.1535-0.55926 0.02736-1.2378-0.18252-2.3091-0.90515s-2.4485-1.9223-4.2282-3.5467c-1.0527-0.96089-2.1671-1.5401-3.3086-1.6646-1.1416-0.12445-2.1997 0.22548-3.0664 0.73274-1.7335 1.0145-3.0016 2.6105-4.2836 3.7725-1.2819 1.162-2.3158 1.7894-3.52 1.6112-1.2003-0.17758-3.1076-1.346-5.6936-4.9547v4.6469c1.8324 1.9366 3.5365 2.965 5.2626 3.2204 2.4607 0.36405 4.4316-0.98798 5.9276-2.344s2.7768-2.8165 3.793-3.4113c0.50813-0.29738 0.87497-0.39115 1.2623-0.34892 0.38732 0.04222 0.90654 0.24017 1.6441 0.91336 1.8008 1.6438 3.2299 2.9096 4.5668 3.8115 1.337 0.90185 2.67 1.4758 4.0968 1.406 1.4268-0.06981 2.7114-0.76865 3.9921-1.8185 1.2807-1.0499 2.6384-2.4948 4.3472-4.3965 0.46313-0.51538 1.0986-0.83666 1.5517-0.80458 0.37776 0.02675 0.914 0.26171 1.5558 1.3013v-3.8792c-0.43853-0.19861-0.88933-0.32462-1.3485-0.35714-0.2107-0.01492-0.41537-0.01487-0.61575 0z" color="#000000" color-rendering="auto" dominant-baseline="auto" fill="#fff" image-rendering="auto" shape-rendering="auto" solid-color="#000000" style="font-feature-settings:normal;font-variant-alternates:normal;font-variant-caps:normal;font-variant-ligatures:normal;font-variant-numeric:normal;font-variant-position:normal;isolation:auto;mix-blend-mode:normal;shape-padding:0;text-decoration-color:#000000;text-decoration-line:none;text-decoration-style:solid;text-indent:0;text-orientation:mixed;text-transform:none;white-space:normal"/>
    <path d="m37.085 9.0106c-2.5408 7.259-4.1753 15.889-8.2244 22.054 1.234 1.0616 2.1083 1.5317 3.2717 0.7348 4.0436-8.2945 5.5621-12.62 8.2757-22.789z" color="#000000" color-rendering="auto" dominant-baseline="auto" fill="#fff" image-rendering="auto" shape-rendering="auto" solid-color="#000000" style="font-feature-settings:normal;font-variant-alternates:normal;font-variant-caps:normal;font-variant-ligatures:normal;font-variant-numeric:normal;font-variant-position:normal;isolation:auto;mix-blend-mode:normal;shape-padding:0;text-decoration-color:#000000;text-decoration-line:none;text-decoration-style:solid;text-indent:0;text-orientation:mixed;text-transform:none;white-space:normal"/>
    <path d="m19.521 32.604c-0.9804 0.86969-1.7109 1.5205-2.4753 2.2413 1.7324 2.3224 3.6019 3.8628 5.8435 4.144 2.351-0.04301 3.913-0.80972 5.3858-2.0894-1.0981-0.4141-1.8974-1.0661-2.7483-1.8062-0.85923 0.61584-1.5712 0.85222-2.2454 0.76764-0.98909-0.12408-2.3319-1.3958-3.7602-3.2573z" color="#000000" color-rendering="auto" dominant-baseline="auto" fill="#fff" image-rendering="auto" shape-rendering="auto" solid-color="#000000" style="font-feature-settings:normal;font-variant-alternates:normal;font-variant-caps:normal;font-variant-ligatures:normal;font-variant-numeric:normal;font-variant-position:normal;isolation:auto;mix-blend-mode:normal;shape-padding:0;text-decoration-color:#000000;text-decoration-line:none;text-decoration-style:solid;text-indent:0;text-orientation:mixed;text-transform:none;white-space:normal"/>
    <path d="m6.681 9.0106c2.3703 8.862 5.0358 16.256 7.547 21.239 0.7847-0.77618 1.635-1.3856 2.4917-2.1982-2.1604-4.4673-4.5902-11.065-6.7671-19.041z" color="#000000" color-rendering="auto" dominant-baseline="auto" fill="#fff" image-rendering="auto" shape-rendering="auto" solid-color="#000000" style="font-feature-settings:normal;font-variant-alternates:normal;font-variant-caps:normal;font-variant-ligatures:normal;font-variant-numeric:normal;font-variant-position:normal;isolation:auto;mix-blend-mode:normal;shape-padding:0;text-decoration-color:#000000;text-decoration-line:none;text-decoration-style:solid;text-indent:0;text-orientation:mixed;text-transform:none;white-space:normal"/>
</svg>
