<?xml version="1.0" encoding="UTF-8"?>
<svg version="1.1" viewBox="0 0 48 48" xmlns="http://www.w3.org/2000/svg">
    <path d="m35.092 25.656c-0.26096-0.0033-0.50589 0.12262-0.65625 0.33594l-3.2402 4.4668c-2.2365-0.93354-4.698-1.4224-7.1953-1.4277-2.4855 0.0028-4.9365 0.48335-7.166 1.4062l-2.9395-4.0391c-0.62053-0.85469-1.9018 0.075-1.2812 0.92969l2.7578 3.793c-4.7476 2.4965-7.6337 6.8688-7.6367 11.574 0.0048358 0.10159 0.011998 0.20321 0.019531 0.30469h32.498c0.0055-0.10149 0.010902-0.20312 0.013672-0.30469-0.0078-4.6925-2.882-9.0539-7.6113-11.551l3.0625-4.2246c0.38643-0.5185 0.021614-1.2554-0.625-1.2637zm-6.5918 6.7578a1.0001 1.0001 0 0 1 1.043 0.98633c0.030224 1.0937 0.28777 1.4712 0.50976 1.6074 0.222 0.1362 0.79408 0.20213 1.8184-0.15625a1.0001 1.0001 0 1 1 0.66016 1.8867c-1.2913 0.45181-2.513 0.59452-3.5234-0.02539s-1.4235-1.8326-1.4629-3.2578a1.0001 1.0001 0 0 1 0.95508-1.041zm-9.2812 0.09961a1.0001 1.0001 0 0 1 0.98633 1.043c-0.039386 1.4252-0.45249 2.6359-1.4629 3.2559-1.0104 0.61991-2.2321 0.4772-3.5234 0.025391a1.0001 1.0001 0 1 1 0.66016-1.8867c1.0243 0.35838 1.5964 0.29245 1.8184 0.15625s0.47954-0.51375 0.50976-1.6074a1.0001 1.0001 0 0 1 1.0117-0.98633zm7.6719 4.7637a1.0001 1.0001 0 0 1 0.875 1.4375c-0.46268 0.9844-0.96828 1.7578-1.5762 2.3301s-1.3559 0.9337-2.1387 0.9668c-1.5655 0.066199-2.8977-0.98752-4.1816-2.5391a1.0002 1.0002 0 1 1 1.541-1.2754c1.114 1.3461 2.0385 1.8383 2.5566 1.8164 0.25907-0.010955 0.50733-0.10173 0.85156-0.42578s0.74441-0.88993 1.1367-1.7246a1.0001 1.0001 0 0 1 0.93555-0.58594z" fill="#fff"/>
    <path d="m5.3958 5v38h0.87826c-0.15916-3.9826 1.2983-7.9787 4.6634-10.688v-5.0747c-0.05581-0.27078-0.05789-0.5505 0-0.8396v-21.398zm6.3333 0v20.058c1.7294-1.5524 4.7589 0.82426 5.5417 2.9919v-23.05zm6.3333 0v23.342c1.7965-0.54624 3.6648-0.83642 5.5417-0.87207v-22.47zm6.3333 0v22.462c1.359 0.02612 2.7159 0.18141 4.0434 0.47469 0.59337 0.39868 1.0781 0.53999 1.4983 0.52262v-23.459zm6.3333 0v23.196c1.4094-0.93414 2.0183-3.993 4.2227-4.1191 0.54123 0.06839 0.97145 0.19553 1.3189 0.36182v-19.439zm6.3333 0v20.067c0.52776 0.71069 0.41133 1.6899 0 2.6611v4.5876c2.859 2.6428 4.7676 6.3469 4.7825 10.282-0.0017 0.13626-0.01619 0.26723-0.02165 0.40202h0.78084v-38zm-25.333 23.868v3.0028c1.6391-0.85521 0.79722-1.8337 0-3.0028zm24.542 0.27677c-0.42599 0.61521-0.90416 1.1592-1.3174 1.5277 0.4554 0.29615 0.89349 0.62013 1.3174 0.9633z" fill="#fff"/>
</svg>
