<svg height="48" viewBox="0 0 12.7 12.7" width="48" xmlns="http://www.w3.org/2000/svg"><path d="m7.6456533 1.3232656a3.6776809 3.6776809 0 0 0 -2.546794 1.07687 3.6776809 3.6776809 0 0 0 -.244221 4.92465l-.51545.51545-.104009-.10401-2.912264 2.9128404.728066.72806 2.912838-2.9128304-.104009-.10401.512002-.51201a3.6776809 3.6776809 0 0 0 4.9280927-.24709 3.6776809 3.6776809 0 0 0 0-5.20105 3.6776809 3.6776809 0 0 0 -2.6542517-1.07687zm.09884.58843a3.089252 3.089252 0 0 1 2.139376.90448 3.089252 3.089252 0 0 1 0 4.3684 3.089252 3.089252 0 0 1 -4.36897 0 3.089252 3.089252 0 0 1 0-4.3684 3.089252 3.089252 0 0 1 2.229594-.90448zm-1.877341 1.53429-.164921.76369h.605668c.472621 0 .606817-.22415.606817-.43213 0-.14653-.08951-.33156-.466606-.33156zm1.564738 0-.164921.76311h.605094c.472852.00013.606817-.22357.606817-.43155 0-.14653-.08962-.33156-.466606-.33156zm1.426825.68266-.165495.7637h.605093c.472853 0 .607967-.22371.607967-.43155 0-.14665-.08985-.33215-.466606-.33215zm-3.200731.46604-.164921.76426h.605093c.472738 0 .607392-.22416.607392-.43155 0-.14653-.09008-.33271-.46718-.33271zm1.564163 0-.16492.76426h.605091c.472853 0 .607392-.22416.607392-.43155 0-.14653-.08985-.33271-.466606-.33271zm1.410736.73094-.164921.76369h.605093c.472737 0 .607392-.22417.607392-.43155 0-.14665-.08962-.33214-.466605-.33214zm-1.635419.46545-.164921.7637h.605093c.472853.00011.606818-.2236.606818-.43098 0-.14722-.08928-.33272-.466031-.33272z" fill="#fff"/></svg>