<?xml version="1.0" encoding="UTF-8"?>
<svg version="1.1" viewBox="0 0 48 48" xmlns="http://www.w3.org/2000/svg">
    <path d="m15.75 30.7c-1.662 0-3 1.3381-3 3v4c0 1.6619 1.338 3 3 3h15.25l4.25 2v-9c0-1.6619-1.338-3-3-3zm11.15 2.9355c0.29485 0 0.49414 0.20016 0.49414 0.5 0 0.29485-0.19929 0.49414-0.49414 0.49414s-0.49609-0.1993-0.49609-0.49414c0-0.29984 0.20125-0.5 0.49609-0.5zm-3.3301 0.08594h0.83008v1.4238c0.16491-0.14992 0.37904-0.23047 0.62891-0.23047 0.61968 0 1.0449 0.4993 1.0449 1.2539 0 0.7746-0.45512 1.2949-1.1348 1.2949-0.30984 0-0.54516-0.11042-0.70508-0.32031l-0.13477 0.27148h-0.5293zm4.2754 0h0.84961v2.8535c0 0.15492 0.06929 0.23438 0.19922 0.23438 0.02998 0 0.08479-0.0045 0.13477-0.01953l0.16992 0.56836c-0.16491 0.05997-0.36002 0.0957-0.54492 0.0957-0.51473 0-0.80859-0.28065-0.80859-0.77539zm-11.502 0.22461h0.83594l1.0938 2.0234 1.0352-2.0234h0.82422v3.4688h-0.83984v-2.0391l-0.73438 1.5039h-0.6543l-0.7207-1.4141v1.9492h-0.83984zm5.5898 0.96875c0.77959 0 1.2793 0.48586 1.2793 1.2305 0 0.78959-0.54957 1.3184-1.3691 1.3184-0.78459 0-1.2832-0.485-1.2832-1.2246 0-0.79458 0.54848-1.3242 1.373-1.3242zm8.6133 0c0.69963 0 1.1094 0.42014 1.1094 1.1348 0 0.12993-0.01517 0.25397-0.03516 0.37891h-1.4707c0.08496 0.27486 0.30511 0.39648 0.66992 0.39648 0.1999 0 0.39472-0.03551 0.59961-0.10547l0.19141 0.58398c-0.30984 0.10494-0.62594 0.16016-0.92578 0.16016-0.88954 0-1.4297-0.47994-1.4297-1.2695 0-0.7696 0.51642-1.2793 1.291-1.2793zm-4.082 0.05078h0.86523v2.4492h-0.86523zm4.0215 0.58398c-0.1999 0-0.32526 0.13099-0.36523 0.38086h0.7207c0-0.23988-0.13059-0.38086-0.35547-0.38086zm-8.6113 0.085936c-0.27486 0-0.43555 0.20401-0.43555 0.54883 0 0.34982 0.17109 0.56055 0.46094 0.56055 0.27486 0 0.43359-0.19642 0.43359-0.53125 0-0.36481-0.16914-0.57812-0.45898-0.57812zm2.8457 0c-0.11994 0-0.24035 0.03005-0.32031 0.125v0.80859c0.08995 0.11494 0.22508 0.17578 0.375 0.17578 0.26986 0 0.41992-0.1951 0.41992-0.54492 0-0.36481-0.16977-0.56445-0.47461-0.56445z" fill="#fff"/>
    <path d="m35.011 20.597c-0.9881 0-2.1245 0.49695-2.8145 1.4316-1.2072 1.6358 1.3837 1.3124 0.51562 2.4883-0.45613 0.61803-1.2602 0.85938-1.707 0.85938-0.40006 0-0.76051-0.15214-0.94922-0.25781l-0.59375 0.70117c0.27713 0.11304 0.57474 0.21875 0.95898 0.21875 1.0977 0 2.3274-0.44515 3.1562-1.5684 1.2796-1.7335-1.2457-1.5-0.5-2.5098 0.40617-0.55028 1.0356-0.70117 1.4746-0.70117 0.40796 0 0.5766 0.06816 0.86523 0.21875l0.62305-0.69531c-0.2818-0.12814-0.6686-0.18555-1.0293-0.18555z" fill="#fff" stroke-width="1.0886"/>
    <path d="m38.931 20.597c-0.9881 0-2.1247 0.49695-2.8145 1.4316-1.2074 1.6358 1.3854 1.3124 0.51758 2.4883-0.45613 0.61803-1.262 0.85938-1.709 0.85938-0.40006 0-0.75874-0.15214-0.94726-0.25781l-0.5957 0.70117c0.27731 0.11304 0.57474 0.21875 0.95898 0.21875 1.0979 0 2.3293-0.44515 3.1582-1.5684 1.2796-1.7335-1.2455-1.5-0.5-2.5098 0.40616-0.55028 1.0336-0.70117 1.4727-0.70117 0.40796 0 0.57874 0.06816 0.86719 0.21875l0.62109-0.69531c-0.28198-0.12814-0.66842-0.18555-1.0293-0.18555z" fill="#fff" stroke-width="1.0886"/>
    <path d="m10.382 20.685-3.8828 5.2637h3.0664l0.48828-0.66406h-2.2812l1.2793-1.7324h2.0781l0.49023-0.66406h-2.0781l1.1348-1.5391h2.2812l0.49023-0.66406z" fill="#fff" stroke-width="1.0886"/>
    <path d="m14.326 20.685-0.02734 2.5273-4.0352 2.7363h0.94141l3.207-2.2305-0.0332 2.2305h0.98828l0.0098-2.752 3.6953-2.5117h-0.89648l-2.9395 2.0234 0.03125-2.0234z" fill="#fff" stroke-width="1.0886"/>
    <path d="m19.962 20.685-3.8828 5.2637h0.78516l1.5508-2.1035h0.76758c0.9881 0 2.2451-0.41549 3.1074-1.584 0.88458-1.1987 0.22869-1.5762-0.89258-1.5762zm0.29492 0.66406h0.66602c0.48632 0 1.0286 0.24293 0.53906 0.90625-0.51184 0.69351-1.2949 0.92578-1.7812 0.92578h-0.77539z" fill="#fff" stroke-width="1.0886"/>
    <path d="m24.478 20.685-3.8828 5.2637h0.78516l1.7246-2.3379h0.46875c0.41551 0 0.67616 0.0011 0.54102 0.51367l-0.50781 1.8242h0.89453l0.50977-2.0977c0.06686-0.32402 0.03391-0.43677-0.14258-0.52734l0.01172-0.01367c0.71331-0.10567 1.5407-0.55836 2.0137-1.1992 0.92897-1.2587 0.0081-1.4258-1.0742-1.4258zm0.29492 0.66406h0.75391c0.72157 0 0.87584 0.30254 0.52539 0.77734-0.37274 0.50517-1.0459 0.82226-1.791 0.82226h-0.66797z" fill="#fff" stroke-width="1.0886"/>
    <path d="m29.197 20.685-3.8828 5.2637h3.0664l0.48828-0.66406h-2.2812l1.2793-1.7324h2.0781l0.48828-0.66406h-2.0762l1.1348-1.5391h2.2812l0.48828-0.66406z" fill="#fff" stroke-width="1.0886"/>
    <path d="m8.4414 9.2109-1.5332 2.084h8.3574c0.42249 0 0.41744 0.16168 0.21094 0.44141-0.20972 0.28396-0.56178 0.776-0.77539 1.0645-0.10837 0.14638-0.30378 0.41406 0.3457 0.41406h3.418s0.55003-0.75027 1.0117-1.377c0.62831-0.85248 0.054552-2.627-2.1914-2.627-2.0102-8.47e-5 -8.8437 0-8.8437 0zm14.406 0-2.9473 4.0039h10.777l2.9473-4.0039h-4.4043l-1.6914 2.2969h-1.9648l1.6875-2.2969h-4.4043zm12.211 0c-0.001439 0-2.9492 4.0039-2.9492 4.0039h4.668l2.9473-4.0039h-4.666zm-25.691 2.6035-3.0801 4.1855h7.5117c2.4805 0 3.8612-1.6881 4.2871-2.2715h-5.1211c-0.64939 0-0.45221-0.26573-0.34375-0.41211 0.21361-0.28845 0.56958-0.77854 0.7793-1.0625 0.2065-0.27973 0.21155-0.43945-0.21094-0.43945h-3.8223zm-4.3672 1.9141v0.48242h1.7949l0.35547-0.48242h-2.1504zm14.521 0c-0.001439 0-1.6699 2.2715-1.6699 2.2715h4.4062l1.6699-2.2715h-4.4062zm6.373 0c-0.001439 0-1.6699 2.2715-1.6699 2.2715h4.4043l1.6699-2.2715h-4.4043zm5.8379 0s-0.32214 0.44085-0.47852 0.65234c-0.5533 0.74775-0.063417 1.6191 1.7422 1.6191h7.0742l1.6699-2.2715h-10.008zm10.814 0-0.35352 0.48242h0.80664v-0.48242h-0.45312zm-37.547 0.89648v0.48242h1.1367l0.35547-0.48242h-1.4922zm36.889 0-0.35547 0.48242h1.4668v-0.48242h-1.1113zm-36.889 0.89453v0.48047h0.47852l0.35352-0.48047h-0.83203zm36.229 0-0.35156 0.48047h2.123v-0.48047h-1.7715z" fill="#fff"/>
</svg>
