<?xml version="1.0" encoding="UTF-8"?>
<svg version="1.1" viewBox="0 0 48 48" xmlns="http://www.w3.org/2000/svg">
    <path d="m8.4421 36.211-1.5332 2.084h8.3574c0.42249 0 0.41744 0.16168 0.21094 0.44141-0.20972 0.28396-0.56178 0.776-0.77539 1.0645-0.10837 0.14638-0.30378 0.41406 0.3457 0.41406h3.418s0.55003-0.75027 1.0117-1.377c0.62831-0.85248 0.05455-2.627-2.1914-2.627-2.0102-8.5e-5 -8.8437 0-8.8437 0zm14.406 0-2.9473 4.0039h10.777l2.9473-4.0039h-4.4043l-1.6914 2.2969h-1.9648l1.6875-2.2969h-4.4043zm12.211 0c-0.0014 0-2.9492 4.0039-2.9492 4.0039h4.668l2.9473-4.0039h-4.666zm-25.691 2.6035-3.0801 4.1855h7.5117c2.4805 0 3.8612-1.6881 4.2871-2.2715h-5.1211c-0.64939 0-0.45221-0.26573-0.34375-0.41211 0.21361-0.28845 0.56958-0.77854 0.7793-1.0625 0.2065-0.27973 0.21155-0.43945-0.21094-0.43945h-3.8223zm-4.3672 1.9141v0.48242h1.7949l0.35547-0.48242h-2.1504zm14.521 0c-0.0014 0-1.6699 2.2715-1.6699 2.2715h4.4062l1.6699-2.2715zm6.373 0c-0.0014 0-1.6699 2.2715-1.6699 2.2715h4.4043l1.6699-2.2715zm5.8379 0s-0.32214 0.44085-0.47852 0.65234c-0.5533 0.74775-0.06342 1.6191 1.7422 1.6191h7.0742l1.6699-2.2715h-10.008zm10.814 0-0.35352 0.48242h0.80664v-0.48242zm-37.547 0.89648v0.48242h1.1367l0.35547-0.48242h-1.4922zm36.889 0-0.35547 0.48242h1.4668v-0.48242h-1.1113zm-36.889 0.89453v0.48047h0.47852l0.35352-0.48047h-0.83203zm36.229 0-0.35156 0.48047h2.123v-0.48047h-1.7715z" fill="#fff"/>
    <path d="m22.205 5.5983-13.163 5.3514 19.146 2.0123 10.769-5.8981zm16.753 18.985-10.769 7.8188v-19.44l10.769-5.8981zm-29.915 4.7864v-18.42l19.146 2.0123v19.44z" fill="none" stroke="#fff" stroke-linejoin="round" stroke-width="1.1966px"/>
    <path d="m28.188 6.1211-12.422 5.5352 0.091797 2.4766 2.334 0.56836 2.3496-0.33008-0.06836-2.2578 11.424-5.668-3.709-0.32422zm-9.1973 21.568-2.5078 0.001953-0.019531 2.8535 4.6289 0.72852 0.017578-2.9238-2.1191-0.66016z" fill="#fff"/>
</svg>
