<?xml version="1.0" encoding="utf-8"?>
<!-- Generator: Adobe Illustrator 21.1.0, SVG Export Plug-In . SVG Version: 6.00 Build 0)  -->
<svg version="1.0" id="Layer_1" xmlns="http://www.w3.org/2000/svg" xmlns:xlink="http://www.w3.org/1999/xlink" x="0px" y="0px"
	 viewBox="0 0 48 48" style="enable-background:new 0 0 48 48;" xml:space="preserve">
<style type="text/css">
	.st0{fill:#FFFFFF;}
</style>
<g>
	<path class="st0" d="M32,17.1c-0.8,0.1-1.6,0.2-2.5,0.3c-0.5,0-0.6,0.3-0.7,0.7c-0.2,1.1-0.5,2.2-0.8,3.4c-0.1,0.3-0.2,0.4-0.5,0.3
		c-2-0.6-3.8,0-5.3,1.3c-2.3,1.9-3.3,4.4-3.1,7.3c0.1,1.2,0.5,2.3,1.8,2.7c1.1,0.4,2.2,0.1,3.2-0.3c0.6-0.3,1-0.7,1.6-1
		c0,0.1,0,0.2,0,0.3c0,0.3,0.1,0.4,0.3,0.3c1-0.2,2-0.3,2.9-0.5c0.1,0,0.3-0.2,0.4-0.4c0.5-2,1-4,1.4-6c0.6-2.6,1.2-5.2,1.8-7.7
		C32.6,17.1,32.5,17,32,17.1z M27.3,24.6c-0.3,1.4-0.6,2.8-0.9,4.2c-0.2,0.8-0.9,0.9-1.4,1.2c-0.1,0-0.2,0.1-0.3,0.1
		c-1.1,0.3-1.7-0.2-1.7-1.5c0.2-1.2,0.4-2.5,1.5-3.5c0.7-0.7,1.6-1,2.6-0.8C27.3,24.3,27.4,24.3,27.3,24.6z"/>
	<path class="st0" d="M41,5H7C5.9,5,5,5.9,5,7v34c0,1.1,0.9,2,2,2h34c1.1,0,2-0.9,2-2V7C43,5.9,42.1,5,41,5z M35.4,20.2
		c-0.1,1.9-0.2,3.8-0.3,5.8c-0.2,2.9-0.3,5.8-0.5,8.6c0,0.4-0.2,0.5-0.5,0.5c-5.5,0.7-10.9,1.4-16.4,2c-0.1,0-0.3,0-0.4,0
		c0,0,0,0.1,0,0.1c-0.6-0.2-1.3-0.3-1.8-0.6c-0.9-0.5-1.8-1-2.2-2c-0.1-0.3-0.1-0.6-0.1-0.9c0-1.9-0.1-3.8-0.1-5.6
		c-0.1-2.8-0.1-5.6-0.2-8.3c0-2-0.1-4.1-0.2-6.1c0,0,0-0.1,0-0.1c-0.2-1.1,0-1,1-1.1c2.3-0.2,4.6-0.4,6.9-0.6
		c2.2-0.2,4.5-0.4,6.7-0.6c1.5-0.1,3-0.3,4.6-0.4c0.5,0,0.6,0,0.6,0.6c0,0.3-0.1,0.5-0.1,0.8c-0.2-0.1-0.4-0.3-0.7-0.4
		c-0.2-0.1-0.4-0.2-0.6-0.2c-1.5,0.1-3,0.2-4.5,0.4c-1.7,0.1-3.3,0.3-5,0.4c-2.4,0.2-4.7,0.4-7.1,0.6c-0.3,0-0.5,0-0.8,0
		c-0.1,0-0.1,0-0.2,0.1c0,0.1,0,0.2,0.1,0.2c0.4,0.2,0.7,0.5,1.1,0.7c1.1,0.4,2.2,0.4,3.3,0.3c1.8-0.2,3.7-0.3,5.5-0.5
		c2.1-0.2,4.3-0.4,6.4-0.6c1.8-0.2,3.6-0.3,5.3-0.5c0.5,0,0.6,0.1,0.6,0.5C35.7,15.7,35.5,17.9,35.4,20.2z"/>
</g>
</svg>
