<?xml version="1.0" encoding="utf-8"?>
<!-- Generator: Adobe Illustrator 21.1.0, SVG Export Plug-In . SVG Version: 6.00 Build 0)  -->
<svg version="1.0" id="Layer_1" xmlns="http://www.w3.org/2000/svg" xmlns:xlink="http://www.w3.org/1999/xlink" x="0px" y="0px"
	 viewBox="0 0 48 48" style="enable-background:new 0 0 48 48;" xml:space="preserve">
<style type="text/css">
	.st0{fill:#FFFFFF;}
</style>
<path class="st0" d="M18.3,13.6c-0.1,0.2-0.2,0.5-0.4,1.1c-0.2,0.6-0.3,1-0.3,1.1c0,0.1,0.1,0.1,0.4,0.1c0.1,0,0.3,0,0.6,0
	c0.3,0,0.4,0,0.4-0.1c0,0,0,0,0-0.1c0-0.1-0.1-0.5-0.3-1.1C18.5,14.1,18.4,13.8,18.3,13.6z"/>
<path class="st0" d="M38,4H10C8.9,4,8,4.9,8,6v36c0,1.1,0.9,2,2,2h28c1.1,0,2-0.9,2-2V6C40,4.9,39.1,4,38,4z M22.3,19.1
	c-0.1,0-0.5,0-1.1,0c-0.6,0-0.9,0-1.1,0c-0.1,0-0.2-0.1-0.3-0.3c-0.1-0.6-0.2-0.9-0.3-0.9c-0.1,0-0.6,0-1.6,0c-0.7,0-1,0-1.1,0.1
	c-0.1,0.1-0.1,0.3-0.2,0.6c-0.1,0.3-0.2,0.5-0.3,0.5c-0.1,0-0.6,0-1.3,0c-0.6,0-0.9-0.1-0.9-0.2c0-0.1,0.4-1.3,1.3-3.7
	c1-2.6,1.5-4,1.6-4.3c0-0.1,0.1-0.2,0.2-0.2c0.1,0,0.3,0,0.5,0s0.4,0,0.5,0c0.1,0,0.3,0,0.5,0s0.4,0,0.5,0c0.1,0,0.1,0.1,0.2,0.2
	c0.2,0.4,0.8,1.8,1.7,4.2c0.9,2.4,1.4,3.7,1.4,3.8C22.5,19,22.4,19.1,22.3,19.1z M27.1,15.1c0,0.2-0.1,0.3-0.1,0.5
	c0,0.2-0.1,0.5-0.1,0.8c0,0.1-0.1,0.1-0.1,0.1c-0.1,0-0.4,0-0.7,0s-0.5,0-0.7,0c-0.4,0-1,0-1.7,0.1c0,0-0.1,0-0.3,0
	c-0.1,0-0.2,0-0.3,0c-0.1,0-0.2-0.1-0.2-0.3c0-0.1,0.1-0.4,0.2-0.8c0.1-0.4,0.2-0.7,0.3-0.9c0-0.1,0.1-0.1,0.2-0.1
	c0.2,0,0.4,0,0.7,0s0.5,0,0.7,0c0.3,0,0.8,0,1.6-0.1c0.4-0.1,0.6-0.1,0.5-0.1c0.1,0,0.1,0.1,0.1,0.2C27.2,14.7,27.2,14.9,27.1,15.1z
	 M33.6,19.1c0,0.1-0.1,0.1-0.1,0.1c-0.2,0-0.6,0-1,0s-0.8,0-1,0c-0.3,0-0.8,0-1.5,0s-1.1,0-1.5,0c-0.1,0-0.2,0-0.2-0.1
	c0-0.3,0-0.6-0.1-1.1c0-0.2-0.1-0.3-0.1-0.3c0,0,0.5-0.8,1.4-2.3s1.4-2.3,1.4-2.4c0-0.1-0.1-0.1-0.2-0.1c-0.3,0-0.7,0-1.2,0
	s-1,0-1.2,0c-0.1,0-0.1,0-0.1-0.1c0-0.1,0-0.4,0.1-0.8s0.1-0.7,0.1-0.9c0-0.1,0.1-0.1,0.2-0.1c0.5,0,1.3,0,2.4,0s1.9,0,2.4,0
	c0.1,0,0.1,0,0.2,0.1c0.1,0.3,0.1,0.8,0.1,1.3c0,0.1,0,0.2-0.1,0.3C33.3,13,32.8,13.8,32,15c-0.9,1.4-1.3,2.1-1.3,2.2c0,0,0,0,0.1,0
	c0.8,0,1.4,0,1.8,0c0.1,0,0.3,0,0.6-0.1c0.2,0,0.4-0.1,0.5-0.1c0.1,0,0.1,0,0.1,0.1C33.8,17.8,33.7,18.4,33.6,19.1z"/>
</svg>
