<?xml version="1.0" encoding="UTF-8" standalone="no"?>
<svg
   xmlns:dc="http://purl.org/dc/elements/1.1/"
   xmlns:cc="http://creativecommons.org/ns#"
   xmlns:rdf="http://www.w3.org/1999/02/22-rdf-syntax-ns#"
   xmlns:svg="http://www.w3.org/2000/svg"
   xmlns="http://www.w3.org/2000/svg"
   xmlns:sodipodi="http://sodipodi.sourceforge.net/DTD/sodipodi-0.dtd"
   xmlns:inkscape="http://www.inkscape.org/namespaces/inkscape"
   width="48"
   height="48"
   viewBox="0 0 48 48"
   version="1.1"
   id="svg4"
   sodipodi:docname="discord.svg"
   inkscape:version="0.92.3 (2405546, 2018-03-11)">
  <metadata
     id="metadata10">
    <rdf:RDF>
      <cc:Work
         rdf:about="">
        <dc:format>image/svg+xml</dc:format>
        <dc:type
           rdf:resource="http://purl.org/dc/dcmitype/StillImage" />
        <dc:title></dc:title>
      </cc:Work>
    </rdf:RDF>
  </metadata>
  <defs
     id="defs8" />
  <sodipodi:namedview
     pagecolor="#ffffff"
     bordercolor="#666666"
     borderopacity="1"
     objecttolerance="10"
     gridtolerance="10"
     guidetolerance="10"
     inkscape:pageopacity="0"
     inkscape:pageshadow="2"
     inkscape:window-width="1920"
     inkscape:window-height="1037"
     id="namedview6"
     showgrid="true"
     inkscape:pagecheckerboard="true"
     inkscape:snap-bbox="true"
     inkscape:bbox-nodes="true"
     inkscape:zoom="9.8333333"
     inkscape:cx="30.77508"
     inkscape:cy="26.828195"
     inkscape:window-x="1920"
     inkscape:window-y="43"
     inkscape:window-maximized="1"
     inkscape:current-layer="svg4" />
  <path
     d="M 24 2 A 22 22 0 0 0 2 24 A 22 22 0 0 0 24 46 A 22 22 0 0 0 46 24 A 22 22 0 0 0 24 2 z M 19.916016 13.212891 L 20.173828 13.519531 C 15.550493 14.85516 13.417969 16.884766 13.417969 16.884766 C 13.417969 16.884766 13.983242 16.577273 14.933594 16.140625 C 17.681909 14.933421 19.864689 14.598544 20.763672 14.521484 C 20.917783 14.495794 21.047061 14.470703 21.201172 14.470703 C 22.767969 14.265222 24.539338 14.21444 26.388672 14.419922 C 28.828764 14.702458 31.447882 15.420711 34.119141 16.884766 C 34.119141 16.884766 32.091091 14.958677 27.724609 13.623047 L 28.083984 13.212891 C 28.083984 13.212891 31.602113 13.136158 35.300781 15.910156 C 35.300781 15.910156 39 22.612182 39 30.882812 C 39 30.882813 36.817051 34.607313 31.140625 34.787109 C 31.140625 34.787109 30.215868 33.683068 29.445312 32.707031 C 32.810071 31.756678 34.09375 29.650391 34.09375 29.650391 C 33.040657 30.343892 32.039606 30.832108 31.140625 31.166016 C 29.856366 31.705403 28.623219 32.066003 27.416016 32.271484 C 24.950236 32.733812 22.69006 32.603733 20.763672 32.244141 C 19.299614 31.961602 18.041374 31.551589 16.988281 31.140625 C 16.397521 30.909458 15.755411 30.62717 15.113281 30.267578 C 15.036226 30.216212 14.957919 30.190042 14.880859 30.138672 C 14.82949 30.112992 14.804987 30.08819 14.779297 30.0625 C 14.316963 29.805649 14.060547 29.625 14.060547 29.625 C 14.060547 29.625 15.292668 31.680213 18.554688 32.65625 C 17.784131 33.632287 16.833984 34.787109 16.833984 34.787109 C 11.157558 34.607313 9 30.882812 9 30.882812 C 9 22.612182 12.699219 15.910156 12.699219 15.910156 C 16.397886 13.136152 19.916016 13.212891 19.916016 13.212891 z M 19.197266 22.792969 C 17.73321 22.792969 16.576172 24.077735 16.576172 25.644531 C 16.576172 27.211328 17.758895 28.494141 19.197266 28.494141 C 20.661322 28.494141 21.816406 27.211328 21.816406 25.644531 C 21.842091 24.077735 20.661322 22.792969 19.197266 22.792969 z M 28.572266 22.792969 C 27.108209 22.792969 25.953125 24.077735 25.953125 25.644531 C 25.953125 27.211328 27.133895 28.494141 28.572266 28.494141 C 30.036322 28.494141 31.191406 27.211328 31.191406 25.644531 C 31.191406 24.077735 30.036322 22.792969 28.572266 22.792969 z "
     id="circle2"
     style="fill:#ffffff;fill-opacity:1" />
</svg>
