<?xml version="1.0" encoding="UTF-8"?>
<svg version="1.1" viewBox="0 0 48 48" xmlns="http://www.w3.org/2000/svg">
    <path d="m24 5c-10.493 4e-7 -19 8.5066-19 19v19h19c10.493-1e-6 19-8.5066 19-19 0-10.493-8.5066-19-19-19zm-0.95 5.9523c3.8239 0.0062 7.3714 1.2208 9.9933 4.0043 2.477 2.6296 4.1242 6.6332 4.1305 10.246 0 6.4709-5.2457 11.717-11.717 11.717-2.058-0.0076-4.0777-0.55708-5.8559-1.5932l-7.5678 0.64076 0.66302-7.8449c-0.89004-1.68-1.3579-3.5514-1.3632-5.4526 1e-6 -6.4709 5.2457-11.717 11.717-11.717zm-11.017 25.014 2.328-7.0483c-0.40607-1.197-0.61577-2.4519-0.62096-3.7159 0-6.4709 5.2457-11.717 11.717-11.717 1.7701 0.0093 3.515 0.41952 5.1038 1.1999-1.9198-1.3547-4.2113-2.0831-6.5609-2.0855-6.296-1e-6 -11.4 5.104-11.4 11.4 0.0048 1.5666 0.33239 3.1153 0.96237 4.5496zm0 0 7.4046-1.5264c1.4383 0.6308 2.9914 0.95759 4.562 0.9599 6.296 0 11.4-5.104 11.4-11.4-0.0047-1.9178-0.4931-3.8034-1.4201-5.4823 0.51164 1.3247 0.77821 2.7313 0.78672 4.1513 0 6.4709-5.2457 11.717-11.717 11.717-1.3756-4e-3 -2.7398-0.25019-4.0301-0.72734z" fill="#fff"/>
</svg>
