<?xml version="1.0" encoding="utf-8"?>
<!-- Generator: Adobe Illustrator 21.1.0, SVG Export Plug-In . SVG Version: 6.00 Build 0)  -->
<svg version="1.0" id="Layer_1" xmlns="http://www.w3.org/2000/svg" xmlns:xlink="http://www.w3.org/1999/xlink" x="0px" y="0px"
	 viewBox="0 0 48 48" style="enable-background:new 0 0 48 48;" xml:space="preserve">
<style type="text/css">
	.st0{fill:#FFFFFF;}
</style>
<path class="st0" d="M19.9,12.9l-0.2,20.5c0.4,0,0.8,0,1.2,0c0,0.6,0,1.1,0,1.7c1,0,2,0,3.1,0c0.2-0.2,0.4-0.3,0.6-0.5
	c0-7.5,0-14.2,0-21.6C23,12.9,21.4,12.9,19.9,12.9z"/>
<path class="st0" d="M25.5,12.9c0,7.5,0,14.2,0,21.6c0.5-0.4,0.9-0.8,1.4-1.2c0.3-0.3,0.6-0.5,0.9-0.8c0.1-0.1,0.3-0.2,0.4-0.2
	c0.8,0,1.6,0,2.4,0c0-6.8,0-12.7,0-19.4C28.9,12.9,27.2,12.9,25.5,12.9z"/>
<path class="st0" d="M31.6,12.9c0,6.8,0,12.7,0,19.4c1.3,0,2.5,0,3.8,0l-0.1-19.4C34.1,12.9,32.8,12.9,31.6,12.9z"/>
<path class="st0" d="M36.3,12.9l0.1,19.4c0.4,0,0.9,0,1.3,0c0-6.8,0-12.7,0-19.4C37.3,12.9,36.8,12.9,36.3,12.9z"/>
<path class="st0" d="M38.7,12.9c0,6.8,0,12.7,0,19.4c0.6,0,1.1,0,1.7,0c0-6.8,0-12.7,0-19.4C39.9,12.9,39.3,12.9,38.7,12.9z"/>
<path class="st0" d="M42.7,13.1c-0.3-0.1-0.5-0.1-0.8-0.2c-0.2,0-0.3,0-0.5,0c0,6.8,0,12.7,0,19.4c0.1,0,0.2,0,0.2,0
	c0.7,0,1.4-0.2,1.9-0.8c0.2-0.3,0.3-0.6,0.5-1c0-5.3,0-10.6,0-15.9C43.9,14,43.4,13.4,42.7,13.1z"/>
<path class="st0" d="M18.7,33.4c-0.3,0-0.6,0-1,0c-0.3,0-0.6,0.1-0.8,0.3c-0.5,0.5-1,0.9-1.5,1.4c-3.2,0-6.3,0-9.5,0
	c-0.3-0.1-0.7-0.2-1-0.4c-0.5-0.3-0.8-0.8-0.9-1.3c0-6.2,0-12.4,0-18.6c0,0,0-0.1,0-0.1c0.2-0.8,0.7-1.3,1.5-1.6
	C5.7,13,5.9,13,6.1,12.9c4.3,0,8.5,0,12.8,0"/>
</svg>
