<?xml version="1.0" encoding="UTF-8" standalone="no"?>
<!-- Created with Inkscape (http://www.inkscape.org/) -->

<svg
   xmlns:dc="http://purl.org/dc/elements/1.1/"
   xmlns:cc="http://creativecommons.org/ns#"
   xmlns:rdf="http://www.w3.org/1999/02/22-rdf-syntax-ns#"
   xmlns:svg="http://www.w3.org/2000/svg"
   xmlns="http://www.w3.org/2000/svg"
   xmlns:sodipodi="http://sodipodi.sourceforge.net/DTD/sodipodi-0.dtd"
   xmlns:inkscape="http://www.inkscape.org/namespaces/inkscape"
   id="SVGRoot"
   version="1.1"
   viewBox="0 0 48 48"
   height="48px"
   width="48px"
   sodipodi:docname="disney.svg"
   inkscape:version="0.92.5 (2060ec1f9f, 2020-04-08)">
  <defs
     id="defs3732" />
  <sodipodi:namedview
     id="base"
     pagecolor="#000000"
     bordercolor="#666666"
     borderopacity="1.0"
     inkscape:pageopacity="0"
     inkscape:pageshadow="2"
     inkscape:zoom="21.333334"
     inkscape:cx="26.446778"
     inkscape:cy="18.009002"
     inkscape:document-units="px"
     inkscape:current-layer="layer1"
     showgrid="false"
     inkscape:window-width="3200"
     inkscape:window-height="1672"
     inkscape:window-x="0"
     inkscape:window-y="54"
     inkscape:window-maximized="0"
     inkscape:grid-bbox="true" />
  <metadata
     id="metadata3735">
    <rdf:RDF>
      <cc:Work
         rdf:about="">
        <dc:format>image/svg+xml</dc:format>
        <dc:type
           rdf:resource="http://purl.org/dc/dcmitype/StillImage" />
        <dc:title />
      </cc:Work>
    </rdf:RDF>
  </metadata>
  <g
     inkscape:label="Layer 1"
     inkscape:groupmode="layer"
     id="layer1"
     style="display:inline">
    <path
       id="path3714"
       d="m 35.572338,37.874229 c -5.114421,1.560332 -9.939889,0.837956 -12.569338,0.144476 -0.07224,1.069115 -0.187818,1.516987 -0.361189,1.690358 -0.202264,0.23116 -1.878176,1.184696 -2.802818,-0.173371 -0.404529,-0.650137 -0.606796,-1.820385 -0.722375,-2.889501 -5.923483,-2.687239 -8.668511,-6.645858 -8.755196,-6.790334 -0.144474,-0.144475 -1.4880935,-1.545884 -0.144474,-3.279587 1.256933,-1.560332 5.417818,-3.135111 9.145277,-3.756354 0.144476,-3.178453 0.491216,-5.634532 0.93909,-6.718095 0.534557,-1.300276 1.21359,-0.144474 1.820386,0.722377 0.491216,0.650137 0.794614,3.438508 0.823508,5.663424 2.427183,-0.115578 3.90083,0.05779 6.602515,0.577902 3.554089,0.606796 5.923481,2.427183 5.735664,4.478731 -0.173371,2.022653 -2.022653,2.860608 -2.745028,2.918398 -0.722377,0.05779 -1.878177,-0.476768 -1.878177,-0.476768 -0.809061,-0.375636 -0.07224,-0.722375 0.866851,-1.126907 1.04022,-0.505662 0.809061,-1.011325 0.809061,-1.011325 -0.375635,-1.155803 -4.984393,-1.921521 -9.564256,-1.921521 0,2.528317 0.101133,6.718096 0.17337,9.159727 3.20735,0.606795 5.605636,0.476767 5.605636,0.476767 0,0 11.702488,-0.332292 12.034782,-7.801659 C 40.946814,20.277153 28.883138,13.111186 19.997917,10.857372 11.12714,8.5313216 6.0994055,10.178339 5.6659795,10.395052 c -0.4767684,0.231161 -0.04334,0.317845 -0.04334,0.317845 0,0 0.476769,0.07224 1.343619,0.361188 0.866852,0.288951 0.173371,0.722377 0.173371,0.722377 -1.51699,0.52011 -3.2073489,0.216712 -3.5396413,-0.476769 C 3.2676914,10.64066 3.8166972,10.019417 4.4668363,9.1092226 5.0736322,8.1701336 5.7671125,8.1990286 5.7671125,8.1990286 16.747225,4.3704366 30.154519,11.233007 30.154519,11.233007 c 12.540446,6.328013 14.678677,13.768484 14.447517,16.657989 -0.202265,2.846159 -1.300277,7.657183 -9.029698,9.997681 M 11.444986,27.544255 c -1.242487,0.5779 -0.375636,1.502541 -0.375636,1.502541 2.340498,2.49942 5.201107,4.0742 7.946135,5.056632 0.317845,-4.334256 0.288951,-5.88014 0.288951,-8.061715 -4.24757,0.288949 -6.703649,0.982431 -7.85945,1.502542"
       inkscape:connector-curvature="0"
       style="fill:#ffffff;stroke-width:0.14447518"
       sodipodi:nodetypes="cccccccccccccsccccccccccccccccccccccc" />
  </g>
</svg>
