<?xml version="1.0" encoding="UTF-8"?>
<svg version="1.1" viewBox="0 0 48 48" xmlns="http://www.w3.org/2000/svg">
    <path d="m24 2a22 22 0 0 0-22 22 22 22 0 0 0 22 22 22 22 0 0 0 22-22 22 22 0 0 0-22-22zm-4.7715 9.1934c10.275 0.11855 17.357 2.7362 21.635 6.7988 2.8521 2.7084 4.3868 6.2874 3.9395 9.7852-0.44734 3.4977-2.874 6.5203-6.2266 8.1719-5.4581 2.6888-13.065 5.3843-23.48 2.4922a3.7504 3.7504 0 1 1 2.0059-7.2266c1.9448 0.54002 3.6816 0.84794 5.2754 0.98633-2.7134-4.1208-5.6305-8.5031-8.8633-13.291-1.4778 0.10553-3.0158 0.2526-4.6465 0.4707a3.7504 3.7504 0 1 1-0.99414-7.4336c4.1492-0.55493 7.9304-0.79343 11.355-0.75391zm4.6289 7.8828c2.7481 4.1143 5.3656 8.0596 7.7988 11.768 1.2236-0.47578 2.4075-1.0329 3.6055-1.623 1.5565-0.76675 1.9999-1.6019 2.1016-2.3965s-0.13698-1.9424-1.6641-3.3926c-1.8487-1.7556-5.7071-3.6114-11.842-4.3555z" fill="#fff"/>
</svg>
