<?xml version="1.0" encoding="UTF-8"?>
<svg version="1.1" viewBox="0 0 48 48" xmlns="http://www.w3.org/2000/svg">
    <path d="m8.3217 26.422 2.2615 7.3969c0.03548 0.11606 0.09056 0.21842 0.15349 0.31277a5.4888 5.8332 0 0 0 0.18574 0.79677 5.4888 5.8332 0 0 0 6.9163 3.7451 5.4888 5.8332 0 0 0 3.524-7.3502 5.4888 5.8332 0 0 0-0.28973-0.76086c-0.0013-0.1156-0.01403-0.23266-0.0495-0.34868l-2.2615-7.3969z" fill="#fff" stroke-dashoffset="5.18" stroke-linecap="round" stroke-linejoin="round" stroke-width="1.7008" style="paint-order:stroke markers fill"/>
    <path d="m8.7927 9.0857a5.4888 5.8332 0 0 0-3.524 7.3502 5.4888 5.8332 0 0 0 0.29064 0.76135c0.0014 0.11552 0.01314 0.23225 0.04859 0.34819l2.2615 7.3969 10.44-3.6051-2.2615-7.3969c-0.03544-0.1159-0.08978-0.21803-0.15259-0.31228a5.4888 5.8332 0 0 0-0.18664-0.79726 5.4888 5.8332 0 0 0-6.9163-3.7451z" fill="#fff" stroke-dashoffset="5.18" stroke-linecap="round" stroke-linejoin="round" stroke-width="1.7008" style="paint-order:stroke markers fill"/>
    <path d="m33.643 7.7192c-2.368-0.01542-4.8712 0.94727-6.6564 2.9618-1.7852 2.0146-2.7808 4.9254-2.8082 8.5152l5.6479 0.04334c0.01976-2.5929 0.69396-4.03 1.3875-4.8127s1.4786-1.0657 2.3922-1.0598c1.827 0.0119 3.7458 1.3087 3.7458 3.7119 0 1.4135-0.32761 2.0996-0.89115 2.8232-0.56354 0.72358-1.4894 1.4357-2.6498 2.2393-1.1604 0.80359-2.5496 1.6825-3.7829 3.0847-1.2332 1.4022-2.1904 3.4649-2.1904 5.8338v2.5411h5.6479v-2.5411c0-1.065 0.23259-1.4777 0.7832-2.1038s1.5397-1.328 2.7578-2.1715 2.6705-1.8448 3.8908-3.4117c1.2203-1.5669 2.0825-3.7492 2.0825-6.294 0-5.5134-4.6207-9.329-9.3567-9.3598z" color="#000000" color-rendering="auto" dominant-baseline="auto" fill="#fff" image-rendering="auto" shape-rendering="auto" solid-color="#000000" stop-color="#000000" style="font-feature-settings:normal;font-variant-alternates:normal;font-variant-caps:normal;font-variant-east-asian:normal;font-variant-ligatures:normal;font-variant-numeric:normal;font-variant-position:normal;font-variation-settings:normal;inline-size:0;isolation:auto;mix-blend-mode:normal;shape-margin:0;shape-padding:0;text-decoration-color:#000000;text-decoration-line:none;text-decoration-style:solid;text-indent:0;text-orientation:mixed;text-transform:none;white-space:normal"/>
    <ellipse cx="30.662" cy="37.559" rx="2.5614" ry="2.7222" fill="#fff" stroke-dashoffset="5.18" stroke-linecap="round" stroke-linejoin="round" stroke-width="10" style="paint-order:stroke markers fill"/>
</svg>
