<?xml version="1.0" encoding="UTF-8"?>
<svg version="1.1" viewBox="0 0 48 48" xmlns="http://www.w3.org/2000/svg">
    <path d="m19.362 8.2415c-4.3368 0-7.8313 3.4696-7.8764 7.7953-1.4318-1.2954-2.9157-2.486-4.5048-3.4668l-1.981 4.4768c1.7336 0.27974 3.1762 0.19577 5.7695 1.5501-1.6124 0.68644-3.6171 1.1771-5.6828 1.6368l1.7236 4.0487c2.2647-1.1978 3.4709-2.2195 4.6727-3.2401v10.837c0 4.3651 3.5141 7.8792 7.8792 7.8792h15.758c4.3651 0 7.8792-3.5141 7.8792-7.8792v-15.758c0-4.3651-3.5141-7.8792-7.8792-7.8792zm-0.7163 6.0158h17.191c2.7778 0 5.0141 2.6672 5.0141 5.445v5.7304c0 4.2978-7.0935 5.0128-9.8854 2.8652-3.7247-2.8652-3.7236-2.8652-7.4483 0-2.7192 2.0917-9.8854 1.4326-9.8854-2.8652v-5.7304c0-2.7778 2.2363-5.445 5.0141-5.445z" fill="#fff" style="paint-order:stroke markers fill"/>
    <path d="m19.18 16.753c-0.63251-0.05533-1.1861 0.37761-1.238 0.97059-0.05188 0.59298 0.41658 1.1168 1.0491 1.1721l4.854 0.42355c0.63251 0.05533 1.1833-0.37737 1.2352-0.97035 0.05188-0.59298-0.41634-1.114-1.0488-1.1693z" fill="#fff" style="paint-order:stroke markers fill"/>
    <path d="m35.306 16.753-4.8542 0.42634c-0.63251 0.05534-1.1007 0.57637-1.0488 1.1693 0.05188 0.59298 0.60548 1.0259 1.238 0.97059l4.8512-0.4238c0.63251-0.05534 1.101-0.57916 1.0491-1.1721-0.05188-0.59298-0.60269-1.0257-1.2352-0.97034z" fill="#fff" style="paint-order:stroke markers fill"/>
    <path d="m21.511 19.892a2.1489 2.1489 0 0 0-2.1489 2.1489 2.1489 2.1489 0 0 0 2.1489 2.1489 2.1489 2.1489 0 0 0 2.1489-2.1489 2.1489 2.1489 0 0 0-2.1489-2.1489z" fill="#fff" style="paint-order:stroke markers fill"/>
    <path d="m32.972 19.892a2.1489 2.1489 0 0 0-2.1489 2.1489 2.1489 2.1489 0 0 0 2.1489 2.1489 2.1489 2.1489 0 0 0 2.1489-2.1489 2.1489 2.1489 0 0 0-2.1489-2.1489z" fill="#fff" style="paint-order:stroke markers fill"/>
</svg>
