<?xml version="1.0" encoding="utf-8"?>
<!-- Generator: Adobe Illustrator 21.1.0, SVG Export Plug-In . SVG Version: 6.00 Build 0)  -->
<svg version="1.0" id="Layer_1" xmlns="http://www.w3.org/2000/svg" xmlns:xlink="http://www.w3.org/1999/xlink" x="0px" y="0px"
	 viewBox="0 0 48 48" style="enable-background:new 0 0 48 48;" xml:space="preserve">
<style type="text/css">
	.st0{fill:#FFFFFF;}
</style>
<path class="st0" d="M24.1,5c5.7,0,11.4,0,17.1,0C42.5,5,43,5.3,43,6.7c0,11.6,0,23.1,0,34.7c0,1.2-0.3,1.7-1.6,1.7
	c-11.6,0-23.2,0-34.8,0C5.4,43,5,42.7,5,41.5c0-11.7,0-23.3,0-35C5,5.3,5.5,5,6.6,5C12.4,5,18.3,5,24.1,5z M17.2,15.1
	c0-0.1,0-0.5-0.2-0.9c-1-2-2-4.1-3.1-6.1c-0.4-0.8-1-0.7-1.6-0.1C11,9.4,9.7,10.7,8.4,12c-0.5,0.5-0.9,1.1-0.9,1.8
	c-0.2,2.8,0.6,5.4,1.8,7.8c2.3,4.4,5.4,8.1,9.1,11.4c4.2,3.7,8.6,7.1,14.5,7.6c1.3,0.1,2.4-0.1,3.3-1c1.1-1.2,2.3-2.3,3.5-3.5
	c1.2-1.2,1.1-1.4-0.3-2.3c-1.5-0.9-3-1.8-4.6-2.7c-2.2-1.3-2.2-1.3-4.1,0.6c-1.7,1.7-2.7,1.9-4.7,0.7c-4.3-2.5-7.7-6-10.2-10.2
	c-1.2-2-1.1-2.9,0.6-4.6C16.8,16.9,17.3,16.3,17.2,15.1z"/>
</svg>
