<?xml version="1.0" encoding="utf-8"?>
<!-- Generator: Adobe Illustrator 21.1.0, SVG Export Plug-In . SVG Version: 6.00 Build 0)  -->
<svg version="1.0" id="Layer_1" xmlns="http://www.w3.org/2000/svg" xmlns:xlink="http://www.w3.org/1999/xlink" x="0px" y="0px"
	 viewBox="0 0 48 48" style="enable-background:new 0 0 48 48;" xml:space="preserve">
<style type="text/css">
	.st0{fill:#FFFFFF;}
</style>
<g>
	<path class="st0" d="M9.7,21.7c-0.6,0-0.9,0.1-0.9,0.2c0,0.2,0,0.6,0,1s0,0.8,0,1c0,0.2,0,0.6,0,1s0,0.8,0,1c0,0.2,0.3,0.3,0.9,0.3
		c0.7,0,1.2-0.2,1.6-0.7c0.4-0.4,0.5-1,0.5-1.7c0-0.7-0.2-1.2-0.6-1.6C10.9,21.9,10.4,21.7,9.7,21.7z"/>
	<path class="st0" d="M38.5,24.5c-0.3,0-0.5,0.1-0.7,0.3s-0.3,0.4-0.3,0.7c0,0.3,0.1,0.6,0.2,0.8c0.2,0.2,0.4,0.3,0.7,0.3
		s0.6-0.1,0.7-0.3c0.2-0.2,0.3-0.5,0.3-0.8c0-0.3-0.1-0.5-0.3-0.7S38.8,24.5,38.5,24.5z"/>
	<path class="st0" d="M31.9,24.5c-0.3,0-0.5,0.1-0.7,0.3s-0.3,0.4-0.3,0.7c0,0.3,0.1,0.6,0.2,0.8c0.2,0.2,0.4,0.3,0.7,0.3
		s0.6-0.1,0.7-0.3c0.2-0.2,0.3-0.5,0.3-0.8c0-0.3-0.1-0.5-0.3-0.7S32.1,24.5,31.9,24.5z"/>
	<path class="st0" d="M24,2C11.8,2,2,11.8,2,24s9.8,22,22,22s22-9.8,22-22S36.2,2,24,2z M13,26.9c-0.7,0.8-1.6,1.2-2.7,1.2
		c-0.2,0-0.8,0-1.9,0c-0.2,0-0.5,0-0.9,0s-0.7,0-0.9,0c-0.1,0-0.2,0-0.2-0.1c0-0.4,0-1.1,0-1.9s0-1.5,0-1.9c0-0.4,0-1.1,0-2
		s0-1.6,0-2c0-0.1,0.1-0.1,0.2-0.1c0.3,0,0.7,0,1.4,0c1.2,0,2,0,2.3,0.1c0.9,0.1,1.7,0.3,2.2,0.7c0.5,0.4,0.9,0.8,1.2,1.5
		c0.3,0.6,0.4,1.2,0.4,1.8C14.1,25.1,13.8,26.1,13,26.9z M22.8,22c0,0.9-0.1,1.6-0.1,2v3.9c0,0.1-0.1,0.2-0.2,0.2
		c-0.1,0-0.2,0-0.4,0s-0.3,0-0.4,0c-0.1,0-0.3,0-0.5,0s-0.4,0-0.5,0c-0.1,0-0.2-0.1-0.3-0.2c-0.3-0.4-0.9-1.2-1.9-2.5
		c-0.3-0.4-0.7-0.9-1.2-1.6c0,0,0,0-0.1-0.1c0,0,0,0.1,0,0.1c0,0.5,0,1.1,0,2s0,1.6,0,2c0,0.1-0.1,0.2-0.2,0.2h-2
		c-0.1,0-0.2-0.1-0.2-0.2c0-0.4,0-1.1,0.1-1.9s0.1-1.5,0.1-1.9c0-0.4,0-1.1-0.1-2S15,20.5,15,20c0-0.1,0.1-0.1,0.2-0.1
		c0.2,0,0.5,0,0.8,0c0.1,0,0.2,0,0.5-0.1c0.2,0,0.3-0.1,0.5-0.1c0,0,0.1,0.1,0.2,0.2l2.2,3c0.2,0.3,0.5,0.7,0.9,1.2
		c0.1,0.1,0.2,0.2,0.3,0.2c0.1,0,0.1-0.2,0.1-0.5c0-0.4,0-1-0.1-1.9s-0.1-1.4-0.1-1.9c0-0.1,0-0.2,0.1-0.2c0.2,0,0.6,0,1.1,0
		s0.8,0,1.1,0c0.1,0,0.1,0.1,0.1,0.2C22.9,20.5,22.9,21.2,22.8,22z M27,27.4c-0.6,0.5-1.3,0.8-2.1,1c0,0-0.1,0-0.1,0
		c-0.1,0-0.3-0.3-0.6-0.8s-0.5-0.9-0.5-1c0,0,0-0.1,0.1-0.1c0.6-0.1,0.9-0.2,1.1-0.3c0.4-0.2,0.6-0.5,0.6-0.9c0-0.3-0.1-0.5-0.4-0.8
		c-0.5-0.5-0.7-0.8-0.8-0.9c-0.3-0.4-0.4-0.9-0.4-1.3c0-0.7,0.3-1.3,1-1.8c0.5-0.4,1.2-0.6,2-0.8c0,0,0.1,0,0.1,0
		c0.1,0,0.1,0,0.1,0.1c0.1,0.3,0.3,0.8,0.7,1.5c0,0,0,0,0,0.1c0,0.1,0,0.1-0.1,0.1c0,0-0.1,0-0.2,0s-0.1,0-0.2,0
		c-0.3,0-0.5,0.1-0.7,0.2c-0.3,0.1-0.4,0.4-0.4,0.6c0,0.2,0.1,0.5,0.4,0.9c0.5,0.6,0.8,1,0.8,1c0.3,0.4,0.4,0.9,0.4,1.3
		C28,26.2,27.6,26.9,27,27.4z M34,27.5c-0.5,0.5-1.3,0.7-2.2,0.7c-1,0-1.7-0.3-2.3-0.9c-0.6-0.6-0.8-1.4-0.8-2.4
		c0-1.2,0.5-2.2,1.4-3c0.9-0.8,2-1.1,3.2-1.1c0.1,0,0.1,0,0.2,0.1c0.3,0.8,0.5,1.2,0.5,1.3c0,0.2-0.1,0.3-0.3,0.3
		c-0.5,0-0.9,0.1-1.3,0.2c-0.5,0.1-0.9,0.4-1,0.7c0,0.1-0.1,0.1-0.1,0.2c0,0,0,0,0,0c0,0,0,0,0.1,0c0.3-0.2,0.7-0.2,1.1-0.2
		c0.7,0,1.2,0.2,1.7,0.6c0.4,0.4,0.7,1,0.7,1.6C34.8,26.4,34.5,27,34,27.5z M38.5,28.2c-1,0-1.7-0.3-2.3-0.9
		c-0.6-0.6-0.8-1.4-0.8-2.4c0-1.2,0.5-2.2,1.4-3c0.9-0.8,2-1.1,3.2-1.1c0.1,0,0.1,0,0.2,0.1c0.3,0.8,0.5,1.2,0.5,1.3
		c0,0.2-0.1,0.3-0.3,0.3c-0.5,0-0.9,0.1-1.3,0.2c-0.5,0.1-0.9,0.4-1,0.7c0,0.1-0.1,0.1-0.1,0.2c0,0,0,0,0,0c0,0,0,0,0.1,0
		c0.3-0.2,0.7-0.2,1.1-0.2c0.7,0,1.2,0.2,1.7,0.6c0.4,0.4,0.7,1,0.7,1.6c0,0.9-0.3,1.6-0.9,2C40.1,28,39.4,28.2,38.5,28.2z"/>
</g>
</svg>
