<?xml version="1.0" encoding="UTF-8"?>
<svg version="1.1" viewBox="0 0 48 48" xmlns="http://www.w3.org/2000/svg">
    <path d="m25.971 6.4871 16.002 7.6699c1.2289 0.58905 1.1322 1.7194 0 2.2748l-16.002 7.849c-1.1322 0.55535-2.8113 0.55537-3.9435 0l-16.001-7.849c-1.1322-0.55537-1.2289-1.6857 0-2.2748l16.001-7.6699c1.2289-0.58908 2.7146-0.58905 3.9435 0z" fill="#fff"/>
    <path d="m37.702 20.459-11.73 5.7538c-1.1322 0.55535-2.8118 0.55537-3.944 0l-11.59-5.685-4.2704 2.0475c-1.2289 0.58908-1.1322 1.7186 0 2.274l16 7.8502c1.1322 0.55537 2.8118 0.55535 3.944 0l16.002-7.8502c1.1322-0.55535 1.2289-1.6849 0-2.274z" fill="#fff"/>
    <path d="m10.805 29.056-4.9188 2.3584c-1.2289 0.58908-1.1322 1.7186 0 2.274l16.002 7.8502c1.1322 0.55537 2.8118 0.55535 3.944 0l16-7.8502c1.1322-0.55535 1.2289-1.6849 0-2.274l-4.6324-2.2207-11.088 5.4385c-1.1322 0.55535-2.8118 0.55537-3.944 0z" fill="#fff"/>
</svg>
