<?xml version="1.0" encoding="utf-8"?>
<svg version="1.0" id="Layer_1" xmlns="http://www.w3.org/2000/svg" xmlns:xlink="http://www.w3.org/1999/xlink" x="0px" y="0px"
	 viewBox="0 0 48 48" style="enable-background:new 0 0 48 48;" xml:space="preserve">
<style type="text/css">
	.st0{fill:#FFFFFF;}
</style>
<path class="st0" d="M41,5H7C5.9,5,5,5.9,5,7v34c0,1.1,0.9,2,2,2h34c1.1,0,2-0.9,2-2V7C43,5.9,42.1,5,41,5z M21.6,27.9
	c-1.7,2.9-4.5,3-7.5,2.7c0-4.4,0-8.8,0-13.2c2.8-0.2,5.5-0.3,7.3,2.4C23.1,22.4,23.1,25.2,21.6,27.9z M33.9,30.6
	c-2.9,0.3-5.6,0.3-7.3-2.5c-1.6-2.6-1.7-5.4-0.1-8.1c1.7-2.9,4.5-3,7.5-2.7C33.9,21.8,33.9,26.2,33.9,30.6z"/>
</svg>
