<?xml version="1.0" encoding="UTF-8"?>
<svg xmlns="http://www.w3.org/2000/svg" viewBox="0 0 48 48">
  <path
     d="M 24 2 A 22 22 0 0 0 2 24 A 22 22 0 0 0 24 46 A 22 22 0 0 0 46 24 A 22 22 0 0 0 24 2 z M 13.951172 13.251953 L 34.253906 13.251953 C 34.568337 13.251953 34.820312 13.503929 34.820312 13.818359 L 34.820312 14.933594 C 34.820312 15.248024 34.568337 15.501953 34.253906 15.501953 L 13.951172 15.501953 C 13.636741 15.501953 13.384765 15.248024 13.384766 14.933594 L 13.384766 13.818359 C 13.384764 13.503929 13.636741 13.251953 13.951172 13.251953 z M 15.652344 17.714844 L 32.460938 17.714844 C 32.726088 17.714844 32.939453 17.930163 32.939453 18.195312 L 32.939453 27.050781 C 32.939453 27.315932 32.726089 27.529297 32.460938 27.529297 L 30.892578 27.529297 C 30.816883 27.584534 30.723962 27.668533 30.669922 27.822266 C 30.583162 28.069104 29.343509 32.349231 29.318359 32.425781 C 29.303349 32.471445 29.308782 32.532606 29.326172 32.597656 L 34.335938 32.597656 C 34.569158 32.597656 34.755859 32.78631 34.755859 33.019531 L 34.755859 34.328125 C 34.755859 34.561345 34.569158 34.748047 34.335938 34.748047 L 13.599609 34.748047 C 13.366389 34.748047 13.179688 34.561345 13.179688 34.328125 L 13.179688 33.019531 C 13.179688 32.78631 13.366389 32.597656 13.599609 32.597656 L 18.490234 32.597656 C 18.439596 32.420207 17.486984 29.080364 17.458984 28.996094 C 17.430246 28.909581 17.472974 28.650537 17.552734 28.648438 L 20.117188 28.648438 C 20.35945 28.675777 20.466056 28.810972 20.503906 28.919922 C 20.604095 29.196405 21.931447 32.587056 21.935547 32.597656 L 25.722656 32.597656 C 25.757367 32.580906 25.818962 32.544544 25.857422 32.458984 C 25.908702 32.344899 27.421111 28.02346 27.462891 27.880859 C 27.501641 27.748596 27.540861 27.652846 27.488281 27.529297 L 15.652344 27.529297 C 15.387193 27.529297 15.173828 27.315932 15.173828 27.050781 L 15.173828 18.195312 C 15.173828 17.930164 15.387193 17.714844 15.652344 17.714844 z M 18.814453 19.904297 C 18.717995 19.904297 18.640625 19.981665 18.640625 20.078125 L 18.640625 25.082031 C 18.640625 25.178489 18.717993 25.255859 18.814453 25.255859 L 29.314453 25.255859 C 29.410904 25.255859 29.490234 25.178491 29.490234 25.082031 L 29.490234 20.078125 C 29.490234 19.981667 29.410913 19.904297 29.314453 19.904297 L 18.814453 19.904297 z "
     style="fill:#fff;" />
</svg>
