<?xml version="1.0" encoding="UTF-8" standalone="no"?>
<svg width="48" height="48" viewBox="0 0 48 48" version="1.1" >
    <defs>
        <style>.cls-1{fill:#fff;}</style>
    </defs>
    <path
        class="cls-1"
        d="m 12.616966,7.2385666 c -1.48208,0.6934198 -1.476133,1.2261338 -1.499936,2.7826014 0,0 0,9.52336 0,9.52336 0.01483,3.044495 0.693428,3.267712 3.571267,3.273657 0,0 18.451503,0 18.451503,0 1.002926,-0.0032 2.336189,0.122009 3.053417,-0.723172 0.571395,-0.669627 0.511882,-1.720176 0.517827,-2.550485 0,0 0,-8.928142 0,-8.928142 -0.0064,-3.1992566 -0.797581,-3.5653104 -3.868853,-3.5712626 0,0 -13.094628,0 -13.094628,0 -1.874913,0 -5.458067,-0.1577307 -7.130597,0.1934432 z m 3.901581,3.2587714 c 1.452317,-0.330338 3.481985,-0.178561 5.014649,-0.178561 0,0 8.332947,0 8.332947,0 1.967155,0.03872 2.342155,0.413674 2.380829,2.380834 0,0 0,4.166479 0,4.166479 -0.0032,0.866021 0.133921,2.124899 -0.68746,2.672494 -0.660675,0.437474 -2.913551,0.303553 -3.776611,0.303553 0,0 -9.225752,0 -9.225752,0 -0.755924,-0.0032 -1.928482,0.09521 -2.499876,-0.47617 -0.488082,-0.485099 -0.464259,-1.267806 -0.476171,-1.904682 -0.01776,-1.017796 -0.11012,-5.547348 0.178561,-6.20506 0.241058,-0.553542 0.348194,-0.47319 0.758884,-0.758887 z m -3.913492,14.276113 c -0.720212,0.288681 -1.077334,0.392834 -1.571357,1.059477 -0.642825,0.871966 -1.9552627,7.068102 -2.3361967,8.591838 -0.2678461,1.074373 -0.839246,2.77667 -0.2053475,3.785539 0.6874668,1.104118 2.3867912,0.973181 3.5176822,0.976142 0,0 23.808403,0 23.808403,0 1.282678,-0.0032 3.104024,0.11012 3.806356,-1.229111 0.532722,-1.017798 -0.360085,-3.586138 -0.64282,-4.722985 -0.407707,-1.627889 -1.309463,-6.91038 -2.360012,-7.841881 -0.964229,-0.854132 -2.28262,-0.785691 -3.481963,-0.788652 0,0 -13.094627,0 -13.094627,0 -1.916571,0 -5.740805,-0.139888 -7.440118,0.169633 z m 3.901603,2.276676 c 0,0 13.061876,0 13.061876,0 0.681516,-0.0624 1.672529,-0.11012 2.252876,0.282714 0.946373,0.642842 1.261838,3.824235 1.446344,5.008705 0.244041,0.961269 0.735084,2.562374 0,3.351026 -0.66662,0.622003 -1.990978,0.517827 -2.806415,0.517827 0,0 -13.392214,0 -13.392214,0 -0.577363,-0.0032 -1.496951,0.02387 -2.014778,-0.220218 -1.59516,-0.744012 -0.517831,-3.791484 -0.247024,-5.136658 0.297609,-1.488024 0.214273,-3.029616 1.699335,-3.803396 z"
     id="shape" />
</svg>