<?xml version="1.0" encoding="utf-8"?>
<!-- Generator: Adobe Illustrator 21.1.0, SVG Export Plug-In . SVG Version: 6.00 Build 0)  -->
<svg version="1.0" id="Layer_1" xmlns="http://www.w3.org/2000/svg" xmlns:xlink="http://www.w3.org/1999/xlink" x="0px" y="0px"
	 viewBox="0 0 48 48" style="enable-background:new 0 0 48 48;" xml:space="preserve">
<style type="text/css">
	.st0{fill:#FFFFFF;}
</style>
<g>
	<path class="st0" d="M17.8,13.9c1.5,2.1,3,4.3,4.5,6.4c0.9,1.3,2.6,1.2,3.5,0c1.5-2.1,3-4.2,4.4-6.3c0-0.1,0.1-0.1,0.1-0.2
		c-4.2,0-8.4,0-12.6,0C17.8,13.8,17.8,13.9,17.8,13.9z"/>
	<path class="st0" d="M17.2,13.1c0.1,0.1,0.2,0.2,0.4,0.2c0.9,0,1.8,0,2.7,0c3.4,0,6.8,0,10.2,0c0.1,0,0.2,0,0.3-0.1
		c0.2-0.3,0.4-0.6,0.7-1c-4.9,0-9.8,0-14.8,0C16.9,12.5,17.1,12.8,17.2,13.1z"/>
	<path class="st0" d="M24,2C11.8,2,2,11.8,2,24s9.8,22,22,22s22-9.8,22-22S36.2,2,24,2z M33.1,12.1c0,0.1-0.1,0.1-0.1,0.2
		c-2,2.8-4,5.7-6,8.5c-1.4,1.9-2.1,4.1-2.2,6.4c-0.1,1.5-0.1,2.9,0.1,4.3c0.2,1.5,0.9,2.7,2.2,3.5c0.3,0.2,0.7,0.5,1,0.7
		c0.3,0.2,0.3,0.3,0.1,0.5c-2.7,0-5.5,0-8.2,0c-0.2-0.3-0.2-0.3,0.1-0.5c0.6-0.4,1.1-0.8,1.6-1.2c1-0.8,1.5-2,1.6-3.2
		c0.1-1.6,0.1-3.1,0-4.7c-0.2-2.2-0.9-4.1-2.1-5.9c-2-2.8-4-5.7-6-8.5c0-0.1-0.1-0.1-0.1-0.2c-0.1-0.2,0-0.4,0.2-0.4
		c0.1,0,0.1,0,0.2,0c5.7,0,11.5,0,17.2,0c0.1,0,0.2,0,0.2,0C33.1,11.8,33.2,11.9,33.1,12.1z"/>
</g>
</svg>
