<?xml version="1.0" encoding="UTF-8"?>
<svg version="1.1" viewBox="0 0 48 48" xmlns="http://www.w3.org/2000/svg">
    <path d="m13.043 20.473c-0.023915 0.13936-0.042969 0.28135-0.042969 0.42774v16.6c0 1.385 1.115 2.5 2.5 2.5h3.0312c0.13869-0.6857 0.74096-1.1992 1.4688-1.1992h2.5v-0.82617c0-0.042917 0.010173-0.083016 0.013672-0.125a7.5 7.5 0 0 1-6.0137-7.3496 7.5 7.5 0 0 1 7.5-7.5 7.5 7.5 0 0 1 7.5 7.5 7.5 7.5 0 0 1-6.0137 7.3438c0.003827 0.04388 0.013672 0.085953 0.013672 0.13086v0.82617h2.5c0.72779 0 1.3301 0.51352 1.4688 1.1992h3.0312c1.385 0 2.5-1.115 2.5-2.5v-16.6c0-0.14639-0.019054-0.28838-0.042969-0.42774h-21.914z" fill="#fff"/>
    <path d="m16.07 6.9141c-0.052316 0.0072078-0.1015 0.024812-0.14648 0.050781-0.35983 0.20775-0.31589 0.95416 0.09961 1.6738l1.6816 2.9121a11.1 11 0 0 0-4.6738 7.4492h21.951a11.1 11 0 0 0-4.5215-7.3438l1.6602-2.877c0.4155-0.71967 0.4614-1.4661 0.10156-1.6738-0.35984-0.20775-0.98489 0.20416-1.4004 0.92383l-1.6465 2.8535a11.1 11 0 0 0-5.4375-1.2793 11.1 11 0 0 0-4.7383 1.1914l-1.6777-2.9063c-0.36356-0.62971-0.88574-1.0251-1.252-0.97461zm3.2598 6.8574a1.5 1.5 0 0 1 1.5 1.5 1.5 1.5 0 0 1-1.5 1.5 1.5 1.5 0 0 1-1.5-1.5 1.5 1.5 0 0 1 1.5-1.5zm9.3535 0.12891a1.5 1.5 0 0 1 1.5 1.5 1.5 1.5 0 0 1-1.5 1.5 1.5 1.5 0 0 1-1.5-1.5 1.5 1.5 0 0 1 1.5-1.5z" fill="#fff"/>
    <rect x="6.5" y="20.473" width="5" height="14.5" rx="3" fill="#fff"/>
    <rect x="36.5" y="20.473" width="5" height="14.5" rx="3" fill="#fff"/>
    <path d="m24 26.75a3.75 3.75 0 0 0-3.75 3.75 3.75 3.75 0 0 0 0.97266 2.5117l0.83594-2.041a2 2 0 0 1-0.058594-0.4707 2 2 0 0 1 0.1543-0.76367 0.95 0.8 0 0 0 0.36914 0.27734 1 1 0 0 0 0.97656 0.78711 1 1 0 0 0 1-1 1 1 0 0 0-0.78906-0.97656 0.95 0.8 0 0 0-0.31445-0.23047 2 2 0 0 1 0.60352-0.09375 2 2 0 0 1 2 2 2 2 0 0 1-2 2 2 2 0 0 1-0.56836-0.083984l-1.4121 1.2637a3.75 3.75 0 0 0 1.9805 0.57031 3.75 3.75 0 0 0 3.75-3.75 3.75 3.75 0 0 0-3.75-3.75z" fill="#fff"/>
</svg>
