<svg xmlns="http://www.w3.org/2000/svg" width="48" height="48" viewBox="0 0 48 48">
 <g fill="#fff">
  <rect x="5" y="32" width="38" height="13" rx="2" ry="2"/>
  <rect x="5" y="22" width="5" height="14" rx="0" ry="0"/>
  <rect x="38" y="22" width="5" height="14"/>
  <path d="m5.9 3.89c1.2-1.2 3.13-1.19 4.41 0.04l4.8 4.78c1.22 1.22 1.24 3.17 0.033 4.37-1.2 1.2-3.15 1.19-4.37-0.033l-4.83-4.76c-1.22-1.22-1.24-3.18-0.0365-4.38z"/>
  <path d="m42.1 3.89c-1.2-1.2-3.13-1.19-4.4 0.04l-4.8 4.78c-1.22 1.22-1.24 3.17-0.033 4.37 1.2 1.2 3.15 1.19 4.37-0.033l4.83-4.76c1.22-1.22 1.24-3.18 0.0365-4.38z"/>
 </g>
 <circle cx="24" cy="22" r="14" fill="none" stroke="#fff" stroke-width="10"/>
 <path d="m24 16.954a5.0476 5.0476 0 0 0-1.5332 0.23828 2.458 2.458 0 0 1 1.4023 2.2188 2.458 2.458 0 0 1-2.459 2.459 2.458 2.458 0 0 1-2.2188-1.4004 5.0476 5.0476 0 0 0-0.23828 1.5312 5.0476 5.0476 0 0 0 5.0469 5.0469 5.0476 5.0476 0 0 0 5.0469-5.0469 5.0476 5.0476 0 0 0-5.0469-5.0469z" fill="#fff"/>
</svg>
