<?xml version="1.0" encoding="UTF-8"?>
<svg version="1.1" viewBox="0 0 48 48" xmlns="http://www.w3.org/2000/svg">
    <path d="m15.662 16.645c-0.25562 0-0.51116 0.0971-0.70703 0.29297l-1.0605 1.0605c-0.39174 0.39174-0.39174 1.0223 0 1.4141l4.5957 4.5977-4.5957 4.5957c-0.39174 0.39174-0.39174 1.0223 0 1.4141l1.0605 1.0605c0.39174 0.39174 1.0223 0.39174 1.4141 0l6.3633-6.3633c0.39174-0.39174 0.39174-1.0223 0-1.4141l-1.0605-1.0605-5.3027-5.3047c-0.19587-0.19587-0.45141-0.29297-0.70703-0.29297z" fill="#fff"/>
    <path d="m25.562 16.645c-0.25562 0-0.51312 0.0971-0.70898 0.29297l-1.0605 1.0605c-0.39174 0.39174-0.39174 1.0223 0 1.4141l4.5977 4.5977-4.5977 4.5957c-0.39174 0.39174-0.39174 1.0223 0 1.4141l1.0605 1.0605c0.39174 0.39174 1.0243 0.39174 1.416 0l6.3633-6.3633c0.39174-0.39174 0.39174-1.0223 0-1.4141l-1.0605-1.0605-5.3027-5.3047c-0.19587-0.19587-0.45141-0.29297-0.70703-0.29297z" fill="#fff"/>
    <path d="m43 16.127a8.5 8.5 0 0 0-5.3086 7.873 8.5 8.5 0 0 0 5.3086 7.8711v-15.744z" fill="#fff"/>
</svg>
