<?xml version="1.0" encoding="UTF-8" standalone="no"?>
<svg
   xmlns:dc="http://purl.org/dc/elements/1.1/"
   xmlns:cc="http://creativecommons.org/ns#"
   xmlns:rdf="http://www.w3.org/1999/02/22-rdf-syntax-ns#"
   xmlns:svg="http://www.w3.org/2000/svg"
   xmlns="http://www.w3.org/2000/svg"
   id="svg881"
   version="1.1"
   viewBox="0 0 48 48"
   height="48"
   width="48">
  <metadata
     id="metadata887">
    <rdf:RDF>
      <cc:Work
         rdf:about="">
        <dc:format>image/svg+xml</dc:format>
        <dc:type
           rdf:resource="http://purl.org/dc/dcmitype/StillImage" />
        <dc:title></dc:title>
      </cc:Work>
    </rdf:RDF>
  </metadata>
  <defs
     id="defs885">
    <clipPath
       id="clipPath18"
       clipPathUnits="userSpaceOnUse">
      <path
         id="path16"
         d="M 0,288 H 792 V 0 H 0 Z" />
    </clipPath>
  </defs>
  <path
     style="fill:#ffffff;fill-opacity:1;fill-rule:nonzero;stroke:none;stroke-width:0.01646308"
     d="m 15.979635,5.0999463 c -1.872675,0 -3.307396,0.8245285 -4.255241,2.467044 L 3.7008189,21.530058 c -0.9391657,1.644984 -0.9305489,3.306135 0.00263,4.933859 L 11.724132,40.42843 c 0.947844,1.643671 2.382566,2.471624 4.25524,2.471624 h 16.028097 c 1.873997,0 3.308719,-0.827953 4.250906,-2.471624 l 8.033699,-13.964513 c 0.937572,-1.627724 0.947861,-3.288875 0.007,-4.933859 L 36.258384,7.5669903 C 35.316197,5.9244748 33.881475,5.0999463 32.007479,5.0999463 Z m 8.57269,13.5333197 c 1.002601,0 2.335768,0.190437 3.173406,0.303376 v 1.678699 c -0.793354,-0.08512 -2.129945,-0.279014 -3.26046,-0.279014 -0.609465,0 -1.828223,0.05902 -1.828223,1.064706 0,2.22614 5.562075,0.159551 5.562075,4.5333 0,2.607732 -2.27983,3.432165 -4.385946,3.432165 -1.282641,0 -2.615983,-0.192452 -3.75556,-0.384413 v -1.786016 c 0.945803,0.166233 2.020518,0.384886 3.148562,0.384886 0.736557,0 2.433777,-3.5e-5 2.433777,-1.291397 0,-2.329358 -5.433787,-0.192074 -5.433787,-4.429836 0,-2.840213 2.845056,-3.226456 4.346156,-3.226456 z M 9.3002689,18.797975 h 4.0230061 c 2.674741,0 5.419546,0.990972 5.419546,5.214083 0,4.448323 -4.016192,5.191656 -5.116652,5.191656 H 9.3002689 Z m 20.7646981,0 h 4.17324 c 1.461754,0 4.139727,0.164211 4.139727,2.654908 0,1.057751 -0.58175,1.900652 -1.837383,2.065283 v 0.356916 c 1.016095,0.162652 2.159814,0.822961 2.159814,2.470424 0,1.482991 -0.688883,2.307178 -2.178625,2.665766 -0.560077,0.136968 -1.210246,0.192442 -2.004755,0.192442 h -4.452018 z m -18.341054,1.704743 v 6.996491 h 1.231832 c 2.009782,0 3.281204,-1.100609 3.281204,-3.568424 0,-2.776987 -1.921547,-3.428067 -3.151461,-3.428067 z m 20.769278,0 v 2.577259 h 1.228697 c 1.829538,0 2.325007,-0.32878 2.325007,-1.247752 0,-1.002268 -0.60431,-1.30201 -2.17669,-1.329507 z m 0,4.221237 v 2.775254 h 1.782636 c 1.833163,0 2.006682,-0.602812 2.006682,-1.345427 0,-1.018731 -0.410447,-1.40233 -2.842533,-1.429827 z"
     id="path14" />
</svg>
