<?xml version="1.0" encoding="UTF-8" standalone="no"?>
<svg
   xmlns:svg="http://www.w3.org/2000/svg"
   xmlns="http://www.w3.org/2000/svg"
   xmlns:sodipodi="http://sodipodi.sourceforge.net/DTD/sodipodi-0.dtd"
   xmlns:inkscape="http://www.inkscape.org/namespaces/inkscape"
   viewBox="0 0 48 48"
   height="48"
   width="48"
   xml:space="preserve"
   id="svg2"
   version="1.1"
   sodipodi:docname="dsb.svg"
   inkscape:version="0.92.4 5da689c313, 2019-01-14"><sodipodi:namedview
     pagecolor="#ffffff"
     bordercolor="#666666"
     borderopacity="1"
     objecttolerance="10"
     gridtolerance="10"
     guidetolerance="10"
     inkscape:pageopacity="0"
     inkscape:pageshadow="2"
     inkscape:window-width="1260"
     inkscape:window-height="1001"
     id="namedview64"
     showgrid="false"
     inkscape:pagecheckerboard="true"
     inkscape:zoom="16"
     inkscape:cx="29.466626"
     inkscape:cy="19.631882"
     inkscape:window-x="10"
     inkscape:window-y="13"
     inkscape:window-maximized="1"
     inkscape:current-layer="svg2" /><defs
     id="defs6" /><path
     style="fill:#ffffff;fill-opacity:1;fill-rule:nonzero;stroke:none;stroke-width:0.0188"
     d="m 14.822092,2.0841789 c -2.1385,0 -3.77688,0.94157 -4.8592698,2.81724 L 0.80030223,20.846539 c -1.07248,1.87849 -1.06264,3.77544 0.003,5.63422 l 9.15921997,15.94677 c 1.0823898,1.87699 2.7207698,2.82247 4.8592698,2.82247 h 18.30328 c 2.14001,0 3.77839,-0.94548 4.85432,-2.82247 l 9.17408,-15.94677 c 1.07066,-1.85878 1.08241,-3.75573 0.008,-5.63422 L 37.979402,4.9014189 c -1.07593,-1.87567 -2.71431,-2.81724 -4.85432,-2.81724 z m 9.78958,15.4543701 c 1.14492,0 2.66733,0.21747 3.62387,0.34644 v 1.91699 c -0.90597,-0.0972 -2.43229,-0.31862 -3.72328,-0.31862 -0.69598,0 -2.08774,0.0674 -2.08774,1.21584 0,2.54214 6.35161,0.1822 6.35161,5.1768 0,2.9779 -2.60345,3.91936 -5.00853,3.91936 -1.46471,0 -2.98732,-0.21977 -4.28866,-0.43898 v -2.03954 c 1.08006,0.18983 2.30733,0.43952 3.5955,0.43952 0.84111,0 2.77925,-4e-5 2.77925,-1.47471 0,-2.66001 -6.20511,-0.21934 -6.20511,-5.05865 0,-3.24338 3.24891,-3.68445 4.96309,-3.68445 z m -17.4170798,0.18809 h 4.5940698 c 3.05442,0 6.18885,1.13164 6.18885,5.95422 0,5.07976 -4.58629,5.92861 -5.84296,5.92861 H 7.1945922 Z m 23.7122398,0 h 4.76563 c 1.66925,0 4.72736,0.18752 4.72736,3.03177 0,1.2079 -0.66433,2.17045 -2.0982,2.35845 v 0.40758 c 1.16033,0.18574 2.4664,0.93978 2.4664,2.8211 0,1.6935 -0.78667,2.63468 -2.48788,3.04417 -0.63958,0.15641 -1.38204,0.21976 -2.28933,0.21976 h -5.08398 z m -20.9445598,1.94673 v 7.98964 h 1.4066898 c 2.29507,0 3.74697,-1.25684 3.74697,-4.07496 0,-3.17118 -2.19431,-3.91468 -3.59881,-3.91468 z m 23.7174698,0 v 2.9431 h 1.40311 c 2.08924,0 2.65504,-0.37545 2.65504,-1.42487 0,-1.14454 -0.69009,-1.48683 -2.48567,-1.51823 z m 0,4.82044 v 3.1692 h 2.03568 c 2.09338,0 2.29153,-0.68838 2.29153,-1.53641 0,-1.16334 -0.46871,-1.60139 -3.24603,-1.63279 z"
     id="path14"
     inkscape:connector-curvature="0" /></svg>
