<svg height="48" viewBox="0 0 48 48" width="48" xmlns="http://www.w3.org/2000/svg"><path d="m7 5c-1.108 0-2 .892-2 2v34c0 1.108.892 2 2 2h34c1.108 0 2-.892 2-2v-34c0-1.108-.892-2-2-2zm11.1875 7h1.841797c1.19627 0 1.482422.587906 1.482422 1.052734 0 .659732-.428444 1.369141-1.927735 1.369141h-1.919922zm4.962891 0h1.84375c1.195902 0 1.478515.587906 1.478515 1.052734 0 .659732-.425755 1.369509-1.925781 1.369141h-1.919922zm4.527343 2.166016h1.841797c1.195167 0 1.480469.589491 1.480469 1.054687 0 .659364-.427708 1.369141-1.927734 1.369141h-1.917969zm-10.154296 1.478515h1.841796c1.19627 0 1.480469.58986 1.480469 1.054688 0 .657893-.426122 1.36914-1.925781 1.36914h-1.919922zm4.96289 0h1.841797c1.195167 0 1.480469.58986 1.480469 1.054688 0 .657893-.425755 1.36914-1.925782 1.36914h-1.919921zm4.476563 2.31836h1.841797c1.195902 0 1.480468.589491 1.480468 1.054687 0 .657894-.428075 1.369141-1.927734 1.369141h-1.917969zm-5.189453 1.476562h1.84375c1.195167 0 1.478515.589607 1.478515 1.056641 0 .657893-.425754 1.367555-1.925781 1.367187h-1.919922zm-12.6503911 6.560547h3.5996091a4 4 0 0 1 4 4 4 4 0 0 1 -4 4h-3.5996091zm8.1308591.548828h6.699219v.8125h-2.947266v6.087891h-.80664v-6.087891h-2.945313zm7.994141 0h5.400391v.806641h-4.59375v2.041015h2.792968v.806641h-2.792968v2.439453h4.892578v.806641h-5.699219zm7.363281 0h.806641v3.38086l3.888672-3.38086h1.230468l-2.791015 2.427734 3.130859 4.472657h-.984375l-2.759766-3.941407-1.714843 1.490235v2.451172h-.806641zm-21.589844 1.34961v4.201171h1.701172a2.0999999 2.0999999 0 0 0 2.09961-2.099609 2.0999999 2.0999999 0 0 0 -2.09961-2.101562z" fill="#fff"/></svg>