<?xml version="1.0" encoding="utf-8"?>
<!-- Generator: Adobe Illustrator 21.1.0, SVG Export Plug-In . SVG Version: 6.00 Build 0)  -->
<svg version="1.0" id="Layer_1" xmlns="http://www.w3.org/2000/svg" xmlns:xlink="http://www.w3.org/1999/xlink" x="0px" y="0px"
	 viewBox="0 0 48 48" style="enable-background:new 0 0 48 48;" xml:space="preserve">
<style type="text/css">
	.st0{fill:#FFFFFF;}
</style>
<path class="st0" d="M24,2C11.8,2,2,11.8,2,24s9.8,22,22,22s22-9.8,22-22S36.2,2,24,2z M24.5,30.2c-2.3,2-5,3.5-7.9,4.5
	c-0.6,0.2-1.1,0.4-1.7,0.6c-0.2,0.1-0.4,0-0.6,0c-0.2-0.1-0.2-0.2-0.1-0.4c0.1-0.1,0.2-0.2,0.4-0.2c0.8-0.4,1.6-0.7,2.4-1.1
	c1.6-0.8,3.1-1.7,4.4-2.9c2.7-2.5,4.1-5.5,4.1-9.2c0-0.1,0-0.2,0-0.2c0-1.6-0.1-3.2-0.7-4.7c-0.2-0.5-0.5-1.1-0.9-1.5
	c-0.8-1.1-2-1.5-3.3-1.4c-1.1,0.1-2.1,0.5-3,1.2c-0.6,0.5-1,1.2-1.1,2c0,0.1,0,0.1,0.1,0.2c0.1,0,0.1,0,0.2-0.1
	c0.5-0.3,1-0.6,1.6-0.7c1.3-0.1,2.3,0.7,2.7,1.9c0.2,0.8,0.2,1.5-0.1,2.3c-0.5,1.4-1.9,1.9-3.1,1.7c-1.4-0.2-2.2-1-2.6-2.5
	c-0.6-2.5,0.4-4.9,2.7-6.3c1-0.6,2.1-0.9,3.3-0.9c1,0,2.1,0.1,3.1,0.4c1.9,0.6,3.1,1.9,4,3.6c0.5,1.2,0.7,2.4,0.8,3.7
	C29.1,24.4,27.5,27.6,24.5,30.2z M32.4,24.4c-0.9,0-1.5-0.6-1.5-1.5c0-0.9,0.7-1.5,1.5-1.5c0.8,0,1.5,0.7,1.5,1.5
	C33.9,23.7,33.2,24.4,32.4,24.4z M32.4,17.7c-0.9,0-1.5-0.7-1.5-1.5c0-0.9,0.6-1.5,1.5-1.5c0.9,0,1.5,0.7,1.5,1.5
	C33.9,17.1,33.2,17.7,32.4,17.7z"/>
</svg>
