<?xml version="1.0" encoding="UTF-8" standalone="no"?>
<svg
   xmlns:dc="http://purl.org/dc/elements/1.1/"
   xmlns:cc="http://creativecommons.org/ns#"
   xmlns:rdf="http://www.w3.org/1999/02/22-rdf-syntax-ns#"
   xmlns:svg="http://www.w3.org/2000/svg"
   xmlns="http://www.w3.org/2000/svg"
   xmlns:sodipodi="http://sodipodi.sourceforge.net/DTD/sodipodi-0.dtd"
   xmlns:inkscape="http://www.inkscape.org/namespaces/inkscape"
   width="48"
   height="48"
   viewBox="0 0 48 48"
   version="1.1"
   id="svg4605"
   sodipodi:docname="earth.svg"
   inkscape:version="0.92.1 r">
  <metadata
     id="metadata4611">
    <rdf:RDF>
      <cc:Work
         rdf:about="">
        <dc:format>image/svg+xml</dc:format>
        <dc:type
           rdf:resource="http://purl.org/dc/dcmitype/StillImage" />
        <dc:title></dc:title>
      </cc:Work>
    </rdf:RDF>
  </metadata>
  <defs
     id="defs4609">
    <inkscape:perspective
       sodipodi:type="inkscape:persp3d"
       inkscape:vp_x="0 : 24 : 1"
       inkscape:vp_y="0 : 1000 : 0"
       inkscape:vp_z="48 : 24 : 1"
       inkscape:persp3d-origin="24 : 16 : 1"
       id="perspective5498" />
  </defs>
  <sodipodi:namedview
     pagecolor="#ffffff"
     bordercolor="#666666"
     borderopacity="1"
     objecttolerance="10"
     gridtolerance="10"
     guidetolerance="10"
     inkscape:pageopacity="0"
     inkscape:pageshadow="2"
     inkscape:window-width="640"
     inkscape:window-height="480"
     id="namedview4607"
     showgrid="false"
     inkscape:pagecheckerboard="true"
     inkscape:showpageshadow="false"
     inkscape:snap-intersection-paths="true"
     inkscape:object-paths="true"
     inkscape:snap-smooth-nodes="true"
     inkscape:snap-midpoints="true"
     inkscape:snap-object-midpoints="true"
     inkscape:snap-center="true"
     inkscape:snap-text-baseline="true"
     inkscape:snap-bbox="true"
     inkscape:bbox-paths="true"
     inkscape:bbox-nodes="true"
     inkscape:snap-bbox-edge-midpoints="true"
     inkscape:snap-bbox-midpoints="true"
     inkscape:zoom="8.0625"
     inkscape:cx="3.0554821"
     inkscape:cy="24.192235"
     inkscape:current-layer="svg4605" />
  <path
     style="fill:#ffffff"
     d="M 24 2 A 22 22 0 0 0 9.9453125 7.0839844 C 15.159904 8.388111 20.255702 10.152697 25.572266 12.447266 C 30.155872 14.425499 37.609549 15.758988 44.666016 16.535156 A 22 22 0 0 0 24 2 z M 4.4121094 13.986328 A 22 22 0 0 0 2.2597656 20.771484 C 10.287516 22.053246 17.686666 24.299789 25.572266 27.703125 C 30.131801 29.670969 37.53115 31.00127 44.554688 31.779297 A 22 22 0 0 0 45.974609 24.722656 C 38.019521 23.996693 29.117476 22.691144 22.402344 19.792969 C 16.15343 17.096008 10.44465 15.208085 4.4121094 13.986328 z M 2.5742188 28.898438 A 22 22 0 0 0 24 46 A 22 22 0 0 0 39.800781 39.291016 C 33.651005 38.479516 27.415628 37.212506 22.402344 35.048828 C 15.523562 32.080024 9.2965406 30.096524 2.5742188 28.898438 z "
     id="path6598" />
</svg>
