<?xml version="1.0" encoding="UTF-8" standalone="no"?>
<svg
   xmlns:dc="http://purl.org/dc/elements/1.1/"
   xmlns:cc="http://creativecommons.org/ns#"
   xmlns:rdf="http://www.w3.org/1999/02/22-rdf-syntax-ns#"
   xmlns:svg="http://www.w3.org/2000/svg"
   xmlns="http://www.w3.org/2000/svg"
   xmlns:sodipodi="http://sodipodi.sourceforge.net/DTD/sodipodi-0.dtd"
   xmlns:inkscape="http://www.inkscape.org/namespaces/inkscape"
   width="48"
   height="48"
   viewBox="0 0 48 48"
   version="1.1"
   id="svg4"
   sodipodi:docname="easer.svg"
   inkscape:version="0.92.3 (2405546, 2018-03-11)">
  <metadata
     id="metadata10">
    <rdf:RDF>
      <cc:Work
         rdf:about="">
        <dc:format>image/svg+xml</dc:format>
        <dc:type
           rdf:resource="http://purl.org/dc/dcmitype/StillImage" />
        <dc:title></dc:title>
      </cc:Work>
    </rdf:RDF>
  </metadata>
  <defs
     id="defs8" />
  <sodipodi:namedview
     pagecolor="#ffffff"
     bordercolor="#666666"
     borderopacity="1"
     objecttolerance="10"
     gridtolerance="10"
     guidetolerance="10"
     inkscape:pageopacity="0"
     inkscape:pageshadow="2"
     inkscape:window-width="2560"
     inkscape:window-height="1385"
     id="namedview6"
     showgrid="false"
     inkscape:pagecheckerboard="true"
     inkscape:zoom="3.4766083"
     inkscape:cx="-43.292022"
     inkscape:cy="21.72061"
     inkscape:window-x="1920"
     inkscape:window-y="27"
     inkscape:window-maximized="1"
     inkscape:current-layer="svg4" />
  <path
     d="M 24 2 A 22 22 0 0 0 2 24 A 22 22 0 0 0 24 46 A 22 22 0 0 0 46 24 A 22 22 0 0 0 24 2 z M 23.691406 7.5214844 C 26.793425 7.4734124 29.054 7.5494433 29.697266 7.7226562 C 31.058696 8.0892515 31.705756 9.1227706 31.707031 10.933594 L 31.707031 12.263672 L 28.826172 12.185547 C 26.219096 12.115157 25.944867 12.150216 25.945312 12.546875 C 25.945752 12.937815 26.243837 12.984375 28.701172 12.984375 C 30.441719 12.984375 31.457031 13.079607 31.457031 13.244141 C 31.457031 13.858971 30.393729 15.511681 29.615234 16.105469 C 28.820832 16.711389 27.456844 17.258711 25.882812 17.603516 C 24.691309 17.864526 25.02622 18.555043 26.759766 19.414062 C 28.772851 20.4116 30.540635 21.985341 31.46875 23.603516 C 32.909697 26.115818 32.30559 29.224179 29.751953 32.439453 C 28.710692 33.7505 25.392744 36.660931 23.564453 37.867188 C 23.0133 38.230823 22.336463 38.953289 22.060547 39.472656 C 21.617715 40.30622 21.436962 40.426732 20.509766 40.494141 C 19.715247 40.551901 19.332746 40.444075 18.943359 40.054688 C 17.804155 38.915484 18.826895 36.656602 20.40625 36.822266 C 21.225545 36.908206 22.436276 36.175677 25.095703 33.984375 C 28.681313 31.029917 30.574958 27.955891 30.064453 25.921875 C 29.90633 25.291866 29.809795 25.363302 27.529297 27.761719 C 25.049439 30.369806 22.976447 32.070306 20.726562 33.34375 C 19.987116 33.76228 19.291533 34.363228 19.166016 34.693359 C 18.947466 35.268192 18.050705 35.783203 17.265625 35.783203 C 17.057313 35.783203 16.545739 35.44027 16.128906 35.023438 C 15.517964 34.412497 15.404735 34.134273 15.539062 33.583984 C 15.823816 32.417457 16.541283 31.908151 17.9375 31.880859 C 19.005923 31.859979 19.455286 31.674678 20.994141 30.625 C 23.12133 29.17401 25.542613 26.96657 27.25 24.919922 C 28.498976 23.422773 28.591386 23.104049 27.90625 22.671875 C 27.5983 22.477626 26.953616 22.99608 24.791016 25.173828 C 23.29053 26.684825 21.527295 28.251066 20.873047 28.65625 C 20.218799 29.061435 19.681888 29.527218 19.681641 29.689453 C 19.68096 30.137862 18.434052 31.021484 17.802734 31.021484 C 16.920777 31.021484 15.923828 30.093561 15.923828 29.271484 C 15.923828 28.87939 15.994487 28.375392 16.080078 28.152344 C 16.317368 27.533976 17.546847 26.999603 18.359375 27.162109 C 18.94285 27.278804 19.364911 27.088832 20.628906 26.138672 C 22.066398 25.058089 25.443359 21.613832 25.443359 21.228516 C 25.443359 21.135816 25.216179 21.00061 24.9375 20.927734 C 24.56564 20.830494 24.082221 21.1405 23.121094 22.091797 C 22.400808 22.804717 21.079218 23.769517 20.183594 24.236328 C 19.28797 24.70314 18.187972 25.476199 17.740234 25.955078 C 17.035139 26.709213 16.816655 26.804263 16.111328 26.667969 C 14.551178 26.366492 13.870787 24.556948 14.921875 23.505859 C 15.470809 22.956926 15.530106 22.940827 17.191406 22.900391 C 19.331031 22.848311 22.46573 20.421348 22.845703 18.521484 C 22.998213 17.758936 22.984133 17.744141 22.021484 17.744141 C 20.735185 17.744141 18.926403 16.81051 18.384766 15.865234 C 18.147509 15.451166 17.876209 14.62509 17.78125 14.03125 L 17.609375 12.951172 L 20.335938 13.03125 C 22.92351 13.10607 23.064474 13.084583 23.064453 12.609375 C 23.064433 12.133711 22.92436 12.112181 20.277344 12.185547 L 17.488281 12.261719 L 17.320312 11.371094 C 17.079812 10.08912 17.381201 8.8573371 18.097656 8.1835938 C 18.699758 7.6173895 18.877177 7.5960913 23.691406 7.5214844 z M 24.064453 9.9785156 C 21.173445 9.9785156 19.931641 10.213982 19.931641 10.763672 C 19.931641 11.175213 20.142717 11.230469 21.701172 11.230469 C 22.762559 11.176959 23.278616 11.458888 23.503906 11.523438 C 23.730145 11.340051 24.287482 11.211217 24.742188 11.236328 C 25.196893 11.261438 26.375263 11.269829 27.361328 11.255859 C 28.981727 11.232919 29.143697 11.186201 29.033203 10.763672 C 28.895206 10.235973 27.265803 9.9785156 24.064453 9.9785156 z M 22 13.949219 C 21.022326 13.977129 20.683594 14.081634 20.683594 14.357422 C 20.683594 14.561479 20.99413 14.797287 21.373047 14.880859 C 21.751965 14.964429 22.174712 15.075743 22.3125 15.128906 C 22.785958 15.31158 25.57035 14.96657 26.775391 14.576172 C 27.438812 14.361243 27.940344 14.145422 27.890625 14.095703 C 27.785457 13.990535 23.919245 13.894429 22 13.949219 z M 16.269531 24.048828 C 15.793642 24.101991 15.553225 24.583569 15.771484 25.152344 C 15.862024 25.388287 16.147549 25.512951 16.486328 25.464844 C 16.900377 25.406044 17.050781 25.218909 17.050781 24.759766 C 17.050781 24.300623 16.900377 24.111529 16.486328 24.052734 C 16.409382 24.041808 16.337515 24.041233 16.269531 24.048828 z M 17.833984 28.269531 C 17.227256 28.277731 16.873676 28.711038 17.041016 29.238281 C 17.244641 29.879846 18.299059 29.966408 18.53125 29.361328 C 18.701898 28.916628 18.284681 28.263411 17.833984 28.269531 z M 17.246094 33.066406 C 17.01837 33.092417 16.841342 33.207806 16.773438 33.384766 C 16.523998 34.034793 16.872717 34.571785 17.488281 34.484375 C 17.902331 34.425575 18.052734 34.236487 18.052734 33.777344 C 18.052734 33.3182 17.902331 33.131062 17.488281 33.072266 C 17.403587 33.060241 17.322002 33.057736 17.246094 33.066406 z M 20.416016 37.974609 C 20.015141 37.925166 19.681641 38.24147 19.681641 38.777344 C 19.681641 39.660956 20.53396 39.776447 21.033203 38.960938 C 21.254844 38.598889 21.214023 38.437504 20.830078 38.152344 C 20.691369 38.049323 20.54964 37.991091 20.416016 37.974609 z "
     id="circle2"
     style="fill:#ffffff;fill-opacity:1;stroke:none;stroke-opacity:1" />
</svg>
