<?xml version="1.0" encoding="UTF-8" standalone="no"?>
<svg
   xmlns:dc="http://purl.org/dc/elements/1.1/"
   xmlns:cc="http://creativecommons.org/ns#"
   xmlns:rdf="http://www.w3.org/1999/02/22-rdf-syntax-ns#"
   xmlns:svg="http://www.w3.org/2000/svg"
   xmlns="http://www.w3.org/2000/svg"
   xmlns:sodipodi="http://sodipodi.sourceforge.net/DTD/sodipodi-0.dtd"
   xmlns:inkscape="http://www.inkscape.org/namespaces/inkscape"
   width="48"
   height="48"
   viewBox="0 0 48 48"
   version="1.1"
   id="svg4"
   sodipodi:docname="easer.svg"
   inkscape:version="0.92.3 (2405546, 2018-03-11)">
  <metadata
     id="metadata10">
    <rdf:RDF>
      <cc:Work
         rdf:about="">
        <dc:format>image/svg+xml</dc:format>
        <dc:type
           rdf:resource="http://purl.org/dc/dcmitype/StillImage" />
        <dc:title />
      </cc:Work>
    </rdf:RDF>
  </metadata>
  <defs
     id="defs8" />
  <sodipodi:namedview
     pagecolor="#ffffff"
     bordercolor="#666666"
     borderopacity="1"
     objecttolerance="10"
     gridtolerance="10"
     guidetolerance="10"
     inkscape:pageopacity="0"
     inkscape:pageshadow="2"
     inkscape:window-width="2560"
     inkscape:window-height="1385"
     id="namedview6"
     showgrid="false"
     inkscape:pagecheckerboard="true"
     inkscape:zoom="32"
     inkscape:cx="6.2694616"
     inkscape:cy="18.48922"
     inkscape:window-x="1920"
     inkscape:window-y="27"
     inkscape:window-maximized="1"
     inkscape:current-layer="svg4" />
  <path
     d="M 24,2 C 11.849736,2 2,11.849736 2,24 2,36.150264 11.849736,46 24,46 36.150264,46 46,36.150264 46,24 46,11.849736 36.150264,2 24,2 Z m 6.092766,5.5428833 c 1.002348,0.2699041 1.613627,2.4852987 1.614265,3.3907107 6.38e-4,0.905412 0,1.328125 0,1.328125 0,0 -5.765746,-0.496669 -5.761719,0.285151 0.004,0.78182 5.511719,0.697266 5.511719,0.697266 0,0 -1.063302,2.26754 -1.841797,2.861328 -0.794402,0.60592 -2.15839,1.153242 -3.732422,1.498047 -1.191503,0.26101 -1.180183,0.448163 0.553363,1.307182 2.013085,0.997538 4.10446,3.074643 5.032575,4.692818 1.440947,2.512302 0.83684,5.620663 -1.716797,8.835937 -1.041261,1.311047 -4.359209,4.221478 -6.1875,5.427735 -0.551153,0.363635 -1.277708,0.765693 -1.564673,1.445264 -0.536745,0.778321 -0.607012,1.119804 -1.473441,1.281126 -0.794519,0.05776 -1.132826,-0.06112 -1.58298,-0.53889 -1.104809,-1.17259 -0.09437,-3.177115 1.462891,-3.232422 0.902159,0.185377 2.030026,-0.646589 4.689453,-2.837891 3.58561,-2.954458 5.479255,-6.028484 4.96875,-8.0625 -0.158123,-0.630009 -0.254658,-0.558573 -2.535156,1.839844 -2.479858,2.608087 -4.55285,4.308587 -6.802735,5.582031 -0.739446,0.41853 -1.435029,1.019478 -1.560546,1.349609 -0.339644,0.578739 -1.198005,1.07806 -1.666679,1.105403 -0.207958,0.01213 -0.953598,0.07371 -1.370431,-0.343121 -0.610942,-0.610941 -0.762307,-1.156114 -0.678827,-1.680979 0.208479,-0.988561 0.976797,-1.79024 2.373014,-1.817532 1.488268,0.376868 1.632193,-0.282452 3.171048,-1.33213 2.127189,-1.45099 4.548472,-3.65843 6.255859,-5.705078 1.248976,-1.497149 1.341386,-1.815873 0.65625,-2.248047 -0.30795,-0.194249 -0.952634,0.324205 -3.115234,2.501953 -1.500486,1.510997 -3.263721,3.077238 -3.917969,3.482422 -0.654248,0.405185 -1.038617,0.578595 -1.191406,1.033203 -0.178647,0.664511 -1.361996,1.281184 -1.993314,1.281184 -0.881957,0 -1.84077,-0.83894 -1.84077,-1.661017 -0.1294,-1.728727 1.175287,-2.455406 2.511818,-2.147511 0.698002,0.139601 1.005536,-0.07328 2.269531,-1.023437 1.437492,-1.080583 4.814453,-4.52484 4.814453,-4.910156 0,-0.0927 -0.22718,-0.227906 -0.505859,-0.300782 -0.37186,-0.09724 -0.855279,0.212766 -1.816406,1.164063 -0.720286,0.71292 -2.041876,1.67772 -2.9375,2.144531 -0.895624,0.466812 -1.728673,1.201735 -2.227258,1.731462 -0.707595,0.75179 -1.139681,0.836473 -1.845008,0.700179 -1.56015,-0.301477 -2.194018,-2.066471 -1.189453,-3.16211 0.805525,-0.878554 1.386588,-0.918375 2.269531,-0.605468 1.849679,0.655509 4.39025,-2.330691 5.510479,-3.911497 0.871601,-1.229958 0.282248,-1.244753 -0.680401,-1.244753 -1.286299,0 -3.095081,-0.933631 -3.636718,-1.878907 -0.531683,-0.954093 -0.775391,-2.621093 -0.775391,-2.621093 0,0 5.432837,0.23244 5.455078,-0.634759 0.02224,-0.867199 -5.576172,-0.347658 -5.576172,-0.347658 0,0 -0.187549,-0.467329 -0.167969,-1.328125 0.01958,-0.860796 0.474002,-2.9341844 1.336666,-3.2236497 4.53657,-1.1310264 7.114697,-1.2803267 11.435788,-0.167061 z M 19.931641,10.763671 c 0.01127,1.143918 9.090853,1.058078 9.101562,0 0.01071,-1.0580777 -9.112835,-1.1439177 -9.101562,0 z m 0.751953,3.332032 c -0.03148,0.919482 7.147402,0.708912 7.207031,0 0.05963,-0.708912 -7.175551,-0.919482 -7.207031,0 z"
     id="circle2"
     style="fill:#ffffff;fill-opacity:1;stroke:none;stroke-opacity:1"
     inkscape:connector-curvature="0"
     sodipodi:nodetypes="sssssczczcssssscccscscsscssccsscsccscccscsssssssscczczcczzzzzz" />
  <circle
     style="fill:#ffffff;fill-opacity:1;stroke:none;stroke-width:2;stroke-linecap:round;stroke-miterlimit:4;stroke-dasharray:none;stroke-opacity:1"
     id="path814"
     cx="16.334747"
     cy="24.737289"
     r="0.86440676" />
  <circle
     style="fill:#ffffff;fill-opacity:1;stroke:none;stroke-width:2;stroke-linecap:round;stroke-miterlimit:4;stroke-dasharray:none;stroke-opacity:1"
     id="path814-3"
     cx="17.796612"
     cy="29.072033"
     r="0.86440676" />
  <circle
     style="fill:#ffffff;fill-opacity:1;stroke:none;stroke-width:2;stroke-linecap:round;stroke-miterlimit:4;stroke-dasharray:none;stroke-opacity:1"
     id="path814-6"
     cx="20.264393"
     cy="38.739338"
     r="0.86440676" />
  <circle
     style="fill:#ffffff;fill-opacity:1;stroke:none;stroke-width:2;stroke-linecap:round;stroke-miterlimit:4;stroke-dasharray:none;stroke-opacity:1"
     id="path814-3-7"
     cx="17.36787"
     cy="33.912346"
     r="0.86440676" />
</svg>
