<?xml version="1.0" encoding="utf-8"?>
<!-- Generator: Adobe Illustrator 21.1.0, SVG Export Plug-In . SVG Version: 6.00 Build 0)  -->
<svg version="1.0" id="Layer_1" xmlns="http://www.w3.org/2000/svg" xmlns:xlink="http://www.w3.org/1999/xlink" x="0px" y="0px"
	 viewBox="0 0 48 48" style="enable-background:new 0 0 48 48;" xml:space="preserve">
<style type="text/css">
	.st0{fill:#FFFFFF;}
</style>
<g>
	<path class="st0" d="M27.7,12.6c-0.4-0.2-0.8-0.4-1.2-0.5c-0.7-0.1-1.5-0.1-2.2,0c-2.1,0.3-4.3,0.6-6.4,0.9
		c-1.1,0.2-2.2,0.5-3.3,0.8c-0.5,0.1-0.9,0.5-1.1,1c-0.2,0.4-0.3,0.8-0.4,1.2c-0.2,1.6-0.5,3.3-0.7,4.9c-0.2,1.9-0.3,3.8-0.4,5.7
		c0,0,0.1,0,0.1,0c-0.2,1.1,0.2,1.9,0.9,2.7c0.8,0.8,1.5,1.7,2.3,2.5c1.5,1.6,3.1,3.2,4.8,4.7c0.6,0.5,1.3,0.8,2.1,0.5
		c1.4-0.5,2.9-0.9,4.3-1.4c1.8-0.6,3.5-1.4,5.2-2.3c0.9-0.5,1.5-1.1,1.9-2.1c0.5-1.5,1.1-3,1.6-4.6c0.7-2.1,1.2-4.3,1.8-6.5
		c0.2-0.8,0-1.6-0.7-2.2C33.6,15.9,30.7,14.1,27.7,12.6z M14.9,21.8c-0.4-0.3-0.6-0.7-0.8-1.1c-0.1-0.5-0.2-0.9-0.1-1.4
		c0-0.1,0.1-0.2,0.1-0.4c0.3-0.7,1.1-0.8,1.5-0.2c0.4,0.4,0.6,1,0.6,1.7c0,0,0.1,0,0.1,0c-0.1,0.4-0.2,0.8-0.4,1.1
		C15.8,22,15.3,22.1,14.9,21.8z M16.7,27.4c-0.6-0.5-0.8-1.1-0.9-1.9c0-0.4,0-0.8,0.3-1.1c0.3-0.4,0.6-0.5,1-0.3
		c0.5,0.2,0.8,0.7,0.9,1.2c0.2,0.6,0.3,1.2,0,1.8C17.8,27.7,17.2,27.9,16.7,27.4z M20.1,32.8c-0.2,0.7-0.8,0.9-1.4,0.5
		c-0.6-0.4-1-1.3-1.1-2.1c0-0.2,0-0.3,0.1-0.5c0.2-0.8,0.9-1.1,1.6-0.5c0.5,0.4,0.8,1,0.9,1.6C20.2,32.2,20.1,32.5,20.1,32.8z
		 M20.3,16c-0.2,0-0.3,0-0.5,0.1c-0.7,0-1.3-0.2-1.8-0.5c-0.3-0.2-0.6-0.4-0.5-0.8c0.1-0.4,0.5-0.5,0.8-0.5c0.8-0.1,1.6,0,2.2,0.5
		c0.3,0.2,0.6,0.4,0.5,0.8C20.9,15.8,20.6,15.9,20.3,16z M24.8,12.8c0.2,0,0.3,0,0.5,0c0.6,0,1.1,0.1,1.6,0.4c0.1,0,0.1,0.1,0.2,0.1
		c0.2,0.2,0.5,0.4,0.4,0.7c-0.1,0.3-0.4,0.4-0.7,0.5c-0.8,0.1-1.6,0-2.3-0.5c-0.3-0.2-0.5-0.4-0.5-0.7
		C24.1,12.9,24.5,12.8,24.8,12.8z M23.4,18.4c0.2-0.1,0.5-0.1,0.6-0.1c0.9,0,1.6,0.2,2.2,0.6c0.2,0.2,0.4,0.4,0.4,0.7
		c-0.1,0.3-0.3,0.4-0.6,0.5c-1,0.2-2,0-2.8-0.6C22.7,19.1,22.8,18.5,23.4,18.4z M26.5,33.9c0,0-0.1,0-0.1,0.1c-1,0.5-1.7,0-1.7-1.3
		c0.1-0.9,0.6-1.8,1.6-2.3c0.9-0.4,1.7,0.2,1.6,1.2C27.9,32.6,27.4,33.3,26.5,33.9z M29.8,17.7c-0.4-0.4-0.3-0.8,0.2-1
		c0.2-0.1,0.5-0.1,0.8-0.2c0.6,0,1.2,0.2,1.7,0.5c0.1,0,0.2,0.1,0.2,0.2c0.2,0.2,0.4,0.4,0.4,0.7c-0.1,0.3-0.4,0.4-0.7,0.5
		c-0.9,0.2-1.8-0.1-2.5-0.6C29.9,17.8,29.8,17.8,29.8,17.7z M32.7,25.8c-0.8,0.3-1.5-0.1-1.6-1c-0.1-1.1,0.8-2.4,1.8-2.7
		c0.8-0.3,1.5,0.3,1.5,1.2C34.4,24.3,33.7,25.4,32.7,25.8z"/>
	<path class="st0" d="M24,2C11.8,2,2,11.8,2,24s9.8,22,22,22s22-9.8,22-22S36.2,2,24,2z M37.1,20.4c-0.7,2.7-1.5,5.4-2.4,8
		c-0.3,0.9-0.6,1.8-0.9,2.6c-0.1,0.2-0.1,0.3-0.2,0.5c-0.3,0.7-0.8,1.3-1.5,1.7c-1.5,0.9-3.2,1.6-4.8,2.2c-1.7,0.6-3.4,1.2-5.1,1.8
		c-0.8,0.3-1.5,0.1-2.1-0.5c-1.8-1.5-3.4-3.1-5-4.8c-0.8-0.9-1.6-1.9-2.4-2.8c-0.5-0.6-0.7-1.3-0.7-2.1c0-0.2,0-0.3,0-0.5
		c0,0,0,0,0,0c0.1-1.6,0.2-3.3,0.3-4.9c0.2-1.8,0.4-3.6,0.7-5.4c0.1-0.5,0.2-1,0.5-1.5c0.2-0.6,0.7-1,1.3-1.1c1.4-0.3,2.7-0.7,4.1-1
		c1.7-0.3,3.3-0.5,5-0.7c0.7-0.1,1.4-0.1,2-0.1c0.5,0,1,0.1,1.4,0.3c3.1,1.5,6.1,3.4,8.9,5.5C37.1,18.5,37.4,19.3,37.1,20.4z"/>
</g>
</svg>
