<?xml version="1.0" encoding="UTF-8" standalone="no"?>
<svg
   xmlns:dc="http://purl.org/dc/elements/1.1/"
   xmlns:cc="http://creativecommons.org/ns#"
   xmlns:rdf="http://www.w3.org/1999/02/22-rdf-syntax-ns#"
   xmlns:svg="http://www.w3.org/2000/svg"
   xmlns="http://www.w3.org/2000/svg"
   xmlns:sodipodi="http://sodipodi.sourceforge.net/DTD/sodipodi-0.dtd"
   xmlns:inkscape="http://www.inkscape.org/namespaces/inkscape"
   width="48"
   height="48"
   viewBox="0 0 48 48"
   version="1.1"
   id="svg1807"
   sodipodi:docname="easyxkcd.svg"
   inkscape:version="0.92.4 5da689c313, 2019-01-14">
  <metadata
     id="metadata1813">
    <rdf:RDF>
      <cc:Work
         rdf:about="">
        <dc:format>image/svg+xml</dc:format>
        <dc:type
           rdf:resource="http://purl.org/dc/dcmitype/StillImage" />
        <dc:title></dc:title>
      </cc:Work>
    </rdf:RDF>
  </metadata>
  <defs
     id="defs1811" />
  <sodipodi:namedview
     pagecolor="#ffffff"
     bordercolor="#666666"
     borderopacity="1"
     objecttolerance="10"
     gridtolerance="10"
     guidetolerance="10"
     inkscape:pageopacity="0"
     inkscape:pageshadow="2"
     id="namedview1809"
     showgrid="true"
     inkscape:zoom="6.9532167"
     inkscape:cx="20.593538"
     inkscape:cy="30.293244"
     inkscape:window-x="0"
     inkscape:window-y="44"
     inkscape:window-maximized="1"
     inkscape:current-layer="svg1807"
     inkscape:snap-bbox="true"
     inkscape:bbox-nodes="true"
     inkscape:snap-global="false">
    <inkscape:grid
       type="xygrid"
       id="grid883" />
  </sodipodi:namedview>
  <path
     style="fill:#ffffff"
     d="M 7 5 C 5.892 5 5 5.892 5 7 L 5 41 C 5 42.108 5.892 43 7 43 L 41 43 C 42.108 43 43 42.108 43 41 L 43 7 C 43 5.892 42.108 5 41 5 L 7 5 z M 24.535156 9.0136719 C 25.324599 8.9297001 26.142378 9.3257336 26.517578 9.9570312 C 26.745424 10.340393 26.845553 10.76247 26.878906 11.207031 C 27.589795 11.205712 28.300281 11.231694 28.980469 11.318359 L 28.982422 11.318359 C 32.009283 11.647506 35.198856 14.051856 36.818359 16.359375 C 37.585558 17.452504 37.742467 18.798917 37.517578 20.017578 C 37.29269 21.236239 36.693595 22.374568 35.710938 23.078125 C 35.077343 23.531756 34.480741 23.510516 33.953125 23.535156 C 33.917104 23.536836 33.921854 23.533963 33.886719 23.535156 C 33.915955 26.075807 33.98664 28.761775 32.798828 31.365234 L 32.792969 31.378906 L 32.785156 31.392578 C 31.727107 33.508678 30.683834 34.341557 29.728516 35.296875 C 29.102938 35.922452 28.186895 36.393569 27.175781 36.794922 L 27.5625 38.203125 L 25.867188 38.667969 L 25.505859 37.351562 C 24.80477 37.53796 24.116589 37.662109 23.496094 37.662109 C 21.028496 37.660243 18.973613 37.328057 17.197266 36.384766 C 15.420918 35.441474 13.983273 33.908268 12.699219 31.693359 L 12.683594 31.666016 L 12.669922 31.638672 C 10.865819 27.949526 10.893644 22.904664 12.865234 18.203125 C 12.626376 18.215591 12.390715 18.22174 12.158203 18.203125 C 11.974713 18.188433 11.791659 18.168516 11.5625 18.072266 C 11.333341 17.976018 10.980894 17.707603 10.896484 17.289062 C 10.568154 15.661039 10.925351 14.140421 11.832031 12.998047 C 12.738711 11.855673 14.127499 11.093355 15.791016 10.6875 L 15.828125 10.679688 L 15.865234 10.673828 C 16.165969 10.627316 16.44899 10.601692 16.714844 10.591797 C 17.512406 10.562112 18.162243 10.678573 18.726562 10.833984 C 19.476326 11.040466 20.062704 11.275917 20.923828 11.388672 C 21.269459 11.430849 21.774714 11.430295 22.375 11.408203 C 22.422358 11.072013 22.486223 10.715343 22.652344 10.326172 C 22.920018 9.6990885 23.637792 9.1091229 24.535156 9.0136719 z M 24.941406 10.75 C 24.914587 10.73844 24.861565 10.746944 24.722656 10.761719 C 24.277831 10.80903 24.355431 10.814385 24.269531 11.015625 C 24.256041 11.047234 24.242779 11.17363 24.230469 11.21875 L 25.041016 11.177734 C 25.019526 11.094715 25.028189 10.893049 25.005859 10.855469 C 24.968843 10.793184 24.968226 10.76156 24.941406 10.75 z M 16.802734 12.347656 C 16.611095 12.35653 16.402155 12.377243 16.167969 12.412109 C 14.803851 12.752987 13.796929 13.351014 13.208984 14.091797 C 12.707331 14.723858 12.532541 15.502596 12.613281 16.441406 C 12.782676 16.439056 12.924896 16.442771 13.152344 16.425781 C 13.512478 16.398891 13.911082 16.360497 14.289062 16.341797 C 14.667046 16.323097 14.994481 16.296764 15.408203 16.412109 C 17.059814 16.872564 18.953342 16.664512 20.902344 16.376953 C 22.851345 16.089398 24.843214 15.712666 26.75 16.111328 C 30.146349 16.821421 32.148984 19.136737 33.490234 21.779297 C 33.630181 21.782897 33.666972 21.79075 33.871094 21.78125 C 34.282486 21.76204 34.76258 21.596641 34.6875 21.650391 C 35.181834 21.296461 35.633986 20.539574 35.789062 19.699219 C 35.94414 18.858863 35.810832 17.982609 35.378906 17.367188 C 34.093709 15.535999 30.925951 13.290339 28.779297 13.0625 L 28.769531 13.0625 L 28.759766 13.060547 C 27.511324 12.901237 25.974509 12.963341 24.529297 13.050781 C 23.084084 13.138211 21.758102 13.260605 20.710938 13.132812 L 20.707031 13.132812 L 20.705078 13.132812 C 19.6297 12.993412 18.888813 12.702534 18.259766 12.529297 C 17.795352 12.401401 17.377653 12.321035 16.802734 12.347656 z M 25.251953 17.708984 C 24.04402 17.678371 22.642324 17.896265 21.158203 18.115234 C 19.179375 18.407158 17.040042 18.691644 14.9375 18.105469 C 14.943343 18.107099 14.848701 18.104067 14.835938 18.103516 C 12.707657 22.596052 12.644753 27.550015 14.242188 30.839844 C 15.413111 32.84991 16.597781 34.076024 18.021484 34.832031 C 19.453619 35.592536 21.18744 35.90455 23.498047 35.90625 C 24.117702 35.905915 25.229118 35.658935 26.232422 35.283203 C 27.236407 34.907216 28.179753 34.361263 28.486328 34.054688 C 29.526473 33.014541 30.266994 32.488957 31.203125 30.625 C 32.278161 28.261004 32.127142 25.60108 32.121094 22.775391 C 30.929842 20.295069 29.314357 18.443312 26.390625 17.832031 C 26.034888 17.757655 25.654597 17.719189 25.251953 17.708984 z "
     id="rect1805" />
</svg>
