<?xml version="1.0" encoding="UTF-8" standalone="no"?>
<svg
   xmlns:dc="http://purl.org/dc/elements/1.1/"
   xmlns:cc="http://creativecommons.org/ns#"
   xmlns:rdf="http://www.w3.org/1999/02/22-rdf-syntax-ns#"
   xmlns:svg="http://www.w3.org/2000/svg"
   xmlns="http://www.w3.org/2000/svg"
   xmlns:sodipodi="http://sodipodi.sourceforge.net/DTD/sodipodi-0.dtd"
   xmlns:inkscape="http://www.inkscape.org/namespaces/inkscape"
   width="48"
   height="48"
   viewBox="0 0 48 48"
   id="svg2"
   version="1.1"
   inkscape:version="0.91 r13725"
   sodipodi:docname="ebaykleinanzeigen.svg">
  <metadata
     id="metadata10">
    <rdf:RDF>
      <cc:Work
         rdf:about="">
        <dc:format>image/svg+xml</dc:format>
        <dc:type
           rdf:resource="http://purl.org/dc/dcmitype/StillImage" />
      </cc:Work>
    </rdf:RDF>
  </metadata>
  <defs
     id="defs8" />
  <sodipodi:namedview
     pagecolor="#ffffff"
     bordercolor="#666666"
     borderopacity="1"
     objecttolerance="10"
     gridtolerance="10"
     guidetolerance="10"
     inkscape:pageopacity="0"
     inkscape:pageshadow="2"
     inkscape:window-width="1366"
     inkscape:window-height="715"
     id="namedview6"
     showgrid="false"
     inkscape:snap-global="true"
     inkscape:snap-bbox="true"
     inkscape:bbox-paths="true"
     inkscape:snap-bbox-edge-midpoints="true"
     inkscape:bbox-nodes="true"
     inkscape:snap-bbox-midpoints="true"
     inkscape:object-paths="true"
     inkscape:object-nodes="true"
     inkscape:snap-intersection-paths="true"
     inkscape:snap-smooth-nodes="true"
     inkscape:snap-midpoints="true"
     inkscape:snap-object-midpoints="true"
     inkscape:zoom="3.4766083"
     inkscape:cx="-5.4446332"
     inkscape:cy="34.316496"
     inkscape:window-x="0"
     inkscape:window-y="27"
     inkscape:window-maximized="1"
     inkscape:current-layer="svg2" />
  <path
     style="fill:#ffffff"
     d="M 24 2 A 22 22 0 0 0 2 24 A 22 22 0 0 0 24 46 A 22 22 0 0 0 46 24 A 22 22 0 0 0 24 2 z M 31.873047 10.679688 L 31.873047 10.787109 C 31.873047 10.944531 31.956576 11.140295 32.009766 11.107422 C 32.034846 11.091922 32.054687 11.017755 32.054688 10.943359 C 32.054688 10.737429 32.160594 10.740178 32.4375 10.949219 C 32.699388 11.146945 32.760706 11.14927 32.830078 10.966797 C 32.884628 10.823334 33.014602 10.826144 33.193359 10.976562 C 33.300199 11.066463 33.347905 11.083728 33.386719 11.044922 C 33.465639 10.965992 33.509148 10.982512 33.556641 11.107422 C 33.580441 11.170002 33.633667 11.220703 33.673828 11.220703 C 33.731278 11.220703 33.740397 11.191409 33.716797 11.083984 C 33.688817 10.956622 33.696392 10.947266 33.820312 10.947266 C 33.917842 10.947266 33.965842 10.978969 34.003906 11.0625 C 34.069516 11.206488 34.119942 11.206488 34.185547 11.0625 C 34.256817 10.906078 34.310703 10.919748 34.388672 11.115234 C 34.453212 11.277043 34.461813 11.281158 34.716797 11.294922 C 34.861109 11.302722 35.017552 11.321048 35.064453 11.335938 C 35.126343 11.355578 35.164524 11.330754 35.203125 11.246094 C 35.263965 11.112557 35.357203 11.100873 35.587891 11.197266 C 35.781561 11.278186 35.77062 11.349893 35.544922 11.46875 C 35.445812 11.52095 35.376953 11.589395 35.376953 11.638672 C 35.376953 11.684322 35.34857 11.722656 35.3125 11.722656 C 35.207025 11.722656 35.178555 11.81528 35.259766 11.896484 C 35.329436 11.966154 35.336075 11.963768 35.361328 11.867188 C 35.394328 11.741032 35.485745 11.759794 35.505859 11.896484 C 35.520759 11.997792 35.661976 12.105598 35.712891 12.054688 C 35.728481 12.039098 35.71692 11.996438 35.6875 11.960938 C 35.62194 11.881948 35.707035 11.813567 35.873047 11.8125 C 35.932727 11.812136 36.058966 11.790289 36.154297 11.761719 C 36.298226 11.718589 36.355807 11.721366 36.490234 11.785156 C 36.642524 11.857416 36.708292 11.949219 36.607422 11.949219 C 36.529412 11.949219 36.378906 12.126046 36.378906 12.21875 C 36.378906 12.30018 36.403757 12.30537 36.691406 12.28125 C 36.867979 12.26645 37.014347 12.274638 37.029297 12.298828 C 37.043827 12.322338 37.127382 12.332476 37.214844 12.322266 C 37.348212 12.306696 37.385484 12.277917 37.441406 12.138672 L 37.507812 11.972656 L 37.539062 12.154297 C 37.556292 12.254416 37.579647 12.371795 37.591797 12.416016 C 37.620327 12.51986 37.931315 12.678657 38.046875 12.648438 C 38.176638 12.614498 38.517578 12.993666 38.517578 13.171875 C 38.517578 13.311084 38.582267 13.359375 38.767578 13.359375 C 38.836958 13.359375 38.938256 13.285423 39.060547 13.146484 C 39.268147 12.910642 39.321226 12.92169 39.349609 13.199219 C 39.364929 13.349031 39.390025 13.38587 39.498047 13.421875 C 39.589387 13.452325 39.634192 13.448959 39.646484 13.412109 C 39.656084 13.383319 39.687597 13.360268 39.716797 13.361328 C 39.795917 13.364228 39.979784 13.677887 39.953125 13.763672 C 39.940415 13.804582 39.949496 13.867323 39.972656 13.904297 C 40.001506 13.950287 39.991333 13.999318 39.939453 14.056641 C 39.871703 14.131501 39.870068 14.152034 39.929688 14.257812 C 40.029097 14.434114 40.083416 14.428114 40.216797 14.226562 C 40.373728 13.98942 40.371837 13.904739 40.212891 14.064453 L 40.087891 14.191406 L 40.074219 14.076172 C 40.066519 14.012752 40.115293 13.853264 40.183594 13.722656 C 40.291404 13.516473 40.315788 13.495595 40.363281 13.560547 C 40.393371 13.601697 40.445998 13.624008 40.480469 13.611328 C 40.514939 13.598638 40.573785 13.608843 40.611328 13.632812 C 40.667588 13.668783 40.669937 13.691928 40.623047 13.767578 C 40.561407 13.867028 40.544606 14.144204 40.597656 14.197266 C 40.615676 14.215286 40.632063 14.275096 40.632812 14.330078 C 40.633632 14.388388 40.676284 14.447156 40.734375 14.472656 C 40.836291 14.517396 40.881711 14.622696 40.882812 14.806641 C 40.883268 14.863751 40.915585 14.921141 40.953125 14.935547 C 40.990675 14.949947 41.021484 15.001444 41.021484 15.048828 C 41.021484 15.096208 41.041376 15.134766 41.066406 15.134766 C 41.126656 15.134766 41.125213 15.012164 41.064453 14.974609 C 40.997673 14.933329 41.099897 14.816406 41.203125 14.816406 C 41.350846 14.816406 41.396302 15.151589 41.261719 15.25 C 41.194519 15.29914 41.191664 15.317221 41.246094 15.382812 C 41.302784 15.451123 41.313853 15.452592 41.349609 15.388672 C 41.418369 15.265798 41.475848 15.310961 41.476562 15.488281 C 41.477472 15.718536 41.586429 16.019012 41.675781 16.037109 C 41.715741 16.045209 41.748047 16.028783 41.748047 16.001953 C 41.748047 15.926523 41.852104 15.948065 41.970703 16.046875 C 42.074418 16.133285 42.079209 16.273438 41.978516 16.273438 C 41.952036 16.273438 41.931641 16.380161 41.931641 16.519531 C 41.931641 16.785515 41.993968 16.888445 42.181641 16.935547 C 42.301379 16.965597 42.453031 17.293541 42.503906 17.626953 C 42.522096 17.746191 42.557213 17.820313 42.595703 17.820312 C 42.651753 17.820312 42.685646 17.950048 42.660156 18.070312 C 42.654856 18.095343 42.644719 18.176865 42.636719 18.251953 C 42.628719 18.327043 42.589318 18.510104 42.548828 18.658203 C 42.467298 18.956397 42.488063 19.388783 42.595703 19.601562 C 42.648393 19.705727 42.647224 19.748821 42.583984 19.898438 C 42.543434 19.994347 42.514018 20.15716 42.517578 20.261719 C 42.525478 20.495884 42.42212 20.954144 42.328125 21.101562 C 42.271475 21.190413 42.267047 21.252833 42.304688 21.4375 C 42.360127 21.709536 42.299051 21.916016 42.164062 21.916016 C 42.063972 21.916016 41.999684 22.039421 42.060547 22.115234 C 42.083117 22.143354 42.116542 22.228472 42.132812 22.304688 C 42.161172 22.437584 42.147753 22.479255 41.910156 23.03125 C 41.767996 23.361524 41.703824 23.595073 41.6875 23.849609 C 41.67399 24.0603 41.65283 24.127037 41.59375 24.138672 C 41.54572 24.148172 41.526016 24.180866 41.541016 24.228516 C 41.570686 24.322746 41.326848 24.479191 41.257812 24.410156 C 41.228732 24.381076 41.164196 24.414099 41.070312 24.505859 C 40.959826 24.61386 40.900328 24.640694 40.814453 24.619141 C 40.683116 24.586171 40.675666 24.609505 40.775391 24.761719 C 40.866251 24.900389 40.832346 25.121838 40.697266 25.265625 C 40.613596 25.354695 40.60854 25.383434 40.65625 25.517578 C 40.69594 25.629203 40.696616 25.704749 40.660156 25.798828 C 40.610876 25.926043 40.519531 25.929771 40.519531 25.804688 C 40.519531 25.768618 40.508901 25.738281 40.494141 25.738281 C 40.442741 25.738281 40.296424 25.94333 40.294922 26.017578 C 40.294102 26.058708 40.262159 26.104735 40.224609 26.119141 C 40.187059 26.133551 40.15625 26.176514 40.15625 26.214844 C 40.15625 26.253174 40.187059 26.285156 40.224609 26.285156 C 40.318989 26.285156 40.309143 26.328429 40.189453 26.455078 C 40.133143 26.514668 40.065893 26.649188 40.039062 26.753906 C 40.002943 26.894855 39.969347 26.942948 39.908203 26.9375 C 39.862773 26.9334 39.768072 26.992783 39.697266 27.070312 C 39.575312 27.203833 39.562717 27.207437 39.482422 27.134766 C 39.376747 27.039126 39.354607 27.038383 39.318359 27.132812 C 39.300849 27.178442 39.326246 27.250202 39.384766 27.3125 C 39.472006 27.40536 39.475562 27.426516 39.419922 27.542969 C 39.351482 27.686203 39.154297 27.751759 39.154297 27.630859 C 39.154297 27.539719 39.051947 27.53936 38.875 27.630859 C 38.755113 27.692859 38.738847 27.721568 38.761719 27.835938 C 38.784969 27.952181 38.776144 27.96875 38.683594 27.96875 C 38.602974 27.96875 38.560885 28.009425 38.507812 28.144531 C 38.454082 28.281318 38.406087 28.32996 38.298828 28.353516 C 38.222408 28.370306 38.13529 28.413279 38.105469 28.449219 C 38.075639 28.485149 38.00892 28.513672 37.957031 28.513672 C 37.850441 28.513672 37.607422 28.727096 37.607422 28.820312 C 37.607422 28.853963 37.638231 28.893793 37.675781 28.908203 C 37.772551 28.945333 37.760726 29.060547 37.660156 29.060547 C 37.613986 29.060547 37.539445 29.102284 37.494141 29.152344 C 37.448841 29.202404 37.355613 29.242188 37.287109 29.242188 C 37.119214 29.242188 36.794101 29.506271 36.791016 29.644531 C 36.786716 29.839344 36.706569 29.925781 36.53125 29.925781 C 36.381937 29.925781 36.370701 29.914718 36.390625 29.810547 C 36.404835 29.736207 36.390382 29.697266 36.351562 29.697266 C 36.256122 29.697266 36.150308 29.884898 36.179688 30.001953 C 36.217937 30.15432 36.125637 30.245049 35.964844 30.212891 C 35.880114 30.195951 35.832031 30.204921 35.832031 30.238281 C 35.832031 30.266971 35.784428 30.312582 35.724609 30.339844 C 35.664789 30.367104 35.588652 30.440185 35.556641 30.5 C 35.524631 30.55981 35.472194 30.607422 35.439453 30.607422 C 35.406713 30.607422 35.347702 30.65712 35.308594 30.716797 C 35.242404 30.817806 35.008789 30.994282 34.53125 31.304688 C 34.422898 31.375118 34.215079 31.474919 34.070312 31.525391 C 33.92555 31.575861 33.7531 31.6684 33.685547 31.732422 C 33.564021 31.847596 33.561149 31.848704 33.398438 31.771484 C 33.24922 31.700674 33.236363 31.680985 33.263672 31.556641 C 33.292172 31.426844 33.287609 31.422218 33.193359 31.472656 C 33.117539 31.513236 33.101827 31.552168 33.123047 31.636719 C 33.138367 31.697749 33.127669 31.78937 33.099609 31.841797 C 33.058599 31.918427 33.017723 31.933733 32.896484 31.914062 C 32.768846 31.893352 32.741851 31.903991 32.720703 31.988281 C 32.650423 32.268293 32.09621 32.563102 31.923828 32.412109 C 31.743911 32.254518 31.501058 32.284702 31.441406 32.472656 C 31.406706 32.581968 31.302754 32.594027 31.263672 32.492188 C 31.242862 32.437947 31.203696 32.426039 31.111328 32.449219 C 30.936549 32.493079 30.865202 32.563538 30.896484 32.662109 C 30.915294 32.721389 30.900596 32.746094 30.847656 32.746094 C 30.806076 32.746094 30.76309 32.70631 30.75 32.65625 C 30.7369 32.60619 30.694823 32.564453 30.658203 32.564453 C 30.607903 32.564453 30.600387 32.597988 30.623047 32.701172 C 30.646697 32.80883 30.633989 32.844486 30.568359 32.869141 C 30.522559 32.886341 30.464482 32.925138 30.439453 32.955078 C 30.414423 32.985018 30.34382 33.020253 30.28125 33.033203 C 30.21868 33.046153 30.055095 33.08717 29.917969 33.125 C 29.667727 33.19404 29.533352 33.172398 29.453125 33.048828 C 29.433105 33.017988 29.409635 33.028595 29.390625 33.078125 C 29.374085 33.121225 29.32277 33.15625 29.275391 33.15625 C 29.213551 33.15625 29.189453 33.188795 29.189453 33.271484 C 29.189453 33.410612 29.058654 33.475485 28.998047 33.367188 C 28.932537 33.250127 28.785223 33.27819 28.626953 33.4375 C 28.511293 33.55392 28.439819 33.586897 28.265625 33.597656 C 28.069961 33.609736 28.044605 33.599887 28.005859 33.498047 C 27.959919 33.377201 27.808169 33.34217 27.748047 33.439453 C 27.728927 33.470373 27.719522 33.562825 27.726562 33.644531 L 27.740234 33.792969 L 27.488281 33.792969 C 27.350177 33.792969 27.226234 33.775506 27.212891 33.753906 C 27.199551 33.732316 27.179629 33.600038 27.167969 33.458984 C 27.143319 33.160621 27.119387 33.111328 27.005859 33.111328 C 26.88553 33.111328 26.859432 33.225366 26.945312 33.375 C 27.047479 33.553017 27.002633 33.632317 26.751953 33.714844 C 26.547938 33.782004 26.537183 33.779706 26.515625 33.697266 C 26.503175 33.649656 26.463144 33.611328 26.427734 33.611328 C 26.392324 33.611328 26.350144 33.57505 26.333984 33.53125 C 26.285734 33.400477 26.219324 33.385883 26.101562 33.478516 C 25.950837 33.597076 25.829874 33.587484 25.722656 33.451172 C 25.573323 33.261332 25.422542 33.343456 25.482422 33.582031 C 25.496302 33.637331 25.487491 33.736056 25.462891 33.800781 C 25.412481 33.93336 25.297095 33.951359 24.960938 33.878906 C 24.804398 33.845166 24.747181 33.850334 24.689453 33.902344 C 24.562594 34.016668 24.246973 34.1005 24.060547 34.070312 C 23.903381 34.044863 23.883805 34.025889 23.863281 33.882812 C 23.846911 33.768647 23.819043 33.725786 23.761719 33.728516 C 23.521835 33.739936 23.500678 33.749763 23.5 33.849609 C 23.4986 34.048049 23.462258 34.058454 22.828125 34.044922 C 22.3656 34.035022 22.226562 34.045672 22.226562 34.089844 C 22.226562 34.167094 22.345397 34.208207 22.474609 34.175781 C 22.584462 34.148211 22.674036 34.228799 22.605469 34.292969 C 22.543529 34.350929 22.304495 34.3792 22.179688 34.34375 C 22.099258 34.3209 22.066406 34.279688 22.066406 34.203125 C 22.066406 34.112855 22.032226 34.08675 21.861328 34.042969 C 21.748554 34.014079 21.608003 33.965265 21.548828 33.933594 C 21.455508 33.883644 21.422968 33.889112 21.304688 33.976562 C 21.200012 34.053953 21.128478 34.070754 20.994141 34.052734 C 20.850962 34.033534 20.796418 34.050771 20.695312 34.144531 C 20.587349 34.244589 20.564128 34.250444 20.519531 34.189453 C 20.491451 34.151053 20.395928 34.106586 20.306641 34.089844 C 20.166456 34.063544 20.122659 34.078281 19.980469 34.203125 L 19.814453 34.347656 L 19.652344 34.246094 C 19.520193 34.164424 19.494287 34.126035 19.515625 34.041016 C 19.530135 33.983196 19.521184 33.921776 19.496094 33.90625 C 19.470974 33.89072 19.449219 33.804381 19.449219 33.712891 C 19.449219 33.563259 19.441836 33.552325 19.378906 33.615234 C 19.340076 33.654064 19.304025 33.785229 19.296875 33.908203 C 19.289075 34.042683 19.259456 34.13617 19.222656 34.148438 C 19.178746 34.163077 19.170806 34.139127 19.191406 34.060547 C 19.221286 33.946493 19.138438 33.65625 19.076172 33.65625 C 18.993482 33.65625 18.972656 33.685852 18.972656 33.792969 C 18.972656 33.947322 18.841779 33.964054 18.775391 33.818359 C 18.710451 33.675821 18.662959 33.671721 18.591797 33.804688 C 18.533117 33.914342 18.273375 34.089778 18.199219 34.070312 C 18.174599 34.063913 18.102042 34.055541 18.039062 34.050781 C 17.956453 34.044481 17.921238 34.011372 17.910156 33.933594 C 17.895126 33.828105 17.887481 33.82741 17.535156 33.851562 C 17.24448 33.871482 17.173828 33.86413 17.173828 33.8125 C 17.173828 33.73873 17.101989 33.725919 17.060547 33.792969 C 17.012067 33.871419 16.815178 33.8426 16.765625 33.75 C 16.697095 33.621941 16.533763 33.581531 16.464844 33.675781 C 16.387154 33.782023 16.097664 33.72758 16.029297 33.59375 C 15.907871 33.356056 15.595839 33.249918 15.548828 33.429688 C 15.521828 33.532927 15.497912 33.538152 15.335938 33.476562 C 15.269797 33.451413 15.208171 33.383196 15.191406 33.316406 C 15.175316 33.252286 15.120982 33.178414 15.072266 33.152344 C 14.996386 33.111734 14.976789 33.124521 14.931641 33.244141 C 14.885621 33.366046 14.857258 33.382812 14.707031 33.382812 C 14.596195 33.382812 14.535156 33.362329 14.535156 33.324219 C 14.535156 33.205259 14.440744 33.162057 14.294922 33.212891 C 14.179635 33.253081 14.147857 33.247621 14.099609 33.181641 C 14.058949 33.126051 14.010654 33.112166 13.939453 33.134766 C 13.863133 33.158996 13.817642 33.139917 13.757812 33.060547 C 13.690003 32.970657 13.667294 32.964315 13.605469 33.015625 C 13.565569 33.048745 13.533203 33.104197 13.533203 33.138672 C 13.533203 33.173152 13.493409 33.201172 13.443359 33.201172 C 13.389949 33.201172 13.351563 33.171986 13.351562 33.128906 C 13.351562 33.070396 13.320978 33.060644 13.203125 33.083984 C 12.857443 33.152434 12.720351 33.082466 12.890625 32.923828 C 12.968355 32.851418 12.982459 32.814064 12.943359 32.775391 C 12.904429 32.736891 12.879253 32.743284 12.845703 32.802734 C 12.820993 32.846534 12.77289 32.882812 12.738281 32.882812 C 12.703661 32.882812 12.662364 32.924549 12.646484 32.974609 C 12.630594 33.024669 12.598812 33.064453 12.576172 33.064453 C 12.553522 33.064453 12.437947 32.940646 12.318359 32.789062 C 12.113357 32.529215 12.092044 32.514447 11.943359 32.537109 C 11.822479 32.555539 11.759892 32.538251 11.679688 32.462891 C 11.614928 32.402051 11.51147 32.363046 11.40625 32.359375 C 11.31275 32.356175 11.177924 32.336606 11.107422 32.316406 C 10.990206 32.282826 10.980919 32.266079 11.003906 32.115234 C 11.017736 32.024504 11.012298 31.87862 10.992188 31.791016 C 10.961977 31.659392 10.937348 31.634568 10.849609 31.644531 C 10.791209 31.651131 10.719015 31.691285 10.6875 31.734375 C 10.63355 31.808155 10.623791 31.806742 10.535156 31.726562 C 10.483386 31.679713 10.390736 31.637519 10.330078 31.630859 C 10.18417 31.614829 9.7584852 31.175952 9.6914062 30.972656 C 9.5730748 30.614054 9.3631964 30.381828 9.2792969 30.517578 C 9.2196449 30.614098 9.1176402 30.554684 9.0234375 30.369141 C 8.9694285 30.262765 8.8864628 30.126098 8.8398438 30.066406 C 8.7932248 30.006716 8.7558594 29.921855 8.7558594 29.876953 C 8.7558594 29.832053 8.6858948 29.722228 8.6015625 29.632812 C 8.4837412 29.507887 8.4002462 29.463605 8.2382812 29.441406 C 7.9603791 29.403316 7.7890045 29.249344 7.8027344 29.048828 C 7.8199954 28.796749 7.8027183 28.713784 7.7089844 28.605469 C 7.6524584 28.540289 7.6171875 28.435189 7.6171875 28.328125 C 7.6171875 28.233315 7.5950544 28.141498 7.5683594 28.125 C 7.4860574 28.07414 7.3977335 28.249356 7.4238281 28.410156 C 7.4379631 28.497256 7.4276146 28.560547 7.4003906 28.560547 C 7.3458216 28.560547 7.2988281 28.452039 7.2988281 28.328125 C 7.2988281 28.222786 7.2268903 28.214191 7.171875 28.3125 C 7.114908 28.414294 7.0415519 28.311006 7.0175781 28.095703 C 7.0016911 27.953012 7.0131399 27.925324 7.0917969 27.914062 C 7.2710504 27.888403 7.2254601 27.729298 6.9824219 27.537109 C 6.7601584 27.361351 6.7049986 27.285156 6.7988281 27.285156 C 6.8800201 27.285156 6.8467515 27.180134 6.7265625 27.054688 C 6.6576805 26.982788 6.5999131 26.858101 6.5859375 26.753906 C 6.5678485 26.619057 6.5297615 26.557434 6.4296875 26.5 C 6.2783397 26.41314 6.2681257 26.3568 6.3710938 26.150391 C 6.4408448 26.010575 6.4402736 25.990426 6.3535156 25.8125 C 6.1961836 25.489853 6.1852 25.416854 6.2929688 25.388672 C 6.4206838 25.355272 6.4173417 25.235975 6.2890625 25.25 C 6.1511853 25.26507 6.0971397 24.994357 6.1582031 24.601562 C 6.1928671 24.378588 6.1904265 24.299322 6.1484375 24.271484 C 6.1075435 24.244374 6.1139121 24.22277 6.1738281 24.1875 C 6.2354331 24.15123 6.2490576 24.104111 6.2285156 23.994141 C 6.1672976 23.66637 6.3468451 22.742138 6.5097656 22.548828 C 6.5430686 22.509308 6.5703125 22.454329 6.5703125 22.425781 C 6.5703125 22.363091 6.7366854 22.030429 6.8515625 21.863281 C 6.8972215 21.796851 6.9355469 21.670606 6.9355469 21.583984 C 6.9355469 21.425368 7.0129564 21.29301 7.2636719 21.023438 C 7.3359219 20.945757 7.4036547 20.814631 7.4140625 20.732422 C 7.4362575 20.557053 7.5512175 20.414062 7.6699219 20.414062 C 7.7289099 20.414062 7.7539062 20.379894 7.7539062 20.300781 C 7.7539062 20.224061 7.793642 20.167405 7.8789062 20.123047 C 8.0394923 20.039497 8.1943976 19.870209 8.2167969 19.753906 C 8.2310419 19.679946 8.2654432 19.665481 8.3984375 19.675781 C 8.5926542 19.690821 8.6533347 19.597926 8.5507812 19.441406 C 8.4886302 19.346556 8.4947114 19.320946 8.6308594 19.095703 C 8.7119694 18.961509 8.7991891 18.858594 8.8242188 18.869141 C 8.8492487 18.879681 8.8691406 18.99204 8.8691406 19.117188 C 8.8691406 19.31439 8.8820575 19.34375 8.9609375 19.34375 C 9.0605325 19.34375 9.1062133 19.189843 9.046875 19.056641 C 9.000493 18.952516 9.0266474 18.538909 9.0839844 18.46875 C 9.1095504 18.43747 9.1687299 18.412109 9.2148438 18.412109 C 9.2609568 18.412109 9.3208654 18.370362 9.3476562 18.320312 C 9.3744472 18.270253 9.4165222 18.228516 9.4414062 18.228516 C 9.4662903 18.228516 9.5901373 18.147 9.7167969 18.046875 C 9.8434559 17.946756 9.9865576 17.865234 10.035156 17.865234 C 10.083756 17.865234 10.135983 17.834425 10.150391 17.796875 C 10.164801 17.759325 10.205697 17.728516 10.242188 17.728516 C 10.278667 17.728516 10.357283 17.669781 10.417969 17.597656 C 10.549734 17.441061 10.759796 17.382224 10.789062 17.494141 C 10.805993 17.558901 10.9955 17.683594 11.078125 17.683594 C 11.093965 17.683594 11.096957 17.575748 11.085938 17.443359 C 11.072007 17.275378 11.085846 17.186805 11.128906 17.152344 C 11.186886 17.105954 11.423659 17.048317 11.576172 17.042969 C 11.788378 17.035469 12.046098 16.925696 12.083984 16.826172 C 12.106344 16.767442 12.164298 16.708021 12.212891 16.695312 C 12.261481 16.682603 12.334283 16.620733 12.375 16.558594 C 12.44175 16.456722 12.47436 16.4471 12.705078 16.460938 C 12.940134 16.475037 12.96346 16.468777 12.986328 16.373047 C 13.022628 16.221122 13.577155 15.952574 13.785156 15.986328 C 13.92099 16.008378 13.94209 15.996835 13.96875 15.890625 C 13.99858 15.771762 14.0943 15.731968 14.146484 15.816406 C 14.161874 15.841306 14.261651 15.849244 14.373047 15.833984 C 14.541133 15.810944 14.585125 15.8214 14.65625 15.90625 C 14.70244 15.96136 14.796705 16.037148 14.867188 16.074219 C 14.984436 16.135879 15.008939 16.132645 15.154297 16.046875 C 15.241687 15.995325 15.339051 15.953125 15.369141 15.953125 C 15.438491 15.953125 15.551977 15.783141 15.582031 15.634766 C 15.597561 15.558136 15.63985 15.516215 15.712891 15.505859 C 15.804081 15.492929 15.818251 15.506102 15.796875 15.587891 C 15.772865 15.679691 15.783777 15.68305 15.984375 15.65625 C 16.282283 15.61645 16.323368 15.598743 16.292969 15.519531 C 16.257329 15.426661 16.390556 15.378181 16.498047 15.445312 C 16.544447 15.474293 16.620635 15.498047 16.667969 15.498047 C 16.715299 15.498047 16.779315 15.528786 16.810547 15.566406 C 16.854087 15.618866 16.934214 15.630181 17.154297 15.613281 C 17.42024 15.592861 17.441707 15.59803 17.455078 15.6875 C 17.462978 15.74062 17.516849 15.801184 17.574219 15.822266 C 17.673269 15.858656 17.67668 15.85365 17.648438 15.703125 C 17.628788 15.598348 17.636052 15.544922 17.669922 15.544922 C 17.698102 15.544922 17.759833 15.481263 17.806641 15.404297 C 17.853451 15.327327 17.937988 15.23269 17.994141 15.193359 C 18.087411 15.128029 18.100227 15.128556 18.138672 15.197266 C 18.167952 15.249586 18.213535 15.263591 18.291016 15.244141 C 18.387846 15.219841 18.402344 15.230784 18.402344 15.333984 C 18.402344 15.399274 18.423346 15.453125 18.447266 15.453125 C 18.516866 15.453125 18.821425 15.232445 18.892578 15.130859 C 18.928378 15.079749 19.00285 15.019644 19.056641 14.996094 C 19.110431 14.972544 19.246742 14.880477 19.359375 14.792969 C 19.472009 14.705469 19.593315 14.619833 19.630859 14.603516 C 19.668409 14.587196 19.730033 14.550231 19.767578 14.519531 C 19.805128 14.488841 19.928383 14.415179 20.041016 14.355469 C 20.153651 14.295759 20.369352 14.163095 20.519531 14.0625 C 20.669708 13.961904 20.910766 13.822948 21.054688 13.751953 C 21.198608 13.680963 21.316406 13.608464 21.316406 13.591797 C 21.316406 13.575127 21.434204 13.501736 21.578125 13.429688 C 21.722045 13.357637 21.868706 13.283035 21.90625 13.261719 C 22.158435 13.118536 22.346343 13.056619 22.417969 13.09375 C 22.478549 13.12515 22.534834 13.092669 22.667969 12.951172 C 22.783993 12.827865 22.878334 12.767628 22.958984 12.767578 C 23.024744 12.767537 23.105559 12.736759 23.136719 12.699219 C 23.167879 12.661679 23.226158 12.630859 23.267578 12.630859 C 23.309008 12.630859 23.390562 12.598304 23.447266 12.558594 C 23.529386 12.501074 23.563924 12.498759 23.617188 12.542969 C 23.671637 12.588159 23.702853 12.577562 23.791016 12.482422 C 23.861116 12.406792 23.930986 12.373686 23.988281 12.388672 C 24.049541 12.404692 24.100929 12.373482 24.15625 12.289062 C 24.22366 12.186181 24.259628 12.171453 24.378906 12.195312 C 24.456686 12.210862 24.533178 12.244201 24.548828 12.269531 C 24.592068 12.339491 25.320313 12.175352 25.320312 12.095703 C 25.320312 12.082733 25.284034 12.046252 25.240234 12.013672 C 25.178804 11.967982 25.171694 11.935881 25.208984 11.875 C 25.265174 11.78326 25.678416 11.6335 25.917969 11.617188 C 26.008749 11.610988 26.112428 11.580671 26.148438 11.550781 C 26.184448 11.520901 26.331635 11.483607 26.474609 11.466797 C 26.617583 11.449987 26.744525 11.417994 26.757812 11.396484 C 26.771103 11.374984 26.826038 11.357422 26.878906 11.357422 C 26.931776 11.357422 27.01151 11.324043 27.056641 11.283203 C 27.127251 11.219303 27.157216 11.217008 27.279297 11.267578 C 27.398089 11.316778 27.428892 11.315349 27.462891 11.261719 C 27.485221 11.226439 27.503536 11.171918 27.503906 11.140625 C 27.504771 11.070265 27.7485 11.065063 27.875 11.132812 C 27.94557 11.170583 27.985961 11.166641 28.044922 11.113281 C 28.15427 11.014321 28.488155 11.001826 28.580078 11.09375 C 28.639528 11.1532 28.677062 11.158118 28.773438 11.117188 C 28.838947 11.089367 28.924655 11.041308 28.962891 11.009766 C 29.067528 10.923426 29.33016 10.922103 29.494141 11.007812 C 29.68108 11.105543 29.690714 11.105012 29.677734 10.982422 C 29.667584 10.886552 29.681659 10.879692 29.916016 10.886719 C 30.26828 10.897279 30.958627 10.907477 31.128906 10.904297 C 31.211856 10.902697 31.283743 10.873304 31.298828 10.833984 C 31.340018 10.726637 31.417969 10.754753 31.417969 10.876953 C 31.417969 11.014569 31.507117 11.079439 31.539062 10.964844 C 31.551973 10.918524 31.633228 10.834462 31.71875 10.779297 L 31.873047 10.679688 z M 32.193359 11.181641 C 32.167656 11.185698 32.146731 11.203226 32.121094 11.238281 C 32.074254 11.302331 32.072741 11.346598 32.113281 11.435547 C 32.141951 11.498467 32.173764 11.525574 32.183594 11.496094 C 32.193394 11.466604 32.250599 11.423181 32.310547 11.400391 C 32.452379 11.346461 32.448863 11.27839 32.300781 11.210938 C 32.250238 11.187912 32.219062 11.177583 32.193359 11.181641 z M 29.738281 11.205078 C 29.703725 11.186849 29.650198 11.196594 29.597656 11.244141 C 29.526566 11.308471 29.51828 11.337173 29.5625 11.365234 C 29.65363 11.423064 29.735812 11.409711 29.765625 11.332031 C 29.78964 11.269439 29.772838 11.223307 29.738281 11.205078 z M 32.892578 11.228516 C 32.861348 11.279046 32.864448 11.280137 32.986328 11.345703 C 33.061888 11.386353 33.193359 11.379304 33.193359 11.333984 C 33.193359 11.287104 32.916378 11.190003 32.892578 11.228516 z M 35.390625 11.283203 C 35.38584 11.287988 35.381949 11.305521 35.380859 11.332031 C 35.378959 11.380001 35.389097 11.405745 35.404297 11.390625 C 35.419417 11.375505 35.421343 11.335594 35.408203 11.302734 C 35.400943 11.284584 35.39541 11.278418 35.390625 11.283203 z M 31.490234 11.324219 C 31.444854 11.278839 31.267611 11.478322 31.302734 11.535156 C 31.357944 11.624486 31.462356 11.58761 31.492188 11.46875 C 31.508187 11.40501 31.50651 11.340435 31.490234 11.324219 z M 31.763672 11.357422 C 31.724032 11.357422 31.691406 11.390068 31.691406 11.429688 C 31.691406 11.510058 31.790229 11.496489 31.818359 11.412109 C 31.828259 11.382379 31.803302 11.357422 31.763672 11.357422 z M 33.904297 11.726562 C 33.889503 11.721096 33.861421 11.73048 33.810547 11.75 C 33.708862 11.78902 33.721568 11.857422 33.830078 11.857422 C 33.880648 11.857422 33.921875 11.826993 33.921875 11.789062 C 33.921875 11.750768 33.919091 11.732029 33.904297 11.726562 z M 27.933594 12.572266 C 27.817584 12.563866 27.798649 12.57966 27.785156 12.699219 C 27.764596 12.881435 27.708267 12.941889 27.523438 12.976562 C 27.408879 12.998053 27.369141 13.030402 27.369141 13.097656 C 27.369141 13.159926 27.39042 13.180179 27.4375 13.162109 C 27.47776 13.146659 27.529645 13.171989 27.5625 13.224609 C 27.63391 13.338944 27.761626 13.339893 27.822266 13.226562 C 27.848076 13.178313 27.85731 13.109543 27.84375 13.074219 C 27.83019 13.038879 27.891177 12.929985 27.978516 12.832031 C 28.149555 12.640206 28.140423 12.587204 27.933594 12.572266 z M 30.742188 12.728516 C 30.711962 12.718197 30.6936 12.763728 30.714844 12.876953 C 30.734734 12.982979 30.725693 13.065714 30.689453 13.109375 C 30.620003 13.193055 30.507812 13.199691 30.507812 13.119141 C 30.507812 13.086381 30.479119 13.019285 30.443359 12.970703 C 30.379849 12.884403 30.378333 12.88451 30.345703 12.96875 C 30.323063 13.02721 30.338158 13.073511 30.392578 13.113281 C 30.527751 13.212121 30.42922 13.26659 30.146484 13.25 C 29.999492 13.2413 29.858854 13.220448 29.833984 13.205078 C 29.809114 13.189708 29.653955 13.220314 29.488281 13.271484 C 29.322607 13.322654 29.16658 13.352721 29.142578 13.337891 C 29.118568 13.323051 29.060386 13.330489 29.013672 13.355469 C 28.966952 13.380469 28.792271 13.410655 28.625 13.421875 C 28.457729 13.433105 28.296192 13.462208 28.265625 13.486328 C 28.235055 13.510448 28.127463 13.542181 28.027344 13.556641 C 27.530318 13.628471 27.262705 13.687061 27.070312 13.769531 C 26.828335 13.873254 26.791572 13.862072 26.703125 13.650391 C 26.631725 13.479523 26.588317 13.462462 26.484375 13.566406 C 26.427745 13.623026 26.42526 13.65498 26.46875 13.724609 C 26.54184 13.841644 26.513934 13.860109 26.1875 13.90625 C 26.032989 13.92809 25.881161 13.964491 25.851562 13.988281 C 25.821963 14.012081 25.731738 14.047063 25.650391 14.064453 C 25.531537 14.089873 25.501953 14.080524 25.501953 14.021484 C 25.501953 13.893708 25.637552 13.73114 25.724609 13.753906 C 25.769019 13.765516 25.830679 13.744358 25.863281 13.705078 C 25.912561 13.645698 25.910989 13.632813 25.855469 13.632812 C 25.818739 13.632812 25.752334 13.591076 25.707031 13.541016 C 25.588891 13.41047 25.521404 13.428631 25.390625 13.621094 C 25.311315 13.73781 25.275391 13.851877 25.275391 13.986328 C 25.275391 14.185726 25.267073 14.19439 25.039062 14.244141 C 24.972162 14.258741 24.854995 14.323337 24.777344 14.388672 C 24.691354 14.461032 24.601996 14.498276 24.548828 14.484375 C 24.498738 14.471285 24.430663 14.496559 24.388672 14.542969 C 24.348432 14.587439 24.257815 14.634372 24.1875 14.648438 C 24.11719 14.662498 23.995862 14.727117 23.919922 14.791016 C 23.748337 14.935393 23.728516 14.935215 23.728516 14.792969 C 23.728516 14.717869 23.701604 14.679688 23.652344 14.679688 C 23.611294 14.679688 23.552494 14.643982 23.521484 14.601562 C 23.469584 14.530582 23.457279 14.530906 23.355469 14.597656 C 23.293029 14.638576 23.19309 14.661077 23.126953 14.648438 C 22.987892 14.621847 22.943678 14.679062 22.910156 14.929688 C 22.890756 15.074746 22.864799 15.115364 22.783203 15.126953 C 22.726893 15.134953 22.681641 15.167589 22.681641 15.199219 C 22.681641 15.290179 22.735613 15.319708 22.800781 15.265625 C 22.846441 15.227725 22.897726 15.255853 23.015625 15.380859 C 23.188663 15.564334 23.246585 15.580868 23.3125 15.464844 C 23.35184 15.395604 23.372443 15.392272 23.458984 15.445312 C 23.545964 15.498622 23.573095 15.495249 23.685547 15.412109 C 23.825095 15.308939 23.934104 15.28947 23.978516 15.361328 C 23.993986 15.386358 24.083153 15.408203 24.177734 15.408203 C 24.341291 15.408203 24.35626 15.420402 24.474609 15.662109 L 24.599609 15.916016 L 24.833984 15.884766 C 25.126085 15.845376 25.138672 15.837999 25.138672 15.701172 C 25.138672 15.610182 25.161164 15.589336 25.263672 15.589844 C 25.5127 15.591044 25.594043 15.636014 25.564453 15.753906 C 25.530523 15.889064 25.61734 15.898688 25.6875 15.767578 C 25.72697 15.693828 25.765126 15.678902 25.859375 15.701172 C 25.926145 15.716952 26.013351 15.768142 26.052734 15.814453 C 26.092114 15.860753 26.162903 15.906765 26.210938 15.916016 C 26.258958 15.925216 26.324578 15.988111 26.357422 16.056641 C 26.431982 16.212208 26.503906 16.218392 26.503906 16.068359 C 26.503906 16.005779 26.529267 15.954736 26.560547 15.955078 C 26.704955 15.956678 26.822266 16.016564 26.822266 16.089844 C 26.822266 16.133924 26.850386 16.194123 26.884766 16.222656 C 26.933656 16.263236 26.961832 16.251106 27.017578 16.166016 C 27.095618 16.046915 27.27484 16.045787 27.373047 16.164062 C 27.401907 16.198833 27.454507 16.226562 27.490234 16.226562 C 27.525954 16.226562 27.625746 16.296225 27.712891 16.380859 C 27.800031 16.465489 27.932596 16.547457 28.007812 16.5625 C 28.095672 16.58007 28.172564 16.638269 28.222656 16.726562 C 28.265556 16.802163 28.339097 16.875896 28.384766 16.890625 C 28.56888 16.950005 28.713347 17.55752 28.595703 17.777344 C 28.550683 17.861474 28.541066 17.862756 28.402344 17.791016 C 28.322274 17.749606 28.204838 17.66277 28.140625 17.597656 C 27.898597 17.352218 27.729211 17.237473 27.5625 17.207031 C 27.46788 17.189751 27.323009 17.136118 27.240234 17.087891 C 27.157454 17.039661 27.011118 17 26.914062 17 C 26.817003 17 26.679131 16.979645 26.609375 16.953125 C 26.489301 16.907475 26.039612 16.859021 25.763672 16.863281 C 25.694052 16.864381 25.593656 16.842613 25.541016 16.814453 C 25.488386 16.786283 25.212508 16.75702 24.927734 16.75 C 24.590102 16.7417 24.383817 16.717797 24.337891 16.679688 C 24.299161 16.647537 24.2029 16.615735 24.123047 16.609375 C 24.043197 16.602975 23.881115 16.572236 23.761719 16.541016 C 23.55957 16.488166 23.533258 16.491101 23.402344 16.587891 C 23.270861 16.685101 23.248089 16.689131 23.029297 16.636719 C 22.900631 16.605899 22.718793 16.579568 22.625 16.580078 C 22.471609 16.58092 22.449429 16.568397 22.416016 16.439453 C 22.373156 16.274054 22.255814 16.247469 22.234375 16.398438 C 22.218185 16.512427 22.178308 16.525976 22.099609 16.447266 C 22.059709 16.407366 22.030566 16.408395 21.976562 16.453125 C 21.891092 16.524065 21.821485 16.475388 21.898438 16.398438 C 21.928058 16.368817 21.951972 16.292341 21.951172 16.228516 C 21.949872 16.128267 21.942411 16.123551 21.894531 16.185547 C 21.62538 16.533997 21.591549 16.55848 21.455078 16.501953 C 21.356348 16.461053 21.2994 16.459127 21.226562 16.498047 C 21.173353 16.526517 20.952507 16.559192 20.734375 16.570312 C 20.241564 16.595412 19.823528 16.678738 19.662109 16.785156 C 19.553777 16.856576 19.535288 16.858295 19.511719 16.796875 C 19.476329 16.704635 19.359375 16.707881 19.359375 16.800781 C 19.359375 16.888051 19.10335 17.136719 19.013672 17.136719 C 18.971212 17.136719 18.949219 17.083721 18.949219 16.974609 C 18.949219 16.863611 18.931288 16.818148 18.892578 16.832031 C 18.861298 16.843251 18.799744 16.833097 18.755859 16.810547 C 18.693639 16.778547 18.627183 16.815534 18.455078 16.976562 C 18.31747 17.105277 18.192557 17.181641 18.123047 17.181641 C 18.055337 17.181641 17.951275 17.24497 17.857422 17.341797 C 17.749016 17.453646 17.677358 17.493708 17.617188 17.474609 C 17.563838 17.457679 17.493436 17.482986 17.431641 17.541016 C 17.337511 17.629446 17.134853 17.669249 16.730469 17.679688 C 16.611869 17.682688 16.582031 17.702827 16.582031 17.779297 C 16.582031 17.930333 16.406114 18.146187 16.308594 18.115234 C 16.263004 18.100764 16.2134 18.110539 16.197266 18.136719 C 16.177416 18.168849 16.139602 18.169532 16.082031 18.138672 C 15.983371 18.085872 15.875143 18.17211 15.804688 18.357422 C 15.764397 18.463392 15.756649 18.464536 15.701172 18.388672 C 15.646292 18.313622 15.627582 18.32335 15.455078 18.507812 C 15.259155 18.717316 15.192791 18.715483 15.164062 18.501953 C 15.152342 18.414813 15.172664 18.38549 15.246094 18.375 C 15.342974 18.36117 15.429415 18.235905 15.455078 18.072266 C 15.462678 18.023306 15.508662 17.970643 15.558594 17.957031 C 15.701906 17.917961 15.945313 17.71766 15.945312 17.638672 C 15.945312 17.599172 16.068571 17.448095 16.21875 17.300781 C 16.52094 17.004355 16.555908 16.928633 16.367188 16.976562 C 16.298358 16.994042 16.099036 17.028324 15.923828 17.052734 C 15.74862 17.077134 15.543839 17.116688 15.46875 17.142578 C 15.39366 17.168478 15.248556 17.212201 15.148438 17.238281 C 15.048319 17.264351 14.939835 17.310657 14.90625 17.341797 C 14.86504 17.380017 14.753594 17.39033 14.5625 17.375 C 14.345629 17.35759 14.242816 17.373027 14.123047 17.435547 C 14.037047 17.480397 13.857662 17.522307 13.724609 17.529297 C 13.527989 17.539617 13.46484 17.563855 13.390625 17.658203 C 13.340395 17.722063 13.258525 17.773437 13.208984 17.773438 C 13.159444 17.773438 13.043736 17.814401 12.951172 17.863281 C 12.743999 17.972673 12.449738 18.103154 12.132812 18.226562 C 11.872307 18.328001 11.893483 18.337149 11.822266 18.101562 C 11.785676 17.980488 11.705304 18.104667 11.732422 18.240234 C 11.748242 18.319344 11.735798 18.406323 11.705078 18.443359 C 11.619338 18.546663 11.355508 18.638289 11.220703 18.611328 C 11.130933 18.593368 11.073592 18.611297 11.011719 18.679688 C 10.964609 18.731738 10.892429 18.775391 10.851562 18.775391 C 10.810702 18.775391 10.674988 18.878918 10.550781 19.005859 C 10.426575 19.132801 10.261795 19.263715 10.183594 19.296875 C 10.105394 19.330035 9.9425176 19.451182 9.8222656 19.566406 C 9.591701 19.787324 9.3920018 19.858152 9.484375 19.685547 C 9.523453 19.612537 9.5181285 19.59375 9.4609375 19.59375 C 9.3704885 19.59375 9.3202753 19.720666 9.3847656 19.785156 C 9.4196476 19.820036 9.3635653 19.914605 9.1933594 20.115234 C 8.9206952 20.436631 8.607056 20.732422 8.5371094 20.732422 C 8.4849294 20.732422 8.2089844 21.06246 8.2089844 21.125 C 8.2089799 21.1827 7.9056586 21.414062 7.8300781 21.414062 C 7.7942311 21.414062 7.7400895 21.475686 7.7089844 21.550781 C 7.6778834 21.625871 7.6230188 21.6875 7.5878906 21.6875 C 7.5527676 21.6875 7.5025889 21.744046 7.4765625 21.8125 C 7.4505355 21.88096 7.3985812 22.00332 7.359375 22.085938 C 7.320169 22.168557 7.2995401 22.248758 7.3144531 22.263672 C 7.3293661 22.278592 7.2908396 22.378028 7.2285156 22.484375 C 7.1661916 22.590722 7.1168424 22.736771 7.1191406 22.808594 C 7.1252106 22.998337 7.0653032 23.323273 7.0195312 23.351562 C 6.9622592 23.386962 6.9728448 23.514067 7.0429688 23.648438 C 7.0766088 23.712898 7.1171576 23.968391 7.1347656 24.216797 C 7.1523726 24.465203 7.1787784 24.746602 7.1933594 24.841797 C 7.2194034 25.011789 7.2179581 25.015059 7.0957031 24.984375 C 6.9909789 24.958095 6.9747197 24.964736 6.9882812 25.035156 C 6.9971512 25.081196 7.0547448 25.131512 7.1171875 25.146484 C 7.2153995 25.170034 7.2304687 25.199451 7.2304688 25.361328 C 7.2304688 25.486753 7.265659 25.595654 7.3378906 25.693359 C 7.4422917 25.834582 7.5670041 26.244076 7.5703125 26.457031 C 7.5712228 26.514441 7.6199844 26.611548 7.6777344 26.673828 C 7.7354794 26.736108 7.8416721 26.903753 7.9140625 27.046875 C 7.9864575 27.189997 8.1152518 27.379193 8.2011719 27.466797 C 8.2870969 27.554407 8.384925 27.689893 8.4179688 27.767578 C 8.4510078 27.845268 8.5299835 27.942592 8.59375 27.984375 C 8.657521 28.026155 8.7089844 28.090178 8.7089844 28.126953 C 8.7089844 28.163723 8.7706135 28.249502 8.8457031 28.316406 C 8.9225531 28.384876 8.9824219 28.484065 8.9824219 28.542969 C 8.9824219 28.605679 9.0245873 28.667908 9.0859375 28.699219 C 9.2007236 28.757799 9.5074007 29.063208 9.5351562 29.146484 C 9.5505383 29.192624 9.6284776 29.223531 9.7675781 29.238281 C 9.7856381 29.240181 9.8162706 29.30928 9.8378906 29.390625 C 9.8737906 29.525712 9.8926929 29.536837 10.039062 29.525391 C 10.139973 29.517491 10.219579 29.538321 10.255859 29.582031 C 10.287539 29.620211 10.329439 29.652344 10.349609 29.652344 C 10.450292 29.652344 10.95074 29.999553 11.019531 30.117188 C 11.107941 30.268383 11.394308 30.425781 11.580078 30.425781 C 11.664478 30.425781 11.710185 30.453015 11.726562 30.515625 C 11.742392 30.576145 11.789263 30.607422 11.865234 30.607422 C 11.928064 30.607422 11.986737 30.630133 11.996094 30.658203 C 12.005494 30.686273 12.105174 30.71355 12.216797 30.71875 C 12.445296 30.72941 12.669922 30.808695 12.669922 30.878906 C 12.669922 30.904556 12.735771 30.925781 12.818359 30.925781 C 12.983219 30.925781 13.078125 30.993394 13.078125 31.111328 C 13.078125 31.153308 13.109234 31.213227 13.146484 31.244141 C 13.201334 31.289661 13.219367 31.285993 13.242188 31.226562 C 13.280587 31.126478 13.340128 31.134281 13.375 31.244141 C 13.40659 31.343641 13.530746 31.365737 13.611328 31.285156 C 13.683328 31.213156 13.943359 31.332228 13.943359 31.4375 C 13.943359 31.53575 14.015871 31.541062 14.068359 31.447266 C 14.103039 31.385306 14.122433 31.386551 14.248047 31.449219 C 14.325287 31.487749 14.39913 31.559749 14.412109 31.609375 C 14.445789 31.738178 14.535156 31.721179 14.535156 31.585938 C 14.535156 31.497857 14.557445 31.471536 14.636719 31.472656 C 14.693029 31.473453 14.77954 31.504256 14.828125 31.541016 C 14.876715 31.577756 14.964768 31.609375 15.023438 31.609375 C 15.082107 31.609375 15.179767 31.640078 15.240234 31.679688 C 15.302794 31.720678 15.387979 31.740949 15.439453 31.724609 C 15.503123 31.704409 15.544918 31.723412 15.580078 31.789062 C 15.625518 31.873973 15.659456 31.879726 15.941406 31.853516 C 16.233043 31.826416 16.253056 31.830948 16.277344 31.923828 C 16.297964 32.002648 16.324172 32.016701 16.414062 31.994141 C 16.475993 31.978591 16.540425 31.987422 16.556641 32.013672 C 16.572861 32.039912 16.644843 32.049546 16.716797 32.035156 C 16.801797 32.018156 16.898366 32.037537 16.990234 32.091797 C 17.102731 32.158247 17.14782 32.164917 17.214844 32.123047 C 17.275444 32.085197 17.314056 32.083601 17.349609 32.119141 C 17.385169 32.154701 17.416715 32.152938 17.466797 32.111328 C 17.509487 32.075888 17.567983 32.067264 17.617188 32.089844 C 17.705497 32.130374 17.871059 32.154189 18.160156 32.167969 C 18.264408 32.172969 18.363515 32.191684 18.380859 32.208984 C 18.398199 32.226284 18.452843 32.215407 18.501953 32.185547 C 18.578503 32.139077 18.60683 32.150522 18.693359 32.257812 C 18.748869 32.326642 18.82182 32.382812 18.855469 32.382812 C 18.889119 32.382812 18.986132 32.425276 19.072266 32.478516 C 19.184795 32.548066 19.243837 32.560851 19.279297 32.525391 C 19.314757 32.489931 19.311031 32.458225 19.269531 32.408203 C 19.189701 32.312013 19.245196 32.181718 19.347656 32.224609 C 19.419086 32.254509 19.571866 32.292789 19.904297 32.365234 C 20.022888 32.391084 20.205132 32.417478 20.304688 32.423828 C 20.336597 32.425828 20.384302 32.482767 20.410156 32.550781 C 20.494536 32.772708 20.599437 32.853081 20.646484 32.730469 C 20.663664 32.685689 20.73915 32.675606 20.929688 32.691406 L 21.189453 32.712891 L 21.158203 32.576172 C 21.130653 32.450712 21.141532 32.438491 21.273438 32.412109 C 21.37914 32.390969 21.450461 32.408456 21.548828 32.478516 C 21.638728 32.542526 21.701046 32.558547 21.738281 32.529297 C 21.768691 32.505407 21.869317 32.475308 21.962891 32.460938 C 22.103421 32.439357 22.145698 32.451263 22.203125 32.533203 L 22.273438 32.632812 L 22.380859 32.496094 C 22.506345 32.339057 22.589473 32.372138 22.498047 32.542969 C 22.444877 32.642329 22.446846 32.667549 22.509766 32.730469 C 22.576566 32.797259 22.596614 32.788885 22.763672 32.613281 C 22.923953 32.44479 22.957718 32.42703 23.042969 32.472656 C 23.115809 32.511646 23.180607 32.511053 23.302734 32.470703 C 23.430835 32.428423 23.472003 32.429239 23.5 32.474609 C 23.51994 32.506869 23.571445 32.518753 23.615234 32.501953 C 23.677524 32.478053 23.682252 32.45876 23.638672 32.40625 C 23.608672 32.37009 23.595025 32.322069 23.609375 32.298828 C 23.651175 32.231188 24.032493 32.189544 24.130859 32.242188 C 24.194759 32.276387 24.268605 32.272726 24.394531 32.228516 C 24.593103 32.158816 25.012262 32.161442 25.101562 32.232422 C 25.134332 32.258482 25.235172 32.292224 25.326172 32.308594 C 25.472399 32.334914 25.494623 32.327798 25.517578 32.236328 C 25.534318 32.169628 25.581152 32.129619 25.648438 32.125 C 25.705858 32.121 25.886135 32.087248 26.048828 32.048828 C 26.337721 31.980618 26.51776 31.988459 26.626953 32.074219 C 26.656723 32.097609 26.738247 32.109623 26.808594 32.101562 C 26.915493 32.089303 26.937428 32.063319 26.949219 31.941406 C 26.961289 31.816606 26.981193 31.796002 27.085938 31.796875 C 27.341058 31.798975 27.635139 31.767215 27.667969 31.734375 C 27.718669 31.683665 28.232422 31.692511 28.232422 31.744141 C 28.232422 31.800101 28.453241 31.720526 28.556641 31.626953 C 28.602031 31.585883 28.673718 31.569237 28.740234 31.585938 C 28.818674 31.605628 28.902994 31.57459 29.041016 31.474609 C 29.146487 31.398199 29.249848 31.335937 29.269531 31.335938 C 29.312961 31.335938 29.466636 31.508695 29.529297 31.626953 C 29.595657 31.75219 29.659132 31.726411 29.703125 31.556641 C 29.724375 31.474641 29.779716 31.380199 29.826172 31.347656 C 29.876632 31.312316 29.917371 31.220442 29.925781 31.119141 C 29.939791 30.950531 29.940602 30.948811 30.189453 30.914062 C 30.327117 30.894842 30.470268 30.865586 30.507812 30.847656 C 30.545362 30.829716 30.657694 30.815043 30.757812 30.814453 C 30.911545 30.813533 30.942796 30.797413 30.955078 30.710938 C 30.971408 30.595993 31.01074 30.581059 31.091797 30.662109 C 31.134827 30.705139 31.161724 30.695818 31.216797 30.617188 C 31.313997 30.478419 31.400641 30.490587 31.457031 30.652344 C 31.483211 30.727434 31.527357 30.789062 31.554688 30.789062 C 31.638388 30.789062 31.956983 30.434697 31.972656 30.324219 C 31.991276 30.192916 32.070803 30.20519 32.103516 30.34375 C 32.138576 30.492242 32.247945 30.472917 32.332031 30.304688 C 32.423041 30.122581 32.530004 30.015625 32.621094 30.015625 C 32.704234 30.015625 32.711571 30.075907 32.644531 30.201172 C 32.574031 30.332893 32.628721 30.382657 32.785156 30.328125 C 32.893529 30.290345 32.919922 30.254054 32.919922 30.148438 C 32.919922 30.008691 32.960097 29.983531 33.044922 30.068359 C 33.15762 30.181055 33.238281 30.073111 33.238281 29.8125 L 33.238281 29.560547 L 32.726562 29.560547 C 32.444978 29.560183 32.18622 29.540248 32.150391 29.517578 C 32.077861 29.471678 32.020866 29.591781 32.826172 28.070312 L 33.291016 27.193359 L 32.123047 24.990234 C 31.480954 23.778196 30.925202 22.748751 30.888672 22.703125 C 30.830282 22.630195 30.824051 22.897873 30.837891 24.908203 L 30.853516 27.195312 L 30.230469 27.195312 C 29.519926 27.195311 29.552734 27.213276 29.552734 26.783203 C 29.552734 26.636549 29.532262 26.50535 29.507812 26.490234 C 29.483352 26.475114 29.327627 26.578635 29.160156 26.720703 C 28.825786 27.004356 28.459787 27.193791 28.005859 27.318359 C 27.771217 27.382749 27.540405 27.398044 26.890625 27.396484 C 26.123266 27.394684 26.046977 27.387482 25.699219 27.271484 C 24.846567 26.987089 24.304211 26.400846 24.240234 25.695312 C 24.226494 25.54372 24.20279 25.419652 24.1875 25.419922 C 24.1722 25.420195 24.078635 25.579728 23.978516 25.773438 C 23.737189 26.240358 23.19672 26.789603 22.75 27.021484 C 22.159764 27.327861 21.83716 27.398437 21.064453 27.398438 C 20.556273 27.398438 20.306148 27.379773 20.085938 27.320312 C 19.658931 27.205013 19.087678 26.909914 18.816406 26.666016 C 18.687253 26.549898 18.566623 26.468614 18.548828 26.486328 C 18.531028 26.504048 18.506661 26.666241 18.494141 26.845703 L 18.470703 27.171875 L 17.792969 27.171875 L 17.113281 27.171875 L 17.125 25.839844 L 17.134766 24.509766 L 14.355469 24.509766 L 11.576172 24.509766 L 11.578125 24.634766 C 11.579425 24.937607 11.782679 25.459179 12.023438 25.775391 C 12.195906 26.001911 12.605576 26.275672 12.916016 26.371094 C 13.953734 26.690061 15.029939 26.367064 15.423828 25.619141 L 15.517578 25.443359 L 16.220703 25.443359 L 16.923828 25.443359 L 16.910156 25.572266 C 16.902556 25.643316 16.848983 25.806354 16.791016 25.935547 C 16.475096 26.639562 15.767967 27.114611 14.714844 27.332031 C 14.304922 27.416661 14.139758 27.428303 13.533203 27.408203 C 12.470597 27.372993 11.843113 27.184134 11.228516 26.71875 C 10.40634 26.096184 9.9961638 24.92551 10.162109 23.667969 C 10.276449 22.801466 10.507815 22.299307 11.029297 21.777344 C 11.41475 21.391533 11.799645 21.173597 12.417969 20.996094 C 12.743114 20.902754 12.880503 20.892808 13.693359 20.892578 C 14.728518 20.892305 14.926601 20.928186 15.576172 21.240234 C 16.252546 21.565165 16.80475 22.235611 17 22.972656 C 17.0315 23.091546 17.072177 23.189453 17.091797 23.189453 C 17.111417 23.189453 17.134135 22.120301 17.140625 20.8125 L 17.152344 18.433594 L 17.833984 18.433594 L 18.517578 18.433594 L 18.529297 20.107422 C 18.535797 21.027263 18.554372 21.779297 18.570312 21.779297 C 18.586243 21.779297 18.713318 21.684569 18.853516 21.568359 C 19.177396 21.299896 19.744261 21.024224 20.154297 20.9375 C 20.630157 20.836854 21.536747 20.847994 21.970703 20.958984 C 22.537543 21.103958 23.010383 21.37518 23.433594 21.798828 C 24.042075 22.407932 24.309311 23.050451 24.359375 24.025391 L 24.386719 24.578125 L 24.544922 24.359375 C 24.631562 24.23902 24.821552 24.059882 24.966797 23.962891 C 25.558667 23.567658 26.228567 23.427839 27.777344 23.371094 C 28.390927 23.348614 29.010377 23.328995 29.154297 23.328125 L 29.416016 23.326172 L 29.416016 23.060547 C 29.416016 22.708931 29.210584 22.279149 28.962891 22.115234 C 28.506758 21.81338 27.762875 21.70249 27.136719 21.841797 C 26.677965 21.943859 26.426763 22.115822 26.248047 22.449219 L 26.107422 22.710938 L 25.40625 22.710938 L 24.705078 22.710938 L 24.716797 22.529297 C 24.733737 22.250645 24.971045 21.814882 25.234375 21.578125 C 25.678201 21.179086 26.319246 20.95294 27.261719 20.865234 C 28.360571 20.762976 29.409089 20.973118 30.03125 21.419922 C 30.143197 21.500312 30.244528 21.55821 30.255859 21.546875 C 30.267199 21.535535 30.232044 21.438949 30.177734 21.332031 C 30.092974 21.165138 30.089124 21.130029 30.146484 21.09375 C 30.259991 21.02196 31.565066 21.040534 31.669922 21.115234 C 31.719292 21.150404 32.270911 22.205066 32.896484 23.458984 C 33.522053 24.7129 34.054875 25.732961 34.080078 25.726562 C 34.105278 25.720163 34.639168 24.68479 35.265625 23.425781 C 35.892077 22.166771 36.433868 21.117043 36.470703 21.09375 C 36.544323 21.0472 37.693212 21.033845 37.808594 21.078125 C 37.848184 21.093315 37.880859 21.126914 37.880859 21.152344 C 37.880859 21.177774 36.96929 22.986103 35.855469 25.171875 C 34.741648 27.357647 33.830078 29.169296 33.830078 29.197266 C 33.830078 29.278266 34.187125 29.156385 34.28125 29.042969 C 34.31457 29.002819 34.364049 28.96875 34.390625 28.96875 C 34.473645 28.96875 34.832031 28.781868 34.832031 28.738281 C 34.832031 28.715481 34.860724 28.695312 34.896484 28.695312 C 34.932244 28.695312 34.988406 28.669159 35.021484 28.636719 C 35.137081 28.523313 35.805697 28.105469 35.871094 28.105469 C 35.907374 28.105469 36.048684 28.000637 36.183594 27.873047 C 36.380664 27.686667 36.449527 27.645987 36.537109 27.667969 C 36.597069 27.683019 36.658305 27.675511 36.673828 27.650391 C 36.689358 27.625271 36.736631 27.603516 36.777344 27.603516 C 36.818054 27.603516 36.899383 27.55795 36.958984 27.501953 L 37.068359 27.400391 L 37.150391 27.507812 C 37.244021 27.631943 37.341919 27.601905 37.326172 27.453125 C 37.309102 27.291831 37.387091 27.00656 37.455078 26.980469 C 37.489788 26.967149 37.548719 26.982822 37.585938 27.013672 C 37.643248 27.061232 37.652344 27.049217 37.652344 26.935547 C 37.652344 26.819822 37.715219 26.752786 38.097656 26.453125 C 38.341695 26.261911 38.714982 25.916827 38.927734 25.6875 C 39.140486 25.458171 39.424581 25.167084 39.558594 25.039062 C 39.692613 24.91104 39.843489 24.723307 39.894531 24.623047 C 39.945581 24.522787 40.051406 24.359885 40.130859 24.259766 C 40.210309 24.159647 40.343524 23.969296 40.425781 23.837891 C 40.508041 23.706485 40.602665 23.599609 40.636719 23.599609 C 40.716789 23.599609 40.792969 23.455961 40.792969 23.304688 C 40.792969 23.236277 40.840818 23.140724 40.90625 23.080078 C 40.96883 23.022088 41.021484 22.957348 41.021484 22.935547 C 41.021484 22.913747 41.069383 22.793476 41.128906 22.667969 C 41.188436 22.542462 41.261712 22.386793 41.291016 22.324219 C 41.320316 22.261639 41.374967 22.155584 41.412109 22.087891 C 41.449249 22.020191 41.489423 21.860292 41.501953 21.732422 C 41.514483 21.604551 41.554164 21.42431 41.589844 21.332031 C 41.711498 21.017433 41.845759 20.163001 41.794922 20.029297 C 41.765552 19.952047 41.763856 19.878834 41.791016 19.828125 C 41.814546 19.784165 41.833491 19.660473 41.832031 19.554688 C 41.830531 19.448902 41.841842 19.349553 41.857422 19.333984 C 41.872992 19.318414 41.855139 19.259193 41.818359 19.203125 C 41.773509 19.134685 41.744479 18.932406 41.730469 18.585938 C 41.703879 17.928324 41.529547 17.218782 41.330078 16.958984 C 41.283528 16.898364 41.207858 16.76358 41.162109 16.660156 C 40.963814 16.211876 40.139538 15.334218 39.712891 15.117188 C 39.631551 15.075807 39.564453 15.022838 39.564453 15 C 39.564453 14.94942 38.285669 14.316406 38.183594 14.316406 C 38.143644 14.316406 38.065282 14.254782 38.009766 14.179688 C 37.954256 14.104598 37.885269 14.042969 37.855469 14.042969 C 37.825669 14.042969 37.777109 13.984228 37.748047 13.914062 C 37.670727 13.727408 37.481879 13.539792 37.402344 13.570312 C 37.360624 13.586322 37.333984 13.657063 37.333984 13.751953 C 37.333984 13.92835 37.231919 13.963142 37.152344 13.814453 C 37.097214 13.711438 36.972569 13.696573 36.882812 13.78125 C 36.834573 13.82676 36.819424 13.82676 36.802734 13.78125 C 36.791264 13.74997 36.7113 13.724609 36.626953 13.724609 C 36.542613 13.724609 36.426632 13.705424 36.369141 13.683594 C 35.960829 13.528573 35.565643 13.449953 35.142578 13.4375 C 34.975707 13.4326 34.823182 13.413031 34.804688 13.394531 C 34.786198 13.376041 34.759101 13.285441 34.744141 13.193359 C 34.715011 13.014159 34.603516 12.924301 34.603516 13.080078 C 34.603516 13.279647 34.412244 13.231009 34.328125 13.009766 C 34.275875 12.87234 34.148438 12.872101 34.148438 13.009766 C 34.148438 13.195664 34.048146 13.284467 33.873047 13.251953 C 33.787617 13.236093 33.639734 13.211342 33.544922 13.195312 C 33.450112 13.179282 33.353497 13.129692 33.330078 13.085938 C 33.266438 12.96703 33.063993 12.9298 32.964844 13.019531 C 32.887474 13.089561 32.881088 13.086294 32.867188 12.964844 C 32.854878 12.857336 32.833008 12.839415 32.738281 12.849609 C 32.675701 12.856309 32.602006 12.890664 32.574219 12.927734 C 32.546429 12.964804 32.490735 12.996094 32.451172 12.996094 C 32.411612 12.996094 32.366422 13.017722 32.349609 13.044922 C 32.332789 13.072132 32.274843 13.083962 32.222656 13.070312 C 32.170466 13.056662 32.098924 13.069348 32.0625 13.099609 C 32.02608 13.129849 31.952872 13.157176 31.900391 13.160156 C 31.847911 13.163056 31.672459 13.181299 31.509766 13.199219 C 31.104276 13.243869 30.897726 13.158387 30.841797 12.921875 C 30.814532 12.806593 30.772413 12.738834 30.742188 12.728516 z M 26.753906 12.767578 C 26.686066 12.767578 26.646087 12.788543 26.662109 12.814453 C 26.677579 12.839483 26.719316 12.859375 26.753906 12.859375 C 26.788496 12.859375 26.830243 12.839483 26.845703 12.814453 C 26.861713 12.788543 26.821736 12.767578 26.753906 12.767578 z M 27.125 12.921875 C 27.109714 12.919871 27.086292 12.939128 27.044922 12.976562 C 26.997122 13.019813 26.958984 13.083524 26.958984 13.117188 C 26.958984 13.188237 27.12209 13.200722 27.164062 13.132812 C 27.179662 13.107563 27.178569 13.043847 27.162109 12.992188 C 27.147914 12.947468 27.140286 12.923879 27.125 12.921875 z M 25.070312 13.576172 C 25.045239 13.578039 25.020055 13.602954 25.009766 13.652344 C 25.001166 13.693574 25.026592 13.724609 25.070312 13.724609 C 25.117182 13.724609 25.138496 13.694341 25.128906 13.644531 C 25.119671 13.596571 25.095386 13.574304 25.070312 13.576172 z M 39.650391 13.652344 C 39.578541 13.607944 39.513975 13.730541 39.572266 13.800781 C 39.628136 13.868101 39.701172 13.837224 39.701172 13.746094 C 39.701172 13.711504 39.678231 13.669544 39.650391 13.652344 z M 22.818359 14.111328 C 22.793329 14.126798 22.771484 14.158574 22.771484 14.183594 C 22.771484 14.208624 22.793329 14.216632 22.818359 14.201172 C 22.843389 14.185702 22.863281 14.153946 22.863281 14.128906 C 22.863281 14.103876 22.843389 14.095868 22.818359 14.111328 z M 24.052734 14.4375 C 24.02438 14.414108 23.98061 14.408064 23.949219 14.439453 C 23.896709 14.491963 23.92971 14.587891 24 14.587891 C 24.02207 14.587891 24.055436 14.566273 24.072266 14.539062 C 24.095711 14.501123 24.081088 14.460892 24.052734 14.4375 z M 22.150391 14.574219 C 22.103891 14.527719 21.998047 14.636335 21.998047 14.730469 C 21.998047 14.776889 21.947348 14.847672 21.884766 14.888672 C 21.743931 14.980952 21.737769 15.107792 21.871094 15.201172 C 21.987619 15.282792 22.071107 15.291643 22.111328 15.226562 C 22.126798 15.201533 22.190862 15.179687 22.251953 15.179688 C 22.344753 15.179688 22.363281 15.157637 22.363281 15.044922 C 22.363281 14.956572 22.331074 14.893224 22.271484 14.861328 C 22.221004 14.834308 22.179687 14.766991 22.179688 14.708984 C 22.179688 14.651464 22.166871 14.590688 22.150391 14.574219 z M 20.597656 14.880859 C 20.526648 14.884663 20.453619 14.910639 20.384766 14.966797 C 20.252031 15.075056 20.251199 15.07883 20.330078 15.199219 C 20.415858 15.330145 20.571433 15.408203 20.748047 15.408203 C 20.830217 15.408203 20.865782 15.439664 20.888672 15.533203 C 20.918652 15.655692 20.979231 15.725169 21.058594 15.726562 C 21.080424 15.726926 21.071459 15.691851 21.037109 15.650391 C 20.999359 15.604821 20.979188 15.493531 20.986328 15.367188 C 21.002963 15.072676 20.810682 14.86945 20.597656 14.880859 z M 21.630859 14.90625 C 21.607309 14.90625 21.587891 14.928095 21.587891 14.953125 C 21.587891 14.978155 21.621136 14.998047 21.660156 14.998047 C 21.699186 14.998047 21.718595 14.978155 21.703125 14.953125 C 21.687655 14.928095 21.654409 14.90625 21.630859 14.90625 z M 17.492188 15.408203 C 17.517218 15.408203 17.539062 15.428095 17.539062 15.453125 C 17.539062 15.478155 17.517218 15.498047 17.492188 15.498047 C 17.467157 15.498047 17.447266 15.478155 17.447266 15.453125 C 17.447266 15.428095 17.467158 15.408203 17.492188 15.408203 z M 22.771484 15.431641 C 22.736029 15.435418 22.699044 15.463877 22.689453 15.513672 C 22.677743 15.574492 22.695019 15.593741 22.755859 15.582031 C 22.801929 15.573231 22.839844 15.535247 22.839844 15.498047 C 22.839844 15.449272 22.80694 15.427863 22.771484 15.431641 z M 22.175781 15.433594 C 22.152071 15.448244 22.145506 15.478243 22.160156 15.501953 C 22.174806 15.525663 22.206759 15.534181 22.230469 15.519531 C 22.254179 15.504881 22.260744 15.472929 22.246094 15.449219 C 22.231444 15.425519 22.199491 15.418944 22.175781 15.433594 z M 24.046875 15.453125 C 24.021845 15.453125 24 15.473017 24 15.498047 C 24 15.523077 24.021845 15.544922 24.046875 15.544922 C 24.071905 15.544922 24.091797 15.523077 24.091797 15.498047 C 24.091797 15.473017 24.071905 15.453125 24.046875 15.453125 z M 17.925781 15.726562 C 17.888231 15.726562 17.857422 15.758545 17.857422 15.796875 C 17.857422 15.835205 17.826612 15.878168 17.789062 15.892578 C 17.708662 15.923428 17.696057 16.044922 17.773438 16.044922 C 17.802747 16.044922 17.864391 16.01018 17.910156 15.96875 C 18.010602 15.87785 18.020638 15.726563 17.925781 15.726562 z M 23.548828 15.771484 C 23.493628 15.771484 23.408203 15.92172 23.408203 16.019531 C 23.408203 16.116061 23.46895 16.109643 23.566406 16.001953 C 23.646556 15.913403 23.636008 15.771484 23.548828 15.771484 z M 25.027344 16.052734 C 24.992245 16.055649 24.95752 16.136683 24.958984 16.240234 L 24.960938 16.386719 L 25.019531 16.25 C 25.052461 16.17491 25.071307 16.097306 25.060547 16.078125 C 25.050084 16.05948 25.039043 16.051763 25.027344 16.052734 z M 25.228516 16.113281 C 25.203486 16.097811 25.183594 16.106342 25.183594 16.132812 C 25.183594 16.159312 25.203486 16.181641 25.228516 16.181641 C 25.253546 16.181641 25.275391 16.173179 25.275391 16.162109 C 25.275391 16.151069 25.253546 16.128741 25.228516 16.113281 z M 27.660156 16.455078 C 27.650356 16.455078 27.640625 16.485887 27.640625 16.523438 C 27.640625 16.560987 27.661307 16.591797 27.685547 16.591797 C 27.709797 16.591797 27.717535 16.560988 27.703125 16.523438 C 27.688715 16.485888 27.669986 16.455078 27.660156 16.455078 z M 14.035156 16.773438 C 14.010126 16.773438 13.988281 16.835061 13.988281 16.910156 C 13.988281 16.985246 14.010126 17.046875 14.035156 17.046875 C 14.060186 17.046875 14.080078 16.985252 14.080078 16.910156 C 14.080078 16.835066 14.060186 16.773438 14.035156 16.773438 z M 42.158203 17.136719 C 42.070753 17.136719 42.035353 17.226762 42.097656 17.289062 C 42.132106 17.323512 42.25 17.237407 42.25 17.177734 C 42.25 17.155774 42.208263 17.136719 42.158203 17.136719 z M 13.832031 21.791016 C 13.394177 21.766917 12.941891 21.844935 12.574219 22.03125 C 12.108144 22.267429 11.688898 22.85592 11.632812 23.353516 L 11.611328 23.554688 L 13.630859 23.542969 L 15.650391 23.53125 L 15.640625 23.326172 C 15.620745 22.904219 15.357232 22.427183 14.998047 22.164062 C 14.693178 21.940732 14.269885 21.815115 13.832031 21.791016 z M 20.724609 21.824219 C 20.046965 21.824219 19.555917 22.02802 19.140625 22.482422 C 18.708704 22.955012 18.509016 23.576925 18.556641 24.304688 C 18.586381 24.759256 18.654451 25.014905 18.835938 25.373047 C 19.08315 25.860895 19.604204 26.268244 20.154297 26.402344 C 20.47277 26.479974 20.975183 26.478697 21.283203 26.398438 C 22.039631 26.201414 22.561676 25.691656 22.783203 24.929688 C 22.902075 24.520823 22.909902 23.774441 22.798828 23.396484 C 22.499323 22.37736 21.769699 21.824219 20.724609 21.824219 z M 41.226562 24.087891 C 41.07148 24.117531 41.034441 24.190833 41.136719 24.265625 C 41.254422 24.351695 41.327788 24.342008 41.361328 24.236328 C 41.401818 24.108734 41.360647 24.062259 41.226562 24.087891 z M 29.392578 24.304688 L 28.347656 24.316406 C 26.899516 24.332326 26.352107 24.426997 25.996094 24.726562 C 25.41404 25.216327 25.700674 26.157882 26.509766 26.414062 C 26.867172 26.527228 27.49303 26.539721 27.910156 26.441406 C 28.498281 26.302775 28.96193 25.958336 29.203125 25.480469 C 29.34614 25.197122 29.427416 24.821184 29.408203 24.533203 L 29.392578 24.304688 z M 6.7871094 24.839844 C 6.7577109 24.844136 6.7255611 24.884186 6.7148438 24.957031 C 6.7051837 25.022661 6.7260025 25.054688 6.7734375 25.054688 C 6.8199015 25.054688 6.84375 25.013973 6.84375 24.9375 C 6.84375 24.866217 6.8165079 24.835552 6.7871094 24.839844 z M 6.5058594 26.148438 C 6.4662264 26.148438 6.4335938 26.181073 6.4335938 26.220703 C 6.4335938 26.301073 6.5324184 26.285552 6.5605469 26.201172 C 6.5704569 26.171452 6.5454884 26.148438 6.5058594 26.148438 z M 39.851562 26.482422 C 39.814123 26.519852 39.873264 26.648437 39.927734 26.648438 C 39.953544 26.648438 39.974609 26.618101 39.974609 26.582031 C 39.974609 26.509551 39.89141 26.442569 39.851562 26.482422 z M 7.4355469 26.990234 C 7.4101079 27.005954 7.3996625 27.037247 7.4140625 27.060547 C 7.4530765 27.123667 7.4804688 27.113133 7.4804688 27.033203 C 7.4804688 26.994183 7.4609869 26.974514 7.4355469 26.990234 z M 7.25 27.447266 C 7.22629 27.461916 7.2177689 27.493868 7.2324219 27.517578 C 7.2470749 27.541278 7.2790284 27.547853 7.3027344 27.533203 C 7.3264444 27.518553 7.3349655 27.486601 7.3203125 27.462891 C 7.3056635 27.439181 7.273711 27.432616 7.25 27.447266 z M 33.779297 29.697266 C 33.756947 29.697266 33.740234 29.747965 33.740234 29.810547 C 33.740234 29.923007 33.801992 29.96302 33.851562 29.882812 C 33.884453 29.829593 33.832377 29.697266 33.779297 29.697266 z M 35.222656 29.697266 C 35.083578 29.697266 35.054121 29.775817 35.134766 29.935547 C 35.231206 30.126555 35.332031 30.097713 35.332031 29.878906 C 35.332031 29.716748 35.320622 29.697266 35.222656 29.697266 z M 35.677734 29.890625 C 35.646174 29.859065 35.560547 29.923516 35.560547 29.978516 C 35.560547 30.008696 35.585666 30.00467 35.628906 29.96875 C 35.667056 29.93709 35.689194 29.902075 35.677734 29.890625 z M 33.396484 30.396484 C 33.320724 30.367414 33.241531 30.445012 33.240234 30.550781 C 33.239134 30.641341 33.367992 30.616305 33.421875 30.515625 C 33.460985 30.442535 33.456124 30.419366 33.396484 30.396484 z M 34.240234 30.699219 C 34.215204 30.699219 34.195313 30.719111 34.195312 30.744141 C 34.195312 30.769171 34.215204 30.789063 34.240234 30.789062 C 34.265264 30.789062 34.285156 30.769171 34.285156 30.744141 C 34.285156 30.719111 34.265264 30.699219 34.240234 30.699219 z M 33.308594 30.943359 C 33.270973 30.958728 33.238281 30.9863 33.238281 31.015625 C 33.238281 31.073425 33.2869 31.075251 33.375 31.019531 C 33.41182 30.996241 33.427126 30.962282 33.410156 30.945312 C 33.389336 30.924492 33.346215 30.927991 33.308594 30.943359 z M 10.240234 31.197266 C 10.190564 31.246936 10.236084 31.380859 10.302734 31.380859 C 10.329334 31.380859 10.363536 31.348664 10.378906 31.308594 C 10.411106 31.224694 10.301244 31.13626 10.240234 31.197266 z M 10.660156 31.345703 C 10.626476 31.356923 10.590671 31.402656 10.582031 31.447266 C 10.571971 31.499146 10.589796 31.520853 10.628906 31.507812 C 10.662586 31.496592 10.696428 31.450869 10.705078 31.40625 C 10.715138 31.35437 10.699366 31.332663 10.660156 31.345703 z M 11.175781 31.589844 C 11.163288 31.602336 11.166535 31.634049 11.185547 31.683594 C 11.208897 31.744444 11.228474 31.748088 11.271484 31.705078 C 11.314494 31.662058 11.311806 31.641545 11.259766 31.609375 C 11.217396 31.58319 11.188274 31.577351 11.175781 31.589844 z M 32.738281 31.677734 C 32.712841 31.662014 32.693359 31.681643 32.693359 31.720703 C 32.693359 31.800633 32.720756 31.811167 32.759766 31.748047 C 32.774166 31.724747 32.763651 31.693454 32.738281 31.677734 z M 11.486328 31.820312 C 11.486328 31.881052 11.539943 31.934669 11.570312 31.904297 C 11.583243 31.891367 11.568674 31.855792 11.539062 31.826172 C 11.506412 31.793512 11.486328 31.791772 11.486328 31.820312 z M 27.863281 32.427734 C 27.779041 32.427734 27.742933 32.559335 27.808594 32.625 C 27.853984 32.67039 28.005859 32.661311 28.005859 32.613281 C 28.005859 32.509555 27.942237 32.427734 27.863281 32.427734 z M 12.888672 32.455078 C 12.841602 32.484168 12.883633 32.564453 12.945312 32.564453 C 12.968872 32.564453 12.988281 32.548204 12.988281 32.527344 C 12.988281 32.468094 12.932682 32.427878 12.888672 32.455078 z M 29.853516 32.595703 C 29.818036 32.631183 29.816902 32.812977 29.851562 32.847656 C 29.891033 32.887126 30.11338 32.816113 30.132812 32.757812 C 30.152282 32.699413 29.897636 32.551583 29.853516 32.595703 z M 12.701172 32.626953 C 12.658062 32.583843 12.441406 32.650731 12.441406 32.707031 C 12.441406 32.752241 12.659577 32.725188 12.710938 32.673828 C 12.721417 32.663348 12.716672 32.642483 12.701172 32.626953 z M 26.777344 32.837891 C 26.752314 32.837891 26.730469 32.869183 26.730469 32.908203 C 26.730469 32.947223 26.752314 32.966642 26.777344 32.951172 C 26.802374 32.935702 26.822266 32.904409 26.822266 32.880859 C 26.822266 32.857299 26.802374 32.837891 26.777344 32.837891 z M 23.162109 32.927734 C 23.122469 32.927734 23.089844 32.96037 23.089844 33 C 23.089844 33.08037 23.188668 33.066802 23.216797 32.982422 C 23.226697 32.952692 23.201739 32.927734 23.162109 32.927734 z M 18.164062 33.023438 C 18.111642 33.033516 18.056522 33.076586 18.046875 33.144531 C 18.031965 33.249522 18.069009 33.267217 18.195312 33.21875 C 18.234903 33.20356 18.265625 33.152632 18.265625 33.103516 C 18.265625 33.037426 18.216483 33.013359 18.164062 33.023438 z M 27.583984 33.494141 C 27.540614 33.450771 27.454004 33.519976 27.486328 33.572266 C 27.505538 33.603346 27.531763 33.603012 27.564453 33.570312 C 27.591253 33.543523 27.599414 33.509581 27.583984 33.494141 z M 21.958984 33.509766 C 21.902194 33.452976 21.755508 33.550257 21.796875 33.617188 C 21.831515 33.673237 21.941654 33.667042 21.978516 33.607422 C 21.995336 33.580212 21.985824 33.536556 21.958984 33.509766 z M 24.287109 33.582031 C 24.242429 33.626711 24.358728 33.84819 24.410156 33.816406 C 24.435076 33.800996 24.455078 33.761516 24.455078 33.728516 C 24.455078 33.654296 24.326788 33.542355 24.287109 33.582031 z M 25.275391 33.65625 C 25.250361 33.65625 25.228516 33.678095 25.228516 33.703125 C 25.228516 33.728155 25.250361 33.748047 25.275391 33.748047 C 25.300421 33.748047 25.320313 33.728155 25.320312 33.703125 C 25.320312 33.678095 25.300421 33.65625 25.275391 33.65625 z M 19.722656 33.769531 C 19.685806 33.769531 19.649065 33.805809 19.640625 33.849609 C 19.629855 33.905489 19.654106 33.929688 19.722656 33.929688 C 19.791196 33.929688 19.815447 33.905489 19.804688 33.849609 C 19.796187 33.805809 19.759526 33.769531 19.722656 33.769531 z M 18.748047 33.931641 C 18.785952 33.937048 18.827212 33.96125 18.859375 34 C 18.906355 34.05662 18.906112 34.090637 18.857422 34.181641 C 18.775542 34.33463 18.694142 34.322286 18.660156 34.152344 C 18.644626 34.074684 18.64237 33.993163 18.65625 33.970703 C 18.675655 33.939303 18.710142 33.926233 18.748047 33.931641 z M 17.960938 34.130859 C 17.976562 34.126158 18.007852 34.142088 18.039062 34.179688 C 18.074963 34.222947 18.077025 34.248047 18.046875 34.248047 C 18.020265 34.248047 17.98526 34.225909 17.96875 34.199219 C 17.94426 34.159594 17.945312 34.135561 17.960938 34.130859 z "
     id="circle4" />
</svg>
