<svg xmlns="http://www.w3.org/2000/svg" viewBox="0 0 48 48">
  <path
     d="m 31.301801,35.236773 -0.621745,-2.820786 c -0.03567,-0.165629 -0.124858,-0.290488 -0.265006,-0.372028 -0.152888,-0.08409 -0.308324,-0.09428 -0.461213,-0.03567 l -0.08918,0.03567 -0.214044,0.05351 c -0.09428,0.02293 -0.203851,0.05096 -0.328709,0.07899 -0.124859,0.03058 -0.267555,0.05861 -0.435731,0.08919 -0.165629,0.03058 -0.338903,0.05606 -0.522368,0.07899 -0.183466,0.02293 -0.379673,0.04332 -0.593716,0.06115 -0.214043,0.01784 -0.425539,0.02548 -0.639582,0.02548 -1.500852,0 -2.853913,-0.405153 -4.051536,-1.21546 -1.200172,-0.810308 -2.084376,-1.906006 -2.65261,-3.289644 h 6.864678 c 0.129955,0 0.249718,-0.04332 0.354191,-0.132503 0.107022,-0.08919 0.170725,-0.198755 0.196207,-0.32871 l 0.425538,-1.987546 c 0.03567,-0.175821 0,-0.336354 -0.107021,-0.479049 -0.117215,-0.142696 -0.267555,-0.214044 -0.443376,-0.214044 h -8.138746 c -0.03567,-0.805211 -0.03567,-1.424408 0,-1.862687 h 8.656018 c 0.318517,0 0.509627,-0.152888 0.568234,-0.461213 l 0.425539,-2.020672 c 0.03567,-0.165628 -0.0051,-0.318517 -0.124859,-0.461212 -0.107022,-0.142696 -0.254814,-0.214044 -0.443376,-0.214044 h -8.301827 c 0.591168,-1.32503 1.477919,-2.36467 2.660254,-3.121466 1.182335,-0.756797 2.517559,-1.133921 4.008218,-1.133921 0.04841,-0.02293 0.221688,-0.01784 0.522368,0.01784 0.30068,0.03567 0.473953,0.05096 0.514724,0.04332 0.04077,-0.0051 0.196206,0.01274 0.461212,0.05351 0.265006,0.04077 0.400058,0.06116 0.400058,0.06116 l 0.310872,0.06115 c 0.08919,0.01784 0.157985,0.03313 0.203851,0.04332 l 0.07135,0.01784 c 0.152888,0.04842 0.295584,0.03313 0.425539,-0.04332 0.129954,-0.07644 0.214043,-0.19111 0.249717,-0.346547 l 0.761893,-2.820786 c 0.03567,-0.152888 0.01784,-0.295584 -0.05351,-0.425539 -0.107022,-0.142696 -0.224236,-0.23188 -0.354191,-0.265006 -1.088054,-0.272651 -2.234715,-0.407702 -3.439984,-0.407702 -2.650061,0 -5.01728,0.756797 -7.104203,2.270389 -2.086923,1.513593 -3.52662,3.511332 -4.319091,5.995764 H 13.93881 c -0.165629,0 -0.30068,0.05351 -0.407702,0.160533 -0.107022,0.107022 -0.160533,0.242073 -0.160533,0.407702 v 2.028316 c 0,0.165629 0.05351,0.30068 0.160533,0.407702 0.107022,0.107021 0.242073,0.160532 0.407702,0.160532 h 1.187431 c -0.03567,0.568235 -0.04077,1.187432 -0.01784,1.862688 h -1.169594 c -0.152888,0 -0.28794,0.05606 -0.400058,0.168177 -0.112118,0.112118 -0.168177,0.244621 -0.168177,0.400057 v 2.005383 c 0,0.152888 0.05606,0.285391 0.168177,0.400057 0.112118,0.112118 0.244621,0.168177 0.400058,0.168177 h 1.684318 c 0.744055,2.61184 2.153175,4.691119 4.222261,6.235289 2.069086,1.536526 4.487267,2.308611 7.251995,2.308611 0.224236,0 0.453568,-0.0051 0.6829,-0.01784 0.231881,-0.01274 0.445924,-0.03058 0.647227,-0.05351 0.201303,-0.02293 0.400057,-0.05096 0.593716,-0.07899 0.193658,-0.03058 0.372028,-0.05861 0.53256,-0.08918 0.160533,-0.02803 0.310873,-0.05861 0.45102,-0.08919 0.142696,-0.03058 0.270103,-0.06115 0.382221,-0.09683 0.112118,-0.03567 0.206399,-0.06116 0.282843,-0.07899 0.07644,-0.01784 0.140147,-0.03822 0.186014,-0.06116 l 0.08918,-0.01784 c 0.129955,-0.04841 0.231881,-0.132503 0.30068,-0.257361 0.0739,-0.124859 0.09173,-0.257362 0.05606,-0.400058 z M 46,24 A 22,22 0 0 1 24,46 22,22 0 0 1 2,24 22,22 0 0 1 24,2 22,22 0 0 1 46,24 Z"
     style="fill:#ffffff" />
</svg>
