<?xml version="1.0" encoding="UTF-8"?>
<svg version="1.1" viewBox="0 0 48 48" xmlns="http://www.w3.org/2000/svg">
    <path d="m10 4c-1.108 0-2 0.892-2 2v36c0 1.108 0.892 2 2 2h28c1.108 0 2-0.892 2-2v-36c0-1.108-0.892-2-2-2h-28zm2.2031 2.5586h23.797c0.78875 0 1.4238 0.63508 1.4238 1.4238 0 0.78875-0.63508 1.4238-1.4238 1.4238h-23.797c-0.78875 0-1.4238-0.63508-1.4238-1.4238 0-0.78875 0.63508-1.4238 1.4238-1.4238zm0 4.5703h23.797c0.78875 0 1.4238 0.63508 1.4238 1.4238 0 0.78875-0.63508 1.4238-1.4238 1.4238h-23.797c-0.78875 0-1.4238-0.63508-1.4238-1.4238 0-0.78874 0.63508-1.4238 1.4238-1.4238zm0 4.5684h23.797c0.78875 0 1.4238 0.63508 1.4238 1.4238s-0.63508 1.4238-1.4238 1.4238h-23.797c-0.78875 0-1.4238-0.63508-1.4238-1.4238s0.63508-1.4238 1.4238-1.4238zm0 4.5684h23.797c0.78875 0 1.4238 0.63508 1.4238 1.4238s-0.63508 1.4238-1.4238 1.4238h-23.797c-0.78875 0-1.4238-0.63508-1.4238-1.4238s0.63508-1.4238 1.4238-1.4238zm0 4.5703h23.797c0.78875 0 1.4238 0.63508 1.4238 1.4238 0 0.78874-0.63508 1.4238-1.4238 1.4238h-23.797c-0.78875 0-1.4238-0.63508-1.4238-1.4238 0-0.78875 0.63508-1.4238 1.4238-1.4238zm0 4.5684h23.797c0.78875 0 1.4238 0.63508 1.4238 1.4238s-0.63508 1.4238-1.4238 1.4238h-23.797c-0.78875 0-1.4238-0.63508-1.4238-1.4238s0.63508-1.4238 1.4238-1.4238zm0 4.5684h23.797c0.78875 0 1.4238 0.63508 1.4238 1.4238 0 0.78875-0.63508 1.4238-1.4238 1.4238h-23.797c-0.78875 0-1.4238-0.63508-1.4238-1.4238 0-0.78874 0.63508-1.4238 1.4238-1.4238zm0 4.5703h23.797c0.78875 0 1.4238 0.63508 1.4238 1.4238s-0.63508 1.4238-1.4238 1.4238h-23.797c-0.78875 0-1.4238-0.63508-1.4238-1.4238s0.63508-1.4238 1.4238-1.4238z" fill="#fff"/>
</svg>
