<svg width="48" height="48" viewBox="0 0 48 48" fill="none" xmlns="http://www.w3.org/2000/svg">
<path fill-rule="evenodd" clip-rule="evenodd" d="M45.4737 0H2.52632C1.13107 0 0 1.13107 0 2.52632V45.4737C0 46.8689 1.13107 48 2.52632 48H45.4737C46.8689 48 48 46.8689 48 45.4737V2.52632C48 1.13107 46.8689 0 45.4737 0ZM19.7751 18.3609L17.5124 16.0982L16.2396 16.2396L16.0982 17.5124L18.3609 19.7751L19.7751 18.3609ZM25 13.8V17H23V13.8L24 13L25 13.8ZM29.8644 19.7925L32.1271 17.5298L31.9857 16.257L30.7129 16.1156L28.4501 18.3783L29.8644 19.7925ZM34.2 25H31V23H34.2L35 24L34.2 25ZM28 29.4142L30.2627 31.677L31.5355 31.5355L31.6769 30.2627L29.4142 28L28 29.4142ZM23 34.2V31H25V34.2L24 35L23 34.2ZM18.4287 28.3997L16.1659 30.6624L16.3074 31.9352L17.5802 32.0767L19.8429 29.8139L18.4287 28.3997ZM13.8 23H17V25H13.8L13 24L13.8 23ZM24 38C31.732 38 38 31.732 38 24C38 16.268 31.732 10 24 10C16.268 10 10 16.268 10 24C10 31.732 16.268 38 24 38ZM37 24C37 31.1797 31.1797 37 24 37C16.8203 37 11 31.1797 11 24C11 16.8203 16.8203 11 24 11C31.1797 11 37 16.8203 37 24Z" fill="white"/>
</svg>
