<?xml version="1.0" encoding="utf-8"?>
<!-- Generator: Adobe Illustrator 21.1.0, SVG Export Plug-In . SVG Version: 6.00 Build 0)  -->
<svg version="1.0" id="Layer_1" xmlns="http://www.w3.org/2000/svg" xmlns:xlink="http://www.w3.org/1999/xlink" x="0px" y="0px"
	 viewBox="0 0 48 48" style="enable-background:new 0 0 48 48;" xml:space="preserve">
<style type="text/css">
	.st0{fill:#FFFFFF;}
</style>
<g>
	<path class="st0" d="M41,5H7C5.9,5,5,5.9,5,7v34c0,1.1,0.9,2,2,2h34c1.1,0,2-0.9,2-2V7C43,5.9,42.1,5,41,5z M36.9,29.6
		c0.4,0,0.8,0.1,0.8,0.6c0,0.5-0.4,0.6-0.8,0.6c-0.7,0-1.4,0-2.2,0c0,1.1,0.1,2.2-0.8,3.1c-0.9,0.8-2,0.7-3.1,0.7c0,0.8,0,1.5,0,2.2
		c0,0.4-0.1,0.8-0.6,0.8c-0.5,0-0.6-0.4-0.6-0.8c0-0.7,0-1.4,0-2.2c-0.4,0-0.8,0-1.3,0c0,0.7,0,1.4,0,2.1c0,0.5-0.1,0.9-0.6,0.9
		c-0.5,0-0.6-0.4-0.6-0.9c0-0.7,0-1.4,0-2.1c-0.4,0-0.8,0-1.2,0c0,0.7,0,1.4,0,2.2c0,0.4-0.1,0.8-0.6,0.8c-0.5,0-0.6-0.4-0.6-0.8
		c0-0.7,0-1.4,0-2.2c-0.5,0-0.8,0-1.3,0c0,0.7,0,1.4,0,2.1c0,0.5-0.1,0.9-0.6,0.9c-0.5,0-0.6-0.4-0.6-0.8c0-0.7,0-1.4,0-2.1
		c-0.4,0-0.8,0-1.3,0c0,0.7,0,1.4,0,2.2c0,0.4-0.1,0.8-0.6,0.8c-0.5,0-0.6-0.4-0.6-0.8c0-0.7,0-1.4,0-2.1c-0.4,0-0.8,0-1.3,0
		c0,0.7,0,1.5,0,2.2c0,0.4-0.1,0.8-0.6,0.8c-0.5,0-0.6-0.4-0.6-0.8c0-0.7,0-1.4,0-2.2c-1.1,0-2.2,0.1-3.1-0.8
		c-0.8-0.9-0.7-1.9-0.7-3.1c-0.7,0-1.4,0-2,0c-0.5,0-1,0-1-0.6c0-0.7,0.6-0.6,1-0.6c0.6,0,1.3,0,2,0c0-0.4,0-0.8,0-1.3
		c-0.7,0-1.4,0-2.1,0c-0.5,0-0.9,0-0.9-0.6c0-0.6,0.5-0.6,0.9-0.6c0.7,0,1.4,0,2.1,0c0-0.5,0-0.8,0-1.3c-0.8,0-1.5,0-2.2,0
		c-0.5,0-0.8-0.1-0.8-0.6c0-0.5,0.4-0.6,0.8-0.6c0.7,0,1.5,0,2.2,0c0-0.4,0-0.8,0-1.3c-0.7,0-1.5,0-2.2,0c-0.4,0-0.8-0.1-0.8-0.6
		c0-0.5,0.4-0.6,0.8-0.6c0.7,0,1.4,0,2.2,0c0-0.4,0-0.7,0-1.2c-0.7,0-1.4,0-2.1,0c-0.5,0-0.9-0.1-0.9-0.6c0-0.6,0.4-0.6,0.9-0.6
		c0.7,0,1.4,0,2.1,0c0-0.4,0-0.8,0-1.2c-0.7,0-1.5,0-2.2,0c-0.4,0-0.8-0.1-0.8-0.6c0-0.5,0.4-0.6,0.8-0.6c0.7,0,1.4,0,2.2,0
		c0-1.1-0.1-2.2,0.7-3.1c0.9-0.9,2-0.7,3.1-0.7c0-0.8,0-1.5,0-2.2c0-0.4,0.1-0.8,0.6-0.8c0.5,0,0.6,0.4,0.6,0.8c0,0.7,0,1.4,0,2.2
		c0.5,0,0.8,0,1.3,0c0-0.7,0-1.4,0-2.1c0-0.5,0.1-0.9,0.6-0.9c0.6,0,0.6,0.4,0.6,0.9c0,0.7,0,1.3,0,2.1c0.4,0,0.8,0,1.3,0
		c0-0.7,0-1.5,0-2.2c0-0.3,0.3-0.7,0.5-0.7c0.4-0.1,0.6,0.3,0.6,0.7c0,0.7,0,1.5,0,2.3c0.4,0,0.8,0,1.3,0c0-0.7,0-1.4,0-2.2
		c0-0.4,0.1-0.8,0.6-0.8c0.5,0,0.6,0.4,0.6,0.8c0,0.7,0,1.4,0,2.2c0.4,0,0.8,0,1.2,0c0-0.7,0-1.5,0-2.2c0-0.4,0.1-0.8,0.6-0.8
		c0.5,0,0.6,0.4,0.6,0.8c0,0.7,0,1.4,0,2.1c0.4,0,0.8,0,1.3,0c0-0.7,0-1.4,0-2.1c0-0.4,0.1-0.8,0.6-0.8c0.5,0,0.6,0.4,0.6,0.8
		c0,0.7,0,1.4,0,2.1c3.6,0.4,3.6,0.4,3.9,3.9c0.7,0,1.4,0,2,0c0.5,0,0.9,0.1,0.9,0.6c0,0.5-0.4,0.6-0.9,0.6c-0.7,0-1.3,0-2.1,0
		c0,0.4,0,0.8,0,1.2c0.7,0,1.4,0,2.1,0c0.5,0,0.8,0.2,0.8,0.7c0,0.4-0.3,0.6-0.8,0.6c-0.7,0-1.4,0-2.2,0c0,0.4,0,0.7,0,1.2
		c0.7,0,1.4,0,2.1,0c0.4,0,0.8,0.1,0.8,0.6c0,0.5-0.4,0.6-0.8,0.6c-0.7,0-1.4,0-2.1,0c0,0.4,0,0.8,0,1.3c0.7,0,1.4,0,2.1,0
		c0.5,0,0.9,0.1,0.9,0.6c0,0.5-0.4,0.6-0.8,0.6c-0.7,0-1.4,0-2.1,0c0,0.4,0,0.8,0,1.3c0.7,0,1.4,0,2.1,0c0.4,0,0.8,0.1,0.8,0.6
		c0,0.5-0.4,0.6-0.8,0.6c-0.7,0-1.4,0-2.1,0c0,0.4,0,0.8,0,1.3C35.4,29.6,36.2,29.6,36.9,29.6z"/>
	<path class="st0" d="M31.7,14.6c-5.1,0-10.3,0-15.4,0c-1.3,0-1.7,0.4-1.7,1.7c0,5.2,0,10.3,0,15.5c0,1.1,0.4,1.6,1.6,1.6
		c2.6,0,5.2,0,7.8,0c2.6,0,5.1,0,7.7,0c1.2,0,1.7-0.4,1.7-1.7c0-5.1,0-10.3,0-15.4C33.4,15,33,14.6,31.7,14.6z"/>
</g>
</svg>
