<?xml version="1.0" encoding="UTF-8"?>
<svg version="1.1" viewBox="0 0 48 48" xmlns="http://www.w3.org/2000/svg">
    <path d="m6 8c-1.108 0-2 0.892-2 2v28c0 1.108 0.892 2 2 2h36c1.108 0 2-0.892 2-2v-28c0-1.108-0.892-2-2-2h-36zm2.6992 3h30.602c0.9418 0 1.6992 0.75742 1.6992 1.6992v22.602c0 0.9418-0.75742 1.6992-1.6992 1.6992h-30.602c-0.9418 0-1.6992-0.75742-1.6992-1.6992v-22.602c0-0.9418 0.75742-1.6992 1.6992-1.6992z" fill="#fff"/>
    <path d="m10 14v9h3v-6h6v-3h-6z" fill="#fff"/>
    <path d="m38 34v-9h-3v6h-6v3h6z" fill="#fff"/>
</svg>
