<?xml version="1.0" encoding="UTF-8"?>
<svg xmlns="http://www.w3.org/2000/svg" viewBox="0 0 48 48">
  <path
     style="stroke-width:0.916667"
     d="m 17.84,4.6400001 c 0,-1.4580317 1.18195,-2.64 2.64,-2.64 9.720242,0 17.6,7.8797583 17.6,17.5999999 0,1.45805 -1.18195,2.64 -2.64,2.64 -1.45805,0 -2.64,-1.18195 -2.64,-2.64 0,-6.804142 -5.515858,-12.3199999 -12.32,-12.3199999 -1.45805,0 -2.64,-1.18195 -2.64,-2.64 z"
     fill="#fff" />
  <path
     style="stroke-width:0.916667"
     d="M 30.16,43.36 C 30.16,44.81805 28.97805,46 27.52,46 17.799758,46 9.9200001,38.120242 9.9200001,28.4 c 0,-1.45805 1.1819499,-2.64 2.6399999,-2.64 1.457958,0 2.64,1.18195 2.64,2.64 0,6.804142 5.515858,12.32 12.32,12.32 1.45805,0 2.64,1.18195 2.64,2.64 z"
     fill="#fff" />
  <path
     style="stroke-width:0.916667"
     d="m 4.6400001,30.159908 c -1.4580317,0 -2.64,-1.18195 -2.64,-2.64 0,-9.720241 7.8797583,-17.5999996 17.5999999,-17.5999996 1.45805,0 2.64,1.1819496 2.64,2.6399996 0,1.45805 -1.18195,2.64 -2.64,2.64 -6.804142,0 -12.3199999,5.515859 -12.3199999,12.32 0,1.45805 -1.18195,2.64 -2.64,2.64 z"
     fill="#fff" />
  <path
     style="stroke-width:0.916667"
     d="m 43.36,17.84 c 1.45805,0 2.64,1.18195 2.64,2.64 0,9.720242 -7.879758,17.6 -17.6,17.6 -1.45805,0 -2.64,-1.18195 -2.64,-2.64 0,-1.457958 1.18195,-2.64 2.64,-2.64 6.804142,0 12.32,-5.515858 12.32,-12.32 0,-1.45805 1.18195,-2.64 2.64,-2.64 z"
     fill="#fff" />
</svg>
