<?xml version="1.0" encoding="UTF-8"?>
<svg version="1.1" viewBox="0 0 48 48" xmlns="http://www.w3.org/2000/svg">
    <path d="m7 5c-1.108 0-2 0.892-2 2v34c0 1.108 0.892 2 2 2h34c1.108 0 2-0.892 2-2v-34c0-1.108-0.892-2-2-2h-34zm2 6.1836h12.609v2.2715h-9.9121v5.9043h9.498v2.2695h-9.498v7.2266h10.152v2.2715h-12.85v-19.943zm15.441 4.9824h2.6035l4.6758 11.701 4.6738-11.701h2.6055l-6.5723 16.35c-0.69457 1.7809-1.3703 2.9431-2.0293 3.4863-0.65895 0.54319-1.5403 0.81445-2.6445 0.81445h-1.9648v-2.0566h1.4434c0.67676 0 1.2022-0.16185 1.5762-0.48242s0.78805-1.0763 1.2422-2.2695l0.44141-1.123-6.0508-14.719z" fill="#fff"/>
</svg>
