<svg xmlns="http://www.w3.org/2000/svg" viewBox="0 0 48 48"><defs><style>.cls-1{fill:#fff;}</style></defs><g id="Layer_1" data-name="Layer 1"><path class="cls-1" d="M17.9,20.94c0-.3-.32-.55-.73-.55s-.73.25-.73.55.33.54.73.54S17.9,21.24,17.9,20.94Z"/><path class="cls-1" d="M30.21,20.39c-.41,0-.73.25-.73.55s.32.54.73.54.73-.24.73-.54S30.61,20.39,30.21,20.39Z"/><path class="cls-1" d="M14.69,10.4a15,15,0,0,0-9.41,4.21c-2.82,2.66-2.58,10-1.65,12.29C6,32.77,9.91,31.83,9.91,29.73S9,15.92,14.69,10.4Z"/><path class="cls-1" d="M33.31,10.4a15,15,0,0,1,9.41,4.21c2.82,2.66,2.58,10,1.65,12.29-2.41,5.87-6.28,4.93-6.28,2.83S39,15.92,33.31,10.4Z"/><path class="cls-1" d="M33,10.76a5.53,5.53,0,0,0-2.29-1.68A17.87,17.87,0,0,0,24,7.91a17.86,17.86,0,0,0-5.93.91,7.31,7.31,0,0,0-3,1.94h0c-4.23,4.13-4.68,12-4.67,16.25,1.59,3.15,4,5.17,4,6.56,0,2.5,2,6.49,9.62,6.53h.11c7.61,0,9.62-4,9.62-6.53,0-1.39,2.35-3.39,3.94-6.5C37.65,22.79,37.21,14.91,33,10.76Zm-17.46,12c0-1.71.88-3.1,2-3.1s2,1.39,2,3.1-.89,3.11-2,3.11S15.5,24.49,15.5,22.77ZM27.21,38a3.69,3.69,0,0,1-3.43-2.66A3.71,3.71,0,0,1,20.35,38c-3.12,0-3.7-3.63-3.71-3.66l.58-.09c0,.13.51,3.17,3.13,3.17a3.2,3.2,0,0,0,3-2.52,4.2,4.2,0,0,1-4.08-3.35,1.42,1.42,0,0,1,.23-1.23c1.19-1.53,4.31-1.44,4.31-1.44s2.87-.08,4.16,1.27a1.57,1.57,0,0,1,.35,1.5,4.19,4.19,0,0,1-4.06,3.25,3.22,3.22,0,0,0,3,2.52c2.62,0,3.13-3.17,3.13-3.17l.57.09S30.33,38,27.21,38Zm3.35-12.16c-1.09,0-2-1.39-2-3.11s.89-3.1,2-3.1,2,1.39,2,3.1S31.65,25.88,30.56,25.88Z"/></g></svg>