<?xml version="1.0" encoding="UTF-8"?>
<svg version="1.1" viewBox="0 0 48 48" xmlns="http://www.w3.org/2000/svg">
    <path d="m8.0328 7.9949-0.53283 2.1364 3.3055 13.26 2.7045-10.848-4.548-4.548zm2.6566 0 3.1667 3.1667 0.78788-3.1667zm5.2121 0-1.0404 4.1717 3.6515 3.6515-1.9495-7.8232zm-1.3838 5.5555-2.5581 10.263 6.4091-6.4116z" fill="#fff"/>
    <path d="m40 39.972-2.1364 0.53283-13.26-3.3055 10.848-2.7045 4.548 4.548zm0-2.6566-3.1667-3.1667 3.1667-0.78788zm0-5.2121-4.1717 1.0404-3.6515-3.6515 7.8232 1.9495zm-5.5555 1.3838-10.263 2.5581 6.4116-6.4091z" fill="#fff"/>
    <path d="m15.104 22.495-2.75 2.75 3.8308 5.7146 2.75-2.75zm4.7475 6.6262-2.7525 2.7525 5.654 3.7727 2.7525-2.7525z" fill="#fff"/>
</svg>
