<?xml version="1.0" encoding="utf-8"?>
<!-- Generator: Adobe Illustrator 21.1.0, SVG Export Plug-In . SVG Version: 6.00 Build 0)  -->
<svg version="1.0" id="Layer_1" xmlns="http://www.w3.org/2000/svg" xmlns:xlink="http://www.w3.org/1999/xlink" x="0px" y="0px"
	 viewBox="0 0 48 48" style="enable-background:new 0 0 48 48;" xml:space="preserve">
<style type="text/css">
	.st0{fill:#FFFFFF;}
</style>
<path class="st0" d="M4.2,23.5c0-5.3,0-10.6,0-16c0-2.5,1.2-3.7,3.7-3.7c10.6,0,21.2,0,31.8,0c2.2,0,3.8,1.2,4,3.4
	c0.2,2.7,0.3,5.5,0.3,8.2C44,23,44,30.6,44,38.2c0,0.7,0,1.4-0.1,2.1c-0.2,1.9-1.3,3.1-3.2,3.4c-1,0.2-1.9,0.2-2.9,0.2
	c-9.3,0-18.6,0-28,0c-0.6,0-1.2,0-1.7-0.1C5.3,43.5,4,42.1,4,39.3C4,34,4,28.7,4,23.5C4.1,23.5,4.1,23.5,4.2,23.5z M23.8,13.3
	C23.8,13.3,23.8,13.3,23.8,13.3c-1.9,0-3.8,0-5.7,0c-1.5,0-2.3,0.7-2.3,2c-0.1,1.4,0.6,2.3,2.2,2.3c3.8,0.1,7.6,0.1,11.4,0
	c1.4,0,2.3-1.1,2.2-2.3c-0.1-1.3-0.8-2-2.3-2C27.5,13.3,25.6,13.3,23.8,13.3z M23.5,33.4C23.5,33.4,23.5,33.4,23.5,33.4
	c1.9,0,3.8,0,5.7,0c1.4,0,2.3-0.8,2.3-2c0-1.2-1-2.2-2.3-2.2c-3.7,0-7.5,0-11.2,0c-1.5,0-2.2,0.8-2.2,2.2c0,1.4,0.7,2,2.2,2
	C19.9,33.4,21.7,33.4,23.5,33.4z M21.4,21.2c-1.2,0-2.3,0-3.5,0c-1.4,0-2.1,0.6-2.1,1.8c-0.1,1.5,0.6,2.4,2,2.4
	c2.4,0.1,4.8,0.1,7.2,0c1.2,0,2.2-1.2,2.2-2.3c-0.1-1.1-1-2-2.3-2C23.7,21.2,22.6,21.2,21.4,21.2z"/>
</svg>
