<?xml version="1.0" encoding="UTF-8"?>
<svg version="1.1" viewBox="0 0 48 48" xmlns="http://www.w3.org/2000/svg">
    <path d="m26.668 23.894v2.0657h-10.658c0 3.9353 3.9965 5.5633 9.3965 3.2615l0.41315 2.2122c-6.8366 2.6324-12.227 0.03972-12.197-6.2478 0-2.1325 0-4.9959 2.3871-6.949 4.7553-3.8907 10.658 0 10.658 5.6574zm-1.8899 0c0-6.2779-8.768-7.1824-8.768 0z" fill="#fff"/>
    <path d="m35.563 15.546h-2.4919l-5.2192 16.271h2.4919z" fill="#fff"/>
    <path d="m43 24.618-6.7393-4.1789v1.7774l4.8429 2.9692-4.8429 2.9703v1.8819l6.7393-4.3542z" fill="#fff"/>
    <path d="m5 24.618 6.7393-4.1789v1.7774l-4.8429 2.9692 4.8429 2.9703v1.8819l-6.7393-4.3542z" fill="#fff"/>
</svg>
