<?xml version="1.0" encoding="UTF-8" standalone="no"?>
<svg
   xmlns:dc="http://purl.org/dc/elements/1.1/"
   xmlns:cc="http://creativecommons.org/ns#"
   xmlns:rdf="http://www.w3.org/1999/02/22-rdf-syntax-ns#"
   xmlns:svg="http://www.w3.org/2000/svg"
   xmlns="http://www.w3.org/2000/svg"
   xmlns:sodipodi="http://sodipodi.sourceforge.net/DTD/sodipodi-0.dtd"
   xmlns:inkscape="http://www.inkscape.org/namespaces/inkscape"
   width="48"
   height="48"
   version="1.1"
   id="svg4"
   sodipodi:docname="equalizer.svg"
   inkscape:version="0.92.4 5da689c313, 2019-01-14">
  <metadata
     id="metadata10">
    <rdf:RDF>
      <cc:Work
         rdf:about="">
        <dc:format>image/svg+xml</dc:format>
        <dc:type
           rdf:resource="http://purl.org/dc/dcmitype/StillImage" />
        <dc:title></dc:title>
      </cc:Work>
    </rdf:RDF>
  </metadata>
  <defs
     id="defs8" />
  <sodipodi:namedview
     pagecolor="#ffffff"
     bordercolor="#666666"
     borderopacity="1"
     objecttolerance="10"
     gridtolerance="10"
     guidetolerance="10"
     inkscape:pageopacity="0"
     inkscape:pageshadow="2"
     inkscape:window-width="1250"
     inkscape:window-height="1397"
     id="namedview6"
     showgrid="false"
     inkscape:pagecheckerboard="true"
     inkscape:zoom="4.9166667"
     inkscape:cx="-30"
     inkscape:cy="24"
     inkscape:window-x="1290"
     inkscape:window-y="23"
     inkscape:window-maximized="0"
     inkscape:current-layer="svg4" />
  <path
     d="M 12.020816,45.890796 H 0.02081531 v -4 H 12.020816 Z m 18,-4 h -12 v 4 h 12 z m 18,0 h -12 v 4 h 12 z m -36,-8 H 0.02081531 v 4 H 12.020816 Z m 18,0 h -12 v 4 h 12 z m 18,0 h -12 v 4 h 12 z m 0,-8 h -12 v 4 h 12 z m -36,0 H 0.02081531 v 4 H 12.020816 Z m 18,0 h -12 v 4 h 12 z m -18,-8 H 0.02081531 v 4 H 12.020816 Z m 18,0 h -12 v 4 h 12 z m 0,-7.9999997 h -12 v 3.9999997 h 12 z m 0,-8 h -12 v 4 h 12 z"
     style="fill:#ffffff"
     id="path2" />
</svg>
