<?xml version="1.0" encoding="UTF-8" standalone="no"?>
<svg
   width="48"
   height="48"
   >
  <path
     d="M 12.020816,45.890796 H 0.02081531 v -4 H 12.020816 Z m 18,-4 h -12 v 4 h 12 z m 18,0 h -12 v 4 h 12 z m -36,-8 H 0.02081531 v 4 H 12.020816 Z m 18,0 h -12 v 4 h 12 z m 18,0 h -12 v 4 h 12 z m 0,-8 h -12 v 4 h 12 z m -36,0 H 0.02081531 v 4 H 12.020816 Z m 18,0 h -12 v 4 h 12 z m -18,-8 H 0.02081531 v 4 H 12.020816 Z m 18,0 h -12 v 4 h 12 z m 0,-7.9999997 h -12 v 3.9999997 h 12 z m 0,-8 h -12 v 4 h 12 z"
     style="fill:#ffffff" />
</svg>
