<?xml version="1.0" encoding="UTF-8"?>
<svg version="1.1" viewBox="0 0 48 48" xmlns="http://www.w3.org/2000/svg">
    <path d="m28.732 6.8649c-2.1869 5.7837-4.6119 10.327-9.4207 2.4138-3.4836 6.1503-9.166 10.935-14.311 16.053 3.8266 0.98881 9.7253 9.9098 14.845 14.769 1.3062 1.2397 2.919 1.3895 4.2379 0.3181 6.4989-5.2795 11.834-14.758 18.917-16.526-3.7128-2.653-11.282-12.058-14.268-17.027zm3.9482 14.369c-1.3702 4.4611-3.7878 8.5344-8.0796 9.8935-2.9792 0.94343-6.1559-2.2052-9.0584-7.4158 0 0 5.8703-4.8708 9.015-5.1867 2.8921-0.07117 5.631 1.3148 8.123 2.709z" fill="#fff"/>
</svg>
