<?xml version="1.0" encoding="UTF-8"?>
<svg version="1.1" viewBox="0 0 48 48" xmlns="http://www.w3.org/2000/svg">
    <path d="m34.387 5a0.54364 0.54364 0 0 0-0.47351 0.28878l-2.5311 4.5929a17.395 17.395 0 0 0-7.3894-1.6711 17.395 17.395 0 0 0-7.969 1.962l-2.6287-4.4931a0.54364 0.54364 0 0 0-0.49687-0.27604 0.54364 0.54364 0 0 0-0.44166 0.82387l2.6202 4.4782a17.395 17.395 0 0 0-8.4234 13.813h34.694a17.395 17.395 0 0 0-8.9883-14.154l2.5056-4.5504a0.54364 0.54364 0 0 0-0.47776-0.81325zm-18.272 9.9119a2.1743 2.1743 0 0 1 2.1743 2.1743 2.1743 2.1743 0 0 1-2.1743 2.1743 2.1743 2.1743 0 0 1-2.1743-2.1743 2.1743 2.1743 0 0 1 2.1743-2.1743zm15.22 0a2.1743 2.1743 0 0 1 2.1743 2.1743 2.1743 2.1743 0 0 1-2.1743 2.1743 2.1743 2.1743 0 0 1-2.1743-2.1743 2.1743 2.1743 0 0 1 2.1743-2.1743z" fill="#fff"/>
    <path d="m11.382 24.518v18.482h12.502v-18.482zm2.9897 7.0666h6.523v4.3487h-6.523z" fill="#fff"/>
    <path d="m24.101 24.518v18.482h12.502v-18.482zm2.9897 7.0666h6.523v4.3487h-6.523z" fill="#fff"/>
</svg>
