<svg xmlns="http://www.w3.org/2000/svg" viewBox="0 0 48 48"><defs><style>.cls-1{fill:#fff;}</style></defs><g id="Layer_1" data-name="Layer 1"><path id="path1435" class="cls-1" d="M13.88,3.54A1.89,1.89,0,0,0,12,5.41v6.31H23.32a3,3,0,0,1,3,3V34.3a3,3,0,0,1-3,3H12v5.29a1.87,1.87,0,0,0,1.87,1.87h30a1.87,1.87,0,0,0,1.88-1.86h0V5.41a1.87,1.87,0,0,0-1.87-1.87h-30ZM4.11,13.26a1.89,1.89,0,0,0-1.88,1.87V33.89a1.88,1.88,0,0,0,1.88,1.88H22.87a1.88,1.88,0,0,0,1.88-1.88h0V15.13a1.89,1.89,0,0,0-1.88-1.87Zm4.26,5.15h2.91l2,3.89a8.84,8.84,0,0,1,.38.83h0c.13-.3.27-.58.41-.86l2.11-3.85h2.67l-3.7,6L19,30.57H16.1L13.82,26.3a3,3,0,0,1-.27-.57h0a2.77,2.77,0,0,1-.26.55L10.9,30.61H8l4-6.12Z"/></g></svg>