<?xml version="1.0" encoding="UTF-8" standalone="no"?>
<!-- Generator: Adobe Illustrator 23.0.1, SVG Export Plug-In . SVG Version: 6.00 Build 0)  -->

<svg
   xmlns:ns="&amp;ns_sfw;"
   xmlns:dc="http://purl.org/dc/elements/1.1/"
   xmlns:cc="http://creativecommons.org/ns#"
   xmlns:rdf="http://www.w3.org/1999/02/22-rdf-syntax-ns#"
   xmlns:svg="http://www.w3.org/2000/svg"
   xmlns="http://www.w3.org/2000/svg"
   xmlns:sodipodi="http://sodipodi.sourceforge.net/DTD/sodipodi-0.dtd"
   xmlns:inkscape="http://www.inkscape.org/namespaces/inkscape"
   version="1.1"
   id="Livello_1"
   x="0px"
   y="0px"
   viewBox="0 0 48 48"
   enable-background="new 0 0 2289.75 2130"
   xml:space="preserve"
   sodipodi:docname="excel.svg"
   width="48"
   height="48"
   inkscape:version="0.92.2 (5c3e80d, 2017-08-06)"><defs
     id="defs36" /><sodipodi:namedview
     pagecolor="#ffffff"
     bordercolor="#666666"
     borderopacity="1"
     objecttolerance="10"
     gridtolerance="10"
     guidetolerance="10"
     inkscape:pageopacity="0"
     inkscape:pageshadow="2"
     inkscape:window-width="1366"
     inkscape:window-height="745"
     id="namedview34"
     showgrid="false"
     inkscape:zoom="7.0910798"
     inkscape:cx="16.181966"
     inkscape:cy="24.111972"
     inkscape:window-x="-8"
     inkscape:window-y="-8"
     inkscape:window-maximized="1"
     inkscape:current-layer="Livello_1" /><metadata
     id="metadata2"><ns:sfw><ns:slices /><ns:sliceSourceBounds
         bottomLeftOrigin="true"
         height="2130"
         width="2289.75"
         x="-1147.5"
         y="-1041" /></ns:sfw><rdf:RDF><cc:Work
         rdf:about=""><dc:format>image/svg+xml</dc:format><dc:type
           rdf:resource="http://purl.org/dc/dcmitype/StillImage" /><dc:title></dc:title></cc:Work></rdf:RDF></metadata><path
     d="m 14.10819,3.5349 c -1.03588,0 -1.875631,0.8398 -1.875631,1.8756 v 6.3104 h 12.44995 c 1.034478,0 1.872268,0.8412 1.87563,1.8757 v 21.8301 c -0.0034,1.0345 -0.841152,1.8723 -1.87563,1.8756 h -12.44995 v 1.0233 4.2639 c 0,1.0359 0.839751,1.8756 1.875631,1.8756 h 30.016178 c 1.03588,0 1.87563,-0.8397 1.87563,-1.8756 V 34.2326 24 13.7675 5.4105 c 0,-1.0358 -0.83975,-1.8756 -1.87563,-1.8756 H 29.627907 Z M 3.8756331,12.7442 c -1.0358807,0 -1.8756311,0.8398 -1.8756311,1.8756 v 18.7604 c 0,1.0359 0.8397504,1.8756 1.8756311,1.8756 H 22.635997 c 1.035881,0 1.875593,-0.8397 1.875593,-1.8756 V 14.6198 c 0,-1.0358 -0.839712,-1.8756 -1.875593,-1.8756 z m 4.2639033,5.1582 h 2.9080816 l 1.972838,3.8884 c 0.182149,0.3694 0.306981,0.6436 0.374525,0.8247 h 0.02556 c 0.129613,-0.2947 0.266062,-0.5808 0.409318,-0.8585 l 2.108926,-3.8525 h 2.669682 l -3.707275,6.0444 3.801404,6.1477 h -2.840525 l -2.278831,-4.268 c -0.107341,-0.1816 -0.198389,-0.3724 -0.27214,-0.57 h -0.03378 c -0.06676,0.1936 -0.155309,0.379 -0.263995,0.5526 l -2.34635,4.2854 H 7.8090349 l 3.9456751,-6.114 z"
     id="path4"
     inkscape:connector-curvature="0"
     style="stroke-width:0.99999988;fill:#ffffff;fill-opacity:1" /><linearGradient
     id="SVGID_1_"
     gradientUnits="userSpaceOnUse"
     x1="203.5132"
     y1="1729.0183"
     x2="967.98682"
     y2="404.98169"
     gradientTransform="matrix(1,0,0,-1,0,2132)"><stop
       offset="0"
       style="stop-color:#18884F"
       id="stop18" /><stop
       offset="0.5"
       style="stop-color:#117E43"
       id="stop20" /><stop
       offset="1"
       style="stop-color:#0B6631"
       id="stop22" /></linearGradient></svg>