<?xml version="1.0" encoding="UTF-8" standalone="no"?>
<svg
   xmlns:dc="http://purl.org/dc/elements/1.1/"
   xmlns:cc="http://creativecommons.org/ns#"
   xmlns:rdf="http://www.w3.org/1999/02/22-rdf-syntax-ns#"
   xmlns:svg="http://www.w3.org/2000/svg"
   xmlns="http://www.w3.org/2000/svg"
   xmlns:sodipodi="http://sodipodi.sourceforge.net/DTD/sodipodi-0.dtd"
   xmlns:inkscape="http://www.inkscape.org/namespaces/inkscape"
   width="48"
   height="48"
   viewBox="0 0 48 48"
   version="1.1"
   id="svg4"
   sodipodi:docname="f.lux.svg"
   inkscape:version="0.92.4 (5da689c313, 2019-01-14)">
  <metadata
     id="metadata10">
    <rdf:RDF>
      <cc:Work
         rdf:about="">
        <dc:format>image/svg+xml</dc:format>
        <dc:type
           rdf:resource="http://purl.org/dc/dcmitype/StillImage" />
        <dc:title></dc:title>
      </cc:Work>
    </rdf:RDF>
  </metadata>
  <defs
     id="defs8">
    <inkscape:path-effect
       effect="spiro"
       id="path-effect834"
       is_visible="true" />
  </defs>
  <sodipodi:namedview
     pagecolor="#ffffff"
     bordercolor="#666666"
     borderopacity="1"
     objecttolerance="10"
     gridtolerance="10"
     guidetolerance="10"
     inkscape:pageopacity="0"
     inkscape:pageshadow="2"
     inkscape:window-width="1920"
     inkscape:window-height="1027"
     id="namedview6"
     showgrid="false"
     inkscape:pagecheckerboard="true"
     inkscape:zoom="13.906433"
     inkscape:cx="24.359037"
     inkscape:cy="22.753953"
     inkscape:window-x="-8"
     inkscape:window-y="-8"
     inkscape:window-maximized="1"
     inkscape:current-layer="svg4" />
  <path
     style="display:inline;fill:#ffffff"
     d="M 24 2 A 22 22 0 0 0 2 24 A 22 22 0 0 0 2.2460938 27.097656 A 22 22 0 0 0 24 46 A 22 22 0 0 0 42.585938 35.757812 A 22 22 0 0 0 42.599609 35.736328 A 22 22 0 0 0 43.666016 33.845703 A 22 22 0 0 0 43.667969 33.84375 A 22 22 0 0 0 43.689453 33.794922 A 22 22 0 0 0 44.541016 31.861328 A 22 22 0 0 0 44.693359 31.40625 A 22 22 0 0 0 45.224609 29.767578 A 22 22 0 0 0 45.337891 29.267578 A 22 22 0 0 0 45.691406 27.648438 A 22 22 0 0 0 45.800781 26.746094 A 22 22 0 0 0 45.949219 25.462891 A 22 22 0 0 0 46 24 A 22 22 0 0 0 24 2 z M 16.394531 18.732422 C 19.827955 18.788012 23.09823 20.15843 26.175781 21.681641 C 26.548211 21.865972 26.913297 22.065681 27.283203 22.255859 C 28.440389 20.361009 30.521629 19.089844 32.898438 19.089844 C 36.526156 19.089844 39.480469 22.044156 39.480469 25.671875 C 39.480469 27.204491 38.949011 28.614135 38.066406 29.734375 C 39.57969 31.247848 40.912801 32.932688 42.003906 34.761719 A 21 21 0 0 1 24 45 A 21 21 0 0 1 3.1015625 25.896484 C 4.1907589 24.453 5.4439334 23.139722 6.8808594 22.042969 C 9.600416 19.967229 12.973769 18.677035 16.394531 18.732422 z M 32.898438 20.390625 C 31.012605 20.390625 29.366167 21.371869 28.431641 22.851562 C 31.154783 24.315323 33.779035 25.963408 36.138672 27.955078 C 36.47258 28.236916 36.798508 28.52835 37.121094 28.824219 C 37.779132 27.943227 38.181641 26.859992 38.181641 25.671875 C 38.181641 22.746728 35.823583 20.390625 32.898438 20.390625 z "
     id="circle2" />
</svg>
