<?xml version="1.0" encoding="UTF-8" standalone="no"?>
<svg
   xmlns:dc="http://purl.org/dc/elements/1.1/"
   xmlns:cc="http://creativecommons.org/ns#"
   xmlns:rdf="http://www.w3.org/1999/02/22-rdf-syntax-ns#"
   xmlns:svg="http://www.w3.org/2000/svg"
   xmlns="http://www.w3.org/2000/svg"
   xmlns:sodipodi="http://sodipodi.sourceforge.net/DTD/sodipodi-0.dtd"
   xmlns:inkscape="http://www.inkscape.org/namespaces/inkscape"
   inkscape:version="1.0 (4035a4fb49, 2020-05-01)"
   inkscape:export-ydpi="96"
   inkscape:export-xdpi="96"
   inkscape:export-filename="/home/reno/bitmap.png"
   sodipodi:docname="com.facebook.lite.svg"
   id="svg835"
   version="1.1"
   viewBox="0 0 48 48"
   height="48"
   width="48">
  <metadata
     id="metadata841">
    <rdf:RDF>
      <cc:Work
         rdf:about="">
        <dc:format>image/svg+xml</dc:format>
        <dc:type
           rdf:resource="http://purl.org/dc/dcmitype/StillImage" />
        <dc:title></dc:title>
      </cc:Work>
    </rdf:RDF>
  </metadata>
  <defs
     id="defs839" />
  <sodipodi:namedview
     inkscape:current-layer="svg835"
     inkscape:window-maximized="0"
     inkscape:window-y="16"
     inkscape:window-x="1600"
     inkscape:cy="24"
     inkscape:cx="24"
     inkscape:zoom="19.5625"
     showgrid="false"
     id="namedview837"
     inkscape:window-height="1178"
     inkscape:window-width="1914"
     inkscape:pageshadow="2"
     inkscape:pageopacity="0"
     guidetolerance="10"
     gridtolerance="10"
     objecttolerance="10"
     borderopacity="1"
     bordercolor="#666666"
     pagecolor="#ffffff" />
  <path
     d="M 24 2 A 22 22 0 0 0 2 24 A 22 22 0 0 0 19.701172 45.576172 L 19.595703 28.787109 L 13.347656 28.804688 L 13.316406 21.566406 L 19.603516 21.566406 C 19.660916 13.340224 18.344606 4.697695 34.1875 7.25 L 34.134766 13.0625 C 26.218361 12.746831 27.442574 14.512721 27.136719 21.607422 L 33.861328 21.607422 L 32.853516 28.820312 L 27.019531 28.851562 L 27.019531 45.791016 A 22 22 0 0 0 46 24 A 22 22 0 0 0 24 2 z "
     style="fill:#ffffff"
     id="circle833" />
</svg>
