<svg id="svg4" width="48" height="48" version="1.1" viewBox="0 0 48 48" xmlns="http://www.w3.org/2000/svg">
 <path id="path895" d="m11.814 2.0215c-5.3867 0-9.793 4.4069-9.793 9.7949v24.367c0 5.388 4.4063 9.7949 9.793 9.7949h24.371c5.3867 0 9.793-4.4069 9.793-9.7949v-24.367c0-5.388-4.4063-9.7949-9.793-9.7949zm9.4004 8.9746c0.64945-0.4251 0.05332-0.42982 2.6914-0.42982 2.6783 0 1.829-0.09977 2.6914 0.42982l8.4883 6.6582h-22.355zm-9.8906 7.7617v1.9258l9.5508 7.4941 1.5156 0.99805c1.5177 0.87622 1.5175 0.87592 3.0312 2e-3l1.5156-0.99805 9.5547-7.4961v-1.9258l2.4551 1.9258v16.687h-30.078v-16.687z" fill="#fff"/>
</svg>
