<?xml version="1.0" encoding="UTF-8"?>
<svg version="1.1" viewBox="0 0 48 48" xmlns="http://www.w3.org/2000/svg">
    <path d="m5.5937 34.47-1.4841 1.8824 3.3568 0.42389 0.31778 3.426 2.3146-3.5813-1.6924-2.151z" fill="#fff"/>
    <path d="m9.0526 34.47 6.3345 8.5297h6.3754l-6.9351-8.5297z" fill="#fff"/>
    <path d="m21.703 38.776-1.851 1.1844 2.4582 3.0394h2.8267l0.27741-0.18815c0.28348-0.19152 0.51448-0.43064 0.6899-0.69955-0.68785 0.29429-1.7704 0.09339-2.3194-0.62236z" fill="#fff"/>
    <path d="m25.735 5.0001c-0.35098 0.00473-0.70196 0.23549-1.4039 0.67784-1.4039 0.8847-14.746 13.248-14.746 13.248-0.64732 0.73481-0.59324 1.4544-0.35701 2.1734l0.26293-0.04101 16.003-2.4846 16.497 2.8344 0.19057 0.03377c0.38984-0.92415 0.2004-1.6693-0.2967-2.516 0 0-13.342-12.325-14.746-13.248-0.70196-0.46126-1.0529-0.68257-1.4039-0.67784zm-0.25087 14.823-15.711 2.4412 6.0619 7.9025 9.6586-1.5004 9.977 1.7151 5.9896-7.8108zm0 10.095-8.7926 1.3653 7.6395 9.9601c0.778 1.0144 2.0298 1.0144 2.8078 0l7.4828-9.7551z" fill="#fff"/>
</svg>
