<?xml version="1.0" encoding="utf-8"?>
<!-- Generator: Adobe Illustrator 21.1.0, SVG Export Plug-In . SVG Version: 6.00 Build 0)  -->
<svg version="1.0" id="Layer_1" xmlns="http://www.w3.org/2000/svg" xmlns:xlink="http://www.w3.org/1999/xlink" x="0px" y="0px"
	 viewBox="0 0 48 48" style="enable-background:new 0 0 48 48;" xml:space="preserve">
<style type="text/css">
	.st0{fill:#FFFFFF;}
</style>
<path class="st0" d="M45.9,23.6c0,12.6-9.2,21.9-21.2,22.4c-12,0.5-22.3-9.2-22.7-21C1.7,12.5,11.2,2.2,23.3,2
	C35.8,1.8,45.5,11.2,45.9,23.6z M36,15.1c-0.2-0.1-0.3-0.1-0.3-0.1c-5.6,0-11.1,0-16.7,0c-0.7,0-0.8,0.3-0.8,0.9c0,2.2,0,4.4,0,6.6
	c0,0.8-0.2,1-1,1c-1.4-0.1-2.8,0-4.3,0c-0.9,0-1.2,0.3-1.1,1.1c0.1,1,0.1,2,0,3c0,0.7,0.3,0.9,0.9,0.9c1.5,0,2.9,0,4.4,0
	c0.9,0,1,0.3,1,1.1c-0.1,1.5,0,2.9,0,4.4c0,0.7,0.2,0.9,0.9,0.8c1.1,0,2.3,0,3.4,0c0.6,0,0.8-0.2,0.8-0.8c0-1.5,0-3,0-4.5
	c0-0.8,0.2-1,1-1c1.9,0.1,3.8,0.1,5.8,0c0.4,0,0.9-0.3,1.1-0.7c0.5-1.1,0.9-2.2,1.3-3.3c0.3-0.7,0.1-1-0.7-0.9c-2,0-4.1,0-6.1,0
	c-2.4,0-2.3,0-2.4-2.3c0-0.9,0.2-1.2,1.2-1.2c2.9,0.1,5.9,0,8.8,0c0.4,0,1-0.2,1.1-0.5C34.9,18,35.4,16.5,36,15.1z"/>
</svg>
