<?xml version="1.0" encoding="UTF-8"?>
<svg xmlns="http://www.w3.org/2000/svg" viewBox="0 0 48 48" version="1.1">
   <path d="M8.197 5.986c-.973 0-1.756 1.005-1.756 2.252v31.524c0 1.247.791 2.375 1.756 2.252l.973-.123a1.988 1.988 0 01-.299-.352c-.312-.472-.494-1.107-.494-1.777V8.238c0-.67.18-1.278.492-1.734.102-.149.223-.275.354-.387l-1.026-.13zm1.967 0c-.852 0-1.537 1.005-1.537 2.252v31.524c0 1.247.694 2.374 1.537 2.252l1.186-.172a2.052 2.052 0 01-.217-.319c-.264-.47-.416-1.098-.416-1.761V8.238c0-.662.15-1.264.414-1.718.076-.132.168-.248.265-.354l-1.232-.18zm2.106 0c-.723 0-1.303 1.005-1.303 2.252v31.524c0 1.247.59 2.374 1.303 2.252L24 40V8L12.27 5.986zM30.432 7.58v15.941l2.912-2 2.91 2V7.581h-5.822zM6 8c-1.108 0-2 .892-2 2v28c0 1.108.892 2 2 2h.21c-.005-.08-.019-.157-.019-.238V8.238c0-.081.014-.158.02-.238H6zm18.305 0v32h15.101c1.108 0 2-.892 2-2V10c0-1.108-.892-2-2-2h-2.902v15.521a.25.25 0 01-.39.206l-2.77-1.903-2.77 1.903a.25.25 0 01-.392-.206V8h-5.877zm16.11 0a2.242 2.242 0 011.241 2v28c0 .878-.508 1.63-1.242 2H42c1.108 0 2-.892 2-2V10c0-1.108-.892-2-2-2h-1.586z" fill="#fff"/>
</svg>
