<?xml version="1.0" encoding="UTF-8"?>
<svg version="1.1" viewBox="0 0 48 48" xmlns="http://www.w3.org/2000/svg">
    <defs>
        <style>.cls-1{fill:#fff;}</style>
    </defs>
    <path d="m22.971 3.1992s-0.51484 0.013245-1.5449 1c-1.0301 0.98676-1.0293 1.0013-1.0293 2.002 0 0.33549 0.004478 0.55124 0.0625 0.69922h-11.859l-2.3496-2.3398a1.9024 1.9024 0 0 0-2.6914 2.6895l2.3398 2.3496v8.5195a3.12 3.12 0 0 0 2.8906 2.8809h30.42a3.12 3.12 0 0 0 2.8906-2.9004v-8.5l2.3398-2.3398a1.91 1.91 0 0 0-1.3496-3.2598 1.88 1.88 0 0 0-1.3398 0.56055l-2.3516 2.3398h-11.857c0.058008-0.14798 0.0625-0.36369 0.0625-0.69922 0-1.0008 5.84e-4 -1.0186-1.0293-2.002-1.0299-0.98334-1.5449-1-1.5449-1h-2.0586zm-6.5918 7.2617c5.08 0 5.08 7.6094 0 7.6094s-5.08-7.6094 0-7.6094zm15.24 0c5.08 0 5.08 7.6094 0 7.6094s-5.08-7.6094 0-7.6094zm-22.939 14.09a3.09 3.09 0 0 0-2.8906 2.8887l0.10938 13.66a3.12 3.12 0 0 0 2.8906 2.9004h30.42a3.1 3.1 0 0 0 2.8906-2.9004l-0.099609-13.66a3.12 3.12 0 0 0-2.9004-2.8887h-30.42zm15.32 1.8867a8 8 0 0 1 8 8 8 8 0 0 1-8 8 8 8 0 0 1-7.4102-5h3.418a5 5 0 0 0 3.9922 2 5 5 0 0 0 5-5 5 5 0 0 0-5-5 5 5 0 0 0-3.9922 2h-3.4199a8 8 0 0 1 7.4121-5z" fill="#fff"/>
</svg>
