<?xml version="1.0" encoding="UTF-8" standalone="no"?>
<svg
   xmlns:dc="http://purl.org/dc/elements/1.1/"
   xmlns:cc="http://creativecommons.org/ns#"
   xmlns:rdf="http://www.w3.org/1999/02/22-rdf-syntax-ns#"
   xmlns:svg="http://www.w3.org/2000/svg"
   xmlns="http://www.w3.org/2000/svg"
   id="svg109"
   version="1.1"
   viewBox="0 0 48 48">
  <metadata
     id="metadata115">
    <rdf:RDF>
      <cc:Work
         rdf:about="">
        <dc:format>image/svg+xml</dc:format>
        <dc:type
           rdf:resource="http://purl.org/dc/dcmitype/StillImage" />
        <dc:title></dc:title>
      </cc:Work>
    </rdf:RDF>
  </metadata>
  <defs
     id="defs113" />
  <path
     id="path107"
     d="m 8.1330694,23.03179 c -1.507,0 -3.0114789,1.506044 -3,3 L 5.25,41.25 c 0.011479,1.493956 1.493,3 3,3 h 31.5 c 1.507,0 3.011479,-1.506044 3,-3 L 42.633069,26.03179 c -0.01148,-1.493956 -1.493,-3 -3,-3 z"
     style="fill:#ffffff" />
  <path
     id="path107-5"
     d="m 43.777,3.75 c -0.523601,2.643e-4 -1.025556,0.2089625 -1.395,0.58 l -2.43,2.42 H 8.047 L 5.617,4.33 c -0.7693262,-0.7731148 -2.0206738,-0.7731148 -2.79,0 -0.7720029,0.7697881 -0.7720029,2.0202119 0,2.79 L 5.25,9.55 v 8.827892 c 0,1.494 1.493,3 3,3 h 31.5 c 1.507,0 3,-1.506 3,-3 V 9.55 l 2.423,-2.428 c 0.772003,-0.7697881 0.772003,-2.0202119 0,-2.79 C 44.804011,3.9600415 44.301933,3.7505727 43.778,3.75 Z m -27.67,6.687229 c 5.259998,0 5.259998,7.89 0,7.89 -5.259998,0 -5.259998,-7.89 0,-7.89 z m 15.785,0 c 5.259998,0 5.259998,7.89 0,7.89 -5.259998,0 -5.259998,-7.89 0,-7.89 z"
     style="fill:#ffffff" />
</svg>
