<?xml version="1.0" encoding="UTF-8"?>
<svg version="1.1" viewBox="0 0 48 48" xmlns="http://www.w3.org/2000/svg">
    <defs>
        <style>.cls-1{fill:#fff;}</style>
    </defs>
    <path d="m7.0204 17.886v12.585c0 4.9143 3.1606 8.8704 7.0866 8.8704h13.191a1.5165 1.5165 0 0 0 0.28547 0.109l6.526 1.7492 6.5278 1.7492a1.5165 1.5165 0 0 0 1.8564-1.8564l-1.7492-6.5295-1.7492-6.526a1.5165 1.5165 0 0 0-0.08478-0.2353v-9.9154zm15.867 2.6852c4.4339 0 8.0434 3.6078 8.0434 8.0416s-3.6095 8.0434-8.0434 8.0434c-4.4339 0-8.0434-3.6095-8.0434-8.0434s3.6095-8.0416 8.0434-8.0416zm0 1.3789c-3.6887 0-6.6645 2.974-6.6645 6.6627 0 3.6887 2.9758 6.6645 6.6645 6.6645 3.6887 0 6.6645-2.9758 6.6645-6.6645s-2.9758-6.6627-6.6645-6.6627zm0 2.0675c2.5274 1e-6 4.5952 2.0678 4.5952 4.5952 0 2.5274-2.0678 4.597-4.5952 4.597-2.1252 0-3.9202-1.4645-4.4395-3.4326h1.9377c0.43551 0.94441 1.3853 1.5934 2.5018 1.5934 1.5339 0 2.7578-1.224 2.7578-2.7578s-1.224-2.7561-2.7578-2.7561c-1.1165 0-2.0663 0.64904-2.5018 1.5934h-1.9377c0.51936-1.9681 2.3143-3.4326 4.4395-3.4326z" fill="#fff"/>
    <path d="m6.5186 5c-0.27172 0-0.54267 0.10495-0.75088 0.31315-0.41641 0.41641-0.41641 1.0853 0 1.5018l3.3461 3.3461c-1.1565 1.5611-1.8944 3.4525-2.0519 5.5122h31.807c-0.15756-2.0597-0.89541-3.9511-2.0519-5.5122l3.3461-3.3461c0.41641-0.41641 0.41641-1.0853 0-1.5018-0.41641-0.41641-1.0871-0.41641-1.5035 0l-3.2786 3.2786c-1.8783-1.6901-4.3617-2.7215-7.1005-2.7215h-10.63c-2.7393 0-5.2237 1.0309-7.1022 2.7215l-3.2786-3.2786c-0.20821-0.20821-0.47916-0.31315-0.75088-0.31315zm10.625 3.6298a2.2146 2.2146 0 0 1 0.06402 0 2.2146 2.2146 0 0 1 2.2146 2.2146 2.2146 2.2146 0 0 1-2.2146 2.2146 2.2146 2.2146 0 0 1-2.2146-2.2146 2.2146 2.2146 0 0 1 2.1506-2.2146zm11.517 0a2.2146 2.2146 0 0 1 0.06402 0 2.2146 2.2146 0 0 1 2.2146 2.2146 2.2146 2.2146 0 0 1-2.2146 2.2146 2.2146 2.2146 0 0 1-2.2146-2.2146 2.2146 2.2146 0 0 1 2.1506-2.2146z" fill="#fff" stroke-dashoffset="5.18" stroke-linecap="round" stroke-linejoin="round" stroke-width="14" style="paint-order:stroke markers fill"/>
</svg>
