<?xml version="1.0" encoding="UTF-8" standalone="no"?>
<svg
   xmlns:dc="http://purl.org/dc/elements/1.1/"
   xmlns:cc="http://creativecommons.org/ns#"
   xmlns:rdf="http://www.w3.org/1999/02/22-rdf-syntax-ns#"
   xmlns:svg="http://www.w3.org/2000/svg"
   xmlns="http://www.w3.org/2000/svg"
   xmlns:sodipodi="http://sodipodi.sourceforge.net/DTD/sodipodi-0.dtd"
   xmlns:inkscape="http://www.inkscape.org/namespaces/inkscape"
   width="48"
   height="48"
   viewBox="0 0 48 48"
   id="svg2"
   version="1.1"
   inkscape:version="0.91 r13725"
   sodipodi:docname="feeder.svg">
  <metadata
     id="metadata10">
    <rdf:RDF>
      <cc:Work
         rdf:about="">
        <dc:format>image/svg+xml</dc:format>
        <dc:type
           rdf:resource="http://purl.org/dc/dcmitype/StillImage" />
      </cc:Work>
    </rdf:RDF>
  </metadata>
  <defs
     id="defs8" />
  <sodipodi:namedview
     pagecolor="#ffffff"
     bordercolor="#666666"
     borderopacity="1"
     objecttolerance="10"
     gridtolerance="10"
     guidetolerance="10"
     inkscape:pageopacity="0"
     inkscape:pageshadow="2"
     inkscape:window-width="1366"
     inkscape:window-height="715"
     id="namedview6"
     showgrid="false"
     inkscape:zoom="3.4766083"
     inkscape:cx="-4.9697847"
     inkscape:cy="-9.4670335"
     inkscape:window-x="0"
     inkscape:window-y="27"
     inkscape:window-maximized="1"
     inkscape:current-layer="svg2" />
  <path
     style="fill:#ffffff"
     d="M 24 2 A 22 22 0 0 0 2 24 A 22 22 0 0 0 24 46 A 22 22 0 0 0 46 24 A 22 22 0 0 0 24 2 z M 29.126953 13.380859 C 30.358607 13.383404 31.636632 13.444994 32.96875 13.564453 C 36.250281 13.858729 37.966797 14.567172 37.966797 15.625 C 37.966797 16.716002 36.34985 20.206065 35.496094 20.957031 C 35.318879 21.112912 35.004592 21.288023 34.796875 21.345703 C 34.045574 21.554341 33.757291 21.450425 32.544922 20.525391 C 30.69241 19.111928 28.394291 18.12229 25.970703 17.695312 C 23.531463 17.26558 19.466009 17.741141 16.771484 18.771484 C 15.304123 19.332581 14.973867 19.398148 14.535156 19.214844 C 14.298774 19.116077 14.157964 18.978858 14.115234 18.808594 C 13.801518 17.558637 15.542382 16.218699 19.107422 14.966797 C 22.156446 13.896098 25.43199 13.373259 29.126953 13.380859 z M 24.177734 18.378906 C 24.892427 18.384738 25.515825 18.442715 25.908203 18.556641 C 26.121441 18.618553 26.402751 18.775796 26.533203 18.90625 C 26.928317 19.301363 26.855308 19.767405 26.179688 21.173828 C 25.557586 22.468838 25.191974 23.406817 25.277344 23.492188 C 25.305431 23.520274 25.74175 23.410234 26.246094 23.248047 C 28.654447 22.47356 30.740333 22.456826 31.554688 23.203125 C 31.883394 23.504368 31.911397 23.574932 31.904297 24.068359 C 31.890881 24.996658 30.701412 27.68855 29.935547 28.523438 C 29.254871 29.265458 28.651079 29.189574 27.027344 28.15625 C 25.997815 27.501071 24.805857 26.951172 24.414062 26.951172 C 24.147974 26.951172 24.203792 26.80135 23.414062 29.650391 C 23.101584 30.777696 22.712513 31.963423 22.550781 32.285156 C 22.008996 33.362931 20.979017 34.128294 19.699219 34.404297 C 19.034244 34.547702 16.413051 34.674607 15.822266 34.591797 C 14.48255 34.404001 13.940291 34.298829 13.199219 34.083984 C 10.910993 33.420604 9.7064128 32.380439 10.109375 31.416016 C 10.318432 30.915667 10.666203 30.734245 11.673828 30.595703 C 12.260856 30.514991 12.659179 30.401488 12.855469 30.261719 C 13.281926 29.958055 13.947272 28.597105 14.716797 26.451172 C 16.180776 22.368678 16.690608 21.330553 17.769531 20.240234 C 18.538886 19.462752 19.327237 19.031766 20.482422 18.755859 C 21.540726 18.503089 22.98658 18.369206 24.177734 18.378906 z "
     id="circle4" />
</svg>
