<?xml version="1.0" encoding="utf-8"?>
<!-- Generator: Adobe Illustrator 21.1.0, SVG Export Plug-In . SVG Version: 6.00 Build 0)  -->
<svg version="1.0" id="Layer_1" xmlns="http://www.w3.org/2000/svg" xmlns:xlink="http://www.w3.org/1999/xlink" x="0px" y="0px"
	 viewBox="0 0 48 48" style="enable-background:new 0 0 48 48;" xml:space="preserve">
<style type="text/css">
	.st0{fill:#FFFFFF;}
</style>
<path class="st0" d="M13.6,5c9,0,18,0,27,0C42.3,5,43,5.7,43,7.5c0,11,0,22,0,33c0,1.8-0.7,2.5-2.5,2.5c-11,0-22,0-33,0
	C5.7,43,5,42.3,5,40.6c0-9,0-18,0-27c2.8,0,5.5,0,8.3-0.1c1.3,0,2.2-0.8,2.5-2c0.4-1.2,0-2.3-1.1-2.8c-1.1-0.4-1.3-1.1-1.2-2
	C13.6,6.2,13.6,5.6,13.6,5z M31.5,12.7c2.2,0,4.5-0.1,6.7,0c1.4,0.1,1.5-0.7,1.4-1.7c-0.1-1,0.3-2-1.4-1.9c-4.2,0.1-8.4,0-12.6,0
	c-2.3,0-2.3,0-2.3,2.4c0,1,0.4,1.3,1.3,1.2C27.1,12.7,29.3,12.7,31.5,12.7z M31.6,21.1c2.3,0,4.6-0.1,6.9,0c1.2,0,1.3-0.6,1.2-1.5
	c-0.1-0.8,0.5-1.9-1.1-1.9c-4.6,0.1-9.3,0.1-13.9,0c-1.6,0-1,1.1-1.1,1.9c-0.1,0.9,0,1.5,1.2,1.5C27,21,29.3,21.1,31.6,21.1z
	 M31.7,26.2c-2.3,0-4.6,0.1-6.9,0c-1.3-0.1-1.4,0.6-1.3,1.6c0.1,0.8-0.3,1.8,1.2,1.8c4.6-0.1,9.2-0.1,13.8,0c1.5,0,1.1-1,1.2-1.8
	c0.1-0.9,0-1.6-1.3-1.6C36.2,26.3,33.9,26.2,31.7,26.2z M31.4,37.9c2.3,0,4.7-0.1,7,0c1.2,0,1.3-0.6,1.2-1.5
	c-0.1-0.8,0.5-1.9-1.1-1.9c-4.6,0.1-9.3,0.1-13.9,0c-1.4,0-1.1,0.9-1.1,1.7c0,0.8-0.2,1.7,1.2,1.6C27,37.8,29.2,37.9,31.4,37.9z
	 M16,27.9c0-1.6-1-2.6-2.6-2.6c-1.5,0-2.5,0.9-2.6,2.5c-0.1,1.4,1.2,2.7,2.6,2.7C14.9,30.4,16,29.3,16,27.9z M16,36.2
	c0-1.5-1.1-2.6-2.5-2.5c-1.4,0-2.6,1.2-2.6,2.5c0,1.4,1.2,2.6,2.7,2.6C15.1,38.8,16.1,37.8,16,36.2z M16,19.5c0-1.5-0.9-2.5-2.5-2.6
	c-1.6,0-2.7,1-2.6,2.4c0,1,1.5,2.7,2.5,2.7C14.7,22.1,16,20.8,16,19.5z"/>
</svg>
