<?xml version="1.0" encoding="UTF-8"?>
<svg xmlns="http://www.w3.org/2000/svg" viewBox="0 0 48 48" version="1.1">
   <path d="M 24 2 A 22 22 0 0 0 2 24 A 22 22 0 0 0 24 46 A 22 22 0 0 0 46 24 A 22 22 0 0 0 24 2 z M 11.257812 26.634766 L 36.75 26.634766 C 38.016753 26.635334 38.924281 27.857491 38.558594 29.070312 C 36.623976 35.484133 30.69924 39.886572 24 39.888672 L 23.998047 39.888672 C 17.302087 39.882688 11.382887 35.480994 9.4492188 29.070312 C 9.083537 27.857511 9.9910795 26.635366 11.257812 26.634766 z " style="fill:#fff"/>
</svg>
