<?xml version="1.0" encoding="utf-8"?>
<!-- Generator: Adobe Illustrator 21.1.0, SVG Export Plug-In . SVG Version: 6.00 Build 0)  -->
<svg version="1.0" id="Layer_1" xmlns="http://www.w3.org/2000/svg" xmlns:xlink="http://www.w3.org/1999/xlink" x="0px" y="0px"
	 viewBox="0 0 48 48" style="enable-background:new 0 0 48 48;" xml:space="preserve">
<style type="text/css">
	.st0{fill:#FFFFFF;}
</style>
<path class="st0" d="M37,35.9c-0.6-1.8-2.2-3.1-4.2-3.1h-2.2v-6.6c0-1.2-1-2.2-2.2-2.2c0,0,0,0,0,0H15.2v-4.4h4.4
	c1.2,0,2.2-1,2.2-2.2v0V13h4.4c2.4,0,4.4-2,4.4-4.4c0,0,0,0,0,0V7.7c6.4,2.6,11,8.9,11,16.3C41.6,28.6,39.8,32.7,37,35.9 M21.8,41.4
	C13.1,40.4,6.4,33,6.4,24c0-1.4,0.2-2.7,0.5-3.9l10.5,10.5v2.2c0,2.4,2,4.4,4.4,4.4l0,0 M24,2C11.8,2,2,11.8,2,24
	c0,12.2,9.8,22,22,22s22-9.8,22-22C46,11.8,36.2,2,24,2z"/>
</svg>
