<?xml version="1.0" encoding="UTF-8" standalone="no"?>
<svg
   xmlns:dc="http://purl.org/dc/elements/1.1/"
   xmlns:cc="http://creativecommons.org/ns#"
   xmlns:rdf="http://www.w3.org/1999/02/22-rdf-syntax-ns#"
   xmlns:svg="http://www.w3.org/2000/svg"
   xmlns="http://www.w3.org/2000/svg"
   width="48"
   height="48"
   viewBox="0 0 12.7 12.7"
   version="1.1"
   id="svg8">
  <defs
     id="defs2" />
  <metadata
     id="metadata5">
    <rdf:RDF>
      <cc:Work
         rdf:about="">
        <dc:format>image/svg+xml</dc:format>
        <dc:type
           rdf:resource="http://purl.org/dc/dcmitype/StillImage" />
        <dc:title></dc:title>
      </cc:Work>
    </rdf:RDF>
  </metadata>
  <g
     id="layer1">
    <path
       d="M 5.4336129,7.5229363 H 7.7148934 L 8.3813123,7.9549001 H 5.3329491 L 3.9648597,12.184063 C 2.4532086,11.598343 1.0541133,10.240017 0.46754666,8.7134908 -0.15809593,7.2345361 -0.15809593,5.3762865 0.4811385,3.8913858 1.0804472,2.3640108 2.5198929,0.98529584 4.0519321,0.41868901 5.2573451,-0.0803838 6.8705089,-0.13305197 8.1489781,0.25941038 9.6160328,0.67948105 11.001112,1.731144 11.806844,3.1039126 c 0.900451,1.5052883 1.15317,3.417905 0.606104,5.1364148 C 12.06721,9.3803362 11.354071,10.471925 10.37377,11.253028 L 8.6896747,8.447177 11.033816,9.7541098 c 0.01315,0 0.01998,-0.01444 0.01315,-0.028037 L 7.9765206,7.0752574 11.94742,7.6813657 c 0.01359,0 0.0191,-0.00634 0.0191,-0.013154 L 11.941037,7.6482319 8.1965243,6.3353523 12.087572,5.3953966 c 0.01318,0 0.01318,-0.012303 0.0064,-0.019096 L 8.1026695,5.636243 11.22791,3.270001 c 0.0068,-0.01274 -0.0204,-0.019096 -0.02719,-0.00595 L 7.6902433,5.0441512 9.6283348,1.6249719 c 0,-0.00551 0,-0.019946 -0.012329,-0.01274 L 7.0837004,4.5837335 7.5696032,0.67949802 c 0,-0.007247 -0.013587,-0.0135913 -0.026776,-0.007247 L 6.3781873,4.4635144 5.3583851,0.55885407 c -0.0068,-0.006383 -0.020791,-0.0135913 -0.027188,0 L 5.6119869,4.6092009 3.207106,1.4792716 c -0.00809,-0.00724 -0.013999,0 -0.020796,0.00636 L 5.0054744,4.949403 1.566775,3.0703409 c -0.00638,0 -0.019538,0.00724 -0.019538,0.01315 L 4.6049437,5.5949949 0.70157875,5.1829946 c -0.0139996,0.00724 -0.0139996,0.019096 0,0.025485 L 4.4860166,6.3157834 0.72154162,7.4218136 c -0.007247,0.00555 -0.007247,0.019536 0,0.025482 L 4.6049437,6.9949473 1.5536081,9.5867277 c -0.00638,0 -0.01315,0.013154 0,0.020789 L 1.5943837,9.5939267 4.0383399,8.3141754 4.6121654,7.4018293 H 5.2641417 L 4.8117925,7.0819981 6.3238689,4.6562922 5.4319142,7.5216066 l 0.00167,0.00135"
       id="path38499"
       style="fill:#ffffff;fill-opacity:1;fill-rule:nonzero;stroke:none;stroke-width:0.339793" />
  </g>
</svg>
