<?xml version="1.0" encoding="UTF-8"?>
<svg version="1.1" viewBox="0 0 48 48" xmlns="http://www.w3.org/2000/svg">
    <defs>
        <style>.cls-1{fill:#fff;}</style>
    </defs>
    <path class="cls-1" d="m24 0.5a23.5 23.5 0 0 0-23.5 23.5 23.5 23.5 0 0 0 23.5 23.5 23.5 23.5 0 0 0 23.5-23.5 23.5 23.5 0 0 0-23.5-23.5zm0 4.8958a18.604 18.604 0 0 1 18.604 18.604 18.604 18.604 0 0 1-18.604 18.604 18.604 18.604 0 0 1-18.604-18.604 18.604 18.604 0 0 1 18.604-18.604z"/>
    <path class="cls-1" d="m16.813 12.625v22.75h4.6434v-9.0879h6.8962v-4.3183h-6.8962v-5.0909h9.7305v-4.2533z"/>
</svg>
