<?xml version="1.0" encoding="UTF-8"?>
<svg version="1.1" viewBox="0 0 48 48" xmlns="http://www.w3.org/2000/svg">
    <defs>
        <style>.cls-1{fill:#fff;}</style>
    </defs>
    <path d="m30.705 5.0059c-0.23177-0.0086067-0.47309-0.007681-0.72266 0.0019531l-15.725 2.5312c-1.7946 0.29909-5.9885 0.77166-7.373 1.6289-1.8809 1.1656-1.8758 2.8053-1.8789 4.7695v17.576c0 0.85104-0.10734 2.2141 0.53711 2.8555 0.55503 0.55503 1.5105 0.52282 2.2383 0.53516h20.998c0.66916-3.5566 3.7988-6.2598 7.5449-6.2598a7.688 7.688 0 0 1 1.3691 0.13086v-1.5801h-0.001953c-2.9447 0-7.8361 0.5184-10.148-1.3965-2.5932-2.1492-2.4326-5.8727 0.30859-7.8184 1.3969-0.99287 2.3616-0.95586 3.9805-0.95898h5.8594c0-1.1995 0.29523-4.8814-0.49414-5.6738-0.40702-0.4101-0.83744-0.4078-1.3555-0.49414-0.16477-3.5586-1.6602-5.7186-5.1367-5.8477zm-0.10547 2.4688c2.1492 0.12334 3.1532 1.3222 3.3906 3.3789h-22.816c1.4184-0.82637 4.4517-1.0726 6.166-1.3594l13.26-2.0195zm2.7578 11.34c-1.8308 0.018887-3.6006 0.13235-4.2695 0.50391-1.7823 0.99287-2.0221 3.6305-0.56055 4.9688 0.79554 0.73079 1.6781 0.73459 2.6895 0.75h6.7832v-6.166c-0.91888 0-2.8118-0.075528-4.6426-0.056641zm-2.4375 1.4922c2.7751 0.35769 2.3217 3.0776 0.5918 3.3828-1.9302 0.33918-3.1634-2.4978-0.5918-3.3828z" fill="#fff" stroke-width=".86842"/>
    <path d="m36.325 29.645c-3.68 0-6.6816 2.9967-6.6816 6.6777 0 3.68 3.0016 6.6777 6.6816 6.6777a6.687 6.687 0 0 0 6.6758-6.6777 6.687 6.687 0 0 0-6.6758-6.6777zm-4.1289 2.3711h1.9902c0.097 0 0.17383 0.07783 0.17383 0.17383v1.9902a0.175 0.175 0 0 1-0.17383 0.17578h-1.9902a0.177 0.177 0 0 1-0.17773-0.17578v-1.9902c0-0.096 0.08173-0.17383 0.17773-0.17383zm3.1328 0h1.9941c0.096 0 0.17383 0.07783 0.17383 0.17383v1.9902a0.175 0.175 0 0 1-0.17383 0.17578h-1.9941a0.175 0.175 0 0 1-0.17187-0.17578v-1.9902c0-0.096 0.07588-0.17383 0.17187-0.17383zm3.1387 0h1.9902c0.096 0 0.17188 0.07783 0.17188 0.17383v1.9902a0.174 0.174 0 0 1-0.17188 0.17578h-1.9902a0.175 0.175 0 0 1-0.17383-0.17578v-1.9902c0-0.096 0.07783-0.17383 0.17383-0.17383zm-6.2793 3.1367h1.9941c0.096 0 0.17188 0.07783 0.17188 0.17383v1.9902a0.174 0.174 0 0 1-0.17188 0.17578h-1.9941a0.175 0.175 0 0 1-0.17188-0.17578v-1.9902c0-0.096 0.07588-0.17383 0.17188-0.17383zm3.1387 0h1.9902c0.096 0 0.17188 0.07783 0.17188 0.17383v1.9902a0.174 0.174 0 0 1-0.17188 0.17578h-1.9902a0.175 0.175 0 0 1-0.17383-0.17578v-1.9902c0-0.096 0.07783-0.17383 0.17383-0.17383zm3.1367 0h1.9902c0.096 0 0.17188 0.07783 0.17188 0.17383v1.9902a0.174 0.174 0 0 1-0.17188 0.17578h-1.9902a0.177 0.177 0 0 1-0.17773-0.17578v-1.9902c0-0.096 0.08173-0.17383 0.17773-0.17383zm-6.2754 3.1367h1.9941a0.17 0.17 0 0 1 0.17188 0.17188v1.9922a0.172 0.172 0 0 1-0.17188 0.17383h-1.9941a0.174 0.174 0 0 1-0.17188-0.17383v-1.9922c0-0.097 0.07588-0.17188 0.17188-0.17188zm3.1387 0h1.9902a0.17 0.17 0 0 1 0.17188 0.17188v1.9922a0.172 0.172 0 0 1-0.17188 0.17383h-1.9902a0.174 0.174 0 0 1-0.17383-0.17383v-1.9922c0-0.097 0.07783-0.17188 0.17383-0.17188zm3.1367 0h1.9902a0.17 0.17 0 0 1 0.17188 0.17188v1.9922a0.172 0.172 0 0 1-0.17188 0.17383h-1.9902a0.175 0.175 0 0 1-0.17773-0.17383v-1.9922c0-0.097 0.08173-0.17188 0.17773-0.17188z" color="#000000" color-rendering="auto" dominant-baseline="auto" fill="#fff" image-rendering="auto" shape-rendering="auto" solid-color="#000000" style="font-feature-settings:normal;font-variant-alternates:normal;font-variant-caps:normal;font-variant-ligatures:normal;font-variant-numeric:normal;font-variant-position:normal;isolation:auto;mix-blend-mode:normal;paint-order:stroke markers fill;shape-padding:0;text-decoration-color:#000000;text-decoration-line:none;text-decoration-style:solid;text-indent:0;text-orientation:mixed;text-transform:none;white-space:normal"/>
</svg>
