<?xml version="1.0" encoding="UTF-8" standalone="no"?>
<svg width="48" height="48" viewBox="0 0 48 48" version="1.1" >
    <defs>
        <style>.cls-1{fill:#fff;}</style>
    </defs>
    <path
        class="cls-1"
        d="m 42.644933,32.341341 c -3.390891,0 -9.022254,0.596513 -11.685258,-1.608454 -2.986114,-2.474817 -2.801479,-6.764028 0.355068,-9.004501 1.608453,-1.143316 2.719813,-1.100708 4.583916,-1.104259 0,0 6.746274,0 6.746274,0 0,-1.381209 0.340864,-5.62071 -0.568107,-6.533233 -0.468689,-0.472239 -0.965783,-0.468688 -1.562295,-0.568107 -0.202389,-4.3708755 -2.148156,-6.9096052 -6.746275,-6.7320717 0,0 -18.108421,2.9151008 -18.108421,2.9151008 -2.06649,0.3444149 -6.8954031,0.8876679 -8.4896536,1.8747539 -2.1659092,1.342153 -2.1588078,3.23111 -2.1623585,5.492888 0,0 0,20.238822 0,20.238822 0,0.979985 -0.1242735,2.549382 0.6178167,3.287921 0.6391208,0.639121 1.7398287,0.603614 2.5777873,0.617817 0,0 8.8766751,0 8.8766751,0 0,0 18.818557,0 18.818557,0 1.942216,-0.0036 5.595857,-0.173983 6.543886,-2.261777 0.252097,-0.561006 0.202388,-1.722076 0.202388,-2.354095 0,0 0,-4.260805 0,-4.260805 z M 38.384128,13.522787 c 0,0 -26.274964,0 -26.274964,0 1.633309,-0.95158 5.127168,-1.235634 7.101341,-1.565846 0,0 15.267885,-2.3256889 15.267885,-2.3256889 2.474818,0.1420268 3.632336,1.5232379 3.905738,3.8915349 z M 43,29.855871 c 0,0 0,-7.101341 0,-7.101341 -2.1162,0 -8.720447,-0.340865 -10.261438,0.514847 -2.052288,1.143316 -2.329241,4.18269 -0.646223,5.723681 0.916073,0.841509 1.931565,0.84506 3.096185,0.862813 0,0 7.811476,0 7.811476,0 z m -8.15234,-5.446729 c 3.195604,0.411878 2.673655,3.54357 0.681729,3.895086 -2.22272,0.390574 -3.642988,-2.876043 -0.681729,-3.895086 z"
     id="Auswahl" />
</svg>
