<?xml version="1.0" encoding="UTF-8"?>
<svg version="1.1" viewBox="0 0 48 48" xmlns="http://www.w3.org/2000/svg">
    <defs>
        <style>.cls-1{fill:#fff;}</style>
    </defs>
    <path class="cls-1" d="m42.645 32.341c-3.3909 0-9.0223 0.59651-11.685-1.6085-2.9861-2.4748-2.8015-6.764 0.35507-9.0045 1.6085-1.1433 2.7198-1.1007 4.5839-1.1043h6.7463c0-1.3812 0.34086-5.6207-0.56811-6.5332-0.46869-0.47224-0.96578-0.46869-1.5623-0.56811-0.20239-4.3709-2.1482-6.9096-6.7463-6.7321l-18.108 2.9151c-2.0665 0.34441-6.8954 0.88767-8.4897 1.8748-2.1659 1.3422-2.1588 3.2311-2.1624 5.4929v20.239c0 0.97998-0.12427 2.5494 0.61782 3.2879 0.63912 0.63912 1.7398 0.60361 2.5778 0.61782h27.696c1.9422-0.0036 5.5959-0.17398 6.5439-2.2618 0.2521-0.56101 0.20239-1.7221 0.20239-2.3541v-4.2608zm-4.2608-18.819h-26.275c1.6333-0.95158 5.1272-1.2356 7.1013-1.5658l15.268-2.3257c2.4748 0.14203 3.6323 1.5232 3.9057 3.8915zm4.6159 16.333v-7.1013c-2.1162 0-8.7204-0.34086-10.261 0.51485-2.0523 1.1433-2.3292 4.1827-0.64622 5.7237 0.91607 0.84151 1.9316 0.84506 3.0962 0.86281h7.8115zm-8.1523-5.4467c3.1956 0.41188 2.6737 3.5436 0.68173 3.8951-2.2227 0.39057-3.643-2.876-0.68173-3.8951z"/>
</svg>
