<?xml version="1.0" encoding="UTF-8"?>
<svg viewBox="0 0 48 48" xmlns="http://www.w3.org/2000/svg">
    <defs>
        <style>.cls-1{fill:#fff;}</style>
    </defs>
    <path class="cls-1" d="m 30.130448,2.0000001 c -0.06211,0.013095 -0.121949,0.0352 -0.175956,0.068555 -2.419744,1.4477513 -4.382206,3.5479046 -5.662601,6.0602171 -0.858647,1.6447556 -1.424411,3.4262828 -1.672731,5.2649848 -0.772638,0.103346 -1.532374,0.284732 -2.269153,0.539296 -0.38273,0.127143 -0.585175,0.544824 -0.445604,0.9232 0.100573,0.295134 0.378319,0.495115 0.690115,0.493594 0.07752,0.01226 0.155572,0.01226 0.233085,0 0.805945,-0.291458 1.649451,-0.470049 2.504525,-0.52787 h 0.116544 0.550721 c 2.502972,0.0023 4.90624,0.984999 6.693203,2.737609 -0.896438,-0.217362 -1.827124,-0.252978 -2.73761,-0.105113 -0.309611,0.05229 -0.552446,0.297281 -0.598708,0.60785 -0.04768,0.313163 0.115479,0.621504 0.399901,0.760955 7.389513,4.035683 3.921615,15.303002 -4.458327,14.485565 -0.833858,-0.03333 -1.657874,-0.191529 -2.445111,-0.468457 l -0.550721,-0.221659 -0.292499,-0.14168 c -2.362855,-1.135695 -4.012733,-3.363807 -4.41034,-5.955099 0.1638,-0.538199 1.393029,-2.877005 6.014516,-2.877005 0.768787,-0.147657 1.460662,-0.562009 1.953802,-1.169996 0.604233,-0.444066 1.039507,-1.080022 1.238551,-1.802983 v -0.08226 c -0.0234,-0.514799 -0.280981,-0.643499 -1.357378,-1.169997 -1.368566,-0.609256 -2.650704,-1.396012 -3.813916,-2.339993 L 19.413097,16.869478 C 18.792998,16.26108 18.487885,15.956881 18.183686,15.699482 l -0.361054,-0.2925 c -0.368521,-1.431356 -0.368521,-2.93328 0,-4.364636 0.169203,-0.598263 -0.444926,-1.1165023 -1.007752,-0.852368 -1.649035,0.772052 -3.140363,1.842237 -4.398914,3.158077 -0.234654,-1.237338 -0.329124,-2.49831 -0.281073,-3.7567871 0.01135,-0.065812 0.01135,-0.1329947 0,-0.198807 -0.05384,-0.2373175 -0.218371,-0.4327573 -0.443318,-0.5255848 -0.09677,-0.016825 -0.195729,-0.016825 -0.2925,0 -0.433564,0.039055 -0.843396,0.2149202 -1.169996,0.5027324 -0.7481526,0.53984 -1.4499891,1.1438205 -2.0954834,1.8029835 -0.7265545,0.723663 -1.3909199,1.506344 -1.9880798,2.339994 -1.3742883,1.941424 -2.3500618,4.136265 -2.8678631,6.457833 -0.3243681,1.408107 -0.483224,2.848823 -0.4775963,4.293797 0.00567,0.03487 0.00567,0.07025 0,0.105112 v 0.139394 c -0.1580856,11.121181 8.3094486,20.472146 19.3917816,21.414144 11.082333,0.941999 21.006879,-6.845 22.7281,-17.83331 l 0.06855,-0.584998 0.07084,-0.210233 c 0.424136,-3.666698 -0.100467,-7.381717 -1.521909,-10.788193 -0.886241,-2.256146 -2.435247,-4.188028 -4.444617,-5.543773 -0.278407,-0.147847 -0.621656,-0.09626 -0.84322,0.127967 -0.183527,0.183687 -0.258712,0.448885 -0.198808,0.701542 -0.315899,-0.409499 -0.643589,-0.795598 -0.971188,-1.169997 L 36.588281,10.059724 36.085548,9.4861519 C 35.559049,8.8543536 34.951565,8.1995205 34.389966,7.5209219 33.54392,6.5266807 32.762326,5.47971 32.049973,4.3856967 L 31.581519,3.6247417 C 31.508286,3.5037501 31.441971,3.3783894 31.382711,3.2499771 31.287597,3.0541812 31.207946,2.8511961 31.14734,2.6421273 31.095116,2.3192743 30.848763,2.0641428 30.528064,2.0000001 Z m 0.09369,2.0703458 0.150821,0.2810735 c 0.1638,0.2807992 0.259318,0.3737591 0.505017,0.8066579 0.2457,0.4328988 0.489845,0.8189977 0.747245,1.1699967 a 49.139863,49.139863 0 0 0 3.452861,4.282371 c 0.362699,0.350999 0.725307,0.760498 1.076306,1.169997 l 0.255937,0.303925 0.105112,0.116544 0.235371,0.281074 0.116543,0.153104 0.187382,0.281073 0.127969,0.162246 c 0.0702,0.0936 0.198808,0.176048 0.198808,0.269648 l 0.141679,0.164531 0.187382,0.267363 a 2.141094,2.141094 0 0 0 0.15082,0.187382 l 0.175957,0.258222 0.164531,0.210234 0.17367,0.269647 0.14168,0.221659 0.164531,0.258222 0.150821,0.233086 0.153105,0.269646 0.175957,0.2925 c 0.0468,0.0936 0.15082,0.187473 0.15082,0.281073 l 0.14168,0.258223 0.139393,0.278788 0.139395,0.281072 a 2.9951916,2.9951916 0 0 0 0.130253,0.281075 l 0.139395,0.292499 c 0.0351,0.1053 0.116543,0.198624 0.116543,0.303924 v 0.14168 a 12.261566,12.261566 0 0 1 -3.25177,9.874132 11.337268,11.337268 0 0 0 0.127969,-1.462496 9.4184736,9.4184736 0 0 0 -3.05296,-7.371893 l -0.233083,-0.198808 a 11.992466,11.992466 0 0 0 -1.990366,-2.513666 9.5237734,9.5237734 0 0 1 -3.041534,-7.5707011 10.529971,10.529971 0 0 1 1.544761,-4.785104 z m -2.351421,1.5790386 a 12.951864,12.951864 0 0 0 -0.479881,1.8486862 10.68207,10.68207 0 0 0 0.982614,6.7389083 10.84587,10.84587 0 0 0 -4.222957,-0.888924 14.718559,14.718559 0 0 1 3.720224,-7.6986705 z m -17.2346,5.3586765 a 8.1899771,8.1899771 0 0 0 0.84322,4.094989 0.78389781,0.78389781 0 0 0 0.596425,0.281073 h 0.116543 a 8.9153751,8.9153751 0 0 1 4.035575,0.806659 l 0.411328,0.269647 c 0.163797,0.105299 0.17367,0.129613 0.46617,0.351914 0.292499,0.222299 0.596698,0.526132 1.169996,1.08773 l 0.223945,0.22166 a 15.011058,15.011058 0 0 0 3.450576,2.2006 9.3599738,9.3599738 0 0 1 -5.34725,-0.726678 8.4005765,8.4005765 0 0 0 -8.2608168,0.363339 0.76049787,0.76049787 0 0 0 -0.2559368,0.866071 5.9435834,5.9435834 0 0 0 4.7508266,3.50999 10.120472,10.120472 0 0 0 6.117346,9.254857 l 0.269648,0.139395 a 11.969067,11.969067 0 0 0 6.048791,1.38023 16.918153,16.918153 0 0 0 10.43628,-3.989872 0.91259745,0.91259745 0 0 0 0.235371,-0.127968 16.309754,16.309754 0 0 0 5.20557,-7.371893 18.404049,18.404049 0 0 1 -1.604175,7.874626 16.824553,16.824553 0 0 1 -15.630424,9.524505 H 23.320702 A 19.889944,19.889944 0 0 1 4.4019464,24.7898 3.8726892,3.8726892 0 0 1 4.3311067,24.229938 24.359332,24.359332 0 0 1 4.6121802,21.620297 c 0.0234,-0.1638 0.2353705,-1.042211 0.2353705,-1.229411 v -0.127968 a 16.473554,16.473554 0 0 1 2.5959302,-5.849984 l 0.059414,-0.07084 A 16.871353,16.871353 0 0 1 9.315019,12.178061 14.30906,14.30906 0 0 1 10.63812,11.008064 Z m 5.486645,1.252262 a 10.84587,10.84587 0 0 0 0,2.303431 10.015172,10.015172 0 0 0 -2.339994,-0.502732 13.805961,13.805961 0 0 1 2.339994,-1.800699 z m 24.757314,2.467963 a 13.080563,13.080563 0 0 1 1.38023,2.527375 20.264343,20.264343 0 0 1 1.275114,9.910695 v 0.22166 l -0.09369,0.491307 A 19.655945,19.655945 0 0 1 23.999389,44.259277 19.808045,19.808045 0 0 1 6.332898,33.377394 20.697242,20.697242 0 0 0 9.9594305,37.332988 21.48114,21.48114 0 0 0 23.274998,42.481431 h 0.653554 a 18.298749,18.298749 0 0 0 16.942101,-10.413428 19.328346,19.328346 0 0 0 0.77238,-13.911993 2.7377923,2.7377923 0 0 0 0,-0.303925 18.895447,18.895447 0 0 0 -0.760954,-3.123799 z m -10.226046,4.35321 a 6.6221815,6.6221815 0 0 1 2.047494,0.9232 l 0.258222,0.210235 a 7.9442778,7.9442778 0 0 1 2.584505,6.26131 11.372368,11.372368 0 0 1 -0.642128,3.404873 l -0.01147,0.07998 a 17.620151,17.620151 0 0 1 -5.043326,2.867863 8.9036751,8.9036751 0 0 0 3.146651,-4.750827 9.1727743,9.1727743 0 0 0 -2.339993,-8.996635 z m -18.13952,1.133435 a 7.1720799,7.1720799 0 0 1 3.468858,0.749529 10.69377,10.69377 0 0 0 6.035081,0.820369 1.9304946,1.9304946 0 0 1 -0.489023,0.303924 c -4.843786,0.0585 -6.622912,2.339993 -7.184511,3.50999 a 7.13698,7.13698 0 0 1 0,-1.860112 0.72539797,0.72539797 0 0 0 -0.187382,-0.573572 0.74879791,0.74879791 0 0 0 -0.537011,-0.246796 4.5278873,4.5278873 0 0 1 -3.8733289,-2.036069 7.1720799,7.1720799 0 0 1 2.7673169,-0.667263 z"/>
</svg>
