<svg id="Layer_1" data-name="Layer 1" xmlns="http://www.w3.org/2000/svg" viewBox="0 0 48 48"><defs><style>.cls-1{fill:#fff;}</style></defs><title>firefox send</title><path class="cls-1" d="M24,10.08a14.14,14.14,0,0,0-14.1,12H38.1A14.14,14.14,0,0,0,24,10.08Z"/><path class="cls-1" d="M24,2A22,22,0,1,0,46,24,22,22,0,0,0,24,2ZM40.13,25.87H25.89v9.37l4.41-4.41A1.9,1.9,0,0,1,33,33.52l-7.64,7.64-.14.13h0l-.13.1h0l-.12.09h0l-.15.08h0l-.17.05h0l-.16,0h0l-.14,0h-.38l-.14,0h0l-.16,0h0l-.16-.05h0l-.14-.07h0L23,41.42l0,0-.13-.09,0,0a.86.86,0,0,1-.14-.13L15,33.52a1.9,1.9,0,1,1,2.68-2.69l4.41,4.42V25.87H7.87A1.9,1.9,0,0,1,6,24,17.88,17.88,0,0,1,24,6.29,17.88,17.88,0,0,1,42,24,1.9,1.9,0,0,1,40.13,25.87Z"/></svg>