<?xml version="1.0" encoding="UTF-8"?>
<svg version="1.1" viewBox="0 0 48 48" xmlns="http://www.w3.org/2000/svg">
    <path d="m15 4c-2.216 0-4 1.784-4 4v32c0 2.216 1.784 4 4 4h18c2.216 0 4-1.784 4-4v-7h-4v2h-18v-22h18v2h4v-7c0-2.216-1.784-4-4-4h-18z" fill="#fff"/>
    <path d="m29.343 18.343a8 8 0 0 0 0 11.314 8 8 0 0 0 11.314 0 8 8 0 0 0 0-11.314 8 8 0 0 0-11.314 0zm2.1213 2.1213a5 5 0 0 1 5.8433-0.89355l-6.741 6.741a5 5 0 0 1 0.89769-5.8474zm1.2278 7.9646 6.741-6.741a5 5 0 0 1-0.8977 5.8474 5 5 0 0 1-5.8433 0.89355z" fill="#fff" style="paint-order:stroke markers fill"/>
</svg>
