<svg width="48" height="48" version="1.1" viewBox="0 0 48 48" xmlns="http://www.w3.org/2000/svg">
 <path d="m24 2a22 22 0 0 0 -16.109 7.0449c0.32532 0.38676 0.71504 0.80966 1.2051 1.3477 0.032184 0.011669 0.068181 0.010867 0.10156 0.017578a20.119 20.119 0 0 1 14.803 -6.5293 20.119 20.119 0 0 1 6.9961 1.2832c1.3893 0.028176 3.5245 0.25177 5.8633 1.0195a22 22 0 0 0 -12.859 -4.1836zm6.7832 3.7793c-0.99617-0.0083677-1.5375 0.084263-1.3672 0.12891 4.3543 0.88106 6.0776 1.7064 6.4746 2.2949-1.6198 0.032982-3.1794 0.2279-4.6465 0.66797 5.9241 1.2555 9.2743 4.9854 10.291 9.7031-0.98174-1.9109-1.746-2.167-2.1152-2.3105 0.2802 0.85294 1.0176 4.2846-0.16211 8.9922-0.57757-1.2678-1.0904-1.696-1.6348-1.8789 0.56919 5.1738-0.68641 9.0377-2.3262 10.016 0.1883-1.1748 1.1234-4.2168 0.56445-3.5234-5.543 8.5375-11.382 6.9673-18.021 2.3496 1.9584 0.48622 4.9256 0.44065 6.8984-0.90625 0.57858-0.36024 0.9995-0.69555 1.5117-1.043 0.51222-0.34742 1.2425-0.72031 1.459-0.67773 1.8498 0.36382 1.5901-1.0883 1.1797-1.4023-0.69127-0.92259-2.5133-1.779-4.4336-1.2305-1.8763 0.5246-3.2268 1.9709-6.3184 0.37891-1.6693-1.0538-2.3774-1.9552-2.4453-3.0684-0.067942-1.1131 0.74749-2.1717 1.8926-2.0566 1.0634 0.19134 0.52292-0.48542 1.7949 0.03125 0.12161-0.22066-0.09357-1.4886-0.58398-2.6484 1.7514-2.8439 4.5949-1.7078 4.2617-3.4277 0.38747-1.3592-1.7124-1.3844-3-1.2129-0.7199-0.023413-1.2644-0.042671-2.7168-2.2324 0.82184-3.2974 1.8858-3.469 3.1406-4.4883-0.20186-0.51761-5.0585 0.70884-6.1152 2.6094-3.8292-0.39295-4.6311 0.40727-5.2695 0.17578-1.7154-1.8833-2.294-2.4116-2.6289-4.584-2.0252 1.9409-2.5437 5.1419-2.3301 8.1504 0.0058379 0.082227 0.0014676 0.14884 0.0058593 0.22852-1.7531 1.9754-2.6585 6.0147-2.998 8.127 0.33385-0.83571 0.65419-1.6709 1.123-2.5273-1.0518 3.0991-0.81868 7.9647-0.72461 8.3301 0.14511-1.1793 0.33723-2.2082 0.55469-3.1543a22 22 0 0 0 0.052734 0.58008c-7.798e-4 0.078396-0.0068111 0.14411-0.0058594 0.22656 0.090894 7.8737 7.2002 19.497 20.217 20.26 14.421 0.8445 25.635-8.7586 24.785-28.42l-0.5332 3.4238c-0.20154-1.5162-0.82668-6.2482-1.459-8.0371-1.343-3.7995-2.185-4.2528-2.3125-4.2656 0.47048 1.2913 0.82069 2.5599 0.78516 3.75-1.7019-4.1323-4.8358-5.5588-5.248-5.7344-3.0101-1.282-5.9354-1.5798-7.5957-1.5938zm-28.607 19.438c-0.0089463 0.23818-0.01306 0.48824-0.019531 0.73242-0.0020477-0.058971-0.011046-0.12142-0.011719-0.17969-0.0019445-0.16845 0.0074882-0.30891 0.011719-0.46289 0.0068471-0.028407 0.012627-0.061619 0.019531-0.089844z" fill="#fff"/>
</svg>
