<?xml version="1.0" encoding="UTF-8"?>
<svg viewBox="0 0 48 48" xmlns="http://www.w3.org/2000/svg">
    <defs>
        <style>.cls-1{fill:#fff;}</style>
    </defs>
    <path class="cls-1" d="m 44.043761,29.475501 c -0.904251,1.014227 -1.490792,1.674085 -2.44392,2.651653 -0.831822,0.887025 -2.223711,0.93615 -3.115998,0.109977 -0.138844,-0.127404 -0.261918,-0.270991 -0.366588,-0.427686 -0.554291,-0.85039 -0.45856,-1.968917 0.232172,-2.712751 0.879811,-0.94091 1.454132,-1.588548 2.333944,-2.578336 1.043076,-1.399117 1.125439,-3.293495 0.207733,-4.777863 L 40.69559,21.483883 c -4.429569,-5.026416 -9.159039,-9.78037 -14.162516,-14.2358338 -1.504131,-1.1221891 -3.567002,-1.1221891 -5.071134,0 -5.017105,4.4529588 -9.762749,9.2026828 -14.2113946,14.2236138 -1.1242031,1.498938 -1.1242031,3.559977 0,5.058915 4.6312286,5.205549 14.5413236,14.468006 14.6635196,14.577982 1.458636,0.746223 3.213687,0.604306 4.533472,-0.366588 1.808501,-1.625207 3.531464,-3.152657 5.254428,-4.802303 L 26.178706,30.11092 c -1.715333,-1.722961 -1.5912,-4.544154 0.268831,-6.109799 h 0.07332 c 1.081005,-0.900821 1.67047,-2.261125 1.588547,-3.66588 -0.01149,-0.416057 -0.08566,-0.828003 -0.219952,-1.22196 -1.316816,-3.667652 -6.503728,-3.667652 -7.820544,0 -0.140026,0.39245 -0.214342,0.805314 -0.219953,1.22196 -0.07604,1.403708 0.512325,2.761487 1.588548,3.66588 1.870624,1.554555 2.011715,4.376401 0.30549,6.109799 l -2.15065,2.211748 c -2.045504,1.88594 -4.989835,-0.956471 -3.177095,-3.06712 l 1.686304,-1.722963 c 0.150641,-0.152343 0.150641,-0.397539 0,-0.549882 -1.812188,-1.75528 -2.790048,-4.19993 -2.688312,-6.72078 0.03781,-0.831532 0.189949,-1.653896 0.452126,-2.44392 2.656273,-7.674736 13.510257,-7.674736 16.16653,0 0.262176,0.790024 0.414313,1.612388 0.452125,2.44392 0.104502,2.541761 -0.893238,5.004923 -2.73719,6.757439 -0.14435,0.154873 -0.14435,0.395008 0,0.549882 l 6.1098,6.39085 c 0.560773,0.559948 0.873336,1.321543 0.867591,2.113991 0.0048,0.791093 -0.312885,1.550005 -0.879811,2.101771 -1.002007,0.989788 -2.028453,1.955136 -3.067119,2.908265 l -0.158855,0.171074 -3.164877,2.871606 C 27.924009,45.390754 25.986959,46.055257 24.003619,45.9964 22.005287,46.03326 20.062495,45.33785 18.541458,44.041264 13.775812,39.801063 4.1589867,29.683234 3.9512535,29.451062 c -2.5840113,-3.169266 -2.5840113,-7.718398 0,-10.887663 C 8.5160744,13.406475 13.388355,8.5301137 18.541456,3.9609768 c 3.1629,-2.6146357 7.736982,-2.6146357 10.899883,0 5.153714,4.5682314 10.029877,9.4403142 14.602422,14.5902022 2.590659,3.171487 2.590659,7.728396 0,10.899883 z"/>
</svg>
