<svg width="48" height="48" version="1.1" viewBox="0 0 48 48" xmlns="http://www.w3.org/2000/svg">
 <path d="m 31.73,1.072 c 0,0 -0.8512,0.9747 -1.732,2.514 -0.2244,0.3704 -0.4507,0.8044 -0.6719,1.275 -0.02932,0.06332 -0.0571,0.1308 -0.08594,0.1953 -0.1587,0.3519 -0.3062,0.7251 -0.4453,1.127 -0.1012,0.2863 -0.1933,0.579 -0.2773,0.8809 -0.03359,0.1248 -0.06909,0.2464 -0.09961,0.375 -0.04531,0.1842 -0.08589,0.3697 -0.123,0.5586 v 0.00195 c 0,0.00186 0,0.004 0,0.00586 -0.3279,1.673 -0.3267,3.516 0.3711,5.387 0.06126,0.1642 0.1308,0.3073 0.1953,0.4629 0.06796,0.1736 0.1414,0.3419 0.2168,0.5098 0.03745,0.08074 0.07492,0.1618 0.1133,0.2402 0.1432,0.2995 0.2967,0.587 0.4609,0.8633 0,0.0012 0.0032,0.0047 0.0039,0.0059 0.1604,0.2694 0.3287,0.5244 0.5059,0.7676 0.04654,0.06546 0.09333,0.1297 0.1406,0.1934 0.05006,0.06512 0.09536,0.1383 0.1465,0.2012 a 17.77,17.77 0 0 0 0.0957,0.1074 c 0.6244,0.783 1.311,1.434 2.021,2.047 a 17.77,17.77 0 0 0 0.6328,0.5488 c 1.183,1.7 1.834,3.797 1.834,6.053 0,5.65 -4.581,10.23 -10.23,10.23 a 10.27,10.27 0 0 1 -2.291,-0.2578 c -0.9279,-0.1768 -1.711,-0.4572 -2.381,-0.7832 -1.202,-0.7874 -2.361,-1.67 -3.174,-2.865 0.2722,0.09425 0.5497,0.1739 0.8301,0.2422 0.0092,0.0023 0.01819,0.0055 0.02734,0.0078 0.03103,0.0075 0.06266,0.01043 0.09375,0.01758 2.099,0.4975 4.255,0.2633 5.641,-0.502 1.003,-0.556 1.759,-1.02 2.379,-1.232 0.0131,-0.0042 0.02604,-0.0097 0.03906,-0.01367 0.08227,-0.027 0.1606,-0.04514 0.2383,-0.0625 0.07853,-0.01636 0.1562,-0.02909 0.2305,-0.03516 0.03279,-0.003 0.06559,-0.005 0.09766,-0.0059 0.1088,-0.0017 0.2122,0.0044 0.3086,0.03125 0.0333,0.0077 0.06891,0.0068 0.1016,0.01758 0.7838,0.2612 1.407,-0.4971 0.8477,-1.283 -0.5485,-0.785 -1.976,-1.909 -4.096,-1.598 -1.621,0.2361 -3.106,1.388 -5.23,0.2734 a 4.488,4.488 0 0 1 -0.3984,-0.2344 c -0.14,-0.08253 0.4553,0.1251 0.3164,0.03125 -0.4133,-0.2012 -1.144,-0.639 -1.334,-0.7949 -0.03164,-0.02596 0.3209,0.1004 0.2891,0.07422 -0.6404,-0.4725 -1.032,-0.8904 -1.289,-1.268 -0.2014,-0.3174 -0.3571,-0.6616 -0.4141,-1.027 -0.03295,-0.3013 0.0055,-0.5575 0.02734,-0.7695 0.0039,-0.02642 0.01067,-0.05193 0.01563,-0.07813 0.04928,-0.328 0.2282,-0.6958 0.5176,-0.9824 0.03055,-0.03014 0.05515,-0.06593 0.08789,-0.09375 0.0913,-0.07756 0.199,-0.1372 0.3086,-0.1934 0.03175,-0.01671 0.05876,-0.04002 0.0918,-0.05469 0.2894,0.1419 0.4727,0.252 0.4727,0.252 0,0 -0.1256,-0.2288 -0.1934,-0.3496 0.02372,-0.009 0.04673,-0.0066 0.07031,-0.01563 0.2406,0.104 0.7727,0.3741 1.053,0.5391 0.3647,0.2305 0.4805,0.4355 0.4805,0.4355 0,0 0.09645,-0.04702 0.02539,-0.248 -0.02596,-0.08244 -0.1368,-0.345 -0.498,-0.6094 l 0.02344,0.002 a 4.234,4.234 0 0 1 0.6113,0.3809 c 0.1019,-0.3318 0.2844,-0.677 0.2441,-1.297 -0.02461,-0.4358 -0.01191,-0.5505 -0.09766,-0.7188 -0.07675,-0.1445 0.0426,-0.1991 0.1758,-0.04883 a 1.4,1.4 0 0 0 -0.1133,-0.3438 v -0.0098 -0.002 c 0.01421,-0.04342 0.07988,-0.09854 0.1348,-0.1523 0.05916,-0.05892 0.1418,-0.1223 0.2285,-0.1855 l 0.002,-0.002 c 0.08184,-0.05639 0.1568,-0.1109 0.2598,-0.1719 h 0.002 c 0.5601,-0.3312 1.17,-0.6169 1.838,-0.918 0.5541,-0.2402 1.158,-0.4918 1.254,-0.5469 0.07785,-0.04918 0.2204,-0.1554 0.3809,-0.2949 a 3.276,3.276 0 0 0 0.6523,-0.7168 c 0.115,-0.1644 0.1998,-0.3919 0.2656,-0.6582 0.04975,-0.1722 0.08839,-0.3529 0.0957,-0.5488 0.0026,-0.05696 -0.0032,-0.1099 -0.01758,-0.1621 C 24.02982,15.77662 24.01836,15.7606 24.01098,15.7444 23.99435,15.70774 23.96797,15.67177 23.93285,15.637 23.91563,15.6201 23.89498,15.60273 23.8723,15.58622 23.82217,15.54936 23.7517,15.5141 23.6692,15.47882 l -0.002,-0.002 c -0.02617,-0.011 -0.04827,-0.02232 -0.07813,-0.0332 -0.04413,-0.01625 -0.119,-0.03086 -0.1719,-0.04687 -0.1005,-0.03013 -0.1865,-0.06224 -0.3223,-0.0918 -0.1004,-0.02185 -0.2685,-0.04276 -0.3906,-0.06445 -0.1521,-0.02726 -0.3102,-0.05678 -0.5,-0.08398 -0.3343,-0.04739 -0.7657,-0.0942 -1.232,-0.1426 -0.1864,-0.01943 -0.2839,-0.03887 -0.4941,-0.05859 -0.3024,-0.02792 -0.557,-0.1166 -0.7832,-0.2344 -0.07261,-0.03754 -0.1416,-0.07879 -0.207,-0.123 -0.07476,-0.05073 -0.1509,-0.1007 -0.2168,-0.1582 -0.04525,-0.03956 -0.08374,-0.08293 -0.125,-0.125 -0.4354,-0.4429 -0.6601,-1.002 -0.7539,-1.314 -0.0015,0.0039 -0.0024,0.0079 -0.0039,0.01172 a 2.475,2.475 0 0 1 -0.0059,-0.02149 7.385,7.385 0 0 1 2.855,-3.543 c 0.07456,-0.06095 -0.2972,0.01403 -0.2227,-0.04688 0.08705,-0.07106 0.6544,-0.276 0.7617,-0.3223 0.1311,-0.05527 -0.5607,-0.3179 -1.172,-0.2539 -0.6224,0.06286 -0.7557,0.1296 -1.088,0.2559 0.1379,-0.123 0.5774,-0.2844 0.4746,-0.2832 -0.671,0.09218 -1.506,0.4421 -2.219,0.8379 a 0.4509,0.4509 0 0 1 0.04297,-0.2012 c -0.3322,0.1262 -1.147,0.6361 -1.385,1.068 a 1.84,1.84 0 0 0 0.01367,-0.248 4.132,4.132 0 0 0 -0.6797,0.6367 l -0.01367,0.01172 c -1.927,-0.6955 -3.622,-0.7415 -5.057,-0.4297 -0.0035,-0.0032 -0.0082,-0.0085 -0.01172,-0.01172 0,0 0.01367,-0.0039 0.01367,-0.0039 -0.2133,-0.157 -0.6134,-0.5379 -1.057,-1.244 C 9.60283,9.15669 9.56184,9.07038 9.52499,9.00828 9.40819,8.81028 9.28999,8.61108 9.17149,8.36568 9.16867,8.36076 9.16635,8.3664592 9.16368,8.36373 9.16245,8.3613 9.16101,8.3603 9.15977,8.35787 9.1169,8.28304 9.0912,8.46517 9.06016,8.45357 c -0.2771,-0.6438 -0.4462,-1.685 -0.4062,-2.422 0,0 -0.01951,0.0117 -0.02344,0.01367 0,-0.0066 0,-0.01493 0,-0.02148 0,0 -0.5737,0.2609 -1.049,1.354 -0.07449,0.1659 -0.1215,0.2563 -0.1699,0.3496 C 7.42095,7.6403 7.45939,7.44506 7.44873,7.46176 7.44233,7.4726 7.42729,7.48932 7.41943,7.50082 7.42078,7.49017 7.42717,7.451 7.42529,7.45394 c -0.08258,0.1398 -0.2967,0.335 -0.3906,0.5879 -0.05794,0.1683 -0.1322,0.2804 -0.1895,0.4688 C 6.8488,8.42943 6.85816,8.30624 6.84714,8.33684 6.8334,8.36338 6.82349,8.39395 6.81003,8.42082 c 0,-0.02165 0.00467,-0.08329 0,-0.07031 a 11,11 0 0 0 -0.5723,1.391 c -0.2311,0.7598 -0.4884,1.783 -0.5723,3.068 -0.01781,0.195 -0.027,0.311 -0.0293,0.4297 -0.00802,0.1067 -0.00217,0.2218 -0.01172,0.3164 -0.6058,0.6917 -1.018,1.278 -1.174,1.582 -0.7836,1.21 -1.648,3.097 -2.484,6.08 a 14.87,14.87 0 0 1 1.33,-2.33 c -0.6956,1.584 -1.368,4.071 -1.502,7.9 a 20.44,20.44 0 0 1 0.6465,-2.342 c -0.1201,2.554 0.1766,5.719 1.791,9.291 0.9586,2.101 3.165,6.37 8.557,9.699 0,0 1.834,1.365 4.986,2.389 0.233,0.08453 0.4701,0.1673 0.7109,0.248 -0.07559,-0.03052 -0.1497,-0.06271 -0.2207,-0.0957 a 22.6,22.6 0 0 0 6.469,0.9512 c 8.163,0.0069 10.57,-3.271 10.57,-3.271 0,0 -0.008,0.0064 -0.02344,0.01758 0.1152,-0.1085 0.2253,-0.2209 0.332,-0.3379 -1.288,1.216 -4.227,1.297 -5.326,1.209 0.06008,-0.01765 0.1052,-0.03524 0.1641,-0.05273 -0.02444,0.01051 -0.04983,0.02487 -0.07422,0.03516 0.3426,-0.0761 12.44,-2.814 13.08,-9.734 -0.0033,0.02976 -0.02882,0.1733 -0.09766,0.3711 -0.02159,0.05581 -0.04886,0.115 -0.07813,0.1836 -0.3009,0.7005 -1.142,1.939 -3.512,3.027 4.818,-4.756 7.253,-10.53 6.219,-17 0,0 0.4145,3.332 -1.158,6.74 0.3208,-1.413 0.5078,-2.977 0.4785,-4.631 0,-0.0953 -0.0055,-0.1914 -0.0078,-0.2871 -0.0089,-0.2632 -0.01599,-0.5254 -0.03711,-0.793 -0.02748,-0.3698 -0.07139,-0.7409 -0.127,-1.115 -0.1667,-1.157 -0.4598,-2.346 -0.9082,-3.553 -2.069,-5.978 -6.537,-10.74 -6.537,-12.39 -0.4335,0.5048 -0.7712,1.258 -0.9629,2.16 -3.845,-3.634 -4.992,-5.374 -4.992,-6.428 z m 8.107,37.19 c -0.03139,0.04123 -0.08498,0.1159 -0.09375,0.127 -0.0095,0.0044 -0.01581,0.0093 -0.02539,0.01367 0.04094,-0.04514 0.07856,-0.09495 0.1191,-0.1406 z" fill="#fff"/>
</svg>
