<svg height="48" viewBox="0 0 12.7 12.7" width="48" xmlns="http://www.w3.org/2000/svg"><path d="m6.35.79375c-1.3327481.001-2.6620999.13441-3.96875.39687v7.14375c0 1.39171 1.5875 2.57705 3.96875 3.57188 2.3812499-1.19063 3.96875-2.18281 3.96875-3.57188v-7.14375c-1.3064951-.26349-2.6359502-.39643-3.96875-.39687zm1.1952758 1.21181.0005167.001c.035442.34348.342455.6946.7735962.99632.029682-.13966.082223-.25615.1493448-.33435.0000003.25547.6914687.99262 1.0118246 1.91823.069425.18687.1152589.3712.1410766.55035.044761.36288.030761.67193-.047542 1.05679.2434772-.52768.1793171-1.04387.1793171-1.04387.1601012 1.00179-.2172489 1.896-.9632487 2.6324.1787739-.0845.4806746-.26822.5710245-.55449-.099095 1.07147-1.9721523 1.49509-2.0251994 1.50689.2494566.0407.5855322-.0292.8108035-.18449-.3461211.46596-1.0809145.55104-1.6846518.55604-.3308694-.002-.7935923-.0857-1.0774537-.17053-.4880433-.15854-.7720457-.37-.7720457-.37-.8348766-.51545-1.1765579-1.1764-1.3249839-1.50172-.2499674-.55308-.2955816-1.04322-.2769856-1.43867-.040529.11878-.074105.23999-.1002522.36276.020748-.59287.1248399-.97791.2325438-1.22318-.079373.11381-.1480391.23449-.2056722.36071.1294431-.46188.2631432-.75418.3844729-.94155.024154-.0471.088101-.13785.181901-.24495.011122-.20229.032748-.36869.094568-.59066.070543-.21391.2121228-.42495.3705201-.57567v.003c.0006101-.001.00362-.003.00362-.003.020098.30447.100449.46413.3162596.68574l-.00207.00052c.00054.001.00101.002.00155.002.2221899-.0482.4850455-.0415.7834148.0661.1956353-.19217.4398912-.30772.7513751-.32142.094651-.01.2016834.0303.1813843.0393-.3079998.15083-.4373597.33738-.5245155.60926.070512.20193.1448289.25676.3234944.30076.081831.009.1712801.019.267167.031.070218.0125.1517766.0232.2268595.0501.028256.0112.059258.0306.059428.0734-.0068.0693-.021766.13117-.055811.18707-.042366.0589-.095162.11668-.160197.15658-.014864.008-.1085083.0476-.1943034.0847-.1034304.0466-.1974964.0909-.2842202.14211-.040231.0232-.071474.0454-.097152.0811.00463.15549.00331.28447-.057361.44649 0 0-.017945-.032-.074414-.0677-.043401-.0256-.1260435-.0671-.1632974-.0832-.043481.012-.081374.0233-.1162719.0558-.080916.0841-.1178584.17803-.1002525.29766.00883.0566.032895.11006.064079.15916.08612.11545.2209284.25562.3741372.33952.3288721.17262.5587804-.006.8097697-.0424.3282527-.0481.5491419.12598.63407.24753.0866.12165-.0099.23894-.1312582.19844-.062397-.0102-.1057994-.006-.1570963.0109-.095998.0328-.2131523.10459-.368453.19069-.2752833.14497-.7014768.14225-1.0206095.0362.1258819.18503.3053297.32147.4914429.44339.1037399.0505.2247805.094.3684529.12144.1163749.0265.2356509.0398.3550171.0398.8746696 0 1.5838826-.70907 1.5838826-1.58389-.0033-.3-.1103683-.77317-.381889-1.02216-.2084094-.18063-.3994544-.39238-.5224486-.64802-.1466106-.33065-.1921116-.61282-.1390097-1.02216v-.00051c.09092-.3891.2785779-.75886.5317506-1.07281z" fill="#fff" stroke-width=".264583"/></svg>