<?xml version="1.0" encoding="UTF-8" standalone="no"?>
<svg
   xmlns:dc="http://purl.org/dc/elements/1.1/"
   xmlns:cc="http://creativecommons.org/ns#"
   xmlns:rdf="http://www.w3.org/1999/02/22-rdf-syntax-ns#"
   xmlns:svg="http://www.w3.org/2000/svg"
   xmlns="http://www.w3.org/2000/svg"
   xmlns:sodipodi="http://sodipodi.sourceforge.net/DTD/sodipodi-0.dtd"
   xmlns:inkscape="http://www.inkscape.org/namespaces/inkscape"
   width="48"
   height="48"
   viewBox="0 0 48 48"
   version="1.1"
   id="svg41"
   sodipodi:docname="firefoxpreview.svg"
   inkscape:version="0.92.5 (2060ec1f9f, 2020-04-08)">
  <metadata
     id="metadata47">
    <rdf:RDF>
      <cc:Work
         rdf:about="">
        <dc:format>image/svg+xml</dc:format>
        <dc:type
           rdf:resource="http://purl.org/dc/dcmitype/StillImage" />
        <dc:title></dc:title>
      </cc:Work>
    </rdf:RDF>
  </metadata>
  <defs
     id="defs45" />
  <sodipodi:namedview
     pagecolor="#ffffff"
     bordercolor="#666666"
     borderopacity="1"
     objecttolerance="10"
     gridtolerance="10"
     guidetolerance="10"
     inkscape:pageopacity="0"
     inkscape:pageshadow="2"
     inkscape:window-width="1366"
     inkscape:window-height="741"
     id="namedview43"
     showgrid="false"
     inkscape:zoom="3.992207"
     inkscape:cx="-5.5728884"
     inkscape:cy="24"
     inkscape:window-x="0"
     inkscape:window-y="27"
     inkscape:window-maximized="0"
     inkscape:current-layer="svg41" />
  <circle
     fill="#fff"
     cx="24"
     cy="24"
     r="22"
     id="circle39"
     style="fill:none" />
  <path
     style="fill:none;stroke:none;stroke-width:0.35139751"
     d="m 19.682311,45.623737 c -2.58286,-0.503444 -5.52502,-1.761211 -8.23091,-3.518698 -7.16073,-4.650918 -10.67656001,-12.967531 -9.06592,-21.445192 0.61908,-3.25856 2.89794,-7.214598 5.53684,-9.61179 2.86044,-2.5984392 3.72606,-2.7481832 3.76178,-0.650751 0.0138,0.80943 0.14209,1.760605 0.28513,2.113721 0.24479,0.604322 0.32185,0.59248 1.31215,-0.201638 1.66914,-1.338485 3.24468,-2.11942 3.83336,-1.900053 0.43606,0.162493 0.50391,0.620192 0.34472,2.325074 l -0.19822,2.122753 1.56713,1.565455 c 0.86192,0.860999 2.47811,2.016133 3.59154,2.566964 2.41328,1.193886 2.66236,1.51199 2.05165,2.620128 -0.64583,1.171855 -2.33806,2.077819 -4.34966,2.328658 -2.08114,0.259513 -3.63886,1.007681 -4.37761,2.102556 -0.50594,0.749838 -0.50459,0.948049 0.0147,2.157051 2.09102,4.868161 8.60013,6.706796 13.09369,3.698588 1.77885,-1.190845 3.13197,-3.859243 3.13197,-6.17634 0,-2.394403 -1.35366,-4.999445 -3.22167,-6.199892 -2.02301,-1.300066 -1.81698,-2.006959 0.58496,-2.006959 1.63398,0 1.12682,-0.621266 -1.35276,-1.657115 -1.4993,-0.626335 -2.34477,-0.741975 -4.70798,-0.643943 -2.4571,0.101927 -2.89729,0.03529 -2.99483,-0.453372 -0.0781,-0.391401 0.27555,-0.697818 1.11653,-0.967341 1.00751,-0.322895 1.27332,-0.614223 1.46481,-1.605435 0.61948,-3.2066882 3.08804,-6.9685242 5.87777,-8.9571762 0.94824,-0.675944 1.81514,-1.22899 1.92646,-1.22899 0.11131,0 0.90495,1.051828 1.76363,2.337394 0.85869,1.285567 2.57489,3.467244 3.81379,4.84817 1.71812,1.9150952 2.36162,2.4228622 2.71232,2.1402242 0.60733,-0.489472 1.51761,-0.0062 2.92925,1.555059 2.86897,3.173097 4.10427,6.830133 4.10306,12.146814 -0.001,6.013068 -2.38713,11.173253 -7.1081,15.374098 -4.98191,4.433032 -12.6136,6.50765 -19.20959,5.221978 z m 9.57646,-1.926418 c 8.93524,-2.238567 15.20526,-10.086498 15.19256,-19.015938 -0.002,-1.333182 -0.15863,-3.076847 -0.34829,-3.874813 -0.46555,-1.95865 -1.80482,-5.390291 -2.02155,-5.179832 -0.096,0.09327 0.16033,1.424417 0.56972,2.958103 3.17321,11.887846 -3.7276,22.316325 -15.85087,23.953766 -6.56713,0.886997 -13.81676,-1.522825 -18.62345,-6.190552 l -2.01071,-1.952576 1.13533,1.602437 c 2.46265,3.475858 7.08924,6.577175 11.48933,7.701568 2.64771,0.676595 7.76289,0.675536 10.46793,-0.0021 z m 1.06814,-3.574837 c 6.44973,-2.197769 10.6664,-7.387527 11.46757,-14.113952 l 0.24057,-2.019711 -1.01356,1.897333 c -1.24061,2.322393 -4.68423,5.753797 -7.08064,7.055528 -3.34474,1.816864 -5.71326,2.38623 -9.30256,2.236234 -2.77472,-0.115955 -3.58615,-0.298446 -5.59304,-1.257874 -2.9647,-1.417318 -5.38436,-3.938405 -6.13462,-6.391767 -0.29613,-0.968336 -0.53841,-2.031601 -0.53841,-2.362807 0,-0.391945 -0.38618,-0.684566 -1.10608,-0.838109 -1.337,-0.285165 -3.97447,-2.746485 -3.81791,-3.562924 0.3247,-1.693318 5.50914,-2.375312 8.74413,-1.15026 3.16571,1.198818 6.88471,1.29563 4.20378,0.109431 -0.48996,-0.216785 -1.5731,-0.99881 -2.40698,-1.737832 -1.97808,-1.753051 -2.54476,-2.016356 -4.97141,-2.309945 -1.84722,-0.223485 -2.06276,-0.339776 -2.40699,-1.298689 -0.20794,-0.579273 -0.37808,-1.497449 -0.37808,-2.040392 0,-1.312268 -0.40641,-1.244749 -1.80263,0.29948 -4.24563,4.69571 -5.65995,10.432703 -3.79918,15.410859 2.26165,6.050644 7.52575,10.639323 14.2319,12.405829 3.31721,0.873809 8.35634,0.728569 11.46414,-0.330432 z m 4.51048,-9.695371 c 0.83223,-0.639571 0.89147,-0.89155 0.89147,-3.791578 0,-2.895493 -0.073,-3.207328 -1.0747,-4.59139 -0.59109,-0.816701 -1.61365,-1.790566 -2.27234,-2.164146 l -1.19764,-0.679234 0.9407,1.380402 c 2.18163,3.20135 2.03583,7.660836 -0.34968,10.695672 l -1.22417,1.557385 1.69744,-0.861008 c 0.93359,-0.473548 2.09861,-1.169294 2.58892,-1.546103 z m 4.89809,-5.74573 c 0.64678,-1.218923 0.96388,-2.448878 1.07133,-4.155368 0.14604,-2.319432 0.0937,-2.517493 -1.2146,-4.592789 -0.75197,-1.192854 -2.50538,-3.452335 -3.89646,-5.021069 -1.39109,-1.5687342 -3.15109,-3.6972932 -3.91112,-4.7301322 l -1.38188,-1.877888 -0.6808,1.516086 c -0.92934,2.069571 -0.92437,5.2410482 0.0114,7.2806232 0.39824,0.86797 1.42874,2.3638 2.29002,3.324067 0.86127,0.960266 2.10487,2.353763 2.76356,3.096659 1.6076,1.813125 2.56078,3.942927 2.80873,6.275904 0.18755,1.764657 0.24858,1.873559 0.7131,1.272558 0.2794,-0.361486 0.92141,-1.436381 1.42671,-2.388651 z m -22.92064,-1.515172 c 0.8864,-0.404608 2.1349,-0.753981 2.77444,-0.776383 0.96945,-0.03396 0.88398,-0.08637 -0.51395,-0.315206 -0.92222,-0.150962 -2.57301,-0.600113 -3.66843,-0.998111 -2.20612,-0.801555 -3.57481,-0.902045 -5.01977,-0.36855 -0.92881,0.342919 -0.94014,0.378278 -0.33076,1.032164 0.34704,0.372397 1.37113,0.879219 2.27574,1.126274 1.40663,0.384158 1.66166,0.591288 1.76146,1.430657 0.11216,0.943351 0.13597,0.954734 0.61317,0.293137 0.27306,-0.37858 1.22171,-1.019371 2.1081,-1.423982 z m -1.23331,-9.586244 c 0,-0.889065 -0.22576,-0.893759 -1.37179,-0.02853 -0.39045,0.294789 -0.3571,0.409711 0.1783,0.614307 1.0672,0.407822 1.19349,0.345838 1.19349,-0.58578 z m 12.22506,-0.931835 c -0.35175,-0.979013 -0.4731,-2.254186 -0.36249,-3.8090872 0.0914,-1.285567 0.10974,-2.337394 0.0406,-2.337394 -0.4022,0 -2.07633,3.02195 -2.62431,4.7371142 l -0.64389,2.015358 1.65538,0.391714 c 2.56722,0.607487 2.52012,0.631775 1.93467,-0.997705 z"
     id="path272"
     inkscape:connector-curvature="0" />
</svg>
