<?xml version="1.0" encoding="UTF-8"?>
<svg version="1.1" viewBox="0 0 48 48" xmlns="http://www.w3.org/2000/svg">
    <path d="m13 4c-2.216 0-4 1.784-4 4v32c0 2.216 1.784 4 4 4h18c2.216 0 4-1.784 4-4v-7h-4v4h-18v-26h18v4h4v-7c0-2.216-1.784-4-4-4z" fill="#fff"/>
    <path d="m27.697 18.697a7.4997 7.4997 0 0 0 0 10.606 7.4997 7.4997 0 0 0 10.606 0 7.4997 7.4997 0 0 0 0-10.606 7.4997 7.4997 0 0 0-10.606 0zm1.9886 1.9886a4.6873 4.6873 0 0 1 5.4779-0.83767l-6.3195 6.3195a4.6873 4.6873 0 0 1 0.84155-5.4817zm1.151 7.4665 6.3195-6.3195a4.6873 4.6873 0 0 1-0.84156 5.4817 4.6873 4.6873 0 0 1-5.4779 0.83767z" fill="#fff" stroke-width=".93747" style="paint-order:stroke markers fill"/>
</svg>
