<svg id="Layer_1" data-name="Layer 1" xmlns="http://www.w3.org/2000/svg" viewBox="0 0 48 48"><defs><style>.cls-1{fill:#fff;fill-rule:evenodd;}</style></defs><title>firefox notes</title><g id="Page-1"><path id="Combined-Shape" class="cls-1" d="M34.86,7.71h2.71a2.57,2.57,0,0,1,2.72,2.72V40.29A2.57,2.57,0,0,1,37.57,43H10.43a2.57,2.57,0,0,1-2.72-2.71V10.43a2.57,2.57,0,0,1,2.72-2.72h2.71A2.57,2.57,0,0,1,15.86,5a2.56,2.56,0,0,1,2.71,2.71H29.43a2.72,2.72,0,0,1,5.43,0Zm-21.72,9.5a1.29,1.29,0,0,0,1.36,1.36h19a1.36,1.36,0,1,0,0-2.71h-19A1.28,1.28,0,0,0,13.14,17.21Zm0,5.43A1.29,1.29,0,0,0,14.5,24h19a1.36,1.36,0,1,0,0-2.71h-19A1.28,1.28,0,0,0,13.14,22.64Zm0,5.43a1.29,1.29,0,0,0,1.36,1.36h19a1.36,1.36,0,0,0,0-2.72h-19A1.29,1.29,0,0,0,13.14,28.07Zm0,5.43a1.29,1.29,0,0,0,1.36,1.36h19a1.36,1.36,0,0,0,0-2.72h-19A1.29,1.29,0,0,0,13.14,33.5Z"/></g></svg>