<svg width="48" height="48" version="1.1" viewBox="0 0 48 48" xmlns="http://www.w3.org/2000/svg" xmlns:xlink="http://www.w3.org/1999/xlink">
 <g>
  <path d="m24 2a22 22 0 0 0 -22 22 22 22 0 0 0 22 22 22 22 0 0 0 22 -22 22 22 0 0 0 -22 -22zm5.7168 6.7168c1.422 0.011945 3.9277 0.26528 6.5059 1.3633 0.35306 0.15036 3.0365 1.3728 4.4941 4.9121 0.030431-1.0193-0.26891-2.105-0.67188-3.2109 0.10918 0.010994 0.83023 0.39809 1.9805 3.6523 0.54157 1.5322 1.0774 5.5862 1.25 6.8848l0.45508-2.9336c0.72829 16.84-8.8771 25.065-21.229 24.342-11.149-0.65288-17.237-10.608-17.314-17.352-3.1e-4 -0.02618 0.0021646-0.046296 0.0019531-0.072266a18.843 18.843 0 0 1 -0.12695 -1.9805 18.843 18.843 0 0 1 1.8301 -8.0488c-3.769e-4 -0.00536 3.844e-4 -0.010225 0-0.015626-0.18294-2.5768 0.2615-5.3181 1.9961-6.9805 0.28683 1.8606 0.78273 2.3147 2.252 3.9277 0.54685 0.19827 1.2339-0.48891 4.5137-0.15234 0.90509-1.6278 5.0654-2.6777 5.2383-2.2344-1.0748 0.87303-1.9875 1.0196-2.6914 3.8438 1.244 1.8755 1.7115 1.8921 2.3281 1.9121 1.1028-0.1469 2.9002-0.12509 2.5684 1.0391 0.28534 1.4731-2.1484 0.49978-3.6484 2.9355 0.42004 0.99344 0.60416 2.0805 0.5 2.2695-1.0895-0.44253-0.62829 0.13654-1.5391-0.027343-0.98076-0.098575-1.6773 0.80833-1.6191 1.7617 0.058191 0.95339 0.66402 1.7263 2.0938 2.6289 2.6479 1.3635 3.8051 0.12315 5.4121-0.32617 1.6447-0.46985 3.2048 0.26449 3.7969 1.0547 0.35154 0.26902 0.57455 1.5128-1.0098 1.2012-0.18544-0.036469-0.81128 0.28251-1.25 0.58008-0.43872 0.29756-0.79937 0.58599-1.2949 0.89453-1.6898 1.1536-4.2308 1.1918-5.9082 0.77539 5.6871 3.955 10.688 5.3006 15.436-2.0117 0.47874-0.59386-0.32309 2.0114-0.48438 3.0176 1.4045-0.83756 2.4797-4.1468 1.9922-8.5781 0.46624 0.15668 0.9057 0.52353 1.4004 1.6094 1.0104-4.032 0.37866-6.9726 0.13867-7.7031 0.31626 0.12294 0.97164 0.34182 1.8125 1.9785-0.87078-4.0407-3.7405-7.2352-8.8145-8.3105 1.2566-0.37692 2.5912-0.54402 3.9785-0.57226-0.34004-0.50404-1.8155-1.2102-5.5449-1.9648-0.14585-0.038236 0.31865-0.11654 1.1719-0.10938z" fill="#fff"/>
 </g>
</svg>
