<?xml version="1.0" encoding="UTF-8"?>
<svg data-name="Layer 1" viewBox="0 0 48 48" xmlns="http://www.w3.org/2000/svg">
    <defs>
        <style>.cls-1{fill:#fff;}</style>
    </defs>
	<path class="cls-1" d="m 14.573434,2.0079299 c -1.783816,-0.129923 -3.268295,1.3545546 -3.13837,3.1383706 H 8.2966926 C 6.5008137,5.0057015 5.0062698,6.5002426 5.1468688,8.2961243 V 42.852564 c -0.1310694,1.790162 1.3602946,3.277782 3.1498238,3.13837 H 39.703308 c 1.789532,0.139413 3.280893,-1.348208 3.149823,-3.13837 V 8.2961243 C 42.99373,6.5002396 41.499189,5.0057015 39.703308,5.1463005 h -3.138372 c 0,-4.1832705 -6.276742,-4.1832705 -6.276742,0 H 17.711806 C 17.841728,3.3624845 16.357251,1.8780071 14.573434,2.0079299 Z M 12.938389,14.572866 a 1.569186,1.569186 0 0 1 0.06586,0 h 21.991502 a 1.569186,1.569186 0 0 1 0,3.138372 H 13.004249 a 1.5695316,1.5695316 0 0 1 -0.06586,-3.138372 z m 0,6.288196 a 1.5691853,1.5691853 0 0 1 0.06586,0 h 21.991502 a 1.5691853,1.5691853 0 0 1 0,3.13837 H 13.004249 a 1.5695309,1.5695309 0 0 1 -0.06586,-3.13837 z m 0.06586,6.276741 h 21.991502 a 1.5833881,1.5833881 0 0 1 0,3.149824 H 13.004249 a 1.5833881,1.5833881 0 0 1 0,-3.149824 z m 0,6.288196 h 21.991502 a 1.5691846,1.5691846 0 0 1 0,3.138369 H 13.004249 a 1.5691846,1.5691846 0 0 1 0,-3.138369 z"/>
</svg>
