<?xml version="1.0" encoding="UTF-8"?>
<svg width="48" height="48" viewBox="0 0 48 48">
    <defs>
        <style>.cls-1{fill:#fff;}</style>
    </defs>
    <path class="cls-1" d="M 23.551311,2.4125851 C 11.640488,2.4260041 1.9932859,12.088675 2.0000038,23.999503 c 0.019916,1.261207 1.0485528,2.272089 2.3099165,2.271933 H 21.713824 v 11.426133 l -5.384266,-5.372396 c -2.169677,-2.352746 -5.613669,1.078724 -3.269019,3.257149 l 9.310886,9.322757 c 0.895276,0.909781 2.361874,0.909781 3.25715,0 l 9.310886,-9.322757 C 37.552382,33.430257 33.856,29.720315 31.694182,32.325173 l -5.384265,5.372396 V 26.271436 H 43.69008 c 1.261364,1.56e-4 2.290006,-1.010726 2.309916,-2.271933 C 46.006714,12.088675 36.359512,2.4260042 24.448689,2.4125851 Z m 0,4.5699788 h 0.897378 A 16.94401,16.94401 0 0 1 41.223479,21.568512 H 6.7765219 A 16.94401,16.94401 0 0 1 23.551311,6.9825639 Z"/>
</svg>
