<svg width="48" height="48" version="1.1" viewBox="0 0 48 48" xmlns="http://www.w3.org/2000/svg" xmlns:xlink="http://www.w3.org/1999/xlink">
 <g>
  <path d="m24 2a22 22 0 0 0 -22 22 22 22 0 0 0 22 22 22 22 0 0 0 22 -22 22 22 0 0 0 -22 -22zm5.7168 6.7148c1.4221 0.011945 3.9275 0.26718 6.5059 1.3652 0.35308 0.15037 3.0364 1.3726 4.4941 4.9121 0.03043-1.0194-0.26888-2.1069-0.67188-3.2129 0.10918 0.01099 0.83017 0.39986 1.9805 3.6543 0.5416 1.5323 1.0774 5.5861 1.25 6.8848l0.45703-2.9336c0.72833 16.841-8.8784 25.067-21.23 24.344-11.149-0.65292-17.239-10.609-17.316-17.354-0.00425-0.36772 0.015002-0.68312 0.027344-1.0117-0.21752 0.88922-0.40289 1.8831-0.54297 3.0215-0.080579-0.31294-0.27981-4.4802 0.62109-7.1348-0.4016 0.73362-0.67498 1.4502-0.96094 2.166 0.29085-1.8093 1.0648-5.2709 2.5664-6.9629-0.00376-0.06824 0.00109-0.12488-0.00391-0.19531-0.18295-2.5769 0.2614-5.318 1.9961-6.9805 0.28684 1.8607 0.78265 2.3127 2.252 3.9258 0.54688 0.19828 1.2337-0.48697 4.5137-0.15039 0.90514-1.6279 5.0634-2.6777 5.2363-2.2344-1.0748 0.87308-1.9855 1.0194-2.6895 3.8438 1.2441 1.8756 1.7115 1.8921 2.3281 1.9121 1.1029-0.14691 2.9002-0.12515 2.5684 1.0391 0.28536 1.4732-2.1503 0.49964-3.6504 2.9355 0.42006 0.9935 0.60416 2.0805 0.5 2.2695-1.0895-0.44255-0.62629 0.13655-1.5371-0.02734-0.98082-0.09858-1.6793 0.80828-1.6211 1.7617 0.05819 0.95344 0.6659 1.7263 2.0957 2.6289 2.6481 1.3636 3.805 0.12318 5.4121-0.32617 1.6448-0.46988 3.2048 0.26445 3.7969 1.0547 0.35156 0.26903 0.57464 1.5128-1.0098 1.2012-0.18545-0.03647-0.81126 0.2825-1.25 0.58008-0.43874 0.29758-0.79934 0.58597-1.2949 0.89453-1.6899 1.1537-4.2327 1.1919-5.9102 0.77539 5.6874 3.9552 10.69 5.301 15.438-2.0117 0.47877-0.59389-0.32308 2.0113-0.48438 3.0176 1.4045-0.8376 2.4797-4.1465 1.9922-8.5781 0.46626 0.1567 0.90567 0.52347 1.4004 1.6094 1.0105-4.0323 0.37867-6.9725 0.13867-7.7031 0.31628 0.12295 0.97159 0.34173 1.8125 1.9785-0.87083-4.0409-3.7402-7.2352-8.8144-8.3106 1.2567-0.37694 2.593-0.54402 3.9805-0.57226-0.34006-0.50407-1.8173-1.2102-5.5469-1.9648-0.14586-0.038239 0.31861-0.1185 1.1719-0.11133z" fill="#fff"/>
 </g>
</svg>
