<?xml version="1.0" encoding="UTF-8" standalone="no"?>
<svg
   xmlns:dc="http://purl.org/dc/elements/1.1/"
   xmlns:cc="http://creativecommons.org/ns#"
   xmlns:rdf="http://www.w3.org/1999/02/22-rdf-syntax-ns#"
   xmlns:svg="http://www.w3.org/2000/svg"
   xmlns="http://www.w3.org/2000/svg"
   id="svg865"
   viewBox="0 0 48 48"
   version="1.1"
   height="48"
   width="48">
  <metadata
     id="metadata871">
    <rdf:RDF>
      <cc:Work
         rdf:about="">
        <dc:format>image/svg+xml</dc:format>
        <dc:type
           rdf:resource="http://purl.org/dc/dcmitype/StillImage" />
        <dc:title></dc:title>
      </cc:Work>
    </rdf:RDF>
  </metadata>
  <defs
     id="defs869" />
  <path
     style="fill:#ffffff"
     id="path863"
     d="m 31.721475,1.071945 c -1.63514,2.0276167 -2.847769,4.4129105 -3.43505,6.9258 v 0.00195 0.00586 c -0.342951,2.643747 -0.05038,4.464406 0.8965,6.5999 0.794353,1.650993 2.028492,3.019158 3.3745,4.1858 1.753553,1.608094 2.445531,4.664321 2.4668,6.6018 0,5.65 -4.581,10.23 -10.23,10.23 -0.770922,3.27e-4 -1.53943,-0.08615 -2.291,-0.2578 -0.9279,-0.1768 -1.711,-0.4572 -2.381,-0.7832 -1.202,-0.7874 -2.361,-1.67 -3.174,-2.865 2.061105,0.68515 4.814319,0.701786 6.59219,-0.23442 1.003,-0.556 1.759,-1.02 2.379,-1.232 0.331295,-0.107524 0.612706,-0.134599 1.01572,-0.0684 0.7838,0.2612 1.407,-0.4971 0.8477,-1.283 -0.5485,-0.785 -1.976,-1.909 -4.096,-1.598 -1.621,0.2361 -3.106,1.388 -5.23,0.2734 -0.989492,-0.541974 -1.859686,-1.446185 -2.4159,-2.19183 -0.2014,-0.3174 -0.3571,-0.6616 -0.4141,-1.027 -0.113714,-0.772645 0.125871,-1.380461 0.64846,-1.92378 0.225388,-0.210283 0.469188,-0.283392 0.75001,-0.36132 0.2406,0.104 0.7727,0.3741 1.053,0.5391 0.3647,0.2305 0.4805,0.4355 0.4805,0.4355 0.391818,-1.046429 0.40098,-1.878551 0.37107,-2.88293 0.165843,-0.230495 0.367269,-0.373553 0.6271,-0.5235 0.5601,-0.3312 1.17,-0.6169 1.838,-0.918 0.5541,-0.2402 1.158,-0.4918 1.254,-0.5469 0.420018,-0.257699 0.759584,-0.63116 1.0332,-1.0117 0.219881,-0.36079 0.317388,-0.759651 0.3613,-1.207 -0.0011,-0.276655 -0.200314,-0.404239 -0.3828,-0.47651 -0.484921,-0.173595 -1.011397,-0.242007 -1.46493,-0.3223 -0.619275,-0.07771 -1.197571,-0.141796 -1.7261,-0.20119 -1.153873,-0.284598 -1.63435,-0.63867 -2.0898,-1.94288 0.562894,-1.756022 1.398856,-2.959557 3.3881,-3.93367 0.1311,-0.05527 -0.5607,-0.3179 -1.172,-0.2539 -2.0117,0.088579 -3.590574,0.8367177 -4.85413,2.07782 -1.927,-0.6955 -3.622,-0.7415 -5.057,-0.4297 -0.0035,-0.0032 -0.0082,-0.0085 -0.01172,-0.01172 l 0.01367,-0.0039 C 9.2929949,9.0260528 8.7752167,7.9978794 8.6454358,6.031515 c 0,0 -0.01951,0.0117 -0.02344,0.01367 v -0.02148 c -1.0230151,0.9733988 -1.9372184,2.3363415 -2.39279,3.71775 -0.39926,1.433614 -0.5414871,2.507553 -0.61332,3.8141 -0.6058,0.6917 -1.018,1.278 -1.174,1.582 -0.7836,1.21 -1.648,3.097 -2.484,6.08 0.3722208,-0.815155 0.8173654,-1.594995 1.33,-2.33 -0.6956,1.584 -1.368,4.071 -1.502,7.9 0.1688715,-0.792795 0.3847527,-1.574843 0.6465,-2.342 -0.1201,2.554 0.1766,5.719 1.791,9.291 0.9586,2.101 3.165,6.37 8.5569992,9.699 0,0 1.834,1.365 4.986,2.389 1.83329,0.54811 4.822278,1.089884 6.9592,1.1035 3.899178,-0.0332 8.643594,-0.582195 10.87856,-3.59132 -1.454916,1.002734 -3.624975,1.454056 -5.23612,1.19143 0.3426,-0.0761 12.44,-2.814 13.08,-9.734 -0.583517,1.848836 -2.533207,3.036148 -3.68779,3.5817 4.818,-4.756 7.253,-10.53 6.219,-17 0,0 0.4145,3.332 -1.158,6.74 0.505733,-2.485584 0.595651,-4.482504 0.30659,-6.8261 -0.1667,-1.157 -0.4598,-2.346 -0.9082,-3.553 -2.069,-5.978 -6.537,-10.74 -6.537,-12.39 -0.4335,0.5048 -0.7712,1.258 -0.9629,2.16 -2.784494,-1.9486914 -4.769257,-4.2164628 -4.99825,-6.43482 z" />
</svg>
