<?xml version="1.0" encoding="UTF-8"?>
<svg width="48" height="48" viewBox="0 0 48 48">
    <defs>
        <style>.cls-1{fill:#fff;}</style>
    </defs>
    <path class="cls-1" d="M 24.000072,46 C 18.704977,46 2.7725186,42.379523 2.7725186,23.98231 2.7483266,17.986432 5.7912564,12.394379 10.838989,9.1584026 c -0.114605,1.8253254 0.125683,3.6555604 0.707585,5.3894394 h 0.07076 c 1.424804,-1.633877 3.140209,-2.989406 5.059233,-3.997855 -0.167392,0.815024 -0.254292,1.644526 -0.259448,2.476547 0.001,0.878395 0.107954,1.753462 0.318414,2.606272 0.171913,0.128794 0.333572,0.270738 0.483516,0.424551 0.741891,0.878411 1.617432,1.634561 2.594479,2.240686 2.452961,1.415171 4.186545,2.228893 4.186545,2.228893 v 0 c 0,0 -1.179309,2.358617 -2.606272,2.358617 -5.825784,0 -6.993299,3.785581 -6.993299,3.785581 0,0 1.179308,7.830608 9.434468,7.830608 3.042616,0 9.057089,-1.674618 9.057089,-8.71509 0.042,-3.240662 -1.715356,-6.237695 -4.563924,-7.783436 1.990529,-0.238954 3.992383,0.344566 5.54275,1.615653 -1.984083,-3.594341 -5.765222,-5.825982 -9.870812,-5.825784 H 23.30428 C 23.770305,8.9311463 26.484564,4.5673868 30.639579,2 c 0.954287,2.0460059 2.19738,3.9444047 3.691235,5.6370946 2.570893,2.9128924 5.896543,6.4272314 7.264541,10.0477084 -0.389866,-2.178567 -1.076314,-4.293464 -2.040204,-6.285714 0,0 5.672474,3.32565 5.672474,13.503082 C 45.05513,36.532426 35.631167,45.898799 24.000072,46 Z"/>
</svg>
