<?xml version="1.0" encoding="UTF-8"?>
<svg viewBox="0 0 48 48" xmlns="http://www.w3.org/2000/svg">
  <g
     transform="translate(54.894813,8.4683469)"
     style="fill:#ffffff">
    <path
       style="fill:#ffffff"
       d="m -34.796193,17.343328 c -2.072159,2.767423 -4.130686,5.453051 -5.902927,7.702435 h 3.653544 c 1.404161,-1.785875 2.862852,-3.667177 4.335176,-5.60301 z m 7.947823,-0.06816 -2.181221,2.18122 c 1.376896,1.908568 2.712893,3.776238 3.99436,5.575745 h 3.762605 c -1.676813,-2.358445 -3.599013,-5.044072 -5.575744,-7.756965 m -0.01363,-5.712071 c 1.826772,-2.4947713 3.599014,-4.962277 5.248562,-7.3207216 h -3.667177 c -1.158774,1.6768132 -2.412975,3.4217896 -3.708075,5.1940313 z M -32.7104,9.422771 c -1.417794,-1.8404047 -2.753791,-3.5853811 -4.007993,-5.1803986 h -3.844401 c 1.758609,2.2221184 3.708075,4.7577872 5.684806,7.3479866 z m 23.815587,6.108882 a 22,22 0 0 1 -22,22 22,22 0 0 1 -22,-22 22,22 0 0 1 22,-21.9999999 22,22 0 0 1 22,21.9999999 z" />
  </g>
</svg>
