<?xml version="1.0" encoding="UTF-8" standalone="no"?>
<svg
   xmlns:dc="http://purl.org/dc/elements/1.1/"
   xmlns:cc="http://creativecommons.org/ns#"
   xmlns:rdf="http://www.w3.org/1999/02/22-rdf-syntax-ns#"
   xmlns:svg="http://www.w3.org/2000/svg"
   xmlns="http://www.w3.org/2000/svg"
   xmlns:sodipodi="http://sodipodi.sourceforge.net/DTD/sodipodi-0.dtd"
   xmlns:inkscape="http://www.inkscape.org/namespaces/inkscape"
   version="1.1"
   viewBox="0 0 48 48"
   id="svg2"
   inkscape:version="0.91 r13725"
   sodipodi:docname="flinkster.svg">
  <metadata
     id="metadata10">
    <rdf:RDF>
      <cc:Work
         rdf:about="">
        <dc:format>image/svg+xml</dc:format>
        <dc:type
           rdf:resource="http://purl.org/dc/dcmitype/StillImage" />
      </cc:Work>
    </rdf:RDF>
  </metadata>
  <defs
     id="defs8" />
  <sodipodi:namedview
     pagecolor="#ffffff"
     bordercolor="#666666"
     borderopacity="1"
     objecttolerance="10"
     gridtolerance="10"
     guidetolerance="10"
     inkscape:pageopacity="0"
     inkscape:pageshadow="2"
     inkscape:window-width="1366"
     inkscape:window-height="715"
     id="namedview6"
     showgrid="false"
     inkscape:zoom="4.9166667"
     inkscape:cx="-0.42544704"
     inkscape:cy="26.333741"
     inkscape:window-x="0"
     inkscape:window-y="27"
     inkscape:window-maximized="1"
     inkscape:current-layer="svg2" />
  <path
     style="fill:#ffffff"
     d="M 7 5 C 5.892 5 5 5.892 5 7 L 5 41 C 5 42.108 5.892 43 7 43 L 41 43 C 42.108 43 43 42.108 43 41 L 43 7 C 43 5.892 42.108 5 41 5 L 7 5 z M 24.892578 8.03125 L 28.865234 8.03125 C 30.291034 8.03125 31.322384 8.27131 31.958984 8.75 C 32.600624 9.22869 32.921875 9.9948282 32.921875 11.048828 C 32.921875 11.603898 32.802619 12.078503 32.568359 12.470703 C 32.339199 12.857723 32.000824 13.143611 31.552734 13.332031 C 32.123074 13.515361 32.5643 13.853726 32.875 14.347656 C 33.1857 14.841586 33.341807 15.449969 33.341797 16.167969 C 33.341797 17.267969 33.004251 18.087153 32.332031 18.626953 C 31.664941 19.166743 30.648003 19.4375 29.283203 19.4375 L 24.892578 19.4375 L 24.892578 8.03125 z M 14.658203 8.0332031 L 17.453125 8.0332031 C 19.011425 8.0332031 20.168934 8.15673 20.927734 8.40625 C 21.691584 8.65069 22.345825 9.0674431 22.890625 9.6582031 C 23.374395 10.172533 23.73453 10.767253 23.96875 11.439453 C 24.203 12.111643 24.322266 12.872156 24.322266 13.722656 C 24.322266 14.583266 24.20301 15.352097 23.96875 16.029297 C 23.7345 16.701487 23.374375 17.294294 22.890625 17.808594 C 22.340655 18.399304 21.681109 18.818759 20.912109 19.068359 C 20.143159 19.312789 18.991025 19.4375 17.453125 19.4375 L 14.658203 19.4375 L 14.658203 8.0332031 z M 27.544922 10.03125 L 27.544922 12.447266 L 29.003906 12.447266 C 29.421476 12.447266 29.739245 12.344325 29.953125 12.140625 C 30.172095 11.936925 30.279297 11.637434 30.279297 11.240234 C 30.279297 10.848124 30.172095 10.549393 29.953125 10.345703 C 29.739245 10.136923 29.421476 10.03125 29.003906 10.03125 L 27.544922 10.03125 z M 17.310547 10.255859 L 17.310547 17.214844 L 18.257812 17.214844 C 19.337412 17.214844 20.162122 16.914159 20.732422 16.318359 C 21.302762 15.722549 21.589844 14.858256 21.589844 13.722656 C 21.589844 12.592156 21.302752 11.731325 20.732422 11.140625 C 20.167172 10.549915 19.342513 10.255859 18.257812 10.255859 L 17.310547 10.255859 z M 27.544922 14.449219 L 27.544922 17.435547 L 29.095703 17.435547 C 29.630393 17.435547 30.030142 17.310077 30.294922 17.060547 C 30.564822 16.811017 30.701172 16.435771 30.701172 15.931641 C 30.701172 15.437691 30.564802 15.066726 30.294922 14.822266 C 30.030122 14.572726 29.630393 14.449219 29.095703 14.449219 L 27.544922 14.449219 z M 24 22.896484 C 26.644127 22.896484 29.288461 23.373684 30.736328 24.326172 C 31.573409 24.877597 32.309714 26.33717 32.875 27.828125 L 35.166016 27.828125 C 35.346208 27.828125 35.517705 27.910364 35.632812 28.050781 C 35.747355 28.191801 35.790819 28.376158 35.755859 28.552734 L 35.416016 30.195312 C 35.359367 30.476147 35.11243 30.677734 34.826172 30.677734 L 34.103516 30.677734 C 34.797166 31.449126 35.1286 32.435192 35.125 33.419922 C 35.119577 34.510116 34.706455 35.600841 33.839844 36.394531 L 33.839844 38.650391 C 33.839844 39.148783 33.433336 39.554688 32.935547 39.554688 L 30.822266 39.554688 C 30.323271 39.554688 29.917969 39.148783 29.917969 38.650391 L 29.917969 37.726562 L 18.082031 37.726562 L 18.082031 38.650391 C 18.082031 39.148783 17.676729 39.554688 17.177734 39.554688 L 15.064453 39.554688 C 14.565459 39.554688 14.160156 39.148783 14.160156 38.650391 L 14.160156 36.349609 C 14.151716 36.341779 14.143766 36.336025 14.134766 36.328125 C 13.318175 35.576018 12.8708 34.514264 12.875 33.337891 C 12.879218 32.385703 13.196481 31.433457 13.851562 30.677734 L 13.173828 30.677734 C 12.888775 30.677734 12.641834 30.477498 12.583984 30.197266 L 12.244141 28.552734 C 12.206777 28.374953 12.252685 28.190596 12.367188 28.050781 C 12.481088 27.910363 12.651984 27.828125 12.833984 27.828125 L 15.125 27.828125 C 15.6933 26.33958 16.425988 24.8782 17.263672 24.326172 C 18.711538 23.373684 21.355873 22.896484 24 22.896484 z M 24 24.695312 C 21.705711 24.695312 19.411887 25.076297 18.257812 25.835938 C 17.80944 26.131237 17.232396 27.318037 16.705078 28.773438 L 31.294922 28.773438 C 30.766398 27.317435 30.190559 26.130031 29.742188 25.835938 C 28.588715 25.076297 26.294289 24.695312 24 24.695312 z M 17.332031 31.787109 C 16.350314 31.787109 15.552734 32.582134 15.552734 33.564453 C 15.552734 34.546773 16.350314 35.341797 17.332031 35.341797 C 18.314953 35.341797 19.109375 34.546773 19.109375 33.564453 C 19.109375 32.582134 18.314953 31.787109 17.332031 31.787109 z M 30.691406 31.787109 C 29.709689 31.787109 28.912109 32.582134 28.912109 33.564453 C 28.912109 34.546773 29.709689 35.341797 30.691406 35.341797 C 31.673123 35.341797 32.470703 34.546773 32.470703 33.564453 C 32.470703 32.582134 31.674328 31.787109 30.691406 31.787109 z "
     id="path4" />
</svg>
