<?xml version="1.0" encoding="UTF-8"?>
<svg version="1.1" viewBox="0 0 48 48" xmlns="http://www.w3.org/2000/svg">
    <path d="m20.619 3.7461c-5.6732 0.080824-10.497 3.9841-13.663 8.4068-3.1919 4.7586-4.2628 10.655-4.1657 16.301 0.21242 3.1927 0.93948 6.5369 3.154 8.9732 2.2339 3.0159 5.3309 5.6845 9.1816 6.1709 5.7362 1.1828 11.799 0.74074 17.346-1.0961 3.7618-1.6731 6.465-4.9655 9.0497-8.0497 2.3331-2.9769 3.9118-6.6548 3.7509-10.49 0.12835-4.7968-2.8626-8.9698-6.3508-11.974-1.9334-1.7388-3.6781-3.7069-5.7079-5.3228-3.2996-2.0899-7.356-1.8926-11.011-2.8913-0.52727-0.031619-1.0559-0.043204-1.584-0.027344zm-2.3906 3.0859c1.9169 1.7998 1.6307 4.7734 2.8548 6.987 0.65839 1.813 0.0878 5.8409 3.0915 4.7068 2.985-0.31994 4.1191 2.6336 3.6325 5.0898 0.2895 2.0323-0.27179 4.2224-1.7283 5.3528 0.87639 1.6228 1.0145 3.856 1.4019 5.7364-0.0636 1.74 2.2592 4.5785-0.10426 5.4523-2.8025 1.0952-5.8996 0.41404-8.7848 0.08533-1.9211-0.25256-5.3781-0.42777-3.6797-3.2602 1.0815-1.7151 2.4017-3.2644 3.4264-5.019 1.6688-2.676 1.333-2.9207-0.20531-3.7421-1.3178-2.0156-0.42334-5.0277-0.12414-6.6706-3.3573-0.10643-6.7096-0.34787-10.051-0.68997-1.1518-2.072 1.3924-4.1817 1.9616-6.1431 2.1826-3.1698 5.0928-5.7947 8.3087-7.8856zm-0.36524 2.1387c-3.5872 2.817-6.4934 6.46-8.5898 10.502l3.8398 0.3125c1.8389-2.1385 3.0683-4.9048 5.5873-6.3669 0.57028-1.1758-0.39751-2.3906-0.58413-3.5812zm15.768 2.8906c2.2119 1.397 3.0838 4.0565 4.7355 5.9848 1.5622 2.4223 2.9325 5.1714 2.8446 8.1265-4.1001 1.5506-8.6818 1.3126-12.942 0.68555 0.03836-2.6583-0.57432-5.3979-0.0046-8.0068 0.61332-1.7936 1.8114-2.451 2.4989-4.193 0.63925-0.86306 1.8989-2.0751 2.8677-2.5971zm0.11524 1.9883c-1.6564 1.7385-3.8766 2.7818-2.7257 5.0796 1.032 1.8652 1.0461 5.9187 2.7795 7.0322 1.8564-0.35094 4.1069 0.07311 5.6205-1.2416 0.99715-1.8596-1.2535-3.65-1.8954-5.3546-1.1853-1.8888-2.5423-3.6614-3.7789-5.5157zm-8.7344 15.945-3.875 0.69922 4.084 0.46289c-0.07212-0.38693-0.13671-0.77521-0.20898-1.1621zm-2.9863 4.8848c-2.0515-0.11291-4.4348-0.08575-5.5451 1.9687-1.4724 2.4027 2.2013 2.236 3.6594 2.6474 2.2899 0.3375 4.6544 0.25637 6.8935-0.35047-0.73677-1.6025-0.15564-4.9403-2.9718-4.2368-0.67862-0.01264-1.3573-0.02602-2.036-0.02881z" fill="#fff"/>
</svg>
