<?xml version="1.0" encoding="UTF-8" standalone="no"?>
<svg
   width="48"
   height="48"
   viewBox="0 0 12.7 12.7"
   version="1.1"
   id="svg5"
   xmlns="http://www.w3.org/2000/svg"
   xmlns:svg="http://www.w3.org/2000/svg">
  <defs
     id="defs2">
    <style
       id="style909">.cls-1{fill:#fff;}</style>
    <style
       id="style952">.cls-1{fill:#fff;}</style>
  </defs>
  <path
     id="circle969"
     style="opacity:1;fill:#ffffff;stroke-width:0.264583"
     d="M 6.3499997,0.52916683 A 5.8208333,5.8208333 0 0 0 0.5291667,6.3500001 5.8208333,5.8208333 0 0 0 6.3499997,12.170833 5.8208333,5.8208333 0 0 0 12.170833,6.3500001 5.8208333,5.8208333 0 0 0 6.3499997,0.52916683 Z m -3.3538,2.93212067 h 0.873848 c 0.07827,0 0.141594,0.062805 0.141594,0.1410767 v 0.8743653 c 0,0.078272 -0.06332,0.1415934 -0.141594,0.1415934 h -0.873848 c -0.07827,0 -0.141594,-0.063321 -0.141594,-0.1415934 V 3.6023642 c 1e-6,-0.078273 0.06332,-0.1410767 0.141594,-0.1410767 z m 1.456759,0 h 0.873848 c 0.07827,0 0.141593,0.062805 0.141593,0.1410767 v 0.8743653 c 0,0.078272 -0.06332,0.1415934 -0.141593,0.1415934 h -0.873848 c -0.07827,0 -0.141594,-0.063321 -0.141594,-0.1415934 V 3.6023642 c 0,-0.078273 0.06332,-0.1410767 0.141594,-0.1410767 z m 1.456241,0 h 0.874366 c 0.07827,0 0.141076,0.062805 0.141076,0.1410767 v 0.8743653 c 0,0.078272 -0.0628,0.1415934 -0.141076,0.1415934 h -0.874366 c -0.07827,0 -0.141076,-0.063321 -0.141076,-0.1415934 V 3.6023642 c 0,-0.078273 0.0628,-0.1410767 0.141076,-0.1410767 z m 1.456759,0 h 0.874365 c 0.07827,0 0.141077,0.062805 0.141077,0.1410767 v 0.8743653 c 0,0.078272 -0.0628,0.1415934 -0.141077,0.1415934 h -0.874365 c -0.07827,0 -0.141077,-0.063321 -0.141077,-0.1415934 V 3.6023642 c 0,-0.078273 0.06281,-0.1410767 0.141077,-0.1410767 z m 1.456759,0 h 0.874365 c 0.07827,0 0.141077,0.062805 0.141077,0.1410767 v 0.8743653 c 0,0.078272 -0.0628,0.1415934 -0.141077,0.1415934 h -0.874365 c -0.07827,0 -0.141077,-0.063321 -0.141077,-0.1415934 V 3.6023642 c 0,-0.078273 0.06281,-0.1410767 0.141077,-0.1410767 z m -5.826518,1.5564943 h 0.873848 c 0.07827,0 0.141594,0.063321 0.141594,0.1415933 v 0.8738484 c 0,0.078273 -0.06332,0.1410769 -0.141594,0.1410769 h -0.873848 c -0.07827,-3e-7 -0.141594,-0.062805 -0.141594,-0.1410769 V 5.1593751 c 1e-6,-0.078272 0.06332,-0.1415933 0.141594,-0.1415933 z m 1.456759,0 h 0.873848 c 0.07827,0 0.141593,0.063321 0.141593,0.1415933 v 0.8738484 c 0,0.078273 -0.06332,0.1410769 -0.141593,0.1410769 h -0.873848 c -0.07827,-3e-7 -0.141594,-0.062805 -0.141594,-0.1410769 V 5.1593751 c 0,-0.078272 0.06332,-0.1415933 0.141594,-0.1415933 z m 1.456241,0 h 0.874366 c 0.07827,0 0.141076,0.063321 0.141076,0.1415933 v 0.8738484 c 0,0.078273 -0.0628,0.1410769 -0.141076,0.1410769 h -0.874366 c -0.07827,-3e-7 -0.141076,-0.062805 -0.141076,-0.1410769 V 5.1593751 c 0,-0.078272 0.0628,-0.1415933 0.141076,-0.1415933 z m 1.456759,0 h 0.874365 c 0.07827,0 0.141077,0.063321 0.141077,0.1415933 v 0.8738484 c 0,0.078273 -0.0628,0.1410769 -0.141077,0.1410769 h -0.874365 c -0.07827,-3e-7 -0.141077,-0.062805 -0.141077,-0.1410769 V 5.1593751 c 0,-0.078272 0.06281,-0.1415933 0.141077,-0.1415933 z m 1.456759,0 h 0.874365 c 0.07827,0 0.141077,0.063321 0.141077,0.1415933 v 0.8738484 c 0,0.078273 -0.0628,0.1410769 -0.141077,0.1410769 h -0.874365 c -0.07827,-3e-7 -0.141077,-0.062805 -0.141077,-0.1410769 V 5.1593751 c 0,-0.078272 0.06281,-0.1415933 0.141077,-0.1415933 z m -5.804297,1.556494 h 2.286165 c 0.09075,0 0.163814,0.063321 0.163814,0.1415933 v 0.8743654 c 0,0.078273 -0.07306,0.1410766 -0.163814,0.1410766 h -2.286165 c -0.09075,0 -0.163815,-0.062805 -0.163815,-0.1410766 V 6.7158691 c 0,-0.078272 0.07306,-0.1415933 0.163815,-0.1415933 z m 2.890779,0 h 0.874366 c 0.07827,0 0.141076,0.063321 0.141076,0.1415933 v 0.8743654 c 0,0.078273 -0.0628,0.1410766 -0.141076,0.1410766 h -0.874366 c -0.07827,0 -0.141076,-0.062805 -0.141076,-0.1410766 V 6.7158691 c 0,-0.078272 0.0628,-0.1415933 0.141076,-0.1415933 z m 1.456759,0 h 0.874365 c 0.07827,0 0.141077,0.063321 0.141077,0.1415933 v 0.8743654 c 0,0.078273 -0.0628,0.1410766 -0.141077,0.1410766 h -0.874365 c -0.07827,0 -0.141077,-0.062805 -0.141077,-0.1410766 V 6.7158691 c 0,-0.078272 0.06281,-0.1415933 0.141077,-0.1415933 z m 1.456759,0 h 0.874365 c 0.07827,0 0.141077,0.063321 0.141077,0.1415933 v 0.8743654 c 0,0.078273 -0.0628,0.1410766 -0.141077,0.1410766 h -0.874365 c -0.07827,0 -0.141077,-0.062805 -0.141077,-0.1410766 V 6.7158691 c 0,-0.078272 0.06281,-0.1415933 0.141077,-0.1415933 z m -5.774842,1.5079183 h 1.194759 c 0.106996,0 0.19327,0.062805 0.19327,0.1410766 v 0.8733317 c 0,0.078272 -0.08627,0.1415936 -0.19327,0.1415936 h -1.194759 c -0.106996,0 -0.19327,-0.063321 -0.19327,-0.1415936 V 8.2232707 c 1e-6,-0.078272 0.08627,-0.1410766 0.19327,-0.1410766 z m 1.812293,0 h 4.855517 c 0.06782,0 0.122474,0.062805 0.122474,0.1410766 v 0.8733317 c 0,0.078272 -0.05466,0.1415936 -0.122474,0.1415936 h -4.855517 c -0.06781,0 -0.122473,-0.063321 -0.122473,-0.1415936 V 8.2232707 c 0,-0.078272 0.05466,-0.1410766 0.122473,-0.1410766 z" />
</svg>
