<svg height="48" viewBox="0 0 12.7 12.7" width="48" xmlns="http://www.w3.org/2000/svg"><path d="m1.8520832 1.3229165c-.2931584 0-.5291667.236007-.5291667.529167v4.235917h3.4406168c.144603 0 .2619997.11739.2619997.262v1.139465c.1617009.09336.2611056.265459.2614827.452169 0 .28921-.2342764.523999-.5234824.523999-.2892071 0-.5234821-.234789-.5234821-.523999.0002209-.18686.099654-.359286.2614827-.452686v-.876949h-3.1786174v4.2359175c0 .29316.2360083.529167.5291667.529167h4.212146v-1.5818165h-2.8876792c-.1446059 0-.2619994-.116872-.2619994-.261482v-1.133781h.00982c-.1672658-.09183-.2709862-.26755-.2713011-.45837 0-.2892.2342753-.523483.5234821-.523483.2892071 0 .5234834.234283.5234824.523483.0001079.19039-.1027562.36597-.2692342.45837h.00775v.871781h2.8876787c.144604 0 .262.1174.262.262v1.8432985h4.2596885c.293158 0 .529167-.236007.529167-.529167v-4.2359175h-1.8536345c-.144606 0-.262-.117399-.262-.261999v-1.133781h.0088c-.166793-.09216-.270211-.267293-.270267-.457853 0-.28921.234276-.524.523482-.524.289207 0 .5234825.23479.5234825.524-.000302.190819-.1040325.366053-.2713015.457853h.0098v.871781h1.5916345v-4.235917c0-.29316-.236009-.529167-.529167-.529167h-4.2596885v1.843299c0 .1446-.117396.261999-.262.261999h-2.8876748v.871782h-.00775c.166479.09237.2693432.26798.2692342.45837 0 .28921-.2342764.523482-.5234824.523482-.2892068 0-.5234821-.234272-.5234821-.523482.000303-.19082.1040331-.36657.2713011-.45837h-.00982v-1.133781c0-.14461.1173935-.261483.2619994-.261483h2.8876792v-1.581816zm7.6713663 1.319816c.289207 0 .5234825.2348.5234825.523999 0 .28921-.2342755.523483-.5234825.523483-.187262-.00033-.360012-.100603-.453202-.263033v.001h-.871782v4.060734c.161827.09343.261253.265826.261483.452686 0 .28921-.234276.523999-.523482.523999-.289207 0-.523482-.234789-.523482-.523999.000366-.18671.09978-.358769.261482-.452169v-4.32325c0-.14461.117396-.261483.262-.261483h1.133781c.0935-.16192.266193-.26193.453202-.262zm-4.7599162 1.591634c.186862.000221.3592555.10017.4526857.262h1.1337805c.144603 0 .262.117399.262.262v2.730582c.161828.09343.261252.265826.261483.452686 0 .28921-.234276.523999-.523483.523999-.2892057 0-.523482-.234789-.523482-.523999.0002212-.18686.099655-.359286.2614829-.452686v-2.4691h-.8717814c-.093431.16182-.2658237.26177-.4526857.262-.2892071 0-.5234821-.234272-.5234821-.523482s.234275-.524.5234821-.524zm4.7599162 3.183785c.289207 0 .5234825.234283.5234825.523483-.000367.18672-.09978.359385-.2614825.452685v1.138949c0 .14461-.117394.261999-.262.261999h-1.133781c-.0935.16193-.266193.2619205-.453202.2620005-.289207 0-.523482-.2347895-.523482-.5239995s.234275-.523482.523482-.523482c.187262.00032.360012.100603.453202.263033v-.001h.871781v-.876466c-.161957-.0935-.261407-.266709-.261482-.453719 0-.2892.234276-.523483.523482-.523483z" fill="#fff" stroke-width=".264583"/></svg>