<?xml version="1.0" encoding="UTF-8"?>
<svg version="1.1" viewBox="0 0 48 48" xmlns="http://www.w3.org/2000/svg">
    <path d="m12.333 8.4915c-3.5087 0-6.3333 2.8247-6.3333 6.3333v9.5309c0.10663-8e-3 0.20875-0.03092 0.31749-0.03092h1.7936v-9.5c0-2.3391 1.8831-4.2222 4.2222-4.2222h25.333c2.3391 0 4.2222 1.8831 4.2222 4.2222v12.667c0 2.3391-1.8831 4.2222-4.2222 4.2222h-10.238v2.1111h10.238c3.5087 0 6.3333-2.8247 6.3333-6.3333v-12.667c0-3.5087-2.8247-6.3333-6.3333-6.3333z" fill="#fff"/>
    <path d="m28.222 15.812c-1.4619 0-2.6389 1.1769-2.6389 2.6389v1.3215h-1.9317a1.0557 1.0557 0 0 0-0.97721 0.65766l-4.5892 11.283h-2.4781a1.0557 1.0557 0 0 0-0.1072 0.004123v-1.9544c0-1.1696-0.94156-2.1111-2.1111-2.1111h-5.2778c-1.1696 0-2.1111 0.94156-2.1111 2.1111v5.2778c0 1.1696 0.94156 2.1111 2.1111 2.1111h5.2778c1.1696 0 2.1111-0.94156 2.1111-2.1111v-1.2225a1.0557 1.0557 0 0 0 0.1072 0.0062h3.1873a1.0557 1.0557 0 0 0 0.97721-0.65766l4.5913-11.283h1.2205v1.6823c0 1.4619 1.1769 2.6389 2.6389 2.6389h4.6325c1.4619 0 2.6389-1.1769 2.6389-2.6389v-5.1149c0-1.4619-1.1769-2.6389-2.6389-2.6389zm-20.111 13.951h5.2778v5.2778h-5.2778z" fill="#fff"/>
</svg>
