<svg height="48" viewBox="0 0 12.7 12.7" width="48" xmlns="http://www.w3.org/2000/svg"><path d="m1.8520832 1.3229165c-.2931583 0-.5291667.236009-.5291667.529167v8.9958335c0 .293159.2360084.529167.5291667.529167h8.9958338c.293158 0 .529167-.236008.529167-.529167v-8.9958335c0-.293158-.236009-.529167-.529167-.529167zm.7482747.649056a.62838867.62838867 0 0 1 .6283854.628386.62838867.62838867 0 0 1 -.3141927.543119v6.641455h1.0169922a.62838867.62838867 0 0 1 .5441529-.314193.62838867.62838867 0 0 1 .6283854.6283865.62838867.62838867 0 0 1 -.6283854.628385.62838867.62838867 0 0 1 -.5436362-.314193h-1.2846761-.0470255v-.0031a.36132349.36132349 0 0 1 -.3105753-.310576h-.00362v-.04703-6.9086215a.62838867.62838867 0 0 1 -.3141901-.543632.62838867.62838867 0 0 1 .6283854-.628386zm5.6239456 0v.000517a.62838867.62838867 0 0 1 .628386.628385.62838867.62838867 0 0 1 -.628386.628386.62838867.62838867 0 0 1 -.542602-.314193h-2.8918131v4.766634a.62838867.62838867 0 0 1 .3141927.54312.62838867.62838867 0 0 1 -.6283854.628385.62838867.62838867 0 0 1 -.6283854-.628385.62838867.62838867 0 0 1 .3141927-.542603v-5.034318-.04703h.0031a.36132349.36132349 0 0 1 .3110923-.310575v-.0041h.047026 3.1584632a.62838867.62838867 0 0 1 .543119-.314193zm1.8753385 0c.34705 0 .628386.281336.628386.628386-.000323.22418-.120049.431546-.314193.543636v3.168282c-.000045.19949-.161728.361178-.361218.361218h-.2273765-1.286744v1.503784a.36132347.36132347 0 0 1 -.361218.361218h-1.283642a.62838867.62838867 0 0 1 -.543637.314193.62838867.62838867 0 0 1 -.6283851-.628385.62838867.62838867 0 0 1 .6283851-.628386.62838867.62838867 0 0 1 .54312.314193h1.016992v-1.503267c-.000181-.19981.161926-.361915.361735-.361735h1.513603v-2.901115c-.194271-.11217-.314016-.319306-.314193-.543636 0-.34705.281336-.628386.6283855-.628386zm-1.8753385 1.874821a.62838867.62838867 0 0 1 .628386.628386.62838867.62838867 0 0 1 -.628386.628385.62838867.62838867 0 0 1 -.542602-.314193h-1.017509v1.016992a.62838867.62838867 0 0 1 .314193.54312.62838867.62838867 0 0 1 -.628386.628385.62838867.62838867 0 0 1 -.6283851-.628385.62838867.62838867 0 0 1 .3141927-.54312v-1.284159-.0052h.0005168a.36132349.36132349 0 0 1 .3343466-.355017v-.000517h.02636 1.283642a.62838867.62838867 0 0 1 .543636-.314193zm1.8753385 3.749125a.62838867.62838867 0 0 1 .628386.628386.62838867.62838867 0 0 1 -.314193.543119v1.2846755.04703h-.0036a.36132349.36132349 0 0 1 -.310576.310575v.0041h-.04704-3.1594975a.62838867.62838867 0 0 1 -.54312.314193.62838867.62838867 0 0 1 -.6283851-.628385.62838867.62838867 0 0 1 .6283851-.6283855.62838867.62838867 0 0 1 .54312.314193h2.89233v-1.016992a.62838867.62838867 0 0 1 -.314193-.544153.62838867.62838867 0 0 1 .6283855-.628386z" fill="#fff" stroke-width=".264583"/></svg>