<svg height="48" viewBox="0 0 12.7 12.7" width="48" xmlns="http://www.w3.org/2000/svg"><path d="m1.8520832 1.3229165c-.2931584 0-.5291667.236007-.5291667.529167v8.9958335c0 .29316.2360083.529167.5291667.529167h8.9958338c.293158 0 .529167-.236007.529167-.529167v-8.9958335c0-.29316-.236009-.529167-.529167-.529167zm3.8571289.419096h1.2815754l.511597.886251h1.134814l.511597.886251h1.0790045l.555005.997355-.511597.918807.511597.919324-.511597.918807.511597.918806-.555005.997873h-1.0790045l-.511597.8862505h-1.134814l-.511597.886251h-1.2815754l-.5115968-.886251h-1.1348143l-.5115967-.8862505h-1.0790039l-.5550049-.997873.5115967-.918806-.5115967-.918807.5115967-.919324-.5115967-.918807.5550049-.997355h1.0790039l.5115967-.886251h1.1348143zm.087333.151412-.5115967.886251h-1.1342975l-.5115968.886251h-1.0759032l-.4707723.84646.5115967.91829-.5115967.919324.5115967.919323-.5115967.91829.4707723.84646h1.0759032l.5115968.886251h1.1342976l.5115967.8862515h1.1069093l.511597-.8862515h1.134297l.511597-.886251h1.0759035l.470773-.84646-.511597-.91829.511597-.919323-.511597-.919324.511597-.91829-.470773-.84646h-1.0759035l-.511597-.886251h-1.134297l-.511597-.886251zm.5534544.213424a.60590081.60590081 0 0 1 .605648.605648.60590081.60590081 0 0 1 -.605648.606164.60590081.60590081 0 0 1 -.3023069-.08165l-1.030428.594796v2.91145a.60590081.60590081 0 0 1 .3028239.523999.60590081.60590081 0 0 1 -.6061647.605648.60590081.60590081 0 0 1 -.6056476-.605648.60590081.60590081 0 0 1 .3028238-.523999v-3.111438h.00103a.3029504.3029504 0 0 1 .1503785-.237711l1.1818401-.681612a.60590081.60590081 0 0 1 .6056469-.605648zm1.636076.908988a.60590081.60590081 0 0 1 .605648.605648.60590081.60590081 0 0 1 -.605648.606165.60590081.60590081 0 0 1 -.311609-.08682l-1.021643.589628v1.093474a.60590081.60590081 0 0 1 .302824.523999.60590081.60590081 0 0 1 -.605648.606164.60590081.60590081 0 0 1 -.6056474-.606164.60590081.60590081 0 0 1 .3028238-.523999v-1.230416h.00207a.3029504.3029504 0 0 1 .1493449-.30024l1.1818397-.682646a.60590081.60590081 0 0 1 .605648-.594796zm1.635559.908472a.60590081.60590081 0 0 1 .6061655.606165.60590081.60590081 0 0 1 -.6061655.605647.60590081.60590081 0 0 1 -.332279-.09974l-1.000456.577742v1.645378a.3029504.3029504 0 0 1 -.151412.269751l-1.182873.683162a.60590081.60590081 0 0 1 -.604615.579293.60590081.60590081 0 0 1 -.6056474-.605648.60590081.60590081 0 0 1 .6056474-.606164.60590081.60590081 0 0 1 .324011.09457l1.008724-.582394v-1.645894a.3029504.3029504 0 0 1 .151412-.269234l1.183391-.683163a.60590081.60590081 0 0 1 .604097-.569474zm-6.5432696.02015a.60590081.60590081 0 0 1 .6056477.606164.60590081.60590081 0 0 1 -.3028239.523482v2.913518l1.0200929.589111a.60590081.60590081 0 0 1 .3126422-.08785.60590081.60590081 0 0 1 .6061647.605648.60590081.60590081 0 0 1 -.6061647.606164.60590081.60590081 0 0 1 -.6051309-.593245c-.4201228-.242566-1.1461831-.661971-1.1461831-.661971-.1053838-.06017-.1869231-.157029-.1870689-.27957v-3.091284a.60590081.60590081 0 0 1 -.3033405-.523999.60590081.60590081 0 0 1 .6061646-.606164zm6.5432696 1.797823a.60590081.60590081 0 0 1 .6061655.605648.60590081.60590081 0 0 1 -.3033415.523999v1.299662a.3029504.3029504 0 0 1 -.03979.165881.3029504.3029504 0 0 1 -.111621.110588l-2.82205 1.6298745a.60590081.60590081 0 0 1 -.600997.53175.60590081.60590081 0 0 1 -.6056474-.606165.60590081.60590081 0 0 1 .6056474-.6056465.60590081.60590081 0 0 1 .360185.119372l2.608626-1.506368v-1.138948a.60590081.60590081 0 0 1 -.302823-.523999.60590081.60590081 0 0 1 .605646-.605648z" fill="#fff" stroke-width=".264583"/></svg>