<svg height="48" viewBox="0 0 12.7 12.7" width="48" xmlns="http://www.w3.org/2000/svg"><path d="m1.8520834 1.3229163c-.2931584 0-.5291667.236007-.5291667.529167v8.9958327c0 .29316.2360083.529167.5291667.529167h8.9958336c.293158 0 .529167-.236007.529167-.529167v-8.9958327c0-.29316-.236009-.529167-.529167-.529167zm.79375.275952a.66145831.66145831 0 0 1 .6614583.661459.66145831.66145831 0 0 1 -.3307292.571541v4.412651a.66145831.66145831 0 0 1 .3307292.572058.66145831.66145831 0 0 1 -.6614583.661458.66145831.66145831 0 0 1 -.6614584-.661458.66145831.66145831 0 0 1 .3307292-.572575v-4.411617a.66145831.66145831 0 0 1 -.3307292-.572058.66145831.66145831 0 0 1 .6614584-.661459zm1.8520833 0a.66145831.66145831 0 0 1 .572058.33073h1.280025a.33072917.33072917 0 0 1 .33073.330729v1.534273h1.190624v-.962215a.66145831.66145831 0 0 1 -.330729-.572058.66145831.66145831 0 0 1 .661459-.661459.66145831.66145831 0 0 1 .661458.661459.66145831.66145831 0 0 1 -.330729.571541v1.293461a.33072917.33072917 0 0 1 -.330729.330729h-1.521354v.936377a.66145831.66145831 0 0 1 .330729.572059.66145831.66145831 0 0 1 -.661459.661458.66145831.66145831 0 0 1 -.661458-.661458.66145831.66145831 0 0 1 .3307292-.572575v-.935861h-1.190625v2.788461a.66145831.66145831 0 0 1 .3307291.572058.66145831.66145831 0 0 1 -.6614583.661458.66145831.66145831 0 0 1 -.6614583-.661458.66145831.66145831 0 0 1 .3307291-.572575v-3.118673a.33072917.33072917 0 0 1 .3307292-.330729h1.5213542v-1.203544h-.9498129a.66145831.66145831 0 0 1 -.5715413.330729.66145831.66145831 0 0 1 -.6614583-.661458.66145831.66145831 0 0 1 .6614583-.661459zm1.5213542 2.195732v.661458h.022221a.33072917.33072917 0 0 1 .3085078-.211356.33072917.33072917 0 0 1 .307992.211356h.02274v-.661458h-.02274a.33072917.33072917 0 0 0 -.307992-.211356.33072917.33072917 0 0 0 -.3085081.211356zm4.0348961-2.195732a.66145831.66145831 0 0 1 .661458.661459.66145831.66145831 0 0 1 -.330729.571541v3.132626a.33072917.33072917 0 0 1 -.330729.330729h-1.5213543v1.521354a.33072917.33072917 0 0 1 -.330729.330729h-1.280542a.66145831.66145831 0 0 1 -.571542.330729.66145831.66145831 0 0 1 -.661458-.661458.66145831.66145831 0 0 1 .661458-.661458.66145831.66145831 0 0 1 .572058.330729h.949296v-1.521354a.33072917.33072917 0 0 1 .33073-.33073h1.521354v-2.801379a.66145831.66145831 0 0 1 -.330729-.572058.66145831.66145831 0 0 1 .6614583-.661459zm0 5.556251a.66145831.66145831 0 0 1 .661458.661458.66145831.66145831 0 0 1 -.661458.661458.66145831.66145831 0 0 1 -.6614583-.661458.66145831.66145831 0 0 1 .6614583-.661458zm-5.5960413 1.507401h.2113569v.264583h-.2113569zm-2.4608316.000517h.2382284v.641821a.66145831.71437503 0 0 1 .4232299-.165364.66145831.71437503 0 0 1 .6614584.714168.66145831.71437503 0 0 1 -.6614584.7141677.66145831.71437503 0 0 1 -.4232299-.166398v.166398h-.2382284v-.7141677zm4.02146 0h.2382285v1.190625.7141677h-.2382285v-.166398a.66145831.71437503 0 0 1 -.4232298.166398.66145831.71437503 0 0 1 -.6614584-.7141677.66145831.71437503 0 0 1 .6614584-.714168.66145831.71437503 0 0 1 .4232298.165364zm-1.760616.47594a.58208333.52916664 0 0 1 .01447 0h.026872v.233577a.58208333.42994789 0 0 0 -.026872.0026.58208333.42994789 0 0 0 -.5022951.423747v.7689447h-.2118738v-1.4024977h.2118733v.237194a.58208333.52916664 0 0 1 .037724-.05271.58208333.52916664 0 0 1 .4501018-.21084zm2.8721766.000517c.154696.00014.304454.05887.423229.165881v-.165881h.238229v.713651.6619747c.000022.27592-.220092.513891-.5271.569991-.307267.05611-.578289-.03383-.715202-.338997v-.07493h.170533.06615c.04371.14211.190272.240832.3576.240812.203118-.0002.407175-.214038.409794-.393258v-.116788c-.118841.10687-.268592.165364-.423229.165364-.365239 0-.661354-.319708-.661459-.7141677.00037-.39426.296407-.713651.661459-.713651zm1.53479 0a.66145831.71437503 0 0 1 .661458.714168.66145831.71437503 0 0 1 -.0052.07958h-.264583-.259416-.524516a.396875.52916664 0 0 0 .392225.4495847.396875.52916664 0 0 0 .348299-.27802h.270784a.66145831.71437503 0 0 1 -.619083.463021.66145831.71437503 0 0 1 -.661459-.7141677.66145831.71437503 0 0 1 .661459-.714168zm1.3358353 0c.2922 0 .529096.18947.529167.423229h-.198438c0-.146129-.148073-.264583-.330729-.264583-.1826573 0-.3307293.118454-.3307293.264583 0 0 .04472.123363.319877.152963.2664223.02862.6196013.166077.6196013.3756867.00014.2632-.260699.476607-.582394.476457-.3214943-.00009-.5820163-.213417-.5818763-.476457h.224792c-.000165.16146.159739.292439.3570843.292489.197547.00018.385791-.133339.357601-.292489-.01433-.08087-.219419-.1330667-.4103113-.1777667-.116001-.02716-.502811-.123382-.502811-.350883.000071-.233759.236966-.423229.5291663-.423229zm-5.5428143.02584h.2113569v1.4024977h-.2113569zm2.672189.158646c-.219188 0-.396875.236917-.396875.529167 0 .2922497.177687.5291667.396875.5291667s.396875-.236917.396875-.5291667c0-.29225-.177687-.529167-.396875-.529167zm-4.4715623.000517a.396875.52916664 0 0 0 -.3968749.529167.396875.52916664 0 0 0 .3968749.5291667.396875.52916664 0 0 0 .396875-.5291667.396875.52916664 0 0 0 -.396875-.529167zm2.9367719 0a.396875.52916664 0 0 0 -.396875.529167.396875.52916664 0 0 0 .396875.5291667.396875.52916664 0 0 0 .396875-.5291667.396875.52916664 0 0 0 -.396875-.529167zm3.0628614 0a.396875.52916664 0 0 0 -.377237.396875h.767911a.396875.52916664 0 0 0 -.383955-.396875.396875.52916664 0 0 0 -.0067 0z" fill="#fff" stroke-width=".264583"/></svg>