<?xml version="1.0" encoding="UTF-8"?>
<svg version="1.1" viewBox="0 0 48 48" xmlns="http://www.w3.org/2000/svg">
    <path d="m19.068 16.212c-1.9423 0.5778-3.6098 1.1232-4.7668 1.2594-1.2041 2.1469-1.98 4.5786-2.3806 6.6282-1.3809 7.0645 0.15411 18.44 4.0248 19.748 3.8707 1.3082 10.419-6.117 13.614-11.504 1.3535-2.2824 2.542-5.2366 2.8814-8.2097-0.78228-0.78201-1.575-2.0275-2.4174-3.3988-1.6213 2.4876-4.7142 4.6701-7.2855 3.8499-2.4352-0.7768-4.1313-4.38-3.6694-8.3736z" fill="#fff"/>
    <path d="m19.615 8.8128c-4.2794 0.064091-7.8704 4.0243-7.3536 6.7884 0.40884 1.6572 3.1867 0.38763 7.0332-0.68859 0.22084-1.1537 0.61494-1.9203 1.3682-2.8055-1.9979 0.23842-3.4702-0.17294-7.3535 1.7998 2.2094-1.9038 5.6747-2.5317 7.9995-2.4741 0.9999-0.5359 2.2448-0.43928 3.4301-0.13256-1.2656-1.187-3.2659-2.5152-5.1239-2.4874z" fill="#fff"/>
    <path d="m29.605 13.119c1.1571 0.73717 1.6408 1.6718 1.7859 2.6384 2.2385 2.1355 3.2397 3.683 3.5371 6.6561-0.62481-1.8695-2.2226-4.3844-3.5039-5.4318-0.13265 1.0595-0.50193 1.9799-0.87455 2.8685 1.5412 2.5178 2.8347 4.7273 4.2752 4.7557 2.5431 0.12715 2.2605-6.649-0.46581-9.7287-1.1143-1.2587-2.9018-1.8208-4.7539-1.7583z" fill="#fff"/>
    <path d="m23.113 23.576c-2.5817-0.82351-4.1937-5.3888-2.4678-9.6688 1.0032-2.4878 3.5232-2.0206 5.341-1.2425 0.66772 0.28582-1.3975 5.1885-1.161 5.2886 0.22548 0.0535 2.1189-4.8993 2.5644-4.8067 4.1601 0.8643 3.2649 4.1688 2.5529 5.9678-1.0007 2.5283-4.2388 5.2879-6.8293 4.4615z" fill="#fff"/>
    <path d="m32.448 4.0571c-2.5071 1.3398-5.1596 4.6002-6.1758 7.914 0.4707-0.10697 1.1104 0.17108 1.3113 0.37891 1.2695-3.4 3.5048-5.5258 5.4517-7.2781 0.45262-0.40739-0.04192-1.3062-0.58714-1.0148z" color="#000000" color-rendering="auto" dominant-baseline="auto" fill="#fff" image-rendering="auto" shape-rendering="auto" solid-color="#000000" style="font-feature-settings:normal;font-variant-alternates:normal;font-variant-caps:normal;font-variant-ligatures:normal;font-variant-numeric:normal;font-variant-position:normal;isolation:auto;mix-blend-mode:normal;shape-padding:0;text-decoration-color:#000000;text-decoration-line:none;text-decoration-style:solid;text-indent:0;text-orientation:mixed;text-transform:none;white-space:normal"/>
</svg>
