<?xml version="1.0" encoding="UTF-8"?>
<svg viewBox="0 0 48 48" xmlns="http://www.w3.org/2000/svg">
    <path
     style="fill:#ffffff;stroke-width:0.08992767"
     d="m 38.01694,25.640671 v -9.802116 h -4.81113 -4.811129 v -1.16906 -1.169059 H 23.94326 19.491841 v 1.169059 1.16906 h -0.93633 c -1.276191,0 -1.956826,0.147362 -4.535617,0.981997 -1.219278,0.394622 -2.672127,0.863999 -3.228555,1.043057 L 9.7796527,18.18917 v 8.626806 8.62681 H 23.898297 38.01694 Z m -15.287703,7.677036 c -1.920737,-0.377782 -3.683276,-1.397978 -4.757692,-2.753856 -3.136069,-3.957611 -1.75248,-9.689032 2.841857,-11.772204 1.866143,-0.84615 4.324247,-0.825703 6.264204,0.05211 2.044862,0.925274 3.627914,2.839217 4.208607,5.088291 0.27175,1.052514 0.272499,2.622158 0.0017,3.649439 -0.697819,2.647609 -2.533795,4.591366 -5.141467,5.443299 -0.743019,0.242746 -1.006609,0.282887 -2.023372,0.308125 -0.642983,0.01597 -1.270228,0.0091 -1.393879,-0.0152 z m 2.110095,-2.505186 c 1.976137,-0.35208 3.590344,-1.894736 4.057958,-3.878087 0.183124,-0.776707 0.125681,-2.10287 -0.123059,-2.841023 -0.559281,-1.659694 -2.058957,-2.993423 -3.774705,-3.357015 -0.789509,-0.167307 -1.399618,-0.164482 -2.246283,0.0104 -1.852445,0.382633 -3.349397,1.821493 -3.85116,3.701712 -0.185736,0.695994 -0.184011,1.906644 0.0038,2.631003 0.50589,1.95168 2.217164,3.483666 4.219278,3.777232 0.690763,0.101289 0.932538,0.09504 1.714224,-0.04423 z M 13.262595,15.906844 15.445097,15.165782 v -0.427998 -0.427999 h -2.248193 -2.248191 v 1.169059 c 0,0.642983 0.02956,1.169059 0.06569,1.169059 0.03613,0 1.047815,-0.333477 2.248192,-0.741059 z M 46,24 A 22,22 0 0 1 24,46 22,22 0 0 1 2,24 22,22 0 0 1 24,2 22,22 0 0 1 46,24 Z" />
</svg>
