<?xml version="1.0" encoding="UTF-8" standalone="no"?>
<svg
   xmlns:dc="http://purl.org/dc/elements/1.1/"
   xmlns:cc="http://creativecommons.org/ns#"
   xmlns:rdf="http://www.w3.org/1999/02/22-rdf-syntax-ns#"
   xmlns:svg="http://www.w3.org/2000/svg"
   xmlns="http://www.w3.org/2000/svg"
   xmlns:sodipodi="http://sodipodi.sourceforge.net/DTD/sodipodi-0.dtd"
   xmlns:inkscape="http://www.inkscape.org/namespaces/inkscape"
   width="48"
   height="48"
   viewBox="0 0 48 48"
   version="1.1"
   id="svg994"
   sodipodi:docname="foodtracker.svg"
   inkscape:version="0.92.4 5da689c313, 2019-01-14"
   inkscape:export-xdpi="400"
   inkscape:export-ydpi="400">
  <metadata
     id="metadata1000">
    <rdf:RDF>
      <cc:Work
         rdf:about="">
        <dc:format>image/svg+xml</dc:format>
        <dc:type
           rdf:resource="http://purl.org/dc/dcmitype/StillImage" />
        <dc:title />
      </cc:Work>
    </rdf:RDF>
  </metadata>
  <defs
     id="defs998" />
  <sodipodi:namedview
     pagecolor="#ffffff"
     bordercolor="#666666"
     borderopacity="1"
     objecttolerance="10"
     gridtolerance="10"
     guidetolerance="10"
     inkscape:pageopacity="0"
     inkscape:pageshadow="2"
     inkscape:window-width="2160"
     inkscape:window-height="1359"
     id="namedview996"
     showgrid="false"
     inkscape:snap-global="true"
     inkscape:zoom="8.0000004"
     inkscape:cx="5.0409455"
     inkscape:cy="14.332254"
     inkscape:window-x="0"
     inkscape:window-y="44"
     inkscape:window-maximized="1"
     inkscape:current-layer="svg994"
     inkscape:object-paths="true"
     inkscape:snap-grids="true"
     inkscape:snap-bbox="true"
     inkscape:bbox-nodes="true">
    <inkscape:grid
       type="xygrid"
       id="grid1548" />
  </sodipodi:namedview>
  <path
     style="fill:#ffffff;fill-opacity:1"
     d="M 24 2 A 22 22 0 0 0 2 24 A 22 22 0 0 0 24 46 A 22 22 0 0 0 46 24 A 22 22 0 0 0 24 2 z M 35.345703 13.367188 C 35.496981 13.371701 35.657235 13.389903 35.830078 13.423828 C 36.53996 13.601299 37.475533 14.553842 37.861328 15.060547 C 37.942878 15.16765 37.839892 15.296927 37.724609 15.216797 C 35.56583 13.854138 35.180123 14.147487 34.435547 14.654297 C 33.263259 15.524041 33.240374 17.409936 32.671875 18.792969 C 33.129406 18.942059 33.245118 19.1904 33.515625 19.957031 C 33.565625 20.098732 33.598176 20.242521 33.628906 20.388672 C 32.950975 20.50353 32.24569 20.421362 31.251953 19.830078 C 30.71102 19.508217 30.398994 19.217505 30.234375 18.982422 C 30.069759 18.74734 30.038598 18.575174 30.048828 18.396484 C 30.053248 18.319091 30.073809 18.240046 30.099609 18.160156 C 30.113409 18.156656 30.126775 18.151837 30.140625 18.148438 C 31.051148 17.924886 31.438465 18.179216 31.662109 18.414062 C 32.363308 16.260213 32.642886 14.550932 34.09375 13.714844 C 34.515884 13.47158 34.891871 13.353647 35.345703 13.367188 z M 29.257812 18.410156 C 29.251428 18.736179 29.336916 19.096948 29.578125 19.441406 C 29.833548 19.80616 30.235168 20.157789 30.839844 20.517578 C 31.934202 21.168735 32.870417 21.300784 33.707031 21.179688 C 33.701707 23.752485 31.344161 26.72144 29.546875 28.294922 C 23.426581 33.653115 6.164199 34.867171 10.431641 31.908203 C 11.677483 31.044352 15.69523 29.369485 18.576172 27.222656 C 21.949957 24.438898 24.627322 19.984527 29.257812 18.410156 z "
     id="circle992-3" />
  <g
     inkscape:groupmode="layer"
     id="layer2"
     inkscape:label="Layer 2" />
</svg>
