<?xml version="1.0" encoding="UTF-8"?>
<svg version="1.1" viewBox="0 0 48 48" xmlns="http://www.w3.org/2000/svg">
    <path d="m24 2a22 22 0 0 0 -22 22 22 22 0 0 0 22 22 22 22 0 0 0 22 -22 22 22 0 0 0 -22 -22zm0 10.42a6.9757 6.9757 0 0 1 6.9766 6.9766 6.9757 6.9757 0 0 1 -0.017578 0.33594 6.9757 6.9757 0 0 1 1.5371 -0.17969 6.9757 6.9757 0 0 1 6.9766 6.9766 6.9757 6.9757 0 0 1 -6.9766 6.9766h-16.992a6.9757 6.9757 0 0 1 -6.9766 -6.9766 6.9757 6.9757 0 0 1 6.9766 -6.9766 6.9757 6.9757 0 0 1 1.5312 0.17969 6.9757 6.9757 0 0 1 -0.011718 -0.33594 6.9757 6.9757 0 0 1 6.9766 -6.9766z" fill="#fff"/>
</svg>
