<svg width="48" height="48" version="1.1" viewBox="0 0 48 48" xmlns="http://www.w3.org/2000/svg">
 <g>
  <path d="m7 5c-1.108 0-2 0.892-2 2v23.842c0.27873-0.51162 0.67603-0.91898 1.1465-1.1816v-21.635c0-1.0411 0.8378-1.8789 1.8789-1.8789h31.949c1.0411 0 1.8789 0.8378 1.8789 1.8789v21.635c0.47045 0.26266 0.86776 0.67002 1.1465 1.1816v-23.842c0-1.108-0.892-2-2-2h-34zm8.4668 14.646c-1.0299-0.018531-2.2041 0.057054-3.5195 0.27734 1.3024 0.44457 1.8439 1.0053 3.9316 4.4922 0 0 1.2431 3.1943 7.3301 2.7148 0.28703 0.10642 0.59891 0.48972 0.96875 1.5898l-0.0625 1.498h-16.336c-1.5398 0-2.7793 1.4568-2.7793 3.2676v3.5723 0.52539 3.416c0 0.14134 0.015342 0.2792 0.042969 0.41211 0.024538 0.11805 0.06125 0.23249 0.10547 0.3418 0.020809 0.051255 0.049393 0.097475 0.074219 0.14648 0.029761 0.058919 0.056561 0.11847 0.091797 0.17383 0.029665 0.046526 0.064348 0.089033 0.097656 0.13281 0.040966 0.053956 0.082767 0.10682 0.12891 0.15625 0.037473 0.040105 0.076541 0.078341 0.11719 0.11524 0.047818 0.043458 0.098487 0.082401 0.15039 0.12109 0.045161 0.033669 0.09066 0.065881 0.13867 0.095703 0.056053 0.034813 0.11422 0.064518 0.17383 0.09375 0.048758 0.023947 0.095564 0.050315 0.14648 0.070313 0.072816 0.028559 0.14981 0.048365 0.22656 0.068359 0.042008 0.010945 0.081947 0.024956 0.125 0.033204 0.12361 0.023735 0.25009 0.039062 0.38086 0.039062h34c0.13077 0 0.25725-0.015327 0.38086-0.039062 0.043054-0.008249 0.082992-0.022259 0.125-0.033204 0.076757-0.019994 0.15375-0.0398 0.22656-0.068359 0.050921-0.019998 0.097726-0.046366 0.14648-0.070313 0.05961-0.029232 0.11778-0.058937 0.17383-0.09375 0.048012-0.029822 0.093511-0.062034 0.13867-0.095703 0.051904-0.038692 0.10257-0.077635 0.15039-0.12109 0.040647-0.036894 0.079714-0.07513 0.11719-0.11524 0.04614-0.049435 0.087941-0.10229 0.12891-0.15625 0.033308-0.043779 0.067991-0.086286 0.097656-0.13281 0.035235-0.055358 0.062036-0.11491 0.091797-0.17383 0.024825-0.04901 0.053411-0.09523 0.074218-0.14648 0.04422-0.10931 0.080931-0.22375 0.10547-0.3418 0.027627-0.13291 0.042969-0.27077 0.042969-0.41211v-3.416-0.52539-3.5723c0-1.8108-1.2395-3.2676-2.7793-3.2676h-15.168l-0.033203-1.7168c4.45e-4 -0.48844 0.22058-0.82971 0.4668-1.1543 1.0809 0.28353 0.91003 0.6344 3.4004 0.84375 4.9898-0.29565 6.1505-5.3919 6.1777-6.1465-2.8455 1.8238-3.1422 1.0062-5.4902 1.0605-4.7046-0.063049-4.6797 4.1172-4.6797 4.1172l-0.34375 0.71875c-0.21559-0.56431-0.52237-1.0376-0.9043-1.4355 0.008522-2.6527-0.87274-4.5323-2.7773-5.5215-0.51014-0.38017-2.3125-1.2823-5.4023-1.3379z" fill="#fff"/>
 </g>
</svg>
