<?xml version="1.0" encoding="UTF-8"?>
<svg version="1.1" viewBox="0 0 48 48" xmlns="http://www.w3.org/2000/svg">
    <path d="m27.697 8.3643c2.4613 1.4697 5.4181 2.7469 5.5423 6.0992-5.5423-6.0992-14.274 0.0333-14.78 5.3338-0.49527 5.1795 4.5546 10.221 11.158 5.4641-2.1839-0.40971-4.3512-0.07199-5.8238-3.109 5.0408 0.30209 6.7136-2.7156 6.6786-6.1484 1.2748 1.3011 1.6841 3.6259 2.1451 3.3185 0 0 0.53336-1.1551 0.28204-3.7024 5.0136 5.3376 0.03919 13.143-5.3931 15.542-6.8155 3.0109-15.672-0.42769-16.981-8.9813-0.77738-5.0803 1.9355-10.344 6.1662-13.653 6.8063-5.3227 19.204-5.7309 20.918 6.6105-2.4334-4.5025-3.9586-6.5776-9.9115-6.7748z" fill="#fff"/>
    <text x="11.838764" y="42.5" fill="#ffffff" font-family="STIXIntegralsD" font-size="11.06px" font-weight="bold" letter-spacing="0px" stroke-width="1.0368" word-spacing="0px" style="font-feature-settings:normal;font-variant-caps:normal;font-variant-ligatures:normal;font-variant-numeric:normal;line-height:1.25" xml:space="preserve"><tspan x="11.838764" y="42.5" fill="#ffffff" stroke-width="1.0368">PDF</tspan></text>
</svg>
