<?xml version="1.0" encoding="UTF-8"?>
<svg version="1.1" viewBox="0 0 48 48" xmlns="http://www.w3.org/2000/svg">
    <path d="m34.209 10.346-8.8535 8.7676 12.021 3.2832zm-25.174 6.6133 3.2031 12.041 8.8262-8.7949zm15.68 4.0371 4.2058 15.931 7.8235-12.685zm-1.9277 0.11914-8.8516 8.7695 13.142 7.2021zm-15.787-16.116c-1.108 0-2 0.892-2 2v34c0 1.108 0.892 2 2 2h34c1.108 0 2-0.892 2-2v-34c0-1.108-0.892-2-2-2zm28.058 2.1907 4.3477 16.146-10.459 16.833-17.51-9.2782-4.3652-16.15 16.17 4.2949z" fill="#fff"/>
</svg>
