<svg xmlns="http://www.w3.org/2000/svg" viewBox="0 0 48 48">
  <path
     style="fill:#ffffff"
     d="M 4.4277344 9.4609375 L 4.4277344 34.804688 L 4.9277344 33.736328 L 4.9277344 9.9609375 L 43.125 9.9609375 L 43.142578 26.730469 L 43.759766 26.376953 L 43.621094 9.4609375 L 4.4277344 9.4609375 z M 10.417969 12.308594 A 2.9461958 2.9461958 0 0 0 7.4707031 15.255859 A 2.9461958 2.9461958 0 0 0 10.417969 18.201172 A 2.9461958 2.9461958 0 0 0 13.363281 15.255859 A 2.9461958 2.9461958 0 0 0 10.417969 12.308594 z M 14.511719 19.619141 L 4.0546875 36.25 L 4.03125 38.201172 L 43.888672 38.205078 L 43.923828 26.808594 L 38.748047 30.115234 L 29.164062 20.919922 L 18.316406 28.892578 L 14.511719 19.619141 z " />
</svg>
