<svg xmlns="http://www.w3.org/2000/svg" viewBox="0 0 48 48"><defs><style>.cls-1{fill:#2b2b2b;}.cls-2{fill:#fff;}</style></defs><title>freemobilenetstat</title><g id="Layer_2" data-name="Layer 2"><rect class="cls-1" x="-166.58" y="-240.44" width="674.7" height="426.15"/><rect class="cls-1" x="-111.23" y="-240.44" width="674.7" height="426.15"/><rect class="cls-1" x="-166.58" y="-187.04" width="674.7" height="426.15"/><rect class="cls-1" x="-111.23" y="-187.04" width="674.7" height="426.15"/><rect class="cls-1" x="-166.58" y="-295.51" width="674.7" height="426.15"/><rect class="cls-1" x="-111.23" y="-295.51" width="674.7" height="426.15"/><rect class="cls-1" x="-165.74" y="-242.59" width="674.7" height="426.15"/></g><g id="Layer_1" data-name="Layer 1"><path class="cls-2" d="M24,2A22,22,0,1,0,46,24,22,22,0,0,0,24,2ZM10.61,34.92A15.44,15.44,0,0,1,32.45,13.08L21.53,24,32.45,34.92A15.43,15.43,0,0,1,10.61,34.92Zm26.78,0L26.47,24,37.39,13.08A15.43,15.43,0,0,1,37.39,34.92Z"/></g></svg>