<?xml version="1.0" encoding="UTF-8" standalone="no"?>
<svg
   xmlns:dc="http://purl.org/dc/elements/1.1/"
   xmlns:cc="http://creativecommons.org/ns#"
   xmlns:rdf="http://www.w3.org/1999/02/22-rdf-syntax-ns#"
   xmlns:svg="http://www.w3.org/2000/svg"
   xmlns="http://www.w3.org/2000/svg"
   viewBox="0 0 48 48"
   height="48"
   width="48"
   version="1.1"
   id="svg2">
  <metadata
     id="metadata8">
    <rdf:RDF>
      <cc:Work
         rdf:about="">
        <dc:format>image/svg+xml</dc:format>
        <dc:type
           rdf:resource="http://purl.org/dc/dcmitype/StillImage" />
        <dc:title></dc:title>
      </cc:Work>
    </rdf:RDF>
  </metadata>
  <defs
     id="defs6" />
  <path
     id="circle4"
     d="M 24,2 C 11.849736,2 2,11.849736 2,24 2,36.150264 11.849736,46 24,46 36.150264,46 46,36.150264 46,24 46,11.849736 36.150264,2 24,2 Z m -2.142578,5.2246094 c 0.437547,-0.030987 0.847448,0.073344 1.175781,0.3535156 0.41491,0.3540494 0.707466,0.7199002 0.602164,1.3382045 C 23.521424,9.5853761 22.9794,10.512256 22.662109,11 l -1.458984,2.099609 c -1.387063,-0.452205 -2.864195,-0.887039 -4.222656,-1.080078 0.772255,-0.785807 1.119356,-1.512763 1.847656,-2.582031 0.46387,-0.6810398 0.98868,-1.3323501 1.6875,-1.7578125 0.439056,-0.2577873 0.90425,-0.4240913 1.341797,-0.4550781 z m 5.749425,1.2820168 C 29.776074,9.3871995 27.585754,12.275723 27,13.285156 c 0,0 -2.694695,4.316733 -3.994141,6.542969 -0.632968,0.823143 -2.198695,0.8977 -2.818359,0.04492 -0.161898,-0.247886 -0.258307,-0.535491 -0.279297,-0.814453 1.572064,0.188048 2.718157,-0.174993 3.265625,-1.023438 0.547468,-0.848445 0.59373,-3.453255 -1.027349,-4.361328 0,0 0.518197,-0.80923 0.994141,-1.498047 0.879159,-1.235042 1.429863,-2.8106404 2.304055,-3.5315357 0.559157,-0.4611046 1.315945,-0.4811334 2.162172,-0.1376171 z m 4.364334,2.8474448 c 1.366067,0.602209 0.513286,2.082535 0.134498,2.803347 -0.37879,0.720812 -2.965663,4.287004 -4.080288,5.86016 -0.485999,0.590743 -1.282961,0.917349 -1.6875,1.091797 -0.404539,0.174448 -0.727093,0.173224 -1.173829,-0.08203 -0.383499,-0.219129 -0.547934,-0.616939 -0.585937,-1.095703 -0.038,-0.478764 0.106864,-1.013171 0.191406,-1.160157 l -0.0098,-0.0059 c 1.174142,-2.066685 2.958984,-5.09375 2.958984,-5.09375 0.443763,-0.633036 1.246381,-1.842695 2.078948,-2.295879 0.750056,-0.408272 1.41825,-0.354834 2.173518,-0.02189 z m -15.918447,1.518976 c 2.166924,0.297215 4.037481,0.847924 5.324266,1.439452 1.286785,0.591528 1.541774,2.033978 1.048832,3.027344 -0.492942,0.993366 -2.155333,0.844049 -3.746093,0.402344 C 17.607482,17.439438 16.75,17.103516 16.75,17.103516 l -0.365234,0.929687 2.523437,0.800781 c 0,0 0.142704,1.144287 0.447266,1.603516 l 0.0059,0.0078 0.0039,0.0059 c 1.021596,1.427147 3.207164,1.372481 4.316407,0.111328 0.143686,0.517417 0.441992,1.022954 0.986328,1.333984 0.676596,0.386604 1.423943,0.407907 2.066406,0.13086 0.454066,-0.195805 0.987585,-0.517217 1.378906,-0.917969 0.159904,0.790559 0.303212,1.700016 1.347656,2.134766 1.974234,0.833956 3.313932,-0.303591 4.41211,-1.697266 0.549357,-0.697178 1.271484,-1.681641 1.271484,-1.681641 0,0 -0.401742,2.551512 -0.5,3.324219 -0.133581,1.879135 -1.525255,3.833228 -2.828125,5.466797 C 30.622405,30.153389 29.649783,30.807062 29.455113,31 l 0,1.000028 -10.902344,0 0,-2.000028 c -2.001468,-2.655678 -4.620111,-4.825721 -5.800779,-7.730447 -1.379022,-3.392724 0.720354,-7.175803 3.300781,-9.396484 z m 19.40625,1.005859 c 1.463385,0.845712 0.481137,3.048763 -0.375,4.171875 l -2.755859,3.615235 c -0.848525,1.076811 -2.374312,1.23894 -2.912109,0.324218 -0.537797,-0.914722 0.47192,-2.85357 1.201171,-4.103515 0,0 1.507972,-1.983188 2.322266,-3.06836 0.699815,-0.932611 1.643259,-1.445863 2.519531,-0.939453 z M 16,33 l 16,0 0,5 -16,0 z m 2.552734,6 10.902344,0 0,2.162109 -10.152344,0 -0.75,0 z"
     style="fill:#ffffff" />
</svg>
