<svg xmlns:rdf="http://www.w3.org/1999/02/22-rdf-syntax-ns#" xmlns="http://www.w3.org/2000/svg" height="48" width="48" version="1.1" xmlns:cc="http://creativecommons.org/ns#" viewBox="0 0 48 48" xmlns:dc="http://purl.org/dc/elements/1.1/">
 <path fill="#fff" d="m24 2c-12.2 0-22 9.8-22 22s9.8 22 22 22 22-9.8 22-22-9.8-22-22-22zm-2.14 5.22c0.438-0.031 0.847 0.0733 1.18 0.354 0.415 0.354 0.707 0.72 0.6 1.34-0.2 0.68-0.7 1.6-1 2.1l-1.46 2.1c-1.4-0.452-2.86-0.887-4.22-1.08 0.772-0.786 1.12-1.51 1.85-2.58 0.464-0.681 1-1.33 1.7-1.76 0.44-0.258 0.904-0.424 1.34-0.455zm5.75 1.28c2.2 0.9 0 3.8-0.6 4.8 0 0-2.7 4.32-4 6.54-0.633 0.823-2.2 0.9-2.82 0.045-0.162-0.248-0.258-0.535-0.28-0.814 1.57 0.188 2.72-0.175 3.27-1 0.547-0.848 0.6-3.45-1-4.36 0 0 0.518-0.81 1-1.5 0.88-1.24 1.43-2.81 2.3-3.53 0.56-0.461 1.32-0.481 2.16-0.138zm4.36 2.85c1.37 0.6 0.513 2.08 0.134 2.8-0.379 0.721-3 4.3-4.08 5.86-0.486 0.591-1.28 0.917-1.7 1.1-0.405 0.174-0.727 0.173-1.17-0.082-0.383-0.22-0.548-0.617-0.586-1.1-0.038-0.48 0.107-1 0.191-1.16l-0.01-0.006c1.17-2.07 3-5.1 3-5.1 0.444-0.633 1.25-1.84 2.08-2.3 0.75-0.408 1.42-0.355 2.17-0.022zm-15.9 1.52c2.17 0.3 4 0.848 5.32 1.44 1.29 0.592 1.54 2 1.05 3-0.493 1-2.16 0.844-3.75 0.4-1.1-0.4-1.9-0.7-1.9-0.7l-0.365 0.93 2.52 0.8s0.143 1.14 0.447 1.6l0.006 0.0078 0.0039 0.006c1 1.43 3.21 1.37 4.32 0.111 0.144 0.517 0.442 1 1 1.33 0.677 0.387 1.42 0.408 2.07 0.131 0.454-0.2 1-0.517 1.38-0.918 0.16 0.791 0.3 1.7 1.35 2.13 2 0.834 3.31-0.304 4.41-1.7 0.55-0.7 1.27-1.68 1.27-1.68s-0.4 2.55-0.5 3.32c-0.134 1.88-1.53 3.83-2.83 5.47-1.3 1.6-2.3 2.2-2.4 2.4v1h-10.9v-2c-2-2.66-4.62-4.83-5.8-7.73-1.38-3.4 0.72-7.18 3.3-9.4zm19.4 1c1.46 0.846 0.481 3.05-0.375 4.17l-2.76 3.62c-0.85 1.08-2.37 1.24-2.91 0.324-0.538-0.915 0.472-2.85 1.2-4.1 0 0 1.51-2 2.32-3.07 0.7-0.933 1.64-1.45 2.52-0.94zm-19.5 19.1h16v5h-16zm2.55 6h10.9v2.16h-10.2-0.75z"/>
</svg>
