<?xml version="1.0" encoding="UTF-8"?>
<svg width="48" height="48" viewBox="0 0 48 48">
    <path d="m 20.864864,2.0068327 c 0.568239,-0.040218 1.098856,0.095096 1.530874,0.4592622 0.5384,0.4592622 0.917227,0.9340926 0.77841,1.7384501 -0.25947,0.8821986 -0.908146,2.0757614 -1.297351,2.7244368 L 19.982665,9.6534186 C 18.166374,9.067016 16.272242,8.5026684 14.507844,8.2522797 15.509399,7.2325619 15.960877,6.2932799 16.907943,4.9051145 17.509914,4.0216186 18.205294,3.1796379 19.11344,2.621777 19.684274,2.2870605 20.286245,2.0717002 20.85189,2.0314824 Z m 7.459767,1.6606091 c 2.854172,1.1676157 0,4.9299332 -0.778411,6.2272844 0,0 -3.502847,5.6045548 -5.189403,8.4846738 -0.821223,1.06772 -2.854172,1.167616 -3.658529,0.05838 -0.210171,-0.321743 -0.334717,-0.694083 -0.363259,-1.056044 2.036841,0.243902 3.528795,-0.227036 4.242338,-1.297351 0.709651,-1.100153 0.77841,-4.47586 -1.297351,-5.656449 0,0 0.672028,-1.0508542 1.297351,-1.9460262 1.141668,-1.6087151 1.855211,-3.6455559 2.983907,-4.5796485 0.726516,-0.5980788 1.712503,-0.6240258 2.802277,-0.1790344 z m 5.65645,3.6974499 c 1.77737,0.7784105 0.665541,2.6984893 0.173845,3.6325823 -0.491696,0.93539 -3.892053,5.578608 -5.293192,7.602476 -0.630512,0.766734 -1.660609,1.189671 -2.205496,1.427086 -0.525427,0.225739 -0.943174,0.224441 -1.517901,-0.106383 -0.496885,-0.285417 -0.710948,-0.800466 -0.760247,-1.427086 -0.0493,-0.622728 0.138816,-1.297351 0.247794,-1.504927 l -0.01297,-0.0078 c 1.517901,-2.685516 3.892053,-6.616489 3.892053,-6.616489 0.576023,-0.8212233 1.621688,-2.3871257 2.698489,-2.9839071 0.973014,-0.5293192 1.842239,-0.4605596 2.815252,-0.028542 z M 13.353202,9.336865 c 2.815251,0.3892052 5.189404,1.100153 6.901907,1.868185 1.673582,0.768032 1.99792,2.594702 1.362218,3.892053 -0.639594,1.29735 -2.802278,1.094964 -4.865066,0.51894 -1.427086,-0.51894 -2.464966,-0.908146 -2.464966,-0.908146 l -0.473533,1.206537 3.269324,1.03788 c 0,0 0.185521,1.47898 0.579916,2.075762 l 0.0078,0.01012 0.0051,0.0078 c 1.297351,1.855212 4.164497,1.777371 5.604556,0.144006 0.186819,0.67073 0.573429,1.297351 1.297351,1.725477 0.878306,0.502074 1.842238,0.529319 2.685516,0.169953 0.588997,-0.259471 1.297351,-0.670731 1.790344,-1.190969 0.207576,1.026205 0.389206,2.205497 1.751424,2.763358 2.594702,1.08199 4.294231,-0.394395 5.721317,-2.205497 0.713543,-0.908145 1.647636,-2.179549 1.647636,-2.179549 0,0 -0.518941,3.308245 -0.648676,4.307205 -0.173845,2.439019 -1.984946,4.968853 -3.671503,7.096509 -1.686556,2.075761 -2.983906,2.854172 -3.113642,3.113642 v 1.297351 H 16.599044 V 31.492763 C 14.004343,28.04181 10.605283,25.226558 9.0744095,21.464241 7.2840654,17.053248 10.008502,12.149262 13.355667,9.2691433 Z m 25.168607,1.297351 c 1.894132,1.097558 0.624025,3.95692 -0.486507,5.409953 l -3.580688,4.69641 c -1.102749,1.401139 -3.074722,1.608715 -3.775291,0.420341 -0.697975,-1.187076 0.612349,-3.69745 1.556821,-5.319138 0,0 1.958999,-2.594702 3.009854,-3.982867 0.908145,-1.210429 2.127655,-1.8811588 3.269324,-1.21951 z M 13.223467,35.413617 h 20.757614 v 6.486754 H 13.223467 Z m 3.308245,7.784105 H 30.672836 V 46 H 16.466844 Z" fill="#fff"/>
</svg>
