<?xml version="1.0" encoding="utf-8"?>
<!-- Generator: Adobe Illustrator 21.1.0, SVG Export Plug-In . SVG Version: 6.00 Build 0)  -->
<svg version="1.0" id="Layer_1" xmlns="http://www.w3.org/2000/svg" xmlns:xlink="http://www.w3.org/1999/xlink" x="0px" y="0px"
	 viewBox="0 0 48 48" style="enable-background:new 0 0 48 48;" xml:space="preserve">
<style type="text/css">
	.st0{fill:#FFFFFF;}
</style>
<path class="st0" d="M24,46C11.8,46,2,36.2,2,24C2,11.9,11.9,2,24,2c12.1,0,22,9.9,22,22C46,36.2,36.2,46,24,46z M36.7,34
	c-0.1-0.3-0.1-0.4-0.2-0.5c-2.3-2.4-4.7-4.9-7-7.3c-0.2-0.2-0.8,0-1.1,0.2c-0.6,0.5-1,1.2-1.4,1.6c-2.4-2.3-4.8-4.5-7.3-6.8
	c-2.9,4.2-5.8,8.4-8.8,12.9C19.7,34,28.1,34,36.7,34z M29.4,13.8c-1.8,0-3.2,1.5-3.2,3.2c0,1.8,1.5,3.3,3.3,3.2
	c1.8,0,3.1-1.5,3.1-3.3C32.6,15.2,31.2,13.8,29.4,13.8z"/>
</svg>
