<?xml version="1.0" encoding="UTF-8" standalone="no"?>
<svg
   xmlns:dc="http://purl.org/dc/elements/1.1/"
   xmlns:cc="http://creativecommons.org/ns#"
   xmlns:rdf="http://www.w3.org/1999/02/22-rdf-syntax-ns#"
   xmlns:svg="http://www.w3.org/2000/svg"
   xmlns="http://www.w3.org/2000/svg"
   id="svg4516"
   version="1.1"
   viewBox="0 0 48 48"
   height="48"
   width="48">
  <metadata
     id="metadata4522">
    <rdf:RDF>
      <cc:Work
         rdf:about="">
        <dc:format>image/svg+xml</dc:format>
        <dc:type
           rdf:resource="http://purl.org/dc/dcmitype/StillImage" />
        <dc:title></dc:title>
      </cc:Work>
    </rdf:RDF>
  </metadata>
  <defs
     id="defs4520" />
  <path
     id="path5657"
     d="M 10 4 C 8.892 4.0000011 8 4.8920001 8 6 L 8 42 C 8 43.108 8.892 44 10 44 L 38 44 C 39.108 44 40 43.108 40 42 L 40 14.246094 L 31.753906 14.246094 C 30.645906 14.246094 29.753906 13.354094 29.753906 12.246094 L 29.753906 4 L 10 4 z M 15.626953 21.085938 L 32.373047 21.085938 L 32.373047 24.806641 L 15.626953 24.806641 L 15.626953 21.085938 z M 15.626953 27.287109 L 32.373047 27.287109 L 32.373047 31.007812 L 15.626953 31.007812 L 15.626953 27.287109 z M 15.626953 33.488281 L 32.373047 33.488281 L 32.373047 37.208984 L 15.626953 37.208984 L 15.626953 33.488281 z "
     style="fill:#ffffff" />
  <path
     id="path5655"
     d="m 29.754189,4.0007469 10.246,10.2460001 V 6.0006469 c 0,-1.108 -0.892,-2 -2,-2 z"
     style="fill:#ffffff" />
</svg>
