<?xml version="1.0" encoding="UTF-8"?>
<svg version="1.1" viewBox="0 0 48 48" xmlns="http://www.w3.org/2000/svg">
    <path d="m23.709 5.0645c-0.24423 0.00511-0.45569 1.0857-0.81836 1.7617-0.40722 0.75901 0.50378 1.4238 0.92578 1.4238s1.2341-0.61607 0.83789-1.3809c-0.38487-0.74292-0.47618-1.2687-0.83789-1.7363-0.03669-0.047441-0.072522-0.069087-0.10742-0.068359zm-9.5703 1.0352c-0.24423 0.0051-0.45764 1.0838-0.82031 1.7598-0.40722 0.759 0.50378 1.4258 0.92578 1.4258s1.2361-0.61802 0.83984-1.3828c-0.38487-0.74292-0.47814-1.2687-0.83984-1.7363-0.03669-0.047442-0.070589-0.067135-0.10547-0.066406zm19.561 0.19727c-0.24423 0.0051-0.4596 1.0877-0.82227 1.7637-0.40722 0.75901 0.50768 1.4238 0.92969 1.4238 0.422 0 1.2341-0.61608 0.83789-1.3809-0.38487-0.74292-0.47619-1.2687-0.83789-1.7363-0.03669-0.047441-0.072522-0.07104-0.10742-0.070312zm-11.137 2.4355v5.916c-2.2901 0.08065-4.5107 0.36406-6.5098 0.83008v4.8105h-2.3242v-0.65625h1.6836v-9.6816h-0.33984c-0.2328 0.28336-0.58156 0.45898-0.82031 0.45898-0.22932 0-0.58398-0.18224-0.8418-0.45898h-0.41797v6.4688c-2.9659 1.1558-4.7384 2.735-4.9512 4.4121h0.0058594c-1.731e-4 0.20135-0.0059306 0.36539-0.0078125 0.55664 2.791e-4 -0.17625 0.0020041-0.38731 0.0019531-0.55664h-0.039062v4.3984h0.0058594c-0.00178 1.7404 0.0099715 3.806 0.039062 5.4902 0.0031258 0.028596 0.015525 0.055529 0.019531 0.083985v1.3242c-0.0039955-0.028404-0.01641-0.05547-0.019531-0.083984-0.036218-2.0966-0.04358-4.379-0.044922-6.5312v10.938h0.0058594c0.0902 3.5913 7.2006 6.4852 15.943 6.4863 8.742-0.0016 15.853-2.8954 15.943-6.4863v-6.5508c0.021199-0.55105 0.014668-0.96863 0-1.3281v-2.9043c0.002591-0.019782 0.011506-0.038764 0.013672-0.058594l-0.033203-4.7773c-0.1939-1.5292-1.6867-2.983-4.2168-4.1074v3.2539h-2.3262v-0.43945h1.6406v-9.6816h-0.33789c-0.2328 0.28335-0.58546 0.45703-0.82422 0.45703-0.22932 0-0.58202-0.1803-0.83984-0.45703h-0.41797v5.8086c-2.1087-0.56072-4.5095-0.91028-7.0078-1.0176v4.3984h-2.3262v-0.63281h1.7656v-9.6816h-0.33984c-0.2328 0.28336-0.58352 0.45898-0.82226 0.45898-0.22932 0-0.58398-0.18224-0.8418-0.45898h-0.41797zm-14.561 16.781v-0.2832h-0.0019531c2.79e-5 0.092793 0.001895 0.18988 0.0019531 0.2832zm16.02-2.043 1.6055 5.7773 5.3984-0.021485-4.4043 3.498 1.6855 5.7461-4.3281-3.6133-4.3555 3.5723 1.7305-5.7305-4.3789-3.5391 5.3965 0.072266 1.6504-5.7617zm-15.986 1.8789c0.01335 0.087089 0.03707 0.17321 0.058594 0.25977h-0.027344v2.6133c-0.0040291-0.028502-0.016392-0.055305-0.019531-0.083984-0.014491-0.83882-0.011956-1.8211-0.011719-2.7891z" fill="#fff"/>
</svg>
