<?xml version="1.0" encoding="UTF-8" standalone="no"?>
<svg
   xmlns:dc="http://purl.org/dc/elements/1.1/"
   xmlns:cc="http://creativecommons.org/ns#"
   xmlns:rdf="http://www.w3.org/1999/02/22-rdf-syntax-ns#"
   xmlns:svg="http://www.w3.org/2000/svg"
   xmlns="http://www.w3.org/2000/svg"
   id="svg8"
   version="1.1"
   viewBox="0 0 12.7 12.7"
   height="48"
   width="48">
  <defs
     id="defs2" />
  <metadata
     id="metadata5">
    <rdf:RDF>
      <cc:Work
         rdf:about="">
        <dc:format>image/svg+xml</dc:format>
        <dc:type
           rdf:resource="http://purl.org/dc/dcmitype/StillImage" />
        <dc:title></dc:title>
      </cc:Work>
    </rdf:RDF>
  </metadata>
  <g
     style="display:inline"
     id="layer1">
    <g
       transform="matrix(0.26458333,0,0,0.26458333,-49.134035,-230.6724)"
       id="layer1-7">
      <path
         style="display:inline;fill:#ffffff;fill-opacity:1;fill-rule:nonzero;stroke:none;stroke-width:0.237478"
         id="path82-2"
         d="m 187.70344,890.798 c 0,-9.87897 5.54718,-12.20934 14.86866,-12.20934 h 15.56812 c 11.74533,0 13.37624,4.2383 13.37624,10.81042 v 1.07343 h -10.1629 c 0,-3.35532 -1.91139,-3.7743 -5.21822,-3.7743 h -11.23288 c -5.22168,0 -6.57212,1.25694 -6.57212,7.03612 v 4.19328 c 0,5.78264 1.35044,7.03959 6.57212,7.03959 h 11.0459 c 2.70433,0 5.4052,-0.41899 5.4052,-3.68081 v -0.97993 h -12.86378 v -6.99111 h 23.21366 v 9.60195 c 0,9.69199 -5.0347,10.15944 -16.68655,10.15944 H 202.5721 c -9.32148,0 -14.86866,-2.33037 -14.86866,-12.20933 z" />
    </g>
  </g>
</svg>
