<?xml version="1.0" encoding="UTF-8"?>
<svg version="1.1" viewBox="0 0 48 48" xmlns="http://www.w3.org/2000/svg">
    <path d="m19.208 30.374c-3.4295 0.05473-5.1312 2.5896-12.144 2.6656m1.0032-10.111c-1.524 3.5905-1.3815 6.8724-1.0032 10.111l0.42908 2.4233" fill="none" stroke="#fff" stroke-width=".89073"/>
    <path d="m27.605 26.239c8.0034-3.4385 5.7461-4.3404 8.3332-5.1514 2.1247 3.6053 3.6754 4.9301 5.1514 5.4923" fill="none" stroke="#fff" stroke-width=".89073"/>
    <path d="m39.423 23.928 2.2727-1.856 2.2727 1.5151" fill="none" stroke="#fff" stroke-width=".89073"/>
    <path d="m6.4313 21.201c1.7393 0.96252 3.0503 1.0147 3.1818-1.4394 2.366 0.86975 2.6627-0.48905 2.4242-2.4242 2.4609 0.09094 3.6403-0.62743 2.2727-2.9545 1.3453-0.42233 3.8879-1.5843 0.8341-3.6215 2.1678-2.1267 0.1156-2.931-1.4009-2.2771-0.5026-0.70181-0.24879-2.4122-2.5421-0.72633" fill="none" stroke="#fff" stroke-width=".89073"/>
    <path d="m20.825 41.277 2.803-9.6211 0.22727-6.9696" fill="none" stroke="#fff" stroke-width=".89073"/>
    <path d="m27.795 40.595-4.5454-4.5454 0.37878-4.3939" fill="none" stroke="#fff" stroke-width=".89073"/>
    <path d="m27.189 29.686-3.3333-4.9999" fill="none" stroke="#fff" stroke-width=".89073"/>
    <path d="m23.855 24.686-2.0454 5.3787-3.1818-2.6515c-1.6-1.312-2.0868-1.6068-4.2239-1.7948 0.256-0.66242-0.66781-1.8164 1.3657-1.7382 1.3369-0.10226 1.5545 0.49508 1.583 1.2105 2.1579 0.372 2.1395 0.30779 1.3968 2.2659l-3.1877-1.3975" fill="none" stroke="#fff" stroke-linejoin="round" stroke-width=".89073"/>
    <path d="m25.143 32.565c0.93137-0.91799 1.3024-1.9657 2.0454-2.8787 0.91352-1.1226 1.8888-2.5257 2.9545-3.1818 1.479 1.8502 2.813 3.1207 4.0908 4.1666-3.8057 2.2421-0.99351 2.2277-5.0757 5.606-1.0948-1.3997-2.3189-2.7132-4.0151-3.7121z" fill="none" stroke="#fff" stroke-width=".89073"/>
    <path d="m23.855 24.686c1.5945-0.5331 2.0884-4.0106 1.9003-5.2693-0.26048-1.7436-1.4115-2.6006-3.1124-3.0639-2.0081-0.54705-4.2381 1.0417-4.3181 3.3333-0.06185 1.772 0.44035 3.424 1.9422 4.3664 0.84078 0.52759 2.4231 1.023 3.588 0.63352z" fill="none" stroke="#fff" stroke-width=".89073"/>
    <path d="m14.653 24.129-2.4211-2.1728" fill="none" stroke="#fff" stroke-linecap="round" stroke-width=".9897px"/>
</svg>
