<?xml version="1.0" encoding="UTF-8"?>
<svg version="1.1" viewBox="0 0 48 48" xmlns="http://www.w3.org/2000/svg">
    <path d="m24 2a22 22 0 0 0-19.053 11h19.053v-3-1-3-1-3zm1 0.023438v2.9766h10.09a22 22 0 0 0-10.09-2.9766zm0 3.9766v3h15.092a22 22 0 0 0-3.4434-3h-11.648zm0 4v3h18.053a22 22 0 0 0-2.084-3h-15.969zm-20.594 4a22 22 0 0 0-2.4062 10 22 22 0 0 0 0.021484 1h21.979v-3-1-3-1-3h-19.594zm20.594 0v3h19.857a22 22 0 0 0-1.2617-3h-18.596zm0 4v3h20.793a22 22 0 0 0-0.62695-3h-20.166zm0 4v3h20.977a22 22 0 0 0 0.023438-1 22 22 0 0 0-0.091797-2h-20.908zm-22.908 4a22 22 0 0 0 7.9453 15h13.963v-3-1-3-1-3-1-3h-21.908zm22.908 0v3h20.424a22 22 0 0 0 0.48438-3h-20.908zm0 4v3h19.072a22 22 0 0 0 1.0918-3h-20.164zm0 4v3h16.748a22 22 0 0 0 1.8457-3h-18.594zm0 4v3h12.963a22 22 0 0 0 3.0078-3h-15.971zm-13.648 4a22 22 0 0 0 12.648 4v-4h-12.648zm13.648 0v3.9785a22 22 0 0 0 11.646-3.9785h-11.646z" fill="#fff"/>
</svg>
