<?xml version="1.0" encoding="UTF-8"?>
<svg version="1.1" viewBox="0 0 48 48" xmlns="http://www.w3.org/2000/svg">
    <path d="m13.066 5.0791a0.56073 0.56073 0 0 0-0.19295 0.76789l4.4881 7.7737a12.315 12.315 0 0 1 0.47495-0.29694 12.315 12.315 0 0 1 0.499-0.25528l-4.4925-7.7813a0.56073 0.56073 0 0 0-0.77663-0.2081z" color="#000000" color-rendering="auto" dominant-baseline="auto" fill="#fff" image-rendering="auto" shape-rendering="auto" solid-color="#000000" style="font-feature-settings:normal;font-variant-alternates:normal;font-variant-caps:normal;font-variant-ligatures:normal;font-variant-numeric:normal;font-variant-position:normal;isolation:auto;mix-blend-mode:normal;shape-padding:0;text-decoration-color:#000000;text-decoration-line:none;text-decoration-style:solid;text-indent:0;text-orientation:mixed;text-transform:none;white-space:normal"/>
    <path d="m29.652 34.91 4.4925 7.7813a0.56073 0.56073 0 1 0 0.96958-0.55979l-4.4881-7.7737a12.315 12.315 0 0 1-0.47495 0.29694 12.315 12.315 0 0 1-0.499 0.25528z" color="#000000" color-rendering="auto" dominant-baseline="auto" fill="#fff" image-rendering="auto" shape-rendering="auto" solid-color="#000000" style="font-feature-settings:normal;font-variant-alternates:normal;font-variant-caps:normal;font-variant-ligatures:normal;font-variant-numeric:normal;font-variant-position:normal;isolation:auto;mix-blend-mode:normal;shape-padding:0;text-decoration-color:#000000;text-decoration-line:none;text-decoration-style:solid;text-indent:0;text-orientation:mixed;text-transform:none;white-space:normal"/>
    <path d="m18.396 14.293a11.196 11.196 0 0 0-4.0979 15.294 11.196 11.196 0 0 0 0.4567 0.72106c4.7008 0.06321 9.4296-1.5894 13.268-4.4055a2.2392 2.2392 0 0 1-1.2198-0.99756 2.2392 2.2392 0 0 1 0.81959-3.0587 2.2392 2.2392 0 0 1 3.0587 0.81959 2.2392 2.2392 0 0 1 0.25475 0.68615c1.2198-1.2692 2.2904-2.6718 3.1446-4.1966a11.196 11.196 0 0 0-0.39072-0.7642 11.196 11.196 0 0 0-15.294-4.0979z" color="#000000" color-rendering="auto" dominant-baseline="auto" fill="#fff" image-rendering="auto" shape-rendering="auto" solid-color="#000000" style="font-feature-settings:normal;font-variant-alternates:normal;font-variant-caps:normal;font-variant-ligatures:normal;font-variant-numeric:normal;font-variant-position:normal;isolation:auto;mix-blend-mode:normal;shape-padding:0;text-decoration-color:#000000;text-decoration-line:none;text-decoration-style:solid;text-indent:0;text-orientation:mixed;text-transform:none;white-space:normal"/>
    <path d="m34.619 20.465c-3.9672 6.4526-11.404 10.748-18.976 10.963a11.196 11.196 0 0 0 13.948 2.2566 11.196 11.196 0 0 0 5.0277-13.22z" color="#000000" color-rendering="auto" dominant-baseline="auto" fill="#fff" image-rendering="auto" shape-rendering="auto" solid-color="#000000" style="font-feature-settings:normal;font-variant-alternates:normal;font-variant-caps:normal;font-variant-ligatures:normal;font-variant-numeric:normal;font-variant-position:normal;isolation:auto;mix-blend-mode:normal;shape-padding:0;text-decoration-color:#000000;text-decoration-line:none;text-decoration-style:solid;text-indent:0;text-orientation:mixed;text-transform:none;white-space:normal"/>
</svg>
