<?xml version="1.0" encoding="UTF-8" standalone="no"?>
<svg
   xmlns:dc="http://purl.org/dc/elements/1.1/"
   xmlns:cc="http://creativecommons.org/ns#"
   xmlns:rdf="http://www.w3.org/1999/02/22-rdf-syntax-ns#"
   xmlns:svg="http://www.w3.org/2000/svg"
   xmlns="http://www.w3.org/2000/svg"
   xmlns:sodipodi="http://sodipodi.sourceforge.net/DTD/sodipodi-0.dtd"
   xmlns:inkscape="http://www.inkscape.org/namespaces/inkscape"
   width="48"
   height="48"
   viewBox="0 0 48 48"
   version="1.1"
   id="svg816"
   sodipodi:docname="ghostcommander.svg"
   inkscape:version="0.92.4 (5da689c313, 2019-01-14)">
  <metadata
     id="metadata822">
    <rdf:RDF>
      <cc:Work
         rdf:about="">
        <dc:format>image/svg+xml</dc:format>
        <dc:type
           rdf:resource="http://purl.org/dc/dcmitype/StillImage" />
        <dc:title></dc:title>
      </cc:Work>
    </rdf:RDF>
  </metadata>
  <defs
     id="defs820" />
  <sodipodi:namedview
     pagecolor="#ffffff"
     bordercolor="#666666"
     borderopacity="1"
     objecttolerance="10"
     gridtolerance="10"
     guidetolerance="10"
     inkscape:pageopacity="0"
     inkscape:pageshadow="2"
     inkscape:window-width="1536"
     inkscape:window-height="811"
     id="namedview818"
     showgrid="false"
     inkscape:pagecheckerboard="true"
     inkscape:zoom="9.8333333"
     inkscape:cx="22.045366"
     inkscape:cy="20.764191"
     inkscape:window-x="-8"
     inkscape:window-y="-8"
     inkscape:window-maximized="1"
     inkscape:current-layer="svg816" />
  <path
     id="rect814"
     style="stroke-width:0.614;stroke-miterlimit:4;stroke-dasharray:none;fill:#ffffff"
     d="M 7,5 C 5.892,5 5,5.892 5,7 v 34 c 0,1.108 0.892,2 2,2 h 34 c 1.108,0 2,-0.892 2,-2 V 7 C 43,5.892 42.108,5 41,5 Z m 12.126953,4.6308594 c 0.21478,-0.023111 0.431326,0.081794 0.542969,0.2832031 l 1.261719,2.2753905 A 7.7592087,7.1623465 0 0 1 21.1875,12.083984 7.7592087,7.1623465 0 0 1 23.451172,11.615234 7.7592087,7.1623465 0 0 1 24,11.597656 a 7.7592087,7.1623465 0 0 1 0.775391,0.03516 7.7592087,7.1623465 0 0 1 0.765625,0.107422 7.7592087,7.1623465 0 0 1 0.751953,0.177735 7.7592087,7.1623465 0 0 1 0.779297,0.265625 l 1.257812,-2.2695315 c 0.148857,-0.2685459 0.485361,-0.3656542 0.753906,-0.2167969 0.268546,0.1488575 0.365657,0.4853724 0.216797,0.7539064 l -1.230469,2.220703 a 7.7592087,7.1623465 0 0 1 0.310547,0.175781 7.7592087,7.1623465 0 0 1 0.617188,0.433594 7.7592087,7.1623465 0 0 1 0.568359,0.488281 7.7592087,7.1623465 0 0 1 0.511719,0.53711 7.7592087,7.1623465 0 0 1 1.662109,3.945312 7.7592087,7.1623465 0 0 1 0.01953,0.507813 7.7592087,7.1623465 0 0 1 -0.0039,0.05469 c 10e-5,0.01004 0.0039,0.01922 0.0039,0.0293 v 0.214844 11.552734 c 0,1.039222 -0.837731,1.875 -1.876954,1.875 h -0.9375 v 3.837891 c 2e-6,1.133697 -0.913177,2.046875 -2.046874,2.046875 -1.133698,0 -2.044922,-0.913178 -2.044922,-2.046875 v -3.837891 h -1.707032 v 3.837891 c 0,1.133697 -0.911221,2.046875 -2.044922,2.046875 -1.133697,0 -2.046874,-0.913178 -2.046874,-2.046875 v -3.837891 h -0.9375 c -0.259807,0 -0.507848,-0.05181 -0.732422,-0.146484 -0.112288,-0.04734 -0.2186,-0.104585 -0.31836,-0.171875 -0.09976,-0.06729 -0.192574,-0.143756 -0.277344,-0.228516 -0.08476,-0.08477 -0.161225,-0.177584 -0.228515,-0.277344 -0.06729,-0.09976 -0.124535,-0.206072 -0.171875,-0.318359 -0.04734,-0.112287 -0.08446,-0.231182 -0.109375,-0.353516 -0.0249,-0.122333 -0.03906,-0.249003 -0.03906,-0.378906 V 19.058594 18.84375 c 0,-0.008 0.0019,-0.01544 0.002,-0.02344 a 7.7592087,7.1623465 0 0 1 -0.002,-0.06055 7.7592087,7.1623465 0 0 1 0.951172,-3.433594 7.7592087,7.1623465 0 0 1 0.875,-1.181641 7.7592087,7.1623465 0 0 1 0.527344,-0.523437 7.7592087,7.1623465 0 0 1 0.583984,-0.472656 7.7592087,7.1623465 0 0 1 0.75,-0.480469 l -1.228515,-2.216797 c -0.148858,-0.268546 -0.05175,-0.6050489 0.216797,-0.7539064 0.06714,-0.037214 0.139347,-0.058706 0.210937,-0.066406 z m -5.273437,9.1289066 c 1.133698,0 2.046875,0.913178 2.046875,2.046875 v 7.246093 c 0,1.133697 -0.913177,2.046875 -2.046875,2.046875 -1.133697,0 -2.046875,-0.913178 -2.046875,-2.046875 v -7.246093 c 0,-1.133697 0.913178,-2.046875 2.046875,-2.046875 z m 20.292968,0 c 1.133697,0 2.046875,0.913178 2.046875,2.046875 v 7.246093 c 0,1.133697 -0.913178,2.046875 -2.046875,2.046875 -1.133698,0 -2.046875,-0.913178 -2.046875,-2.046875 v -7.246093 c 0,-1.133697 0.913177,-2.046875 2.046875,-2.046875 z" />
</svg>
