<?xml version="1.0" encoding="UTF-8"?>
<svg width="48" height="48" viewBox="0 0 48 48" version="1.1">
  <path
     style="fill:#ffffff;fill-opacity:1;fill-rule:evenodd;stroke:none;stroke-width:1.35056329"
     d="m 23.997971,2.543013 c -12.148314,0 -21.997973,9.84966 -21.997973,22.00067 0,9.72001 6.3030726,17.9652 15.045273,20.87566 1.100712,0.20124 1.50183,-0.4781 1.50183,-1.06154 0,-0.52131 -0.01894,-1.90564 -0.02968,-3.74106 -6.119409,1.32895 -7.410541,-2.94963 -7.410541,-2.94963 -1.000768,-2.54176 -2.4431695,-3.21839 -2.4431695,-3.21839 -1.9974832,-1.36407 0.1512598,-1.33706 0.1512598,-1.33706 2.2081707,0.15531 3.3696587,2.26759 3.3696587,2.26759 1.962366,3.36156 5.149699,2.3905 6.403018,1.82731 0.19988,-1.42078 0.767117,-2.39049 1.396486,-2.94017 -4.884991,-0.55508 -10.021187,-2.44317 -10.021187,-10.87339 0,-2.4013 0.857611,-4.36501 2.264895,-5.90331 -0.226895,-0.55643 -0.981857,-2.79296 0.214739,-5.82228 0,0 1.847571,-0.59154 6.050531,2.25545 1.754382,-0.48891 3.63706,-0.73201 5.507594,-0.74011 1.867829,0.008 3.750518,0.2512 5.507594,0.74011 4.200256,-2.84699 6.043775,-2.25545 6.043775,-2.25545 1.200649,3.02932 0.445685,5.26585 0.21879,5.82228 1.409988,1.5383 2.262193,3.50201 2.262193,5.90331 0,8.45183 -5.144291,10.31156 -10.045489,10.85583 0.79008,0.67934 1.493727,2.02179 1.493727,4.07465 0,2.94018 -0.02704,5.31312 -0.02704,6.03432 0,0.58885 0.395708,1.27358 1.512627,1.05885 8.735442,-2.91587 15.03312,-11.15566 15.03312,-20.87297 0,-12.15101 -9.85101,-22.00067 -22.002027,-22.00067" />
</svg>
