<?xml version="1.0" encoding="UTF-8" standalone="no"?>
<svg
   xmlns:dc="http://purl.org/dc/elements/1.1/"
   xmlns:cc="http://creativecommons.org/ns#"
   xmlns:rdf="http://www.w3.org/1999/02/22-rdf-syntax-ns#"
   xmlns:svg="http://www.w3.org/2000/svg"
   xmlns="http://www.w3.org/2000/svg"
   id="svg4516"
   version="1.1"
   viewBox="0 0 48 48"
   height="48"
   width="48">
  <metadata
     id="metadata4522">
    <rdf:RDF>
      <cc:Work
         rdf:about="">
        <dc:format>image/svg+xml</dc:format>
        <dc:type
           rdf:resource="http://purl.org/dc/dcmitype/StillImage" />
        <dc:title></dc:title>
      </cc:Work>
    </rdf:RDF>
  </metadata>
  <defs
     id="defs4520" />
  <path
     id="rect5847"
     d="M 7 5 C 5.892 5 5 5.892 5 7 L 5 41 C 5 42.108 5.892 43 7 43 L 41 43 C 42.108 43 43 42.108 43 41 L 43 7 C 43 5.892 42.108 5 41 5 L 7 5 z M 24 10.380859 C 29.116533 10.380859 33.363281 14.627609 33.363281 19.744141 C 33.363281 25.359401 28.255859 27.494217 28.255859 30.394531 L 28.255859 31.234375 L 19.744141 31.234375 L 19.744141 30.394531 C 19.744141 27.481608 14.636719 25.358772 14.636719 19.744141 C 14.636719 14.627609 18.883467 10.380859 24 10.380859 z M 19.744141 32.300781 L 28.255859 32.300781 L 28.255859 34.427734 L 19.744141 34.427734 L 19.744141 32.300781 z M 19.744141 35.490234 L 28.255859 35.490234 L 28.255859 37.619141 L 19.744141 37.619141 L 19.744141 35.490234 z "
     style="fill:#ffffff" />
</svg>
