<?xml version="1.0" encoding="UTF-8"?>
<svg version="1.1" viewBox="0 0 48 48" xmlns="http://www.w3.org/2000/svg">
    <path d="m24.784 3.7842a20.216 20.216 0 0 0-20.216 20.216 20.216 20.216 0 0 0 0 0.02821c1.8556-2.0774 4.5855-3.3495 7.3737-3.3987 0.65878-0.01148 1.3182 0.022 1.9711 0.11127 1.7065 0.22123 3.3679 0.88548 4.6914 1.9963 1.6727 1.3858 2.7141 3.3919 3.2915 5.457 0.27228 0.92923 0.42481 1.886 0.57328 2.8408 0.22373 1.3628 0.76221 2.6811 1.6265 3.7643 1.2038 1.5437 2.91 2.5916 4.6509 3.431 0.28046 0.13402 0.60307 0.27834 0.86403 0.39125 1.7414 0.74354 3.5447 1.329 5.3534 1.884 0.34559 0.10504 0.69458 0.20654 1.0425 0.30921a20.216 20.216 0 0 0 8.9931-16.815 20.216 20.216 0 0 0-3.0244-10.636c-1.079 1.5799-2.9049 2.6218-4.8175 2.7265-0.32356-0.02152-0.62948 0.08924-0.91633 0.22921-1.5567 0.77438-2.9916 1.7681-4.4063 2.7726-2.1971 1.594-4.2928 3.3034-6.2656 5.157-0.26142 0.27694-0.58598 0.5249-0.97889 0.55688-0.36852 0.04605-0.70987-0.18656-0.89274-0.48355-0.29662-0.32355-0.17032-0.80212-0.0097-1.1573 0.44724-0.58111 0.92985-1.1395 1.386-1.7158 1.711-2.1778 3.3191-4.4689 4.456-7.0051 0.58365-1.3425 1.0816-2.788 0.97889-4.273-0.15954-1.0408-0.03889-2.1331 0.4174-3.088 0.33371-0.70607 0.81159-1.3264 1.383-1.8465a20.216 20.216 0 0 0-7.5256-1.4532zm-10.705 37.364a20.216 20.216 0 0 0 10.705 3.0675 20.216 20.216 0 0 0 5.518-0.76814c-2.1845-0.31366-4.3647-0.65596-6.543-1.0009-2.1519-0.33378-4.3317-0.69205-6.48-0.96916-1.0585-0.12889-2.1273-0.25971-3.2002-0.3292z" fill="#fff" stroke-dashoffset="5.18" stroke-linecap="round" stroke-linejoin="round" stroke-width="2.5" style="paint-order:stroke markers fill"/>
    <path d="m21.378 30.866c1.1125 7.996 9.7807 9.5835 20.585 12.759-11.652-0.61271-24.432-3.7722-29.774-3.5701-4.3969 0.16633-9.189-4.1141-9.189-9.189s4.114-9.189 9.189-9.189c5.0749 0 8.32 2.9432 9.189 9.189z" fill="#fff" stroke-dashoffset="5.18" stroke-linecap="round" stroke-linejoin="round" stroke-width="2.5" style="paint-order:stroke markers fill"/>
    <path d="m42.03 9.7999c0 2.9-2.3509 5.2509-5.2508 5.2509-1.2035 0-7.2981 4.019-12.139 8.6319-1.14 1.0864 7.6793-8.0932 6.888-13.883-0.3927-2.8733 2.3509-5.2509 5.2508-5.2509 2.9 0 5.2508 2.3509 5.2508 5.2509z" fill="#fff" stroke-dashoffset="5.18" stroke-linecap="round" stroke-linejoin="round" stroke-width="2.5" style="paint-order:stroke markers fill"/>
</svg>
