<?xml version="1.0" encoding="UTF-8" standalone="no"?>
<svg
   xmlns:dc="http://purl.org/dc/elements/1.1/"
   xmlns:cc="http://creativecommons.org/ns#"
   xmlns:rdf="http://www.w3.org/1999/02/22-rdf-syntax-ns#"
   xmlns:svg="http://www.w3.org/2000/svg"
   xmlns="http://www.w3.org/2000/svg"
   id="svg4516"
   version="1.1"
   viewBox="0 0 48 48"
   height="48"
   width="48">
  <metadata
     id="metadata4522">
    <rdf:RDF>
      <cc:Work
         rdf:about="">
        <dc:format>image/svg+xml</dc:format>
        <dc:type
           rdf:resource="http://purl.org/dc/dcmitype/StillImage" />
        <dc:title></dc:title>
      </cc:Work>
    </rdf:RDF>
  </metadata>
  <defs
     id="defs4520" />
  <path
     id="rect8207"
     d="m 7.0000002,4.9999999 c -1.108,0 -2,0.8919999 -2,2 V 13.935547 L 34.064453,43 H 41 c 1.108,0 2,-0.892 2,-2 V 6.9999999 c 0,-1.1080001 -0.892,-2 -2,-2 z m 23.3261718,4 A 8.6746487,8.6746487 0 0 1 39,17.675781 c 0,5.046663 -4.103175,8.98459 -8.673828,14.146484 -4.376194,-4.942281 -8.322338,-8.764049 -8.65039,-13.509765 a 8.6746487,8.6746487 0 0 1 -0.0039,-0.04883 c -0.01233,-0.194508 -0.02148,-0.390119 -0.02148,-0.587891 a 8.6746487,8.6746487 0 0 1 8.675781,-8.6757811 z m 0,4.5058591 a 4.1697885,4.1697885 0 0 0 -4.169922,4.169922 4.1697885,4.1697885 0 0 0 4.169922,4.169922 4.1697885,4.1697885 0 0 0 4.167969,-4.169922 4.1697885,4.1697885 0 0 0 -4.167969,-4.169922 z M 5.0000002,27.267578 V 41 c 0,1.108 0.892,2 2,2 H 20.734375 Z"
     style="fill:#ffffff" />
</svg>
