<?xml version="1.0" encoding="UTF-8"?>
<svg version="1.1" viewBox="0 0 48 48" xmlns="http://www.w3.org/2000/svg">
    <path d="m16.143 9.2026c-2.8555 0-4.0034 2.1617-6.6903 9.2137-0.19793-0.21238-0.47534-0.34989-0.7899-0.34989h-2.5765c-0.60149 0-1.0868 0.48529-1.0868 1.0868v1.222c0 0.60149 0.48529 1.0841 1.0868 1.0841h2.4333c-1.7782 0.17712-3.1808 2.5028-3.1808 5.3941v9.9082c0 1.1278 0.90793 2.0357 2.0357 2.0357h3.3929c1.1278 0 2.0357-0.90793 2.0357-2.0357v-0.95159s7.4467 1.0868 11.196 1.0868 11.196-1.0868 11.196-1.0868v0.95159c0 1.1278 0.90793 2.0357 2.0357 2.0357h3.3929c1.1278 0 2.0357-0.90793 2.0357-2.0357v-9.9082c0-2.8913-1.4026-5.217-3.1808-5.3941l2.4333-0.03446c0.60153-3e-6 1.0868-0.48264 1.0868-1.0841v-1.222c0-0.60149-0.48529-1.0868-1.0868-1.0868h-2.5765c-0.31934 0-0.59953 0.14243-0.79785 0.36049-2.6906-7.0611-3.8287-9.1899-6.6823-9.1899zm1.2405 2.0331h13.232c3.0715 0 3.0697-6e-3 6.6161 9.1183h-26.464c3.5464-9.1243 3.5446-9.1183 6.6161-9.1183zm-7.3291 13.516a2.3411 2.3411 0 0 1 2.3405 2.3405 2.3411 2.3411 0 0 1-2.3405 2.3405 2.3411 2.3411 0 0 1-2.3405-2.3405 2.3411 2.3411 0 0 1 2.3405-2.3405zm27.957 0a2.3411 2.3411 0 0 1 2.3432 2.3405 2.3411 2.3411 0 0 1-2.3432 2.3405 2.3411 2.3411 0 0 1-2.3405-2.3405 2.3411 2.3411 0 0 1 2.3405-2.3405zm-21.105 8.013s4.7461 0.4082 7.125 0.4082 7.125-0.4082 7.125-0.4082c0 0.46991-0.49773 1.5747-1.0868 1.6964-2.0061 0.41443-4.0206 0.40555-6.0382 0.40555-2.0177 0-4.0278 0.0088-6.0409-0.40555-0.58913-0.12129-1.0841-1.2265-1.0841-1.6964z" fill="#fff" style="paint-order:stroke markers fill"/>
</svg>
