<?xml version="1.0" encoding="utf-8"?>
<!-- Generator: Adobe Illustrator 21.1.0, SVG Export Plug-In . SVG Version: 6.00 Build 0)  -->
<svg version="1.0" id="Layer_1" xmlns="http://www.w3.org/2000/svg" xmlns:xlink="http://www.w3.org/1999/xlink" x="0px" y="0px"
	 viewBox="0 0 48 48" style="enable-background:new 0 0 48 48;" xml:space="preserve">
<style type="text/css">
	.st0{fill:#FFFFFF;}
</style>
<g>
	<path class="st0" d="M41,5H7C5.9,5,5,5.9,5,7v34c0,1.1,0.9,2,2,2h34c1.1,0,2-0.9,2-2V7C43,5.9,42.1,5,41,5z M24.9,16.2
		c0.7-0.7,1.3-1.3,2-2c0.3-0.3,0.7-0.4,1-0.2c0.3,0.2,0.5,0.4,0.5,0.8c0,0.3-0.1,0.6-0.3,0.8c-0.6,0.6-1.3,1.3-1.9,1.9
		c-0.5,0.4-1,0.5-1.5,0C24.3,17.1,24.5,16.6,24.9,16.2z M18.9,11.5c0.1-0.5,0.4-0.8,0.9-0.8c0.5,0,0.8,0.4,0.9,0.8
		c0.1,0.6,0.1,1.1,0.1,1.7c0,0,0,0-0.1,0c0,0.5,0,1,0,1.5c-0.1,0.5-0.4,0.9-1,0.9c-0.5,0-0.9-0.3-0.9-0.8
		C18.8,13.7,18.7,12.6,18.9,11.5z M11.2,14.4c0.2-0.3,0.5-0.5,0.8-0.5c0.3,0,0.5,0.1,0.7,0.3c0.7,0.7,1.4,1.4,2.1,2.1
		c0.4,0.4,0.4,0.9,0,1.3c-0.4,0.4-0.9,0.4-1.3,0c-0.7-0.7-1.5-1.4-2.2-2.2C11.1,15.2,11.1,14.8,11.2,14.4z M10.3,23.6
		C10.3,23.6,10.3,23.5,10.3,23.6c-0.5,0-1,0-1.6,0c-0.5,0-0.8-0.4-0.8-0.9c0-0.5,0.3-0.9,0.8-0.9c1.1,0,2.2,0,3.2,0
		c0.5,0,0.8,0.4,0.8,0.9c0,0.6-0.4,0.9-0.9,0.9C11.3,23.6,10.8,23.6,10.3,23.6z M14.7,29.1c-0.6,0.6-1.3,1.3-1.9,1.9
		c-0.4,0.4-0.9,0.6-1.4,0.1c-0.5-0.5-0.4-1,0-1.5c0.6-0.7,1.3-1.3,2-2c0.3-0.3,0.7-0.4,1.2-0.2c0.3,0.2,0.5,0.4,0.5,0.8
		C15.1,28.6,14.9,28.9,14.7,29.1z M39.8,31.4c-0.5,3-2.9,5.2-6,5.2c-0.1,0-0.2,0-0.2,0c-2.1,0-4.1,0-6.2,0s-4.1,0-6.2,0
		c-4.3-0.1-6.6-4.1-4.3-7.8c0.4-0.7,0.1-0.9-0.4-1.3c-3.1-2.5-3.4-6.4-0.8-9.1c2.9-2.9,7.6-2.2,9.5,1.4c0.4,0.8,0.9,1,1.7,0.9
		c2.9-0.4,5.3,0.6,7,3c0.5,0.6,0.9,1,1.7,1.2C38.4,25.8,40.2,28.6,39.8,31.4z"/>
	<path class="st0" d="M27.5,34.6c-2.2,0-4.4,0-6.7,0c-1.4,0-2.5-0.9-2.8-2c-0.4-1.3,0-2.5,1.1-3.3c0.5-0.4,1-0.6,1.6-0.5
		c1.2,0.2,1.7-0.3,1.8-1.5c0.1-1,0.6-1.9,1.3-2.7c2.6-2.8,6.7-2.5,8.8,0.8c0.5,0.8,1,1.3,2.1,1.4c2,0.2,3.3,2.1,3.2,4.1
		c-0.1,2-1.7,3.6-3.8,3.7C31.9,34.7,29.7,34.6,27.5,34.6C27.5,34.6,27.5,34.6,27.5,34.6z"/>
	<path class="st0" d="M15.9,22.6c0-1.9,1.3-3.4,3.2-3.9c1.7-0.4,3.5,0.5,4.3,2.1c0.3,0.6,0.3,1-0.2,1.5c-1.2,0.9-2,2.1-2.5,3.6
		c-0.2,0.6-0.6,0.8-1.2,0.8C17.4,26.4,15.8,24.7,15.9,22.6z"/>
</g>
</svg>
