<svg height="48" viewBox="0 0 12.7 12.7" width="48" xmlns="http://www.w3.org/2000/svg"><path d="m1.8520834 1.3229163c-.2931584 0-.5291667.236007-.5291667.529167v8.9958327c0 .29316.2360083.529167.5291667.529167h8.9958336c.293158 0 .529167-.236007.529167-.529167v-8.9958327c0-.29316-.236009-.529167-.529167-.529167zm3.442684 1.455209c.1465789 0 .2645833.118003.2645833.264583v.79375c0 .14658-.1180044.264583-.2645833.264583-.1465792 0-.2645834-.118003-.2645834-.264583v-.79375c0-.14658.1180042-.264583.2645834-.264583zm-2.0799764.866614c.067631 0 .1352447.02623.1870686.07803l.5612061.561206c.1036476.10364.1036476.270497 0 .374137-.1036479.10365-.2704896.10365-.3741375 0l-.5612061-.561205c-.1036476-.10365-.1036476-.270487 0-.374137.051824-.0518.1194377-.07803.1870689-.07803zm4.1599527 0c.06763 0 .135245.02623.187069.07803.103648.10365.103648.270487 0 .374137l-.561723.561206c-.103648.10365-.27049.10365-.374137 0-.103648-.10364-.103648-.270497 0-.374137l.561722-.561206c.05182-.0518.119438-.07803.187069-.07803zm-2.0887613.747241a1.5874999 1.5874999 0 0 1 .4697386.06563 1.5874999 1.5874999 0 0 1 1.0795207 1.100708 1.9843748 1.9843748 0 0 1 .586527-.0894 1.9843748 1.9843748 0 0 1 1.760617 1.074869 1.5874999 1.5874999 0 0 1 1.1482503.660942 1.5874999 1.5874999 0 0 1 .115238 1.646928 1.5874999 1.5874999 0 0 1 -1.4102493.858345h-3.5191656a1.27 1.27 0 0 1 -1.0996745-.634586 1.27 1.27 0 0 1 0-1.270207 1.27 1.27 0 0 1 .3033408-.351916 1.5874999 1.5874999 0 0 1 -.7539593-.620634 1.5874999 1.5874999 0 0 1 .070797-1.808676 1.5874999 1.5874999 0 0 1 1.228349-.631486 1.5874999 1.5874999 0 0 1 .020671-.000516zm-.00775.529683a1.0583332 1.0583332 0 0 0 -.8185547.421163 1.0583332 1.0583332 0 0 0 -.047542 1.205611 1.0583332 1.0583332 0 0 0 1.0779704.471806 1.9843748 1.9843748 0 0 1 .8562786-1.230933 1.0583332 1.0583332 0 0 0 -.7410401-.824239 1.0583332 1.0583332 0 0 0 -.3271118-.04341zm-2.9367717.793233h.7937499c.1465791 0 .2645833.118004.2645833.264584 0 .14657-.1180042.264583-.2645833.264583h-.7937514c-.1465789 0-.2645833-.118013-.2645833-.264583 0-.14658.1180044-.264584.2645833-.264584zm5.08031.28267a1.4552082 1.4552082 0 0 0 -1.4552084 1.455209v.245979h-.4501032a.74083331.74083331 0 0 0 -.6413045.370521.74083331.74083331 0 0 0 0 .74104.74083331.74083331 0 0 0 .6413045.370003h3.5191656a1.0583332 1.0583332 0 0 0 .964282-.622184 1.0583332 1.0583332 0 0 0 -.169499-1.134815 1.0583332 1.0583332 0 0 0 -.503845-.316776 1.0583332 1.0583332 0 0 0 -.04444-.01137 1.0583332 1.0583332 0 0 0 -.06304-.01344 1.0583332 1.0583332 0 0 0 -.03152-.0047 1.0583332 1.0583332 0 0 0 -.07596-.0083 1.0583332 1.0583332 0 0 0 -.02791-.0021 1.0583332 1.0583332 0 0 0 -.08165-.001 1.0583332 1.0583332 0 0 0 -.01705.001 1.0583332 1.0583332 0 0 0 -.09664.0093 1.0583332 1.0583332 0 0 0 -.05994.0088 1.4552082 1.4552082 0 0 0 -1.406644-1.08665zm-3.6457724 1.245919c.067631 0 .1352447.02571.1870689.07751.1036476.10365.1036476.270487 0 .374137l-.5612061.561723c-.1036479.10365-.2704896.10365-.3741375 0-.1036476-.10365-.1036476-.271014 0-.374654l.5612061-.561206c.051824-.0518.1194377-.07751.1870686-.07751z" fill="#fff" stroke-width=".264583"/></svg>