<?xml version="1.0" encoding="utf-8"?>
<!-- Generator: Adobe Illustrator 21.1.0, SVG Export Plug-In . SVG Version: 6.00 Build 0)  -->
<svg version="1.0" id="Layer_1" xmlns="http://www.w3.org/2000/svg" xmlns:xlink="http://www.w3.org/1999/xlink" x="0px" y="0px"
	 viewBox="0 0 48 48" style="enable-background:new 0 0 48 48;" xml:space="preserve">
<style type="text/css">
	.st0{fill:#FFFFFF;}
</style>
<g>
	<path class="st0" d="M20.9,11.2c-5.2,0-9.4,4.2-9.4,9.5c0,5.1,4.3,9.3,9.4,9.2c5.2,0,9.4-4.2,9.4-9.4
		C30.3,15.4,26.1,11.2,20.9,11.2z M26.3,19.3c-0.8,0.7-1.5,1.3-2.3,2c-0.3,0.3-0.4,0.5-0.3,0.9c0.3,1,0.5,2,0.7,3.1
		c0,0.1,0,0.2,0.1,0.3c-0.4-0.3-0.8-0.5-1.2-0.7c-0.6-0.4-1.3-0.7-1.9-1.1c-0.3-0.2-0.5-0.2-0.8,0c-1,0.6-2,1.2-3,1.8
		c0-0.2,0-0.3,0-0.4c0.2-1,0.4-2,0.7-3c0.1-0.4,0-0.6-0.3-0.9c-0.8-0.6-1.5-1.3-2.3-2c-0.1-0.1-0.2-0.2-0.4-0.3
		c1-0.1,1.9-0.2,2.7-0.3c1.6-0.2,1.1,0.1,1.8-1.3c0.3-0.7,0.6-1.4,0.9-2.2c0-0.1,0.1-0.2,0.2-0.3c0.4,0.8,0.7,1.5,1,2.3
		c0.1,0.2,0.2,0.4,0.3,0.6c0.2,0.7,0.6,0.9,1.2,0.9c1,0,2,0.2,3.2,0.3C26.5,19.1,26.4,19.2,26.3,19.3z"/>
	<path class="st0" d="M41,5H7C5.9,5,5,5.9,5,7v34c0,1.1,0.9,2,2,2h34c1.1,0,2-0.9,2-2V7C43,5.9,42.1,5,41,5z M9.8,20.5
		c0.1-6.2,5.1-11.1,11.3-11c6.1,0.1,11,5.1,10.9,11.4c-0.1,6-5.2,10.9-11.2,10.9C14.7,31.6,9.7,26.6,9.8,20.5z M28.5,29.7
		c0.3-0.3,0.7-0.7,1.1-1c0.3,0.3,0.6,0.6,0.9,0.9c-0.4,0.4-0.8,0.7-1.1,1.1C29.1,30.3,28.8,30,28.5,29.7z M37.9,36.8
		c-0.4,0.4-0.9,0.9-1.3,1.3c-0.4,0.3-0.7,0.3-1,0c-1.9-1.9-3.8-3.8-5.8-5.8c-0.4-0.4-0.4-0.7,0-1c0.4-0.4,0.8-0.9,1.3-1.3
		c0.4-0.4,0.7-0.4,1.1,0c1.9,1.9,3.8,3.8,5.8,5.8c0.1,0.1,0.2,0.3,0.3,0.5C38.1,36.5,38,36.7,37.9,36.8z"/>
</g>
</svg>
