<?xml version="1.0" encoding="UTF-8" standalone="no"?>
<svg
   xmlns:svg="http://www.w3.org/2000/svg"
   xmlns="http://www.w3.org/2000/svg"
   xmlns:sodipodi="http://sodipodi.sourceforge.net/DTD/sodipodi-0.dtd"
   xmlns:inkscape="http://www.inkscape.org/namespaces/inkscape"
   width="48"
   height="48"
   viewBox="0 0 192.989 212.0835">
  <g>
    <g>
      <g>
        <g>
          <path
             d="m 79.4455,107.738 h -19.6 c -0.1915,0 -0.346,0.15 -0.3575,0.337 -0.492,8.851 -2.16,18.3855 -4.5745,26.1735 -0.034,0.106 -0.015,0.225 0.051,0.3165 0.068,0.0895 0.175,0.145 0.2875,0.145 h 6.7075 c 0.154,0 0.2925,-0.1 0.3395,-0.249 1.878,-6.0035 3.386,-13.801 3.9605,-20.44 h 6.4315 v 20.3325 c 0,0.1945 0.1605,0.355 0.3575,0.355 h 6.396 c 0.1975,0 0.3565,-0.1605 0.3565,-0.355 V 108.096 c 5e-4,-0.197 -0.1565,-0.358 -0.3555,-0.358"
             style="fill:#ffffff;fill-opacity:1" />
          <path
             d="m 162.336,107.738 h -6.396 c -0.196,0 -0.358,0.16 -0.358,0.358 v 20.315 c -1.4035,0.395 -2.8045,0.5835 -4.3855,0.5835 -4.24,0 -5.2165,-1.2955 -5.2165,-6.9195 v -13.979 c 0,-0.197 -0.1595,-0.358 -0.3565,-0.358 h -6.395 c -0.1985,0 -0.357,0.16 -0.357,0.358 v 14.6515 c 0,9.164 3.0935,12.7355 11.0335,12.7355 4.5205,0 9.563,-1.152 12.558,-2.292 0.1395,-0.0565 0.232,-0.186 0.232,-0.3325 V 108.096 c -0.001,-0.197 -0.163,-0.358 -0.359,-0.358"
             style="fill:#ffffff;fill-opacity:1" />
          <path
             d="m 26.721,107.766 h -6.5005 c -0.1625,0 -0.306,0.109 -0.344,0.269 -1.0305,4.0485 -3.093,10.7965 -5.867,17.868 L 7.481,107.973 C 7.4295,107.8335 7.297,107.738 7.148,107.738 H 0.567 c -0.1155,0 -0.224,0.0575 -0.2905,0.153 -0.067,0.095 -0.084,0.2185 -0.045,0.3275 l 9.776,26.838 c -1.022,2.0555 -1.939,3.76 -2.826,5.411 -0.6515,1.2145 -1.288,2.394 -1.928,3.651 -0.0585,0.109 -0.053,0.243 0.011,0.3485 0.066,0.105 0.1815,0.1685 0.306,0.1685 h 7.1185 c 0.1335,0 0.254,-0.074 0.317,-0.193 1.207,-2.322 2.6985,-5.5465 4.0865,-8.8435 4.154,-9.7715 7.5095,-18.9835 9.968,-27.3775 0.033,-0.1095 0.0115,-0.2255 -0.056,-0.3165 -0.066,-0.0875 -0.172,-0.139 -0.2835,-0.139"
             style="fill:#ffffff;fill-opacity:1" />
          <path
             d="m 50.028,128.4285 c -0.032,-0.089 -0.1,-0.1625 -0.1855,-0.201 -0.087,-0.0415 -0.184,-0.0445 -0.2755,-0.0105 -1.5605,0.575 -4.485,1.046 -6.519,1.046 -4.461,0 -6.5835,-1.2025 -6.5835,-8.0435 0,-5.469 0.651,-8.0425 6.5835,-8.0425 1.682,0 3.245,0.2455 5.2245,0.817 0.1625,0.0445 0.335,-0.027 0.415,-0.174 0.7415,-1.393 1.638,-3.094 2.647,-5.1805 0.0445,-0.091 0.046,-0.202 0.0045,-0.2965 -0.0395,-0.0905 -0.1215,-0.1665 -0.2185,-0.198 -2.6245,-0.834 -5.7405,-1.3155 -8.5435,-1.3155 -9.3385,0 -13.5045,4.406 -13.5045,14.286 0,10.0265 4.166,14.4945 13.5045,14.4945 2.34,0 6.954,-0.491 9.1775,-1.381 0.179,-0.0705 0.2695,-0.268 0.2035,-0.453 l -1.93,-5.3475"
             style="fill:#ffffff;fill-opacity:1" />
          <path
             d="m 110.9095,107.766 h -6.5 c -0.164,0 -0.306,0.109 -0.347,0.269 -1.0285,4.052 -3.0915,10.7995 -5.864,17.868 l -6.53,-17.93 c -0.051,-0.1395 -0.1825,-0.235 -0.334,-0.235 h -6.579 c -0.115,0 -0.2255,0.0575 -0.2915,0.153 -0.068,0.095 -0.082,0.2185 -0.045,0.3275 l 9.7745,26.838 c -1.0185,2.0515 -1.9315,3.751 -2.819,5.402 -0.6555,1.2155 -1.289,2.3965 -1.9315,3.659 -0.059,0.11 -0.0535,0.2415 0.0115,0.348 0.0655,0.105 0.1805,0.17 0.305,0.17 h 7.118 c 0.131,0 0.2555,-0.075 0.317,-0.1955 1.2065,-2.317 2.696,-5.5405 4.086,-8.843 4.148,-9.754 7.503,-18.9655 9.9685,-27.377 0.033,-0.1085 0.012,-0.225 -0.0535,-0.3165 -0.0685,-0.086 -0.1765,-0.1375 -0.286,-0.1375"
             style="fill:#ffffff;fill-opacity:1" />
          <path
             d="m 134.9175,107.738 h -18.936 c -0.196,0 -0.3565,0.16 -0.3565,0.358 v 26.2585 c 0,0.195 0.1605,0.3555 0.3565,0.3555 h 6.395 c 0.196,0 0.3565,-0.1605 0.3565,-0.3555 v -20.332 h 9.887 c 0.1445,0 0.274,-0.0845 0.328,-0.215 0.752,-1.775 1.525,-3.653 2.2995,-5.5785 0.0425,-0.109 0.029,-0.235 -0.034,-0.33 -0.066,-0.0995 -0.18,-0.161 -0.296,-0.161"
             style="fill:#ffffff;fill-opacity:1" />
          <path
             d="m 34.2995,89.881 c -4.211,0 -5.5235,-1.146 -5.5235,-8.309 0,-7.6315 1.4305,-8.313 5.5235,-8.313 4.1685,0 5.6265,0.6815 5.6265,8.313 0,7.163 -1.337,8.309 -5.6265,8.309 m 0,-22.543 c -9.2385,0 -12.839,3.961 -12.839,14.1275 0,10.316 3.6005,14.3325 12.839,14.3325 9.3155,0 12.943,-4.0175 12.943,-14.3325 0,-10.165 -3.6275,-14.1275 -12.943,-14.1275"
             style="fill:#ffffff;fill-opacity:1" />
          <path
             d="m 72.7635,88.7995 c -0.0325,-0.089 -0.098,-0.163 -0.1855,-0.2005 -0.0875,-0.042 -0.185,-0.0445 -0.274,-0.0105 -1.561,0.575 -4.488,1.046 -6.521,1.046 -4.461,0 -6.5845,-1.2025 -6.5845,-8.0435 0,-5.4695 0.6505,-8.0425 6.5845,-8.0425 1.68,0 3.2445,0.245 5.226,0.817 0.1605,0.0445 0.3335,-0.027 0.414,-0.1745 0.7425,-1.393 1.636,-3.094 2.645,-5.1805 0.0465,-0.091 0.0485,-0.2015 0.006,-0.2955 C 74.0335,68.623 73.9535,68.548 73.857,68.516 71.23,67.6825 68.1175,67.2 65.312,67.2 c -9.339,0 -13.502,4.407 -13.502,14.287 0,10.026 4.163,14.4945 13.502,14.4945 2.341,0 6.9535,-0.491 9.179,-1.381 0.179,-0.0705 0.2685,-0.2685 0.2025,-0.4535 l -1.93,-5.3475"
             style="fill:#ffffff;fill-opacity:1" />
          <path
             d="M 19.502,68.1085 H 0.567 c -0.197,0 -0.3565,0.1605 -0.3565,0.359 v 26.258 c 0,0.1955 0.1595,0.3555 0.3565,0.3555 h 6.394 c 0.1985,0 0.3585,-0.16 0.3585,-0.3555 V 74.394 h 9.888 c 0.1435,0 0.27,-0.085 0.327,-0.215 0.7515,-1.7755 1.526,-3.6535 2.298,-5.5785 0.045,-0.1095 0.031,-0.2355 -0.0355,-0.33 -0.066,-0.0995 -0.175,-0.162 -0.295,-0.162"
             style="fill:#ffffff;fill-opacity:1" />
          <path
             d="m 192.23,131.9735 c 0.009,-0.131 0.019,-0.263 0.029,-0.3965 0.0165,-0.2345 0.033,-0.473 0.0495,-0.716 0.2545,-3.6665 0.5155,-8.238 0.6895,-13.3565 0.005,-0.138 0.01,-0.2765 0.0135,-0.415 0.1155,-3.5125 0.188,-7.274 0.188,-11.1715 0,-3.898 -0.0725,-7.659 -0.188,-11.172 -0.004,-0.1385 -0.009,-0.277 -0.0135,-0.4145 -0.174,-5.1185 -0.435,-9.69 -0.6895,-13.3565 -0.0165,-0.243 -0.033,-0.4815 -0.0495,-0.716 -0.01,-0.1335 -0.02,-0.266 -0.029,-0.396 -0.027,-0.3745 -0.054,-0.7375 -0.0805,-1.0895 -0.0115,-0.151 -0.0225,-0.2995 -0.034,-0.446 -0.297,-3.8755 -0.546,-6.2645 -0.5715,-6.5095 -0.04,-0.375 -0.0865,-0.7535 -0.1395,-1.134 -0.0135,-0.093 -0.0305,-0.187 -0.0445,-0.2805 -0.0995,-0.67 -0.2165,-1.347 -0.3575,-2.031 -0.02,-0.0965 -0.0435,-0.195 -0.0645,-0.2915 -1.7305,-8.104 -6.234,-16.9995 -11.8415,-23.731 -2.162,-2.596 -4.488,-4.8705 -6.8815,-6.6535 -0.2375,-0.177 -3,-2.2295 -7.4455,-5.2915 -5.1055,-3.519 -12.4305,-8.37 -20.699,-13.243 -14.728,-8.6705 -27.9045,-14.735 -29.636,-15.5235 -0.001,-5e-4 -0.003,-0.0015 -0.004,-0.002 -0.007,-0.0025 -0.012,-0.005 -0.0185,-0.008 -0.072,-0.033 -0.1225,-0.056 -0.1475,-0.067 h -5e-4 C 114.2625,3.561 114.261,3.56 114.2605,3.56 110.388,1.8145 105.637,0.648 100.514,0.1505 99.536,0.055 98.5465,-0.0175 97.5445,-0.063 96.652,-0.1035 95.751,-0.124 94.845,-0.124 c -0.453,0 -0.905,0.0055 -1.355,0.0155 C 86.7395,0.044 80.3705,1.333 75.43,3.56 75.4245,3.5625 75.4155,3.5665 75.4075,3.57 74.6225,3.925 61.2815,9.988 46.1625,18.8465 h 0.0115 c -0.1845,0.108 -0.3685,0.216 -0.553,0.325 -15.4665,9.1065 -27.634,18.1445 -28.1445,18.525 -3.8025,2.8325 -7.183,6.407 -10.259,11.0425 -0.68,1.024 -0.7445,3.648 2.296,3.648 H 17.17 c 3.303,0 4.0825,-2.009 7.7745,-4.667 4.128,-2.971 12.162,-9.0295 27.019,-17.7775 C 62.665,23.64 72.685,18.689 77.53,16.3775 c 0.013,-0.0065 0.0255,-0.0125 0.0385,-0.0185 0.0875,-0.0415 0.1735,-0.0825 0.2575,-0.1225 0.0375,-0.018 0.075,-0.036 0.112,-0.053 0.049,-0.0235 0.098,-0.047 0.1455,-0.0695 0.081,-0.0385 0.1605,-0.076 0.238,-0.1125 0.003,-0.0015 0.006,-0.003 0.009,-0.0045 0.0865,-0.041 0.1705,-0.0805 0.2525,-0.119 0.001,-5e-4 0.0015,-10e-4 0.0025,-0.0015 1.2455,-0.587 1.952,-0.9075 1.982,-0.921 3.409,-1.5365 8.196,-2.459 13.261,-2.5685 0.3375,-0.007 0.6765,-0.011 1.0165,-0.011 0.34,0 0.6785,0.004 1.0165,0.011 1.4965,0.0325 2.967,0.1385 4.3865,0.3075 3.0645,0.365 5.886,1.034 8.1745,1.9615 0.2385,0.0965 0.4715,0.196 0.6985,0.2985 0.0125,0.0055 0.139,0.063 0.3675,0.168 2.2645,1.042 14.736,6.866 28.2385,14.8195 7.957,4.6845 15.105,9.424 20.048,12.83 4.2885,2.957 6.9185,4.9105 6.9745,4.952 1.9,1.415 3.7965,3.371 5.561,5.641 4.51,5.8025 8.158,13.654 8.802,19.7635 0.006,0.0605 0.2635,2.5365 0.569,6.6105 0.0205,0.2685 0.0405,0.5435 0.061,0.8255 0.014,0.191 0.028,0.3845 0.0415,0.5815 0.0255,0.352 0.0505,0.714 0.076,1.085 0.009,0.1435 0.0195,0.2875 0.029,0.433 0.016,0.244 0.033,0.4915 0.049,0.7425 0.032,0.4875 0.063,0.9875 0.094,1.501 0.019,0.3115 0.0385,0.6275 0.057,0.9485 0.004,0.0775 0.008,0.1555 0.0135,0.2335 0.0205,0.3635 0.0415,0.732 0.062,1.107 0.014,0.26 0.0285,0.523 0.0425,0.7885 0.2745,5.2115 0.4925,11.4055 0.4925,17.933 0,6.527 -0.218,12.7215 -0.4925,17.933 -0.014,0.265 -0.0285,0.5285 -0.0425,0.7885 -0.0205,0.3745 -0.0415,0.7435 -0.062,1.1065 -0.005,0.078 -0.01,0.1565 -0.0135,0.2335 -0.0185,0.321 -0.038,0.637 -0.057,0.9485 -0.031,0.514 -0.062,1.014 -0.094,1.501 -0.016,0.251 -0.033,0.499 -0.049,0.743 -0.01,0.1455 -0.0195,0.2895 -0.029,0.4325 -0.0255,0.3715 -0.0505,0.7335 -0.076,1.0855 -0.0135,0.1965 -0.0275,0.3905 -0.0415,0.5815 -0.0205,0.2815 -0.0405,0.557 -0.061,0.825 -0.3055,4.0745 -0.5625,6.5505 -0.569,6.611 -0.644,6.1095 -4.292,13.961 -8.802,19.7635 -1.7645,2.2695 -3.661,4.226 -5.561,5.641 -0.056,0.0415 -2.686,1.995 -6.9745,4.9515 -4.943,3.4065 -12.091,8.1455 -20.048,12.8305 -13.5025,7.9535 -25.974,13.7775 -28.2385,14.819 -0.2285,0.1055 -0.355,0.163 -0.3675,0.1685 -0.227,0.1025 -0.46,0.2015 -0.6985,0.298 -2.2885,0.9275 -5.11,1.597 -8.1745,1.962 -1.4195,0.169 -2.89,0.275 -4.3865,0.307 -0.338,0.007 -0.6765,0.011 -1.0165,0.011 -0.34,0 -0.679,-0.004 -1.0165,-0.011 -5.065,-0.109 -9.852,-1.0315 -13.261,-2.568 -0.03,-0.0135 -0.737,-0.334 -1.982,-0.9215 -0.0135,-0.007 -0.027,-0.0125 -0.0405,-0.019 -0.131,-0.062 -0.267,-0.1265 -0.41,-0.194 -0.0145,-0.007 -0.03,-0.014 -0.0445,-0.021 -0.1085,-0.0515 -0.222,-0.1055 -0.337,-0.16 -0.0595,-0.0285 -0.1195,-0.057 -0.181,-0.0865 -0.091,-0.0435 -0.186,-0.089 -0.2815,-0.1345 -0.1205,-0.0575 -0.244,-0.1165 -0.371,-0.1775 -0.027,-0.013 -0.054,-0.026 -0.081,-0.039 C 71.7745,192.695 62.18,187.91 51.9635,181.8935 37.1065,173.1455 29.0725,167.087 24.9445,164.1155 21.2525,161.458 20.473,159.449 17.17,159.449 H 9.5135 c -3.0405,0 -2.976,2.6235 -2.296,3.648 3.076,4.635 6.4565,8.21 10.259,11.0425 0.5105,0.3805 12.678,9.4185 28.1445,18.525 0.8255,0.486 1.645,0.963 2.4585,1.432 h -0.011 c 14.31,8.2485 26.5735,13.823 27.338,14.1685 0.0085,0.004 0.018,0.008 0.0235,0.011 4.9405,2.227 11.3095,3.516 18.06,3.6685 0.45,0.01 0.902,0.015 1.355,0.015 0.906,0 1.807,-0.0205 2.6995,-0.0605 1.002,-0.0455 1.9915,-0.119 2.9695,-0.2135 5.123,-0.4975 9.874,-1.664 13.7465,-3.4095 5e-4,0 0.002,-0.001 0.003,-0.002 h 5e-4 c 0.025,-0.0115 0.0755,-0.034 0.1475,-0.067 0.007,-0.003 0.012,-0.006 0.0185,-0.008 10e-4,-5e-4 0.003,-0.002 0.004,-0.002 1.7315,-0.788 14.908,-6.853 29.636,-15.523 8.2685,-4.873 15.5935,-9.724 20.699,-13.243 4.4455,-3.062 7.208,-5.1145 7.4455,-5.2915 2.3935,-1.7835 4.7195,-4.0575 6.8815,-6.6535 5.6075,-6.7315 10.111,-15.627 11.8415,-23.731 0.021,-0.097 0.0445,-0.195 0.0645,-0.2915 0.141,-0.684 0.258,-1.361 0.3575,-2.0315 0.014,-0.093 0.031,-0.187 0.0445,-0.28 0.053,-0.3805 0.0995,-0.759 0.1395,-1.134 0.0255,-0.245 0.2745,-2.634 0.5715,-6.51 0.0115,-0.146 0.0225,-0.295 0.034,-0.4455 0.0265,-0.352 0.0535,-0.715 0.0805,-1.089"
             style="fill:#ffffff;fill-opacity:1" />
        </g>
      </g>
    </g>
  </g>
</svg>
