<?xml version="1.0" encoding="UTF-8" standalone="no"?>
<svg
   xmlns:dc="http://purl.org/dc/elements/1.1/"
   xmlns:cc="http://creativecommons.org/ns#"
   xmlns:rdf="http://www.w3.org/1999/02/22-rdf-syntax-ns#"
   xmlns:svg="http://www.w3.org/2000/svg"
   xmlns="http://www.w3.org/2000/svg"
   id="svg4516"
   version="1.1"
   viewBox="0 0 48 48"
   height="48"
   width="48">
  <metadata
     id="metadata4522">
    <rdf:RDF>
      <cc:Work
         rdf:about="">
        <dc:format>image/svg+xml</dc:format>
        <dc:type
           rdf:resource="http://purl.org/dc/dcmitype/StillImage" />
        <dc:title></dc:title>
      </cc:Work>
    </rdf:RDF>
  </metadata>
  <defs
     id="defs4520" />
  <path
     id="rect5114"
     d="m 25.621682,1.8190189 v 11.6621981 7.275414 c 0,0.898413 0.72328,1.621685 1.62169,1.621685 h 8.418817 c 0.89843,0 1.62169,-0.723272 1.62169,-1.621685 V 13.481217 A 11.662611,11.662611 0 0 0 25.621682,1.8190189 Z"
     style="opacity:1;fill:#ffffff;fill-opacity:1;stroke:none;stroke-width:2.43252802;stroke-linecap:butt;stroke-linejoin:miter;stroke-miterlimit:4;stroke-dasharray:none;stroke-opacity:1" />
  <path
     style="opacity:1;fill:#ffffff;fill-opacity:1;stroke:none;stroke-width:2.43252802;stroke-linecap:butt;stroke-linejoin:miter;stroke-miterlimit:4;stroke-dasharray:none;stroke-opacity:1"
     d="m 1.8190215,22.378317 h 11.6621995 7.275413 c 0.898413,0 1.621688,-0.723271 1.621688,-1.621685 v -8.418828 c 0,-0.898414 -0.723275,-1.621686 -1.621688,-1.621685 H 13.481221 A 11.662611,11.662611 0 0 0 1.8190215,22.378317 Z"
     id="path5186" />
  <path
     id="path5192"
     d="M 22.378321,46.180981 V 34.518784 27.243372 c 0,-0.898414 -0.723275,-1.621686 -1.621686,-1.621686 h -8.418828 c -0.898415,0 -1.621686,0.723272 -1.621685,1.621686 v 7.275412 a 11.662611,11.662611 0 0 0 11.662199,11.662197 z"
     style="opacity:1;fill:#ffffff;fill-opacity:1;stroke:none;stroke-width:2.43252802;stroke-linecap:butt;stroke-linejoin:miter;stroke-miterlimit:4;stroke-dasharray:none;stroke-opacity:1" />
  <path
     style="opacity:1;fill:#ffffff;fill-opacity:1;stroke:none;stroke-width:2.43252802;stroke-linecap:butt;stroke-linejoin:miter;stroke-miterlimit:4;stroke-dasharray:none;stroke-opacity:1"
     d="m 46.180979,25.621684 h -11.662187 -7.27542 c -0.89841,0 -1.62169,0.723273 -1.62169,1.621686 v 8.418827 c 0,0.898414 0.72328,1.621687 1.62169,1.621686 h 7.27542 A 11.662611,11.662611 0 0 0 46.180979,25.621684 Z"
     id="path5196" />
</svg>
