<svg id="Layer_1" data-name="Layer 1" xmlns="http://www.w3.org/2000/svg" viewBox="0 0 48 48"><defs><style>.cls-1{fill:#fff;}</style></defs><title>GPS Status</title><path class="cls-1" d="M32,40.81a25,25,0,0,0-25-25H3.58A22,22,0,0,0,32,44.48ZM18.51,26.74a1.82,1.82,0,1,1,0,2.58A1.81,1.81,0,0,1,18.51,26.74Zm-9,11.31a9.74,9.74,0,0,1,.12-13.74,1.51,1.51,0,0,1,2.25.23L23.49,35.71a1.75,1.75,0,0,1,0,2.47A9.8,9.8,0,0,1,9.49,38.05Z"/><path class="cls-1" d="M42.26,36v.26A22,22,0,0,0,12,5.59,30.46,30.46,0,0,1,42.26,36Z"/><path class="cls-1" d="M40.26,36A28.45,28.45,0,0,0,11.84,7.59H9.35A22.13,22.13,0,0,0,4.5,13.81H7a27,27,0,0,1,27,27v2.76a22.12,22.12,0,0,0,6.22-4.75Z"/></svg>