<?xml version="1.0" encoding="UTF-8"?>
<svg version="1.1" viewBox="0 0 48 48" xmlns="http://www.w3.org/2000/svg">
    <path d="m7.3294 5v33.341h14.104l2.5668 4.6588 2.5668-4.6588h14.104v-33.341zm13.198 4.5855h1.7365v3.473h3.473v-3.473h1.7365v3.473h3.473v1.7365h-3.473v3.473h3.473v1.7365h-3.473v3.473h-1.7365v-3.473h-3.473v3.473h-1.7365v-3.473h-3.473v-1.7365h3.473v-3.473h-3.473v-1.7365h3.473zm1.7365 5.2096v3.473h3.473v-3.473zm-8.6745 9.1547c0.46655-2e-3 0.92685 0.20907 1.2291 0.56437 1.3169 2.1481 3.4355 3.781 5.8472 4.5177 4.3385 1.4214 9.5567-0.15811 12.148-3.975 0.34278-0.71029 1.1057-1.267 1.9237-1.0772 0.85671 0.09852 1.379 1.0834 0.99579 1.8559-1.2292 2.9175-3.942 4.9469-6.862 5.991-4.8414 1.7967-10.666 0.7134-14.432-2.8517-0.96384-0.96748-1.8233-2.1118-2.2521-3.4188-0.26263-0.85944 0.56178-1.6659 1.4028-1.6063z" fill="#fff"/>
</svg>
