<svg id="Layer_1" data-name="Layer 1" xmlns="http://www.w3.org/2000/svg" viewBox="0 0 48 48"><defs><style>.cls-1{fill:#fff;}</style></defs><title>Grow tracker</title><path class="cls-1" d="M24,2A22,22,0,1,0,46,24,22,22,0,0,0,24,2Zm0,37.61h-.14A13.55,13.55,0,0,1,10.3,26.08s0-.1,0-.15h.15A13.55,13.55,0,0,1,24,39.47C24,39.52,24,39.56,24,39.61Zm-3.7-14a2.58,2.58,0,0,1,0-.39,3.7,3.7,0,1,1-4-6.2l.35-.16a2.72,2.72,0,0,1-.35-.16,3.72,3.72,0,1,1,4-6.2,2.45,2.45,0,0,1,0-.39,3.71,3.71,0,0,1,7.42,0,2.45,2.45,0,0,1,0,.39,3.7,3.7,0,1,1,4,6.2,2.72,2.72,0,0,1-.35.16l.35.16a3.72,3.72,0,1,1-4,6.2,2.58,2.58,0,0,1,0,.39,3.71,3.71,0,1,1-7.42,0Zm3.94,14h-.15s0-.09,0-.14A13.55,13.55,0,0,1,37.62,25.92h.14c0,.05,0,.1,0,.15A13.54,13.54,0,0,1,24.23,39.62Z"/><path class="cls-1" d="M27.71,18.84A3.71,3.71,0,1,0,24,22.55,3.71,3.71,0,0,0,27.71,18.84Z"/></svg>