<?xml version="1.0" encoding="UTF-8" standalone="no"?>
<svg
   xmlns:dc="http://purl.org/dc/elements/1.1/"
   xmlns:cc="http://creativecommons.org/ns#"
   xmlns:rdf="http://www.w3.org/1999/02/22-rdf-syntax-ns#"
   xmlns:svg="http://www.w3.org/2000/svg"
   xmlns="http://www.w3.org/2000/svg"
   id="svg4516"
   version="1.1"
   viewBox="0 0 48 48"
   height="48"
   width="48">
  <metadata
     id="metadata4522">
    <rdf:RDF>
      <cc:Work
         rdf:about="">
        <dc:format>image/svg+xml</dc:format>
        <dc:type
           rdf:resource="http://purl.org/dc/dcmitype/StillImage" />
        <dc:title></dc:title>
      </cc:Work>
    </rdf:RDF>
  </metadata>
  <defs
     id="defs4520" />
  <path
     id="rect6667"
     d="m 9.999995,4 c -1.108,1e-6 -2,0.892002 -2,2 v 36 c 0,1.108001 0.892,2 2,2 h 28.00001 c 1.108,0 2,-0.891998 2,-2 V 14.246094 h -8.2461 c -1.108,0 -2,-0.892 -2,-2 V 4 Z m 19.75391,0 10.2461,10.246094 V 6 c 0,-1.107998 -0.892,-1.999999 -2,-2 z m -12.42187,13.791016 h 13.33398 c 1.108,0 2,0.892 2,2 v 18.263672 c 0,1.108 -0.892,2 -2,2 h -13.33398 c -1.108,0 -2,-0.892 -2,-2 V 19.791016 c 0,-1.108 0.892,-2 2,-2 z m 2.61523,2.876953 c -1.108,0 -2,0.892 -2,2 v 0.210938 c 0,1.108 0.892,2 2,2 h 8.10352 c 1.108,0 2,-0.892 2,-2 v -0.210938 c 0,-1.108 -0.892,-2 -2,-2 z m 0,6.148438 c -1.108,0 -2,0.892 -2,2 v 0.210937 c 0,1.108 0.892,2 2,2 h 8.10352 c 1.108,0 2,-0.892 2,-2 v -0.210937 c 0,-1.108 -0.892,-2 -2,-2 z m 0,6.15039 c -1.108,0 -2,0.892 -2,2 v 0.208985 c 0,1.108 0.892,2 2,2 h 8.10352 c 1.108,0 2,-0.892 2,-2 v -0.208985 c 0,-1.108 -0.892,-2 -2,-2 z"
     style="fill:#ffffff" />
</svg>
