<?xml version="1.0" encoding="UTF-8" standalone="no"?>
<svg
   xmlns:dc="http://purl.org/dc/elements/1.1/"
   xmlns:cc="http://creativecommons.org/ns#"
   xmlns:rdf="http://www.w3.org/1999/02/22-rdf-syntax-ns#"
   xmlns:svg="http://www.w3.org/2000/svg"
   xmlns="http://www.w3.org/2000/svg"
   id="svg4516"
   version="1.1"
   viewBox="0 0 48 48"
   height="48"
   width="48">
  <metadata
     id="metadata4522">
    <rdf:RDF>
      <cc:Work
         rdf:about="">
        <dc:format>image/svg+xml</dc:format>
        <dc:type
           rdf:resource="http://purl.org/dc/dcmitype/StillImage" />
        <dc:title></dc:title>
      </cc:Work>
    </rdf:RDF>
  </metadata>
  <defs
     id="defs4520" />
  <path
     id="path7232"
     d="m 10,3.9999999 c -1.108,10e-7 -2,0.892002 -2,2 V 42 c 0,1.108001 0.892,2 2,2 h 28 c 1.108,0 2,-0.891998 2,-2 V 14.246093 h -8.246094 c -1.108,0 -2,-0.892 -2,-2 V 3.9999999 Z M 15.886719,19.08789 h 16.226562 c 0.9473,0 1.708985,0.763637 1.708985,1.710938 v 16.224609 c 0,0.9473 -0.761686,1.710938 -1.708985,1.710938 H 15.886719 c -0.947299,0 -1.708985,-0.763638 -1.708985,-1.710938 V 20.798828 c 0,-0.947301 0.761686,-1.710938 1.708985,-1.710938 z"
     style="fill:#ffffff" />
  <path
     id="path7230"
     d="M 29.753906,3.9999999 40,14.246093 V 5.9999999 c 0,-1.107998 -0.892,-1.999999 -2,-2 z"
     style="fill:#ffffff" />
  <path
     id="path7210"
     d="m 20.761719,23.960937 c -0.9473,10e-7 -1.710938,0.763637 -1.710938,1.710937 v 6.478516 c 0,0.947299 0.763638,1.708985 1.710938,1.708985 h 6.476562 c 0.947301,0 1.710938,-0.761686 1.710938,-1.708985 v -6.478516 c 0,-0.9473 -0.763637,-1.710937 -1.710938,-1.710937 z"
     style="fill:#ffffff" />
</svg>
