<?xml version="1.0" encoding="UTF-8" standalone="no"?>
<svg
   xmlns:dc="http://purl.org/dc/elements/1.1/"
   xmlns:cc="http://creativecommons.org/ns#"
   xmlns:rdf="http://www.w3.org/1999/02/22-rdf-syntax-ns#"
   xmlns:svg="http://www.w3.org/2000/svg"
   xmlns="http://www.w3.org/2000/svg"
   id="svg4516"
   version="1.1"
   viewBox="0 0 48 48"
   height="48"
   width="48">
  <metadata
     id="metadata4522">
    <rdf:RDF>
      <cc:Work
         rdf:about="">
        <dc:format>image/svg+xml</dc:format>
        <dc:type
           rdf:resource="http://purl.org/dc/dcmitype/StillImage" />
        <dc:title></dc:title>
      </cc:Work>
    </rdf:RDF>
  </metadata>
  <defs
     id="defs4520" />
  <path
     id="rect7634"
     d="m 7,4.9999999 c -1.108,0 -2,0.892 -2,2 V 41 c 0,1.108 0.892,2 2,2 h 6.703125 L 29.947266,4.9999999 Z m 27.298828,0 L 18.054688,43 H 41 c 1.108,0 2,-0.892 2,-2 V 6.9999999 c 0,-1.108 -0.892,-2 -2,-2 z M 14.529297,7.7753905 a 7.0163464,7.0163464 0 0 1 3.445313,0.9140626 l -1.507813,2.6113279 a 3.996267,3.996267 0 0 0 -1.9375,-0.505859 3.996267,3.996267 0 0 0 -3.996094,3.996093 3.996267,3.996267 0 0 0 3.996094,3.996094 3.996267,3.996267 0 0 0 3.697266,-2.486328 H 14.529297 V 13.28125 h 4.279297 2.566406 0.0059 v 0.02148 a 7.0163464,7.0163464 0 0 1 0.164062,1.488281 7.0163464,7.0163464 0 0 1 -0.164062,1.470703 v 0.03906 H 21.3711 A 7.0163464,7.0163464 0 0 1 14.529297,21.80664 7.0163464,7.0163464 0 0 1 7.5117188,14.791015 7.0163464,7.0163464 0 0 1 14.529297,7.7753905 Z m 23.529297,12.9648435 0.05273,2.451172 c 1.661331,0.397976 2.839844,0.685547 2.839844,0.685547 l -0.714844,2.912109 c 0,0 -4.638735,-1.136465 -10.371093,-2.449219 l 0.669921,-2.923828 c 1.781884,0.408065 3.094588,0.722643 4.560547,1.06836 l -0.03711,-1.679688 z m -8.443359,4.566406 c 1.70404,1.506934 3.15188,3.116098 4.390625,4.667969 1.269981,-0.663965 2.624393,-1.309081 4.15039,-1.923828 l 1.121094,2.78125 c -1.280379,0.5158 -2.407246,1.040335 -3.46875,1.572265 2.035626,2.954972 3.099609,5.240235 3.099609,5.240235 l -2.726562,1.25 c 0,0 -1.043304,-2.212855 -3.007813,-5.023438 -3.425141,2.131277 -5.566434,4.463686 -7.201172,7.244141 L 23.386719,39.59375 c 1.815481,-3.087876 4.305167,-5.752626 7.992187,-8.109375 -1.077871,-1.318567 -2.327131,-2.671629 -3.751953,-3.931641 z"
     style="fill:#ffffff" />
</svg>
