<?xml version="1.0" encoding="UTF-8"?>
<svg version="1.1" viewBox="0 0 48 48" xmlns="http://www.w3.org/2000/svg">
    <path d="m5.8316 17.759c-0.17219 3.5538 4.1191 3.7113 5.3912 3.9109 0.7274 0.11413 1.0292-0.94876 0.30167-1.0623-1.8489-0.28857-3.5851-0.73382-5.6929-2.8486zm6.376 2.8572c-0.34048 3.5642 4.6228 3.1453 6.9513 3.9755 0.69346 0.24725 1.2154-0.83209 0.4956-0.98688-4.1948-0.90214-4.3056-0.57481-7.4469-2.9887zm-5.9084 0.17023c0.70339 2.5794 4.2043 2.4377 5.1714 2.2797 0.74073-0.12102 0.90344-1.0802 0.15299-1.0925-1.6386-0.0268-2.9322-0.02859-5.3244-1.1873zm6.2187 2.437c-0.07708 0.01093-0.15752 0.0387-0.23918 0.09051-0.50414 0.31978-2.3226 0.83738-4.1522 0.44819 1.8862 1.9049 3.8521 0.96157 4.6952 0.51068 0.60515-0.30343 0.23565-1.1258-0.30382-1.0494zm1.6355 0.5193c-0.26209 0.0023-0.39432 0.22587-0.53654 0.44604-0.53198 0.82355-1.7533 1.033-3.6049 1.4782 3.2173 0.99566 4.211-0.02669 4.6845-1.2519 0.12806-0.33137-0.18776-0.6753-0.543-0.67229zm1.5751 0.29305c-0.45912 0.08022-0.57419 0.47423-0.90069 0.99766-0.50717 0.81306-1.1924 1.4546-2.047 1.9156 1.636 0.48035 3.0122-1.3856 3.4433-2.3142 0.13454-0.28982-0.17613-0.60534-0.4956-0.59903zm1.4523 0.40725c-0.1771-0.0063-0.34087 0.0937-0.41587 0.25426-0.35116 0.88245-1.3497 2.2127-2.3509 2.993 1.9594 0.20933 2.704-1.7554 3.1438-2.6073 0.14748-0.28569-0.0558-0.62768-0.37708-0.63997zm1.3101 0.26935c-0.14594-0.0012-0.28307 0.06974-0.36631 0.18962-0.1843 0.35185-0.8979 2.111-2.0707 3.133 1.5145 0.01541 2.0763-1.1692 2.7883-2.618 0.16535-0.37386 0.01017-0.70216-0.35123-0.70461zm-7.546 1.6506c-2.2364 0.54096-4.3418 0.62905-6.9448 0.53869 0 0 4.4756 1.5516 7.2443 0.36846 0.63625-0.33932 0.71913-0.96499-0.29951-0.90716zm1.8229 0.9718c-0.0952 0.0041-0.18721 0.03553-0.26504 0.09051-0.7452 0.51512-2.4511 0.82124-4.0273 1.0278 0 0 2.8088 0.97446 4.5918-0.21117 0.41427-0.28057 0.20037-0.92841-0.29951-0.90716zm1.7303 0.70461c-0.09519 0.0041-0.1872 0.03553-0.26504 0.09051-0.7452 0.51512-1.3716 1.0906-2.9477 1.2972 0 0 2.0128 0.69946 3.5123-0.48051 0.41427-0.28057 0.20037-0.92841-0.29951-0.90716zm1.7604 0.40079c-0.09519 0.0041-0.18721 0.03553-0.26504 0.09051-0.7452 0.51512-1.22 1.1199-2.6956 1.5945 0 0 1.8299 0.55865 3.2602-0.77787 0.41427-0.28057 0.20037-0.92841-0.29951-0.90716z" color="#000000" color-rendering="auto" dominant-baseline="auto" fill="#fff" image-rendering="auto" shape-rendering="auto" solid-color="#000000" style="font-feature-settings:normal;font-variant-alternates:normal;font-variant-caps:normal;font-variant-ligatures:normal;font-variant-numeric:normal;font-variant-position:normal;isolation:auto;mix-blend-mode:normal;shape-padding:0;text-decoration-color:#000000;text-decoration-line:none;text-decoration-style:solid;text-indent:0;text-orientation:mixed;text-transform:none;white-space:normal"/>
    <path d="m15.435 34 8.5646-14.834 8.5646 14.834h-12.742l4.1776-7.2359 1.6449 2.849h-1.0967l-1.266 2.1934h5.8223l-5.1184-8.8175-6.3572 11.011z" fill="#fff"/>
    <path d="m42.168 17.759c0.17219 3.5538-4.1191 3.7113-5.3912 3.9109-0.7274 0.11413-1.0292-0.94876-0.30167-1.0623 1.8489-0.28857 3.5851-0.73382 5.6929-2.8486zm-6.376 2.8572c0.34048 3.5642-4.6228 3.1454-6.9513 3.9755-0.69346 0.24725-1.2154-0.83209-0.4956-0.98688 4.1948-0.90214 4.3056-0.57481 7.4469-2.9887zm5.9084 0.17023c-0.70339 2.5794-4.2043 2.4377-5.1714 2.2797-0.74073-0.12102-0.90344-1.0802-0.15299-1.0925 1.6386-0.0268 2.9322-0.02859 5.3244-1.1873zm-6.2187 2.437c0.07708 0.01092 0.15752 0.0387 0.23918 0.0905 0.50414 0.31978 2.3226 0.83738 4.1522 0.44819-1.8862 1.9049-3.8521 0.96157-4.6952 0.51068-0.60515-0.30344-0.23565-1.1258 0.30382-1.0494zm-1.6355 0.5193c0.2621 0.0023 0.39432 0.22587 0.53654 0.44604 0.53198 0.82355 1.7533 1.033 3.6049 1.4782-3.2173 0.99566-4.211-0.02669-4.6845-1.2519-0.12806-0.33137 0.18776-0.6753 0.543-0.67229zm-1.5751 0.29305c0.45912 0.08022 0.57419 0.47423 0.90069 0.99766 0.50717 0.81306 1.1924 1.4546 2.047 1.9156-1.636 0.48035-3.0122-1.3856-3.4433-2.3142-0.13454-0.28982 0.17613-0.60534 0.4956-0.59903zm-1.4523 0.40725c0.1771-0.0063 0.34087 0.0937 0.41587 0.25426 0.35116 0.88245 1.3497 2.2127 2.3509 2.993-1.9594 0.20933-2.704-1.7554-3.1438-2.6073-0.14748-0.28569 0.0558-0.62767 0.37708-0.63997zm-1.3101 0.26935c0.14595-0.0012 0.28307 0.06974 0.36631 0.18962 0.1843 0.35185 0.8979 2.111 2.0707 3.133-1.5145 0.01541-2.0763-1.1692-2.7883-2.618-0.16535-0.37386-0.01016-0.70216 0.35123-0.70461zm7.546 1.6506c2.2364 0.54096 4.3418 0.62905 6.9448 0.53869 0 0-4.4756 1.5516-7.2443 0.36846-0.63625-0.33932-0.71913-0.965 0.29951-0.90716zm-1.8229 0.9718c0.0952 0.0041 0.18721 0.03553 0.26504 0.0905 0.7452 0.51512 2.4511 0.82124 4.0273 1.0278 0 0-2.8088 0.97446-4.5918-0.21117-0.41427-0.28057-0.20037-0.92841 0.29951-0.90716zm-1.7303 0.70461c0.0952 0.0041 0.1872 0.03553 0.26504 0.0905 0.7452 0.51512 1.3716 1.0906 2.9477 1.2972 0 0-2.0128 0.69946-3.5123-0.48051-0.41427-0.28057-0.20037-0.92841 0.29951-0.90716zm-1.7604 0.40079c0.0952 0.0041 0.18721 0.03553 0.26504 0.09051 0.7452 0.51512 1.22 1.1199 2.6956 1.5945 0 0-1.8299 0.55865-3.2602-0.77787-0.41427-0.28057-0.20037-0.92841 0.29951-0.90716z" color="#000000" color-rendering="auto" dominant-baseline="auto" fill="#fff" image-rendering="auto" shape-rendering="auto" solid-color="#000000" style="font-feature-settings:normal;font-variant-alternates:normal;font-variant-caps:normal;font-variant-ligatures:normal;font-variant-numeric:normal;font-variant-position:normal;isolation:auto;mix-blend-mode:normal;shape-padding:0;text-decoration-color:#000000;text-decoration-line:none;text-decoration-style:solid;text-indent:0;text-orientation:mixed;text-transform:none;white-space:normal"/>
</svg>
