<?xml version="1.0" encoding="UTF-8" standalone="no"?>
<svg
   xmlns:dc="http://purl.org/dc/elements/1.1/"
   xmlns:cc="http://creativecommons.org/ns#"
   xmlns:rdf="http://www.w3.org/1999/02/22-rdf-syntax-ns#"
   xmlns:svg="http://www.w3.org/2000/svg"
   xmlns="http://www.w3.org/2000/svg"
   xmlns:sodipodi="http://sodipodi.sourceforge.net/DTD/sodipodi-0.dtd"
   xmlns:inkscape="http://www.inkscape.org/namespaces/inkscape"
   width="48"
   height="48"
   viewBox="0 0 48 48"
   version="1.1"
   id="svg904"
   sodipodi:docname="hackernews.svg"
   inkscape:version="0.92.2 5c3e80d, 2017-08-06">
  <metadata
     id="metadata910">
    <rdf:RDF>
      <cc:Work
         rdf:about="">
        <dc:format>image/svg+xml</dc:format>
        <dc:type
           rdf:resource="http://purl.org/dc/dcmitype/StillImage" />
        <dc:title></dc:title>
      </cc:Work>
    </rdf:RDF>
  </metadata>
  <defs
     id="defs908" />
  <sodipodi:namedview
     pagecolor="#ffffff"
     bordercolor="#666666"
     borderopacity="1"
     objecttolerance="10"
     gridtolerance="10"
     guidetolerance="10"
     inkscape:pageopacity="0"
     inkscape:pageshadow="2"
     inkscape:window-width="1840"
     inkscape:window-height="970"
     id="namedview906"
     showgrid="false"
     inkscape:showpageshadow="false"
     inkscape:pagecheckerboard="true"
     inkscape:snap-bbox="true"
     inkscape:bbox-paths="true"
     inkscape:bbox-nodes="true"
     inkscape:snap-bbox-edge-midpoints="true"
     inkscape:snap-bbox-midpoints="true"
     inkscape:object-paths="true"
     inkscape:snap-intersection-paths="true"
     inkscape:snap-smooth-nodes="true"
     inkscape:snap-midpoints="true"
     inkscape:snap-object-midpoints="true"
     inkscape:snap-center="true"
     inkscape:snap-text-baseline="true"
     inkscape:snap-page="true"
     inkscape:zoom="11.313709"
     inkscape:cx="20.83561"
     inkscape:cy="26.038994"
     inkscape:window-x="40"
     inkscape:window-y="40"
     inkscape:window-maximized="1"
     inkscape:current-layer="svg904"
     inkscape:measure-start="-4.64827,15.8743"
     inkscape:measure-end="35.7129,22.2766" />
  <path
     style="fill:#ffffff"
     d="M 6 8 C 4.892 8 4 8.892 4 10 L 4 38 C 4 39.108 4.892 40 6 40 L 42 40 C 43.108 40 44 39.108 44 38 L 44 10 C 44 8.892 43.108 8 42 8 L 6 8 z M 11.640625 11.773438 L 13.169922 14.421875 L 14.699219 17.070312 L 11.640625 17.070312 L 8.5820312 17.070312 L 10.111328 14.421875 L 11.640625 11.773438 z M 19.050781 11.773438 L 38.134766 11.773438 C 38.845202 11.773438 39.417969 12.34425 39.417969 13.054688 L 39.417969 13.5625 C 39.417969 14.272936 38.845202 14.84375 38.134766 14.84375 L 19.050781 14.84375 C 18.340345 14.84375 17.767578 14.272936 17.767578 13.5625 L 17.767578 13.054688 C 17.767578 12.344251 18.340345 11.773438 19.050781 11.773438 z M 22.644531 16.048828 L 38.361328 16.048828 C 38.946393 16.048828 39.417969 16.520404 39.417969 17.105469 L 39.417969 18.064453 C 39.417969 18.649518 38.946393 19.121094 38.361328 19.121094 L 22.644531 19.121094 C 22.059466 19.121094 21.587891 18.649518 21.587891 18.064453 L 21.587891 17.105469 C 21.587891 16.520404 22.059466 16.048828 22.644531 16.048828 z M 8.5820312 18.099609 L 11.640625 18.099609 L 14.699219 18.099609 L 13.169922 20.748047 L 11.640625 23.398438 L 10.111328 20.748047 L 8.5820312 18.099609 z M 26.238281 20.326172 L 38.587891 20.326172 C 39.047585 20.326172 39.417969 20.696556 39.417969 21.15625 L 39.417969 22.568359 C 39.417969 23.028053 39.047585 23.396484 38.587891 23.396484 L 26.238281 23.396484 C 25.778587 23.396484 25.408203 23.028053 25.408203 22.568359 L 25.408203 21.15625 C 25.408203 20.696556 25.778587 20.326172 26.238281 20.326172 z M 11.640625 24.601562 L 13.169922 27.251953 L 14.699219 29.900391 L 11.640625 29.900391 L 8.5820312 29.900391 L 10.111328 27.251953 L 11.640625 24.601562 z M 19.050781 24.601562 L 38.134766 24.601562 C 38.845202 24.601562 39.417969 25.174329 39.417969 25.884766 L 39.417969 26.392578 C 39.417969 27.103014 38.845202 27.673828 38.134766 27.673828 L 19.050781 27.673828 C 18.340345 27.673828 17.767578 27.103014 17.767578 26.392578 L 17.767578 25.884766 C 17.767578 25.174329 18.340345 24.601562 19.050781 24.601562 z M 22.644531 28.878906 L 38.361328 28.878906 C 38.946393 28.878906 39.417969 29.350482 39.417969 29.935547 L 39.417969 30.894531 C 39.417969 31.479596 38.946393 31.951172 38.361328 31.951172 L 22.644531 31.951172 C 22.059466 31.951172 21.587891 31.479596 21.587891 30.894531 L 21.587891 29.935547 C 21.587891 29.350482 22.059466 28.878906 22.644531 28.878906 z M 8.5820312 30.929688 L 11.640625 30.929688 L 14.699219 30.929688 L 13.169922 33.578125 L 11.640625 36.226562 L 10.111328 33.578125 L 8.5820312 30.929688 z M 26.238281 33.15625 L 38.587891 33.15625 C 39.047585 33.15625 39.417969 33.526634 39.417969 33.986328 L 39.417969 35.398438 C 39.417969 35.858131 39.047585 36.226562 38.587891 36.226562 L 26.238281 36.226562 C 25.778587 36.226562 25.408203 35.858131 25.408203 35.398438 L 25.408203 33.986328 C 25.408203 33.526634 25.778587 33.15625 26.238281 33.15625 z "
     id="rect1997" />
</svg>
