<?xml version="1.0" encoding="UTF-8" standalone="no"?>
<svg
   xmlns:osb="http://www.openswatchbook.org/uri/2009/osb"
   xmlns:dc="http://purl.org/dc/elements/1.1/"
   xmlns:cc="http://creativecommons.org/ns#"
   xmlns:rdf="http://www.w3.org/1999/02/22-rdf-syntax-ns#"
   xmlns:svg="http://www.w3.org/2000/svg"
   xmlns="http://www.w3.org/2000/svg"
   xmlns:sodipodi="http://sodipodi.sourceforge.net/DTD/sodipodi-0.dtd"
   xmlns:inkscape="http://www.inkscape.org/namespaces/inkscape"
   width="48"
   height="48"
   viewBox="0 0 48 48"
   version="1.1"
   id="svg1069"
   sodipodi:docname="handynewsreader.svg"
   inkscape:version="0.92.3 (2405546, 2018-03-11)">
  <metadata
     id="metadata1075">
    <rdf:RDF>
      <cc:Work
         rdf:about="">
        <dc:format>image/svg+xml</dc:format>
        <dc:type
           rdf:resource="http://purl.org/dc/dcmitype/StillImage" />
        <dc:title></dc:title>
      </cc:Work>
    </rdf:RDF>
  </metadata>
  <defs
     id="defs1073">
    <linearGradient
       osb:paint="solid"
       id="linearGradient2439">
      <stop
         id="stop2437"
         offset="0"
         style="stop-color:#ec7d03;stop-opacity:1;" />
    </linearGradient>
  </defs>
  <sodipodi:namedview
     pagecolor="#ffffff"
     bordercolor="#666666"
     borderopacity="1"
     objecttolerance="10"
     gridtolerance="10"
     guidetolerance="10"
     inkscape:pageopacity="0"
     inkscape:pageshadow="2"
     inkscape:window-width="1012"
     inkscape:window-height="569"
     id="namedview1071"
     showgrid="false"
     inkscape:pagecheckerboard="true"
     inkscape:zoom="4.9166667"
     inkscape:cx="41.273541"
     inkscape:cy="18.98804"
     inkscape:window-x="4"
     inkscape:window-y="23"
     inkscape:window-maximized="0"
     inkscape:current-layer="layer1" />
  <g
     transform="matrix(0.15952866,0,0,0.15952866,2858.3002,2418.1296)"
     id="layer1"
     inkscape:label="Layer 1"
     style="fill:#ffffff;stroke:none">
    <path
       style="fill:#ffffff;fill-opacity:1;stroke:none;stroke-width:9;stroke-miterlimit:4;stroke-dasharray:none;stroke-opacity:1"
       d="m -17715.898,-14926.473 c -5.001,4.512 -10.34,8.28 -16.05,10.969 l -1.323,5.265 c -1.206,4.825 -88.687,4.825 -89.925,0 l -1.31,-5.13 c -5.338,-2.533 -10.35,-6.028 -15.071,-10.162 a 105.87886,16.910036 0 0 0 -39.888,13.223 105.87886,16.910036 0 0 0 105.878,16.907 105.87886,16.910036 0 0 0 105.878,-16.907 105.87886,16.910036 0 0 0 -48.189,-14.165 z"
       id="path4615-7"
       inkscape:connector-curvature="0" />
    <path
       inkscape:connector-curvature="0"
       d="m -17683.732,-14990.626 c 26.428,-18.178 27.314,4.271 8.513,17.126 -3.025,2.068 -8.411,3.978 -16.143,4.548 3.933,-8.191 6.424,-17.544 7.63,-21.674 z m -194.464,-42.906 c -1.618,39.594 20.247,98.94 56.063,115.936 l 1.249,4.869 c 1.175,4.581 84.229,4.581 85.374,0 l 1.249,-4.998 c 13.142,-6.189 24.401,-18.1 33.324,-32.652 v 0 c 0,0 17.46,-1.18 26.696,-5.893 43.106,-21.997 41.744,-72.26 -5.15,-54.802 1.144,-7.873 1.617,-15.474 1.361,-22.46 0,8.029 -44.808,14.537 -100.083,14.537 -55.275,0 -100.084,-6.508 -100.083,-14.537 z"
       style="fill:#ffffff;fill-opacity:1;stroke:none;stroke-width:8;stroke-linecap:butt;stroke-linejoin:miter;stroke-miterlimit:4;stroke-dasharray:none;stroke-opacity:1"
       id="path864" />
    <ellipse
       ry="14.536803"
       rx="100.08292"
       cy="-15037.358"
       cx="-17778.113"
       id="path852"
       style="fill:#ffffff;fill-opacity:1;stroke:none;stroke-width:8;stroke-linecap:round;stroke-linejoin:miter;stroke-miterlimit:4;stroke-dasharray:none;stroke-opacity:1" />
    <path
       sodipodi:nodetypes="ccc"
       inkscape:connector-curvature="0"
       id="path906"
       d="m -17768.052,-15141.459 c -99.665,62.72 60.988,44.238 -23.277,90.229 116.48,-47.574 -53.795,-30.326 23.277,-90.229 z"
       style="fill:#ffffff;fill-opacity:1;stroke:none;stroke-width:4.06475449;stroke-linecap:butt;stroke-linejoin:round;stroke-miterlimit:4;stroke-dasharray:none;stroke-opacity:1" />
    <g
       id="g1148">
      <path
         style="fill:#ffffff;fill-opacity:1;stroke:none;stroke-width:9;stroke-miterlimit:4;stroke-dasharray:none;stroke-opacity:1"
         d="m -17715.898,-14926.473 c -5.001,4.512 -10.34,8.28 -16.05,10.969 l -1.323,5.265 c -1.206,4.825 -88.687,4.825 -89.925,0 l -1.31,-5.13 c -5.338,-2.533 -10.35,-6.028 -15.071,-10.162 a 105.87886,16.910036 0 0 0 -39.888,13.223 105.87886,16.910036 0 0 0 105.878,16.907 105.87886,16.910036 0 0 0 105.878,-16.907 105.87886,16.910036 0 0 0 -48.189,-14.165 z"
         id="path1136"
         inkscape:connector-curvature="0" />
      <path
         inkscape:connector-curvature="0"
         d="m -17683.732,-14990.626 c 26.428,-18.178 27.314,4.271 8.513,17.126 -3.025,2.068 -8.411,3.978 -16.143,4.548 3.933,-8.191 6.424,-17.544 7.63,-21.674 z m -194.464,-42.906 c -1.618,39.594 20.247,98.94 56.063,115.936 l 1.249,4.869 c 1.175,4.581 84.229,4.581 85.374,0 l 1.249,-4.998 c 13.142,-6.189 24.401,-18.1 33.324,-32.652 v 0 c 0,0 17.46,-1.18 26.696,-5.893 43.106,-21.997 41.744,-72.26 -5.15,-54.802 1.144,-7.873 1.617,-15.474 1.361,-22.46 0,8.029 -44.808,14.537 -100.083,14.537 -55.275,0 -100.084,-6.508 -100.083,-14.537 z"
         style="fill:#ffffff;fill-opacity:1;stroke:none;stroke-width:8;stroke-linecap:butt;stroke-linejoin:miter;stroke-miterlimit:4;stroke-dasharray:none;stroke-opacity:1"
         id="path1138" />
      <ellipse
         ry="14.536803"
         rx="100.08292"
         cy="-15037.358"
         cx="-17778.113"
         id="ellipse1140"
         style="fill:#ffffff;fill-opacity:1;stroke:none;stroke-width:8;stroke-linecap:round;stroke-linejoin:miter;stroke-miterlimit:4;stroke-dasharray:none;stroke-opacity:1" />
      <path
         sodipodi:nodetypes="ccc"
         inkscape:connector-curvature="0"
         id="path1142"
         d="m -17768.052,-15141.459 c -99.665,62.72 60.988,44.238 -23.277,90.229 116.48,-47.574 -53.795,-30.326 23.277,-90.229 z"
         style="fill:#ffffff;fill-opacity:1;stroke:none;stroke-width:4.06475449;stroke-linecap:butt;stroke-linejoin:round;stroke-miterlimit:4;stroke-dasharray:none;stroke-opacity:1" />
    </g>
  </g>
</svg>
