<?xml version="1.0" encoding="UTF-8"?>
<svg version="1.1" viewBox="0 0 48 48" xmlns="http://www.w3.org/2000/svg">
    <path d="m24 5-17.236 4.6191c0 21.76 1.3145 25.943 17.236 33.381 15.922-7.4379 17.236-11.621 17.236-33.381zm-2.1699 4.5703-11.16 11.16c-0.093278-1.4784-0.14515-3.1959-0.16992-5.0039v-3.1191zm4.3398 0 11.33 3.0371v3.1191c-0.02477 1.808-0.07664 3.5255-0.16992 5.0039zm-2.1699 5.4805 7 4.5488v11.4h-4.5v-5h-5v5h-4.5v-11.4zm-13.287 6.8906h2.2871v8.8848c-0.1586-0.26735-0.37591-0.49444-0.51562-0.77734-0.45759-0.92658-0.8179-1.9408-1.0996-3.0762-0.28171-1.1353-0.48404-2.3924-0.63086-3.8008-0.03429-0.32891-0.01271-0.88451-0.04101-1.2305zm24.287 0h2.2871c-0.02831 0.34596-0.0067 0.90156-0.04102 1.2305-0.14682 1.4083-0.34915 2.6654-0.63086 3.8008-0.28171 1.1353-0.64202 2.1496-1.0996 3.0762-0.13971 0.2829-0.35702 0.51-0.51562 0.77734zm-17.414 13.193h12.828l-1.8301 1.2715c-1.4285 0.84378-2.6452 1.6724-4.584 2.5781-1.9388-0.90571-3.1555-1.7343-4.584-2.5781z" fill="#fff"/>
</svg>
