<?xml version="1.0" encoding="UTF-8" standalone="no"?>
<svg
   xmlns:dc="http://purl.org/dc/elements/1.1/"
   xmlns:cc="http://creativecommons.org/ns#"
   xmlns:rdf="http://www.w3.org/1999/02/22-rdf-syntax-ns#"
   xmlns:svg="http://www.w3.org/2000/svg"
   xmlns="http://www.w3.org/2000/svg"
   xmlns:sodipodi="http://sodipodi.sourceforge.net/DTD/sodipodi-0.dtd"
   xmlns:inkscape="http://www.inkscape.org/namespaces/inkscape"
   id="SVGRoot"
   version="1.1"
   viewBox="0 0 48 48"
   height="48px"
   width="48px"
   sodipodi:docname="hbomax.svg"
   inkscape:version="1.0.1 (3bc2e813f5, 2020-09-07)"
   enable-background="new">
  <defs
     id="defs3732">
    <style
       id="style822">.a{fill:#3396cd;}.b{fill:#fff;}</style>
  </defs>
  <sodipodi:namedview
     id="base"
     pagecolor="#000000"
     bordercolor="#666666"
     borderopacity="1.0"
     inkscape:pageopacity="0"
     inkscape:pageshadow="2"
     inkscape:zoom="15.084945"
     inkscape:cx="9.7614342"
     inkscape:cy="14.362757"
     inkscape:document-units="px"
     inkscape:current-layer="layer1"
     showgrid="false"
     inkscape:window-width="2560"
     inkscape:window-height="1376"
     inkscape:window-x="0"
     inkscape:window-y="27"
     inkscape:window-maximized="1"
     inkscape:grid-bbox="true"
     inkscape:document-rotation="0" />
  <metadata
     id="metadata3735">
    <rdf:RDF>
      <cc:Work
         rdf:about="">
        <dc:format>image/svg+xml</dc:format>
        <dc:type
           rdf:resource="http://purl.org/dc/dcmitype/StillImage" />
        <dc:title />
      </cc:Work>
    </rdf:RDF>
  </metadata>
  <g
     inkscape:groupmode="layer"
     id="layer1"
     inkscape:label="Layer 3">
    <g
       id="g13"
       transform="matrix(1.1617605,0,0,1.1617605,-3.8599136,-4.4669508)">
      <path
         id="XMLID_1_"
         class="st0"
         d="m 20.935019,28.878613 c -0.05559,-2.512373 -1.834255,-3.840817 -4.013126,-3.840817 -1.195046,0 -2.273365,0.4002 -3.007067,1.178369 -0.733703,-0.778169 -1.812021,-1.178369 -3.007066,-1.178369 -2.1788715,0 -3.9575428,1.334002 -4.0131259,3.846375 0,0.0054 0,0.01109 0,0.01667 v 5.730657 c 0,0.528042 0.427992,0.950476 0.9504767,0.950476 h 0.900452 c 0.088934,0 0.1611928,-0.07226 0.1611928,-0.161192 v -6.525499 0 c 0.038911,-1.239512 0.9171271,-1.895396 2.0010044,-1.895396 1.083878,0 1.962096,0.655884 2.001005,1.895396 v 0 5.730656 c 0,0.528044 0.427993,0.950478 0.950478,0.950478 h 0.900452 c 0.08893,0 0.161191,-0.07226 0.161191,-0.161193 v -6.5255 0 c 0.03892,-1.239512 0.917128,-1.895396 2.001007,-1.895396 1.083878,0 1.962095,0.655884 2.001005,1.895396 v 0 5.730657 c 0,0.528043 0.427992,0.950478 0.950477,0.950478 h 0.900451 c 0.08894,0 0.161193,-0.07226 0.161193,-0.161193 v -6.525505 c 0.0054,0.0054 0,0 0,-0.0054 z m 20.271295,-3.679625 h -1.528547 c -0.422434,0 -0.817077,0.211216 -1.056086,0.561393 l -1.689739,2.501255 c -0.222333,0.327943 -0.70035,0.327943 -0.922683,0 l -1.68974,-2.501255 C 34.08607,25.410204 33.685868,25.198988 33.263434,25.198988 h -1.528546 c -0.0945,0 -0.150075,0.105607 -0.100043,0.183425 l 3.012624,4.468911 c 0.216776,0.322385 0.216776,0.744819 0,1.067204 l -3.012624,4.46891 c -0.05559,0.07782 0.0054,0.183426 0.100043,0.183426 h 1.528546 c 0.422434,0 0.817076,-0.211218 1.056085,-0.561394 l 1.68974,-2.501256 c 0.222333,-0.327943 0.70035,-0.327943 0.922683,0 l 1.689739,2.501256 c 0.23345,0.350176 0.633652,0.561394 1.056086,0.561394 h 1.528547 c 0.0945,0 0.150075,-0.105609 0.100043,-0.183426 l -3.018185,-4.463352 c -0.216775,-0.322386 -0.216775,-0.744819 0,-1.067203 l 3.012625,-4.468911 c 0.05559,-0.07782 0,-0.188984 -0.0945,-0.188984 z m -10.260712,0 h -0.900451 c -0.455785,0 -0.839311,0.322384 -0.933802,0.750375 -0.800402,-0.611417 -1.806463,-0.922685 -2.890341,-0.922685 -2.634657,0 -4.774621,1.834256 -4.774621,5.297106 0,3.46285 2.134405,5.297105 4.774621,5.297105 1.078319,0 2.073262,-0.305708 2.873665,-0.906011 0.04447,0.483576 0.450226,0.867102 0.950478,0.867102 h 0.900451 c 0.08894,0 0.161193,-0.07226 0.161193,-0.161192 V 25.36018 c -0.0054,-0.08894 -0.07226,-0.161192 -0.161193,-0.161192 z m -4.724594,8.454246 c -1.573013,0 -2.851433,-1.150578 -2.851433,-3.323893 0,-2.173312 1.27842,-3.323892 2.851433,-3.323892 1.573013,0 2.851432,1.15058 2.851432,3.323892 0,2.173315 -1.278419,3.323893 -2.851432,3.323893 z"
         inkscape:connector-curvature="0"
         style="fill:#ffffff;stroke-width:0.0555834" />
      <path
         d="M 19.465114,24.05534 H 16.513655 V 19.846453 H 14.604228 V 24.05534 H 11.577091 V 13.198393 h 3.021317 V 17.2501 h 1.909425 v -4.051707 h 2.951459 V 24.05534 Z m 13.528978,0.04657 c 3.021317,0 5.489598,-2.514853 5.489598,-5.576921 0,-3.108637 -2.468281,-5.512883 -5.489598,-5.512883 -3.062067,0 -4.610564,2.223783 -4.983134,3.131924 0,-1.344748 -1.344748,-2.95146 -2.904889,-2.95146 H 20.06472 v 10.862768 h 4.692063 c 1.909427,0 3.254175,-1.629998 3.254175,-3.062068 0.424963,0.884856 1.926889,3.108639 4.983134,3.10864 z m -8.60988,-4.412638 c 0.436607,0 0.785893,0.424965 0.785893,0.908143 0,0.506463 -0.349286,0.931427 -0.785893,0.931427 h -1.501925 v -1.83957 z m 0,-4.074993 c 0.436607,0 0.785893,0.424964 0.785893,0.908142 0,0.483178 -0.349286,0.908141 -0.785893,0.908141 h -1.501925 v -1.816283 z m 1.985106,2.91071 c 0.349284,-0.02328 0.919783,-0.424963 1.135176,-0.663642 -0.0815,0.291071 -0.0815,1.210855 0,1.501927 -0.238678,-0.355107 -0.785892,-0.774249 -1.135176,-0.838285 z m 3.871243,0 c 0,-1.531034 1.245784,-2.765174 2.776817,-2.759353 1.536855,0.01165 2.759352,1.263248 2.741888,2.800104 -0.02328,1.513568 -1.245784,2.730245 -2.759353,2.730245 -1.525211,0 -2.759352,-1.234141 -2.759352,-2.770996 z m 2.753531,2.177211 c 1.175927,0 2.165568,-0.966356 2.165568,-2.177211 0,-1.210856 -0.989641,-2.165568 -2.165568,-2.165568 -1.210855,0 -2.17721,0.954712 -2.17721,2.165568 0,1.210855 0.966355,2.177211 2.17721,2.177211 z"
         id="path223"
         inkscape:connector-curvature="0"
         style="fill:#ffffff;stroke-width:0.0582141" />
    </g>
  </g>
  <style
     type="text/css"
     id="style3439">
	.st0{fill:url(#XMLID_5_);}
	.st1{clip-path:url(#XMLID_6_);fill:url(#SVGID_1_);}
	.st2{clip-path:url(#XMLID_6_);fill:url(#SVGID_2_);}
	.st3{clip-path:url(#XMLID_6_);fill:url(#SVGID_3_);}
</style>
</svg>
