<?xml version="1.0" encoding="UTF-8"?>
<svg version="1.1" viewBox="0 0 48 48" xmlns="http://www.w3.org/2000/svg">
    <path d="m26.496 5.0055c-0.77167-0.022214-1.5585 0.022644-2.3579 0.13652-8.3088 1.1837-13.377 7.0979-13.84 13.927-3.0132 1.9369-6.1916 8.7868 0 9.7138-0.9809 3.799 1.0421 8.155 4.8569 8.8854v5.3313h19.074v-8.2931c0-2.6843 0.8012-1.1049 3.6629-4.5353 8.2155-9.8479 0.17898-24.833-11.396-25.166zm-0.914 3.4015c6.673 5.14e-4 12.083 5.4628 12.083 12.201-0.0059 4.7894-2.6682 9.1324-6.9903 11.104v7.7331h-11.965v-4.9749c-2.8517 0.12116-5.2133-1.052-5.2133-2.9618v-5.8056s-3.0943 0.17798-3.3737-0.21057c-0.70222-0.9765 3.3737-5.0027 3.3737-5.0027l0.0045 0.0045c0.062347-6.6932 5.4525-12.086 12.081-12.088z" fill="#fff"/>
    <path d="m24.752 13.619-3.7911 8.6485h3.5542l-0.59236 6.516 5.3313-10.07h-2.9618l2.8433-5.0943z" fill="#fff"/>
</svg>
