<?xml version="1.0" encoding="UTF-8" standalone="no"?>
<svg
   xmlns:dc="http://purl.org/dc/elements/1.1/"
   xmlns:cc="http://creativecommons.org/ns#"
   xmlns:rdf="http://www.w3.org/1999/02/22-rdf-syntax-ns#"
   xmlns:svg="http://www.w3.org/2000/svg"
   xmlns="http://www.w3.org/2000/svg"
   id="svg4516"
   version="1.1"
   viewBox="0 0 48 48"
   height="48"
   width="48">
  <metadata
     id="metadata4522">
    <rdf:RDF>
      <cc:Work
         rdf:about="">
        <dc:format>image/svg+xml</dc:format>
        <dc:type
           rdf:resource="http://purl.org/dc/dcmitype/StillImage" />
        <dc:title></dc:title>
      </cc:Work>
    </rdf:RDF>
  </metadata>
  <defs
     id="defs4520" />
  <path
     id="path5779"
     d="M 14.715228,5.2017603 A 11.23851,11.23851 0 0 0 3.478088,16.440715 11.23851,11.23851 0 0 0 5.9990091,23.526497 h -0.00544 L 23.99911,44.658705 41.826917,23.736875 a 11.23851,11.23851 0 0 0 0.08886,-0.105188 l 0.09069,-0.10519 h -0.0091 A 11.23851,11.23851 0 0 0 44.521912,16.440715 11.23851,11.23851 0 0 0 33.282989,5.2017603 11.23851,11.23851 0 0 0 23.993668,10.118463 11.23851,11.23851 0 0 0 14.715228,5.2017603 Z"
     style="opacity:1;fill:#ffffff;fill-opacity:1;stroke:none;stroke-width:1.85713875;stroke-linecap:butt;stroke-linejoin:round;stroke-miterlimit:4;stroke-dasharray:none;stroke-opacity:1" />
</svg>
