<?xml version="1.0" encoding="UTF-8"?>
<svg version="1.1" viewBox="0 0 48 48" xmlns="http://www.w3.org/2000/svg">
    <path d="m13.442 6.9038c-2.9303 0.01073-5.7076 1.5071-7.6288 4.8948-2.3295 4.5114 0.67018 10.719 4.8597 16.261h3.615l2.6447-6.5306 2.5163 9.1335 2.6612-13.682 1.0435 0.04127 2.0928 18.49 1.8348-7.4524h10.366c4.1258-5.4497 7.0462-11.537 4.7385-16.006-2.4139-4.0982-9.9343-9.3115-18.175 1.3169-2.7809-4.038-6.8015-6.4804-10.569-6.4666zm9.0489 13.653-2.4348 12.517-1.0276 0.03972-2.2867-8.2989-1.7415 4.3016h-3.5093c5.4206 6.8251 12.295 12.364 12.511 11.958 0.21304 0.41742 7.1875-5.1306 12.626-11.958h-8.7188l-2.3424 9.5142-1.0379-0.06706z" fill="#fff"/>
</svg>
