<?xml version="1.0" encoding="UTF-8"?>
<svg version="1.1" viewBox="0 0 48 48" xmlns="http://www.w3.org/2000/svg">
    <path d="m16.42 9-3.495 1.8403v28.16h3.495zm18.655 0-3.495 1.8403v9.4475h3.495zm-15.337 14.486v3.495h11.842v12.019h3.495v-15.514zm4.262-21.486c-2.579 0.093163-6.5768 0.44428-8.1438 1.8805 2.8687 2.8798 5.7432 5.7665 8.6292 8.6229 2.693 0.53187 0.85774-2.4277-0.44018-3.0667-1.5634-1.2309-1.4956-4.3563 0.70355-4.8141 2.9214-0.41429 5.8432 0.73346 8.4375 1.9809 5.3268 2.7845 9.2951 8.1972 10.215 14.151 0.29439 3.9093 0.27338 8.0372-1.6072 11.593-0.52609 1.1427-1.1793 2.2192-1.7804 3.3227 0.08091 1.5706 2.8544 2.6548 2.7923-0.30089 7.7248-11.721 0.72656-29.314-12.921-32.567-1.9133-0.53168-3.8997-0.80202-5.885-0.80172zm-17.266 8.793c-8.7889 9.7096-4.6791 27.329 7.2865 32.814 5.3777 2.8657 13.319 3.3315 18.123 0.51292-2.8687-2.8798-5.7432-5.7665-8.6292-8.6229-2.693-0.53186-0.85775 2.4277 0.44019 3.0667 1.564 1.2315 1.4943 4.3544-0.70356 4.8144-2.9208 0.41002-5.841-0.74174-8.4372-1.9835-5.3287-2.7805-9.2963-8.1949-10.215-14.148-0.35761-4.1284-0.18066-8.4842 1.8886-12.186 0.46475-0.93322 1.0123-1.8214 1.5225-2.7298-0.092933-0.6722-0.6196-1.3385-1.2754-1.5371z" fill="#fff"/>
</svg>
