<?xml version="1.0" encoding="UTF-8"?>
<svg version="1.1" viewBox="0 0 48 48" xmlns="http://www.w3.org/2000/svg">
    <path d="m23.988 6.5c-2.051 0.074083-5.2304 0.35393-6.4766 1.4961 2.2814 2.2902 4.5682 4.5858 6.8633 6.8574 2.1416 0.42298 0.68062-1.9313-0.35156-2.4395-1.2433-0.97888-1.1883-3.4641 0.56055-3.8281 2.0384-0.28907 4.0652 0.38878 5.9277 1.2266a1.4837 1.4837 0 0 1 0.37695-0.28516l1.6602-0.875c-1.1988-0.66749-2.4968-1.1838-3.8809-1.5137-1.5216-0.42282-3.1009-0.63891-4.6797-0.63867z" fill="#fff"/>
    <path d="m10.258 13.494c-5.6961 6.2942-4.5778 16.766 1.1836 22.785v-2.9531c-1.4815-1.9844-2.5061-4.3073-2.8828-6.748-0.28439-3.2831-0.14365-6.7475 1.502-9.6914 0.3696-0.74215 0.8052-1.4495 1.2109-2.1719-0.07391-0.53457-0.49214-1.0628-1.0137-1.2207z" fill="#fff" stroke-width=".79526"/>
    <path d="m23.242 33.09c-1.6006-0.08801-0.2587 2.0119 0.70898 2.4883 1.2438 0.97936 1.1893 3.4623-0.55859 3.8281-1.8774 0.26355-3.747-0.29376-5.4883-1.0352v0.62891a1.4837 1.4837 0 0 1-0.58203 1.1777c4.1845 1.7307 9.6836 1.8478 13.143-0.18164-2.2814-2.2902-4.5682-4.5858-6.8633-6.8574-0.13385-0.02644-0.25267-0.04296-0.35937-0.04883z" fill="#fff"/>
    <path d="m16.42 8.9998-3.495 1.8403v28.16h3.495z" fill="#fff"/>
    <path d="m35.075 8.9998-3.495 1.8403v9.4475h3.495z" fill="#fff"/>
    <path d="m19.738 23.486v3.495h11.842v12.019h3.495v-15.514z" fill="#fff"/>
    <path d="m37.743 13.494c5.6961 6.2942 4.5778 16.766-1.1836 22.785v-2.9531c1.4815-1.9844 2.5061-4.3073 2.8828-6.748 0.28439-3.2831 0.14365-6.7475-1.502-9.6914-0.3696-0.74215-0.8052-1.4495-1.2109-2.1719 0.07391-0.53457 0.49214-1.0628 1.0137-1.2207z" fill="#fff"/>
</svg>
