<?xml version="1.0" encoding="UTF-8"?>
<svg version="1.1" viewBox="0 0 48 48" xmlns="http://www.w3.org/2000/svg">
    <path d="m10.311 7.7647-3.1557 1.6617v25.426h3.1557zm16.844 0-3.1557 1.6617v8.5305h3.1557zm-13.849 13.08v3.1557h10.693v10.853h3.1557v-14.009z" fill="#fff" fill-opacity=".83544"/>
    <path d="m32.137 31.493c-7.5e-5 2.2187 1.7985 4.0173 4.0173 4.0173 1.3679-8.7e-5 2.6417-0.69619 3.3805-1.8474v1.0973h0.46493v-2.0988h-2.0985v0.46524h1.4668c-0.6145 1.2104-1.8563 1.9736-3.2137 1.9751-1.9932 1.79e-4 -3.609-1.6156-3.609-3.6087m0.17916-1.1234h1.6679v-0.46525h-1.4788c0.58768-1.1964 1.8178-2.0202 3.2407-2.0201 1.993 9e-6 3.6087 1.6157 3.6087 3.6087h0.40827c6.8e-5 -2.2186-1.7984-4.0171-4.017-4.0172-1.4293-6.4e-5 -2.6834 0.74684-3.3955 1.8712v-1.0761h-0.46491v2.0988" fill="#fff" fill-opacity=".83544"/>
    <path d="m30.792 9.5102v6.0964c0 1.0235 0.82391 1.8474 1.8474 1.8474h4.2954c1.0235 0 1.8474-0.82393 1.8474-1.8474v-6.0964h-6.1428zm0.26317 0.26169h7.4638v5.6949c0 0.95606-0.76973 1.7255-1.7258 1.7255h-4.0123c-0.95607 0-1.7258-0.76946-1.7258-1.7255v-3.9694zm1.5381 0.89284v0.4159h4.6645v-0.4159zm2.263 1.6867-0.96274 0.62353 0.1718 0.26494 0.79094-0.51192v3.2721h0.27728v-3.6487z" fill="#fff" fill-opacity=".83544"/>
    <path d="m40.281 18.142-4.4396 0.12397v7.7834l4.4602 0.12396c0.35629 0.01 0.66952-0.21538 0.85906-0.52488l0.53805 0.0079c0.39869 0.0067 0.71957-0.41816 0.71957-0.93749v-5.0779c0-0.51933-0.32084-0.9372-0.71957-0.9372l-0.52277 6e-3c-0.1928-0.32556-0.52471-0.56588-0.8949-0.56588zm-0.14776 0.33717c0.4398 0 0.82182 0.37845 0.94046 0.81005l0.02015 5.6588c-0.08715 0.46618-0.47391 0.90232-0.94013 0.88816l-4.0739-0.12397v-7.109zm1.1892 0.59301 0.19795 3e-3c0.35587 0.0059 0.64233 0.37322 0.64233 0.83676v4.5318c0 0.46353-0.28645 0.83706-0.64233 0.83706l-0.20941 0.01567c0.02521-0.09729 0.04019-0.19682 0.04019-0.29574v-5.6845c0-0.08159-0.01037-0.16298-0.02846-0.24318zm-2.8342 1.2605a0.72825 0.66323 0 0 0-0.72811 0.6632 0.72825 0.66323 0 0 0 0.72811 0.66317 0.72825 0.66323 0 0 0 0.72838-0.66317 0.72825 0.66323 0 0 0-0.72838-0.6632zm-0.91015 1.6905c-0.28822 0-0.52019 0.32495-0.52019 0.72839 0 0-0.02485 0.8322-0.02613 1.2482h2.9681l-0.0048-1.2482c0-0.40344-0.23197-0.72839-0.52014-0.72839z" fill="#fff" fill-opacity=".83544"/>
</svg>
