<?xml version="1.0" encoding="UTF-8" standalone="no"?>
<svg
   xmlns:dc="http://purl.org/dc/elements/1.1/"
   xmlns:cc="http://creativecommons.org/ns#"
   xmlns:rdf="http://www.w3.org/1999/02/22-rdf-syntax-ns#"
   xmlns:svg="http://www.w3.org/2000/svg"
   xmlns="http://www.w3.org/2000/svg"
   xmlns:sodipodi="http://sodipodi.sourceforge.net/DTD/sodipodi-0.dtd"
   xmlns:inkscape="http://www.inkscape.org/namespaces/inkscape"
   width="48"
   height="48"
   viewBox="0 0 48 48"
   version="1.1"
   id="svg1807"
   sodipodi:docname="herecomesthebus.svg"
   inkscape:version="0.92.4 5da689c313, 2019-01-14">
  <metadata
     id="metadata1813">
    <rdf:RDF>
      <cc:Work
         rdf:about="">
        <dc:format>image/svg+xml</dc:format>
        <dc:type
           rdf:resource="http://purl.org/dc/dcmitype/StillImage" />
        <dc:title />
      </cc:Work>
    </rdf:RDF>
  </metadata>
  <defs
     id="defs1811" />
  <sodipodi:namedview
     pagecolor="#ffffff"
     bordercolor="#666666"
     borderopacity="1"
     objecttolerance="10"
     gridtolerance="10"
     guidetolerance="10"
     inkscape:pageopacity="0"
     inkscape:pageshadow="2"
     inkscape:window-width="2160"
     inkscape:window-height="1360"
     id="namedview1809"
     showgrid="true"
     inkscape:zoom="5.6568543"
     inkscape:cx="-42.831867"
     inkscape:cy="37.258552"
     inkscape:window-x="0"
     inkscape:window-y="44"
     inkscape:window-maximized="1"
     inkscape:current-layer="svg1807"
     inkscape:snap-others="false"
     inkscape:snap-bbox="true"
     inkscape:bbox-nodes="true"
     inkscape:snap-grids="true">
    <inkscape:grid
       type="xygrid"
       id="grid823" />
  </sodipodi:namedview>
  <path
     style="opacity:1;fill:#ffffff"
     d="M 7,5 C 5.892,5 5,5.892 5,7 v 34 c 0,1.108 0.892,2 2,2 h 34 c 1.108,0 2,-0.892 2,-2 V 7 C 43,5.892 42.108,5 41,5 Z m 17,4.2910156 c 1.683162,-0.00298 3.366625,0.098155 5.050781,0.3125 0.552932,0.048543 0.445756,0.8853434 -0.101562,0.7929684 -3.298355,-0.4197841 -6.598523,-0.3970301 -9.902344,0 -0.558863,0.102109 -0.661016,-0.7619388 -0.09375,-0.7929684 1.681423,-0.202063 3.363713,-0.30952 5.046875,-0.3125 z m -0.02344,2.0664064 c 1.349278,-0.0029 2.706546,0.07617 4.072266,0.246094 0.561044,0.0391 0.456115,0.891156 -0.09766,0.792968 -2.662907,-0.331314 -5.294977,-0.309005 -7.904297,0 -0.558866,0.102114 -0.661021,-0.761943 -0.09375,-0.792968 1.333604,-0.157934 2.674163,-0.243194 4.023437,-0.246094 z m 0.04492,2.08789 c 1.013634,0.000826 2.020754,0.05339 3.019532,0.15625 0.53125,0.0547 0.449216,0.85156 -0.08203,0.796876 -1.944451,-0.200251 -3.915556,-0.20664 -5.917968,0 -0.53125,0.05469 -0.613284,-0.742183 -0.08203,-0.796876 1.028719,-0.106156 2.048866,-0.157071 3.0625,-0.15625 z m -0.01563,1.716797 c 0.836946,0 7.684997,-0.138672 9.277344,3.919922 0.287698,0.03086 0.859175,0.20853 1.236328,0.488166 0.122983,0.09118 0.691249,0.637509 0.945313,1.254022 0.07205,0.174872 0.182783,0.2696 0.289062,0.34375 0.449043,0.313293 0.593365,0.603458 0.720703,1.03125 0.21329,0.71655 0.14016,2.210264 0.13086,2.623047 -0.01053,0.468224 -0.123158,1.019972 -0.626953,1.486328 -0.380993,0.352678 -0.629964,0.858859 -0.847657,1.189453 -0.966123,0.966123 -1.305999,0.977076 -1.835937,1.087891 L 33.292969,35 c -0.09943,0.623102 -0.03487,0.747106 -0.585938,1 0.07518,0.496196 0.04114,0.932149 0.02734,1.378906 l 1.814453,0.173828 c 0.46741,0.0784 0.303068,0.646485 -0.195312,0.646485 H 13.646484 c -0.49838,0 -0.662722,-0.568085 -0.195312,-0.646485 l 1.814453,-0.173828 C 15.251825,36.932149 15.217789,36.496196 15.292969,36 14.741901,35.747106 14.806461,35.623102 14.707031,35 l -0.002,-6.414062 C 14.175093,28.475126 13.84018,28.469133 12.869094,27.498047 12.651401,27.167453 12.40243,26.661272 12.021437,26.308594 11.517642,25.842238 11.405014,25.29049 11.394484,24.822266 c -0.0093,-0.412783 -0.08243,-1.906497 0.13086,-2.623047 0.127338,-0.427792 0.27166,-0.717957 0.720703,-1.03125 0.106279,-0.07415 0.217012,-0.168878 0.289062,-0.34375 0.254013,-0.616513 0.82233,-1.162842 0.945313,-1.254022 0.377153,-0.279636 0.94863,-0.414452 1.236328,-0.445312 1.592488,-4.058594 8.452163,-3.962776 9.289109,-3.962776 z M 24,15.972656 c -2.509558,0 -2.603516,0.158203 -2.603516,0.158203 l 0.392578,3.330079 c 0,-0.000002 1.473843,0.03906 2.210938,0.03906 0.737095,0 2.210938,-0.03906 2.210938,-0.03906 l 0.392578,-3.330079 c 0,0 -0.09396,-0.158203 -2.603516,-0.158203 z m -4.103516,1.470703 c -0.387877,0.00032 -0.70193,0.315249 -0.701172,0.703125 0.00032,0.387114 0.314058,0.700852 0.701172,0.701172 0.387114,-0.00032 0.700852,-0.314058 0.701172,-0.701172 0.000758,-0.387876 -0.313295,-0.702805 -0.701172,-0.703125 z m 8.207032,0 c -0.387877,0.00032 -0.70193,0.315249 -0.701172,0.703125 0.00032,0.387114 0.314058,0.700852 0.701172,0.701172 0.387114,-0.00032 0.700852,-0.314058 0.701172,-0.701172 0.000755,-0.387876 -0.313295,-0.702805 -0.701172,-0.703125 z m -10.189454,0.04102 c -0.365093,0.000634 -0.660601,0.297015 -0.660156,0.662109 0.000632,0.364332 0.295824,0.659525 0.660156,0.660157 0.365097,0.000445 0.661477,-0.295062 0.66211,-0.660157 0.000445,-0.365857 -0.296253,-0.662555 -0.66211,-0.662109 z m 12.171876,0 c -0.365858,-0.000446 -0.662555,0.296252 -0.66211,0.662109 0.000633,0.365095 0.297014,0.660602 0.66211,0.660157 0.364329,-0.000632 0.659524,-0.295825 0.660156,-0.660157 0.000445,-0.365094 -0.295063,-0.661475 -0.660156,-0.662109 z m -15.38086,2.44933 c -0.813255,0.07118 -1.320596,0.630628 -1.273878,0.851447 0,0 0.252497,0.05083 0.267578,0.152344 0.220687,1.485314 0.257826,5.404861 0,5.851562 l -0.144531,0.03125 c -0.367023,0.07647 0.33177,0.834006 1.150831,0.882813 z m 18.589844,0 v 7.769416 c 0.819061,-0.04881 1.578458,-0.806341 1.211435,-0.882813 l -0.144531,-0.03125 c -0.257822,-0.446701 -0.220682,-4.366248 0,-5.851562 0.01508,-0.101514 0.267578,-0.152344 0.267578,-0.152344 0.04672,-0.220819 -0.521227,-0.780267 -1.334482,-0.851447 z m -17.660156,0.468635 v 6.470703 c 2.757631,0.428342 5.560627,0.45137 8.365234,0.431641 2.804607,0.01973 5.607603,-0.0033 8.365234,-0.431641 V 20.402344 H 24 Z m 0,7.363281 -0.0332,7.357422 h 16.796876 l -0.0332,-7.357422 C 29.382963,28.11086 26.704165,28.101351 24,28.144531 21.295835,28.10135 18.617029,28.110861 15.634766,27.765625 Z M 18.097656,29 c 0.606311,-0.000222 1.097878,0.491345 1.097656,1.097656 0.000222,0.606311 -0.491345,1.097878 -1.097656,1.097656 C 17.491345,31.195534 16.999778,30.703967 17,30.097656 16.999778,29.491345 17.491345,28.999778 18.097656,29 Z m 11.804688,0 c 0.606311,-0.000222 1.097878,0.491345 1.097656,1.097656 0.000222,0.606311 -0.491345,1.097878 -1.097656,1.097656 -0.606311,0.000222 -1.097878,-0.491345 -1.097656,-1.097656 C 28.804466,29.491345 29.296033,28.999778 29.902344,29 Z m -8.9375,0.755859 c 0.0059,-0.000129 0.01172,-0.000129 0.01758,0 0.0059,-0.000129 0.01172,-0.000129 0.01758,0 h 6 c 0.533854,0 0.533854,0.800782 0,0.800782 h -6 c -0.533854,0.02344 -0.56901,-0.777345 -0.03516,-0.800782 z m 0.01758,1.421875 c 0.0059,-0.000129 0.01172,-0.000129 0.01758,0 h 6 c 0.533854,0 0.533854,0.800782 0,0.800782 h -6 c -0.533854,0.01172 -0.551432,-0.789063 -0.01758,-0.800782 z M 21,32.599609 h 6 c 0.533854,0 0.533854,0.800782 0,0.800782 h -6 c -0.533854,0 -0.533854,-0.800782 0,-0.800782 z M 18.546875,36 c 0.03876,0.449153 0.04449,0.898503 0,1.347656 h 10.90625 c -0.04449,-0.449153 -0.03876,-0.898503 0,-1.347656 z"
     id="rect1805"
     inkscape:connector-curvature="0"
     sodipodi:nodetypes="ssssssssssccccscccccsccccccsccccsccccccccssccccccccscsccsscccccsccccccccccccccccccccccccccccccccccccccccccccccccccccccccccccssccccssccssscscccccccc" />
</svg>
