<?xml version="1.0" encoding="UTF-8" standalone="no"?>
<svg
   xmlns:osb="http://www.openswatchbook.org/uri/2009/osb"
   xmlns:dc="http://purl.org/dc/elements/1.1/"
   xmlns:cc="http://creativecommons.org/ns#"
   xmlns:rdf="http://www.w3.org/1999/02/22-rdf-syntax-ns#"
   xmlns:svg="http://www.w3.org/2000/svg"
   xmlns="http://www.w3.org/2000/svg"
   width="48"
   height="48"
   viewBox="0 0 12.7 12.7"
   version="1.1"
   id="svg8">
  <defs
     id="defs2">
    <linearGradient
       id="linearGradient969"
       osb:paint="solid">
      <stop
         style="stop-color:#000000;stop-opacity:1;"
         offset="0"
         id="stop967" />
    </linearGradient>
    <linearGradient
       id="linearGradient963"
       osb:paint="solid">
      <stop
         style="stop-color:#000000;stop-opacity:1;"
         offset="0"
         id="stop961" />
    </linearGradient>
  </defs>
  <metadata
     id="metadata5">
    <rdf:RDF>
      <cc:Work
         rdf:about="">
        <dc:format>image/svg+xml</dc:format>
        <dc:type
           rdf:resource="http://purl.org/dc/dcmitype/StillImage" />
        <dc:title></dc:title>
      </cc:Work>
    </rdf:RDF>
  </metadata>
  <g
     id="layer1">
    <path
       id="path1070-6"
       style="fill:#000000;fill-opacity:1;fill-rule:nonzero;stroke:#ffffff;stroke-width:0;stroke-miterlimit:4;stroke-dasharray:none;stroke-opacity:1"
       d="M 23.453125 4.0019531 C 23.361655 4.0224642 23.262255 4.0780011 23.158203 4.1894531 L 12.78125 14.611328 C 2.6747772 24.759673 2.4037766 25.037719 2.4003906 25.326172 C 2.3963579 25.701449 2.49741 25.891249 2.7832031 26.039062 C 2.9698351 26.135406 3.3994245 26.15625 5.2226562 26.15625 L 7.4394531 26.15625 L 7.4589844 33.574219 L 7.4785156 40.992188 C 7.4799114 41.449033 7.9863281 41.447266 7.9863281 41.447266 L 15.533203 41.447266 L 23.076172 41.447266 L 21.605469 39.970703 L 20.130859 38.498047 L 18.548828 38.498047 L 16.972656 38.498047 A 1.4977378 1.4977378 0 0 1 15.572266 39.46875 A 1.4977378 1.4977378 0 0 1 14.076172 37.970703 A 1.4977378 1.4977378 0 0 1 15.572266 36.472656 A 1.4977378 1.4977378 0 0 1 16.960938 37.410156 L 17.941406 37.410156 L 18.960938 37.410156 L 18.421875 36.859375 C 18.124393 36.557461 17.300737 35.759107 16.59375 35.082031 L 15.400391 33.9375 A 1.4977378 1.4977378 0 0 1 14.783203 34.074219 A 1.4977378 1.4977378 0 0 1 13.285156 32.576172 A 1.4977378 1.4977378 0 0 1 13.304688 32.328125 C 13.306628 32.314594 13.310157 32.300534 13.3125 32.287109 A 1.4977378 1.4977378 0 0 1 13.3125 32.285156 A 1.4977378 1.4977378 0 0 1 13.412109 31.96875 C 13.442913 31.89534 13.483706 31.830853 13.525391 31.763672 A 1.4977378 1.4977378 0 0 1 13.544922 31.730469 C 13.840016 31.281038 14.357543 30.999694 14.929688 31.085938 A 1.4977378 1.4977378 0 0 1 16.28125 32.576172 A 1.4977378 1.4977378 0 0 1 16.142578 33.201172 L 16.863281 33.888672 C 17.294832 34.300028 18.108221 35.09277 18.673828 35.652344 L 19.703125 36.669922 L 19.699219 35.664062 L 19.697266 34.708984 A 1.4977378 1.4977378 0 0 1 18.734375 33.310547 A 1.4977378 1.4977378 0 0 1 20.232422 31.8125 A 1.4977378 1.4977378 0 0 1 21.730469 33.310547 A 1.4977378 1.4977378 0 0 1 20.789062 34.701172 L 20.789062 36.195312 L 20.789062 37.761719 L 21.914062 38.884766 L 23.041016 40.007812 L 23.041016 36.128906 L 23.041016 32.25 L 20.810547 30.017578 L 18.578125 27.787109 L 17.058594 27.787109 L 15.574219 27.787109 A 1.4977378 1.4977378 0 0 1 14.146484 28.832031 A 1.4977378 1.4977378 0 0 1 12.648438 27.333984 A 1.4977378 1.4977378 0 0 1 14.146484 25.835938 A 1.4977378 1.4977378 0 0 1 15.53125 26.765625 L 15.537109 26.777344 L 16.513672 26.777344 L 17.492188 26.775391 L 15.880859 25.169922 L 14.269531 23.564453 L 14.269531 21.8125 L 14.269531 20.130859 A 1.4977378 1.4977378 0 0 1 13.316406 18.736328 A 1.4977378 1.4977378 0 0 1 13.443359 18.140625 L 13.443359 18.138672 L 13.445312 18.136719 A 1.4977378 1.4977378 0 0 1 14.814453 17.240234 A 1.4977378 1.4977378 0 0 1 16.314453 18.736328 A 1.4977378 1.4977378 0 0 1 15.279297 20.160156 L 15.279297 21.589844 L 15.279297 23.037109 L 16.773438 24.486328 L 18.267578 25.9375 L 18.289062 24.941406 C 18.3035 24.353131 18.280586 24.052813 18.238281 23.974609 A 1.4977378 1.4977378 0 0 1 17.302734 22.585938 A 1.4977378 1.4977378 0 0 1 18.800781 21.087891 A 1.4977378 1.4977378 0 0 1 20.296875 22.585938 A 1.4977378 1.4977378 0 0 1 19.3125 23.992188 L 19.3125 25.482422 L 19.3125 26.972656 L 21.175781 28.832031 L 23.039062 30.695312 L 23.039062 25.261719 L 23.039062 19.828125 L 21.970703 18.763672 L 20.931641 17.728516 A 1.4977378 1.4977378 0 0 1 20.292969 17.873047 A 1.4977378 1.4977378 0 0 1 18.794922 16.375 A 1.4977378 1.4977378 0 0 1 20.292969 14.876953 A 1.4977378 1.4977378 0 0 1 21.791016 16.375 A 1.4977378 1.4977378 0 0 1 21.662109 16.982422 L 22.640625 17.958984 L 23.621094 18.9375 L 24.607422 17.949219 L 25.574219 16.976562 A 1.4977378 1.4977378 0 0 1 25.433594 16.347656 A 1.4977378 1.4977378 0 0 1 26.931641 14.849609 A 1.4977378 1.4977378 0 0 1 28.429688 16.347656 A 1.4977378 1.4977378 0 0 1 26.931641 17.84375 A 1.4977378 1.4977378 0 0 1 26.322266 17.714844 L 25.269531 18.763672 L 24.201172 19.828125 L 24.201172 27.511719 L 24.201172 35.195312 L 25.443359 33.955078 L 26.685547 32.714844 L 26.685547 31.078125 L 26.685547 29.453125 A 1.4977378 1.4977378 0 0 1 25.695312 28.046875 A 1.4977378 1.4977378 0 0 1 27.193359 26.548828 A 1.4977378 1.4977378 0 0 1 28.691406 28.046875 A 1.4977378 1.4977378 0 0 1 27.695312 29.455078 L 27.695312 30.572266 L 27.695312 31.705078 L 29.130859 30.267578 L 30.566406 28.833984 L 30.566406 27.554688 L 30.566406 26.273438 L 29.503906 25.210938 L 28.466797 24.169922 A 1.4977378 1.4977378 0 0 1 27.810547 24.322266 A 1.4977378 1.4977378 0 0 1 26.3125 22.824219 A 1.4977378 1.4977378 0 0 1 27.810547 21.328125 A 1.4977378 1.4977378 0 0 1 29.308594 22.824219 A 1.4977378 1.4977378 0 0 1 29.179688 23.431641 L 29.8125 24.130859 L 30.449219 24.832031 L 30.46875 22.486328 C 30.48504 20.725697 30.479303 20.286682 30.410156 20.140625 A 1.4977378 1.4977378 0 0 1 29.519531 18.775391 A 1.4977378 1.4977378 0 0 1 31.017578 17.277344 A 1.4977378 1.4977378 0 0 1 32.517578 18.775391 A 1.4977378 1.4977378 0 0 1 31.572266 20.166016 L 31.572266 22.5 L 31.572266 24.871094 L 32.302734 24.146484 C 32.711236 23.739675 32.878057 23.562343 32.941406 23.4375 A 1.4977378 1.4977378 0 0 1 32.8125 22.832031 A 1.4977378 1.4977378 0 0 1 34.310547 21.333984 A 1.4977378 1.4977378 0 0 1 35.806641 22.832031 A 1.4977378 1.4977378 0 0 1 34.310547 24.330078 A 1.4977378 1.4977378 0 0 1 33.714844 24.207031 L 32.666016 25.257812 L 31.572266 26.351562 L 31.572266 27.824219 L 31.572266 29.298828 L 30.080078 30.792969 L 28.585938 32.287109 L 30.798828 32.285156 L 32.972656 32.28125 A 1.4977378 1.4977378 0 0 1 34.382812 31.279297 A 1.4977378 1.4977378 0 0 1 35.882812 32.777344 A 1.4977378 1.4977378 0 0 1 34.382812 34.275391 A 1.4977378 1.4977378 0 0 1 32.982422 33.306641 L 30.292969 33.300781 L 27.576172 33.296875 L 25.849609 35.021484 L 24.121094 36.742188 L 24.121094 38.412109 L 24.121094 40.082031 L 25.427734 38.785156 L 26.734375 37.488281 L 28.515625 37.488281 L 30.230469 37.488281 A 1.4977378 1.4977378 0 0 1 31.636719 36.501953 A 1.4977378 1.4977378 0 0 1 33.134766 38 A 1.4977378 1.4977378 0 0 1 31.914062 39.470703 C 31.903745 39.473039 31.893168 39.474364 31.882812 39.476562 A 1.4977378 1.4977378 0 0 1 31.691406 39.496094 C 31.665252 39.497602 31.639594 39.505859 31.613281 39.505859 C 31.601225 39.505833 31.581308 39.497228 31.568359 39.496094 A 1.4977378 1.4977378 0 0 1 30.253906 38.574219 L 28.714844 38.574219 L 27.109375 38.574219 L 25.675781 40.011719 L 24.240234 41.447266 L 31.628906 41.447266 C 37.191715 41.447266 39.067485 41.422114 39.220703 41.353516 C 39.66233 41.152369 39.646484 41.465004 39.646484 33.494141 L 39.646484 26.15625 L 41.941406 26.15625 L 44.107422 26.15625 L 44.324219 26.074219 L 44.503906 25.892578 C 44.794136 25.601951 44.837667 25.349434 44.65625 25.007812 C 44.594984 24.89253 43.425423 23.680173 42.056641 22.314453 L 39.568359 19.832031 L 39.566406 16.339844 C 39.565518 13.703855 39.542519 12.798788 39.46875 12.652344 C 39.26277 12.239979 38.993159 12.185708 37.101562 12.185547 C 34.620041 12.185385 34.599609 12.197833 34.599609 13.869141 L 34.599609 14.861328 L 29.263672 9.5273438 L 23.925781 4.1933594 C 23.925781 4.1933594 23.727535 3.94042 23.453125 4.0019531 z M 26.882812 15.732422 A 0.59816575 0.59816575 0 0 0 26.3125 16.330078 A 0.59816575 0.59816575 0 0 0 26.912109 16.929688 A 0.59816575 0.59816575 0 0 0 27.509766 16.330078 A 0.59816575 0.59816575 0 0 0 26.912109 15.732422 A 0.59816575 0.59816575 0 0 0 26.882812 15.732422 z M 20.273438 15.759766 A 0.59816575 0.59816575 0 0 0 19.675781 16.359375 A 0.59816575 0.59816575 0 0 0 20.273438 16.957031 A 0.59816575 0.59816575 0 0 0 20.871094 16.359375 A 0.59816575 0.59816575 0 0 0 20.273438 15.759766 z M 14.765625 18.123047 A 0.59816575 0.59816575 0 0 0 14.197266 18.720703 A 0.59816575 0.59816575 0 0 0 14.794922 19.318359 A 0.59816575 0.59816575 0 0 0 15.394531 18.720703 A 0.59816575 0.59816575 0 0 0 14.794922 18.123047 A 0.59816575 0.59816575 0 0 0 14.765625 18.123047 z M 30.96875 18.160156 A 0.59816575 0.59816575 0 0 0 30.400391 18.757812 A 0.59816575 0.59816575 0 0 0 30.998047 19.355469 A 0.59816575 0.59816575 0 0 0 31.595703 18.757812 A 0.59816575 0.59816575 0 0 0 30.998047 18.160156 A 0.59816575 0.59816575 0 0 0 30.96875 18.160156 z M 18.779297 21.970703 A 0.59816575 0.59816575 0 0 0 18.181641 22.568359 A 0.59816575 0.59816575 0 0 0 18.779297 23.167969 A 0.59816575 0.59816575 0 0 0 19.378906 22.568359 A 0.59816575 0.59816575 0 0 0 18.779297 21.970703 z M 27.761719 22.210938 A 0.59816575 0.59816575 0 0 0 27.193359 22.808594 A 0.59816575 0.59816575 0 0 0 27.791016 23.40625 A 0.59816575 0.59816575 0 0 0 28.388672 22.808594 A 0.59816575 0.59816575 0 0 0 27.791016 22.210938 A 0.59816575 0.59816575 0 0 0 27.761719 22.210938 z M 34.261719 22.21875 A 0.59816575 0.59816575 0 0 0 33.691406 22.816406 A 0.59816575 0.59816575 0 0 0 34.291016 23.414062 A 0.59816575 0.59816575 0 0 0 34.888672 22.816406 A 0.59816575 0.59816575 0 0 0 34.291016 22.21875 A 0.59816575 0.59816575 0 0 0 34.261719 22.21875 z M 14.097656 26.720703 A 0.59816575 0.59816575 0 0 0 13.529297 27.318359 A 0.59816575 0.59816575 0 0 0 14.126953 27.916016 A 0.59816575 0.59816575 0 0 0 14.724609 27.318359 A 0.59816575 0.59816575 0 0 0 14.126953 26.720703 A 0.59816575 0.59816575 0 0 0 14.097656 26.720703 z M 27.144531 27.431641 A 0.59816575 0.59816575 0 0 0 26.574219 28.029297 A 0.59816575 0.59816575 0 0 0 27.173828 28.626953 A 0.59816575 0.59816575 0 0 0 27.771484 28.029297 A 0.59816575 0.59816575 0 0 0 27.173828 27.431641 A 0.59816575 0.59816575 0 0 0 27.144531 27.431641 z M 14.732422 31.960938 A 0.59816575 0.59816575 0 0 0 14.164062 32.558594 A 0.59816575 0.59816575 0 0 0 14.761719 33.15625 A 0.59816575 0.59816575 0 0 0 15.361328 32.558594 A 0.59816575 0.59816575 0 0 0 14.761719 31.960938 A 0.59816575 0.59816575 0 0 0 14.732422 31.960938 z M 34.333984 32.164062 A 0.59816575 0.59816575 0 0 0 33.765625 32.761719 A 0.59816575 0.59816575 0 0 0 34.363281 33.359375 A 0.59816575 0.59816575 0 0 0 34.960938 32.761719 A 0.59816575 0.59816575 0 0 0 34.363281 32.164062 A 0.59816575 0.59816575 0 0 0 34.333984 32.164062 z M 20.183594 32.697266 A 0.59816575 0.59816575 0 0 0 19.615234 33.294922 A 0.59816575 0.59816575 0 0 0 20.212891 33.892578 A 0.59816575 0.59816575 0 0 0 20.810547 33.294922 A 0.59816575 0.59816575 0 0 0 20.212891 32.697266 A 0.59816575 0.59816575 0 0 0 20.183594 32.697266 z M 15.523438 37.355469 A 0.59816575 0.59816575 0 0 0 14.955078 37.953125 A 0.59816575 0.59816575 0 0 0 15.552734 38.552734 A 0.59816575 0.59816575 0 0 0 16.150391 37.953125 A 0.59816575 0.59816575 0 0 0 15.552734 37.355469 A 0.59816575 0.59816575 0 0 0 15.523438 37.355469 z M 31.617188 37.384766 A 0.59816575 0.59816575 0 0 0 31.019531 37.984375 A 0.59816575 0.59816575 0 0 0 31.617188 38.582031 A 0.59816575 0.59816575 0 0 0 32.214844 37.984375 A 0.59816575 0.59816575 0 0 0 31.617188 37.384766 z "
       transform="scale(0.26458333)" />
  </g>
</svg>
