<?xml version="1.0" encoding="UTF-8" standalone="no"?>
<svg
   xmlns:osb="http://www.openswatchbook.org/uri/2009/osb"
   xmlns:dc="http://purl.org/dc/elements/1.1/"
   xmlns:cc="http://creativecommons.org/ns#"
   xmlns:rdf="http://www.w3.org/1999/02/22-rdf-syntax-ns#"
   xmlns:svg="http://www.w3.org/2000/svg"
   xmlns="http://www.w3.org/2000/svg"
   id="svg8"
   version="1.1"
   viewBox="0 0 12.7 12.7"
   height="48"
   width="48">
  <defs
     id="defs2">
    <linearGradient
       osb:paint="solid"
       id="linearGradient969">
      <stop
         id="stop967"
         offset="0"
         style="stop-color:#000000;stop-opacity:1;" />
    </linearGradient>
    <linearGradient
       osb:paint="solid"
       id="linearGradient963">
      <stop
         id="stop961"
         offset="0"
         style="stop-color:#000000;stop-opacity:1;" />
    </linearGradient>
  </defs>
  <metadata
     id="metadata5">
    <rdf:RDF>
      <cc:Work
         rdf:about="">
        <dc:format>image/svg+xml</dc:format>
        <dc:type
           rdf:resource="http://purl.org/dc/dcmitype/StillImage" />
        <dc:title></dc:title>
      </cc:Work>
    </rdf:RDF>
  </metadata>
  <path
     id="path1070-6"
     style="fill:#ffffff;fill-opacity:1;fill-rule:nonzero;stroke:#ffffff;stroke-width:0;stroke-miterlimit:4;stroke-dasharray:none;stroke-opacity:1"
     d="m 6.3573702,1.5539233 c -0.02398,0.00538 -0.050038,0.019936 -0.077315,0.049154 L 3.559682,4.3352266 c -2.64946474,2.660442 -2.72050897,2.7333332 -2.72139664,2.8089526 -0.001057,0.098381 0.0254339,0.1481379 0.10035624,0.1868879 0.0489264,0.025257 0.1615457,0.030722 0.6395154,0.030722 h 0.581145 l 0.00512,1.9446594 0.00512,1.9446595 c 3.659e-4,0.119765 0.1331257,0.119301 0.1331257,0.119301 H 4.281121 6.2585499 L 5.8729975,10.98332 5.4864207,10.597256 H 5.0716829 4.6584812 A 0.39263983,0.39263983 0 0 1 4.2913616,10.851731 0.39263983,0.39263983 0 0 1 3.8991527,10.45901 0.39263983,0.39263983 0 0 1 4.2913616,10.066288 0.39263983,0.39263983 0 0 1 4.6554092,10.31206 H 4.912444 5.1797197 L 5.0384015,10.16767 C 4.960415,10.088521 4.7444893,9.8792285 4.559149,9.7017285 L 4.2463037,9.4016845 a 0.39263983,0.39263983 0 0 1 -0.1617991,0.03584 0.39263983,0.39263983 0 0 1 -0.3927209,-0.392721 0.39263983,0.39263983 0 0 1 0.00512,-0.06503 c 5.086e-4,-0.0035 0.00143,-0.0072 0.00205,-0.01073 a 0.39263983,0.39263983 0 0 1 0,-5.13e-4 0.39263983,0.39263983 0 0 1 0.026114,-0.082949 c 0.00808,-0.019251 0.018769,-0.036146 0.029697,-0.053764 a 0.39263983,0.39263983 0 0 1 0.00512,-0.00874 C 3.8372432,8.7052785 3.9729155,8.6315234 4.1229064,8.6541321 a 0.39263983,0.39263983 0 0 1 0.354319,0.3906734 0.39263983,0.39263983 0 0 1 -0.036353,0.163846 l 0.1889361,0.180232 c 0.1131332,0.107843 0.3263675,0.315661 0.4746444,0.462356 l 0.2698356,0.2667635 -0.00102,-0.2636915 -5.12e-4,-0.250379 A 0.39263983,0.39263983 0 0 1 5.1203251,9.2373255 0.39263983,0.39263983 0 0 1 5.513046,8.8446047 0.39263983,0.39263983 0 0 1 5.9057669,9.2373255 0.39263983,0.39263983 0 0 1 5.6589721,9.6018855 v 0.391696 0.4106425 l 0.2949246,0.294413 0.295437,0.294412 V 9.9761725 8.9592965 L 5.6646044,8.3740559 5.0793634,7.7893268 H 4.6810103 4.2918736 A 0.39263983,0.39263983 0 0 1 3.9175853,8.0632586 0.39263983,0.39263983 0 0 1 3.5248648,7.6705377 0.39263983,0.39263983 0 0 1 3.9175853,7.277817 0.39263983,0.39263983 0 0 1 4.280609,7.5215394 l 0.00154,0.00307 H 4.5381562 L 4.7946792,7.5240996 4.3722608,7.1032175 3.9498428,6.6823353 V 6.2230517 5.7822006 A 0.39263983,0.39263983 0 0 1 3.699976,5.416617 0.39263983,0.39263983 0 0 1 3.7332574,5.2604503 v -5.12e-4 l 5.12e-4,-5.12e-4 A 0.39263983,0.39263983 0 0 1 4.0926969,5.0244081 0.39263983,0.39263983 0 0 1 4.4859298,5.416617 0.39263983,0.39263983 0 0 1 4.2145583,5.789881 v 0.3748003 0.3794081 l 0.3916969,0.3799204 0.3916966,0.3804323 0.00563,-0.2611313 C 5.007369,6.8890914 5.001362,6.8103615 4.9902715,6.7898599 A 0.39263983,0.39263983 0 0 1 4.7450129,6.4258125 0.39263983,0.39263983 0 0 1 5.1377338,6.0330916 0.39263983,0.39263983 0 0 1 5.5299427,6.4258125 0.39263983,0.39263983 0 0 1 5.2718835,6.7944684 V 7.185141 7.5758137 L 5.7603524,8.0632586 6.2488213,8.5517275 V 7.1272825 5.7028373 L 5.9687455,5.4237855 5.6963499,5.1524139 A 0.39263983,0.39263983 0 0 1 5.5289187,5.1903034 0.39263983,0.39263983 0 0 1 5.1361978,4.7975825 0.39263983,0.39263983 0 0 1 5.5289187,4.4048616 0.39263983,0.39263983 0 0 1 5.9216396,4.7975825 0.39263983,0.39263983 0 0 1 5.8878459,4.9568214 l 0.2565232,0.2560108 0.257035,0.2565231 0.258571,-0.259083 0.2534511,-0.2549872 A 0.39263983,0.39263983 0 0 1 6.8765605,4.7904141 0.39263983,0.39263983 0 0 1 7.2692814,4.3976932 0.39263983,0.39263983 0 0 1 7.6620023,4.7904141 0.39263983,0.39263983 0 0 1 7.2692814,5.182623 0.39263983,0.39263983 0 0 1 7.1095305,5.1488296 L 6.8335506,5.4237855 6.5534747,5.7028373 V 7.7171319 9.7314265 L 6.8791204,9.4062925 7.2047666,9.0811585 V 8.6520834 8.2260816 A 0.39263983,0.39263983 0 0 1 6.9451713,7.8574258 0.39263983,0.39263983 0 0 1 7.3378922,7.464705 0.39263983,0.39263983 0 0 1 7.7306131,7.8574258 0.39263983,0.39263983 0 0 1 7.4694818,8.2265936 V 8.5194703 8.8164424 L 7.845818,8.4395948 8.2221541,8.0637706 V 7.7283964 7.39251 L 7.9436142,7.11397 7.6717307,6.8410622 A 0.39263983,0.39263983 0 0 1 7.4996912,6.881 0.39263983,0.39263983 0 0 1 7.1069703,6.4882792 0.39263983,0.39263983 0 0 1 7.4996912,6.0960702 0.39263983,0.39263983 0 0 1 7.8924121,6.4882792 0.39263983,0.39263983 0 0 1 7.8586187,6.6475179 l 0.165895,0.1833037 0.1669192,0.183816 0.00512,-0.6149383 c 0.00427,-0.4615588 0.00277,-0.5766489 -0.01536,-0.6149384 A 0.39263983,0.39263983 0 0 1 7.9477104,5.4268576 0.39263983,0.39263983 0 0 1 8.3404313,5.0341367 0.39263983,0.39263983 0 0 1 8.7336641,5.4268576 0.39263983,0.39263983 0 0 1 8.4858457,5.7914172 V 6.4032834 7.0248781 L 8.6773416,6.8349179 C 8.7844326,6.7282707 8.8281656,6.6817822 8.8447729,6.6490539 A 0.39263983,0.39263983 0 0 1 8.8109795,6.4903271 0.39263983,0.39263983 0 0 1 9.2037004,6.0976062 0.39263983,0.39263983 0 0 1 9.5959092,6.4903271 0.39263983,0.39263983 0 0 1 9.2037004,6.8830479 0.39263983,0.39263983 0 0 1 9.0475337,6.8507906 L 8.772578,7.1262583 8.4858457,7.4129906 V 7.7990553 8.1856319 L 8.0946607,8.577329 7.702964,8.9690265 l 0.5801207,-5.14e-4 0.5698805,-10e-4 A 0.39263983,0.39263983 0 0 1 9.222645,8.7048226 0.39263983,0.39263983 0 0 1 9.6158779,9.0975435 0.39263983,0.39263983 0 0 1 9.222645,9.4902645 0.39263983,0.39263983 0 0 1 8.8555254,9.2363005 l -0.7050542,-0.0015 -0.7122226,-0.001 -0.4526276,0.452114 -0.4531393,0.4510925 v 0.437778 0.43778 L 6.8750243,10.672562 7.2175671,10.33258 h 0.466964 0.4495554 a 0.39263983,0.39263983 0 0 1 0.3686559,-0.258572 0.39263983,0.39263983 0 0 1 0.3927208,0.392722 0.39263983,0.39263983 0 0 1 -0.3200139,0.385552 c -0.00271,6.12e-4 -0.00548,9.6e-4 -0.0082,0.0015 a 0.39263983,0.39263983 0 0 1 -0.050179,0.0051 c -0.00686,3.97e-4 -0.013583,0.0026 -0.020481,0.0026 -0.00316,-7e-6 -0.00838,-0.0022 -0.011777,-0.0026 A 0.39263983,0.39263983 0 0 1 8.1402306,10.617225 H 7.7367574 7.3158753 l -0.3758242,0.376848 -0.3763362,0.376336 h 1.9369792 c 1.4583192,0 1.9500629,-0.0066 1.9902299,-0.02458 0.115772,-0.05273 0.111621,0.02923 0.111621,-2.0603765 v -1.923664 h 0.601627 0.567833 l 0.05683,-0.021504 0.04711,-0.047618 c 0.07608,-0.07619 0.0875,-0.142388 0.03993,-0.2319461 C 11.89982,7.0304977 11.593213,6.712672 11.23438,6.3546413 l -0.652317,-0.65078 -5.11e-4,-0.9154952 C 10.58132,4.0973278 10.57529,3.8600598 10.555951,3.8216687 10.501952,3.713565 10.431272,3.6993376 9.9353797,3.6992954 9.2848359,3.699253 9.2794795,3.7025162 9.2794795,4.1406583 V 4.4007655 L 7.8806356,3.0024335 6.4812794,1.6041014 c 0,0 -0.051971,-0.066309 -0.1239092,-0.050178 z M 7.2564806,4.6291272 A 0.15681229,0.15681229 0 0 0 7.1069703,4.7858059 0.15681229,0.15681229 0 0 0 7.264161,4.9429969 0.15681229,0.15681229 0 0 0 7.42084,4.7858059 0.15681229,0.15681229 0 0 0 7.264161,4.6291272 a 0.15681229,0.15681229 0 0 0 -0.00768,0 z m -1.732682,0.00717 A 0.15681229,0.15681229 0 0 0 5.3671196,4.7934864 0.15681229,0.15681229 0 0 0 5.5237986,4.9501649 0.15681229,0.15681229 0 0 0 5.6804772,4.7934864 0.15681229,0.15681229 0 0 0 5.5237986,4.6362957 Z M 4.0798964,5.2558422 A 0.15681229,0.15681229 0 0 0 3.9308981,5.4125209 0.15681229,0.15681229 0 0 0 4.0875768,5.5691995 0.15681229,0.15681229 0 0 0 4.2447674,5.4125209 0.15681229,0.15681229 0 0 0 4.0875768,5.2558422 a 0.15681229,0.15681229 0 0 0 -0.00768,0 z m 4.2477344,0.00972 A 0.15681229,0.15681229 0 0 0 8.1786325,5.4222452 0.15681229,0.15681229 0 0 0 8.3353111,5.5789241 0.15681229,0.15681229 0 0 0 8.4919898,5.4222452 0.15681229,0.15681229 0 0 0 8.3353111,5.2655666 a 0.15681229,0.15681229 0 0 0 -0.00768,0 z M 5.1321017,6.2645254 A 0.15681229,0.15681229 0 0 0 4.975423,6.4212041 0.15681229,0.15681229 0 0 0 5.1321017,6.578395 0.15681229,0.15681229 0 0 0 5.2892922,6.4212041 0.15681229,0.15681229 0 0 0 5.1321017,6.2645254 Z m 2.354789,0.062979 A 0.15681229,0.15681229 0 0 0 7.3378922,6.484183 0.15681229,0.15681229 0 0 0 7.4945711,6.6408617 0.15681229,0.15681229 0 0 0 7.6512497,6.484183 0.15681229,0.15681229 0 0 0 7.4945711,6.3275044 a 0.15681229,0.15681229 0 0 0 -0.00768,0 z m 1.7040092,0.00205 A 0.15681229,0.15681229 0 0 0 9.0413893,6.4862352 0.15681229,0.15681229 0 0 0 9.1985802,6.6429139 0.15681229,0.15681229 0 0 0 9.3552589,6.4862352 0.15681229,0.15681229 0 0 0 9.1985802,6.3295566 a 0.15681229,0.15681229 0 0 0 -0.00768,0 z m -5.286115,1.1802084 a 0.15681229,0.15681229 0 0 0 -0.1489984,0.1566787 0.15681229,0.15681229 0 0 0 0.1566787,0.156679 0.15681229,0.15681229 0 0 0 0.1566787,-0.156679 0.15681229,0.15681229 0 0 0 -0.1566787,-0.1566787 0.15681229,0.15681229 0 0 0 -0.00768,0 z M 7.3250916,7.696139 A 0.15681229,0.15681229 0 0 0 7.1755814,7.8528176 0.15681229,0.15681229 0 0 0 7.332772,8.0094963 0.15681229,0.15681229 0 0 0 7.4894506,7.8528176 0.15681229,0.15681229 0 0 0 7.332772,7.696139 a 0.15681229,0.15681229 0 0 0 -0.00768,0 z M 4.0711921,8.8835176 a 0.15681229,0.15681229 0 0 0 -0.1489986,0.1566789 0.15681229,0.15681229 0 0 0 0.1566789,0.156678 0.15681229,0.15681229 0 0 0 0.1571907,-0.156678 0.15681229,0.15681229 0 0 0 -0.1571907,-0.1566789 0.15681229,0.15681229 0 0 0 -0.00768,0 z m 5.1386524,0.053251 a 0.15681229,0.15681229 0 0 0 -0.1489982,0.1566799 0.15681229,0.15681229 0 0 0 0.1566785,0.156679 0.15681229,0.15681229 0 0 0 0.156679,-0.156679 0.15681229,0.15681229 0 0 0 -0.156679,-0.1566799 0.15681229,0.15681229 0 0 0 -0.00768,0 z M 5.5002454,9.0765515 a 0.15681229,0.15681229 0 0 0 -0.1489985,0.156679 0.15681229,0.15681229 0 0 0 0.156679,0.156679 0.15681229,0.15681229 0 0 0 0.1566785,-0.156679 0.15681229,0.15681229 0 0 0 -0.1566785,-0.156679 0.15681229,0.15681229 0 0 0 -0.00768,0 z M 4.278561,10.297724 a 0.15681229,0.15681229 0 0 0 -0.1489985,0.156678 0.15681229,0.15681229 0 0 0 0.1566787,0.157192 0.15681229,0.15681229 0 0 0 0.156679,-0.157192 0.15681229,0.15681229 0 0 0 -0.156679,-0.156678 0.15681229,0.15681229 0 0 0 -0.00768,0 z m 4.2190611,0.0077 a 0.15681229,0.15681229 0 0 0 -0.1566788,0.157191 0.15681229,0.15681229 0 0 0 0.1566788,0.15668 0.15681229,0.15681229 0 0 0 0.1566787,-0.15668 0.15681229,0.15681229 0 0 0 -0.1566787,-0.157191 z" />
</svg>
