<svg viewBox="0 0 48 48" xmlns="http://www.w3.org/2000/svg"><g fill="#fff" stroke-width=".855554"><g><path d="m41.110229 36.833012v7.699988l-8.555542-7.699988z"/><path d="m43.515192 13.732602c1.037787 0 1.872808.771539 1.872808 1.729075v20.499079c0 .95822-.835106 1.729075-1.872808 1.729075h-32.185948c-1.037787 0-1.872808-.771539-1.872808-1.729075v-10.24954h26.012269v-11.978614z"/></g><path d="m4.4600021 6.8881739a1.8437193 1.8437193 0 0 0 -1.8479971 1.847997v21.2485441a1.8437193 1.8437193 0 0 0 1.8479971 1.847997h32.9011919a1.8437193 1.8437193 0 0 0 1.847997-1.847997v-21.2476885a1.8437193 1.8437193 0 0 0 -1.847997-1.8479971zm1.7324972 3.5813501h29.4361977l-14.718099 10.835594z"/></g></svg>