<?xml version="1.0" encoding="UTF-8" standalone="no"?>
<svg
   xmlns:dc="http://purl.org/dc/elements/1.1/"
   xmlns:cc="http://creativecommons.org/ns#"
   xmlns:rdf="http://www.w3.org/1999/02/22-rdf-syntax-ns#"
   xmlns:svg="http://www.w3.org/2000/svg"
   xmlns="http://www.w3.org/2000/svg"
   xmlns:sodipodi="http://sodipodi.sourceforge.net/DTD/sodipodi-0.dtd"
   xmlns:inkscape="http://www.inkscape.org/namespaces/inkscape"
   width="48"
   height="48"
   viewBox="0 0 48 48"
   version="1.1"
   id="svg901"
   sodipodi:docname="humpback.svg"
   inkscape:version="1.0.2 (e86c870879, 2021-01-15, custom)">
  <metadata
     id="metadata907">
    <rdf:RDF>
      <cc:Work
         rdf:about="">
        <dc:format>image/svg+xml</dc:format>
        <dc:type
           rdf:resource="http://purl.org/dc/dcmitype/StillImage" />
        <dc:title></dc:title>
      </cc:Work>
    </rdf:RDF>
  </metadata>
  <defs
     id="defs905">
    <clipPath
       clipPathUnits="userSpaceOnUse"
       id="clipPath930">
      <path
         style="display:inline;opacity:1;fill:#c1d6dc;fill-opacity:1;stroke:none;stroke-width:1.989;stroke-linecap:butt;stroke-linejoin:miter;stroke-miterlimit:4;stroke-dasharray:none;stroke-opacity:1"
         d="m 1366.9435,124.46709 c -56.9587,-15.52528 -85.5117,31.77293 -85.5117,31.77293 0,0 -40.6796,-11.72549 -56.7674,29.5714 22.3314,-24.1552 49.3293,-13.88936 49.3293,-13.88936 -10.126,15.23126 -6.0633,95.50515 66.9174,101.09984 -87.061,-36.31974 -57.0423,-148.67068 26.0324,-148.55481 z"
         id="path932"
         sodipodi:nodetypes="cccccc"
         inkscape:export-xdpi="600"
         inkscape:export-ydpi="600" />
    </clipPath>
    <clipPath
       clipPathUnits="userSpaceOnUse"
       id="clipPath930-3">
      <path
         style="display:inline;opacity:1;fill:#c1d6dc;fill-opacity:1;stroke:none;stroke-width:1.989;stroke-linecap:butt;stroke-linejoin:miter;stroke-miterlimit:4;stroke-dasharray:none;stroke-opacity:1"
         d="m 1366.9435,124.46709 c -56.9587,-15.52528 -85.5117,31.77293 -85.5117,31.77293 0,0 -40.6796,-11.72549 -56.7674,29.5714 22.3314,-24.1552 49.3293,-13.88936 49.3293,-13.88936 -10.126,15.23126 -6.0633,95.50515 66.9174,101.09984 -87.061,-36.31974 -57.0423,-148.67068 26.0324,-148.55481 z"
         id="path932-6"
         sodipodi:nodetypes="cccccc"
         inkscape:export-xdpi="600"
         inkscape:export-ydpi="600" />
    </clipPath>
  </defs>
  <sodipodi:namedview
     pagecolor="#ffffff"
     bordercolor="#666666"
     borderopacity="1"
     objecttolerance="10"
     gridtolerance="10"
     guidetolerance="10"
     inkscape:pageopacity="0"
     inkscape:pageshadow="2"
     inkscape:window-width="2540"
     inkscape:window-height="1373"
     id="namedview903"
     showgrid="false"
     inkscape:pagecheckerboard="false"
     inkscape:object-paths="true"
     inkscape:snap-intersection-paths="false"
     inkscape:zoom="16.130873"
     inkscape:cx="7.1663735"
     inkscape:cy="14.675276"
     inkscape:window-x="0"
     inkscape:window-y="0"
     inkscape:window-maximized="1"
     inkscape:current-layer="svg901"
     inkscape:object-nodes="false" />
  <path
     id="circle1058"
     style="fill:#ffffff;fill-opacity:1;stroke:none;stroke-width:0.0682858;stroke-miterlimit:4;stroke-dasharray:none;stroke-opacity:1"
     d="M 28.740539,8.4218752 C 21.656076,8.2030308 18.105774,14.083985 18.105774,14.083985 c 0,0 -6.606076,-1.903947 -9.21875,4.802734 3.626643,-3.922843 8.011719,-2.255857 8.011719,-2.25586 -0.215642,0.324363 -0.389504,0.838145 -0.50586,1.47461 0.9891,-0.888126 2.291716,-1.538281 3.939453,-1.798828 1.855375,-4.169797 5.991977,-7.3907185 11.660157,-7.3828127 -1.156274,-0.315166 -2.239887,-0.4706896 -3.251954,-0.5019531 z m 4.146485,0.703125 C 24.094571,9.292671 21.48468,16.779297 21.48468,16.779297 c -7.417143,0.317278 -8.965223,7.862367 -6.283203,11.773438 -0.752158,-7.373865 5.480469,-8.667969 5.480469,-8.667969 0,0 -1.010762,5.049204 2.648437,9.414062 0.790092,-0.505377 1.573804,-1.043928 2.357422,-1.59375 -0.997716,-3.003859 -0.240276,-6.686515 3.236328,-8.898437 0,0 6.165847,-2.715382 3.962891,-9.6816408 z M 25.687805,27.705078 c 0.665814,2.004589 2.105822,3.709964 4.068359,4.462891 1.17797,0.451928 2.3477,0.839484 3.703125,2.558594 0.03799,0.0482 0.09659,0.04631 0.15625,0.03125 0,0 3.945543,-1.167391 5.558594,2.990234 -3.22876,-2.779279 -8.400504,-0.706913 -8.091797,4.064453 -2.858805,-3.647128 0.953125,-6.328125 0.953125,-6.328125 0.03371,-0.03693 0.06917,-0.110094 0.03516,-0.146484 -1.763552,-1.887 -3.53052,-2.19312 -4.058593,-2.453125 -2.090664,-1.029371 -3.585912,-2.278903 -4.681641,-3.585938 -0.20984,0.134223 -0.419426,0.271601 -0.630859,0.398438 1.294242,1.322268 2.964313,2.476574 5.066406,3.353515 -2.859952,-0.219243 -5.055459,-1.151203 -6.734375,-2.46289 -1.221419,0.55723 -2.489642,0.914349 -3.849609,0.908203 C 11.538344,31.470584 2.000309,24 2.000309,24 c 0,12.150264 9.849735,22 22,22 12.150264,0 22,-9.849736 22,-22 0,0 -9.349673,-0.80553 -13.835938,0.265625 -2.335623,0.557661 -4.415661,1.993431 -6.476562,3.439453 z m -4.65625,2.882813 c 0.564933,-0.257731 1.119518,-0.561616 1.667969,-0.890625 -2.445533,-2.498489 -3.521876,-5.607938 -3.44336,-8.658203 -0.817947,0.397704 -1.823849,1.038703 -2.652343,2.138672 0.574965,2.628973 1.917141,5.448704 4.427734,7.410156 z" />
</svg>
