<?xml version="1.0" encoding="utf-8"?>
<!-- Generator: Adobe Illustrator 21.1.0, SVG Export Plug-In . SVG Version: 6.00 Build 0)  -->
<svg version="1.0" id="Layer_1" xmlns="http://www.w3.org/2000/svg" xmlns:xlink="http://www.w3.org/1999/xlink" x="0px" y="0px"
	 viewBox="0 0 48 48" style="enable-background:new 0 0 48 48;" xml:space="preserve">
<style type="text/css">
	.st0{fill:#FFFFFF;}
</style>
<g>
	<path class="st0" d="M36.1,17c-0.5-2.9-3.1-5.1-6.1-5c-2.9,0-5.6,2.3-5.8,5.2c-0.2,2.3,0,4.6,0,7c4,0,8,0,12.1,0c0-0.1,0-0.2,0-0.4
		c0-1.8,0-3.7,0-5.5C36.2,17.8,36.2,17.4,36.1,17z"/>
	<path class="st0" d="M41,5H7C5.9,5,5,5.9,5,7v34c0,1.1,0.9,2,2,2h34c1.1,0,2-0.9,2-2V7C43,5.9,42.1,5,41,5z M39.3,27.1
		c-1,0-2,0-3,0c0,0.2,0,0.3,0,0.5c0,1.8,0,3.7,0,5.5c0,3.1-2.1,5.7-5,6.1c-3.1,0.5-5.9-1.3-6.8-4.4c-0.2-0.6-0.3-1.2-0.3-1.8
		c0-1.8,0-3.7,0-5.5c0-0.1,0-0.2,0-0.3c-1,0-2,0-3,0c0,4,0,8.1,0,12.1c-1,0-2,0-3,0c0-4,0-8,0-12.1c-3.1,0-6.1,0-9.1,0
		c0-0.2,0-0.3,0-0.5c0-2.9,0-5.8,0-8.7c0-5,4.1-9,9-9c4.1,0,8.3,0,12.4,0c4.4,0,8.3,3.5,8.9,7.8c0.1,0.4,0.1,0.9,0.1,1.3
		c0,2.9,0,5.7,0,8.6C39.3,26.8,39.3,26.9,39.3,27.1z"/>
</g>
</svg>
