<svg width="48" height="48" version="1.1" viewBox="0 0 48 48" xmlns="http://www.w3.org/2000/svg">
  <path d="m20.07 2.264c-8.669 0.1876-17.75 4.263-18.01 17.65 0.1786-0.4562 0.6804-1.17 1.365-1.982a20.22 20.22 0 0 0-1.182 6.742 20.22 20.22 0 0 0 19.73 20.2c6.281 1.612 12.67 1.003 15.66-2.104 0.822-2.428 1.009-4.286 0.9355-5.91a20.22 20.22 0 0 0 4.109-12.19 20.22 20.22 0 0 0-1.281-7.012c0.4931-0.8123 1.135-1.468 1.557-1.91l1.572-4.736c1.016-2.006 1.281-3.561 1.422-5.041-1.508 0.1468-3.016 0.6297-4.523 1.662-0.9968-0.6065-2.399-0.9411-3.924-1.195-0.2857-1.738-1.05-2.642-2.043-3.143l-1.125 2.309c-2.591-1.777-8.33-3.468-14.26-3.34zm-5.502 8.74c2.285 0.01791 4.228 1.471 5.119 5.471v4.619c0.5225 5.942 4.465 7.816 4.301 9.865 0.06852 1.041 2.537 2.362 2.74 5.117 0.09829 0.6945 3.262 1.083 3.604-0.8457-4.888-10.41-4.196-14.02-3.549-17.69 0.8179-1.357 1.592-2.77 3.098-3.268 1.368-0.3573 2.451 3.283 3.662 5.127 0.9132 0.7015 2.177 0.5857 3.436 0.9414 1.194 0.6724 2 0.7564 2.648 0.4375a17.62 17.62 0 0 1 0.457 3.887 17.62 17.62 0 0 1-14.45 17.33c-9.348-1.644-14.4-16.45-15.17-19.41-1.142-3.001-3.17-1.888-4.021-0.1777-0.9727 3.274-0.9888 6.226-0.3223 8.85a17.62 17.62 0 0 1-1.287-6.586 17.62 17.62 0 0 1 4.736-11.99c1.675-0.9951 3.416-1.688 4.998-1.676z" fill="#fff" />
</svg>
