<?xml version="1.0" encoding="UTF-8" standalone="no"?>
<svg
   xmlns:dc="http://purl.org/dc/elements/1.1/"
   xmlns:cc="http://creativecommons.org/ns#"
   xmlns:rdf="http://www.w3.org/1999/02/22-rdf-syntax-ns#"
   xmlns:svg="http://www.w3.org/2000/svg"
   xmlns="http://www.w3.org/2000/svg"
   id="svg4564"
   version="1.1"
   viewBox="0 0 48 48"
   height="48"
   width="48">
  <metadata
     id="metadata4570">
    <rdf:RDF>
      <cc:Work
         rdf:about="">
        <dc:format>image/svg+xml</dc:format>
        <dc:type
           rdf:resource="http://purl.org/dc/dcmitype/StillImage" />
        <dc:title></dc:title>
      </cc:Work>
    </rdf:RDF>
  </metadata>
  <defs
     id="defs4568" />
  <path
     id="rect4562"
     d="M 7 5 C 5.892 5 5 5.892 5 7 L 5 41 C 5 42.108 5.892 43 7 43 L 41 43 C 42.108 43 43 42.108 43 41 L 43 7 C 43 5.892 42.108 5 41 5 L 7 5 z M 31.800781 8.4785156 A 0.44267939 0.54573291 0 0 1 32.011719 8.5507812 L 34.962891 10.652344 L 37.914062 12.753906 A 0.44267939 0.54573291 0 0 1 37.914062 13.697266 L 34.962891 15.798828 L 32.011719 17.898438 A 0.44267939 0.54573291 0 0 1 31.347656 17.427734 L 31.347656 15.072266 L 21.755859 15.072266 C 21.003238 15.072266 20.396484 14.465512 20.396484 13.712891 L 20.396484 12.736328 C 20.396484 11.983706 21.003238 11.378906 21.755859 11.378906 L 31.347656 11.378906 L 31.347656 9.0234375 A 0.44267939 0.54573291 0 0 1 31.800781 8.4785156 z M 16.199219 15.851562 A 0.44267939 0.54573291 0 0 1 16.652344 16.396484 L 16.652344 18.751953 L 26.244141 18.751953 C 26.996762 18.751953 27.603516 19.356753 27.603516 20.109375 L 27.603516 21.085938 C 27.603516 21.838559 26.996762 22.445312 26.244141 22.445312 L 16.652344 22.445312 L 16.652344 24.798828 A 0.44267939 0.54573291 0 0 1 15.988281 25.271484 L 13.037109 23.171875 L 10.085938 21.070312 A 0.44267939 0.54573291 0 0 1 10.085938 20.125 L 13.037109 18.025391 L 15.988281 15.923828 A 0.44267939 0.54573291 0 0 1 16.199219 15.851562 z M 23.566406 27.455078 L 23.568359 27.455078 C 24.960985 27.455078 26.003831 27.685724 26.693359 28.146484 C 27.387409 28.600139 27.734375 29.286799 27.734375 30.207031 C 27.734375 30.833874 27.567858 31.349351 27.238281 31.751953 C 26.906764 32.149385 26.419667 32.428947 25.773438 32.591797 C 26.495922 32.779204 27.043801 33.106321 27.417969 33.570312 C 27.796013 34.030429 27.986328 34.615994 27.986328 35.330078 C 27.986328 36.391834 27.579874 37.202056 26.765625 37.757812 C 25.951374 38.3084 24.762463 38.583984 23.201172 38.583984 A 10.253087 10.253087 0 0 1 21.542969 38.447266 A 10.450833 10.450833 0 0 1 19.904297 38.054688 L 19.904297 35.919922 C 20.421281 36.178414 20.933469 36.374704 21.441406 36.509766 C 21.954513 36.639012 22.456806 36.703125 22.951172 36.703125 C 23.683351 36.703125 24.243122 36.576235 24.630859 36.322266 C 25.023766 36.068298 25.220703 35.704803 25.220703 35.230469 C 25.220703 34.742566 25.019143 34.373799 24.617188 34.125 C 24.219109 33.870386 23.630902 33.742187 22.849609 33.742188 L 21.744141 33.742188 L 21.744141 31.962891 L 22.90625 31.962891 C 23.600302 31.962891 24.117114 31.853213 24.457031 31.638672 C 24.796948 31.417014 24.966797 31.085217 24.966797 30.638672 C 24.966797 30.226378 24.803526 29.908481 24.472656 29.683594 C 24.140493 29.458705 23.673891 29.345703 23.070312 29.345703 C 22.624413 29.345703 22.173696 29.39723 21.71875 29.498047 C 21.263804 29.598218 20.81175 29.746258 20.361328 29.943359 L 20.361328 27.916016 A 12.461255 12.461255 0 0 1 21.984375 27.572266 A 11.169441 11.169441 0 0 1 23.566406 27.455078 z M 33.302734 27.648438 L 33.302734 27.650391 L 35.931641 27.650391 L 35.931641 36.466797 L 38.375 36.466797 L 38.375 38.375 L 30.875 38.375 L 30.875 36.466797 L 33.316406 36.466797 L 33.316406 29.53125 L 30.810547 30.046875 L 30.810547 28.166016 L 33.302734 27.648438 z "
     style="fill:#ffffff" />
</svg>
