<?xml version="1.0" encoding="UTF-8"?>
<svg viewBox="0 0 48 48" xmlns="http://www.w3.org/2000/svg">
  <path
     style="fill:#ffffff;fill-rule:evenodd;stroke:none;stroke-width:0.7346862"
     id="Fill-1"
     d="m 30.125486,24.992294 4.319402,5.745975 c 0.358188,0.476959 0.378509,1.269686 0.04496,1.76413 l -0.218387,0.322673 c -0.332445,0.493269 -1.001141,1.179319 -1.48505,1.524695 l -0.519401,0.367931 c -0.483093,0.344567 -1.265585,0.332004 -1.737298,-0.02866 l -5.704747,-4.357567 c -0.471721,-0.360879 -1.244724,-0.360879 -1.716704,0 l -5.704478,4.357567 c -0.472261,0.360877 -1.258816,0.378584 -1.745431,0.04115 l -0.377156,-0.260741 c -0.486895,-0.33935 -1.165063,-1.017173 -1.504016,-1.506106 l -0.325412,-0.470127 c -0.338943,-0.48805 -0.324319,-1.277836 0.03225,-1.754795 l 4.325375,-5.748699 c 0.356562,-0.47718 0.356562,-1.2547 0,-1.731358 l -4.325375,-5.750323 c -0.356552,-0.476959 -0.370105,-1.264024 -0.02845,-1.751861 l 0.367671,-0.523315 c 0.340306,-0.487826 1.021188,-1.161607 1.511068,-1.496264 l 0.321074,-0.220029 c 0.4896,-0.336339 1.276145,-0.314233 1.748416,0.04477 l 5.704468,4.357788 c 0.471991,0.360659 1.244993,0.360659 1.716714,0 l 5.704747,-4.357788 c 0.471713,-0.359267 1.274525,-0.407315 1.786066,-0.103739 l 0.596624,0.35515 c 0.511275,0.303275 1.163706,0.97948 1.451181,1.501773 l 0.210253,0.382474 c 0.286115,0.520821 0.229221,1.337936 -0.128967,1.814825 l -4.319417,5.74899 c -0.358185,0.476668 -0.358185,1.255801 0,1.731358 v 0 z M 24.037072,2.0528156 c -12.066269,0 -21.8476554,9.8550774 -21.8476554,22.0115624 0,12.15781 9.7813864,22.014287 21.8476554,22.014287 12.066537,0 21.847929,-9.856477 21.847929,-22.014287 0,-12.156485 -9.781392,-22.0115624 -21.847929,-22.0115624 z" />
</svg>
