<?xml version="1.0" encoding="UTF-8"?>
<svg version="1.1" viewBox="0 0 48 48" xmlns="http://www.w3.org/2000/svg">
    <defs>
        <style>.a{fill:#fff;}</style>
    </defs>
    <path d="m7.5 4.5c-1.1046 0-2 0.89543-2 2v10.98h37v-10.98c0-1.1046-0.89543-2-2-2h-33zm8.3008 3.9805c3.6451-0.32635 3.6451 5.3264 0 5v0.019531c-1.3862-1e-6 -2.5117-1.1235-2.5117-2.5098 0-1.3862 1.1255-2.5098 2.5117-2.5098zm16.398 0c1.3862 0 2.5117 1.1235 2.5117 2.5098 0.008898 2.25-2.7119 3.3818-4.3027 1.791s-0.45902-4.3097 1.791-4.3008zm-26.699 11v22.02c0 1.1046 0.89543 2 2 2h33c1.1046 0 2-0.89543 2-2v-22.02h-37zm24.693 3.0352c1.7992 0.053908 3.545 0.91528 4.6738 2.4648l-4.834 1.2969 1.0352 3.8613 4.9414-1.3223c-0.10248 2.0329-1.2277 3.8744-2.9902 4.8926-2.2236 1.2798-5.0149 1.0044-6.9453-0.68555l-7.9961 4.6152-4.0879 2.3613-2-3.4648 4.0879-2.3594 8.0371-4.6406c-0.43026-2.4768 0.72885-4.9589 2.9043-6.2188 0.99632-0.5749 2.0943-0.83313 3.1738-0.80078z" fill="#fff"/>
</svg>
