<?xml version="1.0" encoding="UTF-8"?>
<svg version="1.1" viewBox="0 0 48 48" xmlns="http://www.w3.org/2000/svg">
    <path d="m5 11.398c1.2914 2.5983 4.556 5.1958 9.3102 7.7941-1.5498-0.17758-2.8936-0.63128-5.1087 0.07824 1.2852 2.4962 4.4276 4.8104 9.0565 5.8065l-5.0008 0.65127c7.1666 9.457 13.229 4.8661 13.404 5.7578 0.26101 1.3282-3.6934 6.6082-11.05 8.1092 8.0723 1.2805 11.687 1.0439 16.671-2.3831 3.8109-2.6205 5.5203-7.0235 6.8616-10.869 0.84415-2.4199 0.85798-6.6541 3.8569-7.8301-9.7052-3.7189-11.621 5.0179-12.795 5.0579-1.368 0.046609-8.3429-11.747-25.205-12.173zm32.6 7.2993c0.59792 0 1.0826 0.48471 1.0826 1.0826s-0.48471 1.0826-1.0826 1.0826-1.0826-0.48471-1.0826-1.0826 0.48471-1.0826 1.0826-1.0826z" fill="#fff"/>
    <path d="m19.282 7.4669c1.0583 2.8476 1.1629 6.2303 2.3896 6.9918 1.7056 1.0587 7.3244 5.086 8.9388 7.4343-0.51116-2.1536 0.14456-9.7058-11.328-14.426z" fill="#fff"/>
</svg>
