<?xml version="1.0" encoding="utf-8"?>
<!-- Generator: Adobe Illustrator 21.1.0, SVG Export Plug-In . SVG Version: 6.00 Build 0)  -->
<svg version="1.0" id="Layer_1" xmlns="http://www.w3.org/2000/svg" xmlns:xlink="http://www.w3.org/1999/xlink" x="0px" y="0px"
	 viewBox="0 0 48 48" style="enable-background:new 0 0 48 48;" xml:space="preserve">
<style type="text/css">
	.st0{fill:#FFFFFF;}
</style>
<g>
	<path class="st0" d="M25,26.4c2.6-0.2,4.5-1.5,5.9-3.8c-4.3,0-8.5,0-12.8,0C19.8,25.2,22,26.6,25,26.4z"/>
	<path class="st0" d="M41,5H7C5.9,5,5,5.9,5,7v34c0,1.1,0.9,2,2,2h34c1.1,0,2-0.9,2-2V7C43,5.9,42.1,5,41,5z M14.7,18.7
		c0.7-3.5,3-5.5,6.2-6.6c1-0.3,2.1-0.4,3.2-0.6c4.5,0.1,8.2,2.9,9.1,7.1c0.6,2.5-0.3,4.7-1.9,6.6c-3.6,3.9-10.1,4.2-14.1,0.6
		C15.2,23.9,14.1,21.5,14.7,18.7z M10.6,36.5c0.7-2.5,2-4.4,4.1-5.7c0.6-0.4,1.4-0.7,2-1c1-0.4,1.9-0.5,2.9,0c3,1.2,6,1.1,9.1,0
		c0.7-0.2,1.5-0.3,2.2-0.1c3.3,1.1,5.6,3.2,6.6,6.9C28.4,36.5,19.6,36.5,10.6,36.5z"/>
</g>
</svg>
