<?xml version="1.0" encoding="UTF-8"?>
<svg version="1.1" viewBox="0 0 48 48" xmlns="http://www.w3.org/2000/svg">
    <path d="m10.881 38.001c-0.4162-1.3082-0.08375-1.3428 2.2991-2.7349 2.0545-1.2003 4.8045-4.7367 5.5434-4.9546 0.73634-0.21715 4.6818 3.6884 6.0171 6.2492 0.97559 1.8709 1.3718 2.9352 1.8072 2.6142 1.5966-0.9719 4.4862-3.1658 4.5979-3.5188 0.25749-0.81329-0.99211-0.6989-1.5965-0.6427-1.2305 0.11444-1.1204 0.45552-2.8696-2.8525-1.0284-1.9449-2.2363-3.6167-3.2542-4.5802l-2.0669-1.9566 1.0883-2.4401c0.55745-1.2499 0.45777-2.439 0.59626-2.5775 0.13849-0.13849 1.3907 0.37094 2.2931 0.64253 2.4879 0.74874 5.5874 0.84355 7.1088-0.02578 0.6008-0.34332 1.1808-0.78443 1.1808-0.78443l1.5353 1.5353c0.70936 0.70936 0.70936 0.70936 1.6464-0.22764l5.5695-5.5695c0.81229-0.81228 0.81229-0.81228 0.10292-1.5216l-5.0001-5.0001c-0.84618-0.84618-0.84618-0.84618-1.6585-0.033893l-5.5696 5.5695c-0.937 0.937-0.937 0.937-0.09082 1.7832l1.3835 1.3835c-0.41423 0.45433-2.3688 0.88559-5.724-0.88092-1.5295-0.80529-3.6725-2.3723-3.8597-2.2652-0.40024 0.22888-0.10229 1.9061-0.44104 3.9513-0.61057 3.6863-2.9534 7.8759-5.6494 10.714-0.97621 1.0275-3.077-0.04944-4.5909-0.81789-1.2698-0.64452-2.1556-1.4044-2.1581-1.9468-0.00129-0.27699 0.75153-1.1332 1.6592-2.255s2.0786-2.9984 2.742-4.2053c1.316-2.3942 1.4929-2.8948 2.0103-2.3774 0.2332 0.2332-0.06838 0.92327-0.64399 2.1806-0.6338 1.3844-1.2026 1.8915-0.53468 2.366 0.67728 0.48118 3.7577 1.4179 4.0741 1.0937 0.71372-0.7315 2.0565-4.1143 2.2265-6.34 0.14112-1.8473-0.22404-2.9387 0.2746-3.4033 0.15647-0.14578 1.266-0.06448 1.266-0.06448-0.03552-1.3855 0.26164-1.9728 0.26164-1.9728-0.7201-1.0784-1.1926-1.246 1.029-2.1302 0.30472-0.19761 0.22379-0.50752-0.0495-0.61239-0.27329-0.10488-2.1965 1.2494-1.9846-0.16254 0.29252-1.9488-3.5776-0.67145-4.5186 1.0481-0.46606 0.85171-0.59079 1.3372 0.10345 2.613 0.41248 0.758 0.97375 1.3547 0.97375 1.3547s-1.7181-0.04507-3.0424 0.03346c-1.7572 0.10421-2.9353 0.28093-4.3713 1.1857-2.5413 1.6013-5.2571 3.6142-4.8825 4.4327 0.19122 0.4179 0.42421 0.20331-0.46293 1.2244-0.66164 0.76154 0.10531 2.2527 0.86482 2.2527 0.70483 0 1.7326-1.3955 1.6459-2.0279-0.033804-0.24653 0.26312-0.63729 0.26312-0.63729 0.39066-0.53989 2.3002-1.6708 3.5802-1.9858 0.76232-0.18762 1.0182 0.31779 0.82864 0.82504-0.40054 1.0721-1.8746 3.2585-3.8538 5.6326-0.75954 0.91112-1.4954 1.9203-1.4954 2.2425 0 0.32227 1.2082 1.3728 1.9855 1.9149 3.0681 2.1397 2.7184 1.5411 1.047 3.0942-1.2072 1.1218-3.4377 2.4457-3.6381 3.0463-0.19711 0.59074 3.7408 4.4308 4.1952 4.2691 0.18807-0.06694 0.38196-1.1938 0.20638-1.7457z" fill="#fff"/>
</svg>
