<svg xmlns="http://www.w3.org/2000/svg" viewBox="0 0 48 48"><defs><style>.cls-1{fill:#fff;fill-rule:evenodd;}</style></defs><title>instacart</title><g id="Layer_1" data-name="Layer 1"><path class="cls-1" d="M24,2A22,22,0,1,0,46,24,22,22,0,0,0,24,2Zm6.41,7.06c.77,0,4.31.32,4.31,3.16s-4.31,6.16-5.38,6.16S27.1,14.75,27.1,13,27.35,9.06,30.41,9.06Zm.07,18c-6.05,6-17.19,10.85-18.19,9.85s3.81-12.13,9.86-18.18c.93-.93,3.6-2.1,7,1.31S31.41,26.14,30.48,27.07Zm4.32-5.19c-1.3,0-4-.87-4-1.66s2.46-4,4.57-4,2.35,2.63,2.35,3.2C37.73,21.7,36.09,21.88,34.8,21.88Z"/></g></svg>