<svg xmlns="http://www.w3.org/2000/svg" viewBox="0 0 48 48"><defs><style>.cls-1{fill:#fff;}</style></defs><g id="Layer_1" data-name="Layer 1"><path class="cls-1" d="M24,5c-5.16,0-5.81,0-7.83.11A14,14,0,0,0,11.56,6,9.23,9.23,0,0,0,8.19,8.19,9.11,9.11,0,0,0,6,11.55a14.14,14.14,0,0,0-.89,4.62C5,18.19,5,18.84,5,24s0,5.81.11,7.83A14,14,0,0,0,6,36.44a9.23,9.23,0,0,0,2.19,3.37A9.11,9.11,0,0,0,11.55,42a14.14,14.14,0,0,0,4.62.89c2,.09,2.67.11,7.83.11s5.81,0,7.83-.11A14.19,14.19,0,0,0,36.45,42,9.7,9.7,0,0,0,42,36.44a14.07,14.07,0,0,0,.89-4.61c.09-2,.11-2.67.11-7.83s0-5.81-.11-7.83A14.14,14.14,0,0,0,42,11.55,9.7,9.7,0,0,0,36.44,6a14.13,14.13,0,0,0-4.61-.89C29.8,5,29.16,5,24,5ZM22.3,8.42H24c5.07,0,5.68,0,7.68.11a10.65,10.65,0,0,1,3.53.66,5.76,5.76,0,0,1,2.18,1.42,5.76,5.76,0,0,1,1.42,2.18,10.65,10.65,0,0,1,.66,3.53c.09,2,.11,2.61.11,7.68s0,5.67-.11,7.67a10.65,10.65,0,0,1-.66,3.53,6.3,6.3,0,0,1-3.6,3.6,10.65,10.65,0,0,1-3.53.66c-2,.09-2.61.11-7.68.11s-5.67,0-7.68-.11a10.58,10.58,0,0,1-3.52-.66,6.28,6.28,0,0,1-3.61-3.6,10.65,10.65,0,0,1-.66-3.53c-.09-2-.1-2.61-.1-7.68s0-5.67.1-7.67a10.59,10.59,0,0,1,.66-3.53,5.92,5.92,0,0,1,1.42-2.19A6.05,6.05,0,0,1,12.8,9.18a10.39,10.39,0,0,1,3.52-.65c1.76-.08,2.44-.11,6-.11Zm11.84,3.16a2.28,2.28,0,1,0,2.28,2.28,2.29,2.29,0,0,0-2.28-2.28ZM24,14.24A9.76,9.76,0,1,0,33.76,24,9.76,9.76,0,0,0,24,14.24Zm0,3.43A6.33,6.33,0,1,1,17.67,24,6.33,6.33,0,0,1,24,17.67Z"/></g></svg>