<?xml version="1.0" encoding="UTF-8"?>
<svg version="1.1" viewBox="0 0 48 48" xmlns="http://www.w3.org/2000/svg">
    <path d="m6.8906 18.457-1.8906 7.9883 2.2539 8.2285c0 0.74043 0.59746 1.3359 1.3379 1.3359h4.334v-4.2188h-1.9043v-2.5957h25.957v2.5957h-1.9043v4.2188h4.334c0.74043 0 1.1422-0.62184 1.3379-1.3359l2.2539-8.2285-1.8906-7.9883h-3.2852l1.1016 5.6191h-6.8418l-7.6797 4.8574-4.7441-4.8574h-10.586l1.1016-5.6191h-3.2852z" fill="#fff" style="paint-order:stroke markers fill"/>
    <path d="m14.83 18.457 9.6387 9.8691 12.047-7.6211-2.6914-2.248h-2.2656l0.59766 0.59766-9.1621 5.7949-0.7793-0.7793 8.875-5.6133h-2.0137l-7.6406 4.834-0.7793-0.7793 6.4082-4.0547h-2.0117l-5.1777 3.2754-0.7793-0.78125 3.9434-2.4941zm18.107 1.377 0.7793 0.7793-9.1621 5.7969-0.78125-0.7793z" fill="#fff" style="paint-order:stroke markers fill"/>
    <path d="m10.147 8.9557h27.707c0.66568 0 0.83769 0.64417 1.2016 1.2016l3.5705 5.6686-0.32448 1.6317h-36.537l-0.45428-1.6317 3.6354-5.6686c0.35936-0.56035 0.53591-1.2016 1.2016-1.2016z" fill="#fff" style="paint-order:stroke markers fill"/>
    <path d="m13.775 29.994v9.8496h20.449v-9.8496h-20.449zm1.2246 1.0059h14.5v1h-14.5v-1zm3 1.7598a3 3 0 0 1 3 3 3 3 0 0 1-3 3 3 3 0 0 1-3-3 3 3 0 0 1 3-3zm5 0.64062h9v1h-9v-1zm0 2h9v1h-9v-1zm0 2h9v1h-9v-1z" fill="#fff" style="paint-order:stroke markers fill"/>
</svg>
