<?xml version="1.0" encoding="UTF-8"?>
<svg version="1.1" viewBox="0 0 48 48" xmlns="http://www.w3.org/2000/svg">
    <defs>
        <style>.cls-1{fill:#fff;}</style>
    </defs>
    <path d="m38.469 5-12.479 9.0684 4.5312 6.2383 12.479-9.0664-4.5312-6.2402zm-17.416 6.3008-4.3477 3.1543 1.2637 1.7383 4.3457-3.1562-1.2617-1.7363zm2.3359 2.4648-4.9902 3.627 6.9961 9.6328c-0.72523 1.0678-0.90597 2.0286-0.49023 2.6055l4.0547-2.9473 2.498-1.8125 1.5586-1.1328c-0.42015-0.57364-1.3893-0.69962-2.6289-0.33984l-6.998-9.6328zm-5.5098 6.1953-12.479 9.0645 4.5312 6.2402 12.479-9.0645-4.5312-6.2402zm25.121 6.6641c-9.1289 0.083-16.339 7.2873-16.367 16.365l4.6113 0.001954c0.05763-6.2749 5.4557-11.615 11.756-11.754v-4.6133zm0 9.4512c-4.1518 0.01154-6.9045 2.7642-6.916 6.916l6.916 0.007812v-6.9238z" fill="#fff" stroke-width=".94025"/>
</svg>
