<?xml version="1.0" encoding="UTF-8"?>
<svg version="1.1" viewBox="0 0 48 48" xmlns="http://www.w3.org/2000/svg">
    <path d="m8.65 11.259v10.37h3.4694v-10.37h-3.4318zm3.9727 0v10.37h3.4694v-10.37h-3.4318zm19.283 0v10.37h3.4694v-10.37h-3.4318zm3.975 0.0022v10.37h3.4694v-10.37h-3.4318zm-25.789 0.51455h0.28284v9.3654h-0.28284zm3.9727 0h0.28282v9.3654h-0.28282zm19.283 0h0.2828v9.3654h-0.2828zm3.975 0.0022h0.28281v9.3655h-0.28281zm-13.181 2.3364-0.62716 1.2587v0.39088h-4.516v0.81707h4.516v2.9172h-0.46825v2.5815h-14.107v0.66028h14.107v1.0401h0.46824v2.2569h-0.46824v1.908h-0.66914v-2.7516h-2.8466v5.7836h2.8466v-2.6433h0.66912v1.9058h0.46822v1.2079h-0.46824v0.93411h-2.0626v-0.23408h-2.14v1.4001h2.14v-0.38866h2.0626v0.97386h0.46824v1.6341h-1.1306v0.31138h1.1306v0.66249h1.2059v-0.66248h1.1285v-0.31139h-1.1285v-1.6341h0.50577v-0.97386h1.9256v0.33125h2.142v-1.4001h-2.142v0.2915h-1.9257v-0.93411h-0.50576v-1.2079h0.50576v-1.9058h0.76629v2.6433h2.8466v-5.7836h-2.8466v2.7516h-0.7663v-1.908h-0.50576v-2.2569h0.50576v-1.0401h14.016v-0.66029h-14.016v-2.5815h-0.50579v-2.9172h1.5966v-0.81704h-1.5967v-0.39098zm-15.491 9.2285v10.37h3.4694v-10.37h-3.4318zm3.9727 0v10.37h3.4694v-10.37h-3.4318zm19.283 0v10.37h3.4694v-10.37h-3.4318zm3.9727 0v10.37h3.4694v-10.37h-3.4318zm-25.786 0.51674h0.28284v9.3654h-0.28284zm3.9727 0h0.28282v9.3654h-0.28282zm19.283 0h0.2828v9.3654h-0.2828zm3.9728 0h0.28281v9.3654h-0.28283zm-9.8976 1.6054h0.23197v5.2227h-0.23197zm-6.7088 0.01548h0.23195v5.2249h-0.23195z" fill="#fff"/>
</svg>
