<svg
   width="48"
   height="48"
   >
  <path
     style="fill:#ffffff"
     d="m 21.167498,29.232554 -2.844825,-5.04 -2.823278,5.04 z m 14.267242,7.250527 4.913798,-2.895787 -4.913798,-2.917898 z m 0.474143,-6.653685 4.91379,2.917898 v -5.813685 z m -10.280175,5.415795 2.823277,-5.04 H 22.78389 l 2.844825,5.04 z m -0.02155,-11.052637 -2.82327,5.04 h 5.668095 l -2.844833,-5.04 z m 3.663795,4.553685 2.844825,-5.04 h -5.68965 l 2.844832,5.04 z m 6.163792,-7.228418 v 0 l 4.913793,-2.895787 v -0.02211 L 35.43474,15.704136 v 5.813693 0 z m 0,7.471575 v 0.02211 l 4.913798,-2.917898 -4.913798,-2.91789 z M 3.3657751,21.517821 v 0 l 4.9137977,-2.895787 v -0.02211 L 3.3657751,15.704136 v 5.813693 0 z m 0,7.471575 v 0.02211 l 4.9137977,-2.917897 -4.9137977,-2.91789 z m 15.7543129,6.74211 h 5.689657 l -2.844832,-5.04 z m -3.64224,-5.526315 2.844825,5.04 2.823277,-5.04 z m -3.642248,-6.498952 2.844833,5.04 2.823277,-5.04 z M 3.3657751,36.483081 8.2795728,33.587294 3.3657751,30.669396 Z M 8.7537078,32.747294 V 26.933609 L 3.8399176,29.829396 Z M 44,26 A 22,22 0 0 1 22,48 22,22 0 0 1 0,26 22,22 0 0 1 22,4 22,22 0 0 1 44,26 Z"
     />
</svg>
