<?xml version="1.0" encoding="UTF-8"?>
<svg version="1.1" viewBox="0 0 48 48" xmlns="http://www.w3.org/2000/svg">
    <path d="m24.741 8.8114 3.2092 11.936c0.83852 3.1294 3.1442 5.1941 5.6489 5.194 2.5046-1.83e-4 4.7387-2.1719 5.5512-5.194l3.2092-11.936c0.72995-4.4573-5.1365-4.6494-6.2355-1.4229l-2.5737 9.3463-2.5737-9.3463c-1.7627-4.0008-7.0409-1.9329-6.2355 1.4229z" fill="#fff" style="paint-order:stroke markers fill"/>
    <path d="m17.304 5.1961c-1.9059-0.075996-3.7792 1.5179-3.2759 3.6153l3.2084 11.936c0.83852 3.1294 3.145 5.1941 5.6496 5.194 2.2474 0.09114 5.0227-2.0563 4.0361-4.8592l-2.6086-9.7067-1.4763 5.359-2.5737-9.3463c-0.66102-1.5003-1.8161-2.1468-2.9597-2.1924z" fill="#fff" style="paint-order:stroke markers fill"/>
    <path d="m11.008 12.797c-1.8562-0.03664-3.8253 1.3459-3.5256 2.6832l2.041 7.5794c0.53251 1.9873 2.5942 3.1386 5.0377 2.91 2.3432-0.27995 2.0078-1.5317 0.79236-6.0675l-1.017-3.7976c-0.75092-2.8025-1.8883-3.279-3.3284-3.3075z" fill="#fff" style="paint-order:stroke markers fill"/>
    <circle transform="rotate(-15)" cx="6.4602" cy="10.523" r="3.3331" fill="#fff" style="paint-order:stroke markers fill"/>
    <path d="m7.1624 29.472-1.1904 2.7379h4.5234s-0.9365 5.433-1.4285 7.9755c-0.18274 0.94442-0.17911 2.1427-1.9046 2.1427v0.35711h6.5471v-0.35711c-2.0463 0-1.4546-1.3684-1.3094-2.1427l1.4214-7.9755s2.9977-0.34612 2.864 1.7856h0.59519l1.5475-2.9759h-9.2849s-1.7074 0-1.7856-1.5475z" fill="#fff"/>
    <path d="m19.742 31.019-0.71423 4.2854h-0.35711l-1.3094 1.3094h1.4483l-0.59519 3.5711c-0.22578 1.3547-0.38475 2.1427-1.9244 2.1427v0.35711l6.5471 0.0011v-0.3583c-1.4742 0-1.3969-0.50294-1.1446-2.1427l0.46628-3.0308c0.72373 0.05164 1.5096 0.18865 2.8343 1.0666l2.5516-2.9981c-1.4875-0.45358-3.1209-0.61517-5.0647-0.15629l0.23808-1.5475c0.50796-1.8957 4.8076-0.97672 4.0237 0l0.29919 0.31583c0.92457-0.95378 1.8772-1.8795 3.1765-2.4585v-0.35711z" fill="#fff"/>
    <path d="m38.822 39.433 0.65107 1.6585c0.24384 0.1846-3.819 2.0637-6.4437 1.898-1.5401-0.09723-6.2216-0.19251-6.255-5.6692l1.9589-2.3017c-0.51044-0.16916-0.95934-0.24413-1.0547-0.25321 1.8839-2.2726 3.7037-3.5858 7.5206-3.8476 1.3682-0.09381 4.0825 0.35003 4.0825 0.35003 0.80351 0.12365 1.596 0.22537 2.1007-0.24861h0.55868l-2.1139 3.7945-0.54551-0.03744c-0.90812-3.1624-3.1946-2.9569-3.955-2.967-2.8571-0.03805-4.8586 1.6642-5.3583 4.8169-0.92925 5.8621 4.5348 6.3254 8.8536 2.8067z" fill="#fff"/>
</svg>
