<?xml version="1.0" encoding="utf-8"?>
<!-- Generator: Adobe Illustrator 21.1.0, SVG Export Plug-In . SVG Version: 6.00 Build 0)  -->
<svg version="1.0" id="Layer_1" xmlns="http://www.w3.org/2000/svg" xmlns:xlink="http://www.w3.org/1999/xlink" x="0px" y="0px"
	 viewBox="0 0 48 48" style="enable-background:new 0 0 48 48;" xml:space="preserve">
<style type="text/css">
	.st0{fill:#FFFFFF;}
	.st1{fill:none;stroke:#FFFFFF;stroke-width:3;stroke-linecap:round;stroke-miterlimit:10;}
</style>
<g>
	<path class="st0" d="M19.7,20.5c0.9,0,1.3,0.7,1,1.4c-0.4,0.9-0.9,1.9-1.4,2.8c-0.7,1.3-1.3,2.7-2,4c-0.3,0.6-0.8,0.8-1.3,0.6
		c-0.5-0.2-0.7-0.7-0.4-1.3c1.1-2.3,2.3-4.7,3.5-7C19.2,20.8,19.5,20.6,19.7,20.5z"/>
	<path class="st0" d="M27.9,21.3c-0.1,0.4-0.2,0.6-0.3,0.8c-1.1,2.2-2.2,4.3-3.3,6.5c-0.3,0.7-0.8,0.9-1.3,0.7
		c-0.6-0.3-0.7-0.8-0.3-1.5c1.1-2.2,2.2-4.4,3.3-6.6c0.2-0.5,0.6-0.8,1.1-0.6C27.4,20.7,27.6,21.1,27.9,21.3z"/>
	<path class="st0" d="M24.4,21.3c-0.1,0.4-0.2,0.6-0.3,0.8c-0.5,1-1,2.1-1.6,3.1c-0.3,0.7-0.8,0.9-1.4,0.6c-0.5-0.3-0.6-0.8-0.3-1.4
		c0.5-1.1,1.1-2.2,1.7-3.3c0.2-0.4,0.6-0.7,1.1-0.5C23.9,20.7,24.1,21,24.4,21.3z"/>
	<path class="st0" d="M13,29.4c-0.8,0-1.3-0.6-1-1.3c0.6-1.3,1.2-2.5,1.9-3.7c0.2-0.4,0.7-0.5,1.2-0.3c0.4,0.3,0.6,0.7,0.4,1.2
		c-0.6,1.2-1.2,2.4-1.8,3.6C13.5,29.1,13.2,29.3,13,29.4z"/>
	<polygon class="st1" points="8.9,7.1 39.1,24 8.9,40.9 	"/>
</g>
</svg>
