<?xml version="1.0" encoding="UTF-8"?>
<svg version="1.1" viewBox="0 0 48 48" xmlns="http://www.w3.org/2000/svg">
    <path d="m24 5c-5.0263 0-21.214 29.348-18.746 34.305 2.4682 4.9562 35.055 4.8991 37.496 0 2.4413-4.8991-13.719-34.305-18.75-34.305zm0.0059 7.5273c3.2945 0 13.883 19.264 12.283 22.477-1.5995 3.2114-22.949 3.2473-24.566 0-1.6175-3.2473 8.9886-22.477 12.283-22.477zm-0.0059 7.0332c-1.6689 0-7.0396 9.7403-6.2207 11.385 0.81893 1.6445 11.631 1.6265 12.441 0 0.80995-1.6265-4.5494-11.384-6.2207-11.385z" fill="#fff" stroke-width=".08165"/>
</svg>
