<svg xmlns="http://www.w3.org/2000/svg" viewBox="0 0 48 48" height="48" width="48" >
  <path style="fill:#ffffff" d="m 30.816693,1.0001336 c -0.127037,-0.001917 -0.253709,0.012937 -0.379049,0.043892 -2.530869,0.7272495 -2.000231,3.1507468 -2.192837,5.0471232 -2.489995,2.3651348 -6.538009,0.2507763 -6.798436,9.0258972 -4.079649,0.651608 -8.370217,4.034616 -5.860949,10.19765 -9.0886491,-1.165389 -6.9611997,16.290573 -1.523795,21.685273 0.645705,-3.794334 1.215797,-6.583061 2.70907,-10.370725 6.999974,3.538776 11.768999,0.08893 14.377358,-2.806159 0.804568,0.207469 6.805874,-1.938543 7.441305,-10.969683 0.06421,-4.35952 0.504179,-8.692206 -4.600962,-10.315007 -0.04073,-0.342058 -0.165666,-0.74772 -0.427167,-1.255339 0.497011,-1.258941 1.123559,-1.6075727 1.33765,-3.8276544 C 34.752553,4.553677 32.722336,1.0225107 30.816693,1.0001336 Z m -0.09162,2.0966007 c 2.349457,2.0274761 1.766456,6.2578224 0.185735,7.8304837 1.022415,1.116831 1.23414,2.711821 0.609518,3.699334 8.339444,-1.872609 5.45957,14.93621 -0.227939,17.047176 l -0.967044,-0.410291 c -5.582859,7.337048 -12.515386,3.967802 -13.391732,2.725535 -3.154523,1.48483 -3.085513,4.856367 -3.985521,6.626646 -1.722957,-4.687662 -2.9828191,-11.996161 1.811678,-13.253704 1.364014,-0.07082 3.02372,1.188504 4.693815,2.495066 0.299316,-0.257111 0.622207,-0.420938 0.695203,-1.583318 -6.935986,-6.874375 -0.49402,-11.963895 3.759278,-11.457225 -0.262027,-4.655635 0.312579,-5.917423 0.967044,-6.475948 7.631332,-2.5353445 5.095126,-6.9520288 5.849965,-7.2437547 z" />
  <path d="M 24.816355,13.461268 C 23.85051,11.056181 28.165707,10.387322 29.871317,8.8605173 28.637139,12.648152 26.739354,13.117764 24.816355,13.461268 Z" />
  <path style="fill:#ffffff" d="m 29.796587,15.745951 c -0.389744,1.078019 -1.597502,1.911566 -3.119419,2.403986 -2.227749,-1.337257 -1.866333,-2.195031 -2.109902,-3.164853 0.827558,-0.609116 1.73115,-1.349265 3.243446,-1.692099 0.199994,1.87974 0.861445,2.339289 1.985875,2.452966 z" />
  <path style="fill:#ffffff" d="m 30.342702,11.886691 c 0.671273,0.307461 0.850836,2.304702 -0.105081,2.746742 -2.418505,-0.400094 -0.528425,-2.948433 0.105081,-2.746742 z" />
  <path style="fill:#ffffff" d="M 30.451588,9.8590035 C 31.122257,9.327503 31.399809,8.343248 31.352966,6.901054 31.17693,7.765642 30.931223,8.8288157 30.451588,9.8590035 Z" />
  <path style="fill:#ffffff" d="m 33.487239,15.723095 c -1.633985,-0.03843 0.992669,5.649263 1.574817,8.5164 0.08117,-3.356606 1.027514,-7.94647 -1.574817,-8.5164 z" />
  <path style="fill:#ffffff" d="m 12.828234,37.065908 c 0.691331,-1.668379 1.677848,-2.834928 2.921686,-3.564046 -1.844875,-1.151513 -0.465807,-2.44921 -1.015343,-4.620819 -2.82799,1.57222 -1.938418,5.104613 -1.906343,8.184865 z" />
  <path style="fill:#ffffff" d="m 16.226508,29.316193 c 0.672912,0.414066 1.53039,0.951183 2.362212,1.471202 -0.780504,0.698902 -1.560998,1.271621 -2.341493,1.367588 -0.372839,-0.905604 -0.111281,-1.881704 -0.0207,-2.83879 z" />
  <path style="fill:#ffffff" d="m 23.064495,22.892627 c 3.165908,-0.713507 6.386977,-0.139869 9.718226,3.004563 -0.554999,0.511797 -2.051837,0.416433 -3.377546,0.414421 -1.75852,-1.941399 -3.763102,-3.661778 -6.34068,-3.418984 z" />
  <path style="fill:#ffffff" d="m 31.290799,27.326954 c 0.886956,-0.116341 1.907531,-0.278616 3.06673,-0.828842 -0.847875,1.677713 -1.632414,3.470599 -3.06673,4.082063 -0.128234,-0.06852 -0.205888,-0.01054 -0.43515,-0.331535 0.179592,-0.682323 0.255568,-1.083576 0.43515,-2.921686 z" />
  <path style="fill:#ffffff" d="m 17.28328,32.859511 c 3.855955,-1.823879 3.382165,-2.937959 4.102793,-4.247846 2.531118,-0.9471 4.638404,-1.781184 6.340679,-2.507255 0.833586,0.538947 1.807031,1.132269 2.424379,1.346868 -0.06679,4.355102 -4.163608,6.949988 -7.997626,7.149896 -2.151734,0.112192 -4.259796,-0.584219 -4.870225,-1.741663 z" />
  <path style="fill:#ffffff" d="m 27.12584,25.44133 c -2.627459,1.08373 -4.744511,1.444389 -6.713663,1.595527 -3.778464,-3.534884 -3.446747,-9.042658 4.040635,-9.034436 l 2.320774,1.53337 5.180293,-3.367186 c 0.155671,3.071703 1.791247,5.949249 2.237887,9.117312 -4.016791,-2.632605 -8.225201,-6.590066 -14.732756,-0.963535 2.974606,-0.377468 5.949863,-0.889055 7.66683,1.118948 z" />
</svg>
