<svg xmlns="http://www.w3.org/2000/svg" viewBox="0 0 48 48" height="48" width="48" >
  <path d="m 31.11308,1.1e-4 c -0.13256,-0.002 -0.26474,0.0135 -0.39553,0.0458 -2.64091,0.75887 -2.0872,3.28774 -2.28818,5.26657 -2.59826,2.46797 -6.82228,0.26168 -7.09403,9.41834 -4.25703,0.67994 -8.73415,4.21004 -6.11578,10.64104 C 5.7357396,24.1558 7.9556896,42.37074 13.62951,48 c 0.67378,-3.95931 1.26866,-6.86929 2.82686,-10.82164 7.30433,3.69264 12.28071,0.0928 15.00248,-2.92817 0.83955,0.21649 7.10179,-2.02283 7.76485,-11.44664 0.067,-4.54907 0.5261,-9.07014 -4.80101,-10.7635 -0.0425,-0.35693 -0.17287,-0.78023 -0.44574,-1.30992 C 34.49557,9.41645 35.14936,9.05266 35.37276,6.73605 35.22007,3.70816 33.10158,0.02346 31.11308,1.1e-4 Z m -0.0956,2.18776 c 2.45161,2.11563 1.84326,6.52991 0.19381,8.17095 1.06687,1.16539 1.2878,2.82973 0.63602,3.86018 8.70204,-1.95403 5.69695,15.58563 -0.23785,17.78838 l -1.00909,-0.42813 c -5.8256,7.65606 -13.05955,4.14032 -13.974,2.84404 -3.29168,1.54939 -3.21967,5.06752 -4.15881,6.91477 -1.79787,-4.89148 -3.1125104,-12.51775 1.89045,-13.82997 1.42332,-0.0739 3.15519,1.24018 4.8979,2.60355 0.31233,-0.26829 0.64926,-0.43924 0.72543,-1.65216 C 12.74378,21.28621 19.46584,15.9754 23.90407,16.5041 23.63065,11.64604 24.23024,10.32939 24.91316,9.74658 32.8763,7.101 30.22982,2.49228 31.01748,2.18787 Z" style="fill:#ffffff" />
  <path d="m 24.85185,13.00305 c -1.00784,-2.50966 3.49498,-3.2076 5.27475,-4.80079 -1.28784,3.95232 -3.26814,4.44235 -5.27475,4.80079 z" style="fill:#ffffff"/>
  <path d="m 30.04862,15.38707 c -0.40669,1.12489 -1.66696,1.99468 -3.25505,2.50851 -2.32461,-1.3954 -1.94748,-2.29047 -2.20164,-3.30246 0.86354,-0.6356 1.80642,-1.40793 3.38447,-1.76567 0.20869,1.96147 0.8989,2.441 2.07222,2.55962 z" style="fill:#ffffff"/>
  <path d="m 30.61848,11.36001 c 0.70046,0.32083 0.88783,2.40491 -0.10965,2.86617 -2.52366,-0.41749 -0.5514,-3.07663 0.10965,-2.86617 z" style="fill:#ffffff"/>
  <path d="M 30.7321,9.24416 C 31.43193,8.68955 31.72155,7.6625 31.67267,6.1576 31.48898,7.05978 31.23259,8.16918 30.7321,9.24416 Z" style="fill:#ffffff"/>
  <path d="m 33.89974,15.36322 c -1.70503,-0.0401 1.03583,5.89489 1.64329,8.88669 0.0847,-3.50255 1.07219,-8.29198 -1.64329,-8.88669 z" style="fill:#ffffff"/>
  <path d="m 12.34249,37.63401 c 0.72139,-1.74092 1.7508,-2.95819 3.04872,-3.71901 -1.92509,-1.20158 -0.48606,-2.5557 -1.05949,-4.82173 -2.95095,1.64058 -2.0227,5.32656 -1.98923,8.54074 z" style="fill:#ffffff"/>
  <path d="m 15.88852,29.54734 c 0.70217,0.43207 1.59693,0.99254 2.46492,1.53517 -0.81444,0.72929 -1.62887,1.32691 -2.4433,1.42705 -0.38905,-0.94498 -0.11612,-1.96352 -0.0216,-2.96222 z" style="fill:#ffffff"/>
  <path d="m 23.02382,22.84448 c 3.30356,-0.74453 6.66468,-0.14595 10.14077,3.1352 -0.57913,0.53405 -2.14105,0.43454 -3.5244,0.43244 -1.83498,-2.02581 -3.92672,-3.82099 -6.61637,-3.56764 z" style="fill:#ffffff"/>
  <path d="m 31.6078,27.47161 c 0.92552,-0.1214 1.99047,-0.29073 3.20007,-0.86488 -0.88474,1.75066 -1.70339,3.6215 -3.20007,4.25955 -0.13381,-0.0715 -0.21484,-0.011 -0.45407,-0.34595 0.1874,-0.71199 0.26668,-1.13069 0.45407,-3.04872 z" style="fill:#ffffff"/>
  <path d="m 16.99124,33.24472 c 4.02361,-1.90318 3.52922,-3.0657 4.28118,-4.43254 2.64117,-0.98828 4.84008,-1.85863 6.61637,-2.61627 0.86983,0.56238 1.8856,1.1815 2.52979,1.40543 -0.0697,4.54446 -4.34464,7.25217 -8.34536,7.46077 -2.24529,0.11707 -4.44501,-0.60962 -5.08198,-1.81739 z" style="fill:#ffffff"/>
  <path d="m 27.26175,25.504 c -2.7417,1.13085 -4.9508,1.50719 -7.00557,1.6649 -3.94275,-3.68858 -3.59661,-9.43583 4.21632,-9.42725 l 2.42168,1.60004 5.40553,-3.51359 c 0.16244,3.20526 1.86913,6.20792 2.33519,9.51373 -4.19144,-2.74707 -8.58283,-6.8766 -15.37333,-1.00543 3.10394,-0.39388 6.20856,-0.92771 8.00018,1.1676 z" style="fill:#ffffff"/>
</svg>
