<?xml version="1.0" encoding="UTF-8" standalone="no"?>
<svg
   xmlns:dc="http://purl.org/dc/elements/1.1/"
   xmlns:cc="http://creativecommons.org/ns#"
   xmlns:rdf="http://www.w3.org/1999/02/22-rdf-syntax-ns#"
   xmlns:svg="http://www.w3.org/2000/svg"
   xmlns="http://www.w3.org/2000/svg"
   xmlns:sodipodi="http://sodipodi.sourceforge.net/DTD/sodipodi-0.dtd"
   xmlns:inkscape="http://www.inkscape.org/namespaces/inkscape"
   width="48"
   height="48"
   viewBox="0 0 48 48"
   version="1.1"
   id="svg994"
   sodipodi:docname="joplin.svg"
   inkscape:version="0.92.4 5da689c313, 2019-01-14">
  <metadata
     id="metadata1000">
    <rdf:RDF>
      <cc:Work
         rdf:about="">
        <dc:format>image/svg+xml</dc:format>
        <dc:type
           rdf:resource="http://purl.org/dc/dcmitype/StillImage" />
        <dc:title />
      </cc:Work>
    </rdf:RDF>
  </metadata>
  <defs
     id="defs998" />
  <sodipodi:namedview
     pagecolor="#ffffff"
     bordercolor="#666666"
     borderopacity="1"
     objecttolerance="10"
     gridtolerance="10"
     guidetolerance="10"
     inkscape:pageopacity="0"
     inkscape:pageshadow="2"
     id="namedview996"
     showgrid="true"
     inkscape:snap-global="true"
     inkscape:zoom="9.8333335"
     inkscape:cx="23.348719"
     inkscape:cy="25.362482"
     inkscape:window-x="0"
     inkscape:window-y="44"
     inkscape:window-maximized="0"
     inkscape:current-layer="svg994">
    <inkscape:grid
       type="xygrid"
       id="grid1548" />
  </sodipodi:namedview>
  <path
     style="fill:#ffffff;fill-opacity:1"
     d="M 24,2 C 11.849736,2 2,11.849736 2,24 2,36.150264 11.849736,46 24,46 36.150264,46 46,36.150264 46,24 46,11.849736 36.150264,2 24,2 Z m -2,10 h 13 v 3.445312 H 33.337891 C 32.293172,15.445312 32,16 32,17 v 12 c 0,4.472024 -5.479278,7.394531 -11,7.394531 -5.520722,0 -9.720703,-3.262702 -9.720703,-7.318359 0,-2.819931 1.95799,-3.59375 3.669922,-3.59375 C 16.807264,25.482422 18,26.333585 18,29 c 0,1.885618 2.143791,3.615217 4.025391,3.492188 C 23.705846,32.382312 25,31 25,29 V 17 c 0,-1 -0.205432,-1.554687 -1.287109,-1.554688 H 22 Z"
     id="circle992"
     inkscape:connector-curvature="0"
     sodipodi:nodetypes="ssssscccssssssssssscc" />
</svg>
