<?xml version="1.0" encoding="utf-8"?>
<!-- Generator: Adobe Illustrator 21.1.0, SVG Export Plug-In . SVG Version: 6.00 Build 0)  -->
<svg version="1.1" id="Layer_1" xmlns="http://www.w3.org/2000/svg" xmlns:xlink="http://www.w3.org/1999/xlink" x="0px" y="0px"
	 viewBox="0 0 48 48" style="enable-background:new 0 0 48 48;" xml:space="preserve">
<style type="text/css">
	.st0{fill:#FFFFFF;}
</style>
<path class="st0" d="M30.1,14.6c0.9-0.8,2.2-2.1,2.8-2.7c1.3-1.4,2.7-2.7,4.1-4.1c0.2-0.2,0.5-0.5,0.4-0.9c-0.1-0.4-0.5-0.3-0.8-0.3
	c-7.3,0-14.6,0-21.9,0c-0.7,0-0.9,0.2-0.9,0.9c0,1.3,0,2.6,0,3.8c0.1,1-0.3,1.4-1.3,1.3c-0.4,0-0.8,0-1.2,0c-0.3,0-0.8-0.1-0.8,0.4
	c0,0.5,0.5,0.4,0.8,0.4c1,0,2,0,3.1,0c0,0.1,0,0.2,0,0.3c-1,0-2,0-3,0c-0.8,0-1.1,0.3-1.1,1.1c0,0.9,0,1.7,0,2.6c0,0.7,0.3,1,1,1
	c1,0,1.9,0,2.9,0c0,0.1,0,0.2,0,0.3c-1.2,0-2.5,0-3.7,0C10,18.6,10,18.3,10,18c0.2-3.5-0.3-6.9-0.2-10.4c0-0.9,0.2-1.3,1.3-1.3
	c8.6,0.1,17.1,0,25.7,0.1c0.3,0,0.7,0,0.8,0.1c0.4,0.5,0.7,0.2,1-0.1c0.6-0.7,1.2-0.6,1.8,0c0.2,0.1,0.3,0.3,0.5,0.4
	c1.7,1.7,1.4,1.6,0.2,3.2c-0.5,0.7-1,1.3-1.7,1.8c-1.2,1-1.6,2.3-1.6,3.9c0,7.8,0,15.7,0,23.5c0,0.5,0,1,0,1.6
	c0,1.3-0.1,1.4-1.4,1.4c-5.9,0-11.8,0-17.6,0c-2.5,0-5,0-7.5,0.1c-0.7,0-1.5,0-1.5-1.1c0-0.5-0.4-0.6-0.8-0.4
	c-0.7,0.3-1.3,0.6-2,0.9c-0.2,0.1-0.4,0.3-0.7,0.1c-0.2-0.2-0.2-0.5-0.1-0.8c1-1.6,1.7-3.4,2.9-5c0.5-0.7,0.7-1.6,0.7-2.5
	c0-4.4,0-8.8,0-13.2c0-0.8,0-1.6,1.2-1.2c0,0,0.1,0,0.1,0c2.6,0.1,2.6,0.1,2.6,2.7c0,2.6,0,5.1,0,7.7c0,0.3-0.1,0.7,0.2,0.8
	c0.4,0.2,0.5-0.2,0.7-0.4C19.4,25.6,25.6,19.2,30.1,14.6 M37.4,28.3c0-1.8,0-3.5,0-5.3c0-2.4,0-4.8,0-7.2c0-0.4,0.2-1-0.4-1.2
	c-0.5-0.2-0.7,0.3-1,0.6c-0.6,0.7-1.4,1.4-2,2c-6.5,6.4-12.9,12.9-19.4,19.3c-0.6,0.6-0.9,1.3-0.9,2.1c0,0.6,0,1.2,0,1.9
	c-0.1,0.9,0.3,1.1,1.1,1.1c7.2,0,14.3,0,21.5,0c0.8,0,1.1-0.2,1.1-1.1C37.4,36.5,37.4,32.4,37.4,28.3z M35.5,13.4
	c0.3,0,0.5-0.2,0.7-0.3c1-1,2.1-2,3.1-3c0.3-0.4,0.4-0.6,0.1-1c-0.2-0.3-0.6-0.5-0.8-0.8c-0.4-0.6-0.7-0.5-1.1-0.1c-1,1-2,2-3,3
	c-0.3,0.3-0.5,0.7-0.2,1.1C34.5,12.7,34.9,13.2,35.5,13.4z"/>
</svg>
