<?xml version="1.0" encoding="UTF-8"?>
<svg version="1.1" viewBox="0 0 48 48" xmlns="http://www.w3.org/2000/svg">
    <path d="m23.857 5.4799c-7.1926 4.2215-12.715 9.4042-18.52 18.52-0.59654 1.1271-0.32971 1.6104 0.2422 1.6104h4.8188c-0.40252 4.3447 0.23426 9.5295 0.57561 13.689 0.14595 1.7784 1.4365 3.2209 3.2209 3.2209h3.051l-0.15098-7.0866c-1.3906-0.40452-2.4157-1.9396-2.4157-4.1865l0.16042-10.628c0.02325-1.5335 1.2865-1.5335 1.2865 0v7.4074c0 1.3933 1.774 1.4287 1.774 0v-7.4074c0-1.5335 1.2865-1.5335 1.2865 0v7.4074c0 1.4054 1.7709 1.4054 1.7709 0v-7.4074c0-1.5335 1.2897-1.5335 1.2896 0v10.628c0 2.4176-1.2088 3.5019-2.2553 4.1865l0.41834 7.0866h7.9799c0.64902-2.4453 0.56226-4.5235 0.55988-6.6431l-3.0951-0.48125s-0.70973-9.7866 3.0385-15.013c1.314-1.8321 3.2476-3.7432 3.5323 0.15412 0.5422 7.4221-0.21472 13.283-0.64481 21.983h1.7394c1.7844 0 3.0596-1.4438 3.2209-3.2209 0.34254-3.7741 0.87333-9.5478 0.63222-13.689l4.6178 0.09428c0.80201 0.016379 0.58901-0.89812 0.12267-1.7047-1.72-2.9751-3.2134-5.029-5.401-7.593 0.30074-2.2884-0.011917-4.7805-0.29252-7.2627-0.12779-1.1303-0.91648-2.0539-2.0539-2.0539h-2.337c-1.1375 0-2.0508 0.91648-2.0508 2.0539v0.67311c-1.9306-1.5822-3.9651-3.0407-6.121-4.3375z" fill="#fff" style="paint-order:stroke markers fill"/>
</svg>
