<?xml version="1.0" encoding="utf-8"?>
<!-- Generator: Adobe Illustrator 21.1.0, SVG Export Plug-In . SVG Version: 6.00 Build 0)  -->
<svg version="1.0" id="Layer_1" xmlns="http://www.w3.org/2000/svg" xmlns:xlink="http://www.w3.org/1999/xlink" x="0px" y="0px"
	 viewBox="0 0 48 48" style="enable-background:new 0 0 48 48;" xml:space="preserve">
<style type="text/css">
	.st0{fill:#FFFFFF;}
</style>
<g>
	<path class="st0" d="M24,2C11.8,2,2,11.8,2,24s9.8,22,22,22s22-9.8,22-22S36.2,2,24,2z M32.2,33c-5.4,0-10.7,0-16.1,0
		c-2.2,0-3-0.8-3-3c0-3.9,0-7.8,0-11.7c0-2.2,0.8-3,3-3c2.7,0,5.4,0,8,0c2.6,0,5.3,0,7.9,0c2.3,0,3,0.8,3.1,3c0,3.9,0,7.9,0,11.8
		C35.1,32.2,34.3,33,32.2,33z"/>
	<path class="st0" d="M25.2,22.5c-0.8,0.5-1.4,0.5-2.2,0c-2.4-1.6-4.9-3.1-7.4-4.6c-0.4,1-0.4,1.8,0.7,2.4c2.3,1.4,4.6,2.9,7,4.3
		c0.5,0.3,1.4,0.2,1.8,0c2.3-1.3,4.4-2.8,6.7-4.1c1.1-0.6,1.3-1.4,0.8-2.5C30.1,19.4,27.6,20.9,25.2,22.5z"/>
</g>
</svg>
