<svg xmlns="http://www.w3.org/2000/svg" viewBox="0 0 48 48"><defs><style>.cls-1,.cls-2{fill:#fff;}.cls-2{fill-rule:evenodd;}</style></defs><g id="Layer_1" data-name="Layer 1"><path class="cls-1" d="M26.73,38.09a1.36,1.36,0,0,0-1.37-1.36H22.64a1.36,1.36,0,0,0-1.37,1.36v3.18a2.73,2.73,0,0,0,5.46,0Z"/><path class="cls-1" d="M38.55,10.36H31.27V8.55h3.18a1.37,1.37,0,0,0,1.37-1.37V5.36A1.36,1.36,0,0,0,34.45,4H29a1.36,1.36,0,0,0-1.36,1.36V7.18A1.37,1.37,0,0,0,29,8.55h.45v1.81H18.55V8.55H19a1.37,1.37,0,0,0,1.36-1.37V5.36A1.36,1.36,0,0,0,19,4H13.55a1.36,1.36,0,0,0-1.37,1.36V7.18a1.37,1.37,0,0,0,1.37,1.37h3.18v1.81H9.45a2.72,2.72,0,0,0-2.72,2.73V28.55a2.72,2.72,0,0,0,2.72,2.72h29.1a2.72,2.72,0,0,0,2.72-2.72V13.09A2.72,2.72,0,0,0,38.55,10.36Zm-.38,5.1L24,23,9.83,15.46a1.14,1.14,0,0,1,1.07-2l13.1,7,13.1-7a1.14,1.14,0,1,1,1.07,2Z"/><path class="cls-2" d="M10.68,33.09l4.59,6.82a2.73,2.73,0,0,0,2.37,1.36h1.81V38.09a3.19,3.19,0,0,1,3.19-3.18h2.72a3.19,3.19,0,0,1,3.19,3.18v3.18h1.81a2.73,2.73,0,0,0,2.37-1.36h0l4.59-6.82Z"/></g></svg>