<?xml version="1.0" encoding="UTF-8" standalone="no"?>
<svg
   xmlns:dc="http://purl.org/dc/elements/1.1/"
   xmlns:cc="http://creativecommons.org/ns#"
   xmlns:rdf="http://www.w3.org/1999/02/22-rdf-syntax-ns#"
   xmlns:svg="http://www.w3.org/2000/svg"
   xmlns="http://www.w3.org/2000/svg"
   xmlns:sodipodi="http://sodipodi.sourceforge.net/DTD/sodipodi-0.dtd"
   xmlns:inkscape="http://www.inkscape.org/namespaces/inkscape"
   width="48"
   height="48"
   viewBox="0 0 48 48"
   version="1.1"
   id="svg994"
   sodipodi:docname="kakugo.svg"
   inkscape:version="0.92.4 5da689c313, 2019-01-14">
  <metadata
     id="metadata1000">
    <rdf:RDF>
      <cc:Work
         rdf:about="">
        <dc:format>image/svg+xml</dc:format>
        <dc:type
           rdf:resource="http://purl.org/dc/dcmitype/StillImage" />
      </cc:Work>
    </rdf:RDF>
  </metadata>
  <defs
     id="defs998" />
  <sodipodi:namedview
     pagecolor="#ffffff"
     bordercolor="#666666"
     borderopacity="1"
     objecttolerance="10"
     gridtolerance="10"
     guidetolerance="10"
     inkscape:pageopacity="0"
     inkscape:pageshadow="2"
     inkscape:window-width="2160"
     inkscape:window-height="1360"
     id="namedview996"
     showgrid="true"
     inkscape:snap-global="true"
     inkscape:zoom="6.9532167"
     inkscape:cx="26.272216"
     inkscape:cy="48.95119"
     inkscape:window-x="0"
     inkscape:window-y="44"
     inkscape:window-maximized="1"
     inkscape:current-layer="svg994">
    <inkscape:grid
       type="xygrid"
       id="grid1548" />
  </sodipodi:namedview>
  <path
     style="fill:#ffffff;fill-opacity:1"
     d="M 24 2 A 22 22 0 0 0 2 24 A 22 22 0 0 0 24 46 A 22 22 0 0 0 46 24 A 22 22 0 0 0 24 2 z M 13.546875 9.6796875 C 14.168551 9.6166168 15.503181 9.8121335 16.234375 10.136719 C 16.935871 10.448121 18.285156 11.732038 18.285156 12.087891 C 18.285156 12.179341 17.92897 12.41226 17.492188 12.605469 C 16.858037 12.885984 16.612981 12.91855 16.277344 12.765625 C 15.935285 12.609771 15.741161 12.642396 15.234375 12.941406 C 14.891876 13.143486 14.375386 14.095519 14.037109 13.751953 C 14.22023 13.059841 14.512475 12.4226 14.84375 11.673828 L 14.179688 10.986328 C 13.670418 10.458925 13.210937 9.9646254 13.210938 9.8339844 C 13.210938 9.7502845 13.33965 9.7007111 13.546875 9.6796875 z M 31.035156 11.691406 C 31.21794 11.656922 31.336705 11.712913 31.521484 11.833984 C 31.741702 11.978276 32.1004 12.099442 32.320312 12.103516 C 32.582192 12.108416 32.857384 12.324325 33.115234 12.728516 C 33.615463 13.512659 33.685316 13.824219 33.158203 13.824219 C 32.923905 13.824219 31.677359 14.01877 30.480469 14.443359 C 28.156132 15.267903 26.691377 15.525863 25.984375 15.234375 C 25.369407 14.980832 24.234375 14.179053 24.234375 13.998047 C 24.234375 13.914897 24.385538 13.845703 24.570312 13.845703 C 25.245161 13.845703 29.233242 12.593998 30.164062 12.089844 C 30.605848 11.850563 30.852373 11.725891 31.035156 11.691406 z M 27.712891 15.503906 C 28.131032 15.371195 29.715086 16.534299 30.001953 17.070312 C 30.222505 17.482416 30.161443 18.843086 29.890625 19.548828 C 29.803985 19.774632 29.906909 19.817246 30.464844 19.779297 C 31.467278 19.711107 32.356081 20.076962 33.048828 20.84375 C 33.932316 21.821667 34.153972 22.686605 33.792969 23.746094 C 33.63628 24.205949 33.507813 24.775699 33.507812 25.013672 L 33.507812 25.447266 L 35.740234 25.355469 C 36.435816 25.326869 37.118033 25.028654 37.474609 25.03125 C 37.999393 25.316474 38.231752 25.420245 38.757812 25.734375 C 39.539352 26.201065 40.392765 27.222098 40.28125 27.556641 C 40.155621 27.93353 39.927691 27.677143 39.230469 27.923828 C 38.934416 28.028574 38.61539 27.593058 38.111328 27.353516 C 36.639819 26.654219 36.486881 26.619141 34.941406 26.619141 C 33.411941 26.619141 33.292765 26.646163 32.890625 27.080078 C 32.479618 27.523561 32.433609 27.531084 31.673828 27.318359 C 30.952433 27.116378 30.774527 27.136576 29.613281 27.548828 C 28.185622 28.055657 26.266109 28.941502 24.613281 29.855469 C 23.24953 30.609586 22.167988 30.680892 21.310547 30.074219 C 21.004518 29.857693 20.720308 29.56232 20.677734 29.417969 C 20.635164 29.273619 20.543942 29.018018 20.474609 28.849609 C 20.365703 28.585065 20.454437 28.542969 21.125 28.542969 C 22.021213 28.542969 25.651314 27.310919 25.832031 26.945312 C 25.979811 26.646338 27.041911 23.07906 27.037109 22.898438 C 27.035109 22.825418 26.615819 22.8148 26.103516 22.875 C 25.435222 22.95354 25.025878 22.910831 24.658203 22.720703 C 24.015776 22.38849 23.46888 21.794019 23.603516 21.576172 C 23.659726 21.485222 24.569263 21.197462 25.625 20.935547 C 27.788648 20.398775 27.655444 20.54006 28.105469 18.287109 C 28.3035 17.295712 28.29313 17.167463 27.951172 16.587891 C 27.604162 15.999749 27.420272 15.59678 27.712891 15.503906 z M 16.929688 16.703125 C 17.158571 16.702131 17.356702 16.744619 17.574219 16.816406 C 17.962996 16.944714 18.411289 17.193423 18.570312 17.369141 C 19.004641 17.849068 18.648491 18.139639 17.234375 18.458984 C 15.788427 18.78552 14.984149 19.173531 13.144531 20.435547 C 11.725069 21.409326 11.089684 21.594446 9.7128906 21.433594 C 8.2925244 21.267651 7.6132813 20.850813 7.6132812 20.144531 C 7.6132812 19.856975 7.7303627 19.795726 8.2695312 19.794922 C 9.2896288 19.793322 10.138358 19.507948 12.6875 18.316406 C 15.280177 17.10451 16.243037 16.706107 16.929688 16.703125 z M 31.214844 21.564453 C 30.938845 21.574391 30.570388 21.665761 30.097656 21.814453 C 29.046578 22.145056 28.990833 22.234743 28.267578 24.667969 C 27.837699 26.114193 27.889236 26.529519 28.480469 26.384766 C 28.696098 26.331976 29.399632 26.191827 30.044922 26.074219 L 31.21875 25.861328 L 31.587891 24.236328 C 32.04524 22.228724 32.042839 21.53464 31.214844 21.564453 z M 16.576172 22.623047 C 16.840584 22.588268 17.146512 22.644996 17.623047 22.777344 C 19.218118 23.22034 19.057138 23.887691 17.164062 24.675781 C 15.806805 25.240808 14.683198 25.357015 13.955078 25.005859 C 13.289641 24.684928 13.466652 24.19768 14.392578 23.800781 C 14.849582 23.604888 15.474805 23.253268 15.78125 23.019531 C 16.090228 22.783862 16.31176 22.657826 16.576172 22.623047 z M 17.275391 26.865234 C 17.596904 26.895252 17.919909 27.037271 18.25 27.289062 C 18.878668 27.768608 18.579288 28.083975 17.001953 28.597656 C 15.408366 29.11663 15.043529 29.154303 14.523438 28.859375 C 14.166491 28.656965 13.91887 28.37427 13.914062 28.164062 C 13.912463 28.099622 14.324849 27.911979 14.830078 27.748047 C 15.335306 27.584115 16.003887 27.295742 16.316406 27.107422 C 16.633917 26.916093 16.953878 26.835216 17.275391 26.865234 z M 30.892578 29.796875 C 31.058086 29.798457 31.239657 29.810128 31.449219 29.832031 C 32.009596 29.890611 32.681129 30.050201 32.943359 30.1875 C 33.539089 30.499414 34.546126 31.481512 34.751953 31.951172 C 34.837263 32.145818 35.00514 32.443187 35.125 32.611328 C 35.301848 32.85941 35.287678 33.056308 35.052734 33.660156 C 34.153555 35.971247 33.722014 36.876143 33.292969 37.335938 C 32.869922 37.789307 32.734243 37.835987 32.132812 37.734375 C 31.758548 37.671145 30.951413 37.703744 30.337891 37.808594 C 29.724371 37.913444 29.063562 38.025193 28.871094 38.056641 C 28.678628 38.088081 28.207202 38.06292 27.822266 38 C 27.043503 37.872598 26.333984 37.537107 26.333984 37.296875 C 26.333984 37.081449 26.646375 36.999976 28.919922 36.613281 C 30.005107 36.428709 30.998539 36.190557 31.126953 36.083984 C 31.255363 35.977412 31.618691 34.986159 31.933594 33.882812 C 32.477137 31.978372 32.490179 31.854732 32.216797 31.4375 C 31.764164 30.746692 31.252972 30.729138 29.722656 31.345703 C 28.272032 31.930146 27.337531 32.066046 27.013672 31.742188 C 26.772839 31.501355 27.860024 30.773304 29.388672 30.150391 C 30.031274 29.888533 30.396055 29.792128 30.892578 29.796875 z M 17.5 31.050781 C 17.659977 31.04514 17.823732 31.058332 18.023438 31.082031 C 18.843778 31.179371 18.935235 31.242432 19.498047 32.095703 C 20.149691 33.083655 20.239566 33.717897 19.853516 34.621094 C 19.661566 35.070182 19.652062 35.338076 19.810547 35.931641 C 19.978328 36.56005 19.967381 36.72876 19.734375 36.986328 C 19.582026 37.154737 19.291456 37.293785 19.089844 37.294922 C 18.888234 37.296022 18.10426 37.44901 17.347656 37.634766 C 15.147238 38.174995 14.273333 38.220561 13.5625 37.835938 L 13.560547 37.835938 C 13.078738 37.574385 12.895583 37.323199 12.699219 36.654297 C 12.390531 35.602764 11.932796 34.569743 11.46875 33.880859 C 11.116052 33.357277 10.985113 32.568359 11.251953 32.568359 C 11.543862 32.568359 12.989401 33.589308 13.355469 34.054688 C 13.884908 34.727759 13.880995 35.979195 13.347656 36.546875 C 13.017586 36.898219 12.998048 36.98595 13.216797 37.125 C 13.358626 37.21515 13.591977 37.237184 13.736328 37.175781 C 13.880679 37.114381 14.708114 36.871156 15.574219 36.634766 C 16.440325 36.398379 17.164835 36.190499 17.185547 36.171875 C 17.206257 36.153245 17.394767 35.335811 17.603516 34.355469 C 17.911192 32.91054 17.941938 32.523393 17.763672 32.308594 C 17.442103 31.921129 17.156158 31.973187 15.833984 32.667969 C 15.087485 33.060241 14.463548 33.272024 14.160156 33.236328 C 13.200131 33.12338 13.519128 32.752891 15.341797 31.861328 C 16.57961 31.255849 17.020069 31.067706 17.5 31.050781 z M 24.777344 31.693359 C 25.298164 31.693359 26.395748 32.55189 27.029297 33.455078 C 27.625537 34.305074 27.715343 34.546394 27.621094 35.042969 C 27.367953 36.376672 26.781253 36.635729 26.1875 35.673828 C 25.994444 35.361068 25.738901 34.711638 25.621094 34.230469 C 25.503286 33.749297 25.222031 32.980549 24.994141 32.523438 C 24.749622 32.032976 24.660594 31.693359 24.777344 31.693359 z "
     id="circle992" />
</svg>
