<?xml version="1.0" encoding="UTF-8"?>
<svg version="1.1" viewBox="0 0 48 48" xmlns="http://www.w3.org/2000/svg">
  <path
     style="fill:#ffffff"
     d="m 38.075998,36.760783 c 0.871986,-0.392679 1.702075,-1.338789 1.861569,-2.121768 0.03437,-0.168784 0.40935,-2.976625 0.83327,-6.239659 0.423917,-3.263029 0.865321,-6.574033 0.980897,-7.357776 0.179583,-1.217817 0.191463,-1.492929 0.08171,-1.892353 -0.336374,-1.224196 -1.345268,-2.101681 -2.706284,-2.353798 -0.601886,-0.111486 -3.454132,-0.423363 -7.512755,-0.821476 -4.003783,-0.392728 -9.47103,-0.92166 -11.149551,-1.07867 -0.928276,-0.08683 -2.056018,-0.200725 -2.506093,-0.253107 -1.774717,-0.206534 -3.836327,-0.358761 -4.858746,-0.358761 -0.943194,0 -1.14315,0.03241 -1.641302,0.266064 -0.74214,0.348096 -1.220992,0.778734 -1.56142,1.40421 -0.293516,0.539281 -0.392027,1.169645 -1.3375999,8.558671 -0.1943862,1.518998 -0.4810577,3.742306 -0.637046,4.940682 -0.2470484,1.897955 -0.2671086,2.240838 -0.1555813,2.659527 0.3037073,1.14018 1.0725802,1.909234 2.2642662,2.264807 0.365682,0.109109 1.424378,0.27139 2.352658,0.36062 0.928275,0.08923 2.792502,0.273718 4.14272,0.409972 3.334889,0.336539 6.957,0.694428 11.35413,1.121856 4.060413,0.394699 5.447902,0.535163 6.597667,0.667921 0.421947,0.04872 1.296522,0.07723 1.943504,0.06336 0.93787,-0.02012 1.273155,-0.06882 1.653984,-0.240321 z m -6.295272,-2.655633 -0.01902,-0.336784 3.304058,0.186718 0.131875,-2.537649 0.285728,0.01487 -0.137607,2.899851 z m -20.130712,-2.665286 0.475189,-2.959937 0.372971,0.07794 -0.397123,2.568262 2.995573,0.640008 -0.0743,0.390896 z m 20.831235,0.196064 1.498518,-9.812798 0.388944,0.113241 -1.438499,9.659531 z m -2.238212,-1.61499 1.235911,-8.507351 0.260058,0.06241 -1.254419,8.511135 z m -1.849169,-0.238128 1.072461,-8.526616 0.463363,0.06957 -1.115791,8.545939 z m -13.948229,-0.289946 1.51851,-9.876382 0.409818,0.100089 -1.544022,9.859103 z m 11.504648,0.0013 1.274915,-8.510968 0.25775,0.0815 -1.28099,8.466168 z m -1.876163,-0.25109 1.105341,-8.479497 0.312343,0.04958 -1.084106,8.447922 -0.333555,-0.018 z m -2.439799,-0.2924 1.102773,-8.514192 0.286992,0.05606 -1.07291,8.464133 z m -1.867572,-0.286423 1.18706,-8.416151 0.391846,0.02748 -1.187638,8.393961 z m -2.473852,-0.347273 1.04388,-8.417358 0.345343,0.09404 -1.103474,8.420266 z m 19.285762,-5.689916 0.207584,-2.386097 -3.145123,-0.437523 0.09579,-0.353426 3.416339,0.484579 -0.275313,2.761948 z m -23.423975,-2.660997 0.392263,-2.933484 3.493332,0.447158 -0.07572,0.312452 -3.156869,-0.387032 -0.369942,2.63668 z M 6.8617523,26.696959 C 7.6573681,20.556024 8.3826666,15.196585 8.4655706,14.845885 8.6410359,14.103618 9.30878,13.311959 10.104762,12.902511 c 0.829172,-0.426524 1.493236,-0.463154 3.967002,-0.218818 1.949111,0.192519 8.526019,0.826707 11.814432,1.139226 0.590723,0.05614 2.616054,0.263338 4.500739,0.460437 1.884682,0.197099 4.340326,0.452123 5.456987,0.566706 1.116656,0.114593 2.210379,0.270396 2.430491,0.346229 0.220112,0.07583 0.422412,0.101952 0.449556,0.05802 0.11389,-0.184269 0.07711,-1.918173 -0.04881,-2.300793 C 38.313424,11.8543 37.437425,11.09955 36.178861,10.802747 35.650754,10.678199 33.571811,10.654924 22.919806,10.65431 15.646995,10.653898 9.930504,10.69455 9.446698,10.7502 8.0459957,10.91126 7.1294442,11.498203 6.5323515,12.616474 L 6.2977679,13.05582 v 7.722853 c 0,6.914158 0.03965,8.433322 0.2155361,8.257441 0.028664,-0.02867 0.185484,-1.081301 0.3484483,-2.339158 z"
  />
</svg>
