<?xml version="1.0" encoding="UTF-8" standalone="no"?>
<svg
   xmlns:dc="http://purl.org/dc/elements/1.1/"
   xmlns:cc="http://creativecommons.org/ns#"
   xmlns:rdf="http://www.w3.org/1999/02/22-rdf-syntax-ns#"
   xmlns:svg="http://www.w3.org/2000/svg"
   xmlns="http://www.w3.org/2000/svg"
   xmlns:sodipodi="http://sodipodi.sourceforge.net/DTD/sodipodi-0.dtd"
   xmlns:inkscape="http://www.inkscape.org/namespaces/inkscape"
   width="48"
   height="48"
   viewBox="0 0 48 48"
   version="1.1"
   id="svg4"
   sodipodi:docname="keepassdx.svg"
   inkscape:version="0.92.3 (2405546, 2018-03-11)">
  <metadata
     id="metadata10">
    <rdf:RDF>
      <cc:Work
         rdf:about="">
        <dc:format>image/svg+xml</dc:format>
        <dc:type
           rdf:resource="http://purl.org/dc/dcmitype/StillImage" />
        <dc:title></dc:title>
      </cc:Work>
    </rdf:RDF>
  </metadata>
  <defs
     id="defs8" />
  <sodipodi:namedview
     pagecolor="#000000"
     bordercolor="#666666"
     borderopacity="1"
     objecttolerance="10"
     gridtolerance="10"
     guidetolerance="10"
     inkscape:pageopacity="0"
     inkscape:pageshadow="2"
     inkscape:window-width="1920"
     inkscape:window-height="1037"
     id="namedview6"
     showgrid="false"
     inkscape:pagecheckerboard="true"
     inkscape:zoom="6.9532167"
     inkscape:cx="28.487256"
     inkscape:cy="21.941794"
     inkscape:window-x="1920"
     inkscape:window-y="43"
     inkscape:window-maximized="1"
     inkscape:current-layer="svg4">
    <inkscape:grid
       type="xygrid"
       id="grid4749"
       empspacing="4" />
  </sodipodi:namedview>
  <path
     style="fill:#ffffff;fill-opacity:1"
     d="M 24 2 A 22 22 0 0 0 2 24 A 22 22 0 0 0 24 46 A 22 22 0 0 0 46 24 A 22 22 0 0 0 24 2 z M 31.25 11 A 6.75 6.75 0 0 1 38 17.75 A 6.75 6.75 0 0 1 31.25 24.5 A 6.75 6.75 0 0 1 28.220703 23.779297 L 27 25 L 36 34 L 36 37 L 33 37 L 24 28 L 24 31 L 21 31 L 21 34 L 18 34 L 15 37 L 12 37 L 12 34 L 21 25 L 12 16 L 12 13 L 15 13 L 24 22 L 25.224609 20.775391 A 6.75 6.75 0 0 1 24.5 17.75 A 6.75 6.75 0 0 1 31.25 11 z M 34 16 A 2 2 0 0 0 32 18 A 2 2 0 0 0 34 20 A 2 2 0 0 0 36 18 A 2 2 0 0 0 34 16 z "
     id="circle2" />
</svg>
