<svg viewBox="0 0 48 48" xmlns="http://www.w3.org/2000/svg">
    <path d="m 8.4016827,2 4.1271813,4.1271812 c 0.752596,-0.6249053 1.554327,-1.1881472 2.397407,-1.6842541 2.893545,-1.6678536 6.19008,-2.5077348 9.528933,-2.4277536 3.050803,0.069171 6.035294,0.9039931 8.679219,2.4277536 0.847778,0.490564 1.654589,1.0487349 2.41258,1.6690806 l 4.096835,-4.0968342 2.139457,2.1394579 -4.08166,4.0816608 c 2.561944,2.9255968 4.119932,6.5945788 4.445823,10.4696878 h -3.550589 c -0.487338,-4.674003 -3.18397,-8.8317796 -7.252914,-11.1828405 -4.53976,-2.6210316 -10.132977,-2.6210316 -14.672736,0 C 12.608091,9.8777343 9.9174872,14.034915 9.4334781,18.70598 H 5.8828883 C 6.2087793,14.830871 7.7667674,11.161889 10.328712,8.2362922 L 6.2470513,4.1546314 8.3865093,2.0151735 Z m 9.5441063,9.104076 c 1.257011,0 2.276019,1.019009 2.276019,2.276019 0,1.257011 -1.019008,2.276019 -2.276019,2.276019 -1.25701,0 -2.276019,-1.019008 -2.276019,-2.276019 0,-1.25701 1.019009,-2.276019 2.276019,-2.276019 z m 12.138769,0 c 1.25701,0 2.276019,1.019009 2.276019,2.276019 0,1.257011 -1.019009,2.276019 -2.276019,2.276019 -1.257011,0 -2.276019,-1.019008 -2.276019,-2.276019 0,-1.25701 1.019008,-2.276019 2.276019,-2.276019 z M 5.807021,20.966825 h 36.416305 v 4.552038 H 5.807021 Z m 0,6.828057 h 13.474033 c -0.864869,1.075366 -1.33745,2.413364 -1.339817,3.793365 0.0029,0.253819 0.02168,0.507208 0.05629,0.758673 H 5.7980686 v -4.552038 z m 22.911925,0 H 42.192979 V 32.34692 H 29.993517 c 0.03364,-0.251525 0.05148,-0.504913 0.05341,-0.758673 -6.44e-4,-1.37927 -0.471057,-2.717188 -1.333747,-3.793365 z m -4.734119,0.406649 c 1.885516,0 3.414028,1.528512 3.414028,3.414029 -0.002,1.058358 -0.494558,2.055984 -1.333747,2.700876 l 1.608387,5.61418 h -7.374302 l 1.608387,-5.61418 c -0.83919,-0.644892 -1.331837,-1.642518 -1.333747,-2.700876 0,-1.885517 1.528512,-3.414029 3.414028,-3.414029 z M 5.7766741,34.619905 H 19.66039 l -1.365611,4.552038 H 5.7766741 Z m 22.4567209,0 h 13.883717 v 4.552038 H 29.599007 Z M 5.7766741,41.447962 H 42.192979 V 46 H 5.7766741 Z" fill="#fff"/>
</svg>
