<?xml version="1.0" encoding="UTF-8"?>
<svg version="1.1" viewBox="0 0 48 48" xmlns="http://www.w3.org/2000/svg">
    <rect x="17.993" y="40.998" width="12.014" height="2.0023" rx="2.0023" fill="#fff"/>
    <rect x="15.991" y="37.294" width="16.018" height="2.8032" rx="2.0023" fill="#fff"/>
    <rect x="15.991" y="33.69" width="16.018" height="2.8032" rx="2.0023" fill="#fff"/>
    <path d="m24 5a13.515 13.515 0 0 0-13.515 13.515 13.515 13.515 0 0 0 5.5062 10.868v1.3785c0 1.1231 0.90456 2.0277 2.0277 2.0277h12.164c1.1231 0 2.0257-0.90456 2.0257-2.0277v-1.5193a13.515 13.515 0 0 0 5.3068-10.727 13.515 13.515 0 0 0-13.515-13.515zm-1.8654 2.6651a8.5096 8.5096 0 0 1 3.4101 0.71761 10.262 10.262 0 0 1 8.7169 10.133 10.262 10.262 0 0 1-5.3165 8.9789v1.6718c0 0.55462-0.4465 1.0011-1.0011 1.0011h-7.8878c-0.55462 0-1.0011-0.4465-1.0011-1.0011v-1.6601a10.262 10.262 0 0 1-5.3165-8.9906 10.262 10.262 0 0 1 0.03715-0.76844 8.5096 8.5096 0 0 1-0.15056-1.5721 8.5096 8.5096 0 0 1 8.5096-8.5096z" fill="#fff"/>
    <path d="m22.056 9.0456a7.0079 7.0079 0 0 0-7.0079 7.0079 7.0079 7.0079 0 0 0 7.0079 7.0079 7.0079 7.0079 0 0 0 7.0079-7.0079 7.0079 7.0079 0 0 0-7.0079-7.0079zm-3.8892 2.8548 3.5978 3.5978a0.70086 0.70086 0 0 1 0.28157-0.06453 0.70086 0.70086 0 0 1 0.4028 0.11927h5.6333a0.50061 0.50061 0 1 1 0 1.0011h-5.3244v3.5958a0.70099 0.70099 0 1 1-1.402 0v-4.0065a0.70086 0.70086 0 0 1 0.05866-0.28743l-3.6017-3.6017z" fill="#fff"/>
</svg>
