<svg viewBox="0 0 48 48" xmlns="http://www.w3.org/2000/svg">
    <path d="M 35.576923,2 C 41.885714,2 47,7.1142858 47,13.423077 47,19.731868 41.885714,24.846154 35.576923,24.846154 33.796387,24.8447 32.040843,24.42704 30.450415,23.626508 l -2.0658,2.0658 15.23077,15.230769 V 46 H 38.538462 L 23.307692,30.769231 v 5.076923 h -5.076923 v 5.076923 H 13.153846 L 8.0769231,46 H 3 V 40.923077 L 18.230769,25.692308 3,10.461538 V 5.3846154 h 5.0769231 l 15.2307689,15.2307696 2.0724,-2.0724 C 24.578268,16.955108 24.158363,15.201912 24.153829,13.423077 24.153829,7.1142858 29.268115,2 35.576906,2 Z m 4.653846,8.461538 c -1.86927,0 -3.384615,1.515345 -3.384615,3.384616 0,1.86927 1.515345,3.384615 3.384615,3.384615 1.869271,0 3.384616,-1.515345 3.384616,-3.384615 0,-1.869271 -1.515345,-3.384616 -3.384616,-3.384616 z" fill="#fff"/>
</svg>
