<?xml version="1.0" encoding="UTF-8"?>
<svg version="1.1" viewBox="0 0 48 48" xmlns="http://www.w3.org/2000/svg">
    <path d="m21.855 5.1282s-1.7199 2.5799-1.7199 2.5799c-0.46438-0.31604-0.73957-0.51813-1.2899-0.68797-1.3695-0.42138-4.2762-0.37623-5.2909 0.73312-1.0169 1.1115-1.0771 3.5151-0.66432 4.8996 0.31819 1.0642 0.98036 1.8059 2.0854 2.0661 0.57403 0.13544 1.3566 0.0172 1.8059 0.45793 0.53533 0.52243 0.11395 1.4383 0.98896 3.4958-1.6081 0.69227-2.696 1.2792-4.0848 2.3671-4.6933 3.6785-6.8518 8.9544-6.8797 14.832 0 0-0.21499 5.1598-0.21499 5.1598l2.1499-1.9349c0.30529 0.91586 1.0685 3.3689 1.9801 3.6957 0.45148 0.22574 1.7393-0.01505 2.3198 0 0 0-2.0059-4.1257-2.0059-4.1257l-0.25369-1.7199s2.9045-3.2249 2.9045-3.2249l-1.5049 4.5148 4.5148-2.9432c3.3926-1.864 5.6629-2.2338 9.4596-2.2166 4.4804 0.0215 7.572 2.4294 10.965 0.56973 0.96961-0.53318 1.4254-1.0621 2.1499-1.8597 0 0 0.21069 2.3649 0.21069 2.3649 0.05805 2.9325-0.81697 6.0112-2.1456 8.5996 0.56113 0.0258 1.8059 0.28379 2.2252 0 0.42783-0.29239 0.69442-1.2383 0.85566-1.7199 0.54393-1.6124 0.98251-3.4506 1.004-5.1598v-2.1499c-0.0086-4.9856-2.7906-9.7542-6.6647-12.758-1.4082-1.09-3.1776-2.1757-4.9448-2.5068 0.24294-1.2126 0.52888-1.9392 0.39343-3.2249-0.43858-4.1407-3.3689-5.5296-7.0582-6.0198 0.13544-1.8898 1.6984-2.8099-0.42998-3.7946l-0.85996-0.29024zm-6.2025 3.9988c0.71807-0.16339 2.0919-0.27949 2.6874 0.24509 0.75892 0.66862-0.28809 3.0163-1.0578 3.3668-0.26444 0.1204-0.72667 0.13114-1.0169 0.11824-1.492-0.06665-1.4318-0.71377-1.3243-1.9242 0.03655-0.42568 0.0172-1.0814 0.25369-1.4383 0.19779-0.29454 0.34184-0.28809 0.45793-0.36764zm6.2025 10.621c-4.3751-1.9951-2.524-6.31-0.85996-9.4596l1.7199 0.91801c0.69227 0.25369 1.1481 0.0387 2.3649 0.44933 1.9478 0.65787 3.0099 2.1972 3.0077 4.2224 0 0.88791-0.26659 2.3692-1.118 2.8508-0.88576 0.49878-1.4533-0.80192-2.5347-1.0298-1.32-0.27734-2.1607 1.0126-2.5799 2.0489zm-5.5898-9.4596v1.2899h1.075c-0.07955-0.95456-0.1032-1.1201-1.075-1.2899zm10.32 13.544c-0.26444-0.12684-0.19564-0.18489-0.64497-0.26659-0.40418-0.0731-1.204 0.21714-1.3093-0.40633-0.04945-0.29884 0.11394-0.44718 0.30314-0.63207l0.36118-0.19994-0.81482-1.075c-0.22574-0.29669-1.0965-1.3394-0.55038-1.6834 0.15909-0.10105 0.35258-0.0645 0.51383 0 0.52673 0.20639 1.1395 1.0255 1.4963 1.4684 0 0 2.4466 3.0099 2.4466 3.0099 0.28594 0.35904 0.96961 1.133 0.72452 1.6296-0.23864 0.48588-0.91586 0.1075-1.4512 0.23004-0.54608 0.1247-0.99541 0.64927-1.5049 0.64927-0.66217-0.0022-1.277-0.77827-1.0384-1.4146 0.19994-0.53963 1.0019-1.0126 1.4684-1.3093zm-10.535 9.2446s2.3649-7.5247 2.3649-7.5247-6.8797 7.3097-6.8797 7.3097-2.5799 2.5799-2.5799 2.5799c0-4.9082 1.7457-9.3113 5.5898-12.487 0.87931-0.72452 2.969-2.2037 4.0848-2.3628 1.2168-0.17414 1.6683 1.1137 4.2998 1.52-0.24509 1.5888-0.01505 1.0707 0.27949 2.3649l0.14404 1.2899c0.20424 0.88146 1.1373 1.9349 1.9414 2.3262 0.94166 0.46008 1.4985-0.01935 2.3649-0.25584 1.2577-0.34184 2.9303-0.1204 3.1668-2.0704 0.20639-1.7006-2.1886-3.212-2.9518-5.1598 1.3845-0.51598 2.3993 0.04515 3.6548 0.71377l1.7199 1.0986c2.2854 1.6404 6.4712 6.0305 3.6097 8.892-0.97606 0.97606-2.1112 0.95456-3.3947 0.89651l-7.9547-1.2727c-1.6404-0.0645-4.6567 0.48158-6.2347 0.99541-1.0922 0.35688-2.0962 0.93306-3.2249 1.1459zm3.6785 4.4611c-1.7006 1.0664-0.46223 2.9131 0.83202 2.496 1.4963-0.48158 1.3415-2.9239-0.83202-2.496zm9.2618 0c-1.7887 1.161-0.24724 2.9518 1.0105 2.4702 1.2684-0.48158 1.1631-2.9067-1.0105-2.4702z" display="none" fill="none" stroke="#000" stroke-width=".21499"/>
    <rect x="5" y="5" width="38" height="38" rx="2" display="none" fill="#fff"/>
    <path d="m24 5.1938a21.999 21.999 0 0 0-22 21.998 21.999 21.999 0 0 0 6.5162 15.614h1.9701c-0.61447-1.2099-1.2602-2.0455-1.8025-4.1213l-1.9213 2.0636c-0.76991-9.9623 2.0025-17.905 10.832-21.955-0.33898-0.99818-0.78459-1.5552-0.53198-3.7686 0 0-1.1624-0.02294-1.9506-0.0078-1.4614 0.02809-2.3266-1.217-2.3559-4.4214-0.02932-3.2045 2.553-3.2445 4.2363-3.2445s2.4776-0.17033 2.8918 1.2062l2.1006-3.1334 1.7343 1.1166c-0.71507 1.5051-1.0147 2.5391-0.86714 3.0691 4.9462 0.18344 8.0686 3.7023 6.7072 8.9715 9.8385 4.3019 14.16 11.787 9.8951 24.225h0.01949a21.999 21.999 0 0 0 6.5259-15.614 21.999 21.999 0 0 0-22-21.998z" fill="#fff" style="paint-order:stroke markers fill"/>
    <path d="m8.8845 35.469 9.5466-10.03-2.4168 7.6131c11.54-5.3171 16.194 1.0768 20.285-1.3686 3.5219-2.1051-0.7233-8.925-7.9152-11.413l-0.70843 0.81794c3.0529 3.1645 5.1401 6.5672-0.12084 6.6463-3.2042 2.1323-4.8515-1.3935-4.444-2.9063-0.75917-0.76469-0.53574-1.6604-0.45619-2.5369-1.6077-0.01077-2.7222-1.0082-3.944-1.7907-6.8306 3.5061-9.7549 8.7258-9.826 14.968z" fill="#fff"/>
    <path d="m38.841 31.802c-6.8107 8.1446-10.516-6.0621-26.76 6.4909l1.5725-4.7098-3.377 3.377c0.78601 2.0536 1.3991 4.2231 2.8314 5.8459h23.613c2.5045-3.472 2.4825-7.2134 2.1201-11.004zm-18.756 5.462a1.4965 1.4965 0 0 1 1.4965 1.4965 1.4965 1.4965 0 0 1-1.4965 1.4965 1.4965 1.4965 0 0 1-1.4965-1.4965 1.4965 1.4965 0 0 1 1.4965-1.4965zm9.1858 0a1.4965 1.4965 0 0 1 1.4965 1.4965 1.4965 1.4965 0 0 1-1.4965 1.4965 1.4965 1.4965 0 0 1-1.4965-1.4965 1.4965 1.4965 0 0 1 1.4965-1.4965z" fill="#fff"/>
    <path d="m21.067 10.563c-2.4063 3.9121-2.9772 7.2367 0.43802 9.2859 1.3204-2.7894 3.0744-2.8012 4.862-0.56942 2.7943-3.5011 1.1949-5.7959-0.63434-7.0523-1.8293-1.2565-4.083 0.09851-4.6656-1.6642z" fill="#fff"/>
    <path d="m16.687 9.2937c-1.7756 0-1.8395 0.015134-1.8395 2.4514 0 1.2978 0.039 1.2705 2.6716 1.2705l0.70151-2.2331c0.46386-1.4786 0.19344-1.4888-1.5336-1.4888zm-0.4248 1.1945h0.84765c0.11054 0 0.19876 0.09017 0.19876 0.20071v0.84765c0 0.11054-0.08822 0.19876-0.19876 0.19876h-0.84765c-0.11054 0-0.20071-0.08822-0.20071-0.19876v-0.84765c0-0.11054 0.09017-0.20071 0.20071-0.20071z" fill="#fff"/>
    <path d="m25.556 24.647c-0.67365 0.55866-1.1039 0.88301-0.54034 1.5916 0.60321 0.75845 0.91841 0.693 1.7314-0.0035l0.95116-0.81479 0.38447 0.40313c0.56784 0.5954 1.3398 0.16546 0.74545-0.57996l-4.5773-5.7409c-0.31589-0.33323-1.0624 0.21278-0.77509 0.65077l1.6227 2.1355-0.5386 0.47297c-0.49287 0.39334 0.08289 1.3519 0.65424 0.85623l0.65945-0.55932 0.6128 0.81653z" fill="#fff"/>
</svg>
