<svg
   xmlns:svg="http://www.w3.org/2000/svg"
   height="48"
   width="48"
   viewBox="0 0 154.20807 167.2285"
   >
  <path
     d="m 148.25161,17.0042 -0.5343,-0.2798 c -0.8046,-0.4179 -20.3248,-10.2449 -70.3975,-10.2449 -50.0727,0 -69.5913,9.827 -70.3974,10.2449 l -0.5344,0.2798 -0.0093,0.5986 c -0.0079,0.5108 -0.6886,51.2875 11.4973,79.7262 11.0935,25.8867 26.5482,41.5188 37.5585,50.0728 11.964,9.2957 21.1813,12.4089 21.5694,12.5378 l 0.3159,0.1037 0.3174,-0.1037 c 0.385,-0.1289 9.6022,-3.2421 21.568,-12.5378 11.0103,-8.554 26.4649,-24.1861 37.5616,-50.0728 12.1842,-28.4387 11.5021,-79.2154 11.4927,-79.7262 z"
     style="fill:none;fill-opacity:0" />
  <path
     d="M102.13771,98.096h-4.7853L77.09971,64.9772,56.71841,98.0364H28.11621a109.11061,109.11061,0,0,0,13.6803,23.3594c11.741,14.4676,23.9709,22.0393,30.5179,25.3773a.79968.79968,0,0,1,.0817.0424c2.964,1.5041,4.6958,2.1861,4.6989,2.1861l.0047.0063s.3474-.1257.9839-.3865a92.15059,92.15059,0,0,0,11.7975-6.4686,100.03082,100.03082,0,0,0,18.6229-16.1132,106.366,106.366,0,0,0,17.4661-27.9436Zm-11.3089,33.5227h-8.7472V120.2281h-9.7719v11.3906h-8.722V103.2601h8.7692v10.2134h9.7247V103.2601h8.7472Z"
     style="fill:#ffffff;fill-opacity:1" />
  <path
     d="M138.34771,23.1521l.0441.5154a180.29475,180.29475,0,0,1-6.1212,56.6495h-36.141L81.86311,56.8995l24.3905-39.8671C126.86911,18.9215,136.476,22.4056,138.34771,23.1521Z"
     style="fill:none;fill-opacity:0" />
  <path
     d="M58.03541,80.317l14.2083-23.4175L47.79191,17.0434c-20.5306,1.8907-30.1046,5.3622-31.9716,6.1087l-.0423.5154a180.05073,180.05073,0,0,0,6.1227,56.6495ZM26.88721,35.825h8.917V46.0746l9.2061-10.2496h9.5408L44.586,47.1998l11.2964,16.7888h-9.4152l-7.2103-10.7131-3.4527,3.9413v6.7718h-8.917Zm50.2174,13.3016h0L57.11281,16.3535c5.9342-.3441,12.5693-.5532,19.9918-.5532,7.4223,0,14.0621.2091,19.9931.5532Z"
     style="fill:#ffffff;fill-opacity:1" />
  <path
     d="M76.78861,160.059c-.3866-.1272-9.6037-3.2422-21.5695-12.5377-11.0102-8.5541-26.4648-24.1831-37.5584-50.0728C5.47341,69.0113,6.15391,18.2331,6.16481,17.7223l.0079-.5987.5344-.2766c.806-.4181,20.3247-10.2466,70.3975-10.2466V0h-.0017C23.60111,0,2.489,11.5855,1.61681,12.0773l-.5328.3017-.9916.5596-.0315,1.1378-.0173.6145c-.0142.5406-1.3373,54.5295,11.7301,85.148,11.9091,27.9029,28.6885,44.6209,40.6685,53.7312,13.0832,9.9525,23.3045,13.2324,23.7334,13.366l.3239.1006.6034.1918h.0017v-7.0642Z"
     style="fill:#ffffff;fill-opacity:1" />
  <path
     d="M138.39181,23.6675l-.0441-.5154c-1.8717-.7465-11.4786-4.2306-32.0941-6.1197L81.86311,56.8995,96.12961,80.317h36.141A180.29475,180.29475,0,0,0,138.39181,23.6675Zm-33.7192,40.3211V35.9066h8.7409V57.1964h12.2974s4.0672,6.7546,4.0672,6.7922Zm37.7611,35.8503c-11.9108,27.9029-28.6887,44.6209-40.6685,53.7312-13.0831,9.9525-23.306,13.2324-23.7334,13.366l-.3238.1006-.6034.1918v-5.2364l-.2861-.0976c-.3741-.1302-14.4017-6.2893-21.5868-14.2067-.1478-.1635-.3096-.2986-.4574-.4401.151.1196.3096.242.4716.3679,11.9641,9.2484,21.1797,12.3459,21.5663,12.4733l.2924.0958v-.0204l.3159-.1053c.3897-.1272,9.6035-3.2422,21.5678-12.5377,11.0119-8.5541,26.4665-24.1831,37.5615-50.0728,12.1858-28.4372,11.5039-79.2154,11.4959-79.7262l-.0094-.5987-.5359-.2766c-.8046-.4181-20.2919-10.2307-70.2718-10.2466a286.08037,286.08037,0,0,0-41.5831,2.7267s10.6047-3.1132,41.4591-4.4773V0c53.508,0,74.6138,11.5855,75.4876,12.0773l.5327.3017.9902.5596.033,1.1378.0157.6145C154.17951,15.2315,155.50281,69.2141,142.43371,99.8389Z"
     style="fill:#ffffff;fill-opacity:1" />
  <path
     d="M137.73161,97.4768c12.9041-33.3907,10.2387-79.8173,10.2308-80.3281l.0079.6035c.0109.5092.6899,51.2859-11.4943,79.7246-11.0951,25.8867-26.5513,41.5188-37.56,50.0727a97.4849,97.4849,0,0,1-13.3282,8.7614,100.06671,100.06671,0,0,0,13.6583-8.7614C110.52661,138.9956,127.54181,123.8506,137.73161,97.4768Z"
     style="fill:#ffffff;fill-opacity:1" />
</svg>
