<?xml version="1.0" encoding="UTF-8"?>
<svg version="1.1" viewBox="0 0 48 48" xmlns="http://www.w3.org/2000/svg">
    <path d="m15.912 5.0005c-4.9455 0-8.925 4.1952-8.925 9.408v19.181c0 5.2128 3.9795 9.4103 8.925 9.4103h0.72568c3.0993 0 5.8177-1.6497 7.4171-4.1633l1.5056 1.5032c3.5442 3.5442 9.2495 3.5442 12.794 0 3.5442-3.5442 3.5442-9.2495 0-12.794l-3.546-3.546 3.546-3.5483c3.5442-3.5442 3.5442-9.2495 0-12.794-3.5442-3.5442-9.2495-3.5442-12.794 0l-1.5056 1.5032c-1.5994-2.5136-4.3178-4.1609-7.4171-4.1609z" fill="#fff"/>
</svg>
