<?xml version="1.0" encoding="UTF-8" standalone="no"?>
<svg width="48" height="48" viewBox="0 0 48 48" version="1.1" >
    <defs>
        <style>.cls-1{fill:#fff;}</style>
    </defs>
    <path
        class="cls-1"
     style="fill:#ffffff;stroke-width:1"
     d="M 10 4 C 8.892 4 8 4.892 8 6 L 8 42 C 8 43.108 8.892 44 10 44 L 38 44 C 39.108 44 40 43.108 40 42 L 40 6 C 40 4.892 39.108 4 38 4 L 10 4 z M 35.888672 6.1464844 A 2 2 0 0 1 37.888672 8.1464844 A 2 2 0 0 1 35.888672 10.146484 A 2 2 0 0 1 33.888672 8.1464844 A 2 2 0 0 1 35.888672 6.1464844 z M 19.994141 8.2792969 L 20.912109 9.5820312 C 21.452494 10.348623 22.225831 10.679432 23.03125 11.365234 C 23.836669 12.051036 24.555913 13.118971 24.753906 15.144531 L 23.757812 15.242188 C 23.577711 13.399605 23.04614 12.691767 22.382812 12.126953 C 21.984956 11.788183 21.4919 11.331054 21.011719 10.945312 L 21.025391 13.248047 L 21.048828 16.628906 L 21.091797 23.392578 L 21.050781 23.392578 A 5.2787614 3.0974548 0 0 1 15.792969 26.230469 A 5.2787614 3.0974548 0 0 1 10.513672 23.132812 A 5.2787614 3.0974548 0 0 1 15.792969 20.035156 A 5.2787614 3.0974548 0 0 1 20.078125 21.330078 L 20.048828 16.636719 L 20.025391 13.255859 L 19.994141 8.2792969 z M 12.222656 28.109375 L 28.675781 28.109375 C 29.450527 28.109375 30.074219 28.733067 30.074219 29.507812 C 30.074219 30.282558 29.450527 30.90625 28.675781 30.90625 L 12.222656 30.90625 C 11.447911 30.90625 10.824219 30.282558 10.824219 29.507812 C 10.824219 28.733067 11.447911 28.109375 12.222656 28.109375 z M 15.773438 32.552734 L 32.226562 32.552734 C 33.001308 32.552734 33.625 33.176426 33.625 33.951172 C 33.625 34.725918 33.001308 35.349609 32.226562 35.349609 L 15.773438 35.349609 C 14.998692 35.349609 14.375 34.725918 14.375 33.951172 C 14.375 33.176426 14.998692 32.552734 15.773438 32.552734 z M 12.222656 36.994141 L 28.675781 36.994141 C 29.450527 36.994141 30.074219 37.617832 30.074219 38.392578 C 30.074219 39.167324 29.450527 39.791016 28.675781 39.791016 L 12.222656 39.791016 C 11.447911 39.791016 10.824219 39.167324 10.824219 38.392578 C 10.824219 37.617832 11.447911 36.994141 12.222656 36.994141 z "
     id="rect3028" />
</svg>
