<?xml version="1.0" encoding="UTF-8"?>
<svg version="1.1" viewBox="0 0 48 48" xmlns="http://www.w3.org/2000/svg">
    <defs>
        <style>.cls-1{fill:#fff;}</style>
    </defs>
    <path class="cls-1" d="m10 4c-1.108 0-2 0.892-2 2v36c0 1.108 0.892 2 2 2h28c1.108 0 2-0.892 2-2v-36c0-1.108-0.892-2-2-2h-28zm25.889 2.1465a2 2 0 0 1 2 2 2 2 0 0 1-2 2 2 2 0 0 1-2-2 2 2 0 0 1 2-2zm-15.895 2.1328 0.91797 1.3027c0.54038 0.76659 1.3137 1.0974 2.1191 1.7832s1.5247 1.7537 1.7227 3.7793l-0.99609 0.097657c-0.1801-1.8426-0.71167-2.5504-1.375-3.1152-0.39786-0.33877-0.89091-0.7959-1.3711-1.1816l0.013672 2.3027 0.023437 3.3809 0.042969 6.7637h-0.041016a5.2788 3.0975 0 0 1-5.2578 2.8379 5.2788 3.0975 0 0 1-5.2793-3.0977 5.2788 3.0975 0 0 1 5.2793-3.0977 5.2788 3.0975 0 0 1 4.2852 1.2949l-0.029297-4.6934-0.023437-3.3809-0.03125-4.9766zm-7.7715 19.83h16.453c0.77475 0 1.3984 0.62369 1.3984 1.3984 0 0.77475-0.62369 1.3984-1.3984 1.3984h-16.453c-0.77474 0-1.3984-0.62369-1.3984-1.3984 0-0.77474 0.62369-1.3984 1.3984-1.3984zm3.5508 4.4434h16.453c0.77475 0 1.3984 0.62369 1.3984 1.3984s-0.62369 1.3984-1.3984 1.3984h-16.453c-0.77475 0-1.3984-0.62369-1.3984-1.3984s0.62369-1.3984 1.3984-1.3984zm-3.5508 4.4414h16.453c0.77475 0 1.3984 0.62369 1.3984 1.3984s-0.62369 1.3984-1.3984 1.3984h-16.453c-0.77474 0-1.3984-0.62369-1.3984-1.3984s0.62369-1.3984 1.3984-1.3984z" fill="#fff"/>
</svg>
