<?xml version="1.0" encoding="UTF-8" standalone="no"?>
<svg
   xmlns:dc="http://purl.org/dc/elements/1.1/"
   xmlns:cc="http://creativecommons.org/ns#"
   xmlns:rdf="http://www.w3.org/1999/02/22-rdf-syntax-ns#"
   xmlns:svg="http://www.w3.org/2000/svg"
   xmlns="http://www.w3.org/2000/svg"
   width="48"
   height="48"
   viewBox="0 0 12.7 12.7"
   version="1.1"
   id="svg8">
  <defs
     id="defs2" />
  <metadata
     id="metadata5">
    <rdf:RDF>
      <cc:Work
         rdf:about="">
        <dc:format>image/svg+xml</dc:format>
        <dc:type
           rdf:resource="http://purl.org/dc/dcmitype/StillImage" />
        <dc:title></dc:title>
      </cc:Work>
    </rdf:RDF>
  </metadata>
  <g
     id="layer1"
     style="display:inline">
    <path
       style="opacity:1;fill:#ffffff;stroke-width:0.0248047"
       d="M 0,11.740692 V 10.348608 C 0.52926336,10.130308 1.3256118,9.853251 1.9617285,9.8506169 1.7637393,9.682764 1.6687087,9.5033056 1.5561684,9.3359299 1.6697236,9.2915428 1.7424247,9.2683875 1.8027335,9.2166673 1.4076371,9.2914729 1.326551,9.2677108 1.2333912,9.2181928 1.3030922,9.0144654 1.298906,8.771765 1.1903208,7.9375001 0.95716921,6.1461855 1.2869424,5.3980965 1.6605664,4.7616355 2.0445001,4.1076124 2.5149541,3.8503947 2.6036424,3.7861414 2.591546,3.6850881 2.7357755,3.4869224 2.7753235,3.4258756 2.9574669,3.4281456 3.0885495,3.4907468 3.2505224,3.5760088 3.186351,3.4892314 3.1497578,3.4891064 3.1556903,3.4546784 L 3.2634186,3.2599266 c 0,0 -0.2025157,-0.017812 -0.2125823,-0.040564 -0.00582,-0.013157 0.00836,-0.048344 0.00836,-0.048344 0,0 0.076855,0.00741 0.084575,-0.034084 C 3.035732,3.1247623 2.9849855,3.1485003 2.9690297,3.0796886 l 0.051643,-0.017471 c 0,0 -0.00124,-0.2438256 -0.02485,-0.4008371 C 2.9364823,2.2667107 2.9725855,2.0455645 3.0902418,1.7405572 3.1980277,1.4611376 3.328484,1.2220794 3.579975,1.1009582 3.6323538,1.0117093 3.8841549,0.74937316 4.2018354,0.80333244 c 0.1169462,-0.042714 0.3660848,-0.0858777 0.5425803,0.11504881 0.098808,-0.0867205 0.1726489,-0.10914979 0.2747199,-0.0932111 -0.087081,0.0160766 -0.1175768,0.031534 -0.15476,0.0634461 C 5.3573527,0.87835285 5.5084983,1.072659 5.6071081,1.3003892 5.9721889,1.6890446 6.2228924,2.0234511 6.1407212,2.5167455 L 6.1078192,2.3440462 c 0.00608,0.1363304 -0.00492,0.2883459 -0.054689,0.35672 0.00466,-0.1062663 -0.013483,-0.1371839 -0.013483,-0.1371839 0,0 -0.025343,0.2076499 -0.1893313,0.3376386 0.038385,-0.077321 0.068063,-0.1310496 0.068622,-0.1584887 -0.028298,0.069938 -0.1069893,0.1091639 -0.1069893,0.1091639 0,0 0.05318,-0.098408 0.037539,-0.1439076 0,0 -0.067776,0.090917 -0.1155123,0.1446849 -0.084244,0.091877 -0.1635737,0.2679604 -0.047471,0.5805001 0.036812,0.099095 -0.048518,0.1704858 -0.1691072,0.1704858 -0.030776,0 -0.082107,-0.00308 -0.082107,-0.00308 0,0 -0.00161,0.045615 -0.00161,0.08407 0,0.080702 0.00477,0.084724 -0.023014,0.1245561 -0.020227,0.028993 -0.055268,0.014088 -0.078281,0.037262 -0.031792,0.032014 -0.00499,0.062248 -0.037216,0.094388 -0.060475,0.060315 -0.082881,0.013577 -0.133483,0.068628 -0.044389,0.048292 0.011112,0.1451142 -0.1006037,0.21405 -0.1873787,0.1156243 -0.5705996,-0.038492 -0.83573,-0.2376783 -0.04888,0.034417 -0.072765,0.074896 -0.1123919,0.1156827 0,0 0.072157,0.064035 0.1031717,0.089026 0.1305017,0.105154 0.09809,0.154582 0.2366124,0.4502602 0.094747,0.2022388 0.2511526,0.5080058 0.352601,0.6643382 0.040163,0.061892 0.079487,0.083338 0.1404463,0.1565986 0.067549,0.081179 0.114266,0.1432029 0.1143507,0.1816171 9.05e-5,0.041039 0.06147,0.060473 0.100493,0.089324 0.039022,0.02885 0.05849,0.076516 0.066506,0.1165962 0.011238,0.056189 0.00869,0.068546 0.039767,0.073921 0.2234985,0.038652 0.2614368,0.2847283 0.2292562,0.319465 l -0.150768,0.1627432 0.077302,-0.039037 0.077303,-0.039037 C 5.6123204,6.4257301 5.6341828,6.4592631 5.7016871,6.5044704 5.7385691,6.5035712 5.8859583,6.4121794 6.0926089,6.3292405 6.7402621,6.0693054 7.119364,5.7848236 7.1601935,5.700427 7.1901125,5.638584 7.2138455,5.559837 7.2275295,5.491416 L 7.0932778,5.489666 7.0525818,5.450268 8.3730825,3.8526554 l 0.8500256,0.011519 0.045212,0.069647 C 8.9392683,4.3133413 8.329073,5.026908 8.329073,5.026908 8.332993,5.1279058 8.26697,5.2777451 8.1810773,5.3668029 c 0.073731,0.1507 -0.041804,0.2550731 -0.097656,0.3381574 0.1180098,0.1387392 -0.22156,0.4229703 -0.608629,0.5605069 -0.08809,0.031301 -0.1594354,0.058281 -0.2177588,0.096289 -0.07627,0.049703 -0.1395598,0.1290422 -0.274474,0.251897 -0.1508942,0.1374063 -0.1932708,0.1961753 -0.3014856,0.2551131 0.146745,0.1129145 0.2123545,0.3128553 0.2940047,0.4692354 0.045136,0.1868011 0.2006908,0.3737701 0.2293052,0.414277 0.04156,0.058833 0.089719,0.1913867 0.1674566,0.3304276 0.028921,0.051729 0.079405,0.1197013 0.1107505,0.1710573 0.0497,0.081426 0.067912,0.1983314 0.115889,0.2480264 0.166137,0.043182 0.3384034,0.4623554 0.3272075,0.5822608 -0.075111,0.07184 -0.1129265,0.088213 -0.1917921,0.1630904 0.058153,-0.0028 0.09265,-0.02417 0.1426268,-0.038849 0,0 0.2449775,0.5211991 0.3242187,0.6187691 0.1721462,0.2119647 0.2543128,0.3662537 0.7035101,0.6510917 0.4091366,0.259436 0.5710263,0.372625 0.8773717,0.456396 0.203025,0.05552 0.2686284,0.09781 0.3335164,0.09652 0.121185,-0.0024 0.237756,-0.07056 0.247589,0.09142 0.0093,0.153191 -0.122071,0.226933 -0.25052,0.254098 0.938038,0.167631 1.915881,0.128844 2.587792,-0.619877 0,0.301875 0.0087,0.792036 1e-5,0.998643 0,0.548463 -0.430453,0.944645 -0.88778,0.944645 L 6.412043,12.6912 C 3.2973792,12.6932 0.91414533,12.699597 0.851,12.7 0.44405444,12.7 0,12.301959 0,11.740692 Z M 7.6550929,10.591169 C 7.6592046,10.500961 7.203039,9.969731 7.0571549,9.772277 6.983308,9.8374716 6.943872,9.8775572 6.8983826,9.8926687 6.737519,9.8679529 6.7144297,9.7786418 6.6354218,9.6659339 6.5754224,9.5803423 6.509897,9.5045502 6.4835606,9.4303629 6.4686263,9.3882945 6.5068283,9.3208208 6.4794413,9.2712604 6.4528561,9.2231508 6.336336,9.0665508 6.1828662,8.9149888 6.0652193,8.7988044 6.0333062,8.6865496 5.9601448,8.5556108 l -0.041289,0.063015 c -0.022709,0.034658 -0.052323,0.060519 -0.065281,0.063015 C 5.780077,8.6957999 5.7129987,8.7698566 5.611352,8.8372081 5.5194187,8.8981234 5.4376624,8.9427111 5.3600297,8.9785805 5.2244884,9.0412059 5.1888091,9.073745 4.9303756,9.3139917 4.4357867,9.7361166 4.2907653,9.7900825 3.9760787,9.9969159 5.5463004,10.249197 6.3937812,10.618364 7.6246449,10.953899 7.5977829,10.819155 7.6098589,10.724687 7.6550929,10.591169 Z M 4.8394013,7.0933868 4.7701243,7.0349298 c 0,0 -0.1125774,0.085609 -0.1422541,0.07254 -0.095357,-0.041994 -0.3151836,-0.2791053 -0.3141693,-0.3200739 3.813e-4,-0.0154 -3.616e-4,-0.039459 -3.616e-4,-0.039459 0,0 -0.083522,0.015493 -0.093378,-0.00582 C 4.2046993,6.7091159 4.1763893,6.7234329 4.1763893,6.7234329 4.0540952,7.3441442 4.0382913,7.4848921 4.0734226,7.520039 4.1142286,7.560863 4.307049,7.438728 4.8394013,7.0933868 Z"
       id="path959" />
  </g>
</svg>
