<?xml version="1.0" encoding="UTF-8"?>
<svg version="1.1" viewBox="0 0 48 48" xmlns="http://www.w3.org/2000/svg">
    <path d="m18.679 4-4.1624 1.3022 0.7502 2.2802 3.9784-1.0659h3.1787v2.8618h-2.5039v3.8049c-3.9104 0.6959-6.918 5.436-6.918 11.221v17.106c0 1.3795 1.1106 2.4901 2.4901 2.4901h17.016c1.3795 0 2.4901-1.1106 2.4901-2.4901v-17.106c0-5.7846-3.0077-10.525-6.918-11.221v-3.8049h-2.5035v-2.8618h3.3644v-2.5165zm11.117 19.407c-1.94e-4 0.71393-0.09736 1.4237-0.28817 2.1051 0.82612 0.45967 1.2709 1.0031 1.2718 1.5596 0.0015 0.94548-1.1874 2.3361-3.3636 2.3361-0.14013 0.78104-0.69154 1.0749-1.0376 1.0749h-0.52891c-0.01 0.5519-0.35382 0.99257-0.78182 0.99257s-0.77182-0.44067-0.78182-0.99257h-0.62537c-0.01 0.5519-0.35382 0.99257-0.78182 0.99257s-0.77182-0.44067-0.78182-0.99257h-1.5288c-0.57481 0-1.0376-0.46275-1.0376-1.0376-1.1506 0-3.3188-1.1575-3.3636-2.3734-0.02061-0.55883 0.4449-1.1054 1.2763-1.5669-0.19167-0.6788-0.29033-1.3861-0.29262-2.0978 9.9e-5 -3.8992 1.8959-7.0601 6.3227-7.0601s6.3226 3.161 6.3227 7.0602zm-8.9266-1.1997c-0.93119 0-1.6808 0.74958-1.6808 1.6808v0.73683c0.13613 4.5078 6.8889-2.4176 2.2936-2.4176zm4.5953 0c-3.9827 0 2.6117 6.7945 2.2936 2.4176v-0.73683c0-0.93119-0.74958-1.6808-1.6808-1.6808zm-1.7428 3.3526c-0.65272-0.028-1.1287 0.96474-1.224 1.564-0.07023 0.44174-0.0227 2.292 0.70076 1.5312 0.72346-0.76082 0.50792-0.9117 1.2864 0.03445 0.77849 0.94614 0.69475-1.0238 0.6047-1.4619-0.12452-0.6059-0.64954-1.637-1.3679-1.6678zm-5.4642 5.9056c1.0012 0.01 0.57633 1.1292 0.57633 1.1292l5.0074 1.8032 1.99-0.71656 3.017-1.0866s-0.55465-1.4617 1.0984-1.059c1.653 0.40265 0.29019 1.6994 0.29019 1.6994s1.5581 0.05791 0.8568 1.4542c-0.70132 1.3963-1.5045-0.08064-1.5045-0.08064l-2.5813 0.92974 2.4431 0.8795s0.32032-0.89907 0.93948-0.64402c0.17336 0.07146 0.36994 0.23352 0.58971 0.53094 1.0047 1.3597-0.88193 1.4866-0.88193 1.4866s1.1563 1.0352-0.28817 1.6589c-1.4444 0.62363-1.1-1.0185-1.1-1.0185l-2.6105-0.93988-2.2583-0.81343-2.2587 0.81343-2.6105 0.93988s0.34446 1.6421-1.1 1.0185c-1.4444-0.62364-0.28817-1.6589-0.28817-1.6589s-1.8866-0.12698-0.88193-1.4866c0.21977-0.29742 0.41634-0.45952 0.58971-0.53094 0.61916-0.25506 0.93948 0.64402 0.93948 0.64402l2.4431-0.8795-2.5813-0.92974s-0.80314 1.4769-1.5045 0.08064c-0.70132-1.3963 0.8568-1.4542 0.8568-1.4542s-1.3628-1.2968 0.29019-1.6994c0.20662-0.05036 0.379-0.07155 0.52202-0.07009z" fill="#fff" style="paint-order:stroke markers fill"/>
</svg>
