<?xml version="1.0" encoding="UTF-8"?>
<svg version="1.1" viewBox="0 0 48 48" xmlns="http://www.w3.org/2000/svg">
    <path d="m24 2a22 22 0 0 0-22 22 22 22 0 0 0 22 22 22 22 0 0 0 22-22 22 22 0 0 0-22-22zm-0.009766 3.6973a2.3539 2.3539 0 0 1 2.3535 2.3555 2.3539 2.3539 0 0 1-2.3535 2.3535 2.3539 2.3539 0 0 1-2.3555-2.3535 2.3539 2.3539 0 0 1 2.3555-2.3555zm-5.5527 9.4297h3.1152v6.5234h0.79883l5.0977-6.5234h3.7207l-6.1387 7.8594 7.082 8.4395h-3.7754l-5.6035-6.6797h-1.1816v6.6797h-3.1152v-16.299zm20.709 1.6348a2.3539 2.3539 0 0 1 2.3535 2.3535 2.3539 2.3539 0 0 1-2.3535 2.3535 2.3539 2.3539 0 0 1-2.3535-2.3535 2.3539 2.3539 0 0 1 2.3535-2.3535zm-30.293 0.035156a2.3539 2.3539 0 0 1 2.3535 2.3535 2.3539 2.3539 0 0 1-2.3535 2.3535 2.3539 2.3539 0 0 1-2.3535-2.3535 2.3539 2.3539 0 0 1 2.3535-2.3535zm5.7793 17.795a2.3539 2.3539 0 0 1 2.3535 2.3535 2.3539 2.3539 0 0 1-2.3535 2.3555 2.3539 2.3539 0 0 1-2.3535-2.3555 2.3539 2.3539 0 0 1 2.3535-2.3535zm18.715 0a2.3539 2.3539 0 0 1 2.3555 2.3535 2.3539 2.3539 0 0 1-2.3555 2.3555 2.3539 2.3539 0 0 1-2.3535-2.3555 2.3539 2.3539 0 0 1 2.3535-2.3535z" fill="#fff"/>
</svg>
