<svg xmlns="http://www.w3.org/2000/svg" viewBox="0 0 48 48" height="48" width="48" >
  <path
     d="m 24,1.99995 a 22.000025,22.000025 0 0 0 -22,22 22.000025,22.000025 0 0 0 22,22.0001 22.000025,22.000025 0 0 0 22,-22.0001 22.000025,22.000025 0 0 0 -22,-22 z m -4.8762,5.98654 a 5.4370769,5.4370769 0 0 1 5.437,5.43706 5.4370769,5.4370769 0 0 1 -5.437,5.43705 5.4370769,5.4370769 0 0 1 -5.4371,-5.43705 5.4370769,5.4370769 0 0 1 5.4371,-5.43706 z m 15.3708,5.64442 a 5.4370769,5.4370769 0 0 1 5.4371,5.43706 5.4370769,5.4370769 0 0 1 -5.4371,5.43705 5.4370769,5.4370769 0 0 1 -5.437,-5.43705 5.4370769,5.4370769 0 0 1 5.437,-5.43706 z M 24.0198,21.2667 a 2.7316215,2.7316215 0 0 1 2.7318,2.73161 2.7316215,2.7316215 0 0 1 -2.7318,2.7316 2.7316215,2.7316215 0 0 1 -2.7316,-2.7316 2.7316215,2.7316215 0 0 1 2.7316,-2.73161 z m -10.5197,2.17516 a 5.4370769,5.4370769 0 0 1 5.437,5.43705 5.4370769,5.4370769 0 0 1 -5.437,5.43716 5.4370769,5.4370769 0 0 1 -5.4371,-5.43716 5.4370769,5.4370769 0 0 1 5.4371,-5.43705 z m 15.405,5.62073 a 5.4370769,5.4370769 0 0 1 5.437,5.43705 5.4370769,5.4370769 0 0 1 -5.437,5.43706 5.4370769,5.4370769 0 0 1 -5.4371,-5.43706 5.4370769,5.4370769 0 0 1 5.4371,-5.43705 z"
     style="fill:#ffffff" />
</svg>
