<?xml version="1.0" encoding="UTF-8" standalone="no"?>
<svg
   xmlns:dc="http://purl.org/dc/elements/1.1/"
   xmlns:cc="http://creativecommons.org/ns#"
   xmlns:rdf="http://www.w3.org/1999/02/22-rdf-syntax-ns#"
   xmlns:svg="http://www.w3.org/2000/svg"
   xmlns="http://www.w3.org/2000/svg"
   xmlns:sodipodi="http://sodipodi.sourceforge.net/DTD/sodipodi-0.dtd"
   xmlns:inkscape="http://www.inkscape.org/namespaces/inkscape"
   width="48"
   height="48"
   viewBox="88.747 0.967 47.999998 48"
   version="1.1"
   id="svg4"
   sodipodi:docname="kinoteatr.svg"
   inkscape:version="0.92.4 5da689c313, 2019-01-14">
  <metadata
     id="metadata10">
    <rdf:RDF>
      <cc:Work
         rdf:about="">
        <dc:format>image/svg+xml</dc:format>
        <dc:type
           rdf:resource="http://purl.org/dc/dcmitype/StillImage" />
        <dc:title></dc:title>
      </cc:Work>
    </rdf:RDF>
  </metadata>
  <defs
     id="defs8" />
  <sodipodi:namedview
     pagecolor="#ffffff"
     bordercolor="#666666"
     borderopacity="1"
     objecttolerance="10"
     gridtolerance="10"
     guidetolerance="10"
     inkscape:pageopacity="0"
     inkscape:pageshadow="2"
     inkscape:window-width="1250"
     inkscape:window-height="1397"
     id="namedview6"
     showgrid="false"
     inkscape:pagecheckerboard="true"
     inkscape:zoom="4.9166667"
     inkscape:cx="18.813559"
     inkscape:cy="24"
     inkscape:window-x="1290"
     inkscape:window-y="23"
     inkscape:window-maximized="0"
     inkscape:current-layer="svg4" />
  <path
     style="fill:#ffffff"
     d="m 131.01104,16.978335 c -0.61617,0 -1.11625,0.49961 -1.11625,1.11531 0,0.61617 0.50008,1.11484 1.11625,1.11484 0.61664,0 1.11578,-0.49914 1.11578,-1.11484 0,-0.61617 -0.49961,-1.11531 -1.11578,-1.11531 m -5.83223,0 c -0.61617,0 -1.11578,0.49961 -1.11578,1.11531 0,0.61617 0.49961,1.11484 1.11578,1.11484 0.61617,0 1.11484,-0.49914 1.11484,-1.11484 4.7e-4,-0.61617 -0.49867,-1.11531 -1.11484,-1.11531 m 2.91635,0 c -0.61664,0 -1.11578,0.49961 -1.11578,1.11531 0,0.61617 0.49961,1.11484 1.11578,1.11484 0.61711,0 1.11625,-0.49914 1.11625,-1.11484 0,-0.61617 -0.49961,-1.11531 -1.11625,-1.11531 m 0.11515,2.91541 c -2.77347,0 -5.02148,2.24378 -5.02148,5.01255 0,2.7683 2.24801,5.01255 5.02148,5.01255 2.77347,0 5.02195,-2.24425 5.02195,-5.01255 -4.7e-4,-2.76877 -2.24848,-5.01255 -5.02195,-5.01255 m 0,7.79683 c -1.54019,0 -2.78945,-1.24597 -2.78945,-2.78428 0,-1.53831 1.24926,-2.78475 2.78945,-2.78475 1.54066,0 2.78992,1.24644 2.78992,2.78475 0,1.53831 -1.24926,2.78428 -2.78992,2.78428 m -8.45436,-3.88455 h -4.05187 v -3.91181 h -2.37256 v 3.91181 2.11547 3.99735 h 2.37256 v -3.99735 h 4.05187 v 3.99735 h 2.37303 v -3.99735 -2.11547 -3.91181 h -2.37303 z M 105.287,19.894215 h -2.37256 v 10.02463 h 1.15009 0.97102 l 0.25145,-0.32712 4.49696,-5.86231 v 6.18943 h 2.37256 v -9.28344 -0.74119 h -2.10936 l -0.2632,0.34357 -4.49696,5.86231 z m -9.715839,4.1031 v -4.1031 h -2.37256 v 10.02463 h 2.37256 v -2.82282 l 1.08946,-1.21213 2.70391,4.03401 2.962409,9.4e-4 -3.969619,-5.92388 3.685269,-4.10075 H 99.257841 Z M 134.747,24.87881 a 22,22 0 0 1 -22,22 22,22 0 0 1 -21.999999,-22 22,22 0 0 1 21.999999,-22 22,22 0 0 1 22,22 z"
     id="path2" />
</svg>
