<?xml version="1.0" encoding="UTF-8"?>
<svg version="1.1" viewBox="0 0 48 48" xmlns="http://www.w3.org/2000/svg">
    <path d="m33.469 4.2598c-0.51698 0-0.94531 0.42832-0.94531 0.94531v1.1426c0 0.51698 0.42832 0.94531 0.94531 0.94531 0.51697 0 0.94336-0.42984 0.94336-0.94531v-1.1426c0-0.51545-0.42637-0.94531-0.94336-0.94531zm-20.451 1.6387c-2.0433 0.022011-3.7455 1.3502-4.4277 3.1875-1.5132 0.57093-2.5938 2.0231-2.5938 3.7559 0 2.222 1.8019 4.0922 3.9473 4.0449l6.7852 0.042969c1.4137 0 3.3262-1.8971 3.3262-4.1191 0-1.7327-1.0806-3.1849-2.5938-3.7559-0.68522-1.8452-2.4001-3.1783-4.4434-3.1562zm16.41 0.60742c-0.2379 0-0.48376 0.091181-0.66797 0.27539-0.36505 0.36534-0.36522 0.97071 0 1.3359l0.4043 0.4043c0.36534 0.36507 0.97071 0.36523 1.3359 0 0.36506-0.36534 0.36522-0.97071 0-1.3359l-0.4043-0.4043c-0.18424-0.18433-0.43007-0.27539-0.66797-0.27539zm8.082 0c-0.2379 0-0.48376 0.091188-0.66797 0.27539l-0.4043 0.4043c-0.36506 0.36534-0.36522 0.97072 0 1.3359 0.36534 0.36507 0.97071 0.36522 1.3359 0a0.37227 0.37227 0 0 0 0-0.0019532l0.40234-0.40234v-0.0019531c0.3637-0.36548 0.36477-0.96922 0-1.334-0.18271-0.18281-0.42812-0.27539-0.66602-0.27539zm-3.9941 1.2051c-0.97341-1.564e-4 -1.9406 0.40154-2.6289 1.0898-0.68831 0.68831-1.09 1.6555-1.0898 2.6289-1.56e-4 0.97341 0.40154 1.9406 1.0898 2.6289s1.6555 1.09 2.6289 1.0898c0.97341 1.54e-4 1.9406-0.40154 2.6289-1.0898s1.09-1.6555 1.0898-2.6289c1.57e-4 -0.97341-0.40154-1.9406-1.0898-2.6289-0.68831-0.68831-1.6555-1.09-2.6289-1.0898zm-0.021484 1.4199a2.3207 2.3207 0 0 1 2.3203 2.3203 2.3207 2.3207 0 0 1-2.3203 2.3203 2.3207 2.3207 0 0 1-2.3203-2.3203 2.3207 2.3207 0 0 1 2.3203-2.3203zm5.1152 1.416c-0.51696 0-0.94336 0.42984-0.94336 0.94531 0 0.51545 0.42637 0.94531 0.94336 0.94531h1.1445c0.51697 0 0.94336-0.42984 0.94336-0.94531 0-0.51545-0.42637-0.94531-0.94336-0.94531h-1.1445zm-11.398 0.005859c-0.51698 0-0.94531 0.42832-0.94531 0.94531 0 0.51697 0.42985 0.94336 0.94531 0.94336h1.1426c0.51544 0 0.94531-0.42637 0.94531-0.94336 0-0.51697-0.42831-0.94531-0.94531-0.94531h-1.1426zm9.8926 3.6309c-0.24123 0-0.48488 0.096207-0.66602 0.27734-0.36506 0.36534-0.36522 0.97071 0 1.3359l0.40234 0.40234a0.37227 0.37227 0 0 0 0 0.001953c8.11e-4 8.11e-4 0.15338 0.093462 0.1543 0.09375 4.57e-4 1.44e-4 0.081553 0.015584 0.082031 0.015625 3.18e-4 2.7e-5 0.023526 2.5e-5 0.042969 0 0.13733 0.072444 0.26698 0.17383 0.41797 0.17383 0.24121 0 0.48528-0.094652 0.66797-0.27734 0.36504-0.36535 0.36522-0.97072 0-1.3359a0.37227 0.37227 0 0 0-0.001953 0l-0.40234-0.40234c-7.44e-4 -7.44e-4 -0.15346-0.093486-0.1543-0.09375-6.26e-4 -1.97e-4 -0.067866-0.007296-0.10938-0.011719-0.14124-0.077819-0.27702-0.17969-0.43359-0.17969zm-7.2441 0.011718c-0.24241 8e-6 -0.48536 0.090823-0.66797 0.27344l-0.40234 0.40234a0.37227 0.37227 0 0 0-0.001953 0c-0.36505 0.36534-0.36522 0.97071 0 1.3359 0.1827 0.18276 0.42673 0.27734 0.66797 0.27734 0.24122 0 0.48529-0.094678 0.66797-0.27734l0.4043-0.4043c0.36429-0.36458 0.36446-0.96953 0-1.334-0.18267-0.18252-0.42556-0.27344-0.66797-0.27344zm7.6914 0.17383c0.03266 0.002591 0.064863 0.005971 0.064453 0.005859-8.56e-4 -2.34e-4 0.15311 0.084688 0.15234 0.083984-0.059511-0.058944-0.1467-0.049727-0.2168-0.089843zm-4.0547 1.3281c-0.51698 0-0.94531 0.42832-0.94531 0.94531v1.1426c0 0.51698 0.42984 0.94336 0.94531 0.94336 0.51546 0 0.94531-0.42638 0.94531-0.94336v-1.1426c0-0.51698-0.42832-0.94531-0.94531-0.94531zm3.375 0.50976c0.065346 0.065108 0.16032 0.057337 0.23828 0.09961-7.55e-4 -1e-6 -0.005908-3e-6 -0.005859 0 4.86e-4 2.6e-5 -0.07664-0.011846-0.076172-0.011719 9.35e-4 2.53e-4 -0.15123-0.082795-0.15039-0.082031l-0.005859-0.00586zm-12.871 3.1816a17.139 7.6214 0 0 0-1.2227 0.019531c3.0901 2.1405 5.8345 5.2142 5.5449 8.5879-0.26896 3.1338-3.725 5.2512-6.8535 6.543a17.139 7.6214 0 0 0 2.5312 0.091797 17.139 7.6214 0 0 0 17.139-7.6211 17.139 7.6214 0 0 0-17.139-7.6211zm-5.2988 0.38477a17.139 7.6214 0 0 0-11.84 7.2363 17.139 7.6214 0 0 0 10.738 7.0645c0.56631-2.5259 7.9686-2.9057 8.2461-6.1367 0.2816-3.279-4.684-5.9637-7.1445-8.1641zm-11.84 9.0879a17.139 17.139 0 0 0 17.139 17.139 17.139 17.139 0 0 0 17.139-17.139 17.139 7.6214 0 0 1-17.139 7.6211 17.139 7.6214 0 0 1-17.139-7.6211z" fill="#fff" stroke-width=".77903"/>
</svg>
