<svg id="Layer_1" data-name="Layer 1" xmlns="http://www.w3.org/2000/svg" viewBox="0 0 48 48"><defs><style>.cls-1{fill:#fff;}</style></defs><title>koler</title><path class="cls-1" d="M18.17,25.47l-3.7,3.71a.64.64,0,0,0,0,.88,38.92,38.92,0,0,0,5,4.73.65.65,0,0,0,.86,0L24,31a.65.65,0,0,0-.07-1,33.18,33.18,0,0,1-4.79-4.54A.66.66,0,0,0,18.17,25.47Z"/><path class="cls-1" d="M35,42.27a39.65,39.65,0,0,0,4.64.72A3,3,0,0,0,43,40V35.49a4.46,4.46,0,0,0-.14-1.09.65.65,0,0,0-1.08-.29l-7.07,7.07A.65.65,0,0,0,35,42.27Z"/><path class="cls-1" d="M12.49,26.38l3.75-3.75a.64.64,0,0,0,.08-.81q-.88-1.35-1.65-2.79a.65.65,0,0,1,.12-.76l2.36-2.36A3.39,3.39,0,0,0,18,12.54c-.12-.43-.24-.86-.35-1.3a.65.65,0,0,0-1.08-.3l-8.4,8.41a.65.65,0,0,0-.14.72A38.64,38.64,0,0,0,11.5,26.3.65.65,0,0,0,12.49,26.38Z"/><path class="cls-1" d="M7.34,15.41,15.66,7.1a.64.64,0,0,0,0-.93A4.66,4.66,0,0,0,12.55,5H8A3,3,0,0,0,5,8.31a36.94,36.94,0,0,0,1.25,6.82A.65.65,0,0,0,7.34,15.41Z"/><path class="cls-1" d="M39.25,31.87a.64.64,0,0,0-.33-1.09h0a26.88,26.88,0,0,1-3.7-.86,3,3,0,0,0-3,.75l-2.51,2.52a.64.64,0,0,1-.76.11c-.38-.2-.75-.41-1.12-.62a.64.64,0,0,0-.78.1l-3.78,3.77a.65.65,0,0,0,.12,1,37.63,37.63,0,0,0,6.5,3.18.65.65,0,0,0,.69-.15Z"/></svg>