<?xml version="1.0" encoding="utf-8"?>
<!-- Generator: Adobe Illustrator 21.1.0, SVG Export Plug-In . SVG Version: 6.00 Build 0)  -->
<svg version="1.0" id="Layer_1" xmlns="http://www.w3.org/2000/svg" xmlns:xlink="http://www.w3.org/1999/xlink" x="0px" y="0px"
	 viewBox="0 0 48 48" style="enable-background:new 0 0 48 48;" xml:space="preserve">
<style type="text/css">
	.st0{fill:#FFFFFF;}
</style>
<path class="st0" d="M24,2C11.8,2,2,11.8,2,24s9.8,22,22,22s22-9.8,22-22S36.2,2,24,2z M10.9,37.9c4.4-5,10-8.8,13.1-15
	c3.1,6.2,8.7,10,13,14.9C31.6,44.1,18.7,45.7,10.9,37.9z M39,35.8c-2.1-2.2-4.3-4.3-6.4-6.5c-0.5-0.5-0.9-1-1.4-1.4
	c-1.1-1-1.8-2-1.5-3.7c0.3-2.3-0.9-4.2-3-5.3c-2.1-1.1-4.1-0.9-6,0.4c-2,1.4-2.7,3.4-2.3,5.8c0.1,0.5,0,1.2-0.2,1.4
	c-2.9,3-5.9,6-8.9,8.9c-0.1,0.1-0.2,0.1-0.3,0.2c-5.3-6.3-6.1-17.7,1.8-25.4c7.5-7.4,19.9-7.1,27.2,0.5C45.4,18.5,44.2,30,39,35.8z"
	/>
</svg>
