<?xml version="1.0" encoding="UTF-8" standalone="no"?>
<!-- Created with Inkscape (http://www.inkscape.org/) -->

<svg
   xmlns:dc="http://purl.org/dc/elements/1.1/"
   xmlns:cc="http://creativecommons.org/ns#"
   xmlns:rdf="http://www.w3.org/1999/02/22-rdf-syntax-ns#"
   xmlns:svg="http://www.w3.org/2000/svg"
   xmlns="http://www.w3.org/2000/svg"
   xmlns:sodipodi="http://sodipodi.sourceforge.net/DTD/sodipodi-0.dtd"
   xmlns:inkscape="http://www.inkscape.org/namespaces/inkscape"
   id="SVGRoot"
   version="1.1"
   viewBox="0 0 48 48"
   height="48px"
   width="48px"
   sodipodi:docname="korader.svg"
   inkscape:version="0.92.4 (5da689c313, 2019-01-14)">
  <defs
     id="defs3732" />
  <sodipodi:namedview
     id="base"
     pagecolor="#000000"
     bordercolor="#666666"
     borderopacity="1.0"
     inkscape:pageopacity="0"
     inkscape:pageshadow="2"
     inkscape:zoom="10.666667"
     inkscape:cx="32.37356"
     inkscape:cy="25.798618"
     inkscape:document-units="px"
     inkscape:current-layer="layer2"
     showgrid="false"
     inkscape:window-width="1920"
     inkscape:window-height="1023"
     inkscape:window-x="0"
     inkscape:window-y="25"
     inkscape:window-maximized="1"
     inkscape:grid-bbox="true" />
  <metadata
     id="metadata3735">
    <rdf:RDF>
      <cc:Work
         rdf:about="">
        <dc:format>image/svg+xml</dc:format>
        <dc:type
           rdf:resource="http://purl.org/dc/dcmitype/StillImage" />
        <dc:title></dc:title>
      </cc:Work>
    </rdf:RDF>
  </metadata>
  <g
     inkscape:groupmode="layer"
     id="layer2"
     inkscape:label="Layer 2"
     style="display:inline">
    <path
       style="display:inline;fill:#ffffff;stroke-width:0.025;fill-opacity:1"
       d="m 15.979282,45.3562 c -0.306561,-0.756692 -0.505469,-1.503882 -0.620583,-2.3312 -0.0625,-0.449197 -0.06262,-1.705023 -2e-4,-2.1625 0.233042,-1.708055 0.841,-3.13427 1.907576,-4.475 0.28031,-0.352362 0.967255,-1.039545 1.321429,-1.321888 1.326217,-1.057245 2.826566,-1.689637 4.525,-1.90728 0.475773,-0.06097 1.554667,-0.06107 2.0375,-2.5e-4 1.983776,0.250108 3.716515,1.071425 5.117628,2.425758 1.474959,1.425715 2.367547,3.209045 2.648289,5.29111 0.05721,0.424257 0.06481,1.613107 0.01303,2.0375 -0.100025,0.819822 -0.28773,1.56305 -0.585567,2.318592 l -0.10588,0.26859 h -8.100001 -8.1 l -0.05822,-0.1437 z M 36.2,45.460352 c 0.611233,-0.07289 1.133393,-0.225144 1.6625,-0.484757 1.571203,-0.77093 2.622048,-2.293763 2.786528,-4.038095 0.03578,-0.379482 0.03628,-33.5024435 4.99e-4,-33.8661013 C 40.531635,5.8728942 40.037487,4.8201817 39.197118,3.977234 38.381175,3.1587875 37.385172,2.6838517 36.178005,2.5375917 l -0.26551,-0.032169 0.3625,-0.00215 c 0.744158,-0.0044 1.327568,0.079699 1.884098,0.2715987 0.730137,0.2517625 1.30862,0.604916 1.860559,1.1358425 0.818013,0.7868698 1.32278,1.7702408 1.495911,2.9142803 0.04102,0.2710432 0.0435,1.254154 0.04347,17.1749998 0,16.141577 -0.002,16.90075 -0.04509,17.1875 -0.28426,1.89285 -1.593715,3.45667 -3.38895,4.04726 -0.57791,0.190118 -1.130352,0.268105 -1.85988,0.26256 l -0.35262,-0.0027 0.2875,-0.03428 z M 10.025477,45.284553 C 9.172379,45.022523 8.4697704,44.597868 7.8723047,43.983178 7.1050807,43.193837 6.6510743,42.275248 6.4843842,41.175 6.4433015,40.903832 6.4408279,39.928188 6.4408404,24 6.4408529,8.0801487 6.4433463,7.0960263 6.484356,6.825 6.5884332,6.13717 6.8038973,5.5218337 7.1299697,4.9812148 7.8811702,3.7357453 9.0613273,2.8937608 10.452035,2.6110838 10.61732,2.5774878 10.763228,2.55 10.776276,2.55 c 0.01494,0 0.02372,4.816263 0.02372,13 0,7.15 0.0061,13 0.01365,13 0.0075,0 0.660693,-0.540615 1.451521,-1.201367 0.790828,-0.660753 1.453372,-1.207318 1.472321,-1.21459 0.02064,-0.0079 0.618745,0.47473 1.492229,1.204187 L 16.6875,28.555635 16.693774,15.527818 16.700047,2.5 h 6.23005 6.23005 l -0.08883,0.09375 c -0.04886,0.051563 -0.622216,0.673125 -1.27413,1.38125 -0.651913,0.708125 -1.97907,2.148125 -2.949239,3.2 -0.970168,1.051875 -2.375738,2.57625 -3.12349,3.3875 -0.747752,0.81125 -1.537418,1.667276 -1.754813,1.902281 -0.56721,0.613153 -0.732677,0.834856 -0.956991,1.282242 C 18.68859,14.393351 18.575,14.947796 18.575,15.88324 c 0,0.68975 0.0612,0.991202 0.297268,1.46429 0.238049,0.477053 0.486064,0.775074 1.228406,1.47608 0.672837,0.635371 2.062346,1.961039 2.424326,2.312939 0.171875,0.16709 0.69517,0.668783 1.162877,1.114875 2.622016,2.500836 3.67322,3.467291 4.724623,4.343718 0.28875,0.240698 0.620625,0.523586 0.7375,0.628643 0.585795,0.52656 0.850907,0.715475 1.251402,0.891732 0.543402,0.239151 1.200613,0.368213 2.211098,0.434215 0.211525,0.01382 1.699147,0.02442 3.4125,0.02433 l 3.0375,-2.5e-4 L 38.8,28.441427 C 38.103155,28.089992 37.423142,27.583947 35.925,26.30194 34.834855,25.369067 33.20822,23.949977 32.4875,23.303033 32.295,23.130239 31.974375,22.842384 31.775,22.663355 28.976651,20.150669 26.04896,17.328309 24.816473,15.955265 l -0.296026,-0.329787 0.696027,-0.743973 C 25.599288,14.47232 26.0925,13.946016 26.3125,13.71194 c 0.22,-0.234075 0.715506,-0.762833 1.101124,-1.175016 C 27.799243,12.124741 28.625573,11.241875 29.249915,10.575 29.874256,9.908125 30.779375,8.9411178 31.26129,8.426095 31.743205,7.9110723 32.565,7.0332378 33.0875,6.4753512 33.61,5.917465 34.526572,4.9382222 35.12433,4.2992562 35.722087,3.6602903 36.267745,3.0778267 36.336905,3.0048925 L 36.46265,2.872285 36.762575,3.0205633 c 1.50452,0.7438129 2.544935,2.1887102 2.76643,3.8419367 0.04984,0.3720198 0.04984,33.90298 0,34.275 -0.07203,0.537622 -0.258903,1.13296 -0.50762,1.617163 -0.21199,0.412702 -0.567982,0.918844 -0.79677,1.132837 l -0.08019,0.075 0.01473,-0.075 c 0.0081,-0.04125 0.03149,-0.2325 0.05195,-0.425 0.258303,-2.42889 -0.104407,-4.856245 -1.058129,-7.081265 -1.90287,-4.43937 -5.971563,-7.633115 -10.709209,-8.406262 -1.29656,-0.211588 -2.693994,-0.241355 -4.006279,-0.08534 -4.691956,0.55782 -8.833102,3.478776 -10.959951,7.730598 -1.000625,2.000367 -1.4833597,4.043442 -1.4867282,6.29227 -0.00123,0.81999 0.023626,1.21375 0.1235502,1.957338 0.05275,0.392532 0.235283,1.360022 0.277204,1.469267 0.02066,0.05384 -0.04507,0.04405 -0.366098,-0.05455 z"
       id="path826"
       inkscape:connector-curvature="0" />
  </g>
</svg>
