<?xml version="1.0" encoding="UTF-8" standalone="no"?>
<svg
   xmlns:dc="http://purl.org/dc/elements/1.1/"
   xmlns:cc="http://creativecommons.org/ns#"
   xmlns:rdf="http://www.w3.org/1999/02/22-rdf-syntax-ns#"
   xmlns:svg="http://www.w3.org/2000/svg"
   xmlns="http://www.w3.org/2000/svg"
   xmlns:sodipodi="http://sodipodi.sourceforge.net/DTD/sodipodi-0.dtd"
   xmlns:inkscape="http://www.inkscape.org/namespaces/inkscape"
   width="48"
   height="48"
   viewBox="0 0 48 48"
   version="1.1"
   id="svg994"
   sodipodi:docname="kuroba.svg"
   inkscape:version="0.92.4 5da689c313, 2019-01-14">
  <metadata
     id="metadata1000">
    <rdf:RDF>
      <cc:Work
         rdf:about="">
        <dc:format>image/svg+xml</dc:format>
        <dc:type
           rdf:resource="http://purl.org/dc/dcmitype/StillImage" />
      </cc:Work>
    </rdf:RDF>
  </metadata>
  <defs
     id="defs998" />
  <sodipodi:namedview
     pagecolor="#ffffff"
     bordercolor="#666666"
     borderopacity="1"
     objecttolerance="10"
     gridtolerance="10"
     guidetolerance="10"
     inkscape:pageopacity="0"
     inkscape:pageshadow="2"
     inkscape:window-width="2160"
     inkscape:window-height="1360"
     id="namedview996"
     showgrid="true"
     inkscape:snap-global="false"
     inkscape:zoom="1.7383042"
     inkscape:cx="23.730406"
     inkscape:cy="59.675286"
     inkscape:window-x="0"
     inkscape:window-y="44"
     inkscape:window-maximized="1"
     inkscape:current-layer="svg994"
     inkscape:snap-center="true"
     inkscape:snap-object-midpoints="true"
     inkscape:snap-grids="true"
     inkscape:snap-bbox="true"
     inkscape:snap-bbox-midpoints="true"
     inkscape:snap-others="true"
     inkscape:bbox-paths="true"
     inkscape:bbox-nodes="true">
    <inkscape:grid
       type="xygrid"
       id="grid1548" />
  </sodipodi:namedview>
  <path
     style="fill:#ffffff;fill-opacity:1"
     d="M 24 2 A 22 22 0 0 0 2 24 A 22 22 0 0 0 24 46 A 22 22 0 0 0 46 24 A 22 22 0 0 0 24 2 z M 28.769531 9.2441406 C 31.488449 9.2441406 31.976562 12.347656 31.976562 12.347656 C 31.976562 12.347656 32.99151 11.012311 33.712891 11.050781 C 34.92636 11.115503 35.974675 12.387344 36.384766 13.53125 C 36.969865 15.163318 36.702537 17.278548 35.689453 18.685547 C 33.742588 21.389404 26.71875 23.09375 26.71875 23.09375 C 26.71875 23.09375 24.90625 17.656418 24.90625 14.9375 C 24.90625 12.218582 26.050613 9.2441406 28.769531 9.2441406 z M 15.509766 11.310547 C 16.651713 11.334821 17.806173 11.677369 18.685547 12.310547 C 21.389404 14.257411 23.09375 21.28125 23.09375 21.28125 C 23.09375 21.28125 17.656418 23.09375 14.9375 23.09375 C 12.218582 23.09375 9.2441406 21.949387 9.2441406 19.230469 C 9.2441406 16.511551 12.347656 16.023438 12.347656 16.023438 C 12.347656 16.023438 11.012311 15.00849 11.050781 14.287109 C 11.115503 13.07364 12.387344 12.025325 13.53125 11.615234 C 14.143275 11.395822 14.824597 11.295983 15.509766 11.310547 z M 21.382812 24.90625 C 21.382812 24.90625 23.195312 30.343582 23.195312 33.0625 C 23.195312 35.781418 22.050949 38.755859 19.332031 38.755859 C 16.613113 38.755859 16.125 35.652344 16.125 35.652344 C 16.125 35.652344 15.110053 36.987689 14.388672 36.949219 C 13.175203 36.884497 12.126888 35.612656 11.716797 34.46875 C 11.131699 32.836682 11.399024 30.721452 12.412109 29.314453 C 14.358973 26.610596 21.382812 24.90625 21.382812 24.90625 z M 33.0625 24.90625 C 35.781418 24.90625 38.755859 26.050613 38.755859 28.769531 C 38.755859 31.488449 35.652344 31.976562 35.652344 31.976562 C 35.652344 31.976562 36.987689 32.99151 36.949219 33.712891 C 36.884497 34.92636 35.612656 35.974675 34.46875 36.384766 C 32.836682 36.969865 30.721452 36.702537 29.314453 35.689453 C 26.610596 33.742588 24.90625 26.71875 24.90625 26.71875 C 24.90625 26.71875 30.343582 24.90625 33.0625 24.90625 z "
     id="circle992" />
</svg>
