<?xml version="1.0" encoding="UTF-8" standalone="no"?>
<!-- Created with Inkscape (http://www.inkscape.org/) -->

<svg
   xmlns:dc="http://purl.org/dc/elements/1.1/"
   xmlns:cc="http://creativecommons.org/ns#"
   xmlns:rdf="http://www.w3.org/1999/02/22-rdf-syntax-ns#"
   xmlns:svg="http://www.w3.org/2000/svg"
   xmlns="http://www.w3.org/2000/svg"
   xmlns:sodipodi="http://sodipodi.sourceforge.net/DTD/sodipodi-0.dtd"
   xmlns:inkscape="http://www.inkscape.org/namespaces/inkscape"
   id="SVGRoot"
   version="1.1"
   viewBox="0 0 48 48"
   height="48px"
   width="48px"
   sodipodi:docname="kusc.svg"
   inkscape:version="0.92.4 (5da689c313, 2019-01-14)">
  <defs
     id="defs3732" />
  <sodipodi:namedview
     id="base"
     pagecolor="#000000"
     bordercolor="#666666"
     borderopacity="1.0"
     inkscape:pageopacity="0"
     inkscape:pageshadow="2"
     inkscape:zoom="10.666667"
     inkscape:cx="-0.90549641"
     inkscape:cy="12.319559"
     inkscape:document-units="px"
     inkscape:current-layer="layer2"
     showgrid="false"
     inkscape:window-width="1920"
     inkscape:window-height="1023"
     inkscape:window-x="0"
     inkscape:window-y="25"
     inkscape:window-maximized="1"
     inkscape:grid-bbox="true" />
  <metadata
     id="metadata3735">
    <rdf:RDF>
      <cc:Work
         rdf:about="">
        <dc:format>image/svg+xml</dc:format>
        <dc:type
           rdf:resource="http://purl.org/dc/dcmitype/StillImage" />
        <dc:title></dc:title>
      </cc:Work>
    </rdf:RDF>
  </metadata>
  <g
     inkscape:groupmode="layer"
     id="layer2"
     inkscape:label="Layer 2"
     style="display:inline">
    <path
       style="fill:#ffffff"
       d="M 24 2 A 22 22 0 0 0 2 24 A 22 22 0 0 0 24 46 A 22 22 0 0 0 46 24 A 22 22 0 0 0 24 2 z M 6.8398438 14.880859 L 8.1582031 14.880859 L 9.4765625 14.880859 L 9.5078125 19.333984 L 9.5390625 23.787109 L 11.160156 21.679688 L 12.779297 19.572266 L 15.929688 19.566406 C 18.652409 19.561106 19.080078 19.584647 19.080078 19.740234 C 19.080078 19.8587 18.960605 19.919922 18.732422 19.919922 C 18.541734 19.919922 18.259328 20.022353 18.103516 20.148438 L 17.820312 20.378906 L 17.785156 23.763672 C 17.744886 27.612708 17.817031 28.224531 18.398438 28.886719 C 18.938928 29.502303 19.572565 29.753501 20.580078 29.755859 C 21.665586 29.758359 22.223873 29.59699 22.763672 29.123047 C 23.641334 28.352458 23.695037 28.085875 23.740234 24.257812 C 23.768274 21.883143 23.738888 20.75599 23.642578 20.523438 C 23.486446 20.146504 23.076899 19.919922 22.554688 19.919922 C 22.319706 19.919922 22.199219 19.859597 22.199219 19.740234 C 22.199219 19.589542 22.452792 19.560547 23.748047 19.560547 C 25.012602 19.560547 25.306824 19.593114 25.363281 19.740234 C 25.415121 19.875323 25.343524 19.919922 25.076172 19.919922 C 24.676984 19.919922 24.278013 20.254043 24.185547 20.666016 C 24.151837 20.816195 24.109687 22.478375 24.091797 24.359375 C 24.063407 27.344941 24.031728 27.840739 23.84375 28.259766 C 23.334356 29.395302 22.276557 29.979672 20.585938 30.060547 C 20.055073 30.085937 19.361597 30.061147 19.046875 30.003906 C 18.22596 29.854514 17.45619 29.446114 17.037109 28.939453 C 16.3873 28.153846 16.320312 27.68209 16.320312 23.871094 C 16.320312 20.706143 16.302245 20.404548 16.099609 20.154297 C 15.975573 20.00112 15.818173 19.918627 15.740234 19.966797 C 15.664004 20.013907 14.814572 20.994117 13.853516 22.144531 L 12.107422 24.236328 L 14.167969 26.96875 C 15.301959 28.471226 16.283925 29.767109 16.349609 29.849609 C 16.444049 29.968229 16.108027 29.999507 14.744141 29.996094 L 13.019531 29.992188 L 11.279297 27.451172 L 9.5390625 24.912109 L 9.5078125 27.457031 L 9.4746094 30 L 8.1582031 30 L 6.8398438 30 L 6.8398438 22.439453 L 6.8398438 14.880859 z M 37.232422 19.46875 C 38.038943 19.462796 38.759569 19.65617 39.609375 20.087891 L 40.433594 20.505859 L 40.664062 20.212891 C 41.101974 19.656177 41.160156 19.82681 41.160156 21.660156 C 41.160156 23.437721 41.041327 23.848076 40.802734 22.890625 C 40.062379 19.919634 37.145553 18.812766 35.048828 20.707031 C 34.119203 21.546893 33.645244 22.712369 33.558594 24.375 C 33.494594 25.60305 33.656646 26.542259 34.091797 27.480469 C 34.778868 28.961827 35.864094 29.759766 37.189453 29.759766 C 38.867633 29.759766 40.181194 28.746729 40.748047 27.013672 C 40.858316 26.676543 40.996284 26.400391 41.054688 26.400391 C 41.113087 26.400391 41.160156 27.156078 41.160156 28.080078 C 41.160156 29.707128 41.083154 30.030447 40.808594 29.550781 C 40.488347 28.991298 40.488828 28.991276 40.044922 29.265625 C 38.975562 29.926526 37.242079 30.228477 35.880859 29.992188 C 34.315488 29.72046 33.06546 28.752108 32.359375 27.261719 C 31.993391 26.489206 31.980469 26.404011 31.980469 24.894531 L 31.980469 23.328125 L 32.431641 22.414062 C 33.24382 20.77073 34.551047 19.820484 36.388672 19.539062 C 36.684163 19.49381 36.963582 19.470734 37.232422 19.46875 z M 27.972656 19.490234 C 28.625492 19.458043 29.312066 19.592676 29.949219 19.914062 C 30.507329 20.19558 30.632574 20.221074 30.810547 20.085938 C 30.925252 19.998838 31.059875 19.925928 31.109375 19.923828 C 31.158875 19.921728 31.199219 20.594922 31.199219 21.419922 C 31.199219 22.311184 31.153292 22.919922 31.083984 22.919922 C 31.019824 22.919922 30.876683 22.609969 30.767578 22.230469 C 30.279496 20.532731 29.541909 19.800781 28.320312 19.800781 C 27.533828 19.800781 26.864978 20.140978 26.501953 20.726562 C 26.280742 21.083393 26.22134 21.351312 26.220703 21.980469 C 26.219983 22.668657 26.26146 22.824851 26.519531 23.101562 C 26.893303 23.502336 27.451957 23.789529 28.373047 24.054688 C 29.877252 24.487713 31.008844 25.284975 31.335938 26.142578 C 31.402368 26.316746 31.460345 26.795692 31.462891 27.205078 C 31.470991 28.501839 30.850109 29.393006 29.644531 29.818359 C 28.98773 30.050091 27.693707 30.13978 27.033203 30 C 26.754004 29.94091 26.272203 29.781354 25.962891 29.644531 L 25.400391 29.396484 L 25.128906 29.650391 C 24.659284 30.091577 24.574528 29.865822 24.619141 28.287109 C 24.664621 26.677646 24.830859 26.354757 25.068359 27.416016 C 25.267099 28.304083 25.848824 29.13645 26.509766 29.482422 C 27.137559 29.81104 28.29232 29.85927 28.951172 29.583984 C 30.099954 29.103993 30.588858 27.507298 29.867188 26.589844 C 29.552388 26.18964 29.192092 26.006556 27.703125 25.488281 C 25.517384 24.727474 25.025118 24.179367 25.021484 22.5 C 25.019684 21.659536 25.063209 21.468114 25.361328 20.960938 C 25.889261 20.062778 26.884596 19.543887 27.972656 19.490234 z "
       id="circle856" />
  </g>
</svg>
