<?xml version="1.0" encoding="UTF-8"?>
<svg viewBox="0 0 48 48" xmlns="http://www.w3.org/2000/svg">
  <path
     id="XMLID_996_"
     style="fill:#ffffff;stroke-width:0.0623609"
     d="m 15.986387,8.5738524 c 1.453009,0.5113594 3.835196,1.4405366 5.08865,2.5692686 l 9.15458,-0.09354 c 0.25568,-0.324277 0.349221,-0.455234 0.629845,-0.823164 0.661026,-0.8855245 0.698442,-1.7897576 -0.710914,-1.8022298 -0.754567,-0.012472 -12.665499,0.037417 -14.056147,0.056125 -0.212027,-0.012472 -0.374165,-0.012472 -0.106014,0.09354 z M 37.238982,11.454926 21.32448,11.748022 c 0.0686,0.648554 -0.629845,1.590203 -2.070381,2.475728 -0.742095,0.455235 -2.425839,1.359468 -8.400014,3.623168 -0.08107,0.02495 -0.03742,0.118486 0.01247,0.106014 10.326965,-2.619158 17.180427,-4.571054 26.372424,-6.323396 0.28686,-0.04989 0.461471,-0.17461 0,-0.17461 z m -9.597342,2.831185 -14.268174,3.60446 c -0.02495,0.01247 -0.05612,0.05612 0.02494,0.05612 L 24.448758,17.59747 c 0.673497,-0.02494 1.159912,-0.567485 1.415592,-0.904233 l 1.80223,-2.34477 c 0.04365,-0.03742 0.04365,-0.09354 -0.02494,-0.06236 z M 16.647413,25.966307 h 0.848108 l -2.045437,-4.764372 h -0.835636 l -2.032966,4.764372 h 0.841872 L 13.8287,24.981005 h 2.413367 z m -1.615147,-3.941208 0.941649,2.2637 H 14.103088 Z M 8.4023438,21.201172 v 4.765625 0.01172 H 11.677734 V 25.28125 H 9.1699219 v -4.080078 z m 21.0290532,9.248884 c 0,-1.384412 -1.022718,-2.463255 -2.475727,-2.463255 -1.453009,0 -2.475728,1.066371 -2.475728,2.463255 0,1.40312 1.022719,2.463256 2.475728,2.463256 0.218263,0 0.417818,-0.02494 0.6049,-0.0686 l 0.349222,0.848108 H 28.7579 l -0.498887,-1.11626 c 0.729622,-0.43029 1.172384,-1.209802 1.172384,-2.126507 z M 26.95567,32.21487 c -1.035191,0 -1.708689,-0.767039 -1.708689,-1.764814 0,-0.997774 0.661026,-1.764813 1.708689,-1.764813 1.035191,0 1.708688,0.767039 1.708688,1.764813 0,0.604901 -0.255679,1.128732 -0.685969,1.453009 l -0.187083,-0.442762 h -0.810692 l 0.311805,0.729622 c -0.118486,0.01247 -0.230736,0.02494 -0.336749,0.02494 z m 10.12741,4.726956 v -1.309579 h 2.594213 v -0.698442 h -3.361252 v 4.783081 h 3.392433 V 39.012208 H 37.08308 v -1.37194 h 2.032965 v -0.698442 z m -8.350125,-2.008021 -2.032965,4.783081 h 0.848108 l 0.405346,-0.985302 h 2.394659 l 0.405346,0.985302 h 0.848108 l -2.032966,-4.764373 h -0.835636 z m -0.511359,3.099337 0.929177,-2.263701 0.929178,2.263701 z M 15.337834,34.840263 c -1.453009,0 -2.475728,1.066372 -2.475728,2.463256 0,1.384412 1.022719,2.463256 2.475728,2.463256 1.453009,0 2.475728,-1.066372 2.475728,-2.463256 0.01871,-1.396884 -1.022719,-2.463256 -2.475728,-2.463256 z m 0,4.215597 c -1.035191,0 -1.708689,-0.767039 -1.708689,-1.764813 0,-0.997775 0.661026,-1.764814 1.708689,-1.764814 1.035191,0 1.708689,0.767039 1.708689,1.764814 0,0.997774 -0.65479,1.764813 -1.708689,1.764813 z m 5.37551,-2.157687 c -0.835636,-0.149666 -1.253454,-0.268152 -1.240982,-0.661025 0.01247,-0.361694 0.311804,-0.629845 0.835636,-0.68597 0.118486,-0.01247 0.243207,-0.01247 0.374165,0 0.43029,0.02494 0.873053,0.187082 1.159913,0.43029 0.02494,0.01247 0.0686,0.03742 0.08107,0.0686 l 0.417818,-0.604901 c -0.392874,-0.349221 -1.078843,-0.592428 -1.764813,-0.592428 -1.11626,0 -1.870827,0.6049 -1.8833,1.440536 -0.02494,0.985303 0.873053,1.184858 1.708689,1.334524 0.94165,0.17461 1.37194,0.268152 1.359468,0.68597 -0.01247,0.392873 -0.349221,0.710914 -1.035191,0.754566 -0.09354,0 -0.174611,0 -0.268152,0 -0.617373,-0.03742 -1.103788,-0.243207 -1.440537,-0.567484 -0.02494,-0.02494 -0.05612,-0.03742 -0.08107,-0.0686 l -0.43029,0.617373 c 0.498887,0.473943 1.184857,0.729623 2.032965,0.729623 1.222274,0 1.964368,-0.604901 1.989313,-1.496662 0.03742,-1.060135 -0.916705,-1.222273 -1.814702,-1.384412 z m 14.767061,2.114035 h -2.195104 v -4.078403 h -0.754567 v 4.783081 h 2.949671 z m -10.033869,0.704678 v -4.084639 h 1.471717 v -0.698442 h -3.691765 v 0.698442 h 1.471717 v 0.01871 4.065931 z M 10.492392,34.933805 h -2.08909 v 4.783081 H 9.1703411 V 37.964545 H 10.36767 c 0.03742,0 0.218263,0 0.25568,-0.01247 0.848108,-0.05612 1.428065,-0.698442 1.428065,-1.509133 0,-0.835636 -0.617373,-1.509134 -1.559023,-1.509134 z m -0.0686,2.332297 H 9.1765772 v -1.627619 h 1.2534538 c 0.486415,0 0.860581,0.336749 0.860581,0.823164 -0.0062,0.467707 -0.380402,0.804455 -0.866817,0.804455 z m 25.767614,-9.197743 v 4.763672 0.0059 h 3.511719 v -0.697266 h -2.744141 v -1.373047 h 2.150391 v -0.697266 h -2.150391 v -1.304687 h 2.71875 v -0.697266 z m -5.574218,0 v 2.867188 c 0,1.290871 0.846908,1.978515 2.08789,1.978515 1.253454,0 2.089844,-0.675172 2.089844,-1.978515 v -2.867188 h -0.767578 v 2.855469 c 0,0.848108 -0.499102,1.291016 -1.322266,1.291016 -0.810692,0 -1.322266,-0.442908 -1.322266,-1.291016 v -2.855469 z m -11.613282,0 v 4.763672 h 0.767578 v -3.541015 l 2.732422,3.541015 h 0.716797 v -4.763672 h -0.767578 v 3.486329 l -2.707031,-3.486329 z m -3.828125,0 -2.033203,4.763672 h 0.847656 l 0.40625,-0.984375 h 2.394532 l 0.404296,0.984375 h 0.84961 l -2.033203,-4.763672 z m 0.417969,0.822266 0.941406,2.263672 H 14.664062 Z M 8.4023438,28.068359 v 4.763672 h 2.6445312 c 0.835636,0 1.373047,-0.523976 1.373047,-1.291015 0,-0.604901 -0.40661,-1.065862 -0.917969,-1.171875 0.386637,-0.130958 0.699219,-0.510571 0.699219,-1.046875 0,-0.698442 -0.511267,-1.253907 -1.359375,-1.253907 z m 0.7734374,0.697266 h 1.5605468 c 0.43029,0 0.685547,0.269236 0.685547,0.662109 0,0.392874 -0.256387,0.660157 -0.667969,0.660157 H 9.1757812 Z m 0,2.007813 h 1.7539068 c 0.442762,-10e-7 0.710937,0.294626 0.710937,0.6875 0,0.417817 -0.275165,0.685546 -0.699219,0.685546 H 9.1757812 Z M 4.9734526,4.9818645 H 43.138324 V 43.146736 H 4.9734526 Z" />
  <path
     style="fill:#c8b7b7;stroke-width:0.0623609"
     inkscape:connector-curvature="0"
     id="XMLID_1033_-3"
     d="m 75.433479,68.987626 c 0,-0.392873 -0.25568,-0.661025 -0.68597,-0.661025 h -1.559023 v 1.322051 h 1.577731 c 0.411582,0 0.667262,-0.268152 0.667262,-0.661026 z m 0.218263,2.032966 c 0,-0.392874 -0.268152,-0.68597 -0.710915,-0.68597 h -1.752341 v 1.37194 H 74.9533 c 0.424054,0 0.698442,-0.268152 0.698442,-0.68597 z m -3.236531,-3.392433 h 2.438311 c 0.848108,0 1.359468,0.555012 1.359468,1.253454 0,0.536304 -0.311805,0.916705 -0.698442,1.047663 0.511359,0.106013 0.916705,0.567484 0.916705,1.172385 0,0.767039 -0.536304,1.29087 -1.37194,1.29087 h -2.644102 z" />
  <path
     style="fill:#c8b7b7;stroke-width:0.0623609"
     inkscape:connector-curvature="0"
     id="XMLID_1030_-6"
     d="m 79.605423,68.451323 -0.929178,2.2637 h 1.870827 z m 1.602675,3.941208 -0.405346,-0.985302 h -2.394659 l -0.405345,0.985302 h -0.848109 l 2.032966,-4.764372 h 0.835636 l 2.032965,4.764372 z" />
  <path
     style="fill:#c8b7b7;stroke-width:0.0623609"
     inkscape:connector-curvature="0"
     id="XMLID_1028_-7"
     d="m 86.515005,72.392531 -2.7314,-3.542099 v 3.542099 h -0.76704 v -4.764372 h 0.74209 l 2.70647,3.485974 v -3.485974 h 0.76704 v 4.764372 z" />
  <path
     style="fill:#c8b7b7;stroke-width:0.0623609"
     inkscape:connector-curvature="0"
     id="XMLID_1026_-5"
     d="m 94.628165,70.49676 v -2.868601 h 0.76704 v 2.856129 c 0,0.848108 0.51136,1.290871 1.32205,1.290871 0.82316,0 1.32205,-0.442763 1.32205,-1.290871 v -2.856129 h 0.76704 v 2.868601 c 0,1.303343 -0.83564,1.976841 -2.08909,1.976841 -1.24098,0 -2.08909,-0.68597 -2.08909,-1.976841 z" />
  <path
     style="fill:#c8b7b7;stroke-width:0.0623609"
     inkscape:connector-curvature="0"
     id="XMLID_1024_-3"
     d="m 100.20322,72.392531 v -4.764372 h 3.48598 v 0.698442 h -2.71894 v 1.303343 h 2.15145 v 0.698442 h -2.15145 v 1.371939 h 2.74388 v 0.698443 h -3.51092 z" />
  <path
     style="fill:#c8b7b7;stroke-width:0.0623609"
     inkscape:connector-curvature="0"
     id="XMLID_1018_-5"
     d="m 74.504301,74.494094 h -2.08909 v 4.783081 h 0.767039 v -1.752341 h 1.197329 c 0.03742,0 0.218263,0 0.25568,-0.01247 0.848108,-0.05612 1.428065,-0.698442 1.428065,-1.509133 0,-0.835636 -0.617373,-1.509134 -1.559023,-1.509134 z m -0.0686,2.332297 h -1.247215 v -1.627619 h 1.253454 c 0.486415,0 0.860581,0.336749 0.860581,0.823164 -0.0062,0.467707 -0.380402,0.804455 -0.866817,0.804455 z" />
  <polygon
     style="fill:#c8b7b7"
     id="XMLID_1017_-6"
     points="292.7,581.5 316.3,581.5 316.3,581.8 316.3,647 328.3,647 328.3,581.5 351.9,581.5 351.9,570.3 292.7,570.3 "
     transform="matrix(0.0623609,0,0,0.0623609,68.985361,38.929672)" />
  <polygon
     style="fill:#c8b7b7"
     id="XMLID_1016_-2"
     points="489.2,647 489.2,635.7 454,635.7 454,570.3 441.9,570.3 441.9,647 "
     transform="matrix(0.0623609,0,0,0.0623609,68.985361,38.929672)" />
  <path
     style="fill:#c8b7b7;stroke-width:0.0623609"
     inkscape:connector-curvature="0"
     id="XMLID_1015_-9"
     d="m 84.725255,76.458462 c -0.83564,-0.149666 -1.25346,-0.268152 -1.24098,-0.661025 0.0125,-0.361694 0.3118,-0.629845 0.83563,-0.68597 0.11849,-0.01247 0.24321,-0.01247 0.37417,0 0.43029,0.02494 0.87305,0.187082 1.15991,0.43029 0.0249,0.01247 0.0686,0.03742 0.0811,0.0686 l 0.41782,-0.604901 c -0.39288,-0.349221 -1.07885,-0.592428 -1.76482,-0.592428 -1.11626,0 -1.87082,0.6049 -1.8833,1.440536 -0.0249,0.985303 0.87306,1.184858 1.70869,1.334524 0.94165,0.17461 1.37194,0.268152 1.35947,0.68597 -0.0125,0.392873 -0.34922,0.710914 -1.03519,0.754566 -0.0935,0 -0.17461,0 -0.26815,0 -0.61737,-0.03742 -1.10379,-0.243207 -1.44054,-0.567484 -0.0249,-0.02494 -0.0561,-0.03742 -0.0811,-0.0686 l -0.43029,0.617373 c 0.49889,0.473943 1.18486,0.729623 2.03297,0.729623 1.22227,0 1.96436,-0.604901 1.98931,-1.496662 0.0374,-1.060135 -0.91671,-1.222273 -1.8147,-1.384412 z" />
  <path
     style="fill:#c8b7b7;stroke-width:0.0623609"
     inkscape:connector-curvature="0"
     id="XMLID_1012_-1"
     d="m 79.349743,74.400552 c -1.453009,0 -2.475728,1.066372 -2.475728,2.463256 0,1.384412 1.022719,2.463256 2.475728,2.463256 1.453009,0 2.475728,-1.066372 2.475728,-2.463256 0.01871,-1.396884 -1.022719,-2.463256 -2.475728,-2.463256 z m 0,4.215597 c -1.035191,0 -1.708689,-0.767039 -1.708689,-1.764813 0,-0.997775 0.661026,-1.764814 1.708689,-1.764814 1.035191,0 1.708689,0.767039 1.708689,1.764814 0,0.997774 -0.65479,1.764813 -1.708689,1.764813 z" />
  <path
     style="fill:#c8b7b7;stroke-width:0.0623609"
     inkscape:connector-curvature="0"
     id="XMLID_1009_-2"
     d="m 92.744865,74.494094 -2.03297,4.783081 h 0.84811 l 0.40535,-0.985302 h 2.39466 l 0.40534,0.985302 h 0.84811 l -2.03297,-4.764373 h -0.83563 z m -0.51136,3.099337 0.92918,-2.263701 0.92917,2.263701 z" />
  <polygon
     style="fill:#c8b7b7"
     id="XMLID_1008_-7"
     points="502.6,647 557,647 557,635.7 514.9,635.7 514.9,613.7 547.5,613.7 547.5,602.5 514.9,602.5 514.9,581.5 556.5,581.5 556.5,570.3 502.6,570.3 "
     transform="matrix(0.0623609,0,0,0.0623609,68.985361,38.929672)" />
  <path
     style="fill:#c8b7b7;stroke-width:0.0623609"
     inkscape:connector-curvature="0"
     id="XMLID_18_-0"
     d="m 93.443305,70.010345 c 0,-1.384412 -1.02272,-2.463255 -2.47573,-2.463255 -1.45301,0 -2.47572,1.066371 -2.47572,2.463255 0,1.40312 1.02271,2.463256 2.47572,2.463256 0.21827,0 0.41782,-0.02494 0.6049,-0.0686 l 0.34923,0.848108 h 0.8481 l -0.49888,-1.11626 c 0.72962,-0.43029 1.17238,-1.209802 1.17238,-2.126507 z m -2.47573,1.764814 c -1.03519,0 -1.70869,-0.767039 -1.70869,-1.764814 0,-0.997774 0.66103,-1.764813 1.70869,-1.764813 1.03519,0 1.70869,0.767039 1.70869,1.764813 0,0.604901 -0.25568,1.128732 -0.68597,1.453009 l -0.18708,-0.442762 h -0.81069 l 0.3118,0.729622 c -0.11848,0.01247 -0.23073,0.02494 -0.33675,0.02494 z" />
  <path
     style="fill:#c8b7b7;stroke-width:0.0623609"
     inkscape:connector-curvature="0"
     id="XMLID_1004_-9"
     d="m 72.415211,65.526596 v -4.764372 h 0.767039 v 4.078402 h 2.506908 v 0.698443 h -3.273947 z" />
  <path
     style="fill:#c8b7b7;stroke-width:0.0623609"
     inkscape:connector-curvature="0"
     id="XMLID_1001_-3"
     d="m 79.044175,61.585388 -0.929178,2.2637 h 1.870827 z m 1.615147,3.941208 -0.405346,-0.985302 h -2.413367 l -0.405346,0.985302 h -0.841872 l 2.032966,-4.764372 h 0.835636 l 2.045437,4.764372 z" />
  <path
     d="m 79.998296,48.134141 c 1.453009,0.511359 3.835199,1.440537 5.088649,2.569269 l 9.15458,-0.09354 c 0.25568,-0.324277 0.34922,-0.455234 0.62985,-0.823164 0.66102,-0.885525 0.69844,-1.789758 -0.71092,-1.80223 -0.75457,-0.01247 -12.665497,0.03742 -14.056145,0.05612 -0.212027,-0.01247 -0.374165,-0.01247 -0.106014,0.09354 z m 21.252594,2.881074 -15.914505,0.293096 c 0.0686,0.648554 -0.62984,1.590203 -2.07038,2.475728 -0.74209,0.455235 -2.425836,1.359468 -8.400011,3.623168 -0.08107,0.02495 -0.03742,0.118486 0.01247,0.106014 10.326961,-2.619158 17.180431,-4.571054 26.372416,-6.323396 0.28686,-0.04989 0.46147,-0.17461 0,-0.17461 z m -9.597345,2.831185 -14.26817,3.60446 c -0.02495,0.01247 -0.05612,0.05612 0.02494,0.05612 l 11.05035,-0.349221 c 0.6735,-0.02494 1.15991,-0.567485 1.41559,-0.904233 l 1.80223,-2.34477 c 0.0436,-0.03742 0.0436,-0.09354 -0.0249,-0.06236 z"
     id="XMLID_996_-6"
     inkscape:connector-curvature="0"
     style="fill:#c8b7b7;stroke-width:0.0623609" />
</svg>
