<?xml version="1.0" encoding="utf-8"?>
<!-- Generator: Adobe Illustrator 21.1.0, SVG Export Plug-In . SVG Version: 6.00 Build 0)  -->
<svg version="1.0" id="Layer_1" xmlns="http://www.w3.org/2000/svg" xmlns:xlink="http://www.w3.org/1999/xlink" x="0px" y="0px"
	 viewBox="0 0 48 48" style="enable-background:new 0 0 48 48;" xml:space="preserve">
<style type="text/css">
	.st0{fill:#FFFFFF;}
</style>
<g>
	<path class="st0" d="M24.5,19.4c1-1.4,1.9-2.7,2.8-4.1c0.1-0.1,0-0.4,0-0.5c-0.2-0.5-0.4-0.9-0.6-1.4c-0.2-0.4,0-0.7,0.5-0.7
		c0.5,0,0.7-0.2,0.8-0.6c0.4-1.1,0.4-1.1-0.5-1.9C27,9.9,27,9.9,26.8,10.5c-0.6,1.7-1.1,3.4-1.8,5C24.5,16.7,24.4,17.9,24.5,19.4z"
		/>
	<path class="st0" d="M24,15.5c0.7-2,1.3-3.8,1.9-5.6c0.1-0.3,0-0.4-0.3-0.4c-1.1,0-2.2,0-3.3,0C22,9.6,22,9.7,22.1,10
		C22.7,11.8,23.3,13.6,24,15.5z"/>
	<path class="st0" d="M20.2,12.4c0.1,0.3,0.2,0.3,0.5,0.3c0.8,0.1,0.9,0.2,0.6,1c-0.2,0.5-0.6,1-0.6,1.5c0,0.5,0.5,0.9,0.8,1.4
		c0.6,0.9,1.3,1.9,1.9,2.8c0,0,0.1,0,0.1-0.1c-0.1-1,0.1-2-0.3-3c-0.5-1.2-0.9-2.5-1.3-3.8c-0.3-0.7-0.5-1.5-0.7-2.2
		C21.1,10,21,10,20.7,10.2c-1,0.8-1,0.8-0.6,2C20.1,12.2,20.2,12.3,20.2,12.4z"/>
	<path class="st0" d="M36.1,17.7c-1.7-1.9-3.4-3.7-5.2-5.5c-0.3-0.3-0.8-0.5-1.3-0.7c-0.3-0.2-0.5-0.1-0.6,0.3
		c-0.1,0.5-0.3,0.9-0.5,1.4c-0.1,0.2-0.2,0.4-0.3,0.5c-0.4,0.1-0.3,0.3-0.2,0.5c0.1,0.1,0.1,0.3,0.2,0.4c0.3,0.5,0.2,0.9-0.1,1.4
		c-1.1,1.6-2.2,3.3-3.4,4.9c-0.2,0.3-0.3,0.6-0.3,0.9c0,2.5,0,4.9,0,7.4c0,2.5,0,4.9,0,7.4c0,0.2,0,0.4,0,0.5
		c-0.1,0.2-0.3,0.3-0.4,0.3c-0.2,0.1-0.4-0.1-0.5-0.4c0-0.2,0-0.4,0-0.6c0-4.9,0-9.7,0-14.6c0-0.4-0.1-0.7-0.3-1
		c-1-1.5-2.1-3-3.1-4.5c-0.8-1.1-0.8-0.9-0.2-2.1c0-0.1,0.1-0.1,0.1-0.2c0-0.1,0-0.3-0.1-0.3c-0.4-0.1-0.5-0.4-0.6-0.7
		c-0.1-0.4-0.3-0.8-0.4-1.2c-0.1-0.3-0.2-0.4-0.6-0.3c-0.6,0.2-1,0.5-1.4,0.9c-1.7,1.8-3.3,3.6-5,5.3c-0.3,0.3-0.4,0.5-0.3,0.9
		c0,1,0,2,0,2.9c0,1.3,0,2.6,0,3.9c0,0.4,0.1,0.5,0.5,0.5c0.5,0,1,0,1.4,0c0.7,0,0.7,0,0.7-0.7c0-2.3,0-4.7,0-7
		c0-0.6,0.2-0.8,0.5-0.8c0.3,0,0.5,0.2,0.5,0.8c0,0.1,0,0.3,0.1,0.4c0.1-0.1,0.2-0.1,0.3-0.2c0.5-0.5,0.9-1,1.4-1.5
		c0.1-0.1,0.4-0.2,0.6-0.2c0.1,0.1,0.3,0.3,0.3,0.5c0,0.2,0,0.4,0,0.6c-0.1,2-0.2,3.9-0.2,5.9c0,0.7,0,1.4,0,2
		c0,0.3,0.1,0.4,0.3,0.4c0.5,0,1,0,1.6,0c0.5,0,0.7,0.2,0.7,0.6c0,1.1,0,2.2,0,3.3c0,1-0.8,1.7-1.8,1.7c-0.2,0-0.4,0-0.6,0
		c-0.3,0-0.4,0.1-0.4,0.4c0,1.7-0.1,3.3-0.2,5c0,0.4,0.1,0.5,0.5,0.6c1.3,0.2,2.6,0.4,4,0.6c2.9,0.3,5.7,0,8.5-0.5
		c0.4-0.1,0.6-0.3,0.5-0.7c-0.1-1.4-0.1-2.8-0.1-4.2c0-1,0-1-1-1.1c-1.1,0-1.8-0.7-1.8-1.8c0-1,0-2.1,0-3.1c0-0.5,0.2-0.7,0.7-0.7
		c0.5,0,0.9,0,1.4,0c0.4,0,0.6-0.1,0.5-0.5c-0.1-1.1-0.1-2.1-0.1-3.2c-0.1-1.6-0.1-3.3-0.2-4.9c0-0.3-0.1-0.6,0.3-0.8
		c0.4-0.2,0.6,0.1,0.9,0.4c0.3,0.4,0.7,0.7,1,1c0.2,0.2,0.3,0.3,0.5,0.4c0-0.2,0.1-0.4,0.1-0.6c0,0,0-0.1,0-0.1
		c0.1-0.2,0.3-0.4,0.4-0.4c0.2,0,0.4,0.2,0.5,0.4c0.1,0.1,0,0.4,0,0.5c0,1.4,0,2.8,0,4.2c0,1,0,2,0,2.9c0,0.4,0.1,0.5,0.5,0.5
		c0.5,0,1.1,0,1.6,0c0.4,0,0.5-0.1,0.5-0.5c0-2.3,0-4.7,0-7C36.4,18.2,36.2,17.9,36.1,17.7z M22.1,23.4c0.3,0,0.4,0.2,0.4,0.5
		c0,0.3-0.3,0.5-0.5,0.4c-0.2-0.1-0.4-0.3-0.4-0.5C21.4,23.6,21.8,23.4,22.1,23.4z M22,28.4c0.3,0,0.5,0.2,0.5,0.5
		c0,0.3-0.2,0.5-0.5,0.5c-0.3,0-0.5-0.2-0.6-0.5C21.5,28.7,21.7,28.5,22,28.4z M22,34.6c-0.3,0-0.5-0.2-0.5-0.5
		c0-0.3,0.2-0.5,0.5-0.5c0.3,0,0.5,0.3,0.5,0.5C22.5,34.3,22.2,34.6,22,34.6z"/>
	<path class="st0" d="M41,5H7C5.9,5,5,5.9,5,7v34c0,1.1,0.9,2,2,2h34c1.1,0,2-0.9,2-2V7C43,5.9,42.1,5,41,5z M37.3,26.1
		c0,0.7-0.1,0.8-0.7,0.8c-1,0-2,0-2.9,0c-0.8,0-0.8-0.1-0.8-0.9c0-1.8,0-3.5,0-5.3c0-0.2,0-0.5-0.1-0.6c-0.5-0.6-1-1.1-1.6-1.8
		c0,0.3,0,0.4,0,0.5c0.1,3.5,0.2,7,0.4,10.4c0.1,2.8,0.2,5.5,0.3,8.3c0,0.8,0,0.8-0.8,1c-1,0.2-2.1,0.4-3.1,0.6
		c-0.7,0.1-1.3,0.2-2,0.3c-1.2,0-2.5,0-3.7,0c-0.7-0.1-1.4-0.2-2.2-0.3c-1.1-0.2-2.1-0.4-3.1-0.6c-0.6-0.1-0.6-0.2-0.6-0.8
		c0-0.5,0-1.1,0-1.6c0.2-5.8,0.4-11.6,0.6-17.3c0-0.1,0-0.1,0-0.3c-0.5,0.5-0.9,1-1.3,1.4c-0.3,0.3-0.4,0.6-0.4,1c0,1.8,0,3.6,0,5.4
		c0,0.6-0.1,0.7-0.7,0.7c-1,0-2,0-3,0c-0.7,0-0.8-0.1-0.8-0.8c0-2.6,0-5.1,0-7.7c0-0.5,0.2-0.9,0.5-1.3c1.7-1.8,3.4-3.5,5-5.3
		c0.7-0.7,1.4-1.2,2.4-1.3c0.2,0,0.4-0.1,0.6-0.2c0.7-0.5,1.3-1.1,2-1.6c2,0,3.9,0,5.9,0c0.5,0.4,0.9,0.7,1.4,1.1
		c0.5,0.4,1,0.7,1.6,0.8c0.6,0.1,1.2,0.4,1.6,0.9c1.8,2,3.7,3.9,5.5,5.9c0.2,0.2,0.3,0.5,0.3,0.9C37.3,20.8,37.3,23.4,37.3,26.1z"/>
	<path class="st0" d="M17.5,30.4c0,0.1,0,0.4,0.1,0.4c0.6,0.4,1.6-0.1,1.7-0.9c0-0.5,0-1.1,0-1.6c0-1.2,0-1.2-1.2-1.2
		c-0.4,0-0.5,0.2-0.5,0.5c0,0.5,0,0.9,0,1.4c0,0,0,0-0.1,0C17.5,29.4,17.5,29.9,17.5,30.4z"/>
	<path class="st0" d="M30.1,27.1c-0.4,0.1-0.9-0.2-1.3,0.2c0,0,0,0.1,0,0.2c0,0.8,0,1.7,0,2.5c0,0.4,0.2,0.7,0.5,0.8
		c0.3,0.1,0.5,0.1,0.8,0.1c0.3,0,0.5-0.1,0.5-0.5c0-0.4,0-0.9,0-1.4c0,0-0.1,0-0.1,0c0-0.5,0-1,0-1.6C30.5,27.2,30.4,27,30.1,27.1z"
		/>
</g>
</svg>
