<?xml version="1.0" encoding="UTF-8"?>
<svg version="1.1" viewBox="0 0 48 48" xmlns="http://www.w3.org/2000/svg">
    <path d="m 44.765521,8.140779 c 0.681866,-2.377e-4 1.234669,0.5525791 1.234431,1.2344308 6.4e-5,0.00727 6.4e-5,29.2425892 0,29.2495802 2.41e-4,0.681866 -0.552579,1.234669 -1.234431,1.234431 -0.681865,2.42e-4 -1.234668,-0.552579 -1.23443,-1.234431 -6.5e-5,-0.0073 -6.5e-5,-29.2425887 0,-29.2495802 C 43.53085,8.6933441 44.08367,8.1405273 44.765521,8.140779 Z M 7.3610715,18.606194 c 2.9607425,2.33e-4 5.3608395,2.40033 5.3610715,5.361072 -2.32e-4,2.960742 -2.400329,5.360839 -5.3610715,5.361071 -2.960742,-2.32e-4 -5.3608397,-2.400329 -5.3610714,-5.361071 2.317e-4,-2.960742 2.4003294,-5.360839 5.3610714,-5.361072 z m 13.6251475,0 c 2.960742,2.33e-4 5.36084,2.40033 5.361072,5.361072 -2.32e-4,2.960742 -2.40033,5.360839 -5.361072,5.361071 -2.960742,-2.32e-4 -5.360839,-2.400329 -5.361071,-5.361071 2.32e-4,-2.960742 2.400329,-5.360839 5.361071,-5.361072 z m 13.625148,0 c 2.960742,2.33e-4 5.360839,2.40033 5.361071,5.361072 -2.32e-4,2.960742 -2.400329,5.360839 -5.361071,5.361071 -2.960742,-2.32e-4 -5.360839,-2.400329 -5.361072,-5.361071 2.33e-4,-2.960742 2.40033,-5.360839 5.361072,-5.361072 z" fill="#fff"/>
</svg>
