<?xml version="1.0" encoding="UTF-8"?>
<svg width="48" height="48" viewBox="0 0 48 48" xmlns="http://www.w3.org/2000/svg">
    <defs>
        <style>.cls-1{fill:#fff;}</style>
    </defs>
    <path class="cls-1"
    d="m 36.497125,12.360383 c 4.877955,0 7.844089,1.771246 8.237699,6.058786 l -4.79361,0.590416 c -0.22492,-2.080512 -1.405751,-2.923962 -3.753355,-2.923962 -2.347603,0 -3.387859,0.955911 -3.387859,2.586581 0,1.630671 0.632588,2.291374 2.727157,2.811502 l 3.064536,0.702875 c 4.104793,0.941854 6.311821,2.99425 6.311821,6.846007 -0.01364,0.07907 -0.01364,0.159903 0,0.238977 h -4.84984 c 0,-1.321405 -0.829393,-2.361661 -3.261342,-2.938019 l -3.247284,-0.857508 c -4.00639,-0.95591 -5.623003,-3.022364 -5.623003,-6.283706 0.05623,-5.201278 4.273482,-6.831949 8.57508,-6.831949 z M 2,23.704792 V 23.283067 C 2,15.748243 5.6549521,11.30607 12.641534,11.277955 v 3.8377 c -2.8115021,0.140575 -5.6230036,2.277316 -5.6230036,8.01278 v 0.576357 z m 9.095208,11.611502 C 6.0626198,34.472843 3.2370607,30.860064 3.0964856,24.745048 H 8.143131 c -0.063329,2.38808 1.037579,4.658042 2.952077,6.086901 z m 3.809584,1.405751 h -1.321405 c -0.663146,-0.0013 -1.325414,-0.04829 -1.982109,-0.140575 v -4.161023 c 0.684893,0.341998 1.441554,0.5155 2.207029,0.506071 0.366539,-0.0024 0.732638,-0.02588 1.096485,-0.07029 z m 0.520128,-1.405751 v -3.865815 c 1.736746,-0.423429 3.3227,-1.318567 4.582748,-2.586581 l 1.518211,4.217252 c -1.742772,1.395242 -3.872991,2.219842 -6.100959,2.361662 z m 19.286901,0.154633 c -8.069009,-0.07029 -10.894569,-3.78147 -12.412779,-8.434505 l -1.546326,-4.79361 c -1.138658,-3.50032 -2.488179,-6.213419 -6.705432,-6.213419 h -0.238977 v -3.61278 h 0.0984 c 6.353994,0 9.573163,2.249202 11.583387,8.434505 l 1.574441,4.765495 c 1.110543,3.38786 3.022364,5.876039 7.647284,6.044729 z m 1.335463,1.096485 H 35.808307 V 32.8 h 0.351437 c 3.233227,0 4.934186,-0.702875 4.934186,-2.488179 H 46 c -0.11246,4.610863 -4.104792,6.410224 -9.952716,6.410224 z"/>
</svg>
