<?xml version="1.0" encoding="UTF-8"?>
<svg xmlns="http://www.w3.org/2000/svg" version="1.1" viewBox="0 0 48 48">
   <path style="fill:#fff" d="M 24 2 A 22 22 0 0 0 2 24 A 22 22 0 0 0 24 46 A 22 22 0 0 0 46 24 A 22 22 0 0 0 24 2 z M 38.849609 12.658203 C 39.337244 12.658033 39.732594 13.053381 39.732422 13.541016 C 39.732468 13.546224 39.732468 34.453784 39.732422 34.458984 C 39.732594 34.946619 39.337244 35.341969 38.849609 35.341797 C 38.361974 35.34197 37.966625 34.946619 37.966797 34.458984 C 37.966751 34.453774 37.966751 13.546216 37.966797 13.541016 C 37.966625 13.053381 38.361974 12.658027 38.849609 12.658203 z M 12.099609 20.142578 A 3.8343272 3.8343272 0 0 1 15.933594 23.976562 A 3.8343272 3.8343272 0 0 1 12.099609 27.810547 A 3.8343272 3.8343272 0 0 1 8.265625 23.976562 A 3.8343272 3.8343272 0 0 1 12.099609 20.142578 z M 21.84375 20.142578 A 3.8343272 3.8343272 0 0 1 25.677734 23.976562 A 3.8343272 3.8343272 0 0 1 21.84375 27.810547 A 3.8343272 3.8343272 0 0 1 18.009766 23.976562 A 3.8343272 3.8343272 0 0 1 21.84375 20.142578 z M 31.587891 20.142578 A 3.8343272 3.8343272 0 0 1 35.421875 23.976562 A 3.8343272 3.8343272 0 0 1 31.587891 27.810547 A 3.8343272 3.8343272 0 0 1 27.753906 23.976562 A 3.8343272 3.8343272 0 0 1 31.587891 20.142578 z "/>
</svg>
