<?xml version="1.0" encoding="UTF-8"?>
<svg width="48" height="48" viewBox="0 0 48 48" xmlns="http://www.w3.org/2000/svg">
  <path d="M 24 2 C 23.900699 2.00018 23.802191 2.0146038 23.707031 2.0429688 L 5.5625 7.4414062 C 5.125024 7.5722416 4.8241456 7.9750196 4.8242188 8.4316406 L 4.8242188 26.296875 C 4.8242187 31.508055 6.913016 35.727276 10.318359 38.933594 C 13.723703 42.139913 18.402881 44.384793 23.707031 45.957031 C 23.802196 45.985391 23.90069 45.99982 24 46 C 24.099301 45.99982 24.197809 45.985391 24.292969 45.957031 C 29.597119 44.384793 34.276297 42.139913 37.681641 38.933594 C 41.087123 35.727276 43.175781 31.508193 43.175781 26.296875 L 43.175781 8.4316406 C 43.175854 7.9750196 42.874976 7.5722401 42.4375 7.4414062 L 24.292969 2.0429688 C 24.197805 2.0146038 24.09931 2.0001807 24 2 z M 35.117188 15.509766 C 35.482225 15.509639 35.777468 15.806838 35.777344 16.171875 C 35.777379 16.175775 35.777379 31.823993 35.777344 31.828125 C 35.777474 32.193163 35.482239 32.490358 35.117188 32.490234 C 34.75215 32.490368 34.456907 32.193163 34.457031 31.828125 C 34.456997 31.824225 34.456997 16.176007 34.457031 16.171875 C 34.456903 15.806838 34.75215 15.509628 35.117188 15.509766 z M 15.09375 21.113281 C 16.677944 21.113279 17.96137 22.396276 17.962891 23.980469 C 17.962891 25.565738 16.679018 26.851564 15.09375 26.851562 C 13.508481 26.851562 12.222656 25.565738 12.222656 23.980469 C 12.224156 22.396276 13.509555 21.113279 15.09375 21.113281 z M 22.386719 21.113281 C 23.970914 21.113279 25.254339 22.396276 25.255859 23.980469 C 25.255859 25.565738 23.971988 26.851564 22.386719 26.851562 C 20.801451 26.851562 19.515625 25.565738 19.515625 23.980469 C 19.517125 22.396276 20.802525 21.113279 22.386719 21.113281 z M 29.681641 21.113281 C 31.265835 21.113279 32.551213 22.396276 32.552734 23.980469 C 32.552734 25.565738 31.26691 26.851564 29.681641 26.851562 C 28.096372 26.851562 26.810547 25.565738 26.810547 23.980469 C 26.812047 22.396276 28.097446 21.113279 29.681641 21.113281 z " fill="#fff"/>
</svg>
