<?xml version="1.0" encoding="UTF-8"?>
<svg viewBox="0 0 48 48" xmlns="http://www.w3.org/2000/svg">
  <path d="m 23.99978,2.000001 c 0.09931,1.807e-4 0.198058,0.014677 0.293222,0.043042 l 18.145125,5.3990493 c 0.437476,0.1308339 0.737173,0.5333447 0.7371,0.9899657 v 17.865524 c 0,5.211318 -2.087778,9.429157 -5.49326,12.635475 -3.405344,3.206319 -8.084594,5.451664 -13.388744,7.023902 -0.09516,0.02836 -0.193922,0.04286 -0.293223,0.04304 -0.09931,-1.8e-4 -0.198058,-0.01468 -0.293223,-0.04304 -5.30415,-1.572238 -9.9834,-3.817583 -13.388744,-7.023902 C 6.9126884,35.726739 4.8247732,31.508762 4.8247732,26.297582 V 8.432058 C 4.8247002,7.975437 5.1243964,7.5729276 5.5618724,7.4420923 L 23.706998,2.043043 c 0.09516,-0.028365 0.193921,-0.042862 0.293222,-0.043042 z m 0,2.1117433 L 6.8904168,9.201442 v 17.095589 c 0,4.672363 1.7777374,8.246432 4.8421892,11.131692 2.999441,2.824105 7.297167,4.921799 12.264281,6.42944 h 0.0028 0.0028 c 4.967252,-1.507641 9.264839,-3.605335 12.264281,-6.42944 3.064451,-2.885397 4.842189,-6.459467 4.842189,-11.131692 V 9.201442 L 23.999504,4.1117443 Z M 35.118111,15.509814 c 0.365037,-1.27e-4 0.65921,0.296735 0.659086,0.661772 3.5e-5,0.0039 3.5e-5,15.652133 0,15.656265 1.3e-4,0.365038 -0.294035,0.661896 -0.659086,0.661772 -0.365038,1.34e-4 -0.661897,-0.296734 -0.661773,-0.661772 -3.4e-5,-0.0039 -3.4e-5,-15.652133 0,-15.656265 -1.28e-4,-0.365037 0.296735,-0.66191 0.661773,-0.661772 z m -20.025199,5.603585 c 1.584194,-2e-6 2.868863,1.283436 2.870384,2.867629 0,1.585269 -1.285116,2.870384 -2.870384,2.870384 -1.585269,0 -2.870385,-1.285115 -2.870385,-2.870384 0.0015,-1.584193 1.28619,-2.867631 2.870385,-2.867629 z m 7.292896,0 c 1.584195,-2e-6 2.868864,1.283436 2.870384,2.867629 0,1.585269 -1.285115,2.870384 -2.870384,2.870384 -1.585268,0 -2.870384,-1.285115 -2.870384,-2.870384 0.0015,-1.584193 1.28619,-2.867631 2.870384,-2.867629 z m 7.295652,0 c 1.584194,-2e-6 2.868863,1.283436 2.870384,2.867629 0,1.585269 -1.285115,2.870384 -2.870384,2.870384 -1.585269,0 -2.870384,-1.285115 -2.870384,-2.870384 0.0015,-1.584193 1.286189,-2.867631 2.870384,-2.867629 z" fill="#fff"/>
</svg>
