<?xml version="1.0" encoding="UTF-8"?>
<svg xmlns="http://www.w3.org/2000/svg" version="1.1" viewBox="0 0 48 48">
   <path style="fill:#fff" d="M 24 2 A 22 22 0 0 0 2 24 A 22 22 0 0 0 24 46 A 22 22 0 0 0 46 24 A 22 22 0 0 0 24 2 z M 24 8.0273438 A 0.75007506 0.75007506 0 0 1 24.212891 8.0585938 L 37.386719 11.978516 A 0.75007506 0.75007506 0 0 1 37.921875 12.697266 L 37.921875 25.667969 C 37.921875 29.451535 36.406038 32.513867 33.933594 34.841797 C 31.461151 37.169727 28.063866 38.799927 24.212891 39.941406 A 0.75007506 0.75007506 0 0 1 24 39.972656 A 0.75007506 0.75007506 0 0 1 23.787109 39.941406 C 19.936134 38.799927 16.538849 37.169727 14.066406 34.841797 C 11.593962 32.513867 10.078125 29.451535 10.078125 25.667969 L 10.078125 12.697266 A 0.75007506 0.75007506 0 0 1 10.613281 11.978516 L 23.787109 8.0585938 A 0.75007506 0.75007506 0 0 1 24 8.0273438 z M 24 9.5605469 L 11.578125 13.255859 L 11.578125 25.667969 C 11.578125 29.060234 12.868845 31.655139 15.09375 33.75 C 17.271448 35.800412 20.391738 37.323379 23.998047 38.417969 L 24 38.417969 L 24.001953 38.417969 C 27.608356 37.323379 30.728552 35.800412 32.90625 33.75 C 35.131155 31.655139 36.421875 29.060234 36.421875 25.667969 L 36.421875 13.255859 L 24 9.5605469 z M 32.072266 17.835938 C 32.337299 17.835846 32.550875 18.051374 32.550781 18.316406 C 32.550806 18.319206 32.550806 29.680768 32.550781 29.683594 C 32.550875 29.948627 32.337299 30.164157 32.072266 30.164062 C 31.807233 30.164159 31.591704 29.948627 31.591797 29.683594 C 31.591772 29.680794 31.591772 18.319233 31.591797 18.316406 C 31.591704 18.051374 31.807233 17.83584 32.072266 17.835938 z M 17.533203 21.904297 A 2.0839807 2.0839807 0 0 1 19.617188 23.986328 A 2.0839807 2.0839807 0 0 1 17.533203 26.070312 A 2.0839807 2.0839807 0 0 1 15.449219 23.986328 A 2.0839807 2.0839807 0 0 1 17.533203 21.904297 z M 22.828125 21.904297 A 2.0839807 2.0839807 0 0 1 24.912109 23.986328 A 2.0839807 2.0839807 0 0 1 22.828125 26.070312 A 2.0839807 2.0839807 0 0 1 20.744141 23.986328 A 2.0839807 2.0839807 0 0 1 22.828125 21.904297 z M 28.125 21.904297 A 2.0839807 2.0839807 0 0 1 30.208984 23.986328 A 2.0839807 2.0839807 0 0 1 28.125 26.070312 A 2.0839807 2.0839807 0 0 1 26.041016 23.986328 A 2.0839807 2.0839807 0 0 1 28.125 21.904297 z "/>
</svg>