<?xml version="1.0" encoding="UTF-8" standalone="no"?>
<svg
   xmlns:dc="http://purl.org/dc/elements/1.1/"
   xmlns:cc="http://creativecommons.org/ns#"
   xmlns:rdf="http://www.w3.org/1999/02/22-rdf-syntax-ns#"
   xmlns:svg="http://www.w3.org/2000/svg"
   xmlns="http://www.w3.org/2000/svg"
   xmlns:sodipodi="http://sodipodi.sourceforge.net/DTD/sodipodi-0.dtd"
   xmlns:inkscape="http://www.inkscape.org/namespaces/inkscape"
   version="1.1"
   viewBox="0 0 48 48"
   id="svg855"
   sodipodi:docname="lawnchairsettings.svg"
   inkscape:version="0.92.4 5da689c313, 2019-01-14">
  <metadata
     id="metadata861">
    <rdf:RDF>
      <cc:Work
         rdf:about="">
        <dc:format>image/svg+xml</dc:format>
        <dc:type
           rdf:resource="http://purl.org/dc/dcmitype/StillImage" />
        <dc:title></dc:title>
      </cc:Work>
    </rdf:RDF>
  </metadata>
  <defs
     id="defs859" />
  <sodipodi:namedview
     pagecolor="#ffffff"
     bordercolor="#666666"
     borderopacity="1"
     objecttolerance="10"
     gridtolerance="10"
     guidetolerance="10"
     inkscape:pageopacity="0"
     inkscape:pageshadow="2"
     inkscape:window-width="2160"
     inkscape:window-height="1360"
     id="namedview857"
     showgrid="false"
     showguides="false"
     inkscape:snap-center="true"
     inkscape:snap-object-midpoints="true"
     inkscape:zoom="15.909903"
     inkscape:cx="25.53428"
     inkscape:cy="16.940872"
     inkscape:window-x="0"
     inkscape:window-y="44"
     inkscape:window-maximized="1"
     inkscape:current-layer="svg855" />
  <path
     style="fill:#ffffff;stroke-width:1.04999995"
     d="M 19.794922 3 C 19.269922 3 18.839859 3.3893125 18.755859 3.8828125 L 17.96875 9.4472656 C 16.69943 9.9766832 15.506178 10.672118 14.419922 11.515625 L 9.1894531 9.40625 C 8.7094974 9.2231279 8.1672663 9.4138259 7.9082031 9.8574219 L 3.7089844 17.132812 C 3.4464844 17.584312 3.5619375 18.151063 3.9609375 18.476562 L 8.3925781 21.953125 C 8.3010911 22.631908 8.2505581 23.315109 8.2441406 24 C 8.2441406 24.693 8.3085781 25.376828 8.3925781 26.048828 L 3.9609375 29.523438 C 3.5619375 29.838438 3.4464844 30.405188 3.7089844 30.867188 L 7.9082031 38.144531 C 8.1707031 38.596031 8.7169531 38.784703 9.1894531 38.595703 L 14.419922 36.484375 C 15.501422 37.313875 16.68775 38.017234 17.96875 38.552734 L 18.755859 44.119141 C 18.839859 44.612641 19.269922 45 19.794922 45 L 28.195312 45 C 28.720312 45 29.150375 44.612641 29.234375 44.119141 L 30.021484 38.552734 C 31.290804 38.023316 32.484056 37.327882 33.570312 36.484375 L 38.800781 38.595703 C 39.280737 38.778825 39.821015 38.588131 40.080078 38.144531 L 44.28125 30.867188 C 44.54375 30.415688 44.428297 29.848937 44.029297 29.523438 L 39.597656 26.048828 C 39.681656 25.376828 39.744141 24.693 39.744141 24 C 39.744141 23.307 39.681656 22.625125 39.597656 21.953125 L 44.039062 18.476562 C 44.438063 18.161562 44.553516 17.594812 44.291016 17.132812 L 40.091797 9.8574219 C 39.829297 9.4059219 39.283047 9.21725 38.810547 9.40625 L 33.582031 11.515625 C 32.500531 10.686125 31.314203 9.9827656 30.033203 9.4472656 L 29.244141 3.8828125 C 29.149641 3.3893125 28.720312 3 28.195312 3 L 19.794922 3 z M 24 13.599609 A 10.4 10.4 0 0 1 34.400391 24 A 10.4 10.4 0 1 1 24 13.599609 z M 18.125 17.371094 A 0.78553135 0.78553135 0 0 0 17.613281 18.710938 L 29.21875 30.339844 A 0.78 0.78 0 0 0 30.330078 30.339844 L 30.333984 30.316406 A 0.78472727 0.78472727 0 0 0 30.333984 29.201172 L 18.724609 17.599609 A 0.78553135 0.78553135 0 0 0 18.125 17.371094 z M 22.496094 24.322266 L 17.523438 29.314453 A 0.78945454 0.78945454 0 0 0 18.082031 30.65625 A 0.88872727 0.88872727 0 0 0 18.328125 30.619141 L 26.189453 27.990234 L 24.945312 26.746094 L 20.988281 28.037109 L 23.607422 25.417969 L 22.496094 24.322266 z M 29.980469 25.117188 A 0.78472727 0.78472727 0 0 0 29.673828 25.167969 L 27.6875 25.826172 L 28.916016 27.068359 L 30.146484 26.662109 A 0.78472727 0.78472727 0 0 0 29.980469 25.117188 z "
     id="path853" />
</svg>
