<?xml version="1.0" encoding="UTF-8"?>
<svg version="1.1" viewBox="0 0 48 48" xmlns="http://www.w3.org/2000/svg">
    <path d="m24.365 9.998c-0.95617 0.25378-1.7133 1.0008-2.5857 1.4592-5.4796 3.4444-10.992 6.8427-16.451 10.316-0.6006 0.70129-0.21859 1.7112-0.32657 2.5528 0.031558 1.4587-0.06306 2.9299 0.047051 4.3809 0.36264 0.85325 1.4441 0.9509 2.1546 1.4178 5.391 2.609 10.761 5.2697 16.165 7.8464 0.91074 0.13715 1.5687-0.71403 2.3412-1.0638 5.6371-3.4906 11.307-6.9351 16.924-10.454 0.83131-0.69314-0.03062-2.1567-1.04-1.7659-4.2278 2.5225-8.3953 5.1623-12.6 7.7299-1.8071 1.1137-3.6141 2.2274-5.4212 3.3411-5.4902-2.6725-10.98-5.3451-16.471-8.0176v-4.625c5.793-3.623 11.586-7.2461 17.379-10.869 5.2005 2.5247 10.401 5.0495 15.602 7.5742 0.09367 0.64463-0.82263 0.72406-1.2063 1.1016-5.1116 3.1367-10.223 6.2734-15.335 9.4102-4.3288-2.1128-8.6431-4.2597-12.981-6.3511-1.0175-0.36879-1.8474 1.1131-1.0013 1.788 2.7886 1.4696 5.6656 2.7938 8.4881 4.2076 1.8015 0.84829 3.5581 1.8164 5.3873 2.5904 0.89596 0.02007 1.5468-0.77064 2.3208-1.13 5.3604-3.3058 10.753-6.5653 16.093-9.8999 0.5983-0.67408 0.23784-1.6615 0.32787-2.4797-0.16761-1.0091-1.3934-1.1022-2.1142-1.5804-5.1313-2.4759-10.241-5.0043-15.386-7.4473-0.10128-0.025935-0.20646-0.036603-0.31088-0.031535z" color="#000000" color-rendering="auto" dominant-baseline="auto" fill="#fff" image-rendering="auto" shape-rendering="auto" solid-color="#000000" style="font-feature-settings:normal;font-variant-alternates:normal;font-variant-caps:normal;font-variant-ligatures:normal;font-variant-numeric:normal;font-variant-position:normal;isolation:auto;mix-blend-mode:normal;paint-order:stroke markers fill;shape-padding:0;text-decoration-color:#000000;text-decoration-line:none;text-decoration-style:solid;text-indent:0;text-orientation:mixed;text-transform:none;white-space:normal"/>
    <path d="m37.139 25.645 7.1878-1.4567-4.5317 5.7663c0.15207-1.8492-0.92608-3.5864-2.6561-4.3096z" fill="#fff" fill-rule="evenodd" stroke="#fff" stroke-linejoin="round" stroke-width=".39375"/>
</svg>
