<svg xmlns="http://www.w3.org/2000/svg" width="48" height="48" viewBox="0 0 48 48">
 <path d="m33.279 11.35c-4.9712-2.317-13.623-2.5633-18.687-0.066043-1.8678-1.6988-7.3057-4.6507-10.644-4.4772l-0.12933 0.51734c-1.0382 3.3743-1.4268 6.4915-1.0374 9.2818 0.37648 2.8157 1.5581 5.747 3.7098 7.7848l-3.0603-0.06329c-0.38935 0-0.71548 0.32337-0.71548 0.71271 1.2e-5 0.38934 0.32613 0.71546 0.71548 0.71546l3.8277 0.0633c-0.0167 0.46928-0.0014 0.9637 0.06599 1.3621l-3.9598 0.71546c-0.38934 0.0649-0.64828 0.4527-0.58338 0.84205 0.06486 0.38934 0.4527 0.64827 0.84204 0.58338l4.0891-0.776c0.12977 0.38934 0.25938 0.71137 0.45404 1.1007l-3.6323 1.6868c-0.32446 0.19467-0.51938 0.64968-0.32471 0.97413 0.19466 0.32445 0.64693 0.51938 0.97138 0.32471l3.7012-1.6868c2.6168 4.1867 6.5596 7.0258 10.77 9.0836 2.2991 1.604 5.9902 1.6467 8.5003 0.13209 4.5476-1.9743 8.377-4.9426 10.903-9.0204l3.3076 1.4915c0.38934 0.19467 0.77947-2.6e-4 0.97413-0.32471 0.19467-0.38934-2.64e-4 -0.77946-0.32471-0.97413l-3.2443-1.4915c0.19467-0.38934 0.32427-0.77742 0.45404-1.1668l3.6351 0.64667c0.38935 0.06489 0.77716-0.19404 0.84206-0.58338 0.06486-0.38934-0.19404-0.77715-0.58339-0.84205l-3.6324-0.64942c0.0768-0.51788 0.06071-0.92586 0.06323-1.4282l3.503-0.0633c0.38934 0 0.71546-0.32612 0.71546-0.71546 0-0.38934-0.32612-0.71271-0.71546-0.71271l-2.5949 0.0633c2.5364-2.6588 3.3933-5.3201 3.7644-7.8509 0.38933-2.7903 8.16e-4 -5.9047-1.0374-9.279l-0.13207-0.52006c-2.9963-0.15327-8.0808 2.2491-10.77 4.6092z" fill="#fff"/>
</svg>
