<?xml version="1.0" encoding="UTF-8" standalone="no"?>
<svg
   xmlns:dc="http://purl.org/dc/elements/1.1/"
   xmlns:cc="http://creativecommons.org/ns#"
   xmlns:rdf="http://www.w3.org/1999/02/22-rdf-syntax-ns#"
   xmlns:svg="http://www.w3.org/2000/svg"
   xmlns="http://www.w3.org/2000/svg"
   id="SVGRoot"
   version="1.1"
   viewBox="0 0 48 48"
   height="48px"
   width="48px"
   enable-background="new">
  <defs
     id="defs3732">
    <style
       id="style822">.a{fill:#3396cd;}.b{fill:#fff;}</style>
  </defs>
  <metadata
     id="metadata3735">
    <rdf:RDF>
      <cc:Work
         rdf:about="">
        <dc:format>image/svg+xml</dc:format>
        <dc:type
           rdf:resource="http://purl.org/dc/dcmitype/StillImage" />
        <dc:title></dc:title>
      </cc:Work>
    </rdf:RDF>
  </metadata>
  <g
     id="layer1"
     style="display:inline">
    <path
       style="fill:#ffffff;fill-opacity:1;stroke:none;stroke-width:0.215885;stroke-linecap:butt;stroke-linejoin:miter;stroke-miterlimit:4;stroke-dasharray:none;stroke-opacity:1"
       d="m 43.899923,31.372145 v -10.37567 c 0,0 -0.03098,-0.502859 -0.608229,-1.073345 -0.577247,-0.570487 -1.466906,-0.429342 -1.466906,-0.429342 L 26.726399,22.356046 H 21.359672 L 6.1181689,19.70846 c 0,0 -0.7300342,-0.219014 -1.3595706,0.250451 -0.6295365,0.469464 -0.8586762,1.323793 -0.8586762,1.323793 l 0.1431127,9.946332 c 0,0 4.8841544,10.046186 20.0357792,10.017889 15.151624,-0.0283 19.821109,-9.874777 19.821109,-9.874777 z"
       id="path321" />
    <path
       style="fill:#ffffff;fill-opacity:1;stroke:none;stroke-width:0.215885;stroke-linecap:butt;stroke-linejoin:miter;stroke-miterlimit:4;stroke-dasharray:none;stroke-opacity:1"
       d="m 36.760716,17.439766 c 0,0 -4.283243,-6.309157 -12.80129,-6.27415 -8.518047,0.03501 -12.548298,6.27415 -12.548298,6.27415 0,0 4.632837,0.707469 6.527139,1.214351 1.894303,0.506882 4.857406,1.619135 4.857406,1.619135 l 2.378105,0.05059 c 0,0 3.729536,-1.475406 5.666974,-1.973321 1.937438,-0.497916 5.919964,-0.910758 5.919964,-0.910758 z"
       id="path1146" />
    <path
       style="fill:#ffffff;fill-opacity:1;stroke:none;stroke-width:0.323827;stroke-linecap:butt;stroke-linejoin:miter;stroke-miterlimit:4;stroke-dasharray:none;stroke-opacity:1"
       d="M 29.069822,11.165616 V 7.7249525 l 3.440663,1.4167434 3.035879,-1.4167434 0.05059,7.3367075 c 0,0 -1.180578,-1.393018 -3.086477,-2.479301 -1.9059,-1.086282 -3.440658,-1.416743 -3.440658,-1.416743 z"
       id="path1148" />
    <path
       style="fill:#ffffff;fill-opacity:1;stroke:none;stroke-width:0.215885;stroke-linecap:butt;stroke-linejoin:miter;stroke-miterlimit:4;stroke-dasharray:none;stroke-opacity:1"
       d="m 22.854947,21.359125 2.32558,-0.01789 c 0,0 4.153199,-1.299493 6.283426,-1.811591 2.130225,-0.512099 6.485816,-1.255013 6.485816,-1.255013 0,0 0.85256,-0.270268 1.821527,-0.0253 0.968967,0.244967 1.416744,0.961362 1.416744,0.961362 l -14.635467,2.782889 -5.173643,0.0506 -14.863158,-2.643745 c 0,0 0.4788849,-0.805087 1.4926402,-1.087857 1.013756,-0.28277 2.0112698,-0.05059 2.0112698,-0.05059 0,0 4.478027,0.700542 6.620025,1.219682 2.141997,0.51914 6.21524,1.877456 6.21524,1.877456 z"
       id="path1150" />
  </g>
</svg>
