<?xml version="1.0" encoding="UTF-8"?>
<svg version="1.1" viewBox="0 0 48 48" xmlns="http://www.w3.org/2000/svg">
    <defs>
        <style>.cls-1{fill:#fff;}</style>
    </defs>
    <path class="cls-1" d="m22.822 13.072c-10.497 0.61-18.822 9.3109-18.822 19.961 0.00297 0.37792 0.016644 0.75567 0.041016 1.1328 0.435-9.6492 8.5102-17.256 18.332-17.268 0.032944-1e-6 0.064753 0.003736 0.097656 0.003906l0.35156-3.8301zm2.3555 0 0.37891 4.1152c8.6265 1.4846 15.189 8.8689 15.189 17.777l3.2539-1.9316c0-10.65-8.3252-19.351-18.822-19.961z"/>
    <path class="cls-1" d="m24 39.661c1.4648 0 2.6441-1.1793 2.6441-2.6441l-2.6441-28.678-2.6441 28.678c0 1.4648 1.1793 2.6441 2.6441 2.6441z"/>
</svg>
