<?xml version="1.0" encoding="UTF-8" standalone="no"?>
<svg width="48" height="48" viewBox="0 0 48 48" version="1.1" xmlns="http://www.w3.org/2000/svg">
    <defs>
        <style>.cls-1{fill:#fff;}</style>
    </defs>
<path
     d="M 22.822266 13.072266 C 12.325157 13.682262 4 22.38315 4 33.033203 C 4.00297 33.411119 4.0166436 33.788875 4.0410156 34.166016 C 4.4760127 24.516796 12.551265 16.910435 22.373047 16.898438 C 22.405991 16.898437 22.4378 16.902174 22.470703 16.902344 L 22.822266 13.072266 z M 25.177734 13.072266 L 25.556641 17.1875 C 34.18315 18.672079 40.745396 26.056395 40.746094 34.964844 L 44 33.033203 C 44 22.38315 35.674843 13.682262 25.177734 13.072266 z "
     id="path1577"
class="cls-1" />
  <path

     d="m 24,39.661017 c 1.464814,0 2.644068,-1.179254 2.644068,-2.644067 L 24,8.3389825 21.355933,37.016949 c 0,1.464813 1.179254,2.644068 2.644067,2.644068 z"
     id="rect1582"
     class="cls-1"/>
</svg>
