<svg id="svg4" width="48" height="48" version="1.1" viewBox="0 0 48 48" xmlns="http://www.w3.org/2000/svg">
 <path id="path38" d="m31.517 3.3202c-0.0678 0-0.13594 0.00512-0.20308 0.015376-0.86053 0.27558-1.1495 1.5849-0.48614 2.2012l7.7864 7.8276c0.71925 0.68518 2.1523 0.09883 2.1901-0.89722v-7.8276c0-0.68266-0.61847-1.304-1.2978-1.304h-7.787c-0.06705-0.010293-0.13464-0.015376-0.20249-0.015376zm-22.382 0.0074c-1.3415 0-1.9452 1.1258-1.939 1.9378v37.476c0.0001681 1.3531 0.58558 1.938 1.939 1.9384h29.73c1.3534-0.000315 1.9384-0.58531 1.9384-1.9384v-23.209c0.01597-0.68266-0.25189-1.367-0.72677-1.8572l-13.625-13.621c-0.49076-0.47472-1.1752-0.74273-1.8578-0.72676zm0 1.9458h15.875l0.16123 0.16184 13.492 13.572 0.20186 0.20184v23.551h-29.73z" fill="#fff"/>
</svg>
