<?xml version="1.0" encoding="utf-8"?>
<!-- Generator: Adobe Illustrator 21.1.0, SVG Export Plug-In . SVG Version: 6.00 Build 0)  -->
<svg version="1.0" id="Layer_1" xmlns="http://www.w3.org/2000/svg" xmlns:xlink="http://www.w3.org/1999/xlink" x="0px" y="0px"
	 viewBox="0 0 48 48" style="enable-background:new 0 0 48 48;" xml:space="preserve">
<style type="text/css">
	.st0{fill:#FFFFFF;}
</style>
<path class="st0" d="M25.1,4.3c0.1,0.1,0.1,0.1,0.2,0.1c0.6,0.1,0.9,0.5,1.3,0.8c3.8,3.8,7.7,7.6,11.5,11.4c0.5,0.5,0.9,0.9,1.4,1.4
	c0.5,0.4,0.6,1,0.6,1.6c0,1.6,0,3.3,0,4.9c0,5.9,0,11.7,0,17.6c0,0.7-0.2,1.2-0.9,1.5c0,0-0.1,0.1-0.1,0.1c-10,0-20.1,0-30.1,0
	c0,0-0.1-0.1-0.1-0.1C8.2,43.3,8,42.8,8,42.2C8,32.8,8,23.4,8,14c0-2.8,0-5.5,0-8.3c0-0.6,0.3-1.2,0.9-1.3C9,4.4,9,4.3,9.1,4.3
	C14.4,4.3,19.7,4.3,25.1,4.3z M9.2,24C9.2,24,9.2,24,9.2,24c0.1,6,0.1,12,0.1,18c0,0.4,0,0.4,0.4,0.4c9.6,0,19.1,0,28.7,0
	c0.4,0,0.4,0,0.4-0.4c0-2.5,0-5,0-7.6c0-5,0-10,0-15c0-0.2,0-0.4-0.2-0.6c-1.2-1.2-2.4-2.4-3.6-3.6c-3.1-3.1-6.2-6.3-9.3-9.4
	c-0.3-0.3-0.5-0.4-0.9-0.4c-5,0-10.1,0-15.1,0c-0.5,0-0.5,0-0.5,0.5C9.2,12,9.2,18,9.2,24z"/>
<path class="st0" d="M38.9,4.3C38.9,4.3,39,4.4,39,4.4c0.6,0.1,0.9,0.7,0.9,1.2c0,2.6,0,5.3,0,7.9c0,0.9-0.8,1.1-1.4,0.7
	c-0.5-0.3-0.8-0.7-1.2-1.1c-2.4-2.4-4.7-4.7-7.1-7.1c-0.2-0.2-0.4-0.5-0.5-0.9c0-0.4,0.1-0.6,0.4-0.7c0.1,0,0.1-0.1,0.2-0.2
	C33.2,4.3,36.1,4.3,38.9,4.3z"/>
</svg>
