<?xml version="1.0" encoding="utf-8"?>
<!-- Generator: Adobe Illustrator 21.1.0, SVG Export Plug-In . SVG Version: 6.00 Build 0)  -->
<svg version="1.0" id="Layer_1" xmlns="http://www.w3.org/2000/svg" xmlns:xlink="http://www.w3.org/1999/xlink" x="0px" y="0px"
	 viewBox="0 0 48 48" style="enable-background:new 0 0 48 48;" xml:space="preserve">
<style type="text/css">
	.st0{fill:#FFFFFF;}
</style>
<g>
	<path class="st0" d="M23.9,45.9C12.4,45.8,2.1,37.1,2,24C1.9,11.2,12.1,2,24,2c11.9,0,21.9,9.2,22,22C46.1,36,36,45.9,23.9,45.9z
		 M38.2,20.5c-2.3-6.4-3.9-8-11.1-11c-1.1-2.9-4.8-3.3-6.5,0C9.7,14.4,7.3,20.3,11.5,31.6c-0.8,3.8,0.9,5.5,4.8,4.6
		c4.2,2.4,8.6,2.9,13.2,1c4.6-1.9,7.4-5.5,8.6-10.2C41.1,25.8,41.4,22,38.2,20.5z"/>
	<path class="st0" d="M20.9,12.1c0.6,0.6,1.2,1,1.9,1.7c0.1,6.4-2.1,11.9-7,16.4c-0.7-0.1-1.5-0.1-2.2-0.2
		C9.2,23.5,13,13.9,20.9,12.1z"/>
	<path class="st0" d="M35.7,26.7c-1.7,7.9-11.3,11.8-17.9,7.5c-0.1-0.7-0.1-1.5-0.2-2.4C22,27.2,27.5,25,34.1,25
		c0.2,0.3,0.5,0.6,0.8,0.9C35.1,26.2,35.4,26.4,35.7,26.7z"/>
	<path class="st0" d="M25.1,13.7c0.7-0.6,1.2-1.1,1.8-1.6c3.7,0.2,8.2,4.7,8.8,8.7c-0.5,0.6-1.1,1.2-1.7,1.9
		c-3.8-0.2-7.5,0.6-11.3,2.5C24.4,21.3,25.2,17.5,25.1,13.7z"/>
</g>
</svg>
