<svg width="48" height="48" version="1.1" viewBox="0 0 48 48" xmlns="http://www.w3.org/2000/svg">
 <path d="m24 2c-12.15 0-22 9.85-22 22s9.85 22 22 22 22-9.85 22-22-9.85-22-22-22zm0 3c10.49 0 19 8.507 19 19s-8.507 19-19 19-19-8.507-19-19 8.507-19 19-19zm0 2c-9.389 0-17 7.611-17 17s7.611 17 17 17 17-7.611 17-17-7.611-17-17-17zm0 5c6.627 0 12 5.373 12 12s-5.373 12-12 12c-5.662-2e-3 -10.55-3.962-11.73-9.5h5.732c1.005 2.428 3.373 3.998 6 4 3.59 0 6.5-2.91 6.5-6.5s-2.91-6.5-6.5-6.5c-2.625 9.85e-4 -4.993 1.575-6 4-1.894-0.01174-3.818 0-5.723 0 1.179-5.535 6.064-9.493 11.72-9.5z" fill="#fff"/>
</svg>
