<?xml version="1.0" encoding="UTF-8" standalone="no"?>
<svg
   xmlns:dc="http://purl.org/dc/elements/1.1/"
   xmlns:cc="http://creativecommons.org/ns#"
   xmlns:rdf="http://www.w3.org/1999/02/22-rdf-syntax-ns#"
   xmlns:svg="http://www.w3.org/2000/svg"
   xmlns="http://www.w3.org/2000/svg"
   xmlns:sodipodi="http://sodipodi.sourceforge.net/DTD/sodipodi-0.dtd"
   xmlns:inkscape="http://www.inkscape.org/namespaces/inkscape"
   width="48"
   height="48"
   viewBox="0 0 48 48"
   version="1.1"
   id="svg4"
   sodipodi:docname="liftago.svg"
   inkscape:version="0.92.3 (2405546, 2018-03-11)">
  <metadata
     id="metadata10">
    <rdf:RDF>
      <cc:Work
         rdf:about="">
        <dc:format>image/svg+xml</dc:format>
        <dc:type
           rdf:resource="http://purl.org/dc/dcmitype/StillImage" />
        <dc:title></dc:title>
      </cc:Work>
    </rdf:RDF>
  </metadata>
  <defs
     id="defs8">
    <rect
       id="rect833"
       fill="white"
       height="228.22"
       width="369.27" />
  </defs>
  <sodipodi:namedview
     pagecolor="#ffffff"
     bordercolor="#666666"
     borderopacity="1"
     objecttolerance="10"
     gridtolerance="10"
     guidetolerance="10"
     inkscape:pageopacity="0"
     inkscape:pageshadow="2"
     inkscape:window-width="1325"
     inkscape:window-height="838"
     id="namedview6"
     showgrid="false"
     inkscape:zoom="9.8333333"
     inkscape:cx="5.6195156"
     inkscape:cy="24"
     inkscape:window-x="0"
     inkscape:window-y="25"
     inkscape:window-maximized="0"
     inkscape:current-layer="svg4" />
  <path
     style="fill:#ffffff;stroke-width:0.09952491"
     d="M 14.962891 11.837891 C 12.017949 11.837891 7.6625167 12.591554 4 13.800781 L 4 33.171875 C 9.3653879 31.399336 14.628347 30.648311 18.871094 30.707031 C 20.407759 33.633063 23.822476 34.537843 27.660156 34.550781 C 33.14995 34.569691 39.033203 32.837891 39.033203 32.837891 L 40.751953 13.21875 C 36.856548 14.63698 31.721593 15.811191 25.796875 15.880859 C 24.689163 14.010786 21.385233 11.837891 14.962891 11.837891 z M 17.171875 18.667969 C 17.520212 18.671433 17.865935 18.717588 18.203125 18.804688 L 18.109375 19.853516 L 19.326172 19.853516 L 19.326172 20.994141 L 20.589844 20.994141 L 20.5 22.041016 L 19.326172 22.041016 L 19.326172 23.632812 C 19.326172 24.16328 19.698061 24.386719 20.175781 24.386719 C 20.322082 24.389609 20.467912 24.376316 20.611328 24.347656 C 20.611328 24.347656 20.517719 25.361971 20.511719 25.431641 C 20.309783 25.473141 20.104654 25.492734 19.898438 25.490234 C 18.435422 25.490234 18.101562 24.433003 18.101562 23.736328 L 18.101562 22.044922 L 16.615234 22.044922 L 16.615234 25.390625 L 15.345703 25.390625 L 15.345703 22.044922 L 14.582031 22.044922 L 14.673828 20.994141 L 15.345703 20.994141 L 15.345703 20.304688 C 15.345703 19.83294 15.662082 18.666974 17.171875 18.667969 z M 13.236328 18.970703 C 13.328547 18.969923 13.420369 18.986894 13.505859 19.021484 C 13.59135 19.056079 13.668655 19.107165 13.734375 19.171875 C 13.8001 19.236576 13.852742 19.313488 13.888672 19.398438 C 13.924592 19.483382 13.942702 19.575749 13.943359 19.667969 C 13.943339 19.805293 13.902252 19.93842 13.826172 20.052734 C 13.750085 20.167059 13.64229 20.257507 13.515625 20.310547 C 13.38896 20.363587 13.25007 20.377572 13.115234 20.351562 C 12.980398 20.325558 12.855662 20.260403 12.757812 20.164062 C 12.659945 20.067732 12.592563 19.944966 12.564453 19.810547 C 12.536343 19.676139 12.548549 19.535675 12.599609 19.408203 C 12.650655 19.280722 12.738442 19.17161 12.851562 19.09375 C 12.964683 19.015906 13.099023 18.972903 13.236328 18.970703 z M 8.5 19.4375 L 9.7949219 19.4375 L 9.7949219 24.203125 L 11.894531 24.203125 L 11.792969 25.390625 L 8.5 25.390625 L 8.5 19.4375 z M 17.353516 19.757812 C 17.010155 19.757812 16.591797 19.934713 16.591797 20.447266 L 16.591797 20.994141 L 18.109375 20.994141 L 18.109375 19.857422 C 17.861061 19.800122 17.6083 19.766713 17.353516 19.757812 z M 23.076172 20.882812 C 23.362206 20.879398 23.644387 20.94875 23.896484 21.083984 C 24.148481 21.219219 24.36232 21.416057 24.517578 21.65625 L 24.601562 20.994141 L 25.707031 20.994141 L 25.707031 25.390625 L 24.601562 25.390625 L 24.515625 24.722656 C 24.361361 24.963904 24.148183 25.16238 23.896484 25.298828 C 23.644786 25.435372 23.362505 25.504353 23.076172 25.501953 C 21.98936 25.501953 21.117188 24.516082 21.117188 23.191406 C 21.117187 21.866729 21.994336 20.882812 23.076172 20.882812 z M 28.425781 20.882812 C 28.706541 20.880992 28.982191 20.951349 29.228516 21.085938 C 29.474939 21.220525 29.683801 21.415136 29.833984 21.652344 L 29.925781 20.994141 L 31.025391 20.994141 L 31.025391 24.892578 C 31.025391 26.364551 30.04093 27.232422 28.537109 27.232422 C 27.926523 27.225554 27.330042 27.040452 26.822266 26.701172 C 26.822266 26.701172 26.912875 25.677645 26.921875 25.578125 C 27.236373 25.77817 27.815582 26.138672 28.431641 26.138672 C 29.177083 26.138672 29.757812 25.743399 29.757812 25.054688 L 29.757812 24.576172 C 29.611809 24.801894 29.408944 24.98844 29.171875 25.115234 C 28.934708 25.241931 28.671161 25.304781 28.402344 25.300781 C 27.32847 25.300781 26.462891 24.355763 26.462891 23.091797 C 26.462891 21.779093 27.444465 20.882812 28.425781 20.882812 z M 34.09375 20.882812 C 35.495061 20.882812 36.40625 21.918483 36.40625 23.191406 C 36.40625 24.46433 35.487099 25.501953 34.09375 25.501953 C 32.779026 25.501953 31.791016 24.516083 31.791016 23.191406 C 31.791016 21.86673 32.784998 20.882812 34.09375 20.882812 z M 12.601562 20.994141 L 13.871094 20.994141 L 13.871094 25.390625 L 12.601562 25.390625 L 12.601562 20.994141 z M 28.773438 21.988281 C 28.166336 21.988281 27.734375 22.491549 27.734375 23.097656 C 27.734375 23.703762 28.176288 24.193359 28.773438 24.193359 C 29.367601 24.193359 29.779297 23.692965 29.779297 23.089844 C 29.779297 22.486723 29.38054 21.988281 28.773438 21.988281 z M 23.439453 22.025391 C 22.82837 22.025391 22.392578 22.545489 22.392578 23.191406 C 22.392578 23.835883 22.833491 24.353169 23.435547 24.355469 C 23.435547 24.355469 23.4375 24.355469 23.4375 24.355469 C 23.4375 24.355469 23.439453 24.355469 23.439453 24.355469 C 24.046354 24.35316 24.466797 23.833897 24.466797 23.191406 C 24.466797 22.54748 24.050536 22.025391 23.439453 22.025391 z M 34.09375 22.025391 C 33.498591 22.025391 33.068359 22.528533 33.068359 23.193359 C 33.068359 23.858186 33.490629 24.355469 34.09375 24.355469 L 34.097656 24.355469 C 34.708739 24.355469 35.128906 23.837286 35.128906 23.193359 C 35.128906 22.549433 34.688909 22.025391 34.09375 22.025391 z "
     id="path817" />
</svg>
