<?xml version="1.0" encoding="UTF-8" standalone="no"?>
<svg
   xmlns:dc="http://purl.org/dc/elements/1.1/"
   xmlns:cc="http://creativecommons.org/ns#"
   xmlns:rdf="http://www.w3.org/1999/02/22-rdf-syntax-ns#"
   xmlns:svg="http://www.w3.org/2000/svg"
   xmlns="http://www.w3.org/2000/svg"
   xmlns:sodipodi="http://sodipodi.sourceforge.net/DTD/sodipodi-0.dtd"
   xmlns:inkscape="http://www.inkscape.org/namespaces/inkscape"
   width="48"
   height="48"
   viewBox="0 0 48 48"
   version="1.1"
   id="svg4"
   sodipodi:docname="Lighthouse.svg"
   inkscape:version="0.92.3 (2405546, 2018-03-11)">
  <metadata
     id="metadata10">
    <rdf:RDF>
      <cc:Work
         rdf:about="">
        <dc:format>image/svg+xml</dc:format>
        <dc:type
           rdf:resource="http://purl.org/dc/dcmitype/StillImage" />
        <dc:title />
      </cc:Work>
    </rdf:RDF>
  </metadata>
  <defs
     id="defs8">
    <clipPath
       clipPathUnits="userSpaceOnUse"
       id="clipPath835">
      <circle
         id="circle837"
         r="21.646446"
         cy="13.213626"
         cx="-29.931873"
         style="fill:#ffffff;stroke-width:0.9839294" />
    </clipPath>
  </defs>
  <sodipodi:namedview
     pagecolor="#7e7e7e"
     bordercolor="#666666"
     borderopacity="1"
     objecttolerance="10"
     gridtolerance="10"
     guidetolerance="10"
     inkscape:pageopacity="0"
     inkscape:pageshadow="2"
     inkscape:window-width="1920"
     inkscape:window-height="1046"
     id="namedview6"
     showgrid="false"
     inkscape:zoom="8"
     inkscape:cx="-2.228733"
     inkscape:cy="22.029105"
     inkscape:window-x="0"
     inkscape:window-y="0"
     inkscape:window-maximized="1"
     inkscape:current-layer="svg4"
     inkscape:snap-intersection-paths="true"
     inkscape:measure-start="23.445,32.3722"
     inkscape:measure-end="23.9258,32.3722"
     inkscape:snap-smooth-nodes="true"
     inkscape:object-paths="true"
     inkscape:snap-global="true"
     showguides="false">
    <sodipodi:guide
       position="23.445,32.3722"
       inkscape:color="rgb(167,0,255)"
       inkscape:label="Measure"
       orientation="-0,1"
       id="guide855"
       inkscape:locked="false" />
    <sodipodi:guide
       position="23.445,32.3722"
       inkscape:color="rgb(167,0,255)"
       inkscape:label=""
       orientation="-0,1"
       id="guide857"
       inkscape:locked="false" />
    <sodipodi:guide
       position="23.9258,32.3722"
       inkscape:color="rgb(167,0,255)"
       inkscape:label="End"
       orientation="-0,1"
       id="guide861"
       inkscape:locked="false" />
    <sodipodi:guide
       position="23.9258,32.3722"
       inkscape:color="rgb(167,0,255)"
       inkscape:label=""
       orientation="-1,6.12323e-17"
       id="guide863"
       inkscape:locked="false" />
  </sodipodi:namedview>
  <path
     style="display:inline;fill:#ffffff"
     d="M 24,2 A 22,22 0 0 0 2,24 22,22 0 0 0 16.423828,44.625 l 0.388672,-4.525391 3.554688,3.666016 h 3.558593 3.558594 l 3.554687,-3.666016 0.390626,4.548829 c -0.732644,0.298528 -1.476116,0.522906 -2.226563,0.703124 A 22,22 0 0 0 44.544922,31.798828 l -13.691406,-7.351562 -1.066407,1.035156 -2.242187,2.111328 h -3.619141 -3.61914 l -2.242188,-2.111328 -1.46875,-1.423828 0.341797,-0.984375 3.40625,-3.261719 -1.064453,-1.058594 0.265625,-0.683594 2.552734,-1.791015 1.347656,-0.652344 h 0.480469 0.480469 l 1.347656,0.652344 2.552735,1.791015 0.265625,0.683594 -1.064454,1.058594 14.355469,-8.607422 A 22,22 0 0 0 24,2 Z m -3.476562,17.992188 -0.78125,2.882812 2.234374,2.046875 H 23.925781 25.875 L 28.109375,22.875 27.328125,19.992188 26.257812,21 H 23.925781 21.59375 Z m -2.554688,6.603515 3.037109,2.964844 2.919922,0.002 2.919922,-0.002 3.037109,-2.964844 0.230469,2.6875 -3.146484,2.980469 -3.041016,0.0332 -3.041015,-0.0332 -3.146485,-2.980469 z m 27.623047,1.566406 c -0.04448,0.217491 -0.09398,0.435148 -0.144531,0.652344 a 22,22 0 0 0 0.144531,-0.652344 z m -0.390625,1.621094 c -0.111297,0.4059 -0.233607,0.810532 -0.365234,1.214844 a 22,22 0 0 0 0.365234,-1.214844 z m -27.759766,2.974609 3.273438,3.273438 h 3.210937 3.210938 l 3.273437,-3.273438 0.304688,3.554688 -3.417969,3.279297 -3.371094,0.0332 -3.371093,-0.0332 -3.417969,-3.279297 z m 11.080078,12.746094 c -1.50052,0.300364 -3.027393,0.423611 -4.5625,0.494141 A 22,22 0 0 0 24,46 22,22 0 0 0 28.521484,45.503906 Z m -7.929687,0.203125 a 22,22 0 0 0 3.064453,0.275391 c -1.027739,-0.05087 -2.050215,-0.134814 -3.064453,-0.275391 z"
     id="circle2"
     inkscape:connector-curvature="0" />
</svg>
