<?xml version="1.0" encoding="utf-8"?>
<!-- Generator: Adobe Illustrator 21.1.0, SVG Export Plug-In . SVG Version: 6.00 Build 0)  -->
<svg version="1.0" id="Layer_1" xmlns="http://www.w3.org/2000/svg" xmlns:xlink="http://www.w3.org/1999/xlink" x="0px" y="0px"
	 viewBox="0 0 48 48" style="enable-background:new 0 0 48 48;" xml:space="preserve">
<style type="text/css">
	.st0{fill:#FFFFFF;}
</style>
<g>
	<path class="st0" d="M33.7,21c-1.1,0.7-2.1,0.6-3-0.3c-0.9,0.9-2.2,1.1-3.3,0c-0.4,0.5-1,0.7-1.6,0.7c-0.7,0-1.2-0.3-1.6-0.8
		c-0.5,0.5-1,0.8-1.7,0.8c-0.7,0-1.2-0.3-1.6-0.7c-1,1-2.3,1-3.3,0c-1,0.9-2,1-3.1,0.3c-0.3,2.2-0.5,4.3-0.8,6.5c7,0,14,0,20.9,0
		C34.2,25.3,33.9,23.2,33.7,21z"/>
	<path class="st0" d="M15.3,20.3c0.5,0.2,1,0,1.4-0.5c0.3-0.5,1-0.5,1.3,0c0.5,0.8,1.6,0.8,2.1,0c0.3-0.5,0.9-0.5,1.3,0
		c0.5,0.8,1.4,0.8,2,0c0.4-0.5,1-0.5,1.4,0c0.1,0.2,0.3,0.4,0.5,0.4c0.5,0.2,1,0.1,1.4-0.5c0.4-0.5,1-0.5,1.3,0
		c0.5,0.8,1.6,0.8,2.1,0c0.3-0.5,0.9-0.5,1.3,0c0.4,0.5,0.9,0.7,1.4,0.5c0.5-0.2,0.8-0.8,0.8-1.4c-0.1-0.9-0.2-1.8-0.4-2.8
		c-0.1-0.5-0.2-0.6-0.7-0.6c-2.8,0-5.6,0-8.3,0c0,0,0,0,0,0c-2.8,0-5.6,0-8.4,0c-0.5,0-0.6,0.1-0.7,0.6c-0.1,0.9-0.2,1.9-0.3,2.8
		C14.5,19.6,14.8,20.1,15.3,20.3z"/>
	<path class="st0" d="M11.2,32.3c0.1,0.1,0.3,0.1,0.4,0.1c8.2,0,16.5,0,24.7,0c0.1,0,0.3,0,0.4-0.1c0.4-0.3,0.7-0.6,1.2-0.9
		c-9.3,0-18.5,0-27.7,0C10.5,31.8,10.9,32.1,11.2,32.3z"/>
	<path class="st0" d="M24,2C11.8,2,2,11.8,2,24s9.8,22,22,22s22-9.8,22-22S36.2,2,24,2z M38.4,32.3c-0.3,0.3-0.7,0.5-1,0.8
		c-0.3,0.2-0.6,0.3-1,0.3c-8.3,0-16.6,0-24.9,0c-0.3,0-0.7-0.2-0.9-0.3c-0.4-0.2-0.7-0.6-1.1-0.9c-0.4-0.3-0.5-0.7-0.3-1.1
		c0.2-0.4,0.5-0.6,1-0.6c0.6,0,1.3,0,2,0c0.3-2,0.5-4,0.7-6c0.3-2.2,0.6-4.5,0.8-6.7c0.1-0.6,0.2-1.2,0.2-1.8
		c0.1-0.8,0.7-1.4,1.5-1.4c5.7,0,11.3,0,17,0c0.9,0,1.5,0.6,1.6,1.4c0.3,2.8,0.7,5.5,1,8.3c0.2,1.9,0.5,3.8,0.7,5.7
		c0,0.2,0,0.3,0.1,0.5c0.6,0,1.3,0,1.9,0c0.5,0,0.9,0.2,1.1,0.7C39,31.6,38.8,32,38.4,32.3z"/>
</g>
</svg>
