<?xml version="1.0" encoding="UTF-8"?>
<svg version="1.1" viewBox="0 0 48 48" xmlns="http://www.w3.org/2000/svg">
    <path d="m10.798 17.648c5.7994 1.5429 13.009 0.3179 16.282-5.275 0.64559-1.1049 1.2463-3.0135-0.09041-3.8486-1.8901-1.1812-4.7722 0.55227-6.0566 1.8634-1.8337 1.872-2.4792 4.6765-2.995 7.1571-0.70635 3.3921-1.0369 6.8563-1.5484 10.282-0.46077 3.0771-0.89152 6.9549-3.5223 9.0122-1.1639 0.90996-4.3936 1.5468-5.0237-0.34322-0.12441-0.37036 0.11573-0.80111 0.29657-1.1006 0.14973-0.25172 0.74323-0.65571 0.24304-0.40001 0.58771-0.29946 1.7137-0.03509 2.3412 0.09041 2.6164 0.52443 5.1141 1.6969 7.6247 2.5671 7.5625 2.6192 15.178 3.0037 22.882 0.68103 0.8351-0.25172 2.9317-2.2435 0.92949-1.6402-7.828 2.3577-15.423 1.2319-22.958-1.5035-4.2779-1.5527-8.4964-3.5741-12.483-0.29513-1.0879 0.89442-2.6601 3.0363-0.98592 4.1393 1.8195 1.2011 4.4515 0.3519 6.2428-0.45065 6.5257-2.9231 6.9894-10.055 7.8241-16.26 0.42388-3.1433 0.82787-6.3321 1.7986-9.3637 0.2897-0.9031 0.77144-2.3314 1.5129-2.9274-0.46475 0.37289 0.2727 0.07776 0.80399 0.17794 0.33346 0.06511 0.58192 0.16238 0.79134 0.42822 1.017 1.2995-0.7067 3.4822-1.6037 4.2919-2.4963 2.2517-6.8479 1.6314-9.7623 0.85608-0.89442-0.23726-3.0699 1.7209-2.5443 1.8605" fill="#fff" stroke-width="1.2667"/>
</svg>
