<?xml version="1.0" encoding="UTF-8" standalone="no"?>
<svg
   xmlns:dc="http://purl.org/dc/elements/1.1/"
   xmlns:cc="http://creativecommons.org/ns#"
   xmlns:rdf="http://www.w3.org/1999/02/22-rdf-syntax-ns#"
   xmlns:svg="http://www.w3.org/2000/svg"
   xmlns="http://www.w3.org/2000/svg"
   xmlns:sodipodi="http://sodipodi.sourceforge.net/DTD/sodipodi-0.dtd"
   xmlns:inkscape="http://www.inkscape.org/namespaces/inkscape"
   width="48"
   height="48"
   viewBox="0 0 48 48"
   version="1.1"
   id="svg994"
   sodipodi:docname="linphone.svg"
   inkscape:version="0.92.4 5da689c313, 2019-01-14">
  <metadata
     id="metadata1000">
    <rdf:RDF>
      <cc:Work
         rdf:about="">
        <dc:format>image/svg+xml</dc:format>
        <dc:type
           rdf:resource="http://purl.org/dc/dcmitype/StillImage" />
        <dc:title></dc:title>
      </cc:Work>
    </rdf:RDF>
  </metadata>
  <defs
     id="defs998" />
  <sodipodi:namedview
     pagecolor="#ffffff"
     bordercolor="#666666"
     borderopacity="1"
     objecttolerance="10"
     gridtolerance="10"
     guidetolerance="10"
     inkscape:pageopacity="0"
     inkscape:pageshadow="2"
     inkscape:window-width="1563"
     inkscape:window-height="1128"
     id="namedview996"
     showgrid="true"
     inkscape:snap-global="true"
     inkscape:zoom="6.9532167"
     inkscape:cx="15.302856"
     inkscape:cy="19.239055"
     inkscape:window-x="306"
     inkscape:window-y="75"
     inkscape:window-maximized="0"
     inkscape:current-layer="svg994"
     inkscape:snap-grids="true"
     inkscape:snap-bbox="true"
     inkscape:bbox-nodes="true"
     inkscape:snap-object-midpoints="true"
     inkscape:snap-nodes="false">
    <inkscape:grid
       type="xygrid"
       id="grid1548" />
  </sodipodi:namedview>
  <circle
     cx="24"
     cy="24"
     r="18"
     id="circle992"
     style="fill:none;fill-opacity:1;stroke:#ffffff;stroke-width:3.99999976;stroke-miterlimit:4;stroke-dasharray:none" />
  <path
     style="fill:none;stroke:#ffffff;stroke-width:60;stroke-linecap:butt;stroke-linejoin:miter;stroke-miterlimit:4;stroke-dasharray:none;stroke-opacity:1"
     d="M -937.37166,46.921649 -625.18235,165.33827"
     id="path1571"
     inkscape:connector-curvature="0"
     sodipodi:nodetypes="cc" />
  <path
     inkscape:connector-curvature="0"
     style="fill:#ffffff;stroke-width:0.63999999"
     d="m 18.87647,25.973349 -0.01764,1.654061 -0.01837,1.654777 a 19.012096,19.012096 0 0 0 10.283537,0.07172 l 0.03554,-3.299067 c -1.669792,0.562935 -3.429696,0.855879 -5.191988,0.835977 a 15.746048,15.746048 0 0 1 -5.091438,-0.917835 z"
     id="path2" />
  <path
     inkscape:connector-curvature="0"
     style="fill:#ffffff;stroke-width:0.63999999"
     d="m 10.522027,23.269808 3.255552,-3.185459 c 0,0 0.725349,-0.878067 1.545832,-0.184483 1.037873,0.879153 2.788555,1.999229 2.788555,1.999229 0,0 0.935064,0.478319 0.909389,1.373777 -0.02776,0.954088 -0.0098,6.057521 -0.0098,6.057521 0,0 -5.53434,-1.507382 -8.488198,-5.0182 0,0 -0.435824,-0.474697 -0.0021,-1.041669 z m 26.954847,0.281385 -3.185458,-3.255552 c 0,0 -0.706068,-0.893645 -1.541085,-0.218439 -1.05676,0.856358 -2.831402,1.938071 -2.831402,1.938071 0,0 -0.945618,0.458215 -0.93907,1.353661 0.007,0.954466 -0.122035,6.057024 -0.122035,6.057024 0,0 5.565483,-1.387675 8.594321,-4.833387 0,0 0.446067,-0.466548 0.02473,-1.041378 z"
     id="path4" />
  <path
     style="fill:#ffffff;stroke:none;stroke-width:1px;stroke-linecap:butt;stroke-linejoin:miter;stroke-opacity:1"
     d="M 9,12 7,5 14,7 Z"
     id="path869"
     inkscape:connector-curvature="0"
     sodipodi:nodetypes="cccc" />
  <path
     sodipodi:nodetypes="cccc"
     inkscape:connector-curvature="0"
     id="path871"
     d="m 41,34 2,7 -7,-2 z"
     style="fill:#ffffff;stroke:none;stroke-width:1px;stroke-linecap:butt;stroke-linejoin:miter;stroke-opacity:1" />
</svg>
