<?xml version="1.0" encoding="utf-8"?>
<!-- Generator: Adobe Illustrator 21.1.0, SVG Export Plug-In . SVG Version: 6.00 Build 0)  -->
<svg version="1.0" id="Layer_1" xmlns="http://www.w3.org/2000/svg" xmlns:xlink="http://www.w3.org/1999/xlink" x="0px" y="0px"
	 viewBox="0 0 48 48" style="enable-background:new 0 0 48 48;" xml:space="preserve">
<style type="text/css">
	.st0{fill:#FFFFFF;}
</style>
<g>
	<path class="st0" d="M41,5H7C5.9,5,5,5.9,5,7v34c0,1.1,0.9,2,2,2h34c1.1,0,2-0.9,2-2V7C43,5.9,42.1,5,41,5z M34.6,32.9
		c-1.7,1.4-3.7,2.2-5.8,2.6c-2.2,0.4-4.5,0.3-6.7-0.1c-1.3-0.2-2.7-0.5-4-1c-3.7-1.4-6.4-4-7.4-8c-1.1-4.8,0.5-8.9,5.4-11.3
		c1.5-0.7,3.2-1,4.9-1.2c2.4-0.3,4.8,0.1,7.1,0.8c0.2,0.1,0.5,0,0.7-0.1c2.1-0.8,4.1-1.7,6.2-2.5c0.1-0.1,0.3-0.1,0.5-0.2
		c-0.4,1.1-0.7,2-1.1,3c-0.3,0.7-0.5,1.4-0.8,2.1c-0.1,0.3,0,0.4,0.2,0.6c1.7,1.4,3.1,3.1,3.8,5.2C38.9,26.7,37.8,30.2,34.6,32.9z"
		/>
	<path class="st0" d="M32.2,20.8c-2.6-2.6-6-3.6-9.6-3.9c-1.7-0.1-3.4,0.2-5,0.7c-1.6,0.5-3,1.2-4.1,2.5c-2.2,2.4-2,6.1-0.7,8.5
		c1.1,2,2.8,3.4,4.8,4.4c2.2,1.1,4.6,1.5,7,1.5c1.9,0,3.7-0.3,5.5-1c1.9-0.8,3.4-2,4.3-3.9c0.5-1.1,0.7-2.2,0.5-3.4
		C34.6,23.9,33.7,22.2,32.2,20.8z M28.9,32c-1.4,0.5-2.7,0.8-3.8,0.7c-2.8-0.1-5.5-0.8-7.9-2.3c-1.1-0.7-2-1.6-2.7-2.6
		c-0.8-1.2-0.8-2.4-0.2-3.6c0.6-1.1,0.9-1.6,2.6-1c0.9,0.3,1.6,0.8,2.2,1.6c0.5,0.6,0.5,1.1,0,1.8c-0.1,0.1-0.2,0.2-0.2,0.3
		c-0.5,0.5-0.5,0.6-0.1,1.1c0.2,0.3,0.5,0.6,0.8,0.8c1.6,0.9,3.4,1.4,5.3,1.4c0.3,0,0.6-0.1,0.9-0.2c0.7-0.3,0.7-0.4,0.6-1.1
		c-0.3-1.1,0-1.6,1.1-1.9c1-0.3,2-0.4,3-0.1c0.9,0.2,1.2,0.7,1.2,1.6C31.4,30.2,30.7,31.3,28.9,32z"/>
</g>
</svg>
