<?xml version="1.0" encoding="utf-8"?>
<!-- Generator: Adobe Illustrator 21.1.0, SVG Export Plug-In . SVG Version: 6.00 Build 0)  -->
<svg version="1.0" id="Layer_1" xmlns="http://www.w3.org/2000/svg" xmlns:xlink="http://www.w3.org/1999/xlink" x="0px" y="0px"
	 viewBox="0 0 48 48" style="enable-background:new 0 0 48 48;" xml:space="preserve">
<style type="text/css">
	.st0{fill:#FFFFFF;}
</style>
<path class="st0" d="M43.5,24.4c0.4,10-8.6,19.8-20.3,19.2C13.8,43.2,4.6,35,5,23.6c0.3-9.7,8.8-18.9,20-18.5
	C34.9,5.5,43.8,13.9,43.5,24.4z M21.6,30.2c1.4,1.7,2.7,2.2,4.5,1.5c1.5-0.5,2.9-1.1,4.3-1.9c0.5-0.3,1-0.5,1.5-0.7
	c0.3-0.1,0.6-0.1,0.7,0.2c0.1,0.3,0,0.6-0.3,0.7c-0.4,0.2-0.8,0.4-1.2,0.6c-1.6,0.7-3,1.7-4.3,2.8c-2,1.8-3.7,1.7-5.3-0.5
	c-0.5-0.6-0.9-1.3-1.4-1.9c-0.4-0.5-0.7-0.4-0.8,0.2c-0.3,1.6-1.1,2.9-1.8,4.3c-0.3,0.6-0.5,1.2-0.7,1.8c-0.3,1.5-0.2,2,1.3,2.5
	c6.1,2.2,11.8,1.5,16.9-2.7c2.4-1.9,2.4-2.3,0.5-4.6c-1.3-1.6-2-3.3-1.1-5.4c0.6-1.4,0.2-1.9-1.2-2.5c-0.7-0.3-1.4-0.5-2.2-0.8
	c-0.6-0.2-1.1-0.5-1.6-1c-0.8-0.8-0.8-2.7,0.1-3.6c0.7-0.8,2.1-0.7,3,0.1c0.9,0.8,0.6,1.8,0.4,2.8c-0.1,0.6-0.3,1.1,0.5,1.3
	c0.7,0.2,1.1-0.2,1.3-0.8c0.5-1.5-0.1-2.9-0.5-4.3c-0.5-1.5-1.7-2.3-3.6-2.3c-1.3,0-2.1,0.9-2.6,2.1c-0.2,0.6-0.4,1.2-0.5,1.8
	c-0.2,0.7,0.3,1.6-0.2,2c-0.5,0.4-1.4-0.2-2.1-0.1c-0.8,0.1-1-0.3-1-1.1c0-0.8,0-1.6-0.3-2.4c-0.3-0.9-0.9-1.6-1.9-1.8
	c-1-0.1-1.7,0.4-2.1,1.2c-1,1.9-0.7,3.8,0.2,5.6c0.4,0.8,0.4,1.1-0.2,1.7c-0.9,0.9-0.8,1.5,0.2,2.2c0.4,0.2,0.7,0.5,0.9,0.8
	c0.5,0.9,1.4,1.2,2.4,1.2c3.3-0.1,6.4-1,9.2-2.8c0.2-0.2,0.4-0.3,0.7,0c0.2,0.2,0.2,0.5-0.1,0.7c-0.2,0.2-0.4,0.3-0.6,0.4
	c-1.9,0.7-3.8,1.4-5.6,2.2c-0.7,0.3-1.5,0.4-2.2,0.4C23.6,30.2,22.7,30.2,21.6,30.2z M19.6,8.6c-0.3-0.2-0.4-0.1-0.6,0
	c-3.4,1.1-6.2,3.2-8.3,6.1c-2.2,3.1-3.2,6.7-3,10.5c0.2,4.5,2,8.2,5.2,11.3c0.5,0.5,0.7,0.4,1.1-0.1c1.1-1.6,2.2-3.3,3.3-4.9
	c0.4-0.6,0.6-1.3,0.5-2c-0.4-3.8-0.4-7.6-0.6-11.5C17.1,14.8,17.4,11.4,19.6,8.6z M40.8,26.4c0.5-2.8,0.1-5.4-1-8
	C40,21.2,40,23.9,40.8,26.4z M30.6,19.6c0.8,0.4,1.1,1,1.3,1.6c0.1,0.2,0.2,0.3,0.4,0.2c0.1,0,0.1-0.2,0.2-0.3
	C32.6,20.3,31.7,19.5,30.6,19.6z"/>
<path class="st0" d="M23.9,22.9c-0.5,0.1-0.8,1.6-1.4,0.1c-0.1-0.3-0.4-0.1-0.5,0.1c-0.3,0.3-0.6,0.5-1,0.9c0-0.8-0.2-1.2-0.6-1.7
	c-0.7-0.7-0.8-1.7-0.4-2.6c0.4-1.1,1.8-1.2,2.6-0.2c0.5,0.6,0.8,1.4,0.6,2.2C22.8,22.5,23.2,22.7,23.9,22.9z M22.3,21.7
	c0.3-0.4,0.1-0.8,0-1.1c-0.1-0.3-0.2-0.9-0.6-0.8c-0.5,0.2,0,0.6,0.1,0.9C21.9,21,21.9,21.4,22.3,21.7z"/>
<path class="st0" d="M26.4,22.9c0.4-0.1,0.8-0.3,1.2,0.1c0,0,0,0.3-0.1,0.3C27,23.5,26.8,23.1,26.4,22.9z"/>
</svg>
