<?xml version="1.0" encoding="utf-8"?>
<!-- Generator: Adobe Illustrator 21.1.0, SVG Export Plug-In . SVG Version: 6.00 Build 0)  -->
<svg version="1.0" id="Layer_1" xmlns="http://www.w3.org/2000/svg" xmlns:xlink="http://www.w3.org/1999/xlink" x="0px" y="0px"
	 viewBox="0 0 48 48" style="enable-background:new 0 0 48 48;" xml:space="preserve">
<style type="text/css">
	.st0{fill:#FFFFFF;}
</style>
<path class="st0" d="M41,5H7C5.9,5,5,5.9,5,7v34c0,1.1,0.9,2,2,2h34c1.1,0,2-0.9,2-2V7C43,5.9,42.1,5,41,5z M26.4,18.1
	c1,1.1,2,2.1,3,3.1c-0.7,0.5-1.1,1.9-2.2,1.6c-0.9-0.3-1.9-1.3-2.3-2.2C24.3,19.5,25.9,19.1,26.4,18.1z M31.3,27.7
	c-0.3,3.1-0.5,6.2-0.8,9.3c-4.4,0-8.7,0-13.1,0c-0.3-3.1-0.5-6.1-0.8-9.3C21.5,27.7,26.4,27.7,31.3,27.7z M24.3,22.4
	c0.3,0.9,0.7,1.8,0.9,2.8c0.1,0.7-0.4,1.2-1.1,1.3c-0.8,0.1-1.2-0.4-1.3-1.2c-0.1-1.1,0.5-2,1.1-2.8C24,22.5,24.2,22.4,24.3,22.4z
	 M23.1,20.6c-0.3,0.9-1.3,1.9-2.3,2.2c-1.2,0.4-1.6-1.1-2.4-1.6c1.1-1,2-2,3.1-3C22.1,19,23.6,19.4,23.1,20.6z M18.5,15
	c0.2,0,0.6,0.2,0.6,0.3c0,0.6,0.2,1.4-0.1,1.8c-0.9,1.2-1.9,1.9-3.7,1.7c-2.8-0.2-4.3-2-6.1-3.9C12.5,15,15.5,15,18.5,15z M7.6,15.6
	c0.2-0.2,0.3-0.4,0.6-0.6c1,1,1.9,2.1,3,3c0.6,0.6,1.5,1,2.3,1.2c0.9,0.3,1.8,0.3,2.7,0.4c0.5,0,1.2,0.2,1.6-0.1
	c0.8-0.6,1.5-1.5,2.3-2.3c0,0,0-0.1,0-0.1c-0.2-2.2,0.2-4.5-1.5-6.3c-1-1-2-2-3.1-3.1c0.2-0.2,0.3-0.4,0.5-0.6
	c1.3,1.3,2.5,2.4,3.6,3.7c0.5,0.6,0.6,1.4,0.9,2.1c0.1,0.3,0.1,0.6,0.2,0.9c0.5,3.5,0.4,3.9-2.3,6.2c-0.2,0.2-0.6,0.3-0.9,0.3
	c-1.4-0.1-2.8-0.1-4.1-0.5c-0.9-0.2-1.8-0.8-2.5-1.4C9.6,17.7,8.6,16.6,7.6,15.6z M34.4,36.4c0,0.5,0,1-0.1,1.4
	c-0.3,1.7-1.8,2.9-3.6,3c-2.3,0-4.5,0-6.8,0c-2.1,0-4.3,0-6.4,0c-2.2,0-3.6-1.3-3.8-3.5c-0.4-4.6-0.8-9.2-1.3-13.7
	c0-0.2,0-0.4,0-0.6c-0.1-0.7,0.2-1.3,1-1.3c0.8-0.1,1.2,0.4,1.2,1.2c0.2,2.4,0.4,4.9,0.6,7.3c0.2,2.3,0.4,4.6,0.6,6.9
	c0.1,1.1,0.6,1.5,1.7,1.5c4.3,0,8.6,0,12.9,0c1.2,0,1.6-0.4,1.7-1.7c0.3-3.2,0.6-6.3,0.8-9.5c0.1-1.5,0.3-3,0.4-4.5
	c0.1-0.7,0.4-1.2,1.2-1.2c0.8,0.1,1.1,0.6,1.1,1.4C35.2,27.5,34.8,32,34.4,36.4z M36.9,19c-1,0.7-2.3,0.9-3.4,1.3
	c-0.1,0-0.1,0-0.2,0c-3.5,0.3-3.5,0.3-5.8-2.3c-0.2-0.2-0.3-0.6-0.3-0.9c0.1-1.4,0.2-2.9,0.5-4.2c0.2-0.8,0.7-1.7,1.3-2.3
	c0.9-1.1,2-2.1,3.1-3.2c0.2,0.2,0.3,0.4,0.6,0.7c-1,0.9-1.9,1.9-2.8,2.7c-1.1,0.9-1.5,2.1-1.6,3.4c0,0.2,0,0.3,0,0.5
	c-0.3,2.8-0.3,2.8,1.7,4.8c0.3,0.2,0.7,0.4,1.1,0.4c1.2-0.1,2.5-0.1,3.7-0.4c0.8-0.2,1.6-0.7,2.2-1.2c1-0.9,2-2,3-3
	c0.3,0.3,0.4,0.4,0.6,0.6C39.2,16.8,38.2,18.1,36.9,19z M38.5,15.1c-1.7,2.8-4.2,4.1-7.4,3.8c-0.5,0-1-0.6-1.4-0.9
	c-1.1-0.7-1.1-1.7-0.8-2.9C32.1,15.1,35.3,15.1,38.5,15.1z"/>
</svg>
