<?xml version="1.0" encoding="UTF-8" standalone="no"?>
<svg
   xmlns:dc="http://purl.org/dc/elements/1.1/"
   xmlns:cc="http://creativecommons.org/ns#"
   xmlns:rdf="http://www.w3.org/1999/02/22-rdf-syntax-ns#"
   xmlns:svg="http://www.w3.org/2000/svg"
   xmlns="http://www.w3.org/2000/svg"
   xmlns:sodipodi="http://sodipodi.sourceforge.net/DTD/sodipodi-0.dtd"
   xmlns:inkscape="http://www.inkscape.org/namespaces/inkscape"
   width="48"
   height="48"
   viewBox="0 0 48 48"
   version="1.1"
   id="svg904"
   sodipodi:docname="listen.svg"
   inkscape:version="0.92.2 5c3e80d, 2017-08-06">
  <metadata
     id="metadata910">
    <rdf:RDF>
      <cc:Work
         rdf:about="">
        <dc:format>image/svg+xml</dc:format>
        <dc:type
           rdf:resource="http://purl.org/dc/dcmitype/StillImage" />
        <dc:title></dc:title>
      </cc:Work>
    </rdf:RDF>
  </metadata>
  <defs
     id="defs908" />
  <sodipodi:namedview
     pagecolor="#ffffff"
     bordercolor="#666666"
     borderopacity="1"
     objecttolerance="10"
     gridtolerance="10"
     guidetolerance="10"
     inkscape:pageopacity="0"
     inkscape:pageshadow="2"
     inkscape:window-width="1840"
     inkscape:window-height="970"
     id="namedview906"
     showgrid="false"
     inkscape:showpageshadow="false"
     inkscape:pagecheckerboard="true"
     inkscape:snap-bbox="true"
     inkscape:bbox-paths="true"
     inkscape:bbox-nodes="true"
     inkscape:snap-bbox-edge-midpoints="true"
     inkscape:snap-bbox-midpoints="true"
     inkscape:object-paths="true"
     inkscape:snap-intersection-paths="true"
     inkscape:snap-smooth-nodes="true"
     inkscape:snap-midpoints="true"
     inkscape:snap-object-midpoints="true"
     inkscape:snap-center="true"
     inkscape:snap-text-baseline="true"
     inkscape:snap-page="true"
     inkscape:zoom="16.125"
     inkscape:cx="24"
     inkscape:cy="24"
     inkscape:window-x="40"
     inkscape:window-y="40"
     inkscape:window-maximized="1"
     inkscape:current-layer="svg904" />
  <path
     d="M 7 5 C 5.892 5 5 5.892 5 7 L 5 41 C 5 42.108 5.892 43 7 43 L 41 43 C 42.108 43 43 42.108 43 41 L 43 7 C 43 5.892 42.108 5 41 5 L 7 5 z M 12.34375 10.173828 L 24.001953 10.173828 C 25.204434 10.173828 26.173828 11.141269 26.173828 12.34375 C 26.173828 13.546231 25.204434 14.513672 24.001953 14.513672 L 14.513672 14.513672 L 14.513672 31.197266 C 14.513672 32.399746 13.546231 33.367188 12.34375 33.367188 C 11.141269 33.367188 10.173828 32.399746 10.173828 31.197266 L 10.173828 12.34375 C 10.173828 11.141269 11.141269 10.173828 12.34375 10.173828 z M 35.65625 14.632812 C 36.858731 14.632813 37.826172 15.600254 37.826172 16.802734 L 37.826172 35.65625 C 37.826172 36.858731 36.858731 37.826172 35.65625 37.826172 L 23.998047 37.826172 C 22.795566 37.826172 21.826172 36.858731 21.826172 35.65625 C 21.826172 34.453769 22.795566 33.486328 23.998047 33.486328 L 33.486328 33.486328 L 33.486328 16.802734 C 33.486328 15.600254 34.453769 14.632812 35.65625 14.632812 z "
     id="rect902"
     style="fill:#ffffff" />
</svg>
