<svg width="48" height="48" version="1.1" viewBox="0 0 48 48" xmlns="http://www.w3.org/2000/svg">
 <path d="m24 2a22 22 0 0 0-22 22 22 22 0 0 0 2.6035 10.344l-0.57227 2.1328-1.9727 7.3691a1.712 1.712 0 0 0 2.0957 2.0957l7.3672-1.9727 2.123-0.56836a22 22 0 0 0 10.355 2.5996 22 22 0 0 0 22-22 22 22 0 0 0-22-22zm0 4.3047a17.695 17.695 0 0 1 17.695 17.695 17.695 17.695 0 0 1-17.695 17.695 17.695 17.695 0 0 1-17.695-17.695 17.695 17.695 0 0 1 17.695-17.695zm-3.5566 10.572-2.8906 4.2422-6.8223 10.004 10.004-6.8223 6.8223 6.8223 2.8906-4.2422 6.8223-10.004-10.004 6.8223z" fill="#fff"/>
</svg>
