<svg xmlns="http://www.w3.org/2000/svg" viewBox="0 0 48 48">
   <path d="M24 2A22 22 0 002 24a22 22 0 0022 22 22 22 0 0022-22A22 22 0 0024 2zm1.797 3.785c.15.018.335.129.633.34.383.272.818.455.851.34.13-.445 1.827 1.014 1.682 1.392-.168.437.132.64.502.383.552-.383.68-.273.527.336-.109.435.06.885.547 1.342.653.613.643.565.195 1.07-.342.386-.33.476-.132.643.485.408.36.682-.096.873-.254.106-.372.142-.268.398l.325.801c.089.22.03.4-.133.4s-.295.12-.295.266c0 .15.732.268 1.666.268h1.666l1.935 2.115c1.064 1.163 1.934 2.302 1.934 2.533 0 .534-.896.547-1.334.02-.183-.22-.248-.4-.143-.4.343 0-2.071-2.716-2.648-2.98-.432-.196-.834-.101-1.732.409l-1.17.664 1.046-.125c.576-.069 1.175-.03 1.332.086.158.116.788 1.254 1.4 2.53 1.402 2.913 1.497 4.315.25 3.648-.397-.213-.49-.462-.378-1.018.081-.405.047-.845-.074-.976-.121-.132-.358-.675-.528-1.207-.17-.533-.544-1.181-.832-1.442-.504-.456-.591-.437-2.418.502-1.041.536-2.003.906-2.138.822-.136-.083-.865.053-1.62.303-1.057.351-1.864.418-3.527.291l-2.156-.164-.605 1.057c-.334.582-.964 1.242-1.4 1.468-.438.226-.796.619-.796.872.001.607 1.864 3.39 2.908 4.343 1.02.932 1.047 1.319.092 1.317-.726-.002-.942-.244-2.129-2.387-.199-.36-.776-1.161-1.283-1.78-.911-1.112-1.17-2.048-.654-2.367.65-.401.175-.572-.729-.261-1.345.462-1.68 1.076-1.748 3.181-.053 1.674-.01 1.821.676 2.323.961.701.954 1.29-.016 1.29-.609 0-.83-.185-1.187-1-.32-.728-.425-1.656-.385-3.421.053-2.33.088-2.462.942-3.434.81-.923.873-1.117.726-2.244-.112-.858-.037-1.467.246-1.998.544-1.02.532-1.05-.392-.914-.546.08-.801.005-.801-.236 0-.444-.268-.438-.867.017-.64.486-.59.745.31 1.608.427.409.836.969.908 1.246.153.585-.743 1.843-1.312 1.843-.214 0-.459.18-.543.4-.2.523-.795.514-.998-.015-.096-.25.103-.66.504-1.031.365-.339.666-.692.666-.785 0-.093-.482-.65-1.069-1.236-.955-.955-1.066-1.205-1.066-2.377 0-1.145.108-1.4.85-2.024 1.136-.956 2.152-.75 3.482.705.871.953 1.092 1.065 1.734.883.405-.114 1.955-.218 3.446-.23 2.57-.023 2.77-.067 3.865-.836 1.161-.816 2.347-2.522 2.355-3.39.007-.657-.441-.579-1.236.216-.737.737-1.346.768-1.773.09-.198-.314-.142-.6.205-1.067.046-.062.058-.062.096-.107l.537-1.125V8.84c.173-.458.515-1.129.787-1.455.206-.248.296-.575.2-.729-.094-.154-.016-.449.175-.654.148-.16.26-.234.41-.217zm-4.43 26.666c.317 0 .6.06.848.176.248.117.442.283.584.5.142.215.213.454.213.717h-.787c0-.238-.077-.423-.227-.557-.148-.135-.36-.203-.637-.203-.258 0-.46.056-.603.166a.554.554 0 00-.213.463c0 .167.076.305.23.418.155.11.41.22.764.326.354.104.639.224.854.36.214.133.372.287.472.462.1.173.15.376.15.61 0 .38-.145.68-.437.906-.29.223-.685.336-1.183.336-.33 0-.633-.06-.91-.182a1.547 1.547 0 01-.643-.508 1.263 1.263 0 01-.229-.75h.791c0 .259.085.46.256.602.171.142.416.21.735.21.275 0 .481-.053.619-.163a.546.546 0 00.21-.445c0-.2-.07-.355-.212-.463-.14-.109-.393-.218-.76-.328a3.69 3.69 0 01-.877-.37c-.415-.26-.621-.6-.621-1.02 0-.366.15-.668.447-.905.3-.238.689-.358 1.166-.358zm4.088 0c.371 0 .699.09.984.27.288.177.51.434.666.77.157.333.237.721.239 1.165v.254c0 .446-.078.838-.233 1.176a1.756 1.756 0 01-.662.775 1.82 1.82 0 01-.988.27 1.84 1.84 0 01-.988-.27 1.8 1.8 0 01-.67-.771 2.723 2.723 0 01-.239-1.154v-.258c0-.444.08-.836.237-1.176.158-.34.38-.598.666-.777.287-.182.617-.274.988-.274zm-17.332.063h1.742c.509 0 .913.133 1.211.398.3.265.45.615.45 1.05 0 .447-.148.794-.442 1.042-.292.248-.701.371-1.229.371h-.94v1.693h-.792v-4.554zm4.09 0h2.957v.638h-2.164v1.258h1.869v.625h-1.87v1.4h2.186v.633h-2.978v-4.554zm3.629 0h1.601c.526 0 .93.118 1.215.353.286.236.43.577.43 1.024 0 .304-.075.559-.223.765-.146.205-.35.362-.613.473l1.023 1.898v.041h-.847l-.914-1.755h-.881v1.755h-.791v-4.554zm12.295 0h.79l2.038 3.244v-3.244h.785v4.554h-.793l-2.03-3.23v3.23h-.79v-4.554zm5.93 0h.708l1.725 4.554h-.826l-.373-1.06h-1.764l-.369 1.06h-.822l1.72-4.554zm2.95 0h.792v3.922h2.068v.632h-2.86v-4.554zm-11.562.595a.937.937 0 00-.805.403c-.191.267-.288.645-.293 1.134v.264c0 .5.096.887.29 1.16.195.273.468.41.814.41.35 0 .619-.133.807-.4.19-.267.283-.657.283-1.17v-.238c0-.505-.096-.891-.287-1.16-.19-.27-.459-.403-.809-.403zm-16.54.043v1.588h.95c.282 0 .497-.064.645-.195.148-.134.222-.326.222-.576 0-.246-.076-.442-.226-.588-.15-.148-.357-.224-.62-.229h-.972zm7.718 0v1.526h.812c.267 0 .475-.066.625-.2a.708.708 0 00.227-.552c0-.244-.071-.433-.211-.567-.138-.133-.344-.202-.62-.207h-.833zm17.787.328l-.66 1.89h1.32l-.66-1.89z" fill="#fff"/>
</svg>
