<?xml version="1.0" encoding="UTF-8" standalone="no"?>
<svg
   xmlns:dc="http://purl.org/dc/elements/1.1/"
   xmlns:cc="http://creativecommons.org/ns#"
   xmlns:rdf="http://www.w3.org/1999/02/22-rdf-syntax-ns#"
   xmlns:svg="http://www.w3.org/2000/svg"
   xmlns="http://www.w3.org/2000/svg"
   xmlns:sodipodi="http://sodipodi.sourceforge.net/DTD/sodipodi-0.dtd"
   xmlns:inkscape="http://www.inkscape.org/namespaces/inkscape"
   width="48"
   height="48"
   viewBox="0 0 48 48"
   version="1.1"
   id="svg353"
   sodipodi:docname="lloydsbank.svg"
   inkscape:version="0.92.5 (2060ec1f9f, 2020-04-08)">
  <metadata
     id="metadata359">
    <rdf:RDF>
      <cc:Work
         rdf:about="">
        <dc:format>image/svg+xml</dc:format>
        <dc:type
           rdf:resource="http://purl.org/dc/dcmitype/StillImage" />
        <dc:title></dc:title>
      </cc:Work>
    </rdf:RDF>
  </metadata>
  <defs
     id="defs357" />
  <sodipodi:namedview
     pagecolor="#ffffff"
     bordercolor="#666666"
     borderopacity="1"
     objecttolerance="10"
     gridtolerance="10"
     guidetolerance="10"
     inkscape:pageopacity="0"
     inkscape:pageshadow="2"
     inkscape:window-width="1366"
     inkscape:window-height="768"
     id="namedview355"
     showgrid="false"
     inkscape:zoom="8.3821616"
     inkscape:cx="24"
     inkscape:cy="24"
     inkscape:window-x="0"
     inkscape:window-y="0"
     inkscape:window-maximized="0"
     inkscape:current-layer="svg353" />
  <path
     style="fill:#ffffff;stroke-width:0.31492713"
     d="m 19.371815,42.830436 c -0.22329,-0.08471 -0.40599,-0.359613 -0.40599,-0.610891 0,-0.348792 0.23056,-0.409254 0.97463,-0.255601 0.75835,0.156605 1.02346,0.08161 1.1947,-0.33795 0.14674,-0.359533 0.0177,-0.647473 -0.38716,-0.864078 -0.33397,-0.178674 -0.9352,-0.618898 -1.33605,-0.978275 -1.29634,-1.162215 -0.20416,-2.708787 1.76225,-2.495427 1.23537,0.134042 1.15761,0.985984 -0.0913,1.000228 -1.21847,0.0139 -1.5344,0.925903 -0.43042,1.242538 0.41208,0.118193 1.00501,0.42606 1.31762,0.684154 1.56069,1.288533 -0.5351,3.398045 -2.59829,2.615302 z m 4.57517,-0.583279 c -0.74617,-0.701555 -0.81942,-0.967571 -0.68525,-2.4887 0.16705,-1.893953 0.73419,-2.527758 2.2619,-2.527758 1.47837,0 2.21142,0.954287 2.21142,2.878824 0,1.426755 -0.11907,1.745414 -0.85576,2.290254 -1.13458,0.839101 -1.92106,0.798165 -2.93231,-0.15262 z m 2.09445,-0.388995 c 0.5941,-0.354413 0.85825,-2.28588 0.41832,-3.058747 -0.52995,-0.931006 -1.59069,-0.83354 -2.00215,0.183965 -0.39342,0.972914 -0.12867,2.715224 0.44586,2.934177 0.57821,0.220355 0.67774,0.21516 1.13797,-0.05939 z M 5.000015,39.938796 v -2.788512 l 1.37702,0.173656 c 0.86609,0.10922 1.59194,0.423189 1.95624,0.846185 0.97144,1.127952 0.0284,2.72498 -1.60901,2.72498 -0.61669,0 -0.74989,0.162727 -0.74989,0.916102 0,0.610733 -0.16239,0.916101 -0.48718,0.916101 -0.39748,0 -0.48718,-0.513415 -0.48718,-2.788512 z m 2.54573,-0.686618 c 0.0641,-0.31578 -0.0806,-0.69157 -0.32147,-0.835086 -0.83849,-0.499607 -1.2499,-0.280048 -1.2499,0.667048 0,0.796257 0.10949,0.922651 0.72745,0.83976 0.40192,-0.05391 0.77957,-0.354508 0.84392,-0.671722 z m 2.06983,0.803167 0.0938,-2.671964 1.70513,-0.0923 c 1.36682,-0.07399 1.70513,0.0018 1.70513,0.38171 0,0.338144 -0.32582,0.474009 -1.13675,0.474009 -0.99602,0 -1.13676,0.09452 -1.13676,0.763417 0,0.644663 0.15157,0.763417 0.97436,0.763417 0.64958,0 0.97436,0.152684 0.97436,0.458051 0,0.305369 -0.32478,0.458051 -0.97436,0.458051 -0.75783,0 -0.97436,0.135718 -0.97436,0.610735 0,0.494404 0.21653,0.610735 1.13676,0.610735 0.79392,0 1.13675,0.138141 1.13675,0.458051 0,0.352023 -0.41641,0.45805 -1.79897,0.45805 h -1.79897 z m 4.54701,0 0.0938,-2.671964 1.4078,0.06038 c 0.77429,0.03321 1.61468,0.221805 1.86752,0.419098 0.60151,0.469365 0.59,1.939708 -0.0189,2.414837 -0.42164,0.329013 -0.42164,0.477078 0,1.243697 0.59594,1.083519 0.59592,1.205917 -2.1e-4,1.205917 -0.26336,0 -0.70558,-0.412245 -0.9827,-0.916101 -0.27712,-0.503856 -0.64626,-0.916102 -0.82031,-0.916102 -0.17404,0 -0.31644,0.412246 -0.31644,0.916102 0,0.718354 -0.14295,0.916101 -0.66222,0.916101 -0.62313,0 -0.65668,-0.157722 -0.56838,-2.671963 z m 2.62118,-0.458051 c 0.20994,-0.550492 -0.3577,-1.450493 -0.91483,-1.450493 -0.31209,0 -0.47576,0.315148 -0.47576,0.916101 0,0.699247 0.14736,0.916102 0.62251,0.916102 0.34238,0 0.68801,-0.171769 0.76808,-0.38171 z m 11.99421,0.482694 c 0.0586,-1.653442 0.23416,-2.690996 0.46762,-2.763661 0.20558,-0.06399 0.99406,0.715063 1.75218,1.731217 0.75813,1.016158 1.44091,1.847561 1.51729,1.847561 0.0764,0 0.1,-0.790137 0.0524,-1.755862 -0.0672,-1.364395 0.018,-1.755862 0.38244,-1.755862 0.36585,0 0.48957,0.587384 0.56278,2.671964 0.0848,2.414342 0.0367,2.671963 -0.49835,2.671963 -0.3257,0 -0.83649,-0.377891 -1.13509,-0.83976 -0.2986,-0.461869 -0.87819,-1.225671 -1.28798,-1.697344 l -0.74507,-0.857581 0.11126,1.697342 c 0.10234,1.56138 0.0558,1.697343 -0.58102,1.697343 -0.66049,0 -0.68797,-0.121548 -0.59843,-2.64732 z m 5.62389,2.010843 c 2.09108,-6.19447 2.29745,-6.234829 4.16229,-0.814018 0.47924,1.393065 0.47406,1.450495 -0.13086,1.450495 -0.34642,0 -0.62986,-0.206122 -0.62986,-0.45805 0,-0.31991 -0.34283,-0.458051 -1.13675,-0.458051 -0.79393,0 -1.13676,0.138141 -1.13676,0.458051 0,0.259449 -0.29113,0.45805 -0.67146,0.45805 -0.5327,0 -0.62706,-0.131522 -0.4566,-0.636477 z m 2.72917,-1.73012 c -0.0126,-0.293915 -0.13428,-0.802195 -0.2705,-1.129512 -0.21638,-0.519924 -0.29557,-0.465933 -0.62675,0.427275 -0.48081,1.296787 -0.49396,1.236631 0.2705,1.236631 0.41081,0 0.64119,-0.196426 0.62675,-0.534394 z m 2.68967,-0.305366 c 0.0749,-2.132288 0.19224,-2.671964 0.58102,-2.671964 0.37947,0 0.50827,0.489444 0.5826,2.213913 l 0.0954,2.213913 h 0.96013 c 0.63693,0 0.96013,0.154191 0.96013,0.458051 0,0.346554 -0.39837,0.45805 -1.63658,0.45805 h -1.63657 z M 11.495745,34.32971 c 0,-0.399225 1.60588,-0.45805 12.50427,-0.45805 10.89839,0 12.50427,0.05882 12.50427,0.45805 0,0.399226 -1.60588,0.458051 -12.50427,0.458051 -10.89839,0 -12.50427,-0.05882 -12.50427,-0.458051 z m 0.21652,-2.493832 c -0.11909,-0.111966 -0.21652,-0.444053 -0.21652,-0.73797 0,-0.293915 -0.17403,-0.588934 -0.38673,-0.655592 -0.27216,-0.0853 -0.36215,-1.020061 -0.30378,-3.155462 0.0806,-2.950238 0.11158,-3.062216 1.11749,-4.043768 0.92656,-0.904128 1.03743,-1.206955 1.06214,-2.900989 0.0152,-1.040313 0.14781,-2.222171 0.29476,-2.62635 0.25412,-0.698945 0.21537,-0.725128 -0.79261,-0.535584 -0.90629,0.170419 -1.02929,0.124532 -0.84917,-0.316795 0.19719,-0.483128 0.17177,-0.483009 -0.39807,0.0019 -0.33479,0.284866 -0.70647,0.426028 -0.82595,0.313694 -0.11947,-0.112332 -0.21723,8.24e-4 -0.21723,0.251473 0,0.250644 0.37881,0.788855 0.84179,1.196023 1.79596,1.579446 1.77523,2.799187 -0.0598,3.520083 -0.6073,0.238574 -1.06822,0.603922 -1.02426,0.811884 0.12307,0.582281 -0.77853,0.447616 -1.18383,-0.176817 -0.29745,-0.458286 -0.20463,-0.673007 0.53298,-1.23294 1.13765,-0.863606 1.12207,-1.144515 -0.11106,-2.001693 -2.30557,-1.602667 -2.3438,-4.642346 -0.0727,-5.779625 1.23692,-0.619394 2.03629,-0.3929 3.66326,1.037954 l 1.58416,1.393202 1.58167,-0.44162 c 1.16137,-0.324269 2.05286,-0.370971 3.35491,-0.175751 3.04021,0.455827 5.7079,-0.82961 6.8765,-3.313472 0.82444,-1.752357 0.36942,-2.3492538 -0.88895,-1.166121 -1.05425,0.991216 -2.21665,0.955515 -2.37171,-0.07284 -0.0584,-0.387136 0.0319,-0.868089 0.20058,-1.0687848 0.85847,-1.021348 2.20774,-3.794661 2.08935,-4.294497 -0.0847,-0.357787 -0.002,-0.493411 0.22088,-0.363687 0.1958,0.113779 0.356,0.04554 0.356,-0.151639 0,-0.238012 0.26907,-0.192751 0.80054,0.134662 0.4403,0.271244 1.00946,0.493171 1.2648,0.493171 0.25534,0 0.93363,0.412246 1.50731,0.916101 0.57368,0.503856 1.26388,0.916102 1.53377,0.916102 0.34769,0 0.43551,0.198486 0.3013,0.681021 -0.13241,0.476048 0.0555,0.921376 0.62431,1.479594 0.72632,0.7127788 0.75916,0.8411578 0.30574,1.1949658 -0.46029,0.359162 -0.45894,0.447361 0.0143,0.939041 0.48312,0.501928 0.47124,0.568347 -0.15833,0.885139 -0.57862,0.291152 -0.62436,0.441373 -0.30516,1.002149 0.28099,0.493645 0.28203,0.688949 0.004,0.776044 -1.02884,0.322442 -0.13787,0.676225 1.703,0.676225 h 2.07437 l 2.47264,2.605955 c 1.35997,1.433275 2.47266,2.747428 2.47266,2.920335 0,0.172909 -0.475,0.271322 -1.05556,0.218692 -0.68772,-0.06234 -1.05754,-0.259928 -1.06127,-0.567001 -0.003,-0.259222 -0.18743,-0.671468 -0.40952,-0.916101 -0.22209,-0.244634 -0.70742,-0.825428 -1.07851,-1.29065 -0.3711,-0.465225 -1.06494,-1.035591 -1.54189,-1.267483 -0.7639,-0.371407 -1.00224,-0.354021 -2.00124,0.145985 l -1.13406,0.567606 1.2107,0.0128 c 1.20237,0.01271 1.22083,0.03236 2.67949,2.851529 1.32102,2.553143 1.88973,4.79545 1.21626,4.79545 -0.13889,0 -0.57786,-0.214253 -0.9755,-0.476119 -0.57371,-0.377816 -0.6555,-0.594659 -0.39617,-1.050253 0.17974,-0.315775 0.2003,-0.647642 0.0457,-0.737484 -0.15461,-0.08984 -0.46426,-0.77838 -0.68811,-1.530082 -0.22385,-0.751703 -0.66758,-1.588458 -0.98607,-1.859457 -0.53736,-0.457229 -0.74771,-0.412878 -2.91998,0.61565 -1.2875,0.609606 -2.52741,1.041087 -2.75535,0.958844 -0.22795,-0.08224 -1.05278,0.06092 -1.83297,0.318133 -1.05656,0.348336 -2.13423,0.42177 -4.22353,0.287802 l -2.80503,-0.179863 -0.4112,0.93337 c -0.22616,0.513354 -0.97351,1.358238 -1.66078,1.877521 -0.68728,0.519285 -1.24959,1.083342 -1.24959,1.253465 0,0.604221 2.70172,4.196634 3.61694,4.809364 1.23643,0.827773 1.21303,1.497187 -0.0523,1.497187 -0.74904,0 -1.05572,-0.18134 -1.2911,-0.763418 -0.16979,-0.419881 -0.45848,-0.763419 -0.64154,-0.763419 -0.18305,0 -0.33291,-0.240477 -0.33303,-0.534392 -1.1e-4,-0.293915 -0.6578,-1.321969 -1.46154,-2.284565 -1.42047,-1.701237 -1.80055,-2.749862 -1.13654,-3.135703 0.17863,-0.103799 0.32478,-0.345515 0.32478,-0.537145 0,-0.250968 -0.10901,-0.245928 -0.38974,0.01802 -0.21436,0.201543 -0.62489,0.366441 -0.91228,0.366441 -1.10218,0 -1.71321,0.801328 -1.97054,2.584217 -0.28214,1.954771 0.0279,3.101148 1.01433,3.750774 0.94812,0.624378 0.7996,1.299188 -0.28593,1.299188 -0.50612,0 -1.01766,-0.09161 -1.13675,-0.203579 z m 0.59315,-8.037838 c 0.11378,-0.1731 -0.0166,-0.224294 -0.30562,-0.120012 -0.56267,0.203006 -0.66562,0.421881 -0.19844,0.421881 0.1681,0 0.39492,-0.13584 0.50406,-0.301869 z m 5.87781,-7.279419 c -1.0097,-0.110585 -2.57469,0.403977 -3.12509,1.027513 -0.2388,0.270539 0.36888,0.184042 1.83984,-0.261879 1.7918,-0.543184 2.02856,-0.684225 1.28525,-0.765634 z m -9.12338,-1.579727 c 0.1104,-0.167952 0.78535,-0.305367 1.49987,-0.305367 0.7834,0 1.21946,-0.121229 1.09842,-0.305367 -0.48018,-0.730497 -3.41026,-0.05583 -3.41026,0.78523 0,0.257284 0.61503,0.125113 0.81197,-0.174496 z m 15.79397,-6.1073428 c 1.01872,-1.331123 1.40021,-2.233251 0.87475,-2.06857 -0.21065,0.06602 -0.48479,0.317978 -0.60921,0.559909 -0.12441,0.241931 -0.5577,1.058244 -0.96287,1.814028 -0.79097,1.4754608 -0.60236,1.3928658 0.69733,-0.305367 z m 4.15716,-0.727391 -1.06173,-0.952129 0.86726,1.015873 c 0.477,0.55873 0.88422,1.245806 0.90495,1.526835 0.0305,0.4132108 0.0677,0.4010158 0.19446,-0.06374 0.10277,-0.376698 -0.20902,-0.902753 -0.90494,-1.526836 z"
     id="path451"
     inkscape:connector-curvature="0" />
</svg>
