<?xml version="1.0" encoding="utf-8"?>
<!-- Generator: Adobe Illustrator 21.1.0, SVG Export Plug-In . SVG Version: 6.00 Build 0)  -->
<svg version="1.0" id="Layer_1" xmlns="http://www.w3.org/2000/svg" xmlns:xlink="http://www.w3.org/1999/xlink" x="0px" y="0px"
	 viewBox="0 0 48 48" style="enable-background:new 0 0 48 48;" xml:space="preserve">
<style type="text/css">
	.st0{fill:#FFFFFF;}
</style>
<g>
	<path class="st0" d="M42.9,34.2c0,0.6,0,1.1,0,1.7c0,0.2-0.1,0.5-0.1,0.7c-0.6,3.7-3.6,6.9-7.3,7.6c-0.4,0.1-0.8,0.1-1.2,0.2
		c-0.5,0-1.1,0-1.6,0c-0.1,0-0.1,0-0.2,0c-3.7-0.5-6.3-2.5-7.8-6c-0.1-0.2-0.2-0.3-0.4-0.3c-6.1,0-12.2,0-18.3,0
		c-0.3,0-0.6-0.1-0.8-0.4c-0.1-0.2-0.2-0.4-0.2-0.6C5,37,5,36.8,5,36.7C5,27.8,5,19,5,10.2c0-0.1,0-0.2,0-0.3c0-0.3,0.1-0.6,0.3-0.9
		c0.2-0.2,0.4-0.4,0.7-0.4c0.4,0,0.8,0,1.2,0c0.2,0,0.3,0,0.5,0c0,0.1,0,0.2,0,0.2c0,0.6,0,1.2,0,1.8c0,0.8,0.5,1.3,1.3,1.3
		c1,0,2.1,0,3.1,0c0.8,0,1.3-0.6,1.3-1.3c0-0.6,0-1.2,0-1.8c0-0.1,0-0.1,0-0.2c5.2,0,10.4,0,15.7,0c0,0.1,0,0.2,0,0.2
		c0,0.8,0,1.7,0,2.5c0,0.8,0.6,1.4,1.3,1.4c1,0,2.1,0,3.1,0c0.8,0,1.3-0.6,1.3-1.4c0-0.8,0-1.7,0-2.5c0-0.1,0-0.1,0-0.2
		c0.1,0,0.2,0,0.2,0c0.6,0,1.2,0,1.7,0c0.4,0,0.6,0.2,0.8,0.5c0.2,0.3,0.3,0.7,0.3,1.1c0,5.4,0,10.8,0,16.3c0,0.2,0,0.2,0.2,0.3
		c2.4,1.4,3.9,3.4,4.5,6C42.8,33.3,42.8,33.7,42.9,34.2z M8.7,15.8c0,6.4,0,12.7,0,19c5.1,0,10.2,0,15.3,0c0-1,0.2-2,0.5-3
		c-0.8,0-1.6,0-2.4,0c0-0.9,0-1.8,0-2.7c0.1,0,0.2,0,0.2,0c1.2,0,2.3,0,3.5,0c0.1,0,0.2,0,0.3-0.1c0.8-1,1.8-1.8,3-2.4
		c0.4-0.2,0.7-0.3,1.1-0.5c-0.8,0-1.6,0-2.4,0c0-0.9,0-1.8,0-2.7c1.4,0,2.9,0,4.3,0c0,0.8,0,1.5,0,2.2c0.7,0,1.4,0,2.1,0
		c0-3.3,0-6.5,0-9.8C25.9,15.8,17.3,15.8,8.7,15.8z M40.8,35c0-4-3.3-7.3-7.3-7.3c-4,0-7.3,3.3-7.3,7.3c0,4,3.3,7.3,7.3,7.3
		C37.5,42.3,40.8,39,40.8,35z"/>
	<path class="st0" d="M9,7.9C9,7,9,6.1,9,5.2C9,5.1,9.1,5,9.3,5c0.9,0,1.9,0,2.8,0c0.2,0,0.2,0.1,0.2,0.2c0,1.8,0,3.6,0,5.4
		c0,0.2-0.1,0.2-0.2,0.2c-0.9,0-1.9,0-2.8,0c-0.2,0-0.3-0.1-0.3-0.3C9,9.7,9,8.8,9,7.9z"/>
	<path class="st0" d="M33.7,8.7c0,0.9,0,1.8,0,2.7c0,0.2-0.1,0.2-0.2,0.2c-0.9,0-1.9,0-2.8,0c-0.2,0-0.2-0.1-0.2-0.2
		c0-1.8,0-3.6,0-5.4c0-0.2,0.1-0.2,0.2-0.2c0.9,0,1.9,0,2.8,0c0.2,0,0.2,0.1,0.2,0.2C33.7,6.8,33.7,7.8,33.7,8.7z"/>
	<path class="st0" d="M11.1,20c0-0.9,0-1.8,0-2.7c1.4,0,2.8,0,4.3,0c0,0.9,0,1.8,0,2.7C14,20,12.5,20,11.1,20z"/>
	<path class="st0" d="M21.1,17.3c0,0.9,0,1.8,0,2.7c-1.4,0-2.8,0-4.3,0c0-0.9,0-1.8,0-2.7C18.2,17.3,19.6,17.3,21.1,17.3z"/>
	<path class="st0" d="M32.5,17.3c0,0.9,0,1.8,0,2.7c-1.4,0-2.8,0-4.3,0c0-0.9,0-1.8,0-2.7C29.6,17.3,31,17.3,32.5,17.3z"/>
	<path class="st0" d="M15.2,23.4c0,0.9,0,1.8,0,2.7c-1.4,0-2.8,0-4.3,0c0-0.9,0-1.8,0-2.7C12.3,23.4,13.7,23.4,15.2,23.4z"/>
	<path class="st0" d="M16.6,23.4c1.4,0,2.8,0,4.3,0c0,0.9,0,1.8,0,2.7c-1.4,0-2.8,0-4.3,0C16.6,25.2,16.6,24.3,16.6,23.4z"/>
	<path class="st0" d="M22.3,26.1c0-0.9,0-1.8,0-2.7c1.4,0,2.8,0,4.3,0c0,0.9,0,1.8,0,2.7C25.1,26.1,23.7,26.1,22.3,26.1z"/>
	<path class="st0" d="M15.1,29.2c0,0.9,0,1.8,0,2.7c-1.4,0-2.9,0-4.3,0c0-0.9,0-1.8,0-2.7C12.2,29.2,13.6,29.2,15.1,29.2z"/>
	<path class="st0" d="M20.8,29.1c0,0.9,0,1.8,0,2.7c-1.4,0-2.8,0-4.3,0c0-0.9,0-1.8,0-2.7C17.9,29.1,19.3,29.1,20.8,29.1z"/>
	<path class="st0" d="M26.8,17.3c0,0.9,0,1.8,0,2.7c-1.4,0-2.8,0-4.3,0c0-0.9,0-1.8,0-2.7C23.9,17.3,25.3,17.3,26.8,17.3z"/>
	<path class="st0" d="M28.8,30.4c0.2-0.1,0.4-0.2,0.5-0.3c0.1,0.2,0.2,0.3,0.3,0.5c2,3.5,4.1,7,6.1,10.5c0.1,0.2,0.1,0.3-0.1,0.3
		c-0.1,0-0.2,0.1-0.3,0.2c0-0.1-0.1-0.1-0.1-0.2c-0.6-1-1.1-2-1.7-3c-0.1-0.1-0.2-0.2-0.3-0.2c-1,0-2.1,0-3.1,0
		c-0.8,0-1.4-0.6-1.3-1.4c0-0.4,0.2-0.7,0.6-1c0.1,0,0.1-0.2,0.1-0.2c-0.1-0.9,0.2-1.7,0.9-2.4c0.1-0.1,0.1-0.2,0-0.4
		c-0.5-0.8-0.9-1.6-1.4-2.3C28.9,30.5,28.9,30.4,28.8,30.4z M30.7,33.7c-0.1,0.1-0.1,0.1-0.2,0.2c-0.5,0.6-0.6,1.3-0.5,2
		c0,0.2,0,0.3-0.2,0.4c0,0-0.1,0-0.1,0c-0.3,0.2-0.5,0.4-0.4,0.8c0.1,0.3,0.3,0.5,0.7,0.5c0.9,0,1.8,0,2.7,0c0.1,0,0.1,0,0.2,0
		C32.2,36.3,31.5,35,30.7,33.7z"/>
	<path class="st0" d="M34.5,37.6c0.1,0,0.2,0,0.3,0c0.9,0,1.8,0,2.7,0c0.5,0,1-0.4,1-0.9c0-0.5-0.3-1-0.9-1c-0.3,0-0.5-0.1-0.6-0.4
		c-0.4-0.7-1.2-1.1-2-0.8c-0.2,0.1-0.3,0.2-0.5,0.1c-0.1,0-0.2-0.3-0.3-0.4C33.7,33.4,33,33,32,33.1c-0.1,0-0.1,0-0.2-0.1
		c-0.1-0.1-0.2-0.3-0.3-0.5c0.2,0,0.4-0.1,0.6-0.1c1.1,0,1.9,0.4,2.5,1.3c0.1,0.1,0.2,0.1,0.3,0.1c1-0.2,2,0.2,2.5,1.1
		c0.1,0.1,0.1,0.2,0.3,0.2c0.8,0.2,1.4,0.9,1.3,1.7c0,0.8-0.8,1.5-1.6,1.5c-0.8,0-1.7,0-2.5,0c-0.2,0-0.3,0-0.3-0.2
		C34.7,37.9,34.6,37.8,34.5,37.6z"/>
</g>
</svg>
