<svg height="48" viewBox="0 0 12.7 12.7" width="48" xmlns="http://www.w3.org/2000/svg"><path d="m6.3499925.66146c-1.497186 1.49719-4.7625 1.32292-4.7625 1.32292v5.55624s-.0908 3.19748 4.7625 4.49792c4.8572295-1.30149 4.7624995-4.49792 4.7624995-4.49792v-5.55624s-3.2563375.18324-4.7624995-1.32292zm0 3.3569a2.3812498 2.3812498 0 0 1 2.38125 2.38125 2.3812498 2.3812498 0 0 1 -2.38125 2.38125 2.3812498 2.3812498 0 0 1 -2.38125-2.38125 2.3812498 2.3812498 0 0 1 2.38125-2.38125zm0 .26458a2.1166665 2.1166665 0 0 0 -2.116667 2.11667 2.1166665 2.1166665 0 0 0 2.116667 2.11667 2.1166665 2.1166665 0 0 0 2.116666-2.11667 2.1166665 2.1166665 0 0 0 -2.116666-2.11667zm0 1.28985a.6614583.6614583 0 0 1 .661458.66145.6614583.6614583 0 0 1 -.502812.64131v.41703a.15875.15875 0 0 1 -.158646.15864.15875.15875 0 0 1 -.158647-.15864v-.41703a.6614583.6614583 0 0 1 -.502812-.64131.6614583.6614583 0 0 1 .661459-.66145z" fill="#fff"/></svg>