<svg id="Layer_1" data-name="Layer 1" xmlns="http://www.w3.org/2000/svg" viewBox="0 0 48 48"><defs><style>.cls-1{fill:#fff;}</style></defs><title>lockwise</title><path class="cls-1" d="M24,2A22,22,0,1,0,46,24,22,22,0,0,0,24,2ZM40.4,28.48c-.74.83-1.22,1.37-2,2.17a1.81,1.81,0,0,1-2.55.09,1.93,1.93,0,0,1-.3-.35,1.81,1.81,0,0,1,.19-2.22c.72-.77,1.19-1.3,1.91-2.11a3.48,3.48,0,0,0,.17-3.91l-.16-.21A136,136,0,0,0,26.07,10.29a3.47,3.47,0,0,0-4.15,0A137.36,137.36,0,0,0,10.29,21.93a3.45,3.45,0,0,0,0,4.14c3.79,4.26,11.9,11.84,12,11.93A3.54,3.54,0,0,0,26,37.7c1.48-1.33,2.89-2.58,4.3-3.93h0L25.78,29h0A3.4,3.4,0,0,1,26,24l.06,0a3.63,3.63,0,0,0,1.3-3,3.39,3.39,0,0,0-.18-1,3.4,3.4,0,0,0-6.4,0,3.1,3.1,0,0,0-.18,1,3.66,3.66,0,0,0,1.3,3l0,0a3.4,3.4,0,0,1,.25,5l-1.76,1.81a1.81,1.81,0,0,1-2.6-2.51l1.38-1.41a.32.32,0,0,0,0-.45,7.25,7.25,0,0,1-2.2-5.5,7.42,7.42,0,0,1,.37-2,7,7,0,0,1,13.23,0,7.42,7.42,0,0,1,.37,2,7.22,7.22,0,0,1-2.24,5.53.33.33,0,0,0,0,.45l5,5.23a2.42,2.42,0,0,1,.71,1.73,2.38,2.38,0,0,1-.72,1.72c-.82.81-1.66,1.6-2.51,2.38l-.13.14-2.59,2.35h0A6.69,6.69,0,0,1,24,42a6.7,6.7,0,0,1-4.47-1.6h0C15.63,36.93,7.76,28.65,7.59,28.46a0,0,0,0,0,0,0,7.05,7.05,0,0,1,0-8.91h0A139.9,139.9,0,0,1,19.53,7.6h0a7,7,0,0,1,8.92,0h0A141.49,141.49,0,0,1,40.4,19.54a0,0,0,0,0,0,0,7.05,7.05,0,0,1,0,8.92A0,0,0,0,1,40.4,28.48Z"/></svg>