<?xml version="1.0" encoding="utf-8"?>
<!-- Generator: Adobe Illustrator 21.1.0, SVG Export Plug-In . SVG Version: 6.00 Build 0)  -->
<svg version="1.0" id="Layer_1" xmlns="http://www.w3.org/2000/svg" xmlns:xlink="http://www.w3.org/1999/xlink" x="0px" y="0px"
	 viewBox="0 0 48 48" style="enable-background:new 0 0 48 48;" xml:space="preserve">
<style type="text/css">
	.st0{fill:#FFFFFF;}
</style>
<path class="st0" d="M2,23.9C2.3,11.6,11.8,1.9,24.2,2C36.3,2.1,46.1,11.5,46,24.1c0,12.4-9.7,22-22.1,21.9
	C11.4,45.9,2.1,36.1,2,23.9z M26.8,20.4c-1.3-1.6-2.2-3.3-1.2-5.4c0.2-0.4,0.8-0.7,1.2-1c0.1,0.1,0.2,0.2,0.3,0.3
	c-0.1,0.2-0.3,0.3-0.4,0.5c-1,1.1-1.1,2.5-0.3,4c0.6,1.2,1.6,1.6,2.9,1.4c1.4-0.2,2.9,0,4.7,0c-0.8,0.2-1.4,0.5-2,0.5
	c-1.3,0.1-2.5,0.1-3.8,0.3c-1.2,0.1-2.3,0.5-2.7,1.9c-0.3,1.2,0.2,2.7,1.3,3.5c0.3,0.2,0.7,0.5,1.1,0.8c-0.6,0.4-1.2,0.7-1.5,1.1
	c-0.4,0.5-0.7,1.2-0.8,1.9c-0.1,0.3,0.2,1,0.5,1.1c0.3,0.1,0.9,0,1.3-0.2c1.7-0.9,2.4-0.9,3.3,0.2c-0.6,0-1,0-1.5,0.1
	c-1.8,0.2-3.2,1.8-3.2,3.6c0,1.5,1.3,2.8,3,3c1.6,0.2,3.8-1.3,4.4-3.1c-2.4-0.5-4.3,0.1-4.4,1.5c-1.1-0.3-1.3-0.8-0.5-1.4
	c0.6-0.4,1.4-0.7,2.2-0.8c1.6-0.3,3.1-0.3,4.7-0.6c1-0.2,1.4-0.9,0.9-1.9c-3.1,0.5-4.3,0.1-4.2-1.6c0.5,0.3,0.9,0.6,1.3,0.9
	c1,0.5,2.6,0.1,3.4-0.8c0.8-0.9,0.7-1.8,0.2-2.8c-0.6-1.1-1.4-1.1-2.5-0.5c0.2-0.4,0.5-0.7,0.6-1.1c0.3-0.8,0.4-1.8-0.6-1.9
	c-1.1-0.2-2.4-0.2-3.5,0.1c-0.5,0.1-1.1,1-1.2,1.6c0,0.5,0.7,1,1.2,1.5c0.1,0.1,0.5,0.1,0.8,0.2c-1,0.8-1.3,0.8-2.1,0.3
	c-1.5-1-1.6-3.1,0-3.9c0.8-0.5,1.9-0.5,2.9-0.7c1-0.2,2.2-0.1,3.1-0.5c0.6-0.3,1.3-1.3,1.3-2c0.1-1-0.7-1.9-1.8-2.1
	c-0.8-0.1-1.6,0-2.5,0.1c-1.1,0.1-2.3,0.4-3.4,0.4c-1.5,0-2.4-1.5-1.7-2.9c0.7-1.6,4.1-2.2,5.6-0.9c-0.5,0-0.8,0-1.1,0.1
	c-0.9,0.1-1.8,0.1-2.6,0.3C28.4,15.4,27.7,16,28,17c0.3,1,1.1,1.1,2,0.9c1.1-0.2,2.2-0.4,3.3-0.7c0.5-0.1,1.4-0.4,1.5-0.7
	c0.1-0.7,0-1.6-0.3-2.2c-1.1-1.6-3.4-2.2-5.3-1.5c-0.3,0.1-0.7,0.2-1.1,0.3C28.1,13,28,12.9,28,12.8c0.5-0.3,0.9-0.6,1.4-0.8
	c0.5-0.2,1.1-0.3,1.8-0.5c-0.6-1.1-1.4-1.6-2.5-1.4c-1.7,0.2-2.7,1.1-2.3,3.1C26.2,13.1,26,13,25.8,13c0-0.8-0.1-1.5-0.2-2.5
	c-0.4-0.1-1-0.3-1.5-0.3c-1.1-0.1-2,0.1-1.7,1.6c0.1,0.4-0.2,0.8-0.4,1.2c-0.4-2.1-0.9-2.8-2.6-3c-1.1-0.1-2,0.3-2.5,1.3
	c1.1,0.5,2.1,0.9,3.1,1.3C20,12.8,20,13,19.9,13.1c-0.4-0.1-0.7-0.2-1.1-0.3c-1.9-0.6-4.3,0-5.3,1.6c-0.4,0.5-0.5,1.4-0.3,2
	c0.1,0.3,0.9,0.6,1.4,0.7c1.1,0.3,2.2,0.4,3.2,0.7c1,0.2,1.9,0.2,2.3-0.9c0.3-0.8-0.6-1.8-1.8-1.9c-0.8-0.1-1.6,0-2.4-0.1
	c-0.3,0-0.5-0.1-0.9-0.2c1.6-1,4.4-0.7,5.3,0.5c0.3,0.4,0.5,1.1,0.4,1.7c-0.1,1.2-0.9,1.8-2.1,1.7c-1.5-0.1-3-0.5-4.5-0.6
	c-1.5-0.2-2.7,0.8-2.9,2.1c-0.2,1.1,0.6,2.1,2.1,2.5c1,0.2,2,0,3,0.3c1,0.3,2.1,0.6,2.9,1.3c0.9,0.8,0.5,2.4-0.5,3.2
	c-0.7,0.5-1.4,0.7-2.1-0.2c1.2-0.2,2.1-0.6,2-1.9c-0.1-1-0.9-1.6-2.4-1.6c-0.5,0-1-0.1-1.4,0c-0.5,0.1-1.4,0.3-1.5,0.6
	c-0.2,0.6,0.2,1.3,0.3,1.9c0,0.2,0.2,0.3,0.3,0.6c-1.6-0.6-2.2-0.4-2.7,0.9c-0.4,1-0.3,1.9,0.6,2.6c1,0.8,2.1,1.2,3.3,0.5
	c0.4-0.2,0.7-0.5,1.3-0.8c-0.4,1.8-0.9,1.9-4.3,1.7c-0.3,1.4,0.2,1.9,1.8,2.1c1.3,0.1,2.6,0.1,3.9,0.3c0.7,0.1,1.4,0.4,2,0.8
	c0.3,0.1,0.4,0.7,0.4,1c-0.1,0.2-0.6,0.4-1,0.6c0-1.5-2.5-2.3-4.6-1.4c0.8,0.8,1.5,1.5,2.4,2.1c1.4,1,2.8,0.9,4,0
	c1.1-0.8,1.5-2,1.1-3.2c-0.5-1.7-1.7-2.6-3.3-2.7c-0.4,0-0.7-0.1-1.1-0.1c0-0.1-0.1-0.2-0.1-0.3c0.4-0.2,0.8-0.5,1.2-0.4
	c0.8,0.1,1.5,0.5,2.2,0.7c0.4,0.1,0.9,0.3,1.2,0.1c0.3-0.2,0.6-0.8,0.5-1.1c-0.2-0.7-0.5-1.4-0.9-2c-0.3-0.4-0.9-0.6-1.4-1
	c0.4-0.3,0.7-0.5,0.9-0.7c1.3-0.9,1.8-2.2,1.4-3.6c-0.4-1.5-1.6-1.7-2.9-1.8c-1.2-0.1-2.5-0.1-3.7-0.3c-0.6-0.1-1.1-0.3-1.7-0.5
	c1.6-0.2,3.1-0.1,4.6,0c1.3,0.1,2.2-0.4,2.8-1.5c0.8-1.6,0.8-3.2-0.6-4.6c0.6,0.2,1.1,0.5,1.3,0.9c1.1,2.1,0.1,3.9-1.2,5.5
	c2.3,1.3,3.1,3.3,0.9,6.8c0.1,0.1,0.2,0.3,0.3,0.4c1.3,1.9,1.4,2.5,0.2,4.4c-0.1,0.2-0.1,0.5-0.1,0.7c0.1,1.2,0.1,2.3,0.3,3.5
	c0.1,0.4,0.3,1,0.6,1.1c0.5,0.2,1.1,0.2,1.6,0c0.2-0.1,0.3-0.8,0.3-1.2c0-0.5-0.2-1-0.2-1.4c0-1.3,1-2.6-0.4-3.8
	c-0.3-0.2-0.2-1.1,0-1.5c0.3-0.8,0.8-1.5,1.2-2.3C24,24,24.2,22.4,26.8,20.4z M13,23.9c-0.1-0.2-0.3-0.4-0.4-0.7
	c-0.6,0.1-1.3,0-1.7,0.3c-0.9,0.8-0.8,2,0.2,3.1C11.8,25.7,12.4,24.8,13,23.9z M37.4,26.4c0.6-1,0.5-2.4-0.3-3
	c-0.4-0.3-1.1-0.1-1.6-0.1C35.4,25,35.9,25.9,37.4,26.4z"/>
</svg>
