<?xml version="1.0" encoding="UTF-8"?>
<svg version="1.1" viewBox="0 0 48 48" xmlns="http://www.w3.org/2000/svg">
    <path d="m17.605 4.0104c-1.4313-0.10755-3.0365 0.61738-3.8444 2.2034 2.5142 0.14031 3.068 0.61423 4.9299 2.2752l-3.4116-0.71982c-2.6128-0.22753-6.2166 0.88353-6.8765 3.7542-0.25786 0.83427-0.053091 1.8129 0 2.6548 4.1182 0.01137 4.66 1.0351 7.256 1.0114 1.9787-0.01801 3.0116-0.98357 2.3307-2.4904-0.68091-1.5069-4.8963-1.6995-6.8834-1.5554 2.0553-3.2688 9.0486-0.65854 8.1726 3.0274-0.47022 1.9833-2.2475 2.319-3.9995 2.2659-2.8972-0.09101-6.6453-2.3726-8.7651 0.47911-1.3652 1.8392-0.45806 3.9735 1.5669 4.7888 3.0602 1.24 7.4942-0.75808 9.4016 3.1061 1.0087 2.0477-1.7142 6.2039-4.4786 3.3977 3.868-0.23132 3.2758-2.9654 2.1571-3.8907-1.1604-0.95562-6.2088-1.2059-6.77 0.53466-0.36025 1.1225 0.64528 2.4346 1.1989 3.3561l-1.8956-1.1387c-4.1865 3.1854-1.8438 6.9826 1.516 7.0963 1.5737 0.05309 2.6483-0.85774 3.7935-1.7868-0.80393 3.6859-3.5473 3.0378-6.4483 2.6548 0.05309 0.62949 0.030067 1.2279 0.38653 1.7891 1.2969 2.0553 6.9399 1.2071 9.0938 1.9465 2.0402 0.70154 3.4702 2.5666 0.37958 3.0899 2.0518-2.8741-3.7228-2.0441-5.6868-2.2752 0.61053 1.2931 1.1338 1.9837 2.2752 2.8862 0.91011 0.71671 2.2436 1.3945 3.4116 1.5044 5.5782 0.52331 6.6415-7.4461 1.5183-9.0729-0.96699-0.30716-2.3863-0.24766-3.4139-0.24766 0.40576-0.47402 0.57746-0.81159 1.1804-1.1225 1.9643-1.0163 3.6934 1.2908 5.1799 0.84712 1.4524-0.4323 1.9097-3.5229-2.1895-5.4114v-0.75916c0.90632-0.45126 1.7314-0.82662 2.3886-1.641 0.48425-0.60008 0.77817-1.3918 0.89572-2.1502 0.80507-5.5799-7.4295-4.3512-10.103-5.1475-1.149-0.34129-1.3641-0.69819-1.9025-1.6803 3.0367 0.78013 6.409 1.0764 8.3346 0.8286 1.9256-0.24781 3.3649-3.6152 2.8908-5.7539-0.25786-1.1718-1.0739-2.0773-1.7452-3.0367 5.1307 1.7937 2.9823 8.0224 0.37958 9.4803 0.7205 0.3868 1.1522 0.73959 1.8308 1.2198 3.9406 2.7885-0.02262 7.1404 0 8.2605 0.02263 1.1201 1.3482 2.3506 1.479 4.1708 0.13083 1.8202-1.8135 2.48-1.1341 4.1708 0.87387 2.1748-0.9062 6.733 1.9951 6.733s1.1212-4.5582 1.9951-6.733c0.67938-1.6907-1.2649-2.3506-1.1341-4.1708 0.13083-1.8202 1.4564-3.0507 1.479-4.1708 0.02262-1.1201-3.9406-5.472 0-8.2605 0.67855-0.48017 1.1103-0.83296 1.8308-1.2198-2.6027-1.4579-4.7512-7.6866 0.37958-9.4803-0.6712 0.95941-1.4873 1.8649-1.7452 3.0367-0.47402 2.1388 0.96524 5.5061 2.8908 5.7539 1.9256 0.24781 5.2979-0.04846 8.3346-0.8286-0.53848 0.98216-0.75353 1.3391-1.9025 1.6803-2.6734 0.79635-10.908-0.43235-10.103 5.1475 0.11756 0.75843 0.41148 1.5501 0.89572 2.1502 0.65718 0.81438 1.4823 1.1897 2.3886 1.641v0.75916c-4.0993 1.8885-3.6419 4.9791-2.1895 5.4114 1.4865 0.44368 3.2156-1.8634 5.1799-0.84712 0.60295 0.31096 0.77465 0.64853 1.1804 1.1225-1.0277 0-2.4469-0.05951-3.4139 0.24766-5.1232 1.6268-4.0599 9.5963 1.5183 9.0729 1.168-0.10997 2.5015-0.78773 3.4116-1.5044 1.1414-0.90253 1.6646-1.5931 2.2752-2.8862-1.964 0.23106-7.7386-0.59893-5.6868 2.2752-3.0906-0.52331-1.6606-2.3884 0.37958-3.0899 2.1539-0.73946 7.7969 0.10881 9.0938-1.9465 0.35646-0.56123 0.33344-1.1596 0.38653-1.7891-2.901 0.383-5.6443 1.0312-6.4483-2.6548 1.1452 0.92907 2.2198 1.8399 3.7935 1.7868 3.3598-0.11376 5.7025-3.911 1.516-7.0963l-1.8956 1.1387c0.55365-0.92149 1.5592-2.2336 1.1989-3.3561-0.56123-1.7406-5.6096-1.4903-6.77-0.53466-1.1187 0.92528-1.7108 3.6594 2.1571 3.8907-2.7645 2.8062-5.4873-1.35-4.4786-3.3977 1.9074-3.8642 6.3414-1.8661 9.4016-3.1061 2.025-0.81531 2.9321-2.9496 1.5669-4.7888-2.1198-2.8517-5.8679-0.57012-8.7651-0.47911-1.752 0.05309-3.5293-0.28264-3.9995-2.2659-0.87598-3.6859 6.1173-6.2962 8.1726-3.0274-1.9871-0.1441-6.2025 0.0485-6.8834 1.5554-0.68092 1.5069 0.35204 2.4724 2.3307 2.4904 2.596 0.02365 3.1378-1.0001 7.256-1.0114 0.05309-0.84185 0.25786-1.8205 0-2.6548-0.65983-2.8706-4.2637-3.9817-6.8765-3.7542l-3.4116 0.71982c1.8619-1.6609 2.4158-2.1349 4.9299-2.2752-1.8468-3.6253-7.8551-2.7494-6.4483 2.2752-2.2487-1.9264-0.39212-2.8646-1.8076-3.5644-1.4155-0.69975-2.6514-0.67527-3.9671 0s0.44108 1.638-1.8076 3.5644c0.79137-2.8263-0.76364-4.3403-2.6038-4.4786zm-10.994 19.072c-2.2428-0.1066-2.5584 2.1543-1.9511 4.3675 2.6924-1.0087 2.5527-1.539 3.0343-4.1708-0.40196-0.11898-0.7628-0.18151-1.0832-0.19674zm34.778 0c-0.3204 0.01523-0.68123 0.07776-1.0832 0.19674 0.4816 2.6317 0.34194 3.1621 3.0343 4.1708 0.60721-2.2132 0.29163-4.4741-1.9511-4.3675z" fill="#fff"/>
</svg>
