<?xml version="1.0" encoding="UTF-8" standalone="no"?>
<svg width="48" height="48" viewBox="0 0 48 48" version="1.1" >
    <defs>
        <style>.cls-1{fill:#fff;}</style>
    </defs>
    <path
        d="M 41.10578,19.135206 C 45.291736,9.9780928 37.659003,2.299332 29.119223,7.2704908 28.994672,10.078275 34.312408,18.127981 41.10578,19.135206 Z M 26.70675,10.397771 c 0,0 -0.91517,2.3854 -0.77979,3.129993 0,0 -10.026251,6.61738 -10.026251,6.61738 -1.072215,0.836649 -0.02436,2.212108 0.999101,1.613733 0,0 7.058725,-5.141741 9.265416,-6.216659 0.216613,2.398936 1.383589,4.264471 3.519886,5.415206 0,0 -15.950489,20.001062 -15.950489,20.001062 -0.50632,0.882676 0.693146,1.789725 1.340267,1.072208 0,0 16.245617,-19.979398 16.245617,-19.979398 0.414261,0.389895 5.252746,0.479242 6.758173,-0.552353 0,0 -8.139051,18.124694 -8.139051,18.124694 -0.357404,1.023473 0.896213,1.51355 1.361924,0.81228 0,0 8.94321,-20.290773 8.94321,-20.290773 -5.956726,-1.927817 -10.797923,-7.17515 -12.151719,-12.3520862 0,0 -21.9397067,10.1508022 -21.9397067,10.1508022 -0.931416,0.517155 -0.2490998,2.084856 0.812281,1.613732 0,0 17.6941827,-8.607469 19.7411317,-9.159821 z"
     id="Auswahl"
     class="cls-1" />
</svg>
