<?xml version="1.0" encoding="UTF-8" standalone="no"?>
<svg
   xmlns:dc="http://purl.org/dc/elements/1.1/"
   xmlns:cc="http://creativecommons.org/ns#"
   xmlns:rdf="http://www.w3.org/1999/02/22-rdf-syntax-ns#"
   xmlns:svg="http://www.w3.org/2000/svg"
   xmlns="http://www.w3.org/2000/svg"
   xmlns:sodipodi="http://sodipodi.sourceforge.net/DTD/sodipodi-0.dtd"
   xmlns:inkscape="http://www.inkscape.org/namespaces/inkscape"
   width="48"
   height="48"
   viewBox="0 0 48 48"
   version="1.1"
   id="svg4"
   sodipodi:docname="loyaltycardkeychain.svg"
   inkscape:version="0.92.2 5c3e80d, 2017-08-06">
  <metadata
     id="metadata10">
    <rdf:RDF>
      <cc:Work
         rdf:about="">
        <dc:format>image/svg+xml</dc:format>
        <dc:type
           rdf:resource="http://purl.org/dc/dcmitype/StillImage" />
        <dc:title></dc:title>
      </cc:Work>
    </rdf:RDF>
  </metadata>
  <defs
     id="defs8" />
  <sodipodi:namedview
     pagecolor="#ffffff"
     bordercolor="#666666"
     borderopacity="1"
     objecttolerance="10"
     gridtolerance="10"
     guidetolerance="10"
     inkscape:pageopacity="0"
     inkscape:pageshadow="2"
     inkscape:window-width="2071"
     inkscape:window-height="1127"
     id="namedview6"
     showgrid="false"
     inkscape:pagecheckerboard="true"
     inkscape:zoom="24.686643"
     inkscape:cx="25.969365"
     inkscape:cy="22.555799"
     inkscape:window-x="208"
     inkscape:window-y="210"
     inkscape:window-maximized="0"
     inkscape:current-layer="svg4" />
  <path
     style="fill:#ffffff;fill-opacity:1;stroke-width:0.22917372"
     d="m 33.648438,10.126953 c -2.502389,-4.15e-4 -5.697631,0.0078 -9.78711,0.02149 l -18.3339842,0.06055 c -0.7466993,-0.05686 -1.3695028,0.38041 -1.4980469,1.498047 v 12.925781 12.925782 c 0.033937,1.102716 0.7994443,1.641312 1.5898437,1.632812 0.6573878,0.04839 2.0751658,-0.01396 4.0332032,-0.0059 l 3.5585942,0.01367 0.410156,-0.691407 c 0.520602,-0.881306 2.435451,-2.33108 4.050781,-3.066406 4.056976,-1.846812 9.333113,-2.456954 13.414063,-1.552734 4.20232,0.931113 7.919687,2.85089 8.957031,4.626953 0.401612,0.687615 0.930656,0.883958 1.980741,0.785078 1.253959,0.06325 2.079215,-0.458168 2.111056,-1.712812 l 0.0625,-12.595703 c 0.196689,-7.763267 0.136014,-11.444218 0.0934,-13.095847 -0.04176,-1.618406 -0.70717,-1.719723 -1.394182,-1.649661 -1.239399,-0.04038 -1.740882,-0.118481 -9.248046,-0.119727 z m -14.253907,4.595703 c 0.02794,-0.03816 0.688542,0.521657 1.466797,1.242188 l 1.414063,1.308594 1.050781,-1.199219 1.050781,-1.201172 1.238281,1.220703 1.238282,1.220703 1.185546,-1.238281 1.183594,-1.238281 1.097656,1.226562 1.09961,1.226563 1.085937,-1.033204 c 0.948223,-0.902067 1.679688,-1.49414 1.679688,-1.49414 0,0 -0.0077,0.975621 -0.05664,2.28125 -0.08561,1.282423 -0.22634,3.22682 -0.3125,4.322266 l -0.15625,1.992187 -1.179687,-0.158203 c -0.648949,-0.08708 -3.19055,-0.158203 -5.648438,-0.158203 -2.457888,0 -5.010133,0.07352 -5.671875,0.162109 -0.870515,0.116512 -0.89594,0.0838 -1.234375,0.119141 -0.0094,-0.151619 -0.133984,-2.315688 -0.292969,-4.521485 -0.158984,-2.205797 -0.266201,-4.041928 -0.238281,-4.080078 z m -5.671875,6.113282 0.558594,1.517578 1.630859,0.117187 -1.271484,1 0.392578,1.585938 -1.34375,-0.898438 -1.386719,0.863281 0.4375,-1.554687 -1.248046,-1.054688 1.615234,-0.0625 z m 13.109375,3.197265 c 2.435921,0 4.872321,0.06527 5.615235,0.195313 l 1.144531,0.201172 -0.01563,1.597656 c -0.02727,2.558658 -1.399142,4.6043 -3.855469,5.748047 -1.641614,0.764388 -4.135731,0.764388 -5.777344,0 -2.45633,-1.143747 -3.828198,-3.189389 -3.855468,-5.748047 l -0.01758,-1.597656 1.146485,-0.201172 c 0.742911,-0.130044 3.179313,-0.195313 5.615234,-0.195313 z m -16.544922,0.865235 1.041016,2.822265 3.03125,0.21875 -2.361328,1.861328 0.728515,2.951172 -2.5,-1.669922 L 7.6445312,32.6875 8.4609375,29.792969 6.1367188,27.832031 9.1425781,27.714844 Z"
     id="path901"
     inkscape:connector-curvature="0"
     sodipodi:nodetypes="sccccccccccsccccscscccccccccccccccccsccsccccccccccccscccsscccsccccccccccc" />
</svg>
