<?xml version="1.0" encoding="UTF-8" standalone="no"?>
<!-- Created with Inkscape (http://www.inkscape.org/) -->

<svg
   xmlns:dc="http://purl.org/dc/elements/1.1/"
   xmlns:cc="http://creativecommons.org/ns#"
   xmlns:rdf="http://www.w3.org/1999/02/22-rdf-syntax-ns#"
   xmlns:svg="http://www.w3.org/2000/svg"
   xmlns="http://www.w3.org/2000/svg"
   xmlns:sodipodi="http://sodipodi.sourceforge.net/DTD/sodipodi-0.dtd"
   xmlns:inkscape="http://www.inkscape.org/namespaces/inkscape"
   id="SVGRoot"
   version="1.1"
   viewBox="0 0 48 48"
   height="48px"
   width="48px"
   sodipodi:docname="lyft.svg"
   inkscape:version="0.92.4 (5da689c313, 2019-01-14)">
  <defs
     id="defs3732" />
  <sodipodi:namedview
     id="base"
     pagecolor="#000000"
     bordercolor="#666666"
     borderopacity="1.0"
     inkscape:pageopacity="0"
     inkscape:pageshadow="2"
     inkscape:zoom="10.666667"
     inkscape:cx="-0.90549641"
     inkscape:cy="12.319559"
     inkscape:document-units="px"
     inkscape:current-layer="layer2"
     showgrid="false"
     inkscape:window-width="1920"
     inkscape:window-height="1023"
     inkscape:window-x="0"
     inkscape:window-y="25"
     inkscape:window-maximized="1"
     inkscape:grid-bbox="true" />
  <metadata
     id="metadata3735">
    <rdf:RDF>
      <cc:Work
         rdf:about="">
        <dc:format>image/svg+xml</dc:format>
        <dc:type
           rdf:resource="http://purl.org/dc/dcmitype/StillImage" />
        <dc:title></dc:title>
      </cc:Work>
    </rdf:RDF>
  </metadata>
  <g
     inkscape:groupmode="layer"
     id="layer2"
     inkscape:label="Layer 2"
     style="display:inline">
    <path
       style="fill:#ffffff;fill-opacity:1"
       d="M 32.183594 12.888672 C 31.749136 12.893166 31.314997 12.923236 31.03125 12.978516 C 28.587389 13.454635 26.635722 15.191224 25.896484 17.546875 C 25.602006 18.485264 25.599949 18.498029 25.599609 25.080078 L 25.599609 31.146484 L 26.226562 31.146484 C 26.661174 31.146218 26.983391 31.114276 27.279297 31.042969 C 28.085595 30.848675 28.726104 30.477473 29.287109 29.876953 C 29.979329 29.135975 30.364492 28.224757 30.503906 27.007812 C 30.533846 26.746469 30.558354 26.407906 30.558594 26.253906 L 30.560547 25.972656 L 31.8125 25.972656 L 33.066406 25.972656 L 33.066406 23.494141 L 33.066406 21.013672 L 31.808594 21.013672 L 30.550781 21.013672 L 30.568359 20.013672 C 30.584489 19.091796 30.596246 18.996331 30.708984 18.785156 C 30.897474 18.432107 31.180166 18.1511 31.511719 17.988281 C 31.910039 17.792674 32.530352 17.779158 32.917969 17.957031 C 33.238085 18.103927 33.628926 18.495202 33.777344 18.816406 C 33.890767 19.061874 33.894894 19.1303 33.925781 22.240234 C 33.959821 25.667654 33.957709 25.664058 34.271484 26.605469 C 35.110329 29.122215 37.588378 31.015805 40.148438 31.097656 L 40.535156 31.111328 L 40.546875 28.652344 L 40.560547 26.195312 L 40.267578 26.136719 C 39.670418 26.018246 39.191699 25.620364 38.980469 25.064453 C 38.896737 24.844089 38.880859 24.653365 38.880859 23.947266 L 38.880859 23.095703 L 39.640625 23.082031 L 40.400391 23.066406 L 40.400391 20.585938 L 40.400391 18.107422 L 39.5625 18.091797 L 38.726562 18.078125 L 38.640625 17.771484 C 38.309667 16.606086 37.761855 15.672013 36.912109 14.822266 C 35.927111 13.837269 34.694658 13.194048 33.333984 12.955078 C 33.052513 12.905643 32.618052 12.884178 32.183594 12.888672 z M 7.4667969 13.279297 L 7.4667969 20.359375 C 7.4674583 27.0527 7.4726123 27.465483 7.5664062 27.919922 C 7.9347439 29.704523 9.028667 30.91725 10.667969 31.359375 C 11.007577 31.450965 11.1861 31.463884 11.867188 31.445312 C 12.387059 31.431133 12.778379 31.391657 12.986328 31.333984 C 13.339027 31.236174 14.04265 30.909421 14.132812 30.800781 C 14.176512 30.748121 14.113208 30.656446 13.865234 30.419922 C 13.286535 29.867937 12.876888 29.13691 12.626953 28.203125 L 12.509766 27.759766 L 12.494141 20.519531 L 12.476562 13.279297 L 9.9726562 13.279297 L 7.4667969 13.279297 z M 13.333984 18.080078 L 13.333984 22.732422 C 13.334645 27.135835 13.341042 27.413124 13.439453 27.892578 C 13.680828 29.068382 14.359127 29.981733 15.359375 30.472656 C 16.811355 31.18529 18.501613 31.143337 19.671875 30.367188 C 19.828633 30.263222 19.96321 30.185848 19.970703 30.195312 C 20.010663 30.245793 19.87107 30.580829 19.716797 30.804688 C 19.480559 31.147492 19.055788 31.430314 18.505859 31.611328 C 18.088203 31.748804 17.990946 31.760637 17.253906 31.757812 C 16.572582 31.755212 16.367632 31.732389 15.880859 31.611328 C 15.566499 31.533148 15.222457 31.433473 15.115234 31.388672 C 15.008014 31.343872 14.898798 31.306641 14.873047 31.306641 C 14.846907 31.306641 14.826172 32.306371 14.826172 33.568359 L 14.826172 35.828125 L 15.240234 35.9375 C 16.616383 36.303338 18.20556 36.395855 19.505859 36.185547 C 21.60368 35.84625 23.181922 34.717912 24.052734 32.933594 C 24.346467 32.331728 24.484434 31.932586 24.652344 31.199219 C 24.767367 30.696839 24.767673 30.640034 24.785156 24.386719 L 24.804688 18.080078 L 22.322266 18.080078 L 19.839844 18.080078 L 19.839844 21.800781 C 19.839738 25.954255 19.857647 25.754144 19.466797 26.017578 C 19.313159 26.12113 19.22969 26.137897 18.996094 26.119141 C 18.755422 26.099821 18.681987 26.066735 18.515625 25.900391 L 18.320312 25.705078 L 18.304688 21.892578 L 18.291016 18.080078 L 15.8125 18.080078 L 13.333984 18.080078 z "
       id="rect915" />
  </g>
</svg>
