<?xml version="1.0" encoding="utf-8"?>
<!-- Generator: Adobe Illustrator 21.1.0, SVG Export Plug-In . SVG Version: 6.00 Build 0)  -->
<svg version="1.0" id="Layer_1" xmlns="http://www.w3.org/2000/svg" xmlns:xlink="http://www.w3.org/1999/xlink" x="0px" y="0px"
	 viewBox="0 0 48 48" style="enable-background:new 0 0 48 48;" xml:space="preserve">
<style type="text/css">
	.st0{fill:#FFFFFF;}
</style>
<path class="st0" d="M38,4H10C8.9,4,8,4.9,8,6v36c0,1.1,0.9,2,2,2h28c1.1,0,2-0.9,2-2V6C40,4.9,39.1,4,38,4z M35.9,28.4
	c0,2.5-2.6,4.3-5.3,3.8c-2.1-0.4-3.6-1.9-3.7-3.6c-0.1-2.2,1.7-4.1,4.1-4.2c1.3-0.1,2.5,0.3,3.5,1.1c0.1,0.1,0.3,0.2,0.5,0.4
	c0-3.1,0-6.1,0-9.2c-1.2,0.1-2.3,0.3-3.4,0.4c-3.2,0.4-6.4,0.8-9.6,1.2C21,18.4,21,18.4,21,19.5c0,4.5,0,9,0,13.5
	c0,2.4-2.1,4.2-4.6,4.1c-2.6-0.1-4.5-2.1-4.3-4.5c0.2-1.7,2-3.3,3.9-3.4c1.5-0.1,1.7,0,4.2,1.4c0-0.5,0-0.8,0-1.1
	c0-5.2,0-10.5,0-15.7c0-0.8,0.3-1,1-1.1c4.6-0.6,9.3-1.2,13.9-1.8c0.7-0.1,0.8,0.1,0.8,0.7C35.9,17.2,36,22.8,35.9,28.4z"/>
</svg>
