<svg xmlns="http://www.w3.org/2000/svg" viewBox="0 0 48 48" height="48" width="48">
  <path d="M 21.714844 28.916016 C 21.714844 28.916016 22.025058 30.758882 21.648438 34.820312 C 21.175838 39.912273 23.587891 48 23.587891 48 C 23.587891 48 26.877074 39.895706 26.302734 34.660156 C 25.830954 30.356686 26.517124 28.850894 26.371094 29.052734 C 23.843164 32.545564 21.714844 28.916016 21.714844 28.916016 z M 22.550781 31.123047 C 22.550781 31.123047 23.841894 32.861231 25.494141 31.208984 C 25.586446 31.081401 25.15296 33.336425 25.451172 36.056641 C 25.814211 39.366024 23.734375 45.285156 23.734375 45.285156 C 23.734375 45.285156 22.211036 39.376823 22.509766 36.158203 C 22.747825 33.59098 22.550781 31.123047 22.550781 31.123047 z " style="fill:#ffffff" />
  <path d="m 27.87846,33.28696 c 0.41107,3.18104 -0.0468,4.92376 -0.6408,8.3288 -0.3003,1.72221 6.13562,-5.1773 8.60366,-9.29041 0.41189,-0.68593 -2.36055,2.6748 -5.10263,0.27486 -1.9019,-1.66395 -2.22845,-2.16938 -3.70698,-3.61508 -0.49885,-0.48737 0.55301,2.02825 0.84675,4.30183 z" style="fill:#ffffff" />
  <path d="m 20.85424,29.23702 c -1.47852,1.4457 -1.80508,1.95113 -3.70698,3.61508 -2.74207,2.39994 -5.51451,-0.96079 -5.10263,-0.27486 2.46804,4.11312 8.90397,11.01262 8.60367,9.29041 -0.59404,-3.40504 -1.05187,-5.14776 -0.64081,-8.3288 0.29374,-2.27358 1.34561,-4.7892 0.84675,-4.30183 z" style="fill:#ffffff" />
  <path d="M 26.535156 23.455078 C 25.069747 23.407183 23.988281 24.591797 23.988281 24.591797 C 23.988281 24.591797 24.064077 26.849044 25.248047 26.902344 C 28.526727 27.050854 29.101824 31.939387 34.021484 31.867188 C 40.738024 31.768728 43.416104 23.648984 42.646484 24.740234 C 40.044704 28.431624 38.096701 29.303153 36.556641 29.376953 C 35.732861 29.416343 35.026108 29.227754 34.398438 29.121094 C 31.360978 28.604184 30.194277 24.423901 27.185547 23.556641 C 26.962578 23.492438 26.7445 23.46192 26.535156 23.455078 z M 26.511719 24.189453 C 26.656482 24.19043 26.805254 24.206912 26.958984 24.244141 C 29.033409 24.747032 29.447048 26.35146 31.320312 28.242188 C 31.653634 28.58025 32.180462 29.361192 33.869141 29.736328 C 36.575206 30.199416 37.359955 30.471112 40.564453 28.044922 C 41.095082 27.412147 38.302719 31.124548 33.671875 31.181641 C 29.860078 31.113021 28.807096 26.301745 25.607422 26.292969 C 24.791112 26.262059 24.740234 24.953125 24.740234 24.953125 C 24.740234 24.953125 25.498374 24.182615 26.511719 24.189453 z " style="fill:#ffffff" />
  <path d="M 21.464844 23.431641 C 21.255501 23.438484 21.037421 23.470952 20.814453 23.535156 C 17.805713 24.402416 16.639012 28.580746 13.601562 29.097656 C 12.973883 29.204316 12.267139 29.392896 11.443359 29.353516 C 9.9032992 29.279716 7.9552956 28.408187 5.3535156 24.716797 C 4.5838956 23.625547 7.2619854 31.74529 13.978516 31.84375 C 18.898176 31.91595 19.473273 27.027416 22.751953 26.878906 C 23.935913 26.825606 24.011719 24.568359 24.011719 24.568359 C 24.011719 24.568359 22.930246 23.38374 21.464844 23.431641 z M 21.564453 24.189453 C 22.577798 24.182615 23.335938 24.953125 23.335938 24.953125 C 23.335938 24.953125 23.28506 26.262059 22.46875 26.292969 C 19.269076 26.301745 18.216094 31.113021 14.404297 31.181641 C 9.7734527 31.124548 6.9810897 27.412147 7.5117188 28.044922 C 10.716217 30.471112 11.500966 30.199416 14.207031 29.736328 C 15.89571 29.361192 16.422537 28.58025 16.755859 28.242188 C 18.629123 26.35146 19.042762 24.747032 21.117188 24.244141 C 21.270917 24.206912 21.41969 24.19043 21.564453 24.189453 z " style="fill:#ffffff" />
  <path d="m 32.06624,23.49359 c 3.02515,2.29245 2.12343,4.81628 3.82103,4.09589 5.71882,-2.42455 4.71864,-14.86811 4.25588,-13.36333 -2.6067,8.48469 -8.28613,8.95975 -13.75224,5.05668 -1.06746,-0.76224 3.96953,2.91848 5.67451,4.20994 z" style="fill:#ffffff" />
  <path d="m 21.58612,19.28283 c -5.46611,3.90225 -11.14554,3.42801 -13.7522402,-5.05668 -0.46194,-1.50478 -1.46212,10.93796 4.2558802,13.36333 1.69842,0.72039 0.79588,-1.80344 3.82103,-4.09589 1.70497,-1.29228 6.74197,-4.97218 5.67451,-4.20994 z" style="fill:#ffffff" />
  <path d="M 40.013672 10.568359 C 39.995683 10.561577 39.969961 10.597177 39.9375 10.679688 C 37.60813 16.605268 28.789906 14.376578 27.947266 18.117188 C 27.781526 18.850707 29.441222 20.583272 32.638672 20.451172 C 38.825431 20.195787 40.283502 10.670089 40.013672 10.568359 z M 39.115234 12.978516 C 39.165099 13.018235 37.021723 19.439803 32.417969 19.660156 C 30.177834 19.752705 28.866304 18.61742 28.982422 18.103516 C 29.108737 15.571231 37.090662 16.635534 39.076172 13.058594 C 39.098914 13.000787 39.11191 12.975868 39.115234 12.978516 z " style="fill:#ffffff" />
  <path d="M 7.9648438 10.568359 C 7.6955994 10.670089 9.1530936 20.193834 15.339844 20.449219 C 18.537304 20.581319 20.19699 18.849574 20.03125 18.115234 C 19.1886 14.374624 10.369566 16.606088 8.0410156 10.679688 C 8.0086062 10.597177 7.9827934 10.561577 7.9648438 10.568359 z M 8.9765625 12.978516 C 8.9798868 12.975868 8.9928831 13.000787 9.015625 13.058594 C 11.001135 16.635534 18.98306 15.571231 19.109375 18.103516 C 19.225493 18.61742 17.913963 19.752705 15.673828 19.660156 C 11.070074 19.439803 8.9266979 13.018235 8.9765625 12.978516 z " style="fill:#ffffff" />
  <path d="m 27.53549,16.46855 c 0,0 3.58801,-1.92816 6.65911,-2.76834 2.87089,-0.78603 5.02304,-2.71828 5.26262,-4.75966 0.17887,-1.52037 -2.21943,-4.39373 -2.21943,-4.39373 0,0 -1.68282,4.66859 -3.88994,7.00207 -2.4024,2.54023 -1.48919,2.19727 -5.81236,4.91966 z" style="fill:#ffffff" />
  <path d="M 14.63,11.54889 C 12.42288,9.21541 10.74005,4.54682 10.74005,4.54682 c 0,0 -2.3982902,2.87254 -2.2194202,4.39373 0.2404,2.04138 2.3925502,3.97363 5.2626202,4.75966 3.0711,0.841 6.6591,2.76834 6.6591,2.76834 C 16.11919,13.74616 17.03322,14.08912 14.63,11.54889 Z" style="fill:#ffffff" />
  <path d="M 27.10063,16.17153 C 30.98648,12.98392 33.05165,8.82486 36.41402,4.27278 37.04826,3.41454 33.57677,1.34363 32.20409,1.2066 30.8314,1.06958 29.67944,6.11232 29.5498,9.07839 c -0.11815,2.70844 -2.971,7.52226 -2.44834,7.09314 z" style="fill:#ffffff" />
  <path d="M 18.42805,9.07757 C 18.29841,6.1115 17.14644,1.06876 15.77376,1.20578 c -1.37268,0.13703 -4.84417,2.20794 -4.20993,3.06618 3.36237,4.55208 5.42672,8.71114 9.31338,11.89875 0.52266,0.4283 -2.33019,-4.38552 -2.44834,-7.09314 z" style="fill:#ffffff" />
  <path d="m 27.48955,5.87437 c 0.27404,-2.19563 1.26109,-3.80051 3.22617,-5.14857 -1.73698,-0.58091 -3.18105,-1.05269 -3.9359,-0.43486 -0.75485,0.61783 -2.80607,2.683 -2.53121,6.04537 0.27404,3.36237 0.0148,15.9249 0.60962,15.69188 0.32,-8.60448 3.0432,-11.07662 2.63132,-16.15464 z" style="fill:#ffffff" />
  <path d="m 23.11879,22.02901 c 0.59404,0.2322 0.33476,-12.32951 0.60963,-15.69188 0.27404,-3.36237 -1.77636,-5.42836 -2.53121,-6.04537 -0.75486,-0.61783 -2.19892,-0.14605 -3.9359,0.43486 1.96508,1.34806 2.95213,2.95212 3.22617,5.14857 -0.41188,5.07802 2.31132,7.55016 2.63131,16.15464 z" style="fill:#ffffff" />
</svg>
