<?xml version="1.0" encoding="UTF-8" standalone="no"?>
<svg
   xmlns:dc="http://purl.org/dc/elements/1.1/"
   xmlns:cc="http://creativecommons.org/ns#"
   xmlns:rdf="http://www.w3.org/1999/02/22-rdf-syntax-ns#"
   xmlns:svg="http://www.w3.org/2000/svg"
   xmlns="http://www.w3.org/2000/svg"
   id="svg4516"
   version="1.1"
   viewBox="0 0 48 48"
   height="48"
   width="48">
  <metadata
     id="metadata4522">
    <rdf:RDF>
      <cc:Work
         rdf:about="">
        <dc:format>image/svg+xml</dc:format>
        <dc:type
           rdf:resource="http://purl.org/dc/dcmitype/StillImage" />
        <dc:title></dc:title>
      </cc:Work>
    </rdf:RDF>
  </metadata>
  <defs
     id="defs4520" />
  <path
     id="path6829"
     d="M 24,2.3105409 A 16.488332,16.488332 0 0 0 7.5110957,18.799446 c 0,0.375914 0.01586,0.747619 0.0394,1.11733 a 16.488332,16.488332 0 0 0 0.0079,0.09456 c 0.623546,9.020416 8.1235503,16.284086 16.4415973,25.678123 8.687665,-9.811465 16.488911,-17.297572 16.488911,-26.890013 h -0.0016 A 16.488332,16.488332 0 0 0 24,2.3105409 Z m 0,8.5635771 A 7.9257222,7.9257222 0 0 1 31.925327,18.799446 7.9257222,7.9257222 0 0 1 24,26.724772 7.9257222,7.9257222 0 0 1 16.074672,18.799446 7.9257222,7.9257222 0 0 1 24,10.874118 Z"
     style="opacity:1;fill:#ffffff;fill-opacity:1;stroke:none;stroke-width:3.22749472;stroke-linejoin:round;stroke-miterlimit:4;stroke-dasharray:none;stroke-opacity:1" />
</svg>
