<?xml version="1.0" encoding="UTF-8" standalone="no"?>
<svg
   xmlns:dc="http://purl.org/dc/elements/1.1/"
   xmlns:cc="http://creativecommons.org/ns#"
   xmlns:rdf="http://www.w3.org/1999/02/22-rdf-syntax-ns#"
   xmlns:svg="http://www.w3.org/2000/svg"
   xmlns="http://www.w3.org/2000/svg"
   xmlns:sodipodi="http://sodipodi.sourceforge.net/DTD/sodipodi-0.dtd"
   xmlns:inkscape="http://www.inkscape.org/namespaces/inkscape"
   width="48"
   height="48"
   viewBox="0 0 48 48"
   version="1.1"
   id="svg4"
   sodipodi:docname="mapillary.svg"
   inkscape:version="0.92.3 (2405546, 2018-03-11)">
  <metadata
     id="metadata10">
    <rdf:RDF>
      <cc:Work
         rdf:about="">
        <dc:format>image/svg+xml</dc:format>
        <dc:type
           rdf:resource="http://purl.org/dc/dcmitype/StillImage" />
        <dc:title></dc:title>
      </cc:Work>
    </rdf:RDF>
  </metadata>
  <defs
     id="defs8" />
  <sodipodi:namedview
     pagecolor="#ffffff"
     bordercolor="#666666"
     borderopacity="1"
     objecttolerance="10"
     gridtolerance="10"
     guidetolerance="10"
     inkscape:pageopacity="0"
     inkscape:pageshadow="2"
     inkscape:window-width="1920"
     inkscape:window-height="1037"
     id="namedview6"
     showgrid="true"
     inkscape:pagecheckerboard="true"
     inkscape:snap-bbox="true"
     inkscape:bbox-nodes="true"
     inkscape:zoom="6.9532167"
     inkscape:cx="20.309073"
     inkscape:cy="25.567608"
     inkscape:window-x="1920"
     inkscape:window-y="43"
     inkscape:window-maximized="1"
     inkscape:current-layer="svg4">
    <inkscape:grid
       type="xygrid"
       id="grid4806"
       empspacing="4" />
  </sodipodi:namedview>
  <path
     d="M 24 2 A 22 22 0 0 0 2 24 A 22 22 0 0 0 24 46 A 22 22 0 0 0 46 24 A 22 22 0 0 0 24 2 z M 21.880859 8.0917969 A 0.81054034 0.81054034 0 0 1 22.632812 8.515625 L 28.632812 19.617188 A 0.81054034 0.81054034 0 0 1 28.306641 20.716797 L 26.878906 21.488281 A 0.81054034 0.81054034 0 0 1 25.78125 21.160156 L 23.341797 16.644531 A 0.81054034 0.81054034 0 0 0 21.857422 16.773438 L 20.708984 20.220703 A 0.81054034 0.81054034 0 0 1 20.197266 20.732422 L 16.751953 21.880859 A 0.81054034 0.81054034 0 0 0 16.621094 23.365234 L 21.138672 25.802734 A 0.81054034 0.81054034 0 0 1 21.464844 26.902344 L 20.693359 28.328125 A 0.81054034 0.81054034 0 0 1 19.59375 28.65625 L 8.4941406 22.654297 A 0.81054034 0.81054034 0 0 1 8.6230469 21.173828 L 17.632812 18.167969 A 0.81054034 0.81054034 0 0 0 18.144531 17.65625 L 21.150391 8.6464844 A 0.81054034 0.81054034 0 0 1 21.880859 8.0917969 z M 29.388672 21.902344 A 0.81054034 0.81054034 0 0 1 30.099609 22.328125 L 37.974609 36.900391 A 0.81054034 0.81054034 0 0 1 36.878906 37.996094 L 22.304688 30.121094 A 0.81054034 0.81054034 0 0 1 21.976562 29.023438 L 22.75 27.595703 A 0.81054034 0.81054034 0 0 1 23.845703 27.267578 L 28.857422 29.976562 A 0.81054034 0.81054034 0 0 0 29.953125 28.878906 L 27.246094 23.867188 A 0.81054034 0.81054034 0 0 1 27.574219 22.771484 L 29 22 A 0.81054034 0.81054034 0 0 1 29.388672 21.902344 z "
     id="circle2"
     style="fill:#ffffff;fill-opacity:1" />
</svg>
