<?xml version="1.0" encoding="UTF-8"?>
<svg data-name="Layer 1" viewBox="0 0 48 48" xmlns="http://www.w3.org/2000/svg">
    <defs>
        <style>.cls-1{fill:#fff;}</style>
    </defs>
    <path class="cls-1" d="m 45.53084,29.147617 -7.250675,-7.233412 4.954628,-4.851047 z M 36.104962,8.7248805 c 2.916765,-0.5588562 5.735526,1.3486345 6.301182,4.2640875 l 0.345271,1.86446 -5.662433,5.662432 -7.31973,-7.423311 4.091453,-3.9878712 z m -15.157365,12.9476355 7.406047,-7.336994 7.406048,7.423311 -7.440575,7.388784 z m 0.431587,9.615777 c -0.271581,0.444284 -0.694652,0.775382 -1.191182,0.93223 h -0.172635 c -2.497454,0.563942 -3.343366,-3.182241 -0.845912,-3.746183 h 0.155371 c 0.98357,-0.191084 1.950163,0.400861 2.226994,1.363818 0.136399,0.482089 0.09346,0.997274 -0.120845,1.450135 z M 18.133644,5.3930223 21.724455,4.7024817 c 3.029434,-0.5695285 5.950987,1.4115771 6.542871,4.4367231 L 25.971279,9.5535292 C 25.624238,7.7858385 23.90397,6.638994 22.138779,6.9985291 l -3.573547,0.6905405 c -1.773536,0.3382527 -2.924897,2.0652929 -2.555,3.8325004 l -2.244257,0.362533 C 13.164797,8.8501428 15.147848,5.9065514 18.185434,5.3239682 Z M 30.580637,9.7261643 19.721887,20.51586 12.574792,13.178867 Z m -24.2207097,4.6093577 4.0741887,-0.725067 8.010271,8.096588 -7.406048,7.31973 -9.0288173,-9.115136 C 1.8499205,17.22303 3.7132493,14.834704 6.3599273,14.335522 Z m -3.8325002,8.631757 7.2334124,7.233413 -4.8510474,4.851047 z m 9.4086149,20.33642 C 9.0234009,43.842661 6.2174515,41.94384 5.6348597,39.039611 L 5.2895894,37.31326 11.003812,31.6163 l 8.631757,8.631757 1.2775,1.363818 z m 14.898413,-2.90027 v 0 l -3.78071,0.828648 -2.140676,-2.192466 4.833784,-4.712939 2.641318,-2.727636 7.078041,7.147095 z m 14.829358,-2.900271 -4.264088,0.863176 -7.837635,-7.923953 7.406048,-7.31973 9.028817,9.011554 c 0.08792,2.605073 -1.737398,4.884902 -4.298615,5.368953 z" />
</svg>
