<svg xmlns="http://www.w3.org/2000/svg" viewBox="0 0 48 48">
  <path
     style="fill:#ffffff"
     d="m 13.293454,35.653275 c 1.314994,-0.34251 2.635066,-0.972264 3.035443,-1.448084 0.519187,-0.61702 1.533522,-2.641005 2.146805,-4.283699 0.996495,-2.669138 1.41302,-4.24251 2.048039,-7.736249 0.230255,-1.266824 0.486975,-2.325355 0.570488,-2.352295 0.08352,-0.02693 0.806628,1.264084 1.606926,2.868939 1.674398,3.357718 1.920874,3.699672 2.666674,3.699672 0.73449,0 2.304793,-1.23153 5.622931,-4.409856 l 1.328503,-1.272519 0.05657,5.251577 c 0.05422,5.033742 0.071,5.287932 0.404615,6.128076 0.19143,0.482074 0.52515,1.015804 0.741601,1.186065 0.760262,0.598022 1.712617,0.298371 2.190736,-0.689291 0.276808,-0.571809 0.350015,-1.326598 0.639689,-6.595468 0.417274,-7.589759 0.431663,-9.216236 0.09125,-10.314421 -0.344065,-1.109966 -1.095721,-2.224523 -1.826246,-2.707962 -0.72863,-0.482184 -0.64197,-0.54519 -2.564056,1.864195 -1.444661,1.81092 -2.435368,2.92628 -4.532445,5.102744 l -1.07786,1.118642 -1.359101,-3.10817 c -1.56783,-3.585534 -2.8177,-6.180469 -3.309587,-6.871262 -0.188735,-0.265054 -0.656026,-0.680334 -1.038421,-0.922842 -1.224333,-0.7764483 -3.158755,-0.5268213 -3.695953,0.476943 -0.120071,0.22435 -0.140314,1.027916 -0.06672,2.648139 0.157566,3.4687 -0.187483,6.469479 -1.242278,10.803707 -0.708088,2.909575 -1.513809,5.18566 -3.645944,10.29941 -0.305098,0.731744 -0.554719,1.368773 -0.554719,1.415623 0,0.159162 0.850818,0.086 1.76306,-0.151614 z M 46,24 A 22,22 0 0 1 24,46 22,22 0 0 1 2,24 22,22 0 0 1 24,2 22,22 0 0 1 46,24 Z" />
</svg>
