<?xml version="1.0" encoding="UTF-8" standalone="no"?>
<svg
   xmlns:dc="http://purl.org/dc/elements/1.1/"
   xmlns:cc="http://creativecommons.org/ns#"
   xmlns:rdf="http://www.w3.org/1999/02/22-rdf-syntax-ns#"
   xmlns:svg="http://www.w3.org/2000/svg"
   xmlns="http://www.w3.org/2000/svg"
   xmlns:sodipodi="http://sodipodi.sourceforge.net/DTD/sodipodi-0.dtd"
   xmlns:inkscape="http://www.inkscape.org/namespaces/inkscape"
   width="48"
   height="48"
   viewBox="0 0 48 48"
   version="1.1"
   id="svg4"
   sodipodi:docname="markor.svg"
   inkscape:version="0.92.4 (5da689c313, 2019-01-14)">
  <metadata
     id="metadata10">
    <rdf:RDF>
      <cc:Work
         rdf:about="">
        <dc:format>image/svg+xml</dc:format>
        <dc:type
           rdf:resource="http://purl.org/dc/dcmitype/StillImage" />
        <dc:title />
      </cc:Work>
    </rdf:RDF>
  </metadata>
  <defs
     id="defs8" />
  <sodipodi:namedview
     pagecolor="#ffffff"
     bordercolor="#666666"
     borderopacity="1"
     objecttolerance="10"
     gridtolerance="10"
     guidetolerance="10"
     inkscape:pageopacity="0"
     inkscape:pageshadow="2"
     inkscape:window-width="1536"
     inkscape:window-height="811"
     id="namedview6"
     showgrid="false"
     inkscape:pagecheckerboard="true"
     inkscape:zoom="11.313709"
     inkscape:cx="-16.990726"
     inkscape:cy="17.779036"
     inkscape:window-x="-8"
     inkscape:window-y="-8"
     inkscape:window-maximized="1"
     inkscape:current-layer="svg4" />
  <path
     style="display:inline;fill:#ffffff"
     d="M 5,13.916016 V 41 c 0,1.108 0.892,2 2,2 h 34 c 1.108,0 2,-0.892 2,-2 V 13.916016 Z m 8.40625,3.230468 h 5.664062 l 4.712891,4.541016 4.714844,-4.541016 h 5.705078 v 19.830078 h -5.214844 v -1.65039 -2 -1.283203 -8 L 23.6875,28.523438 18.386719,24.042969 v 8 1.283203 2 1.65039 H 13.40625 Z"
     id="rect2"
     inkscape:connector-curvature="0" />
  <path
     d="M 7,5 C 5.892,5 5,5.892 5,7 v 34 c 0,1.108 0.892,2 2,2 h 34 c 1.108,0 2,-0.892 2,-2 V 7 C 43,5.892 42.108,5 41,5 Z M 7.4472656,5.5 H 40.552734 C 41.631576,5.5 42.5,6.3684235 42.5,7.4472656 V 40.552734 C 42.5,41.631576 41.631576,42.5 40.552734,42.5 H 7.4472656 C 6.3684235,42.5 5.5,41.631576 5.5,40.552734 V 7.4472656 C 5.5,6.3684235 6.3684235,5.5 7.4472656,5.5 Z"
     id="rect883"
     inkscape:connector-curvature="0"
     style="display:inline;fill:#ffffff" />
  <g
     id="g901"
     style="display:inline;fill:none;stroke:#ffffff;stroke-opacity:1">
    <rect
       style="display:inline;opacity:1;fill:none;fill-opacity:1;stroke:#ffffff;stroke-width:0.75;stroke-linecap:round;stroke-linejoin:round;stroke-miterlimit:4;stroke-dasharray:none;stroke-dashoffset:0;stroke-opacity:1;paint-order:stroke markers fill"
       id="rect873"
       width="2.2248223"
       height="4.5099645"
       x="29.49765"
       y="7.1613894"
       ry="0.77143592"
       rx="0" />
    <g
       style="display:inline;fill:none;stroke:#ffffff;stroke-opacity:1"
       id="g871">
      <rect
         style="opacity:1;fill:none;fill-opacity:1;stroke:#ffffff;stroke-width:0.75;stroke-linecap:round;stroke-linejoin:round;stroke-miterlimit:4;stroke-dasharray:none;stroke-dashoffset:0;stroke-opacity:1;paint-order:stroke markers fill"
         id="rect828"
         width="2.2248223"
         height="4.5099645"
         x="9.8664474"
         y="7.1613894"
         ry="0.77143592"
         rx="0" />
      <rect
         rx="0"
         ry="0.77143592"
         y="7.1613894"
         x="16.379284"
         height="4.5099645"
         width="2.2248223"
         id="rect840"
         style="opacity:1;fill:none;fill-opacity:1;stroke:#ffffff;stroke-width:0.75;stroke-linecap:round;stroke-linejoin:round;stroke-miterlimit:4;stroke-dasharray:none;stroke-dashoffset:0;stroke-opacity:1;paint-order:stroke markers fill" />
    </g>
    <rect
       rx="0"
       ry="0.77143592"
       y="7.1613894"
       x="36.010487"
       height="4.5099645"
       width="2.2248223"
       id="rect875"
       style="display:inline;opacity:1;fill:none;fill-opacity:1;stroke:#ffffff;stroke-width:0.75;stroke-linecap:round;stroke-linejoin:round;stroke-miterlimit:4;stroke-dasharray:none;stroke-dashoffset:0;stroke-opacity:1;paint-order:stroke markers fill" />
    <rect
       rx="0"
       ry="0.77143592"
       y="7.1613894"
       x="22.862057"
       height="4.5099645"
       width="2.2248223"
       id="rect881"
       style="opacity:1;fill:none;fill-opacity:1;stroke:#ffffff;stroke-width:0.75;stroke-linecap:round;stroke-linejoin:round;stroke-miterlimit:4;stroke-dasharray:none;stroke-dashoffset:0;stroke-opacity:1;paint-order:stroke markers fill" />
  </g>
</svg>
