<?xml version="1.0" encoding="utf-8"?>
<!-- Generator: Adobe Illustrator 21.1.0, SVG Export Plug-In . SVG Version: 6.00 Build 0)  -->
<svg version="1.0" id="Layer_1" xmlns="http://www.w3.org/2000/svg" xmlns:xlink="http://www.w3.org/1999/xlink" x="0px" y="0px"
	 viewBox="0 0 48 48" style="enable-background:new 0 0 48 48;" xml:space="preserve">
<style type="text/css">
	.st0{fill:#FFFFFF;}
</style>
<path class="st0" d="M41,5H7C5.9,5,5,5.9,5,7v34c0,1.1,0.9,2,2,2h34c1.1,0,2-0.9,2-2V7C43,5.9,42.1,5,41,5z M35.3,10.4
	c0.5-0.5,1-1,1.5-1.4c0.8-0.5,1.7-0.8,2.6-1.2c0.6,0.3,1.3,0.5,1.5,0.9c0.3,0.8-0.2,1.4-0.8,1.9c-1,0.8-2,1.7-2.9,2.6
	c-0.6,0.6-1.1,0.8-1.8,0C34,11.8,33.9,11.9,35.3,10.4z M33.8,13.3c0.4,0.4,0.8,0.8,1.2,1.3c0.1,0.2,0,0.5-0.1,0.7
	c-0.2-0.1-0.6-0.1-0.7-0.2c-0.3-0.5-0.5-1.1-0.7-1.7C33.7,13.4,33.7,13.3,33.8,13.3z M32.9,17.4c-0.2-0.6-0.4-1.1-0.6-1.6
	C33.5,16.2,33.7,16.6,32.9,17.4z M31.4,19.4c-0.3-0.6-0.5-1.1-0.8-1.8C32,18.6,32,18.6,31.4,19.4z M41.5,19
	c-2.1,1.4-4.1,2.8-6.2,4.2c-3.1,2.1-5.4,4.8-7.2,8c-0.4,0.7-0.7,0.8-1.3,0.4c-0.7-0.5-1.1-0.3-1.5,0.4c-0.6,1.1-1.2,2.3-1.8,3.4
	c-0.3,0.7-0.1,1,0.6,1c0.6,0,1.2-0.1,1.8,0c2.2,0.2,4.5,0.5,6.7,0.7c1.7,0.2,3.4,0.5,5.1,0.8c0,0.1,0,0.2,0,0.3
	c-0.1,0-0.3,0.1-0.4,0.1c-4.2,0.1-8.3,0.3-12.5,0.4c-3,0.1-6,0.3-9.1,0.4c-2.2,0.1-4.3,0.3-6.5,0.4C8,39.6,7.6,39,8,37.7
	c0.3-0.8,0.7-1.5,1.1-2.2c1.8-3.1,3.7-6.2,5.5-9.3c0.4-0.6,0.3-1.1-0.4-1.3c-0.9-0.3-0.8-0.8-0.4-1.6c1.4-2.9,2.8-5.7,4-8.7
	c0.8-1.9,0.8-4,0.4-6C18,7.9,18,7.1,17.9,6.4c0.1,0,0.2-0.1,0.3-0.1c0.7,1,1.4,2,1.4,3.3c0.1,1.2,0.2,2.3,0.1,3.5
	c0,0.6-0.3,1.3-0.6,1.8c-0.5,1.1-1,2.1-1.5,3.2c-0.8,1.8-1.7,3.7-2.5,5.6c3.1,1.8,6.2,3.6,9.3,5.4c0.5,0.3,1.1,0.6,1.6,0.9
	c0.7,0.4,1.2,0.3,1.6-0.3c0.3-0.4,0.6-0.8,0.9-1.2c1.4-2.5,3.4-4.6,5.5-6.5c0.5-0.5,1.2-0.8,1.8-1.2c1.8-0.9,3.6-1.8,5.4-2.7
	c0.2-0.1,0.4-0.1,0.8,0.1C41.8,18.5,41.7,18.8,41.5,19z"/>
</svg>
