<?xml version="1.0" encoding="utf-8"?>
<!-- Generator: Adobe Illustrator 21.1.0, SVG Export Plug-In . SVG Version: 6.00 Build 0)  -->
<svg version="1.0" id="Layer_1" xmlns="http://www.w3.org/2000/svg" xmlns:xlink="http://www.w3.org/1999/xlink" x="0px" y="0px"
	 viewBox="0 0 48 48" style="enable-background:new 0 0 48 48;" xml:space="preserve">
<style type="text/css">
	.st0{fill:#FFFFFF;}
</style>
<g>
	<path class="st0" d="M21.2,19c3,3,5.9,5.9,8.9,8.9c0.3-0.3,0.7-0.7,1.2-1.2c-3.1-3-6.1-5.8-9.1-8.7C22,18.2,21.5,18.6,21.2,19z"/>
	<path class="st0" d="M14.2,30.7c1.4,1.4,2.7,2.7,4.2,4.2c1.9-3.1,5.6-3.5,8.4-5.1c-2.5-2.5-5-5-7.5-7.5
		C17.7,25.2,17.2,28.8,14.2,30.7z"/>
	<path class="st0" d="M41,5H7C5.9,5,5,5.9,5,7v34c0,1.1,0.9,2,2,2h34c1.1,0,2-0.9,2-2V7C43,5.9,42.1,5,41,5z M40.4,22.2
		c-3.1,3.1-6.1,6.1-9.2,9.2c-0.2,0.2-0.5,0.4-0.8,0.5c-1.8,0.8-3.5,1.6-5.3,2.3c-1.7,0.7-3.3,1.5-4.5,3c-1,1.2-2.4,1.1-4,0.8
		c-0.6,0.7-1.2,1.4-1.9,2.2c-2.5-1.2-5-2.4-7.5-3.6c1.4-1.3,2.8-2.6,4.1-3.8c-1-2.3-0.2-3.8,1.3-5.2c0.7-0.6,1.1-1.5,1.6-2.3
		c0.3-0.4,0.4-0.9,0.6-1.4c1.3-4.2,3.8-7.5,7.1-10.4c2-1.7,3.6-3.8,5.5-5.7c1,1,1.7,1.8,2.4,2.5c-1.6,1.7-3.2,3.4-4.8,5.1
		c3,2.8,6,5.7,9,8.6c1.4-1.4,3-3,4.6-4.7c0.8,0.9,1.5,1.7,2.3,2.5C40.7,21.9,40.6,22.1,40.4,22.2z"/>
</g>
</svg>
