<svg width="48" height="48" version="1.1" viewBox="0 0 48 48" xmlns="http://www.w3.org/2000/svg">
 <g>
  <path d="m7 5c-1.108 0-2 0.892-2 2v34c0 1.108 0.892 2 2 2h34c1.108 0 2-0.892 2-2v-34c0-1.108-0.892-2-2-2zm29.977 8.25h2.4121v21.5h-2.4121zm-25.098 7.4824a3.2677 3.2677 0 0 1 3.2676 3.2676 3.2677 3.2677 0 0 1 -3.2676 3.2676 3.2677 3.2677 0 0 1 -3.2676 -3.2676 3.2677 3.2677 0 0 1 3.2676 -3.2676zm10.057 0a3.2677 3.2677 0 0 1 3.2676 3.2676 3.2677 3.2677 0 0 1 -3.2676 3.2676 3.2677 3.2677 0 0 1 -3.2676 -3.2676 3.2677 3.2677 0 0 1 3.2676 -3.2676zm10.057 0a3.2677 3.2677 0 0 1 3.2676 3.2676 3.2677 3.2677 0 0 1 -3.2676 3.2676 3.2677 3.2677 0 0 1 -3.2676 -3.2676 3.2677 3.2677 0 0 1 3.2676 -3.2676z" fill="#fff"/>
 </g>
</svg>
