<?xml version="1.0" encoding="UTF-8"?>
<svg version="1.1" viewBox="0 0 48 48" xmlns="http://www.w3.org/2000/svg">
    <path d="m23.966 5a4.7095 4.7095 0 0 0-4.7094 4.7094 4.7095 4.7095 0 0 0 4.7094 4.7094 4.7095 4.7095 0 0 0 4.7094-4.7094 4.7095 4.7095 0 0 0-4.7094-4.7094zm0.13337 9.4198a5.6513 2.8257 0 0 0-2.959 0.37804 5.6513 2.8257 0 0 0-2.8257 2.4467h2.8257c0 19.78-12.904 18.309-9.4189 20.722 2.482 1.7186 2.8257-0.09382 0 2.2609-4.2057 3.5048 29.151 3.8849 24.489 0-2.8257-2.3547-2.6538-0.54235 0-2.2609 3.7251-2.4123-9.4189-0.94189-9.4189-20.722h2.8257a5.6513 2.8257 0 0 0-2.8257-2.4467 5.6513 2.8257 0 0 0-2.6923-0.37804z" fill="#fff" fill-opacity=".98312"/>
</svg>
