<?xml version="1.0" encoding="utf-8"?>
<!-- Generator: Adobe Illustrator 21.1.0, SVG Export Plug-In . SVG Version: 6.00 Build 0)  -->
<svg version="1.0" id="Layer_1" xmlns="http://www.w3.org/2000/svg" xmlns:xlink="http://www.w3.org/1999/xlink" x="0px" y="0px"
	 viewBox="0 0 48 48" style="enable-background:new 0 0 48 48;" xml:space="preserve">
<style type="text/css">
	.st0{fill:#FFFFFF;}
</style>
<path class="st0" d="M23.9,43c-5.1,0-10.3-0.1-15.4,0C6.2,43,5,41.7,5,39.5C5,29.2,5,18.9,5,8.5C5,6.1,6.1,5,8.5,5
	c10.3,0,20.6,0,30.9,0c2.3,0,3.5,1.2,3.5,3.4c0,10.4,0,20.8,0,31.2c0,2.3-1.1,3.4-3.4,3.4C34.3,43,29.1,43,23.9,43
	C23.9,43,23.9,43,23.9,43z M14.3,34.7c1.1-0.3,1.1-1.1,1.1-1.9c0-4.6,0-9.3,0-13.9c0-0.6,0-1.2,0.2-1.7c2.1-5.2,7.3-7.3,12.4-5.3
	c2.2,0.9,5.1,4.8,5,7.2c-0.2,4.4,0,8.8,0,13.1c0,0.4,0,0.8,0,1.1c0,0.7,0.3,1.2,1.2,1.3c3.5-0.9,5.8-3,6.4-6.6
	c0.7-4.4-1.5-7.4-5.4-9.2c-0.5-5.2-4.8-10-11-10c-2.6,0-5,0.7-7,2.5c-2.3,2-3.9,4.4-4.2,7.5c-3.9,1.7-5.8,4.8-5.4,8.9
	C8,30.8,10.4,34,14.3,34.7z M28.2,32.8c0.8,0,1.5,0,2.2,0c0-4.3,0-8.4,0-12.7c-1,0-2,0-3,0c-1.1,3-2.3,6-3.4,9c-0.1,0-0.2,0-0.2,0
	c-1.1-3-2.2-6-3.4-8.9c-1,0-2,0-3,0c0,4.3,0,8.4,0,12.7c0.7,0,1.4,0,2.3,0c0-2.9,0-5.7,0-8.4c0.1,0,0.1,0,0.2,0
	c1,2.8,2.1,5.6,3.1,8.4c0.6,0,1.2,0,1.8,0c1.1-3,2.2-5.8,3.2-8.7c0.1,0,0.1,0,0.2,0C28.2,27,28.2,29.8,28.2,32.8z"/>
</svg>
