<svg height="48" viewBox="0 0 12.7 12.7" width="48" xmlns="http://www.w3.org/2000/svg"><path d="m1.8520832 1.3229165c-.2931584 0-.5291667.236007-.5291667.529167v8.9958335c0 .29316.2360083.529167.5291667.529167h8.9958338c.293158 0 .529167-.236007.529167-.529167v-8.9958335c0-.29316-.236009-.529167-.529167-.529167zm1.0381795 1.160136h6.9194748c.2255065 0 .4072105.181701.4072105.40721v6.919475c0 .2255105-.181704.4072105-.4072105.4072105h-6.9194748c-.2255065 0-.4072103-.1817-.4072103-.4072105v-6.919475c0-.225509.1817038-.40721.4072103-.40721zm.2640666.295073c-.2082967 0-.3762045.167904-.3762045.376204v6.391341c0 .20829.1679078.376205.3762045.376205h6.3913412c.208296 0 .376204-.167915.376204-.376205v-6.391341c0-.2083-.167908-.376204-.376204-.376204zm.5498372.79375h1.0583333l.6015138 1.335835h.2382282l.8536947-1.335835h1.058333v3.96875h-1.058333v-2.386935l-.8536947 1.24902h-.2382282l-.6015138-1.26969v2.407605h-1.0583333z" fill="#fff" stroke-width=".187993"/></svg>