<?xml version="1.0" encoding="UTF-8"?>
<svg version="1.1" viewBox="0 0 48 48" xmlns="http://www.w3.org/2000/svg">
    <path d="m12 12v28c0 1.662 1.338 3 3 3h18c1.662 0 3-1.338 3-3v-4h4c1.662 0 3-1.338 3-3v-18c0-1.662-1.338-3-3-3h-28zm10.682 4.9473a1.1731 1.1731 0 0 1 0.035156 0h10.094a1.1731 1.1731 0 1 1 0 2.3457h-9.2656l-4.2148 11.898a1.1731 1.1731 0 0 1-2.1992 0.033203l-3.0449-7.8574a1.1731 1.1731 0 1 1 2.1875-0.84766l1.9023 4.9082 3.4355-9.6992a1.1731 1.1731 0 0 1 1.0703-0.78125zm2.1348 4.4531 2.3887 0.017578 2.1543 3.3574 2.2734-3.375h2.4141l-3.5098 5.207 3.4629 5.3926h-2.3789l-2.3008-3.584-2.4277 3.6016-2.4004-0.017578 3.6504-5.418-3.3262-5.1816z" fill="#fff" style="paint-order:stroke markers fill"/>
    <path d="m15 5c-1.662 0-3 1.338-3 3v2.5h24v-2.5c0-1.662-1.338-3-3-3h-18z" fill="#fff" style="paint-order:stroke markers fill"/>
    <path d="m8 12c-1.662 0-3 1.338-3 3v18c0 1.662 1.338 3 3 3h2.5v-24z" fill="#fff" style="paint-order:stroke markers fill"/>
</svg>
