<?xml version="1.0" encoding="UTF-8"?>
<svg viewBox="0 0 48 48" xmlns="http://www.w3.org/2000/svg">
  <path
     style="fill:#fff"
     d="M 24,2 C 11.849736,2 2,11.849736 2,24 c 0.00735,3.2694 0.7432873,6.496061 2.1542969,9.445312 0.2991027,-0.486945 0.6604526,-1.053871 0.90625,-1.4375 0.4217692,-0.658274 0.765625,-1.234061 0.765625,-1.279296 0,-0.04524 -0.5799888,-0.03366 -1.2890625,0.02539 -1.1998026,0.09994 -1.3008372,0.08482 -1.4570313,-0.207031 -0.3348716,-0.625708 -0.2238534,-0.714476 0.9453125,-0.759766 0.6109715,-0.02367 1.525114,-0.115994 2.03125,-0.205078 0.8136526,-0.14321 1.0261912,-0.262948 1.8398438,-1.035156 0.5061368,-0.480355 1.2836931,-1.136126 1.7265625,-1.457031 0.7799161,-0.56513 1.0907741,-1.018358 0.5371091,-0.783203 -1.1885494,0.504803 -2.3456953,0.701865 -3.8749998,0.65625 C 4.764006,26.917526 4.599358,26.880249 3.4082031,26.302734 2.2812702,25.75636 2.1465761,25.643949 2.1464844,25.267578 c -1.37e-4,-0.561302 0.2178998,-0.540569 1.5332031,0.146484 0.9861419,0.515116 1.2236761,0.57477 2.5507813,0.632813 1.5735916,0.06882 3.3810056,-0.279928 3.5351562,-0.681641 C 9.8091283,25.251877 9.6644893,24.839416 9.4453125,24.447266 8.980538,23.615696 8.9629151,23.426521 9.2910156,22.871094 9.5275957,22.470593 9.5183937,22.441758 8.9707031,21.849609 8.6609925,21.514758 8.246431,20.924971 8.0488281,20.539062 7.7184971,19.893946 7.622728,19.823381 6.8671875,19.654297 5.3656559,19.31827 4.5337225,18.126342 4.5507812,16.333984 c 0.025019,-2.62905 1.8619436,-4.966228 5.1875,-6.6035152 3.2816408,-1.6156674 5.4984858,-1.5367675 7.6523438,0.2753902 0.631986,0.531725 0.958052,0.676715 2.056641,0.910157 0.71803,0.152575 1.338025,0.308728 1.376953,0.347656 0.03893,0.03893 0.02336,0.317685 -0.0332,0.61914 -0.0701,0.373709 -0.385385,0.848559 -0.992188,1.494141 l -0.890625,0.947266 0.365235,0.798828 c 0.467901,1.022025 0.612614,2.533809 0.357421,3.736328 -0.193821,0.913331 -0.19142,0.928634 0.197266,1.234375 0.21629,0.170134 0.473308,0.549823 0.570313,0.84375 0.097,0.293927 0.214909,0.535156 0.263671,0.535156 0.192741,0 4.985367,-2.552674 6.835938,-3.640625 1.835406,-1.079036 1.958025,-1.180709 1.882812,-1.55664 -0.207473,-1.036996 -1.193628,-7.8581979 -1.142578,-7.9023441 0.03181,-0.027509 1.354971,0.048573 2.939453,0.1699219 l 2.88086,0.2207031 0.791015,-0.3945313 c 0.660233,-0.3290087 1.004366,-0.3945312 2.070313,-0.3945312 1.322847,0 2.276153,0.2608224 2.43164,0.6660156 0.04644,0.1210199 0.200644,0.1897681 0.34375,0.1523438 0.05927,-0.015498 0.141939,0.00739 0.232422,0.046875 C 35.778282,4.4762005 30.021571,2.0040975 24,2 Z m 15.927734,6.8398438 c 0.246985,0.2674326 0.487293,0.5409543 0.720704,0.8203124 l 0.173828,-0.029297 -0.433594,-0.453125 C 40.233917,9.0162057 40.069493,8.9016972 39.927734,8.8398438 Z m 0.720704,0.8203124 -0.453126,0.076172 c -0.585188,0.098866 -0.626953,0.1388955 -0.626953,0.6093748 0,0.277287 -0.04164,0.717964 -0.09375,0.978516 l -0.0957,0.474609 1.578125,0.04297 c 0.762193,0.02121 1.221899,0.06455 1.455078,0.132812 -0.53617,-0.80956 -1.125348,-1.582735 -1.763671,-2.3144527 z m 1.763671,2.3144528 c 0.04198,0.06099 0.08364,0.122186 0.125,0.183594 0.0491,-0.02281 0.07111,-0.04821 0.06055,-0.08008 -0.01334,-0.04023 -0.08427,-0.07387 -0.185547,-0.103516 z m 0.125,0.183594 c -0.178491,0.08293 -0.789659,0.111328 -2.1875,0.111328 -1.629131,0 -2.314453,-0.05268 -2.314453,-0.175781 0,-0.09614 -0.09708,-0.250093 -0.216797,-0.34375 -0.119721,-0.09366 -0.691753,-0.564685 -1.271484,-1.044922 L 35.492188,9.8320312 32.441406,9.5957031 C 30.76413,9.4650588 29.370369,9.3796296 29.34375,9.40625 c -0.02661,0.026621 0.377389,2.803861 0.896484,6.171875 l 0.94336,6.123047 -0.390625,5.214844 c -0.214504,2.868107 -0.332539,5.251067 -0.263672,5.294922 0.06886,0.04385 1.630617,-0.01409 3.470703,-0.128907 3.223509,-0.201115 5.911912,-0.134882 9.587891,0.234375 l 0.740234,0.07422 c 0.228641,-0.357051 0.239058,-0.817427 0.306644,-1.103516 -0.0024,-0.210891 0.136788,-2.383751 0.308593,-4.830078 0.275724,-3.925963 0.304287,-7.611361 0.07813,-8.876953 -0.578182,-1.911682 -1.413985,-3.73573 -2.484375,-5.421875 z m 1.414063,21.396257 c -0.01884,-0.201659 -0.304348,-0.278449 -0.675781,-0.323989 -3.219206,-0.394746 -5.568706,-0.440167 -9.669922,-0.185547 -2.302928,0.142974 -4.204869,0.23644 -4.226563,0.208984 -0.02169,-0.02745 0.156369,-2.4995 0.396485,-5.49414 0.240112,-2.99464 0.419365,-5.593283 0.398437,-5.775391 -0.03449,-0.300093 -0.188827,-0.229824 -1.648437,0.75 -2.133613,1.432275 -3.52057,2.55558 -4.240235,3.433594 -0.666285,0.812886 -0.620509,0.248023 -0.433594,5.197265 0.10268,2.718774 -0.05907,7.536983 -0.410156,12.154297 l -0.177734,2.44336 C 23.50889,45.979373 23.754367,45.991744 24,46 32.573937,45.98952 40.360687,41.340404 43.951172,33.55446 Z M 17.591797,45.041016 17.576172,40 c -0.0094,-2.752356 -0.05156,-5.037672 -0.09375,-5.078125 -0.09124,-0.08753 -7.050772,1.066401 -7.173828,1.189453 -0.129336,0.129339 0.250392,0.110493 3.605468,-0.171875 1.706589,-0.14363 3.135182,-0.230052 3.173829,-0.191406 0.03865,0.03865 -0.09622,1.13967 -0.298829,2.445312 -0.202612,1.305643 -0.454371,3.218593 -0.558593,4.251953 -0.195573,1.939085 -0.282664,2.115416 -0.875,1.740235 -0.25289,-0.160179 -0.174596,-1.247412 0.359375,-4.900391 0.192948,-1.31998 0.307236,-2.445066 0.253906,-2.501953 -0.113435,-0.121004 -6.5199836,0.409941 -6.7636719,0.560547 -0.090684,0.05604 -0.394744,0.442057 -0.6757812,0.859375 l -0.5097657,0.759766 c -0.020033,-0.01613 -0.074536,-0.0091 -0.125,-0.0039 2.6391368,2.847486 5.9848098,4.94586 9.6972658,6.082032 z M 13.582031,9.53125 C 10.962915,9.6585903 7.1433047,11.991246 5.9707031,14.279297 5.4648259,15.266393 5.381182,16.9176 5.796875,17.732422 c 0.3699947,0.72525 0.5853982,0.924273 1.1035156,1.019531 0.2108905,0.03877 0.4187593,0.07882 0.4609375,0.08984 0.042181,0.01101 0.3520296,-0.05566 0.6894531,-0.148438 0.8238031,-0.226521 2.0951568,-1.169029 4.2167968,-3.125 1.835656,-1.692319 3.691279,-3.033989 4.957031,-3.583984 L 17.964844,11.664058 17.107422,10.96484 C 15.904444,9.9850057 15.11338,9.6111452 14.089844,9.5371094 13.927057,9.5253344 13.756639,9.5227606 13.582031,9.53125 Z m 20.158203,2.277344 c 1.942747,0 2.300782,0.0362 2.300782,0.230468 0,0.194275 -0.358035,0.230469 -2.300782,0.230469 -1.942746,0 -2.300781,-0.0362 -2.300781,-0.230469 0,-0.194274 0.358035,-0.230468 2.300781,-0.230468 z m 0.472657,1.99414 c 1.782453,0 2.299094,0.04369 2.25,0.191407 -0.04623,0.139104 -0.680197,0.203578 -2.3125,0.234375 -1.93351,0.03648 -2.25,0.0098 -2.25,-0.191407 0,-0.199617 0.340389,-0.234375 2.3125,-0.234375 z m 6.429687,0 c 1.942746,0 2.300781,0.0362 2.300781,0.230469 0,0.194275 -0.358035,0.230469 -2.300781,0.230469 -1.942747,0 -2.300781,-0.0362 -2.300781,-0.230469 0,-0.194275 0.358034,-0.230469 2.300781,-0.230469 z m -6.134766,1.994141 c 1.431498,0 2.300782,0.05887 2.300782,0.154297 0,0.09544 -0.869285,0.152344 -2.300782,0.152344 -1.431496,0 -2.300781,-0.05692 -2.300781,-0.152344 0,-0.09544 0.869286,-0.154297 2.300781,-0.154297 z m 6.289063,0 c 1.431496,0 2.298828,0.05887 2.298828,0.154297 0,0.09544 -0.867332,0.152344 -2.298828,0.152344 -1.431496,0 -2.300781,-0.05692 -2.300781,-0.152344 0,-0.09544 0.869285,-0.154297 2.300781,-0.154297 z m -22.962891,0.898437 c -0.336827,-0.01804 -0.685009,0.107807 -0.943359,0.382813 -0.450502,0.479538 -0.69877,1.380133 -0.488281,1.773437 0.280555,0.524223 1.430719,0.536314 2.154297,0.02344 0.515581,-0.365449 0.580988,-1.097243 0.152343,-1.699219 -0.213822,-0.300285 -0.538172,-0.462433 -0.875,-0.480469 z m 16.929688,0.976563 c 1.632303,0.0308 2.266266,0.09527 2.3125,0.234375 0.0491,0.147716 -0.465592,0.191406 -2.248047,0.191406 -1.972108,0 -2.314453,-0.03476 -2.314453,-0.234375 0,-0.201253 0.316489,-0.227885 2.25,-0.191406 z m 6.185547,0.119141 c 1.431495,0 2.300781,0.05692 2.300781,0.152343 0,0.09544 -0.869286,0.154297 -2.300781,0.154297 -1.431497,0 -2.300782,-0.05887 -2.300781,-0.154297 0,-0.09544 0.869284,-0.152343 2.300781,-0.152343 z m -5.828125,1.839843 c 1.942745,0 2.300781,0.0362 2.300781,0.230469 0,0.194276 -0.358036,0.230469 -2.300781,0.230469 -1.942747,0 -2.300781,-0.0362 -2.300782,-0.230469 0,-0.194274 0.358035,-0.230469 2.300782,-0.230469 z m 6.033203,0.03516 c 1.933511,-0.03648 2.25,-0.0098 2.25,0.191406 0,0.199616 -0.342345,0.234375 -2.314453,0.234375 -1.782455,0 -2.299093,-0.04369 -2.25,-0.191406 0.04623,-0.139104 0.68215,-0.203579 2.314453,-0.234375 z m -21.828125,1.320312 c -0.292225,-0.0056 -0.97275,0.161899 -2.390625,0.570313 -1.343774,0.387078 -3.407436,0.908995 -4.585938,1.160156 -1.178504,0.25116 -2.183785,0.523611 -2.234375,0.605469 -0.05059,0.08185 0.09992,0.543834 0.335938,1.027343 0.236019,0.483507 0.431703,0.972352 0.433594,1.085938 0.0063,0.373696 1.368235,0.11007 3.277343,-0.634766 1.95316,-0.762021 3.76907,-1.806522 4.816407,-2.769531 0.692525,-0.636765 0.716021,-0.680961 0.523437,-0.984375 -0.02388,-0.03762 -0.07837,-0.0587 -0.175781,-0.06055 z M 35.427734,21.625 c 1.431496,0 2.300782,0.05887 2.300782,0.154297 0,0.09544 -0.869286,0.152344 -2.300782,0.152344 -1.431496,0 -2.300781,-0.05692 -2.300781,-0.152344 0,-0.09544 0.869285,-0.154297 2.300781,-0.154297 z m 5.828125,0 c 1.942746,0 2.300782,0.03619 2.300782,0.230469 0,0.194276 -0.358036,0.230469 -2.300782,0.230469 -1.942746,0 -2.300781,-0.0362 -2.300781,-0.230469 0,-0.194275 0.358035,-0.230469 2.300781,-0.230469 z m -5.980468,1.994141 c 1.431495,0 2.298828,0.05692 2.298828,0.152343 0,0.09544 -0.867333,0.154297 -2.298828,0.154297 -1.431497,0 -2.300782,-0.05887 -2.300782,-0.154297 0,-0.09544 0.869285,-0.152343 2.300782,-0.152343 z m 5.828125,0 c 1.431496,0 2.300781,0.05692 2.300781,0.152343 0,0.09544 -0.869285,0.154297 -2.300781,0.154297 -1.431496,0 -2.300782,-0.05887 -2.300782,-0.154297 0,-0.09544 0.869286,-0.152343 2.300782,-0.152343 z m -6.058594,1.916015 c 1.683713,0 2.290596,0.05147 2.33789,0.19336 0.04932,0.147936 -0.483761,0.191406 -2.33789,0.191406 -1.85413,0 -2.389155,-0.04347 -2.339844,-0.191406 0.04729,-0.141885 0.65613,-0.19336 2.339844,-0.19336 z m 5.904297,0.07813 c 1.431495,0 2.300781,0.05692 2.300781,0.152344 0,0.09543 -0.869286,0.154297 -2.300781,0.154297 -1.431497,0 -2.300781,-0.05887 -2.300781,-0.154297 0,-0.09544 0.869284,-0.152344 2.300781,-0.152344 z m -0.152344,1.839844 c 1.942745,0 2.298828,0.03619 2.298828,0.230469 0,0.194276 -0.356083,0.230469 -2.298828,0.230468 -1.942747,0 -2.300781,-0.0362 -2.300781,-0.230468 0,-0.194275 0.358034,-0.230469 2.300781,-0.230469 z m -5.90625,0.07617 c 1.683712,0 2.292549,0.05147 2.339844,0.193359 0.04932,0.147936 -0.485715,0.191406 -2.339844,0.191406 -1.854131,0 -2.387203,-0.04348 -2.337891,-0.191406 0.04729,-0.141886 0.654177,-0.193359 2.337891,-0.193359 z m -0.230469,1.917969 c 1.942746,0 2.300781,0.03619 2.300782,0.230468 0,0.1938 -0.34541,0.230469 -2.197266,0.230469 -1.209105,0 -2.244543,-0.04727 -2.300781,-0.103515 -0.294308,-0.294309 0.09506,-0.357422 2.197265,-0.357422 z m 5.982422,0 c 1.942746,0 2.300781,0.03619 2.300781,0.230468 0,0.1938 -0.347362,0.230469 -2.199218,0.230469 -1.209105,0 -2.244547,-0.04727 -2.300782,-0.103515 -0.294311,-0.294309 0.09701,-0.357422 2.199219,-0.357422 z m -30.439453,9.355468 c 0.163538,0 0.187308,0.235019 0.117187,1.111328 -0.100709,1.258564 -0.102029,1.268981 -0.298828,1.001954 -0.2245089,-0.304622 -0.069066,-2.113282 0.181641,-2.113282 z m 1.787109,0 c 0.108469,0 0.125783,0.485981 0.05078,1.496094 -0.116798,1.572894 -0.154119,1.72461 -0.410157,1.72461 -0.09894,0 -0.126821,-0.274374 -0.07422,-0.728516 0.04641,-0.400691 0.127754,-1.124328 0.179687,-1.609375 0.05193,-0.485048 0.16559,-0.882813 0.253906,-0.882813 z m 1.72461,0 c 0.172751,0 0.203748,0.187089 0.146484,0.882813 -0.137416,1.669509 -0.232385,2.185547 -0.398437,2.185547 -0.113864,0 -0.134258,-0.371261 -0.06641,-1.173828 0.05456,-0.645397 0.09961,-1.335041 0.09961,-1.533204 0,-0.209909 0.09117,-0.361328 0.21875,-0.361328 z m -5.3964846,0.04883 c 0.026761,-0.02299 0.070146,-0.0021 0.1308594,0.05859 0.092267,0.09227 0.1422818,0.284673 0.1132812,0.427735 C 8.533504,39.480954 8.459751,39.544273 8.3964844,39.480469 8.3332134,39.416669 8.28125,39.22426 8.28125,39.052734 c 0,-0.112866 0.010348,-0.178184 0.037109,-0.201172 z"
     />
</svg>
