<?xml version="1.0" encoding="UTF-8"?>
<svg version="1.1" viewBox="0 0 48 48" xmlns="http://www.w3.org/2000/svg">
    <path d="m10.255 8.7241 5.8596 10.149c2.9298 5.0746 2.9298 5.0746 0 10.149l-5.8596 10.149c-2.9298 5.0746-2.9298 1.9541-2.9298-5.0746v-20.298c0-7.0738 0-10.149 2.9298-5.0746z" fill="#fff"/>
    <path d="m37.397 24.529h-5.8596l-5.8596 1e-6c-5.8596-1e-6 -5.8596-1e-6 -8.7894 5.0746l-5.8596 10.149c-2.9298 5.0746-0.22743 3.5143 5.8596 0l17.579-10.149c6.1682-3.5612 8.7894-5.0746 2.9298-5.0746z" fill="#fff"/>
    <path d="m17.082 8.2546 17.579 10.149c8.7894 5.0746 6.1682 5.0746 2.9298 5.0746h-11.719c-5.8596 1e-6 -5.8596 0-8.7894-5.0746l-5.8596-10.149c-2.9298-5.0746-0.26646-3.5369 5.8596 0z" fill="#fff"/>
</svg>
