<?xml version="1.0" encoding="utf-8"?>
<!-- Generator: Adobe Illustrator 21.1.0, SVG Export Plug-In . SVG Version: 6.00 Build 0)  -->
<svg version="1.0" id="Layer_1" xmlns="http://www.w3.org/2000/svg" xmlns:xlink="http://www.w3.org/1999/xlink" x="0px" y="0px"
	 viewBox="0 0 48 48" style="enable-background:new 0 0 48 48;" xml:space="preserve">
<style type="text/css">
	.st0{fill:#FFFFFF;}
</style>
<path class="st0" d="M24,46C12,46,2,36,2,24C2,12,12,2,24,2c12,0,22,10,22,22C46,36,36,46,24,46z M21.4,25.5c0.5-0.5,0.9-1,1.3-1.5
	c1.6-1.8,1.6-4.7-0.1-6.4C22,17,21.2,16.4,20.4,16c-3.3-1.7-8.2-1-10.4,1.5c-0.5,0.5-1,1.1-0.4,1.7c0.6,0.6,1.3,0.7,2.1,0
	c0.7-0.6,1.6-1.1,2.5-1.4c1.7-0.6,3.8,0.6,4.3,2.1c0.6,1.6-0.3,3.5-2.1,4.1c-0.9,0.3-1.9,0.4-2.8,0.5c-0.8,0.1-1.3,0.1-1.3,1.1
	c0,0.9,0.4,1.1,1.2,1.1c0.9,0,1.8,0.2,2.7,0.4c2,0.7,3.3,2.9,2.9,4.7c-0.4,1.8-2.4,3.2-4.5,3c-2.1-0.1-3.8-1-4.8-2.8
	c-0.8-1.5-1.2-3.2-1.7-4.8c-0.2-0.8-0.6-1.1-1.4-1c-0.8,0-1,0.5-0.9,1.2c0.2,1.2,0.2,2.5,0.6,3.7c2.2,7.2,11.4,9.6,16.7,4.4
	c2.3-2.2,2.4-6.7-0.2-8.9C22.5,26.3,21.9,25.9,21.4,25.5z M33.3,36.5c5.9,0.2,10.8-6,7.5-12.3c-2.2-4.2-8-6.1-12.1-2.6
	c-1.2,1-2.7,1.8-4.2,2.5c-1,0.5-1.5,1-1.1,2.1c0.3,1,1.2,0.6,1.8,0.5c0.6-0.1,1.1-0.4,1.6-0.7c1.2-0.7,2.4-1.6,3.7-2.2
	c2.1-1,4-0.6,5.3,1.2c1.5,2.1,1.4,5.1-0.1,7.2c-1.3,1.7-3.4,2.2-6.1,1.1c-0.8-0.3-1.3-0.3-1.7,0.6c-0.4,0.9,0.1,1.4,0.9,1.6
	C30.2,35.8,31.8,36.1,33.3,36.5z M20.5,9c-0.4,0-0.8,0-1.1,0c-1.2-0.2-1.6,0.6-1.3,1.5c0.4,1.1,0.8,2.2,1.6,3.1
	c2.4,2.7,7,3.4,10.4,1.7c2-1,3.5-2.4,3.9-4.8c0.1-1-0.1-1.6-1.3-1.5C31.8,9,31,9,30.1,9c-0.7,0-0.9,0.2-1.1,0.9
	c-0.2,0.9-0.5,1.9-1,2.7c-1,1.6-2.9,1.6-4,0c-0.4-0.6-0.8-1.4-0.9-2.2C23,9.3,22.5,8.8,21.4,9C21.1,9,20.8,9,20.5,9z M26,10.1
	c1.5,0,2.5-0.9,2.5-2.4c0-1.4-1.1-2.5-2.4-2.5c-1.3,0-2.4,1.1-2.4,2.4C23.6,9.1,24.5,10.1,26,10.1z"/>
</svg>
