<?xml version="1.0" encoding="UTF-8" standalone="no"?>
<svg
   xmlns:dc="http://purl.org/dc/elements/1.1/"
   xmlns:cc="http://creativecommons.org/ns#"
   xmlns:rdf="http://www.w3.org/1999/02/22-rdf-syntax-ns#"
   xmlns:svg="http://www.w3.org/2000/svg"
   xmlns="http://www.w3.org/2000/svg"
   xmlns:sodipodi="http://sodipodi.sourceforge.net/DTD/sodipodi-0.dtd"
   xmlns:inkscape="http://www.inkscape.org/namespaces/inkscape"
   width="48"
   height="48"
   viewBox="-0.9714696 -0.9714696 8.6259993 8.6262431"
   version="1.1"
   id="svg4"
   sodipodi:docname="megafon.svg"
   inkscape:version="0.92.4 5da689c313, 2019-01-14">
  <metadata
     id="metadata10">
    <rdf:RDF>
      <cc:Work
         rdf:about="">
        <dc:format>image/svg+xml</dc:format>
        <dc:type
           rdf:resource="http://purl.org/dc/dcmitype/StillImage" />
        <dc:title></dc:title>
      </cc:Work>
    </rdf:RDF>
  </metadata>
  <defs
     id="defs8" />
  <sodipodi:namedview
     pagecolor="#ffffff"
     bordercolor="#666666"
     borderopacity="1"
     objecttolerance="10"
     gridtolerance="10"
     guidetolerance="10"
     inkscape:pageopacity="0"
     inkscape:pageshadow="2"
     inkscape:window-width="1250"
     inkscape:window-height="1397"
     id="namedview6"
     showgrid="false"
     inkscape:pagecheckerboard="true"
     inkscape:zoom="4.9166667"
     inkscape:cx="-30"
     inkscape:cy="24"
     inkscape:window-x="1290"
     inkscape:window-y="23"
     inkscape:window-maximized="0"
     inkscape:current-layer="svg4" />
  <path
     d="m 2.5499241,2.5870224 c -0.29055,0 -0.5265,-0.235625 -0.5265,-0.52585 0,-0.290875 0.23595,-0.5265 0.5265,-0.5265 0.29055,0 0.52585,0.235625 0.52585,0.5265 0,0.290225 -0.2353,0.52585 -0.52585,0.52585 m 0.806975,-3.47099999 c -2.325375,0 -4.2094,1.88434999 -4.2094,4.20939999 0,2.0176 1.419925,3.7037 3.31435,4.114175 v -3.777475 l 2.6e-4,-2.6e-4 c 0.0042,-0.182325 0.1495,-0.329225 0.3302,-0.33605 v -2.6e-4 h 0.175175 0.356525 c 0.0247,0 0.04485,-0.0195 0.04615,-0.04387 l 2.6e-4,-4.16490099 m 2.887235,6.50497099 c -0.290225,0 -0.526175,-0.235625 -0.526175,-0.5265 0,-0.2899 0.23595,-0.525525 0.526175,-0.525525 0.290225,0 0.526175,0.235625 0.526175,0.525525 0,0.290875 -0.23595,0.5265 -0.526175,0.5265 m -1.233375,0 c -0.290225,0 -0.52585,-0.235625 -0.52585,-0.5265 0,-0.2899 0.235625,-0.525525 0.52585,-0.525525 0.29055,0 0.526175,0.235625 0.526175,0.525525 0,0.290875 -0.235625,0.5265 -0.526175,0.5265 m -1.234025,0 c -0.290225,0 -0.5265,-0.235625 -0.5265,-0.5265 0,-0.2899 0.236275,-0.525525 0.5265,-0.525525 0.290875,0 0.5265,0.235625 0.5265,0.525525 0,0.290875 -0.235625,0.5265 -0.5265,0.5265 m 0.08612,-6.47399999 v 4.17754999 0.1625 0.0029 l -10e-4,10e-4 c -0.0016,0.18785 -0.1547,0.339625 -0.3432,0.339625 h -0.16185 -0.3562 c -0.026,0 -0.0468,0.0208 -0.0468,0.04647 v 3.63935 c 0.128375,0.0117 0.257725,0.0182 0.38935,0.0182 2.32505,0 4.2094,-1.885 4.2094,-4.21005 0,-2.148575 -1.61005,-3.92144999 -3.689725,-4.17754999"
     style="fill:#ffffff"
     id="path2" />
</svg>
