<svg
   width="48"
   height="48"
   viewBox="-0.9714696 -0.9714696 8.6259993 8.6262431"
   >
  <path
     d="m 2.5499241,2.5870224 c -0.29055,0 -0.5265,-0.235625 -0.5265,-0.52585 0,-0.290875 0.23595,-0.5265 0.5265,-0.5265 0.29055,0 0.52585,0.235625 0.52585,0.5265 0,0.290225 -0.2353,0.52585 -0.52585,0.52585 m 0.806975,-3.47099999 c -2.325375,0 -4.2094,1.88434999 -4.2094,4.20939999 0,2.0176 1.419925,3.7037 3.31435,4.114175 v -3.777475 l 2.6e-4,-2.6e-4 c 0.0042,-0.182325 0.1495,-0.329225 0.3302,-0.33605 v -2.6e-4 h 0.175175 0.356525 c 0.0247,0 0.04485,-0.0195 0.04615,-0.04387 l 2.6e-4,-4.16490099 m 2.887235,6.50497099 c -0.290225,0 -0.526175,-0.235625 -0.526175,-0.5265 0,-0.2899 0.23595,-0.525525 0.526175,-0.525525 0.290225,0 0.526175,0.235625 0.526175,0.525525 0,0.290875 -0.23595,0.5265 -0.526175,0.5265 m -1.233375,0 c -0.290225,0 -0.52585,-0.235625 -0.52585,-0.5265 0,-0.2899 0.235625,-0.525525 0.52585,-0.525525 0.29055,0 0.526175,0.235625 0.526175,0.525525 0,0.290875 -0.235625,0.5265 -0.526175,0.5265 m -1.234025,0 c -0.290225,0 -0.5265,-0.235625 -0.5265,-0.5265 0,-0.2899 0.236275,-0.525525 0.5265,-0.525525 0.290875,0 0.5265,0.235625 0.5265,0.525525 0,0.290875 -0.235625,0.5265 -0.5265,0.5265 m 0.08612,-6.47399999 v 4.17754999 0.1625 0.0029 l -10e-4,10e-4 c -0.0016,0.18785 -0.1547,0.339625 -0.3432,0.339625 h -0.16185 -0.3562 c -0.026,0 -0.0468,0.0208 -0.0468,0.04647 v 3.63935 c 0.128375,0.0117 0.257725,0.0182 0.38935,0.0182 2.32505,0 4.2094,-1.885 4.2094,-4.21005 0,-2.148575 -1.61005,-3.92144999 -3.689725,-4.17754999"
     style="fill:#ffffff"
     />
</svg>

