<?xml version="1.0" encoding="utf-8"?>
<!-- Generator: Adobe Illustrator 21.1.0, SVG Export Plug-In . SVG Version: 6.00 Build 0)  -->
<svg version="1.0" id="Layer_1" xmlns="http://www.w3.org/2000/svg" xmlns:xlink="http://www.w3.org/1999/xlink" x="0px" y="0px"
	 viewBox="0 0 48 48" style="enable-background:new 0 0 48 48;" xml:space="preserve">
<style type="text/css">
	.st0{fill:#FFFFFF;}
</style>
<path class="st0" d="M37.7,5H9.7C8.7,5,8,5.9,8,7v34c0,1.1,0.7,2,1.7,2h28.1c0.9,0,1.7-0.9,1.7-2V7C39.4,5.9,38.6,5,37.7,5z
	 M15.2,24c0,4.2,0,8.4,0,12.6c0,0.7,0.4,1.9-1,1.9c-1.3,0-2.8,0.4-3.5-1.3c-0.1-0.3-0.1-0.6-0.1-0.8c0-8.2,0-16.5,0-24.7
	c0-2,1.6-2.1,3.2-2.2c1.9,0,1.3,1.3,1.3,2.2C15.2,15.8,15.2,19.9,15.2,24z M34.4,35c-0.1,2.3-1.1,3.4-3.4,3.5c-4.2,0.1-8.4,0-12.6,0
	c-1.3,0-1.5-0.5-1.5-1.6c0.1-4.3,0-8.5,0-12.8c0-4.3,0-8.7,0-13c0-1.3,0.4-1.7,1.7-1.7c4,0.1,8.1,0,12.1,0c2.5,0,3.6,1.1,3.7,3.6
	c0,0.3,0,0.6,0,0.9c0,1.5,0.4,3.5-0.3,4.6c-0.7,1.1-2.8,0.3-4.2,0.4c-1.6,0.2-2.7,0.9-2.8,2.6c0,1-0.1,1.7-1.4,1.5
	c-0.7-0.1-1.4,0.1-1.3,1c0,0.7,0.7,0.8,1.3,0.8c1-0.1,1.4,0.3,1.4,1.3c0,2.2,1.4,2.8,3.4,2.9c3.9,0,3.9,0.1,3.9,4
	C34.4,33.8,34.5,34.4,34.4,35z M31.7,27.3c-0.6,0-1.3,0-1.9-0.1c-0.8-0.1-0.9-0.8-0.9-1.5c0-0.6,0.4-0.8,0.9-0.9
	c0.7-0.1,1.8,0.3,1.9-0.8c0-1.1-1.1-0.9-1.8-0.9c-0.7,0-1-0.3-1-1c0-0.8,0.3-1.2,1.1-1.2c0.8,0,1.7,0,2.5,0c0,0,0,0,0,0
	c0.6,0,1.1,0,1.7,0c1.4-0.1,1.9,0.5,1.9,1.8C36.1,28.2,36.6,27.2,31.7,27.3z"/>
</svg>
