<?xml version="1.0" encoding="UTF-8"?>
<svg version="1.1" viewBox="0 0 48 48" xmlns="http://www.w3.org/2000/svg">
    <path d="m34.473 12.881c-1.4955-0.05575-3.0068 0.3612-3.6924 1.335l-25.547-0.07333c-0.75568 0.47855 0.4389 1.6932 1.8764 1.6564l17.414-0.44645c-2.0218 0.58812-3.5004 2.4271-3.5004 4.6435 0.01093 3.5081-0.35079 7.7542 1.3588 10.6 1.736 2.8015 4.944 4.5272 8.4157 4.527v-14.914c0-0.63729 0.75085-1.3129 1.3221-1.6629l5.1374-3.2826h1.1043c-0.07098-1.4576-1.9659-2.3115-3.8886-2.3832zm1.6348 1.1064c0.01294-4.55e-4 0.02588-4.55e-4 0.03882 0 0.30493 0 0.55213 0.2472 0.55213 0.55213s-0.2472 0.55213-0.55213 0.55213-0.55213-0.2472-0.55213-0.55213c-7.19e-4 -0.29039 0.22363-0.53171 0.51331-0.55213zm-1.5378 1.3501c0.24494-0.0211 0.26996 0.06843-0.02157 0.24803l-4.2812 2.6377c-0.69096 0.42568-0.20914-0.54659 1.6887-1.7534 1.1862-0.75428 2.2058-1.0971 2.614-1.1323zm-11.006 2.7801 5.1892 3.5349v3.5328l-5.1892-3.5328c-1.1021-1.6788-0.51145-2.5895 0-3.5349z" fill="#fff" style="paint-order:stroke markers fill"/>
    <path d="m38.031 15.689-5.3595 3.2826c-0.88502 0.54218-1.835 1.9265-1.1452 2.5299l6.5048-4.7082h4.9692l-3.8649-1.1043z" fill="#fff" style="paint-order:stroke markers fill"/>
    <path d="m22.574 15.883-7.1755 0.18332 5.1676 3.5349c0.11656-1.5156 0.88631-2.8235 2.0079-3.7183z" fill="#fff"/>
</svg>
