<?xml version="1.0" encoding="UTF-8"?>
<svg width="48" height="48" version="1.1" viewBox="0 0 48 48" xmlns="http://www.w3.org/2000/svg">
 <g fill="#fff">
  <path d="m37.513 29.674c-20.559 21.592-47.454-7.0631-22.401-19.174-0.39769 0.59945-0.61973 1.2921-0.61973 1.2921-9.1212 5.8594-7.3196 15.091-2.074 19.228 5.6385 4.4462 12.446 4.038 12.446 4.038 6.9374-0.37763 12.649-5.3835 12.649-5.3835z"/>
  <path d="m34.4 24.804h5.289v-0.66684h-5.6539v-7.3326h-2.2494v5.8782c0 1.6666 0.85131 2.1212 2.6143 2.1212zm-15.867 0h-4.6205c-1.7326 0-2.614-0.45462-2.614-2.1212v-5.8782h2.2494v7.3024h4.3162c0.15212 0.21222 0.48636 0.57565 0.6685 0.69702zm6.8391-8.151c-4.3162 0-6.8088 1.7575-6.8088 4.333 0 2.4541 2.5836 3.9997 6.3531 3.9997 1.2766 0 2.614-0.18171 3.4956-0.48479v-0.84822c-0.72989 0.3936-1.8544 0.66651-2.9182 0.66651-2.9182 0-4.5594-1.7575-4.5594-3.4847 0-2.0605 1.7933-3.5149 4.5594-3.5149 0.94238 0 2.0669 0.2424 2.8571 0.63633v-0.9089c-0.97239-0.2729-2.219-0.39394-2.9789-0.39394z" stroke-width=".33815"/>
  <path d="m18.461 27.581c0.24318 0.03387 0.36494 0.16964 0.36494 0.37348 0 0.20384-0.12176 0.30509-0.33425 0.33929-0.06105 0-0.15212 0.03387-0.24352 0.03387h-0.63848v-1.3575h0.54742c0.18247 0 0.33425 0.03387 0.3953 0.06772 0.09106 0.06806 0.15178 0.13578 0.15178 0.27156 0 0.06806-0.03035 0.13578-0.09106 0.20384 0 0.03353-0.06071 0.06772-0.15212 0.06772zm-0.33425-0.06772c0.21283 0 0.33425-0.06806 0.33425-0.2377 0-0.10192-0.03035-0.13578-0.12142-0.16964-0.0307 0-0.12176-0.03387-0.21317-0.03387h-0.27354v0.44121zm-0.24352 0.16964v0.47507h0.33425c0.21317 0 0.33493-0.06807 0.33493-0.2377 0-0.16964-0.12176-0.23737-0.36494-0.23737zm2.1286 0.20351h-0.72989l-0.18247 0.40734h-0.24318l0.63848-1.3578h0.30423l0.66884 1.3578h-0.27354zm-0.091062-0.13579-0.27388-0.61085-0.27354 0.61085zm1.733 0.2377s0.0307 0.03387 0.0307 0.06772v0.03387-1.1198h0.24318v1.3575h-0.30424l-0.76024-1.0521s-0.03035-0.03387-0.03035-0.06772v1.154h-0.21283v-1.3578h0.30423zm1.6723 0.16964 0.426-0.03387v0.16965h-0.88167a0.95841 0.94209 0 0 1-0.54742-0.16964c-0.15212-0.13578-0.21283-0.30543-0.21283-0.50927 0-0.20351 0.06071-0.40701 0.21283-0.50893 0.12142-0.10192 0.30389-0.16964 0.54742-0.16964a0.95841 0.94209 0 0 1 0.54708 0.16964c0.15212 0.13578 0.21283 0.30542 0.21283 0.50893 0 0.13578-0.03035 0.2377-0.06071 0.33962-0.09106 0.06772-0.15212 0.16964-0.24318 0.20351zm-0.94238-0.54313c0 0.37348 0.15212 0.54313 0.45601 0.54313 0.15212 0 0.27388-0.03387 0.36494-0.13578 0.0914-0.10192 0.12176-0.2377 0.12176-0.40735 0-0.37315-0.15212-0.54313-0.45601-0.54313-0.33459 0-0.48671 0.16998-0.48671 0.54313zm2.159 0.71277c-0.21283 0-0.3953-0.03387-0.48637-0.13578-0.0914-0.10192-0.15212-0.23737-0.15212-0.44121v-0.81469h0.24318v0.78083c0 0.16964 0.0307 0.27156 0.06071 0.33929 0.06105 0.06806 0.15212 0.10192 0.30423 0.10192 0.15212 0 0.27354-0.03387 0.30389-0.10192 0.06105-0.06772 0.06105-0.16964 0.06105-0.33929v-0.7805h0.24318v0.81469c0 0.2035-0.06071 0.37315-0.18247 0.44087-0.03069 0.10192-0.18247 0.13578-0.3953 0.13578zm1.8854-0.16964v0.16964h-1.0034v-1.3575h0.97273v0.16964h-0.72989v0.37348h0.66918v0.13578h-0.66884v0.47507h0.76024zm1.794 0v0.16964h-1.0034v-1.3575h0.97307v0.16964h-0.72989v0.37348h0.66884v0.13578h-0.66884v0.47507h0.76025zm1.3073-1.0521h-0.48636v1.2217h-0.24318v-1.2217h-0.48671v-0.16964h1.2163zm1.764 0.7805h-0.72989l-0.18247 0.40735h-0.24352l0.63882-1.3578h0.30389l0.66918 1.3578h-0.27388zm-0.091403-0.13578-0.27388-0.61085-0.27354 0.61085zm1.2163-0.84822c0.0914 0 0.21283 0 0.36494 0.03353 0.0307 0 0.09106 0 0.12176 0.0342v0.16964c-0.18247-0.06772-0.33459-0.10192-0.45635-0.10192-0.21283 0-0.33425 0.06806-0.33425 0.16998 0 0.06772 0.03035 0.10159 0.12142 0.16964 0.03069 0 0.12176 0.06772 0.30424 0.13578 0.15178 0.06772 0.24318 0.10159 0.30389 0.16964 0.0914 0.06772 0.12176 0.16964 0.12176 0.27156 0 0.20351-0.12176 0.33929-0.36494 0.37315h-0.21283c-0.12176 0-0.27354 0-0.45601-0.03387-0.06105 0-0.0914-0.03387-0.12176-0.03387v-0.20418c0.18247 0.06807 0.3953 0.13578 0.57777 0.13578 0.15212 0 0.24318-0.03387 0.30389-0.10192 0.0307-0.03353 0.0307-0.06772 0.0307-0.10159a0.17395 0.17098 0 0 0-0.12176-0.16964c-0.06071-0.0342-0.15212-0.06806-0.30423-0.13578-0.15178-0.06806-0.24318-0.10192-0.30389-0.16964-0.0914-0.06806-0.15212-0.16964-0.15212-0.27156 0-0.13578 0.06071-0.2377 0.21283-0.27156a1.013 0.99574 0 0 1 0.36494-0.06772zm1.3077 0c0.09106 0 0.21283 0 0.36494 0.03353 0.03035 0 0.09106 0 0.12142 0.0342v0.16964c-0.18247-0.06772-0.33425-0.10192-0.45601-0.10192-0.21283 0-0.33425 0.06806-0.33425 0.16998 0 0.06772 0.03001 0.10159 0.12142 0.16964 0.03035 0 0.12142 0.06772 0.30389 0.13578 0.15212 0.06772 0.24352 0.10159 0.30423 0.16964 0.09106 0.06772 0.12142 0.16964 0.12142 0.27156 0 0.20351-0.12142 0.33929-0.36494 0.37315h-0.21249c-0.12176 0-0.27388 0-0.45635-0.03387-0.06071 0-0.09106-0.03387-0.12142-0.03387v-0.20418c0.18247 0.06807 0.3953 0.13578 0.57777 0.13578 0.15178 0 0.24318-0.03387 0.30389-0.10192 0.03069-0.03353 0.03069-0.06772 0.03069-0.10159a0.17395 0.17098 0 0 0-0.12176-0.16964c-0.06105-0.0342-0.15212-0.06806-0.30423-0.13578-0.15212-0.06806-0.24318-0.10192-0.30389-0.16964-0.0914-0.06806-0.15212-0.16964-0.15212-0.27156 0-0.13578 0.06071-0.2377 0.21283-0.27156a1.013 0.99574 0 0 1 0.36494-0.06772zm1.3987 1.4252c-0.21283 0-0.39564-0.03387-0.48671-0.13578-0.09106-0.10192-0.15178-0.23737-0.15178-0.44121v-0.81469h0.24318v0.78083c0 0.16964 0.03035 0.27156 0.06071 0.33929 0.06071 0.06806 0.15212 0.10192 0.30423 0.10192s0.27354-0.03387 0.30389-0.10192c0.06071-0.06772 0.06071-0.16964 0.06071-0.33929v-0.7805h0.24352v0.81469c0 0.2035-0.06105 0.37315-0.18247 0.44087-0.06105 0.10192-0.21283 0.13578-0.39564 0.13578zm1.7333-0.67858c0.09106 0 0.15178 0.03353 0.18247 0.06772 0.0307 0.0342 0.06071 0.10192 0.09106 0.16964l0.12176 0.37348h-0.27388l-0.09106-0.30543c-0.0307-0.10192-0.06105-0.16998-0.12176-0.2377-0.06071-0.03387-0.12142-0.06772-0.21283-0.06772h-0.27354v0.61085h-0.24353v-1.3578h0.60847c0.18213 0 0.30389 0.0342 0.3953 0.06806 0.09106 0.06772 0.15178 0.13578 0.15178 0.27156 0 0.10192-0.03035 0.16964-0.09106 0.23737-0.0914 0.13578-0.15212 0.16998-0.24318 0.16998zm-0.27388-0.10192c0.21283 0 0.33425-0.06806 0.33425-0.2377 0-0.06772-0.03001-0.13578-0.09106-0.16964-0.06105-0.03387-0.12142-0.03387-0.24318-0.03387h-0.33425v0.44121zm1.8244 0.33929h-0.7299l-0.18213 0.40734h-0.24318l0.63848-1.3578h0.30389l0.66918 1.3578h-0.27388zm-0.06071-0.13578-0.27354-0.61085-0.27388 0.61085zm1.7333 0.2377s0.0307 0.03387 0.0307 0.06772v0.03387-1.1198h0.24284v1.3575h-0.30389l-0.76058-1.0521s-0.03001-0.03387-0.03001-0.06772v1.154h-0.21284v-1.3578h0.30389zm1.703-0.84856c-0.0914-0.06772-0.21283-0.10192-0.39564-0.10192-0.18281 0-0.33425 0.06806-0.42566 0.16998a0.61188 0.60146 0 0 0-0.15178 0.40701c0 0.16964 0.06071 0.30543 0.15178 0.40735 0.0914 0.10192 0.24352 0.13578 0.39564 0.13578 0.12142 0 0.24318-0.03387 0.33425-0.06807 0.0307 0 0.06071-0.03353 0.0914-0.03353v0.16931c-0.15212 0.06806-0.30423 0.06806-0.48671 0.06806-0.24318 0-0.42566-0.06806-0.57777-0.16964-0.15212-0.13578-0.21283-0.30543-0.21283-0.50927 0-0.16964 0.06071-0.30509 0.15212-0.44121 0.09106-0.10159 0.21283-0.2035 0.33425-0.23737 0.0914-0.03387 0.21317-0.06806 0.33459-0.06806 0.15212 0 0.30424 0.0342 0.42566 0.06806v0.2035zm1.2163 1.0182v0.16964h-1.0034v-1.3575h0.97307v0.16964h-0.72989v0.37348h0.66884v0.13578h-0.66884v0.47507h0.76024z" stroke-width=".33815"/>
 </g>
</svg>
