<?xml version="1.0" encoding="UTF-8"?>
<svg version="1.1" viewBox="0 0 48 48" xmlns="http://www.w3.org/2000/svg">
    <path d="m24 18.504c-3.0376 0-5.5 2.4624-5.5 5.5 0.0017 2.2397 1.3613 4.2539 3.4375 5.0938v7.4453l-7.9414 7.9414c1.3822 0.65384 2.8288 1.1618 4.3164 1.5156l5.6875-5.6875 5.6875 5.6875c1.4888-0.35295 2.9368-0.86025 4.3203-1.5137l-7.9453-7.9434v-7.4453c2.0762-0.83987 3.4358-2.8541 3.4375-5.0938 0-3.0376-2.4624-5.5-5.5-5.5z" fill="#fff" style="paint-order:stroke markers fill"/>
    <path d="m23.482 2.0094a22 22 0 0 0-10.482 2.9434 22 22 0 0 0-11 19.051h4.125a17.875 17.875 0 0 1 8.9375-15.479 17.875 17.875 0 0 1 17.875 0 17.875 17.875 0 0 1 8.9375 15.479h4.125a22 22 0 0 0-11-19.051 22 22 0 0 0-11.518-2.9434z" fill="#fff" style="paint-order:stroke markers fill"/>
    <path d="m24 10.254a13.75 13.75 0 0 0-13.75 13.75h4.125a9.625 9.625 0 0 1 4.8125-8.3359 9.625 9.625 0 0 1 9.625 0 9.625 9.625 0 0 1 4.8125 8.3359h4.125a13.75 13.75 0 0 0-13.75-13.75z" fill="#fff" style="paint-order:stroke markers fill"/>
</svg>
