<?xml version="1.0" encoding="UTF-8" standalone="no"?>
<svg
   xmlns:dc="http://purl.org/dc/elements/1.1/"
   xmlns:cc="http://creativecommons.org/ns#"
   xmlns:rdf="http://www.w3.org/1999/02/22-rdf-syntax-ns#"
   xmlns:svg="http://www.w3.org/2000/svg"
   xmlns="http://www.w3.org/2000/svg"
   xmlns:sodipodi="http://sodipodi.sourceforge.net/DTD/sodipodi-0.dtd"
   xmlns:inkscape="http://www.inkscape.org/namespaces/inkscape"
   width="48"
   height="48"
   viewBox="0 0 48 48"
   version="1.1"
   id="svg4"
   sodipodi:docname="square.svg"
   inkscape:version="0.92.3 (2405546, 2018-03-11)">
  <metadata
     id="metadata10">
    <rdf:RDF>
      <cc:Work
         rdf:about="">
        <dc:format>image/svg+xml</dc:format>
        <dc:type
           rdf:resource="http://purl.org/dc/dcmitype/StillImage" />
        <dc:title />
      </cc:Work>
    </rdf:RDF>
  </metadata>
  <defs
     id="defs8" />
  <sodipodi:namedview
     pagecolor="#858585"
     bordercolor="#666666"
     borderopacity="1"
     objecttolerance="10"
     gridtolerance="10"
     guidetolerance="10"
     inkscape:pageopacity="0"
     inkscape:pageshadow="2"
     inkscape:window-width="1920"
     inkscape:window-height="1046"
     id="namedview6"
     showgrid="false"
     inkscape:zoom="6.9532167"
     inkscape:cx="10.247279"
     inkscape:cy="21.850234"
     inkscape:window-x="0"
     inkscape:window-y="0"
     inkscape:window-maximized="1"
     inkscape:current-layer="svg4" />
  <path
     d="M 12.388672 8.2929688 C 10.835191 8.3260049 9.3305581 8.5489007 8.3359375 8.9492188 L 7.9492188 9.1035156 L 8.0390625 10.847656 C 8.0880112 11.806777 8.2168466 13.011685 8.3242188 13.525391 C 8.7528241 15.575996 10.046515 17.37281 11.859375 18.429688 C 12.432827 18.764004 12.807337 18.901433 12.988281 18.845703 C 13.611289 18.65383 14.516722 18.019139 15.361328 17.181641 C 16.983066 15.573553 17.643276 13.575613 17.566406 10.513672 L 17.529297 9.0039062 L 16.738281 8.7695312 C 15.54526 8.4157356 13.942153 8.2599323 12.388672 8.2929688 z M 11.857422 9.8554688 L 12.791016 9.8554688 L 13.726562 9.8554688 L 13.726562 10.923828 L 13.726562 11.992188 L 14.859375 11.992188 L 15.994141 11.992188 L 15.994141 12.919922 L 15.994141 13.847656 L 14.892578 13.886719 L 13.792969 13.925781 L 13.753906 15.027344 L 13.714844 16.126953 L 12.791016 16.126953 L 11.869141 16.126953 L 11.830078 15.027344 L 11.791016 13.925781 L 10.683594 13.886719 L 9.578125 13.847656 L 9.6171875 12.953125 L 9.65625 12.058594 L 10.757812 12.019531 L 11.857422 11.980469 L 11.857422 10.917969 L 11.857422 9.8554688 z M 5 21.199219 L 5 41 C 5 42.108 5.892 43 7 43 L 41 43 C 42.108 43 43 42.108 43 41 L 43 21.199219 L 5 21.199219 z M 26.910156 22.953125 C 26.978733 22.95822 27.047348 22.992195 27.125 23.056641 C 27.387874 23.274811 27.428543 25.188644 27.175781 25.441406 C 26.764287 25.8529 26.566475 25.506124 26.515625 24.285156 C 26.476916 23.355675 26.506357 23.144557 26.691406 23.025391 C 26.773096 22.972784 26.841579 22.94803 26.910156 22.953125 z M 31.865234 24.828125 C 32.452105 24.896522 32.364979 25.346158 31.599609 26.183594 C 30.86967 26.982263 30.506672 27.110298 30.263672 26.65625 C 30.142386 26.429624 30.164409 26.323103 30.373047 26.089844 C 30.514546 25.931648 30.831486 25.573557 31.078125 25.294922 C 31.412379 24.917306 31.611947 24.798605 31.865234 24.828125 z M 22.041016 25.091797 C 22.262003 25.081276 22.578829 25.299849 23.099609 25.783203 C 23.924265 26.548594 23.979097 26.669341 23.65625 26.992188 C 23.540928 27.107513 23.394991 27.203125 23.332031 27.203125 C 23.269071 27.203125 22.84756 26.849056 22.394531 26.417969 C 21.657687 25.716816 21.586858 25.605303 21.722656 25.351562 C 21.810557 25.187318 21.908423 25.09811 22.041016 25.091797 z M 26.960938 26.566406 C 27.363388 26.553738 27.77978 26.607149 28.197266 26.728516 C 29.623125 27.143024 30.804688 28.722751 30.804688 30.214844 C 30.804688 30.761056 30.35653 31.992784 29.988281 32.460938 C 29.839176 32.650494 29.676663 32.800822 29.626953 32.794922 C 29.57724 32.788984 29.238028 32.550508 28.871094 32.263672 C 28.130105 31.684434 27.347246 31.373684 26.328125 31.253906 C 25.68713 31.17857 25.632655 31.140225 25.326172 30.5625 C 25.147912 30.226474 24.722046 29.671265 24.378906 29.328125 L 23.755859 28.705078 L 23.992188 28.320312 C 24.665206 27.227099 25.753582 26.60441 26.960938 26.566406 z M 21.078125 28.998047 C 21.511384 29.037073 21.948844 29.158855 22.435547 29.367188 C 23.308844 29.741 24.324006 30.872993 24.615234 31.796875 L 24.839844 32.509766 L 25.605469 32.441406 C 29.139258 32.120974 30.991448 36.360219 28.369141 38.767578 C 27.981494 39.12345 27.505534 39.401849 27.056641 39.535156 C 26.094884 39.82077 15.95276 39.837539 15.160156 39.554688 C 14.072908 39.166685 13.485718 38.500735 13.1875 37.316406 C 12.776406 35.683807 14.088216 33.969757 15.888672 33.783203 L 16.59375 33.708984 L 16.609375 32.919922 C 16.643757 31.095622 17.876477 29.602472 19.740234 29.125 C 20.215284 29.003298 20.644866 28.959021 21.078125 28.998047 z M 33.191406 29.632812 C 34.189768 29.666149 34.344899 29.703249 34.386719 29.921875 C 34.413112 30.059855 34.352866 30.224399 34.253906 30.287109 C 33.929249 30.492856 32.058382 30.428392 31.873047 30.205078 C 31.740381 30.045182 31.741005 29.962637 31.876953 29.798828 C 32.010884 29.637441 32.289763 29.602702 33.191406 29.632812 z M 30.841797 33.25 C 31.001272 33.254949 31.224306 33.413922 31.697266 33.826172 C 32.472176 34.501614 32.722604 35.010468 32.384766 35.224609 C 32.085575 35.414252 31.966829 35.357758 31.15625 34.628906 C 30.350799 33.904666 30.240618 33.580529 30.697266 33.292969 C 30.743168 33.264063 30.788639 33.24835 30.841797 33.25 z "
     id="rect863"
     style="fill:#f9f9f9" />
</svg>
