<svg xmlns="http://www.w3.org/2000/svg" viewBox="0 0 48 48"><defs><style>.cls-1{fill:#fff;fill-rule:evenodd;}</style></defs><g id="Layer_1" data-name="Layer 1"><path class="cls-1" d="M38.74,4H9.26A1.12,1.12,0,0,0,8.14,5.12V24.85a1.38,1.38,0,0,0,.42,1L26.63,43.6a1.39,1.39,0,0,0,1,.4h9.94a.84.84,0,0,0,.59-1.44L20.7,25.43h18a1.12,1.12,0,0,0,1.12-1.12V5.12A1.12,1.12,0,0,0,38.74,4Z"/><path class="cls-1" d="M9,44h6.21a.84.84,0,0,0,.59-1.44l-6.21-6.1a.84.84,0,0,0-1.43.6v6.1A.85.85,0,0,0,9,44Z"/></g></svg>