<svg xmlns="http://www.w3.org/2000/svg" width="48" height="48" viewBox="0 0 48 48">
 <path d="M 39.210533,9.8621028 C 35.38948,6.3276278 31.568426,5.1813122 31.568426,5.1813122 L 23.92632,31.260001 v 0 L 16.284213,5.1813122 c 0,0 -3.821053,1.0507896 -7.6421065,4.6807906 C 3.8657898,13.778682 0.99999981,19.701315 0.99999981,29.062896 1.9552631,36.51395 6.7315798,42.818688 6.7315798,42.818688 H 18.19474 c 0,0 -9.5526335,-4.871843 -11.4631602,-12.51395 -2.86579,-8.979475 0.9552633,-15.284213 4.7763162,-18.24553 0.955264,-1.050789 2.86579,-1.337368 3.821054,1.05079 1.910526,7.642107 8.59737,29.422111 8.59737,29.422111 v 0 c 0,0 6.686843,-21.780004 9.552633,-29.422111 0,-2.388158 1.910527,-2.101579 3.821053,-1.05079 2.86579,2.961317 6.686844,9.266055 4.776317,18.24553 -2.86579,7.642107 -11.46316,12.51395 -11.46316,12.51395 H 41.12106 c 0,0 5.73158,-6.304738 5.73158,-13.755792 0.955263,-9.361581 -2.86579,-15.284214 -7.642107,-19.2007932 z" style="fill:#ffffff" />
</svg>
