<?xml version="1.0" encoding="utf-8"?>
<!-- Generator: Adobe Illustrator 21.1.0, SVG Export Plug-In . SVG Version: 6.00 Build 0)  -->
<svg version="1.0" id="Layer_1" xmlns="http://www.w3.org/2000/svg" xmlns:xlink="http://www.w3.org/1999/xlink" x="0px" y="0px"
	 viewBox="0 0 48 48" style="enable-background:new 0 0 48 48;" xml:space="preserve">
<style type="text/css">
	.st0{fill:#FFFFFF;}
</style>
<g>
	<path class="st0" d="M24.9,33.2c1,0,1.9-0.2,2.7-0.5v-2.6L21,32.2C22.2,32.8,23.5,33.2,24.9,33.2z"/>
	<rect x="26.2" y="24" class="st0" width="1.5" height="1.6"/>
	<path class="st0" d="M26.2,28.4c0,0.2-0.2,0.4-0.4,0.4h-8.2c0.6,1.1,1.5,2.1,2.5,2.8l7.5-2.3v-2.9h-1.5V28.4z"/>
	<path class="st0" d="M25.4,26.4h-8.6c0.1,0.6,0.3,1.1,0.5,1.7h8.2V26.4z"/>
	<path class="st0" d="M20.5,18.8l4.9,4v-3.3h-3.1c-0.2,0-0.4-0.2-0.4-0.4v-1.9c-0.9,0.4-1.8,0.9-2.5,1.6h0.9
		C20.3,18.7,20.4,18.8,20.5,18.8z"/>
	<path class="st0" d="M20.1,19.5h-1.5c-0.9,1-1.6,2.3-1.8,3.7h7.9L20.1,19.5z"/>
	<path class="st0" d="M25.4,24h-8.7c0,0.3,0,0.6,0,0.9c0,0.3,0,0.5,0,0.7h8.7V24z"/>
	<path class="st0" d="M29.8,18.3c-0.4-0.3-0.9-0.6-1.4-0.9v5.8h1.4V18.3z"/>
	<path class="st0" d="M28.4,29.6C28.4,29.6,28.4,29.6,28.4,29.6v2.8c1-0.5,1.9-1.1,2.6-1.9v-4.1h-2.6V29.6z"/>
	<path class="st0" d="M28.4,24v1.6h3c0.2,0,0.4,0.2,0.4,0.4v3.5c0.9-1.3,1.4-2.9,1.4-4.6c0-0.3,0-0.6,0-0.9H28.4z"/>
	<path class="st0" d="M41,5H7C5.9,5,5,5.9,5,7v34c0,1.1,0.9,2,2,2h34c1.1,0,2-0.9,2-2V7C43,5.9,42.1,5,41,5z M36.6,24h-2.7
		c0,0.3,0,0.6,0,0.9c0,2.2-0.8,4.2-2,5.7l1.3,1.3c0.1,0.1,0.1,0.2,0.1,0.3v2.8c0,0.2-0.2,0.4-0.4,0.4c-0.2,0-0.4-0.2-0.4-0.4v-2.6
		l-1.1-1.1c-0.8,0.9-1.9,1.6-3,2v2.9c0,0.2-0.2,0.4-0.4,0.4c-0.2,0-0.4-0.2-0.4-0.4v-2.7c-0.9,0.3-1.8,0.4-2.7,0.4
		c-1.6,0-3.1-0.4-4.4-1.2v4.6c0,0.2-0.2,0.4-0.4,0.4c-0.2,0-0.4-0.2-0.4-0.4v-5.1c-1.2-0.8-2.1-1.9-2.8-3.2l-2.2,2.2V35
		c0,0.2-0.2,0.4-0.4,0.4c-0.2,0-0.4-0.2-0.4-0.4v-4c0-0.1,0-0.2,0.1-0.3l2.5-2.5c-0.3-0.6-0.4-1.3-0.5-1.9h-3.5
		c-0.2,0-0.4-0.2-0.4-0.4c0-0.2,0.2-0.4,0.4-0.4h3.4c0-0.2,0-0.5,0-0.7c0-0.3,0-0.6,0-0.9h-4.5c-0.2,0-0.4-0.2-0.4-0.4
		c0-0.2,0.2-0.4,0.4-0.4H16c0.3-1.5,1-2.9,1.9-4.1l-2.3-2.3c-0.1-0.1-0.1-0.4,0-0.5c0.1-0.1,0.4-0.1,0.5,0l2.3,2.3
		c0.9-0.9,1.9-1.6,3.1-2.1l-1.7-1.7c-0.1-0.1-0.1-0.2-0.1-0.3v-3.9c0-0.2,0.2-0.4,0.4-0.4c0.2,0,0.4,0.2,0.4,0.4v3.7l1.8,1.8
		c0.8-0.2,1.7-0.4,2.5-0.4c1,0,1.9,0.1,2.7,0.4v-2.9c0-0.2,0.2-0.4,0.4-0.4c0.2,0,0.4,0.2,0.4,0.4v3.2c0.6,0.3,1.2,0.6,1.7,1
		l2.2-2.9c0.1-0.1,0.2-0.1,0.3-0.1h3c0.2,0,0.4,0.2,0.4,0.4s-0.2,0.4-0.4,0.4h-2.8L30.7,18c1.5,1.3,2.6,3.1,3,5.2h2.8
		c0.2,0,0.4,0.2,0.4,0.4C36.9,23.8,36.8,24,36.6,24z"/>
	<path class="st0" d="M30.6,18.9v4.3H33C32.7,21.5,31.8,20,30.6,18.9z"/>
	<path class="st0" d="M22.7,16.9v1.8h3.1c0.2,0,0.4,0.2,0.4,0.4v4.1h1.5v-6.1c-0.9-0.3-1.8-0.5-2.7-0.5
		C24.1,16.6,23.4,16.7,22.7,16.9z"/>
</g>
</svg>
