<svg xmlns="http://www.w3.org/2000/svg" width="48" height="48" viewBox="0 0 48 48">
  <path style="fill:#ffffff" d="m 39.922869,9.2 c -4,-3.7 -8,-4.9 -8,-4.9 l -8,27.3 v 0 l -8,-27.3 c 0,0 -4,1.1 -7.9999996,4.9 -5,4.1 -8,10.3 -8,20.1 1,7.8 6,14.4 6,14.4 H 17.922869 c 0,0 -9.9999996,-5.1 -11.9999996,-13.1 -3,-9.4 1,-16 4.9999996,-19.1 1,-1.1 3,-1.4 4,1.1 2,8 9,30.8 9,30.8 v 0 c 0,0 7,-22.8 10,-30.8 0,-2.5 2,-2.2 4,-1.1 3,3.1 7,9.7 5,19.1 -3,8 -12,13.1 -12,13.1 h 11 c 0,0 6,-6.6 6,-14.4 1,-9.8 -3,-16 -8,-20.1 z" />
</svg>
