<?xml version="1.0" encoding="utf-8"?>
<!-- Generator: Adobe Illustrator 21.1.0, SVG Export Plug-In . SVG Version: 6.00 Build 0)  -->
<svg version="1.0" id="Layer_1" xmlns="http://www.w3.org/2000/svg" xmlns:xlink="http://www.w3.org/1999/xlink" x="0px" y="0px"
	 viewBox="0 0 48 48" style="enable-background:new 0 0 48 48;" xml:space="preserve">
<style type="text/css">
	.st0{fill:#FFFFFF;}
</style>
<path class="st0" d="M41,5H7C5.9,5,5,5.9,5,7v34c0,1.1,0.9,2,2,2h34c1.1,0,2-0.9,2-2V7C43,5.9,42.1,5,41,5z M24,13.6
	c2.9,0,5.2,2.3,5.2,5.2c0,3-2.2,5.2-5.2,5.2c-2.9,0-5.2-2.4-5.2-5.2C18.8,15.9,21.2,13.6,24,13.6z M10.6,42.4c-2.2,0-4-1.8-4-4
	c0-2.1,1.9-3.9,4-3.9c2.2,0,4,1.8,4,4C14.6,40.7,12.9,42.4,10.6,42.4z M34.5,33.1c-0.1,1.1-0.4,1.4-1.5,1.4c-3-0.1-6,0-9,0
	c0,0,0,0,0,0c-3.1,0-6.2,0-9.2,0c-0.8,0-1.1-0.2-1.2-1.1c-0.2-2.4,0.7-3.9,2.8-4.9c5.1-2.4,10.2-2.4,15.3,0
	C33.6,29.3,34.6,30.7,34.5,33.1z M36.6,19.9c-2.6,0-4.7-2.9-4.6-6.5C32,9.9,34.2,7,36.7,7c2.6,0,4.6,2.9,4.6,6.5
	C41.3,17.2,39.3,19.9,36.6,19.9z"/>
</svg>
