<?xml version="1.0" encoding="UTF-8" standalone="no"?>
<svg
   width="48"
   height="48"
   viewBox="0 0 12.7 12.7"
   version="1.1"
   id="svg5"
   xmlns="http://www.w3.org/2000/svg"
   xmlns:svg="http://www.w3.org/2000/svg">
  <defs
     id="defs2">
    <style
       id="style909">.cls-1{fill:#fff;}</style>
    <style
       id="style952">.cls-1{fill:#fff;}</style>
  </defs>
  <path
     id="circle969"
     style="fill:#999999;stroke-width:0.264583"
     d="M 6.35,0.52916665 A 5.8208333,5.8208333 0 0 0 0.52916675,6.35 5.8208333,5.8208333 0 0 0 6.35,12.170833 5.8208333,5.8208333 0 0 0 12.170833,6.35 5.8208333,5.8208333 0 0 0 6.35,0.52916665 Z M 4.6834351,2.3859009 h 3.2525147 c 0.1939589,0.00203 0.2378657,0.020962 0.3296955,0.1286743 L 11.25306,6.1970377 c 0.083,0.1079121 0.05909,0.1597847 0.0036,0.2330606 L 8.3199055,10.206612 c -0.06486,0.08161 -0.1163709,0.10507 -0.2304767,0.10697 H 4.8617187 c -0.2226611,0.0044 -0.2329974,-0.05017 -0.1353923,-0.201538 L 4.7991904,10.022124 7.7953899,6.325712 6.356718,4.6126384 4.9283814,6.3748046 5.8833618,7.5122033 c 0.047483,0.05778 0.041523,0.124265 0.00568,0.172082 L 4.2147256,9.7611614 c -0.042009,0.04799 -0.074521,0.02202 -0.103353,-0.0098 L 1.4391887,6.4244139 C 1.3790826,6.3495309 1.3758557,6.3214001 1.4402187,6.2419962 L 4.5061849,2.4484294 C 4.54309,2.4028983 4.621099,2.3858993 4.6834351,2.3859009 Z" />
</svg>
