<?xml version="1.0" encoding="UTF-8" standalone="no"?>
<!-- Created with Inkscape (http://www.inkscape.org/) -->

<svg
   xmlns:dc="http://purl.org/dc/elements/1.1/"
   xmlns:cc="http://creativecommons.org/ns#"
   xmlns:rdf="http://www.w3.org/1999/02/22-rdf-syntax-ns#"
   xmlns:svg="http://www.w3.org/2000/svg"
   xmlns="http://www.w3.org/2000/svg"
   xmlns:sodipodi="http://sodipodi.sourceforge.net/DTD/sodipodi-0.dtd"
   xmlns:inkscape="http://www.inkscape.org/namespaces/inkscape"
   width="48px"
   height="48px"
   viewBox="0 0 48 48"
   version="1.1"
   id="SVGRoot"
   inkscape:version="0.92.3 (2405546, 2018-03-11)"
   sodipodi:docname="mimusic.svg">
  <sodipodi:namedview
     id="base"
     pagecolor="#ffffff"
     bordercolor="#666666"
     borderopacity="1.0"
     inkscape:pageopacity="0.0"
     inkscape:pageshadow="2"
     inkscape:zoom="7.5424723"
     inkscape:cx="17.655454"
     inkscape:cy="18.829951"
     inkscape:document-units="px"
     inkscape:current-layer="layer3"
     showgrid="false"
     inkscape:window-width="1024"
     inkscape:window-height="581"
     inkscape:window-x="0"
     inkscape:window-y="19"
     inkscape:window-maximized="1"
     inkscape:grid-bbox="true"
     inkscape:pagecheckerboard="true" />
  <defs
     id="defs140" />
  <metadata
     id="metadata143">
    <rdf:RDF>
      <cc:Work
         rdf:about="">
        <dc:format>image/svg+xml</dc:format>
        <dc:type
           rdf:resource="http://purl.org/dc/dcmitype/StillImage" />
        <dc:title></dc:title>
      </cc:Work>
    </rdf:RDF>
  </metadata>
  <g
     inkscape:groupmode="layer"
     id="layer3"
     inkscape:label="Capa 2"
     style="opacity:1">
    <path
       style="opacity:1;fill:#ffffff;fill-opacity:1;stroke:none;stroke-width:1.3307277;stroke-opacity:1"
       d="M 24.467468,3.7636719 V 21.276258 C 22.615204,20.22817 20.519173,19.675495 18.385625,19.67263 11.598906,19.67263 6.0971835,25.118497 6.0971835,31.836315 6.0971835,38.554133 11.598906,44 18.385625,44 25.138654,43.9974 30.624135,38.601211 30.668869,31.916887 l 0.06758,0.106564 V 15.007289 l 4.886265,2.819997 c 4.57446,3.466133 2.742947,8.660864 2.505512,11.170839 1.644463,-1.917822 2.924355,-5.061873 3.399593,-8.452202 C 41.426317,14.384654 38.269935,12.06379 35.352407,9.4426628 31.605066,7.7700499 28.081661,5.6929615 24.467468,3.7636719 Z M 18.390821,26.084554 a 5.7221307,5.7221307 0 0 1 5.723171,5.720574 5.7221307,5.7221307 0 0 1 -5.723171,5.723166 5.7221307,5.7221307 0 0 1 -5.723166,-5.723166 5.7221307,5.7221307 0 0 1 5.723166,-5.720574 z"
       id="path189"
       inkscape:connector-curvature="0" />
  </g>
</svg>
