<?xml version="1.0" encoding="utf-8"?>
<!-- Generator: Adobe Illustrator 21.1.0, SVG Export Plug-In . SVG Version: 6.00 Build 0)  -->
<svg version="1.0" id="Layer_1" xmlns="http://www.w3.org/2000/svg" xmlns:xlink="http://www.w3.org/1999/xlink" x="0px" y="0px"
	 viewBox="0 0 48 48" style="enable-background:new 0 0 48 48;" xml:space="preserve">
<style type="text/css">
	.st0{fill:#FFFFFF;}
</style>
<g>
	<g>
		<path class="st0" d="M41,5H7C5.9,5,5,5.9,5,7v34c0,1.1,0.9,2,2,2h34c1.1,0,2-0.9,2-2V7C43,5.9,42.1,5,41,5z M11.3,19.1
			c0-1.2,0-2.5,0-3.7c0-1.2,0-2.4,0-3.7c0-0.4,0.1-0.5,0.5-0.5c2.4,0,4.9,0,7.3,0c0.4,0,0.5,0.1,0.5,0.5c0,2.4,0,4.9,0,7.3
			c0,0.4-0.1,0.5-0.5,0.5c-2.4,0-4.9,0-7.3,0C11.3,19.5,11.3,19.5,11.3,19.1z M28.3,36.8c0-1.2,0-2.5,0-3.7c0-0.6-0.1-0.7-0.7-0.7
			c-2.5,0-5,0-7.5,0c-0.6,0-0.6,0-0.6,0.6c0,1.3,0,2.5,0,3.8c-1.3,0-2.7,0-4,0c0-4,0-8,0-11.9c0-0.1,0-0.2,0-0.4
			c0-0.3,0.1-0.4,0.4-0.4c1,0,2,0,3,0c0.8,0,0.8,0,0.8-0.8c0-1,0-2,0-3c0-0.4,0.1-0.5,0.5-0.5c2.5,0,4.9,0,7.4,0
			c0.4,0,0.5,0.1,0.5,0.5c0,1.1,0,2.2,0,3.2c0,0.5,0.1,0.6,0.6,0.6c1,0,2.1,0,3.1,0c0.6,0,0.6,0,0.6,0.6c0,4,0,8.1,0,12.1
			C31,36.8,29.7,36.8,28.3,36.8z M36.7,19.5c-2.6,0-5.3,0-7.9,0c-0.5,0-0.5,0-0.5-0.5c0-2.4,0-4.8,0-7.3c0-0.5,0-0.6,0.6-0.6
			c2.6,0,5.2,0,7.9,0C36.7,14,36.7,16.8,36.7,19.5z"/>
	</g>
</g>
</svg>
