<?xml version="1.0" encoding="UTF-8"?>
<svg data-name="Layer 1" version="1.1" viewBox="0 0 48 48" xmlns="http://www.w3.org/2000/svg">
    <defs>
        <style>.cls-1{fill:#fff;}</style>
    </defs>
    <path d="m18.391 4.9998v4c-2.0835 0.21227-4.0553 1.0451-5.6602 2.3906l-1.3398-1.4297-1.4297 1.4297 1.4297 1.3398c-1.3455 1.6049-2.1784 3.5767-2.3906 5.6602h-4v2h4c0.21227 2.0835 1.0451 4.0553 2.3906 5.6602l-1.3809 1.3906 1.3809 1.3789 1.3398-1.4297c1.6049 1.3455 3.5767 2.1784 5.6602 2.3906v4h2v-4c2.0835-0.21227 4.0553-1.0451 5.6602-2.3906l1.3496 1.4297 1.3809-1.3789-1.3906-1.3906c1.3561-1.6013 2.1993-3.5734 2.4199-5.6602h4l-0.0293-2h-4c-0.21227-2.0835-1.0451-4.0553-2.3906-5.6602l1.4297-1.3398-1.3789-1.3906-1.3906 1.3906c-1.6049-1.3455-3.5767-2.1784-5.6602-2.3906v-4zm-1.3398 6.6406a2 2 0 0 1 2 2 2 2 0 1 1-2-2zm-3.5176 3.3398a1.47 1.47 0 0 1 0.01758 0 1.47 1.47 0 0 1 1.4707 1.4707 1.47 1.47 0 1 1-1.4883-1.4707z" fill="#fff"/>
    <path d="m36.325 29.645c-3.68 0-6.6816 2.9967-6.6816 6.6777 0 3.68 3.0016 6.6777 6.6816 6.6777a6.687 6.687 0 0 0 6.6758-6.6777 6.687 6.687 0 0 0-6.6758-6.6777zm-4.1289 2.3711h1.9902c0.097 0 0.17383 0.07783 0.17383 0.17383v1.9902a0.175 0.175 0 0 1-0.17383 0.17578h-1.9902a0.177 0.177 0 0 1-0.17773-0.17578v-1.9902c0-0.096 0.08173-0.17383 0.17773-0.17383zm3.1328 0h1.9941c0.096 0 0.17383 0.07783 0.17383 0.17383v1.9902a0.175 0.175 0 0 1-0.17383 0.17578h-1.9941a0.175 0.175 0 0 1-0.17187-0.17578v-1.9902c0-0.096 0.07588-0.17383 0.17187-0.17383zm3.1387 0h1.9902c0.096 0 0.17188 0.07783 0.17188 0.17383v1.9902a0.174 0.174 0 0 1-0.17188 0.17578h-1.9902a0.175 0.175 0 0 1-0.17383-0.17578v-1.9902c0-0.096 0.07783-0.17383 0.17383-0.17383zm-6.2793 3.1367h1.9941c0.096 0 0.17188 0.07783 0.17188 0.17383v1.9902a0.174 0.174 0 0 1-0.17188 0.17578h-1.9941a0.175 0.175 0 0 1-0.17188-0.17578v-1.9902c0-0.096 0.07588-0.17383 0.17188-0.17383zm3.1387 0h1.9902c0.096 0 0.17188 0.07783 0.17188 0.17383v1.9902a0.174 0.174 0 0 1-0.17188 0.17578h-1.9902a0.175 0.175 0 0 1-0.17383-0.17578v-1.9902c0-0.096 0.07783-0.17383 0.17383-0.17383zm3.1367 0h1.9902c0.096 0 0.17188 0.07783 0.17188 0.17383v1.9902a0.174 0.174 0 0 1-0.17188 0.17578h-1.9902a0.177 0.177 0 0 1-0.17773-0.17578v-1.9902c0-0.096 0.08173-0.17383 0.17773-0.17383zm-6.2754 3.1367h1.9941a0.17 0.17 0 0 1 0.17188 0.17188v1.9922a0.172 0.172 0 0 1-0.17188 0.17383h-1.9941a0.174 0.174 0 0 1-0.17188-0.17383v-1.9922c0-0.097 0.07588-0.17188 0.17188-0.17188zm3.1387 0h1.9902a0.17 0.17 0 0 1 0.17188 0.17188v1.9922a0.172 0.172 0 0 1-0.17188 0.17383h-1.9902a0.174 0.174 0 0 1-0.17383-0.17383v-1.9922c0-0.097 0.07783-0.17188 0.17383-0.17188zm3.1367 0h1.9902a0.17 0.17 0 0 1 0.17188 0.17188v1.9922a0.172 0.172 0 0 1-0.17188 0.17383h-1.9902a0.175 0.175 0 0 1-0.17773-0.17383v-1.9922c0-0.097 0.08173-0.17188 0.17773-0.17188z" color="#000000" color-rendering="auto" dominant-baseline="auto" fill="#fff" image-rendering="auto" shape-rendering="auto" solid-color="#000000" style="font-feature-settings:normal;font-variant-alternates:normal;font-variant-caps:normal;font-variant-ligatures:normal;font-variant-numeric:normal;font-variant-position:normal;isolation:auto;mix-blend-mode:normal;paint-order:stroke markers fill;shape-padding:0;text-decoration-color:#000000;text-decoration-line:none;text-decoration-style:solid;text-indent:0;text-orientation:mixed;text-transform:none;white-space:normal"/>
</svg>
