<svg xmlns="http://www.w3.org/2000/svg" viewBox="0 0 48 48"><defs><style>.cls-1{fill:#2b2b2b;}.cls-2{fill:#fff;}</style></defs><title>Minesweeper</title><g id="Layer_2" data-name="Layer 2"><rect class="cls-1" x="-394.86" y="-166.47" width="511.97" height="251.55"/></g><g id="Layer_1" data-name="Layer 1"><path class="cls-2" d="M41,5H7A2,2,0,0,0,5,7V41a2,2,0,0,0,2,2H41a2,2,0,0,0,2-2V7A2,2,0,0,0,41,5ZM38.42,25h-4A10.46,10.46,0,0,1,32,30.66l1.39,1.39-1.38,1.38L30.66,32A10.46,10.46,0,0,1,25,34.39v4H23v-4A10.46,10.46,0,0,1,17.34,32L16,33.43l-1.38-1.38L16,30.66A10.46,10.46,0,0,1,13.61,25h-4V23h4A10.46,10.46,0,0,1,16,17.34L14.57,16,16,14.57,17.34,16A10.46,10.46,0,0,1,23,13.61v-4h2v4A10.46,10.46,0,0,1,30.66,16l1.39-1.39L33.43,16,32,17.34A10.46,10.46,0,0,1,34.39,23h4ZM23.66,18.25a2,2,0,1,0-2,2A2,2,0,0,0,23.66,18.25Zm-4,2.81a1.47,1.47,0,1,0-1.47,1.47A1.47,1.47,0,0,0,19.63,21.06Z"/></g></svg>