<?xml version="1.0" encoding="utf-8"?>
<!-- Generator: Adobe Illustrator 21.1.0, SVG Export Plug-In . SVG Version: 6.00 Build 0)  -->
<svg version="1.0" id="Layer_1" xmlns="http://www.w3.org/2000/svg" xmlns:xlink="http://www.w3.org/1999/xlink" x="0px" y="0px"
	 viewBox="0 0 48 48" style="enable-background:new 0 0 48 48;" xml:space="preserve">
<style type="text/css">
	.st0{fill:#FFFFFF;}
</style>
<g>
	<path class="st0" d="M16.6,24.2c0,0.9,0.1,1.9-0.1,2.8c-0.3,1.9,0.4,3.3,2.1,4.1c0.1,0,0.1,0.1,0.2,0.1c0.1,0.1,0.3,0.1,0.4,0
		c0.7-0.5,1.4-1,2-1.5c0.2-0.2,0.3-0.4,0.2-0.6c0-1.6,0-3.2,0-4.9C19.9,25.4,18.2,25.4,16.6,24.2z"/>
	<path class="st0" d="M41,5H7C5.9,5,5,5.9,5,7v34c0,1.1,0.9,2,2,2h34c1.1,0,2-0.9,2-2V7C43,5.9,42.1,5,41,5z M40,33
		c-2,1.2-4,2.3-6,3.4c-2.6,1.5-5.2,2.9-7.8,4.4c-1.5,0.8-2.9,0.8-4.4,0c-4.3-2.4-8.6-4.8-13-7.3c-0.2-0.1-0.5-0.2-0.7-0.4
		c-2.1-1.2-2.1-3.4,0-4.6c2.2-1.3,4.5-2.5,6.8-3.8c0.4-0.2,0.9-0.5,1.2-0.8c-1.5-0.8-3-1.6-4.5-2.5c-0.9-0.5-1.3-1.2-1.3-2.2
		c0-2.1,0-4.3,0-6.4c0-1.2,0.4-2,1.5-2.6c2-1,3.9-2.2,5.9-3.3c0.9-0.5,1.7-0.5,2.6,0c2,1.1,4,2.2,6,3.3c0.9,0.5,1.4,1.3,1.4,2.3
		c0,2.2,0,4.5,0,6.7c0,0.8-0.2,1.4-0.8,1.8c-0.3,0.3-0.6,0.4-1,0.6c0.4-0.1,0.7-0.3,1-0.6c0.1,0.4,0.5,0.4,0.8,0.5
		c4,2.2,8,4.5,11.9,6.7c0.2,0.1,0.4,0.2,0.5,0.3C41.8,29.9,41.8,32,40,33z"/>
</g>
</svg>
