<?xml version="1.0" encoding="utf-8"?>
<!-- Generator: Adobe Illustrator 21.1.0, SVG Export Plug-In . SVG Version: 6.00 Build 0)  -->
<svg version="1.0" id="Layer_1" xmlns="http://www.w3.org/2000/svg" xmlns:xlink="http://www.w3.org/1999/xlink" x="0px" y="0px"
	 viewBox="0 0 48 48" style="enable-background:new 0 0 48 48;" xml:space="preserve">
<style type="text/css">
	.st0{fill:#FFFFFF;}
</style>
<g>
	<path class="st0" d="M27.2,19.8c-0.7,2.3-1.3,4.7-2.1,7.4c-0.8-2.7-1.4-5.1-2.1-7.5c-0.6,0-1.1,0-1.6,0c0,3.1,0,6.1,0,9
		c0.5,0.1,0.8,0.2,1.3-0.2c0-1.8,0-3.7,0-5.5c0.1,0,0.1,0,0.2,0c0.6,1.9,1.2,3.9,1.9,5.8c0.2,0.1,0.4,0.1,0.5,0.2
		c1.2-1.8,1.2-4.1,2.4-6c0,1.9,0,3.8,0,5.7c0.5,0.2,0.8,0.3,1.2,0c0-2.9,0-5.9,0-9C28.3,19.6,27.8,19.5,27.2,19.8z"/>
	<path class="st0" d="M17.8,19.8c-0.7,2.3-1.3,4.7-2.1,7.4c-0.8-2.7-1.5-5.1-2.1-7.5c-0.7,0-1.2,0-1.6,0c0,3.1,0,6.1,0,9.1
		c0.4,0.1,0.8,0.2,1.2-0.1c0-1.9,0-3.9,0-5.8c0.1,0,0.1,0,0.2,0c0.7,2,1.3,4,2,6c0.1,0,0.3,0.1,0.4,0.1c1.5-1.9,1.4-4.5,2.6-6.5
		c0,1,0,2.1,0,3.1c0,1,0,2.1,0,3.1c0.4,0.3,0.8,0.3,1.2,0.1c0-3,0-6,0-8.9C18.9,19.6,18.4,19.5,17.8,19.8z"/>
	<path class="st0" d="M33.3,20.5c1.2-0.2,1.8,0.6,2,1.7c0.5,0.1,0.8,0.2,1.2-0.1c-0.2-1.8-1.1-2.7-2.9-2.7c-1.7,0-3,1.1-3.1,2.7
		c-0.1,1.2,0,2.4,0,3.5c0,1.6,0.8,2.7,2.1,3.1c1.5,0.5,2.9,0,3.9-1.3c0-1.1,0-2.2,0-3.4c-1,0-1.8-0.1-2.7,0.1c0,0.3-0.1,0.6,0.2,0.8
		c0.4,0,0.8,0.1,1.2,0.1c0.2,0.8,0.1,1.4,0,2.2c-0.8,0.7-1.6,0.8-2.4,0.4c-0.7-0.4-1-1.1-1-1.8c0-1,0-2,0-3
		C31.8,21.8,32,20.8,33.3,20.5z"/>
	<path class="st0" d="M24,2C11.8,2,2,11.8,2,24s9.8,22,22,22s22-9.8,22-22S36.2,2,24,2z M30.3,39.6c-4.1,0-8.5,0-12.8,0
		c-3-3-6.1-6.1-9.2-9.2c0-4.2,0-8.5,0-12.7c3.1-3.1,6.2-6.1,9.3-9.3c4.1,0,8.4,0,12.6,0c3.1,3.1,6.1,6.1,9.3,9.3c0,4.1,0,8.4,0,12.6
		C36.5,33.4,33.5,36.4,30.3,39.6z"/>
</g>
</svg>
