<?xml version="1.0" encoding="utf-8"?>
<!-- Generator: Adobe Illustrator 21.1.0, SVG Export Plug-In . SVG Version: 6.00 Build 0)  -->
<svg version="1.0" id="Layer_1" xmlns="http://www.w3.org/2000/svg" xmlns:xlink="http://www.w3.org/1999/xlink" x="0px" y="0px"
	 viewBox="0 0 48 48" style="enable-background:new 0 0 48 48;" xml:space="preserve">
<style type="text/css">
	.st0{fill:#FFFFFF;}
</style>
<path class="st0" d="M24.6,46C12.8,46.2,2.4,37.3,2,24.6C1.6,12.8,10.8,2.4,23.5,2C35.3,1.7,45.6,10.8,46,23.4
	C46.3,35.2,37.2,45.5,24.6,46z M28,16.6c0.6,1.5,1.2,2.7,1.6,4c1.1,3.8-2,7.5-6,7.1c-2.4-0.3-3.6-1.9-3.1-4.2c0.1-0.3,0-0.5,0.1-1
	c-2,2.9-1.4,5.9,1.3,7.6c2.6,1.6,5.2,1.6,7.9,0.2c1.7-0.9,3.4-1.9,5-2.9c2-1.2,4-2.4,6.3-3.7C36.7,21.3,32.4,19,28,16.6z M22,25.8
	c2.1,1.8,5.1,1.1,6.5-1.4c1.5-2.8,0.3-7-2.6-8.9c-3.2-2.1-6.4-4.1-9.6-6.2c-0.5-0.3-0.9-0.5-1.7-0.9c0,5.1,0,9.8,0,14.6
	c0.9-1,1.7-2.1,2.7-2.9c2-1.8,5.6-2.1,7.8-0.8c1.4,0.9,2.3,2.7,2,4.3c-0.3,1.3-1.6,2.2-3.5,2.2C22.9,25.8,22.4,25.8,22,25.8z
	 M26.1,22.9c-0.2-2.3-1.6-3.6-3.7-3.8c-4-0.3-7.8,3.3-7.9,7.4c0,3.9-0.1,7.8-0.1,11.7c0,0.4,0.1,0.7,0.1,1.3c4.3-2.6,8.4-5,12.5-7.5
	c-0.9-0.3-1.6-0.3-2.4-0.3c-4.2-0.3-6.6-3.5-5.9-7.5c0.3-1.7,1.2-2.9,2.9-3.4c1.7-0.5,2.9,0.2,3.9,1.5
	C25.6,22.6,25.8,22.7,26.1,22.9z"/>
</svg>
