<?xml version="1.0" encoding="UTF-8" standalone="no"?>
<!-- Created with Inkscape (http://www.inkscape.org/) -->

<svg
   xmlns:dc="http://purl.org/dc/elements/1.1/"
   xmlns:cc="http://creativecommons.org/ns#"
   xmlns:rdf="http://www.w3.org/1999/02/22-rdf-syntax-ns#"
   xmlns:svg="http://www.w3.org/2000/svg"
   xmlns="http://www.w3.org/2000/svg"
   xmlns:sodipodi="http://sodipodi.sourceforge.net/DTD/sodipodi-0.dtd"
   xmlns:inkscape="http://www.inkscape.org/namespaces/inkscape"
   width="48px"
   height="48px"
   viewBox="0 0 48 48"
   version="1.1"
   id="SVGRoot"
   inkscape:version="0.92.3 (2405546, 2018-03-11)"
   sodipodi:docname="miuiweather.svg">
  <sodipodi:namedview
     id="base"
     pagecolor="#ffffff"
     bordercolor="#666666"
     borderopacity="1.0"
     inkscape:pageopacity="0.0"
     inkscape:pageshadow="2"
     inkscape:zoom="3.7712362"
     inkscape:cx="24"
     inkscape:cy="24"
     inkscape:document-units="px"
     inkscape:current-layer="layer1"
     showgrid="false"
     inkscape:window-width="1024"
     inkscape:window-height="581"
     inkscape:window-x="0"
     inkscape:window-y="19"
     inkscape:window-maximized="1"
     inkscape:grid-bbox="true"
     inkscape:pagecheckerboard="true" />
  <defs
     id="defs469" />
  <metadata
     id="metadata472">
    <rdf:RDF>
      <cc:Work
         rdf:about="">
        <dc:format>image/svg+xml</dc:format>
        <dc:type
           rdf:resource="http://purl.org/dc/dcmitype/StillImage" />
        <dc:title></dc:title>
      </cc:Work>
    </rdf:RDF>
  </metadata>
  <g
     id="layer1"
     inkscape:groupmode="layer"
     inkscape:label="Capa 1"
     style="opacity:1">
    <path
       style="opacity:1;fill:#ffffff;fill-opacity:1;stroke:none;stroke-width:0.95122272;stroke-opacity:1"
       d="m 17.807352,14.711302 c -7.354841,0 -13.3171176,5.962277 -13.3171176,13.317118 0,7.354841 5.9622766,13.317118 13.3171176,13.317118 5.329112,0.04847 10.082455,-0.169214 15.964565,-0.05388 4.491945,-4.16e-4 8.133282,-3.641754 8.133697,-8.133698 6.1e-4,-4.492671 -3.641026,-8.13514 -8.133697,-8.135555 -0.987369,9.28e-4 -1.96632,0.181609 -2.888968,0.533205 C 29.695018,19.269345 24.204877,14.716069 17.807352,14.711302 Z"
       id="path485"
       inkscape:connector-curvature="0"
       sodipodi:nodetypes="cscccccc" />
    <path
       inkscape:connector-curvature="0"
       style="opacity:1;fill:#ffffff;fill-opacity:1;stroke:none;stroke-width:0.80434275;stroke-opacity:1"
       d="m 33.237565,7.1284053 a 10.25537,10.25537 0 0 0 -9.692439,6.9409517 c 4.190136,1.623277 7.406823,5.308428 8.282326,9.941392 0.922647,-0.351596 1.901598,-0.532277 2.888968,-0.533205 1.920701,1.78e-4 3.682297,0.670183 5.073806,1.783543 A 10.25537,10.25537 0 0 0 43.492935,17.383773 10.25537,10.25537 0 0 0 33.237565,7.1284053 Z"
       id="path509" />
  </g>
</svg>
