<?xml version="1.0" encoding="UTF-8" standalone="no"?>
<!-- Created with Inkscape (http://www.inkscape.org/) -->

<svg
   xmlns:dc="http://purl.org/dc/elements/1.1/"
   xmlns:cc="http://creativecommons.org/ns#"
   xmlns:rdf="http://www.w3.org/1999/02/22-rdf-syntax-ns#"
   xmlns:svg="http://www.w3.org/2000/svg"
   xmlns="http://www.w3.org/2000/svg"
   xmlns:sodipodi="http://sodipodi.sourceforge.net/DTD/sodipodi-0.dtd"
   xmlns:inkscape="http://www.inkscape.org/namespaces/inkscape"
   width="48px"
   height="48px"
   viewBox="0 0 48 48"
   version="1.1"
   id="SVGRoot"
   inkscape:version="0.92.3 (2405546, 2018-03-11)"
   sodipodi:docname="miuisecurity.svg">
  <sodipodi:namedview
     id="base"
     pagecolor="#ffffff"
     bordercolor="#666666"
     borderopacity="1.0"
     inkscape:pageopacity="0.0"
     inkscape:pageshadow="2"
     inkscape:zoom="7.5424723"
     inkscape:cx="20.373741"
     inkscape:cy="22.61898"
     inkscape:document-units="px"
     inkscape:current-layer="layer4"
     showgrid="false"
     inkscape:window-width="1024"
     inkscape:window-height="581"
     inkscape:window-x="0"
     inkscape:window-y="19"
     inkscape:window-maximized="1"
     inkscape:grid-bbox="true"
     inkscape:pagecheckerboard="true" />
  <defs
     id="defs228" />
  <metadata
     id="metadata231">
    <rdf:RDF>
      <cc:Work
         rdf:about="">
        <dc:format>image/svg+xml</dc:format>
        <dc:type
           rdf:resource="http://purl.org/dc/dcmitype/StillImage" />
        <dc:title></dc:title>
      </cc:Work>
    </rdf:RDF>
  </metadata>
  <g
     inkscape:groupmode="layer"
     id="layer4"
     inkscape:label="Capa 2"
     style="opacity:1">
    <path
       style="fill:#ffffff;stroke:none;stroke-width:1.41290355px;stroke-linecap:butt;stroke-linejoin:miter;stroke-opacity:1"
       d="M 23.71875,3.486675 C 18.555794,6.2174724 12.667641,8.2748738 5.0419355,8.718833 4.8328866,28.845181 6.7388186,39.616967 23.71875,44.54917 40.698683,39.616967 42.604611,28.845181 42.395562,8.718833 34.769859,8.2748738 28.881706,6.2174724 23.71875,3.486675 Z m -1.691618,9.821327 h 3.325288 c 0.557812,0 1.007245,0.449432 1.007245,1.007244 v 6.134543 h 6.134537 c 0.557811,0 1.007244,0.449433 1.007244,1.007245 v 3.32253 c 0,0.557812 -0.449433,1.007245 -1.007244,1.007245 h -6.134537 v 6.134537 c 0,0.557812 -0.449433,1.007245 -1.007245,1.007245 h -3.325288 c -0.557811,0 -1.004487,-0.449433 -1.004487,-1.007245 v -6.134537 h -6.1373 c -0.557812,0 -1.004488,-0.449433 -1.004488,-1.007245 v -3.32253 c 0,-0.557812 0.446676,-1.007245 1.004488,-1.007245 h 6.1373 v -6.134543 c 0,-0.557811 0.446676,-1.007244 1.004487,-1.007244 z"
       id="path275"
       inkscape:connector-curvature="0" />
  </g>
</svg>
