<?xml version="1.0" encoding="UTF-8"?>
<svg viewBox="0 0 48 48" xmlns="http://www.w3.org/2000/svg">
  <path
     style="fill:#ffffff;stroke-width:0.10270427"
     d="m 22.44709,43.966805 -0.763194,-0.795959 -0.0013,-0.105275 -0.0013,-0.105275 0.747022,-0.742035 0.74702,-0.742035 h 0.430051 0.430049 l 1.056747,-0.112921 1.056747,-0.112921 1.335156,-0.343273 1.335156,-0.343274 0.616225,-0.269733 0.616226,-0.269736 0.910551,-0.459417 0.910552,-0.459418 0.630012,-0.42479 0.630013,-0.42479 0.821634,-0.618461 0.821635,-0.61846 1.183759,-1.186325 1.18376,-1.186326 0.745131,-1.114321 0.745132,-1.114322 0.502716,-1.042463 0.502716,-1.042465 0.312055,-0.925816 0.312054,-0.925817 0.152068,-0.722904 0.152067,-0.722905 0.111597,-1.295897 0.111595,-1.295898 -0.110255,-1.365043 -0.110255,-1.365041 -0.208843,-0.963928 -0.208843,-0.96393 -0.45466,-1.327369 L 39.243239,17.13089 38.667724,15.977678 38.092209,14.824465 37.538859,13.987903 36.985444,13.15134 35.989122,12.103521 34.992819,11.055703 34.16549,10.409942 33.338161,9.76418 32.367928,9.1733198 31.397694,8.582459 30.211138,8.0728786 29.024582,7.563298 27.894835,7.2711018 26.765087,6.9789059 26.09751,6.8574813 25.429932,6.7360568 24.300185,6.6720895 23.170437,6.6081222 V 5.0162058 3.4242895 l 0.960131,-0.029663 0.960129,-0.029663 1.258029,0.2124482 1.25803,0.2124483 1.37649,0.4124243 1.376491,0.4124244 1.386508,0.6690838 1.386508,0.6690838 0.770282,0.4757374 0.770282,0.4757375 1.027043,0.7665916 1.027043,0.7665915 1.492994,1.4988447 1.492993,1.498847 0.682928,1.027043 0.682928,1.027042 0.61851,1.283804 0.61851,1.283803 0.41505,1.16389 0.415051,1.16389 0.21359,0.836547 0.213589,0.836548 0.196781,1.337453 0.19678,1.337451 -0.0016,1.489212 -0.0016,1.489212 -0.151375,1.065034 -0.151375,1.065035 -0.255499,1.010683 -0.255491,1.010684 -0.476021,1.313195 -0.476013,1.313199 -0.513896,1.027369 -0.513895,1.027369 -0.53464,0.821634 -0.534638,0.821634 -0.553123,0.663269 -0.553122,0.663265 -0.95175,0.944047 -0.951752,0.944047 -0.798372,0.644796 -0.798374,0.644794 -1.078394,0.709104 -1.078396,0.709104 -1.232452,0.597336 -1.232451,0.597337 -0.910728,0.319908 -0.910728,0.319908 -1.002184,0.258801 -1.002182,0.258804 -1.116866,0.148639 -1.116864,0.148639 -0.801711,0.0019 -0.801717,0.0019 z m -1.176684,-4.506594 -0.359464,-0.04523 -0.821636,-0.149252 -0.821633,-0.149251 -0.821635,-0.265324 -0.821634,-0.265323 -0.821634,-0.395371 -0.821635,-0.39537 -1.078394,-0.715911 -1.078395,-0.71591 -0.815998,-0.746487 -0.815996,-0.746487 -0.55147,-0.625472 -0.55147,-0.625474 L 10.429894,32.63603 9.770374,31.652711 9.3209786,30.684648 8.8715834,29.716585 8.6544327,29.049007 8.4372821,28.381429 8.1887013,27.345826 7.9401199,26.310223 7.812746,25.156769 7.685372,24.003318 7.745324,22.854484 7.805276,21.70565 l 0.1685983,-0.770282 0.1685974,-0.770282 0.3115375,-0.97569 0.3115355,-0.975691 0.4904169,-0.97569 0.4904154,-0.975691 0.652474,-0.920566 0.652475,-0.920567 0.985099,-0.988871 0.985099,-0.98887 1.017635,-0.722902 1.017635,-0.722904 0.924338,-0.51782 0.924339,-0.517821 1.305014,-0.5215174 1.305014,-0.5215179 h 0.216523 0.216523 l 0.866338,0.5294035 0.866337,0.5294028 -0.0014,0.06114 -0.0014,0.06114 -0.537818,0.973253 -0.537819,0.973254 -0.256761,0.0717 -0.25676,0.0717 -0.991054,0.309063 -0.991056,0.309062 -0.908974,0.51498 -0.908975,0.51498 -0.718929,0.573223 -0.718931,0.57322 -0.70232,0.792969 -0.702318,0.792969 -0.447064,0.672303 -0.447064,0.672305 -0.519426,1.073669 -0.519425,1.073668 -0.222217,0.821634 -0.222216,0.821634 -0.009,2.002734 -0.009,2.002734 0.188454,0.856916 0.188456,0.856916 0.206911,0.632296 0.206911,0.632295 0.462059,0.924339 0.46206,0.924338 0.499436,0.674784 0.499434,0.674784 0.902634,0.868056 0.902633,0.868059 0.718931,0.476168 0.71893,0.476169 0.770282,0.415054 0.770282,0.415055 0.967188,0.315861 0.967189,0.315862 0.984193,0.16182 0.984192,0.161821 1.283804,-0.05318 1.283803,-0.05318 0.995259,-0.263361 0.99526,-0.263363 0.921353,-0.397217 0.921353,-0.397219 0.856404,-0.571715 0.856403,-0.571718 0.71893,-0.622796 0.718929,-0.622798 0.623128,-0.716815 0.623126,-0.716816 0.48214,-0.851531 0.482139,-0.851531 0.418003,-1.066414 0.418003,-1.066415 0.146546,-0.70284 0.146547,-0.702841 0.106291,-1.035773 0.106291,-1.035772 -0.111982,-1.046374 -0.112052,-1.046383 -0.159957,-0.650754 -0.159958,-0.650754 -0.255747,-0.633049 -0.255746,-0.63305 -0.399911,-0.770281 -0.399971,-0.770282 -0.678951,-0.903262 -0.678951,-0.903262 -0.667452,-0.667452 -0.667452,-0.667453 -0.734426,-0.51851 -0.734427,-0.518509 -0.774429,-0.391677 -0.77443,-0.391677 -1.022896,-0.312937 -1.022894,-0.312937 -0.821634,-0.108388 -0.821634,-0.108388 -0.564874,-0.02484 -0.564874,-0.02484 -0.02384,-1.581828 -0.02384,-1.5818269 1.204935,0.063809 1.204938,0.063809 1.027043,0.2528795 1.027043,0.2528791 0.924339,0.3255423 0.924338,0.325542 1.010104,0.517118 1.010104,0.517116 0.774529,0.555699 0.77453,0.555701 0.665905,0.58571 0.665905,0.585711 0.786136,0.97569 0.786135,0.975692 0.497134,0.849045 0.497134,0.849045 0.453006,1.029326 0.453005,1.029325 0.247598,0.854411 0.247598,0.854411 0.124285,1.067277 0.124284,1.067276 -0.05949,1.694621 -0.0595,1.69462 -0.164818,0.924339 -0.164817,0.924338 -0.253712,0.842481 -0.253712,0.84248 -0.347556,0.812012 -0.347555,0.812011 -0.534397,0.861763 -0.534396,0.861763 -0.725738,0.854955 -0.725738,0.854953 -0.758781,0.699171 -0.758783,0.69917 -0.789857,0.564448 -0.789857,0.564448 -0.821634,0.472743 -0.821634,0.472747 -1.116582,0.41999 -1.11658,0.419991 -0.886153,0.20447 -0.886152,0.204471 -2.002734,0.03538 -2.002734,0.03538 -0.359464,-0.04524 z m 0.154056,-5.4175 -0.821633,-0.135678 -0.581519,-0.169763 -0.581521,-0.169762 -0.682161,-0.306065 -0.682162,-0.306065 -0.58396,-0.386946 -0.583961,-0.386944 -0.682137,-0.642877 -0.682136,-0.642877 -0.512375,-0.743632 -0.512375,-0.74363 -0.261254,-0.518404 -0.261253,-0.518404 -0.355352,-1.073513 -0.35535,-1.073512 -0.110217,-0.667577 -0.110216,-0.667578 -0.04955,-0.519133 -0.04955,-0.519135 0.06981,-0.09763 0.06981,-0.09763 0.798072,-0.594041 0.798072,-0.594042 0.135801,-0.05212 0.135801,-0.05212 0.538465,0.778918 0.538466,0.778917 0.186315,0.894822 0.186313,0.89482 0.278273,0.770282 0.278269,0.770283 0.562684,0.85108 0.562686,0.851081 0.604917,0.503417 0.604916,0.503416 0.651679,0.311017 0.651676,0.311018 0.60873,0.164384 0.608728,0.164386 1.027044,0.05719 1.027042,0.05719 0.715092,-0.112041 0.715093,-0.112041 0.928176,-0.453929 0.928177,-0.45393 0.516173,-0.445485 0.516174,-0.445485 0.428792,-0.505043 0.428789,-0.505042 0.367575,-0.743917 0.367576,-0.743917 0.16225,-0.756427 0.16225,-0.756426 0.0024,-0.975691 0.0024,-0.975691 -0.160269,-0.735875 -0.160268,-0.735874 -0.37035,-0.759502 -0.370348,-0.759503 -0.403481,-0.488266 -0.403481,-0.488268 -0.552349,-0.454724 -0.552349,-0.454724 -0.760929,-0.351191 -0.760928,-0.351192 -0.633901,-0.163926 -0.633898,-0.163927 -0.624229,-0.06524 -0.624221,-0.06524 V 15.3747 13.746062 h 0.393418 0.393418 l 1.070118,0.194712 1.070119,0.19471 0.71893,0.272457 0.71893,0.272459 0.752208,0.405663 0.752208,0.405665 0.614698,0.472999 0.614698,0.473001 0.671709,0.785281 0.671708,0.785281 0.603716,1.232451 0.603715,1.232452 0.268421,0.975689 0.268421,0.975692 0.05026,1.335156 0.05025,1.335155 -0.315346,1.232452 -0.315344,1.232451 -0.46841,0.969959 -0.468409,0.969957 -0.450807,0.63175 -0.450807,0.631749 -0.791526,0.739198 -0.791525,0.739198 -0.694393,0.412531 -0.694394,0.412531 -0.897406,0.352307 -0.897407,0.352307 -0.780977,0.161396 -0.780978,0.161395 -1.181098,0.04215 -1.181099,0.04216 z"
     id="path138" />
</svg>
