<?xml version="1.0" encoding="UTF-8" standalone="no"?>
<svg width="48" height="48" viewBox="0 0 48 48" version="1.1" xmlns:svg="http://www.w3.org/2000/svg" xmlns="http://www.w3.org/2000/svg">
    <defs>
        <style>.cls-1{fill:#fff;}</style>
    </defs>
        <path
            d="M 24 2 A 22 22 0 0 0 2 24 A 22 22 0 0 0 24 46 A 22 22 0 0 0 46 24 A 22 22 0 0 0 24 2 z M 22.884766 9.640625 L 25.382812 9.640625 L 25.382812 11.138672 C 28.514374 11.630636 30.942696 13.571438 31.125 16.882812 L 27.130859 17.382812 C 26.741291 16.064252 26.449133 15.738832 25.382812 14.884766 L 25.404297 21.095703 C 29.190164 21.1756 31.89012 24.530293 31.875 28.371094 C 31.827556 32.34426 29.211135 34.821376 25.382812 35.363281 L 25.382812 38.359375 L 22.884766 38.359375 L 22.884766 35.363281 C 18.834195 35.163482 16.676997 32.196701 16.142578 28.380859 L 20.365234 28.097656 C 20.692362 29.358778 21.568714 30.800803 22.884766 31.607422 L 22.863281 24.929688 C 19.299677 24.307862 16.890625 21.490825 16.890625 17.382812 C 16.935583 13.689346 19.386075 11.635631 22.884766 11.138672 L 22.884766 9.640625 z M 22.884766 14.884766 C 20.215172 15.818735 20.225169 19.060067 22.884766 20.128906 L 22.884766 14.884766 z M 25.382812 25.623047 L 25.382812 31.867188 C 25.997125 31.629955 26.511093 31.453546 26.998047 30.976562 C 28.261683 29.742929 28.679189 26.59698 25.382812 25.623047 z "
          id="circle859"
          class="cls-1" />
</svg>
