<?xml version="1.0" encoding="UTF-8"?>
<svg viewBox="0 0 48 48" xmlns="http://www.w3.org/2000/svg">
    <path d="M 31.855953,8 C 18.101514,9.646845 11.846808,10.813612 0,17.520664 l 0.10987155,0.304651 0.94152305,0.0095 c -0.0863307,0.926095 -0.23675683,3.214708 -0.044601,6.656628 -1.31445545,3.715261 -0.0333639,6.239287 1.1696969,8.984935 0.1907634,-2.855752 0.1711714,-5.983619 -0.726947,-9.096441 -0.1879782,-3.4188 -0.033538,-5.666671 0.0514,-6.541089 l 7.8533687,0.07357 a 35.924736,35.08555 0 0 0 0.2325251,4.495655 c 0.00019074,0.000065 0.00353,0.0001994 0.00054414,0.0002654 C 9.4775799,23.037587 9.422574,23.704295 9.422574,24.408637 V 40 h 7.680674 V 25.2777 c -0.0012,-0.822618 0.0915,-1.53431 0.276584,-2.13707 1.979608,-0.317117 3.846853,-1.028845 5.51207,-2.096963 1.299065,0.630829 1.949133,2.04181 1.949133,4.234033 V 40 h 7.679314 V 25.2777 c 0.0056,-3.078825 1.307762,-4.617944 3.906969,-4.617038 2.599204,0.0009074 3.898808,1.540025 3.898808,4.617038 V 40 H 48 V 24.408636 c -0.0009274,-3.213002 -1.14337,-5.644177 -3.426957,-7.293288 -2.008816,-1.47323 -4.725784,-2.209846 -8.151165,-2.209846 -3.74657,0 -6.328291,0.870078 -7.744858,2.60985 -0.375362,-0.39723 -0.798809,-0.748722 -1.269505,-1.055255 -1.040865,-1.138006 -3.076133,-2.688734 -3.076133,-2.688734 l 7.622204,-5.43962 z" fill="#fff" />
</svg>
