<?xml version="1.0" encoding="UTF-8" standalone="no"?>
<svg
   xmlns:dc="http://purl.org/dc/elements/1.1/"
   xmlns:cc="http://creativecommons.org/ns#"
   xmlns:rdf="http://www.w3.org/1999/02/22-rdf-syntax-ns#"
   xmlns:svg="http://www.w3.org/2000/svg"
   xmlns="http://www.w3.org/2000/svg"
   xmlns:sodipodi="http://sodipodi.sourceforge.net/DTD/sodipodi-0.dtd"
   xmlns:inkscape="http://www.inkscape.org/namespaces/inkscape"
   width="48"
   height="48"
   viewBox="0 0 48 48"
   version="1.1"
   id="svg1807"
   sodipodi:docname="motioneye.svg"
   inkscape:version="0.92.4 5da689c313, 2019-01-14">
  <metadata
     id="metadata1813">
    <rdf:RDF>
      <cc:Work
         rdf:about="">
        <dc:format>image/svg+xml</dc:format>
        <dc:type
           rdf:resource="http://purl.org/dc/dcmitype/StillImage" />
        <dc:title></dc:title>
      </cc:Work>
    </rdf:RDF>
  </metadata>
  <defs
     id="defs1811" />
  <sodipodi:namedview
     pagecolor="#ffffff"
     bordercolor="#666666"
     borderopacity="1"
     objecttolerance="10"
     gridtolerance="10"
     guidetolerance="10"
     inkscape:pageopacity="0"
     inkscape:pageshadow="2"
     id="namedview1809"
     showgrid="false"
     inkscape:zoom="19.666667"
     inkscape:cx="38.887535"
     inkscape:cy="16.763585"
     inkscape:window-x="0"
     inkscape:window-y="44"
     inkscape:window-maximized="1"
     inkscape:current-layer="svg1807"
     inkscape:snap-object-midpoints="true">
    <inkscape:grid
       type="xygrid"
       id="grid842" />
  </sodipodi:namedview>
  <path
     style="fill:#ffffff"
     d="M 7 5 C 5.892 5 5 5.892 5 7 L 5 41 C 5 42.108 5.892 43 7 43 L 41 43 C 42.108 43 43 42.108 43 41 L 43 7 C 43 5.892 42.108 5 41 5 L 7 5 z M 24 10 A 14 14 0 0 1 31.863281 12.455078 C 28.609829 12.664346 25.873612 13.67664 24 14.621094 C 22.121879 13.674367 19.387329 12.652844 16.121094 12.447266 A 14 14 0 0 1 24 10 z M 14.671875 13.111328 C 18.525178 13.054208 21.766722 14.245588 23.839844 15.310547 L 24 15.392578 L 24.160156 15.310547 C 26.710695 14.00034 31.066574 12.607157 36.117188 13.474609 C 31.979892 14.990103 27.825556 16.454639 25.175781 21.183594 L 22.824219 21.183594 C 20.174444 16.454639 16.020108 14.990103 11.882812 13.474609 C 12.828201 13.312237 13.784503 13.124482 14.671875 13.111328 z M 34.5 14.769531 A 14 14 0 0 1 38 24 A 14 14 0 0 1 24 38 A 14 14 0 0 1 10 24 A 14 14 0 0 1 13.505859 14.771484 C 14.749986 15.248161 15.962498 15.75729 17.097656 16.398438 A 4.6961718 4.6961718 0 0 0 13.304688 21 A 4.6961718 4.6961718 0 0 0 18 25.695312 A 4.6961718 4.6961718 0 0 0 22.603516 21.884766 L 25.400391 21.884766 A 4.6961718 4.6961718 0 0 0 30 25.695312 A 4.6961718 4.6961718 0 0 0 34.695312 21 A 4.6961718 4.6961718 0 0 0 30.900391 16.400391 C 32.037958 15.757648 33.253011 15.247156 34.5 14.769531 z M 18 19.287109 A 1.7119415 1.7119415 0 0 1 19.712891 21 A 1.7119415 1.7119415 0 0 1 18 22.712891 A 1.7119415 1.7119415 0 0 1 16.287109 21 A 1.7119415 1.7119415 0 0 1 18 19.287109 z M 30 19.287109 A 1.7119415 1.7119415 0 0 1 31.712891 21 A 1.7119415 1.7119415 0 0 1 30 22.712891 A 1.7119415 1.7119415 0 0 1 28.287109 21 A 1.7119415 1.7119415 0 0 1 30 19.287109 z M 24 23.650391 C 23.606577 24.538205 23.243367 25.759692 21.904297 26.810547 C 22.567805 27.696792 23.24433 28.627801 24 29.832031 C 24.755671 28.627801 25.432195 27.696792 26.095703 26.810547 C 24.756633 25.759691 24.393424 24.538205 24 23.650391 z "
     id="rect1805" />
</svg>
