<?xml version="1.0" encoding="UTF-8"?>
<svg version="1.1" viewBox="0 0 48 48" xmlns="http://www.w3.org/2000/svg">
    <path d="m24 5a19 19 0 0 0-9.5703 2.6211c3.0851 0.51835 6.1227 1.7866 9.5703 3.1836 4.5261-1.9121 6.8435-2.9197 9.4238-3.2813a19 19 0 0 0-9.4238-2.5234zm14.217 6.4219c-1.4848 0.52632-2.9815 1.1077-4.416 1.8105a6.5972 6.5972 0 0 1 4.9766 6.3867 6.5972 6.5972 0 0 1-6.5977 6.5977 6.5972 6.5972 0 0 1-6.3477-4.834h-3.668a6.5972 6.5972 0 0 1-6.3438 4.834 6.5972 6.5972 0 0 1-6.5977-6.5977 6.5972 6.5972 0 0 1 4.9727-6.3867c-1.4315-0.70118-2.9246-1.2832-4.4062-1.8086a19 19 0 0 0-4.7891 12.576 19 19 0 0 0 19 19 19 19 0 0 0 19-19 19 19 0 0 0-4.7832-12.578zm-14.207 13.074a8.2474 8.2474 0 0 0 3.1504 3.207l-3.1602 4.2129-3.1641-4.2188a8.2474 8.2474 0 0 0 3.1738-3.2012z" fill="#fff"/>
    <path d="m11.391 8.6513c-1.4432 0.047056-3.1421 0.21289-5.3355 0.47624 6.0947 1.9563 13.878 4.4166 16.361 11.188h3.1667c2.483-6.7719 10.266-9.2321 16.361-11.188-2.1934-0.26335-3.8923-0.42918-5.3355-0.47624-4.3295-0.14116-6.3652 0.79493-12.609 3.4326-4.5682-1.851-8.4153-3.4835-12.609-3.4326z" color="#000000" color-rendering="auto" dominant-baseline="auto" fill="#fff" image-rendering="auto" shape-rendering="auto" solid-color="#000000" style="font-feature-settings:normal;font-variant-alternates:normal;font-variant-caps:normal;font-variant-ligatures:normal;font-variant-numeric:normal;font-variant-position:normal;isolation:auto;mix-blend-mode:normal;shape-padding:0;text-decoration-color:#000000;text-decoration-line:none;text-decoration-style:solid;text-indent:0;text-orientation:mixed;text-transform:none;white-space:normal"/>
    <path d="m17.667 19.604a2.1111 2.1111 0 0 1-2.1384 2.0741 2.1111 2.1111 0 0 1-2.0834-2.1294 2.1111 2.1111 0 0 1 2.1202-2.0927 2.1111 2.1111 0 0 1 2.1019 2.1111h-2.1111z" fill="#fff"/>
    <path d="m34.556 19.604a2.1111 2.1111 0 0 1-2.1384 2.0741 2.1111 2.1111 0 0 1-2.0834-2.1294 2.1111 2.1111 0 0 1 2.1202-2.0927 2.1111 2.1111 0 0 1 2.1019 2.1111h-2.1111z" fill="#fff"/>
</svg>
