<?xml version="1.0" encoding="UTF-8" standalone="no"?>
<!-- Created with Inkscape (http://www.inkscape.org/) -->

<svg
   xmlns:dc="http://purl.org/dc/elements/1.1/"
   xmlns:cc="http://creativecommons.org/ns#"
   xmlns:rdf="http://www.w3.org/1999/02/22-rdf-syntax-ns#"
   xmlns:svg="http://www.w3.org/2000/svg"
   xmlns="http://www.w3.org/2000/svg"
   xmlns:sodipodi="http://sodipodi.sourceforge.net/DTD/sodipodi-0.dtd"
   xmlns:inkscape="http://www.inkscape.org/namespaces/inkscape"
   width="48mm"
   height="48mm"
   viewBox="0 0 48 48"
   version="1.1"
   id="svg8"
   sodipodi:docname="MovieDB_48x48.svg"
   inkscape:version="0.92.3 (2405546, 2018-03-11)">
  <defs
     id="defs2" />
  <sodipodi:namedview
     id="base"
     pagecolor="#ffffff"
     bordercolor="#666666"
     borderopacity="1.0"
     inkscape:pageopacity="0.0"
     inkscape:pageshadow="2"
     inkscape:zoom="1.4"
     inkscape:cx="231.59751"
     inkscape:cy="36.400224"
     inkscape:document-units="mm"
     inkscape:current-layer="layer1"
     showgrid="false"
     inkscape:pagecheckerboard="true"
     inkscape:snap-nodes="true"
     inkscape:window-width="2560"
     inkscape:window-height="1385"
     inkscape:window-x="1920"
     inkscape:window-y="27"
     inkscape:window-maximized="1" />
  <metadata
     id="metadata5">
    <rdf:RDF>
      <cc:Work
         rdf:about="">
        <dc:format>image/svg+xml</dc:format>
        <dc:type
           rdf:resource="http://purl.org/dc/dcmitype/StillImage" />
        <dc:title></dc:title>
      </cc:Work>
    </rdf:RDF>
  </metadata>
  <g
     inkscape:label="Layer 1"
     inkscape:groupmode="layer"
     id="layer1">
    <path
       style="fill:#ffffff;stroke-width:0.26458332"
       d="m 21.528713,13.943331 7.198011,5.22087 -3.891237,2.858223 h 13.536125 c 1.230217,0 2.220536,-0.990318 2.220536,-2.220536 v -3.638021 c 0,-1.230218 -0.990319,-2.220536 -2.220536,-2.220536 z"
       id="rect42-6"
       inkscape:connector-curvature="0" />
    <path
       style="fill:#ffffff;stroke-width:0.26458332"
       d="m 22.488344,23.746867 -7.787638,5.720582 v 0.137975 c 0,1.230217 0.990318,2.221053 2.220536,2.221053 h 21.45037 c 1.230217,0 2.220536,-0.990836 2.220536,-2.221053 v -3.638021 c 0,-1.230218 -0.990319,-2.220536 -2.220536,-2.220536 z"
       id="rect42-6-7"
       inkscape:connector-curvature="0" />
    <rect
       style="fill:#ffffff;stroke-width:0.26458332"
       id="rect42-6-5"
       width="25.891369"
       height="8.0792408"
       x="14.700604"
       y="33.550758"
       ry="2.2206101" />
    <path
       style="fill:#ffffff;stroke-width:0.04724703"
       d="m 8.5981456,24.505914 c -0.01608,-4.02055 -0.0423,-9.69058 -0.05826,-12.60006 -0.02446,-4.4574496 -0.01891,-5.2818096 0.03524,-5.2381196 0.03535,0.0285 3.9125424,2.84178 8.6159834,6.2517096 4.703441,3.40993 8.568675,6.21565 8.589405,6.23493 0.02601,0.0242 -15.132216,11.21485 -17.0725734,12.60396 -0.07578,0.0542 -0.08229,-0.37597 -0.109793,-7.25242 z"
       id="path113"
       inkscape:connector-curvature="0" />
  </g>
</svg>
