<?xml version="1.0" encoding="UTF-8"?>
<svg version="1.1" viewBox="0 0 48 48" xmlns="http://www.w3.org/2000/svg">
    <path d="m8.0488 6.5566c-0.054038-0.043609-0.059566 0.77843-0.035156 5.2266 0.015927 2.9033 0.042547 8.562 0.058594 12.574 0.027443 6.8621 0.033752 7.2904 0.10938 7.2363 1.937-1.3861 17.063-12.552 17.037-12.576-0.020657-0.01926-3.8786-2.8198-8.5723-6.2227-4.6938-3.4028-8.5624-6.2098-8.5977-6.2383zm12.928 7.2598 7.1836 5.209-3.8848 2.8535h13.508c1.2277 0 2.2168-0.98918 2.2168-2.2168v-3.6309c0-1.2276-0.98916-2.2148-2.2168-2.2148h-16.807zm0.95703 9.7832-7.7715 5.709v0.13672c0 1.2276 0.98721 2.2168 2.2148 2.2168h21.406c1.2277 0 2.2168-0.9891 2.2168-2.2168v-3.6289c0-1.2276-0.98916-2.2168-2.2168-2.2168h-15.85zm-5.5547 9.7832c-1.2277 0-2.2168 0.98914-2.2168 2.2168v3.6309c0 1.2277 0.98914 2.2148 2.2168 2.2148h21.404c1.2277 0 2.2168-0.98719 2.2168-2.2148v-3.6309c0-1.2277-0.98914-2.2168-2.2168-2.2168h-21.404z" fill="#fff" stroke-width=".26403"/>
</svg>
