<?xml version="1.0" encoding="UTF-8" standalone="no"?>
<!-- Created with Inkscape (http://www.inkscape.org/) -->

<svg
   width="48"
   height="48"
   viewBox="0 0 12.700001 12.7"
   version="1.1"
   id="svg5"
   inkscape:version="1.1.2 (0a00cf5339, 2022-02-04)"
   sodipodi:docname="mozillavpn.svg"
   xmlns:inkscape="http://www.inkscape.org/namespaces/inkscape"
   xmlns:sodipodi="http://sodipodi.sourceforge.net/DTD/sodipodi-0.dtd"
   xmlns="http://www.w3.org/2000/svg"
   xmlns:svg="http://www.w3.org/2000/svg">
  <sodipodi:namedview
     id="namedview7"
     pagecolor="#000000"
     bordercolor="#666666"
     borderopacity="1.0"
     inkscape:pageshadow="2"
     inkscape:pageopacity="0"
     inkscape:pagecheckerboard="0"
     inkscape:document-units="px"
     showgrid="false"
     showborder="false"
     inkscape:zoom="1.4142136"
     inkscape:cx="-15.909902"
     inkscape:cy="87.681239"
     inkscape:window-width="1920"
     inkscape:window-height="1006"
     inkscape:window-x="0"
     inkscape:window-y="0"
     inkscape:window-maximized="1"
     inkscape:current-layer="layer1"
     width="48mm"
     fit-margin-top="0"
     fit-margin-left="0"
     fit-margin-right="0"
     fit-margin-bottom="0"
     units="px" />
  <defs
     id="defs2" />
  <g
     inkscape:label="Layer 1"
     inkscape:groupmode="layer"
     id="layer1"
     transform="translate(-14.165795,-22.284271)">
    <path
       id="rect1046-1"
       style="fill:#ffffff;stroke-width:0.999998;stroke-linecap:round;stroke-linejoin:bevel"
       d="m 20.606229,22.284271 a 2.2912818,2.2146649 0 0 0 -2.290815,2.214335 2.2912818,2.2146649 0 0 0 0.342098,1.161684 l -0.921393,0.992188 a 2.2912818,2.2146649 0 0 0 -1.27899,-0.377754 2.2912818,2.2146649 0 0 0 -2.291334,2.214851 2.2912818,2.2146649 0 0 0 2.291334,2.214335 2.2912818,2.2146649 0 0 0 2.199865,-1.597834 h 3.651974 a 2.2912818,2.2146649 0 0 0 0.316775,0.834056 l -0.92139,0.992188 a 2.2912818,2.2146649 0 0 0 -1.278474,-0.377754 2.2912818,2.2146649 0 0 0 -2.291334,2.214851 2.2912818,2.2146649 0 0 0 2.291334,2.214853 2.2912818,2.2146649 0 0 0 2.290815,-2.214853 2.2912818,2.2146649 0 0 0 -0.298172,-1.091922 l 0.946711,-1.019577 a 2.2912818,2.2146649 0 0 0 1.209746,0.33538 2.2912818,2.2146649 0 0 0 2.290816,-2.214851 2.2912818,2.2146649 0 0 0 -2.290816,-2.214335 2.2912818,2.2146649 0 0 0 -2.10013,1.332736 h -3.811654 a 2.2912818,2.2146649 0 0 0 -0.213423,-0.499195 l 0.947229,-1.020093 a 2.2912818,2.2146649 0 0 0 1.209228,0.335896 2.2912818,2.2146649 0 0 0 2.291334,-2.21485 2.2912818,2.2146649 0 0 0 -2.291334,-2.214335 z m 0.03927,1.259353 a 1.0705243,1.0347276 0 0 1 1.070734,1.034563 1.0705243,1.0347276 0 0 1 -1.070734,1.03456 1.0705243,1.0347276 0 0 1 -1.070218,-1.03456 1.0705243,1.0347276 0 0 1 1.070218,-1.034563 z m -4.149101,3.990453 a 1.0705243,1.0347276 0 0 1 1.070735,1.034564 1.0705243,1.0347276 0 0 1 -1.070735,1.035079 1.0705243,1.0347276 0 0 1 -1.070218,-1.035079 1.0705243,1.0347276 0 0 1 1.070218,-1.034564 z m 8.117335,0.289388 a 1.0705243,1.0347276 0 0 1 1.070734,1.034564 1.0705243,1.0347276 0 0 1 -1.070734,1.035079 1.0705243,1.0347276 0 0 1 -1.070221,-1.035079 1.0705243,1.0347276 0 0 1 1.070221,-1.034564 z m -4.149103,3.990973 a 1.0705243,1.0347276 0 0 1 1.070737,1.03456 1.0705243,1.0347276 0 0 1 -1.070737,1.034563 1.0705243,1.0347276 0 0 1 -1.070219,-1.034563 1.0705243,1.0347276 0 0 1 1.070219,-1.03456 z" />
  </g>
</svg>
