<?xml version="1.0" encoding="utf-8"?>
<!-- Generator: Adobe Illustrator 21.1.0, SVG Export Plug-In . SVG Version: 6.00 Build 0)  -->
<svg version="1.0" id="Layer_1" xmlns="http://www.w3.org/2000/svg" xmlns:xlink="http://www.w3.org/1999/xlink" x="0px" y="0px"
	 viewBox="0 0 48 48" style="enable-background:new 0 0 48 48;" xml:space="preserve">
<style type="text/css">
	.st0{fill:#FFFFFF;}
</style>
<g>
	<path class="st0" d="M24,28.6c-1.1,0-2.1,1-2.1,2.2c0,1.1,1,2.1,2.1,2.1c1.1,0,2.1-1.1,2.1-2.2C26.1,29.5,25.1,28.6,24,28.6z"/>
	<path class="st0" d="M41,5H7C5.9,5,5,5.9,5,7v34c0,1.1,0.9,2,2,2h34c1.1,0,2-0.9,2-2V7C43,5.9,42.1,5,41,5z M28.6,34.8
		c-1,1.5-2.1,3-3.2,4.5c-1,1.4-1.7,1.4-2.7,0c-1.2-1.7-2.4-3.3-3.5-5c-2.1-3.2-1.5-7,1.4-8.8c2.1-1.3,4.2-1.5,6.4-0.2
		c2,1.2,3.2,2.9,3,5.5C30.2,32.3,29.4,33.6,28.6,34.8z M34.1,24.1c-0.9,0.8-2.2,0.7-3.1-0.3c-1.6-1.8-3.4-3-5.8-3.4
		c-2.8-0.4-5.1,0.4-7.2,2.2c-0.4,0.4-0.8,0.9-1.3,1.3c-0.9,0.8-2,0.9-2.9,0.2c-0.8-0.7-1.1-1.7-0.4-2.7c1.2-1.9,3-3.2,5-4.2
		c1.8-0.8,3.7-1.3,5.7-1.2c4.1,0.1,7.5,1.7,10.1,5C35.1,22.1,35,23.3,34.1,24.1z M40,16.4c-0.6,1.4-2.2,1.8-3.3,0.8
		c-1.2-1-2.3-2.1-3.6-2.9c-6.8-4-15.2-3.1-21,2.3c-0.6,0.6-1.2,1.2-2.2,1.2c-0.8,0-1.5-0.4-1.8-1.1c-0.4-0.8-0.4-1.5,0.2-2.2
		c1.3-1.6,2.9-2.8,4.6-3.8c3.4-2,7.1-3.1,12-3.1c5,0.2,10.1,2.1,14.3,6.3C40,14.6,40.5,15.4,40,16.4z"/>
</g>
</svg>
