<?xml version="1.0" encoding="UTF-8"?>
<svg version="1.1" viewBox="0 0 48 48" xmlns="http://www.w3.org/2000/svg">
    <path d="m6.544 9.3721c-1.4094 0-2.544 1.1346-2.544 2.544v24.168c0 1.4094 1.1346 2.544 2.544 2.544h34.997c-1.057 0-1.908-1.1346-1.908-2.544v-1.272h-0.01739v-22.896c0-1.4094-1.1346-2.544-2.544-2.544zm34.997 29.256m-32.453-26.712h26.712c0.70468 0 1.272 0.56731 1.272 1.272v1.272c0 0.70468-0.56731 1.272-1.272 1.272h-26.712c-0.70468 0-1.272-0.56731-1.272-1.272v-1.272c0-0.70469 0.56731-1.272 1.272-1.272zm0 7.632h10.176c0.70468 0 1.272 0.56731 1.272 1.272v10.176c0 0.70469-0.56731 1.272-1.272 1.272h-10.176c-0.70468 0-1.272-0.56731-1.272-1.272v-10.176c0-0.70468 0.56731-1.272 1.272-1.272zm16.536 0h10.176c0.70468 0 1.272 0.56731 1.272 1.272v6.36c0 0.70468-0.56731 1.272-1.272 1.272h-10.176c-0.70469 0-1.272-0.56731-1.272-1.272v-6.36c0-0.70468 0.56731-1.272 1.272-1.272z" fill="#fff"/>
    <rect x="41.143" y="18.628" width="2.8571" height="19.048" rx="1.9048" fill="#fff"/>
</svg>
