<svg version="1.1" viewBox="0 0 48 48" xmlns="http://www.w3.org/2000/svg">
  <path
     style="fill:#ffffff"
     d="m 26.692925,37.767587 c 2.544608,-0.382121 4.849263,-1.211769 6.913964,-2.488942 0.890971,-0.551132 1.907464,-1.312699 1.97015,-1.476056 l 0.01222,-5.469713 c 3.78e-4,-0.169105 -0.483898,0.254044 -0.806315,0.650713 -1.140947,1.403702 -2.402936,2.320412 -3.812007,2.769042 -1.210554,0.385426 -1.844407,0.495553 -2.478923,0.430688 -0.728801,-0.0745 -1.87424,-0.332288 -2.465711,-0.554916 -0.589251,-0.221795 -0.837815,-0.233457 -1.356921,-0.06367 -0.524278,0.171482 -0.861053,0.09475 -1.280338,-0.291737 -0.388222,-0.357851 -0.657046,-0.856903 -0.657046,-1.219759 0,-0.310464 0.301301,-0.914007 0.594663,-1.191185 0.844305,-0.797723 2.177533,-0.251469 2.437027,0.998504 0.0861,0.414765 0.102401,0.435119 0.49046,0.612781 0.638285,0.292216 1.42868,0.422489 2.563337,0.422489 1.499459,0 2.119468,-0.190386 3.43989,-1.056286 1.229778,-0.806459 2.525434,-2.29837 3.11566,-3.587596 0.233726,-0.510521 0.335225,-1.49126 0.17439,-1.685052 l -22.756586,-0.0143 0.03669,9.249988 c 0.350392,0.325313 1.792736,1.421464 2.720433,1.93859 1.92589,1.073551 4.527201,1.874613 6.951045,2.140545 0.896041,0.09831 3.196085,0.03572 4.193926,-0.114125 z M 12.127813,22.158484 c 0.07799,-0.813969 0.414495,-2.235324 0.71094,-3.00292 0.14451,-0.374179 0.262743,-0.699118 0.262743,-0.722086 -1.121846,-0.102498 -2.140472,0.622766 -2.904573,1.200879 -1.0495694,0.98434 -1.5066227,2.007432 -1.5793592,3.535326 -0.033661,0.707143 -0.012448,0.967765 0.122082,1.499765 0.3157717,1.248708 0.9788126,2.22438 1.9682402,2.896287 0.509047,0.345685 1.213906,0.764991 1.333615,0.728042 -0.02675,-2.143832 -0.01027,-3.932456 0.08631,-6.135293 z m 25.245715,5.502827 c 1.642008,-0.956278 2.444833,-2.40495 2.444833,-4.411619 0,-0.519239 -0.04719,-1.049249 -0.118177,-1.327303 -0.338042,-1.324092 -1.338678,-2.556691 -2.581003,-3.179319 -0.456484,-0.22878 -1.484247,-0.470583 -1.582512,-0.372319 -0.03508,0.03508 0.05415,0.412373 0.198293,0.83844 0.576881,1.705249 0.61799,2.055982 0.646095,5.512248 0.01389,1.708637 0.04046,3.150299 0.05905,3.203693 0.06005,0.172589 0.301027,0.104481 0.93343,-0.263821 z m -1.790009,-4.52864 c 0.06854,-0.110902 -0.105188,-1.754209 -0.246678,-2.33333 -0.162631,-0.665653 -0.663152,-1.99992 -1.005139,-2.679454 -0.622473,-1.236863 -2.175533,-3.006721 -3.366785,-3.836768 -0.320147,-0.223074 -0.60694,-0.449996 -0.637313,-0.504271 0.426195,-1.253346 1.237904,-2.500504 1.779589,-3.766883 0.08016,-0.5975874 -0.428186,-1.0962259 -1.006876,-0.9876629 -0.148393,0.027836 -0.335765,0.1215586 -0.416383,0.2082666 -0.741669,1.2591913 -1.280776,2.4263703 -2.101572,3.6301043 -0.09279,0.01322 -0.617023,-0.09961 -1.164981,-0.250726 -1.354197,-0.373454 -1.973194,-0.461363 -3.248578,-0.461355 -1.290689,7e-6 -2.263883,0.150731 -3.450844,0.53445 -0.462926,0.149653 -0.891156,0.253112 -0.951622,0.229908 -0.755956,-1.172917 -1.417972,-2.554273 -2.185976,-3.7791716 -0.222933,-0.1193095 -0.630204,-0.095693 -0.851615,0.049382 -0.278086,0.1822086 -0.461227,0.6035843 -0.401261,0.9232316 0.02685,0.14313 0.43037,0.98806 0.896707,1.877623 0.466335,0.889565 0.847885,1.680944 0.847885,1.75862 0,0.08799 -0.270798,0.341835 -0.718404,0.673421 -0.906701,0.671679 -2.150515,1.961674 -2.727364,2.828625 -0.967432,1.45396 -1.709691,3.687436 -1.761411,5.30013 -0.0083,0.256295 -0.01077,0.509678 -0.0057,0.563073 l 22.724291,0.02279 z M 18.441413,18.891175 c -0.249432,-0.135329 -0.525402,-0.632925 -0.522962,-0.942939 0.0025,-0.315453 0.26519,-0.844573 0.493653,-0.994267 0.706282,-0.462774 1.601024,0.08029 1.601024,0.971756 0,0.834543 -0.850297,1.356852 -1.571715,0.96545 z m 10.449327,-0.03033 c -0.352617,-0.215003 -0.5145,-0.566613 -0.470707,-1.02238 0.09817,-1.021666 1.224516,-1.420706 1.817116,-0.643765 0.388933,0.509916 0.325464,1.23157 -0.142984,1.625742 -0.290888,0.244766 -0.838128,0.263138 -1.203425,0.04041 z M 7,5 h 34 c 1.108,0 2,0.892 2,2 v 34 c 0,1.108 -0.892,2 -2,2 H 7 C 5.892,43 5,42.108 5,41 V 7 C 5,5.892 5.892,5 7,5 Z" />
</svg>
