<?xml version="1.0" encoding="UTF-8" standalone="no"?>
<svg
   xmlns:dc="http://purl.org/dc/elements/1.1/"
   xmlns:cc="http://creativecommons.org/ns#"
   xmlns:rdf="http://www.w3.org/1999/02/22-rdf-syntax-ns#"
   xmlns:svg="http://www.w3.org/2000/svg"
   xmlns="http://www.w3.org/2000/svg"
   xmlns:sodipodi="http://sodipodi.sourceforge.net/DTD/sodipodi-0.dtd"
   xmlns:inkscape="http://www.inkscape.org/namespaces/inkscape"
   inkscape:version="1.0 (4035a4f, 2020-05-01)"
   sodipodi:docname="maybe victory.svg"
   id="svg8"
   version="1.1"
   viewBox="0 0 12.964583 12.964586"
   height="49.000011"
   width="49">
  <path
     d="M 6.3152783,0.26458333 A 6.0505573,6.1934256 0 0 0 0.26458333,6.4580233 6.0505573,6.1934256 0 0 0 6.3152783,12.651463 a 6.0505573,6.1934256 0 0 0 2.061975,-0.37066 2.8443929,2.8772409 0 0 0 1.478424,0.4192 A 2.8443929,2.8772409 0 0 0 12.7,9.8225933 2.8443929,2.8772409 0 0 0 12.145026,8.1152833 6.0505573,6.1934256 0 0 0 12.365703,6.4580233 6.0505573,6.1934256 0 0 0 6.3152783,0.26458333 Z M 4.3983743,1.3709733 a 0.58797413,0.60790166 0 0 1 5.55e-4,0 0.58797413,0.60790166 0 0 1 0.570697,0.46187 0.58797413,0.60790166 0 0 1 0.0015,0.006 0.58784676,0.62055188 0 0 1 1.37e-4,5.4e-4 0.58784676,0.62055188 0 0 1 0.01969,0.15915 0.58784676,0.62055188 0 0 1 -0.006,0.0886 4.3340704,4.4301324 0 0 0 -0.0077,0.003 0.58797413,0.60790166 0 0 1 -0.57808,0.49782 0.58797413,0.60790166 0 0 1 -0.301209,-0.086 4.3340704,4.4301324 0 0 0 -2.10012,3.79635 4.3340704,4.4301324 0 0 0 4.333957,4.4300797 4.3340704,4.4301324 0 0 0 0.800125,-0.0762 2.8443929,2.8772409 0 0 0 0.188272,0.47526 4.631306,4.9166469 0 0 1 -1.211397,0.17132 4.631306,4.9166469 0 0 1 -4.631338,-4.9166797 4.631306,4.9166469 0 0 1 2.346364,-4.27626 0.58797413,0.60790166 0 0 1 -0.01272,-0.12593 0.58797413,0.60790166 0 0 1 0.587513,-0.60789 z m 1.982396,2.8472 a 2.013781,2.0998323 0 0 1 0.0019,0 l 1.38e-4,1.3e-4 a 2.013781,2.0998323 0 0 1 1.38e-4,0 2.013781,2.0998323 0 0 1 0.0062,0 2.013781,2.0998323 0 0 1 2.013845,2.09999 2.013781,2.0998323 0 0 1 -2.013845,2.09971 2.013781,2.0998323 0 0 1 -1.090667,-0.33471 c 6.88e-4,-0.022 1.95e-4,-0.0428 0.0014,-0.0652 -0.02282,0.007 -0.04424,0.0125 -0.06686,0.0193 a 2.013781,2.0998323 0 0 1 -0.857412,-1.71934 2.013781,2.0998323 0 0 1 2.005367,-2.09984 z m -1.7542,0.0306 c 0.0064,0.0306 0.01267,0.061 0.01778,0.0919 -0.01377,0.0114 -0.02734,0.0246 -0.04102,0.0376 0.008,-0.0431 0.01564,-0.0862 0.02324,-0.12948 z m -0.478816,0.94766 c -0.0014,0.004 -0.0023,0.009 -0.0037,0.0131 2.1e-4,-0.004 3.44e-4,-0.008 5.55e-4,-0.0123 9.79e-4,-2.6e-4 0.0021,-2.9e-4 0.0031,-8.2e-4 z m -0.445455,0.36287 c -8.47e-4,0.0133 -0.0016,0.0264 -0.0023,0.0397 3.18e-4,-0.005 1.42e-4,-0.01 4.24e-4,-0.0141 5.02e-4,-0.009 0.0013,-0.0171 0.0019,-0.0256 z m 5.618777,3.32245 0.9125137,0.59299 0.912512,0.5929797 -0.911419,0.60447 -0.9112817,0.6046 -0.0011,-1.19758 z"
     style="display:inline;fill:#ffffff;stroke-width:0.0706206"
     id="path1475" />
  <defs
     id="defs2" />
  <sodipodi:namedview
     lock-margins="false"
     units="px"
     inkscape:window-maximized="1"
     inkscape:window-y="27"
     inkscape:window-x="72"
     inkscape:window-height="848"
     inkscape:window-width="1296"
     showgrid="false"
     inkscape:document-rotation="0"
     inkscape:current-layer="svg8"
     inkscape:document-units="px"
     inkscape:cy="183.50108"
     inkscape:cx="-269.754"
     inkscape:zoom="1.0189538"
     inkscape:pageshadow="2"
     inkscape:pageopacity="0"
     borderopacity="1.0"
     bordercolor="#666666"
     pagecolor="#ffffff"
     id="base"
     fit-margin-top="1"
     fit-margin-left="1"
     fit-margin-right="1"
     fit-margin-bottom="1"
     inkscape:pagecheckerboard="true" />
  <g
     inkscape:groupmode="layer"
     id="layer2"
     inkscape:label="Ultimate layer" />
  <metadata
     id="metadata5">
    <rdf:RDF>
      <cc:Work
         rdf:about="">
        <dc:format>image/svg+xml</dc:format>
        <dc:type
           rdf:resource="http://purl.org/dc/dcmitype/StillImage" />
        <dc:title></dc:title>
      </cc:Work>
    </rdf:RDF>
  </metadata>
</svg>
