<svg xmlns="http://www.w3.org/2000/svg" viewBox="0 0 48 48"><defs><style>.cls-1{fill:#2b2b2b;}.cls-2{fill:#fff;}</style></defs><title>musicplayergo</title><g id="Layer_2" data-name="Layer 2"><rect class="cls-1" x="-58.5" y="-187.44" width="674.7" height="426.15"/><rect class="cls-1" x="-3.15" y="-187.44" width="674.7" height="426.15"/><rect class="cls-1" x="-58.5" y="-134.04" width="674.7" height="426.15"/><rect class="cls-1" x="-3.15" y="-134.04" width="674.7" height="426.15"/><rect class="cls-1" x="-58.5" y="-242.5" width="674.7" height="426.15"/><rect class="cls-1" x="-3.15" y="-242.5" width="674.7" height="426.15"/><rect class="cls-1" x="-57.66" y="-189.59" width="674.7" height="426.15"/></g><g id="Layer_1" data-name="Layer 1"><path class="cls-2" d="M19.32,17.45V30.57a.94.94,0,0,0,1.46.78l9.67-6.52a.93.93,0,0,0,0-1.55l-9.66-6.61A.94.94,0,0,0,19.32,17.45Z"/><path class="cls-2" d="M24,2A22,22,0,1,0,46,24,22,22,0,0,0,24,2ZM37,24A13,13,0,1,1,24,11,13,13,0,0,1,37,24ZM24,42.33A18.32,18.32,0,0,1,21.24,5.9a2.88,2.88,0,1,1,.17,2A16.32,16.32,0,1,0,40.33,24a1,1,0,0,1,2,0A18.35,18.35,0,0,1,24,42.33Z"/></g></svg>