<?xml version="1.0" encoding="UTF-8" standalone="no"?>
<!-- Created with Inkscape (http://www.inkscape.org/) -->

<svg
   xmlns:dc="http://purl.org/dc/elements/1.1/"
   xmlns:cc="http://creativecommons.org/ns#"
   xmlns:rdf="http://www.w3.org/1999/02/22-rdf-syntax-ns#"
   xmlns:svg="http://www.w3.org/2000/svg"
   xmlns="http://www.w3.org/2000/svg"
   xmlns:sodipodi="http://sodipodi.sourceforge.net/DTD/sodipodi-0.dtd"
   xmlns:inkscape="http://www.inkscape.org/namespaces/inkscape"
   id="SVGRoot"
   version="1.1"
   viewBox="0 0 48 48"
   height="48px"
   width="48px"
   sodipodi:docname="musicpiped.svg"
   inkscape:version="0.92.4 (5da689c313, 2019-01-14)">
  <defs
     id="defs3732" />
  <sodipodi:namedview
     id="base"
     pagecolor="#000000"
     bordercolor="#666666"
     borderopacity="1.0"
     inkscape:pageopacity="0"
     inkscape:pageshadow="2"
     inkscape:zoom="10.666667"
     inkscape:cx="-0.90549641"
     inkscape:cy="12.319559"
     inkscape:document-units="px"
     inkscape:current-layer="layer2"
     showgrid="false"
     inkscape:window-width="1920"
     inkscape:window-height="1023"
     inkscape:window-x="0"
     inkscape:window-y="25"
     inkscape:window-maximized="1"
     inkscape:grid-bbox="true" />
  <metadata
     id="metadata3735">
    <rdf:RDF>
      <cc:Work
         rdf:about="">
        <dc:format>image/svg+xml</dc:format>
        <dc:type
           rdf:resource="http://purl.org/dc/dcmitype/StillImage" />
        <dc:title></dc:title>
      </cc:Work>
    </rdf:RDF>
  </metadata>
  <g
     inkscape:groupmode="layer"
     id="layer2"
     inkscape:label="Layer 2"
     style="display:inline">
    <path
       style="fill:#ffffff;fill-opacity:1"
       d="M 6.2119532,3.0065554 C 5.3495633,3.0439966 4.8389373,3.3229309 4.1533594,4.0085086 L 3.21,4.9518679 v 4.2246094 4.2265577 l 4.0664063,2.070313 c 3.9452347,2.008231 7.3614327,3.771667 15.4003897,7.951171 2.126667,1.105667 4.047578,1.951365 4.267578,1.878907 0.22,-0.07246 2.954496,-1.582827 6.078125,-3.357422 3.12363,-1.774594 5.58376,-3.318742 5.466797,-3.429688 C 37.961619,18.015777 7.8028741,3.0974231 7.21,3.0436648 6.8248748,3.0087439 6.4994165,2.994075 6.2119532,3.0065554 Z M 3.4111719,15.334676 c -0.11,-9.27e-4 -0.197602,0.989218 -0.1933593,2.199218 l 0.00781,2.199219 5.4882813,2.666016 c 3.0184511,1.466667 6.9459231,3.39975 8.7265621,4.294922 1.78064,0.895173 3.454156,1.644522 3.71875,1.666015 0.264594,0.02149 1.164594,-0.335073 2,-0.792968 0.835405,-0.457896 1.613188,-0.918673 1.730469,-1.025391 0.11728,-0.106719 -1.381418,-1.010417 -3.332032,-2.007813 C 19.607038,23.536499 16.1513,21.759408 13.877966,20.584676 7.04433,17.053432 3.6223945,15.336456 3.4111695,15.334676 Z m 35.8261711,3.455078 -1.679688,1.019531 c -0.924187,0.561296 -3.570859,2.075807 -5.880859,3.365234 -2.31,1.289427 -4.199219,2.423767 -4.199219,2.521485 0,0.179235 8.479747,4.526287 8.884766,4.554687 0.119922,0.0084 1.876166,-0.826378 3.904297,-1.855469 4.098165,-2.079443 4.644531,-2.612502 4.644531,-4.529296 0,-1.747679 -0.614624,-2.465097 -3.30664,-3.855469 z M 3.4014063,21.518269 C 3.2202016,21.565929 3.2100001,21.934132 3.21,22.875691 v 1.410157 l 3.1347657,1.492187 c 8.6995083,4.141516 10.1992183,4.907104 10.1992183,5.205078 0,0.190328 0.603296,-0.02356 1.466797,-0.519531 0.806665,-0.463325 1.465126,-0.907232 1.46289,-0.986328 -0.0022,-0.07909 -3.392106,-1.797099 -7.533203,-3.81836 -4.1410964,-2.02126 -7.7375101,-3.79152 -7.9921867,-3.933593 -0.2664892,-0.148663 -0.4381522,-0.23563 -0.546875,-0.207032 z m 22.1542957,5.087891 -1.697265,0.962891 c -0.934161,0.530068 -1.70267,1.057504 -1.707032,1.171875 -0.0044,0.114373 1.94038,1.15259 4.320313,2.30664 l 4.326172,2.097656 1.833984,-0.923828 c 1.008432,-0.50784 1.778284,-0.977573 1.710938,-1.044922 -0.06735,-0.06735 -2.072585,-1.122396 -4.455078,-2.345703 z m -5.441406,3.080078 -5.585937,3.251953 c -3.071834,1.788472 -6.2441142,3.640727 -7.0507808,4.117188 -0.8066667,0.476459 -2.0973366,1.213794 -2.8671875,1.638672 l -1.3984375,0.773437 -0.00195,1.65625 c -2.51e-4,1.53587 0.068177,1.726381 0.9238282,2.582031 0.9341605,0.93416 1.8606233,1.237847 3.0761718,1.007813 0.3666667,-0.06939 5.4078358,-2.495444 11.2011708,-5.390625 l 10.533203,-5.263672 -4.416015,-2.1875 z"
       id="rect989"
       inkscape:connector-curvature="0" />
  </g>
</svg>
