<?xml version="1.0" encoding="utf-8"?>
<!-- Generator: Adobe Illustrator 21.1.0, SVG Export Plug-In . SVG Version: 6.00 Build 0)  -->
<svg version="1.0" id="Layer_1" xmlns="http://www.w3.org/2000/svg" xmlns:xlink="http://www.w3.org/1999/xlink" x="0px" y="0px"
	 viewBox="0 0 48 48" style="enable-background:new 0 0 48 48;" xml:space="preserve">
<style type="text/css">
	.st0{fill:#FFFFFF;}
</style>
<g>
	<path class="st0" d="M24,12.3c0.3-0.3,0.2-0.7,0.2-1.1c0-2.7,0.1-5.5,0.2-8.2c0-0.8,0.3-1,1.1-1c4.8,0.3,9,1.9,12.7,5.1
		c4,3.5,6.8,7.8,7.6,13.1c1.1,7-0.6,13.3-5.5,18.6c-3.2,3.5-7.1,5.9-11.7,6.8c-5.4,1-10.6,0.4-15.5-2.4c-1-0.6-0.4-1.1-0.4-1.7
		c0,0,0,0,0,0c0.4,0,0.5-0.3,0.4-0.6c0,0,0,0,0,0c0.1-0.1,0.1-0.1,0.2-0.2c0,0,0,0,0,0c0.2-0.1,0.3-0.2,0.2-0.4l0,0
		c0.1-0.1,0.1-0.1,0.2-0.2l0,0c0.2-0.1,0.3-0.2,0.2-0.4l0,0c0.2-0.1,0.2-0.2,0.2-0.4c0,0,0,0,0,0c0.1-0.1,0.1-0.2,0.2-0.2
		c0,0,0,0,0,0c0.2-0.1,0.2-0.2,0.2-0.4l0,0c0.1-0.1,0.1-0.1,0.2-0.2c0.8-1.2,1.6-2.4,2.4-3.6c0.4-0.6,0.8-0.7,1.5-0.4
		c4.9,2.4,9.9,1.6,13.7-2.3c3.3-3.3,4.1-8.2,2.3-12.6c-1.6-3.6-5.9-7.2-10.6-6.8C24,12.5,24,12.4,24,12.3z"/>
	<path class="st0" d="M24,12.5c0.1,0.3,0.1,0.6,0.2,1c-1.8,0-3.6,0.3-5.3,1.2c-6.7,3.9-7.4,12.8-1.3,17.6c0.2,0.2,0.6,0.3,0.6,0.7
		c-0.5,0.7-1,0.4-1.4,0c-3.8-3.1-5.3-7.9-3.7-12.7c0.3-0.8,0.2-1.1-0.6-1.5c-1.7-0.7-3.4-1.4-5-2.2c-0.3-0.1-0.5-0.1-0.7-0.1
		c-0.1-0.4-0.3-0.5-0.7-0.5c0,0,0,0,0,0c-0.1-0.3-0.2-0.2-0.4-0.2c0,0,0,0,0,0c-0.7-0.4-0.7-0.8-0.3-1.5c2.2-4.3,5.5-7.5,9.9-9.5
		c0.5-0.2,1-0.4,1.6-0.1c0,0.4-0.1,0.8,0.1,1.1c0.9,2.2,1.9,4.3,2.6,6.5c0.2,0.7,0.5,0.6,1,0.5c1.2-0.4,2.4-0.5,3.5-0.7
		c0,0,0,0.1,0,0.1C24,12.4,24,12.5,24,12.5z"/>
	<path class="st0" d="M23.9,3.3c0,0,0-0.1-0.1-0.1c0,0,0,0,0-0.1C23.9,3.2,23.9,3.2,23.9,3.3z"/>
	<path class="st0" d="M18.2,33c0-0.4-0.3-0.5-0.6-0.7c-6.1-4.9-5.4-13.8,1.3-17.6c1.6-0.9,3.4-1.2,5.3-1.2
		c5.4-0.1,10.7,4.8,10.3,11.2c-0.3,5.6-5.5,10.2-11,9.8c-1.6-0.1-3.1-0.4-4.5-1.2C18.7,33.1,18.5,33,18.2,33z M26.4,25.3
		c0-1-0.6-1.6-1.4-2.1c-0.6-0.3-1.2-0.5-1.7-0.9c-0.4-0.3-0.4-0.7-0.3-1.2c0.1-0.4,0.4-0.7,0.9-0.7c0.4,0,0.8,0,1.3,0.1
		c0.3,0,0.7,0.4,0.9-0.2c0.2-0.6-0.3-0.6-0.7-0.7c-0.5-0.1-1-0.1-0.9-0.9c0-0.2,0-0.5-0.3-0.5c-0.4,0-0.5,0.2-0.5,0.5
		c0,0.5-0.1,0.7-0.6,1c-1.6,0.8-1.7,2.6-0.2,3.6c0.5,0.3,1.1,0.5,1.6,0.8c0.5,0.3,0.9,0.8,0.7,1.4c-0.2,0.7-0.7,0.9-1.4,1
		c-0.5,0-1-0.1-1.5-0.3c-0.3-0.1-0.5-0.2-0.6,0.2c-0.1,0.3-0.1,0.6,0.3,0.7c0.2,0.1,0.4,0.1,0.6,0.2c0.5,0.1,1,0.2,0.8,0.9
		c-0.1,0.3,0,0.6,0.4,0.5c0.4,0,0.4-0.3,0.4-0.6c-0.1-0.6,0.2-0.8,0.7-1C25.9,26.9,26.3,26.3,26.4,25.3z"/>
</g>
</svg>
