<?xml version="1.0" encoding="UTF-8" standalone="no"?>
<svg
   xmlns:dc="http://purl.org/dc/elements/1.1/"
   xmlns:cc="http://creativecommons.org/ns#"
   xmlns:rdf="http://www.w3.org/1999/02/22-rdf-syntax-ns#"
   xmlns:svg="http://www.w3.org/2000/svg"
   xmlns="http://www.w3.org/2000/svg"
   xmlns:sodipodi="http://sodipodi.sourceforge.net/DTD/sodipodi-0.dtd"
   xmlns:inkscape="http://www.inkscape.org/namespaces/inkscape"
   width="48"
   height="48"
   viewBox="0 0 48 48"
   version="1.1"
   id="svg994"
   sodipodi:docname="myandroidtools.svg"
   inkscape:version="0.92.4 5da689c313, 2019-01-14">
  <metadata
     id="metadata1000">
    <rdf:RDF>
      <cc:Work
         rdf:about="">
        <dc:format>image/svg+xml</dc:format>
        <dc:type
           rdf:resource="http://purl.org/dc/dcmitype/StillImage" />
        <dc:title></dc:title>
      </cc:Work>
    </rdf:RDF>
  </metadata>
  <defs
     id="defs998" />
  <sodipodi:namedview
     pagecolor="#ffffff"
     bordercolor="#666666"
     borderopacity="1"
     objecttolerance="10"
     gridtolerance="10"
     guidetolerance="10"
     inkscape:pageopacity="0"
     inkscape:pageshadow="2"
     id="namedview996"
     showgrid="true"
     inkscape:snap-global="true"
     inkscape:zoom="13.906434"
     inkscape:cx="30.910991"
     inkscape:cy="19.153795"
     inkscape:window-x="0"
     inkscape:window-y="44"
     inkscape:window-maximized="0"
     inkscape:current-layer="svg994"
     inkscape:snap-object-midpoints="true"
     inkscape:snap-grids="false">
    <inkscape:grid
       type="xygrid"
       id="grid1548" />
  </sodipodi:namedview>
  <path
     style="fill:#ffffff;fill-opacity:1"
     d="M 24 2 A 22 22 0 0 0 2 24 A 22 22 0 0 0 3.1894531 31.052734 C 9.6116364 31.691524 17.135789 30.793094 17.234375 19.798828 C 17.365059 5.2250871 22.943866 3.562891 27.84375 2.359375 A 22 22 0 0 0 24 2 z M 28.310547 2.4296875 C 24.539154 7.6744395 21.53683 14.65223 31.021484 20.242188 C 43.615443 27.66467 42.218819 33.338506 40.806641 38.193359 A 22 22 0 0 0 46 24 A 22 22 0 0 0 28.310547 2.4296875 z M 24 20.78125 A 3.2182519 3.2182519 0 0 0 20.78125 24 A 3.2182519 3.2182519 0 0 0 24 27.21875 A 3.2182519 3.2182519 0 0 0 27.21875 24 A 3.2182519 3.2182519 0 0 0 24 20.78125 z M 30.791016 29.859375 C 28.803876 29.803697 26.478457 30.41285 23.744141 31.958984 C 11.057216 39.13288 6.8282109 35.131982 3.3359375 31.490234 A 22 22 0 0 0 24 46 A 22 22 0 0 0 40.517578 38.503906 C 38.619071 34.300055 35.76286 29.998681 30.791016 29.859375 z "
     id="circle992" />
</svg>
