<?xml version="1.0" encoding="utf-8"?>
<!-- Generator: Adobe Illustrator 21.1.0, SVG Export Plug-In . SVG Version: 6.00 Build 0)  -->
<svg version="1.0" id="Layer_1" xmlns="http://www.w3.org/2000/svg" xmlns:xlink="http://www.w3.org/1999/xlink" x="0px" y="0px"
	 viewBox="0 0 48 48" style="enable-background:new 0 0 48 48;" xml:space="preserve">
<style type="text/css">
	.st0{fill:#FFFFFF;}
</style>
<path class="st0" d="M38,4H10C8.9,4,8,4.9,8,6v36c0,1.1,0.9,2,2,2h28c1.1,0,2-0.9,2-2V6C40,4.9,39.1,4,38,4z M11.1,16.2
	c0.6-0.4,1.1-0.9,2-1.1c0.5,0.4,1.3,0.3,1.7,1c0.4,0.8,0.8,0.6,1.3,0c1.6-2,3.7-3.5,6-4.8c1-0.5,1.7,0,2.5,0.2
	c0.4,0.1,0.3,0.4,0,0.6c-0.5,0.4-1.1,0.9-1.6,1.3c-2.5,2.3-4.5,5-6.3,7.8c-0.6,0.9-1.7,1-2.5,0.2c-1.2-1.3-2.3-2.6-3.4-3.9
	C10.5,17,10.5,16.5,11.1,16.2z M16.3,36.1c-0.2,0.4-0.3,0.8-0.8,0.8c-0.4,0-0.7-0.3-0.9-0.5c-1.1-1.4-2.3-2.7-3.4-4.1
	c-0.8-0.9,0.2-1.3,0.6-1.7c0.4-0.4,1.1-0.9,1.7-0.2c0.3,0.3,0.6,0.7,0.9,1c0.6,0.9,0.7,0.9,1.5,0.1c1.9-2.1,3.9-4.1,6.5-5.2
	c0.4-0.2,0.8-0.6,1.1,0c0.3,0.4,0.2,0.9-0.3,1.3c-1.3,1-2.5,2.3-3.5,3.6C18.4,32.6,17.2,34.3,16.3,36.1z M35.5,36.9
	c-4.4,0-8.8,0-13.2,0c-1.2,0-1.6-0.4-1.6-1.6c0-0.3,0-0.7,0-1c0.1-1.1,0.5-1.5,1.6-1.5c2.3,0,4.5,0,6.8,0c0,0,0,0,0,0
	c2.2,0,4.3,0,6.5,0c1.3,0,1.8,0.5,1.8,1.6C37.4,36.4,37,36.9,35.5,36.9z M35.6,22.1c-4.5,0-8.9,0-13.4,0c-1.2,0-1.5-0.4-1.6-1.5
	c0-0.3,0-0.7,0-1c0.1-1.2,0.5-1.6,1.7-1.6c2.3,0,4.5,0,6.8,0c0,0,0,0,0,0c2.2,0,4.3,0,6.5,0c1.3,0,1.8,0.5,1.8,1.6
	C37.4,21.5,37,22.1,35.6,22.1z"/>
</svg>
