<?xml version="1.0" encoding="UTF-8" standalone="no"?>
<svg
   xmlns:dc="http://purl.org/dc/elements/1.1/"
   xmlns:cc="http://creativecommons.org/ns#"
   xmlns:rdf="http://www.w3.org/1999/02/22-rdf-syntax-ns#"
   xmlns:svg="http://www.w3.org/2000/svg"
   xmlns="http://www.w3.org/2000/svg"
   xmlns:sodipodi="http://sodipodi.sourceforge.net/DTD/sodipodi-0.dtd"
   xmlns:inkscape="http://www.inkscape.org/namespaces/inkscape"
   width="48"
   height="48"
   viewBox="0 0 48 48"
   version="1.1"
   id="svg4"
   sodipodi:docname="MyBoy.svg"
   inkscape:version="0.92.3 (2405546, 2018-03-11)">
  <metadata
     id="metadata10">
    <rdf:RDF>
      <cc:Work
         rdf:about="">
        <dc:format>image/svg+xml</dc:format>
        <dc:type
           rdf:resource="http://purl.org/dc/dcmitype/StillImage" />
        <dc:title />
      </cc:Work>
    </rdf:RDF>
  </metadata>
  <defs
     id="defs8" />
  <sodipodi:namedview
     pagecolor="#858585"
     bordercolor="#666666"
     borderopacity="1"
     objecttolerance="10"
     gridtolerance="10"
     guidetolerance="10"
     inkscape:pageopacity="0"
     inkscape:pageshadow="2"
     inkscape:window-width="1920"
     inkscape:window-height="1046"
     id="namedview6"
     showgrid="false"
     inkscape:zoom="5.6568543"
     inkscape:cx="41.399134"
     inkscape:cy="36.171509"
     inkscape:window-x="0"
     inkscape:window-y="0"
     inkscape:window-maximized="1"
     inkscape:current-layer="svg4"
     inkscape:snap-global="true"
     showguides="true"
     inkscape:guide-bbox="true"
     inkscape:measure-start="25.7578,30.9727"
     inkscape:measure-end="25.7578,11.9222" />
  <path
     style="color:#000000;font-style:normal;font-variant:normal;font-weight:normal;font-stretch:normal;font-size:medium;line-height:normal;font-family:sans-serif;font-variant-ligatures:normal;font-variant-position:normal;font-variant-caps:normal;font-variant-numeric:normal;font-variant-alternates:normal;font-feature-settings:normal;text-indent:0;text-align:start;text-decoration:none;text-decoration-line:none;text-decoration-style:solid;text-decoration-color:#000000;letter-spacing:normal;word-spacing:normal;text-transform:none;writing-mode:lr-tb;direction:ltr;text-orientation:mixed;dominant-baseline:auto;baseline-shift:baseline;text-anchor:start;white-space:normal;shape-padding:0;clip-rule:nonzero;display:inline;overflow:visible;visibility:visible;opacity:1;isolation:auto;mix-blend-mode:normal;color-interpolation:sRGB;color-interpolation-filters:linearRGB;solid-color:#000000;solid-opacity:1;vector-effect:none;fill:#ffffff;fill-opacity:1;fill-rule:nonzero;stroke:none;stroke-width:1;stroke-linecap:butt;stroke-linejoin:miter;stroke-miterlimit:4;stroke-dasharray:none;stroke-dashoffset:0;stroke-opacity:1;color-rendering:auto;image-rendering:auto;shape-rendering:auto;text-rendering:auto;enable-background:accumulate"
     d="M 7 4.5 C 5.6236486 4.5 4.5 5.6236486 4.5 7 L 4.5 41 C 4.5 42.376351 5.6236486 43.5 7 43.5 L 41 43.5 C 42.376351 43.5 43.5 42.376351 43.5 41 L 43.5 7 C 43.5 5.6236486 42.376351 4.5 41 4.5 L 7 4.5 z M 7 5.5 L 41 5.5 C 41.839649 5.5 42.5 6.1603514 42.5 7 L 42.5 41 C 42.5 41.839649 41.839649 42.5 41 42.5 L 7 42.5 C 6.1603514 42.5 5.5 41.839649 5.5 41 L 5.5 7 C 5.5 6.1603514 6.1603514 5.5 7 5.5 z M 29.273438 12.671875 C 26.575698 13.408063 23.885864 14.20672 21.191406 14.966797 C 18.502225 15.745334 15.796529 16.488511 13.117188 17.289062 C 12.459877 17.666542 11.851933 18.110785 11.294922 18.625 C 10.516002 19.258741 9.786134 19.9621 8.9765625 20.550781 C 8.1838708 20.997049 7.3473958 21.372656 6.5839844 21.867188 C 6.2407807 22.115084 6.4420767 22.545245 6.3984375 22.904297 C 6.6236679 24.737214 7.0113785 26.541699 7.4589844 28.332031 C 7.8497991 29.996443 8.2511816 31.664108 8.8222656 33.277344 C 9.2873878 33.943177 9.915256 34.568145 10.746094 34.710938 C 11.721427 34.811169 12.711883 34.750619 13.693359 34.787109 C 15.527794 34.792009 17.362302 34.861529 19.195312 34.888672 C 20.475254 34.834492 21.702197 34.434383 22.953125 34.191406 C 24.130426 33.965701 25.274251 33.610785 26.425781 33.283203 C 27.576508 32.952814 28.736696 32.64925 29.855469 32.21875 C 31.045876 31.764007 32.298789 31.454576 33.414062 30.824219 C 34.955906 29.83256 36.476424 28.805527 38.03125 27.832031 C 38.84522 27.282414 39.719069 26.809471 40.494141 26.208984 C 41.124048 25.64872 41.326111 24.785671 41.369141 23.974609 C 41.0015 22.303231 40.459839 20.676208 39.912109 19.056641 C 39.346056 17.30016 38.722662 15.561844 37.945312 13.886719 C 37.71853 13.604952 37.662603 13.136522 37.240234 13.107422 C 36.330791 13.090982 35.422471 13.213896 34.513672 13.253906 C 33.515288 13.181926 32.521564 12.968227 31.525391 12.841797 C 30.780776 12.699581 30.030948 12.645005 29.273438 12.671875 z M 35.515625 13.685547 C 35.610785 13.654187 35.719236 13.734442 35.759766 13.865234 L 35.802734 14.003906 C 35.843233 14.134705 35.798305 14.263512 35.703125 14.294922 L 34.111328 14.822266 C 34.016178 14.853616 33.907716 14.773369 33.867188 14.642578 L 33.824219 14.503906 C 33.783723 14.373108 33.826695 14.242346 33.921875 14.210938 L 35.515625 13.685547 z M 32.941406 14.558594 A 0.22097087 0.22097087 0 0 1 33.169922 14.71875 A 0.22097087 0.22097087 0 0 1 33.019531 14.990234 A 0.22097087 0.22097087 0 0 1 32.746094 14.839844 A 0.22097087 0.22097087 0 0 1 32.898438 14.566406 A 0.22097087 0.22097087 0 0 1 32.941406 14.558594 z M 29.576172 15.101562 C 29.671945 15.105485 29.767511 15.109381 29.863281 15.113281 C 30.251708 15.029085 30.446706 15.40399 30.710938 15.615234 C 31.043762 16.321621 31.288998 17.087195 31.587891 17.816406 C 32.678526 20.515624 33.417942 23.335407 34.169922 26.142578 C 34.415175 26.703599 34.263536 27.32959 34.027344 27.865234 C 33.7561 28.447137 33.122961 28.579991 32.611328 28.863281 C 30.545746 29.949587 28.322798 30.677441 26.144531 31.498047 C 24.945923 31.82603 23.705962 32.012478 22.490234 32.277344 C 21.076667 32.581232 19.64096 32.730123 18.203125 32.863281 C 17.413644 33.060768 16.703727 32.497104 16.271484 31.882812 C 15.856966 30.64629 15.491111 29.379395 15.128906 28.121094 C 14.503609 26.063604 14.055609 23.960474 13.673828 21.845703 C 13.629707 21.32595 13.341178 20.796871 13.521484 20.285156 C 13.527888 19.906083 13.795137 19.711033 14.099609 19.542969 C 16.447667 18.543139 18.83928 17.628127 21.275391 16.859375 C 23.994269 16.073066 26.787157 15.570679 29.576172 15.101562 z M 29.722656 16.236328 L 14.679688 20.537109 L 17.361328 29.917969 L 32.404297 25.619141 L 29.722656 16.236328 z M 37.199219 17.037109 A 0.96880466 0.96880466 0 0 1 38.109375 17.738281 A 0.96880466 0.96880466 0 0 1 37.445312 18.935547 A 0.96880466 0.96880466 0 0 1 36.246094 18.271484 A 0.96880466 0.96880466 0 0 1 36.912109 17.074219 A 0.96880466 0.96880466 0 0 1 37.199219 17.037109 z M 34.400391 19.146484 A 0.96880466 0.96880466 0 0 1 35.310547 19.847656 A 0.96880466 0.96880466 0 0 1 34.646484 21.046875 A 0.96880466 0.96880466 0 0 1 33.449219 20.380859 A 0.96880466 0.96880466 0 0 1 34.113281 19.183594 A 0.96880466 0.96880466 0 0 1 34.400391 19.146484 z M 37.451172 22.048828 C 37.528373 22.036798 37.593459 22.043866 37.630859 22.072266 L 37.710938 22.132812 C 37.785752 22.189615 37.714538 22.310617 37.552734 22.404297 L 34.845703 23.972656 C 34.683896 24.066336 34.492779 24.095872 34.417969 24.039062 L 34.339844 23.978516 C 34.265032 23.921714 34.334285 23.800701 34.496094 23.707031 L 37.205078 22.138672 C 37.285982 22.091832 37.373972 22.060858 37.451172 22.048828 z M 37.634766 22.691406 C 37.711966 22.679376 37.777053 22.686444 37.814453 22.714844 L 37.894531 22.775391 C 37.969346 22.832192 37.898132 22.953195 37.736328 23.046875 L 35.029297 24.615234 C 34.86749 24.708914 34.676372 24.738451 34.601562 24.681641 L 34.523438 24.621094 C 34.448625 24.564292 34.517879 24.443279 34.679688 24.349609 L 37.388672 22.78125 C 37.469575 22.73441 37.557566 22.703436 37.634766 22.691406 z M 37.818359 23.335938 C 37.89556 23.323897 37.9626 23.329022 38 23.357422 L 38.078125 23.417969 C 38.152939 23.47477 38.083678 23.595773 37.921875 23.689453 L 35.212891 25.257812 C 35.051085 25.351494 34.859966 25.381029 34.785156 25.324219 L 34.707031 25.263672 C 34.63222 25.20687 34.701473 25.085856 34.863281 24.992188 L 37.572266 23.423828 C 37.653169 23.376988 37.741159 23.347967 37.818359 23.335938 z M 38.001953 23.978516 C 38.079154 23.966476 38.146194 23.9716 38.183594 24 L 38.261719 24.060547 C 38.336534 24.117348 38.267273 24.238351 38.105469 24.332031 L 35.396484 25.900391 C 35.234677 25.994071 35.04356 26.023607 34.96875 25.966797 L 34.890625 25.90625 C 34.815813 25.849448 34.885067 25.728436 35.046875 25.634766 L 37.755859 24.068359 C 37.836762 24.021519 37.924753 23.990546 38.001953 23.978516 z M 10.607422 24.105469 C 10.767807 24.061888 10.934966 24.156012 10.978516 24.316406 L 11.210938 25.179688 L 12.076172 24.945312 C 12.236556 24.901732 12.399809 24.99781 12.443359 25.158203 L 12.6875 26.048828 C 12.731082 26.209212 12.635002 26.374419 12.474609 26.417969 L 11.611328 26.652344 L 11.845703 27.517578 C 11.889284 27.677964 11.795158 27.841216 11.634766 27.884766 L 10.744141 28.126953 C 10.583758 28.170534 10.416597 28.07641 10.373047 27.916016 L 10.138672 27.052734 L 9.2753906 27.287109 C 9.1150059 27.330689 8.9517541 27.236565 8.9082031 27.076172 L 8.6660156 26.183594 C 8.6224345 26.02321 8.714607 25.858003 8.875 25.814453 L 9.7382812 25.582031 L 9.5039062 24.716797 C 9.4603253 24.556412 9.5564039 24.393159 9.7167969 24.349609 L 10.607422 24.105469 z M 38.185547 24.621094 C 38.262747 24.609064 38.329788 24.616131 38.367188 24.644531 L 38.445312 24.703125 C 38.520128 24.759926 38.450866 24.880929 38.289062 24.974609 L 35.580078 26.542969 C 35.418271 26.636649 35.229107 26.666185 35.154297 26.609375 L 35.074219 26.548828 C 34.999407 26.492026 35.070614 26.371014 35.232422 26.277344 L 37.939453 24.710938 C 38.020356 24.664096 38.108347 24.633124 38.185547 24.621094 z M 14.564453 29.832031 C 14.734187 29.824298 14.876866 29.951268 14.884766 30.117188 L 14.894531 30.292969 C 14.902415 30.458888 14.771298 30.597769 14.601562 30.605469 L 11.761719 30.734375 C 11.591985 30.742108 11.449306 30.615138 11.441406 30.449219 L 11.431641 30.275391 C 11.423757 30.109471 11.554876 29.968637 11.724609 29.960938 L 14.564453 29.832031 z M 15.091797 31.654297 C 15.261531 31.646563 15.404209 31.773534 15.412109 31.939453 L 15.421875 32.115234 C 15.429759 32.281154 15.29864 32.420034 15.128906 32.427734 L 12.289062 32.558594 C 12.119332 32.566327 11.97665 32.437404 11.96875 32.271484 L 11.958984 32.097656 C 11.9511 31.931737 12.082219 31.790903 12.251953 31.783203 L 15.091797 31.654297 z "
     id="rect1140" />
</svg>
