<?xml version="1.0" encoding="UTF-8"?>
<svg version="1.1" viewBox="0 0 48 48" xmlns="http://www.w3.org/2000/svg">
    <defs>
        <style>.cls-1{fill:#fff;}</style>
    </defs>
    <path class="cls-1" d="m26.213 12.356c-1.8102 0.51655-5.541 1.5499-8.29 2.2955-2.7491 0.74559-5.353 1.4932-5.787 1.663-0.43398 0.16985-1.5986 0.97693-2.588 1.7927-0.98932 0.81577-2.6578 1.9475-3.7078 2.5165-2.2303 1.2087-2.1388 0.82075-1.2699 5.4165 0.77768 4.1131 1.7515 7.9358 2.2461 8.8227 0.57625 1.0333 1.8319 1.4542 4.4411 1.4927 1.1458 0.01692 2.8697 0.1183 3.8306 0.22416 2.1552 0.23743 5.1533-0.08493 8.9329-0.96123 5.877-1.3626 11.45-3.4865 13.688-5.2156 0.71581-0.55305 2.1238-1.5132 3.1298-2.1328 1.006-0.61967 2.1463-1.498 2.5322-1.953 0.63597-0.74974 0.69141-0.95029 0.58559-2.1358-0.21324-2.3889-2.9225-10.495-3.9923-11.945-0.30492-0.41323-0.63644-0.4583-3.0747-0.42317-1.5026 0.02165-3.2618-0.09311-3.9083-0.25344-1.701-0.42187-3.0661-0.26028-6.7687 0.79624zm-4.596 3.42c2.1627-0.59273 4.3697-1.0747 6.8799-1.5165 2.4752-0.43568 2.4748-0.43544 3.0416 0.08125 0.84843 0.77342 2.2841 4.6818 3.9088 10.643 0.91032 3.3402 0.8221 3.7129-1.1648 4.8853-3.174 1.873-7.5139 3.2435-12.895 4.0711-3.689 0.56742-4.3671 0.5831-5.2398 0.12667-0.54766-0.28645-0.86219-0.67573-1.1022-1.37-0.76353-2.2087-1.8113-6.4041-2.3868-9.5585-0.7483-4.1013-0.79899-3.9884 2.3394-5.1794 2.3364-0.88664 4.4559-1.5904 6.6186-2.1833zm14.31-2.6639 1.6892-0.4609c0.15444-0.04212 0.31861 0.06639 0.36636 0.24141s-0.03916 0.34965-0.1936 0.39178l-1.6892 0.46089c-0.15443 0.04214-0.318-0.06415-0.36575-0.23917s0.03855-0.35188 0.193-0.39402zm-1.3302 0.43746c0.11508-0.08203 0.27599-0.05409 0.35801 0.06097 0.08203 0.11508 0.05633 0.27538-0.05874 0.35739-0.11508 0.08203-0.27822 0.0547-0.36024-0.06038-0.08203-0.11508-0.0541-0.27598 0.06097-0.35801zm-18.025 5.8073c-1.5839 0.43938-2.6531 0.75121-2.6936 0.79744-0.06974 0.07954 0.4449 2.2757 1.1441 4.8804 1.6938 6.3102 1.5125 5.8203 2.078 5.6689 0.2648-0.07086 4.0871-1.0851 8.4934-2.2548 6.4263-1.7059 8.0066-2.1996 7.9877-2.4871-0.03058-0.46519-2.6605-10.204-2.7843-10.311-0.0945-0.08117-9.4735 2.3876-14.225 3.7057zm-8.5841 4.7509c0.59515-0.16238 0.57079-0.15475 0.72926 0.42606 0.31256 1.1456 0.31167 1.1458 1.4514 0.83483 0.5809-0.15849 0.58186-0.15822 0.73984 0.42077 0.15797 0.57899 0.15362 0.56629-0.42728 0.72478-1.1397 0.31096-1.1388 0.31072-0.82629 1.4563 0.14517 0.53207 0.16989 0.52579-0.42525 0.68817s-0.59527 0.16195-0.74044-0.37012c-0.31255-1.1456-0.31255-1.1456-1.4402-0.83789-0.56919 0.1553-0.56478 0.16798-0.72275-0.41101s-0.14022-0.58437 0.4102-0.73455c1.1268-0.30743 1.1277-0.30767 0.8151-1.4532-0.15847-0.58081-0.15871-0.58173 0.43643-0.74411zm31.251-7.7212c0.63267-0.17262 1.2855 0.20033 1.4581 0.833 0.17262 0.63267-0.20033 1.2855-0.833 1.4581-0.63267 0.17262-1.2855-0.20033-1.4581-0.833-0.17262-0.63267 0.20033-1.2855 0.833-1.4581zm-3.2471 2.3812c0.63267-0.17262 1.2855 0.20033 1.4581 0.833 0.17262 0.63267-0.20033 1.2855-0.833 1.4581-0.63267 0.17262-1.2855-0.20033-1.4581-0.833-0.17262-0.63267 0.20033-1.2855 0.833-1.4581zm3.9623 3.4648c0.11095-0.03421 0.17876-0.04271 0.19201-0.01874 0.05307 0.09606-0.7842 0.66098-1.8763 1.2644-1.0921 0.6034-2.0147 1.0112-2.0677 0.91514-0.05308-0.09606 0.78484-0.6587 1.8769-1.2621 0.81907-0.45255 1.5422-0.79602 1.8751-0.89865zm-29.989 8.627c0.05878-0.02687 0.12313-0.04315 0.19201-0.04517l3.2476-0.09758c0.2755-0.0082 0.50339 0.20752 0.51162 0.48304 0.0082 0.2755-0.20529 0.50278-0.4808 0.51101l-3.2476 0.09758c-0.2755 0.0082-0.50339-0.20752-0.51162-0.48304-0.0062-0.20662 0.11243-0.3852 0.28879-0.46584zm30.234-7.8283c0.11095-0.03421 0.17651-0.0421 0.18978-0.01812 0.05308 0.09606-0.78258 0.65812-1.8747 1.2615-1.0921 0.6034-2.0141 1.0134-2.0671 0.91738-0.05308-0.09606 0.7842-0.66098 1.8763-1.2644 0.81907-0.45255 1.5429-0.79378 1.8757-0.89641zm0.1807 0.66228c0.11095-0.03421 0.17711-0.03993 0.19039-0.0159 0.05308 0.09606-0.78258 0.65812-1.8747 1.2615-1.0921 0.6034-2.0147 1.0112-2.0677 0.91514-0.05308-0.09606 0.78484-0.6587 1.8769-1.2621 0.81907-0.45255 1.5422-0.79602 1.8751-0.89865zm0.21976 0.80547c0.11095-0.03421 0.17652-0.0421 0.18978-0.01812 0.05308 0.09606-0.78194 0.6604-1.8741 1.2638-1.0921 0.6034-2.0147 1.0112-2.0677 0.91514-0.05308-0.09606 0.78484-0.6587 1.8769-1.2621 0.81907-0.45255 1.5422-0.79602 1.8751-0.89865zm-30.168 8.5076c0.05878-0.02686 0.12313-0.04315 0.19201-0.04517l3.2476-0.09758c0.2755-0.0082 0.50339 0.20752 0.51162 0.48304 0.0082 0.2755-0.20696 0.50561-0.48243 0.51386l-3.2482 0.09533c-0.2755 0.0082-0.50278-0.20529-0.51101-0.4808-0.0062-0.20662 0.11407-0.38805 0.29042-0.46868zm30.366-7.7827c0.11095-0.03421 0.17652-0.0421 0.18978-0.01812 0.05308 0.09606-0.78258 0.65812-1.8747 1.2615-1.0921 0.6034-2.0141 1.0134-2.0671 0.91738-0.05308-0.09606 0.7842-0.66098 1.8763-1.2644 0.81907-0.45255 1.5428-0.79378 1.8757-0.89641z"/>
</svg>
