<?xml version="1.0" encoding="UTF-8" standalone="no"?>
<svg width="48" height="48" viewBox="0 0 48 48" version="1.1" >
    <defs>
        <style>.cls-1{fill:#fff;}</style>
    </defs>
    <path
        class="cls-1"
        d="m 26.213384,12.356307 c -1.81022,0.516551 -5.540973,1.54988 -8.290016,2.295511 -2.749056,0.745591 -5.352977,1.4932 -5.786959,1.66305 -0.43398,0.16985 -1.598639,0.976926 -2.5879615,1.792696 -0.9893242,0.815771 -2.6578499,1.947519 -3.7078426,2.516536 -2.2303093,1.208655 -2.1388323,0.820753 -1.2699088,5.416455 0.7776817,4.113128 1.7515309,7.9358 2.2461369,8.822745 0.5762478,1.033341 1.8319414,1.454199 4.441143,1.492743 1.14577,0.01692 2.869745,0.118301 3.830585,0.224157 2.155183,0.237434 5.153287,-0.08493 8.932923,-0.961226 5.877039,-1.362572 11.450418,-3.486526 13.688333,-5.215583 0.715806,-0.553046 2.123759,-1.513181 3.129801,-2.132848 1.006044,-0.619667 2.146271,-1.497992 2.532212,-1.952973 0.635968,-0.749744 0.691414,-0.950286 0.585586,-2.135836 -0.21324,-2.388889 -2.92251,-10.495228 -3.992308,-11.945062 -0.30492,-0.413232 -0.63644,-0.458297 -3.074746,-0.423169 -1.502611,0.02165 -3.261827,-0.09311 -3.908288,-0.253438 -1.701044,-0.421869 -3.066132,-0.260281 -6.768691,0.79624 z m -4.596027,3.419959 c 2.162706,-0.59273 4.369717,-1.074679 6.879877,-1.516516 2.475189,-0.435677 2.474758,-0.435439 3.041555,0.08125 0.848431,0.77342 2.284065,4.681812 3.908775,10.643264 0.910318,3.340191 0.8221,3.712863 -1.164802,4.885349 -3.173962,1.872976 -7.51393,3.243474 -12.894762,4.071127 -3.688976,0.567423 -4.367118,0.583095 -5.23975,0.126668 -0.547663,-0.286453 -0.862193,-0.675733 -1.102208,-1.370031 -0.763534,-2.208723 -1.811253,-6.404122 -2.386769,-9.558454 -0.748302,-4.101326 -0.798988,-3.988397 2.339447,-5.179395 2.33642,-0.886644 4.455948,-1.590449 6.618633,-2.183255 z m 14.310011,-2.663906 1.689246,-0.460895 c 0.154435,-0.04212 0.318609,0.06639 0.366361,0.241406 0.04775,0.175023 -0.03916,0.34965 -0.193601,0.391785 l -1.689246,0.460894 c -0.154432,0.04214 -0.317996,-0.06415 -0.365751,-0.239169 -0.04775,-0.175022 0.03855,-0.351883 0.192998,-0.394019 z m -1.330238,0.437463 c 0.115077,-0.08203 0.275988,-0.05409 0.358006,0.06097 0.08203,0.115075 0.05633,0.275375 -0.05874,0.357394 -0.115076,0.08203 -0.278225,0.0547 -0.360239,-0.06038 -0.08203,-0.115076 -0.0541,-0.275983 0.06097,-0.358006 z m -18.024703,5.80734 c -1.583924,0.439384 -2.653109,0.751213 -2.693635,0.797436 -0.06974,0.07954 0.444895,2.275699 1.14407,4.880427 1.693804,6.310173 1.512531,5.820308 2.077992,5.668936 0.264802,-0.07086 4.087068,-1.085137 8.493428,-2.254849 6.426309,-1.705931 8.00664,-2.19956 7.987734,-2.487088 -0.03058,-0.465191 -2.660506,-10.204287 -2.784308,-10.310609 -0.0945,-0.08117 -9.473519,2.387579 -14.225285,3.705745 z m -8.5840884,4.750868 c 0.5951462,-0.162379 0.5707921,-0.154746 0.729259,0.426059 0.312555,1.145556 0.311669,1.145796 1.4513974,0.834833 0.580903,-0.158493 0.581863,-0.15822 0.739836,0.42077 0.157972,0.578991 0.15362,0.56629 -0.427281,0.724785 -1.1397288,0.310963 -1.1388442,0.310723 -0.8262893,1.456278 0.145171,0.532073 0.169892,0.525792 -0.4252523,0.688172 C 8.6348652,28.821307 8.6347396,28.820877 8.489568,28.288808 8.1770153,27.143249 8.1770213,27.143246 7.0493585,27.450919 6.4801651,27.606219 6.4845816,27.6189 6.3266098,27.03991 6.1686383,26.460919 6.1863925,26.45554 6.736805,26.305364 7.8635777,25.997936 7.86446,25.997695 7.5519064,24.852139 7.3934388,24.271333 7.3931944,24.270411 7.9883386,24.108031 Z M 39.239178,16.386859 c 0.632672,-0.172618 1.28549,0.200328 1.458107,0.833002 0.172621,0.632673 -0.200326,1.285489 -0.832999,1.45811 -0.632671,0.172618 -1.285491,-0.20033 -1.458109,-0.833002 -0.17262,-0.632673 0.200329,-1.285492 0.833001,-1.45811 z m -3.24714,2.381221 c 0.632671,-0.172618 1.285489,0.200331 1.458108,0.833003 0.172619,0.632674 -0.200328,1.285491 -0.833001,1.458108 -0.632673,0.17262 -1.28549,-0.200326 -1.458109,-0.833 -0.172618,-0.632673 0.200328,-1.285491 0.833002,-1.458111 z m 3.962327,3.464825 c 0.110953,-0.03421 0.178756,-0.04271 0.192014,-0.01874 0.05307,0.09606 -0.7842,0.660979 -1.876294,1.264373 -1.092091,0.603402 -2.014664,1.011208 -2.067739,0.915145 -0.05308,-0.09606 0.784843,-0.6587 1.876904,-1.262136 0.819069,-0.452553 1.54224,-0.796018 1.875116,-0.898647 z M 9.9651507,30.859916 c 0.05878,-0.02687 0.1231283,-0.04315 0.1920143,-0.04517 l 3.247586,-0.09758 c 0.275498,-0.0082 0.503392,0.207517 0.511617,0.483037 0.0082,0.275501 -0.205292,0.502779 -0.480804,0.511008 l -3.247579,0.09758 c -0.2754993,0.0082 -0.5033913,-0.207518 -0.5116203,-0.483037 -0.0062,-0.20662 0.112433,-0.385203 0.288788,-0.465836 z M 40.198742,23.031662 c 0.110953,-0.03421 0.176514,-0.0421 0.189775,-0.01812 0.05308,0.09606 -0.782581,0.658121 -1.874669,1.261525 -1.09209,0.603403 -2.014051,1.013446 -2.067128,0.917382 -0.05308,-0.09606 0.784201,-0.66098 1.876296,-1.264375 0.819068,-0.452551 1.542851,-0.793778 1.875725,-0.896408 z m 0.180695,0.662275 c 0.110954,-0.03421 0.177108,-0.03993 0.19039,-0.0159 0.05308,0.09606 -0.782583,0.65812 -1.87467,1.261524 -1.09209,0.603403 -2.014662,1.011208 -2.067738,0.915144 -0.05308,-0.09606 0.784844,-0.658701 1.876905,-1.262135 0.819068,-0.452552 1.542241,-0.796018 1.875115,-0.898646 z m 0.219764,0.805467 c 0.110954,-0.03421 0.176515,-0.0421 0.189776,-0.01812 0.05308,0.09606 -0.781937,0.660398 -1.874058,1.263763 -1.09209,0.603402 -2.014662,1.011207 -2.06774,0.915144 -0.05308,-0.09606 0.784845,-0.658701 1.876908,-1.262134 0.819067,-0.452554 1.54224,-0.796019 1.875114,-0.89865 z m -30.168427,8.507632 c 0.05878,-0.02686 0.123128,-0.04315 0.192014,-0.04517 l 3.247584,-0.09758 c 0.2755,-0.0082 0.503392,0.207519 0.511619,0.48304 0.0082,0.275499 -0.206964,0.505607 -0.482428,0.513855 l -3.248191,0.09533 c -0.275499,0.0082 -0.502778,-0.20529 -0.51101,-0.4808 -0.0062,-0.20662 0.114066,-0.388046 0.29042,-0.468679 z m 30.366216,-7.78271 c 0.110954,-0.03421 0.176515,-0.0421 0.189776,-0.01812 0.05308,0.09606 -0.782582,0.65812 -1.874669,1.261526 -1.092091,0.603401 -2.014053,1.013443 -2.06713,0.91738 -0.05308,-0.09606 0.784201,-0.660979 1.876298,-1.264373 0.819066,-0.452553 1.542849,-0.793779 1.875725,-0.89641 z"
     id="path5417" />
</svg>
