<?xml version="1.0" encoding="UTF-8"?>
<svg version="1.1" viewBox="0 0 48 48" xmlns="http://www.w3.org/2000/svg">
    <path d="m7 5c-1.108 0-2 0.892-2 2v34c0 1.108 0.892 2 2 2h34c1.108 0 2-0.892 2-2v-34c0-1.108-0.892-2-2-2zm9 3.0215h16c1.108 0 2 0.892 2 2v16c0 1.108-0.892 2-2 2h-16c-1.108 0-2-0.892-2-2v-16c0-1.108 0.892-2 2-2zm21.774 22.846c1.1046 0 2 0.89543 2 2 0 1.1046-0.89543 2-2 2-1.1046 0-2-0.89543-2-2 0-1.1046 0.89543-2 2-2zm-26.176-0.70375h1.1992c0.2216 0 0.40039 0.17879 0.40039 0.40039v2.5996h2.5996c0.2216 0 0.40039 0.17879 0.40039 0.40039v1.1992c0 0.2216-0.17879 0.40039-0.40039 0.40039h-2.5996v2.5996c0 0.2216-0.17879 0.40039-0.40039 0.40039h-1.1992c-0.2216 0-0.40039-0.17879-0.40039-0.40039v-2.5996h-2.5996c-0.2216 0-0.40039-0.17879-0.40039-0.40039v-1.1992c0-0.2216 0.17879-0.40039 0.40039-0.40039h2.5996v-2.5996c0-0.2216 0.17879-0.40039 0.40039-0.40039zm19.797 4.0358c1.1046 0 2 0.89543 2 2 0 1.1046-0.89543 2-2 2-1.1046 0-2-0.89543-2-2 0-1.1046 0.89543-2 2-2z" fill="#fff"/>
</svg>
