<svg width="48" height="48" version="1.1" viewBox="0 0 48 48" xmlns="http://www.w3.org/2000/svg">
 <path d="m7 4.5c-1.3764 0-2.5 1.1236-2.5 2.5v34c0 1.3764 1.1236 2.5 2.5 2.5h34c1.3764 0 2.5-1.1236 2.5-2.5v-34c0-1.3764-1.1236-2.5-2.5-2.5h-34zm0 1h34c0.83965 0 1.5 0.66035 1.5 1.5v34c0 0.83965-0.66035 1.5-1.5 1.5h-34c-0.83965 0-1.5-0.66035-1.5-1.5v-34c0-0.83965 0.66035-1.5 1.5-1.5zm22.273 7.1719c-2.6977 0.73619-5.3876 1.5348-8.082 2.2949-2.6892 0.77854-5.3949 1.5217-8.0742 2.3223-0.65731 0.37748-1.2653 0.82172-1.8223 1.3359-0.77892 0.63374-1.5088 1.3371-2.3184 1.9258-0.79269 0.44627-1.6292 0.82188-2.3926 1.3164-0.3432 0.2479-0.14191 0.67806-0.18555 1.0371 0.22523 1.8329 0.61294 3.6374 1.0605 5.4277 0.39081 1.6644 0.7922 3.3321 1.3633 4.9453 0.46512 0.66583 1.093 1.2908 1.9238 1.4336 0.97533 0.10023 1.9658 0.039681 2.9473 0.076171 1.8344 0.0049 3.6689 0.07442 5.502 0.10156 1.2799-0.05418 2.5069-0.45429 3.7578-0.69727 1.1773-0.2257 2.3211-0.58062 3.4727-0.9082 1.1507-0.33039 2.3109-0.63395 3.4297-1.0645 1.1904-0.45474 2.4433-0.76417 3.5586-1.3945 1.5418-0.99166 3.0624-2.0187 4.6172-2.9922 0.81397-0.54962 1.6878-1.0226 2.4629-1.623 0.62991-0.56026 0.83197-1.4233 0.875-2.2344-0.36764-1.6714-0.9093-3.2984-1.457-4.918-0.56605-1.7565-1.1894-3.4948-1.9668-5.1699-0.22678-0.28177-0.28271-0.7502-0.70508-0.7793-0.90944-0.01644-1.8178 0.10647-2.7266 0.14648-0.99838-0.07198-1.9921-0.28568-2.9883-0.41211-0.74462-0.14222-1.4944-0.19679-2.252-0.16992zm6.2422 1.0137c0.09516-0.03136 0.20361 0.048895 0.24414 0.17969l0.042968 0.13867c0.040499 0.1308-0.004429 0.25961-0.099609 0.29102l-1.5918 0.52734c-0.09515 0.03135-0.20361-0.048897-0.24414-0.17969l-0.042969-0.13867c-0.040496-0.1308 0.002476-0.26156 0.097656-0.29297l1.5938-0.52539zm-2.5742 0.87305a0.22097 0.22097 0 0 1 0.22852 0.16016 0.22097 0.22097 0 0 1-0.15039 0.27148 0.22097 0.22097 0 0 1-0.27344-0.15039 0.22097 0.22097 0 0 1 0.15234-0.27344 0.22097 0.22097 0 0 1 0.042968-0.007812zm-3.3652 0.54297c0.095773 0.003923 0.19134 0.007819 0.28711 0.011719 0.38843-0.084196 0.58342 0.29071 0.84766 0.50195 0.33282 0.70639 0.57806 1.472 0.87695 2.2012 1.0906 2.6992 1.8301 5.519 2.582 8.3262 0.24525 0.56102 0.093614 1.187-0.14258 1.7227-0.27124 0.5819-0.90438 0.71476-1.416 0.99805-2.0656 1.0863-4.2885 1.8142-6.4668 2.6348-1.1986 0.32798-2.4386 0.51443-3.6543 0.7793-1.4136 0.30389-2.8493 0.45278-4.2871 0.58594-0.78948 0.19749-1.4994-0.36618-1.9316-0.98047-0.41452-1.2365-0.78037-2.5034-1.1426-3.7617-0.6253-2.0575-1.0733-4.1606-1.4551-6.2754-0.044121-0.51975-0.33265-1.0488-0.15234-1.5605 0.006404-0.37907 0.27365-0.57412 0.57812-0.74219 2.3481-0.99983 4.7397-1.9148 7.1758-2.6836 2.7189-0.78631 5.5118-1.2887 8.3008-1.7578zm0.14648 1.1348-15.043 4.3008 2.6816 9.3809 15.043-4.2988-2.6816-9.3828zm7.4766 0.80078a0.9688 0.9688 0 0 1 0.91016 0.70117 0.9688 0.9688 0 0 1-0.66406 1.1973 0.9688 0.9688 0 0 1-1.1992-0.66406 0.9688 0.9688 0 0 1 0.66602-1.1973 0.9688 0.9688 0 0 1 0.28711-0.03711zm-2.7988 2.1094a0.9688 0.9688 0 0 1 0.91016 0.70117 0.9688 0.9688 0 0 1-0.66406 1.1992 0.9688 0.9688 0 0 1-1.1973-0.66602 0.9688 0.9688 0 0 1 0.66406-1.1973 0.9688 0.9688 0 0 1 0.28711-0.03711zm3.0508 2.9023c0.077201-0.01203 0.14229-0.004962 0.17969 0.023438l0.080079 0.060546c0.074814 0.056803 0.0036 0.1778-0.1582 0.27148l-2.707 1.5684c-0.16181 0.09368-0.35292 0.12322-0.42773 0.066406l-0.078125-0.060546c-0.074812-0.056802-0.005559-0.17782 0.15625-0.27148l2.709-1.5684c0.080904-0.04684 0.16889-0.077814 0.24609-0.089844zm0.18359 0.64258c0.0772-0.01203 0.14229-0.004962 0.17969 0.023438l0.080078 0.060547c0.074815 0.056801 0.003601 0.1778-0.1582 0.27148l-2.707 1.5684c-0.16181 0.09368-0.35292 0.12322-0.42774 0.066407l-0.078124-0.060547c-0.074813-0.056802-0.005559-0.17782 0.15625-0.27148l2.709-1.5684c0.080903-0.04684 0.16889-0.077814 0.24609-0.089844zm0.18359 0.64453c0.077201-0.012041 0.14424-0.006916 0.18164 0.021484l0.078125 0.060547c0.074814 0.056801 0.005553 0.1778-0.15625 0.27148l-2.709 1.5684c-0.16181 0.093682-0.35292 0.12322-0.42774 0.066407l-0.078125-0.060547c-0.074811-0.056802-0.005558-0.17782 0.15625-0.27148l2.709-1.5684c0.080903-0.04684 0.16889-0.075861 0.24609-0.08789zm0.18359 0.64258c0.077201-0.01204 0.14424-0.006916 0.18164 0.021484l0.078125 0.060547c0.074815 0.056801 0.005554 0.1778-0.15625 0.27148l-2.709 1.5684c-0.16181 0.09368-0.35292 0.12322-0.42773 0.066406l-0.078125-0.060547c-0.074812-0.056802-0.005558-0.17781 0.15625-0.27148l2.709-1.5664c0.080903-0.04684 0.16889-0.077813 0.24609-0.089843zm-27.395 0.12695c0.16038-0.043581 0.32754 0.050543 0.37109 0.21094l0.23242 0.86328 0.86523-0.23438c0.16038-0.04358 0.32364 0.052498 0.36719 0.21289l0.24414 0.89062c0.043582 0.16038-0.052498 0.32559-0.21289 0.36914l-0.86328 0.23438 0.23438 0.86523c0.043581 0.16039-0.050545 0.32364-0.21094 0.36719l-0.89062 0.24219c-0.16038 0.043581-0.32754-0.050543-0.37109-0.21094l-0.23438-0.86328-0.86328 0.23438c-0.16038 0.04358-0.32364-0.050544-0.36719-0.21094l-0.24219-0.89258c-0.043581-0.16038 0.048591-0.32559 0.20898-0.36914l0.86328-0.23242-0.23438-0.86523c-0.043581-0.16038 0.052498-0.32364 0.21289-0.36719l0.89063-0.24414zm27.578 0.51562c0.0772-0.01203 0.14424-0.004963 0.18164 0.023437l0.078124 0.058594c0.074816 0.056801 0.005554 0.1778-0.15625 0.27148l-2.709 1.5684c-0.16181 0.09368-0.35097 0.12322-0.42578 0.066406l-0.080078-0.060547c-0.074812-0.056802-0.003605-0.17781 0.1582-0.27148l2.707-1.5664c0.080903-0.046842 0.16889-0.077814 0.24609-0.089844zm-23.621 5.2109c0.16973-0.007733 0.31241 0.11924 0.32031 0.28516l0.009765 0.17578c0.007884 0.16592-0.12323 0.3048-0.29297 0.3125l-2.8398 0.12891c-0.16973 0.007733-0.31241-0.11924-0.32031-0.28516l-0.009765-0.17383c-0.007884-0.16592 0.12324-0.30675 0.29297-0.31445l2.8398-0.12891zm0.52734 1.8223c0.16973-0.007734 0.31241 0.11924 0.32031 0.28516l0.009766 0.17578c0.007884 0.16592-0.12324 0.3048-0.29297 0.3125l-2.8398 0.13086c-0.16973 0.007733-0.31241-0.12119-0.32031-0.28711l-0.009766-0.17383c-0.007884-0.16592 0.12324-0.30675 0.29297-0.31445l2.8398-0.12891z" color="#000000" color-rendering="auto" dominant-baseline="auto" fill="#fff" image-rendering="auto" shape-rendering="auto" solid-color="#000000" style="font-feature-settings:normal;font-variant-alternates:normal;font-variant-caps:normal;font-variant-ligatures:normal;font-variant-numeric:normal;font-variant-position:normal;isolation:auto;mix-blend-mode:normal;shape-padding:0;text-decoration-color:#000000;text-decoration-line:none;text-decoration-style:solid;text-indent:0;text-orientation:mixed;text-transform:none;white-space:normal"/>
</svg>
