<?xml version="1.0" encoding="UTF-8"?>
<svg version="1.1" viewBox="0 0 48 48" xmlns="http://www.w3.org/2000/svg">
    <defs>
        <style>.cls-1{fill:#fff;}</style>
    </defs>
    <path class="cls-1" d="m9.7109 5.1719c-2.6096 0-4.7109 2.5128-4.7109 5.6348v26.387c0 3.122 2.1013 5.6348 4.7109 5.6348h28.578c2.6096 0 4.7109-2.5128 4.7109-5.6348v-26.387c0-3.122-2.1013-5.6348-4.7109-5.6348h-28.578zm1.1016 2.8262h10.24c1.0395 0.012802 2.1057 0.0026129 2.9062 0.80273 0.60199 0.60489 0.83559 1.5966 1.5586 2.0703 0.60509 0.39686 1.6538 0.32617 2.3613 0.32617h13.963v2.5605h-13.963c-1.2195-0.003198-2.6193 0.04574-3.6836-0.66797-2.0511-1.373-0.41885-2.826-4.0742-2.8516h-11.791v29.764h-2.1719v-27.203c0.0062061-4.0166 0.75999-4.7944 4.6543-4.8008zm4.3438 8h22.031c3.6399 0.006401 4.6481 0.58228 4.6543 4.4805v12.162c-0.009309 1.7059-0.13674 3.3515-1.1328 4.7949-1.5981 2.3172-3.7886 2.5632-6.3145 2.5664h-22.031v-2.2402h22.031c3.7423-0.006401 5.2692-1.5816 5.2754-5.4414v-14.082h-24.514v-2.2402z"/>
</svg>
