<?xml version="1.0" encoding="UTF-8" standalone="no"?>
<svg
   xmlns:dc="http://purl.org/dc/elements/1.1/"
   xmlns:cc="http://creativecommons.org/ns#"
   xmlns:rdf="http://www.w3.org/1999/02/22-rdf-syntax-ns#"
   xmlns:svg="http://www.w3.org/2000/svg"
   xmlns="http://www.w3.org/2000/svg"
   xmlns:sodipodi="http://sodipodi.sourceforge.net/DTD/sodipodi-0.dtd"
   xmlns:inkscape="http://www.inkscape.org/namespaces/inkscape"
   width="48"
   height="48"
   viewBox="0 0 48 48"
   version="1.1"
   id="svg3390"
   sodipodi:docname="myfiles.svg"
   inkscape:version="0.92.4 (5da689c313, 2019-01-14)">
  <metadata
     id="metadata3396">
    <rdf:RDF>
      <cc:Work
         rdf:about="">
        <dc:format>image/svg+xml</dc:format>
        <dc:type
           rdf:resource="http://purl.org/dc/dcmitype/StillImage" />
        <dc:title></dc:title>
      </cc:Work>
    </rdf:RDF>
  </metadata>
  <defs
     id="defs3394" />
  <sodipodi:namedview
     pagecolor="#ffffff"
     bordercolor="#666666"
     borderopacity="1"
     objecttolerance="10"
     gridtolerance="10"
     guidetolerance="10"
     inkscape:pageopacity="0"
     inkscape:pageshadow="2"
     inkscape:window-width="1024"
     inkscape:window-height="575"
     id="namedview3392"
     showgrid="false"
     inkscape:pagecheckerboard="true"
     inkscape:zoom="1.4828954"
     inkscape:cx="23.59322"
     inkscape:cy="23.79661"
     inkscape:window-x="0"
     inkscape:window-y="1"
     inkscape:window-maximized="1"
     inkscape:current-layer="svg3390" />
  <path
     style="display:inline;fill:#ffffff"
     d="M 7 5 C 5.892 5 5 5.892 5 7 L 5 41 C 5 42.108 5.892 43 7 43 L 41 43 C 42.108 43 43 42.108 43 41 L 43 7 C 43 5.892 42.108 5 41 5 L 7 5 z M 10.8125 7.9980469 L 21.052734 7.9980469 C 22.09225 8.0108489 23.158402 8.0006598 23.958984 8.8007812 C 24.560972 9.4056732 24.794571 10.397422 25.517578 10.871094 C 26.12267 11.267953 27.171414 11.197266 27.878906 11.197266 L 41.841797 11.197266 L 41.841797 13.757812 L 27.878906 13.757812 C 26.659413 13.754613 25.259653 13.803552 24.195312 13.089844 C 22.144209 11.716836 23.776465 10.263881 20.121094 10.238281 L 8.3300781 10.238281 L 8.3300781 40.001953 L 6.1582031 40.001953 L 6.1582031 12.798828 C 6.1644092 8.7822175 6.918196 8.0044469 10.8125 7.9980469 z M 15.15625 15.998047 L 37.1875 15.998047 C 40.827356 16.004448 41.835597 16.580325 41.841797 20.478516 L 41.841797 32.640625 C 41.832488 34.346483 41.705057 35.992129 40.708984 37.435547 C 39.110923 39.752699 36.920398 39.998753 34.394531 40.001953 L 12.363281 40.001953 L 12.363281 37.761719 L 34.394531 37.761719 C 38.136787 37.755318 39.663722 36.180098 39.669922 32.320312 L 39.669922 18.238281 L 15.15625 18.238281 L 15.15625 15.998047 z "
     id="rect3388" />
</svg>
