<?xml version="1.0" encoding="UTF-8"?>
<svg version="1.1" viewBox="0 0 48 48" xmlns="http://www.w3.org/2000/svg">
    <path d="m24 2a22 22 0 0 0-22 22 22 22 0 0 0 22 22 22 22 0 0 0 22-22 22 22 0 0 0-22-22zm4.9844 6.0762 4.834 0.17773-2.5176 4.5898h2.3184v1.6484l-4.9238 0.023437 2.4062-4.7012-2.2285 0.021484v1.4258h-1.627l0.023437 4.7246-1.9395 0.042969v-4.7441h-1.6035l-0.044921-1.582 5.3027-0.066406v-1.5605zm-13.426 0.14062-0.001953 1.5469-1.8184 0.023438 0.001953 1.2715 1.6309 0.001953 0.005859 1.5488-1.6602 0.042969v2.4121l-1.8887 0.019531-0.091797-6.7988 3.8223-0.068359zm7.7441 0.14844-0.066406 6.127-1.8262-0.021485-0.066406-4.9902 0.75586-0.11133-0.31055-0.95898 1.5137-0.044922zm11.207 0.71289 1.7148 0.089844-0.60156 3.2305-1.0684-0.066407-0.044922-3.2539zm-15.695 0.66211c2.1936 0.40973 2.6272 2.1302 0.97461 3.252l1.5723 1.9785-1.3887 1.2539-1.9551-2.9785-0.001953 2.8184-1.8652 0.019531 0.021484-6.2988 2.6426-0.044922zm-0.86914 1.248 0.070313 1.8438c1.3825-0.66081 1.1978-1.5136-0.070313-1.8438zm17.166 1.5 0.71289 0.93555-0.98047 0.82422-0.73438-0.95898 1.002-0.80078zm-30.377 6.2227h38.551a20 20 0 0 1 0.71484 5.2891 20 20 0 0 1-20 20 20 20 0 0 1-20-20 20 20 0 0 1 0.73438-5.2891zm10.594 3.5352-4.8145 11.898 3.3906 1.248 1.7871-5.6562 3.3359 5.1699 3.7402-5.2578 2.3633 5.6973 3.3867-1.5156-5.0762-11.371-4.0098 6.2422-4.1035-6.4551zm19.117 2.8477-1.6504 5.6172-2.0938-5.4805-3.0293 1.4297 3.5176 6.8145-1.8711 4.9902 2.1426 1.2949 5.8789-12.881-2.8945-1.7852z" fill="#fff"/>
</svg>
