<?xml version="1.0" encoding="UTF-8" standalone="no"?>
<svg
   width="48"
   height="48"
   viewBox="-40 -40 48 48"
   >
  <path
     style="fill:#ffffff"
     d="M -17.379519,-40 A 22.620468,22.620468 0 0 0 -40,-17.379522 22.620468,22.620468 0 0 0 -17.379519,5.2409482 22.620468,22.620468 0 0 0 5.2409407,-17.379522 22.620468,22.620468 0 0 0 -17.379519,-40 Z m 0,4.478745 A 18.141728,18.141727 0 0 1 0.7622107,-17.379522 18.141728,18.141727 0 0 1 -17.379519,0.76221819 18.141728,18.141727 0 0 1 -35.52127,-17.379522 18.141728,18.141727 0 0 1 -17.379519,-35.521255 Z m 0,4.535445 A 13.606293,13.606293 0 0 0 -30.98581,-17.379522 13.606293,13.606293 0 0 0 -17.379519,-3.7732018 13.606293,13.606293 0 0 0 -3.7732193,-17.379522 13.606293,13.606293 0 0 0 -17.379519,-30.98581 Z m 0,4.592128 a 9.0141689,9.0141688 0 0 1 9.0141697,9.01416 9.0141689,9.0141688 0 0 1 -9.0141697,9.0141802 9.0141689,9.0141688 0 0 1 -9.01416,-9.0141802 9.0141689,9.0141688 0 0 1 9.01416,-9.01416 z m 0,4.53543 a 4.478739,4.478739 0 0 0 -4.47873,4.47873 4.478739,4.478739 0 0 0 4.47873,4.47876 4.478739,4.478739 0 0 0 4.47876,-4.47876 4.478739,4.478739 0 0 0 -4.47876,-4.47873 z"
     />
</svg>
