<?xml version="1.0" encoding="UTF-8" standalone="no"?>
<!-- Created with Inkscape (http://www.inkscape.org/) -->

<svg
   xmlns:dc="http://purl.org/dc/elements/1.1/"
   xmlns:cc="http://creativecommons.org/ns#"
   xmlns:rdf="http://www.w3.org/1999/02/22-rdf-syntax-ns#"
   xmlns:svg="http://www.w3.org/2000/svg"
   xmlns="http://www.w3.org/2000/svg"
   xmlns:sodipodi="http://sodipodi.sourceforge.net/DTD/sodipodi-0.dtd"
   xmlns:inkscape="http://www.inkscape.org/namespaces/inkscape"
   width="192"
   height="192"
   viewBox="0 0 50.8 50.8"
   version="1.1"
   id="svg91525"
   inkscape:version="0.92.3 (2405546, 2018-03-11)"
   sodipodi:docname="napster.svg">
  <defs
     id="defs91519" />
  <sodipodi:namedview
     id="base"
     pagecolor="#ffffff"
     bordercolor="#666666"
     borderopacity="1.0"
     inkscape:pageopacity="0.0"
     inkscape:pageshadow="2"
     inkscape:zoom="3.959798"
     inkscape:cx="5.6497932"
     inkscape:cy="54.890876"
     inkscape:document-units="mm"
     inkscape:current-layer="g91564"
     showgrid="false"
     inkscape:window-width="1920"
     inkscape:window-height="1003"
     inkscape:window-x="-9"
     inkscape:window-y="-9"
     inkscape:window-maximized="1"
     units="px" />
  <metadata
     id="metadata91522">
    <rdf:RDF>
      <cc:Work
         rdf:about="">
        <dc:format>image/svg+xml</dc:format>
        <dc:type
           rdf:resource="http://purl.org/dc/dcmitype/StillImage" />
        <dc:title />
      </cc:Work>
    </rdf:RDF>
  </metadata>
  <g
     inkscape:label="Layer 1"
     inkscape:groupmode="layer"
     id="layer1">
    <g
       id="g91564">
      <path
         style="fill:#ffffff;fill-opacity:1;stroke-width:0.32307759"
         d="M 21.507348,47.862241 C 17.133948,46.98984 12.924284,44.266426 10.064602,40.459451 8.3671426,38.199682 7.6074167,36.599407 6.7865501,33.554581 6.2355667,31.510834 5.7852004,30.571029 4.872887,29.561208 1.2490906,25.550092 1.1941505,20.373235 4.7346143,16.532289 L 5.979318,15.181945 6.0724865,11.973848 6.1656549,8.7657513 7.5715157,8.6647679 c 0.7732226,-0.055559 1.8454853,0.052262 2.382806,0.2396127 0.9204113,0.3208634 1.0866983,0.2389533 2.8735303,-1.4153303 2.557515,-2.3678098 5.84579,-3.9503061 9.585849,-4.6132308 2.774527,-0.4917903 3.184796,-0.4900443 6.096625,0.025887 3.774649,0.6688226 6.807265,2.1504697 9.495343,4.6391788 1.730845,1.6024487 1.898854,1.6837605 2.817546,1.3634954 0.537324,-0.1873138 1.60958,-0.2951352 2.382805,-0.2396127 l 1.405867,0.1009834 0.09317,3.2080966 0.09317,3.208097 1.244697,1.350344 c 3.584898,3.889142 3.514356,8.985908 -0.180989,13.076199 -0.865685,0.958218 -1.328694,1.934766 -1.87094,3.946093 -0.849823,3.152232 -1.553532,4.594353 -3.515442,7.204181 -2.793039,3.715456 -6.857128,6.225473 -11.526796,7.119035 -2.889297,0.552881 -4.609778,0.549291 -7.441406,-0.01551 z m 7.17707,-4.07769 c 3.860209,-0.807635 8.328838,-4.199699 10.076782,-7.64913 1.567123,-3.092546 1.802242,-4.964157 1.807432,-14.387566 l 0.0049,-8.664106 -0.726921,0.224765 c -1.187074,0.367044 -3.234513,1.45018 -4.413416,2.334779 L 34.331288,16.4701 32.687017,15.601996 c -2.719745,-1.435917 -4.2868,-1.828544 -7.298132,-1.828544 -3.011333,0 -4.578389,0.392627 -7.298133,1.828544 L 16.446476,16.4701 15.344591,15.643293 c -1.178908,-0.884599 -3.226354,-1.967735 -4.413429,-2.334779 l -0.726925,-0.224765 0.0048,8.664106 c 0.0053,9.423409 0.240313,11.29502 1.80743,14.387566 1.072244,2.115974 3.960687,4.981618 6.264734,6.215276 3.128579,1.675152 6.818964,2.183781 10.403352,1.433854 z m -6.006954,-1.686446 c -1.479102,-0.446489 -2.121527,-1.231314 -1.560882,-1.906852 0.285511,-0.344015 1.313147,-0.446818 4.307619,-0.430932 3.303933,0.01758 3.986939,0.106967 4.272193,0.559182 1.017236,1.612742 -3.6503,2.795493 -7.01893,1.778602 z m 0.906274,-4.026612 c -1.187851,-0.657247 -2.71805,-1.858057 -2.71805,-2.132959 0,-0.1077 2.035389,-0.195801 4.523087,-0.195801 2.487697,0 4.523086,0.118079 4.523086,0.262313 0,0.32366 -1.42653,1.394841 -2.810885,2.110711 -1.297631,0.671021 -2.246095,0.659079 -3.517238,-0.0442 z M 17.094565,33.40865 c -1.567815,-0.504245 -3.033654,-2.20388 -3.242298,-3.759439 -0.233033,-1.73739 0.06941,-1.838178 4.310403,-1.436345 3.028936,0.287003 3.462921,0.410246 4.313206,1.224866 0.7975,0.764055 1.943666,3.182393 1.943666,4.101012 0,0.375458 -6.089334,0.267307 -7.324977,-0.130094 z m 9.263442,0.130094 c 0,-0.918619 1.146167,-3.336957 1.943667,-4.101012 0.850286,-0.81462 1.284269,-0.937863 4.313207,-1.224866 4.24099,-0.401833 4.543431,-0.301045 4.310396,1.436345 -0.219513,1.636614 -1.697887,3.266 -3.435741,3.786669 -1.405869,0.421212 -7.131529,0.503793 -7.131529,0.102815 z M 19.411839,10.537308 c 3.691885,-1.3674034 9.337963,-1.208321 13.012128,0.366605 2.643071,1.132955 3.980972,0.111851 1.916577,-1.4627087 -5.008026,-3.8198092 -12.804246,-3.8093445 -17.917173,0.024055 -1.089033,0.8164997 -1.34372,1.5432137 -0.646156,1.8437097 0.556145,0.239576 1.372082,0.0663 3.634624,-0.77165 z"
         id="path91566"
         inkscape:connector-curvature="0" />
    </g>
  </g>
</svg>
