<?xml version="1.0" encoding="UTF-8" standalone="no"?>
<!-- Created with Inkscape (http://www.inkscape.org/) -->

<svg
   xmlns:dc="http://purl.org/dc/elements/1.1/"
   xmlns:cc="http://creativecommons.org/ns#"
   xmlns:rdf="http://www.w3.org/1999/02/22-rdf-syntax-ns#"
   xmlns:svg="http://www.w3.org/2000/svg"
   xmlns="http://www.w3.org/2000/svg"
   xmlns:sodipodi="http://sodipodi.sourceforge.net/DTD/sodipodi-0.dtd"
   xmlns:inkscape="http://www.inkscape.org/namespaces/inkscape"
   width="192"
   height="192"
   viewBox="0 0 50.8 50.8"
   version="1.1"
   id="svg91525"
   inkscape:version="0.92.2 2405546, 2018-03-11"
   sodipodi:docname="napster.svg">
  <defs
     id="defs91519">
    <inkscape:path-effect
       oposite_fuse="false"
       fuse_paths="false"
       discard_orig_path="false"
       mode="free"
       is_visible="true"
       id="path-effect875"
       center_point="-29.507391,20.524834"
       end_point="-29.507391,43.411536"
       start_point="-29.507391,-2.3618686"
       effect="mirror_symmetry" />
    <inkscape:path-effect
       effect="mirror_symmetry"
       start_point="25.110168,2.2683395"
       end_point="25.110168,48.041744"
       center_point="25.110168,25.155042"
       id="path-effect871"
       is_visible="true"
       mode="free"
       discard_orig_path="false"
       fuse_paths="false"
       oposite_fuse="false" />
    <inkscape:path-effect
       effect="mirror_symmetry"
       start_point="26.193752,2.2273143"
       end_point="26.193752,48.005721"
       center_point="26.193752,25.116518"
       id="path-effect866"
       is_visible="true"
       mode="free"
       discard_orig_path="false"
       fuse_paths="false"
       oposite_fuse="false" />
  </defs>
  <sodipodi:namedview
     id="base"
     pagecolor="#ffffff"
     bordercolor="#666666"
     borderopacity="1.0"
     inkscape:pageopacity="0.0"
     inkscape:pageshadow="2"
     inkscape:zoom="1.979899"
     inkscape:cx="-6.6831695"
     inkscape:cy="123.96055"
     inkscape:document-units="mm"
     inkscape:current-layer="g91564"
     showgrid="false"
     inkscape:window-width="1840"
     inkscape:window-height="970"
     inkscape:window-x="40"
     inkscape:window-y="40"
     inkscape:window-maximized="1"
     units="px"
     inkscape:pagecheckerboard="true"
     inkscape:object-paths="true"
     inkscape:snap-intersection-paths="true"
     inkscape:snap-bbox="true"
     inkscape:bbox-paths="true"
     inkscape:bbox-nodes="true"
     inkscape:snap-bbox-edge-midpoints="true"
     inkscape:snap-bbox-midpoints="true"
     inkscape:snap-object-midpoints="true"
     inkscape:snap-center="true"
     inkscape:snap-text-baseline="true"
     inkscape:snap-smooth-nodes="true"
     inkscape:snap-midpoints="true"
     inkscape:snap-global="true" />
  <metadata
     id="metadata91522">
    <rdf:RDF>
      <cc:Work
         rdf:about="">
        <dc:format>image/svg+xml</dc:format>
        <dc:type
           rdf:resource="http://purl.org/dc/dcmitype/StillImage" />
        <dc:title></dc:title>
      </cc:Work>
    </rdf:RDF>
  </metadata>
  <g
     inkscape:label="Layer 1"
     inkscape:groupmode="layer"
     id="layer1">
    <g
       id="g91564">
      <path
         style="fill:#ffffff;fill-opacity:1;stroke-width:0.32307759"
         d="m 25.399999,2.5133331 c -0.809815,-0.00239 -1.604938,0.1194563 -2.986378,0.3643188 -3.74006,0.662926 -7.028466,2.2458618 -9.585979,4.613672 C 11.040811,9.1456079 10.874843,9.2270884 9.9544314,8.9062245 8.6515278,8.5506155 7.5853734,8.4897854 6.165516,8.7677315 6.1035057,10.906447 6.0414926,13.045162 5.9794796,15.183877 l -1.2448831,1.350305 c -3.5404663,3.840946 -3.485306,9.018063 0.1384908,13.02918 0.9123151,1.009822 1.3625962,1.949289 1.9135804,3.993036 0.8208645,3.044825 1.5803748,4.645239 3.2778353,6.905006 2.85968,3.806976 7.069312,6.530247 11.442711,7.402647 1.495107,0.298217 2.681615,0.435684 3.892785,0.42168 1.211173,0.014 2.397681,-0.123463 3.892788,-0.42168 4.373399,-0.8724 8.583028,-3.595671 11.442711,-7.402647 1.697461,-2.259767 2.456968,-3.860181 3.277835,-6.905006 0.550984,-2.043747 1.001266,-2.983214 1.913581,-3.993036 3.623796,-4.011117 3.678954,-9.188234 0.138491,-13.02918 L 44.820521,15.183877 C 44.758508,13.045162 44.696495,10.906447 44.634485,8.7677315 43.214628,8.4897854 42.148473,8.5506155 40.84557,8.9062245 39.925158,9.2270884 39.75919,9.1456079 37.972359,7.4913239 35.414843,5.1235137 32.12644,3.5405779 28.38638,2.8776519 27.00494,2.6327894 26.209817,2.5109431 25.399999,2.5133331 Z m 0,4.0726197 c 3.207166,0.0085 6.425869,0.9689877 8.976715,2.8814778 1.089033,0.8164994 1.343517,1.5433194 0.645953,1.8438154 -0.556143,0.239576 -1.371859,0.0659 -3.634401,-0.772046 -1.707443,-0.6324052 -3.833228,-0.9336749 -5.988267,-0.923975 -2.155036,-0.0097 -4.280821,0.2915698 -5.988264,0.923975 -2.262542,0.83795 -3.078774,1.011622 -3.63492,0.772046 -0.697563,-0.300496 -0.442561,-1.027316 0.646472,-1.8438154 2.550846,-1.9124901 5.769549,-2.872976 8.976712,-2.8814778 z m -15.19597,6.4998612 c 2.489438,0.862926 4.271867,1.907834 6.241997,3.386357 l 1.644343,-0.868165 c 2.719744,-1.435917 4.286414,-1.828312 7.297745,-1.828312 h 0.01188 0.01137 c 3.011334,0 4.578004,0.392395 7.297746,1.828312 l 1.644345,0.868165 c 1.97013,-1.478523 3.753073,-2.523431 6.242513,-3.386357 l -0.0052,8.664071 c -0.0053,9.423408 -0.240009,11.295203 -1.807125,14.387751 -1.072245,2.115974 -3.960688,4.981469 -6.264736,6.215126 -2.175957,1.165082 -4.624133,1.764416 -7.118945,1.769917 -2.494809,-0.0055 -4.942985,-0.604835 -7.118945,-1.769917 -2.304045,-1.233657 -5.192488,-4.099152 -6.264733,-6.215126 -1.567116,-3.092548 -1.801825,-4.964343 -1.807125,-14.387751 z m 5.032769,14.933972 c -1.451817,0.01584 -1.544624,0.43697 -1.384414,1.631426 0.208645,1.555559 1.674365,3.255213 3.24218,3.759459 1.235644,0.397399 7.325135,0.505685 7.325135,0.130225 0,-0.918617 -1.146569,-3.336986 -1.944068,-4.101041 -0.850286,-0.814621 -1.283978,-0.937729 -4.312915,-1.224733 -1.325311,-0.125571 -2.266002,-0.202538 -2.925918,-0.195336 z m 20.326405,0 c -0.659916,-0.0072 -1.600607,0.06977 -2.925918,0.195336 -3.028937,0.287004 -3.462632,0.410112 -4.312915,1.224733 -0.797499,0.764055 -1.944068,3.182424 -1.944068,4.101041 0,0.37546 6.089491,0.267174 7.325135,-0.130225 1.567815,-0.504246 3.033535,-2.2039 3.24218,-3.759459 0.16021,-1.194456 0.0674,-1.615586 -1.384414,-1.631426 z m -10.16372,7.725111 c -2.487697,0 -4.533572,0.08815 -4.533572,0.195852 0,0.274902 1.529811,1.475441 2.717663,2.132687 0.661204,0.365824 1.242216,0.535885 1.815909,0.535885 z m 5.16e-4,0 v 2.864424 c 0.573694,0 1.155224,-0.170061 1.816428,-0.535885 1.18785,-0.657246 2.717663,-1.857785 2.717663,-2.132687 0,-0.107704 -2.046391,-0.195852 -4.534091,-0.195852 z m -1.008724,4.017324 c -2.206662,0.01374 -3.024912,0.129972 -3.274734,0.430983 -0.560645,0.675539 0.08204,1.460373 1.561144,1.90686 0.861642,0.260104 1.830777,0.376203 2.722314,0.376203 0.89154,0 1.860675,-0.116099 2.722317,-0.376203 1.479102,-0.446487 2.121789,-1.231321 1.561144,-1.90686 -0.249824,-0.301011 -1.068075,-0.417243 -3.274737,-0.430983 -0.307824,-0.0019 -0.644623,-0.0019 -1.008724,0 -0.364098,-0.0019 -0.700897,-0.0019 -1.008724,0 z"
         id="path873"
         inkscape:connector-curvature="0" />
    </g>
  </g>
</svg>
