<?xml version="1.0" encoding="UTF-8" standalone="no"?>
<!-- Created with Inkscape (http://www.inkscape.org/) -->

<svg
   xmlns:dc="http://purl.org/dc/elements/1.1/"
   xmlns:cc="http://creativecommons.org/ns#"
   xmlns:rdf="http://www.w3.org/1999/02/22-rdf-syntax-ns#"
   xmlns:svg="http://www.w3.org/2000/svg"
   xmlns="http://www.w3.org/2000/svg"
   xmlns:sodipodi="http://sodipodi.sourceforge.net/DTD/sodipodi-0.dtd"
   xmlns:inkscape="http://www.inkscape.org/namespaces/inkscape"
   width="145"
   height="145"
   viewBox="0 0 38.364583 38.364583"
   version="1.1"
   id="svg91525"
   inkscape:version="0.92.3 (2405546, 2018-03-11)"
   sodipodi:docname="napster.svg">
  <defs
     id="defs91519" />
  <sodipodi:namedview
     id="base"
     pagecolor="#ffffff"
     bordercolor="#666666"
     borderopacity="1.0"
     inkscape:pageopacity="0.0"
     inkscape:pageshadow="2"
     inkscape:zoom="3.959798"
     inkscape:cx="-55.612713"
     inkscape:cy="54.890876"
     inkscape:document-units="mm"
     inkscape:current-layer="g91564"
     showgrid="false"
     inkscape:window-width="1920"
     inkscape:window-height="1003"
     inkscape:window-x="-9"
     inkscape:window-y="-9"
     inkscape:window-maximized="1"
     units="px" />
  <metadata
     id="metadata91522">
    <rdf:RDF>
      <cc:Work
         rdf:about="">
        <dc:format>image/svg+xml</dc:format>
        <dc:type
           rdf:resource="http://purl.org/dc/dcmitype/StillImage" />
        <dc:title />
      </cc:Work>
    </rdf:RDF>
  </metadata>
  <g
     inkscape:label="Layer 1"
     inkscape:groupmode="layer"
     id="layer1">
    <g
       id="g91564">
      <path
         style="fill:#ffffff;fill-opacity:1;stroke-width:0.26458332"
         d="m 15.994419,37.577669 c -3.581581,-0.71445 -7.0290712,-2.94478 -9.3709982,-6.06249 -1.390129,-1.85063 -2.012304,-3.16117 -2.68455,-5.65472 -0.451226,-1.67372 -0.820052,-2.44337 -1.567188,-3.27036 -2.96769601,-3.28489 -3.01268901,-7.52446 -0.113238,-10.66999 l 1.019346,-1.10586 0.0763,-2.6272601 0.0763,-2.62726 1.151325,-0.0827 c 0.633228,-0.0455 1.511354,0.0428 1.951391,0.19623 0.753768,0.26277 0.889948,0.19569 2.353268,-1.15908 2.0944682,-1.93911 4.7873902,-3.23509 7.8502992,-3.77799004 2.27219,-0.40275 2.608178,-0.40132 4.992811,0.0212 3.091236,0.54773004 5.574787,1.76112004 7.776179,3.79924004 1.41747,1.31232 1.55506,1.37891 2.30742,1.11663 0.44004,-0.1534 1.31816,-0.2417 1.95139,-0.19623 l 1.15133,0.0827 0.0763,2.62726 0.0763,2.6272601 1.01934,1.10586 c 2.93584,3.185 2.87807,7.35898 -0.14822,10.70871 -0.70895,0.78473 -1.08813,1.58447 -1.5322,3.23164 -0.69596,2.58151 -1.27226,3.76253 -2.87896,5.89984 -2.28735,3.04276 -5.615622,5.09833 -9.439831,5.83011 -2.36618,0.45278 -3.775162,0.44984 -6.094115,-0.0127 z m 5.877638,-3.33941 c 3.161305,-0.66141 6.820874,-3.43933 8.252347,-6.26423 1.28339,-2.53263 1.47594,-4.06538 1.48019,-11.78265 l 0.004,-7.0954401 -0.59531,0.18407 c -0.97215,0.30059 -2.648893,1.1876201 -3.614352,1.9120601 l -0.90239,0.67711 -1.34657,-0.71093 C 22.922646,9.9823089 21.639311,9.6607689 19.173191,9.6607689 c -2.466121,0 -3.749456,0.32154 -5.976782,1.4974801 l -1.346574,0.71093 -0.902385,-0.67711 C 9.9819868,10.467629 8.3052378,9.5805989 7.3330868,9.2800089 l -0.595313,-0.18407 0.0039,7.0954401 c 0.0043,7.71727 0.196804,9.25002 1.480189,11.78265 0.878111,1.73287 3.2435912,4.07968 5.1304832,5.08998 2.562139,1.37186 5.584368,1.7884 8.51979,1.17425 z m -4.919375,-1.38111 c -1.211306,-0.36565 -1.737418,-1.00838 -1.278279,-1.56161 0.233818,-0.28173 1.075397,-0.36592 3.52771,-0.35291 2.705745,0.0144 3.26509,0.0876 3.498698,0.45794 0.833062,1.32075 -2.989401,2.28936 -5.748129,1.45658 z m 0.74219,-3.29758 c -0.972787,-0.53825 -2.225938,-1.52165 -2.225938,-1.74678 0,-0.0882 1.666875,-0.16035 3.704167,-0.16035 2.037291,0 3.704166,0.0967 3.704166,0.21482 0,0.26506 -1.168252,1.1423 -2.301965,1.72856 -1.06269,0.54953 -1.839432,0.53975 -2.88043,-0.0362 z m -5.314287,-3.81862 c -1.283957,-0.41295 -2.4844002,-1.80486 -2.6552692,-3.07878 -0.190841,-1.42283 0.05684,-1.50537 3.5299902,-1.17629 2.480537,0.23504 2.835948,0.33597 3.532286,1.0031 0.65311,0.62572 1.591759,2.60621 1.591759,3.35851 0,0.30748 -4.98684,0.21891 -5.998766,-0.10654 z m 7.586265,0.10654 c 0,-0.7523 0.93865,-2.73279 1.59176,-3.35851 0.696339,-0.66713 1.051748,-0.76806 3.532286,-1.0031 3.473145,-0.32908 3.720828,-0.24654 3.529985,1.17629 -0.17977,1.3403 -1.390479,2.67468 -2.813689,3.10108 -1.151332,0.34495 -5.840342,0.41258 -5.840342,0.0842 z M 14.278309,7.0105389 c 3.023457,-1.11983 7.647294,-0.98955 10.656239,0.30023 2.164534,0.92783 3.260204,0.0916 1.569574,-1.19788 -4.101306,-3.12822 -10.485994,-3.11965 -14.673209,0.0197 -0.89186,0.66867 -1.100435,1.26381 -0.529167,1.5099 0.455453,0.1962 1.123662,0.0543 2.976563,-0.63194 z"
         id="path91566"
         inkscape:connector-curvature="0" />
    </g>
  </g>
</svg>
