<?xml version="1.0" encoding="UTF-8"?>
<svg version="1.1" viewBox="0 0 48 48" xmlns="http://www.w3.org/2000/svg">
    <path d="m24 2.3751c-0.76518-0.0021886-1.5164 0.11287-2.8218 0.34424-3.5339 0.62639-6.641 2.1221-9.0576 4.3594-1.6883 1.5631-1.8451 1.6401-2.7148 1.3369-1.2311-0.33601-2.2385-0.39348-3.58-0.13086-0.058589 2.0208-0.11718 4.0416-0.17578 6.0624l-1.1763 1.2759c-3.3453 3.6292-3.2932 8.521 0.13086 12.311 0.86203 0.95413 1.2875 1.8418 1.8081 3.7729 0.77561 2.8769 1.4933 4.3891 3.0971 6.5244 2.7021 3.5971 6.6796 6.1702 10.812 6.9945 1.4127 0.28179 2.5338 0.41167 3.6782 0.39843 1.1444 0.0132 2.2655-0.11665 3.6782-0.39843 4.1323-0.8243 8.1098-3.3975 10.812-6.9945 1.6039-2.1352 2.3216-3.6474 3.0971-6.5244 0.52061-1.931 0.9461-2.8187 1.8081-3.7729 3.424-3.79 3.4762-8.6817 0.13086-12.311l-1.1763-1.2759c-0.058593-2.0208-0.11719-4.0416-0.17579-6.0624-1.3416-0.26263-2.349-0.20515-3.58 0.13086-0.86967 0.30317-1.0265 0.22618-2.7148-1.3369-2.4165-2.2373-5.5236-3.7329-9.0576-4.3594-1.3052-0.23136-2.0566-0.34649-2.8218-0.34424zm0 3.8481c3.0304 0.00799 6.0717 0.91557 8.4818 2.7227 1.029 0.77149 1.2694 1.4582 0.61034 1.7422-0.52548 0.22637-1.2963 0.06226-3.434-0.72949-1.6133-0.59755-3.6219-0.8822-5.6582-0.87304-2.0362-0.00912-4.0448 0.2755-5.6582 0.87304-2.1378 0.79176-2.9091 0.95583-3.4345 0.72949-0.65911-0.28393-0.41816-0.97067 0.61083-1.7422 2.4102-1.8071 5.4514-2.7146 8.4818-2.7227zm-14.358 6.1416c2.3522 0.81536 4.0364 1.8026 5.8979 3.1997l1.5537-0.8203c2.5698-1.3567 4.0501-1.7275 6.8954-1.7275h0.02196c2.8453 0 4.3256 0.37077 6.8954 1.7275l1.5537 0.8203c1.8615-1.397 3.5462-2.3843 5.8984-3.1997l-5e-3 8.1865c-5e-3 8.9039-0.22678 10.672-1.7075 13.595-1.0131 1.9993-3.7424 4.7069-5.9193 5.8725-2.056 1.1009-4.3692 1.6671-6.7265 1.6723-2.3573-0.0047-4.6705-0.57149-6.7265-1.6723-2.1769-1.1657-4.9062-3.8732-5.9193-5.8725-1.4807-2.922-1.7025-4.6906-1.7075-13.595zm4.7554 14.111c-1.3718 0.01496-1.4594 0.41288-1.3081 1.5415 0.19714 1.4698 1.5821 3.0758 3.0635 3.5522 1.1675 0.3755 6.9213 0.47781 6.9213 0.12304 0-0.86798-1.0834-3.153-1.8369-3.8749-0.80342-0.76971-1.2132-0.88604-4.0751-1.1572-1.2522-0.11865-2.1411-0.19137-2.7646-0.18457zm19.205 0c-0.62354-0.0068-1.5124 0.06592-2.7646 0.18457-2.8619 0.27118-3.2717 0.3875-4.0751 1.1572-0.75354 0.72194-1.8369 3.007-1.8369 3.8749 0 0.35476 5.7538 0.25244 6.9213-0.12305 1.4814-0.47645 2.8663-2.0824 3.0635-3.5522 0.15138-1.1287 0.06368-1.5265-1.3081-1.5415zm-9.6037 7.2992c-2.3506 0-4.2837 0.08326-4.2837 0.18506 0 0.25974 1.4455 1.3941 2.5679 2.0151 0.62475 0.34565 1.1737 0.50634 1.7158 0.50634zm5e-4 0v2.7065c0.54206 0 1.0915-0.16069 1.7163-0.50635 1.1223-0.62101 2.5679-1.7554 2.5679-2.0151 0-0.10179-1.9336-0.18505-4.2842-0.18505zm-0.95309 3.7958c-2.0851 0.01297-2.8581 0.12281-3.0942 0.40723-0.52974 0.63829 0.07753 1.3799 1.475 1.8018 0.81414 0.24576 1.7299 0.35546 2.5722 0.35546 0.84239 0 1.7581-0.10966 2.5722-0.35546 1.3976-0.42188 2.0048-1.1634 1.475-1.8018-0.23605-0.28442-1.0092-0.39424-3.0942-0.40723-0.29085-0.0023-0.60908-0.0023-0.95309 0-0.34403-0.0023-0.66226-0.0023-0.95309 0z" fill="#fff" stroke-width=".30527"/>
</svg>
