<?xml version="1.0" encoding="UTF-8"?>
<svg version="1.1" viewBox="0 0 48 48" xmlns="http://www.w3.org/2000/svg">
    <path d="m7 5c-1.108 0-2 0.892-2 2v34c0 1.108 0.892 2 2 2h34c1.108 0 2-0.892 2-2v-34c0-1.108-0.892-2-2-2h-34zm19.354 3.002c0.37119 0.032417 0.39109 0.62255 0.4375 1.9707l0.16406 4.793c0.079926 2.3217 0.044404 2.3677-1.8809 1.3438-0.4144 1.1041-0.64832 2.0901-0.64062 2.9395 0.013107 1.4464 0.49643 2.7758 2.3203 4.6191 0.84717 0.8562 1.4833 1.7744 1.9629 2.7129 0.47024-0.42431 0.97485-0.8398 1.5449-1.2344 1.0149-0.70249 1.3844-1.5518 1.5117-2.8125 0.070631-0.69925 0.018737-1.5026-0.10156-2.3359-1.6102 0.40849-1.628 0.37297-1.1523-1.3125l0.97656-3.4609c0.24424-0.8655 0.3659-1.3 0.58398-1.3555 0.21808-0.055471 0.53402 0.26849 1.1621 0.91211l2.5117 2.5742c1.2562 1.2872 1.2564 1.2867-0.48828 1.7305l-0.087891 0.021484c0.19526 1.1545 0.30376 2.3615 0.17969 3.5898-0.19932 1.9732-1.1014 4.0649-3.0449 5.4102-1.0577 0.73209-1.8655 1.5027-2.4922 2.2832 0.02699 0.43082 0.036016 0.85585 0.009766 1.2676-0.16187 2.5392-1.0102 4.7004-1.4785 6.5-0.78033 3.1391-5.3415 1.9521-4.6465-1.207 0.19523-0.88744-0.15804-1.8988-0.55273-2.8164-0.59962-1.1873-1.4445-2.0202-3.123-2.1602-2.4702-0.2059-4.2602-1.8148-5.4316-3.5098-0.7026-1.0165-1.2372-2.0924-1.6934-3.1074l-0.007813 0.003906c-1.6552 0.70785-1.6548 0.70755-1.4395-1.0781l0.43164-3.5723c0.10766-0.89284 0.16029-1.3393 0.36719-1.4277 0.2069-0.088483 0.56716 0.18179 1.2871 0.7207l2.8789 2.1562c1.4324 1.0722 1.4341 1.0785-0.19531 1.7754 0.40917 0.89746 0.8421 1.7699 1.3359 2.4844 0.84307 1.2198 1.6523 1.8738 2.7676 1.9668 1.9987 0.1666 3.5877 1.086 4.7266 2.2871-0.015864-1.2333-0.36943-2.2672-1.7168-3.6289-2.4334-2.4593-3.6802-5.2112-3.7051-7.9531-0.016644-1.8367 0.4484-3.5651 1.1562-5.2617l-0.10742-0.054687c-2.1182-1.129-2.1177-1.1288-0.082032-2.3965l4.0703-2.5371c0.89061-0.55463 1.3929-0.86505 1.6816-0.83984z" fill="#fff"/>
</svg>
