<?xml version="1.0" encoding="UTF-8"?>
<svg version="1.1" viewBox="0 0 48 48" xmlns="http://www.w3.org/2000/svg">
    <path d="m30.706 5v4.9769h-4.9769v4.1911h4.9769v4.9769h4.1911v-4.9769h4.9769v-4.1911h-4.9769v-4.9769z" fill="#fff"/>
    <path d="m10.276 19.601c-0.0043 5.9671-0.0021 12.895-0.0021 19.189h4.2957v-18.122l14.145 15.185c3.121 2.5744 6.4555 0.42769 6.3912-4.054v-10.368l-4.2956 3.93e-4v10.367l-14.092-15.128c-2.4354-2.4354-6.509-0.3695-6.4423 2.9285z" fill="#fff"/>
    <path d="m12.422 43.001c-2.3714 0-4.296-1.9246-4.296-4.296s1.9246-4.296 4.296-4.296 4.296 1.9246 4.296 4.296-1.9246 4.296-4.296 4.296z" fill="#fff"/>
</svg>
