<?xml version="1.0" encoding="UTF-8"?>
<svg version="1.1" viewBox="0 0 48 48" xmlns="http://www.w3.org/2000/svg">
    <path d="m30.432 17.592c6.3648 3.7621 3.2678 7.2975-1.211 7.4975-1.7214-2.9946-6.0444-2.4566-8.4789-0.55718v-1.3748h-2.1604v1.964c-5.8244-1.0277-5.3684-5.3619-0.60163-7.3835-5.2075-3.7886-12.82-3.8686-15.644-2.4794 6.3619 0.35105 10.051 6.4413 6.6942 10.272 3.1168-0.75809 5.0888 0.52993 6.9977 2.7324 0.88894-1.4548 2.5538-0.98137 2.5538-0.98137v6.2847h2.1604l0.03263-5.7263c-0.03263-3.308 6.4653-5.1849 6.3512-0.16562v5.8919h2.454v-6.2847s1.5919-0.5008 2.6849 0.98137c1.4647-2.1295 3.6164-3.5477 7.0376-2.7169-3.9655-5.5727 2.1264-10.288 6.7089-10.288-5.3267-1.8505-11.999-0.01799-15.579 2.3333z" fill="#fff"/>
</svg>
