<?xml version="1.0" encoding="UTF-8"?>
<svg version="1.1" viewBox="0 0 48 48" xmlns="http://www.w3.org/2000/svg">
    <path d="m24 5a8.8986 8.8986 0 0 0-8.8639 8.2058h-0.03476v7.2093a13.051 13.051 0 0 0-4.1527 9.5336 13.051 13.051 0 0 0 13.051 13.051 13.051 13.051 0 0 0 13.051-13.051 13.051 13.051 0 0 0-4.1527-9.522v-7.2209h-0.03013a8.8986 8.8986 0 0 0-8.8685-8.2058zm-0.05562 2.6441a5.9324 5.9324 0 0 1 0.05562 0 5.9324 5.9324 0 0 1 5.9208 5.5756h0.01159v5.119a13.051 13.051 0 0 0-5.9324-1.4414 13.051 13.051 0 0 0-5.9324 1.4275v-5.1051h0.01854a5.9324 5.9324 0 0 1 5.8583-5.5756zm0.05562 13.999a8.3054 8.3054 0 0 1 8.3054 8.3054 8.3054 8.3054 0 0 1-8.3054 8.3054 8.3054 8.3054 0 0 1-8.3054-8.3054 8.3054 8.3054 0 0 1 8.3054-8.3054z" fill="#fff"/>
    <path d="m24 25.421a2.373 2.373 0 0 0-2.373 2.373 2.373 2.373 0 0 0 0.91536 1.8678c-0.01434 0.13296-0.02549 0.26814-0.02549 0.40785v1.1865c0 1.3146 0.66147 2.373 1.4831 2.373s1.4831-1.0583 1.4831-2.373v-1.1865c0-0.13813-0.01147-0.27167-0.02549-0.40322a2.373 2.373 0 0 0 0.91535-1.8724 2.373 2.373 0 0 0-2.373-2.373z" fill="#fff"/>
</svg>
