<?xml version="1.0" encoding="UTF-8" standalone="no"?>
<svg
   width="48"
   height="48"
   viewBox="0 0 12.7 12.7"
   version="1.1"
   id="svg5"
   xmlns="http://www.w3.org/2000/svg"
   xmlns:svg="http://www.w3.org/2000/svg">
  <defs
     id="defs2">
    <style
       id="style909">.cls-1{fill:#fff;}</style>
    <style
       id="style952">.cls-1{fill:#fff;}</style>
  </defs>
  <path
     style="color:#000000;fill:#ffffff;stroke-width:0.264583;-inkscape-stroke:none"
     d="M 6.35,0.52916665 A 5.8208333,5.8208333 0 0 0 0.52916665,6.35 5.8208333,5.8208333 0 0 0 6.35,12.170833 5.8208333,5.8208333 0 0 0 12.170833,6.35 5.8208333,5.8208333 0 0 0 6.35,0.52916665 Z M 7.9488688,5.1950317 h 0.2025717 0.2025716 v 0.202572 0.202571 h 0.1824178 0.1824178 v 0.182418 0.182418 H 8.5364299 8.3540121 v 0.4283975 c 0,0.4197794 0.00285,0.4312419 0.1188559,0.5472535 0.065162,0.065162 0.1562722,0.1188559 0.2025714,0.1188559 0.073996,0 0.084233,0.024434 0.084233,0.2025716 0,0.2022985 -1.614e-4,0.2025716 -0.1338421,0.2025716 -0.078006,0 -0.2113865,-0.049158 -0.3188436,-0.1173057 C 8.1843552,7.2695841 8.0934526,7.1705799 8.0356856,7.0512494 7.9554226,6.8854472 7.9488696,6.8075258 7.9488696,6.0332237 Z m -3.2075562,0.360702 c 0.487024,7.4e-4 0.932856,0.378462 0.970483,0.8986526 l 0.01757,0.2402955 h -0.754476 c -0.458761,0 -0.754992,0.014941 -0.754992,0.038757 0,0.080757 0.2794,0.3146753 0.406177,0.3400308 0.15595,0.03119 0.414941,-0.030426 0.485758,-0.1157553 0.05388,-0.064917 0.526583,-0.089516 0.526583,-0.027389 0,0.075149 -0.303643,0.3804996 -0.455269,0.4578532 -0.180125,0.091893 -0.522088,0.1332039 -0.679546,0.081649 -0.534143,-0.1748922 -0.830868,-0.693415 -0.68833,-1.2025106 0.06884,-0.2458693 0.352473,-0.5594723 0.587045,-0.6490563 0.112237,-0.04286 0.226607,-0.0627 0.338997,-0.06253 z m 4.9325155,9.999e-4 C 10.334327,5.5208737 10.902975,6.2051787 10.646378,6.8770661 10.480977,7.3101671 9.9172919,7.597544 9.4888265,7.4672107 8.9625389,7.3071218 8.658003,6.7762218 8.8004965,6.2672841 8.8693355,6.0214147 9.152969,5.7078126 9.3875408,5.6182287 c 0.095984,-0.03666 0.1919302,-0.05637 0.2862873,-0.0615 z m -6.9391115,0.0093 c 0.263531,-0.02973 0.540164,0.0599 0.728638,0.280087 0.19382,0.226436 0.22996,0.393848 0.22996,1.0660844 V 7.5049336 H 3.4700726 3.2473466 V 6.895152 c 0,-0.4541319 -0.01507,-0.6392089 -0.05891,-0.7239873 -0.119933,-0.231923 -0.482645,-0.264318 -0.674377,-0.06046 -0.09345,0.099363 -0.09822,0.1313464 -0.110588,0.7487914 l -0.01292,0.6454386 H 2.1905636 1.9905757 v -0.661975 c 0,-0.6151952 0.007,-0.675387 0.09457,-0.841292 0.135546,-0.256746 0.386042,-0.4059 0.649573,-0.435633 z m 4.1558188,0.001 c 0.3171685,0.02294 0.5859588,0.185687 0.7534425,0.456303 0.1205663,0.1948076 0.1226286,0.2087356 0.1353922,0.8195881 l 0.01292,0.6216676 H 7.6072884 c -0.1734555,0 -0.1855184,-0.00673 -0.1855184,-0.107487 0,-0.1038148 -0.00243,-0.1051213 -0.078031,-0.03669 C 7.1755425,7.4726304 6.8139285,7.5411754 6.5706595,7.4671763 5.8565776,7.2499626 5.6182337,6.4330304 6.1097057,5.8863936 c 0.227064,-0.252549 0.4494217,-0.343332 0.7808311,-0.31936 z m -0.065112,0.398942 c -0.3792739,-0.0075 -0.6824978,0.3812049 -0.5022948,0.7885825 0.1372555,0.3102883 0.5203539,0.4235413 0.8071857,0.2387452 0.34005,-0.219083 0.319856,-0.7640774 -0.03514,-0.9544637 -0.0906,-0.04859 -0.1822262,-0.07113 -0.2697509,-0.07286 z m -2.1083988,10e-4 c -0.08793,0.0051 -0.173864,0.03313 -0.249597,0.08527 -0.07574,0.05214 -0.164536,0.135878 -0.197404,0.1860353 l -0.05994,0.091467 h 0.531751 c 0.292516,0 0.531751,-0.014637 0.53175,-0.032556 0,-0.017918 -0.06276,-0.093548 -0.139526,-0.1679483 -0.118752,-0.115098 -0.270474,-0.170752 -0.417029,-0.162264 z m 4.9883265,0.0016 c -0.1573755,0.0092 -0.307099,0.08626 -0.4144452,0.2227255 -0.1302105,0.1655352 -0.1463754,0.344787 -0.050643,0.5612058 0.1382313,0.3124949 0.520396,0.4262472 0.8082191,0.2408124 0.350052,-0.2255271 0.315931,-0.7839821 -0.05891,-0.9663497 -0.092528,-0.04502 -0.1897949,-0.06389 -0.2842203,-0.05839 z"
     id="circle969" />
</svg>
