<?xml version="1.0" encoding="UTF-8"?>
<svg xmlns="http://www.w3.org/2000/svg" viewBox="0 0 48 48" version="1.1">
<path d="M24 2A22 22 0 002 24a22 22 0 0022 22 22 22 0 0022-22A22 22 0 0024 2zm.018 6.377a.75.75 0 01.357.1l13.156 7.595a.75.75 0 01.373.65h.002v14.555a.75.75 0 01-.375.65l-4.926 2.846v-7.119l-2.822 1.623v7.16l-5.412 3.088a.739.739 0 01-.336.094c-.012 0-.023.004-.035.004-.012 0-.023-.003-.035-.004a.74.74 0 01-.336-.094l-5.412-3.087v-7.16l-2.822-1.624v7.12l-4.926-2.846a.75.75 0 01-.375-.65V16.722h.002a.75.75 0 01.373-.65l13.156-7.596a.75.75 0 01.393-.1zm-.768 2.049L12.344 16.72l10.906 6.297V10.426zm1.5 0v12.592l10.906-6.297-10.906-6.295zM11.594 18.02v12.825l2.3 1.328v-5.815a.75.75 0 011.124-.65l4.322 2.484a.75.75 0 01.377.65v6.723l3.533 2.016V24.75l-11.656-6.729zm24.812 0L24.75 24.75v12.832l3.533-2.016v-6.722a.75.75 0 01.377-.65l4.322-2.485a.75.75 0 011.123.65v5.815l2.301-1.328V18.02z" fill="#fff"/>
</svg>