<?xml version="1.0" encoding="UTF-8"?>
<svg version="1.1" viewBox="0 0 48 48" xmlns="http://www.w3.org/2000/svg">
    <path d="m24 14.801a9.1987 9.1985 0 0 0-8.5645 5.8418 5.7606 5.7605 0 0 0-4.6758-2.4023 5.7606 5.7605 0 0 0-5.7598 5.7598 5.7606 5.7605 0 0 0 5.7598 5.7617 5.7606 5.7605 0 0 0 4.6816-2.416 9.1987 9.1985 0 0 0 8.5586 5.8535 9.1987 9.1985 0 0 0 8.5645-5.8418 5.7606 5.7605 0 0 0 4.6758 2.4043 5.7606 5.7605 0 0 0 5.7598-5.7617 5.7606 5.7605 0 0 0-5.7598-5.7598 5.7606 5.7605 0 0 0-4.6816 2.4141 9.1987 9.1985 0 0 0-8.5586-5.8535zm0 3.4395a5.7606 5.7605 0 0 1 5.7617 5.7598 5.7606 5.7605 0 0 1-5.7617 5.7598 5.7606 5.7605 0 0 1-5.7598-5.7598 5.7606 5.7605 0 0 1 5.7598-5.7598zm-13.24 3.3184a2.443 2.4429 0 0 1 2.4434 2.4414 2.443 2.4429 0 0 1-2.4434 2.4434 2.443 2.4429 0 0 1-2.4414-2.4434 2.443 2.4429 0 0 1 2.4414-2.4414zm26.48 0a2.443 2.4429 0 0 1 2.4434 2.4414 2.443 2.4429 0 0 1-2.4434 2.4434 2.443 2.4429 0 0 1-2.4434-2.4434 2.443 2.4429 0 0 1 2.4434-2.4414z" fill="#fff" stroke-width=".8216"/>
</svg>
