<svg xmlns="http://www.w3.org/2000/svg" viewBox="0 0 48 48" height="48" width="48">
  <path style="fill:#ffffff" d="M 23.99715,1 C 11.382017,1.0001917 1.0013454,11.381056 1.0013454,23.996467 c 0,0 0,6.7e-4 0,6.7e-4 0,12.615411 10.3806716,22.996275 22.9958046,22.996562 4.208906,-0.0096 8.335798,-1.172521 11.928956,-3.364422 2.826299,1.123167 9.157004,4.455485 10.663744,3.015876 1.574255,-1.503626 -1.848482,-8.580346 -2.669045,-11.210014 2.004882,-3.478848 3.06408,-7.42287 3.071939,-11.438097 C 46.992523,11.381823 36.612139,1.00115 23.997217,1.0007667 Z m 0.0029,8.7429753 c 7.822237,0 14.258953,6.4369377 14.258953,14.2594327 -4.89e-4,7.822113 -6.437071,14.258282 -14.25902,14.258282 -7.821882,0 -14.2584548,-6.436169 -14.2590202,-14.258282 0,0 0,0 0,0 0,-7.822495 6.4367832,-14.2594327 14.2590202,-14.2594327 z" />
</svg>
