<svg
   xmlns="http://www.w3.org/2000/svg" width="48" height="48" viewBox="0 0 48 48">
  <path d="M 23.99561,2.4573009e-5 C 10.832,2.2457301e-4 0,10.832425 0,23.996325 c 0,0 0,7e-4 0,7e-4 0,13.1639 10.832,23.9961 23.99561,23.9964 4.3919,-0.01 8.69822,-1.2235 12.4476,-3.5107 2.94918,1.172 9.55513,4.6492 11.12738,3.147 1.6427,-1.569 -1.92885,-8.9534 -2.78509,-11.6974 2.09205,-3.6301 3.1973,-7.7456 3.2055,-11.9354 C 47.99077,10.833225 37.15907,0.00122457 23.99568,8.2457301e-4 Z M 23.99861,9.1231246 c 8.16233,0 14.8789,6.7168004 14.8789,14.8794004 -5.1e-4,8.1622 -6.71694,14.8782 -14.87897,14.8782 -8.16196,0 -14.87838,-6.716 -14.87897,-14.8782 0,0 0,0 0,0 0,-8.1626 6.71664,-14.8794004 14.87897,-14.8794004 z" style="fill:#ffffff" />
</svg>
