<?xml version="1.0" encoding="UTF-8" standalone="no"?>
<!-- Created with Inkscape (http://www.inkscape.org/) -->

<svg
   xmlns:dc="http://purl.org/dc/elements/1.1/"
   xmlns:cc="http://creativecommons.org/ns#"
   xmlns:rdf="http://www.w3.org/1999/02/22-rdf-syntax-ns#"
   xmlns:svg="http://www.w3.org/2000/svg"
   xmlns="http://www.w3.org/2000/svg"
   xmlns:sodipodi="http://sodipodi.sourceforge.net/DTD/sodipodi-0.dtd"
   xmlns:inkscape="http://www.inkscape.org/namespaces/inkscape"
   width="192"
   height="192"
   viewBox="0 0 50.799997 50.799963"
   version="1.1"
   id="svg91578"
   inkscape:version="0.92.2 2405546, 2018-03-11"
   sodipodi:docname="nextcloud.svg">
  <defs
     id="defs91572" />
  <sodipodi:namedview
     id="base"
     pagecolor="#ffffff"
     bordercolor="#666666"
     borderopacity="1.0"
     inkscape:pageopacity="0.0"
     inkscape:pageshadow="2"
     inkscape:zoom="4.9460646"
     inkscape:cx="79.67285"
     inkscape:cy="96.073842"
     inkscape:document-units="mm"
     inkscape:current-layer="g91602"
     showgrid="false"
     inkscape:window-width="1920"
     inkscape:window-height="1080"
     inkscape:window-x="0"
     inkscape:window-y="0"
     inkscape:window-maximized="1"
     units="px"
     inkscape:pagecheckerboard="true"
     inkscape:showpageshadow="false"
     inkscape:snap-bbox="true"
     inkscape:bbox-paths="true"
     inkscape:bbox-nodes="true"
     inkscape:snap-bbox-edge-midpoints="true"
     inkscape:snap-bbox-midpoints="true"
     inkscape:object-paths="true"
     inkscape:snap-intersection-paths="true"
     inkscape:snap-smooth-nodes="true"
     inkscape:snap-midpoints="true"
     inkscape:snap-object-midpoints="true"
     inkscape:snap-center="true"
     inkscape:snap-text-baseline="true"
     inkscape:measure-start="73.4894,-14.0161"
     inkscape:measure-end="59.0949,-14.016" />
  <metadata
     id="metadata91575">
    <rdf:RDF>
      <cc:Work
         rdf:about="">
        <dc:format>image/svg+xml</dc:format>
        <dc:type
           rdf:resource="http://purl.org/dc/dcmitype/StillImage" />
        <dc:title></dc:title>
      </cc:Work>
    </rdf:RDF>
  </metadata>
  <g
     inkscape:label="Layer 1"
     inkscape:groupmode="layer"
     id="layer1">
    <g
       id="g91602">
      <path
         style="opacity:1;fill:#ffffff;fill-opacity:1;stroke:none;stroke-width:0.61849332;stroke-linecap:round;stroke-linejoin:round;stroke-miterlimit:4;stroke-dasharray:none;stroke-opacity:1"
         d="M 25.399999,14.203961 A 11.196139,11.196139 0 0 0 14.203961,25.4 11.196139,11.196139 0 0 0 25.399999,36.596039 11.196139,11.196139 0 0 0 36.596039,25.4 11.196139,11.196139 0 0 0 25.399999,14.203961 Z m 0,4.184745 A 7.0113527,7.0113527 0 0 1 32.411294,25.4 7.0113527,7.0113527 0 0 1 25.399999,32.411294 7.0113527,7.0113527 0 0 1 18.388706,25.4 7.0113527,7.0113527 0 0 1 25.399999,18.388706 Z"
         id="path864"
         inkscape:connector-curvature="0" />
      <path
         style="opacity:1;fill:#ffffff;fill-opacity:1;stroke:none;stroke-width:0.38731879;stroke-linecap:round;stroke-linejoin:round;stroke-miterlimit:4;stroke-dasharray:none;stroke-opacity:1"
         d="m 9.2858349,18.388707 a 7.0113527,7.0113527 0 0 0 -7.0112932,7.011294 7.0113527,7.0113527 0 0 0 7.0112932,7.011293 7.0113527,7.0113527 0 0 0 7.0112931,-7.011293 7.0113527,7.0113527 0 0 0 -7.0112931,-7.011294 z m 0,4.038251 A 2.9734005,2.9734005 0 0 1 12.259446,25.400001 2.9734005,2.9734005 0 0 1 9.2858349,28.373612 2.9734005,2.9734005 0 0 1 6.312792,25.400001 2.9734005,2.9734005 0 0 1 9.2858349,22.426958 Z"
         id="circle868"
         inkscape:connector-curvature="0" />
      <path
         id="path880"
         d="m 41.514167,18.388704 a 7.0113527,7.0113527 0 0 0 -7.011294,7.011294 7.0113527,7.0113527 0 0 0 7.011294,7.011293 7.0113527,7.0113527 0 0 0 7.011294,-7.011293 7.0113527,7.0113527 0 0 0 -7.011294,-7.011294 z m 0,4.038251 a 2.9734005,2.9734005 0 0 1 2.973611,2.973043 2.9734005,2.9734005 0 0 1 -2.973611,2.973611 2.9734005,2.9734005 0 0 1 -2.973043,-2.973611 2.9734005,2.9734005 0 0 1 2.973043,-2.973043 z"
         style="opacity:1;fill:#ffffff;fill-opacity:1;stroke:none;stroke-width:0.38731879;stroke-linecap:round;stroke-linejoin:round;stroke-miterlimit:4;stroke-dasharray:none;stroke-opacity:1"
         inkscape:connector-curvature="0" />
    </g>
  </g>
</svg>
