<?xml version="1.0" encoding="UTF-8"?>
<svg version="1.1" viewBox="0 0 48 48" xmlns="http://www.w3.org/2000/svg">
    <path d="m7 5.9082c-1.1081 0-2 0.89195-2 2v22.001c0 1.1081 0.89195 2 2 2h5.8682s10.015 6.0422 15.022 9.063c2.5902 1.457 3.3247 1.6081 2.3746-0.24238-1.5184-2.9432-4.5737-8.8201-4.5737-8.8201s10.206-5.29e-4 15.309-5.29e-4c1.1081 0 2-0.89194 2-2v-22.001c0-1.1081-0.89195-2-2-2zm3 4.2687h28.002c1.1081 0 2 0.7584 2 1.7003 0 0.94185-0.89195 1.7003-2 1.7003h-28.002c-1.1081 0-2-0.7584-2-1.7003 0-0.94186 0.89195-1.7003 2-1.7003zm0 7.032h28.002c1.1081 0 2 0.7584 2 1.7003s-0.89195 1.6997-2 1.6997h-28.002c-1.1081 0-2-0.7579-2-1.6997 0-0.94186 0.89195-1.7003 2-1.7003zm0 7.031h10.001c1.1081 0 2 0.7584 2 1.7003 0 0.94186-0.89195 1.7003-2 1.7003h-10.001c-1.1081 0-2-0.7584-2-1.7003 0-0.94185 0.89195-1.7003 2-1.7003z" fill="#fff" stroke-width=".89004"/>
</svg>
