<?xml version="1.0" encoding="UTF-8"?>
<svg version="1.1" viewBox="0 0 48 48" xmlns="http://www.w3.org/2000/svg">
    <g transform="matrix(.82161 0 0 .82159 3.1313 3.1317)" fill="#fff">
        <path d="M 25.4,14.204 A 11.196,11.196 0 0 0 14.204,25.4 11.196,11.196 0 0 0 25.4,36.596 11.196,11.196 0 0 0 36.596,25.4 11.196,11.196 0 0 0 25.4,14.204 Z m 0,4.1847 A 7.0114,7.0114 0 0 1 32.4113,25.4 7.0114,7.0114 0 0 1 25.4,32.4113 7.0114,7.0114 0 0 1 18.3887,25.4 7.0114,7.0114 0 0 1 25.4,18.3887 Z"/>
        <path d="m9.2858 18.389a7.0114 7.0114 0 0 0-7.0113 7.0113 7.0114 7.0114 0 0 0 7.0113 7.0113 7.0114 7.0114 0 0 0 7.0113-7.0113 7.0114 7.0114 0 0 0-7.0113-7.0113zm0 4.0383a2.9734 2.9734 0 0 1 2.9736 2.973 2.9734 2.9734 0 0 1-2.9736 2.9736 2.9734 2.9734 0 0 1-2.973-2.9736 2.9734 2.9734 0 0 1 2.973-2.973z"/>
        <path d="m41.514 18.389a7.0114 7.0114 0 0 0-7.0113 7.0113 7.0114 7.0114 0 0 0 7.0113 7.0113 7.0114 7.0114 0 0 0 7.0113-7.0113 7.0114 7.0114 0 0 0-7.0113-7.0113zm0 4.0383a2.9734 2.9734 0 0 1 2.9736 2.973 2.9734 2.9734 0 0 1-2.9736 2.9736 2.9734 2.9734 0 0 1-2.973-2.9736 2.9734 2.9734 0 0 1 2.973-2.973z"/>
    </g>
</svg>
