<?xml version="1.0" encoding="UTF-8" standalone="no"?>
<svg
   xmlns:dc="http://purl.org/dc/elements/1.1/"
   xmlns:cc="http://creativecommons.org/ns#"
   xmlns:rdf="http://www.w3.org/1999/02/22-rdf-syntax-ns#"
   xmlns:svg="http://www.w3.org/2000/svg"
   xmlns="http://www.w3.org/2000/svg"
   xmlns:sodipodi="http://sodipodi.sourceforge.net/DTD/sodipodi-0.dtd"
   xmlns:inkscape="http://www.inkscape.org/namespaces/inkscape"
   width="48"
   height="48"
   viewBox="0 0 48 48"
   version="1.1"
   id="svg4516"
   sodipodi:docname="nfctools.svg"
   inkscape:version="0.92.1 r">
  <metadata
     id="metadata4522">
    <rdf:RDF>
      <cc:Work
         rdf:about="">
        <dc:format>image/svg+xml</dc:format>
        <dc:type
           rdf:resource="http://purl.org/dc/dcmitype/StillImage" />
        <dc:title></dc:title>
      </cc:Work>
    </rdf:RDF>
  </metadata>
  <defs
     id="defs4520" />
  <sodipodi:namedview
     pagecolor="#ffffff"
     bordercolor="#666666"
     borderopacity="1"
     objecttolerance="10"
     gridtolerance="10"
     guidetolerance="10"
     inkscape:pageopacity="0"
     inkscape:pageshadow="2"
     inkscape:window-width="640"
     inkscape:window-height="480"
     id="namedview4518"
     showgrid="false"
     inkscape:pagecheckerboard="true"
     inkscape:showpageshadow="false"
     inkscape:zoom="10.184211"
     inkscape:cx="8.5706695"
     inkscape:cy="19.930688"
     inkscape:current-layer="svg4516" />
  <path
     style="fill:#ffffff"
     d="M 7 5 C 5.892 5 5 5.892 5 7 L 5 41 C 5 42.108 5.892 43 7 43 L 41 43 C 42.108 43 43 42.108 43 41 L 43 7 C 43 5.892 42.108 5 41 5 L 7 5 z M 11.626953 13.630859 L 21.162109 13.630859 C 22.056768 13.630859 22.777344 14.349482 22.777344 15.244141 L 22.777344 32.755859 C 22.777344 33.650518 22.056768 34.369141 21.162109 34.369141 L 11.626953 34.369141 C 10.732295 34.369141 10.011719 33.650518 10.011719 32.755859 L 10.011719 15.244141 C 10.011719 14.349482 10.732295 13.630859 11.626953 13.630859 z M 32.984375 14.09375 C 36.00302 16.365487 37.988281 19.943655 37.988281 24 C 37.988281 28.057097 36.002025 31.634855 32.982422 33.90625 L 31.361328 31.742188 C 33.750526 29.950544 35.392578 27.228029 35.392578 24 C 35.392578 20.772173 33.750322 18.050003 31.361328 16.257812 L 32.984375 14.09375 z M 13.214844 15.289062 C 12.221991 15.289064 11.423828 16.087225 11.423828 17.080078 L 11.423828 29.8125 C 11.423828 30.805353 12.221991 31.605469 13.214844 31.605469 L 19.574219 31.605469 C 20.567071 31.605469 21.365234 30.805353 21.365234 29.8125 L 21.365234 17.080078 C 21.365234 16.087225 20.567071 15.289062 19.574219 15.289062 L 13.214844 15.289062 z M 30.326172 17.634766 C 32.294076 19.115747 33.65625 21.359417 33.65625 24 C 33.65625 26.64058 32.294076 28.884253 30.326172 30.365234 L 28.804688 28.333984 C 30.141436 27.332481 31.058594 25.810969 31.058594 24 C 31.058594 22.189099 30.141436 20.667587 28.804688 19.666016 L 30.326172 17.634766 z M 27.849609 20.9375 A 3.832073 3.832073 0 0 1 29.386719 24 A 3.832073 3.832073 0 0 1 27.849609 27.0625 L 25.554688 24 L 27.849609 20.9375 z "
     id="path5077" />
</svg>
