<?xml version="1.0" encoding="UTF-8" standalone="no"?>
<svg
   xmlns:dc="http://purl.org/dc/elements/1.1/"
   xmlns:cc="http://creativecommons.org/ns#"
   xmlns:rdf="http://www.w3.org/1999/02/22-rdf-syntax-ns#"
   xmlns:svg="http://www.w3.org/2000/svg"
   xmlns="http://www.w3.org/2000/svg"
   xmlns:sodipodi="http://sodipodi.sourceforge.net/DTD/sodipodi-0.dtd"
   xmlns:inkscape="http://www.inkscape.org/namespaces/inkscape"
   width="48"
   height="48"
   viewBox="0 0 48 48"
   version="1.1"
   id="svg4516"
   sodipodi:docname="nfctasks.svg"
   inkscape:version="0.92.1 r">
  <metadata
     id="metadata4522">
    <rdf:RDF>
      <cc:Work
         rdf:about="">
        <dc:format>image/svg+xml</dc:format>
        <dc:type
           rdf:resource="http://purl.org/dc/dcmitype/StillImage" />
        <dc:title></dc:title>
      </cc:Work>
    </rdf:RDF>
  </metadata>
  <defs
     id="defs4520" />
  <sodipodi:namedview
     pagecolor="#ffffff"
     bordercolor="#666666"
     borderopacity="1"
     objecttolerance="10"
     gridtolerance="10"
     guidetolerance="10"
     inkscape:pageopacity="0"
     inkscape:pageshadow="2"
     inkscape:window-width="640"
     inkscape:window-height="480"
     id="namedview4518"
     showgrid="false"
     inkscape:pagecheckerboard="true"
     inkscape:showpageshadow="false"
     inkscape:zoom="10.184211"
     inkscape:cx="8.5706695"
     inkscape:cy="19.930688"
     inkscape:current-layer="svg4516" />
  <path
     style="fill:#ffffff"
     d="M 7 5 C 5.892 5 5 5.892 5 7 L 5 41 C 5 42.108 5.892 43 7 43 L 41 43 C 42.108 43 43 42.108 43 41 L 43 7 C 43 5.892 42.108 5 41 5 L 7 5 z M 33.373047 13.308594 C 36.631069 15.760478 38.773438 19.62199 38.773438 24 C 38.773438 28.378822 36.630149 32.239891 33.371094 34.691406 L 31.621094 32.355469 C 34.199754 30.421748 35.972656 27.48401 35.972656 24 C 35.972656 20.516209 34.199533 17.57884 31.621094 15.644531 L 33.373047 13.308594 z M 14.804688 16.78125 L 17.693359 16.78125 C 17.873835 16.78125 18.020254 16.914338 18.052734 17.083984 L 18.324219 18.998047 C 18.764579 19.182132 19.173141 19.423832 19.544922 19.708984 L 21.341797 18.982422 C 21.504225 18.917452 21.69101 18.983461 21.78125 19.138672 L 23.226562 21.638672 C 23.316799 21.797491 23.275833 21.993281 23.138672 22.101562 L 21.613281 23.296875 C 21.642161 23.527885 21.662109 23.761772 21.662109 24 C 21.662109 24.238226 21.642151 24.472117 21.613281 24.703125 L 23.134766 25.898438 C 23.271926 26.010333 23.312896 26.206117 23.222656 26.361328 L 21.779297 28.861328 A 0.36095134 0.36095134 0 0 1 21.337891 29.017578 L 19.541016 28.291016 A 5.3420798 5.3420798 0 0 1 18.320312 29.001953 L 18.050781 30.916016 C 18.021904 31.085662 17.873835 31.21875 17.693359 31.21875 L 14.804688 31.21875 C 14.624212 31.21875 14.476136 31.085662 14.447266 30.916016 L 14.177734 29.001953 C 13.737374 28.81787 13.328812 28.576169 12.957031 28.291016 L 11.160156 29.017578 C 10.997728 29.082549 10.80899 29.016537 10.71875 28.861328 L 9.2753906 26.361328 C 9.1851567 26.202507 9.2241675 26.006719 9.3613281 25.898438 L 10.884766 24.703125 C 10.855886 24.472117 10.833984 24.238226 10.833984 24 A 5.666936 5.666936 0 0 1 10.884766 23.296875 L 9.3613281 22.101562 C 9.2241671 21.989666 9.1851546 21.79388 9.2753906 21.638672 L 10.71875 19.138672 A 0.36095134 0.36095134 0 0 1 11.160156 18.982422 L 12.957031 19.708984 A 5.3420798 5.3420798 0 0 1 14.177734 18.998047 L 14.447266 17.083984 C 14.476143 16.914338 14.624211 16.78125 14.804688 16.78125 z M 30.503906 17.130859 C 32.627863 18.729282 34.097656 21.150021 34.097656 24 C 34.097656 26.849977 32.627863 29.270719 30.503906 30.869141 L 28.861328 28.677734 C 30.30408 27.596813 31.294922 25.954578 31.294922 24 C 31.294922 22.045496 30.30408 20.403261 28.861328 19.322266 L 30.503906 17.130859 z M 27.832031 20.695312 A 4.135954 4.135954 0 0 1 29.490234 24 A 4.135954 4.135954 0 0 1 27.832031 27.304688 L 25.353516 24 L 27.832031 20.695312 z M 16.248047 21.472656 C 14.851166 21.472656 13.722656 22.60312 13.722656 24 C 13.722656 25.396882 14.851166 26.527344 16.248047 26.527344 C 17.644929 26.527344 18.775391 25.396882 18.775391 24 C 18.775391 22.60312 17.644929 21.472656 16.248047 21.472656 z "
     id="rect4563" />
</svg>
