<?xml version="1.0" encoding="utf-8"?>
<!-- Generator: Adobe Illustrator 23.0.3, SVG Export Plug-In . SVG Version: 6.00 Build 0)  -->
<svg version="1.1" id="Layer_1" xmlns="http://www.w3.org/2000/svg" xmlns:xlink="http://www.w3.org/1999/xlink" x="0px" y="0px"
	 viewBox="0 0 48 48" style="enable-background:new 0 0 48 48;" xml:space="preserve">
<style type="text/css">
	.st0{fill:#FFFFFF;}
</style>
<title>NOS</title>
<g>
	<path class="st0" d="M24.6,21.3c-1.5,0-2.7,1.2-2.7,2.7c0,1.5,1.2,2.7,2.7,2.7s2.7-1.2,2.7-2.7S26,21.3,24.6,21.3
		C24.6,21.3,24.6,21.3,24.6,21.3z"/>
	<path class="st0" d="M24,2C11.8,2,2,11.8,2,24s9.8,22,22,22s22-9.8,22-22S36.2,2,24,2z M17.6,29.3h-2.4l-2.5-3.5
		c-0.5-0.6-1.4-2-1.6-2.5c0.1,0.9,0.1,1.8,0.1,2.7v3.2H8.4V18.8H11l2.3,3.1c0.5,0.6,1.4,2,1.6,2.5c-0.1-0.5-0.1-1.9-0.1-2.7v-2.8
		h2.8L17.6,29.3z M24.6,29.5c-3,0-5.5-2.4-5.5-5.4s2.4-5.5,5.4-5.5c3,0,5.5,2.4,5.5,5.4c0,0,0,0,0,0C30,27,27.6,29.5,24.6,29.5z
		 M35.2,29.4c-1.6,0-3.1-0.4-4.4-1.3l1.4-2.3c0.9,0.6,2,0.9,3.1,1c1,0,1.4-0.2,1.4-0.7s-0.4-0.6-1.8-1c-2.5-0.6-3.7-1.3-3.7-3.4
		s1.6-3.3,4.1-3.3c1.5-0.1,2.9,0.4,4.2,1.2L38,22.1c-0.8-0.6-1.9-1-2.9-1c-0.9,0-1.1,0.3-1.1,0.6s0.4,0.6,1.7,0.9
		c2.6,0.6,3.8,1.4,3.8,3.4C39.6,28.4,37.8,29.4,35.2,29.4z"/>
</g>
</svg>
