<svg height="48" viewBox="0 0 12.7 12.7" width="48" xmlns="http://www.w3.org/2000/svg"><path d="m1.8520832 1.3229165c-.2931584 0-.5291667.236007-.5291667.529167v3.859196c.5190114.05043 2.7404822.157155 3.9584148-1.532723.2236256-.30754.7042074-.05651.5798096.302824 0 0-.1121289.342695-.085783.679545.055599.25732.1132247.490477.4201295.581877.068346-.13065.094853-.227001.4258141-.638721.39915-.496549 1.077536-1.226834 2.139921-2.193665h-.763261v-.529166h1.5875c.146124 0 .264581.118463.264583.264583v1.5875h-.529166v-.936894c-1.109626 1.001007-1.798727 1.742348-2.184363 2.222087-.306699.38154-.306525.423764-.353467.513664.921861.37334 1.473793.819384 1.590084 1.345654.06584.29794-.0074.591208-.154513.818038-.147141.22683-.361851.397916-.601514.510046-.479325.22425-1.127478.217916-1.5291051-.250114-.3618521-.42168-.3979918-1.14922-.1271241-2.13682-.5152623-.21714-.7845851-.52228-.839742-1.14825-1.3952333 1.198319-3.2041316 1.221848-3.7982178 1.194242v4.4829305c0 .29316.2360083.529167.5291667.529167h8.9958338c.293158 0 .529167-.236007.529167-.529167v-8.9958335c0-.29316-.236009-.529167-.529167-.529167zm1.3833782 1.058334h1.3229166v.529166h-1.0583333v1.058334h-.5291667v-1.322917a.26458331.26458331 0 0 1 .2645834-.264583zm3.2835201 4.066418c-.07719.54597-.05035 1.435468.0708 1.576648.170721.19892.468771.212936.748275.08217.139752-.06538.258831-.166081.326078-.269751.06725-.10367.08843-.19905.06253-.31626-.03886-.17588-.198767-.578489-.751892-.860929zm-3.5481035 2.283582h.5291667v1.058333h1.0583333v.5291675h-1.3229166a.26458331.26458331 0 0 1 -.2645834-.264584zm6.3500005 0h.529166v1.3229155a.26458331.26458331 0 0 1 -.264583.264584h-1.322917v-.5291665h1.058334z" fill="#fff" stroke-width=".264583"/></svg>