<?xml version="1.0" encoding="UTF-8" standalone="no"?>
<svg
   xmlns:dc="http://purl.org/dc/elements/1.1/"
   xmlns:cc="http://creativecommons.org/ns#"
   xmlns:rdf="http://www.w3.org/1999/02/22-rdf-syntax-ns#"
   xmlns:svg="http://www.w3.org/2000/svg"
   xmlns="http://www.w3.org/2000/svg"
   xmlns:sodipodi="http://sodipodi.sourceforge.net/DTD/sodipodi-0.dtd"
   xmlns:inkscape="http://www.inkscape.org/namespaces/inkscape"
   width="48"
   height="48"
   viewBox="0 0 48 48"
   version="1.1"
   id="svg4"
   sodipodi:docname="notepad.svg"
   inkscape:version="0.92.3 (2405546, 2018-03-11)">
  <metadata
     id="metadata10">
    <rdf:RDF>
      <cc:Work
         rdf:about="">
        <dc:format>image/svg+xml</dc:format>
        <dc:type
           rdf:resource="http://purl.org/dc/dcmitype/StillImage" />
        <dc:title></dc:title>
      </cc:Work>
    </rdf:RDF>
  </metadata>
  <defs
     id="defs8" />
  <sodipodi:namedview
     pagecolor="#ffffff"
     bordercolor="#666666"
     borderopacity="1"
     objecttolerance="10"
     gridtolerance="10"
     guidetolerance="10"
     inkscape:pageopacity="0"
     inkscape:pageshadow="2"
     inkscape:window-width="2560"
     inkscape:window-height="1385"
     id="namedview6"
     showgrid="false"
     inkscape:zoom="13.906433"
     inkscape:cx="37.661322"
     inkscape:cy="15.640697"
     inkscape:window-x="1920"
     inkscape:window-y="27"
     inkscape:window-maximized="1"
     inkscape:current-layer="svg4"
     inkscape:pagecheckerboard="true" />
  <path
     d="M 24 2 A 22 22 0 0 0 2 24 A 22 22 0 0 0 24 46 A 22 22 0 0 0 46 24 A 22 22 0 0 0 24 2 z M 16 8.2226562 C 16.077471 8.2153775 16.155774 8.2180369 16.230469 8.2324219 C 16.695579 8.3219939 16.773438 8.6063816 16.773438 10.210938 C 16.773438 11.901034 16.713263 12.092957 16.160156 12.171875 C 15.798409 12.223485 15.472132 12.065682 15.365234 11.787109 C 15.102566 11.102608 15.15082 8.9730362 15.439453 8.5175781 C 15.541297 8.3568722 15.767586 8.2444926 16 8.2226562 z M 21.201172 8.2226562 C 21.278643 8.2153775 21.356945 8.2180369 21.431641 8.2324219 C 21.896751 8.3219939 21.974609 8.6063816 21.974609 10.210938 C 21.974609 11.877423 21.909184 12.094854 21.384766 12.169922 C 21.060404 12.216352 20.702488 12.161515 20.589844 12.048828 C 20.302226 11.76121 20.342061 8.988695 20.640625 8.5175781 C 20.742468 8.3568722 20.968757 8.2444926 21.201172 8.2226562 z M 26.400391 8.2226562 C 26.477862 8.2153775 26.556164 8.2180369 26.630859 8.2324219 C 27.095968 8.3219939 27.175781 8.6063816 27.175781 10.210938 C 27.175781 11.877423 27.110356 12.094854 26.585938 12.169922 C 26.261577 12.216352 25.90366 12.161515 25.791016 12.048828 C 25.503398 11.76121 25.543232 8.988695 25.841797 8.5175781 C 25.943641 8.3568722 26.167976 8.2444926 26.400391 8.2226562 z M 31.798828 8.328125 C 32.317419 8.328125 32.375 8.5216105 32.375 10.207031 C 32.375 11.946182 32.327593 12.090572 31.712891 12.177734 C 31.069193 12.269004 31.051435 12.213242 31.134766 10.300781 C 31.211056 8.5498816 31.285801 8.328125 31.798828 8.328125 z M 31.806641 8.5683594 C 31.565053 8.4836739 31.365234 9.194941 31.365234 10.367188 C 31.365234 11.887889 31.69617 12.421794 32.056641 11.482422 C 32.281895 10.89542 32.281603 9.5178791 32.056641 8.9316406 C 31.973175 8.7141325 31.88717 8.5965879 31.806641 8.5683594 z M 21.351562 8.5976562 C 21.310407 8.5953756 21.265552 8.6090005 21.220703 8.6367188 C 20.927068 8.8181953 20.865851 11.457647 21.148438 11.740234 C 21.531021 12.122817 21.830077 11.578767 21.830078 10.501953 C 21.830078 9.3446686 21.639651 8.6136206 21.351562 8.5976562 z M 26.517578 8.6074219 C 26.49734 8.5998256 26.475685 8.6032449 26.453125 8.6171875 C 26.294214 8.7154005 26.164062 9.5025543 26.164062 10.367188 C 26.164062 11.23182 26.294214 11.939453 26.453125 11.939453 C 26.613954 11.939453 26.742188 11.163918 26.742188 10.189453 C 26.742188 9.2326305 26.659242 8.6605955 26.517578 8.6074219 z M 16.193359 8.796875 C 16.040751 8.8248932 15.873306 9.3588875 15.818359 10.376953 C 15.751859 11.609001 15.821393 11.968386 16.107422 11.873047 C 16.351971 11.791527 16.484375 11.223657 16.484375 10.253906 C 16.484375 9.2459287 16.345968 8.7688568 16.193359 8.796875 z M 18.810547 11.361328 C 19.79336 11.361328 20.09553 11.482166 20.236328 11.925781 C 20.542261 12.88969 21.566451 12.988144 22.257812 12.121094 C 22.739334 11.51721 23.112211 11.361328 24.080078 11.361328 C 24.976944 11.361328 25.296875 11.478806 25.296875 11.802734 C 25.296875 12.044508 25.638043 12.396102 26.054688 12.585938 C 26.736539 12.89661 26.874281 12.852827 27.4375 12.146484 C 27.940228 11.516002 28.303407 11.361328 29.28125 11.361328 C 30.178116 11.361328 30.498047 11.478806 30.498047 11.802734 C 30.498047 12.044508 30.839215 12.396102 31.255859 12.585938 C 31.943018 12.899029 32.076196 12.852585 32.6875 12.085938 C 33.282295 11.339994 33.455039 11.27559 34.167969 11.525391 L 34.976562 11.806641 L 36.341797 19.748047 C 37.09254 24.114851 38.043556 29.665011 38.457031 32.083984 C 38.870503 34.502955 39.126337 36.615962 39.025391 36.779297 C 38.903653 36.976272 33.947836 37.076172 24.304688 37.076172 C 12.628863 37.076172 9.7029443 37.001028 9.4492188 36.695312 C 9.2169514 36.415447 9.394359 34.71393 10.117188 30.267578 C 10.65795 26.941178 11.512374 21.489478 12.015625 18.152344 C 12.518874 14.81521 13.063888 11.921295 13.226562 11.722656 C 13.683668 11.164492 14.330417 11.291946 15.064453 12.083984 C 15.912053 12.99856 16.49059 12.99856 17.089844 12.083984 C 17.473719 11.498116 17.798728 11.361328 18.810547 11.361328 z M 23.816406 13.966797 C 17.769822 13.963397 15.763409 14.050642 15.548828 14.324219 C 15.295413 14.647305 12.294922 32.519133 12.294922 33.705078 C 12.294922 34.148969 13.259945 34.1875 24.140625 34.1875 C 31.632394 34.1875 35.988281 34.084178 35.988281 33.90625 C 35.988281 32.625253 32.442087 14.381428 32.158203 14.201172 C 31.95954 14.075029 28.206732 13.969231 23.816406 13.966797 z M 17.496094 17.140625 L 24.015625 17.140625 L 30.535156 17.140625 L 30.445312 17.935547 L 30.353516 18.730469 L 24.123047 18.808594 C 20.696232 18.851334 17.802317 18.796458 17.693359 18.6875 C 17.584402 18.578543 17.496094 18.185246 17.496094 17.814453 L 17.496094 17.140625 z M 23.996094 21.185547 C 29.914278 21.185547 31.076172 21.253119 31.076172 21.595703 C 31.076172 21.821072 31.153543 22.211527 31.25 22.462891 C 31.407118 22.872335 30.652142 22.919922 23.996094 22.919922 C 17.340046 22.919922 16.585068 22.872335 16.742188 22.462891 C 16.838644 22.211527 16.917969 21.821072 16.917969 21.595703 C 16.917969 21.253121 18.07791 21.185547 23.996094 21.185547 z M 19.472656 25.271484 C 20.612211 25.261573 22.133365 25.278337 24.162109 25.298828 L 31.798828 25.375 L 31.888672 26.314453 L 31.978516 27.253906 L 24.015625 27.253906 L 16.050781 27.253906 L 16.054688 26.603516 C 16.061812 25.56097 16.053993 25.301217 19.472656 25.271484 z M 24.068359 29.632812 C 28.716509 29.590682 32.521267 29.655759 32.523438 29.777344 C 32.525638 29.898928 32.607303 30.290888 32.703125 30.648438 L 32.876953 31.298828 L 24.15625 31.298828 L 15.435547 31.298828 L 15.527344 30.503906 L 15.617188 29.708984 L 24.068359 29.632812 z "
     id="circle2"
     style="fill:#ffffff;fill-opacity:1" />
</svg>
