<?xml version="1.0" encoding="UTF-8"?>
<svg version="1.1" viewBox="0 0 48 48" xmlns="http://www.w3.org/2000/svg">
    <path d="m24 2c-12.15 0-22 9.8497-22 22s9.8497 22 22 22 22-9.8497 22-22-9.8497-22-22-22zm-7.8848 6.2754c1.5383 0.038094 1.6122 3.8812 0 3.8789-1.6122-0.0023-1.5383-3.917 0-3.8789zm5.2334 0c1.4757 0.00576 1.3206 3.8573 0 3.8789-1.3206 0.02164-1.4757-3.8847 0-3.8789zm5.1231 3.8789c-1.4092-8e-3 -1.5703-3.8786 0-3.8789s1.4038 3.8362 0 3.8789zm5.2881-3.8789c1.2988 0.00886 1.3909 3.9 0 3.8789-1.3909-0.02114-1.2988-3.8878 0-3.8789zm0 0.49316c-0.88472-0.034857-0.91806 2.8207 0 2.8623 0.91806 0.04164 0.88472-2.8274 0-2.8623zm-10.411 0c-0.91977-0.035682-0.91291 2.8698 0 2.8623 0.91291-0.0075 0.91977-2.8266 0-2.8623zm5.1231 0c-0.9547-0.00936-0.86237 2.8635 0 2.8623s0.9547-2.8529 0-2.8623zm-10.372 0c-0.9419-0.029691-0.89013 2.8671-0.01563 2.8623 0.8745-0.0048 0.95752-2.8326 0.01563-2.8623zm2.7109 2.8623c1.5642-0.0058 0.97576 1.0522 2.475 1.0877 1.4992 0.03549 1.3549-1.1216 2.7945-1.0877 1.4397 0.03397 1.3291 1.0968 2.5049 1.0877 1.1758-0.0092 1.271-1.0679 2.6962-1.0877 1.4253-0.01977 0.89415 1.0579 2.4607 1.0877 1.5666 0.02974 2.2844-1.0877 2.2844-1.0877l4.999 25.064h-29.576c1.2466-7.4116 4.2193-25.098 4.2193-25.098s1.025 1.1882 2.4345 1.1213c1.5776 0.01596 1.0608-1.0674 2.7075-1.0877zm-3.2617 2.6934-3.2539 19.582h23.693l-3.8301-19.582zm15.088 2.5367 0.35213 1.8871h-13.91l0.30532-1.8871zm0.76612 4.2517 0.32438 1.716h-15.286l0.2737-1.716zm0.76013 4.1161 0.36347 1.9333h-16.787l0.31296-1.9333zm0.75176 4.3414 0.37113 1.9243h-18.224l0.30108-1.9243z" fill="#fff"/>
</svg>
