<?xml version="1.0" encoding="UTF-8" standalone="no"?>
<svg
   xmlns:dc="http://purl.org/dc/elements/1.1/"
   xmlns:cc="http://creativecommons.org/ns#"
   xmlns:rdf="http://www.w3.org/1999/02/22-rdf-syntax-ns#"
   xmlns:svg="http://www.w3.org/2000/svg"
   xmlns="http://www.w3.org/2000/svg"
   xmlns:sodipodi="http://sodipodi.sourceforge.net/DTD/sodipodi-0.dtd"
   xmlns:inkscape="http://www.inkscape.org/namespaces/inkscape"
   width="48"
   height="48"
   viewBox="0 0 48 48"
   version="1.1"
   id="svg4"
   sodipodi:docname="notepad.svg"
   inkscape:version="0.92.3 (2405546, 2018-03-11)">
  <metadata
     id="metadata10">
    <rdf:RDF>
      <cc:Work
         rdf:about="">
        <dc:format>image/svg+xml</dc:format>
        <dc:type
           rdf:resource="http://purl.org/dc/dcmitype/StillImage" />
        <dc:title />
      </cc:Work>
    </rdf:RDF>
  </metadata>
  <defs
     id="defs8" />
  <sodipodi:namedview
     pagecolor="#ffffff"
     bordercolor="#666666"
     borderopacity="1"
     objecttolerance="10"
     gridtolerance="10"
     guidetolerance="10"
     inkscape:pageopacity="0"
     inkscape:pageshadow="2"
     inkscape:window-width="2560"
     inkscape:window-height="1385"
     id="namedview6"
     showgrid="false"
     inkscape:zoom="16"
     inkscape:cx="29.805496"
     inkscape:cy="20.170247"
     inkscape:window-x="1920"
     inkscape:window-y="27"
     inkscape:window-maximized="1"
     inkscape:current-layer="svg4"
     inkscape:pagecheckerboard="true" />
  <path
     d="M 24,2 C 11.849736,2 2,11.849736 2,24 2,36.150264 11.849736,46 24,46 36.150264,46 46,36.150264 46,24 46,11.849736 36.150264,2 24,2 Z m -7.884767,6.2753906 c 1.538313,0.038094 1.612238,3.8812334 0,3.8789104 -1.612238,-0.0023 -1.538313,-3.9170044 0,-3.8789104 z m 5.233391,0 c 1.475656,0.00576 1.320646,3.8572674 0,3.8789104 -1.320645,0.02164 -1.475655,-3.88467 0,-3.8789104 z m 5.123056,3.8789104 c -1.409174,-0.008 -1.57029,-3.8785783 0,-3.8789104 1.57029,-3.321e-4 1.40385,3.8361754 0,3.8789104 z m 5.288078,-3.8789104 c 1.298797,0.00886 1.390899,3.9000494 0,3.8789104 -1.390896,-0.02114 -1.298797,-3.8877724 0,-3.8789104 z m 0,0.4931641 c -0.884723,-0.034857 -0.918058,2.8206703 0,2.8623053 0.918058,0.04164 0.884723,-2.8274485 0,-2.8623053 z m -10.411134,0 c -0.919769,-0.035682 -0.912913,2.8698053 0,2.8623053 0.912914,-0.0075 0.91977,-2.8266232 0,-2.8623053 z m 5.123056,0 c -0.9547,-0.00936 -0.862366,2.8635053 0,2.8623053 0.862366,-0.0012 0.9547,-2.8529475 0,-2.8623053 z m -10.372072,0 c -0.9419,-0.029691 -0.890128,2.8670633 -0.01563,2.8623053 0.874503,-0.0048 0.957525,-2.8326142 0.01563,-2.8623053 z m 2.710939,2.8623053 c 1.564195,-0.0058 0.975756,1.052176 2.474993,1.087661 1.499237,0.03549 1.354883,-1.121634 2.794538,-1.087661 1.439655,0.03397 1.329137,1.09684 2.50494,1.087661 1.175803,-0.0092 1.270966,-1.067892 2.696232,-1.087661 1.425266,-0.01977 0.894151,1.057915 2.460745,1.087661 1.566594,0.02974 2.284392,-1.087661 2.284392,-1.087661 l 4.999004,25.064457 H 9.4492188 c 1.2465772,-7.411579 4.2192852,-25.09808 4.2192852,-25.09808 0,0 1.024957,1.188225 2.434512,1.121284 1.577616,0.01596 1.06079,-1.067414 2.707531,-1.087661 z M 15.548828,14.324219 12.294922,33.90625 H 35.988281 L 32.158203,14.324219 Z m 15.088023,2.536745 0.352126,1.887128 H 17.079415 l 0.305318,-1.887128 z m 0.766122,4.251685 0.324384,1.715968 h -15.28615 l 0.273703,-1.715968 z m 0.760129,4.116059 0.363473,1.933296 H 15.74006 l 0.31296,-1.933296 z m 0.751755,4.34144 0.371127,1.924259 H 15.06207 l 0.301078,-1.924259 z"
     id="circle2"
     style="fill:#ffffff;fill-opacity:1"
     inkscape:connector-curvature="0"
     sodipodi:nodetypes="ssssszzzzzzczczzzzzzzzzzzzzzzczzzzzccccccccccccccccccccccccccccccc" />
</svg>
