<?xml version="1.0" encoding="UTF-8" standalone="no"?>
<svg
   xmlns:dc="http://purl.org/dc/elements/1.1/"
   xmlns:cc="http://creativecommons.org/ns#"
   xmlns:rdf="http://www.w3.org/1999/02/22-rdf-syntax-ns#"
   xmlns:svg="http://www.w3.org/2000/svg"
   xmlns="http://www.w3.org/2000/svg"
   id="svg4991"
   version="1.1"
   viewBox="0 0 48 48"
   height="48"
   width="48">
  <metadata
     id="metadata4997">
    <rdf:RDF>
      <cc:Work
         rdf:about="">
        <dc:format>image/svg+xml</dc:format>
        <dc:type
           rdf:resource="http://purl.org/dc/dcmitype/StillImage" />
        <dc:title></dc:title>
      </cc:Work>
    </rdf:RDF>
  </metadata>
  <defs
     id="defs4995" />
  <path
     id="circle5828"
     d="M 24 2 A 22 22 0 0 0 2 24 A 22 22 0 0 0 24 46 A 22 22 0 0 0 46 24 A 22 22 0 0 0 24 2 z M 31.167969 12.427734 C 31.784571 12.393776 32.434671 12.616312 33.013672 13.195312 L 34.830078 15.011719 C 35.786287 15.967909 35.788221 17.545762 34.832031 18.501953 L 33.435547 19.896484 L 28.128906 14.591797 L 29.525391 13.195312 C 29.968558 12.752146 30.551366 12.461693 31.167969 12.427734 z M 26.185547 16.535156 L 31.490234 21.841797 L 22.320312 31.009766 L 19.617188 33.712891 C 19.475986 33.854092 19.333345 33.989906 19.142578 34.041016 L 13.53125 35.544922 C 12.893703 35.715886 12.311458 35.133641 12.482422 34.496094 L 13.984375 28.882812 C 14.037195 28.686519 14.182099 28.54251 14.326172 28.398438 L 15.355469 27.369141 L 26.185547 16.535156 z "
     style="fill:#ffffff" />
</svg>
