<?xml version="1.0" encoding="UTF-8" standalone="no"?>
<svg
   xmlns:dc="http://purl.org/dc/elements/1.1/"
   xmlns:cc="http://creativecommons.org/ns#"
   xmlns:rdf="http://www.w3.org/1999/02/22-rdf-syntax-ns#"
   xmlns:svg="http://www.w3.org/2000/svg"
   xmlns="http://www.w3.org/2000/svg"
   id="svg4991"
   version="1.1"
   viewBox="0 0 48 48"
   height="48"
   width="48">
  <metadata
     id="metadata4997">
    <rdf:RDF>
      <cc:Work
         rdf:about="">
        <dc:format>image/svg+xml</dc:format>
        <dc:type
           rdf:resource="http://purl.org/dc/dcmitype/StillImage" />
        <dc:title></dc:title>
      </cc:Work>
    </rdf:RDF>
  </metadata>
  <defs
     id="defs4995" />
  <path
     id="rect5980"
     d="M 24.000723,2.4636521 15.884278,8.8127607 V 39.185794 l 8.116445,6.350554 8.114999,-6.350554 V 8.8127607 Z M 22.654249,17.283541 h 2.687163 c 0.167925,0 0.305306,0.124171 0.335533,0.282022 l 0.253097,1.778907 c 0.409739,0.171286 0.789391,0.397068 1.135318,0.662389 l 1.671884,-0.675405 c 0.151134,-0.06045 0.32533,2.1e-4 0.409294,0.144626 l 1.343581,2.327042 c 0.08397,0.147774 0.04663,0.328785 -0.08099,0.429541 l -1.420234,1.112178 c 0.02686,0.214945 0.04773,0.433497 0.04773,0.65516 0,0.221662 -0.02087,0.440215 -0.04773,0.655158 l 1.417341,1.110732 c 0.127624,0.104116 0.164953,0.286572 0.08099,0.430988 l -1.343581,2.327042 a 0.33585171,0.33585171 0 0 1 -0.409294,0.144625 l -1.67333,-0.675405 a 4.9706053,4.9706053 0 0 1 -1.135318,0.662389 l -0.25165,1.778908 c -0.02687,0.157849 -0.164716,0.282023 -0.332641,0.282023 h -2.687163 c -0.167925,0 -0.305775,-0.124174 -0.332641,-0.282023 L 22.071404,28.65553 c -0.40974,-0.171284 -0.789392,-0.397066 -1.135319,-0.662389 l -1.67333,0.675405 c -0.151133,0.06045 -0.325331,-2.09e-4 -0.409293,-0.144625 L 17.50988,26.196879 c -0.08397,-0.147774 -0.04663,-0.330231 0.08099,-0.430988 l 1.415894,-1.110732 c -0.02687,-0.214944 -0.04628,-0.433496 -0.04628,-0.655158 a 5.2728718,5.2728718 0 0 1 0.04628,-0.65516 L 17.59087,22.232663 c -0.127626,-0.104115 -0.164954,-0.285125 -0.08099,-0.429541 l 1.343582,-2.327042 a 0.33585171,0.33585171 0 0 1 0.409293,-0.144626 l 1.67333,0.675405 a 4.9706053,4.9706053 0 0 1 1.135319,-0.662389 l 0.250204,-1.778907 c 0.02687,-0.157851 0.164716,-0.282022 0.332641,-0.282022 z"
     style="opacity:1;fill:#ffffff;fill-opacity:1;stroke:none;stroke-width:1.34449768;stroke-linecap:butt;stroke-linejoin:round;stroke-miterlimit:4;stroke-dasharray:none;stroke-opacity:1" />
  <path
     id="path6013"
     d="m 11.43267,12.230287 -8.235038,6.195804 2.3704298,5.57391 -2.3704298,5.575356 8.235038,6.194356 6.032376,-1.616925 V 13.845766 Z m 25.136105,0 -6.032376,1.615479 v 20.307022 l 6.032376,1.616925 8.233593,-6.195803 -2.370431,-5.573909 2.370431,-5.57391 z"
     style="opacity:1;fill:#ffffff;fill-opacity:1;stroke:none;stroke-width:1.34449768;stroke-linecap:butt;stroke-linejoin:round;stroke-miterlimit:4;stroke-dasharray:none;stroke-opacity:1" />
</svg>
