<?xml version="1.0" encoding="UTF-8"?>
<svg version="1.1" viewBox="0 0 48 48" xmlns="http://www.w3.org/2000/svg">
    <path d="m11.433 12.23-8.235 6.1958 2.3704 5.5739-2.3704 5.5754 8.235 6.1944 6.0324-1.6169v-20.307zm25.136 0-6.0324 1.6155v20.307l6.0324 1.6169 8.2336-6.1958-2.3704-5.5739 2.3704-5.5739z" fill="#fff"/>
    <path d="m24.002 2.4629-8.1172 6.3496v30.373l8.1172 6.3516 8.1133-6.3516v-30.373zm0.0039 13.07 2.916 2.916v-2.0732h2v4.0732l1.9004 1.9004-1.4141 1.4141-5.4023-5.4023-5.4141 5.4141-1.4141-1.4141zm-4.8926 8.5059 2 0.02344-0.0332 3.7145h5.8418v-3.7262h2v5.7262h-9.8652z" fill="#fff"/>
</svg>
