<?xml version="1.0" encoding="UTF-8"?>
<svg version="1.1" viewBox="0 0 48 48" xmlns="http://www.w3.org/2000/svg">
    <style type="text/css">.st0{fill:#D62021;}
	.st1{fill:#000005;}
	.st2{fill:#237BBD;}
	.st3{fill:#FFFFFF;}</style>
    <path d="m4 11.659v12.37h12.646v-12.37zm6.6715 2.9256c0.77451 0 1.385 0.23112 1.8318 0.69284 0.44683 0.46173 0.67023 1.108 0.67023 1.9346v3.9926l-1.5275-0.0082v-3.7459c0-0.5511-0.10476-0.95234-0.32072-1.213-0.21597-0.26065-0.55828-0.38034-1.0424-0.38034-0.25321 0.0075-0.49204 0.07538-0.71546 0.18709-0.23086 0.10426-0.43777 0.26768-0.59416 0.46875v4.6916h-1.5132v-6.5152h1.0958l0.28166 0.61061c0.4096-0.47662 1.0221-0.71546 1.8339-0.71546z" fill="#fff" fill-opacity=".94118"/>
    <path d="m17.725 11.655v12.375h12.71v-12.375zm6.3384 2.9194c2.0785 0 3.1147 1.1381 3.1147 3.4252 0 1.0653-0.29191 1.8853-0.86554 2.4589-0.57363 0.57363-1.3632 0.86554-2.354 0.86554-0.44698 0.0075-0.89372-0.09002-1.3035-0.28372v1.8853h-1.5132v-8.2401h1.5214v0.43174c0.37248-0.36504 0.8786-0.55766 1.4001-0.54276zm-0.43997 1.2952c-0.36504 0.0075-0.71428 0.15739-0.96012 0.42558v3.4108c0.26819 0.22349 0.60998 0.34256 0.96012 0.33512 0.70027 0 1.1995-0.1623 1.5049-0.49753 0.29799-0.33524 0.45436-0.85838 0.45436-1.581 0-0.76732-0.14892-1.3113-0.45436-1.6242-0.30544-0.31289-0.80466-0.46875-1.5049-0.46875z" fill="#fff" fill-opacity=".94118"/>
    <path d="m31.516 11.673v12.356h12.484v-12.356zm7.4897 2.9215c0.51332 0 0.9069 0.0802 1.1822 0.23643l-0.64762 1.287c-0.26782-0.17111-0.57159-0.26032-0.88405-0.25288-0.34965 0-0.66146 0.15708-0.92928 0.47697-0.27526 0.32733-0.42606 0.74372-0.41118 1.1678v3.6904h-1.5173v-6.5029h1.5173v0.625c0.42404-0.48356 0.98323-0.7278 1.69-0.7278z" fill="#fff" fill-opacity=".94118"/>
    <text x="7.1395354" y="36.230438" fill="#ffffff" font-family="Carlito" font-size="15.667px" letter-spacing="0px" word-spacing="0px" style="font-feature-settings:normal;font-variant-caps:normal;font-variant-ligatures:normal;font-variant-numeric:normal;line-height:1.25" xml:space="preserve"><tspan x="7.1395354" y="36.230438" fill="#ffffff">news</tspan></text>
</svg>
