<?xml version="1.0" encoding="UTF-8"?>
<svg version="1.1" viewBox="0 0 48 48" xmlns="http://www.w3.org/2000/svg">
    <path d="m23.25 2.0254c-7.314 0.25689-14.021 4.1341-17.895 10.344l8.2598 4.7656c2.1474-3.2466 5.7196-5.3317 9.6348-5.5664v-9.543zm1.5 0.011719v9.5371c0.68083 0.041809 1.3661 0.12663 2.0527 0.28516 3.2423 0.74855 5.8846 2.7056 7.584 5.2793l8.2461-4.7617c-3.8717-6.2048-10.574-10.08-17.883-10.34zm18.648 11.631-8.252 4.7656c1.2498 2.4998 1.6719 5.4333 0.99414 8.3691-0.22616 0.97959-0.57421 1.8979-1.0039 2.7598l8.252 4.7637c1.7031-3.1762 2.5998-6.7222 2.6113-10.326-0.00753-3.6051-0.90092-7.1532-2.6016-10.332zm-38.787 0.005859c-1.7031 3.1762-2.5998 6.7222-2.6113 10.326 0.00753 3.6051 0.90092 7.1532 2.6016 10.332l4.2832-2.4746 2.9121-5.4766c-0.32852-1.6671-0.3445-3.4207 0.0625-5.1836 0.22616-0.97959 0.57421-1.8979 1.0039-2.7598l-8.252-4.7637zm29.773 17.191c-2.1475 3.2466-5.7196 5.3317-9.6348 5.5664v9.543c7.314-0.25689 14.021-4.1341 17.895-10.344l-8.2598-4.7656zm-18.814 2.2852-6.3027 0.2207-3.9004 2.252c3.8717 6.2048 10.574 10.08 17.883 10.34v-9.5371c-0.68083-0.041809-1.3661-0.12663-2.0527-0.28516-2.1859-0.50466-4.0896-1.5693-5.627-2.9902z" fill="#fff"/>
    <path d="m15.245 23.523a0.89181 0.89181 0 0 1 0.56267 0.39721l2.1055 3.3709 2.1059 3.3694a0.89181 0.89181 0 0 1-0.7253 1.3632l-3.9712 0.13906-3.9711 0.13855a0.89181 0.89181 0 0 1-0.81825-1.3095l1.8656-3.5095 1.8658-3.5083a0.89181 0.89181 0 0 1 0.97998-0.45165z" fill="#fff" stroke-width=".52092"/>
    <path d="m26.578 12.834c6.1671 1.4238 10.012 7.5774 8.5885 13.744-1.4238 6.1671-7.5774 10.012-13.744 8.5885-6.1671-1.4238-10.012-7.5774-8.5885-13.744 1.4238-6.1671 7.5774-10.012 13.744-8.5885z" fill="#fff" stroke-width=".52092"/>
</svg>
