<?xml version="1.0" encoding="utf-8"?>
<!-- Generator: Adobe Illustrator 21.1.0, SVG Export Plug-In . SVG Version: 6.00 Build 0)  -->
<svg version="1.0" id="Layer_1" xmlns="http://www.w3.org/2000/svg" xmlns:xlink="http://www.w3.org/1999/xlink" x="0px" y="0px"
	 viewBox="0 0 48 48" style="enable-background:new 0 0 48 48;" xml:space="preserve">
<style type="text/css">
	.st0{fill:#FFFFFF;}
</style>
<path class="st0" d="M24,5c5,0,10,0,15,0c0.9,0,1.7,0.2,2.4,0.8c0.8,0.6,1.4,1.5,1.6,2.5C43,8.5,43,8.8,43,9c0,10,0,20,0,30
	c0,1.1-0.4,2.1-1.1,2.8c-0.6,0.6-1.3,1-2.1,1.1C39.5,43,39.2,43,39,43c-10,0-20,0-30,0c-1.1,0-2.1-0.4-2.8-1.1
	c-0.6-0.6-1-1.3-1.1-2.1C5,39.5,5,39.2,5,39C5,29,5,19,5,9c0-0.9,0.2-1.7,0.8-2.4c0.6-0.8,1.5-1.4,2.5-1.6C8.5,5,8.8,5,9,5
	C14,5,19,5,24,5z M16.4,26.6C16.4,26.6,16.4,26.5,16.4,26.6c-1-1.4-1.8-2.7-2.7-4c-0.8-1.2-1.6-2.4-2.5-3.6c0-0.1-0.1-0.1-0.2-0.1
	c-0.3,0-0.5,0-0.8,0c-0.1,0-0.1,0-0.1,0.1c0,3.3,0,6.7,0,10c0,0.1,0,0.1,0.1,0.1c0.3,0,0.6,0,1,0c0.1,0,0.1,0,0.1-0.1
	c0-2.5,0-5.1,0-7.6c0,0,0-0.1,0-0.1c0,0,0.1,0.1,0.1,0.1c0.9,1.4,1.8,2.7,2.7,4.1c0.8,1.2,1.6,2.4,2.4,3.6c0,0.1,0.1,0.1,0.2,0.1
	c0.2,0,0.5,0,0.7,0c0.1,0,0.1,0,0.1-0.1c0-3.3,0-6.6,0-10c0,0,0,0,0,0c0-0.1,0-0.1-0.1-0.1c-0.3,0-0.6,0-1,0c-0.1,0-0.1,0-0.1,0.1
	c0,2.5,0,5,0,7.5C16.4,26.5,16.4,26.5,16.4,26.6z M32,23.3c0-0.2,0-0.4,0.1-0.6c0.1-0.6,0.3-1.2,0.6-1.8c0.8-1.3,2.3-1.3,3.2-0.7
	c0.3,0.2,0.5,0.4,0.8,0.6c0,0,0.1,0.1,0.1,0c0.2-0.3,0.5-0.5,0.7-0.8c0,0,0-0.1,0-0.1c-0.1-0.1-0.2-0.2-0.3-0.2
	c-0.7-0.6-1.4-0.9-2.3-1c-0.6,0-1.2,0-1.7,0.3c-0.8,0.4-1.4,1-1.7,1.8c-0.4,0.9-0.6,1.9-0.6,2.9c0,0.5,0,1,0,1.5
	c0.1,0.6,0.2,1.3,0.5,1.8c0.3,0.6,0.7,1.2,1.2,1.6c0.7,0.5,1.6,0.7,2.4,0.6c1.1-0.2,1.9-0.7,2.4-1.7c0.5-0.8,0.6-1.7,0.4-2.7
	c-0.1-0.6-0.4-1.2-0.9-1.6c-0.6-0.5-1.3-0.8-2.1-0.8c-0.7-0.1-1.4,0.1-2,0.5C32.4,23,32.2,23.2,32,23.3z M24.5,29.1
	c0.9,0,1.9,0,2.8,0c0.1,0,0.3,0,0.4,0c0.1,0,0.1,0,0.1-0.1c0-0.3,0-0.7,0-1c0-0.1,0-0.1-0.1-0.1c0,0-0.1,0-0.1,0c-1.7,0-3.4,0-5,0
	c-0.1,0-0.1,0-0.1-0.1c0-0.3,0.1-0.5,0.2-0.7c0.2-0.3,0.5-0.6,0.8-0.8c0.6-0.5,1.2-0.8,1.8-1.2c0.5-0.3,1-0.6,1.4-1
	c0.4-0.3,0.7-0.7,0.9-1.2c0.3-0.6,0.3-1.2,0.2-1.9c-0.2-0.9-0.7-1.6-1.5-2c-0.6-0.2-1.1-0.3-1.7-0.3c-0.9,0.1-1.6,0.4-2.2,1
	c-0.4,0.4-0.7,0.9-1,1.5c0,0.1,0,0.1,0,0.1c0.3,0.1,0.6,0.3,0.9,0.4c0.1,0,0.1,0,0.1,0c0.1-0.2,0.1-0.3,0.2-0.5
	c0.2-0.5,0.6-0.8,1-1.1c0.5-0.3,1.1-0.3,1.6-0.2c0.4,0.1,0.8,0.3,1,0.6c0.4,0.6,0.5,1.7-0.1,2.3c-0.3,0.4-0.7,0.6-1.1,0.9
	c-0.4,0.3-0.9,0.5-1.3,0.8c-0.6,0.4-1.1,0.8-1.6,1.3c-0.5,0.5-0.8,1-0.9,1.7c-0.1,0.5-0.1,1-0.1,1.5c0,0.1,0,0.1,0.1,0.1
	C22.4,29.1,23.5,29.1,24.5,29.1z M13.9,31.3c0.2,0,0.4,0,0.5,0c1,0,2.1,0,3.1,0c0.1,0,0.1,0,0.1-0.1c0-0.2,0-0.4,0-0.7
	c0-0.1,0-0.1-0.1-0.1c-2.1,0-4.1,0-6.2,0c-0.4,0-0.7,0-1.1,0c-0.1,0-0.1,0-0.1,0.1c0,0.2,0,0.5,0,0.7c0,0.1,0,0.1,0.1,0.1
	C11.5,31.3,12.7,31.3,13.9,31.3z M13.9,16.7c-1.2,0-2.4,0-3.6,0c-0.1,0-0.1,0-0.1,0.1c0,0.2,0,0.5,0,0.7c0,0.1,0,0.1,0.1,0.1
	c2.4,0,4.8,0,7.2,0c0.1,0,0.1,0,0.1-0.1c0-0.2,0-0.5,0-0.7c0-0.1,0-0.1-0.1-0.1C16.3,16.7,15.1,16.7,13.9,16.7z"/>
<path class="st0" d="M36.6,25.7c0,0.7-0.2,1.3-0.8,1.8c-0.3,0.3-0.8,0.5-1.2,0.5c-0.9,0.1-1.6-0.4-2-1.2c-0.3-0.5-0.5-1-0.5-1.6
	c0-0.1,0-0.2,0-0.4c0,0,0-0.1,0-0.1c0.5-0.6,1.2-1,1.9-1.2c0.7-0.1,1.3,0,1.9,0.3c0.4,0.3,0.6,0.7,0.7,1.1
	C36.6,25.3,36.6,25.5,36.6,25.7z"/>
</svg>
