<?xml version="1.0" encoding="UTF-8"?>
<svg version="1.1" viewBox="0 0 48 48" xmlns="http://www.w3.org/2000/svg">
    <path d="m21.966 4.4722v14.541l0.77038-0.27177c0.35024-0.12366 0.80742-0.18417 1.2645-0.18417 0.45709 0 0.91426 0.06051 1.2645 0.18417l0.15048 0.0539v-14.323zm3.4499 14.323v5.4623l3.2792-2.109 0.74119-0.47616 3.8384-0.01348-4.7234 3.0366-4.7211 3.0366-4.8761-3.0052-4.7952-2.9558-5.332 1.8822c-1.4835 0.52388-0.79618 4.1455 0.68728 4.6695l13.278 4.6897c0.66883 0.23614 1.7456 0.23614 2.4145 0l13.281-4.6897c1.4834-0.52381 2.1684-4.1456 0.68504-4.6695zm-11.257 2.976 0.13925-0.04941h-0.21786zm0.13925-0.04941 4.0338-0.01348 0.76589 0.47166 2.8682 1.7676v-4.9345zm9.6534 3.4499 0.02246 0.01348 0.02022-0.01348zm-15.471 3.8744c-0.99829 0.9431-0.31486 3.9688 1.0332 4.4449l13.278 4.6897c0.66883 0.23614 1.7456 0.23614 2.4145 0l13.281-4.6897c1.3475-0.47581 2.0301-3.4983 1.0332-4.4426-0.26151 0.51083-0.60941 0.9262-1.0332 1.0758l-13.281 4.6897c-0.66883 0.23614-1.7456 0.23614-2.4145 0l-13.278-4.6897c-0.42444-0.1499-0.77127-0.56612-1.0332-1.0781zm0 5.1703c-0.9974 0.94376-0.31459 3.9689 1.0332 4.4449l13.278 4.6897c0.66883 0.23614 1.7456 0.23614 2.4145 0l13.281-4.6897c1.3472-0.47571 2.0314-3.4998 1.0354-4.4449-0.26163 0.51207-0.61093 0.92595-1.0354 1.0758l-13.281 4.6897c-0.66883 0.23614-1.7456 0.23614-2.4145 0l-13.278-4.6897c-0.42444-0.1499-0.77127-0.56388-1.0332-1.0758z" fill="#fff"/>
</svg>
