<?xml version="1.0" encoding="utf-8"?>
<!-- Generator: Adobe Illustrator 23.1.0, SVG Export Plug-In . SVG Version: 6.00 Build 0)  -->
<svg version="1.1" id="Layer_1" xmlns="http://www.w3.org/2000/svg" xmlns:xlink="http://www.w3.org/1999/xlink" x="0px" y="0px"
	 viewBox="0 0 48 48" style="enable-background:new 0 0 48 48;" xml:space="preserve">
<style type="text/css">
	.st0{fill:#FFFFFF;}
</style>
<title>octodroid</title>
<path class="st0" d="M26.8,15.3c-1.3,0-2.3,1.1-2.3,2.4c0,1.3,1.1,2.3,2.4,2.3s2.3-1.1,2.3-2.4c0,0,0,0,0,0
	C29.2,16.3,28.1,15.3,26.8,15.3C26.8,15.3,26.8,15.3,26.8,15.3z M26.8,18.4c-0.4,0-0.8-0.3-0.8-0.8s0.3-0.8,0.8-0.8s0.8,0.3,0.8,0.8
	S27.2,18.4,26.8,18.4L26.8,18.4z"/>
<path class="st0" d="M21.2,15.3c-1.3,0-2.4,1-2.4,2.3c0,1.3,1,2.4,2.3,2.4c1.3,0,2.4-1,2.4-2.3c0,0,0,0,0,0
	C23.5,16.3,22.5,15.3,21.2,15.3z M21.2,18.4c-0.4,0-0.8-0.3-0.8-0.7c0-0.4,0.3-0.8,0.7-0.8c0.4,0,0.8,0.3,0.8,0.7c0,0,0,0,0,0
	C21.9,18,21.6,18.4,21.2,18.4z"/>
<path class="st0" d="M45.4,25.2c-1.8-2.7-4.4-2.4-7-1.8c-2.1,0.4-4.2,1.1-6.3,1.6c-0.5,0.1-1,0-1.5,0c1.8-2.6,2.8-5.7,3-8.8
	c0-0.3,0-0.7,0-1c0-2.7-1.2-5.4-3.2-7.2l1.5-2.1c0.4-0.5,0.3-1.3-0.2-1.7c-0.5-0.4-1.3-0.4-1.8,0.1c0,0,0,0-0.1,0.1l-1.6,2.2
	c-1.3-0.7-2.8-1-4.3-1c-1.3,0-2.7,0.3-3.9,0.8l-1.5-2c-0.4-0.6-1.2-0.7-1.7-0.3c0,0-0.1,0-0.1,0.1c-0.5,0.4-0.5,1.2-0.2,1.7L18,7.6
	c-2.3,1.8-3.6,4.6-3.6,7.5c0,3.5,1.1,7,3.1,9.9c0.1,0.1,0.1,0.3,0,0.5c-0.2,0.3-0.6,0.5-1.2,0.6c-1.1,0.1-2.2,0-3.2-0.5
	c-2.1-0.8-4.2-1.7-6.6-1.6C4.8,24,2,24.9,2,26.7c-0.1,0.7,0.1,1.4,0.4,2c2.5,2.7,4.8,3,7.8,2.6c3-0.3,5.9-1.4,8.4-3.1
	c0.2-0.2,0.5-0.4,0.9-0.4c0.1,0,0.1,0.1,0.1,0.2c0,0,0,0,0,0c-0.1,0.5-0.5,1-0.9,1.4c-1.6,1.6-3.5,3-5.5,4.1c-2,0.9-3.5,2.6-4.3,4.6
	c-0.6,1.4-0.2,3,0.9,4.1c1,1.1,2.5,1.5,3.9,0.9c3-1.1,4.8-3.4,6-6.2c0.8-1.9,1.3-3.9,1.5-6c0.1-0.5,0.2-1.3,0.3-1.8
	c0.1-0.2,0.2-0.5,0.5-0.4s0.5,0.5,0.5,0.8c0.1,1.3,0.1,2.6-0.2,3.8c-0.6,2.2-1.1,4.4-1.4,6.7c-0.4,3.2,2.1,5.2,5.1,4.3
	c1.8-0.5,2.8-2.3,2.4-4.5c-0.3-1.5-0.8-2.9-1.4-4.3c-0.7-1.5-1-3.1-1-4.8c0-0.6-0.1-1.4,0.6-1.5s1,0.7,1.2,1.2
	c0.6,1.3,1,2.7,1.5,4.1c1.1,3,2.8,5.3,5.8,6.5s5.4,0.1,6.2-2.7c0.6-1.6-0.1-3.4-1.7-4.2c-1-0.5-2-0.9-3.1-1.2
	c-2.1-0.6-4.1-1.7-5.6-3.2c-0.4-0.4-0.9-0.9-0.6-1.4s1-0.2,1.5-0.1c2.4,0.9,4.9,1.6,7.5,2.1c2.4,0.3,4.7,0.3,6.3-1.9
	c0.3-0.4,0.5-1,0.4-1.5C46,26.2,45.8,25.6,45.4,25.2z M28.3,10c0.6,0,1.1,0.5,1.1,1.1c0,0.6-0.5,1.1-1.1,1.1s-1.1-0.5-1.1-1.1l0,0
	C27.2,10.5,27.7,10,28.3,10z M19.7,10c0.6,0,1.1,0.5,1.1,1.1c0,0.6-0.5,1.1-1.1,1.1s-1.1-0.5-1.1-1.1l0,0C18.6,10.5,19.1,10,19.7,10
	C19.7,10,19.7,10,19.7,10z M27.2,21.8h-6.5c-2.6,0-4.6-2.1-4.7-4.6c0-2,1.7-3.7,3.7-3.7c1,0,3.2,0.4,4.2,0.4s3.2-0.4,4.2-0.4
	c2,0,3.7,1.7,3.7,3.7C31.9,19.7,29.8,21.8,27.2,21.8z"/>
</svg>
