<?xml version="1.0" encoding="UTF-8"?>
<svg version="1.1" viewBox="0 0 48 48" xmlns="http://www.w3.org/2000/svg">
    <path d="m23.822 14.965c-1.1505 0-2.0766 0.92618-2.0766 2.0766v13.366a1.0378 1.0378 0 0 1 0.14196 0.28594c0.39392 1.2588 0.87673 2.1227 1.4155 2.7236v-13.186c0-0.57523 0.46309-1.0383 1.0383-1.0383h8.3065c0.57523 0 1.0383 0.46309 1.0383 1.0383v10.653c0.58216-0.50995 1.1138-1.0199 1.5575-1.4906v-12.352c0-1.1505-0.92618-2.0766-2.0766-2.0766zm11.421 22.334c-0.47507 0.57038-1.0003 1.0966-1.5575 1.5879v0.03447c0 0.57523-0.46309 1.0383-1.0383 1.0383h-0.3265c-0.42351 0.29517-0.85878 0.57472-1.3101 0.82741-2.3083 1.2925-4.9576 2.0416-7.6535 2.1557 0.14972 0.03408 0.30407 0.05679 0.4644 0.05679h9.3449c1.1505 0 2.0766-0.92618 2.0766-2.0766z" fill="#fff" fill-opacity=".99194" style="paint-order:stroke markers fill"/>
    <path d="m25.215 5c-2.9618 0-2.6335 0.36014-4.8813 2.608-2.8018 2.8018-8.7808 10.421-10.225 14.111-2.7319 6.9796-0.62089 16.013 6.8058 19.089 8.8567 3.6691 20.598-2.0546 20.357-12.249-2.324 3.5221-13.171 12.68-16.374 2.4457-0.35491-1.1341-0.37919-2.2285-0.11154-3.3178-0.04656-0.18701-0.07909-0.37817-0.07909-0.58v-10.783c0-1.3274 1.0696-2.3971 2.3971-2.3971h10.781c0.17632 0 0.34778 0.02097 0.51308 0.05678 1.3468-1.2998 2.5929-2.5969 3.5976-3.7193 1.8134-2.0257 1.3522-5.2646-2.1273-5.2646z" fill="#fff"/>
</svg>
