<svg id="Layer_1" data-name="Layer 1" xmlns="http://www.w3.org/2000/svg" viewBox="0 0 48 48"><defs><style>.cls-1{fill:#fff;}</style></defs><title>octodroid</title><path class="cls-1" d="M26.83,15.29a2.35,2.35,0,1,0,2.35,2.34A2.34,2.34,0,0,0,26.83,15.29Zm0,3.1a.76.76,0,1,1,.76-.76A.76.76,0,0,1,26.83,18.39Z"/><path class="cls-1" d="M21.17,15.29a2.35,2.35,0,1,0,2.34,2.34A2.35,2.35,0,0,0,21.17,15.29Zm0,3.1a.76.76,0,1,1,.75-.76A.76.76,0,0,1,21.17,18.39Z"/><path class="cls-1" d="M45.44,25.17c-1.78-2.69-4.4-2.37-7-1.84-2.14.44-4.23,1.06-6.35,1.59a5.55,5.55,0,0,1-1.54-.05,17.28,17.28,0,0,0,3-8.83c0-.33.05-.66.05-1a9.61,9.61,0,0,0-3.24-7.19l1.53-2.14A1.28,1.28,0,0,0,31.73,4a1.25,1.25,0,0,0-1.82.21l-1.6,2.23a9.6,9.6,0,0,0-4.31-1,9.42,9.42,0,0,0-3.87.82l-1.45-2A1.25,1.25,0,0,0,16.86,4a1.28,1.28,0,0,0-.16,1.69L18,7.55a9.57,9.57,0,0,0-3.61,7.5,17.26,17.26,0,0,0,3.07,9.88.44.44,0,0,1,0,.48c-.17.29-.58.47-1.24.56a6.92,6.92,0,0,1-3.21-.45c-2.14-.77-4.22-1.66-6.59-1.57C4.76,24,2,24.92,2,26.66a3.87,3.87,0,0,0,.38,2c2.47,2.72,4.78,3,7.77,2.59a18.08,18.08,0,0,0,8.36-3.14,1.44,1.44,0,0,1,.87-.42.15.15,0,0,1,.14.16,2.43,2.43,0,0,1-.9,1.37,24.1,24.1,0,0,1-5.48,4.09,8.55,8.55,0,0,0-4.31,4.62A3.68,3.68,0,0,0,9.7,42a3.45,3.45,0,0,0,3.87.93c3.05-1.07,4.75-3.43,5.95-6.23a21.82,21.82,0,0,0,1.45-6c.06-.51.22-1.33.34-1.83.06-.24.16-.46.48-.44s.5.46.52.84a13.53,13.53,0,0,1-.17,3.81,58.22,58.22,0,0,0-1.39,6.68c-.35,3.15,2.06,5.19,5.08,4.27,1.81-.55,2.77-2.33,2.4-4.49a21.62,21.62,0,0,0-1.42-4.27,11.58,11.58,0,0,1-.95-4.79c0-.58-.12-1.35.58-1.53s1,.66,1.24,1.2c.56,1.34,1,2.74,1.5,4.1C30.27,37.2,32,39.6,35,40.76s5.36.09,6.23-2.71a3.31,3.31,0,0,0-1.66-4.17,14.47,14.47,0,0,0-3.06-1.15,12.83,12.83,0,0,1-5.63-3.22c-.39-.38-.91-.86-.58-1.41s1-.23,1.47-.06a42.8,42.8,0,0,0,7.48,2.1c2.41.3,4.65.26,6.33-1.85a2.05,2.05,0,0,0,.4-1.48A2.85,2.85,0,0,0,45.44,25.17ZM28.3,10a1.08,1.08,0,1,1-1.08,1.08A1.08,1.08,0,0,1,28.3,10Zm-8.6,0a1.08,1.08,0,1,1-1.08,1.08A1.08,1.08,0,0,1,19.7,10Zm7.53,11.81H20.77a4.66,4.66,0,0,1-4.66-4.62,3.73,3.73,0,0,1,3.69-3.71c1,0,3.21.45,4.2.45s3.17-.45,4.2-.45a3.73,3.73,0,0,1,3.69,3.71A4.66,4.66,0,0,1,27.23,21.81Z"/></svg>