<?xml version="1.0" encoding="UTF-8"?>
<svg version="1.1" viewBox="0 0 48 48" xmlns="http://www.w3.org/2000/svg">
    <path d="m10 8c-1.108 0-2 0.892-2 2v32c0 1.108 0.892 2 2 2h28c1.108 0 2-0.892 2-2v-32c0-1.108-0.892-2-2-2h-5.3242c0.043803 0.16059 0.074219 0.32617 0.074219 0.5v1.5h2.25c0.554 0 1 0.446 1 1v30c0 0.554-0.446 1-1 1h-22c-0.554 0-1-0.446-1-1v-30c0-0.554 0.446-1 1-1h2.25v-1.5c0-0.17383 0.030416-0.33941 0.074219-0.5h-5.3242z" fill="#fff"/>
    <path d="m20 4c-0.554 0-1 0.446-1 1v1.5h-1.25c-1.108 0-2 0.892-2 2v2.5c0 1.108 0.892 2 2 2h12.5c1.108 0 2-0.892 2-2v-2.5c0-1.108-0.892-2-2-2h-1.25v-1.5c0-0.554-0.446-1-1-1h-8z" fill="#fff" style="paint-order:stroke markers fill"/>
    <path d="m13 11v30h22v-30h-2.25v0.5c0 1.108-0.94594 2-2.1211 2h-13.258c-1.1752 0-2.1211-0.892-2.1211-2v-0.5h-2.25zm2 4h18v2h-18v-2zm0 4h12v2h-12v-2zm0 4h16v2h-16v-2zm0 4h17v2h-17v-2zm0 4h14v2h-14v-2zm0 4h18v2h-18v-2z" fill="#fff"/>
</svg>
