<?xml version="1.0" encoding="utf-8"?>
<!-- Generator: Adobe Illustrator 21.1.0, SVG Export Plug-In . SVG Version: 6.00 Build 0)  -->
<svg version="1.0" id="Layer_1" xmlns="http://www.w3.org/2000/svg" xmlns:xlink="http://www.w3.org/1999/xlink" x="0px" y="0px"
	 viewBox="0 0 48 48" style="enable-background:new 0 0 48 48;" xml:space="preserve">
<style type="text/css">
	.st0{fill:#FFFFFF;}
</style>
<g>
	<path class="st0" d="M32,13.7c0,0.6,0,1.2,0,1.8c0,0.7-0.7,1.2-1.4,1c-0.5-0.1-0.9-0.6-0.9-1.2c0-0.7,0-1.4,0-2.1
		c-0.4,0-0.8,0-1.1,0c0,0.2,0,0.3,0,0.4c0,0.6,0,1.2,0,1.8c0,0.6-0.5,1-1.1,1c-0.6,0-1.1-0.4-1.2-0.9c0-0.2,0-0.3,0-0.5
		c0-0.6,0-1.2,0-1.8c-0.4,0-0.7,0-1.1,0c0,0.1,0,0.3,0,0.4c0,0.6,0,1.3,0,1.9c0,0.6-0.5,1-1.1,1c-0.6,0-1.1-0.4-1.1-1
		c0-0.3,0-0.7,0-1c0-0.4,0-0.9,0-1.3c-0.4,0-0.8,0-1.1,0c0,0.7,0,1.4,0,2c0,0.7-0.5,1.2-1.1,1.2c-0.7,0-1.1-0.5-1.1-1.2
		c0-0.6,0-1.1,0-1.7c0-0.1,0-0.2,0-0.3c-0.4,0-0.7,0-1.1,0c0,0.1,0,0.1,0,0.2c0,0.6,0,1.3,0,1.9c0,0.7-0.5,1.1-1.1,1.1
		c-0.6,0-1.1-0.5-1.1-1.1c0-0.3,0-0.7,0-1c0-0.4,0-0.7,0-1.1c-0.5,0-0.9,0-1.3,0c0,8.1,0,16.1,0,24.2c6.2,0,12.4,0,18.6,0
		c0-8.1,0-16.1,0-24.2c-0.4,0-0.8,0-1.3,0C32,13.4,32,13.6,32,13.7z M17.1,19.1c1.3,0,2.5,0,3.8,0c1,0,2.1,0,3.1,0
		c2.2,0,4.4,0,6.6,0c0.2,0,0.4,0,0.5,0c0.5,0.1,0.9,0.6,0.8,1.2c0,0.5-0.5,1-1,1c-0.1,0-0.2,0-0.4,0c-4.4,0-8.8,0-13.3,0
		c-0.1,0-0.2,0-0.3,0c-0.6,0-1.1-0.5-1.1-1.2C16,19.6,16.5,19.1,17.1,19.1z M31.1,31.6c-0.2,0-0.3,0-0.5,0c-2.2,0-4.4,0-6.6,0
		c-2.2,0-4.4,0-6.6,0c-0.2,0-0.4,0-0.6-0.1C16.3,31.5,16,31,16,30.5c0-0.5,0.4-1,0.9-1.1c0.1,0,0.3,0,0.4,0c4.5,0,8.9,0,13.4,0
		c0.8,0,1.4,0.5,1.3,1.2C32,31.1,31.6,31.6,31.1,31.6z M16,26.9c0-0.5,0.4-0.9,0.9-1c0.2,0,0.3,0,0.5,0c4.4,0,8.8,0,13.2,0
		c0.2,0,0.4,0,0.6,0.1c0.5,0.1,0.8,0.6,0.8,1.2c0,0.5-0.4,0.9-0.9,1c-0.2,0-0.3,0-0.5,0c-2.2,0-4.4,0-6.6,0c-2.2,0-4.4,0-6.6,0
		c-0.2,0-0.4,0-0.6-0.1C16.2,28,15.9,27.5,16,26.9z M31.1,24.7c-0.1,0-0.3,0-0.4,0c-4.5,0-9,0-13.4,0c-0.9,0-1.5-0.7-1.3-1.4
		c0.1-0.5,0.5-0.8,1-0.8c0.4,0,0.7,0,1.1,0c2,0,3.9,0,5.9,0c2.2,0,4.4,0,6.6,0c0.2,0,0.4,0,0.6,0.1c0.5,0.1,0.8,0.6,0.8,1.1
		C32,24.2,31.7,24.6,31.1,24.7z"/>
	<path class="st0" d="M38,4H10C8.9,4,8,4.9,8,6v36c0,1.1,0.9,2,2,2h28c1.1,0,2-0.9,2-2V6C40,4.9,39.1,4,38,4z M35.6,38.3
		c0,0.2,0,0.3,0,0.5c-0.1,0.5-0.5,1-1,1c-0.1,0-0.2,0-0.3,0c-6.8,0-13.6,0-20.4,0c-1,0-1.4-0.4-1.4-1.4c0-8.7,0-17.3,0-26
		c0-1,0.4-1.4,1.4-1.4c0.7,0,1.4,0,2.1,0c0,0,0,0,0.1,0c0-0.4,0-0.8,0-1.2c-0.1-0.7,0.2-1.2,0.9-1.5c0.2,0,0.3,0,0.5,0
		c0.7,0.2,1,0.7,0.9,1.4c0,0.4,0,0.8,0,1.3c0.4,0,0.8,0,1.1,0c0-0.4,0-0.8,0-1.2c0-0.7,0.2-1.2,0.9-1.5c0.2,0,0.3,0,0.5,0
		c0.7,0.2,1,0.7,0.9,1.5c0,0.4,0,0.8,0,1.2c0.4,0,0.8,0,1.1,0c0-0.4,0-0.8,0-1.2c0-0.7,0.2-1.2,0.9-1.5c0.2,0,0.3,0,0.5,0
		c0.5,0.2,0.9,0.6,0.9,1.2c0,0.3,0,0.5,0,0.8c0,0.3,0,0.5,0,0.7c0.4,0,0.8,0,1.1,0c0-0.4,0-0.8,0-1.2c0-0.7,0.2-1.2,0.9-1.5
		c0.2,0,0.3,0,0.5,0c0.7,0.3,0.9,0.8,0.9,1.5c0,0.4,0,0.8,0,1.2c0.4,0,0.8,0,1.1,0c0-0.4,0-0.8,0-1.2c0-0.7,0.2-1.2,0.9-1.4
		c0.2,0,0.3,0,0.5,0C31.8,8.5,32.1,9,32,9.7c0,0.4,0,0.8,0,1.2c0.1,0,0.2,0,0.3,0c0.7,0,1.3,0,2,0c0.7,0,1.2,0.5,1.2,1.2
		c0,0.1,0,0.2,0,0.3C35.6,21.1,35.6,29.7,35.6,38.3z"/>
</g>
</svg>
