<?xml version="1.0" encoding="UTF-8"?>
<svg version="1.1" viewBox="0 0 48 48" xmlns="http://www.w3.org/2000/svg">
    <path d="m8.4736 15.597c-2.0179 3.1972-3.4947 8.0539-3.4734 11.835 0.039348 7.0059 3.8765 10.333 8.7472 6.6903 4.7447-3.5484 14.578-3.6197 19.43-0.26931 4.9887 3.4448 9.8223 1.4939 9.8223-6.4209 0-4.8639-1.6969-10.058-3.4734-11.835-4.9632-4.9632-10.249-2.6952-15.526-2.6952s-12.276-2.268-15.526 2.6952zm6.8408 2.8224c0.60148 0 1.0857 0.48423 1.0857 1.0857v2.1714h2.1714c0.60148 0 1.0857 0.48423 1.0857 1.0857s-0.48423 1.0857-1.0857 1.0857h-2.1714v2.1714c0 0.60148-0.48423 1.0857-1.0857 1.0857s-1.0857-0.48423-1.0857-1.0857v-2.1714h-2.1714c-0.60148 0-1.0857-0.48422-1.0857-1.0857s0.48423-1.0857 1.0857-1.0857h2.1714v-2.1714c0-0.60148 0.48423-1.0857 1.0857-1.0857zm17.579 0.54285c2.0987 0 3.8 1.7013 3.8 3.8s-1.7013 3.8-3.8 3.8-3.8-1.7013-3.8-3.8 1.7013-3.8 3.8-3.8z" fill="#fff" stroke-width="1.0857"/>
</svg>
