<?xml version="1.0" encoding="utf-8"?>
<!-- Generator: Adobe Illustrator 21.1.0, SVG Export Plug-In . SVG Version: 6.00 Build 0)  -->
<svg version="1.0" id="Layer_1" xmlns="http://www.w3.org/2000/svg" xmlns:xlink="http://www.w3.org/1999/xlink" x="0px" y="0px"
	 viewBox="0 0 48 48" style="enable-background:new 0 0 48 48;" xml:space="preserve">
<style type="text/css">
	.st0{fill:#FFFFFF;}
</style>
<path class="st0" d="M22.5,2c2-0.1,1.1,0,3.1,0.1c0.9,0.1,1.4,0.1,1.6,0.2c5.3,0.9,9.7,3.3,13.1,7.4c3.7,4.3,5.4,9.4,5.2,15.1
	c-0.1,2.1-0.6,4.1-1.1,6.1c2.3,4.4,2.1,8.6-1.4,12.2c-3.6,3.6-7.9,3.8-12.3,1.5c-0.9,0.2-1.8,0.4-2.7,0.6c-8.5,1.5-15.7-1-21.2-7.6
	C2.2,31.7,0.9,25,2.9,17.8c1.3-4.8,4-8.6,8-11.6c2.7-2,5.8-3.3,9.1-3.9C20.3,2.2,21.3,2,22.5,2z M30.3,6.7c-0.1,0-0.2-0.1-0.3-0.1
	c-5.6,0-11.1,0-16.7,0c-1.2,0-1.5,0.4-1.5,1.8c0,10,0,20,0,30c0,0.5,0,1,0.5,1.6c1.5,0.3,3.1,0.1,4.8,0.1c1.6,0,3.3,0,4.9,0
	c1.7,0,3.3,0,5.1,0c-0.7-1.8-1-3.4-0.9-5.2c-4.2,0-8.3,0-12.4,0c-0.1-1.1-0.1-2.2,0-3.3c4.6,0,9,0,13.4,0c0.5-1.1,1.4-1.9,2.1-3.1
	c-5.3,0-10.4,0-15.6,0c-0.1-1.2-0.1-2.2,0-3.3c6.6,0,13.2,0,19.6,0c0.4,0.4,0.1,0.9,0.5,1.2c0.6,0,1.2,0,1.8-0.3
	c0.1-3.8,0-7.6-0.1-11.4C33.9,12.1,32.1,9.4,30.3,6.7z M37.3,33.5c-1.7,1.6-3.3,3.2-4.9,4.7c0,0.5-0.1,1,0.1,1.5
	c0.5,0.1,1,0.1,1.6,0c1.6-1.5,3.2-3.1,4.7-4.7C38.2,34.4,37.7,33.9,37.3,33.5z M38.7,31.9c-0.5,0.3-0.9,0.6-1.1,1.1
	c0.5,0.5,0.9,1.1,1.6,1.5c0.3-0.4,0.8-0.6,0.8-1.2C39.8,32.8,39.3,32.4,38.7,31.9z"/>
<path class="st0" d="M33.7,19c0.1,1.1,0.1,2.1,0,3c-0.9,0.2-18.4,0.3-19.8,0.1c-0.1-1-0.1-2,0-3.1C20.5,19,27,19,33.7,19z"/>
<path class="st0" d="M13.9,15.8c-0.1-1.1-0.1-2.1,0-3.2c5.6,0,11,0,16.5,0c0.3,0.5,0.1,1.1,0.5,1.7c0.8,0.7,1.9,0,2.8,0.4
	c0.2,0.4,0.2,0.7,0.1,1.1C27.1,15.8,20.5,15.8,13.9,15.8z"/>
</svg>
