<?xml version="1.0" encoding="utf-8"?>
<!-- Generator: Adobe Illustrator 21.1.0, SVG Export Plug-In . SVG Version: 6.00 Build 0)  -->
<svg version="1.0" id="Layer_1" xmlns="http://www.w3.org/2000/svg" xmlns:xlink="http://www.w3.org/1999/xlink" x="0px" y="0px"
	 viewBox="0 0 48 48" style="enable-background:new 0 0 48 48;" xml:space="preserve">
<style type="text/css">
	.st0{fill:#FFFFFF;}
</style>
<path class="st0" d="M24,2C11.8,2,2,11.8,2,24s9.8,22,22,22s22-9.8,22-22S36.2,2,24,2z M39.5,25.4c-2.6,3.5-5.9,5.8-10.2,6.8
	c-1.4,0.3-2.9,0.5-4.3,0.5c-1.8,0-3.6,0-5.4-0.3c-5.4-1.1-9.4-4-12.1-8.7c-0.1-0.1-0.1-0.3-0.2-0.4c0,0,0-0.1,0-0.1
	c1-0.7,2-1.4,3.1-2.1c1.7-1.2,3.5-2.3,5.2-3.5c1.9-1.3,3.9-1.4,6.1-0.8c0.8,0.2,1.5,0.6,2.2,0.9c0.2,0.1,0.3,0.1,0.5,0
	c1.2-0.6,2.4-1.1,3.8-1.3c1.5-0.2,2.8,0,4.1,0.8c2.9,1.9,5.7,3.9,8.6,5.8c0,0,0.1,0.1,0.2,0.1C40.4,23.9,40,24.7,39.5,25.4z"/>
<path class="st0" d="M29.2,22.2c-0.1,0-0.3,0-0.4,0c-0.8,0.1-1.5,0.3-2.3,0.4c-0.9,0.1-1.8,0.3-2.6,0.2c-1.4-0.1-2.9-0.4-4.3-0.6
	c-0.2,0-0.5,0-0.7,0c-2,0.6-4,1.2-6,1.5c0.2,0,0.3,0,0.5,0c2.6,0,5.2,0,7.8,0.1c1.9,0.1,3.8,0.2,5.8,0c2.7-0.2,5.4-0.3,8.1-0.2
	c0.1,0,0.3,0,0.4,0c-0.3-0.1-0.6-0.1-0.9-0.2C32.6,23.2,30.9,22.7,29.2,22.2z"/>
</svg>
