<?xml version="1.0" encoding="UTF-8"?>
<svg version="1.1" viewBox="0 0 48 48" xmlns="http://www.w3.org/2000/svg">
    <clipPath id="a">
        <circle cx="24" cy="24" r="22"/>
    </clipPath>
    <g clip-path="url(#a)" fill="none" stroke="#fff" stroke-width="8">
        <circle cx="24" cy="24" r="22"/>
        <path d="m18.549 17.005c-0.2137 0.0076-0.38621 0.0308-0.53584 0.06248-0.12363-0.02319-0.24876-0.03515-0.37634-0.03515-0.19171 0-0.37499 0.0364-0.55376 0.08981-0.56488-0.09195-1.4022-0.08981-2.3333-0.08981-1.657 0-3.012 0.44118-3 0.98606 0.03106 1.4094 1.5823 6.8145 3 0.98801 0.16066-0.66028 0.63678-0.94927 1.1667-1.0837-1.0073 1.1056-1.62 3.056-1.62 4.776-1e-6 1.7525 0.48305 2.7739 1.534 3.2511-0.35336 0.41435-0.75677 0.86672-1.0663 1.1462-0.80014 0.72237-2.6093 0.72667-2.6093 1.8589 0 0-0.19452 2.6106 0 3.8897 0.30953 2.0354 1.6246 3.8079 1.8322 5.8586 0.30869 3.049-0.14936 3.2812-0.68457 7.0932-0.53522 3.8119-1.1476 11.204-1.1476 11.204h11.19s-0.61319-7.3916-1.1491-11.203c-0.53592-3.8119-0.99458-4.044-0.68553-7.0931 0.20789-2.051 1.5247-3.8231 1.8346-5.8587 0.19476-1.2791 0-3.8897 0-3.8897 0-1.1715-1.903-1.1213-2.7383-1.8589-0.3218-0.28414-0.74041-0.75633-1.1003-1.1813 1.1114-0.5155 1.6971-1.5915 1.6971-3.3389 0-1.7696-0.75654-3.7254-1.8835-4.7741 0.65284 0.14106 1.2773 0.43303 1.4301 1.2047 1.4177 7.1624 2.9689 0.39507 3-0.98801 0.01223-0.54487-1.3429-0.98606-3-0.98606-0.82851 0-1.6182-0.04814-2.2007-0.02733z" color="#000000" color-rendering="auto" dominant-baseline="auto" fill="#fff" image-rendering="auto" shape-rendering="auto" solid-color="#000000" stroke="none" style="font-feature-settings:normal;font-variant-alternates:normal;font-variant-caps:normal;font-variant-ligatures:normal;font-variant-numeric:normal;font-variant-position:normal;isolation:auto;mix-blend-mode:normal;shape-padding:0;text-decoration-color:#000000;text-decoration-line:none;text-decoration-style:solid;text-indent:0;text-orientation:mixed;text-transform:none;white-space:normal"/>
        <path d="m25.465 21.359-1.1834 6.2481c-0.30274 1.5984 1.6401 4.5902 1.5754 6.215-0.053 1.3314-1.5754 2.1519-1.5754 3.485v21.052h8.9263v-21.052c0-1.333-1.5224-2.1536-1.5754-3.485-0.06467-1.6248 1.927-4.6266 1.5754-6.215l-1.1834-6.2481-1.42 3.1007c-1.7643-1.0185-2.2563-0.84553-3.721 0z" color="#000000" color-rendering="auto" dominant-baseline="auto" fill="#fff" image-rendering="auto" shape-rendering="auto" solid-color="#000000" stroke="none" style="font-feature-settings:normal;font-variant-alternates:normal;font-variant-caps:normal;font-variant-ligatures:normal;font-variant-numeric:normal;font-variant-position:normal;isolation:auto;mix-blend-mode:normal;shape-padding:0;text-decoration-color:#000000;text-decoration-line:none;text-decoration-style:solid;text-indent:0;text-orientation:mixed;text-transform:none;white-space:normal"/>
        <path d="m33.866 26.909c-0.58746 1.1705 1.2466 2.6217 1.2466 2.6217l-1.2466 0.76946 1.2466 0.34851s-1.7283 2.0796-1.2466 3.0426c1.9813 3.9606 2.9316-2.3082 2.9316-2.3082-2.1659 13.018-2.9316 14.624 0 27.276h3.0088v-16.003l1.6245-11.778s0.71768-2.881 0-3.9687c-3.1911-3.182-6.1529-2.8135-7.565 0z" color="#000000" color-rendering="auto" dominant-baseline="auto" fill="#fff" image-rendering="auto" shape-rendering="auto" solid-color="#000000" stroke="none" style="font-feature-settings:normal;font-variant-alternates:normal;font-variant-caps:normal;font-variant-ligatures:normal;font-variant-numeric:normal;font-variant-position:normal;isolation:auto;mix-blend-mode:normal;shape-padding:0;text-decoration-color:#000000;text-decoration-line:none;text-decoration-style:solid;text-indent:0;text-orientation:mixed;text-transform:none;white-space:normal"/>
        <path d="m5.2501 38s1.0694-3.6726 1.5697-5.4119c0.35651-1.2396-0.31868-1.795-0.4643-2.1801-1.73-4.5752-0.81865-6.5041 0.51722-6.7693 0.6966-0.1383 0.89577-0.37318 1.2747-0.6281 0.64709-0.43537 1.7548-0.82316 2.4348-0.64095 0.79726 0.21362 0.7464 1.0557 0.34522 1.5255-0.34109 0.39939-0.17335 0.85294 0.0043 1.4856 0.36136 1.2866 0.67741 3.1907-0.60984 5.4203-0.31116 0.53895-1.2696 0.80126-1.4269 2.7795-0.10111 1.2724-1.3103 4.4194-1.3103 4.4194z" fill="#fff" stroke="none"/>
    </g>
</svg>
