<?xml version="1.0" encoding="UTF-8"?>
<svg version="1.1" viewBox="0 0 48 48" xmlns="http://www.w3.org/2000/svg">
    <path d="m23.999 6.3515a8.9998 8.9998 0 0 0-8.9998 8.9998 8.9998 8.9998 0 0 0 4.5233 7.7947l1.996-3.4589a4.9999 4.9999 0 0 1-2.5195-4.3358 4.9999 4.9999 0 0 1 4.9999-4.9999 4.9999 4.9999 0 0 1 4.9999 4.9999 4.9999 4.9999 0 0 1-2.5195 4.3339l1.998 3.4628a8.9998 8.9998 0 0 0 4.5214-7.7967 8.9998 8.9998 0 0 0-8.9998-8.9998z" fill="#fff"/>
    <path d="m13.999 23.65a8.9998 8.9998 0 0 0-8.9998 8.9998 8.9998 8.9998 0 0 0 8.9998 8.9998 8.9998 8.9998 0 0 0 8.9978-8.9392h-4.0018a4.9999 4.9999 0 0 1-4.996 4.9393 4.9999 4.9999 0 0 1-4.9999-4.9999 4.9999 4.9999 0 0 1 4.9999-4.9999 4.9999 4.9999 0 0 1 2.5234 0.68944l1.998-3.4589a8.9998 8.9998 0 0 0-4.5214-1.2304z" fill="#fff"/>
    <path d="m41.819 28.193a8.9998 8.9998 0 0 0-3.3057-3.3203l-2.0196 3.4502a4.9999 4.9999 0 0 1 1.8499 1.8502 4.9999 4.9999 0 0 1-1.869 6.8194 4.9999 4.9999 0 0 1-6.8194-1.869 4.9999 4.9999 0 0 1 1.8174-6.7877l-1.9792-3.4737a8.9998 8.9998 0 0 0-3.3136 12.242 8.9998 8.9998 0 0 0 12.275 3.3642 8.9998 8.9998 0 0 0 3.3642-12.275z" fill="#fff"/>
</svg>
