<?xml version="1.0" encoding="UTF-8"?>
<svg xmlns="http://www.w3.org/2000/svg" viewBox="0 0 48 48" version="1.1">
<path d="M7 5c-1.108 0-2 .892-2 2v5.01h7.023V5H7zm6.91 0v7.01h20.23V5H13.91zm22.117 0v7.01H43V7c0-1.108-.892-2-2-2h-4.973zM5 13.896V33.98h7.023V13.896H5zm8.91 0V33.98h20.23V13.896H13.91zm22.117 0V33.98H43V13.896h-6.973zm-11.908 4.1c1.372 0 2.479.446 3.324 1.342.852.895 1.28 2.148 1.28 3.758v3.883c0 1.584-.464 2.828-1.391 3.736-.92.902-2.106 1.353-3.553 1.353-.482 0-.977-.05-1.484-.15-.501-.1-.97-.247-1.408-.441l.365-1.739c.407.182.805.313 1.193.395.389.075.833.113 1.334.113.79 0 1.428-.28 1.916-.838.495-.557.742-1.34.742-2.347v-.987c-.3.42-.665.737-1.097.95a3.14 3.14 0 01-1.408.318c-1.297 0-2.316-.41-3.055-1.23-.733-.821-1.1-1.95-1.1-3.391 0-1.372.412-2.502 1.233-3.39.826-.89 1.863-1.335 3.11-1.335zm.037 1.83c-.607 0-1.113.277-1.513.828-.395.545-.59 1.234-.59 2.067 0 .858.176 1.546.533 2.066.363.52.884.781 1.56.781.545 0 1.013-.112 1.4-.338.39-.231.685-.534.892-.904v-1.623c0-.92-.203-1.63-.61-2.125-.4-.5-.958-.752-1.672-.752zm5.323 1.51l3.718 3.635v8.066h-8.676s-.245-.039-.003-.064c1.344-.141 2.542-.673 3.472-1.584 1.123-1.1 1.676-2.642 1.676-4.41v-3.883c0-.62-.065-1.207-.187-1.76zm-4.256 6.654c-.087.25-.091.634-.233.793a.943.943 0 00-.004.006c-.306.35-.614.494-1.129.508l-1.054-1.12c.363.07.74.108 1.129.108.451 0 .87-.156 1.29-.295zM5 35.867V41c0 1.108.892 2 2 2h5.023v-7.133H5zm8.91 0V43h20.23v-7.133H13.91zm22.117 0V43H41c1.108 0 2-.892 2-2v-5.133h-6.973z" fill="#fff"/>
</svg>