<?xml version="1.0" encoding="utf-8"?>
<!-- Generator: Adobe Illustrator 21.1.0, SVG Export Plug-In . SVG Version: 6.00 Build 0)  -->
<svg version="1.0" id="Layer_1" xmlns="http://www.w3.org/2000/svg" xmlns:xlink="http://www.w3.org/1999/xlink" x="0px" y="0px"
	 viewBox="0 0 48 48" style="enable-background:new 0 0 48 48;" xml:space="preserve">
<style type="text/css">
	.st0{fill:#FFFFFF;}
</style>
<g>
	<path class="st0" d="M29.7,17.4c-0.6,0-1,0.4-0.9,1c0,0.6,0.4,1,1,0.9c0.6,0,0.9-0.4,1-1C30.6,17.8,30.3,17.4,29.7,17.4z"/>
	<path class="st0" d="M33,16.5c-0.6-0.1-1.1,0.5-1,1c0,0.6,0.4,0.9,1,1c0.6-0.1,1-0.4,1-1C34,16.9,33.6,16.5,33,16.5z"/>
	<path class="st0" d="M29.4,15.4c0-0.6-0.4-1-1-1c-0.5,0-1.1,0.5-1,1c0.1,0.6,0.4,0.9,0.9,0.9C28.9,16.4,29.4,15.9,29.4,15.4z"/>
	<path class="st0" d="M24,2C11.8,2,2,11.8,2,24s9.8,22,22,22s22-9.8,22-22S36.2,2,24,2z M10.8,15.9c2.4-1.5,5-2.3,7.8-2.7
		c5.2-0.8,10.4-0.6,15.4,1.2c1.5,0.5,2.9,1.4,4.3,2.2c1.6,0.9,1.7,2.5,1.8,4.2c-10.7,0-21.3,0-32,0C8.1,18.6,9,17.1,10.8,15.9z
		 M10.2,26c0.6-0.2,1.3-0.2,1.9,0c2.6,0.7,5.1,1.4,7.6,2.1c1,0.3,1.9,0.2,2.7-0.7c1-1.3,2.4-1.7,4.1-1.7c3.4,0.1,6.8,0,10.3,0
		c1.2,0,2,0.7,2,2c0,1.2-0.8,2-2,2c-4.3,0-8.6,0-12.8,0c-4.2,0-8.5,0-12.7,0c-1,0-1.6-0.4-1.8-1.3C9.1,27.5,9.4,26.3,10.2,26z
		 M9.3,23.3c0-0.7,0.5-1,1.4-1c8.9,0,17.9,0,26.8,0c0.9,0,1.3,0.4,1.2,1.2c-0.1,0.7-0.6,0.9-1.2,0.9c-3,0-6.1,0-9.1,0
		c-1.5,0-3,0-4.4,0c-4.5,0-8.9,0-13.4,0C9.7,24.3,9.3,24,9.3,23.3z M39.4,34.4c-0.3,0.6-0.8,0.8-1.5,0.8c-9.2,0-18.5,0-27.7,0
		c-0.8,0-1.3-0.3-1.6-1c-0.3-0.9-0.5-1.9-0.8-3c10.9,0,21.5,0,32.2,0C40.2,32.4,39.9,33.4,39.4,34.4z"/>
</g>
</svg>
