<?xml version="1.0" encoding="UTF-8" standalone="no"?>
<svg
   xmlns:dc="http://purl.org/dc/elements/1.1/"
   xmlns:cc="http://creativecommons.org/ns#"
   xmlns:rdf="http://www.w3.org/1999/02/22-rdf-syntax-ns#"
   xmlns:svg="http://www.w3.org/2000/svg"
   xmlns="http://www.w3.org/2000/svg"
   xmlns:sodipodi="http://sodipodi.sourceforge.net/DTD/sodipodi-0.dtd"
   xmlns:inkscape="http://www.inkscape.org/namespaces/inkscape"
   width="48"
   height="48"
   viewBox="0 0 48 48"
   version="1.1"
   id="svg297"
   sodipodi:docname="openboard.svg"
   inkscape:version="0.92.5 (2060ec1f9f, 2020-04-08)">
  <metadata
     id="metadata303">
    <rdf:RDF>
      <cc:Work
         rdf:about="">
        <dc:format>image/svg+xml</dc:format>
        <dc:type
           rdf:resource="http://purl.org/dc/dcmitype/StillImage" />
        <dc:title />
      </cc:Work>
    </rdf:RDF>
  </metadata>
  <defs
     id="defs301" />
  <sodipodi:namedview
     pagecolor="#ffffff"
     bordercolor="#666666"
     borderopacity="1"
     objecttolerance="10"
     gridtolerance="10"
     guidetolerance="10"
     inkscape:pageopacity="0"
     inkscape:pageshadow="2"
     inkscape:window-width="1366"
     inkscape:window-height="768"
     id="namedview299"
     showgrid="false"
     inkscape:zoom="6.9532167"
     inkscape:cx="-0.81355932"
     inkscape:cy="24"
     inkscape:window-x="0"
     inkscape:window-y="0"
     inkscape:window-maximized="0"
     inkscape:current-layer="svg297" />
  <path
     style="fill:#ffffff;stroke-width:0.10215187;stroke:none"
     d="m 7.0240248,42.890426 c -0.782691,-0.182394 -1.793909,-1.319824 -1.950202,-2.193601 -0.04059,-0.226963 -0.07382,-5.77207 -0.07382,-12.322459 0,-11.280891 0.0091,-11.937718 0.171821,-12.438504 0.0945,-0.290789 0.207668,-0.528707 0.251496,-0.528707 0.04384,0 0.106311,-0.09962 0.138857,-0.221383 0.09151,-0.342328 0.988062,-0.988397 1.545895,-1.113999 0.272607,-0.06138 1.73443,-0.111603 3.2484872,-0.111603 h 2.752835 V 9.792383 5.6245944 l 0.226259,-0.312299 0.226259,-0.3123 h 10.422073 10.422078 l 0.273561,0.363502 0.273554,0.363503 V 9.8354 13.943802 l 3.023449,0.03632 c 2.948238,0.03542 3.035698,0.04289 3.516313,0.300506 0.559935,0.300135 0.990799,0.827932 1.278473,1.566099 0.19622,0.503481 0.197564,0.57725 0.223334,12.236074 0.01697,7.672874 -0.0074,11.943126 -0.0702,12.347107 -0.185299,1.190064 -1.0652,2.24483 -2.059431,2.468691 -0.623473,0.140381 -33.2373932,0.132507 -33.8410682,-0.0081 z m 27.7606722,-2.649659 0.303225,-0.321665 -0.02586,-1.812419 c -0.01423,-0.996831 -0.06818,-1.906326 -0.119941,-2.021101 -0.05172,-0.114774 -0.199716,-0.256371 -0.328844,-0.31466 -0.258299,-0.116594 -20.933258,-0.15024 -21.296677,-0.03466 -0.402298,0.127948 -0.488437,0.551665 -0.488437,2.402782 0,1.823728 0.06024,2.101262 0.502226,2.313014 0.110493,0.05294 4.914698,0.09943 10.676009,0.103315 l 10.475101,0.007 z M 16.478895,32.050863 c 0.382299,-0.234713 0.474258,-0.681748 0.474258,-2.305349 0,-2.334046 -0.08281,-2.428559 -2.128025,-2.428559 -1.383123,0 -1.74517,0.118595 -1.907255,0.624763 -0.135672,0.423657 -0.11123,3.380979 0.0307,3.713997 0.202497,0.47516 0.479236,0.555318 1.923305,0.557086 0.998159,0.0012 1.408648,-0.04014 1.607021,-0.161938 z m 5.812512,0 c 0.382292,-0.234713 0.474259,-0.681748 0.474259,-2.305349 0,-2.334046 -0.08282,-2.428559 -2.128025,-2.428559 -1.383124,0 -1.74517,0.118595 -1.907263,0.624763 -0.135664,0.423657 -0.111223,3.380979 0.0307,3.713997 0.202496,0.47516 0.479242,0.555318 1.923304,0.557086 0.998159,0.0012 1.408649,-0.04014 1.607028,-0.161938 z m 6.093759,-0.222613 c 0.382291,-0.234714 0.474258,-0.681749 0.474258,-2.305349 0,-2.334047 -0.08282,-2.42856 -2.128018,-2.42856 -1.383131,0 -1.745177,0.118596 -1.907262,0.624763 -0.135672,0.423658 -0.11123,3.38098 0.0307,3.713998 0.202504,0.47516 0.479243,0.555318 1.923305,0.557086 0.998166,0.0012 1.408656,-0.04014 1.607028,-0.161938 z m 5.812511,-0.111306 c 0.382292,-0.234713 0.474259,-0.68175 0.474259,-2.30535 0,-2.334046 -0.08282,-2.428559 -2.128025,-2.428559 -1.383123,0 -1.745169,0.118595 -1.907262,0.624763 -0.135664,0.423658 -0.111223,3.380979 0.0307,3.713997 0.202496,0.475161 0.479242,0.555318 1.923303,0.557086 0.998159,0.0012 1.408649,-0.04014 1.607028,-0.161937 z m -17.554436,-8.118858 0.263037,-0.268365 0.0299,-1.722565 0.0299,-1.722563 -0.29741,-0.402161 -0.297403,-0.402161 h -1.526784 c -2.067195,0 -1.959765,-0.113888 -1.999815,2.119928 -0.03344,1.865373 -0.0051,2.122981 0.267147,2.446472 0.169316,0.201017 0.316739,0.219781 1.726767,0.219781 1.494029,0 1.549774,-0.0083 1.804693,-0.268366 z m 5.812512,0 0.263038,-0.268365 0.0299,-1.722565 0.0299,-1.722563 -0.297411,-0.402161 -0.297403,-0.402161 h -1.526783 c -2.067203,0 -1.959765,-0.113888 -1.999815,2.119928 -0.03344,1.865373 -0.0051,2.122981 0.267147,2.446472 0.169308,0.201017 0.316731,0.219781 1.726767,0.219781 1.494028,0 1.549773,-0.0083 1.804692,-0.268366 z m 6.093759,-0.222613 0.263037,-0.268365 0.0299,-1.722565 0.0299,-1.722563 -0.29741,-0.402162 -0.297403,-0.40216 h -1.526784 c -2.067195,0 -1.959765,-0.113887 -1.999815,2.119928 -0.03344,1.865374 -0.0051,2.122981 0.267147,2.446471 0.169316,0.201018 0.316739,0.219782 1.726767,0.219782 1.494029,0 1.549774,-0.0083 1.804693,-0.268366 z m 5.812511,-0.111307 0.263038,-0.268365 0.0299,-1.722565 0.0299,-1.722562 -0.297411,-0.402162 -0.29741,-0.40216 h -1.526776 c -2.067202,0 -1.959764,-0.113889 -1.999814,2.119928 -0.03344,1.865372 -0.0051,2.122981 0.267147,2.446472 0.169308,0.201016 0.316731,0.21978 1.726766,0.21978 1.494028,0 1.549773,-0.0083 1.804692,-0.268366 z M 18.640657,14.321745 c 0.2868,-0.170103 0.331726,-0.253428 0.356702,-0.661566 0.02196,-0.35826 -0.01806,-0.522295 -0.171691,-0.704722 -0.183689,-0.218087 -0.187994,-0.253871 -0.052,-0.432266 0.169561,-0.222451 0.191662,-0.596172 0.05338,-0.902905 -0.125574,-0.27858 -0.65162,-0.441396 -1.428584,-0.442157 l -0.632812,-5.85e-4 v 1.669598 1.669598 l 0.773439,-2.51e-4 c 0.548494,-8.3e-5 0.868865,-0.05678 1.10156,-0.194785 z m -1.125005,-0.8132 v -0.451627 l 0.398442,0.03422 c 0.334297,0.02872 0.403368,0.07553 0.429074,0.290793 0.04362,0.365503 -0.144303,0.578233 -0.510864,0.578233 -0.307674,0 -0.316652,-0.0128 -0.316652,-0.451626 z m 0,-1.391985 c 0,-0.378047 0.0138,-0.39499 0.295237,-0.361746 0.589345,0.06962 0.566225,0.758372 -0.0255,0.758372 -0.246728,0 -0.269776,-0.03388 -0.269776,-0.396626 z m 4.275545,2.124406 c 0.646687,-0.503077 0.748708,-2.00594 0.181854,-2.678945 -0.276984,-0.328858 -0.89356,-0.527083 -1.334197,-0.42894 -0.188535,0.04199 -0.490633,0.237216 -0.671338,0.43383 -0.291495,0.317164 -0.333148,0.432934 -0.369313,1.026536 -0.05468,0.897419 0.154191,1.428545 0.675968,1.718917 0.440045,0.244885 1.153622,0.211301 1.517026,-0.0714 z M 20.63088,13.885675 c -0.178524,-0.08528 -0.39647,-0.649184 -0.39647,-1.025796 0,-1.044688 0.655578,-1.581985 1.176142,-0.963939 0.187611,0.222745 0.230109,0.384442 0.230109,0.875442 0,0.930856 -0.421078,1.395514 -1.009781,1.114293 z m 2.658788,0.352762 c 0.05511,-0.260649 0.09691,-0.278267 0.660359,-0.278267 0.555371,0 0.608371,0.02135 0.690645,0.278267 0.07136,0.22292 0.153714,0.278267 0.413935,0.278267 h 0.324827 l -0.37933,-1.252199 c -0.208629,-0.688709 -0.431609,-1.427507 -0.495508,-1.641772 -0.106377,-0.35666 -0.151078,-0.392313 -0.529123,-0.422007 l -0.41293,-0.03243 -0.459243,1.535072 c -0.252586,0.844291 -0.478585,1.597684 -0.502218,1.674207 -0.02933,0.09493 0.06385,0.139133 0.293394,0.139133 0.280603,0 0.346121,-0.04613 0.395192,-0.278266 z m 0.31975,-0.981931 c 0,-0.239038 0.292947,-1.188547 0.366691,-1.188547 0.05937,0 0.38331,1.066414 0.38331,1.261981 0,0.04054 -0.168752,0.0737 -0.375004,0.0737 -0.248368,0 -0.374997,-0.04969 -0.374997,-0.147134 z m 2.906253,0.644519 c 0,-0.445993 0.03893,-0.63343 0.141348,-0.680079 0.23523,-0.107169 0.567281,0.244573 0.741146,0.785085 0.156683,0.487107 0.181284,0.510673 0.533096,0.510673 h 0.368821 l -0.246642,-0.58436 c -0.13565,-0.321397 -0.308548,-0.667939 -0.384206,-0.77009 -0.122179,-0.164954 -0.115159,-0.212329 0.06269,-0.423502 0.153649,-0.182426 0.193619,-0.346461 0.171691,-0.70472 -0.02499,-0.408139 -0.06992,-0.491463 -0.356702,-0.661566 -0.221701,-0.13149 -0.54858,-0.19467 -1.007816,-0.194786 l -0.679687,-1.68e-4 v 1.669598 1.669599 h 0.328128 0.328121 z m 0.06248,-1.239431 c -0.03438,-0.04081 -0.06248,-0.266207 -0.06248,-0.500879 0,-0.377069 0.02636,-0.426675 0.226707,-0.426675 0.387571,0 0.523294,0.117548 0.523294,0.453219 0,0.405561 -0.471457,0.730839 -0.687496,0.474335 z m 3.734375,1.747031 c 0.237462,-0.06508 0.486754,-0.247213 0.679695,-0.49659 0.272802,-0.352608 0.304683,-0.463477 0.304683,-1.059422 0,-0.582687 -0.03546,-0.713577 -0.284813,-1.050731 -0.319108,-0.431509 -0.855172,-0.624375 -1.735427,-0.624375 h -0.511015 v 1.669598 1.669599 l 0.585943,-0.0027 c 0.322264,-0.0015 0.754689,-0.0489 0.960934,-0.105422 z m -0.89062,-1.56152 V 11.73404 h 0.335337 c 0.24563,0 0.40864,0.08703 0.609374,0.325357 0.580288,0.688962 0.191792,1.900773 -0.609374,1.900773 H 29.421906 Z M 20.469348,8.88503 c 0.133859,-0.104129 0.309971,-0.342228 0.391371,-0.52911 0.195533,-0.448928 0.183919,-1.4195716 -0.02196,-1.8333056 -0.443613,-0.891608 -1.618903,-1.018519 -2.245157,-0.242438 -0.229191,0.284025 -0.278443,0.449416 -0.310209,1.0417826 -0.04854,0.905162 0.129547,1.342951 0.668117,1.642319 0.459517,0.255431 1.132777,0.220278 1.517806,-0.07924 z M 19.157123,8.395971 C 18.765044,7.881602 18.92398,6.5115214 19.396375,6.3335124 c 0.567432,-0.213824 0.983433,0.381926 0.908995,1.3017466 -0.05345,0.660359 -0.276377,0.982198 -0.680359,0.982198 -0.179499,0 -0.366561,-0.08855 -0.467888,-0.221486 z m 3.13977,0.165832 V 7.949618 h 0.415769 c 0.606847,0 0.885514,-0.163546 1.043475,-0.612415 0.165964,-0.4715906 0.102794,-0.8378776 -0.203413,-1.1794126 -0.194097,-0.216489 -0.354463,-0.26181 -1.070199,-0.302438 l -0.841889,-0.04779 V 7.490775 9.173989 h 0.328129 0.328128 z m 0,-1.6631966 c 0,-0.502041 0.0036,-0.50728 0.316645,-0.50728 0.380919,0 0.551195,0.211253 0.510437,0.633282 -0.02723,0.2817036 -0.06984,0.3162276 -0.428647,0.3470506 l -0.398435,0.03422 z m 4.078126,1.9971166 c 0,-0.269333 -0.0203,-0.278266 -0.632812,-0.278266 H 25.109395 V 8.172231 7.727004 h 0.562499 c 0.537501,0 0.562506,-0.01236 0.562506,-0.278265 0,-0.2658996 -0.02499,-0.2782666 -0.562506,-0.2782666 h -0.562499 v -0.389573 -0.389573 h 0.609374 c 0.587504,0 0.609375,-0.01 0.609375,-0.278266 V 5.8347944 H 25.390648 24.453145 V 7.504392 9.17399 h 0.960941 0.960933 z m 1.28579,-0.862626 0.02672,-1.1408916 0.507548,1.1408916 0.507555,1.140893 h 0.359635 0.359641 V 7.504392 5.8347944 h -0.281253 -0.281253 v 1.113065 c 0,0.6121856 -0.0333,1.1130646 -0.07405,1.1130646 -0.04074,0 -0.281628,-0.500879 -0.535327,-1.1130646 L 27.788753,5.8347944 H 27.386577 26.984401 V 7.504392 9.17399 h 0.324842 0.32485 z"
     id="path71"
     inkscape:connector-curvature="0" />
</svg>
