<svg id="Layer_1" data-name="Layer 1" xmlns="http://www.w3.org/2000/svg" viewBox="0 0 48 48"><defs><style>.cls-1{fill:#fff;}</style></defs><title>OpenScale</title><path class="cls-1" d="M14.35,15.09c1.44,1.44,2.87,2.88,4.31,4.31a7.67,7.67,0,0,1,2.22-1.53l-1.72-2.72a.92.92,0,1,1,1.56-1l2,3.14A7,7,0,0,1,24,17.19a7.54,7.54,0,0,1,5.34,2.21c1.44-1.43,2.87-2.87,4.31-4.31a13.66,13.66,0,0,0-19.3,0Z"/><path class="cls-1" d="M41,5H7A2,2,0,0,0,5,7V41a2,2,0,0,0,2,2H41a2,2,0,0,0,2-2V7A2,2,0,0,0,41,5ZM35,16.4l-3.24,3.23-1.08,1.08a1.83,1.83,0,0,1-1.3.54A1.86,1.86,0,0,1,28,20.71a5.7,5.7,0,0,0-8.06,0,1.87,1.87,0,0,1-1.31.54,1.83,1.83,0,0,1-1.3-.54l-1.08-1.08L13,16.4a1.85,1.85,0,0,1,0-2.61,15.5,15.5,0,0,1,21.92,0A1.85,1.85,0,0,1,35,16.4Z"/></svg>