<?xml version="1.0" encoding="UTF-8" standalone="no"?>
<svg
   xmlns:dc="http://purl.org/dc/elements/1.1/"
   xmlns:cc="http://creativecommons.org/ns#"
   xmlns:rdf="http://www.w3.org/1999/02/22-rdf-syntax-ns#"
   xmlns:svg="http://www.w3.org/2000/svg"
   xmlns="http://www.w3.org/2000/svg"
   xmlns:sodipodi="http://sodipodi.sourceforge.net/DTD/sodipodi-0.dtd"
   xmlns:inkscape="http://www.inkscape.org/namespaces/inkscape"
   width="48"
   height="48"
   viewBox="0 0 48 48"
   version="1.1"
   id="svg4516"
   sodipodi:docname="openmensa.svg"
   inkscape:version="0.92.1 r">
  <metadata
     id="metadata4522">
    <rdf:RDF>
      <cc:Work
         rdf:about="">
        <dc:format>image/svg+xml</dc:format>
        <dc:type
           rdf:resource="http://purl.org/dc/dcmitype/StillImage" />
        <dc:title></dc:title>
      </cc:Work>
    </rdf:RDF>
  </metadata>
  <defs
     id="defs4520" />
  <sodipodi:namedview
     pagecolor="#ffffff"
     bordercolor="#666666"
     borderopacity="1"
     objecttolerance="10"
     gridtolerance="10"
     guidetolerance="10"
     inkscape:pageopacity="0"
     inkscape:pageshadow="2"
     inkscape:window-width="640"
     inkscape:window-height="480"
     id="namedview4518"
     showgrid="false"
     inkscape:pagecheckerboard="true"
     inkscape:showpageshadow="false"
     inkscape:zoom="16.125"
     inkscape:cx="12.008216"
     inkscape:cy="20.625165"
     inkscape:current-layer="svg4516"
     inkscape:measure-start="0,0"
     inkscape:measure-end="0,0"
     inkscape:object-paths="true"
     inkscape:snap-intersection-paths="true"
     inkscape:snap-smooth-nodes="true"
     inkscape:snap-midpoints="true"
     inkscape:snap-center="true"
     inkscape:snap-object-midpoints="true"
     inkscape:snap-text-baseline="true"
     inkscape:snap-page="true"
     inkscape:snap-bbox="true"
     inkscape:bbox-paths="true"
     inkscape:bbox-nodes="true"
     inkscape:snap-bbox-edge-midpoints="true"
     inkscape:snap-bbox-midpoints="true" />
  <path
     style="opacity:1;fill:#ffffff;fill-opacity:1;stroke:none;stroke-width:3.51883173;stroke-linecap:round;stroke-linejoin:round;stroke-miterlimit:4;stroke-dasharray:none;stroke-opacity:1"
     d="M 23.998047 1.7890625 A 12.8485 12.8485 0 0 0 11.150391 14.634766 L 11.150391 16.634766 L 11.150391 27.966797 L 11.150391 34.824219 C 11.150391 35.932219 12.042391 36.824219 13.150391 36.824219 L 34.849609 36.824219 C 35.957607 36.824219 36.849609 35.932219 36.849609 34.824219 L 36.849609 27.966797 L 36.849609 16.634766 L 36.849609 14.634766 A 12.8485 12.8485 0 0 0 23.998047 1.7890625 z M 4.9589844 14.634766 C 4.4049844 14.634766 3.9609375 15.080766 3.9609375 15.634766 L 3.9609375 31.703125 C 3.9609375 32.257125 4.4049844 32.703125 4.9589844 32.703125 L 7.9570312 32.703125 C 8.5110313 32.703125 8.9589844 32.257125 8.9589844 31.703125 L 8.9589844 15.634766 C 8.9589844 15.080766 8.5110313 14.634766 7.9570312 14.634766 L 4.9589844 14.634766 z M 40.039062 14.634766 C 39.485062 14.634766 39.039062 15.080766 39.039062 15.634766 L 39.039062 31.703125 C 39.039062 32.257125 39.485062 32.703125 40.039062 32.703125 L 43.039062 32.703125 C 43.593063 32.703125 44.039062 32.257125 44.039062 31.703125 L 44.039062 15.634766 C 44.039062 15.080766 43.593063 14.634766 43.039062 14.634766 L 40.039062 14.634766 z M 18.826172 14.939453 A 2.7187982 4.2773442 0 0 1 21.544922 19.214844 A 2.7187982 4.2773442 0 0 1 19.603516 23.310547 L 19.603516 32.060547 C 19.603516 32.614548 19.256666 33.060547 18.826172 33.060547 C 18.395678 33.060547 18.048828 32.614548 18.048828 32.060547 L 18.048828 23.3125 A 2.7187982 4.2773442 0 0 1 16.107422 19.214844 A 2.7187982 4.2773442 0 0 1 18.826172 14.939453 z M 26.455078 14.939453 L 27.544922 14.941406 L 27.544922 19.732422 C 27.544922 20.009422 27.767923 20.232422 28.044922 20.232422 L 28.132812 20.232422 C 28.409813 20.232422 28.632812 20.009422 28.632812 19.732422 L 28.632812 14.941406 L 29.71875 14.941406 L 29.71875 19.732422 C 29.71875 20.009422 29.94175 20.232422 30.21875 20.232422 L 30.306641 20.232422 C 30.583641 20.232422 30.806641 20.009422 30.806641 19.732422 L 30.806641 14.941406 L 31.892578 14.941406 L 31.892578 16.125 L 31.892578 19.808594 A 2.7187982 3.683533 0 0 1 29.953125 23.335938 L 29.953125 32.060547 C 29.953125 32.614548 29.604321 33.060547 29.173828 33.060547 C 28.743336 33.060547 28.396484 32.614548 28.396484 32.060547 L 28.396484 23.335938 A 2.7187982 3.683533 0 0 1 26.455078 19.808594 L 26.455078 16.125 L 26.455078 14.939453 z M 14.828125 39.017578 C 14.274125 39.017578 13.828125 39.463578 13.828125 40.017578 L 13.828125 45.210938 C 13.828125 45.764938 14.274125 46.210938 14.828125 46.210938 L 20.023438 46.210938 C 20.577437 46.210938 21.023438 45.764938 21.023438 45.210938 L 21.023438 40.017578 C 21.023438 39.463578 20.577437 39.017578 20.023438 39.017578 L 14.828125 39.017578 z M 27.976562 39.017578 C 27.422563 39.017578 26.976563 39.463578 26.976562 40.017578 L 26.976562 45.210938 C 26.976562 45.764938 27.422563 46.210938 27.976562 46.210938 L 33.169922 46.210938 C 33.723922 46.210938 34.169922 45.764938 34.169922 45.210938 L 34.169922 40.017578 C 34.169922 39.463578 33.723922 39.017578 33.169922 39.017578 L 27.976562 39.017578 z "
     id="rect5532" />
</svg>
