<?xml version="1.0" encoding="UTF-8" standalone="no"?>
<svg
   xmlns:dc="http://purl.org/dc/elements/1.1/"
   xmlns:cc="http://creativecommons.org/ns#"
   xmlns:rdf="http://www.w3.org/1999/02/22-rdf-syntax-ns#"
   xmlns:svg="http://www.w3.org/2000/svg"
   xmlns="http://www.w3.org/2000/svg"
   xmlns:sodipodi="http://sodipodi.sourceforge.net/DTD/sodipodi-0.dtd"
   xmlns:inkscape="http://www.inkscape.org/namespaces/inkscape"
   viewBox="0 0 48 48"
   version="1.1"
   id="svg4"
   sodipodi:docname="opencontacts.svg"
   inkscape:version="0.92.4 5da689c313, 2019-01-14"
   inkscape:export-xdpi="400"
   inkscape:export-ydpi="400">
  <metadata
     id="metadata10">
    <rdf:RDF>
      <cc:Work
         rdf:about="">
        <dc:format>image/svg+xml</dc:format>
        <dc:type
           rdf:resource="http://purl.org/dc/dcmitype/StillImage" />
        <dc:title />
      </cc:Work>
    </rdf:RDF>
  </metadata>
  <defs
     id="defs8" />
  <sodipodi:namedview
     pagecolor="#ffffff"
     bordercolor="#666666"
     borderopacity="1"
     objecttolerance="10"
     gridtolerance="10"
     guidetolerance="10"
     id="namedview6"
     showgrid="true"
     inkscape:zoom="19.666667"
     inkscape:cx="16.378193"
     inkscape:cy="17.547348"
     inkscape:window-x="0"
     inkscape:window-y="44"
     inkscape:current-layer="svg4">
    <inkscape:grid
       type="xygrid"
       id="grid814" />
  </sodipodi:namedview>
  <path
     id="path12"
     style="fill:#ffffff;fill-opacity:1;stroke-width:1.0575"
     d="M 24.163279,4.0001418 C 21.093115,5.782721 17.607811,6.7257438 14.057679,6.7344265 12.350798,6.7295617 10.651398,6.5087114 9,6.077009 v 24.382348 c 0,5.319016 6.068238,9.850284 15.168923,13.652317 9.100968,-4.550486 15.167005,-8.343722 15.167005,-13.652317 V 6.0655365 C 37.685643,6.5008536 35.986882,6.7255027 34.280165,6.73416 30.72614,6.7273915 27.236623,5.7844005 24.163087,3.9998732 Z M 24,13.474576 c 2.485636,0 4.5,2.014364 4.5,4.5 0,2.485636 -2.014364,4.5 -4.5,4.5 -2.485636,0 -4.5,-2.014364 -4.5,-4.5 0,-2.485636 2.014364,-4.5 4.5,-4.5 z m 0,10.636364 c 5.006455,0.00009 9,1.399091 9,3.068182 v 4.295454 H 15 v -4.295454 c 0,-1.669091 3.992727,-3.068182 9,-3.068182 z"
     inkscape:connector-curvature="0"
     sodipodi:nodetypes="cccscsccccssssscsccsc"
     inkscape:export-xdpi="400"
     inkscape:export-ydpi="400" />
</svg>
