<?xml version="1.0" encoding="UTF-8"?>
<svg width="48" height="48" viewBox="0 0 48 48" xmlns="http://www.w3.org/2000/svg">
    <path d="m 20.477405,1.999978 h 0.01069 c 0.08699,0.066523 0.173345,0.1333085 0.245018,0.1895992 2.987987,2.3388994 3.995983,5.0923426 3.033805,8.2756018 -3.281441,-1.3581758 -4.394163,-4.1170735 -3.337077,-8.2756018 0.01026,-0.056291 0.03153,-0.1231631 0.04688,-0.1895992 z m 7.466151,4.3298003 C 27.672357,8.6272233 26.565743,10.005036 24.621751,10.465398 24.345425,8.3774062 25.45662,6.9897756 27.943556,6.3297783 Z m -7.991967,4.2523457 0.0043,0.0043 c 1.364722,0.296399 2.779625,0.583852 4.246892,0.696761 h 0.0064 c 1.241449,0.09155 2.513444,0.06494 3.826893,-0.185345 0.133091,2.461081 1.171632,4.144346 3.121078,5.045434 1.437812,0.741924 2.762171,1.72472 3.97962,2.942169 3.077442,3.077442 4.616708,6.793063 4.616708,11.149045 v 0.01069 c 0,4.354891 -1.537084,8.06833 -4.616708,11.138136 -3.023987,3.023987 -6.662154,4.566526 -10.930864,4.616708 v -0.0064 h -0.204544 c -4.349437,0 -8.062876,-1.534903 -11.138136,-4.614527 -3.07526,-3.07526 -4.6167082,-6.790881 -4.6167082,-11.149045 0,-4.349436 1.5414482,-8.062875 4.6167082,-11.138135 1.18254,-1.182541 2.45999,-2.139264 3.826893,-2.865807 0.15349,-0.08699 0.311017,-0.163963 0.464507,-0.240762 1.780357,-0.992724 2.719625,-2.562535 2.805807,-4.717072 z m 4.035256,7.533787 c -6.935972,0 -12.567221,5.635613 -12.567221,12.567221 0,6.934881 5.634522,12.567221 12.567221,12.567221 h 0.01703 c 0.07501,-0.0023 0.148799,-0.0049 0.223744,-0.0085 l 0.519925,-0.02557 V 18.158195 l -0.513489,-0.03196 c -0.07496,0 -0.150872,0 -0.225817,-0.01069 h -0.01069 z m -0.330217,1.15745 v 2.74908 c -4.719253,0.176399 -8.503601,4.057074 -8.503601,8.818872 0,4.760708 3.785438,8.639965 8.503601,8.816691 v 2.441445 C 17.473381,41.913995 12.507583,36.91547 12.507583,30.688587 c 0,-6.229065 4.963616,-11.225408 11.149045,-11.410862 z m 0,3.887984 v 2.441445 c -2.79708,0.173126 -5.024707,2.500353 -5.023616,5.339977 0,2.838534 2.227627,5.164343 5.023616,5.337797 v 2.237445 c -4.119256,-0.182727 -7.411606,-3.511622 -7.412697,-7.676696 0,-4.166164 3.29235,-7.495605 7.412697,-7.678877 z m 0,3.58144 v 8.396692 c -2.197082,-0.176617 -3.932711,-1.95381 -3.932711,-4.1978 0,-2.243991 1.735629,-4.023257 3.932711,-4.199983 z" fill="#fff"/>
</svg>
