<svg width="48" height="48" version="1.1" viewBox="0 0 48 48" xmlns="http://www.w3.org/2000/svg">
 <path d="m24 2a22 22 0 0 0 -22 22 22 22 0 0 0 22 22 22 22 0 0 0 22 -22 22 22 0 0 0 -22 -22zm-11.865 8.6855c0.39516 0.023421 0.93391 0.14842 1.627 0.43555 3.02 1.251 7.1979 4.853 7.2285 8.3789 0.024918 0.085816 0.043284 0.2025 0.070313 0.27148 0.082576 0.14454 0.23162 0.24609 0.41016 0.24609 0.26507 0 0.48047-0.21345 0.48047-0.47852 0-0.12662-0.004402-0.25261-0.013672-0.37891 0.64748-0.05755 1.3305-0.091797 2.0547-0.091797 0.72422 0 1.4069 0.034557 2.0547 0.091797-9e-3 0.1263-0.013672 0.25261-0.013672 0.37891 0 0.26507 0.21377 0.47852 0.47852 0.47852 0.26475 0 0.48047-0.21345 0.48047-0.47852-1e-6 -3.5376 4.1993-7.1623 7.2305-8.418 1.3851-0.57394 2.1547-0.49961 2.3926-0.26172 1.4433 1.4433 1.1533 9.5593-1.4238 12.137-0.020117 0.020151-0.029132 0.045811-0.044922 0.068359-0.051665 0.14186-0.071201 0.28855-0.064453 0.42774 0.023035 0.066204 0.056455 0.12872 0.10938 0.18164 0.07354 0.07354 0.16676 0.11096 0.26172 0.12695 0.1554 2.2203 0.25913 6.1583-0.47852 7.3516-0.847 1.3707-4.3023 3.0157-6.1855 3.7969v-2.1211c0-0.15176-0.075418-0.28124-0.18555-0.36914-0.089436-0.032878-0.1985-0.038412-0.33203-0.019531l-0.29102 0.041016c-0.054235 0.051143-0.093337 0.11599-0.11914 0.1875l-0.033203 1.0898v1.8105 0.32031 0.26172c0 0.01407 0.004859 0.027265 0.005859 0.041015 3.27e-4 1.129-0.11993 2.5665-0.43359 3.002-0.39616 0.54996-1.6105 0.98089-2.6113 1.1484 0.50519-0.46682 1.0215-1.1968 1.0215-1.8184 0-0.18716-0.035427-0.34322-0.087891-0.48633-0.056782-0.10292-0.11035-0.2056-0.19726-0.30664-0.2034-0.23647-0.52581-0.4-0.89258-0.48828-0.20035-0.038421-0.41366-0.0625-0.64062-0.0625-0.22477 0-0.43405 0.022902-0.63281 0.060546-0.22959 0.054013-0.44755 0.13452-0.63477 0.25195-0.103 0.06461-0.1717 0.11324-0.24023 0.16406l-0.001953 0.001953c-0.14274 0.15128-0.23632 0.34859-0.2793 0.58789 0.00206 0.11826 0.01337 0.25727 0.03125 0.44336 0.014862 0.15463 0.056585 0.30416 0.09375 0.45508 0.18924 0.44241 0.52663 0.88098 0.86914 1.1973-1.0008-0.1669-2.2168-0.59816-2.6133-1.1484-0.31207-0.43293-0.43299-1.8503-0.43555-2.9688 0.003199-0.02398 0.005859-0.048958 0.005859-0.074218v-0.43359-0.017578-0.003907-2.8672c0-0.12376-0.047992-0.23521-0.125-0.32031-0.1123-0.054231-0.25005-0.088789-0.39453-0.068359-0.33732 0.047693-0.39676 0.16223-0.43945 0.95508v1.5762c-1.8817-0.78784-5.3395-2.447-6.1875-3.8184-0.737-1.1926-0.63164-5.131-0.47656-7.3516 0.09528-0.01599 0.18818-0.053414 0.26172-0.12695 0.18737-0.18705 0.18737-0.49068 0-0.67773-1.1559-1.1562-1.992-3.5906-2.2363-6.5117-0.21519-2.5733 0.12665-4.9388 0.8125-5.625 0.11894-0.11894 0.37046-0.19725 0.76562-0.17383zm4.4492 16.398c-0.12886 0-0.25163 0.052448-0.3418 0.14453-0.090171 0.0924-0.1396 0.21685-0.13672 0.3457 0.0096 0.45308 0.38526 0.48492 0.95312 0.5332 0.02686 0.0022 0.055237 0.005512 0.085937 0.007812 0.07418 0.47258 0.28011 0.87844 0.61328 1.2129 0.84316 0.8454 2.3005 0.9707 3.0938 0.9707 0.31079 0 0.5148-0.018891 0.52344-0.019531 0.15923-0.01503 0.30054-0.10768 0.37695-0.24805 0.07642-0.14037 0.078106-0.30985 0.003906-0.45117-1.3084-2.4959-1.5271-2.4961-5.1719-2.4961zm15.189 0c-3.6444 0-3.8635 1.88e-4 -5.1719 2.4961-0.074179 0.14133-0.072513 0.3108 0.003907 0.45117 0.07578 0.14037 0.21577 0.23302 0.375 0.24805 0.0083 9.62e-4 0.21428 0.019531 0.52539 0.019531 0.79296 0 2.2506-0.12562 3.0938-0.9707 0.33349-0.33445 0.53942-0.74095 0.61328-1.2129 0.03102-0.0026 0.058757-0.005812 0.085937-0.007812 0.56786-0.04828 0.94353-0.079813 0.95312-0.5332 0.0032-0.12886-0.046549-0.2533-0.13672-0.3457-0.09017-0.09209-0.21294-0.14453-0.3418-0.14453z" fill="#fff"/>
</svg>
