<?xml version="1.0" encoding="UTF-8"?>
<svg width="48" height="48" viewBox="0 0 48 48">
    <path d="m 7.7242628,2.000619 c 0.8700775,0.013714 1.8711637,0.2670562 3.0055742,0.7367537 3.998352,1.6559935 9.161075,5.9675683 10.529721,10.8143453 0.869533,-0.07088 1.766302,-0.125016 2.731845,-0.125016 0.963908,0 1.860269,0.05427 2.729121,0.125016 1.368645,-4.846777 6.534092,-9.1583518 10.532445,-10.8143453 1.13441,-0.4698337 2.13536,-0.7229991 3.005574,-0.7367537 0.870213,-0.013714 1.630118,0.2264735 2.162596,0.7579984 v 0.00266 c 0.746151,0.7461503 1.187386,1.951512 1.451718,3.4154865 0.264877,1.4639745 0.333514,3.1921451 0.220754,4.9815981 -0.220481,3.499921 -1.145032,7.190498 -2.808107,9.569627 0.08593,1.003265 0.251939,3.243895 0.220753,5.601235 -0.03169,2.40228 -0.212038,4.841329 -1.06659,6.223593 -0.89391,1.444909 -2.888456,2.726398 -4.883547,3.806334 -1.886144,1.020152 -3.663341,1.759493 -4.598922,2.138084 0.0039,0.628215 0.0034,1.462612 -0.09842,2.372319 -0.11434,1.02274 -0.304235,2.041394 -0.805935,2.737292 -0.656269,0.911069 -1.811243,1.470784 -2.971528,1.845289 -1.159604,0.374914 -2.324655,0.547867 -3.091369,0.547867 -0.765217,0 -1.931085,-0.173089 -3.09137,-0.547867 -1.159604,-0.374914 -2.31376,-0.935037 -2.971528,-1.845289 C 17.42671,42.912714 17.23401,41.899099 17.11839,40.883169 17.015557,39.978909 17.011663,39.150912 17.014659,38.527191 16.081392,38.144787 14.305965,37.399318 12.421183,36.372766 10.427454,35.286701 8.4337253,33.999084 7.5403604,32.552813 6.6860802,31.170549 6.5055007,28.730138 6.4737699,26.32922 6.4426655,23.975966 6.6084691,21.745277 6.6945236,20.73888 5.2414438,18.671612 4.255474,15.493085 3.9463371,11.803869 3.8157914,10.241842 3.8078383,8.4197046 4.0287963,6.7746058 4.2496862,5.1281452 4.6696767,3.6491905 5.5581389,2.761273 6.0895276,2.2293395 6.850522,1.9867964 7.7207357,2.000551 Z M 40.10874,4.0379268 c -0.664303,0.031104 -1.547046,0.3134948 -2.651496,0.8431131 -4.698336,2.2511162 -8.664005,6.7138551 -9.136562,10.2777821 -0.09967,0.751189 -0.293748,1.215848 -0.566524,1.361837 -0.415224,0.222251 -0.496935,0.170093 -1.319348,-0.808659 -0.226201,-0.269235 -0.788095,-0.353805 -2.346445,-0.353805 -2.210261,0 -2.776785,0.118398 -2.776785,0.574559 0,0.43497 -0.582457,0.838755 -0.986787,0.683642 -0.217621,-0.08354 -0.446273,-0.655861 -0.593079,-1.48985 -0.30083,-1.707743 -1.219798,-3.596611 -2.452668,-5.040158 C 13.640218,5.8238395 7.8183658,2.7923909 6.6975741,4.5777589 6.0238735,5.6523843 5.7922251,7.4975369 5.9288173,10.722366 c 0.1796263,4.235313 1.0340426,7.317149 2.5983845,9.368075 l 0.625083,0.816557 -0.4122279,0.912295 c -0.3584355,0.794904 -0.3957498,1.375455 -0.2846239,4.548535 0.1321118,3.772287 0.3548946,4.868566 1.1809848,5.804148 0.8971782,1.016066 5.5004582,3.739604 7.2245442,4.274805 0.485358,0.150619 0.50919,0.086 0.574559,-1.412224 0.06349,-1.454442 0.109151,-1.574284 0.619772,-1.646461 0.302736,-0.04282 0.63979,0.06175 0.747376,0.231376 0.107503,0.169685 0.199509,1.967854 0.199509,3.998353 0.0046,4.374219 0.199781,4.996579 1.838479,5.821852 1.330787,0.671113 1.854822,0.696852 1.279446,0.06117 -0.233555,-0.258069 -0.462344,-0.959278 -0.524035,-1.60152 -0.10512,-1.093964 -0.07737,-1.163145 0.667572,-1.630119 1.135636,-0.712377 3.064133,-0.547186 3.814505,0.324526 0.669751,0.778562 0.683915,1.577007 0.04256,2.614726 l -0.497343,0.805935 0.553178,-0.164918 c 1.201412,-0.354623 2.184386,-0.997546 2.503056,-1.63829 0.235734,-0.473783 0.373415,-1.862993 0.462752,-4.707869 l 0.125016,-4.037846 0.550591,-0.07713 c 0.740158,-0.104657 0.942527,0.290752 0.946885,1.864355 0.0019,0.729399 0.06478,1.327246 0.14095,1.327246 0.388532,0 5.00475,-2.489438 6.229042,-3.359651 1.73498,-1.23219 2.124465,-2.000539 2.422707,-4.780047 0.241998,-2.252478 0.06337,-6.53954 -0.2819,-6.753349 -0.344272,-0.212719 -0.228653,-1.177172 0.180852,-1.513 0.637201,-0.523083 1.852096,-3.420935 2.260647,-5.388789 C 42.499785,11.012819 42.383893,6.4887971 41.45907,4.6938963 41.218706,4.2271949 40.772159,4.0084839 40.107855,4.0395338 Z M 13.907002,26.099682 c 4.963895,0 5.260775,0 7.043419,3.399144 0.101049,0.192428 0.09875,0.423259 -0.0053,0.614461 -0.104071,0.191202 -0.296472,0.317308 -0.513412,0.337736 -0.01171,0 -0.289527,0.0266 -0.712786,0.0266 -1.080345,0 -3.065494,-0.170638 -4.213523,-1.321935 -0.453764,-0.455398 -0.734166,-1.008167 -0.835214,-1.651907 -0.04181,-0.0031 -0.08046,-0.0076 -0.117036,-0.01062 -0.773387,-0.06575 -1.284893,-0.109124 -1.297967,-0.726131 -0.0039,-0.175541 0.06339,-0.344953 0.186163,-0.470787 0.122797,-0.125398 0.289935,-0.196786 0.465476,-0.196786 z m 20.6863,0 c 0.17554,0 0.342638,0.07141 0.465476,0.196785 0.122796,0.125834 0.19052,0.295247 0.186163,0.470787 -0.01307,0.617457 -0.524716,0.660355 -1.297967,0.726132 -0.03702,0.0027 -0.07479,0.0071 -0.117036,0.01062 -0.100586,0.642651 -0.381042,1.196237 -0.835215,1.651908 -1.1483,1.150888 -3.133586,1.321935 -4.213523,1.321935 -0.423667,0 -0.704205,-0.02529 -0.715509,-0.0266 -0.216804,-0.02047 -0.407461,-0.14667 -0.510688,-0.337735 -0.104072,-0.191202 -0.106346,-0.421897 -0.0053,-0.614461 1.781283,-3.399145 2.079525,-3.399145 7.04342,-3.399145 z" fill="#fff"/>
</svg>
