<svg width="48" height="48" version="1.1" viewBox="0 0 48 48" xmlns="http://www.w3.org/2000/svg">
 <path d="m24 2a22 22 0 0 0 -22 22 22 22 0 0 0 22 22 22 22 0 0 0 22 -22 22 22 0 0 0 -22 -22zm-11.95 7.393c0.6389 0.01007 1.374 0.1961 2.207 0.541 2.936 1.216 6.727 4.382 7.732 7.941 0.6385-0.05205 1.297-0.0918 2.006-0.0918 0.7078 0 1.366 0.03985 2.004 0.0918 1.005-3.559 4.798-6.725 7.734-7.941 0.833-0.345 1.568-0.5309 2.207-0.541 0.639-0.01007 1.197 0.1663 1.588 0.5566v0.00195c0.5479 0.5479 0.8719 1.433 1.066 2.508 0.1945 1.075 0.2449 2.344 0.1621 3.658-0.1619 2.57-0.8408 5.28-2.062 7.027 0.0631 0.7367 0.185 2.382 0.1621 4.113-0.02327 1.764-0.1557 3.555-0.7832 4.57-0.6564 1.061-2.121 2.002-3.586 2.795-1.385 0.7491-2.69 1.292-3.377 1.57 0.0029 0.4613 0.0025 1.074-0.07227 1.742-0.08396 0.751-0.2234 1.499-0.5918 2.01-0.4819 0.669-1.33 1.08-2.182 1.355-0.8515 0.2753-1.707 0.4023-2.27 0.4023-0.5619 0-1.418-0.1271-2.27-0.4023-0.8515-0.2753-1.699-0.6866-2.182-1.355-0.3674-0.5097-0.5089-1.254-0.5938-2-0.07551-0.664-0.07837-1.272-0.07617-1.73-0.6853-0.2808-1.989-0.8282-3.373-1.582-1.464-0.7975-2.928-1.743-3.584-2.805-0.6273-1.015-0.7599-2.807-0.7832-4.57-0.02284-1.728 0.09891-3.366 0.1621-4.105-1.067-1.518-1.791-3.852-2.018-6.561-0.09586-1.147-0.1017-2.485 0.06055-3.693 0.1622-1.209 0.4706-2.295 1.123-2.947 0.3902-0.3906 0.949-0.5687 1.588-0.5586zm23.78 1.496c-0.4878 0.02284-1.136 0.2302-1.947 0.6191-3.45 1.653-6.362 4.93-6.709 7.547-0.07319 0.5516-0.2157 0.8928-0.416 1-0.3049 0.1632-0.3649 0.1249-0.9688-0.5938-0.1661-0.1977-0.5787-0.2598-1.723-0.2598-1.623 0-2.039 0.08694-2.039 0.4219 0 0.3194-0.4277 0.6159-0.7246 0.502-0.1598-0.06134-0.3277-0.4816-0.4355-1.094-0.2209-1.254-0.8957-2.641-1.801-3.701-2.672-3.13-6.947-5.356-7.77-4.045-0.4947 0.7891-0.6648 2.144-0.5645 4.512 0.1319 3.11 0.7593 5.373 1.908 6.879l0.459 0.5996-0.3027 0.6699c-0.2632 0.5837-0.2906 1.01-0.209 3.34 0.09701 2.77 0.2606 3.575 0.8672 4.262 0.6588 0.7461 4.039 2.746 5.305 3.139 0.3564 0.1106 0.3739 0.06315 0.4219-1.037 0.04662-1.068 0.08015-1.156 0.4551-1.209 0.2223-0.03144 0.4698 0.04534 0.5488 0.1699 0.07894 0.1246 0.1465 1.445 0.1465 2.936 0.0034 3.212 0.1467 3.669 1.35 4.275 0.9772 0.4928 1.362 0.5117 0.9395 0.04492-0.1715-0.1895-0.3395-0.7044-0.3848-1.176-0.07719-0.8033-0.05681-0.8541 0.4902-1.197 0.8339-0.5231 2.25-0.4018 2.801 0.2383 0.4918 0.5717 0.5022 1.158 0.03125 1.92l-0.3652 0.5918 0.4062-0.1211c0.8822-0.2604 1.604-0.7325 1.838-1.203 0.1731-0.3479 0.2742-1.368 0.3398-3.457l0.0918-2.965 0.4043-0.05664c0.5435-0.07685 0.6921 0.2135 0.6953 1.369 0.0014 0.5356 0.04757 0.9746 0.1035 0.9746 0.2853 0 3.675-1.828 4.574-2.467 1.274-0.9048 1.56-1.469 1.779-3.51 0.1777-1.654 0.04653-4.802-0.207-4.959-0.2528-0.1562-0.1679-0.8644 0.1328-1.111 0.4679-0.3841 1.36-2.512 1.66-3.957 0.5747-2.77 0.4896-6.092-0.1895-7.41-0.1765-0.3427-0.5044-0.5033-0.9922-0.4805zm-19.24 16.2c3.645 0 3.863 0 5.172 2.496 0.0742 0.1413 0.07251 0.3108-0.0039 0.4512-0.07642 0.1404-0.2177 0.233-0.377 0.248-0.0086 0-0.2126 0.01953-0.5234 0.01953-0.7933 0-2.251-0.1253-3.094-0.9707-0.3332-0.3344-0.5391-0.7403-0.6133-1.213-0.0307-0.0023-0.05908-0.0056-0.08594-0.0078-0.5679-0.04828-0.9435-0.08013-0.9531-0.5332-0.0029-0.1289 0.04655-0.2533 0.1367-0.3457 0.09017-0.09208 0.2129-0.1445 0.3418-0.1445zm15.19 0c0.1289 0 0.2516 0.05244 0.3418 0.1445 0.09017 0.0924 0.1399 0.2168 0.1367 0.3457-0.0096 0.4534-0.3853 0.4849-0.9531 0.5332-0.02718 0.002 -0.05492 0.0052-0.08594 0.0078-0.07386 0.4719-0.2798 0.8784-0.6133 1.213-0.8432 0.8451-2.301 0.9707-3.094 0.9707-0.3111 0-0.5171-0.01857-0.5254-0.01953-0.1592-0.01503-0.2992-0.1077-0.375-0.248-0.07642-0.1404-0.07809-0.3098-0.0039-0.4512 1.308-2.496 1.527-2.496 5.172-2.496z" fill="#fff"/>
</svg>
