<?xml version="1.0" encoding="UTF-8"?>
<svg enable-background="new" version="1.1" viewBox="0 0 48 48" xmlns="http://www.w3.org/2000/svg">
    <defs>
        <style>.a{fill:#3396cd;}.b{fill:#fff;}</style>
    </defs>
    <g>
        <path d="m41.887 10.624c0.93288 2.5422-4.058 8.723-8.8155 10.309-8.6055-3.0554-8.8854 2.0758-15.928 6.9505 8.3257 5.9009 17.048 1.3061 16.885-4.5014-6.5532 3.8484-10.658 4.2682-13.013 4.1517 7.9292-1.6094 16.488-6.6006 18.281-8.6999 0.0017 0.09315 0.0027 0.18644 0.0027 0.27998 0 10.029-15.112 24.91-15.112 24.91s-7.9107-7.7651-12.285-15.875c-0.61156-0.008505-4.2917 1.3627-5.6489-0.47506-1.5159-2.0524 4.1046-8.9329 8.9788-10.985 8.7221 4.0584 13.503-6.4606 16.232-7.0437-8.139-4.9447-16.185-2.9155-17.095 4.4315 4.5243-2.6356 10.075-4.1283 12.64-4.0116-7.2068 1.5096-15.462 6.9738-17.934 9.0496 0-8.3472 6.766-15.114 15.112-15.114 4.9357 0 9.3187 2.3663 12.077 6.0265 1.56e-4 -1.55e-4 4.9247-1.6419 5.6243 0.5972zm-1.7257 0.74628c-0.64822-0.90425-2.9047 0.15187-2.9047 0.15187 0.31579 0.54293 0.59904 1.1072 0.84659 1.6904 0.25085 0.5911 0.46523 1.2016 0.64022 1.8285 0 1.55e-4 2.3042-2.4345 1.4179-3.6708zm-32.233 15.45c0.7007 0.9772 3.1398-0.16432 3.1398-0.16432-0.34158-0.58679-0.64758-1.1968-0.91521-1.8272-0.27118-0.63888-0.50284-1.2987-0.69206-1.9763 0 0-2.4905 2.6315-1.5325 3.9678z" fill="#fff" stroke-width=".12708"/>
    </g>
</svg>
