<?xml version="1.0" encoding="UTF-8"?>
<svg version="1.1" viewBox="0 0 48 48" xmlns="http://www.w3.org/2000/svg">
    <path d="m24.037 2c-10.434 0-16.638 7.5166-16.701 17.194 5.3809-3.7492 12.624-8.0765 20.461-10.365-4.5246-0.36155-9.2024 1.5716-13.935 4.3287-0.45751-2.1539 4.6153-12.336 18.123-4.5684-6.3209 3.8965-8.7853 11.056-17.422 7.225-2.4195 1.853-4.8445 3.6416-6.9734 5.7531-2.4257 2.4058-6.4203 9.3904 2.5358 7.1755 3.077 5.606 5.1515 7.4453 13.911 17.257 8.7143-9.8415 16.726-17.546 16.726-27.276h-2e-3c-5.3943 3.7707-11.968 6.8528-19.87 9.1606 4.5246 0.36154 9.2005-1.0718 13.933-3.8289 0.45751 2.1539-4.6133 11.837-18.121 4.0686 6.3209-3.8965 8.7833-11.056 17.42-7.225 0.02353 0.11766 3.714-2.3226 6.2821-4.8105s6.4882-10.211-3.041-7.4386c-3.0536-4.0331-7.8782-6.6502-13.327-6.6505zm17.766 8.3168c0.8325 0.90229-1.8716 3.9224-1.8716 3.9224l-1.4957-3.7403c1.2289-0.438 2.6451-0.96486 3.3673-0.18207zm-33.458 12.59c0.30604 1.5541 0.85568 2.8649 1.3848 4.1959 0 0-2.5498 0.83646-3.0713-0.08515-0.69592-1.2297 1.6866-4.1108 1.6866-4.1108z" fill="#fff"/>
</svg>
