<?xml version="1.0" encoding="utf-8"?>
<!-- Generator: Adobe Illustrator 21.1.0, SVG Export Plug-In . SVG Version: 6.00 Build 0)  -->
<svg version="1.0" id="Layer_1" xmlns="http://www.w3.org/2000/svg" xmlns:xlink="http://www.w3.org/1999/xlink" x="0px" y="0px"
	 viewBox="0 0 48 48" style="enable-background:new 0 0 48 48;" xml:space="preserve">
<style type="text/css">
	.st0{fill:#FFFFFF;}
</style>
<path class="st0" d="M41,5H7C5.9,5,5,5.9,5,7v34c0,1.1,0.9,2,2,2h34c1.1,0,2-0.9,2-2V7C43,5.9,42.1,5,41,5z M35.8,38.5
	c-7.9,0-15.8,0-23.7,0c-1.2,0-2.1-0.3-2.5-1.6c-0.4-1.3,0.7-2.5,2.3-2.5c4.1,0,8.1,0,12.2,0c3.9,0,7.8,0,11.7,0c1.8,0,2.7,0.7,2.8,2
	C38.5,37.7,37.5,38.5,35.8,38.5z M36,30.2c-2.5,0-4.9,0-7.4,0c-2.4,0-4.8,0-7.2,0c-1.5,0-2.5-0.8-2.5-2c0-1.2,0.9-2.1,2.4-2.1
	c4.9,0,9.8,0,14.8,0c1.5,0,2.5,0.8,2.4,2.1C38.5,29.4,37.5,30.2,36,30.2z M35.9,21.9c-2.5,0-4.9,0-7.4,0c-2.4,0-4.7,0-7.1,0
	c-1.6,0-2.6-0.8-2.6-2.1c0-1.2,1-2,2.5-2c4.9,0,9.8,0,14.6,0c1.5,0,2.5,0.8,2.5,2C38.5,21.1,37.5,21.9,35.9,21.9z M36.2,13.6
	c-4.1,0-8.1,0-12.2,0c-3.8,0-7.6,0-11.4,0c-0.3,0-0.6,0-0.9,0c-1.3-0.1-2.2-0.9-2.2-2.1c0-1.1,0.9-1.9,2.1-2c1.3,0,2.7,0,4,0
	c6.5,0,13,0,19.6,0c0.3,0,0.6,0,0.9,0c1.4,0,2.3,0.8,2.4,2C38.5,12.7,37.6,13.6,36.2,13.6z"/>
</svg>
