<svg xmlns="http://www.w3.org/2000/svg" viewBox="0 0 48 48"><defs><style>.cls-1{fill:#2b2b2b;}.cls-2{fill:#fff;}</style></defs><title>orgzly</title><g id="Layer_2" data-name="Layer 2"><rect class="cls-1" x="-402.19" y="-445.59" width="1581.09" height="513.47"/></g><g id="Layer_1" data-name="Layer 1"><path class="cls-2" d="M41,5H7A2,2,0,0,0,5,7V41a2,2,0,0,0,2,2H41a2,2,0,0,0,2-2V7A2,2,0,0,0,41,5ZM36.47,37.53H11.53a2,2,0,0,1,0-4.07H36.47a2,2,0,0,1,0,4.07ZM23.91,25.8H36.18a2,2,0,1,1,0,4.06H23.91a2,2,0,1,1,0-4.06Zm-2-5.63a2,2,0,0,1,2-2H36.18a2,2,0,0,1,0,4.06H23.91A2,2,0,0,1,21.88,20.17Zm14.59-5.63H11.53a2,2,0,0,1,0-4.07H36.47a2,2,0,0,1,0,4.07Z"/></g></svg>