<?xml version="1.0" encoding="UTF-8" standalone="no"?>
<svg
   xmlns:dc="http://purl.org/dc/elements/1.1/"
   xmlns:cc="http://creativecommons.org/ns#"
   xmlns:rdf="http://www.w3.org/1999/02/22-rdf-syntax-ns#"
   xmlns:svg="http://www.w3.org/2000/svg"
   xmlns="http://www.w3.org/2000/svg"
   xmlns:sodipodi="http://sodipodi.sourceforge.net/DTD/sodipodi-0.dtd"
   xmlns:inkscape="http://www.inkscape.org/namespaces/inkscape"
   version="1.1"
   viewBox="0 0 48 48"
   id="svg2"
   inkscape:version="0.91 r13725"
   sodipodi:docname="osmandtelegram.svg">
  <metadata
     id="metadata10">
    <rdf:RDF>
      <cc:Work
         rdf:about="">
        <dc:format>image/svg+xml</dc:format>
        <dc:type
           rdf:resource="http://purl.org/dc/dcmitype/StillImage" />
      </cc:Work>
    </rdf:RDF>
  </metadata>
  <defs
     id="defs8" />
  <sodipodi:namedview
     pagecolor="#ffffff"
     bordercolor="#666666"
     borderopacity="1"
     objecttolerance="10"
     gridtolerance="10"
     guidetolerance="10"
     inkscape:pageopacity="0"
     inkscape:pageshadow="2"
     inkscape:window-width="1366"
     inkscape:window-height="715"
     id="namedview6"
     showgrid="false"
     inkscape:snap-bbox="true"
     inkscape:bbox-paths="true"
     inkscape:bbox-nodes="true"
     inkscape:snap-bbox-edge-midpoints="true"
     inkscape:object-paths="true"
     inkscape:object-nodes="true"
     inkscape:snap-midpoints="true"
     inkscape:snap-object-midpoints="true"
     inkscape:snap-bbox-midpoints="true"
     inkscape:snap-intersection-paths="true"
     inkscape:zoom="6.9532165"
     inkscape:cx="13.098466"
     inkscape:cy="26.23936"
     inkscape:window-x="0"
     inkscape:window-y="27"
     inkscape:window-maximized="1"
     inkscape:current-layer="svg2" />
  <path
     style="paint-order:markers fill stroke;fill:#ffffff"
     d="M 24 3.2089844 C 14.4038 3.2089844 6.40625 11.204581 6.40625 20.800781 C 6.40625 28.797581 11.199753 35.982062 20.001953 37.914062 L 24 44.791016 L 27.998047 37.914062 C 36.791347 35.982062 41.59375 28.797381 41.59375 20.800781 C 41.59375 11.204581 33.5962 3.2089844 24 3.2089844 z M 24 9.6054688 A 11.196 11.196 0 1 1 24 31.996094 A 11.196 11.196 0 0 1 24 9.6054688 z M 30.660156 13.259766 C 30.383513 13.240906 30.049784 13.309614 29.691406 13.466797 C 29.691406 13.466797 19.920382 17.868467 17.474609 18.96875 C 16.198281 19.540898 16.197716 20.910648 17.568359 21.419922 L 21.857422 23.029297 L 23.466797 27.318359 C 23.976071 28.688998 25.347774 28.688434 25.919922 27.412109 L 31.421875 15.195312 C 31.905999 14.113891 31.502653 13.316352 30.660156 13.259766 z "
     id="path4" />
</svg>
