<?xml version="1.0" encoding="UTF-8"?>
<svg viewBox="0 0 48 48" xmlns="http://www.w3.org/2000/svg">
  <path
     style="fill:#ffffff"
     d="M 24,2 C 4.3987301,2 -5.4140697,25.697048 8.4444411,39.555559 22.302952,53.41407 46,43.60127 46,24 46,11.849736 36.150264,2 24,2 Z M 32.171875,3.9121094 33.25,4.4023438 20.860402,13.69465 l 7.493114,3.526053 7.029296,-2.939453 c 0.900672,-0.378881 1.806615,0.527062 1.427735,1.427734 l -1.861328,4.445313 4.242187,1.886719 4.529297,-6.97461 0.646485,1.582032 -17.761719,28.90625 -2.083985,0.07227 13.949219,-22.507812 -4.027344,-1.757813 -7.662109,18.289063 c -0.365009,0.915144 -1.660382,0.915144 -2.025391,0 l -3.521484,-9.16211 c -0.106939,-0.28857 -0.334477,-0.516108 -0.623047,-0.623047 l -9.146484,-3.548828 c -0.423164,-0.15631 -0.703366,-0.560613 -0.701172,-1.011718 0.0033,-0.441847 0.268879,-0.839468 0.675781,-1.011719 L 26.619141,17.945312 19.434355,14.700509 2.5775953,26.62351 2.505727,24.718684 Z" />
</svg>
