<?xml version="1.0" encoding="UTF-8" standalone="no"?>
<svg
   xmlns:dc="http://purl.org/dc/elements/1.1/"
   xmlns:cc="http://creativecommons.org/ns#"
   xmlns:rdf="http://www.w3.org/1999/02/22-rdf-syntax-ns#"
   xmlns:svg="http://www.w3.org/2000/svg"
   xmlns="http://www.w3.org/2000/svg"
   xmlns:sodipodi="http://sodipodi.sourceforge.net/DTD/sodipodi-0.dtd"
   xmlns:inkscape="http://www.inkscape.org/namespaces/inkscape"
   width="48"
   height="48"
   viewBox="0 0 48 48"
   version="1.1"
   id="svg4"
   sodipodi:docname="osmonitor.svg"
   inkscape:version="0.92.4 (5da689c313, 2019-01-14)">
  <metadata
     id="metadata10">
    <rdf:RDF>
      <cc:Work
         rdf:about="">
        <dc:format>image/svg+xml</dc:format>
        <dc:type
           rdf:resource="http://purl.org/dc/dcmitype/StillImage" />
        <dc:title></dc:title>
      </cc:Work>
    </rdf:RDF>
  </metadata>
  <defs
     id="defs8" />
  <sodipodi:namedview
     pagecolor="#ffffff"
     bordercolor="#666666"
     borderopacity="1"
     objecttolerance="10"
     gridtolerance="10"
     guidetolerance="10"
     inkscape:pageopacity="0"
     inkscape:pageshadow="2"
     inkscape:window-width="1920"
     inkscape:window-height="1027"
     id="namedview6"
     showgrid="false"
     inkscape:pagecheckerboard="true"
     inkscape:zoom="16"
     inkscape:cx="15.873793"
     inkscape:cy="22.391617"
     inkscape:window-x="-8"
     inkscape:window-y="-8"
     inkscape:window-maximized="1"
     inkscape:current-layer="svg4" />
  <path
     d="M 7 5 C 5.892 5 5 5.892 5 7 L 5 41 C 5 42.108 5.892 43 7 43 L 41 43 C 42.108 43 43 42.108 43 41 L 43 7 C 43 5.892 42.108 5 41 5 L 7 5 z M 8.59375 8.4921875 L 39.40625 8.4921875 C 39.913301 8.4921875 40.322266 8.8991993 40.322266 9.40625 L 40.322266 35.796875 C 40.322266 36.303926 39.913301 36.710938 39.40625 36.710938 L 8.59375 36.710938 C 8.0866993 36.710938 7.6777344 36.303926 7.6777344 35.796875 L 7.6777344 9.40625 C 7.6777344 8.8991993 8.0866993 8.4921875 8.59375 8.4921875 z "
     id="rect2"
     style="fill:#ffffff" />
  <path
     style="opacity:1;fill:#ffffff;fill-opacity:1;stroke:#b98e00;stroke-width:0;stroke-linecap:round;stroke-linejoin:miter;stroke-miterlimit:4;stroke-dasharray:none;stroke-dashoffset:0;stroke-opacity:1;paint-order:normal"
     d="m 10.042969,10.525391 c -0.5070511,0 -0.9160159,0.408964 -0.9160159,0.916015 v 10.525391 h 5.3671879 l 2.617187,-9.771485 3.867188,14.427735 2.949218,-11.003906 2.189454,8.175781 1.070312,-1.855469 H 38.873047 V 11.441406 c 0,-0.507051 -0.408965,-0.916015 -0.916016,-0.916015 z m 7.070312,6.693359 -1.621093,6.046875 H 9.1269531 v 8.158203 c 0,0.507051 0.4089648,0.916016 0.9160159,0.916016 h 27.914062 c 0.507051,0 0.916016,-0.408965 0.916016,-0.916016 V 23.240234 H 27.939453 l -2.265625,3.921875 -1.746094,-6.519531 -2.949218,11.003906 z"
     id="rect828"
     inkscape:connector-curvature="0" />
  <circle
     style="opacity:1;fill:#ffffff;fill-opacity:1;stroke:#b98e00;stroke-width:0;stroke-linecap:round;stroke-linejoin:miter;stroke-miterlimit:4;stroke-dasharray:none;stroke-dashoffset:0;stroke-opacity:1;paint-order:normal"
     id="path830"
     cx="37.266926"
     cy="34.78669"
     r="0.62920517" />
  <circle
     r="0.62920517"
     cy="34.78669"
     cx="35.266926"
     id="circle838"
     style="opacity:1;fill:#ffffff;fill-opacity:1;stroke:#b98e00;stroke-width:0;stroke-linecap:round;stroke-linejoin:miter;stroke-miterlimit:4;stroke-dasharray:none;stroke-dashoffset:0;stroke-opacity:1;paint-order:normal" />
  <circle
     style="opacity:1;fill:#ffffff;fill-opacity:1;stroke:#b98e00;stroke-width:0;stroke-linecap:round;stroke-linejoin:miter;stroke-miterlimit:4;stroke-dasharray:none;stroke-dashoffset:0;stroke-opacity:1;paint-order:normal"
     id="circle840"
     cx="33.266926"
     cy="34.78669"
     r="0.62920517" />
</svg>
