<?xml version="1.0" encoding="UTF-8"?>
<svg version="1.1" viewBox="0 0 48 48" xmlns="http://www.w3.org/2000/svg">
    <path d="m38.801 5-8.1582 0.039062c-4.6664 0.047346-8.3379 3.5666-8.3379 8.3398v19.353l-0.021485-0.16406a2.3826 2.3826 0 0 1-2.3613 2.0918 2.3826 2.3826 0 0 1-2.3828-2.3809 2.3826 2.3826 0 0 1 2.3828-2.3828 2.3826 2.3826 0 0 1 2.2051 1.4844l-1.2832-9.7676a10.722 10.722 0 0 0-0.92188-0.05664 10.722 10.722 0 0 0-10.723 10.723 10.722 10.722 0 0 0 10.723 10.721 10.722 10.722 0 0 0 10.721-10.721c0.01899-5.1953-0.03644-10.394 0.03125-15.588 0.02417-1.78 1.5429-3.254 3.3125-3.2812 1.603-0.06731 3.2099-0.01559 4.8145-0.03125v-8.3789z" fill="#fff"/>
    <path d="m12.994 5v8.3785h8.5948c0-4.3979 2.5858-8.3785 7.6245-8.339z" fill="#fff"/>
    <circle cx="35.79" cy="18.703" r="2.3826" fill="#fff"/>
</svg>
