<svg xmlns="http://www.w3.org/2000/svg" viewBox="0 0 48 48"><defs><style>.cls-1{fill:#2b2b2b;}.cls-2{fill:#fff;}</style></defs><title>oui-sncf</title><g id="Layer_2" data-name="Layer 2"><rect class="cls-1" x="-166.58" y="-132.47" width="674.7" height="426.15"/><rect class="cls-1" x="-111.23" y="-132.47" width="674.7" height="426.15"/><rect class="cls-1" x="-166.58" y="-79.07" width="674.7" height="426.15"/><rect class="cls-1" x="-111.23" y="-79.07" width="674.7" height="426.15"/><rect class="cls-1" x="-166.58" y="-187.54" width="674.7" height="426.15"/><rect class="cls-1" x="-111.23" y="-187.54" width="674.7" height="426.15"/><rect class="cls-1" x="-165.74" y="-134.62" width="674.7" height="426.15"/></g><g id="Layer_1" data-name="Layer 1"><path class="cls-2" d="M24,2A22,22,0,1,0,46,24,22,22,0,0,0,24,2ZM36.73,33.34H30a9.94,9.94,0,1,0-12,0H11.27a15,15,0,1,1,25.46,0Z"/></g></svg>