<svg xmlns="http://www.w3.org/2000/svg" viewBox="0 0 48 48"><defs><style>.cls-1{fill:#fff;}</style></defs><g id="Layer_1" data-name="Layer 1"><path class="cls-1" d="M44.08,20.34V6.06A1.56,1.56,0,0,0,42.52,4.5H15.76A1.56,1.56,0,0,0,14.2,6.06v4.83h9.13a3,3,0,0,1,3,3v16.9l3,1.72,14.76-8.7V20.34Z"/><path class="cls-1" d="M29.32,34.08l-3-1.72v1.11a3,3,0,0,1-3,3H12.22v5.47a1.56,1.56,0,0,0,1.31,1.54h0a1.14,1.14,0,0,0,.26,0h30.4a1.52,1.52,0,0,0,.94-.32l-15.81-9.1Z"/><path class="cls-1" d="M45.76,41.94V24.4L30.67,33.29,45.76,42Z"/><path class="cls-1" d="M13.5,19.39a2.43,2.43,0,0,0-2.08,1,5.09,5.09,0,0,0-.77,3v.68a5.09,5.09,0,0,0,.76,3,2.44,2.44,0,0,0,2.11,1.07,2.42,2.42,0,0,0,2.1-1,5.27,5.27,0,0,0,.73-3v-.62a5.2,5.2,0,0,0-.74-3A2.44,2.44,0,0,0,13.5,19.39Z"/><path class="cls-1" d="M24.76,33.06V14.3a1.88,1.88,0,0,0-1.88-1.87H4.12A1.88,1.88,0,0,0,2.24,14.3V33.06a1.88,1.88,0,0,0,1.88,1.88H22.88A1.88,1.88,0,0,0,24.76,33.06Zm-6.35-9a7.28,7.28,0,0,1-.6,3.05,4.66,4.66,0,0,1-1.72,2,4.73,4.73,0,0,1-2.57.71A4.75,4.75,0,0,1,11,29.13a4.61,4.61,0,0,1-1.74-2,7.27,7.27,0,0,1-.62-3v-.66a7.17,7.17,0,0,1,.62-3.06,4.53,4.53,0,0,1,1.73-2,4.69,4.69,0,0,1,2.56-.71,4.68,4.68,0,0,1,2.56.7,4.53,4.53,0,0,1,1.73,2,7.15,7.15,0,0,1,.62,3Z"/></g></svg>