<svg width="48" height="48" version="1.1" viewBox="0 0 48 48" xmlns="http://www.w3.org/2000/svg">
 <g>
  <path d="m4.0605 4.9668c-1.1411 0-2.0605 0.91947-2.0605 2.0605v33.939c0 1.1411 0.91947 2.0605 2.0605 2.0605h17.91c1.1411 0 2.0586-0.91947 2.0586-2.0605v-33.939c0-1.1411-0.91752-2.0605-2.0586-2.0605zm21.91 2.9746v3.0625h16.982l-16.982 12.301v16.725h17.959c1.163 0 2.0996-0.9366 2.0996-2.0996v-27.891c0-1.163-0.9366-2.0977-2.0996-2.0977h-5.9023zm-12.805 7.5996c1.8662 0 3.3762 0.76227 4.5273 2.291 1.1529 1.5287 1.7285 3.5438 1.7285 6.0449 0.0018 2.5704-0.59612 4.6423-1.791 6.2148-1.1949 1.5725-2.755 2.3613-4.6777 2.3613-1.8735 0-3.3978-0.76384-4.5781-2.2871-1.1785-1.5251-1.7676-3.5089-1.7676-5.957 0-2.585 0.59833-4.6752 1.7969-6.2715 1.1985-1.5962 2.786-2.3965 4.7617-2.3965zm-0.08203 3.1738c-1.0325 0-1.8535 0.48443-2.4609 1.4531-0.60748 0.96869-0.91406 2.2514-0.91406 3.8477 0 1.62 0.30658 2.9005 0.91406 3.8418 0.60748 0.94315 1.4016 1.4141 2.3867 1.4141 1.0161 0 1.8252-0.45922 2.4199-1.375 0.59471-0.91579 0.89258-2.189 0.89258-3.8145 0-1.6948-0.28889-3.0119-0.86719-3.9551-0.5783-0.94133-1.3677-1.4121-2.3711-1.4121z" fill="#fff"/>
 </g>
</svg>
