<svg width="48" height="48" version="1.1" viewBox="0 0 48 48" xmlns="http://www.w3.org/2000/svg">
 <g>
  <path d="m8 4c0 5.6063-2.0754 29.564 16 40 18.012-10.4 16-34.399 16-40-3.604 2.5708-11.652 2.5234-16 0-4.5154 2.5445-11.688 2.3644-16 0zm1.6016 6.5332s3.5638 3.9609 7.7461 4.8359l2.0957 11.156c0.017154-0.4813 0.055805-0.9617 0.12109-1.4375-0.71339-2.6016-0.62114-5.0888 0.13477-7.4805 0.66504 0.59938 1.2451 0.98654 2.0781 2.0059a4.2537 2.9851 0 0 1 2.1797 -0.4375 4.2537 2.9851 0 0 1 2.2559 0.44336c0.83569-1.0239 1.4157-1.4112 2.082-2.0117 0.75931 2.4025 0.84899 4.9013 0.125 7.5156 0.06548 0.49204 0.10108 0.9891 0.11523 1.4863l2.1113-11.24c4.1823-0.87504 7.7461-4.8359 7.7461-4.8359-2.9774 19.207-10.791 21.045-10.791 21.045 1.7101 0.010869 1.7633 2.2877 1.1465 2.5449 0 0-1.3284-0.27961-2.2051 0.22656l-0.84766-0.84766c-0.089535 0.044136-0.17347 0.097892-0.26758 0.13477 0.54258 0.37936 1.1481 0.96876 2.0918 2.7051-0.49885 0.16652-1.1105 0.59846-1.7637 1.125-0.054073-1.6048-0.47936-2.6509-0.93164-3.6582-0.26147 0.053552-0.53449 0.08789-0.82617 0.08789-0.29776 0-0.57736-0.034783-0.84375-0.089843-0.45267 1.0081-0.87948 2.0541-0.93359 3.6602-0.65314-0.52654-1.2648-0.95848-1.7637-1.125 0.94499-1.7387 1.5487-2.3278 2.0918-2.707-0.08191-0.032123-0.15398-0.079603-0.23242-0.11719l-0.83203 0.83203c-0.87672-0.50618-2.207-0.22656-2.207-0.22656-0.61426-0.25618-0.56088-2.5139 1.1289-2.543-0.007468-0.014065-0.014107-0.028808-0.021484-0.042969l0.007812 0.041016s-7.8137-1.8376-10.791-21.045zm18 21.045l0.019532-0.10156c-0.021656 0.042833-0.041994 0.086928-0.064453 0.12891l0.033203-0.027344c0.004111 0 0.007627-2.6e-5 0.011718 0zm-3.6562-20.186l1.1152 2.1641 2.416 0.30664-1.7129 1.7305 0.45312 2.3926-2.1738-1.0957-2.1348 1.1719 0.36914-2.4062-1.7734-1.668 2.4023-0.39453 1.0391-2.2012zm-1.9629 10.527a0.86431 0.86431 0 0 0 -0.85938 0.86914 0.86431 0.86431 0 0 0 0.86719 0.86133 0.86431 0.86431 0 0 0 0.86328 -0.86524v-0.007812a0.86431 0.86431 0 0 0 -0.87109 -0.85742zm4 0a0.86431 0.86431 0 0 0 -0.85938 0.86914 0.86431 0.86431 0 0 0 0.86719 0.86133 0.86431 0.86431 0 0 0 0.86328 -0.86524v-0.007812a0.86431 0.86431 0 0 0 -0.87109 -0.85742z" fill="#fff"/>
 </g>
</svg>
