<?xml version="1.0" encoding="UTF-8" standalone="no"?>
<!-- Created with Inkscape (http://www.inkscape.org/) -->

<svg
   xmlns:dc="http://purl.org/dc/elements/1.1/"
   xmlns:cc="http://creativecommons.org/ns#"
   xmlns:rdf="http://www.w3.org/1999/02/22-rdf-syntax-ns#"
   xmlns:svg="http://www.w3.org/2000/svg"
   xmlns="http://www.w3.org/2000/svg"
   xmlns:sodipodi="http://sodipodi.sourceforge.net/DTD/sodipodi-0.dtd"
   xmlns:inkscape="http://www.inkscape.org/namespaces/inkscape"
   width="171"
   height="171"
   viewBox="0 0 45.24375 45.24375"
   version="1.1"
   id="svg89"
   inkscape:version="0.92.3 (2405546, 2018-03-11)"
   sodipodi:docname="owncloud_sms.svg">
  <defs
     id="defs83" />
  <sodipodi:namedview
     id="base"
     pagecolor="#ffffff"
     bordercolor="#666666"
     borderopacity="1.0"
     inkscape:pageopacity="0.0"
     inkscape:pageshadow="2"
     inkscape:zoom="3.959798"
     inkscape:cx="-14.786541"
     inkscape:cy="72.538473"
     inkscape:document-units="mm"
     inkscape:current-layer="g102"
     showgrid="false"
     inkscape:window-width="1920"
     inkscape:window-height="1003"
     inkscape:window-x="-9"
     inkscape:window-y="-9"
     inkscape:window-maximized="1"
     units="px" />
  <metadata
     id="metadata86">
    <rdf:RDF>
      <cc:Work
         rdf:about="">
        <dc:format>image/svg+xml</dc:format>
        <dc:type
           rdf:resource="http://purl.org/dc/dcmitype/StillImage" />
        <dc:title />
      </cc:Work>
    </rdf:RDF>
  </metadata>
  <g
     inkscape:label="Layer 1"
     inkscape:groupmode="layer"
     id="layer1">
    <g
       id="g102">
      <path
         style="fill:#ffffff;fill-opacity:1;stroke-width:0.35277775"
         d="m 19.132989,36.73252 -9.5661499,-7.9375 -3.08568,-0.005 c -3.502476,-0.006 -4.477236,-0.36595 -5.63272601,-2.08058 -0.79305,-1.17681 -0.80433,-1.34256 -0.80379,-11.812906 6.2e-4,-11.9376996 0.1065,-12.5254796 2.46890001,-13.7056296 1.12929,-0.56415002 2.846756,-0.61686002 20.1138259,-0.61736002 17.63133,-5.3e-4 18.96036,0.0422 20.10833,0.64673002 2.3684,1.24714 2.46278,1.77115 2.4634,13.6762396 7e-4,10.470356 -0.0107,10.636106 -0.80379,11.812916 -1.35586,2.01195 -1.6981,2.07487 -11.31605,2.08058 -6.87407,0.004 -8.73022,0.10049 -8.5896,0.44617 2.5259,6.20922 5.54054,14.23698 5.54054,14.75408 0,0.43113 -0.24354,0.67995 -0.66553,0.67995 -0.36605,0 -4.9703,-3.57188 -10.23168,-7.9375 z m 0.1666,-12.67923 c 0.67814,-0.92867 0.62926,-1.47907 -0.2055,-2.313828 -0.65111,-0.651098 -1.17592,-0.705548 -6.80067,-0.705548 -4.9455999,0 -6.2429799,0.10357 -6.8791599,0.549171 -1.08111,0.757225 -1.07535,2.527315 0.01,2.978925 0.43655,0.18171 3.62465,0.29566 7.0846599,0.25322 5.77045,-0.0708 6.33229,-0.13381 6.79097,-0.76194 z m 21.11755,-8.036766 c 0.69352,-0.99013 0.69233,-1.49183 -0.005,-2.18936 -0.48881,-0.4888 -2.58751,-0.55436 -17.74473,-0.55436 -12.8999099,0 -17.2960199,0.10566 -17.6136899,0.42333 -0.63454,0.63453 -0.51514,2.31036 0.19403,2.72341 0.39543,0.23032 6.7288699,0.36344 17.6188799,0.37031 l 17.00152,0.0107 z m -0.005,-7.8841996 c 0.69752,-0.69752 0.69871,-1.19922 0.005,-2.18936 l -0.54917,-0.78405 h -16.93652 c -11.00014,0 -17.1756899,0.128 -17.6188799,0.36519 -0.77337,0.41389 -0.92983,2.06846 -0.25903,2.73925 0.31767,0.31768 4.71378,0.42334 17.6136899,0.42334 15.15722,0 17.25592,-0.0656 17.74472,-0.55437 z"
         id="path104"
         inkscape:connector-curvature="0" />
    </g>
  </g>
</svg>
