<?xml version="1.0" encoding="UTF-8" standalone="no"?>
<!-- Created with Inkscape (http://www.inkscape.org/) -->

<svg
   xmlns:dc="http://purl.org/dc/elements/1.1/"
   xmlns:cc="http://creativecommons.org/ns#"
   xmlns:rdf="http://www.w3.org/1999/02/22-rdf-syntax-ns#"
   xmlns:svg="http://www.w3.org/2000/svg"
   xmlns="http://www.w3.org/2000/svg"
   xmlns:sodipodi="http://sodipodi.sourceforge.net/DTD/sodipodi-0.dtd"
   xmlns:inkscape="http://www.inkscape.org/namespaces/inkscape"
   width="192"
   height="192"
   viewBox="0 0 50.8 50.8"
   version="1.1"
   id="svg89"
   inkscape:version="0.92.2 2405546, 2018-03-11"
   sodipodi:docname="owncloud_sms.svg">
  <defs
     id="defs83" />
  <sodipodi:namedview
     id="base"
     pagecolor="#ffffff"
     bordercolor="#666666"
     borderopacity="1.0"
     inkscape:pageopacity="0.0"
     inkscape:pageshadow="2"
     inkscape:zoom="2.8"
     inkscape:cx="104.8348"
     inkscape:cy="115.82437"
     inkscape:document-units="mm"
     inkscape:current-layer="g102"
     showgrid="false"
     inkscape:window-width="1840"
     inkscape:window-height="970"
     inkscape:window-x="40"
     inkscape:window-y="40"
     inkscape:window-maximized="1"
     units="px"
     inkscape:pagecheckerboard="true"
     inkscape:snap-bbox="true"
     inkscape:bbox-paths="true"
     inkscape:bbox-nodes="true"
     inkscape:snap-bbox-edge-midpoints="true"
     inkscape:snap-bbox-midpoints="true"
     inkscape:object-paths="true"
     inkscape:snap-intersection-paths="true"
     inkscape:snap-midpoints="true"
     inkscape:snap-smooth-nodes="true" />
  <metadata
     id="metadata86">
    <rdf:RDF>
      <cc:Work
         rdf:about="">
        <dc:format>image/svg+xml</dc:format>
        <dc:type
           rdf:resource="http://purl.org/dc/dcmitype/StillImage" />
        <dc:title></dc:title>
      </cc:Work>
    </rdf:RDF>
  </metadata>
  <g
     inkscape:label="Layer 1"
     inkscape:groupmode="layer"
     id="layer1">
    <g
       id="g102">
      <path
         style="fill:#ffffff;stroke-width:3.36383915"
         d="M 31.748047 35.4375 C 27.56033 35.4375 24.189453 38.808377 24.189453 42.996094 L 24.189453 126.14648 C 24.189453 130.3342 27.56033 133.70508 31.748047 133.70508 L 160.25195 133.70508 C 164.43967 133.70508 167.81055 130.3342 167.81055 126.14648 L 167.81055 42.996094 C 167.81055 38.808377 164.43967 35.4375 160.25195 35.4375 L 31.748047 35.4375 z M 43.085938 51.570312 L 148.91406 51.570312 C 153.10178 51.570312 156.47266 54.436535 156.47266 57.996094 C 156.47266 61.555653 153.10178 64.421875 148.91406 64.421875 L 43.085938 64.421875 C 38.898218 64.421875 35.527344 61.555653 35.527344 57.996094 C 35.527344 54.436535 38.898218 51.570312 43.085938 51.570312 z M 43.085938 78.146484 L 148.91406 78.146484 C 153.10178 78.146484 156.47266 81.012706 156.47266 84.572266 C 156.47266 88.131825 153.10178 90.996094 148.91406 90.996094 L 43.085938 90.996094 C 38.898218 90.996094 35.527344 88.131825 35.527344 84.572266 C 35.527344 81.012706 38.898218 78.146484 43.085938 78.146484 z M 43.085938 104.7207 L 80.882812 104.7207 C 85.070532 104.7207 88.441406 107.58693 88.441406 111.14648 C 88.441406 114.70604 85.070532 117.57227 80.882812 117.57227 L 43.085938 117.57227 C 38.898218 117.57227 35.527344 114.70604 35.527344 111.14648 C 35.527344 107.58693 38.898218 104.7207 43.085938 104.7207 z "
         transform="scale(0.26458333)"
         id="rect894" />
      <path
         style="fill:#ffffff;fill-opacity:1;stroke:none;stroke-width:0.22801457px;stroke-linecap:butt;stroke-linejoin:miter;stroke-opacity:1"
         d="m 14.267793,35.376189 15.021255,9.062268 c 2.590095,1.456944 3.324565,1.607878 2.374638,-0.242444 -1.104378,-2.15117 -4.573124,-8.819823 -4.573124,-8.819823 z"
         id="path909"
         inkscape:connector-curvature="0"
         sodipodi:nodetypes="ccsc" />
    </g>
  </g>
</svg>
