<?xml version="1.0" encoding="utf-8"?>
<!-- Generator: Adobe Illustrator 21.1.0, SVG Export Plug-In . SVG Version: 6.00 Build 0)  -->
<svg version="1.0" id="Layer_1" xmlns="http://www.w3.org/2000/svg" xmlns:xlink="http://www.w3.org/1999/xlink" x="0px" y="0px"
	 viewBox="0 0 48 48" style="enable-background:new 0 0 48 48;" xml:space="preserve">
<style type="text/css">
	.st0{fill:#FFFFFF;}
</style>
<path class="st0" d="M23.9,43c-4.2,0-8.4,0-12.7,0C7.5,43,5,40.5,5,36.7c0-8.5,0-17,0-25.5C5,7.6,7.6,5,11.2,5c8.6,0,17.1,0,25.7,0
	c3.6,0,6.2,2.6,6.2,6.2c0,8.6,0,17.1,0,25.7c0,3.6-2.6,6.1-6.1,6.1C32.5,43,28.2,43,23.9,43z M34.7,10.2c-0.1-0.1-0.2-0.2-0.2-0.3
	c-0.1,0-0.3,0-0.4,0c-6.6,0-13.2,0-19.8,0c-2.9,0-4.4,1.6-4.5,4.5c0,6.4,0,12.7,0,19.1c0,3.2,1.6,4.7,4.7,4.7c6.3,0,12.6,0,18.9,0
	c3.2,0,4.7-1.6,4.7-4.7c0-5,0-10,0-15c0-0.3,0.1-0.7-0.2-1c-0.5,0.5-0.8,0.6-1.4,0c-1.3-1.4-2.7-2.8-4.1-4.2c-0.4-0.4-0.4-0.7,0-1.1
	C33.2,11.6,34,10.9,34.7,10.2z"/>
<path class="st0" d="M17.9,32.1c1.2-3.1,2.3-5.8,3.4-8.6c0.1-0.3,0.4-0.6,0.6-0.8c2.4-2.4,4.9-4.8,7.2-7.3c0.5-0.5,0.8-0.5,1.3,0
	c1.3,1.4,2.7,2.8,4.1,4.2c0.4,0.4,0.5,0.6,0,1.1c-2.5,2.5-5.1,5-7.6,7.6c-0.6,0.6-1.5,0.8-2.3,1.1C22.6,30.2,20.4,31.1,17.9,32.1z
	 M25.8,27.5c-0.1-0.1-0.2-0.3-0.4-0.4c-0.8-0.8-1.7-1.6-2.5-2.5c-0.5-0.5-0.7-0.4-1,0.1c-0.4,0.8-0.9,1.5-1.3,2.2
	c-1,1.7-1,1.7,0.4,3c0.3,0.3,0.5,0.3,0.9,0.1c1.1-0.7,2.3-1.4,3.4-2.1C25.5,27.9,25.8,27.8,25.8,27.5z"/>
</svg>
