<?xml version="1.0" encoding="utf-8"?>
<!-- Generator: Adobe Illustrator 21.1.0, SVG Export Plug-In . SVG Version: 6.00 Build 0)  -->
<svg version="1.0" id="Layer_1" xmlns="http://www.w3.org/2000/svg" xmlns:xlink="http://www.w3.org/1999/xlink" x="0px" y="0px"
	 viewBox="0 0 48 48" style="enable-background:new 0 0 48 48;" xml:space="preserve">
<style type="text/css">
	.st0{fill:#FFFFFF;}
</style>
<path class="st0" d="M41,5H7C5.9,5,5,5.9,5,7v34c0,1.1,0.9,2,2,2h34c1.1,0,2-0.9,2-2V7C43,5.9,42.1,5,41,5z M6.6,30.9l0-17.1
	l6.7,3.3l0,17.1L6.6,30.9z M16,30.9l0-17.1l6.7,3.3l0,17.1L16,30.9z M25.3,30.9l0-17.1l6.7,3.3l0,17.1L25.3,30.9z M34.7,31l0-17.1
	l6.7,3.3l0,17.1L34.7,31z"/>
</svg>
