<svg xmlns="http://www.w3.org/2000/svg" viewBox="0 0 48 48">
  <path
     style="fill:#ffffff"
     d="m 21.234262,10.598015 c -0.129101,-0.0058 -0.216908,0.05095 -0.27204,0.101185 -0.05513,0.05024 -0.08911,0.100543 -0.114455,0.170854 v 0.0017 c -0.01503,0.04185 0.0098,0.06886 0.01327,0.111139 -0.02582,0.04008 -0.07673,0.10999 -0.0763,0.237205 3.65e-4,0.102213 0.06577,0.1259 0.116114,0.179148 -0.07393,0.03532 -0.101299,0.102644 -0.134361,0.167537 -0.07696,0.04086 -0.189577,0.08587 -0.318485,0.139337 -0.05674,-0.02054 -0.122888,-0.04318 -0.195736,-0.02654 -0.09985,0.02282 -0.120257,0.06727 -0.160902,0.10948 -0.03159,-0.002 -0.05637,-0.01018 -0.09787,0.0017 -0.07386,0.02107 -0.143783,0.07854 -0.179149,0.131044 -0.04922,0.07307 -0.04463,0.116289 -0.05308,0.169195 -0.05738,-0.01818 -0.08818,-0.04436 -0.227252,-0.03152 -0.03634,0.0034 -0.04379,0.03178 -0.07465,0.04645 -0.03992,-0.01511 -0.03204,-0.04043 -0.09289,-0.03815 -0.222578,0.0081 -0.314932,0.09907 -0.305216,0.09621 0.05678,-0.01674 0.04229,-0.008 -0.01493,-0.0066 -0.05722,0.0014 -0.215019,0.01355 -0.320145,0.152608 -0.04218,0.05582 -0.02342,0.122009 -0.02488,0.192418 -0.04625,-0.02768 -0.08213,-0.06489 -0.139337,-0.06967 -0.06149,-0.0052 -0.158354,0.01161 -0.230571,0.06801 -0.07221,0.0564 -0.101772,0.128699 -0.114455,0.174172 -8.49e-4,0.0031 7.82e-4,0.002 0,0.005 -0.0014,-4.1e-5 -0.002,-0.0016 -0.0033,-0.0016 -0.07839,-0.0019 -0.223747,0.01924 -0.313509,0.16256 -0.04662,0.07445 -0.05364,0.122563 -0.06967,0.179148 -0.0064,1.88e-4 -0.03637,9.34e-4 -0.05142,0.0033 -0.06635,0.01033 -0.06889,0.03107 -0.104504,0.05308 -0.01811,-0.0075 -0.01841,-0.01335 -0.0481,-0.01991 -0.0831,-0.01835 -0.262106,0.02275 -0.33839,0.116114 -0.08044,0.09836 -0.07279,0.178188 -0.0763,0.252135 -0.05745,-0.05075 -0.08308,-0.102896 -0.199053,-0.140997 -0.05921,-0.01945 -0.181055,-0.02738 -0.278675,0.0365 -0.03286,0.0215 -0.02733,0.04078 -0.04645,0.06469 -0.08054,0.02886 -0.177689,0.04241 -0.232229,0.08957 -0.0054,0.0047 5e-6,0.0053 -0.005,0.01 -0.02645,0.0031 -0.05996,-0.0037 -0.07797,0.0017 -3.93e-4,-9e-6 -0.0061,9.2e-5 -0.0083,0 -0.0043,-1.84e-4 -0.0076,-0.0012 -0.01659,-0.0017 -0.02696,-0.0013 -0.06963,-0.0032 -0.119432,-0.0017 -0.0996,0.0031 -0.237518,0.01655 -0.381519,0.104503 -0.08416,0.05137 -0.139728,0.137182 -0.16256,0.199053 -0.0042,0.01157 -0.002,0.01461 -0.005,0.02488 -0.05086,0.0439 -0.07804,0.07986 -0.09455,0.109479 -0.06107,0.02112 -0.126349,0.03158 -0.169196,0.09123 -0.03019,0.04179 -0.02707,0.08106 -0.03649,0.124409 -7.36e-4,7.36e-4 -0.0025,0.0025 -0.0033,0.0033 -0.0101,-0.0048 -0.01,-0.01378 -0.02156,-0.01824 -0.0021,-8.06e-4 -0.0013,7.69e-4 -0.0033,0 -0.01824,-0.06203 -0.0386,-0.133021 -0.104503,-0.187442 -0.09851,-0.08134 -0.189645,-0.108501 -0.298581,-0.116114 -0.108935,-0.0076 -0.276766,0.01308 -0.388154,0.172513 -0.06391,0.09149 -0.04824,0.220676 -0.02488,0.306874 -0.01937,0.02282 -0.02844,0.004 -0.04645,0.03815 -0.04441,0.08433 -0.04277,0.192314 -0.02156,0.258769 0.02121,0.06646 0.04984,0.103094 0.07465,0.131044 0.0496,0.0559 0.08755,0.07881 0.136019,0.102844 0.0156,0.0077 0.01243,-3.42e-4 0.02654,0.005 0.0087,0.01521 -0.0039,0.01352 0.0083,0.02986 0.02206,0.0296 0.02972,0.01849 0.05143,0.03649 -0.0056,0.01655 -0.01243,0.0096 -0.01659,0.02986 -0.01302,0.06342 -0.06843,0.211297 0.06469,0.393131 0.05159,0.07043 0.0909,0.08193 0.134361,0.10782 0.01688,0.07055 0.04083,0.148379 0.08294,0.185783 h 0.0017 c 0.06219,0.05511 0.0902,0.0343 0.142655,0.04478 0.01125,0.01901 0.0046,0.03311 0.02156,0.05142 0.01263,0.01335 0.04279,0.03956 0.04313,0.03981 3.49e-4,2.58e-4 0.06101,0.03468 0.06138,0.03484 1.91e-4,8.3e-5 0.02426,0.004 0.03981,0.0066 0.01813,0.01783 0.01152,0.02491 0.03981,0.04313 0.03377,0.02158 0.04303,0.01803 0.06967,0.0282 0.02611,0.04966 0.07438,0.08727 0.12109,0.117774 0.0056,0.0314 -0.01423,0.06048 0,0.08626 0.0275,0.04987 0.05641,0.03767 0.09123,0.06635 -0.0088,0.01446 -0.01641,0.01713 -0.02488,0.03317 v 0.0017 c -0.02131,0.04072 -6.36e-4,0.03756 -0.0066,0.06967 -0.03235,0.03197 -0.07231,0.03922 -0.08792,0.08294 -0.02266,0.06316 -0.0056,0.07297 -0.005,0.114456 -0.01804,0.0077 -0.02659,0.0059 -0.04976,0.01991 -0.063,0.03809 -0.150343,0.128913 -0.175831,0.240523 -0.0348,0.152332 0.01676,0.280823 0.06636,0.363273 0.04959,0.08245 0.10451,0.138463 0.14929,0.180807 0.06833,0.0646 0.09418,0.04501 0.145972,0.05806 -0.0078,0.05315 -0.02706,0.09021 0.005,0.187441 0.01604,0.04866 0.07386,0.05967 0.119432,0.09787 -0.004,0.05413 -0.03083,0.156875 0.07962,0.345026 0.02742,0.04671 0.06357,0.05342 0.09953,0.07962 -0.0048,0.03033 -0.0175,0.02719 -0.01493,0.06967 0.0054,0.09306 0.01373,0.237464 0.142655,0.379861 0.09183,0.101555 0.181861,0.1052 0.233888,0.111138 0.0088,0.0076 0.02315,0.02168 0.01824,0.01327 -0.03514,-0.06032 -0.01916,-0.06061 -0.01328,-0.005 0.0059,0.05564 0.01585,0.201828 0.152608,0.31351 0.178152,0.145541 0.368693,0.153788 0.505928,0.154266 0.01853,5.7e-5 0.03984,-0.0016 0.06469,-0.0066 0.01287,-0.0026 0.02544,-0.0082 0.04313,-0.01493 0.015,0.01913 0.0062,0.01863 0.0564,0.05971 0.001,0.07562 -0.03162,0.06767 0.03815,0.154266 0.06119,0.07592 0.104981,0.08777 0.144313,0.104503 0.0091,0.04108 0.0174,0.09995 0.08128,0.182466 0.06224,0.08045 0.110995,0.09976 0.149291,0.119432 0.0013,0.05137 -0.01339,0.08783 0.04313,0.170855 0.09363,0.137386 0.218033,0.199506 0.343367,0.23057 0.07371,0.01827 0.07281,-0.006 0.116114,-0.01493 0.06045,0.04449 0.116547,0.09028 0.147631,0.13602 -0.0069,0.04231 -0.02551,0.109137 0.0017,0.227252 0.02689,0.116976 0.100653,0.183752 0.139337,0.213984 0.03869,0.03023 0.05713,0.0396 0.04645,0.03152 -5.9e-5,-4.4e-5 0.02946,0.03 0.08294,0.0763 0.05347,0.04631 0.150355,0.120983 0.293604,0.131043 0.04754,0.0033 0.112729,-0.027 0.172513,-0.0564 0.0076,0.0063 0.0031,0.0088 0.01161,0.01493 0.0073,0.0053 0.0198,3.59e-4 0.0282,0.005 0.01784,0.07071 0.02722,0.150986 0.12275,0.237205 0.06151,0.05553 0.130962,0.04911 0.199053,0.0564 0.01103,0.03589 -0.0013,0.04534 0.02986,0.09289 0.02083,0.03182 0.04755,0.02756 0.07465,0.0481 0.0052,0.06218 0.007,0.154951 0.09621,0.260428 0.06112,0.07233 0.151084,0.112436 0.212324,0.124408 0.04247,0.0083 0.06292,0.0058 0.08626,0.005 -0.0063,4.97e-4 -0.02287,-0.007 0.03815,0.04645 -0.01152,-0.01011 -0.01437,-0.01676 0.01,0.01493 0.02432,0.0317 0.07199,0.08633 0.132703,0.132702 0.02782,0.02125 0.03286,0.0066 0.05806,0.01824 -0.0036,0.01204 -0.0182,0.01606 -0.01991,0.0282 -0.01472,0.10593 0.07186,0.235448 0.140997,0.296921 0.0077,0.01932 -0.0057,0.03384 0.0066,0.05142 0.01374,0.01955 0.0315,0.01811 0.0481,0.03317 2.81e-4,0.001 0.0016,0.0082 0.0017,0.0083 3.58e-4,7.03e-4 0.105442,0.118955 0.106162,0.119432 3.6e-4,2.4e-4 0.06091,0.03134 0.06138,0.03152 4.6e-4,1.76e-4 0.03717,0.01346 0.05308,0.01659 h 0.0017 c 0.24475,0.04762 0.442484,0.03742 0.593843,0.06138 0.0027,0.0044 0.0098,0.01645 0.01,0.01659 4.96e-4,6.48e-4 0.115458,0.09258 0.116115,0.09289 6.58e-4,3.09e-4 0.161712,0.02828 0.162561,0.0282 4.24e-4,-4e-5 0.06256,-0.01147 0.06303,-0.01161 4.77e-4,-1.45e-4 0.03361,-0.01205 0.04645,-0.01824 0.07191,-0.03488 0.06967,-0.06124 0.09621,-0.09787 0.05386,-0.01068 0.102149,3.74e-4 0.145972,-0.03815 0.01536,-0.01354 0.0066,-0.02794 0.01824,-0.04313 0.03277,-0.0094 0.05856,0.0059 0.08792,-0.01493 0.03681,-0.02616 0.01889,-0.0499 0.04313,-0.07797 0.06938,0.03099 0.109775,0.08205 0.223935,0.06304 0.02561,-0.0042 0.01547,-0.01618 0.03649,-0.02322 0.01937,0.02566 5.37e-4,0.03669 0.03317,0.06138 h 0.0017 c 0.09754,0.07373 0.197631,0.08096 0.268722,0.07464 0.07109,-0.0063 0.12552,-0.02554 0.179148,-0.05474 0.134806,-0.07352 0.19724,-0.174435 0.218959,-0.313509 v -0.0017 h 0.0017 c 0.01091,-0.07256 0.0035,-0.05501 0.0033,-0.06801 -1.26e-4,-0.013 -0.0013,-0.02627 -0.0017,-0.04147 -7.66e-4,-0.0304 -0.001,-0.06702 -0.0017,-0.102843 -5.56e-4,-0.03269 -5.33e-4,-0.06397 0,-0.08626 0.0044,-0.0025 -0.0021,0.0013 0.0033,-0.0017 0.04775,-0.02616 0.146747,-0.0739 0.2173,-0.197395 3.76e-4,-6.57e-4 -3.7e-4,-0.001 0,-0.0017 0.04622,0.02045 0.05605,0.03765 0.152608,0.04313 0.144934,0.0082 0.227221,-0.05204 0.288628,-0.112797 0.0614,-0.06076 0.120893,-0.138934 0.116114,-0.281993 v -0.0017 -0.0017 c -0.0022,-0.05336 -0.03113,-0.07471 -0.05142,-0.114455 0.02189,-0.0375 0.04434,-0.05714 0.0564,-0.134361 0.01459,-0.09326 -0.0098,-0.125292 -0.02654,-0.167537 0.01663,-0.02754 0.02663,-0.05419 0.03649,-0.106162 6.7e-4,5.9e-4 0.001,0.0011 0.0017,0.0017 0.08837,0.07628 0.261507,0.09209 0.343367,0.06303 0.04543,-0.01613 0.05361,-0.02809 0.07465,-0.04313 0.01173,0.0023 0.01174,0.0051 0.02654,0.0066 0.06843,0.0072 0.190731,-0.01893 0.268723,-0.08792 h 0.0017 c 0.01203,-0.01094 0.0083,-0.02298 0.01824,-0.03483 0.0347,0.02772 0.06754,0.06078 0.144314,0.09123 0.06268,0.02491 0.08287,0.01107 0.12275,0.01 0.01365,0.03039 0.0019,0.04018 0.03484,0.0763 0.07745,0.08476 0.165689,0.10524 0.202371,0.112797 0.03668,0.0076 0.04178,0.01006 0.0066,-0.0017 0.07866,0.02621 0.08429,0.01811 0.102844,0.01991 0.01856,0.0018 0.03307,0.0032 0.04645,0.005 0.02676,0.0034 0.04552,0.01214 0.03152,0.005 -0.01475,-0.0076 0.0014,-1.82e-4 0.03815,0.03649 0.03683,0.03667 0.09503,0.101965 0.202371,0.152608 0.126551,0.05974 0.268665,0.08532 0.429625,0.02986 0.04237,-0.0146 0.05635,-0.04321 0.08626,-0.06801 0.02169,0.03942 0.0025,0.05807 0.05971,0.09787 0.02685,0.01866 0.05061,0.0015 0.08128,0.01 0.0041,0.0087 -0.0035,0.01488 0.0017,0.02322 0.08419,0.137535 0.191705,0.191262 0.253793,0.227252 0.09068,0.05255 0.217998,0.1461 0.413036,0.182466 0.259605,0.04844 0.518611,0.05623 0.766356,0.0481 0.007,-2.27e-4 0.01269,-0.0091 0.01991,-0.01 0.03467,0.0071 0.07318,0.03024 0.104503,0.0282 0.066,-0.0043 0.13286,-0.0201 0.204031,-0.07796 0.07886,-0.06422 0.164541,-0.14436 0.235546,-0.253793 0.0035,-0.0054 0.0018,-0.0048 0.005,-0.01 0.0027,-2.32e-4 0.0039,0.002 0.0066,0.0017 0.0078,-8.37e-4 0.0075,-0.007 0.01493,-0.0083 0.03021,0.02267 0.02659,0.04013 0.0763,0.05806 0.05593,0.02016 0.05311,-0.0022 0.09289,-0.0017 0.01423,0.05988 -9.34e-4,0.100293 0.07464,0.172513 0.07863,0.07516 0.218544,0.07773 0.305216,0.06304 0.045,0.03744 0.09833,0.08995 0.222276,0.106161 0.06152,0.0081 0.0676,-0.0135 0.111138,-0.02156 -0.0054,0.04647 -0.01687,0.08604 0.005,0.164219 0.03989,0.143006 0.140133,0.205349 0.212324,0.235546 0.07219,0.0302 0.136815,0.04347 0.232229,0.02322 0.200166,-0.04291 0.263135,-0.162394 0.29858,-0.290286 0.04488,-0.162843 0.03194,-0.215416 0.02488,-0.225594 0.03375,-0.03661 0.07408,-0.0498 0.08792,-0.102845 0.0113,-0.04324 -0.0061,-0.06596 -0.01,-0.102844 0.026,-0.0239 0.04704,-0.03587 0.08128,-0.08957 0.0083,-0.01305 -9.35e-4,-0.02137 0.005,-0.03484 0.01405,-7.61e-4 0.0041,0.0245 0.08626,-0.0564 0.04661,-0.04583 0.04725,-0.120633 0.05806,-0.19076 0.03271,-0.01176 0.03268,0.01236 0.07132,-0.01659 0.0477,-0.03575 0.03082,-0.0437 0.05308,-0.07465 0.02791,0.0098 0.0464,0.0162 0.09953,0.04147 0.01999,0.03315 0.04723,0.08837 0.142655,0.145973 0.167,0.100752 0.295883,0.0729 0.424648,-0.0066 0.02088,-0.01288 0.01062,-0.01556 0.02654,-0.0282 0.05906,0.03457 0.139592,0.07391 0.238864,0.06303 0.258707,-0.02832 0.340562,-0.154016 0.399766,-0.212323 0.04133,0.0017 0.07667,0.01043 0.121091,-0.0033 0.07848,-0.02429 0.138471,-0.06803 0.185783,-0.114456 0.0934,-0.09166 0.125944,-0.173109 0.150949,-0.223935 0.03098,0.0051 0.05975,0.01046 0.116114,0.0066 0.07572,-0.0052 0.195663,-0.04125 0.275358,-0.127727 0.115716,-0.125616 0.13366,-0.269106 0.140996,-0.364931 0.03656,0.0042 0.03506,0.02502 0.0846,0.01327 v 0.0017 c 0.12023,-0.02837 0.226426,-0.08951 0.31185,-0.197395 0.0372,-0.04694 0.05881,-0.123597 0.09123,-0.184124 l 0.06138,-0.02156 0.03484,-0.174172 c 0.02484,-0.123449 -0.0054,-0.150231 -0.02488,-0.192418 0.03183,-0.03286 0.05326,-0.016 0.07464,-0.139337 0.0352,-0.202247 0.0096,-0.289633 0.005,-0.330098 0.02806,-0.02338 0.04204,-0.0197 0.07465,-0.07962 7.78e-4,-0.0014 -7.53e-4,-0.0019 0,-0.0033 0.118492,-0.0366 0.253375,-0.05574 0.451188,-0.175831 0.176585,-0.107249 0.200953,-0.250774 0.222275,-0.354978 0.05842,-0.04979 0.136603,-0.104657 0.152608,-0.131044 0.03052,-0.05019 0.02851,-0.06848 0.03484,-0.09621 0.0014,-8.29e-4 -0.0068,0.0079 0.01493,-0.01 0.03321,-0.02724 0.09558,-0.08654 0.144313,-0.179147 0.05451,-0.01072 0.09006,-0.02 0.117773,-0.0365 0.05242,0.03175 0.114351,0.08144 0.248818,0.05971 0.150354,-0.0243 0.231869,-0.112769 0.268721,-0.150948 0.01648,-0.01707 -0.002,-0.0036 0.0017,-0.0066 0.03831,-0.0013 0.05799,0.0095 0.12275,-0.02322 0.0107,-0.0054 0.0395,-0.02301 0.03981,-0.02322 3.1e-4,-2.18e-4 0.05788,-0.05287 0.05806,-0.05308 1.81e-4,-2.11e-4 0.06131,-0.112593 0.06138,-0.112797 6.1e-5,-2.04e-4 0.005,-0.167337 0.005,-0.167537 -3e-6,-1.3e-5 -0.0028,-0.0072 -0.0033,-0.0083 0.01097,-0.03897 0.03539,-0.04061 0.02986,-0.09455 -0.01119,-0.111084 -0.05977,-0.131629 -0.101186,-0.172513 -0.0081,-0.0235 -0.01608,-0.08787 -0.0282,-0.182466 -0.01212,-0.09459 -0.03042,-0.228275 -0.12109,-0.363272 -0.06182,-0.09206 -0.198415,-0.152945 -0.281992,-0.155926 -0.03565,-0.0013 -0.04475,0.0058 -0.06801,0.01 -0.01796,-0.0173 -0.01927,-0.03877 -0.04147,-0.05143 -0.08939,-0.05095 -0.119442,-0.03607 -0.167537,-0.03649 -0.03698,-0.05621 -0.06416,-0.124034 -0.08626,-0.195735 0.03363,-0.05392 0.07521,-0.12521 0.06469,-0.222277 -0.01028,-0.09573 -0.07819,-0.163981 -0.132703,-0.212323 0.0055,-0.05267 0.03105,-0.07418 -0.005,-0.154267 -0.07348,-0.163289 -0.205841,-0.198564 -0.293604,-0.209007 -0.0642,-0.0076 -0.134671,0.02311 -0.207348,0.0564 -0.03396,-0.02234 -0.04767,-0.04269 -0.101185,-0.06138 -0.125665,-0.04394 -0.255261,-0.05248 -0.383178,-0.04478 -0.0058,-0.0046 -0.0038,-0.01252 -0.01,-0.01659 -0.07034,-0.04686 -0.09291,-0.02418 -0.144313,-0.0282 -0.01718,-0.0365 0.0095,-0.04402 -0.03317,-0.0846 -0.09374,-0.0892 -0.197873,-0.101872 -0.27204,-0.09953 -0.0086,2.71e-4 -0.015,0.0059 -0.02322,0.0066 -0.01189,-0.02428 -0.0014,-0.03144 -0.02156,-0.05806 -0.09648,-0.126747 -0.220114,-0.190086 -0.368623,-0.20729 -0.12037,-0.01392 -0.212208,0.03144 -0.267063,0.06967 -0.05486,0.03823 -0.08525,0.07517 -0.111139,0.109479 h -0.0017 v 0.0016 c -0.0443,0.05925 -0.04767,0.106066 -0.05474,0.157584 -0.0049,0.0037 -0.01517,0.0045 -0.01991,0.0083 -0.004,-0.0034 -0.0024,-0.0085 -0.0066,-0.01161 -0.03889,-0.02903 -0.04584,-0.015 -0.07797,-0.02654 -0.0023,-0.005 9.34e-4,-0.0031 -0.0017,-0.0083 -0.04781,-0.09683 -0.103075,-0.204469 -0.182466,-0.31185 -0.0059,-0.0079 -0.02074,-0.02065 -0.0282,-0.02986 0.03493,-0.01755 0.06778,-0.01504 0.09621,-0.04645 0.148185,-0.163445 0.142035,-0.316818 0.06303,-0.479388 -0.01614,-0.03328 -0.02518,-0.01381 -0.04313,-0.03649 0.01705,-0.064 0.03209,-0.15023 -0.0033,-0.237204 -0.04987,-0.122625 -0.13617,-0.193204 -0.220618,-0.238865 -0.08445,-0.04566 -0.17363,-0.07161 -0.281992,-0.06469 -0.06208,0.004 -0.17502,0.04146 -0.240523,0.129384 -0.03125,0.04194 -0.02148,0.06782 -0.02986,0.104503 -0.11158,-0.0025 -0.225227,0.0028 -0.34005,0.03484 -0.03187,0.0089 -0.02658,0.01723 -0.04976,0.0282 -0.01431,-0.0031 -0.02461,-0.01253 -0.0365,-0.01328 -0.01532,-0.05762 0.01065,-0.09633 -0.04147,-0.152607 -0.08527,-0.09205 -0.24947,-0.122903 -0.330097,-0.107821 -0.01888,0.0036 -0.01881,0.0074 -0.03317,0.01161 -0.0051,-0.02398 0.002,-0.039 -0.01161,-0.06636 -0.03616,-0.07318 -0.112187,-0.134151 -0.172453,-0.157583 -0.09364,-0.03637 -0.121453,-0.0054 -0.177489,0.0083 -0.02936,-0.03321 -0.02037,-0.05443 -0.08957,-0.08294 -0.09674,-0.03995 -0.154275,-0.02539 -0.197395,-0.01991 -0.0312,-0.02263 -0.09056,-0.07197 -0.202371,-0.09123 -0.0308,-0.0053 -0.04108,0.0162 -0.06967,0.01991 -0.0346,-0.02986 -0.0654,-0.06387 -0.149291,-0.09289 -0.122151,-0.04229 -0.220657,-0.01106 -0.28531,0.02156 -0.06466,0.03262 -0.109847,0.07117 -0.152608,0.134361 -0.01486,0.02201 -0.04574,0.06219 -0.07464,0.129385 -0.0289,0.06719 -0.06281,0.186294 -0.01,0.318486 0.03887,0.09708 0.125371,0.16536 0.180807,0.192418 0.0043,0.0021 0.0042,0.0014 0.0083,0.0033 0.01189,0.05487 0.04021,0.151714 0.102845,0.252134 -0.0049,0.0025 -0.0049,-0.0011 -0.01,0.0016 -0.02528,0.01386 -0.02996,0.03603 -0.04976,0.05474 -0.01737,0.0017 -0.0299,-0.0098 -0.04645,-0.005 -0.161871,0.04771 -0.229911,0.149347 -0.275358,0.227253 -0.04148,0.07118 -0.04694,0.114957 -0.05474,0.150949 -0.02589,0.01237 -0.0345,0.0094 -0.06635,0.03815 -2.87e-4,-0.0027 2.79e-4,-4.41e-4 0,-0.0033 -0.0062,-0.0641 -0.01032,-0.171298 -0.07962,-0.295262 -0.116171,-0.207878 -0.270965,-0.383117 -0.432941,-0.530809 -0.04355,-0.03973 -0.08254,-0.03644 -0.127726,-0.04976 -0.01164,-0.05746 -0.0069,-0.107108 -0.08128,-0.185784 -0.05395,-0.057 -0.107544,-0.05416 -0.16422,-0.07132 0.02827,-0.006 0.02795,0.01071 0.06138,-0.005 0.14704,-0.06909 0.222062,-0.178459 0.265405,-0.301898 0.0053,-0.01502 -0.0027,-0.03283 0,-0.04976 0.0065,-0.0113 0.0182,-0.009 0.02322,-0.02156 0.0052,-0.01298 -0.0033,-0.0188 0,-0.03152 0.01671,-0.01324 0.01905,7.06e-4 0.03649,-0.01824 v -0.0016 c 0.0596,-0.06499 0.08671,-0.159401 0.08626,-0.223935 -4.53e-4,-0.06453 -0.01702,-0.106038 -0.02986,-0.13602 -0.02568,-0.05996 -0.04802,-0.08447 -0.06635,-0.106162 -0.06727,-0.07965 -0.15579,-0.254592 -0.374884,-0.37986 -0.166858,-0.09539 -0.361924,-0.134303 -0.57228,-0.05971 -0.04627,0.01641 -0.05888,0.06426 -0.09455,0.101186 -0.06882,-0.03102 -0.107851,-0.07578 -0.225594,-0.06303 -0.0356,0.0038 -0.03907,0.0283 -0.06801,0.03981 -0.03813,-0.04104 -0.04044,-0.09058 -0.102845,-0.116114 -0.136934,-0.05604 -0.187927,-0.0048 -0.265404,0.02322 -0.004,-0.02161 -0.0018,-0.03293 -0.01,-0.05971 -0.02296,-0.0753 -0.08095,-0.18647 -0.19076,-0.252134 -0.103178,-0.06169 -0.237005,-0.06237 -0.315168,-0.04147 -0.07301,0.01952 -0.112513,0.04444 -0.144313,0.06304 -0.04087,-0.03295 -0.101484,-0.08958 -0.21896,-0.132703 -0.109528,-0.0402 -0.18555,-0.02443 -0.223935,-0.01991 0.0057,4.17e-4 1.33e-4,-0.0017 -0.04645,-0.03152 -0.04448,-0.02848 -0.146594,-0.06088 -0.252134,-0.07796 -0.01068,-0.02864 -0.004,-0.04463 -0.03317,-0.08128 -0.06794,-0.08538 -0.106354,-0.09142 -0.09623,-0.0846 -0.06329,-0.04261 -0.07499,-0.03042 -0.106162,-0.03483 -0.0031,-0.0032 -0.0093,-0.01433 -0.0066,-0.0083 -0.002,-0.0046 -0.0025,-0.002 -0.0033,-0.0066 0.02984,-0.04042 0.06123,-0.04085 0.06801,-0.126067 0.01393,-0.173899 -0.05737,-0.28366 -0.154266,-0.371567 -0.01688,-0.01528 -0.03269,-0.0076 -0.05143,-0.01825 -0.01191,-0.01932 -0.01218,-0.03529 -0.03152,-0.05474 -0.05051,-0.0508 -0.128519,-0.08501 -0.189101,-0.09289 -0.02032,-0.0027 -0.01361,0.0086 -0.03152,0.0083 -0.06821,-0.06098 -0.156571,-0.11593 -0.220618,-0.116114 -0.07949,-2.3e-4 -0.124582,0.02035 -0.160901,0.03815 -0.0085,0.0042 -0.01225,0.01258 -0.01991,0.01659 -0.07983,-0.02076 -0.164248,-0.05571 -0.233888,-0.05474 -0.177538,0.0025 -0.264385,0.08957 -0.320144,0.144313 -0.0567,0.05561 -0.156326,0.145455 -0.142655,0.341709 0.0064,0.09251 0.05263,0.136975 0.09289,0.184124 -0.0057,0.01715 -0.01248,0.02092 -0.01659,0.04147 -0.08182,-0.01469 -0.146543,-0.04671 -0.270382,0 -0.06063,0.02286 -0.08087,0.07332 -0.119431,0.117774 0.0096,-0.07584 0.02741,-0.158457 -0.01991,-0.242182 -0.02183,-0.03862 -0.07889,-0.05773 -0.124408,-0.08957 -0.01932,-0.201459 -0.131825,-0.3122 -0.223935,-0.373225 -0.02131,-0.01411 -0.0419,10e-4 -0.06636,-0.0066 -0.0013,-0.0011 -3.55e-4,-0.0023 -0.0017,-0.0033 -0.0079,-0.023 -0.0022,-0.0384 -0.01824,-0.06303 -0.04635,-0.07133 -0.131231,-0.12176 -0.192418,-0.137679 -0.03245,-0.0084 -0.07634,-0.01578 -0.132702,-0.0066 -0.02818,0.0046 -0.08726,0.02788 -0.08792,0.0282 -5.2e-4,2.52e-4 -0.04246,0.02894 -0.06303,0.04313 -0.0086,-0.0043 -0.002,-0.0059 -0.01161,-0.0099 -0.09055,-0.03837 -0.132358,-0.02301 -0.174172,-0.01659 -0.04432,-0.03797 -0.06175,-0.07999 -0.164219,-0.0846 z m 0.172513,0.08957 c 0.0091,0.0021 5.38e-4,-0.002 0.01161,0.0017 0.10414,0.03475 0.110737,0.0764 0.08957,0.05142 -0.0078,-0.0092 -0.07543,-0.02989 -0.101185,-0.05308 z m 0.481046,0.0846 c 0.0025,6.26e-4 6.12e-4,-7.53e-4 0.0033,0 0.0041,0.0011 0.01181,0.0099 0.01659,0.01161 -0.0018,1.13e-4 -0.0067,-0.0035 -0.0083,-0.0033 -0.0027,-0.0025 -0.0079,-0.0052 -0.01161,-0.0083 z m -0.47607,0.0282 c -0.002,0.0024 -0.01507,0.0064 -0.01659,0.0083 -7.44e-4,-7.45e-4 -0.0026,-9.86e-4 -0.0033,-0.0017 0.002,-0.0014 -7.18e-4,-7.6e-5 0.0017,-0.0017 0.003,-0.002 0.01434,-0.0028 0.01824,-0.005 z m -0.02156,0.0066 c 0.0013,0.0014 0.0019,0.0015 0.0033,0.0033 -0.0018,0.0021 -0.01872,0.0088 -0.01991,0.0099 -0.0065,0.0066 5.37e-4,-0.0018 0.01659,-0.01327 z m 0.331756,0.03815 c 0.0033,0.0031 0.01407,0.0055 0.01659,0.0083 0.0282,0.03137 0.03113,0.04209 0.0282,0.03649 -0.0014,-0.0026 -0.04051,-0.03338 -0.04478,-0.04479 z m 1.632238,0.212355 c -4.24e-4,0.04464 -0.02361,0.118186 -0.02156,0.129385 0.0042,0.02342 -0.02528,-0.02216 0.01991,-0.127726 3.27e-4,-7.63e-4 0.0014,-9e-4 0.0017,-0.0017 z m -1.771576,0.01493 c -4.71e-4,0.0034 0.0014,0.0309 0,0.04147 -1.9e-5,-3.72e-4 -0.0016,-0.0013 -0.0017,-0.0017 -0.0018,-0.04027 0.0028,-0.04804 0.0017,-0.03981 z m 1.788164,0.409721 c -0.02091,0.01171 -0.0294,0.02404 -0.06138,0.03152 -0.0076,0.0018 -0.01519,-0.0043 -0.02322,-0.0033 0.0301,-0.01281 0.06412,-0.01319 0.0846,-0.0282 z m 0.306874,0.0066 c 0.01219,0.002 0.02122,0.0025 0.03317,0.0033 0.0019,0.0962 0.0063,0.191043 0.03981,0.267064 0.05763,0.130798 0.129547,0.20045 0.205689,0.260428 0.01496,0.0118 0.02283,0.0077 0.03815,0.01659 -5.65e-4,0.04829 -0.0026,0.09806 0.01659,0.174172 0.04138,0.16536 0.145035,0.211466 0.222276,0.238865 0.07753,0.0275 0.174362,0.05437 0.310192,-0.0365 0.03079,-0.02059 0.01672,-0.0238 0.03649,-0.04313 0.037,0.02297 0.05353,0.04352 0.122749,0.06303 0.09408,0.02652 0.14504,0.01325 0.180807,0.0083 4.05e-4,0.0019 0.0099,0.0069 0.05474,0.04147 0.05566,0.04297 0.149549,0.119997 0.301898,0.140996 0.08955,0.01235 0.09497,-0.02331 0.14929,-0.04147 0.0025,0.0096 1.55e-4,0.01276 0.0033,0.02322 0.02269,0.07507 0.08145,0.185857 0.19076,0.252135 0.07551,0.04578 0.149707,0.03621 0.220617,0.03484 8.5e-5,-2e-6 -8.4e-5,0.0017 0,0.0016 0.0075,0.09002 0.05702,0.173437 0.104503,0.220618 0.04777,0.04747 0.09224,0.06945 0.129385,0.0846 0.07429,0.0303 0.12617,0.03585 0.182466,0.03649 0.177223,0.002 0.265443,-0.08309 0.336732,-0.192419 0.02231,0.01269 0.02762,0.0348 0.05308,0.04147 0.111673,0.02923 0.19992,0.004 0.267063,-0.0282 0.0573,-0.02748 0.102064,-0.07125 0.144314,-0.126067 0.0066,0.0066 0.02445,0.02821 0.03317,0.03815 -0.002,0.01047 -0.0038,0.01797 -0.005,0.0282 -0.02012,0.02503 -0.04645,0.02819 -0.05806,0.05971 -0.03719,0.0075 -0.04433,-0.01576 -0.08792,0.01 -0.03587,0.02117 -0.04088,0.05195 -0.06469,0.08128 -0.0068,0.0025 -0.0098,-0.0031 -0.01659,0 -0.10178,0.04603 -0.200949,0.116358 -0.272039,0.240523 -0.0014,0.0025 0.0014,0.0041 0,0.0066 -0.0082,0.0096 -0.0332,0.01246 -0.03981,0.02156 -0.0425,0.05857 -0.06967,0.116154 -0.06967,0.212323 -2.67e-4,0.05953 -0.0221,0.197074 0.114456,0.346685 h 0.0017 c 0.02804,0.03059 0.06234,0.01706 0.09953,0.03317 0.0062,0.0099 -0.0056,-0.006 -0.0017,0.005 0.0096,0.02657 0.01592,0.05209 0.03649,0.09621 0.01028,0.02206 0.01113,0.04793 0.07962,0.112797 0.01712,0.01622 0.0755,0.05268 0.0763,0.05308 7.98e-4,4.01e-4 0.146869,0.03319 0.147632,0.03317 2.91e-4,-5e-6 0.03249,-0.0098 0.06138,-0.01824 0.01429,0.02404 7.05e-4,0.03287 0.02322,0.05806 0.06609,0.07399 0.15745,0.09635 0.220617,0.104503 0.0979,0.09775 0.19316,0.198378 0.253793,0.306874 -0.01073,-0.01919 -0.0024,-0.0053 0.0033,0.05308 0.0057,0.05835 0.0073,0.159195 0.06635,0.281992 0.08369,0.174354 0.214643,0.233485 0.286969,0.272041 0.02051,0.01094 0.06619,0.03939 0.137679,0.06801 0.07149,0.02862 0.191697,0.06191 0.326779,0.01493 0.172641,-0.06005 0.22907,-0.209858 0.248817,-0.262088 0.01015,-0.02683 -0.0076,0.0017 -0.0083,0.0033 0.04507,-0.01877 0.07803,-0.01405 0.129385,-0.08626 0.03939,-0.05539 0.04265,-0.08752 0.05474,-0.127726 0.06006,-0.0082 0.140567,-0.02366 0.210665,-0.106162 0.01359,-0.0159 0.0019,-0.0137 0.01161,-0.0282 0.0025,-2.49e-4 0.004,-0.0014 0.0066,-0.0017 0.07633,0.0197 0.160705,0.05389 0.212323,0.0365 0.0397,-0.01338 0.07909,-0.03146 0.124409,-0.07299 0.04532,-0.04152 0.102803,-0.120341 0.107821,-0.227252 0.0042,-0.09867 0.0266,-0.278055 -0.06801,-0.479387 0.01265,0.0049 0.0056,0.01259 0.01991,0.01659 0.03151,0.0088 0.02825,-0.007 0.05474,-0.005 0.06827,0.08724 0.147376,0.196007 0.320144,0.253793 0.01307,0.0044 0.01735,-0.0028 0.02986,0 0.0024,0.01512 -0.004,0.01316 0,0.02986 0.0037,0.01417 0.02117,0.06053 0.02156,0.06138 1.99e-4,4.32e-4 0.04459,0.07109 0.04478,0.07132 10e-5,1.17e-4 0.05796,0.05301 0.05806,0.05308 9.9e-5,7e-5 0.102744,0.04808 0.102845,0.0481 1e-4,2.5e-5 0.13426,0.005 0.134361,0.005 3.8e-5,-8e-6 0.02105,-0.0078 0.03981,-0.01493 0.04661,0.02067 0.09517,0.04794 0.134361,0.0481 0.157007,6.58e-4 0.24848,-0.07911 0.286969,-0.10948 0.03849,-0.03037 0.0455,-0.02019 -0.01493,-0.0033 0.01074,-0.003 0.02497,-10e-4 0.03649,-0.0033 -0.03458,0.03616 -0.07656,0.05555 -0.09621,0.104503 -0.04156,0.103558 -0.02506,0.238743 0.01493,0.316827 0.03999,0.07808 0.08565,0.117084 0.121091,0.147631 0.07088,0.0611 0.124012,0.09863 0.114456,0.08957 0.0368,0.0349 0.141595,0.03394 0.215641,0.05806 0.02661,0.04412 0.05223,0.08387 0.07962,0.139338 -0.03622,-0.07325 -0.0232,-0.08933 -0.01991,-0.05308 0.0033,0.03625 0.01085,0.161893 0.127725,0.260428 0.04752,0.0401 0.06352,0.02553 0.102845,0.03815 0.0098,0.01676 -0.0059,0.01339 0.0083,0.03152 l 0.0017,0.0016 c 0.04875,0.06056 0.126921,0.166502 0.305215,0.202371 0.159051,0.03203 0.283191,-0.0117 0.388154,-0.08128 0.06383,-0.04229 0.06736,-0.07062 0.08957,-0.10782 0.04658,0.0094 0.102074,-0.0087 0.16256,-0.02156 0.07779,0.05859 0.149926,0.126241 0.267064,0.12275 0.008,-2.38e-4 0.01004,0.0089 0.01824,0.0083 0.0021,-1.45e-4 0.0028,-0.0031 0.005,-0.0033 0.03847,0.0211 0.04861,0.0097 0.08128,0.01659 0.0071,0.013 -0.0044,0.0093 0.005,0.02322 0.06633,0.0983 0.158309,0.18424 0.301898,0.225594 0.0143,0.0042 0.03047,0.0076 0.04976,0.01 0.0193,0.0024 0.06589,0.0017 0.06636,0.0016 9.35e-4,-7.8e-5 0.153606,-0.05593 0.154267,-0.0564 3.71e-4,-2.59e-4 0.02674,-0.03035 0.05308,-0.05971 0.007,0.0048 -0.0029,-0.0013 0.01328,0.01161 0.03894,0.03118 0.107134,0.08822 0.218958,0.126067 -0.0042,0.03277 -0.02622,0.04974 -0.01991,0.0846 0.03953,0.218456 0.12584,0.439896 0.280334,0.62702 0.08555,0.103677 0.165429,0.09384 0.240523,0.102843 0.01135,0.02029 -0.0054,0.01671 0.01327,0.03981 0.103782,0.128089 0.201572,0.127343 0.273698,0.129385 0.0061,0.0585 0.01576,0.131019 0.04147,0.220617 -0.04152,-0.02027 -0.05105,-0.04461 -0.131043,-0.04645 -0.0801,-0.0019 -0.09501,0.02333 -0.137679,0.04313 -0.02976,-0.01423 -0.03996,-0.03677 -0.07797,-0.04147 -0.181288,-0.02231 -0.280251,0.05666 -0.333415,0.09123 -0.08478,0.05518 -0.175327,0.130838 -0.189101,0.306874 l -0.0017,0.0017 v 0.0017 c -0.0016,0.02296 0.0088,0.01238 0.01,0.03152 -0.02477,0.02184 -0.04052,0.02788 -0.07132,0.07132 -0.01933,0.02725 -0.01338,0.03371 -0.02322,0.0564 -0.02898,0.0022 -0.04632,-0.0076 -0.08128,0.0066 -0.08138,0.03322 -0.141418,0.107151 -0.165878,0.155926 -0.05381,0.107702 -0.02212,0.158182 -0.005,0.209006 -0.102194,0.04387 -0.263433,0.06629 -0.48934,0.185783 -0.0767,0.04056 -0.101486,0.140203 -0.126067,0.222276 0.0036,-0.0082 -0.0014,-0.0097 0.0033,-0.01824 0.04126,-0.07583 0.06602,-0.07341 0.03484,-0.05143 -0.03118,0.02198 -0.137434,0.08531 -0.172513,0.240523 -0.05429,0.240058 -0.0053,0.384346 -0.01,0.411377 0.02043,-0.11786 0.03958,-0.107624 -0.03484,0.0033 -0.07484,0.111679 -0.06162,0.216707 -0.05142,0.270382 0.0074,0.03894 0.01445,0.05566 0.02156,0.07464 -0.0048,0.01145 -0.01288,0.02494 -0.02156,0.03981 -0.0303,-0.0039 -0.02339,-0.01906 -0.06469,-0.01328 -0.10806,0.01515 -0.173803,0.02445 -0.25877,0.06304 -0.04248,0.01929 -0.09584,0.05111 -0.140996,0.109479 -0.04516,0.05837 -0.06349,0.133165 -0.06636,0.147632 -0.01819,0.09192 -0.01435,0.143228 -0.01493,0.192418 -0.07064,-0.0097 -0.12112,-0.04247 -0.238864,0.03152 -0.135462,0.08512 -0.191329,0.1993 -0.225594,0.265404 -0.02155,0.04157 -0.02026,0.0404 -0.02654,0.05143 -0.04945,0.0054 -0.09196,-0.0054 -0.134361,0.01991 -0.13736,0.08229 -0.144377,0.09834 -0.160903,0.119432 -0.0082,-0.0067 -0.0084,-0.0094 -0.01824,-0.01659 -0.05181,-0.03801 -0.143691,-0.08599 -0.255451,-0.08294 -0.08336,0.0023 -0.152331,0.0435 -0.205689,0.08128 -0.01627,-0.0115 -0.01104,-0.01927 -0.03152,-0.02986 -0.112722,-0.05829 -0.291786,-0.18129 -0.555691,-0.155925 -0.104918,0.01007 -0.202503,0.07768 -0.248817,0.132702 -0.02953,0.03508 -0.03654,0.05443 -0.0481,0.07797 -0.05439,0.01742 -0.112763,0.03023 -0.159243,0.0846 -0.08453,0.09887 -0.105081,0.189065 -0.117773,0.25877 -5.62e-4,0.0031 -0.0012,0.0053 -0.0017,0.0083 -0.02836,0.02055 -0.0091,-0.01071 -0.05474,0.03815 -0.02876,0.03074 -0.01355,0.06493 -0.02654,0.104503 0.0028,-0.0052 -0.0015,-0.0082 0.0017,-0.01327 0.01449,-0.02273 0.0071,-0.01078 -0.0282,0.02156 -0.01066,0.0098 -0.0296,0.04605 -0.04478,0.06138 -0.17221,-0.06044 -0.306192,0.002 -0.36659,0.0282 -0.03695,-0.03273 -0.07952,-0.07993 -0.194077,-0.10782 -0.0086,-0.0021 -0.01,0.0048 -0.01824,0.0033 -0.02039,-0.05276 1.57e-4,-0.0849 -0.06303,-0.139338 -0.07941,-0.0684 -0.190391,-0.09067 -0.25711,-0.08791 -0.02944,0.0012 -0.03722,0.006 -0.0564,0.01 -0.03651,-0.04053 -0.05897,-0.08508 -0.160902,-0.114456 -0.06185,-0.01784 -0.149658,-0.01594 -0.215641,0.01161 -0.0019,7.89e-4 -0.0014,0.0025 -0.0033,0.0033 -0.02641,-0.0062 -0.06416,-0.01323 -0.06469,-0.01327 -6.59e-4,-4.6e-5 -0.103879,0.0098 -0.104503,0.01 -6.24e-4,1.66e-4 -0.09229,0.04107 -0.09289,0.04147 -5.97e-4,3.96e-4 -0.0462,0.03615 -0.06138,0.05308 -0.01517,0.01693 -0.02653,0.03309 -0.03484,0.04645 -0.01661,0.02671 -0.024,0.04588 -0.02986,0.06137 -0.0314,0.08304 -0.03437,0.09727 -0.03484,0.106162 -0.05305,-0.0052 -0.118541,0.02515 -0.179149,0.05474 -0.179653,0.0011 -0.359076,-7.13e-4 -0.524174,-0.03152 -0.03252,-0.006 -0.107721,-0.04597 -0.2173,-0.109479 -0.02014,-0.01168 -0.0084,-0.0014 -0.01493,-0.0066 -0.0087,-0.04081 0.01384,-0.07273 -0.01161,-0.106161 -0.03903,-0.05148 -0.115346,-0.103466 -0.187441,-0.119433 -3.8e-4,-3.27e-4 -0.0013,3.28e-4 -0.0017,0 -0.01887,-0.01616 -0.0035,-0.02529 -0.02986,-0.03981 -0.02053,-0.01128 -0.03349,0.0025 -0.05474,-0.0033 -0.02071,-0.02759 -0.002,-0.03773 -0.03981,-0.06469 -0.02997,-0.02133 -0.03096,6.75e-4 -0.05806,-0.01 -0.04049,-0.04764 -0.08634,-0.09944 -0.134361,-0.116115 -0.155899,-0.05405 -0.29338,-0.0317 -0.418011,0.0282 -0.04061,0.01951 -0.02144,0.03221 -0.04645,0.05474 -0.03498,-0.03548 -0.08497,-0.0928 -0.182466,-0.142655 -0.09412,-0.0481 -0.171154,-0.0589 -0.228912,-0.06635 -0.0088,-0.01345 -0.0013,-0.01384 -0.01327,-0.0282 -0.06783,-0.08079 -0.150236,-0.136397 -0.253793,-0.165878 -0.06883,-0.01959 -0.08849,-0.0074 -0.122749,-0.0033 -0.0057,-0.004 0.0026,-1.92e-4 -0.01824,-0.01659 -0.0388,-0.03052 -0.104994,-0.08638 -0.215641,-0.121091 -0.05217,-0.01636 -0.05328,0.0073 -0.09289,0.01 -0.03577,-0.02848 -0.09512,-0.06702 -0.184125,-0.07132 -0.09174,-0.0044 -0.182515,0.04124 -0.228911,0.08128 -0.09036,-0.06097 -0.161205,-0.06603 -0.228911,-0.06469 -0.01181,-0.01193 -0.0149,-0.02876 -0.0282,-0.03815 h -0.0017 c -0.142364,-0.09962 -0.25999,-0.08429 -0.310192,-0.0846 h -0.0017 c -0.02455,0 -0.06201,-4.21e-4 -0.121091,0.01493 -0.05908,0.01535 -0.162094,0.05813 -0.225594,0.170854 -0.06224,0.11048 -0.09312,0.228846 -0.09289,0.35332 2.73e-4,0.193369 0.04043,0.267634 0.0481,0.280334 -0.02167,0.03403 -0.04394,0.05019 -0.05142,0.132702 -0.0068,0.07864 0.01071,0.09654 0.02488,0.134361 -0.0022,0.0035 -0.0041,0.01592 -0.0066,0.01991 -0.08798,-0.01969 -0.224434,-0.03378 -0.358297,0.04645 -0.107077,0.06418 -0.170229,0.220416 -0.170854,0.301898 -1.43e-4,0.0187 0.0037,0.01871 0.005,0.03317 -0.03426,0.01973 -0.05781,0.02515 -0.104503,0.07464 -0.129007,0.136777 -0.12097,0.235686 -0.107821,0.205688 -0.01522,0.03475 -0.01006,0.03828 -0.01327,0.05474 -0.02278,-0.0033 -0.04695,-0.0195 -0.06636,-0.01824 -0.08792,0.0056 -0.08667,0.04466 -0.132702,0.07796 -0.02235,-0.03745 -0.02883,-0.07049 -0.09621,-0.116115 -0.118176,-0.08 -0.203421,-0.06941 -0.285309,-0.05142 -0.08189,0.018 -0.200346,0.06 -0.25877,0.222277 -0.0085,0.02361 0.0057,0.03895 0.0033,0.06303 -0.01063,0.0048 -0.01783,-0.0028 -0.0282,0.0033 -0.02785,0.01651 -0.02253,0.04671 -0.04313,0.07132 -0.03897,-0.01688 -0.05922,-0.04047 -0.109479,-0.04976 -0.161436,-0.02939 -0.26975,-0.03206 -0.391472,-0.03981 0.01,-0.06519 0.01855,-0.137204 -0.0282,-0.223935 -0.02786,-0.05186 -0.07822,-0.06062 -0.126067,-0.08957 -0.01603,-0.04116 -0.03113,-0.09785 -0.117773,-0.162561 -0.08048,-0.06018 -0.119367,-0.04964 -0.165877,-0.05308 -0.0096,-0.01279 -0.03728,-0.05551 -0.09123,-0.102844 6.14e-4,5.39e-4 -0.04554,-0.08913 -0.204031,-0.16256 -0.03649,-0.01691 -0.03296,-0.0019 -0.06138,-0.0083 -0.0058,-0.04451 0.0026,-0.06964 -0.03317,-0.137679 -0.02298,-0.04371 -0.06145,-0.04595 -0.09787,-0.07299 -0.01032,-0.06399 -0.02568,-0.184757 -0.155926,-0.281992 -0.06306,-0.04704 -0.120888,-0.03596 -0.182466,-0.03981 -0.01098,-0.05146 -0.01022,-0.09251 -0.06303,-0.170854 -0.01005,-0.0149 -0.03937,-0.04766 -0.03981,-0.0481 -4.47e-4,-4.45e-4 -0.06256,-0.04949 -0.06303,-0.04976 -3.73e-4,-2.19e-4 -0.0365,-0.0085 -0.06967,-0.01659 -0.01995,-0.02672 -0.0088,-0.03858 -0.04478,-0.06636 -0.06389,-0.04932 -0.176444,-0.07391 -0.242182,-0.06636 -0.02149,0.0025 -0.01935,0.0048 -0.03317,0.0083 -0.0082,-0.0015 0.0074,0.0013 -0.0066,-0.0017 -0.02396,-0.005 -0.09402,0.02348 -0.144314,0.02654 0.0042,-0.06822 0.0183,-0.138868 -0.03981,-0.242181 -0.112291,-0.199714 -0.277941,-0.333799 -0.439576,-0.431283 -0.07301,-0.04406 -0.154171,-0.04305 -0.215642,-0.03815 -0.0075,-0.04438 0.01099,-0.06102 -0.0282,-0.119432 -0.06929,-0.103482 -0.144749,-0.135218 -0.184125,-0.155925 -0.009,-0.04071 -0.01765,-0.10536 -0.0846,-0.19076 -0.0469,-0.05982 -0.07467,-0.06103 -0.112796,-0.08128 1.57e-4,-0.05777 0.01352,-0.11231 -0.04478,-0.187442 -0.04064,-0.05121 -0.0931,-0.06721 -0.140995,-0.08626 0.0088,-0.0028 -0.02289,-0.08565 -0.200713,-0.182466 -0.114738,-0.06248 -0.253856,-0.10602 -0.426306,-0.05971 -0.0095,-0.033 0.0033,-0.03851 -0.02156,-0.08128 -0.07186,-0.123221 -0.167626,-0.190919 -0.247159,-0.238864 -0.03131,-0.01887 -0.03134,-0.0076 -0.0564,-0.01659 0.02231,-0.06162 0.06548,-0.155854 0.005,-0.291945 -0.04255,-0.09578 -0.130782,-0.150505 -0.19076,-0.177489 0.004,-0.02313 0.01511,-0.02929 -0.01659,-0.165878 -0.0014,-0.0062 -6.6e-4,-0.01889 -0.01824,-0.06801 -0.01172,-0.03275 -0.06124,-0.07919 -0.102844,-0.122749 0.007,-0.0721 0.02856,-0.145261 -0.03981,-0.255453 -0.04012,-0.06464 -0.0981,-0.09103 -0.15095,-0.119431 0.0041,-0.0058 0.0059,-4.37e-4 0.01,-0.0066 0.0582,-0.08968 0.03725,-0.138636 0.03484,-0.200712 0.01639,-0.01513 0.03233,-0.0094 0.04645,-0.02986 0.04103,-0.05937 0.01519,-0.07128 0.01991,-0.117773 0.01169,-0.02214 0.03153,-0.04728 0.05971,-0.07797 0.0141,-0.01534 0.02841,-0.03045 0.05308,-0.06138 0.01233,-0.01547 0.02872,-0.03296 0.0481,-0.07299 0.01924,-0.03974 0.0499,-0.117107 0.02322,-0.223935 0.01212,0.04759 0.008,0.041 0.0033,-0.0017 -0.0047,-0.04265 -0.02395,-0.161373 -0.134361,-0.247159 -0.02463,-0.01914 -0.02654,-0.0096 -0.0481,-0.02156 -0.01537,-0.06529 -0.01261,-0.153807 -0.03152,-0.177489 -0.03412,-0.04275 -0.05243,-0.0556 -0.04478,-0.0481 0.0076,0.0074 -0.0059,-0.0098 -0.04147,-0.04313 -0.02269,-0.02128 -0.08806,-0.04431 -0.142655,-0.06801 -0.0017,-0.0015 1.22e-4,-0.0035 -0.0017,-0.005 v -0.0017 c -0.09017,-0.07636 -0.172681,-0.08848 -0.212324,-0.09787 -0.02114,-0.03214 -0.02795,-0.06079 -0.09455,-0.101185 -1.29e-4,-7.8e-5 -0.01354,-0.0049 -0.01824,-0.0066 -0.01661,-0.01765 -0.01396,-0.03993 -0.03484,-0.05308 -0.01564,-0.0099 -0.01523,5.19e-4 -0.02986,-0.0066 0.07819,-0.03401 0.171101,-0.07639 0.204029,-0.155925 0.04006,-0.09682 0.02491,-0.153831 0.01991,-0.2173 0.0037,-0.0041 0.0116,-0.0041 0.01493,-0.0083 0.04197,-0.05391 0.03868,-0.112928 0.04478,-0.170855 6.65e-4,-4e-4 10e-4,4.1e-4 0.0017,0 0.04939,-0.03017 0.114011,-0.09535 0.140997,-0.172513 3.66e-4,-10e-4 -3.57e-4,-6.25e-4 0,-0.0016 0.02493,-0.02171 0.02802,-0.03345 0.04313,-0.05308 0.04211,-0.01338 0.08738,-0.02787 0.08791,-0.0282 4.47e-4,-2.77e-4 0.04083,-0.02935 0.0564,-0.04478 0.01557,-0.01543 0.02815,-0.03033 0.03815,-0.04478 0.05123,-0.07375 0.03612,-0.0935 0.04313,-0.139338 0.0068,-7.33e-4 0.0057,-0.0014 0.01327,-0.0017 0.02229,-6.86e-4 0.04556,-0.0012 0.06967,0 0.01205,5.82e-4 0.0234,0.0013 0.03982,0.0017 0.0052,1.19e-4 0.02391,-0.0021 0.02986,-0.0017 0.07249,0.04359 0.198376,0.08684 0.295262,0.05143 0.0725,-0.02651 0.11382,-0.08246 0.150949,-0.131043 5.32e-4,7.1e-5 0.105561,-0.0048 0.106162,-0.005 2.34e-4,-4.9e-5 0.01826,-0.0064 0.02986,-0.01 0.0303,0.03002 0.05481,0.05615 0.101185,0.09289 0.01317,0.01044 0.02645,0.02266 0.06303,0.04147 0.0091,0.0047 0.02064,0.0095 0.03484,0.01493 0.01419,0.0053 0.05414,0.01482 0.05474,0.01493 5.97e-4,1.1e-4 0.09241,0.0034 0.09289,0.0033 4.79e-4,-5.5e-5 0.130685,-0.04456 0.131044,-0.04478 3.18e-4,-1.99e-4 0.07475,-0.0774 0.09289,-0.09621 0.01184,-0.0065 0.01217,3.45e-4 0.02488,-0.0083 0.07262,-0.04932 0.163857,-0.121093 0.213983,-0.267064 0.01125,-0.03278 0.0019,-0.03586 0.0066,-0.06303 0.02502,0.0097 0.03784,0.01779 0.08294,0.02654 0.03925,0.0076 0.09113,0.01403 0.159242,0.0016 0.06811,-0.01238 0.15714,-0.0548 0.215642,-0.124408 0.07109,-0.08458 0.08486,-0.154156 0.106162,-0.223936 0.02265,-0.0029 0.05154,0.0093 0.07299,0.0033 0.07283,-0.02037 0.15195,-0.05976 0.215641,-0.154267 0.06787,0.02905 0.143976,0.06836 0.253793,0.03152 0.201217,-0.06743 0.286029,-0.208799 0.341708,-0.301898 0.02454,-0.04099 -0.0036,-0.07709 -0.0017,-0.126067 0.02657,-0.02525 0.04402,-0.04878 0.06635,-0.09953 0.03378,-0.01361 0.0861,-0.03088 0.07132,-0.03317 0.04678,0.02959 0.05174,0.06582 0.147632,0.06138 0.05686,-0.0026 0.07656,-0.04335 0.121091,-0.07132 0.01702,0.0089 0.04823,0.02511 0.190759,0.03815 0.02666,0.0026 0.12512,-0.03385 0.210665,-0.06469 0.02071,-0.0031 0.04936,-0.0098 0.04976,-0.01 2.12e-4,-5.8e-5 0.01772,-0.0086 0.02654,-0.01327 0.01163,-0.009 0.0129,0.0029 0.02488,-0.0083 h 0.0017 c 0.0031,-0.0029 0.002,-0.0054 0.005,-0.0083 0.03214,-0.01728 0.06426,-0.03446 0.06469,-0.03484 4.14e-4,-3.59e-4 0.03263,-0.03225 0.04478,-0.0481 0.01215,-0.01586 0.02218,-0.03016 0.02986,-0.04478 v -0.0016 c 0.02688,-0.05126 0.01855,-0.069 0.02654,-0.107821 0.02487,-0.01368 0.02377,-0.02071 0.04147,-0.03484 0.0082,0.0025 0.0027,0.0043 0.01161,0.0066 0.08114,0.0209 0.172606,0.0014 0.223935,-0.02322 0.02711,-0.01304 0.03248,-0.02077 0.04645,-0.03152 0.131696,-0.05828 0.323007,-0.104374 0.52915,-0.240522 0.04176,-0.02755 0.03509,-0.06275 0.05806,-0.09953 0.01145,-2.94e-4 0.0058,-6.9e-5 0.01991,0 0.07904,3.88e-4 0.203192,0.0065 0.348344,-0.0564 0.105178,-0.04556 0.118537,-0.116616 0.150948,-0.182467 0.0254,0.03063 0.06794,0.04059 0.106162,0.06303 -6.43e-4,0.04999 -0.02254,0.08702 0,0.140997 0.04259,0.10209 0.143097,0.181763 0.217301,0.210665 0.0742,0.0289 0.12605,0.03085 0.16256,0.03317 0.01723,0.0011 -0.006,-0.0053 0.005,-0.0033 0.03266,0.03444 0.04495,0.07307 0.09455,0.09123 0.04168,0.01526 0.09805,0.03604 0.179148,0.04478 0.08109,0.0087 0.206204,0.0031 0.320144,-0.08294 0.09535,-0.07205 0.07081,-0.112861 0.08792,-0.17583 0.0088,0.0016 -0.0024,8.45e-4 0.0083,0.0033 0.09019,0.02093 0.260438,0.07434 0.456165,-0.02322 0.112085,-0.0559 0.198971,-0.238343 0.194077,-0.335073 -0.0049,-0.09673 -0.02894,-0.138251 -0.04313,-0.170854 -0.0035,-0.0079 4.11e-4,0.01029 -0.0017,0.0033 0.0037,-0.0056 0.0059,-0.01978 0.01,-0.02654 0.0068,1.73e-4 0.03354,0.0014 0.02156,0 -0.01823,-0.0021 1.66e-4,0.0043 0.05474,0.005 0.01297,1.51e-4 0.04164,-0.0092 0.06138,-0.01161 z m -3.695759,0.555691 c 0.01814,-0.0014 0.03364,-0.0013 0.0481,0 0.0095,8.32e-4 0.01367,0.0036 0.02156,0.005 -0.03106,-0.01028 -0.08888,0.0088 -0.142655,0.01161 0.0025,-0.0014 0.01338,-0.0066 0.01327,-0.0066 -4.96e-4,1.38e-4 0.04157,-0.0086 0.05971,-0.01 z m 0.187441,0.19076 c 0.0015,0.0014 0.03662,0.01847 0.04147,0.02488 -0.001,-5.02e-4 -0.0041,4.99e-4 -0.005,0 -0.03495,-0.01898 -0.04014,-0.02836 -0.03649,-0.02488 z m 6.746254,0.363272 c 0.0058,0.0077 0.02472,0.0153 0.0282,0.02156 0.02175,0.03924 0.02123,0.05139 0.01991,0.04645 -7.81e-4,-0.0029 -0.0443,-0.04921 -0.0481,-0.06801 z m 0.19076,0.04147 c -2.33e-4,-0.0078 0.006,0.0016 -0.0083,0.05143 -3.41e-4,0.0012 -0.0029,0.0037 -0.0033,0.005 -0.0023,-0.0097 0.01171,-0.05314 0.01161,-0.0564 z m -8.418303,0.295263 c -2.47e-4,-0.0033 0.0014,-0.004 0.0017,0.02156 4.3e-5,0.0062 -0.01068,0.02269 -0.01161,0.03152 -0.0027,-0.01028 0.01096,-0.04883 0.01,-0.05308 z m 8.343658,0.315168 c 0.01284,0.03222 0.0087,0.07205 0.02322,0.09289 -0.0081,-0.01403 -0.01632,-0.0171 -0.02322,-0.03649 -0.0058,-0.0162 0.0025,-0.03718 0,-0.0564 z m -0.140997,0.06967 c -4.85e-4,-9.1e-5 0.03933,0.0089 0.05474,0.01493 0.0124,0.0048 0.01711,0.0099 0.02654,0.01493 -0.01613,-0.01356 -0.05466,-0.01661 -0.08128,-0.02986 z m 0.457824,0.09787 c 7.95e-4,-0.009 0.0029,-0.002 -0.0083,0.03317 -0.0016,0.0051 -0.01536,0.015 -0.01824,0.02156 1.2e-5,-0.01178 0.02622,-0.05103 0.02654,-0.05474 z m 1.468018,0.04645 c -0.01248,-0.003 -0.0073,-0.0049 0.02322,0.01 0.0027,0.0014 0.0084,0.0097 0.01161,0.01161 -0.0065,-8.49e-4 -0.03161,-0.02081 -0.03484,-0.02156 z m -12.079227,0.154269 c 0.0019,0.0014 0.0083,3.12e-4 0.01,0.0016 0.04545,0.03774 0.04604,0.04944 0.04313,0.04478 -0.0015,-0.0024 -0.04847,-0.03384 -0.05308,-0.04645 z m 0.701663,0.02488 c 0.0033,0.002 0.05468,0.0084 0.06304,0.01659 -0.002,-3.01e-4 -0.0065,0.0037 -0.0083,0.0033 -0.05855,-0.01293 -0.06237,-0.02452 -0.05474,-0.01991 z m -1.09977,0.03981 c -6.77e-4,0.0054 -0.01755,0.02888 -0.01824,0.03152 -0.0026,0.01 -0.0037,0.0025 0.01327,-0.0282 5.69e-4,-10e-4 0.0043,-0.0022 0.005,-0.0033 z m 10.466895,0.01161 c 0.0028,0.002 0.02454,0.01313 0.03152,0.01824 -2.48e-4,-1.15e-4 -0.0014,1.12e-4 -0.0017,0 -0.0356,-0.0167 -0.03775,-0.02391 -0.02986,-0.01824 z m 4.214956,0.303556 c 0.0073,0.003 0.02452,-0.0014 0.02986,0.0017 0.04426,0.02559 0.05081,0.03927 0.0481,0.03649 -0.0017,-0.0018 -0.06534,-0.02274 -0.07797,-0.03815 z m 0.383179,0.07299 c -6.2e-4,-8.29e-4 -0.002,-0.0048 0.02156,0.01161 0.0028,0.002 0.0067,0.01226 0.01,0.01493 -0.0069,-0.0018 -0.02809,-0.02547 -0.03152,-0.02654 z m -16.677363,0.06967 c -0.003,0.0012 -0.02544,0.02328 -0.03152,0.02488 0.002,-0.0017 0.0048,-0.0086 0.0066,-0.01 0.02993,-0.02189 0.03622,-0.01952 0.02488,-0.01493 z m 1.239107,0.03152 c -0.0016,-0.0059 0.0037,0.0012 0.005,0.03649 1.22e-4,0.0035 -0.0048,0.01238 -0.005,0.01659 -0.0036,-0.009 6.87e-4,-0.05051 0,-0.05308 z m -1.108064,0.07299 c -0.03204,0.0022 8.49e-4,-0.0199 0.09455,0.02654 0.002,9.34e-4 0.0032,0.0025 0.005,0.0033 -0.03046,-0.0013 -0.0883,-0.03063 -0.09953,-0.02986 z m -0.215641,0.361614 c -1.23e-4,0.0032 0.01814,0.0487 0.01659,0.06138 -0.0019,-0.0066 -0.01231,-0.018 -0.01327,-0.02322 -0.0065,-0.03559 -0.0031,-0.04483 -0.0033,-0.03815 z m 14.137773,0.0083 c 8.35e-4,0.0023 0.0235,0.03097 0.02488,0.03815 -7.83e-4,-0.001 -0.0042,-0.0023 -0.005,-0.0033 -0.0219,-0.03172 -0.02218,-0.04114 -0.01991,-0.03484 z m 0.318485,0.05143 c 7.15e-4,-0.0041 0.0014,0.0078 -0.01327,0.04147 -0.0011,0.0025 -0.0069,0.0071 -0.0083,0.01 6.39e-4,-0.01063 0.02121,-0.0494 0.02156,-0.05142 z m -0.635312,0.197394 c -0.001,-0.0011 0.05591,0.02866 0.06967,0.04478 -0.003,-0.0015 -0.01068,-1.43e-4 -0.01328,-0.0017 -0.04443,-0.02595 -0.05517,-0.04182 -0.0564,-0.04313 z m 3.840073,0.257107 c 0.02692,0.01018 0.02017,0.0088 0.02654,0.01328 6.17e-4,0.0019 0.0027,0.0031 0.0033,0.005 -0.0027,-0.0032 -0.03742,-0.01013 -0.04313,-0.01659 0.003,8.49e-4 0.0107,-0.0026 0.01328,-0.0017 z m -1.028443,0.290287 c -3.15e-4,0.0025 0.02669,0.06877 0.02322,0.09289 -0.0037,-0.01259 -0.02213,-0.03061 -0.02322,-0.03981 -0.0054,-0.04573 4.58e-4,-0.05674 0,-0.05308 z m 2.093379,0.104503 c 5.08e-4,9.34e-4 0.0033,0.0066 0.0033,0.0066 -3e-6,-10e-6 -2e-5,0.0047 0,0.005 -0.0021,-0.0027 -0.0012,-0.0091 -0.0033,-0.01161 z m -0.753085,0.04478 c -4.8e-4,0.003 0.01761,0.05936 0.01327,0.07465 -0.0014,-0.0063 -0.01271,-0.01644 -0.01327,-0.02156 -0.0052,-0.04806 9.34e-4,-0.05873 0,-0.05308 z m -16.615989,0.0282 c 10e-4,0.002 0.004,0.0029 0.005,0.005 0.0037,0.008 4.92e-4,0.01067 0.0033,0.01824 -9.35e-4,-0.0076 -0.0068,-0.01507 -0.0083,-0.02322 z m 17.994433,0.13602 c -6.91e-4,0.0094 0.0034,0.01135 0.0017,0.02156 -3.36e-4,0.002 -0.0029,0.003 -0.0033,0.005 -9.35e-4,-0.0093 0.0031,-0.01795 0.0017,-0.02654 z m -0.03484,0.998584 c 8.3e-5,0.002 0.02408,0.0527 0.02322,0.06801 -0.002,-0.005 -0.01197,-0.01232 -0.01328,-0.01659 -0.01268,-0.04168 -0.0101,-0.05474 -0.01,-0.05143 z m -17.934714,0.368249 c 0.0042,5.21e-4 0.01018,0.01207 0.01493,0.01328 -0.01897,0.007 -0.0882,-0.01189 -0.08957,-0.01161 -0.002,4.07e-4 0.0092,-0.0099 0.07464,-0.0017 z m 18.959844,0.424648 c 5e-6,2.8e-5 -2e-6,0.0017 0,0.0017 -0.01541,0.08035 -0.04611,0.104695 -0.02654,0.07962 0.006,-0.0077 0.01378,-0.06256 0.02654,-0.08128 z m -1.446456,0.325121 c 0.0084,0.01009 0.01696,0.06106 0.01824,0.06303 0.0025,0.0038 -0.0063,-0.0031 -0.01991,-0.04313 -0.0014,-0.0039 0.0029,-0.0151 0.0017,-0.01991 z m -0.17583,0.575596 c 0.0078,0.0029 0.03504,-0.0029 0.04645,0 -0.0063,-9.34e-4 -0.02183,0.0042 -0.02654,0.0033 -0.06053,-0.01233 -0.04506,-0.01254 -0.01991,-0.0033 z m -16.028781,0.729892 c 0.02234,-0.001 0.08293,0.02493 0.0846,0.02488 0.0023,-7.8e-5 -0.0117,0.0033 -0.05308,-0.005 -0.0076,-0.0015 -0.02167,-0.01658 -0.03152,-0.01991 z m 0.91067,0.864223 c 0.0088,-0.0039 0.0038,3.03e-4 -0.03152,0.0066 -0.0016,2.91e-4 -0.0065,-0.0019 -0.0083,-0.0017 0.0053,-0.0032 0.03729,-0.0039 0.03981,-0.005 z m 5.872077,0.157584 c 0.0466,0.0049 0.05632,0.01364 0.05143,0.01161 -0.0023,-9.34e-4 -0.05047,-0.0025 -0.05971,-0.0083 0.002,1.18e-4 0.0064,-0.0035 0.0083,-0.0033 z m -4.963066,0.524175 c 0.0037,-0.0015 -0.0102,0.01032 -0.06469,0.01659 -0.0026,3.03e-4 -0.0071,-0.0035 -0.01,-0.0033 0.02272,-0.0071 0.07172,-0.01206 0.07465,-0.01327 z m 6.228715,0.01493 c -0.0021,0.0072 -0.02868,0.03017 -0.02986,0.03317 -0.0039,0.0099 -0.0041,0.0052 0.01327,-0.02156 0.002,-0.0031 0.01366,-0.0077 0.01659,-0.01161 z m 4.516855,0.172511 c -0.02298,-0.03387 -0.01699,-0.04668 0.01824,0.03815 3.49e-4,0.001 0.0025,0.01084 0.005,0.01824 -0.0088,-0.01647 -0.01781,-0.04842 -0.02322,-0.0564 z m -4.314484,0.01327 c 0.0021,0.01586 0.01678,0.03023 0.02156,0.0481 -0.003,-0.0048 -0.01073,-0.0051 -0.01327,-0.01 -0.0089,-0.01688 -0.0034,-0.02314 -0.0083,-0.03815 z m 5.863783,0.07797 v 0.0017 c -0.0014,8.49e-4 -0.0035,-8.4e-4 -0.005,0 4.18e-4,-2.72e-4 0.0046,-0.0014 0.005,-0.0017 z m -11.619746,0.04645 c -0.0084,4.97e-4 -0.0017,-0.0031 0.03152,0.0033 4.55e-4,8.8e-5 0.0012,0.0015 0.0017,0.0017 -0.0048,9.35e-4 -0.03085,-0.0051 -0.03317,-0.005 z m 9.937744,0.116114 c -0.0066,0.0014 -0.01806,0.01269 -0.02322,0.01328 -0.03857,0.0043 -0.04641,6.93e-4 -0.03815,0.0017 0.0036,4.17e-4 0.04929,-0.01752 0.06138,-0.01493 z m -2.189588,0.155926 c 0.02501,0.02183 0.107756,0.02697 0.164219,0.04976 -0.0023,2.32e-4 -0.01169,0.0016 -0.01161,0.0017 6.59e-4,4.6e-5 -0.05561,-0.0078 -0.0763,-0.01493 -0.0207,-0.0071 -0.03767,-0.01478 -0.04976,-0.02156 -0.09681,-0.05431 -0.05423,-0.03909 -0.02654,-0.01493 z m -1.436502,0.03317 c 0.01947,-2.95e-4 0.03818,0.0076 0.05474,0.005 -0.01728,-4.36e-4 -0.02421,0.0061 -0.04478,0.0017 -0.0038,-8.31e-4 -0.006,-0.0056 -0.01,-0.0066 z m 2.156412,0.121091 c 0.0038,-0.0017 0.02747,7.18e-4 0.02986,0 0.0118,-0.0036 0.009,1.91e-4 -0.02654,0.0017 -7.08e-4,2.9e-5 -0.0025,-0.0017 -0.0033,-0.0017 z m -1.171098,0.0564 c 5.15e-4,0.0012 0.0388,0.0418 0.04313,0.0564 -0.0025,-0.0029 -0.0112,-0.0056 -0.01328,-0.0083 -0.02802,-0.03588 -0.03069,-0.05011 -0.02986,-0.0481 z m -6.618528,0.248817 c -0.006,-3.54e-4 0.0037,-0.0016 0.03981,0.0083 0.0059,0.0016 0.01733,0.0153 0.02488,0.01825 4.51e-4,6.74e-4 0.0012,0.001 0.0017,0.0017 -0.01576,-1.42e-4 -0.06319,-0.02801 -0.06636,-0.0282 z m 2.297409,0.09123 c -7.09e-4,0.0076 0.0055,0.0013 -0.01,0.03649 0.04744,-0.10824 0.06233,-0.103079 -0.0083,-0.0282 -0.01518,0.01609 0.0072,-0.0012 0.01824,-0.0083 z m -2.020393,0.127726 c 0.003,0.0033 0.01332,0.01502 0.01328,0.01493 -3.58e-4,-7.04e-4 0.03157,0.123649 0.03152,0.122749 -2.5e-5,-4.7e-4 -0.0024,0.02094 -0.0033,0.03815 0.0077,-0.03683 -0.02169,-0.107729 -0.04147,-0.17583 z m 0.768015,0.155925 c 0.0016,0.0013 0.01,0.0083 0.01,0.0083 -5.6e-5,-7.4e-5 0.0042,0.007 0.005,0.0083 -0.009,-0.0064 -0.0021,-0.0011 -0.0083,-0.0066 -0.0014,-0.0035 -0.005,-0.0064 -0.0066,-0.01 z m -1.031761,0.03815 c -0.0019,0.0011 -0.0031,0.0074 -0.005,0.0083 -0.04755,0.02473 -0.06042,0.02088 -0.05474,0.01991 0.0028,-4.81e-4 0.04748,-0.02848 0.05971,-0.0282 z m 0.496296,2.692432 -2.121094,2.304687 c -0.09243,0.251931 0.860289,0.04438 1.189453,0.111328 l 2.814454,-2.416015 z m 9.738281,0.527343 -0.74414,3.857422 c -0.438346,-0.861587 -1.396929,-1.322426 -2.34375,-1.222656 -2.579813,0.239462 -4.063363,3.240937 -3.548828,5.59961 0.324957,1.968764 3.003784,2.556018 4.361328,1.273437 0.732493,-0.954692 0.458253,-0.148364 0.328125,0.494141 h 2.320312 l 1.949219,-10.001954 z m -20.177734,0.396485 c -0.8593664,0.0052 -1.7206059,0.0288 -2.5781251,0.0078 l -1.8691407,9.597657 h 2.4746094 l 0.6425782,-3.330078 c 0.7350919,-0.0049 1.4703802,0.01214 2.2050782,-0.01563 1.678667,0.04001 3.392084,-1.028776 3.757812,-2.728515 0.499022,-1.491484 -0.44391,-3.242283 -2.0625,-3.425781 -0.852538,-0.09731 -1.710946,-0.110637 -2.570312,-0.105469 z m 0.783203,1.757812 c 0.946844,0.0099 1.806699,0.772987 1.298828,1.808594 -0.527745,1.209101 -1.994265,0.861886 -3.0527342,0.916016 l 0.5273432,-2.681641 h 0.820313 c 0.13508,-0.03069 0.270987,-0.04438 0.40625,-0.04297 z m 8.068359,0.460938 c -0.866255,0.0068 -1.749091,0.156046 -2.576172,0.294922 -0.645837,0.0079 -0.399608,0.879133 -0.603515,1.314453 -0.392665,1.103298 1.243401,-0.265142 1.867187,-0.0293 0.85734,-0.140974 2.592722,-0.07578 2.244141,1.197266 -1.16931,0.01389 -2.366578,-0.08096 -3.496094,0.287109 -1.438077,0.333261 -2.404286,1.955711 -1.84375,3.355469 0.751757,1.568928 3.08952,1.414839 4.207031,0.333984 0.693432,-0.945302 0.285885,0.169094 0.240235,0.632813 h 2.300781 l 0.804688,-4.107422 c 0.194985,-0.930147 0.23319,-2.118682 -0.66211,-2.712891 -0.764924,-0.436733 -1.616167,-0.573173 -2.482422,-0.566406 z m 14.417969,0.1875 1.742188,7.289062 c -0.299469,0.846431 -1.07375,1.404598 -1.988282,1.240235 -0.630852,-0.171534 -0.393354,0.672093 -0.548828,1.05664 -0.329604,0.679266 0.456356,0.405448 0.863281,0.455078 1.198582,0.11438 2.482513,-0.297242 3.083985,-1.417968 1.72737,-2.84199 3.343589,-5.753043 5.025391,-8.623047 h -2.462891 l -2.550781,4.988281 -0.990235,-4.988281 z m -5.396484,1.509765 c 0.512401,-3.3e-5 0.965029,0.27945 1.115234,0.970704 0.142818,1.312644 -0.411136,3.189225 -1.978515,3.234375 -1.374947,0.06472 -1.299278,-1.584809 -1.048829,-2.490235 0.04067,-0.938125 1.058108,-1.714787 1.91211,-1.714844 z m -9.980469,2.386719 c 0.162907,-0.0161 0.335098,7.38e-4 0.509766,0.0625 h 1.105468 c -0.07544,0.970807 -0.816756,1.962095 -1.871093,1.896485 -1.601365,-0.06805 -0.884488,-1.846272 0.255859,-1.958985 z M 6,8 h 36 c 1.108,0 2,0.892 2,2 v 28 c 0,1.108 -0.892,2 -2,2 H 6 C 4.892,40 4,39.108 4,38 V 10 C 4,8.892 4.892,8 6,8 Z" />
</svg>
