<?xml version="1.0" encoding="UTF-8"?>
<svg xmlns="http://www.w3.org/2000/svg" viewBox="0 0 48 48" version="1.1">
   <path d="M7 5c-1.108 0-2 .892-2 2v3.508a1.5 1.5 0 011.5 1.5 1.5 1.5 0 01-1.5 1.5v19.68h26v-19.68a1.5 1.5 0 01-1.5-1.5 1.5 1.5 0 011.5-1.5V7c0-1.108-.892-2-2-2H7zm23.484 0A2.493 2.493 0 0131.5 7v4.008H31c-.558 0-1 .442-1 1s.442 1 1 1h.5v20.18h4.229L35.54 33l1.5-1.5-1.5-1.5 1.5-1.5-1.5-1.5 1.5-1.5-1.5-1.5 1.5-1.5-1.5-1.5 1.5-1.5-1.5-1.5 1.5-1.5-1.5-1.5 1.5-1.5-1.5-1.5 1.5-1.5-1.5-1.5 1.5-1.5V7c0-1.108-.892-2-2-2h-4.557zm6.041 0a2.493 2.493 0 011.016 2v.707L36.248 9l1.5 1.5-1.5 1.5 1.5 1.5-1.5 1.5 1.5 1.5-1.5 1.5 1.5 1.5-1.5 1.5 1.5 1.5-1.5 1.5 1.5 1.5-1.5 1.5 1.5 1.5-1.5 1.5 1.5 1.5-1.5 1.5.188.188H43V7c0-1.108-.892-2-2-2h-4.475zm-11.904 8.74a1.146 1.146 0 01.813 1.959l-3.28 3.28 3.19 8.017-1.701 1.7-4.846-6.36-2.986 2.986.044 2.559-1.402 1.4-1.244-2.98-2.979-1.242 1.4-1.403 2.557.043 2.987-2.986-6.36-4.846 1.7-1.699 8.02 3.187 3.277-3.279c.224-.224.517-.336.81-.336zM5 39.012V41c0 1.108.892 2 2 2h22c1.108 0 2-.892 2-2v-1.988H5zm26.5 0V41c0 .82-.403 1.544-1.016 2h4.557c1.108 0 2-.892 2-2v-.5l-1.488-1.488H31.5zm4.76 0l1.281 1.281V41c0 .82-.403 1.544-1.016 2H41c1.108 0 2-.892 2-2v-1.988h-6.74z" fill="#fff"/>
</svg>
