<svg height="48" viewBox="0 0 12.7 12.7" width="48" xmlns="http://www.w3.org/2000/svg"><path d="m6.35.52916333a5.8208331 5.8208331 0 0 0 -5.82083333 5.82083997 5.8208331 5.8208331 0 0 0 5.82083333 5.8208297 5.8208331 5.8208331 0 0 0 5.820834-5.8208297 5.8208331 5.8208331 0 0 0 -5.820834-5.82083997zm-.066146 1.32291997h.1322917v.79375h-.066146l.3886068.42375a3.3072917 3.3072917 0 0 1 2.9186849 3.28042 3.3072917 3.3072917 0 0 1 -3.3072917 3.30729 3.3072917 3.3072917 0 0 1 -3.3072916-3.30729 3.3072917 3.3072917 0 0 1 2.9202351-3.28197l.3870565-.4222h-.066146zm-3.0721639 1.26607.5617229.56172-.093535.0935-.5617228-.56172zm6.2761027 0 .093534.0935-.5612061.56172-.093534-.0935zm-3.137793.58601a2.6458333 2.6458333 0 0 0 -2.6458331 2.64584 2.6458333 2.6458333 0 0 0 2.6458333 2.64583 2.6458333 2.6458333 0 0 0 2.6458334-2.64583 2.6458333 2.6458333 0 0 0 -2.6458336-2.64584zm0 1.19063a1.4552083 1.4552083 0 0 1 1.4552084 1.45521 1.4552083 1.4552083 0 0 1 -1.4552084 1.45521 1.4552083 1.4552083 0 0 1 -1.4552083-1.45521 1.4552083 1.4552083 0 0 1 1.4552083-1.45521zm-4.4979166 1.38906h.79375v.13229h-.79375zm8.2020828 0h.793751v.13229h-.79375zm-6.3742875 2.64273.093535.0935-.5617229.56172-.093534-.0935zm5.3402426 0 .5612061.56173-.093534.0935-.5612061-.56172zm-2.7362671 1.1275797h.1322917v.79375h-.1322915z" fill="#fff" stroke-width=".264583"/></svg>