<svg xmlns="http://www.w3.org/2000/svg" viewBox="0 0 48 48"><defs><style>.cls-1{fill:#fff;}</style></defs><g id="Layer_1" data-name="Layer 1"><path class="cls-1" d="M13.64,10.7H7.42A2.42,2.42,0,0,0,5,13.12V34.88a2.43,2.43,0,0,0,4.85,0V28.23h3.79c5.6,0,8.8-3.2,8.8-8.77S19.24,10.7,13.64,10.7Zm0,12.68H9.85V15.55h3.79c2.88,0,3.95,1.06,3.95,3.91S16.52,23.38,13.64,23.38Z"/><path class="cls-1" d="M34.2,19.77H30.41v-.44a2.43,2.43,0,0,0-4.85,0V34.88A2.42,2.42,0,0,0,28,37.3H34.2c5.59,0,8.8-3.19,8.8-8.76S39.79,19.77,34.2,19.77Zm0,12.68H30.41V24.62H34.2c2.88,0,3.95,1.06,3.95,3.92S37.08,32.45,34.2,32.45Z"/><circle class="cls-1" cx="27.98" cy="13.12" r="2.42"/></g></svg>