<?xml version="1.0" encoding="utf-8"?>
<!-- Generator: Adobe Illustrator 21.1.0, SVG Export Plug-In . SVG Version: 6.00 Build 0)  -->
<svg version="1.0" id="Layer_1" xmlns="http://www.w3.org/2000/svg" xmlns:xlink="http://www.w3.org/1999/xlink" x="0px" y="0px"
	 viewBox="0 0 48 48" style="enable-background:new 0 0 48 48;" xml:space="preserve">
<style type="text/css">
	.st0{fill:#FFFFFF;}
</style>
<g>
	<path class="st0" d="M20.5,21.8c0.3,0,0.5,0,0.8,0c1,0,2.1-0.1,3.1-0.5c0.6-0.3,1.2-0.6,1.6-1.2c0.5-0.7,0.7-1.4,0.7-2.3
		c0-1.1-0.6-1.8-1.6-2.2c-0.7-0.2-1.4-0.3-2.1-0.3c-0.3,0-0.6,0-0.9,0c-0.8,0-1.4,0.5-1.6,1.3c-0.1,0.4-0.2,0.8-0.3,1.2
		c-0.2,0.9-0.4,1.8-0.6,2.7C19.5,21.2,19.9,21.7,20.5,21.8z"/>
	<path class="st0" d="M41,5H7C5.9,5,5,5.9,5,7v34c0,1.1,0.9,2,2,2h34c1.1,0,2-0.9,2-2V7C43,5.9,42.1,5,41,5z M11.4,32.1
		c0-0.1,0-0.3,0-0.4c0.1-0.6,0.3-1.1,0.4-1.7c0.2-0.8,0.4-1.6,0.6-2.4c0.4-1.8,0.8-3.6,1.3-5.4c0.3-1.5,0.7-3,1-4.5
		c0.4-1.7,0.8-3.4,1.2-5c0.2-0.7,0.8-1.3,1.6-1.3c2.4,0,4.9,0,7.3,0c1.2,0,2.5,0.1,3.7,0.4c0.9,0.2,1.8,0.6,2.5,1.2
		c1,0.8,1.6,1.9,1.8,3.2c0.2,1.3,0.1,2.6-0.4,3.9c-0.3,0.8-0.8,1.6-1.4,2.2c-0.8,0.9-1.8,1.6-2.9,2.1c-1,0.5-2,0.8-3.1,1
		c-1.7,0.3-3.4,0.4-5.1,0.4c-0.2,0-0.5,0.1-0.7,0.1c-0.5,0.2-0.8,0.6-0.9,1.1c-0.3,1.3-0.6,2.5-0.9,3.8c0,0.2-0.1,0.4-0.2,0.6
		c-0.2,0.7-0.8,1.2-1.5,1.2c-1,0-2.1,0-3.1,0C11.9,32.8,11.6,32.5,11.4,32.1z M33.9,27c-1.1,0.9-2.4,1.5-3.8,2
		c-1.9,0.6-3.9,0.7-5.9,0.7c-0.3,0-0.7,0-1,0c-0.7,0.1-1.1,0.5-1.3,1.2c-0.4,1.5-0.7,2.9-1,4.4c-0.2,0.8-1,1.3-1.7,1.3c-1,0-2,0-3,0
		c-0.4,0-0.7-0.1-0.9-0.4c-0.1-0.2-0.1-0.4-0.1-0.6c0-0.3,0.1-0.6,0.2-0.8c0-0.1,0.1-0.1,0.2-0.1c0.6,0,1.1,0,1.7,0
		c0.9,0,1.5-0.5,1.7-1.3c0.3-1.4,0.7-2.9,1-4.3c0.2-0.8,0.8-1.3,1.7-1.3c1.2,0,2.4,0,3.6-0.2c1.2-0.1,2.3-0.4,3.4-0.8
		c1.2-0.4,2.2-1,3.2-1.7c1.9-1.5,2.8-3.5,2.8-5.9c0-0.6-0.1-1.3-0.3-1.9c-0.1-0.2-0.2-0.5-0.3-0.7c0,0,0,0,0.1-0.1
		c0.3,0.3,0.7,0.5,0.9,0.8c0.8,0.8,1.3,1.8,1.4,2.9C36.9,22.9,36.1,25.2,33.9,27z"/>
</g>
</svg>
