<?xml version="1.0" encoding="utf-8"?>
<!-- Generator: Adobe Illustrator 21.1.0, SVG Export Plug-In . SVG Version: 6.00 Build 0)  -->
<svg version="1.0" id="Layer_1" xmlns="http://www.w3.org/2000/svg" xmlns:xlink="http://www.w3.org/1999/xlink" x="0px" y="0px"
	 viewBox="0 0 48 48" style="enable-background:new 0 0 48 48;" xml:space="preserve">
<style type="text/css">
	.st0{fill:#FFFFFF;}
</style>
<g>
	<path class="st0" d="M21.4,26.7c1.7-0.4,3.5-0.8,5.3-1.2c-0.9-1.3-1.9-2.6-2.8-3.8C23.1,23.3,22.2,25,21.4,26.7z"/>
	<path class="st0" d="M23.7,15.6c0.2-1.4,0.4-2.8,0.6-4.2c0.1-0.4-0.2-0.6-0.5-0.4c-0.2,0.1-0.4,0.3-0.4,0.5c-0.3,1.5-0.2,3,0.2,4.5
		C23.6,15.8,23.7,15.7,23.7,15.6z"/>
	<path class="st0" d="M13.1,33.1c-0.2,0.2-0.2,0.5-0.4,0.7c0,0,0.1,0.1,0.1,0.1c1.5-0.7,2.4-1.9,3.4-3.1
		C15.1,31.4,13.9,32.1,13.1,33.1z"/>
	<path class="st0" d="M35.5,28c-1.4-0.6-2.9-0.8-4.5-0.9c0,0,0,0.1-0.1,0.1c0.5,0.4,0.9,0.9,1.5,1.3c0.8,0.6,1.7,1.2,2.6,1.7
		c0.4,0.2,0.9,0.3,1.3,0.2c0.7-0.2,0.8-0.6,0.5-1.2C36.6,28.6,36,28.2,35.5,28z"/>
	<path class="st0" d="M24,2C11.8,2,2,11.8,2,24s9.8,22,22,22s22-9.8,22-22S36.2,2,24,2z M38.8,30.2c-0.2,1.2-1.3,2.1-2.6,2.2
		c-0.9,0.1-1.7-0.2-2.5-0.6c-1.4-0.8-2.7-1.8-3.8-2.9c-0.5-0.4-0.9-0.9-1.3-1.4c-0.2-0.2-0.4-0.3-0.7-0.2c-2.7,0.4-5.3,1-7.8,1.9
		c-0.2,0.1-0.5,0.3-0.6,0.5c-1.1,1.5-2.2,3.1-3.5,4.4c-0.8,0.8-1.8,1.5-2.9,1.8c-1,0.2-2.2-0.1-2.2-1.7c0-1,0.4-1.7,1-2.4
		c0.9-1.1,2.1-1.8,3.3-2.5c1-0.5,2-0.9,3-1.4c0.2-0.1,0.4-0.2,0.5-0.4c1.6-2.5,2.9-5,3.9-7.8c0.1-0.3,0.1-0.5,0-0.8
		c-0.7-1.9-1.3-3.9-1.2-5.9c0-0.8,0.2-1.6,0.4-2.3C22,9.2,24,8.6,25.2,9.3c1.2,0.7,1.2,1.4,1.1,2.5c-0.2,2.4-0.7,4.8-1.5,7.2
		c0,0.2,0,0.4,0.1,0.5c1.1,2.1,2.5,3.9,4.1,5.6c0.1,0.1,0.3,0.1,0.4,0.1c0.3,0,0.6,0,0.9,0c1.9,0,3.7,0.2,5.5,0.8
		c1,0.4,1.9,0.9,2.6,1.8C38.7,28.6,38.9,29.3,38.8,30.2z"/>
</g>
</svg>
