<svg viewBox="0 0 48 48" xmlns="http://www.w3.org/2000/svg">
    <defs>
        <style>.cls-1{fill:#fff;}</style>
    </defs>
    <path class="cls-1" d="M 15.200614,2 C 12.774142,2.00862 10.808028,3.9747546 10.799386,6.4012273 V 32.799386 c 0.0086,2.426472 1.974756,4.392586 4.401228,4.401228 H 41.598773 C 44.025245,37.191995 45.991357,35.225858 46,32.799386 V 6.4012273 C 45.991381,3.9747546 44.025245,2.0086429 41.598773,2 Z M 2,10.799386 V 41.598773 C 2.0086193,44.025245 3.9747546,45.991381 6.4012273,46 H 37.200614 V 41.598773 H 6.4012273 V 10.799386 Z M 14.098773,13 h 5.5 a 3.3,3.3 0 0 1 3.302454,3.299386 V 18.5 a 3.3,3.3 0 0 1 -3.302454,3.299386 h -2.197546 v 4.401228 h -3.302454 z m 11,0 h 5.5 a 3.3,3.3 0 0 1 3.302454,3.299386 v 6.601841 a 3.3,3.3 0 0 1 -3.302454,3.299387 h -5.5 z m 11,0 h 6.601841 v 3.299386 H 39.401227 V 18.5 h 3.299387 v 3.299386 h -3.299387 v 4.401228 H 36.098773 Z M 17.401227,16.299386 V 18.5 h 2.197546 v -2.200614 z m 11,0 v 6.601841 h 2.197546 v -6.601841 z"/>
</svg>
