<svg id="Layer_1" data-name="Layer 1" xmlns="http://www.w3.org/2000/svg" viewBox="0 0 48 48"><defs><style>.cls-1{fill:#fff;}</style></defs><title>simple pdf viewer</title><path class="cls-1" d="M21.2,17H17.7v8.4h2.1V22.6h1.4a2.1,2.1,0,0,0,2.1-2.1V19.1A2.1,2.1,0,0,0,21.2,17Zm0,3.5H19.8V19.1h1.4Z"/><polygon class="cls-1" points="31.7 25.4 33.8 25.4 33.8 22.6 35.9 22.6 35.9 20.5 33.8 20.5 33.8 19.1 35.9 19.1 35.9 17 31.7 17 31.7 25.4"/><path class="cls-1" d="M28.2,17H24.7v8.4h3.5a2.1,2.1,0,0,0,2.1-2.1V19.1A2.1,2.1,0,0,0,28.2,17Zm0,6.3H26.8V19.1h1.4Z"/><path class="cls-1" d="M24,2A22,22,0,1,0,46,24,22,22,0,0,0,24,2Zm8.4,36H12.8A2.81,2.81,0,0,1,10,35.2V15.6h2.8V35.2H32.4ZM38,29.6a2.81,2.81,0,0,1-2.8,2.8H18.4a2.81,2.81,0,0,1-2.8-2.8V12.8A2.81,2.81,0,0,1,18.4,10H35.2A2.81,2.81,0,0,1,38,12.8Z"/></svg>