<?xml version="1.0" encoding="UTF-8" standalone="no"?>
<svg
   xmlns:dc="http://purl.org/dc/elements/1.1/"
   xmlns:cc="http://creativecommons.org/ns#"
   xmlns:rdf="http://www.w3.org/1999/02/22-rdf-syntax-ns#"
   xmlns:svg="http://www.w3.org/2000/svg"
   xmlns="http://www.w3.org/2000/svg"
   xmlns:sodipodi="http://sodipodi.sourceforge.net/DTD/sodipodi-0.dtd"
   xmlns:inkscape="http://www.inkscape.org/namespaces/inkscape"
   width="48"
   height="48"
   viewBox="0 0 48 48"
   version="1.1"
   id="svg994"
   sodipodi:docname="pedometer.svg"
   inkscape:version="0.92.4 5da689c313, 2019-01-14">
  <metadata
     id="metadata1000">
    <rdf:RDF>
      <cc:Work
         rdf:about="">
        <dc:format>image/svg+xml</dc:format>
        <dc:type
           rdf:resource="http://purl.org/dc/dcmitype/StillImage" />
        <dc:title></dc:title>
      </cc:Work>
    </rdf:RDF>
  </metadata>
  <defs
     id="defs998" />
  <sodipodi:namedview
     pagecolor="#ffffff"
     bordercolor="#666666"
     borderopacity="1"
     objecttolerance="10"
     gridtolerance="10"
     guidetolerance="10"
     inkscape:pageopacity="0"
     inkscape:pageshadow="2"
     inkscape:window-width="1563"
     inkscape:window-height="1130"
     id="namedview996"
     showgrid="false"
     inkscape:snap-global="false"
     inkscape:zoom="12.11"
     inkscape:cx="4.9107499"
     inkscape:cy="17.092161"
     inkscape:window-x="255"
     inkscape:window-y="179"
     inkscape:window-maximized="0"
     inkscape:current-layer="svg994">
    <inkscape:grid
       type="xygrid"
       id="grid1548" />
  </sodipodi:namedview>
  <path
     style="fill:#ffffff;fill-opacity:1"
     mask="none"
     d="M 24,2 C 11.849736,2 2,11.849736 2,24 2,36.150264 11.849736,46 24,46 36.150264,46 46,36.150264 46,24 46,11.849736 36.150264,2 24,2 Z m 8.234375,7.1230469 c 0.25358,-0.025753 0.50812,-0.024381 0.763672,0.00195 1.022209,0.1053357 2.060274,0.6147109 3.103515,1.4238281 1.794866,1.392062 2.413329,4.070498 2.285157,6.332031 -0.220007,3.881926 -4.176527,7.917803 -4.789063,10.734375 l -6.71875,-2.191406 c 0.373052,-1.032104 0.733482,-1.85705 0.896485,-2.597656 0.489323,-2.223176 0.08,-3.731316 -0.236329,-5.738281 -0.233686,-1.482667 0.468814,-5.350076 2.44336,-6.962891 0.740455,-0.6048067 1.491214,-0.9246933 2.251953,-1.0019532 z M 17.773438,16.228516 c 1.02756,0.01105 1.995114,0.421008 2.884765,1.333984 1.779302,1.82595 2.038681,5.748624 1.638672,7.195312 -0.541459,1.958263 -1.117349,3.411508 -0.882813,5.675782 0.07813,0.754296 0.341874,1.613943 0.595704,2.68164 l -6.923828,1.417969 c -0.289793,-2.867804 -3.763772,-7.327104 -3.542969,-11.208984 0.128635,-2.261508 1.047383,-4.853249 2.988281,-6.033203 1.128121,-0.685833 2.214624,-1.073549 3.242188,-1.0625 z m 8.580078,10.863281 7.027343,2.292969 c -0.425103,2.561007 -1.806031,5.199299 -4.841797,4.503906 -2.579978,-0.590988 -2.879406,-2.360069 -2.765624,-3.56836 0.120226,-1.276762 0.335308,-2.320985 0.580078,-3.228515 z m -4.011719,7.740234 c 0.140474,0.929403 0.237954,1.991272 0.212891,3.273438 -0.02372,1.213403 -0.522053,2.93726 -3.152344,3.232422 -3.094967,0.347305 -4.168291,-2.430772 -4.300782,-5.023438 z"
     id="circle992"
     inkscape:connector-curvature="0"
     sodipodi:nodetypes="sssssssssccccssssssccsssscsccccsccc" />
</svg>
