<?xml version="1.0" encoding="utf-8"?>
<!-- Generator: Adobe Illustrator 23.1.0, SVG Export Plug-In . SVG Version: 6.00 Build 0)  -->
<svg version="1.1" id="Layer_1" xmlns="http://www.w3.org/2000/svg" xmlns:xlink="http://www.w3.org/1999/xlink" x="0px" y="0px"
	 viewBox="0 0 48 48" style="enable-background:new 0 0 48 48;" xml:space="preserve">
<style type="text/css">
	.st0{fill:#FFFFFF;}
</style>
<title>phonetrack</title>
<path class="st0" d="M24,2C11.8,2,2,11.8,2,24s9.8,22,22,22s22-9.8,22-22S36.2,2,24,2z M24.7,41.7c-0.3,0.3-0.7,0.3-1,0.1
	c0,0-0.1,0-0.1-0.1C21.2,39,11.9,27.5,11.9,18.1C11.9,11.4,17.3,6,24,6c6.7,0,12.1,5.4,12.1,12.1C36.1,27.5,27,38.9,24.7,41.7z"/>
<path class="st0" d="M28.5,10.2h-9c-1.2,0-2.1,1-2.1,2.2V29c0,1.2,0.9,2.2,2.1,2.2h9c1.2,0,2.1-1,2.1-2.2V12.4
	C30.6,11.2,29.7,10.2,28.5,10.2z M24,30.5c-0.5,0-0.9-0.4-0.9-0.9s0.4-0.9,0.9-0.9c0.5,0,0.9,0.4,0.9,0.9
	C24.9,30.1,24.5,30.5,24,30.5C24,30.5,24,30.5,24,30.5z M29,27.4c0,0.3-0.2,0.6-0.6,0.6h-9c-0.3,0-0.6-0.3-0.6-0.6V13
	c0-0.3,0.2-0.6,0.6-0.6h9c0.3,0,0.6,0.3,0.6,0.6V27.4z"/>
</svg>
