<svg id="Layer_1" data-name="Layer 1" xmlns="http://www.w3.org/2000/svg" viewBox="0 0 48 48"><defs><style>.cls-1{fill:#fff;}</style></defs><title>phonetrack</title><path class="cls-1" d="M24,2A22,22,0,1,0,46,24,22,22,0,0,0,24,2Zm.68,39.74a.74.74,0,0,1-1.12,0C21.17,39,11.91,27.55,11.91,18.09a12.09,12.09,0,0,1,24.18,0C36.09,27.54,27,38.94,24.68,41.74Z"/><path class="cls-1" d="M28.5,10.17h-9a2.16,2.16,0,0,0-2.09,2.22V29a2.16,2.16,0,0,0,2.09,2.22h9A2.16,2.16,0,0,0,30.59,29V12.39A2.16,2.16,0,0,0,28.5,10.17ZM24,30.5a.93.93,0,1,1,.93-.93A.92.92,0,0,1,24,30.5Zm5-3.14a.6.6,0,0,1-.56.63h-9a.6.6,0,0,1-.56-.63V13a.6.6,0,0,1,.56-.63h9A.6.6,0,0,1,29,13Z"/></svg>