<?xml version="1.0" encoding="UTF-8"?>
<svg version="1.1" viewBox="0 0 48 48" xmlns="http://www.w3.org/2000/svg">
    <path d="m7.2533 13.985c-1.2483 0-2.2533 1.005-2.2533 2.2533v20.53c0 1.2483 1.005 2.2533 2.2533 2.2533h30.545c1.1624 0 2.1024-0.87507 2.2279-2.0029h-33.524v-15.022h8.2602c0.31131-0.45083 0.65681-0.87784 1.0445-1.2655 1.7171-1.7171 4.1302-2.7169 6.5585-2.7169s4.8414 0.99982 6.5585 2.7169c0.3877 0.3877 0.7332 0.8147 1.0445 1.2655h8.581v7.0103h1.5022v-12.769c0-1.2483-1.005-2.2533-2.2533-2.2533zm7.5111 3.0044a1.5022 1.5022 0 0 1 1.5022 1.5022 1.5022 1.5022 0 0 1-1.5022 1.5022 1.5022 1.5022 0 0 1-1.5022-1.5022 1.5022 1.5022 0 0 1 1.5022-1.5022zm15.272 0h7.0103v3.0044h-7.0103zm-7.6715 4.2915a6.0088 6.0088 0 0 0-0.50465 0.02445 6.0088 6.0088 0 0 1 0.50465-0.02445zm-0.69243 0.04695a6.0088 6.0088 0 0 0-0.41565 0.05966 6.0088 6.0088 0 0 1 0.41565-0.05966zm-0.57115 0.09486a6.0088 6.0088 0 0 0-0.43814 0.10856 6.0088 6.0088 0 0 1 0.43814-0.10856zm-0.54084 0.14279a6.0088 6.0088 0 0 0-0.47824 0.17115 6.0088 6.0088 0 0 1 0.47824-0.17115zm4.4294 0.32861a6.0088 6.0088 0 0 1 0.2132 0.10269h0.0029a6.0088 6.0088 0 0 0-0.2161-0.10269z" fill="#fff" style="paint-order:stroke markers fill"/>
    <path d="m9.0187 9.8685c-1.0152 0-1.8325 0.49038-1.8325 1.0995v0.733c0 0.06271 0.010562 0.12348 0.027201 0.18325h-0.027201v0.91624h4.7645v-0.91624h-0.0272c0.01665-0.05977 0.0272-0.12056 0.0272-0.18325v-0.733c0-0.60913-0.8173-1.0995-1.8325-1.0995z" fill="#fff" stroke="#fff" stroke-dashoffset="5.18" stroke-linecap="round" stroke-width=".3665" style="paint-order:stroke markers fill"/>
    <path d="m35.402 22.578c-0.74654 0.61845-0.72029 1.7343-0.39955 2.5679l3.5625 5.236c-0.83313 1.5227-2.3001 3.0273-2.7058 3.0273-0.31708 0-0.24758-0.29116-1.0732-0.24758-0.79268 0.04185-1.3791 0.86938-1.3272 1.6516-0.0047 0.78248 0.59496 1.5936 1.4218 1.6005 0.83292 0.05829 1.6065-0.64217 1.661-1.4707 0.14451-0.97061 1.2621-2.6894 2.7071-3.4957 1.1083 0.60078 2.2935 1.6664 2.2381 2.6301-0.04606 0.80008 0.18324 1.761 0.96967 2.1427 0.75367 0.36876 1.8264 0.0071 2.0571-0.83953 0.31358-0.85448-0.0827-2.0279-1.0652-2.2311-0.75733-0.15663-1.1132 0.37959-1.3881 0.17374-0.20744-0.15532-1.2694-1.1415-2.0588-2.8989l3.7983-5.6699c0.20001-0.71643 0.19331-1.5919-0.51115-2.2265l-4.0216 5.8785zm-1.3172 11.673c0.46084-0.82538 1.711-0.75798 1.9531 0.09973 0.27012 0.77562-0.4839 1.7667-1.3245 1.5195-0.68976-0.14482-0.94402-1.0542-0.62854-1.6192zm7.9995-0.03607c0.31806-0.86126 1.7753-0.71501 1.9711 0.16081 0.20169 0.58087-0.08849 1.4113-0.77283 1.4701-0.83207 0.11324-1.5838-0.86461-1.1983-1.6309z" fill="#fff" stroke="#fff" stroke-width=".63758"/>
    <path d="m22.365 18.777a8.5125 8.5125 0 0 0-8.5125 8.5125 8.5125 8.5125 0 0 0 8.5125 8.5125 8.5125 8.5125 0 0 0 8.5125-8.5125 8.5125 8.5125 0 0 0-8.5125-8.5125zm0 2.5037a6.0088 6.0088 0 0 1 6.0088 6.0088 6.0088 6.0088 0 0 1-6.0088 6.0088 6.0088 6.0088 0 0 1-6.0088-6.0088 6.0088 6.0088 0 0 1 6.0088-6.0088z" fill="#fff" style="paint-order:stroke markers fill"/>
</svg>
