<svg xmlns="http://www.w3.org/2000/svg" viewBox="0 0 48 48">
  <path
     style="fill:#ffffff"
     d="m 17.129191,39.99073 c 0.203384,-0.05121 0.391832,-0.128783 0.418776,-0.172386 0.02694,-0.04361 0.002,-0.246147 -0.05483,-0.450114 -0.08141,-0.29075 -0.13258,-0.35839 -0.23696,-0.31317 -0.376827,0.163255 -0.972245,0.211153 -1.286035,0.103453 -0.598097,-0.205286 -0.667565,-0.394427 -0.697686,-1.899578 l -0.02641,-1.320893 h 1.083614 1.083616 v -0.414579 -0.414578 h -1.07792 -1.077905 v -0.578502 c 0,-0.53237 -0.0173,-0.589833 -0.216847,-0.720583 -0.194354,-0.127344 -0.239502,-0.129393 -0.435311,-0.01979 -0.200195,0.112072 -0.220498,0.172318 -0.242822,0.720584 -0.0238,0.584451 -0.02937,0.598287 -0.242222,0.598287 -0.25694,0 -0.521121,0.213679 -0.521121,0.421508 0,0.221038 0.230457,0.407653 0.503418,0.407653 h 0.242826 v 1.370777 c 0,1.493607 0.06155,1.778306 0.481165,2.225798 0.476921,0.508597 1.382144,0.687907 2.302678,0.456113 z m 4.782249,-0.106892 c 0.453433,-0.186467 0.476767,-0.1884 0.476767,-0.0395 0,0.132622 0.06345,0.156576 0.414582,0.156576 h 0.414583 V 37.851869 35.70281 l -0.269481,-0.165198 c -0.527545,-0.323417 -1.142272,-0.470192 -1.969258,-0.470192 -0.747857,0 -0.814964,0.01499 -1.326656,0.296738 -0.601644,0.331258 -1.075966,0.875766 -1.240107,1.423605 -0.23984,0.800526 -0.06134,1.759273 0.45312,2.433767 0.611714,0.801998 1.982236,1.099957 3.04645,0.662308 z m -1.597578,-0.752152 c -1.260634,-0.402271 -1.489613,-2.170115 -0.379156,-2.927266 0.522945,-0.356566 1.123709,-0.39514 1.978802,-0.127059 l 0.395921,0.12413 -0.02281,1.298579 -0.02282,1.298575 -0.373122,0.182951 c -0.494624,0.242529 -1.105091,0.300633 -1.57685,0.150093 z m 7.884149,0.818958 c 0.752176,-0.222462 0.751009,-0.221189 0.603301,-0.654694 -0.06989,-0.205114 -0.143398,-0.37293 -0.163352,-0.37293 -0.01996,0 -0.268301,0.07858 -0.55189,0.174626 -1.37122,0.464403 -2.629965,-0.273977 -2.629965,-1.542747 0,-1.389948 1.456857,-2.079491 2.993732,-1.416951 0.104296,0.04496 0.155615,-0.02292 0.23696,-0.313456 0.05711,-0.203965 0.08158,-0.406849 0.05439,-0.450846 -0.112574,-0.18215 -1.115108,-0.369821 -1.766839,-0.330747 -0.757842,0.04544 -1.302022,0.284791 -1.783186,0.784329 -0.473135,0.491208 -0.643493,0.948589 -0.643493,1.727671 0,0.489249 0.04423,0.761257 0.168547,1.036456 0.287297,0.636004 0.944601,1.199002 1.651962,1.414951 0.366528,0.111896 1.366103,0.08149 1.829834,-0.05567 z m 10.338101,-0.102382 c 0.348672,-0.180445 0.352393,-0.180601 0.352393,-0.01485 0,0.145744 0.05389,0.167515 0.414577,0.167515 h 0.414583 v -2.157034 -2.157039 l -0.26948,-0.164405 c -0.535758,-0.326865 -1.066454,-0.454854 -1.886341,-0.454942 -0.676774,-6.3e-5 -0.852932,0.03053 -1.250911,0.217143 -0.536642,0.251657 -0.990776,0.675914 -1.256505,1.173821 -0.156225,0.29272 -0.186894,0.479454 -0.186894,1.13789 0,0.659536 0.03001,0.841669 0.18445,1.11937 0.326079,0.586327 0.813708,1.019706 1.398019,1.242487 0.487093,0.185711 1.631323,0.125404 2.086109,-0.109957 z m -1.637596,-0.691001 c -1.254537,-0.356494 -1.564172,-2.020877 -0.533942,-2.870079 0.558164,-0.460084 1.540103,-0.515531 2.295909,-0.129636 l 0.228022,0.116412 v 1.19414 c 0,1.191587 -5.01e-4,1.1945 -0.218696,1.366156 -0.248682,0.195616 -0.950349,0.424106 -1.268112,0.412947 -0.117132,-0.0042 -0.343563,-0.04459 -0.503181,-0.08993 z M 9.6191318,36.628624 c 0,-3.021604 -0.014286,-3.388068 -0.137224,-3.523929 C 9.3135016,32.918602 9.0120854,32.908627 8.8373554,33.083333 8.723147,33.197549 8.7070585,33.632697 8.7070585,36.607268 V 40.0009 h 0.4560366 0.4560367 z m 2.7362302,0.984317 c 0,-1.746765 -0.02673,-2.414697 -0.09949,-2.487479 -0.142273,-0.142273 -0.483575,-0.122787 -0.660946,0.03773 -0.140107,0.126801 -0.151631,0.315894 -0.151631,2.487484 v 2.350254 h 0.456037 0.456036 z m 18.656113,1.766997 v -0.621 l 0.410488,-0.45327 0.410488,-0.453275 0.792311,1.074269 0.79231,1.074263 h 0.543333 c 0.412325,0 0.528446,-0.02502 0.481583,-0.103639 -0.03395,-0.05701 -0.483913,-0.673478 -0.999887,-1.369938 -0.515976,-0.696469 -0.936618,-1.29346 -0.934762,-1.326661 0.0042,-0.0725 0.230163,-0.33605 1.145693,-1.335362 l 0.693034,-0.756441 h -0.58555 -0.58555 l -1.007612,1.098635 c -0.554182,0.604255 -1.040967,1.111076 -1.081739,1.126277 -0.04236,0.01579 -0.07413,-0.874776 -0.07413,-2.077048 0,-2.25989 -0.0082,-2.303684 -0.426459,-2.303684 -0.48068,0 -0.485614,0.03773 -0.485614,3.708216 v 3.339649 h 0.456038 0.456035 z M 12.387916,33.462475 c 0.860534,-1.151533 0.942156,-1.380247 0.616322,-1.727082 -0.225922,-0.240483 -0.666631,-0.257065 -0.890203,-0.0335 -0.161347,0.161348 -0.221806,0.392869 -0.493938,1.891395 -0.132172,0.727855 -0.14271,0.935173 -0.04751,0.935173 0.01039,0 0.377208,-0.479695 0.815344,-1.065991 z m 14.544061,0.865801 c 0.2644,-0.138486 2.130693,-2.107917 2.062321,-2.17629 -0.02578,-0.02578 -0.767163,0.229699 -1.647457,0.567792 -1.794612,0.689262 -1.82783,0.71941 -1.383858,1.256062 0.376103,0.454619 0.610875,0.540013 0.968994,0.352436 z m -0.646714,-5.241714 c 1.52941,-0.254184 2.723258,-0.72463 4.007933,-1.579376 1.450736,-0.965228 2.758183,-2.44282 3.533072,-3.99285 1.137718,-2.275811 1.157016,-5.104705 0.0508,-7.444858 -0.492565,-1.041978 -0.942746,-1.678016 -1.85049,-2.614461 -1.514768,-1.562658 -3.125315,-2.485687 -5.278311,-3.025078 -1.159447,-0.290477 -3.283576,-0.365075 -4.535486,-0.159285 -2.043243,0.335873 -4.114722,1.303749 -5.54302,2.589914 l -0.536204,0.482846 0.370373,-0.533709 c 1.384666,-1.995287 3.552255,-3.3285793 6.126923,-3.7686947 1.022802,-0.1748395 2.732912,-0.175454 3.498798,-0.00104 0.320041,0.072793 0.599477,0.1147711 0.620963,0.093288 0.06642,-0.066433 0.379602,-1.2324853 0.341312,-1.2707767 -0.137288,-0.1372874 -1.504917,-0.2897097 -2.589345,-0.2885786 -3.027972,0.00312 -5.65094,0.9516716 -7.838758,2.834671 -1.139489,0.980728 -2.154727,2.653073 -2.612342,4.303176 -0.319619,1.152482 -0.37542,3.006187 -0.126748,4.210372 0.183624,0.889181 0.469972,1.759581 0.578888,1.759581 0.0349,0 0.277888,-0.755572 0.540017,-1.679048 0.833068,-2.934925 1.674657,-4.334115 3.379682,-5.61889 2.110813,-1.590545 5.027952,-2.242282 7.607545,-1.699648 1.979452,0.416391 3.620731,1.322702 4.989127,2.75499 0.99271,1.03905 1.547945,1.969661 1.91057,3.202216 0.186197,0.632897 0.18714,0.655732 0.04882,1.183064 -0.399191,1.522011 -1.119405,2.742996 -2.271585,3.851056 -1.279326,1.230337 -2.567923,1.939104 -4.330322,2.381799 -0.789723,0.198372 -1.028637,0.220727 -2.330941,0.218091 -1.352796,-0.0026 -1.51645,-0.02027 -2.41739,-0.259149 -1.07841,-0.285917 -2.111428,-0.738384 -2.884749,-1.263539 -0.283119,-0.192263 -0.531037,-0.333301 -0.550922,-0.313414 -0.01991,0.0199 -0.124821,0.341144 -0.233194,0.713908 l -0.197043,0.677753 0.552109,0.322448 c 1.805694,1.054582 4.147319,1.591135 6.412493,1.469337 1.771808,-0.09528 3.15167,-0.461273 4.628455,-1.227691 1.010516,-0.524426 1.709084,-1.049882 2.509313,-1.887481 0.351101,-0.367492 0.638368,-0.64687 0.638368,-0.620838 0,0.114854 -0.634559,1.114498 -0.995163,1.567717 -1.368741,1.720273 -3.237962,2.833786 -5.513751,3.284588 -0.841658,0.166722 -2.976879,0.148509 -3.802278,-0.0324 -0.358306,-0.07855 -0.68214,-0.142811 -0.719629,-0.142811 -0.06074,0 -0.218903,0.464008 -0.372045,1.091389 -0.05286,0.216601 -0.04179,0.223456 0.586558,0.363256 1.369885,0.30477 3.027027,0.329423 4.597604,0.0684 z m -8.786361,-7.269653 0.624614,-2.171877 0.992251,-0.04637 c 1.209165,-0.05653 1.671142,-0.228938 2.238375,-0.83536 0.570416,-0.609823 0.89262,-1.359353 0.89262,-2.07648 0,-0.622368 -0.105441,-0.847571 -0.553642,-1.18245 -0.217174,-0.162256 -0.336842,-0.170953 -2.353729,-0.170953 h -2.124927 l -0.230463,0.787705 c -0.126748,0.433234 -0.231278,0.814844 -0.232272,0.84802 -0.001,0.0332 0.675112,0.07049 1.502459,0.08291 1.33039,0.02001 1.514889,0.03944 1.596135,0.168422 0.06989,0.110946 0.06138,0.200179 -0.03557,0.373123 l -0.127425,0.2273 -1.605326,0.04148 -1.605332,0.04148 -0.620513,2.149898 c -0.61446,2.128922 -0.619138,2.152448 -0.479444,2.411848 0.181904,0.337774 1.377118,1.638506 1.445474,1.573087 0.02866,-0.0274 0.33316,-1.027183 0.676696,-2.221719 z m 6.395706,-1.550003 c 0.307678,-1.07169 0.582634,-2.051137 0.611007,-2.17655 l 0.05157,-0.228016 h -1.084494 c -0.596477,0 -1.084502,0.01166 -1.084502,0.026 0,0.02485 -1.116081,3.920331 -1.210752,4.225915 -0.04252,0.137131 0.03215,0.14592 1.056008,0.124373 l 1.101724,-0.02317 z m 4.591238,1.864786 c 0.271803,-0.06885 0.796728,-0.273266 1.166501,-0.454239 1.450169,-0.709726 2.519957,-2.365548 2.519957,-3.900402 0,-0.771889 -0.206327,-1.305473 -0.69298,-1.792127 -0.632909,-0.632907 -0.907957,-0.692981 -3.172651,-0.692981 h -1.845544 l -0.217309,0.725511 c -0.119518,0.399036 -0.235382,0.788143 -0.257471,0.864686 -0.03653,0.126639 0.120521,0.141565 1.744811,0.165831 l 1.784969,0.02668 0.270907,0.271262 c 0.244766,0.245087 0.270392,0.317092 0.265573,0.746246 -0.0091,0.809671 -0.569504,1.693542 -1.339477,2.112616 -0.359207,0.195506 -1.481322,0.455921 -1.572341,0.364903 -0.02808,-0.02808 0.267791,-1.129196 0.688458,-2.562219 0.03901,-0.132946 -0.04788,-0.145102 -1.037394,-0.145102 h -1.079982 l -0.164265,0.559674 c -0.09034,0.30783 -0.355029,1.231308 -0.588186,2.052174 -0.233158,0.82087 -0.443174,1.557784 -0.466702,1.637595 -0.0398,0.134993 0.08052,0.145101 1.728078,0.145101 1.305806,0 1.90064,-0.03288 2.265048,-0.1252 z m -3.429409,-5.927677 c 0.126613,-0.433233 0.231026,-0.815687 0.232022,-0.849889 0.001,-0.03423 -0.481668,-0.06218 -1.072586,-0.06218 h -1.074399 l -0.173823,0.601138 c -0.09561,0.330627 -0.209114,0.709321 -0.252256,0.841533 -0.04313,0.132214 -0.07843,0.254564 -0.07843,0.271886 0,0.0173 0.492584,0.0211 1.094633,0.0083 l 1.094634,-0.02312 z M 7,5 h 34 c 1.108,0 2,0.892 2,2 v 34 c 0,1.108 -0.892,2 -2,2 H 7 C 5.892,43 5,42.108 5,41 V 7 C 5,5.892 5.892,5 7,5 Z" />
</svg>
