<?xml version="1.0" encoding="UTF-8"?>
<svg version="1.1" viewBox="0 0 48 48" xmlns="http://www.w3.org/2000/svg">
    <path d="m15.061 5c-0.64676-0.0021292-1.302 0.062858-1.959 0.19141 0 1e-7 0.25444 10.506 7.4531 9.8203l-4.1406-7.0781 7.1992 7.4258c0-7.0869-4.0254-10.344-8.5527-10.359zm8.5527 10.359c7.5106 0.020316 8.7949-7.4375 8.7949-7.4375s-7.6523 0.12455-8.7949 7.4375z" fill="#fff"/>
    <path d="m27.599 28.473a5.1223 5.1223 0 0 0 1.8767 3.5203 5.1223 5.1223 0 0 0 7.2058-0.75735 5.1223 5.1223 0 0 0-0.75712-7.2035l-7.9631-6.4484a5.1223 5.1223 0 0 1 0.75736 7.2058 5.1223 5.1223 0 0 0-1.1196 3.6832z" fill="#fff"/>
    <path d="m24.704 32.776a5.1223 5.1223 0 0 0-3.5203 1.8767 5.1223 5.1223 0 0 0 0.75735 7.2058 5.1223 5.1223 0 0 0 7.2035-0.75712l6.4484-7.9631a5.1223 5.1223 0 0 1-7.2058 0.75735 5.1223 5.1223 0 0 0-3.6832-1.1196z" fill="#fff"/>
    <path d="m20.401 29.882a5.1223 5.1223 0 0 0-1.8767-3.5203 5.1223 5.1223 0 0 0-7.2057 0.75735 5.1223 5.1223 0 0 0 0.75712 7.2035l7.9631 6.4484a5.1223 5.1223 0 0 1-0.75735-7.2057 5.1223 5.1223 0 0 0 1.1196-3.6832z" fill="#fff"/>
    <path d="m23.296 25.579a5.1223 5.1223 0 0 0 3.5203-1.8767 5.1223 5.1223 0 0 0-0.75735-7.2058 5.1223 5.1223 0 0 0-7.2035 0.75712l-6.4484 7.9631a5.1223 5.1223 0 0 1 7.2057-0.75735 5.1223 5.1223 0 0 0 3.6832 1.1196z" fill="#fff"/>
</svg>
