<?xml version="1.0" encoding="UTF-8"?>
<svg version="1.1" viewBox="0 0 48 48" xmlns="http://www.w3.org/2000/svg">
    <path d="m35.219 5c-4.5792 0.09395-4.3556 2.7671-19.563 2.7671-5.1366 0-9.2718 4.1352-9.2718 9.2718v16.689c0 5.1366 4.1352 9.2718 9.2718 9.2718h16.689c5.1366 0 9.2718-4.1352 9.2718-9.2718l-0.1992-22.531c-8.37e-4 -3.4228-2.7759-6.1971-6.1987-6.1969zm0 3.4154a2.7815 2.7815 0 0 1 2.7815 2.7815 2.7815 2.7815 0 0 1-2.7815 2.7815 2.7815 2.7815 0 0 1-2.7815-2.7815 2.7815 2.7815 0 0 1 2.7815-2.7815zm-11.219 6.7692a10.199 10.199 0 0 1 10.199 10.199 10.199 10.199 0 0 1-10.199 10.199 10.199 10.199 0 0 1-10.199-10.199 10.199 10.199 0 0 1 10.199-10.199z" fill="#fff"/>
    <circle cx="24" cy="25.384" r="7.4175" fill="#fff"/>
</svg>
