<?xml version="1.0" encoding="utf-8"?>
<!-- Generator: Adobe Illustrator 25.2.0, SVG Export Plug-In . SVG Version: 6.00 Build 0)  -->
<svg version="1.1"
	 id="svg2" sodipodi:docname="pixiv.svg" xmlns:cc="http://creativecommons.org/ns#" xmlns:dc="http://purl.org/dc/elements/1.1/" xmlns:inkscape="http://www.inkscape.org/namespaces/inkscape" xmlns:rdf="http://www.w3.org/1999/02/22-rdf-syntax-ns#" xmlns:sodipodi="http://sodipodi.sourceforge.net/DTD/sodipodi-0.dtd" xmlns:svg="http://www.w3.org/2000/svg"
	 xmlns="http://www.w3.org/2000/svg" xmlns:xlink="http://www.w3.org/1999/xlink" x="0px" y="0px" viewBox="0 0 48 48"
	 style="enable-background:new 0 0 48 48;" xml:space="preserve">
<style type="text/css">
	.st0{fill:#FFFFFF;}
</style>
<sodipodi:namedview  bordercolor="#666666" borderopacity="1.0" id="base" inkscape:current-layer="layer1" inkscape:cx="16.080924" inkscape:cy="21.201845" inkscape:document-rotation="0" inkscape:document-units="px" inkscape:pagecheckerboard="true" inkscape:pageopacity="0.0" inkscape:pageshadow="2" inkscape:window-height="1006" inkscape:window-maximized="1" inkscape:window-width="1920" inkscape:window-x="0" inkscape:window-y="0" inkscape:zoom="15.612918" pagecolor="#ffffff" showborder="true" showgrid="false">
	</sodipodi:namedview>
<path class="st0" d="M42.7,15.1c-3.1-6.2-9.5-10-16.8-9.8C19,5.4,11.3,8.9,3.7,15.5c-0.1,0.1-0.2,0.3-0.1,0.5l2.2,4.8
	C5.9,20.9,6,21,6.1,21c0.1,0,0.2,0,0.3,0l1.2-0.7c0.1-0.1,0.2-0.2,0.2-0.4v-2.4c0.5-1,1.3-2.2,2.8-3.1v26.4H10c-0.1,0-0.2,0-0.3,0.1
	c-0.1,0.1-0.1,0.2-0.1,0.3l0,1c0,0.2,0.2,0.4,0.4,0.4h6.9c0.2,0,0.4-0.2,0.4-0.4v-1c0-0.2-0.2-0.4-0.4-0.4h-0.6v-6
	c16.1,3.5,22.8-1.5,25.4-4.8C44.9,26,45.3,20.3,42.7,15.1z M35.4,29c-2.2,2.4-7.6,5.8-19.1,2V11.1c3.3-1.6,6.4-2.3,9.2-2.3
	c0,0,0.1,0,0.1,0c5.2,0,9.5,2.8,11.5,7.4C39.1,20.7,38.4,25.8,35.4,29z"/>
</svg>
