<?xml version="1.0" encoding="UTF-8" standalone="no"?>
<svg
   xmlns:dc="http://purl.org/dc/elements/1.1/"
   xmlns:cc="http://creativecommons.org/ns#"
   xmlns:rdf="http://www.w3.org/1999/02/22-rdf-syntax-ns#"
   xmlns:svg="http://www.w3.org/2000/svg"
   xmlns="http://www.w3.org/2000/svg"
   xmlns:sodipodi="http://sodipodi.sourceforge.net/DTD/sodipodi-0.dtd"
   xmlns:inkscape="http://www.inkscape.org/namespaces/inkscape"
   width="48"
   height="48"
   viewBox="0 0 48 48"
   version="1.1"
   id="svg4516"
   sodipodi:docname="pixlr.svg"
   inkscape:version="0.92.1 r">
  <metadata
     id="metadata4522">
    <rdf:RDF>
      <cc:Work
         rdf:about="">
        <dc:format>image/svg+xml</dc:format>
        <dc:type
           rdf:resource="http://purl.org/dc/dcmitype/StillImage" />
        <dc:title></dc:title>
      </cc:Work>
    </rdf:RDF>
  </metadata>
  <defs
     id="defs4520" />
  <sodipodi:namedview
     pagecolor="#ffffff"
     bordercolor="#666666"
     borderopacity="1"
     objecttolerance="10"
     gridtolerance="10"
     guidetolerance="10"
     inkscape:pageopacity="0"
     inkscape:pageshadow="2"
     inkscape:window-width="640"
     inkscape:window-height="480"
     id="namedview4518"
     showgrid="false"
     inkscape:pagecheckerboard="true"
     inkscape:showpageshadow="false"
     inkscape:zoom="10.184211"
     inkscape:cx="8.5706695"
     inkscape:cy="19.930688"
     inkscape:current-layer="svg4516"
     inkscape:measure-start="0,0"
     inkscape:measure-end="0,0" />
  <path
     style="fill:#ffffff"
     d="M 7 5 C 5.892 5 5 5.892 5 7 L 5 41 C 5 42.108 5.892 43 7 43 L 41 43 C 42.108 43 43 42.108 43 41 L 43 7 C 43 5.892 42.108 5 41 5 L 7 5 z M 24 10.253906 A 13.746771 13.746771 0 0 1 37.746094 24 A 13.746771 13.746771 0 0 1 24 37.746094 A 13.746771 13.746771 0 0 1 10.253906 24 A 13.746771 13.746771 0 0 1 24 10.253906 z M 24 14.785156 A 9.2140512 9.2140512 0 0 0 14.785156 24 A 9.2140512 9.2140512 0 0 0 24 33.214844 A 9.2140512 9.2140512 0 0 0 33.214844 24 A 9.2140512 9.2140512 0 0 0 24 14.785156 z M 24 19.636719 L 27.777344 21.818359 L 27.777344 26.181641 L 24 28.363281 L 20.222656 26.181641 L 20.222656 21.818359 L 24 19.636719 z "
     id="rect5300" />
</svg>
