<svg xmlns="http://www.w3.org/2000/svg" viewBox="0 0 48 48"><defs><style>.a{fill:#fff;}</style></defs><path class="a" d="M44.17,30.81A1,1,0,0,0,43,30.73,16,16,0,0,1,25.38,4,1,1,0,0,0,24.83,2l-.28,0L24,2A22,22,0,1,0,44.48,32,1.06,1.06,0,0,0,44.17,30.81ZM13.29,37.47a7,7,0,1,1,7-6.95A7,7,0,0,1,13.29,37.47Z"/><path class="a" d="M14.51,29.73a1.4,1.4,0,0,0-.42-.42V25.92a.8.8,0,0,0-.8-.8.79.79,0,0,0-.79.8v3.39a1.43,1.43,0,0,0-.66,1.21,1.46,1.46,0,0,0,2.67.8H17.9a.79.79,0,0,0,.79-.8.79.79,0,0,0-.79-.79Z"/></svg>