<?xml version="1.0" encoding="utf-8"?>
<!-- Generator: Adobe Illustrator 21.1.0, SVG Export Plug-In . SVG Version: 6.00 Build 0)  -->
<svg version="1.0" id="Layer_1" xmlns="http://www.w3.org/2000/svg" xmlns:xlink="http://www.w3.org/1999/xlink" x="0px" y="0px"
	 viewBox="0 0 48 48" style="enable-background:new 0 0 48 48;" xml:space="preserve">
<style type="text/css">
	.st0{fill:#FFFFFF;}
</style>
<path class="st0" d="M41,5H7C5.9,5,5,5.9,5,7v34c0,1.1,0.9,2,2,2h34c1.1,0,2-0.9,2-2V7C43,5.9,42.1,5,41,5z M30.1,24.9
	c-1.6,2.6-3.3,5.1-4.9,7.6c-0.2,0.3-0.5,0.7-0.8,0.7c-1.6,0.1-3.1,0-4.9,0c0.3-0.5,0.4-0.9,0.6-1.2c1.4-2.2,2.9-4.5,4.3-6.7
	c0.5-0.7,0.5-1.3,0-2.1c-1.4-2.2-2.8-4.4-4.2-6.6c-0.2-0.4-0.4-0.7-0.8-1.4c1.8,0,3.4,0,5,0c0.3,0,0.6,0.3,0.7,0.6
	c1.7,2.6,3.4,5.1,5,7.7C30.3,24,30.3,24.6,30.1,24.9z"/>
</svg>
