<?xml version="1.0" encoding="utf-8"?>
<!-- Generator: Adobe Illustrator 21.1.0, SVG Export Plug-In . SVG Version: 6.00 Build 0)  -->
<svg version="1.0" id="Layer_1" xmlns="http://www.w3.org/2000/svg" xmlns:xlink="http://www.w3.org/1999/xlink" x="0px" y="0px"
	 viewBox="0 0 48 48" style="enable-background:new 0 0 48 48;" xml:space="preserve">
<style type="text/css">
	.st0{fill:#FFFFFF;}
</style>
<path class="st0" d="M43,13c1.7,2.6,2.7,5.5,2.9,8.5c0.7,9.2-2.7,16.4-10.6,21.3c-5.1,3.1-10.7,4-16.6,2.4
	c-7.2-1.9-12.4-6.3-15.1-13.2c-2.5-6.4-2.1-12.9,1.5-19c0.5-0.3,1.1-0.6,1.3,0.3c-0.7,1.2-1.2,2.4-1.5,3.7c-0.2,0.3-0.4,0.6-0.4,0.9
	c-1.8,6.6-0.8,12.8,3.2,18.4c0.6,0.9,1.2,1.9,2.3,2.3c0.3-0.5,0.2-1,0.2-1.4c0-3.3,0-6.5,0-9.8c0-1.6,0.1-1.7,1.7-1.7
	c7.8,0,15.6,0,23.4,0c0.9,0,2-0.5,2.6,0.4c0.7,1-0.4,1.8-0.9,2.7c-2.2,3.7-5.4,5.1-9.3,4.2c-0.8-0.2-1.3-0.5-1.6-1.3
	c-0.5-1.2-1.6-1.7-2.4-1.2c-0.9,0.6-1.4,1.4-1.1,2.4c0.3,1,1.2,1.5,2.3,1.3c0.6-0.1,1.1-0.1,1.7,0.1c2.3,0.9,4.5,0.9,6.7-0.1
	c1.4-0.6,2.5-1.6,3.5-2.7c0.3-0.3,0.6-0.9,1-0.7c0.5,0.2,0.3,0.9,0.3,1.3c0,1.8,0,3.6,0,5.3c0,0.4-0.2,0.8,0.2,1.1
	c0.4-0.1,0.6-0.3,0.8-0.6c4.2-4.8,6.2-10.3,5.3-16.7c-0.2-1.5-0.3-3-1.1-4.3c-0.2-1.2-0.9-2.1-1.3-3.2C41.9,13,42.1,12.5,43,13z
	 M14.8,4.5c0.8-0.2,0.8,0.2,0.6,0.8c1.9-0.5,3.7-1.2,5.7-1.6c4.1-0.7,7.8,0.1,11.6,1.7c0.4,0.2,0.8,0.3,1.1,0.5
	c-0.2-0.5-0.8-0.5-1-1.2c0.7-0.2,1.4,0.1,2,0.2C33.6,4,32.3,3.5,31,3c-3-1.1-6.1-1.1-9.2-0.9c-3,0.2-5.8,1.1-8.4,2.7
	C13.8,4.7,14.3,4.5,14.8,4.5z M10.2,6.9c-2,1.8-4,3.5-5.1,6.1c0.5-0.3,1.1-0.6,1.3,0.3c1-0.8,1.4-2,2.3-2.9c1.9-2.1,4.1-3.8,6.7-5.1
	c0.2-0.6,0.2-1-0.6-0.8c-0.5,0.1-0.9,0.2-1.4,0.3C12.2,5.3,11.2,6.1,10.2,6.9z M42,13.8c0-0.8,0.1-1.3,1-0.8
	c-1.8-3.6-4.8-6.2-8.2-8.2c-0.7-0.1-1.3-0.4-2-0.2c0.2,0.6,0.8,0.7,1,1.2C37.2,7.7,39.8,10.5,42,13.8z M33.5,14.5
	c-1.5-0.6-2.9-0.3-4.4,0.3c-3.8,1.5-7.6,1.2-11.3-0.7c-1.3-0.7-2.2,0.2-3.3,0.4c-0.9,0.6-1.4,1.5-2.2,2.3c-0.2,1-1.1,1.7-1.2,2.7
	c1.2-1.7,2.6-1.1,4.1-0.3c6,3,12.1,2.9,18.1,0c0.3-0.1,0.5-0.2,0.8-0.4c0.9-0.6,1.7-0.6,2.3,0.4c0.1,0.2,0.4,0.3,0.5,0.5
	c0-1.1-1-1.9-1.2-3C35,16,34.4,15.1,33.5,14.5z M19,17.6c0,0.8-0.6,1.3-1.4,1.3c-0.8,0-1.2-0.6-1.2-1.4c0-0.8,0.5-1.2,1.3-1.4
	C18.5,16.3,19.1,16.8,19,17.6z M30.4,18.9c-0.8,0-1.3-0.5-1.3-1.2c0-0.9,0.5-1.5,1.3-1.5c0.8-0.1,1.3,0.5,1.3,1.3
	C31.7,18.3,31.3,18.9,30.4,18.9z M32,13.1c-0.4-0.2-0.8-0.5-0.5-1.1c0.1-1,0.8-1.8,0.6-2.9c-0.7,0-0.8,0.6-1,1
	c-0.8,1.3-1.8,2-3.6,1.8c-2.4-0.3-4.9-0.1-7.3,0c-1.3,0.1-2.2-0.3-2.9-1.4c-0.5-0.8-0.9-1.7-1.9-2.3c0.3,1.1,0.5,2,0.7,2.9
	c0.6,1.1,0.4,2-0.8,2.7c-0.3,0.2-0.5,0.5-0.8,0.8c1.1-0.2,2-1,3.3-0.4c3.6,1.9,7.5,2.1,11.3,0.7c1.5-0.6,2.9-0.9,4.4-0.3
	C33.1,13.9,32.6,13.5,32,13.1z M33.3,8.7c0.3-0.6,0.4-1.4-0.3-1.7c-0.7-0.4-1,0.3-1.3,0.8c-0.5,0.9-1.1,1.8-1.5,2.7
	c-0.4,0.8-0.8,1.1-1.7,0.8c-2.9-0.9-5.9-0.9-8.8,0c-0.8,0.2-1.2,0-1.6-0.7c-0.5-1-1.1-2.1-1.7-3.1c-0.3-0.4-0.6-0.8-1.2-0.6
	c-0.6,0.3-0.7,0.8-0.5,1.4c0.3,0.9,0.8,1.8,1.4,2.6c-0.2-0.9-0.4-1.8-0.7-2.9c1,0.7,1.4,1.6,1.9,2.3c0.7,1.1,1.6,1.5,2.9,1.4
	c2.4-0.1,4.9-0.2,7.3,0c1.8,0.2,2.7-0.4,3.6-1.8c0.2-0.4,0.4-0.9,1-1c0.2,1.1-0.6,1.9-0.6,2.9C32.3,11,32.8,9.9,33.3,8.7z
	 M10.4,22.3c-0.1,1.6-0.1,1.6,1.5,1.6c5.2,0,10.4,0,15.5,0c3.1,0,6.1,0,9.2,0c0.9,0,1.4-0.2,1.2-1.3c-0.1-1-0.4-2-0.8-3
	c-0.2-0.2-0.4-0.3-0.5-0.5c-0.6-1.1-1.4-1-2.3-0.4c-0.2,0.2-0.5,0.3-0.8,0.4c-6,2.8-12.1,2.9-18.1,0c-1.6-0.8-2.9-1.4-4.1,0.3
	C10.9,20.4,10.5,21.3,10.4,22.3z M8.7,18.2c-0.2,0.2-0.5,0.4-0.7,0.5c-3.9,2-4.5,7.6-1,10.3c0.5,0.4,1,1,1.6,0.7
	c0.6-0.3,0.2-1.1,0.3-1.6c0-0.3,0-0.7,0-1c0-2.6-0.2-5.2,0.7-7.6C9.9,18.4,9.6,18.2,8.7,18.2C8.7,18.2,8.7,18.2,8.7,18.2z
	 M39.3,28.6c0,1,0.5,1.2,1.3,0.6c2.1-1.4,3-3.3,2.9-5.8c-0.2-2.4-1.5-4.1-3.7-5c-0.3-0.2-0.7-0.3-1,0c-0.3,0.3-0.2,0.6-0.1,0.9
	c0.6,2,0.7,4,0.6,6C39.3,26.5,39.3,27.6,39.3,28.6z"/>
</svg>
