<?xml version="1.0" encoding="UTF-8"?>
<svg viewBox="0 0 48 48" xmlns="http://www.w3.org/2000/svg">
  <path
     style="fill:#ffffff"
     d="M 7 5 C 5.892 5 5 5.892 5 7 L 5 41 C 5 42.108 5.892 43 7 43 L 41 43 C 42.108 43 43 42.108 43 41 L 43 7 C 43 5.892 42.108 5 41 5 L 7 5 z M 13.234375 6.640625 L 17.537109 6.640625 C 17.584139 6.640625 17.620563 7.8934985 17.648438 10.398438 C 19.667369 10.246887 21.24943 10.171875 22.388672 10.171875 L 20.960938 14.474609 C 20.668288 14.352672 20.139509 14.292969 19.373047 14.292969 C 18.925363 14.292969 18.350448 14.316251 17.648438 14.363281 C 17.648438 14.959032 17.63033 16.205465 17.59375 18.09375 L 13.289062 18.09375 L 13.373047 14.841797 C 11.092821 15.177996 9.3096375 15.53194 8.0292969 15.908203 L 9.4589844 11.603516 C 10.310803 11.305641 11.613667 11.048245 13.373047 10.833984 C 13.373047 9.8985514 13.326702 8.5010383 13.234375 6.640625 z M 40.271484 10.708984 L 38.84375 15.013672 C 38.5511 14.891734 38.034199 14.830078 37.285156 14.830078 C 35.274935 14.830078 32.699559 15.10104 29.560547 15.644531 C 28.21227 15.881438 26.997562 16.147437 25.914062 16.445312 L 27.345703 12.138672 C 28.58772 11.718859 30.672905 11.373309 33.597656 11.101562 C 36.393502 10.840269 38.61488 10.708984 40.271484 10.708984 z M 10.558594 24.691406 C 11.795386 24.691406 13.913721 26.731509 16.923828 30.816406 C 18.129264 29.248642 19.070003 27.588983 19.744141 25.841797 L 22.728516 28.435547 C 21.578822 30.848162 20.480512 32.838697 19.433594 34.408203 C 21.246975 37.109983 22.154297 38.766634 22.154297 39.371094 L 19.6875 41.839844 C 18.863552 40.371371 18.00432 38.917586 17.105469 37.480469 C 15.123118 39.68579 13.03276 41.073168 10.837891 41.644531 L 8.4257812 38.304688 C 10.519617 37.238608 12.558665 35.680513 14.541016 33.625 C 11.773041 29.510491 9.6628874 27.396641 8.203125 27.285156 L 10.558594 24.691406 z M 33.732422 26.865234 L 33.732422 26.867188 C 34.296817 26.867188 34.776661 27.068099 35.173828 27.46875 C 35.569253 27.8694 35.765625 28.349667 35.765625 28.914062 C 35.765625 29.525491 35.559752 30.029723 35.150391 30.419922 C 34.739289 30.811863 34.250839 31.005859 33.677734 31.005859 C 33.123791 31.005859 32.642205 30.800408 32.236328 30.394531 C 31.830452 29.988655 31.625 29.510764 31.625 28.955078 C 31.625 28.371522 31.830452 27.878533 32.236328 27.472656 C 32.642205 27.06678 33.140156 26.865234 33.732422 26.865234 z M 28.679688 32.041016 C 28.777237 32.041016 28.906991 32.049189 29.074219 32.068359 C 29.955651 32.151969 30.701072 32.191406 31.3125 32.191406 L 31.3125 32.193359 L 38.222656 32.193359 C 38.935118 32.193359 39.368403 32.183872 39.523438 32.169922 C 39.704602 32.142052 39.81799 32.128906 39.863281 32.128906 C 40.216899 32.128906 40.394531 32.309758 40.394531 32.673828 C 40.394531 32.874153 40.318679 33.227042 40.160156 33.730469 C 40.006864 34.233895 39.852512 34.639625 39.699219 34.9375 C 39.471022 35.366022 39.204125 35.582031 38.90625 35.582031 L 36.734375 35.388672 L 30.619141 35.388672 C 29.523448 35.388672 28.618078 35.416916 27.900391 35.472656 C 27.788905 35.481356 27.691722 35.482422 27.597656 35.482422 C 27.425202 35.482422 27.274492 35.430898 27.154297 35.328125 C 27.03236 35.220124 26.96875 35.095754 26.96875 34.951172 C 26.96875 34.797879 27.06683 34.437864 27.263672 33.876953 C 27.458771 33.317784 27.627588 32.91728 27.761719 32.669922 C 27.998626 32.25011 28.301682 32.041016 28.679688 32.041016 z M 33.732422 36.607422 C 34.296817 36.607422 34.776661 36.808333 35.173828 37.208984 C 35.569253 37.609635 35.765625 38.089902 35.765625 38.654297 C 35.765625 39.274434 35.559752 39.777981 35.150391 40.169922 C 34.739289 40.551411 34.250839 40.742188 33.677734 40.742188 C 33.123791 40.742188 32.642205 40.542595 32.236328 40.136719 C 31.830452 39.730842 31.625 39.250998 31.625 38.695312 C 31.625 38.111756 31.830452 37.618767 32.236328 37.212891 C 32.642205 36.807014 33.140156 36.607422 33.732422 36.607422 z " />
</svg>
