<?xml version="1.0" encoding="UTF-8" standalone="no"?>
<svg
   xmlns:dc="http://purl.org/dc/elements/1.1/"
   xmlns:cc="http://creativecommons.org/ns#"
   xmlns:rdf="http://www.w3.org/1999/02/22-rdf-syntax-ns#"
   xmlns:svg="http://www.w3.org/2000/svg"
   xmlns="http://www.w3.org/2000/svg"
   xmlns:sodipodi="http://sodipodi.sourceforge.net/DTD/sodipodi-0.dtd"
   xmlns:inkscape="http://www.inkscape.org/namespaces/inkscape"
   width="48"
   height="48"
   viewBox="0 0 48 48"
   id="svg2"
   version="1.1"
   inkscape:version="0.91 r13725"
   sodipodi:docname="pocket.svg">
  <metadata
     id="metadata10">
    <rdf:RDF>
      <cc:Work
         rdf:about="">
        <dc:format>image/svg+xml</dc:format>
        <dc:type
           rdf:resource="http://purl.org/dc/dcmitype/StillImage" />
      </cc:Work>
    </rdf:RDF>
  </metadata>
  <defs
     id="defs8" />
  <sodipodi:namedview
     pagecolor="#ffffff"
     bordercolor="#666666"
     borderopacity="1"
     objecttolerance="10"
     gridtolerance="10"
     guidetolerance="10"
     inkscape:pageopacity="0"
     inkscape:pageshadow="2"
     inkscape:window-width="1366"
     inkscape:window-height="715"
     id="namedview6"
     showgrid="false"
     inkscape:zoom="9.8333333"
     inkscape:cx="42.91196"
     inkscape:cy="23.794556"
     inkscape:window-x="0"
     inkscape:window-y="27"
     inkscape:window-maximized="1"
     inkscape:current-layer="svg2" />
  <path
     style="fill:#ffffff"
     d="M 24 2 A 22 22 0 0 0 2 24 A 22 22 0 0 0 24 46 A 22 22 0 0 0 46 24 A 22 22 0 0 0 24 2 z M 24 14.123047 C 35.196902 14.123047 35.715891 14.125289 35.886719 14.162109 C 36.653861 14.327542 37.234648 14.873407 37.474609 15.652344 L 37.525391 15.8125 L 37.53125 20.580078 C 37.53765 25.714101 37.539297 25.697909 37.427734 26.556641 C 36.732876 31.908308 32.927936 36.334505 27.742188 37.826172 C 26.457339 38.195753 24.988523 38.383312 23.646484 38.347656 C 20.163535 38.255116 16.88154 36.843294 14.421875 34.380859 C 12.295953 32.252541 10.958986 29.535077 10.572266 26.556641 C 10.460769 25.697909 10.461996 25.714101 10.46875 20.580078 L 10.474609 15.8125 L 10.523438 15.652344 C 10.763397 14.873407 11.346139 14.327542 12.113281 14.162109 C 12.284113 14.125269 12.803095 14.123047 24 14.123047 z M 17.304688 20.939453 C 16.743294 20.913813 16.301576 21.101029 15.882812 21.539062 C 15.560453 21.876257 15.421875 22.219997 15.421875 22.6875 C 15.421875 23.06387 15.52417 23.390139 15.742188 23.707031 C 15.791657 23.778951 17.322094 25.32121 19.375 27.371094 C 22.716432 30.707609 22.928207 30.917313 23.074219 30.992188 C 23.421228 31.170127 23.647155 31.219449 24.052734 31.208984 C 24.276855 31.203184 24.392567 31.19031 24.509766 31.15625 C 24.595866 31.13122 24.73588 31.077067 24.820312 31.035156 C 24.966631 30.962526 25.142989 30.78804 28.599609 27.330078 C 32.165885 23.762412 32.227286 23.699473 32.3125 23.53125 C 32.448772 23.262243 32.49191 23.098599 32.503906 22.804688 C 32.515886 22.511412 32.489217 22.348297 32.384766 22.078125 C 32.290786 21.835087 32.170263 21.657487 31.935547 21.423828 C 31.606273 21.096037 31.29114 20.958181 30.832031 20.939453 C 30.447816 20.923773 30.107112 21.014877 29.794922 21.214844 C 29.69235 21.280544 28.9186 22.040903 26.841797 24.115234 C 25.044613 25.910278 24.015695 26.922754 23.994141 26.917969 C 23.975581 26.913869 22.687508 25.65396 21.132812 24.119141 C 19.578118 22.584322 18.25748 21.291498 18.197266 21.246094 C 17.938263 21.050791 17.659152 20.955642 17.304688 20.939453 z "
     id="circle4" />
</svg>
