<svg viewBox="0 0 48 48" xmlns="http://www.w3.org/2000/svg">
    <path d="m 23.999519,4.3066691 c 18.201546,0 19.045219,0.00358 19.323192,0.063495 1.247043,0.2689186 2.191111,1.1562705 2.581248,2.4224297 l 0.08255,0.2603518 0.0096,7.7500844 c 0.0104,8.345695 0.013,8.31936 -0.168279,9.715403 -1.129546,8.699582 -7.314756,15.894695 -15.744493,18.320214 -2.088537,0.600779 -4.476342,0.905672 -6.657861,0.847704 C 17.763753,43.53592 12.428621,41.240838 8.4301977,37.238026 4.9743909,33.778317 2.8009991,29.360821 2.1723898,24.519213 1.9911384,23.123284 1.9931378,23.149602 2.0041104,14.80381 L 2.0137004,7.0537258 2.0930774,6.793374 C 2.4831507,5.5271497 3.4304374,4.6398141 4.6774149,4.3709443 4.9551116,4.3110581 5.7987518,4.3074494 24.000608,4.3074494 Z M 13.115816,15.387229 c -0.912581,-0.04168 -1.630613,0.26266 -2.311403,0.97471 -0.52402,0.548143 -0.749292,1.106918 -0.749292,1.866808 0,0.611818 0.166296,1.142193 0.520688,1.657273 0.08042,0.116911 2.568243,2.624 5.905383,5.956264 5.431692,5.423726 5.775988,5.764609 6.013322,5.886364 0.56409,0.289255 0.931356,0.369428 1.590656,0.352424 0.364324,-0.0094 0.552419,-0.03035 0.742936,-0.08572 0.139962,-0.04069 0.367558,-0.128713 0.504822,-0.196841 0.237854,-0.118065 0.52454,-0.401712 6.14353,-6.022912 5.797283,-5.799559 5.897093,-5.901808 6.035592,-6.175229 0.221517,-0.437296 0.291644,-0.703304 0.311151,-1.181077 0.01947,-0.476748 -0.02388,-0.741895 -0.193671,-1.181077 -0.152771,-0.395079 -0.348685,-0.683781 -0.73024,-1.063612 -0.535253,-0.532847 -1.047536,-0.756949 -1.79382,-0.787396 -0.624578,-0.02549 -1.178411,0.122601 -1.685883,0.447667 -0.166735,0.1068 -1.424522,1.342821 -4.800481,4.714814 -2.921481,2.917904 -4.594033,4.563797 -4.629146,4.555995 -0.03017,-0.0067 -2.123974,-2.054725 -4.651253,-4.549656 -2.52728,-2.49493 -4.674012,-4.596471 -4.771871,-4.670272 -0.421024,-0.317475 -0.874738,-0.472148 -1.450955,-0.498466 z" fill="#fff"/>
</svg>
