<?xml version="1.0" encoding="UTF-8"?>
<svg version="1.1" viewBox="0 0 48 48" xmlns="http://www.w3.org/2000/svg">
    <defs>
        <style>.cls-1{fill:#fff;}</style>
    </defs>
    <path class="cls-1" d="m23.333 4.9772c-4.8635 0.13965-9.6594 2.0925-13.21 5.8922-1.363 1.4594-2.7398 3.4506-3.5262 5.2919-0.81476 1.9036-1.5695 4.5424-1.5941 6.6161-0.049128 4.2477 0.42853 7.4392 2.6838 11.154 1.7354 2.8583 4.1949 5.2268 7.1458 6.8053v-16.635c0.02095-4.4821 3.0853-8.2382 7.454-9.1192l-0.08374 3.0302c-5.4221 2.3654-4.781 8.4913-2.0547 10.441 2.7262 1.9494 7.2299 2.2454 9.7176-2.803l3.1151-0.03784c-2.5823 7.7743-9.3614 8.8879-14.873 5.2374 0.01102 3.6229-0.08117 7.4921-0.05192 11.115 6.2543 2.0308 11.51 1.0473 16.814-2.1743v3.2135h8.1295v-19.659c-0.47432-10.108-7.4061-18.389-19.667-18.368zm0.5751 4.568c8.1835 0.00671 14.548 6.3711 14.554 14.556h-3.2135c-0.13612-6.2402-5.0587-11.286-11.34-11.343zm0 5.2944c5.2799 0.04742 9.2148 3.9822 9.2621 9.2621h-3.2135c-0.22368-3.7281-2.0809-6.0965-6.0486-6.0486zm0.07836 5.3992c2.0459 1.51e-4 3.7041 1.6594 3.7028 3.7053-1.52e-4 2.0449-1.6579 3.7027-3.7028 3.7028-2.0449-1.52e-4 -3.7027-1.6579-3.7028-3.7028-0.0012-2.0459 1.6569-3.7052 3.7028-3.7053z"/>
</svg>
