<?xml version="1.0" encoding="UTF-8" standalone="no"?>
<svg width="48" height="48" viewBox="0 0 48 48" version="1.1" >
    <defs>
        <style>.cls-1{fill:#fff;}</style>
    </defs>
    <path
        class="cls-1"
        d="m 23.333241,4.9771884 c -4.863513,0.1396536 -9.659387,2.0925129 -13.20955,5.8922106 -1.3629781,1.459382 -2.7398401,3.450644 -3.5262471,5.291892 -0.814759,1.903629 -1.5695499,4.542358 -1.5941248,6.616124 -0.049128,4.247716 0.4285336,7.439213 2.6837808,11.153835 1.735379,2.858279 4.1949181,5.226828 7.1458181,6.805301 V 24.10165 c 0.02095,-4.482124 3.085328,-8.238236 7.454044,-9.119166 l -0.08374,3.03021 c -5.422083,2.365447 -4.780953,8.491254 -2.054702,10.440658 2.72625,1.949403 7.229946,2.245352 9.717602,-2.802979 l 3.115103,-0.03784 c -2.582259,7.774316 -9.361415,8.887909 -14.873303,5.237449 0.01102,3.622895 -0.08117,7.492124 -0.05192,11.114948 6.254268,2.03078 11.510041,1.04729 16.814463,-2.174265 V 43.00414 H 43 V 23.34494 C 42.525683,13.23672 35.593866,4.955568 23.333241,4.9771884 Z m 0.575095,4.5679774 C 32.091849,9.5518758 38.456631,15.91623 38.462299,24.10165 H 35.248825 C 35.112705,17.861448 30.19012,12.815365 23.908336,12.758641 Z m 0,5.2944122 c 5.279884,0.04742 9.214815,3.982202 9.262072,9.262072 h -3.213475 c -0.223676,-3.728067 -2.080861,-6.096458 -6.048597,-6.048597 z m 0.07836,5.399213 c 2.045929,1.51e-4 3.704053,1.659406 3.70281,3.705334 -1.52e-4,2.044943 -1.657868,3.702658 -3.70281,3.70281 -2.044942,-1.52e-4 -3.702658,-1.657867 -3.70281,-3.70281 -0.0012,-2.045928 1.656882,-3.705183 3.70281,-3.705334 z"
     id="podcastaddict" />
</svg>
