<svg xmlns="http://www.w3.org/2000/svg" viewBox="0 0 48 48"><defs><style>.cls-1{fill:#2b2b2b;}.cls-2{fill:#fff;}</style></defs><title>podomtre</title><g id="Layer_2" data-name="Layer 2"><rect class="cls-1" x="-112.04" y="-187.44" width="674.7" height="426.15"/><rect class="cls-1" x="-56.69" y="-187.44" width="674.7" height="426.15"/><rect class="cls-1" x="-112.04" y="-134.04" width="674.7" height="426.15"/><rect class="cls-1" x="-56.69" y="-134.04" width="674.7" height="426.15"/><rect class="cls-1" x="-112.04" y="-242.5" width="674.7" height="426.15"/><rect class="cls-1" x="-56.69" y="-242.5" width="674.7" height="426.15"/><rect class="cls-1" x="-111.2" y="-189.59" width="674.7" height="426.15"/></g><g id="Layer_1" data-name="Layer 1"><path class="cls-2" d="M24,2A22,22,0,1,0,46,24,22,22,0,0,0,24,2Zm1.8,24L25,33.92c.12,0,.22,0,.25,0s1.32,2.35,2.78,2.72,4,1.36,3.79,2.23c-.28,1.06-2.42,2-6.72,1s-5.89-.88-5.81-1.76,1.09-3.81,1.65-3.7a7,7,0,0,0,.92.11l.85-8.71a13.19,13.19,0,0,1-5.84-4.1c-.12.19-.21.32-.27.31-.23,0-2.61-.72-3.9.05s-3.64,1.76-4.25,1.1S8.77,20,12.54,17.7s4.78-3.54,5.34-2.86,1.93,3.47,1.46,3.79a6.62,6.62,0,0,0-.61.47,12.35,12.35,0,0,0,4.32,3.57L24.32,9.62a1.52,1.52,0,0,1,1.52-1.38c4.73,0,9.54,4.67,9.54,9.26C35.38,20.76,32,25.39,25.8,26Z"/><path class="cls-2" d="M27.21,11.51l-1.1,11.34c4.08-.65,6.2-3.66,6.2-5.35C32.31,15,29.82,12.28,27.21,11.51Z"/></g></svg>