<?xml version="1.0" encoding="UTF-8" standalone="no"?>
<svg width="48" height="48" viewBox="0 0 48 48" version="1.1" >
    <defs>
        <style>.cls-1{fill:#fff;}</style>
    </defs>
    <path
        class="cls-1"
        d="M 6,8 C 4.892,8 4,8.892 4,10 v 28 c 0,1.108 0.892,2 2,2 h 36 c 1.108,0 2,-0.892 2,-2 V 10 C 44,8.892 43.108,8 42,8 Z M 7.0117188,9.390625 H 40.988281 c 0.554,0 1,0.4460005 1,1 v 19.556641 c 0,0.554 -0.446,0.999436 -1,1 l -5.598588,0.0057 c -0.892002,9.08e-4 -0.892002,0.789221 -0.892002,0.789221 l 0.01734,2.197302 c 0.0044,0.553983 -0.420012,1 -0.974012,1 h -1.432618 c -1.455211,-0.03864 -1.443616,-0.03136 -1.432617,1.333985 v 1.333984 c 0,0.554001 -0.446,1 -1,1 H 18.45703 c -0.554,0 -1,-0.445999 -1,-1 v -1.333984 c -0.03848,-1.325416 -0.04585,-1.333985 -1.414063,-1.333985 h -1.414062 c -0.554,0 -1,-0.446 -1,-1 v -1.496094 c 0,-1.500065 0.01873,-1.468838 -1.191638,-1.473809 L 7.0117188,30.94727 c -0.5539954,-0.0023 -1,-0.446 -1,-1 V 10.390625 c 0,-0.5539995 0.4459999,-1 1,-1 z m 4.6875002,0.949219 c -0.277,0 -0.5,0.223 -0.5,0.5 v 4 c 0,0.277 0.223,0.5 0.5,0.5 h 1 c 0.277,0 0.5,-0.223 0.5,-0.5 v -4 c 0,-0.277 -0.223,-0.5 -0.5,-0.5 z m 3.380859,0 c -0.277,0 -0.5,0.223 -0.5,0.5 v 4 c 0,0.277 0.223,0.5 0.5,0.5 h 1 c 0.277,0 0.5,-0.223 0.5,-0.5 v -4 c 0,-0.277 -0.223,-0.5 -0.5,-0.5 z m 3.376953,0 c -0.277,0 -0.5,0.223 -0.5,0.5 v 4 c 0,0.277 0.223,0.5 0.5,0.5 h 1 c 0.277,0 0.5,-0.223 0.5,-0.5 v -4 c 0,-0.277 -0.223,-0.5 -0.5,-0.5 z m 3.376953,0 c -0.277,0 -0.5,0.223 -0.5,0.5 v 4 c 0,0.277 0.223,0.5 0.5,0.5 h 1 c 0.277,0 0.5,-0.223 0.5,-0.5 v -4 c 0,-0.277 -0.223,-0.5 -0.5,-0.5 z m 3.376954,0 c -0.277001,0 -0.5,0.223 -0.5,0.5 v 4 c 0,0.277 0.222999,0.5 0.5,0.5 h 1 c 0.277,0 0.5,-0.223 0.5,-0.5 v -4 c 0,-0.277 -0.223,-0.5 -0.5,-0.5 z m 3.376953,0 c -0.277,0 -0.5,0.223 -0.5,0.5 v 4 c 0,0.277 0.223,0.5 0.5,0.5 h 1 c 0.277,0 0.5,-0.223 0.5,-0.5 v -4 c 0,-0.277 -0.223,-0.5 -0.5,-0.5 z m 3.376953,0 c -0.277,0 -0.5,0.223 -0.5,0.5 v 4 c 0,0.277 0.223,0.5 0.5,0.5 h 1 c 0.277,0 0.5,-0.223 0.5,-0.5 v -4 c 0,-0.277 -0.223,-0.5 -0.5,-0.5 z m 3.376953,0 c -0.277,0 -0.5,0.223 -0.5,0.5 v 4 c 0,0.277 0.223,0.5 0.5,0.5 h 1 c 0.277001,0 0.5,-0.223 0.5,-0.5 v -4 c 0,-0.277 -0.222999,-0.5 -0.5,-0.5 z"
     id="rect10013" />
</svg>
