<?xml version="1.0" encoding="UTF-8" standalone="no"?>
<svg
   width="48"
   height="48"
   viewBox="0 0 12.7 12.7"
   version="1.1"
   id="svg5"
   xmlns="http://www.w3.org/2000/svg"
   xmlns:svg="http://www.w3.org/2000/svg">
  <defs
     id="defs2">
    <style
       id="style909">.cls-1{fill:#fff;}</style>
    <style
       id="style952">.cls-1{fill:#fff;}</style>
  </defs>
  <path
     id="path2771"
     style="fill:#ffffff;stroke-width:0.432084"
     d="m 5.8033872,2.5667425 c -1.5362769,-2.316e-4 -2.7818323,1.2111931 -2.7819238,2.705705 2.7e-6,0.054495 0.013733,0.1053023 0.017039,0.1590084 C 2.8669559,5.0691262 2.7374706,4.6362735 2.6731832,4.1121101 2.5947343,3.4725289 2.5470293,3.2080199 2.5470293,3.2080199 L 1.5522661,3.3946191 c 0,0 0.041856,1.555346 0.6912101,2.7884946 0.667724,1.268012 1.9669858,2.2142385 3.6820727,2.2142385 3.3830132,0 4.4529981,-2.2611121 4.6058781,-2.5545874 0.515878,-0.9903103 0.616307,-2.2247507 0.616307,-2.2247507 L 9.9913374,3.29869 8.9663491,3.0056496 c 0,0 0.028608,0.00304 -0.053885,0.5926517 -0.01653,0.1172536 9.028e-4,1.0030377 -0.3469196,1.8633772 0.00457,-0.063675 0.019579,-0.1244 0.019835,-0.1892183 C 8.5852858,3.7779482 7.3397354,2.5665237 5.803456,2.5667552 Z m 0,0.8751825 C 6.8425777,3.4420368 7.6849945,4.2615089 7.6851624,5.2724475 7.6849945,6.2833859 6.8425801,7.1028582 5.8033872,7.1029727 4.764197,7.1028582 3.9217826,6.2833859 3.9216147,5.2724475 3.9217852,4.2615115 4.7641996,3.4420368 5.8033872,3.441925 Z M 3.1423588,8.7639794 1.7310305,10.133258 H 3.0727133 L 4.4485627,8.7639794 Z m 1.7648212,0 -1.4113308,1.3692786 H 4.8362199 L 6.2120694,8.7639794 Z m 1.5808465,0 1.3758519,1.3692786 H 9.2042466 L 7.7929158,8.7639794 Z m 1.7635064,0 1.3771643,1.3692786 H 10.969068 L 9.5577371,8.7639794 Z" />
</svg>
