<?xml version="1.0" encoding="UTF-8" standalone="no"?>
<!-- Generator: Adobe Illustrator 23.0.1, SVG Export Plug-In . SVG Version: 6.00 Build 0)  -->

<svg
   xmlns:ns="&amp;ns_sfw;"
   xmlns:dc="http://purl.org/dc/elements/1.1/"
   xmlns:cc="http://creativecommons.org/ns#"
   xmlns:rdf="http://www.w3.org/1999/02/22-rdf-syntax-ns#"
   xmlns:svg="http://www.w3.org/2000/svg"
   xmlns="http://www.w3.org/2000/svg"
   xmlns:sodipodi="http://sodipodi.sourceforge.net/DTD/sodipodi-0.dtd"
   xmlns:inkscape="http://www.inkscape.org/namespaces/inkscape"
   version="1.1"
   id="Livello_1"
   x="0px"
   y="0px"
   viewBox="0 0 48 48"
   enable-background="new 0 0 1881.25 1750"
   xml:space="preserve"
   sodipodi:docname="powerpoint.svg"
   width="48"
   height="48"
   inkscape:version="0.92.2 (5c3e80d, 2017-08-06)"><defs
     id="defs34" /><sodipodi:namedview
     pagecolor="#ffffff"
     bordercolor="#666666"
     borderopacity="1"
     objecttolerance="10"
     gridtolerance="10"
     guidetolerance="10"
     inkscape:pageopacity="0"
     inkscape:pageshadow="2"
     inkscape:window-width="1366"
     inkscape:window-height="745"
     id="namedview32"
     showgrid="false"
     inkscape:zoom="8.6308571"
     inkscape:cx="9.8343569"
     inkscape:cy="18.994981"
     inkscape:window-x="-8"
     inkscape:window-y="-8"
     inkscape:window-maximized="1"
     inkscape:current-layer="Livello_1" /><metadata
     id="metadata2"><ns:sfw><ns:slices /><ns:sliceSourceBounds
         bottomLeftOrigin="true"
         height="1750"
         width="1881.25"
         x="-938.5"
         y="-851" /></ns:sfw><rdf:RDF><cc:Work
         rdf:about=""><dc:format>image/svg+xml</dc:format><dc:type
           rdf:resource="http://purl.org/dc/dcmitype/StillImage" /><dc:title></dc:title></cc:Work></rdf:RDF></metadata><linearGradient
     id="SVGID_1_"
     gradientUnits="userSpaceOnUse"
     x1="167.2057"
     y1="1420.9117"
     x2="795.29431"
     y2="333.08829"
     gradientTransform="matrix(1,0,0,-1,0,1752)"><stop
       offset="0"
       style="stop-color:#2368C4"
       id="stop20" /><stop
       offset="0.5"
       style="stop-color:#1A5DBE"
       id="stop22" /><stop
       offset="1"
       style="stop-color:#1146AC"
       id="stop24" /></linearGradient><path
     inkscape:connector-curvature="0"
     style="opacity:1;fill:#ffffff;fill-opacity:1;stroke:none;stroke-width:0.94488192;stroke-linejoin:bevel;stroke-miterlimit:4;stroke-dasharray:none;stroke-opacity:1"
     d="M 26.423822,4.4248048 A 19.575,19.575 0 0 0 11.613279,11.217765 h 13.259763 c 1.03448,0.003 1.87164,0.84248 1.875,1.87696 v 21.83008 c -0.003,1.03447 -0.84052,1.87164 -1.875,1.875 H 11.644529 a 19.575,19.575 0 0 0 14.779293,6.77539 19.575,19.575 0 0 0 19.57618,-19.57422 A 19.575,19.575 0 0 0 26.423822,4.4248048 Z M 3.863279,12.237305 c -1.03262,0 -1.863281,0.83261 -1.863281,1.86523 v 18.79102 c 0,1.03262 0.830661,1.86328 1.863281,1.86328 h 18.791013 c 1.03262,0 1.86524,-0.83066 1.86524,-1.86328 v -18.79102 c 0,-1.03262 -0.83262,-1.86523 -1.86524,-1.86523 z m 4.869141,5.20117 h 4.695312 c 1.408921,0 2.486255,0.32285 3.234375,0.9707 0.748115,0.64788 1.123045,1.58639 1.123045,2.81445 a 3.996378,3.996378 0 0 1 -0.55469,2.10352 3.7507401,3.7507401 0 0 1 -1.578121,1.43359 5.2422361,5.2422361 0 0 1 -2.373047,0.51172 h -2.24414 v 4.2832 H 8.73242 Z m 2.302734,1.875 0.002,4.10742 h 1.980469 a 2.5291338,2.5291338 0 0 0 1.75,-0.53516 2.0094488,2.0094488 0 0 0 0.591797,-1.56836 c 0,-1.33525 -0.756889,-2.0039 -2.269532,-2.0039 z"
     id="circle1557" /></svg>