<svg xmlns="http://www.w3.org/2000/svg" viewBox="0 0 48 48"><defs><style>.cls-1{fill:#fff;}</style></defs><g id="Layer_1" data-name="Layer 1"><path class="cls-1" d="M26,4a19.93,19.93,0,0,0-15.73,7.68H23.11a3,3,0,0,1,3,3h0V34.3a3,3,0,0,1-3,3h-12A20,20,0,1,0,26,4Z"/><path class="cls-1" d="M22.65,13.26H3.9A1.88,1.88,0,0,0,2,15.12V33.89a1.88,1.88,0,0,0,1.88,1.88H22.65a1.88,1.88,0,0,0,1.88-1.88h0V15.14A1.88,1.88,0,0,0,22.65,13.26Zm-5.5,11.08a3.76,3.76,0,0,1-1.58,1.43,5.3,5.3,0,0,1-2.38.52H11v4.28H8.65V18.45h4.69a4.83,4.83,0,0,1,3.24,1,3.52,3.52,0,0,1,1.12,2.82A4.16,4.16,0,0,1,17.15,24.34Z"/><path class="cls-1" d="M13,20.33H11v4.11h2a2.57,2.57,0,0,0,1.75-.54,2,2,0,0,0,.59-1.57C15.27,21,14.52,20.33,13,20.33Z"/></g></svg>