<svg xmlns="http://www.w3.org/2000/svg" viewBox="0 0 48 48"><defs><style>.cls-1{fill:#fff;}</style></defs><g id="Layer_1" data-name="Layer 1"><path class="cls-1" d="M41,10.7a20,20,0,0,0-30.71,1H23.11a3,3,0,0,1,3,3V34.3a3,3,0,0,1-3,3h-12A20,20,0,1,0,41,10.7Z"/><path class="cls-1" d="M13.43,20.2H10.87v4.18h2.5a2.47,2.47,0,0,0,1.7-.52,1.92,1.92,0,0,0,.59-1.51,2.08,2.08,0,0,0-.6-1.56A2.3,2.3,0,0,0,13.43,20.2Z"/><path class="cls-1" d="M24.53,33.89V15.14a1.88,1.88,0,0,0-1.88-1.88H3.9A1.88,1.88,0,0,0,2,15.12V33.89a1.88,1.88,0,0,0,1.88,1.88H22.65A1.88,1.88,0,0,0,24.53,33.89Zm-7.94-8.81a4.83,4.83,0,0,1-3.24,1H10.87v4.46H8.78v-12h4.59a4.65,4.65,0,0,1,3.2,1,3.57,3.57,0,0,1,1.18,2.78A3.4,3.4,0,0,1,16.59,25.08Z"/></g></svg>