<?xml version="1.0" encoding="utf-8"?>
<!-- Generator: Adobe Illustrator 21.1.0, SVG Export Plug-In . SVG Version: 6.00 Build 0)  -->
<svg version="1.0" id="Layer_1" xmlns="http://www.w3.org/2000/svg" xmlns:xlink="http://www.w3.org/1999/xlink" x="0px" y="0px"
	 viewBox="0 0 48 48" style="enable-background:new 0 0 48 48;" xml:space="preserve">
<style type="text/css">
	.st0{fill:#FFFFFF;}
</style>
<path class="st0" d="M41,5H7C5.9,5,5,5.9,5,7v34c0,1.1,0.9,2,2,2h34c1.1,0,2-0.9,2-2V7C43,5.9,42.1,5,41,5z M16.9,12
	c2.8-0.6,5.6-1.2,8.4-1.9c0.3-0.1,0.5,0,0.5,0.3c0.4,2.2,0.9,4.4,1.3,6.7c0,0.1,0,0.1,0,0.2c0,0.2-0.1,0.4-0.2,0.5
	c-1,1.7-2,3.3-2.9,5c-0.2,0.3-0.3,0.3-0.6,0.1c-1.7-1-3.3-2-5-3c-0.3-0.2-0.4-0.4-0.5-0.7c-0.5-2.2-1-4.4-1.5-6.6
	C16.4,12.2,16.5,12.1,16.9,12z M19.2,30c-2.3,0.5-4.5,1-6.8,1.5c0,0-0.1,0-0.1,0C12,31.6,12,31.3,12,31.2c-0.6-2.5-1.1-4.9-1.7-7.4
	c-0.1-0.4-0.2-0.8-0.3-1.2c-0.1-0.2,0-0.3,0.2-0.4c2.3-0.5,4.5-1.1,6.8-1.6c0.2,0,0.4,0,0.5,0.1c1.8,1.1,3.5,2.1,5.3,3.2
	c0.3,0.2,0.3,0.3,0.1,0.6c-1.1,1.7-2.2,3.4-3.3,5.1C19.6,29.8,19.4,30,19.2,30z M31,36.1c-2.8,0.6-5.5,1.2-8.3,1.8
	c-0.3,0.1-0.5,0-0.5-0.3c-0.5-2.2-1-4.5-1.4-6.7c0-0.1,0-0.1,0-0.2c0-0.2,0.1-0.3,0.2-0.5c1-1.7,2-3.3,3-5c0.2-0.3,0.3-0.3,0.6-0.1
	c1.7,1.1,3.4,2.2,5.2,3.2c0.3,0.2,0.4,0.4,0.5,0.7c0.4,2.1,0.9,4.3,1.3,6.4C31.5,35.8,31.5,36,31,36.1z M37.7,25.8
	c-2.2,0.5-4.4,1-6.5,1.5c-0.1,0-0.1,0-0.1,0c-0.2,0-0.4-0.1-0.5-0.1c-1.7-1.1-3.5-2.1-5.2-3.2c-0.3-0.2-0.4-0.3-0.2-0.6
	c1.1-1.7,2.2-3.4,3.2-5.1c0.2-0.2,0.3-0.4,0.6-0.4c2.2-0.4,4.3-0.9,6.5-1.3c0.3-0.1,0.5,0,0.5,0.3c0.6,2.8,1.2,5.6,1.9,8.4
	C38,25.6,38,25.8,37.7,25.8z"/>
</svg>
