<?xml version="1.0" encoding="UTF-8"?>
<svg version="1.1" viewBox="0 0 48 48" xmlns="http://www.w3.org/2000/svg">
    <path d="m43 41.56c-0.02999-0.03105-0.04136-0.0698-0.07422-0.09961-1.1541-1.0472-1.8459-1.7503-2.2539-2.2852-0.40804-0.5349-0.53205-0.90086-0.55078-1.2715-0.01874-0.37062 0.0682-0.74648 0.08203-1.3008 0.01383-0.55431-0.04511-1.2871-0.35547-2.373-0.17735-0.62057-0.47342-0.9127-0.82422-1.0215-0.3508-0.10879-0.7565-0.03491-1.1523 0.07617-0.39584 0.11108-0.78322 0.2598-1.0957 0.29883s-0.54967-0.03053-0.65039-0.35547c-0.2855-0.9211-0.8735-1.69-1.2735-2.3398v-6.4201l-0.59158-3c-0.35169-1.7835 0.59158 0 0.59158-6.0271l-1.8125-6.7089-1.8125 6.709c0 6.027 0.944 4.2384 0.59141 6.027l-0.59141 3s0.07155 1.9126 0 3.1448c-0.67015-0.25977-1.4354-0.42183-1.8515-0.58594-0.41614-0.16411-0.65601-0.33086-0.625-0.60156 0.04096-0.35751-0.03652-0.66459-0.17969-0.89453-0.14316-0.22994-0.35218-0.38157-0.57617-0.42969s-0.46255 0.0074-0.66406 0.19531c-0.20151 0.18796-0.36568 0.50804-0.44141 0.98633-0.06934 0.43792-0.33132 0.73457-0.70703 0.96484s-0.86578 0.39451-1.3926 0.56641c-0.5268 0.1719-1.0907 0.35049-1.6133 0.61328-0.52261 0.26279-1.004 0.60837-1.3672 1.1113-0.58625 0.81196-1.2158 1.8514-1.9395 2.6738-0.36181 0.4112-0.74702 0.76842-1.1621 1.0156-0.41509 0.2472-0.85885 0.38529-1.3398 0.35742-0.32708-0.01895-0.57553 0.03603-0.77148 0.14844-0.19596 0.1124-0.34033 0.28137-0.45898 0.48828-0.2373 0.41382-0.37405 0.98007-0.625 1.5508s-0.61546 1.1473-1.3105 1.5801c-0.34755 0.21638-0.77906 0.39682-1.3184 0.52344-0.5393 0.12662-1.7132 0.19922-2.4981 0.19922l-0.017603-6.2539-0.79717-5.9588c0.81477 0 0.205-6.686 0.205-6.686 0.60977-3.6596 0.60977-3.6596 0.59217-6.027-0.47614-2.2209-0.74161-4.5853-1.8125-6.7089-0.8643 2.2006-1.8145 6.709-1.8145 6.709 0 2.3137 0 2.3673 0.59387 6.0269 0 0-0.59387 6.686 0.203 6.686l-0.79687 5.9589v6.2538c-0.34757 0-1.3345-0.02725-1.7403-0.05849v3.543z" fill="#fff"/>
</svg>
