<?xml version="1.0" encoding="UTF-8" standalone="no"?>
<svg
   xmlns:dc="http://purl.org/dc/elements/1.1/"
   xmlns:cc="http://creativecommons.org/ns#"
   xmlns:rdf="http://www.w3.org/1999/02/22-rdf-syntax-ns#"
   xmlns:svg="http://www.w3.org/2000/svg"
   xmlns="http://www.w3.org/2000/svg"
   width="48"
   height="48"
   viewBox="0 0 12.7 12.7"
   version="1.1"
   id="svg8">
  <defs
     id="defs2" />
  <metadata
     id="metadata5">
    <rdf:RDF>
      <cc:Work
         rdf:about="">
        <dc:format>image/svg+xml</dc:format>
        <dc:type
           rdf:resource="http://purl.org/dc/dcmitype/StillImage" />
        <dc:title></dc:title>
      </cc:Work>
    </rdf:RDF>
  </metadata>
  <g
     id="layer1"
     style="display:inline">
    <path
       style="opacity:1;fill:#ffffff;stroke-width:0.0286372"
       d="m 6.6943057,11.929374 c -0.039376,-0.007 -0.2197906,-0.03296 -0.4009211,-0.05756 -1.0702753,-0.162963 -2.3029512,-0.377162 -2.319615,-0.52633 -0.030045,-0.268954 1.3029387,-0.495534 2.5916687,-0.200534 1.0371957,0.237422 1.618911,0.263715 2.0824682,0.133865 0.202737,-0.05679 0.3569255,-0.09498 0.4309583,-0.06252 0.1459602,0.064 -0.1758185,0.329125 -0.7568764,0.531331 -0.4331196,0.150722 -1.2884217,0.242524 -1.6276827,0.181751 z M 2.6963385,10.759769 C 2.6336295,10.596352 3.3304602,10.159424 3.9336663,9.9839375 4.7205459,9.7550152 5.88905,9.6879446 7.3668146,9.7868784 9.0152115,9.8972362 9.7304258,9.7178203 10.616726,8.9716185 11.303143,8.3937048 11.525305,8.3048217 11.362296,8.6733289 11.122334,9.2158029 10.356058,9.8644856 9.5941067,10.17017 8.7146306,10.523004 7.8696555,10.606501 5.62041,10.562841 c -1.7223944,-0.03344 -2.1230619,-0.0079 -2.6367775,0.168143 -0.2353676,0.08065 -0.2662057,0.08374 -0.287294,0.02879 z M 1.7591577,9.80825 C 1.5657056,9.7801266 1.3602127,9.6399378 1.3064193,9.4526988 1.2198023,9.15121 1.3336302,8.826701 1.6295319,8.731829 1.8913072,8.6478987 5.854344,7.5253405 6.0262,7.4758518 6.4612458,7.3505734 6.7280759,7.5992107 6.7814126,7.8642623 6.8381037,8.1459833 6.8036346,8.4424469 6.3836187,8.5500029 6.1300001,8.6149487 5.3805114,8.8246314 4.1468641,9.1824082 1.8380882,9.8519889 1.9312354,9.8332663 1.7591577,9.80825 Z M 1.645707,8.4510609 C 1.4116297,8.3534296 1.9945469,6.3660447 2.5816595,5.7281012 3.9109898,4.6678608 5.7720442,3.8604821 7.4582942,3.8988406 7.2513329,4.687293 7.2011433,5.3774697 7.2008691,6.1029823 5.0612177,6.3799422 3.3354448,7.1222513 1.9858691,8.2202605 1.7372683,8.4277704 1.7305253,8.4864377 1.645707,8.4510609 Z M 2.9923871,4.9824715 C 2.9607441,4.9000114 3.0020806,4.8273112 3.2738897,4.4863877 4.6067038,2.8146694 6.3161291,1.4563562 8.2959324,0.49586148 9.0168341,0.14611839 9.1766558,0.13757752 8.9264109,0.49529496 8.3122253,1.3732547 7.9230796,2.2348825 7.55289,3.5307134 5.8339678,3.6094007 4.4322331,4.126298 3.3489625,4.8977789 3.1319285,5.0523457 3.0232271,5.0628396 2.9923871,4.9824715 Z"
       id="path1001" />
  </g>
</svg>
