<?xml version="1.0" encoding="UTF-8"?>
<svg version="1.1" viewBox="0 0 48 48" xmlns="http://www.w3.org/2000/svg">
    <path d="m29.975 7.9752a16.025 16.025 0 0 0-16.025 16.025 16.025 16.025 0 0 0 16.025 16.025 16.025 16.025 0 0 0 16.025-16.025 16.025 16.025 0 0 0-16.025-16.025zm0 3.642a12.383 12.383 0 0 1 12.383 12.383 12.383 12.383 0 0 1-12.383 12.383 12.383 12.383 0 0 1-12.383-12.383 12.383 12.383 0 0 1 12.383-12.383z" fill="#fff" style="paint-order:stroke markers fill"/>
    <path d="m13.95 8.5158a16.025 16.025 0 0 0-11.95 15.479 16.025 16.025 0 0 0 11.95 15.49v-3.8127a12.383 12.383 0 0 1-8.3083-11.677 12.383 12.383 0 0 1 8.3083-11.677z" fill="#fff" style="paint-order:stroke markers fill"/>
</svg>
