<svg height="48" viewBox="0 0 12.7 12.7" width="48" xmlns="http://www.w3.org/2000/svg"><path d="m6.35.52916633a5.8208333 5.8208333 0 0 0 -5.82083333 5.82083397 5.8208333 5.8208333 0 0 0 5.82083333 5.8208327 5.8208333 5.8208333 0 0 0 5.820834-5.8208327 5.8208333 5.8208333 0 0 0 -5.820834-5.82083397zm-2.2510252 1.66036397h4.5020509c.240731 0 .434599.193352.434599.434082v6.804236c0 .24073-.193868.434599-.434599.434599h-3.9051882l-1.0314618.6480217v-7.8868567c0-.24073.1938677-.434082.4345991-.434082zm-.1302248.317293v4.39198h4.7624997v-4.39198zm.4232299 4.947502v.396875h3.8364583v-.396875zm0 .661458v.396875h3.8364583v-.396875zm0 .714685v.396875h1.8520833v-.396875z" fill="#fff" stroke-width=".264583"/></svg>