<svg width="48" height="48" version="1.1" viewBox="0 0 48 48" xmlns="http://www.w3.org/2000/svg">
  <path d="m9.639 3.606c-1.736 0-3.135 1.399-3.135 3.135v33.73c0 1.736 1.399 3.135 3.135 3.135h17.13a10.02 10.02 0 0 1-4.27-8.189 10.02 10.02 0 0 1 10.02-10.02 10.02 10.02 0 0 1 5.984 1.996v-8.486h-9.418c-2.09 0-3.702-0.6862-4.719-1.934s-1.42-2.958-1.42-4.93v-8.441zm14.69 0v8.441c0 1.781 0.3751 3.158 1.109 4.059s1.845 1.424 3.648 1.424h9.303l-13.92-13.92zm-12.38 15.88h0.9062v0.7969h-0.916c-0.3438 0-0.5833 0.06814-0.7188 0.207-0.1319 0.1389-0.1973 0.3889-0.1973 0.75v0.5156h1.578v0.7461h-1.578v5.088h-0.9648v-5.088h-0.916v-0.7461h0.916v-0.4062c-0-0.6493 0.151-1.121 0.4531-1.416 0.3021-0.2986 0.7812-0.4473 1.438-0.4473zm1.5 0.6133h0.9648v1.656h1.973v0.7461h-1.973v3.166c0 0.4757 0.06293 0.7806 0.1914 0.916 0.1319 0.1354 0.3976 0.2031 0.7969 0.2031h0.9844v0.8027h-0.9844c-0.7396 0-1.25-0.1378-1.531-0.4121-0.2813-0.2778-0.4219-0.7806-0.4219-1.51v-3.166h-0.7031v-0.7461h0.7031zm6.996 1.516c0.7083 0 1.282 0.2812 1.723 0.8438 0.4444 0.5625 0.668 1.302 0.668 2.219 0 0.9167-0.2235 1.656-0.668 2.219-0.441 0.5625-1.014 0.8438-1.723 0.8438-0.4271 0-0.7964-0.08333-1.105-0.25-0.3056-0.1701-0.5584-0.4282-0.7598-0.7754v3.094h-0.9629v-8.053h0.9629v0.8867c0.2014-0.3472 0.4542-0.6048 0.7598-0.7715 0.309-0.1701 0.6784-0.2559 1.105-0.2559zm-0.2344 0.8027c-0.5069 0-0.9076 0.2007-1.199 0.6035-0.2882 0.3993-0.4316 0.9514-0.4316 1.656 0 0.7049 0.1434 1.259 0.4316 1.662 0.2917 0.3993 0.6923 0.5996 1.199 0.5996s0.9032-0.2003 1.191-0.5996c0.2917-0.4028 0.4375-0.9572 0.4375-1.662-0 -0.7049-0.1458-1.257-0.4375-1.656-0.2882-0.4028-0.6845-0.6035-1.191-0.6035zm12.31 4.021a8.976 8.976 0 0 0-0.7539 0.03711 8.976 8.976 0 0 0-0.4648 0.05664 8.976 8.976 0 0 0-0.4375 0.06641 8.976 8.976 0 0 0-0.4531 0.1016 8.976 8.976 0 0 0-0.3965 0.1016 8.976 8.976 0 0 0-0.4941 0.1641 8.976 8.976 0 0 0-0.3574 0.1309 8.976 8.976 0 0 0-0.4219 0.1875 8.976 8.976 0 0 0-0.418 0.2031 8.976 8.976 0 0 0-0.3652 0.209 8.976 8.976 0 0 0-0.3906 0.2402 8.976 8.976 0 0 0-0.3691 0.2637 8.976 8.976 0 0 0-0.3574 0.2695 8.976 8.976 0 0 0-0.3359 0.2969 8.976 8.976 0 0 0-0.3281 0.3047 8.976 8.976 0 0 0-0.3047 0.3281 8.976 8.976 0 0 0-0.2969 0.3359 8.976 8.976 0 0 0-0.2695 0.3574 8.976 8.976 0 0 0-0.2637 0.3691 8.976 8.976 0 0 0-0.2402 0.3906 8.976 8.976 0 0 0-0.209 0.3633 8.976 8.976 0 0 0-0.2246 0.4668 8.976 8.976 0 0 0-0.1523 0.3379 8.976 8.976 0 0 0-0.168 0.459 8.976 8.976 0 0 0-0.1387 0.418 8.976 8.976 0 0 0-0.1055 0.418 8.976 8.976 0 0 0-0.09961 0.4414 8.976 8.976 0 0 0-0.06641 0.4395 8.976 8.976 0 0 0-0.05664 0.4648 8.976 8.976 0 0 0-0.03711 0.7539 8.976 8.976 0 0 0 0.03711 0.7539 8.976 8.976 0 0 0 0.05664 0.4648 8.976 8.976 0 0 0 0.06641 0.4395 8.976 8.976 0 0 0 0.09375 0.418 8.976 8.976 0 0 0 0.1191 0.4629 8.976 8.976 0 0 0 0.1133 0.3438 8.976 8.976 0 0 0 0.1973 0.5352 8.976 8.976 0 0 0 0.1094 0.2461 8.976 8.976 0 0 0 0.2793 0.5762 8.976 8.976 0 0 0 0.1211 0.209 8.976 8.976 0 0 0 0.3398 0.5547 8.976 8.976 0 0 0 0.1445 0.2012 8.976 8.976 0 0 0 0.3945 0.5195 8.976 8.976 0 0 0 0.1543 0.1777 8.976 8.976 0 0 0 0.4629 0.4941 8.976 8.976 0 0 0 0.1387 0.1289 8.976 8.976 0 0 0 0.5293 0.4648 8.976 8.976 0 0 0 0.1543 0.1172 8.976 8.976 0 0 0 0.5957 0.4219 8.976 8.976 0 0 0 0.08789 0.05469 8.976 8.976 0 0 0 0.6914 0.3965 8.976 8.976 0 0 0 0.4297 0.207 8.976 8.976 0 0 0 0 0 8.976 8.976 0 0 0 3.658 0.7871 8.976 8.976 0 0 0 8.977-8.977 8.976 8.976 0 0 0-2.992-6.678 8.976 8.976 0 0 0-0.6582-0.5352 8.976 8.976 0 0 0-0.06055-0.04492 8.976 8.976 0 0 0-0.6367-0.4199 8.976 8.976 0 0 0-0.1348-0.08203 8.976 8.976 0 0 0-0.6484-0.3379 8.976 8.976 0 0 0-0.1504-0.07422 8.976 8.976 0 0 0-0.6328-0.2539 8.976 8.976 0 0 0-0.2324-0.08398 8.976 8.976 0 0 0-0.5605-0.1621 8.976 8.976 0 0 0-0.3242-0.08398 8.976 8.976 0 0 0-0.5332-0.09766 8.976 8.976 0 0 0-0.3594-0.05469 8.976 8.976 0 0 0-0.4863-0.03906 8.976 8.976 0 0 0-0.5664-0.0293zm2.465 3.082c2.482 4.3 2.531 7.648 0.0332 11.97l-1.396-1.051c2.04-3.534 2.059-6.507 0.09766-9.904zm-2.703 2.057c1.6 2.772 1.517 5.202-0.0098 7.846l-1.254-0.9082c0.9231-1.599 1.54-3.32-0.03516-6.049zm-2.715 2.008c0.9578 1.526 0.9837 2.374 0 3.836l-2.559-1.977z" fill="#fff"/>
</svg>
