<?xml version="1.0" encoding="UTF-8"?>
<svg version="1.1" viewBox="0 0 48 48" xmlns="http://www.w3.org/2000/svg">
    <path d="m9.75 5.75a4 4 0 0 0-4 4 4 4 0 0 0 1.75 3.3047v21.893a4 4 0 0 0-1.75 3.3027 4 4 0 0 0 4 4 4 4 0 0 0 3.3047-1.75h21.893a4 4 0 0 0 3.3027 1.75 4 4 0 0 0 4-4 4 4 0 0 0-1.75-3.3047v-21.893a4 4 0 0 0 1.75-3.3027 4 4 0 0 0-4-4 4 4 0 0 0-3.3047 1.75h-21.893a4 4 0 0 0-3.3027-1.75zm3.3047 6.25h21.893a4 4 0 0 0 1.0527 1.0547v21.893a4 4 0 0 0-1.0547 1.0527h-21.893a4 4 0 0 0-1.0527-1.0547v-21.893a4 4 0 0 0 1.0547-1.0527z" fill="#fff"/>
</svg>
