<?xml version="1.0" encoding="utf-8"?>
<!-- Generator: Adobe Illustrator 21.1.0, SVG Export Plug-In . SVG Version: 6.00 Build 0)  -->
<svg version="1.1" id="Layer_1" xmlns="http://www.w3.org/2000/svg" xmlns:xlink="http://www.w3.org/1999/xlink" x="0px" y="0px"
	 viewBox="0 0 48 48" style="enable-background:new 0 0 48 48;" xml:space="preserve">
<style type="text/css">
	.st0{fill:#FFFFFF;}
</style>
<g>
	<path class="st0" d="M40,42.6c-0.2,0.9-1,1.6-2,1.6H10c-1.1,0-2-0.9-2-2v-13C13,32,18,35.3,23,38.1c0.4,0.2,1.3,0.4,2.1,0
		c5.4-2.8,10.8-6.6,14.9-8.9C40,29.2,40,40.4,40,42.6z"/>
	<path class="st0" d="M40,17c-0.4-4.3-5-11-13.1-12.5c-0.8-0.1-1.9-0.2-3-0.2c-1,0-2,0.1-2.8,0.2C13.9,6,8.6,12.7,8.2,16.9
		c-0.1,0.7-0.1,1.6-0.2,2.5v7.1c0.1,0.2,0.3,0.4,0.7,0.7c0,0,9.2,6,12.8,8.2c1,0.6,2.5,1.9,5.1,0.2c1-0.6,12.9-8.5,12.9-8.5
		c0.4-0.3,0.4-0.6,0.4-0.6S40.1,18.2,40,17z M33.1,22.1H14.9v-5.2c0-0.2,0-0.4,0.1-0.6c2.4-5.3,8.9-5.6,8.9-5.6
		c1.1-0.1,2.6,0.3,2.6,0.3c5.7,1.6,6.3,5,6.5,5.9c0,0.1,0,0.3,0,0.4V22.1z"/>
</g>
</svg>
