<?xml version="1.0" encoding="utf-8"?>
<!-- Generator: Adobe Illustrator 21.1.0, SVG Export Plug-In . SVG Version: 6.00 Build 0)  -->
<svg version="1.1" id="Layer_1" xmlns="http://www.w3.org/2000/svg" xmlns:xlink="http://www.w3.org/1999/xlink" x="0px" y="0px"
	 viewBox="0 0 256 256" style="enable-background:new 0 0 256 256;" xml:space="preserve">
<style type="text/css">
	.st0{fill:#FFFFFF;}
</style>
<title>ICEcon1</title>
<path class="st0" d="M128,229.4c-27.5,0-55.1,0-82.6,0c-12.2,0-18.1-5.8-18.1-17.8c0-54.4,0-108.8,0-163.2c0-15.1,5.8-20.8,21-20.8
	h160.6c14.4,0,20.4,5.8,20.4,20.1c0,54.8,0,109.7,0,164.5c0,11.1-6.1,17.1-17.4,17.2C184,229.4,156,229.4,128,229.4z M83,134
	c0,0,24.6,19.9,37,27c7,4,11,4,19-1c16-10,35-25,35-26c0-4.2,1-39,0-44c-4-27-37-27-46-27c-14,0-42,2.7-45,27C82,98,83,128,83,134z
	 M83,142c0,4-0.6,29.9-0.1,43.4c0.1,2,1.1,5.6,6.5,5.5c26,0.4,52,0.4,77.9,0c3.4,0,6.3-2.5,6.7-5.9c0.5-14.1,0-27.2,0-42.6
	c-11.9,8.4-22.7,16.1-33.5,23.7c-9.2,6.4-15.1,6.4-24.4,0C105.4,158.6,93.8,149.7,83,142z"/>
<path class="st0" d="M153.2,119h-49.8c0.6-12-1.3-23.5,9.6-31c9-6.2,21-6,29-1C154.4,94.1,153,109,153.2,119z"/>
</svg>
