<svg xmlns:rdf="http://www.w3.org/1999/02/22-rdf-syntax-ns#" xmlns="http://www.w3.org/2000/svg" height="48" width="48" version="1.1" y="0px" x="0px" xmlns:cc="http://creativecommons.org/ns#" viewBox="0 0 48 48" xmlns:dc="http://purl.org/dc/elements/1.1/">
 <path fill="#fff" d="m7 5c-1.11 0-2 0.89-2 2v34c0 1.1 0.89 2 2 2h34c1.1 0 2-0.9 2-2v-34c0-1.11-0.9-2-2-2h-34zm16 6.8h2c2.3 0 7.5 1.2 7.5 5.2v8s-5.5 4.1-6.5 4.8c-1 0.6-3 0.5-4 0-1-0.6-6.5-4.8-6.5-4.8v-8c0-4 4.9-5.2 7.5-5.2zm1 3.7c-1 0-3.1 0.5-4 2s-0.6 2.2-0.8 4.5h9.6c-0.1-1.9 0.1-3-0.8-4.5s-3-2-4-2zm-8.5 11c2 1.4 4.7 3.5 6.2 4.5 1.4 1 3.2 1 4.6 0 1.5-1 4-2.9 6.2-4.5v8.2c0 0.5-0.5 1-1 1h-15c-0.5 0-1-0.5-1-1v-8.2z"/>
</svg>
