<?xml version="1.0" encoding="UTF-8" standalone="no"?>
<svg
   xmlns:dc="http://purl.org/dc/elements/1.1/"
   xmlns:cc="http://creativecommons.org/ns#"
   xmlns:rdf="http://www.w3.org/1999/02/22-rdf-syntax-ns#"
   xmlns:svg="http://www.w3.org/2000/svg"
   xmlns="http://www.w3.org/2000/svg"
   xmlns:sodipodi="http://sodipodi.sourceforge.net/DTD/sodipodi-0.dtd"
   xmlns:inkscape="http://www.inkscape.org/namespaces/inkscape"
   width="48"
   height="48"
   viewBox="0 0 48 48"
   version="1.1"
   id="svg4"
   sodipodi:docname="pubtran.svg"
   inkscape:version="0.92.3 (2405546, 2018-03-11)">
  <metadata
     id="metadata10">
    <rdf:RDF>
      <cc:Work
         rdf:about="">
        <dc:format>image/svg+xml</dc:format>
        <dc:type
           rdf:resource="http://purl.org/dc/dcmitype/StillImage" />
        <dc:title></dc:title>
      </cc:Work>
    </rdf:RDF>
  </metadata>
  <defs
     id="defs8" />
  <sodipodi:namedview
     pagecolor="#ffffff"
     bordercolor="#666666"
     borderopacity="1"
     objecttolerance="10"
     gridtolerance="10"
     guidetolerance="10"
     inkscape:pageopacity="0"
     inkscape:pageshadow="2"
     inkscape:window-width="1600"
     inkscape:window-height="849"
     id="namedview6"
     showgrid="false"
     inkscape:zoom="13.906433"
     inkscape:cx="25.225011"
     inkscape:cy="23.506494"
     inkscape:window-x="0"
     inkscape:window-y="25"
     inkscape:window-maximized="1"
     inkscape:current-layer="svg4" />
  <g
     id="Bus"
     transform="matrix(0.07497457,0,0,0.07497457,5.8666178,5.7887191)"
     style="fill:#ffffff">
    
    <path
   id="rect819"
   style="fill:#ffffff"
   d="m 380.9516,95.958456 c -4.208,-21.045 -17.678,-29.463 -37.882,-37.882 -19.918,-8.299 -67.648,-18.229 -102.872,-18.507 -35.222,0.279 -82.951,10.208 -102.87,18.507 -20.204,8.418 -33.673,16.836 -37.882003,37.882 -10.757784,-5.533872 -20.837373,28.606724 -3.789119,29.176624 l -11.362881,87.49538 v 160.766 H 110.3896 v 25.211 c 0,30.739 44.984,30.739 44.984,0 v -25.211 h 83.048 0.263 86.341 v 25.211 c 0,30.739 44.983,30.739 44.983,0 v -25.211 h 26.096 v -160.766 L 384.92241,126.5321 c 18.00498,-0.69647 11.25581,-37.337334 -3.97081,-30.573644 z M 132.8996,322.99846 c -11.918,0 -21.58,-9.662 -21.58,-21.58 0,-11.918 9.662,-21.579 21.58,-21.579 11.918,0 21.58,9.661 21.58,21.579 0,11.918 -9.662,21.58 -21.58,21.58 z m 106.74311,-121.09074 -99.11318,0.95911 c -11.20547,0.10844 -18.62848,-9.12647 -17.52848,-17.23747 l 0.56455,-61.4859 c 1.62,-10.281 5.105,-17.059 18.444,-17.059 h 96.521 99.857 c 13.34,0 16.824,6.778 18.443,17.059 l 0.28563,62.56137 c 1.1,8.111 -4.12384,16.26722 -15.32934,16.162 z M 347.4976,322.99846 c -11.918,0 -21.579,-9.662 -21.579,-21.58 0,-11.918 9.661,-21.579 21.579,-21.579 11.918,0 21.579,9.661 21.579,21.579 0,11.918 -9.661,21.58 -21.579,21.58 z M 535.29326,242.89944 A 293.43283,293.43283 0 0 1 241.86044,536.33226 293.43283,293.43283 0 0 1 -51.57239,242.89944 293.43283,293.43283 0 0 1 241.86044,-50.533389 293.43283,293.43283 0 0 1 535.29326,242.89944 Z" />
 
</g>
</svg>
