<?xml version="1.0" encoding="UTF-8"?>
<svg version="1.1" viewBox="0 0 48 48" xmlns="http://www.w3.org/2000/svg">
  <path
     style="fill:#ffffff;stroke-width:0.07393325"
     d="M 33.968712,13.226308 C 33.6576,11.670383 32.66172,11.048012 31.167971,10.425569 29.695369,9.8119958 26.166535,9.0778385 23.56231,9.0572858 c -2.604077,0.020629 -6.132838,0.75471 -7.605514,1.3682832 -1.493746,0.622369 -2.489555,1.244741 -2.80074,2.800739 -0.795358,-0.409138 -1.540575,2.114989 -0.28014,2.157123 l -0.840096,6.468817 v 11.885956 h 1.929361 v 1.863929 c 0,2.272635 3.325815,2.272635 3.325815,0 v -1.863929 h 6.140008 0.01944 6.383471 v 1.863929 c 0,2.272635 3.325741,2.272635 3.325741,0 V 33.738204 H 35.08902 V 21.852248 l -0.826732,-6.365531 c 1.331167,-0.05149 0.832178,-2.76047 -0.293574,-2.260409 z M 15.629421,30.012115 c -0.881138,0 -1.595482,-0.714344 -1.595482,-1.59548 0,-0.881137 0.714344,-1.595405 1.595482,-1.595405 0.881136,0 1.595479,0.714268 1.595479,1.595405 0,0.881136 -0.714343,1.59548 -1.595479,1.59548 z m 7.891864,-8.952634 -7.32776,0.07092 c -0.828456,0.0081 -1.377264,-0.674749 -1.295937,-1.274423 l 0.04174,-4.545852 c 0.119771,-0.760109 0.37743,-1.261228 1.363625,-1.261228 h 7.136113 7.382751 c 0.986271,0 1.243854,0.501119 1.363553,1.261228 l 0.02112,4.625365 c 0.08132,0.599672 -0.304889,1.202689 -1.133349,1.19491 z m 7.974064,8.952634 c -0.881137,0 -1.595407,-0.714344 -1.595407,-1.59548 0,-0.881137 0.71427,-1.595405 1.595407,-1.595405 0.881136,0 1.595406,0.714268 1.595406,1.595405 0,0.881136 -0.71427,1.59548 -1.595406,1.59548 z M 45.379693,24.090133 A 21.694444,21.694444 0 0 1 23.68525,45.784577 21.694444,21.694444 0 0 1 1.9908056,24.090133 21.694444,21.694444 0 0 1 23.68525,2.3956887 21.694444,21.694444 0 0 1 45.379693,24.090133 Z"
  />
</svg>
