<svg height="48" viewBox="0 0 12.7 12.7" width="48" xmlns="http://www.w3.org/2000/svg"><path d="m1.8520834 1.3229163c-.2931584 0-.5291667.236007-.5291667.529167v8.9958327c0 .29316.2360083.529167.5291667.529167h8.9958336c.293158 0 .529167-.236007.529167-.529167v-7.6134887h-1.031979v.714169h-1.5875003v-.714169h-2.354895v2.340943h.728121v1.588017h-1.5880165v-1.525489-.06253h.7276042v-2.340941h-3.0292725v6.297291h5.5164588v-.72037-.06046h1.5880173v1.5880167h-1.5880173v-.6748957h-5.5164588-.1322917v-6.561873h.1322917 5.5164588v-.74104h1.5875003v.74104h1.031979v-1.250053c0-.29316-.236009-.529167-.529167-.529167zm7.6331253 3.406511h.132292v3.280937h-.132292zm-3.8194048.968933v1.343587h1.3420368v-1.343587zm3.2147908 3.173966v1.3435877h1.3420373v-1.3435877z" fill="#fff" stroke-width=".264583"/></svg>