<?xml version="1.0" encoding="utf-8"?>
<!-- Generator: Adobe Illustrator 21.1.0, SVG Export Plug-In . SVG Version: 6.00 Build 0)  -->
<svg version="1.0" id="Layer_1" xmlns="http://www.w3.org/2000/svg" xmlns:xlink="http://www.w3.org/1999/xlink" x="0px" y="0px"
	 viewBox="0 0 48 48" style="enable-background:new 0 0 48 48;" xml:space="preserve">
<style type="text/css">
	.st0{fill:#FFFFFF;}
</style>
<g>
	<path class="st0" d="M35.4,20.5c-6.1,0-12.2,0-18.2,0c-1.6,0-3.1,0-4.7,0c-1.5,0-2.6,0.9-3,2.3c-0.1,0.5-0.1,1.1-0.1,1.6
		c0,1.9,1.3,3.2,3.1,3.2c3.8,0,7.7,0,11.5,0c0.9,0,1.9,0,2.8,0c2.9,0,5.7,0,8.6,0c1.6,0,2.8-1,3.1-2.6c0.1-0.4,0-0.8,0-1.2
		C38.6,21.8,37.3,20.5,35.4,20.5z M16.2,25c-0.1,0.2-0.3,0.4-0.4,0.6c-0.4-0.3-0.8-0.5-1.2-0.8c0,0.4,0,0.9,0,1.3
		c-0.3,0-0.5,0-0.8,0c0-0.4,0-0.8,0-1.3c-0.4,0.3-0.8,0.5-1.2,0.8c-0.1-0.2-0.3-0.4-0.4-0.6c0.4-0.3,0.9-0.5,1.3-0.8
		c-0.4-0.3-0.9-0.5-1.3-0.8c0.1-0.2,0.3-0.4,0.4-0.6c0.4,0.3,0.8,0.5,1.2,0.8c0-0.4,0-0.8,0-1.2c0.3,0,0.5,0,0.8,0
		c0,0.4,0,0.8,0,1.3c0.4-0.3,0.8-0.5,1.2-0.8c0.1,0.2,0.3,0.4,0.4,0.6c-0.4,0.3-0.9,0.5-1.3,0.8C15.4,24.5,15.8,24.7,16.2,25z
		 M20.9,25.6c-0.4-0.3-0.8-0.5-1.2-0.8c0,0.4,0,0.9,0,1.3c-0.3,0-0.5,0-0.8,0c0-0.4,0-0.8,0-1.3c-0.4,0.3-0.8,0.5-1.2,0.8
		c-0.1-0.2-0.3-0.4-0.4-0.6c0.4-0.3,0.9-0.5,1.3-0.8c-0.5-0.3-0.9-0.5-1.3-0.8c0.1-0.2,0.3-0.4,0.4-0.6c0.4,0.3,0.7,0.5,1.2,0.8
		c0-0.4,0-0.8,0-1.2c0.3,0,0.5,0,0.8,0c0,0.4,0,0.8,0,1.3c0.4-0.3,0.8-0.5,1.2-0.8c0.1,0.2,0.3,0.4,0.4,0.6
		c-0.4,0.3-0.9,0.5-1.3,0.8c0.5,0.3,0.9,0.5,1.3,0.8C21.1,25.2,21,25.4,20.9,25.6z M25.9,25.6c-0.4-0.3-0.8-0.5-1.2-0.8
		c0,0.4,0,0.9,0,1.3c-0.3,0-0.5,0-0.8,0c0-0.4,0-0.8,0-1.3c-0.4,0.3-0.8,0.5-1.2,0.8c-0.1-0.2-0.3-0.4-0.4-0.6
		c0.4-0.3,0.9-0.5,1.3-0.8c-0.5-0.3-0.9-0.5-1.3-0.8c0.1-0.2,0.3-0.4,0.4-0.6c0.4,0.3,0.7,0.5,1.2,0.8c0-0.4,0-0.8,0-1.2
		c0.3,0,0.5,0,0.8,0c0,0.4,0,0.8,0,1.3c0.4-0.3,0.8-0.5,1.2-0.8c0.1,0.2,0.3,0.4,0.4,0.6c-0.4,0.3-0.9,0.5-1.3,0.8
		c0.5,0.3,0.9,0.5,1.3,0.8C26.2,25.2,26,25.4,25.9,25.6z M31.1,25.6c-0.4-0.3-0.8-0.5-1.2-0.8c0,0.5,0,0.9,0,1.3c-0.2,0-0.5,0-0.7,0
		c0-0.4,0-0.8,0-1.3c-0.4,0.3-0.8,0.5-1.2,0.8c-0.1-0.2-0.3-0.4-0.4-0.6c0.4-0.3,0.9-0.5,1.3-0.8c-0.5-0.3-0.9-0.5-1.3-0.8
		c0.1-0.2,0.3-0.4,0.4-0.6c0.4,0.3,0.7,0.5,1.2,0.8c0-0.4,0-0.8,0-1.3c0.2,0,0.5,0,0.7,0c0,0.4,0,0.8,0,1.3c0.4-0.3,0.8-0.5,1.2-0.8
		c0.1,0.2,0.3,0.4,0.4,0.6c-0.4,0.3-0.9,0.5-1.3,0.8c0.5,0.3,0.9,0.5,1.3,0.8C31.4,25.2,31.2,25.4,31.1,25.6z"/>
	<path class="st0" d="M41,5H7C5.9,5,5,5.9,5,7v34c0,1.1,0.9,2,2,2h34c1.1,0,2-0.9,2-2V7C43,5.9,42.1,5,41,5z M39.5,26
		c-0.6,1.6-2.2,2.7-3.9,2.7c-4,0-7.9,0-11.9,0c-3.8,0-7.5,0-11.3,0c-2.1,0-3.9-1.5-4.2-3.6c-0.1-0.7-0.1-1.4,0-2.1
		c0.3-2.1,2-3.6,4.2-3.6c3.8,0,7.7,0,11.5,0c3.8,0,7.7,0,11.5,0c2.5,0,4.3,1.8,4.3,4.3C39.8,24.4,39.8,25.2,39.5,26z"/>
</g>
</svg>
