<?xml version="1.0" encoding="UTF-8"?>
<svg version="1.1" viewBox="0 0 48 48" xmlns="http://www.w3.org/2000/svg">
    <path d="m26.945 8.8567v7.1204a9.6242 9.6242 0 0 1 6.9675 5.7469 9.6242 9.6242 0 0 1-0.03759 7.4462l-3.8647-3.8647-4.99 4.9925 3.8973 3.8973a9.6242 9.6242 0 0 1-7.5816 0.10527 9.6242 9.6242 0 0 1-5.7369-6.9675h-7.1379a16.682 16.682 0 0 0 10.176 13.486 16.682 16.682 0 0 0 15.466-1.4386l3.6216 3.6191 4.99-4.99-3.6391-3.6391a16.682 16.682 0 0 0 1.3559-15.346 16.682 16.682 0 0 0-13.486-10.168z" fill="#fff" style="paint-order:stroke markers fill"/>
    <path d="m10.586 23.792c-0.17908-8.0644 7.3179-13.318 12.754-13.318" fill="none" stroke="#fff" stroke-linecap="round" stroke-width="2.5959"/>
    <path d="m23.397 6.2425c-9.8603 0.46016-17.156 8.1368-17.156 17.607" fill="none" stroke="#fff" stroke-linecap="round" stroke-width="2.4831"/>
    <path d="m14.764 23.907c0-4.6671 4.0289-9.1422 8.6907-9.1422" fill="none" stroke="#fff" stroke-linecap="round" stroke-width="2.3702"/>
</svg>
