<?xml version="1.0" encoding="UTF-8" standalone="no"?>
<!-- Created with Inkscape (http://www.inkscape.org/) -->

<svg
   xmlns:dc="http://purl.org/dc/elements/1.1/"
   xmlns:cc="http://creativecommons.org/ns#"
   xmlns:rdf="http://www.w3.org/1999/02/22-rdf-syntax-ns#"
   xmlns:svg="http://www.w3.org/2000/svg"
   xmlns="http://www.w3.org/2000/svg"
   xmlns:sodipodi="http://sodipodi.sourceforge.net/DTD/sodipodi-0.dtd"
   xmlns:inkscape="http://www.inkscape.org/namespaces/inkscape"
   width="148"
   height="148"
   viewBox="0 0 39.158332 39.158331"
   version="1.1"
   id="svg116"
   inkscape:version="0.92.3 (2405546, 2018-03-11)"
   sodipodi:docname="qr.svg">
  <defs
     id="defs110" />
  <sodipodi:namedview
     id="base"
     pagecolor="#ffffff"
     bordercolor="#666666"
     borderopacity="1.0"
     inkscape:pageopacity="0.0"
     inkscape:pageshadow="2"
     inkscape:zoom="3.959798"
     inkscape:cx="-27.118029"
     inkscape:cy="92.248847"
     inkscape:document-units="mm"
     inkscape:current-layer="g129"
     showgrid="false"
     inkscape:window-width="1920"
     inkscape:window-height="1003"
     inkscape:window-x="-9"
     inkscape:window-y="-9"
     inkscape:window-maximized="1"
     units="px" />
  <metadata
     id="metadata113">
    <rdf:RDF>
      <cc:Work
         rdf:about="">
        <dc:format>image/svg+xml</dc:format>
        <dc:type
           rdf:resource="http://purl.org/dc/dcmitype/StillImage" />
        <dc:title />
      </cc:Work>
    </rdf:RDF>
  </metadata>
  <g
     inkscape:label="Layer 1"
     inkscape:groupmode="layer"
     id="layer1">
    <g
       id="g129">
      <path
         style="fill:#ffffff;fill-opacity:1;stroke-width:0.35277778"
         d="m 0.13216091,38.730283 c -0.10056,-0.26204 -0.13727,-2.13258 -0.0816,-4.15675 l 0.10124,-3.68032 h 1.05833999 1.05833 l 0.102243,2.89637 0.10223,2.89638 2.89638,0.10224 2.89637,0.10223 v 1.05833 1.05834 l -3.97536,0.0998 c -3.083313,0.0774 -4.01639299,-0.007 -4.15819299,-0.37663 z M 31.372664,37.948763 c 0,-0.87157 0.0353,-0.88194 2.99861,-0.88194 h 2.99861 v -2.99861 c 0,-2.96333 0.0104,-2.99861 0.88194,-2.99861 h 0.88195 v 3.88055 3.88056 h -3.88056 -3.88055 z M 4.9143239,26.836263 v -7.40833 h 1.41112 1.41111 v -1.41111 -1.41111 h -1.41111 -1.41112 v -5.99722 -5.9972296 h 5.9972301 5.99722 v 3.01991 3.0199096 l 1.32292,-0.10949 c 1.28412,-0.10628 1.32609,-0.15346 1.43139,-1.6087996 0.10795,-1.49201 0.11524,-1.4993 1.49931,-1.4993 1.38744,0 1.39082,-0.003 1.39082,-1.41111 v -1.41112 h 5.99723 5.99722 v 5.9972296 5.99722 h -4.40972 -4.40973 v 1.41111 1.41111 h -1.5875 -1.5875 v -1.41111 c 0,-1.40768 -0.003,-1.41111 -1.39082,-1.41111 -1.38407,0 -1.39136,-0.007 -1.49931,-1.49931 -0.1053,-1.45534 -0.14727,-1.50251 -1.43139,-1.60879 l -1.32292,-0.10949 v 3.0199 3.01991 h 1.41111 1.41111 v 1.41111 1.41111 h -1.41111 -1.41111 v 2.99861 2.99862 h 1.41111 1.41111 v 1.5875 1.5875 h -1.41111 -1.41111 v 1.41111 1.41111 h -5.99722 -5.9972301 z m 8.8194501,1.41112 v -2.82223 h -2.82222 -2.8222301 v 2.82223 2.82222 h 2.8222301 2.82222 z m 3.1081,-7.32014 c -0.10628,-1.28413 -0.15346,-1.3261 -1.6088,-1.4314 -1.49201,-0.10795 -1.4993,-0.11524 -1.4993,-1.4993 0,-1.38745 -0.003,-1.39083 -1.41111,-1.39083 h -1.41111 v 1.41111 1.41111 h -1.4111101 -1.41112 v 1.41111 1.41111 h 4.4310201 4.43102 z m -3.1081,-10.50941 V 7.4049534 l -2.91042,0.10246 -2.9104101,0.10247 -0.10247,2.9104096 -0.10246,2.91042 h 3.0128801 3.01288 z m 8.81944,1.60177 v -1.41111 h -1.41111 -1.41111 v 1.41111 1.41111 h 1.41111 1.41111 z m 9.0983,-1.49931 -0.10246,-2.9104096 -2.91042,-0.10247 -2.91042,-0.10246 v 3.0128796 3.01288 h 3.01288 3.01288 z m -4.3358,23.31435 c -1.44825,-0.79746 -3.111,-2.64353 -3.92031,-4.35254 -0.65412,-1.38131 -0.83604,-2.35871 -0.83874,-4.50625 l -0.003,-2.74236 6.08542,0.0965 6.08542,0.0965 -0.0436,2.75594 c -0.0578,3.65673 -1.29483,6.23586 -3.79661,7.91559 -1.82222,1.22346 -2.44896,1.35284 -3.56817,0.73657 z m 2.16857,-3.63478 c 0.9128,-0.63934 1.88838,-2.63242 1.88838,-3.85788 0,-0.91085 -0.0184,-0.91683 -2.82222,-0.91683 -2.55539,0 -2.82223,0.0645 -2.82223,0.68259 0,1.11108 0.6866,2.60188 1.67595,3.63894 1.07551,1.12738 1.10759,1.13437 2.08012,0.45318 z M 0.47948091,7.3188334 c -0.0987,-0.25709 -0.13336,-1.96365 -0.0771,-3.79236 l 0.10225,-3.32493002 H 4.2088039 c 3.57277,0 3.70816,0.0282 3.8169,0.79375 0.10938,0.77017002 0.0229,0.79375002 -2.91042,0.79375002 h -3.023153 v 2.99861 c 0,2.77887 -0.0525,2.99861 -0.71663,2.99861 -0.39413999,0 -0.79733999,-0.21034 -0.89598999,-0.46743 z M 37.369884,4.7876534 v -2.99861 h -2.99861 c -2.96333,0 -2.99861,-0.0104 -2.99861,-0.88194002 v -0.88195 h 3.88055 3.88056 v 3.88056002 3.88055 h -0.88195 c -0.87157,0 -0.88194,-0.0353 -0.88194,-2.99861 z"
         id="path131"
         inkscape:connector-curvature="0" />
    </g>
  </g>
</svg>
