<?xml version="1.0" encoding="UTF-8"?>
<svg version="1.1" viewBox="0 0 48 48" xmlns="http://www.w3.org/2000/svg">
    <path d="m5 5v8.5039h2.834v-5.668h5.6699v-2.8359h-8.5039zm29.496 0v2.834h5.668v5.6699h2.8359v-8.5039h-8.5039zm-24.311 5.1855v11.34h11.34v-11.34h-11.34zm16.291 0v11.34h11.338v-11.34h-11.338zm-12.984 3.3066h4.7246v4.7246h-4.7246v-4.7246zm16.291 0h4.7246v4.7246h-4.7246v-4.7246zm-19.598 12.984v11.338h11.34v-11.338h-11.34zm16.291 0v3.3047h-0.001953c0 2.6907 0.96896 4.575 2.1113 5.877 0.9533 1.1307 1.9895 1.8288 3.5586 2.1562 1.5691-0.32753 2.6072-1.0235 3.5605-2.1543 1.1424-1.3019 2.1094-3.1862 2.1094-5.877v-3.3066h-11.338zm-12.984 3.3066h4.7246v4.7246h-4.7246v-4.7246zm16.291 0h4.7246c0 1.9549-0.61906 3.1141-1.2559 3.8398-0.31094 0.34965-0.89546 0.7552-1.1074 0.88476v-0.001953c-0.21197-0.12956-0.79652-0.53316-1.1074-0.88281-0.63668-0.72558-1.2537-1.8856-1.2539-3.8398zm-24.783 4.7129v8.5039h8.5039v-2.834h-5.668v-5.6699h-2.8359zm35.166 0v5.6699h-5.6699v2.834h8.5039v-8.5039h-2.834z" fill="#fff" stroke-width=".94489"/>
</svg>
