<?xml version="1.0" encoding="UTF-8" standalone="no"?>
<!-- Created with Inkscape (http://www.inkscape.org/) -->

<svg
   xmlns:dc="http://purl.org/dc/elements/1.1/"
   xmlns:cc="http://creativecommons.org/ns#"
   xmlns:rdf="http://www.w3.org/1999/02/22-rdf-syntax-ns#"
   xmlns:svg="http://www.w3.org/2000/svg"
   xmlns="http://www.w3.org/2000/svg"
   xmlns:sodipodi="http://sodipodi.sourceforge.net/DTD/sodipodi-0.dtd"
   xmlns:inkscape="http://www.inkscape.org/namespaces/inkscape"
   width="192"
   height="192"
   viewBox="0 0 50.799998 50.799997"
   version="1.1"
   id="svg116"
   inkscape:version="0.92.3 (2405546, 2018-03-11)"
   sodipodi:docname="qr.svg">
  <defs
     id="defs110" />
  <sodipodi:namedview
     id="base"
     pagecolor="#ffffff"
     bordercolor="#666666"
     borderopacity="1.0"
     inkscape:pageopacity="0.0"
     inkscape:pageshadow="2"
     inkscape:zoom="3.959798"
     inkscape:cx="-1.9949988"
     inkscape:cy="92.248847"
     inkscape:document-units="mm"
     inkscape:current-layer="g129"
     showgrid="false"
     inkscape:window-width="1920"
     inkscape:window-height="1003"
     inkscape:window-x="-9"
     inkscape:window-y="-9"
     inkscape:window-maximized="1"
     units="px" />
  <metadata
     id="metadata113">
    <rdf:RDF>
      <cc:Work
         rdf:about="">
        <dc:format>image/svg+xml</dc:format>
        <dc:type
           rdf:resource="http://purl.org/dc/dcmitype/StillImage" />
        <dc:title />
      </cc:Work>
    </rdf:RDF>
  </metadata>
  <g
     inkscape:label="Layer 1"
     inkscape:groupmode="layer"
     id="layer1">
    <g
       id="g129">
      <path
         style="fill:#ffffff;fill-opacity:1;stroke-width:0.36276737"
         d="m 5.4023153,45.093417 c -0.1034075,-0.26946 -0.141157,-2.192968 -0.083911,-4.274456 l 0.1041068,-3.784535 h 1.088309 1.0882986 l 0.1051382,2.978386 0.1051248,2.978397 2.9783963,0.105135 2.978387,0.105125 v 1.088298 1.088309 l -4.0879304,0.102626 c -3.1706229,0.07959 -4.1301248,-0.0072 -4.2759401,-0.387295 z m 32.1251367,-0.80365 c 0,-0.89625 0.0363,-0.906914 3.083522,-0.906914 h 3.083521 v -3.083521 c 0,-3.047242 0.01069,-3.083521 0.906914,-3.083521 h 0.906924 v 3.990435 3.990445 H 41.517888 37.527452 Z M 10.319894,32.862596 v -7.618111 h 1.451079 1.451068 v -1.451069 -1.451068 h -1.451068 -1.451079 v -6.167043 -6.167052 h 6.167053 6.167043 v 3.105424 3.105424 l 1.360381,-0.11259 c 1.320482,-0.10929 1.363641,-0.157806 1.471922,-1.654356 0.111007,-1.534259 0.118504,-1.541755 1.541766,-1.541755 1.426728,0 1.430204,-0.0031 1.430204,-1.451069 v -1.451078 h 6.167053 6.167043 v 6.167052 6.167043 h -4.53459 -4.5346 v 1.451068 1.451069 h -1.632453 -1.632453 v -1.451069 c 0,-1.447541 -0.0031,-1.451068 -1.430204,-1.451068 -1.423262,0 -1.430759,-0.0072 -1.541766,-1.541766 -0.108281,-1.496551 -0.15144,-1.545056 -1.471922,-1.654346 l -1.360381,-0.11259 v 3.105414 3.105425 h 1.451068 1.451068 v 1.451068 1.451068 H 24.105058 22.65399 v 3.083521 3.083532 h 1.451068 1.451068 v 1.632453 1.632453 H 24.105058 22.65399 v 1.451069 1.451068 h -6.167043 -6.167053 z m 9.06919,1.451078 V 31.411527 H 16.486947 13.5848 v 2.902147 2.902137 h 2.902147 2.902137 z m 3.196111,-7.527424 c -0.109289,-1.320492 -0.157805,-1.363651 -1.654356,-1.471932 -1.534259,-0.111007 -1.541755,-0.118504 -1.541755,-1.541756 0,-1.426738 -0.0031,-1.430214 -1.451069,-1.430214 h -1.451068 v 1.451068 1.451069 H 15.035879 13.5848 v 1.451068 1.451068 h 4.556493 4.556493 z M 19.389084,15.979246 v -3.098195 l -2.992835,0.105362 -2.992823,0.105371 -0.105372,2.992824 -0.105361,2.992834 h 3.098195 3.098196 z m 9.069179,1.647128 v -1.451069 h -1.451068 -1.451069 v 1.451069 1.451068 h 1.451069 1.451068 z m 9.355936,-1.541766 -0.105362,-2.992824 -2.992834,-0.105371 -2.992834,-0.105362 v 3.098195 3.098196 h 3.098195 3.098196 z m -4.458577,23.97454 c -1.48926,-0.820042 -3.199094,-2.718387 -4.031321,-4.47579 -0.672643,-1.420425 -0.859714,-2.425502 -0.86249,-4.633854 l -0.0031,-2.820015 6.25774,0.09923 6.25774,0.09923 -0.04483,2.83398 c -0.05944,3.760277 -1.331496,6.41244 -3.904119,8.139735 -1.873819,1.258105 -2.518307,1.391148 -3.669209,0.757428 z m 2.229977,-3.737706 c 0.938648,-0.657444 1.941853,-2.706962 1.941853,-3.967123 0,-0.936642 -0.01892,-0.942792 -2.902136,-0.942792 -2.627751,0 -2.902147,0.06633 -2.902147,0.701919 0,1.142542 0.706042,2.675557 1.723408,3.741984 1.105965,1.159304 1.138953,1.166491 2.139022,0.466012 z M 5.7594703,12.792493 C 5.6579755,12.528123 5.622334,10.773238 5.6801871,8.8927447 L 5.7853325,5.473663 h 3.8090637 c 3.6739398,0 3.8131638,0.028999 3.9249828,0.8162266 0.112477,0.7919788 0.02355,0.8162265 -2.992834,0.8162265 H 7.4177856 v 3.0835219 c 0,2.857559 -0.053987,3.083521 -0.7369227,3.083521 -0.4053009,0 -0.8199182,-0.216296 -0.9213617,-0.480666 z M 43.694495,10.189638 V 7.1061161 h -3.083521 c -3.047243,0 -3.083522,-0.010695 -3.083522,-0.9069138 V 5.2922782 h 3.990436 3.990445 v 3.9904454 3.9904354 h -0.906924 c -0.89625,0 -0.906914,-0.0363 -0.906914,-3.083521 z"
         id="path131"
         inkscape:connector-curvature="0" />
    </g>
  </g>
</svg>
