<?xml version="1.0" encoding="UTF-8" standalone="no"?>
<svg
   xmlns:dc="http://purl.org/dc/elements/1.1/"
   xmlns:cc="http://creativecommons.org/ns#"
   xmlns:rdf="http://www.w3.org/1999/02/22-rdf-syntax-ns#"
   xmlns:svg="http://www.w3.org/2000/svg"
   xmlns="http://www.w3.org/2000/svg"
   xmlns:sodipodi="http://sodipodi.sourceforge.net/DTD/sodipodi-0.dtd"
   xmlns:inkscape="http://www.inkscape.org/namespaces/inkscape"
   width="48"
   height="48"
   viewBox="0 0 48 48"
   version="1.1"
   id="svg4"
   sodipodi:docname="qr.svg"
   inkscape:version="0.92.4 5da689c313, 2019-01-14">
  <metadata
     id="metadata10">
    <rdf:RDF>
      <cc:Work
         rdf:about="">
        <dc:format>image/svg+xml</dc:format>
        <dc:type
           rdf:resource="http://purl.org/dc/dcmitype/StillImage" />
        <dc:title></dc:title>
      </cc:Work>
    </rdf:RDF>
  </metadata>
  <defs
     id="defs8" />
  <sodipodi:namedview
     pagecolor="#ffffff"
     bordercolor="#666666"
     borderopacity="1"
     objecttolerance="10"
     gridtolerance="10"
     guidetolerance="10"
     inkscape:pageopacity="0"
     inkscape:pageshadow="2"
     inkscape:window-width="1811"
     inkscape:window-height="1219"
     id="namedview6"
     showgrid="true"
     inkscape:zoom="4.9166667"
     inkscape:cx="-33.496833"
     inkscape:cy="69.38044"
     inkscape:window-x="7"
     inkscape:window-y="88"
     inkscape:window-maximized="0"
     inkscape:current-layer="svg4"
     inkscape:snap-bbox="true"
     inkscape:bbox-nodes="true">
    <inkscape:grid
       type="xygrid"
       id="grid819" />
  </sodipodi:namedview>
  <path
     style="fill:#ffffff"
     d="M 7 5 C 5.892 5 5 5.892 5 7 L 5 41 C 5 42.108 5.892 43 7 43 L 41 43 C 42.108 43 43 42.108 43 41 L 43 7 C 43 5.892 42.108 5 41 5 L 7 5 z M 8 8 L 22 8 L 22 22 L 8 22 L 8 8.5058594 L 8 8 z M 26 8 L 32 8 L 32 10 L 34 10 L 34 8 L 36 8 L 36 10 L 38 10 L 38 8 L 40 8 L 40 14 L 38 14 L 38 16 L 40 16 L 40 18 L 40 20 L 40 22 L 34 22 L 34 20 L 32 20 L 32 22 L 30 22 L 30 20 L 28 20 L 28 22 L 26 22 L 26 20 L 28 20 L 28 18 L 26 18 L 26 16 L 26 14 L 26 12 L 28 12 L 28 10 L 26 10 L 26 8 z M 28 12 L 28 14 L 30 14 L 30 12 L 28 12 z M 30 12 L 32 12 L 32 10 L 30 10 L 30 12 z M 30 14 L 30 16 L 32 16 L 32 14 L 30 14 z M 32 16 L 32 18 L 34 18 L 34 16 L 32 16 z M 34 16 L 36 16 L 36 14 L 38 14 L 38 12 L 36 12 L 36 10 L 34 10 L 34 16 z M 32 18 L 30 18 L 30 20 L 32 20 L 32 18 z M 9.0117188 9.0117188 L 9.0117188 20.988281 L 20.988281 20.988281 L 20.988281 9.0117188 L 9.0117188 9.0117188 z M 10 10 L 20 10 L 20 20 L 10 20 L 10 10 z M 36 18 L 36 20 L 38 20 L 38 18 L 36 18 z M 8 26 L 22 26 L 22 40 L 8 40 L 8 26.505859 L 8 26 z M 26 26 L 40 26 L 40 40 L 26 40 L 26 26.505859 L 26 26 z M 9.0117188 27.011719 L 9.0117188 38.988281 L 20.988281 38.988281 L 20.988281 27.011719 L 9.0117188 27.011719 z M 27.011719 27.011719 L 27.011719 38.988281 L 38.988281 38.988281 L 38.988281 27.011719 L 27.011719 27.011719 z M 10 28 L 20 28 L 20 38 L 10 38 L 10 28 z M 28 28 L 38 28 L 38 38 L 28 38 L 28 28 z "
     id="rect2" />
</svg>
