<?xml version="1.0" encoding="utf-8"?>
<!-- Generator: Adobe Illustrator 21.1.0, SVG Export Plug-In . SVG Version: 6.00 Build 0)  -->
<svg version="1.0" id="Layer_1" xmlns="http://www.w3.org/2000/svg" xmlns:xlink="http://www.w3.org/1999/xlink" x="0px" y="0px"
	 viewBox="0 0 48 48" enable-background="new 0 0 48 48" xml:space="preserve">
<g>
	<path fill="#FFFFFF" d="M28.3,27.9c1.1-1.3,1.6-3.4,1.6-6.1c0-2.9-0.6-5.1-1.9-6.6c-1-1.2-2.6-1.9-4.7-1.9c-2,0-3.5,0.6-4.6,1.9
		c-1.1,1.3-1.6,3.3-1.6,6c0,1.9,0.3,3.6,0.9,4.9c0.6,1.3,1.3,2.3,2.3,2.9c0.9,0.6,2.1,0.9,3.6,0.9C25.7,29.9,27.2,29.2,28.3,27.9z"
		/>
	<path fill="#FFFFFF" d="M41,5H7C5.9,5,5,5.9,5,7v34c0,1.1,0.9,2,2,2h34c1.1,0,2-0.9,2-2V7C43,5.9,42.1,5,41,5z M35,34l-1.6,1.1
		c-0.8,0.5-1.3,0.8-1.6,1c-0.2,0.1-0.4,0.1-0.7,0.1c-0.6,0-1.3-0.1-2.1-0.2s-2-0.5-3.8-1.1c-1.3-0.4-2.1-0.7-2.6-0.8
		c-0.5-0.1-0.9-0.2-1.2-0.2c-0.4,0-0.8,0.1-1.1,0.2c-0.3,0.1-0.8,0.4-1.3,0.8l-0.6-0.6l0.9-0.8c1-0.8,2.1-1.5,3.3-2
		c-2.9,0-5.3-0.9-7.1-2.6c-1.8-1.7-2.7-4.1-2.7-7.1c0-2.1,0.4-3.9,1.3-5.4c0.9-1.5,2.1-2.6,3.6-3.4s3.5-1.2,5.9-1.2
		c2.3,0,4.2,0.4,5.7,1.1c1.5,0.8,2.6,1.8,3.4,3.2s1.2,3,1.2,5c0,2.1-0.4,3.9-1.3,5.5c-0.8,1.5-2,2.7-3.5,3.5s-3.5,1.3-6,1.4
		c0.7,0.1,1.3,0.2,1.9,0.4l3.6,1.2c1.1,0.3,1.9,0.6,2.5,0.7c0.4,0.1,0.7,0.1,1.1,0.1c0.4,0,0.8,0,1.1-0.1c0.3-0.1,0.8-0.3,1.5-0.6
		V34z"/>
</g>
</svg>
