<?xml version="1.0" encoding="UTF-8"?>
<svg version="1.1" viewBox="0 0 48 48" xmlns="http://www.w3.org/2000/svg">
    <path d="m24 5a19 19 0 0 0-19 19 19 19 0 0 0 19 19 19 19 0 0 0 19-19 19 19 0 0 0-19-19zm0 3.1667a15.833 15.833 0 0 1 15.833 15.833 15.833 15.833 0 0 1-15.833 15.833 15.833 15.833 0 0 1-15.833-15.833 15.833 15.833 0 0 1 15.833-15.833z" fill="#fff" style="paint-order:stroke markers fill"/>
    <path d="m27.467 19.256 0.63867 3.0078h-7.6816l-4.4648 4.4648 4.5742 2.0156-0.63867-3.0078h8.2109l-0.63867 3.0078 10.76-4.7441-10.76-4.7441z" color="#000000" color-rendering="auto" dominant-baseline="auto" fill="#fff" image-rendering="auto" shape-rendering="auto" solid-color="#000000" style="font-feature-settings:normal;font-variant-alternates:normal;font-variant-caps:normal;font-variant-ligatures:normal;font-variant-numeric:normal;font-variant-position:normal;isolation:auto;mix-blend-mode:normal;shape-padding:0;text-decoration-color:#000000;text-decoration-line:none;text-decoration-style:solid;text-indent:0;text-orientation:mixed;text-transform:none;white-space:normal"/>
    <path d="m19.089 10.558c-1.1647 0.17777-2.0981 1.0538-2.7243 2.0058-0.58051 0.84442-0.54172 2.067 0.20752 2.7992 0.47113 0.57865 1.2787 0.91551 2.0007 0.61971 1.1028-0.38126 1.9136-1.3046 3.0005-1.713 0.7104-0.24792 1.3625 0.66475 0.97198 1.2858-0.38998 0.72148-1.0926 1.4369-1.9651 1.4356-0.86655 0-0.68587-0.40839-1.0563-0.03792l-0.78068 0.78068c0.71927 0.80357 1.9675 0.97816 2.8952 0.4417 1.0692-0.59609 2.0094-1.5609 2.3581-2.7552 0.33814-1.2067-0.59246-2.5666-1.8038-2.7757-1.0591-0.06997-1.8659 0.72832-2.7076 1.252-0.47805 0.28216-1.0252 0.79512-1.6155 0.55797-0.73873-0.36761-0.50387-1.3744 0.04355-1.8048 0.46276-0.50718 1.3056-0.9127 1.907-0.38953 0.12181 0.12181 0.19762 0.0057 0.58805-0.38476l0.57532-0.57532c-0.48747-0.50349-1.1832-0.8353-1.8945-0.74218zm-4.627 5.3613c-2.1909-0.13548-4.2014 2.0535-3.8031 4.231 0.3168 1.8282 1.9021 3.3898 3.7412 3.657 1.2475 0.18437 2.4668-0.44478 3.2723-1.3687l2.8834-2.8923-1.0312-1.0312-1.0547 1.0547c-0.31114-1.9012-2.0828-3.5315-4.0078-3.6504zm-0.58398 1.4863c1.1804-0.0846 2.2769 0.74889 2.7519 1.7928 0.48687 0.82482 0.31789 1.9089-0.27618 2.6257-0.74484 0.7343-1.9698 0.6311-2.7563 0.02134-0.98715-0.67857-1.8485-1.9737-1.3532-3.1954 0.28003-0.65492 0.91631-1.1716 1.6338-1.2444z" fill="#fff" style="font-feature-settings:normal;font-variant-caps:normal;font-variant-ligatures:normal;font-variant-numeric:normal"/>
</svg>
