<svg xmlns="http://www.w3.org/2000/svg" viewBox="0 0 48 48"><defs><style>.cls-1{fill:#2b2b2b;}.cls-2{fill:#fff;}</style></defs><title>quickly quit</title><g id="Layer_2" data-name="Layer 2"><rect class="cls-1" x="-221.93" y="-350.1" width="674.7" height="426.15"/><rect class="cls-1" x="-166.58" y="-350.1" width="674.7" height="426.15"/><rect class="cls-1" x="-221.93" y="-296.7" width="674.7" height="426.15"/><rect class="cls-1" x="-166.58" y="-296.7" width="674.7" height="426.15"/><rect class="cls-1" x="-221.93" y="-405.17" width="674.7" height="426.15"/><rect class="cls-1" x="-166.58" y="-405.17" width="674.7" height="426.15"/><rect class="cls-1" x="-221.09" y="-352.25" width="674.7" height="426.15"/></g><g id="Layer_1" data-name="Layer 1"><path class="cls-2" d="M24,2A22,22,0,1,0,46,24,22,22,0,0,0,24,2Zm3.8,6a3,3,0,1,1-3,3A3,3,0,0,1,27.8,8ZM36,25.12A10.89,10.89,0,0,1,27.8,21.4l-.9,4.46,3.13,3V40h-3V31.07l-3.12-3-1.49,6.55L12,32.56l.59-3,7.3,1.49L22.29,19l-2.68,1v5.06h-3v-7l7.74-3.27c.45,0,.75-.15,1.19-.15a3.05,3.05,0,0,1,2.53,1.49l1.49,2.38A7.32,7.32,0,0,0,36,22.14Z"/></g></svg>