<?xml version="1.0" encoding="utf-8"?>
<!-- Generator: Adobe Illustrator 21.1.0, SVG Export Plug-In . SVG Version: 6.00 Build 0)  -->
<svg version="1.0" id="Layer_1" xmlns="http://www.w3.org/2000/svg" xmlns:xlink="http://www.w3.org/1999/xlink" x="0px" y="0px"
	 viewBox="0 0 48 48" enable-background="new 0 0 48 48" xml:space="preserve">
<path fill="#FFFFFF" d="M41.4,39.7c-0.5,0.6-1.2,0.4-1.8,0.4c-5,0-10.1,0-15.1,0c-0.5,0-0.9,0-1.4,0c-0.2,1-0.4,2-0.6,2.8
	c-0.5,0.3-0.9,0.2-1.3,0.2c-4.3,0-8.7,0-13,0c-2.3,0-3.4-1.1-3.4-3.4c0-9.4,0-18.9,0-28.3C4.9,9,6,7.9,8.4,7.9c5.8,0,11.7,0,17.5,0
	c0.5,0,1.1,0,1.5,0c1-0.8,0.4-2.2,1.4-2.9c-0.6,2.6-1.3,5.3-1.9,7.9c-0.5,1.9-0.8,3.8-1.4,5.7c-1,3.2-1.5,6.5-2.5,9.7
	c-0.6,2.1-1.1,4.3-1.7,6.4c-0.4,1.6-0.7,3.2-1.1,4.9c2.3,0,4.4,0,6.5,0C31.6,39.6,36.5,39.7,41.4,39.7z M13.9,26.5c-0.6,0-1,0-1.4,0
	c-1.7,0.2-3.1,2-2.8,3.4c0.3,1.4,2.1,2.7,3.5,2.6c1.6-0.2,2.7-1.4,2.8-3.1c0-1.9,0-3.8,0-5.7c0-0.7-0.2-1.5,0.1-2.2
	c1.1-0.3,2.2,0.2,3.2-0.3c0.2-0.6,0.2-1.1-0.1-1.7c-1.7,0-3.4,0-5.3,0C13.9,21.9,13.9,24.1,13.9,26.5z"/>
<path fill="#FFFFFF" d="M41.4,39.7c-4.9,0-9.8-0.1-14.7-0.1c-2.1,0-4.2,0-6.5,0c0.4-1.7,0.7-3.3,1.1-4.9c0.5-2.1,1-4.3,1.7-6.4
	c0.9-3.2,1.5-6.5,2.5-9.7c0.6-1.9,1-3.8,1.4-5.7c0.6-2.6,1.3-5.3,1.9-7.9c3.4-0.3,6.8-0.1,10.3-0.1c0.6,0,1.3-0.2,1.8,0.2
	c0.2,0.5,0.6,0.6,1,0.5C42.8,6.1,43.2,7,43.2,8c0,9.7,0,19.3,0,29C43.2,38.3,42.7,39.3,41.4,39.7z M29.2,23.4c3.2,0,6.2,0,9.4,0
	c-0.1-0.7,0.2-1.3-0.3-1.8c-3,0-6.1,0-9.2,0C29.1,22.2,29,22.7,29.2,23.4z M38.3,17.5c-3.1,0-6.1,0-9.1,0c-0.2,1-0.2,1,0.1,1.8
	c3.1,0,6.1,0,9.2,0C38.6,18.7,38.7,18.2,38.3,17.5z M35,25.6c-2,0-3.9,0-5.8,0c-0.2,0.7-0.3,1.3,0.1,1.8c1.9,0,3.8,0,5.8,0
	C35.1,26.7,35.2,26.2,35,25.6z"/>
</svg>
