<?xml version="1.0" encoding="utf-8"?>
<!-- Generator: Adobe Illustrator 21.1.0, SVG Export Plug-In . SVG Version: 6.00 Build 0)  -->
<svg version="1.0" id="Layer_1" xmlns="http://www.w3.org/2000/svg" xmlns:xlink="http://www.w3.org/1999/xlink" x="0px" y="0px"
	 viewBox="0 0 48 48" style="enable-background:new 0 0 48 48;" xml:space="preserve">
<style type="text/css">
	.st0{fill:#FFFFFF;}
</style>
<path class="st0" d="M15.7,21.4c1,3.1,2,6.3,3,9.5c0.1,0.2,0.2,0.2,0.4,0.2c3.3,0,6.6,0,9.9,0c0.2,0,0.3-0.1,0.4-0.3
	c1-3.1,2-6.2,3.1-9.3c0.1-0.2,0-0.3-0.1-0.4c-1.9-1.3-3.7-2.7-5.6-4c-0.9-0.6-1.8-1.3-2.7-1.9c-0.1,0-0.1,0.1-0.2,0.1
	c-2.7,1.9-5.3,3.9-8,5.8C15.6,21.2,15.6,21.3,15.7,21.4z M23.1,21.3c0.3-0.2,0.7-0.4,1.2-0.5c0.4-0.1,0.9-0.2,1.3-0.2
	c0.7,0,1.3,0.2,1.7,0.5c0.5,0.4,0.8,0.9,0.8,1.5c0,0.9-0.7,1.9-2,3c0.9,0,1.7-0.1,2.2-0.1c0.1,0,0.2,0.1,0.2,0.2s0,0.2,0,0.4
	s0,0.3,0,0.4s0,0.2,0,0.4c0,0.2,0,0.3,0,0.4s-0.1,0.1-0.2,0.1c0,0-0.2,0-0.5-0.1s-0.9-0.1-1.8-0.1c-0.3,0-0.7,0-1.2,0
	c-0.6,0-1,0-1.2,0c-0.1,0-0.1,0-0.2-0.1c0-0.1,0-0.3-0.1-0.5c-0.1-0.4-0.1-0.6-0.1-0.6c0-0.1,0.2-0.1,0.5-0.2c0.4,0,0.6-0.1,0.7-0.2
	c0.4-0.3,0.7-0.7,1.1-1.2c0.5-0.6,0.7-1,0.7-1.3s-0.1-0.5-0.3-0.6c-0.2-0.2-0.4-0.3-0.7-0.3c-0.3,0-0.6,0.1-0.9,0.2
	c-0.2,0.1-0.4,0.2-0.6,0.3c-0.2,0.1-0.3,0.2-0.3,0.2c-0.1,0-0.2-0.1-0.2-0.4c0-0.2,0-0.4,0-0.5c0,0,0-0.1-0.1-0.3
	c0-0.1-0.1-0.2-0.1-0.3C23.1,21.4,23.1,21.4,23.1,21.3z M19.6,21.5c0.5-0.2,0.9-0.5,1.2-0.9c0.1-0.1,0.1-0.1,0.2-0.1c0,0,0,0,0.1,0
	s0.3,0.1,0.6,0.1c0.1,0,0.4,0.1,0.6,0.1c0.1,0,0.1,0.1,0.1,0.1v0.1c0,0.3-0.1,1.1-0.1,2.3c0,0.4,0,1,0,1.9c0,0.8,0,1.4,0,1.9
	c0,0.1,0,0.1-0.1,0.2s-0.1,0.1-0.2,0.1c-0.2,0-0.4,0-0.8,0c-0.3,0-0.6,0-0.8,0c-0.1,0-0.2-0.1-0.2-0.2V27c0.1-1.4,0.1-2.2,0.1-2.5
	V23c0-0.1,0-0.2-0.1-0.2s-0.2,0-0.3,0.1c-0.1,0-0.3,0.1-0.3,0.1c-0.1,0-0.2-0.1-0.2-0.2s0-0.3,0-0.5s0-0.4,0-0.6
	C19.5,21.6,19.5,21.6,19.6,21.5z"/>
<path class="st0" d="M18.1,31.3c-1-3.2-2.1-6.4-3.1-9.7c0-0.1-0.1-0.2-0.2-0.2c-0.9-0.3-1.9-0.6-2.8-0.9c0,0.2,0,0.3,0,0.4
	c0,2.2,0,4.3,0,6.5c0,0.4,0.1,0.7,0.3,0.9c1.2,1.7,2.5,3.4,3.7,5.1c0.1,0.2,0.2,0.3,0.4,0.5c0-0.1,0-0.1,0.1-0.1
	c0.5-0.7,1.1-1.4,1.6-2.2C18.1,31.5,18.1,31.4,18.1,31.3z"/>
<path class="st0" d="M15.3,20.6c2.8-2,5.5-4,8.3-6c0.1-0.1,0.2-0.2,0.2-0.4c0-0.8,0-1.7,0-2.5c0-0.1,0-0.2,0-0.3c-0.1,0-0.1,0-0.1,0
	c-2.2,0.7-4.5,1.4-6.7,2.1c-0.2,0.1-0.3,0.2-0.4,0.3c-0.8,1.1-1.5,2.1-2.3,3.2c-0.6,0.9-1.3,1.8-1.9,2.7c0.9,0.3,1.8,0.6,2.6,0.9
	C15,20.7,15.1,20.7,15.3,20.6z"/>
<path class="st0" d="M32.7,20.7c0.1,0.1,0.3,0.1,0.4,0.1c0.7-0.2,1.4-0.5,2.1-0.7c0.2-0.1,0.4-0.2,0.7-0.2c-0.1-0.1-0.1-0.2-0.2-0.3
	c-1.3-1.8-2.6-3.6-3.9-5.4c-0.1-0.2-0.3-0.3-0.5-0.4c-1.5-0.5-3-1-4.5-1.5c-0.7-0.3-1.5-0.5-2.2-0.8c0,0.1,0,0.1,0,0.1c0,1,0,2,0,3
	c0,0.1,0.1,0.2,0.2,0.3C27.3,16.7,30,18.7,32.7,20.7z"/>
<path class="st0" d="M29.1,31.8c-3.4,0-6.7,0-10.1,0c-0.1,0-0.3,0.1-0.4,0.2c-0.4,0.5-0.8,1.1-1.2,1.7c-0.1,0.2-0.3,0.4-0.4,0.6
	c0.1,0,0.2,0.1,0.2,0.1c2.2,0.7,4.4,1.5,6.5,2.2c0.1,0,0.3,0,0.4,0c2.2-0.7,4.4-1.4,6.6-2.1c0.1,0,0.3-0.1,0.4-0.1
	c-0.6-0.8-1.2-1.6-1.8-2.4C29.3,31.8,29.2,31.8,29.1,31.8z"/>
<path class="st0" d="M33,21.6c-1.1,3.2-2.1,6.4-3.1,9.6c0,0.1,0,0.2,0,0.3c0.5,0.7,1.1,1.5,1.7,2.2l0.1,0.1c0-0.1,0.1-0.1,0.1-0.1
	c1.3-1.8,2.7-3.7,4-5.6c0.1-0.1,0.1-0.3,0.1-0.5c0-2.3,0-4.6,0-6.9c0-0.1,0-0.2,0-0.3c-1,0.3-1.9,0.7-2.8,1
	C33.1,21.4,33.1,21.5,33,21.6z"/>
<path class="st0" d="M41,5H7C5.9,5,5,5.9,5,7v34c0,1.1,0.9,2,2,2h34c1.1,0,2-0.9,2-2V7C43,5.9,42.1,5,41,5z M37.1,28
	c0,0.2-0.1,0.4-0.2,0.5c-1.5,2-3,4.1-4.4,6.1c-0.3,0.4-0.5,0.6-0.9,0.7c-2.3,0.7-4.5,1.5-6.8,2.2c-0.1,0-0.2,0.1-0.3,0.1
	c-0.2,0.1-0.5,0.1-0.7,0c-2.4-0.8-4.8-1.6-7.1-2.4c-0.4-0.1-0.7-0.4-0.9-0.7c-1.4-1.9-2.8-3.8-4.2-5.7c-0.1-0.1-0.2-0.2-0.3-0.4
	c-0.1-0.2-0.2-0.3-0.2-0.5c0-1.3,0-2.7,0-4s0-2.6,0-3.9c0-0.2,0.1-0.4,0.2-0.6c1.5-2.2,3.1-4.3,4.7-6.5c0.1-0.2,0.4-0.3,0.6-0.4
	c2.5-0.8,4.9-1.6,7.4-2.3c0.2-0.1,0.6-0.1,0.8,0c2.5,0.8,4.9,1.7,7.4,2.5c0.2,0.1,0.4,0.2,0.5,0.4c1.4,2,2.9,3.9,4.3,5.9
	c0.1,0.1,0.2,0.2,0.3,0.4c0.1,0.2,0.2,0.4,0.2,0.5C37.1,22.6,37.1,25.3,37.1,28z"/>
</svg>
