<?xml version="1.0" encoding="UTF-8"?>
<svg version="1.1" viewBox="0 0 48 48" xmlns="http://www.w3.org/2000/svg">
    <path d="m6.086 13.055c-0.37034 0.02485-0.71688 0.22013-0.91758 0.56776-1.0721 1.609 3.3431 2.2041 2.8699 3.7456-0.37383 1.2179 8.1645 4.9714 11.802 6.5097-5.8453 3.033-14.234 9.8981-14.234 9.8981-0.5562 0.32112-0.8039 1.1904-0.42398 1.5833 1.5822 1.6359 6.7549-2.4659 8.2825-2.9639 1.3646-0.44478 3.7037-2.2025 10.146-6.4547 6.5654 4.2522 9.5587 6.01 10.923 6.4547 1.5277 0.49794 6.7009 4.5998 8.2831 2.9639 0.37992-0.39282 0.13166-1.2621-0.42454-1.5833 0 0-8.8113-6.8204-14.884-9.9207 3.8833-1.554 12.824-5.2757 12.452-6.487-0.47315-1.5415 3.9425-2.1366 2.8705-3.7456-0.32112-0.5562-1.0154-0.72298-1.5838-0.42398 0 0-14.68 8.4557-17.4 9.2296-0.11824-0.02222-0.23726-0.04578-0.34643-0.05774-1.8893-0.20698-16.749-9.1718-16.749-9.1718-0.21315-0.11213-0.44404-0.15869-0.66625-0.14378z" fill="#fff" style="paint-order:stroke markers fill"/>
    <path d="m38.556 14.731-14.958 7.7519-14.958-7.7519 1.5881-2.2833s11.457 3.8136 13.369 7.7519c2.7078-3.8429 8.8402-5.2397 13.411-7.7519z" fill="#fff"/>
</svg>
