<?xml version="1.0" encoding="UTF-8"?>
<svg viewBox="0 0 48 48" xmlns="http://www.w3.org/2000/svg">
    <path d="m 24.534644,45.781093 c -0.919189,-2.904711 -0.957102,-2.796131 0.976165,-2.796131 0.923063,0 1.6783,0.129876 1.6783,0.288793 0,0.696613 -1.430926,4.726245 -1.6783,4.726245 -0.150727,0 -0.589988,-0.998434 -0.976165,-2.218786 z M 2.51812,42.395074 C -0.11014561,41.742345 0.000670203534,42.039326 0.000670203534,35.643849 0.000670203534,28.339076 1.3431135,26.463333 6.9030879,25.999408 8.5457204,25.862272 8.5615566,25.848962 8.7414206,24.465255 9.6299312,17.629127 20.927427,15.88451 23.538749,22.1802 c 0.444034,1.070511 0.523091,1.103343 2.659413,1.103343 4.159228,0 7.227903,2.544889 7.627192,6.325296 0.0977,0.924985 0.532588,2.239961 0.966437,2.922215 1.784776,2.806698 0.599629,7.440053 -2.330511,9.111222 -1.350108,0.770021 -27.2517952,1.421217 -29.94316,0.752798 z m 36.046879,-2.630801 c -2.553989,-1.39379 -2.553989,-1.39379 -2.397222,-3.295509 0.140485,-1.704444 1.408869,-4.076581 1.868583,-3.494638 0.170457,0.215788 3.586116,7.918175 3.586116,8.086732 0,0.296456 -0.620059,0.03227 -3.057477,-1.296585 z m -4.00825,-8.659881 c -0.0091,-0.06574 -0.0709,-0.783896 -0.137045,-1.596026 -0.313172,-3.848088 -3.932789,-6.94128 -8.122639,-6.94128 -1.30503,0 -1.61378,-0.185941 -3.212891,-1.936406 -1.856467,-2.031999 -4.080829,-3.078471 -6.543586,-3.078471 -2.598543,0 2.529212,-4.568901 6.262317,-5.579798 9.129347,-2.4721656 17.041899,7.449613 13.427231,16.836761 -0.65246,1.694401 -1.578744,2.964889 -1.673394,2.29522 z m 5.387434,-7.104432 c 0,-2.997318 0.05393,-3.278165 0.587403,-3.057053 0.323074,0.13391 2.135635,0.815558 4.02792,1.514712 C 46.451792,23.156772 48,23.850804 48,23.99996 c 0,0.149236 -1.548208,0.843147 -3.440494,1.5423 -1.892285,0.699154 -3.704846,1.380802 -4.02792,1.514712 -0.533435,0.221032 -0.587403,-0.05969 -0.587403,-3.057012 z M 4.4481629,24.837339 C 2.4745798,24.091801 2.6278511,23.840518 5.728176,22.738668 8.893592,21.613665 8.7568147,21.560424 8.2786513,23.731293 7.8502152,25.676372 7.1809325,25.869653 4.4481629,24.837339 Z M 11.161427,11.041417 C 10.192246,8.8431603 9.4514619,6.9889148 9.5152376,6.920871 c 0.1016316,-0.1084991 7.1980754,3.36323 7.5848834,3.710629 0.162444,0.14601 -3.708322,4.415268 -3.998212,4.409984 -0.09808,-0.0014 -0.971302,-1.801852 -1.940482,-4.000067 z m 24.595693,1.863441 c -1.091331,-1.176953 -1.917366,-2.19995 -1.835615,-2.273358 0.386808,-0.347278 7.483258,-3.8190878 7.584879,-3.710629 0.154356,0.1645636 -3.357723,8.116418 -3.586664,8.120613 -0.09808,0.0013 -1.071257,-0.959713 -2.1626,-2.136626 z M 22.646217,7.9701258 C 22.771698,7.6252681 23.410419,5.6910397 24.065563,3.6716255 24.72071,1.6522113 25.371073,0 25.510809,0 c 0.139729,0 0.790099,1.6522113 1.445247,3.6716255 0.655143,2.0194142 1.29385,3.9537232 1.419345,4.2985003 0.207194,0.5692774 -0.05598,0.6268747 -2.864592,0.6268747 -2.808636,0 -3.071797,-0.057678 -2.864592,-0.6268747 z" fill="#fff" />
</svg>
