<?xml version="1.0" encoding="UTF-8"?>
<svg viewBox="0 0 48 48" xmlns="http://www.w3.org/2000/svg">
  <path
     d="M 25 1.5 C 24.856408 1.5 24.188851 3.0368354 23.515625 4.9160156 C 22.842401 6.7951959 22.185584 8.5951058 22.056641 8.9160156 C 21.843718 9.4456853 22.113861 9.5 25 9.5 C 27.886113 9.5 28.156271 9.4457609 27.943359 8.9160156 C 27.814401 8.5951806 27.157597 6.7951959 26.484375 4.9160156 C 25.811148 3.0368354 25.143585 1.5 25 1.5 z M 9.5117188 8.0117188 C 9.4101884 8.1132485 10.024214 9.671739 10.876953 11.476562 C 11.729694 13.281384 12.53815 15.017886 12.673828 15.335938 C 12.897862 15.861076 13.12718 15.708759 15.167969 13.667969 C 17.20878 11.627158 17.361031 11.397804 16.835938 11.173828 C 16.517843 11.038087 14.781385 10.229694 12.976562 9.3769531 C 11.17174 8.5242141 9.6132538 7.9101836 9.5117188 8.0117188 z M 41.082031 8.3105469 C 40.980496 8.2090119 39.422012 8.8249954 37.617188 9.6777344 C 35.812365 10.530474 34.075907 11.338868 33.757812 11.474609 C 33.23272 11.698585 33.38497 11.927939 35.425781 13.96875 C 37.46657 16.00954 37.695888 16.161857 37.919922 15.636719 C 38.0556 15.318668 38.864056 13.582165 39.716797 11.777344 C 40.569536 9.9725194 41.183561 8.4120768 41.082031 8.3105469 z M 24.892578 10 A 13 13 0 0 0 12.539062 19.294922 C 12.782496 19.266874 13.074602 19.251953 13.449219 19.251953 C 15.123179 19.251953 15.167866 19.323811 16.095703 20.082031 C 16.508799 20.419613 16.608361 20.520535 16.667969 20.427734 C 16.703539 20.372354 17.179798 19.396892 17.199219 19.349609 C 17.265399 19.188473 17.324817 19.085237 17.589844 18.673828 C 18.511872 17.242544 19.624273 16.625145 21.289062 16.285156 C 21.964475 16.147216 23.416957 16.139586 24.058594 16.273438 C 25.546833 16.584187 26.700594 17.240165 27.539062 18.28125 C 28.120632 19.003356 28.686256 19.847499 28.941406 20.820312 C 29.172745 21.702345 29.179475 21.734483 29.208984 22.037109 C 29.227694 22.355951 29.249476 23.63468 29.160156 24.707031 C 29.124776 25.131763 29.050307 26.388749 29.117188 26.417969 C 29.158897 26.436189 29.403239 26.460926 29.740234 26.441406 C 31.42886 26.343976 32.734625 26.89443 33.681641 28.048828 C 34.406844 28.932839 34.760978 30.187201 34.716797 31.636719 A 13 13 0 0 0 38 23 A 13 13 0 0 0 25 10 A 13 13 0 0 0 24.892578 10 z M 38.90625 20.003906 C 38.541138 19.952484 38.5 20.474626 38.5 23 C 38.5 25.886113 38.55424 26.156271 39.083984 25.943359 C 39.404819 25.814401 41.204804 25.157597 43.083984 24.484375 C 44.963165 23.811148 46.5 23.143585 46.5 23 C 46.5 22.856408 44.963165 22.188851 43.083984 21.515625 C 41.204804 20.842401 39.404894 20.185584 39.083984 20.056641 C 39.017774 20.030021 38.958409 20.011246 38.90625 20.003906 z M 10.521484 20.201172 C 9.9814297 20.406804 8.6097519 20.908837 6.9160156 21.515625 C 5.0368346 22.188856 3.5 22.856408 3.5 23 C 3.5 23.143585 5.0368346 23.811148 6.9160156 24.484375 C 7.2757082 24.613236 7.3375686 24.6396 7.6816406 24.763672 C 7.8727279 23.670208 8.1458017 22.846497 8.5429688 22.212891 C 8.9927826 21.495292 9.7710981 20.722095 10.521484 20.201172 z M 37.113281 30.505859 C 36.823845 30.560956 36.265049 31.086513 34.925781 32.425781 C 34.789976 32.561587 34.726858 32.629705 34.607422 32.75 C 34.456995 33.716289 34.193405 34.521001 33.806641 35.175781 C 34.402163 35.445448 35.569081 35.98535 37.117188 36.716797 C 38.922011 37.569536 40.480496 38.183566 40.582031 38.082031 C 40.683561 37.980501 40.069536 36.422012 39.216797 34.617188 C 38.364056 32.812367 37.5556 31.075865 37.419922 30.757812 C 37.363912 30.626528 37.307529 30.537351 37.222656 30.509766 C 37.190829 30.499421 37.154629 30.497988 37.113281 30.505859 z M 27.988281 36.837891 L 22.011719 36.839844 C 22.004309 36.9081 22.017116 36.985661 22.056641 37.083984 C 22.185584 37.404894 22.842401 39.204804 23.515625 41.083984 C 24.188851 42.963164 24.856408 44.5 25 44.5 C 25.143585 44.5 25.811148 42.963164 26.484375 41.083984 C 27.157597 39.204804 27.814401 37.404819 27.943359 37.083984 C 27.983256 36.984717 27.996343 36.906536 27.988281 36.837891 z M 9.9003906 36.839844 C 9.6219295 37.534645 9.4577812 38.028094 9.5117188 38.082031 C 9.6072704 38.177582 11.030077 37.614297 12.697266 36.839844 L 9.9003906 36.839844 z " fill="#ffffff" />
  <path
     d="m 31.709038,36.586227 -14,0.0008074 -14.8066748,0.0009974 C 2.4122759,36.594299 2.2108591,36.546985 1.7466774,36.057788 1.0233611,35.080281 0.79557415,34.440194 0.57738587,33.187686 0.3823679,32.068187 0.39809007,30.993578 0.62424327,29.98454 0.94955205,28.533127 1.8631018,27.281749 3.1187682,26.567539 3.8649808,26.143102 4.373132,26.027977 5.5030236,26.027374 c 0.8899891,-0.0004974 1.5066028,0.09862 1.9052995,0.306207 0.2652901,0.138121 0.3939868,0.168812 0.3953515,0.09427 0.00043724,-0.02281 0.043791,-0.386605 0.096388,-0.808438 0.182461,-1.463334 0.4811063,-2.474278 0.9538966,-3.229032 0.5177062,-0.826462 1.3544878,-1.701191 2.1877148,-2.177506 0.52531,-0.300294 1.077519,-0.73392 2.5167,-0.734115 1.61859,-0.0002194 1.677147,0.3028 2.638318,1.006238 0.397552,0.29095 0.450237,0.348732 0.516734,0.318901 0.05828,-0.02615 0.06164,-0.104549 0.160515,-0.265673 0.08334,-0.135813 0.437802,-1.045434 0.694882,-1.444766 0.894367,-1.389275 1.99211,-2.224239 3.606956,-2.554249 0.655151,-0.133891 2.144414,-0.138366 2.766802,-0.0084 1.443592,0.301628 2.659001,1.008261 3.472316,2.018789 0.564123,0.700912 1.01201,1.582301 1.280908,2.520683 0.24657,0.86046 0.285691,1.299498 0.269055,2.212697 -0.06607,1.090501 -0.162374,1.368351 -0.162899,2.379828 -0.0002374,0.456207 0.03194,0.927498 0.07305,0.978275 0.04251,0.05251 0.174076,0.06416 0.507654,0.0817 1.637967,-0.09457 2.941574,0.128482 3.86018,1.248997 0.826301,1.007921 1.453988,2.225587 1.241587,3.950993 -0.240137,1.9507 -0.945831,3.161953 -1.402075,3.931124 -0.176074,0.246058 -0.586779,0.739714 -1.373319,0.73233 z" fill="#ffffff" />
</svg>
