<?xml version="1.0" encoding="UTF-8"?>
<svg viewBox="0 0 48 48" xmlns="http://www.w3.org/2000/svg">
  <path
     style="fill:#ffffff"
     d="M 7 5 C 5.892 5 5 5.892 5 7 L 5 41 C 5 42.108 5.892 43 7 43 L 41 43 C 42.108 43 43 42.108 43 41 L 43 7 C 43 5.892 42.108 5 41 5 L 7 5 z M 13.244141 7.5644531 C 14.247703 7.5809731 15.295258 7.9676893 16.337891 8.8261719 L 22.669922 14.939453 L 21.177734 16.287109 L 24.017578 19.080078 L 26.955078 16.216797 L 25.775391 14.794922 L 31.552734 9.0664062 C 36.51199 4.2516375 42.508287 12.941941 41.472656 16.769531 L 39.714844 15.421875 L 34.25 20.886719 L 32.419922 19.394531 L 32.419922 15.734375 L 31 16.9375 L 31 21.609375 L 28.736328 23.798828 L 40.511719 35.572266 L 35.525391 40.505859 L 23.632812 28.589844 L 12.125 40.265625 L 7.2148438 35.259766 L 18.960938 23.679688 L 16.650391 21.369141 L 16.650391 16.769531 L 15.470703 15.880859 L 15.470703 19.394531 L 13.568359 20.984375 L 8.25 15.253906 L 6.5175781 16.697266 C 6.6493841 12.146245 9.659985 7.5054483 13.244141 7.5644531 z "
     id="rect2" />
</svg>
