<?xml version="1.0" encoding="UTF-8"?>
<svg version="1.1" viewBox="0 0 48 48" xmlns="http://www.w3.org/2000/svg">
    <defs>
        <style>.cls-1{fill:#fff;}</style>
    </defs>
    <path class="cls-1" d="m20.349 5.0898c-2.5004 0.00362-4.7793 1.8244-6.7793 3.1504l-2.6387 1.7031c-0.25377 0.23946-0.60196 0.68605-0.375 1.0488 0.53792 0.86674 2.8081-0.36137 3.3711-0.74024 2.1731-1.4565 4.9495-3.8599 7.6855-3.9707 0.7631-0.030372 1.2286 0.075371 1.9648 0.17188-0.65587-0.81849-1.1313-1.0245-2.1445-1.2461-0.36613-0.08042-0.72678-0.1177-1.084-0.11719zm15.594 0.49805c-0.58483-0.025913-1.1815 0.01541-1.6426 0.076172-2.048 0.26628-3.0488 0.41159-5.0039 1.2891-0.82028 0.36993-2.0373 1.1072-2.8594 1.2734-1.998 0.40389-2.0685-1.1184-4.4668-1.2363 0.43248 0.64872 1.566 2.3477 2.1504 2.7266 0.46106 0.30023 0.89484 0.30859 1.4238 0.30859 2.5734 6e-3 4.104-1.5403 6.2539-2.5l-0.35742-0.53516 6.0762-1.0723c-0.4164-0.21088-0.98939-0.30416-1.5742-0.33008zm-15.76 8.1934c-4.0853 0.0081-6.7839 2.7075-6.791 6.791v15.369c0 0.45214-0.02065 0.999 0.11523 1.4297 0.67018 2.1374 2.7513 1.9648 4.5312 1.9648l-1.252 3.5742h17.871l-1.25-3.5742c2.5145-0.0031 3.7484-0.68706 3.752-3.3945v-15.369c-0.0081-4.0835-2.7057-6.7839-6.791-6.791zm9.5391 0.72852c1.8035 0.0393 3.4507 0.31432 4.9277 1.7793 0.59154 0.58616 1.0293 1.1673 1.3027 1.959 0.24126 0.69876 0.3055 1.2359 0.31445 1.9668v15.547c-3e-3 1.0044 0.02691 1.735-0.90234 2.373-0.71306 0.48788-1.6667 0.48454-2.4941 0.48633h-15.189c-0.98472-3e-3 -2.0713-0.0044-2.8184-0.75391-0.59152-0.59511-0.57453-1.1502-0.57812-1.9258v-13.404c0-1.494-0.15984-3.2686 0.45312-4.6465 0.95253-2.1392 2.9237-3.0124 5.0879-3.377h8.041c0.63487-0.0044 1.2543-0.01702 1.8555-0.0039zm-8.9473 3.2148c-2.77 0-5 2.154-5 4.8301 0.01849 1.5444 0 3.1483 0 4.75 0 0.80026 0.892 1.4453 2 1.4453h15c1.108 0 2-0.64506 2-1.4453v-4.75c0-2.6761-2.23-4.8301-5-4.8301zm8.5391 0.82422c2.5076 0 4.5273 1.8713 4.5273 4.1953v4.125c0 0.69496-0.80751 1.2559-1.8105 1.2559h-13.58c-1.003 0-1.8105-0.5609-1.8105-1.2559 0.0047-1.3751 0-2.7531 0-4.125 0-2.324 2.0198-4.1934 4.5273-4.1934zm-7.9668 0.89648c-1.2938 0.04873-2.7903 0.59865-3.3867 1.8418-0.40925 0.85245-0.2793 2.7512-0.2793 3.752 1.1634-0.77916-0.04453-2.286 1.0098-3.7461 1.3046-1.8068 2.803-0.94589 4.5293-1.4355-0.39406-0.29018-1.0967-0.44134-1.873-0.41211zm-2.416 11.82c-1.6569 0-3 1.3431-3 3s1.3431 3 3 3c1.6569 0 3-1.3431 3-3s-1.3431-3-3-3zm12.867 0c-1.6569 0-3 1.3431-3 3s1.3431 3 3 3 3-1.3431 3-3-1.3431-3-3-3zm-12.867 1c1.1046 0 2 0.89543 2 2s-0.89543 2-2 2c-1.1046 0-2-0.89543-2-2s0.89543-2 2-2zm12.867 0c1.1046 0 2 0.89543 2 2s-0.89543 2-2 2-2-0.89543-2-2 0.89543-2 2-2zm-9.6504 7.0703h6.9707c0.27344 0.0031 0.75322-0.01649 0.99805 0.10156 0.55757 0.26985 1.0375 1.9814 1.1465 2.5801h-11.08c0.10364-0.5683 0.56368-2.1661 1.0176-2.5039 0.25378-0.18942 0.64523-0.17237 0.94726-0.17773zm-3.2168 0.17969h1.0723c-0.10363 0.66658-0.44474 2.0997-1.1113 2.3945-0.25914 0.11438-0.57651 0.09847-0.85352 0.10742zm12.332 0c0.277 0.0099 0.90234 0 0.90234 0l1.0625 2.502c-1.4136-0.11796-1.4895-1.3135-1.9648-2.502z"/>
</svg>
