<?xml version="1.0" encoding="UTF-8" standalone="no"?>
<svg width="48" height="48" viewBox="0 0 48 48" version="1.1" >
    <defs>
        <style>.cls-1{fill:#fff;}</style>
    </defs>
    <path
        class="cls-1"
        d="m 20.34924,5.0898464 c -2.500431,0.00362 -4.779306,1.8243592 -6.779297,3.1503906 l -2.638671,1.703125 c -0.253767,0.239457 -0.601961,0.68605 -0.375,1.048829 0.537922,0.866737 2.808143,-0.36137 3.371093,-0.740235 2.173099,-1.4564964 4.949504,-3.8599031 7.685547,-3.9707034 0.763096,-0.030372 1.228574,0.075371 1.964844,0.171875 C 22.921885,5.6346348 22.446494,5.4286355 21.433225,5.2070338 21.067092,5.1266143 20.706445,5.0893297 20.34924,5.0898464 Z m 15.59375,0.4980468 c -0.584828,-0.025913 -1.181509,0.01541 -1.642578,0.076172 -2.048025,0.2662793 -3.048815,0.411594 -5.003906,1.2890625 -0.82028,0.3699312 -2.037316,1.1072369 -2.859375,1.2734375 -1.99799,0.4038874 -2.068504,-1.1183794 -4.466797,-1.2363281 0.432477,0.6487193 1.565999,2.3476922 2.150391,2.7265625 0.461058,0.3002344 0.894843,0.3085944 1.423828,0.3085944 2.573449,0.006 4.104013,-1.540327 6.253906,-2.5000007 L 31.441037,6.990237 37.517209,5.9179714 C 37.10081,5.7070927 36.527819,5.6138065 35.94299,5.5878932 Z M 20.183225,13.781253 c -4.085315,0.0081 -6.783874,2.70749 -6.791016,6.791016 v 15.36914 c 0,0.452145 -0.02065,0.999003 0.115234,1.429688 0.670177,2.137375 2.751292,1.964844 4.53125,1.964844 l -1.251953,3.574218 h 17.871094 l -1.25,-3.574218 c 2.514456,-0.0031 3.748388,-0.68706 3.751953,-3.394532 v -15.36914 c -0.0081,-4.083526 -2.705686,-6.783868 -6.791015,-6.791016 z m 9.539062,0.728516 c 1.803498,0.0393 3.450696,0.314323 4.927735,1.779296 0.591535,0.586163 1.029315,1.16731 1.302734,1.958985 0.241262,0.698757 0.305505,1.235883 0.314453,1.966797 v 15.546875 c -0.003,1.004353 0.02691,1.735047 -0.902344,2.373047 -0.713059,0.487879 -1.666702,0.484545 -2.49414,0.486328 h -6.96875 -8.220703 c -0.984719,-0.003 -2.071343,-0.0044 -2.81836,-0.753906 -0.591522,-0.59511 -0.574534,-1.150173 -0.578125,-1.925782 v -4.826172 -8.578125 c 0,-1.494005 -0.159845,-3.268626 0.453125,-4.646484 0.952531,-2.139178 2.923726,-3.012364 5.087891,-3.376953 h 4.109375 3.93164 c 0.63487,-0.0044 1.254303,-0.01702 1.855469,-0.0039 z m -8.947265,3.214843 c -2.77,0 -5,2.153981 -5,4.830079 0.01849,1.544361 0,3.148274 0,4.75 0,0.800256 0.891998,1.445312 2,1.445312 h 15 c 1.107998,0 2,-0.645055 2,-1.445312 v -4.75 c 0,-2.676098 -2.23,-4.830079 -5,-4.830079 z m 8.539062,0.824219 c 2.507578,0 4.527344,1.871333 4.527344,4.195313 v 4.125 c 0,0.694957 -0.807506,1.255859 -1.810547,1.255859 H 18.450803 c -1.003043,0 -1.810547,-0.560902 -1.810547,-1.255859 0.0047,-1.375127 0,-2.753147 0,-4.125 0,-2.32398 2.019766,-4.19336 4.527344,-4.19336 z m -7.966797,0.896484 c -1.293841,0.04873 -2.79028,0.598647 -3.386719,1.841797 -0.40925,0.852451 -0.279296,2.751189 -0.279296,3.751953 1.163384,-0.779164 -0.04453,-2.28603 1.009765,-3.746093 1.304587,-1.806775 2.802952,-0.945892 4.529297,-1.435547 -0.394065,-0.290183 -1.096742,-0.441344 -1.873047,-0.41211 z m -2.416015,11.820313 c -1.656854,0 -3,1.343146 -3,3 0,1.656854 1.343146,3 3,3 1.656853,0 3,-1.343146 3,-3 0,-1.656854 -1.343147,-3 -3,-3 z m 12.867187,0 c -1.656854,0 -3,1.343146 -3,3 0,1.656854 1.343146,3 3,3 1.656854,0 3,-1.343146 3,-3 0,-1.656854 -1.343146,-3 -3,-3 z m -12.867187,1 c 1.104569,0 2,0.895431 2,2 0,1.104569 -0.895431,2 -2,2 -1.10457,0 -2,-0.895431 -2,-2 0,-1.104569 0.89543,-2 2,-2 z m 12.867187,0 c 1.104569,0 2,0.895431 2,2 0,1.104569 -0.895431,2 -2,2 -1.104569,0 -2,-0.895431 -2,-2 0,-1.104569 0.895431,-2 2,-2 z m -9.650391,7.070313 h 6.970704 c 0.27344,0.0031 0.753217,-0.01649 0.998046,0.101562 0.557574,0.269854 1.037468,1.981401 1.146485,2.580078 H 20.183225 c 0.103641,-0.5683 0.563677,-2.166139 1.017578,-2.503906 0.25378,-0.189424 0.645229,-0.17237 0.947265,-0.177734 z m -3.216796,0.179687 h 1.072265 c -0.103633,0.666578 -0.444741,2.099657 -1.111328,2.394531 -0.259137,0.114375 -0.576513,0.09847 -0.853516,0.107422 z m 12.332031,0 c 0.277004,0.0099 0.902343,0 0.902343,0 l 1.0625,2.501953 c -1.413599,-0.117958 -1.48947,-1.313538 -1.964843,-2.501953 z"
        id="railplanner" />
</svg>
