<?xml version="1.0" encoding="UTF-8" standalone="no"?>
<!-- Created with Inkscape (http://www.inkscape.org/) -->

<svg
   xmlns:dc="http://purl.org/dc/elements/1.1/"
   xmlns:cc="http://creativecommons.org/ns#"
   xmlns:rdf="http://www.w3.org/1999/02/22-rdf-syntax-ns#"
   xmlns:svg="http://www.w3.org/2000/svg"
   xmlns="http://www.w3.org/2000/svg"
   xmlns:sodipodi="http://sodipodi.sourceforge.net/DTD/sodipodi-0.dtd"
   xmlns:inkscape="http://www.inkscape.org/namespaces/inkscape"
   id="SVGRoot"
   version="1.1"
   viewBox="0 0 48 48"
   height="48px"
   width="48px"
   sodipodi:docname="rainymood.svg"
   inkscape:version="0.92.4 (5da689c313, 2019-01-14)">
  <defs
     id="defs3732" />
  <sodipodi:namedview
     id="base"
     pagecolor="#000000"
     bordercolor="#666666"
     borderopacity="1.0"
     inkscape:pageopacity="0"
     inkscape:pageshadow="2"
     inkscape:zoom="7.5424726"
     inkscape:cx="-11.111766"
     inkscape:cy="17.130776"
     inkscape:document-units="px"
     inkscape:current-layer="g22"
     showgrid="false"
     inkscape:window-width="1366"
     inkscape:window-height="714"
     inkscape:window-x="0"
     inkscape:window-y="0"
     inkscape:window-maximized="1"
     inkscape:grid-bbox="true"
     inkscape:snap-text-baseline="true" />
  <metadata
     id="metadata3735">
    <rdf:RDF>
      <cc:Work
         rdf:about="">
        <dc:format>image/svg+xml</dc:format>
        <dc:type
           rdf:resource="http://purl.org/dc/dcmitype/StillImage" />
        <dc:title></dc:title>
      </cc:Work>
    </rdf:RDF>
  </metadata>
  <g
     style="display:inline"
     inkscape:label="Layer 2 copy"
     id="g22"
     inkscape:groupmode="layer">
    <g
       aria-label="Rainy"
       style="font-style:normal;font-weight:normal;font-size:40px;line-height:1.25;font-family:sans-serif;letter-spacing:0px;word-spacing:0px;fill:#ffffff;fill-opacity:1;stroke:#ffffff;stroke-width:0.30000001;stroke-linejoin:miter;stroke-miterlimit:4;stroke-dasharray:none;stroke-opacity:1"
       id="text15">
      <path
         d="m 5.9191117,21.048637 q 0,0.498047 0.011719,0.873047 0.017578,0.369141 0.035156,0.638672 0.023437,0.269531 0.052734,0.451172 0.035156,0.181641 0.070312,0.304688 v 0.02344 h -1.40625 v -0.02344 q 0.035156,-0.123047 0.064453,-0.304688 0.035156,-0.181641 0.058594,-0.451172 0.023437,-0.269531 0.035156,-0.638672 0.011719,-0.375 0.011719,-0.873047 v -3.814453 q 0,-0.498047 -0.011719,-0.867187 -0.011719,-0.375 -0.035156,-0.644531 -0.023437,-0.275391 -0.058594,-0.457032 -0.029297,-0.18164 -0.064453,-0.304687 v -0.02344 q 0.1171875,0.01172 0.2460938,0.02344 0.1113281,0.01172 0.2460937,0.01758 0.140625,0 0.2871094,0 0.2285156,0 0.6152344,-0.05273 0.3925781,-0.05859 0.9960937,-0.05859 0.5625,0 1.0371094,0.152344 0.4804687,0.152343 0.8320312,0.445312 0.3515625,0.292969 0.5449219,0.720703 0.1992188,0.421875 0.1992188,0.960938 0,0.421875 -0.1113282,0.785156 -0.1054687,0.357422 -0.3046875,0.650391 -0.1933593,0.292968 -0.46875,0.521484 -0.2753906,0.222656 -0.6152343,0.375 l 2.05664,2.888672 q 0.152344,0.216797 0.28125,0.375 0.134766,0.158203 0.251954,0.269531 0.123046,0.111328 0.234375,0.1875 0.111328,0.07031 0.228515,0.117188 v 0.02344 H 9.5460649 q -0.017578,-0.111328 -0.1171875,-0.292969 -0.09375,-0.1875 -0.2226563,-0.36914 L 7.1320024,19.753716 q -0.2871094,0.0293 -0.5917969,0.0293 -0.3046875,0 -0.6210938,-0.05273 z m 0,-1.77539 q 0.5742188,0.105469 1.0488282,0.0293 0.4804687,-0.07617 0.8203125,-0.333985 0.3457031,-0.257812 0.5332031,-0.697265 0.1933594,-0.445313 0.1933594,-1.078125 0,-0.439453 -0.099609,-0.796875 Q 8.3155961,16.038872 8.1163774,15.792778 7.923018,15.540825 7.6241899,15.406059 7.3253617,15.265434 6.9269242,15.265434 q -0.2519531,0 -0.4394531,0.02344 -0.1875,0.01758 -0.3164062,0.04101 -0.1523438,0.0293 -0.2519532,0.06445 z"
         style="font-style:normal;font-variant:normal;font-weight:normal;font-stretch:normal;font-size:12px;font-family:'Marcellus SC';-inkscape-font-specification:'Marcellus SC';fill:#ffffff;stroke:#ffffff;stroke-width:0.30000001;stroke-linejoin:miter;stroke-miterlimit:4;stroke-dasharray:none;stroke-opacity:1"
         id="path24"
         inkscape:connector-curvature="0" />
      <path
         d="m 15.540205,21.359184 q -0.158203,0 -0.398437,0 -0.234375,0 -0.515625,0 -0.28125,0 -0.580078,0 -0.298828,0 -0.56836,0.0059 -0.269531,0 -0.492187,0.0059 -0.222656,0 -0.345703,0 l -0.216797,0.457031 q -0.140625,0.28125 -0.240234,0.492188 -0.09961,0.205078 -0.164063,0.363281 -0.06445,0.158203 -0.09375,0.275391 -0.0293,0.111328 -0.0293,0.210937 0,0.06445 0.0059,0.09961 0.0059,0.0293 0.01758,0.04687 v 0.02344 h -1.03125 v -0.02344 q 0.04101,-0.04102 0.128906,-0.175782 0.08789,-0.140625 0.199219,-0.339843 0.117187,-0.199219 0.246093,-0.451172 0.134766,-0.251953 0.263672,-0.521485 l 2.390625,-4.933593 h 0.439453 l 2.34375,4.933593 q 0.134766,0.28125 0.269532,0.539063 0.140625,0.257812 0.257812,0.46289 0.117188,0.199219 0.205078,0.333985 0.08789,0.128906 0.117188,0.152344 v 0.02344 h -1.5 q 0.01172,-0.04687 0.01172,-0.08203 0,-0.04102 0,-0.08789 0,-0.128906 -0.05859,-0.310547 -0.05273,-0.18164 -0.134766,-0.36914 -0.07617,-0.19336 -0.164062,-0.369141 -0.08203,-0.175781 -0.134766,-0.292969 z M 12.86833,20.902153 h 0.357422 q 0.246094,0 0.521485,0 0.28125,-0.0059 0.5625,-0.0059 0.28125,0 0.544922,0 0.263671,-0.0059 0.474609,-0.0059 L 14.116377,18.30051 Z"
         style="font-style:normal;font-variant:normal;font-weight:normal;font-stretch:normal;font-size:12px;font-family:'Marcellus SC';-inkscape-font-specification:'Marcellus SC';fill:#ffffff;stroke:#ffffff;stroke-width:0.30000001;stroke-linejoin:miter;stroke-miterlimit:4;stroke-dasharray:none;stroke-opacity:1"
         id="path26"
         inkscape:connector-curvature="0" />
      <path
         d="m 18.68083,19.449028 q 0,-0.527344 -0.01172,-0.914062 -0.01172,-0.392579 -0.03516,-0.673829 -0.01758,-0.287109 -0.05273,-0.480468 -0.0293,-0.19336 -0.07031,-0.316407 v -0.02344 h 1.359375 v 0.02344 q -0.04102,0.123047 -0.07617,0.316407 -0.0293,0.193359 -0.05273,0.480468 -0.01758,0.28125 -0.0293,0.673829 -0.01172,0.386718 -0.01172,0.914062 v 1.476563 q 0,0.527343 0.01172,0.919921 0.01172,0.392579 0.0293,0.679688 0.02344,0.28125 0.05273,0.474609 0.03516,0.19336 0.07617,0.316407 v 0.02344 H 18.51091 v -0.02344 q 0.04101,-0.123047 0.07031,-0.316407 0.03516,-0.193359 0.05273,-0.474609 0.02344,-0.287109 0.03516,-0.679688 0.01172,-0.392578 0.01172,-0.919921 z"
         style="font-style:normal;font-variant:normal;font-weight:normal;font-stretch:normal;font-size:12px;font-family:'Marcellus SC';-inkscape-font-specification:'Marcellus SC';fill:#ffffff;stroke:#ffffff;stroke-width:0.30000001;stroke-linejoin:miter;stroke-miterlimit:4;stroke-dasharray:none;stroke-opacity:1"
         id="path28"
         inkscape:connector-curvature="0" />
      <path
         d="m 27.141768,23.421684 h -0.228516 l -4.658203,-4.582031 v 2.085938 q 0,0.527343 0.0059,0.919921 0.0059,0.392579 0.01758,0.679688 0.01758,0.28125 0.04102,0.474609 0.0293,0.19336 0.07031,0.316407 v 0.02344 h -0.878906 v -0.02344 q 0.04101,-0.123047 0.07031,-0.316407 0.0293,-0.193359 0.04687,-0.474609 0.01758,-0.287109 0.02344,-0.679688 0.0059,-0.392578 0.0059,-0.919921 v -1.476563 q 0,-0.527344 -0.0059,-0.914062 -0.0059,-0.392579 -0.02344,-0.673829 -0.01758,-0.287109 -0.04687,-0.480468 -0.0293,-0.19336 -0.07031,-0.316407 v -0.02344 h 0.363281 l 4.664062,4.605469 v -2.197266 q 0,-0.527344 -0.0059,-0.914062 -0.0059,-0.392579 -0.02344,-0.673829 -0.01172,-0.287109 -0.03516,-0.480468 -0.02344,-0.19336 -0.06445,-0.316407 v -0.02344 h 0.873047 v 0.02344 q -0.04102,0.123047 -0.07031,0.316407 -0.02344,0.193359 -0.04102,0.480468 -0.01758,0.28125 -0.02344,0.673829 -0.0059,0.386718 -0.0059,0.914062 z"
         style="font-style:normal;font-variant:normal;font-weight:normal;font-stretch:normal;font-size:12px;font-family:'Marcellus SC';-inkscape-font-specification:'Marcellus SC';fill:#ffffff;stroke:#ffffff;stroke-width:0.30000001;stroke-linejoin:miter;stroke-miterlimit:4;stroke-dasharray:none;stroke-opacity:1"
         id="path30"
         inkscape:connector-curvature="0" />
      <path
         d="m 31.583174,20.925591 q 0,0.527343 0.01172,0.919921 0.01172,0.392579 0.0293,0.679688 0.02344,0.28125 0.05273,0.474609 0.03516,0.19336 0.07617,0.316407 v 0.02344 h -1.359375 v -0.02344 q 0.04102,-0.123047 0.07031,-0.316407 0.03516,-0.193359 0.05273,-0.474609 0.02344,-0.287109 0.03516,-0.679688 0.01172,-0.392578 0.01172,-0.919921 v -0.404297 l -2.109375,-2.783203 q -0.210938,-0.28125 -0.404297,-0.451172 -0.193359,-0.175782 -0.292969,-0.222657 v -0.02344 h 1.664063 q 0,0.105469 0.07617,0.328125 0.07617,0.216797 0.310547,0.533203 l 1.488281,1.96875 1.523437,-2.050781 q 0.164063,-0.222656 0.246094,-0.439453 0.08789,-0.216797 0.08789,-0.339844 h 1.072265 v 0.02344 q -0.146484,0.09961 -0.304687,0.251954 -0.152344,0.152343 -0.357422,0.433593 l -1.980469,2.683594 z"
         style="font-style:normal;font-variant:normal;font-weight:normal;font-stretch:normal;font-size:12px;font-family:'Marcellus SC';-inkscape-font-specification:'Marcellus SC';fill:#ffffff;stroke:#ffffff;stroke-width:0.30000001;stroke-linejoin:miter;stroke-miterlimit:4;stroke-dasharray:none;stroke-opacity:1"
         id="path32"
         inkscape:connector-curvature="0" />
    </g>
    <g
       aria-label="Mood"
       style="font-style:normal;font-weight:normal;font-size:40px;line-height:1.25;font-family:sans-serif;letter-spacing:0px;word-spacing:0px;display:inline;fill:#ffffff;fill-opacity:1;stroke:#ffffff;stroke-width:0.30000001;stroke-linejoin:miter;stroke-miterlimit:4;stroke-dasharray:none;stroke-opacity:1"
       id="text20">
      <path
         d="m 11.063838,32.814827 q 0.06445,-0.09375 0.146484,-0.275391 0.08203,-0.1875 0.128907,-0.46875 0.06445,-0.410156 0.140625,-0.919922 0.08203,-0.515625 0.164062,-1.078125 0.08789,-0.5625 0.169922,-1.148437 0.08789,-0.591797 0.164063,-1.160156 0.08203,-0.574219 0.152343,-1.101563 0.07617,-0.533203 0.134766,-0.972656 0.05859,-0.439453 0.09375,-0.761719 0.04102,-0.328125 0.05859,-0.492187 h 0.74414 l 3.685547,6.890625 3.65625,-6.890625 h 0.556641 l 0.960937,6.960937 q 0.04102,0.328125 0.08789,0.5625 0.04687,0.234375 0.09375,0.404297 0.04687,0.164063 0.08789,0.275391 0.04687,0.105468 0.08789,0.175781 v 0.02344 h -1.476562 v -0.02344 q 0.0293,-0.06445 0.05273,-0.210938 0.0293,-0.146484 0.0293,-0.351562 0,-0.07617 -0.0059,-0.152344 -0.0059,-0.08203 -0.01758,-0.175781 l -0.74414,-5.613281 -3.457031,6.503906 -0.404297,-0.04687 -3.480469,-6.515625 q -0.205078,1.388672 -0.357422,2.566406 -0.06445,0.503906 -0.128906,1.007813 -0.06445,0.498047 -0.117188,0.93164 -0.04687,0.433594 -0.07617,0.767578 -0.0293,0.328125 -0.0293,0.486329 0,0.199218 0.01172,0.351562 0.01172,0.152344 0.02344,0.257813 0.01758,0.123046 0.03516,0.216796 h -1.171875 z"
         style="font-style:normal;font-variant:normal;font-weight:normal;font-stretch:normal;font-size:12px;font-family:'Marcellus SC';-inkscape-font-specification:'Marcellus SC';fill:#ffffff;stroke:#ffffff;stroke-width:0.30000001;stroke-linejoin:miter;stroke-miterlimit:4;stroke-dasharray:none;stroke-opacity:1"
         id="path35"
         inkscape:connector-curvature="0" />
      <path
         d="m 23.286494,29.668343 q 0,-0.691407 0.257813,-1.283204 0.263672,-0.591796 0.714844,-1.02539 0.451171,-0.439453 1.066406,-0.685547 0.615234,-0.246094 1.318359,-0.246094 0.691406,0 1.300781,0.234375 0.615235,0.228516 1.066407,0.65625 0.457031,0.427735 0.720703,1.03711 0.263672,0.609375 0.263672,1.365234 0,0.626953 -0.222657,1.212891 -0.222656,0.580078 -0.65039,1.03125 -0.427735,0.445312 -1.054688,0.714843 -0.626953,0.263672 -1.435547,0.263672 -0.685546,0 -1.294921,-0.228515 -0.609375,-0.228516 -1.066407,-0.650391 -0.457031,-0.427734 -0.720703,-1.03125 -0.263672,-0.609375 -0.263672,-1.365234 z m 3.492188,2.859375 q 0.445312,0 0.820312,-0.175782 0.375,-0.175781 0.644532,-0.503906 0.27539,-0.328125 0.421875,-0.796875 0.152343,-0.474609 0.152343,-1.066406 0,-0.673828 -0.146484,-1.248047 -0.140625,-0.574219 -0.433594,-0.990234 -0.287109,-0.421875 -0.720703,-0.65625 -0.433594,-0.240235 -1.013672,-0.240235 -0.445312,0 -0.820312,0.169922 -0.375,0.169922 -0.650391,0.492188 -0.269531,0.322265 -0.421875,0.791015 -0.152344,0.46875 -0.152344,1.066406 0,0.667969 0.146485,1.248047 0.152343,0.574219 0.439453,1.001953 0.292969,0.421875 0.726562,0.667969 0.433594,0.240235 1.007813,0.240235 z"
         style="font-style:normal;font-variant:normal;font-weight:normal;font-stretch:normal;font-size:12px;font-family:'Marcellus SC';-inkscape-font-specification:'Marcellus SC';fill:#ffffff;stroke:#ffffff;stroke-width:0.30000001;stroke-linejoin:miter;stroke-miterlimit:4;stroke-dasharray:none;stroke-opacity:1"
         id="path37"
         inkscape:connector-curvature="0" />
      <path
         d="m 30.856807,29.668343 q 0,-0.691407 0.257812,-1.283204 0.263672,-0.591796 0.714844,-1.02539 0.451172,-0.439453 1.066406,-0.685547 0.615235,-0.246094 1.31836,-0.246094 0.691406,0 1.300781,0.234375 0.615234,0.228516 1.066406,0.65625 0.457031,0.427735 0.720703,1.03711 0.263672,0.609375 0.263672,1.365234 0,0.626953 -0.222656,1.212891 -0.222656,0.580078 -0.650391,1.03125 -0.427734,0.445312 -1.054687,0.714843 -0.626953,0.263672 -1.435547,0.263672 -0.685547,0 -1.294922,-0.228515 -0.609375,-0.228516 -1.066406,-0.650391 -0.457031,-0.427734 -0.720703,-1.03125 -0.263672,-0.609375 -0.263672,-1.365234 z m 3.492187,2.859375 q 0.445313,0 0.820313,-0.175782 0.375,-0.175781 0.644531,-0.503906 0.275391,-0.328125 0.421875,-0.796875 0.152344,-0.474609 0.152344,-1.066406 0,-0.673828 -0.146485,-1.248047 -0.140625,-0.574219 -0.433593,-0.990234 -0.28711,-0.421875 -0.720703,-0.65625 -0.433594,-0.240235 -1.013672,-0.240235 -0.445313,0 -0.820313,0.169922 -0.375,0.169922 -0.65039,0.492188 -0.269532,0.322265 -0.421875,0.791015 -0.152344,0.46875 -0.152344,1.066406 0,0.667969 0.146484,1.248047 0.152344,0.574219 0.439453,1.001953 0.292969,0.421875 0.726563,0.667969 0.433594,0.240235 1.007812,0.240235 z"
         style="font-style:normal;font-variant:normal;font-weight:normal;font-stretch:normal;font-size:12px;font-family:'Marcellus SC';-inkscape-font-specification:'Marcellus SC';fill:#ffffff;stroke:#ffffff;stroke-width:0.30000001;stroke-linejoin:miter;stroke-miterlimit:4;stroke-dasharray:none;stroke-opacity:1"
         id="path39"
         inkscape:connector-curvature="0" />
      <path
         d="m 39.973994,26.955452 q -0.0059,0.480469 -0.01172,0.931641 0,0.193359 -0.0059,0.398437 0,0.199219 -0.0059,0.398438 0,0.199218 0,0.380859 0,0.175781 0,0.316406 0,0.292969 0,0.708985 0.0059,0.410156 0.01172,0.84375 0.0059,0.433593 0.01758,0.83789 0.01172,0.398438 0.0293,0.667969 0.05859,0.01172 0.152343,0.02344 0.09375,0.0059 0.19336,0.01758 0.105468,0.0059 0.205078,0.01172 0.09961,0 0.169922,0 0.322265,0 0.65039,-0.04102 0.333985,-0.04102 0.638672,-0.152344 0.310547,-0.117188 0.580078,-0.316406 0.269532,-0.199219 0.46875,-0.509766 0.205078,-0.316406 0.316407,-0.755859 0.117187,-0.445313 0.117187,-1.048828 0,-1.330079 -0.638672,-2.050782 -0.632812,-0.720703 -1.892578,-0.720703 -0.123047,0 -0.263672,0.0059 -0.134765,0.0059 -0.269531,0.01758 -0.134766,0.0059 -0.257813,0.01758 -0.117187,0.01172 -0.205078,0.01758 z m -1.21289,-0.427734 q 0.140625,0.0059 0.263672,0.0059 0.105468,0.0059 0.205078,0.0059 0.09961,0 0.146484,0 0.08203,0 0.292969,-0.0059 0.210937,-0.0059 0.474609,-0.01172 0.269531,-0.01172 0.5625,-0.01758 0.298828,-0.01172 0.550781,-0.01172 0.685547,0 1.306641,0.158203 0.621094,0.158204 1.089844,0.521485 0.474609,0.357422 0.75,0.943359 0.27539,0.580078 0.27539,1.435547 0,0.919922 -0.316406,1.558594 -0.316406,0.638672 -0.855469,1.042969 -0.539062,0.398437 -1.253906,0.580078 -0.708984,0.175781 -1.5,0.175781 -0.1875,0 -0.46875,-0.01172 -0.28125,-0.01172 -0.574219,-0.02344 -0.292968,-0.01172 -0.55664,-0.02344 -0.257813,-0.01172 -0.392578,-0.01172 v -0.02344 q 0.04101,-0.123047 0.07031,-0.316406 0.03516,-0.19336 0.05274,-0.47461 0.02344,-0.287109 0.03516,-0.679687 0.01172,-0.392578 0.01172,-0.919922 v -1.476563 q 0,-0.527343 -0.01172,-0.919921 -0.01172,-0.392579 -0.03516,-0.679688 -0.01758,-0.287109 -0.05274,-0.480469 -0.0293,-0.193359 -0.07031,-0.316406 z"
         style="font-style:normal;font-variant:normal;font-weight:normal;font-stretch:normal;font-size:12px;font-family:'Marcellus SC';-inkscape-font-specification:'Marcellus SC';fill:#ffffff;stroke:#ffffff;stroke-width:0.30000001;stroke-linejoin:miter;stroke-miterlimit:4;stroke-dasharray:none;stroke-opacity:1"
         id="path41"
         inkscape:connector-curvature="0" />
    </g>
  </g>
</svg>
