<?xml version="1.0" encoding="UTF-8"?>
<svg version="1.1" viewBox="0 0 48 48" xmlns="http://www.w3.org/2000/svg">
    <path d="m12.516 11.313 3.96e-4 1.38e-4c-0.1226 4e-3 -0.25461 0.04913-0.40436 0.16725-0.36684-0.14146-0.72252-0.19061-1.0406 0.09739-0.49115-0.06376-0.65074 0.06772-0.77165 0.22123-0.10782-0.0016-0.80686-0.11084-1.1274 0.3673-0.80552-0.09532-1.0601 0.47382-0.7716 1.0045-0.16452 0.25469-0.33498 0.5063 0.04978 0.99183-0.1361 0.27043-0.051719 0.56378 0.26887 0.9188-0.084618 0.38015 0.081692 0.6483 0.38 0.85732-0.05576 0.52022 0.47707 0.82266 0.63617 0.93044 0.061094 0.30312 0.18844 0.58916 0.79706 0.74731 0.10038 0.45172 0.46615 0.52971 0.82035 0.62452-1.1707 0.68051-2.1746 1.5759-2.1678 3.7728l-0.17147 0.30591c-1.3424 0.81633-2.5501 3.4401-0.66157 5.5727 0.12336 0.66755 0.33029 1.1471 0.5145 1.6777 0.27551 2.1384 2.0736 3.1397 2.5479 3.2581 0.69496 0.52936 1.4351 1.0316 2.4367 1.3835 0.9442 0.9738 1.9671 1.345 2.9956 1.3444 0.01503 0 0.03047 1.78e-4 0.0455 0 1.0285 5.09e-4 2.0514-0.37054 2.9956-1.3444 1.0016-0.35184 1.7418-0.85412 2.4368-1.3835 0.47424-0.11842 2.2723-1.1197 2.5478-3.2581 0.18419-0.53067 0.39108-1.0102 0.51444-1.6777 1.8885-2.1328 0.68083-4.7567-0.66157-5.573l-0.17174-0.30591c0.0065-2.1967-0.99714-3.092-2.1678-3.7727 0.35421-0.09478 0.72006-0.17278 0.82042-0.62452 0.60862-0.15818 0.73593-0.44422 0.797-0.74731 0.15913-0.10775 0.69196-0.41022 0.63617-0.93043 0.2983-0.20905 0.46462-0.47728 0.38-0.8574 0.3206-0.35502 0.40498-0.64836 0.26887-0.9188 0.38479-0.48532 0.21409-0.73695 0.04986-0.99162 0.28825-0.53072 0.03386-1.0999-0.77193-1.0045-0.32044-0.47814-1.0193-0.36954-1.1273-0.36731-0.12093-0.15347-0.28044-0.28493-0.77159-0.22123-0.31807-0.28799-0.67375-0.23885-1.0406-0.09738-0.43561-0.34374-0.72386-0.0682-1.0531 0.03596-0.5274-0.17233-0.64796 0.06376-0.90709 0.15984-0.57516-0.12153-0.74998 0.14307-1.0257 0.42235l-0.32073-0.0065c-0.8675 0.51124-1.2985 1.5522-1.4512 2.0874-0.15283-0.53525-0.58282-1.5763-1.4502-2.0874l-0.32074 0.0065c-0.27605-0.27928-0.45081-0.54388-1.026-0.42235-0.25913-0.09613-0.37935-0.33217-0.90709-0.15984-0.21609-0.06837-0.41485-0.2105-0.64887-0.20323zm8.728 0.61421c-0.12044 0.14893-0.28877 0.29433-0.11028 0.46542 0.24602-0.15597 0.49356-0.31176 1.0778-0.42261-0.13167 0.14902-0.40386 0.29807-0.23883 0.44708 0.30889-0.11976 0.65063-0.20672 1.0288-0.25722-0.18109 0.15121-0.33215 0.29934-0.18372 0.41646 0.33056-0.10324 0.78591-0.24235 1.2309-0.12252l-0.2817 0.28784c-0.03127 0.03855 0.65903 0.0299 1.1146 0.03677-0.16627 0.23447-0.3358 0.46077-0.43479 0.86349 0.04517 0.04647 0.27088 0.02061 0.48375 0-0.21827 0.4665-0.59737 0.58427-0.68586 0.7839 0.13336 0.10249 0.31832 0.0758 0.52053 0.0065-0.15714 0.32867-0.48671 0.5539-0.74712 0.82062 0.06586 0.04744 0.18084 0.07572 0.45318 0.04283-0.24059 0.25961-0.53124 0.49698-0.87572 0.7104 0.06101 0.0716 0.27081 0.06877 0.46541 0.07354-0.31203 0.31002-0.71368 0.47078-1.0901 0.6736 0.18761 0.13013 0.32174 0.09975 0.46542 0.09798-0.26621 0.22203-0.71881 0.33749-1.139 0.47151 0.07992 0.12609 0.1598 0.16056 0.33065 0.19595-0.44478 0.24989-1.0819 0.13568-1.2616 0.26337 0.0434 0.1256 0.16571 0.20731 0.31233 0.27555-0.71606 0.04227-2.6743-0.02651-3.0497-1.531 0.73295-0.81762 2.0708-1.7772 4.3717-2.9637-1.7903 0.60835-3.4057 1.4192-4.7576 2.5351-1.5896-0.75136-0.49382-2.6464 0.2817-3.3988 0.03927 0.19868 0.0839 0.32425 0.13476 0.36128 0.25251-0.27477 0.45883-0.55619 0.7839-0.82062 0.0016 0.1553-0.07726 0.32388 0.1163 0.4471 0.17427-0.23802 0.40984-0.45052 0.72263-0.63081-0.15066 0.26374-0.02586 0.34386 0.05519 0.45318 0.2389-0.20794 0.46581-0.41856 0.90636-0.58172zm-8.6969 1.38e-4c0.44055 0.16316 0.66746 0.37384 0.90636 0.58179 0.08099-0.10931 0.20576-0.18943 0.05511-0.45318 0.31279 0.18028 0.54836 0.39271 0.72263 0.63074 0.19353-0.12322 0.11532-0.29171 0.11637-0.44702 0.32506 0.26442 0.53138 0.54583 0.78391 0.82061 0.05083-0.03701 0.09537-0.16267 0.1347-0.36135 0.77551 0.75238 1.8713 2.6474 0.28169 3.3988-1.352-1.1151-2.9666-1.9258-4.7558-2.534 2.2998 1.1859 3.6371 2.1454 4.3698 2.9625-0.37538 1.5046-2.3337 1.5732-3.0497 1.531 0.14662-0.0682 0.26896-0.14995 0.31233-0.27554-0.17968-0.12769-0.81677-0.01349-1.2616-0.26336 0.17086-0.0354 0.25074-0.0699 0.33066-0.19596-0.42022-0.13402-0.87283-0.24948-1.139-0.4715 0.14366 0.0016 0.2778 0.03216 0.46541-0.09798-0.37639-0.20284-0.77804-0.36357-1.0901-0.67361 0.1946-0.0048 0.40441-0.0016 0.46542-0.07346-0.34449-0.21343-0.63513-0.45081-0.87573-0.7104 0.27234 0.03289 0.38733 0.0048 0.45318-0.04291-0.26041-0.26671-0.58998-0.49194-0.74711-0.82061 0.2022 0.06966 0.38717 0.09641 0.52052-0.0065-0.088489-0.19963-0.46758-0.31739-0.68585-0.7839 0.21287 0.02061 0.43859 0.04647 0.48374 0-0.0988-0.40254-0.2683-0.62882-0.43459-0.86329 0.45559-0.0065 1.1458 0.0016 1.1146-0.03677l-0.2817-0.28774c0.44501-0.11982 0.90036 0.01923 1.2309 0.12245 0.14843-0.11712-0.0024-0.26526-0.18372-0.41646 0.37819 0.05051 0.71994 0.13745 1.0288 0.25722 0.16504-0.14902-0.10716-0.29802-0.23882-0.44703 0.58427 0.11086 0.83182 0.26659 1.0778 0.42255 0.17849-0.17108 0.01018-0.31649-0.11022-0.46542zm4.1942 6.1975c0.03952-0.0016 0.0792-0.0016 0.11888 2.1e-4v-7.3e-5c1.1272-0.01236 2.5229 0.84114 2.5173 1.6453-0.0048 0.70976-0.98019 1.2843-2.5086 1.2734-1.4967-0.01786-2.5046-0.72206-2.5011-1.4098 0.0032-0.54832 1.1471-1.4812 2.3735-1.509zm-3.6221 0.47806c0.22231 0.0016 0.45086 0.02101 0.68368 0.06037 0.78414 0.13176-3.7579 4.0979-3.8279 3.2132-0.06368-2.0553 1.334-3.2834 3.1443-3.2735zm7.2479 0.06772c1.8101-0.0099 3.208 1.218 3.1443 3.2735-0.06998 0.88479-4.6121-3.0814-3.8279-3.2131 0.23279-0.03927 0.4613-0.05924 0.6836-0.06045zm-0.76491 2.4632a2.9174 2.4727 55.966 0 1 0.1079 0.0016 2.9174 2.4727 55.966 0 1 1.9204 5.2181 2.9174 2.4727 55.966 0 1-3.2168-4.8679 2.9174 2.4727 55.966 0 1 1.1885-0.3517zm-5.4602 0.1355a2.4727 2.9174 34.034 0 1 1.1885 0.35169 2.4727 2.9174 34.034 0 1-3.2168 4.8679 2.4727 2.9174 34.034 0 1 1.9203-5.2181 2.4727 2.9174 34.034 0 1 0.10791-0.0016zm9.6222 1.493c0.03459-5.01e-4 0.07119 4e-3 0.10969 0.01447 2.0464 1.1686 1.6909 3.7689 0.58708 4.6568-0.97212 0.43183-1.7693-4.6535-0.69678-4.6713zm-14.033 0.06772c1.0724 0.0177 0.27535 5.1027-0.69677 4.6709-1.1038-0.8878-1.4593-3.4878 0.58715-4.6564 0.038547-0.01034 0.074993-0.01503 0.10962-0.01446zm7.2606 3.4981a2.7569 2.5422 0 0 1 7.3e-5 0 2.7569 2.5422 0 0 1 2.6908 2.5549 2.7569 2.5422 0 1 1-5.5137 0 2.7569 2.5422 0 0 1 2.8228-2.5549zm6.0275 0.95888c0.21535-0.0057 0.4169 0.05487 0.59866 0.19543 0.48943 0.4877 0.77658 2.3242-0.08025 3.4238-1.18 1.6373-2.7775 1.7011-3.3726 1.245-0.62237-0.58701-0.14731-2.4096 0.70584-3.409v-2.67e-4c0.7322-0.82674 1.5023-1.4382 2.1483-1.4551zm-12.462 0.38921c0.71061-0.01463 1.5829 0.54698 2.2898 1.3673h-6.4e-5c0.78852 0.95 1.148 2.619 0.48997 3.111-0.62255 0.37558-2.1344 0.22087-3.209-1.3228-0.7247-1.2953-0.63128-2.6135-0.12245-3.0007 0.16646-0.1014 0.35272-0.15066 0.55168-0.15475zm6.5923 4.5481c1.0759 0.0065 2.3822 0.39419 2.3849 0.89796 0.01834 0.5218-1.3478 1.7007-2.67 1.6779-1.3694 0.05907-2.7122-1.1217-2.6946-1.531-0.02044-0.60009 1.6675-1.0686 2.7681-1.041 0.06926-0.0032 0.13991-0.0048 0.21164-4e-3z" fill="#fff" stroke-width=".033873"/>
    <path d="m23.948 5.0006c-1.3078 0.02503-2.4618 0.84766-2.8647 2.1908l-0.77182 2.5743c0.10292-0.03597 0.18347-0.06978 0.35829-0.11048 0.27308-0.06359 0.64224-0.02762 1.0149 0.0584l0.0047-0.01736c0.47008-1.5669 2.109-2.3235 3.676-1.6967l2.8284 1.1317-0.24149 0.80812c-0.13431 0.4477 0.11735 0.9526 0.56505 1.1317l4.0406 1.6162c0.4477 0.17908 0.91687-0.03844 1.0512-0.48613l0.24149-0.80812 2.8284 1.1317c1.5669 0.62678 2.4509 2.3931 1.9808 3.9601l-6.7885 22.627c-0.47008 1.5669-2.1106 2.3235-3.6776 1.6967l-9.6122-3.8449c-0.56227 0.20058-1.1332 0.31121-1.692 0.31094-0.01835 3.1e-5 -0.04165 0-0.04262 0-0.9219 2.91e-4 -1.8767-0.2907-2.7684-0.82074 0.39728 0.48104 0.90317 0.87992 1.5089 1.1222l12.93 5.1723c1.7908 0.71632 3.6659-0.14901 4.2032-1.9398l7.7576-25.86c0.53724-1.7908-0.47257-3.8088-2.2634-4.5251l-12.93-5.1723c-0.4477-0.17908-0.90094-0.2593-1.3369-0.25096z" fill="#fff"/>
</svg>
