<?xml version="1.0" encoding="UTF-8" standalone="no"?>
<svg
   xmlns:dc="http://purl.org/dc/elements/1.1/"
   xmlns:cc="http://creativecommons.org/ns#"
   xmlns:rdf="http://www.w3.org/1999/02/22-rdf-syntax-ns#"
   xmlns:svg="http://www.w3.org/2000/svg"
   xmlns="http://www.w3.org/2000/svg"
   xmlns:sodipodi="http://sodipodi.sourceforge.net/DTD/sodipodi-0.dtd"
   xmlns:inkscape="http://www.inkscape.org/namespaces/inkscape"
   width="48"
   height="48"
   viewBox="0 0 48 48"
   version="1.1"
   id="svg994"
   sodipodi:docname="raspberry.svg"
   inkscape:version="0.92.4 5da689c313, 2019-01-14">
  <metadata
     id="metadata1000">
    <rdf:RDF>
      <cc:Work
         rdf:about="">
        <dc:format>image/svg+xml</dc:format>
        <dc:type
           rdf:resource="http://purl.org/dc/dcmitype/StillImage" />
        <dc:title />
      </cc:Work>
    </rdf:RDF>
  </metadata>
  <defs
     id="defs998">
    <clipPath
       clipPathUnits="userSpaceOnUse"
       id="clipPath1595">
      <rect
         style="opacity:1;fill:#000000;fill-opacity:1;fill-rule:nonzero;stroke:#ffffff;stroke-width:60;stroke-linecap:round;stroke-linejoin:round;stroke-miterlimit:4;stroke-dasharray:none;stroke-dashoffset:0;stroke-opacity:1"
         id="rect1597"
         width="756.61017"
         height="912.81354"
         x="-1065.7627"
         y="-508.47458" />
    </clipPath>
  </defs>
  <sodipodi:namedview
     pagecolor="#ffffff"
     bordercolor="#666666"
     borderopacity="1"
     objecttolerance="10"
     gridtolerance="10"
     guidetolerance="10"
     inkscape:pageopacity="0"
     inkscape:pageshadow="2"
     inkscape:window-width="2160"
     inkscape:window-height="1360"
     id="namedview996"
     showgrid="true"
     inkscape:snap-global="false"
     inkscape:zoom="6.9532167"
     inkscape:cx="1.6450239"
     inkscape:cy="46.580123"
     inkscape:window-x="0"
     inkscape:window-y="44"
     inkscape:window-maximized="1"
     inkscape:current-layer="svg994">
    <inkscape:grid
       type="xygrid"
       id="grid1548" />
  </sodipodi:namedview>
  <path
     style="fill:#ffffff;fill-opacity:1"
     d="M 24 2 A 22 22 0 0 0 2 24 A 22 22 0 0 0 24 46 A 22 22 0 0 0 46 24 A 22 22 0 0 0 24 2 z M 18.294922 8.3554688 C 18.601509 8.3461215 18.863291 8.5289697 19.146484 8.6171875 C 19.838022 8.394776 19.994454 8.7002295 20.333984 8.8242188 C 21.087619 8.6674396 21.315973 9.0085917 21.677734 9.3691406 L 22.099609 9.3613281 C 23.236074 10.020985 23.799669 11.363855 24 12.054688 C 24.200181 11.364007 24.763623 10.021136 25.900391 9.3613281 L 26.320312 9.3691406 C 26.681669 9.0085922 26.91228 8.6674397 27.666016 8.8242188 C 28.005444 8.7002283 28.162482 8.394776 28.853516 8.6171875 C 29.28495 8.482733 29.66349 8.1266478 30.234375 8.5703125 C 30.715071 8.387713 31.180923 8.3255007 31.597656 8.6972656 C 32.241245 8.6149602 32.448925 8.7843639 32.607422 8.9824219 C 32.748995 8.9795919 33.66602 8.8398645 34.085938 9.4570312 C 35.141908 9.3340016 35.475387 10.067031 35.097656 10.751953 C 35.312941 11.080723 35.535543 11.40674 35.03125 12.033203 C 35.209655 12.382232 35.099755 12.760487 34.679688 13.21875 C 34.79049 13.70935 34.572505 14.054466 34.181641 14.324219 C 34.254804 14.995702 33.556225 15.386346 33.347656 15.525391 C 33.267674 15.916557 33.100375 16.286009 32.302734 16.490234 C 32.171266 17.073243 31.692691 17.174553 31.228516 17.296875 C 32.762513 18.175458 34.077259 19.330742 34.068359 22.166016 L 34.294922 22.560547 C 36.05401 23.6142 37.634932 27.00119 35.160156 29.753906 C 34.998576 30.615612 34.727689 31.235 34.486328 31.919922 C 34.125275 34.680014 31.769896 35.972098 31.148438 36.125 C 30.237772 36.808191 29.267572 37.455981 27.955078 37.910156 C 26.717917 39.167069 25.377058 39.645254 24.029297 39.644531 C 24.009547 39.644768 23.990453 39.644531 23.970703 39.644531 C 22.622892 39.645241 21.282184 39.166972 20.044922 37.910156 C 18.732428 37.455981 17.76223 36.808191 16.851562 36.125 C 16.23007 35.972098 13.874734 34.680014 13.513672 31.919922 C 13.272279 31.235 13.001485 30.615612 12.839844 29.753906 C 10.365134 27.001441 11.946146 23.614201 13.705078 22.560547 L 13.929688 22.166016 C 13.920805 19.330488 15.237367 18.175257 16.771484 17.296875 C 16.307335 17.174554 15.826773 17.073345 15.695312 16.490234 C 14.897762 16.286111 14.732354 15.916557 14.652344 15.525391 C 14.443832 15.386243 13.745199 14.99755 13.818359 14.326172 C 13.427513 14.056367 13.209416 13.709403 13.320312 13.21875 C 12.900161 12.760437 12.79047 12.382231 12.96875 12.033203 C 12.464688 11.40659 12.686799 11.080722 12.902344 10.751953 C 12.524349 10.067032 12.858521 9.3340542 13.914062 9.4570312 C 14.334053 8.8399182 15.249392 8.9796219 15.390625 8.9824219 C 15.549107 8.7843652 15.7588 8.6150106 16.402344 8.6972656 C 16.819071 8.3255507 17.284824 8.3876631 17.765625 8.5703125 C 17.961812 8.4176738 18.134301 8.3603487 18.294922 8.3554688 z M 18.359375 9.1484375 C 18.517216 9.3406343 18.737837 9.5272022 18.503906 9.7480469 C 18.181605 9.5467028 17.855505 9.3462123 17.089844 9.203125 C 17.26249 9.3954266 17.620646 9.5868965 17.404297 9.7792969 C 16.999591 9.6246882 16.550286 9.5125476 16.054688 9.4472656 C 16.292051 9.6424948 16.491336 9.8351578 16.296875 9.9863281 C 15.863681 9.8530465 15.266686 9.6735175 14.683594 9.828125 L 15.052734 10.199219 C 15.093691 10.249059 14.188762 10.237394 13.591797 10.246094 C 13.809705 10.548739 14.032577 10.841779 14.162109 11.361328 C 14.102919 11.421198 13.806359 11.387908 13.527344 11.361328 C 13.813404 11.963387 14.309775 12.115319 14.425781 12.373047 C 14.250995 12.505392 14.00912 12.470849 13.744141 12.380859 C 13.950032 12.80512 14.381413 13.095278 14.722656 13.439453 C 14.63635 13.500673 14.485838 13.536591 14.128906 13.494141 C 14.444195 13.829225 14.825977 14.136697 15.277344 14.412109 C 15.197412 14.504549 14.922925 14.499759 14.667969 14.505859 C 15.076851 14.906068 15.602433 15.115134 16.095703 15.376953 C 15.849789 15.544898 15.674597 15.504353 15.486328 15.501953 C 15.835129 15.788534 16.427953 15.938378 16.978516 16.111328 C 16.873879 16.274127 16.768747 16.317561 16.544922 16.363281 C 17.127731 16.685765 17.961868 16.538413 18.197266 16.703125 C 18.140426 16.865209 17.98111 16.970524 17.789062 17.058594 C 18.727317 17.113113 21.293294 17.025922 21.785156 15.083984 C 20.825027 14.029318 19.072343 12.790379 16.058594 11.259766 C 18.403185 12.044828 20.519297 13.092038 22.291016 14.53125 C 24.373967 13.561468 22.938039 11.115626 21.921875 10.144531 C 21.870391 10.400947 21.812684 10.561625 21.746094 10.609375 C 21.415154 10.254736 21.144626 9.8921278 20.71875 9.5507812 C 20.717337 9.7512132 20.81999 9.967899 20.566406 10.126953 C 20.33793 9.8197588 20.028952 9.5471715 19.619141 9.3144531 C 19.816535 9.6548912 19.653029 9.7573706 19.546875 9.8984375 C 19.233871 9.6300478 18.936675 9.3590265 18.359375 9.1484375 z M 29.726562 9.1484375 C 29.149261 9.3589765 28.852013 9.6300491 28.539062 9.8984375 C 28.432893 9.7573706 28.269445 9.65494 28.466797 9.3144531 C 28.056885 9.5472216 27.747854 9.8197601 27.519531 10.126953 C 27.265901 9.9679003 27.368688 9.7511632 27.367188 9.5507812 C 26.941258 9.8920277 26.670634 10.254737 26.339844 10.609375 C 26.273156 10.561577 26.215653 10.398944 26.164062 10.142578 C 25.147849 11.113674 23.711818 13.559516 25.794922 14.529297 C 27.566487 13.089077 29.683258 12.042976 32.029297 11.257812 C 29.01395 12.789383 27.259311 14.028715 26.298828 15.083984 C 26.790742 17.025925 29.358621 17.115067 30.296875 17.060547 C 30.104726 16.972483 29.943519 16.865208 29.886719 16.703125 C 30.122167 16.538412 30.956255 16.685782 31.539062 16.363281 C 31.315237 16.317554 31.212113 16.274122 31.107422 16.111328 C 31.658046 15.938381 32.250782 15.788533 32.599609 15.501953 C 32.411352 15.504329 32.234088 15.544901 31.988281 15.376953 C 32.481409 15.115134 33.009119 14.906067 33.417969 14.505859 C 33.162967 14.499799 32.888634 14.504419 32.808594 14.412109 C 33.260087 14.136696 33.63985 13.829226 33.955078 13.494141 C 33.598218 13.536591 33.447668 13.500683 33.361328 13.439453 C 33.702628 13.095277 34.133904 12.805121 34.339844 12.380859 C 34.074892 12.470819 33.832971 12.505375 33.658203 12.373047 C 33.774158 12.115319 34.270618 11.963387 34.556641 11.361328 C 34.277692 11.387908 33.983038 11.421198 33.923828 11.361328 C 34.053526 10.841521 34.274425 10.548739 34.492188 10.246094 C 33.895232 10.237404 32.992383 10.248939 33.033203 10.199219 L 33.402344 9.828125 C 32.819131 9.6734663 32.222265 9.8530429 31.789062 9.9863281 C 31.594639 9.8351554 31.792032 9.6423448 32.029297 9.4472656 C 31.533747 9.5123932 31.086398 9.6246894 30.681641 9.7792969 C 30.465393 9.5869953 30.821596 9.3954753 30.994141 9.203125 C 30.228533 9.3462135 29.904431 9.5468052 29.582031 9.7480469 C 29.348149 9.5272522 29.568769 9.3405854 29.726562 9.1484375 z M 24.060547 17.146484 C 22.395993 17.103841 20.798822 18.363206 20.794922 19.09375 C 20.790273 19.981427 22.111028 20.890982 24.072266 20.914062 C 26.075137 20.92816 27.352875 20.187605 27.359375 19.271484 C 27.366751 18.233543 25.537602 17.130514 24.060547 17.146484 z M 19.197266 17.763672 C 16.885845 17.806103 15.121155 19.381996 15.203125 21.988281 C 15.294779 23.130254 21.246229 18.011865 20.21875 17.841797 C 19.8701 17.783813 19.527469 17.75761 19.197266 17.763672 z M 28.943359 17.851562 C 28.613175 17.845512 28.272446 17.871703 27.923828 17.929688 C 26.896246 18.099705 32.847753 23.218193 32.939453 22.076172 C 33.021417 19.469619 31.254653 17.893919 28.943359 17.851562 z M 27.972656 21.042969 C 27.312835 20.983391 26.658998 21.122128 26.097656 21.484375 C 24.600744 22.450318 24.330139 24.640116 25.494141 26.375 C 26.658192 28.109987 28.815638 28.733569 30.3125 27.767578 C 31.809411 26.801635 32.078063 24.611991 30.914062 22.876953 C 30.186563 21.792588 29.072358 21.142266 27.972656 21.042969 z M 20.181641 21.21875 C 19.081964 21.318045 17.965781 21.966446 17.238281 23.050781 C 16.074228 24.785817 16.34491 26.975412 17.841797 27.941406 C 19.338555 28.907345 21.496155 28.283814 22.660156 26.548828 C 23.824154 24.813893 23.553551 22.626049 22.056641 21.660156 C 21.495337 21.29789 20.841447 21.159173 20.181641 21.21875 z M 33.34375 23.160156 C 31.727547 22.733622 32.798261 29.747205 34.113281 29.171875 C 35.559667 28.025861 36.025428 24.668486 33.34375 23.160156 z M 14.667969 23.248047 C 11.986263 24.756376 12.451998 28.111899 13.898438 29.257812 C 15.213358 29.833191 16.283968 22.821361 14.667969 23.248047 z M 24.058594 27.734375 C 22.063401 27.743876 20.454354 29.221063 20.464844 31.033203 L 20.464844 31.066406 C 20.475354 32.878543 22.100613 34.339578 24.095703 34.330078 C 26.090794 34.320529 27.699943 32.84524 27.689453 31.033203 C 27.689493 31.021563 27.689493 31.009627 27.689453 30.998047 C 27.678995 29.185859 26.053682 27.724875 24.058594 27.734375 z M 32.037109 28.972656 C 31.190537 28.994386 30.180138 29.782556 29.220703 30.849609 L 29.220703 30.851562 C 28.102729 32.14132 27.481297 34.492374 28.296875 35.25 C 29.076632 35.838556 31.168517 35.757745 32.714844 33.644531 C 33.837561 32.225226 33.461576 29.854002 32.820312 29.224609 C 32.582111 29.043148 32.3193 28.965413 32.037109 28.972656 z M 15.929688 29.476562 C 15.626517 29.463768 15.344974 29.524248 15.095703 29.673828 C 14.428892 30.173523 14.306343 31.875098 15.255859 33.546875 C 16.664027 35.539441 18.645108 35.738751 19.460938 35.253906 C 20.323154 34.618949 19.851551 32.466431 18.818359 31.240234 C 17.928988 30.223881 16.839199 29.514946 15.929688 29.476562 z M 24.189453 35.349609 C 22.747262 35.314107 20.53561 35.918802 20.5625 36.693359 C 20.539462 37.221585 22.299297 38.746102 24.09375 38.669922 C 25.826363 38.699265 27.615887 37.177413 27.591797 36.503906 C 27.587956 35.810347 25.64069 35.287169 24.189453 35.349609 z "
     id="circle992" />
  <path
     style="fill:none;stroke:#ffffff;stroke-width:60;stroke-linecap:butt;stroke-linejoin:miter;stroke-miterlimit:4;stroke-dasharray:none;stroke-opacity:1"
     d="M -937.37166,46.921649 -625.18235,165.33827"
     id="path1571"
     inkscape:connector-curvature="0"
     sodipodi:nodetypes="cc" />
</svg>
