<?xml version="1.0" encoding="UTF-8"?>
<svg version="1.1" viewBox="0 0 48 48" xmlns="http://www.w3.org/2000/svg">
    <path d="m16.611 4.8574c-0.20755 0.0068402-0.43215 0.083261-0.68555 0.2832-0.62255-0.24007-1.2259-0.32273-1.7656 0.16602-0.83352-0.10812-1.1034 0.11454-1.3086 0.375-0.18297-0.0037939-1.3701-0.1884-1.9141 0.62305-1.367-0.16176-1.7981 0.80442-1.3086 1.7051-0.27919 0.43222-0.56893 0.85962 0.083984 1.6836-0.23097 0.45892-0.089001 0.9561 0.45508 1.5586-0.14359 0.64514 0.14023 1.1003 0.64648 1.4551-0.09468 0.88284 0.80812 1.3972 1.0781 1.5801 0.10368 0.51441 0.32064 0.99918 1.3535 1.2676 0.17034 0.76661 0.79147 0.89965 1.3926 1.0605-1.9868 1.1549-3.6912 2.6741-3.6797 6.4023l-0.29102 0.51953c-2.2781 1.3854-4.3281 5.8378-1.123 9.457 0.20935 1.1329 0.56043 1.9471 0.87305 2.8477 0.46756 3.629 3.5194 5.3283 4.3242 5.5293 1.1794 0.89836 2.435 1.7506 4.1348 2.3477 1.6024 1.6526 3.3385 2.2823 5.084 2.2812 0.02559-1.6e-5 0.05254 2.87e-4 0.07812 0 1.7454 0.0011 3.4816-0.62858 5.084-2.2812 1.6997-0.59709 2.9554-1.4493 4.1348-2.3477 0.80483-0.20096 3.8566-1.9003 4.3242-5.5293 0.31259-0.9006 0.66369-1.7148 0.87305-2.8477 3.205-3.6195 1.1551-8.0717-1.123-9.457l-0.29102-0.51953c0.01154-3.728-1.6929-5.2472-3.6797-6.4023 0.60111-0.16086 1.2223-0.2939 1.3926-1.0605 1.0329-0.26844 1.2479-0.75321 1.3516-1.2676 0.27005-0.18287 1.1748-0.69724 1.0801-1.5801 0.50624-0.35477 0.78813-0.80999 0.64453-1.4551 0.54408-0.60249 0.68803-1.0996 0.45703-1.5586 0.65302-0.82363 0.36278-1.2514 0.083989-1.6836 0.48919-0.90066 0.058947-1.8668-1.3086-1.7051-0.5438-0.81145-1.7307-0.62684-1.9141-0.62305-0.20522-0.26046-0.47508-0.48312-1.3086-0.375-0.53977-0.48874-1.145-0.40609-1.7676-0.16602-0.73924-0.58335-1.2284-0.1143-1.7871 0.0625-0.89502-0.29246-1.0993 0.10836-1.5391 0.27148-0.97608-0.20626-1.2723 0.24284-1.7402 0.7168l-0.54492-0.011719c-1.4722 0.86761-2.2036 2.6348-2.4629 3.543-0.25937-0.90836-0.98901-2.6755-2.4609-3.543l-0.54297 0.011719c-0.46849-0.47396-0.76611-0.92305-1.7422-0.7168-0.43975-0.16313-0.64346-0.56395-1.5391-0.27148-0.36612-0.11584-0.70332-0.35716-1.0996-0.3457zm0.05273 1.043c0.74764 0.2769 1.1336 0.6334 1.5391 0.98633 0.13745-0.18551 0.34942-0.31997 0.09375-0.76758 0.53082 0.30597 0.93081 0.66637 1.2266 1.0703 0.32843-0.20912 0.19546-0.4962 0.19726-0.75977 0.55165 0.44875 0.90154 0.92627 1.3301 1.3926 0.08632-0.062853 0.16179-0.27612 0.22852-0.61328 1.3161 1.2768 3.1762 4.4925 0.47852 5.7676-2.2914-1.8898-5.029-3.2631-8.0605-4.2949 3.8955 2.0097 6.1622 3.6381 7.4043 5.0234-0.63703 2.5533-3.9606 2.6693-5.1758 2.5977 0.24881-0.11581 0.45764-0.25365 0.53125-0.4668-0.30492-0.21671-1.3878-0.02321-2.1426-0.44727 0.28995-0.06007 0.42687-0.11805 0.5625-0.33203-0.71314-0.22745-1.4818-0.424-1.9336-0.80078 0.24381 3e-3 0.47067 0.05481 0.78906-0.16602-0.63876-0.34423-1.3201-0.61838-1.8496-1.1445 0.33026-0.0081 0.68749-0.0016 0.79102-0.12305-0.58461-0.36219-1.078-0.76647-1.4863-1.207 0.46217 0.0558 0.65778 0.0082 0.76953-0.07226-0.44192-0.45264-1.0029-0.83481-1.2695-1.3926 0.34316 0.11824 0.65845 0.16421 0.88477-0.0098-0.15017-0.33878-0.79364-0.53838-1.1641-1.3301 0.36125 0.03503 0.74368 0.078817 0.82031 0-0.16767-0.68308-0.45609-1.0689-0.73828-1.4668 0.77316-0.011497 1.9456 0.00481 1.8926-0.060547l-0.47852-0.49023c0.75522-0.20333 1.5289 0.033788 2.0898 0.20898 0.25189-0.19876-0.0052-0.45042-0.3125-0.70703 0.64181 0.085686 1.2219 0.23424 1.7461 0.4375 0.28008-0.25289-0.1828-0.50688-0.40625-0.75977 0.99154 0.18812 1.4126 0.45212 1.8301 0.7168 0.30291-0.29034 0.01691-0.53632-0.1875-0.78906zm14.76 0c-0.20441 0.25274-0.4904 0.49872-0.1875 0.78906 0.4175-0.26467 0.83854-0.52867 1.8301-0.7168-0.22344 0.25289-0.68633 0.50492-0.40625 0.75781 0.5242-0.20326 1.1043-0.34986 1.7461-0.43555-0.3073 0.25661-0.56439 0.50827-0.3125 0.70703 0.56098-0.1752 1.3346-0.41232 2.0898-0.20898l-0.47851 0.48828c-0.05306 0.06537 1.1194 0.051019 1.8926 0.0625-0.28216 0.39791-0.5703 0.78337-0.73828 1.4668 0.07663 0.078817 0.45906 0.03503 0.82031 0-0.37043 0.79169-1.0139 0.9913-1.1641 1.3301 0.22631 0.17398 0.54161 0.128 0.88477 0.0098-0.26667 0.55777-0.82761 0.93994-1.2695 1.3926 0.11175 0.08046 0.30736 0.12806 0.76953 0.07226-0.40831 0.44056-0.90172 0.84484-1.4863 1.207 0.10353 0.12145 0.46076 0.11495 0.79102 0.12305-0.52954 0.52616-1.2108 0.8003-1.8496 1.1445 0.31839 0.22082 0.54526 0.16902 0.78906 0.16602-0.45176 0.37679-1.2205 0.57333-1.9336 0.80078 0.13562 0.21398 0.27254 0.27196 0.5625 0.33203-0.75482 0.42406-1.8377 0.23056-2.1426 0.44727 0.07361 0.21314 0.28244 0.35098 0.53125 0.4668-1.2152 0.07163-4.5387-0.04433-5.1758-2.5977 1.244-1.3877 3.5145-3.0174 7.4199-5.0312-3.0388 1.0325-5.7795 2.4088-8.0742 4.3027-2.6977-1.2751-0.83953-4.4907 0.47656-5.7676 0.06673 0.33716 0.1422 0.55043 0.22852 0.61328 0.42854-0.46631 0.78038-0.94383 1.332-1.3926 0.0018 0.26356-0.13116 0.55064 0.19726 0.75977 0.29576-0.40394 0.69379-0.76629 1.2246-1.0723-0.25567 0.44761-0.04371 0.58402 0.09375 0.76953 0.40543-0.3529 0.79143-0.70943 1.5391-0.98633zm-7.4394 10.518c1.9129-0.02104 4.281 1.4283 4.2715 2.793-0.0083 1.2045-1.664 2.1787-4.2578 2.1602-2.54-0.03029-4.2501-1.2254-4.2441-2.3926 5e-3 -0.96056 2.0747-2.6166 4.2305-2.5605zm-6.5098 0.8125c0.42764-8e-3 0.86878 0.02532 1.3203 0.10156 1.3308 0.22361-6.3773 6.9546-6.4961 5.4531-0.10613-3.4268 2.1823-5.4989 5.1758-5.5547zm12.621 0.11523c2.9934 0.05572 5.2819 2.1256 5.1758 5.5527-0.11881 1.5015-7.8268-5.2276-6.4961-5.4512 0.4515-0.07624 0.89269-0.10956 1.3203-0.10156zm-1.2754 4.1816a4.9511 4.1963 55.967 0 1 3.2598 8.8555 4.9513 4.1964 55.967 0 1-5.459-8.2617 4.9511 4.1963 55.967 0 1 2.1992-0.59375zm-9.4473 0.22656a4.1963 4.9511 34.033 0 1 2.0156 0.59766 4.1963 4.9511 34.033 1 1-5.459 8.2598 4.1963 4.9511 34.033 0 1 3.2578-8.8555 4.1963 4.9511 34.033 0 1 0.18555-2e-3zm16.328 2.5332c0.05871-9.69e-4 0.12014 0.0079 0.18555 0.02539 3.4729 1.9832 2.8693 6.3955 0.99609 7.9023-1.6497 0.73285-3.0017-7.8975-1.1816-7.9277zm-23.816 0.11524c1.8199 0.03 0.4681 8.6606-1.1816 7.9277-1.8732-1.5067-2.4769-5.9191 0.99609-7.9023 0.06541-0.01749 0.12684-0.02636 0.18555-0.02539zm12.322 5.9375a4.6786 4.3143 0 0 1 4.5664 4.3359 4.6787 4.3144 0 0 1-9.3574 0 4.6786 4.3143 0 0 1 4.791-4.3359zm10.229 1.627c0.36545-0.0095 0.70717 0.09344 1.0156 0.33203 0.8306 0.82766 1.3193 3.9443-0.13477 5.8105-2.0026 2.7787-4.7147 2.8853-5.7246 2.1113-1.0562-0.9962-0.24863-4.0893 1.1992-5.7852 1.2426-1.403 2.5482-2.4402 3.6445-2.4688zm-21.002 0.66211c1.1779 0.0505 2.5884 0.98194 3.7402 2.3184 1.3382 1.6122 1.9488 4.4443 0.83203 5.2793-1.0565 0.63739-3.6236 0.37562-5.4473-2.2441-1.2299-2.1983-1.0706-4.4346-0.20703-5.0918 0.32283-0.19665 0.68939-0.27855 1.082-0.26172zm10.682 7.7227c1.8796-0.08204 4.4014 0.60565 4.4062 1.5176 0.0312 0.88554-2.2873 2.8863-4.5312 2.8477-2.3239 0.10025-4.6021-1.9031-4.5723-2.5977-0.03478-1.0184 2.8294-1.8143 4.6973-1.7676z" fill="#fff" stroke-width=".057484"/>
</svg>
