<svg xmlns="http://www.w3.org/2000/svg" viewBox="0 0 48 48">
  <path
     style="fill:#ffffff"
     d="M 13.19536,7.5390654 C 11.38148,7.5092041 9.719538,8.665943 8.496141,10.396487 7.272744,12.127032 6.484224,14.434676 6.418016,16.720706 l -0.0039,0.109375 1.78125,-1.484375 5.318359,5.730469 1.957031,-1.634766 v -3.435547 l 1.080079,0.8125 v 4.595703 L 18.839897,23.703128 7.093803,35.283206 12.074272,40.361331 23.584038,28.68555 35.474663,40.599612 40.533256,35.595706 28.757866,23.822269 31.000053,21.6543 v -4.669922 l 1.320313,-1.117188 v 3.574219 l 1.882812,1.53711 5.466797,-5.466797 1.78125,1.367187 0.01953,-0.07227 c 0.263331,-0.973244 0.07855,-2.243108 -0.417968,-3.527344 C 40.556269,11.995063 39.746154,10.696009 38.746146,9.6660182 37.746138,8.6360273 36.556885,7.8755535 35.29888,7.6757838 34.040876,7.4760141 32.717623,7.8422537 31.468802,9.0546901 h -0.002 l -5.808594,5.7617189 1.179688,1.419922 -2.871094,2.796875 -2.765625,-2.720703 1.492188,-1.347657 -6.373047,-6.1523434 v -0.00195 c -1.049632,-0.8642453 -2.109171,-1.2547625 -3.125,-1.2714845 z m -0.002,0.099609 c 0.991295,0.016318 2.026865,0.3972801 3.0625,1.2500001 l 6.291015,6.0722655 -1.492187,1.347657 2.912109,2.865234 3.005859,-2.929687 -1.179687,-1.421875 5.744141,-5.6972664 v 0.00195 c 1.230807,-1.194948 2.517365,-1.5486363 3.746093,-1.3535156 1.228729,0.1951207 2.403059,0.943703 3.392579,1.9628906 0.989519,1.0191884 1.793662,2.3088344 2.285156,3.5800784 0.478669,1.238072 0.643957,2.449187 0.417968,3.380859 l -1.71875,-1.318359 -5.46289,5.464844 -1.777344,-1.449219 v -3.744137 l -1.519531,1.287109 v 4.673828 l -2.285156,2.210938 11.77539,11.773437 -4.914062,4.863281 L 23.582032,28.542972 12.076172,40.2168 7.236328,35.285159 18.982422,23.703128 16.650391,21.37305 v -4.605469 l -1.27925,-0.962891 v 3.589844 l -1.847656,1.544922 -5.31836,-5.730469 -1.664062,1.386719 C 6.632073,14.373061 7.388347,12.135374 8.576219,10.455081 9.787113,8.742223 11.42313,7.6095313 13.193407,7.6386748 Z" />
  <path
     style="fill:#ffffff"
     d="M 36.04491,22.86785 C 35.931608,22.7707 35.783389,22.716544 35.630781,22.718207 H 22.300357 c -0.355521,-0.879982 -0.886094,-1.687398 -1.577481,-2.378782 -1.351178,-1.351178 -3.149501,-2.095472 -5.059582,-2.097847 -1.909546,9.15e-4 -3.706443,0.744828 -5.058393,2.096777 -1.3526039,1.352603 -2.0941664,3.147483 -2.0960071,5.059168 -0.00105,3.947 3.2075771,7.156477 7.1545191,7.155112 1.913643,2.46e-4 3.709296,-0.741385 5.061182,-2.093274 0.691565,-0.691563 1.219354,-1.498446 1.575999,-2.380267 l 4.380964,0.0017 c 0.181058,-0.0011 0.348931,-0.07351 0.474343,-0.207362 l 1.151421,-1.235145 1.157291,1.235203 c 0.122509,0.129869 0.290858,0.207125 0.472148,0.205521 0.177907,0.0017 0.350533,-0.07334 0.471079,-0.204094 l 1.156761,-1.23859 1.151951,1.237936 c 0.122563,0.130047 0.294118,0.20457 0.472084,0.206293 0.180879,-0.0013 0.335271,-0.05915 0.474521,-0.207184 l 1.154091,-1.235323 1.155097,1.235145 c 0.125536,0.139548 0.308848,0.211222 0.494117,0.206946 0.166922,-0.0079 0.318822,-0.07417 0.433785,-0.189132 0.01651,-0.01651 0.03274,-0.03414 0.0481,-0.05249 L 38.5769,25.803081 c 0.220546,-0.274583 0.179928,-0.675767 -0.08943,-0.902606 z m -21.602511,2.530206 c -4.57e-4,1.124814 -0.910322,2.034546 -2.033952,2.033952 -1.124635,5.9e-5 -2.034185,-0.909495 -2.033595,-2.033596 -2.56e-4,-1.123269 0.908667,-2.033238 2.033774,-2.034128 1.123273,8.3e-5 2.03306,0.910621 2.033773,2.033772 z" />
</svg>
