<?xml version="1.0" encoding="UTF-8"?>
<svg version="1.1" viewBox="0 0 48 48" xmlns="http://www.w3.org/2000/svg">
    <path d="m5.1332 5.5854v2.1035h3.0231c3.0233 0 3.0231 1.9e-5 3.0231 1.9521v26.74c0 2.5921 1.65e-4 2.5925-3.0231 2.5925h-3.0231v2.3657h17.877v-2.3657h-2.8921c-2.8919 0-2.8916-3.23e-4 -2.8916-2.5925v-12.393h4.3189c5.5382-0.66594 7.5367 6.5386 7.4632 11.435-0.14148 9.4285 14.201 9.8887 13.852-2.102h-2.2367c-1.1883 8.0184-5.6723 4.3586-6.6204-1.3918-0.76375-4.6319-2.9384-8.6071-6.9203-8.6071 15.607-1.8316 17.425-17.736-4.014-17.655-7.8868 0.03008-17.936-0.08218-17.936-0.08218zm14.985 2.1035h2.8921c12.303 0 11.783 13.802 0 13.802h-2.8921c-2.8919 0-2.8916 3.24e-4 -2.8916-3.4502v-6.9014c0-3.4505-3.16e-4 -3.4502 2.8916-3.4502z" fill="#fff"/>
</svg>
