<svg width="48" height="48" viewBox="0 0 48 48" fill="none" xmlns="http://www.w3.org/2000/svg">
<path fill-rule="evenodd" clip-rule="evenodd" d="M24 48C37.2548 48 48 37.2548 48 24C48 10.7452 37.2548 0 24 0C10.7452 0 0 10.7452 0 24C0 37.2548 10.7452 48 24 48ZM24 14C20.7284 14 17.8237 15.5711 15.9993 18H6C5.44772 18 5 18.4477 5 19V21C5 21.5523 5.44772 22 6 22H14.2C14.0689 22.6462 14 23.3151 14 24C14 24.6849 14.0689 25.3538 14.2 26H6C5.44772 26 5 26.4477 5 27V29C5 29.5523 5.44772 30 6 30H15.9993C17.8237 32.4289 20.7284 34 24 34C27.2716 34 30.1763 32.4289 32.0007 30H43C43.5523 30 44 29.5523 44 29V27C44 26.4477 43.5523 26 43 26H33.8C33.9311 25.3538 34 24.6849 34 24C34 23.3151 33.9311 22.6462 33.8 22H43C43.5523 22 44 21.5523 44 21V19C44 18.4477 43.5523 18 43 18H32.0007C30.1763 15.5711 27.2716 14 24 14ZM19.5 30C20.8807 30 22 28.8807 22 27.5C22 26.9372 21.814 26.4178 21.5002 26C21.0441 25.3928 20.3179 25 19.5 25C18.6821 25 17.9559 25.3928 17.4998 26C17.186 26.4178 17 26.9372 17 27.5C17 28.8807 18.1193 30 19.5 30ZM24 14H42C42.5523 14 43 13.5523 43 13V11C43 10.4477 42.5523 10 42 10H19C18.4477 10 18 10.4477 18 11V13C18 13.5523 18.4477 14 19 14H24ZM6 10C5.44772 10 5 10.4477 5 11V13C5 13.5523 5.44772 14 6 14H12C12.5523 14 13 13.5523 13 13V11C13 10.4477 12.5523 10 12 10H6ZM5 35C5 34.4477 5.44772 34 6 34H23C23.5523 34 24 34.4477 24 35V37C24 37.5523 23.5523 38 23 38H6C5.44771 38 5 37.5523 5 37V35ZM30 35C30 34.4477 30.4477 34 31 34H42C42.5523 34 43 34.4477 43 35V37C43 37.5523 42.5523 38 42 38H31C30.4477 38 30 37.5523 30 37V35Z" fill="white"/>
</svg>
