<?xml version="1.0" encoding="UTF-8"?>
<svg version="1.1" viewBox="0 0 48 48" xmlns="http://www.w3.org/2000/svg">
    <path d="m9.553 5v4.553h-4.553v3.0353h4.553v4.553h3.0353v-4.553h4.553v-3.0353h-4.553v-4.553zm10.017 4.553v3.0353h12.141v-3.0353zm2.8509 9.5073-2.1461 2.1461 3.2197 3.2197-3.2197 3.2197 2.1461 2.1461 3.2197-3.2197 3.2197 3.2197 2.1461-2.1461-3.2197-3.2197 3.2197-3.2197-2.1461-2.1461-3.2197 3.2197zm-11.456 0.27685a1.5177 1.5177 0 0 0-1.5177 1.5177 1.5177 1.5177 0 0 0 1.5177 1.5177 1.5177 1.5177 0 0 0 1.5177-1.5177 1.5177 1.5177 0 0 0-1.5177-1.5177zm-5.9645 3.8244v3.0353h12.141v-3.0353zm6.0179 3.8244a1.5177 1.5177 0 0 0-1.5177 1.5177 1.5177 1.5177 0 0 0 1.5177 1.5177 1.5177 1.5177 0 0 0 1.5177-1.5177 1.5177 1.5177 0 0 0-1.5177-1.5177z" fill="#fff" style="paint-order:stroke markers fill"/>
    <path d="m36.322 29.645c-3.68 0-6.6797 2.9967-6.6797 6.6777 0 3.68 2.9997 6.6777 6.6797 6.6777a6.687 6.687 0 0 0 6.6777-6.6777 6.687 6.687 0 0 0-6.6777-6.6777zm-4.1289 2.3711h1.9902c0.097 0 0.17383 0.07783 0.17383 0.17383v1.9902a0.175 0.175 0 0 1-0.17383 0.17578h-1.9902a0.177 0.177 0 0 1-0.17578-0.17578v-1.9902c0-0.096 0.07978-0.17383 0.17578-0.17383zm3.1348 0h1.9922c0.096 0 0.17383 0.07783 0.17383 0.17383v1.9902a0.175 0.175 0 0 1-0.17383 0.17578h-1.9922a0.175 0.175 0 0 1-0.17383-0.17578v-1.9902c0-0.096 0.07783-0.17383 0.17383-0.17383zm3.1367 0h1.9922c0.096 0 0.17188 0.07783 0.17188 0.17383v1.9902a0.174 0.174 0 0 1-0.17188 0.17578h-1.9922a0.175 0.175 0 0 1-0.17383-0.17578v-1.9902c0-0.096 0.07783-0.17383 0.17383-0.17383zm-6.2773 3.1367h1.9922c0.096 0 0.17187 0.07783 0.17187 0.17383v1.9902a0.174 0.174 0 0 1-0.17187 0.17578h-1.9922a0.175 0.175 0 0 1-0.17383-0.17578v-1.9902c0-0.096 0.07783-0.17383 0.17383-0.17383zm3.1367 0h1.9922c0.09599 0 0.17188 0.07783 0.17188 0.17383v1.9902a0.174 0.174 0 0 1-0.17188 0.17578h-1.9922a0.175 0.175 0 0 1-0.17383-0.17578v-1.9902c0-0.096 0.07783-0.17383 0.17383-0.17383zm3.1367 0h1.9922c0.096 0 0.17188 0.07783 0.17188 0.17383v1.9902a0.174 0.174 0 0 1-0.17188 0.17578h-1.9922a0.177 0.177 0 0 1-0.17578-0.17578v-1.9902c0-0.096 0.07978-0.17383 0.17578-0.17383zm-6.2734 3.1367h1.9922a0.17 0.17 0 0 1 0.17187 0.17188v1.9922a0.172 0.172 0 0 1-0.17187 0.17383h-1.9922a0.174 0.174 0 0 1-0.17383-0.17383v-1.9922c0-0.09701 0.07783-0.17188 0.17383-0.17188zm3.1367 0h1.9922a0.17 0.17 0 0 1 0.17188 0.17188v1.9922a0.172 0.172 0 0 1-0.17188 0.17383h-1.9922a0.174 0.174 0 0 1-0.17383-0.17383v-1.9922c0-0.09701 0.07783-0.17188 0.17383-0.17188zm3.1367 0h1.9922a0.17 0.17 0 0 1 0.17188 0.17188v1.9922a0.172 0.172 0 0 1-0.17188 0.17383h-1.9922a0.175 0.175 0 0 1-0.17578-0.17383v-1.9922c0-0.09701 0.07978-0.17188 0.17578-0.17188z" fill="#fff"/>
</svg>
