<svg xmlns="http://www.w3.org/2000/svg" viewBox="0 0 48 48">
   <path d="M24 2A22 22 0 002.406 19.793h8.123a14.228 14.228 0 0113.442-10.02 14.228 14.228 0 01.146 0 14.228 14.228 0 0113.59 10.02h7.887A22 22 0 0024 2zm-.049 12.479a9.522 9.522 0 00-9.355 9.523 9.522 9.522 0 009.521 9.521 9.522 9.522 0 009.524-9.521 9.522 9.522 0 00-9.524-9.523 9.522 9.522 0 00-.166 0zm.166 4.539a4.983 4.983 0 014.985 4.984 4.983 4.983 0 01-4.985 4.982 4.983 4.983 0 01-4.982-4.982 4.983 4.983 0 014.982-4.984zm-21.71 9.191A22 22 0 0024 46a22 22 0 0021.594-17.791h-7.885a14.228 14.228 0 01-13.592 10.02 14.228 14.228 0 01-13.59-10.02h-8.12z" fill="#fff"/>
</svg>
