<?xml version="1.0" encoding="UTF-8" standalone="no"?>
<svg
   xmlns:dc="http://purl.org/dc/elements/1.1/"
   xmlns:cc="http://creativecommons.org/ns#"
   xmlns:rdf="http://www.w3.org/1999/02/22-rdf-syntax-ns#"
   xmlns:svg="http://www.w3.org/2000/svg"
   xmlns="http://www.w3.org/2000/svg"
   xmlns:sodipodi="http://sodipodi.sourceforge.net/DTD/sodipodi-0.dtd"
   xmlns:inkscape="http://www.inkscape.org/namespaces/inkscape"
   viewBox="0 0 48 48"
   version="1.1"
   id="svg18"
   sodipodi:docname="remixeddungeon.svg"
   inkscape:version="0.92.3 (2405546, 2018-03-11)">
  <metadata
     id="metadata24">
    <rdf:RDF>
      <cc:Work
         rdf:about="">
        <dc:format>image/svg+xml</dc:format>
        <dc:type
           rdf:resource="http://purl.org/dc/dcmitype/StillImage" />
        <dc:title></dc:title>
      </cc:Work>
    </rdf:RDF>
  </metadata>
  <defs
     id="defs22" />
  <sodipodi:namedview
     pagecolor="#ffffff"
     bordercolor="#666666"
     borderopacity="1"
     objecttolerance="10"
     gridtolerance="10"
     guidetolerance="10"
     inkscape:pageopacity="0"
     inkscape:pageshadow="2"
     inkscape:window-width="1012"
     inkscape:window-height="569"
     id="namedview20"
     showgrid="false"
     inkscape:pagecheckerboard="true"
     inkscape:zoom="4.1354167"
     inkscape:cx="20.902253"
     inkscape:cy="22.199532"
     inkscape:window-x="4"
     inkscape:window-y="23"
     inkscape:window-maximized="1"
     inkscape:current-layer="layer2">
    <inkscape:grid
       type="xygrid"
       id="grid63" />
  </sodipodi:namedview>
  <path
     d="M 6,26.037467 V 40.105263 C 6,41.154947 6.8450526,42 7.8947368,42 H 40.105263 C 41.154947,42 42,41.154947 42,40.105263 V 7.8947368 C 42,6.8450526 41.154947,6 40.105263,6 h -18 V 8.8421053 H 39.157895 V 39.157895 H 8.8421053"
     id="path10"
     inkscape:connector-curvature="0"
     style="fill:#ffffff;stroke-width:0.94736844"
     sodipodi:nodetypes="cssssssccccc" />
  <path
     d="M 9.7894737,25.894737 H 7.392051 l -0.029735,2.357052 h 12.808421 l 0.03979,-2.357052 z M 29.443579,24.462316 v 3.789473 h 11.19221 V 24.462316 Z M 22.105263,7.3623158 V 21.826737 h 3.789474 V 7.3613684 Z"
     id="path12"
     inkscape:connector-curvature="0"
     style="fill:#ffffff;stroke-width:0.94736844"
     sodipodi:nodetypes="ccccccccccccccccc" />
  <path
     d="m 26.920737,23.436316 v 5.841473 h -5.841474 l 0.07863,-3.383052 h -3.789474 l -0.07863,7.171579 H 30.710211 V 19.648737 l -8.604948,0.116321 v 3.725739 M 6,25.894737 H 9.7894737 V 39.451579 H 6 Z M 38.210526,8.5484211 H 42 V 39.451579 h -3.789474 z"
     id="path14"
     inkscape:connector-curvature="0"
     style="fill:#ffffff;stroke-width:0.94736844"
     sodipodi:nodetypes="cccccccccccccccccccc" />
  <path
     d="M 38.813053,6 V 9.7894737 H 22.105263 V 6 Z m 0.638526,32.210526 V 42 H 8.5484211 v -3.789474 z"
     id="path16"
     inkscape:connector-curvature="0"
     style="fill:#ffffff;stroke-width:0.94736844"
     sodipodi:nodetypes="cccccccccc" />
  <g
     inkscape:groupmode="layer"
     id="layer2"
     inkscape:label="R"
     style="display:inline">
    <path
       style="display:inline;fill:#ffffff;stroke:none;stroke-width:1.11111116px;stroke-linecap:butt;stroke-linejoin:miter;stroke-opacity:1"
       d="M 7.000001,4.111111 V 5.222222 H 5.88889 V 6.333333 H 4.777779 V 23 H 5.88889 v 1.111111 H 8.111112 V 23 h 1.111111 v -5.555556 h 1.111111 v -1.111111 h 3.333333 v 1.111111 h 1.111111 v 1.111111 h 1.111111 V 23 H 17 v 1.111111 h 2.222223 V 23 h 1.111111 V 16.333333 H 19.222223 V 15.222222 H 18.111112 V 13 h 1.111111 v -1.111111 h 1.111111 V 6.333333 H 19.222223 V 5.222222 H 18.111112 V 4.111111 Z m 3.333333,3.333334 h 5.555555 v 1.11111 H 17 v 2.222223 h -1.111111 v 1.111111 H 10.333334 V 10.777778 H 9.222223 V 8.555555 h 1.111111 z"
       id="path65"
       inkscape:connector-curvature="0" />
  </g>
</svg>
