<?xml version="1.0" encoding="UTF-8" standalone="no"?>
<svg
   xmlns:dc="http://purl.org/dc/elements/1.1/"
   xmlns:cc="http://creativecommons.org/ns#"
   xmlns:rdf="http://www.w3.org/1999/02/22-rdf-syntax-ns#"
   xmlns:svg="http://www.w3.org/2000/svg"
   xmlns="http://www.w3.org/2000/svg"
   xmlns:sodipodi="http://sodipodi.sourceforge.net/DTD/sodipodi-0.dtd"
   xmlns:inkscape="http://www.inkscape.org/namespaces/inkscape"
   version="1.1"
   viewBox="0 0 48 48"
   sodipodi:docname="wip.svg"
   id="svg4"
   inkscape:version="0.92.2 2405546, 2018-03-11">
  <metadata
     id="metadata8">
    <rdf:RDF>
      <cc:Work
         rdf:about="">
        <dc:format>image/svg+xml</dc:format>
        <dc:type
           rdf:resource="http://purl.org/dc/dcmitype/StillImage" />
        <dc:title></dc:title>
      </cc:Work>
    </rdf:RDF>
  </metadata>
  <defs
     id="defs6">
    <inkscape:path-effect
       effect="mirror_symmetry"
       start_point="24,0"
       end_point="24,48"
       center_point="24,24"
       id="path-effect931"
       is_visible="true"
       mode="vertical"
       discard_orig_path="false"
       fuse_paths="false"
       oposite_fuse="false" />
    <inkscape:path-effect
       effect="mirror_symmetry"
       start_point="24,0"
       end_point="24,48"
       center_point="24,24"
       id="path-effect910"
       is_visible="true"
       mode="vertical"
       discard_orig_path="false"
       fuse_paths="false"
       oposite_fuse="false" />
    <inkscape:path-effect
       effect="mirror_symmetry"
       start_point="24,0"
       end_point="24,48"
       center_point="24,24"
       id="path-effect903"
       is_visible="true"
       mode="vertical"
       discard_orig_path="false"
       fuse_paths="false"
       oposite_fuse="false" />
  </defs>
  <sodipodi:namedview
     pagecolor="#ffffff"
     bordercolor="#000000"
     borderopacity="1"
     objecttolerance="10"
     gridtolerance="10"
     guidetolerance="10"
     showgrid="false"
     inkscape:pageopacity="0"
     inkscape:pageshadow="0"
     inkscape:window-width="1840"
     inkscape:window-height="970"
     inkscape:showpageshadow="false"
     inkscape:pagecheckerboard="true"
     inkscape:snap-perpendicular="true"
     inkscape:snap-tangential="true"
     inkscape:object-paths="true"
     inkscape:snap-intersection-paths="true"
     inkscape:snap-smooth-nodes="true"
     inkscape:snap-midpoints="true"
     inkscape:snap-object-midpoints="true"
     inkscape:snap-center="true"
     inkscape:snap-text-baseline="true"
     inkscape:snap-page="true"
     inkscape:snap-bbox="true"
     inkscape:bbox-paths="true"
     inkscape:bbox-nodes="true"
     inkscape:snap-bbox-edge-midpoints="true"
     inkscape:snap-bbox-midpoints="true"
     inkscape:zoom="16.125"
     inkscape:cx="12.124031"
     inkscape:cy="26.772904"
     inkscape:window-x="40"
     inkscape:window-y="40"
     inkscape:window-maximized="1"
     id="namedview2"
     inkscape:snap-global="false"
     inkscape:current-layer="svg4" />
  <path
     style="fill:#ffffff"
     d="M 6 8 C 4.892 8 4 8.892 4 10 L 4 38 C 4 39.108 4.892 40 6 40 L 42 40 C 43.108 40 44 39.108 44 38 L 44 10 C 44 8.892 43.108 8 42 8 L 6 8 z M 16.792969 13.630859 L 19.515625 13.630859 L 21.722656 17.455078 L 26.277344 17.455078 L 28.484375 13.630859 L 31.207031 13.630859 L 28.998047 17.455078 L 32.433594 17.455078 L 33.947266 23.103516 L 37.535156 23.103516 L 36.125 17.833984 L 38.886719 17.833984 L 40.296875 23.103516 L 41.011719 25.771484 L 34.662109 25.771484 L 35.808594 30.050781 L 31.412109 30.050781 L 34.40625 35.238281 L 30.46875 35.238281 L 27.474609 30.050781 L 20.525391 30.050781 L 17.53125 35.238281 L 13.59375 35.238281 L 16.587891 30.050781 L 12.191406 30.050781 L 13.337891 25.771484 L 6.9882812 25.771484 L 7.703125 23.103516 L 9.1132812 17.833984 L 11.875 17.833984 L 10.464844 23.103516 L 14.052734 23.103516 L 15.566406 17.455078 L 19.001953 17.455078 L 16.792969 13.630859 z M 17.566406 19.441406 L 17.566406 23.285156 L 21.412109 23.285156 L 21.412109 19.441406 L 17.566406 19.441406 z M 26.587891 19.441406 L 26.587891 23.285156 L 30.433594 23.285156 L 30.433594 19.441406 L 26.587891 19.441406 z "
     id="rect864" />
</svg>
