<?xml version="1.0" encoding="UTF-8" standalone="no"?>
<svg
   xmlns:dc="http://purl.org/dc/elements/1.1/"
   xmlns:cc="http://creativecommons.org/ns#"
   xmlns:rdf="http://www.w3.org/1999/02/22-rdf-syntax-ns#"
   xmlns:svg="http://www.w3.org/2000/svg"
   xmlns="http://www.w3.org/2000/svg"
   xmlns:sodipodi="http://sodipodi.sourceforge.net/DTD/sodipodi-0.dtd"
   xmlns:inkscape="http://www.inkscape.org/namespaces/inkscape"
   width="48"
   height="48"
   viewBox="0 0 48 48"
   version="1.1"
   id="svg904"
   sodipodi:docname="revolution.svg"
   inkscape:version="0.92.2 5c3e80d, 2017-08-06">
  <metadata
     id="metadata910">
    <rdf:RDF>
      <cc:Work
         rdf:about="">
        <dc:format>image/svg+xml</dc:format>
        <dc:type
           rdf:resource="http://purl.org/dc/dcmitype/StillImage" />
        <dc:title></dc:title>
      </cc:Work>
    </rdf:RDF>
  </metadata>
  <defs
     id="defs908" />
  <sodipodi:namedview
     pagecolor="#ffffff"
     bordercolor="#666666"
     borderopacity="1"
     objecttolerance="10"
     gridtolerance="10"
     guidetolerance="10"
     inkscape:pageopacity="0"
     inkscape:pageshadow="2"
     inkscape:window-width="1840"
     inkscape:window-height="970"
     id="namedview906"
     showgrid="false"
     inkscape:showpageshadow="false"
     inkscape:pagecheckerboard="true"
     inkscape:snap-bbox="true"
     inkscape:bbox-paths="true"
     inkscape:bbox-nodes="true"
     inkscape:snap-bbox-edge-midpoints="true"
     inkscape:snap-bbox-midpoints="true"
     inkscape:object-paths="true"
     inkscape:snap-intersection-paths="true"
     inkscape:snap-smooth-nodes="true"
     inkscape:snap-midpoints="true"
     inkscape:snap-object-midpoints="true"
     inkscape:snap-center="true"
     inkscape:snap-text-baseline="true"
     inkscape:snap-page="true"
     inkscape:zoom="11.402097"
     inkscape:cx="-1.5790325"
     inkscape:cy="30.995422"
     inkscape:window-x="40"
     inkscape:window-y="40"
     inkscape:window-maximized="1"
     inkscape:current-layer="svg904"
     inkscape:measure-start="-4.64827,15.8743"
     inkscape:measure-end="35.7129,22.2766" />
  <path
     style="fill:#ffffff"
     d="M 14.771484 3.359375 A 3 3 0 0 0 11.765625 6.3691406 L 11.765625 15.294922 L 1.2226562 15.294922 L 6.2402344 23.984375 L 6.2402344 41.630859 A 3 3 0 0 0 9.2480469 44.640625 L 32.707031 44.640625 A 3 3 0 0 0 35.714844 41.630859 L 35.714844 32.707031 L 38.753906 32.707031 A 3 3 0 0 0 41.759766 29.699219 L 41.759766 12.050781 L 46.777344 3.3613281 L 36.654297 3.3613281 L 14.771484 3.359375 z M 15.501953 6.7929688 L 40.763672 6.7929688 L 38.326172 11.015625 L 38.326172 28.96875 C 38.314172 29.13575 38.191437 29.273438 38.023438 29.273438 L 35.712891 29.273438 L 35.712891 18.302734 A 3 3 0 0 0 32.705078 15.294922 L 15.195312 15.294922 L 15.195312 7.0976562 C 15.195312 6.9296562 15.333953 6.7929688 15.501953 6.7929688 z M 18.671875 9.4140625 A 0.636 0.636 0 0 0 18.03125 10.052734 L 18.03125 12.033203 A 0.636 0.636 0 0 0 18.671875 12.673828 L 34.851562 12.673828 A 0.636 0.636 0 0 0 35.492188 12.033203 L 35.492188 10.052734 A 0.636 0.636 0 0 0 34.851562 9.4140625 L 18.671875 9.4140625 z M 16.833984 18.773438 L 17.632812 18.773438 C 18.518698 18.773438 19.232422 19.487161 19.232422 20.373047 L 19.232422 24.224609 L 22.724609 24.224609 L 22.724609 20.373047 C 22.724609 19.487161 23.438333 18.773438 24.324219 18.773438 L 25.123047 18.773438 C 26.008933 18.773438 26.722656 19.487161 26.722656 20.373047 L 26.722656 24.224609 L 30.572266 24.224609 C 31.458151 24.224609 32.171875 24.938333 32.171875 25.824219 L 32.171875 26.623047 C 32.171875 27.508933 31.458151 28.222656 30.572266 28.222656 L 26.722656 28.222656 L 26.722656 31.714844 L 30.572266 31.714844 C 31.458151 31.714844 32.171875 32.428567 32.171875 33.314453 L 32.171875 34.113281 C 32.171875 34.999167 31.458151 35.712891 30.572266 35.712891 L 26.722656 35.712891 L 26.722656 39.5625 C 26.722656 40.448386 26.008933 41.162109 25.123047 41.162109 L 24.324219 41.162109 C 23.438333 41.162109 22.724609 40.448386 22.724609 39.5625 L 22.724609 35.712891 L 19.232422 35.712891 L 19.232422 39.5625 C 19.232422 40.448386 18.518698 41.162109 17.632812 41.162109 L 16.833984 41.162109 C 15.948098 41.162109 15.234375 40.448386 15.234375 39.5625 L 15.234375 35.712891 L 11.382812 35.712891 C 10.496927 35.712891 9.7832031 34.999167 9.7832031 34.113281 L 9.7832031 33.314453 C 9.7832031 32.428567 10.496927 31.714844 11.382812 31.714844 L 15.234375 31.714844 L 15.234375 28.222656 L 11.382812 28.222656 C 10.496927 28.222656 9.7832031 27.508933 9.7832031 26.623047 L 9.7832031 25.824219 C 9.7832031 24.938333 10.496927 24.224609 11.382812 24.224609 L 15.234375 24.224609 L 15.234375 20.373047 C 15.234375 19.487161 15.948098 18.773438 16.833984 18.773438 z M 19.232422 28.222656 L 19.232422 31.714844 L 22.724609 31.714844 L 22.724609 28.222656 L 19.232422 28.222656 z "
     id="path1446" />
</svg>
