<?xml version="1.0" encoding="UTF-8" standalone="no"?>
<svg
   xmlns:dc="http://purl.org/dc/elements/1.1/"
   xmlns:cc="http://creativecommons.org/ns#"
   xmlns:rdf="http://www.w3.org/1999/02/22-rdf-syntax-ns#"
   xmlns:svg="http://www.w3.org/2000/svg"
   xmlns="http://www.w3.org/2000/svg"
   xmlns:sodipodi="http://sodipodi.sourceforge.net/DTD/sodipodi-0.dtd"
   xmlns:inkscape="http://www.inkscape.org/namespaces/inkscape"
   width="48"
   height="48"
   viewBox="0 0 48 48"
   version="1.1"
   id="svg192"
   sodipodi:docname="revolut.svg"
   inkscape:version="0.92.5 (2060ec1f9f, 2020-04-08)">
  <metadata
     id="metadata198">
    <rdf:RDF>
      <cc:Work
         rdf:about="">
        <dc:format>image/svg+xml</dc:format>
        <dc:type
           rdf:resource="http://purl.org/dc/dcmitype/StillImage" />
        <dc:title />
      </cc:Work>
    </rdf:RDF>
  </metadata>
  <defs
     id="defs196" />
  <sodipodi:namedview
     pagecolor="#ffffff"
     bordercolor="#666666"
     borderopacity="1"
     objecttolerance="10"
     gridtolerance="10"
     guidetolerance="10"
     inkscape:pageopacity="0"
     inkscape:pageshadow="2"
     inkscape:window-width="1366"
     inkscape:window-height="768"
     id="namedview194"
     showgrid="false"
     inkscape:zoom="4.9166668"
     inkscape:cx="-0.81355932"
     inkscape:cy="24"
     inkscape:window-x="0"
     inkscape:window-y="0"
     inkscape:window-maximized="0"
     inkscape:current-layer="svg192" />
  <path
     style="fill:#ffffff;stroke-width:0.26786059;stroke:none"
     d="M 21.7226,45.90323 C 15.98063,45.42576 10.87717,42.65973 6.81173,37.82166 3.63319,34.03905 2,29.34388 2,23.98867 2,17.04231 4.67266,11.41543 10.15988,6.8092499 c 3.78455,-3.1769 8.48215,-4.80925 13.84012,-4.80925 5.35797,0 10.05557,1.63235 13.84012,4.80925 C 43.32734,11.41543 46,17.04231 46,23.98867 c 0,5.35521 -1.63319,10.05038 -4.81172,13.83299 -5.08276,6.04872 -11.56221,8.73879 -19.46568,8.08157 z m 10.4249,-8.39818 c 1.44702,-0.60429 2.53432,-1.67448 2.7231,-2.68024 0.19239,-1.02503 0.14202,-1.18495 -1.72174,-5.46568 l -1.33444,-3.06497 1.16905,-1.29959 c 3.94577,-4.38639 2.55612,-11.90534 -2.61095,-14.12701 -2.61962,-1.1263501 -10.36955,-1.3383701 -13.623,-0.3727 -1.92582,0.57161 -2.28146,1.18986 -2.47659,4.30535 -0.15447,2.46624 -0.39639,4.26221 -1.77503,13.17744 -0.72678,4.69987 -0.71502,6.29038 0.0566,7.65203 1.01705,1.79477 2.03136,2.28415 4.73427,2.28415 1.96003,0 2.53545,-0.10773 3.71604,-0.69574 0.76828,-0.38266 1.52615,-0.93715 1.68414,-1.23222 0.28275,-0.52804 0.29846,-0.52629 1.0001,0.11138 1.00523,0.91359 2.17395,1.60675 3.11861,1.84962 1.09174,0.28069 4.23189,0.0209 5.33984,-0.44182 z M 15.45369,34.45997 c -0.69177,-0.69142 -0.69493,-1.14173 -0.0387,-5.51716 0.28716,-1.91471 0.82892,-5.5299 1.20391,-8.03375 0.37499,-2.50385 0.68204,-5.22898 0.68233,-6.05586 l 6.1e-4,-1.5034 1.24307,-0.17029 c 1.94772,-0.26683 8.6991,-0.19651 9.77356,0.10179 1.43067,0.39719 2.6934,1.34612 3.39014,2.54764 0.52911,0.91246 0.60568,1.37037 0.53993,3.22882 -0.0669,1.89127 -0.17622,2.3092 -0.86299,3.2994 -0.43251,0.62359 -1.30796,1.50819 -1.94545,1.96576 -0.90814,0.65184 -1.12471,0.95212 -1.00032,1.38697 0.39889,1.39453 2.6495,7.06916 3.10489,7.8286 l 0.50765,0.84659 -1.36001,0.29152 c -1.82143,0.39043 -2.77704,0.36727 -3.88171,-0.0941 -1.21187,-0.50609 -1.71229,-1.38586 -2.81724,-4.95288 l -0.91787,-2.96309 h -1.01132 c -0.55622,0 -1.01178,0.0904 -1.01234,0.20085 -6e-4,0.11046 -0.17931,1.2854 -0.39721,2.61096 -0.21791,1.32557 -0.39831,2.92526 -0.40088,3.55487 -0.005,1.31899 -0.2725,1.49469 -2.74095,1.80294 -1.3078,0.16331 -1.56649,0.11604 -2.05902,-0.37623 z M 23.9816,23.45836 c 1.4191,-0.40678 2.36351,-1.48775 2.73006,-3.1248 0.60646,-2.70858 -0.40221,-4.35105 -2.73852,-4.45924 l -1.15096,-0.0533 -0.33893,2.14234 c -0.18641,1.17828 -0.45997,2.85318 -0.60793,3.722 -0.14795,0.86882 -0.20558,1.68224 -0.12807,1.80759 0.18718,0.3027 1.10739,0.28845 2.23435,-0.0346 z"
     id="path71"
     inkscape:connector-curvature="0" />
</svg>
