<?xml version="1.0" encoding="UTF-8"?>
<svg version="1.1" viewBox="0 0 48 48" xmlns="http://www.w3.org/2000/svg">
    <defs>
        <style>.cls-1{fill:#fff;}</style>
    </defs>
    <path d="m31.058 13.945c-1.452 0-2.6193 1.0522-2.6193 2.358v21.475c0 1.3057 1.1673 2.3554 2.6193 2.3554h9.3198c1.452 0 2.6222-1.0497 2.6222-2.3554v-21.475c0-1.3057-1.1701-2.358-2.6222-2.358zm0.29293 1.3094h8.7368c0.80669 0 1.4561 0.58399 1.4561 1.3094v20.951c0 0.72541-0.64943 1.3094-1.4561 1.3094h-8.7368c-0.8067 0-1.4561-0.584-1.4561-1.3094v-20.951c0-0.72541 0.64943-1.3094 1.4561-1.3094z" fill="#fff"/>
    <path d="m20.607 7.8672-4.8518 5.13 1.9237 1.8194-0.76757 0.81158-2.3078-2.1827-0.88918 0.94016-0.79154-0.74862-0.6886 0.72808-0.53437-0.5054 1.0108-1.0687-1.2825-1.2129-3.2345 3.42 1.2825 1.2129 1.0108-1.0687 0.53437 0.50539-0.68702 0.72641 0.79154 0.74862-0.88918 0.94016 2.3078 2.1827-0.76915 0.81325-1.9237-1.8194-4.8518 5.13 5.13 4.8518 4.8518-5.13-1.9237-1.8194 0.76915-0.81325 2.3095 2.1843 0.88918-0.94016 0.78987 0.74704 0.68702-0.72641 0.53437 0.5054-1.0108 1.0687 1.2825 1.2129 3.2345-3.42-1.2825-1.2129-1.0108 1.0687-0.53437-0.50539 0.6886-0.72808-0.78987-0.74704 0.88918-0.94016-2.3095-2.1843 0.76757-0.81158 1.9237 1.8194 4.8518-5.13z" fill="#fff"/>
    <path class="cls-1" d="m35.719 21.431a3.3055 3.3055 0 0 0-3.3055 3.3055c0 2.585 2.5233 5.7027 3.185 6.4681a0.20186 0.20186 0 0 0 0.3056 0c0.65606-0.76821 3.1205-3.8859 3.1205-6.4681a3.3055 3.3055 0 0 0-3.3055-3.3055zm0 4.2055a1.1215 1.1215 0 1 1 1.1215-1.1215 1.1215 1.1215 0 0 1-1.1215 1.1215z" fill="#fff" stroke-width=".28037"/>
    <path class="cls-1" d="m37.511 29.915-0.37569 0.51868c1.1523 0.17663 1.7691 0.56073 1.7691 0.7654 0 0.28037-1.1215 0.86914-3.185 0.86914s-3.185-0.56074-3.185-0.86914c0-0.22429 0.64204-0.60279 1.842-0.77662-0.12616-0.16542-0.25233-0.33924-0.38691-0.52148-1.1523 0.21308-2.0327 0.65045-2.0327 1.2981 0 0.95044 1.8925 1.4467 3.7625 1.4467s3.7625-0.49625 3.7625-1.4467c0-0.63643-0.84951-1.0766-1.971-1.2841z" fill="#fff" stroke-width=".28037"/>
</svg>
