<?xml version="1.0" encoding="UTF-8"?>
<svg version="1.1" viewBox="0 0 48 48" xmlns="http://www.w3.org/2000/svg">
    <path d="m5.2427 19.483c3.1145 2.4332 6.2289 4.8664 9.3434 7.2996 1.9596-7.1071 3.9193-14.214 5.8789-21.321-5.0741 4.6739-10.148 9.3478-15.222 14.022z" fill="#fff" stroke-dashoffset="5.18" stroke-linecap="round" stroke-linejoin="round" stroke-width="4" style="paint-order:stroke markers fill"/>
    <path d="m9.3544 36.034c1.6431-2.8159 3.2862-5.6319 4.9292-8.4478-2.9901-2.3361-5.9803-4.6722-8.9704-7.0083 1.3471 5.152 2.6941 10.304 4.0412 15.456z" fill="#fff" stroke-dashoffset="5.18" stroke-linecap="round" stroke-linejoin="round" stroke-width="4" style="paint-order:stroke markers fill"/>
    <path d="m9.8102 36.879c5.6241 2.039 11.248 4.078 16.872 6.117-3.9373-4.9298-7.8746-9.8595-11.812-14.789-1.6868 2.8908-3.3737 5.7815-5.0605 8.6723z" fill="#fff" stroke-dashoffset="5.18" stroke-linecap="round" stroke-linejoin="round" stroke-width="4" style="paint-order:stroke markers fill"/>
    <path d="m15.474 27.649c4.087 5.1171 8.1739 10.234 12.261 15.351 2.2338-7.8208 4.4675-15.642 6.7013-23.462-6.3207 2.7037-12.641 5.4075-18.962 8.1112z" fill="#fff" stroke-dashoffset="5.18" stroke-linecap="round" stroke-linejoin="round" stroke-width="4" style="paint-order:stroke markers fill"/>
    <path d="m15.439 26.773c6.309-2.6987 12.618-5.3973 18.927-8.096-4.3079-4.5589-8.6157-9.1178-12.924-13.677-2.0011 7.2576-4.0022 14.515-6.0034 21.773z" fill="#fff" stroke-dashoffset="5.18" stroke-linecap="round" stroke-linejoin="round" stroke-width="4" style="paint-order:stroke markers fill"/>
    <path d="m28.662 42.74c4.6985-3.811 9.3969-7.6219 14.095-11.433-2.514-3.837-5.0281-7.6739-7.5421-11.511-2.1844 7.6479-4.3688 15.296-6.5532 22.944z" fill="#fff" stroke-dashoffset="5.18" stroke-linecap="round" stroke-linejoin="round" stroke-width="4" style="paint-order:stroke markers fill"/>
    <path d="m35.597 18.883c2.3822 3.6357 4.7645 7.2713 7.1467 10.907-0.50225-5.4351-1.0045-10.87-1.5067-16.305-1.88 1.7994-3.76 3.5988-5.64 5.3983z" fill="#fff" stroke-dashoffset="5.18" stroke-linecap="round" stroke-linejoin="round" stroke-width="4" style="paint-order:stroke markers fill"/>
    <path d="m35.081 18.241c1.916-1.8338 3.832-3.6677 5.748-5.5015-5.9918-2.4795-11.984-4.959-17.975-7.4385 4.0758 4.3133 8.1515 8.6267 12.227 12.94z" fill="#fff" stroke-dashoffset="5.18" stroke-linecap="round" stroke-linejoin="round" stroke-width="4" style="paint-order:stroke markers fill"/>
</svg>
