<?xml version="1.0" encoding="UTF-8"?>
<svg version="1.1" viewBox="0 0 48 48" xmlns="http://www.w3.org/2000/svg">
    <path d="m21.25 7.5c-1.5235 0-2.75 1.2265-2.75 2.75v8.25h-8.25c-1.5235 0-2.75 1.2265-2.75 2.75v5.5c0 1.5235 1.2265 2.75 2.75 2.75h8.25v8.25c0 1.5235 1.2265 2.75 2.75 2.75h5.5c1.5235 0 2.75-1.2265 2.75-2.75v-8.25h8.25c1.5235 0 2.75-1.2265 2.75-2.75v-5.5c0-1.5235-1.2265-2.75-2.75-2.75h-8.25v-8.25c0-1.5235-1.2265-2.75-2.75-2.75zm2.75 2.2 0.77773 0.77773 2.3332 2.3354-0.77774 0.77773-2.3332-2.3354-2.3332 2.3354-0.77773-0.77773 2.3332-2.3354zm0 9.9a4.4 4.4 0 0 1 4.4 4.4 4.4 4.4 0 0 1-4.4 4.4 4.4 4.4 0 0 1-4.4-4.4 4.4 4.4 0 0 1 4.4-4.4zm0 1.1a3.3 3.3 0 0 0-3.3 3.3 3.3 3.3 0 0 0 3.3 3.3 3.3 3.3 0 0 0 3.3-3.3 3.3 3.3 0 0 0-3.3-3.3zm-11.187 0.18906 0.77773 0.77774-2.3354 2.3332 2.3354 2.3332-0.77773 0.77773-2.3354-2.3332-0.77773-0.77773 0.77773-0.77773zm22.374 0 2.3354 2.3332 0.77773 0.77773-0.77773 0.77773-2.3354 2.3332-0.77773-0.77773 2.3354-2.3332-2.3354-2.3332zm-13.52 13.52 2.3332 2.3354 2.3332-2.3354 0.77774 0.77773-2.3332 2.3354-0.77773 0.77773-0.77773-0.77773-2.3332-2.3354z" fill="#fff"/>
</svg>
