<?xml version="1.0" encoding="UTF-8"?>
<svg version="1.1" viewBox="0 0 48 48" xmlns="http://www.w3.org/2000/svg">
    <path d="m7.6445 27.838a1.712 1.712 0 0 0-1.6387 1.2676l-3.9492 14.738a1.712 1.712 0 0 0 2.0957 2.0957l7.3691-1.9727 7.3672-1.9766a1.712 1.712 0 0 0 0.76758-2.8613l-1.1289-1.1289h-2.5273a1.89 1.89 0 0 1-1.8906-1.8906v-2.5293l-5.2402-5.2402a1.712 1.712 0 0 0-1.2246-0.5v-0.001953z" fill="#fff"/>
    <path d="m24.002 2c-12.15 0-22 9.8497-22 22s9.8497 22 22 22 22-9.8497 22-22-9.8497-22-22-22zm-0.005859 6.1094a1.89 1.89 0 0 1 1.2188 0.44336l11.918 10a1.89 1.89 0 1 1-2.4297 2.8945l-10.703-8.9805-10.703 8.9805a1.89 1.89 0 1 1-2.4297-2.8945l11.918-10a1.89 1.89 0 0 1 1.2109-0.44336zm-8.0254 14.584a1.89 1.89 0 0 1 1.9199 1.916v9.6113h12.219v-9.6113a1.8906 1.8906 0 0 1 3.7812 0v11.5a1.89 1.89 0 0 1-1.8906 1.8906h-16a1.89 1.89 0 0 1-1.8906-1.8906v-11.5a1.89 1.89 0 0 1 1.8613-1.916z" fill="#fff"/>
</svg>
