<?xml version="1.0" encoding="UTF-8" standalone="no"?>
<svg
   xmlns:dc="http://purl.org/dc/elements/1.1/"
   xmlns:cc="http://creativecommons.org/ns#"
   xmlns:rdf="http://www.w3.org/1999/02/22-rdf-syntax-ns#"
   xmlns:svg="http://www.w3.org/2000/svg"
   xmlns="http://www.w3.org/2000/svg"
   xmlns:sodipodi="http://sodipodi.sourceforge.net/DTD/sodipodi-0.dtd"
   xmlns:inkscape="http://www.inkscape.org/namespaces/inkscape"
   width="48"
   height="48"
   viewBox="0 0 48 48"
   version="1.1"
   id="svg4"
   sodipodi:docname="RTSInfo.svg"
   inkscape:version="0.92.3 (2405546, 2018-03-11)">
  <metadata
     id="metadata10">
    <rdf:RDF>
      <cc:Work
         rdf:about="">
        <dc:format>image/svg+xml</dc:format>
        <dc:type
           rdf:resource="http://purl.org/dc/dcmitype/StillImage" />
        <dc:title />
      </cc:Work>
    </rdf:RDF>
  </metadata>
  <defs
     id="defs8">
    <clipPath
       id="clip1">
      <path
         inkscape:connector-curvature="0"
         d="M 0,0 H 152 V 101.30859 H 0 Z m 0,0"
         id="path2" />
    </clipPath>
  </defs>
  <sodipodi:namedview
     pagecolor="#858585"
     bordercolor="#666666"
     borderopacity="1"
     objecttolerance="10"
     gridtolerance="10"
     guidetolerance="10"
     inkscape:pageopacity="0"
     inkscape:pageshadow="2"
     inkscape:window-width="1920"
     inkscape:window-height="1046"
     id="namedview6"
     showgrid="false"
     inkscape:zoom="13.906433"
     inkscape:cx="12.71144"
     inkscape:cy="26.893027"
     inkscape:window-x="0"
     inkscape:window-y="0"
     inkscape:window-maximized="1"
     inkscape:current-layer="svg4" />
  <path
     d="M 7 5 C 5.892 5 5 5.892 5 7 L 5 41 C 5 42.108 5.892 43 7 43 L 41 43 C 42.108 43 43 42.108 43 41 L 43 7 C 43 5.892 42.108 5 41 5 L 7 5 z M 12.285156 7.6269531 L 35.777344 7.6269531 L 35.777344 23.375 L 12.285156 23.375 L 12.285156 7.6269531 z M 30.783203 11.689453 C 28.869196 11.689453 27.939453 12.52449 27.939453 13.847656 C 27.939453 15.043303 28.58842 15.750757 29.714844 16.041016 L 30.574219 16.261719 C 31.281649 16.447533 31.583984 16.656803 31.583984 17.097656 C 31.583984 17.747398 31.141738 17.863281 30.074219 17.863281 C 29.586001 17.863281 28.739476 17.795174 28.449219 17.771484 C 28.148029 17.748414 28.067634 17.781465 28.021484 18.037109 L 27.880859 18.931641 C 27.858389 19.106526 27.939245 19.174196 28.089844 19.197266 C 28.426859 19.244024 29.273637 19.302734 30.097656 19.302734 C 31.943046 19.302734 33.289063 18.698339 33.289062 16.980469 C 33.289062 15.970636 32.847855 15.216969 31.316406 14.822266 L 30.457031 14.601562 C 29.877123 14.45097 29.611328 14.265253 29.611328 13.835938 C 29.611328 13.231737 30.167411 13.117188 30.701172 13.117188 C 31.420746 13.117188 32.153102 13.175539 32.443359 13.199219 C 32.744548 13.221689 32.824334 13.185935 32.871094 12.929688 L 33.011719 12.060547 C 33.035399 11.886269 32.953933 11.816649 32.802734 11.792969 C 32.466325 11.746823 31.723812 11.689453 30.783203 11.689453 z M 15.347656 11.769531 C 15.115695 11.769531 15.046875 11.85202 15.046875 12.083984 L 15.046875 18.919922 C 15.046875 19.153102 15.115687 19.232422 15.347656 19.232422 L 16.416016 19.232422 C 16.64859 19.232422 16.71875 19.153106 16.71875 18.919922 L 16.71875 13.152344 L 17.820312 13.152344 C 18.516812 13.152344 18.853516 13.406291 18.853516 14.056641 C 18.853516 14.648088 18.585543 14.835191 18.318359 14.951172 C 17.982558 15.090837 17.865556 14.939396 17.761719 15.380859 L 17.646484 15.867188 C 17.611874 16.006245 17.599609 16.076897 17.599609 16.123047 C 17.599609 16.23903 17.635417 16.331039 17.716797 16.470703 L 19.097656 18.955078 C 19.213031 19.153042 19.305871 19.232422 19.583984 19.232422 L 20.849609 19.232422 C 21.012348 19.232422 21.209249 19.128757 21.023438 18.837891 L 19.330078 16.029297 C 19.899059 15.669813 20.537109 15.159018 20.537109 14.033203 C 20.537109 12.583123 19.722642 11.769531 17.935547 11.769531 L 15.347656 11.769531 z M 21.433594 11.769531 C 21.201019 11.769531 21.130859 11.85202 21.130859 12.083984 L 21.130859 12.873047 C 21.130859 13.105007 21.201021 13.185547 21.433594 13.185547 L 23.40625 13.185547 L 23.40625 18.919922 C 23.40625 19.152492 23.476417 19.232422 23.708984 19.232422 L 24.775391 19.232422 C 25.007965 19.232422 25.078125 19.152496 25.078125 18.919922 L 25.078125 13.185547 L 27.048828 13.185547 C 27.281402 13.185547 27.351562 13.105013 27.351562 12.873047 L 27.351562 12.083984 C 27.351562 11.852021 27.281401 11.769531 27.048828 11.769531 L 21.433594 11.769531 z M 36.400391 27.132812 C 39.211344 27.132812 40.485056 28.036638 41.09375 30.460938 C 41.380427 31.602699 41.410311 34.372546 41.148438 35.466797 C 40.75517 37.110055 39.900855 38.147879 38.539062 38.636719 C 38.044806 38.814139 35.68992 38.955417 35 38.849609 C 34.146669 38.718741 33.202372 38.232766 32.660156 37.644531 C 31.695583 36.598091 31.34375 35.352925 31.34375 33 C 31.34375 28.776192 32.759395 27.132812 36.400391 27.132812 z M 30.599609 27.332031 L 30.599609 28.298828 L 30.599609 29.265625 L 28.199219 29.333984 L 25.800781 29.400391 L 25.761719 30.632812 L 25.722656 31.867188 L 27.927734 31.867188 L 30.132812 31.867188 L 30.132812 32.933594 L 30.132812 34 L 27.933594 34 L 25.732422 34 L 25.732422 36.333984 L 25.732422 38.666016 L 24.533203 38.666016 L 23.333984 38.666016 L 23.333984 33 L 23.333984 27.333984 L 26.966797 27.333984 L 30.599609 27.332031 z M 8.2675781 27.333984 L 9.4667969 27.333984 L 10.666016 27.333984 L 10.666016 33 L 10.666016 38.666016 L 9.4667969 38.666016 L 8.2675781 38.666016 L 8.2675781 33 L 8.2675781 27.333984 z M 12.533203 27.333984 L 13.662109 27.333984 L 14.791016 27.333984 L 15.228516 28.041016 C 15.469103 28.430301 15.741854 28.865431 15.833984 29.007812 C 15.926124 29.150194 16.041727 29.356797 16.091797 29.466797 C 16.141867 29.576797 16.382208 29.977898 16.625 30.359375 C 16.867792 30.740853 17.066406 31.08623 17.066406 31.125 C 17.066406 31.16377 17.276537 31.522593 17.533203 31.923828 C 17.78987 32.325063 18 32.685844 18 32.724609 C 18 32.763379 18.199147 33.111623 18.443359 33.498047 C 18.687571 33.884471 18.925836 34.305261 18.972656 34.433594 C 19.019476 34.561928 19.119673 34.666016 19.195312 34.666016 C 19.286445 34.666016 19.333984 33.42994 19.333984 31 L 19.333984 27.333984 L 20.400391 27.333984 L 21.466797 27.333984 L 21.466797 33.005859 L 21.466797 38.677734 L 20.316406 38.638672 L 19.167969 38.599609 L 18.230469 37.066406 C 17.715261 36.223072 17.225808 35.414244 17.142578 35.267578 C 16.311141 33.802498 14.882046 31.466882 14.816406 31.466797 C 14.770736 31.466737 14.751738 33.086346 14.773438 35.066406 L 14.8125 38.666016 L 13.671875 38.666016 L 12.533203 38.666016 L 12.533203 33 L 12.533203 27.333984 z M 36.34375 29.074219 C 35.913271 29.069075 35.491831 29.119986 35.240234 29.232422 C 34.77462 29.440505 34.279396 29.957442 34.197266 30.322266 C 34.162966 30.474649 34.076036 30.869219 34.003906 31.199219 C 33.815389 32.061603 33.840481 34.073121 34.050781 34.966797 C 34.263075 35.86894 34.71285 36.577015 35.191406 36.767578 C 35.810298 37.014023 37.219067 36.961832 37.691406 36.673828 C 38.473216 36.197125 38.796875 35.121424 38.796875 33 C 38.796875 30.7584 38.409103 29.64043 37.498047 29.259766 C 37.213618 29.140919 36.774229 29.079319 36.34375 29.074219 z "
     id="rect2"
     style="fill:#ffffff" />
</svg>
