<?xml version="1.0" encoding="UTF-8"?>
<svg version="1.1" viewBox="0 0 48 48" xmlns="http://www.w3.org/2000/svg">
    <path d="m8.0901 34.253c-0.39174 0.39174-0.39174 1.0225 0 1.4142l4.2426 4.2426c0.39174 0.39174 1.0225 0.39174 1.4142 0l26.163-26.163c0.39174-0.39174 0.39174-1.0225 1e-6 -1.4142l-4.2426-4.2426c-0.39174-0.39174-1.0225-0.39174-1.4142 0zm1.1449-1.0482c0.93147 0.38522 1.3051-0.29183 1.3051 0.01243 0 1.2909 1.2899 2.5826 1.2899 2.5826s-1.2903-1.2913-2.5812-1.2913c-0.30426 0 0.27263-0.27348-0.01381-1.3037zm3.472-3.472c0.93147 0.38522 1.3037-0.29045 1.3037 0.01381-1e-6 1.2909 1.2913 2.5812 1.2913 2.5812s-1.2917-1.2899-2.5826-1.2899c-0.30426 2e-6 0.27401-0.27486-0.01243-1.3051zm3.4706-3.4706c0.93147 0.38522 1.3037-0.29045 1.3037 0.01381 0 1.2909 1.2913 2.5812 1.2913 2.5812s-1.2903-1.2913-2.5812-1.2913c-0.30426 2e-6 0.27263-0.27348-0.01381-1.3037zm3.4706-3.4706c0.93147 0.38522 1.3051-0.29183 1.3051 0.01243 0 1.2909 1.2899 2.5826 1.2899 2.5826s-1.2903-1.2913-2.5812-1.2913c-0.30426 0 0.27263-0.27348-0.01381-1.3037zm3.4706-3.4706c0.93147 0.38522 1.3051-0.29183 1.3051 0.01243 0 1.2909 1.2899 2.5826 1.2899 2.5826s-1.2903-1.2913-2.5812-1.2913c-0.30426 1e-6 0.27263-0.27348-0.01381-1.3037zm3.472-3.472c0.93147 0.38522 1.3037-0.29045 1.3037 0.01381 1e-6 1.2909 1.2913 2.5812 1.2913 2.5812s-1.2917-1.2899-2.5826-1.2899c-0.30426 0 0.27401-0.27486-0.01243-1.3051zm3.4706-3.4706c0.93148 0.38522 1.3037-0.29045 1.3037 0.01381-2e-6 1.2909 1.2913 2.5812 1.2913 2.5812s-1.2903-1.2913-2.5812-1.2913c-0.30426 0 0.27263-0.27348-0.01381-1.3037zm3.4706-3.4706c0.93147 0.38522 1.3051-0.29183 1.3051 0.01243 1e-6 1.2909 1.2899 2.5826 1.2899 2.5826s-1.2903-1.2913-2.5812-1.2913c-0.30426 0 0.27263-0.27348-0.01381-1.3037z" fill="#fff"/>
    <path d="m36.325 29.645c-3.68 0-6.6816 2.9967-6.6816 6.6777 0 3.68 3.0016 6.6777 6.6816 6.6777a6.687 6.687 0 0 0 6.6758-6.6777 6.687 6.687 0 0 0-6.6758-6.6777zm-4.1289 2.3711h1.9902c0.097 0 0.17383 0.07783 0.17383 0.17383v1.9902a0.175 0.175 0 0 1-0.17383 0.17578h-1.9902a0.177 0.177 0 0 1-0.17773-0.17578v-1.9902c0-0.096 0.08173-0.17383 0.17773-0.17383zm3.1328 0h1.9941c0.096 0 0.17383 0.07783 0.17383 0.17383v1.9902a0.175 0.175 0 0 1-0.17383 0.17578h-1.9941a0.175 0.175 0 0 1-0.17187-0.17578v-1.9902c0-0.096 0.07588-0.17383 0.17187-0.17383zm3.1387 0h1.9902c0.096 0 0.17188 0.07783 0.17188 0.17383v1.9902a0.174 0.174 0 0 1-0.17188 0.17578h-1.9902a0.175 0.175 0 0 1-0.17383-0.17578v-1.9902c0-0.096 0.07783-0.17383 0.17383-0.17383zm-6.2793 3.1367h1.9941c0.096 0 0.17188 0.07783 0.17188 0.17383v1.9902a0.174 0.174 0 0 1-0.17188 0.17578h-1.9941a0.175 0.175 0 0 1-0.17188-0.17578v-1.9902c0-0.096 0.07588-0.17383 0.17188-0.17383zm3.1387 0h1.9902c0.096 0 0.17188 0.07783 0.17188 0.17383v1.9902a0.174 0.174 0 0 1-0.17188 0.17578h-1.9902a0.175 0.175 0 0 1-0.17383-0.17578v-1.9902c0-0.096 0.07783-0.17383 0.17383-0.17383zm3.1367 0h1.9902c0.096 0 0.17188 0.07783 0.17188 0.17383v1.9902a0.174 0.174 0 0 1-0.17188 0.17578h-1.9902a0.177 0.177 0 0 1-0.17773-0.17578v-1.9902c0-0.096 0.08173-0.17383 0.17773-0.17383zm-6.2754 3.1367h1.9941a0.17 0.17 0 0 1 0.17188 0.17188v1.9922a0.172 0.172 0 0 1-0.17188 0.17383h-1.9941a0.174 0.174 0 0 1-0.17188-0.17383v-1.9922c0-0.097 0.07588-0.17188 0.17188-0.17188zm3.1387 0h1.9902a0.17 0.17 0 0 1 0.17188 0.17188v1.9922a0.172 0.172 0 0 1-0.17188 0.17383h-1.9902a0.174 0.174 0 0 1-0.17383-0.17383v-1.9922c0-0.097 0.07783-0.17188 0.17383-0.17188zm3.1367 0h1.9902a0.17 0.17 0 0 1 0.17188 0.17188v1.9922a0.172 0.172 0 0 1-0.17188 0.17383h-1.9902a0.175 0.175 0 0 1-0.17773-0.17383v-1.9922c0-0.097 0.08173-0.17188 0.17773-0.17188z" color="#000000" color-rendering="auto" dominant-baseline="auto" fill="#fff" image-rendering="auto" shape-rendering="auto" solid-color="#000000" style="font-feature-settings:normal;font-variant-alternates:normal;font-variant-caps:normal;font-variant-ligatures:normal;font-variant-numeric:normal;font-variant-position:normal;isolation:auto;mix-blend-mode:normal;paint-order:stroke markers fill;shape-padding:0;text-decoration-color:#000000;text-decoration-line:none;text-decoration-style:solid;text-indent:0;text-orientation:mixed;text-transform:none;white-space:normal"/>
</svg>
