<?xml version="1.0" encoding="UTF-8"?>
<svg version="1.1" viewBox="0 0 48 48" xmlns="http://www.w3.org/2000/svg">
    <path d="m8.0901 34.253c-0.39174 0.39174-0.39174 1.0225 0 1.4142l4.2426 4.2426c0.39174 0.39174 1.0225 0.39174 1.4142 0l26.163-26.163c0.39174-0.39174 0.39174-1.0225 1e-6 -1.4142l-4.2426-4.2426c-0.39174-0.39174-1.0225-0.39174-1.4142 3e-7zm1.1449-1.0482c0.93147 0.38522 1.3051-0.29183 1.3051 0.01243 0 1.2909 1.2899 2.5826 1.2899 2.5826s-1.2903-1.2913-2.5812-1.2913c-0.30426 0 0.27263-0.27348-0.01381-1.3037zm3.472-3.472c0.93147 0.38522 1.3037-0.29045 1.3037 0.01381-1e-6 1.2909 1.2913 2.5812 1.2913 2.5812s-1.2917-1.2899-2.5826-1.2899c-0.30426 2e-6 0.27401-0.27486-0.01243-1.3051zm3.4706-3.4706c0.93147 0.38522 1.3037-0.29045 1.3037 0.01381 0 1.2909 1.2913 2.5812 1.2913 2.5812s-1.2903-1.2913-2.5812-1.2913c-0.30426 2e-6 0.27263-0.27348-0.01381-1.3037zm3.4706-3.4706c0.93147 0.38522 1.3051-0.29183 1.3051 0.01243 0 1.2909 1.2899 2.5826 1.2899 2.5826s-1.2903-1.2913-2.5812-1.2913c-0.30426 0 0.27263-0.27348-0.01381-1.3037zm3.4706-3.4706c0.93147 0.38522 1.3051-0.29183 1.3051 0.01243 0 1.2909 1.2899 2.5826 1.2899 2.5826s-1.2903-1.2913-2.5812-1.2913c-0.30426 1e-6 0.27263-0.27348-0.01381-1.3037zm3.472-3.472c0.93147 0.38522 1.3037-0.29045 1.3037 0.01381 1e-6 1.2909 1.2913 2.5812 1.2913 2.5812s-1.2917-1.2899-2.5826-1.2899c-0.30426 0 0.27401-0.27486-0.01243-1.3051zm3.4706-3.4706c0.93148 0.38522 1.3037-0.29045 1.3037 0.01381-2e-6 1.2909 1.2913 2.5812 1.2913 2.5812s-1.2903-1.2913-2.5812-1.2913c-0.30426 0 0.27263-0.27348-0.01381-1.3037zm3.4706-3.4706c0.93147 0.38522 1.3051-0.29183 1.3051 0.01243 1e-6 1.2909 1.2899 2.5826 1.2899 2.5826s-1.2903-1.2913-2.5812-1.2913c-0.30426 0 0.27263-0.27348-0.01381-1.3037z" fill="#fff"/>
</svg>
