<?xml version="1.0" encoding="UTF-8"?>
<svg version="1.1" viewBox="0 0 48 48" xmlns="http://www.w3.org/2000/svg">
    <path d="m25.725 2c-0.19102-0.00307-0.36959 0.00792-0.5332 0.03125-3.0222 0.43085-6.2171 1.5037-6.7324 6.5762-0.31734 3.1235 0.59492 3.6256 0.97266 4.1816-8.0112-0.31144-8.7196 5.344-11.574 5.7578 3.2715 0.15871 3.6608 6.7203 12.547-4.6582 1.1117 1.9486 1.5217 3.8524 0.97266 5.6973-1.8286 0.2063-3.3364-0.5163-5.6973 1.9473l-9.5898 10.006c-1.3169 1.3742-2.244 3.3665-0.13867 5.0039l8.7559 6.8086c2.2163 1.7238 4.8364 2.3898 8.0605 2.6406 1.5378 0.11962 2.9856-0.02997 4.4473-0.13867 2.8475-0.21176 5.2878-0.67539 6.8105-2.2227 0 0 8.4826-8.3535 8.8105-8.9512 0.66059-1.2039 0.62579-5.2446-0.24414-5.7441-0.79375-0.45577-2.5552-0.20953-3.0078-0.11524-1.4727 0.30678-0.84266 4.12-0.97266 5.082l-5.8379 4.168-0.13867-8.6152c-0.05575-3.4566-1.6976-5.2295-4.1133-7.1387l1.0566-5.2305c1.151-0.07052 2.7724 0.41868 3.0566-0.69531 0.63356-2.4827 1.2493-3.2204 0.69531-4.3086l-0.91108-1.252c1.7417-7.0228-3.8291-8.784-6.6944-8.8301zm-10.141 28.285c0.23271 3.4261 1.251 6.9377 1.7109 9.4375-2.0296-2.0951-4.6562-4.5988-6.1699-5.6621 1.6431-0.8261 3.275-2.3754 4.459-3.7754z" fill="#fff"/>
</svg>
