<?xml version="1.0" encoding="UTF-8"?>
<svg version="1.1" viewBox="0 0 48 48" xmlns="http://www.w3.org/2000/svg">
    <path d="m19.277 5-3.6504 3.6504 7.7559 7.7539 2.7383-4.5605zm9.123 5.4746-5.4727 9.123 0.0078 0.0098a6.4518 6.4518 0.41611 0 1 0.74805 0.14648 6.4518 6.4518 0.41611 0 1 4.5625 4.5625 6.4518 6.4518 0.41611 0 1 0.15039 0.75195l0.0039 0.0039 9.125-5.4727zm-6.3105 10.35a5.1614 5.1614 0 0 0-3.7246 1.5117l3.6484 3.6504 3.6504 3.6484a5.1614 5.1614 0 0 0 0-7.2988 5.1614 5.1614 0 0 0-3.5742-1.5117zm14.066 1.0547-4.5605 2.7383 7.7539 7.7559 3.6504-3.6504z" fill="#fff" style="paint-order:stroke markers fill"/>
    <path d="m8.873 31.385a7.7421 7.7421 0 0 0 2.2656 5.4746 7.7421 7.7421 0 0 0 5.4766 2.2676v-1.2891a6.4518 6.4518 0 0 1-4.5645-1.8906 6.4518 6.4518 0 0 1-1.8887-4.5625h-1.2891zm2.5801 0a5.1614 5.1614 0 0 0 1.5117 3.6504 5.1614 5.1614 0 0 0 3.6504 1.5117v-1.291a3.8711 3.8711 0 0 1-2.7383-1.1328 3.8711 3.8711 0 0 1-1.1328-2.7383h-1.291zm-6.4531 0.001953a11.613 11.613 0 0 0 3.4043 8.2109 11.613 11.613 0 0 0 8.209 3.4023v-1.291a10.323 10.323 0 0 1-7.2969-3.0234 10.323 10.323 0 0 1-3.0254-7.2988h-1.291z" fill="#fff" style="paint-order:stroke markers fill"/>
</svg>
