<?xml version="1.0" encoding="UTF-8"?>
<svg version="1.1" viewBox="0 0 48 48" xmlns="http://www.w3.org/2000/svg">
    <path d="m19.277 5-3.6504 3.6504 7.7559 7.7539 2.7383-4.5605z" fill="#fff" style="paint-order:stroke markers fill"/>
    <path d="m28.4 10.475-5.4727 9.123 0.0078 0.0098a6.4518 6.4518 0.41611 0 1 0.74805 0.14648 6.4518 6.4518 0.41611 0 1 4.5625 4.5625 6.4518 6.4518 0.41611 0 1 0.15039 0.75195l0.0039 0.0039 9.125-5.4727z" fill="#fff" style="paint-order:stroke markers fill"/>
    <path d="m22.09 20.825a5.1614 5.1614 0 0 0-3.7246 1.5117l3.6484 3.6504 3.6504 3.6484a5.1614 5.1614 0 0 0 0-7.2988 5.1614 5.1614 0 0 0-3.5742-1.5117z" fill="#fff" style="paint-order:stroke markers fill"/>
    <path d="m36.156 21.879-4.5605 2.7383 7.7539 7.7559 3.6504-3.6504z" fill="#fff" style="paint-order:stroke markers fill"/>
    <path d="m18.746 38.996a10 10 0 0 0 1.9902-0.14844l-0.34766-1.9688a8 8 0 0 1-7.0449-2.2227 8 8 0 0 1-2.2227-7.0449l-1.9688-0.34766a10 10 0 0 0 2.7773 8.8066 10 10 0 0 0 6.8164 2.9258z" fill="#fff" style="paint-order:stroke markers fill"/>
    <path d="m18.847 34.998a6 6 0 0 0 1.1953-0.08984l-0.34766-1.9688a4 4 0 0 1-3.5234-1.1113 4 4 0 0 1-1.1113-3.5234l-1.9688-0.34766a6 6 0 0 0 1.666 5.2852 6 6 0 0 0 4.0898 1.7559z" fill="#fff" style="paint-order:stroke markers fill"/>
    <path d="m18.644 42.996a14 14 0 0 0 2.7871-0.20898l-0.34766-1.9688a12 12 0 0 1-10.568-3.334 12 12 0 0 1-3.334-10.568l-1.9687-0.34766a14 14 0 0 0 3.8887 12.33 14 14 0 0 0 9.543 4.0977z" fill="#fff" style="paint-order:stroke markers fill"/>
</svg>
