<svg id="Layer_1" data-name="Layer 1" xmlns="http://www.w3.org/2000/svg" viewBox="0 0 48 48"><defs><style>.cls-1{fill:#fff;}</style></defs><title>SatStat</title><path class="cls-1" d="M24,2A22,22,0,1,0,46,24,22,22,0,0,0,24,2ZM42.21,23.17H24.83V5.79A18.21,18.21,0,0,1,42.21,23.17Zm-19-17.38V23.17H5.79A18.21,18.21,0,0,1,23.17,5.79Zm-17.38,19H23.17V42.21A18.21,18.21,0,0,1,5.79,24.83Zm19,17.38V24.83H42.21A18.21,18.21,0,0,1,24.83,42.21ZM18.3,17.6a.89.89,0,1,0-.89.88A.88.88,0,0,0,18.3,17.6Zm-3.72-1.77a.88.88,0,1,0-.88.89A.88.88,0,0,0,14.58,15.83Zm7.34,5.44a.88.88,0,1,0-.88.88A.87.87,0,0,0,21.92,21.27Zm5.48,5.48a.88.88,0,1,0-.88.89A.87.87,0,0,0,27.4,26.75Zm1.77,5.48a.89.89,0,1,0-.88.89A.89.89,0,0,0,29.17,32.23ZM36.51,34a.89.89,0,1,0-.88.88A.88.88,0,0,0,36.51,34Zm1.77-5.48a.89.89,0,1,0-.89.88A.88.88,0,0,0,38.28,28.52Z"/></svg>