<?xml version="1.0" encoding="utf-8"?>
<!-- Generator: Adobe Illustrator 21.1.0, SVG Export Plug-In . SVG Version: 6.00 Build 0)  -->
<svg version="1.0" id="Layer_1" xmlns="http://www.w3.org/2000/svg" xmlns:xlink="http://www.w3.org/1999/xlink" x="0px" y="0px"
	 viewBox="0 0 48 48" style="enable-background:new 0 0 48 48;" xml:space="preserve">
<style type="text/css">
	.st0{fill:#FFFFFF;}
</style>
<path class="st0" d="M24,2C11.8,2,2,11.8,2,24s9.8,22,22,22s22-9.8,22-22S36.2,2,24,2z M24,42C14,42,5.9,34,5.9,24S14,5.9,24,5.9
	S42,14,42,24S34,42,24,42z"/>
<polygon class="st0" points="12.9,15 17.7,11.2 24.4,19.7 22.6,21.1 23.5,22.1 30,17 32.4,20 25.9,25.2 26.8,26.2 28.5,24.8 
	35.1,33.2 30.5,36.8 24,28.5 26.1,26.9 25.1,25.7 18.2,31.2 15.8,28.2 22.9,22.6 22.1,21.5 19.6,23.5 "/>
</svg>
