<?xml version="1.0" encoding="UTF-8" standalone="no"?>
<svg
   xmlns:dc="http://purl.org/dc/elements/1.1/"
   xmlns:cc="http://creativecommons.org/ns#"
   xmlns:rdf="http://www.w3.org/1999/02/22-rdf-syntax-ns#"
   xmlns:svg="http://www.w3.org/2000/svg"
   xmlns="http://www.w3.org/2000/svg"
   xmlns:sodipodi="http://sodipodi.sourceforge.net/DTD/sodipodi-0.dtd"
   xmlns:inkscape="http://www.inkscape.org/namespaces/inkscape"
   width="48"
   height="48"
   viewBox="0 0 48 48"
   version="1.1"
   id="svg4"
   sodipodi:docname="square.svg"
   inkscape:version="0.92.3 (2405546, 2018-03-11)">
  <metadata
     id="metadata10">
    <rdf:RDF>
      <cc:Work
         rdf:about="">
        <dc:format>image/svg+xml</dc:format>
        <dc:type
           rdf:resource="http://purl.org/dc/dcmitype/StillImage" />
        <dc:title></dc:title>
      </cc:Work>
    </rdf:RDF>
  </metadata>
  <defs
     id="defs8" />
  <sodipodi:namedview
     pagecolor="#989898"
     bordercolor="#666666"
     borderopacity="1"
     objecttolerance="10"
     gridtolerance="10"
     guidetolerance="10"
     inkscape:pageopacity="0"
     inkscape:pageshadow="2"
     inkscape:window-width="1920"
     inkscape:window-height="1046"
     id="namedview6"
     showgrid="false"
     inkscape:zoom="4.9166667"
     inkscape:cx="-3.7767702"
     inkscape:cy="7.2455439"
     inkscape:window-x="0"
     inkscape:window-y="0"
     inkscape:window-maximized="1"
     inkscape:current-layer="svg4" />
  <path
     style="fill:#ffffff"
     d="M 7 5 C 5.892 5 5 5.892 5 7 L 5 41 C 5 42.108 5.892 43 7 43 L 41 43 C 42.108 43 43 42.108 43 41 L 43 7 C 43 5.892 42.108 5 41 5 L 7 5 z M 16.396484 16.505859 L 18.642578 16.509766 L 20.886719 16.515625 L 17.943359 19.414062 L 14.998047 22.310547 L 18.601562 22.310547 L 22.205078 22.310547 L 22.205078 19.408203 L 22.205078 16.505859 L 24 16.505859 L 25.794922 16.505859 L 25.794922 19.408203 L 25.794922 22.310547 L 29.367188 22.310547 L 32.939453 22.310547 L 30.712891 20.107422 C 29.488224 18.895567 28.189019 17.630893 27.826172 17.296875 C 27.463325 16.962856 27.166016 16.648311 27.166016 16.597656 C 27.166016 16.547006 28.15247 16.505859 29.357422 16.505859 L 31.548828 16.505859 L 35.375 20.332031 L 39.199219 24.160156 L 35.373047 27.984375 L 31.546875 31.810547 L 29.355469 31.810547 C 28.151111 31.810547 27.166016 31.76961 27.166016 31.71875 C 27.166016 31.66789 28.481647 30.33837 30.087891 28.763672 L 33.007812 25.900391 L 29.402344 25.900391 L 25.796875 25.900391 L 25.769531 28.830078 L 25.742188 31.757812 L 24 31.757812 L 22.257812 31.757812 L 22.230469 28.830078 L 22.203125 25.900391 L 18.587891 25.904297 L 14.974609 25.90625 L 17.900391 28.792969 C 19.509127 30.380156 20.794211 31.707743 20.757812 31.744141 C 20.721412 31.780541 19.738513 31.810547 18.572266 31.810547 L 16.451172 31.810547 L 12.628906 27.984375 L 8.8066406 24.158203 L 12.601562 20.332031 L 16.396484 16.505859 z "
     id="rect2"
     inkscape:label="CFF SBB" />
</svg>
