<svg
   xmlns:svg="http://www.w3.org/2000/svg"
   width="48"
   height="48"
   >
	 <path
     d="m 32.75,2.55 1.75,1.6 -22.1,12.7 -10.7,-6.2 1,-2 9.7,5.55 z M 28.3,0 30.65,1.2 12.4,11.7 3.9,6.85 5.35,5.1 12.4,9.15 Z m 7.75,5.8 1.3,1.75 L 12.4,21.9 0.35,15 0.9,12.8 12.4,19.4 Z"
     style="clip-rule:evenodd;fill:#ffffff;fill-opacity:1;fill-rule:evenodd" />
	 <path
     d="m 39.65,12.25 c 0.733,2.067 1.1,4.233 1.1,6.5 0,2.267 -0.367,4.467 -1.1,6.6 l -0.5,1.351 c -1.033,2.433 -2.483,4.6 -4.35,6.5 -1.9,1.866 -4.066,3.3 -6.5,4.3 -2.566,1.1 -5.216,1.65 -7.95,1.65 -2.767,0 -5.417,-0.551 -7.95,-1.65 -2.367,-1 -4.517,-2.434 -6.45,-4.3 C 4.05,31.301 2.6,29.134 1.6,26.701 0.533,24.133 0,21.483 0,18.75 V 17.4 l 12.4,7.05 26.15,-15 z"
     style="clip-rule:evenodd;fill:#ffffff;fill-opacity:1;fill-rule:evenodd" />
</svg>
