<svg width="48" height="48" viewBox="0 0 48 48" fill="none" xmlns="http://www.w3.org/2000/svg">
<path d="M16 34H32V35H16V34Z" fill="white"/>
<path d="M16 32H32V33H16V32Z" fill="white"/>
<path d="M25 30H32V31H25V30Z" fill="white"/>
<path d="M25 28H32V29H25V28Z" fill="white"/>
<path d="M25 26H32V27H25V26Z" fill="white"/>
<path d="M25 24H32V25H25V24Z" fill="white"/>
<path d="M25 22H32V23H25V22Z" fill="white"/>
<path d="M25 20H32V21H25V20Z" fill="white"/>
<path d="M25 18H32V19H25V18Z" fill="white"/>
<path d="M25 16H32V17H25V16Z" fill="white"/>
<path d="M25 14H32V15H25V14Z" fill="white"/>
<path d="M16 14H23V15H16V14Z" fill="white"/>
<path d="M16 16H23V17H16V16Z" fill="white"/>
<path d="M16 18H23V19H16V18Z" fill="white"/>
<path d="M16 20H23V21H16V20Z" fill="white"/>
<path fill-rule="evenodd" clip-rule="evenodd" d="M24 48C37.2548 48 48 37.2548 48 24C48 10.7452 37.2548 0 24 0C10.7452 0 0 10.7452 0 24C0 37.2548 10.7452 48 24 48ZM33 10C34.1046 10 35 10.8954 35 12V36C35 37.1046 34.1046 38 33 38H15C13.8954 38 13 37.1046 13 36V12C13 10.8954 13.8954 10 15 10H33ZM16 34V35H32V34H16ZM16 32V33H32V32H16ZM32 30H25V31H32V30ZM32 28H25V29H32V28ZM32 26H25V27H32V26ZM32 24H25V25H32V24ZM32 22H25V23H32V22ZM32 20H25V21H32V20ZM32 18H25V19H32V18ZM32 16H25V17H32V16ZM32 14H25V15H32V14ZM23 14H16V15H23V14ZM23 16H16V17H23V16ZM23 18H16V19H23V18ZM23 20H16V21H23V20ZM19.5 30C21.433 30 23 28.433 23 26.5C23 24.567 21.433 23 19.5 23C17.567 23 16 24.567 16 26.5C16 28.433 17.567 30 19.5 30ZM19.5 29C20.8807 29 22 27.8807 22 26.5C22 25.1193 20.8807 24 19.5 24C18.1193 24 17 25.1193 17 26.5C17 27.8807 18.1193 29 19.5 29ZM9 6V7V13L10 12V7L15 7L16 6L9 6ZM33 7H38V12L39 13V6H38L32 6L33 7ZM39 42V41V35L38 36V41H33L32 42H39ZM15 41H10V36L9 35V42H10H16L15 41Z" fill="white"/>
</svg>
