<?xml version="1.0" encoding="UTF-8" standalone="no"?>
<svg
   xmlns:dc="http://purl.org/dc/elements/1.1/"
   xmlns:cc="http://creativecommons.org/ns#"
   xmlns:rdf="http://www.w3.org/1999/02/22-rdf-syntax-ns#"
   xmlns:svg="http://www.w3.org/2000/svg"
   xmlns="http://www.w3.org/2000/svg"
   xmlns:sodipodi="http://sodipodi.sourceforge.net/DTD/sodipodi-0.dtd"
   xmlns:inkscape="http://www.inkscape.org/namespaces/inkscape"
   width="48"
   height="48"
   viewBox="0 0 48 48"
   version="1.1"
   id="svg4"
   sodipodi:docname="scarletnotesfd.svg"
   inkscape:version="0.92.4 (5da689c313, 2019-01-14)">
  <metadata
     id="metadata10">
    <rdf:RDF>
      <cc:Work
         rdf:about="">
        <dc:format>image/svg+xml</dc:format>
        <dc:type
           rdf:resource="http://purl.org/dc/dcmitype/StillImage" />
        <dc:title />
      </cc:Work>
    </rdf:RDF>
  </metadata>
  <defs
     id="defs8" />
  <sodipodi:namedview
     pagecolor="#ffffff"
     bordercolor="#666666"
     borderopacity="1"
     objecttolerance="10"
     gridtolerance="10"
     guidetolerance="10"
     inkscape:pageopacity="0"
     inkscape:pageshadow="2"
     inkscape:window-width="1536"
     inkscape:window-height="811"
     id="namedview6"
     showgrid="false"
     inkscape:pagecheckerboard="true"
     inkscape:zoom="11.313709"
     inkscape:cx="14.573444"
     inkscape:cy="21.810164"
     inkscape:window-x="-8"
     inkscape:window-y="-8"
     inkscape:window-maximized="1"
     inkscape:current-layer="svg4" />
  <path
     style="display:inline;fill:#ffffff"
     d="M 7 5 C 5.9245837 4.9741276 4.9740395 5.9249482 5 7 L 5 39.818359 C 4.8386921 41.198545 5.2597162 43.039562 7 43 L 39.818359 43 C 41.198545 43.161308 43.03956 42.740284 43 41 L 43 8.1816406 C 43.161308 6.8014555 42.740284 4.960438 41 5 L 7 5 z M 21.318359 12.308594 C 23.511523 12.258479 26.499921 12.436533 28.138672 12.785156 C 29.943671 13.157022 33.340624 14.158019 34.171875 14.599609 C 34.575623 14.785542 34.433906 14.878135 33.222656 15.25 C 31.655156 15.738073 29.042578 17.06173 28.923828 17.433594 C 28.876328 17.573044 29.374375 18.573465 30.015625 19.642578 C 30.656875 20.734931 31.154609 21.640822 31.130859 21.664062 C 31.083359 21.733784 17.071172 24.523438 16.857422 24.523438 C 16.548672 24.523438 13.889766 18.759691 12.916016 15.970703 L 12.488281 14.714844 L 13.960938 14.064453 C 15.742187 13.274239 17.570703 12.73964 19.470703 12.4375 C 19.945703 12.367774 20.587305 12.325294 21.318359 12.308594 z M 30.941406 22.222656 C 31.416407 22.199416 31.677422 22.571549 32.888672 25.035156 C 33.64867 26.615583 34.598517 28.800224 34.978516 29.892578 L 35.714844 31.914062 L 34.099609 32.634766 C 31.225857 33.936295 29.136953 34.330276 25.408203 34.353516 C 23.128203 34.353516 21.489844 34.214642 20.183594 33.958984 C 17.856094 33.44767 13.959531 32.263075 13.769531 31.960938 C 13.698271 31.867966 13.984609 31.704298 14.412109 31.611328 C 15.433359 31.402154 18.994922 29.776357 19.232422 29.427734 C 19.327422 29.265043 18.875937 28.265791 18.210938 27.126953 C 17.427185 25.825427 17.095156 25.058199 17.285156 25.011719 C 17.878906 24.802545 30.418907 22.245896 30.941406 22.222656 z "
     id="rect2" />
</svg>
