<?xml version="1.0" encoding="utf-8"?>
<!-- Generator: Adobe Illustrator 23.1.0, SVG Export Plug-In . SVG Version: 6.00 Build 0)  -->
<svg version="1.1" id="Layer_1" xmlns="http://www.w3.org/2000/svg" xmlns:xlink="http://www.w3.org/1999/xlink" x="0px" y="0px"
	 viewBox="0 0 48 48" style="enable-background:new 0 0 48 48;" xml:space="preserve">
<style type="text/css">
	.st0{fill:#FFFFFF;}
</style>
<title>screencam</title>
<path class="st0" d="M24,2C11.8,2,2,11.8,2,24s9.8,22,22,22s22-9.8,22-22S36.2,2,24,2z M8.7,24.8C8.2,16.3,14.7,9.1,23.2,8.7
	c0.5,0,1.1,0,1.6,0c5.9,0.4,11.1,4.2,13.4,9.6c0.9,2.2,1.3,4.5,1.1,6.9c-0.1,1.1-1.1,1.8-2.1,1.7c-0.1,0-0.2,0-0.3-0.1l-10.4-2.8
	c-1-0.3-2.1,0.3-2.4,1.4c-0.1,0.3-0.1,0.7,0,1l2.8,10.4c0.3,1-0.3,2.1-1.4,2.4c-0.1,0-0.2,0-0.3,0.1c-2.4,0.2-4.7-0.2-6.9-1.1
	C12.8,35.9,9.1,30.7,8.7,24.8z"/>
</svg>
