<?xml version="1.0" encoding="utf-8"?>
<!-- Generator: Adobe Illustrator 21.1.0, SVG Export Plug-In . SVG Version: 6.00 Build 0)  -->
<svg version="1.0" id="Layer_1" xmlns="http://www.w3.org/2000/svg" xmlns:xlink="http://www.w3.org/1999/xlink" x="0px" y="0px"
	 viewBox="0 0 48 48" style="enable-background:new 0 0 48 48;" xml:space="preserve">
<style type="text/css">
	.st0{fill:#FFFFFF;}
</style>
<g>
	<path class="st0" d="M24.1,46c-6.5-0.1-11.6-2-15.7-6.7c-2-2.3-2.1-4.5-0.2-6.9c1.4-1.7,2.8-3.3,4.1-5.1c0.3-0.4,0.3-1.2,0.1-1.7
		c-0.2-0.6-0.8-1.1-1.2-1.6c-3.4-4.4-4-9-2.1-14.3c1.6-4.5,5.2-6.2,9.2-7.1c7.5-1.8,14.2,0.1,19.8,5.4c1.9,1.8,2.1,3.6,0.8,5.9
		c-0.7,1.1-1.3,2.1-2,3.2c-1.2,1.9-1.2,3.1,0.2,4.9c2.2,2.8,3.4,6,3.4,9.5c0,5.8-2.8,10-8.1,12.6C29.7,45.5,26.7,45.9,24.1,46z
		 M23,4c-2.4-0.1-4.6,0.5-6.7,1.4c-4.6,1.9-7.2,7.6-5.8,12.3c1.1,3.9,3.8,6.5,7,8.7c2.1,1.4,4.3,2.7,6.4,4.2c1.2,0.8,1.6,2,1.2,2.9
		c-0.6,1.1-1.7,0.9-2.7,0.8c-3-0.3-5.4-1.8-7.7-3.7c-1.3-1.1-1.6-1-2.7,0.2c-1,1.2-2,2.5-2.9,3.8c-0.5,0.7-0.5,1.4,0.1,1.9
		c1.8,1.7,3.5,3.7,5.7,4.9c5,2.8,10.4,2.8,15.7,0.7c6.5-2.5,8.8-8.2,7-14.6c-1.2-4.1-4.3-6.7-7.9-8.7c-1.9-1-3.7-2.1-5.6-3.2
		c-0.8-0.5-1.6-1.3-1.1-2.4c0.5-1,1.5-1,2.5-0.8c0.2,0.1,0.5,0.1,0.7,0.2c2.1,1.1,4.1,2.1,6.2,3.3c1.2,0.7,1.7,0.7,2.5-0.5
		c0.7-1.1,1.4-2.2,2.1-3.3c0.7-1,0.5-1.8-0.3-2.7C32.9,5.9,28.3,4.1,23,4z"/>
</g>
</svg>
