<?xml version="1.0" encoding="UTF-8"?>
<svg xmlns="http://www.w3.org/2000/svg" viewBox="0 0 48 48" version="1.1">
   <path d="M8 4v29.5h10.5V44H40V4H8zm16 9.19a4.272 4.272 0 014.271 4.273 4.272 4.272 0 01-2.625 3.941v8.168L24 30.926l-1.646-1.354 1.033-.816-1.033-.817 1.033-.818-1.033-.816 1.033-.819-1.033-.818V21.4a4.272 4.272 0 01-2.625-3.937A4.272 4.272 0 0124 13.189zm0 1.453a.828.828 0 00-.828.828.828.828 0 00.828.828.828.828 0 00.828-.828.828.828 0 00-.828-.828zM8 34l10 10V34H8z" fill="#fff"/>
</svg>
