<?xml version="1.0" encoding="UTF-8"?>
<svg version="1.1" viewBox="0 0 48 48" xmlns="http://www.w3.org/2000/svg">
    <path d="m24 6c-6.0443 0-10.917 5.0091-11.04 11.276 2.0167-0.49741 3.7772-0.91467 5.2482-1.2145 0.29482-3.0676 2.7505-5.457 5.7916-5.457 3.0356 0 5.4869 2.3809 5.7891 5.4405 1.467 0.30205 3.2309 0.72626 5.2482 1.2264-0.12492-6.2649-4.9946-11.272-11.037-11.272zm0.11934 11.776c-3.2898-0.00994-6.6193 0.78138-13.119 2.4054 0 11.351 2.8567 16.358 13 21.819 10.143-5.4605 13-10.575 13-21.819-6.3409-1.5842-9.5909-2.3954-12.881-2.4054zm-0.11934 5.6749a2.6 2.4243 0 0 1 2.6 2.4243 2.6 2.4243 0 0 1-1.2416 2.0668l1.2416 4.6332h-5.2l1.2441-4.6355a2.6 2.4243 0 0 1-1.2441-2.0645 2.6 2.4243 0 0 1 2.6-2.4243z" fill="#fff"/>
</svg>
