<?xml version="1.0" encoding="UTF-8"?>
<svg version="1.1" viewBox="0 0 48 48" xmlns="http://www.w3.org/2000/svg">
    <defs>
        <style>.cls-1{fill:#fff;}</style>
    </defs>
    <path class="cls-1" d="m33.312 28.007a1.9144 1.8321 0 0 1-1.9144 1.8321 1.9144 1.8321 0 0 1-1.9144-1.8321 1.9144 1.8321 0 0 1 1.9144-1.8321 1.9144 1.8321 0 0 1 1.9144 1.8321zm-20.013 0a1.9144 1.8321 0 0 1-1.9144 1.8321 1.9144 1.8321 0 0 1-1.9144-1.8321 1.9144 1.8321 0 0 1 1.9144-1.8321 1.9144 1.8321 0 0 1 1.9144 1.8321zm-8.2985-23.006v2.3625h2.3625l1.89 15.592 25.704-4.7156 0.756-3.7895-1.405-6.9235-25.055-0.16404v-2.3625zm7.1496 15.154-1.6413 0.2894-1.2196-11.276 2.8609 0.048312zm4.1033-10.986v10.262l-2.462 0.40601v-10.669zm1.6413 9.9734v-9.9734h2.462v9.5393zm6.5652-9.9734v8.8155l-2.462 0.43411v-9.2496zm1.6413 8.5258v-8.5258h2.462v8.092zm6.5652-8.5258v7.3684l-2.462 0.43411v-7.8025zm3.0464 16.15v-1.89l-26.46 1.9e-5v1.89z" fill="#fff" stroke-width=".82065"/>
    <path d="m36.325 29.645c-3.68 0-6.6816 2.9967-6.6816 6.6777 0 3.68 3.0016 6.6777 6.6816 6.6777a6.687 6.687 0 0 0 6.6758-6.6777 6.687 6.687 0 0 0-6.6758-6.6777zm-4.1289 2.3711h1.9902c0.097 0 0.17383 0.07783 0.17383 0.17383v1.9902a0.175 0.175 0 0 1-0.17383 0.17578h-1.9902a0.177 0.177 0 0 1-0.17773-0.17578v-1.9902c0-0.096 0.08173-0.17383 0.17773-0.17383zm3.1328 0h1.9941c0.096 0 0.17383 0.07783 0.17383 0.17383v1.9902a0.175 0.175 0 0 1-0.17383 0.17578h-1.9941a0.175 0.175 0 0 1-0.17187-0.17578v-1.9902c0-0.096 0.07588-0.17383 0.17187-0.17383zm3.1387 0h1.9902c0.096 0 0.17188 0.07783 0.17188 0.17383v1.9902a0.174 0.174 0 0 1-0.17188 0.17578h-1.9902a0.175 0.175 0 0 1-0.17383-0.17578v-1.9902c0-0.096 0.07783-0.17383 0.17383-0.17383zm-6.2793 3.1367h1.9941c0.096 0 0.17188 0.07783 0.17188 0.17383v1.9902a0.174 0.174 0 0 1-0.17188 0.17578h-1.9941a0.175 0.175 0 0 1-0.17188-0.17578v-1.9902c0-0.096 0.07588-0.17383 0.17188-0.17383zm3.1387 0h1.9902c0.096 0 0.17188 0.07783 0.17188 0.17383v1.9902a0.174 0.174 0 0 1-0.17188 0.17578h-1.9902a0.175 0.175 0 0 1-0.17383-0.17578v-1.9902c0-0.096 0.07783-0.17383 0.17383-0.17383zm3.1367 0h1.9902c0.096 0 0.17188 0.07783 0.17188 0.17383v1.9902a0.174 0.174 0 0 1-0.17188 0.17578h-1.9902a0.177 0.177 0 0 1-0.17773-0.17578v-1.9902c0-0.096 0.08173-0.17383 0.17773-0.17383zm-6.2754 3.1367h1.9941a0.17 0.17 0 0 1 0.17188 0.17188v1.9922a0.172 0.172 0 0 1-0.17188 0.17383h-1.9941a0.174 0.174 0 0 1-0.17188-0.17383v-1.9922c0-0.097 0.07588-0.17188 0.17188-0.17188zm3.1387 0h1.9902a0.17 0.17 0 0 1 0.17188 0.17188v1.9922a0.172 0.172 0 0 1-0.17188 0.17383h-1.9902a0.174 0.174 0 0 1-0.17383-0.17383v-1.9922c0-0.097 0.07783-0.17188 0.17383-0.17188zm3.1367 0h1.9902a0.17 0.17 0 0 1 0.17188 0.17188v1.9922a0.172 0.172 0 0 1-0.17188 0.17383h-1.9902a0.175 0.175 0 0 1-0.17773-0.17383v-1.9922c0-0.097 0.08173-0.17188 0.17773-0.17188z" color="#000000" color-rendering="auto" dominant-baseline="auto" fill="#fff" image-rendering="auto" shape-rendering="auto" solid-color="#000000" style="font-feature-settings:normal;font-variant-alternates:normal;font-variant-caps:normal;font-variant-ligatures:normal;font-variant-numeric:normal;font-variant-position:normal;isolation:auto;mix-blend-mode:normal;paint-order:stroke markers fill;shape-padding:0;text-decoration-color:#000000;text-decoration-line:none;text-decoration-style:solid;text-indent:0;text-orientation:mixed;text-transform:none;white-space:normal"/>
</svg>
