<?xml version="1.0" encoding="UTF-8" standalone="no"?>
<svg
   xmlns:dc="http://purl.org/dc/elements/1.1/"
   xmlns:cc="http://creativecommons.org/ns#"
   xmlns:rdf="http://www.w3.org/1999/02/22-rdf-syntax-ns#"
   xmlns:svg="http://www.w3.org/2000/svg"
   xmlns="http://www.w3.org/2000/svg"
   xmlns:sodipodi="http://sodipodi.sourceforge.net/DTD/sodipodi-0.dtd"
   xmlns:inkscape="http://www.inkscape.org/namespaces/inkscape"
   width="48"
   height="48"
   viewBox="0 0 48 48"
   version="1.1"
   id="svg1094"
   sodipodi:docname="semitone.svg"
   inkscape:version="0.92.4 5da689c313, 2019-01-14">
  <metadata
     id="metadata1100">
    <rdf:RDF>
      <cc:Work
         rdf:about="">
        <dc:format>image/svg+xml</dc:format>
        <dc:type
           rdf:resource="http://purl.org/dc/dcmitype/StillImage" />
        <dc:title></dc:title>
      </cc:Work>
    </rdf:RDF>
  </metadata>
  <defs
     id="defs1098" />
  <sodipodi:namedview
     pagecolor="#ffffff"
     bordercolor="#666666"
     borderopacity="1"
     objecttolerance="10"
     gridtolerance="10"
     guidetolerance="10"
     inkscape:pageopacity="0"
     inkscape:pageshadow="2"
     inkscape:window-width="2160"
     inkscape:window-height="1360"
     id="namedview1096"
     showgrid="true"
     inkscape:zoom="4.9166667"
     inkscape:cx="53.598655"
     inkscape:cy="22.930387"
     inkscape:window-x="0"
     inkscape:window-y="44"
     inkscape:window-maximized="1"
     inkscape:current-layer="svg1094"
     inkscape:snap-center="true"
     inkscape:snap-object-midpoints="true">
    <inkscape:grid
       type="xygrid"
       id="grid1732" />
  </sodipodi:namedview>
  <path
     style="fill:#ffffff"
     d="M 7 5 C 5.892 5 5 5.892 5 7 L 5 41 C 5 42.108 5.892 43 7 43 L 41 43 C 42.108 43 43 42.108 43 41 L 43 7 C 43 5.892 42.108 5 41 5 L 7 5 z M 7 5.8066406 L 41 5.8066406 C 41.641798 5.8066406 42.193359 6.3582026 42.193359 7 L 42.193359 41 C 42.193359 41.641797 41.641797 42.193359 41 42.193359 L 7 42.193359 C 6.3582026 42.193359 5.8066406 41.641798 5.8066406 41 L 5.8066406 7 C 5.8066406 6.3582022 6.3582022 5.8066406 7 5.8066406 z M 7 6.8066406 C 6.829152 6.8066406 6.8066406 6.829152 6.8066406 7 L 6.8066406 41 C 6.8066406 41.170848 6.8291516 41.193359 7 41.193359 L 41 41.193359 C 41.170849 41.193359 41.193359 41.170849 41.193359 41 L 41.193359 7 C 41.193359 6.8291516 41.170848 6.8066406 41 6.8066406 L 7 6.8066406 z M 29.203125 9.6523438 C 29.393037 9.6523438 29.533827 10.020271 29.626953 10.765625 C 29.777379 11.969583 30.648413 13.869726 32.503906 17.03125 C 34.018439 19.611823 34.33605 20.733519 34.183594 22.96875 C 33.988854 25.823922 33.261967 27.603763 32.572266 26.914062 C 32.423624 26.76542 32.500077 26.274823 32.822266 25.306641 C 33.112871 24.43337 33.273901 23.372571 33.306641 22.466797 C 33.380616 20.420287 32.199174 18.599949 30.818359 16.970703 L 29.636719 15.576172 L 29.533203 22.607422 C 29.418594 30.468953 29.439801 30.360687 27.919922 31.564453 C 26.501569 32.46607 25.140502 33.093815 23.384766 32.667969 C 22.568679 32.47003 22.15625 31.717385 22.15625 30.820312 C 22.15625 29.680448 22.539494 28.94256 23.613281 28.023438 C 25.02967 26.81106 27.098078 26.371121 28.560547 26.970703 C 28.898842 27.109401 28.919922 26.621375 28.919922 18.384766 C 28.919922 11.08162 28.965763 9.6523437 29.203125 9.6523438 z M 18.21875 21.169922 A 0.40004001 0.40004001 0 0 1 18.625 21.576172 L 18.625 24.910156 L 19.363281 24.646484 C 19.412849 24.628654 19.464918 24.618787 19.517578 24.617188 C 19.79979 24.608393 20.033312 24.834839 20.033203 25.117188 L 20.033203 26.378906 C 20.033087 26.590198 19.90018 26.778619 19.701172 26.849609 L 18.625 27.234375 L 18.625 30.992188 L 19.34375 30.724609 C 19.395064 30.705489 19.449166 30.694959 19.503906 30.693359 C 19.786118 30.684565 20.01964 30.91101 20.019531 31.193359 L 20.019531 32.457031 C 20.018677 32.665388 19.888717 32.851378 19.693359 32.923828 L 18.625 33.322266 L 18.625 37 A 0.40004001 0.40004001 0 1 1 17.826172 37 L 17.826172 33.619141 L 15.939453 34.320312 L 15.939453 38 A 0.4003905 0.4003905 0 0 1 15.138672 38 L 15.138672 34.619141 L 14.367188 34.90625 C 14.040625 35.027281 13.693451 34.785766 13.693359 34.4375 L 13.693359 33.175781 C 13.693399 32.966708 13.823505 32.779731 14.019531 32.707031 L 15.138672 32.291016 L 15.138672 28.484375 L 14.267578 28.796875 C 13.942094 28.912912 13.599823 28.671722 13.599609 28.326172 L 13.599609 27.0625 C 13.599431 26.851713 13.73145 26.663447 13.929688 26.591797 L 15.138672 26.158203 L 15.138672 22.628906 A 0.40004001 0.40004001 0 0 1 15.533203 22.222656 A 0.40004001 0.40004001 0 0 1 15.939453 22.628906 L 15.939453 25.873047 L 17.826172 25.197266 L 17.826172 21.576172 A 0.40004001 0.40004001 0 0 1 18.21875 21.169922 z M 17.826172 27.521484 L 15.939453 28.197266 L 15.939453 31.992188 L 17.826172 31.289062 L 17.826172 27.521484 z "
     id="rect1092" />
</svg>
