<?xml version="1.0" encoding="UTF-8"?>
<svg version="1.1" viewBox="0 0 48 48" xmlns="http://www.w3.org/2000/svg">
    <path d="m24 4.168a14.148 14.148 0 0 0 -14.148 14.148 14.148 14.148 0 0 0 14.148 14.146 14.148 14.148 0 0 0 14.148 -14.146 14.148 14.148 0 0 0 -14.148 -14.148zm0 3.8145a10.334 10.334 0 0 1 10.334 10.334 10.334 10.334 0 0 1 -10.334 10.334 10.334 10.334 0 0 1 -10.334 -10.334 10.334 10.334 0 0 1 10.334 -10.334zm0 4.1816a6.1512 6.1512 0 0 0 -6.1504 6.1523 6.1512 6.1512 0 0 0 6.1504 6.1504 6.1512 6.1512 0 0 0 6.1504 -6.1504 6.1512 6.1512 0 0 0 -6.1504 -6.1523z" fill="#fff"/>
    <rect x="9.8522" y="37.262" width="28.296" height="3.0756" rx=".59684" fill="#fff"/>
    <path d="m34.088 40.337 1.2252 2.1222 1.2252 2.1222h-2.4505-2.4505l1.2252-2.1222z" fill="#fff"/>
    <path transform="scale(1,-1)" d="m34.088-37.262 1.2252 2.1222 1.2252 2.1222h-2.4505-2.4505l1.2252-2.1222z" fill="#fff"/>
</svg>
