<?xml version="1.0" encoding="UTF-8" standalone="no"?>
<svg
   xmlns:dc="http://purl.org/dc/elements/1.1/"
   xmlns:cc="http://creativecommons.org/ns#"
   xmlns:rdf="http://www.w3.org/1999/02/22-rdf-syntax-ns#"
   xmlns:svg="http://www.w3.org/2000/svg"
   xmlns="http://www.w3.org/2000/svg"
   xmlns:sodipodi="http://sodipodi.sourceforge.net/DTD/sodipodi-0.dtd"
   xmlns:inkscape="http://www.inkscape.org/namespaces/inkscape"
   version="1.0"
   width="48pt"
   height="48pt"
   viewBox="0 0 48 47.999999"
   preserveAspectRatio="xMidYMid meet"
   id="svg6"
   sodipodi:docname="seriesguide.svg"
   inkscape:version="0.92.4 5da689c313, 2019-01-14">
  <metadata
     id="metadata12">
    <rdf:RDF>
      <cc:Work
         rdf:about="">
        <dc:format>image/svg+xml</dc:format>
        <dc:type
           rdf:resource="http://purl.org/dc/dcmitype/StillImage" />
        <dc:title></dc:title>
      </cc:Work>
    </rdf:RDF>
  </metadata>
  <defs
     id="defs10" />
  <sodipodi:namedview
     pagecolor="#ffffff"
     bordercolor="#666666"
     borderopacity="1"
     objecttolerance="10"
     gridtolerance="10"
     guidetolerance="10"
     inkscape:pageopacity="0"
     inkscape:pageshadow="2"
     inkscape:window-width="2520"
     inkscape:window-height="1397"
     id="namedview8"
     showgrid="false"
     inkscape:pagecheckerboard="true"
     inkscape:zoom="4.7415349"
     inkscape:cx="17.792757"
     inkscape:cy="7.0263003"
     inkscape:window-x="20"
     inkscape:window-y="23"
     inkscape:window-maximized="1"
     inkscape:current-layer="svg6" />
  <path
     style="fill:#ffffff;fill-opacity:1;stroke:none;stroke-width:0.009"
     inkscape:connector-curvature="0"
     id="path2"
     d="m 3.5067243,8.1858963 c -0.666,0.225 -1.125,0.558 -1.449,1.044 -0.594,0.8999997 -0.558,-0.054 -0.54,15.3179997 l 0.027,13.932 0.261,0.567 c 0.315,0.684 0.855,1.188 1.575,1.476 l 0.504,0.207 h 20.2050007 20.205 l 0.504,-0.207 c 0.72,-0.288 1.26,-0.792 1.575,-1.476 l 0.261,-0.567 0.027,-13.932 c 0.018,-15.3809997 0.054,-14.418 -0.54,-15.3179997 -0.162,-0.234 -0.468,-0.549 -0.693,-0.693 -0.891,-0.558 0.594,-0.522 -21.375,-0.522 -19.0620007,0.009 -20.1060007,0.018 -20.5470007,0.171 z m 29.8080007,8.3789997 0.99,0.99 -6.795,6.795 -6.795,6.795 -3.33,-3.33 c -1.836,-1.836 -3.393,-3.33 -3.465,-3.33 -0.072,0 0.351,-0.486 0.945,-1.08 l 1.08,-1.08 2.34,2.34 c 1.287,1.287 2.385,2.34 2.43,2.34 0.054,0 2.664,-2.574 5.805,-5.715 3.141,-3.141 5.733,-5.715 5.76,-5.715 0.027,0 0.495,0.45 1.035,0.99 z" />
</svg>
