<?xml version="1.0" encoding="UTF-8"?>
<svg version="1.1" viewBox="0 0 48 48" xmlns="http://www.w3.org/2000/svg">
    <path d="m32.83 44.01h-20.026c-3.4249 0-6.3759-2.6264-6.545-6.0468-0.18066-3.6564 2.7421-6.6888 6.3601-6.6888h11.534c0.70562 0 1.2777-0.57204 1.2777-1.2777v-9.4154l11.347 6.288c3.0005 1.6626 4.8892 4.7941 4.9697 8.2126 0.11548 4.909-4.007 8.928-8.9173 8.928m-21.607-22.879c-3.0005-1.6626-4.8893-4.7942-4.9698-8.2126-0.11536-4.9089 4.007-8.928 8.9173-8.928h20.026c3.4247 0 6.3759 2.6264 6.545 6.0468 0.18052 3.6564-2.7421 6.6889-6.3602 6.6889 0 0-8.2943 0.0012-11.534 0.0018-0.70537 9e-5 -1.2749 0.57191-1.275 1.2773l-0.0024 9.4138zm26.94 3.2377-8.6331-4.7834h5.8517c5.0877 0 9.2274-4.1392 9.2274-9.2269 0-5.0877-4.1397-9.2271-9.2274-9.2271h-20.431c-6.3738 0-11.56 5.1858-11.56 11.559 0 4.5458 2.47 8.7379 6.446 10.941l8.633 4.7834h-5.8517c-5.0877 0-9.2273 4.1392-9.2273 9.2269 0 5.0877 4.1396 9.2273 9.2273 9.2273h20.431c6.3738 0 11.56-5.1858 11.56-11.56 0-4.5458-2.4703-8.7379-6.446-10.941" fill="#fff"/>
</svg>
