<svg height="48" viewBox="0 0 12.7 12.7" width="48" xmlns="http://www.w3.org/2000/svg"><path d="m1.8520834 1.3229163c-.2931584 0-.5291667.236007-.5291667.529167v8.9958327c0 .29316.2360083.529167.5291667.529167h8.9958336c.293158 0 .529167-.236007.529167-.529167v-8.9958327c0-.29316-.236009-.529167-.529167-.529167zm2.3295737 1.322917h4.3361696a.52457821.52457821 0 0 1 .242362.05943.52457821.52457821 0 0 1 .223242.70745l-3.310392 6.3593a.52457821.52457821 0 0 1 -.7079671.222726.52457821.52457821 0 0 1 -.2227254-.706934l2.9114505-5.59294h-3.4721396a.52457821.52457821 0 0 1 -.5245159-.524516.52457821.52457821 0 0 1 .5245159-.524516z" fill="#fff" stroke-width=".264583"/></svg>