<?xml version="1.0" encoding="UTF-8"?>
<svg version="1.1" viewBox="0 0 48 48" xmlns="http://www.w3.org/2000/svg">
    <path d="m7 5c-1.108 0-2 0.892-2 2v34c0 0.04683 0.010536 0.09071 0.013672 0.13672l7.5723-1.5996v3.4629h7.5918l-0.05664-5.0645 7.6426-1.625v6.6895h7.6504l0.095704-8.1719 7.4902-1.7559v-26.072c0-1.108-0.892-2-2-2h-5.6504l0.064453 6.1895-7.6504 1.625v-7.8145h-7.5918l-0.050781 9.4395-7.5352 1.6016v-11.041h-5.5859zm32.32 9.7754h1.5098c-0.80903 1.0764-1.4132 2.1417-1.8125 3.1973-0.39583 1.0521-0.59375 2.1089-0.59375 3.168 0 0.52083 0.046875 1.0417 0.14062 1.5625 0.09375 0.51736 0.23438 1.041 0.42188 1.5723h-1.5156c-0.27083-0.57639-0.47396-1.1413-0.60938-1.6934-0.13194-0.55556-0.19727-1.1076-0.19727-1.6562 0-1.0243 0.22114-2.0456 0.66211-3.0664 0.44097-1.0243 1.1053-2.0527 1.9941-3.084zm-6.7441 0.17773c0.87847 0 1.5375 0.14583 1.9785 0.4375 0.44444 0.29167 0.66602 0.72439 0.66602 1.3008 0 0.51736-0.15386 0.94965-0.46289 1.2969-0.30556 0.34375-0.73785 0.57292-1.2969 0.6875 0.39236 0.090278 0.69726 0.27257 0.91602 0.54688 0.21875 0.27431 0.32812 0.61241 0.32812 1.0117 0 0.86111-0.34136 1.541-1.0254 2.041-0.68056 0.49653-1.6181 0.74414-2.8125 0.74414-0.45139 0-0.88129-0.031684-1.291-0.097656-0.40625-0.0625-0.79123-0.15864-1.1523-0.28711l0.29688-1.5469c0.30903 0.18056 0.64714 0.32118 1.0117 0.42188 0.36458 0.097222 0.72917 0.14648 1.0938 0.14648 0.5868 0 1.0503-0.10938 1.3906-0.32812 0.34375-0.22222 0.51562-0.5191 0.51562-0.89062 0-0.30903-0.13021-0.54058-0.39062-0.69336-0.26042-0.15625-0.65343-0.23438-1.1777-0.23438h-0.79687l0.25586-1.291h0.84375c0.54514 0 0.97504-0.098958 1.291-0.29688 0.31944-0.19792 0.47852-0.46593 0.47852-0.80273 0-0.26389-0.10981-0.46463-0.33203-0.60352-0.21875-0.13889-0.53885-0.20898-0.95898-0.20898-0.29514 0-0.61567 0.038845-0.96289 0.11523s-0.70898 0.1862-1.084 0.33203l0.28711-1.4688c0.40972-0.11111 0.8112-0.19444 1.207-0.25 0.39931-0.055555 0.7947-0.082031 1.1836-0.082031zm-13.459 1.9414c0.78819 0 1.4132 0.21072 1.875 0.63086 0.46528 0.42014 0.69726 0.98546 0.69726 1.6973 0 0.13889-0.010417 0.28711-0.03125 0.44336-0.017361 0.15278-0.046224 0.32183-0.087891 0.50586l-0.0625 0.29688h-4.3652c0 0.020833-4.34e-4 0.052083-0.003906 0.09375-0.003472 0.038194-0.00586 0.067057-0.00586 0.087891 0 0.37847 0.1122 0.66211 0.33789 0.84961 0.22917 0.1875 0.57248 0.28125 1.0273 0.28125 0.39236 0 0.80425-0.059679 1.2383-0.17773 0.4375-0.11806 0.89583-0.29275 1.375-0.52539l-0.28516 1.4473c-0.45486 0.16667-0.90799 0.28928-1.3594 0.36914-0.44792 0.083334-0.90582 0.125-1.3711 0.125-0.90972 0-1.6128-0.20877-2.1094-0.62891-0.49306-0.42014-0.73828-1.0139-0.73828-1.7812 0-0.44444 0.078125-0.8763 0.23438-1.293 0.15972-0.42014 0.38932-0.80317 0.69141-1.1504 0.35764-0.41667 0.78472-0.73199 1.2812-0.94727 0.5-0.21528 1.0545-0.32422 1.6621-0.32422zm7.4219 0c0.29514 0 0.58919 0.028429 0.88086 0.083985 0.29167 0.052083 0.58095 0.1326 0.86914 0.24023l-0.29687 1.5195c-0.25-0.16667-0.49718-0.2921-0.74024-0.37891-0.24306-0.086806-0.48025-0.13086-0.71289-0.13086-0.60764 0-1.1048 0.20551-1.4902 0.61523-0.38542 0.40625-0.57812 0.92708-0.57812 1.5625 0 0.40625 0.11979 0.72157 0.35938 0.94727 0.23958 0.22222 0.57812 0.33398 1.0156 0.33398 0.29167 0 0.57812-0.044054 0.85938-0.13086 0.28125-0.086806 0.54926-0.21463 0.80273-0.38477l-0.28711 1.5254c-0.30903 0.10764-0.61914 0.18815-0.93164 0.24023-0.3125 0.055556-0.62739 0.082031-0.94336 0.082031-0.91667 0-1.6226-0.20356-2.1191-0.61328-0.49306-0.41319-0.74023-0.99892-0.74023-1.7559 0-0.4757 0.090929-0.93685 0.27148-1.3848 0.18403-0.44792 0.44683-0.85134 0.78711-1.209 0.37847-0.39236 0.8112-0.68403 1.3008-0.875 0.48958-0.19097 1.0545-0.28711 1.6934-0.28711zm-17.963 0.14062h1.7188l0.75391 4.0742 2.1992-4.0742h1.8906l-3.4277 5.834h-1.9746l-1.1602-5.834zm10.338 1.0996c-0.36458 0-0.6747 0.10134-0.93164 0.30273-0.25347 0.19792-0.44857 0.49002-0.58398 0.87891h2.4121c0.010417-0.045139 0.016059-0.089626 0.019531-0.13476 0.006945-0.048611 0.011719-0.095486 0.011719-0.14062 0-0.27778-0.083333-0.49892-0.25-0.66211-0.16667-0.16319-0.39301-0.24414-0.67774-0.24414zm11.844 9.916h1.1816v10.668h-1.1816v-10.668zm-12.807 0.375h1.9062l-1.2344 6.3906h1.7598l-0.26562 1.3867h-5.4434l0.27734-1.3867h1.7695l0.97461-5.0254-1.8906 0.375 0.26562-1.3652 1.8809-0.375zm4.5664 5.7617h1.875l-0.39062 2.0156h-1.8789l0.39453-2.0156z" fill="#fff"/>
</svg>
