<?xml version="1.0" encoding="UTF-8" standalone="no"?>
<svg
   xmlns:dc="http://purl.org/dc/elements/1.1/"
   xmlns:cc="http://creativecommons.org/ns#"
   xmlns:rdf="http://www.w3.org/1999/02/22-rdf-syntax-ns#"
   xmlns:svg="http://www.w3.org/2000/svg"
   xmlns="http://www.w3.org/2000/svg"
   xmlns:sodipodi="http://sodipodi.sourceforge.net/DTD/sodipodi-0.dtd"
   xmlns:inkscape="http://www.inkscape.org/namespaces/inkscape"
   viewBox="0 0 48 48"
   version="1.1"
   id="svg918"
   sodipodi:docname="shatteredpixeldungeon.svg"
   inkscape:version="0.92.3 (2405546, 2018-03-11)">
  <metadata
     id="metadata924">
    <rdf:RDF>
      <cc:Work
         rdf:about="">
        <dc:format>image/svg+xml</dc:format>
        <dc:type
           rdf:resource="http://purl.org/dc/dcmitype/StillImage" />
        <dc:title />
      </cc:Work>
    </rdf:RDF>
  </metadata>
  <defs
     id="defs922" />
  <sodipodi:namedview
     pagecolor="#000000"
     bordercolor="#666666"
     borderopacity="1"
     objecttolerance="10"
     gridtolerance="10"
     guidetolerance="10"
     inkscape:pageopacity="0"
     inkscape:pageshadow="2"
     inkscape:window-width="1024"
     inkscape:window-height="581"
     id="namedview920"
     showgrid="false"
     inkscape:pagecheckerboard="true"
     inkscape:zoom="4.9166666"
     inkscape:cx="25.265824"
     inkscape:cy="20.600191"
     inkscape:window-x="0"
     inkscape:window-y="19"
     inkscape:window-maximized="1"
     inkscape:current-layer="svg918">
    <inkscape:grid
       type="xygrid"
       id="grid932" />
  </sodipodi:namedview>
  <path
     d="M7 5c-1.108 0-2 .892-2 2v34c0 1.108.892 2 2 2h34c1.108 0 2-.892 2-2V7c0-1.108-.892-2-2-2H7zm1 3h32v32H8V8z"
     fill="#fff"
     id="path910" />
  <path
     d="M6.438 24.488v4h13.52v-4zM29.746 24.488v4H41.56v-4zM22 6.438v15.268h4V6.437z"
     fill="#fff"
     id="path912" />
  <path
     d="M16.917 19.405V33.57h14.166V19.407H18.022zm4 4h6.166v6.166h-6.166zM5 7.69h4V40.31H5zM39 7.69h4V40.31h-4z"
     fill="#fff"
     id="path914" />
  <path
     d="M39.636 5v4H7.013V5zM40.31 39v4H7.69v-4z"
     fill="#fff"
     id="path916" />
  <rect
     style="fill:#ffffff;fill-opacity:1;stroke:none;stroke-opacity:1"
     id="rect934"
     width="2"
     height="2"
     x="9"
     y="37" />
  <rect
     style="fill:#ffffff;fill-opacity:1;stroke:none;stroke-opacity:1"
     id="rect936"
     width="4"
     height="2"
     x="11"
     y="35" />
  <rect
     style="fill:#ffffff;fill-opacity:1;stroke:none;stroke-opacity:1"
     id="rect940"
     width="2"
     height="2"
     x="13"
     y="31" />
  <rect
     style="fill:#ffffff;fill-opacity:1;stroke:none;stroke-opacity:1"
     id="rect944"
     width="2"
     height="2"
     x="19"
     y="35" />
  <rect
     style="fill:#ffffff;fill-opacity:1;stroke:none;stroke-opacity:1"
     id="rect960"
     width="2"
     height="2"
     x="37"
     y="9" />
  <rect
     style="fill:#ffffff;fill-opacity:1;stroke:none;stroke-opacity:1"
     id="rect962"
     width="2"
     height="4"
     x="35"
     y="11" />
  <rect
     style="fill:#ffffff;fill-opacity:1;stroke:none;stroke-opacity:1"
     id="rect964"
     width="4"
     height="2"
     x="31"
     y="15" />
  <rect
     style="fill:#ffffff;fill-opacity:1;stroke:none;stroke-opacity:1"
     id="rect966"
     width="2"
     height="4"
     x="29"
     y="17" />
  <rect
     style="fill:#ffffff;fill-opacity:1;stroke:none;stroke-opacity:1"
     id="rect968"
     width="2"
     height="2"
     x="27"
     y="15" />
  <rect
     style="fill:#ffffff;fill-opacity:1;stroke:none;stroke-opacity:1"
     id="rect36"
     width="4"
     height="2"
     x="15"
     y="33" />
</svg>
