<?xml version="1.0" encoding="UTF-8" standalone="no"?>
<svg
   xmlns:dc="http://purl.org/dc/elements/1.1/"
   xmlns:cc="http://creativecommons.org/ns#"
   xmlns:rdf="http://www.w3.org/1999/02/22-rdf-syntax-ns#"
   xmlns:svg="http://www.w3.org/2000/svg"
   xmlns="http://www.w3.org/2000/svg"
   xmlns:sodipodi="http://sodipodi.sourceforge.net/DTD/sodipodi-0.dtd"
   xmlns:inkscape="http://www.inkscape.org/namespaces/inkscape"
   width="48"
   height="48"
   viewBox="0 0 48 48"
   version="1.1"
   id="svg81"
   sodipodi:docname="shelter.svg"
   inkscape:version="0.92.3 (2405546, 2018-03-11)">
  <metadata
     id="metadata87">
    <rdf:RDF>
      <cc:Work
         rdf:about="">
        <dc:format>image/svg+xml</dc:format>
        <dc:type
           rdf:resource="http://purl.org/dc/dcmitype/StillImage" />
        <dc:title />
      </cc:Work>
    </rdf:RDF>
  </metadata>
  <defs
     id="defs85" />
  <sodipodi:namedview
     pagecolor="#ffffff"
     bordercolor="#666666"
     borderopacity="1"
     objecttolerance="10"
     gridtolerance="10"
     guidetolerance="10"
     inkscape:pageopacity="0"
     inkscape:pageshadow="2"
     inkscape:window-width="2560"
     inkscape:window-height="1385"
     id="namedview83"
     showgrid="false"
     inkscape:pagecheckerboard="true"
     inkscape:zoom="45.254834"
     inkscape:cx="20.112816"
     inkscape:cy="25.766792"
     inkscape:window-x="1920"
     inkscape:window-y="27"
     inkscape:window-maximized="1"
     inkscape:current-layer="layer3" />
  <g
     inkscape:groupmode="layer"
     id="layer3"
     inkscape:label="White circle"
     style="display:inline">
    <path
       style="fill:#ffffff"
       d="M 24,2 C 11.849736,2 2,11.849736 2,24 2,36.150264 11.849736,46 24,46 36.150264,46 46,36.150264 46,24 46,11.849736 36.150264,2 24,2 Z m -0.06445,8.591797 c 1.004869,5.74e-4 1.65578,0.03915 2.873047,0.632812 1.217267,0.593663 4.601044,3.989196 5.333984,5.271485 0.73294,1.282289 0.787763,1.493873 0.789063,1.636718 0.0013,0.142845 -0.307422,0.621201 -0.685547,1.064454 l -0.6875,0.80664 -1.214844,-1.148437 -1.216797,-1.146485 -0.910156,0.732422 c -0.88241,0.709876 -0.939439,0.721854 -1.724609,0.34961 -0.737462,-0.349628 -0.890611,-0.346189 -1.689454,0.03516 L 23.923831,19.246098 23.476565,18.507816 23.0293,17.771488 22.367191,18.38477 c -0.738314,0.685327 -1.119308,0.745684 -2.039063,0.326172 -0.487559,-0.222385 -0.716653,-0.212901 -1.017578,0.03711 -0.465295,0.38657 -0.467374,0.384285 -0.982422,-0.859375 l -0.40625,-0.984375 -1.121094,1.099609 c -1.063455,1.044808 -1.139643,1.079544 -1.552734,0.666016 -0.41309,-0.413528 -0.519542,-0.274383 0.310547,-1.867188 0.830089,-1.592805 4.254759,-4.97798 5.5,-5.582031 1.245241,-0.604051 2.374518,-0.629193 2.876953,-0.628906 0.502434,2.88e-4 0,-5e-6 0,-5e-6 z m -3.577747,10.042969 c 0.256052,-0.0062 0.473297,0.919435 0.291059,1.127124 -0.182238,0.207689 -0.34831,0.271247 -0.582117,0.05467 -0.233807,-0.216577 0.03501,-1.175599 0.291058,-1.181794 z m 6.75799,0.05078 c 0.249414,0.0066 0.503583,0.908881 0.322574,1.17342 -0.181008,0.264539 -0.462869,0.25133 -0.668557,0 -0.205687,-0.251329 0.05909,-1.157567 0.345983,-1.17342 z M 30.820312,22.960938 32,24.480469 33.179688,26 34.09375,25.486328 35.009766,24.970703 c -0.504541,5.785883 -3.653146,10.886601 -8.164063,12.199219 -1.571007,0.41876 -4.391879,0.41369 -5.912109,-0.0098 -5.850089,-2.295898 -8.169552,-7.192973 -7.785156,-12.302734 0.896586,0.554708 1.602538,0.393363 3.162109,-0.720703 0.873532,-0.624 1.643117,-1.132813 1.710937,-1.132813 0.06782,0 0.259054,0.421329 0.423828,0.9375 0.318073,0.996396 0.738282,1.630461 0.738282,1.113282 0,-0.417549 0.902678,-0.375227 1.58789,0.07422 0.533344,0.34983 0.618413,0.32575 1.289063,-0.375 0.394587,-0.412297 0.849894,-0.75 1.011719,-0.75 0.161825,0 0.606199,0.451978 0.988281,1.003906 l 0.695312,1.003907 0.822266,-0.628907 c 1.019267,-0.77825 1.047168,-0.777368 1.898437,0.03906 l 0.695313,0.666016 0.566406,-0.728516 c 0.311792,-0.401187 0.90778,-1.105277 1.324219,-1.564453 z"
       id="circle79"
       inkscape:connector-curvature="0"
       sodipodi:nodetypes="sssssczzzccccccccccccscccczzzczzzzczzcccccccccsscsscccccccccc" />
  </g>
  <g
     inkscape:groupmode="layer"
     id="layer5"
     inkscape:label="Layer 2" />
</svg>
