<?xml version="1.0" encoding="UTF-8" standalone="no"?>
<svg
   xmlns:dc="http://purl.org/dc/elements/1.1/"
   xmlns:cc="http://creativecommons.org/ns#"
   xmlns:rdf="http://www.w3.org/1999/02/22-rdf-syntax-ns#"
   xmlns:svg="http://www.w3.org/2000/svg"
   xmlns="http://www.w3.org/2000/svg"
   xmlns:sodipodi="http://sodipodi.sourceforge.net/DTD/sodipodi-0.dtd"
   xmlns:inkscape="http://www.inkscape.org/namespaces/inkscape"
   width="48"
   height="48"
   viewBox="0 0 48 48"
   version="1.1"
   id="svg81"
   sodipodi:docname="shelter.svg"
   inkscape:version="0.92.3 (2405546, 2018-03-11)">
  <metadata
     id="metadata87">
    <rdf:RDF>
      <cc:Work
         rdf:about="">
        <dc:format>image/svg+xml</dc:format>
        <dc:type
           rdf:resource="http://purl.org/dc/dcmitype/StillImage" />
        <dc:title></dc:title>
      </cc:Work>
    </rdf:RDF>
  </metadata>
  <defs
     id="defs85" />
  <sodipodi:namedview
     pagecolor="#ffffff"
     bordercolor="#666666"
     borderopacity="1"
     objecttolerance="10"
     gridtolerance="10"
     guidetolerance="10"
     inkscape:pageopacity="0"
     inkscape:pageshadow="2"
     inkscape:window-width="2560"
     inkscape:window-height="1385"
     id="namedview83"
     showgrid="false"
     inkscape:pagecheckerboard="true"
     inkscape:zoom="13.906433"
     inkscape:cx="33.617307"
     inkscape:cy="17.598877"
     inkscape:window-x="1920"
     inkscape:window-y="27"
     inkscape:window-maximized="1"
     inkscape:current-layer="layer3" />
  <g
     inkscape:groupmode="layer"
     id="layer3"
     inkscape:label="White circle"
     style="display:inline">
    <path
       style="fill:#ffffff"
       d="M 24,2 C 11.849736,2 2,11.849736 2,24 2,36.150264 11.849736,46 24,46 36.150264,46 46,36.150264 46,24 46,11.849736 36.150264,2 24,2 Z m -0.06445,8.591797 c 1.004869,5.74e-4 2.009095,0.211462 2.873047,0.632812 1.570582,0.765976 4.300824,3.463959 5.333984,5.271485 0.43272,0.757051 0.787763,1.493873 0.789063,1.636718 0.0013,0.142845 -0.307422,0.621201 -0.685547,1.064454 l -0.6875,0.80664 -1.214844,-1.148437 -1.216797,-1.146485 -0.910156,0.732422 c -0.88241,0.709876 -0.939439,0.721854 -1.724609,0.34961 -0.737462,-0.349628 -0.890611,-0.346189 -1.689454,0.03516 l -0.878906,0.419922 -0.447266,-0.738282 -0.447265,-0.736328 -0.662109,0.613282 c -0.738314,0.685327 -1.119308,0.745684 -2.039063,0.326172 -0.487559,-0.222385 -0.716653,-0.212901 -1.017578,0.03711 -0.465295,0.38657 -0.467374,0.384285 -0.982422,-0.859375 l -0.40625,-0.984375 -1.121094,1.099609 c -1.063455,1.044808 -1.139643,1.079544 -1.552734,0.666016 -0.41309,-0.413528 -0.398448,-0.506741 0.310547,-1.867188 0.951183,-1.825162 3.876089,-4.794277 5.5,-5.582031 0.866571,-0.420348 1.872084,-0.629481 2.876953,-0.628906 z m -3.707031,10.042969 c 0.287768,-0.05178 0.608908,0.821695 0.420343,1.127124 -0.16639,0.0991 -0.458185,0.09333 -0.582117,0.05467 -0.349924,-0.109155 -0.191988,-0.872696 0.04849,-1.113431 0.03696,-0.037 0.07474,-0.0584 0.113282,-0.06836 z m 6.832031,0.05078 c 0.13774,-0.01033 0.221499,0.104205 0.326172,0.376953 0.0527,0.27394 0.190036,0.736078 -0.310148,0.736078 -0.518828,0 -0.395215,-0.458561 -0.348055,-0.685297 0.110465,-0.253826 0.19429,-0.417408 0.332031,-0.427734 z M 30.820312,22.960938 32,24.480469 33.179688,26 l 0.914062,-0.513672 0.916016,-0.515625 -0.16211,1.832031 c -0.476365,5.404328 -3.349368,9.127078 -8.001953,10.367188 -1.571007,0.41876 -4.391879,0.41369 -5.912109,-0.0098 -3.579673,-0.99711 -6.252471,-3.646163 -7.386719,-7.322265 -0.509411,-1.651002 -0.795039,-5.225842 -0.398437,-4.980469 0.896586,0.554708 1.602538,0.393363 3.162109,-0.720703 0.873532,-0.624 1.643117,-1.132813 1.710937,-1.132813 0.06782,0 0.259054,0.421329 0.423828,0.9375 0.318073,0.996396 0.738282,1.630461 0.738282,1.113282 0,-0.417549 0.902678,-0.375227 1.58789,0.07422 0.533344,0.34983 0.618413,0.32575 1.289063,-0.375 0.394587,-0.412297 0.849894,-0.75 1.011719,-0.75 0.161825,0 0.606199,0.451978 0.988281,1.003906 l 0.695312,1.003907 0.822266,-0.628907 c 1.019267,-0.77825 1.047168,-0.777368 1.898437,0.03906 l 0.695313,0.666016 0.566406,-0.728516 c 0.311792,-0.401187 0.90778,-1.105277 1.324219,-1.564453 z"
       id="circle79"
       inkscape:connector-curvature="0"
       sodipodi:nodetypes="sssssscccccccccccccccsccccccscccccccscccccccccssssssscsscccccccc" />
  </g>
  <g
     inkscape:groupmode="layer"
     id="layer5"
     inkscape:label="Layer 2" />
</svg>
