<?xml version="1.0" encoding="UTF-8" standalone="no"?>
<svg
   xmlns:dc="http://purl.org/dc/elements/1.1/"
   xmlns:cc="http://creativecommons.org/ns#"
   xmlns:rdf="http://www.w3.org/1999/02/22-rdf-syntax-ns#"
   xmlns:svg="http://www.w3.org/2000/svg"
   xmlns="http://www.w3.org/2000/svg"
   xmlns:sodipodi="http://sodipodi.sourceforge.net/DTD/sodipodi-0.dtd"
   xmlns:inkscape="http://www.inkscape.org/namespaces/inkscape"
   width="48"
   height="48"
   viewBox="0 0 48 48"
   id="svg2"
   version="1.1"
   inkscape:version="0.91 r13725"
   sodipodi:docname="shoppinglist.svg">
  <metadata
     id="metadata10">
    <rdf:RDF>
      <cc:Work
         rdf:about="">
        <dc:format>image/svg+xml</dc:format>
        <dc:type
           rdf:resource="http://purl.org/dc/dcmitype/StillImage" />
      </cc:Work>
    </rdf:RDF>
  </metadata>
  <defs
     id="defs8" />
  <sodipodi:namedview
     pagecolor="#ffffff"
     bordercolor="#666666"
     borderopacity="1"
     objecttolerance="10"
     gridtolerance="10"
     guidetolerance="10"
     inkscape:pageopacity="0"
     inkscape:pageshadow="2"
     inkscape:window-width="1366"
     inkscape:window-height="715"
     id="namedview6"
     showgrid="false"
     inkscape:zoom="6.9532167"
     inkscape:cx="16.905226"
     inkscape:cy="25.597578"
     inkscape:window-x="0"
     inkscape:window-y="27"
     inkscape:window-maximized="1"
     inkscape:current-layer="svg2" />
  <path
     style="fill:#ffffff"
     d="M 7 5 C 5.892 5 5 5.892 5 7 L 5 41 C 5 42.108 5.892 43 7 43 L 41 43 C 42.108 43 43 42.108 43 41 L 43 7 C 43 5.892 42.108 5 41 5 L 7 5 z M 10.644531 10.398438 L 12.939453 10.398438 C 13.142919 10.398438 13.323465 10.438824 13.482422 10.521484 C 13.64138 10.604144 13.769864 10.70391 13.865234 10.818359 C 13.960614 10.932809 14.043341 11.088049 14.113281 11.285156 C 14.183219 11.482263 14.230429 11.64918 14.255859 11.789062 C 14.281288 11.928945 14.316818 12.116305 14.361328 12.351562 C 14.405838 12.58682 14.432593 12.748871 14.445312 12.837891 L 37.355469 12.837891 C 37.686101 12.837891 37.971275 12.957603 38.212891 13.199219 C 38.454508 13.440836 38.576172 13.727963 38.576172 14.058594 L 38.576172 23.824219 C 38.576172 24.129418 38.47495 24.399508 38.271484 24.634766 C 38.068017 24.870023 37.806197 25.006772 37.488281 25.044922 L 17.574219 27.375 C 17.586939 27.46402 17.615646 27.600765 17.660156 27.785156 C 17.704671 27.969547 17.743601 28.136463 17.775391 28.289062 C 17.807181 28.441662 17.822266 28.581818 17.822266 28.708984 C 17.822266 28.91245 17.670433 29.31929 17.365234 29.929688 L 34.914062 29.929688 C 35.244695 29.929688 35.529868 30.0494 35.771484 30.291016 C 36.013101 30.532632 36.134766 30.819759 36.134766 31.150391 C 36.134766 31.481023 36.013101 31.766196 35.771484 32.007812 C 35.529868 32.249428 35.244695 32.371094 34.914062 32.371094 L 15.380859 32.371094 C 15.050227 32.371094 14.765054 32.249429 14.523438 32.007812 C 14.281821 31.766197 14.160156 31.481023 14.160156 31.150391 C 14.160156 30.972359 14.229256 30.722711 14.369141 30.398438 C 14.509023 30.074164 14.696384 29.694084 14.931641 29.261719 C 15.166898 28.829354 15.298789 28.589932 15.324219 28.539062 L 11.947266 12.837891 L 10.644531 12.837891 C 10.313899 12.837891 10.028725 12.718179 9.7871094 12.476562 C 9.5454935 12.234946 9.4238281 11.947819 9.4238281 11.617188 C 9.4238281 11.286556 9.5454935 10.999429 9.7871094 10.757812 C 10.028725 10.516196 10.313899 10.398438 10.644531 10.398438 z M 16.601562 32.71875 C 17.275544 32.71875 17.851251 32.95672 18.328125 33.433594 C 18.804998 33.910467 19.042969 34.486175 19.042969 35.160156 C 19.042969 35.834137 18.804998 36.407893 18.328125 36.884766 C 17.851251 37.361639 17.275544 37.601562 16.601562 37.601562 C 15.927582 37.601563 15.351874 37.361639 14.875 36.884766 C 14.398127 36.407893 14.160156 35.834137 14.160156 35.160156 C 14.160156 34.486175 14.398127 33.910467 14.875 33.433594 C 15.351874 32.95672 15.927584 32.71875 16.601562 32.71875 z M 33.693359 32.71875 C 34.367339 32.71875 34.943049 32.95672 35.419922 33.433594 C 35.896795 33.910467 36.134766 34.486175 36.134766 35.160156 C 36.134766 35.834137 35.896795 36.407893 35.419922 36.884766 C 34.943049 37.361639 34.367339 37.601562 33.693359 37.601562 C 33.019379 37.601563 32.44367 37.361639 31.966797 36.884766 C 31.489923 36.407893 31.251953 35.834137 31.251953 35.160156 C 31.251953 34.486175 31.489923 33.910467 31.966797 33.433594 C 32.44367 32.95672 33.019379 32.71875 33.693359 32.71875 z "
     id="rect4" />
</svg>
