<?xml version="1.0" encoding="UTF-8"?>
<svg version="1.1" viewBox="0 0 48 48" xmlns="http://www.w3.org/2000/svg">
    <g fill="#fff" style="font-feature-settings:normal;font-variant-caps:normal;font-variant-ligatures:normal;font-variant-numeric:normal" aria-label="S">
        <path d="m21.314 26.22c-2.8999-1.1961-6.1299-2.4267-7.967-5.1256-1.7311-2.8552-1.7238-6.5292-0.67896-9.6229 1.3585-3.8235 5.3384-6.0853 9.2417-6.3716 4.1235-0.41054 8.3087 0.47904 12.063 2.1814v7.0652c-3.4316-2.4244-7.8447-4.1011-12.059-3.0271-1.8218 0.42456-3.1089 2.2495-2.8409 4.1107 0.10138 2.219 2.3659 3.1748 4.1219 3.8949 3.6554 1.5117 7.8089 2.4438 10.483 5.5835 2.6454 3.0985 2.8419 7.635 1.7258 11.392-0.94815 3.1993-3.8968 5.4095-7.0733 6.1006-5.4138 1.2632-11.254 0.51346-16.216-1.9775v-7.4822c3.734 2.6808 8.3953 4.764 13.075 3.8422 2.0489-0.36707 3.6469-2.2814 3.5082-4.3819 0.09237-2.4725-2.0393-4.3401-4.2475-4.9923-1.0455-0.39658-2.0911-0.79316-3.1366-1.1897z" fill="#fff" stroke-width="1.256" style="font-feature-settings:normal;font-variant-caps:normal;font-variant-ligatures:normal;font-variant-numeric:normal"/>
    </g>
</svg>
