<?xml version="1.0" encoding="UTF-8" standalone="no"?>
<svg width="48" height="48" viewBox="0 0 48 48" version="1.1" >
    <defs>
        <style>.cls-1{fill:#fff;}</style>
    </defs>
    <path
        class="cls-1"
        d="M 28.045494,5.106333 15.996154,5.105398 C 15.525749,5.1053615 14.999839,5.6345951 15,6.105 l 0.0064,18.741567 c -2.524642,0 -4.219212,0.17091 -6.2011717,1.994141 -3.5670983,3.281824 -3.0790311,9.221715 0.8398437,12.027344 5.117913,3.663615 12.215836,0.0479 12.226563,-6.513672 V 11.975473 l 4.146484,-0.06641 0.947266,2.621094 7.77539,0.01953 v 12.871094 c -1.872565,0 -2.768616,-0.112182 -4.503906,0.814453 -0.958811,0.510501 -1.752058,1.118765 -2.427734,1.974609 -1.023151,1.29556 -1.607875,2.852266 -1.646485,4.503907 -0.139426,6.136768 5.663346,9.899861 11.152344,7.394531 2.788467,-1.271965 4.252594,-3.983125 4.289063,-6.966797 L 41.596261,8.654 C 41.596122,8.1825241 41.067476,7.6534106 40.596,7.653958 l -11.130584,0.012922 1.443359,3.9765619 -0.386719,0.263672 -1.544922,-4.2402339 z m -1.728516,6.802734 h 4.203125 l -3.359375,2.292969 z"
        id="Auswahl" />
</svg>
