<?xml version="1.0" encoding="UTF-8"?>
<svg version="1.1" viewBox="0 0 48 48" xmlns="http://www.w3.org/2000/svg">
    <defs>
        <style>.cls-1{fill:#fff;}</style>
    </defs>
    <path d="m15.996 5.1055c-0.4704-3.66e-5 -0.99626 0.5296-0.99609 1l0.005859 18.742c-2.5246 0-4.2192 0.17095-6.2012 1.9941-3.5671 3.2818-3.079 9.2201 0.83984 12.025 5.1179 3.6636 12.216 0.047928 12.227-6.5137v-20.379l4.1465-0.066406h4.502l-1.543-4.2402-0.93164-2.5625h-12.049zm12.98 2.5625h0.9668l1.9062 5.2402h-5.4707l0.58594 1.6211 7.7754 0.019531v12.871c-1.8726 0-2.7686-0.11218-4.5039 0.81445-0.95881 0.5105-1.7521 1.1188-2.4277 1.9746-1.0232 1.2956-1.6079 2.8523-1.6465 4.5039-0.13943 6.1368 5.6636 9.8999 11.152 7.3945 2.7885-1.272 4.2526-3.9831 4.2891-6.9668l-0.007813-26.486c-1.39e-4 -0.47148-0.52848-1.0006-1-1-3.8731 0.00328-11.619 0.013672-11.619 0.013672z" fill="#fff"/>
</svg>
