<?xml version="1.0" encoding="UTF-8"?>
<svg version="1.1" viewBox="0 0 48 48" xmlns="http://www.w3.org/2000/svg">
    <defs>
        <style>.cls-1{fill:#fff;}</style>
    </defs>
    <path class="cls-1" d="m28.045 5.1063-12.049-9.35e-4c-0.4704-3.65e-5 -0.99632 0.5292-0.99615 0.9996l0.0064 18.742c-2.5246 0-4.2192 0.17091-6.2012 1.9941-3.5671 3.2818-3.079 9.2217 0.83984 12.027 5.1179 3.6636 12.216 0.0479 12.227-6.5137v-20.379l4.1465-0.06641 0.94727 2.6211 7.7754 0.01953v12.871c-1.8726 0-2.7686-0.11218-4.5039 0.81445-0.95881 0.5105-1.7521 1.1188-2.4277 1.9746-1.0232 1.2956-1.6079 2.8523-1.6465 4.5039-0.13943 6.1368 5.6633 9.8999 11.152 7.3945 2.7885-1.272 4.2526-3.9831 4.2891-6.9668l-0.007796-26.487c-1.39e-4 -0.47148-0.52878-1.0006-1.0003-1l-11.131 0.012922 1.4434 3.9766-0.38672 0.26367-1.5449-4.2402zm-1.7285 6.8027h4.2031l-3.3594 2.293z"/>
</svg>
