<?xml version="1.0" encoding="UTF-8"?>
<svg viewBox="0 0 48 48" xmlns="http://www.w3.org/2000/svg">
  <path
     style="fill:#ffffff;stroke-width:0.14181069"
     d="m 8.4476494,32.334929 c -0.05262,-0.08513 -0.03713,-0.213327 0.03442,-0.28487 0.077764,-0.07777 6.3725756,-0.115572 15.6506346,-0.094 13.685465,0.03183 15.520548,0.06123 15.520548,0.248802 0,0.187566 -1.838905,0.216977 -15.554969,0.248792 -11.122392,0.02578 -15.5822286,-0.008 -15.6506326,-0.11872 z m -3.37257,-2.209963 c -0.052,-0.052 -0.09454,-0.14772 -0.09454,-0.212717 0,-0.065 8.5511846,-0.118176 19.0026326,-0.118176 16.796686,0 19.002631,0.02471 19.002631,0.212717 0,0.188018 -2.195439,0.212713 -18.908091,0.212713 -10.399451,0 -18.9506346,-0.04254 -19.0026316,-0.09454 z M 36.82879,27.969553 c -0.04174,-0.06754 -0.23314,-0.09273 -0.425333,-0.05599 -0.546503,0.10447 -1.133923,-0.554413 -1.018463,-1.142365 0.104898,-0.534156 0.422223,-0.80601 0.94083,-0.80601 0.566631,0 0.887643,0.440223 0.82211,1.127404 -0.03012,0.315878 -0.0072,0.574324 0.05089,0.574324 0.05811,0 0.06892,0.09572 0.02403,0.212716 -0.09056,0.235986 -0.277428,0.278629 -0.394056,0.08992 z m -0.354462,-0.728072 c 0.287122,0 0.361238,-0.34836 0.146281,-0.687554 -0.184759,-0.291544 -0.64811,-0.133968 -0.701103,0.23843 -0.05621,0.395001 0.116667,0.894475 0.216805,0.626387 0.03642,-0.09749 0.188525,-0.177263 0.338017,-0.177263 z M 3.5624314,26.957859 v -0.992674 h 0.709053 c 0.53573,0 0.709054,0.052 0.709054,0.212716 0,0.148564 -0.149689,0.212716 -0.496337,0.212716 -0.625551,0 -0.654184,0.250431 -0.03545,0.310089 0.253486,0.02444 0.460884,0.108252 0.460884,0.186248 0,0.078 -0.207398,0.161807 -0.460884,0.186248 -0.653175,0.06298 -0.622662,0.4519 0.03545,0.4519 0.346648,0 0.496337,0.06415 0.496337,0.212717 0,0.160717 -0.173324,0.212716 -0.709054,0.212716 h -0.709053 z m 3.606821,0.806726 c -0.04271,-0.111312 -0.05808,-0.545759 -0.03416,-0.96544 0.03218,-0.564394 0.09889,-0.763055 0.256223,-0.763055 0.156626,0 0.224018,0.196314 0.25558,0.744506 0.04174,0.724958 0.05415,0.744506 0.472702,0.744506 0.6613793,0 0.417745,0.346832 -0.279716,0.398196 -0.41386,0.03048 -0.61643,-0.01746 -0.670634,-0.158713 z m 3.4837136,-0.806726 v -0.992674 h 0.709053 c 0.535729,0 0.709054,0.052 0.709054,0.212716 0,0.148564 -0.149689,0.212716 -0.496338,0.212716 -0.272985,0 -0.496337,0.06381 -0.496337,0.14181 0,0.078 0.191445,0.141812 0.425432,0.141812 0.283621,0 0.425432,0.0709 0.425432,0.212715 0,0.141811 -0.141811,0.212716 -0.425432,0.212716 -0.283622,0 -0.425432,0.0709 -0.425432,0.212716 0,0.148563 0.149689,0.212716 0.496337,0.212716 0.346649,0 0.496338,0.06415 0.496338,0.212717 0,0.160717 -0.173325,0.212716 -0.709054,0.212716 h -0.709053 z m 3.860442,0.771919 c -0.412474,-0.288909 -0.438093,-1.183964 -0.0441,-1.540528 0.328592,-0.297371 0.987597,-0.248874 1.198613,0.08821 0.218123,0.348435 0.0064,0.475755 -0.415549,0.24992 -0.311517,-0.16672 -0.382198,-0.165059 -0.493953,0.0116 -0.197208,0.311747 -0.160801,0.646159 0.0933,0.857046 0.193347,0.160464 0.25667,0.150151 0.415996,-0.06774 0.201216,-0.275175 0.490428,-0.19893 0.490428,0.129292 0,0.211801 -0.421535,0.49296 -0.739082,0.49296 -0.104767,0 -0.332315,-0.09934 -0.50566,-0.220757 z m 3.89483,0.12917 c -0.05362,-0.05362 -0.0975,-0.405933 -0.0975,-0.782913 0,-0.514721 -0.05297,-0.685418 -0.212716,-0.685418 -0.116994,0 -0.212716,-0.09572 -0.212716,-0.212716 0,-0.16038 0.172393,-0.212716 0.700684,-0.212716 0.724114,0 1.109615,0.244696 0.596781,0.378808 -0.237259,0.06204 -0.298811,0.208789 -0.333343,0.794717 -0.03945,0.669442 -0.211359,0.950073 -0.441195,0.720238 z m 3.022341,-0.908858 v -1.000446 l 0.659075,0.04322 c 0.780447,0.05118 1.078661,0.36407 0.789024,0.827853 -0.149485,0.239364 -0.143191,0.342761 0.03648,0.599287 0.272238,0.388673 0.274557,0.530527 0.0087,0.530527 -0.11466,0 -0.350012,-0.191445 -0.523006,-0.425433 -0.172995,-0.233987 -0.36635,-0.425432 -0.429678,-0.425432 -0.06333,0 -0.115142,0.191445 -0.115142,0.425432 0,0.283621 -0.07091,0.425433 -0.212716,0.425433 -0.168981,0 -0.212716,-0.205701 -0.212716,-1.000445 z m 1.06358,-0.417663 c -0.04821,-0.078 -0.211508,-0.14181 -0.362897,-0.14181 -0.151389,0 -0.275252,0.06381 -0.275252,0.14181 0,0.078 0.163304,0.141812 0.362896,0.141812 0.205819,0 0.32496,-0.06138 0.275253,-0.141812 z m 2.907118,1.134486 c -0.36212,-0.36212 -0.375155,-1.1495 -0.02428,-1.467034 0.917915,-0.830701 2.158753,0.594213 1.255991,1.442315 -0.409417,0.384627 -0.862698,0.393725 -1.231704,0.02472 z m 0.92177,-0.709054 c 0,-0.348732 -0.06963,-0.505864 -0.238601,-0.538403 -0.344057,-0.06626 -0.593833,0.458998 -0.394968,0.83058 0.248753,0.4648 0.633569,0.28734 0.633569,-0.292177 z m 2.765308,0 c 0,-1.127047 0.221403,-1.312346 0.665582,-0.557048 l 0.256187,0.435629 0.0723,-0.400175 c 0.04113,-0.227653 0.163403,-0.400175 0.283622,-0.400175 0.165549,0 0.211323,0.19966 0.211323,0.921769 0,1.08086 -0.219038,1.211273 -0.738858,0.439914 l -0.324722,-0.481857 v 0.51731 c 0,0.365289 -0.06251,0.517309 -0.212716,0.517309 -0.168823,0 -0.212716,-0.204837 -0.212716,-0.992676 z m 3.784572,0.901089 c -0.05362,-0.05362 -0.0975,-0.506335 -0.0975,-1.006027 0,-0.788935 0.03267,-0.902241 0.248169,-0.86074 0.205536,0.03958 0.248169,0.203779 0.248169,0.955803 0,0.835084 -0.144555,1.16525 -0.398843,0.910964 z M 39.533419,27.6912 c -0.155588,-0.171924 -0.234695,-0.510024 -0.234695,-1.003074 0,-0.631715 0.03738,-0.736648 0.248169,-0.696663 0.183994,0.0349 0.259651,0.21178 0.292573,0.683998 0.08215,1.178297 0.58727,1.086438 0.591572,-0.107581 0.0016,-0.440224 0.05951,-0.602695 0.214887,-0.602695 0.305694,0 0.297333,1.455042 -0.01012,1.762504 -0.298842,0.298842 -0.814347,0.281779 -1.102376,-0.03649 z m 3.594194,-0.725571 v -1.000444 h 0.709053 c 0.53573,0 0.709053,0.052 0.709053,0.212716 0,0.148564 -0.149689,0.212716 -0.496336,0.212716 -0.272987,0 -0.496338,0.06381 -0.496338,0.14181 0,0.078 0.191444,0.141812 0.425432,0.141812 0.283622,0 0.425432,0.0709 0.425432,0.212715 0,0.141811 -0.14181,0.212716 -0.425432,0.212716 -0.283622,0 -0.425432,0.0709 -0.425432,0.212716 0,0.149506 0.151002,0.212716 0.508154,0.212716 0.76675,0 0.531355,0.345398 -0.271071,0.39775 l -0.662515,0.04322 z M 3.6318104,24.686418 c -0.224037,-0.362498 0.350354,-3.336965 0.873549,-4.523649 0.592092,-1.342955 1.849788,-3.066674 3.053524,-4.184968 0.635743,-0.590618 1.2056421,-1.07385 1.2664435,-1.07385 0.060801,0 0.075499,1.100806 0.032665,2.446235 -0.1152286,3.619141 0.4357056,6.78035 1.2005701,6.888766 0.216835,0.03073 0.312165,0.126496 0.282346,0.283622 -0.06551,0.345184 -1.3546782,0.422503 -1.4826839,0.08892 -0.04957,-0.12917 -0.015802,-0.280789 0.075032,-0.336928 C 9.056661,24.198296 9.0451407,24.021508 8.8876841,23.575231 8.7717846,23.246736 8.596953,22.469516 8.4991694,21.848076 8.2917244,20.529697 8.4542194,20.590842 6.1859304,20.977625 l -1.418106,0.241812 -0.238494,0.919312 c -0.312629,1.205072 -0.332161,2.124702 -0.04513,2.124702 0.118175,0 0.212716,0.126054 0.212716,0.283621 0,0.228672 -0.09454,0.283622 -0.487969,0.283622 -0.268382,0 -0.528094,-0.06493 -0.577138,-0.144281 z m 4.149489,-4.607674 0.460885,-0.08246 V 18.05874 16.121195 l -0.651136,0.632221 c -0.987775,0.959081 -2.468699,3.151674 -2.468699,3.655049 0,0.109785 0.659696,0.02798 2.65895,-0.329721 z m 6.4169336,4.468333 c 0,-0.155991 0.06489,-0.283621 0.1442,-0.283621 0.07931,0 -0.0227,-0.329351 -0.226678,-0.731891 -0.203982,-0.40254 -0.524132,-1.336037 -0.711443,-2.074438 -0.660607,-2.604193 -0.374307,-5.630257 0.771845,-8.158039 0.425187,-0.93773 0.428475,-0.96086 0.123107,-0.866096 -0.500943,0.155456 -2.160203,1.012884 -3.001322,1.550941 -0.701319,0.448628 -0.785513,0.471679 -0.910046,0.249152 -0.166878,-0.298195 0.4215,-0.731433 2.250419,-1.657043 1.831992,-0.927165 4.504571,-1.74576 6.736008,-2.063199 1.339264,-0.19052 1.483958,-0.1832 1.585032,0.08019 0.111531,0.29064 -0.185566,0.477095 -0.764592,0.479853 -0.566014,0.0027 -2.960019,0.461617 -4.026206,0.771807 l -0.794985,0.231288 -0.503223,1.094909 c -1.007968,2.193125 -1.308853,3.667119 -1.20161,5.88654 0.08334,1.724741 0.400522,2.973667 1.115057,4.390609 0.226157,0.448477 0.505999,0.815412 0.621869,0.815412 0.116135,0 0.210675,0.127275 0.210675,0.283621 0,0.245805 -0.09454,0.283622 -0.709053,0.283622 -0.614514,0 -0.709054,-0.03782 -0.709054,-0.283622 z m 8.012304,0.07837 c -1.046212,-0.267267 -1.434578,-0.447503 -2.354107,-1.092516 -2.079063,-1.458379 -3.202246,-4.066052 -2.826968,-6.563314 0.594662,-3.957136 4.62606,-6.669995 8.436829,-5.677415 3.485337,0.907815 5.760894,4.292079 5.18434,7.710279 -0.670739,3.97659 -4.610422,6.601288 -8.440094,5.622963 z m 3.092423,-0.573525 c 1.881163,-0.489981 3.374647,-1.679999 4.183869,-3.333733 1.835374,-3.750792 -0.434515,-8.178274 -4.587133,-8.94733 -1.643829,-0.304433 -3.391078,0.128438 -4.848207,1.201116 -2.701598,1.988802 -3.27676,5.970273 -1.259456,8.71839 1.48845,2.027676 4.123463,2.983412 6.510927,2.361557 z m 5.345312,0.495155 c 0,-0.177912 0.09454,-0.283621 0.253659,-0.283621 0.526285,0 1.728147,-2.445085 2.097247,-4.266673 0.36263,-1.789652 0.06942,-4.115912 -0.794227,-6.301258 -0.739642,-1.871561 -1.150248,-2.336841 -2.062248,-2.336841 -0.273774,0 -0.345295,-0.07343 -0.345295,-0.354527 0,-0.194989 0.0518,-0.354526 0.115103,-0.354526 0.284981,0 2.379745,0.603432 2.73815,0.78877 0.54235,0.28046 0.406969,0.682706 -0.185943,0.55248 l -0.416564,-0.09149 0.347107,0.68687 c 0.504933,0.999185 1.03885,2.788353 1.237492,4.14688 0.316488,2.16447 -0.09361,4.518697 -1.132661,6.502189 l -0.538584,1.028128 h 2.250502 c 2.15596,0 2.2505,0.01191 2.2505,0.283621 0,0.274399 -0.09454,0.283622 -2.907119,0.283622 -2.812577,0 -2.907119,-0.0092 -2.907119,-0.283622 z m 6.09786,0 c 0,-0.180993 0.09454,-0.283621 0.261268,-0.283621 0.205127,0 0.342455,-0.266638 0.639079,-1.240843 0.612183,-2.010593 0.717351,-2.805039 0.724087,-5.469813 l 0.0064,-2.527241 -0.459146,-0.379878 c -0.34458,-0.285091 -0.425535,-0.432876 -0.32444,-0.59228 0.118125,-0.186259 0.192091,-0.180883 0.600957,0.04368 0.256437,0.140844 0.782335,0.533339 1.168662,0.872212 0.615263,0.53969 0.678601,0.64482 0.510505,0.847364 -0.175717,0.211725 -0.219247,0.205544 -0.51604,-0.07328 l -0.324134,-0.304508 0.0019,1.966059 c 9.74e-4,1.081334 -0.06713,2.39091 -0.151544,2.910169 -0.155958,0.959384 -0.810809,3.610165 -0.945827,3.828628 -0.0407,0.06585 1.269879,0.119733 2.912395,0.119733 h 2.986396 v -0.425432 c 0,-0.330892 0.06303,-0.425432 0.283621,-0.425432 0.245805,0 0.283622,0.09454 0.283622,0.709052 V 24.8307 h -3.828889 c -3.734348,0 -3.828889,-0.007 -3.828889,-0.283621 z" />
</svg>
