<svg xmlns="http://www.w3.org/2000/svg" viewBox="0 0 48 48"><defs><style>.cls-1{fill:#fff;}</style></defs><g id="Layer_1" data-name="Layer 1"><path class="cls-1" d="M24,43a18.53,18.53,0,0,1-2.88-.22l.28-1.8a17.41,17.41,0,0,0,2.6.2A16.94,16.94,0,0,0,26.64,41l.28,1.8A19.31,19.31,0,0,1,24,43Zm4.53-.54-.44-1.78a17,17,0,0,0,4.86-2l1,1.56A19.31,19.31,0,0,1,28.51,42.46Zm6.72-3.13-1.08-1.47a17,17,0,0,0,3.71-3.72l1.47,1.08A18.8,18.8,0,0,1,35.23,39.33Zm5-5.44,0,0-1.57-.93v0a16.88,16.88,0,0,0,2-4.85l1.77.44a19.17,19.17,0,0,1-2.22,5.36Zm2.56-7L41,26.63a17.54,17.54,0,0,0,.2-2.61A16.72,16.72,0,0,0,41,21.37l1.8-.28A19.18,19.18,0,0,1,43,24,18.75,18.75,0,0,1,42.78,26.91Zm-37.56,0a19.36,19.36,0,0,1,0-5.82L7,21.36a16.57,16.57,0,0,0,0,5.26Zm35.46-7a17.08,17.08,0,0,0-2-4.86l1.55-.94a18.9,18.9,0,0,1,2.23,5.37Zm-33.37,0-1.77-.44a19.11,19.11,0,0,1,2.22-5.35v0l1.56,1h0A17.28,17.28,0,0,0,7.31,19.93Zm30.55-6.07a16.83,16.83,0,0,0-3.72-3.72l1.08-1.47a18.85,18.85,0,0,1,4.11,4.11Zm-27.72,0L8.67,12.78a19.12,19.12,0,0,1,4.11-4.12l1.08,1.47A17.27,17.27,0,0,0,10.14,13.85ZM32.92,9.33h0a17.41,17.41,0,0,0-4.85-2l.43-1.77a19.05,19.05,0,0,1,5.36,2.22h0Zm-17.84,0-.95-1.56a19.05,19.05,0,0,1,5.38-2.22l.43,1.77A17.27,17.27,0,0,0,15.08,9.32ZM21.37,7l-.27-1.8A19,19,0,0,1,24,5a18.66,18.66,0,0,1,2.89.22L26.63,7A17.54,17.54,0,0,0,24,6.82,16.9,16.9,0,0,0,21.37,7Z"/><path class="cls-1" d="M19.47,42.44A18.85,18.85,0,0,1,15,40.74l-2,.45-.41-1.77,2.66-.61.31.17a16.6,16.6,0,0,0,4.28,1.69Z"/><path class="cls-1" d="M8.6,35.36,6.82,35l.45-2a19.22,19.22,0,0,1-1.71-4.45l1.77-.44A16.65,16.65,0,0,0,9,32.41l.17.31Z"/><path class="cls-1" d="M5.63,40.05l.84-3.6,1.77.42-.87,3.76,3.76-.87.41,1.78-3.61.83A1.93,1.93,0,0,1,5.63,40.05Z"/><path class="cls-1" d="M24,8.47A15.5,15.5,0,0,0,10.9,32.29L9.44,38.56l6.32-1.45A15.5,15.5,0,1,0,24,8.47Z"/></g></svg>