<svg xmlns="http://www.w3.org/2000/svg" viewBox="0 0 48 48"><path d="m10.674 47.271c-0.12122 0-0.24243-0.0297-0.35299-0.089-0.23045-0.12271-0.3823-0.35466-0.40229-0.61762l-0.94974-7.5665c-2.4736-1.892-4.7634-4.3328-6.0862-7.2618-1.3054-2.8859-1.9674-6.1074-1.9674-9.5691 0-11.82 10.355-21.438 23.084-21.438 12.726 0 23.084 9.6176 23.084 21.438 0 11.821-10.357 21.438-23.084 21.438-2.1166 0-3.8457-0.26565-5.8691-0.79292l-7.0745 4.3543c-0.11855 0.0688-0.2491 0.10384-0.38096 0.10384" fill="none" stroke="#fff" stroke-width="1.8"/><path d="m12.525 42.422c-0.099 0-0.1979-0.0241-0.28816-0.0724-0.18811-0.0998-0.31208-0.28838-0.32839-0.50222l-0.47627-6.1526c-2.0193-1.5384-3.5894-3.5232-4.6691-5.9049-1.0656-2.3467-1.606-4.9661-1.606-7.781 0-9.6111 8.4533-17.432 18.843-17.432 10.389 0 18.843 7.8205 18.843 17.432 0 9.6122-8.4542 17.433-18.843 17.433-1.7278 0-3.4382-0.21601-5.0901-0.64477l-6.074 3.5406c-0.0968 0.0559-0.20333 0.0844-0.311 0.0844" fill="#fff"/></svg>
