<?xml version="1.0" encoding="UTF-8" standalone="no"?>
<svg
   xmlns:dc="http://purl.org/dc/elements/1.1/"
   xmlns:cc="http://creativecommons.org/ns#"
   xmlns:rdf="http://www.w3.org/1999/02/22-rdf-syntax-ns#"
   xmlns:svg="http://www.w3.org/2000/svg"
   xmlns="http://www.w3.org/2000/svg"
   xmlns:sodipodi="http://sodipodi.sourceforge.net/DTD/sodipodi-0.dtd"
   xmlns:inkscape="http://www.inkscape.org/namespaces/inkscape"
   width="48"
   height="48"
   viewBox="0 0 48 48"
   version="1.1"
   id="svg4"
   sodipodi:docname="simplecalendar.svg"
   inkscape:version="0.92.3 (2405546, 2018-03-11)"
   inkscape:export-filename="/home/tim/frost/other/simplecalendar.svg.png"
   inkscape:export-xdpi="1024"
   inkscape:export-ydpi="1024">
  <metadata
     id="metadata10">
    <rdf:RDF>
      <cc:Work
         rdf:about="">
        <dc:format>image/svg+xml</dc:format>
        <dc:type
           rdf:resource="http://purl.org/dc/dcmitype/StillImage" />
        <dc:title></dc:title>
      </cc:Work>
    </rdf:RDF>
  </metadata>
  <defs
     id="defs8" />
  <sodipodi:namedview
     pagecolor="#ffffff"
     bordercolor="#666666"
     borderopacity="1"
     objecttolerance="10"
     gridtolerance="10"
     guidetolerance="10"
     inkscape:pageopacity="0"
     inkscape:pageshadow="2"
     inkscape:window-width="1920"
     inkscape:window-height="1037"
     id="namedview6"
     showgrid="true"
     inkscape:pagecheckerboard="true"
     inkscape:snap-bbox="true"
     inkscape:snap-bbox-edge-midpoints="true"
     inkscape:snap-object-midpoints="true"
     showguides="true"
     inkscape:guide-bbox="true"
     inkscape:zoom="16"
     inkscape:cx="29.301955"
     inkscape:cy="24.763431"
     inkscape:window-x="1920"
     inkscape:window-y="43"
     inkscape:window-maximized="1"
     inkscape:current-layer="svg4">
    <inkscape:grid
       type="xygrid"
       id="grid817"
       empspacing="4" />
  </sodipodi:namedview>
  <path
     style="fill:#ffffff;fill-opacity:1"
     d="M 24.177734 1.9492188 A 22 22 0 0 0 2.1777344 23.949219 A 22 22 0 0 0 24.177734 45.949219 A 22 22 0 0 0 46.177734 23.949219 A 22 22 0 0 0 24.177734 1.9492188 z M 17.5 13 L 18.5 13 L 18.5 15 L 23.5 15 L 23.5 13 L 24.5 13 L 24.5 15 L 29.5 15 L 29.5 13 L 30.5 13 L 30.5 15 L 34 15 L 34 35 L 14 35 L 14 15 L 17.5 15 L 17.5 13 z M 15 21 L 15 34 L 33 34 L 33 21 L 15 21 z M 16 23 L 20 23 L 20 27 L 16 27 L 16 23 z M 22 23 L 26 23 L 26 27 L 22 27 L 22 23 z M 28 23 L 32 23 L 32 27 L 28 27 L 28 23 z M 16 29 L 20 29 L 20 33 L 16 33 L 16 29 z M 22 29 L 26 29 L 26 33 L 22 33 L 22 29 z M 28 29 L 32 29 L 32 33 L 28 33 L 28 29 z "
     id="circle2" />
</svg>
