<?xml version="1.0" encoding="UTF-8"?>
<svg width="48" height="48" viewBox="0 0 48 48">
    <defs>
        <style>.cls-1{fill:#fff;}</style>
    </defs>
    <path class="cls-1" d="M 3.8552377,28.829866 C 2.5074724,27.387837 1.863922,25.425011 2.0962399,23.464922 2.3249096,21.705925 8.1647822,9.39294 9.3433107,6.8423932 9.4986654,6.5047993 9.8336542,6.2860257 10.20522,6.2795139 v 0 c 0.374297,0.013896 0.70833,0.2388491 0.861909,0.5804693 l 7.21189,16.3410898 c 0.02656,0.127633 0.02656,0.259353 0,0.386979 0,4.497895 -3.646265,8.14416 -8.144159,8.14416 C 7.729191,31.679829 5.4539362,30.62824 3.8552377,28.829866 Z M 36.941986,45.417215 c -0.151907,0.340542 -0.489026,0.5607 -0.861909,0.562879 -0.133754,0.02443 -0.270819,0.02443 -0.40457,0 L 24.277202,40.703101 12.861306,45.980094 c -0.133543,0.02654 -0.271019,0.02654 -0.404569,0 -0.90574,-0.09741 -1.168209,-1.290452 -0.38698,-1.758998 L 23.309753,38.944103 V 6.0508442 L 6.8983038,3.9048669 C 6.3765446,3.8319565 6.0090337,3.3549814 6.0715748,2.8318783 6.1529461,2.3150935 6.6241112,1.9520716 7.1445635,2.0051493 L 41.67369,6.5081836 c 0.526987,0.063816 0.899391,0.5471486 0.826729,1.0729887 -0.06939,0.472122 -0.472678,0.8231265 -0.949859,0.8267289 H 41.42743 L 25.262241,6.2971039 V 38.961693 l 11.257585,5.276993 c 0.416304,0.231431 0.596832,0.735404 0.42216,1.178529 z m 0.985039,-9.991108 c -2.454896,-0.01302 -4.788745,-1.068067 -6.420342,-2.902346 -1.347766,-1.442028 -1.991316,-3.404855 -1.758998,-5.364943 0.22867,-1.758998 6.068542,-14.071982 7.247071,-16.640119 0.157078,-0.333677 0.493108,-0.546266 0.861909,-0.5452897 v 0 c 0.374297,0.013896 0.70833,0.2388487 0.861909,0.5804697 l 7.21189,16.341089 c 0.02656,0.127633 0.02656,0.259354 0,0.38698 -0.0088,4.439659 -3.564607,8.058053 -8.003439,8.144159 z"/>
</svg>
