<?xml version="1.0" encoding="UTF-8"?>
<svg version="1.1" viewBox="0 0 48 48" xmlns="http://www.w3.org/2000/svg">
    <path d="m 29.60195,6.2631241 c 0.757232,0 1.366846,0.6096132 1.366846,1.3668459 v 2.733692 c 0,0.757232 -0.609614,1.366846 -1.366846,1.366846 -0.757233,0 -1.366846,-0.609614 -1.366846,-1.366846 V 7.62997 c 0,-0.7572327 0.609613,-1.3668459 1.366846,-1.3668459 z m -9.663601,5.3689709 c 0.349366,0 0.698732,0.132721 0.96636,0.400486 l 0.96636,0.96636 c 0.535394,0.535393 0.535394,1.396916 0,1.93272 -0.535393,0.535393 -1.396916,0.535393 -1.93272,0 l -0.96636,-0.96636 c -0.535394,-0.535394 -0.535394,-1.396917 0,-1.93272 0.267765,-0.267765 0.616994,-0.400486 0.96636,-0.400486 z m 19.327201,0 c 0.349366,0 0.698732,0.132721 0.96636,0.400486 0.535394,0.535393 0.535394,1.396916 0,1.93272 l -0.96636,0.96636 c -0.535393,0.535393 -1.396916,0.535393 -1.93272,0 -0.535393,-0.535394 -0.535393,-1.396917 0,-1.93272 l 0.96636,-0.96636 c 0.267765,-0.267765 0.616994,-0.400486 0.96636,-0.400486 z M 29.675759,14.4642 c 4.47232,0 8.125899,3.650845 8.125899,8.123165 0,2.264863 -0.94244,4.319233 -2.448021,5.795426 0.650209,1.260096 1.019804,2.692687 1.019804,4.215353 0,5.020425 -3.98709,9.138732 -8.926871,9.138732 H 10.921403 C 5.9816221,41.736876 2,37.619936 2,32.598144 c 0,-3.916013 2.4452873,-7.199177 5.8651358,-8.48948 1.5486364,-4.170247 5.4209112,-7.184142 10.0517852,-7.184142 1.797402,0 3.464954,0.476346 4.93568,1.278684 1.448857,-2.245727 3.969321,-3.73969 6.828762,-3.73969 z m 0,2.584705 c -2.01063,0 -3.743791,1.060536 -4.714251,2.648947 1.151294,1.053702 2.087173,2.356443 2.730958,3.820335 2.401548,0.0699 4.562532,1.101541 6.128937,2.728224 0.859336,-0.975244 1.39555,-2.245728 1.39555,-3.657679 0,-3.076771 -2.46579,-5.539827 -5.542561,-5.539827 z m -11.764442,2.458956 c -3.701419,0 -6.802793,2.472624 -7.862098,5.932111 l -0.0267,0.08809 c 0.09061,-0.280476 -0.035073,0.11744 -0.1174664,0.38176 -0.041989,0.134689 -0.058733,0.194913 -0.058733,0.194913 L 9.1762964,26.29965 c -2.64348,0.772951 -4.6021702,3.264028 -4.6021702,6.299793 0,3.672715 2.8280042,6.554026 6.3435318,6.554026 h 16.525167 c 3.515528,0 6.343532,-2.881311 6.343532,-6.554026 0,-3.672715 -2.828004,-6.554026 -6.343532,-6.554026 h -1.47346 l -0.299066,-0.870271 c -1.136532,-3.318702 -4.159312,-5.666943 -7.763684,-5.666943 z m 23.988145,1.791935 h 2.733692 c 0.757233,0 1.366846,0.609613 1.366846,1.366846 0,0.757232 -0.609613,1.366846 -1.366846,1.366846 h -2.733692 c -0.757232,0 -1.366846,-0.609614 -1.366846,-1.366846 0,-0.757233 0.609614,-1.366846 1.366846,-1.366846 z m -3.601639,8.694507 c 0.349366,0 0.698732,0.135386 0.96636,0.403083 l 0.96636,0.96636 c 0.535394,0.535393 0.535394,1.396916 0,1.93272 -0.535393,0.535803 -1.396916,0.535393 -1.93272,0 l -0.96636,-0.96636 c -0.535393,-0.535394 -0.535393,-1.396917 0,-1.93272 0.267765,-0.267766 0.616994,-0.403083 0.96636,-0.403083 z" fill="#fff"/>
</svg>
