<svg id="Layer_1" data-name="Layer 1" xmlns="http://www.w3.org/2000/svg" viewBox="0 0 48 48"><defs><style>.cls-1{fill:#fff;}</style></defs><title>simple pdf viewer</title><path class="cls-1" d="M39.2,5H16.4a3.81,3.81,0,0,0-3.8,3.8V31.6a3.81,3.81,0,0,0,3.8,3.8H39.2A3.81,3.81,0,0,0,43,31.6V8.8A3.81,3.81,0,0,0,39.2,5ZM23.05,19.25A2.84,2.84,0,0,1,20.2,22.1H18.3v3.8H15.45V14.5H20.2a2.84,2.84,0,0,1,2.85,2.85Zm9.5,3.8A2.84,2.84,0,0,1,29.7,25.9H25V14.5H29.7a2.84,2.84,0,0,1,2.85,2.85Zm7.6-5.7H37.3v1.9h2.85V22.1H37.3v3.8H34.45V14.5h5.7ZM18.3,19.25h1.9v-1.9H18.3ZM8.8,12.6H5V39.2A3.81,3.81,0,0,0,8.8,43H35.4V39.2H8.8Zm19,10.45h1.9v-5.7H27.8Z"/></svg>