<svg viewBox="0 0 48 48" xmlns="http://www.w3.org/2000/svg">
    <path d="m 23.997116,1.9999998 c -11.246121,0 -20.3651267,9.1131452 -20.3738442,20.3594152 v 12.564832 c 0.00473,4.403945 2.8729457,8.292886 7.0789012,9.598216 0,0.818555 0.658981,1.477537 1.477536,1.477537 h 2.955074 c 0.818555,0 1.477536,-0.658982 1.477536,-1.477537 V 25.314488 c 0,-0.818556 -0.658981,-1.477537 -1.477536,-1.477537 h -2.955074 c -0.818555,0 -1.477536,0.658981 -1.477536,1.477537 -1.3976017,0.437794 -2.6829521,1.175455 -3.7659864,2.161475 v -5.116548 c 0.00754,-2.968667 0.789235,-5.884155 2.2682491,-8.45832 l 1.8555793,1.327474 c -3e-6,0 1.210491,0.865058 2.118186,-0.597364 l 0.01154,0.01443 c 2.490687,-3.497477 6.516688,-5.5771048 10.810261,-5.5840492 4.293573,0.00694 8.319574,2.0865722 10.810257,5.5840492 l 0.01154,-0.01443 c 0.90771,1.462422 2.118192,0.597364 2.118186,0.597364 l 1.85558,-1.327474 c 1.478984,2.574165 2.260713,5.489653 2.268249,8.45832 v 5.116548 c -1.083035,-0.986034 -2.368296,-1.723696 -3.765987,-2.161475 0,-0.818556 -0.658981,-1.477537 -1.477536,-1.477537 h -2.955074 c -0.818555,0 -1.477536,0.658981 -1.477536,1.477537 V 44.522463 C 31.387681,45.341018 32.046662,46 32.865217,46 h 2.955074 c 0.818555,0 1.477536,-0.658982 1.477536,-1.477537 4.205956,-1.305404 7.074173,-5.194271 7.078901,-9.598216 V 22.359415 C 44.367867,11.113588 35.249009,2.0007606 24.002888,1.9999998 Z m 0.0029,3.2927137 c 5.507518,0.00872 10.672275,2.6749367 13.869221,7.1597035 l -1.85558,1.324588 C 33.243262,9.8947773 28.769342,7.5884818 24.000002,7.5840491 c -4.769488,0.00443 -9.24326,2.3107282 -12.013641,6.1929559 l -1.85558,-1.324588 C 13.327727,7.9676502 18.492484,5.301431 24.000002,5.2927135 Z M 13.10317,25.683872 h 1.108152 c 0.306958,0 0.554076,0.247118 0.554076,0.554076 v 17.361055 c 0,0.306958 -0.247118,0.554076 -0.554076,0.554076 H 13.10317 c -0.306958,0 -0.554076,-0.247118 -0.554076,-0.554076 V 26.237948 c 0,-0.306958 0.247118,-0.554076 0.554076,-0.554076 z m 20.685512,0 h 1.108152 c 0.306958,0 0.554076,0.247118 0.554076,0.554076 v 17.361055 c 0,0.306958 -0.247118,0.554076 -0.554076,0.554076 h -1.108152 c -0.306958,0 -0.554076,-0.247118 -0.554076,-0.554076 V 26.237948 c 0,-0.306958 0.247118,-0.554076 0.554076,-0.554076 z" fill="#fff"/>
</svg>
