<?xml version="1.0" encoding="UTF-8" standalone="no"?>
<!-- Generator: Adobe Illustrator 23.0.1, SVG Export Plug-In . SVG Version: 6.00 Build 0)  -->

<svg
   xmlns:ns="&amp;ns_sfw;"
   xmlns:dc="http://purl.org/dc/elements/1.1/"
   xmlns:cc="http://creativecommons.org/ns#"
   xmlns:rdf="http://www.w3.org/1999/02/22-rdf-syntax-ns#"
   xmlns:svg="http://www.w3.org/2000/svg"
   xmlns="http://www.w3.org/2000/svg"
   xmlns:sodipodi="http://sodipodi.sourceforge.net/DTD/sodipodi-0.dtd"
   xmlns:inkscape="http://www.inkscape.org/namespaces/inkscape"
   version="1.1"
   id="Livello_1"
   x="0px"
   y="0px"
   viewBox="0 0 48 48"
   enable-background="new 0 0 1881.25 1750"
   xml:space="preserve"
   sodipodi:docname="simplesearch.svg"
   width="48"
   height="48"
   inkscape:version="0.92.2 (5c3e80d, 2017-08-06)"><defs
     id="defs34" /><sodipodi:namedview
     pagecolor="#ffffff"
     bordercolor="#666666"
     borderopacity="1"
     objecttolerance="10"
     gridtolerance="10"
     guidetolerance="10"
     inkscape:pageopacity="0"
     inkscape:pageshadow="2"
     inkscape:window-width="1366"
     inkscape:window-height="745"
     id="namedview32"
     showgrid="false"
     inkscape:zoom="6.1029376"
     inkscape:cx="-1.3056369"
     inkscape:cy="25.615163"
     inkscape:window-x="-8"
     inkscape:window-y="-8"
     inkscape:window-maximized="1"
     inkscape:current-layer="Livello_1" /><metadata
     id="metadata2"><ns:sfw><ns:slices /><ns:sliceSourceBounds
         bottomLeftOrigin="true"
         height="1750"
         width="1881.25"
         x="-938.5"
         y="-851" /></ns:sfw><rdf:RDF><cc:Work
         rdf:about=""><dc:format>image/svg+xml</dc:format><dc:type
           rdf:resource="http://purl.org/dc/dcmitype/StillImage" /><dc:title></dc:title></cc:Work></rdf:RDF></metadata><linearGradient
     id="SVGID_1_"
     gradientUnits="userSpaceOnUse"
     x1="167.2057"
     y1="1420.9117"
     x2="795.29431"
     y2="333.08829"
     gradientTransform="matrix(1,0,0,-1,0,1752)"><stop
       offset="0"
       style="stop-color:#2368C4"
       id="stop20" /><stop
       offset="0.5"
       style="stop-color:#1A5DBE"
       id="stop22" /><stop
       offset="1"
       style="stop-color:#1146AC"
       id="stop24" /></linearGradient><path
     style="opacity:1;fill:#ffffff;fill-opacity:1;stroke:none;stroke-width:0.94488192;stroke-linejoin:bevel;stroke-miterlimit:4;stroke-dasharray:none;stroke-opacity:1"
     d="m 6.7986197,6.7969337 a 16.380023,16.380023 0 0 1 23.1652013,0.0017 16.380023,16.380023 0 0 1 0.87967,22.2021993 l 0.612491,0.612526 h 2.062182 L 45.99999,42.095181 42.095167,45.999989 29.613341,33.518182 29.611641,31.45433 28.995706,30.838403 a 16.380023,16.380023 0 0 1 -22.1970633,-0.874549 16.380023,16.380023 0 0 1 0,-23.1669203 z m 3.6308943,3.6308933 a 11.24651,11.24651 0 0 0 0,15.905137 11.24651,11.24651 0 0 0 15.90514,0 11.24651,11.24651 0 0 0 0,-15.905137 11.24651,11.24651 0 0 0 -15.90514,0 z"
     id="path1692"
     inkscape:connector-curvature="0" /></svg>