<?xml version="1.0" encoding="utf-8"?>
<!-- Generator: Adobe Illustrator 21.1.0, SVG Export Plug-In . SVG Version: 6.00 Build 0)  -->
<svg version="1.0" id="Layer_1" xmlns="http://www.w3.org/2000/svg" xmlns:xlink="http://www.w3.org/1999/xlink" x="0px" y="0px"
	 viewBox="0 0 48 48" style="enable-background:new 0 0 48 48;" xml:space="preserve">
<style type="text/css">
	.st0{fill:#FFFFFF;}
</style>
<path class="st0" d="M41,5H7C5.9,5,5,5.9,5,7v34c0,1.1,0.9,2,2,2h34c1.1,0,2-0.9,2-2V7C43,5.9,42.1,5,41,5z M28.6,14.7
	c1.5,0,2.8,1.3,2.8,2.8c0,1.5-1.3,2.8-2.8,2.8c-1.5,0-2.8-1.2-2.8-2.7C25.8,16.1,27.1,14.7,28.6,14.7z M12.4,32.9
	c2.8-4.1,5.5-8.1,8.4-12.3c2,2.9,3.9,5.6,5.9,8.5c1-1.4,1.9-2.6,2.9-4c1.6,2.7,3.1,5.2,4.7,7.8C26.9,32.9,19.8,32.9,12.4,32.9z"/>
</svg>
