<?xml version="1.0" encoding="utf-8"?>
<!-- Generator: Adobe Illustrator 21.1.0, SVG Export Plug-In . SVG Version: 6.00 Build 0)  -->
<svg version="1.0" id="Layer_1" xmlns="http://www.w3.org/2000/svg" xmlns:xlink="http://www.w3.org/1999/xlink" x="0px" y="0px"
	 viewBox="0 0 48 48" style="enable-background:new 0 0 48 48;" xml:space="preserve">
<style type="text/css">
	.st0{fill:#FFFFFF;}
</style>
<path class="st0" d="M41,5H7C5.9,5,5,5.9,5,7v34c0,1.1,0.9,2,2,2h34c1.1,0,2-0.9,2-2V7C43,5.9,42.1,5,41,5z M25.2,18.1
	c0.2-0.3,0.4-0.5,0.8-0.1c1.2,1.3,2.5,2.5,3.8,3.8c0.1,0.1,0.2,0.2,0.3,0.3c-0.1,0.4-0.4,0.5-0.6,0.8c-0.2,0.2-0.4,0-0.6-0.1
	c-1.3-1.3-2.5-2.5-3.8-3.8C24.6,18.6,25,18.4,25.2,18.1z M26.6,22.6c-2.2,2.2-4.4,4.4-6.7,6.7c-0.5,0.5-1,0.7-1.5,0.2
	c-0.6-0.5-0.3-1.1,0.1-1.5c2.3-2.3,4.5-4.6,6.8-6.8c0.1-0.1,0.3-0.3,0.6-0.5c0.4,0.4,0.7,0.8,1,1.2C27.2,22.2,26.8,22.4,26.6,22.6z
	 M31.5,32.3c-1,0-2,0-3,0c-4,0-8.1,0-12.1,0c-0.8,0-1.1-0.2-0.8-1c0,0,0-0.1,0-0.1c0.2-3.4,1.8-6,4.4-8.1c1.3-1.1,2.4-2.3,3.6-3.6
	c0.5-0.5,0.7-0.3,1.1,0.1c0.4,0.4,0.5,0.6,0,1.1c-2.3,2.3-4.5,4.7-6.9,6.8c-0.9,0.8-1.1,1.6-1.3,2.6c-0.2,0.8,0.2,1.2,1,1.1
	c1.8-0.3,3.4-0.7,4.7-2.2c1.6-1.9,3.4-3.5,5.2-5.2c0.2-0.2,0.5-0.8,0.9-0.4c0.4,0.4-0.1,0.6-0.4,0.9c-2.1,2.1-4.3,4.2-6.4,6.4
	c-0.6,0.6-1.5,0.6-2.4,1c4,0,7.7,0,11.5,0c0.3,0,0.5,0,0.8,0c0.3,0,0.8-0.2,0.7,0.4C32.2,32.4,31.8,32.3,31.5,32.3z M31.8,20.5
	c-1.3,1.4-1.3,1.4-2.5,0.1c-0.7-0.7-1.4-1.4-2.1-2.1c-1.3-1.4-1.1-1,0.1-2.2c0.3-0.3,0.5-0.6,1-0.6c0.4,0,0.6,0.2,0.8,0.4
	c0.9,0.9,1.8,1.7,2.7,2.6C32.5,19.2,32.4,19.8,31.8,20.5z"/>
</svg>
