<?xml version="1.0" encoding="UTF-8"?>
<svg width="48" height="48" viewBox="0 0 48 48" xmlns="http://www.w3.org/2000/svg">
    <path d="m 23.999915,2.0000847 c 0.732944,-2.251e-4 1.465441,0.036182 2.194749,0.109069 0.02093,0.00322 0.04187,0.0066 0.0628,0.00998 L 14.685662,22.062938 7.4405708,9.5425979 C 11.613284,4.756482 17.650424,2.0066627 24.000102,2.0000001 Z m 4.240744,0.4296929 c 6.231071,1.2209751 11.630745,5.0745978 14.811043,10.5702984 0.36735,0.635052 0.702703,1.288082 1.004805,1.956642 0.0078,0.01872 0.0154,0.03745 0.02313,0.05618 L 21.018618,14.966635 28.240693,2.4297099 Z M 6.1780953,11.102834 17.667315,31.095711 3.2001484,31.112296 C 1.1417113,25.105311 1.7791649,18.501883 4.9486366,12.999569 5.3142385,12.364244 5.7113647,11.74759 6.1385292,11.151911 c 0.0132,-0.01658 0.026417,-0.03307 0.039668,-0.04958 z m 38.6217567,5.784295 c 2.058437,6.006984 1.420983,12.610413 -1.748489,18.112727 -0.365602,0.635324 -0.762728,1.251978 -1.189892,1.847657 -0.0132,0.01658 -0.02642,0.03307 -0.03967,0.04958 L 30.332584,16.904221 44.79975,16.887636 Z m -11.485835,9.049932 7.245091,12.52034 c -4.172714,4.786116 -10.209853,7.535936 -16.559531,7.542598 -0.732944,2.25e-4 -1.46544,-0.03618 -2.194749,-0.109069 -0.02093,-0.0032 -0.04187,-0.0066 -0.0628,-0.01 L 33.313832,25.93713 Z M 3.9203929,32.983983 26.978032,33.033573 19.759341,45.570498 C 13.52827,44.349517 8.1285955,40.495895 4.9482982,35.000194 4.5809481,34.365142 4.2455944,33.712112 3.9434928,33.043553 c -0.00778,-0.01982 -0.0154,-0.03965 -0.023134,-0.0595 z" fill="#fff"/>
</svg>
