<?xml version="1.0" encoding="UTF-8"?>
<svg width="48" height="48" viewBox="0 0 48 48" xmlns="http://www.w3.org/2000/svg">
  <path d="m 33.900022,2.4400009 c 0.990003,-0.9900022 1.980005,0 1.980005,0 l 8.91002,8.9100201 c 0,0 0.990002,0.990002 0,1.980004 L 40.830038,17.290034 29.940013,6.4000098 Z M 27.960009,8.3800142 38.850033,19.270039 36.870029,21.250043 25.980004,10.360019 Z M 24.990002,11.350021 27.960009,14.320028 8.1599644,34.120072 H 6.1799599 L 4.5093311,41.359364 6.1799599,43.029993 15.08998,41.049989 34.890025,21.249944 36.375028,22.734948 16.574983,42.534992 4.199956,46 c 0,0 3.9979837,0 -1.980005,0 V 44.019995 L 5.1899577,31.149966 Z m 3.960009,3.960009 3.960009,3.960009 -19.800045,19.800044 -0.01544,-0.01544 c -0.501198,0.41891 -1.133433,0.648808 -1.786637,0.649679 -1.5421064,1.71e-4 -2.792202,-1.249996 -2.792202,-2.792202 8.771e-4,-0.653223 0.2307695,-1.285439 0.649679,-1.786637 l 0.00772,-0.01168 C 9.2819557,34.984568 9.40234,34.86549 9.532743,34.758016 Z" fill="#fff"/>
</svg>
