<svg width="48" height="48" version="1.1" viewBox="0 0 48 48" xmlns="http://www.w3.org/2000/svg">
 <path d="m24 2a22 22 0 0 0 -22 22 22 22 0 0 0 22 22 22 22 0 0 0 22 -22 22 22 0 0 0 -22 -22zm4.098 9.023c0.554 0 1 0.446 1 1v2c0 0.554-0.446 1-1 1-0.554 0-1-0.446-1-1v-2c0-0.554 0.446-1 1-1zm-7.07 3.928c0.2556 0 0.5112 0.0971 0.707 0.293l0.707 0.707c0.3917 0.3917 0.3917 1.022 0 1.414-0.3917 0.3917-1.022 0.3917-1.414 0l-0.707-0.707c-0.3917-0.3917-0.3917-1.022 0-1.414 0.1959-0.1959 0.4514-0.293 0.707-0.293zm14.14 0c0.2556 0 0.5112 0.0971 0.707 0.293 0.3917 0.3917 0.3917 1.022 0 1.414l-0.707 0.707c-0.3917 0.3917-1.022 0.3917-1.414 0-0.3917-0.3917-0.3917-1.022 0-1.414l0.707-0.707c0.1959-0.1959 0.4514-0.293 0.707-0.293zm-7.016 2.072c3.272 0 5.945 2.671 5.945 5.943 0 1.657-0.6895 3.16-1.791 4.24 0.4757 0.9219 0.7461 1.97 0.7461 3.084-0 3.673-2.917 6.686-6.531 6.686h-12.09c-3.614 0 -6.527-3.012-6.527-6.686-0 -2.865 1.789-5.267 4.291-6.211 1.133-3.051 3.966-5.256 7.354-5.256 1.315 0 2.535 0.3485 3.611 0.9355 1.06-1.643 2.904-2.736 4.996-2.736zm0 1.891c-1.471 0-2.739 0.7759-3.449 1.938 0.8423 0.7709 1.527 1.724 1.998 2.795 1.757 0.05114 3.338 0.8059 4.484 1.996 0.6287-0.7135 1.021-1.643 1.021-2.676 0-2.251-1.804-4.053-4.055-4.053zm-8.607 1.799c-2.708 0-4.977 1.809-5.752 4.34l-0.01953 0.06445c0.06629-0.2052-0.02566 0.08592-0.08594 0.2793-0.03072 0.09854-0.04297 0.1426-0.04297 0.1426l-0.4902 0.1426c-1.934 0.5655-3.367 2.388-3.367 4.609 0 2.687 2.069 4.795 4.641 4.795h12.09c2.572 0 4.641-2.108 4.641-4.795 0 -2.687-2.069-4.795-4.641-4.795h-1.078l-0.2188-0.6367c-0.8315-2.428-3.043-4.146-5.68-4.146zm17.55 1.311h2c0.554 0 1 0.446 1 1 0 0.554-0.446 1-1 1h-2c-0.554-0 -1-0.446-1-1 0-0.554 0.446-1 1-1zm-2.635 6.361c0.2556 0 0.5112 0.09905 0.707 0.2949l0.707 0.707c0.3917 0.3917 0.3917 1.022 0 1.414s-1.022 0.3917-1.414 0l-0.707-0.707c-0.3917-0.3917-0.3917-1.022 0-1.414 0.1959-0.1959 0.4514-0.2949 0.707-0.2949z" fill="#fff"/>
</svg>
