<svg xmlns="http://www.w3.org/2000/svg" viewBox="0 0 48 48"><defs><style>.cls-1{fill:#fff;}</style></defs><g id="Layer_1" data-name="Layer 1"><path class="cls-1" d="M24,2A22,22,0,1,0,46,24,22,22,0,0,0,24,2ZM18.63,12.92a5.37,5.37,0,0,1,10.74,0l0,10.74a5.36,5.36,0,1,1-10.72,0ZM36.4,25.39A12.6,12.6,0,0,1,25.79,35.68v4.08a1.79,1.79,0,1,1-3.58,0V35.68A12.62,12.62,0,0,1,11.6,25.39a1.53,1.53,0,0,1,1.52-1.73,1.5,1.5,0,0,1,1.49,1.27A9.36,9.36,0,0,0,24,32.78a9.37,9.37,0,0,0,9.39-7.85,1.49,1.49,0,0,1,1.49-1.27A1.53,1.53,0,0,1,36.4,25.39Z"/></g></svg>