<?xml version="1.0" encoding="UTF-8"?>
<svg width="48" height="48" viewBox="0 0 48 48">
    <path d="M 24,2 C 36.150264,2 46,11.849736 46,24 46,36.150264 36.150264,46 24,46 11.849736,46 2,36.150264 2,24 2,11.849736 11.849736,2 24,2 Z m 0,4.7142857 C 14.453364,6.7142857 6.7142857,14.453364 6.7142857,24 6.7142857,33.546636 14.453364,41.285714 24,41.285714 33.546636,41.285714 41.285714,33.546636 41.285714,24 41.285714,14.453364 33.546636,6.7142857 24,6.7142857 Z M 21.642857,13 h 3.928572 v 11.9944 l 9.210614,5.318971 -1.571429,2.722343 -11.567757,-6.678571 z" fill="#fff"/>
</svg>
