<?xml version="1.0" encoding="UTF-8"?>
<svg version="1.1" viewBox="0 0 48 48" xmlns="http://www.w3.org/2000/svg">
    <defs>
        <style>.cls-1{fill:#fff;}</style>
    </defs>
    <path class="cls-1" d="m7 9c-1.108 0-2 0.892-2 2v30c0 1.108 0.892 2 2 2h34c1.108 0 2-0.892 2-2v-30c0-1.108-0.892-2-2-2h-34zm3.6172 5.6543h3.0117c0.43997 0 0.79492 0.4289 0.79492 0.96094v2.6797c0 0.53204-0.35495 0.96094-0.79492 0.96094h-3.0117c-0.43997 0-0.79492-0.4289-0.79492-0.96094v-2.6797c0-0.53204 0.35495-0.96094 0.79492-0.96094zm6.5996 0h3.0117c0.43997 0 0.79492 0.4289 0.79492 0.96094v2.6797c0 0.53204-0.35495 0.96094-0.79492 0.96094h-3.0117c-0.43997 0-0.79297-0.4289-0.79297-0.96094v-2.6797c0-0.53204 0.353-0.96094 0.79297-0.96094zm10.6 0.11328h3.0117c0.43997 0 0.79492 0.4289 0.79492 0.96094v2.6777c0 0.53204-0.35495 0.96094-0.79492 0.96094h-3.0117c-0.43997 0-0.79297-0.4289-0.79297-0.96094v-2.6777c0-0.53204 0.353-0.96094 0.79297-0.96094zm6.6016 0h3.0117c0.43997 0 0.79297 0.4289 0.79297 0.96094v2.6777c0 0.53204-0.353 0.96094-0.79297 0.96094h-3.0117c-0.43997 0-0.79492-0.4289-0.79492-0.96094v-2.6777c0-0.53204 0.35495-0.96094 0.79492-0.96094zm-22.824 5.9492h3.0117c0.43997 0 0.79492 0.4289 0.79492 0.96094v2.6797c0 0.53204-0.35495 0.95898-0.79492 0.95898h-3.0117c-0.43997 0-0.79297-0.42695-0.79297-0.95898v-2.6797c0-0.53204 0.353-0.96094 0.79297-0.96094zm6.6016 0h3.0098c0.43997 0 0.79492 0.4289 0.79492 0.96094v2.6797c0 0.53204-0.35495 0.95898-0.79492 0.95898h-3.0098c-0.43997 0-0.79492-0.42695-0.79492-0.95898v-2.6797c0-0.53204 0.35495-0.96094 0.79492-0.96094zm8.5996 0h3.0117c0.43997 0 0.79297 0.4289 0.79297 0.96094v2.6797c0 0.53204-0.353 0.95898-0.79297 0.95898h-3.0117c-0.43997 0-0.79492-0.42695-0.79492-0.95898v-2.6797c0-0.53204 0.35495-0.96094 0.79492-0.96094zm6.5996 0h3.0117c0.43997 0 0.79492 0.4289 0.79492 0.96094v2.6797c0 0.53204-0.35495 0.95898-0.79492 0.95898h-3.0117c-0.43997 0-0.79492-0.42695-0.79492-0.95898v-2.6797c0-0.53204 0.35495-0.96094 0.79492-0.96094zm-20.801 6.4551h3.0117c0.43997 0 0.79492 0.4289 0.79492 0.96094v2.6777c0 0.53204-0.35495 0.96094-0.79492 0.96094h-3.0117c-0.43997 0-0.79297-0.4289-0.79297-0.96094v-2.6777c0-0.53204 0.353-0.96094 0.79297-0.96094zm6.5996 0h3.0117c0.43997 0 0.79492 0.4289 0.79492 0.96094v2.6777c0 0.53204-0.35495 0.96094-0.79492 0.96094h-3.0117c-0.43997 0-0.79297-0.4289-0.79297-0.96094v-2.6777c0-0.53204 0.353-0.96094 0.79297-0.96094zm6.6016 0h3.0117c0.43997 0 0.79297 0.4289 0.79297 0.96094v2.6777c0 0.53204-0.353 0.96094-0.79297 0.96094h-3.0117c-0.43997 0-0.79492-0.4289-0.79492-0.96094v-2.6777c0-0.53204 0.35495-0.96094 0.79492-0.96094zm6.5996 0h3.0117c0.43997 0 0.79297 0.4289 0.79297 0.96094v2.6777c0 0.53204-0.353 0.96094-0.79297 0.96094h-3.0117c-0.43997 0-0.79492-0.4289-0.79492-0.96094v-2.6777c0-0.53204 0.35495-0.96094 0.79492-0.96094zm-19.824 7.3262h22.859c0.42632 0 0.76953 0.44286 0.76953 0.99219v2.6172c0 0.54933-0.34321 0.99219-0.76953 0.99219h-22.859c-0.42632 0-0.76953-0.44286-0.76953-0.99219v-2.6172c0-0.54933 0.34321-0.99219 0.76953-0.99219z"/>
</svg>
