<svg id="Layer_1" data-name="Layer 1" xmlns="http://www.w3.org/2000/svg" viewBox="0 0 48 48"><defs><style>.cls-1{fill:#fff;}</style></defs><title>simple solitaire</title><polygon class="cls-1" points="13.85 9.75 14.8 9.75 14.33 8.29 13.85 9.75"/><polygon class="cls-1" points="31.9 39.72 32.39 38.25 31.43 38.25 31.9 39.72"/><path class="cls-1" d="M34.45,5H11.78A1.79,1.79,0,0,0,10,6.79V41.21A1.79,1.79,0,0,0,11.78,43H34.45a1.8,1.8,0,0,0,1.8-1.79V6.79A1.8,1.8,0,0,0,34.45,5Zm-21.1,6.32h-.92l1.45-3.88h1l1.42,3.88h-1l-.3-.89H13.65Zm9.77,21c-6.28-6-9.1-6.74-9.1-11.92a4.62,4.62,0,0,1,4.71-4.7,5.14,5.14,0,0,1,4.39,2.66,5.14,5.14,0,0,1,4.39-2.66,4.62,4.62,0,0,1,4.71,4.7C32.22,25.57,29.39,26.35,23.12,32.31Zm9.24,8.25h-1L30,36.68h1l.29.89h1.37l.3-.89h.91Z"/></svg>