<?xml version="1.0" encoding="UTF-8"?>
<svg version="1.1" viewBox="0 0 48 48" xmlns="http://www.w3.org/2000/svg">
    <path d="M 24,2 C 11.849738,2 2,11.849738 2,24 2,36.150262 11.849738,46 24,46 36.150262,46 46,36.150262 46,24 46,11.849738 36.150262,2 24,2 Z m 0,4.2307692 A 17.769231,17.769231 0 0 1 41.769231,24 17.769231,17.769231 0 0 1 24,41.769231 17.769231,17.769231 0 0 1 6.2307692,24 17.769231,17.769231 0 0 1 24,6.2307692 Z m 0,3.3846154 A 14.384615,14.384615 0 0 0 9.6153846,24 14.384615,14.384615 0 0 0 24,38.384615 14.384615,14.384615 0 0 0 38.384615,24 14.384615,14.384615 0 0 0 24,9.6153846 Z m 0,4.2307694 A 10.153846,10.153846 0 0 1 34.153846,24 10.153846,10.153846 0 0 1 24,34.153846 10.153846,10.153846 0 0 1 13.846154,24 10.153846,10.153846 0 0 1 24,13.846154 Z m 0,3.384615 A 6.7692308,6.7692308 0 0 0 17.230769,24 6.7692308,6.7692308 0 0 0 24,30.769231 6.7692308,6.7692308 0 0 0 30.769231,24 6.7692308,6.7692308 0 0 0 24,17.230769 Z m 0,4.230769 A 2.5384615,2.5384615 0 0 1 26.538462,24 2.5384615,2.5384615 0 0 1 24,26.538462 2.5384615,2.5384615 0 0 1 21.461538,24 2.5384615,2.5384615 0 0 1 24,21.461538 Z" fill="#fff" fill-opacity=".99614"/>
</svg>
