<?xml version="1.0" encoding="UTF-8" standalone="no"?>
<svg
   xmlns:dc="http://purl.org/dc/elements/1.1/"
   xmlns:cc="http://creativecommons.org/ns#"
   xmlns:rdf="http://www.w3.org/1999/02/22-rdf-syntax-ns#"
   xmlns:svg="http://www.w3.org/2000/svg"
   xmlns="http://www.w3.org/2000/svg"
   xmlns:sodipodi="http://sodipodi.sourceforge.net/DTD/sodipodi-0.dtd"
   xmlns:inkscape="http://www.inkscape.org/namespaces/inkscape"
   width="48"
   height="48"
   viewBox="0 0 48 48"
   version="1.1"
   id="svg4"
   sodipodi:docname="simplemusicplayer.svg"
   inkscape:version="0.92.3 (2405546, 2018-03-11)"
   inkscape:export-filename="/home/tim/frost/other/simplemusicplayer.svg.png"
   inkscape:export-xdpi="1024"
   inkscape:export-ydpi="1024">
  <metadata
     id="metadata10">
    <rdf:RDF>
      <cc:Work
         rdf:about="">
        <dc:format>image/svg+xml</dc:format>
        <dc:type
           rdf:resource="http://purl.org/dc/dcmitype/StillImage" />
        <dc:title></dc:title>
      </cc:Work>
    </rdf:RDF>
  </metadata>
  <defs
     id="defs8" />
  <sodipodi:namedview
     pagecolor="#ffffff"
     bordercolor="#666666"
     borderopacity="1"
     objecttolerance="10"
     gridtolerance="10"
     guidetolerance="10"
     inkscape:pageopacity="0"
     inkscape:pageshadow="2"
     inkscape:window-width="1920"
     inkscape:window-height="1037"
     id="namedview6"
     showgrid="true"
     inkscape:pagecheckerboard="true"
     showguides="true"
     inkscape:guide-bbox="true"
     inkscape:snap-bbox="true"
     inkscape:snap-bbox-edge-midpoints="true"
     inkscape:snap-intersection-paths="true"
     inkscape:zoom="16"
     inkscape:cx="25.23272"
     inkscape:cy="20.145505"
     inkscape:window-x="1920"
     inkscape:window-y="43"
     inkscape:window-maximized="1"
     inkscape:current-layer="svg4"
     inkscape:snap-smooth-nodes="true"
     inkscape:snap-midpoints="true"
     inkscape:snap-object-midpoints="true"
     inkscape:measure-start="32,31"
     inkscape:measure-end="24.0018,24.9885">
    <inkscape:grid
       type="xygrid"
       id="grid828"
       empspacing="4" />
  </sodipodi:namedview>
  <path
     style="fill:#ffffff;fill-opacity:1"
     d="m 23.921875,1.8789062 c -12.150264,0 -21.9999999,9.8497358 -22,21.9999998 0,12.150264 9.849736,22 22,22 12.150264,0 22,-9.849736 22,-22 0,-12.150264 -9.849736,-21.9999998 -22,-21.9999998 z m 0.07617,7.3417969 H 24 24.002 C 31.613416,9.221218 37.785108,15.388539 37.791016,23 v 8.503906 C 37.787843,34.484456 35.846613,37.116552 33,38 c 0,0.554 -0.446,1 -1,1 h -2 c -0.554,0 -1,-0.446 -1,-1 V 25 c 0,-0.554 0.446,-1 1,-1 h 2 c 0.554,0 1,0.446 1,1 0.945963,0.296293 1.815828,0.795549 2.548828,1.462891 V 23 c -0.0051,-2.009249 -0.534217,-3.982418 -1.535156,-5.724609 l -1.25586,0.898437 c 3e-6,0 -0.819263,0.585472 -1.433593,-0.404297 l -0.0078,0.0098 C 29.630749,15.412245 26.905917,14.00473 24,14 c -2.905917,0.0047 -5.630749,1.412245 -7.316406,3.779297 l -0.0078,-0.0098 c -0.61433,0.989769 -1.433595,0.404297 -1.433593,0.404297 l -1.25586,-0.898437 C 12.985389,19.017582 12.456249,20.990751 12.451172,23 v 3.462891 C 13.184172,25.795549 14.054037,25.296293 15,25 c 0,-0.554 0.446,-1 1,-1 h 2 c 0.554,0 1,0.446 1,1 v 13 c 0,0.554 -0.446,1 -1,1 h -2 c -0.554,0 -1,-0.446 -1,-1 -2.846613,-0.883448 -4.787843,-3.515544 -4.791016,-6.496094 V 23 c 0.0059,-7.611461 6.1776,-13.778782 13.789063,-13.7792969 z M 24,11.449219 c -3.727519,0.0059 -7.22305,1.810415 -9.386719,4.845703 l 1.25586,0.896484 C 17.744104,14.56387 20.772087,13.002964 24,13 c 3.227913,0.003 6.255896,1.56387 8.130859,4.191406 l 1.25586,-0.896484 C 31.22305,13.259634 27.727519,11.455137 24,11.449219 Z"
     id="circle2"
     inkscape:connector-curvature="0"
     sodipodi:nodetypes="sssssccccccsssssscccccccccccccccsssssscccccscccccs" />
  <rect
     style="fill:#ffffff;fill-opacity:1;fill-rule:evenodd;stroke-width:0.559017"
     id="rect936"
     width="1.5"
     height="12.5"
     x="30.25"
     y="25.25"
     rx="0.375" />
  <rect
     style="fill:#ffffff;fill-opacity:1;fill-rule:evenodd;stroke-width:0.559017"
     id="rect936-7"
     width="1.5"
     height="12.5"
     x="16.25"
     y="25.25"
     rx="0.375" />
</svg>
