<?xml version="1.0" encoding="UTF-8"?>
<svg version="1.1" viewBox="0 0 48 48" xmlns="http://www.w3.org/2000/svg">
    <defs>
        <style>.cls-1{fill:#fff;}</style>
    </defs>
    <path class="cls-1" d="m21.25 45.851c-11.713-2.1621-19.125-10.63-19.125-21.851 0-20.909 26.956-30.002 39.356-13.276 1.4439 1.9476 1.5333 2.2763 0.61974 2.2763-2.0159 0-3.4403 1.9304-2.5929 3.5138 0.65827 1.23 3.1664 1.585 4.2527 0.60202 0.68525-0.62014 1.1082-0.32323 1.4084 0.98867 0.3209 1.4023 0.22726 1.4751-1.4389 1.1177-1.687-0.3618-3.7476-0.11514-5.4149 0.64816-1.4718 0.67379-1.5678 0.9352-0.72871 1.9838 0.58354 0.72927 0.58354 0.72927 1.7027 0.1875 2.3122-1.1193 4.5537-0.5252 4.4125 1.1695-0.076175 0.91374-0.076175 0.91374-1.7012 1.2206-4.2564 0.80385-5.7506 2.004-5.7496 4.6182 0.0012 3.2414 2.9214 4.7394 6.1803 3.1702 2.5582-1.2318 1.9597 1.2861-1.3182 5.546-2.7203 3.5353-6.8978 6.2144-11.737 7.5275-1.7001 0.46129-6.7628 0.80822-8.125 0.55678zm-2.8148-13.186c4.2232-1.0955 5.9078-5.5478 3.2461-8.5794-0.50152-0.5712-1.6551-1.3191-3.1172-2.0211-1.2766-0.61288-2.4883-1.353-2.6926-1.6447-1.4427-2.0598 1.5653-3.8279 4.1529-2.441 0.9781 0.52423 1.1079 0.48535 1.923-0.57593 0.65354-0.85093 0.4899-1.1689-0.9901-1.9239-4.2442-2.1652-9.7155 0.76166-9.0997 4.868 0.28617 1.9083 0.98219 2.6365 3.8749 4.0539 2.8643 1.4035 3.5175 2.0012 3.5175 3.2189 0 2.3594-3.0006 3.253-5.5769 1.6608-1.0876-0.67216-0.99033-0.69538-1.7641 0.4212-0.85547 1.2344-0.83517 1.3994 0.25523 2.0733 1.7762 1.0978 4.1638 1.4366 6.271 0.89006zm9.26-3.1018c0.05065-2.2097 0.15508-3.0601 0.375-3.0539 0.16764 0.0047 1.0275 1.0881 1.9107 2.4074 2.5923 3.8721 2.5484 3.834 4.4016 3.834 0.87341 0 1.6593-0.11539 1.7465-0.25643 0.08717-0.14104-0.86244-1.6757-2.1102-3.4104-1.2478-1.7347-2.2687-3.3064-2.2687-3.4928s0.96426-1.5744 2.1428-3.0847c1.1785-1.5102 2.0719-2.8606 1.9852-3.0008-0.20058-0.32455-2.5146-0.3332-3.1154-0.01165-0.24999 0.13379-1.3354 1.4275-2.412 2.875s-2.1022 2.6317-2.279 2.6317c-0.25132 0-0.32153-1.0918-0.32153-5 0-5 0-5-1.625-5s-1.625 0-1.625 8.7083c0 4.7896 0.07991 8.7882 0.17757 8.8859 0.09767 0.09767 0.80079 0.14454 1.5625 0.10417 1.3849-0.073408 1.3849-0.073408 1.4551-3.1359zm12.219 0.23032c-1.383-1.5282 0.40202-3.5358 3.1488-3.5414 0.98936-2e-3 1.0421 2.4167 0.07386 3.385-0.77756 0.77756-2.5813 0.86513-3.2226 0.15645zm1.1363-13.593c-0.74779-0.74779-0.1621-1.95 0.95-1.95 0.78612 0 1.25 0.41749 1.25 1.125s-0.46388 1.125-1.25 1.125c-0.3575 0-0.785-0.135-0.95-0.3z"/>
</svg>
