<?xml version="1.0" encoding="UTF-8" standalone="no"?>
<svg width="48" height="48" viewBox="0 0 48 48" version="1.1" >
    <defs>
        <style>.cls-1{fill:#fff;}</style>
    </defs>
    <path
        class="cls-1"
        d="M 21.25,45.85063 C 9.5365753,43.688552 2.125,35.220705 2.125,24 2.125,3.0909002 29.080902,-6.00244 41.48054,10.723749 42.924393,12.671399 43.013857,13 42.100282,13 c -2.015877,0 -3.440312,1.930388 -2.592872,3.513848 0.65827,1.229986 3.166445,1.585049 4.252682,0.602018 0.685251,-0.620141 1.108218,-0.323231 1.408423,0.988667 0.320897,1.402325 0.227255,1.475066 -1.4389,1.11774 -1.687007,-0.361798 -3.747607,-0.115143 -5.41489,0.648164 -1.471758,0.673793 -1.567777,0.935204 -0.728707,1.983837 0.583535,0.729274 0.583535,0.729274 1.702689,0.1875 2.312175,-1.119305 4.553745,-0.525199 4.412468,1.169481 C 43.625,24.125 43.625,24.125 42,24.43189 c -4.256428,0.803847 -5.750558,2.00396 -5.749612,4.618195 0.0012,3.241448 2.921399,4.739415 6.180264,3.170247 2.558163,-1.231775 1.959693,1.286108 -1.318215,5.545993 -2.72032,3.53526 -6.897775,6.214372 -11.737437,7.52753 -1.70011,0.461292 -6.762765,0.80822 -8.125,0.556775 z M 18.435194,32.6643 c 4.223208,-1.095488 5.907809,-5.547838 3.246103,-8.579353 -0.501518,-0.571197 -1.655109,-1.319144 -3.117228,-2.021098 -1.276593,-0.612884 -2.488252,-1.353008 -2.692574,-1.644719 -1.442749,-2.059812 1.565305,-3.82792 4.152912,-2.441045 0.978095,0.524227 1.107903,0.485351 1.922991,-0.575927 0.653538,-0.850931 0.489905,-1.168901 -0.990097,-1.923941 -4.244221,-2.16524 -9.715468,0.761664 -9.099688,4.867978 0.28617,1.90832 0.982191,2.63649 3.874918,4.053897 2.864306,1.403481 3.517469,2.0012 3.517469,3.218891 0,2.359439 -3.000584,3.252994 -5.57688,1.660757 -1.087574,-0.672158 -0.990334,-0.695375 -1.76412,0.421198 -0.855474,1.234449 -0.835167,1.399405 0.255226,2.073305 1.7762,1.097752 4.163845,1.436637 6.270968,0.890057 z m 9.260001,-3.1018 c 0.05065,-2.209665 0.155075,-3.060093 0.375,-3.053855 0.167642,0.0047 1.027462,1.088088 1.91071,2.407402 2.5923,3.872148 2.54845,3.833953 4.401565,3.833953 0.873412,0 1.659337,-0.115392 1.746502,-0.25643 0.08717,-0.141035 -0.862445,-1.675733 -2.110245,-3.410438 C 32.770927,27.348425 31.75,25.776685 31.75,25.590375 c 0,-0.18631 0.964255,-1.574402 2.142787,-3.084651 1.178533,-1.510249 2.071895,-2.860616 1.985245,-3.000815 -0.200582,-0.324551 -2.514607,-0.333204 -3.115437,-0.01165 -0.249993,0.133792 -1.33541,1.427542 -2.412038,2.875 C 29.27393,23.815716 28.248365,25 28.071527,25 27.820207,25 27.75,23.908197 27.75,20 c 0,-5 0,-5 -1.625,-5 -1.625,0 -1.625,0 -1.625,8.708333 0,4.789584 0.07991,8.788242 0.177574,8.885907 0.09767,0.09767 0.800791,0.144542 1.562501,0.104168 C 27.625,32.625 27.625,32.625 27.695195,29.5625 Z m 12.218552,0.230315 c -1.383015,-1.528215 0.402018,-3.53585 3.148753,-3.54142 0.989355,-0.002 1.042135,2.416698 0.07386,3.384968 -0.77756,0.777562 -2.581272,0.865127 -3.222615,0.156452 z M 41.05,16.2 c -0.747788,-0.747787 -0.162095,-1.95 0.95,-1.95 0.786125,0 1.25,0.417488 1.25,1.125 0,0.707512 -0.463875,1.125 -1.25,1.125 -0.3575,0 -0.785,-0.135 -0.95,-0.3 z"
     id="path4731" />
</svg>
