<?xml version="1.0" encoding="UTF-8"?>
<svg version="1.1" viewBox="0 0 48 48" xmlns="http://www.w3.org/2000/svg">
    <defs>
        <style>.cls-1{fill:#ffffff;}
            .cls-2{fill:none;stroke:#ffffff;stroke-width:0.4;}</style>
    </defs>
    <circle class="cls-1" cx="30.476" cy="8.7556" r="2"/>
    <path class="cls-1" d="m23.555 20.685a7 7 0 0 0-7 7 7 7 0 0 0 7 7 7 7 0 0 0 4.459-1.6094c-0.18899 0.52844-0.07497 1.1399 0.34961 1.5645l6.3633 6.3633c0.58761 0.58761 1.5335 0.58761 2.1211 0 0.5876-0.5876 0.5876-1.5335 0-2.1211l-6.3633-6.3633c-0.42472-0.42472-1.0359-0.53692-1.5645-0.34766a7 7 0 0 0 1.6348-4.4863 7 7 0 0 0-7-7zm0 2a5 5 0 0 1 5 5 5 5 0 0 1-5 5 5 5 0 0 1-5-5 5 5 0 0 1 5-5z"/>
    <path class="cls-1" d="m25.137 31.799-2.9222-1.4195-2.826 1.6025 0.44706-3.2178-2.3973-2.1925 3.1985-0.56919 1.3444-2.9575 1.5297 2.8661 3.2282 0.36467-2.2531 2.3405z"/>
    <ellipse class="cls-1" cx="34.793" cy="24.05" rx="1.6271" ry="1.6017"/>
    <ellipse class="cls-1" cx="14.555" cy="37.702" rx="1.7797" ry="1.8814"/>
    <path class="cls-2" d="m12.342 16.294 18.146-7.7076 4.3008 15.443-12.459 3.6413-7.7388 9.9457z"/>
    <circle class="cls-1" cx="12.411" cy="16.397" r="1.5"/>
</svg>
