<?xml version="1.0" encoding="utf-8"?>
<!-- Generator: Adobe Illustrator 21.1.0, SVG Export Plug-In . SVG Version: 6.00 Build 0)  -->
<svg version="1.0" id="Layer_1" xmlns="http://www.w3.org/2000/svg" xmlns:xlink="http://www.w3.org/1999/xlink" x="0px" y="0px"
	 viewBox="0 0 48 48" style="enable-background:new 0 0 48 48;" xml:space="preserve">
<style type="text/css">
	.st0{fill:#FFFFFF;}
</style>
<path class="st0" d="M18.3,11.1c-1.5-1.2-3-2.3-4.5-3.5c0.3-1.2,1-1.4,2-0.7c1.9,1.4,3.9,2.9,5.8,4.4c1.4,0,2.8,0,4.2,0
	c0.5,0,0.8-0.2,1.1-0.5c1.7-1.3,3.4-2.6,5.1-3.9c1-0.7,1.6-0.5,2,0.7c-1.5,1.1-3,2.3-4.6,3.5c0.5,0.3,0.9,0.2,1.2,0.2
	c2.5,0,5.1,0,7.6,0c2.9,0,4.6,1.8,4.6,4.6c0,6.9,0,13.8,0,20.7c0,3.1-1.7,4.8-4.9,4.8c-9.4,0-18.9,0-28.3,0c-3.1,0-4.8-1.7-4.8-4.7
	c0-6.9,0-13.9,0-20.8c0-2.8,1.8-4.5,4.7-4.6c2.5,0,5,0,7.5,0c0.4,0,0.7,0,1.1,0C18.3,11.3,18.3,11.2,18.3,11.1z M24.1,19.8
	c0,2,0,3.6,0,5.5c-2-1.8-3.8-3.5-5.8-5.3c0,4.4,0,8.6,0,13c2-1.9,3.9-3.5,5.9-5.4c0,2,0,3.6,0,5.5c2.5-2.3,4.8-4.4,7.2-6.6
	C29,24.2,26.7,22.1,24.1,19.8z"/>
</svg>
