<?xml version="1.0" encoding="utf-8"?>
<!-- Generator: Adobe Illustrator 21.1.0, SVG Export Plug-In . SVG Version: 6.00 Build 0)  -->
<svg version="1.0" id="Layer_1" xmlns="http://www.w3.org/2000/svg" xmlns:xlink="http://www.w3.org/1999/xlink" x="0px" y="0px"
	 viewBox="0 0 48 48" style="enable-background:new 0 0 48 48;" xml:space="preserve">
<style type="text/css">
	.st0{fill:#FFFFFF;}
</style>
<g>
	<path class="st0" d="M27.1,25.5c-0.5-1.4-1.1-3.3-1.6-4.6c-1.6,0.5-3.1,1-4.7,1.5c0.6,1.6,1.1,3.2,1.6,4.7c0,0,0,0,0,0.1
		c0,0,0,0,0-0.1C23.9,26.6,25.6,26,27.1,25.5C27.1,25.3,27.2,25.7,27.1,25.5z"/>
	<path class="st0" d="M24,2C11.8,2,2,11.8,2,24s9.8,22,22,22s22-9.8,22-22S36.2,2,24,2z M34.6,27.9c-0.6,0.2-1.3,0.4-1.9,0.7
		c1.2,3.6,0.7,5.4-1.7,5.1c-2.1-0.3-1.9-2.3-2.5-3.7c-1.6,0.5-3.2,1-4.8,1.5c0.3,1.8,2.2,4-0.8,5c-2.9,0.9-2.8-1.9-3.5-3.6
		c0,0,0,0,0,0c0,0,0,0,0,0c-0.7,0.2-1.4,0.5-2.2,0.7c-1.4,0.4-2.4-0.1-2.8-1.4c-0.5-1.4,0.1-2.3,1.5-2.9c0.7-0.3,1.4-0.5,2.2-0.7
		c-0.5-1.6-1-3.1-1.5-4.7c-1.8,0.3-4,2.1-5-0.7c-0.9-2.8,1.9-2.7,3.5-3.5c-0.3-1.8-2.1-4.1,0.9-5c2.8-0.8,2.7,2,3.5,3.6
		c1.6-0.5,3.1-1,4.7-1.5c-0.1-0.3-0.1-0.5-0.2-0.7c-0.5-1.6-1.4-3.6,1-4.3c2.4-0.7,2.7,1.4,3.3,3c0.1,0.2,0.2,0.4,0.3,0.7
		c1.9-0.4,4.4-2.3,5,1.2c0.4,2.4-2.1,2.3-3.7,3c0.5,1.6,1,3.1,1.5,4.7c0.7-0.2,1.3-0.4,2-0.6c1.5-0.5,2.7-0.2,3.2,1.3
		C36.9,26.4,36.1,27.4,34.6,27.9z"/>
</g>
</svg>
