<svg xmlns="http://www.w3.org/2000/svg" viewBox="0 0 48 48"><defs><style>.cls-1{fill:#fff;}</style></defs><g id="Layer_1" data-name="Layer 1"><path class="cls-1" d="M18.93,5a3.8,3.8,0,1,0,0,7.6h3.8V8.8A3.79,3.79,0,0,0,18.93,5m0,10.13H8.8a3.8,3.8,0,1,0,0,7.6H18.93a3.8,3.8,0,1,0,0-7.6"/><path class="cls-1" d="M43,18.93a3.8,3.8,0,1,0-7.6,0v3.8h3.8a3.8,3.8,0,0,0,3.8-3.8m-10.13,0V8.8a3.8,3.8,0,1,0-7.6,0V18.93a3.8,3.8,0,1,0,7.6,0"/><path class="cls-1" d="M29.07,43a3.8,3.8,0,0,0,0-7.6h-3.8v3.8a3.8,3.8,0,0,0,3.8,3.8m0-10.13H39.2a3.8,3.8,0,0,0,0-7.6H29.07a3.8,3.8,0,0,0,0,7.6h0"/><path class="cls-1" d="M5,29.07a3.81,3.81,0,0,0,3.8,3.8h0a3.81,3.81,0,0,0,3.8-3.8v-3.8H8.8A3.8,3.8,0,0,0,5,29.07m10.13,0V39.2a3.8,3.8,0,0,0,7.6,0V29.07a3.79,3.79,0,0,0-3.8-3.8h0a3.8,3.8,0,0,0-3.8,3.8"/></g></svg>