<svg id="svg4" width="48" height="48" version="1.1" viewBox="0 0 48 48" xmlns="http://www.w3.org/2000/svg">
 <path id="path2-4" d="m18.196 2c-2.544 0-4.6223 2.0783-4.6223 4.6223s2.0783 4.6223 4.6223 4.6223h4.6216v-4.6223c0-2.544-2.0776-4.6223-4.6216-4.6223zm11.608 0c-2.544 0-4.6216 2.0783-4.6216 4.6223v11.574c0 2.544 2.0776 4.6216 4.6216 4.6216 2.544 0 4.6223-2.0776 4.6223-4.6216v-11.574c0-2.544-2.0783-4.6223-4.6223-4.6223zm-23.182 11.574c-2.544 0-4.6223 2.0783-4.6223 4.6223 0 2.544 2.0783 4.6216 4.6223 4.6216h11.573c2.544 0 4.6216-2.0776 4.6216-4.6216 0-2.544-2.0776-4.6223-4.6216-4.6223zm34.755 0c-2.544 0-4.6223 2.0783-4.6223 4.6223v4.6216h4.6223c2.544 0 4.6223-2.0776 4.6223-4.6216 0-2.544-2.0783-4.6223-4.6223-4.6223zm-34.755 11.609c-2.544 0-4.6223 2.0776-4.6223 4.6216 0 2.544 2.0783 4.6223 4.6223 4.6223 2.544 0 4.6223-2.0783 4.6223-4.6223v-4.6216zm11.573 0c-2.544 0-4.6223 2.0776-4.6223 4.6216v11.574c0 2.544 2.0783 4.6223 4.6223 4.6223 2.544 0 4.6216-2.0783 4.6216-4.6223v-11.574c0-2.544-2.0776-4.6216-4.6216-4.6216zm11.608 0c-2.544 0-4.6216 2.0776-4.6216 4.6216 0 2.544 2.0776 4.6223 4.6216 4.6223h11.574c2.544 0 4.6223-2.0783 4.6223-4.6223 0-2.544-2.0783-4.6216-4.6223-4.6216zm-4.6216 11.573v4.6223c0 2.544 2.0776 4.6223 4.6216 4.6223 2.544 0 4.6223-2.0783 4.6223-4.6223s-2.0783-4.6223-4.6223-4.6223z" fill="#fff" stroke-width=".3583"/>
</svg>
