<?xml version="1.0" encoding="UTF-8" standalone="no"?>
<svg
   xmlns:dc="http://purl.org/dc/elements/1.1/"
   xmlns:cc="http://creativecommons.org/ns#"
   xmlns:rdf="http://www.w3.org/1999/02/22-rdf-syntax-ns#"
   xmlns:svg="http://www.w3.org/2000/svg"
   xmlns="http://www.w3.org/2000/svg"
   xmlns:sodipodi="http://sodipodi.sourceforge.net/DTD/sodipodi-0.dtd"
   xmlns:inkscape="http://www.inkscape.org/namespaces/inkscape"
   width="48"
   height="48"
   viewBox="0 0 48 48"
   version="1.1"
   id="svg4"
   sodipodi:docname="Slack.svg"
   inkscape:version="0.92.3 (2405546, 2018-03-11)">
  <metadata
     id="metadata10">
    <rdf:RDF>
      <cc:Work
         rdf:about="">
        <dc:format>image/svg+xml</dc:format>
        <dc:type
           rdf:resource="http://purl.org/dc/dcmitype/StillImage" />
        <dc:title />
      </cc:Work>
    </rdf:RDF>
  </metadata>
  <defs
     id="defs8" />
  <sodipodi:namedview
     pagecolor="#7e7e7e"
     bordercolor="#666666"
     borderopacity="1"
     objecttolerance="10"
     gridtolerance="10"
     guidetolerance="10"
     inkscape:pageopacity="0"
     inkscape:pageshadow="2"
     inkscape:window-width="1920"
     inkscape:window-height="1046"
     id="namedview6"
     showgrid="false"
     inkscape:zoom="9.8333333"
     inkscape:cx="21.942118"
     inkscape:cy="23.681757"
     inkscape:window-x="0"
     inkscape:window-y="0"
     inkscape:window-maximized="1"
     inkscape:current-layer="svg4" />
  <path
     d="M 24 2 A 22 22 0 0 0 7.1855469 9.8164062 L 9.1425781 15.826172 L 31.195312 8.6445312 L 29.248047 2.6621094 A 22 22 0 0 0 24 2 z M 7.1855469 9.8164062 A 22 22 0 0 0 6.6289062 10.542969 A 22 22 0 0 1 7.1855469 9.8164062 z M 30.138672 2.890625 L 31.933594 8.4042969 L 37.435547 6.6132812 A 22 22 0 0 0 30.138672 2.890625 z M 37.457031 6.6289062 A 22 22 0 0 1 38.183594 7.1855469 A 22 22 0 0 0 37.457031 6.6289062 z M 38.183594 7.1855469 L 32.173828 9.1425781 L 39.355469 31.195312 L 45.337891 29.248047 A 22 22 0 0 0 46 24 A 22 22 0 0 0 38.183594 7.1855469 z M 31.435547 9.3828125 L 9.3828125 16.564453 L 16.564453 38.617188 L 38.617188 31.435547 L 31.435547 9.3828125 z M 6.6132812 10.564453 A 22 22 0 0 0 2.890625 17.861328 L 8.4042969 16.066406 L 6.6132812 10.564453 z M 23.925781 15.476562 C 26.430262 15.476563 28.479553 16.275265 29.589844 17.058594 C 29.748726 17.170441 30.033244 17.442606 29.863281 17.947266 C 29.645447 18.49081 29.245601 19.306889 28.958984 19.837891 C 28.792158 20.147292 28.366691 20.106684 28.148438 19.996094 C 27.357582 19.595335 26.060754 18.917985 24.869141 18.792969 A 6.9778443 6.9778443 0 0 0 23.958984 18.753906 C 22.909527 18.777316 22.033382 19.140723 21.724609 19.941406 A 1.4090319 1.4090319 0 0 0 21.625 20.417969 C 21.59616 21.473071 23.064901 21.854517 24.84375 22.160156 C 28.150799 22.726695 30.652344 23.695772 30.652344 27.099609 C 30.652344 29.990217 28.35468 32.603504 23.853516 32.523438 C 20.886186 32.463436 18.780406 31.45927 17.652344 30.486328 C 17.613874 30.453288 17.185846 30.016216 17.416016 29.490234 C 17.679426 28.813105 18.123743 28.037047 18.472656 27.625 C 18.666659 27.360336 19.179185 27.319432 19.445312 27.484375 C 20.375192 28.062205 21.903961 28.987364 23.667969 29.048828 C 23.807199 29.053628 23.94656 29.054381 24.082031 29.050781 C 25.668756 29.012311 26.627492 28.411936 26.607422 27.398438 C 26.590282 26.50556 25.333457 25.983023 23.330078 25.605469 C 20.13488 25.003601 17.564453 23.950551 17.564453 20.736328 L 17.5625 20.736328 C 17.5625 17.638548 19.821193 15.476564 23.925781 15.476562 z M 8.6445312 16.804688 L 2.6621094 18.751953 A 22 22 0 0 0 2 24 A 22 22 0 0 0 9.8164062 40.814453 L 15.826172 38.857422 L 8.6445312 16.804688 z M 9.8164062 40.814453 A 22 22 0 0 0 10.542969 41.371094 A 22 22 0 0 1 9.8164062 40.814453 z M 45.109375 30.138672 L 39.595703 31.933594 L 41.386719 37.435547 A 22 22 0 0 0 45.109375 30.138672 z M 38.857422 32.173828 L 16.804688 39.355469 L 18.751953 45.337891 A 22 22 0 0 0 24 46 A 22 22 0 0 0 40.814453 38.183594 L 38.857422 32.173828 z M 40.814453 38.183594 A 22 22 0 0 0 41.371094 37.457031 A 22 22 0 0 1 40.814453 38.183594 z M 16.066406 39.595703 L 10.564453 41.386719 A 22 22 0 0 0 17.861328 45.109375 L 16.066406 39.595703 z "
     id="circle2"
     style="fill:#ffffff" />
</svg>
