<svg width="48" height="48" version="1.1" viewBox="0 0 48 48" xmlns="http://www.w3.org/2000/svg">
 <path d="m24 2a22 22 0 0 0-16.814 7.8164l1.957 6.0098 22.053-7.1816-1.9473-5.9824a22 22 0 0 0-5.248-0.66211zm-16.814 7.8164a22 22 0 0 0-0.55664 0.72656 22 22 0 0 1 0.55664-0.72656zm22.953-6.9258 1.7949 5.5137 5.502-1.791a22 22 0 0 0-7.2969-3.7227zm7.3184 3.7383a22 22 0 0 1 0.72656 0.55664 22 22 0 0 0-0.72656-0.55664zm0.72656 0.55664-6.0098 1.957 7.1816 22.053 5.9824-1.9473a22 22 0 0 0 0.66211-5.248 22 22 0 0 0-7.8164-16.814zm-6.748 2.1973-22.053 7.1816 7.1816 22.053 22.053-7.1816-7.1816-22.053zm-24.822 1.1816a22 22 0 0 0-3.7227 7.2969l5.5137-1.7949-1.791-5.502zm17.312 4.9121c2.5045 1e-6 4.5538 0.7987 5.6641 1.582 0.15888 0.11185 0.4434 0.38401 0.27344 0.88867-0.21783 0.54354-0.61768 1.3596-0.9043 1.8906-0.16683 0.3094-0.59229 0.26879-0.81055 0.1582-0.79086-0.40076-2.0877-1.0781-3.2793-1.2031a6.9778 6.9778 0 0 0-0.91016-0.039063c-1.0495 0.02341-1.9256 0.38682-2.2344 1.1875a1.409 1.409 0 0 0-0.099609 0.47656c-0.02884 1.0551 1.4399 1.4365 3.2188 1.7422 3.307 0.56654 5.8086 1.5356 5.8086 4.9395 0 2.8906-2.2977 5.5039-6.7988 5.4238-2.9673-0.060002-5.0731-1.0642-6.2012-2.0371-0.03847-0.03304-0.4665-0.47011-0.23633-0.99609 0.26341-0.67713 0.70773-1.4532 1.0566-1.8652 0.194-0.26466 0.70653-0.30557 0.97266-0.14062 0.92988 0.57783 2.4586 1.503 4.2227 1.5645 0.13923 0.0048 0.27859 0.005553 0.41406 0.001953 1.5867-0.03847 2.5455-0.63884 2.5254-1.6523-0.01714-0.89288-1.274-1.4154-3.2773-1.793-3.1952-0.60187-5.7656-1.6549-5.7656-4.8691h-0.001953c0-3.0978 2.2587-5.2598 6.3633-5.2598zm-15.281 1.3281-5.9824 1.9473a22 22 0 0 0-0.66211 5.248 22 22 0 0 0 7.8164 16.814l6.0098-1.957-7.1816-22.053zm1.1719 24.01a22 22 0 0 0 0.72656 0.55664 22 22 0 0 1-0.72656-0.55664zm35.293-10.676-5.5137 1.7949 1.791 5.502a22 22 0 0 0 3.7227-7.2969zm-6.252 2.0352-22.053 7.1816 1.9473 5.9824a22 22 0 0 0 5.248 0.66211 22 22 0 0 0 16.814-7.8164l-1.957-6.0098zm1.957 6.0098a22 22 0 0 0 0.55664-0.72656 22 22 0 0 1-0.55664 0.72656zm-24.748 1.4121-5.502 1.791a22 22 0 0 0 7.2969 3.7227l-1.7949-5.5137z" fill="#fff"/>
</svg>
