<?xml version="1.0" encoding="utf-8"?>
<!-- Generator: Adobe Illustrator 21.1.0, SVG Export Plug-In . SVG Version: 6.00 Build 0)  -->
<svg version="1.0" id="Layer_1" xmlns="http://www.w3.org/2000/svg" xmlns:xlink="http://www.w3.org/1999/xlink" x="0px" y="0px"
	 viewBox="0 0 48 48" enable-background="new 0 0 48 48" xml:space="preserve">
<g>
	<path fill="#FFFFFF" d="M24,15c-5.5,0-10,4.5-9.9,10c0,5.5,4.5,9.9,9.9,9.9c5.5,0,10-4.4,10-10C33.9,19.5,29.5,15,24,15z
		 M30.1,22.5c-1.9,1.9-3.7,3.8-5.6,5.6c-0.5,0.5-1.1,0.5-1.6,0c-1.2-1.2-2.4-2.4-3.6-3.6c-0.5-0.5-0.6-1.1-0.1-1.6
		c0.5-0.6,1.2-0.5,1.7,0.1c0.9,0.9,1.8,1.8,2.8,2.8c1.5-1.5,2.8-2.8,4.2-4.2c0.2-0.2,0.4-0.4,0.6-0.6c0.5-0.5,1.1-0.6,1.6,0
		C30.7,21.4,30.7,22,30.1,22.5z"/>
	<path fill="#FFFFFF" d="M41,5H7C5.9,5,5,5.9,5,7v34c0,1.1,0.9,2,2,2h34c1.1,0,2-0.9,2-2V7C43,5.9,42.1,5,41,5z M12.7,12
		c2.1-1.7,5.3-1.8,7.3,0c-4,1.3-6.8,3.9-8.6,7.8C9.8,16.9,10.4,13.8,12.7,12z M24.1,37.3c-6.8,0-12.4-5.4-12.4-12.2
		c-0.1-6.8,5.5-12.4,12.3-12.4c6.8,0,12.3,5.5,12.4,12.3C36.3,31.8,30.8,37.3,24.1,37.3z M36.6,19.7C34.8,15.9,32,13.3,28,12
		c2.2-1.8,5.5-1.7,7.6,0.3C37.7,14.2,38.1,17.4,36.6,19.7z"/>
</g>
</svg>
