<?xml version="1.0" encoding="UTF-8" standalone="no"?>
<svg
   xmlns:dc="http://purl.org/dc/elements/1.1/"
   xmlns:cc="http://creativecommons.org/ns#"
   xmlns:rdf="http://www.w3.org/1999/02/22-rdf-syntax-ns#"
   xmlns:svg="http://www.w3.org/2000/svg"
   xmlns="http://www.w3.org/2000/svg"
   xmlns:sodipodi="http://sodipodi.sourceforge.net/DTD/sodipodi-0.dtd"
   xmlns:inkscape="http://www.inkscape.org/namespaces/inkscape"
   width="48"
   height="48"
   viewBox="0 0 48 48"
   version="1.1"
   id="svg4545"
   sodipodi:docname="slide.svg"
   inkscape:version="0.92.1 r">
  <metadata
     id="metadata4551">
    <rdf:RDF>
      <cc:Work
         rdf:about="">
        <dc:format>image/svg+xml</dc:format>
        <dc:type
           rdf:resource="http://purl.org/dc/dcmitype/StillImage" />
        <dc:title></dc:title>
      </cc:Work>
    </rdf:RDF>
  </metadata>
  <defs
     id="defs4549" />
  <sodipodi:namedview
     pagecolor="#ffffff"
     bordercolor="#666666"
     borderopacity="1"
     objecttolerance="10"
     gridtolerance="10"
     guidetolerance="10"
     inkscape:pageopacity="0"
     inkscape:pageshadow="2"
     inkscape:window-width="640"
     inkscape:window-height="480"
     id="namedview4547"
     showgrid="false"
     inkscape:pagecheckerboard="true"
     inkscape:showpageshadow="false"
     inkscape:object-paths="true"
     inkscape:snap-intersection-paths="true"
     inkscape:snap-smooth-nodes="true"
     inkscape:snap-midpoints="true"
     inkscape:snap-bbox="true"
     inkscape:bbox-paths="true"
     inkscape:bbox-nodes="true"
     inkscape:snap-bbox-edge-midpoints="true"
     inkscape:snap-bbox-midpoints="true"
     inkscape:snap-object-midpoints="true"
     inkscape:snap-center="true"
     inkscape:snap-text-baseline="true"
     inkscape:zoom="5.6568542"
     inkscape:cx="-16.309184"
     inkscape:cy="64.992839"
     inkscape:current-layer="svg4545"
     inkscape:snap-global="true" />
  <path
     style="fill:#ffffff"
     d="M 24.050781 4 L 24.091797 4.0410156 L 24.091797 4.0019531 L 38.003906 4.0019531 C 38.002332 4.0019495 38.001575 4 38 4 L 24.050781 4 z "
     id="path5457" />
  <path
     style="fill:#ffffff"
     d="M 6 8 C 4.892 8 4 8.892 4 10 L 4 38 C 4 39.108 4.892 40 6 40 L 42 40 C 43.108 40 44 39.108 44 38 L 44 10 C 44 8.892 43.108 8 42 8 L 6 8 z M 36.945312 14.710938 A 3.6538959 3.6538959 0 0 1 40.597656 18.365234 A 3.6538959 3.6538959 0 0 1 36.945312 22.019531 A 3.6538959 3.6538959 0 0 1 35.685547 21.789062 L 32.509766 26.410156 A 3.091758 3.091758 0 0 1 33.1875 28.339844 A 3.091758 3.091758 0 0 1 30.095703 31.431641 A 3.091758 3.091758 0 0 1 27.003906 28.339844 A 3.091758 3.091758 0 0 1 27.023438 27.994141 L 20.21875 25.054688 A 3.091758 3.091758 0 0 1 17.859375 26.148438 A 3.091758 3.091758 0 0 1 16.044922 25.554688 L 11.939453 28.654297 A 2.3047652 2.3047652 0 0 1 12.011719 29.214844 A 2.3047652 2.3047652 0 0 1 9.7070312 31.519531 A 2.3047652 2.3047652 0 0 1 7.4023438 29.214844 A 2.3047652 2.3047652 0 0 1 9.7070312 26.910156 A 2.3047652 2.3047652 0 0 1 10.855469 27.220703 L 14.958984 24.121094 A 3.091758 3.091758 0 0 1 14.769531 23.056641 A 3.091758 3.091758 0 0 1 17.859375 19.964844 A 3.091758 3.091758 0 0 1 20.951172 23.056641 A 3.091758 3.091758 0 0 1 20.931641 23.404297 L 27.734375 26.34375 A 3.091758 3.091758 0 0 1 30.095703 25.248047 A 3.091758 3.091758 0 0 1 31.027344 25.394531 L 34.201172 20.771484 A 3.6538959 3.6538959 0 0 1 33.291016 18.365234 A 3.6538959 3.6538959 0 0 1 36.945312 14.710938 z "
     id="rect5710" />
</svg>
