<?xml version="1.0" encoding="UTF-8"?>
<svg version="1.1" viewBox="0 0 48 48" xmlns="http://www.w3.org/2000/svg">
    <path d="m12.044 4c-1.1689 0-2.1099 0.94101-2.1099 2.1099v36.161c0 2.0143 0 2.013 2.0145 1.2798l6.0257-2.1932c6.0257-2.1932 6.0257-2.1932 12.051 0l6.0257 2.1932c2.018 0.7345 2.018 0.7345 2.0145-1.2798v-36.161c0-1.1689-0.94101-2.1099-2.1099-2.1099zm11.956 12.659c5.4379 0 9.8461 4.4083 9.8461 9.8461 0 5.4379-4.4083 9.8461-9.8461 9.8461-5.4379 0-9.8461-4.4083-9.8461-9.8461 0-5.4379 4.4083-9.8461 9.8461-9.8461zm0 1.4066c-4.661 0-8.4395 3.7785-8.4395 8.4395s3.7785 8.4395 8.4395 8.4395 8.4395-3.7785 8.4395-8.4395-3.7785-8.4395-8.4395-8.4395zm0 4.2198c1.1652 0 2.1099 0.94465 2.1099 2.1099 0 1.1652-0.94465 2.1099-2.1099 2.1099s-2.1099-0.94466-2.1099-2.1099c0-1.1652 0.94465-2.1099 2.1099-2.1099zm0 4.9862c2.3469 4.4e-5 4.2198 0.65711 4.2198 1.4396v2.0137h-8.4395v-2.0137c0-0.78244 1.8724-1.4396 4.2198-1.4396z" fill="#fff"/>
</svg>
