<?xml version="1.0" encoding="utf-8"?>
<!-- Generator: Adobe Illustrator 21.1.0, SVG Export Plug-In . SVG Version: 6.00 Build 0)  -->
<svg version="1.0" id="Layer_1" xmlns="http://www.w3.org/2000/svg" xmlns:xlink="http://www.w3.org/1999/xlink" x="0px" y="0px"
	 viewBox="0 0 48 48" enable-background="new 0 0 48 48" xml:space="preserve">
<path fill="#FFFFFF" d="M41,5H7C5.9,5,5,5.9,5,7v34c0,1.1,0.9,2,2,2h34c1.1,0,2-0.9,2-2V7C43,5.9,42.1,5,41,5z M40.4,24.4
	c0,0.3-0.1,0.6-0.1,0.8l0.1,4.4L38.3,27c-0.2,0-0.4,0.1-0.6,0.1h-1.5v9.3c0,1.5-1.2,2.7-2.7,2.7H11.3c-0.2,0-0.4,0-0.6-0.1l-2,2.6
	l0.1-4.4c-0.1-0.3-0.1-0.5-0.1-0.8V23.1c0-1.5,1.2-2.7,2.7-2.7H13v-9.3c0-1.5,1.2-2.7,2.7-2.7h22c1.5,0,2.7,1.2,2.7,2.7V24.4z"/>
<path fill="#FDFDFD" d="M22,24.6c-2.3-1.9-2.6-4.4-1-6.2c1.5-1.7,4.1-1.8,5.8-0.2c1.8,1.8,1.5,4.1-0.8,6.4c0.2,2,0.5,4.1,0.7,6.3
	c-1.8,0-3.6,0-5.4,0C21.5,28.8,21.8,26.7,22,24.6z"/>
</svg>
