<?xml version="1.0" encoding="UTF-8" standalone="no"?>
<svg
   xmlns:dc="http://purl.org/dc/elements/1.1/"
   xmlns:cc="http://creativecommons.org/ns#"
   xmlns:rdf="http://www.w3.org/1999/02/22-rdf-syntax-ns#"
   xmlns:svg="http://www.w3.org/2000/svg"
   xmlns="http://www.w3.org/2000/svg"
   xmlns:sodipodi="http://sodipodi.sourceforge.net/DTD/sodipodi-0.dtd"
   xmlns:inkscape="http://www.inkscape.org/namespaces/inkscape"
   width="48"
   height="48"
   viewBox="0 0 48 48"
   version="1.1"
   id="svg936"
   sodipodi:docname="sokoban.svg"
   inkscape:version="0.92.3 (2405546, 2018-03-11)">
  <metadata
     id="metadata942">
    <rdf:RDF>
      <cc:Work
         rdf:about="">
        <dc:format>image/svg+xml</dc:format>
        <dc:type
           rdf:resource="http://purl.org/dc/dcmitype/StillImage" />
        <dc:title></dc:title>
      </cc:Work>
    </rdf:RDF>
  </metadata>
  <defs
     id="defs940" />
  <sodipodi:namedview
     pagecolor="#ffffff"
     bordercolor="#666666"
     borderopacity="1"
     objecttolerance="10"
     gridtolerance="10"
     guidetolerance="10"
     inkscape:pageopacity="0"
     inkscape:pageshadow="2"
     inkscape:window-width="2560"
     inkscape:window-height="1385"
     id="namedview938"
     showgrid="false"
     inkscape:pagecheckerboard="true"
     inkscape:zoom="9.8333333"
     inkscape:cx="47.671538"
     inkscape:cy="20.508489"
     inkscape:window-x="1920"
     inkscape:window-y="27"
     inkscape:window-maximized="1"
     inkscape:current-layer="svg936" />
  <path
     style="fill:#ffffff"
     d="M 10 4 C 8.892 4 8 4.892 8 6 L 8 42 C 8 43.108 8.892 44 10 44 L 38 44 C 39.108 44 40 43.108 40 42 L 40 6 C 40 4.892 39.108 4 38 4 L 10 4 z M 24.210938 7.2988281 C 24.53212 7.333082 24.888697 7.5793273 25.134766 7.9609375 C 25.450904 8.4512131 25.869247 9.0620035 26.064453 9.3183594 C 26.259659 9.5747154 26.892765 10.623014 27.470703 11.648438 C 28.04864 12.673861 28.640263 13.617916 28.785156 13.746094 C 28.930049 13.874271 29.51694 14.818326 30.089844 15.84375 C 30.662748 16.869174 31.249638 17.813228 31.394531 17.941406 C 31.539423 18.069584 32.131047 19.013639 32.708984 20.039062 C 33.286922 21.064487 33.920577 22.112785 34.115234 22.369141 C 34.998711 23.532646 38.354359 29.185162 38.341797 29.488281 C 38.334097 29.674485 36.437701 31.295352 34.126953 33.089844 C 31.816204 34.884335 29.112031 37.006907 28.117188 37.808594 C 24.133778 41.018595 24.38398 40.953043 22.226562 39.357422 C 21.168177 38.574643 19.029835 36.907022 17.474609 35.652344 C 15.919383 34.397665 13.619425 32.61609 12.363281 31.691406 C 11.107137 30.766721 10.078125 29.782341 10.078125 29.505859 C 10.078125 29.00428 11.754425 25.840298 12.253906 25.398438 C 12.398799 25.27026 12.990422 24.326205 13.568359 23.300781 C 14.146297 22.275358 14.783636 21.227059 14.984375 20.970703 C 15.185114 20.714347 17.127263 17.601534 19.300781 14.054688 C 21.474299 10.507843 23.546573 7.4857701 23.90625 7.3378906 C 23.999569 7.2995229 24.103877 7.2874102 24.210938 7.2988281 z "
     id="rect1040" />
</svg>
