<?xml version="1.0" encoding="UTF-8"?>
<svg version="1.1" viewBox="0 0 48 48" xmlns="http://www.w3.org/2000/svg">
    <path d="m28.79 12.629a16 16 0 0 0-17.541 4.5359 22 5.1 20 0 0-7.9207 1.0953 22 5.1 20 0 0 18.929 12.317 22 5.1 20 0 0 22.417 2.7324 22 5.1 20 0 0-5.3789-5.9339 16 16 0 0 0-10.506-14.746zm-9.9665 3.9922a2 2 0 0 1 1.2156 2.5022 22 5.1 20 0 0-0.0018-6.68e-4 2 2 0 0 1-0.01837 0.0619 2 2 0 0 1-2.5634 1.1953 2 2 0 0 1-0.18386-0.07731 2 2 0 0 1-0.34151-0.20952 2 2 0 0 1-0.15281-0.12836 2 2 0 0 1-0.26306-0.29944 2 2 0 0 1-0.10724-0.1679 2 2 0 0 1-0.0018-6.68e-4 2 2 0 0 1-0.08906-0.17791 2 2 0 0 1-0.07403-0.18491 2 2 0 0 1 6.68e-4 -0.0018 2 2 0 0 1-0.10195-0.5879 2 2 0 0 1 6.69e-4 -0.0018 2 2 0 0 1 0.03834-0.43084 2 2 0 0 1 0.0015-0.0098 2 2 0 0 1 0.07885-0.28515 2 2 0 0 1 2.5634-1.1953zm7.5175 2.7362a2 2 0 0 1 1.2525 2.3722 2 2 0 0 1-0.03341 0.11463 2 2 0 0 1-0.02372 0.07659 2 2 0 0 1-2.5634 1.1953 2 2 0 0 1-0.18386-0.07731 2 2 0 0 1-1.0115-2.4861 2 2 0 0 1 0.09735-0.21606 22 5.1 20 0 0-0.0018-6.68e-4 2 2 0 0 1 2.4679-0.97861zm7.5175 2.7362a2 2 0 0 1 1.1953 2.5634 2 2 0 0 1-0.12606 0.27212 2 2 0 0 1-0.10351 0.17017 2 2 0 0 1-0.12236 0.15916 2 2 0 0 1-0.13437 0.14647 2 2 0 0 1-0.15189 0.13178 2 2 0 0 1-0.14437 0.10542 2 2 0 0 1-0.01702 0.01251 2 2 0 0 1-0.01819 0.01001 2 2 0 0 1-0.14253 0.08322 2 2 0 0 1-0.01252 0.0058 2 2 0 0 1-0.01001 0.0047 2 2 0 0 1-0.17323 0.07621 2 2 0 0 1-0.18207 0.06052 2 2 0 0 1-0.0075 0.0035 2 2 0 0 1-0.0087 9.99e-4 2 2 0 0 1-0.17906 0.04083 2 2 0 0 1-0.0068 0.0017 2 2 0 0 1-0.0087 9.99e-4 2 2 0 0 1-0.15252 0.01931 2 2 0 0 1-0.08544 0.0063 2 2 0 0 1-0.10696 0.0026 2 2 0 0 1-0.07592-0.0027 2 2 0 0 1-0.13933-0.01122 2 2 0 0 1-0.06524-0.0092 2 2 0 0 1-0.09962-0.01755 2 2 0 0 1-0.13265-0.02958 2 2 0 0 1-0.0619-0.01837 2 2 0 0 1-0.09494-0.0304 2 2 0 0 1-0.18386-0.07731 2 2 0 0 1-1.0115-2.4861 2 2 0 0 1 2.5634-1.1953z" fill="#fff"/>
    <path d="m33.012 34.693a24.05 5.5752 20 0 1-11.054-3.2919 24.05 5.5752 20 0 1-10.563-4.5679 16 16 0 0 0 2.334 3.7864 16 16 0 0 0 15.035 5.4723 16 16 0 0 0 4.2483-1.3989z" fill="#fff"/>
</svg>
