<?xml version="1.0" encoding="UTF-8"?>
<svg version="1.1" viewBox="0 0 48 48" xmlns="http://www.w3.org/2000/svg">
    <defs>
        <style>.cls-1{fill:#fff;}</style>
    </defs>
    <path d="m10 4c-1.108 0-2 0.892-2 2v36c0 1.108 0.892 2 2 2h28c1.108 0 2-0.892 2-2v-36c0-1.108-0.892-2-2-2h-28zm2.4453 2h0.97461l2.4922 5.4941h-1.0234l-0.60156-1.3496h-2.7148l-0.59961 1.3496h-0.97266l2.4453-5.4941zm0.48633 1.0938-1.0195 2.2871h2.0371l-1.0176-2.2871zm11.18 7.9766c0.6479 0.79805 2.367 3.1468 5.1172 6.1641 5.2743 5.494 0.21813 10.254-4.5352 7.5234 0.044925 1.486 1.2738 2.9039 2.0098 4.1895h-5.0254c0.71459-1.3227 1.875-2.7078 1.8496-4.1895-4.6557 2.8723-10.383-1.5075-4.4941-7.5234 2.9121-3.0969 4.4871-5.3859 5.0781-6.1641zm7.9414 21.436h1.0254l0.59961 1.3496h2.7148l0.60156-1.3496h0.9707l-2.4453 5.4941h-0.97266l-2.4941-5.4941zm1.9648 2.1133 1.0156 2.2871 1.0195-2.2871h-2.0352z" fill="#fff"/>
</svg>
