<?xml version="1.0" encoding="UTF-8"?>
<svg version="1.1" viewBox="0 0 48 48" xmlns="http://www.w3.org/2000/svg">
    <defs>
        <style>.cls-1{fill:#fff;}</style>
    </defs>
    <path class="cls-1" d="m24.34 5.1055c-0.90984 0.00569-2.4611 0.71171-3.1719 0.97461l-9.1172 3.4473-3.9375 1.502c-0.65893 0.26937-1.3646 0.50156-1.6484 1.2227-0.26523 0.66929 0.047934 1.4105 0.26758 2.0508l1.6543 4.3516 4.3711 11.604 2.209 6.0098c0.39992-1.0506 0.12226-2.2265 0-3.3164l-0.16602-3.3145-0.26367-4.9727-0.41602-6.2168-0.26367-5.1797c-0.15748-1.3179-0.47479-2.8516 0.71875-3.8027 0.8765-0.6983 2.0302-0.49996 3.0684-0.63672l8.9102-0.53516c-0.27352-1.0133-0.75641-2.7965-1.8691-3.1426-0.099462-0.031082-0.21573-0.045735-0.3457-0.044922zm8.0176 3.418-6.8379 0.37305-6.6309 0.39844c-1.1625 0.1119-3.6546-0.20991-4.3633 0.89453-0.3792 0.59055-0.22592 1.3779-0.20312 2.041l0.21484 3.9375 0.41406 7.459 0.20703 2.0723v1.8652l0.20703 2.6934 0.41406 6.2168 1.4102-6.4238 2.6094-13.262 1.2793-5.8027c0.24865-0.50767 0.61088-0.92725 1.1289-1.1738 0.87236-0.4165 2.761 0.153 3.7266 0.3457l9.1172 1.8652c-0.29424-1.2101 0.16739-3.1726-1.4551-3.5zm-9.0234 1.6895c-0.39875-0.0029-0.77381 0.04073-1.1074 0.15625-0.32532 0.26316-0.37901 0.23094-0.61523 0.63086-0.38956 0.65064-1.0314 4.3742-1.2324 5.375l-3.1895 15.955-0.86914 4.3516c-0.10982 0.63614-0.24129 1.6488 0.11719 2.2207 0.45587 0.72317 2.0675 0.89318 2.8652 1.0527l7.666 1.5332 6.0098 1.2012c0.72938 0.14505 1.9946 0.38334 2.666 0 0.88272-0.50974 1.0379-2.3613 1.2285-3.3145l1.8242-9.1172 2.1992-10.982c0.23-1.0796 1.0183-3.8048 0.63086-4.7559-0.48902-1.1998-3.2253-1.3888-4.4043-1.625l-10.154-2.0312c-1.0412-0.20825-2.4385-0.64175-3.6348-0.65039zm-5.9863 0.43164c1.9513 0.0033 1.7014 1.6237-0.50195 3.5293l2.0332-0.04883 0.02148 0.54297-3.0859 0.1543 0.0059-0.60156c2.1197-1.7995 3.6562-3.8424-0.15234-2.8223l-0.02539-0.48242c0.68774-0.18799 1.2548-0.27224 1.7051-0.27148zm6.6094 0.75586 0.85352 0.12109 0.9707 4.4395-0.78516-0.15234-0.25195-1.1016-2.0215-0.35547-0.5625 0.78711-0.78516-0.0078zm-13.816 0.39648c0.85508 0.01941 1.1902 0.69792 0.72266 1.6777 2.1405 0.7835 1.178 2.4496-1.5312 2.9258l-0.12109-0.49805c2.7719-0.305 2.829-2.3333 0.19727-1.6914l-0.14648-0.34961c2.1204-0.71648 1.6545-2.368-1.0273-0.91211l-0.13281-0.39844c0.82619-0.53925 1.526-0.76555 2.0391-0.75391zm14.094 0.45117-1.0254 1.5703 1.3301 0.26172zm2.6562 7.2969c1.0659 0.03231 2.1102 0.61575 2.7715 2.0098 1.2433-0.44758 2.0292-1.1645 3.4258-0.7832 1.9623 0.53461 3.5688 4.0259 0.27924 6.6522l-5.9511 5.0041-2.7734-4.9941c-0.73767-1.3427-1.7506-3.062-1.5703-4.6348 0.2085-1.8273 2.0418-3.3078 3.8184-3.2539zm4.5059 16.688 0.73047 0.14648 0.22852 1.0723 2.0312 0.41406 0.68359-0.91992 0.82227 0.13086-2.748 3.8086-0.83789-0.17383zm1.1953 1.9434 0.30859 1.8027 1.0645-1.5566z"/>
</svg>
