<?xml version="1.0" encoding="UTF-8" standalone="no"?>
<svg width="48" height="48" viewBox="0 0 48 48" version="1.1" >
    <defs>
        <style>.cls-1{fill:#fff;}</style>
    </defs>
    <path
        class="cls-1"
        d="m 24.339844,5.1054688 c -0.909837,0.00569 -2.461141,0.7117095 -3.171875,0.9746093 L 12.050781,9.5273438 8.1132812,11.029297 c -0.658933,0.269374 -1.3645575,0.50156 -1.6484374,1.222656 -0.2652309,0.669294 0.047934,1.410497 0.2675781,2.050781 l 1.6542969,4.351563 4.3710932,11.603515 2.208985,6.009766 c 0.399918,-1.050562 0.122255,-2.226473 0,-3.316406 L 14.800781,29.636719 14.537109,24.664062 14.121094,18.447266 13.857422,13.267578 C 13.699941,11.949712 13.382633,10.415945 14.576172,9.4648438 15.452677,8.7665408 16.606401,8.964885 17.644531,8.828125 L 26.554688,8.2929688 C 26.281168,7.2797037 25.798274,5.4964336 24.685547,5.1503906 24.586085,5.1193089 24.46982,5.1046553 24.339844,5.1054688 Z m 8.017578,3.4179687 -6.837891,0.3730469 -6.630859,0.3984375 c -1.162455,0.111895 -3.654617,-0.2099069 -4.363281,0.8945311 -0.379197,0.590554 -0.225918,1.377939 -0.203125,2.041016 l 0.214843,3.9375 0.414063,7.458984 0.207031,2.072266 v 1.865234 l 0.207031,2.693359 0.414063,6.216797 1.410156,-6.423828 2.609375,-13.261719 1.279297,-5.802734 c 0.248654,-0.507669 0.610877,-0.927246 1.128906,-1.173828 0.87236,-0.416495 2.760955,0.152996 3.726563,0.345703 l 9.117187,1.865235 C 34.756541,10.81332 35.218169,8.8508315 33.595703,8.5234375 Z m -9.023438,1.6894535 c -0.398752,-0.0029 -0.773811,0.04073 -1.107422,0.15625 C 21.901239,10.6323 21.847548,10.600082 21.611328,11 c -0.389558,0.650645 -1.031427,4.374168 -1.232422,5.375 l -3.189453,15.955078 -0.869141,4.351563 c -0.109822,0.636141 -0.241288,1.6488 0.117188,2.220703 0.455866,0.723169 2.067471,0.893182 2.865234,1.052734 l 7.666016,1.533203 6.009766,1.201172 c 0.729384,0.145049 1.994649,0.383341 2.666015,0 0.882722,-0.509741 1.037882,-2.361279 1.228516,-3.314453 l 1.824219,-9.117188 2.199218,-10.982421 c 0.230005,-1.079572 1.018346,-3.804758 0.63086,-4.75586 -0.48902,-1.199756 -3.225264,-1.388778 -4.404297,-1.625 L 26.96875,10.863281 c -1.041238,-0.208247 -2.438507,-0.641746 -3.634766,-0.65039 z m -5.986328,0.43164 c 1.951282,0.0033 1.70142,1.623651 -0.501953,3.529297 l 2.033203,-0.04883 0.02148,0.542969 -3.085938,0.154297 0.0059,-0.601563 c 2.119662,-1.799493 3.656153,-3.842385 -0.152343,-2.822265 l -0.02539,-0.482422 c 0.687738,-0.187991 1.254782,-0.272239 1.705078,-0.271485 z m 6.609375,0.75586 0.853516,0.121093 0.970703,4.439454 -0.785156,-0.152344 -0.251953,-1.101563 -2.021485,-0.355469 -0.5625,0.78711 -0.785156,-0.0078 z m -13.816406,0.396484 c 0.85508,0.01941 1.190184,0.697917 0.722656,1.677734 2.140494,0.783497 1.177995,2.449584 -1.5312498,2.925782 L 9.2109375,15.902344 C 11.98279,15.597347 12.03991,13.569017 9.4082031,14.210938 L 9.2617188,13.861328 C 11.382099,13.144853 10.916223,11.493293 8.234375,12.949219 L 8.1015625,12.550781 C 8.927755,12.01153 9.6275772,11.785232 10.140625,11.796875 Z m 14.09375,0.451172 -1.025391,1.570312 1.330078,0.261719 z m 2.65625,7.296875 c 1.065934,0.03231 2.11022,0.615749 2.771484,2.009766 1.243269,-0.447577 2.029175,-1.164475 3.425782,-0.783204 1.962295,0.534606 3.568775,4.025853 0.279239,6.65215 l -5.951114,5.0041 -2.773438,-4.99414 c -0.737674,-1.342732 -1.750587,-3.06203 -1.570312,-4.634766 0.208505,-1.827347 2.041802,-3.307753 3.818359,-3.253906 z m 4.505859,16.6875 0.730469,0.146484 0.228516,1.072266 2.03125,0.414062 0.683593,-0.919922 0.822266,0.13086 -2.748047,3.808594 -0.83789,-0.173828 z m 1.195313,1.943359 0.308594,1.802735 1.064453,-1.556641 z"
     id="path1654" />
</svg>
