<?xml version="1.0" encoding="UTF-8"?>
<svg version="1.1" viewBox="0 0 48 48" xmlns="http://www.w3.org/2000/svg">
    <path d="m10.173 7.5751c-0.54482 0.02706-1.0446 0.37172-1.2435 0.91536-0.26518 0.72486 0.108 1.5207 0.83659 1.7845l19.39 7.0215h-23.826c-0.18306 0-0.33008 0.14702-0.33008 0.33008v22.469c0 0.18306 0.14702 0.33073 0.33008 0.33073h37.339c0.18306 0 0.33073-0.14767 0.33073-0.33073v-22.469c0-0.18306-0.14767-0.33008-0.33073-0.33008h-5.3986l-26.547-9.638c-0.18215-0.06596-0.36918-0.09235-0.55078-0.08333zm-0.91211 12.156h29.478c0.14452 0 0.26107 0.11655 0.26107 0.26107v17.739c0 0.14452-0.11655 0.26107-0.26107 0.26107h-29.478c-0.14452 0-0.26107-0.11655-0.26107-0.26107v-17.739c0-0.14452 0.11655-0.26107 0.26107-0.26107zm3.5703 2.3438c-0.7824 0-1.4167 0.63426-1.4167 1.4167s0.63426 1.4167 1.4167 1.4167 1.4167-0.63426 1.4167-1.4167-0.63426-1.4167-1.4167-1.4167zm5.946 0c-0.7824 0-1.4167 0.63426-1.4167 1.4167s0.63426 1.4167 1.4167 1.4167c0.7824 0 1.4167-0.63426 1.4167-1.4167s-0.63426-1.4167-1.4167-1.4167zm11.871 0.02865c-3.8038-1.9e-5 -6.8874 3.0836-6.8874 6.8874-2e-5 3.8038 3.0836 6.8874 6.8874 6.8874 3.8038 2e-5 6.8874-3.0836 6.8874-6.8874 2e-5 -3.8038-3.0836-6.8874-6.8874-6.8874zm0 2.2819c2.6595 1.24e-4 4.8153 2.0621 4.8151 4.6055-1.85e-4 2.5431-2.1559 4.6047-4.8151 4.6048-2.6592-1.26e-4 -4.8149-2.0617-4.8151-4.6048-1.9e-4 -2.5434 2.1556-4.6053 4.8151-4.6055zm-12.934 3.1595c-0.19621 0-0.35417 0.16841-0.35417 0.37826v7.5762c0 0.20985 0.15796 0.37891 0.35417 0.37891h2.125c0.19621 0 0.35417-0.16906 0.35417-0.37891v-7.5762c0-0.20985-0.15796-0.37826-0.35417-0.37826z" fill="#fff" fill-opacity=".98312"/>
</svg>
