<?xml version="1.0" encoding="UTF-8" standalone="no"?>
<svg
   xmlns:dc="http://purl.org/dc/elements/1.1/"
   xmlns:cc="http://creativecommons.org/ns#"
   xmlns:rdf="http://www.w3.org/1999/02/22-rdf-syntax-ns#"
   xmlns:svg="http://www.w3.org/2000/svg"
   xmlns="http://www.w3.org/2000/svg"
   xmlns:sodipodi="http://sodipodi.sourceforge.net/DTD/sodipodi-0.dtd"
   xmlns:inkscape="http://www.inkscape.org/namespaces/inkscape"
   width="48"
   height="48"
   viewBox="0 0 48 48"
   id="svg2"
   version="1.1"
   inkscape:version="0.91 r13725"
   sodipodi:docname="sonos.svg">
  <metadata
     id="metadata10">
    <rdf:RDF>
      <cc:Work
         rdf:about="">
        <dc:format>image/svg+xml</dc:format>
        <dc:type
           rdf:resource="http://purl.org/dc/dcmitype/StillImage" />
      </cc:Work>
    </rdf:RDF>
  </metadata>
  <defs
     id="defs8" />
  <sodipodi:namedview
     pagecolor="#ffffff"
     bordercolor="#666666"
     borderopacity="1"
     objecttolerance="10"
     gridtolerance="10"
     guidetolerance="10"
     inkscape:pageopacity="0"
     inkscape:pageshadow="2"
     inkscape:window-width="1366"
     inkscape:window-height="715"
     id="namedview6"
     showgrid="false"
     inkscape:zoom="3.4766083"
     inkscape:cx="77.517313"
     inkscape:cy="-21.951295"
     inkscape:window-x="0"
     inkscape:window-y="27"
     inkscape:window-maximized="1"
     inkscape:current-layer="svg2" />
  <path
     style="fill:#ffffff"
     d="M 24 2 A 22 22 0 0 0 2 24 A 22 22 0 0 0 24 46 A 22 22 0 0 0 46 24 A 22 22 0 0 0 24 2 z M 6.6484375 20.044922 C 6.8767407 20.044232 7.0121357 20.066433 7.2539062 20.126953 C 7.699201 20.238408 7.9765612 20.354876 8.3164062 20.572266 C 8.625064 20.769714 9.0197381 21.138416 9.0175781 21.228516 C 9.0166299 21.267499 8.785212 21.452509 8.4804688 21.658203 L 7.9472656 22.017578 L 7.8125 21.9375 C 7.1980735 21.574075 6.7045825 21.445971 6.2382812 21.525391 C 6.0790868 21.552508 5.8769005 21.61144 5.7890625 21.65625 C 5.4170638 21.84603 5.2163794 22.206389 5.3300781 22.478516 C 5.4505068 22.766726 5.7776399 22.96003 6.6816406 23.277344 C 7.5133755 23.569296 7.8193671 23.705079 8.1601562 23.931641 C 8.7265376 24.308169 9.0485312 24.781388 9.1523438 25.390625 C 9.1970877 25.653107 9.1948485 25.743327 9.1328125 26.029297 C 9.093086 26.212395 9.0126661 26.457164 8.9550781 26.574219 C 8.6607364 27.172467 8.0296085 27.658955 7.2949219 27.851562 C 7.1544615 27.888393 6.8571666 27.92711 6.6347656 27.9375 C 5.7313581 27.97976 4.866382 27.660237 4.2148438 27.042969 C 3.9375989 26.780308 3.9335856 26.773633 4.0097656 26.689453 C 4.1262922 26.560702 4.9885505 26 5.0703125 26 C 5.1094501 26 5.2328827 26.058593 5.34375 26.128906 C 5.97287 26.527878 6.8312377 26.581788 7.3261719 26.253906 C 7.7051768 26.002868 7.8021167 25.582972 7.5429688 25.310547 C 7.3852599 25.144753 6.7870306 24.862645 6.1230469 24.638672 C 4.5425772 24.105561 3.8244319 23.380321 3.8261719 22.324219 C 3.8271813 21.715236 4.0489608 21.225258 4.5253906 20.775391 C 5.037205 20.292122 5.5575468 20.088764 6.3808594 20.052734 C 6.4847713 20.048434 6.5723345 20.045151 6.6484375 20.044922 z M 14.677734 20.056641 C 15.043818 20.053361 15.406142 20.081618 15.632812 20.142578 C 17.142204 20.548509 18.219334 21.641636 18.574219 23.126953 C 18.662049 23.494668 18.676529 24.391394 18.599609 24.722656 C 18.51446 25.089336 18.381342 25.492296 18.265625 25.724609 C 17.993949 26.270036 17.456842 26.891355 16.966797 27.228516 C 16.525733 27.531976 15.910682 27.784198 15.414062 27.867188 C 14.089277 28.088561 12.894141 27.726434 11.939453 26.8125 C 10.832884 25.753168 10.442471 24.161988 10.935547 22.722656 C 11.365508 21.46752 12.398956 20.510644 13.701172 20.160156 C 13.943236 20.095006 14.311651 20.060141 14.677734 20.056641 z M 41.523438 20.066406 C 41.634381 20.067746 41.745196 20.074341 41.857422 20.087891 C 42.457711 20.16033 42.907638 20.325199 43.375 20.642578 C 43.737649 20.888847 44.005859 21.142431 44.005859 21.238281 C 44.005859 21.291658 43.840937 21.427172 43.496094 21.658203 C 43.215861 21.845947 42.970479 22 42.949219 22 C 42.927952 22 42.797603 21.932399 42.660156 21.849609 C 41.657886 21.245921 40.30357 21.520033 40.302734 22.328125 C 40.302405 22.700504 40.700786 22.9714 41.792969 23.341797 C 43.138323 23.798051 43.765721 24.264887 44.054688 25.025391 C 44.490962 26.17357 43.688099 27.485631 42.324219 27.853516 C 42.183758 27.891406 41.868857 27.930053 41.623047 27.939453 C 40.951402 27.964955 40.409068 27.827386 39.802734 27.480469 C 39.481094 27.29644 38.984375 26.869564 38.984375 26.777344 C 38.984375 26.725275 39.465409 26.369992 39.865234 26.126953 L 40.087891 25.992188 L 40.205078 26.076172 C 40.734968 26.450043 41.41575 26.592867 41.962891 26.447266 C 42.538492 26.294091 42.882405 25.787409 42.650391 25.435547 C 42.478747 25.175243 42.121709 24.984856 41.240234 24.683594 C 39.462668 24.076079 38.808404 23.396952 38.865234 22.216797 C 38.883032 21.847215 38.90162 21.767179 39.046875 21.464844 C 39.462874 20.598964 40.450966 20.053586 41.523438 20.066406 z M 33.115234 20.107422 C 33.177952 20.107131 33.245986 20.107136 33.322266 20.107422 C 33.959752 20.109803 34.0589 20.120485 34.398438 20.224609 C 35.937561 20.696601 36.989807 21.910406 37.226562 23.488281 C 37.453908 25.003434 36.697882 26.571467 35.339844 27.400391 C 35.001203 27.607094 34.538308 27.780857 34.085938 27.873047 C 32.909993 28.112691 31.712301 27.813598 30.765625 27.041016 C 30.128823 26.521325 29.657511 25.759625 29.449219 24.917969 C 29.333469 24.450295 29.323099 23.674614 29.425781 23.197266 C 29.735023 21.759595 30.818403 20.622307 32.279297 20.203125 C 32.538164 20.128855 32.676231 20.109622 33.115234 20.107422 z M 20.931641 20.199219 C 20.953825 20.177034 21.850121 20.979078 23.091797 22.130859 C 24.259151 23.213697 25.306253 24.184454 25.419922 24.289062 C 25.581665 24.437924 25.634743 24.466172 25.664062 24.419922 C 25.684632 24.387414 25.702821 23.459105 25.703125 22.355469 C 25.703645 20.787107 25.714279 20.345844 25.755859 20.333984 C 25.785123 20.325614 26.098063 20.328154 26.449219 20.339844 L 27.087891 20.361328 L 27.097656 24.039062 C 27.104236 26.271711 27.092429 27.735686 27.068359 27.759766 C 27.043848 27.78428 26.942762 27.718405 26.802734 27.587891 C 24.922615 25.835501 22.411389 23.53125 22.380859 23.53125 C 22.357219 23.53125 22.340229 24.32804 22.339844 25.521484 C 22.339494 26.615923 22.323647 27.536526 22.304688 27.566406 C 22.278558 27.607676 22.107509 27.616322 21.59375 27.607422 L 20.916016 27.595703 L 20.904297 23.917969 C 20.898067 21.805775 20.909861 20.220999 20.931641 20.199219 z M 33.300781 21.488281 C 32.957947 21.488281 32.44757 21.621988 32.117188 21.796875 C 31.555946 22.093966 31.04282 22.753342 30.878906 23.388672 C 30.794616 23.715223 30.79291 24.329802 30.875 24.638672 C 31.140371 25.637183 32.010591 26.403113 33.003906 26.511719 C 34.354184 26.65936 35.535465 25.76771 35.775391 24.419922 C 35.95764 23.39613 35.414596 22.292385 34.484375 21.796875 C 34.156564 21.622261 33.644216 21.488281 33.300781 21.488281 z M 14.662109 21.492188 C 14.476409 21.490278 14.300691 21.50289 14.171875 21.53125 C 13.828764 21.606828 13.376006 21.828443 13.097656 22.056641 C 12.807827 22.294264 12.47009 22.782845 12.339844 23.154297 C 12.209394 23.526292 12.178274 24.173531 12.271484 24.570312 C 12.484426 25.476859 13.267606 26.250626 14.167969 26.443359 C 14.513479 26.517309 14.821867 26.523974 15.113281 26.464844 C 16.136709 26.257189 16.939161 25.488233 17.142578 24.519531 C 17.265302 23.93507 17.146991 23.199151 16.847656 22.699219 C 16.55917 22.217402 16.053602 21.80814 15.505859 21.609375 C 15.309008 21.537939 14.971611 21.495287 14.662109 21.492188 z "
     id="circle4" />
</svg>
