<?xml version="1.0" encoding="utf-8"?>
<!-- Generator: Adobe Illustrator 21.1.0, SVG Export Plug-In . SVG Version: 6.00 Build 0)  -->
<svg version="1.0" id="Layer_1" xmlns="http://www.w3.org/2000/svg" xmlns:xlink="http://www.w3.org/1999/xlink" x="0px" y="0px"
	 viewBox="0 0 48 48" style="enable-background:new 0 0 48 48;" xml:space="preserve">
<style type="text/css">
	.st0{fill:#FFFFFF;}
</style>
<path class="st0" d="M17.4,25.9c-0.2-0.2-0.3-0.3-0.5-0.5c0.2-0.2,0.3-0.3,0.3-0.5c0.2,0,0.5,0.2,0.6,0.2c0.5-0.8,0.5-1.5,0-2.3
	c-0.2,0-0.5,0-0.6,0c-0.2-0.2-0.2-0.3-0.3-0.5c0.2-0.2,0.3-0.3,0.5-0.5c-0.5-0.8-1.5-1.2-1.8-1.1c0,0.2-0.2,0.3-0.2,0.6
	c-0.3,0-0.5,0-0.6,0c-0.2-0.2-0.2-0.5-0.3-0.6c-0.8,0.2-1.4,0.5-2,1.1c0.2,0.2,0.3,0.3,0.5,0.6c-0.2,0.2-0.3,0.3-0.3,0.5
	c-0.3,0-0.5,0-0.6-0.2c-0.5,0.8-0.3,1.5,0,2.1c0.2,0,0.3,0,0.6,0c0.2,0.2,0.2,0.5,0.3,0.6c-0.2,0.2-0.3,0.3-0.5,0.5
	c0.6,0.6,1.1,1.1,2,1.1c0-0.2,0.2-0.3,0.2-0.6c0.3,0,0.5,0,0.6,0c0,0.2,0.2,0.3,0.2,0.6C16.3,27,16.9,26.7,17.4,25.9z"/>
<path class="st0" d="M35.4,25.9c-0.2-0.2-0.3-0.3-0.5-0.5c0.2-0.2,0.3-0.3,0.3-0.5c0.2,0,0.5,0.2,0.6,0.2c0.5-0.8,0.5-1.5,0-2.3
	c-0.2,0-0.5,0-0.6,0c-0.2-0.2-0.2-0.3-0.3-0.5c0.2-0.2,0.3-0.3,0.5-0.5c-0.5-0.8-1.5-1.2-1.8-1.1c0,0.2-0.2,0.3-0.2,0.6
	c-0.3,0-0.5,0-0.6,0c-0.2-0.2-0.2-0.5-0.3-0.6c-0.8,0.2-1.4,0.5-2,1.1c0.2,0.2,0.3,0.3,0.5,0.6c-0.2,0.2-0.3,0.3-0.3,0.5
	c-0.3,0-0.5,0-0.6-0.2c-0.5,0.8-0.3,1.5,0,2.1c0.2,0,0.3,0,0.6,0c0.2,0.2,0.2,0.5,0.3,0.6c-0.2,0.2-0.3,0.3-0.5,0.5
	c0.6,0.6,1.1,1.1,2,1.1c0-0.2,0.2-0.3,0.2-0.6c0.3,0,0.5,0,0.6,0c0,0.2,0.2,0.3,0.2,0.6C34.3,27,34.9,26.7,35.4,25.9z"/>
<path class="st0" d="M42,8H6c-1.1,0-2,0.9-2,2v28c0,1.1,0.9,2,2,2h36c1.1,0,2-0.9,2-2V10C44,8.9,43.1,8,42,8z M14.9,28.5
	c-2.5,0-4.5-2.2-4.4-4.4c-0.1-2.5,1.9-4.6,4.4-4.6s4.6,1.9,4.6,4.5S17.4,28.5,14.9,28.5z M32.9,28.5c-2.5,0-4.5-2.2-4.4-4.4
	c-0.1-2.5,1.9-4.6,4.4-4.6s4.6,1.9,4.6,4.5S35.4,28.5,32.9,28.5z"/>
</svg>
