<?xml version="1.0" encoding="UTF-8"?>
<svg version="1.1" viewBox="0 0 48 48" xmlns="http://www.w3.org/2000/svg">
    <path d="m24 2a22 22 0 0 0-22 22 22 22 0 0 0 22 22 22 22 0 0 0 22-22 22 22 0 0 0-22-22zm0 3.2677a18.732 18.732 0 0 1 18.732 18.732 18.732 18.732 0 0 1-18.732 18.732 18.732 18.732 0 0 1-18.732-18.732 18.732 18.732 0 0 1 18.732-18.732zm0 1.6633a17.069 17.069 0 0 0-17.069 17.069 17.069 17.069 0 0 0 17.069 17.069 17.069 17.069 0 0 0 17.069-17.069 17.069 17.069 0 0 0-17.069-17.069zm0 1.8966a15.172 15.172 0 0 1 15.172 15.172 15.172 15.172 0 0 1-15.172 15.172 15.172 15.172 0 0 1-15.172-15.172 15.172 15.172 0 0 1 15.172-15.172zm1.1954 5.5098a8.0497 8.0497 0 0 0-1.9659 0.27351 8.0497 8.0497 0 0 0-5.692 5.692 8.0497 8.0497 0 0 0 2.0832 7.7756l-2.8386 2.8386a8.0497 8.0497 0 0 0 7.7756 2.0832 8.0497 8.0497 0 0 0 5.692-5.692 8.0497 8.0497 0 0 0-2.0835-7.7753l2.8386-2.8386a8.0497 8.0497 0 0 0-5.8094-2.357z" fill="#fff" fill-opacity=".98312"/>
</svg>
