<?xml version="1.0" encoding="UTF-8" standalone="no"?>
<svg
   xmlns:dc="http://purl.org/dc/elements/1.1/"
   xmlns:cc="http://creativecommons.org/ns#"
   xmlns:rdf="http://www.w3.org/1999/02/22-rdf-syntax-ns#"
   xmlns:svg="http://www.w3.org/2000/svg"
   xmlns="http://www.w3.org/2000/svg"
   xmlns:sodipodi="http://sodipodi.sourceforge.net/DTD/sodipodi-0.dtd"
   xmlns:inkscape="http://www.inkscape.org/namespaces/inkscape"
   version="1.1"
   width="48"
   height="48"
   id="svg1203"
   viewBox="0 0 48 48"
   sodipodi:docname="sovcombank.svg"
   inkscape:version="0.92.4 5da689c313, 2019-01-14">
  <metadata
     id="metadata1209">
    <rdf:RDF>
      <cc:Work
         rdf:about="">
        <dc:format>image/svg+xml</dc:format>
        <dc:type
           rdf:resource="http://purl.org/dc/dcmitype/StillImage" />
        <dc:title></dc:title>
      </cc:Work>
    </rdf:RDF>
  </metadata>
  <defs
     id="defs1207" />
  <sodipodi:namedview
     pagecolor="#ffffff"
     bordercolor="#666666"
     borderopacity="1"
     objecttolerance="10"
     gridtolerance="10"
     guidetolerance="10"
     inkscape:pageopacity="0"
     inkscape:pageshadow="2"
     inkscape:window-width="2520"
     inkscape:window-height="1397"
     id="namedview1205"
     showgrid="false"
     inkscape:pagecheckerboard="true"
     inkscape:zoom="8.9707534"
     inkscape:cx="16.845147"
     inkscape:cy="-7.6569482"
     inkscape:window-x="20"
     inkscape:window-y="23"
     inkscape:window-maximized="0"
     inkscape:current-layer="svg1203" />
  <g
     id="Layer1001"
     transform="matrix(0.845,0,0,0.845,-161.64132,-478.93899)"
     style="fill:#ffffff;fill-opacity:1">
    <path
       inkscape:connector-curvature="0"
       id="path1176"
       style="fill:#ffffff;fill-opacity:1;fill-rule:evenodd"
       d="m 225.3067,567.362 v 14.7353 h -5.6659 c -7.2031,0 -13.045,5.838 -13.045,13.0391 0,7.2045 5.8419,13.0391 13.045,13.0391 h 5.6659 v 14.7387 c 12.9433,-2.622 22.6777,-14.0609 22.6777,-27.7778 0,-13.7143 -9.7344,-25.1498 -22.6777,-27.7744 z" />
    <path
       inkscape:connector-curvature="0"
       id="path1178"
       style="fill:#ffffff;fill-opacity:1;fill-rule:evenodd"
       d="m 219.6397,612.7115 c -9.7081,0 -17.5743,-7.8681 -17.5743,-17.5751 0,-9.707 7.8662,-17.5722 17.5743,-17.5722 h 1.1358 V 566.818 c -0.379,-0.0116 -0.756,-0.0263 -1.1358,-0.0263 -15.6543,0 -28.3482,12.6909 -28.3482,28.3447 0,15.6563 12.6939,28.3482 28.3482,28.3482 0.3798,0 0.7568,-0.007 1.1358,-0.0258 v -10.7473 z" />
  </g>
</svg>
