<?xml version="1.0" encoding="UTF-8" standalone="no"?>
<svg
   xmlns:dc="http://purl.org/dc/elements/1.1/"
   xmlns:cc="http://creativecommons.org/ns#"
   xmlns:rdf="http://www.w3.org/1999/02/22-rdf-syntax-ns#"
   xmlns:svg="http://www.w3.org/2000/svg"
   xmlns="http://www.w3.org/2000/svg"
   xmlns:sodipodi="http://sodipodi.sourceforge.net/DTD/sodipodi-0.dtd"
   xmlns:inkscape="http://www.inkscape.org/namespaces/inkscape"
   width="48"
   height="48"
   viewBox="0 0 48 48"
   version="1.1"
   id="svg7725"
   sodipodi:docname="spacelaunchnow.svg"
   inkscape:version="0.92.4 (5da689c313, 2019-01-14)">
  <metadata
     id="metadata7731">
    <rdf:RDF>
      <cc:Work
         rdf:about="">
        <dc:format>image/svg+xml</dc:format>
        <dc:type
           rdf:resource="http://purl.org/dc/dcmitype/StillImage" />
        <dc:title></dc:title>
      </cc:Work>
    </rdf:RDF>
  </metadata>
  <defs
     id="defs7729" />
  <sodipodi:namedview
     pagecolor="#ffffff"
     bordercolor="#666666"
     borderopacity="1"
     objecttolerance="10"
     gridtolerance="10"
     guidetolerance="10"
     inkscape:pageopacity="0"
     inkscape:pageshadow="2"
     inkscape:window-width="1024"
     inkscape:window-height="575"
     id="namedview7727"
     showgrid="false"
     inkscape:pagecheckerboard="true"
     inkscape:zoom="8.4976757"
     inkscape:cx="19.460718"
     inkscape:cy="14.953173"
     inkscape:window-x="0"
     inkscape:window-y="1"
     inkscape:window-maximized="1"
     inkscape:current-layer="svg7725" />
  <path
     style="display:inline;fill:#ffffff;fill-opacity:1;stroke:none;stroke-width:0.15565553"
     d="m 37.404297,8.1894531 c -0.426498,0.025489 -0.857488,0.1041048 -1.183594,0.15625 -1.916126,0.3268757 -4.035112,0.9659126 -5.759765,1.8593749 l 2.943359,2.867188 4.216797,4.449218 c 0.993094,-1.254587 1.881765,-4.898453 2.023437,-6.539062 0.102728,-1.1767648 0.181848,-2.0016446 -1.089843,-2.6367189 -0.302743,-0.1540994 -0.723894,-0.1817385 -1.150391,-0.15625 z m -8.220703,2.7460939 c -0.908182,0.158499 -2.485478,1.359349 -3.082032,1.759765 -2.266358,1.520761 -4.650932,3.691097 -6.423828,5.759766 -0.708248,0.82654 -1.74603,1.957727 -2.136718,2.957031 -1.256148,-0.457629 -2.442844,-0.360487 -3.736328,-0.142578 -3.410432,0.574389 -7.2502913,2.868429 -8.2480474,6.369141 l 4.046875,-0.728516 c 1.4880654,-0.110503 3.0847454,0.509052 4.5136724,0.728516 l -0.466797,1.24414 2.333984,1.402344 c 1.855434,-2.451559 5.308099,-5.355505 8.25,-6.382812 -1.067784,2.420441 -1.527058,3.23676 -3.289063,5.292968 l -1.691406,1.861329 c -0.222619,0.214792 -0.852049,0.741101 -0.976562,0.966797 l 1.164062,2.253906 c 0,0 0.878257,-0.12706 1.212891,-0.257813 0.241275,1.561239 0.771521,2.332145 0.779297,4.203125 0.0076,1.606332 -0.282735,2.841727 -0.779297,4.359375 1.212576,-0.347134 2.222952,-1.153722 3.113281,-2.02539 1.877212,-1.841416 3.238412,-4.48558 3.269531,-7.158203 0.01102,-0.975975 0.07386,-2.009492 -0.15625,-2.958985 1.010188,-0.532364 1.943127,-1.399371 2.800782,-2.154297 2.085804,-1.836743 3.944998,-3.941609 5.5,-6.25 0.417154,-0.617938 1.913095,-2.76891 1.863281,-3.425781 -0.0327,-0.424923 -0.472107,-0.925014 -0.738281,-1.244141 L 33.884766,14.71875 31.083984,12.080078 c -0.348673,-0.309732 -1.128576,-1.034024 -1.55664,-1.144531 -0.09767,-0.02529 -0.21401,-0.02264 -0.34375,0 z m -0.222656,5.005859 c 1.72589,0 3.125,1.39911 3.125,3.125 0,1.72589 -1.39911,3.125 -3.125,3.125 -1.72589,0 -3.125,-1.39911 -3.125,-3.125 0,-1.72589 1.39911,-3.125 3.125,-3.125 z m 0,0.625 c -1.380712,0 -2.5,1.119288 -2.5,2.5 0,1.380712 1.119288,2.5 2.5,2.5 1.380712,0 2.5,-1.119288 2.5,-2.5 0,-1.380712 -1.119288,-2.5 -2.5,-2.5 z m -15.09961,14.529297 c -0.955705,0.09602 -2.01692,1.153546 -2.460937,1.835938 -1.254607,1.928564 -1.139821,3.250346 -1.6425785,5.291015 1.9192545,-0.0886 4.6261775,-0.727701 6.0644535,-2.050781 0.863883,-0.795405 1.531334,-1.790292 0.941406,-2.929687 -1.234316,0.772047 -2.424745,1.757274 -3.892578,2.023437 l 0.757812,-1.712891 0.929688,-1.55664 c 0.192988,-0.40473 0.23079,-0.759064 -0.296875,-0.878906 -0.130167,-0.02938 -0.263862,-0.0352 -0.400391,-0.02148 z"
     id="spacelaunchnow"
     inkscape:connector-curvature="0"
     sodipodi:nodetypes="sccccccscccccccccccccccccccccccccccccsssssssssscccccccccc" />
</svg>
