<?xml version="1.0" encoding="UTF-8" standalone="no"?>
<svg
   xmlns:dc="http://purl.org/dc/elements/1.1/"
   xmlns:cc="http://creativecommons.org/ns#"
   xmlns:rdf="http://www.w3.org/1999/02/22-rdf-syntax-ns#"
   xmlns:svg="http://www.w3.org/2000/svg"
   xmlns="http://www.w3.org/2000/svg"
   xmlns:sodipodi="http://sodipodi.sourceforge.net/DTD/sodipodi-0.dtd"
   xmlns:inkscape="http://www.inkscape.org/namespaces/inkscape"
   width="48"
   height="48"
   viewBox="0 0 48 48"
   id="svg2"
   version="1.1"
   inkscape:version="0.91 r13725"
   sodipodi:docname="sparkasse.svg">
  <metadata
     id="metadata10">
    <rdf:RDF>
      <cc:Work
         rdf:about="">
        <dc:format>image/svg+xml</dc:format>
        <dc:type
           rdf:resource="http://purl.org/dc/dcmitype/StillImage" />
      </cc:Work>
    </rdf:RDF>
  </metadata>
  <defs
     id="defs8" />
  <sodipodi:namedview
     pagecolor="#ffffff"
     bordercolor="#666666"
     borderopacity="1"
     objecttolerance="10"
     gridtolerance="10"
     guidetolerance="10"
     inkscape:pageopacity="0"
     inkscape:pageshadow="2"
     inkscape:window-width="1366"
     inkscape:window-height="715"
     id="namedview6"
     showgrid="false"
     inkscape:zoom="4.9166667"
     inkscape:cx="76.787511"
     inkscape:cy="14.354076"
     inkscape:window-x="0"
     inkscape:window-y="27"
     inkscape:window-maximized="1"
     inkscape:current-layer="svg2" />
  <path
     style="fill:#ffffff"
     d="M 24 2 A 22 22 0 0 0 2 24 A 22 22 0 0 0 24 46 A 22 22 0 0 0 46 24 A 22 22 0 0 0 24 2 z M 24.025391 4.2597656 L 24.027344 4.2597656 C 24.396482 4.2640735 24.767168 4.2990941 24.996094 4.3652344 C 26.372774 4.7630064 27.435373 5.8952193 27.720703 7.2695312 C 27.794503 7.6249152 27.807409 7.8083664 27.787109 8.2246094 C 27.756089 8.8570314 27.680231 9.1472533 27.400391 9.7226562 C 26.941471 10.666244 26.180889 11.329075 25.162109 11.673828 C 24.775699 11.804596 24.679644 11.819854 24.089844 11.833984 C 23.516514 11.847707 23.393386 11.837177 23.035156 11.742188 C 21.697286 11.387399 20.667877 10.365084 20.279297 9.0058594 C 20.135377 8.4992904 20.133584 7.5942339 20.277344 7.0917969 C 20.477394 6.3926449 20.864712 5.7648949 21.414062 5.2480469 C 21.897803 4.7929209 22.369406 4.535084 23.066406 4.34375 C 23.28868 4.2827214 23.656271 4.2556901 24.025391 4.2597656 z M 23.990234 14.175781 C 31.218634 14.175071 32.139956 14.182944 32.447266 14.246094 C 33.912906 14.547313 35.084176 15.73959 35.384766 17.238281 C 35.439966 17.514175 35.455312 17.812887 35.445312 18.537109 L 35.431641 19.476562 L 26.662109 19.498047 L 17.892578 19.521484 L 17.892578 20.640625 L 17.892578 21.757812 L 26.662109 21.78125 L 35.431641 21.802734 L 35.431641 26.322266 L 35.431641 30.839844 L 35.330078 31.189453 C 34.949528 32.50236 33.997737 33.464646 32.679688 33.869141 L 32.34375 33.972656 L 24.113281 33.978516 C 19.585501 33.981596 15.829078 33.975374 15.767578 33.964844 C 14.562156 33.758436 13.527279 33.005749 12.972656 31.933594 C 12.613441 31.239188 12.570635 31.004678 12.570312 29.767578 L 12.568359 28.693359 L 21.316406 28.669922 L 30.0625 28.648438 L 30.0625 27.529297 L 30.0625 26.412109 L 21.316406 26.388672 L 12.568359 26.367188 L 12.556641 21.982422 C 12.545891 18.114054 12.552214 17.554068 12.615234 17.238281 C 12.914533 15.738394 14.08695 14.556488 15.587891 14.238281 C 15.8302 14.186861 17.257404 14.176429 23.990234 14.175781 z "
     id="circle4" />
</svg>
