<svg width="48" height="48" viewBox="0 0 115 115">
  <path
     d="M 45.80296,62.48808 56.0897,73.39864 84.78427,39.03995 78.64833,32.14907 Z"
     style="display:inline;fill:#ffffff;fill-opacity:1;stroke:#ffffff;stroke-width:0.3717213px;stroke-linecap:butt;stroke-linejoin:miter;stroke-opacity:1" />
  <path
     d="M 57.50103,0.14939 A 57.499865,61.061049 0 0 0 0.00118,61.21024 57.499865,61.061049 0 0 0 16.86941,104.36199 l 8.20006,-8.69734 A 45.78675,48.66227 0 0 1 11.68374,61.32167 45.78675,48.66227 0 0 1 57.47071,12.65929 45.78675,48.66227 0 0 1 103.25768,61.32167 45.78675,48.66227 0 0 1 89.86842,95.66241 l 8.23179,8.73099 A 57.499865,61.061049 0 0 0 115.00086,61.21024 57.499865,61.061049 0 0 0 57.50103,0.14939 Z"
     style="display:inline;fill:#ffffff;fill-opacity:1;stroke-width:0.41003767" />
</svg>
