<?xml version="1.0" encoding="UTF-8"?>
<svg width="48" height="48" viewBox="0 0 48 48">
    <path d="m 24.293592,5.2184092 c 5.73392,0.078213 11.21113,2.3902312 15.266767,6.4443368 8.586188,8.59688 8.586188,22.523839 0,31.120718 l -4.110284,-4.110283 c 3.02437,-3.041347 4.714478,-7.160983 4.697467,-11.450076 0,-8.918041 -7.229501,-16.147542 -16.147542,-16.147542 -8.918041,0 -16.1475424,7.229501 -16.1475424,16.147542 0.00631,4.280157 1.7117921,8.38269 4.7415054,11.406037 l -4.1543221,4.154322 c -8.58618778,-8.596879 -8.58618778,-22.523838 0,-31.120718 C 12.63921,7.4648597 18.356199,5.1410097 24.293592,5.2184092 Z M 32.80775,18.430035 26.935917,30.173702 h -5.871834 v -5.871834 z" fill="#fff"/>
</svg>
