<svg xmlns:rdf="http://www.w3.org/1999/02/22-rdf-syntax-ns#" xmlns="http://www.w3.org/2000/svg" height="48" width="48" version="1.1" xmlns:cc="http://creativecommons.org/ns#" viewBox="0 0 48 48" xmlns:dc="http://purl.org/dc/elements/1.1/">
<path fill="#fff" d="m7 5c-1.11 0-2 0.89-2 2v34c0 1.11 0.892 2 2 2h34c1.11 0 2-0.892 2-2v-34c0-1.11-0.9-2-2-2h-34zm17.2 6a15 15 0 0 1 10.4 4.39 15 15 0 0 1 0 21.2l-2.8-2.8a11 11 0 0 0 3.2 -7.8 11 11 0 0 0 -11 -11 11 11 0 0 0 -11 11 11 11 0 0 0 3.23 7.77l-2.83 2.83a15 15 0 0 1 0 -21.2 15 15 0 0 1 10.8 -4.39zm5.8 9l-4 8h-4v-4l8-4z"/>
</svg>
