<?xml version="1.0" encoding="UTF-8"?>
<svg viewBox="0 0 48 48" xmlns="http://www.w3.org/2000/svg">
  <path d="m 20.847049,11.579663 h 0.0017 c 0.307755,0.0036 0.616789,0.03279 0.80766,0.08793 1.147769,0.331624 2.033673,1.275581 2.271497,2.421311 0.06153,0.296284 0.07229,0.449232 0.05536,0.796226 -0.02586,0.527248 -0.0891,0.769218 -0.322409,1.248882 -0.3826,0.786647 -1.016682,1.33924 -1.86606,1.626692 -0.322149,0.109023 -0.402229,0.121749 -0.894001,0.133528 -0.477989,0.01144 -0.58064,0.0027 -0.879291,-0.07653 -1.115384,-0.29579 -1.9736,-1.148078 -2.297578,-2.281262 -0.119987,-0.422329 -0.121477,-1.17688 -0.0017,-1.59579 0.166785,-0.582884 0.489695,-1.106237 0.947647,-1.537199 0.403298,-0.379442 0.796473,-0.594398 1.377496,-0.75389 0.185308,-0.05088 0.491766,-0.07342 0.799502,-0.07002 z" fill="#fff" stroke-width="1.3"/>
  <path d="m 20.678639,21.489109 c 7.659863,-0.0007534 8.635777,0.0076 8.961789,0.0745 1.553073,0.319201 2.794275,1.582611 3.112824,3.170799 0.05849,0.292358 0.07476,0.608904 0.06416,1.37632 l -0.01449,0.995553 -9.2933,0.02277 -9.2933,0.02484 v 2.369752 l 9.2933,0.02484 9.2933,0.02276 v 9.576106 l -0.107623,0.370475 c -0.403265,1.391245 -1.411828,2.410994 -2.808572,2.839602 l -0.355989,0.109697 -8.721405,0.0063 c -4.79803,0.0033 -8.778752,-0.0033 -8.843954,-0.01449 C 10.68805,42.2402 9.5913936,41.442555 9.0037082,40.306463 8.6230442,39.570603 8.5776933,39.322064 8.5773555,38.011183 l -0.00212,-1.138292 9.2705185,-0.02484 9.268162,-0.02277 v -2.36983 l -9.268162,-0.02484 -9.2705185,-0.02277 -0.01242,-4.646493 c -0.011391,-4.099265 -0.00463,-4.692685 0.062084,-5.027259 0.3171663,-1.589445 1.5595145,-2.84188 3.1501375,-3.179047 0.256772,-0.05449 1.769184,-0.06554 8.903658,-0.06623 z" fill="#fff" stroke-width="1.3"/>
  <text
    style="font-style:normal;font-weight:normal;font-size:8.0px;line-height:1.25;font-family:sans-serif;fill:#fff;fill-opacity:1;stroke:none;stroke-width:0.2;"
    x="27.0"
    y="12.0">
    <tspan
      x="27.0"
      y="12.0"
      style="fill:#fff;stroke-width:0.2;">
      TAN
    </tspan>
  </text>
</svg>
