<?xml version="1.0" encoding="UTF-8"?>
<svg version="1.1" viewBox="0 0 48 48" xmlns="http://www.w3.org/2000/svg">
    <path d="m23.998 2c-11.875 0-21.546 9.4089-21.979 21.178 0.91125 0.186 2.032 0.49551 3.4238 0.96484l8.9121 2.9863c0.65468-0.42403 1.4011-0.72696 2.2266-0.83203l4.2266-7.4844c-0.49914-3.9214 2.2759-7.5048 6.1973-8.0039 3.9214-0.49914 7.5048 2.2739 8.0039 6.1953 0.49914 3.9214-2.2759 7.5048-6.1973 8.0039l-6.2266 5.9375c0.37436 2.941-1.7074 5.6276-4.6484 6.002-2.3746 0.30226-4.5595-1.0091-5.5195-3.0684l-9.3613-3.1348c2.8479 8.8505 11.144 15.256 20.941 15.256 3.8107 0 7.3962-0.97092 10.521-2.6758 0.59838 0.22914 1.2349 0.44849 1.959 0.64258l7.3691 1.9727c1.2723 0.34005 2.4358-0.82342 2.0957-2.0957l-1.9746-7.3691c-0.18895-0.69601-0.43436-1.2961-0.70898-1.8418 1.7438-3.152 2.7383-6.7755 2.7383-10.633 0-12.15-9.8497-22-22-22zm3.7891 10.84c-0.17126 0.00435-0.34397 0.016965-0.51758 0.039062-2.7777 0.35356-4.7442 2.8923-4.3906 5.6699 0.35356 2.7777 2.8923 4.7422 5.6699 4.3887 2.7777-0.35356 4.7422-2.8923 4.3887-5.6699-0.33146-2.6041-2.5815-4.493-5.1504-4.4277zm0.39453 1.5c1.6599 0.12512 3.059 1.4016 3.2773 3.1172 0.24957 1.9607-1.137 3.7524-3.0977 4.002-1.9607 0.24957-3.7524-1.1389-4.002-3.0996-0.24957-1.9607 1.137-3.7524 3.0977-4.002 0.24509-0.031197 0.48748-0.035453 0.72461-0.017578zm-10.604 13.135c-0.27556-0.020782-0.55894-0.012801-0.84375 0.023438-0.26185 0.033351-0.51152 0.093675-0.75391 0.17188l1.6406 0.55078c1.9948 0.6681 2.9875 2.6524 2.2246 4.4473-0.76287 1.7948-2.9817 2.7013-4.9766 2.0332l-0.58594-0.19727c0.88035 0.90841 2.1505 1.4161 3.502 1.2441 2.2785-0.29014 3.8915-2.3719 3.6016-4.6504-0.25387-1.9937-1.8797-3.4776-3.8086-3.623z" fill="#fff"/>
</svg>
