<svg version="1.1" viewBox="0 0 48 48" xmlns="http://www.w3.org/2000/svg">
 <path d="m23.977 1.9995c-11.672 0-21.222 9.0706-21.977 20.539 0.010205 0.01512 0.017386 0.03024 0.027213 0.04876 1.436e-4 -0.0025 0.00195-0.05065 0.00195-0.05065l11.828 4.8692c0.32179-0.21165 0.66524-0.39564 1.0313-0.54493 0.8303-0.34205 1.7055-0.49478 2.5781-0.45509l5.3867-7.8242c-0.0019-0.03402-2e-3 -0.07143-2e-3 -0.10923 0-4.6182 3.7507-8.375 8.3614-8.375 4.6126 0 8.3614 3.7568 8.3614 8.375 0 4.6179-3.7488 8.3789-8.3614 8.3789-0.06236 0-0.12514-2e-3 -0.1875-0.0038l-7.709 5.5078c0.02268 0.85036-0.13436 1.7031-0.4707 2.5156-1.2925 3.1084-4.8753 4.5872-7.9824 3.2891-1.8991-0.79178-3.1856-2.438-3.6055-4.3145l-8.3574-3.4473c2.7435 9.0297 11.141 15.602 21.076 15.602 12.163 0 22.024-9.85 22.024-22s-9.8604-22-22.024-22zm7.2364 10.893c-3.0706 0-5.5703 2.5047-5.5703 5.5801 0 3.0778 2.4997 5.582 5.5703 5.582 3.0725 0 5.5723-2.5042 5.5723-5.582 0-3.0754-2.4998-5.5801-5.5723-5.5801zm0.0098 1.3789c2.311 0 4.1856 1.878 4.1856 4.1934 0 2.3155-1.8746 4.1914-4.1856 4.1914-2.3091 0-4.1836-1.8759-4.1836-4.1914 0-2.3154 1.8745-4.1934 4.1836-4.1934zm-13.961 13.529c-0.58845-0.0038-1.1681 0.1028-1.7109 0.30879l2.8145 1.166c1.7683 0.73694 2.6049 2.7705 1.8672 4.541-0.73544 1.7687-2.7659 2.6061-4.5352 1.8691l-2.7207-1.1269c0.48204 1.0072 1.3171 1.8514 2.4238 2.3125 2.3991 0.99961 5.1579-0.13946 6.1582-2.541 0.48374-1.1602 0.48589-2.4454 0.0079-3.6094-0.47807-1.164-1.3803-2.0749-2.543-2.5586-0.57662-0.24-1.1733-0.35641-1.7617-0.36132z" fill="#fff" stroke-width=".18894"/>
</svg>
