<?xml version="1.0" encoding="UTF-8" standalone="no"?>
<svg
   xmlns:dc="http://purl.org/dc/elements/1.1/"
   xmlns:cc="http://creativecommons.org/ns#"
   xmlns:rdf="http://www.w3.org/1999/02/22-rdf-syntax-ns#"
   xmlns:svg="http://www.w3.org/2000/svg"
   xmlns="http://www.w3.org/2000/svg"
   xmlns:sodipodi="http://sodipodi.sourceforge.net/DTD/sodipodi-0.dtd"
   xmlns:inkscape="http://www.inkscape.org/namespaces/inkscape"
   width="48"
   height="48"
   viewBox="0 0 48 48"
   version="1.1"
   id="svg4"
   sodipodi:docname="stelarium.svg"
   inkscape:version="0.92.3 (2405546, 2018-03-11)">
  <metadata
     id="metadata10">
    <rdf:RDF>
      <cc:Work
         rdf:about="">
        <dc:format>image/svg+xml</dc:format>
        <dc:type
           rdf:resource="http://purl.org/dc/dcmitype/StillImage" />
        <dc:title></dc:title>
      </cc:Work>
    </rdf:RDF>
  </metadata>
  <defs
     id="defs8" />
  <sodipodi:namedview
     pagecolor="#ffffff"
     bordercolor="#666666"
     borderopacity="1"
     objecttolerance="10"
     gridtolerance="10"
     guidetolerance="10"
     inkscape:pageopacity="0"
     inkscape:pageshadow="2"
     inkscape:window-width="1600"
     inkscape:window-height="849"
     id="namedview6"
     showgrid="false"
     inkscape:zoom="9.8333333"
     inkscape:cx="20.983185"
     inkscape:cy="24"
     inkscape:window-x="0"
     inkscape:window-y="25"
     inkscape:window-maximized="1"
     inkscape:current-layer="svg4" />
  <path
     style="fill:#ffffff;fill-opacity:1;stroke-width:0.97505039"
     d="m 6.7448634,4.8983051 c -1.1119698,0 -2.0071953,0.8952247 -2.0071953,2.0071961 V 41.027259 c 0,1.111971 0.8952255,2.007196 2.0071953,2.007196 H 40.866624 c 1.111967,0 2.007192,-0.895225 2.007192,-2.007196 V 6.9055012 c 0,-1.1119714 -0.895225,-2.0071961 -2.007192,-2.0071961 z M 7.7619586,5.435828 40.260831,5.494769 c 2.394242,0.063782 2.178362,1.6484692 2.178362,1.6484692 l -0.11774,4.2389808 V 35.10885 c -3.041868,1.766249 -4.965115,2.472635 -8.242487,2.472635 -2.158747,0.137377 -4.317521,-0.431696 -7.359389,-1.883946 l -0.235477,-1.000838 -0.647626,0.942044 -0.353216,-1.000985 -0.176677,0.706567 0.353208,1.000843 0.647634,-0.942044 0.235477,1.000981 c 3.041867,1.452249 5.200634,2.02132 7.359389,1.883947 3.277364,0 5.200619,-0.70653 8.242487,-2.472774 l 0.119015,4.734382 c 0,1.08036 -0.869735,1.950098 -1.950094,1.950098 H 7.1621039 c -1.0803548,0 -1.9502345,-0.869738 -1.9502345,-1.950098 L 5.347982,27.631727 5.936671,25.865518 6.8787147,28.455892 7.0196316,27.650949 6.1133479,25.158951 5.5246597,26.925159 5.465864,7.3199151 C 5.5443653,5.3819517 7.7619619,5.4358279 7.7619619,5.4358279 Z m -0.742327,22.215121 0.035758,0.09851 0.269539,-1.540484 -0.034063,-0.107985 z m 0.3052982,-1.44197 0.3191508,1.010594 0.5298894,-1.000843 0.2354758,1.118584 0.4121527,0.588827 -0.235475,0.353216 0.4709507,0.235472 v 0.70643 L 9.5280257,28.279357 9.763642,28.397093 9.6290849,27.724304 9.2337511,28.514829 V 27.808262 L 8.7628004,27.572786 8.9982761,27.219573 8.5861235,26.630884 8.3506477,25.512163 7.8207567,26.513148 7.4675443,25.394427 Z m 2.3041551,1.515325 0.075763,-0.151518 0.2354758,0.11774 -0.1734272,-0.866566 -0.1799282,0.69003 z m 0.1378077,-0.900344 0.173285,-0.664167 0.2354754,0.706567 0.307985,-0.102612 0.222048,-0.721695 -0.353214,0.11774 -0.235617,-0.706425 -0.353213,1.354051 z m 0.7167454,-0.06021 -0.01343,0.04367 0.04226,-0.0052 0.01653,-0.05357 z m 0.02884,0.03846 -0.21908,0.711798 0.471093,-0.05894 0.176678,-0.706426 z m 0.252013,0.652857 -0.176678,0.706567 0.294416,0.0588 0.05879,0.824304 0.647629,-1.883946 0.05894,0.824165 0.412154,0.176678 -0.235476,0.470952 0.294274,0.117737 0.05894,0.52989 0.235476,0.235476 0.126218,-0.757027 -0.185016,-0.185017 -0.05894,-0.529747 -0.294273,-0.117741 0.235475,-0.47109 -0.412152,-0.176536 -0.0588,-0.824307 -0.647629,1.883946 -0.05894,-0.824162 z m 1.774688,1.303595 0.05046,0.05061 0.09894,-0.593498 -0.04014,-0.113074 z m 0.149399,-0.542895 0.607487,1.712077 0.529891,-1.23632 0.117737,1.000843 0.235476,-0.412154 0.176677,0.883106 0.137102,-0.904447 -0.137102,-0.685226 -0.235475,0.412154 -0.117738,-1.000843 -0.52989,1.236319 -0.647629,-1.825008 z m 1.80437,1.043105 0.03958,0.198018 0.16014,-1.056387 -0.0424,-0.18007 z m 0.199716,-0.858369 0.428548,1.821754 0.412153,-0.824304 0.353214,1.58967 0.163814,-0.764376 -0.340351,-1.531723 -0.412152,0.824165 -0.470951,-2.001681 z m 1.357729,1.822744 0.01286,0.05781 0.01456,-0.06813 -0.01456,-0.04961 z m 0.02742,-0.01033 0.279716,0.95123 0.117737,0.471095 0.588831,-0.471095 v 0.353355 l -0.117738,0.412011 0.294273,0.294418 0.353356,-0.765366 0.353211,0.765366 0.235476,-0.294418 0.176678,0.471096 0.126075,-0.84127 -0.126075,-0.336251 -0.235477,0.294414 -0.353212,-0.765366 -0.353213,0.765366 -0.294415,-0.294414 0.117738,-0.412153 v -0.353213 l -0.588689,0.470949 -0.117737,-0.470949 -0.294415,-1.000843 z m 2.407615,1.346422 0.05061,0.134703 0.05428,-0.361978 -0.05442,-0.108976 z m 0.104877,-0.227275 0.357736,0.715332 0.353213,-0.765509 0.11774,1.766348 0.529891,-1.118722 0.412149,0.588832 0.235477,-0.235477 v 0.765367 l 0.235475,-0.294414 0.294414,0.942044 0.294418,-0.588831 0.235472,0.471094 0.176682,-0.412153 0.294271,0.883102 0.176677,-0.117736 0.470953,0.94204 0.235614,-0.294414 0.294276,0.588689 0.294409,-0.294275 0.235477,0.470952 0.588835,-0.470952 -0.117741,0.883106 0.824166,0.294271 0.176678,-0.706425 -0.824166,-0.294413 0.11774,-0.883107 -0.588827,0.470953 -0.235484,-0.470953 -0.294271,0.294418 -0.294414,-0.588831 -0.235477,0.294413 -0.47109,-0.942043 -0.176536,0.11774 -0.294417,-0.883106 -0.176673,0.412153 -0.235477,-0.470948 -0.294417,0.588689 -0.294272,-0.942044 -0.235476,0.294414 v -0.765367 l -0.235619,0.235476 -0.412011,-0.588689 -0.529891,1.11858 -0.117736,-1.76621 -0.353354,0.765366 -0.412011,-0.824303 z M 35.080227,8.9888803 a 7.8319703,8.1496126 42.937456 0 1 0.97682,1.6303787 7.8319703,8.1496126 42.937456 0 1 -4.192065,10.667773 7.8319703,8.1496126 42.937456 0 1 -5.798408,0.411163 7.8005074,7.8005074 0 0 0 4.685907,1.576388 7.8005074,7.8005074 0 0 0 7.800664,-7.800518 7.8005074,7.8005074 0 0 0 -3.472918,-6.4851847 z M 13.354998,9.5570727 A 0.41212407,0.41212407 0 0 0 12.942845,9.969227 0.41212407,0.41212407 0 0 0 13.354998,10.38138 0.41212407,0.41212407 0 0 0 13.767151,9.969227 0.41212407,0.41212407 0 0 0 13.354998,9.5570727 Z m 2.708251,1.7074103 a 0.70649839,0.70649839 0 0 0 -0.706427,0.706567 0.70649839,0.70649839 0 0 0 0.706427,0.706425 0.70649839,0.70649839 0 0 0 0.706567,-0.706425 0.70649839,0.70649839 0 0 0 -0.706567,-0.706567 z m -6.5644814,0.942044 a 0.85368554,0.85368554 0 0 0 -0.8537039,0.853702 0.85368554,0.85368554 0 0 0 0.8537039,0.853565 0.85368554,0.85368554 0 0 0 0.8537054,-0.853565 0.85368554,0.85368554 0 0 0 -0.8537054,-0.853702 z m 6.9619344,4.90753 a 0.40587301,0.40587301 0 0 0 -0.405933,0.405932 0.40587301,0.40587301 0 0 0 0.405933,0.405795 0.40587301,0.40587301 0 0 0 0.405792,-0.405795 0.40587301,0.40587301 0 0 0 -0.405792,-0.405932 z m -1.045081,1.215396 a 0.47099893,0.47099893 0 0 0 -0.470951,0.470953 0.47099893,0.47099893 0 0 0 0.470951,0.47109 0.47099893,0.47099893 0 0 0 0.471092,-0.47109 0.47099893,0.47099893 0 0 0 -0.471092,-0.470953 z m 2.929024,0.294417 a 0.30909305,0.30909305 0 0 0 -0.309112,0.309115 0.30909305,0.30909305 0 0 0 0.309112,0.309116 0.30909305,0.30909305 0 0 0 0.309115,-0.309116 0.30909305,0.30909305 0 0 0 -0.309115,-0.309115 z m -4.342019,0.588689 a 0.52987378,0.52987378 0 0 0 -0.52989,0.529891 0.52987378,0.52987378 0 0 0 0.52989,0.529889 0.52987378,0.52987378 0 0 0 0.529891,-0.529889 0.52987378,0.52987378 0 0 0 -0.529891,-0.529891 z m 7.903978,3.179344 a 0.54459249,0.54459249 0 0 0 -0.544591,0.544587 0.54459249,0.54459249 0 0 0 0.544591,0.544592 0.54459249,0.54459249 0 0 0 0.544588,-0.544592 0.54459249,0.54459249 0 0 0 -0.544588,-0.544587 z m -6.903136,3.179201 a 0.47099893,0.47099893 0 0 0 -0.470951,0.470949 0.47099893,0.47099893 0 0 0 0.470951,0.471095 0.47099893,0.47099893 0 0 0 0.471093,-0.471095 0.47099893,0.47099893 0 0 0 -0.471093,-0.470949 z"
     id="rect2-3"
     inkscape:connector-curvature="0" />
</svg>
