<?xml version="1.0" encoding="utf-8"?>
<!-- Generator: Adobe Illustrator 21.1.0, SVG Export Plug-In . SVG Version: 6.00 Build 0)  -->
<svg version="1.0" id="Layer_1" xmlns="http://www.w3.org/2000/svg" xmlns:xlink="http://www.w3.org/1999/xlink" x="0px" y="0px"
	 viewBox="0 0 48 48" enable-background="new 0 0 48 48" xml:space="preserve">
<path fill="#FFFFFF" d="M40.9,10c0.6,0.8,1.3,1.7,1.9,2.5c0.1,0,0.1,0.1,0.2,0c-0.1,0.5,0.3,0.7,0.4,1.1c1.3,2.6,2.2,5.3,2.5,8.2
	c0.6,7.5-1.8,13.8-7.5,18.8c-4.4,3.9-9.7,5.6-15.5,5.3c-2.9-0.1-6.7-1.2-8.9-2.5c1.4,0,2.6,0.1,3.8-0.1c4.4-0.8,8.2-2.8,11.7-5.3
	c3-2.1,5.6-4.6,7.4-7.9c2.9-5.4,4.8-11,4.3-17.2c-0.1-0.8-0.1-1.6-0.5-2.3C40.5,10.2,40.5,10.1,40.9,10z"/>
<polygon fill="#FFFFFF" points="15.2,12.1 14.3,18.1 19.2,16 "/>
<polygon fill="#FFFFFF" points="13,14 18.2,11.8 17.2,18.2 "/>
</svg>
