<?xml version="1.0" encoding="utf-8"?>
<!-- Generator: Adobe Illustrator 21.1.0, SVG Export Plug-In . SVG Version: 6.00 Build 0)  -->
<svg version="1.0" id="Layer_1" xmlns="http://www.w3.org/2000/svg" xmlns:xlink="http://www.w3.org/1999/xlink" x="0px" y="0px"
	 viewBox="0 0 48 48" enable-background="new 0 0 48 48" xml:space="preserve">
<path fill="#FFFFFF" d="M41,5H7C5.9,5,5,5.9,5,7v22.9c0,0,0.1,0,0.1,0c0,0,0,0,0.1,0c0,0,0,0,0,0l4,0c0.6,0,1.2,0.1,1.8,0.1
	c0.6,0.1,1.3,0.2,1.9,0.3c0.2,0,0.4,0,0.6,0c0.6,0.1,1.3,0.2,1.9,0.4c0.1,0,0.2,0,0.4,0.1c0.2,0.1,0.5,0.3,0.7,0.4
	c1.8,0.7,3.6,1.3,5.4,1.9c1,0.3,2,0.6,3,0.9c2.6,1.5,5.4,2.6,8.4,2.9c2.8,0.3,5.7,0.3,8.5,0.4c0.5,0,0.9,0.3,1.4,0.4c0,0,0,0,0,0
	c0,0,0,0,0,0V7C43,5.9,42.1,5,41,5z M28.4,22.6c-0.1,1.8-2.3,4.5-4.2,4.9c-2.5,0.6-4.6,0.1-6.4-1.5c-0.2-0.2-0.3-0.6-0.5-0.8
	c0.3,0,0.6,0,0.9,0.1c3.3,1.1,7.5,0.2,8.4-4c0.2-0.9-0.3-1.8-0.4-2.7c-0.1-0.3-0.1-0.7-0.2-1c0.3,0.2,0.5,0.3,0.8,0.5
	C27.7,19.4,28.5,20.8,28.4,22.6z"/>
</svg>
