<?xml version="1.0" encoding="UTF-8" standalone="no"?>
<svg
   xmlns:dc="http://purl.org/dc/elements/1.1/"
   xmlns:cc="http://creativecommons.org/ns#"
   xmlns:rdf="http://www.w3.org/1999/02/22-rdf-syntax-ns#"
   xmlns:svg="http://www.w3.org/2000/svg"
   xmlns="http://www.w3.org/2000/svg"
   xmlns:sodipodi="http://sodipodi.sourceforge.net/DTD/sodipodi-0.dtd"
   xmlns:inkscape="http://www.inkscape.org/namespaces/inkscape"
   width="48"
   height="48"
   version="1.1"
   id="svg4"
   sodipodi:docname="stocard.svg"
   inkscape:version="0.92.4 5da689c313, 2019-01-14">
  <metadata
     id="metadata10">
    <rdf:RDF>
      <cc:Work
         rdf:about="">
        <dc:format>image/svg+xml</dc:format>
        <dc:type
           rdf:resource="http://purl.org/dc/dcmitype/StillImage" />
        <dc:title></dc:title>
      </cc:Work>
    </rdf:RDF>
  </metadata>
  <defs
     id="defs8" />
  <sodipodi:namedview
     pagecolor="#ffffff"
     bordercolor="#666666"
     borderopacity="1"
     objecttolerance="10"
     gridtolerance="10"
     guidetolerance="10"
     inkscape:pageopacity="0"
     inkscape:pageshadow="2"
     inkscape:window-width="1250"
     inkscape:window-height="1397"
     id="namedview6"
     showgrid="false"
     inkscape:pagecheckerboard="true"
     inkscape:zoom="4.9166667"
     inkscape:cx="-30"
     inkscape:cy="24"
     inkscape:window-x="1290"
     inkscape:window-y="23"
     inkscape:window-maximized="0"
     inkscape:current-layer="svg4" />
  <path
     d="m 20.670531,13.054789 -5.23736,-5.2373588 c -0.263524,-0.263525 -0.690467,-0.264155 -0.95336,0 L 2.5781113,19.719809 c -0.263776,0.26305 -0.263776,0.69031 0,0.95336 l 6.66502,6.66468 c 0.26452,0.2652 0.68986,0.26316 0.9530197,0 l 10.35504,-10.35504 3.68186,-3.68152 7.14884,-7.1491788 c 0.920669,-0.9205954 2.413147,-0.9210514 3.334381,-0.001 l 12.37906,12.3787188 c 0.919938,0.921326 0.919329,2.413805 -0.0014,3.33438 L 25.670911,43.287587 c -0.920669,0.920594 -2.413146,0.92105 -3.33438,10e-4 L 12.158971,33.110711 c -0.93251,-0.911078 0.374156,-2.33766 1.3634,-1.48852 l 0.0024,-0.0024 9.76446,9.764456 c 0.395274,0.395236 1.036426,0.394169 1.43038,-0.0024 L 45.188612,20.912869 c 0.396926,-0.393797 0.397993,-1.035264 0.0024,-1.43038 L 33.763591,8.0550902 c -0.395233,-0.395009 -1.036123,-0.393942 -1.43004,0.0024 l -19.5126,19.5122588 -1.4348,1.4348 c -0.919602,0.920792 -2.4116457,0.9214 -3.3319997,0.0014 l -7.14408007,-7.14374 c -0.919195,-0.920648 -0.918739,-2.411914 0.001,-3.332 L 13.289791,6.1508102 c 0.919791,-0.9206044 2.411775,-0.9208494 3.332,-6.8e-4 l 5.47672,5.4763788 c 0.952143,0.952084 -0.47634,2.380226 -1.42834,1.428 z m 15.128641,6.79388 c 0.720269,-0.718772 0.721639,-1.885297 0.0031,-2.60576 -0.720409,-0.718899 -1.887195,-0.717681 -2.606101,0.0027 -0.720402,0.718906 -0.721619,1.885693 -0.0027,2.6061 0.720464,0.718579 1.886987,0.717209 2.605761,-0.0031 z"
     style="fill:#ffffff;fill-opacity:1;fill-rule:evenodd;stroke-width:0.34"
     id="path2" />
</svg>
