<?xml version="1.0" encoding="UTF-8"?>
<svg version="1.1" viewBox="0 0 48 48" xmlns="http://www.w3.org/2000/svg">
    <rect x="5" y="34.148" width="6" height="2" rx="1.2" fill="#fff" style="paint-order:stroke markers fill"/>
    <rect x="5" y="27.648" width="6" height="2" rx="1.2" fill="#fff" style="paint-order:stroke markers fill"/>
    <rect x="5" y="21.148" width="6" height="2" rx="1.2" fill="#fff" style="paint-order:stroke markers fill"/>
    <rect x="5" y="14.648" width="6" height="2" rx="1.2" fill="#fff" style="paint-order:stroke markers fill"/>
    <rect x="5" y="8.148" width="6" height="2" rx="1.2" fill="#fff" style="paint-order:stroke markers fill"/>
    <path d="m5 5v36.5c0 0.831 0.669 1.5 1.5 1.5h36.5v-3h-35v-35h-3z" fill="#fff" style="paint-order:stroke markers fill"/>
    <path d="m18.9 31.9a3.5 3.5 0 0 1-3.5 3.5 3.5 3.5 0 0 1-3.5-3.5 3.5 3.5 0 0 1 3.5-3.5 3.5 3.5 0 0 1 3.5 3.5z" fill="#fff" style="paint-order:stroke markers fill"/>
    <circle cx="21.3" cy="19.7" r="3.5" fill="#fff" style="paint-order:stroke markers fill"/>
    <circle cx="31.7" cy="28.1" r="3.5" fill="#fff" style="paint-order:stroke markers fill"/>
    <circle cx="37" cy="10.9" r="3.5" fill="#fff" style="paint-order:stroke markers fill"/>
    <path d="m15.4 31.9 5.9-12.2 10.4 8.4 5.3-17.2" fill="none" stroke="#fff" stroke-width="1.5"/>
</svg>
