<?xml version="1.0" encoding="UTF-8"?>
<svg version="1.1" viewBox="0 0 48 48" xmlns="http://www.w3.org/2000/svg">
    <defs>
        <mask id="mask993" maskUnits="userSpaceOnUse">
            <circle cx="24" cy="24" r="22" fill="#fff"/>
        </mask>
    </defs>
    <g fill="#fff" mask="url(#mask993)">
        <path d="m-6.9846 50.553 24.44-18.532c1.6293-1.2354 1.6293-1.2354 3.6409-0.29741l10.058 4.6902c4.0232 1.8761 4.0232 1.8761 1.3881 2.6425z"/>
        <path d="m55.081-1.86-24.44 18.532c-1.6293 1.2354-1.6293 1.2354-3.6409 0.2974l-10.058-4.6902c-4.0233-1.8761-4.0233-1.8761-1.3882-2.6425z"/>
        <path d="m11.919 9.7894c-0.0424-0.023743-0.53498 0.028635-0.53498 0.028635-2.1444 0.27335-3.9534 1.6654-4.3056 3.9121-0.38332 2.4448-0.3664 4.0759-0.30054 6.1106 0.062624 1.9345 1.6702 3.4603 3.3621 4.2493l25.408 11.848c4.2989 1.9867-1.0671 3.1608 1.0772 2.8875 2.1443-0.27332 3.7863-1.6975 4.3054-3.9116 0.59284-2.5286 0.36663-4.0764 0.30076-6.1111-0.06083-1.879-1.4247-3.4966-3.1384-4.2957l-25.413-11.868c-3.6269-1.6769-0.5288-2.7263-0.76018-2.8494z" style="paint-order:stroke markers fill"/>
    </g>
</svg>
