<?xml version="1.0" encoding="UTF-8"?>
<svg version="1.1" viewBox="0 0 48 48" xmlns="http://www.w3.org/2000/svg">
    <defs>
        <style>.a{fill:#3396cd;}.b{fill:#fff;}</style>
    </defs>
    <path d="m23.995 25.401c-1.7515 0.0014-3.4669 0.49739-4.9489 1.4309 1.887-0.28022 3.5666 0.76479 4.9489 1.4176 1.291-0.79889 3.2911-1.8537 4.918-1.4178-1.5844-0.8346-3.3677-1.4106-4.918-1.4307zm-6.4406 2.5947c-3.5274 3.4363-3.6585 8.6493-0.98517 12.288 0.08872-4.1588 4.1005-8.6051 4.8523-9.7412-0.42978-0.42978-2.1309-2.5144-3.8672-2.5468zm12.87 3.49e-4c-1.7323 0.04144-3.4268 2.1177-3.8556 2.5465 0.75157 1.1357 4.761 5.5794 4.8523 9.737 2.9847-4.1494 2.1846-9.4038-0.9967-12.283zm-6.429 4.8267c-1.6801 0.97001-6.8941 6.2902-6.4051 8.6046 1.7259 1.6475 4.0191 2.5686 6.4051 2.5727 2.3835-0.0017 4.6754-0.9186 6.4025-2.5613 0.50862-2.3083-4.7196-7.6443-6.4025-8.6159z" fill="#fff"/>
    <path d="m17.667 20.484c3.5428-3.8182 8.873-3.8182 12.666 0" fill="none" stroke="#fff" stroke-linecap="round" stroke-width="3"/>
    <path d="m14.667 16.285c5.8837-5.3016 13.56-5.1063 18.666 0" fill="none" stroke="#fff" stroke-linecap="round" stroke-width="3"/>
    <path d="m11.334 11.686c8.6651-6.8659 16.721-6.8553 25.332 0" fill="none" stroke="#fff" stroke-linecap="round" stroke-width="3"/>
</svg>
