<?xml version="1.0" encoding="utf-8"?>
<!-- Generator: Adobe Illustrator 21.1.0, SVG Export Plug-In . SVG Version: 6.00 Build 0)  -->
<svg version="1.0" id="Layer_1" xmlns="http://www.w3.org/2000/svg" xmlns:xlink="http://www.w3.org/1999/xlink" x="0px" y="0px"
	 viewBox="0 0 48 48" enable-background="new 0 0 48 48" xml:space="preserve">
<path fill="#FFFFFF" d="M24,2C11.8,2,2,11.8,2,24s9.8,22,22,22s22-9.8,22-22S36.2,2,24,2z M33.7,30.7l-0.4,2.8l-1.9,1.5l-2.9,1
	l-3.2,0.5h-2.9h-1.9l-3.1-1.2l-1.8-1.1L14,32.6v-4.4l2.2,1.2l3.4,1l4.3,0.3h3l2.8-0.7l3.2-1.3l1-0.5L33.7,30.7z M34.7,26.2l-0.2,0.4
	l-2.6,2l-2.2,0.8l-3,0.6h-3.3l-3.8-0.3l-3.8-1.2l-2-1.4L13,25.2l0.6-4.5l1.6-6.9l1.2-0.8l2.4-1l3.4-0.6h2.9l2.1,0.4l3.1,0.6l2,1.2
	l0.7,1.1l2,8.7L34.7,26.2z"/>
</svg>
