<?xml version="1.0" encoding="utf-8"?>
<!-- Generator: Adobe Illustrator 21.1.0, SVG Export Plug-In . SVG Version: 6.00 Build 0)  -->
<svg version="1.0" id="Layer_1" xmlns="http://www.w3.org/2000/svg" xmlns:xlink="http://www.w3.org/1999/xlink" x="0px" y="0px"
	 viewBox="0 0 48 48" enable-background="new 0 0 48 48" xml:space="preserve">
<path fill="#FFFFFF" d="M41,5H7C5.9,5,5,5.9,5,7v34c0,1.1,0.9,2,2,2h34c1.1,0,2-0.9,2-2V7C43,5.9,42.1,5,41,5z M15.8,33.7
	c-1-0.5-1.6-1.4-1.6-2.7c0-6,0-11.9,0-17.9c0-1.3,0.5-1.9,1.8-1.9c3.4,0,6.9,0,10.3,0c1.2,0,1.8,0.5,1.8,1.8c0,3.2,0,6.5,0,9.8
	c-0.7,0.2-1.3,0.3-2,0.4c0-3,0-5.8,0-8.7c-3.3,0-6.4,0-9.7,0c0,4.6,0,9.2,0,13.9c1.9,0,3.8,0,6,0c-1.3,1-2.1,2.1-1.6,3.5
	c0.5,1.3,1.7,1.8,2.8,2.5C21,34.6,18.3,35,15.8,33.7z M23,19.9c-2-0.1-3.5,0.5-3.4,3c-1-0.9-1.2-1.8-0.8-2.8
	c0.4-0.9,1.1-1.4,2.1-1.5C21.8,18.6,22.5,18.9,23,19.9z M31.8,36.8c-2.7-1.9-5.6-3.3-8.7-4.4c-0.6-0.2-1.1-0.7-0.9-1.5
	c0.2-0.8,0.8-1.1,1.5-1.1c0.6,0,1.1,0,1.7,0c-0.1-0.8-0.7-1.2-1.1-1.8c-1-1.5-2.1-2.9-3.1-4.3c-0.6-0.8-0.9-1.6,0-2.3
	c0.9-0.6,1.6-0.2,2.2,0.7c0.9,1.3,1.8,2.6,2.8,3.9c0.3,0.4,0.5,0.8,1.2,0.3c-0.3-0.5-0.5-1-0.8-1.5c0.6-0.3,1.1-0.4,1.8-0.3
	c0.4,0.4,0.8,0.9,1.3,1.5c1.1-0.8-0.2-1.2-0.1-1.9c0.3-0.4,0.9-0.3,1.1-0.4c1.1,0,1,1.6,2.1,1.2c0.3-0.7-0.4-1-0.4-1.5
	c1-0.4,1.8-0.1,2.5,0.7c1.1,1.2,1.7,2.6,2.2,4.2c0.3,1.2,0.8,2.4,1.6,3.5C36.4,33.4,34.2,35.1,31.8,36.8z"/>
</svg>
