<?xml version="1.0" encoding="UTF-8"?>
<svg version="1.1" viewBox="0 0 48 48" xmlns="http://www.w3.org/2000/svg">
    <path d="m5.0027 16.129 0.00138 6.0422 8.999 8.999c2.8731 1.1574 4.6409 0.82045 6.3518-0.7193l7.6674-7.6679c1.2363-1.2363 3.2273-1.2363 4.4636 0l4.0217 4.0217c1.2363 1.2363 1.2363 3.2273 0 4.4636l-5.4359 5.4359c-1.2363 1.2363-3.2273 1.2363-4.4636 0l-3.4126-3.4126-3.5355 3.5355 6.1692 6.1692 6.0422 0.0014 11.126-11.123v-5.6513l-9.2929-9.1218c-1.7932-2.0455-4.8113-0.82118-6.2662 0.63376l-7.6677 7.6677c-1.2363 1.2363-3.2273 1.2363-4.4636 0l-4.0217-4.0217c-1.2363-1.2363-1.2363-3.2273 0-4.4636l5.4359-5.4359c1.2363-1.2363 3.2273-1.2363 4.4636 0l3.4126 3.4126 3.5355-3.5355-6.3543-6.3543-5.6472-0.00138z" fill="#fff"/>
</svg>
