<?xml version="1.0" encoding="UTF-8" standalone="no"?>
<svg
   xmlns:dc="http://purl.org/dc/elements/1.1/"
   xmlns:cc="http://creativecommons.org/ns#"
   xmlns:rdf="http://www.w3.org/1999/02/22-rdf-syntax-ns#"
   xmlns:svg="http://www.w3.org/2000/svg"
   xmlns="http://www.w3.org/2000/svg"
   xmlns:sodipodi="http://sodipodi.sourceforge.net/DTD/sodipodi-0.dtd"
   xmlns:inkscape="http://www.inkscape.org/namespaces/inkscape"
   width="48"
   height="48"
   viewBox="0 0 48 48"
   version="1.1"
   id="svg4"
   sodipodi:docname="stumbler.svg.2018_08_08_03_55_28.0.svg"
   inkscape:version="0.92.3 (2405546, 2018-03-11)">
  <metadata
     id="metadata10">
    <rdf:RDF>
      <cc:Work
         rdf:about="">
        <dc:format>image/svg+xml</dc:format>
        <dc:type
           rdf:resource="http://purl.org/dc/dcmitype/StillImage" />
        <dc:title />
      </cc:Work>
    </rdf:RDF>
  </metadata>
  <defs
     id="defs8" />
  <sodipodi:namedview
     pagecolor="#ffffff"
     bordercolor="#666666"
     borderopacity="1"
     objecttolerance="10"
     gridtolerance="10"
     guidetolerance="10"
     inkscape:pageopacity="0"
     inkscape:pageshadow="2"
     inkscape:window-width="1920"
     inkscape:window-height="1037"
     id="namedview6"
     showgrid="false"
     inkscape:pagecheckerboard="true"
     inkscape:snap-bbox="false"
     inkscape:bbox-nodes="false"
     inkscape:snap-intersection-paths="true"
     inkscape:snap-center="true"
     inkscape:snap-object-midpoints="false"
     showguides="true"
     inkscape:guide-bbox="true"
     inkscape:snap-smooth-nodes="true"
     inkscape:snap-midpoints="false"
     inkscape:object-paths="true"
     inkscape:measure-start="24,4"
     inkscape:measure-end="30.9102,13.6244"
     inkscape:object-nodes="true"
     inkscape:zoom="5.6568543"
     inkscape:cx="30.066599"
     inkscape:cy="16.630206"
     inkscape:window-x="1920"
     inkscape:window-y="43"
     inkscape:window-maximized="1"
     inkscape:current-layer="svg4">
    <inkscape:grid
       type="xygrid"
       id="grid4749"
       empspacing="4" />
  </sodipodi:namedview>
  <path
     style="opacity:1;fill:none;fill-opacity:0.51133501;stroke:#ffffff;stroke-width:5;stroke-linecap:round;stroke-linejoin:round;stroke-miterlimit:4;stroke-dasharray:none;stroke-opacity:1;paint-order:normal"
     id="path4770"
     sodipodi:type="arc"
     sodipodi:cx="24.059784"
     sodipodi:cy="21.198942"
     sodipodi:rx="19.487383"
     sodipodi:ry="14.166105"
     sodipodi:start="3.6651914"
     sodipodi:end="5.7595865"
     d="M 7.183215,14.11589 A 19.487383,14.166105 0 0 1 24.059783,7.0328369 19.487383,14.166105 0 0 1 40.936352,14.115889"
     sodipodi:open="true" />
  <path
     style="opacity:1;fill:none;fill-opacity:0.51133501;stroke:#ffffff;stroke-width:5;stroke-linecap:round;stroke-linejoin:round;stroke-miterlimit:4;stroke-dasharray:none;stroke-opacity:1;paint-order:normal"
     id="path4783"
     sodipodi:type="arc"
     sodipodi:cx="24"
     sodipodi:cy="24.5"
     sodipodi:rx="11"
     sodipodi:ry="7.5"
     sodipodi:start="3.6651914"
     sodipodi:end="5.7595865"
     d="M 14.47372,20.75 A 11,7.5 0 0 1 24,17 a 11,7.5 0 0 1 9.526279,3.75"
     sodipodi:open="true" />
  <ellipse
     style="opacity:1;fill:#ffffff;fill-opacity:1;stroke:none;stroke-width:0.1;stroke-linecap:butt;stroke-linejoin:round;stroke-miterlimit:4;stroke-dasharray:none;stroke-opacity:1;paint-order:normal"
     id="path4812"
     cx="24"
     cy="44"
     rx="7.5"
     ry="3" />
  <path
     style="opacity:1;fill:#ffffff;fill-opacity:1;stroke:none;stroke-width:4.66666651;stroke-linecap:round;stroke-linejoin:round;stroke-miterlimit:4;stroke-dasharray:none;stroke-opacity:1;paint-order:normal"
     d="M 24 25 A 7 7 0 0 0 17 32 A 7 7 0 0 0 18.255859 35.998047 L 24 44 L 29.740234 36 L 29.734375 36 A 7 7 0 0 0 31 32 A 7 7 0 0 0 24 25 z M 24 29.666016 A 2.3333333 2.3333333 0 0 1 26.333984 32 A 2.3333333 2.3333333 0 0 1 24 34.333984 A 2.3333333 2.3333333 0 0 1 21.666016 32 A 2.3333333 2.3333333 0 0 1 24 29.666016 z "
     id="path4787" />
</svg>
