<?xml version="1.0" encoding="UTF-8"?>
<svg version="1.1" viewBox="0 0 48 48" xmlns="http://www.w3.org/2000/svg">
    <defs>
        <style>.cls-1{fill:#fff;}</style>
    </defs>
    <path d="m36.325 29.645c-3.68 0-6.6816 2.9967-6.6816 6.6777 0 3.68 3.0016 6.6777 6.6816 6.6777a6.687 6.687 0 0 0 6.6758-6.6777 6.687 6.687 0 0 0-6.6758-6.6777zm-4.1289 2.3711h1.9902c0.097 0 0.17383 0.07783 0.17383 0.17383v1.9902a0.175 0.175 0 0 1-0.17383 0.17578h-1.9902a0.177 0.177 0 0 1-0.17773-0.17578v-1.9902c0-0.096 0.08173-0.17383 0.17773-0.17383zm3.1328 0h1.9941c0.096 0 0.17383 0.07783 0.17383 0.17383v1.9902a0.175 0.175 0 0 1-0.17383 0.17578h-1.9941a0.175 0.175 0 0 1-0.17187-0.17578v-1.9902c0-0.096 0.07588-0.17383 0.17187-0.17383zm3.1387 0h1.9902c0.096 0 0.17188 0.07783 0.17188 0.17383v1.9902a0.174 0.174 0 0 1-0.17188 0.17578h-1.9902a0.175 0.175 0 0 1-0.17383-0.17578v-1.9902c0-0.096 0.07783-0.17383 0.17383-0.17383zm-6.2793 3.1367h1.9941c0.096 0 0.17188 0.07783 0.17188 0.17383v1.9902a0.174 0.174 0 0 1-0.17188 0.17578h-1.9941a0.175 0.175 0 0 1-0.17188-0.17578v-1.9902c0-0.096 0.07588-0.17383 0.17188-0.17383zm3.1387 0h1.9902c0.096 0 0.17188 0.07783 0.17188 0.17383v1.9902a0.174 0.174 0 0 1-0.17188 0.17578h-1.9902a0.175 0.175 0 0 1-0.17383-0.17578v-1.9902c0-0.096 0.07783-0.17383 0.17383-0.17383zm3.1367 0h1.9902c0.096 0 0.17188 0.07783 0.17188 0.17383v1.9902a0.174 0.174 0 0 1-0.17188 0.17578h-1.9902a0.177 0.177 0 0 1-0.17773-0.17578v-1.9902c0-0.096 0.08173-0.17383 0.17773-0.17383zm-6.2754 3.1367h1.9941a0.17 0.17 0 0 1 0.17188 0.17188v1.9922a0.172 0.172 0 0 1-0.17188 0.17383h-1.9941a0.174 0.174 0 0 1-0.17188-0.17383v-1.9922c0-0.097 0.07588-0.17188 0.17188-0.17188zm3.1387 0h1.9902a0.17 0.17 0 0 1 0.17188 0.17188v1.9922a0.172 0.172 0 0 1-0.17188 0.17383h-1.9902a0.174 0.174 0 0 1-0.17383-0.17383v-1.9922c0-0.097 0.07783-0.17188 0.17383-0.17188zm3.1367 0h1.9902a0.17 0.17 0 0 1 0.17188 0.17188v1.9922a0.172 0.172 0 0 1-0.17188 0.17383h-1.9902a0.175 0.175 0 0 1-0.17773-0.17383v-1.9922c0-0.097 0.08173-0.17188 0.17773-0.17188z" color="#000000" color-rendering="auto" dominant-baseline="auto" fill="#fff" image-rendering="auto" shape-rendering="auto" solid-color="#000000" style="font-feature-settings:normal;font-variant-alternates:normal;font-variant-caps:normal;font-variant-ligatures:normal;font-variant-numeric:normal;font-variant-position:normal;isolation:auto;mix-blend-mode:normal;paint-order:stroke markers fill;shape-padding:0;text-decoration-color:#000000;text-decoration-line:none;text-decoration-style:solid;text-indent:0;text-orientation:mixed;text-transform:none;white-space:normal"/>
    <path class="cls-1" d="m23.79 34.276c0 1.2258-0.58158 1.8342-1.7895 1.8342a1.7895 1.7895 0 0 1-1.3332-0.44737 1.9147 1.9147 0 0 1-0.45632-1.3779v-4.7869h-1.2079v4.8763a2.6842 2.6842 0 0 0 0.77842 2.049 3.0779 3.0779 0 0 0 2.219 0.78737 3.6774 3.6774 0 0 0 1.6284-0.34 2.4069 2.4069 0 0 0 1.0558-1.0111 2.9705 2.9705 0 0 0 0.3579-1.4674v-4.8942h-1.2526z" fill="#fff" stroke-width=".89474"/>
    <path class="cls-1" d="m13.473 29.498h-1.4047l-2.04 2.4158c-0.34 0.38474-0.67106 0.78737-1.0111 1.199v-3.579h-1.2347v7.5606h1.2347v-2.8632l0.73369-0.59053 2.4069 3.4179h1.4316l-2.9526-4.2411c0.57263-0.66211 1.5211-1.7626 2.8363-3.3195z" fill="#fff" stroke-width=".89474"/>
    <path class="cls-1" d="m24.031 24.792a3.7669 3.7669 0 0 0 1.0468-2.8632 3.6505 3.6505 0 0 0-1.0111-2.7379 3.8563 3.8563 0 0 0-2.8005-0.96632h-2.3353v7.5516h2.1116a4.1963 4.1963 0 0 0 2.9884-0.98421zm-3.8205-5.5384h1.0647c1.6911 0 2.5411 0.89474 2.5411 2.6842s-0.89474 2.7647-2.729 2.7647h-0.87684z" fill="#fff" stroke-width=".89474"/>
    <path class="cls-1" d="m31.028 19.11a4.1426 4.1426 0 0 0-0.89474 2.8811 4.1158 4.1158 0 0 0 0.89474 2.8811 3.3463 3.3463 0 0 0 2.6037 1.02 3.3195 3.3195 0 0 0 2.6842-1.029 4.1516 4.1516 0 0 0 0.89474-2.8632 4.1605 4.1605 0 0 0-0.89474-2.8721 3.3374 3.3374 0 0 0-2.6842-1.02 3.4358 3.4358 0 0 0-2.6037 1.0021zm4.2948 0.77842a3.4358 3.4358 0 0 1 0.55474 2.1116 3.3732 3.3732 0 0 1-0.56369 2.1205 2.2816 2.2816 0 0 1-3.3284 0 3.3553 3.3553 0 0 1-0.56369-2.1205 3.3732 3.3732 0 0 1 0.56369-2.1116 1.9953 1.9953 0 0 1 1.6821-0.71579 1.9595 1.9595 0 0 1 1.6553 0.71579z" fill="#fff" stroke-width=".89474"/>
    <path class="cls-1" d="m22 14.493a3.6774 3.6774 0 0 0 1.6284-0.33105 2.5232 2.5232 0 0 0 1.0558-0.96632 2.9974 2.9974 0 0 0 0.3579-1.4674v-4.8942h-1.2526v4.7779c0 1.2168-0.58158 1.7895-1.7895 1.7895a1.7895 1.7895 0 0 1-1.3332-0.44737 1.9237 1.9237 0 0 1-0.45632-1.3332v-4.7869h-1.2079v4.8674a2.6842 2.6842 0 0 0 0.77842 2.049 3.0421 3.0421 0 0 0 2.219 0.74263z" fill="#fff" stroke-width=".89474"/>
    <path class="cls-1" d="m11.603 13.947a1.8879 1.8879 0 0 0 0.72474-1.5747 1.9684 1.9684 0 0 0-0.17895-0.89474 1.8879 1.8879 0 0 0-0.56369-0.67106 5.4848 5.4848 0 0 0-1.2168-0.62632 6.0663 6.0663 0 0 1-1.02-0.49211 1.1632 1.1632 0 0 1-0.41158-0.39369 0.96632 0.96632 0 0 1-0.12526-0.50105 0.89474 0.89474 0 0 1 0.31316-0.68895 1.3511 1.3511 0 0 1 0.89474-0.25947 4.6348 4.6348 0 0 1 1.7895 0.42053l0.39369-1.0111a5.3684 5.3684 0 0 0-2.1474-0.46526 2.7916 2.7916 0 0 0-1.7895 0.54579 1.7895 1.7895 0 0 0-0.67106 1.4853 2.0221 2.0221 0 0 0 0.42948 1.2974 3.579 3.579 0 0 0 1.4495 0.94842 4.93 4.93 0 0 1 1.3242 0.6979 0.94842 0.94842 0 0 1 0.31316 0.71579 0.89474 0.89474 0 0 1-0.34895 0.75158 1.7895 1.7895 0 0 1-1.0826 0.27737 4.4737 4.4737 0 0 1-1.1005-0.14316 4.93 4.93 0 0 1-1.0916-0.38474v1.1721a4.7153 4.7153 0 0 0 2.0937 0.40263 3.1495 3.1495 0 0 0 2.0221-0.60842z" fill="#fff" stroke-width=".89474"/>
    <path class="cls-1" d="m39 15.791h-10.791v-10.791h-1.0826v10.791h-10.254v-10.791h-1.0826v10.791h-10.791v1.0826h10.791v10.254h-10.791v1.0826h10.791v10.791h1.0826v-10.791h10.254v10.791h1.0826v-10.791h10.791v-1.0826h-10.791v-10.254h10.791zm-11.873 11.336h-10.254v-10.254h10.254z" fill="#fff" stroke-width=".89474"/>
</svg>
