<?xml version="1.0" encoding="UTF-8"?>
<svg version="1.1" viewBox="0 0 48 48" xmlns="http://www.w3.org/2000/svg">
    <defs>
        <style>.cls-1{fill:#fff;}</style>
    </defs>
    <g transform="matrix(.89474 0 0 .89474 .52632 .52632)" fill="#fff" data-name="Layer 1">
        <path class="cls-1" d="m14.47 32.38h-1.57l-2.28 2.7c-0.38 0.43-0.75 0.88-1.13 1.34v-4h-1.38v8.45h1.38v-3.2l0.82-0.66 2.69 3.82h1.6l-3.3-4.74c0.64-0.74 1.7-1.97 3.17-3.71z"/>
        <path class="cls-1" d="m26.27 27.12a4.21 4.21 0 0 0 1.17-3.2 4.08 4.08 0 0 0-1.13-3.06 4.31 4.31 0 0 0-3.13-1.08h-2.61v8.44h2.36a4.69 4.69 0 0 0 3.34-1.1zm-4.27-6.19h1.19c1.89 0 2.84 1 2.84 3s-1 3.09-3.05 3.09h-0.98z"/>
        <path class="cls-1" d="m12.38 15a2.11 2.11 0 0 0 0.81-1.76 2.2 2.2 0 0 0-0.2-1 2.11 2.11 0 0 0-0.63-0.75 6.13 6.13 0 0 0-1.36-0.7 6.78 6.78 0 0 1-1.14-0.55 1.3 1.3 0 0 1-0.46-0.44 1.08 1.08 0 0 1-0.14-0.56 1 1 0 0 1 0.35-0.77 1.51 1.51 0 0 1 1-0.29 5.18 5.18 0 0 1 2 0.47l0.44-1.13a6 6 0 0 0-2.4-0.52 3.12 3.12 0 0 0-2 0.61 2 2 0 0 0-0.75 1.66 2.26 2.26 0 0 0 0.48 1.45 4 4 0 0 0 1.62 1.06 5.51 5.51 0 0 1 1.48 0.78 1.06 1.06 0 0 1 0.35 0.8 1 1 0 0 1-0.39 0.84 2 2 0 0 1-1.21 0.31 5 5 0 0 1-1.23-0.16 5.51 5.51 0 0 1-1.22-0.43v1.31a5.27 5.27 0 0 0 2.34 0.45 3.52 3.52 0 0 0 2.26-0.68z"/>
        <path class="cls-1" d="m24 15.61a4.11 4.11 0 0 0 1.82-0.37 2.82 2.82 0 0 0 1.18-1.08 3.35 3.35 0 0 0 0.4-1.64v-5.47h-1.4v5.34c0 1.36-0.65 2-2 2a2 2 0 0 1-1.49-0.5 2.15 2.15 0 0 1-0.51-1.49v-5.35h-1.35v5.44a3 3 0 0 0 0.87 2.29 3.4 3.4 0 0 0 2.48 0.83z"/>
        <path class="cls-1" d="m26 37.72c0 1.37-0.65 2.05-2 2.05a2 2 0 0 1-1.49-0.5 2.14 2.14 0 0 1-0.51-1.54v-5.35h-1.35v5.45a3 3 0 0 0 0.87 2.29 3.44 3.44 0 0 0 2.48 0.88 4.11 4.11 0 0 0 1.82-0.38 2.69 2.69 0 0 0 1.18-1.13 3.32 3.32 0 0 0 0.4-1.64v-5.47h-1.4z"/>
        <path class="cls-1" d="m43 17.06h-12.06v-12.06h-1.21v12.06h-11.46v-12.06h-1.21v12.06h-12.06v1.21h12.06v11.46h-12.06v1.21h12.06v12.06h1.21v-12.06h11.46v12.06h1.21v-12.06h12.06v-1.21h-12.06v-11.46h12.06zm-13.27 12.67h-11.46v-11.46h11.46z"/>
        <path class="cls-1" d="m34.09 20.77a4.63 4.63 0 0 0-1 3.22 4.6 4.6 0 0 0 1 3.22 3.74 3.74 0 0 0 2.91 1.14 3.71 3.71 0 0 0 3-1.15 4.64 4.64 0 0 0 1-3.2 4.65 4.65 0 0 0-1-3.21 3.73 3.73 0 0 0-3-1.14 3.84 3.84 0 0 0-2.91 1.12zm4.8 0.87a3.84 3.84 0 0 1 0.62 2.36 3.77 3.77 0 0 1-0.63 2.37 2.55 2.55 0 0 1-3.72 0 3.75 3.75 0 0 1-0.63-2.37 3.77 3.77 0 0 1 0.63-2.36 2.23 2.23 0 0 1 1.88-0.8 2.19 2.19 0 0 1 1.85 0.8z"/>
    </g>
    <path d="m36.325 29.645c-3.68 0-6.6816 2.9967-6.6816 6.6777 0 3.68 3.0016 6.6777 6.6816 6.6777a6.687 6.687 0 0 0 6.6758-6.6777 6.687 6.687 0 0 0-6.6758-6.6777zm-4.1289 2.3711h1.9902c0.097 0 0.17383 0.07783 0.17383 0.17383v1.9902a0.175 0.175 0 0 1-0.17383 0.17578h-1.9902a0.177 0.177 0 0 1-0.17773-0.17578v-1.9902c0-0.096 0.08173-0.17383 0.17773-0.17383zm3.1328 0h1.9941c0.096 0 0.17383 0.07783 0.17383 0.17383v1.9902a0.175 0.175 0 0 1-0.17383 0.17578h-1.9941a0.175 0.175 0 0 1-0.17187-0.17578v-1.9902c0-0.096 0.07588-0.17383 0.17187-0.17383zm3.1387 0h1.9902c0.096 0 0.17188 0.07783 0.17188 0.17383v1.9902a0.174 0.174 0 0 1-0.17188 0.17578h-1.9902a0.175 0.175 0 0 1-0.17383-0.17578v-1.9902c0-0.096 0.07783-0.17383 0.17383-0.17383zm-6.2793 3.1367h1.9941c0.096 0 0.17188 0.07783 0.17188 0.17383v1.9902a0.174 0.174 0 0 1-0.17188 0.17578h-1.9941a0.175 0.175 0 0 1-0.17188-0.17578v-1.9902c0-0.096 0.07588-0.17383 0.17188-0.17383zm3.1387 0h1.9902c0.096 0 0.17188 0.07783 0.17188 0.17383v1.9902a0.174 0.174 0 0 1-0.17188 0.17578h-1.9902a0.175 0.175 0 0 1-0.17383-0.17578v-1.9902c0-0.096 0.07783-0.17383 0.17383-0.17383zm3.1367 0h1.9902c0.096 0 0.17188 0.07783 0.17188 0.17383v1.9902a0.174 0.174 0 0 1-0.17188 0.17578h-1.9902a0.177 0.177 0 0 1-0.17773-0.17578v-1.9902c0-0.096 0.08173-0.17383 0.17773-0.17383zm-6.2754 3.1367h1.9941a0.17 0.17 0 0 1 0.17188 0.17188v1.9922a0.172 0.172 0 0 1-0.17188 0.17383h-1.9941a0.174 0.174 0 0 1-0.17188-0.17383v-1.9922c0-0.097 0.07588-0.17188 0.17188-0.17188zm3.1387 0h1.9902a0.17 0.17 0 0 1 0.17188 0.17188v1.9922a0.172 0.172 0 0 1-0.17188 0.17383h-1.9902a0.174 0.174 0 0 1-0.17383-0.17383v-1.9922c0-0.097 0.07783-0.17188 0.17383-0.17188zm3.1367 0h1.9902a0.17 0.17 0 0 1 0.17188 0.17188v1.9922a0.172 0.172 0 0 1-0.17188 0.17383h-1.9902a0.175 0.175 0 0 1-0.17773-0.17383v-1.9922c0-0.097 0.08173-0.17188 0.17773-0.17188z" color="#000000" color-rendering="auto" dominant-baseline="auto" fill="#fff" image-rendering="auto" shape-rendering="auto" solid-color="#000000" style="font-feature-settings:normal;font-variant-alternates:normal;font-variant-caps:normal;font-variant-ligatures:normal;font-variant-numeric:normal;font-variant-position:normal;isolation:auto;mix-blend-mode:normal;paint-order:stroke markers fill;shape-padding:0;text-decoration-color:#000000;text-decoration-line:none;text-decoration-style:solid;text-indent:0;text-orientation:mixed;text-transform:none;white-space:normal"/>
</svg>
