<svg xmlns="http://www.w3.org/2000/svg" viewBox="0 0 48 48"><defs><style>.cls-1{fill:#fff;}</style></defs><g id="Layer_1" data-name="Layer 1"><path class="cls-1" d="M30.51,18a13,13,0,1,0,13,13A13,13,0,0,0,30.51,18Zm0,2.67a10.33,10.33,0,0,1,10.25,9.11H20.25A10.33,10.33,0,0,1,30.51,20.63Zm0,20.71a10.34,10.34,0,0,1-10.26-9.12H40.76A10.34,10.34,0,0,1,30.51,41.34Z"/><path class="cls-1" d="M17.16,37.76H8.06V15.63h26v.82a15.18,15.18,0,0,1,3.58,1.38V7.55H33V4H29.07V7.55H13V4H9.11V7.55H4.48v33.2H19.17A15.2,15.2,0,0,1,17.16,37.76Z"/></g></svg>