<?xml version="1.0" encoding="UTF-8" standalone="no"?>
<svg
   xmlns:dc="http://purl.org/dc/elements/1.1/"
   xmlns:cc="http://creativecommons.org/ns#"
   xmlns:rdf="http://www.w3.org/1999/02/22-rdf-syntax-ns#"
   xmlns:svg="http://www.w3.org/2000/svg"
   xmlns="http://www.w3.org/2000/svg"
   xmlns:sodipodi="http://sodipodi.sourceforge.net/DTD/sodipodi-0.dtd"
   xmlns:inkscape="http://www.inkscape.org/namespaces/inkscape"
   width="48"
   height="48"
   viewBox="0 0 48 48"
   version="1.1"
   id="svg301"
   sodipodi:docname="suntimescalendars.svg"
   inkscape:version="0.92.5 (2060ec1f9f, 2020-04-08)">
  <metadata
     id="metadata307">
    <rdf:RDF>
      <cc:Work
         rdf:about="">
        <dc:format>image/svg+xml</dc:format>
        <dc:type
           rdf:resource="http://purl.org/dc/dcmitype/StillImage" />
        <dc:title></dc:title>
      </cc:Work>
    </rdf:RDF>
  </metadata>
  <defs
     id="defs305" />
  <sodipodi:namedview
     pagecolor="#ffffff"
     bordercolor="#666666"
     borderopacity="1"
     objecttolerance="10"
     gridtolerance="10"
     guidetolerance="10"
     inkscape:pageopacity="0"
     inkscape:pageshadow="2"
     inkscape:window-width="1366"
     inkscape:window-height="741"
     id="namedview303"
     showgrid="false"
     inkscape:zoom="1.2291667"
     inkscape:cx="-0.81355932"
     inkscape:cy="24"
     inkscape:window-x="0"
     inkscape:window-y="27"
     inkscape:window-maximized="0"
     inkscape:current-layer="svg301" />
  <path
     style="fill:none;stroke-width:0.25108787;stroke:none"
     d="M 20.337726,45.835192 C 4.570016,43.014589 -3.132044,24.995038 5.752746,11.71252 c 3.01723,-4.5106758 7.24005,-7.5350208 12.71374,-9.1054598 2.82117,-0.809413 8.37174,-0.809413 11.19291,0 7.75031,2.223618 13.35648,7.6854688 15.648582,15.2457418 0.617491,2.036737 0.685753,2.643846 0.691658,6.151562 0.006,3.54372 -0.0552,4.092811 -0.683817,6.139174 -2.274887,7.405467 -7.811593,12.935247 -15.101133,15.08225 -1.77563,0.522982 -2.93231,0.685249 -5.39847,0.757335 -1.72625,0.05046 -3.74157,-0.01612 -4.47849,-0.147931 z m 12.38132,-8.907795 c 2.25087,-1.138803 4.01436,-3.413003 4.5207,-5.829904 l 0.17095,-0.816025 h -8.43152 c -9.54205,0 -8.80858,-0.191712 -8.02824,2.098402 0.70911,2.081056 3.24569,4.433108 5.62292,5.213862 0.34525,0.11339 1.54495,0.173882 2.66599,0.134427 1.6615,-0.05848 2.30462,-0.206497 3.4792,-0.800762 z M 21.194956,36.01121 c -0.49411,-0.577242 -0.89839,-1.142181 -0.89839,-1.255421 0,-0.113239 -1.97734,-0.205889 -4.3941,-0.205889 h -4.3941 v -8.411321 -8.41132 h 10.4203 10.4203 l 0.003,0.941566 c 0.002,0.862595 0.0918,0.982368 1.06714,1.428064 0.58552,0.267574 1.15186,0.532056 1.25853,0.587739 0.10667,0.05568 0.16316,-2.027544 0.12554,-4.629388 l -0.0684,-4.730627 -1.94596,-0.07333 -1.94596,-0.07333 V 9.9330942 8.6882352 h -1.12991 -1.12992 v 1.255421 1.2554208 h -6.52838 -6.52838 V 9.9436502 8.6882292 h -1.25545 -1.25546 v 1.255421 1.2554208 h -1.88319 -1.88319 v 12.930836 12.930834 h 6.42241 6.4224 z m 16.05727,-8.668302 c -0.40869,-2.178446 -2.36932,-4.690773 -4.51654,-5.787422 -1.54786,-0.790535 -4.538,-1.053914 -6.31543,-0.556277 -2.57676,0.721427 -5.24887,3.564137 -5.834,6.206479 l -0.23631,1.067108 h 8.53837 8.53837 z"
     id="path95"
     inkscape:connector-curvature="0" />
</svg>
