<?xml version="1.0" encoding="UTF-8" standalone="no"?>
<svg
   xmlns:dc="http://purl.org/dc/elements/1.1/"
   xmlns:cc="http://creativecommons.org/ns#"
   xmlns:rdf="http://www.w3.org/1999/02/22-rdf-syntax-ns#"
   xmlns:svg="http://www.w3.org/2000/svg"
   xmlns="http://www.w3.org/2000/svg"
   xmlns:sodipodi="http://sodipodi.sourceforge.net/DTD/sodipodi-0.dtd"
   xmlns:inkscape="http://www.inkscape.org/namespaces/inkscape"
   width="48"
   height="48"
   viewBox="0 0 48 48"
   version="1.1"
   id="svg4"
   sodipodi:docname="SuperUser.svg"
   inkscape:version="0.92.3 (2405546, 2018-03-11)">
  <metadata
     id="metadata10">
    <rdf:RDF>
      <cc:Work
         rdf:about="">
        <dc:format>image/svg+xml</dc:format>
        <dc:type
           rdf:resource="http://purl.org/dc/dcmitype/StillImage" />
        <dc:title />
      </cc:Work>
    </rdf:RDF>
  </metadata>
  <defs
     id="defs8" />
  <sodipodi:namedview
     pagecolor="#858585"
     bordercolor="#666666"
     borderopacity="1"
     objecttolerance="10"
     gridtolerance="10"
     guidetolerance="10"
     inkscape:pageopacity="0"
     inkscape:pageshadow="2"
     inkscape:window-width="1920"
     inkscape:window-height="1046"
     id="namedview6"
     showgrid="false"
     inkscape:zoom="5.5979287"
     inkscape:cx="-3.1885393"
     inkscape:cy="24.004053"
     inkscape:window-x="0"
     inkscape:window-y="0"
     inkscape:window-maximized="1"
     inkscape:current-layer="svg4" />
  <path
     d="M 7 5 C 5.892 5 5 5.892 5 7 L 5 41 C 5 42.108 5.892 43 7 43 L 41 43 C 42.108 43 43 42.108 43 41 L 43 7 C 43 5.892 42.108 5 41 5 L 7 5 z M 21.535156 9.0175781 C 21.970541 9.0076371 22.433621 9.1705152 22.917969 9.5097656 C 23.79777 10.126002 23.869478 11.5036 23.175781 14.40625 L 22.71875 16.324219 L 25.6875 16.324219 C 28.149933 16.324219 28.658203 16.235732 28.658203 15.806641 C 28.658203 15.521998 28.900792 14.221468 29.197266 12.917969 C 30.032513 9.2456713 31.603304 8.1153207 33.546875 9.7871094 L 34.472656 10.583984 L 34.042969 12.703125 C 33.806415 13.869122 33.532764 15.161719 33.433594 15.574219 C 33.259337 16.299059 33.333377 16.324219 35.644531 16.324219 C 37.942751 16.324219 39.215001 16.676275 39.736328 17.457031 C 40.181504 18.123748 40.0016 19.220382 39.300781 20.111328 C 38.642077 20.948735 38.464429 20.990234 35.480469 20.990234 L 32.351562 20.990234 L 32.03125 22.240234 C 31.855915 22.927734 31.61456 24.014583 31.494141 24.65625 C 31.373723 25.297916 31.201658 26.085416 31.111328 26.40625 C 30.964257 26.928595 31.239051 26.990234 33.75 26.990234 C 36.923186 26.990234 37.658203 27.413331 37.658203 29.242188 C 37.658203 31.030816 36.44225 31.65625 32.96875 31.65625 C 29.660674 31.65625 29.971318 31.376419 29.285156 34.990234 C 28.642845 38.373098 26.615785 39.947816 24.992188 38.324219 C 24.126633 37.458666 24.189365 35.553881 25.193359 32.240234 C 25.352628 31.714569 25.071301 31.65625 22.347656 31.65625 C 20.00288 31.65625 19.324219 31.759063 19.324219 32.115234 C 19.324219 32.367746 19.076563 33.673345 18.773438 35.015625 C 17.933934 38.733062 16.26429 39.959601 14.476562 38.171875 C 13.530152 37.225465 13.522524 37.147151 14.164062 34.490234 C 14.883256 31.511705 14.99609 31.65625 11.992188 31.65625 C 9.7699658 31.65625 9.2137581 31.54579 8.6582031 30.990234 C 7.8182621 30.150294 7.8056881 28.959488 8.6269531 27.943359 C 9.1964961 27.238681 9.6058353 27.13948 12.53125 26.990234 L 15.796875 26.824219 L 16.224609 24.65625 C 16.459109 23.464583 16.730725 22.152734 16.828125 21.740234 C 17.000995 21.008124 16.938328 20.990234 14.216797 20.990234 C 11.061057 20.990234 10.324219 20.564615 10.324219 18.738281 C 10.324219 16.948593 11.539382 16.324219 15.019531 16.324219 L 17.958984 16.324219 L 18.544922 13.574219 C 19.172995 10.622315 20.229004 9.0474011 21.535156 9.0175781 z M 21.761719 20.990234 L 21.208984 23.5 C 20.390787 27.223589 20.24183 26.990234 23.464844 26.990234 L 26.269531 26.990234 L 26.625 25.332031 C 26.82068 24.419604 27.077369 23.069604 27.195312 22.332031 L 27.410156 20.990234 L 24.585938 20.990234 L 21.761719 20.990234 z "
     id="rect2"
     style="fill:#ffffff" />
</svg>
