<?xml version="1.0" encoding="UTF-8"?>
<svg version="1.1" viewBox="0 0 48 48" xmlns="http://www.w3.org/2000/svg">
    <path d="m24.029 5.4116c-6.8342 9.12e-5 -12.375 5.3812-12.375 12.019 0.0024 1.4163 0.26239 2.8211 0.76812 4.1495-1.1238 2.1049-1.7156 4.4799-1.7182 6.8963 0.0055 1.6418 0.28298 3.2699 0.81988 4.8107 0.70993-0.97034 1.8404-1.8456 3.3062-2.5598-0.13645-0.68386-0.20696-1.3811-0.2104-2.0806 0.0044-0.86844 0.11213-1.7327 0.3206-2.5715 0.51766 0.60072 1.2085 1.1107 1.9904 1.4694 2.2583 1.0322 4.6948 0.57243 5.4419-1.0269 0.74877-1.6002-0.47782-3.7355-2.7385-4.7673-0.6423-0.2926-1.3253-0.47394-1.9938-0.52933 1.1582-1.1618 2.5692-1.9899 4.1027-2.4079l-1.2039-2.7569 0.80986 0.0018 2.6867 6.1935 2.6467-6.1868 0.60948 0.0018-1.1622 2.7001c1.5183 0.37566 2.9263 1.152 4.0977 2.2593-0.78267 0.0098-1.603 0.20014-2.3678 0.54937-2.2584 1.0314-3.4845 3.1643-2.7385 4.764 0.74624 1.6002 3.183 2.0608 5.4419 1.0286 0.99911-0.45773 1.842-1.1587 2.3695-1.9704 0.3317 1.0462 0.50261 2.1438 0.50595 3.2495-0.0012 0.70266-0.06998 1.4033-0.20539 2.0906 1.4628 0.70985 2.5936 1.5798 3.3079 2.5448 0.53408-1.5396 0.80928-3.166 0.8132-4.8057-0.0055-2.4167-0.6001-4.7911-1.7266-6.8947 0.50878-1.3285 0.77165-2.7338 0.77646-4.1512-3.51e-4 -6.6382-5.5407-12.019-12.375-12.02zm-6.7427 6.5757c1.4165 0 2.5648 1.1483 2.5648 2.5648-1e-6 1.4165-1.1483 2.5648-2.5648 2.5648-1.4165-1e-6 -2.5648-1.1483-2.5648-2.5648s1.1483-2.5648 2.5648-2.5648zm13.467 0c1.4165 1e-6 2.5648 1.1483 2.5648 2.5648-1e-6 1.4165-1.1483 2.5648-2.5648 2.5648s-2.5648-1.1483-2.5648-2.5648 1.1483-2.5648 2.5648-2.5648zm-13.467 1.2824c-0.70826 0-1.2824 0.57416-1.2824 1.2824 0 0.70826 0.57416 1.2824 1.2824 1.2824 0.70826 1e-6 1.2824-0.57416 1.2824-1.2824 1e-6 -0.70826-0.57416-1.2824-1.2824-1.2824zm13.467 0c-0.70826 0-1.2824 0.57416-1.2824 1.2824 0 0.70826 0.57416 1.2824 1.2824 1.2824s1.2824-0.57416 1.2824-1.2824c1e-6 -0.70826-0.57416-1.2824-1.2824-1.2824zm-6.8847 11.133c-0.37534 0.0014-0.74939 0.04392-1.1154 0.12691 0.1258 0.33127 0.21969 0.67597 0.24713 1.0403-3.03e-4 0.44024-0.0798 0.82041-0.19537 1.1705 0.33943-0.1309 0.69988-0.1988 1.0637-0.20038 0.22203 0.0011 0.44325 0.02682 0.65958 0.07682-0.26612-0.65342-0.30402-1.3941 0.01002-2.1641-0.22186-0.0313-0.44554-0.04803-0.6696-0.05008zm-1.4828 3.186c-0.77369 1.0476-2.1756 1.461-3.6051 1.3425-0.02568 0.19939-0.03962 0.40011-0.04174 0.60113 0.0021 0.21057 0.01714 0.4208 0.04507 0.62952-4.9315 0.98706-8.1324 3.2614-8.1337 5.7792 4.11e-4 0.35594 0.06521 0.71122 0.1937 1.062h-3.9458v3.6769h-0.71468v-4.2747h3.9458v-2.4112c0-0.94728-0.76261-1.7099-1.7099-1.7099h-1.7099c-0.94728 0-1.7099 0.76261-1.7099 1.7099v6.8396c0 0.94728 0.76261 1.7099 1.7099 1.7099h1.7099c0.79251 0 1.4492-0.53661 1.6448-1.2657h6.9314c2.1116 0.61642 4.5471 0.94427 7.0333 0.94679 2.4913-0.0012 4.9324-0.32911 7.0483-0.94679h6.8446c0.17952 0.75259 0.84902 1.3108 1.6581 1.3108h1.7099c0.94728 0 1.7099-0.76261 1.7099-1.7099v-6.8396c0-0.94728-0.76261-1.7099-1.7099-1.7099h-1.7099c-0.94728 0-1.7099 0.76261-1.7099 1.7099v2.3661h3.9458v4.2747h-0.71969v-3.6769h-3.8957c0.13297-0.3506 0.20223-0.70588 0.20706-1.062-0.0029-2.5749-3.3501-4.8883-8.4459-5.8377 0.02286-0.18953 0.03512-0.38018 0.03673-0.57108-0.0016-0.21447-0.01666-0.42863-0.04507-0.64121-1.3591 0.2522-2.8075-0.27147-3.7187-1.2073l-1.3425 0.77479zm-1.4711 1.4962 1.1271 0.65123c-0.38485 0.02667-0.76705 0.06121-1.1455 0.10353-0.01195-0.102-0.01864-0.20456-0.02004-0.30725 0.0016-0.14992 0.01441-0.29951 0.0384-0.44751zm5.9128 0.02337c0.02118 0.14041 0.03234 0.28214 0.03339 0.42413-2.67e-4 0.09144-0.0047 0.18282-0.01336 0.27385-0.35634-0.03582-0.71565-0.0648-1.077-0.08684z" fill="#fff"/>
</svg>
