<svg height="48" viewBox="0 0 12.7 12.7" width="48" xmlns="http://www.w3.org/2000/svg"><path d="m3.8933005 1.1301573a2.9736545 2.973655 0 0 0 -2.9729475 2.9734671 2.9736545 2.973655 0 0 0 .6666265 1.874821h-.00103l4.7640504 5.5913976 4.7170281-5.5355865a2.9736545 2.973655 0 0 0 .02326-.027906l.02377-.027906h-.0021a2.9736545 2.973655 0 0 0 .667689-1.8748201 2.9736545 2.973655 0 0 0 -2.9734642-2.9734671 2.9736545 2.973655 0 0 0 -2.4577331 1.3006983 2.9736545 2.973655 0 0 0 -2.4551492-1.3006983zm.2025718 2.5135441h.7146858c.4639632 0 .5741252.2279652.5741252.4082445.0000003.2558709-.1657542.5312362-.7472415.5312362h-.744658zm1.9249485 0h.7141688c.4638209 0 .5741258.2279652.5741258.4082445 0 .2558709-.1654693.5313738-.747242.5312362h-.7441411zm1.7554497.8397433h.7146858c.4635354 0 .5741255.2288595.5741255.4092792 0 .2557305-.1659857.5307176-.7477585.5307176h-.744141zm-3.938264.5736094h.7146858c.4639632 0 .5741255.2289971.5741255.4092791 0 .2551591-.1656119.5312336-.7472418.5312336h-.7446581zm1.9249488 0h.7141688c.4635354 0 .5741257.2289971.5741257.4092791 0 .2551591-.1649525.5312336-.7467252.5312336h-.7451746zm1.7358128.8996874h.7146855c.4638206 0 .5741258.2278251.5741258.4082446 0 .2551618-.1656119.5312336-.747242.5312336h-.7446578zm-2.012282.5720588h.7146858c.4635353 0 .5736087.2286637.5736087.409795 0 .2551591-.1649522.5303393-.746725.5302017h-.7446581z" fill="#fff" stroke-width=".264584"/></svg>