<?xml version="1.0" encoding="utf-8"?>
<!-- Generator: Adobe Illustrator 21.1.0, SVG Export Plug-In . SVG Version: 6.00 Build 0)  -->
<svg version="1.0" id="Layer_1" xmlns="http://www.w3.org/2000/svg" xmlns:xlink="http://www.w3.org/1999/xlink" x="0px" y="0px"
	 viewBox="0 0 48 48" enable-background="new 0 0 48 48" xml:space="preserve">
<path fill="#FFFFFF" d="M38,4H10C8.9,4,8,4.9,8,6v36c0,1.1,0.9,2,2,2h28c1.1,0,2-0.9,2-2V6C40,4.9,39.1,4,38,4z M30.1,28.6L29,29.4
	l-1.3,0.5L26.8,30l0.3-1.7l-0.4-2L25.8,25l-1.2-1.5l-0.5-0.7l-0.8,0.9l-1.2,1.6l-0.6,0.9l-0.5,1.2l-0.1,1.4l0.4,1.2l-1.7-0.4
	l-2.3-1.6l-1.6-2.1l-0.6-1.8v-1.8L16,20l0.9-2.5l1.7,1l3-4.2l2.5-2.8l3.2,3.7l2.2,3.1l1.7-0.8l0.8,1.5l0.2,1.1l-1.9,0.2l-1.6,0.7
	l-0.9,1.4l-0.1,1.8l0.8,1.8l1.2,1l1.4,0.4L30.1,28.6z M31.3,25.3c-0.8,0-1.4-0.6-1.4-1.4c0-0.8,0.6-1.4,1.4-1.4s1.4,0.6,1.4,1.4
	C32.7,24.7,32.1,25.3,31.3,25.3z"/>
<polygon fill="#FCFCFC" points="40,20.4 41.4,20.4 41.9,20.8 41.9,27.1 41.5,27.6 40,27.6 "/>
</svg>
