<svg xmlns="http://www.w3.org/2000/svg" viewBox="0 0 48 48"><defs><style>.cls-1{fill:#2b2b2b;}.cls-2{fill:#fff;}</style></defs><title>survivalmanual</title><g id="Layer_2" data-name="Layer 2"><rect class="cls-1" x="-783.5" y="-445.59" width="1581.09" height="513.47"/></g><g id="Layer_1" data-name="Layer 1"><circle class="cls-2" cx="33.68" cy="23.98" r="1.19"/><path class="cls-2" d="M39.22,19H38.08V6a2,2,0,0,0-2-2H11.49V44H36.08a2,2,0,0,0,2-2V29h1.14a2.7,2.7,0,0,0,2.7-2.7V21.69A2.71,2.71,0,0,0,39.22,19ZM21.41,30.78A6.78,6.78,0,1,1,28.19,24,6.78,6.78,0,0,1,21.41,30.78ZM33.69,27a3,3,0,0,1,0-6h5.53v6Z"/><path class="cls-2" d="M24.41,20.76l-4,1.91a.76.76,0,0,0-.36.37l-1.91,4a.18.18,0,0,0,.24.24l4-1.91a.81.81,0,0,0,.36-.37l1.91-4A.18.18,0,0,0,24.41,20.76Zm-3,4a.76.76,0,1,1,.76-.76A.76.76,0,0,1,21.41,24.76Z"/><path class="cls-2" d="M6.08,6V42a2,2,0,0,0,2,2H9.49V4H8.08A2,2,0,0,0,6.08,6Z"/></g></svg>