<?xml version="1.0" encoding="UTF-8" standalone="no"?>
<svg
   xmlns:dc="http://purl.org/dc/elements/1.1/"
   xmlns:cc="http://creativecommons.org/ns#"
   xmlns:rdf="http://www.w3.org/1999/02/22-rdf-syntax-ns#"
   xmlns:svg="http://www.w3.org/2000/svg"
   xmlns="http://www.w3.org/2000/svg"
   xmlns:sodipodi="http://sodipodi.sourceforge.net/DTD/sodipodi-0.dtd"
   xmlns:inkscape="http://www.inkscape.org/namespaces/inkscape"
   width="48"
   height="48"
   viewBox="0 0 48 48"
   version="1.1"
   id="svg4"
   sodipodi:docname="swedbank.svg"
   inkscape:version="0.92.3 (2405546, 2018-03-11)">
  <metadata
     id="metadata10">
    <rdf:RDF>
      <cc:Work
         rdf:about="">
        <dc:format>image/svg+xml</dc:format>
        <dc:type
           rdf:resource="http://purl.org/dc/dcmitype/StillImage" />
        <dc:title />
      </cc:Work>
    </rdf:RDF>
  </metadata>
  <defs
     id="defs8">
    <marker
       inkscape:stockid="Scissors"
       orient="auto"
       refY="0.0"
       refX="0.0"
       id="Scissors"
       style="overflow:visible"
       inkscape:isstock="true">
      <path
         id="schere"
         d="M 9.0898857,-3.6061018 C 8.1198849,-4.7769976 6.3697607,-4.7358294 5.0623558,-4.2327734 L -3.1500488,-1.1548705 C -5.5383421,-2.4615840 -7.8983361,-2.0874077 -7.8983361,-2.7236578 C -7.8983361,-3.2209742 -7.4416699,-3.1119800 -7.5100293,-4.4068519 C -7.5756648,-5.6501286 -8.8736064,-6.5699315 -10.100428,-6.4884954 C -11.327699,-6.4958500 -12.599867,-5.5553341 -12.610769,-4.2584343 C -12.702194,-2.9520479 -11.603560,-1.7387447 -10.304005,-1.6532027 C -8.7816644,-1.4265411 -6.0857470,-2.3487593 -4.8210600,-0.082342643 C -5.7633447,1.6559151 -7.4350844,1.6607341 -8.9465707,1.5737277 C -10.201445,1.5014928 -11.708664,1.8611256 -12.307219,3.0945882 C -12.885586,4.2766744 -12.318421,5.9591904 -10.990470,6.3210002 C -9.6502788,6.8128279 -7.8098011,6.1912892 -7.4910978,4.6502760 C -7.2454393,3.4624530 -8.0864637,2.9043186 -7.7636052,2.4731223 C -7.5199917,2.1477623 -5.9728246,2.3362771 -3.2164999,1.0982979 L 5.6763468,4.2330688 C 6.8000164,4.5467672 8.1730685,4.5362646 9.1684433,3.4313614 L -0.051640930,-0.053722219 L 9.0898857,-3.6061018 z M -9.2179159,-5.5066058 C -7.9233569,-4.7838060 -8.0290767,-2.8230356 -9.3743431,-2.4433169 C -10.590861,-2.0196559 -12.145370,-3.2022863 -11.757521,-4.5207817 C -11.530373,-5.6026336 -10.104134,-6.0014137 -9.2179159,-5.5066058 z M -9.1616516,2.5107591 C -7.8108215,3.0096239 -8.0402087,5.2951947 -9.4138723,5.6023681 C -10.324932,5.9187072 -11.627422,5.4635705 -11.719569,4.3902287 C -11.897178,3.0851737 -10.363484,1.9060805 -9.1616516,2.5107591 z "
         style="fill:#000000;stroke:#000000;stroke-opacity:0.94206549;fill-opacity:0.94206549" />
    </marker>
    <marker
       inkscape:stockid="Arrow2Send"
       orient="auto"
       refY="0.0"
       refX="0.0"
       id="Arrow2Send"
       style="overflow:visible;"
       inkscape:isstock="true">
      <path
         id="path4796"
         style="fill-rule:evenodd;stroke-width:0.625;stroke-linejoin:round;stroke:#000000;stroke-opacity:0.94206549;fill:#000000;fill-opacity:0.94206549"
         d="M 8.7185878,4.0337352 L -2.2072895,0.016013256 L 8.7185884,-4.0017078 C 6.9730900,-1.6296469 6.9831476,1.6157441 8.7185878,4.0337352 z "
         transform="scale(0.3) rotate(180) translate(-2.3,0)" />
    </marker>
  </defs>
  <sodipodi:namedview
     pagecolor="#ffffff"
     bordercolor="#666666"
     borderopacity="1"
     objecttolerance="10"
     gridtolerance="10"
     guidetolerance="10"
     inkscape:pageopacity="0"
     inkscape:pageshadow="2"
     inkscape:window-width="1920"
     inkscape:window-height="1037"
     id="namedview6"
     showgrid="false"
     inkscape:pagecheckerboard="true"
     inkscape:zoom="11.313709"
     inkscape:cx="46.539536"
     inkscape:cy="16.90492"
     inkscape:window-x="1920"
     inkscape:window-y="43"
     inkscape:window-maximized="1"
     inkscape:current-layer="svg4"
     showguides="true"
     inkscape:guide-bbox="true">
    <inkscape:grid
       type="xygrid"
       id="grid4749"
       empspacing="4" />
  </sodipodi:namedview>
  <path
     style="opacity:1;fill:#ffffff;fill-opacity:1"
     d="M 23.875 2.0546875 A 22 22 0 0 0 1.875 24.054688 A 22 22 0 0 0 23.875 46.054688 A 22 22 0 0 0 45.875 24.054688 A 22 22 0 0 0 23.875 2.0546875 z M 25.941406 8.6347656 C 26.53675 8.8478557 26.77417 10.19029 27.433594 10.408203 C 27.857693 10.548322 28.263035 10.573695 28.765625 10.546875 C 28.938245 10.537675 29.023281 10.021781 29.232422 9.9824219 C 29.848164 9.8665416 30.367748 10.344269 30.867188 10.974609 C 31.013972 11.159862 30.795133 11.406779 30.876953 11.697266 C 31.073433 12.395185 31.472925 13.285454 31.769531 13.746094 C 31.882821 13.922035 31.746404 14.130192 31.833984 14.285156 C 32.101705 14.758869 32.984614 14.561607 33.052734 14.921875 C 33.114074 15.246274 32.318409 15.794876 32.601562 16.109375 C 32.795172 16.324417 33.581809 15.869601 33.847656 15.875 C 34.151112 15.8812 34.410211 16.411996 34.876953 16.65625 C 35.573745 17.020894 36.474703 17.196507 36.59375 17.654297 C 36.79254 18.418734 35.803175 18.46398 35.90625 18.951172 C 36.009325 19.438364 37.026993 19.455825 37.101562 19.890625 C 37.132762 20.072538 36.346764 20.551267 36.568359 20.882812 C 36.856704 21.314228 37.541811 20.599676 37.820312 20.691406 C 38.060153 20.770396 37.917072 21.413212 38.181641 21.677734 C 38.548286 22.044319 39.268796 22.111729 39.222656 22.613281 C 39.132156 23.597056 36.804876 23.373174 36.853516 24.220703 C 36.866366 24.444588 37.191651 24.418121 37.541016 24.494141 C 37.705396 24.529911 37.567666 24.915301 38.035156 24.962891 C 38.350637 24.995001 38.610335 24.54262 38.945312 24.5625 C 39.668338 24.6054 40.873514 25.677289 40.679688 26.214844 C 40.55713 26.554745 40.085377 26.268753 39.664062 26.394531 C 39.516649 26.438541 39.537571 26.789463 39.314453 26.845703 C 38.92123 26.944823 38.480944 27.062951 38.248047 26.994141 C 38.055029 26.937111 38.107047 26.591716 37.857422 26.541016 C 37.785872 26.526486 37.561605 26.644008 37.376953 26.755859 C 37.228359 26.845869 37.00967 26.726292 36.96875 26.826172 C 36.87499 27.055057 37.409072 27.257856 37.222656 27.359375 C 37.081515 27.436235 35.995948 27.530607 35.697266 27.460938 C 35.443812 27.401817 35.116072 26.673918 34.375 26.648438 C 33.615003 26.622308 33.532042 27.547748 32.925781 27.486328 C 32.436283 27.436738 32.347226 26.622639 31.984375 26.623047 C 31.621524 26.623455 31.630068 27.232657 31.324219 27.232422 C 31.01837 27.232187 31.086106 26.745748 30.638672 26.597656 C 30.191238 26.449564 29.270374 27.102311 28.755859 26.800781 C 28.241344 26.499251 28.531019 25.578501 28.095703 25.25 C 27.896622 25.09977 26.888555 24.569784 26.691406 24.640625 C 26.57697 24.681745 26.254424 24.956165 26.214844 25.859375 C 26.175264 26.762584 26.421348 29.104774 27.205078 29.902344 C 27.707495 30.413634 29.401811 30.634643 29.494141 31.021484 C 28.410691 30.943514 26.641972 30.827676 26.392578 31.015625 C 26.275996 31.316894 26.746009 32.154528 26.824219 32.34375 C 24.685354 30.895223 22.188009 31.264574 20.880859 32.183594 C 20.633063 31.589915 21.46611 31.37005 21.046875 30.96875 C 20.763943 30.753468 18.955817 30.999813 17.931641 30.945312 C 19.028559 30.168157 19.526011 30.401048 20.144531 29.933594 C 20.820098 29.423027 21.818552 25.013056 20.804688 24.671875 C 20.129069 24.444519 20.436066 24.915482 19.888672 24.976562 C 19.341278 25.037643 18.893348 25.053773 18.671875 25.291016 C 18.331891 25.655203 18.909358 26.410481 19.044922 26.591797 C 18.405792 27.006295 16.802478 26.591421 16.474609 26.652344 C 16.187335 26.705714 16.452369 27.457669 16.271484 27.59375 C 16.027864 27.777023 15.577119 27.435989 15.292969 27.435547 C 15.008819 27.435106 14.805193 27.682934 14.353516 27.740234 C 13.901839 27.797534 13.780645 27.058254 13.375 26.964844 C 12.969357 26.871434 12.803668 27.512821 12.498047 27.556641 C 12.192426 27.600461 12.213111 27.414503 12.070312 27.408203 C 11.927518 27.401903 11.826702 27.543427 11.640625 27.5 C 11.454553 27.45657 11.602705 27.239018 11.410156 27.136719 C 11.217609 27.034419 10.995078 27.15524 10.876953 27.125 C 10.758828 27.09476 11.245483 26.458859 11.111328 26.158203 C 10.977141 25.857587 10.701126 25.695575 10.248047 25.695312 C 9.794968 25.695049 9.387244 26.38973 8.7167969 26.513672 C 8.5132268 26.551305 8.4069071 26.0754 8.0976562 26.09375 C 7.8759672 26.106908 7.8921646 26.454331 7.75 26.597656 C 7.5380731 26.811313 7.0293218 26.675935 6.9101562 26.546875 C 6.7957304 26.422949 7.1997215 26.240422 7.2265625 26.011719 C 7.2562425 25.758819 6.9174418 25.457709 6.9804688 25.275391 C 7.0423738 25.096319 7.4012164 25.165259 7.4882812 25.042969 C 7.5700183 24.928161 7.3468481 24.554859 7.515625 24.511719 C 7.8225636 24.433269 8.6170531 24.463588 8.6582031 24.066406 C 8.7113761 23.553219 7.8187079 23.665995 7.7949219 23.546875 C 7.7651029 23.397541 8.1496345 22.352882 8.5644531 22.294922 C 8.9792723 22.236962 8.9510984 23.031621 9.3320312 23 C 9.7129644 22.96838 9.4812916 21.960984 10.121094 21.958984 C 10.79601 21.956884 10.600396 22.740812 11.042969 22.669922 C 11.24288 22.637902 11.284177 22.283433 11.470703 22.080078 C 11.637262 21.89849 12.060173 21.77817 11.970703 21.435547 C 11.841149 20.939418 10.757687 21.167561 10.572266 20.806641 C 10.386845 20.445721 10.55114 20.116638 10.75 19.923828 C 10.94886 19.731014 11.358082 20.007469 11.503906 19.75 C 11.627842 19.531177 11.133649 18.976681 11.105469 18.867188 C 11.067939 18.721338 11.325256 18.620615 11.169922 18.484375 C 10.85904 18.2117 10.781074 17.723759 10.984375 17.546875 C 11.148113 17.404415 11.561294 17.520185 11.646484 17.351562 C 11.829208 16.989891 11.671114 16.170035 11.779297 16.052734 C 11.91119 15.909723 12.237693 16.032704 12.451172 15.882812 C 12.803422 15.635473 13.073966 15.44472 13.482422 15.570312 C 13.716345 15.642243 13.772577 16.599021 14.369141 16.427734 C 15.067676 16.227168 14.377441 15.863136 14.513672 15.398438 C 14.657375 14.908091 15.646455 14.124759 15.84375 14.130859 C 16.135899 14.139859 16.590889 14.898549 16.890625 14.648438 C 17.710237 13.964522 16.803154 12.690446 16.865234 12.365234 C 16.932884 12.010885 17.564019 11.799182 17.599609 11.572266 C 17.645059 11.282476 17.615589 11.290325 17.767578 11.146484 C 17.977437 10.947881 18.396963 11.160604 18.636719 11.021484 C 18.800452 10.926474 18.783694 10.473123 18.935547 10.376953 C 19.152727 10.239414 19.514518 10.294854 19.712891 10.167969 C 19.856326 10.076229 19.828191 9.7968042 20.009766 9.7226562 C 20.264497 9.6186342 20.621581 9.7405306 20.929688 9.6816406 C 21.144945 9.6404976 21.309184 9.4136029 21.517578 9.3730469 C 21.83716 9.3108529 22.209568 9.5259879 22.533203 9.4804688 C 22.722669 9.4538208 22.8669 9.1735094 23.048828 9.1308594 C 23.285072 9.0754764 23.578257 9.3682692 23.800781 9.2851562 C 24.042331 9.1949373 24.213603 8.7288309 24.466797 8.6855469 C 24.782265 8.6316169 25.061025 8.831115 25.378906 8.828125 C 25.551191 8.826505 25.765646 8.5718566 25.941406 8.6347656 z M 12.603516 32.134766 C 12.832144 32.136019 13.072231 32.223673 13.263672 32.40625 C 13.518926 32.649686 13.687431 33.037056 13.744141 33.578125 L 13.148438 33.640625 C 13.101645 33.194189 12.96746 32.954191 12.849609 32.841797 C 12.731758 32.729397 12.62861 32.719041 12.53125 32.744141 C 12.433895 32.769244 12.351655 32.843011 12.320312 32.931641 C 12.28897 33.020276 12.284029 33.132205 12.421875 33.306641 C 12.702503 33.661757 12.817353 34.02186 12.751953 34.339844 C 12.686551 34.657828 12.41686 34.895813 12.111328 34.939453 C 11.500264 35.026732 10.838349 34.479277 10.615234 33.330078 L 11.205078 33.214844 C 11.394096 34.188419 11.858908 34.369763 12.027344 34.345703 C 12.111562 34.333674 12.145952 34.30682 12.164062 34.21875 C 12.182178 34.130685 12.158649 33.942236 11.951172 33.679688 C 11.712386 33.377524 11.652209 33.020008 11.753906 32.732422 C 11.855604 32.444836 12.095262 32.235749 12.380859 32.162109 C 12.452259 32.143699 12.527306 32.134348 12.603516 32.134766 z M 35.107422 32.212891 C 35.452407 32.226717 35.810322 32.371545 36.099609 32.625 C 36.678185 33.131911 36.860933 33.971013 36.390625 34.507812 C 35.920316 35.04461 35.064904 34.973707 34.486328 34.466797 C 33.907753 33.959887 33.725003 33.122737 34.195312 32.585938 C 34.430467 32.317538 34.762436 32.199064 35.107422 32.212891 z M 35.107422 32.816406 C 34.916533 32.805851 34.749648 32.866902 34.648438 32.982422 C 34.446016 33.213461 34.496833 33.679167 34.880859 34.015625 C 35.264886 34.352083 35.737032 34.34432 35.939453 34.113281 C 36.141873 33.882243 36.089105 33.41263 35.705078 33.076172 C 35.513065 32.907944 35.298311 32.826962 35.107422 32.816406 z M 14.634766 34.222656 L 15.085938 34.619141 L 13.394531 36.541016 L 12.945312 36.146484 L 14.634766 34.222656 z M 32.648438 34.400391 C 32.917107 34.396457 33.179125 34.486175 33.376953 34.666016 C 33.574339 34.845451 33.694689 35.142491 33.630859 35.447266 L 33.4375 36.509766 L 34.326172 35.802734 L 34.701172 36.271484 L 33.1875 37.478516 A 0.30003001 0.30003001 0 0 1 32.705078 37.189453 L 33.041016 35.333984 A 0.30003001 0.30003001 0 0 1 33.042969 35.324219 C 33.065489 35.218066 33.040376 35.170935 32.972656 35.109375 C 32.904937 35.047813 32.781177 35.000153 32.658203 35.001953 C 32.53523 35.003754 32.423141 35.045958 32.337891 35.142578 C 32.252639 35.239197 32.177959 35.406621 32.193359 35.714844 L 31.59375 35.744141 C 31.572641 35.321684 31.682964 34.977283 31.888672 34.744141 C 32.094379 34.510998 32.379767 34.404291 32.648438 34.400391 z M 16.21875 35.326172 A 0.30003001 0.30003001 0 0 1 16.539062 35.582031 L 16.839844 37.658203 L 17.685547 36.255859 L 18.199219 36.564453 L 16.917969 38.6875 A 0.30003001 0.30003001 0 0 1 16.365234 38.574219 L 16.0625 36.482422 L 15.203125 37.871094 L 14.693359 37.556641 L 15.986328 35.466797 A 0.30003001 0.30003001 0 0 1 16.21875 35.326172 z M 30.28125 36.025391 C 30.369423 36.036799 30.458039 36.063058 30.544922 36.109375 C 30.718688 36.202009 30.852576 36.381542 30.910156 36.59375 C 30.949 36.736907 30.951032 36.903393 30.9375 37.083984 C 31.128126 37.144882 31.295451 37.215796 31.419922 37.318359 C 31.599089 37.465989 31.703569 37.688393 31.693359 37.896484 C 31.672943 38.312667 31.359593 38.585805 31.033203 38.769531 C 30.706814 38.953261 30.307657 39.083979 29.949219 38.861328 C 29.77 38.750003 29.652566 38.532856 29.634766 38.300781 C 29.623426 38.152945 29.652734 37.987863 29.699219 37.810547 C 29.558821 37.761986 29.432954 37.704295 29.332031 37.626953 C 29.160437 37.495453 29.049696 37.301422 29.035156 37.107422 C 29.006071 36.719421 29.260716 36.427842 29.542969 36.238281 C 29.754658 36.096114 30.016732 35.991165 30.28125 36.025391 z M 30.115234 36.638672 C 30.044359 36.652737 29.958612 36.683439 29.876953 36.738281 C 29.713632 36.847965 29.629413 37.01667 29.632812 37.0625 C 29.634522 37.08542 29.633136 37.101251 29.697266 37.150391 C 29.750356 37.191076 29.868452 37.24194 30.033203 37.283203 L 30.333984 37.113281 C 30.351586 36.94943 30.348935 36.819497 30.330078 36.75 C 30.305998 36.661292 30.285232 36.650162 30.263672 36.638672 C 30.242113 36.627179 30.18611 36.624607 30.115234 36.638672 z M 27.875 36.847656 L 28.638672 39.503906 L 28.0625 39.669922 L 27.5 37.71875 L 27.146484 37.902344 L 26.869141 37.371094 L 27.875 36.847656 z M 20.121094 37.064453 C 20.212078 37.070895 20.302891 37.085867 20.390625 37.109375 C 20.741563 37.203409 21.055216 37.430202 21.25 37.767578 L 20.730469 38.068359 C 20.503032 37.674431 20.009166 37.542094 19.615234 37.769531 C 19.221306 37.996968 19.08897 38.490834 19.316406 38.884766 C 19.543843 39.278694 20.037709 39.41103 20.431641 39.183594 L 20.732422 39.703125 C 20.057669 40.092694 19.186444 39.8603 18.796875 39.185547 C 18.407306 38.510794 18.6397 37.639569 19.314453 37.25 C 19.567486 37.103911 19.848142 37.045128 20.121094 37.064453 z M 22.296875 37.5 L 22.554688 37.507812 L 22.796875 37.515625 L 24.328125 37.5625 L 24.3125 38.0625 L 22.78125 38.015625 L 22.757812 38.677734 L 24.099609 38.710938 L 24.087891 39.210938 L 22.742188 39.177734 L 22.720703 39.845703 L 24.285156 39.894531 L 24.269531 40.394531 L 22.703125 40.345703 L 22.703125 40.351562 L 22.203125 40.335938 L 22.296875 37.5 z M 30.642578 37.626953 L 30.333984 37.800781 C 30.267752 38.000695 30.226322 38.176759 30.232422 38.255859 C 30.239662 38.350259 30.253135 38.343762 30.265625 38.351562 C 30.290605 38.367081 30.522737 38.369377 30.738281 38.248047 C 30.953825 38.126716 31.09125 37.917656 31.09375 37.867188 C 31.09499 37.841948 31.105252 37.83579 31.039062 37.78125 C 30.984844 37.736573 30.826938 37.677843 30.642578 37.626953 z "
     id="circle2" />
</svg>
