<svg xmlns:rdf="http://www.w3.org/1999/02/22-rdf-syntax-ns#" xmlns="http://www.w3.org/2000/svg" height="48" viewBox="0 0 48 48" width="48" version="1.1" xmlns:cc="http://creativecommons.org/ns#" xmlns:dc="http://purl.org/dc/elements/1.1/">
 <path fill="#fff" d="m24 2a22 22 0 0 0 -22 22 22 22 0 0 0 22 22 22 22 0 0 0 22 -22 22 22 0 0 0 -22 -22zm-0.8 9.7c3.4 0 6.6 0.3 10.9 2.1 2.6 1.1 3.7 2.2 4.8 3.5 1.1 1.2 1.8 3.1 1.9 5.2 0 2.1-0.2 2.9-0.5 4.4-0.4-3.3-0.6-5.1-2.3-7.3-1.7-2.1-4.1-3.8-7.1-4.9-2.9-1.2-4.8-1.5-7.9-2-2.1-0.3-6.2-0.5-8.1-0.5 0.7-0.1 1.4-0.3 2.3-0.3 1.7-0.2 3.8-0.3 6-0.2zm-9.6 1.6c0.4-0.1 0.9-0.1 1.5 0 0.7 0 1.4 0 2.1 0.1 3 0.3 7.4 0.6 11.7 2.5 2.6 1.1 5.3 2.6 7.3 4.9 1.9 2.2 2 3.6 2.2 5.7s-0.3 3.8-0.6 4.9c-0.2-1.6-0.3-2.8-0.8-4.3-0.5-1.4-1.3-2.9-2.5-4.2-2.2-2.6-5.1-4.6-9.3-6.1-2.5-1-5.4-1.9-8.5-2.4-2.1-0.4-4.8-0.7-6.6-0.9 0.8-0.1 2-0.2 3.5-0.2zm-6.39 1.4c1.02 0 1.94 0 2.89 0.1 4.9 0.5 9.8 1.7 14.4 3.6 2.7 1.2 5.3 2.8 7.4 5 2.4 2.3 3.6 5.4 3.4 8.7 0 0.5-0.1 1.6-0.2 1.9-0.7-2.6-2.2-5.2-3.9-7.3-3-3.4-6.9-5.9-11.1-7.7-4.5-2-9.2-3.3-14-4.3h1.11zm19.5 10.5c0.9 0.5 1.7 1.3 2.3 1.9-1.4 1-3.1 1.9-4.8 2.6-4.5 2-9.4 3-14.4 3.5-1.24 0.1-2.45 0.2-3.93 0.1 4.73-1 9.53-2.3 13.9-4.3 2.4-1 4.7-2.3 6.9-3.8zm3.5 3.5c0.6 0.5 1.2 1.3 1.6 2-1 0.6-2.4 1.2-5.1 2.1-2.6 0.9-6.6 1.4-9.6 1.7-2.9 0.3-5.8 0.2-7.28 0 1.88-0.2 4.58-0.5 6.58-0.9 3.1-0.5 6-1.4 8.6-2.4 2-0.7 3.7-1.6 5.2-2.5zm2.3 3.9c0.3 0.6 0.6 1.3 0.8 1.9-4 1.7-7.1 1.9-10.3 1.9-3.3 0-6.3-0.1-8.4-0.6 2 0 6-0.1 8.1-0.5 3.1-0.5 5-0.8 8-2 0.6-0.2 1.2-0.4 1.8-0.7z"/>
</svg>
