<?xml version="1.0" encoding="UTF-8" standalone="no"?>
<svg
   xmlns:dc="http://purl.org/dc/elements/1.1/"
   xmlns:cc="http://creativecommons.org/ns#"
   xmlns:rdf="http://www.w3.org/1999/02/22-rdf-syntax-ns#"
   xmlns:svg="http://www.w3.org/2000/svg"
   xmlns="http://www.w3.org/2000/svg"
   xmlns:sodipodi="http://sodipodi.sourceforge.net/DTD/sodipodi-0.dtd"
   xmlns:inkscape="http://www.inkscape.org/namespaces/inkscape"
   width="48"
   height="48"
   viewBox="0 0 48 48"
   version="1.1"
   id="svg4"
   sodipodi:docname="swish.svg"
   inkscape:version="0.92.3 (2405546, 2018-03-11)"
   inkscape:export-filename="/home/tim/frost/other/swish.svg.png"
   inkscape:export-xdpi="1024"
   inkscape:export-ydpi="1024">
  <metadata
     id="metadata10">
    <rdf:RDF>
      <cc:Work
         rdf:about="">
        <dc:format>image/svg+xml</dc:format>
        <dc:type
           rdf:resource="http://purl.org/dc/dcmitype/StillImage" />
        <dc:title />
      </cc:Work>
    </rdf:RDF>
  </metadata>
  <defs
     id="defs8" />
  <sodipodi:namedview
     pagecolor="#ffffff"
     bordercolor="#666666"
     borderopacity="1"
     objecttolerance="10"
     gridtolerance="10"
     guidetolerance="10"
     inkscape:pageopacity="0"
     inkscape:pageshadow="2"
     inkscape:window-width="1920"
     inkscape:window-height="1037"
     id="namedview6"
     showgrid="true"
     inkscape:pagecheckerboard="true"
     inkscape:snap-object-midpoints="true"
     showguides="true"
     inkscape:guide-bbox="true"
     inkscape:object-paths="false"
     inkscape:snap-intersection-paths="true"
     inkscape:snap-smooth-nodes="true"
     inkscape:zoom="16"
     inkscape:cx="18.235181"
     inkscape:cy="24.157534"
     inkscape:window-x="1920"
     inkscape:window-y="43"
     inkscape:window-maximized="1"
     inkscape:current-layer="svg4">
    <inkscape:grid
       type="xygrid"
       id="grid819"
       empspacing="4" />
  </sodipodi:namedview>
  <path
     style="fill:#ffffff"
     d="M 24 2 C 11.849736 2 2 11.849736 2 24 C 2 30.075132 4.4621424 35.575424 8.4433594 39.556641 L 15.515625 32.488281 C 12.438083 29.411732 10.535156 25.160257 10.535156 20.464844 C 10.535156 11.076003 18.146315 3.4648437 27.535156 3.4648438 C 32.229576 3.4648438 36.480246 5.3669642 39.556641 8.4433594 C 35.575424 4.4621425 30.075132 2 24 2 z "
     id="circle2" />
  <path
     id="path831"
     d="M 24,46 C 36.150264,46 46,36.150264 46,24 46,17.924868 43.537858,12.424576 39.556641,8.443359 l -7.072266,7.06836 c 3.077542,3.076549 4.980469,7.328024 4.980469,12.023437 0,9.388841 -7.611159,17 -17,17 -4.69442,0 -8.94509,-1.90212 -12.021485,-4.978515 C 12.424576,43.537857 17.924868,46 24,46 Z"
     style="fill:#ffffff"
     inkscape:connector-curvature="0" />
</svg>
