<svg width="48" height="48" version="1.1" viewBox="0 0 48 48" xmlns="http://www.w3.org/2000/svg">
 <path d="m7 5c-1.108 0-2 0.892-2 2v34c0 1.108 0.892 2 2 2h34c1.108 0 2-0.892 2-2v-34c0-1.108-0.892-2-2-2h-34zm13.602 8.0352c1.1585-0.005402 2.7019 0.001617 4.7793 0.009766 7.3862 0.02897 7.4359 0.031394 7.8555 0.25781 0.55273 0.29826 0.93998 0.71709 1.2051 1.3027 0.20826 0.46007 0.21455 0.66604 0.2168 6.5703l0.001953 6.0957h-6.916-6.918l0.029297-1.1348 0.03125-1.1348 11.453-0.054687v-4.8535-4.8555h-7.125-7.125v2.5859 2.5859h-1.2207-1.2207l0.033203-2.7168c0.03694-3.0544 0.063111-3.1821 0.85156-3.9473 0.58051-0.56337 0.59293-0.69473 4.0684-0.71094zm-4.8867 8.5898c2.6628 0 2.8719 0.013687 3.1992 0.21094 0.19269 0.11611 0.44259 0.36 0.55469 0.54102 0.19465 0.31432 0.20312 0.57926 0.20312 5.8965 0 5.4556-0.004042 5.5755-0.2207 5.9609-0.43116 0.76715-0.54475 0.79335-3.6309 0.82422-2.4922 0.02493-2.7844 0.009105-3.1719-0.16992-0.23466-0.10845-0.51914-0.33405-0.63281-0.50195-0.19791-0.29231-0.20939-0.54569-0.23633-5.9531-0.031479-6.3186-0.049188-6.1497 0.71484-6.5938 0.34669-0.20148 0.54627-0.21484 3.2207-0.21484zm-3.0098 1.9531v4.3809 4.3809h2.9551 2.957v-4.3809-4.3809h-2.957-2.9551zm8.1289 4.3281 13.881 0.003906 0.76367 1.4062c0.66917 1.2299 0.76562 1.4753 0.76562 1.9512v0.54297h-7.6348c-4.1994 0-7.6664-0.031613-7.7051-0.070313-0.0387-0.0387-0.070313-0.9178-0.070313-1.9531v-1.8809zm-5.1953 5.0859c-0.20491 0.031579-0.4066 0.14081-0.53711 0.31641-0.18745 0.25221-0.19495 0.321-0.072265 0.61719 0.12568 0.3034 0.39142 0.50019 0.69726 0.51758 0.064741 0.0037 0.24156-0.092569 0.39453-0.21289 0.3418-0.26886 0.38164-0.81711 0.078125-1.0918-0.14681-0.13286-0.35563-0.17806-0.56055-0.14648z" fill="#fff"/>
</svg>
