<?xml version="1.0" encoding="UTF-8"?>
<svg version="1.1" viewBox="0 0 48 48" xmlns="http://www.w3.org/2000/svg">
    <path d="m5 9.2773v0.082031c17.711 2.3128 16.292 20.151 22.734 29.162l5.9316 0.07422c-0.56888-0.3546-1.8459-2.1175-2.2925-2.6177l1.0664-0.90625c0.47307 0.51818 1.7917 2.2827 2.4233 2.5923l-0.52539 0.94141 7.8926 0.09961c-9.8093-8.1272-16.422-29.428-29.426-29.428zm8.2676 0.70508c1.3375 0.56019 2.7945 1.0055 4 1.8145l-0.54297 0.86914c-1.121-0.754-2.3306-1.2581-3.5723-1.7852zm7.207 4.752c1.0321 1.0003 1.9602 2.1055 2.8105 3.2637l-1.0449 0.6582c-0.83018-1.3912-1.3927-2.2749-2.3691-3.2246zm5.1133 6.8594c0.67812 1.251 1.3475 2.5089 1.9375 3.8047l-1.2656 0.59766c-0.57077-1.2527-1.2201-2.4681-1.8711-3.6797zm2.9297 5.5117 6.293 5.0586-0.29688 0.88867-3.7637 0.11719-2.7012 2.4668-0.83594-0.40039 0.49219-7.7734z" fill="#fff"/>
</svg>
