<?xml version="1.0" encoding="UTF-8" standalone="no"?>
<svg
   xmlns:dc="http://purl.org/dc/elements/1.1/"
   xmlns:cc="http://creativecommons.org/ns#"
   xmlns:rdf="http://www.w3.org/1999/02/22-rdf-syntax-ns#"
   xmlns:svg="http://www.w3.org/2000/svg"
   xmlns="http://www.w3.org/2000/svg"
   id="svg3773"
   version="1.1"
   viewBox="0 0 48 48"
   height="48"
   width="48">
  <metadata
     id="metadata3779">
    <rdf:RDF>
      <cc:Work
         rdf:about="">
        <dc:format>image/svg+xml</dc:format>
        <dc:type
           rdf:resource="http://purl.org/dc/dcmitype/StillImage" />
        <dc:title></dc:title>
      </cc:Work>
    </rdf:RDF>
  </metadata>
  <defs
     id="defs3777">
    <linearGradient
       gradientTransform="matrix(2.75,0,0,2.75,1.9274815,2.423075)"
       y2="16"
       x2="8"
       y1="0"
       x1="8"
       gradientUnits="userSpaceOnUse"
       id="grad">
      <stop
         id="stop2"
         style="stop-color:#26B6DB"
         offset="0" />
      <stop
         id="stop4"
         style="stop-color:#0882C8"
         offset="1" />
    </linearGradient>
  </defs>
  <path
     id="outer"
     d="M 23.927734 2.4238281 A 22 22 0 0 0 1.9277344 24.423828 A 22 22 0 0 0 23.927734 46.423828 A 22 22 0 0 0 45.927734 24.423828 A 22 22 0 0 0 23.927734 2.4238281 z M 23.927734 6.8476562 A 17.502501 17.502501 0 0 1 37.9375 13.894531 A 3.3499999 3.3499999 0 0 1 38.501953 13.845703 A 3.3499999 3.3499999 0 0 1 41.851562 17.195312 A 3.3499999 3.3499999 0 0 1 40.771484 19.654297 A 17.502501 17.502501 0 0 1 41.431641 24.349609 A 17.502501 17.502501 0 0 1 37.40625 35.490234 A 3.3499999 3.3499999 0 0 1 37.691406 36.833984 A 3.3499999 3.3499999 0 0 1 34.341797 40.183594 A 3.3499999 3.3499999 0 0 1 32.474609 39.613281 A 17.502501 17.502501 0 0 1 23.927734 41.851562 A 17.502501 17.502501 0 0 1 8.0429688 31.652344 A 3.3499999 3.3499999 0 0 1 4.7949219 28.308594 A 3.3499999 3.3499999 0 0 1 6.4785156 25.40625 A 17.502501 17.502501 0 0 1 6.4257812 24.349609 A 17.502501 17.502501 0 0 1 23.927734 6.8476562 z M 23.927734 9.0957031 A 15.2535 15.2535 0 0 0 8.6738281 24.349609 A 15.2535 15.2535 0 0 0 8.6972656 25.007812 A 3.3499999 3.3499999 0 0 1 11.181641 26.908203 L 23.988281 25.730469 A 3.3499999 3.3499999 0 0 1 27.220703 23.240234 A 3.3499999 3.3499999 0 0 1 28.886719 23.6875 L 35.361328 18.349609 A 3.3499999 3.3499999 0 0 1 35.152344 17.195312 A 3.3499999 3.3499999 0 0 1 35.970703 15.001953 A 15.2535 15.2535 0 0 0 23.927734 9.0957031 z M 36.802734 20.076172 L 30.349609 25.396484 A 3.3499999 3.3499999 0 0 1 30.570312 26.589844 A 3.3499999 3.3499999 0 0 1 29.923828 28.564453 L 33.482422 33.601562 A 3.3499999 3.3499999 0 0 1 34.341797 33.484375 A 3.3499999 3.3499999 0 0 1 35.845703 33.845703 A 15.2535 15.2535 0 0 0 39.181641 24.349609 A 15.2535 15.2535 0 0 0 38.685547 20.539062 A 3.3499999 3.3499999 0 0 1 38.501953 20.544922 A 3.3499999 3.3499999 0 0 1 36.802734 20.076172 z M 24.175781 27.972656 L 11.380859 29.148438 A 3.3499999 3.3499999 0 0 1 10.191406 30.957031 A 15.2535 15.2535 0 0 0 23.927734 39.603516 A 15.2535 15.2535 0 0 0 31.130859 37.78125 A 3.3499999 3.3499999 0 0 1 30.992188 36.833984 A 3.3499999 3.3499999 0 0 1 31.628906 34.876953 L 28.0625 29.830078 A 3.3499999 3.3499999 0 0 1 27.220703 29.939453 A 3.3499999 3.3499999 0 0 1 24.175781 27.972656 z "
     style="fill:#ffffff;stroke-width:2.75;fill-opacity:1;opacity:0.99" />
</svg>
