<?xml version="1.0" encoding="UTF-8"?>
<svg version="1.1" viewBox="0 0 48 48" xmlns="http://www.w3.org/2000/svg">
    <path d="m24 2a22 22 0 0 0-22 22 22 22 0 0 0 22 22 22 22 0 0 0 22-22 22 22 0 0 0-22-22zm0 4.0996c2.77 0 5 2.23 5 5v3.3848c0.55107 0.14684 1.0624 0.31497 1.5 0.51562v7c-3.2633 2.4337-10.139 2.1196-13 0v-7c0.41198-0.22054 0.9329-0.39721 1.5-0.55273v-3.3477c0-2.77 2.23-5 5-5zm0 1.6914c-1.939 0-3.5 1.784-3.5 4v2.3379c2.1531-0.33562 4.7725-0.33008 7 0.033203v-2.3711c0-2.216-1.561-4-3.5-4zm0 7.9219c-0.82843 0-1.5 0.67157-1.5 1.5 7.96e-4 0.42587 0.18258 0.83132 0.5 1.1152v2.873c0 0.554 0.446 1 1 1s1-0.446 1-1v-2.873c0.31742-0.28391 0.4992-0.68937 0.5-1.1152 0-0.82843-0.67157-1.5-1.5-1.5zm-14.801 10.766 4.9609 0.035156c6.988 0.050272 7.1963 11.387 0 11.387h-4.9609v-11.422zm11.422 0h3.1699l-0.10156 4.3105 2.7129-4.3105h3.5762l-3.2227 5.4395 3.4531 5.9824h-3.7578l-2.7617-4.7832v4.7832h-3.0684v-11.422zm10.637 0h4.7461c4.4322 0 4.3585 5.3607 0.96484 5.3535 4.4312-0.035694 3.5808 6.0684 0 6.0684h-5.7109v-11.422zm3.1406 2.498v2.1777h0.76758c1.7504 0 1.7222-2.1777 0-2.1777h-0.76758zm-21.117 0.28125-1.041 0.042969v5.8516h1.041c3.7709 0 3.6407-5.8945 0-5.8945zm21.082 3.6797v2.5352h0.89258c2.0374 0 2.0045-2.5352 0-2.5352h-0.89258z" fill="#fff"/>
</svg>
