<?xml version="1.0" encoding="UTF-8"?>
<svg version="1.1" viewBox="0 0 48 48" xmlns="http://www.w3.org/2000/svg">
    <path d="m15.041 5c-5.5236-0.072968-9.9796 3.5317-10.041 7.7207l0.052734 9.5566c1.18e-5 2.8927 1.5097 5.5677 3.957 7.0137 0.20125 0.09395 0.4038 0.1622 0.60547 0.24414v-5.1406h1.2148v5.5625c0.49086 0.14023 0.97652 0.24517 1.457 0.31055v-2.3926h0.9707v2.4707c0.19882 0.0055 0.40086 0.02407 0.5957 0.01563h0.61914v-4.9727h1.2148v4.9727h1.457v-2.4863h0.9707v2.4863h1.2148v-4.9727h1.2148v4.9727h1.457v-2.4863h0.9707v2.4863h1.2148v-4.9727h1.2148v4.9727h1.457v-2.4863h0.9707v2.4863h1.2148v-4.9727h1.2148v4.1758c0.44457-0.39115 0.9308-0.73635 1.457-1.0176v-0.67188h0.9707v0.24609c0.3922-0.14412 0.79595-0.26103 1.2148-0.33984v-2.3926h1.2148v2.2656c0.0688-0.0018 0.13584-0.0098 0.20508-0.0098 0.92562 0.0016 1.8433 0.17031 2.709 0.49805v-6.5547c0-1.0195-0.82638-1.8672-1.8223-1.8672h-20.516c-4.0047 0.07453-8.9072-2.5586-8.9004-6.9824 0.050403-3.4368 3.7287-6.4128 8.2188-6.3535 3.9773 0.052543 7.4192 2.6045 7.3223 5.707-0.08466 2.7091-3.0118 5.0491-6.5527 4.959-3.0359-0.07727-5.6571-2.0457-5.5215-4.4141 0.11352-1.9823 2.2864-3.6928 4.875-3.5742 2.096 0.096026 3.9058 1.4851 3.7363 3.1152-0.1307 1.2569-1.5539 2.3418-3.1816 2.2012-1.1584-0.10006-2.1615-0.90527-1.9746-1.7852 0.05648-0.266 0.27519-0.54841 0.54688-0.71484 0.73074-0.44699 1.5712-0.19128 2.0664 0.47461l-1.793 0.06445c0.01542 0.25617 0.21519 0.60348 0.56445 0.76172s0.67298 0.13472 0.90625 0.0957c0.46653-0.07804 0.77461-0.17561 1.0703-0.57422 0.38206-0.51502 0.24232-1.134-0.09375-1.5312-0.33606-0.39727-0.81996-0.66855-1.4023-0.78906-0.90154-0.18655-1.7957 0.02255-2.4316 0.41211-0.63591 0.38956-1.0679 0.94851-1.2012 1.5762-0.37018 1.7431 1.4463 3.2053 3.5469 3.3867 2.716 0.23462 4.9571-1.476 5.1641-3.4668 0.25547-2.4569-2.3638-4.4695-5.416-4.6094-3.6466-0.16706-6.6174 2.1716-6.7734 4.8965-0.18205 3.1789 3.2527 5.7595 7.2539 5.8613 4.5837 0.11666 8.2963-2.8551 8.4043-6.3125 0.12201-3.9042-4.1373-7.0596-9.0859-7.125z" color="#000000" color-rendering="auto" dominant-baseline="auto" fill="#fff" image-rendering="auto" shape-rendering="auto" solid-color="#000000" style="font-feature-settings:normal;font-variant-alternates:normal;font-variant-caps:normal;font-variant-ligatures:normal;font-variant-numeric:normal;font-variant-position:normal;isolation:auto;mix-blend-mode:normal;paint-order:stroke markers fill;shape-padding:0;text-decoration-color:#000000;text-decoration-line:none;text-decoration-style:solid;text-indent:0;text-orientation:mixed;text-transform:none;white-space:normal"/>
    <path d="m35.322 28.645c-3.68 0-6.6797 2.9967-6.6797 6.6777 0 3.68 2.9997 6.6777 6.6797 6.6777a6.687 6.687 0 0 0 6.6777-6.6777 6.687 6.687 0 0 0-6.6777-6.6777zm-4.1289 2.3711h1.9902c0.096998 0 0.17383 0.077828 0.17383 0.17383v1.9902a0.175 0.175 0 0 1-0.17383 0.17578h-1.9902a0.177 0.177 0 0 1-0.17578-0.17578v-1.9902c0-0.095998 0.079781-0.17383 0.17578-0.17383zm3.1348 0h1.9922c0.095999 0 0.17383 0.077828 0.17383 0.17383v1.9902a0.175 0.175 0 0 1-0.17383 0.17578h-1.9922a0.175 0.175 0 0 1-0.17383-0.17578v-1.9902c0-0.095998 0.077828-0.17383 0.17383-0.17383zm3.1367 0h1.9922c0.095995 0 0.17188 0.077828 0.17188 0.17383v1.9902a0.174 0.174 0 0 1-0.17188 0.17578h-1.9922a0.175 0.175 0 0 1-0.17383-0.17578v-1.9902c0-0.095998 0.077828-0.17383 0.17383-0.17383zm-6.2773 3.1367h1.9922c0.096004 0 0.17187 0.077828 0.17187 0.17383v1.9902a0.174 0.174 0 0 1-0.17187 0.17578h-1.9922a0.175 0.175 0 0 1-0.17383-0.17578v-1.9902c0-0.095998 0.077828-0.17383 0.17383-0.17383zm3.1367 0h1.9922c0.095995 0 0.17188 0.077828 0.17188 0.17383v1.9902a0.174 0.174 0 0 1-0.17188 0.17578h-1.9922a0.175 0.175 0 0 1-0.17383-0.17578v-1.9902c0-0.095998 0.077828-0.17383 0.17383-0.17383zm3.1367 0h1.9922c0.095995 0 0.17188 0.077828 0.17188 0.17383v1.9902a0.174 0.174 0 0 1-0.17188 0.17578h-1.9922a0.177 0.177 0 0 1-0.17578-0.17578v-1.9902c0-0.095998 0.079782-0.17383 0.17578-0.17383zm-6.2734 3.1367h1.9922a0.17 0.17 0 0 1 0.17187 0.17188v1.9922a0.172 0.172 0 0 1-0.17187 0.17383h-1.9922a0.174 0.174 0 0 1-0.17383-0.17383v-1.9922c0-0.097006 0.077828-0.17188 0.17383-0.17188zm3.1367 0h1.9922a0.17 0.17 0 0 1 0.17188 0.17188v1.9922a0.172 0.172 0 0 1-0.17188 0.17383h-1.9922a0.174 0.174 0 0 1-0.17383-0.17383v-1.9922c0-0.097006 0.077828-0.17188 0.17383-0.17188zm3.1367 0h1.9922a0.17 0.17 0 0 1 0.17188 0.17188v1.9922a0.172 0.172 0 0 1-0.17188 0.17383h-1.9922a0.175 0.175 0 0 1-0.17578-0.17383v-1.9922c0-0.097006 0.079782-0.17188 0.17578-0.17188z" fill="#fff"/>
    <path d="m24.137 15.391c-0.90062 1.369-2.3091 2.4744-4 3.1895v0.0625h4v-3.252z" fill="#fff" style="paint-order:stroke markers fill"/>
</svg>
