<svg width="48" height="48" version="1.1" viewBox="0 0 48 48" xmlns="http://www.w3.org/2000/svg">
  <path d="m24 1 7.735 7.741 2.203-2.162s9.926 6.451 9.926 17.42h3.136c0-12.7-10.3-23-23-23zm-6.269 1.789c-0.5668-0 -1.134 0.217-1.568 0.6514l-12.72 12.72c-0.8688 0.8688-0.8688 2.268 0 3.136l25.26 25.26c0.8688 0.8688 2.268 0.8688 3.136 0l12.72-12.72c0.8688-0.8688 0.8688-2.268 0-3.136l-25.26-25.26c-0.4344-0.4344-1.001-0.6514-1.568-0.6514zm0.5084 3.241 23.73 23.73-12.21 12.21-23.73-23.73zm-17.24 17.97c0 12.7 10.3 23 23 23l-7.735-7.741-2.203 2.162s-9.926-6.451-9.926-17.42z" fill="#fff"/>
</svg>
