<?xml version="1.0" encoding="UTF-8" standalone="no"?>
<!-- Created with Inkscape (http://www.inkscape.org/) -->

<svg
   xmlns:dc="http://purl.org/dc/elements/1.1/"
   xmlns:cc="http://creativecommons.org/ns#"
   xmlns:rdf="http://www.w3.org/1999/02/22-rdf-syntax-ns#"
   xmlns:svg="http://www.w3.org/2000/svg"
   xmlns="http://www.w3.org/2000/svg"
   xmlns:sodipodi="http://sodipodi.sourceforge.net/DTD/sodipodi-0.dtd"
   xmlns:inkscape="http://www.inkscape.org/namespaces/inkscape"
   width="192"
   height="192"
   viewBox="0 0 50.799999 50.8"
   version="1.1"
   id="svg143"
   inkscape:version="0.92.2 2405546, 2018-03-11"
   sodipodi:docname="tasker.svg">
  <defs
     id="defs137" />
  <sodipodi:namedview
     id="base"
     pagecolor="#ffffff"
     bordercolor="#666666"
     borderopacity="1.0"
     inkscape:pageopacity="0.0"
     inkscape:pageshadow="2"
     inkscape:zoom="1.979899"
     inkscape:cx="49.171855"
     inkscape:cy="37.815216"
     inkscape:document-units="mm"
     inkscape:current-layer="g156"
     showgrid="false"
     inkscape:window-width="1840"
     inkscape:window-height="970"
     inkscape:window-x="40"
     inkscape:window-y="40"
     inkscape:window-maximized="1"
     units="px"
     inkscape:pagecheckerboard="true" />
  <metadata
     id="metadata140">
    <rdf:RDF>
      <cc:Work
         rdf:about="">
        <dc:format>image/svg+xml</dc:format>
        <dc:type
           rdf:resource="http://purl.org/dc/dcmitype/StillImage" />
        <dc:title></dc:title>
      </cc:Work>
    </rdf:RDF>
  </metadata>
  <g
     inkscape:label="Layer 1"
     inkscape:groupmode="layer"
     id="layer1">
    <g
       id="g156">
      <path
         style="fill:#ffffff;stroke-width:4.19999981"
         d="M 79.179688 12 C 77.079691 12 75.357484 13.553342 75.021484 15.527344 L 71.871094 37.787109 A 62.16 62.16 0 0 0 57.675781 46.0625 L 36.759766 37.619141 A 4.2 4.2 0 0 0 31.634766 39.425781 L 14.835938 68.53125 C 13.785985 70.337244 14.247731 72.606201 15.84375 73.908203 L 33.568359 87.810547 A 65.94 65.94 0 0 0 32.980469 96 C 32.980469 98.772 33.232443 101.50145 33.568359 104.18945 L 15.84375 118.0918 C 14.247739 119.35174 13.786007 121.62074 14.835938 123.46875 L 31.634766 152.57422 C 32.684715 154.38021 34.869764 155.13686 36.759766 154.38086 L 56.505859 146.41016 L 81.386719 105.15039 L 46.908203 80.085938 L 124.90234 40.041016 C 123.34845 39.227829 121.76065 38.469231 120.12891 37.787109 L 116.98047 15.527344 C 116.60252 13.553342 114.87929 12 112.7793 12 L 79.179688 12 z M 156.69141 37.328125 C 156.20455 37.335283 155.71469 37.430141 155.24219 37.619141 L 135.49219 45.591797 L 110.61328 86.849609 L 145.0918 111.91406 L 67.097656 151.96094 C 68.650765 152.77379 70.239923 153.531 71.871094 154.21289 L 75.021484 176.47266 C 75.357409 178.44666 77.079691 180 79.179688 180 L 112.7793 180 C 114.87929 180 116.6015 178.44666 116.9375 176.47266 L 120.08789 154.21289 A 62.16 62.16 0 0 0 134.2832 145.9375 L 155.19922 154.38086 A 4.2 4.2 0 0 0 160.32422 152.57422 L 177.12305 123.46875 C 178.173 121.66274 177.71125 119.39378 176.11523 118.0918 L 158.39062 104.18945 C 158.72655 101.50145 158.97852 98.772 158.97852 96 C 158.97852 93.228 158.72653 90.498547 158.39062 87.810547 L 176.1582 73.908203 C 177.75419 72.64826 178.21594 70.379261 177.16602 68.53125 L 160.36523 39.425781 C 159.57777 38.071284 158.15196 37.306651 156.69141 37.328125 z "
         transform="scale(0.26458333)"
         id="path904" />
    </g>
  </g>
</svg>
