<?xml version="1.0" encoding="UTF-8"?>
<svg version="1.1" viewBox="0 0 48 48" xmlns="http://www.w3.org/2000/svg">
    <path d="m20.195 5.0003c-0.475 0-0.86454 0.35134-0.94054 0.79784l-0.71258 5.035a14.06 14.06 0 0 0-3.2107 1.8718l-4.731-1.9098a0.94999 0.94999 0 0 0-1.1592 0.40863l-3.7997 6.5832c-0.2375 0.40849-0.13305 0.92171 0.22795 1.2162l4.0092 3.1445a14.915 14.915 0 0 0-0.13297 1.8524c0 0.627 0.05699 1.2444 0.13297 1.8524l-4.0092 3.1445c-0.361 0.28498-0.46543 0.7982-0.22795 1.2162l3.7997 6.5832c0.23748 0.4085 0.73172 0.57963 1.1592 0.40863l4.4663-1.8029 5.6278-9.3325-7.7988-5.6692 17.641-9.0577c-0.35147-0.18393-0.71062-0.35552-1.0797-0.50981l-0.71213-5.035c-0.08549-0.4465-0.47527-0.79783-0.95026-0.79783h-7.5999zm17.532 5.7289c-0.11012 0.0016-0.22092 0.02308-0.32779 0.06582l-4.4672 1.8033-5.6273 9.3321 7.7988 5.6692-17.641 9.0582c0.35129 0.18386 0.71075 0.35513 1.0797 0.50937l0.71258 5.035c0.07598 0.44649 0.46554 0.79784 0.94054 0.79784h7.5999c0.475 0 0.86454-0.35134 0.94054-0.79784l0.71258-5.035a14.06 14.06 0 0 0 3.2107-1.8718l4.731 1.9098a0.94999 0.94999 0 0 0 1.1592-0.40863l3.7997-6.5832c0.2375-0.40849 0.13304-0.92171-0.22795-1.2162l-4.0092-3.1445c0.07599-0.608 0.13298-1.2254 0.13298-1.8524 0-0.62699-0.057-1.2444-0.13298-1.8524l4.0189-3.1445c0.361-0.28498 0.46543-0.7982 0.22795-1.2162l-3.8002-6.5832c-0.17811-0.30637-0.50062-0.47932-0.83097-0.47448z" fill="#fff" stroke-width=".94999"/>
</svg>
