<?xml version="1.0" encoding="UTF-8" standalone="no"?>
<!-- Created with Inkscape (http://www.inkscape.org/) -->

<svg
   xmlns:dc="http://purl.org/dc/elements/1.1/"
   xmlns:cc="http://creativecommons.org/ns#"
   xmlns:rdf="http://www.w3.org/1999/02/22-rdf-syntax-ns#"
   xmlns:svg="http://www.w3.org/2000/svg"
   xmlns="http://www.w3.org/2000/svg"
   xmlns:sodipodi="http://sodipodi.sourceforge.net/DTD/sodipodi-0.dtd"
   xmlns:inkscape="http://www.inkscape.org/namespaces/inkscape"
   width="192"
   height="192"
   viewBox="0 0 50.799999 50.8"
   version="1.1"
   id="svg143"
   inkscape:version="0.92.3 (2405546, 2018-03-11)"
   sodipodi:docname="tasker.svg">
  <defs
     id="defs137" />
  <sodipodi:namedview
     id="base"
     pagecolor="#ffffff"
     bordercolor="#666666"
     borderopacity="1.0"
     inkscape:pageopacity="0.0"
     inkscape:pageshadow="2"
     inkscape:zoom="1.979899"
     inkscape:cx="-143.99"
     inkscape:cy="76.456312"
     inkscape:document-units="mm"
     inkscape:current-layer="g156"
     showgrid="false"
     inkscape:window-width="1920"
     inkscape:window-height="1003"
     inkscape:window-x="-9"
     inkscape:window-y="-9"
     inkscape:window-maximized="1"
     units="px" />
  <metadata
     id="metadata140">
    <rdf:RDF>
      <cc:Work
         rdf:about="">
        <dc:format>image/svg+xml</dc:format>
        <dc:type
           rdf:resource="http://purl.org/dc/dcmitype/StillImage" />
        <dc:title />
      </cc:Work>
    </rdf:RDF>
  </metadata>
  <g
     inkscape:label="Layer 1"
     inkscape:groupmode="layer"
     id="layer1">
    <g
       id="g156">
      <path
         style="fill:#ffffff;fill-opacity:1;stroke-width:0.2754744"
         d="m 19.616939,48.063516 c -0.126243,-0.340906 -0.385946,-1.859453 -0.577111,-3.374564 -0.274297,-2.174003 -0.465517,-2.8487 -0.907038,-3.200436 -0.542894,-0.432494 -0.500782,-0.479971 1.421812,-1.602827 1.089708,-0.636426 2.42806,-1.343803 2.974124,-1.571966 0.546064,-0.228163 1.146493,-0.568491 1.334293,-0.756283 0.187792,-0.187792 3.506382,-2.128611 7.374644,-4.31293 3.868254,-2.184311 6.983842,-4.051345 6.923511,-4.148954 -0.06036,-0.0976 -1.90942,-1.211617 -4.109098,-2.475569 -2.199679,-1.263959 -3.999418,-2.451135 -3.999418,-2.638161 0,-0.187035 0.867745,-1.830951 1.928325,-3.653163 1.060573,-1.822205 1.93273,-3.470705 1.938118,-3.663338 0.0055,-0.192634 0.718184,-1.523943 1.583984,-2.95846 l 1.574176,-2.608231 2.193502,-0.917213 c 1.398636,-0.5848336 2.537226,-0.8874846 3.142051,-0.8351976 0.912824,0.07892 1.040856,0.241805 3.398668,4.3238076 1.414457,2.448808 2.415161,4.482106 2.367426,4.810291 -0.0481,0.330653 -1.166498,1.439437 -2.673246,2.650242 l -2.590576,2.081759 0.06177,2.336206 c 0.04201,1.587951 0.177563,2.401011 0.423319,2.538554 1.100499,0.615866 4.704709,3.738629 4.78275,4.143871 0.144195,0.748723 -4.916412,9.281784 -5.607515,9.45524 -0.332332,0.08341 -1.774353,-0.331184 -3.388237,-0.974154 -1.545315,-0.615648 -2.916113,-1.119365 -3.04623,-1.119365 -0.242062,0 -3.242596,1.71724 -3.755605,2.149367 -0.156378,0.131733 -0.444816,1.52541 -0.640956,3.097064 -0.196139,1.571654 -0.475434,3.079558 -0.620645,3.350888 -0.240235,0.448876 -0.76032,0.493339 -5.770639,0.493339 -5.458907,0 -5.508602,-0.0055 -5.736148,-0.619817 z M 7.8449767,41.585648 C 7.6758707,41.474335 6.3909977,39.420305 4.989707,37.021145 3.0218227,33.65193 2.4961317,32.54167 2.6801677,32.143418 c 0.131046,-0.28359 1.3339564,-1.373727 2.6731447,-2.422524 l 2.4348863,-1.906906 0.04435,-2.276305 0.04435,-2.276298 -2.5382065,-1.958037 C 3.9426946,20.226423 2.7222536,19.117537 2.6266201,18.839156 2.5084976,18.495323 3.221067,16.993557 4.8486627,14.156093 c 1.317761,-2.297303 2.575333,-4.3794136 2.794603,-4.6269026 0.496787,-0.560729 1.267078,-0.401697 4.5823183,0.9460186 l 2.420361,0.983938 1.436282,-0.858108 c 0.789954,-0.47196 1.69372,-1.0106756 2.008372,-1.1971476 0.475715,-0.281918 0.632718,-0.818932 0.931909,-3.187568 0.571669,-4.525796 -0.103434,-4.088164 6.306466,-4.088164 4.289605,0 5.550308,0.08161 5.79387,0.375076 0.171206,0.206291 0.515508,1.810734 0.765114,3.565433 0.436765,3.070421 0.48329,3.20256 1.23755,3.51498 0.431049,0.178546 0.78259,0.4645486 0.781216,0.6355516 -0.0016,0.171011 -4.589671,2.908312 -10.196202,6.082894 -8.236423,4.663714 -10.10042,5.822841 -9.707961,6.036901 0.267152,0.145703 0.547703,0.343951 0.623464,0.440545 0.07574,0.09659 1.71827,1.09864 3.650031,2.226775 1.931769,1.128126 3.512302,2.189636 3.512302,2.358906 0,0.169262 -0.230248,0.603388 -0.511659,0.964721 -0.644782,0.827888 -4.030902,6.684704 -5.237428,9.058939 l -0.909935,1.790579 -3.214118,1.308508 c -3.3642783,1.369635 -3.5720373,1.425662 -4.0703043,1.09768 z"
         id="path158"
         inkscape:connector-curvature="0" />
    </g>
  </g>
</svg>
