<?xml version="1.0" encoding="UTF-8" standalone="no"?>
<!-- Created with Inkscape (http://www.inkscape.org/) -->

<svg
   xmlns:dc="http://purl.org/dc/elements/1.1/"
   xmlns:cc="http://creativecommons.org/ns#"
   xmlns:rdf="http://www.w3.org/1999/02/22-rdf-syntax-ns#"
   xmlns:svg="http://www.w3.org/2000/svg"
   xmlns="http://www.w3.org/2000/svg"
   xmlns:sodipodi="http://sodipodi.sourceforge.net/DTD/sodipodi-0.dtd"
   xmlns:inkscape="http://www.inkscape.org/namespaces/inkscape"
   width="226"
   height="226"
   viewBox="0 0 59.795832 59.795833"
   version="1.1"
   id="svg143"
   inkscape:version="0.92.3 (2405546, 2018-03-11)"
   sodipodi:docname="tasker.svg">
  <defs
     id="defs137" />
  <sodipodi:namedview
     id="base"
     pagecolor="#ffffff"
     bordercolor="#666666"
     borderopacity="1.0"
     inkscape:pageopacity="0.0"
     inkscape:pageshadow="2"
     inkscape:zoom="1.979899"
     inkscape:cx="-106.83063"
     inkscape:cy="76.456312"
     inkscape:document-units="mm"
     inkscape:current-layer="g156"
     showgrid="false"
     inkscape:window-width="1920"
     inkscape:window-height="1003"
     inkscape:window-x="-9"
     inkscape:window-y="-9"
     inkscape:window-maximized="1"
     units="px" />
  <metadata
     id="metadata140">
    <rdf:RDF>
      <cc:Work
         rdf:about="">
        <dc:format>image/svg+xml</dc:format>
        <dc:type
           rdf:resource="http://purl.org/dc/dcmitype/StillImage" />
        <dc:title />
      </cc:Work>
    </rdf:RDF>
  </metadata>
  <g
     inkscape:label="Layer 1"
     inkscape:groupmode="layer"
     id="layer1">
    <g
       id="g156">
      <path
         style="fill:#ffffff;fill-opacity:1;stroke-width:0.35277775"
         d="m 22.492022,58.921246 c -0.16167,-0.43657 -0.49425,-2.38125 -0.73906,-4.32153 -0.35127,-2.78407 -0.59615,-3.6481 -1.16157,-4.09854 -0.69524,-0.55386 -0.64131,-0.61466 1.8208,-2.05261 1.3955,-0.81502 3.10942,-1.7209 3.80872,-2.01309 0.6993,-0.29219 1.46822,-0.72802 1.70872,-0.96851 0.24049,-0.24049 4.49034,-2.72594 9.44411,-5.52322 4.95376,-2.79727 8.94364,-5.18823 8.86638,-5.31323 -0.0773,-0.12499 -2.44524,-1.55162 -5.26219,-3.17026 -2.81695,-1.61865 -5.12173,-3.13897 -5.12173,-3.37848 0,-0.23952 1.11125,-2.34475 2.46945,-4.67831 1.35819,-2.33355 2.47509,-4.44465 2.48199,-4.69134 0.007,-0.24669 0.91972,-1.95159 2.02848,-3.78866 l 2.01592,-3.34015 2.80904,-1.1746 c 1.79112,-0.7489503 3.24922,-1.1365303 4.02377,-1.0695703 1.16898,0.10106 1.33294,0.30966 4.3524,5.5371503 1.81138,3.13599 3.0929,5.73987 3.03177,6.16015 -0.0616,0.42344 -1.49384,1.84337 -3.42341,3.39395 l -3.31754,2.66594 0.0791,2.99179 c 0.0538,2.03356 0.22739,3.07478 0.54211,3.25092 1.40932,0.78869 6.02494,4.78776 6.12488,5.30672 0.18466,0.95883 -6.29605,11.88643 -7.18109,12.10856 -0.42559,0.10682 -2.27227,-0.42412 -4.33904,-1.24752 -1.97896,-0.78841 -3.73443,-1.43348 -3.90106,-1.43348 -0.30999,0 -4.15253,2.19913 -4.8095,2.75252 -0.20026,0.1687 -0.56964,1.95347 -0.82082,3.96616 -0.25118,2.01269 -0.60885,3.94374 -0.79481,4.29121 -0.30765,0.57484 -0.97368,0.63178 -7.38999,0.63178 -6.99078,0 -7.05442,-0.007 -7.34582,-0.79375 z M 7.4166216,50.625566 c -0.21656,-0.14255 -1.861992,-2.77298 -3.656512,-5.84539 -2.52011,-4.31468 -3.19331996,-5.7365 -2.95763996,-6.24651 0.16782,-0.36317 1.70828996,-1.75922 3.42327996,-3.10233 l 3.118162,-2.44202 0.0568,-2.91508 0.0568,-2.91507 -3.250476,-2.5075 c -1.78775,-1.37913 -3.35066996,-2.79919 -3.47313996,-3.15569 -0.15127,-0.44032 0.76125996,-2.36351 2.84558996,-5.99722 1.68755,-2.94197 3.29802,-5.6083603 3.578822,-5.9253003 0.636194,-0.71808 1.622644,-0.51442 5.8682044,1.2114903 l 3.09956,1.26005 1.83933,-1.09891 c 1.01163,-0.6044 2.16901,-1.2942903 2.57196,-1.5330903 0.60921,-0.36103 0.81027,-1.04874 1.19342,-4.08206 0.73209,-5.79582002 -0.13246,-5.23538002 8.07618,-5.23538002 5.49335,0 7.10783,0.10451 7.41974,0.48033 0.21925,0.26418 0.66017,2.31886002 0.97982,4.56596002 0.55933,3.93204 0.61891,4.10126 1.58483,4.50135 0.55201,0.22865 1.0022,0.5949103 1.00044,0.8139003 -0.002,0.219 -5.87762,3.72444 -13.05745,7.78987 -10.54772,5.97244 -12.93479,7.45684 -12.4322,7.73097 0.34212,0.18659 0.7014,0.44047 0.79842,0.56417 0.097,0.1237 2.20045,1.40694 4.6743,2.85165 2.47386,1.4447 4.49792,2.80409 4.49792,3.02086 0,0.21676 -0.29486,0.77271 -0.65524,1.23544 -0.82572,1.06021 -5.16205,8.56056 -6.70715,11.60105 l -1.16528,2.29305 -4.11606,1.6757 c -4.3083604,1.75398 -4.5744204,1.82573 -5.2125104,1.40571 z"
         id="path158"
         inkscape:connector-curvature="0" />
    </g>
  </g>
</svg>
