<svg xmlns="http://www.w3.org/2000/svg" viewBox="0 0 48 48">
  <path d="M24.832 3.535a6.674 6.674 0 00-6.63 6.672c0 .521.064 1.027.177 1.514h6.305a1.88 1.88 0 011.875 1.877v3.058a6.667 6.667 0 004.986-6.449 6.672 6.672 0 00-6.67-6.672h-.043zM37.75 7.19a5.076 5.076 0 00-5.045 5.077 5.076 5.076 0 005.078 5.076 5.076 5.076 0 005.076-5.076 5.076 5.076 0 00-5.076-5.077 5.076 5.076 0 00-.033 0zM3.877 12.744A1.878 1.878 0 002 14.621v18.76c0 1.036.841 1.875 1.877 1.875h18.76c1.036 0 1.875-.84 1.875-1.875V14.62c0-1.036-.84-1.877-1.875-1.877H3.877zm3.082 3.319h12.594v2.224h-4.951v13.65h-2.737v-13.65H6.96v-2.224zm30.22 2.8c.305.545.495 1.16.495 1.819v12.982a12.68 12.68 0 01-.875 4.606 8.217 8.217 0 00.984.06A8.217 8.217 0 0046 30.113a8.217 8.217 0 00-.002-.158H46v-9.721c0-.76-.612-1.37-1.371-1.37h-7.45zm-10.62.016v16.549a1.88 1.88 0 01-1.875 1.875h-9.967c1.495 4.171 5.472 7.162 10.158 7.162 5.965 0 10.799-4.836 10.799-10.8V20.681c0-.999-.803-1.803-1.801-1.803h-7.314z" fill="#fff"/>
</svg>
