<svg xmlns="http://www.w3.org/2000/svg" viewBox="0 0 48 48"><defs><style>.cls-1{fill:#fff;}</style></defs><g id="Layer_1" data-name="Layer 1"><path class="cls-1" d="M44,19.84H26.32V34.3a3,3,0,0,1-3,3H13.69a10.51,10.51,0,0,0,10,7.38H25A10.5,10.5,0,0,0,35.1,37a5.52,5.52,0,0,0,3.6,1.33,7,7,0,0,0,7-7v-9.7A1.72,1.72,0,0,0,44,19.84Z"/><circle class="cls-1" cx="38.79" cy="12.27" r="4.64"/><path class="cls-1" d="M26.32,14.72v1.62a6.44,6.44,0,1,0-8.46-6.12,6.16,6.16,0,0,0,.18,1.5h5.28A3,3,0,0,1,26.32,14.72Z"/><path class="cls-1" d="M22.87,13.26H4.11a1.89,1.89,0,0,0-1.88,1.87V33.89a1.88,1.88,0,0,0,1.88,1.88H22.87a1.88,1.88,0,0,0,1.88-1.88V15.13A1.89,1.89,0,0,0,22.87,13.26Zm-4.64,5.26v2.13H14.49v10H12.36v-10H8.75V18.52Z"/></g></svg>