<svg xmlns="http://www.w3.org/2000/svg" viewBox="0 0 48 48"><defs><style>.cls-1{fill:#fff;}</style></defs><g id="Layer_1" data-name="Layer 1"><path class="cls-1" d="M33.56,18.89H26.23V34.11a3,3,0,0,1-3,3H13.72a11.55,11.55,0,0,0,10.47,7.34,11.53,11.53,0,0,0,11.25-11.8V20.85A1.92,1.92,0,0,0,33.56,18.89Z"/><circle class="cls-1" cx="38.7" cy="12.04" r="4.6"/><path class="cls-1" d="M43.91,18.89H36.63A3,3,0,0,1,37,20.32V32.79a13.26,13.26,0,0,1-.88,5.05,7.18,7.18,0,0,0,2.55.48h0a7.14,7.14,0,0,0,7.14-7.14V20.83A1.94,1.94,0,0,0,43.91,18.89Z"/><path class="cls-1" d="M22.78,13H4A1.88,1.88,0,0,0,2.14,14.9V33.66A1.88,1.88,0,0,0,4,35.54H22.78a1.88,1.88,0,0,0,1.88-1.88V14.9A1.87,1.87,0,0,0,22.78,13Zm-3.86,6.18H14.55v12H12.14v-12H7.81v-2H18.92Z"/><path class="cls-1" d="M23.23,11.46a3,3,0,0,1,3,3h0v2.06a6.65,6.65,0,1,0-8.66-6.33,6.56,6.56,0,0,0,.12,1.26Z"/></g></svg>