<?xml version="1.0" encoding="UTF-8" standalone="no"?>
<svg
   xmlns:dc="http://purl.org/dc/elements/1.1/"
   xmlns:cc="http://creativecommons.org/ns#"
   xmlns:rdf="http://www.w3.org/1999/02/22-rdf-syntax-ns#"
   xmlns:svg="http://www.w3.org/2000/svg"
   xmlns="http://www.w3.org/2000/svg"
   xmlns:sodipodi="http://sodipodi.sourceforge.net/DTD/sodipodi-0.dtd"
   xmlns:inkscape="http://www.inkscape.org/namespaces/inkscape"
   viewBox="0 0 48 48"
   version="1.1"
   id="svg899"
   sodipodi:docname="Telegram_logo.svg"
   width="48"
   height="48"
   inkscape:version="0.92.4 5da689c313, 2019-01-14">
  <metadata
     id="metadata903">
    <rdf:RDF>
      <cc:Work
         rdf:about="">
        <dc:format>image/svg+xml</dc:format>
        <dc:type
           rdf:resource="http://purl.org/dc/dcmitype/StillImage" />
        <dc:title></dc:title>
      </cc:Work>
    </rdf:RDF>
  </metadata>
  <sodipodi:namedview
     pagecolor="#ffffff"
     bordercolor="#666666"
     borderopacity="1"
     objecttolerance="10"
     gridtolerance="10"
     guidetolerance="10"
     inkscape:pageopacity="0"
     inkscape:pageshadow="2"
     inkscape:window-width="1260"
     inkscape:window-height="1001"
     id="namedview901"
     showgrid="false"
     inkscape:pagecheckerboard="true"
     inkscape:zoom="2"
     inkscape:cx="-46.722988"
     inkscape:cy="-12.42375"
     inkscape:window-x="10"
     inkscape:window-y="13"
     inkscape:window-maximized="1"
     inkscape:current-layer="svg899" />
  <defs
     id="defs889">
    <linearGradient
       id="b"
       x1="160.008"
       y1="40.007999"
       x2="100.008"
       y2="180"
       gradientUnits="userSpaceOnUse">
      <stop
         stop-color="#37aee2"
         offset="0"
         id="stop879" />
      <stop
         stop-color="#1e96c8"
         offset="1"
         id="stop881" />
    </linearGradient>
    <linearGradient
       id="w"
       x1="0.65969998"
       y1="0.43689999"
       x2="0.85119998"
       y2="0.80239999">
      <stop
         stop-color="#eff7fc"
         offset="0"
         id="stop884" />
      <stop
         stop-color="#fff"
         offset="1"
         id="stop886" />
    </linearGradient>
  </defs>
  <path
     style="fill:#ffffff;fill-opacity:1;stroke-width:0.2"
     d="M 24,0 A 24,24 0 0 0 0,24 24,24 0 0 0 24,48 24,24 0 0 0 48,24 24,24 0 0 0 24,0 Z m 10.70117,14.43672 c 0.80711,-0.0295 1.41852,0.70064 1.09102,2.01367 l -3.93711,18.55273 c -0.27492,1.31839 -1.0713,1.63359 -2.175,1.02461 l -9.67227,-7.1457 11.1293,-10.04297 c 0.48842,-0.43348 -0.1067,-0.64474 -0.75508,-0.25156 L 16.64727,27.25234 10.71484,25.40078 C 9.43366,25.0085 9.42432,24.12786 11.00234,23.49492 l 23.11797,-8.91406 c 0.19798,-0.0899 0.39461,-0.13733 0.58086,-0.14414 z"
     id="circle891"
     inkscape:connector-curvature="0" />
</svg>
