<?xml version="1.0" encoding="UTF-8"?>
<svg viewBox="0 0 48 48" xmlns="http://www.w3.org/2000/svg">
    <path d="m 44.009,5.5484511 c -0.314016,0.01148 -0.644747,0.092572 -0.978534,0.2441457 L 4.0541907,20.822179 c -2.6605622,1.06712 -2.6444269,2.551578 -0.4843845,3.212951 l 9.7423788,3.041072 c 0.122592,0.0335 0.247084,0.07721 0.474618,-0.0547 L 36.72866,12.546631 c 1.093131,-0.662893 2.094975,-0.305054 1.271508,0.425789 L 19.699029,29.486407 c -0.248425,0.241375 -0.2531,0.532321 0.01563,0.769545 l 15.828435,11.695532 c 1.860937,1.02682 3.204531,0.4942 3.668041,-1.728542 L 45.847983,8.9430466 C 46.400094,6.7292045 45.370784,5.4987183 44.010057,5.5484511 Z M 29.33789,23.050736 h 2.617238 l 2.128948,3.130919 2.121135,-3.130919 h 2.630912 l -3.242252,4.75986 3.373113,4.961024 h -2.611379 l -2.271529,-3.320373 -2.25395,3.320373 h -2.623099 l 3.373113,-4.961024 z" fill="#fff"/>
</svg>
