<?xml version="1.0" encoding="UTF-8"?>
<svg version="1.1" viewBox="0 0 48 48" xmlns="http://www.w3.org/2000/svg">
    <path d="m18.823 5.1153c-5.8655 0.0067-10.67 4.6617-10.862 10.524-3.671 2.0064-5.9563 5.8545-5.9614 10.038-1.51e-4 6.3267 5.1285 11.456 11.455 11.456 0.32781-0.0025 0.65537-0.0191 0.98176-0.04971 2.0321 3.5806 5.8294 5.7954 9.9464 5.8012 3.8702-4e-3 7.4767-1.9618 9.5884-5.2052 8.4389 0.11473 11.891-6.9011 12.028-11.427-0.0041-3.0852-1.2525-6.0383-3.4626-8.191-0.17858-6.1928-5.2483-11.121-11.444-11.125-1.6847 0.0044-3.3478 0.38029-4.8706 1.101-2.0092-1.8733-4.6527-2.9173-7.3998-2.9223zm0 3.2477c3.0272 0.0024 5.7535 1.872 6.9031 4.7339 1.405-1.4905 3.3421-2.3341 5.3672-2.3373 4.1247 2e-5 7.4684 3.4173 7.4683 7.6327-2e-3 0.45536-0.04393 0.90961-0.12519 1.3573 2.2181 1.3841 3.5726 3.8472 3.5763 6.5032 8e-5 4.2154-3.3436 7.6326-7.4683 7.6327-1.005-3.09e-4 -1.9995-0.20789-2.9241-0.61032-0.82848 3.3968-3.8118 5.7821-7.2373 5.7865-3.7552-0.0048-6.9229-2.8584-7.3988-6.6652-1.0847 0.59743-2.2972 0.9113-3.5294 0.91364-4.1247-1.9e-5 -7.4684-3.4173-7.4683-7.6327 4e-3 -3.5218 2.3654-6.5836 5.7152-7.4104-0.22723-0.7349-0.34424-1.5007-0.34704-2.2714-8e-5 -4.2154 3.3436-7.6326 7.4683-7.6327z" fill="#fff" style="paint-order:stroke markers fill"/>
    <path d="m23.642 25.573v2c2.1454 0.98629 4.3771 1.2822 6.8061 0v-2c-2.2687 1.4652-4.5374 1.3801-6.8061 0z" fill="#fff"/>
    <path d="m16.152 18.473 6.09 2v2l-6.09 2v-2l2.9913-1-2.9913-1z" fill="#fff"/>
</svg>
