<svg version="1.1" viewBox="0 0 48 48" xmlns="http://www.w3.org/2000/svg">
 <path d="m7 5c-1.11 0-2 0.892-2 2v34c0 1.11 0.892 2 2 2h34c1.11 0 2-0.892 2-2v-34c0-1.11-0.892-2-2-2zm2.68 2h28.6c1.47 0 2.68 1.21 2.68 2.68v28.6c0 1.47-1.21 2.68-2.68 2.68h-28.6c-1.47 0-2.68-1.21-2.68-2.68v-28.6c0-1.47 1.21-2.68 2.68-2.68zm0 2c-0.396 0-0.684 0.287-0.684 0.684v28.6c0 0.396 0.287 0.684 0.684 0.684h28.6c0.396 0 0.684-0.287 0.684-0.684v-28.6c0-0.396-0.287-0.684-0.684-0.684zm4.32 5h5v10h-5z" fill="#fff"/>
</svg>
