<?xml version="1.0" encoding="UTF-8"?>
<svg version="1.1" viewBox="0 0 48 48" xmlns="http://www.w3.org/2000/svg">
    <path d="m7 4.5c-1.3764 0-2.5025 1.1237-2.5 2.5l0.066406 36.488 36.434 0.011719c1.3764 0 2.5-1.1236 2.5-2.5v-34c0-1.3764-1.1236-2.5-2.5-2.5h-34zm14.367 7.2891h1.8516v11.523h2.373v1.6895h-7.3008v-1.6895h2.6738v-7.6914c0-0.29807 0.009094-0.61096 0.027344-0.93945l-1.8984 1.5879c-0.1095 0.085164-0.21863 0.13973-0.32812 0.16406-0.10341 0.018249-0.20345 0.018249-0.30078 0-0.091247-0.01825-0.1731-0.049215-0.24609-0.091797-0.072997-0.048665-0.12756-0.099549-0.16406-0.1543l-0.71289-0.97656 4.0254-3.4219zm9.7363 2.5098h1.834v3.7402h3.541v1.6699h-3.541v3.7598h-1.834v-3.7598h-3.5215v-1.6699h3.5215v-3.7402zm-23.572 0.32812 7.2363 3.7676v0.91211l-7.2363 3.7793v-1.6074c0-0.12166 0.030966-0.23448 0.091797-0.33789s0.16087-0.18699 0.30078-0.25391l3.3125-1.707c0.26766-0.13383 0.58055-0.24296 0.93945-0.32813-0.17641-0.042581-0.34379-0.088053-0.50195-0.13672-0.15208-0.054748-0.29759-0.11841-0.4375-0.19141l-3.3125-1.6973c-0.13991-0.072997-0.23995-0.15853-0.30078-0.25586-0.060831-0.10341-0.091797-0.21623-0.091797-0.33789v-1.6055z" color="#000000" color-rendering="auto" dominant-baseline="auto" fill="#fff" image-rendering="auto" shape-rendering="auto" solid-color="#000000" style="font-feature-settings:normal;font-variant-alternates:normal;font-variant-caps:normal;font-variant-ligatures:normal;font-variant-numeric:normal;font-variant-position:normal;isolation:auto;mix-blend-mode:normal;shape-padding:0;text-decoration-color:#000000;text-decoration-line:none;text-decoration-style:solid;text-indent:0;text-orientation:mixed;text-transform:none;white-space:normal"/>
</svg>
