<?xml version="1.0" encoding="UTF-8"?>
<svg version="1.1" viewBox="0 0 48 48" xmlns="http://www.w3.org/2000/svg">
    <path d="m22.086 2.0977-0.0059 0.00195-0.19727 0.59766-0.63867-0.046875 0.51562 0.37891-0.24414 0.59375 0.52148-0.375 0.48828 0.41406-0.19336-0.60938 0.54492-0.33789-0.64062-0.00391zm-6.9082 1.9805-0.54297 0.16992-0.0625-0.10156c-0.08029 0.035328-0.16037 0.071136-0.24024 0.10742v0.076172l-0.3418 0.080078c-0.04501 0.025882-0.08994 0.051924-0.13476 0.078125l0.46289 0.15625-0.04687 0.56641 0.33984-0.45508 0.52539 0.21875-0.33008-0.46484zm-9.457 8.0469 0.048828 0.47656-0.45117 0.16211 0.46875 0.10156 0.015625 0.47852 0.24023-0.41406 0.45898 0.13281-0.31836-0.35547 0.26953-0.39648-0.43945 0.19336zm-1.8926 5.1699-0.27734 0.44141-0.49414-0.16211 0.33398 0.40039-0.30469 0.41992 0.48242-0.19531 0.30469 0.42188-0.035156-0.51953 0.49414-0.16016-0.50391-0.12695zm-1.0137 4.8496-0.18555 0.7832-0.57617 0.0078c-0.00209 0.04557-0.00405 0.09114-0.00586 0.13672l0.46484 0.28322-0.24023 0.76953 0.61133-0.52539 0.65625 0.46484-0.30859-0.74219 0.64453-0.48047-0.80273 0.064453zm1.4902 4.6465-0.31836 0.41016-0.47461-0.21094 0.29102 0.42969-0.3457 0.38477 0.49805-0.14258 0.25781 0.44922 0.019531-0.51953 0.50586-0.10742-0.48633-0.17773zm40.391 0.55859 0.0293 0.54102-0.51953 0.1582 0.52539 0.14062-0.0098 0.54297 0.29492-0.45508 0.51367 0.17578-0.3418-0.42188 0.32617-0.43359-0.50586 0.19531zm-2.3027 5.3477-0.11133 0.65234-0.6582 0.04883 0.58398 0.30664-0.15625 0.64258 0.47266-0.46094 0.5625 0.34766-0.29297-0.59375 0.50391-0.42578-0.6543 0.09375zm-37.152 0.63281 0.021484 0.79492-0.67578 0.18945c0.011685 0.02085 0.023404 0.04169 0.035156 0.0625l0.63672 0.1875-0.033203 0.79492 0.45117-0.65625 0.74414 0.27734-0.48438-0.63086 0.49414-0.62305-0.75 0.26758zm32.936 4.4551-0.12305 0.49219h-0.50586l0.42773 0.26953-0.15625 0.48047 0.38867-0.32422 0.4082 0.29883-0.1875-0.4707 0.41016-0.29688-0.50586 0.0332z" fill="#fff"/>
    <path d="m25.465 4.7558c-12.321-0.46784-23.69 13.238-19.617 24.859 3.1966 11.901 18.432 16.606 28.88 10.066 11.536-7.2212 10.624-23.209 3.386-30.151-3.3063-3.1715-7.008-4.7135-12.649-4.7742zm-1.4652 1.2442c11.663-0.44499 20.932 11.714 16.822 23.552-2.6466 8.2332-0.90462 2.1152-6.5524 3.3981-2.4668 0.56031-0.57982-3.4666 0.63061-4.3923 1.3435-1.519 3.2057-2.7525 3.8636-4.7469 1.7302-3.9003-2.8268-3.2969-4.5258-5.1453-1.5161-2.171-3.8639 1.7489-5.8407 0.6111-2.3308-1.3986-1.7321-5.0241-4.1674-6.3092-1.9566-0.68571-3.1484 2.3527-5.1845 1.4182-9.9916-4.5251-0.089786-8.2463 4.9543-8.3856zm-13.64 15.746c0.95731-1.1268 3.6936-3.0907 3.7515-1.6133 0.25348 6.4735 5.0645 8.6914 5.0645 8.6914s-1.2912-4.6212-0.23388-5.8008c1.7663-1.9705 4.7054-2.272 7.0151-0.98048 3.7862 2.1171-4.7844 5.8094 4.8242 7.5742 4.2622 0.78283-4.2551 3.6206-5.2837 6.292-0.95748 2.4867-3.1202 5.0771-3.1202 5.0771-4.3916 1.5071-16.384-8.4225-15.516-16.72 0 0 2.2027-0.99475 3.4989-2.5204z" fill="#fff" stroke-width=".86364"/>
    <path d="m12.922 21.719-6.543 6.5449 5.0586 3.3047-0.67773 5.4512 5.7754 2.2773 4.5082-1.9058 1.7868-1.313-6.2715 2.1543-4.7109-1.8594 0.36133-2.9121 0.66211 1.6855 5.2324 1.7988 1.1578-3.9821-1.1872 1.5352-0.58195 1.1793-3.8594-1.3281-1.166-2.9668 0.35352-2.8398 10.976 5.8057-0.91142-1.8838 5.5039-1.6201-1.9838-0.17937-3.7232 1.03-1.709-6.916 4.657-0.11872-2.6408-0.81932-3.2662 0.04742 2.1926 8.247-9.9153-5.0868-0.42383 3.4141-3.6191-2.3633 4.0262-4.3939z" color="#000000" color-rendering="auto" dominant-baseline="auto" fill="#fff" image-rendering="auto" shape-rendering="auto" solid-color="#000000" style="font-feature-settings:normal;font-variant-alternates:normal;font-variant-caps:normal;font-variant-ligatures:normal;font-variant-numeric:normal;font-variant-position:normal;isolation:auto;mix-blend-mode:normal;shape-padding:0;text-decoration-color:#000000;text-decoration-line:none;text-decoration-style:solid;text-indent:0;text-orientation:mixed;text-transform:none;white-space:normal"/>
</svg>
