<svg width="48" height="48" version="1.1" viewBox="0 0 48 48" xmlns="http://www.w3.org/2000/svg">
 <path d="m7 5c-1.108 0-2 0.892-2 2v34c0 1.108 0.892 2 2 2h34c1.108 0 2-0.892 2-2v-34c0-1.108-0.892-2-2-2h-34zm17.281 0.68359c0.89014 0.0012699 1.1416 0.081055 4.1992 1.3242 10.096 4.105 12.714 5.219 13.09 5.5723 0.79022 0.74239 0.76367 0.32189 0.76367 11.439 0 9.7733-0.011055 10.232-0.25391 10.705-0.13953 0.27208-0.39823 0.62879-0.57422 0.79297-0.17599 0.16418-1.6961 0.86132-3.3789 1.5508-1.6828 0.68946-5.2194 2.1419-7.8594 3.2266-4.741 1.948-4.8142 1.9723-5.9336 2.0117-0.90831 0.032-1.2859-0.017542-1.9004-0.25l-0.76758-0.28906v-17.75-17.75l0.83398-0.29297c0.55969-0.19657 1.1452-0.29192 1.7812-0.29102zm-5.3477 1.7637 0.035156 8.3457c0.01904 4.5897 0.01904 12.1 0 16.689l-0.035156 8.3457-1.2676-0.66016-1.2656-0.6582v-15.371-15.373l1.2656-0.6582 1.2676-0.66016zm-5.3105 2.75c0.02361 0 0.042969 6.2344 0.042969 13.854 0 10.976-0.033969 13.85-0.16602 13.836-0.09167-0.0097-0.69184-0.29328-1.334-0.62891l-1.168-0.60937 0.035156-12.561 0.033203-12.559 1.2578-0.66602c0.69139-0.36618 1.2752-0.66602 1.2988-0.66602zm13.344 1.8848c-0.055 0.0023-0.099609 3.6659-0.099609 8.1426v8.1406l2.6914-3.5742c1.4801-1.965 3.0692-4.0728 3.5332-4.6836l0.84375-1.1094-0.035156 6.2344-0.033203 6.2344-2.7344 0.55859c-1.5033 0.30745-3.0783 0.63096-3.5 0.71875l-0.76562 0.16016v1.582 1.5801l0.90039-0.25781c0.495-0.14209 3.5241-0.98948 6.7324-1.8828l5.834-1.625v-1.0859-1.0879l-2.168 0.44922c-1.1917 0.24669-2.2404 0.47489-2.332 0.50781-0.13176 0.04733-0.16779-1.1886-0.16602-5.9023 0.0022-5.8686 0.007816-5.9562 0.25195-5.5625 0.13645 0.22 1.1326 1.8991 2.2148 3.7324 1.0822 1.8333 2.0206 3.3913 2.084 3.4609 0.06504 0.07144 0.11373-2.3121 0.11328-5.4668v-5.5938l-6.6328-1.8379c-3.6479-1.0106-6.6774-1.8343-6.7324-1.832zm-18.793 0.97656c0.14936 0.064467 0.15625 0.94366 0.14062 5.877-0.01043 3.2927-0.055039 8.3103-0.099609 11.15l-0.082031 5.1641-0.66602-0.3418c-0.36667-0.18735-0.82906-0.54254-1.0273-0.78906-0.78434-0.97516-0.77344-0.82533-0.77344-9.9707 0-8.0313 0.011479-8.4173 0.26562-9.0684 0.2878-0.73725 0.90132-1.4171 1.5352-1.7031 0.22-0.09927 0.50448-0.23671 0.63281-0.30469 0.027468-0.014549 0.052882-0.022882 0.074219-0.013672zm21.094 2.5234 1.7656 0.37305c0.97167 0.20486 1.8705 0.39293 1.9961 0.41797 0.17132 0.03415-0.24043 0.6122-1.6445 2.3125-1.0295 1.2467-1.9264 2.3229-1.9941 2.3926-0.07555 0.07765-0.12305-0.96026-0.12305-2.6836v-2.8125zm7.0938 1.5547c-0.05091-0.11039 2.541 0.4118 2.6758 0.53906 0.05698 0.05378 0.086717 1.0213 0.066407 2.1523l-0.03711 2.0566-1.334-2.332c-0.73333-1.2828-1.3497-2.3697-1.3711-2.416z" fill="#fff"/>
</svg>
