<?xml version="1.0" encoding="UTF-8" standalone="no"?>
<!-- Created with Inkscape (http://www.inkscape.org/) -->

<svg
   xmlns:dc="http://purl.org/dc/elements/1.1/"
   xmlns:cc="http://creativecommons.org/ns#"
   xmlns:rdf="http://www.w3.org/1999/02/22-rdf-syntax-ns#"
   xmlns:svg="http://www.w3.org/2000/svg"
   xmlns="http://www.w3.org/2000/svg"
   xmlns:sodipodi="http://sodipodi.sourceforge.net/DTD/sodipodi-0.dtd"
   xmlns:inkscape="http://www.inkscape.org/namespaces/inkscape"
   width="192"
   height="192"
   viewBox="0 0 50.799998 50.800001"
   version="1.1"
   id="svg170"
   inkscape:version="0.92.2 2405546, 2018-03-11"
   sodipodi:docname="tibackup.svg">
  <defs
     id="defs164" />
  <sodipodi:namedview
     id="base"
     pagecolor="#ffffff"
     bordercolor="#666666"
     borderopacity="1.0"
     inkscape:pageopacity="0.0"
     inkscape:pageshadow="2"
     inkscape:zoom="2.3257184"
     inkscape:cx="28.082836"
     inkscape:cy="78.253179"
     inkscape:document-units="mm"
     inkscape:current-layer="g183"
     showgrid="false"
     inkscape:window-width="1840"
     inkscape:window-height="970"
     inkscape:window-x="40"
     inkscape:window-y="40"
     inkscape:window-maximized="1"
     units="px"
     inkscape:pagecheckerboard="true"
     inkscape:snap-bbox="true"
     inkscape:bbox-paths="true"
     inkscape:bbox-nodes="true"
     inkscape:snap-bbox-edge-midpoints="true"
     inkscape:snap-bbox-midpoints="true"
     inkscape:object-paths="true"
     inkscape:snap-intersection-paths="true"
     inkscape:snap-midpoints="true"
     inkscape:snap-smooth-nodes="true"
     inkscape:snap-object-midpoints="true"
     inkscape:snap-center="true"
     inkscape:snap-text-baseline="true" />
  <metadata
     id="metadata167">
    <rdf:RDF>
      <cc:Work
         rdf:about="">
        <dc:format>image/svg+xml</dc:format>
        <dc:type
           rdf:resource="http://purl.org/dc/dcmitype/StillImage" />
        <dc:title></dc:title>
      </cc:Work>
    </rdf:RDF>
  </metadata>
  <g
     inkscape:label="Layer 1"
     inkscape:groupmode="layer"
     id="layer1">
    <g
       id="g183">
      <path
         style="fill:#ffffff;stroke-width:1.11124992"
         d="m 20.94945,3.1750003 c -0.555629,0 -1.011292,0.4109892 -1.100192,0.9332764 L 19.015717,9.9978395 A 16.4465,16.4465 0 0 0 15.259874,12.18737 L 9.7258454,9.9533979 A 1.11125,1.11125 0 0 0 8.3698558,10.431405 L 3.925166,18.132227 c -0.2778123,0.477836 -0.1556258,1.078164 0.2666502,1.422653 l 4.6891194,3.678328 a 17.446625,17.446625 0 0 0 -0.1555459,2.166793 c 0,0.733424 0.066646,1.455592 0.1555459,2.166792 l -4.6891194,3.67833 C 3.769541,31.578482 3.6473535,32.178826 3.925166,32.667774 l 4.4446898,7.700822 c 0.277812,0.477835 0.8559271,0.678032 1.3559896,0.478007 l 5.5340286,-2.233972 c 1.144587,0.877887 2.400119,1.62279 3.755843,2.189529 l 0.833541,5.889564 c 0.08888,0.522289 0.544563,0.933276 1.100192,0.933276 h 8.889897 c 0.555622,0 1.01129,-0.410987 1.10019,-0.933276 l 0.833541,-5.889564 a 16.4465,16.4465 0 0 0 3.755842,-2.189529 l 5.53403,2.233972 a 1.11125,1.11125 0 0 0 1.355474,-0.478007 l 4.445206,-7.700822 c 0.2778,-0.477835 0.155628,-1.078164 -0.266652,-1.422651 l -4.689636,-3.67833 c 0.08888,-0.7112 0.155548,-1.433368 0.155548,-2.166792 0,-0.733428 -0.06667,-1.455593 -0.155548,-2.166793 l 4.700489,-3.678328 c 0.422273,-0.33336 0.54496,-0.933705 0.267169,-1.422653 L 42.429791,10.431405 C 42.151991,9.9535686 41.573866,9.7533737 41.073801,9.9533979 L 35.539773,12.18737 C 34.395186,11.309482 33.139653,10.56458 31.783931,9.9978395 L 30.95039,4.1082767 C 30.850378,3.5859895 30.394969,3.1750003 29.839347,3.1750003 Z m 4.444689,14.4461467 c 0.283041,0 0.562516,0.0161 0.837675,0.04548 a 10.25539,9.6441944 0 0 0 -0.922424,-0.04341 c 0.02837,-3.04e-4 0.05631,-0.0021 0.08475,-0.0021 z m -11.298535,0.766879 h 11.419975 v 2.854606 3.350183 h -2.855123 v -3.350183 h -1.427303 v 8.314737 h 2.729549 v 2.854605 h -8.314221 v -2.854605 h 2.729549 v -8.314737 h -1.427303 v 3.350183 h -2.855123 v -3.350183 z m 12.888619,0 h 9.71982 v 2.854606 h -3.432349 v 8.314737 h 3.432349 v 2.854605 h -9.71982 v -2.854605 h 3.432349 v -8.314737 h -3.432349 z"
         id="path981"
         inkscape:connector-curvature="0" />
    </g>
  </g>
</svg>
