<?xml version="1.0" encoding="UTF-8"?>
<svg version="1.1" viewBox="0 0 48 48" xmlns="http://www.w3.org/2000/svg">
    <path d="m20.195 5c-0.475 0-0.86455 0.35135-0.94055 0.79786l-0.71259 5.035a14.06 14.06 0 0 0-3.2108 1.8718l-4.731-1.9098a0.94996 0.94996 0 0 0-1.1592 0.40865l-3.7997 6.5834c-0.2375 0.4085-0.13305 0.92174 0.22796 1.2162l4.0087 3.1446a14.915 14.915 0 0 0-0.13298 1.8524c0 0.627 0.05698 1.2444 0.13298 1.8524l-4.0087 3.1446c-0.361 0.28499-0.46546 0.79821-0.22796 1.2163l3.7997 6.5834c0.2375 0.4085 0.73173 0.57964 1.1592 0.40865l4.731-1.9098c0.97851 0.7505 2.0518 1.3873 3.2108 1.8718l0.71259 5.035c0.07598 0.4465 0.46554 0.79785 0.94055 0.79785h7.5999c0.475 0 0.86456-0.35135 0.94056-0.79785l0.71259-5.035a14.06 14.06 0 0 0 3.2108-1.8718l4.731 1.9098a0.94996 0.94996 0 0 0 1.1588-0.40865l3.8002-6.5834c0.23749-0.40851 0.13305-0.92175-0.22796-1.2163l-4.0091-3.1446c0.07598-0.608 0.13298-1.2254 0.13298-1.8524s-0.057-1.2444-0.13298-1.8524l4.0184-3.1446c0.361-0.28499 0.46588-0.79821 0.2284-1.2162l-3.8002-6.5834c-0.23749-0.4085-0.73172-0.57964-1.1592-0.40865l-4.731 1.9098c-0.97851-0.7505-2.0518-1.3873-3.2108-1.8718l-0.71259-5.035c-0.0855-0.4465-0.47482-0.79786-0.94979-0.79786zm3.7997 12.35c0.24197 0 0.48089 0.0138 0.71613 0.0389a8.7669 8.2448 0 0 0-0.78857-0.0371c0.02425-2.5e-4 0.04814-2e-3 0.07245-2e-3zm-9.6594 0.6556h9.7629v5.3044h-2.4408v-2.8641h-1.2202v7.1082h2.3334v2.4404h-7.1078v-2.4404h2.3334v-7.1082h-1.2202v2.8641h-2.4408v-2.8641zm11.019 0h8.3094v2.4404h-2.9343v7.1082h2.9343v2.4404h-8.3094v-2.4404h2.9342v-7.1082h-2.9342z" fill="#fff" stroke-width=".94996"/>
</svg>
