<?xml version="1.0" encoding="UTF-8" standalone="no"?>
<!-- Created with Inkscape (http://www.inkscape.org/) -->

<svg
   xmlns:dc="http://purl.org/dc/elements/1.1/"
   xmlns:cc="http://creativecommons.org/ns#"
   xmlns:rdf="http://www.w3.org/1999/02/22-rdf-syntax-ns#"
   xmlns:svg="http://www.w3.org/2000/svg"
   xmlns="http://www.w3.org/2000/svg"
   xmlns:sodipodi="http://sodipodi.sourceforge.net/DTD/sodipodi-0.dtd"
   xmlns:inkscape="http://www.inkscape.org/namespaces/inkscape"
   width="235"
   height="235"
   viewBox="0 0 62.177081 62.177084"
   version="1.1"
   id="svg170"
   inkscape:version="0.92.3 (2405546, 2018-03-11)"
   sodipodi:docname="tibackup.svg">
  <defs
     id="defs164" />
  <sodipodi:namedview
     id="base"
     pagecolor="#ffffff"
     bordercolor="#666666"
     borderopacity="1.0"
     inkscape:pageopacity="0.0"
     inkscape:pageshadow="2"
     inkscape:zoom="0.12374369"
     inkscape:cx="-2015.282"
     inkscape:cy="2.7671306"
     inkscape:document-units="mm"
     inkscape:current-layer="g183"
     showgrid="false"
     inkscape:window-width="1920"
     inkscape:window-height="1003"
     inkscape:window-x="-9"
     inkscape:window-y="-9"
     inkscape:window-maximized="1"
     units="px" />
  <metadata
     id="metadata167">
    <rdf:RDF>
      <cc:Work
         rdf:about="">
        <dc:format>image/svg+xml</dc:format>
        <dc:type
           rdf:resource="http://purl.org/dc/dcmitype/StillImage" />
        <dc:title />
      </cc:Work>
    </rdf:RDF>
  </metadata>
  <g
     inkscape:label="Layer 1"
     inkscape:groupmode="layer"
     id="layer1">
    <g
       id="g183">
      <path
         style="fill:#ffffff;fill-opacity:1;stroke-width:0.35277778"
         d="m 24.083127,61.528602 c -0.43861,-0.32214 -0.75842,-1.58609 -1.1867,-4.69004 l -0.58628,-4.24907 -2.49669,-1.39537 c -1.37318,-0.76747 -2.67329,-1.44251 -2.88912,-1.5001 -0.21583,-0.0576 -2.00496,0.53772 -3.97584,1.32292 -3.9613998,1.57821 -4.9785298,1.72685 -5.5448498,0.81027 -0.20979,-0.33955 -1.76854,-3.02551 -3.46388,-5.96879 -2.4683,-4.28523 -3.01326004,-5.48068 -2.73525,-6.00015 0.19095,-0.3568 1.78613,-1.75866 3.54484,-3.11524 l 3.19765,-2.46652 v -3.175 -3.175 l -3.19765,-2.46651 c -1.75871,-1.35659 -3.35389,-2.75845 -3.54484,-3.11525 -0.27801004,-0.51947 0.26695,-1.71492 2.73525,-6.00015 1.69534,-2.94328 3.25409,-5.62923 3.46388,-5.96878 0.56632,-0.9165803 1.58345,-0.7679503 5.5448498,0.81026 1.97088,0.7852 3.76001,1.38051 3.97584,1.32292 0.21583,-0.0576 1.51594,-0.73263 2.88912,-1.50009 l 2.49669,-1.3953803 0.58628,-4.24907 c 0.42828,-3.10395 0.74809,-4.36790003 1.1867,-4.69003003 0.84767,-0.62256 13.13626,-0.62256 13.98393,0 0.43861,0.32213 0.75843,1.58608003 1.1867,4.69003003 l 0.58628,4.24907 2.49669,1.3953803 c 1.37319,0.76746 2.67329,1.4425 2.88912,1.50009 0.21583,0.0576 2.00496,-0.53772 3.97584,-1.32292 3.9614,-1.5782103 4.97853,-1.7268403 5.54485,-0.81026 3.16236,5.11823 6.47287,11.36676 6.28356,11.8601 -0.12616,0.32877 -1.73302,1.75983 -3.57079,3.18015 l -3.34141,2.58239 v 3.10305 3.10305 l 3.34141,2.58239 c 1.83777,1.42032 3.44269,2.84632 3.56647,3.1689 0.14622,0.38105 -0.97731,2.67116 -3.20737,6.53761 -2.82947,4.90569 -3.5712,5.95111 -4.22232,5.95111 -0.43444,0 -2.48293,-0.66859 -4.55222,-1.48576 l -3.76234,-1.48577 -1.28238,0.78732 c -0.70531,0.43303 -1.92753,1.1189 -2.71604,1.52416 l -1.43366,0.73685 -0.59098,4.28313 c -0.43222,3.13247 -0.75229,4.40159 -1.19141,4.7241 -0.42817,0.31446 -2.43415,0.44097 -6.99196,0.44097 -4.55782,0 -6.5638,-0.12651 -6.99197,-0.44097 z m 4.8753,-24.25348 c 0,-1.20041 -0.0417,-1.23773 -1.49931,-1.3432 l -1.4993,-0.10848 v -4.74221 -4.74222 h 0.86511 c 0.81481,0 0.87122,0.12819 0.97014,2.20486 l 0.10503,2.20486 1.4993,0.10848 1.49931,0.10848 v -3.72445 -3.72445 h -6.70278 -6.70278 v 3.72445 3.72445 l 1.49931,-0.10848 1.4993,-0.10848 0.10503,-2.20486 c 0.0989,-2.07667 0.15532,-2.20486 0.97014,-2.20486 h 0.86511 v 4.74222 4.74221 l -1.49931,0.10848 c -1.26154,0.0913 -1.51771,0.23842 -1.61539,0.92789 -0.25365,1.79029 -0.0719,1.85437 4.95966,1.74852 l 4.68143,-0.0985 z m 14.99305,0 v -1.41111 h -1.94027 -1.94028 v -4.7625 -4.7625 h 1.94028 1.94027 v -1.41111 -1.41111 h -5.64444 -5.64444 v 1.41111 1.41111 h 1.94027 1.94028 v 4.7625 4.7625 h -1.94028 -1.94027 v 1.41111 1.41111 h 5.64444 5.64444 z"
         id="path185"
         inkscape:connector-curvature="0" />
    </g>
  </g>
</svg>
