<?xml version="1.0" encoding="UTF-8" standalone="no"?>
<!-- Created with Inkscape (http://www.inkscape.org/) -->

<svg
   xmlns:dc="http://purl.org/dc/elements/1.1/"
   xmlns:cc="http://creativecommons.org/ns#"
   xmlns:rdf="http://www.w3.org/1999/02/22-rdf-syntax-ns#"
   xmlns:svg="http://www.w3.org/2000/svg"
   xmlns="http://www.w3.org/2000/svg"
   xmlns:sodipodi="http://sodipodi.sourceforge.net/DTD/sodipodi-0.dtd"
   xmlns:inkscape="http://www.inkscape.org/namespaces/inkscape"
   width="192"
   height="192"
   viewBox="0 0 50.799998 50.800001"
   version="1.1"
   id="svg170"
   inkscape:version="0.92.3 (2405546, 2018-03-11)"
   sodipodi:docname="tibackup.svg">
  <defs
     id="defs164" />
  <sodipodi:namedview
     id="base"
     pagecolor="#ffffff"
     bordercolor="#666666"
     borderopacity="1.0"
     inkscape:pageopacity="0.0"
     inkscape:pageshadow="2"
     inkscape:zoom="1.4"
     inkscape:cx="-165.00031"
     inkscape:cy="162.3796"
     inkscape:document-units="mm"
     inkscape:current-layer="g183"
     showgrid="false"
     inkscape:window-width="1920"
     inkscape:window-height="1003"
     inkscape:window-x="-9"
     inkscape:window-y="-9"
     inkscape:window-maximized="1"
     units="px" />
  <metadata
     id="metadata167">
    <rdf:RDF>
      <cc:Work
         rdf:about="">
        <dc:format>image/svg+xml</dc:format>
        <dc:type
           rdf:resource="http://purl.org/dc/dcmitype/StillImage" />
        <dc:title />
      </cc:Work>
    </rdf:RDF>
  </metadata>
  <g
     inkscape:label="Layer 1"
     inkscape:groupmode="layer"
     id="layer1">
    <g
       id="g183">
      <path
         style="fill:#ffffff;fill-opacity:1;stroke-width:0.26598343"
         d="M 20.118136,48.350856 C 19.787437,48.107972 19.546311,47.154993 19.223401,44.814712 L 18.781364,41.611045 16.898938,40.55898 C 15.863603,39.980332 14.88336,39.471372 14.720631,39.427951 14.557902,39.384521 13.208954,39.833376 11.722972,40.425392 8.7362007,41.615313 7.9693167,41.727383 7.5423287,41.03631 7.3841537,40.7803 6.2089047,38.75517 4.9306717,36.536029 3.0696502,33.305099 2.6587673,32.403767 2.8683782,32.012103 3.0123486,31.743087 4.2150645,30.686128 5.5410767,29.663309 L 7.9520057,27.80363 V 25.409779 23.015928 L 5.5410767,21.156256 C 4.2150645,20.13343 3.0123486,19.076471 2.8683782,18.807455 c -0.2096109,-0.391664 0.201272,-1.292996 2.0622935,-4.523926 1.278233,-2.219141 2.453482,-4.244264 2.611657,-4.5002739 0.426988,-0.691073 1.193872,-0.57901 4.1806433,0.6109109 1.485982,0.592016 2.83493,1.040861 2.997659,0.99744 0.162729,-0.04343 1.142972,-0.55238 2.178307,-1.131021 l 1.882426,-1.0520729 0.442037,-3.203666 c 0.32291,-2.340281 0.564036,-3.29326 0.894735,-3.536136 0.639116,-0.469391 9.90433,-0.469391 10.543447,0 0.330698,0.242876 0.571832,1.195855 0.894734,3.536136 l 0.442037,3.203666 1.882426,1.0520729 c 1.035343,0.578641 2.015578,1.0876 2.178307,1.131021 0.162729,0.04343 1.511677,-0.405424 2.997659,-0.99744 2.986772,-1.1899209 3.753656,-1.3019839 4.180644,-0.6109109 2.384321,3.8589859 4.880342,8.5701829 4.737608,8.9421459 -0.09512,0.247882 -1.306643,1.326857 -2.692264,2.397734 l -2.519319,1.947041 v 2.339603 2.339603 l 2.519319,1.947041 c 1.385621,1.070877 2.595681,2.146037 2.689007,2.389252 0.110245,0.2873 -0.736861,2.013971 -2.418257,4.929154 -2.133332,3.698737 -2.692573,4.486951 -3.183497,4.486951 -0.327555,0 -1.872052,-0.504096 -3.432232,-1.120216 l -2.836687,-1.120225 -0.966875,0.593615 c -0.531781,0.326491 -1.453297,0.843616 -2.047809,1.149169 l -1.080935,0.555562 -0.445581,3.229347 c -0.32588,2.361784 -0.567203,3.318661 -0.898285,3.561824 -0.322827,0.237093 -1.835274,0.332477 -5.27172,0.332477 -3.436454,0 -4.948901,-0.09538 -5.271727,-0.332477 z M 23.79396,30.064488 c 0,-0.905071 -0.03144,-0.93321 -1.130433,-1.012731 l -1.130426,-0.08179 v -3.575479 -3.575485 h 0.652266 c 0.614342,0 0.656873,0.09665 0.731456,1.662395 l 0.07919,1.662396 1.130425,0.08179 1.130433,0.08179 v -2.808119 -2.808119 h -5.053687 -5.053687 v 2.808119 2.808119 l 1.130433,-0.08179 1.130426,-0.08179 0.07919,-1.662396 c 0.07457,-1.565744 0.117106,-1.662395 0.731455,-1.662395 h 0.652266 v 3.575485 3.575479 l -1.130433,0.08179 c -0.951162,0.06884 -1.144306,0.179762 -1.217953,0.6996 -0.191245,1.349823 -0.05421,1.398138 3.739428,1.31833 l 3.529653,-0.07427 z m 11.304292,0 v -1.063933 h -1.462903 -1.462911 v -3.590776 -3.590776 h 1.462911 1.462903 V 20.75507 19.691137 H 30.84252 26.586788 v 1.063933 1.063933 h 1.462903 1.462911 v 3.590776 3.590776 h -1.462911 -1.462903 v 1.063933 1.063933 h 4.255732 4.255732 z"
         id="path185"
         inkscape:connector-curvature="0" />
    </g>
  </g>
</svg>
