<?xml version="1.0" encoding="UTF-8" standalone="no"?>
<svg
   xmlns:dc="http://purl.org/dc/elements/1.1/"
   xmlns:cc="http://creativecommons.org/ns#"
   xmlns:rdf="http://www.w3.org/1999/02/22-rdf-syntax-ns#"
   xmlns:svg="http://www.w3.org/2000/svg"
   xmlns="http://www.w3.org/2000/svg"
   xmlns:sodipodi="http://sodipodi.sourceforge.net/DTD/sodipodi-0.dtd"
   xmlns:inkscape="http://www.inkscape.org/namespaces/inkscape"
   width="48"
   height="48"
   viewBox="0 0 48 48"
   id="svg2"
   version="1.1"
   inkscape:version="0.91 r13725"
   sodipodi:docname="square.svg">
  <metadata
     id="metadata10">
    <rdf:RDF>
      <cc:Work
         rdf:about="">
        <dc:format>image/svg+xml</dc:format>
        <dc:type
           rdf:resource="http://purl.org/dc/dcmitype/StillImage" />
      </cc:Work>
    </rdf:RDF>
  </metadata>
  <defs
     id="defs8" />
  <sodipodi:namedview
     pagecolor="#ffffff"
     bordercolor="#666666"
     borderopacity="1"
     objecttolerance="10"
     gridtolerance="10"
     guidetolerance="10"
     inkscape:pageopacity="0"
     inkscape:pageshadow="2"
     inkscape:window-width="1366"
     inkscape:window-height="715"
     id="namedview6"
     showgrid="false"
     inkscape:snap-bbox="true"
     inkscape:bbox-paths="true"
     inkscape:bbox-nodes="true"
     inkscape:snap-bbox-edge-midpoints="true"
     inkscape:snap-bbox-midpoints="true"
     inkscape:object-paths="true"
     inkscape:snap-intersection-paths="true"
     inkscape:object-nodes="true"
     inkscape:snap-midpoints="true"
     inkscape:snap-smooth-nodes="true"
     inkscape:snap-object-midpoints="true"
     inkscape:snap-global="false"
     inkscape:zoom="1.2291667"
     inkscape:cx="129.69096"
     inkscape:cy="81.781656"
     inkscape:window-x="0"
     inkscape:window-y="27"
     inkscape:window-maximized="1"
     inkscape:current-layer="svg2" />
  <path
     style="fill:#ffffff"
     d="M 7 5 C 5.892 5 5 5.892 5 7 L 5 41 C 5 42.108 5.892 43 7 43 L 41 43 C 42.108 43 43 42.108 43 41 L 43 7 C 43 5.892 42.108 5 41 5 L 7 5 z M 20.373047 6.2382812 C 20.651346 6.2766923 20.891237 6.4763435 20.96875 6.765625 L 21.544922 8.9140625 C 21.648272 9.2997712 21.420866 9.6935244 21.035156 9.796875 L 18.886719 10.371094 C 18.50101 10.474444 18.10921 10.247037 18.005859 9.8613281 L 17.429688 7.7148438 C 17.326337 7.3291351 17.553744 6.9353817 17.939453 6.8320312 L 20.085938 6.2558594 C 20.182365 6.2300217 20.28028 6.2254776 20.373047 6.2382812 z M 30.373047 8.2851562 C 30.651346 8.3235677 30.89319 8.5232185 30.970703 8.8125 L 31.544922 10.958984 C 31.648272 11.344693 31.420865 11.738447 31.035156 11.841797 L 28.888672 12.417969 C 28.502963 12.521319 28.10921 12.293912 28.005859 11.908203 L 27.429688 9.7617188 C 27.326336 9.3760101 27.553744 8.9822567 27.939453 8.8789062 L 30.087891 8.3027344 C 30.184318 8.2768968 30.280281 8.2723525 30.373047 8.2851562 z M 11.554688 8.6015625 C 11.832986 8.6399736 12.072878 8.8396248 12.150391 9.1289062 L 12.726562 11.277344 C 12.829914 11.663052 12.602506 12.056806 12.216797 12.160156 L 10.068359 12.734375 C 9.682651 12.837725 9.2888972 12.610318 9.1855469 12.224609 L 8.6113281 10.078125 C 8.5079778 9.6924163 8.735385 9.2986629 9.1210938 9.1953125 L 11.267578 8.6191406 C 11.364005 8.593303 11.46192 8.5887588 11.554688 8.6015625 z M 17.144531 11.828125 C 17.42283 11.866536 17.664675 12.06814 17.742188 12.357422 L 18.316406 14.503906 C 18.419757 14.889615 18.192349 15.283368 17.806641 15.386719 L 15.660156 15.962891 C 15.274447 16.066241 14.880694 15.838834 14.777344 15.453125 L 14.201172 13.304688 C 14.097822 12.918979 14.325227 12.525226 14.710938 12.421875 L 16.859375 11.847656 C 16.955802 11.821819 17.051765 11.815321 17.144531 11.828125 z M 12.736328 13.009766 C 13.014627 13.048177 13.254519 13.249782 13.332031 13.539062 L 13.908203 15.685547 C 14.011553 16.071256 13.784145 16.465009 13.398438 16.568359 L 11.25 17.144531 C 10.864291 17.247882 10.470537 17.020474 10.367188 16.634766 L 9.7929688 14.486328 C 9.6896183 14.100619 9.9150728 13.706866 10.300781 13.603516 L 12.449219 13.029297 C 12.545646 13.003459 12.643562 12.996962 12.736328 13.009766 z M 22.736328 15.056641 C 23.014627 15.095052 23.254519 15.294703 23.332031 15.583984 L 23.908203 17.732422 C 24.011554 18.118132 23.784147 18.511884 23.398438 18.615234 L 21.25 19.191406 C 20.864291 19.294757 20.470538 19.06735 20.367188 18.681641 L 19.792969 16.533203 C 19.689618 16.147494 19.917026 15.753741 20.302734 15.650391 L 22.449219 15.074219 C 22.545646 15.048381 22.643562 15.043837 22.736328 15.056641 z M 32.736328 17.103516 C 33.014627 17.141927 33.254519 17.341578 33.332031 17.630859 L 33.908203 19.779297 C 34.011553 20.165006 33.784146 20.558759 33.398438 20.662109 L 31.251953 21.236328 C 30.866244 21.339678 30.472491 21.112271 30.369141 20.726562 L 29.792969 18.580078 C 29.689618 18.194369 29.917026 17.800616 30.302734 17.697266 L 32.449219 17.121094 C 32.545646 17.095256 32.643562 17.090712 32.736328 17.103516 z M 13.917969 17.419922 C 14.196268 17.458333 14.436159 17.657984 14.513672 17.947266 L 15.089844 20.095703 C 15.193194 20.481413 14.965787 20.875165 14.580078 20.978516 L 12.431641 21.552734 C 12.045932 21.656085 11.652179 21.428678 11.548828 21.042969 L 10.972656 18.896484 C 10.869306 18.510776 11.096713 18.117022 11.482422 18.013672 L 13.630859 17.4375 C 13.727287 17.411662 13.825202 17.407118 13.917969 17.419922 z M 23.917969 19.466797 C 24.196268 19.505208 24.436159 19.704859 24.513672 19.994141 L 25.089844 22.142578 C 25.193194 22.528287 24.965788 22.92204 24.580078 23.025391 L 22.431641 23.599609 C 22.045932 23.70296 21.652178 23.475552 21.548828 23.089844 L 20.974609 20.943359 C 20.871259 20.557651 21.098666 20.163897 21.484375 20.060547 L 23.630859 19.484375 C 23.727287 19.458537 23.825202 19.453993 23.917969 19.466797 z M 33.917969 21.511719 C 34.196268 21.55013 34.436159 21.751734 34.513672 22.041016 L 35.089844 24.1875 C 35.193194 24.573209 34.965787 24.966962 34.580078 25.070312 L 32.431641 25.646484 C 32.045932 25.749835 31.652178 25.522427 31.548828 25.136719 L 30.974609 22.988281 C 30.871259 22.602573 31.098666 22.208819 31.484375 22.105469 L 33.630859 21.53125 C 33.727287 21.505412 33.825202 21.498915 33.917969 21.511719 z M 29.507812 22.693359 C 29.786113 22.731771 30.027956 22.933375 30.105469 23.222656 L 30.679688 25.369141 C 30.783038 25.754849 30.555631 26.148603 30.169922 26.251953 L 28.023438 26.828125 C 27.637729 26.931475 27.243975 26.704068 27.140625 26.318359 L 26.564453 24.169922 C 26.461103 23.784213 26.68851 23.39046 27.074219 23.287109 L 29.222656 22.712891 C 29.319083 22.687053 29.415046 22.680556 29.507812 22.693359 z M 20.689453 25.056641 C 20.967752 25.095052 21.207644 25.296655 21.285156 25.585938 L 21.861328 27.732422 C 21.964678 28.118131 21.737271 28.511884 21.351562 28.615234 L 19.205078 29.191406 C 18.819368 29.294757 18.425616 29.067349 18.322266 28.681641 L 17.746094 26.533203 C 17.642743 26.147494 17.87015 25.753741 18.255859 25.650391 L 20.404297 25.076172 C 20.500724 25.050334 20.596687 25.043837 20.689453 25.056641 z M 16.279297 26.238281 C 16.557596 26.276693 16.79944 26.476343 16.876953 26.765625 L 17.453125 28.914062 C 17.556475 29.299771 17.329068 29.693525 16.943359 29.796875 L 14.794922 30.373047 C 14.409213 30.476397 14.01546 30.24899 13.912109 29.863281 L 13.335938 27.714844 C 13.232586 27.329135 13.459994 26.935382 13.845703 26.832031 L 15.994141 26.257812 C 16.090568 26.231976 16.186531 26.225477 16.279297 26.238281 z M 30.689453 27.103516 C 30.967752 27.141927 31.209596 27.341577 31.287109 27.630859 L 31.861328 29.779297 C 31.964678 30.165006 31.737271 30.558759 31.351562 30.662109 L 29.205078 31.238281 C 28.819369 31.341632 28.425616 31.114224 28.322266 30.728516 L 27.746094 28.580078 C 27.642743 28.194368 27.870151 27.800616 28.255859 27.697266 L 30.404297 27.121094 C 30.500724 27.095256 30.596687 27.090712 30.689453 27.103516 z M 36.28125 30.332031 C 36.559549 30.370442 36.79944 30.570093 36.876953 30.859375 L 37.453125 33.007812 C 37.556476 33.393522 37.329068 33.787275 36.943359 33.890625 L 34.794922 34.464844 C 34.409213 34.568194 34.01546 34.340788 33.912109 33.955078 L 33.337891 31.808594 C 33.23454 31.422885 33.461948 31.029132 33.847656 30.925781 L 35.994141 30.349609 C 36.090568 30.323772 36.188484 30.319228 36.28125 30.332031 z M 17.460938 30.648438 C 17.739235 30.686848 17.981081 30.886499 18.058594 31.175781 L 18.632812 33.324219 C 18.736163 33.709927 18.508756 34.103681 18.123047 34.207031 L 15.976562 34.78125 C 15.590854 34.8846 15.1971 34.657193 15.09375 34.271484 L 14.517578 32.125 C 14.414228 31.73929 14.641635 31.345538 15.027344 31.242188 L 17.175781 30.666016 C 17.272208 30.640178 17.368171 30.635634 17.460938 30.648438 z M 27.460938 32.695312 C 27.739237 32.733725 27.981081 32.933375 28.058594 33.222656 L 28.634766 35.369141 C 28.738116 35.75485 28.51071 36.148603 28.125 36.251953 L 25.976562 36.828125 C 25.590854 36.931475 25.197101 36.704069 25.09375 36.318359 L 24.517578 34.171875 C 24.414228 33.786166 24.641635 33.392413 25.027344 33.289062 L 27.175781 32.712891 C 27.272209 32.687053 27.368171 32.68251 27.460938 32.695312 z M 37.462891 34.740234 C 37.741189 34.778646 37.981081 34.98025 38.058594 35.269531 L 38.634766 37.416016 C 38.738116 37.801724 38.510709 38.195478 38.125 38.298828 L 35.976562 38.875 C 35.590854 38.97835 35.1971 38.750943 35.09375 38.365234 L 34.519531 36.216797 C 34.416181 35.831088 34.643588 35.437335 35.029297 35.333984 L 37.175781 34.759766 C 37.272208 34.733928 37.370124 34.727431 37.462891 34.740234 z M 24.234375 38.285156 C 24.512674 38.323567 24.752565 38.523218 24.830078 38.8125 L 25.40625 40.960938 C 25.5096 41.346646 25.282193 41.7404 24.896484 41.84375 L 22.748047 42.419922 C 22.362337 42.523272 21.968585 42.295865 21.865234 41.910156 L 21.291016 39.761719 C 21.187665 39.37601 21.415072 38.982257 21.800781 38.878906 L 23.947266 38.302734 C 24.043693 38.276897 24.141609 38.272353 24.234375 38.285156 z "
     id="rect4" />
</svg>
