<?xml version="1.0" encoding="UTF-8" standalone="no"?>
<svg
   xmlns:dc="http://purl.org/dc/elements/1.1/"
   xmlns:cc="http://creativecommons.org/ns#"
   xmlns:rdf="http://www.w3.org/1999/02/22-rdf-syntax-ns#"
   xmlns:svg="http://www.w3.org/2000/svg"
   xmlns="http://www.w3.org/2000/svg"
   id="svg4564"
   version="1.1"
   viewBox="0 0 48 48"
   height="48"
   width="48">
  <metadata
     id="metadata4570">
    <rdf:RDF>
      <cc:Work
         rdf:about="">
        <dc:format>image/svg+xml</dc:format>
        <dc:type
           rdf:resource="http://purl.org/dc/dcmitype/StillImage" />
        <dc:title></dc:title>
      </cc:Work>
    </rdf:RDF>
  </metadata>
  <defs
     id="defs4568" />
  <path
     id="path7292"
     d="M 7 5 C 5.892 5 5 5.892 5 7 L 5 41 C 5 42.108 5.892 43 7 43 L 41 43 C 42.108 43 43 42.108 43 41 L 43 7 C 43 5.892 42.108 5 41 5 L 7 5 z M 14.025391 14.025391 L 19.013672 19.013672 L 24 14.025391 L 28.986328 19.013672 L 33.974609 14.025391 L 38.960938 19.013672 L 33.974609 24 L 28.986328 19.013672 L 24 24 L 28.986328 28.986328 L 24 33.974609 L 19.013672 28.986328 L 24 24 L 19.013672 19.013672 L 14.025391 24 L 9.0390625 19.013672 L 14.025391 14.025391 z "
     style="fill:#ffffff" />
</svg>
