<?xml version="1.0" encoding="UTF-8"?>
<svg version="1.1" viewBox="0 0 48 48" xmlns="http://www.w3.org/2000/svg">
    <path d="m24.891 4.0201v27.781c2.99e-4 3.7209-2.9203 6.7375-6.523 6.7374-3.6028 4.3e-5 -6.5233-3.0165-6.523-6.7374-2.99e-4 -3.7209 2.9203-6.7375 6.523-6.7374 0.36934 3e-3 0.73776 0.03846 1.1013 0.1059v-5.48c-0.44984-0.05427-0.90235-0.08343-1.3554-0.08736-6.7373 0-12.199 5.4616-12.199 12.199-6e-7 6.7373 5.4616 12.199 12.199 12.199s12.199-5.4616 12.199-12.199l4.99e-4 -19.952c1.3211 4.9551 6.2702 6.0469 11.773 6.0467v-4.8817c-5.5095-0.001431-10.334-3.6957-11.773-9.0141 0 0-3.4729 0.02007-5.4222 0.02007z" fill="#fff" style="paint-order:stroke markers fill"/>
</svg>
