<?xml version="1.0" encoding="UTF-8" standalone="no"?>
<svg
   xmlns:dc="http://purl.org/dc/elements/1.1/"
   xmlns:cc="http://creativecommons.org/ns#"
   xmlns:rdf="http://www.w3.org/1999/02/22-rdf-syntax-ns#"
   xmlns:svg="http://www.w3.org/2000/svg"
   xmlns="http://www.w3.org/2000/svg"
   id="svg881"
   version="1.1"
   viewBox="0 0 48 48"
   height="48"
   width="48">
  <metadata
     id="metadata887">
    <rdf:RDF>
      <cc:Work
         rdf:about="">
        <dc:format>image/svg+xml</dc:format>
        <dc:type
           rdf:resource="http://purl.org/dc/dcmitype/StillImage" />
        <dc:title></dc:title>
      </cc:Work>
    </rdf:RDF>
  </metadata>
  <defs
     id="defs885">
    <clipPath
       id="clipPath18"
       clipPathUnits="userSpaceOnUse">
      <path
         id="path16"
         d="M 0,288 H 792 V 0 H 0 Z" />
    </clipPath>
    <clipPath
       id="clipPath18-5"
       clipPathUnits="userSpaceOnUse">
      <path
         id="path16-3"
         d="M 0,288 H 792 V 0 H 0 Z" />
    </clipPath>
  </defs>
  <path
     style="fill:#ffffff;fill-opacity:1;fill-rule:nonzero;stroke:none;stroke-width:0.5770629"
     d="M 24.00418,5.2455926 22.710861,6.5262319 21.305963,5.8026503 20.582378,7.341953 18.310193,7.0807531 19.21467,8.4890355 c 0.369687,0.5725543 0.570293,1.2087893 0.66272,1.5739615 l -1.562125,-0.3068473 -0.05241,-0.0093 c -0.07889,-0.013521 -0.317557,-0.049028 -0.653425,-0.049028 -0.72133,0 -2.103411,0.1755425 -3.23499,1.3499553 -0.60186,0.622146 -0.885879,1.276132 -1.000844,1.855449 -0.376442,-0.223161 -0.588331,-0.678782 -0.588331,-0.678782 l -0.84023,-1.985626 -1.377849,1.690614 c -0.169067,0.216394 -0.9980257,1.372496 -0.7726119,2.82417 0.02255,0.144266 0.060859,0.286278 0.1014349,0.426035 -0.2614828,-0.08341 -0.5661122,-0.146238 -0.9087012,-0.146239 -0.7776889,0 -1.4964788,0.315019 -2.0803038,0.90786 -0.806986,0.825019 -1.504079,0.918007 -1.499574,0.918004 0,0 -0.736833,0.132713 -1.877426,0.112425 l 0.770919,1.7202 c 0.430547,0.953502 1.501547,1.617918 2.606081,1.617918 0.08341,0 0.162302,-0.01099 0.243448,-0.01775 -1.072974,0.779937 -2.179771,0.811495 -2.31276,0.811495 l -1.837696,-0.05832 0.557058,1.744714 c 0.281767,0.8994 1.214701,2.38715 3.006758,2.549444 -0.196117,0.816003 -0.626656,1.730626 -1.575655,2.125102 l -1.367707,0.56382 0.745562,1.298392 c 0.421527,0.701043 1.411663,1.519017 2.818254,1.519017 0.304313,0 0.596784,-0.03098 0.880812,-0.0896 0.072127,0.320088 0.1628615,0.6399 0.2688059,0.957733 0.4192762,1.248801 0.058666,2.116361 0.0541,2.127635 L 7.71343,35.254837 9.2197636,35.65382 c 0.020297,0.0045 0.4753453,0.131024 1.0456464,0.131024 0.256973,0 0.504979,-0.02731 0.737106,-0.08369 0.175828,-0.04055 0.344601,-0.09439 0.504649,-0.159763 0.19611,0.349394 0.432797,0.669766 0.710061,0.956041 0.964778,0.991828 2.335867,1.491968 4.069306,1.491968 h 0.0043 l 1.237527,-0.01606 -2.556207,1.06424 1.940827,0.937447 c 0.707753,0.344888 1.544129,0.750627 2.393904,1.061704 l -0.240912,0.665257 0.669485,0.304313 c 0.05861,0.02706 1.345164,0.602142 3.484355,0.726116 0,0 0.519024,0.02199 0.803042,0.02199 0.284023,0 0.792897,-0.02449 0.792897,-0.02449 2.125663,-0.126229 3.403764,-0.696534 3.462378,-0.72358 l 0.672032,-0.306849 -0.245986,-0.662721 c 0.876865,-0.322347 1.744706,-0.743866 2.42096,-1.075228 l 1.90532,-0.923922 -2.549447,-1.06424 1.244291,0.01606 c 1.735691,0 3.105939,-0.502681 4.068467,-1.494505 0.274956,-0.284027 0.51141,-0.601857 0.707519,-0.953504 0.162299,0.06537 0.333899,0.119469 0.509723,0.162299 0.229871,0.0541 0.477592,0.08114 0.734569,0.08114 0.561286,0 1.021137,-0.123984 1.034658,-0.128489 l 1.514791,-0.401519 -0.660185,-1.387994 c -0.01576,-0.03606 -0.376153,-0.904195 0.04311,-2.152996 0.105948,-0.32009 0.195879,-0.639895 0.267961,-0.957733 0.284028,0.05861 0.581857,0.0896 0.88842,0.0896 1.792054,0 2.652904,-1.260072 2.817405,-1.535078 l 0.739646,-1.284868 -1.368551,-0.561283 c -0.951254,-0.394477 -1.381515,-1.3091 -1.573119,-2.125102 1.76725,-0.153278 2.71344,-1.643282 3.004223,-2.549445 l 0.546069,-1.744714 -1.803885,0.05832 c -0.153292,0 -1.259501,-0.03156 -2.334738,-0.811494 0.08115,0.0068 0.160044,0.01775 0.243448,0.01775 1.106788,0 2.174694,-0.664416 2.605236,-1.617918 l 0.773457,-1.720199 c -0.971544,0.01352 -1.86221,-0.110735 -1.86221,-0.110735 -0.0067,0 -0.707243,-0.09242 -1.516483,-0.919694 -0.581583,-0.592839 -1.301226,-0.907856 -2.081152,-0.907857 -0.340386,0 -0.646383,0.06283 -0.907861,0.146238 0.04055,-0.139757 0.07833,-0.28205 0.103127,-0.42857 0.245695,-1.609465 -0.788661,-2.837415 -0.788674,-2.83516 l -1.356695,-1.679629 -0.84108,1.972101 c -0.0022,0.0045 -0.216399,0.469426 -0.595096,0.694842 C 34.522429,12.32393 34.240951,11.669945 33.63909,11.047798 32.505248,9.8733852 31.122894,9.6978427 30.401564,9.6978427 c -0.335868,0 -0.574534,0.035779 -0.633135,0.044801 l -1.636515,0.3220623 c 0.09467,-0.3651735 0.29783,-1.0030978 0.665258,-1.5756527 l 0.901097,-1.4065905 -2.272186,0.2595093 -0.723581,-1.539304 -1.401523,0.7235823 z m -0.0465,0.9670301 1.147081,1.133558 1.183428,-0.6086216 0.615385,1.3076895 1.176668,-0.1327121 C 27.424284,8.9314081 27.232404,10.084975 27.232399,10.084975 26.58776,9.5687746 25.418373,9.0841314 23.957683,9.0841314 c -1.458428,0 -2.624107,0.4846432 -3.275566,1.0008436 5e-6,0 -0.191603,-1.1535669 -0.845308,-2.1724385 l 1.176666,0.1327121 0.61285,-1.3076895 1.185964,0.6086216 z m 0,0.6449707 -0.825021,0.8157197 -0.234995,0.2341504 -0.295012,-0.1504651 -0.764159,-0.3947573 -0.409972,0.8791183 -0.140322,0.2975483 -0.32629,-0.033811 -0.311073,-0.038044 c 0.14201,0.322339 0.245422,0.6266541 0.322062,0.879119 0.827275,-0.4575922 1.896037,-0.7193565 2.984782,-0.7193565 1.091012,0 2.161449,0.2617643 2.986469,0.7193565 0.07439,-0.2524649 0.180053,-0.55678 0.322061,-0.879119 l -0.311072,0.038044 -0.32629,0.033811 L 26.491062,8.2413594 26.074326,7.3622411 25.314394,7.7569984 25.019383,7.9074635 24.782699,7.6733131 Z m 0.08115,3.096359 h 0.0085 c 1.803323,0 3.435328,0.8717926 3.435328,1.8410786 l -0.03549,0.239222 -0.719356,4.127634 0.719356,0.420963 1.873198,1.091291 h -0.0067 c 0,0 0.421246,0.216117 0.612846,0.349112 0.714566,0.493659 0.865313,1.214987 0.45055,1.51479 -0.101434,-0.590587 -0.567488,-1.203717 -1.435332,-1.203717 -0.62891,0 -1.104534,0.322907 -1.494501,0.809804 -0.09694,0.121724 -0.1919,0.251902 -0.27981,0.393913 -0.108199,0.175824 -0.216399,0.333897 -0.324598,0.48267 h 4.817405 c -0.35391,0.710058 -0.689783,1.464917 -0.689783,2.283175 v 10.660166 c 0,2.578748 -1.984236,3.811489 -4.130165,3.811489 -1.661315,0 -1.883906,-0.07607 -2.79459,0.836852 -0.915184,-0.912929 -1.13891,-0.836852 -2.797963,-0.836852 -2.145952,0 -4.129327,-1.232741 -4.129327,-3.811489 V 22.303888 c 0,-0.818258 -0.335869,-1.573117 -0.689771,-2.283175 h 4.814869 c -0.1082,-0.148773 -0.216399,-0.306846 -0.324598,-0.48267 -0.08791,-0.142011 -0.182299,-0.272189 -0.281488,-0.393913 -0.385456,-0.486897 -0.863619,-0.809804 -1.490276,-0.809804 -0.870099,0 -1.33643,0.61313 -1.437865,1.203717 -0.412507,-0.299803 -0.261759,-1.021131 0.450546,-1.51479 0.193859,-0.132995 0.615387,-0.349112 0.615387,-0.349112 h -0.0067 l 1.868974,-1.091291 0.723585,-0.420963 -0.721893,-4.127634 -0.0338,-0.239222 c 0,-0.969286 1.632575,-1.8410786 3.433639,-1.8410786 z m -6.391367,0.5181726 c 0.320093,0 0.530267,0.03832 0.552829,0.04058 l 0.79797,0.158072 -0.493657,0.64666 c -0.383203,0.498167 -0.732601,1.418144 -0.317838,1.896024 0.132998,0.153282 0.4035,0.276697 0.66272,0.400675 0.536491,0.247957 1.264582,0.59087 1.264582,1.463227 0,0.565792 -0.435615,1.156662 -1.229075,1.659337 -2.35784,1.480978 -3.807027,3.024508 -4.433635,4.728648 -0.969288,2.621578 0.292757,4.118617 1.525779,4.905316 l 0.550293,0.355874 -0.482668,0.442095 c -0.06537,0.05861 -0.655961,0.577345 -1.528316,0.651732 -0.164549,0.01127 -0.322113,0.02029 -0.470836,0.02029 -0.56129,0 -1.034657,-0.08819 -1.420119,-0.205409 0.105944,0.18484 0.239224,0.376443 0.401523,0.568046 0.703295,0.813751 1.568889,1.18343 2.806417,1.20372 l 0.466611,0.0068 0.03129,0.464075 c 0.0045,0.09242 0.0403,0.951815 -0.773452,1.68216 -0.123978,0.112709 -0.272757,0.207102 -0.432797,0.281487 0.552267,0.498167 1.113553,1.361788 1.224003,2.842767 0.09242,1.235278 0.385734,1.692874 0.387993,1.697376 l 0.509724,0.779376 -0.922231,0.01351 c -1.523805,0 -2.688921,-0.421294 -3.500416,-1.255281 -0.475627,-0.491406 -0.751193,-1.04823 -0.911242,-1.54184 -0.263733,0.225367 -0.608054,0.424059 -1.056635,0.530004 -0.166804,0.04055 -0.352205,0.06086 -0.552828,0.06086 -0.4305434,0 -0.7934651,-0.09017 -0.8317809,-0.101439 L 8.8816542,34.711328 9.1428561,34.161036 C 9.1631531,34.118186 9.6548295,33.013387 9.1251111,31.439992 8.8974421,30.759237 8.7825089,30.150616 8.7261286,29.67499 8.3541871,29.868845 7.857717,30.029457 7.21979,30.031708 c -1.462945,0 -2.107337,-1.088756 -2.134399,-1.136093 L 4.798835,28.395187 5.328843,28.176252 c 1.737952,-0.721329 2.123129,-2.657645 2.202024,-3.705826 -0.160044,0.02931 -0.337837,0.05663 -0.538461,0.0634 l -0.09214,0.0017 c -1.888973,0 -2.520408,-1.922227 -2.54522,-2.003377 l -0.216398,-0.678782 0.712592,0.02282 c 0.250217,0 2.339809,-0.05635 3.814025,-1.934062 l 0.1394772,-0.175824 c 0.9670379,-1.226259 1.8796808,-2.39391 3.5207058,-2.928144 -0.04734,-0.04283 -0.112428,-0.09467 -0.207102,-0.155536 -0.8701,-0.570301 -1.375031,-1.267115 -1.501265,-2.071847 -0.189354,-1.212734 0.588603,-2.180048 0.617917,-2.220621 l 0.529164,-0.649197 0.32967,0.770921 c 0.0203,0.0496 0.572556,1.284866 1.737949,1.284866 h 0.08535 c 0.07889,-0.0045 0.155534,-0.0068 0.229924,-0.01352 -0.0406,-0.552269 0.06058,-1.404338 0.836008,-2.204562 0.930965,-0.962523 2.067061,-1.106507 2.664407,-1.106507 z m 12.792875,0 c 0.595096,0 1.735131,0.143984 2.6661,1.106507 0.77317,0.800224 0.874886,1.652294 0.834316,2.204562 0.07439,0.0068 0.151028,0.009 0.229927,0.01352 h 0.08538 c 1.163147,0 1.715389,-1.235274 1.737954,-1.284866 l 0.329666,-0.770921 0.52494,0.649197 c 0.03601,0.04057 0.809192,1.007887 0.622146,2.220621 -0.126234,0.804732 -0.631162,1.501547 -1.501269,2.071847 -0.09237,0.06086 -0.159781,0.112707 -0.207098,0.155537 1.636513,0.534233 2.553394,1.701884 3.518169,2.928143 l 0.140318,0.175824 c 1.478724,1.877707 3.563811,1.934062 3.814025,1.934062 h 0.0018 l 0.708367,-0.02282 -0.212174,0.678781 c -0.02475,0.08115 -0.657934,2.003377 -2.546908,2.003377 l -0.09045,-0.0017 c -0.202881,-0.0068 -0.380669,-0.0341 -0.538464,-0.0634 0.0789,1.048181 0.461539,2.984497 2.199492,3.705826 l 0.53254,0.218934 -0.286559,0.500422 c -0.02925,0.04734 -0.671736,1.136092 -2.130172,1.136092 -0.642431,-0.0022 -1.138629,-0.162862 -1.510561,-0.356719 -0.05636,0.475627 -0.17357,1.084247 -0.398987,1.765003 -0.529697,1.573395 -0.0383,2.67821 -0.0203,2.721043 l 0.26204,0.550293 -0.588331,0.155535 c -0.04055,0.01125 -0.401238,0.101439 -0.831785,0.101439 -0.200614,0 -0.385457,-0.0203 -0.554521,-0.06086 -0.448576,-0.105944 -0.78895,-0.304633 -1.054943,-0.530004 -0.162299,0.493614 -0.435048,1.050434 -0.912929,1.541841 -0.809239,0.833991 -1.974958,1.25528 -3.498724,1.25528 l -0.923922,-0.01351 0.51141,-0.779377 c 0.0045,-0.0045 0.297262,-0.462097 0.389687,-1.697374 0.108199,-1.480979 0.667511,-2.344601 1.219777,-2.842768 -0.157793,-0.07439 -0.308822,-0.168777 -0.432797,-0.281487 -0.81149,-0.730345 -0.778074,-1.58974 -0.773456,-1.68216 l 0.03635,-0.464074 0.462379,-0.0068 c 1.242037,-0.02029 2.104819,-0.389968 2.808114,-1.203717 0.164554,-0.191603 0.295571,-0.383206 0.401519,-0.568046 -0.387716,0.117216 -0.86362,0.205409 -1.422651,0.205409 -0.146515,0 -0.304031,-0.009 -0.470836,-0.02029 -0.870108,-0.07439 -1.460409,-0.595375 -1.525779,-0.651731 L 31.560472,26.7265 32.11077,26.370625 c 1.230765,-0.786664 2.495061,-2.283702 1.525772,-4.905281 -0.626651,-1.704139 -2.078612,-3.24767 -4.431942,-4.728648 -0.79572,-0.500421 -1.232459,-1.093544 -1.232459,-1.659337 0,-0.872356 0.730345,-1.215269 1.264577,-1.463226 0.259228,-0.123979 0.531419,-0.247393 0.664413,-0.400676 0.412508,-0.47788 0.06593,-1.397856 -0.319525,-1.896023 l -0.489434,-0.64666 0.793741,-0.158073 c 0.0248,-0.0022 0.234434,-0.04058 0.554522,-0.04058 z m -6.397284,0.09468 c -1.449412,0.0022 -2.536481,0.475626 -2.770915,1.034655 l 2.770914,1.092983 2.770075,-1.092982 c -0.23443,-0.55903 -1.320652,-1.032405 -2.770072,-1.034655 z m -4.050709,0.08199 0.0043,0.01775 -0.0203,0.0026 z m -2.344882,0.323754 c -0.554517,0 -1.511973,0.139475 -2.300927,0.957732 -1.050434,1.081993 -0.615382,2.263732 -0.615382,2.263732 l -0.279795,0.05578 c -0.166809,0.03381 -0.335868,0.04085 -0.507186,0.04988 -0.04055,0 -0.07636,0.0026 -0.112427,0.0026 -1.526061,0 -2.202869,-1.591713 -2.202869,-1.591713 0,0 -1.616225,1.990416 0.76416,3.550289 0.410256,0.26599 0.590803,0.513947 0.543533,0.777682 l -0.03804,0.171597 -0.171596,0.03127 C 11.002513,17.710242 10.127895,18.900716 9.0616858,20.253208 7.440947,22.313503 5.152701,22.37831 4.866427,22.37831 h -0.03129 c 0,0 0.523251,1.652574 2.065087,1.652574 0.02485,0 0.04958,-2.85e-4 0.07439,-0.0026 0.707805,-0.0248 1.072697,-0.295013 1.072697,-0.295013 0,0 0.272705,3.746119 -2.522394,4.907008 -5e-6,0 0.509156,0.885882 1.674553,0.885882 h 0.01606 c 1.4020846,-0.0068 1.9653401,-0.86306 1.9653401,-0.86306 0,0 -0.080871,1.113829 0.4218086,2.612843 0.6085643,1.810085 -0.00256,3.101425 -0.00256,3.101434 0,0 0.3268531,0.08791 0.7032963,0.08791 0.146522,0 0.295573,-0.01381 0.435332,-0.04987 1.169903,-0.279517 1.463227,-1.343194 1.463227,-1.343194 0,0 -0.108485,3.597626 4.088752,3.597626 h 0.02961 c 0,0 -0.367428,-0.502958 -0.473372,-1.950124 -0.200618,-2.671167 -2.010983,-3.03634 -2.010983,-3.03634 0,0 0.967081,-0.121162 1.386301,-0.495353 0.651438,-0.592842 0.606089,-1.278102 0.606089,-1.278102 -1.47647,-0.02029 -2.443508,-0.523244 -3.185118,-1.375314 -0.793461,-0.924202 -0.926455,-1.918002 -0.926455,-1.918002 0,0 0.795996,0.718511 2.328821,0.718511 0.137452,0 0.279794,-0.0068 0.428569,-0.02029 0.72809,-0.05861 1.230766,-0.52071 1.230766,-0.52071 -1.60046,-1.02336 -2.721336,-2.810903 -1.729508,-5.504614 0.797966,-2.157223 2.709488,-3.768942 4.639046,-4.98393 0.640179,-0.398984 0.996615,-0.845025 0.996615,-1.228231 0,-0.899407 -1.280405,-0.928711 -1.805574,-1.535078 -0.60637,-0.703295 -0.227673,-1.845868 0.297547,-2.533385 0,0 -0.176105,-0.03635 -0.455622,-0.03635 z m 12.792875,0 c -0.279509,0 -0.458156,0.03635 -0.458156,0.03635 0.527477,0.687516 0.906455,1.83009 0.300085,2.533385 -0.525212,0.606366 -1.808109,0.63567 -1.808109,1.535077 0,0.383206 0.358974,0.829247 0.99915,1.228232 1.927298,1.214987 3.84079,2.826706 4.636508,4.983929 0.994079,2.693712 -0.126276,4.481254 -1.724423,5.50464 0,0 0.500137,0.4621 1.228231,0.520708 0.14877,0.01579 0.293038,0.02029 0.426033,0.02029 1.53508,0 2.328821,-0.718511 2.328821,-0.718511 0,0 -0.131017,0.9938 -0.92899,1.918002 -0.737106,0.852069 -1.703581,1.355025 -3.180047,1.375314 0,0 -0.04508,0.685261 0.608621,1.278103 0.417021,0.374191 1.381233,0.495352 1.381233,0.495352 0,0 -1.807552,0.365174 -2.005916,3.036341 -0.108199,1.447166 -0.477599,1.950124 -0.477599,1.950124 h 0.03129 c 4.197232,0 4.088752,-3.597626 4.088752,-3.597626 0,0 0.290788,1.063677 1.46069,1.343194 0.142015,0.03606 0.293601,0.04987 0.437866,0.04987 0.376447,0 0.703295,-0.08792 0.703295,-0.08791 0,0 -0.613694,-1.291349 -0.005,-3.101433 0.504926,-1.499015 0.42434,-2.612844 0.42434,-2.612844 0,0 0.563255,0.856295 1.965341,0.863058 h 0.01351 c 1.169907,0 1.677088,-0.885882 1.677088,-0.885882 -2.797397,-1.160888 -2.522393,-4.907007 -2.522393,-4.907007 0,0 0.364882,0.270216 1.072692,0.295013 0.0248,0.0022 0.04788,0.0026 0.0727,0.0026 1.541835,0 2.064239,-1.652574 2.064239,-1.652574 H 43.2189 c -0.281725,0 -2.574515,-0.06481 -4.195254,-2.125103 -1.066244,-1.352508 -1.938604,-2.542982 -3.665282,-3.011846 l -0.169064,-0.03127 -0.03804,-0.171598 c -0.04733,-0.263735 0.133276,-0.511692 0.543533,-0.777682 2.382639,-1.559873 0.764156,-3.550289 0.764156,-3.550289 0,0 -0.679059,1.591713 -2.202869,1.591713 -0.03606,0 -0.07415,-0.0026 -0.112423,-0.0026 -0.171315,-0.009 -0.340374,-0.01606 -0.507187,-0.04987 l -0.281487,-0.05578 c 0,0 0.434489,-1.181739 -0.613693,-2.263732 -0.786734,-0.818277 -1.746436,-0.957753 -2.300961,-0.957753 z m -9.129317,1.302618 0.66695,3.850373 1.862209,0.980555 v -3.973788 z m 5.461529,0 -2.526623,0.85714 v 3.973788 l 1.861371,-0.980555 z m -4.62552,1.3508 1.149622,0.481825 v 0.640743 L 23.17493,14.6919 c -0.0067,-0.0045 -0.187098,-0.0448 -0.500418,-0.295012 -0.518468,-0.401238 -0.527467,-0.770921 -0.527475,-0.770921 z m 3.793739,0 c 0,0 -0.01155,0.369681 -0.530007,0.77092 -0.313328,0.250208 -0.49367,0.290511 -0.500422,0.295012 l -0.121725,0.05663 v -0.64074 z m -12.89853,1.600168 c 0,0 1.603262,1.176667 4.880801,0.108199 -0.908424,0.588333 -2.671172,1.420115 -4.280636,2.765844 -4.02817,3.539018 -1.147926,6.989844 -1.147926,6.989844 -1.44942,-1.510283 -1.505775,-3.128764 -1.081993,-4.449697 -0.761909,1.269088 -1.248802,2.808673 -1.169903,4.706669 0.108199,2.718507 1.6027,5.072154 3.17159,6.961102 0.759645,0.917443 0.931527,2.044797 0.931527,2.044797 0,0 -0.308818,-0.99436 -1.183428,-2.017748 -1.683853,-1.974607 -3.126787,-4.023377 -3.3161401,-6.976317 -0.1735685,0.536488 -0.8903935,2.023665 -2.0287369,2.584949 0,0 1.4294172,-0.860522 2.0718481,-4.221463 v 0.02451 c 0.4260329,-3.421802 2.9095439,-5.89207 5.6753909,-7.395591 0.254714,-0.137502 0.494224,-0.252464 0.721893,-0.365172 -0.8408,0.130741 -2.198363,0.146239 -3.244287,-0.75993 z m 22.003339,0 c -1.048182,0.906169 -2.402924,0.890671 -3.245979,0.75993 0.229924,0.112708 0.466327,0.227669 0.72105,0.365172 2.765803,1.50352 5.252452,3.973788 5.676234,7.395591 v -0.02451 c 0.642431,3.360941 2.073536,4.221463 2.073536,4.221463 -1.138309,-0.561284 -1.8577,-2.04846 -2.031269,-2.584949 -0.189354,2.952939 -1.629188,5.001719 -3.315295,6.976317 -0.87461,1.023388 -1.179204,2.017748 -1.179204,2.017748 0,0 0.166527,-1.127355 0.923922,-2.044798 1.573395,-1.888939 3.067896,-4.242593 3.178355,-6.961101 0.07664,-1.90025 -0.409976,-3.437581 -1.174135,-4.706668 0.426036,1.320932 0.367708,2.939413 -1.079458,4.449695 0,0 2.880244,-3.450824 -1.147925,-6.989843 -1.609464,-1.345729 -3.373901,-2.177511 -4.282324,-2.765845 3.279792,1.068469 4.882492,-0.108199 4.882492,-0.108199 z m -26.0202353,0.58157 c 0.6852613,0 1.1904743,0.342353 1.2468243,0.376162 l 0.673713,0.473372 -0.725277,0.390531 c -0.7055502,0.37419 -1.1112932,0.878839 -1.4742148,1.322906 -0.3516442,0.437305 -0.6880742,0.85686 -1.2155502,1.030429 -0.187094,0.06312 -0.385462,0.09467 -0.588332,0.09467 -0.786699,0 -1.577653,-0.48267 -1.877426,-1.152153 l -0.300084,-0.669483 0.728653,-0.04311 c 0.03606,0 0.973538,-0.08566 2.019436,-1.156379 0.430551,-0.437306 0.9509719,-0.666948 1.5122577,-0.666947 z m 30.0371373,0 c 0.561282,0 1.081711,0.229642 1.512254,0.666948 1.045929,1.068467 1.985622,1.156379 2.01944,1.156379 l 0.730345,0.04311 -0.301776,0.669483 c -0.299803,0.669484 -1.091012,1.152153 -1.879963,1.152153 -0.202877,0 -0.40096,-0.03156 -0.585799,-0.09467 -0.527467,-0.173569 -0.861648,-0.593124 -1.215551,-1.030429 -0.360662,-0.444068 -0.770352,-0.948716 -1.475907,-1.322906 l -0.723581,-0.390531 0.671174,-0.473372 c 0.05635,-0.03381 0.564103,-0.376162 1.249364,-0.376163 z M 9.0253427,16.310661 c -0.3539027,0 -0.7635929,0.119471 -1.1513097,0.520709 -1.217237,1.23753 -2.349106,1.305153 -2.349106,1.305153 0.202843,0.457593 0.802199,0.856297 1.417579,0.856297 0.144265,0 0.288529,-0.02057 0.426033,-0.07016 0.8407991,-0.284023 1.1431344,-1.539304 2.6128439,-2.323749 0,0 -0.4105382,-0.28825 -0.9560402,-0.28825 z m 30.0371373,0 c -0.547761,0 -0.958576,0.28825 -0.958576,0.28825 1.47196,0.784445 1.771759,2.039726 2.610308,2.323749 0.142009,0.04958 0.286555,0.07016 0.428568,0.07016 0.617637,0 1.214991,-0.398704 1.420116,-0.856297 0,0 -1.131302,-0.06762 -2.350799,-1.305153 -0.387716,-0.398985 -0.797973,-0.52071 -1.149617,-0.52071 z m -17.361759,0.366864 -0.876587,0.502957 -0.852069,0.493659 h -0.0093 l -0.216399,0.12426 c 0.480132,0.135249 0.847581,0.371653 1.156378,0.687235 0.01351,0.01352 0.02229,0.02677 0.03804,0.03804 0.06762,0.07439 0.135812,0.153846 0.201181,0.234995 0.01576,0.02029 0.02899,0.03579 0.0448,0.05832 0.06083,0.07889 0.121434,0.164554 0.180048,0.250211 0.01351,0.01804 0.02476,0.03804 0.04055,0.05833 0.06987,0.105944 0.135812,0.216962 0.201182,0.329668 0.606374,1.045927 1.573403,1.670327 2.434484,1.670327 0.858838,0 1.828118,-0.6244 2.434485,-1.670327 0.06763,-0.117215 0.13469,-0.22795 0.204565,-0.333896 0.01125,-0.01577 0.02086,-0.03156 0.03211,-0.04733 0.05861,-0.08791 0.121443,-0.175542 0.186813,-0.2612 0.01351,-0.01804 0.02705,-0.0341 0.04055,-0.04988 0.06763,-0.08566 0.137222,-0.164271 0.207106,-0.240912 0.01125,-0.01127 0.02255,-0.02254 0.03381,-0.03381 0.308822,-0.315581 0.676246,-0.554522 1.156382,-0.68977 l -0.213876,-0.124261 h -0.011 l -0.852066,-0.493659 -0.87489,-0.502957 -2.337275,1.273878 -0.0067,-0.0042 -0.005,0.0042 z m 1.395598,1.744713 h 1.97633 v 0.678781 C 24.840474,18.816994 24.38795,18.873631 24.38795,18.873631 v 0.980557 c 0,0 0.01775,0.479852 0.186813,0.687234 h -0.980554 c 0.171323,-0.207382 0.186813,-0.687234 0.186813,-0.687234 v -0.980557 c 0,0 -0.45027,-0.05663 -0.684703,0.227388 z M 17.46742,20.71471 c 0.187098,0.502676 0.344887,1.048182 0.344887,1.589178 v 5.595086 h 9.693133 c -0.484637,-0.500422 -0.475881,-1.13412 -0.354183,-1.544376 -0.139729,-0.06762 -0.25725,-0.14821 -0.360945,-0.238377 -0.378698,0.279515 -1.534793,1.120313 -1.836852,1.332204 l -0.06508,0.04226 -3.803037,-0.684695 h -0.07861 c -0.09016,0 -0.22372,-0.0048 -0.370245,-0.02282 -0.04055,0.171316 -0.189348,0.288249 -0.358407,0.288249 -0.0203,0 -0.04285,2.75e-4 -0.06086,-0.0042 -0.09918,-0.01808 -0.184836,-0.06794 -0.24345,-0.151346 -0.06075,-0.08115 -0.08309,-0.177516 -0.06508,-0.278952 l 0.0135,-0.08115 c -0.392201,-0.277249 -0.755118,-0.89545 -0.595074,-1.5469 l 0.01606,-0.06762 0.0558,-0.04058 c 0.0067,-0.0045 0.07222,-0.04931 0.171596,-0.105663 l -0.274728,-0.04311 c -0.10372,-0.01804 -0.173824,-0.114963 -0.158071,-0.216399 0.01805,-0.103692 0.114965,-0.177517 0.216399,-0.157228 l 0.658493,0.103128 0.06086,-2.316986 0.978021,-1.037191 0.61369,1.287402 -0.644968,2.23161 0.581571,0.09045 c 0.101465,0.01804 0.171289,0.112146 0.155535,0.21809 -0.01579,0.09242 -0.09496,0.155537 -0.185121,0.155537 h -0.03129 l -0.473371,-0.07608 c 0.0067,0.01352 0.01606,0.02197 0.02281,0.0355 0.04958,0.105945 0.162017,0.178362 0.227387,0.212172 l 2.898559,0.0448 C 24.340303,25.207235 24.6452,24.910251 24.958528,24.594669 24.243943,24.324175 23.98442,23.70851 23.941604,23.300509 23.542621,23.131448 23.265077,22.87701 23.114048,22.54565 22.926954,22.137649 22.995163,21.724575 23.04473,21.52621 22.657013,21.384198 22.250686,21.127225 21.835945,20.714715 Z m 8.784433,0 c -0.669486,0.66272 -1.311636,0.910675 -1.884192,0.967032 -0.103685,0.01127 -0.210201,0.01859 -0.316141,0.01859 h -0.01524 c -0.105949,0 -0.214144,-0.0073 -0.317838,-0.0186 -0.09918,-0.009 -0.203436,-0.02424 -0.30938,-0.04903 -0.03834,0.151029 -0.08538,0.462102 0.04988,0.757396 0.121699,0.268244 0.369401,0.468863 0.727809,0.601858 l 0.121725,0.04733 0.0026,0.130178 c 0,0.03832 0.02961,0.883908 0.949279,1.11834 0.151033,-0.15328 0.285719,-0.295292 0.387159,-0.412507 -0.18709,-0.441815 -0.08764,-0.894899 0.18512,-1.115806 -0.01125,0.04733 -0.130744,1.15638 0.757395,1.56889 l 0.146237,0.06762 -0.04228,0.158072 c -0.01579,0.04508 -0.311068,1.120032 0.76416,1.519017 l 0.191041,0.07185 -0.08538,0.185122 c -0.01805,0.04058 -0.439558,1.014368 0.554522,1.568889 h 2.157225 v -1.713437 c -0.766419,-0.09242 -1.093267,-0.709494 -1.176671,-1.144546 -0.356128,-0.06086 -0.631447,-0.216397 -0.820791,-0.466609 -0.453087,-0.595096 -0.06294,-1.140881 -0.05832,-1.17244 0,0.0068 0,0.585797 0.358408,0.944208 0.178075,0.173569 0.38799,0.306563 0.705832,0.338123 l 0.157227,0.01352 0.01351,0.160609 c 0.0021,0.03381 0.08818,0.82023 0.820795,0.944208 l -0.0026,-3.498725 c 0,-0.540996 0.158074,-1.086502 0.347419,-1.589177 z m -5.303459,1.075231 -0.500422,0.527471 -0.05917,2.227384 0.252749,0.03804 0.619609,-2.136935 z m 4.909543,2.419268 c -0.468862,0.511692 -1.388569,1.399543 -1.433641,1.444629 l -0.05663,0.05663 -2.903627,-0.04733 c -0.0021,0.288532 -0.0496,0.533953 -0.09468,0.714285 -0.0068,0.02931 -0.01549,0.06115 -0.02449,0.09045 l 3.458149,0.622144 c 0.358408,-0.25021 1.347419,-0.973793 1.732881,-1.257816 -0.279518,-0.408001 -0.306564,-0.892926 -0.243448,-1.233303 -0.184839,-0.117216 -0.321781,-0.249929 -0.43449,-0.389686 z m -5.531688,0.737108 c -0.25697,0 -0.527749,0.151028 -0.644968,0.22316 -0.09467,0.550014 0.311073,1.047899 0.581572,1.147083 0.247958,0.09017 0.545787,0.108199 0.699066,0.108199 0.0068,-0.01804 0.01355,-0.04311 0.0203,-0.07016 0.01576,-0.04508 0.02679,-0.08988 0.03804,-0.139475 0.04285,-0.220907 0.05625,-0.469145 0.06086,-0.631444 -0.10369,-0.06537 -0.25049,-0.177795 -0.333895,-0.34911 -0.09242,-0.198365 -0.227105,-0.28825 -0.420963,-0.28825 z m -2.513942,3.328819 v 4.688918 c 0,1.916028 1.38856,3.117494 3.435328,3.117494 1.710904,0 2.161449,0.06537 2.79712,0.696531 0.437303,-0.437307 0.800787,-0.599325 1.546913,-0.660185 l 0.01524,-0.07269 0.394758,-1.214705 c -0.02255,-0.02706 -0.665256,-0.757396 -0.665256,-0.757396 -0.254719,0.08566 -0.468304,0.0989 -0.826713,0.0989 -0.369682,0 -0.784449,-0.04285 -1.237531,-0.128488 -0.04508,-0.009 -0.0882,-0.01351 -0.131021,-0.01351 -0.05413,0 -0.05835,0.005 -0.07185,0.03212 l -0.07946,0.128484 -0.14201,0.236689 -0.270498,-0.0634 -1.194421,-0.281488 -0.164835,0.270498 0.02536,0.02874 0.143706,0.160608 -0.06255,0.209638 c -0.08791,0.272753 -0.374491,0.59256 -0.462378,0.680474 L 20.56465,35.752737 20.291615,35.40785 20.087049,35.150877 c -0.214147,-0.238939 -0.263737,-0.608621 -0.142014,-0.994079 -0.0045,0.0021 -0.0089,0.0043 -0.01351,0.0043 l -0.336431,0.139479 -0.153002,-0.328822 -0.105664,-0.234152 c -0.182579,-0.410258 -0.114955,-1.012395 0.378698,-1.375318 l 0.96196,-0.543527 0.918003,0.17836 c 0.0203,-0.08791 0.0538,-0.401523 0.07862,-0.482673 -0.01805,0 -0.03354,-0.0043 -0.05157,-0.0043 l -0.527471,0.19611 -0.509719,-0.351648 c 0,0 -0.198082,-0.191322 -0.01775,-0.382926 l 0.491126,-0.746412 -1.248521,-1.568889 1.920538,0.788673 0.128489,-0.157228 0.258665,-0.311073 0.29332,0.278952 c 0.08341,0.08115 0.130436,0.180331 0.153002,0.27726 0.529727,0.207382 1.478717,0.814315 1.562126,1.803884 l -0.297548,0.119192 v 0.0067 c 0.06987,0.07889 0.124009,0.11273 0.142013,0.11496 l 1.371084,0.135248 c 0.03606,-0.0045 0.07864,-0.02056 0.125954,-0.03636 0.171317,-0.05635 0.426036,-0.139472 0.730345,-0.139472 0.247957,0 0.48436,0.05409 0.714284,0.162299 0.08341,-0.03155 0.189911,-0.05663 0.30938,-0.0634 l 0.06508,-0.0018 c 0.73486,0 1.099751,0.549735 1.390535,0.984786 0.04958,0.07662 0.09689,0.149056 0.148774,0.218931 0.256969,0.362922 0.590889,0.890394 0.604392,0.912934 l 0.15131,0.236683 -0.185124,0.216399 c -0.141992,0.164554 -0.356152,0.358412 -0.723581,0.358412 -0.07664,0 -0.157508,-0.009 -0.247676,-0.02705 -0.07889,-0.01355 -0.149056,-0.03887 -0.218936,-0.06593 -0.009,0.07213 -0.02454,0.15807 -0.03804,0.232459 l -0.241757,1.253589 c 1.438151,-0.353902 2.351643,-1.438432 2.351643,-2.991542 l -0.0026,-4.688918 z m 3.011827,1.118341 0.725277,0.847842 -0.612849,0.689769 c -0.07888,0.0789 -0.06791,0.184839 -0.03635,0.229924 l 0.266269,0.234153 0.335587,-0.205411 c 0.01579,-0.01125 0.04762,-0.01524 0.08369,-0.01524 0.09467,0 0.234428,0.02454 0.358412,0.02449 0.137478,4e-6 0.25699,-0.02957 0.270498,-0.158071 -0.04285,0.426037 -0.437588,1.165678 -0.17836,1.74725 l 0.191881,0.437026 -1.240064,-0.177516 -0.581571,0.980554 c -0.180334,0.326852 -0.206817,0.680754 -0.03549,0.872358 l 0.218091,0.272191 c 0,0 0.304308,-0.321781 0.371933,-0.535928 l -0.0989,-0.108198 c -0.08114,-0.09242 -0.07888,-0.173569 -0.02705,-0.270498 l 0.365168,-0.604393 1.464919,0.344887 0.07692,-0.132716 c 0.101439,-0.16455 0.243452,-0.214707 0.398987,-0.214707 0.06537,0 0.132713,0.0073 0.200338,0.01861 0.272753,0.0541 0.719632,0.125948 1.168215,0.125948 0.491402,5e-6 0.97999,-0.08791 1.239219,-0.378697 0.529722,0.7867 1.604963,0.912934 1.521555,1.311921 l -0.284029,1.348262 c 0.187094,-0.009 0.367427,-0.02086 0.540997,-0.04565 l 0.268806,-1.401519 c 0.0293,-0.153283 0.05833,-0.358412 0.05832,-0.358412 -0.103664,-0.103689 -0.355868,-0.327152 -0.497887,-0.597628 -0.189344,-0.365172 -0.08538,-0.557061 -0.261196,-1.03043 0,0 0.05353,-0.109891 0.177516,-0.109891 0.018,0 0.04055,0.0018 0.06086,0.0085 0.385462,0.110455 0.482672,1.496756 1.158914,1.622989 0.06537,0.01355 0.125984,0.01861 0.180052,0.01861 0.196114,0 0.311636,-0.08369 0.43787,-0.232459 0,0 -0.340962,-0.534518 -0.593404,-0.89518 -0.338127,-0.473372 -0.601861,-1.041418 -1.230771,-1.041418 -0.01351,0 -0.03159,2.85e-4 -0.04733,0.0026 -0.207384,0.009 -0.335587,0.110735 -0.335587,0.110735 -0.254722,-0.160044 -0.491687,-0.214706 -0.705831,-0.214706 -0.394474,0 -0.700474,0.180892 -0.853763,0.180892 h -0.005 l -1.404054,-0.137786 c -0.220904,-0.0225 -0.394754,-0.243163 -0.455619,-0.328821 -0.01579,-0.0248 -0.02449,-0.03887 -0.02449,-0.03887 0,-0.03831 -2.3e-4,-0.07637 -0.0026,-0.112428 -0.04733,-1.147362 -0.938005,-1.63905 -1.253587,-1.645812 0,0 0.03606,-0.218371 -0.04734,-0.301776 l -0.311074,0.376163 z m 0.980559,0.917158 c 0.07215,0.0021 0.124031,0.06593 0.121723,0.133557 -0.009,0.07213 -0.0679,0.123689 -0.137785,0.119192 -0.07215,-0.0022 -0.126342,-0.06312 -0.121724,-0.135249 0.0067,-0.06988 0.06566,-0.124265 0.137786,-0.1175 z m -1.08453,1.878271 -0.786981,0.480136 c -0.338123,0.252464 -0.362355,0.664715 -0.251901,0.910393 l 0.105664,0.229928 c 0,0 0.487191,-0.200905 0.530007,-0.340659 l -0.06593,-0.162299 c -0.04511,-0.105949 -0.0403,-0.220908 0.04987,-0.284023 l 0.523243,-0.360105 0.876587,0.166528 c -4e-6,0 -0.158053,-0.198646 -0.14455,-0.462384 z m 5.279788,2.01944 c 0.135245,0.200618 0.459285,0.428005 0.393911,0.606085 l -0.409972,1.280638 c 0.155535,-0.0067 0.331359,-0.0093 0.520707,-0.0093 0,0 0.451096,-1.318115 0.475908,-1.360945 -0.252463,-0.110461 -0.77768,-0.388005 -0.980554,-0.516489 z m -7.867274,2.776835 c 0,0 1.271342,0.692584 3.063394,1.208785 0.507186,0.146523 0.892644,0.213867 0.892644,0.213867 v 0.550293 c 0,0 0.958014,0.166523 1.927298,0.166523 h 0.0558 c 0.967029,5e-6 1.927302,-0.166523 1.927302,-0.166523 v -0.550293 c 0,-5e-6 0.385462,-0.06734 0.892645,-0.213867 1.792048,-0.516201 3.065926,-1.208785 3.065926,-1.208785 l -0.218935,0.809802 -0.197801,0.741335 0.716819,0.274726 0.797971,0.300084 c -0.91293,0.441813 -2.182302,1.084526 -3.343189,1.402363 l 0.274726,0.748094 c 0,4e-6 -1.471679,0.671745 -3.926453,0.676246 v 0.0026 h -0.0338 v -0.0026 c -2.452519,-0.0045 -3.924762,-0.676246 -3.924762,-0.676246 l 0.273036,-0.748094 c -1.160895,-0.317837 -2.429696,-0.96055 -3.344885,-1.402363 l 0.797971,-0.300084 0.721043,-0.274726 -0.202869,-0.741335 z m 0.581571,0.642432 0.349112,1.141164 -1.180892,0.392223 c 0.712314,0.356157 1.579597,0.691744 2.625525,0.978021 l 0.568046,-1.566357 c -0.67625,-0.205124 -1.841084,-0.649759 -2.361791,-0.945051 z m 10.659323,0 c -0.520712,0.295292 -1.685546,0.739927 -2.361788,0.945051 l 0.568047,1.566357 c 1.048182,-0.286277 1.91096,-0.621864 2.625525,-0.978021 l -1.178359,-0.392223 z m -8.027033,1.54184 -0.70076,1.896023 c 0.462098,0.164554 2.028452,0.480136 3.398977,0.480136 1.368267,0 2.93491,-0.315582 3.394753,-0.480136 L 26.741285,39.169453 C 26.15746,39.340766 24.94867,39.5211 24.071805,39.51434 h -0.0558 c -0.876865,0.0067 -2.087909,-0.173574 -2.669476,-0.344887 z"
     id="path1729" />
</svg>
