<?xml version="1.0" encoding="UTF-8" standalone="no"?>
<svg
   xmlns:dc="http://purl.org/dc/elements/1.1/"
   xmlns:cc="http://creativecommons.org/ns#"
   xmlns:rdf="http://www.w3.org/1999/02/22-rdf-syntax-ns#"
   xmlns:svg="http://www.w3.org/2000/svg"
   xmlns="http://www.w3.org/2000/svg"
   xmlns:sodipodi="http://sodipodi.sourceforge.net/DTD/sodipodi-0.dtd"
   xmlns:inkscape="http://www.inkscape.org/namespaces/inkscape"
   width="47.551167pt"
   height="42.466354pt"
   viewBox="0 0 47.551165 42.466353"
   version="1.2"
   inkscape:version="0.92.4 5da689c313, 2019-01-14"
   sodipodi:docname="tinkoff.svg">
  <defs
     id="defs914" />
  <sodipodi:namedview
     pagecolor="#ffffff"
     bordercolor="#666666"
     borderopacity="1"
     objecttolerance="10"
     gridtolerance="10"
     guidetolerance="10"
     inkscape:pageopacity="0"
     inkscape:pageshadow="2"
     inkscape:window-width="2520"
     inkscape:window-height="1397"
     id="namedview912"
     showgrid="false"
     inkscape:pagecheckerboard="true"
     inkscape:zoom="3.5996974"
     inkscape:cx="-36.453666"
     inkscape:cy="-54.833034"
     inkscape:window-x="20"
     inkscape:window-y="23"
     inkscape:window-maximized="1"
     inkscape:snap-nodes="false"
     inkscape:snap-global="false" />
  <path
     style="fill:#ffffff;fill-opacity:1;fill-rule:nonzero;stroke:none;stroke-width:0.65333337"
     d="m 23.780308,0 -1.464257,1.449902 -1.590584,-0.819218 -0.819221,1.742753 -2.5725,-0.295723 1.024022,1.594415 c 0.418548,0.648229 0.645668,1.368555 0.750312,1.781992 l -1.768591,-0.347403 -0.05933,-0.01053 c -0.08932,-0.01531 -0.359528,-0.05551 -0.739788,-0.05551 -0.816668,0 -2.381419,0.198744 -3.662559,1.528378 C 12.196404,7.273432 11.874846,8.013855 11.744687,8.66974 11.31849,8.417084 11.078596,7.901244 11.078596,7.901244 L 10.127305,5.653178 8.567346,7.56724 c -0.191413,0.244995 -1.129935,1.553899 -0.874728,3.197441 0.02553,0.163333 0.0689,0.324115 0.114841,0.482344 -0.296043,-0.09443 -0.640935,-0.165566 -1.028804,-0.165567 -0.880476,0 -1.694268,0.356655 -2.355258,1.027852 -0.913645,0.934062 -1.702873,1.039339 -1.697772,1.039336 0,0 -0.83422,0.150254 -2.125566,0.127285 l 0.872812,1.947559 c 0.487452,1.079526 1.700006,1.831758 2.950526,1.831758 0.09443,0 0.183754,-0.01244 0.275625,-0.0201 -1.214789,0.883021 -2.467871,0.91875 -2.618438,0.91875 L 0,17.887868 0.630684,19.863181 c 0.319009,1.018275 1.375249,2.702661 3.404162,2.886405 -0.222038,0.923854 -0.709481,1.959363 -1.783909,2.405977 l -1.548478,0.63834 0.844103,1.47 c 0.477241,0.7937 1.598243,1.719786 3.190743,1.719786 0.344534,0 0.675661,-0.03508 0.997229,-0.101445 0.08166,0.362394 0.184387,0.724475 0.304334,1.084316 0.474692,1.413856 0.06642,2.396081 0.06125,2.408845 l -0.763709,1.600159 1.705425,0.451716 c 0.02298,0.0051 0.538172,0.148343 1.18385,0.148343 0.290937,0 0.571722,-0.03092 0.834529,-0.09475 0.199067,-0.04591 0.390147,-0.106869 0.571349,-0.180878 0.222029,0.395572 0.49,0.758289 0.803909,1.0824 1.092293,1.122918 2.644599,1.689162 4.607147,1.689162 h 0.0049 l 1.401091,-0.01818 -2.894062,1.2049 2.197346,1.06135 c 0.801297,0.390471 1.748217,0.849837 2.710307,1.202029 l -0.272753,0.753184 0.757971,0.344534 c 0.06635,0.03063 1.522954,0.681727 3.944882,0.822087 0,0 0.587623,0.02489 0.90918,0.02489 0.321563,0 0.897695,-0.02773 0.897695,-0.02773 2.406611,-0.142913 3.853639,-0.788596 3.92,-0.819216 L 29.380018,41.272 29.101521,40.521687 c 0.99276,-0.364952 1.975303,-0.842182 2.740938,-1.217341 l 2.157146,-1.046037 -2.886408,-1.2049 1.40875,0.01818 c 1.965096,0 3.51645,-0.569121 4.606196,-1.692034 0.311297,-0.321567 0.579003,-0.681404 0.801032,-1.079529 0.18375,0.07401 0.37803,0.13526 0.577093,0.18375 0.260253,0.06125 0.540715,0.09187 0.831657,0.09187 0.635471,0 1.156101,-0.14037 1.171409,-0.145471 l 1.715,-0.454588 -0.747441,-1.571444 c -0.01784,-0.04082 -0.425869,-1.023704 0.0488,-2.437559 0.119952,-0.362395 0.221769,-0.72447 0.303378,-1.084316 0.321568,0.06635 0.658761,0.101444 1.005843,0.101444 2.028909,0 3.003538,-1.426615 3.189782,-1.737969 l 0.837405,-1.454688 -1.549433,-0.635468 c -1.076981,-0.446615 -1.56411,-1.482124 -1.781038,-2.405977 2.000827,-0.173537 3.072075,-1.860474 3.401291,-2.886406 l 0.618243,-1.975312 -2.042305,0.06603 c -0.173553,0 -1.425969,-0.03573 -2.64332,-0.91875 0.09188,0.0077 0.181197,0.0201 0.275625,0.0201 1.253072,0 2.462123,-0.752232 2.94957,-1.831758 l 0.875684,-1.947558 c -1.099952,0.01531 -2.108338,-0.125371 -2.108338,-0.125371 -0.0076,0 -0.800719,-0.104636 -1.716916,-1.04125 -0.658442,-0.671198 -1.4732,-1.027851 -2.356209,-1.027852 -0.385375,0 -0.731815,0.07114 -1.027854,0.165566 0.04591,-0.158228 0.08868,-0.319329 0.116758,-0.485214 C 40.152027,8.939647 38.980961,7.549399 38.980946,7.551952 L 37.444914,5.650331 36.492668,7.883085 c -0.0025,0.0051 -0.245,0.531471 -0.67375,0.786679 C 35.688754,8.013879 35.370073,7.273457 34.688664,6.569081 33.404962,5.239446 31.839902,5.040702 31.023234,5.040702 c -0.38026,0 -0.65047,0.04051 -0.716816,0.05072 l -1.852813,0.364629 c 0.107178,-0.413438 0.337194,-1.135677 0.753184,-1.783906 l 1.020195,-1.5925 -2.5725,0.293809 L 26.835267,0.6307 25.248505,1.449918 Z m -0.05264,1.094843 1.298691,1.28338 1.339841,-0.689063 0.696721,1.480527 1.332188,-0.150253 c -0.742659,1.153536 -0.9599,2.45957 -0.959905,2.45957 -0.729841,-0.584427 -2.053786,-1.133125 -3.707536,-1.133125 -1.651188,0 -2.970934,0.548698 -3.708497,1.133125 5e-6,0 -0.216928,-1.306034 -0.957033,-2.45957 l 1.332187,0.150253 0.69385,-1.480527 1.342713,0.689063 z m 0,0.730216 L 22.793605,2.748593 22.52755,3.013691 22.193546,2.843339 21.328388,2.396406 20.86423,3.391718 20.705362,3.728593 20.335946,3.690313 19.983759,3.647243 c 0.160779,0.364942 0.277859,0.709479 0.364629,0.995312 0.936615,-0.518072 2.146636,-0.814434 3.37928,-0.814434 1.235211,0 2.447128,0.296362 3.381191,0.814434 0.08422,-0.285833 0.20385,-0.63037 0.364628,-0.995312 L 27.1213,3.690313 26.751884,3.728593 26.595888,3.391718 26.124072,2.396406 25.2637,2.843339 24.929697,3.013691 24.66173,2.748593 Z m 0.09188,3.505605 h 0.0096 c 2.041668,0 3.889375,0.987018 3.889375,2.084414 l -0.04018,0.27084 -0.814434,4.673183 0.814434,0.476602 2.120778,1.235527 h -0.0076 c 0,0 0.476922,0.244682 0.693845,0.395254 0.80901,0.558907 0.979682,1.375573 0.5101,1.715 -0.114841,-0.668645 -0.642493,-1.362812 -1.625041,-1.362812 -0.712033,0 -1.250519,0.365585 -1.692029,0.916835 -0.10974,0.137813 -0.217251,0.285197 -0.31678,0.445977 -0.1225,0.199063 -0.245,0.378028 -0.3675,0.546465 h 5.454122 C 32.047565,17.531855 31.6673,18.386484 31.6673,19.312891 v 12.069121 c 0,2.919581 -2.246493,4.315253 -4.67605,4.315253 -1.88089,0 -2.132901,-0.08613 -3.16395,0.947459 -1.036144,-1.033591 -1.28944,-0.947459 -3.167771,-0.947459 -2.429582,0 -4.6751,-1.395672 -4.6751,-4.315253 V 19.312891 c 0,-0.926407 -0.38026,-1.781036 -0.780938,-2.584942 h 5.45125 c -0.1225,-0.168437 -0.245,-0.347402 -0.3675,-0.546465 -0.09953,-0.16078 -0.206393,-0.308164 -0.318691,-0.445977 -0.436403,-0.55125 -0.977765,-0.916835 -1.687246,-0.916835 -0.985101,0 -1.513066,0.694167 -1.627908,1.362812 -0.467028,-0.339427 -0.296356,-1.156093 0.510095,-1.715 0.219481,-0.150572 0.696722,-0.395254 0.696722,-0.395254 h -0.0076 l 2.115996,-1.235527 0.819221,-0.476602 -0.817305,-4.673183 -0.03827,-0.27084 c 0,-1.097396 1.848353,-2.084414 3.887464,-2.084414 z m -7.236115,0.58666 c 0.3624,0 0.600353,0.04339 0.625897,0.04594 l 0.903438,0.178964 -0.558904,0.732129 c -0.433851,0.56401 -0.829428,1.60558 -0.359846,2.146621 0.150577,0.173542 0.456831,0.313268 0.750312,0.453633 0.607399,0.280729 1.431721,0.668965 1.431721,1.656621 0,0.640573 -0.49319,1.309538 -1.391521,1.878652 -2.669476,1.676719 -4.310202,3.424258 -5.019629,5.353634 -1.097399,2.968073 0.331451,4.662975 1.727441,5.553652 l 0.623025,0.40291 -0.546462,0.500527 c -0.07401,0.06635 -0.742659,0.653653 -1.730313,0.737871 -0.186298,0.01276 -0.364687,0.02297 -0.533066,0.02297 -0.635476,0 -1.171409,-0.09985 -1.607817,-0.232558 0.119947,0.209271 0.270842,0.426198 0.454592,0.643125 0.79625,0.921302 1.77625,1.339841 3.177342,1.362813 l 0.528283,0.0077 0.03543,0.525411 c 0.0051,0.104635 0.04562,1.077617 -0.875679,1.904492 -0.140365,0.127606 -0.308808,0.234475 -0.49,0.318691 0.62526,0.56401 1.260731,1.541775 1.385779,3.218496 0.10464,1.398544 0.436717,1.916621 0.439275,1.921717 l 0.577093,0.882387 -1.044122,0.01529 c -1.725206,0 -3.044316,-0.476976 -3.963066,-1.421191 -0.53849,-0.556356 -0.850478,-1.186775 -1.03168,-1.745625 -0.298591,0.255153 -0.688421,0.480107 -1.196291,0.600054 -0.188851,0.04591 -0.398757,0.06891 -0.625896,0.06891 -0.487448,0 -0.898337,-0.102086 -0.941717,-0.114846 L 6.65904,33.360223 6.954765,32.737198 c 0.02298,-0.04851 0.579641,-1.299333 -0.02009,-3.080684 -0.25776,-0.770731 -0.387884,-1.459793 -0.451716,-1.998283 -0.421101,0.219478 -0.98319,0.401318 -1.705431,0.403866 -1.656303,0 -2.385864,-1.232656 -2.416503,-1.28625 L 2.036591,26.209285 2.63665,25.961414 c 1.967658,-0.816667 2.403744,-3.008906 2.493066,-4.195625 -0.181197,0.03318 -0.382489,0.06412 -0.609629,0.07178 l -0.104316,0.0019 c -2.138639,0 -2.85353,-2.176288 -2.881621,-2.268164 l -0.245,-0.768496 0.806775,0.02584 c 0.283289,0 2.649062,-0.0638 4.318125,-2.189688 L 6.571962,16.439899 C 7.666813,15.051565 8.700081,13.729586 10.558,13.124742 10.5044,13.076252 10.430712,13.017554 10.323525,12.948649 9.338424,12.302971 8.766756,11.514059 8.623837,10.602965 8.409457,9.229944 9.290237,8.13478 9.323425,8.088844 l 0.599103,-0.735 0.373243,0.872813 c 0.02298,0.05615 0.648231,1.454687 1.967654,1.454687 h 0.09663 c 0.08932,-0.0051 0.176091,-0.0077 0.260312,-0.01531 -0.04596,-0.625261 0.06859,-1.589949 0.946504,-2.495938 1.05401,-1.08974 2.340264,-1.252754 3.016562,-1.252754 z m 14.48371,0 c 0.67375,0 1.964463,0.163014 3.018478,1.252754 0.87536,0.905989 0.99052,1.870677 0.944588,2.495938 0.08422,0.0077 0.17099,0.01022 0.260317,0.01531 h 0.09666 c 1.31688,0 1.942111,-1.39854 1.967659,-1.454687 l 0.373238,-0.872813 0.594321,0.735 c 0.04077,0.04594 0.916143,1.1411 0.704375,2.514121 -0.142918,0.911094 -0.714582,1.700006 -1.699692,2.345683 -0.104581,0.06891 -0.180899,0.127604 -0.23447,0.176094 1.852812,0.604844 2.890877,1.926823 3.983166,3.315156 l 0.158863,0.199063 c 1.674168,2.125884 4.034841,2.189687 4.318125,2.189687 h 0.002 l 0.801992,-0.02584 -0.240217,0.768496 c -0.02803,0.09188 -0.744893,2.268164 -2.883533,2.268164 l -0.1024,-0.0019 c -0.229697,-0.0077 -0.430984,-0.0386 -0.609633,-0.07178 0.08933,1.186719 0.522541,3.378958 2.490199,4.195625 l 0.602926,0.247871 -0.324434,0.566562 c -0.03312,0.0536 -0.760519,1.28625 -2.411717,1.28625 -0.727341,-0.0025 -1.289121,-0.184388 -1.710212,-0.403867 -0.06381,0.53849 -0.19651,1.227552 -0.451721,1.998283 -0.599707,1.781351 -0.04336,3.032189 -0.02298,3.080684 l 0.296675,0.623025 -0.666091,0.176092 c -0.04591,0.01274 -0.45427,0.114846 -0.941722,0.114846 -0.227129,0 -0.436403,-0.02298 -0.627812,-0.06891 -0.507865,-0.119947 -0.893226,-0.344896 -1.194375,-0.600054 -0.18375,0.558855 -0.492548,1.189269 -1.033591,1.745625 -0.916197,0.94422 -2.235988,1.421191 -3.961151,1.421191 l -1.046037,-0.01529 0.579004,-0.882387 c 0.0051,-0.0051 0.336551,-0.523173 0.441191,-1.921716 0.1225,-1.676721 0.755737,-2.654487 1.380996,-3.218497 -0.178649,-0.08422 -0.349639,-0.191085 -0.49,-0.318691 -0.918745,-0.826875 -0.880912,-1.799856 -0.875684,-1.904492 l 0.04116,-0.52541 0.523492,-0.0077 c 1.406197,-0.02297 2.383012,-0.44151 3.179262,-1.362812 0.186303,-0.216927 0.334636,-0.433854 0.454588,-0.643125 -0.438962,0.132709 -0.977766,0.232558 -1.610684,0.232558 -0.16588,0 -0.344215,-0.01021 -0.533066,-0.02297 -0.985111,-0.08422 -1.653432,-0.674066 -1.727441,-0.737871 l -0.546468,-0.500527 0.62303,-0.40291 c 1.393442,-0.890677 2.82484,-2.585579 1.727441,-5.553653 -0.709476,-1.929375 -2.353342,-3.676914 -5.017713,-5.353633 -0.900889,-0.566562 -1.395353,-1.238079 -1.395353,-1.878652 0,-0.987656 0.826875,-1.375892 1.431716,-1.656621 C 29.997899,9.334229 30.306065,9.194503 30.456637,9.020961 30.923666,8.47992 30.531287,7.43835 30.09488,6.87434 l -0.554122,-0.732129 0.89865,-0.178965 c 0.02808,-0.0025 0.265419,-0.04594 0.627813,-0.04594 z M 23.82433,6.024512 c -1.640981,0.0025 -2.871728,0.538489 -3.137147,1.171406 L 23.82433,8.433359 26.960526,7.195918 C 26.695108,6.563001 25.46532,6.02706 23.82433,6.024512 Z m -4.586091,0.09283 0.0049,0.0201 -0.02298,0.0029 z m -2.654806,0.366544 c -0.627807,0 -1.71181,0.157909 -2.60504,1.084316 -1.18927,1.225 -0.696717,2.562929 -0.696717,2.562929 l -0.316775,0.06316 c -0.188856,0.03828 -0.38026,0.04625 -0.574221,0.05647 -0.04591,0 -0.08645,0.0029 -0.127287,0.0029 -1.72776,0 -2.494022,-1.80209 -2.494022,-1.80209 0,0 -1.829841,2.253489 0.865159,4.019531 0.46448,0.301146 0.668889,0.581875 0.615371,0.880469 l -0.04307,0.194277 -0.194275,0.03541 C 9.060215,14.112091 8.069998,15.45991 6.862868,16.99116 5.027916,19.323765 2.437232,19.397137 2.113122,19.397137 h -0.03543 c 0,0 0.59241,1.870996 2.33803,1.870996 0.02813,0 0.05613,-3.23e-4 0.08422,-0.0029 0.801356,-0.02807 1.214475,-0.334004 1.214475,-0.334004 0,0 0.308749,4.241244 -2.855779,5.555567 -5e-6,0 0.576451,1.002969 1.895879,1.002969 h 0.01818 c 1.587399,-0.0077 2.2251,-0.97713 2.2251,-0.97713 0,0 -0.09156,1.261043 0.477559,2.958182 0.688998,2.049323 -0.0029,3.51134 -0.0029,3.51135 0,0 0.370053,0.09953 0.79625,0.09953 0.165889,0 0.33464,-0.01563 0.492871,-0.05646 1.324529,-0.316461 1.656621,-1.520724 1.656621,-1.520724 0,0 -0.122823,4.073125 4.629163,4.073125 h 0.03352 c 0,0 -0.415991,-0.569434 -0.535938,-2.207872 -0.227134,-3.024216 -2.276775,-3.437654 -2.276775,-3.437654 0,0 1.0949,-0.137175 1.569529,-0.560824 0.737538,-0.671197 0.686196,-1.447028 0.686196,-1.447028 -1.671616,-0.02297 -2.766467,-0.592401 -3.606096,-1.557089 -0.898332,-1.046354 -1.048904,-2.171504 -1.048904,-2.171504 0,0 0.901203,0.813477 2.636621,0.813477 0.155619,0 0.316775,-0.0077 0.485213,-0.02297 0.824322,-0.06636 1.393437,-0.589531 1.393437,-0.589531 -1.81198,-1.158646 -3.081002,-3.182448 -1.958084,-6.232187 0.903433,-2.442344 3.067601,-4.267084 5.252188,-5.642657 0.724793,-0.451718 1.128338,-0.956712 1.128338,-1.390566 0,-1.018282 -1.449636,-1.051459 -2.044217,-1.737969 -0.686514,-0.79625 -0.257764,-2.089837 0.336875,-2.868223 0,0 -0.199381,-0.04115 -0.515842,-0.04115 z m 14.48371,0 c -0.316452,0 -0.51871,0.04115 -0.51871,0.04115 0.597193,0.778386 1.026261,2.071973 0.339747,2.868223 -0.59463,0.68651 -2.047088,0.719687 -2.047088,1.737968 0,0.433854 0.406421,0.938848 1.131209,1.390567 2.182029,1.375573 4.348427,3.200312 5.249316,5.642656 1.125467,3.04974 -0.142967,5.073542 -1.952341,6.232188 0,0 0.566239,0.523176 1.390566,0.589531 0.168433,0.01787 0.331769,0.02297 0.482341,0.02297 1.737972,0 2.636622,-0.813477 2.636622,-0.813477 0,0 -0.148333,1.125151 -1.051775,2.171504 -0.834529,0.964688 -1.928743,1.534119 -3.600354,1.55709 0,0 -0.05104,0.775832 0.689063,1.447029 0.472139,0.423649 1.563791,0.560824 1.563791,0.560824 0,0 -2.046456,0.413438 -2.271038,3.437654 -0.1225,1.638438 -0.540724,2.207872 -0.540724,2.207872 h 0.03543 c 4.75198,0 4.629162,-4.073125 4.629162,-4.073125 0,0 0.329221,1.204263 1.65375,1.520724 0.160784,0.04082 0.332406,0.05646 0.495738,0.05646 0.426202,0 0.79625,-0.09954 0.79625,-0.09953 0,0 -0.694806,-1.462027 -0.0057,-3.511349 0.571663,-1.69714 0.480425,-2.958184 0.480425,-2.958184 0,0 0.637701,0.969472 2.2251,0.977129 h 0.01529 c 1.324534,0 1.89875,-1.002969 1.89875,-1.002969 -3.16713,-1.314323 -2.855779,-5.555566 -2.855779,-5.555566 0,0 0.413109,0.30593 1.21447,0.334004 0.02808,0.0025 0.05421,0.0029 0.08231,0.0029 1.74562,0 2.33707,-1.870996 2.33707,-1.870996 h -0.03543 c -0.318961,0 -2.914789,-0.07337 -4.749741,-2.405977 -1.207135,-1.53125 -2.194794,-2.879069 -4.149688,-3.409902 l -0.191409,-0.03541 -0.04307,-0.194278 c -0.05359,-0.298593 0.150891,-0.579323 0.615372,-0.880468 2.697553,-1.766042 0.865154,-4.019532 0.865154,-4.019532 0,0 -0.76881,1.80209 -2.494022,1.80209 -0.04082,0 -0.08395,-0.0029 -0.127282,-0.0029 -0.193957,-0.01021 -0.385361,-0.01818 -0.574222,-0.05646 l -0.318691,-0.06316 c 0,0 0.491916,-1.337929 -0.694805,-2.562929 C 32.781481,6.64179 31.694935,6.48388 31.067118,6.48388 Z m -10.335938,1.474785 0.7551,4.359277 2.108338,1.110156 V 8.9291 Z m 6.183379,0 -2.860566,0.970429 v 4.499004 l 2.107387,-1.110156 z m -5.236875,1.529335 1.301567,0.545509 v 0.725429 l -0.137817,-0.06412 c -0.0076,-0.0051 -0.211827,-0.05072 -0.566558,-0.334004 C 21.687906,9.90655 21.677718,9.488007 21.677709,9.488006 Z m 4.295158,0 c 0,0 -0.01308,0.418543 -0.600059,0.872813 -0.35474,0.283278 -0.558918,0.328908 -0.566562,0.334004 l -0.137813,0.06412 V 10.033516 Z M 11.36953,11.299668 c 0,0 1.815165,1.332188 5.525896,0.1225 -1.02849,0.666094 -3.024221,1.607812 -4.846408,3.131406 -4.560573,4.006771 -1.299647,7.913692 -1.299647,7.913692 -1.64099,-1.709896 -1.704793,-3.542293 -1.225,-5.037813 -0.862611,1.436823 -1.413856,3.179895 -1.324529,5.32875 0.1225,3.077812 1.814529,5.74254 3.590779,7.88115 0.860048,1.038702 1.054647,2.315059 1.054647,2.315059 0,0 -0.349635,-1.125785 -1.339842,-2.284434 -1.906408,-2.235591 -3.540054,-4.555147 -3.754434,-7.898377 -0.196509,0.607396 -1.008077,2.291133 -2.296875,2.926602 0,0 1.618343,-0.974258 2.345684,-4.779414 v 0.02775 c 0.482342,-3.874062 3.294099,-6.670826 6.425507,-8.373066 0.28838,-0.155677 0.559546,-0.285833 0.817306,-0.413438 -0.951928,0.148021 -2.488921,0.165567 -3.673084,-0.86037 z m 24.911521,0 c -1.186721,1.025938 -2.720519,1.008392 -3.675,0.860371 0.260313,0.127604 0.527961,0.25776 0.81635,0.413437 3.13136,1.70224 5.946669,4.499004 6.426463,8.373067 v -0.02775 c 0.727341,3.805157 2.347595,4.779415 2.347595,4.779415 -1.288759,-0.63547 -2.103232,-2.319206 -2.299742,-2.926602 -0.21438,3.343229 -1.844517,5.662795 -3.753478,7.898376 -0.990207,1.158649 -1.335059,2.284434 -1.335059,2.284434 0,0 0.188537,-1.276357 1.046037,-2.315059 1.781351,-2.1386 3.47338,-4.803337 3.598438,-7.881149 0.08677,-2.151407 -0.464163,-3.891927 -1.329321,-5.32875 0.482346,1.49552 0.416309,3.327916 -1.222129,5.037812 0,0 3.260926,-3.90692 -1.299647,-7.913691 -1.822187,-1.523594 -3.819829,-2.465313 -4.848319,-3.131407 3.713283,1.209688 5.527812,-0.1225 5.527812,-0.1225 z M 6.821717,11.958105 c 0.775832,0 1.347819,0.387601 1.411617,0.425879 l 0.762758,0.535938 -0.821137,0.442148 c -0.798803,0.423646 -1.258173,0.994994 -1.669062,1.497754 -0.398121,0.495104 -0.779017,0.970111 -1.37621,1.166621 -0.211822,0.07146 -0.436408,0.107187 -0.666091,0.107187 -0.890678,0 -1.786172,-0.546464 -2.125566,-1.304433 L 1.99828,14.07123 2.823239,14.02242 c 0.04082,0 1.102211,-0.09698 2.286345,-1.309218 0.487457,-0.495105 1.076662,-0.755098 1.712133,-0.755097 z m 34.007147,0 c 0.635466,0 1.224681,0.259993 1.712128,0.755098 1.184169,1.209687 2.248062,1.309219 2.28635,1.309219 l 0.826875,0.04881 -0.341662,0.757968 c -0.339428,0.757969 -1.235212,1.304433 -2.128438,1.304433 -0.229692,0 -0.453955,-0.03573 -0.663224,-0.107187 -0.597183,-0.19651 -0.975532,-0.671517 -1.37621,-1.166621 -0.408331,-0.50276 -0.87217,-1.074108 -1.670978,-1.497754 l -0.819216,-0.442148 0.759882,-0.535938 c 0.0638,-0.03828 0.638661,-0.425879 1.414493,-0.42588 z M 6.821717,12.527539 c -0.400678,0 -0.864517,0.135261 -1.303478,0.589531 -1.37812,1.401094 -2.659588,1.477656 -2.659588,1.477656 0.229653,0.518073 0.908225,0.969473 1.604941,0.969473 0.163332,0 0.326664,-0.02329 0.482341,-0.07943 0.951928,-0.321563 1.294223,-1.742754 2.958184,-2.630879 0,0 -0.464799,-0.326348 -1.0824,-0.326348 z m 34.007147,0 c -0.620159,0 -1.085272,0.326348 -1.085272,0.326348 1.66651,0.888125 2.005933,2.309316 2.955313,2.630879 0.160778,0.05614 0.324429,0.07943 0.485212,0.07943 0.69927,0 1.375577,-0.4514 1.607813,-0.969473 0,0 -1.280826,-0.07656 -2.661504,-1.477656 -0.438961,-0.451718 -0.903442,-0.589531 -1.301562,-0.589531 z m -19.656463,0.415352 -0.992446,0.569433 -0.964687,0.558906 h -0.01054 l -0.245,0.140684 c 0.543591,0.153124 0.959606,0.420774 1.309216,0.778066 0.01529,0.01531 0.02524,0.03031 0.04307,0.04307 0.07656,0.08422 0.153762,0.17418 0.227771,0.266055 0.01784,0.02297 0.03283,0.04052 0.05072,0.06603 0.06887,0.08932 0.137484,0.186302 0.203845,0.283281 0.01529,0.02042 0.02803,0.04307 0.04591,0.06604 0.07911,0.119947 0.153762,0.245638 0.227772,0.373241 0.686519,1.184167 1.78136,1.891094 2.75625,1.891094 0.972351,0 2.06974,-0.706927 2.75625,-1.891094 0.07657,-0.132708 0.152493,-0.258079 0.231603,-0.378027 0.01274,-0.01786 0.02362,-0.03573 0.03636,-0.05359 0.06635,-0.09953 0.137494,-0.198743 0.211504,-0.295723 0.01529,-0.02042 0.03063,-0.0386 0.04591,-0.05647 0.07656,-0.09698 0.155354,-0.185983 0.234475,-0.272754 0.01274,-0.01276 0.02553,-0.02552 0.03827,-0.03828 0.349639,-0.357291 0.765625,-0.627813 1.309221,-0.780937 l -0.242134,-0.140684 h -0.01245 l -0.964687,-0.558906 -0.990525,-0.569433 -2.646192,1.442246 -0.0076,-0.0048 -0.0057,0.0048 z m 1.580054,1.975312 h 2.237541 v 0.768496 c -0.262861,-0.321565 -0.775195,-0.257442 -0.775195,-0.257442 v 1.110157 c 0,0 0.02009,0.543274 0.211504,0.778066 h -1.110154 c 0.193967,-0.234792 0.211504,-0.778066 0.211504,-0.778066 v -1.110157 c 0,0 -0.509782,-0.06412 -0.7752,0.257442 z m -6.372871,2.595469 c 0.211827,0.569114 0.390471,1.186719 0.390471,1.799219 V 25.64748 H 27.74433 c -0.548692,-0.566563 -0.538779,-1.284016 -0.400996,-1.748496 -0.158197,-0.07656 -0.291251,-0.167799 -0.408651,-0.269883 -0.42875,0.316459 -1.737647,1.268385 -2.079628,1.508281 l -0.07369,0.04785 -4.305685,-0.775192 h -0.089 c -0.102081,0 -0.25329,-0.0054 -0.41918,-0.02584 -0.04591,0.193959 -0.214375,0.326348 -0.405779,0.326348 -0.02298,0 -0.04851,3.11e-4 -0.06891,-0.0048 -0.112293,-0.02042 -0.209264,-0.07688 -0.275625,-0.171308 -0.06878,-0.09187 -0.09407,-0.200977 -0.07369,-0.315821 l 0.01529,-0.09187 c -0.444038,-0.313893 -0.854922,-1.013801 -0.673725,-1.751353 l 0.01818,-0.07656 0.06317,-0.04594 c 0.0076,-0.0051 0.08177,-0.05583 0.194275,-0.119629 l -0.311037,-0.04881 c -0.117429,-0.02042 -0.196799,-0.130157 -0.178963,-0.245 0.02043,-0.117397 0.130159,-0.20098 0.245,-0.178009 l 0.745525,0.116759 0.06891,-2.623223 1.107287,-1.174277 0.694801,1.457558 -0.730213,2.526563 0.658437,0.102402 c 0.114876,0.02042 0.193928,0.126967 0.176092,0.246914 -0.01788,0.104636 -0.107506,0.176094 -0.209588,0.176094 h -0.03543 l -0.535937,-0.08613 c 0.0076,0.01531 0.01818,0.02488 0.02582,0.04019 0.05614,0.119948 0.183431,0.201936 0.257441,0.240215 l 3.281662,0.05072 c 0.140336,-0.135261 0.485531,-0.471498 0.840272,-0.82879 -0.80901,-0.30625 -1.102834,-1.003287 -1.151309,-1.465214 -0.451717,-0.191406 -0.765944,-0.479473 -0.936934,-0.854629 -0.211822,-0.461927 -0.134598,-0.929596 -0.07848,-1.15418 -0.438961,-0.160781 -0.898993,-0.451718 -1.36855,-0.91875 z m 9.945471,0 c -0.757971,0.750312 -1.484994,1.031039 -2.133225,1.094844 -0.117389,0.01276 -0.237983,0.02105 -0.357925,0.02105 h -0.01725 c -0.119952,0 -0.242447,-0.0083 -0.359847,-0.02105 -0.112288,-0.01021 -0.230324,-0.02744 -0.350271,-0.05551 -0.04341,0.17099 -0.09666,0.523177 0.05647,0.8575 0.137784,0.303698 0.418225,0.530834 0.824004,0.681407 l 0.137813,0.05359 0.0029,0.147384 c 0,0.04338 0.03352,1.000735 1.074746,1.266152 0.17099,-0.173542 0.323478,-0.334324 0.438325,-0.467031 -0.211818,-0.50021 -0.09922,-1.013178 0.209587,-1.263282 -0.01274,0.05359 -0.148024,1.309219 0.8575,1.77625 l 0.165566,0.07656 -0.04787,0.178964 c -0.01788,0.05104 -0.352182,1.268067 0.865159,1.719786 l 0.216291,0.08135 -0.09666,0.209589 c -0.02043,0.04594 -0.497654,1.148437 0.627812,1.77625 h 2.442346 v -1.939902 c -0.867716,-0.104635 -1.237764,-0.803269 -1.332192,-1.295821 -0.403197,-0.06891 -0.714905,-0.244999 -0.929275,-0.528281 -0.512971,-0.67375 -0.07126,-1.291671 -0.06603,-1.327402 0,0.0077 0,0.663222 0.405779,1.069004 0.201611,0.19651 0.43927,0.347082 0.799122,0.382813 l 0.178007,0.01531 0.01529,0.181836 c 0.0024,0.03828 0.09984,0.92864 0.92928,1.069004 l -0.0029,-3.961152 c 0,-0.6125 0.178967,-1.230105 0.393338,-1.799219 z m -6.004416,1.217344 -0.566563,0.597187 -0.06699,2.521777 0.286155,0.04307 0.701503,-2.419375 z m 5.558437,2.739023 c -0.530831,0.579323 -1.572096,1.584521 -1.623125,1.635566 l -0.06412,0.06412 -3.2874,-0.05359 c -0.0024,0.326667 -0.05616,0.604525 -0.107188,0.808692 -0.0077,0.03318 -0.01754,0.06923 -0.02773,0.102402 l 3.915213,0.704375 c 0.405779,-0.283281 1.525507,-1.102499 1.961916,-1.424062 -0.316462,-0.461927 -0.347082,-1.010944 -0.275625,-1.396309 -0.209269,-0.132708 -0.36431,-0.282962 -0.491916,-0.441191 z m -6.262812,0.834531 c -0.290933,0 -0.597501,0.17099 -0.730213,0.252656 -0.107187,0.622709 0.352188,1.1864 0.658438,1.298692 0.280731,0.102083 0.617924,0.1225 0.791462,0.1225 0.0077,-0.02042 0.01534,-0.0488 0.02298,-0.07943 0.01784,-0.05104 0.03033,-0.101762 0.04307,-0.15791 0.04851,-0.250104 0.06368,-0.531152 0.0689,-0.714902 -0.117394,-0.07401 -0.283597,-0.201296 -0.378025,-0.395254 -0.104639,-0.224583 -0.257123,-0.326348 -0.476603,-0.326348 z m -2.846209,3.768789 v 5.308653 c 0,2.169269 1.572086,3.529533 3.889375,3.529533 1.937034,0 2.447128,0.07401 3.166816,0.788592 0.495101,-0.495106 0.906627,-0.678538 1.751368,-0.747442 l 0.01725,-0.0823 0.446934,-1.375253 c -0.02553,-0.03063 -0.753184,-0.8575 -0.753184,-0.8575 -0.288385,0.09698 -0.5302,0.111974 -0.935979,0.111974 -0.418543,0 -0.88813,-0.04851 -1.401096,-0.145471 -0.05104,-0.01019 -0.09986,-0.01529 -0.148338,-0.01529 -0.06128,0 -0.06606,0.0057 -0.08135,0.03636 l -0.08996,0.145466 -0.160779,0.267972 -0.30625,-0.07178 -1.352288,-0.318692 -0.186621,0.30625 0.02871,0.03254 0.1627,0.181835 -0.07082,0.237346 c -0.09953,0.308803 -0.423987,0.670878 -0.523491,0.770412 l -0.336875,0.362713 -0.309122,-0.390471 -0.231603,-0.290938 C 19.103,33.587349 19.046856,33.168806 19.184668,32.732402 c -0.0051,0.0024 -0.01009,0.0049 -0.01529,0.0049 l -0.380897,0.157907 -0.173224,-0.372282 -0.119629,-0.2651 c -0.206711,-0.464481 -0.130149,-1.146203 0.42875,-1.557093 l 1.089103,-0.615366 1.039335,0.201934 c 0.02298,-0.09953 0.06091,-0.454593 0.08901,-0.546468 -0.02043,0 -0.03797,-0.0049 -0.05838,-0.0049 l -0.597188,0.222029 -0.577088,-0.398125 c 0,0 -0.224263,-0.216609 -0.02009,-0.433537 l 0.556038,-0.845059 -1.413538,-1.776248 2.174375,0.892911 0.145472,-0.178009 0.292853,-0.352187 0.332088,0.315821 c 0.09443,0.09188 0.147676,0.204166 0.173224,0.313906 0.599741,0.234791 1.674159,0.921942 1.768592,2.042302 l -0.336875,0.134946 v 0.0076 c 0.07911,0.08932 0.140399,0.12763 0.160783,0.130154 l 1.552301,0.153125 c 0.04082,-0.0051 0.08903,-0.02327 0.1426,-0.04116 0.193961,-0.0638 0.482346,-0.157907 0.826875,-0.157907 0.28073,0 0.548378,0.06124 0.808691,0.18375 0.09443,-0.03572 0.215012,-0.06412 0.350271,-0.07178 l 0.07369,-0.002 c 0.831986,0 1.245105,0.622394 1.574321,1.114946 0.05614,0.08675 0.109702,0.168756 0.168438,0.247867 0.290933,0.410889 0.668987,1.008077 0.684275,1.033596 l 0.171309,0.267966 -0.209593,0.245 c -0.160759,0.186303 -0.403225,0.405784 -0.819216,0.405784 -0.08677,0 -0.178326,-0.01019 -0.280412,-0.03063 -0.08932,-0.01534 -0.168756,-0.044 -0.247872,-0.07465 -0.01019,0.08166 -0.02778,0.178962 -0.04307,0.263183 l -0.273709,1.419276 c 1.628231,-0.400678 2.662459,-1.62855 2.662459,-3.386934 l -0.0029,-5.308652 z m 3.4099,1.266153 0.821137,0.9599 -0.69385,0.780937 c -0.08931,0.08933 -0.07689,0.209269 -0.04116,0.260313 l 0.301463,0.2651 0.379941,-0.232559 c 0.01788,-0.01274 0.05392,-0.01725 0.09475,-0.01725 0.107187,0 0.265413,0.02778 0.405783,0.02773 0.155649,5e-6 0.290957,-0.03347 0.30625,-0.178963 -0.04851,0.482346 -0.495424,1.319746 -0.201934,1.978184 l 0.217242,0.494787 -1.403963,-0.200978 -0.658437,1.110154 c -0.204169,0.370052 -0.234152,0.77073 -0.04018,0.987658 l 0.246916,0.308166 c 0,0 0.344528,-0.36431 0.421091,-0.606762 l -0.11197,-0.1225 c -0.09186,-0.104635 -0.0893,-0.19651 -0.03063,-0.30625 l 0.413433,-0.684275 1.658537,0.390471 0.08709,-0.150258 c 0.114846,-0.186298 0.275629,-0.243085 0.451721,-0.243085 0.07401,0 0.150253,0.0083 0.226816,0.02107 0.308803,0.06125 0.814747,0.142595 1.322618,0.142595 0.556351,5e-6 1.109516,-0.09953 1.403007,-0.42875 0.599735,0.890678 1.817091,1.033597 1.722659,1.485318 l -0.321563,1.526462 c 0.211822,-0.01019 0.41599,-0.02362 0.6125,-0.05168 l 0.304334,-1.586757 c 0.03317,-0.173543 0.06604,-0.405784 0.06603,-0.405784 -0.117365,-0.117394 -0.402903,-0.370391 -0.563692,-0.676616 -0.21437,-0.413438 -0.09666,-0.630689 -0.295719,-1.166622 0,0 0.06061,-0.124416 0.200978,-0.124416 0.02038,0 0.04591,0.002 0.0689,0.0096 0.436408,0.125053 0.546467,1.694582 1.312087,1.8375 0.07401,0.01534 0.142635,0.02107 0.20385,0.02107 0.222034,0 0.352825,-0.09475 0.495743,-0.263183 0,0 -0.386027,-0.605165 -0.671834,-1.013497 -0.382817,-0.535937 -0.681409,-1.179062 -1.393442,-1.179062 -0.01529,0 -0.03577,3.23e-4 -0.05359,0.0029 -0.234793,0.01019 -0.379941,0.125371 -0.379941,0.125371 -0.288389,-0.181197 -0.556674,-0.243084 -0.799121,-0.243084 -0.446611,0 -0.793055,0.2048 -0.966604,0.2048 h -0.0057 l -1.589628,-0.155996 c -0.250101,-0.02548 -0.446929,-0.275302 -0.515838,-0.372282 -0.01788,-0.02808 -0.02773,-0.044 -0.02773,-0.044 0,-0.04337 -2.6e-4,-0.08646 -0.0029,-0.127288 -0.05359,-1.299009 -1.061982,-1.855683 -1.419275,-1.863339 0,0 0.04082,-0.247233 -0.0536,-0.341661 l -0.352188,0.425879 z m 1.110159,1.038378 c 0.08169,0.0024 0.140424,0.07465 0.137812,0.151209 -0.01019,0.08167 -0.07688,0.140037 -0.155996,0.134946 -0.08169,-0.0025 -0.143041,-0.07147 -0.137813,-0.153125 0.0076,-0.07912 0.07433,-0.140689 0.155997,-0.13303 z m -1.227872,2.126522 -0.890996,0.543596 c -0.382813,0.285832 -0.410248,0.752571 -0.285195,1.03072 l 0.119629,0.260317 c 0,0 0.551583,-0.227458 0.600059,-0.385684 l -0.07465,-0.18375 c -0.05107,-0.119952 -0.04562,-0.250105 0.05646,-0.321562 l 0.5924,-0.4077 0.992446,0.188538 c -5e-6,0 -0.178943,-0.224901 -0.163655,-0.523497 z m 5.977618,2.28635 c 0.15312,0.227134 0.519988,0.484575 0.445974,0.686191 l -0.464158,1.4499 c 0.176092,-0.0076 0.375154,-0.01054 0.589529,-0.01054 0,0 0.510717,-1.492329 0.538809,-1.54082 -0.285832,-0.125053 -0.880466,-0.43928 -1.110154,-0.584746 z m -8.907092,3.143849 c 0,0 1.439375,0.784123 3.468283,1.368551 0.574221,0.165889 1.010625,0.242133 1.010625,0.242133 v 0.623025 c 0,0 1.084635,0.188533 2.182029,0.188533 h 0.06317 c 1.094841,5e-6 2.182034,-0.188533 2.182034,-0.188533 v -0.623025 c 0,-5e-6 0.436408,-0.07624 1.010625,-0.242133 2.028903,-0.584428 3.47115,-1.368551 3.47115,-1.368551 l -0.247872,0.916834 -0.223944,0.839317 0.811562,0.311037 0.903438,0.339746 c -1.033592,0.500207 -2.470737,1.227867 -3.785059,1.587713 l 0.311037,0.84697 c 0,5e-6 -1.666191,0.760529 -4.445412,0.765625 v 0.0029 h -0.03827 v -0.0029 c -2.776668,-0.0051 -4.443497,-0.765625 -4.443497,-0.765625 l 0.309122,-0.84697 c -1.31433,-0.359846 -2.750829,-1.087506 -3.786978,-1.587713 l 0.903438,-0.339746 0.816344,-0.311037 -0.229682,-0.839317 z m 0.658437,0.727342 0.395254,1.291992 -1.33697,0.444063 c 0.806461,0.403231 1.788372,0.783172 2.972541,1.107287 l 0.643125,-1.773383 c -0.76563,-0.232236 -2.084421,-0.735637 -2.67395,-1.069959 z m 12.068166,0 c -0.589534,0.334322 -1.908325,0.837723 -2.673945,1.069959 l 0.643125,1.773383 c 1.186721,-0.324115 2.163532,-0.704056 2.972541,-1.107287 l -1.334103,-0.444063 z m -9.087966,1.745625 -0.793379,2.146621 c 0.523173,0.186303 2.296552,0.543596 3.84822,0.543596 1.54911,0 3.322817,-0.357293 3.843437,-0.543596 l -0.790507,-2.146621 c -0.66099,0.193956 -2.029545,0.398125 -3.022305,0.390471 h -0.06317 c -0.99276,0.0076 -2.363868,-0.196515 -3.0223,-0.390471 z"
     inkscape:connector-curvature="0" />
  <metadata
     id="metadata1120">
    <rdf:RDF>
      <cc:Work
         rdf:about="">
        <dc:title></dc:title>
      </cc:Work>
    </rdf:RDF>
  </metadata>
</svg>
