<svg xmlns="http://www.w3.org/2000/svg" viewBox="0 0 48 48" height="48" width="48">
  <path
     style="fill:none;stroke:#ffffff;stroke-width:1.06727207px;stroke-linecap:butt;stroke-linejoin:miter;stroke-opacity:1"
     d="m 18.235729,20.056464 11.881739,0.103937 0.416909,14.695862 c -0.999856,2.352378 -5.561042,2.691478 -6.253554,3.752089 -0.817928,-1.008303 -4.781923,-1.887119 -5.972432,-3.752089 z" />
  <path
     style="fill:none;stroke:#ffffff;stroke-width:1.06727207px;stroke-linecap:butt;stroke-linejoin:miter;stroke-opacity:1"
     d="m 32.09367,25.788458 c 9.222021,-5.308044 -5.260093,-11.408882 3.906036,-17.0981293 2.188981,3.7578333 3.228699,9.0278553 8.917557,8.1805983 0.597018,5.234759 -1.151221,6.163238 -3.390149,6.190678 0.778738,3.05896 2.027467,4.172107 3.832339,4.937801 -0.523623,1.867616 -1.325442,3.454224 -4.053434,3.095358 -1.491201,7.504479 -4.040326,8.226671 -8.327955,7.664693 2.361918,-4.821581 -0.08152,-7.332132 2.358354,-10.907452 z" />
  <path
     style="fill:none;stroke:#ffffff;stroke-width:1.06727207px;stroke-linecap:butt;stroke-linejoin:round;stroke-opacity:1"
     d="m 20.81777,4.4158341 h 6.706579 l 0.147402,6.3380789 2.505751,2.137285 c -1.55966,1.832466 -2.849072,3.890154 -5.527404,4.7904 -2.995533,-0.824126 -4.432271,-2.817335 -5.895897,-4.7904 l 2.284668,-2.210986 z" />
  <path
     style="fill:none;stroke:#ffffff;stroke-width:1.06582677;stroke-linecap:round;stroke-linejoin:round;stroke-miterlimit:4;stroke-dasharray:none;stroke-opacity:1"
     d="m 19.491183,42.002179 c 3.133202,1.679546 6.379234,2.531678 10.096736,-0.0737" />
  <path
     style="fill:none;stroke:#ffffff;stroke-width:1.06727207px;stroke-linecap:butt;stroke-linejoin:miter;stroke-opacity:1"
     d="M 15.906335,26.187765 C 6.6843136,20.879721 21.166428,14.778883 12.000298,9.0896358 9.8113134,12.847469 8.7715994,18.117491 3.0827412,17.270197 c -0.5970218,5.234797 1.1512215,6.163275 3.3901456,6.190677 -0.7787339,3.058998 -2.0274634,4.172145 -3.832339,4.937839 0.5236271,1.867616 1.3254463,3.454224 4.0534338,3.095358 1.4912051,7.504479 4.0403304,8.226671 8.3279584,7.664693 -2.361917,-4.821581 0.08152,-7.332132 -2.358353,-10.907452 z" />
</svg>
