<?xml version="1.0" encoding="UTF-8" standalone="no"?>
<svg
   xmlns:dc="http://purl.org/dc/elements/1.1/"
   xmlns:cc="http://creativecommons.org/ns#"
   xmlns:rdf="http://www.w3.org/1999/02/22-rdf-syntax-ns#"
   xmlns:svg="http://www.w3.org/2000/svg"
   xmlns="http://www.w3.org/2000/svg"
   xmlns:sodipodi="http://sodipodi.sourceforge.net/DTD/sodipodi-0.dtd"
   xmlns:inkscape="http://www.inkscape.org/namespaces/inkscape"
   width="48"
   height="48"
   viewBox="0 0 48 48"
   version="1.1"
   id="svg4"
   sodipodi:docname="TinyScanner.svg"
   inkscape:version="0.92.3 (2405546, 2018-03-11)">
  <metadata
     id="metadata10">
    <rdf:RDF>
      <cc:Work
         rdf:about="">
        <dc:format>image/svg+xml</dc:format>
        <dc:type
           rdf:resource="http://purl.org/dc/dcmitype/StillImage" />
        <dc:title />
      </cc:Work>
    </rdf:RDF>
  </metadata>
  <defs
     id="defs8" />
  <sodipodi:namedview
     pagecolor="#858585"
     bordercolor="#666666"
     borderopacity="1"
     objecttolerance="10"
     gridtolerance="10"
     guidetolerance="10"
     inkscape:pageopacity="0"
     inkscape:pageshadow="2"
     inkscape:window-width="1920"
     inkscape:window-height="1046"
     id="namedview6"
     showgrid="false"
     inkscape:zoom="9.8333333"
     inkscape:cx="15.112147"
     inkscape:cy="29.674572"
     inkscape:window-x="0"
     inkscape:window-y="0"
     inkscape:window-maximized="1"
     inkscape:current-layer="svg4" />
  <path
     d="M 7 5 C 5.892 5 5 5.892 5 7 L 5 41 C 5 42.108 5.892 43 7 43 L 41 43 C 42.108 43 43 42.108 43 41 L 43 7 C 43 5.892 42.108 5 41 5 L 7 5 z M 32.054688 8.8457031 C 32.455017 8.9243551 33.183594 9.5667288 33.183594 9.8417969 C 33.183594 10.062737 32.699014 10.738842 28.484375 16.390625 C 26.821732 18.620211 25.358411 20.534132 25.232422 20.644531 C 24.908691 20.9282 23.991193 21.358149 23.708984 21.359375 C 23.538161 21.360114 23.472656 21.424018 23.472656 21.583984 C 23.472656 21.749785 23.516852 21.787572 23.650391 21.736328 C 23.975824 21.611449 25.457137 21.659084 25.71875 21.802734 C 25.857389 21.878864 28.636297 23.883456 31.894531 26.255859 C 35.885317 29.161654 37.845798 30.650884 37.902344 30.820312 C 37.948514 30.958641 37.948095 31.867242 37.902344 32.839844 C 37.806154 34.883779 37.760408 34.983449 36.802734 35.210938 C 36.379104 35.311568 36.241748 35.395062 36.195312 35.580078 C 36.082191 36.030793 35.905569 36.092072 33.078125 36.664062 C 32.526597 36.775636 31.149661 37.063042 30.017578 37.300781 C 24.128997 38.537391 23.963673 38.567241 23.109375 38.558594 C 22.602795 38.553494 22.111326 38.485066 21.894531 38.390625 C 21.467404 38.204557 21.223099 38.021271 20.416016 37.273438 C 20.087668 36.969192 18.149345 35.183113 16.107422 33.304688 C 12.929133 30.380888 12.384442 29.835997 12.326172 29.525391 C 12.279612 29.277231 12.087214 28.999683 11.716797 28.646484 L 11.175781 28.130859 L 11.142578 25.96875 C 11.110528 23.82712 11.111978 23.806696 11.339844 23.734375 C 11.466346 23.694225 12.216663 23.558604 13.007812 23.433594 C 14.110288 23.259389 14.447266 23.169404 14.447266 23.048828 C 14.447266 22.806513 14.086542 22.805891 12.597656 23.042969 C 10.695995 23.345808 10.594102 23.339381 10.304688 22.892578 C 10.045188 22.491955 9.9950792 21.904818 10.189453 21.539062 C 10.256843 21.412254 10.977622 20.358377 11.791016 19.197266 C 12.604409 18.036155 14.099564 15.898655 15.113281 14.447266 C 17.164152 11.510935 17.497789 11.112064 18.216797 10.744141 C 18.754075 10.469211 19.099047 10.410047 23.736328 9.8125 C 25.303828 9.6105163 27.740725 9.2966689 29.152344 9.1132812 C 30.563962 8.9298937 31.869777 8.8093744 32.054688 8.8457031 z M 30.197266 11.050781 C 29.560332 11.062481 27.93499 11.312276 23.683594 11.970703 C 20.266549 12.499912 19.884852 12.57795 19.417969 12.851562 C 19.037765 13.074376 18.575042 13.623826 17.154297 15.53125 C 16.171501 16.850706 14.816511 18.666545 14.144531 19.566406 C 13.47255 20.466267 12.921671 21.277202 12.919922 21.367188 C 12.915322 21.605145 13.132426 21.783203 13.425781 21.783203 C 13.566445 21.783203 14.732977 21.619344 16.017578 21.417969 C 17.302177 21.216594 18.685408 21.002599 19.091797 20.943359 C 22.365698 20.466119 23.923002 20.18536 24.158203 20.03125 C 24.548749 19.775355 30.6702 11.468056 30.628906 11.25 C 30.604674 11.122038 30.579426 11.043761 30.197266 11.050781 z M 23.189453 23.294922 C 22.63757 23.333626 21.820328 23.453863 20.464844 23.675781 C 19.071511 23.903895 16.992301 24.244807 15.845703 24.431641 C 14.699106 24.618474 13.761719 24.804971 13.761719 24.847656 C 13.761719 24.890346 14.889248 25.917591 16.267578 27.128906 C 17.645908 28.340222 19.557959 30.023149 20.517578 30.869141 C 21.477198 31.715132 22.355805 32.464789 22.470703 32.535156 C 22.741878 32.701232 23.916833 32.627503 25.373047 32.353516 C 26.964392 32.054106 29.176485 31.660928 32.015625 31.173828 C 34.327444 30.777199 34.659773 30.704216 34.546875 30.615234 C 34.522685 30.596164 33.814462 30.089625 32.972656 29.488281 C 32.130851 28.886937 29.922231 27.303029 28.064453 25.96875 C 26.206675 24.634471 24.5196 23.480957 24.316406 23.40625 C 24.026643 23.299714 23.741336 23.256218 23.189453 23.294922 z "
     id="rect2"
     style="fill:#ffffff" />
</svg>
