<?xml version="1.0" encoding="UTF-8" standalone="no"?>
<svg
   xmlns:dc="http://purl.org/dc/elements/1.1/"
   xmlns:cc="http://creativecommons.org/ns#"
   xmlns:rdf="http://www.w3.org/1999/02/22-rdf-syntax-ns#"
   xmlns:svg="http://www.w3.org/2000/svg"
   xmlns="http://www.w3.org/2000/svg"
   xmlns:sodipodi="http://sodipodi.sourceforge.net/DTD/sodipodi-0.dtd"
   xmlns:inkscape="http://www.inkscape.org/namespaces/inkscape"
   width="48"
   height="48"
   viewBox="0 0 48 48"
   id="svg2"
   version="1.1"
   inkscape:version="0.91 r13725"
   sodipodi:docname="tinytraveltracker.svg">
  <metadata
     id="metadata10">
    <rdf:RDF>
      <cc:Work
         rdf:about="">
        <dc:format>image/svg+xml</dc:format>
        <dc:type
           rdf:resource="http://purl.org/dc/dcmitype/StillImage" />
      </cc:Work>
    </rdf:RDF>
  </metadata>
  <defs
     id="defs8" />
  <sodipodi:namedview
     pagecolor="#ffffff"
     bordercolor="#666666"
     borderopacity="1"
     objecttolerance="10"
     gridtolerance="10"
     guidetolerance="10"
     inkscape:pageopacity="0"
     inkscape:pageshadow="2"
     inkscape:window-width="1366"
     inkscape:window-height="715"
     id="namedview6"
     showgrid="false"
     inkscape:zoom="3.4766083"
     inkscape:cx="25.326128"
     inkscape:cy="43.557126"
     inkscape:window-x="0"
     inkscape:window-y="27"
     inkscape:window-maximized="1"
     inkscape:current-layer="svg2" />
  <path
     style="fill:#ffffff"
     d="M 24 2 A 22 22 0 0 0 2 24 A 22 22 0 0 0 24 46 A 22 22 0 0 0 46 24 A 22 22 0 0 0 24 2 z M 34.992188 11.941406 C 35.38092 11.901689 35.844015 12.028733 36.328125 12.537109 C 36.328125 12.537109 37.021228 13.407177 37.085938 13.666016 C 37.085938 13.666016 37.333293 14.050012 37.753906 14.244141 L 39.117188 15.050781 C 39.117188 15.050781 39.825658 15.114799 39.955078 15.791016 C 39.955078 15.791016 40.792201 16.985853 40.345703 17.869141 C 40.345703 17.869141 40.21664 18.86845 39.443359 19.289062 C 39.443359 19.289062 39.05846 20.158359 37.541016 20.611328 C 37.541016 20.611328 35.282278 21.644431 34.703125 22.162109 C 34.703125 22.162109 33.767935 22.999147 32.865234 22.966797 C 32.865234 22.966797 34.176372 23.300957 34.59375 23.970703 C 34.59375 23.970703 34.895002 24.734494 35.933594 24.433594 C 35.933594 24.433594 36.419428 24.294349 36.765625 24.734375 C 36.765625 24.734375 37.851386 25.359591 37.181641 25.822266 C 37.181641 25.822266 36.605587 25.960307 36.304688 25.429688 C 36.304687 25.429688 35.935547 25.361408 35.935547 25.267578 C 35.935547 25.267578 35.66073 25.015465 35.220703 25.523438 C 35.220703 25.523437 34.966168 25.940856 34.435547 25.316406 C 34.435547 25.316406 33.999012 25.155182 34.691406 25.941406 C 34.691406 25.941406 35.026869 26.381864 35.269531 26.867188 C 35.269531 26.867187 35.683849 27.535866 35.939453 27.652344 C 35.939453 27.652344 36.307806 27.813584 36.285156 28.205078 C 36.285156 28.205078 37.580396 29.293599 36.564453 29.824219 C 36.564453 29.824219 35.189335 30.173299 35.490234 28.484375 C 35.490234 28.484375 35.256374 28.020577 34.806641 27.658203 C 34.806641 27.658203 33.881353 27.028075 33.535156 26.080078 C 33.535156 26.080078 32.959717 24.953675 32.011719 25.578125 C 32.011719 25.578125 31.546382 25.734649 31.251953 26.527344 C 31.251953 26.527344 31.406112 26.891709 31.169922 27.283203 C 31.169922 27.283203 31.384413 28.16418 30.044922 27.863281 C 30.044922 27.863281 28.985674 27.406231 30.160156 26.869141 C 30.160156 26.869141 30.139342 26.477846 30.462891 26.154297 C 30.462891 26.154297 30.506314 25.970409 30.367188 25.601562 C 30.367187 25.601563 30.093382 25.06183 30.138672 24.738281 C 30.138672 24.738281 30.306425 24.379201 29.84375 24.748047 C 29.84375 24.748047 28.404558 26.410727 26.417969 26.931641 C 26.417969 26.931641 25.680475 27.128332 25.703125 27.568359 C 25.703125 27.568359 25.657135 27.891846 26.443359 28.839844 C 26.443359 28.839844 27.624959 30.228532 27.832031 31.40625 C 27.832031 31.40625 27.970663 31.958197 28.177734 31.935547 C 28.177734 31.935547 29.426865 31.684286 29.818359 30.943359 C 29.818359 30.943359 30.002998 30.318359 30.28125 30.318359 C 30.28125 30.318359 30.257376 29.162739 31.574219 29.693359 C 31.574219 29.693359 32.420161 30.363498 31.177734 30.826172 C 31.177734 30.826172 30.698095 31.473822 30.513672 31.451172 C 30.513672 31.451172 29.772195 32.120599 29.888672 32.466797 C 29.888672 32.466797 30.954466 32.767244 31.601562 32.605469 C 31.601562 32.605469 32.247099 32.469875 32.732422 32.654297 C 32.732422 32.654297 33.290698 32.559956 34.306641 32.142578 C 34.306641 32.142578 34.700678 31.86549 35.046875 32.121094 C 35.046875 32.121094 35.949849 31.499228 36.480469 32.654297 C 36.480469 32.654297 36.80325 33.459478 35.392578 33.113281 C 35.392578 33.113281 34.840418 33.010277 34.400391 33.201172 C 34.400391 33.201172 32.363876 33.8589 31.179688 33.78125 C 31.179687 33.78125 30.917613 34.107303 31.179688 34.408203 C 31.179688 34.408203 31.533379 34.870383 32.203125 34.753906 C 32.203125 34.753906 32.732678 34.537247 32.988281 34.773438 C 32.988281 34.773437 34.88392 34.570823 33.890625 35.402344 C 33.890625 35.402344 33.17241 35.886048 32.619141 35.5625 C 32.619141 35.5625 32.319188 35.630524 32.134766 35.46875 C 32.134766 35.46875 31.882932 35.369692 31.582031 35.673828 C 31.582031 35.673828 31.142067 36.162388 30.310547 35.353516 C 30.310547 35.353516 29.917969 35.284821 29.917969 35.123047 C 29.917969 35.123047 29.364468 35.469818 28.277344 34.683594 C 28.277344 34.683594 26.731711 34.450423 26.615234 34.220703 C 26.615234 34.220703 26.730922 34.44981 26.591797 34.867188 C 26.591797 34.867187 26.246037 35.910395 25.275391 35.308594 C 25.275391 35.308594 25.015725 35.375495 24.498047 35.029297 C 24.498047 35.029297 23.563329 34.866852 23.378906 34.705078 C 23.378906 34.705078 23.055891 34.639007 22.826172 34.800781 C 22.826172 34.800781 23.602255 34.926035 22.861328 35.822266 C 22.861328 35.822266 22.204152 36.444052 21.625 35.703125 C 21.625 35.703125 21.253158 35.54072 21.023438 35.171875 C 21.023437 35.171875 19.684995 34.894355 19.060547 34.224609 C 19.060547 34.224609 18.436376 34.133721 18.251953 33.855469 C 18.251953 33.855469 16.705044 33.949737 14.669922 32.539062 C 14.669922 32.539062 10.048964 30.367942 8.6835938 28.355469 C 8.6835937 28.355469 8.2668294 27.825047 8.0371094 27.640625 C 8.0371094 27.640625 6.7647331 26.277742 8.2207031 25.167969 C 8.2207031 25.167969 8.9847287 24.704919 10.324219 25.212891 C 10.324219 25.212891 9.8851049 24.518072 10.046875 24.171875 C 10.046875 24.171875 9.5870156 23.223645 9.9785156 22.53125 C 9.9785156 22.53125 8.4517075 22.763575 7.8984375 22 C 7.8984375 22 7.0624831 21.11946 8.1269531 20.103516 C 8.1269531 20.103516 9.677458 19.179631 10.486328 18.208984 C 10.486328 18.208984 15.478231 13.515903 18.529297 12.707031 C 18.529297 12.707031 20.123973 12.430478 20.703125 12.132812 C 20.703125 12.132812 22.506115 11.463123 22.761719 13.103516 C 22.761719 13.103516 22.692689 13.658953 22.369141 13.888672 L 22.283203 14.242188 C 22.283203 14.242188 25.505993 13.600022 27.023438 14.308594 C 27.023438 14.308594 28.346785 14.567433 29.378906 14.308594 C 29.378906 14.308594 31.571139 13.568281 32.667969 13.341797 C 32.667969 13.341797 33.479778 13.24568 33.900391 12.537109 C 33.900391 12.537109 34.3443 12.007601 34.992188 11.941406 z M 22.994141 27.943359 C 22.922961 28.312205 22.554688 28.082031 22.554688 28.082031 C 22.253787 28.382931 22.068359 28.082031 22.068359 28.082031 C 21.906585 28.357047 21.539062 28.189453 21.539062 28.189453 C 21.354641 28.390054 21.052734 28.189453 21.052734 28.189453 C 20.79713 28.412708 20.474609 28.173828 20.474609 28.173828 C 20.083115 28.497376 19.642578 28.080078 19.642578 28.080078 L 20.869141 30.183594 L 21.125 29.904297 C 21.655619 29.418974 22.095703 29.720703 22.095703 29.720703 C 22.4419 30.484278 21.332031 30.853516 21.332031 30.853516 C 20.639644 31.94064 21.287109 32.125 21.287109 32.125 C 21.588009 32.147649 22.880859 32.654297 22.880859 32.654297 C 23.343534 32.654297 23.550781 32.884766 23.550781 32.884766 C 24.036105 32.745642 24.382812 32.90625 24.382812 32.90625 C 24.95873 33.485403 24.244141 33.876953 24.244141 33.876953 L 24.796875 33.994141 C 25.282198 33.994141 25.511719 34.111328 25.511719 34.111328 C 25.764087 33.978666 25.968004 33.96555 26.058594 33.96875 C 25.760929 33.920218 25.533909 33.485687 25.537109 33.492188 C 25.258852 33.46954 25.191406 33.169922 25.191406 33.169922 C 23.803382 32.729896 23.433594 29.863281 23.433594 29.863281 C 23.155341 29.678858 23.339844 28.914062 23.339844 28.914062 C 22.899816 28.635811 22.994141 27.943359 22.994141 27.943359 z "
     id="circle4" />
</svg>
