<?xml version="1.0" encoding="UTF-8"?>
<svg xmlns="http://www.w3.org/2000/svg" viewBox="0 0 48 48" version="1.1">
<path d="M24 2A22 22 0 002 24a22 22 0 0022 22 22 22 0 0022-22A22 22 0 0024 2zm-12.139 9.932h13.961v4.58h-4.308v6.674H16.17v-6.674H11.86zm17.059 4.486h6.601l-6.695 6.695 6.695 6.696H28.92l-6.695-6.696zM15.316 26.885h.536v.469h-.536zm-3.193.228h1.057c.405 0 .735.128.988.381.255.254.383.578.383.977v.486c0 .4-.128.727-.383.979-.253.251-.583.376-.988.376h-1.057zm.533.43v2.344h.524a.767.767 0 00.61-.26c.15-.174.226-.398.226-.67v-.49c0-.27-.076-.491-.227-.664-.15-.175-.353-.26-.61-.26zm4.946.348c.319 0 .562.099.726.297.164.196.246.459.246.789v.289h-1.47l-.004.01a.779.779 0 00.152.474c.097.122.243.184.437.184a1.2 1.2 0 00.377-.053c.107-.035.206-.087.297-.152l.172.35c-.09.078-.21.144-.36.198-.149.055-.32.082-.515.082-.347 0-.62-.11-.816-.328-.195-.22-.291-.503-.291-.851v-.088c0-.349.096-.636.29-.861a.95.95 0 01.759-.34zm-2.286.045h.536v2.377h-.536zm2.286.384a.41.41 0 00-.334.15.745.745 0 00-.157.393l.006.01h.93v-.04a.591.591 0 00-.11-.37c-.07-.095-.182-.143-.335-.143zm2.205 3.965h.533v1.358a.844.844 0 01.287-.258.79.79 0 01.379-.094c.252 0 .447.08.588.24.142.158.215.404.215.735v1.447h-.536V34.26c0-.186-.036-.321-.109-.405-.072-.084-.179-.126-.322-.126a.667.667 0 00-.297.062.53.53 0 00-.205.166v1.756h-.533zm5.539 0h.533v.469h-.533zm1.336 0h.53v1.961h.184l.643-.91h.627l-.816 1.094.906 1.283h-.621l-.725-1.04h-.197v1.04h-.531zm-14.82.229h2.495v.427h-.99v2.772h-.533V32.94h-.973zm3.808.777c.32 0 .562.1.726.297.165.196.247.46.247.789v.287h-1.471l-.004.012a.78.78 0 00.154.474c.097.122.241.182.436.182a1.07 1.07 0 00.674-.203l.173.35c-.09.079-.211.145-.36.199-.15.054-.322.082-.516.082-.348 0-.62-.11-.817-.328-.195-.22-.29-.503-.29-.852v-.088c0-.348.095-.636.29-.861a.95.95 0 01.758-.34zm2.572 0c.277 0 .501.085.674.252a.81.81 0 01.25.633l-.004.011h-.482c0-.13-.04-.24-.121-.332a.402.402 0 00-.317-.134c-.19 0-.328.072-.412.22a1.086 1.086 0 00-.125.545v.078c0 .222.041.405.123.551.084.145.223.217.416.217a.436.436 0 00.307-.113.376.376 0 00.129-.291h.482l.004.013a.716.716 0 01-.266.577.954.954 0 01-.656.242c-.343 0-.607-.114-.793-.34-.186-.227-.28-.511-.28-.856v-.078c0-.342.094-.626.28-.853.186-.227.45-.342.791-.342zm5.526 0c.247 0 .44.076.578.229.139.152.209.39.209.714v1.479h-.534v-1.475c0-.184-.037-.315-.109-.392-.072-.078-.18-.117-.324-.117a.63.63 0 00-.297.066.508.508 0 00-.2.178v1.74h-.534v-2.377h.488l.031.342a.84.84 0 01.291-.283.784.784 0 01.4-.104zm6.375 0c.319 0 .56.1.724.297.164.196.246.46.246.789v.287h-1.47l-.004.012a.78.78 0 00.154.474c.097.122.243.182.437.182a1.07 1.07 0 00.672-.203l.174.35c-.09.079-.212.145-.361.199-.15.054-.321.082-.516.082-.347 0-.618-.11-.814-.328-.195-.22-.293-.503-.293-.852v-.088c0-.348.098-.636.293-.861a.95.95 0 01.758-.34zm2.685 0a.43.43 0 01.09.01c.028.004.053.01.076.017l-.064.498-.229-.007c-.104 0-.19.02-.26.064a.442.442 0 00-.162.188v1.652h-.533v-2.377h.488l.036.344a.765.765 0 01.23-.285.547.547 0 01.328-.104zm-7.482.045h.533v2.377h-.533zm-9.676.385a.41.41 0 00-.334.15.744.744 0 00-.154.393l.004.01h.93v-.042a.59.59 0 00-.108-.369c-.07-.095-.184-.142-.338-.142zm14.473 0a.41.41 0 00-.334.15.745.745 0 00-.157.393l.004.01h.93v-.042a.59.59 0 00-.107-.369c-.07-.095-.183-.142-.336-.142z" fill="#fff"/>
</svg>