<?xml version="1.0" encoding="utf-8"?>
<!-- Generator: Adobe Illustrator 21.1.0, SVG Export Plug-In . SVG Version: 6.00 Build 0)  -->
<svg version="1.0" id="Layer_1" xmlns="http://www.w3.org/2000/svg" xmlns:xlink="http://www.w3.org/1999/xlink" x="0px" y="0px"
	 viewBox="0 0 48 48" style="enable-background:new 0 0 48 48;" xml:space="preserve">
<style type="text/css">
	.st0{fill:#FFFFFF;}
</style>
<g>
	<path class="st0" d="M30.3,12.9c0,1.3,0,2.5,0,3.8c0,0.7-0.2,1-1,1c-3.3,0-2.8,0.4-2.8-2.6c0-2,0-3.9,0-5.9c0-0.8,0.3-1.2,1.1-1.1
		c3.2,0.1,2.6-0.3,2.7,2.6C30.3,11.4,30.3,12.1,30.3,12.9z"/>
	<path class="st0" d="M35.7,6c-1.7,0-2.1,0.7-2.1,2.4c0,2.9,0,5.8,0,8.8c0,1.5-0.4,2-1.8,2c-4.8,0-9.6,0-14.4,0
		c-1.4,0-1.9-0.5-1.9-2c0-3.3,0-6.5,0-9.8c0-1.1-0.3-1.5-1.4-1.5C12,6,10,6,8,6C6.1,6,5.9,6.2,5.9,8.1c0,5.2,0,10.5,0,15.7
		c0,3.7,0,7.4,0,11.1c0,1.8,0,3.6,0,5.5c0,1,0.5,1.4,1.5,1.5c1.6,0,3.2,0.2,4.8,0.2c9.4-0.1,18.7-0.1,28.1-0.2
		c1.4,0,1.8-0.3,1.8-1.8c0-10,0-19.9,0-29.9c0-0.4,0-1.6,0-1.9C42.1,5.8,41.5,5.9,35.7,6z M35.8,40.3c-3.9,0-7.9,0-11.8,0
		s-7.9,0-11.8,0c-0.9,0-1.3-0.3-1.3-1.2c0-5,0-10,0-15c0-1.6,0.6-2.1,2.2-2.1c7.3,0,14.6,0,21.9,0c1.5,0,2.1,0.6,2.2,2.2
		c0,5,0,10,0,15C37.1,40.1,36.7,40.3,35.8,40.3z"/>
	<path class="st0" d="M23.8,36.7c-3.4,0-6.8,0-10.1,0c-0.4,0-0.7-0.2-1.1-0.4c0.4-0.2,0.7-0.5,1.1-0.5c6.8,0,13.6,0,20.4,0
		c0.2,0,0.5,0,0.7,0.1c0.2,0.1,0.3,0.3,0.5,0.4c-0.2,0.1-0.3,0.4-0.5,0.4c-0.3,0.1-0.6,0-0.9,0C30.5,36.7,27.1,36.7,23.8,36.7z"/>
	<path class="st0" d="M23.9,31.8c-3.3,0-6.7,0-10,0c-0.3,0-0.6,0-0.9,0c-0.2,0-0.4-0.3-0.4-0.3c0.1-0.2,0.2-0.4,0.4-0.5
		c0.3-0.1,0.6-0.1,0.9-0.1c6.6,0,13.3,0,19.9,0c0,0,0.1,0,0.1,0c0.4,0.1,0.8,0.3,1.3,0.5c-0.4,0.1-0.8,0.4-1.2,0.4
		C30.6,31.8,27.2,31.8,23.9,31.8z"/>
	<path class="st0" d="M23.9,26.9c-3.3,0-6.7,0-10,0c-0.3,0-0.6,0-0.9,0c-0.2,0-0.4-0.3-0.4-0.3c0.1-0.2,0.2-0.4,0.4-0.5
		c0.3-0.1,0.6-0.1,0.9-0.1c6.6,0,13.3,0,19.9,0c0.1,0,0.2,0,0.2,0c0.4,0.1,0.8,0.3,1.1,0.4c-0.4,0.1-0.8,0.4-1.1,0.4
		C30.7,26.9,27.3,26.9,23.9,26.9z"/>
</g>
</svg>
