<?xml version="1.0" encoding="UTF-8" standalone="no"?>
<svg
   xmlns:dc="http://purl.org/dc/elements/1.1/"
   xmlns:cc="http://creativecommons.org/ns#"
   xmlns:rdf="http://www.w3.org/1999/02/22-rdf-syntax-ns#"
   xmlns:svg="http://www.w3.org/2000/svg"
   xmlns="http://www.w3.org/2000/svg"
   xmlns:sodipodi="http://sodipodi.sourceforge.net/DTD/sodipodi-0.dtd"
   xmlns:inkscape="http://www.inkscape.org/namespaces/inkscape"
   width="48"
   height="48"
   viewBox="0 0 48 48"
   version="1.1"
   id="svg1807"
   sodipodi:docname="towerjumper.svg"
   inkscape:version="0.92.4 5da689c313, 2019-01-14">
  <metadata
     id="metadata1813">
    <rdf:RDF>
      <cc:Work
         rdf:about="">
        <dc:format>image/svg+xml</dc:format>
        <dc:type
           rdf:resource="http://purl.org/dc/dcmitype/StillImage" />
        <dc:title></dc:title>
      </cc:Work>
    </rdf:RDF>
  </metadata>
  <defs
     id="defs1811" />
  <sodipodi:namedview
     pagecolor="#ffffff"
     bordercolor="#666666"
     borderopacity="1"
     objecttolerance="10"
     gridtolerance="10"
     guidetolerance="10"
     inkscape:pageopacity="0"
     inkscape:pageshadow="2"
     id="namedview1809"
     showgrid="false"
     inkscape:zoom="4"
     inkscape:cx="78.13583"
     inkscape:cy="52.896952"
     inkscape:window-x="0"
     inkscape:window-y="44"
     inkscape:window-maximized="1"
     inkscape:current-layer="svg1807"
     inkscape:snap-grids="false">
    <inkscape:grid
       type="xygrid"
       id="grid864" />
  </sodipodi:namedview>
  <path
     style="fill:#ffffff"
     d="M 7 5 C 5.892 5 5 5.892 5 7 L 5 41 C 5 42.108 5.892 43 7 43 L 41 43 C 42.108 43 43 42.108 43 41 L 43 7 C 43 5.892 42.108 5 41 5 L 7 5 z M 22.796875 6.421875 C 23.17609 6.4487425 23.696103 6.7975796 24.123047 7.3476562 L 26.314453 10.171875 C 26.883712 10.905311 27.065667 11.710771 26.720703 11.978516 C 26.37574 12.24626 25.639571 11.870154 25.070312 11.136719 L 22.878906 8.3144531 C 22.309647 7.5810174 22.127693 6.7736041 22.472656 6.5058594 C 22.558897 6.4389232 22.67047 6.4129192 22.796875 6.421875 z M 18.064453 7.5546875 C 18.443668 7.581555 18.965634 7.9303916 19.392578 8.4804688 L 21.560547 11.273438 C 22.129806 12.006873 22.309807 12.814287 21.964844 13.082031 C 21.61988 13.349776 20.883712 12.97367 20.314453 12.240234 L 18.146484 9.4472656 C 17.577225 8.7138299 17.397224 7.9083697 17.742188 7.640625 C 17.828428 7.5736888 17.938048 7.5457317 18.064453 7.5546875 z M 22.1875 9.2519531 C 22.566715 9.2788206 23.088681 9.6276584 23.515625 10.177734 L 25.835938 13.167969 C 26.405196 13.901404 26.585198 14.708818 26.240234 14.976562 C 25.895271 15.244307 25.159103 14.868201 24.589844 14.134766 L 22.269531 11.144531 C 21.700272 10.411096 21.520271 9.6056353 21.865234 9.3378906 C 21.951475 9.2709545 22.061095 9.2429973 22.1875 9.2519531 z M 27.863281 13.115234 C 28.23325 13.130189 28.731242 13.449411 29.132812 13.966797 C 29.66824 14.656645 29.821526 15.427568 29.476562 15.695312 C 29.131599 15.963057 28.4241 15.623441 27.888672 14.933594 C 27.353244 14.243746 27.199958 13.472823 27.544922 13.205078 C 27.631163 13.138142 27.739958 13.110249 27.863281 13.115234 z M 22.792969 13.632812 C 23.172184 13.659683 23.69415 14.008517 24.121094 14.558594 L 26.3125 17.382812 C 26.881759 18.116248 27.06176 18.921708 26.716797 19.189453 C 26.371833 19.457198 25.635665 19.083045 25.066406 18.349609 L 22.875 15.525391 C 22.305741 14.791955 22.12574 13.986495 22.470703 13.71875 C 22.556944 13.651814 22.666564 13.62386 22.792969 13.632812 z M 31.363281 17.474609 C 32.437053 17.531634 33.48115 18.037464 34.193359 18.955078 C 35.495687 20.633003 35.191595 23.043377 33.513672 24.345703 C 31.835748 25.64803 29.427327 25.343939 28.125 23.666016 C 26.822673 21.988093 27.12481 19.579671 28.802734 18.277344 C 29.431956 17.788971 30.164414 17.527678 30.902344 17.478516 C 31.056079 17.468273 31.209885 17.466463 31.363281 17.474609 z M 23.773438 19.839844 L 24 19.839844 L 24.226562 19.839844 L 24.226562 19.845703 C 25.201459 19.853868 26.150856 19.916106 27.068359 20.023438 C 26.661339 21.321434 26.869631 22.79091 27.765625 23.945312 C 28.127265 24.411251 28.566433 24.782552 29.050781 25.054688 L 24.916016 27.240234 L 37.751953 27.240234 C 37.660151 25.73964 36.66265 24.3373 35.003906 23.183594 C 35.071596 23.043861 35.137537 22.903195 35.189453 22.757812 C 36.986308 23.984271 38.11234 25.528378 38.205078 27.240234 L 37.773438 27.240234 L 37.773438 27.466797 C 37.773438 29.394483 36.284337 31.183033 33.792969 32.5 L 33.396484 32.691406 L 33.671875 33.060547 L 34.005859 32.900391 C 36.581493 31.53888 38.226563 29.626329 38.226562 27.466797 L 38.226562 27.693359 L 38.226562 32.550781 C 38.226563 34.653044 36.659966 36.517446 34.201172 37.871094 L 34.205078 37.878906 L 34.005859 37.984375 C 31.480761 39.319173 28.034136 40.139987 24.226562 40.171875 L 23.773438 40.173828 C 20.064324 40.142762 16.704961 39.35648 14.199219 38.082031 L 14.195312 38.089844 L 13.994141 37.984375 L 13.873047 37.919922 L 13.873047 37.914062 C 11.370074 36.557246 9.7734375 34.674796 9.7734375 32.550781 L 9.7734375 27.693359 L 9.7734375 27.466797 L 9.7734375 27.240234 L 9.7949219 27.240234 C 9.9037432 25.231484 11.430475 23.450868 13.798828 22.146484 L 13.794922 22.140625 C 13.895247 22.084265 13.998051 22.03255 14.099609 21.978516 L 14.103516 21.980469 C 16.618662 20.678056 20.018498 19.87715 23.773438 19.845703 L 23.773438 19.839844 z M 33.671875 33.060547 C 31.179796 34.297001 27.873461 35.057348 24.226562 35.087891 L 24.226562 39.71875 C 27.910024 39.68719 31.23967 38.897916 33.671875 37.642578 L 33.671875 33.060547 z M 24.226562 35.087891 L 24.224609 34.634766 C 20.391008 34.634766 16.598792 33.760327 14.107422 32.443359 L 13.873047 32.833984 C 16.448681 34.195496 20.328177 35.087891 24.226562 35.087891 z M 13.873047 32.833984 C 13.644531 32.687502 13.720703 32.736322 13.644531 32.6875 C 12.038697 31.772296 10.831704 30.639086 10.226562 29.357422 L 10.226562 32.550781 C 10.226567 34.387809 11.589711 36.094024 13.873047 37.390625 L 13.873047 32.833984 z M 14.107422 32.443359 L 23.089844 27.693359 L 10.248047 27.693359 C 10.359276 29.506764 11.776099 31.184541 14.107422 32.443359 z M 24.224609 34.634766 C 27.774021 34.604406 30.990095 33.868311 33.396484 32.691406 L 24.224609 27.841797 L 24.224609 34.634766 z M 23.773438 20.298828 C 20.224373 20.329308 17.009472 21.067274 14.603516 22.244141 L 23.773438 27.09375 L 23.773438 20.298828 z "
     id="rect1805" />
</svg>
