<?xml version="1.0" encoding="UTF-8" standalone="no"?>
<svg
   xmlns:dc="http://purl.org/dc/elements/1.1/"
   xmlns:cc="http://creativecommons.org/ns#"
   xmlns:rdf="http://www.w3.org/1999/02/22-rdf-syntax-ns#"
   xmlns:svg="http://www.w3.org/2000/svg"
   xmlns="http://www.w3.org/2000/svg"
   xmlns:sodipodi="http://sodipodi.sourceforge.net/DTD/sodipodi-0.dtd"
   xmlns:inkscape="http://www.inkscape.org/namespaces/inkscape"
   width="48"
   height="48"
   viewBox="0 0 48 48"
   version="1.1"
   id="svg994"
   sodipodi:docname="towercollector.svg"
   inkscape:version="0.92.4 5da689c313, 2019-01-14">
  <metadata
     id="metadata1000">
    <rdf:RDF>
      <cc:Work
         rdf:about="">
        <dc:format>image/svg+xml</dc:format>
        <dc:type
           rdf:resource="http://purl.org/dc/dcmitype/StillImage" />
        <dc:title></dc:title>
      </cc:Work>
    </rdf:RDF>
  </metadata>
  <defs
     id="defs998" />
  <sodipodi:namedview
     pagecolor="#ffffff"
     bordercolor="#666666"
     borderopacity="1"
     objecttolerance="10"
     gridtolerance="10"
     guidetolerance="10"
     inkscape:pageopacity="0"
     inkscape:pageshadow="2"
     inkscape:window-width="2160"
     inkscape:window-height="1360"
     id="namedview996"
     showgrid="true"
     inkscape:snap-global="true"
     inkscape:zoom="6.9532167"
     inkscape:cx="16.154005"
     inkscape:cy="-4.9452006"
     inkscape:window-x="0"
     inkscape:window-y="44"
     inkscape:window-maximized="1"
     inkscape:current-layer="svg994"
     inkscape:snap-bbox="true"
     inkscape:snap-bbox-midpoints="true"
     showguides="false"
     inkscape:snap-nodes="true"
     inkscape:snap-others="true"
     inkscape:snap-object-midpoints="true">
    <inkscape:grid
       type="xygrid"
       id="grid1548" />
  </sodipodi:namedview>
  <path
     style="fill:#ffffff;fill-opacity:1"
     d="M 24 2 A 22 22 0 0 0 2 24 A 22 22 0 0 0 24 46 A 22 22 0 0 0 46 24 A 22 22 0 0 0 24 2 z M 12.455078 12.859375 A 1.5668233 1.5668233 0 0 1 13.666016 15.451172 C 9.5102429 20.403826 9.5102429 27.596174 13.666016 32.548828 A 1.5672126 1.5672126 0 1 1 11.265625 34.564453 C 6.1458146 28.462901 6.1458146 19.537099 11.265625 13.435547 A 1.5668233 1.5668233 0 0 1 12.455078 12.859375 z M 35.498047 12.859375 A 1.5668233 1.5668233 0 0 1 36.732422 13.435547 C 41.852232 19.537099 41.852232 28.462901 36.732422 34.564453 A 1.5672126 1.5672126 0 1 1 34.332031 32.548828 C 38.487801 27.596174 38.487801 20.403826 34.332031 15.451172 A 1.5668233 1.5668233 0 0 1 35.498047 12.859375 z M 16.873047 16.566406 A 1.5668234 1.5668234 0 0 1 18.085938 19.158203 C 15.729297 21.966738 15.729297 26.033262 18.085938 28.841797 A 1.5668234 1.5668234 0 1 1 15.685547 30.855469 C 12.364866 26.898036 12.364866 21.101964 15.685547 17.144531 A 1.5668234 1.5668234 0 0 1 16.873047 16.566406 z M 31.078125 16.566406 A 1.5668234 1.5668234 0 0 1 32.314453 17.144531 C 35.635134 21.101964 35.635134 26.898036 32.314453 30.855469 A 1.5668234 1.5668234 0 1 1 29.914062 28.841797 C 32.270705 26.033262 32.270705 21.966738 29.914062 19.158203 A 1.5668234 1.5668234 0 0 1 31.078125 16.566406 z M 24 18.765625 C 26.872121 18.765625 29.234375 21.127879 29.234375 24 C 29.234375 26.183327 27.867607 28.069288 25.951172 28.849609 L 24 33.080078 L 22.048828 28.849609 C 20.132393 28.069288 18.765625 26.183327 18.765625 24 C 18.765625 21.127879 21.127879 18.765625 24 18.765625 z M 24 21.898438 C 22.821258 21.898438 21.898438 22.821258 21.898438 24 C 21.898438 25.178742 22.821258 26.101562 24 26.101562 C 25.178742 26.101562 26.101562 25.178742 26.101562 24 C 26.101562 22.821258 25.178742 21.898438 24 21.898438 z "
     id="circle992" />
  <path
     style="fill:none;stroke:#ffffff;stroke-width:60;stroke-linecap:butt;stroke-linejoin:miter;stroke-miterlimit:4;stroke-dasharray:none;stroke-opacity:1"
     d="M -937.37166,46.921649 -625.18235,165.33827"
     id="path1571"
     inkscape:connector-curvature="0"
     sodipodi:nodetypes="cc" />
  <g
     id="g852"
     transform="translate(-0.16929688)" />
  <g
     id="g860" />
  <g
     id="g856"
     transform="translate(-0.16929877)" />
</svg>
