<?xml version="1.0" encoding="UTF-8"?>
<svg version="1.1" viewBox="0 0 48 48" xmlns="http://www.w3.org/2000/svg">
    <defs>
        <style>.a{fill:#3396cd;}.b{fill:#fff;}</style>
    </defs>
    <path d="m18.025 9.0916-8.1426 6.5141h3.7999v1.6011c2.9178-0.13851 6.1091-0.1086 8.6855-0.04559v-1.5555h3.7999l-4.0713-3.257z" fill="#fff"/>
    <path d="m22.368 28.3c-2.8925 0.14638-5.7942 0.15722-8.6855 0.01484v8.1715h-3.7999l8.1426 6.5141 8.1426-6.5141h-3.7999z" fill="#fff"/>
    <rect x="5.2684" y="19.621" width="25.514" height="5.9713" rx="10.631" ry="1.3571" fill="#fff"/>
    <path d="m32.629 14.273c0.23486-0.9212 1.5745-1.1541 2.0972-0.3489 3.4612 3.3644 4.7454 8.7681 3.1325 13.324-0.64912 1.8775-1.686 3.6723-3.1794 4.999-0.65026 0.4187-1.7626 0.37366-2.0812-0.43743-0.17629-0.92302 0.83747-1.3836 1.2703-2.05 2.6777-3.2515 3.0935-8.1471 1.0116-11.808-0.55422-1.0324-1.331-1.9216-2.1416-2.7551-0.17026-0.27074-0.21811-0.61994-0.10939-0.92275z" fill="#fff"/>
    <path d="m35.885 11.066c-0.10296-1.3084 1.8757-1.6424 2.3821-0.51277 4.6038 4.568 6.2244 11.834 4.0419 17.936-0.88228 2.5019-2.2876 4.8834-4.2816 6.6525-1.1797 0.76772-2.3825-0.83365-1.3568-1.7897 0.82107-0.93965 1.6402-1.8896 2.2524-2.9861 2.8327-4.8267 2.6892-11.247-0.46228-15.892-0.68726-1.0802-1.5929-1.9993-2.4461-2.9369-0.07659-0.14533-0.12153-0.30735-0.12966-0.47149z" fill="#fff"/>
</svg>
