<svg xmlns="http://www.w3.org/2000/svg" viewBox="0 0 48 48">
  <path
     d="M 30.474195,20.39214 H 25.14972 v -4.468757 h 5.324475 v -5.324475 h 5.226388 l 0.05055,5.276935 5.372015,0.0505 v 4.465795 h -5.419555 v 5.039235 H 30.474195 Z M 6.2288157,15.923383 H 22.202242 V 20.39214 H 6.2288157 Z m 4.9916963,-5.324475 v 0.16639 3.589267 h 5.657255 v -3.755657 z m 0.332779,0.332779 h 4.991696 v 3.090098 h -4.991696 z m -0.332779,11.362051 5.7e-4,4.088437 c 2.85e-4,2.831444 0.03698,4.61768 0.163976,5.881584 0.126995,1.263904 0.348682,2.012731 0.711799,2.732062 0.777222,1.539669 2.304549,2.466666 4.4513,2.735034 l 0.0019,1.9e-4 0.0085,0.0011 h 0.01022 c 1.783044,0.200733 4.216227,0.0092 6.088271,-0.589235 l 0.115693,-0.03714 v -4.750287 l -0.242714,0.125536 c -1.134353,0.586596 -2.666626,0.562676 -4.011369,0.424517 -0.850542,-0.260205 -1.337364,-0.867088 -1.540036,-1.963438 -0.02421,-0.130956 -0.05515,-0.667718 -0.07298,-1.448669 -0.01783,-0.78095 -0.02786,-1.827312 -0.02786,-3.057413 v -4.142291 z m 0.332779,0.33278 h 4.991696 v 3.809511 c 0,1.231878 0.0099,2.280097 0.02786,3.065027 0.01792,0.78493 0.03862,1.285568 0.07855,1.501594 0.217841,1.178413 0.813367,1.93469 1.782006,2.226208 l 0.01504,0.0046 0.0156,0.0017 c 1.2839,0.133153 2.765199,0.174137 3.975901,-0.35265 v 3.972186 c -1.803663,0.553995 -4.158455,0.739034 -5.850386,0.545967 -2.85e-4,-3.3e-5 -4.76e-4,-1.52e-4 -7.61e-4,-1.9e-4 -2.073163,-0.259343 -3.472126,-1.122466 -4.19503,-2.55453 -0.346228,-0.685876 -0.553126,-1.376339 -0.677629,-2.615441 -0.124505,-1.239101 -0.162026,-3.019797 -0.162305,-5.848343 z m 18.56324,4.606733 0.05218,2.763632 c 0.04092,2.163631 0.08269,2.75162 0.248841,3.458904 0.302934,1.289546 0.845596,2.276715 1.684698,2.981461 0.839101,0.704746 1.963951,1.121932 3.413592,1.309577 l 0.0013,1.9e-4 h 0.0013 c 1.793,0.204653 4.203277,-0.0706 5.959766,-0.574936 l 0.120336,-0.03454 v -4.782042 l -0.242715,0.125536 c -0.812114,0.41996 -1.730715,0.504591 -2.702721,0.55488 -0.740156,0.0012 -1.277577,-0.09783 -1.680611,-0.313281 -0.403306,-0.215595 -0.686186,-0.547498 -0.920158,-1.061107 -0.09407,-0.206499 -0.140485,-0.341843 -0.175675,-0.655902 -0.03519,-0.31406 -0.05334,-0.799808 -0.07577,-1.656471 l -0.05385,-2.062046 z m 0.339093,0.336123 4.966998,0.04735 0.04568,1.741151 c 0.02246,0.85796 0.03968,1.346263 0.07762,1.684883 0.03794,0.33862 0.102329,0.534584 0.203531,0.75674 0.254241,0.558102 0.592476,0.963529 1.066121,1.216726 0.473645,0.253196 1.068778,0.354027 1.839388,0.35265 h 0.0043 l 0.0041,-1.91e-4 c 0.894741,-0.04613 1.779794,-0.132811 2.602442,-0.492484 v 4.003942 c -1.700407,0.470589 -4.021381,0.728893 -5.709252,0.53631 h -3.81e-4 C 34.148227,37.233894 33.09219,36.83422 32.316174,36.182459 31.539688,35.530302 31.032872,34.620529 30.741413,33.37983 30.581705,32.699979 30.54235,32.151138 30.501485,29.990565 Z"
     style="fill:#ffffff" />
</svg>
