<svg width="48" height="48" version="1.1" viewBox="0 0 48 48" xmlns="http://www.w3.org/2000/svg">
 <path d="m7 5c-1.108 0-2 0.892-2 2v34c0 1.108 0.892 2 2 2h34c1.108 0 2-0.892 2-2v-34c0-1.108-0.892-2-2-2h-34zm14.85 3.7227h4.3008v2.1992h2.2148v2.166h4.3652v2.1816h2.1816v4.3652h2.1836v2.1836h-4.3652v2.1816h6.5469v4.3652h-4.3652v2.1621h-2.1816v-2.1621h-2.1836v4.3652h-13.094v-4.3652h-2.1836v2.1621h-2.1816v-2.1621h-4.3652v-4.3652h6.5469v-2.1816h-4.3652v-2.1836h2.1836v-4.3652h2.1816v-2.1816h4.3652v-2.166h2.2148v-2.1992zm-2.2148 4.3652v2.1816h8.7305v-2.1816h-8.7305zm8.7305 2.1816v2.1836h2.1816v-2.1836h-2.1816zm2.1816 2.1836v4.3652h2.1836v-4.3652h-2.1836zm0 4.3652h-2.1816v2.1816h2.1816v-2.1816zm-2.1816 2.1816h-8.7305v2.1816h8.7305v-2.1816zm0 2.1816v2.1836h2.1816v-2.1836h-2.1816zm-8.7305 0h-2.1816v2.1836h2.1816v-2.1836zm0-2.1816v-2.1816h-2.1816v2.1816h2.1816zm-2.1816-2.1816v-4.3652h-2.1836v4.3652h2.1836zm0-4.3652h2.1816v-2.1836h-2.1816v2.1836zm-10.914 13.094h4.3652v2.1836h4.3652v2.1816h2.1836 13.094 2.1836v-2.1816h4.3652v-2.1836h2.1797 2.1855v2.1719h-2.1855v2.1797h-2.1797v2.1973h-4.3652-2.1836v2.1816h-13.094v-2.1816h-2.1836-4.3652v-2.1836h-2.2148v-2.1816h-2.1504v-2.1836z" fill="#fff"/>
</svg>
