<?xml version="1.0" encoding="UTF-8" standalone="no"?>
<svg
   xmlns:dc="http://purl.org/dc/elements/1.1/"
   xmlns:cc="http://creativecommons.org/ns#"
   xmlns:rdf="http://www.w3.org/1999/02/22-rdf-syntax-ns#"
   xmlns:svg="http://www.w3.org/2000/svg"
   xmlns="http://www.w3.org/2000/svg"
   xmlns:xlink="http://www.w3.org/1999/xlink"
   xmlns:sodipodi="http://sodipodi.sourceforge.net/DTD/sodipodi-0.dtd"
   xmlns:inkscape="http://www.inkscape.org/namespaces/inkscape"
   width="48"
   height="48"
   viewBox="0 0 48 48"
   version="1.1"
   id="svg4"
   sodipodi:docname="tusky.svg"
   inkscape:export-filename="/home/tim/Git_repos/frost/other/tusky.svg.png"
   inkscape:export-xdpi="1024"
   inkscape:export-ydpi="1024"
   inkscape:version="0.92.3 (2405546, 2018-03-11)">
  <metadata
     id="metadata10">
    <rdf:RDF>
      <cc:Work
         rdf:about="">
        <dc:format>image/svg+xml</dc:format>
        <dc:type
           rdf:resource="http://purl.org/dc/dcmitype/StillImage" />
        <dc:title></dc:title>
      </cc:Work>
    </rdf:RDF>
  </metadata>
  <defs
     id="defs8">
    <linearGradient
       id="c">
      <stop
         offset="0"
         id="stop2" />
      <stop
         stop-opacity="0"
         offset="1"
         id="stop4" />
    </linearGradient>
    <clipPath
       id="g">
      <circle
         cx="125"
         cy="125"
         r="112.52"
         fill="#2588d0"
         id="circle7" />
    </clipPath>
    <clipPath
       id="e">
      <g
         transform="matrix(.26458 0 0 .26458 7.7244 -29.561)"
         clip-path="url(#g)"
         fill="url(#a)"
         opacity=".05"
         id="g132">
        <g
           stroke-width=".5"
           id="g128">
          <path
             d="m98.535 73.473c-1.8371-0.09054-2.2298 0.10241-1.635 0.69722l70.711 70.711c-0.59481-0.59481-0.2021-0.78775 1.635-0.69722z"
             fill="url(#a)"
             id="path10" />
          <path
             d="m96.9 74.17c0.70818 0.70818 2.8162 1.986 5.553 4.0332l70.711 70.711c-2.7368-2.0472-4.8448-3.3251-5.553-4.0332z"
             fill="url(#a)"
             id="path12" />
          <path
             d="m102.45 78.203c2.4807 1.8557 4.9237 4.0232 7.1498 6.2492l70.711 70.711c-2.226-2.226-4.6691-4.3935-7.1498-6.2492z"
             fill="url(#a)"
             id="path14" />
          <path
             d="m109.6 84.452c3.2825 3.2825 6.093 6.6922 7.8561 9.4168l70.711 70.711c-1.7631-2.7246-4.5736-6.1343-7.8561-9.4168z"
             fill="url(#a)"
             id="path16" />
          <path
             d="m117.46 93.869c2.9912 4.6225 5.6692 8.3037 12.262 28.254l70.711 70.711c-6.5925-19.95-9.2705-23.631-12.262-28.254z"
             fill="url(#a)"
             id="path18" />
          <path
             d="m129.72 122.12c2.4794 7.5032 5.7538 14.14 6.6211 16.113l70.711 70.711c-0.86733-1.9736-4.1417-8.6101-6.6211-16.113z"
             fill="url(#a)"
             id="path20" />
          <path
             d="m136.34 138.24 1.3476 3.0059 70.711 70.711-1.3476-3.0059z"
             fill="url(#a)"
             id="path22" />
          <path
             d="m137.69 141.24c-0.0653 0.0814-0.11927 0.14322-0.18554 0.22656l70.711 70.711c0.0663-0.0833 0.12024-0.14516 0.18554-0.22656z"
             fill="url(#a)"
             id="path24" />
          <path
             d="m137.5 141.47-3.4395 3.0098 70.711 70.711 3.4395-3.0098z"
             fill="url(#a)"
             id="path26" />
          <path
             d="m134.06 144.48c-5.5481 5.7637-16.033 11.691-24.285 13.729l70.711 70.711c8.2524-2.0372 18.737-7.9648 24.285-13.729z"
             fill="url(#a)"
             id="path28" />
          <path
             d="m109.78 158.21c-6.3614 1.5706-21.301 1.1651-27.809 0.0137l70.711 70.711c6.5077 1.1514 21.447 1.5569 27.809-0.0137z"
             fill="url(#a)"
             id="path30" />
          <path
             d="m81.971 158.22c-7.8527-1.3894-14.205-5.074-19.134-10.002l70.711 70.711c4.9282 4.9282 11.281 8.6128 19.134 10.002z"
             fill="url(#a)"
             id="path32" />
          <path
             d="m62.837 148.22c-6.1069-6.1069-10.026-14.123-11.902-22.049l70.711 70.711c1.8752 7.9251 5.7946 15.942 11.902 22.049z"
             fill="url(#a)"
             id="path34" />
          <path
             d="m50.936 126.17c-1.5987-9.5426 0.52116-16.959 1.6895-21.707l70.711 70.711c-1.1683 4.7477-3.2882 12.164-1.6894 21.707z"
             fill="url(#a)"
             id="path36" />
          <path
             d="m52.625 104.46c2.6637-10.825 9.7356-20.465 18.479-26.402l70.711 70.711c-8.7429 5.9372-15.815 15.578-18.479 26.402z"
             fill="url(#a)"
             id="path38" />
          <path
             d="m71.104 78.061c3.0009-2.0378 4.6792-2.7066 4.4597-2.9261l70.711 70.711c0.21947 0.21947-1.4588 0.88834-4.4597 2.9261z"
             fill="url(#a)"
             id="path40" />
          <path
             d="m75.563 75.134c-0.11026-0.11026-0.69947-0.10709-1.8406-0.10709l70.711 70.711c1.1411 0 1.7303-3e-3 1.8406 0.10709z"
             fill="url(#a)"
             id="path42" />
          <path
             d="m73.723 75.027c-3.9668 0-10.077 2.6389-14.275 6.0215l70.711 70.711c4.1987-3.3826 10.309-6.0215 14.275-6.0215z"
             fill="url(#a)"
             id="path44" />
          <path
             d="m59.447 81.049c-8.0199 6.461-14.768 15.598-18.961 26.336l70.711 70.711c4.1931-10.738 10.941-19.875 18.961-26.336z"
             fill="url(#a)"
             id="path46" />
          <path
             d="m40.486 107.38c-2.2433 6.6848-2.2747 5.5109-2.418 15.162l70.711 70.711c0.14324-9.6512 0.17463-8.4773 2.418-15.162z"
             fill="url(#a)"
             id="path48" />
          <path
             d="m38.068 122.55c0.37633 6.9829 1.0389 9.3071 3.0723 15.406l70.711 70.711c-2.0333-6.0991-2.6959-8.4234-3.0723-15.406z"
             fill="url(#a)"
             id="path50" />
          <path
             d="m41.141 137.95c2.3472 7.0404 6.2768 13.161 11.343 18.227l70.711 70.711c-5.0663-5.0663-8.9959-11.187-11.343-18.227z"
             fill="url(#a)"
             id="path52" />
          <path
             d="m52.484 156.18c2.9744 2.9744 6.3406 5.5855 10.008 7.806l70.711 70.711c-3.6678-2.2205-7.034-4.8316-10.008-7.806z"
             fill="url(#a)"
             id="path54" />
          <path
             d="m62.492 163.99c4.9985 3.0261 15.324 6.7023 22.098 7.8027l70.711 70.711c-6.7734-1.1005-17.099-4.7766-22.098-7.8027z"
             fill="url(#a)"
             id="path56" />
          <path
             d="m84.59 171.79c1.8904 0.30967 4.992 0.90865 7.8848 1.1875l70.711 70.711c-2.8928-0.27885-5.9944-0.87783-7.8848-1.1875z"
             fill="url(#a)"
             id="path58" />
          <path
             d="m92.475 172.98c12.195 0.94625 15.055-0.32666 24.506-1.8418l70.711 70.711c-9.4508 1.5151-12.311 2.788-24.506 1.8418z"
             fill="url(#a)"
             id="path60" />
          <path
             d="m116.98 171.13c8.5906-2.4983 16.678-7.275 22.934-12.367l70.711 70.711c-6.2561 5.0922-14.343 9.8689-22.934 12.367z"
             fill="url(#a)"
             id="path62" />
          <path
             d="m139.91 158.77 5.7871-4.7168 70.711 70.711-5.7871 4.7168z"
             fill="url(#a)"
             id="path64" />
          <path
             d="m145.7 154.05c0.0891 0.11275 0.1968 0.26762 0.28321 0.375l70.711 70.711c-0.0864-0.10738-0.19411-0.26225-0.28321-0.375z"
             fill="url(#a)"
             id="path66" />
          <path
             d="m145.98 154.43 1.9648 2.0644 70.711 70.711-1.9648-2.0644z"
             fill="url(#a)"
             id="path68" />
          <path
             d="m147.95 156.49c0.29948 0.31455 0.59902 0.62179 0.89884 0.92161l70.711 70.711c-0.29982-0.29982-0.59936-0.60705-0.89884-0.9216z"
             fill="url(#a)"
             id="path70" />
          <path
             d="m148.85 157.41c5.8411 5.8411 11.787 8.8672 19.377 8.303l70.711 70.711c-7.5898 0.56423-13.535-2.4619-19.377-8.303z"
             fill="url(#a)"
             id="path72" />
          <path
             d="m168.22 165.71c7.5551-0.56163 13.041-2.6761 17.49-6.7422l70.711 70.711c-4.4488 4.066-9.9351 6.1806-17.49 6.7422z"
             fill="url(#a)"
             id="path74" />
          <path
             d="m185.71 158.97c4.5132-4.1248 5.5354-6.236 7.6699-12.512l70.711 70.711c-2.1345 6.2758-3.1567 8.3869-7.6699 12.512z"
             fill="url(#a)"
             id="path76" />
          <path
             d="m193.38 146.46c2.9552-8.6889 4.3184-16.193 3.9922-29.721l70.711 70.711c0.32618 13.527-1.0369 21.032-3.9922 29.721z"
             fill="url(#a)"
             id="path78" />
          <path
             d="m197.38 116.74c-0.33294-13.818-1.6567-19.14-5.4434-23.453l70.711 70.711c3.7867 4.3128 5.1104 9.6355 5.4434 23.453z"
             fill="url(#a)"
             id="path80" />
          <path
             d="m191.93 93.287c-0.0959-0.10288-0.19218-0.20269-0.28888-0.2994l70.711 70.711c0.0967 0.0967 0.19301 0.19652 0.28888 0.2994z"
             fill="url(#a)"
             id="path82" />
          <path
             d="m191.64 92.988c-3.0781-3.0781-6.553-3.0044-8.5724 1.8287l70.711 70.711c2.0194-4.8331 5.4943-4.9068 8.5724-1.8287z"
             fill="url(#a)"
             id="path84" />
          <path
             d="m183.07 94.816c-0.79737 1.9089-0.78178 2.91 0.11132 6.918l70.711 70.711c-0.8931-4.008-0.90869-5.0091-0.11132-6.918z"
             fill="url(#a)"
             id="path86" />
          <path
             d="m183.18 101.73c1.6289 7.3102 1.7837 25.828 0.45313 32.072l70.711 70.711c1.3306-6.2445 1.1758-24.762-0.45313-32.072z"
             fill="url(#a)"
             id="path88" />
          <path
             d="m183.64 133.81c-2.7904 13.095-11.463 17.859-22.207 12.49l70.711 70.711c10.744 5.3688 19.417 0.60451 22.207-12.49z"
             fill="url(#a)"
             id="path90" />
          <path
             d="m161.43 146.3c-2.4274-1.213-3.8861-1.9048-5.748-3.5762l70.711 70.711c1.862 1.6714 3.3206 2.3632 5.748 3.5762z"
             fill="url(#a)"
             id="path92" />
          <path
             d="m155.68 142.72c-0.18578-0.19582-0.32768-0.35348-0.50391-0.54101l70.711 70.711c0.17623 0.18753 0.31813 0.34519 0.50391 0.54101z"
             fill="url(#a)"
             id="path94" />
          <path
             d="m155.18 142.18c1.047-1.7899 1.5781-3.0116 2.7754-4.9883l70.711 70.711c-1.1973 1.9767-1.7284 3.1984-2.7754 4.9883z"
             fill="url(#a)"
             id="path96" />
          <path
             d="m157.95 137.19c4.9715-8.2077 9.7196-21.436 11.604-32.795l70.711 70.711c-1.8839 11.359-6.632 24.587-11.604 32.795z"
             fill="url(#a)"
             id="path98" />
          <path
             d="m169.56 104.4c1.1273-6.797 0.81713-9.1729-0.83126-10.821l70.711 70.711c1.6484 1.6484 1.9586 4.0243 0.83126 10.821z"
             fill="url(#a)"
             id="path100" />
          <path
             d="m168.73 93.575c-0.32731-0.32731-0.70738-0.62594-1.1394-0.92479l70.711 70.711c0.43206 0.29886 0.81213 0.59748 1.1394 0.92479z"
             fill="url(#a)"
             id="path102" />
          <path
             d="m167.59 92.65c-2.0094-0.98322-2.8331-1.0491-4.9531-0.39844l70.711 70.711c2.12-0.65064 2.9438-0.58478 4.9531 0.39844z"
             fill="url(#a)"
             id="path104" />
          <path
             d="m162.63 92.252c-1.3988 0.42933-3.0221 1.3082-3.6055 1.9531l70.711 70.711c0.58337-0.64492 2.2067-1.5238 3.6055-1.9531z"
             fill="url(#a)"
             id="path106" />
          <path
             d="m159.03 94.205c-0.58363 0.64492-1.9734 4.6467-3.0879 8.8945l70.711 70.711c1.1145-4.2479 2.5043-8.2496 3.0879-8.8945z"
             fill="url(#a)"
             id="path108" />
          <path
             d="m155.94 103.1c-1.1144 4.2479-2.7555 9.2858-3.6465 11.193l70.711 70.711c0.89102-1.9076 2.532-6.9455 3.6465-11.193z"
             fill="url(#a)"
             id="path110" />
          <path
             d="m152.29 114.29c-0.89099 1.9076-1.8493 4.2376-2.1309 5.1777l70.711 70.711c0.28157-0.94013 1.2399-3.2702 2.1309-5.1777z"
             fill="url(#a)"
             id="path112" />
          <path
             d="m150.16 119.47c-0.28161 0.94013-1.2853 3.2472-2.2305 5.127l70.711 70.711c0.94515-1.8798 1.9489-4.1868 2.2305-5.127z"
             fill="url(#a)"
             id="path114" />
          <path
             d="m147.93 124.6-2 4.0059 70.711 70.711 2-4.0059z"
             fill="url(#a)"
             id="path116" />
          <path
             d="m145.93 128.6-1.1016-2.5469 70.711 70.711 1.1016 2.5469z"
             fill="url(#a)"
             id="path118" />
          <path
             d="m144.83 126.06c-0.50786-1.1277-2.6738-6.8816-5.1504-12.898l70.711 70.711c2.4766 6.0168 4.6425 11.771 5.1504 12.898z"
             fill="url(#a)"
             id="path120" />
          <path
             d="m139.68 113.16c-5.7036-13.857-11.141-23.408-17.401-29.668l70.711 70.711c6.2598 6.2598 11.697 15.811 17.401 29.668z"
             fill="url(#a)"
             id="path122" />
          <path
             d="m122.28 83.49c-6.0835-6.0835-12.944-9.058-21.58-9.8534l70.711 70.711c8.6358 0.79538 15.496 3.7699 21.58 9.8534z"
             fill="url(#a)"
             id="path124" />
          <path
             d="m100.7 73.637c-0.8718-0.08029-1.5892-0.13573-2.1641-0.16406l70.711 70.711c0.57491 0.0283 1.2923 0.0838 2.1641 0.16407z"
             fill="url(#a)"
             id="path126" />
        </g>
        <path
           d="m98.535 73.473c-4.0243-0.19833-1.1175 0.96369 3.918 4.7305 6.1387 4.592 12.047 11.094 15.006 15.666 2.9912 4.6225 5.6692 8.3037 12.262 28.254 2.4794 7.5032 5.7538 14.14 6.6211 16.113l1.3476 3.0059c-0.0653 0.0814-0.11927 0.14322-0.18554 0.22656l-3.4395 3.0098c-5.5481 5.7637-16.033 11.691-24.285 13.729-6.3614 1.5706-21.301 1.1651-27.809 0.0137-17.584-3.1111-27.647-17.73-31.035-32.051-1.5987-9.5426 0.52116-16.959 1.6895-21.707 2.6637-10.825 9.7356-20.465 18.479-26.402 4.5085-3.0615 6.0316-3.0332 2.6191-3.0332-3.9668 0-10.077 2.6389-14.275 6.0215-8.0199 6.461-14.768 15.598-18.961 26.336-2.2433 6.6848-2.2747 5.5109-2.418 15.162 0.37633 6.9829 1.0389 9.3071 3.0723 15.406 3.7252 11.174 11.436 20.03 21.352 26.033 4.9985 3.0261 15.324 6.7023 22.098 7.8027 1.8904 0.30967 4.992 0.90865 7.8848 1.1875 12.195 0.94625 15.055-0.32666 24.506-1.8418 8.5906-2.4983 16.678-7.275 22.934-12.367l5.7871-4.7168c0.0891 0.11275 0.1968 0.26762 0.28321 0.375l1.9648 2.0644c6.134 6.4426 12.296 9.8178 20.275 9.2246 7.5551-0.56163 13.041-2.6761 17.49-6.7422 4.5132-4.1248 5.5354-6.236 7.6699-12.512 2.9552-8.6889 4.3184-16.193 3.9922-29.721-0.33294-13.818-1.6567-19.14-5.4434-23.453-3.1472-3.3774-6.7785-3.4556-8.8613 1.5293-0.79737 1.9089-0.78178 2.91 0.11132 6.918 1.6289 7.3102 1.7837 25.828 0.45313 32.072-2.7904 13.095-11.463 17.859-22.207 12.49-2.4274-1.213-3.8861-1.9048-5.748-3.5762-0.18578-0.19582-0.32768-0.35348-0.50391-0.54101 1.047-1.7899 1.5781-3.0116 2.7754-4.9883 4.9715-8.2077 9.7196-21.436 11.604-32.795 1.3511-8.1466 0.63728-9.9421-1.9707-11.746-2.0094-0.98322-2.8331-1.0491-4.9531-0.39844-1.3988 0.42933-3.0221 1.3082-3.6055 1.9531-0.58363 0.64492-1.9734 4.6467-3.0879 8.8945-1.1144 4.2479-2.7555 9.2858-3.6465 11.193-0.89099 1.9076-1.8493 4.2376-2.1309 5.1777-0.28161 0.94013-1.2853 3.2472-2.2305 5.127l-2 4.0059-1.1016-2.5469c-0.50786-1.1277-2.6738-6.8816-5.1504-12.898-11.247-27.323-21.459-37.908-38.98-39.522-0.8718-0.080295-1.5892-0.13573-2.1641-0.16406z"
           fill="url(#a)"
           id="path130" />
      </g>
    </clipPath>
    <linearGradient
       id="a"
       x1="146.2"
       x2="201.21"
       y1="153.65"
       y2="210.2"
       gradientUnits="userSpaceOnUse"
       xlink:href="#c" />
    <clipPath
       id="f">
      <circle
         transform="matrix(1.0037 0 0 1.0037 1.3836 -1.2671)"
         cx="40.292"
         cy="2.6396"
         r="29.772"
         clip-path="url(#e)"
         opacity=".1"
         id="circle136" />
    </clipPath>
    <linearGradient
       id="b"
       x1="45.701"
       x2="61.309"
       y1="6.5707"
       y2="22.179"
       gradientUnits="userSpaceOnUse">
      <stop
         offset="0"
         id="stop139" />
      <stop
         stop-opacity="0"
         offset="1"
         id="stop141" />
    </linearGradient>
    <filter
       id="d"
       x="-.024"
       y="-.024"
       width="1.048"
       height="1.048"
       color-interpolation-filters="sRGB">
      <feGaussianBlur
         stdDeviation="13.532652"
         id="feGaussianBlur144" />
    </filter>
    <clipPath
       id="clipPath4599"
       clipPathUnits="userSpaceOnUse">
      <circle
         r="666.01202"
         style="display:inline;fill:#2588d0;stroke-width:1"
         id="circle4601"
         cy="-684.40002"
         cx="725.02002" />
    </clipPath>
  </defs>
  <sodipodi:namedview
     pagecolor="#ffffff"
     bordercolor="#666666"
     borderopacity="1"
     objecttolerance="10"
     gridtolerance="10"
     guidetolerance="10"
     inkscape:pageopacity="0"
     inkscape:pageshadow="2"
     inkscape:window-width="1920"
     inkscape:window-height="1037"
     id="namedview6"
     showgrid="true"
     inkscape:pagecheckerboard="true"
     inkscape:snap-bbox="true"
     inkscape:bbox-nodes="true"
     inkscape:snap-nodes="false"
     inkscape:zoom="19.666667"
     inkscape:cx="25.021694"
     inkscape:cy="23.464088"
     inkscape:window-x="1920"
     inkscape:window-y="43"
     inkscape:window-maximized="1"
     inkscape:current-layer="svg4">
    <inkscape:grid
       type="xygrid"
       id="grid4749"
       empspacing="4" />
  </sodipodi:namedview>
  <path
     style="fill:#ffffff;fill-opacity:1"
     d="M 24 2 A 22 22 0 0 0 2 24 A 22 22 0 0 0 24 46 A 22 22 0 0 0 46 24 A 22 22 0 0 0 24 2 z M 19.802734 14.341797 C 19.882614 14.319904 20.125159 14.338556 20.607422 14.375 C 24.273385 14.652038 26.133159 16.70395 28.824219 23.443359 C 29.294143 24.620067 29.508457 25.13139 29.601562 25.341797 C 29.625373 25.395607 29.664027 25.512756 29.708984 25.476562 C 29.753964 25.440372 29.904415 25.161457 29.957031 25.070312 C 30.009651 24.979163 30.069079 24.861138 30.136719 24.71875 C 30.204359 24.576363 30.281053 24.410617 30.371094 24.220703 C 31.030854 22.829163 31.833707 20.540521 32.125 19.222656 C 32.267584 18.577669 32.374798 18.385897 32.683594 18.226562 C 33.6951 17.704732 34.597656 18.188705 34.597656 19.253906 C 34.597656 21.182485 33.338404 25.048578 31.892578 27.558594 C 31.800198 27.718973 31.708272 27.822795 31.660156 27.917969 C 31.612026 28.013139 31.482128 28.183842 31.509766 28.232422 C 31.530886 28.269552 31.538206 28.27849 31.572266 28.3125 C 31.608496 28.34865 31.657668 28.395153 31.722656 28.447266 C 32.201916 28.831655 33.435722 29.307746 34.070312 29.394531 C 34.877518 29.504901 35.798202 29.114012 36.3125 28.441406 C 37.476385 26.919085 37.746208 24.184412 37.125 20.191406 C 36.898133 18.733108 36.89842 18.703003 37.173828 18.333984 C 37.84099 17.439992 38.648282 17.608466 39.212891 18.759766 C 40.368956 21.116963 40.186971 26.879518 38.863281 29.828125 C 38.128073 31.465865 36.851205 32.367837 34.722656 32.753906 C 33.019962 33.06277 31.798881 32.667662 30.390625 31.353516 L 29.539062 30.558594 L 29.136719 30.980469 C 28.095383 32.077711 25.687892 33.419929 23.908203 33.896484 C 23.031742 34.131166 20.879637 34.411254 20.185547 34.380859 C 19.957971 34.370859 19.305291 34.318818 18.736328 34.263672 C 13.293819 33.736107 9.6455971 31.044739 8.3886719 26.628906 C 7.6047508 23.875264 8.0657477 21.275568 9.8144531 18.59375 C 11.397099 16.166578 13.511097 14.587891 15.179688 14.587891 L 15.628906 14.587891 L 15.080078 14.955078 C 13.199368 16.209724 11.71508 18.134271 11.011719 20.230469 C 10.598941 21.460664 10.49156 23.907815 10.789062 25.302734 C 11.301861 27.707144 12.774796 29.635739 14.888672 30.669922 C 16.322808 31.371588 17.636554 31.650391 19.509766 31.650391 C 22.607493 31.650391 25.121158 30.683231 27.261719 28.666016 L 27.992188 27.976562 L 27.625 27.164062 C 27.299167 26.444405 26.558553 24.491679 25.201172 20.779297 C 24.66691 19.318103 24.080773 18.337926 23.087891 17.244141 C 22.414142 16.501971 21.08246 15.348372 19.974609 14.546875 C 19.805569 14.424579 19.722854 14.36369 19.802734 14.341797 z "
     id="circle2" />
  <path
     inkscape:connector-curvature="0"
     d="m 46.017459,17.007348 c 0,0 0.44497,1.057214 1.37584,2.29834"
     id="path169"
     style="display:inline;fill:none;stroke:#e9e9eb;stroke-width:0.037884" />
  <style
     id="style179">.st0{fill:#e0e0e0}.st1{fill:#fff}.st2{clip-path:url(#SVGID_2_);fill:#fbbc05}.st3{clip-path:url(#SVGID_4_);fill:#ea4335}.st4{clip-path:url(#SVGID_6_);fill:#34a853}.st5{clip-path:url(#SVGID_8_);fill:#4285f4}</style>
</svg>
