<?xml version="1.0" encoding="utf-8"?>
<!-- Generator: Adobe Illustrator 21.1.0, SVG Export Plug-In . SVG Version: 6.00 Build 0)  -->
<svg version="1.0" id="Layer_1" xmlns="http://www.w3.org/2000/svg" xmlns:xlink="http://www.w3.org/1999/xlink" x="0px" y="0px"
	 viewBox="0 0 48 48" enable-background="new 0 0 48 48" xml:space="preserve">
<g>
	<path fill="#FFFFFF" d="M8,33c10.6,0,21.1,0,31.7,0c0-6.5,0-13,0-19.4c-10.6,0-21.2,0-31.7,0C8,20.2,8,26.6,8,33z M27.4,21.5
		c-0.4-0.4-0.4-0.9,0-1.3c0.4-0.4,0.9-0.4,1.3,0l1.1,1.1l1.1-1.1c0.4-0.4,0.9-0.4,1.3,0c0.4,0.4,0.4,0.9,0,1.3l-1.1,1.1l1.1,1.1
		c0.4,0.4,0.4,0.9,0,1.3c-0.4,0.4-0.9,0.4-1.3,0l-1.1-1.1L28.7,25c-0.4,0.4-0.9,0.4-1.3,0c-0.4-0.4-0.4-0.9,0-1.3l1.1-1.1L27.4,21.5
		z M15.3,21.5c-0.4-0.4-0.4-0.9,0-1.3s0.9-0.4,1.3,0l1.1,1.1l1.1-1.1c0.4-0.4,0.9-0.4,1.3,0c0.4,0.4,0.4,0.9,0,1.3L19,22.6l1.1,1.1
		c0.4,0.4,0.4,0.9,0,1.3c-0.4,0.4-0.9,0.4-1.3,0l-1.1-1.1L16.5,25c-0.4,0.4-0.9,0.4-1.3,0s-0.4-0.9,0-1.3l1.1-1.1L15.3,21.5z"/>
	<path fill="#FFFFFF" d="M24,2C11.8,2,2,11.8,2,24s9.8,22,22,22s22-9.8,22-22S36.2,2,24,2z M39.4,34.3c-4.1,0-8.2,0-12.3,0
		c-0.6,0-1.2,0-2,0c-0.1,0.7-0.1,1.2-0.2,2c2.5,0,4.8,0,7.5,0c-1.2,1.1-16.1,1.1-17.5,0.1c2.7,0,5.1,0,7.7,0c0-0.8,0-1.3,0-2.1
		c-0.7,0-1.3,0-1.9,0c-4.2,0-8.3,0-12.5,0c-1,0-1.6-0.2-1.6-1.4c0-6.4,0-12.9,0-19.3c0-1,0.3-1.4,1.4-1.4c10.5,0,21.1,0,31.6,0
		c1.1,0,1.3,0.5,1.3,1.5c0,6.4,0,12.7,0,19.1C41,34,40.5,34.3,39.4,34.3z"/>
</g>
</svg>
