<svg id="Layer_1" data-name="Layer 1" xmlns="http://www.w3.org/2000/svg" viewBox="0 0 48 48"><defs><style>.cls-1{fill:#fff;}</style></defs><title>twidere</title><polygon class="cls-1" points="8.33 17.06 8.33 27.78 13.68 22.42 8.33 17.06"/><polygon class="cls-1" points="33.03 33.06 45.9 20.2 20.17 20.2 33.03 33.06"/><polygon class="cls-1" points="18.94 21.43 18.94 39.62 37.13 39.62 32.42 34.9 18.94 21.43"/><polygon class="cls-1" points="12.82 8.38 2.1 8.38 7.46 13.74 9.03 12.17 12.82 8.38"/><polygon class="cls-1" points="17.46 18.64 21.14 14.97 14.91 8.74 11.8 11.85 8.69 14.97 14.91 21.19 17.46 18.64 17.46 18.64"/><polygon class="cls-1" points="17.21 21.35 15.53 23.03 8.69 29.87 17.21 38.39 17.21 21.35"/></svg>