<?xml version="1.0" encoding="UTF-8" standalone="no"?>
<svg
   xmlns:dc="http://purl.org/dc/elements/1.1/"
   xmlns:cc="http://creativecommons.org/ns#"
   xmlns:rdf="http://www.w3.org/1999/02/22-rdf-syntax-ns#"
   xmlns:svg="http://www.w3.org/2000/svg"
   xmlns="http://www.w3.org/2000/svg"
   xmlns:sodipodi="http://sodipodi.sourceforge.net/DTD/sodipodi-0.dtd"
   xmlns:inkscape="http://www.inkscape.org/namespaces/inkscape"
   width="48"
   height="48"
   viewBox="0 0 48 48"
   version="1.1"
   id="svg4"
   sodipodi:docname="twire.svg"
   inkscape:version="0.92.4 (5da689c313, 2019-01-14)">
  <metadata
     id="metadata10">
    <rdf:RDF>
      <cc:Work
         rdf:about="">
        <dc:format>image/svg+xml</dc:format>
        <dc:type
           rdf:resource="http://purl.org/dc/dcmitype/StillImage" />
        <dc:title />
      </cc:Work>
    </rdf:RDF>
  </metadata>
  <defs
     id="defs8" />
  <sodipodi:namedview
     pagecolor="#ffffff"
     bordercolor="#666666"
     borderopacity="1"
     objecttolerance="10"
     gridtolerance="10"
     guidetolerance="10"
     inkscape:pageopacity="0"
     inkscape:pageshadow="2"
     inkscape:window-width="1536"
     inkscape:window-height="811"
     id="namedview6"
     showgrid="false"
     inkscape:pagecheckerboard="true"
     inkscape:zoom="11.313709"
     inkscape:cx="2.2715274"
     inkscape:cy="20.611798"
     inkscape:window-x="-8"
     inkscape:window-y="-8"
     inkscape:window-maximized="1"
     inkscape:current-layer="svg4" />
  <path
     d="M 24,2 A 22,22 0 0 0 2,24 22,22 0 0 0 24,46 22,22 0 0 0 46,24 22,22 0 0 0 24,2 Z m 0,5.9824219 A 16.016949,16.016949 0 0 1 38.962891,18.332031 l -4.445313,4.445313 A 10.601695,10.601695 0 0 0 24,13.398438 10.601695,10.601695 0 0 0 15.441406,17.763672 l -0.0059,-0.0059 -7.3945314,7.394532 A 16.016949,16.016949 0 0 1 7.9824219,24 16.016949,16.016949 0 0 1 24,7.9824219 Z M 24,19.804688 A 4.1949153,4.1949153 0 0 1 28.195312,24 4.1949153,4.1949153 0 0 1 24,28.195312 4.1949153,4.1949153 0 0 1 19.804688,24 4.1949153,4.1949153 0 0 1 24,19.804688 Z m 15.941406,2.654296 A 16.016949,16.016949 0 0 1 40.017578,24 16.016949,16.016949 0 0 1 24,40.017578 16.016949,16.016949 0 0 1 8.9296875,29.367188 L 13.439453,24.859375 A 10.601695,10.601695 0 0 0 24,34.601562 10.601695,10.601695 0 0 0 33.277344,29.123047 Z"
     id="circle2"
     style="display:inline;fill:#ffffff"
     inkscape:connector-curvature="0" />
</svg>
