<?xml version="1.0" encoding="UTF-8"?>
<svg width="48" height="48" viewBox="0 0 48 48" xmlns="http://www.w3.org/2000/svg">
    <defs>
        <style>.cls-1{fill:#fff;}</style>
    </defs>
    <path class="cls-1" d="m 41.526692,15.140249 v 1.16695 c 0,11.968718 -9.081265,25.702822 -25.702823,25.702822 C 10.916599,42.023041 6.1122032,40.603618 2,37.925696 c 0.7139445,0.09669 1.4339407,0.141695 2.1543693,0.134648 4.0668881,0.0058 8.0180837,-1.353313 11.2206737,-3.859911 -3.873939,-0.05413 -7.2760296,-2.587595 -8.4379468,-6.283577 0.5606223,0.119627 1.1322976,0.179807 1.7055424,0.17953 0.8041794,-0.0014 1.6044364,-0.112117 2.3787824,-0.329139 C 6.7894636,26.940861 3.7429476,23.222225 3.7653859,18.910395 V 18.790708 C 5.0155814,19.490676 6.4173786,19.875786 7.849711,19.912775 5.3386829,18.251933 3.8274318,15.442917 3.8252295,12.432327 3.8349541,10.856709 4.2524365,9.3104487 5.0370622,7.9440569 9.628807,13.594604 16.40614,17.026784 23.678341,17.384384 23.501875,16.710603 23.416338,16.016244 23.424005,15.31978 23.112641,6.9184291 33.486424,2.7372097 39.088065,9.0062807 41.112183,8.5982865 43.053911,7.8549693 44.83305,6.8070287 44.157727,8.9333089 42.725749,10.73792 40.808569,11.878773 42.60256,11.63503 44.351429,11.131032 46,10.382684 c -1.195795,1.839663 -2.710707,3.450841 -4.473308,4.757565 z"/>
</svg>
