<svg id="Layer_1" data-name="Layer 1" xmlns="http://www.w3.org/2000/svg" viewBox="0 0 48 48"><defs><style>.cls-1{fill:#fff;}</style></defs><title>Twitter</title><path class="cls-1" d="M24,2A22,22,0,1,0,46,24,22,22,0,0,0,24,2ZM36.48,19.1c0,.25,0,.51,0,.78,0,8-6.07,17.18-17.18,17.18a16.85,16.85,0,0,1-9.24-2.73,10,10,0,0,0,1.44.09A12.14,12.14,0,0,0,19,31.84a6,6,0,0,1-5.64-4.2,5.45,5.45,0,0,0,1.14.12,5.93,5.93,0,0,0,1.59-.22,6,6,0,0,1-4.85-5.92v-.08a5.9,5.9,0,0,0,2.73.75,6,6,0,0,1-2.69-5,6.1,6.1,0,0,1,.81-3,17.14,17.14,0,0,0,12.46,6.31,5.22,5.22,0,0,1-.17-1.38A6,6,0,0,1,34.85,15a12.39,12.39,0,0,0,3.84-1.47A6.09,6.09,0,0,1,36,16.92a12.45,12.45,0,0,0,3.47-1A12.31,12.31,0,0,1,36.48,19.1Z"/></svg>