<svg xmlns:rdf="http://www.w3.org/1999/02/22-rdf-syntax-ns#" xmlns="http://www.w3.org/2000/svg" height="48" width="48" version="1.1" xmlns:cc="http://creativecommons.org/ns#" viewBox="0 0 48 48" xmlns:dc="http://purl.org/dc/elements/1.1/">
 <path fill="#fff" d="m24 2a22 22 0 0 0 -22 22 22 22 0 0 0 22 22 22 22 0 0 0 22 -22 22 22 0 0 0 -22 -22zm5 9a7 7 0 0 1 5.7 3h4.3l-3 3.6a7 7 0 0 1 0 0.4v2 5c0 4-1.7 6.9-3 8.7-1.3 1.7-5.1 7-18 4.3 2.6-0.4 5.5-1.5 8-5-6.1-3.4-10.6-8.5-14-15 3.9 0.8 8.1 1.4 13 1.4v-1.4a7 7 0 0 1 7 -7z"/>
</svg>
