<?xml version="1.0" encoding="utf-8"?>
<!-- Generator: Adobe Illustrator 21.1.0, SVG Export Plug-In . SVG Version: 6.00 Build 0)  -->
<svg version="1.0" id="Layer_1" xmlns="http://www.w3.org/2000/svg" xmlns:xlink="http://www.w3.org/1999/xlink" x="0px" y="0px"
	 viewBox="0 0 48 48" enable-background="new 0 0 48 48" xml:space="preserve">
<path fill="#FFFFFF" d="M24,2C11.8,2,2,11.8,2,24s9.8,22,22,22s22-9.8,22-22S36.2,2,24,2z M29.1,24.5c0.5,0.6,0.4,0.8-0.2,1.2
	c-0.4,0.2-0.9,0.4-1.3,0.7c0.6,0.4,1.2,0.8,1.8,1.2c0.6,0.4,0.5,0.8-0.1,1.1c-0.3,0.1-0.6,0.2-0.9,0.3c0.2,0.7,0.4,1.3,0.5,2
	c0.1,0.8-0.3,1.4-1.1,1.5c-0.6,0.1-1.1,0.1-1.7,0.1c-0.3,0-0.6,0-0.9,0c-0.1,1.3,0.3,2.5,0.7,3.8c-0.7,0-1.3,0-2,0
	c-0.7,0-1.4,0.1-2.2,0.1c-1.8,0-3.5,0-5.3,0c0.7-1.4,1.1-2.8,0.8-4.4c-0.1-0.6-0.2-1.3-0.2-1.9c0-0.8-0.3-1.2-1-1.6
	c-2.2-1.2-3.9-2.8-4.8-5.2c-0.2-0.7-0.4-1.4-0.5-2.1c0-0.5,0-0.9,0-1.4c0.1-0.3,0.1-0.6,0.2-0.8c0.7-3.4,2.9-5.7,6.1-7
	c0.7-0.3,1.5-0.4,2.2-0.6c0.5,0,1,0,1.5,0c0.1,0,0.1,0.1,0.2,0.1c3,0.4,5.2,2,6.6,4.7c1.1,2.1,2.2,4.2,3.2,6.3
	c0.1,0.1,0.1,0.3,0.2,0.5c-0.9,0.1-1.7,0.2-2.6,0.4C28.4,23.8,28.8,24.1,29.1,24.5z M31.2,28.4c0.6-0.6,0.9-1.3,0.9-2.2
	c0-0.7-0.3-1.3-0.7-1.8c0.3-0.2,0.5-0.5,0.8-0.7c1.3,1,1.7,3.9-0.2,5.6C31.7,29,31.4,28.7,31.2,28.4z M32.5,29.9
	c0.9-0.9,1.5-2.1,1.5-3.4c0-1.3-0.4-2.4-1.3-3.5c0.3-0.3,0.5-0.5,0.8-0.8c2.1,1.9,2.4,6-0.3,8.5C33,30.5,32.8,30.2,32.5,29.9z
	 M37.4,27.2c-0.1,0.3-0.1,0.6-0.2,0.9c-0.4,1.7-1.3,3-2.5,4.1c-0.3-0.3-0.6-0.5-0.8-0.8c1.5-1.2,2.4-2.8,2.4-4.7
	c0-1.9-0.7-3.5-1.9-5c0.3-0.3,0.5-0.5,0.8-0.8c0.7,0.7,1.1,1.5,1.5,2.3c0.3,0.7,0.4,1.5,0.6,2.3c0,0.1,0.1,0.2,0.1,0.3
	C37.4,26.2,37.4,26.7,37.4,27.2z"/>
</svg>
