<?xml version="1.0" encoding="UTF-8" standalone="no"?>
<svg
   xmlns:dc="http://purl.org/dc/elements/1.1/"
   xmlns:cc="http://creativecommons.org/ns#"
   xmlns:rdf="http://www.w3.org/1999/02/22-rdf-syntax-ns#"
   xmlns:svg="http://www.w3.org/2000/svg"
   xmlns="http://www.w3.org/2000/svg"
   xmlns:sodipodi="http://sodipodi.sourceforge.net/DTD/sodipodi-0.dtd"
   xmlns:inkscape="http://www.inkscape.org/namespaces/inkscape"
   width="48"
   height="48"
   viewBox="0 0 48 48"
   version="1.1"
   id="svg4"
   sodipodi:docname="ultrasonic.svg"
   inkscape:version="1.0.2 (e86c870879, 2021-01-15)">
  <metadata
     id="metadata10">
    <rdf:RDF>
      <cc:Work
         rdf:about="">
        <dc:format>image/svg+xml</dc:format>
        <dc:type
           rdf:resource="http://purl.org/dc/dcmitype/StillImage" />
        <dc:title></dc:title>
      </cc:Work>
    </rdf:RDF>
  </metadata>
  <defs
     id="defs8" />
  <sodipodi:namedview
     pagecolor="#ffffff"
     bordercolor="#666666"
     borderopacity="1"
     objecttolerance="10"
     gridtolerance="10"
     guidetolerance="10"
     inkscape:pageopacity="0"
     inkscape:pageshadow="2"
     inkscape:window-width="1600"
     inkscape:window-height="836"
     id="namedview6"
     showgrid="false"
     inkscape:zoom="6.3958333"
     inkscape:cx="23.92671"
     inkscape:cy="23.722449"
     inkscape:window-x="0"
     inkscape:window-y="0"
     inkscape:window-maximized="1"
     inkscape:current-layer="svg4" />
  <path
     id="circle2"
     style="fill:#ffffff"
     d="M 24 2 A 22 22 0 0 0 2 24 A 22 22 0 0 0 24 46 A 22 22 0 0 0 46 24 A 22 22 0 0 0 24 2 z M 24 7.2226562 C 32.981973 7.2226562 40.261719 14.502401 40.261719 23.484375 L 40.261719 32.630859 C 40.261719 34.874431 38.440839 36.695312 36.197266 36.695312 C 33.953694 36.695312 32.132812 34.874431 32.132812 32.630859 L 32.132812 26.53125 C 32.132812 24.287677 33.953694 22.466797 36.197266 22.466797 C 36.931037 22.466797 37.611562 22.677616 38.207031 23.019531 C 37.957319 15.378322 31.702676 9.2539062 24 9.2539062 C 16.297323 9.2539063 10.042681 15.378322 9.7929688 23.019531 C 10.388437 22.677616 11.068963 22.466797 11.802734 22.466797 C 14.046305 22.466797 15.867188 24.283836 15.867188 26.53125 L 15.867188 32.630859 C 15.867188 34.874431 14.046305 36.695312 11.802734 36.695312 C 9.5591625 36.695312 7.7382812 34.874431 7.7382812 32.630859 L 7.7382812 23.484375 C 7.7382813 14.502401 15.018028 7.2226562 24 7.2226562 z M 11.802734 24.501953 C 10.680948 24.501953 9.7695312 25.41337 9.7695312 26.535156 L 9.7695312 32.634766 C 9.7695313 33.756551 10.680948 34.667969 11.802734 34.667969 C 12.924519 34.667969 13.833984 33.756551 13.833984 32.634766 L 13.833984 26.535156 C 13.833984 25.41337 12.924519 24.501953 11.802734 24.501953 z M 36.201172 24.501953 C 35.079386 24.501953 34.169922 25.41337 34.169922 26.535156 L 34.169922 32.634766 C 34.169922 33.756551 35.079386 34.667969 36.201172 34.667969 C 37.322958 34.667969 38.234375 33.756551 38.234375 32.634766 L 38.234375 26.535156 C 38.234375 25.41337 37.322958 24.501953 36.201172 24.501953 z " />
</svg>
