<?xml version="1.0" encoding="UTF-8"?>
<svg xmlns="http://www.w3.org/2000/svg" viewBox="0 0 48 48" version="1.1">
<path d="M16.244 3.076L9.758 6.82v7.492l6.486 3.747 6.488-3.747V6.82zm15.512 0L25.268 6.82v7.492l6.488 3.747 6.488-3.747V6.82zM16.354 5.441a.902.902 0 01.87 1.147c.511.113.997.32 1.432.61a.902.902 0 111.43 1.064.902.902 0 01-.225.162c.284.437.485.923.592 1.433a.902.902 0 11-.002 1.719c-.105.51-.302.997-.584 1.436a.902.902 0 11-1.054 1.437.902.902 0 01-.157-.21c-.435.29-.92.497-1.431.61a.902.902 0 11-1.744.02 4.237 4.237 0 01-1.456-.58.902.902 0 11-1.25-1.236 4.237 4.237 0 01-.61-1.453.902.902 0 11.004-1.764c.109-.518.315-1.011.606-1.453a.902.902 0 111.123-1.396c.05.05.093.105.13.165a4.237 4.237 0 011.453-.59.902.902 0 01.873-1.12zm13.054 1.014a.318.318 0 01.026 0h.03s.22 0 .47.041c.249.042.564.078.763.399.156.25.23.568.24.904.011.336-.042.694-.246.99l-2.898 4.219c-.36.523.125 1.035.38 1.035h7.163c.256 0 .744-.512.385-1.035l-2.899-4.219c-.203-.296-.26-.654-.25-.99.01-.336.084-.654.24-.904.2-.321.52-.357.768-.399.249-.042.467-.04.467-.04.445-.026.447.654.002.632 0 0-.175.003-.365.035s-.354.14-.332.106c-.065.103-.14.348-.147.59-.007.241.049.48.139.61l2.898 4.221c.618.9-.036 2.028-.906 2.028H28.174c-.87 0-1.522-1.128-.904-2.028l2.898-4.22c.09-.131.144-.37.137-.612-.008-.241-.08-.486-.145-.59.022.036-.144-.073-.334-.105-.19-.032-.365-.035-.365-.035-.422.035-.475-.598-.053-.633zM16.307 8.961a1.756 1.756 0 100 3.514 1.756 1.756 0 000-3.514zM8.49 16.508L2 20.254v7.492l6.49 3.746 6.489-3.746v-7.492zm15.51 0l-6.488 3.746v7.492L24 31.492l6.488-3.746v-7.492zm15.512 0l-6.487 3.746v7.492l6.487 3.746L46 27.746v-7.492zM10.885 18.8c.58 0 .659.47.174 1.05-.485.58-1.348 1.051-1.928 1.051a.806.806 0 01-.192-.021l-.181.248c.137.318.262.635.367.953a4.253 4.253 0 001.646-.557 4.253 4.253 0 11-6.402 3.666 4.253 4.253 0 012.104-3.662 4.253 4.253 0 002.199.584c-.609-1.31-1.328-1.858-2.055-2.357l.955-.535a6.9 6.9 0 01.715.996c.084.01.212.02.418.035.052-.124.135-.258.254-.4.484-.58 1.345-1.05 1.926-1.051zm11.91 1.142h2.314v8.114h-.972v-5.793h-1.342zm15.371.336l2.688.018.273 2.012-3.232-.014zm-18.992.828h2.314v6.95h-2.314zm6.18 0h3.476v6.95h-3.476zm-3.532 1.737h1.737v5.213h-1.737zm14.494-.084l2.69.017.271 2.012-3.232-.014zm3.7 0l2.687.017.272 2.012-3.233-.014zm-5.545 2.369l2.687.017.274 2.012-3.235-.015zm3.695 0l2.688.017.273 2.012-3.232-.015zm3.697 0l2.69.017.271 2.012-3.232-.015zM16.244 29.94l-6.486 3.747v7.492l6.486 3.744 6.488-3.744v-7.492zm15.512 0l-6.488 3.747v7.492l6.488 3.744 6.488-3.744v-7.492zm-15.512 2.205a5.284 5.284 0 015.285 5.286 5.284 5.284 0 11-10.568 0 5.284 5.284 0 015.283-5.286zm14.162.64h1.268c.965 3.168 3.434 1.845 3.762 5.693-.353-.684-1.013-1.551-1.89-2.243-.54-.426-1.32-.505-1.872-.943v4.86a1.8 1.8 0 11-1.795-1.674 1.8 1.8 0 01.527.082zm-16.029 2.099a1.095 1.095 0 100 2.193 1.095 1.095 0 100-2.193zm3.607 0a1.095 1.095 0 000 2.193 1.095 1.095 0 100-2.193zM13.29 38.38a2.924 2.924 0 00-.008.162 2.9 2.9 0 105.795-.162 5.332 5.332 0 01-2.894.855 5.332 5.332 0 01-2.893-.855z" fill="#fff"/>
</svg>