<?xml version="1.0" encoding="UTF-8" standalone="no"?>
<svg
   xmlns:dc="http://purl.org/dc/elements/1.1/"
   xmlns:cc="http://creativecommons.org/ns#"
   xmlns:rdf="http://www.w3.org/1999/02/22-rdf-syntax-ns#"
   xmlns:svg="http://www.w3.org/2000/svg"
   xmlns="http://www.w3.org/2000/svg"
   xmlns:sodipodi="http://sodipodi.sourceforge.net/DTD/sodipodi-0.dtd"
   xmlns:inkscape="http://www.inkscape.org/namespaces/inkscape"
   width="48"
   height="48"
   viewBox="0 0 12.7 12.7"
   version="1.1"
   id="svg77"
   inkscape:version="1.0.2-2 (e86c870879, 2021-01-15)"
   sodipodi:docname="underlords.svg">
  <defs
     id="defs71">
    <filter
       style="color-interpolation-filters:sRGB;"
       inkscape:label="Invert"
       id="filter90">
      <feColorMatrix
         values="1 0 0 0 0 0 1 0 0 0 0 0 1 0 0 -0.21 -0.72 -0.07 2 0 "
         result="fbSourceGraphic"
         id="feColorMatrix88" />
      <feColorMatrix
         result="fbSourceGraphicAlpha"
         in="fbSourceGraphic"
         values="0 0 0 -1 0 0 0 0 -1 0 0 0 0 -1 0 0 0 0 1 0"
         id="feColorMatrix92" />
      <feColorMatrix
         id="feColorMatrix94"
         values="1 0 0 0 0 0 1 0 0 0 0 0 1 0 0 -0.21 -0.72 -0.07 2 0 "
         result="color2"
         in="fbSourceGraphic" />
    </filter>
  </defs>
  <sodipodi:namedview
     id="base"
     pagecolor="#ffffff"
     bordercolor="#666666"
     borderopacity="1.0"
     inkscape:pageopacity="0.0"
     inkscape:pageshadow="2"
     inkscape:zoom="7.9195959"
     inkscape:cx="46.018875"
     inkscape:cy="46.498712"
     inkscape:document-units="mm"
     inkscape:current-layer="layer1"
     inkscape:document-rotation="0"
     showgrid="false"
     units="px"
     inkscape:pagecheckerboard="true"
     inkscape:window-width="1346"
     inkscape:window-height="1041"
     inkscape:window-x="168"
     inkscape:window-y="38"
     inkscape:window-maximized="0" />
  <metadata
     id="metadata74">
    <rdf:RDF>
      <cc:Work
         rdf:about="">
        <dc:format>image/svg+xml</dc:format>
        <dc:type
           rdf:resource="http://purl.org/dc/dcmitype/StillImage" />
        <dc:title></dc:title>
      </cc:Work>
    </rdf:RDF>
  </metadata>
  <g
     inkscape:label="Layer 1"
     inkscape:groupmode="layer"
     id="layer1">
    <path
       id="path4"
       style="fill:#ffffff;stroke-width:0.165311;filter:url(#filter90)"
       d="m 12.433603,0.67368489 c -0.03306,0 -0.115783,0.0660597 -0.148844,0.0991221 C 12.15251,0.90505516 12.020261,1.0538348 11.871481,1.1860836 11.606984,1.4505806 11.325892,1.6987404 11.061395,1.963238 10.780366,2.227735 10.516127,2.5087635 10.25163,2.7897913 10.086319,2.9551025 9.9374105,3.087157 9.7886308,3.2524675 9.5902579,3.4673719 9.4084802,3.6988065 9.1935765,3.9137109 8.9786721,4.1120836 8.7472375,4.293861 8.5323331,4.5087649 L 7.5240021,5.5174187 C 7.3752225,5.6827294 7.2097832,5.8312509 7.0610036,5.9965616 6.8626307,6.1949345 6.6807886,6.4100322 6.4824157,6.6084051 6.3336363,6.7571848 6.1517299,6.8893687 6.0029502,7.0381484 L 4.8128416,8.2282564 4.0524767,8.9889442 c -0.099186,0.099187 -0.099186,0.1487797 0,0.2479662 0.033064,0.033064 0.082527,0.06606 0.1155886,0.099122 -0.033064,0.033064 -0.033189,0.066124 -0.049721,0.082655 l 0.033258,0.032933 c 0.1653105,0.1653112 0.330686,0.3141552 0.4794657,0.4794664 0.066124,0.049596 0.1651818,0.099315 0.1155886,0.2150322 l 0.032933,0.03293 c 0.2810285,0.264498 0.3967458,0.396682 0.6612434,0.67771 0.04959,0.06612 0.066317,0.04959 0.1159104,0 0.066125,-0.06612 0.6941764,-0.677774 0.7768319,-0.743898 0,0.01653 -0.4794657,0.611843 -0.4794657,0.611843 -0.049596,0.06612 -0.1651174,0.214775 -0.2147107,0.280899 0,0.01653 0.1155886,0.01646 0.1155886,0.01646 0.033064,-0.03306 0.066318,-0.04959 0.115911,-0.08265 -0.033064,0.115718 -0.181842,0.148974 0,0.281222 0.099187,0.09919 0.2147107,0.198179 0.2973657,0.297366 0.099186,0.115717 0.1487796,0.09919 0.2479659,0 1.967198,-1.9671984 4.0337109,-3.983989 6.0009089,-5.9511869 0.03307,-0.033062 0.0494,-0.099251 0.0494,-0.1488441 V 4.3269876 4.2278658 l -0.347091,0.2976884 -0.297366,0.2311769 c 0.08266,-0.099187 0.462612,-0.4462099 0.561798,-0.5288653 0.09919,-0.082655 0.09919,-0.1652461 0.08266,-0.2644324 -0.03306,0.016532 -0.04933,0.032933 -0.06587,0.032933 0.01653,-0.066124 0.04959,-0.1321189 0.08266,-0.1982436 -0.01653,0 -0.01673,-0.016463 -0.03326,-0.016463 l -0.198247,0.1485213 c -0.0066,0 -0.02993,0.017963 -0.05134,0.03487 l 0.216648,-0.2166475 c 0.03306,-0.016532 0.0494,-0.066059 0.0494,-0.099121 v -1.124242 c 0,-0.033064 5.4e-5,-0.082526 -0.01646,-0.1155886 -0.528994,0.3967458 -0.148725,-0.2975593 -0.01646,-0.4132766 0.01653,-0.049596 0.03293,-0.099251 0.03293,-0.1488446 0,-0.1322482 -0.01653,-0.2645614 0,-0.3968102 0.01653,-0.1983729 0,-0.3966814 0,-0.59505432 -2.3e-5,-0.0495901 -0.01641,-0.18177704 -0.03293,-0.18177704 z M 0.36688716,0.68369413 c -0.007241,2.5804e-4 -0.0133082,0.002312 -0.0174318,0.006454 -0.0330642,0.0165321 -0.0497213,0.0660597 -0.0497213,0.0991221 V 2.359722 c 0,0.049596 0.0166633,0.099251 0.0497213,0.1488447 0.0495901,0.066124 0.11571731,0.1324418 0.16531053,0.1985665 0,0.016532 -0.0164634,0.01647 -0.0164634,0.01647 L 0.34945721,2.5747582 c 0,0.016532 -0.0164634,0.01647 -0.0164634,0.01647 0.0495901,0.066125 0.0824619,0.1324425 0.13205512,0.1985672 l -0.0164696,0.016463 C 0.3989892,2.7566621 0.36579501,2.6905411 0.31620179,2.6409479 c -0.0330642,0.1487797 3.3052e-4,0.2479018 0.0994445,0.3470882 0.0661241,0.066124 0.11565295,0.148844 0.18177767,0.2314996 l -0.0164696,0.01647 c -0.082655,-0.099187 -0.18209949,-0.181713 -0.26475507,-0.2808995 -0.0165321,0.016532 -0.0164634,0.032933 -0.0164634,0.032933 v 2.4631945 c 0,0.033062 -5.435e-5,0.049658 0.0164634,0.066189 l 0.33062169,0.3306215 c 0.0165321,-0.033062 0.0496588,-0.066124 0.0661891,-0.082655 L 2.4820282,3.9963696 C 2.6142764,3.8806523 2.6142221,3.8806523 2.4984916,3.7484035 2.4323675,3.6822794 2.3828387,3.5995595 2.3167146,3.5169045 h 0.016463 C 2.4488959,3.6326218 2.5480824,3.7318726 2.6637997,3.8310591 L 3.11001,3.3848494 3.0770769,3.3515915 C 2.1843989,2.475445 1.3082524,1.5995559 0.43210529,0.72340932 c -0.012396,-0.0247982 -0.0435233,-0.0404868 -0.06522,-0.0397121 z M 6.4191332,0.99300589 C 6.3513293,0.98215942 6.3026407,1.0724969 6.3171054,1.0869615 6.1683257,1.2192103 6.0028859,1.3679256 5.8541062,1.5167053 5.7549198,1.5993603 5.6723935,1.7152069 5.5732071,1.8143934 5.391365,1.9962354 5.1929278,2.1449507 5.0110858,2.3267921 4.8457752,2.4755718 4.7136551,2.6574782 4.5648755,2.8062578 4.4326273,2.9385066 4.2673811,3.0708198 4.1351323,3.2030686 2.8953018,4.45943 1.6387466,5.7156625 0.38238524,6.9554928 c -0.0330642,0.033064 -0.032933,0.06606 -0.032933,0.099122 0.0330642,0.1487797 0.0164634,0.297753 0.0164634,0.4465327 0,0.033064 -0.0165321,0.3469588 0,0.3800212 1.66963866,-1.4216726 1.04152196,-0.8263602 0.0661891,0.2812215 0,0.016532 -0.0164634,0.01647 -0.0164634,0.01647 -0.0661241,0.082655 -0.0661884,0.2645619 -0.0661884,0.3968107 -0.0165321,1.0910509 0,2.0331271 0,3.1076471 0,0.04959 -0.0167258,0.08285 0.0493964,0.115911 0.0495901,0.03307 0.0828486,-0.01666 0.115911,-0.04972 C 1.2917209,10.972548 2.0686166,10.179185 2.8455773,9.4022253 3.0108879,9.2534456 3.1597962,9.0880701 3.3085759,8.9227596 3.4408247,8.7739799 3.556349,8.6417311 3.6885971,8.5094829 3.7381935,8.4598928 3.8042507,8.426698 3.8703748,8.3771048 4.2340582,8.0795454 4.5152154,7.7159264 4.8293062,7.3687738 5.0111476,7.1704009 5.225987,6.972093 5.4243599,6.7737199 5.5400779,6.6580024 5.7054527,6.5588159 5.8211707,6.4430984 6.7469102,5.5338894 7.6725219,4.6247447 8.5817307,3.6990046 8.6809172,3.5998181 8.7802323,3.5005667 8.8794188,3.3848494 c 0.082656,-0.066124 0.016532,-0.04959 0,-0.082656 C 8.8628867,3.2691296 8.82976,3.2361341 8.8132303,3.2030723 8.7471056,3.1038865 8.714237,3.0872907 8.5985197,3.1368833 8.5819875,3.1203512 8.5653305,3.1201575 8.5487983,3.1036254 8.4992083,2.8887216 8.333894,2.7070739 8.2181767,2.6409498 8.1355211,2.5582942 8.1521169,2.4755737 8.036399,2.4921058 8.0198669,2.4755737 8.0196732,2.4424469 8.0031411,2.4259161 7.986609,2.409384 7.9538071,2.4258524 7.937275,2.4423795 7.8876849,2.4919758 7.606589,2.7731299 7.5404643,2.8227231 7.4578093,2.8888478 7.639522,2.6407524 7.6560529,2.60769 V 2.5912266 C 7.672585,2.5416303 7.8212997,2.4260454 7.8378305,2.3929837 l -0.01647,-0.06619 c -0.04959,0.033064 -0.099251,0.099251 -0.148844,0.1488453 l -0.1653108,0.099121 c 0.033064,-0.049596 0.1322488,-0.1819064 0.1653112,-0.2314996 0.033064,-0.04959 0.082913,-0.082526 0.099444,-0.115588 -0.016532,-0.033064 -0.066188,-0.04959 -0.066188,-0.082656 C 7.6727081,2.0623614 7.5898613,1.9797708 7.5072057,1.9632399 7.3914884,1.9467078 7.2594977,1.9464516 7.2760285,1.7811398 c 0,-0.016532 -0.016788,-0.016401 -0.016788,-0.032933 -0.066124,-0.099186 -0.1156529,-0.2149688 -0.181777,-0.3141552 -0.016532,-0.016532 -0.049659,-0.032933 -0.066189,-0.032933 -0.099186,0 -0.1982435,0.016463 -0.2808991,0.016463 0.016532,-0.033064 0.032933,-0.082784 0.032933,-0.1323775 0,-0.049596 3.305e-4,-0.1487153 -0.065866,-0.1817777 l -0.2315,0.1323781 -0.01647,-0.2314996 C 6.4391384,0.9981199 6.4288104,0.9945519 6.4191264,0.9930024 Z M 12.135914,6.6578046 c -0.03306,0.016531 -0.033,0.016595 -0.09912,0.066189 L 9.6233196,9.1374659 v 0.033258 c 0.5455254,0.5289939 1.0911154,1.0743261 1.6366414,1.6198511 0.31409,0.314091 0.644518,0.62831 0.958609,0.958931 0.0496,0.04959 0.149037,0.09919 0.1821,0.08266 0.03306,0 0.0164,-0.01653 0.03293,-0.165311 v -0.347088 c 0,-0.01653 5.4e-5,-0.04966 -0.01646,-0.06619 -0.04959,-0.06612 -0.132442,-0.132119 -0.198566,-0.198244 -0.06612,-0.08265 -0.148586,-0.148844 -0.21471,-0.231499 0.01653,0 -0.264433,-0.297689 -0.264433,-0.297689 0.132248,0.115718 0.611392,0.512657 0.72711,0.611843 V 8.592136 c 0,-0.016532 -0.03287,-0.066125 -0.0494,-0.082656 -0.04959,-0.04959 -0.314284,-0.3801499 -0.363877,-0.4297431 0,0 0.215033,0.1983079 0.215033,0.181777 0.04959,0.033064 0.132184,0.1487153 0.181778,0.181777 0.01653,-0.016532 0.01646,-0.032933 0.01646,-0.032933 V 7.0052172 6.9884289 C 12.350817,6.8892394 12.25163,6.7735218 12.135912,6.6578043 Z" />
  </g>
</svg>
