<?xml version="1.0" encoding="UTF-8" standalone="no"?>
<svg
   xmlns:dc="http://purl.org/dc/elements/1.1/"
   xmlns:cc="http://creativecommons.org/ns#"
   xmlns:rdf="http://www.w3.org/1999/02/22-rdf-syntax-ns#"
   xmlns:svg="http://www.w3.org/2000/svg"
   xmlns="http://www.w3.org/2000/svg"
   id="svg4516"
   version="1.1"
   viewBox="0 0 48 48"
   height="48"
   width="48">
  <metadata
     id="metadata4522">
    <rdf:RDF>
      <cc:Work
         rdf:about="">
        <dc:format>image/svg+xml</dc:format>
        <dc:type
           rdf:resource="http://purl.org/dc/dcmitype/StillImage" />
        <dc:title></dc:title>
      </cc:Work>
    </rdf:RDF>
  </metadata>
  <defs
     id="defs4520" />
  <path
     id="path11036"
     d="m 19.794922,3 c -0.525,0 -0.955063,0.3873594 -1.039063,0.8808594 L 17.96875,9.4472656 A 15.54,15.54 0 0 0 14.419922,11.515625 L 9.1894529,9.4042969 A 1.05,1.05 0 0 0 7.910156,9.8554688 L 3.7089842,17.132812 c -0.2625001,0.4515 -0.1470469,1.018251 0.2519531,1.34375 l 4.4316406,3.476563 A 16.485,16.485 0 0 0 8.2460936,24 c 0,0.692999 0.062484,1.374875 0.1464843,2.046875 l -4.4316406,3.476563 c -0.399,0.315 -0.5144532,0.881749 -0.2519531,1.34375 l 4.2011718,7.27539 c 0.2625,0.4515 0.806796,0.642125 1.2792969,0.453125 l 5.2304691,-2.111328 c 1.0815,0.8295 2.267828,1.532859 3.548828,2.068359 l 0.787109,5.564454 C 18.839859,44.610687 19.269922,45 19.794922,45 h 8.40039 c 0.525,0 0.955063,-0.389313 1.039063,-0.882812 l 0.787109,-5.564454 a 15.54,15.54 0 0 0 3.550782,-2.068359 l 5.228515,2.111328 a 1.05,1.05 0 0 0 1.28125,-0.453125 l 4.199219,-7.27539 c 0.2625,-0.4515 0.147047,-1.018251 -0.251953,-1.34375 l -4.431641,-3.476563 c 0.084,-0.672 0.148438,-1.353876 0.148438,-2.046875 0,-0.693 -0.06444,-1.374874 -0.148438,-2.046875 l 4.441406,-3.476563 c 0.399001,-0.315 0.514454,-0.88175 0.251954,-1.34375 L 40.091797,9.8554688 c -0.2625,-0.4515 -0.80875,-0.6401719 -1.28125,-0.4511719 l -5.228516,2.1113281 c -1.0815,-0.8295 -2.267828,-1.5328594 -3.548828,-2.0683594 L 29.246094,3.8808594 C 29.151594,3.3873594 28.720313,3 28.195312,3 Z M 24,13.160156 a 8.2405561,8.2405561 0 0 1 8.240234,8.240235 c 0,4.79412 -3.898303,8.535869 -8.240234,13.439453 -4.157202,-4.694962 -7.905161,-8.325752 -8.216797,-12.833985 a 8.2405561,8.2405561 0 0 1 -0.0039,-0.04687 c -0.01179,-0.184774 -0.01953,-0.370719 -0.01953,-0.558593 A 8.2405561,8.2405561 0 0 1 24,13.160156 Z m 0,4.279297 A 3.9611259,3.9611259 0 0 0 20.039062,21.400391 3.9611259,3.9611259 0 0 0 24,25.361328 3.9611259,3.9611259 0 0 0 27.960938,21.400391 3.9611259,3.9611259 0 0 0 24,17.439453 Z"
     style="fill:#ffffff;stroke-width:1.04999995" />
</svg>
