<?xml version="1.0" encoding="UTF-8" standalone="no"?>
<svg width="48" height="48" viewBox="0 0 48 48" version="1.1" xmlns="http://www.w3.org/2000/svg">
    <defs>
        <style>.cls-1{fill:#fff;}</style>
    </defs>
    <path
         d="M 7 5 C 5.892 5 5 5.892 5 7 L 5 41 C 5 42.108 5.892 43 7 43 L 41 43 C 42.108 43 43 42.108 43 41 L 43 7 C 43 5.892 42.108 5 41 5 L 7 5 z M 16.605469 7.1445312 L 19.498047 7.1445312 L 19.498047 9.5039062 L 16.605469 9.5039062 L 16.605469 7.1445312 z M 28.203125 10.449219 C 29.24843 10.449219 30.039308 10.770917 30.578125 11.412109 C 31.12233 12.053302 31.394531 12.985869 31.394531 14.208984 L 31.394531 19.720703 L 28.486328 19.720703 L 28.486328 18.822266 L 28.486328 15.501953 C 28.486328 14.720668 28.467405 14.181115 28.429688 13.884766 C 28.397358 13.588416 28.338164 13.370561 28.251953 13.230469 C 28.138802 13.041883 27.98499 12.895344 27.791016 12.792969 C 27.597041 12.685205 27.374809 12.632812 27.126953 12.632812 C 26.523478 12.632812 26.049921 12.867165 25.705078 13.335938 C 25.360235 13.799319 25.1875 14.443188 25.1875 15.267578 L 25.1875 19.720703 L 22.294922 19.720703 L 22.294922 10.667969 L 25.1875 10.667969 L 25.1875 11.994141 C 25.623942 11.4661 26.087801 11.077934 26.578125 10.830078 C 27.068449 10.576834 27.610426 10.449219 28.203125 10.449219 z M 16.605469 10.667969 L 19.498047 10.667969 L 19.498047 19.720703 L 16.605469 19.720703 L 16.605469 10.667969 z M 18.818359 22.767578 L 29.181641 22.767578 L 29.181641 24.666016 L 18.818359 24.666016 L 18.818359 22.767578 z M 18.818359 26.445312 L 29.181641 26.445312 L 29.181641 28.359375 L 18.818359 28.359375 L 18.818359 26.445312 z M 16.685547 31.408203 C 17.159706 31.408203 17.62599 31.450899 18.083984 31.537109 C 18.547367 31.617932 19.008802 31.74117 19.466797 31.908203 L 19.466797 34.267578 C 19.07346 33.99817 18.676068 33.799238 18.277344 33.669922 C 17.884007 33.540606 17.474494 33.476562 17.048828 33.476562 C 16.240602 33.476562 15.61081 33.713341 15.158203 34.1875 C 14.710985 34.656271 14.486328 35.314213 14.486328 36.160156 C 14.486328 37.006099 14.710985 37.666466 15.158203 38.140625 C 15.61081 38.609396 16.240602 38.84375 17.048828 38.84375 C 17.501435 38.84375 17.929871 38.775329 18.333984 38.640625 C 18.743485 38.505921 19.121954 38.306989 19.466797 38.042969 L 19.466797 40.410156 C 19.01419 40.57719 18.552755 40.702381 18.083984 40.783203 C 17.620602 40.869414 17.154318 40.912109 16.685547 40.912109 C 15.052931 40.912109 13.776846 40.495323 12.855469 39.660156 C 11.934091 38.819601 11.472656 37.65268 11.472656 36.160156 C 11.472656 34.667633 11.934091 33.503135 12.855469 32.667969 C 13.776846 31.827414 15.052931 31.408203 16.685547 31.408203 z M 27.621094 31.408203 C 28.246122 31.408203 28.797796 31.557637 29.277344 31.859375 C 29.756891 32.161113 30.121285 32.584701 30.369141 33.128906 C 30.735536 32.568536 31.168822 32.142525 31.669922 31.851562 C 32.17641 31.555213 32.732461 31.408203 33.335938 31.408203 C 34.375855 31.408203 35.166732 31.727948 35.710938 32.369141 C 36.255142 33.010333 36.527344 33.942901 36.527344 35.166016 L 36.527344 40.677734 L 33.617188 40.677734 L 33.617188 35.957031 C 33.622576 35.886985 33.625 35.815669 33.625 35.740234 C 33.630388 35.6648 33.634766 35.556108 33.634766 35.416016 C 33.634766 34.774823 33.540149 34.310964 33.351562 34.025391 C 33.162976 33.734429 32.857777 33.589844 32.4375 33.589844 C 31.887906 33.589844 31.461894 33.814972 31.160156 34.267578 C 30.863807 34.720185 30.709995 35.375703 30.699219 36.232422 L 30.699219 40.677734 L 27.791016 40.677734 L 27.791016 35.957031 C 27.791016 34.954831 27.703671 34.310964 27.53125 34.025391 C 27.358829 33.734429 27.053158 33.589844 26.611328 33.589844 C 26.056346 33.589844 25.627909 33.819349 25.326172 34.277344 C 25.024434 34.72995 24.873047 35.378666 24.873047 36.224609 L 24.873047 40.677734 L 21.962891 40.677734 L 21.962891 31.625 L 24.873047 31.625 L 24.873047 32.951172 C 25.228666 32.439296 25.635755 32.053554 26.09375 31.794922 C 26.557133 31.53629 27.066112 31.408203 27.621094 31.408203 z "
        id="rect945"
        class="cls-1" />
</svg>
