<?xml version="1.0" encoding="UTF-8" standalone="no"?>
<svg
   xmlns:dc="http://purl.org/dc/elements/1.1/"
   xmlns:cc="http://creativecommons.org/ns#"
   xmlns:rdf="http://www.w3.org/1999/02/22-rdf-syntax-ns#"
   xmlns:svg="http://www.w3.org/2000/svg"
   xmlns="http://www.w3.org/2000/svg"
   xmlns:sodipodi="http://sodipodi.sourceforge.net/DTD/sodipodi-0.dtd"
   xmlns:inkscape="http://www.inkscape.org/namespaces/inkscape"
   width="48"
   height="48"
   viewBox="0 0 48 48"
   version="1.1"
   id="svg936"
   sodipodi:docname="unitconverterultimate.svg"
   inkscape:version="0.92.3 (2405546, 2018-03-11)">
  <metadata
     id="metadata942">
    <rdf:RDF>
      <cc:Work
         rdf:about="">
        <dc:format>image/svg+xml</dc:format>
        <dc:type
           rdf:resource="http://purl.org/dc/dcmitype/StillImage" />
        <dc:title></dc:title>
      </cc:Work>
    </rdf:RDF>
  </metadata>
  <defs
     id="defs940" />
  <sodipodi:namedview
     pagecolor="#ffffff"
     bordercolor="#666666"
     borderopacity="1"
     objecttolerance="10"
     gridtolerance="10"
     guidetolerance="10"
     inkscape:pageopacity="0"
     inkscape:pageshadow="2"
     inkscape:window-width="2560"
     inkscape:window-height="1385"
     id="namedview938"
     showgrid="false"
     inkscape:pagecheckerboard="true"
     inkscape:zoom="9.8333333"
     inkscape:cx="47.671538"
     inkscape:cy="20.508489"
     inkscape:window-x="1920"
     inkscape:window-y="27"
     inkscape:window-maximized="1"
     inkscape:current-layer="svg936" />
  <path
     d="M 24 2 A 22 22 0 0 0 2 24 A 22 22 0 0 0 24 46 A 22 22 0 0 0 46 24 A 22 22 0 0 0 24 2 z M 14.269531 6.6230469 L 14.269531 9.1191406 L 14.269531 11.617188 L 22.525391 11.617188 L 30.78125 11.617188 L 30.78125 15.744141 L 30.78125 19.873047 L 22.537109 19.873047 L 14.294922 19.873047 L 14.208984 22.236328 L 14.123047 24.599609 L 9.7148438 20.183594 C 7.2901906 17.754047 5.4098861 15.660426 5.5371094 15.533203 C 5.6643328 15.40598 7.6815611 13.350019 10.019531 10.962891 L 14.269531 6.6230469 z M 33.730469 23.560547 L 38.224609 28.054688 L 42.720703 32.550781 L 38.224609 37.044922 L 33.730469 41.541016 L 33.730469 39.109375 L 33.730469 36.677734 L 25.474609 36.677734 L 17.21875 36.677734 L 17.21875 32.550781 L 17.21875 28.421875 L 25.474609 28.421875 L 33.730469 28.421875 L 33.730469 25.992188 L 33.730469 23.560547 z "
     id="circle934"
     style="fill:#ffffff;fill-opacity:1" />
</svg>
