<?xml version="1.0" encoding="UTF-8" standalone="no"?>
<svg width="48" height="48" viewBox="0 0 48 48" version="1.1" xmlns="http://www.w3.org/2000/svg">
    <defs>
        <style>.cls-1{fill:#fff;}</style>
    </defs>
    <path
        d="M 7.1191406 0 C 3.1754117 0 1.4456029e-17 3.1754117 0 7.1191406 L 0 40.880859 C 0 44.824588 3.1754117 48 7.1191406 48 L 40.880859 48 C 44.824588 48 48 44.824588 48 40.880859 L 48 7.1191406 C 48 3.1754117 44.824588 1.4456029e-17 40.880859 0 L 7.1191406 0 z M 15.660156 2.0175781 L 18.923828 2.0175781 L 18.923828 4.6796875 L 15.660156 4.6796875 L 15.660156 2.0175781 z M 28.740234 5.7460938 C 29.919054 5.7460938 30.812283 6.1069879 31.419922 6.8300781 C 32.033637 7.5531684 32.339844 8.6050348 32.339844 9.984375 L 32.339844 16.199219 L 29.058594 16.199219 L 29.058594 15.1875 L 29.058594 11.441406 C 29.058594 10.56033 29.036675 9.953342 28.994141 9.6191406 C 28.957682 9.2849392 28.892144 9.0388455 28.794922 8.8808594 C 28.667318 8.6681858 28.494141 8.5041233 28.275391 8.3886719 C 28.056641 8.2671441 27.806858 8.2070312 27.527344 8.2070312 C 26.846788 8.2070312 26.312717 8.4713542 25.923828 9 C 25.534939 9.5225694 25.339844 10.248047 25.339844 11.177734 L 25.339844 16.199219 L 22.076172 16.199219 L 22.076172 5.9921875 L 25.339844 5.9921875 L 25.339844 7.4863281 C 25.832031 6.890842 26.355252 6.453342 26.908203 6.1738281 C 27.461154 5.8882379 28.071832 5.7460938 28.740234 5.7460938 z M 15.660156 5.9921875 L 18.923828 5.9921875 L 18.923828 16.199219 L 15.660156 16.199219 L 15.660156 5.9921875 z M 18.158203 20.845703 L 29.841797 20.845703 L 29.841797 22.988281 L 18.158203 22.988281 L 18.158203 20.845703 z M 18.158203 24.994141 L 29.841797 24.994141 L 29.841797 27.154297 L 18.158203 27.154297 L 18.158203 24.994141 z M 15.751953 31.617188 C 16.286675 31.617188 16.811632 31.66645 17.328125 31.763672 C 17.850694 31.854818 18.370226 31.993273 18.886719 32.181641 L 18.886719 34.84375 C 18.443142 34.539931 17.996528 34.315755 17.546875 34.169922 C 17.103299 34.024089 16.642144 33.951172 16.162109 33.951172 C 15.250651 33.951172 14.539714 34.217231 14.029297 34.751953 C 13.524957 35.280599 13.271484 36.022569 13.271484 36.976562 C 13.271484 37.930556 13.524957 38.674262 14.029297 39.208984 C 14.539714 39.73763 15.250651 40.001953 16.162109 40.001953 C 16.672526 40.001953 17.155599 39.9273 17.611328 39.775391 C 18.073134 39.623481 18.49783 39.397352 18.886719 39.099609 L 18.886719 41.771484 C 18.376302 41.959852 17.856771 42.098307 17.328125 42.189453 C 16.805556 42.286675 16.280599 42.335938 15.751953 42.335938 C 13.910807 42.335938 12.470703 41.865668 11.431641 40.923828 C 10.392578 39.975911 9.8730469 38.659722 9.8730469 36.976562 C 9.8730469 35.293403 10.392578 33.980903 11.431641 33.039062 C 12.470703 32.091146 13.910807 31.617188 15.751953 31.617188 z M 28.083984 31.617188 C 28.788845 31.617188 29.410373 31.786675 29.951172 32.126953 C 30.49197 32.467231 30.902127 32.944878 31.181641 33.558594 C 31.594835 32.926649 32.085286 32.447266 32.650391 32.119141 C 33.221571 31.784939 33.846788 31.617188 34.527344 31.617188 C 35.700087 31.617188 36.593316 31.978082 37.207031 32.701172 C 37.820747 33.424262 38.126953 34.476129 38.126953 35.855469 L 38.126953 42.072266 L 34.845703 42.072266 L 34.845703 36.748047 C 34.85178 36.669054 34.855469 36.587023 34.855469 36.501953 C 34.861545 36.416884 34.865234 36.296658 34.865234 36.138672 C 34.865234 35.415582 34.757595 34.892361 34.544922 34.570312 C 34.332248 34.242188 33.989583 34.078125 33.515625 34.078125 C 32.895833 34.078125 32.41645 34.333333 32.076172 34.84375 C 31.74197 35.354167 31.568793 36.092448 31.556641 37.058594 L 31.556641 42.072266 L 28.275391 42.072266 L 28.275391 36.748047 C 28.275391 35.617839 28.176866 34.892361 27.982422 34.570312 C 27.787977 34.242188 27.441623 34.078125 26.943359 34.078125 C 26.317491 34.078125 25.834418 34.337023 25.494141 34.853516 C 25.153863 35.363932 24.984375 36.094835 24.984375 37.048828 L 24.984375 42.072266 L 21.703125 42.072266 L 21.703125 31.863281 L 24.984375 31.863281 L 24.984375 33.357422 C 25.385417 32.780165 25.844835 32.346354 26.361328 32.054688 C 26.883898 31.763021 27.458116 31.617188 28.083984 31.617188 z "
        id="rect882"
        class="cls-1"
    />
</svg>
