<?xml version="1.0" encoding="UTF-8"?>
<svg version="1.1" viewBox="0 0 48 48" xmlns="http://www.w3.org/2000/svg">
    <path d="m11.334 5c-3.5087 0-6.334 2.8253-6.334 6.334v12.033h18.367v-18.367h-12.033zm1.8984 3.4824h1.9004v4.75h4.75v1.9004h-4.75v4.75h-1.9004v-4.75h-4.75v-1.9004h4.75v-4.75z" fill="#fff" style="paint-order:stroke markers fill"/>
    <path d="m24.633 5v18.367h18.367v-12.033c0-3.5087-2.8253-6.334-6.334-6.334h-12.033zm3.4844 8.2324h11.4v1.9004h-11.4v-1.9004z" fill="#fff" style="paint-order:stroke markers fill"/>
    <path d="m5 24.633v12.033c0 3.5087 2.8253 6.334 6.334 6.334h12.033v-18.367h-18.367zm5.8242 4.4824 3.3574 3.3574 3.3594-3.3574 1.3438 1.3438-3.3574 3.3594 3.3574 3.3574-1.3438 1.3418-3.3594-3.3594-3.3574 3.3594-1.3418-1.3418 3.3594-3.3574-3.3594-3.3594 1.3418-1.3438z" fill="#fff" style="paint-order:stroke markers fill"/>
    <path d="m24.633 24.633v18.367h12.033c3.5087 0 6.334-2.8253 6.334-6.334v-12.033h-18.367zm3.4844 6.0176h11.4v1.9004h-11.4v-1.9004zm0 4.4336h11.4v1.8984h-11.4v-1.8984z" fill="#fff" style="paint-order:stroke markers fill"/>
</svg>
