<?xml version="1.0" encoding="UTF-8"?>
<svg version="1.1" viewBox="0 0 48 48" xmlns="http://www.w3.org/2000/svg">
    <path d="m23.999 4.0003c-6.4816 0-12.135 1.2549-16.805 3.7295v19.784c0 4.1629 1.5641 7.6439 4.5225 10.069 2.7468 2.2532 11.242 5.9664 12.283 6.4174 0.98722-0.42966 9.5829-4.2003 12.286-6.4174 2.9567-2.4238 4.5213-5.9059 4.5213-10.069v-19.784c-4.6704-2.4749-10.324-3.7298-16.808-3.7298zm9.5974 3.8307c1.9329 0.025255 3.8308 0.14467 5.6653 0.31517v19.367c0 3.7218-1.3505 6.7282-3.9562 8.8745-2.3279 1.917-9.3474 5.0621-11.306 5.9254-1.9849-0.87505-9.0221-4.0597-11.308-5.9246-2.5903-2.1096-3.9538-5.1873-3.9538-8.8745v-11.317c7.4438-6.8266 16.483-8.4757 24.858-8.3661zm-9.1592 9.0182c-1.5948 0-2.8815 0.35647-3.9409 1.0403v19.055h2.9249v-6.1561c0.2919 0.08609 0.71559 0.16656 1.3158 0.16656 3.2445 0 5.1093-2.9248 5.1093-7.1952 0-4.2621-1.9202-6.9106-5.4091-6.9106zm9.9942 0c-1.9236 0.05576-3.9352 1.4492-3.923 3.8115 0.0049 1.5554 0.43611 2.7186 2.8467 4.1331 1.2865 0.75514 1.8048 1.2528 1.827 2.1703 0.0246 1.02-0.68017 1.635-1.7527 1.6309-0.9331-0.0074-2.0486-0.52523-2.7955-1.1902v2.6917c0.91585 0.54609 2.0587 0.90706 3.2132 0.90706 2.8895 0 4.1798-2.0411 4.2355-3.9114 0.05494-1.7047-0.41613-2.9946-2.8596-4.4303-1.0905-0.63956-1.9517-1.0599-1.923-2.1242 0.0287-1.0389 0.89119-1.4039 1.7193-1.3965 1.0217 9e-3 2.0099 0.57484 2.62 1.2005v-2.5418c-0.51411-0.39604-1.6026-0.99982-3.208-0.95062zm-24.2 0.29595v9.1913c0 3.0986 1.4657 4.6673 4.3585 4.6673 1.79 0 3.2892-0.41427 4.406-1.1736v-12.685h-2.9185v11.021c-0.31814 0.21811-0.79004 0.35745-1.3837 0.35745-1.3398 0-1.54-1.2286-1.54-2.0576v-9.3206h-2.9224zm14.226 2.0589c1.6964 0 2.3996 1.3544 2.3996 4.6302 1e-6 3.1962-0.80421 4.7404-2.4867 4.7404-0.39604 0-0.74025-0.09808-0.94937-0.1768v-8.9821c0.23697-0.11807 0.63961-0.2114 1.0365-0.2114z" fill="#fff" stroke-width=".65596"/>
</svg>
