<svg xmlns:rdf="http://www.w3.org/1999/02/22-rdf-syntax-ns#" xmlns="http://www.w3.org/2000/svg" viewBox="0 0 48 48" width="48" version="1.1" xmlns:cc="http://creativecommons.org/ns#" height="48" xmlns:dc="http://purl.org/dc/elements/1.1/">
 <path fill="#fff" d="m10 22c-1.11 0-2 0.892-2 2v3.6c0.556-0.18 0.845-0.276 1.77-0.557 1.64-0.499 3.86-1.12 6.64-1.71 5.4-1.1 13-2.2 22.6-2.3h0.7c-0.3-0.6-1-1-1.7-1h-28zm29.9 3c-9.93 0-17.6 1.11-23 2.28-2.72 0.586-4.88 1.19-6.48 1.67-1.22 0.3-1.78 0.5-2.4 0.7v12.3c0 1.11 0.892 2 2 2h28c1.11 0 2-0.892 2-2v-17h-0.125zm-13.2 2.7-0.2 2.4l1.84 1.45-2.27 0.578-0.812 2.2-1.25-1.98-2.34-0.0918 1.5-1.8-0.637-2.26 2.18 0.867 1.95-1.3zm-11.7 3.3l-0.152 2.34 1.84 1.45-2.27 0.578-0.812 2.2-1.3-2-2.3-0.1 1.5-1.8-0.6-2.3 2.1 0.9 2-1.3zm17.4 0.672a5 5 0 0 1 3.95 1.79 5 5 0 0 1 0 6.43 5 5 0 0 1 -5.83 1.36 5 5 0 0 0 3 -4.58 5 5 0 0 0 -3 -4.58 5 5 0 0 1 1.88 -0.418zm-9.47 3.88-0.152 2.34 1.84 1.45-2.27 0.578-0.812 2.2-1.25-1.98-2.35-0.0918 1.5-1.8-0.637-2.26 2.18 0.869 1.95-1.3z"/>
 <path fill="#fff" d="m13 4.01c-0.1 0.02-0.3 0.06-0.4 0.15-0.6 0.33-0.9 1.09-0.5 1.69l3 5.35c-4.3 2.9-7.1 7.8-7.1 13.3h12.8c6.6-0.7 13.5-1.5 19.1-1.5-0.4-4.9-3.1-9.2-7-11.8l3-5.35c0.4-0.6 0.1-1.36-0.5-1.69-0.6-0.34-1.3-0.12-1.7 0.48l-2.9 5.36c-2.1-0.95-4.4-1.5-6.8-1.5s-4.7 0.55-6.8 1.5l-2.9-5.36c-0.3-0.45-0.8-0.68-1.3-0.63zm1 12.5a4 4 0 0 0 3.5 2 4 4 0 0 0 3.5 -2 3.5 3.5 0 0 1 -3.5 3.5 3.5 3.5 0 0 1 -3.5 -3.5zm13 0a4 4 0 0 0 3.5 2 4 4 0 0 0 3.5 -2 3.5 3.5 0 0 1 -3.5 3.5 3.5 3.5 0 0 1 -3.5 -3.5z"/>
</svg>
