<?xml version="1.0" encoding="utf-8"?>
<!-- Generator: Adobe Illustrator 21.1.0, SVG Export Plug-In . SVG Version: 6.00 Build 0)  -->
<svg version="1.0" id="Layer_1" xmlns="http://www.w3.org/2000/svg" xmlns:xlink="http://www.w3.org/1999/xlink" x="0px" y="0px"
	 viewBox="0 0 48 48" enable-background="new 0 0 48 48" xml:space="preserve">
<path fill="#FFFFFF" d="M7.6,43c-0.2-0.1-0.3-0.2-0.4-0.2c-1.2-0.4-1.6-1.5-1.6-2.6c0-4.6,0-9.2,0-13.8c0-0.7,0.3-1.3,0.3-1.9
	c0-0.6,0.4-1.2,0.4-1.7c0.1-0.8,0.4-1.5,0.6-2.3c0.2-0.9,0.7-1.8,1.3-2.6c1.4-2.2,2.6-3.5,4.3-5.1c0.3-0.2,0.6-0.4,0.9-0.6
	c-1-2.1-2.5-3.9-3.4-6.1c0.1-0.1,0.2-0.3,0.3-0.6c0.2-0.1,0.4-0.2,0.7-0.3c0.6,0.2,0.9,0.7,1.2,1.2c0.7,1.1,1.4,2.3,2.1,3.4
	c0.3,0.4,0.5,0.9,0.8,1.3c0.7-0.3,1.3-0.6,1.9-0.9c0.6-0.3,1.2-0.6,1.9-0.7c0.7-0.1,1.4-0.5,2.1-0.5c0.7,0,1.4-0.3,2.1-0.3
	c0.8,0,1.5,0,2.3,0c0.7,0,1.3,0.3,2.1,0.3c0.7,0,1.4,0.3,2.1,0.5c0.6,0.2,1.3,0.4,1.9,0.6c0.6,0.3,1.3,0.6,1.9,0.9
	c1.3-1.9,2.3-3.9,3.7-5.7c0.5,0,0.9-0.1,1.1,0.3c0.3,0.8-0.2,1.4-0.6,2c-0.8,1.3-1.7,2.5-2.4,3.8c-0.1,0.2-0.3,0.3-0.4,0.4
	c1.1,1,2.3,2,3.3,3.1c1.5,1.7,2.8,3.6,3.5,5.9c0.1,0.5,0.5,1,0.5,1.6c0.5,0.4-0.1,1.1,0.5,1.5c0,0,0,0.1,0,0.1
	c0.1,1.1,0.2,2.2,0.2,3.3c0,4.2,0,8.3,0,12.5c0,0.5,0,0.9-0.2,1.4c-0.3,0.7-0.6,1.2-1.3,1.5c-0.2,0.1-0.4,0.2-0.7,0.3
	C29.5,43,18.5,43,7.6,43z M13.7,35.5c2.4,0,4.7,0,7.1,0c0.4,0.3,0.8,0.6,1.2,1c1.1,1.1,2.1,2.3,3.2,3.4c0.7,0.8,1.7,1.2,2.8,1.1
	c0.8,0,1.7,0,2.6,0c0,0.4,0,0.8,0,1.2c1.2,0,2.4,0,3.6,0c0-0.6,0-1.2,0-1.8c0-0.6,0.1-1.2,0-1.7c-1.2,0-2.4,0-3.5,0
	c-0.1,0.4,0.1,0.9-0.4,1.1c-0.9,0-1.9,0-2.9,0c-0.4-0.3-1-0.5-1.3-1c-0.4-0.6-0.9-1-1.3-1.5c-0.6-0.6-1.1-1.2-1.8-1.8
	c4.8,0,9.4,0,14,0c0,0.3,0,0.5,0,0.8c0,0.2,0,0.4,0.1,0.7c1.2-0.7,2.4-1.4,3.6-2.1c-1.3-0.7-2.4-1.4-3.7-2.1c0,0.6,0,1,0,1.5
	c-6.2,0-12.4,0-18.6,0c0.6-0.6,1.1-1.1,1.7-1.7c0.4-0.4,1-0.8,1.2-1.3c0.5-1,1.4-1.2,2.4-1.3c0.8,0,1.6,0,2.3,0
	c0.4,0.5,0.8,0.9,1.1,1.2c0.6,0,1.1,0,1.6,0c0.7-0.6,1.3-1.3,1-2.3c-0.2-1-0.9-1.2-1.7-1.3c-0.9-0.2-1.4,0.7-2,1.2
	c-0.9,0-1.8,0-2.7,0c-0.7,0-1.2,0.3-1.8,0.6c-0.9,0.5-1.6,1.3-2.2,2.1c-0.7,0.9-1.5,1.5-2.2,2.3c-0.3,0.3-0.7,0.5-1.2,0.5
	c-0.6,0-1.2,0-1.8,0c-0.1,0-0.1-0.1-0.3-0.1c-0.1-0.2-0.2-0.5-0.2-0.5c-1-1.6-2.2-2-3.5-1.7c-1.2,0.4-1.8,1.2-2.3,2.1
	c0,0.7,0,1.4,0,2c0.5,1,1.3,1.5,2.1,1.9C12,38.2,12.7,37.6,13.7,35.5z M31.3,17c-1.4,0.9-1.6,1.2-1.5,2.8c0.3,0.5,0.7,1,1,1.5
	c0.7,0,1.2,0,1.6,0c0.9-0.3,1.4-0.9,1.7-1.6c0-1.5-0.2-1.8-1.6-2.7C32.1,17,31.7,17,31.3,17z M16.6,17c-0.3,0-0.7,0-1,0
	c-1.3,0.6-1.9,1.4-1.7,2.6c0.3,0.9,0.9,1.4,1.6,1.7c0.4,0,0.8,0,1.1,0c0.9-0.3,1.3-0.9,1.7-1.6C18.5,18.5,17.8,17.6,16.6,17z"/>
</svg>
