<?xml version="1.0" encoding="UTF-8"?>
<svg version="1.1" viewBox="0 0 48 48" xmlns="http://www.w3.org/2000/svg">
    <path d="m5 9.8078v7.166s16.487 7e-3 23.816-2e-3c2.8182 0.0151 8.4813 0.202 7.9473 1.6973h-15.496l2.4258 7.5117c2.1462-1.1267 9.6028-4.0988 13.498-4.2812 1.277-0.0644 2.0284-0.0319 2.0605 0.36524 0 0.15023-0.31135 0.2687-1.0625 0.4082-1.9315 0.34338-5.2567 1.3626-6.0293 1.6309-4.067 1.3843-8.4673 3.5506-11.654 5.1816-5.1556 2.5755-15.506 7.6477-15.506 7.6477v1.0594l36.291-14.18s2.919-4.4196 1.127-5.9219c-0.59019-0.50434-1.0193-0.64451-4.4316-0.62305 0 0 0.15106-0.94428-4.7207-1.8027zm32.191 8.9898h2.1582c1.3628 0 2.3397 0.17211 2.2109 1.3203-0.0966 0.81553-0.96701 2.3928-1.1602 2.6074-0.19316 0.21463-0.52522 0.24656-0.35352-0.23633 0.43996-1.2448 0.86858-2.1896 0.33204-2.3613-1.0087-0.32191-4.3448 0.37695-6.2012 0.37695-0.80481 0-0.90135-0.10764-0.89062-0.30078 0.0107-0.21462 0.15978-0.27934 0.72851-0.32227 0.59019-0.0537 1.8355-0.18189 2.3184-0.41797 0.31119-0.16096 0.40832-0.25797 0.51563-0.4082 0.1395-0.18242 0.22376-0.25781 0.3418-0.25781z" fill="#fff"/>
</svg>
