<?xml version="1.0" encoding="UTF-8"?>
<svg version="1.1" viewBox="0 0 48 48" xmlns="http://www.w3.org/2000/svg">
    <style type="text/css">.st0{fill:#FFFFFF;}</style>
    <path d="m19.795 3c-0.525 0-0.95502 0.38931-1.0391 0.88281l-0.78711 5.5645c-1.2692 0.5294-2.4626 1.2249-3.5488 2.0684l-5.2285-2.1094c-0.47993-0.18329-1.0221 0.0076-1.2812 0.45117l-4.2012 7.2773c-0.2625 0.4515-0.14705 1.0182 0.25195 1.3438l4.4316 3.4746c-0.09129 0.6786-0.14021 1.3622-0.14648 2.0469 0 0.693 0.062484 1.3768 0.14648 2.0488l-4.4316 3.4746c-0.399 0.315-0.51445 0.8817-0.25195 1.3438l4.2012 7.2773c0.2625 0.4515 0.8088 0.64017 1.2812 0.45117l5.2285-2.1113c1.0815 0.8295 2.2678 1.5348 3.5488 2.0703l0.78711 5.5645c0.084 0.4935 0.51402 0.88086 1.0391 0.88086h8.4004c0.525 0 0.95502-0.38736 1.0391-0.88086l0.78711-5.5645c1.27-0.52984 2.4641-1.226 3.5508-2.0703l5.2285 2.1113c0.47993 0.18329 1.0221-0.0076 1.2812-0.45117l4.1992-7.2773c0.2625-0.4515 0.14705-1.0182-0.25195-1.3438l-4.4316-3.4746c0.084-0.672 0.14844-1.3558 0.14844-2.0488s-0.06444-1.3749-0.14844-2.0469l4.4414-3.4746c0.399-0.315 0.51445-0.8817 0.25195-1.3438l-4.1992-7.2773c-0.2625-0.4515-0.8088-0.64017-1.2812-0.45117l-5.2285 2.1094c-1.0815-0.8295-2.2678-1.5329-3.5488-2.0684l-0.78711-5.5645c-0.0945-0.4935-0.52576-0.88281-1.0508-0.88281h-8.4004zm-1.1074 11c0.41404 0.01529 1.0214 0.21587 1.8281 0.68164l12.906 7.4531c1.9361 1.1178 1.9361 2.6068 0 3.7246l-12.906 7.4531c-3.2268 1.8631-3.2299-0.48741-0.6875-1.9766l10.172-5.8711c1.5255-0.88076 1.5255-2.0548 0-2.9355l-10.172-5.873c-1.9068-1.086-2.3828-2.7021-1.1406-2.6562zm1.3184 5.5801c0.17714 0.0236 0.37769 0.09679 0.5957 0.22266l5.8145 3.3555c0.87204 0.50348 0.87204 1.1782 0 1.6816l-5.8145 3.3574c-0.87205 0.50347-1.4531 0.16516-1.4531-0.8418v-6.7129c1e-6 -0.75522 0.32602-1.1333 0.85742-1.0625z" fill="#fff" stroke-width="1.05"/>
</svg>
