<?xml version="1.0" encoding="utf-8"?>
<!-- Generator: Adobe Illustrator 21.1.0, SVG Export Plug-In . SVG Version: 6.00 Build 0)  -->
<svg version="1.0" id="Layer_1" xmlns="http://www.w3.org/2000/svg" xmlns:xlink="http://www.w3.org/1999/xlink" x="0px" y="0px"
	 viewBox="0 0 48 48" enable-background="new 0 0 48 48" xml:space="preserve">
<g>
	<path fill="#FFFFFF" d="M24,25.2c-3.3,0-6,2.7-6.1,6c0,3.3,2.7,6,6,6c3.3,0,6-2.7,6.1-6C30,27.9,27.4,25.2,24,25.2z M24,33.9
		c-1.5,0-2.7-1.3-2.7-2.8c0-1.5,1.3-2.7,2.8-2.7c1.5,0,2.7,1.3,2.7,2.7C26.7,32.7,25.5,33.9,24,33.9z"/>
	<path fill="#FFFFFF" d="M24,11.5c-3.3,0-6,2.7-6,6.1c0,3.3,2.7,6,6,6c3.3,0,6-2.7,6-6C30,14.2,27.3,11.5,24,11.5z M24,20.2
		c-1.5,0-2.7-1.2-2.7-2.7c0-1.5,1.2-2.7,2.7-2.7c1.5,0,2.7,1.2,2.8,2.7C26.7,19,25.5,20.2,24,20.2z"/>
	<path fill="#FFFFFF" d="M38,4H10C8.9,4,8,4.9,8,6v36c0,1.1,0.9,2,2,2h28c1.1,0,2-0.9,2-2V6C40,4.9,39.1,4,38,4z M34.6,32.8
		c0,1.1-0.1,2.3-0.3,3.4c-0.3,1.3-1.1,2.3-2.3,2.8c-0.1,0-0.1,0.1-0.2,0.1c0,0.5,0,1,0,1.5c-1.1,0-2.2,0-3.4,0c0-0.3,0-0.6,0-1
		c-2.9,0-5.7,0-8.6,0c0,0.3,0,0.6,0,1c-1.1,0-2.3,0-3.4,0c0-0.5,0-1,0-1.4c-0.5-0.4-1-0.6-1.4-1c-1-0.9-1.3-2-1.4-3.3
		c-0.1-2.5-0.1-5-0.1-7.6c0-4,0-8,0-12c0-1.6,0.3-3,1-4.4c0.9-1.6,2.1-2.8,3.9-3.3c0.6-0.2,1.1-0.2,1.7-0.2c2.6,0,5.3,0,7.9,0
		c2.7,0,4.5,1.3,5.8,3.5c0.7,1.3,1,2.8,1,4.3C34.6,21.1,34.7,27,34.6,32.8z"/>
</g>
</svg>
