<?xml version="1.0" encoding="utf-8"?>
<!-- Generator: Adobe Illustrator 21.1.0, SVG Export Plug-In . SVG Version: 6.00 Build 0)  -->
<svg version="1.0" id="Layer_1" xmlns="http://www.w3.org/2000/svg" xmlns:xlink="http://www.w3.org/1999/xlink" x="0px" y="0px"
	 viewBox="0 0 48 48" enable-background="new 0 0 48 48" xml:space="preserve">
<path fill="#FFFFFF" d="M24,2C11.8,2,2,11.8,2,24s9.8,22,22,22s22-9.8,22-22S36.2,2,24,2z M35.4,33.7c-0.3,1.3,0.7,3.3-1.7,3.8
	c0,0.3-0.1,0.5-0.1,0.8c-0.2,1.5-1.5,2.6-3.1,2.6c-1.6,0-3-1.2-3-2.7c-0.1-3.1-0.1-6.3,0-9.4c0-1.5,1.4-2.7,2.9-2.7
	c1.6,0,2.9,1,3.1,2.6c0,0.2,0.1,0.5,0.1,0.6c0.6,0.4,1.1,0.8,1.6,1.1c2.6-3.6,3-10.2-0.6-14.7c-0.9,0.1-1.6-0.4-2.3-1
	c-4.8-4.3-11.9-4.3-16.7,0.1c-0.6,0.6-1.3,1-2.1,0.9C10.7,19.2,10,25.8,13,30.4c0.5-0.3,1-0.7,1.6-1.1c0.1-0.3,0.1-0.7,0.2-1.1
	c0.4-1.5,1.8-2.3,3.4-2.2c1.4,0.2,2.6,1.4,2.7,2.8c0.1,3,0.1,6.1,0,9.1c0,1.5-1.3,2.8-2.9,2.9c-1.6,0.1-3-1-3.3-2.6
	c0-0.2-0.1-0.5-0.1-0.8c-2.4-0.5-1.4-2.5-1.7-4c-4.8-5.5-4.9-13.4-0.8-19c-0.5-1.3,0.1-2.2,1.1-3c2.6-2.2,5.5-3.6,8.9-4.1
	c0.2,0,0.3-0.1,0.5-0.2c1.1,0,2.2,0,3.4,0c1,0.2,2,0.4,2.9,0.7c2.6,0.7,4.8,2,6.7,3.8c0.8,0.8,1.2,1.6,0.8,2.7
	C40.6,21.1,40.3,27.4,35.4,33.7z"/>
</svg>
