<?xml version="1.0" encoding="UTF-8" standalone="no"?>
<svg
   xmlns:dc="http://purl.org/dc/elements/1.1/"
   xmlns:cc="http://creativecommons.org/ns#"
   xmlns:rdf="http://www.w3.org/1999/02/22-rdf-syntax-ns#"
   xmlns:svg="http://www.w3.org/2000/svg"
   xmlns="http://www.w3.org/2000/svg"
   xmlns:sodipodi="http://sodipodi.sourceforge.net/DTD/sodipodi-0.dtd"
   xmlns:inkscape="http://www.inkscape.org/namespaces/inkscape"
   width="48"
   height="48"
   viewBox="0 0 48 48"
   version="1.1"
   id="svg4"
   sodipodi:docname="vasttrafik-to-go.svg.2018_09_03_19_27_46.0.svg"
   inkscape:version="0.92.3 (2405546, 2018-03-11)">
  <metadata
     id="metadata10">
    <rdf:RDF>
      <cc:Work
         rdf:about="">
        <dc:format>image/svg+xml</dc:format>
        <dc:type
           rdf:resource="http://purl.org/dc/dcmitype/StillImage" />
        <dc:title></dc:title>
      </cc:Work>
    </rdf:RDF>
  </metadata>
  <defs
     id="defs8" />
  <sodipodi:namedview
     pagecolor="#000000"
     bordercolor="#666666"
     borderopacity="1"
     objecttolerance="10"
     gridtolerance="10"
     guidetolerance="10"
     inkscape:pageopacity="0"
     inkscape:pageshadow="2"
     inkscape:window-width="1920"
     inkscape:window-height="1037"
     id="namedview6"
     showgrid="false"
     inkscape:pagecheckerboard="true"
     inkscape:snap-bbox="true"
     inkscape:bbox-nodes="true"
     inkscape:snap-object-midpoints="true"
     showguides="true"
     inkscape:guide-bbox="true"
     inkscape:snap-smooth-nodes="true"
     inkscape:zoom="11.313709"
     inkscape:cx="38.718385"
     inkscape:cy="23.50296"
     inkscape:window-x="1920"
     inkscape:window-y="43"
     inkscape:window-maximized="1"
     inkscape:current-layer="svg4">
    <inkscape:grid
       type="xygrid"
       id="grid4760"
       empspacing="4" />
  </sodipodi:namedview>
  <path
     style="fill:#ffffff;fill-opacity:1"
     d="M 7,5 C 5.892,5 5,5.892 5,7 v 34 c 0,1.108 0.892,2 2,2 h 34 c 1.108,0 2,-0.892 2,-2 V 7 C 43,5.892 42.108,5 41,5 Z m 20.382812,8.349609 c 1.560112,-0.01244 3.064621,0.843128 3.490235,2.341797 0.116695,0.410908 0.144531,0.853516 0.144531,0.853516 l -1.771484,0.107422 c 0,0 -0.09128,-0.245649 -0.154297,-0.419922 -0.264394,-0.73117 -0.68781,-1.018187 -1.580078,-1.06836 -0.92413,-0.05197 -1.461189,0.207984 -1.824219,0.882813 -0.302836,0.562934 -0.307131,2.036163 -0.0078,2.591797 0.590158,1.095384 2.175955,1.397558 3.128906,0.595703 0.211046,-0.177588 0.384765,-0.37598 0.384765,-0.439453 0,-0.06347 -0.399052,-0.115234 -0.886718,-0.115234 h -0.886719 v -0.759766 -0.759766 h 1.835937 1.837891 v 2.027344 2.025391 h -0.886719 -0.886719 v -0.636719 l -0.509765,0.33789 c -0.411052,0.272021 -0.689056,0.346559 -1.425781,0.378907 -0.503066,0.02209 -1.094074,-0.01655 -1.3125,-0.08398 -0.633875,-0.1957 -1.591209,-0.903379 -1.966797,-1.453125 -0.190387,-0.278667 -0.445074,-0.921889 -0.566407,-1.429687 -0.191772,-0.802601 -0.200578,-1.025156 -0.06055,-1.703125 0.218951,-1.060055 0.521949,-1.607731 1.255859,-2.267578 0.755703,-0.679442 1.71237,-0.998393 2.648437,-1.00586 z M 9.8125,13.486328 h 3.673828 3.673828 v 0.824219 0.822265 H 15.830078 14.5 v 3.041016 3.039063 H 13.486328 12.472656 V 18.173828 15.132812 H 11.142578 9.8125 v -0.822265 z m 24.957031,2.128906 c 0.400788,-0.02512 0.818951,0.02471 1.230469,0.158204 0.708275,0.229755 1.132,0.574481 1.517578,1.232421 0.468716,0.799802 0.491892,2.113031 0.05078,2.876953 -0.717079,1.24186 -2.302825,1.782411 -3.736328,1.271485 -0.727046,-0.259134 -1.392023,-0.973063 -1.640625,-1.761719 -0.259798,-0.824174 -0.26234,-1.003392 -0.02148,-1.814453 0.339052,-1.141712 1.397245,-1.887526 2.599609,-1.962891 z m -16.345703,0.01172 c 0.995533,-0.05982 2.018571,0.312845 2.591797,1.144531 1.005373,1.458682 0.522518,3.404556 -1.066406,4.302735 -0.380228,0.214934 -1.826458,0.303342 -2.328125,0.142578 -0.617721,-0.197956 -1.288835,-0.741734 -1.605469,-1.302735 -0.412871,-0.731508 -0.423591,-2.068587 -0.02148,-2.841796 0.464962,-0.894069 1.434155,-1.385494 2.429687,-1.445313 z m 16.535156,1.40625 c -0.25564,0.01225 -0.512663,0.118081 -0.695312,0.3125 -0.604641,0.643611 -0.42657,2.180209 0.287109,2.474609 0.356682,0.147136 0.850682,0.04401 1.138672,-0.238281 0.45901,-0.449924 0.433249,-1.826521 -0.04297,-2.302734 -0.177174,-0.177174 -0.43186,-0.258347 -0.6875,-0.246094 z m -16.429687,0.0059 c -0.64036,0.03468 -0.990235,0.550757 -0.990235,1.480469 0,0.664438 0.241273,1.123858 0.679688,1.300781 0.359959,0.145262 0.39262,0.146908 0.763672,0.0059 0.407275,-0.154847 0.710937,-0.742909 0.710937,-1.375 0,-0.603711 -0.459036,-1.337013 -0.873047,-1.396484 -0.103222,-0.01483 -0.199535,-0.02058 -0.291015,-0.01563 z m 12.728515,10.142579 c 1.904142,-0.0017 3.79712,0.904364 4.917969,2.638671 0.459612,0.711166 0.461178,0.892579 0.0059,0.892579 -0.280529,0 -0.44889,-0.124245 -0.773438,-0.576172 -0.228132,-0.317667 -0.692239,-0.798433 -1.03125,-1.066407 -0.586323,-0.46346 -1.702887,-0.994378 -1.828125,-0.86914 -0.03226,0.03226 -0.168818,0.596857 -0.304687,1.253906 -0.13587,0.657049 -0.336329,1.407005 -0.445313,1.666016 -0.108986,0.259014 -0.199219,0.521032 -0.199219,0.582031 0,0.061 0.28371,0.349857 0.63086,0.642578 l 0.632812,0.533203 0.666016,-0.5 c 0.89077,-0.667487 1.88429,-1.187792 2.884765,-1.511718 0.841746,-0.272533 2.025391,-0.488492 2.025391,-0.369141 0,0.03653 -0.241026,0.185209 -0.537109,0.332031 -0.920178,0.456302 -0.993887,0.543758 -0.853516,1.033203 0.06795,0.236945 0.123874,0.7749 0.123047,1.19336 -0.0052,2.634328 -1.876266,5.021945 -4.478516,5.714843 -0.881961,0.234838 -2.26924,0.201216 -3.152343,-0.07617 -2.433937,-0.764518 -4.148438,-3.094782 -4.148438,-5.638671 0,-0.815269 0.28911,-2.216797 0.457031,-2.216797 0.05664,0 0.559886,0.24018 0.650391,0.310547 0.01632,0.01269 -0.05582,0.433218 -0.160156,0.933593 -0.165843,0.795388 -0.167474,1.016172 -0.0098,1.763672 0.213085,1.009639 0.408037,1.552735 0.558594,1.552735 0.172725,0 1.562043,-0.996133 2.068359,-1.482422 0.453816,-0.435867 0.467514,-0.437856 0.792969,-0.22461 0.181848,0.11915 0.330078,0.26302 0.330078,0.320313 0,0.152047 -1.5793,1.467168 -2.160156,1.798828 -0.273426,0.156125 -0.49751,0.351174 -0.498047,0.433594 -0.0015,0.237369 1.022164,1.014421 1.84375,1.398437 0.663501,0.310124 0.898315,0.350964 2.019531,0.351563 1.173807,6.33e-4 1.333139,-0.02988 2.097656,-0.40625 1.038308,-0.511157 1.92069,-1.374557 2.423829,-2.369141 0.331184,-0.654668 0.398738,-0.951933 0.449218,-1.974609 l 0.06055,-1.203125 -0.533203,0.507812 c -0.685776,0.652121 -1.844057,2.402163 -2.410156,3.642578 -0.243833,0.534279 -0.471027,0.972757 -0.505859,0.97461 -0.03483,0.0018 -0.200651,-0.237657 -0.367188,-0.533203 -0.721905,-1.281125 -1.542413,-2.37553 -2.546875,-3.392578 -1.231352,-1.246782 -2.336229,-2.060069 -3.757813,-2.767579 -1.05535,-0.52524 -3.181689,-1.28125 -3.603515,-1.28125 -0.139482,0 -0.218838,-0.05729 -0.175781,-0.126953 0.11808,-0.191058 2.412108,-0.151451 3.416015,0.05859 l 0.88086,0.183594 0.439453,-0.4375 c 1.137466,-1.137466 2.624469,-1.688159 4.105468,-1.689453 z m -0.05859,0.761718 c -0.552526,0.06353 -1.610506,0.322824 -2.080078,0.541016 -0.97559,0.453319 -1.779074,1.214844 -1.28125,1.214844 0.206794,0 2.048577,0.905865 2.558593,1.257812 0.209,0.144225 0.38645,0.261261 0.394532,0.261719 0.0081,5.07e-4 0.13403,-0.32598 0.279296,-0.726562 0.278919,-0.769136 0.587183,-2.424539 0.472657,-2.539063 -0.0315,-0.0315 -0.159575,-0.03094 -0.34375,-0.0098 z"
     id="rect2"
     inkscape:connector-curvature="0"
     sodipodi:nodetypes="ssssssssssccccccccsscccccccccccccccsssccccccccccccccccccccccsccssccccscccscccsscsccsssccsccsccccscccscsscccsccsccccsccccsccscsccccscssscccc" />
</svg>
