<svg height="48" viewBox="0 0 12.7 12.7" width="48" xmlns="http://www.w3.org/2000/svg"><path d="m1.8520832 1.3229165c-.2931584 0-.5291667.236007-.5291667.529167v6.452319l1.0996745.512631-.082166.176733-1.0175089-.47439v2.3285405c.0000004.29316.2360087.529167.5291671.529167h8.9958338c.293158 0 .529167-.236007.529167-.529167v-2.3285405l-1.017509.47439-.08217-.176733 1.099675-.512631v-6.452319c0-.29316-.236009-.529167-.529167-.529167zm1.8727539 1.731678a.68189205.68189205 0 0 1 .6816121.682129.68189205.68189205 0 0 1 -.6816121.681612.68189205.68189205 0 0 1 -.6821289-.681612.68189205.68189205 0 0 1 .6821289-.682129zm1.8102254 4.809008.066663.183452-3.1124715 1.132747-.066663-.183451zm4.6756845 1.130164.06666.182935-3.1124715 1.1327475-.06666-.182935z" fill="#fff" stroke-width=".264583"/></svg>