<svg width="48" height="48">
  <g>
    <path
       style="opacity:1;fill:#ffffff;fill-opacity:1;stroke:#ffffff;stroke-opacity:0"
       d="m 22.5,0.5 a 22,22 0 0 0 -22,22 22,22 0 0 0 22,22 22,22 0 0 0 22,-22 22,22 0 0 0 -22,-22 z m 2.150391,6.3457031 c 0,0 5.875572,0.3885431 6.435547,0.4394531 0.559971,0.050906 0.783203,0.5585938 0.783203,0.5585938 0,0 7.37118,22.847061 7.65625,23.722656 0.28509,0.875593 -0.508776,1.099399 -0.916016,1.34375 -0.40726,0.244352 -8.267696,1.690863 -8.695313,1.751953 -0.427614,0.06109 -0.589843,-0.46875 -0.589843,-0.46875 0,0 -3.257147,-17.857541 -3.369141,-18.285156 -0.111995,-0.427617 -0.439453,0 -0.439453,0 0,0 -12.093953,13.967724 -12.328125,14.232422 -0.234169,0.264728 -0.581695,0.04196 -0.876953,-0.0293 C 12.015289,30.040055 7.2314316,28.247007 6.6816406,28.0332 6.1318486,27.819392 6.2949219,27.287106 6.2949219,27.287106 c 0,0 2.5050256,-14.626466 2.5410156,-14.78125 0.035997,-0.15478 0.46875,-0.193359 0.46875,-0.193359 l 2.6777345,-0.361328 c 0,0 1.554711,-0.258701 1.921875,-0.337891 0.36716,-0.07919 0.302734,0.28125 0.302734,0.28125 0,0 -0.387912,6.335703 -0.382812,6.748047 0.0051,0.412346 0.253906,0.05078 0.253906,0.05078 0,0 9.677814,-11.1350094 9.962891,-11.5117184 0.285077,-0.376715 0.609375,-0.3359375 0.609375,-0.3359375 z"/>
  </g>
</svg>
