<?xml version="1.0" encoding="UTF-8"?>
<svg version="1.1" viewBox="0 0 48 48" xmlns="http://www.w3.org/2000/svg">
    <path d="m13.287 6.0156c-2.5991 0-4.6914 2.0923-4.6914 4.6914v10.176c0.80336 0.2401 1.4338 0.57594 1.9375 0.75391a1.3295 1.3295 0 0 1 0.35156 0.1875c0.00721 0.00537 6.61e-4 0.001916 0.005859 0.005859-0.003983-3.3e-4 -0.008964 0.006994 0.089844-0.042969 0.14018-0.070883 0.54953-0.29608 0.83594-0.47656 0.058784-0.41536 0.11702-0.83083 0.17578-1.2461a1.3295 1.3295 0 0 1 0.035156-0.16602c0.002357-0.008591 0.014852-0.30739 0.083984-0.77148 0.066767-0.44822 0.33282-1.2084 0.99609-1.6484 0.070601-0.29043 0.32466-0.51562 0.64062-0.51562h5.3184c0.33231 0 0.60616 0.24621 0.66602 0.55859l0.001953 0.007813c0.19691 0.11228 0.38704 0.24782 0.54883 0.43945a1.3295 1.3295 0 0 1 0.27734 0.54492c0.24172 0.99833 0.31376 1.8968 0.43164 2.7383 0.053202 0.032419 0.060574 0.043145 0.30664 0.16602 0.14817 0.073986 0.38506 0.27945 0.57812 0.38476l1.1543-0.4668a1.3295 1.3295 0 0 1 0.16211-0.054688c0.007907-0.002062 0.2723-0.13826 0.70703-0.31055 0.42223-0.16733 1.2179-0.32427 1.9355 0.035156 0.28696-0.088231 0.60471 0.0268 0.76172 0.29688l2.6582 4.6055c0.16567 0.29157 0.09257 0.64792-0.1582 0.84766 0.002722 0.2342-0.019569 0.47452-0.10938 0.71875a1.3295 1.3295 0 0 1-0.34375 0.51562c-0.74232 0.68797-1.4782 1.2046-2.1523 1.7305-3.92e-4 0.060613-0.004999 0.063555 0.013671 0.33594 0.011416 0.16654-0.050948 0.4798-0.044921 0.70312l0.97852 0.76758a1.3295 1.3295 0 0 1 0.125 0.11133c0.00771 0.00781 0.26183 0.16898 0.62891 0.46094 0.35642 0.28348 0.88607 0.8947 0.93359 1.6953 0.10519 0.10258 0.1763 0.22947 0.19922 0.36914h8.9824c2.5991 0 4.6914-2.0923 4.6914-4.6914v-23.457h-7.3496l3.834 5.4746h-4.6914l-3.834-5.4746h-3.7539l3.834 5.4746h-4.6914l-3.834-5.4746h-3.7539l3.834 5.4746h-4.6914l-3.834-5.4746h-0.78125z" fill="#fff" style="paint-order:stroke markers fill"/>
    <path d="m25.123 31.399c0.0469-0.37533 0.0821-0.7565 0.0821-1.1436 0-0.38704-0.03523-0.76823-0.0821-1.1435l2.4806-1.9411c0.22285-0.17594 0.28736-0.49261 0.14075-0.75064l-2.3458-4.064c-0.14661-0.25216-0.45156-0.35772-0.71546-0.25216l-2.9205 1.1787c-0.60404-0.46328-1.2667-0.8562-1.9822-1.1553l-0.43983-3.1081c-0.05281-0.27563-0.29321-0.4926-0.58643-0.4926h-4.6915c-0.29322 0-0.53365 0.21698-0.58057 0.4926l-0.43983 3.1081a8.6793 8.6793 0 0 0-1.9822 1.1553l-2.9205-1.1787a0.58644 0.58644 0 0 0-0.71545 0.25216l-2.3458 4.064c-0.14661 0.25217-0.0821 0.56884 0.14074 0.75064l2.4748 1.9411a9.2071 9.2071 0 0 0-0.0821 1.1435c0 0.38706 0.03517 0.76824 0.0821 1.1436l-2.4748 1.9411c-0.22285 0.17593-0.28736 0.49262-0.14074 0.75064l2.3458 4.064c0.14661 0.25217 0.45156 0.35772 0.71545 0.25217l2.9205-1.1787c0.60405 0.4633 1.2667 0.8562 1.9822 1.1553l0.43983 3.1081c0.04688 0.27563 0.28735 0.49261 0.58057 0.49261h4.6915c0.29321 0 0.53365-0.21698 0.58056-0.49261l0.43982-3.1081a8.6793 8.6793 0 0 0 1.9822-1.1553l2.9205 1.1787a0.58644 0.58644 0 0 0 0.71546-0.25217l2.3458-4.064c0.14661-0.25216 0.0821-0.56884-0.14074-0.75064zm-8.7145 2.9615c-2.2695 0-4.1051-1.8356-4.1051-4.1051s1.8356-4.1051 4.1051-4.1051 4.1051 1.8356 4.1051 4.1051-1.8355 4.1051-4.1051 4.1051z" fill="#fff" stroke-width=".55851"/>
</svg>
