<?xml version="1.0" encoding="UTF-8"?>
<svg version="1.1" viewBox="0 0 48 48" xmlns="http://www.w3.org/2000/svg">
    <path d="m9.582 14.072v1.8574h28.836v-1.8574zm0 18.238v1.8574h28.836v-1.8574zm28.836-20.034v23.446h1.6747v-0.99654c0-0.30926 0.24897-0.55824 0.55824-0.55824h1.1165c0.30926 0 0.55824 0.24897 0.55824 0.55824v0.99654h1.6747v-23.446h-1.6987c0.0089 0.03976 0.02398 0.07742 0.02398 0.11994v1.1165c0 0.30926-0.24898 0.55824-0.55824 0.55824h-1.1165c-0.30926 0-0.55824-0.24897-0.55824-0.55824v-1.1165c0-0.04253 0.01506-0.08019 0.02398-0.11994zm2.233 4.0276h1.1165c0.30926 0 0.55824 0.24897 0.55824 0.55824v1.1165c0 0.30926-0.24897 0.55824-0.55824 0.55824h-1.1165c-0.30926 0-0.55824-0.24897-0.55824-0.55824v-1.1165c0-0.30926 0.24897-0.55824 0.55824-0.55824zm0 4.4659h1.1165c0.30926 0 0.55824 0.24897 0.55824 0.55824v1.1165c0 0.30926-0.24897 0.55824-0.55824 0.55824h-1.1165c-0.30926 0-0.55824-0.24897-0.55824-0.55824v-1.1165c0-0.30926 0.24897-0.55824 0.55824-0.55824zm0 4.4659h1.1165c0.30926 0 0.55824 0.24898 0.55824 0.55824v1.1165c0 0.30926-0.24897 0.55824-0.55824 0.55824h-1.1165c-0.30926 0-0.55824-0.24898-0.55824-0.55824v-1.1165c0-0.30926 0.24897-0.55824 0.55824-0.55824zm0 4.4659h1.1165c0.30926 0 0.55824 0.24898 0.55824 0.55824v1.1165c0 0.30926-0.24897 0.55824-0.55824 0.55824h-1.1165c-0.30926 0-0.55824-0.24898-0.55824-0.55824v-1.1165c0-0.30926 0.24897-0.55824 0.55824-0.55824zm-36.651-17.425v23.446h1.6747v-0.99654c0-0.30926 0.24897-0.55824 0.55824-0.55824h1.1165c0.30926 0 0.55824 0.24897 0.55824 0.55824v0.99654h1.6747v-23.446h-1.6987c0.0089 0.03976 0.02399 0.07742 0.02399 0.11994v1.1165c0 0.30926-0.24898 0.55824-0.55824 0.55824h-1.1165c-0.30926 0-0.55824-0.24897-0.55824-0.55824v-1.1165c0-0.04253 0.015062-0.08019 0.023986-0.11994zm2.233 4.0276h1.1165c0.30926 0 0.55824 0.24897 0.55824 0.55824v1.1165c0 0.30926-0.24897 0.55824-0.55824 0.55824h-1.1165c-0.30926 0-0.55824-0.24897-0.55824-0.55824v-1.1165c0-0.30926 0.24897-0.55824 0.55824-0.55824zm0 4.4659h1.1165c0.30926 0 0.55824 0.24897 0.55824 0.55824v1.1165c0 0.30926-0.24897 0.55824-0.55824 0.55824h-1.1165c-0.30926 0-0.55824-0.24897-0.55824-0.55824v-1.1165c0-0.30926 0.24897-0.55824 0.55824-0.55824zm0 4.4659h1.1165c0.30926 0 0.55824 0.24898 0.55824 0.55824v1.1165c0 0.30926-0.24897 0.55824-0.55824 0.55824h-1.1165c-0.30926 0-0.55824-0.24898-0.55824-0.55824v-1.1165c0-0.30926 0.24897-0.55824 0.55824-0.55824zm0 4.4659h1.1165c0.30926 0 0.55824 0.24898 0.55824 0.55824v1.1165c0 0.30926-0.24897 0.55824-0.55824 0.55824h-1.1165c-0.30926 0-0.55824-0.24898-0.55824-0.55824v-1.1165c0-0.30926 0.24897-0.55824 0.55824-0.55824z" fill="#fff" style="paint-order:stroke markers fill"/>
</svg>
