<?xml version="1.0" encoding="UTF-8"?>
<svg version="1.1" viewBox="0 0 48 48" xmlns="http://www.w3.org/2000/svg">
    <path d="m24 22.584-3.0035-1.7341-1e-6 -3.4682 3.0036-1.7341 3.0035 1.7341 1e-6 3.4682z" fill="#fff" style="paint-order:stroke markers fill"/>
    <path d="m12.411 24.847 5.84 10.373c5.8396 10.374 5.839 10.374 11.679 0l5.84-10.373c9.8527-17.503 9.9136-19.83-2.4159-19.83-5.6227-0.02479-5.6227 2.2017-5.6227 8.6716 5.5065 0.16265 4.9234 1.2083 1.0012 7.976l-2.3209 4.0047c-2.3209 4.0047-2.3209 4.0047-4.6418 0l-2.3209-4.0047c-3.9222-6.7678-4.5053-7.8134 1.0012-7.976 0.01749-4.4472 0-8.6964-5.6459-8.6886-13.115 0.01804-11.957 1.6798-2.3927 19.847z" fill="#fff" style="paint-order:stroke markers fill"/>
</svg>
