<svg id="svg4" width="48" height="48" version="1.1" viewBox="0 0 48 48" xmlns="http://www.w3.org/2000/svg">
 <path id="rect834" d="m2 2v44h44v-44zm31.623 5.5742c0.41866 0.00704 0.84373 0.051962 1.2695 0.13672 1.988 0.39572 3.8468 1.8261 4.7422 3.6484 1.8572 3.7799 0.01181 8.1816-4.0332 9.6172-0.54779 0.19442-2.8123 0.33748-3.4238 0.2168-1.2837-0.2533-2.5293-0.95119-3.5645-1.998-1.3696-1.3851-1.927-2.7687-1.9316-4.791-0.0025-1.107 0.04643-1.4443 0.31836-2.2012 1.0341-2.8784 3.6924-4.6782 6.623-4.6289zm-0.13672 2.3086c-1.467 0.00538-2.7482 0.6358-3.5977 1.7695-0.72072 0.96196-0.92101 1.5669-0.91797 2.7754 3e-3 1.206 0.20584 1.8307 0.89258 2.7598 0.57529 0.77828 1.5146 1.3891 2.5527 1.6602 1.0006 0.26124 1.0449 0.26221 1.9902 0.04297 0.42732-0.0991 0.95067-0.26562 1.1621-0.37109 0.73375-0.36604 1.5686-1.2436 1.998-2.0996 0.38814-0.77358 0.41797-0.91352 0.41797-2.0039 0-1.081-0.0312-1.234-0.40039-1.9688-0.82129-1.6344-2.3169-2.571-4.0977-2.5645zm1.959 19.391c0.31717-0.0067 0.64071 0.01595 0.96875 0.06836 2.5083 0.4007 4.0477 2.3205 4.2852 5.3438l0.07031 0.88672h-3.7383c-2.4151 0-3.7665 0.04426-3.8164 0.125-0.151 0.24432 0.33662 1.3698 0.78906 1.8223 1.0674 1.0674 3.0264 0.93155 3.709-0.25781l0.20312-0.35352 1.3184 0.0332c1.4733 0.03884 1.4618 0.03063 1.0371 0.95312-0.70675 1.5351-2.19 2.4239-4.1816 2.5059-0.57139 0.0235-1.1757 0.01615-1.3438-0.01563-1.9845-0.37527-3.4957-1.7673-4.0938-3.7734-0.23761-0.79701-0.23743-2.7469 0-3.5449 0.68206-2.2921 2.5728-3.7462 4.793-3.793zm-22.576 0.0059c1.3766 0.04204 2.7268 0.5684 3.7148 1.5684 1.1446 1.1584 1.6091 2.5292 1.5117 4.4727-0.04854 0.96891-0.12347 1.3085-0.4375 1.9961-0.60996 1.3355-1.6286 2.2395-3.2598 2.8945-0.38097 0.15298-2.2716 0.2796-2.6914 0.17969-2.5033-0.59584-4.01-2.1771-4.4023-4.6231-0.31141-1.9415 0.37166-4.0226 1.6914-5.1523 1.0939-0.93638 2.4965-1.378 3.873-1.3359zm12.342 0.0039c1.0775-0.06939 2.2171 0.36265 2.9199 1.1387 0.16007 0.17675 0.43241 0.62442 0.60547 0.99414 0.31436 0.67158 0.31411 0.67683 0.36133 4.6758l0.04883 4.002h-2.834l-2e-3 -3.2695c-0.000733 -1.7982-0.03495-3.4733-0.07617-3.7227-0.04122-0.24933-0.23494-0.63148-0.42969-0.84961-0.31515-0.35299-0.43921-0.40152-1.127-0.44531-0.92033-0.0586-1.3689 0.13049-1.873 0.79102l-0.34375 0.44922-0.07422 7.0469h-2.7969v-10.512h2.6895l4e-3 1.4062 0.51758-0.5625c0.61294-0.6678 1.0093-0.88751 1.9531-1.082 0.14991-0.03089 0.3031-0.05063 0.45703-0.06055zm-12.533 2.1152c-0.38668 0.0063-0.78317 0.10286-1.1602 0.29297-1.7049 0.85971-2.0148 4.5077-0.50391 5.9277 0.70297 0.6607 1.8495 0.83291 2.7715 0.41406 0.97571-0.44325 1.5273-1.593 1.5273-3.1855 0-1.2689-0.27462-2.092-0.91602-2.752-0.45645-0.46965-1.0743-0.70782-1.7188-0.69726zm22.9 0.03516c-1.0567-0.015262-1.7743 0.52537-2.2168 1.6601l-0.20117 0.51758 2.2285 0.0332c1.2257 0.01832 2.273-0.0013 2.3281-0.04297 0.05511-0.04166 0.06159-0.2856 0.01367-0.54102-0.12992-0.69254-0.96168-1.4786-1.6777-1.5859-0.16498-0.02474-0.32366-0.03884-0.47461-0.04102z" fill="#fff" style="paint-order:stroke fill markers"/>
</svg>
