<svg width="48" height="48" version="1.1" viewBox="0 0 48 48" xmlns="http://www.w3.org/2000/svg">
 <path d="m7 5c-1.108 0-2 0.892-2 2v34c0 1.108 0.892 2 2 2h34c1.108 0 2-0.892 2-2v-34c0-1.108-0.892-2-2-2h-34zm25.625 4.2773c0.37526 0.0063099 0.75704 0.047076 1.1387 0.12305 1.7819 0.35469 3.4474 1.6362 4.25 3.2695 1.6646 3.388 0.010404 7.3324-3.6152 8.6191-0.491 0.17426-2.5203 0.30348-3.0684 0.19531-1.1506-0.22704-2.2674-0.85274-3.1953-1.791-1.2276-1.2415-1.7263-2.4823-1.7305-4.2949-0.0023-0.99223 0.041422-1.2942 0.28516-1.9727 0.92689-2.58 3.3088-4.1926 5.9355-4.1484zm-0.12305 2.0684c-1.3149 0.0048-2.4632 0.56978-3.2246 1.5859-0.646 0.86223-0.82499 1.4051-0.82227 2.4883 0.0027 1.081 0.18524 1.6418 0.80078 2.4746 0.51564 0.69759 1.3566 1.2453 2.2871 1.4883 0.89686 0.23416 0.93786 0.23362 1.7852 0.03711 0.38302-0.08883 0.85151-0.2375 1.041-0.33203 0.65768-0.32809 1.4061-1.1156 1.791-1.8828 0.3479-0.69338 0.375-0.81759 0.375-1.7949 0-0.96892-0.028467-1.107-0.35938-1.7656-0.73614-1.4649-2.0777-2.3047-3.6738-2.2988zm1.7559 17.381c0.28429-6e-3 0.57511 0.015521 0.86914 0.0625 2.2482 0.35916 3.6289 2.0792 3.8418 4.7891l0.0625 0.79492h-3.3516c-2.1647 0-3.3752 0.038957-3.4199 0.11133-0.13534 0.21899 0.3015 1.2292 0.70703 1.6348 0.95673 0.95674 2.7124 0.83363 3.3242-0.23242l0.18164-0.31641 1.1816 0.029297c1.3206 0.03481 1.3104 0.028616 0.92969 0.85547-0.63348 1.3759-1.9629 2.1726-3.748 2.2461-0.51215 0.02106-1.0525 0.012865-1.2031-0.015625-1.7788-0.33636-3.1338-1.5827-3.6699-3.3809-0.21297-0.71438-0.21281-2.4625 0-3.1777 0.61135-2.0545 2.3049-3.3584 4.2949-3.4004zm-20.234 0.00586c1.2339 0.03769 2.4445 0.50993 3.3301 1.4062 1.0259 1.0383 1.4408 2.2658 1.3535 4.0078-0.04351 0.86845-0.10915 1.1728-0.39062 1.7891-0.54672 1.197-1.4598 2.0086-2.9219 2.5957-0.34147 0.13712-2.0358 0.24971-2.4121 0.16016-2.2438-0.53407-3.5956-1.9502-3.9473-4.1426-0.27912-1.7402 0.33271-3.6066 1.5156-4.6191 0.98049-0.8393 2.2389-1.235 3.4727-1.1973zm11.062 0.003906c0.96579-0.0622 1.9873 0.32394 2.6172 1.0195 0.14348 0.15842 0.38785 0.56119 0.54297 0.89258 0.28177 0.60195 0.2819 0.60509 0.32422 4.1895l0.042969 3.5879h-2.541l-0.001954-2.9316c-6.57e-4 -1.6118-0.029456-3.1124-0.066406-3.3359-0.03695-0.22348-0.21216-0.5662-0.38672-0.76172-0.28248-0.31639-0.39328-0.35919-1.0098-0.39844-0.82491-0.05253-1.2259 0.11694-1.6777 0.70898l-0.30859 0.40234-0.066406 6.3164h-2.5078v-9.4219h2.4102l0.003907 1.2598 0.46484-0.50391c0.54939-0.59856 0.90405-0.79638 1.75-0.9707 0.13437-0.027689 0.27219-0.043844 0.41016-0.052734zm-11.234 1.8945c-0.34659 0.0056-0.70112 0.093267-1.0391 0.26367-1.5281 0.77058-1.8054 4.0397-0.45117 5.3125 0.63009 0.5922 1.656 0.74652 2.4824 0.37109 0.87455-0.3973 1.3691-1.4281 1.3691-2.8555 0-1.1373-0.24541-1.8752-0.82031-2.4668-0.40913-0.42096-0.96334-0.63446-1.541-0.625zm20.525 0.033203c-0.94714-0.01368-1.5897 0.46925-1.9863 1.4863l-0.17969 0.46484 1.998 0.029297c1.0986 0.01642 2.0366-0.001652 2.0859-0.039062 0.0494-0.03734 0.054659-0.25544 0.011719-0.48438-0.11645-0.62074-0.86212-1.3257-1.5039-1.4219-0.14787-0.02218-0.29048-0.033197-0.42578-0.035157z" fill="#fff" stroke-width=".89632" style="paint-order:stroke fill markers"/>
</svg>
