<?xml version="1.0" encoding="utf-8"?>
<!-- Generator: Adobe Illustrator 25.2.0, SVG Export Plug-In . SVG Version: 6.00 Build 0)  -->
<svg version="1.1"
	 id="svg8" sodipodi:docname="vk.svg" xmlns:cc="http://creativecommons.org/ns#" xmlns:dc="http://purl.org/dc/elements/1.1/" xmlns:inkscape="http://www.inkscape.org/namespaces/inkscape" xmlns:rdf="http://www.w3.org/1999/02/22-rdf-syntax-ns#" xmlns:sodipodi="http://sodipodi.sourceforge.net/DTD/sodipodi-0.dtd" xmlns:svg="http://www.w3.org/2000/svg"
	 xmlns="http://www.w3.org/2000/svg" xmlns:xlink="http://www.w3.org/1999/xlink" x="0px" y="0px" viewBox="0 0 48 48"
	 style="enable-background:new 0 0 48 48;" xml:space="preserve">
<style type="text/css">
	.st0{fill:#FFFFFF;}
</style>
<sodipodi:namedview  bordercolor="#666666" borderopacity="1" gridtolerance="10" guidetolerance="10" id="namedview7" inkscape:current-layer="svg8" inkscape:cx="6.6181829" inkscape:cy="25.25833" inkscape:document-rotation="0" inkscape:pageopacity="0" inkscape:pageshadow="2" inkscape:window-height="1006" inkscape:window-maximized="1" inkscape:window-width="1920" inkscape:window-x="0" inkscape:window-y="0" inkscape:zoom="11.313709" objecttolerance="10" pagecolor="#404040" showgrid="false">
	</sodipodi:namedview>
<g id="g6" transform="matrix(1.5003483,0,0,1.5002172,-48.311515,-91.513247)">
	<path id="path4" class="st0" d="M60.9,70.2c0.2-0.6,0-1.1-0.9-1.1h-2.9c-0.7,0-1.1,0.4-1.3,0.8c0,0-1.5,3.6-3.6,6
		c-0.7,0.7-1,0.9-1.4,0.9c-0.2,0-0.5-0.2-0.5-0.8v-5.8c0-0.7-0.2-1.1-0.8-1.1H45c-0.5,0-0.7,0.3-0.7,0.7c0,0.7,1.1,0.9,1.2,2.8v4.3
		c0,0.9-0.2,1.1-0.5,1.1c-1,0-3.4-3.6-4.8-7.8c-0.3-0.8-0.6-1.1-1.3-1.1h-2.9c-0.8,0-1,0.4-1,0.8c0,0.8,1,4.6,4.6,9.7
		c2.4,3.5,5.8,5.3,8.9,5.3c1.9,0,2.1-0.4,2.1-1.1v-2.6c0-0.8,0.2-1,0.8-1c0.4,0,1.2,0.2,2.9,1.9c2,2,2.3,2.9,3.4,2.9h2.9
		c0.8,0,1.2-0.4,1-1.2c-0.3-0.8-1.2-2-2.5-3.4c-0.7-0.8-1.7-1.7-2-2.1c-0.4-0.6-0.3-0.8,0-1.3C57,76.9,60.5,71.9,60.9,70.2z"/>
</g>
</svg>
