<svg xmlns="http://www.w3.org/2000/svg" width="48" height="48" viewBox="0 0 48 48">
 <path d="m25.497 29.969 0.41076 0.7614c0.01 0.03009 0.01 0.04008 0.01 0.04008l-0.01-0.03009 3.5766 6.562c0.96177 1.8334 2.204 0.62114 2.8552-0.63116l13.495-25.377c0.45083-0.85156 0.13024-1.5328-0.72132-1.5328h-10.119c-0.85156 0-1.9035 0.69127-2.3543 1.5328l-7.9947 15.078c-0.06007 0.12022-0.12022 0.24044-0.16029 0.34062l-8.4856-15.078c-0.47087-0.84154-1.5729-1.5228-2.4645-1.5228h-10.609c-0.88161 0-1.2222 0.68124-0.75138 1.5228l8.4956 15.108c0.47087 0.84154 1.5829 1.5228 2.4645 1.5228h9.0867c1.7733 0.01 2.7651 0.97178 3.276 1.7031z" fill="#fff"/>
</svg>