<?xml version="1.0" encoding="UTF-8"?>
<svg version="1.1" viewBox="0 0 48 48" xmlns="http://www.w3.org/2000/svg">
    <path d="m25.432 7.6113-8.3025 25.484-8.4767-25.484h-3.6528l10.322 31.032c0.53136 1.5933 3.1283 1.5889 3.6503-0.0075 0 0 6.6718-20.502 10.108-31.025z" color="#000000" color-rendering="auto" dominant-baseline="auto" fill="#fff" image-rendering="auto" shape-rendering="auto" solid-color="#000000" style="font-feature-settings:normal;font-variant-alternates:normal;font-variant-caps:normal;font-variant-ligatures:normal;font-variant-numeric:normal;font-variant-position:normal;isolation:auto;mix-blend-mode:normal;shape-padding:0;text-decoration-color:#000000;text-decoration-line:none;text-decoration-style:solid;text-indent:0;text-orientation:mixed;text-transform:none;white-space:normal"/>
    <path d="m36.535 25.389c-5.1682 0-8.3753 3.7165-8.3787 7.5-0.0034 3.7835 3.2019 7.5 8.3787 7.5h6.4652v-3.5h-6.4652c-3.696 0-4.9169-2.0316-4.9151-3.998 0.0018-1.9665 1.2312-4.002 4.9151-4.002h6.4652v-3.5z" color="#000000" color-rendering="auto" dominant-baseline="auto" fill="#fff" image-rendering="auto" shape-rendering="auto" solid-color="#000000" style="font-feature-settings:normal;font-variant-alternates:normal;font-variant-caps:normal;font-variant-ligatures:normal;font-variant-numeric:normal;font-variant-position:normal;isolation:auto;mix-blend-mode:normal;shape-padding:0;text-decoration-color:#000000;text-decoration-line:none;text-decoration-style:solid;text-indent:0;text-orientation:mixed;text-transform:none;white-space:normal"/>
    <path d="m35.58 7.6113c-3.7442-0.00344-7.4239 3.2355-7.4239 8.4668v6.5332h3.4636v-6.5332c0-3.7349 2.0105-4.9686 3.9564-4.9668 1.946 0.0018 3.9603 1.2441 3.9603 4.9668v6.5332h3.4636v-6.5332c0-5.2226-3.6758-8.4634-7.42-8.4668z" color="#000000" color-rendering="auto" dominant-baseline="auto" fill="#fff" image-rendering="auto" shape-rendering="auto" solid-color="#000000" style="font-feature-settings:normal;font-variant-alternates:normal;font-variant-caps:normal;font-variant-ligatures:normal;font-variant-numeric:normal;font-variant-position:normal;isolation:auto;mix-blend-mode:normal;shape-padding:0;text-decoration-color:#000000;text-decoration-line:none;text-decoration-style:solid;text-indent:0;text-orientation:mixed;text-transform:none;white-space:normal"/>
</svg>
