<?xml version="1.0" encoding="UTF-8"?>
<svg version="1.1" viewBox="0 0 48 48" xmlns="http://www.w3.org/2000/svg">
    <path d="m24 15a22 9 0 0 0-3.166 0.10547c-0.21079 0.98925-0.36187 1.9945-0.47656 3.0117a19 6 0 0 1 3.6426-0.11719 19 6 0 0 1 3.5566 0.10938 19 6 0 0 1 7.0898 0.92383 19 6 0 0 1 8.3535 4.9668 19 6 0 0 1-8.4023 4.9746 19 6 0 0 1-7.0156 0.91211 19 6 0 0 1-3.582 0.11328 19 6 0 0 1-3.5254-0.10742c0.1166 1.0122 0.22793 2.0217 0.36914 3.0059a22 9 0 0 0 3.1562 0.10156 22 9 0 0 0 3.002-0.095703 22 9 0 0 0 7.3906-0.97461 22 9 0 0 0 11.607-7.9297 22 9 0 0 0-11.527-7.9043 22 9 0 0 0-7.2988-0.99219 22 9 0 0 0-3.1738-0.10352zm-10.324 1.0566a22 9 0 0 0-11.676 7.9434 22 9 0 0 0 11.715 7.9492c-0.12756-1.0023-0.33476-1.9847-0.4043-2.9902a19 6 0 0 1-8.3105-4.959 19 6 0 0 1 8.3301-4.957c0.10023-0.98107 0.20472-1.9525 0.3457-2.9863z" fill="#fff"/>
    <path d="m24 2a9 22 0 0 0-7.9355 11.656 9 22 0 0 0-0.96094 7.1445 9 22 0 0 0-0.10352 3.1992 9 22 0 0 0 0.0957 3.002 9 22 0 0 0 0.95703 7.3008 9 22 0 0 0 7.9473 11.697 9 22 0 0 0 7.9395-11.674c-0.98809 0.12892-1.9725 0.24-2.9707 0.30664a6 19 0 0 1-4.9688 8.3672 6 19 0 0 1-4.9375-8.2422 6 19 0 0 1-0.94922-7.1758 6 19 0 0 1-0.11328-3.582 6 19 0 0 1 0.11328-3.6562 6 19 0 0 1 0.92188-7.0059 6 19 0 0 1 4.9648-8.3379 6 19 0 0 1 4.9473 8.2871c0.99542 0.09039 1.9917 0.16664 2.9805 0.31445a9 22 0 0 0-7.9277-11.602zm5.8887 18.441a6 19 0 0 1 0.11133 3.5586 6 19 0 0 1-0.10938 3.5566c1.0031-0.13134 2.0267-0.1631 3.0059-0.38281a9 22 0 0 0 0.10352-3.1738 9 22 0 0 0-0.11523-3.3359c-1-0.1567-1.9773-0.14396-2.9961-0.22266z" fill="#fff"/>
</svg>
