<?xml version="1.0" encoding="UTF-8" standalone="no"?>
<svg
   xmlns:dc="http://purl.org/dc/elements/1.1/"
   xmlns:cc="http://creativecommons.org/ns#"
   xmlns:rdf="http://www.w3.org/1999/02/22-rdf-syntax-ns#"
   xmlns:svg="http://www.w3.org/2000/svg"
   xmlns="http://www.w3.org/2000/svg"
   xmlns:sodipodi="http://sodipodi.sourceforge.net/DTD/sodipodi-0.dtd"
   xmlns:inkscape="http://www.inkscape.org/namespaces/inkscape"
   width="48"
   height="48"
   viewBox="0 0 48 48"
   version="1.1"
   id="svg4"
   sodipodi:docname="vrnetarif.svg"
   inkscape:version="0.92.2 5c3e80d, 2017-08-06">
  <metadata
     id="metadata10">
    <rdf:RDF>
      <cc:Work
         rdf:about="">
        <dc:format>image/svg+xml</dc:format>
        <dc:type
           rdf:resource="http://purl.org/dc/dcmitype/StillImage" />
        <dc:title></dc:title>
      </cc:Work>
    </rdf:RDF>
  </metadata>
  <defs
     id="defs8" />
  <sodipodi:namedview
     pagecolor="#ffffff"
     bordercolor="#666666"
     borderopacity="1"
     objecttolerance="10"
     gridtolerance="10"
     guidetolerance="10"
     inkscape:pageopacity="0"
     inkscape:pageshadow="2"
     inkscape:window-width="1819"
     inkscape:window-height="1204"
     id="namedview6"
     showgrid="false"
     inkscape:pagecheckerboard="true"
     inkscape:zoom="6.3217894"
     inkscape:cx="102.9021"
     inkscape:cy="77.252843"
     inkscape:window-x="311"
     inkscape:window-y="132"
     inkscape:window-maximized="0"
     inkscape:current-layer="svg4" />
  <path
     id="path892"
     style="color:#000000;clip-rule:nonzero;display:inline;overflow:visible;visibility:visible;opacity:1;isolation:auto;mix-blend-mode:normal;color-interpolation:sRGB;color-interpolation-filters:linearRGB;solid-color:#000000;solid-opacity:1;fill:#ffffff;fill-opacity:1;stroke:none;stroke-width:0.21564342;stroke-linecap:round;stroke-linejoin:round;stroke-miterlimit:4;stroke-dasharray:none;stroke-dashoffset:0;stroke-opacity:1;paint-order:markers stroke fill;color-rendering:auto;image-rendering:auto;shape-rendering:auto;text-rendering:auto;enable-background:accumulate"
     d="m 29.93436,27.624506 c -1.407167,0.02515 -2.757627,1.489776 -3.136036,2.367726 -0.378409,0.87795 -0.37266,1.336423 -0.37266,1.336423 0,0 1.186859,-0.008 1.771709,0.0095 1.578943,0.0094 3.675997,-0.012 4.738893,-0.0041 0.531448,0.0039 0.622371,-0.01615 0.622371,-0.01615 0,0 -0.134572,-0.799447 -0.267997,-1.113672 -0.26685,-0.62845 -0.745388,-1.626559 -1.587778,-2.091052 -0.530802,-0.318049 -0.838029,-0.504269 -1.768502,-0.488651 -0.930473,0.01562 0,7e-6 0,7e-6 z M 27.744292,12.557581 c -4.622497,-0.0045 -9.137957,2.34073 -11.88795,6.04019 -2.343386,3.039774 -3.402509,7.016082 -2.894478,10.819308 0.266469,1.923983 0.811517,3.832956 1.740978,5.544762 1.265217,2.12681 3.010993,3.966463 5.033265,5.388416 1.808579,1.273941 4.486616,2.150517 6.045884,2.32562 1.559268,0.175103 0.572375,0.124611 1.867579,0.136131 1.295204,0.01152 2.381498,-0.382093 2.381498,-0.382093 0,0 -0.864032,-0.04592 -2.462827,-0.562927 -1.598794,-0.51701 -2.20064,-0.93188 -3.120028,-1.677869 -1.504608,-1.150589 -2.747742,-3.102724 -3.212167,-4.585513 -0.464425,-1.482789 -0.456339,-2.340376 -0.451449,-3.635148 0.0049,-1.294772 0.142341,-2.042389 1.15548,-3.973749 1.013139,-1.93136 4.122753,-4.465193 7.064565,-4.788262 2.140007,-0.22331 4.382791,0.258908 6.186414,1.448046 2.083407,1.379953 3.239982,3.787009 3.619345,6.199831 0.170749,1.021609 0.297406,2.033871 0.244281,3.06458 -0.915747,0.140156 -1.856752,0.07118 -2.782426,0.115948 -2.823624,0.06823 -5.486622,0.119417 -8.309214,0.08129 -0.22806,0.0062 -1.206665,-0.04839 -1.206665,-0.04839 0,0 -0.116587,0.06283 0.02454,0.961509 0.141127,0.898679 0.640227,1.422081 1.107999,1.775818 0.467772,0.353737 0.905269,0.619995 2.074425,0.728036 1.169157,0.10804 3.178477,-0.254088 4.53881,-1.214864 0.218056,-0.08854 0.454157,-0.446801 0.674192,-0.184094 1.028837,0.703495 1.970053,1.537122 2.982329,2.253364 0.248239,0.380352 0.840597,-0.371253 1.136602,-0.685818 2.053788,-2.397512 3.294742,-5.432144 3.758204,-8.538587 0.149749,-1.661679 0.07045,-3.356372 -0.408305,-4.962838 -0.948853,-3.494963 -2.946241,-6.797016 -5.956146,-8.88287 -2.584676,-1.835083 -5.770249,-2.846734 -8.944737,-2.759825 z M 23.706379,5.0433958 C 19.471418,5.0674023 15.234755,5.035285 11.001291,5.1615165 9.9240931,5.2073322 8.7666482,5.2112281 7.8465802,5.8597819 6.5780576,6.6846802 5.4142806,7.8696057 5.0332463,9.3739419 4.6821715,11.00629 4.8369116,12.689576 4.7782788,14.345918 c -0.031069,7.290999 -0.056944,14.582753 0.034323,21.873376 0.075423,1.214804 0.098811,2.500696 0.6768672,3.602752 0.82978,1.344493 2.1845734,2.40084 3.7519525,2.712837 2.1071935,0.433009 4.2750235,0.340137 6.4138645,0.38905 0.507355,-0.04758 1.07943,-0.0086 1.539755,-0.02832 0.460325,-0.01971 1.433021,0.0074 1.433021,0.0074 0,0 -0.565093,-0.519041 -1.518109,-1.285372 -0.953017,-0.766331 -3.465003,-3.254554 -4.61901,-5.392171 -1.853706,-3.240689 -2.6576582,-7.103053 -2.205011,-10.830576 0.59239,-5.419606 3.931833,-10.470359 8.658418,-13.150882 2.668381,-1.535426 5.787058,-2.4345663 8.89444,-2.3912494 2.597745,-0.016612 5.161665,0.6352874 7.49981,1.7156084 2.38352,1.118872 4.533246,2.750659 6.188755,4.80406 0.337048,0.325056 1.693385,2.772157 1.693385,2.772157 0,0 0.01674,-1.283828 -0.01988,-2.59325 -0.03662,-1.309422 -0.02122,-4.4049 -0.315982,-6.5860019 C 42.51623,7.7567503 40.694973,5.9338103 38.568038,5.3405978 37.075294,5.0868379 35.549542,5.1578039 34.041499,5.0936576 30.597003,5.0278168 27.151342,5.0454603 23.706379,5.0433958 Z"
     inkscape:connector-curvature="0"
     sodipodi:nodetypes="csccccscccccccccsscccssscccccccsssccccccccccccccccccccscccccccscccc" />
</svg>
