<?xml version="1.0" encoding="utf-8"?>
<!-- Generator: Adobe Illustrator 21.1.0, SVG Export Plug-In . SVG Version: 6.00 Build 0)  -->
<svg version="1.0" id="Layer_1" xmlns="http://www.w3.org/2000/svg" xmlns:xlink="http://www.w3.org/1999/xlink" x="0px" y="0px"
	 viewBox="0 0 48 48" enable-background="new 0 0 48 48" xml:space="preserve">
<path fill="#FFFFFF" d="M38,4H10C8.9,4,8,4.9,8,6v36c0,1.1,0.9,2,2,2h28c1.1,0,2-0.9,2-2V6C40,4.9,39.1,4,38,4z M24.1,12
	c0,0.7,0,1.2,0,1.6c0,0.3-0.4,1.3-1.3,3.1c-0.4,0.6-0.9,1.6-1.5,2.9c0,0.1-0.1,0.2-0.1,0.2s-0.1,0-0.2,0c-0.2,0-0.6,0-1.1,0
	c-0.6,0-1,0-1.1,0s-0.2-0.1-0.2-0.2c-0.5-1-1-2.1-1.6-3.1c-0.8-1.7-1.2-2.6-1.2-2.8c0-0.4,0-0.9,0-1.6s0-1.3,0-1.6
	c0-0.2,0-0.3,0.1-0.3c0.3,0,0.7,0,1.2,0s1,0,1.3,0c0.1,0,0.2,0,0.2,0.1c0,0.4,0,0.9-0.1,1.7s-0.1,1.3-0.1,1.7c0,0.3,0.5,1.3,1.4,3
	c0.3-0.5,0.5-1,0.9-1.7c0.4-0.9,0.6-1.4,0.6-1.6c0-0.3,0-0.8,0-1.5s0-1.2,0-1.5c0-0.1,0-0.2,0.1-0.2h0.2c0.3,0,0.6,0,1.1,0
	s0.9,0,1.1,0c0.1,0,0.2,0.1,0.2,0.2C24.1,10.8,24.1,11.3,24.1,12z M32.1,18.2c0,0.7,0,1.1,0,1.5c0,0.1-0.1,0.2-0.2,0.2
	c-0.2,0-0.5,0.1-1.1,0.1c-0.5,0-0.8,0-1,0c-0.1,0-0.1-0.1-0.2-0.2c0-0.1,0-0.3,0-0.4c0-0.2-0.1-0.3-0.1-0.3c0.1,0-0.2,0.2-0.7,0.5
	s-1,0.5-1.4,0.5c-1.2,0-1.9-0.5-2.1-1.6c-0.1-0.5-0.2-1.2-0.2-2.2c0-1,0.1-1.9,0.3-2.5c0-0.2,0.1-0.3,0.3-0.3c0.2,0,0.5,0,1,0
	s0.7,0,1,0c0.1,0,0.2,0.1,0.2,0.2c0,0,0,0.1,0,0.1c-0.1,0.6-0.1,1.2-0.1,1.9c0,0.8,0,1.3,0.1,1.6c0.1,0.5,0.4,0.8,0.9,0.8
	c0.2,0,0.4-0.1,0.7-0.3c0.2-0.2,0.4-0.4,0.4-0.6c0-0.2,0-1.3,0-3.4c0-0.2,0-0.2,0-0.3c0,0,0.1-0.1,0.2-0.1c0.2,0,0.6,0,1,0
	c0.4,0,0.8,0,1,0c0.1,0,0.2,0,0.2,0.1c0,0,0,0.1,0,0.2c0,0.3,0,0.8,0,1.5s0,1.2,0,1.5C32,17,32,17.5,32.1,18.2z"/>
</svg>
