<?xml version="1.0" encoding="UTF-8"?>
<svg version="1.1" viewBox="0 0 48 48" xmlns="http://www.w3.org/2000/svg">
    <path d="m10.916 30.471a1.3696 1.3696 0 0 1 0.9792 0.4l4.3152 4.3168 4.3152 4.3144a1.3696 1.3696 0 0 1-0.6144 2.2904l-5.8944 1.58-5.8944 1.5792a1.3696 1.3696 0 0 1-1.6768-1.6768l1.5792-5.896 1.58-5.8944a1.3696 1.3696 0 0 1 1.3104-1.0144z" fill="#fff"/>
    <path d="m24 9.8008c-9.7202 0-17.6 7.8794-17.6 17.6 0 9.7202 7.8794 17.6 17.6 17.6s17.6-7.8794 17.6-17.6c0-9.7202-7.8794-17.6-17.6-17.6zm-8 7.4473h16c1.7728 0 3.2012 1.4264 3.2012 3.1992v3.2012c0 1.7728-1.4284 3.1992-3.2012 3.1992h-16c-1.7728 0-3.1992-1.4264-3.1992-3.1992v-3.2012c0-1.7728 1.4264-3.1992 3.1992-3.1992zm1.5996 1.5996c-1.7728 0-3.1992 1.4284-3.1992 3.2012s1.4264 3.1992 3.1992 3.1992h12.801c1.7728 0 3.1992-1.4264 3.1992-3.1992s-1.4264-3.2012-3.1992-3.2012h-12.801zm0.4082 1.1992a2 2 0 0 1 1.9922 2h-2l1.998 0.035156a2 2 0 0 1-2.0254 1.9648 2 2 0 0 1-1.9727-2.0176 2 2 0 0 1 2.0078-1.9824zm12 0a2 2 0 0 1 1.9922 2h-2l2 0.035156a2 2 0 0 1-2.0273 1.9648 2 2 0 0 1-1.9727-2.0176 2 2 0 0 1 2.0078-1.9824z" fill="#fff"/>
    <path d="m11.948 3a2 2 60 0 0-0.95312 0.26367 2 2 60 0 0-0.74805 2.7207 2 2 60 0 0 1.9648 1.0039l3.6035 6.2402 1.3848-0.79883-3.6055-6.2441a2 2 60 0 0 0.14258-2.1543l-1.75 0.96875 1.7324-1a2 2 60 0 0-1.7715-1z" fill="#fff"/>
    <path d="m36.051 3a2 2 0.1752 0 0-1.7695 1l1.7324 1-1.75-0.96875a2 2 0.1752 0 0 0.14062 2.1523l-3.6055 6.2461 1.3867 0.79883 3.6035-6.2402a2 2 0.1752 0 0 1.9648-1.0039 2 2 0.1752 0 0-0.74805-2.7207 2 2 0.1752 0 0-0.95508-0.26367z" fill="#fff"/>
</svg>
