<?xml version="1.0" encoding="UTF-8"?>
<svg version="1.1" viewBox="0 0 48 48" xmlns="http://www.w3.org/2000/svg">
    <path d="m24 2a22 22 0 0 0-22 22 22 22 0 0 0 22 22 22 22 0 0 0 22-22 22 22 0 0 0-22-22zm0 7a15 15 0 0 1 15 15 15 15 0 0 1-15 15 15 15 0 0 1-15-15 15 15 0 0 1 15-15zm-0.068359 7.7578a6 6 0 0 0-5.7129 4.1758c-2.3558 0.26241-4.1797 2.15-4.1797 4.4824 0 2.5129 2.1088 4.5371 4.7285 4.5371h11.066c2.3803 0 4.2949-1.7123 4.2949-3.8379 0-2.1017-1.8738-3.7901-4.2168-3.8281a6 6 0 0 0-5.9805-5.5293z" fill="#fff"/>
</svg>
