<?xml version="1.0" encoding="UTF-8"?>
<svg enable-background="new" version="1.1" viewBox="0 0 48 48" xmlns="http://www.w3.org/2000/svg">
    <defs>
        <style>.a{fill:#3396cd;}.b{fill:#fff;}</style>
    </defs>
    <path d="m19.377 13.736c-4.43 2.59e-4 -8.0212 3.5914-8.0215 8.0215 0.0066 0.52194 0.0642 1.042 0.17188 1.5527-0.27425-0.03186-0.55008-0.04817-0.82617-0.04883-4.0376-1.16e-4 -7.3107 3.273-7.3105 7.3105-1.157e-4 4.0376 3.273 7.3107 7.3105 7.3105 0.37284-0.0015 0.74502-0.03155 1.1133-0.08984h23.725c0.40489 0.02411 0.72586 0.014 1.0664 0h0.16992v-0.01172c2.8636-0.35471 5.0148-2.7864 5.0176-5.6719-7.5e-5 -3.1594-2.5613-5.7206-5.7207-5.7207-0.35425 0.0044-0.70733 0.04164-1.0547 0.11133 0.21532-0.53812 0.32794-1.1118 0.33203-1.6914 8.41e-4 -2.5636-2.077-4.6423-4.6406-4.6426-1.2496 0.0047-2.4445 0.51306-3.3145 1.4102-0.09894-4.3574-3.659-7.8386-8.0176-7.8398z" fill="#fff"/>
    <circle cx="33.702" cy="21.53" r="10.68" fill="none" stroke="#fff" stroke-width=".96217"/>
</svg>
