<svg id="Layer_1" data-name="Layer 1" xmlns="http://www.w3.org/2000/svg" viewBox="0 0 48 48"><defs><style>.cls-1{fill:#fff;}</style></defs><title>webapps</title><path class="cls-1" d="M18.73,18.43l3.1-1.81.94-1.77-1.55-1.68h0a11.2,11.2,0,0,0-7.88,7.44l4.19,1.82-3,1.55.86,7.21a11.55,11.55,0,0,0,1.71,1.64l5.74-8.7-5.36-1.7Z"/><path class="cls-1" d="M29,14l-1.87,3,5.44-.2A11.1,11.1,0,0,0,29,14Z"/><path class="cls-1" d="M41,5H7A2,2,0,0,0,5,7V41a2,2,0,0,0,2,2H41a2,2,0,0,0,2-2V7A2,2,0,0,0,41,5ZM24,37.38A13.38,13.38,0,1,1,37.38,24,13.38,13.38,0,0,1,24,37.38Z"/><path class="cls-1" d="M26.13,20.81,27,25l3.74,1.05.57,6.36a11.12,11.12,0,0,0,1.87-14.82Z"/></svg>