<?xml version="1.0" encoding="UTF-8"?>
<svg version="1.1" viewBox="0 0 48 48" xmlns="http://www.w3.org/2000/svg">
    <path d="m19.795 3c-0.525 0-0.95506 0.38931-1.0391 0.88281l-0.78711 5.5645a15.54 15.54 0 0 0-3.5488 2.0684l-5.2305-2.1094a1.05 1.05 0 0 0-1.2812 0.45117l-4.1992 7.2754c-0.2625 0.4515-0.14705 1.0182 0.25195 1.3438l4.4316 3.4766a16.485 16.485 0 0 0-0.14844 2.0469c0 0.693 0.064438 1.3768 0.14844 2.0488l-4.4316 3.4746c-0.399 0.315-0.51445 0.88175-0.25195 1.3438l4.1992 7.2773c0.2625 0.4515 0.80875 0.64017 1.2812 0.45117l5.2305-2.1113c1.0815 0.8295 2.2678 1.5329 3.5488 2.0684l0.78711 5.5664c0.084 0.4935 0.51406 0.88086 1.0391 0.88086h8.4004c0.525 0 0.95506-0.38736 1.0391-0.88086l0.78711-5.5664a15.54 15.54 0 0 0 3.5488-2.0684l5.2305 2.1113a1.05 1.05 0 0 0 1.2793-0.45117l4.2012-7.2773c0.2625-0.4515 0.14705-1.0182-0.25195-1.3438l-4.4316-3.4746c0.084-0.672 0.14648-1.3558 0.14648-2.0488s-0.062485-1.3749-0.14648-2.0469l4.4414-3.4766c0.399-0.315 0.51445-0.88175 0.25195-1.3438l-4.1992-7.2754c-0.2625-0.4515-0.80875-0.64017-1.2812-0.45117l-5.2285 2.1094c-1.0815-0.8295-2.2678-1.5329-3.5488-2.0684l-0.78906-5.5645c-0.0945-0.4935-0.52383-0.88281-1.0488-0.88281h-8.4004zm4.2051 8.3281a12.823 12.823 0 0 1 12.824 12.822 12.823 12.823 0 0 1-12.824 12.822 12.823 12.823 0 0 1-12.822-12.822 12.823 12.823 0 0 1 12.822-12.822z" fill="#fff" stroke-width="1.05"/>
    <path d="m24 16.9a15 15 0 0 0-12.822 7.252 15 15 0 0 0 12.822 7.248 15 15 0 0 0 12.824-7.252 15 15 0 0 0-12.824-7.248zm0 0.25a7 7 0 0 1 7 7 7 7 0 0 1-7 7 7 7 0 0 1-7-7 7 7 0 0 1 7-7z" fill="#fff"/>
    <path d="m24 19.172a4.9788 4.9788 0 0 0-4.9785 4.9785 4.9788 4.9788 0 0 0 4.9785 4.9785 4.9788 4.9788 0 0 0 4.9805-4.9785 4.9788 4.9788 0 0 0-4.9805-4.9785zm0 2.4785a2.5 2.5 0 0 1 2.5 2.5 2.5 2.5 0 0 1-2.5 2.5 2.5 2.5 0 0 1-2.5-2.5 2.5 2.5 0 0 1 2.5-2.5z" fill="#fff"/>
</svg>
