<?xml version="1.0" encoding="UTF-8"?>
<svg version="1.1" viewBox="0 0 48 48" xmlns="http://www.w3.org/2000/svg">
    <path d="m5 19.25v4.75a19 19 0 0 1 19 19h4.75a23.75 23.75 0 0 0-23.75-23.75zm0 7.916v4.75a11.083 11.083 0 0 1 11.084 11.084h4.75a15.833 15.833 0 0 0-15.834-15.834zm0 7.918v4.75a3.1667 3.1667 0 0 1 2.2383 0.92774 3.1667 3.1667 0 0 1 0.92773 2.2383h4.75a7.9167 7.9167 0 0 0-7.916-7.916z" fill="#fff" style="paint-order:stroke markers fill"/>
    <path d="m35.083 5a7.9167 7.9167 0 0 0-7.9167 7.9167 7.9167 7.9167 0 0 0 7.9167 7.9167 7.9167 7.9167 0 0 0 7.9167-7.9167 7.9167 7.9167 0 0 0-7.9167-7.9167zm-1.755 4.5536c0.21853 0.04089 0.5668 0.2581 1.1241 0.60457l1.5014 0.86589 1.5029 0.86743c1.4495 0.85816 1.4495 0.85875 0 1.7349l-1.5029 0.86743-1.5014 0.86743c-1.4861 0.86714-1.4788 0.86685-1.5014-0.86743v-3.4697c0.0099-1.1194 0.01306-1.5386 0.37728-1.4705z" fill="#fff" style="paint-order:stroke markers fill"/>
    <path d="m10.283 11.24a1.9792 1.9792 0 0 0-1.9805 1.9805 1.9792 1.9792 0 0 0 1.9805 1.9785 1.9792 1.9792 0 0 0 1.9785-1.9785 1.9792 1.9792 0 0 0-1.9785-1.9805zm6.332 0a1.9792 1.9792 0 0 0-1.9785 1.9805 1.9792 1.9792 0 0 0 1.9785 1.9785 1.9792 1.9792 0 0 0 1.9805-1.9785 1.9792 1.9792 0 0 0-1.9805-1.9805zm6.334 0a1.9792 1.9792 0 0 0-1.9785 1.9805 1.9792 1.9792 0 0 0 1.9785 1.9785 1.9792 1.9792 0 0 0 1.9785-1.9785 1.9792 1.9792 0 0 0-1.9785-1.9805z" fill="#fff" style="paint-order:stroke markers fill"/>
</svg>
