<?xml version="1.0" encoding="UTF-8" standalone="no"?>
<svg
   xmlns:dc="http://purl.org/dc/elements/1.1/"
   xmlns:cc="http://creativecommons.org/ns#"
   xmlns:rdf="http://www.w3.org/1999/02/22-rdf-syntax-ns#"
   xmlns:svg="http://www.w3.org/2000/svg"
   xmlns="http://www.w3.org/2000/svg"
   xmlns:sodipodi="http://sodipodi.sourceforge.net/DTD/sodipodi-0.dtd"
   xmlns:inkscape="http://www.inkscape.org/namespaces/inkscape"
   width="48"
   height="48"
   viewBox="0 0 300 300"
   version="1.1"
   id="svg892"
   sodipodi:docname="wechat.svg"
   inkscape:version="0.92.2 2405546, 2018-03-11">
  <defs
     id="defs896" />
  <sodipodi:namedview
     pagecolor="#000000"
     bordercolor="#666666"
     borderopacity="1"
     objecttolerance="10"
     gridtolerance="10"
     guidetolerance="10"
     inkscape:pageopacity="0"
     inkscape:pageshadow="2"
     inkscape:window-width="1240"
     inkscape:window-height="981"
     id="namedview894"
     showgrid="false"
     inkscape:measure-start="1958,2238.93"
     inkscape:measure-end="2505.68,2233.26"
     inkscape:zoom="7.9739017"
     inkscape:cx="26.450819"
     inkscape:cy="15.267473"
     inkscape:window-x="20"
     inkscape:window-y="23"
     inkscape:window-maximized="1"
     inkscape:current-layer="svg892" />
  <g
     inkscape:groupmode="layer"
     id="layer2"
     inkscape:label="Logo"
     style="display:inline">
    <g
       id="g890"
       transform="translate(-2.3836549,-8.1725314)"
       style="fill:#ffffff">
      <path
         d="m 200.803,111.88 c -24.213,1.265 -45.268,8.605 -62.362,25.188 -17.271,16.754 -25.155,37.284 -23,62.734 -9.464,-1.172 -18.084,-2.462 -26.753,-3.192 -2.994,-0.252 -6.547,0.106 -9.083,1.537 -8.418,4.75 -16.488,10.113 -26.053,16.092 1.755,-7.938 2.891,-14.889 4.902,-21.575 1.479,-4.914 0.794,-7.649 -3.733,-10.849 -29.066,-20.521 -41.318,-51.232 -32.149,-82.85 8.483,-29.25 29.315,-46.989 57.621,-56.236 38.635,-12.62 82.054,0.253 105.547,30.927 8.485,11.08 13.688,23.516 15.063,38.224 z M 89.366,102.028 c 0.223,-5.783 -4.788,-10.993 -10.74,-11.167 -6.094,-0.179 -11.106,4.478 -11.284,10.483 -0.18,6.086 4.475,10.963 10.613,11.119 6.085,0.154 11.186,-4.509 11.411,-10.435 z m 58.141,-11.171 c -5.974,0.11 -11.022,5.198 -10.916,11.004 0.109,6.018 5.061,10.726 11.204,10.652 6.159,-0.074 10.83,-4.832 10.772,-10.977 -0.051,-6.032 -4.981,-10.79 -11.06,-10.679 z"
         id="path886"
         inkscape:connector-curvature="0" />
      <path
         d="m 255.201,262.83 c -7.667,-3.414 -14.7,-8.536 -22.188,-9.318 -7.459,-0.779 -15.3,3.524 -23.104,4.322 -23.771,2.432 -45.067,-4.193 -62.627,-20.432 -33.397,-30.89 -28.625,-78.254 10.014,-103.568 34.341,-22.498 84.704,-14.998 108.916,16.219 21.129,27.24 18.646,63.4 -7.148,86.284 -7.464,6.623 -10.15,12.073 -5.361,20.804 0.884,1.612 0.985,3.653 1.498,5.689 z m -87.274,-84.499 c 4.881,0.005 8.9,-3.815 9.085,-8.636 0.195,-5.104 -3.91,-9.385 -9.021,-9.406 -5.06,-0.023 -9.299,4.318 -9.123,9.346 0.166,4.804 4.213,8.69 9.059,8.696 z m 56.261,-18.022 c -4.736,-0.033 -8.76,3.844 -8.953,8.629 -0.205,5.117 3.772,9.319 8.836,9.332 4.898,0.016 8.768,-3.688 8.946,-8.562 0.19,-5.129 -3.789,-9.364 -8.829,-9.399 z"
         id="path888"
         inkscape:connector-curvature="0" />
    </g>
  </g>
  <metadata
     id="metadata5170">
    <rdf:RDF>
      <cc:Work
         rdf:about="">
        <dc:title></dc:title>
      </cc:Work>
    </rdf:RDF>
  </metadata>
</svg>
