<?xml version="1.0" encoding="UTF-8"?>
<svg version="1.1" viewBox="0 0 48 48" xmlns="http://www.w3.org/2000/svg">
    <path d="m18.294 4-2.4098 2.811h-7.7803v4.8912h31.793v-4.8912h-7.7803l-2.4098-2.811zm-7.7445 9.4298v27.309c0 1.8065 1.4543 3.2608 3.2608 3.2608h20.38c1.8065 0 3.2608-1.4543 3.2608-3.2608v-27.309h-23.641zm13.597 6.235c1.9998 0 3.569 0.4556 4.7081 1.3669 1.1476 0.90287 1.7212 2.1517 1.7212 3.7464 0 0.81849-0.1852 1.5531-0.55647 2.2028-0.36283 0.64973-1.0466 1.3327-2.0508 2.05l-0.96169 0.69659c-0.57378 0.41346-1.0044 0.83116-1.2913 1.2531-0.27845 0.4219-0.43005 0.8861-0.45537 1.3924h-3.3794c0.05063-0.86068 0.29093-1.6289 0.72127-2.3039 0.43878-0.67504 1.0804-1.308 1.9242-1.8987 0.90287-0.62441 1.5402-1.1722 1.9114-1.6447 0.37127-0.48097 0.55647-1.0132 0.55647-1.5954 0-0.74254-0.2446-1.329-0.734-1.7594-0.48097-0.43034-1.1691-0.64564-2.0635-0.64564-0.85224 0-1.5688 0.2497-2.1511 0.74754-0.57378 0.49784-0.91138 1.1558-1.0126 1.9743l-3.6071-0.15206c0.22783-1.7129 0.93232-3.0461 2.1136-3.9996 1.1813-0.95349 2.7169-1.4306 4.607-1.4306zm-2.3668 14.682h3.6581v3.4177h-3.6581z" fill="#fff"/>
</svg>
