<svg id="Layer_1" data-name="Layer 1" xmlns="http://www.w3.org/2000/svg" viewBox="0 0 48 48"><defs><style>.cls-1{fill:#fff;}</style></defs><title>wifiautomatic</title><path class="cls-1" d="M41,5H7A2,2,0,0,0,5,7V41a2,2,0,0,0,2,2H41a2,2,0,0,0,2-2V7A2,2,0,0,0,41,5ZM24,39a6.25,6.25,0,1,1,6.24-6.25A6.25,6.25,0,0,1,24,39Zm5.11-12.39a8,8,0,0,0-10.2,0l-2.46-3a11.86,11.86,0,0,1,15.14,0Zm3.94-4.78a14.18,14.18,0,0,0-18.07,0l-2.47-3a18.05,18.05,0,0,1,23,0Zm3.66-4.35a19.87,19.87,0,0,0-25.43,0l-2.48-3a23.75,23.75,0,0,1,30.4,0Z"/><path class="cls-1" d="M23.08,29.23l-2.47,7h1.6l.51-1.67h2.55l.51,1.67h1.61l-2.49-7Zm0,4.13c.5-1.62.8-2.63.91-3a4.52,4.52,0,0,0,.13.47l.79,2.57Z"/></svg>