<?xml version="1.0" encoding="UTF-8"?>
<svg width="48" height="48" viewBox="0 0 48 48" xmlns="http://www.w3.org/2000/svg">
    <path d="m 36.816307,8.7705512 h 9.092554 l 0.09114,0.091138 v 0.8658132 c 0,0.238478 -0.126074,0.3599956 -0.364553,0.3599956 -1.196948,0.05468 -2.074913,0.337211 -2.652121,0.843028 -0.572652,0.508855 -1.01771,1.207581 -1.336694,2.120482 0,0 -7.406497,18.546622 -9.940138,24.71364 -0.967584,2.020229 -1.919978,1.837953 -2.756931,-0.05468 -1.142265,-2.579211 -3.211102,-7.556875 -4.830324,-11.462147 -1.72555,3.90831 -3.953878,8.910277 -5.222218,11.480374 -1.130114,2.152381 -2.061242,1.871371 -2.8025,0.05468 C 13.521385,31.138901 8.2414462,19.474731 5.7548925,12.926452 5.2992015,11.726466 4.9498385,10.951792 4.62326,10.64496 4.2936435,10.344204 3.613145,10.161927 2.5726506,10.098131 2.1883513,10.057118 1.999999,9.9553474 1.999999,9.7943374 V 8.882955 l 0.091138,-0.0881 c 1.6936514,-0.01519 9.882418,0 9.882418,0 l 0.09418,0.091138 v 0.8658124 c 0,0.238479 -0.136707,0.3524006 -0.414679,0.3524006 l -1.029861,0.05013 c -0.8810028,0.03949 -1.32758,0.329617 -1.32758,0.865813 0,0.252149 0.091138,0.656195 0.3007561,1.199986 1.9792179,5.286016 8.8191389,21.068112 8.8191389,21.068112 l 0.247592,0.07291 4.412608,-9.630269 -0.884041,-2.135672 -3.030344,-6.520937 c 0,0 -0.586323,-1.301757 -0.785308,-1.734664 C 17.045399,10.453572 17.07426,10.298638 15.728453,10.101171 15.34871,10.048011 15.15732,9.9948444 15.15732,9.7897834 V 8.8723222 l 0.112404,-0.091138 h 7.845475 l 0.20658,0.071392 v 0.9113822 c 0,0.20658 -0.133669,0.3129076 -0.41316,0.3129076 l -0.568095,0.09114 c -1.436945,0.11848 -1.199986,0.762523 -0.247592,2.849588 l 2.90579,6.510304 3.217178,-7.028273 c 0.542272,-1.288087 0.434425,-1.610108 0.209618,-1.907826 -0.126075,-0.167087 -0.554424,-0.435945 -1.485553,-0.476957 l -0.364553,-0.03949 c -0.09764,-0.0011 -0.19178,-0.03658 -0.265819,-0.1002516 -0.08222,-0.05986 -0.129447,-0.156574 -0.126075,-0.258225 V 8.8510566 l 0.115442,-0.0881 c 2.272379,-0.018228 7.389788,0 7.389788,0 l 0.09114,0.094176 v 0.8658128 c 0,0.239997 -0.121517,0.3569576 -0.364552,0.3569576 -1.190873,0.06076 -1.435427,0.192909 -1.871371,0.881002 -0.419292,0.682241 -0.817452,1.377247 -1.19391,2.084027 l -4.180206,8.556357 -0.121517,0.26582 5.114371,11.453033 0.308351,0.0881 8.044465,-20.905582 c 0.27949,-0.84151 0.236959,-1.435427 -0.121518,-1.786309 -0.361515,-0.341768 -0.613664,-0.546829 -1.552387,-0.58936 l -0.75189,-0.04557 c -0.09887,-0.0027 -0.193558,-0.04047 -0.267339,-0.1063276 -0.07999,-0.05831 -0.12694,-0.151639 -0.126074,-0.25063 V 8.8464997 l 0.115441,-0.091138 z" fill="#fff"/>
</svg>
