<?xml version="1.0" encoding="UTF-8"?>
<svg width="48" height="48" viewBox="0 0 48 48" xmlns="http://www.w3.org/2000/svg">
    <path d="m 23.999824,5.5784462 c 3.246543,0 5.904342,2.6616754 5.904342,5.9076898 v 16.102528 h 0.0035 v 0.880824 c -7.42e-4,3.480314 -1.427447,6.558443 -3.54391,9.004316 1.661042,1.053273 3.567692,1.751326 5.684137,1.751326 5.961244,0 10.757685,-4.797851 10.759094,-10.759095 V 7.6944332 H 46 V 28.469559 c -0.0016,7.687483 -6.264071,13.952083 -13.952083,13.952083 -3.018057,0 -5.764996,-1.045609 -8.047917,-2.680349 -2.28204,1.634511 -5.026513,2.680349 -8.044394,2.680349 C 8.2675945,42.421642 2.0017616,36.157218 2,28.469559 V 7.6944332 H 5.1929886 V 28.466035 c 0.00141,5.960892 4.801198,10.759095 10.7626174,10.759095 2.116093,0 4.020612,-0.694953 5.680614,-1.747891 C 19.518189,35.030838 18.093015,31.950771 18.09231,28.4694 V 11.486048 c 0,-3.246543 2.661147,-5.9076899 5.90769,-5.9076899 z m 0,3.196512 c -1.520426,0 -2.711354,1.190857 -2.711354,2.7113538 v 16.980005 c 6.29e-4,2.678235 1.098829,5.016296 2.711354,6.89527 1.608509,-1.874747 2.702722,-4.206994 2.70783,-6.878006 V 11.486488 c 0,-1.5212541 -1.187404,-2.7113537 -2.70783,-2.7113537 z" fill="#fff"/>
</svg>
