<?xml version="1.0" encoding="utf-8"?>
<!-- Generator: Adobe Illustrator 21.1.0, SVG Export Plug-In . SVG Version: 6.00 Build 0)  -->
<svg version="1.0" id="Layer_1" xmlns="http://www.w3.org/2000/svg" xmlns:xlink="http://www.w3.org/1999/xlink" x="0px" y="0px"
	 viewBox="0 0 48 48" style="enable-background:new 0 0 48 48;" xml:space="preserve">
<style type="text/css">
	.st0{fill:#FFFFFF;}
</style>
<g>
	<path class="st0" d="M25.5,18.1c0-0.9-0.3-1.7-1.4-1.7c-1.1,0-1.4,0.8-1.4,1.8c0,2.9,0,5.8,0,8.7c0,1.4,0.4,2.6,1.4,3.7
		c1-1.1,1.4-2.4,1.4-3.7C25.5,24,25.5,21,25.5,18.1z"/>
	<path class="st0" d="M24,2C11.8,2,2,11.8,2,24s9.8,22,22,22s22-9.8,22-22S36.2,2,24,2z M35.7,27.6c-0.3,5.1-6.1,8.2-10.7,5.8
		c-0.7-0.4-1.1-0.5-1.9-0.1c-2,1.1-4.2,1.4-6.4,0.4c-2.7-1.3-4.2-3.4-4.3-6.4c-0.1-1.7,0-3.5,0-5.2s0-3.5,0-5.2c0-0.5-0.1-1,0.7-1
		c0.8,0,0.6,0.5,0.6,1c0,3.3,0,6.5,0,9.8c0,3.5,2.1,5.8,5.4,6.2c1.2,0.1,2.3-0.2,3.4-0.7c0.5-0.3,0.5-0.5,0.2-1
		c-0.9-1.3-1.3-2.7-1.3-4.3c0-2.9,0-5.8,0-8.7c0-1.9,1.1-3.1,2.8-3c1.6,0,2.7,1.2,2.7,3c0,3,0,5.9,0,8.9c0,1.5-0.4,2.8-1.3,4
		c-0.6,0.8-0.2,1,0.4,1.3c3.5,1.7,7.7-0.4,8.2-4.3c0.4-3.1,0.1-6.3,0.2-9.5c0-0.7,0-1.3,0-2c0-0.6,0.2-0.7,0.8-0.7
		c0.6,0,0.6,0.3,0.6,0.7C35.7,20.2,35.9,23.9,35.7,27.6z"/>
</g>
</svg>
