<?xml version="1.0" encoding="UTF-8"?>
<svg width="48" height="48" viewBox="0 0 48 48" xmlns="http://www.w3.org/2000/svg">
    <path d="m 25.327397,2.0027466 c 1.352139,0.024948 2.649814,0.2422169 3.903378,0.8527498 0.56434,0.2748726 1.153639,0.5014256 1.694562,0.8153905 0.263833,0.1531283 0.440649,0.453241 0.657142,0.6879185 0.17192,0.1864142 0.311849,0.4370932 0.523076,0.5494526 0.801673,0.4263243 1.683421,0.4433273 2.582409,0.4219807 0.0068,-0.1023838 0.0108,-0.1979596 0.01759,-0.3011029 0.904839,0.2827383 1.924795,1.325807 1.923107,2.0879604 -1.465905,0 -2.928996,-0.00539 -4.393438,0.00879 -0.156527,9.453e-4 -0.314381,0.1138222 -0.470334,0.1758252 0.147693,0.086011 0.295544,0.2417106 0.446152,0.2483497 0.847933,0.03108 1.698725,0.017333 2.5473,0.037363 0.212109,0.01401 0.42292,0.043391 0.630777,0.087913 -0.189533,0.2916085 -0.403489,0.5665913 -0.639565,0.8219842 -0.303579,0.2828621 -0.646103,0.5596251 -1.083523,0.1296775 -0.105203,-0.103436 -0.355431,-0.078961 -0.53847,-0.081324 -0.844378,-0.01114 -1.688823,-0.038923 -2.531884,-0.00664 -0.732487,0.023034 -1.462471,0.097202 -2.184622,0.2219731 -0.13518,0.024295 -0.336864,0.4760617 -0.274726,0.6417594 0.146624,0.3910465 0.362295,0.8201957 0.67913,1.0703337 1.170743,0.924194 2.41733,1.754652 3.593475,2.672545 1.142836,0.891921 2.204427,1.867743 2.852814,3.213242 0.844682,1.753077 0.869764,3.590999 0.505499,5.437362 -0.608102,3.082259 -2.168643,5.637549 -4.694563,7.492351 -1.017795,0.747367 -2.278246,1.172881 -3.443925,1.709866 -1.025267,0.472303 -2.080083,0.877798 -3.107691,1.345049 -1.852776,0.842431 -2.89535,2.854278 -2.589048,4.945051 0.281118,1.918718 1.966317,3.520107 3.894488,3.850602 2.313016,0.396549 4.697939,-1.108211 5.26373,-3.459341 0.636302,-2.643625 -0.797048,-5.003228 -3.485785,-5.718683 -0.118391,-0.03148 -0.238751,-0.06156 -0.485717,-0.125277 0.719213,-0.321358 1.340774,-0.550376 1.91433,-0.865938 1.000465,-0.550511 1.983309,-1.134059 2.947225,-1.749476 0.283493,-0.18135 0.435158,-0.180371 0.676925,0.02857 1.849175,1.5988 2.952177,3.58571 3.261517,6.024196 0.511935,4.036161 -1.39625,7.745652 -5.000078,9.646253 -5.575321,2.940362 -12.39948,-0.40563 -13.630538,-6.586837 -1.054851,-5.294451 2.680871,-10.096816 7.17806,-11.024273 1.934134,-0.398777 3.702065,-1.204952 5.076934,-2.694487 0.887161,-0.96107 1.319393,-1.78616 1.465905,-2.158291 0.272503,-0.696854 0.411908,-1.438631 0.410986,-2.186873 -0.02919,-0.648411 -0.181345,-1.285366 -0.448357,-1.87697 -0.469501,-1.070165 -2.269018,-2.772807 -2.714292,-3.131884 l -4.235223,-3.316543 c -0.149393,-0.122892 -0.317015,-0.112663 -0.681325,-0.08792 -0.432761,0.02939 -1.540286,0.08991 -2.01763,-0.03517 0.386163,-0.292259 1.440248,-0.717221 1.892274,-1.059352 C 21.843054,9.8336968 20.275987,10.169594 18.837426,9.8927408 19.170071,9.2732056 20.815559,8.3197093 21.751681,8.2135953 21.696251,7.6912114 21.611129,7.1724054 21.496737,6.6596941 21.439597,6.4491988 21.205019,6.2436211 21.000027,6.1234298 20.50299,5.8320043 19.976088,5.593467 19.404377,5.3036394 19.91608,4.9722255 20.509201,4.7881999 21.118631,4.7717637 c 0.576434,-0.02109 1.153072,0.035836 1.714255,0.1692312 1.019775,0.2330121 1.834884,0.079941 2.646212,-0.6131886 C 24.840488,4.070641 24.20404,3.8364811 23.584572,3.5585815 22.974012,3.2795968 22.378995,2.9677831 21.802126,2.6245076 c 1.606677,0.2231771 3.161591,0.826677 4.80439,0.6065944 0.01399,-0.074673 0.02559,-0.1495162 0.03956,-0.2241786 -1.228132,-0.2858779 -2.453339,-0.5713731 -3.813242,-0.8879149 0.85311,-0.078097 1.683196,-0.1314554 2.494524,-0.1164892 z m 5.241788,3.2374358 c -0.08632,0.020627 -0.170289,0.077112 -0.250555,0.1384659 -0.126485,0.080486 -0.139709,0.2601041 -0.02638,0.3582448 0.09274,0.1635949 0.301243,0.2199222 0.46374,0.1252776 0.141099,-0.071186 0.280049,-0.1473444 0.450552,-0.237367 -0.13733,-0.1172318 -0.247079,-0.2142649 -0.360439,-0.307697 -0.09968,-0.082168 -0.190601,-0.09755 -0.276921,-0.076923 z m -8.151654,9.0396136 c 3.334773,-0.120652 6.543176,1.578771 8.037438,4.450603 0.411921,0.791669 0.46527,2.011216 0.204396,2.841786 -0.900676,2.867218 -3.028358,4.475246 -5.947339,5.158292 0.860536,-0.736733 1.546924,-1.573144 1.764892,-2.727458 0.229268,-1.106162 -0.02068,-2.257678 -0.687919,-3.169244 -1.063009,-1.460379 -2.965001,-2.039664 -4.661592,-1.419768 -1.797075,0.682326 -2.779672,2.322357 -2.602215,4.338524 0.164843,1.872807 1.585297,3.086311 4.244001,3.547226 -0.397348,0.210304 -0.70275,0.365064 -1.002199,0.531876 -1.21804,0.667412 -2.277985,1.58942 -3.107691,2.703264 -0.269831,0.364299 -0.45503,0.391936 -0.865938,0.140661 -5.345201,-3.268719 -5.689987,-11.471123 0.147255,-15.041642 1.418868,-0.868032 2.961179,-1.299026 4.476933,-1.353827 z m -4.898914,17.096407 c 0.182532,-0.0035 0.363567,0.0029 0.542858,0.02198 -0.831045,1.144898 -1.316178,2.504183 -1.397825,3.916543 -0.953226,0.175555 -1.850864,0.295105 -2.72307,0.516482 -0.85868,0.217967 -1.691523,0.540687 -2.569243,0.828579 0.402513,-2.715643 3.409379,-5.230648 6.147302,-5.283536 z" fill="#fff"/>
</svg>
