<svg xmlns="http://www.w3.org/2000/svg" width="48" height="48" viewBox="0 0 48 48">
  <path d="m 47.958636,23.28991 c 0,0 1.110323,-23.2893 -24.48609,-23.2893 C 0.83603113,6.1e-4 0.12884001,22.34112 0.12884001,22.34112 0.12884001,22.34112 -3.2008779,48 23.994138,48 50.07701,48 47.958636,23.28991 47.958636,23.28991 Z M 16.311035,15.15194 c 4.80266,-2.9382 10.938423,-1.1424 13.237433,3.27611 0.435723,0.83741 0.491098,2.12654 0.21515,3.00509 -0.952724,3.03293 -3.202199,4.73386 -6.289841,5.45641 0.91026,-0.7793 1.634859,-1.66302 1.865416,-2.88396 a 4.2242666,4.2242666 0 0 0 -0.72679,-3.35293 4.2815459,4.2815459 0 0 0 -4.929698,-1.50224 c -1.900936,0.72175 -2.942203,2.45661 -2.754526,4.58921 0.174367,1.98095 1.677419,3.26477 4.489704,3.75244 -0.420314,0.22246 -0.744039,0.3863 -1.060771,0.56275 a 10.226751,10.226751 0 0 0 -3.286998,2.85883 c -0.28542,0.38535 -0.481657,0.41639 -0.916309,0.1506 -5.654008,-3.45756 -6.017363,-12.13489 0.15716,-15.91229 z m -4.231786,21.36453 c -0.908292,0.23056 -1.788458,0.57187 -2.716925,0.87639 0.4541538,-3.06412 4.042348,-5.886 7.07671,-5.5641 a 7.8208614,7.8208614 0 0 0 -1.478701,4.14283 c -1.008308,0.1857 -1.958536,0.31063 -2.881084,0.5448 z M 31.405405,6.60004 c 0.897573,0.033 1.796778,0.0194 2.695006,0.0406 a 4.6482613,4.6482613 0 0 1 0.666776,0.0928 6.497038,6.497038 0 0 1 -0.677704,0.8693 C 33.768367,7.90195 33.405572,8.1945 32.942922,7.7397 32.831643,7.63029 32.568751,7.6554 32.375137,7.6529 31.48198,7.6411 30.58764,7.6127 29.695811,7.6469 A 16.646191,16.646191 0 0 0 27.38784,7.88257 c -0.142987,0.0257 -0.356779,0.50103 -0.291053,0.67631 0.155087,0.41364 0.381323,0.8698 0.716455,1.13435 1.238432,0.97759 2.555488,1.85534 3.799632,2.82621 1.208945,0.94345 2.334211,1.97725 3.019963,3.40044 0.893477,1.85437 0.919507,3.79883 0.534201,5.75192 -0.64324,3.26044 -2.293252,5.96169 -4.965058,7.92374 -1.076593,0.79055 -2.409569,1.2392 -3.642673,1.80718 -1.084467,0.49959 -2.200773,0.92984 -3.287799,1.4241 -1.959815,0.89111 -3.061242,3.01837 -2.737245,5.23002 0.297355,2.02957 2.077893,3.72331 4.117547,4.07291 2.44669,0.41946 4.971297,-1.17059 5.569849,-3.65755 0.673064,-2.79644 -0.846357,-5.29322 -3.690353,-6.05 -0.125231,-0.0333 -0.25094,-0.0649 -0.512185,-0.1323 0.760774,-0.33992 1.417806,-0.5821 2.024455,-0.9159 q 1.587388,-0.87348 3.11692,-1.8499 c 0.299868,-0.19183 0.461882,-0.19192 0.717623,0.0291 1.955975,1.69118 3.122841,3.79484 3.450037,6.37417 0.541513,4.26938 -1.479517,8.19156 -5.291453,10.20179 -5.897526,3.1102 -13.114235,-0.42983 -14.416778,-6.96824 -1.115795,-5.6004 2.836763,-10.6805 7.593824,-11.66129 2.045894,-0.42182 3.91675,-1.27352 5.371131,-2.84909 0.93842,-1.01663 1.393327,-1.88893 1.548333,-2.28252 a 6.3303201,6.3303201 0 0 0 0.435371,-2.31501 5.4186516,5.4186516 0 0 0 -0.474459,-1.98366 c -0.496633,-1.13198 -2.399169,-2.93277 -2.870203,-3.3126 l -4.479943,-3.50732 c -0.158016,-0.13 -0.335901,-0.12058 -0.721256,-0.0944 -0.45777,0.0311 -1.627979,0.0958 -2.132933,-0.0365 0.408475,-0.30914 1.522094,-0.75921 2.000295,-1.12111 C 20.43836,9.01668 18.781325,9.37091 17.259583,9.07806 17.611451,8.42273 19.352518,7.41568 20.342744,7.30351 A 14.645096,14.645096 0 0 0 20.072732,5.65856 C 20.012292,5.4359 19.763744,5.22004 19.546914,5.0929 19.021161,4.78464 18.463824,4.53024 17.859096,4.22367 A 3.5097158,3.5097158 0 0 1 19.672193,3.6628 6.7704746,6.7704746 0 0 1 21.487851,3.8397 C 22.566589,4.08617 23.427666,3.9252 24.285894,3.19202 23.610383,2.91999 22.934952,2.67148 22.27984,2.37752 A 19.686151,19.686151 0 0 1 20.395224,1.39221 c 1.699498,0.23607 3.343319,0.87334 5.081056,0.64054 Q 25.49847,1.91427 25.52064,1.7958 C 24.221557,1.49341 22.922438,1.19105 21.484057,0.85622 c 2.406369,-0.22029 4.646661,-0.25663 6.768074,0.77666 0.596952,0.29076 1.221552,0.53143 1.793737,0.86353 0.279084,0.16198 0.466971,0.48126 0.695927,0.72951 0.181855,0.19719 0.327916,0.46137 0.551354,0.58022 0.847988,0.45093 1.781417,0.46863 2.732444,0.44605 0.0071,-0.1083 0.01378,-0.20982 0.02093,-0.31892 0.957124,0.29908 2.034375,1.40284 2.032615,2.20893 -1.550557,0 -3.099801,-0.006 -4.648901,0.009 -0.165566,10e-4 -0.330012,0.12249 -0.49497,0.18807 0.156776,0.0913 0.310845,0.2559 0.470762,0.26178 z" fill="#fff" />
  <path d="m 29.40527,4.30552 a 0.23689301,0.23689301 0 0 0 -0.03029,0.37897 0.35721149,0.35721149 0 0 0 0.491577,0.1315 C 30.015809,4.74069 30.162206,4.66057 30.342556,4.56535 30.197294,4.44135 30.080767,4.339 29.960849,4.24017 29.749973,4.06641 29.575094,4.17567 29.405273,4.30547 Z" fill="#fff" />
</svg>
