<?xml version="1.0" encoding="UTF-8" standalone="no"?>
<svg
   xmlns:dc="http://purl.org/dc/elements/1.1/"
   xmlns:cc="http://creativecommons.org/ns#"
   xmlns:rdf="http://www.w3.org/1999/02/22-rdf-syntax-ns#"
   xmlns:svg="http://www.w3.org/2000/svg"
   xmlns="http://www.w3.org/2000/svg"
   id="svg4564"
   version="1.1"
   viewBox="0 0 48 48"
   height="48"
   width="48">
  <metadata
     id="metadata4570">
    <rdf:RDF>
      <cc:Work
         rdf:about="">
        <dc:format>image/svg+xml</dc:format>
        <dc:type
           rdf:resource="http://purl.org/dc/dcmitype/StillImage" />
        <dc:title></dc:title>
      </cc:Work>
    </rdf:RDF>
  </metadata>
  <defs
     id="defs4568" />
  <path
     id="circle7395"
     d="M 24 2 A 22 22 0 0 0 2 24 A 22 22 0 0 0 24 46 A 22 22 0 0 0 46 24 A 22 22 0 0 0 24 2 z M 24 13.542969 C 25.842914 13.542969 27.351609 15.053908 27.351562 16.896484 L 27.351562 26.037109 L 27.353516 26.037109 L 27.353516 26.537109 C 27.353095 28.512753 26.543224 30.259964 25.341797 31.648438 C 26.284687 32.246325 27.366956 32.642578 28.568359 32.642578 C 31.952289 32.642578 34.674952 29.919031 34.675781 26.535156 L 34.675781 14.744141 L 36.488281 14.744141 L 36.488281 26.537109 C 36.487355 30.900894 32.932476 34.457031 28.568359 34.457031 C 26.855162 34.457031 25.295883 33.863489 24 32.935547 C 22.70462 33.863375 21.146708 34.457031 19.433594 34.457031 C 15.069478 34.457031 11.512673 30.90102 11.511719 26.537109 L 11.511719 14.744141 L 13.324219 14.744141 L 13.324219 26.535156 C 13.325019 29.918882 16.049666 32.642578 19.433594 32.642578 C 20.634764 32.642578 21.715845 32.248086 22.658203 31.650391 C 21.455885 30.261717 20.646916 28.513271 20.646484 26.537109 L 20.646484 16.896484 C 20.646484 15.053571 22.157087 13.542969 24 13.542969 z M 24 15.357422 C 23.136926 15.357422 22.460938 16.033409 22.460938 16.896484 L 22.460938 26.535156 C 22.461295 28.055476 23.084684 29.382675 24 30.449219 C 24.913074 29.385068 25.534209 28.061075 25.537109 26.544922 L 25.537109 16.896484 C 25.537109 16.032941 24.863075 15.357422 24 15.357422 z "
     style="fill:#ffffff" />
</svg>
