<?xml version="1.0" encoding="UTF-8"?>
<svg version="1.1" viewBox="0 0 48 48" xmlns="http://www.w3.org/2000/svg">
    <path d="m24 2.9707-4.5488 7.0293-7.8125-3.0137 0.45312 8.3613-8.0918 2.1543 5.2793 6.498-5.2793 6.498 8.0918 2.1543-0.45312 8.3613 7.8125-3.0137 4.5488 7.0293 4.5488-7.0293 7.8125 3.0137-0.45312-8.3613 8.0918-2.1543-5.2793-6.498 5.2793-6.498-8.0918-2.1543 0.45312-8.3613-7.8125 3.0137-4.5488-7.0293zm-7.5234 10.65 7.5234 2.4199 7.5234-2.4199 0.02539 7.9043 4.625 6.4082-7.5098 2.4648-4.6641 6.3789-4.6641-6.3789-7.5098-2.4648 4.625-6.4082 0.02539-7.9043z" fill="#fff" style="paint-order:stroke markers fill"/>
    <path d="m20.418 19.801v3h6.6992v-3h-6.6992zm0 5v3h6.6992v-3h-6.6992z" fill="#fff" style="paint-order:stroke markers fill"/>
</svg>
