<?xml version="1.0" encoding="UTF-8"?>
<svg version="1.1" viewBox="0 0 48 48" xmlns="http://www.w3.org/2000/svg">
    <path d="m17.776 5.0008c-0.07524 0.00414-0.14851 0.025169-0.21588 0.064061-0.26946 0.15557-0.33586 0.54103-0.14918 0.86438l1.7761 3.0767c-2.7436 1.5368-4.7828 4.3557-5.224 7.488h20.068c-0.42078-3.1551-2.4675-5.9571-5.2183-7.4858l1.7775-3.0788c0.18668-0.32335 0.12027-0.70881-0.14918-0.86438-0.26946-0.15557-0.63689-0.020594-0.82357 0.30275l-1.7972 3.1131c-0.0074 0.01281-0.01182 0.02606-0.01843 0.03905-1.1887-0.49606-2.4762-0.76298-3.8011-0.73274-1.3278-0.03773-2.6156 0.2286-3.8037 0.72748-0.0058-0.0112-0.0094-0.02272-0.0158-0.03378l-1.7972-3.1131c-0.14001-0.24251-0.38199-0.3793-0.6077-0.36681zm10.808 6.6873c0.62035 0 1.1232 0.5029 1.1232 1.1233s-0.5029 1.1232-1.1232 1.1232-1.1232-0.5029-1.1232-1.1232 0.5029-1.1233 1.1232-1.1233zm-9.1677 0.2014c0.62035 0 1.1232 0.5029 1.1232 1.1232s-0.5029 1.1233-1.1232 1.1233-1.1233-0.5029-1.1233-1.1233 0.5029-1.1232 1.1233-1.1232zm-5.5324 6.2893c0.0029 0.06133 0.0028 0.12242 7e-3 0.18384 0.0048 3.121-0.0016 6.2422-8.64e-4 9.3633l18.71-9.5472zm20.226 4.5461-20.009 9.3247c-0.37052 0.15292-0.19897 0.77234-0.1979 1.1092 0 2.5501 2.205 2.0159 3.8076 2.0161v5.3539c0 1.369 1.1021 2.4711 2.4712 2.4711s2.4712-1.1021 2.4712-2.4711v-5.353c0.89859 7.18e-4 1.7972 1.53e-4 2.6958 4.38e-4v5.066c0 1.369 1.1021 2.4711 2.4712 2.4711s2.4712-1.1021 2.4712-2.4711v-5.0731c2.337 0 3.8191-0.56775 3.8191-2.9555 0 0 1e-6 -6.3257 0-9.4888z" fill="#fff" style="paint-order:stroke markers fill"/>
    <path d="m10.072 18.066c-1.369 0-2.4712 1.1021-2.4712 2.4712v9.66c0 1.369 1.1021 2.4712 2.4712 2.4712 1.369 0 2.4712-1.1021 2.4712-2.4712v-9.66c0-1.369-1.1021-2.4712-2.4712-2.4712z" fill="#fff" style="paint-order:stroke markers fill"/>
    <path d="m37.928 18.066c-1.369 0-2.4712 1.1021-2.4712 2.4712v9.66c0 1.369 1.1021 2.4712 2.4712 2.4712 1.369 0 2.4712-1.1021 2.4712-2.4712v-9.66c0-1.369-1.1021-2.4712-2.4712-2.4712z" fill="#fff" style="paint-order:stroke markers fill"/>
    <path d="m34.266 17.912c-0.06965 0.0064-0.15709 0.035454-0.26367 0.089844l-20.111 10.262c-0.83079 0.47966-0.53705 3.665 0.005859 3.3516l19.865-9.2598c0.45122-0.21032 0.84066-0.33223 0.79688-0.82812v-2.6445c0-0.60102 0.008869-0.99829-0.29297-0.9707zm-2.4238 1.4883h1.0117v2.6953h-1.0117v-2.6953zm-2.4473 1.3145h1.0098v2.5352h-1.0098v-2.5352zm-2.4492 1.3027h1.0098v2.3594h-1.0098v-2.3594zm-2.4492 1.3574h1.0117v2.2461h-1.0117v-2.2461zm-2.4473 1.2285h1.0098v2.0898h-1.0098v-2.0898zm-2.4492 1.1504h1.0117v2.0215h-1.0117v-2.0215zm-2.4492 1.3203h1.0117v2.0234h-1.0117v-2.0234zm-2.4258 1.1836h0.9668v2.0215h-0.9668v-2.0215z" fill="#fff" style="paint-order:stroke markers fill"/>
</svg>
