<?xml version="1.0" encoding="UTF-8" standalone="no"?>
<!-- Generator: Adobe Illustrator 23.0.1, SVG Export Plug-In . SVG Version: 6.00 Build 0)  -->

<svg
   xmlns:ns="&amp;ns_sfw;"
   xmlns:dc="http://purl.org/dc/elements/1.1/"
   xmlns:cc="http://creativecommons.org/ns#"
   xmlns:rdf="http://www.w3.org/1999/02/22-rdf-syntax-ns#"
   xmlns:svg="http://www.w3.org/2000/svg"
   xmlns="http://www.w3.org/2000/svg"
   xmlns:sodipodi="http://sodipodi.sourceforge.net/DTD/sodipodi-0.dtd"
   xmlns:inkscape="http://www.inkscape.org/namespaces/inkscape"
   version="1.1"
   id="Livello_1"
   x="0px"
   y="0px"
   viewBox="0 0 48 48"
   enable-background="new 0 0 1881.25 1750"
   xml:space="preserve"
   sodipodi:docname="word.svg"
   width="48"
   height="48"
   inkscape:version="0.92.2 (5c3e80d, 2017-08-06)"><defs
     id="defs34" /><sodipodi:namedview
     pagecolor="#ffffff"
     bordercolor="#666666"
     borderopacity="1"
     objecttolerance="10"
     gridtolerance="10"
     guidetolerance="10"
     inkscape:pageopacity="0"
     inkscape:pageshadow="2"
     inkscape:window-width="1366"
     inkscape:window-height="745"
     id="namedview32"
     showgrid="false"
     inkscape:zoom="8.6308571"
     inkscape:cx="9.8343569"
     inkscape:cy="18.994981"
     inkscape:window-x="-8"
     inkscape:window-y="-8"
     inkscape:window-maximized="1"
     inkscape:current-layer="Livello_1" /><metadata
     id="metadata2"><ns:sfw><ns:slices /><ns:sliceSourceBounds
         bottomLeftOrigin="true"
         height="1750"
         width="1881.25"
         x="-938.5"
         y="-851" /></ns:sfw><rdf:RDF><cc:Work
         rdf:about=""><dc:format>image/svg+xml</dc:format><dc:type
           rdf:resource="http://purl.org/dc/dcmitype/StillImage" /><dc:title></dc:title></cc:Work></rdf:RDF></metadata><linearGradient
     id="SVGID_1_"
     gradientUnits="userSpaceOnUse"
     x1="167.2057"
     y1="1420.9117"
     x2="795.29431"
     y2="333.08829"
     gradientTransform="matrix(1,0,0,-1,0,1752)"><stop
       offset="0"
       style="stop-color:#2368C4"
       id="stop20" /><stop
       offset="0.5"
       style="stop-color:#1A5DBE"
       id="stop22" /><stop
       offset="1"
       style="stop-color:#1146AC"
       id="stop24" /></linearGradient><path
     inkscape:connector-curvature="0"
     style="fill:#ffffff;fill-opacity:1;stroke-width:0.99999982"
     d="m 14.109375,3.5351548 c -1.035882,0 -1.876953,0.84115 -1.876953,1.87695 V 11.720705 H 24.68359 c 1.03448,0 1.87164,0.84245 1.875,1.87695 v 21.83008 c -0.003,1.0345 -0.84052,1.8717 -1.875,1.875 H 12.232422 v 1.02343 4.26368 c 0,1.0359 0.841071,1.875 1.876953,1.875 H 44.125 c 1.03588,0 1.875,-0.8391 1.875,-1.875 v -8.35742 -10.23243 -10.23242 -8.3554702 c 0,-1.0358 -0.83912,-1.87695 -1.875,-1.87695 H 29.62891 Z M 3.8769531,12.744135 c -1.035881,0 -1.876953,0.84116 -1.876953,1.87696 v 18.75976 c 0,1.0359 0.841072,1.875 1.876953,1.875 H 22.63672 c 1.03588,0 1.875,-0.8391 1.875,-1.875 v -18.75976 c 0,-1.0358 -0.83912,-1.87696 -1.875,-1.87696 z m 14.8769569,5.15821 h 2.32226 l -2.86719,12.19726 h -2.712886 l -1.94336,-8.07812 c -0.05628,-0.23229 -0.120804,-0.53666 -0.191406,-0.91016 -0.0706,-0.37349 -0.115427,-0.64646 -0.132812,-0.81836 h -0.0332 c -0.0223,0.1985 -0.06731,0.49387 -0.132812,0.88477 -0.0655,0.3909 -0.116678,0.67958 -0.15625,0.86719 l -1.828125,8.05273 H 8.3183591 l -2.880859,-12.19141 h 2.363281 l 1.777344,8.5293 c 0.03991,0.17499 0.07838,0.40866 0.115234,0.69727 0.03666,0.28958 0.061,0.53996 0.07227,0.75585 h 0.04297 c 0.01625,-0.20457 0.04971,-0.45163 0.101562,-0.74023 0.05186,-0.2886 0.09905,-0.53127 0.1406249,-0.73047 l 1.972657,-8.51172 h 2.550781 l 2.046875,8.38282 c 0.118904,0.52129 0.203106,1.04983 0.253906,1.58203 h 0.0352 c 0.0381,-0.5156 0.10929,-1.02866 0.21289,-1.53516 z"
     id="path1435" /></svg>