<?xml version="1.0" encoding="UTF-8"?>
<svg version="1.1" viewBox="0 0 48 48" xmlns="http://www.w3.org/2000/svg">
    <path d="m5 19.139 3.6252 13.528h3.9082l2.2547-8.4147 2.2547 8.4147h3.9082l3.4021-12.697c-0.494 0.74547-1.0289 1.3894-1.8508 1.3546-1.1037-0.04671-1.5662-1.0637-1.576-2.186h-0.25835l-2.2559 8.4177-2.2536-8.4177h-2.7409l-2.2536 8.4177-2.2559-8.4177z" fill="#fff"/>
    <path d="m34.465 12.254c-3.8559 0.0581-8.6471 1.4306-11.688 4.1225-2.4366 2.1573-0.60868 5.0288-0.02877 4.2024 5.5485-7.9068 15.912-7.3909 15.197-1.9159-0.33002 1.9722-2.6816 2.6053-4.8248 3.1237-0.0068-0.0085-0.01314-0.0173-0.01996-0.02584-0.5177-0.64747-2.3704-0.22404-2.2753 0.69932-0.61328 0.4279-0.46866 1.2559-0.89778 2.4139 0.55515-0.03901 1.1652-0.1372 1.802-0.2836 1.5553 3.5382 2.619 6.0583 5.1677 8.282 1.0394 0.90691 2.9686 0.97685 4.1818 0.13975 1.7393-1.3156 2.3041-1.9594 1.667-4.284-4.3797 5.03-5.1918-0.05585-8.2808-5.0191 4.5068-1.8556 8.8311-5.6595 5.7408-9.7306-0.90251-1.1889-3.1025-1.7643-5.7408-1.7245zm-4.6105 4.0386c-0.90802 0.06151-2.4877 1.1411-2.8114 0.63238 0.67265 3.7892-2.5466 15.402-2.6998 17.204-0.22095 2.5984 3.2944 1.436 3.3046 0.83026 0.06446-3.8256 2.6327-14.885 2.8472-17.875 0.04575-0.63759-0.22787-0.82005-0.6406-0.79209z" color="#000000" color-rendering="auto" dominant-baseline="auto" fill="#fff" image-rendering="auto" shape-rendering="auto" solid-color="#000000" style="font-feature-settings:normal;font-variant-alternates:normal;font-variant-caps:normal;font-variant-ligatures:normal;font-variant-numeric:normal;font-variant-position:normal;isolation:auto;mix-blend-mode:normal;shape-padding:0;text-decoration-color:#000000;text-decoration-line:none;text-decoration-style:solid;text-indent:0;text-orientation:mixed;text-transform:none;white-space:normal"/>
</svg>
