<svg xmlns="http://www.w3.org/2000/svg" viewBox="0 0 48 48"><defs><style>.cls-1{fill:#fff;}</style></defs><g id="Layer_1" data-name="Layer 1"><path id="path1435" class="cls-1" d="M13.88,3.54A1.89,1.89,0,0,0,12,5.41v6.31H23.32a3,3,0,0,1,3,3V34.3a3,3,0,0,1-3,3H12v5.29a1.87,1.87,0,0,0,1.87,1.87h30a1.87,1.87,0,0,0,1.88-1.86h0V5.41a1.87,1.87,0,0,0-1.87-1.87h-30ZM4.11,13.26a1.89,1.89,0,0,0-1.88,1.87V33.89a1.88,1.88,0,0,0,1.88,1.88H22.87a1.88,1.88,0,0,0,1.88-1.88h0V15.13a1.89,1.89,0,0,0-1.88-1.87ZM19,18.41h2.32l-2.87,12.2H15.73l-1.94-8.08c-.06-.23-.12-.53-.19-.91a7.39,7.39,0,0,1-.14-.82h0a8.23,8.23,0,0,1-.13.89c-.06.39-.12.68-.16.87l-1.83,8.05H8.55L5.67,18.42H8L9.81,27q.06.26.12.69c0,.29.06.54.07.76h0a4.76,4.76,0,0,1,.1-.74c.05-.29.1-.53.15-.73l2-8.51H14.8l2,8.38a14,14,0,0,1,.25,1.58h0a11.28,11.28,0,0,1,.22-1.53Z"/></g></svg>