<svg width="48" height="48" version="1.1" viewBox="0 0 48 48" xmlns="http://www.w3.org/2000/svg">
  <path d="m24 2a22 22 0 0 0 -22 22 22 22 0 0 0 22 22 22 22 0 0 0 22 -22 22 22 0 0 0 -22 -22zm11.6 9.2188l1.1816 1.1816-1.7031 1.7031-1.1816-1.1816 1.7031-1.7031zm-3.2754 0.83984l3.6172 3.6172-19.715 19.717-3.6191-3.6191 19.717-19.715zm1.9141 6.0312l1.623 1.623-0.6875 0.6875-2.6816 2.6816-0.625-0.625 2.6836-2.6816-1-0.99805 0.6875-0.6875zm-21.984 14.037l3.6191 3.6191-4.6543 1.0352 1.0352-4.6543z" fill="#fff"/>
</svg>
