<?xml version="1.0" encoding="UTF-8"?>
<svg version="1.1" viewBox="0 0 48 48" xmlns="http://www.w3.org/2000/svg">
    <path d="m24 2a22 22 0 0 0-22 22 22 22 0 0 0 22 22 22 22 0 0 0 22-22 22 22 0 0 0-22-22zm-1.5 4.8281h3v7h-3v-7zm4.5 0.76953a8 8 0 0 1 5 7.4023 8 8 0 0 1-8 8 8 8 0 0 1-8-8 8 8 0 0 1 5-7.4004v2.2227a6 6 0 0 0-3 5.1777 6 6 0 0 0 6 6 6 6 0 0 0 6-6 6 6 0 0 0-3-5.1855v-2.2168zm-17.801 18.402h29.602c0.6648 0 1.1992 0.59532 1.1992 1.334v7.332c0 0.73867-0.53442 1.334-1.1992 1.334h-29.602c-0.6648 0-1.1992-0.59532-1.1992-1.334v-7.332c0-0.73867 0.53442-1.334 1.1992-1.334zm1.3887 1.5c-0.60248 0-1.0879 0.41653-1.0879 0.93359v5.1328c0 0.51707 0.48542 0.93359 1.0879 0.93359h26.824c0.60248 0 1.0879-0.41653 1.0879-0.93359v-5.1328c0-0.51707-0.48541-0.93359-1.0879-0.93359h-26.824zm17.037 0.5c0.34625 0 0.625 0.26721 0.625 0.59961v4.8008c0 0.3324-0.27875 0.59961-0.625 0.59961s-0.625-0.26721-0.625-0.59961v-4.8008c0-0.3324 0.27875-0.59961 0.625-0.59961zm-13.625 1a2 2 0 0 1 2 2 2 2 0 0 1-2 2 2 2 0 0 1-2-2 2 2 0 0 1 2-2zm5 0a2 2 0 0 1 2 2 2 2 0 0 1-2 2 2 2 0 0 1-2-2 2 2 0 0 1 2-2zm5 0a2 2 0 0 1 2 2 2 2 0 0 1-2 2 2 2 0 0 1-2-2 2 2 0 0 1 2-2z" fill="#fff"/>
</svg>
