<?xml version="1.0" encoding="UTF-8" standalone="no"?>
<svg
   xmlns:dc="http://purl.org/dc/elements/1.1/"
   xmlns:cc="http://creativecommons.org/ns#"
   xmlns:rdf="http://www.w3.org/1999/02/22-rdf-syntax-ns#"
   xmlns:svg="http://www.w3.org/2000/svg"
   xmlns="http://www.w3.org/2000/svg"
   xmlns:sodipodi="http://sodipodi.sourceforge.net/DTD/sodipodi-0.dtd"
   xmlns:inkscape="http://www.inkscape.org/namespaces/inkscape"
   width="48"
   height="48"
   viewBox="0 0 48 48"
   version="1.1"
   id="svg4"
   sodipodi:docname="wx.svg"
   inkscape:version="0.92.4 (5da689c313, 2019-01-14)">
  <metadata
     id="metadata10">
    <rdf:RDF>
      <cc:Work
         rdf:about="">
        <dc:format>image/svg+xml</dc:format>
        <dc:type
           rdf:resource="http://purl.org/dc/dcmitype/StillImage" />
        <dc:title></dc:title>
      </cc:Work>
    </rdf:RDF>
  </metadata>
  <defs
     id="defs8">
    <inkscape:perspective
       sodipodi:type="inkscape:persp3d"
       inkscape:vp_x="0 : 24 : 1"
       inkscape:vp_y="0 : 1000 : 0"
       inkscape:vp_z="48 : 24 : 1"
       inkscape:persp3d-origin="24 : 16 : 1"
       id="perspective850" />
  </defs>
  <sodipodi:namedview
     pagecolor="#ffffff"
     bordercolor="#666666"
     borderopacity="1"
     objecttolerance="10"
     gridtolerance="10"
     guidetolerance="10"
     inkscape:pageopacity="0"
     inkscape:pageshadow="2"
     inkscape:window-width="1920"
     inkscape:window-height="1027"
     id="namedview6"
     showgrid="false"
     inkscape:pagecheckerboard="true"
     inkscape:zoom="13.906433"
     inkscape:cx="36.08304"
     inkscape:cy="28.763851"
     inkscape:window-x="-8"
     inkscape:window-y="-8"
     inkscape:window-maximized="1"
     inkscape:current-layer="svg4" />
  <path
     style="fill:#ffffff;fill-opacity:1"
     d="M 7 5 C 5.892 5 5 5.892 5 7 L 5 41 C 5 42.108 5.892 43 7 43 L 41 43 C 42.108 43 43 42.108 43 41 L 43 7 C 43 5.892 42.108 5 41 5 L 7 5 z M 26.103516 16.830078 L 28.115234 16.830078 L 30.976562 21.751953 C 31.165365 22.077474 31.33138 22.402995 31.474609 22.728516 L 31.513672 22.728516 C 31.722005 22.298828 31.904297 21.960286 32.060547 21.712891 L 35.039062 16.830078 L 36.923828 16.830078 L 32.519531 23.773438 L 36.982422 30.833984 L 34.980469 30.833984 L 31.757812 25.472656 C 31.660156 25.309896 31.552734 25.078776 31.435547 24.779297 L 31.396484 24.779297 C 31.33138 24.929036 31.220703 25.160156 31.064453 25.472656 L 27.744141 30.833984 L 25.732422 30.833984 L 30.419922 23.792969 L 26.103516 16.830078 z M 11.259766 20.833984 L 12.939453 20.833984 L 15.009766 28.353516 C 15.07487 28.58138 15.120443 28.880859 15.146484 29.251953 L 15.224609 29.251953 C 15.244141 28.965495 15.302734 28.659505 15.400391 28.333984 L 17.705078 20.833984 L 19.169922 20.833984 L 21.240234 28.373047 C 21.305339 28.613932 21.354167 28.913411 21.386719 29.271484 L 21.464844 29.271484 C 21.477865 29.017578 21.533203 28.718099 21.630859 28.373047 L 23.662109 20.833984 L 25.244141 20.833984 L 22.246094 30.833984 L 20.585938 30.833984 L 18.525391 23.675781 C 18.447266 23.402344 18.395182 23.093099 18.369141 22.748047 L 18.330078 22.748047 C 18.310547 22.982422 18.242188 23.285156 18.125 23.65625 L 15.888672 30.833984 L 14.287109 30.833984 L 11.259766 20.833984 z "
     id="rect2" />
</svg>
