<?xml version="1.0" encoding="UTF-8"?>
<svg version="1.1" viewBox="0 0 48 48" xmlns="http://www.w3.org/2000/svg">
    <path d="m23.948 2c-4.1435 0.0033-8.2018 1.1767-11.708 3.385 4.4641-0.66291 8.4376 1.8093 11.708 3.3536 3.0542-1.8899 7.7859-4.3853 11.635-3.354-3.7482-1.9744-7.9669-3.337-11.635-3.3846zm-15.237 6.1383c-8.3448 8.1294-8.6551 20.462-2.3306 29.07 0.2099-9.8386 9.7007-20.357 11.479-23.045-1.0167-1.0167-5.0411-5.9483-9.1486-6.0251zm30.446 8.25e-4c-4.0981 0.09804-8.1069 5.0098-9.1214 6.0243 1.778 2.6868 11.263 13.199 11.479 23.035 7.061-9.8162 5.1682-22.247-2.3579-29.059zm-15.209 11.419c-3.9746 2.2948-16.309 14.881-15.153 20.356 4.0831 3.8975 9.508 6.0766 15.153 6.0863 5.6388-4e-3 11.061-2.1732 15.146-6.0594 1.2033-5.4608-11.165-18.084-15.146-20.383z" fill="#fff"/>
</svg>
