<?xml version="1.0" encoding="utf-8"?>
<!-- Generator: Adobe Illustrator 21.1.0, SVG Export Plug-In . SVG Version: 6.00 Build 0)  -->
<svg version="1.0" id="Layer_1" xmlns="http://www.w3.org/2000/svg" xmlns:xlink="http://www.w3.org/1999/xlink" x="0px" y="0px"
	 viewBox="0 0 48 48" enable-background="new 0 0 48 48" xml:space="preserve">
<path fill="#FFFFFF" d="M32.6,24.6c-1,0-1.4,0.5-1.5,1.5c0,0.5,0,0.9,0,1.4c0,1,0.5,1.5,1.5,1.5c1,0,2.1,0,3.1,0
	c0.8,0,1.2-0.5,1.2-1.2c0-1.1,0-2.1,0-3.2C35.5,24.6,34.1,24.6,32.6,24.6z"/>
<path fill="#FFFFFF" d="M22.5,21.6c-1,0-1.7,0.5-1.7,1.6c-0.1,1.5,0,3,0,4.6c0,0.9,0.5,1.3,1.4,1.3c1,0,1.9,0.1,2.9,0
	c1-0.1,1.6-0.6,1.6-1.5c0.1-2,0-3.9,0-6C25.3,21.6,23.9,21.5,22.5,21.6z"/>
<path fill="#FFFFFF" d="M42,8H6c-1.1,0-2,0.9-2,2v28c0,1.1,0.9,2,2,2h36c1.1,0,2-0.9,2-2V10C44,8.9,43.1,8,42,8z M17.2,28.4
	c0.3,0.3,0.6,0.7,0.8,1c0.1,0.2,0.1,0.4,0.2,0.6c-0.4,0-0.7,0.1-0.9,0.1c-1-1.3-2-2.6-3.1-4c-1,1.3-2,2.6-3.1,3.9
	c-0.2,0.1-0.5,0.1-0.8,0.2c-0.1-0.2-0.2-0.4-0.3-0.5c1.2-1.5,2.3-2.9,3.5-4.4c-1.1-1.5-2.3-3-3.6-4.7c0.5-0.1,0.8-0.2,1.1-0.2
	c1,1.4,2,2.6,3.1,4c1-1.3,2-2.6,3-4c0.3,0.1,0.6,0.2,1.1,0.3c-1.2,1.6-2.4,3.1-3.5,4.6C15.6,26.3,16.4,27.4,17.2,28.4z M25,30.1
	c-0.9,0-1.8,0-2.7,0c-1.6-0.1-2.5-1-2.5-2.7c0-1.4,0-2.7,0-4.1c0-1.8,1-2.9,2.9-2.9c1.3,0,2.6,0,3.9,0c0,0,0.1,0,0.2-0.1
	c0-0.8,0-1.7,0-2.7c0.4,0,0.6,0,1,0c0,0.3,0,0.5,0,0.7c0,2.9,0,5.9,0,8.8C27.7,29.1,26.8,30,25,30.1z M38,28c-0.1,1.2-1,2-2.2,2.1
	c-1.1,0-2.1,0-3.2,0c-1.3-0.1-2.2-0.9-2.4-2.2c-0.1-0.7-0.1-1.5,0-2.3c0.2-1.4,1.1-2.1,2.5-2.1c1.3,0,2.6,0,3.9,0c0.2,0,0.3,0,0.5,0
	c0.1-1.3-0.3-1.9-1.6-1.9c-1.4,0-2.9,0-4.3,0c-0.2,0-0.5,0-0.8,0c0-0.3,0-0.6,0-0.8c0.1-0.1,0.2-0.2,0.2-0.2c1.9,0,3.9,0,5.8,0.1
	c1.1,0.1,1.8,0.9,1.9,2C38.1,24.4,38.1,26.2,38,28z"/>
</svg>
