<?xml version="1.0" encoding="UTF-8"?>
<svg version="1.1" viewBox="0 0 48 48" xmlns="http://www.w3.org/2000/svg">
    <path d="m32.873 9.6963c-0.96733 0-1.7461 0.77871-1.7461 1.7461v10.267h2.4445v-3.9669h6.9844v3.9669h2.4445v-10.267c0-0.96738-0.77876-1.7461-1.7461-1.7461zm0.69844 2.4445h6.9844v3.143h-6.9844z" fill="#fff" style="paint-order:stroke markers fill"/>
    <path d="m18.763 9.6963v12.013h9.7624c0.97612 0 1.7618-0.78779 1.7618-1.7666v-8.4801c0-0.97876-0.78566-1.7666-1.7618-1.7666h-3.4424zm2.2699 2.4445h6.9844v7.1242h-6.9844z" fill="#fff" style="paint-order:stroke markers fill"/>
    <path d="m8.143 9.6967 3.4922 4.1618 3.4922-4.1618h3.143l-5.0637 6.0347 5.0165 5.9785h-3.143l-3.445-4.1056-3.445 4.1056h-3.143l5.0165-5.9785-5.0637-6.0347z" fill="#fff"/>
    <path d="m18.763 27.369v12.013h2.4834l2.4058 3.6179v-6.0626h-2.4446v-7.1238h2.4446v-2.4446zm6.6358 0v2.4446h2.4446v7.1238h-2.4446v2.4446h4.8892v-12.013z" fill="#fff" style="paint-order:stroke markers fill"/>
</svg>
