<?xml version="1.0" encoding="utf-8"?>
<!-- Generator: Adobe Illustrator 21.1.0, SVG Export Plug-In . SVG Version: 6.00 Build 0)  -->
<svg version="1.0" id="Layer_1" xmlns="http://www.w3.org/2000/svg" xmlns:xlink="http://www.w3.org/1999/xlink" x="0px" y="0px"
	 viewBox="0 0 48 48" enable-background="new 0 0 48 48" xml:space="preserve">
<path fill="#FFFFFF" d="M28.6,18.3c1.6,2,1.7,3.6,0.4,4.8c-1.1,1-2.8,1-3.9,0c-1.3-1.2-1.2-2.7,0.3-4.8c-1.2,0-2.3,0-3.3,0
	c-0.6,0-0.9-0.1-0.9-0.8c0-2.6,0-5.3,0-7.9c0-1.5,1-2.4,2.5-2.4c5.6,0,11.3,0,16.9,0C42.1,7.2,43,8,43,9.6c0,9.6,0,19.1,0,28.7
	c0,1.6-0.9,2.5-2.5,2.5c-5.6,0-11.2,0-16.8,0c-1.8,0-2.6-0.7-2.6-2.5c0-2.5,0-5,0-7.6c0-0.9,0.3-1,1.1-1c3.1,0,6.1,0,9.2,0
	c1,0,1.4-0.3,1.3-1.3c-0.1-0.9,0-1.9,0-2.8c0-1,0.6-1.4,1.5-0.9c0.3,0.2,0.6,0.5,0.9,0.7c0.8,0.6,1.9,0.6,2.6-0.1
	c0.7-0.8,0.8-1.9,0.1-2.7c-0.7-0.8-1.8-0.8-2.7-0.2c-0.3,0.2-0.5,0.6-0.8,0.7c-0.4,0.1-0.9,0.2-1.3,0.1c-0.2,0-0.3-0.6-0.3-1
	c0-1,0-2,0-3.1c0-0.6-0.3-0.9-0.9-0.9C30.8,18.3,29.8,18.3,28.6,18.3z"/>
<path fill="#FFFFFF" d="M17.5,22.5c2.1-1.6,3.6-1.7,4.8-0.4c1.1,1.1,1.1,2.8,0,4c-1.2,1.3-2.7,1.2-4.8-0.4c0,1.1,0,2.1,0,3.1
	c0,1.5-0.5,2-2,2c-3.1,0-6.1,0-9.2,0c-1,0-1.2-0.3-1.2-1.3c0.1-3.6,0.1-7.2,0-10.7c0-1.1,0.3-1.4,1.3-1.3c1,0.1,2,0,2.9,0
	c1,0,1.3,0.5,0.9,1.3c-0.2,0.4-0.5,0.7-0.8,1c-0.7,0.9-0.6,1.9,0.1,2.7c0.7,0.7,1.9,0.7,2.7,0c0.7-0.7,0.8-1.8,0.1-2.7
	c-0.2-0.2-0.5-0.4-0.5-0.6c-0.2-0.5-0.3-1-0.2-1.4c0-0.2,0.7-0.3,1.1-0.3c1.1,0,2.1,0,3.2,0c1,0,1.6,0.6,1.6,1.6
	C17.5,20.1,17.5,21.2,17.5,22.5z"/>
</svg>
