<?xml version="1.0" encoding="utf-8"?>
<!-- Generator: Adobe Illustrator 21.1.0, SVG Export Plug-In . SVG Version: 6.00 Build 0)  -->
<svg version="1.0" id="Layer_1" xmlns="http://www.w3.org/2000/svg" xmlns:xlink="http://www.w3.org/1999/xlink" x="0px" y="0px"
	 viewBox="0 0 48 48" enable-background="new 0 0 48 48" xml:space="preserve">
<g>
	<path fill="#FFFFFF" d="M23.5,11.2c-3.3,2.9-6.9,5.4-11.2,6.7c-0.2,0.1-0.4,0.4-0.3,0.6c0.1,0.8,0.3,1.5,0.5,2.2
		c1.8,6.8,5.9,12.1,11.2,16.4c0,0,0.1,0,0.2,0.1c0.1-0.1,0.2-0.1,0.3-0.2c6.3-4.8,10.4-10.9,11.9-18.7c0.1-0.4-0.1-0.6-0.4-0.7
		c-1.5-0.7-3-1.3-4.5-2.1c-2.6-1.3-4.9-2.9-7.1-4.8c-0.1,0-0.1,0-0.2,0.1C23.8,11,23.6,11.1,23.5,11.2z M29.2,15.6
		c1.7,1,3.5,1.8,5.3,2.6c0.3,0.2,0.5,0.3,0.4,0.7c-1.5,7-5.3,12.5-10.9,16.9c-0.1,0-0.1,0.1-0.2,0.1c-5.4-4.6-9.4-10.1-10.8-17.2
		c4.2-1.4,7.8-3.8,10.9-6.6C25.7,13.3,27.4,14.6,29.2,15.6z"/>
	<path fill="#FFFFFF" d="M38,4H10C8.9,4,8,4.9,8,6v36c0,1.1,0.9,2,2,2h28c1.1,0,2-0.9,2-2V6C40,4.9,39.1,4,38,4z M36.5,23.3
		c-2.3,6.7-6.5,12-12.4,15.9c-0.3,0.2-0.5,0.3-0.9,0c-5.6-4.4-9.9-9.7-12.2-16.6c-0.6-1.9-1-3.8-1.1-5.8c5.7-1.2,10-4.6,14-8.4
		c4,3.9,8.8,6.4,14,8.4C37.7,19.1,37.3,21.2,36.5,23.3z"/>
</g>
<polygon fill="#FFFFFF" points="27.9,26.8 25.2,24 27.9,21.2 26.8,20.1 24,22.8 21.2,20.1 20.1,21.2 22.8,24 20.1,26.8 21.2,27.9 
	24,25.2 26.8,27.9 "/>
</svg>
