<?xml version="1.0" encoding="utf-8"?>
<!-- Generator: Adobe Illustrator 21.1.0, SVG Export Plug-In . SVG Version: 6.00 Build 0)  -->
<svg version="1.0" id="Layer_1" xmlns="http://www.w3.org/2000/svg" xmlns:xlink="http://www.w3.org/1999/xlink" x="0px" y="0px"
	 viewBox="0 0 48 48" enable-background="new 0 0 48 48" xml:space="preserve">
<path fill="#FFFFFF" d="M24,2C11.8,2,2,11.8,2,24s9.8,22,22,22s22-9.8,22-22S36.2,2,24,2z M44.4,24.1c-2.9,0.6-5.7,1.1-8.7,1.7
	c0-1.2,0-2.3,0-3.5c2.9,0.6,5.8,1.1,8.6,1.7C44.4,24,44.4,24,44.4,24.1z M41.4,13.9C41.4,13.9,41.4,13.9,41.4,13.9L41.4,13.9
	C41.4,13.9,41.4,13.9,41.4,13.9C41.5,13.9,41.4,13.9,41.4,13.9C41.5,13.9,41.5,13.9,41.4,13.9C41.4,13.9,41.4,13.9,41.4,13.9
	C41.4,14,41.4,14,41.4,13.9c-2.1,1.9-4.2,3.8-6.4,5.7c-0.6-1-1.2-2-1.8-3.1C36,15.7,38.7,14.8,41.4,13.9
	C41.4,14,41.4,13.9,41.4,13.9z M34.7,24c-0.1,5.9-4.8,10.7-10.8,10.7c-5.8,0-10.6-4.9-10.7-10.7c0-5.9,4.8-10.7,10.6-10.7
	C29.9,13.3,34.8,18.1,34.7,24z M34,6.5c0,0,0.1-0.1,0.1-0.1c0,0,0,0,0.1,0C34.1,6.5,34.1,6.6,34,6.5C34.1,6.6,34.1,6.6,34,6.5
	c-0.8,2.8-1.7,5.4-2.6,8.2c-1.1-0.6-2-1.2-3.1-1.8C30.2,10.8,32.1,8.7,34,6.5z M24,3.4c0.6,3.1,1.2,5.9,1.7,8.8c-1.2,0-2.3,0-3.5,0
	C22.8,9.3,23.4,6.5,24,3.4z M13.8,6.4c0,0,0.1,0.1,0.1,0.1c0,0-0.1,0.1-0.1,0.1c0,0,0.1-0.1,0.1-0.1c1.9,2.1,3.8,4.2,5.7,6.4
	c-1.1,0.6-2,1.2-3.1,1.8c-0.9-2.7-1.8-5.4-2.7-8.1C13.8,6.6,13.8,6.5,13.8,6.4C13.8,6.4,13.8,6.4,13.8,6.4z M6.5,13.9
	C6.5,13.9,6.6,13.9,6.5,13.9C6.6,13.9,6.6,14,6.5,13.9c1,0.3,2.1,0.6,3.1,1c1.7,0.6,3.3,1.1,5.1,1.7c-0.6,1-1.1,2-1.7,3
	C10.8,17.7,8.7,15.8,6.5,13.9C6.6,14,6.6,14,6.5,13.9L6.5,13.9C6.6,13.9,6.6,14,6.5,13.9C6.5,13.9,6.5,13.9,6.5,13.9
	C6.5,13.9,6.5,13.9,6.5,13.9C6.5,13.9,6.5,13.9,6.5,13.9z M3.6,23.9c2.9-0.6,5.7-1.1,8.7-1.7c0,1.2,0,2.3,0,3.5
	c-2.9-0.6-5.8-1.1-8.6-1.7C3.6,24,3.6,24,3.6,23.9z M6.6,34.1L6.6,34.1C6.6,34,6.6,34.1,6.6,34.1C6.6,34.1,6.5,34.1,6.6,34.1
	C6.5,34.1,6.5,34.1,6.6,34.1L6.6,34.1C6.5,34.1,6.5,34.1,6.6,34.1C6.5,34.1,6.5,34.1,6.6,34.1C6.5,34.1,6.5,34.1,6.6,34.1
	C6.6,34,6.6,34,6.6,34.1c2.1-1.9,4.2-3.8,6.4-5.7c0.6,1,1.2,2,1.8,3.1C11.9,32.3,9.3,33.2,6.6,34.1C6.6,34,6.6,34,6.6,34.1z
	 M14,41.5c0,0-0.1,0.1-0.2,0.4C13.8,41.5,13.9,41.4,14,41.5C13.9,41.4,13.9,41.4,14,41.5c0.8-2.8,1.7-5.4,2.6-8.2
	c1.1,0.6,2,1.2,3.1,1.8C17.7,37.2,15.9,39.3,14,41.5z M24,44.6c-0.6-3-1.2-5.9-1.7-8.7c1.2,0,2.3,0,3.4,0
	C25.1,38.7,24.6,41.5,24,44.6z M34.1,41.6c0,0-0.1-0.1-0.1-0.1c0,0,0.1-0.1,0.1-0.1c0,0-0.1,0.1-0.1,0.1c-1.9-2.1-3.8-4.2-5.7-6.4
	c1.1-0.6,2-1.2,3.1-1.8c0.9,2.7,1.8,5.4,2.7,8.1C34.1,41.4,34.2,41.5,34.1,41.6C34.2,41.6,34.1,41.6,34.1,41.6z M41.4,34.1
	C41.4,34.1,41.4,34.1,41.4,34.1L41.4,34.1C41.4,34.1,41.4,34.1,41.4,34.1C41.4,34,41.4,34,41.4,34.1c-1-0.3-2.1-0.6-3.1-1
	c-1.7-0.6-3.3-1.1-5.1-1.7c0.6-1,1.1-2,1.7-3C37.2,30.3,39.3,32.2,41.4,34.1C41.4,34,41.4,34,41.4,34.1
	C41.4,34.1,41.4,34.1,41.4,34.1C41.5,34.1,41.5,34.1,41.4,34.1C41.4,34.1,41.5,34.1,41.4,34.1z"/>
</svg>
