<?xml version="1.0" encoding="UTF-8" standalone="no"?>
<svg width="48" height="48" viewBox="0 0 48 48" version="1.1">
  <path
     style="clip-rule:evenodd;fill:#ffffff;fill-rule:evenodd;stroke-width:1.23719668;fill-opacity:1"
     d="m 18.512865,9.3480466 c 1.246599,-1.8005666 3.297129,-2.8749854 5.487091,-2.8749854 2.189962,0 4.240615,1.0744213 5.487091,2.8749854 L 44.871712,31.570215 c 1.745437,2.521283 1.438117,5.929884 -0.730193,8.098195 -1.994114,1.99399 -5.064836,2.4327 -7.537498,1.076732 l -8.2547,-4.526779 c -2.709213,-1.485749 -5.989393,-1.485749 -8.698607,0 l -8.254811,4.526779 C 8.9233156,42.10111 5.8525191,41.6624 3.858492,39.66841 1.6901947,37.500099 1.3828354,34.091374 3.1282775,31.570215 Z m 5.487091,0.3174771 c -1.142304,0 -2.211984,0.5604623 -2.862255,1.4997053 L 5.753098,33.38741 c -0.8672254,1.252661 -0.7145182,2.94626 0.3628079,4.023611 0.9907224,0.990747 2.5164582,1.208617 3.7449574,0.534964 l 8.2547377,-4.52678 c 3.665443,-2.010073 8.103267,-2.010073 11.76871,0 l 8.254824,4.52678 c 1.228413,0.673653 2.754247,0.455783 3.744871,-0.534964 1.077351,-1.077351 1.230144,-2.77095 0.362869,-4.023611 L 26.862334,11.165229 C 26.212064,10.225986 25.142383,9.6655237 23.999956,9.6655237 Z" />
</svg>
