<?xml version="1.0" encoding="UTF-8">
<svg version="1.1" viewBox="0 0 48 48" height="48" width="48">
  <path
     d="M 10.183922,45.7688 C 9.2380803,45.62047 8.323544,45.3206 7.4729405,44.89341 29.33072,31.927 29.789971,1.85322 2.5013264,9.18846 3.2761767,6.17696 5.6223518,3.66715 8.6104827,2.67202 10.055527,2.19077 9.5033116,2.21486 19.829432,2.18261 l 9.450291,-0.0295 1.013063,0.50173 c 4.685671,2.3206 7.416926,6.12955 8.306888,11.58458 0.729982,4.47444 0.16604,9.4065 -1.592188,13.92463 -2.509882,6.44972 -7.380232,12.34122 -13.743005,16.6245 -0.559055,0.37634 -1.177674,0.77769 -1.374705,0.89187 l -0.358245,0.20761 -5.341941,-0.008 c -4.035184,-0.006 -5.50431,-0.033 -6.005668,-0.11164 z"
     style="fill:none;stroke:#ffffff;stroke-opacity:1" />
  <path
     d="M 2.7334424,39.54846 C 2.6164083,39.22636 2.3100782,37.99454 2.2194537,37.60802 2.0557724,36.9099 2.2643499,37.48435 2.2395398,24.32162 2.2177095,12.74028 2.1562093,10.98528 2.2606352,10.28687 2.3263474,9.84739 2.4584231,9.30947 2.5013252,9.18846 29.785827,1.87518 29.330719,31.927 7.4729393,44.89341 4.5499343,43.28929 3.5203464,41.62392 2.7334412,39.54846 Z"
     style="fill:none;stroke:#ffffff;stroke-opacity:1" />
  <path
     d="M 45.83206,36.30136 45.83666,12.4948 C 46.020926,7.6046 42.62892,2.05833 36.156462,2.22109 l -6.87676,-0.068 1.013063,0.50173 c 4.685671,2.3206 7.416929,6.12955 8.306891,11.58458 0.729982,4.47444 0.166039,9.4065 -1.592188,13.92463 -2.509886,6.44972 -7.380235,12.34123 -13.743008,16.6245 -0.559056,0.37635 -1.177674,0.77769 -1.374705,0.89187 l -0.358245,0.20761 h 13.572182 c 6.650458,0 10.790523,-4.07789 10.728346,-9.58664 z"
     style="fill:#ffffff;fill-opacity:1;stroke:#ffffff;stroke-opacity:1" />
  <path
     d="m 4.499249,5.64085 c 32.19106,-5.24177 28.8309,26.2054 6.523517,40.16641"
     style="fill:none;stroke:#ffffff;stroke-opacity:1" />
  <path
     d="M 18.497863,2.1014 C 37.404709,5.89857 39.317792,29.87675 15.598597,45.91395"
     style="fill:none;stroke:#ffffff;stroke-opacity:1" />
</svg>
