<?xml version="1.0" encoding="UTF-8"?>
<svg version="1.1" viewBox="0 0 48 48" height="48" width="48">
  <path
     d="M 7.8843468,2 C 5.5754508,2 3.5907568,3.31973 2.6261214,5.24626 3.689149,5.13137 4.7100885,5.05312 5.686939,5.01495 c 6.0591,-0.23692 10.483499,0.96643 13.537388,3.23629 4.071852,3.02648 5.465875,7.87614 5.036889,12.99302 C 23.501818,30.30226 17.38607,40.58479 9.878365,46 H 24.49651 C 33.88718,37.8591 38.996934,29.34846 40.255234,21.58524 41.454671,14.18519 39.243376,7.43269 33.786641,2 Z M 36.568295,2 C 41.45163,7.62197 43.462928,14.55768 42.271186,21.91027 40.99504,29.78359 36.129271,38.09256 27.557328,46 H 40.115653 C 43.375416,46 46,43.37541 46,40.11565 V 7.88435 C 46,4.62458 43.375416,2 40.115653,2 Z M 7.1445661,7.0329 C 5.5867038,7.03237 3.877725,7.14822 2.025922,7.37786 2.011797,7.54489 2,7.71354 2,7.88435 v 32.2313 c 0,2.73858 1.8556362,5.0226 4.3808574,5.68495 C 14.160994,41.50001 21.460088,30.22418 22.227318,21.07278 22.617932,16.4136 21.429207,12.4347 18.005982,9.89033 15.652515,8.14107 12.12734,7.03459 7.1445661,7.0329 Z"
     style="fill:#ffffff;fill-opacity:1;stroke:none" />
</svg>
