<?xml version="1.0" encoding="UTF-8"?>
<svg width="48" height="48" viewBox="0 0 48 48" version="1.1">
  <path
     style="fill:#ffffff;fill-rule:nonzero;stroke-width:1.5832864"
     d="m 29.196014,20.081506 a 2.2007681,2.2007681 0 0 0 -0.08708,-0.22799 4.2447907,4.2447907 0 0 0 -0.341989,-0.69664 4.4189522,4.4189522 0 0 0 -0.870808,-0.98164 4.810024,4.810024 0 0 0 -1.187464,-0.70774 5.224845,5.224845 0 0 0 -1.409126,-0.34673 5.6491657,5.6491657 0 0 0 -1.523121,0.0713 5.8423266,5.8423266 0 0 0 -1.505705,0.51299 6.0956524,6.0956524 0 0 0 -1.356876,0.94839 6.2571476,6.2571476 0 0 0 -1.078218,1.33629 6.458225,6.458225 0 0 0 -0.892974,3.4864 c 0.02216,0.64914 0.137746,1.30621 0.33249,1.90153 0.208993,0.64439 0.514568,1.27138 0.880307,1.81602 0.395821,0.58582 0.883474,1.13206 1.405958,1.57538 0.563651,0.47973 1.206465,0.89297 1.857195,1.19537 a 8.8996525,8.8996525 0 0 0 4.58678,0.79482 9.5867986,9.5867986 0 0 0 4.66278,-1.72263 9.9462046,9.9462046 0 0 0 1.909442,-1.77644 10.053869,10.053869 0 0 0 1.401209,-2.2736 10.20428,10.20428 0 0 0 0.772643,-5.4465 10.658684,10.658684 0 0 0 -0.76631,-2.79767 11.165335,11.165335 0 0 0 -1.538954,-2.57284 11.732152,11.732152 0 0 0 -2.24035,-2.14694 12.292635,12.292635 0 0 0 -2.813501,-1.54054 12.799287,12.799287 0 0 0 -3.214071,-0.7884704 13.236274,13.236274 0 0 0 -3.396149,0.0602 13.584597,13.584597 0 0 0 -8.898069,5.3356604 13.659011,13.659011 0 0 0 -1.770115,3.20299 13.799923,13.799923 0 0 0 -0.867641,3.62098 14.097581,14.097581 0 0 0 0.137747,3.79831 c 0.22641,1.29354 0.623815,2.54118 1.176381,3.70964 a 15.028554,15.028554 0 0 0 2.177019,3.35181 15.660286,15.660286 0 0 0 3.063659,2.73909 c 1.174799,0.80114 2.443011,1.44079 3.766638,1.90627 a 16.893665,16.893665 0 0 0 4.228958,0.90248 c 1.48829,0.12033 2.971829,0.0507 4.411037,-0.20583 a 17.473148,17.473148 0 0 0 8.130174,-3.76663 17.482648,17.482648 0 0 0 5.273927,-7.50479 c 0.538318,-1.50095 0.870808,-3.05257 0.989554,-4.61052 a 17.77239,17.77239 0 0 0 -0.283408,-4.7847 18.226792,18.226792 0 0 0 -1.578537,-4.62635 18.872773,18.872773 0 0 0 -2.80875,-4.1371404 19.569419,19.569419 0 0 0 -3.880634,-3.33756 20.324646,20.324646 0 0 0 -4.716611,-2.28152 20.926296,20.926296 0 0 0 -5.24701,-1.0228 21.428197,21.428197 0 0 0 -19.0469346,9.2875604 21.22712,21.22712 0 0 0 -3.652642,10.64918 c -0.117163,1.94744 0.02533,3.88855 0.424321,5.77266 0.411655,1.93636 1.076635,3.80306 1.977524,5.54467 a 22.735992,22.735992 0 0 0 3.437315,4.92402 c 1.3932916,1.51679 2.9734116,2.842 4.6991936,3.9408 a 24.320861,24.320861 0 0 0 5.664999,2.65359 24.985842,24.985842 0 0 0 7.615607,1.1843 25.468744,25.468744 0 0 0 16.725837,-6.28248 l -2.625089,-2.8325 a 21.417114,21.417114 0 0 1 -9.825874,4.8686 21.326867,21.326867 0 0 1 -5.41484,0.40374 20.940546,20.940546 0 0 1 -5.256511,-0.96581 20.342063,20.342063 0 0 1 -4.738776,-2.22134 19.604252,19.604252 0 0 1 -3.920217,-3.28849 18.88544,18.88544 0 0 1 -2.8609976,-4.09913 c -0.745728,-1.44396 -1.298295,-2.99241 -1.638702,-4.60103 a 17.786639,17.786639 0 0 1 -0.349905,-4.77519 17.462065,17.462065 0 0 1 14.1308296,-16.0798504 17.273654,17.273654 0 0 1 4.399952,-0.27867 c 1.429708,0.0918 2.854666,0.3705 4.236875,0.82807 1.32996,0.44015 2.607672,1.05922 3.796721,1.83661 a 15.693535,15.693535 0 0 1 3.109574,2.6757504 15.06022,15.06022 0 0 1 2.24035,3.30273 c 0.577899,1.15264 1.000637,2.39076 1.253963,3.67639 0.245409,1.23497 0.319824,2.50635 0.22166,3.78565 a 13.679594,13.679594 0 0 1 -4.901854,9.49655 13.576681,13.576681 0 0 1 -6.285647,2.91324 13.236274,13.236274 0 0 1 -3.3819,0.15674 12.873702,12.873702 0 0 1 -3.223571,-0.68872 12.363883,12.363883 0 0 1 -2.849916,-1.44396 11.792317,11.792317 0 0 1 -2.303681,-2.06302 11.165335,11.165335 0 0 1 -1.624451,-2.50476 10.715682,10.715682 0 0 1 -0.870808,-2.75016 10.33411,10.33411 0 0 1 -0.101331,-2.79451 9.9113727,9.9113727 0 0 1 1.915777,-4.95727 9.7387939,9.7387939 0 0 1 3.962966,-3.13173 9.4997178,9.4997178 0 0 1 2.35118,-0.66499 8.9645672,8.9645672 0 0 1 4.567781,0.50349 c 0.66023,0.2549 1.320461,0.61748 1.909443,1.04813 0.544651,0.39582 1.063969,0.89456 1.499373,1.43762 0.402154,0.50191 0.75206,1.09089 1.013302,1.70204 0.242244,0.56048 0.413239,1.19063 0.498736,1.82078 a 6.6498027,6.6498027 0 0 1 -0.01425,1.79861 6.2096491,6.2096491 0 0 1 -1.342626,3.05416 5.8106609,5.8106609 0 0 1 -2.484177,1.76695 c -0.425904,0.15833 -0.905639,0.26441 -1.386958,0.30715 a 5.1773463,5.1773463 0 0 1 -1.336294,-0.0586 4.8559392,4.8559392 0 0 1 -1.190631,-0.37682 4.4490346,4.4490346 0 0 1 -0.972138,-0.62857 3.997798,3.997798 0 0 1 -0.706146,-0.7964 3.3043186,3.3043186 0 0 1 -0.571566,-1.74952 2.9686619,2.9686619 0 0 1 0.09024,-0.7964 c 0.05383,-0.20899 0.158328,-0.45598 0.280242,-0.66339 a 2.438261,2.438261 0 0 1 0.403738,-0.49399 c 0.117163,-0.11083 0.296074,-0.23275 0.459153,-0.31665 a 1.8682779,1.8682779 0 0 1 0.392655,-0.13617 c 0.09024,1.21596 1.130466,2.17702 2.403429,2.17702 1.331544,0 2.412928,-1.0513 2.412928,-2.34643 0,-0.2375 -0.038,-0.46865 -0.10608,-0.68399 l -0.0016,-0.009" />
</svg>
