<?xml version="1.0" encoding="UTF-8"?>
<svg version="1.1" viewBox="0 0 48 48" xmlns="http://www.w3.org/2000/svg">
    <defs>
        <style>.cls-1{fill:#fff;}</style>
    </defs>
    <path d="m7 5c-1.108 0-2 0.892-2 2v34c0 1.108 0.892 2 2 2h34c1.108 0 2-0.892 2-2v-34c0-1.108-0.892-2-2-2h-34zm1.7891 2h30.422c0.99137 0 1.7891 0.79769 1.7891 1.7891v30.422c0 0.99137-0.79769 1.7891-1.7891 1.7891h-30.422c-0.99137 0-1.7891-0.79769-1.7891-1.7891v-30.422c0-0.99137 0.79769-1.7891 1.7891-1.7891z" fill="#fff"/>
    <g transform="matrix(-.9043 0 0 .9043 45.699 5.8784)" fill="#fff" data-name="Layer 1">
        <path class="cls-1" d="m34.5 7a6.41 6.41 0 1 1-6.41 6.41 6.41 6.41 0 0 1 6.41-6.41zm-16.21 12.74 10.37 10.37a1 1 0 0 0 1.42 0l2-2a1 1 0 0 1 1.42 0l11.2 11.22a1 1 0 0 1-0.7 1.72h-40a1 1 0 0 1-0.83-1.58l13.58-19.59a1 1 0 0 1 1.54-0.14z" fill="#fff"/>
    </g>
</svg>
