<?xml version="1.0" encoding="UTF-8"?>
<svg version="1.1" viewBox="0 0 48 48" xmlns="http://www.w3.org/2000/svg">
    <defs>
        <style>.cls-1{fill:#fff;}</style>
    </defs>
    <path d="m7 5c-1.108 0-2 0.892-2 2v34c0 1.108 0.892 2 2 2h34c1.108 0 2-0.892 2-2v-34c0-1.108-0.892-2-2-2zm1.7891 2h30.422c0.99137 0 1.7891 0.79769 1.7891 1.7891v30.422c0 0.99137-0.79769 1.7891-1.7891 1.7891h-30.422c-0.99137 0-1.7891-0.79769-1.7891-1.7891v-30.422c0-0.99137 0.79769-1.7891 1.7891-1.7891z" fill="#fff"/>
    <path d="m15.797 12.208a5.7966 5.7966 0 1 0 5.7966 5.7966 5.7966 5.7966 0 0 0-5.7966-5.7966z" fill="#fff" stroke-width=".9043"/>
    <path d="m29.159 23.729-9.3776 9.3776a0.9043 0.9043 0 0 1-1.2841 0l-1.8086-1.8086a0.9043 0.9043 0 0 0-1.2841 0l-10.128 10.146a0.9043 0.9043 0 0 0 0.63301 1.5554h36.172a0.9043 0.9043 0 0 0 0.75057-1.4288l-12.28-17.715a0.9043 0.9043 0 0 0-1.3926-0.1266z" fill="#fff" stroke-width=".9043"/>
</svg>
