<?xml version="1.0" encoding="UTF-8"?>
<svg version="1.1" viewBox="0 0 48 48" height="48" width="48">
  <path
     d="M 23.926536,2.0001761 A 13.457786,13.369788 0 0 0 10.542241,15.417795 13.457786,13.369788 0 0 0 24.024547,28.739363 13.457786,13.369788 0 0 0 37.457846,15.37075 l -0.002,-0.09801 A 13.457786,13.369788 0 0 0 23.926536,2.0001761 Z m 0.04508,8.2897169 a 5.1139586,5.0805197 0 0 1 5.141623,5.043612 v 0.03724 a 5.1139586,5.0805197 0 0 1 -5.104379,5.078896 5.1139586,5.0805197 0 0 1 -5.123982,-5.061254 5.1139586,5.0805197 0 0 1 5.086738,-5.098499 z"
     style="opacity:1;fill:#ffffff;fill-opacity:1" />
  <path
     d="M 36.638081,18.068739 C 33.994828,27.730709 27.341607,35.161765 21.163243,45.4984 l 3.506268,-17.29092 z"
     style="fill:none;stroke:#ffffff;stroke-opacity:1;stroke-width:1;stroke-linejoin:round;stroke-linecap:round" />
</svg>
