<?xml version="1.0" encoding="UTF-8"?>
<svg width="48" height="48" viewBox="0 0 12.7 12.7" xmlns="http://www.w3.org/2000/svg">
    <path d="M 7.5175884,0.52916658 V 5.8574812 C 7.1091345,5.4524729 6.5468792,5.2023966 5.9262153,5.2023966 c -1.248236,0 -2.2596178,1.0113593 -2.2596186,2.2595685 -1.6e-6,1.2482091 1.011381,2.2602986 2.2596186,2.2602986 1.2482374,0 2.2603494,-1.0120895 2.2603486,-2.2602986 0,-0.2097777 4.498e-4,-4.0219027 0,-4.2138686 L 11.481779,4.264684 V 1.8700089 Z M 6.0350334,2.7522197 C 4.121706,2.7087328 2.3702303,3.828984 1.6078174,5.5843465 0.84540343,7.3397091 1.2223445,9.3849252 2.5601581,10.753457 3.8979711,12.121996 5.9337398,12.54494 7.7060118,11.822628 9.4782845,11.100312 10.638258,9.3742863 10.638257,7.4605046 a 0.3366789,0.33667149 0 1 0 -0.6733574,0 c 8e-7,1.6421472 -0.9923191,3.1186474 -2.5130403,3.7384414 C 5.9311387,11.818738 4.1893684,11.456696 3.0414404,10.282411 1.8935126,9.1081208 1.570741,7.3585818 2.2249401,5.8523694 2.8791378,4.3461572 4.3779415,3.3875188 6.0196966,3.4248303 a 0.33656634,0.33655893 0 1 0 0.015338,-0.6726106 z" fill="#fff"/>
</svg>
