<?xml version="1.0" encoding="UTF-8"?>
<svg viewBox="0 0 48 48" height="48" width="48">
  <path d="M 28.412934,2.0000001 V 22.138511 C 26.869171,20.607772 24.744109,19.6626 22.398293,19.6626 c -4.717742,0 -8.540284,3.822462 -8.540288,8.540102 -7e-6,4.71764 3.822542,8.542858 8.540288,8.542858 4.717749,0 8.543054,-3.825218 8.54305,-8.542858 0,-0.792862 0.0017,-15.200892 0,-15.926432 l 12.454355,3.842222 V 7.0677526 Z M 22.809577,10.402089 C 15.578102,10.237718 8.9583507,14.471752 6.0767939,21.10619 3.1952295,27.740632 4.6198882,35.470582 9.6761888,40.642985 14.73249,45.815416 22.426734,47.413944 29.125084,44.683946 35.823438,41.953933 40.207587,35.430371 40.207584,28.19718 a 1.272487,1.272459 0 1 0 -2.544972,0 c 4e-6,6.206543 -3.750496,11.787015 -9.498106,14.129543 -5.747603,2.342521 -12.33067,0.974173 -16.669295,-3.464069 C 7.1565859,34.424393 5.9366603,27.811963 8.4092232,22.11919 10.881783,16.426421 16.546553,12.803223 22.751611,12.944241 a 1.2720616,1.2720336 0 1 0 0.05798,-2.542152 z" fill="#fff" />
</svg>
