<?xml version="1.0" encoding="UTF-8" standalone="no"?>
<svg
   xmlns:dc="http://purl.org/dc/elements/1.1/"
   xmlns:cc="http://creativecommons.org/ns#"
   xmlns:rdf="http://www.w3.org/1999/02/22-rdf-syntax-ns#"
   xmlns:svg="http://www.w3.org/2000/svg"
   xmlns="http://www.w3.org/2000/svg"
   xmlns:sodipodi="http://sodipodi.sourceforge.net/DTD/sodipodi-0.dtd"
   xmlns:inkscape="http://www.inkscape.org/namespaces/inkscape"
   viewBox="0 0 48 48"
   version="1.1"
   id="svg2398"
   sodipodi:docname="yapd.svg"
   inkscape:version="0.92.3 (2405546, 2018-03-11)">
  <metadata
     id="metadata2404">
    <rdf:RDF>
      <cc:Work
         rdf:about="">
        <dc:format>image/svg+xml</dc:format>
        <dc:type
           rdf:resource="http://purl.org/dc/dcmitype/StillImage" />
        <dc:title></dc:title>
      </cc:Work>
    </rdf:RDF>
  </metadata>
  <defs
     id="defs2402" />
  <sodipodi:namedview
     pagecolor="#ffffff"
     bordercolor="#666666"
     borderopacity="1"
     objecttolerance="10"
     gridtolerance="10"
     guidetolerance="10"
     inkscape:pageopacity="0"
     inkscape:pageshadow="2"
     inkscape:window-width="1012"
     inkscape:window-height="569"
     id="namedview2400"
     showgrid="false"
     inkscape:pagecheckerboard="true"
     inkscape:zoom="6.9532167"
     inkscape:cx="4.859647"
     inkscape:cy="31.728541"
     inkscape:window-x="4"
     inkscape:window-y="23"
     inkscape:window-maximized="1"
     inkscape:current-layer="svg2398" />
  <path
     inkscape:connector-curvature="0"
     d="M 7,5 C 5.892,5 5,5.892 5,7 V 23.441406 H 8 V 8 h 32 v 15.400391 h 3 V 7 C 43,5.892 42.108,5 41,5 Z M 40,27.367188 V 40 H 8 V 27.408203 H 5 V 41 c 0,1.108 0.892,2 2,2 h 34 c 1.108,0 2,-0.892 2,-2 V 27.367188 Z"
     id="path2390"
     style="fill:#ffffff" />
  <path
     inkscape:connector-curvature="0"
     d="M 5,7.6894531 V 23.441406 H 9 V 7.6894531 Z m 34,0 V 23.402344 h 4 V 7.6894531 Z M 16.917969,19.404297 V 33.570312 H 31.082031 V 19.40625 H 18.021484 Z m 4,4 h 6.164062 v 6.166015 H 20.917969 Z M 39,27.367188 v 12.943359 h 4 V 27.367188 Z M 5,27.40625 V 40.310547 H 9 V 27.40625 Z"
     id="path2394"
     style="fill:#ffffff" />
  <path
     inkscape:connector-curvature="0"
     d="M 39.636,5 V 9 H 7.013 V 5 Z m 0.674,34 v 4 H 7.69 v -4 z"
     id="path2396"
     style="fill:#ffffff" />
  <path
     sodipodi:nodetypes="ccccc"
     style="fill:#ffffff"
     inkscape:connector-curvature="0"
     id="path2411"
     d="m 22,6.438 v 15.268 h 4 V 6.437 Z" />
  <path
     sodipodi:nodetypes="cccccccccc"
     style="fill:#ffffff"
     inkscape:connector-curvature="0"
     d="m 6.438,19.42282 v 4 h 13.52 v -4 z m 23.308,0 v 4 H 41.56 v -4 z"
     id="path2392" />
  <rect
     style="fill:#ffffff;fill-opacity:1;stroke:none;stroke-width:0.20602125;stroke-miterlimit:4;stroke-dasharray:none;stroke-opacity:1"
     id="rect6210"
     width="2.0169492"
     height="4.3695993"
     x="9.0786343"
     y="23.189724" />
  <rect
     style="fill:#ffffff;fill-opacity:1;stroke:none;stroke-width:0.2;stroke-miterlimit:4;stroke-dasharray:none;stroke-opacity:1"
     id="rect6210-7"
     width="2.0169492"
     height="4.1179161"
     x="12.905948"
     y="23.361565" />
  <path
     style="fill:#ffffff;fill-opacity:1;stroke:none;stroke-width:0.21140559;stroke-miterlimit:4;stroke-dasharray:none;stroke-opacity:1"
     d="m 36.711865,25.451399 0.05085,12.124873 H 33.101696 V 27.433979 l -2.049411,0.03595 -0.01592,-1.988441 c 1.891606,-0.04117 3.783594,-0.03009 5.6755,-0.03009 z"
     id="rect6231"
     inkscape:connector-curvature="0"
     sodipodi:nodetypes="cccccccc" />
  <rect
     style="fill:#ffffff;fill-opacity:1;stroke:none;stroke-width:0.2;stroke-miterlimit:4;stroke-dasharray:none;stroke-opacity:1"
     id="rect6234"
     width="2.4406779"
     height="4.5366793"
     x="36.661018"
     y="23.338984" />
  <path
     sodipodi:nodetypes="cccccccccc"
     style="fill:#ffffff"
     inkscape:connector-curvature="0"
     d="m 6.438,27.42282 v 4 h 13.52 v -4 z m 23.308,0 v 4 H 41.56 v -4 z"
     id="path273" />
</svg>
