<?xml version="1.0" encoding="utf-8"?>
<!-- Generator: Adobe Illustrator 21.1.0, SVG Export Plug-In . SVG Version: 6.00 Build 0)  -->
<svg version="1.0" id="Layer_1" xmlns="http://www.w3.org/2000/svg" xmlns:xlink="http://www.w3.org/1999/xlink" x="0px" y="0px"
	 viewBox="0 0 48 48" style="enable-background:new 0 0 48 48;" xml:space="preserve">
<style type="text/css">
	.st0{fill:#FFFFFF;}
</style>
<path class="st0" d="M23.9,46C11.8,46,2.1,36.2,2,24.1C1.9,12.1,12,1.7,24.6,2C36.7,2.3,45.9,12.3,46,23.4
	C46.1,36.3,36.4,46,23.9,46z M23.3,23.7c0-2.8,0-5.4,0-8.1c0-0.5-0.2-1.1-0.6-1.3c-1.8-1.1-3.6-2.1-5.4-3.1c-1.4-0.8-2-0.4-2,1.3
	c0,5,0,10.1,0,15.1c0,1-0.1,1.6-1.2,2c-0.7,0.3-1.8,0.5-1.8,1.8c0,2,0,4.1,0,6.1c0,1.1,0.7,1.5,1.7,1c0.6-0.3,1.2-0.6,1.8-0.9
	c7.2-4.2,14.4-8.3,21.6-12.5c1.3-0.8,1.3-1.5,0-2.3c-1.8-1-3.5-2.1-5.3-3c-0.4-0.2-1-0.2-1.3,0C28.2,21,25.8,22.3,23.3,23.7z"/>
</svg>
