<svg
   width="48"
   height="48"
   >
<path
   d="m 39.202326,9.9762585 c -3.49371,-3.48642 -8.04033,-5.53608 -12.92112,-5.85468 0.005,-0.0453 0.007,-0.0913 0.007,-0.13779 v -1.59516 c 0,-0.74556 -0.60444,-1.35 -1.35,-1.35 -0.74556,0 -1.35,0.60444 -1.35,1.35 v 1.59525 c 0,0.0465 0.002,0.0924 0.007,0.13779 -4.85631,0.31725 -9.38565,2.35008 -12.87252,5.8068 -3.8039403,3.7709985 -5.9265904,8.7961485 -5.9769004,14.1499785 -0.004,0.39465 0.16542,0.77112 0.46305,1.03041 0.29763,0.25929 0.6935401,0.3753 1.0840501,0.3177 0.71883,-0.10611 1.44774,-0.15993 2.16648,-0.15993 2.6356503,0 5.2488003,0.71469 7.5569403,2.06694 0.21078,0.12348 0.44658,0.18522 0.68247,0.18522 0.2358,0 0.47169,-0.0617 0.68238,-0.18513 1.91304,-1.12068 4.03578,-1.80189 6.20712,-2.00295 v 17.73747 c 0,2.23317 1.81683,4.05 4.05,4.05 h 0.0114 c 2.23317,0 4.05,-1.81683 4.05,-4.05 v -1.43937 c 0,-0.74556 -0.60444,-1.35 -1.35,-1.35 -0.74556,0 -1.35,0.60444 -1.35,1.35 v 1.43937 c 0,0.74439 -0.60561,1.35 -1.35,1.35 h -0.0114 c -0.74439,0 -1.35,-0.60561 -1.35,-1.35 v -17.74044 c 2.04201,0.18369 4.00257,0.78615 5.84415,1.79919 0.40518,0.22293 0.89631,0.22293 1.30149,-9e-5 2.24325,-1.23435 4.66335,-1.86021 7.19325,-1.86021 0.96858,0 1.94139,0.0959 2.89161,0.28503 0.39717,0.0791 0.80856,-0.0242 1.12113,-0.28134 0.31266,-0.25704 0.49338,-0.64098 0.49248,-1.04571 -0.0122,-5.38443 -2.11815,-10.44459 -5.92992,-14.2483485 z m -9.98334,1.4870685 c 1.36431,3.28932 2.13543,7.65522 2.18385,12.3381 -2.05857,-0.82017 -4.22424,-1.2348 -6.4638,-1.2348 -2.20959,0 -4.40352,0.42579 -6.46389,1.24119 0.0478,-4.6854 0.819,-9.05364 2.18394,-12.34449 1.21716,-2.9345385 2.81709,-4.6865685 4.27977,-4.6867485 1.8e-4,0 4.5e-4,0 6.3e-4,0 1.46259,3.6e-4 3.06234,1.75239 4.2795,4.6867485 z M 7.5251157,22.591917 c 0.67761,-7.04295 5.5763103,-12.8928585 12.1084203,-14.9876085 -0.53235,0.81144 -1.02474,1.7545502 -1.46853,2.8245595 -1.53261,3.695039 -2.38077,8.571149 -2.39184,13.740119 -2.3013,-1.05174 -4.79781,-1.60236 -7.3138503,-1.60236 -0.31032,0 -0.62208,0.008 -0.9342,0.0253 z m 33.1020003,-0.0253 c -2.26188,0 -4.4478,0.42354 -6.5241,1.25964 -0.047,-5.04153 -0.89145,-9.78408 -2.39013,-13.397309 -0.44469,-1.0722593 -0.93825,-2.0169895 -1.47186,-2.8295995 6.56424,2.0952 11.46357,7.9711185 12.11697,15.0533985 -0.57555,-0.0573 -1.15389,-0.0861 -1.73088,-0.0861 z"
   style="fill:#ffffff"/>
</svg>
