<?xml version="1.0" encoding="UTF-8"?>
<svg version="1.1" viewBox="0 0 48 48" xmlns="http://www.w3.org/2000/svg">
    <defs>
        <style>.cls-1{fill:#fff;}</style>
    </defs>
    <path class="cls-1" d="m23.706 3.1594c-1.3417 0.85466-2.4194 2.6362-2.0864 4.2922 0.2608 1.3071 1.5019 2.919 3.0007 2.3315 2.9096-1.1437 1.8884-6.4854-0.91436-6.6236zm-7.5568 2.4069c-0.60957 1.879-1.3385 4.7195 0.64728 6.0517 0.50274 0.33935 1.2034 0.56558 1.7973 0.34564 0.67556-0.25137 1.0181-1.0275 1.1469-1.6842 0.47132-2.41-1.8036-3.7517-3.5915-4.7132zm15.711 0.31421c-1.5082 0.44304-2.9253 1.2537-3.4878 2.8279-0.3582 1.0086-0.09741 2.8342 1.0432 3.2552 0.48703 0.1791 1.0463 0.05656 1.4957-0.16968 2.2089-1.1155 1.7282-4.0439 0.94892-5.9135zm-22.589 2.5137v2.5137c0.14454 0.59386 0.32364 1.0432 0.72897 1.4988 2.3377 2.6331 4.6126-0.50274 2.5954-2.6708-0.32678-0.34878-0.7384-0.59386-1.1594-0.80124-0.77611-0.37706-1.3637-0.45247-2.1649-0.54045zm29.501 0c-0.79182 0.072269-1.4642 0.13511-2.1995 0.49331-0.54045 0.26394-1.0338 0.61586-1.3825 1.1123-0.28279 0.39591-0.38962 0.74468-0.45561 1.2223-0.43676 3.1767 2.9756 2.4194 3.8051 0.30793 0.22623-0.57501 0.22309-1.2694 0.23252-1.879zm-15.038 3.8774c-1.1249 0.76668-1.7533 1.945-1.5396 3.3495 0.16968 1.1186 1.1375 2.454 2.4037 1.8601 2.0801-0.97406 1.4077-5.0903-0.86409-5.2097zm-8.6534 1.4988c-0.88922 1.1752-1.2066 5.549 2.3252 6.2937 0.56873 0.18224 1.2349 0.27336 1.7533 0 0.4399-0.33307 0.66927-0.83266 0.82324-1.3071 1.0652-3.3118-2.7242-5.5679-4.9017-4.9866zm17.074-0.1414c-1.5962 0.34564-3.3809 1.0055-4.0628 2.6331-0.62843 1.4894-0.16968 4.0942 1.8884 3.9591 2.4697-0.16025 3.3904-1.6905 3.4469-3.9717 0.03142-1.3166 0.28593-2.454-1.2726-2.6205zm-27.318 1.3637c0.32364 1.3763 0.86094 2.9882 1.9513 3.9528 1.7062 1.5114 4.2827 0.9395 4.8986-0.25137 0.39277-0.63157 0.20738-1.4925 0-2.1241-1.1846-2.8531-4.509-2.432-6.8498-1.5774zm38.334 0c-2.2875-0.83581-5.7658-1.2788-6.8624 1.5774-0.2011 0.62214-0.37077 1.5082 0 2.1209 0.3802 0.74154 1.3637 1.0181 2.1492 1.106 2.9473 0.32992 4.1508-2.41 4.7132-4.8043zm-19.437 4.82c-1.1249 0.76668-1.7533 1.945-1.5396 3.3495 0.16968 1.1186 1.1375 2.454 2.4037 1.8601 2.0958-0.98034 1.348-5.0934-0.86409-5.2097zm-20.782 2.7211c1.0715 1.4611 2.7494 3.0824 4.7069 2.0989 0.46504-0.23252 0.98977-0.641 1.1217-1.172 0.16968-0.69127-0.32992-1.3071-0.83581-1.7093-1.6716-1.3197-3.5035-0.17282-4.9928 0.78239zm42.105 0c-1.3008-0.83266-2.7965-1.6748-4.3927-1.0683-0.7604 0.28593-1.659 1.0872-1.436 1.9953 0.39591 1.5931 3.6543 2.5483 5.8287-0.92693zm-33.935-0.31421c0.91436 2.3849 4.8734 7.6291 6.4948 10.055 1.5208 2.2812 2.5985 3.1453 2.6174 5.97v6.5985h7.5411v-6.5985c0.0377-2.5985 1.1217-3.5695 2.5137-5.6558 1.5019-2.2529 5.8004-8.2827 6.5985-10.369l-7.6565-0.03176-4.9121 7.8871h-0.62843l-4.3536-7.8871zm-3.1421 3.9748c-1.0275 0.43047-3.0164 1.6245-3.0353 2.9065-0.028279 1.7156 3.9654 2.4886 5.2348 1.9984 1.7596-0.6787 2.9693-2.8468 1.2097-4.2764-1.0589-0.86409-2.1461-0.87666-3.4092-0.62843zm29.85 0c-4.355 1.8507-1.0966 5.8852 2.5137 4.9646 0.43676-0.11312 0.8578-0.28908 1.2537-0.4996 3.6323-1.9073-0.68184-5.0745-3.7674-4.465zm-26.359 9.2222c0.60329-0.15082 1.2349-0.29222 1.8193-0.60329 0.39591-0.20738 0.69755-0.41476 0.97092-0.77611 2.033-2.6708-2.1775-3.9025-2.7902-0.81381zm25.068 0v-2.1932c-0.62528-3.1453-4.8546-1.7722-2.8279 0.81381 0.27022 0.34564 0.62528 0.59386 1.0055 0.80124 0.65042 0.3582 1.1469 0.44618 1.8224 0.57815z"/>
</svg>
