<?xml version="1.0" encoding="UTF-8" standalone="no"?>
<svg width="48" height="48" viewBox="0 0 48 48" version="1.1" >
    <defs>
        <style>.cls-1{fill:#fff;}</style>
    </defs>
    <path
        class="cls-1"
        d="m 23.706462,3.1593803 c -1.34169,0.8546597 -2.419441,2.6362481 -2.086375,4.2921512 0.260797,1.3071266 1.501938,2.9190395 3.000735,2.3314617 2.909614,-1.1437361 1.888421,-6.4853591 -0.91436,-6.6236129 z m -7.556826,2.4068725 c -0.609573,1.8789945 -1.338548,4.7194802 0.647279,6.0517442 0.502741,0.33935 1.203437,0.565584 1.797299,0.345635 0.675559,-0.251371 1.018051,-1.027477 1.146878,-1.684183 0.47132,-2.410014 -1.803583,-3.751704 -3.591456,-4.7131962 z m 15.710656,0.3142131 c -1.508223,0.4430405 -2.925324,1.2537104 -3.487765,2.8279181 -0.358203,1.0086242 -0.09741,2.834202 1.043187,3.255248 0.487031,0.179101 1.04633,0.05656 1.495655,-0.169676 2.208918,-1.115456 1.728172,-4.043922 0.948923,-5.9134901 z M 9.2715108,8.3941709 v 2.5137041 c 0.144538,0.593863 0.3236395,1.043188 0.7289742,1.498797 2.337746,2.633106 4.612649,-0.502741 2.595401,-2.6708108 C 12.269104,9.3870844 11.857485,9.1419981 11.436439,8.9346175 10.660333,8.5575617 10.072754,8.4821506 9.2715108,8.3941709 Z m 29.5014702,0 c -0.791817,0.072269 -1.464233,0.1351117 -2.199492,0.4933146 -0.540446,0.263939 -1.033761,0.6158577 -1.382538,1.1123147 -0.282791,0.3959078 -0.389624,0.7446848 -0.455609,1.2222888 -0.436756,3.176694 2.975599,2.419441 3.805121,0.307928 0.226234,-0.57501 0.223092,-1.269421 0.232518,-1.8789938 z M 23.734741,12.27156 c -1.124883,0.76668 -1.753309,1.94498 -1.539644,3.349512 0.169675,1.118599 1.137451,2.454005 2.40373,1.860142 2.080091,-0.974061 1.407675,-5.090253 -0.864086,-5.209654 z m -8.653429,1.498797 c -0.889223,1.175157 -1.206579,5.549004 2.325177,6.293689 0.568726,0.182243 1.234857,0.273365 1.753309,0 0.439898,-0.333066 0.669274,-0.832665 0.823238,-1.307127 1.065183,-3.311806 -2.724227,-5.567856 -4.901724,-4.986562 z m 17.074341,-0.141396 c -1.596203,0.345635 -3.380934,1.005482 -4.062776,2.633106 -0.628426,1.48937 -0.169675,4.094197 1.888421,3.959085 2.469715,-0.160248 3.390359,-1.690466 3.446918,-3.971653 0.03142,-1.316553 0.285934,-2.454005 -1.272563,-2.620538 z M 4.8379637,14.992646 c 0.3236395,1.376254 0.8609439,2.988167 1.9512634,3.952801 1.7061773,1.511365 4.2827249,0.939497 4.8985829,-0.25137 0.392766,-0.631569 0.207381,-1.492513 0,-2.124081 -1.184583,-2.853055 -4.5089586,-2.43201 -6.8498463,-1.57735 z m 38.3340013,0 c -2.287472,-0.835807 -5.765811,-1.278847 -6.862415,1.57735 -0.201096,0.622142 -0.370771,1.508223 0,2.120938 0.380198,0.741543 1.363685,1.018051 2.149218,1.106031 2.947319,0.329923 4.150755,-2.410015 4.713197,-4.804319 z m -19.437224,4.820029 c -1.124883,0.76668 -1.753309,1.94498 -1.539644,3.349512 0.169675,1.118599 1.137451,2.454005 2.40373,1.860142 2.095802,-0.980345 1.347974,-5.093395 -0.864086,-5.209654 z M 2.952685,22.533761 c 1.0714667,1.461091 2.7493648,3.082431 4.7069125,2.098944 C 8.1246329,24.400187 8.6493688,23.99171 8.7813383,23.46069 8.9510134,22.769421 8.4514146,22.153563 7.9455314,21.75137 6.2739176,20.431675 4.4420551,21.578553 2.952685,22.533761 Z m 42.104559,0 c -1.300843,-0.832665 -2.796497,-1.674756 -4.3927,-1.068325 -0.760396,0.285934 -1.659045,1.087178 -1.435954,1.995254 0.395909,1.59306 3.654299,2.548268 5.828654,-0.926929 z M 11.122226,22.219548 c 0.914361,2.384877 4.873446,7.629094 6.494786,10.05482 1.520791,2.281187 2.598542,3.145273 2.617395,5.970049 v 6.598476 h 7.541115 v -6.598476 c 0.0377,-2.598543 1.121741,-3.569461 2.513705,-5.655836 1.501938,-2.252908 5.800374,-8.282658 6.598475,-10.369033 l -7.656453,-0.03176 -4.912072,7.887085 h -0.628426 l -4.353586,-7.887085 z m -3.1421311,3.974796 c -1.0274769,0.430472 -3.016446,1.624482 -3.0352988,2.906471 -0.028279,1.715604 3.9653696,2.488568 5.2347909,1.998396 C 11.93918,30.42051 13.148901,28.25244 11.389308,26.82277 10.33041,25.958684 9.2432316,25.946115 7.9800949,26.194344 Z m 29.8502471,0 c -4.354994,1.850715 -1.096604,5.885212 2.513705,4.964567 0.436756,-0.113117 0.857801,-0.289076 1.25371,-0.499599 3.632305,-1.907273 -0.681843,-5.074542 -3.767415,-4.464968 z m -26.359339,9.222155 c 0.603289,-0.150822 1.234857,-0.292218 1.819294,-0.603289 0.395908,-0.207381 0.697553,-0.414762 0.970918,-0.776107 2.032959,-2.670811 -2.177496,-3.902527 -2.790212,-0.813812 z m 25.067923,0 v -2.193208 c -0.625284,-3.145273 -4.854593,-1.772162 -2.827918,0.813812 0.270223,0.345635 0.625284,0.593863 1.005482,0.801244 0.650421,0.358203 1.146877,0.446182 1.822436,0.578152 z"
     id="ynab" />
</svg>
