<?xml version="1.0" encoding="UTF-8" standalone="no"?>
<svg
   xmlns:dc="http://purl.org/dc/elements/1.1/"
   xmlns:cc="http://creativecommons.org/ns#"
   xmlns:rdf="http://www.w3.org/1999/02/22-rdf-syntax-ns#"
   xmlns:svg="http://www.w3.org/2000/svg"
   xmlns="http://www.w3.org/2000/svg"
   xmlns:sodipodi="http://sodipodi.sourceforge.net/DTD/sodipodi-0.dtd"
   xmlns:inkscape="http://www.inkscape.org/namespaces/inkscape"
   id="SVGRoot"
   version="1.1"
   viewBox="0 0 48 48"
   height="48px"
   width="48px"
   sodipodi:docname="youmail.svg"
   inkscape:version="1.0.1 (3bc2e813f5, 2020-09-07)"
   enable-background="new">
  <defs
     id="defs3732">
    <style
       id="style822">.a{fill:#3396cd;}.b{fill:#fff;}</style>
  </defs>
  <sodipodi:namedview
     id="base"
     pagecolor="#000000"
     bordercolor="#666666"
     borderopacity="1.0"
     inkscape:pageopacity="0"
     inkscape:pageshadow="2"
     inkscape:zoom="15.084945"
     inkscape:cx="18.742965"
     inkscape:cy="22.291619"
     inkscape:document-units="px"
     inkscape:current-layer="layer2"
     showgrid="false"
     inkscape:window-width="2560"
     inkscape:window-height="1376"
     inkscape:window-x="0"
     inkscape:window-y="27"
     inkscape:window-maximized="1"
     inkscape:grid-bbox="true"
     inkscape:document-rotation="0" />
  <metadata
     id="metadata3735">
    <rdf:RDF>
      <cc:Work
         rdf:about="">
        <dc:format>image/svg+xml</dc:format>
        <dc:type
           rdf:resource="http://purl.org/dc/dcmitype/StillImage" />
        <dc:title />
      </cc:Work>
    </rdf:RDF>
  </metadata>
  <g
     inkscape:groupmode="layer"
     id="layer2"
     inkscape:label="Layer 2"
     style="display:inline">
    <g
       id="g26"
       transform="matrix(0.2085842,0,0,0.2085841,-135.24789,4.0001024)"
       style="fill:#ffffff">
      <path
         id="path_1"
         d="m 735.14,63.36 c -0.039,-1.66 0.376,-3.3 1.202,-4.74 0.825,-1.441 2.029,-2.629 3.481,-3.434 1.452,-0.806 3.098,-1.199 4.757,-1.136 1.998,0.141 3.88,0.997 5.3,2.41 12.022,11.707 18.95,27.7 19.266,44.478 0.316,16.778 -6.004,33.02 -17.576,45.172 -2.47,2.49 -5.73,4.47 -9.32,4.6 -1.325,0.113 -2.657,-0.134 -3.854,-0.715 -1.197,-0.581 -2.215,-1.474 -2.946,-2.585 -0.565,-1.029 -0.906,-2.167 -0.999,-3.337 -0.093,-1.17 0.064,-2.347 0.459,-3.453 0.977,-2.76 2.567,-5.263 4.65,-7.32 6.124,-6.68 10.119,-15.038 11.47,-24 1.154,-7.243 0.569,-14.657 -1.707,-21.629 -2.276,-6.972 -6.178,-13.304 -11.383,-18.471 -0.829,-0.74 -1.503,-1.638 -1.984,-2.64 -0.481,-1.002 -0.758,-2.09 -0.816,-3.2 z"
         fill="#ff7415"
         stroke-width="1"
         style="fill:#ffffff" />
      <path
         id="path_2"
         d="m 761,33.47 c 1.26,-4.12 5.7,-7.16 10,-6.31 3.12,0.57 5.25,3.14 7.36,5.29 17.317,18.011 27.044,42.02 27.147,67.005 0.102,24.985 -9.428,49.073 -26.597,67.225 -3.79,3.83 -10.18,5.28 -15,2.52 -1.211,-0.631 -2.186,-1.638 -2.777,-2.869 -0.591,-1.231 -0.768,-2.621 -0.503,-3.961 0.78,-3.61 3.89,-5.92 6.28,-8.48 7.632,-8.279 13.405,-18.096 16.93,-28.79 4.14,-12.567 5.123,-25.963 2.86,-39 -2.895,-16.801 -11.123,-32.233 -23.46,-44 -1.166,-1.062 -2.002,-2.439 -2.404,-3.965 C 760.433,36.61 760.48,35 760.97,33.5 Z"
         fill="#ff7415"
         stroke-width="1"
         style="fill:#ffffff" />
      <path
         id="path_3"
         d="m 785.49,9.35 c -0.036,-1.639 0.369,-3.257 1.173,-4.686 0.803,-1.429 1.976,-2.616 3.395,-3.436 1.419,-0.82 3.033,-1.245 4.672,-1.228 2.034,0.063 3.97,0.892 5.42,2.32 18.368,17.329 31.291,39.644 37.18,64.2 1.919,8.035 3.094,16.23 3.51,24.48 0.902,17.489 -1.727,34.982 -7.729,51.434 -6.003,16.452 -15.258,31.527 -27.211,44.326 -2.68,2.82 -6.34,5.17 -10.38,5 -1.221,-0.014 -2.417,-0.347 -3.47,-0.966 -1.052,-0.619 -1.925,-1.503 -2.53,-2.564 -0.586,-1.173 -0.908,-2.461 -0.945,-3.772 -0.036,-1.311 0.215,-2.614 0.735,-3.818 0.918,-2.168 2.234,-4.146 3.88,-5.83 8.614,-9.2 15.619,-19.785 20.72,-31.31 8.644,-19.62 11.58,-41.287 8.47,-62.5 -3.634,-25.16 -15.678,-48.366 -34.16,-65.82 -1.636,-1.512 -2.616,-3.605 -2.73,-5.83 z"
         fill="#ff7415"
         stroke-width="1"
         style="fill:#ffffff" />
      <path
         id="path_4"
         d="m 689.16,79.81 q 0,-7.12 4,-10.6 4,-3.48 12.8,-3.48 8.82,0 12.87,3.56 4.05,3.56 4.05,10.52 0,13.93 -16.92,13.93 -16.79,0 -16.8,-13.93 z m 0,46.25 q 0,-7.12 4,-10.6 4,-3.48 12.8,-3.49 8.82,0 12.87,3.57 4.05,3.57 4.05,10.52 0,13.94 -16.92,13.93 -16.79,0.01 -16.8,-13.93 z"
         fill="#ffffff"
         stroke-width="1"
         style="fill:#ffffff" />
    </g>
  </g>
</svg>
