<?xml version="1.0" encoding="UTF-8" standalone="no"?>
<!-- Generator: Adobe Illustrator 23.0.1, SVG Export Plug-In . SVG Version: 6.00 Build 0)  -->

<svg
   xmlns:ns="&amp;ns_sfw;"
   xmlns:dc="http://purl.org/dc/elements/1.1/"
   xmlns:cc="http://creativecommons.org/ns#"
   xmlns:rdf="http://www.w3.org/1999/02/22-rdf-syntax-ns#"
   xmlns:svg="http://www.w3.org/2000/svg"
   xmlns="http://www.w3.org/2000/svg"
   xmlns:sodipodi="http://sodipodi.sourceforge.net/DTD/sodipodi-0.dtd"
   xmlns:inkscape="http://www.inkscape.org/namespaces/inkscape"
   version="1.1"
   id="Livello_1"
   x="0px"
   y="0px"
   viewBox="0 0 48 48"
   enable-background="new 0 0 1881.25 1750"
   xml:space="preserve"
   sodipodi:docname="yourphone.svg"
   width="48"
   height="48"
   inkscape:version="0.92.2 (5c3e80d, 2017-08-06)"><defs
     id="defs34" /><sodipodi:namedview
     pagecolor="#ffffff"
     bordercolor="#666666"
     borderopacity="1"
     objecttolerance="10"
     gridtolerance="10"
     guidetolerance="10"
     inkscape:pageopacity="0"
     inkscape:pageshadow="2"
     inkscape:window-width="1366"
     inkscape:window-height="745"
     id="namedview32"
     showgrid="false"
     inkscape:zoom="6.1029376"
     inkscape:cx="-1.3056369"
     inkscape:cy="25.615163"
     inkscape:window-x="-8"
     inkscape:window-y="-8"
     inkscape:window-maximized="1"
     inkscape:current-layer="Livello_1" /><metadata
     id="metadata2"><ns:sfw><ns:slices /><ns:sliceSourceBounds
         bottomLeftOrigin="true"
         height="1750"
         width="1881.25"
         x="-938.5"
         y="-851" /></ns:sfw><rdf:RDF><cc:Work
         rdf:about=""><dc:format>image/svg+xml</dc:format><dc:type
           rdf:resource="http://purl.org/dc/dcmitype/StillImage" /><dc:title></dc:title></cc:Work></rdf:RDF></metadata><linearGradient
     id="SVGID_1_"
     gradientUnits="userSpaceOnUse"
     x1="167.2057"
     y1="1420.9117"
     x2="795.29431"
     y2="333.08829"
     gradientTransform="matrix(1,0,0,-1,0,1752)"><stop
       offset="0"
       style="stop-color:#2368C4"
       id="stop20" /><stop
       offset="0.5"
       style="stop-color:#1A5DBE"
       id="stop22" /><stop
       offset="1"
       style="stop-color:#1146AC"
       id="stop24" /></linearGradient><path
     style="opacity:1;fill:#ffffff;fill-opacity:1;stroke:none;stroke-width:0.94488192;stroke-linejoin:bevel;stroke-miterlimit:4;stroke-dasharray:none;stroke-opacity:1"
     d="m 6.47788,4.5450553 c -1.062066,0 -1.915986,0.8539086 -1.915975,1.915971 V 12.87072 30.552348 32.468323 H 3.915984 2.000001 v 1.408743 c 0,0.780601 0.853916,1.410728 1.915983,1.410728 H 8.2828876 V 9.5816617 c 0,-1.2755342 1.0267993,-2.3043103 2.3023444,-2.3043103 h 19.114144 c 1.275538,0 2.302337,1.0287761 2.302337,2.3043103 V 35.287794 h 12.080342 c 1.062062,0 1.917944,-0.630127 1.917944,-1.410728 V 32.468323 H 44.082055 43.438107 V 30.552348 12.87072 6.4610263 c 0,-1.0620624 -0.855897,-1.915971 -1.917948,-1.915971 z m 5.706304,5.0227394 c -1.062062,0 -1.915979,0.8558923 -1.915971,1.9179593 V 41.53699 c 0,1.062062 0.853909,1.917955 1.915971,1.917955 h 15.916241 c 1.062062,0 1.917955,-0.855893 1.917944,-1.917955 V 11.485754 c 0,-1.062067 -0.855882,-1.9179593 -1.917944,-1.9179593 z m 2.752104,1.8406793 a 1.0144547,1.0144547 0 0 1 1.014456,1.014451 1.0144547,1.0144547 0 0 1 -1.014456,1.014456 1.0144547,1.0144547 0 0 1 -1.014455,-1.014456 1.0144547,1.0144547 0 0 1 1.014455,-1.014451 z m 3.396042,0 h 5.07227 c 0.562012,0 1.014459,0.452447 1.014459,1.014451 0,0.562008 -0.452447,1.014456 -1.014459,1.014456 h -5.07227 c -0.562008,0 -1.014459,-0.452448 -1.014459,-1.014456 0,-0.562004 0.452451,-1.014451 1.014459,-1.014451 z"
     id="path1619"
     inkscape:connector-curvature="0" /></svg>