<?xml version="1.0" encoding="utf-8"?>
<!-- Generator: Adobe Illustrator 21.1.0, SVG Export Plug-In . SVG Version: 6.00 Build 0)  -->
<svg version="1.0" id="Layer_1" xmlns="http://www.w3.org/2000/svg" xmlns:xlink="http://www.w3.org/1999/xlink" x="0px" y="0px"
	 viewBox="0 0 48 48" style="enable-background:new 0 0 48 48;" xml:space="preserve">
<style type="text/css">
	.st0{fill:#FFFFFF;}
</style>
<path class="st0" d="M24.7,38.3c-5.1-0.2-9.5-0.4-13.9-0.6c-0.7,0-1.4-0.1-2-0.3c-2.3-0.4-3.9-2-4.3-4.4c-0.6-3.9-0.9-7.8-0.6-11.7
	c0.1-2.1,0.3-4.3,0.6-6.4c0.4-2.7,2.1-4.3,4.9-4.5c6.6-0.7,13.2-0.8,19.7-0.6c3.2,0.1,6.3,0.3,9.5,0.6c2.7,0.2,4.4,1.8,4.9,4.5
	c0.6,4,0.9,8,0.6,12c-0.1,2-0.3,4-0.6,5.9c-0.4,2.7-2.1,4.3-4.9,4.5C33.7,37.8,28.8,38,24.7,38.3z M26.4,23.9
	c-1.9,1.1-3.6,2.1-5.3,3c-1.5,0.9-1.5,1-1.1,3c3.5-2,6.9-3.9,10.6-6c-3.7-2.1-7.1-4.1-10.7-6.1c-0.3,2.2-0.3,2.2,1.4,3.2
	C22.9,22,24.5,22.9,26.4,23.9z M24.1,24.2c0-0.1,0.1-0.2,0.1-0.3c-0.9-0.5-1.8-1-2.9-1.7c0,1.3,0,2.3,0,3.5
	C22.4,25.1,23.3,24.7,24.1,24.2z M20.2,25.8c0.1,0,0.2,0,0.2,0c0-1.3,0-2.7,0-4c-0.1,0-0.2,0-0.2,0C20.2,23.2,20.2,24.5,20.2,25.8z"
	/>
</svg>
