<?xml version="1.0" encoding="UTF-8" standalone="no"?>
<svg
   xmlns:ns="&amp;ns_sfw;"
   xmlns:dc="http://purl.org/dc/elements/1.1/"
   xmlns:cc="http://creativecommons.org/ns#"
   xmlns:rdf="http://www.w3.org/1999/02/22-rdf-syntax-ns#"
   xmlns:svg="http://www.w3.org/2000/svg"
   xmlns="http://www.w3.org/2000/svg"
   xmlns:sodipodi="http://sodipodi.sourceforge.net/DTD/sodipodi-0.dtd"
   xmlns:inkscape="http://www.inkscape.org/namespaces/inkscape"
   inkscape:version="1.0 (4035a4fb49, 2020-05-01)"
   sodipodi:docname="Youtube_Music_logo_frost.svg"
   xml:space="preserve"
   enable-background="new 0 0 176 176"
   viewBox="0 0 176 176"
   y="0px"
   x="0px"
   id="Layer_1"
   version="1.1"><defs
   id="defs11">
	
	
	
</defs><sodipodi:namedview
   inkscape:current-layer="Layer_1"
   inkscape:window-maximized="1"
   inkscape:window-y="-8"
   inkscape:window-x="-8"
   inkscape:cy="89.204212"
   inkscape:cx="69.989274"
   inkscape:zoom="3.2904571"
   inkscape:pagecheckerboard="true"
   showgrid="false"
   id="namedview9"
   inkscape:window-height="996"
   inkscape:window-width="1920"
   inkscape:pageshadow="2"
   inkscape:pageopacity="0"
   guidetolerance="10"
   gridtolerance="10"
   objecttolerance="10"
   borderopacity="1"
   bordercolor="#666666"
   pagecolor="#ffffff" />
<metadata
   id="metadata2">
	<ns:sfw>
		<ns:slices />
		<ns:sliceSourceBounds
   y="-184"
   x="8"
   width="176"
   height="176"
   bottomLeftOrigin="true" />
	</ns:sfw>
<rdf:RDF><cc:Work
     rdf:about=""><dc:format>image/svg+xml</dc:format><dc:type
       rdf:resource="http://purl.org/dc/dcmitype/StillImage" /><dc:title></dc:title></cc:Work></rdf:RDF></metadata>
<path
   d="M 87.814453 0 A 88 88 0 0 0 0 88 A 88 88 0 0 0 88 176 A 88 88 0 0 0 176 88 A 88 88 0 0 0 88 0 A 88 88 0 0 0 87.814453 0 z M 88 42 C 113.4 42 134 62.6 134 88 C 134 113.4 113.4 134 88 134 C 62.6 134 42 113.4 42 88 C 42 62.6 62.6 42 88 42 z M 88 46 C 64.9 46 46 64.8 46 88 C 46 111.2 64.8 130 88 130 C 111.2 130 130 111.2 130 88 C 130 64.8 111.1 46 88 46 z M 72 65 L 111 87 L 72 111 L 72 65 z "
   style="fill:#000000;fill-opacity:1"
   id="XMLID_791_" />
</svg>
