<?xml version="1.0" encoding="UTF-8" standalone="no"?>
<svg
   xmlns:dc="http://purl.org/dc/elements/1.1/"
   xmlns:cc="http://creativecommons.org/ns#"
   xmlns:rdf="http://www.w3.org/1999/02/22-rdf-syntax-ns#"
   xmlns:svg="http://www.w3.org/2000/svg"
   xmlns="http://www.w3.org/2000/svg"
   id="svg881"
   version="1.1"
   viewBox="0 0 48 48"
   height="48"
   width="48">
  <metadata
     id="metadata887">
    <rdf:RDF>
      <cc:Work
         rdf:about="">
        <dc:format>image/svg+xml</dc:format>
        <dc:type
           rdf:resource="http://purl.org/dc/dcmitype/StillImage" />
        <dc:title></dc:title>
      </cc:Work>
    </rdf:RDF>
  </metadata>
  <defs
     id="defs885">
    <clipPath
       id="clipPath18"
       clipPathUnits="userSpaceOnUse">
      <path
         id="path16"
         d="M 0,288 H 792 V 0 H 0 Z" />
    </clipPath>
    <clipPath
       id="clipPath18-5"
       clipPathUnits="userSpaceOnUse">
      <path
         id="path16-3"
         d="M 0,288 H 792 V 0 H 0 Z" />
    </clipPath>
    <defs
       id="defs4710">
      <filter
         height="419"
         width="594"
         y="88"
         x="101"
         filterUnits="userSpaceOnUse"
         id="Adobe_OpacityMaskFilter">
        <feColorMatrix
           id="feColorMatrix4707"
           values="1 0 0 0 0  0 1 0 0 0  0 0 1 0 0  0 0 0 1 0"
           type="matrix" />
      </filter>
    </defs>
    <mask
       id="mask-2"
       height="419"
       width="594"
       y="88"
       x="101"
       maskUnits="userSpaceOnUse">
      <g
         style="filter:url(#Adobe_OpacityMaskFilter)"
         id="g4713"
         class="st3">
        <path
           style="fill:#ffffff"
           d="M 76,64.4 C 76,17.8 282.9,0 397.5,0 510.6,0 719,17.8 719,64.4 V 719 H 76 Z"
           class="st0"
           id="path-1" />
      </g>
    </mask>
    <filter
       height="419"
       width="594"
       y="88"
       x="101"
       filterUnits="userSpaceOnUse"
       id="filter1960">
      <feColorMatrix
         id="feColorMatrix1958"
         values="1 0 0 0 0  0 1 0 0 0  0 0 1 0 0  0 0 0 1 0"
         type="matrix" />
    </filter>
    <mask
       id="a"
       x="0"
       y="0"
       width="180"
       height="180"
       maskUnits="userSpaceOnUse">
      <rect
         width="180"
         height="180"
         rx="39.709999"
         ry="39.709999"
         id="rect1986"
         x="0"
         y="0"
         style="fill:#ffffff" />
    </mask>
  </defs>
  <style
     type="text/css"
     id="style4642">.st0{fill:#FFFFFF;}.st1{fill:#0061DC;}.st2{fill:#007AFF;}.st3{filter:url(#Adobe_OpacityMaskFilter);}.st4{opacity:0.9807;mask:url(#mask-2);fill:#FFFFFF;enable-background:new    ;}.st5{filter:url(#filter-4);}.st6{fill:#F3F3F3;}.st7{fill:none;stroke:#FFFFFF;stroke-width:5;}.st8{filter:url(#filter-7);}</style>
  <g
     transform="matrix(0.7920979,0,0,0.7920979,5,4.9999481)"
     id="g2353">
    <path
       style="fill:#ffffff;fill-opacity:1;stroke-width:0.25899145;paint-order:fill markers stroke"
       d="M 7.620234,0 C -0.045731,1.046064 0.001979,5.886034 0,9.650736 V 22.6525 H 47.969998 V 9.08078 C 47.970998,5.852775 47.961998,1.047455 40.562128,0 Z"
       id="path1993" />
    <path
       style="fill:#ffffff;fill-opacity:1;stroke-width:0.25169444"
       d="m 25.3175,25.3175 v 22.652499 l 17.118458,0.004 c 2.65667,-0.004 5.5333,-1.73641 5.53791,-6.5997 l -0.004,-16.056959 z"
       id="path1997" />
    <path
       style="fill:#ffffff;fill-opacity:1;stroke-width:0.25169444"
       d="m 0,25.3175 v 16.022269 c 0.01028,4.89798 2.693753,6.63438 5.544449,6.63023 H 22.6525 V 25.3175 Z"
       id="path2001" />
  </g>
</svg>
