<?xml version="1.0" encoding="UTF-8" standalone="no"?>
<svg
   xmlns:dc="http://purl.org/dc/elements/1.1/"
   xmlns:cc="http://creativecommons.org/ns#"
   xmlns:rdf="http://www.w3.org/1999/02/22-rdf-syntax-ns#"
   xmlns:svg="http://www.w3.org/2000/svg"
   xmlns="http://www.w3.org/2000/svg"
   id="svg8"
   version="1.1"
   viewBox="0 0 12.7 12.7"
   height="48"
   width="48">
  <defs
     id="defs2" />
  <metadata
     id="metadata5">
    <rdf:RDF>
      <cc:Work
         rdf:about="">
        <dc:format>image/svg+xml</dc:format>
        <dc:type
           rdf:resource="http://purl.org/dc/dcmitype/StillImage" />
        <dc:title></dc:title>
      </cc:Work>
    </rdf:RDF>
  </metadata>
  <g
     style="display:inline"
     id="layer1">
    <g
       transform="matrix(0.26458333,0,0,0.26458333,-49.134035,-230.6724)"
       id="layer1-7">
      <g
         transform="translate(25.455846,-72.831996)"
         id="g1191">
        <path
           d="m 179.32786,944.6647 a 1.1086506,1.1086506 0 0 0 -1.09849,0.96053 l -0.85119,6.23687 a 18.095977,18.095977 0 0 0 -4.24034,2.45466 l -5.8334,-2.38438 a 1.1086506,1.1086506 0 0 0 -1.38222,0.47115 l -2.45988,4.26117 -2.45986,4.26117 a 1.1086506,1.1086506 0 0 0 0.28373,1.43167 l 5.01866,3.88894 a 18.095977,18.095977 0 0 0 -0.15359,2.35575 18.095977,18.095977 0 0 0 0.17181,2.46767 l -5.03688,3.90196 a 1.1086506,1.1086506 0 0 0 -0.28373,1.43167 l 2.45986,4.26117 2.45988,4.26117 a 1.1086506,1.1086506 0 0 0 1.38222,0.47115 l 5.94272,-2.42863 a 18.095977,18.095977 0 0 0 4.1128,2.36616 l 0.86941,6.36962 a 1.1086506,1.1086506 0 0 0 1.09849,0.96053 h 4.91974 4.91973 a 1.1086506,1.1086506 0 0 0 1.09848,-0.96053 l 0.86943,-6.36962 a 18.095977,18.095977 0 0 0 4.1154,-2.36616 l 5.94012,2.42863 a 1.1086506,1.1086506 0 0 0 1.38222,-0.47115 l 2.45986,-4.26117 2.45987,-4.26117 a 1.1086506,1.1086506 0 0 0 -0.28373,-1.43167 l -5.03427,-3.89935 a 18.095977,18.095977 0 0 0 0.16919,-2.47028 18.095977,18.095977 0 0 0 -0.15618,-2.35575 l 5.02126,-3.88894 a 1.1086506,1.1086506 0 0 0 0.28373,-1.43167 l -2.45987,-4.26117 -2.45986,-4.26117 a 1.1086506,1.1086506 0 0 0 -1.38222,-0.47115 l -5.83601,2.38438 A 18.095977,18.095977 0 0 0 191.117,951.8621 l -0.85119,-6.23687 a 1.1086506,1.1086506 0 0 0 -1.09848,-0.96053 h -4.91973 z m 0.19262,16.93016 11.86985,7.06985 -11.86985,7.11148 z"
           style="opacity:1;fill:#ffffff;fill-opacity:1;stroke:none;stroke-width:5.03719;stroke-miterlimit:4;stroke-dasharray:none"
           id="rect1245" />
      </g>
    </g>
  </g>
</svg>
