<svg xmlns="http://www.w3.org/2000/svg" viewBox="0 0 48 48"><defs><style>.a{fill:#fff;fill-rule:evenodd;}</style></defs><path class="a" d="M24,2A22,22,0,1,0,46,24,22,22,0,0,0,24,2ZM6,26a2,2,0,1,1,2-2A2,2,0,0,1,6,26ZM24,4a2,2,0,1,1-2,2A2,2,0,0,1,24,4ZM9.86,9.86a2,2,0,1,1,0,2.83A2,2,0,0,1,9.86,9.86Zm2.83,28.28a2,2,0,1,1,0-2.83A2,2,0,0,1,12.69,38.14ZM24,44a2,2,0,1,1,2-2A2,2,0,0,1,24,44Zm0-6A14,14,0,1,1,38,24,14,14,0,0,1,24,38Zm14.14.14a2,2,0,1,1,0-2.83A2,2,0,0,1,38.14,38.14Zm0-25.45a2,2,0,1,1,0-2.83A2,2,0,0,1,38.14,12.69ZM42,26a2,2,0,1,1,2-2A2,2,0,0,1,42,26Z"/><polygon class="a" points="27.61 15.54 24.59 22.62 21.57 15.54 16.47 15.54 22.04 28.6 19.89 33.64 24.99 33.64 32.71 15.54 27.61 15.54"/></svg>