<?xml version="1.0" encoding="UTF-8"?>
<svg version="1.1" viewBox="0 0 48 48" xmlns="http://www.w3.org/2000/svg">
    <path d="m23.844 2c-1.9585-0.006443-3.5289 0.58616-4.3945 1.8906-3.404 5.1299 18.078 15.076 25.936 15.906-2.5894-10.116-14.547-17.774-21.541-17.797zm-1.0898 3.3984c1.883 0.08376 7.1622 2.1377 11.367 4.9395 4.8057 3.2019 7.8387 7.4531 6.5566 5.9883-1.1195-1.2791-6.009-3.8103-10.244-6.4531-4.2351-2.6428-8.644-4.1544-8.2656-4.3867 0.11733-0.072029 0.31694-0.099856 0.58594-0.087891zm-5.6074 2.1816c-8.8566 2.6808-14.834 10.211-14.842 18.697 4.016e-4 10.893 9.7136 19.722 21.695 19.723 11.982-1.69e-4 21.695-8.8301 21.695-19.723-8.74e-4 -1.2926-0.14152-2.582-0.41992-3.8496-0.67062-0.12718-1.3907-0.28905-2.1582-0.49023 0.39591 1.4187 0.59925 2.8762 0.60547 4.3398-3.64e-4 9.9022-8.8303 17.929-19.723 17.93-9.4095-2.87e-4 -17.268-5.9952-19.236-14.01h1.4844v1.3398c0 0.72845 0.58796 1.3145 1.3164 1.3145h1.3145c0.72845 0 1.3145-0.586 1.3145-1.3145v-1.3164h2.6309v2.6309c0 0.72845 0.58601 1.3145 1.3145 1.3145h1.3145c0.72845 0 1.3145-0.586 1.3145-1.3145v-2.6309h2.5098c0.79467 0 1.4355-0.586 1.4355-1.3145v-2.6289h5.2598c0.72845 0 1.3145-0.58796 1.3145-1.3164v-5.2578c0.0289-1.5457-0.25073-1.3355 1.3145-1.3164v1.3164c0 0.72845 0.58796 1.3145 1.3164 1.3145s1.3145-0.586 1.3145-1.3145v-1.3164c0.39234 0 0.73214-0.17842 0.97266-0.44922-12.81-5.8244-13.829-8.8382-15.059-10.357zm1.5918 26.586c-0.72845 0-1.3145 0.586-1.3145 1.3145s0.586 1.3145 1.3145 1.3145 1.3145-0.586 1.3145-1.3145-0.586-1.3145-1.3145-1.3145zm7.2344 1.3145c-0.72845 0-1.3145 0.586-1.3145 1.3145s0.586 1.3164 1.3145 1.3164h-6.5918c-0.7188 0-1.2988 0.6614-1.2988 1.4844v2.291c0 0.82297 0.58003 1.4844 1.2988 1.4844h7.9238c0.7188 0 1.2969-0.6614 1.2969-1.4844v-2.291c0-0.82297-0.57808-1.4844-1.2969-1.4844h-0.017579c0.72845 0 1.3145-0.58796 1.3145-1.3164s-0.586-1.3145-1.3145-1.3145h-1.3145z" fill="#fff"/>
</svg>
