<?xml version="1.0" encoding="UTF-8"?>
<svg version="1.1" viewBox="0 0 48 48" xmlns="http://www.w3.org/2000/svg">
    <path d="m15.619 5.0076a1.6923 1.6923 0 0 0-1.1629 0.62901 1.6923 1.6923 0 0 0 0.26699 2.3785 1.6923 1.6923 0 0 0 1.01 0.36932l2.2855 4.0717-7.229 0.6803c-2.3335 0.2196-4.0354 2.275-3.8158 4.6086l1.2288 13.058c0.15338 1.6298 1.2035 2.9489 2.6173 3.523l-2.6015 5.6758c-0.48829 1.0654-0.02375 2.3161 1.0416 2.8044 1.0654 0.48829 2.3161 0.02375 2.8044-1.0416l3.3893-7.3945 17.04-1.6036 4.7093 6.6324c0.67848 0.95556 1.9939 1.1786 2.9495 0.50012 0.95555-0.67848 1.1786-1.9939 0.50012-2.9495l-3.6147-5.0908c1.2818-0.82777 2.0675-2.3196 1.9141-3.9495l-1.2288-13.058c-0.2196-2.3335-2.275-4.0354-4.6086-3.8158l-9.6884 0.91176 0.99172-3.2995a1.6923 1.6923 0 0 0 1.3206-1.8112 1.6923 1.6923 0 0 0-1.8434-1.5263 1.6923 1.6923 0 0 0-1.5263 1.8434 1.6923 1.6923 0 0 0 0.43572 0.98318l-1.1964 3.9815-1.7457 0.16429-2.6406-4.7052a1.6923 1.6923 0 0 0-0.38664-2.2079 1.6923 1.6923 0 0 0-1.2155-0.36201zm-3.38 12.242 20.218-1.9027c0.46671-0.04392 0.87779 0.29645 0.92171 0.76316l1.0703 11.373c0.04392 0.46671-0.29645 0.87779-0.76316 0.92171l-20.218 1.9027c-0.46671 0.04392-0.87779-0.29645-0.92171-0.76316l-1.0703-11.373c-0.04392-0.46671 0.29645-0.87779 0.76316-0.92171z" fill="#fff" stroke-dashoffset="5.18" stroke-linecap="round" stroke-linejoin="round" stroke-width="4" style="paint-order:stroke markers fill"/>
</svg>
