<svg xmlns="http://www.w3.org/2000/svg" viewBox="0 0 48 48">
  <path
     style="fill:#ffffff"
     d="M 24,2 C 11.849736,2 2,11.849736 2,24 c 0,12.150264 9.849736,22 22,22 2.434698,-0.0091 4.851003,-0.422249 7.150391,-1.222656 -0.02396,-0.101531 -0.03082,-0.233165 0.0039,-0.435547 l -0.287109,-3.378906 c 0,0 -1.125343,-8.101414 -2.089844,-11.515625 -0.451796,-1.599297 -0.99319,-3.588287 -1.203125,-4.419922 -0.209935,-0.831634 -0.420219,-1.655362 -0.466797,-1.830078 -0.04986,-0.187023 -0.913447,0.578652 -2.101563,1.861328 -1.109928,1.198264 -3.125229,3.281066 -4.476562,4.626953 -1.351333,1.345891 -2.946689,3.032487 -3.546875,3.748047 -1.89449,2.258667 -4.751193,3.102236 -5.916016,1.748047 -0.712376,-0.828185 -1.0981921,-2.340762 -0.939453,-3.685547 0.238794,-2.023006 2.987332,-8.175365 5.103516,-11.421875 1.3177,-2.021532 4.123047,-6.979448 4.123047,-7.28711 0,-0.09672 -0.213655,-0.401915 -0.47461,-0.679687 -0.679185,-0.722958 -0.845521,-2.011902 -0.326172,-2.5312501 0.8821,-0.8821013 2.958251,0.3674311 3.279297,1.9726561 0.07532,0.376619 0.21412,0.683594 0.306641,0.683594 0.269563,0 0.921348,-1.644179 1.148437,-2.8945314 0.32283,-1.777527 1.260624,-2.1462255 2.521485,-0.9921875 0.823903,0.754104 0.676645,1.6919779 -0.34961,2.2324219 -0.287874,0.151599 -0.700511,0.547024 -0.917968,0.878906 -0.38132,0.581967 -0.377727,0.619328 0.140625,1.039063 0.613316,0.496633 1.426295,0.565893 1.835937,0.15625 0.166131,-0.16613 0.279297,-0.967889 0.279297,-1.978516 0,-1.3879963 0.08457,-1.7818342 0.464844,-2.1621092 0.59799,-0.5979901 1.405951,-0.5930021 2.179687,0.015625 0.806472,0.6343689 0.818321,1.6601982 0.0293,2.4492182 -0.656435,0.656436 -1.511719,2.217036 -1.511719,2.759766 0,0.61805 0.704,0.392458 1.806641,-0.578125 1.398075,-1.230633 4.077403,-2.119862 4.652344,-1.544922 0.312378,0.312378 0.325993,0.506727 0.08984,1.294922 -0.152968,0.510569 -0.589993,1.240385 -0.970703,1.621094 -0.44426,0.44426 -0.691379,0.927546 -0.689453,1.349609 0.0054,1.17659 0.918685,3.654907 1.527344,4.146485 0.376811,0.304329 0.614959,0.781119 0.689453,1.376953 0.06264,0.500992 0.21492,1.031519 0.337891,1.179687 0.14532,0.175101 0.129916,0.362271 -0.04297,0.535157 -0.19957,0.199569 -0.169894,0.304352 0.121094,0.416015 0.213311,0.08185 0.388672,0.340351 0.388672,0.574219 0,0.233868 0.121586,0.719904 0.269531,1.080078 0.147941,0.360173 0.244838,0.836645 0.216797,1.060547 -0.02806,0.223902 0.07299,0.408203 0.222656,0.408203 0.149677,0 0.212699,0.153981 0.140625,0.341797 -0.07207,0.18782 -0.02809,0.404705 0.09766,0.482422 0.125751,0.07772 0.205267,0.26378 0.177735,0.414062 -0.0897,0.489608 0.310174,1.82484 0.892578,2.984375 0.313625,0.624415 0.608953,1.336427 0.65625,1.582032 0.0473,0.245601 0.202897,0.664803 0.345703,0.93164 0.142807,0.266832 0.195187,0.588635 0.117187,0.714844 -0.078,0.126199 0.02559,0.292475 0.230469,0.371094 0.276953,0.10627 0.348364,0.375717 0.28125,1.046875 -0.05637,0.563725 0.02646,0.998603 0.21875,1.158203 0.169362,0.140559 0.37069,0.636584 0.447266,1.103515 0.08284,0.369496 0.108834,0.677015 0.113281,0.953125 C 43.958145,34.702888 45.990445,29.450226 46,24 46,11.849736 36.150264,2 24,2 Z m 15.607422,37.480469 c -26.404948,5.679687 -13.202474,2.839844 0,0 z m 0,0 c -0.01868,-0.06573 -0.04046,-0.119276 -0.05273,-0.203125 -0.94636,-2.836323 -2.020224,-5.274798 -2.035157,-4.789063 -0.03367,1.095018 -0.245006,1.472656 -0.826172,1.472657 -0.577442,0 -1.996369,-0.432122 -2.294921,-0.699219 -0.105031,-0.09397 0.04309,-1.022433 0.328124,-2.0625 0.516824,-1.88584 0.519362,-1.890625 1.294922,-1.890625 0.427728,0 0.775664,-0.02659 0.771485,-0.05859 -0.0042,-0.03199 -0.207092,-0.634198 -0.449219,-1.337891 -0.428669,-1.245844 -0.465633,-1.279953 -1.388672,-1.349609 -1.191031,-0.08988 -1.287279,-0.657444 -0.148437,-0.871094 0.561404,-0.105318 0.759412,-0.249212 0.669921,-0.482422 -0.08843,-0.230457 -0.348717,-0.293159 -0.855468,-0.205078 -0.809788,0.140755 -1.457534,-0.155683 -1.210938,-0.554687 0.08791,-0.142248 0.509899,-0.257813 0.9375,-0.257813 H 35.125 l -0.675781,-2.269531 c -0.371796,-1.247453 -1.028378,-3.314312 -1.458985,-4.59375 -1.230784,-3.656965 -1.24467,-3.904907 -0.277343,-4.785156 0.749724,-0.682233 1.497583,-2.184056 1.224609,-2.457031 -0.06381,-0.06381 -0.532309,-0.0027 -1.042969,0.134765 -0.710243,0.191249 -1.016296,0.43544 -1.302734,1.039063 -0.205944,0.434 -0.375,0.892626 -0.375,1.019531 0,0.126906 -0.157694,0.291589 -0.349609,0.365234 -0.466527,0.179023 -0.458315,-0.523411 0.01367,-1.197265 0.52269,-0.746243 0.246562,-0.640764 -1.08789,0.414062 -0.647444,0.511775 -1.355411,0.931641 -1.574219,0.931641 -0.519776,0 -0.957031,-0.450992 -0.957031,-0.986328 0,-0.594773 1.013189,-2.529046 1.603515,-3.0625 0.914194,-0.8261175 0.438131,-2.1249389 -0.71875,-1.9609379 -0.499245,0.07077 -0.538182,0.194547 -0.582031,1.7871089 -0.05224,1.897305 -0.430539,2.732717 -1.339844,2.960938 -0.813426,0.204157 -2.208962,-0.322129 -2.490234,-0.939453 -0.315923,-0.693377 0.284092,-1.883437 1.216797,-2.414063 0.841139,-0.4785327 0.86999,-1.066413 0.08008,-1.583984 C 24.519267,8.258289 24.398805,8.2479099 24.220704,8.529301 24.105638,8.7111 24.008675,9.1215493 24.003907,9.4414103 c -0.0101,0.6777767 -0.787657,2.4830717 -1.326172,3.0781247 -0.615877,0.680536 -0.9953,0.475651 -1.583984,-0.855469 -0.544683,-1.231624 -1.095972,-1.7578119 -1.841797,-1.7578119 -0.55074,0 -0.438369,0.4247199 0.275391,1.0390619 0.361531,0.311176 0.550193,0.634356 0.433594,0.744141 -0.113473,0.106841 -0.253429,0.06423 -0.310547,-0.0957 -0.05712,-0.159931 -0.217838,-0.291016 -0.357422,-0.291016 -0.139585,0 -0.02624,0.242942 0.251953,0.539063 0.278191,0.296119 0.505859,0.666208 0.505859,0.822265 0,0.156056 -0.391914,1.002385 -0.871093,1.88086 l -0.871094,1.595703 0.46289,0.513672 c 0.387132,0.427776 0.626876,0.48825 1.453125,0.375 0.749714,-0.10276 0.988282,-0.05666 0.988282,0.185547 0,0.766655 -1.93987,0.821633 -2.75,0.07813 -0.377495,-0.346449 -0.603858,-0.428713 -0.669922,-0.244141 -0.0549,0.153367 -0.843249,1.462272 -1.751953,2.908203 -2.386454,3.797333 -5.410141,10.384781 -4.96875,10.826172 0.06496,0.06496 0.451758,-0.162869 0.859375,-0.505859 0.897485,-0.755184 1.321027,-0.520468 0.955078,0.529297 -0.201375,0.577659 -0.169563,0.762245 0.18164,1.080078 0.237396,0.214841 0.482463,0.285291 0.558594,0.162109 0.202246,-0.327241 0.977924,-0.478618 1.332031,-0.259766 0.244031,0.150819 0.196393,0.315536 -0.224609,0.763672 -0.516833,0.550145 -0.522876,0.595974 -0.152344,1.3125 0.379035,0.732973 0.390466,0.73694 0.888672,0.314454 1.557095,-1.320437 2.021485,-2.39222 2.021485,-4.671876 0,-1.661633 0.362639,-2.148668 1.289062,-1.726562 0.317954,0.144868 0.699106,0.525912 0.845703,0.847656 0.146596,0.321745 0.338183,0.585938 0.425781,0.585938 0.229161,0 4.463308,-4.403598 6.59961,-6.863282 1.000104,-1.151493 1.911707,-2.127273 2.027344,-2.169921 0.393177,-0.145009 0.213221,0.389084 -0.363282,1.074218 -0.537924,0.639289 -0.561305,0.770078 -0.353515,2.052735 0.122096,0.753683 0.450758,2.108671 0.730468,3.011718 0.490374,1.583162 0.54692,1.656945 1.574219,2.070313 1.056364,0.425066 1.878906,0.987828 1.878906,1.283203 0,0.210518 -1.558409,0.9375 -2.009765,0.9375 -0.255674,0 -0.317296,0.121818 -0.203125,0.40625 0.08987,0.223902 0.390355,1.454937 0.666015,2.734375 l 0.5,2.326172 1.017579,0.04687 c 0.558818,0.02573 1.068538,0.09784 1.132812,0.162109 0.06427,0.06427 0.04497,0.500005 -0.04297,0.96875 -0.158862,0.846807 -0.167055,0.851617 -1.095703,0.703125 -0.922768,-0.147559 -0.933632,-0.141341 -0.808594,0.496094 0.06797,0.346508 0.643118,4.626039 0.808594,5.986328 2.813501,-1.120108 5.36546,-2.809002 7.496094,-4.960937 z m -7.496094,4.960937 c -21.407552,2.372396 -10.703776,1.186198 0,0 z M 22.947266,17.126953 c 0.178407,0.03995 0.376095,0.164553 0.443359,0.339844 0.146003,0.380473 1.49991,1.277906 1.929687,1.279297 0.147824,5.01e-4 0.71448,-0.370278 1.257813,-0.824219 0.729861,-0.609781 1.053483,-0.757043 1.242187,-0.5625 0.187339,0.193133 -0.01658,0.505668 -0.763671,1.173828 -1.142497,1.021799 -1.799412,1.124857 -3.023438,0.472656 -0.69503,-0.370334 -1.392409,-1.213254 -1.416015,-1.71289 -0.0076,-0.161943 0.15167,-0.205963 0.330078,-0.166016 z m -4.695313,9.539063 c 0.41028,-0.0047 0.852606,0.06009 1.072266,0.199218 0.176321,0.111681 0.248071,0.32064 0.160156,0.462891 -0.198629,0.321394 -0.523007,0.332617 -0.712891,0.02539 -0.07907,-0.127942 -0.457965,-0.232422 -0.841796,-0.232422 -0.406014,0 -0.63833,-0.09709 -0.554688,-0.232422 0.08818,-0.142676 0.466673,-0.217932 0.876953,-0.222656 z m 0.169922,1.61914 c -0.127943,0 -0.232422,0.16186 -0.232422,0.361328 0,0.199468 0.104479,0.297824 0.232422,0.21875 0.127945,-0.07907 0.232422,-0.240933 0.232422,-0.361328 0,-0.120391 -0.104477,-0.21875 -0.232422,-0.21875 z m 11.572266,0.947266 c -0.08909,0.0225 -0.103172,0.128978 -0.03125,0.316406 0.07055,0.183837 0.286463,0.274874 0.478515,0.201172 0.284067,-0.109001 0.291474,-0.172026 0.03906,-0.332031 -0.231918,-0.147013 -0.397237,-0.208052 -0.486328,-0.185547 z m -11.0625,0.01367 c -0.112015,0.01321 -0.29139,0.127359 -0.457032,0.300781 -0.383884,0.401917 -0.376839,0.407011 0.142579,0.140625 0.298832,-0.153252 0.478365,-0.341947 0.40039,-0.419922 -0.01949,-0.01949 -0.0486,-0.02589 -0.08594,-0.02148 z m 0.277343,0.544922 c -0.347168,0.102453 -1.251953,1.017219 -1.251953,1.328125 0,0.16358 0.334886,-0.03801 0.744141,-0.447266 0.409257,-0.409256 0.68653,-0.80175 0.617187,-0.871094 -0.02258,-0.02258 -0.05978,-0.0244 -0.109375,-0.0098 z m 17.181641,2.447265 c -0.628682,0 -0.708244,0.08717 -0.839844,0.910157 -0.08005,0.500588 -0.20722,1.068798 -0.28125,1.261718 -0.0913,0.237904 0.04113,0.383166 0.408203,0.453125 0.297654,0.05673 0.605944,0.117339 0.685547,0.134766 0.07961,0.01743 0.210761,-0.360056 0.291016,-0.839844 0.08026,-0.479792 0.210099,-1.10861 0.289062,-1.396484 0.125644,-0.458063 0.05575,-0.523438 -0.552734,-0.523438 z" />
</svg>
