<?xml version="1.0" encoding="UTF-8" standalone="no"?>
<svg
   width="48"
   height="48"
   viewBox="0 0 12.7 12.7"
   version="1.1"
   id="svg5"
   xmlns="http://www.w3.org/2000/svg"
   xmlns:svg="http://www.w3.org/2000/svg">
  <defs
     id="defs2" />
  <path
     id="path1124"
     style="fill:#ffffff;stroke-width:0.132291"
     d="M 6.3499999,0.52916666 A 5.8208333,5.8208333 0 0 0 0.52916666,6.3499999 5.8208333,5.8208333 0 0 0 6.3499999,12.170833 5.8208333,5.8208333 0 0 0 12.170833,6.3499999 5.8208333,5.8208333 0 0 0 6.3499999,0.52916666 Z M 2.8954304,3.1197063 h 2.264978 v 0.2092894 c 0,0.064911 -0.018087,0.1241448 -0.054777,0.1777669 L 3.5346679,5.7252319 H 5.1242351 V 6.1799845 H 2.7962116 V 5.9557088 c 0,-0.028222 0.00459,-0.054699 0.01447,-0.080099 0.00988,-0.026811 0.02272,-0.051836 0.038241,-0.074414 L 4.4240198,3.5723917 H 2.8954309 Z M 6.477124,4.0023396 c 0.1566331,0 0.2976412,0.025821 0.4232299,0.078031 0.1255887,0.052211 0.2330442,0.1262531 0.3219442,0.2222088 0.0889,0.095955 0.1565217,0.2124548 0.2030883,0.3493325 0.047978,0.1354667 0.07183,0.2873473 0.07183,0.4552693 0,0.1693334 -0.023852,0.3213532 -0.07183,0.4568198 -0.046567,0.1354664 -0.1141883,0.2513103 -0.2030883,0.3472656 -0.0889,0.095955 -0.1963555,0.1699975 -0.3219442,0.2222088 -0.1255887,0.0508 -0.2665968,0.076481 -0.4232299,0.076481 -0.1580443,0 -0.300881,-0.02568 -0.427881,-0.076481 C 5.9236543,6.0812645 5.8167155,6.0072224 5.7278158,5.911267 5.6389158,5.8153117 5.5701212,5.6994678 5.5221436,5.5640014 5.4755769,5.4285348 5.4523803,5.276515 5.4523803,5.1071816 c 0,-0.167922 0.023196,-0.3198026 0.069763,-0.4552693 C 5.5701213,4.5150346 5.6389155,4.3985351 5.7278155,4.3025798 5.8167155,4.2066238 5.923654,4.1325821 6.0492427,4.080371 6.1762427,4.02816 6.3190794,4.00234 6.477124,4.0023396 Z m 2.4003701,0 c 0.1566333,0 0.2976412,0.025821 0.4232301,0.078031 0.1255887,0.052211 0.2325275,0.1262531 0.3214275,0.2222088 0.0889,0.095955 0.1570384,0.2124548 0.2036051,0.3493325 0.047978,0.1354667 0.07183,0.2873473 0.07183,0.4552693 0,0.1693334 -0.023852,0.3213532 -0.07183,0.4568198 -0.046567,0.1354664 -0.1147054,0.2513103 -0.2036051,0.3472656 -0.0889,0.095955 -0.1958388,0.1699975 -0.3214275,0.2222088 -0.1255889,0.0508 -0.2665968,0.076481 -0.4232301,0.076481 -0.1580441,0 -0.300881,-0.02568 -0.4278807,-0.076481 C 8.3240247,6.0812645 8.2170859,6.0072224 8.1281859,5.911267 8.0392859,5.8153117 7.9704916,5.6994678 7.9225136,5.5640014 7.8759472,5.4285348 7.8527504,5.276515 7.8527507,5.1071816 c 0,-0.167922 0.023196,-0.3198026 0.069763,-0.4552693 C 7.9704916,4.5150346 8.0392859,4.3985351 8.1281859,4.3025798 8.2170859,4.2066241 8.3240247,4.1325821 8.4496134,4.080371 8.5766131,4.02816 8.71945,4.0023396 8.8774941,4.0023396 Z M 6.477124,4.2984457 c -0.1072443,0 -0.2012034,0.018605 -0.2816365,0.055294 -0.079022,0.036689 -0.1453322,0.089502 -0.1989545,0.1586468 -0.052211,0.069144 -0.091528,0.1541984 -0.1183389,0.2557981 -0.0254,0.100189 -0.03824,0.2140646 -0.03824,0.3410646 0,0.2539998 0.052157,0.4522737 0.1565794,0.5947958 0.1058333,0.141111 0.2661023,0.2113566 0.480591,0.2113566 0.2116664,0 0.3694507,-0.070246 0.4738727,-0.2113566 0.1044223,-0.1425221 0.1565796,-0.340796 0.1565796,-0.5947958 0,-0.255411 -0.052157,-0.4543406 -0.1565796,-0.5968627 C 6.8465747,4.3698638 6.6887904,4.2984457 6.477124,4.2984457 Z m 2.4003701,0 c -0.1072444,0 -0.2012032,0.018605 -0.2816365,0.055294 -0.079022,0.036689 -0.1453319,0.089502 -0.1989543,0.1586468 -0.052211,0.069144 -0.092045,0.1541984 -0.1188558,0.2557981 -0.0254,0.100189 -0.037724,0.2140646 -0.037724,0.3410646 0,0.2539998 0.052158,0.4522737 0.1565796,0.5947958 0.1058334,0.141111 0.2661021,0.2113566 0.4805908,0.2113566 0.2116667,0 0.3694509,-0.070246 0.473873,-0.2113566 0.104422,-0.1425221 0.1565796,-0.340796 0.1565796,-0.5947958 0,-0.255411 -0.052158,-0.4543406 -0.1565796,-0.5968627 C 9.246945,4.3698638 9.0891608,4.2984457 8.8774941,4.2984457 Z M 3.2111735,6.7060505 h 0.1901693 v 0.738973 H 4.02146 V 7.7178751 H 3.4013428 v 1.2867431 c 0,0.090311 0.021884,0.157277 0.065629,0.2010214 0.043744,0.043744 0.1003543,0.065629 0.1694987,0.065629 0.039511,0 0.07358,-0.00459 0.1018024,-0.01447 0.029633,-0.01129 0.054798,-0.023474 0.075964,-0.036174 0.021167,-0.0127 0.038599,-0.023712 0.05271,-0.03359 0.015523,-0.01129 0.029019,-0.017052 0.040308,-0.017052 0.019756,0 0.037704,0.011668 0.053227,0.035657 L 4.0705526,9.3859904 C 4.0056413,9.4466684 3.9271469,9.4943733 3.8354248,9.529651 3.7437025,9.5635177 3.6490878,9.5802938 3.5517211,9.5802938 3.382388,9.5802938 3.251736,9.5332448 3.1600137,9.4387005 3.0697027,9.3441561 3.0246216,9.2077399 3.0246216,9.0299399 V 7.7178754 H 2.7662394 c -0.022577,0 -0.041322,-0.00642 -0.056844,-0.019121 -0.015523,-0.01411 -0.023254,-0.03534 -0.023254,-0.063562 v -0.150379 l 0.3513997,-0.044442 0.086816,-0.6624918 c 0.00423,-0.021167 0.013277,-0.037943 0.027388,-0.050643 0.015523,-0.01411 0.035439,-0.021188 0.059428,-0.021188 z m 4.394047,0.6583577 c 0.045155,0 0.088269,0.00511 0.1291911,0.014986 0.042333,0.00988 0.079682,0.025342 0.1121378,0.046509 L 7.8191604,7.707023 c -0.00847,0.035278 -0.029695,0.053227 -0.063562,0.053227 -0.019756,0 -0.048716,-0.00445 -0.086816,-0.01292 -0.0381,-0.00847 -0.081213,-0.012401 -0.1291911,-0.012401 -0.067733,0 -0.128279,0.0097 -0.181901,0.029456 C 7.3054793,7.784141 7.2579133,7.813757 7.21558,7.853268 7.174658,7.891368 7.137309,7.93959 7.1034421,7.9974451 7.0709871,8.0538901 7.0413701,8.1183708 7.0145591,8.1917487 V 9.5467044 H 6.6357706 V 7.4026495 H 6.851778 c 0.040922,0 0.069227,0.00773 0.08475,0.023254 0.015523,0.015523 0.025879,0.041999 0.031523,0.080099 L 6.993372,7.8320806 C 7.0611039,7.685325 7.1447069,7.5713102 7.2434846,7.4894659 7.3422623,7.4062102 7.4626974,7.3644087 7.6052205,7.3644082 Z m -2.326473,0.00414 c 0.128411,0 0.2473952,0.021884 0.3560506,0.065629 0.1100667,0.042333 0.2041647,0.1047075 0.283187,0.1865519 0.080433,0.080433 0.1434634,0.1802958 0.1886188,0.3002402 0.045156,0.1185333 0.067696,0.2542936 0.067696,0.4066934 0,0.059267 -0.00642,0.098584 -0.019122,0.1183391 -0.0127,0.019756 -0.036552,0.029455 -0.07183,0.029455 H 4.6503611 c 0.00423,0.1354667 0.022323,0.253278 0.054777,0.353467 0.033867,0.1001887 0.080776,0.1844476 0.1400432,0.252181 0.059267,0.066322 0.1295122,0.1165116 0.2113565,0.1503783 0.081844,0.032456 0.1738355,0.048576 0.2754355,0.048576 0.094544,0 0.1756627,-0.010872 0.2433961,-0.03204 0.069144,-0.022577 0.1283779,-0.04643 0.1777669,-0.07183 0.049389,-0.0254 0.090534,-0.048597 0.1229897,-0.069763 0.033867,-0.022577 0.062311,-0.034107 0.0863,-0.034107 0.031044,0 0.055414,0.012184 0.072347,0.036174 L 6.1407092,9.2459483 C 6.0941428,9.302393 6.0381887,9.3519267 5.9732777,9.3942597 5.9083667,9.435182 5.8382603,9.4692514 5.7634713,9.4960624 c -0.073378,0.026811 -0.1493877,0.046211 -0.2284097,0.058911 -0.079022,0.01411 -0.1575168,0.021188 -0.2351278,0.021188 -0.1481667,0 -0.2847221,-0.024508 -0.4103108,-0.073897 C 4.7654453,9.4514642 4.6573339,9.3780781 4.5656116,9.2821224 4.4753006,9.184756 4.4045383,9.0649765 4.3537383,8.9224545 4.3029383,8.7799324 4.277774,8.615867 4.277774,8.4310116 4.277774,8.2814342 4.300314,8.1417379 4.34547,8.0119158 4.3920367,7.8820938 4.4583466,7.7700467 4.5444243,7.6755023 4.630502,7.5795467 4.735473,7.5048487 4.8596507,7.4512264 4.9838281,7.3961934 5.1235244,7.3685441 5.2787465,7.3685441 Z m 3.7150188,0 c 0.1566331,0 0.2976412,0.026337 0.4232299,0.078548 0.1255887,0.052211 0.2330442,0.1262533 0.3219442,0.2222087 0.0889,0.095955 0.1565217,0.2124551 0.2030883,0.3493328 0.047978,0.1354664 0.07183,0.2868303 0.07183,0.4547526 0,0.1693331 -0.023852,0.3218699 -0.07183,0.4573363 -0.046567,0.1354666 -0.1141886,0.2513102 -0.2030883,0.3472656 -0.0889,0.095956 -0.1963555,0.1699977 -0.3219442,0.2222087 -0.1255887,0.0508 -0.2665968,0.075964 -0.4232299,0.075964 -0.1580444,0 -0.300881,-0.025165 -0.427881,-0.075964 C 8.4402966,9.4479855 8.3333578,9.3739434 8.2444578,9.2779878 8.1555581,9.1820324 8.0872803,9.0661888 8.0393026,8.9307222 7.9927359,8.7952558 7.9690226,8.642719 7.9690226,8.4733859 c 0,-0.1679223 0.023715,-0.3192862 0.07028,-0.4547526 0.047978,-0.1368777 0.1162555,-0.2533774 0.2051552,-0.3493328 0.0889,-0.095955 0.1958388,-0.1699974 0.3214275,-0.2222087 0.127,-0.052211 0.2698366,-0.078548 0.427881,-0.078548 z M 5.2875325,7.6460463 c -0.1806221,0 -0.3241146,0.052813 -0.4299479,0.1586465 -0.1044221,0.1044221 -0.1694201,0.2498826 -0.1948201,0.436149 h 1.173055 c 0,-0.087489 -0.01284,-0.1672953 -0.038241,-0.2392617 C 5.773589,7.9282022 5.7375527,7.8651721 5.6895751,7.8129611 5.6430084,7.7593387 5.5857428,7.7187101 5.5180094,7.6904878 5.4502761,7.6608545 5.3736102,7.646046 5.2875325,7.6460463 Z m 3.7062338,0.019121 c -0.1072444,0 -0.2012035,0.01809 -0.2816368,0.054777 -0.079022,0.036689 -0.1453319,0.089502 -0.1989542,0.1586468 -0.052211,0.069144 -0.091528,0.1547151 -0.1183389,0.2563151 -0.0254,0.1001887 -0.038241,0.2135478 -0.038241,0.3405476 0,0.2539997 0.052157,0.4522737 0.1565796,0.5947957 0.1058333,0.141111 0.2661023,0.2118733 0.480591,0.2118733 0.2116664,0 0.3694507,-0.070762 0.4738727,-0.2118733 0.1044221,-0.142522 0.1565796,-0.340796 0.1565796,-0.5947957 0,-0.2554108 -0.052157,-0.4543407 -0.1565796,-0.5968627 C 9.363217,7.7360694 9.2054327,7.6651677 8.9937663,7.6651673 Z" />
</svg>
