<?xml version="1.0" encoding="UTF-8" standalone="no"?>
<svg
   xmlns:dc="http://purl.org/dc/elements/1.1/"
   xmlns:cc="http://creativecommons.org/ns#"
   xmlns:rdf="http://www.w3.org/1999/02/22-rdf-syntax-ns#"
   xmlns:svg="http://www.w3.org/2000/svg"
   xmlns="http://www.w3.org/2000/svg"
   xmlns:sodipodi="http://sodipodi.sourceforge.net/DTD/sodipodi-0.dtd"
   xmlns:inkscape="http://www.inkscape.org/namespaces/inkscape"
   id="SVGRoot"
   version="1.1"
   viewBox="0 0 48 48"
   height="48px"
   width="48px"
   sodipodi:docname="celsius.svg"
   inkscape:version="1.0.2 (e86c870879, 2021-01-15, custom)"
   enable-background="new">
  <defs
     id="defs3732">
    <style
       id="style822">.a{fill:#3396cd;}.b{fill:#fff;}</style>
  </defs>
  <sodipodi:namedview
     id="base"
     pagecolor="#000000"
     bordercolor="#666666"
     borderopacity="1.0"
     inkscape:pageopacity="0"
     inkscape:pageshadow="2"
     inkscape:zoom="10.666667"
     inkscape:cx="-22.253467"
     inkscape:cy="20.514052"
     inkscape:document-units="px"
     inkscape:current-layer="layer1"
     showgrid="false"
     inkscape:window-width="2560"
     inkscape:window-height="1380"
     inkscape:window-x="0"
     inkscape:window-y="60"
     inkscape:window-maximized="1"
     inkscape:grid-bbox="true"
     inkscape:document-rotation="0" />
  <metadata
     id="metadata3735">
    <rdf:RDF>
      <cc:Work
         rdf:about="">
        <dc:format>image/svg+xml</dc:format>
        <dc:type
           rdf:resource="http://purl.org/dc/dcmitype/StillImage" />
        <dc:title></dc:title>
      </cc:Work>
    </rdf:RDF>
  </metadata>
  <g
     inkscape:groupmode="layer"
     id="layer1"
     inkscape:label="Layer 3"
     style="display:inline">
    <g
       id="g989"
       style="fill:#ffffff">
      <path
         id="path981"
         style="fill:#ffffff"
         d="M 24 4 A 20 20 0 0 0 4 24 A 20 20 0 0 0 24 44 A 20 20 0 0 0 44 24 A 20 20 0 0 0 24 4 z M 24.369141 11.517578 C 24.931615 11.529036 25.487633 11.575757 26.03125 11.65625 C 27.118483 11.817236 28.156121 12.115274 29.097656 12.548828 C 30.039192 12.982382 30.885454 13.550181 31.587891 14.251953 C 31.744983 14.408897 31.712678 14.610543 31.578125 14.830078 C 31.443572 15.049613 31.207539 15.287327 30.957031 15.517578 C 30.68568 15.766987 30.384296 16.040304 30.103516 16.214844 C 29.822735 16.389383 29.561841 16.465518 29.367188 16.324219 C 28.593688 15.76274 27.779752 15.342273 26.949219 15.050781 C 26.118685 14.759289 25.271382 14.596836 24.427734 14.552734 C 23.584087 14.508633 22.744481 14.582979 21.931641 14.763672 C 21.1188 14.944365 20.331864 15.230391 19.59375 15.613281 C 18.855636 15.996171 18.166341 16.474618 17.546875 17.037109 C 16.927409 17.5996 16.378773 18.247302 15.921875 18.966797 C 15.464977 19.686292 15.100019 20.478128 14.849609 21.332031 C 14.5992 22.185934 14.462891 23.102646 14.462891 24.068359 C 14.462891 25.034073 14.614628 25.958359 14.892578 26.826172 C 15.170528 27.693985 15.575911 28.503795 16.082031 29.238281 C 16.588152 29.972768 17.194395 30.631532 17.878906 31.197266 C 18.563418 31.762999 19.325549 32.236102 20.138672 32.597656 C 20.951795 32.95921 21.817029 33.210083 22.708984 33.332031 C 23.60094 33.453979 24.518445 33.448006 25.439453 33.294922 C 26.360462 33.141837 27.285265 32.84245 28.185547 32.378906 C 29.085829 31.915363 29.963192 31.285991 30.792969 30.476562 C 30.947771 30.325556 31.207255 30.352055 31.492188 30.470703 C 31.777119 30.589351 32.0873 30.801639 32.339844 31.023438 C 32.57504 31.229999 32.848365 31.424243 33.03125 31.607422 C 33.214135 31.790601 33.307012 31.961138 33.179688 32.117188 C 32.352891 33.130513 31.388986 33.961311 30.335938 34.613281 C 29.282889 35.265251 28.140206 35.739267 26.955078 36.041016 C 25.76995 36.342764 24.541396 36.472885 23.318359 36.435547 C 22.095323 36.398209 20.877709 36.193416 19.710938 35.828125 C 18.544165 35.462834 17.428447 34.936016 16.412109 34.253906 C 15.395772 33.571797 14.478762 32.733887 13.707031 31.746094 C 12.935301 30.7583 12.309904 29.620234 11.876953 28.337891 C 11.444002 27.055547 11.203125 25.630212 11.203125 24.064453 C 11.203125 22.498694 11.434901 21.0835 11.849609 19.816406 C 12.264317 18.549312 12.861641 17.42981 13.597656 16.457031 C 14.333671 15.484252 15.207954 14.657423 16.171875 13.974609 C 17.135796 13.291796 18.190637 12.752666 19.289062 12.355469 C 20.387488 11.958271 21.528439 11.703821 22.667969 11.587891 C 23.237734 11.529925 23.806666 11.50612 24.369141 11.517578 z M 34.173828 17.037109 A 3.0162523 3.0162523 0 0 1 34.175781 17.037109 A 3.0162523 3.0162523 0 0 1 34.240234 17.037109 A 3.0162523 3.0162523 0 0 1 37.255859 20.052734 A 3.0162523 3.0162523 0 0 1 34.240234 23.070312 A 3.0162523 3.0162523 0 0 1 31.222656 20.052734 A 3.0162523 3.0162523 0 0 1 34.173828 17.037109 z " />
      <circle
         style="display:inline;fill:#ffffff;stroke-width:0.340659"
         id="path75-6"
         cx="34.239437"
         cy="20.053106"
         r="1.0275145" />
    </g>
  </g>
</svg>
