<svg xmlns="http://www.w3.org/2000/svg" viewBox="0 0 32 32" height="32" width="32">
    <path d="M16 2.176A13.824 13.824 0 0 0 2.176 16 13.824 13.824 0 0 0 16 29.824a13.824 13.824 0 0 0 6.135-1.455c.795-.3 1.436-.48 1.84-.503 2.32-.168 3.948.948 5.85 1.957-1.01-1.9-2.126-3.528-1.958-5.85.023-.38.188-.972.453-1.7v-.003A13.824 13.824 0 0 0 29.824 16 13.824 13.824 0 0 0 16 2.176zm0 4.308A9.515 9.515 0 0 1 25.516 16a9.515 9.515 0 0 1-1.036 4.316v.002c-.182.502-.297.91-.312 1.17-.116 1.598.653 2.72 1.348 4.028-1.31-.695-2.43-1.464-4.028-1.348-.278.016-.718.14-1.265.346A9.515 9.515 0 0 1 16 25.516 9.515 9.515 0 0 1 6.484 16 9.515 9.515 0 0 1 16 6.484z" fill="#fff"/>
</svg>
