<svg xmlns="http://www.w3.org/2000/svg" viewBox="0 0 32 32" height="32" width="32">
    <path d="M2.88 5.34v21.32c0 1.64.82 2.46 2.46 2.46h21.32c1.64 0 2.46-.82 2.46-2.46V5.34c0-1.64-.82-2.46-2.46-2.46H5.34c-1.64 0-2.46.82-2.46 2.46zm11.906-.008a3.178 3.178 0 0 1 2.487 1.28c.4.54.493 1.14.553 1.696.06.556.055 1.083.06 1.394.017.73-.09 1.014-.196 1.51-.123.59-.312 1.214-.585 2.016a44.47 44.47 0 0 1-.336.942c.102.138.194.28.303.415a36.812 36.812 0 0 0 2.583 2.88c1.33-.263 2.402-.438 3.32-.318.64.082 1.11.143 1.542.263.432.12.83.32 1.172.598.67.545 1.05 1.34.967 2.1-.03.28-.1.64-.315.942-.214.3-.468.484-.808.727l-.26.125c-.743.205-1.29.184-2.052.11l-.185-.04c-.623-.21-.955-.407-1.72-.803l-.14-.097a33.645 33.645 0 0 1-2.033-1.825c-.83.156-1.6.342-2.73.587-1.13.244-1.97.388-2.707.545-.327.618-.677 1.062-1.11 1.722-.312.48-.744 1.028-1.132 1.517a30.72 30.72 0 0 0-.798 1.042h-.008c-.15.167-.465.54-.813.913-.182.194-.37.385-.565.554-.193.17-.356.33-.7.443l-.047.014c-1.218.32-2.264-.38-2.797-1.126l-.002-.01a2.173 2.173 0 0 1-.39-.945c-.045-.354.004-.687.086-1.055.228-1.026 1.022-1.654 1.862-2.274.79-.586.934-.714 2.283-1.344.812-.38 1.696-.69 2.98-1 .015-.03.024-.05.042-.08.57-1.02 1.435-2.41 1.887-3.365.16-.336.28-.648.408-.963-1.34-1.84-2.403-3.746-2.654-5.564v-.02c-.084-.758-.065-1.285.09-1.74.16-.457.434-.73.59-.92a2.412 2.412 0 0 1 1.86-.847zm-.334 1.628c-.017 0-.03 0-.043.008-.05.023-.08.09-.226.26-.21.253-.263.302-.3.408-.036.104-.08.38-.01 1.004.152 1.08.817 2.458 1.726 3.875.22-.658.386-1.2.48-1.646.13-.598.174-.54.165-1.14-.005-.355-.004-.82-.05-1.25-.046-.43-.174-.805-.24-.896-.275-.37-.905-.607-1.204-.615-.164 0-.244-.017-.295-.01zM16 16s-1.243 1.783-1.64 2.46c1.148-.19 1.804-.35 3.28-.82zm6.453 2.76c-.34 0-.773.06-1.283.143.346.31.68.6.988.853.654.34.914.483 1.333.63.56.055.81.057 1.218-.043.143-.113.3-.24.3-.242.005 0 0 .05.025-.16.025-.23.015-.335-.372-.65a1.293 1.293 0 0 0-.572-.29c-.63-.15-1.066-.18-1.627-.234zM11.08 20.92s-1.177.566-1.64.82c-.463.254-.375.17-1.168.758-.793.587-1.136.957-1.235 1.312-.098.354.005.638.23.923.225.285.517.32.77.262.25-.055.375-.278.614-.537.24-.258.637-.716.84-.943h.01c.2-.277.4-.547.687-.908.445-.564.898-1.687.898-1.687z" fill="#fff"/>
</svg>
