<?xml version="1.0" encoding="UTF-8" standalone="no"?>
<svg
   xmlns:dc="http://purl.org/dc/elements/1.1/"
   xmlns:cc="http://creativecommons.org/ns#"
   xmlns:rdf="http://www.w3.org/1999/02/22-rdf-syntax-ns#"
   xmlns:svg="http://www.w3.org/2000/svg"
   xmlns="http://www.w3.org/2000/svg"
   xmlns:sodipodi="http://sodipodi.sourceforge.net/DTD/sodipodi-0.dtd"
   xmlns:inkscape="http://www.inkscape.org/namespaces/inkscape"
   viewBox="0 0 32 32"
   height="32"
   width="32"
   version="1.1"
   id="svg4579"
   sodipodi:docname="acrobat.svg"
   inkscape:version="0.92.1 r">
  <metadata
     id="metadata4585">
    <rdf:RDF>
      <cc:Work
         rdf:about="">
        <dc:format>image/svg+xml</dc:format>
        <dc:type
           rdf:resource="http://purl.org/dc/dcmitype/StillImage" />
        <dc:title></dc:title>
      </cc:Work>
    </rdf:RDF>
  </metadata>
  <defs
     id="defs4583" />
  <sodipodi:namedview
     pagecolor="#ffffff"
     bordercolor="#666666"
     borderopacity="1"
     objecttolerance="10"
     gridtolerance="10"
     guidetolerance="10"
     inkscape:pageopacity="0"
     inkscape:pageshadow="2"
     inkscape:window-width="640"
     inkscape:window-height="480"
     id="namedview4581"
     showgrid="false"
     inkscape:pagecheckerboard="true"
     inkscape:showpageshadow="false"
     inkscape:zoom="22.627417"
     inkscape:cx="19.322068"
     inkscape:cy="16.11415"
     inkscape:current-layer="svg4579" />
  <path
     d="m 2.88,5.34 v 21.32 c 0,1.64 0.82,2.46 2.46,2.46 h 21.32 c 1.64,0 2.46,-0.82 2.46,-2.46 V 5.34 C 29.12,3.7 28.3,2.88 26.66,2.88 H 5.34 C 3.7,2.88 2.88,3.7 2.88,5.34 Z M 14.786,5.332 c 0.982289,0.019301 1.900423,0.4918431 2.487,1.28 0.4,0.54 0.493,1.14 0.553,1.696 0.134901,0.9712868 0.02947,2.089307 -0.136,2.904 -0.123,0.59 -0.312,1.214 -0.585,2.016 -0.108465,0.31525 -0.220473,0.629269 -0.336,0.942 0.951963,1.132862 2.017877,2.357756 2.995375,3.38875 2.198098,-0.157952 4.334272,-0.426399 5.784,0.496125 0.67,0.545 1.190625,1.293125 1.107625,2.053125 -0.09855,0.792461 -0.51817,1.385477 -1.123,1.669 -0.973338,0.364382 -1.70639,0.32724 -2.497,0.10125 -1.596096,-0.564936 -2.829662,-1.598932 -3.893,-2.63125 -0.83,0.156 -1.63125,0.302545 -2.76125,0.508875 -1.245454,0.20399 -1.895781,0.313781 -2.652312,0.45125 -0.774286,1.264105 -1.406343,2.404213 -2.166001,3.543458 -0.958876,1.381775 -2.1401406,2.370335 -3.0525341,2.700834 C 7.3591942,26.793515 6.269,26.204 5.736,25.458 l -0.002,-0.01 c -0.4733764,-0.656038 -0.5497751,-1.138732 -0.304,-2 0.8174871,-1.942688 2.9042352,-3.036228 4.145,-3.618 0.812,-0.38 1.696,-0.69 2.98,-1 0.865294,-1.551596 1.558112,-2.843049 2.337,-4.408 -1.34,-1.84 -2.403,-3.746 -2.654,-5.564 -0.08653,-0.6668785 -0.06355,-1.2431095 0.09,-1.76 0.411702,-1.0905827 1.386633,-1.7171394 2.458,-1.766 z M 13.873,8.64 c 0.152,1.08 0.794903,2.546388 1.792291,3.919194 C 16.109529,11.123341 16.304993,9.7428311 16.194,8.479 16.060967,7.5309981 15.465684,6.8496528 14.75,6.968 13.848798,7.1353785 13.764146,7.8655306 13.873,8.64 Z m 2.093854,7.050641 c 0,0 -1.138038,2.059213 -1.535038,2.736213 1.382375,-0.268125 2.060309,-0.363729 3.458184,-0.583729 z M 20.95125,18.9655 c 0.807922,0.765523 1.6928,1.272253 2.53975,1.51425 0.646331,0.154084 1.449591,-0.05433 1.543,-0.53875 0.07653,-0.51329 -0.384551,-0.798451 -0.944,-0.94 -0.877137,-0.204289 -2.242433,-0.157955 -3.13875,-0.0355 z m -9.18624,1.700384 c 0,0 -1.86201,0.820116 -2.32501,1.074116 -0.463,0.254 -0.640165,0.379922 -1.168,0.758 -1.0288736,0.733184 -1.6592589,1.649609 -1.005,2.235 0.9067481,0.759203 2.2982805,-0.945031 3.053582,-1.960272 0.449779,-0.634679 0.848164,-1.30189 1.444428,-2.106844 z"
     id="path4577"
     inkscape:connector-curvature="0"
     style="fill:#ffffff"
     sodipodi:nodetypes="sssssssssccccccccccccccccccccccccccccccccccccccccscccc" />
</svg>
