<?xml version="1.0" encoding="UTF-8"?>
<svg data-name="Layer 1" viewBox="0 0 48 48" xmlns="http://www.w3.org/2000/svg">
    <defs>
        <style>.cls-1{fill:#fff;}</style>
    </defs>
    <circle class="cls-1" cx="24" cy="24" r="3.25"/>
    <path class="cls-1" d="M24,2A22,22,0,1,0,46,24,22,22,0,0,0,24,2ZM36.9,25.64H35.28v10a1.23,1.23,0,0,1-1.23,1.23H28.49a1.23,1.23,0,0,1-1.24-1.23V32a3.25,3.25,0,1,0-6.5,0v3.67a1.23,1.23,0,0,1-1.24,1.23H14a1.23,1.23,0,0,1-1.23-1.23v-10H11.1a1.86,1.86,0,0,1-1.2-3.27L22.53,11.62a2.25,2.25,0,0,1,2.94,0L38.1,22.37A1.86,1.86,0,0,1,36.9,25.64Z"/>
</svg>
