<?xml version="1.0" encoding="UTF-8"?>
<svg viewBox="0 0 48 48" xmlns="http://www.w3.org/2000/svg">
    <defs>
        <style>.cls-1{fill:#fff;}</style>
    </defs>
    <path class="cls-1" d="m14.504 2c-1.9703 0-3.5668 1.5966-3.5668 3.5668v9.0714c0.0018 0.95832 0.38535 1.876 1.0684 2.5482l6.8981 6.7953-6.8981 6.7621c-0.68304 0.67219-1.0667 1.5899-1.0684 2.5482v9.1378c0 1.9703 1.5966 3.5702 3.5668 3.5702h18.992c1.9703 0 3.5668-1.5999 3.5668-3.5702v-9.1046c-0.0018-0.95832-0.38535-1.876-1.0684-2.5482l-6.8981-6.7953 6.8981-6.7621c0.68304-0.67219 1.0667-1.5899 1.0684-2.5482v-9.1046c0-1.9703-1.5966-3.5668-3.5668-3.5668zm3.5669 7.1337h11.859v4.0446l-5.9293 5.8098-5.9293-5.8098zm5.9293 19.842 5.9293 5.8098v4.0446h-11.859v-4.0446z"/>
</svg>
