<?xml version="1.0" encoding="UTF-8"?>
<svg viewBox="0 0 48 48" xmlns="http://www.w3.org/2000/svg">
    <defs>
        <style>.cls-1{fill:#fff;}</style>
    </defs>
    <path class="cls-1" d="m24 4.7404c-0.78135 0-1.5637 0.26925-2.1935 0.81274l-18.836 16.08c-1.9434 1.6718-0.77483 4.8585 1.7886 4.8764h2.4907v14.915c0 1.0132 0.82204 1.8352 1.8352 1.8352h8.2177c1.019 0.0083 1.8498-0.81619 1.8498-1.8352v-5.4736c0-6.4631 9.6946-6.4631 9.6946 0v5.4299c-3.4e-5 1.019 0.83079 1.8407 1.8498 1.8323h8.2934c1.0132 0 1.8323-0.81913 1.8323-1.8323v-14.915h2.4178c2.5634-0.01792 3.732-3.2076 1.7886-4.8794l-18.836-16.033c-0.62978-0.54349-1.4122-0.81274-2.1935-0.81274zm0 14.431a4.8473 4.8473 0 0 1 4.8473 4.8473 4.8473 4.8473 0 0 1-4.8473 4.8473 4.8473 4.8473 0 0 1-4.8473-4.8473 4.8473 4.8473 0 0 1 4.8473-4.8473z"/>
</svg>
