<?xml version="1.0" encoding="UTF-8"?>
<svg data-name="Layer 1" viewBox="0 0 48 48" xmlns="http://www.w3.org/2000/svg">
    <defs>
        <style>.cls-1{fill:#fff;}</style>
    </defs>
    <polygon class="cls-1" points="20.51 30.36 20.51 32.74 27.49 32.74 27.49 30.36 24 26.94"/>
    <polygon class="cls-1" points="20.51 17.64 24 21.06 27.49 17.64 27.49 15.26 20.51 15.26"/>
    <path class="cls-1" d="M24,2A22,22,0,1,0,46,24,22,22,0,0,0,24,2Zm7.69,16.52a2.11,2.11,0,0,1-.63,1.5L27,24l4.06,4a2.11,2.11,0,0,1,.63,1.5v5.36a2.1,2.1,0,0,1-2.1,2.1H18.41a2.1,2.1,0,0,1-2.1-2.1V29.48a2.11,2.11,0,0,1,.63-1.5L21,24l-4.06-4a2.11,2.11,0,0,1-.63-1.5V13.16a2.1,2.1,0,0,1,2.1-2.1H29.59a2.1,2.1,0,0,1,2.1,2.1Z"/>
</svg>
