<?xml version="1.0" encoding="UTF-8"?>
<svg version="1.1" viewBox="0 0 48 48" xmlns="http://www.w3.org/2000/svg">
    <path d="m24 2a22 22 0 0 0-22 22 22 22 0 0 0 22 22 22 22 0 0 0 22-22 22 22 0 0 0-22-22zm2.084 12.812h1.6426v14.188h-1.3242l-0.24414-1.3438h-0.074219c-0.29867 0.42311-0.69753 0.78336-1.1953 1.082-0.49778 0.29867-1.1379 0.44922-1.9219 0.44922-1.2444 0-2.2397-0.4304-2.9863-1.2891-0.74667-0.87111-1.1211-2.1655-1.1211-3.8828s0.37443-3.0117 1.1211-3.8828c0.75911-0.88356 1.7614-1.3242 3.0059-1.3242 0.77156 0 1.3994 0.14346 1.8848 0.42969 0.49778 0.28622 0.90178 0.63426 1.2129 1.0449h0.11133c-0.024888-0.16178-0.049329-0.39787-0.074218-0.70898-0.024889-0.32356-0.03711-0.57896-0.03711-0.76562v-3.9961zm4.8203 0h1.6426v3.4551c0 0.42311-0.01222 0.82003-0.037109 1.1934-0.012445 0.36089-0.031752 0.64782-0.056641 0.85937h0.09375c0.28622-0.42311 0.678-0.77823 1.1758-1.0645 0.49778-0.28622 1.1398-0.42969 1.9238-0.42969 1.2444 0 2.2397 0.43553 2.9863 1.3066 0.75911 0.85867 1.1387 2.1479 1.1387 3.8652s-0.37956 3.0117-1.1387 3.8828c-0.75911 0.87111-1.7543 1.3066-2.9863 1.3066-0.784 0-1.426-0.14346-1.9238-0.42969-0.49778-0.28622-0.88956-0.62912-1.1758-1.0273h-0.13086l-0.33594 1.2695h-1.1758v-14.188zm-18.158 4.0137c1.2196 0 2.1221 0.26762 2.707 0.80273s0.87695 1.3888 0.87695 2.5586v6.8125h-1.1953l-0.31641-1.418h-0.074218c-0.43556 0.54756-0.89748 0.95156-1.3828 1.2129s-1.1447 0.39258-1.9785 0.39258c-0.90844 0-1.6605-0.23805-2.2578-0.71094-0.59733-0.48533-0.89648-1.2374-0.89648-2.2578 0-0.99556 0.39178-1.7618 1.1758-2.2969 0.784-0.54756 1.9909-0.84475 3.6211-0.89453l1.6992-0.056641v-0.59766c0-0.83378-0.18013-1.4128-0.54102-1.7363-0.36089-0.32356-0.8717-0.48438-1.5312-0.48438-0.52267 0-1.0193 0.080409-1.4922 0.24219-0.47289 0.14933-0.9155 0.32433-1.3262 0.52344l-0.50391-1.2324c0.43556-0.23644 0.95149-0.43588 1.5488-0.59766 0.59733-0.17422 1.2201-0.26172 1.8672-0.26172zm10.463 1.3438c-0.88356 0-1.5481 0.35512-1.9961 1.0645-0.43556 0.69689-0.6543 1.6361-0.6543 2.8184 0 1.1947 0.21874 2.1217 0.6543 2.7812 0.448 0.65956 1.1196 0.99024 2.0156 0.99024 1.0578 0 1.7976-0.28693 2.2207-0.85938 0.43556-0.58489 0.6543-1.4611 0.6543-2.6309v-0.29883c0-1.2444-0.20652-2.1979-0.61719-2.8574-0.41067-0.672-1.1698-1.0078-2.2773-1.0078zm12.156 0.019531c-1.0702 0-1.81 0.30428-2.2207 0.91406-0.39822 0.60978-0.59766 1.5561-0.59766 2.8379v0.074219c0 1.232 0.19943 2.1783 0.59766 2.8379 0.41067 0.64711 1.1627 0.9707 2.2578 0.9707 0.896 0 1.5625-0.33068 1.998-0.99024 0.448-0.65956 0.67188-1.611 0.67188-2.8555 0-2.5262-0.90259-3.7891-2.707-3.7891zm-20.66 3.9199-1.4746 0.056641c-1.2444 0.049777-2.1084 0.24726-2.5938 0.5957-0.47289 0.34844-0.70898 0.8419-0.70898 1.4766 0 0.56 0.16791 0.96914 0.50391 1.2305 0.34844 0.26133 0.78911 0.39258 1.3242 0.39258 0.83378 0 1.5318-0.23096 2.0918-0.69141 0.57244-0.47289 0.85742-1.1934 0.85742-2.1641v-0.89648z" fill="#fff"/>
</svg>
