<?xml version="1.0" encoding="UTF-8"?>
<svg data-name="Layer 1" viewBox="0 0 48 48" xmlns="http://www.w3.org/2000/svg">
    <defs>
        <style>.cls-1{fill:#fff;}</style>
    </defs>
    <path class="cls-1" d="M24,2A22,22,0,1,0,46,24,22,22,0,0,0,24,2ZM38.5,36.13a2.37,2.37,0,0,1-2.37,2.37H11.87A2.37,2.37,0,0,1,9.5,36.13V11.87A2.37,2.37,0,0,1,11.87,9.5H36.13a2.37,2.37,0,0,1,2.37,2.37Z"/>
    <path class="cls-1" d="M30.24,23a1.53,1.53,0,0,0-1.35.74,3.87,3.87,0,0,0-.49,2.15A3.76,3.76,0,0,0,28.89,28a1.6,1.6,0,0,0,1.39.71,1.79,1.79,0,0,0,1.47-.58,3.42,3.42,0,0,0,.51-2v-.28a3.83,3.83,0,0,0-.48-2.2A1.74,1.74,0,0,0,30.24,23Z"/>
    <path class="cls-1" d="M36.13,10.5H11.87a1.37,1.37,0,0,0-1.37,1.37V36.13a1.37,1.37,0,0,0,1.37,1.37H36.13a1.37,1.37,0,0,0,1.37-1.37V11.87A1.37,1.37,0,0,0,36.13,10.5ZM22,30.56l-2.9-4.72-2.91,4.72H13.31l4.14-6.44-3.88-6.05h2.92l2.7,4.49,2.64-4.49h2.85l-3.92,6.19L25,30.56Zm12.74,0h-2l-.5-1.24h-.11a3,3,0,0,1-2.71,1.41,3.09,3.09,0,0,1-2.64-1.3,6,6,0,0,1-1-3.63,6.05,6.05,0,0,1,1-3.66,3.2,3.2,0,0,1,2.7-1.31,3.12,3.12,0,0,1,2.75,1.4h.08a10.69,10.69,0,0,1-.19-1.9V17.27h2.61Z"/>
</svg>
