<?xml version="1.0" encoding="UTF-8"?>
<svg version="1.1" viewBox="0 0 48 48">
  <path fill="#fff" d="M 23.093397,45.460389 C 18.582748,45.221779 14.523416,43.754341 10.998342,41.088058 7.7805265,38.654179 5.2072994,35.168648 3.8355878,31.385845 1.9464435,26.176105 2.113969,20.480845 4.3046911,15.438032 5.8512305,11.87806 8.4257738,8.7195503 11.637913,6.4414643 16.377133,3.0803545 22.45808,1.7939313 28.197325,2.9383232 c 9.02591,1.7997449 15.92655,9.1902008 17.09882,18.3125168 0.266628,2.07483 0.229172,4.098926 -0.115436,6.238135 -0.873024,5.419421 -3.843492,10.32423 -8.286545,13.682666 -3.042487,2.299769 -6.75211,3.761061 -10.596634,4.174218 -0.813558,0.08743 -2.545882,0.149351 -3.204133,0.11453 z M 11.705761,35.924995 c 0.531389,-0.237213 1.130179,-1.204647 5.818159,-9.400096 3.719435,-6.502255 4.361704,-7.596701 4.992012,-8.506548 0.719331,-1.03835 0.952567,-1.219271 1.57183,-1.219271 0.472622,0 0.662611,0.111851 1.086983,0.639934 0.75805,0.943306 1.636966,2.416308 5.489081,9.199306 2.169304,3.819821 3.351372,5.871089 4.360025,7.566046 0.756566,1.271346 0.887717,1.460453 1.112047,1.603464 0.356984,0.227577 0.635561,0.288557 1.196373,0.261886 0.64091,-0.03048 0.98042,-0.194118 1.483147,-0.714854 0.553338,-0.573157 0.600017,-0.858315 0.285021,-1.741173 -0.418031,-1.171644 -1.239572,-2.678288 -6.35466,-11.65397 C 26.372102,10.775532 25.528152,9.4024168 24.80109,9.0336211 24.503195,8.8825171 23.724524,8.8236143 23.507626,8.9357766 22.851679,9.2749797 22.139583,10.448716 14.163407,24.337693 c -4.8581163,8.459474 -5.2467459,9.185171 -5.2473153,9.798439 -7.088e-4,0.765686 0.5800785,1.578095 1.3156863,1.840383 0.398778,0.142188 1.094528,0.117869 1.473983,-0.05152 z m 8.909305,-0.03482 c 0.422849,-0.20688 0.806493,-0.588565 0.99308,-0.988011 0.131243,-0.280964 0.150719,-0.392746 0.145445,-0.834796 -0.0076,-0.633214 -0.153261,-1.098436 -0.509299,-1.626131 -0.365146,-0.541193 -0.784507,-0.865862 -1.375595,-1.064985 -1.132351,-0.381462 -2.204546,0.307565 -2.394482,1.538768 -0.07996,0.518314 0.0491,1.19241 0.340047,1.776162 0.267038,0.535777 0.488799,0.816194 0.83244,1.052626 0.403225,0.277425 0.620954,0.337208 1.162081,0.319072 0.394767,-0.01323 0.546962,-0.04583 0.806283,-0.172705 z m 8.728833,0.0067 c 0.849294,-0.389195 1.364077,-1.29862 1.194019,-2.109376 -0.176376,-0.840879 -2.863454,-5.625609 -4.811136,-8.566921 -0.85017,-1.283895 -0.973303,-1.421958 -1.371407,-1.53769 -0.905924,-0.263359 -1.874445,0.158215 -2.323087,1.011183 -0.141036,0.268139 -0.157358,0.356344 -0.155148,0.838414 0.0023,0.505461 0.01733,0.57322 0.242955,1.096682 1.072577,2.488417 3.937937,7.450922 5.136988,8.89673 0.386604,0.466166 0.620782,0.562154 1.30886,0.536497 0.34361,-0.01281 0.532357,-0.05297 0.777956,-0.165519 z" />
</svg>
