<?xml version="1.0" encoding="UTF-8"?>
<svg version="1.1" viewBox="0 0 48 48" xmlns="http://www.w3.org/2000/svg">
  <g style="display:inline">
    <circle style="fill:#ffffff" cx="24" cy="24" r="22" id="circle2" />
  </g>
  <g style="display:inline">
    <path
       style="fill:#000000;stroke-width:0.16666667"
       d="M 9.9604285,35.739102 C 9.4174183,35.444468 9,34.702962 9,34.032985 9,33.712528 9.917078,31.952938 11.718837,28.816375 24.025032,7.3933388 23.014947,9.001246 24.166667,9.001246 c 1.052256,0 1.150058,0.1492957 8.208333,12.530107 7.627385,13.379077 7.356282,12.770699 6.204193,13.922787 -0.665131,0.665132 -1.913268,0.731847 -2.570146,0.13738 -0.176502,-0.15973 -2.554712,-4.239417 -5.284912,-9.06597 -5.150237,-9.104783 -5.651172,-9.858883 -6.549078,-9.858883 -1.15989,0 -1.15626,-0.0053 -6.663969,9.661453 -4.039872,7.090482 -5.344454,9.249523 -5.700056,9.433413 -0.584851,0.302437 -1.267112,0.294169 -1.8506035,-0.02243 z m 8.8394165,-0.01745 c -1.027357,-0.659405 -1.563072,-2.395845 -1.047023,-3.393772 1.02636,-1.984765 3.913845,-0.644216 3.913845,1.817047 0,1.409562 -1.68414,2.335823 -2.866822,1.576725 z M 27.75,35.84244 c -0.866107,-0.35449 -5.805137,-9.012785 -5.822183,-10.206497 -0.0202,-1.414348 1.400511,-2.351311 2.656853,-1.752205 0.597613,0.284984 5.628853,8.795957 5.845642,9.888635 0.28368,1.42985 -1.284814,2.641234 -2.680312,2.070067 z"/>
  </g>
</svg>
