<?xml version="1.0" encoding="UTF-8"?>
<svg version="1.1" viewBox="0 0 48 48" xmlns="http://www.w3.org/2000/svg">
    <path d="m23.093 45.46c-4.5106-0.23861-8.57-1.706-12.095-4.3723-3.2178-2.4339-5.791-5.9194-7.1628-9.7022-1.8891-5.2097-1.7216-10.905 0.4691-15.948 1.5465-3.56 4.1211-6.7185 7.3332-8.9966 4.7392-3.3611 10.82-4.6475 16.559-3.5031 9.0259 1.7997 15.927 9.1902 17.099 18.313 0.26663 2.0748 0.22917 4.0989-0.11544 6.2381-0.87302 5.4194-3.8435 10.324-8.2865 13.683-3.0425 2.2998-6.7521 3.7611-10.597 4.1742-0.81356 0.08743-2.5459 0.14935-3.2041 0.11453zm-11.388-9.5354c0.53139-0.23721 1.1302-1.2046 5.8182-9.4001 3.7194-6.5023 4.3617-7.5967 4.992-8.5065 0.71933-1.0384 0.95257-1.2193 1.5718-1.2193 0.47262 0 0.66261 0.11185 1.087 0.63993 0.75805 0.94331 1.637 2.4163 5.4891 9.1993 2.1693 3.8198 3.3514 5.8711 4.36 7.566 0.75657 1.2713 0.88772 1.4605 1.112 1.6035 0.35698 0.22758 0.63556 0.28856 1.1964 0.26189 0.64091-0.03048 0.98042-0.19412 1.4831-0.71485 0.55334-0.57316 0.60002-0.85832 0.28502-1.7412-0.41803-1.1716-1.2396-2.6783-6.3547-11.654-6.3737-11.184-7.2176-12.557-7.9447-12.926-0.2979-0.1511-1.0766-0.21001-1.2935-0.097844-0.65595 0.3392-1.368 1.5129-9.3442 15.402-4.8581 8.4595-5.2467 9.1852-5.2473 9.7984-7.088e-4 0.76569 0.58008 1.5781 1.3157 1.8404 0.39878 0.14219 1.0945 0.11787 1.474-0.05152zm8.9093-0.03482c0.42285-0.20688 0.80649-0.58856 0.99308-0.98801 0.13124-0.28096 0.15072-0.39275 0.14544-0.8348-0.0076-0.63321-0.15326-1.0984-0.5093-1.6261-0.36515-0.54119-0.78451-0.86586-1.3756-1.065-1.1324-0.38146-2.2045 0.30756-2.3945 1.5388-0.07996 0.51831 0.0491 1.1924 0.34005 1.7762 0.26704 0.53578 0.4888 0.81619 0.83244 1.0526 0.40322 0.27742 0.62095 0.33721 1.1621 0.31907 0.39477-0.01323 0.54696-0.04583 0.80628-0.1727zm8.7288 0.0067c0.84929-0.3892 1.3641-1.2986 1.194-2.1094-0.17638-0.84088-2.8635-5.6256-4.8111-8.5669-0.85017-1.2839-0.9733-1.422-1.3714-1.5377-0.90592-0.26336-1.8744 0.15822-2.3231 1.0112-0.14104 0.26814-0.15736 0.35634-0.15515 0.83841 0.0023 0.50546 0.01733 0.57322 0.24296 1.0967 1.0726 2.4884 3.9379 7.4509 5.137 8.8967 0.3866 0.46617 0.62078 0.56215 1.3089 0.5365 0.34361-0.01281 0.53236-0.05297 0.77796-0.16552z" fill="#fff"/>
</svg>
