<svg xmlns="http://www.w3.org/2000/svg" viewBox="0 0 32 32" height="32" width="32">
    <path d="M16 2.073a13.927 13.927 0 0 0 0 27.854 13.927 13.927 0 0 0 0-27.854zm.77 2.218A11.318 11.318 0 0 1 28.09 15.62a11.318 11.318 0 0 1-11.32 11.317 11.318 11.318 0 0 1-11.316-11.32A11.318 11.318 0 0 1 16.77 4.3z" fill="#fff"/>
    <path d="M17.493 5.795a8.813 8.813 0 0 0-8.8 8.814 8.813 8.813 0 0 0 8.8 8.81 8.813 8.813 0 0 0 8.824-8.813 8.813 8.813 0 0 0-8.824-8.815zm-.7 2.84h1.43v6.184h-1.43z" fill="#fff"/>
</svg>
