<?xml version="1.0" encoding="UTF-8"?>
<svg version="1.1" viewBox="0 0 48 48" xmlns="http://www.w3.org/2000/svg">
    <path d="M24 2A22 22 0 002 24a22 22 0 0022 22 22 22 0 0022-22A22 22 0 0024 2zm-9.783 11.135h1.353l2.942 8.531H17.04l-.648-1.992h-3.026l-.656 1.992h-1.469l2.975-8.531zm5.351 0h1.424v7.394h3.996v1.137h-5.42v-8.531zm6.631 0h2.82c1.083 0 1.96.338 2.635 1.013.68.676 1.022 1.545 1.022 2.608v1.295c0 1.066-.342 1.935-1.022 2.607-.675.672-1.552 1.008-2.634 1.008H26.2v-8.531zm8.156 0h1.424v8.531h-1.424v-8.531zm-6.732 1.142v6.252h1.397c.683 0 1.226-.23 1.628-.691.403-.465.604-1.06.604-1.787v-1.307c0-.719-.201-1.308-.604-1.77-.402-.464-.945-.697-1.628-.697h-1.397zm-12.75.844l-1.113 3.363h2.246l-1.096-3.363h-.037zM9.965 26.334h6.654v1.143h-2.637v7.388H12.56v-7.388H9.965v-1.143zm9.387 0h1.353l2.941 8.531h-1.47l-.653-1.992h-3.021l-.656 1.992h-1.473l2.979-8.531zm5.347 0h1.424v7.395h3.996v1.136H24.7v-8.531zm6.635 0h1.424v3.615h.556l2.772-3.615h1.67l.017.03-3.199 4.007 3.463 4.494h-1.799l-2.783-3.691h-.697v3.691h-1.424v-8.531zM20.006 28.32l-1.111 3.364h2.242L20.04 28.32h-.035z" fill="#fff"/>
</svg>
