<?xml version="1.0" encoding="UTF-8"?>
<svg viewBox="0 0 48 48" xmlns="http://www.w3.org/2000/svg">
    <path d="m3.7304 3.6428s-3.6705-0.014365-3.6705 3.6614v37.236s0.19282 3.3996 3.757 3.3996h40.577s3.5466-0.02874 3.5466-3.8251v-36.998s-0.01403-3.4743-4.0446-3.4743zm6.0505 11.536s1.0427-0.01916 1.7885 0.74579c0.74579 0.76459 0.74579 1.6204 0.74579 1.6204s0.06547 0.76686-0.29925 1.3794c-0.36471 0.61256-0.5653 0.65146-0.56811 0.69911-0.0028 0.04788 0.06313 0.30622 0.06313 0.30622s0.25249 1.4216 0.80424 2.586c0.55175 1.1644 0.38342 0.90716 0.75748 1.5057 0.37406 0.59855 0.37406 0.65936 0.80424 1.2018 0.43018 0.5424 0.8884 1.0989 1.2578 1.4449 0.36939 0.34608 0.61253 0.61734 1.0567 0.94463 0.4442 0.32729 0.65929 0.50039 0.94919 0.68271 0.2899 0.18244 1.1877 0.71084 1.529 0.86048s0.96789 0.41144 1.3139 0.5284c0.34601 0.11732 0.72008 0.23379 1.0708 0.31328 0.35068 0.079 1.4168 0.26659 1.702 0.28527 0.28522 0.01916 1.0474 0.07063 1.1783 0.07063s0.8884-0.01437 1.4168-0.07902c0.52837-0.06584 1.2905-0.19644 1.6833-0.29928 0.39277-0.10295 1.4963-0.44891 1.9685-0.6687 0.47225-0.21979-0.17768 0.12618 0.47226-0.21979 0.64994-0.34608 1.3653-0.76231 1.716-1.0195 0.35069-0.25714-0.22444 0.19644 0.35069-0.25714 0.57512-0.45358 1.3607-1.1598 1.688-1.5198 0.3273-0.36009 0.68734-0.77153 0.89308-1.0615 0.20574-0.28994 0.50966-0.70138 0.71072-1.0521s0.64059-1.1456 0.851-1.6554c0.21041-0.50972 0.56413-1.5095 0.7154-2.2025l0.14963-0.69432s-0.37406-0.36715-0.51434-0.61495c-0.14028-0.2478-0.35068-0.76686-0.35068-1.1456 0-0.37876 0.0374-0.9493 0.29458-1.3421 0.25717-0.39289 0.25717-0.39756 0.25717-0.39756s0.7528-0.93984 1.9358-0.94451c1.183 0 1.8282 0.73885 1.8282 0.73885s0.7528 0.7902 0.7528 1.6367c0 0.84635-0.11222 1.0193-0.23847 1.2578-0.12625 0.23858-0.43018 0.64536-0.61721 0.79966-0.18703 0.15431-0.46291 0.32729-0.46291 0.32729s-0.22911 1.2112-0.28522 1.3795c-0.05611 0.16831-0.37406 1.2486-0.54239 1.688-0.16833 0.43958-0.67799 1.7115-1.2952 2.6701-0.61721 0.95864-1.183 1.7348-1.6272 2.2166-0.4442 0.48159-1.4916 1.6694-2.7073 2.4597-1.2157 0.7902-1.7815 1.2111-2.9084 1.646-1.1269 0.43479-1.4869 0.57509-2.0574 0.72006-0.57045 0.14497-2.581 0.60789-4.0726 0.5284-1.4916-0.079-2.2257-0.08379-3.4227-0.39744-1.197-0.31328-2.1883-0.61256-3.0206-1.0381-0.8323-0.42545-1.7815-0.91183-2.4782-1.4589-0.6967-0.54719-1.9171-1.4917-2.7026-2.455s-1.5804-2.0294-2.0106-2.8852c-0.43018-0.85569-0.90243-1.8891-1.0427-2.324-0.14027-0.4349-0.37406-1.169-0.48628-1.6834-0.11222-0.51439-0.21275-1.0661-0.21275-1.0661s-0.36004-0.22685-0.46992-0.32741c-0.10989-0.10056-0.037408-0.056265-0.10521-0.10535-0.067798-0.04908-0.47459-0.59616-0.55876-0.83462-0.084162-0.23858-0.19171-0.59388-0.19171-0.89783 0-0.30406 0.074813-0.88849 0.3086-1.2532 0.23379-0.36476 0.5611-0.76219 0.85567-0.92596 0.29458-0.16364 0.7341-0.41611 1.3794-0.41611z" fill="#fff"/>
    <path d="m3.6498 2.4536h40.698s-0.10139-2.3937-2.3934-2.3937h-35.911s-2.275-0.020351-2.3934 2.3937z" fill="#fff"/>
</svg>
