<svg xmlns="http://www.w3.org/2000/svg" width="192" height="192" viewBox="0 0 192 192">
    <path d="M18.418 27.932a9.746 9.746 0 0 0-9.768 9.765v28.21h174.7V53.7a9.742 9.742 0 0 0-9.768-9.763h-43.94c-8.795-.48-15.328-2.353-15.328-2.353s-30.23-7.436-40.826-10.94C65.332 27.944 64 27.93 62.78 27.93H18.418zM8.65 81.87v72.433a9.746 9.746 0 0 0 9.768 9.763h155.164a9.746 9.746 0 0 0 9.768-9.763V81.87H8.65zm130.57 10.163a22.26 22.26 0 0 1 22.26 22.264 22.26 22.26 0 0 1-22.26 22.26 22.26 22.26 0 0 1-12.433-3.817l-20.664 20.664a1.703 1.703 0 0 1-2.412 0l-3.603-3.605a1.7 1.7 0 0 1 0-2.41l20.66-20.656a22.26 22.26 0 0 1-3.81-12.437 22.26 22.26 0 0 1 22.262-22.262v-.002zm-.007 7.37l.006.003a14.89 14.89 0 0 0-14.89 14.89 14.89 14.89 0 0 0 4.207 10.372 14.89 14.89 0 0 0 10.682 4.516 14.89 14.89 0 0 0 14.887-14.89 14.89 14.89 0 0 0-14.894-14.89z" fill="#fff"/>
</svg>
