<?xml version="1.0" encoding="UTF-8"?>
<svg viewBox="0 0 48 48" xmlns="http://www.w3.org/2000/svg">
    <defs>
        <style>.cls-1{fill:#fff;fill-rule:evenodd;}</style>
    </defs>
    <g data-name="Layer 1">
        <path class="cls-1" d="m24 2a22 22 0 1 0 22 22 22 22 0 0 0-22-22zm-7.32 39.12a3 3 0 1 1 3-3 3 3 0 0 1-3 3zm14.78 0a3 3 0 1 1 2.95-3 2.95 2.95 0 0 1-2.95 3zm5.73-23.84-5.29 9.59a2.93 2.93 0 0 1-2.58 1.52h-11l-1.32 2.41-0.05 0.18a0.36 0.36 0 0 0 0.37 0.37h17.09v2.95h-17.73a3 3 0 0 1-2.95-2.95 2.91 2.91 0 0 1 0.36-1.42l2-3.62-5.32-11.22h-3v-2.95h4.84l1.39 2.95h21.89a1.49 1.49 0 0 1 1.48 1.48 1.44 1.44 0 0 1-0.18 0.71z"/>
        <path class="cls-1" d="M26.92,22.85V20.53c0-1,.06-1.88-.66-2.56A3.42,3.42,0,0,0,24,17.23c-1.41,0-3,.53-3.33,2.28a.26.26,0,0,0,.22.31l1.45.16a.33.33,0,0,0,.26-.28,1.13,1.13,0,0,1,1.19-.89,1,1,0,0,1,.84.39,2,2,0,0,1,.18,1.08v.19A10.64,10.64,0,0,0,22,21a2.55,2.55,0,0,0-1.59,2.44,2.11,2.11,0,0,0,2.23,2.31,2.91,2.91,0,0,0,2.45-1.08,3.57,3.57,0,0,0,.86,1,.3.3,0,0,0,.35,0h0l1.14-1a.29.29,0,0,0,0-.4A2,2,0,0,1,26.92,22.85ZM24.83,22a2.94,2.94,0,0,1-.28,1.58,1.21,1.21,0,0,1-1,.68c-.57,0-.9-.44-.9-1.08,0-1.27,1.13-1.5,2.21-1.5Z"/>
    </g>
</svg>
