<?xml version="1.0" encoding="UTF-8"?>
<svg version="1.1" viewBox="0 0 48 48" xmlns="http://www.w3.org/2000/svg">
    <path d="m24 2c-12.15 0-22 9.8497-22 22s9.8497 22 22 22 22-9.8497 22-22-9.8497-22-22-22zm-2.4609 5.7969h4.9219c0.6648 0 1.1992 0.53442 1.1992 1.1992v0.78125c2.2982 0.58935 4.4197 1.7258 6.1836 3.3125l0.86133-0.86133-2.3027-2.2637c0.76438-0.77502 1.8099-1.2076 2.8984-1.1992 0.78032 0.00756 1.5416 0.24165 2.1914 0.67383l0.24609-0.24609c0.1356-0.14035 0.32057-0.22232 0.51562-0.22852 0.68424-0.021547 1.0374 0.80954 0.54688 1.2871l-0.23438 0.23438c1.1108 1.587 0.93438 3.74-0.41992 5.125l-2.373-2.332-0.86914 0.87109c2.4442 2.6989 3.8005 6.2084 3.8066 9.8496-0.0012 3.9495-1.5904 7.7326-4.4102 10.498l1.9609 3.3848c1.0004 1.6815-1.5495 3.1579-2.5098 1.4531l-1.7402-3.002c-2.3846 1.5502-5.1675 2.3758-8.0117 2.377-2.8451-0.0013-5.6287-0.82767-8.0137-2.3789l-1.7383 3.0039c-0.96023 1.7047-3.5101 0.22838-2.5098-1.4531l1.959-3.3867c-2.8185-2.7653-4.407-6.5476-4.4082-10.496 0.0091881-3.6399 1.3676-7.1472 3.8125-9.8438l-0.87695-0.87695-2.3711 2.332c-1.3543-1.385-1.5307-3.538-0.41992-5.125l-0.23438-0.23438c-0.48165-0.46964-0.14928-1.2869 0.52344-1.2871 0.20322 0 0.39775 0.082463 0.53906 0.22852l0.24414 0.24414c0.65053-0.43185 1.4126-0.66528 2.1934-0.67188 1.0885-0.00839 2.1341 0.4242 2.8984 1.1992l-2.3027 2.2637 0.86914 0.86914c1.7595-1.5933 3.8784-2.7372 6.1758-3.334v-0.76758c0-0.6648 0.53442-1.1992 1.1992-1.1992zm2.4609 4.6074c-6.4042-1.93e-4 -11.596 5.1915-11.596 11.596-1.93e-4 6.4042 5.1915 11.596 11.596 11.596 6.4042 1.93e-4 11.596-5.1915 11.596-11.596 1.93e-4 -6.4042-5.1915-11.596-11.596-11.596zm0 1.5801c0.27614 0 0.5 0.22386 0.5 0.5s-0.22386 0.5-0.5 0.5-0.5-0.22386-0.5-0.5 0.22386-0.5 0.5-0.5zm-0.0059 1.6445c0.19759-0.0031 0.35856 0.15788 0.35547 0.35547v6.1797c0.88171 0.16767 1.5197 0.93846 1.5196 1.8359 2.75e-4 1.0324-0.83673 1.8694-1.8691 1.8691-0.3224-2e-5 -0.63931-0.08345-0.91992-0.24219l-5.0703 5.0703c-0.47126 0.49077-1.1978-0.23578-0.70703-0.70703l5.0723-5.0723c-0.15909-0.27985-0.24319-0.59606-0.24414-0.91797 8.44e-4 -0.89674 0.63858-1.6664 1.5195-1.834v-6.1816c-3e-3 -0.193 0.15076-0.35203 0.34375-0.35547zm0.0059 17.371c0.27614 0 0.5 0.22386 0.5 0.5s-0.22386 0.5-0.5 0.5-0.5-0.22386-0.5-0.5 0.22386-0.5 0.5-0.5z" fill="#fff"/>
</svg>
