<?xml version="1.0" encoding="UTF-8" standalone="no"?>
<svg xmlns="http://www.w3.org/2000/svg" viewBox="0 0 48 48" version="1.1">
  <path
     style="fill:#ffffff"
     d="M 24 2 A 22 22 0 0 0 2 24 A 22 22 0 0 0 24 46 A 22 22 0 0 0 46 24 A 22 22 0 0 0 24 2 z M 21.539062 7.796875 L 26.460938 7.796875 C 27.125737 7.796875 27.660156 8.3312936 27.660156 8.9960938 L 27.660156 9.7773438 A 14.710293 14.710293 0 0 1 33.84375 13.089844 L 34.705078 12.228516 L 32.402344 9.9648438 A 4.0273438 4.0273438 0 0 1 35.300781 8.765625 A 4.0273438 4.0273438 0 0 1 37.492188 9.4394531 L 38.324219 8.6074219 A 0.750075 0.750075 0 0 1 38.839844 8.3789062 A 0.750075 0.750075 0 0 1 39.386719 9.6660156 L 38.566406 10.486328 A 4.0273438 4.0273438 0 0 1 38.146484 15.611328 L 35.773438 13.279297 L 34.904297 14.150391 A 14.710293 14.710293 0 0 1 38.710938 24 A 14.710293 14.710293 0 0 1 34.300781 34.498047 L 36.261719 37.882812 A 1.450145 1.450145 0 1 1 33.751953 39.335938 L 32.011719 36.333984 A 14.710293 14.710293 0 0 1 24 38.710938 A 14.710293 14.710293 0 0 1 15.986328 36.332031 L 14.248047 39.335938 A 1.450145 1.450145 0 1 1 11.738281 37.882812 L 13.697266 34.496094 A 14.710293 14.710293 0 0 1 9.2890625 24 A 14.710293 14.710293 0 0 1 13.101562 14.15625 L 12.224609 13.279297 L 9.8535156 15.611328 A 4.0273438 4.0273438 0 0 1 9.4335938 10.486328 L 8.6132812 9.6660156 A 0.750075 0.750075 0 0 1 9.1367188 8.3789062 A 0.750075 0.750075 0 0 1 9.6757812 8.6074219 L 10.505859 9.4375 A 4.0273438 4.0273438 0 0 1 12.699219 8.765625 A 4.0273438 4.0273438 0 0 1 15.597656 9.9648438 L 13.294922 12.228516 L 14.164062 13.097656 A 14.710293 14.710293 0 0 1 20.339844 9.7636719 L 20.339844 8.9960938 C 20.339844 8.331293 20.874263 7.796875 21.539062 7.796875 z M 24 12.404297 A 11.595353 11.595353 0 0 0 12.404297 24 A 11.595353 11.595353 0 0 0 24 35.595703 A 11.595353 11.595353 0 0 0 35.595703 24 A 11.595353 11.595353 0 0 0 24 12.404297 z M 24 13.984375 A 0.5 0.5 0 0 1 24.5 14.484375 A 0.5 0.5 0 0 1 24 14.984375 A 0.5 0.5 0 0 1 23.5 14.484375 A 0.5 0.5 0 0 1 24 13.984375 z M 23.994141 15.628906 A 0.35003499 0.35003499 0 0 1 24.349609 15.984375 L 24.349609 22.164062 A 1.868644 1.868644 0 0 1 25.869141 24 A 1.868644 1.868644 0 0 1 24 25.869141 A 1.868644 1.868644 0 0 1 23.080078 25.626953 L 18.009766 30.697266 A 0.50005 0.50005 0 1 1 17.302734 29.990234 L 22.375 24.917969 A 1.868644 1.868644 0 0 1 22.130859 24 A 1.868644 1.868644 0 0 1 23.650391 22.166016 L 23.650391 15.984375 A 0.35003499 0.35003499 0 0 1 23.994141 15.628906 z M 24 33 A 0.5 0.5 0 0 1 24.5 33.5 A 0.5 0.5 0 0 1 24 34 A 0.5 0.5 0 0 1 23.5 33.5 A 0.5 0.5 0 0 1 24 33 z "
     id="circle2" />
</svg>
