<?xml version="1.0" encoding="UTF-8"?>
<svg version="1.1" viewBox="0 0 48 48" xmlns="http://www.w3.org/2000/svg">
    <g fill="#fff">
        <path d="m22.85 13.847c0.92816 0.97492 2.2979 1.1042 1.5346 6.846-0.68686 1.4389-1.6335 3.0235-4.49 4.507-4.7589 1.1855-9.3049 0.69282-14.064-1.9769-4.5073-3.4612-0.71743-9.1395 4.2168-10.06 4.6165-0.48573 8.9788-0.75674 12.802 0.68394z"/>
        <path d="m10.912 9.5953c1.4073-1.7253 2.6199-3.4461 8.7748-5.2819l6.3042 0.17038c3.9107 0.30845 5.6571 2.7082 7.2413 7.2413 0.71314 2.6362 0.82063 5.278 1.7038 7.5821l0.08519 23.598h-28.369c-1.2181-5.1252-0.61433-10.478-0.063898-15.824 6.8686 2.7553 12.727 1.6688 17.613-0.87322 2.9607-2.8332 4.002-6.1713 3.4929-10.564-1.3944-2.1141-1.3394-3.4789-5.4523-5.5375l-5.4523-0.59634z"/>
        <path d="m38.028 42.861c0.53556-7.3538 0.58706-14.828-0.12047-22.409 1.2264 0.09677 3.1236 0.15407 3.4939 0.3012 0.53161 0.32643 0.86721 0.70186 1.1747 1.0843 1.3321 7.5236 1.2536 16.002 0.60454 21.054z"/>
    </g>
</svg>
