<?xml version="1.0" encoding="UTF-8"?>
<svg version="1.1" viewBox="0 0 48 48" xmlns="http://www.w3.org/2000/svg">
    <path d="m24 2c-12.15 0-22 9.8497-22 22s9.9422 21.793 22.088 21.461c1.8155-0.049667 4.3638-1.6681 4.8965-4.3535 0.69296-3.4935-2.1468-4.825-1.668-5.9492 0.3656-0.85844 0.52116-0.57633 5.5996-0.5 4.1307 0.062083 11.191-3.4853 12.268-10.762 1.7789-12.019-9.0333-21.896-21.184-21.896zm-6.0352 8.8145a3.2092 3.2092 0 0 1 0.070312 0 3.2092 3.2092 0 0 1 3.209 3.209 3.2092 3.2092 0 0 1-3.209 3.209 3.2092 3.2092 0 0 1-3.209-3.209 3.2092 3.2092 0 0 1 3.1387-3.209zm10.865 0.015625a3.2092 3.2092 0 0 1 0.070313 0 3.2092 3.2092 0 0 1 3.209 3.209 3.2092 3.2092 0 0 1-3.209 3.209 3.2092 3.2092 0 0 1-3.209-3.209 3.2092 3.2092 0 0 1 3.1387-3.209zm6.6074 8.5605a3.2092 3.2092 0 0 1 3.209 3.209 3.2092 3.2092 0 0 1-3.209 3.2109 3.2092 3.2092 0 0 1-3.209-3.2109 3.2092 3.2092 0 0 1 3.209-3.209zm-23.953 0.13672a3.2092 3.2092 0 0 1 0.070313 0 3.2092 3.2092 0 0 1 3.209 3.209 3.2092 3.2092 0 0 1-3.209 3.209 3.2092 3.2092 0 0 1-3.209-3.209 3.2092 3.2092 0 0 1 3.1387-3.209z" fill="#fff"/>
</svg>
