<svg xmlns="http://www.w3.org/2000/svg" width="48" height="48" viewBox="0 0 48 48">
    <path d="M21.39 11.312a1.128 1.128 0 0 0-.883.41l-5.47 6.67a1.128 1.128 0 0 0 .186 1.604l.615.475a1.128 1.128 0 0 0 1.536-.194l4.905-5.97h3.356L14.55 27.786l-7.786-.083a1.128 1.128 0 0 0-1.147 1.092l-.057 1.75a1.128 1.128 0 0 0 1.128 1.166h10.17a1.128 1.128 0 0 0 .876-.392l4.434-5.358 5.286 5.268-2.172 10.005a1.128 1.128 0 0 0 .817 1.335l1.402.37a1.128 1.128 0 0 0 1.398-.865l2.82-13.355a1.128 1.128 0 0 0-.3-1.056l-4.658-4.68 4.853-5.824 3.654 3.72a1.128 1.128 0 0 0 1.676-.072l5.227-6.36A1.128 1.128 0 0 0 42 12.82l-.773-.57a1.128 1.128 0 0 0-1.58.17l-3.78 4.592-5.415-5.385a1.128 1.128 0 0 0-.816-.34z" fill="#fff"/>
    <circle r="3.356" cy="8.38" cx="33.338" fill="#fff"/>
</svg>
