<?xml version="1.0" encoding="UTF-8"?>
<svg version="1.1" viewBox="0 0 48 48" xmlns="http://www.w3.org/2000/svg">
 <path d="m7 5c-1.11 0-2 0.892-2 2v34c0 1.11 0.892 2 2 2h34c1.11 0 2-0.892 2-2v-34c0-1.11-0.892-2-2-2h-34zm25 3a2.75 2.75 0 0 1 2.75 2.75 2.75 2.75 0 0 1 -2.75 2.75 2.75 2.75 0 0 1 -2.75 -2.75 2.75 2.75 0 0 1 2.75 -2.75zm-10.2 5h6.95c0.259-0.00203 0.507 0.102 0.688 0.287l4.56 4.54 3.19-3.87c0.329-0.405 0.922-0.469 1.33-0.143l0.652 0.479c0.432 0.331 0.498 0.957 0.145 1.37l-4.41 5.36c-0.359 0.436-1.02 0.464-1.41 0.0605l-3.24-3.08-4.16 4.62 4.15 4.18c0.233 0.233 0.329 0.568 0.254 0.889l-2.38 11.3c-0.109 0.537-0.648 0.873-1.18 0.73l-1.18-0.312c-0.495-0.129-0.798-0.626-0.688-1.12l2.02-9.24-4.33-4.33-4.3 4.83c-0.0503 0.0584-0.127 0.123-0.217 0.186-0.24 0.166-0.577 0.318-0.783 0.314h-8c-0.538 3.05e-4 -1.02-0.463-1-1v-1c0.0165-0.519 0.48-1.01 1-1h6.5l9.5-11.5h-3l-4 5c-0.32 0.389-0.931 0.537-1.34 0.24l-0.518-0.4c-0.423-0.326-0.481-0.925-0.145-1.34l4.6-5.63c0.183-0.222 0.457-0.37 0.744-0.367z" fill="#fff"/>
</svg>
