<?xml version="1.0" encoding="UTF-8"?>
<svg overflow="scroll" baseProfile="tiny" version="1.2" viewBox="0 0 48 48" xml:space="preserve" xmlns="http://www.w3.org/2000/svg">
<path d="m42 8h-36c-1.1 0-2 0.9-2 2v28c0 1.1 0.9 2 2 2h36c1.1 0 2-0.9 2-2v-28c0-1.1-0.9-2-2-2zm-24.6 22.5c0 0.1-0.1 0.2-0.2 0.2h-3.5c-0.1 0-0.2-0.1-0.2-0.2l-2.5-13.1c0-0.1 0-0.2 0.1-0.2h3.2c0.1 0 0.2 0.1 0.2 0.2l0.9 5.6c0 0.1 0.1 0.1 0.1 0.1l0.1-0.1 0.8-5.6c0-0.1 0.1-0.2 0.2-0.2h3.1c0.1 0 0.2 0.1 0.2 0.2l-2.5 13.1zm10.8 0c0 0.1-0.1 0.2-0.2 0.2h-3.4c-0.1 0-0.2-0.1-0.2-0.2l-0.8-3.2c0-0.2-0.1-0.3-0.2-0.3s-0.1 0.1-0.1 0.3v3.2c0 0.1-0.1 0.2-0.2 0.2h-2.7c-0.1 0-0.2-0.1-0.2-0.3v-13c0-0.1 0.1-0.2 0.2-0.2h3c0.1 0 0.2 0.1 0.3 0.2l1.1 4.1c0 0.1 0.1 0.2 0.1 0.2 0.1 0 0.1-0.1 0.1-0.2v-4c0-0.1 0.1-0.2 0.2-0.2h2.8c0.1 0 0.2 0.1 0.2 0.3v12.9zm4.5-9.6c-0.1 0-0.3 0.1-0.3 0.3v5.6c0 0.2 0.1 0.3 0.3 0.3s0.3-0.1 0.3-0.3v-1.8c0-0.1 0.1-0.3 0.2-0.3l3.4 0.1c0.1 0 0.1 0.1 0.1 0.1 0 4.3-1.8 5.8-4.1 5.8-2.5 0-3.9-2.3-3.9-4.8v-3.6c0-3.3 1.5-5.2 4-5.2 2.6 0 4 2.2 4 4.8 0 0.5 0 0.5-0.2 0.5l-3.3 0.1c-0.2 0-0.3-0.1-0.3-0.4v-1.1c0.1-0.1 0-0.1-0.2-0.1z" fill="#fff"/>
</svg>
