<?xml version="1.0" encoding="UTF-8"?>
<svg version="1.1" viewBox="0 0 48 48" xmlns="http://www.w3.org/2000/svg">
    <path d="m24 3.1299a19 19 0 0 0 -19 19 19 19 0 0 0 0.068359 1.5059c-0.040305 0.15877-0.068359 0.32249-0.068359 0.49414v18.74c0 1.108 0.892 2 2 2h34c1.108 0 2-0.892 2-2v-18.74c0-0.17754-0.0312-0.3461-0.07422-0.50977a19 19 0 0 0 0.07422 -1.4902 19 19 0 0 0 -19 -19zm-8.0488 15.736a3.5349 3.5349 0 0 1 3.5332 3.5352 3.5349 3.5349 0 0 1 -3.5332 3.5352 3.5349 3.5349 0 0 1 -3.5352 -3.5352 3.5349 3.5349 0 0 1 3.5352 -3.5352zm16.098 0a3.5349 3.5349 0 0 1 3.5352 3.5352 3.5349 3.5349 0 0 1 -3.5352 3.5332 3.5349 3.5349 0 0 1 -3.5332 -3.5332 3.5349 3.5349 0 0 1 3.5332 -3.5352z" fill="#fff" stroke-width=".77357"/>
    <rect transform="rotate(-45)" x="-1.7472" y="7.0241" width="6.1392" height="12.805" ry="3.0696" fill="#fff"/>
    <rect transform="rotate(45)" x="29.549" y="-26.917" width="6.1392" height="12.805" ry="3.0696" fill="#fff"/>
</svg>
