<?xml version="1.0" encoding="UTF-8"?>
<svg version="1.1" viewBox="0 0 48 48" xmlns="http://www.w3.org/2000/svg">
    <path d="m2.1641 20.469v18.107a2.437 2.437 0 0 0 2.4395 2.4395h38.793a2.437 2.437 0 0 0 2.4395-2.4395v-18.107h-43.672zm27.799 2.6465h5.3457c1.108 0 2 0.892 2 2v11.256c0 1.108-0.892 2-2 2h-5.3457c-1.108 0-2-0.892-2-2v-11.256c0-1.108 0.892-2 2-2zm1.1758 1.6348c-1.108 0-2 0.892-2 2v7.9863c0 1.108 0.892 2 2 2h2.9941c1.108 0 2-0.892 2-2v-7.9863c0-1.108-0.892-2-2-2h-2.9941z" fill="#fff"/>
    <path d="m34.378 30.946z" fill="#fff" stroke-width="1.1081"/>
    <path d="m4.6045 6.9835a2.437 2.437 0 0 0-2.442 2.442v7.052h43.675v-3.052a2.436 2.436 0 0 0-2.442-2.44h-10.985c-2.198-0.12-3.832-0.59-3.832-0.59s-7.558-1.857-10.206-2.733c-2.04-0.674-2.372-0.677-2.677-0.677h-11.09z" fill="#fff"/>
    <path d="m34.624 25.041z" fill="#fff"/>
</svg>
