<svg xmlns="http://www.w3.org/2000/svg" width="48" height="48" viewBox="0 0 48 48">
    <path d="M8.25 6.938v34.124C8.25 43.688 9.563 45 12.188 45H35.81c2.626 0 3.938-1.313 3.938-3.938V6.938C39.75 4.313 38.437 3 35.812 3H12.19C9.562 3 8.25 4.313 8.25 6.938zM30.813 8.83l.753 3.78 3.543 1.525-3.364 1.885-.354 3.84-2.832-2.618-3.76.85 1.612-3.5-1.97-3.317 3.83.454zM17.406 24.88l4.566 3.082 5.127-2.01-1.52 5.295 3.502 4.26-5.505.192-2.963 4.644-1.884-5.175-5.332-1.384 4.34-3.39z" fill="#fff"/>
</svg>
