<?xml version="1.0" encoding="UTF-8"?>
<svg width="48" height="48" viewBox="0 0 12.7 12.7" xmlns="http://www.w3.org/2000/svg">
    <path d="m6.35 0.52917a5.8208 5.8208 0 0 0-5.8208 5.8208 5.8208 5.8208 0 0 0 5.8208 5.8208 5.8208 5.8208 0 0 0 5.8208-5.8208 5.8208 5.8208 0 0 0-5.8208-5.8208zm-0.27802 0.79375a3.4396 3.7042 0 0 1 3.4396 3.7042h-0.24546a3.1938 3.4395 0 0 0-3.1941-3.4396zm0 0.79375a2.7025 2.9104 0 0 1 2.7027 2.9104h-0.24546a2.4568 2.6458 0 0 0-2.4572-2.6458zm0 0.8599a1.7462 2.0506 0 0 1 1.7467 2.0505h-0.22583a1.5209 1.7859 0 0 0-1.5208-1.7859zm0 1.1508c0.36531 0 0.66146 0.29615 0.66146 0.66146-3.797e-4 0.24336-0.13436 0.46686-0.34882 0.58188l2.9771 5.5991-0.46716 0.24856-0.03307-0.06253-4.6803-1.342-0.51728 1.0604-0.47542-0.23203 2.5704-5.2705c-0.21458-0.11533-0.3484-0.33929-0.3483-0.58291 0-0.36531 0.29614-0.66146 0.66146-0.66146zm0.00672 1.7952-0.66714 1.3684 1.1281-0.50178zm0.55397 1.0423-1.3043 0.58033 2.1136 0.94103zm-1.4252 0.74414-0.87075 1.7849 3.0474-0.81597zm2.4117 1.111-3.1972 0.8568 4.3098 1.2356z" fill="#fff" stroke-width=".26458"/>
</svg>
