<?xml version="1.0" encoding="UTF-8" standalone="no"?>
<svg
   xmlns:dc="http://purl.org/dc/elements/1.1/"
   xmlns:cc="http://creativecommons.org/ns#"
   xmlns:rdf="http://www.w3.org/1999/02/22-rdf-syntax-ns#"
   xmlns:svg="http://www.w3.org/2000/svg"
   xmlns="http://www.w3.org/2000/svg"
   id="svg8"
   version="1.1"
   viewBox="0 0 12.7 12.7"
   height="48"
   width="48">
  <defs
     id="defs2" />
  <metadata
     id="metadata5">
    <rdf:RDF>
      <cc:Work
         rdf:about="">
        <dc:format>image/svg+xml</dc:format>
        <dc:type
           rdf:resource="http://purl.org/dc/dcmitype/StillImage" />
        <dc:title></dc:title>
      </cc:Work>
    </rdf:RDF>
  </metadata>
  <g
     transform="translate(0,-284.29998)"
     id="layer1">
    <path
       id="path905"
       transform="matrix(0.26458333,0,0,0.26458333,0,284.29998)"
       d="M 23.779297 4.2304688 A 20.776965 20.776965 0 0 0 3.0019531 25.007812 A 20.776965 20.776965 0 0 0 11.564453 41.789062 L 20.751953 22.798828 C 20.03428 22.403613 19.588322 21.649376 19.587891 20.830078 C 19.587274 19.587945 20.593805 18.58054 21.835938 18.580078 C 23.07807 18.580541 24.084601 19.587945 24.083984 20.830078 C 24.082688 21.71157 23.566514 22.511029 22.763672 22.875 L 33.404297 43.410156 A 20.776965 20.776965 0 0 0 44.556641 25.007812 A 20.776965 20.776965 0 0 0 23.779297 4.2304688 z M 21.751953 8.4707031 C 25.663687 8.4727819 28.378649 10.14212 30.425781 12.183594 C 32.472913 14.225068 34.11557 17.625445 34.091797 21.845703 L 33.109375 21.845703 C 33.047889 18.111568 31.810763 15.027571 29.705078 12.896484 C 27.599393 10.765398 25.295988 9.5490032 21.751953 9.4726562 L 21.751953 8.4707031 z M 21.751953 11.394531 C 25.387475 11.407646 27.160587 12.915045 28.431641 14.181641 C 29.702694 15.448236 31.332465 18.071769 31.359375 21.845703 L 30.318359 21.845703 C 30.267136 19.106415 29.502917 16.74677 27.6875 14.923828 C 25.872083 13.100886 24.380395 12.561534 21.751953 12.451172 L 21.751953 11.394531 z M 21.75 14.466797 C 23.8703 14.474016 25.095023 15.404693 26.125 16.5 C 27.154977 17.595307 28.003014 19.798749 28.007812 21.845703 L 27.011719 21.845703 C 26.965857 20.29878 26.608253 18.463729 25.451172 17.164062 C 24.294091 15.864397 22.966181 15.46018 21.751953 15.4375 L 21.75 14.466797 z M 21.757812 24.964844 L 19.380859 29.900391 L 23.373047 28.101562 L 21.757812 24.964844 z M 23.693359 28.724609 L 18.917969 30.896484 L 26.474609 34.123047 L 23.693359 28.724609 z M 18.578125 31.564453 L 15.535156 37.884766 L 26.488281 34.925781 L 18.578125 31.564453 z M 27.1875 35.507812 L 15.894531 38.5625 L 30.986328 42.886719 L 27.1875 35.507812 z M 14.974609 39.044922 L 13.136719 42.824219 A 20.776965 20.776965 0 0 0 23.779297 45.785156 A 20.776965 20.776965 0 0 0 31.669922 44.210938 L 31.443359 43.773438 L 14.974609 39.044922 z "
       style="opacity:1;fill:#ffffff;fill-opacity:1;stroke:none;stroke-width:0.03271963;stroke-miterlimit:4;stroke-dasharray:none;stroke-opacity:1" />
  </g>
</svg>
