<?xml version="1.0" encoding="UTF-8"?>
<svg version="1.1" viewBox="0 0 48 48" xmlns="http://www.w3.org/2000/svg">
    <defs>
        <style>.cls-1{fill:#fff;}</style>
    </defs>
    <path class="cls-1" d="m24 2a22 22 0 0 0-22 22 22 22 0 0 0 22 22 22 22 0 0 0 22-22 22 22 0 0 0-22-22zm-1.5996 8.3691c1.2274 0.07637 1.704 1.4225 2.2988 2.5117a11.202 11.202 0 0 1 3.2168 0.56055c1.012-0.92224 1.9893-2.1903 3.4023-1.3613 1.4144 0.82973 0.81518 2.3066 0.52539 3.6367a11.202 11.202 0 0 1 2.0605 2.4434c1.3767-0.066124 2.948-0.41596 3.4199 1.1992 0.45662 1.5628-0.83517 2.2788-1.8633 3.0527a11.202 11.202 0 0 1 0.13281 1.6543 11.202 11.202 0 0 1-0.12891 1.6074c1.0763 0.80591 2.4522 1.534 1.9141 3.0625-0.53562 1.5215-2.0731 1.2185-3.4375 1.1582a11.202 11.202 0 0 1-2.1797 2.5898c0.2685 1.3066 0.78807 2.7267-0.48828 3.5-1.2928 0.78324-2.2907-0.41567-3.3145-1.3145a11.202 11.202 0 0 1-3.3906 0.5918c-0.67901 1.1522-1.2342 2.5499-2.5645 2.3535-1.3562-0.20024-1.39-1.7653-1.6543-3.1133a11.202 11.202 0 0 1-2.9258-1.6816c-1.3063 0.4887-2.7017 1.3197-3.6445 0.14453-0.93482-1.1652 0.096238-2.364 0.78906-3.5391a11.202 11.202 0 0 1-1.1406-3.1211c-1.3272-0.46315-2.955-0.71055-2.9277-2.2363 0.02704-1.5113 1.6115-1.7671 2.9141-2.2227a11.202 11.202 0 0 1 1.1426-3.1406c-0.6927-1.1479-1.7051-2.3202-0.77734-3.5312 0.94116-1.2286 2.3314-0.37818 3.6367 0.12891a11.202 11.202 0 0 1 2.8516-1.6465c0.20532-1.3859 0.14886-3.0256 1.709-3.2656 0.15058-0.02323 0.29181-0.029684 0.42383-0.021484z"/>
</svg>
