<svg width="32" height="32" viewBox="0 0 32 32" xmlns="http://www.w3.org/2000/svg">
    <path d="M16 2a7.5 7.5 0 0 0-7.482 8H8.5v4h-2c-1.5 0-2 .5-2 2v12c0 1.51.5 2 2 2h19c1.5 0 2-.5 2-2V16c0-1.5-.5-2-2-2h-2v-4h-.025a7.5 7.5 0 0 0 .025-.5A7.5 7.5 0 0 0 16 2zm0 2.5a5 5 0 0 1 5 5 5 5 0 0 1-.355 1.84l.01-.006c-.727 2.393-3.55 4.806-5.522 6.666l.7-3.508A5 5 0 0 1 11 9.5a5 5 0 0 1 5-5zm4.8 14.002a.548.548 0 0 1 .42.81l-1.28 2.3c1.92 1.242 3.057 3.403 3.06 5.888H9c.003-2.485 1.14-4.646 3.06-5.887l-1.28-2.302a.545.545 0 0 1 .956-.53l1.284 2.32a7.442 7.442 0 0 1 2.98-.6c1.1 0 2.1.22 2.98.6l1.284-2.312a.545.545 0 0 1 .535-.277zm-8.3 4.848a.65.65 0 1 0 .65.65.65.65 0 0 0-.65-.65zm7 0a.65.65 0 1 0 .65.65.65.65 0 0 0-.65-.65zM195-53h71.717v42.476H195z" fill="#fff" paint-order="markers fill stroke"/>
</svg>
