<svg xmlns="http://www.w3.org/2000/svg" width="48" height="48" viewBox="0 0 48 48">
    <path d="M24 3a11.25 11.25 0 0 0-11.224 12h-.026v6h-3c-2.25 0-3 .75-3 3v18c0 2.265.75 3 3 3h28.5c2.25 0 3-.75 3-3V24c0-2.25-.75-3-3-3h-3v-6h-.038a11.25 11.25 0 0 0 .038-.75A11.25 11.25 0 0 0 24 3zm0 3.75a7.5 7.5 0 0 1 7.5 7.5 7.5 7.5 0 0 1-.533 2.76l.014-.01c-1.09 3.59-5.323 7.21-8.28 10l1.05-5.262a7.5 7.5 0 0 1-7.25-7.488 7.5 7.5 0 0 1 7.5-7.5zm-7.093 21a.82.82 0 0 1 .697.422l1.925 3.48a11.163 11.163 0 0 1 4.47-.9c1.65 0 3.15.33 4.47.9l1.926-3.468a.818.818 0 0 1 .802-.416l.003-.015a.822.822 0 0 1 .63 1.216l-1.92 3.45c2.88 1.863 4.586 5.102 4.59 8.83h-21c.005-3.728 1.71-6.97 4.59-8.83l-1.92-3.45a.82.82 0 0 1 .737-1.22zm1.843 7.277a.975.975 0 1 0 .976.973.975.975 0 0 0-.976-.973zm10.5 0a.975.975 0 1 0 .976.973.975.975 0 0 0-.976-.973z" fill="#fff"/>
</svg>
