<svg xmlns="http://www.w3.org/2000/svg" width="48" height="48" viewBox="0 0 48 48">
    <path d="M4.32 8.01v31.98c0 2.46 1.23 3.69 3.69 3.69h31.98c2.46 0 3.69-1.23 3.69-3.69V8.01c0-2.46-1.23-3.69-3.69-3.69H8.01c-2.46 0-3.69 1.23-3.69 3.69zm22.14 3.69l4.305 4.305v-2.46h3.075v5.535L38.76 24l-2.175 2.175L24 13.59 11.415 26.175 9.24 24l12.3-12.3c2.46-2.46 2.46-2.46 4.92 0zm-12.3 14.145h3.075v8.61h13.53v-8.61h3.075V36.3c0 .618-.612 1.23-1.23 1.23H15.39c-.615 0-1.23-.566-1.23-1.18z" fill="#fff"/>
</svg>
