<?xml version="1.0" encoding="UTF-8"?>
<svg data-name="Layer 1" viewBox="0 0 48 48" xmlns="http://www.w3.org/2000/svg">
    <defs>
        <style>.cls-1{fill:#fff;}</style>
    </defs>
    <path class="cls-1" d="M24,2A22,22,0,1,0,46,24,22,22,0,0,0,24,2ZM6.24,24.11a.2.2,0,0,1,.16-.32H8a.36.36,0,0,0,.3-.17.32.32,0,0,0,.07-.19,15.61,15.61,0,0,1,28.92-7.58.41.41,0,0,1,0,.47L34.05,20.4a.19.19,0,0,1-.34,0,10.37,10.37,0,0,0-20.06,3,.36.36,0,0,0,.08.23s0,0,0,.05a.36.36,0,0,0,.27.12H15.6a.2.2,0,0,1,.16.32l-4.6,5.8a.21.21,0,0,1-.32,0Zm35.36.1H40a.38.38,0,0,0-.3.16.37.37,0,0,0-.07.2,15.61,15.61,0,0,1-28.92,7.58.42.42,0,0,1,0-.47L14,27.6a.19.19,0,0,1,.34,0,10.37,10.37,0,0,0,20.06-3,.41.41,0,0,0-.08-.24s0,0,0,0a.36.36,0,0,0-.27-.12H32.4a.2.2,0,0,1-.16-.32l4.6-5.8a.21.21,0,0,1,.32,0l4.6,5.8A.2.2,0,0,1,41.6,24.21Z"/>
</svg>
