<?xml version="1.0" encoding="UTF-8"?>
<svg version="1.1" viewBox="0 0 48 48" xmlns="http://www.w3.org/2000/svg">
    <path d="m6 13.682c-1.108 0-2 0.892-2 2v25.123c0 1.108 0.892 2 2 2h36c1.108 0 2-0.892 2-2v-25.123c0-1.108-0.892-2-2-2h-36zm10.453 4.6738c0.37175 0 0.74249 0.14288 1.0273 0.42773l1.2715 1.2695a9.0018 9.0018 0 0 1 5.248 -1.6973 9.0018 9.0018 0 0 1 5.2441 1.6992l1.2734-1.2715c0.56971-0.56971 1.4869-0.56971 2.0566 0 0.56971 0.56971 0.56971 1.4869 0 2.0566l-1.2715 1.2695a9.0018 9.0018 0 0 1 1.6992 5.248 9.0018 9.0018 0 0 1 -0.035156 0.70703c0.02038 0.077543 0.035156 0.15612 0.035156 0.24024v8.8789c0 0.52495-0.42427 0.94726-0.94922 0.94726h-16.107c-0.52495 0-0.94726-0.42232-0.94726-0.94726v-8.8789c0-0.081324 0.01215-0.1572 0.03125-0.23242a9.0018 9.0018 0 0 1 -0.03125 -0.71484 9.0018 9.0018 0 0 1 1.6992 -5.2441l-1.2734-1.2734c-0.56971-0.56971-0.56971-1.4869 0-2.0566 0.28486-0.28486 0.65755-0.42773 1.0293-0.42773zm3.7324 7.457a1.6748 1.6748 0 0 0 -1.6738 1.6738 1.6748 1.6748 0 0 0 1.6738 1.6758 1.6748 1.6748 0 0 0 1.6738 -1.6758 1.6748 1.6748 0 0 0 -1.6738 -1.6738zm7.627 0a1.6748 1.6748 0 0 0 -1.6738 1.6738 1.6748 1.6748 0 0 0 1.6738 1.6738 1.6748 1.6748 0 0 0 1.6758 -1.6738 1.6748 1.6748 0 0 0 -1.6758 -1.6738z" fill="#fff" stroke-width=".954"/>
    <path d="m17.666 5.1958c-3.2365 0-5.9043 2.6678-5.9043 5.9043v3.3926h4v-3.3926c0-1.0897 0.8146-1.9043 1.9043-1.9043h12.668c1.0897 0 1.9043 0.8146 1.9043 1.9043v3.3926h4v-3.3926c0-3.2365-2.6678-5.9043-5.9043-5.9043z" color="#000000" color-rendering="auto" dominant-baseline="auto" fill="#fff" image-rendering="auto" shape-rendering="auto" solid-color="#000000" style="font-feature-settings:normal;font-variant-alternates:normal;font-variant-caps:normal;font-variant-ligatures:normal;font-variant-numeric:normal;font-variant-position:normal;isolation:auto;mix-blend-mode:normal;shape-padding:0;text-decoration-color:#000000;text-decoration-line:none;text-decoration-style:solid;text-indent:0;text-orientation:mixed;text-transform:none;white-space:normal"/>
</svg>
