<?xml version="1.0" encoding="UTF-8"?>
<svg version="1.1" viewBox="0 0 48 48" xmlns="http://www.w3.org/2000/svg">
    <g fill="#fff">
        <path d="m6 8c-1.108 0-2 0.892-2 2v28c0 1.108 0.892 2 2 2h36c1.108 0 2-0.892 2-2v-18.5h-9.5c-1.108 0-2-0.892-2-2v-9.5zm13 4.5c6.351-1e-6 11.5 5.149 11.5 11.5 1e-6 6.351-5.149 11.5-11.5 11.5-6.351 1e-6 -11.5-5.149-11.5-11.5-6e-7 -6.351 5.149-11.5 11.5-11.5z"/>
        <g style="paint-order:markers fill stroke">
            <rect x="17.75" y="23" width="2.5" height="8"/>
            <rect x="17.75" y="17.5" width="2.5" height="2.5"/>
            <path d="m34 8v9c0 0.554 0.446 1 1 1h9z"/>
        </g>
    </g>
</svg>
