<?xml version="1.0" encoding="UTF-8"?>
<svg viewBox="0 0 48 48" xmlns="http://www.w3.org/2000/svg">
    <path d="m1.4804 0c-0.82211 0-1.4839 0.66184-1.4839 1.4839v25.227c0 0.82211 0.66184 1.4839 1.4839 1.4839h25.227c0.82211 0 1.4839-0.66184 1.4839-1.4839v-25.227c0-0.82211-0.66184-1.4839-1.4839-1.4839zm20.006 1.71c0.45979-0.036632 0.77494 0.25212 0.82168 0.71444 0.01137 0.10989 0.01884 0.2207 0.01884 0.33186 0.0025 2.8358 0.0027 5.6706 0.0015 8.5052 0 2.8257 0.0011 5.6518-0.0015 8.4762 0 0.61895-0.08547 1.2264-0.36084 1.7897-0.42821 0.87663-1.1296 1.4272-2.0593 1.6912-0.5179 0.14779-1.046 0.2325-1.5854 0.2565-1.4122 0.06695-2.6327-0.89133-2.8853-2.2795-0.20968-1.1457 0.33812-2.4084 1.5419-2.9983 0.48-0.23747 0.99359-0.36997 1.5115-0.48112 0.56084-0.12126 1.1242-0.22765 1.6825-0.3565 0.40674-0.09347 0.67834-0.342 0.75791-0.76516 0.01895-0.09347 0.02609-0.19093 0.02609-0.28694 0.0013-2.6931 0.0011-5.3844-0.0014-8.0762 0-0.092211-0.01494-0.18547-0.03768-0.27389-0.05811-0.22358-0.2208-0.36043-0.45069-0.3478-0.23747 0.013895-0.47206 0.051806-0.70574 0.098543-1.128 0.22232-2.2542 0.45084-3.3809 0.67821-1.1507 0.23116-2.3014 0.46463-3.4534 0.69705-0.67958 0.13768-1.3594 0.27388-2.039 0.41156-0.024 0.00505-0.04827 0.012505-0.07101 0.018834-0.41052 0.11368-0.55927 0.30306-0.57822 0.72748-0.0025 0.06442-0.0014 0.1285-0.0014 0.19419-0.0013 3.8602-3.72e-4 7.7213-0.0029 11.58 0 0.624-0.06871 1.2404-0.31882 1.8202-0.41305 0.95242-1.1436 1.545-2.1288 1.8317-0.52042 0.15032-1.0549 0.23611-1.5955 0.25505-1.4223 0.05305-2.6024-0.89155-2.8462-2.2911-0.21095-1.2063 0.34075-2.5011 1.71-3.0809 0.52926-0.22232 1.085-0.34462 1.6434-0.46084 0.42568-0.08968 0.8523-0.17135 1.2767-0.2623 0.56716-0.12379 0.86434-0.47955 0.88834-1.0593 0.0025-0.07579 0.0014-0.14738 0.0014-0.22317 0-4.392-0.0011-8.7853 0.0014-13.177 0-0.18316 0.01937-0.37113 0.06231-0.54923 0.10358-0.42316 0.40587-0.66467 0.81008-0.76951 0.37895-0.098526 0.76374-0.16659 1.1477-0.24491 1.0876-0.21979 2.1759-0.4394 3.2635-0.65792 1.1242-0.22737 2.2466-0.45229 3.3708-0.67966 0.99284-0.20084 1.9856-0.40417 2.9809-0.59996 0.3259-0.064421 0.65701-0.12998 0.98543-0.15651z" fill="#fff"/>
</svg>
