<?xml version="1.0" encoding="UTF-8"?>
<svg version="1.1" viewBox="0 0 48 48" xmlns="http://www.w3.org/2000/svg">
    <path d="m7 5c-1.108 0-2 0.892-2 2v34c0 1.108 0.892 2 2 2h34c1.108 0 2-0.892 2-2v-34c0-1.108-0.892-2-2-2h-34zm13.996 4h6c0.375 0 0.6825 0.27836 0.75 0.63086l0.5625 3.9746c0.915 0.3825 1.7627 0.88406 2.5352 1.4766l3.7344-1.5059c0.3375-0.135 0.72852-2.34e-4 0.91602 0.32227l3 5.1953c0.1875 0.33 0.10336 0.73789-0.18164 0.96289l-3.1699 2.4805c0.059998 0.48 0.10352 0.96789 0.10352 1.4629s-0.043516 0.98289-0.10352 1.4629l3.1641 2.4805c0.285 0.2325 0.36719 0.64039 0.17969 0.96289l-3 5.1953c-0.18504 0.31687-0.57319 0.45307-0.91602 0.32227l-3.7324-1.5059c-0.7759 0.6025-1.6305 1.0984-2.5371 1.4766l-0.5625 3.9746c-0.06 0.3525-0.36719 0.63086-0.74219 0.63086h-6c-0.375 0-0.68219-0.27836-0.74219-0.63086l-0.5625-3.9746c-0.915-0.3825-1.7627-0.88406-2.5352-1.4766l-3.7344 1.5059c-0.3375 0.135-0.72852 2.34e-4 -0.91602-0.32227l-3-5.1953c-0.1875-0.33-0.10336-0.73789 0.18164-0.96289l3.1641-2.4805c-0.059997-0.48-0.10547-0.96789-0.10547-1.4629 0.004586-0.48921 0.040121-0.97805 0.10547-1.4629l-3.1641-2.4805c-0.285-0.2325-0.36914-0.64039-0.18164-0.96289l3-5.1953c0.18504-0.31687 0.57319-0.45307 0.91602-0.32227l3.7344 1.5059c0.7759-0.6025 1.6285-1.0984 2.5352-1.4766l0.5625-3.9746c0.06-0.3525 0.36719-0.63086 0.74219-0.63086zm3.0039 10.5a4.5 4.5 0 0 0-4.5 4.5 4.5 4.5 0 0 0 4.5 4.5 4.5 4.5 0 0 0 4.5-4.5 4.5 4.5 0 0 0-4.5-4.5z" fill="#fff"/>
</svg>
