<?xml version="1.0" encoding="UTF-8"?>
<svg version="1.1" viewBox="0 0 48 48" xmlns="http://www.w3.org/2000/svg">
    <defs>
        <style>.cls-1{fill:#05c43b;}</style>
    </defs>
    <path d="m24 2a22 22 0 0 0-22 22 22 22 0 0 0 22 22 22 22 0 0 0 22-22 22 22 0 0 0-22-22zm-3.8438 9.6309c14.071 0.38943 20.073 14.843 13.963 24.738l-3.3906-2.0879c5.0307-8.127-0.88752-18.66-10.572-18.73v-3.9199zm-0.19141 7.8086a8.4654 8.4654 0 0 1 8.4668 8.4648 8.4654 8.4654 0 1 1-8.4668-8.4648zm-0.1875 3.9492a4.52 4.52 0 0 0 0.1875 9.0352 4.52 4.52 0 0 0 4.5195-4.5195 4.52 4.52 0 0 0-4.707-4.5156z" fill="#fff"/>
</svg>
