<?xml version="1.0" encoding="UTF-8"?>
<svg version="1.1" viewBox="0 0 48 48" xmlns="http://www.w3.org/2000/svg">
    <path d="m23.25 38.72h1.6738v6.3332h-1.6738zm-1.7775 6.0844c0.06958-0.70823 0.13043-1.2654 0.21503-2.0029 0.01678-0.01783 0.80209 0.07389 0.8245 0.09631-0.02803 0.70099-0.1352 1.3994-0.23457 2.0887-0.25902 0.04367-0.67582-0.15108-0.80496-0.1821zm4.1853-1.9026c0.02113-0.02113 0.81232-0.11724 0.82885-0.1007 0.02578 0.02578 0.2214 2.0662 0.20009 2.0871-0.28405 0.05927-0.50628 0.06599-0.81231 0.10146-0.10482-0.69144-0.15424-1.394-0.21663-2.0878zm-6.3318 1.59c-0.02335-0.02335 0.37409-2.0107 0.40912-2.0457 0.01161-0.01161 0.81595 0.16171 0.82596 0.17797-0.13252 0.74657-0.29621 1.3822-0.46939 2.0632-0.27308-0.04566-0.48809-0.12378-0.76568-0.19543zm8.2858-1.8677c0.0107-0.01487 0.81708-0.18641 0.82808-0.17617 0.18142 0.70273 0.28394 1.3478 0.37685 2.0609-0.23214 0.08316-0.44124 0.1053-0.68888 0.1644-0.30563-0.52794-0.36992-1.3409-0.51605-2.0491zm-10.424 1.2434c0.17431-0.6871 0.46863-1.3964 0.73049-1.9561 0.49672 0.15765 0.69383 0.24262 0.68942 0.2972-0.01357 0.16798-0.6257 1.9394-0.66896 1.9359-0.2778-0.05152-0.49214-0.1794-0.75095-0.27692zm12.377-1.6589c-0.0044-0.05458 0.1927-0.13954 0.68942-0.2972 0.39774 0.60087 0.44702 1.0493 0.73049 1.956 0 0.02974-0.69411 0.2811-0.77627 0.2811-0.25931-0.66559-0.42064-1.2142-0.64365-1.9399zm-14.393 0.77253 0.902-1.8076 0.69947 0.30365c-0.28529 0.64435-0.57478 1.2873-0.866 1.9287-0.28694-0.05706-0.55748-0.31597-0.73548-0.42477zm16.228-1.5041 0.73241-0.3367 0.88651 1.8999c-0.24158 0.17856-0.4687 0.23858-0.75659 0.37405zm-17.831 0.7688c-0.38564-0.22285-0.70659-0.42125-0.71321-0.44089-0.01183-0.03509 2.4011-4.2442 2.4794-4.325 0.04419-0.04561 1.4736 0.75808 1.4602 0.82098-0.0103 0.04831-2.4519 4.2764-2.4938 4.3185-0.01726 0.01735-0.34693-0.15077-0.73258-0.37362zm17.809-3.9437c-0.01344-0.06063 1.4183-0.86567 1.461-0.82152 0.05711 0.05898 2.4893 4.2796 2.4893 4.3198 0 0.02744-0.33177 0.22485-1.4098 0.83877-0.89353-1.3523-1.721-2.8941-2.5405-4.337zm-20.025 2.484c0.43308-0.5841 0.87595-1.1973 1.224-1.6751 0.28489 0.1082 0.45224 0.28256 0.7189 0.46796-0.39958 0.56348-0.82079 1.1183-1.244 1.6598-0.27147-0.11968-0.43936-0.278-0.69896-0.45268zm23.524-1.2067c0.20434-0.19601 0.50539-0.33283 0.7194-0.46833 0.46086 0.6294 0.82761 1.1353 1.2235 1.6744-0.2093 0.16355-0.43809 0.30265-0.65585 0.45201-0.49775-0.45306-0.93705-1.1783-1.287-1.658zm-25.202-0.21832c0.46023-0.52043 0.93364-1.0328 1.4088-1.5373 0.04126-0.01565 0.60827 0.49102 0.60827 0.54354 0 0.06059-1.3413 1.5289-1.3948 1.5269-0.2474-0.15581-0.39292-0.33004-0.62232-0.5332zm26.807-0.99643c0-0.05065 0.56833-0.55597 0.60827-0.54083 0.51288 0.52896 0.88192 0.95209 1.4088 1.5372-0.18318 0.20204-0.41949 0.36201-0.62067 0.5332-0.53202-0.49792-0.89951-0.94572-1.3964-1.5296zm-28.296-0.58529c0-0.04643 1.4804-1.389 1.5316-1.389 0.05065 0 0.55597 0.56833 0.54083 0.60827-0.01318 0.03474-1.521 1.4066-1.5425 1.4033-0.21013-0.19342-0.33997-0.3962-0.52996-0.6226zm29.729-0.78071c-0.01565-0.04126 0.49102-0.60827 0.54354-0.60827 0.06059 0 1.5289 1.3413 1.5269 1.3948-0.15582 0.2474-0.33004 0.39292-0.5332 0.62232-0.52043-0.46022-1.0328-0.93364-1.5372-1.4088zm-31.059-0.94044c0.5423-0.49683 1.0128-0.80826 1.647-1.2721 0.1966 0.20428 0.33256 0.50593 0.46796 0.72031-0.56541 0.41516-1.1288 0.82025-1.6744 1.2221-0.17403-0.2036-0.29845-0.45176-0.44065-0.6703zm32.324-0.57332c0.14943-0.26123 0.30073-0.43618 0.48971-0.69843 0.54686 0.39206 1.0876 0.79363 1.6253 1.1975-0.0404 0.35786-0.2602 0.48289-0.42566 0.7385-0.56434-0.4108-1.1273-0.82374-1.6893-1.2375zm-33.718-1.7038c0.04131-0.04018 4.2731-2.4846 4.3189-2.4948 0.06098-0.01352 0.86495 1.4176 0.82061 1.4607-0.05855 0.05695-4.2772 2.4898-4.3174 2.4898-0.34272-0.47676-0.5473-0.91634-0.8221-1.4557zm32.109-1.0343c-0.04561-0.04404 0.76067-1.4738 0.82323-1.4598 0.04986 0.01117 4.274 2.4509 4.3158 2.4927 0.03309 0.03309-0.7475 1.4245-0.81106 1.4457-1.5374-0.83785-2.7279-1.5338-4.328-2.4786zm-19.592 1.3363c-0.34229-0.18504-0.60361-0.56668-0.64112-0.93633 0.45384-1.8668 1.2521-2.8934 2.1403-5.0345-0.02044-0.0533-0.88945-1.1448-1.7948-2.2544l-0.47347-0.58028c-0.08837 0.99972-0.09905 1.9156-0.15585 2.9271-0.03861 0.33727-1.0766 4.4639-1.251 4.9738-0.27657 0.80831-1.0635 1.1546-1.7027 0.74928-0.33231-0.21074-0.45892-0.41456-0.47907-0.77118 0.26105-1.9716 0.50467-2.6364 1.0223-4.728 0.01789-1.728 0.21828-3.4966 0.29789-5.2195l0.42148-1.1395c-0.08854-0.10344-0.20094-0.27309-0.24979-0.37699-0.0554-0.11787-0.26779-0.35467-0.56476-0.62966-0.5169-0.47866-0.58544-0.60206-0.46441-0.83611 0.13661-0.26417 0.32557-0.25399 0.74286 0.04 0.17934 0.12635 0.68078 0.6197 0.70922 0.61022 0.02844-0.0095-0.15195-0.96961 0.0042-1.6475 0.39474-1.7134 0.51032-2.0445 0.80347-2.3019 0.15314-0.13446 0.17208-0.13868 0.76038-0.1693 0.33184-0.01728 1.499-0.02455 2.5938-0.01616 1.7771 0.01361 2.0056 0.02358 2.1322 0.09287 0.34612 0.18948 2.2698 2.8908 2.5033 3.5154 0.20059 0.53636 0.12372 0.7359-1.2297 3.1926-1.0902 1.9789-1.2401 2.2756-1.188 2.3522 0.02426 0.03561 1.2223 1.013 2.6623 2.1721l2.6183 2.1073 0.3518-0.34236c0.6894-0.67088 1.5179-0.85494 2.2793-0.50635 0.28686 0.13133 0.80414 0.60767 1.0509 0.96774l0.17896 0.26112 0.38207 3e-3c0.2943 0.0026 0.42364 0.02487 0.56302 0.09735 0.38948 0.20257 0.66884 0.60595 0.79189 1.1434 0.08119 0.35466 0.12007 0.41223 0.4832 0.71566 0.33553 0.28035 0.36561 0.29595 0.6701 0.34757 0.27378 0.04641 0.64746 0.24017 0.84591 0.43862 0.25987 0.25987 0.54712 0.71956 0.48713 0.77956-0.11245 0.11247-13.018 0.06789-13.315-0.046-0.11147-0.04278-0.09513-0.07905 0.16328-0.36238 0.42294-0.46372 0.89411-0.69819 1.5407-0.76668 0.2302-0.02439 0.26878-0.04278 0.31175-0.14865 0.18459-0.45485 0.28416-0.61074 0.48212-0.75482 0.11552-0.08409 0.26094-0.1657 0.32314-0.18137 0.24651-0.06209 0.41029-0.1758 0.5833-0.40494 0.25147-0.33307 0.48382-0.54893 0.76594-0.71158 0.19539-0.11264 0.22959-0.14936 0.18095-0.19422-0.033-0.03043-0.9455-0.76487-2.0278-1.6321-1.0823-0.86723-2.1501-1.725-2.3729-1.9062-0.56655-0.46073-0.60151-0.44578-0.18158 0.07768 0.40992 0.51096 0.47723 0.72896 0.365 1.182-0.14263 0.57577-2.425 4.9827-2.8436 5.4905-0.26947 0.32692-0.9732 0.52615-1.2775 0.36167zm3.0844-11.332c-0.09508 0-1.976 0.81478-1.976 0.85597 0.27637 0.34682 0.70627 0.61508 1.0673 0.89428 0.33997-0.57668 0.64402-1.1874 0.90875-1.7503zm-2.1806-3.7547h-1.3157c-0.13462 0.52469-0.23444 1.1344-0.32273 1.6285 0.58422-0.56708 1.0196-1.009 1.6384-1.6285zm-14.216 13.174c0.64576-0.28744 1.2915-0.57488 1.9373-0.86232l0.36984 0.73241-1.9331 0.88651c-0.17857-0.24157-0.23859-0.4687-0.37405-0.75659zm36.505-0.15486 0.39556-0.70748c0.64576 0.28744 1.2915 0.57488 1.9373 0.86232-0.0834 0.26684-0.25664 0.52179-0.37405 0.75542-0.38153-0.15036-1.6517-0.77687-1.9588-0.91027zm-37.232-1.9112c0.06425-0.05371 1.9634-0.65047 1.9869-0.62435 0.1096 0.24295 0.16347 0.45607 0.25492 0.71946-0.66336 0.31914-1.1933 0.45306-1.9629 0.69383-0.16059-0.25062-0.18371-0.50027-0.27894-0.78894zm38.058 0.14601c-0.02183-0.02183 0.20075-0.71802 0.24577-0.76878 0.02404-0.02709 1.9359 0.568 1.9861 0.61819 0.03461 0.03461-0.2367 0.79344-0.28264 0.79046-0.69249-0.20463-1.2305-0.39278-1.9493-0.63986zm-38.588-2.2869c0.01473-0.01474 2.0336-0.45131 2.0477-0.44281 0.01565 0.0095 0.18979 0.81404 0.1786 0.82522-0.01813 0.01813-1.9274 0.42133-1.9951 0.42133-0.20208-0.16938-0.18138-0.55136-0.23115-0.80373zm39.126 0.38196c-0.01083-0.01083 0.16365-0.81506 0.17905-0.82533 0.01509-0.01004 2.028 0.4237 2.0449 0.44065 0.01548 0.01548-0.12459 0.70274-0.1733 0.85986-0.7658 0.06723-1.068-0.25198-2.0507-0.47518zm-39.442-2.5636c0.69168-0.10609 1.3961-0.15285 2.0897-0.21242 0.02251 0.02252 0.11439 0.80783 0.09647 0.82455-0.6977 0.09952-1.4023 0.14839-2.1031 0.20188-0.027692-0.27133-0.055367-0.54267-0.08305-0.814zm39.798 0.61162c-0.01804-0.01609 0.07405-0.8016 0.0966-0.82415 0.69967 0.0377 1.3951 0.12937 2.0896 0.21252l-0.08304 0.81399c-0.7416-0.02763-1.3717-0.11304-2.1031-0.20236zm-39.864-3.2356h6.3332v1.6738h-6.3332zm35.782 0h6.3332v1.6738h-6.3332zm-35.782-0.88068c0.026949-0.28822 0.11693-0.57379 0.14821-0.88355 0.70657 0.02993 1.3321 0.1106 2.0373 0.18019 0.08531 8.7e-4 0.052436 0.27103-0.031344 0.8564zm39.849-0.68769c0.68222-0.09973 1.372-0.14065 2.06-0.18661l0.14095 0.80472c-0.68286 0.10076-1.3728 0.15698-2.0591 0.22647-0.12121-0.25878-0.10993-0.59925-0.14177-0.84458zm-39.468-1.5643c-0.02166-0.02166 0.14394-0.75464 0.17824-0.78893 0.02498-0.02498 2.0108 0.36931 2.0482 0.40667 0.01161 0.01161-0.16174 0.81605-0.17796 0.82586-0.72242-0.14154-1.2874-0.26952-2.0484-0.44359zm39.129-0.31253c0.64126-0.30335 1.3573-0.3642 2.0475-0.47591 0.03609 0.03607 0.19855 0.76765 0.17559 0.79061-0.68723 0.16452-1.243 0.27567-1.9773 0.43302-0.18812-0.23802-0.15113-0.41985-0.24577-0.74772zm-17.672-0.12967c-0.2873-0.07247-0.53926-0.22564-0.78471-0.47705-0.69936-0.71633-0.70611-1.8146-0.01539-2.5053 0.86791-0.86791 2.3351-0.6222 2.8773 0.48185 0.11896 0.24227 0.12885 0.30233 0.12885 0.78264 0.052 0.79648-0.43456 1.1306-0.97503 1.6074-0.20429 0.10371-0.31592 0.12749-0.65351 0.13926-0.22392 0.0078-0.48378-0.0051-0.57748-0.02878zm-20.925-1.6979c-0.03088-0.02598 0.23887-0.78903 0.27894-0.78903 0.68629 0.17343 1.3912 0.46813 1.9506 0.73111-0.1395 0.43953-0.2372 0.69016-0.27239 0.69872-0.69818-0.19551-1.2342-0.39127-1.9572-0.64081zm38.037-0.13969c0-0.02245 1.9942-0.6608 2.0093-0.64318 0.03422 0.04001 0.26 0.77052 0.24331 0.7872-0.66629 0.23516-1.2049 0.40438-1.917 0.63929-0.21219-0.11564-0.25548-0.54265-0.33556-0.78331zm-36.516-3.5909c0.0232-0.09647 0.78908-1.4012 0.82252-1.4012 0.04035 0 4.2606 2.4332 4.3178 2.4894-0.2069 0.54498-0.46142 0.91315-0.78176 1.4529-1.5606-0.83784-2.7787-1.5383-4.3585-2.5412zm32.111 1.149c1.4966-0.98284 2.5942-1.5871 4.3259-2.5387 0.06325 0.02108 0.84425 1.4125 0.81132 1.4454-1.5907 0.93809-3.0226 1.7589-4.3436 2.5232-0.28362-0.46518-0.54134-0.95087-0.79362-1.4299zm-32.906 0.51574c0.083985-0.26721 0.25638-0.52205 0.37415-0.75683 0.08552 5.22e-4 1.8528 0.80644 1.8679 0.85182 0.01513 0.0454-0.24623 0.68287-0.30089 0.73388-0.70004-0.25334-1.2118-0.50241-1.9412-0.82887zm36.499 0.23066 1.9758-0.98862c0.16305 0.24922 0.22989 0.46976 0.36267 0.75773-0.64576 0.28744-1.2915 0.57488-1.9373 0.86232zm-34.311-4.1179c0.12117-0.26006 0.27413-0.42308 0.44065-0.67033 0.57714 0.42794 1.094 0.79789 1.6744 1.2221 0.03091 0.02794-0.43971 0.73192-0.48018 0.71829-0.59277-0.41559-1.0591-0.78158-1.6348-1.27zm32.324 0.57329c0.59404-0.43963 1.0494-0.77026 1.6893-1.2375 0.23407 0.17594 0.34072 0.58204 0.42566 0.7385-0.56804 0.43584-1.0135 0.7527-1.6253 1.1975-0.18039-0.21776-0.3329-0.47334-0.48971-0.69843zm-30.972-2.2956c0.14015-0.2542 0.31585-0.39791 0.51113-0.6283 0.52092 0.46067 1.0337 0.93452 1.5387 1.4101 0.01259 0.03319-0.4698 0.59344-0.53217 0.61808-0.56722-0.44767-0.9858-0.8608-1.5177-1.3999zm29.727 0.80876c0.4967-0.54604 0.93171-0.90724 1.5169-1.4357 0.20285 0.18299 0.36224 0.42083 0.5332 0.62233 0.0017 0.04835-1.4511 1.3841-1.5261 1.403-0.23254-0.1544-0.34082-0.37492-0.52402-0.58956zm-25.08-4.833c0.0213-0.06316 1.4132-0.84741 1.4458-0.81463 0.0417 0.04189 2.4835 4.27 2.4938 4.3183 0.0077 0.0359-1.3573 0.84771-1.4253 0.84771-0.87684-1.3743-1.7063-2.8974-2.5143-4.3513zm18.522 3.5021c0.01074-0.04797 2.4536-4.2764 2.4938-4.3166 0.03396-0.03395 1.423 0.74547 1.4447 0.81066 0.01644 0.04926-2.4487 4.3234-2.5039 4.3415-0.53292-0.23937-0.92485-0.51025-1.4346-0.83552zm-21.703-1.0589c0.18281-0.20269 0.42048-0.36192 0.62179-0.53271 0.0535-2e-3 1.3948 1.4663 1.3948 1.5269 0 0.04292-0.55425 0.5524-0.599 0.55062-0.52078-0.52584-0.88834-0.95429-1.4176-1.5448zm26.806 0.99691c0-0.05766 1.3456-1.5316 1.3964-1.5296 0.24602 0.1569 0.39166 0.33007 0.62067 0.5332-0.46022 0.52044-0.93364 1.0328-1.4088 1.5373-0.25446-0.13739-0.39199-0.34042-0.60827-0.54083zm-13.232-6.6887h1.6738v6.3332h-1.6738zm-11.863 4.2871c-0.01646-0.04583 0.60936-0.49123 0.66441-0.47288 0.46421 0.56771 0.78312 1.0273 1.2446 1.66-0.22336 0.17238-0.45801 0.33234-0.68579 0.49702-0.44399-0.57917-0.77589-1.0515-1.2233-1.6842zm23.491 1.1872c0.39202-0.5468 0.79354-1.0875 1.1973-1.6251 0.26703-0.03503 0.37607 0.19473 0.64033 0.34761l0.09817 0.07805c-0.40651 0.5681-0.82808 1.1299-1.2518 1.6824-0.25527-0.14496-0.44199-0.30682-0.68403-0.48302zm-18.838-1.5278c-0.28181-0.60811-0.62442-1.3246-0.85756-1.9575 0.24902-0.14407 0.45621-0.22226 0.72874-0.35048 0.28751 0.64592 0.57502 1.2918 0.86253 1.9377-0.24603 0.25857-0.68322 0.36296-0.7337 0.37025zm15.388-0.3888c0.27814-0.68466 0.51315-1.1963 0.83349-1.9192 0.26748 0.084103 0.52258 0.25661 0.75763 0.3745-8.7e-4 0.10737-0.81247 1.8557-0.8661 1.8652-0.27998-0.046208-0.47311-0.20493-0.72502-0.3206zm-14.24-2.3719c0-0.03713 0.76389-0.30139 0.79136-0.27376 0.04952 0.0498 0.64725 1.9643 0.62071 1.9881-0.243 0.10833-0.45561 0.16275-0.71885 0.25394-0.31963-0.66613-0.4509-1.1933-0.69322-1.9683zm12.377 1.6592c0.0054-0.06889 0.60312-1.9075 0.62832-1.9327 0.02778-0.02779 0.79172 0.23611 0.79172 0.27349 0 0.08744-0.64091 1.9804-0.66943 1.9772-0.28127-0.047674-0.51481-0.21455-0.75061-0.31804zm-10.24-2.2829c0.03191-0.0319 0.77184-0.20156 0.79184-0.18156 0.16337 0.68837 0.27698 1.2442 0.43587 1.9797-0.19687 0.19344-0.42864 0.1589-0.74819 0.24576-0.31476-0.55993-0.37754-1.4796-0.47952-2.0439zm8.3308 1.877c0.06786-0.74412 0.21514-1.2521 0.39998-2.058 0.02196-0.02194 0.75466 0.14321 0.78936 0.17791-0.09193 0.77727-0.26773 1.4206-0.43084 2.0593-0.26426-0.05353-0.49192-0.1159-0.7585-0.17916zm-5.9902-0.25318c-0.08357-0.76229-0.13112-1.3842-0.18019-2.0373l0.81398-0.08304c0.09931 0.68367 0.15664 1.3739 0.22648 2.0608-0.302 0.16317-0.65172 0.054003-0.86031 0.059522zm3.9937-0.03269c0.04135-0.6996 0.13194-1.3952 0.21488-2.09 0.23634 0.031895 0.60735 0.079944 0.84433 0.1033l-0.18814 2.1227c-0.25943-0.01364-0.61585-0.10047-0.87108-0.13603z" fill="#fff"/>
</svg>
