<?xml version="1.0" encoding="UTF-8"?>
<svg viewBox="0 0 48 48" xmlns="http://www.w3.org/2000/svg">
    <defs>
        <style>.cls-1{fill:#fff;fill-rule:evenodd;}</style>
    </defs>
    <g data-name="Layer 1">
        <path class="cls-1" d="M24,2A22,22,0,1,0,46,24,22,22,0,0,0,24,2Zm3.05,31.28a8.24,8.24,0,0,0,.17-1.53c.08-2.84-1.29-5.27-3-5.42s-3.23,2-3.3,4.88v.15a7.85,7.85,0,0,0,.21,1.9c-3.21.6-6.65,2.18-11.09,4.74,5.65-10.14,8.43-15.42,10.21-19.13a14.9,14.9,0,0,0,4,2.29A22.34,22.34,0,0,1,20.61,18c1.39-3,2.14-5,3.39-8,2.56,6,3.17,7.87,10.65,21.8a14.37,14.37,0,0,0-3.86-1.52,26.14,26.14,0,0,1,4.84,3.33C36.36,35,37.13,36.41,38,38,33.62,35.47,30.22,33.9,27.05,33.28Z"/>
    </g>
</svg>
