<?xml version="1.0" encoding="UTF-8"?>
<svg viewBox="0 0 48 48" xmlns="http://www.w3.org/2000/svg">
    <defs>
        <style>.cls-1{fill:#fff;}</style>
    </defs>
    <g data-name="Layer 4">
        <path class="cls-1" d="M38.68,28.91A3.5,3.5,0,0,0,36,30.14l-.82-.48V18.34l.82-.48a3.52,3.52,0,0,0,2.66,1.23,3.56,3.56,0,1,0-3.56-3.56,3.53,3.53,0,0,0,.2,1.13l-.82.48-9.81-5.66v-.94a3.56,3.56,0,1,0-1.38,0v.94L13.5,17.14l-.82-.48a3.48,3.48,0,0,0,.2-1.13,3.56,3.56,0,1,0-3.56,3.56A3.5,3.5,0,0,0,12,17.86l.82.48V29.66l-.82.47a3.53,3.53,0,0,0-2.66-1.22,3.56,3.56,0,1,0,3.56,3.56,3.48,3.48,0,0,0-.2-1.13l.82-.48,9.81,5.66v.94a3.56,3.56,0,1,0,1.38,0v-.94l9.81-5.66.82.48a3.48,3.48,0,0,0-.2,1.13,3.56,3.56,0,1,0,3.56-3.56Zm-12.87.41H22.45V18.82h3.36Z"/>
    </g>
</svg>
