<?xml version="1.0" encoding="UTF-8"?>
<svg viewBox="0 0 48 48" xmlns="http://www.w3.org/2000/svg">
    <defs>
        <style>.cls-1{fill:#fff;fill-rule:evenodd;}</style>
    </defs>
    <g data-name="Layer 1">
        <path class="cls-1" d="M24,2A22,22,0,1,0,46,24,22,22,0,0,0,24,2ZM17.48,15.44h0a16,16,0,0,1,13.57.15A15.67,15.67,0,0,1,38,22.1L35,23.55a14.7,14.7,0,0,0-19.29-6A15.7,15.7,0,0,0,10.41,22,15.91,15.91,0,0,1,17.48,15.44Zm4.72,5.35a10.41,10.41,0,0,0-7.71,3.38A11.49,11.49,0,0,1,24,18.78a11.16,11.16,0,0,1,9.52,5.52l-2.91,1.44A10.17,10.17,0,0,0,22.2,20.79Zm6.94,5.67-2.91,1.45a5.37,5.37,0,0,0-4-2.58,5.26,5.26,0,0,0-3.35,1,6.53,6.53,0,0,1,4.67-3A6.07,6.07,0,0,1,29.14,26.46Zm-5.32,7.45-17.6-8.8A.42.42,0,0,1,6,24.75v-2a.2.2,0,0,1,.29-.18l17.53,8.77a.38.38,0,0,0,.36,0l17.53-8.76a.2.2,0,0,1,.29.18v2a.42.42,0,0,1-.22.36l-17.6,8.8A.38.38,0,0,1,23.82,33.91Z"/>
    </g>
</svg>
