<svg xmlns="http://www.w3.org/2000/svg" viewBox="0 0 192 192" height="192" width="192">
    <path d="M96 8.295A87.705 87.705 0 0 0 8.295 96 87.705 87.705 0 0 0 96 183.705 87.705 87.705 0 0 0 183.705 96 87.705 87.705 0 0 0 96 8.295zm0 27.148c13.335 0 26.155 5.115 36.545 13.387l5.117-5.117 10.625 10.625-5.117 5.117c8.272 10.39 13.387 23.21 13.387 36.545 0 16.593-7.91 32.395-19.987 43.697l-5.468-5.793-5.383-5.7c9.19-8.62 15.463-20.466 15.464-32.204 0-8.848-3.572-17.755-9.262-25.3l-4.89 4.89-10.624-10.625 4.89-4.89c-7.546-5.69-16.453-9.26-25.3-9.26-22.386 0-45.186 22.8-45.187 45.185 0 11.578 6.11 23.26 15.097 31.848l-5.72 6.056-5.13 5.438C43.19 128.064 35.44 112.422 35.44 96c0-31.708 28.85-60.557 60.557-60.557z" fill="#fff" paint-order="fill markers stroke"/>
</svg>
