<?xml version="1.0" encoding="UTF-8"?>
<svg viewBox="0 0 48 48" xmlns="http://www.w3.org/2000/svg">
    <path d="M24 2.074A21.926 21.926 0 0 0 2.074 24 21.926 21.926 0 0 0 24 45.926 21.926 21.926 0 0 0 45.926 24 21.926 21.926 0 0 0 24 2.074zm0 6.787c3.334 0 6.54 1.28 9.136 3.348l1.28-1.28 2.656 2.656-1.28 1.28C37.86 17.46 39.14 20.666 39.14 24c0 4.148-1.978 8.1-4.997 10.924l-1.367-1.448-1.346-1.425c2.297-2.154 3.865-5.115 3.866-8.05 0-2.212-.893-4.44-2.316-6.325l-1.222 1.222-2.656-2.656 1.222-1.22c-1.886-1.424-4.113-2.316-6.325-2.316-5.597 0-11.297 5.7-11.297 11.296 0 2.894 1.527 5.815 3.774 7.962l-1.43 1.514-1.283 1.36C10.797 32.015 8.86 28.105 8.86 24c0-7.927 7.212-15.14 15.14-15.14z" fill="#fff" paint-order="fill markers stroke"/>
</svg>
