<?xml version="1.0" encoding="UTF-8"?>
<svg viewBox="0 0 48 48" xmlns="http://www.w3.org/2000/svg">
    <path d="M9.226 3.52A5.693 5.693 0 0 0 3.52 9.227v29.548a5.693 5.693 0 0 0 5.706 5.705h29.548a5.693 5.693 0 0 0 5.705-5.706V9.226a5.693 5.693 0 0 0-5.706-5.705zM24 5.993c3.51 0 6.146 1.918 8.05 4.716 1.905 2.798 3.126 6.483 3.923 10.156 1.594 7.342 1.485 14.657 1.485 14.668v.003c0 .003-.002.887-.095 1.897a12.54 12.54 0 0 1-.222 1.525c-.105.482-.235.91-.48 1.227a1.5 1.5 0 0 1-2.045.32c-.712-.484-1.238-1.538-1.373-3.338-.247-2.38.008-5.62-.69-8.22-.35-1.3-.925-2.426-1.892-3.23-1.725-1.366-4.3-1.856-6.66-1.856-2.488 0-4.418.373-6.66 1.856-.968.804-1.544 1.93-1.893 3.23-.697 2.6-.444 5.84-.69 8.22-.136 1.8-.662 2.855-1.372 3.337a1.5 1.5 0 0 1-2.045-.32c-.245-.317-.375-.744-.48-1.226a12.648 12.648 0 0 1-.224-1.526 23.738 23.738 0 0 1-.094-1.895v-.005c0-.012-.11-7.326 1.484-14.667.798-3.673 2.02-7.357 3.924-10.155C17.854 7.91 20.49 5.992 24 5.992zm0 3.5c-5.247 0-7.367 9.084-7.745 11.118 0 0 3.045-.983 7.745-.983s7.745.983 7.745.983C31.368 18.575 29.248 9.492 24 9.492zm0 15.577c2.957 0 5.354 1.542 5.354 3.445 0 1.702-1.09 2.915-1.385 5.02-.297 2.108.277 5.113.277 5.113-.877-1.225-1.946-1.8-2.33-3.717 0 0-.606.248-.83 1.936-.38 2.858-.527 3.242-2.127 5.233-.145-2.672-.257-3.057-.725-4.148-.44-1.03-1.683-2.758-2.53-4.398-.934-1.807-1.058-3.766-1.058-5.04 0-1.904 2.396-3.446 5.353-3.446z" fill="#fff" paint-order="fill markers stroke"/>
</svg>
