<?xml version="1.0" encoding="UTF-8"?>
<svg version="1.1" viewBox="0 0 48 48" xmlns="http://www.w3.org/2000/svg">
    <path d="m24 2a22 22 0 0 0-22 22 22 22 0 0 0 22 22 22 22 0 0 0 22-22 22 22 0 0 0-22-22zm0.080078 5.4043c0.049335 0.001848 0.099008 0.016224 0.14844 0.021484 0.063831 0.0067691 0.1267 0.015009 0.18945 0.027344 0.063066 0.01244 0.12491 0.0286 0.1875 0.046875 0.083333 0.02425 0.16431 0.051926 0.24414 0.085938 0.02346 0.009961 0.047033 0.014517 0.070313 0.025391 0.03192 0.014884 0.059004 0.034588 0.089844 0.050781 0.062761 0.033053 0.1222 0.068218 0.18164 0.10742 0.074011 0.048454 0.14458 0.10028 0.21094 0.15625 0.036622 0.03109 0.068835 0.063995 0.10352 0.097656 0.067854 0.065454 0.13135 0.13225 0.18945 0.20508 0.029 0.036553 0.059108 0.074531 0.085938 0.11328 0.061024 0.087574 0.11485 0.17842 0.16211 0.27344 0.00831 0.01671 0.019344 0.031818 0.027344 0.048828l11.645 24.971c0.17989 0.38582 0.23028 0.79556 0.18164 1.1875 0.031725 0.65758-0.45673 1.2683-1.1113 1.6309-0.042075 0.02307-0.078907 0.051676-0.12305 0.072266-0.02776 0.01295-0.057947 0.017606-0.085938 0.029297-0.76186 0.33804-1.6745 0.33247-2.293-0.38477-0.01131-0.01312-0.024046-0.021586-0.035156-0.035156-1.9351-2.2055-5.6552-3.1269-10.146-3.1289-4.4913-0.001947-8.2116 0.91643-10.15 3.1289-0.011349 0.01333-0.025529 0.022296-0.037109 0.035156-0.51553 0.57324-1.2303 0.67899-1.8906 0.50781-0.046115-0.00951-0.090849-0.020583-0.13672-0.033203-0.00768-0.0026-0.015837-0.005212-0.023437-0.007812-0.10953-0.031405-0.21949-0.063531-0.32617-0.11328-0.3265-0.15225-0.58926-0.37897-0.79492-0.64453-0.22377-0.2649-0.37476-0.5643-0.4082-0.88281-0.092783-0.44379-0.056807-0.91699 0.15039-1.3613l11.645-24.975c0.01034-0.02218 0.024166-0.038897 0.035156-0.060547 0.044403-0.087451 0.096194-0.17088 0.15234-0.25195 0.03086-0.044876 0.061983-0.086956 0.095703-0.12891 0.048174-0.059491 0.099527-0.11538 0.1543-0.16992 0.053664-0.053887 0.10952-0.10484 0.16797-0.15234 0.044821-0.036141 0.090512-0.070661 0.13867-0.10352 0.075651-0.052041 0.15318-0.096814 0.23437-0.13867 0.024991-0.012826 0.046586-0.030996 0.072266-0.042969 0.02317-0.010791 0.046973-0.015451 0.070313-0.025391 0.083593-0.035685 0.16845-0.06487 0.25586-0.089844 0.05188-0.014884 0.10208-0.030142 0.1543-0.041016 0.086654-0.017936 0.175-0.025953 0.26367-0.033203 0.052913-0.00433 0.10352-0.009312 0.15625-0.0097656 0.03291-3.5e-4 0.066589-0.0091025 0.099609-0.0078125zm-0.080078 7.3262-7.2148 15.473c2.2565-0.68134 4.7438-0.98157 7.2188-0.98047 2.4734 0.001072 4.9573 0.30339 7.2109 0.98438l-7.2148-15.477z" fill="#fff"/>
</svg>
