<?xml version="1.0" encoding="UTF-8"?>
<svg data-name="Layer 1" version="1.1" viewBox="0 0 48 48" xmlns="http://www.w3.org/2000/svg">
    <defs>
        <style>.cls-1{fill:#fff;}</style>
    </defs>
    <path d="m24 2a22 22 0 1 0 22 22 22 22 0 0 0-22-22zm-10.105 5.8867a1.1494 1.1494 0 0 1 0.11524 0 1.1494 1.1494 0 0 1 0.74805 0.31641l3.2539 3.2539a11.977 11.977 0 0 1 11.953 0l3.2305-3.2539a1.1494 1.1494 0 0 1 1.5859 0 1.1494 1.1494 0 0 1 0 1.5859l-2.9883 2.9883a11.931 11.931 0 0 1 4.1602 9.0703 1.6437 1.6437 0 0 1-1.6074 1.6543h-20.691a1.6437 1.6437 0 0 1-1.6543-1.6543 11.931 11.931 0 0 1 4.1602-9.0703l-2.9883-2.9883a1.1494 1.1494 0 0 1 0-1.5859 1.1494 1.1494 0 0 1 0.72266-0.31641zm4.8984 8.7305a1.7931 1.7931 0 0 0-1.793 1.793 1.7931 1.7931 0 0 0 1.793 1.793 1.7931 1.7931 0 0 0 1.793-1.793 1.7931 1.7931 0 0 0-1.793-1.793zm10.414 0a1.7931 1.7931 0 1 0 1.8164 1.793 1.7931 1.7931 0 0 0-1.793-1.793 1.7931 1.7931 0 0 0-0.023438 0zm-15.553 8.6777h20.691a1.6552 1.6552 0 0 1 1.6543 1.6562l-0.011719 3.4121a11.988 11.988 0 0 1-23.977 0v-3.4473a1.6552 1.6552 0 0 1 1.6426-1.6211zm10.273 1.877a1.538 1.538 0 0 0-1.2539 0.77734l-4.4688 7.8809a1.538 1.538 0 0 0 0 1.5371 1.5274 1.5274 0 0 0 1.3281 0.75781h8.9336a1.5274 1.5274 0 0 0 1.3281-0.75781 1.538 1.538 0 0 0 0-1.5371l-4.4473-7.8809a1.538 1.538 0 0 0-1.4062-0.77734 1.538 1.538 0 0 0-0.013672 0zm0.082032 4.6641 1.8223 3.2129h-3.6426l1.8203-3.2129z" fill="#fff"/>
</svg>
