<?xml version="1.0" encoding="UTF-8"?>
<svg data-name="Layer 1" viewBox="0 0 48 48" xmlns="http://www.w3.org/2000/svg">
    <defs>
        <style>.cls-1{fill:#fff;}</style>
    </defs>
    <path class="cls-1" d="M24,2A22,22,0,1,0,46,24,22,22,0,0,0,24,2ZM39.45,29.23l-3.2,5.55a.8.8,0,0,1-1,.34l-4-1.61a12.17,12.17,0,0,1-2.7,1.58L28,39.33a.81.81,0,0,1-.79.67H20.8a.83.83,0,0,1-.8-.67l-.6-4.24a12.33,12.33,0,0,1-2.7-1.58l-4,1.61a.8.8,0,0,1-1-.34l-3.2-5.55a.8.8,0,0,1,.19-1l3.38-2.65A11.46,11.46,0,0,1,12,24a11.69,11.69,0,0,1,.11-1.56L8.73,19.79a.8.8,0,0,1-.19-1l3.2-5.55a.81.81,0,0,1,1-.34l4,1.61a12.4,12.4,0,0,1,2.7-1.58L20,8.67A.83.83,0,0,1,20.8,8h6.4a.83.83,0,0,1,.8.67l.6,4.24a12.33,12.33,0,0,1,2.7,1.58l4-1.61a.8.8,0,0,1,1,.34l3.2,5.55a.8.8,0,0,1-.19,1l-3.39,2.65a10.2,10.2,0,0,1,0,3.12l3.38,2.65A.8.8,0,0,1,39.45,29.23Zm-14.1-9.95a1.56,1.56,0,0,0-2.7,0l-4.48,7.91a1.57,1.57,0,0,0,0,1.54,1.55,1.55,0,0,0,1.34.77h9a1.55,1.55,0,0,0,1.34-.77,1.57,1.57,0,0,0,0-1.54Zm-3.18,7.13L24,23.18l1.83,3.23Z"/>
</svg>
