<?xml version="1.0" encoding="UTF-8"?>
<svg data-name="Layer 1" viewBox="0 0 48 48" xmlns="http://www.w3.org/2000/svg">
    <defs>
        <style>.cls-1{fill:#fff;}</style>
    </defs>
    <polygon class="cls-1" points="24 13.97 20.06 20.57 27.94 20.57"/>
    <path class="cls-1" d="M25.46,24.66a1.67,1.67,0,0,0-2.92,0l-4.88,8.59a1.71,1.71,0,0,0,0,1.68,1.69,1.69,0,0,0,1.46.84h9.74a1.69,1.69,0,0,0,1.46-.84,1.71,1.71,0,0,0,0-1.68ZM22,32.4l2-3.5,2,3.5Z"/>
    <path class="cls-1" d="M24,2A22,22,0,1,0,46,24,22,22,0,0,0,24,2ZM37.18,37.27A2.33,2.33,0,0,1,34.92,39H13.08a2.33,2.33,0,0,1-2.26-1.73L7.18,23.81a2.57,2.57,0,0,1,2.48-3.24h6.48L22.55,9.82a1.69,1.69,0,0,1,2.9,0l6.41,10.75h6.48a2.57,2.57,0,0,1,2.48,3.24Z"/>
</svg>
