<?xml version="1.0" encoding="UTF-8"?>
<svg viewBox="0 0 48 48" xmlns="http://www.w3.org/2000/svg">
    <defs>
        <style>.cls-1{fill:#fff;fill-rule:evenodd;}</style>
    </defs>
    <g data-name="Layer 1">
        <path class="cls-1" d="M29.54,24a1.42,1.42,0,0,0-1.94-.49l-6,3.61a4.39,4.39,0,0,1-6-1.51A4.16,4.16,0,0,1,17,19.87l11.65-7A12,12,0,0,0,16.32,33.25l12.81-7.67A1.18,1.18,0,0,0,29.54,24Z"/>
        <path class="cls-1" d="M31.53,14.63l-13,7.79a1.15,1.15,0,0,0-.54.73,1.16,1.16,0,0,0,.13.89,1.42,1.42,0,0,0,1.94.49l6-3.61a4.39,4.39,0,0,1,6,1.51,4.17,4.17,0,0,1-1.43,5.7L19.16,35A12,12,0,0,0,31.53,14.63Z"/>
        <path class="cls-1" d="M24,2A22,22,0,1,0,46,24,22,22,0,0,0,24,2Zm0,37a14.9,14.9,0,0,1-7.8-2.21l-3.26,1.94a1.41,1.41,0,0,1-.76.21,1.46,1.46,0,0,1-1.27-.72,1.48,1.48,0,0,1,.51-2l2.24-1.34a15,15,0,0,1,18-23.73l3.08-1.84a1.48,1.48,0,0,1,1.52,2.55L34.2,13A15,15,0,0,1,24,39Z"/>
    </g>
</svg>
