<?xml version="1.0" encoding="UTF-8"?>
<svg width="48" height="48" viewBox="0 0 12.7 12.7" xmlns="http://www.w3.org/2000/svg">
    <path d="m6.35 0.52917a5.8208 5.8208 0 0 0-5.8208 5.8208 5.8208 5.8208 0 0 0 5.8208 5.8208 5.8208 5.8208 0 0 0 5.8208-5.8208 5.8208 5.8208 0 0 0-5.8208-5.8208zm1.4743 2.9538c0.11694-4e-6 0.23383 0.04506 0.32298 0.13436l1.2335 1.233c0.88286 0.88343 0.89723 2.3101 0.04444 3.2117-7e-3 0.0084-0.01383 0.01677-0.0217 0.02377-0.0038 0.0046-0.0079 0.0084-0.01189 0.01137-0.0037 0.0036-0.0071 0.0084-0.01085 0.01137-0.0083 0.0079-0.01597 0.01522-0.02429 0.02222-0.90165 0.85241-2.3286 0.83798-3.2117-0.04496l-1.233-1.2335c-0.17859-0.17784-0.17859-0.46776 0-0.64596 0.17819-0.17835 0.46701-0.17835 0.64544 0l1.234 1.2335c0.53846 0.53837 1.4113 0.54194 1.9544 0.01137 0.531-0.54312 0.52741-1.4166-0.01085-1.9549l-1.233-1.234c-0.17866-0.17824-0.17852-0.46654-5.17e-4 -0.64492 0.089063-0.089315 0.20604-0.13436 0.32298-0.13436zm-2.868 0.45785c0.57973 0.0074 1.157 0.23135 1.5984 0.67283l1.2335 1.234c0.17852 0.17832 0.17813 0.46711 0 0.64544-0.17852 0.17829-0.46735 0.17829-0.64544 0l-1.2335-1.233c-0.53863-0.53839-1.412-0.5424-1.9549-0.01137-0.53102 0.54297-0.52774 1.4165 0.010852 1.9549l1.234 1.234c0.17813 0.17793 0.17807 0.46711-5.167e-4 0.64544-0.17843 0.17822-0.46698 0.17822-0.64544 0l-1.234-1.2335c-0.88283-0.88293-0.8972-2.3098-0.044442-3.2117 0.0068-8e-3 0.013924-0.01577 0.021704-0.02377 0.00381-0.0042 0.00782-0.0084 0.011886-0.01137 0.0039-0.0037 0.00696-0.0089 0.010852-0.01188 0.00767-0.0077 0.015968-0.0147 0.024288-0.0217 0.45074-0.42614 1.0331-0.63577 1.6128-0.62839z" fill="#fff" stroke-width=".26458"/>
</svg>
