<?xml version="1.0" encoding="UTF-8"?>
<svg width="48" height="48" version="1.1" viewBox="0 0 12.7 12.7" xmlns="http://www.w3.org/2000/svg">
    <defs>
        <style>.cls-1{fill:#fff;}</style>
        <style>.cls-1{fill:#fff;}</style>
    </defs>
    <path d="m1.5193 0.52917c-0.54853 0-0.99012 0.44159-0.99012 0.99012v9.6614c0 0.54854 0.44159 0.99012 0.99012 0.99012h9.6614c0.54853 0 0.99012-0.44158 0.99012-0.99012v-9.6614c0-0.54854-0.44159-0.99012-0.99012-0.99012zm4.8529 2.5911 3.9961 1.9751-3.9961 1.9756-3.9956-1.9756zm-3.0742 2.7523 3.0303 1.4981 3.0303-1.4981 0.96532 0.47697-3.9956 1.9756-3.9961-1.9756zm0 1.2542 3.0303 1.4991 3.0303-1.4991 0.96532 0.47801-3.9956 1.9751-3.9961-1.9751z" fill="#fff" stroke-width=".30636"/>
</svg>
