<?xml version="1.0" encoding="UTF-8"?>
<svg viewBox="0 0 48 48" xmlns="http://www.w3.org/2000/svg">
    <defs>
        <style>.cls-1{fill:#fff;}</style>
    </defs>
    <g data-name="Layer 1">
        <path class="cls-1" d="M41,18.32c-.93,4.51-4.73,22.74-4.73,22.74S30.94,44,20.9,44,5.15,40.66,6.8,31.59,17.91,19.26,26.85,18c-.31,1.18-.44,5.48-2.29,6.29-2.59,1.13-6.92,3.23-7.06,8.82s8.27,3.8,8.9,3.34c.08-.42,3.5-16.9,4.21-20.3s-1.1-4.52-5-4.53-7.75,1.49-10.34,2.46h0c-.49-2.9-1.13-6.77,1.82-8A34.7,34.7,0,0,1,29.52,4c4.56,0,8.05,1.36,10,3.76S42,13.8,41,18.32Z"/>
    </g>
</svg>
