<?xml version="1.0" encoding="UTF-8"?>
<svg viewBox="0 0 48 48" xmlns="http://www.w3.org/2000/svg">
    <path d="m15.986 8.5739c1.453 0.51136 3.8352 1.4405 5.0886 2.5693l9.1546-0.09354c0.25568-0.32428 0.34922-0.45523 0.62984-0.82316 0.66103-0.88552 0.69844-1.7898-0.71091-1.8022-0.75457-0.012472-12.665 0.037417-14.056 0.056125-0.21203-0.012472-0.37416-0.012472-0.10601 0.09354zm21.253 2.8811-15.915 0.2931c0.0686 0.64855-0.62984 1.5902-2.0704 2.4757-0.7421 0.45524-2.4258 1.3595-8.4 3.6232-0.08107 0.02495-0.03742 0.11849 0.01247 0.10601 10.327-2.6192 17.18-4.5711 26.372-6.3234 0.28686-0.04989 0.46147-0.17461 0-0.17461zm-9.5973 2.8312-14.268 3.6045c-0.02495 0.01247-0.05612 0.05612 0.02494 0.05612l11.05-0.34922c0.6735-0.02494 1.1599-0.56748 1.4156-0.90423l1.8022-2.3448c0.04365-0.03742 0.04365-0.09354-0.02494-0.06236zm-10.994 11.68h0.84811l-2.0454-4.7644h-0.83564l-2.033 4.7644h0.84187l0.40535-0.9853h2.4134zm-1.6151-3.9412 0.94165 2.2637h-1.8708zm-6.6299-0.82393v4.7773h3.2754v-0.69727h-2.5078v-4.0801zm21.029 9.2489c0-1.3844-1.0227-2.4633-2.4757-2.4633s-2.4757 1.0664-2.4757 2.4633c0 1.4031 1.0227 2.4633 2.4757 2.4633 0.21826 0 0.41782-0.02494 0.6049-0.0686l0.34922 0.84811h0.84811l-0.49889-1.1163c0.72962-0.43029 1.1724-1.2098 1.1724-2.1265zm-2.4757 1.7648c-1.0352 0-1.7087-0.76704-1.7087-1.7648 0-0.99777 0.66103-1.7648 1.7087-1.7648 1.0352 0 1.7087 0.76704 1.7087 1.7648 0 0.6049-0.25568 1.1287-0.68597 1.453l-0.18708-0.44276h-0.81069l0.3118 0.72962c-0.11849 0.01247-0.23074 0.02494-0.33675 0.02494zm10.127 4.727v-1.3096h2.5942v-0.69844h-3.3613v4.7831h3.3924v-0.70468h-2.6254v-1.3719h2.033v-0.69844zm-8.3501-2.008-2.033 4.7831h0.84811l0.40535-0.9853h2.3947l0.40535 0.9853h0.84811l-2.033-4.7644h-0.83564zm-0.51136 3.0993 0.92918-2.2637 0.92918 2.2637zm-12.884-3.1929c-1.453 0-2.4757 1.0664-2.4757 2.4633 0 1.3844 1.0227 2.4633 2.4757 2.4633s2.4757-1.0664 2.4757-2.4633c0.01871-1.3969-1.0227-2.4633-2.4757-2.4633zm0 4.2156c-1.0352 0-1.7087-0.76704-1.7087-1.7648 0-0.99778 0.66103-1.7648 1.7087-1.7648 1.0352 0 1.7087 0.76704 1.7087 1.7648 0 0.99777-0.65479 1.7648-1.7087 1.7648zm5.3755-2.1577c-0.83564-0.14967-1.2535-0.26815-1.241-0.66102 0.01247-0.36169 0.3118-0.62984 0.83564-0.68597 0.11849-0.01247 0.24321-0.01247 0.37416 0 0.43029 0.02494 0.87305 0.18708 1.1599 0.43029 0.02494 0.01247 0.0686 0.03742 0.08107 0.0686l0.41782-0.6049c-0.39287-0.34922-1.0788-0.59243-1.7648-0.59243-1.1163 0-1.8708 0.6049-1.8833 1.4405-0.02494 0.9853 0.87305 1.1849 1.7087 1.3345 0.94165 0.17461 1.3719 0.26815 1.3595 0.68597-0.01247 0.39287-0.34922 0.71091-1.0352 0.75457h-0.26815c-0.61737-0.03742-1.1038-0.24321-1.4405-0.56748-0.02494-0.02494-0.05612-0.03742-0.08107-0.0686l-0.43029 0.61737c0.49889 0.47394 1.1849 0.72962 2.033 0.72962 1.2223 0 1.9644-0.6049 1.9893-1.4967 0.03742-1.0601-0.9167-1.2223-1.8147-1.3844zm14.767 2.114h-2.1951v-4.0784h-0.75457v4.7831h2.9497zm-10.034 0.70468v-4.0846h1.4717v-0.69844h-3.6918v0.69844h1.4717v4.0846zm-14.954-4.7831h-2.0891v4.7831h0.76704v-1.7523h1.1973c0.03742 0 0.21826 0 0.25568-0.01247 0.84811-0.05612 1.4281-0.69844 1.4281-1.5091 0-0.83564-0.61737-1.5091-1.559-1.5091zm-0.0686 2.3323h-1.2472v-1.6276h1.2535c0.48642 0 0.86058 0.33675 0.86058 0.82316-0.0062 0.46771-0.3804 0.80446-0.86682 0.80446zm25.768-9.1977v4.7696h3.5117v-0.69727h-2.7441v-1.373h2.1504v-0.69727h-2.1504v-1.3047h2.7188v-0.69727zm-5.5742 0v2.8672c0 1.2909 0.84691 1.9785 2.0879 1.9785 1.2535 0 2.0898-0.67517 2.0898-1.9785v-2.8672h-0.76758v2.8555c0 0.84811-0.4991 1.291-1.3223 1.291-0.81069 0-1.3223-0.44291-1.3223-1.291v-2.8555zm-11.613 0v4.7637h0.76758v-3.541l2.7324 3.541h0.7168v-4.7637h-0.76758v3.4863l-2.707-3.4863zm-3.8281 0-2.0332 4.7637h0.84766l0.40625-0.98438h2.3945l0.4043 0.98438h0.84961l-2.0332-4.7637zm0.41797 0.82227 0.94141 2.2637h-1.8711zm-7.1914-0.82227v4.7637h2.6445c0.83564 0 1.373-0.52398 1.373-1.291 0-0.6049-0.40661-1.0659-0.91797-1.1719 0.38664-0.13096 0.69922-0.51057 0.69922-1.0469 0-0.69844-0.51127-1.2539-1.3594-1.2539zm0.77344 0.69727h1.5605c0.43029 0 0.68555 0.26924 0.68555 0.66211 0 0.39287-0.25639 0.66016-0.66797 0.66016h-1.5781zm0 2.0078h1.7539c0.44276-1e-6 0.71094 0.29463 0.71094 0.6875 0 0.41782-0.27516 0.68555-0.69922 0.68555h-1.7656zm-4.2023-25.792h38.165v38.165h-38.165z" fill="#fff"/>
</svg>
