<?xml version="1.0" encoding="UTF-8"?>
<svg version="1.1" viewBox="0 0 48 48" xmlns="http://www.w3.org/2000/svg">
    <path d="m81.096-27.73c0 0.50857-0.41228 0.92086-0.92086 0.92086s-0.92086-0.41228-0.92086-0.92086 0.41228-0.92086 0.92086-0.92086 0.92086 0.41228 0.92086 0.92086zm-3.4222 0c0 0.50857-0.41228 0.92086-0.92085 0.92086s-0.92085-0.41228-0.92085-0.92086 0.41228-0.92086 0.92085-0.92086 0.92085 0.41228 0.92085 0.92086zm-20.065-9.9053c-1.4227 0.57535-4.0178 3.1681-4.4802 6.1852h7.0953c-0.71388 2.6419-0.97044 4.5509 0.10791 7.0791l-7.2032 5.84e-4c-0.57316 2.3588 1.9214 4.7282 3.2877 5.7781 0 0-5.6327-0.79823-6.1438-0.018-0.57146 0.87232-1.0576 1.232 7.5521 9.2733 10.528 9.8326 9.0899 9.7811 18.993-0.14748 7.4312-7.4507 7.643-8.2406 6.8956-9.1294-0.46217-0.54966-5.8327 0-5.8327 0 1.4037-0.88602 3.0881-2.6902 3.0881-5.7571h-6.4747v-7.0791h6.4747c-0.05615-2.6505-2.3102-5.5037-3.9316-6.1852zm8.5539 5.1169h6.7122l0.03768 9.2643-7.5053 0.03771c-4.9813-0.03729-4.602-9.3021 0.75539-9.3021zm4.3003 2.6457-5.0575 0.0324 0.01972 3.9532 4.9946-0.06839-0.01253-0.86869-3.455 0.0252 0.0108-2.0431 3.5341-0.0341z" display="none" fill="#fff"/>
    <path d="m12.746 5.0488c-1.6663 1.8043-2.899 4.036-3.5039 6.5527h7.4805c-0.74815 0.99377-1.1539 2.2034-1.1562 3.4473 0.0018 1.2437 0.40685 2.4532 1.1543 3.4473h-7.4785c0.71639 2.966 2.335 5.6369 4.6328 7.6445 0 0-5.438-1.31-6.7148-0.0332-2.2865 2.2865 15.112 16.844 16.844 16.844s19.079-14.608 16.844-16.844c-1.237-1.237-7.5586 0-7.5586 0 2.2805-2.0032 3.8874-4.6612 4.6016-7.6113h-6.625v-6.8945h6.625c-0.60495-2.5167-1.8376-4.7484-3.5039-6.5527zm9.5195 5h7v10h-7v-0.01563c-2.6373-0.15892-4.6957-2.3423-4.6992-4.9844 3.76e-4 -2.6443 2.0597-4.8312 4.6992-4.9902zm-0.8125 2.875v4.25h5.5v-1.0625h-3.4492v-2.125h3.4492v-1.0625zm11.727 1.125c-0.55228 0-1 0.44772-1 1s0.44772 1 1 1 1-0.44772 1-1-0.44772-1-1-1zm3.377 0c-0.55228 0-1 0.44772-1 1s0.44772 1 1 1 1-0.44772 1-1-0.44772-1-1-1z" fill="#fff"/>
</svg>
