<?xml version="1.0" encoding="UTF-8"?>
<svg version="1.1" viewBox="0 0 48 48" xmlns="http://www.w3.org/2000/svg">
    <path d="m7 5c-1.108 0-2 0.892-2 2v34c0 1.108 0.892 2 2 2h34c1.108 0 2-0.892 2-2v-34c0-1.108-0.892-2-2-2h-34zm16.201 5.082l1.0234 12.627-2.7812 0.24805-1.0234-12.625 2.7812-0.25zm-8.1426 1.291c1.0491 0.002448 1.8587 0.16876 2.4297 0.50195 0.76652 0.44379 1.1944 1.2259 1.2852 2.3457 0.047802 0.58963-0.042991 1.1048-0.27344 1.5449-0.23089 0.43469-0.58987 0.77455-1.0762 1.0195 0.6582 0.13743 1.1852 0.45202 1.5801 0.94531 0.39483 0.49329 0.62371 1.122 0.68555 1.8848 0.094729 1.1684-0.21393 2.074-0.92383 2.7148s-1.837 1.0302-3.3809 1.168l-4.9648 0.44141-0.98242-12.113 4.4922-0.40039c0.4028-0.035933 0.77922-0.05355 1.1289-0.052734zm14.932 1.5078c1.023 0.031333 1.8149 0.26858 2.375 0.70898 0.75158 0.58134 1.1867 1.5995 1.3047 3.0547l0.41992 5.1836-2.8047 0.25-0.10938-1.3457c-0.32828 0.58504-0.7145 1.0245-1.1602 1.3203-0.44609 0.29043-1.0036 0.46577-1.6719 0.52539-0.90144 0.080416-1.6566-0.12706-2.2656-0.62305-0.60425-0.50185-0.94262-1.1901-1.0137-2.0664-0.086396-1.0657 0.20033-1.8794 0.85938-2.4395 0.66423-0.56053 1.7476-0.90699 3.25-1.041l1.6387-0.14648-0.017578-0.22852c-0.037278-0.45981-0.23735-0.77898-0.60156-0.95898-0.36465-0.18542-0.91473-0.24531-1.6504-0.17969-0.59578 0.053149-1.1456 0.16381-1.6484 0.33398s-0.96458 0.39938-1.3848 0.6875l-0.17969-2.2148c0.5835-0.20461 1.1728-0.37066 1.7676-0.5 0.59438-0.13475 1.192-0.22959 1.793-0.2832 0.39244-0.035009 0.7586-0.047554 1.0996-0.03711zm-15.734 0.65625l-1.6543 0.14844 0.20703 2.5625 1.6562-0.14648c0.47144-0.042056 0.81897-0.18182 1.0449-0.41992 0.22595-0.2381 0.32327-0.5683 0.28906-0.99024-0.033769-0.41653-0.18232-0.72331-0.44336-0.91797-0.26148-0.20007-0.62816-0.27838-1.0996-0.23633zm16.697 4.4531l-1.4453 0.12891c-0.58024 0.051762-1.0085 0.19192-1.2871 0.42383-0.27346 0.23144-0.39573 0.54892-0.36328 0.94922 0.029822 0.36784 0.17164 0.64576 0.42188 0.83594 0.25498 0.1843 0.59208 0.25814 1.0117 0.2207 0.52325-0.046678 0.94754-0.28175 1.2734-0.70312 0.32546-0.42678 0.46382-0.9338 0.41602-1.5234l-0.027344-0.33203zm-15.787 0.21484c-0.13378-0.004752-0.2762 1.54e-4 -0.42774 0.013672l-1.7559 0.15625 0.25586 3.1719 1.7578-0.15625c0.60096-0.053611 1.0394-0.22571 1.3184-0.51758 0.28417-0.29233 0.40475-0.70665 0.36133-1.2422-0.04254-0.52472-0.22339-0.90387-0.54492-1.1367-0.24148-0.1787-0.56352-0.2748-0.96484-0.28906zm13.006 5.5254l1.0234 12.625-2.7812 0.24805-1.0234-12.625 2.7812-0.24805zm-8.1445 1.2891c1.0491 0.002448 1.8606 0.17072 2.4316 0.50391 0.76652 0.44379 1.1944 1.2259 1.2852 2.3457 0.047802 0.58963-0.04299 1.1029-0.27344 1.543-0.23089 0.43469-0.58987 0.77455-1.0762 1.0195 0.6582 0.13743 1.1852 0.45397 1.5801 0.94726 0.39483 0.49329 0.62176 1.1201 0.68359 1.8828 0.094729 1.1684-0.21198 2.074-0.92188 2.7148-0.7099 0.64088-1.837 1.0302-3.3809 1.168l-4.9648 0.44336-0.98242-12.115 4.4922-0.40039c0.4028-0.035933 0.77727-0.053551 1.127-0.052735zm14.934 1.5098c1.023 0.031332 1.8149 0.26662 2.375 0.70703 0.75158 0.58134 1.1867 1.5995 1.3047 3.0547l0.41992 5.1855-2.8047 0.25-0.10938-1.3477c-0.32828 0.58504-0.7145 1.0264-1.1602 1.3223-0.44609 0.29043-1.0036 0.46382-1.6719 0.52344-0.90144 0.080416-1.6566-0.12706-2.2656-0.62305-0.60425-0.50185-0.94262-1.1901-1.0137-2.0664-0.086396-1.0657 0.20033-1.8794 0.85938-2.4395 0.66423-0.56053 1.7476-0.90699 3.25-1.041l1.6387-0.14648-0.017578-0.22656c-0.037277-0.45981-0.23735-0.78093-0.60156-0.96094-0.36465-0.18542-0.91473-0.24531-1.6504-0.17969-0.59578 0.053148-1.1456 0.16576-1.6484 0.33594-0.5028 0.17017-0.96458 0.39938-1.3848 0.6875l-0.17969-2.2148c0.5835-0.20461 1.1728-0.37261 1.7676-0.50195 0.59438-0.13475 1.192-0.22959 1.793-0.2832 0.39244-0.035008 0.7586-0.0456 1.0996-0.035156zm-15.734 0.6543l-1.6543 0.14844 0.20703 2.5645 1.6562-0.14844c0.47144-0.042057 0.81897-0.18182 1.0449-0.41992s0.32327-0.5683 0.28906-0.99023c-0.033769-0.41653-0.18232-0.72136-0.44336-0.91602-0.26148-0.20007-0.62816-0.28034-1.0996-0.23828zm16.697 4.4531l-1.4453 0.12891c-0.58024 0.051762-1.0104 0.19388-1.2891 0.42578-0.27346 0.23144-0.39378 0.54696-0.36133 0.94727 0.029822 0.36784 0.16969 0.64576 0.41992 0.83594 0.25498 0.1843 0.59403 0.25814 1.0137 0.2207 0.52325-0.046677 0.94754-0.2798 1.2734-0.70117 0.32546-0.42678 0.46382-0.93576 0.41602-1.5254l-0.027344-0.33203zm-15.787 0.21484c-0.13378-0.004751-0.2762 1.54e-4 -0.42774 0.013672l-1.7559 0.15625 0.25586 3.1738 1.7559-0.1582c0.60096-0.05361 1.0413-0.22571 1.3203-0.51758 0.28417-0.29233 0.40475-0.70665 0.36133-1.2422-0.04254-0.52472-0.22339-0.90387-0.54492-1.1367-0.24148-0.1787-0.56352-0.2748-0.96484-0.28906z" fill="#fff"/>
</svg>
