<?xml version="1.0" encoding="UTF-8"?>
<svg version="1.1" viewBox="0 0 48 48" xmlns="http://www.w3.org/2000/svg">
    <path d="m7 5c-1.108 0-2 0.892-2 2v34c0 1.108 0.892 2 2 2h34c1.108 0 2-0.892 2-2v-34c0-1.108-0.892-2-2-2h-34zm13.826 4.6934c0.45378 0.001364 0.95409 0.0051787 1.5078 0.011719 2.8232 0.033362 3.6646 0.073227 4.041 0.1875 1.5724 0.47733 2.9505 1.3294 4.1855 2.5879 1.7336 1.7666 2.6119 3.7237 2.6152 5.832 0.001756 1.1034 0.17808 1.5103 0.82031 1.8867 0.40488 0.23728 0.54929 0.26143 1.832 0.31836 0.7655 0.033971 1.4817 0.11096 1.5938 0.17188 0.36417 0.19796 0.68428 0.67429 0.79688 1.1855 0.07773 0.35273 0.10017 1.7492 0.074219 4.7324-0.034386 3.9526-0.050633 4.2799-0.23828 4.9531-0.4517 1.6205-1.1439 2.8407-2.248 3.9688-1.5263 1.5593-3.1523 2.3926-5.2285 2.6758-1.1938 0.16283-12.85 0.11993-13.795-0.050781-1.9853-0.35864-3.9719-1.6283-5.2969-3.3867-0.69552-0.92304-1.0326-1.5735-1.3672-2.6348-0.405-1.2845-0.45066-2.237-0.41016-8.7188 0.03233-5.1738 0.060399-6.0728 0.19727-6.6348 0.72871-2.9921 2.7256-5.3262 5.5059-6.4336 1.3195-0.52559 2.2376-0.66181 5.4141-0.65234zm0.58008 7.5918c-3.121 0 -3.2592 0.020049-3.7578 0.52344-0.78011 0.78759-0.38368 2.3109 0.67773 2.6035 0.20113 0.05541 1.5529 0.086072 3.248 0.076172 2.7452-0.016124 2.9183-0.026741 3.209-0.21094 0.54137-0.34304 0.7832-0.76975 0.7832-1.3789 0 -0.67446-0.25876-1.098-0.85352-1.3984-0.41157-0.20801-0.50482-0.21484-3.3066-0.21484zm2.5703 10.277c-5.5624 0.004382-5.7606 0.018392-6.2129 0.42773-0.35883 0.32473-0.59328 0.9639-0.52344 1.4297 0.073327 0.48897 0.49752 1.0417 0.95312 1.2402 0.22622 0.098574 1.4583 0.17783 5.8047 0.12695l4.9453-0.058593 0.94922-0.1543c0.92352-0.52305 1.0867-1.7962 0.32031-2.5117-0.54259-0.50657-0.51437-0.5045-6.2363-0.5z" fill="#fff"/>
</svg>
