<?xml version="1.0" encoding="UTF-8" standalone="no"?>
<svg
   xmlns:dc="http://purl.org/dc/elements/1.1/"
   xmlns:cc="http://creativecommons.org/ns#"
   xmlns:rdf="http://www.w3.org/1999/02/22-rdf-syntax-ns#"
   xmlns:svg="http://www.w3.org/2000/svg"
   xmlns="http://www.w3.org/2000/svg"
   xmlns:sodipodi="http://sodipodi.sourceforge.net/DTD/sodipodi-0.dtd"
   xmlns:inkscape="http://www.inkscape.org/namespaces/inkscape"
   width="48"
   height="48"
   viewBox="0 0 48 48"
   version="1.1"
   id="svg991"
   sodipodi:docname="briar.svg"
   inkscape:export-filename="/home/dannieboy/frost/app/src/main/res/drawable-xxxhdpi/briar.png"
   inkscape:export-xdpi="384"
   inkscape:export-ydpi="384"
   inkscape:version="0.92.4 (unknown)">
  <metadata
     id="metadata997">
    <rdf:RDF>
      <cc:Work
         rdf:about="">
        <dc:format>image/svg+xml</dc:format>
        <dc:type
           rdf:resource="http://purl.org/dc/dcmitype/StillImage" />
        <dc:title></dc:title>
      </cc:Work>
    </rdf:RDF>
  </metadata>
  <defs
     id="defs995">
    <mask
       maskUnits="userSpaceOnUse"
       id="mask1086">
      <g
         id="g1106"
         style="opacity:1">
        <circle
           cx="24"
           cy="24"
           r="22"
           id="circle1088"
           style="fill:#ffffff" />
        <path
           sodipodi:nodetypes="ccccccc"
           inkscape:connector-curvature="0"
           id="path1090"
           d="M 14.510526,21.378947 20.4,21.363158 20.48549,37.716099 c 0.0076,0.894134 -0.810406,2.084194 -2.043383,2.104954 l -1.815789,-0.01579 c -0.90656,-0.0098 -2.164894,-0.941704 -2.163158,-2.131579 z"
           style="opacity:1;fill:#000000;fill-opacity:1;stroke:none;stroke-width:1px;stroke-linecap:butt;stroke-linejoin:miter;stroke-opacity:1" />
        <path
           sodipodi:nodetypes="ccccccc"
           inkscape:connector-curvature="0"
           id="path1092"
           d="m 13.62111,27.546006 -0.02233,6.029016 -3.429523,-0.0038 C 9.2068168,33.557633 8.1231186,32.855723 8.1095079,31.677029 l 0.00135,-2.218534 c -0.010129,-1.025877 0.9666278,-1.937222 2.0491461,-1.934788 z"
           style="fill:#000000;fill-opacity:1;stroke:none;stroke-width:1px;stroke-linecap:butt;stroke-linejoin:miter;stroke-opacity:1" />
        <path
           sodipodi:nodetypes="ccccccc"
           inkscape:connector-curvature="0"
           id="path1094"
           d="m 21.244737,27.552632 0.03158,6.007894 h 16.728947 c 1.00835,0.0015 1.829081,-0.659143 1.839474,-1.713158 l -0.0079,-2.273684 c 0.002,-1.354822 -0.713702,-2.018687 -1.918421,-2.028947 z"
           style="fill:#000000;fill-opacity:1;stroke:none;stroke-width:1px;stroke-linecap:butt;stroke-linejoin:miter;stroke-opacity:1" />
        <path
           sodipodi:nodetypes="ccccccc"
           inkscape:connector-curvature="0"
           id="path1096"
           d="m 27.521053,34.278947 6.047368,0.01579 v 3.28421 c 0.0035,1.293955 -0.642179,2.27596 -1.847368,2.242106 l -2.273685,0.01579 c -1.100498,-0.0066 -1.933256,-0.824377 -1.942105,-1.989474 z"
           style="fill:#000000;fill-opacity:1;stroke:none;stroke-width:1px;stroke-linecap:butt;stroke-linejoin:miter;stroke-opacity:1" />
        <path
           sodipodi:nodetypes="ccccccc"
           inkscape:connector-curvature="0"
           id="path1098"
           d="m 27.504867,26.813797 6.130659,0.0046 c 0,0 0.04326,-16.494187 0.0097,-16.538846 -0.01674,-1.0885729 -1.015025,-2.0751255 -1.898023,-2.0710788 l -2.18831,-0.011166 c -0.975752,6.33*10^-5 -2.042259,0.9767982 -2.043164,1.8757188 z"
           style="fill:#000000;fill-opacity:1;stroke:none;stroke-width:1px;stroke-linecap:butt;stroke-linejoin:miter;stroke-opacity:1" />
        <path
           sodipodi:nodetypes="ccccccc"
           inkscape:connector-curvature="0"
           id="path1100"
           d="m 34.309565,14.416149 v 6.151829 l 3.561586,-0.01116 c 1.042516,-0.0062 2.027248,-0.619585 2.020836,-1.898024 l 0.01116,-2.16598 c 0.0043,-1.091067 -0.794084,-2.017005 -1.864529,-2.065495 z"
           style="fill:#000000;fill-opacity:1;stroke:none;stroke-width:1px;stroke-linecap:butt;stroke-linejoin:miter;stroke-opacity:1" />
        <path
           sodipodi:nodetypes="ccccccc"
           inkscape:connector-curvature="0"
           id="path1102"
           d="m 26.802632,14.423684 0.03947,6.228948 H 10.373681 c -1.3788861,-0.005 -2.3226373,-1.039126 -2.3289471,-2.234211 v -2.1 c 0.014197,-0.968753 0.8030357,-1.879515 2.0289471,-1.886842 z"
           style="fill:#000000;fill-opacity:1;stroke:none;stroke-width:1px;stroke-linecap:butt;stroke-linejoin:miter;stroke-opacity:1" />
        <path
           sodipodi:nodetypes="ccccccc"
           inkscape:connector-curvature="0"
           id="path1104"
           d="m 14.344737,13.8 h 6.236842 V 9.9947368 c -0.0087,-1.3403505 -0.56567,-1.8354819 -1.934211,-1.831579 h -2.178947 c -1.258788,-0.00755 -2.148687,0.06992 -2.1625,1.7571962 z"
           style="fill:#000000;fill-opacity:1;stroke:none;stroke-width:1px;stroke-linecap:butt;stroke-linejoin:miter;stroke-opacity:1" />
      </g>
    </mask>
  </defs>
  <sodipodi:namedview
     pagecolor="#ffffff"
     bordercolor="#666666"
     borderopacity="1"
     objecttolerance="10"
     gridtolerance="10"
     guidetolerance="10"
     inkscape:pageopacity="0"
     inkscape:pageshadow="2"
     inkscape:window-width="1278"
     inkscape:window-height="1003"
     id="namedview993"
     showgrid="false"
     inkscape:zoom="8"
     inkscape:cx="24.740191"
     inkscape:cy="28.748335"
     inkscape:window-x="0"
     inkscape:window-y="19"
     inkscape:window-maximized="0"
     inkscape:current-layer="svg991" />
  <circle
     fill="#fff"
     cx="24"
     cy="24"
     r="22"
     id="circle989"
     mask="url(#mask1086)" />
</svg>
