<?xml version="1.0" encoding="UTF-8"?>
<svg viewBox="0 0 48 48" xmlns="http://www.w3.org/2000/svg">
    <defs>
        <style>.cls-1{fill:#fff;}</style>
    </defs>
    <g data-name="Layer 1">
        <path class="cls-1" d="M6.1,35.87a5.18,5.18,0,0,0,7.33,7.32C16.49,40.12,44.89,5.26,44.89,5.26S9.17,32.8,6.1,35.87Z"/>
        <path class="cls-1" d="M34.83,4.86A22,22,0,0,0,2,24a22.24,22.24,0,0,0,.87,6.09C8.13,25.59,25.05,12.43,34.83,4.86Z"/>
        <path class="cls-1" d="M19.94,45.61A21.75,21.75,0,0,0,24,46,22,22,0,0,0,44.48,16C37,25.13,24.94,39.85,19.94,45.61Z"/>
    </g>
</svg>
