<?xml version="1.0" encoding="UTF-8"?>
<svg version="1.1" viewBox="0 0 48 48" xmlns="http://www.w3.org/2000/svg">
    <path d="m6 11.992c-1.108 0-2 0.892-2 2v23.396c0 1.108 0.892 2 2 2h36c1.108 0 2-0.892 2-2v-23.396c0-1.108-0.892-2-2-2h-36zm8.5664 6.2188h18.867c1.108 0 2 0.892 2 2v2.6172c0 1.108-0.892 2-2 2h-18.867c-1.108 0-2-0.892-2-2v-2.6172c0-1.108 0.892-2 2-2z" fill="#fff" stroke-width=".9253"/>
    <path d="m8.8926 8.6109c-0.554 0-1 0.446-1 1v3.0703c0 0.554 0.446 1 1 1h30.215c0.554 0 1-0.446 1-1v-1.3789c0-0.554-0.446-1-1-1h-15.115v-0.69141c0-0.554-0.446-1-1-1z" fill="#fff"/>
</svg>
