<?xml version="1.0" encoding="UTF-8"?>
<svg viewBox="0 0 48 48" xmlns="http://www.w3.org/2000/svg">
    <path d="M6.98 4.88a2.095 2.095 0 0 0-2.1 2.1v12.912a2.095 2.095 0 0 0 2.1 2.1h12.912a2.095 2.095 0 0 0 2.1-2.1V6.982a2.095 2.095 0 0 0-2.1-2.1zm4.956 3.09h3v3.967h3.967v3h-3.966v3.966h-3v-3.966H7.97v-3h3.967z" fill="#fff"/>
    <rect x="26.008" y="4.88" width="17.112" height="17.112" ry="2.101" fill="#fff"/>
    <path d="M28.108 26.008a2.095 2.095 0 0 0-2.1 2.1V41.02a2.095 2.095 0 0 0 2.1 2.1H41.02a2.095 2.095 0 0 0 2.1-2.1V28.108a2.095 2.095 0 0 0-2.1-2.1zm.99 4.09H40.03v3H29.098zm0 5.93H40.03v3H29.098z" fill="#fff"/>
    <rect x="4.88" y="26.008" width="17.112" height="17.112" ry="2.101" fill="#fff"/>
</svg>
