<?xml version="1.0" encoding="UTF-8"?>
<svg viewBox="0 0 48 48" xmlns="http://www.w3.org/2000/svg">
    <defs>
        <style>.a{fill:#fff;}</style>
    </defs>
    <path class="a" d="M40.5,4.5H7.5a2,2,0,0,0-2,2v35a2,2,0,0,0,2,2h33a2,2,0,0,0,2-2V6.5A2,2,0,0,0,40.5,4.5ZM32.2,8.58h0a2.51,2.51,0,0,1,2.51,2.51h0A2.52,2.52,0,1,1,32.2,8.58ZM13.29,11.09A2.51,2.51,0,0,1,15.8,8.58h0a2.51,2.51,0,1,1-2.51,2.51Zm10,25.4H11.79V34.07l4.12-4.17c1.22-1.25,2-2.11,2.4-2.6a5.61,5.61,0,0,0,.8-1.34,3.32,3.32,0,0,0,.25-1.28,1.87,1.87,0,0,0-.54-1.47,2.14,2.14,0,0,0-1.46-.48,4.09,4.09,0,0,0-1.85.44,9.62,9.62,0,0,0-1.88,1.24l-1.88-2.23a12.09,12.09,0,0,1,2-1.46,7,7,0,0,1,1.74-.66,9.09,9.09,0,0,1,2.11-.23,6.32,6.32,0,0,1,2.72.56A4.47,4.47,0,0,1,22.16,22a4.24,4.24,0,0,1,.65,2.32,5.64,5.64,0,0,1-.4,2.13,8.1,8.1,0,0,1-1.23,2,30,30,0,0,1-2.95,3l-2.11,2v.16h7.15ZM34.4,35.23a7.14,7.14,0,0,1-4.85,1.48,9.55,9.55,0,0,1-4.43-.89v-3a8.5,8.5,0,0,0,2.07.77,9.08,9.08,0,0,0,2.23.3c2.12,0,3.18-.87,3.18-2.6s-1.09-2.49-3.29-2.49a8.06,8.06,0,0,0-1.31.12,10,10,0,0,0-1.17.25l-1.38-.74.62-8.36H35V23H29.11l-.3,3.22.39-.08A8.11,8.11,0,0,1,30.9,26a5.29,5.29,0,0,1,3.79,1.33A4.8,4.8,0,0,1,36.1,31,5.33,5.33,0,0,1,34.4,35.23Z"/>
</svg>
