<?xml version="1.0" encoding="UTF-8"?>
<svg viewBox="0 0 48 48" xmlns="http://www.w3.org/2000/svg">
    <defs>
        <style>.a{fill:#fff;}</style>
    </defs>
    <path class="a" d="M40.5,4.5H7.5a2,2,0,0,0-2,2v35a2,2,0,0,0,2,2h33a2,2,0,0,0,2-2V6.5A2,2,0,0,0,40.5,4.5ZM32.2,8.58h0a2.51,2.51,0,0,1,2.51,2.51h0A2.52,2.52,0,1,1,32.2,8.58ZM13.29,11.09A2.51,2.51,0,0,1,15.8,8.58h0a2.51,2.51,0,1,1-2.51,2.51Zm10,25.4H11.79V34.07l4.12-4.17c1.22-1.25,2-2.11,2.4-2.6a5.61,5.61,0,0,0,.8-1.34,3.32,3.32,0,0,0,.25-1.28,1.87,1.87,0,0,0-.54-1.47,2.14,2.14,0,0,0-1.46-.48,4.09,4.09,0,0,0-1.85.44,9.62,9.62,0,0,0-1.88,1.24l-1.88-2.23a12.09,12.09,0,0,1,2-1.46,7,7,0,0,1,1.74-.66,9.09,9.09,0,0,1,2.11-.23,6.32,6.32,0,0,1,2.72.56A4.47,4.47,0,0,1,22.16,22a4.24,4.24,0,0,1,.65,2.32,5.64,5.64,0,0,1-.4,2.13,8.1,8.1,0,0,1-1.23,2,30,30,0,0,1-2.95,3l-2.11,2v.16h7.15Zm13.13,0H24.92V34.07L29,29.9a35.16,35.16,0,0,0,2.39-2.6A5.37,5.37,0,0,0,32.24,26a3.32,3.32,0,0,0,.25-1.28A1.87,1.87,0,0,0,32,23.21a2.14,2.14,0,0,0-1.46-.48,4.06,4.06,0,0,0-1.85.44,9.33,9.33,0,0,0-1.88,1.24l-1.88-2.23a11.32,11.32,0,0,1,2-1.46,7,7,0,0,1,1.74-.66,9.09,9.09,0,0,1,2.11-.23,6.36,6.36,0,0,1,2.72.56A4.47,4.47,0,0,1,35.29,22a4.24,4.24,0,0,1,.65,2.32,5.64,5.64,0,0,1-.4,2.13,8.15,8.15,0,0,1-1.24,2,29.65,29.65,0,0,1-2.94,3l-2.12,2v.16H36.4Z"/>
</svg>
