<?xml version="1.0" encoding="UTF-8"?>
<svg viewBox="0 0 48 48" xmlns="http://www.w3.org/2000/svg">
    <defs>
        <style>.a{fill:#fff;}</style>
    </defs>
    <path class="a" d="m40.5 4.5h-33a2 2 0 0 0-2 2v35a2 2 0 0 0 2 2h33a2 2 0 0 0 2-2v-35a2 2 0 0 0-2-2zm-27.21 6.59a2.51 2.51 0 0 1 2.51-2.51 2.51 2.51 0 1 1-2.51 2.51zm7.08 25.4h-3.47v-9.49-1.56-1.7c-0.57 0.57-1 1-1.2 1.13l-1.8 1.5-1.67-2.09 5.29-4.21h2.85zm13.13 0h-3.5v-9.49-1.56l0.06-1.7c-0.58 0.57-1 1-1.2 1.13l-1.86 1.5-1.67-2.09 5.29-4.21h2.88zm1.21-25.4a2.52 2.52 0 1 1-2.51-2.51 2.51 2.51 0 0 1 2.51 2.51z"/>
</svg>
