<?xml version="1.0" encoding="UTF-8"?>
<svg version="1.1" viewBox="0 0 48 48" xmlns="http://www.w3.org/2000/svg">
    <path d="m24 4.8965a13.331 13.331 0 0 0 -13.332 13.332 13.331 13.331 0 0 0 0 0.01758 13.331 13.331 0 0 1 6.666 -1.8047 13.331 13.331 0 0 1 6.6582 1.7969 13.331 13.331 0 0 1 6.6719 -1.8086 13.331 13.331 0 0 1 6.666 1.7988 13.331 13.331 0 0 0 -13.33 -13.332z" fill="#fff"/>
    <path d="m10.668 18.242a13.331 13.331 0 0 0 -6.6641 11.531 13.331 13.331 0 0 0 13.33 13.33 13.331 13.331 0 0 0 6.6621 -1.8027 13.331 13.331 0 0 1 -6.6621 -11.527 13.331 13.331 0 0 1 0 -0.01367 13.331 13.331 0 0 1 -6.666 -11.518z" fill="#fff"/>
    <path d="m37.33 18.246a13.331 13.331 0 0 1 -6.666 11.508 13.331 13.331 0 0 1 0 0.0059 13.331 13.331 0 0 1 -6.6816 11.535 13.331 13.331 0 0 0 6.6816 1.8086 13.331 13.331 0 0 0 13.332 -13.33 13.331 13.331 0 0 0 -6.666 -11.527z" fill="#fff"/>
    <path d="m24.002 18.258a13.331 13.331 0 0 0 -6.668 11.516 13.331 13.331 0 0 0 6.666 1.7988 13.331 13.331 0 0 0 6.6641 -1.8047 13.331 13.331 0 0 0 -6.6621 -11.51z" fill="#fff"/>
</svg>
