<?xml version="1.0" encoding="UTF-8"?>
<svg viewBox="0 0 48 48" xmlns="http://www.w3.org/2000/svg">
    <defs>
        <style>.a{fill:#fff;}</style>
    </defs>
    <path class="a" d="M30.58,26.37a4.38,4.38,0,0,0,1.54-1.06,1.93,1.93,0,0,0,.44-1.25A1.5,1.5,0,0,0,32,22.84a2.25,2.25,0,0,0-1.44-.45,2.12,2.12,0,0,0-1.43.46,1.48,1.48,0,0,0-.55,1.21A1.9,1.9,0,0,0,29,25.27,4.88,4.88,0,0,0,30.58,26.37Z"/>
    <path class="a" d="m40.5 4.5h-33a2 2 0 0 0-2 2v35a2 2 0 0 0 2 2h33a2 2 0 0 0 2-2v-35a2 2 0 0 0-2-2zm-8.3 4.08a2.51 2.51 0 0 1 2.51 2.51 2.52 2.52 0 1 1-2.51-2.51zm-18.91 2.51a2.51 2.51 0 0 1 2.51-2.51 2.51 2.51 0 1 1-2.51 2.51zm7.08 25.4h-3.47v-9.49-1.56-1.7c-0.57 0.57-1 1-1.2 1.13l-1.8 1.5-1.67-2.09 5.29-4.21h2.85zm14.38-1a6.63 6.63 0 0 1-4.17 1.23 6.88 6.88 0 0 1-4.23-1.15 3.78 3.78 0 0 1-1.54-3.24 4.26 4.26 0 0 1 0.75-2.49 6 6 0 0 1 2.44-1.93 6.32 6.32 0 0 1-2-1.9 4.19 4.19 0 0 1-0.62-2.21 3.42 3.42 0 0 1 1.46-2.86 6.28 6.28 0 0 1 3.81-1.09 6.18 6.18 0 0 1 3.8 1.08 3.41 3.41 0 0 1 1.45 2.89 3.82 3.82 0 0 1-0.7 2.24 6 6 0 0 1-2.25 1.76 7.84 7.84 0 0 1 2.65 2.06 3.86 3.86 0 0 1 0.8 2.35 3.92 3.92 0 0 1-1.65 3.25z"/>
    <path class="a" d="M30.41,29.33C28.82,30.07,28,31,28,32.12a1.84,1.84,0,0,0,.67,1.5,2.89,2.89,0,0,0,1.85.54,2.83,2.83,0,0,0,1.93-.56,1.85,1.85,0,0,0,.64-1.46,2,2,0,0,0-.64-1.41A8.21,8.21,0,0,0,30.41,29.33Z"/>
</svg>
