<?xml version="1.0" encoding="UTF-8"?>
<svg viewBox="0 0 48 48" xmlns="http://www.w3.org/2000/svg">
    <defs>
        <style>.a{fill:#fff;}</style>
    </defs>
    <path class="a" d="m40.5 4.5h-33a2 2 0 0 0-2 2v35a2 2 0 0 0 2 2h33a2 2 0 0 0 2-2v-35a2 2 0 0 0-2-2zm-24.7 9.1a2.51 2.51 0 0 1-2.51-2.51 2.51 2.51 0 0 1 2.51-2.51 2.51 2.51 0 1 1 0 5zm14.39 19.48h-2v3.41h-3.37v-3.41h-7v-2.41l7.18-10.6h3.2v10.32h2zm4.52-22a2.52 2.52 0 1 1-2.51-2.5 2.51 2.51 0 0 1 2.51 2.51z"/>
    <path class="a" d="M23.88,25.84l-3,4.55h3.95V27.6c0-.46,0-1.14.06-2s.06-1.4.09-1.54h-.09A12.25,12.25,0,0,1,23.88,25.84Z"/>
</svg>
