<?xml version="1.0" encoding="UTF-8"?>
<svg viewBox="0 0 48 48" xmlns="http://www.w3.org/2000/svg">
    <defs>
        <style>.a{fill:#fff;}</style>
    </defs>
    <path class="a" d="M40.5,4.5H7.5a2,2,0,0,0-2,2v35a2,2,0,0,0,2,2h33a2,2,0,0,0,2-2V6.5A2,2,0,0,0,40.5,4.5ZM15.8,13.6a2.51,2.51,0,0,1-2.51-2.51h0A2.51,2.51,0,0,1,15.8,8.58h0a2.51,2.51,0,1,1,0,5Zm12,21.63a7.14,7.14,0,0,1-4.85,1.48,9.55,9.55,0,0,1-4.43-.89v-3a8.66,8.66,0,0,0,2.07.77,9.1,9.1,0,0,0,2.24.3c2.11,0,3.17-.87,3.17-2.6S24.9,28.8,22.7,28.8a8.06,8.06,0,0,0-1.31.12,10,10,0,0,0-1.17.25l-1.38-.74.62-8.36h8.9V23H22.5l-.3,3.22.39-.08a8.11,8.11,0,0,1,1.7-.15,5.29,5.29,0,0,1,3.79,1.33A4.8,4.8,0,0,1,29.49,31,5.33,5.33,0,0,1,27.79,35.23Zm6.92-24.14A2.52,2.52,0,1,1,32.2,8.58h0a2.51,2.51,0,0,1,2.51,2.51Z"/>
</svg>
