<?xml version="1.0" encoding="UTF-8"?>
<svg viewBox="0 0 48 48" xmlns="http://www.w3.org/2000/svg">
    <defs>
        <style>.a{fill:#fff;}</style>
    </defs>
    <path class="a" d="m40.5 4.5h-33a2 2 0 0 0-2 2v35a2 2 0 0 0 2 2h33a2 2 0 0 0 2-2v-35a2 2 0 0 0-2-2zm-8.3 4.08a2.51 2.51 0 0 1 2.51 2.51 2.52 2.52 0 1 1-2.51-2.51zm-18.91 2.51a2.51 2.51 0 0 1 2.51-2.51 2.51 2.51 0 1 1-2.51 2.51zm10 25.4h-11.5v-2.42l4.12-4.17c1.22-1.25 2-2.11 2.4-2.59a6.32 6.32 0 0 0 0.81-1.31 3.5 3.5 0 0 0 0.24-1.28 1.87 1.87 0 0 0-0.54-1.47 2.14 2.14 0 0 0-1.46-0.48 4.09 4.09 0 0 0-1.85 0.44 9.62 9.62 0 0 0-1.88 1.24l-1.88-2.23a12.09 12.09 0 0 1 2-1.46 7 7 0 0 1 1.74-0.66 9.09 9.09 0 0 1 2.11-0.23 6.32 6.32 0 0 1 2.72 0.56 4.47 4.47 0 0 1 1.84 1.57 4.24 4.24 0 0 1 0.65 2.32 5.64 5.64 0 0 1-0.4 2.13 8.1 8.1 0 0 1-1.23 2 30 30 0 0 1-2.95 3l-2.11 2v0.16h7.15zm11.61-1.85a4.89 4.89 0 0 1-4.34 2.07 4.86 4.86 0 0 1-4.29-2.13 11.33 11.33 0 0 1-1.44-6.3q0-4.35 1.41-6.41a4.86 4.86 0 0 1 4.32-2.06 4.85 4.85 0 0 1 4.29 2.19 11.34 11.34 0 0 1 1.46 6.32c0 2.82-0.47 4.95-1.41 6.32z"/>
    <path class="a" d="M30.56,22.62a1.81,1.81,0,0,0-1.75,1.32,12.76,12.76,0,0,0-.53,4.34,12.79,12.79,0,0,0,.52,4.33,1.83,1.83,0,0,0,3.51,0,12.38,12.38,0,0,0,.54-4.31,12.17,12.17,0,0,0-.55-4.34A1.82,1.82,0,0,0,30.56,22.62Z"/>
</svg>
