<?xml version="1.0" encoding="UTF-8"?>
<svg viewBox="0 0 48 48" xmlns="http://www.w3.org/2000/svg">
    <defs>
        <style>.a{fill:#fff;}</style>
    </defs>
    <path class="a" d="M40.5,4.5H7.5a2,2,0,0,0-2,2v35a2,2,0,0,0,2,2h33a2,2,0,0,0,2-2V6.5A2,2,0,0,0,40.5,4.5ZM32.2,8.58h0a2.51,2.51,0,0,1,2.51,2.51h0A2.52,2.52,0,1,1,32.2,8.58ZM13.29,11.09A2.51,2.51,0,0,1,15.8,8.58h0a2.51,2.51,0,1,1-2.51,2.51Zm7.08,25.4H16.9V27l0-1.56,0-1.7c-.57.57-1,1-1.2,1.13L13.9,26.37l-1.67-2.09,5.29-4.21h2.85Zm14-1.26a7.14,7.14,0,0,1-4.85,1.48,9.55,9.55,0,0,1-4.43-.89v-3a8.5,8.5,0,0,0,2.07.77,9.08,9.08,0,0,0,2.23.3c2.12,0,3.18-.87,3.18-2.6s-1.09-2.49-3.29-2.49a8.06,8.06,0,0,0-1.31.12,10,10,0,0,0-1.17.25l-1.38-.74.62-8.36H35V23H29.11l-.3,3.22.39-.08A8.11,8.11,0,0,1,30.9,26a5.29,5.29,0,0,1,3.79,1.33A4.8,4.8,0,0,1,36.1,31,5.33,5.33,0,0,1,34.4,35.23Z"/>
</svg>
