<?xml version="1.0" encoding="UTF-8"?>
<svg viewBox="0 0 48 48" xmlns="http://www.w3.org/2000/svg">
    <defs>
        <style>.a{fill:#fff;}</style>
    </defs>
    <path class="a" d="M40.5,4.5H7.5a2,2,0,0,0-2,2v35a2,2,0,0,0,2,2h33a2,2,0,0,0,2-2V6.5A2,2,0,0,0,40.5,4.5ZM32.2,8.58h0a2.51,2.51,0,0,1,2.51,2.51h0A2.52,2.52,0,1,1,32.2,8.58ZM13.29,11.09A2.51,2.51,0,0,1,15.8,8.58h0a2.51,2.51,0,1,1-2.51,2.51Zm10,25.4H11.79V34.07l4.12-4.17c1.22-1.25,2-2.11,2.4-2.6A6,6,0,0,0,19.12,26a3.5,3.5,0,0,0,.24-1.28,1.87,1.87,0,0,0-.54-1.47,2.14,2.14,0,0,0-1.46-.48,4.09,4.09,0,0,0-1.85.44,9.62,9.62,0,0,0-1.88,1.24l-1.88-2.23a12.09,12.09,0,0,1,2-1.46,7,7,0,0,1,1.74-.66,9.09,9.09,0,0,1,2.11-.23,6.32,6.32,0,0,1,2.72.56A4.47,4.47,0,0,1,22.16,22a4.24,4.24,0,0,1,.65,2.32,5.64,5.64,0,0,1-.4,2.13,8.1,8.1,0,0,1-1.23,2,30,30,0,0,1-2.95,3l-2.11,2v.16h7.15Zm11.65-1.31a5.46,5.46,0,0,1-4.11,1.53,5.92,5.92,0,0,1-3.18-.84,5.53,5.53,0,0,1-2.09-2.46,9.39,9.39,0,0,1-.73-3.9q0-4.87,2.06-7.25T33,19.88a11.44,11.44,0,0,1,2.2.16v2.78a8.9,8.9,0,0,0-2-.23,6.8,6.8,0,0,0-2.92.54,3.65,3.65,0,0,0-1.69,1.6,7.42,7.42,0,0,0-.66,3h.14a3.81,3.81,0,0,1,3.56-1.91,4.41,4.41,0,0,1,3.45,1.38A5.49,5.49,0,0,1,36.4,31,5.76,5.76,0,0,1,34.92,35.18Z"/>
    <path class="a" d="M30.81,28.48a2.61,2.61,0,0,0-1.81.68,2.13,2.13,0,0,0-.74,1.6A3.62,3.62,0,0,0,29,33a2.16,2.16,0,0,0,1.78.92,2.06,2.06,0,0,0,1.71-.75A3.4,3.4,0,0,0,33,31.06a2.88,2.88,0,0,0-.56-1.89A2,2,0,0,0,30.81,28.48Z"/>
</svg>
