<?xml version="1.0" encoding="UTF-8"?>
<svg viewBox="0 0 48 48" xmlns="http://www.w3.org/2000/svg">
    <defs>
        <style>.a{fill:#fff;}</style>
    </defs>
    <path class="a" d="M23.83,22.66a2.08,2.08,0,0,0-1.69.74,3.35,3.35,0,0,0-.6,2.14,3,3,0,0,0,.54,1.88,2,2,0,0,0,1.68.7,2.59,2.59,0,0,0,1.81-.69,2.11,2.11,0,0,0,.75-1.59,3.69,3.69,0,0,0-.7-2.26A2.18,2.18,0,0,0,23.83,22.66Z"/>
    <path class="a" d="m40.5 4.5h-33a2 2 0 0 0-2 2v35a2 2 0 0 0 2 2h33a2 2 0 0 0 2-2v-35a2 2 0 0 0-2-2zm-24.7 9.1a2.51 2.51 0 0 1-2.51-2.51 2.51 2.51 0 0 1 2.51-2.51 2.51 2.51 0 1 1 0 5zm11.92 20.72q-2 2.38-6.18 2.39a11.19 11.19 0 0 1-2.22-0.16v-2.78a8 8 0 0 0 2 0.23 6.94 6.94 0 0 0 2.86-0.51 3.61 3.61 0 0 0 1.72-1.6 7 7 0 0 0 0.69-3h-0.14a3.72 3.72 0 0 1-1.5 1.48 4.69 4.69 0 0 1-2.14 0.43 4.31 4.31 0 0 1-3.38-1.38 5.52 5.52 0 0 1-1.23-3.82 5.7 5.7 0 0 1 1.5-4.17 5.45 5.45 0 0 1 4.08-1.53 5.86 5.86 0 0 1 3.18 0.85 5.48 5.48 0 0 1 2.04 2.46 9.46 9.46 0 0 1 0.73 3.86c0.04 3.24-0.64 5.65-2.01 7.25zm7-23.23a2.52 2.52 0 1 1-2.52-2.51 2.51 2.51 0 0 1 2.51 2.51z"/>
</svg>
