<?xml version="1.0" encoding="UTF-8"?>
<svg viewBox="0 0 48 48" xmlns="http://www.w3.org/2000/svg">
    <defs>
        <style>.a{fill:#fff;}</style>
    </defs>
    <path class="a" d="M40.5,4.5H7.5a2,2,0,0,0-2,2v35a2,2,0,0,0,2,2h33a2,2,0,0,0,2-2V6.5A2,2,0,0,0,40.5,4.5ZM32.2,8.58h0a2.51,2.51,0,0,1,2.51,2.51h0A2.52,2.52,0,1,1,32.2,8.58ZM13.29,11.09A2.51,2.51,0,0,1,15.8,8.58h0a2.51,2.51,0,1,1-2.51,2.51Zm7.08,25.4H16.9V27l0-1.56,0-1.7c-.57.57-1,1-1.2,1.13L13.9,26.37l-1.67-2.09,5.29-4.21h2.85Zm14.15-1.1a7.9,7.9,0,0,1-4.9,1.32,11.89,11.89,0,0,1-4.74-.89v-3a11,11,0,0,0,2.1.79,8.89,8.89,0,0,0,2.26.3,4.47,4.47,0,0,0,2.54-.58,2.15,2.15,0,0,0,.82-1.88,1.69,1.69,0,0,0-.94-1.64,7,7,0,0,0-3-.48H27.4V26.72h1.27a5.92,5.92,0,0,0,2.79-.5,1.82,1.82,0,0,0,.88-1.72c0-1.24-.77-1.86-2.33-1.86a5.37,5.37,0,0,0-1.65.27,8.45,8.45,0,0,0-1.86.93l-1.6-2.39a8.91,8.91,0,0,1,5.36-1.62,7,7,0,0,1,4,1,3.31,3.31,0,0,1,1.48,2.88,3.87,3.87,0,0,1-.93,2.62,4.94,4.94,0,0,1-2.62,1.48v.07a5.21,5.21,0,0,1,3,1.2,3.4,3.4,0,0,1,1,2.59A4.38,4.38,0,0,1,34.52,35.39Z"/>
</svg>
