<?xml version="1.0" encoding="UTF-8"?>
<svg viewBox="0 0 48 48" xmlns="http://www.w3.org/2000/svg">
    <defs>
        <style>.a{fill:#fff;}</style>
    </defs>
    <path class="a" d="M40.5,4.5H7.5a2,2,0,0,0-2,2v35a2,2,0,0,0,2,2h33a2,2,0,0,0,2-2V6.5A2,2,0,0,0,40.5,4.5ZM15.8,13.6a2.51,2.51,0,0,1-2.51-2.51h0A2.51,2.51,0,0,1,15.8,8.58h0a2.51,2.51,0,1,1,0,5Zm14,22.89H18.28V34.07l4.13-4.17c1.22-1.25,2-2.11,2.39-2.59A6.32,6.32,0,0,0,25.61,26a3.5,3.5,0,0,0,.24-1.28,1.87,1.87,0,0,0-.54-1.47,2.12,2.12,0,0,0-1.46-.48,4.09,4.09,0,0,0-1.85.44,9.29,9.29,0,0,0-1.87,1.24l-1.89-2.23a12.09,12.09,0,0,1,2-1.46A7,7,0,0,1,22,20.06a9.09,9.09,0,0,1,2.11-.23,6.32,6.32,0,0,1,2.72.56A4.41,4.41,0,0,1,28.65,22a4.24,4.24,0,0,1,.65,2.32,5.64,5.64,0,0,1-.4,2.13,8.1,8.1,0,0,1-1.23,2,30,30,0,0,1-3,3l-2.11,2v.16h7.15Zm4.95-25.4A2.52,2.52,0,1,1,32.2,8.58h0a2.51,2.51,0,0,1,2.51,2.51Z"/>
</svg>
