<?xml version="1.0" encoding="UTF-8"?>
<svg viewBox="0 0 48 48" xmlns="http://www.w3.org/2000/svg">
    <defs>
        <style>.a{fill:#fff;}</style>
    </defs>
    <path class="a" d="M40.5,4.5H7.5a2,2,0,0,0-2,2v35a2,2,0,0,0,2,2h33a2,2,0,0,0,2-2V6.5A2,2,0,0,0,40.5,4.5ZM32.2,8.58h0a2.51,2.51,0,0,1,2.51,2.51h0A2.52,2.52,0,1,1,32.2,8.58ZM13.29,11.09A2.51,2.51,0,0,1,15.8,8.58h0a2.51,2.51,0,1,1-2.51,2.51Zm10,25.4H11.79V34.07l4.12-4.17c1.22-1.25,2-2.11,2.4-2.6a5.61,5.61,0,0,0,.8-1.34,3.32,3.32,0,0,0,.25-1.28,1.87,1.87,0,0,0-.54-1.47,2.14,2.14,0,0,0-1.46-.48,4.09,4.09,0,0,0-1.85.44,9.62,9.62,0,0,0-1.88,1.24l-1.88-2.23a12.09,12.09,0,0,1,2-1.46,7,7,0,0,1,1.74-.66,9.09,9.09,0,0,1,2.11-.23,6.32,6.32,0,0,1,2.72.56A4.47,4.47,0,0,1,22.16,22a4.24,4.24,0,0,1,.65,2.32,5.64,5.64,0,0,1-.4,2.13,8.1,8.1,0,0,1-1.23,2,30,30,0,0,1-2.95,3l-2.11,2v.16h7.15Zm11.25-1.1a7.9,7.9,0,0,1-4.9,1.32,11.89,11.89,0,0,1-4.74-.89v-3a11,11,0,0,0,2.1.79,8.89,8.89,0,0,0,2.26.3,4.47,4.47,0,0,0,2.54-.58,2.15,2.15,0,0,0,.82-1.88,1.69,1.69,0,0,0-.94-1.64,7,7,0,0,0-3-.48H27.4V26.71h1.27a5.8,5.8,0,0,0,2.79-.5,1.79,1.79,0,0,0,.88-1.71c0-1.24-.77-1.86-2.33-1.86a5.37,5.37,0,0,0-1.65.27,8.45,8.45,0,0,0-1.86.93l-1.6-2.39a8.91,8.91,0,0,1,5.36-1.62,6.88,6.88,0,0,1,4,1,3.31,3.31,0,0,1,1.48,2.88,3.89,3.89,0,0,1-.93,2.62,4.94,4.94,0,0,1-2.62,1.48v.07a5.21,5.21,0,0,1,3,1.2,3.4,3.4,0,0,1,1,2.59A4.38,4.38,0,0,1,34.52,35.39Z"/>
</svg>
