<?xml version="1.0" encoding="UTF-8"?>
<svg viewBox="0 0 48 48" xmlns="http://www.w3.org/2000/svg">
    <defs>
        <style>.a{fill:#fff;}</style>
    </defs>
    <path class="a" d="M30.49,28.48a2.6,2.6,0,0,0-1.8.68,2.11,2.11,0,0,0-.75,1.6,3.69,3.69,0,0,0,.7,2.26,2.17,2.17,0,0,0,1.78.92,2.05,2.05,0,0,0,1.71-.75,3.33,3.33,0,0,0,.6-2.13,2.94,2.94,0,0,0-.56-1.89A2,2,0,0,0,30.49,28.48Z"/>
    <path class="a" d="M40.5,4.5H7.5a2,2,0,0,0-2,2v35a2,2,0,0,0,2,2h33a2,2,0,0,0,2-2V6.5A2,2,0,0,0,40.5,4.5ZM32.2,8.58h0a2.51,2.51,0,0,1,2.51,2.51h0A2.52,2.52,0,1,1,32.2,8.58ZM13.29,11.09A2.51,2.51,0,0,1,15.8,8.58h0a2.51,2.51,0,1,1-2.51,2.51Zm6.77,25.4H16.59V27l0-1.56.06-1.7c-.58.57-1,1-1.2,1.13l-1.89,1.52-1.67-2.09,5.29-4.21h2.85ZM34.6,35.18a5.46,5.46,0,0,1-4.11,1.53,5.88,5.88,0,0,1-3.17-.84,5.47,5.47,0,0,1-2.09-2.46,9.39,9.39,0,0,1-.74-3.9q0-4.87,2.06-7.25t6.18-2.38a11.51,11.51,0,0,1,2.2.16v2.78a9.05,9.05,0,0,0-2-.23,6.75,6.75,0,0,0-2.91.54,3.55,3.55,0,0,0-1.69,1.6,7.24,7.24,0,0,0-.67,3h.15a3.8,3.8,0,0,1,3.56-1.91,4.41,4.41,0,0,1,3.45,1.38A5.49,5.49,0,0,1,36.08,31,5.72,5.72,0,0,1,34.6,35.18Z"/>
</svg>
