<?xml version="1.0" encoding="UTF-8"?>
<svg viewBox="0 0 48 48" xmlns="http://www.w3.org/2000/svg">
    <defs>
        <style>.a{fill:#fff;}</style>
    </defs>
    <path class="a" d="M30.39,22.66a2.05,2.05,0,0,0-1.68.74,3.29,3.29,0,0,0-.61,2.14,2.92,2.92,0,0,0,.55,1.88,2,2,0,0,0,1.67.7,2.57,2.57,0,0,0,1.81-.69,2.11,2.11,0,0,0,.75-1.59,3.62,3.62,0,0,0-.7-2.26A2.16,2.16,0,0,0,30.39,22.66Z"/>
    <path class="a" d="m40.5 4.5h-33a2 2 0 0 0-2 2v35a2 2 0 0 0 2 2h33a2 2 0 0 0 2-2v-35a2 2 0 0 0-2-2zm-8.3 4.08a2.51 2.51 0 0 1 2.51 2.51 2.52 2.52 0 1 1-2.51-2.51zm-18.91 2.51a2.51 2.51 0 0 1 2.51-2.51 2.51 2.51 0 1 1-2.51 2.51zm7.08 25.4h-3.47v-9.49-1.56-1.7c-0.57 0.57-1 1-1.2 1.13l-1.8 1.5-1.67-2.09 5.29-4.21h2.85zm13.92-2.17q-2.05 2.38-6.19 2.39a11.14 11.14 0 0 1-2.21-0.16v-2.78a7.93 7.93 0 0 0 2 0.23 7 7 0 0 0 2.87-0.51 3.61 3.61 0 0 0 1.72-1.6 7.21 7.21 0 0 0 0.68-3h-0.16a3.8 3.8 0 0 1-1.51 1.48 4.67 4.67 0 0 1-2.13 0.43 4.3 4.3 0 0 1-3.36-1.4 5.47 5.47 0 0 1-1.24-3.82 5.7 5.7 0 0 1 1.5-4.17 5.45 5.45 0 0 1 4.08-1.53 5.87 5.87 0 0 1 3.19 0.85 5.46 5.46 0 0 1 2.09 2.48 9.3 9.3 0 0 1 0.73 3.86c-0.02 3.24-0.7 5.65-2.06 7.25z"/>
</svg>
