<?xml version="1.0" encoding="UTF-8"?>
<svg viewBox="0 0 48 48" xmlns="http://www.w3.org/2000/svg">
    <defs>
        <style>.a{fill:#fff;}</style>
    </defs>
    <path class="a" d="M24.2,28.48a2.6,2.6,0,0,0-1.8.68,2.11,2.11,0,0,0-.75,1.6,3.69,3.69,0,0,0,.7,2.26,2.17,2.17,0,0,0,1.78.92,2,2,0,0,0,1.71-.75,3.33,3.33,0,0,0,.6-2.13,2.94,2.94,0,0,0-.56-1.89A2,2,0,0,0,24.2,28.48Z"/>
    <path class="a" d="m40.5 4.5h-33a2 2 0 0 0-2 2v35a2 2 0 0 0 2 2h33a2 2 0 0 0 2-2v-35a2 2 0 0 0-2-2zm-24.7 9.1a2.51 2.51 0 0 1-2.51-2.51 2.51 2.51 0 0 1 2.51-2.51 2.51 2.51 0 1 1 0 5zm12.51 21.58a5.46 5.46 0 0 1-4.11 1.53 5.88 5.88 0 0 1-3.2-0.84 5.47 5.47 0 0 1-2.09-2.46 9.39 9.39 0 0 1-0.73-3.9c0-3.25 0.68-5.67 2.06-7.25s3.43-2.38 6.17-2.38a11.51 11.51 0 0 1 2.2 0.16v2.78a9.05 9.05 0 0 0-2-0.23 6.75 6.75 0 0 0-2.91 0.54 3.6 3.6 0 0 0-1.69 1.6 7.24 7.24 0 0 0-0.67 3h0.15a3.8 3.8 0 0 1 3.56-1.91 4.41 4.41 0 0 1 3.45 1.38 5.49 5.49 0 0 1 1.29 3.8 5.72 5.72 0 0 1-1.48 4.18zm6.4-24.09a2.52 2.52 0 1 1-2.51-2.51 2.51 2.51 0 0 1 2.51 2.51z"/>
</svg>
