<?xml version="1.0" encoding="UTF-8"?>
<svg viewBox="0 0 48 48" xmlns="http://www.w3.org/2000/svg">
    <defs>
        <style>.a{fill:#fff;}</style>
    </defs>
    <path class="a" d="M40.5,4.5H7.5a2,2,0,0,0-2,2v35a2,2,0,0,0,2,2h33a2,2,0,0,0,2-2V6.5A2,2,0,0,0,40.5,4.5ZM15.8,13.6a2.51,2.51,0,0,1-2.51-2.51h0A2.51,2.51,0,0,1,15.8,8.58h0a2.51,2.51,0,1,1,0,5ZM28,35.39a7.9,7.9,0,0,1-4.9,1.32,11.89,11.89,0,0,1-4.74-.89v-3a11,11,0,0,0,2.1.79,8.91,8.91,0,0,0,2.27.3,4.46,4.46,0,0,0,2.53-.58A2.15,2.15,0,0,0,26,31.5a1.69,1.69,0,0,0-.94-1.64,7,7,0,0,0-3-.48H20.84V26.72h1.27a5.9,5.9,0,0,0,2.79-.5,1.82,1.82,0,0,0,.89-1.72q0-1.86-2.34-1.86a5.37,5.37,0,0,0-1.65.27,8.19,8.19,0,0,0-1.85.93l-1.61-2.39a8.91,8.91,0,0,1,5.36-1.62,7,7,0,0,1,4,1,3.31,3.31,0,0,1,1.48,2.88,3.87,3.87,0,0,1-.93,2.62,4.9,4.9,0,0,1-2.62,1.48v.07a5.18,5.18,0,0,1,3,1.2,3.4,3.4,0,0,1,1,2.59A4.38,4.38,0,0,1,28,35.39Zm6.75-24.3A2.52,2.52,0,1,1,32.2,8.58h0a2.51,2.51,0,0,1,2.51,2.51Z"/>
</svg>
