<?xml version="1.0" encoding="UTF-8"?>
<svg viewBox="0 0 48 48" xmlns="http://www.w3.org/2000/svg">
    <defs>
        <style>.a{fill:#fff;}</style>
    </defs>
    <path class="a" d="m40.5 4.5h-33a2 2 0 0 0-2 2v35a2 2 0 0 0 2 2h33a2 2 0 0 0 2-2v-35a2 2 0 0 0-2-2zm-8.3 4.08a2.51 2.51 0 0 1 2.51 2.51 2.52 2.52 0 1 1-2.51-2.51zm-18.91 2.51a2.51 2.51 0 0 1 2.51-2.51 2.51 2.51 0 1 1-2.51 2.51zm8.1 24.3a7.9 7.9 0 0 1-4.9 1.32 11.93 11.93 0 0 1-4.74-0.89v-3a11 11 0 0 0 2.1 0.79 8.91 8.91 0 0 0 2.27 0.3 4.46 4.46 0 0 0 2.53-0.58 2.15 2.15 0 0 0 0.82-1.88 1.69 1.69 0 0 0-0.94-1.64 7 7 0 0 0-3-0.48h-1.26v-2.62h1.27a5.77 5.77 0 0 0 2.79-0.5 1.8 1.8 0 0 0 0.89-1.71q0-1.86-2.34-1.86a5.26 5.26 0 0 0-1.64 0.27 8 8 0 0 0-1.86 0.93l-1.61-2.39a8.91 8.91 0 0 1 5.36-1.62 6.88 6.88 0 0 1 4 1 3.31 3.31 0 0 1 1.48 2.88 3.89 3.89 0 0 1-0.93 2.62 4.9 4.9 0 0 1-2.62 1.48v0.07a5.18 5.18 0 0 1 3 1.2 3.4 3.4 0 0 1 1 2.59 4.38 4.38 0 0 1-1.67 3.72zm13.51-0.75a4.89 4.89 0 0 1-4.34 2.07 4.86 4.86 0 0 1-4.29-2.13 11.33 11.33 0 0 1-1.44-6.3q0-4.35 1.41-6.41a4.86 4.86 0 0 1 4.32-2.06 4.85 4.85 0 0 1 4.29 2.19 11.34 11.34 0 0 1 1.46 6.32c0 2.82-0.47 4.95-1.41 6.32z"/>
    <path class="a" d="M30.56,22.62a1.81,1.81,0,0,0-1.75,1.32,12.76,12.76,0,0,0-.53,4.34,12.79,12.79,0,0,0,.52,4.33,1.83,1.83,0,0,0,3.51,0,12.38,12.38,0,0,0,.54-4.31,12.17,12.17,0,0,0-.55-4.34A1.82,1.82,0,0,0,30.56,22.62Z"/>
</svg>
