<?xml version="1.0" encoding="UTF-8"?>
<svg viewBox="0 0 48 48" xmlns="http://www.w3.org/2000/svg">
    <defs>
        <style>.a{fill:#fff;}</style>
    </defs>
    <path class="a" d="M30.41,29.33C28.82,30.07,28,31,28,32.12a1.84,1.84,0,0,0,.67,1.5,2.89,2.89,0,0,0,1.85.54,2.83,2.83,0,0,0,1.93-.56,1.85,1.85,0,0,0,.64-1.46,2,2,0,0,0-.64-1.41A8.21,8.21,0,0,0,30.41,29.33Z"/>
    <path class="a" d="M30.58,26.37a4.38,4.38,0,0,0,1.54-1.06,1.93,1.93,0,0,0,.44-1.25A1.5,1.5,0,0,0,32,22.84a2.25,2.25,0,0,0-1.44-.45,2.12,2.12,0,0,0-1.43.46,1.48,1.48,0,0,0-.55,1.21A1.9,1.9,0,0,0,29,25.27,4.88,4.88,0,0,0,30.58,26.37Z"/>
    <path class="a" d="M40.5,4.5H7.5a2,2,0,0,0-2,2v35a2,2,0,0,0,2,2h33a2,2,0,0,0,2-2V6.5A2,2,0,0,0,40.5,4.5ZM32.2,8.58h0a2.51,2.51,0,0,1,2.51,2.51h0A2.52,2.52,0,1,1,32.2,8.58ZM13.29,11.09A2.51,2.51,0,0,1,15.8,8.58h0a2.51,2.51,0,1,1-2.51,2.51Zm10,25.4H11.79V34.07l4.12-4.17c1.22-1.25,2-2.11,2.4-2.6A6,6,0,0,0,19.12,26a3.5,3.5,0,0,0,.24-1.28,1.87,1.87,0,0,0-.54-1.47,2.14,2.14,0,0,0-1.46-.48,4.09,4.09,0,0,0-1.85.44,9.62,9.62,0,0,0-1.88,1.24l-1.88-2.23a12.09,12.09,0,0,1,2-1.46,7,7,0,0,1,1.74-.66,9.09,9.09,0,0,1,2.11-.23,6.32,6.32,0,0,1,2.72.56A4.47,4.47,0,0,1,22.16,22a4.24,4.24,0,0,1,.65,2.32,5.64,5.64,0,0,1-.4,2.13,8.1,8.1,0,0,1-1.23,2,30,30,0,0,1-2.95,3l-2.11,2v.16h7.15Zm11.48-1a6.63,6.63,0,0,1-4.17,1.23,6.88,6.88,0,0,1-4.23-1.15,3.78,3.78,0,0,1-1.54-3.24,4.26,4.26,0,0,1,.75-2.49A6,6,0,0,1,28,27.91a6.32,6.32,0,0,1-2-1.9,4.2,4.2,0,0,1-.62-2.22,3.41,3.41,0,0,1,1.46-2.85,6.28,6.28,0,0,1,3.81-1.09,6.18,6.18,0,0,1,3.8,1.08,3.41,3.41,0,0,1,1.45,2.89,3.82,3.82,0,0,1-.7,2.24,6,6,0,0,1-2.25,1.76,7.84,7.84,0,0,1,2.65,2.06,3.86,3.86,0,0,1,.8,2.35A3.92,3.92,0,0,1,34.75,35.48Z"/>
</svg>
