<?xml version="1.0" encoding="UTF-8"?>
<svg viewBox="0 0 48 48" xmlns="http://www.w3.org/2000/svg">
    <defs>
        <style>.a{fill:#fff;}</style>
    </defs>
    <path class="a" d="m40.5 4.5h-33a2 2 0 0 0-2 2v35a2 2 0 0 0 2 2h33a2 2 0 0 0 2-2v-35a2 2 0 0 0-2-2zm-8.3 4.08a2.51 2.51 0 0 1 2.51 2.51 2.52 2.52 0 1 1-2.51-2.51zm-18.91 2.51a2.51 2.51 0 0 1 2.51-2.51 2.51 2.51 0 1 1-2.51 2.51zm7.08 25.4h-3.47v-9.49-1.56-1.7c-0.57 0.57-1 1-1.2 1.13l-1.8 1.5-1.67-2.09 5.29-4.21h2.85zm16-14.22-6.18 14.22h-3.64l6.16-13.49h-8.09v-2.91h11.78z"/>
</svg>
