<?xml version="1.0" encoding="UTF-8"?>
<svg enable-background="new 0 0 48 48" version="1.1" viewBox="0 0 48 48" xml:space="preserve" xmlns="http://www.w3.org/2000/svg">
<style type="text/css">
	.st0{fill:#FFFFFF;}
</style>


	
		<path class="st0" d="m24 2c-12.2 0-22 9.8-22 22s9.8 22 22 22 22-9.8 22-22-9.8-22-22-22zm0.4 8.3c0.6 0 1.2 0.1 1.8 0.2 1.2 0.2 2.3 0.5 3.4 1 1 0.5 2 1.1 2.7 1.9 0.2 0.2 0.1 0.4 0 0.6s-0.4 0.5-0.7 0.8-0.6 0.6-0.9 0.8-0.6 0.3-0.8 0.1c-0.9-0.6-1.7-1.1-2.7-1.4-0.9-0.3-1.8-0.5-2.8-0.5-0.9 0-1.9 0-2.7 0.2s-1.8 0.5-2.6 0.9-1.6 0.9-2.3 1.6c-0.7 0.6-1.3 1.3-1.8 2.1s-0.9 1.7-1.2 2.6-0.4 1.9-0.4 3 0.2 2.1 0.5 3c0.3 1 0.8 1.8 1.3 2.7 0.6 0.8 1.2 1.5 2 2.2 0.8 0.6 1.6 1.1 2.5 1.5s1.8 0.7 2.8 0.8 2 0.1 3 0c1-0.2 2-0.5 3-1s2-1.2 2.9-2.1c0.2-0.2 0.5-0.1 0.8 0s0.7 0.4 0.9 0.6c0.3 0.2 0.6 0.4 0.8 0.6s0.3 0.4 0.2 0.6c-0.9 1.1-2 2-3.1 2.7-1.2 0.7-2.4 1.2-3.7 1.6s-2.7 0.5-4 0.4c-1.3 0-2.7-0.3-4-0.7s-2.5-1-3.6-1.7-2.1-1.7-3-2.8c-0.8-1.1-1.5-2.3-2-3.7s-0.7-3-0.7-4.7 0.3-3.3 0.7-4.7c0.5-1.4 1.1-2.6 1.9-3.7s1.8-2 2.8-2.7c1.1-0.8 2.2-1.3 3.4-1.8 1.2-0.4 2.5-0.7 3.7-0.8 0.7-0.2 1.3-0.2 1.9-0.2zm10.8 6c1.9 0 3.4 1.5 3.4 3.3s-1.5 3.3-3.3 3.3-3.3-1.5-3.3-3.3c-0.1-1.7 1.4-3.2 3.2-3.3z"/>
		<circle class="st0" cx="35.3" cy="19.7" r="1.1"/>
	

</svg>
