<?xml version="1.0" encoding="UTF-8"?>
<svg width="48" height="48" version="1.1" viewBox="0 0 12.7 12.7" xmlns="http://www.w3.org/2000/svg">
    <path d="m4.398-0.00387c0.0032 1e-3 0.0064 2e-3 0.0095 3e-3 0.0012-1e-3 0.0025-2e-3 0.0037-3e-3zm0.75638 0c-2.08e-4 2.7e-4 -3.26e-4 5.3e-4 -5.43e-4 1e-3 -0.0014-2e-3 0.0042 5.3e-4 0.01167 3e-3 0.0029-2e-3 0.0072-2e-3 0.01061-4e-3zm0.3453 0c0.0016 1e-3 0.0032 1e-3 0.0048 3e-3 0.0021-2e-3 -6.51e-4 -2e-3 -0.0011-3e-3zm0.03289 0c0.0041 2e-3 0.0082 4e-3 0.0122 6e-3 -0.0013-1e-3 -0.0028-3e-3 -0.0042-4e-3 -0.0012-8e-4 -0.0037 1e-4 -0.0042-2e-3 -9.1e-5 -2.4e-4 0.0028-5.3e-4 0.01008-1e-3zm0.55217 0c0.0037 1e-3 0.0077 3e-3 0.01114 5e-3 0.0012 3e-5 0.0025-5e-5 0.0037 0-0.0041-2e-3 -6e-3 -2e-3 -0.01061-5e-3zm-0.99082 4e-3c-2e-3 2e-3 -0.0029 5e-3 -0.0048 7e-3 9.24e-4 1e-5 0.0017-5.3e-4 0.0027-5.3e-4 -1.75e-4 -1e-3 0.0038-8e-3 0.0021-6e-3zm1.753 5e-3c-0.0012 1e-3 -8.96e-4 4e-3 -0.0048 7e-3 0.0015-2e-3 0.0032-4e-3 0.0048-5e-3 9.3e-5 -1e-3 -1.57e-4 -1e-3 0-2e-3zm-0.76592 5.3e-4c-0.0023 5.3e-4 -0.0046 5e-5 -0.0069 5.3e-4 0.01257 6e-3 0.0296 0.0137 0.02122 8e-3 -0.0045-3e-3 -0.0095-6e-3 -0.01432-8e-3zm3.5957 2e-3c-0.0016 5.3e-4 -0.0032 1e-3 -0.0048 2e-3 0.0016-2.1e-4 0.0032-2.6e-4 0.0048-5.3e-4 1.07e-4 -2.7e-4 -1.12e-4 -8e-4 0-1e-3zm-5.44e-4 2e-3c-0.0032 1.7e-4 -0.0039 1e-3 -0.0064 1e-3 0.0021-7e-5 0.0042-5.3e-4 0.0064-5.3e-4zm-4.5865 2e-3c-2e-3 5.3e-4 -0.0039 1e-3 -0.0058 2e-3 -7.88e-4 1e-3 -0.0014 2e-3 -0.0021 3e-3 5.43e-4 -1.7e-4 1e-3 -2.6e-4 0.0016-5.3e-4 2e-3 -1e-3 0.0043-3e-3 0.0064-4e-3zm0.73834 6e-3c-0.0067 3e-3 -0.01372 4e-3 -0.02069 6e-3 -8.42e-4 2.1e-4 -2e-3 -2e-5 -0.0027-5.3e-4h-5.43e-4c-0.0073 2e-3 -0.01489 4e-3 -0.02228 6e-3 -9.78e-4 2.2e-4 -0.0029 2.7e-4 -0.0027-5.3e-4 -0.0063 3e-3 -0.01226 6e-3 -0.01856 8e-3 -0.0014-9e-5 -0.01844-1e-3 -0.01804-2e-3 6.25e-4 -1e-3 3e-3 -1e-3 0.0042-2e-3 7.33e-4 -5.3e-4 0.0015-1e-3 0.0021-2e-3 -0.023 0.0104-0.01667 0.0124-0.03289 0.0109-2e-3 -2e-4 -0.0043-8e-4 -0.0064-1e-3 -7.88e-4 -1.2e-4 -0.0017 1.1e-4 -0.0021-5.3e-4 -4.34e-4 -5.3e-4 0.0018-8e-4 0.0011-2e-3 -0.01946 9e-3 -0.02996 0.0103-0.04986 9e-3 -0.01214 0-0.02392 1e-5 -0.03607 0-0.01214-1e-5 -0.02446-1.5e-4 -0.0366 0-0.01092 0-0.02198-1e-3 -0.03289-5.3e-4 -0.01082 1e-3 -0.02277 4e-3 -0.03342 0-0.0011-5.3e-4 -0.0052-3e-3 -0.0085-5e-3 -0.01516 8e-4 -0.02972 8e-4 -0.0435-7e-3 -0.0043-1.4e-4 -0.0084-5.3e-4 -0.01273-5.3e-4 -0.02 1e-3 -0.0413 6e-3 -0.05675-0.0109 0.02038 6e-3 0.02475 6e-3 0.0122 6e-3 -0.0084 6e-5 -0.01653-1.5e-4 -0.02493-5.3e-4 -0.01568-5.3e-4 -0.03107 3e-3 -0.04668 0-0.0035-2e-3 -0.0071-4e-3 -0.01061-6e-3 -0.0068-1e-3 -0.01389-2e-3 -9e-3 0-0.01293-1e-5 -0.0258 8e-4 -0.03872 0-7e-3 -5.3e-4 -0.01584 2e-3 -0.0064-4e-3 9.78e-4 -5.4e-4 -0.0022 1e-3 -0.0032 2e-3 -0.0064 2e-3 -0.01268 5e-3 -0.01909 7e-3 0.0015-5.3e-4 0.0034-1e-3 0.0048-2e-3 -0.01495 8e-3 -0.02258 8e-3 -0.03448 7e-3 -0.0112 6e-3 -0.01656 6e-3 -0.02175 6e-3h-5.43e-4c-0.0059 5e-3 -0.01374 6e-3 -0.02069 9e-3 -5.6e-5 0-0.01374 5.3e-4 -0.01379 5.3e-4 -8.97e-4 -1.1e-4 -0.0018-2.7e-4 -0.0027-5.3e-4 -0.0059 3e-3 -0.01215 5e-3 -0.01856 6e-3l-5.43e-4 5.3e-4h-5.43e-4c-0.0055 4e-3 -0.01097 7e-3 -0.01644 0.0109 0.0014-2.5e-4 -0.0022 2e-5 -0.0021 0-4.07e-4 -8e-4 -0.0011-2e-3 -0.0053-4e-3 -0.0049 3e-3 -0.0099 7e-3 -0.01485 0.0104-4.08e-4 2.7e-4 -6.52e-4 8e-4 -0.0011 1e-3h-5.44e-4c-0.0021 1e-3 -5e-3 3e-3 -0.0037 2e-3 0.0016-8e-4 -1e-4 -8e-4 0.0016-2e-3 -0.0028 1e-3 -0.0057 3e-3 -0.0085 4e-3l-5.44e-4 5.3e-4c-0.0045 3e-3 -9e-3 6e-3 -0.01379 9e-3 -0.0021 1e-3 0.0035-3e-3 0.0053-4e-3 6e-3 -0.0103-0.0014-4e-3 -0.01485 3e-3v5.3e-4c2.53e-4 6e-3 -0.0016 9e-3 -0.0053 8e-3 -5.97e-4 -6e-5 -3.25e-4 1e-3 -0.0011 1e-3 -0.0037 3e-3 -0.0074 6e-3 -0.01114 8e-3 -5.16e-4 8e-4 -4.61e-4 2e-3 -0.0011 3e-3 -4.07e-4 5.3e-4 -7.87e-4 5.3e-4 -0.0016 1e-3 1.98e-4 -5.3e-4 8.15e-4 -2e-3 0.0011-2e-3 -0.0023 2e-3 -0.0047 3e-3 -0.0069 5e-3 -3e-3 5e-3 -4e-3 9e-3 -0.0244 0.0145-0.0012-1.7e-4 -0.0016-2.7e-4 -0.0032-5.3e-4 -5.71e-4 1e-3 -0.0015 2e-3 -0.0021 3e-3 -0.01156 4e-3 -0.02244 0.01-0.03395 0.014 8.96e-4 6e-5 0.0017-1e-5 0.0027 0 0.0026-1e-3 -0.0058 3e-3 -0.0048 2e-3h-5.43e-4v5.3e-4c-0.0011 1e-3 -0.0026 2e-3 -0.0037 3e-3l-5.43e-4 5.3e-4c-0.01 0.01-0.01268 0.01-0.01644 0.0114 0.0033 7e-3 0.0044 0.0155-0.0016 0.0244-0.01903 0.0303-0.07534 0.0487-0.15966 0.0576-0.0069 3e-3 -0.01421 5e-3 -0.02069 8e-3 -0.04761 5e-3 -0.09335-4e-3 -0.14003-3e-3 -0.0029-6e-5 -5e-3 7e-5 -8e-3 0-0.01421-2.7e-4 -0.02519 5.3e-4 -0.04031 0-0.02103-5e-5 -0.04205 5e-5 -0.06312 0-0.02354 7e-5 -0.04701 5.3e-4 -0.07055 5.3e-4 -0.03786 2e-3 -0.06287-6e-3 -0.09176-0.0177-0.0028-2.7e-4 -0.0047-2.4e-4 -0.0074-5.3e-4 -0.51887-0.0537-0.55761-0.0431-1.2517 0.36546-0.39624 0.23324-0.73796 0.49938-0.76752 0.59802-0.0293 0.0977-0.19707 0.29939-0.37288 0.44852-0.3063 0.2598-0.31677 0.28862-0.25566 0.68887 0.04365 0.28591 0.09753 0.39863 0.1708 0.35664 0.05887-0.0337 0.03873 0.0153-0.04455 0.10901-0.33294 0.37466-0.60963 1.6639-0.57869 2.6973 0.01791 0.59826 0.22799 1.4487 0.3994 1.6171 0.07136 0.0701 0.06176 0.1235-0.03501 0.19311-0.11494 0.0826-0.10786 0.11165 0.05039 0.20869 0.16206 0.0993 0.19361 0.0891 0.2615-0.0883 0.04357-0.11385 0.04264-0.21485-0.0021-0.23153-0.04361-0.0162-0.07956-0.0665-0.07956-0.11161 0-0.0451 0.07819-0.0341 0.17345 0.0244 0.13636 0.0836 0.20323 0.0818 0.3156-0.01 0.1196-0.0975 0.14268-0.0946 0.14268 0.0197 0 0.0751-0.0504 0.15418-0.11245 0.17598-0.06205 0.0218-0.08024 0.0739-0.04031 0.11577 0.04007 0.042 0.1006 0.0363 0.13526-0.013 0.03453-0.049 0.17981-0.17749 0.32302-0.28552s0.21587-0.19675 0.16125-0.19675c-0.05463 0-0.22455-0.11981-0.37766-0.26682-0.28059-0.26944-0.28794-0.50548-0.0122-0.39454 0.25108 0.10106 0.91603 0.12261 0.91603 0.0296 0-0.0482 0.04289-0.0618 0.09494-0.0301 0.16376 0.0994-0.09509 0.30732-0.38243 0.30732-0.14611 0-0.35462-0.042-0.46306-0.0935-0.19045-0.0904-0.19098-0.0891-0.02175 0.0441 0.09636 0.0758 0.25143 0.13808 0.34477 0.13808 0.22511 0 0.4296 0.20845 0.34159 0.34833-0.06469 0.10283-0.30838 0.26324-0.63597 0.41841-0.07446 0.0353-0.19267 0.14213-0.26256 0.23776-0.11852 0.1621-0.13484 0.16374-0.23975 0.0228-0.07757-0.10417-0.13195-0.12019-0.17557-0.0509-0.03479 0.0553 0.02826 0.19616 0.14003 0.31303 0.15965 0.16692 0.18066 0.23926 0.09813 0.3369-0.07885 0.0933-0.06648 0.28129-0.0085 0.35197 6.63e-4 7.9e-4 9.15e-4 2e-3 0.0016 3e-3 0.0018 2e-3 0.0034 5e-3 0.0053 7e-3 0.0212 0.0207 0.04754 0.0264 0.07744 8e-3 0.03781-0.0229 0.14141 0.0371 0.2302 0.13342 0.1656 0.17971 0.07553 0.24569-0.11934 0.0872-0.06447-0.0524-0.06179-0.0347 0.0069 0.0436 0.06365 0.0726 0.22256 0.14051 0.35273 0.15106 0.20364 0.0166 0.23195 0.0541 0.20421 0.26942-0.02175 0.16882 8.96e-4 0.23003 0.06949 0.18844 0.06677-0.0405 0.08173-0.0101 0.04349 0.0877-0.13112 0.33566 0.64153 1.3871 1.4756 2.008 0.2293 0.17067 0.49058 0.38277 0.58081 0.47187 0.09023 0.0892 0.23956 0.14301 0.33151 0.1194 0.09195-0.0236 0.1459-9e-3 0.11988 0.0322-0.02603 0.0414 0.17188 0.14284 0.43972 0.22581 0.38683 0.11975 0.54558 0.13112 0.77229 0.0535 0.16392-0.0562 0.26255-0.0619 0.23179-0.013-0.09233 0.14675 0.12608 0.0938 0.61422-0.14899 0.59864-0.29771 1.2538-0.82178 1.1781-0.9422-0.03317-0.0527-0.01473-0.0657 0.04296-0.0306 0.28597 0.17361 1.0204-1.441 1.0444-2.2961 0.0059-0.20885 0.04127-0.3617 0.0785-0.3395s0.06789-0.0239 0.06789-0.10279c0-0.079-0.03747-0.12096-0.08274-0.0934-0.23549 0.14296 0.38584-0.84109 0.66143-1.0476 0.31903-0.239 0.32356-0.2518 0.32356-0.8851 0-0.3535-0.03464-0.68045-0.07744-0.72677-0.04389-0.0475-0.02652-0.37289 0.03978-0.74597 0.12405-0.69811 0.11236-0.78901-0.23338-1.887-0.13012-0.41339-0.27169-0.70124-0.35591-0.72314-0.07699-0.02-0.25514-0.0621-0.39569-0.0929-0.23753-0.0521-0.25184-0.0789-0.20262-0.38467 0.04635-0.28799 0.01336-0.37159-0.26362-0.67122-0.17402-0.18824-0.31613-0.37349-0.31613-0.41166 0-0.0382-0.07119-0.098-0.15806-0.13289-0.28407-0.11385-1.5066-0.39716-1.7191-0.39817-0.21068-1e-3 -0.62856-0.18925-0.68795-0.28448-0.0013-2.6e-4 -0.0013 1.7e-4 -0.0032-5.3e-4 -0.0015-5.3e-4 -0.0059-2e-3 -0.0042-2e-3 2e-3 -2e-5 0.0028 5.3e-4 0.0058 1e-3 -1.56e-4 -2.7e-4 -3.8e-4 -8e-4 -5.43e-4 -1e-3 -0.0073-1e-3 -0.01394-3e-3 -0.02069-6e-3 -0.0066 7.9e-4 -0.01325 2e-3 -0.02016-5.3e-4 -0.0024-1e-3 -0.0045-3e-3 -0.0074-5e-3 -7.33e-4 6e-5 -0.0014 5.3e-4 -0.0021 5.3e-4 -0.0048 2.6e-4 -0.01003-8e-5 -0.01485 0-3e-3 -1e-3 -0.02762-8e-3 -0.02864-0.0171-3.8e-4 -4e-3 0.0065 3e-3 0.0085 6e-3 0.0015 2e-3 -0.0095-3e-3 -0.0069-4e-3 0.0033-8e-4 -7.5e-5 -1e-3 -9e-3 -4e-3 -0.0028-9e-5 -0.0058 8e-5 -0.0085-5.3e-4 -0.0049-1e-3 -0.0091-4e-3 -0.01379-5e-3l-5.43e-4 -5.3e-4c-6.79e-4 -1.6e-4 -0.0011 1e-4 -0.0016 0-0.0054-1e-3 -0.01033-3e-3 -0.01538-5e-3 -0.0021-8e-4 -0.0052-3e-3 -0.0058-4e-3 -0.0021-5.3e-4 -0.0043-1e-3 -0.0064-2e-3 -0.0022-7.9e-4 -0.0051-2e-3 -0.0058-4e-3 -0.0023-8e-4 -0.0047-1e-3 -0.0069-2e-3 -3.81e-4 -1.6e-4 -0.0027-2e-3 -0.0048-4e-3 -2e-3 -5.3e-4 -0.0039-7.9e-4 -0.0058-2e-3 -0.0026-1e-3 -0.01008-3e-3 -0.0074-4e-3 0.0032-1e-3 0.01156 3e-3 0.0095 3e-3 -0.0057-2e-3 -0.01111-3e-3 -0.01644-6e-3 -0.0026-2e-3 -0.0054-4e-3 -0.0069-6e-3h-0.001087c-0.0053-1e-4 -0.01091 8e-5 -0.01591-1e-3 -0.0025-7.9e-4 -0.0046-3e-3 -0.0069-4e-3 -0.0048 5.3e-4 -0.0048 1e-3 -0.01008 2e-3 -0.03921 3e-3 -0.07461-0.01-0.10714-0.0291h-5.43e-4c-0.0019-2.7e-4 -0.0097-3e-3 -0.01326-4e-3 -9.51e-4 -9e-5 -4.89e-4 1e-4 -0.0016 0-5.43e-4 -2.7e-4 -1e-3 -8e-4 -0.0016-1e-3 -0.0052-1e-3 -0.01061-3e-3 -0.0175-5e-3h-5.43e-4c-0.01184 0-0.0237-5.3e-4 -0.03554-5.3e-4 -0.01342 2e-4 -0.02696 1e-3 -0.04031-5.4e-4 -0.0011-1.6e-4 -0.0029 5.4e-4 -0.0032-5.3e-4 -0.01301 5e-3 -0.01388 7e-3 -0.02334 6e-3 7.88e-4 -1e-3 0.0035-3e-3 0.0027-3e-3 -0.0017 5.3e-4 -0.0026 2e-3 -0.0042 3e-3 -0.01134 3e-3 -0.01017 2e-3 -0.01326 3e-3 -0.0024 2e-3 -0.0071 2e-3 -0.01061 3e-3 0.0033-3e-3 0.01079-0.0138 0.0069-0.0114-0.0069 4e-3 -0.01255 0.01-0.01856 0.015-4.62e-4 5e-5 -5.98e-4 5.3e-4 -0.0011 5.3e-4 -0.0031 3e-3 -0.0062 5e-3 -0.0095 8e-3 -8.96e-4 5.3e-4 -0.01433-8e-4 -9e-3 0-5.98e-4 -7e-5 -0.01119 5.3e-4 -0.0175 2e-3 -0.0052-5.3e-4 -0.01092-2e-5 -0.01591-2e-3 -0.0049-2e-3 -0.0068-4e-3 -0.01008-6e-3 -0.0031-2.7e-4 -7e-3 -5.4e-4 -0.0053 0-7.6e-4 -3e-5 -0.01661 1e-3 -0.0064-1e-3 1e-3 -2.6e-4 -0.0021 2.7e-4 -0.0032 5.3e-4 -0.0051 1e-3 -0.01024 2e-3 -0.01538 3e-3 -0.0061-3e-3 -0.01251-5e-3 -0.01856-8e-3 -0.0023-2.7e-4 -0.0046-5.3e-4 -0.0069-1e-3 -0.0028-7.9e-4 -0.0053-2e-3 -8e-3 -4e-3 -7.06e-4 -5.3e-4 -1e-3 -1e-3 -0.0021-2e-3h-5.43e-4c-0.0059 2e-5 -0.01213-2.6e-4 -0.01803-5.3e-4 -0.0064-2.6e-4 -0.01212-2.6e-4 -0.01857 1e-3 -0.0045-2.6e-4 -0.02654-3e-3 -0.02652-6e-3 1.4e-5 -2e-3 0.0078 1.9e-4 0.0058 0-0.02377-2e-3 6.79e-4 2e-3 -0.02228-3e-3 -0.0023-8e-4 -0.0049-8e-4 -0.0069-2e-3 -7.34e-4 -5.3e-4 0.0018-2.6e-4 0.0027-5.3e-4 -0.0052-5.3e-4 -0.01014-1e-3 -0.01538-2e-3 -0.0041-1e-3 -8e-3 -4e-3 -0.01167-6e-3 -9e-3 3e-5 -0.01808-1e-4 -0.02705-5.4e-4 -0.0032-7.9e-4 -0.0026 2.7e-4 -8e-3 1e-3 -0.01314 2e-3 -0.02459-5.3e-4 -0.03607-7e-3 -0.0071-8e-4 -0.01458-2e-3 -0.01061 0-4.62e-4 -1e-5 -0.01725-1e-3 -0.0175-2e-3zm-0.84919 0.1251c0.0017-2e-3 0.0035-5e-3 0.0027-4e-3 -0.0012 1e-3 -0.0021 2e-3 -0.0032 4e-3zm0.07054-0.0358c5.98e-4 -5.4e-4 1e-3 -1e-3 0.0016-2e-3 7.6e-4 -1e-3 0.0015-2e-3 0.0021-4e-3 -2.24e-4 -8e-4 2.08e-4 -2e-3 0-3e-3 -0.0017 4e-3 -0.0028 6e-3 -0.0037 8e-3zm0.05145-0.0322c6.52e-4 -2.7e-4 0.0014-2.6e-4 0.0021-5.3e-4l-5.43e-4 -5.3e-4h-5.43e-4c-7.33e-4 5.3e-4 -2.26e-4 5.3e-4 -0.0011 1e-3zm0.11192-0.053c-0.0033 4e-3 -6e-3 9e-3 -9e-3 0.0135 8.42e-4 -5.3e-4 2.72e-4 1.7e-4 0.0011-5.3e-4 0.0039-3e-3 0.01102-0.017 8e-3 -0.013zm4.3786 2e-3c-0.0019 2.6e-4 -0.0025 1.5e-4 -0.0037 5.3e-4 -0.0023 5.3e-4 -0.0041 2e-3 -0.0064 3e-3 0.0013-2.3e-4 0.0027-8e-4 0.0042-1e-3 0.0022-1e-3 0.0036-2e-3 0.0058-3e-3zm-4.4104 6e-3c-0.0029 3e-3 -0.0053 8e-3 -8e-3 0.0119 2.99e-4 -2.1e-4 7.61e-4 -2.6e-4 0.0011-5.3e-4 0.0036-3e-3 0.0097-0.0152 0.0069-0.0114zm1.1531 0.0161c0.0032 1e-3 0.0094 3e-3 0.0074 3e-3 -0.0015-8e-4 -0.0027-2e-3 -0.0042-3e-3 -7.06e-4 -4e-5 -0.0022 8e-5 -0.0032 0zm3.182 0.0104c-0.0052 2e-3 -0.0065 2e-3 -0.01061 4e-3 0.0014-8e-4 -0.0057 5e-3 -0.0058 5e-3 0.0036-2e-3 0.0071-3e-3 0.01061-5e-3 2e-3 -1e-3 0.0042-3e-3 0.0058-4e-3zm-4.4964 0.0478c-7.6e-4 1e-4 -0.0013 1e-3 -0.0021 1e-3 2.28e-4 2e-3 2.71e-4 6e-3 0.0011 5e-3 1.08e-4 -1.7e-4 7.6e-4 -4e-3 0.0011-6e-3zm0.0037 7e-3c-0.0023 4e-3 -0.0046 8e-3 -0.0069 0.0114 5.7e-4 -2.5e-4 0.0011-8e-4 0.0016-1e-3 9.78e-4 -2e-3 0.0026-5e-3 0.0053-0.0104zm4.4184 0.19155c-1.5e-4 0-0.0037 2e-3 -0.0037 2e-3 2.34e-4 2.6e-4 2.98e-4 8e-4 5.43e-4 1e-3 5.7e-4 -2.6e-4 0.0011-1.5e-4 0.0016-5.3e-4 6.79e-4 -5.3e-4 9.51e-4 -2e-3 0.0016-2e-3zm0.0042 9e-3c-5.98e-4 5.3e-4 -1e-3 1e-3 -0.0016 2e-3 0.0013 2e-3 0.0024 3e-3 0.0037 5e-3 -8.15e-4 -2e-3 -0.0014-4e-3 -0.0021-7e-3zm-5.2549 0.23256c0.0461 0.0112 0.0658 0.0573 0.05463 0.13342-0.01388 0.0946-0.11248 0.17099-0.24081 0.18636-0.15336 0.0184-0.18207 3e-3 -0.09707-0.054 0.06629-0.0441 0.11507-0.11607 0.10821-0.15937-0.0069-0.0433 0.04729-0.0909 0.1204-0.1059 0.02104-4e-3 0.03927-4e-3 0.05463-5.3e-4zm3 0.0789c0.01169 2.7e-4 0.0217 4e-3 0.02864 0.0104 0.02779 0.0273-0.02237 0.0768-0.11139 0.11006-0.12864 0.0481-0.13887 0.0383-0.05039-0.0493 0.04592-0.0455 0.09806-0.0721 0.13314-0.0711zm-3.5989 0.027c0.02439 5.4e-4 0.02683 0.0353 0.0037 0.0945-0.06 0.1536-0.12465 0.18204-0.12465 0.0545 0-0.0459 0.04004-0.10773 0.08911-0.13757 0.01279-8e-3 0.02369-0.0116 0.03182-0.0114zm9.1073 0.67745v5.4e-4h5.43e-4v-5.4e-4zm-9.8138 0.0732c0.0049 3e-3 0.01024 0.0145 0.01591 0.0358 0.0227 0.0853 0.0227 0.22515 0 0.31043-0.0227 0.0853-0.04084 0.0155-0.04084-0.15521 0-0.12797 0.01013-0.19939 0.02493-0.19104zm7.4317 0.17079c3.8e-4 -5.3e-4 -0.01129 6e-3 -0.0085 5e-3 0.0016-8e-4 0.0032-1e-3 0.0048-2e-3 0.0012-7.9e-4 0.0025-2e-3 0.0037-3e-3zm-7.612 4e-3c0.0051 5e-3 0.01072 0.0184 0.01644 0.04 0.02288 0.0863 0.02101 0.20572-0.0037 0.26579-0.02472 0.06-0.04321-0.0105-0.04137-0.15677 0.0014-0.10973 0.01321-0.16472 0.02864-0.14899zm7.6036 1e-3c0.0033-4e-3 -0.0049 3e-3 -0.0122 8e-3l5.43e-4 5.3e-4c0.0032-2e-3 0.0064-4e-3 0.0095-7e-3 0.0016-2e-3 4.61e-4 -2.6e-4 0.0021-2e-3zm0.12624 0.10071c1e-3 4e-3 0.0023 9e-3 0.0032 0.013 6.9e-5 2.7e-4 -6.9e-5 8e-4 0 1e-3h0.001086c-0.0014-5e-3 -0.0028-9e-3 -0.0042-0.014zm-2.2691 0.0187c0.06915 0 0.20585 0.0242 0.36015 0.0727 0.1814 0.0571 0.1902 0.0717 0.04509 0.0737-0.09929 1e-3 -0.26194-0.0318-0.36122-0.0737-0.115-0.0485-0.11318-0.0727-0.04402-0.0727zm2.2755 3e-3c4.61e-4 4e-3 5.97e-4 7e-3 0.0011 0.0109 1.47e-4 8e-4 1.86e-4 1e-3 5.43e-4 2e-3h5.43e-4c-4.62e-4 -3e-3 -5.97e-4 -6e-3 -0.0011-9e-3 -4.07e-4 -1e-3 -5.98e-4 -2e-3 -0.0011-4e-3zm1.5764 0.028c0.0017 7.9e-4 3e-3 1e-3 0.0048 2e-3 3.8e-4 -2.6e-4 6.79e-4 -7.9e-4 0.0011-1e-3 -0.0058-1e-3 -1e-3 -1e-5 -0.0058-1e-3zm0.01061 3e-3c-0.0016 5.4e-4 -0.0021 0-0.0037 5.4e-4 2e-3 1e-3 0.0032 2e-3 0.0053 3e-3 0.0013 2.7e-4 0.0042 8e-4 0.0053 1e-3 6.24e-4 -8e-4 0.0011-1e-3 0.0021-2e-3 -0.0019-8e-4 -0.0036-8e-4 -0.0053-1e-3 -0.0012-1.8e-4 -0.0025-5.3e-4 -0.0037-1e-3zm9e-3 2e-3c4.07e-4 1.7e-4 6.24e-4 2.7e-4 0.0011 5.3e-4 -2.72e-4 -2.2e-4 -1.75e-4 -8e-4 -5.43e-4 -1e-3zm0.0011 5.3e-4c2.98e-4 2.4e-4 7.6e-4 2.7e-4 0.0011 5.3e-4v-5.3e-4c-3.8e-4 -1.5e-4 -6.79e-4 1.5e-4 -0.0011 0zm0.0011 5.3e-4c-0.0022 1e-3 -1.58e-4 6e-5 -0.0027 2e-3 0.0013 2.6e-4 0.0055 1e-3 0.0064 2e-3 -0.0012-1e-3 -0.0025-2e-3 -0.0037-3e-3zm-0.0027 2e-3c-3.25e-4 -7e-5 -0.0012-5.3e-4 -0.0016-5.3e-4 -2.99e-4 2.6e-4 -9.23e-4 7.9e-4 -0.0011 1e-3 3.53e-4 1.6e-4 7.06e-4 -1.7e-4 0.0011 0 0.0014-8e-4 2.99e-4 2.7e-4 0.0016-5.3e-4zm-5.1647 0.18896c0.0031-0.0106 0.07166 0.0495 0.1814 0.16144 0.14632 0.14928 0.30881 0.25753 0.36122 0.24035 0.05241-0.0172 0.11643 0.0477 0.14215 0.14432 0.04008 0.15058 0.0233 0.16168-0.11669 0.0758-0.18606-0.11414-0.44874 0.0375-0.44874 0.25904 0 0.26364-0.29254 0.66595-0.54739 0.75324-0.14574 0.0499-0.26521 0.12537-0.26521 0.16716 0 0.0418-0.13883 0.10155-0.3087 0.13289v-5.3e-4c-0.22734 0.0419-0.34593 0.13112-0.44926 0.33691l-0.14056 0.27929 0.0011-0.26579c9.51e-4 -0.31203 0.17933-0.57622 0.3888-0.57622 0.0814 0 0.14799-0.0324 0.14799-0.0722 0-0.0397 0.14255-0.13937 0.31719-0.22115 0.17464-0.0818 0.36355-0.24782 0.41956-0.36857 0.056-0.12075 0.13202-0.20066 0.1692-0.17806 0.03718 0.0226 0.09088-0.0185 0.11934-0.0914 0.02846-0.0729 0.02108-0.1329-0.01644-0.1329-0.12832 0-0.09611-0.36371 0.0366-0.41374 0.10394-0.0392 0.10999-0.081 0.02811-0.19467-0.01435-0.0199-0.02066-0.0318-0.01963-0.0353zm1.4804 0.0348c0.01083-6e-3 0.05856 0.0172 0.15064 0.0654 0.11169 0.0585 0.20315 0.12472 0.20315 0.14743 1e-6 0.0939-0.16684 0.0314-0.28218-0.1059-0.05616-0.0669-0.08243-0.10131-0.07161-0.10694zm-3.8365 0.0976c0.19287 0.0157 0.20307 0.0355 0.09654 0.19311-0.14091 0.20847-0.29166 0.27183-0.36599 0.15366-0.10286-0.16349 0.05295-0.36435 0.26945-0.34677zm6.3746 0.24243c0.0014 4e-3 3e-3 8e-3 0.0048 0.0114 0.0015 3e-3 -2e-3 -7e-3 -0.0037-0.0104-4.61e-4 -8e-4 -6.52e-4 -2.7e-4 -0.0011-1e-3zm-0.05994 5e-3c6.79e-4 8e-4 0.0014 2e-3 0.0021 3e-3 9.5e-5 4e-5 -1e-3 -2e-3 -0.0011-2e-3 -3.26e-4 -1.9e-4 -7.33e-4 -2.6e-4 -0.0011-5.3e-4zm0.0037 3e-3c0.0017 2e-3 3e-3 5e-3 0.0048 7e-3 5.16e-4 5.3e-4 -0.0024-4e-3 -0.0032-5e-3 -1.45e-4 -2.2e-4 -3.53e-4 -8e-4 -5.43e-4 -1e-3l-5.43e-4 -5.4e-4zm-0.0011 5.3e-4c0.0019 5e-3 0.0042 0.0104 0.0064 0.0156 0.0014 3e-3 0.0024 5e-3 0.0037 8e-3l5.43e-4 5.3e-4c3.26e-4 5.3e-4 7.4e-5 1e-3 5.43e-4 2e-3 0.0022 3e-3 0.0041 6e-3 0.0064 8e-3 -2e-3 -5e-3 -0.0043-0.01-0.0064-0.0145-0.0028-4e-3 -0.0095-0.0178-9e-3 -0.0156-8.97e-4 -1e-3 -0.0013-3e-3 -0.0021-4e-3zm0.06577 0.0332c0.0037 7e-3 7e-3 0.0133 0.01114 0.0197 0.0037 6e-3 0.0097 7e-3 0.01273 0.0104-0.0083-4e-3 -0.0084-8e-4 -0.02387-0.0301zm1.43 0.0903v5.3e-4c3.26e-4 -6e-5 7.34e-4 -5.3e-4 0.0011-5.3e-4 -3.53e-4 5e-5 -7.06e-4 -5e-5 -0.0011 0zm-4.0848 0.0483c0.04964 0 0.11518 0.0401 0.14586 0.0888 0.03068 0.0488 0.01516 0.0888-0.03448 0.0888s-0.1152-0.0401-0.14586-0.0888c-0.03068-0.0488-0.01517-0.0888 0.03448-0.0888zm-0.44078 0.0966c0.07447-3e-3 0.19658 0.0337 0.27104 0.081 0.16499 0.10474 0.02217 0.10474-0.22596 0-0.11903-0.0502-0.13435-0.078-0.04509-0.081zm-0.60839 6e-3c0.01452 3e-3 0.03864 0.0374 0.07797 0.10382 0.05271 0.089 0.07838 0.17917 0.05729 0.19987-0.06397 0.0628-0.15882-0.0718-0.15594-0.22115 0.0011-0.0577 0.0062-0.0857 0.02069-0.0825zm3.7729 6e-3c7.06e-4 3e-3 0.0014 6e-3 0.0021 9e-3 -7.6e-4 -3e-3 -5.16e-4 -4e-3 -0.0016-8e-3zm-6.8154 0.0696c0.03445 0 0.01194 0.0598-0.04986 0.13289-0.0618 0.0731-0.15074 0.1329-0.19785 0.1329-0.04711 0-0.02461-0.0598 0.04986-0.1329s0.1634-0.13289 0.19785-0.13289zm6.8647 0.0218c3.53e-4 1e-3 0.0032 6e-3 0.0037 8e-3 0.0033 3e-3 0.0062 7e-3 0.0095 0.01-0.0037-6e-3 -8e-3 -0.0111-0.0122-0.0166-4.88e-4 -5.3e-4 -5.43e-4 -5.3e-4 -0.0011-1e-3zm0.0095 0.0182c0.0024 4e-3 0.0052 7e-3 8e-3 0.0109-5.43e-4 -2e-3 -9.5e-4 -2e-3 -0.0016-4e-3 -0.0024-3e-3 -0.0069-8e-3 -0.0064-7e-3zm-0.85822 0.23153c0.01264-2e-3 0.03442 0.0257 0.07214 0.0831 0.06358 0.0966 0.08758 0.10154 0.08858 0.0171 7.61e-4 -0.0643 0.04213-0.0914 0.09176-0.0613 0.04965 0.0302 0.09017 0.0834 0.09017 0.11888 0 0.0356-0.08106 0.0713-0.18034 0.0784-0.11505 9e-3 -0.18018-0.0412-0.17928-0.13653 5.97e-4 -0.0645 0.0043-0.0973 0.01697-0.0997zm-2.5937 0.0353c0.0054 2e-3 0.01125 0.0102 0.0175 0.0254 0.02504 0.0609 0.02504 0.16068 0 0.22166-0.02503 0.061-0.04509 0.0113-0.04509-0.11057 0-0.0914 0.01126-0.1425 0.02758-0.13653zm-4.9292 0.094c0.0092-1e-3 0.01916 2e-3 0.0297 8e-3 0.04218 0.0256 0.05346 0.0833 0.02493 0.12874-0.07298 0.11595-0.10184 0.1033-0.10184-0.0462 0-0.0533 0.01971-0.0879 0.04721-0.0908zm1.7987 0.0514c0.01227-1e-3 0.01963 2e-3 0.01963 0.0104 0 0.0987-0.36373 0.31436-0.40895 0.24243-0.02969-0.0472 0.01978-0.11173 0.1098-0.14327 0.09002-0.0315 0.19403-0.0732 0.23126-0.0929 0.01862-0.01 0.036-0.0155 0.04827-0.0166zm3.305 0.122c0.0018-3e-3 0.0087-2e-3 0.02122 3e-3 0.01668 6e-3 0.0425 0.018 0.07797 0.0358 0.09929 0.0499 0.24166 0.13155 0.31613 0.18117 0.07447 0.0496 0.08891 0.0906 0.03236 0.0914-0.05654 8e-4 -0.1984-0.0809-0.3156-0.18117-0.0942-0.0806-0.13737-0.1217-0.13208-0.12978zm-4.2502 7e-3c0.02115-0.0164 0.0354 0.0635 0.06206 0.26163 0.02906 0.21605 0.09168 0.3457 0.15966 0.33224 0.06137-0.0122 0.11139 0.038 0.11139 0.11109 0 0.0731-0.05116 0.13289-0.11351 0.13289-0.16984 0-0.34223-0.45469-0.26892-0.70911 0.02141-0.0743 0.03664-0.11891 0.04933-0.12874zm1.1377 0.0503c0.03135 1e-3 0.05873 0.01 0.07373 0.0244 0.02999 0.0295-0.02367 0.0502-0.11881 0.0462-0.10515-4e-3 -0.12664-0.0251-0.05463-0.0535 0.03258-0.0128 0.06836-0.0184 0.09972-0.0171zm5.4474 0.0877c0.0076-7e-3 0.03287 0.0116 0.07744 0.055 0.06167 0.0601 0.08931 0.13205 0.06153 0.15937-0.0278 0.0273-0.07857-0.0221-0.11245-0.10954-0.02449-0.0632-0.0341-0.0974-0.02652-0.10486zm-2.6691 0.0924c0.03646-5e-3 0.09046 0.0129 0.13791 0.0493 0.06325 0.0485 0.33854 0.16327 0.61157 0.25489 0.27304 0.0916 0.58995 0.26187 0.7044 0.37792 0.25897 0.26261 0.221 0.31185-0.1098 0.14327-0.13993-0.0713-0.29205-0.12925-0.33841-0.12925-0.1409 0-1.092-0.6271-1.0354-0.68265 0.0073-7e-3 0.01755-0.0118 0.0297-0.0135zm-3.6509 4e-3c0.01511 6e-3 0.04023 0.0348 0.07532 0.094 0.0506 0.0853 0.17104 0.15522 0.26786 0.15522 0.13542 0 0.1761 0.0612 0.1761 0.26578 0 0.14629-0.02026 0.26579-0.04509 0.26579-0.02482 0-0.04676-0.10937-0.04827-0.24347-0.0024-0.21587-0.01384-0.22518-0.09919-0.081-0.0893 0.15087-0.1056 0.14503-0.22278-0.0768-0.10801-0.2045-0.14929-0.39631-0.10396-0.37947zm1.0958 0.0166c0.03237 1e-3 0.05516 0.0369 0.05516 0.094 0 0.076-0.04053 0.13808-0.09017 0.13808s-0.09017-0.0377-0.09017-0.0836 0.04053-0.10795 0.09017-0.13809c0.01241-8e-3 0.02422-0.0109 0.03501-0.0104zm-4.8258 0.21024c-7.93e-4 5.3e-4 -8.13e-4 5.3e-4 -0.0016 1e-3 -0.0023 2e-3 -0.0025 2e-3 -0.0042 4e-3 0.0017-1e-3 0.0041-2e-3 0.0058-4e-3 2.9e-5 -4e-5 -3e-5 -1e-3 0-1e-3zm2.9465 0.11992c0.04029 1e-3 0.02549 0.033-0.04137 0.11213-0.08769 0.10379-0.08646 0.16915 0.0064 0.3151 0.13398 0.21073 0.21843 0.23212 0.28696 0.0732 0.02629-0.061 0.04195 0.0388 0.03448 0.22166-0.0075 0.18286-0.01524 0.33194-0.0175 0.3312-0.0778-0.0256-0.23367-0.19-0.37713-0.39764-0.19553-0.28299-0.17102-0.60105 0.04986-0.64786 0.02579-5e-3 0.04492-8e-3 0.05835-8e-3zm-0.80836 0.0213c0.01079 2e-3 0.0226 6e-3 0.03501 0.0135 0.04964 0.0301 0.09017 0.0725 0.09017 0.094s-0.04053 0.0394-0.09017 0.0394-0.09017-0.0423-0.09017-0.094c0-0.0387 0.0228-0.0583 0.05516-0.0529zm9.4473 0.11524c0.0032 3e-3 0.0072 8e-3 0.01008 0.0119 5e-3 4e-3 0.01425 0.0142 0.0175 0.0166-0.0048-7e-3 -6e-3 -9e-3 -9e-3 -0.013-0.0062-5e-3 -0.0098-8e-3 -0.01857-0.0156zm0.1151 0.16301c9.24e-4 2e-3 0.0017 3e-3 0.0027 5e-3 3.8e-4 5.4e-4 0.0013 1e-3 0.0016 2e-3 0.0013 2e-3 -0.0055-8e-3 -0.0042-6e-3zm0.0085 0.0125c0.0053 8e-3 0.0106 0.0167 0.01591 0.0249-4.89e-4 -1e-3 -4.7e-5 -2e-3 -5.44e-4 -2e-3 -0.0048-8e-3 -0.01031-0.0152-0.01538-0.0228zm0.07797 0.10538c2.71e-4 5.4e-4 1.27e-4 1e-3 5.43e-4 2e-3 0.0028 4e-3 0.0033 3e-3 0.0064 7e-3 -0.0048-5e-3 -6.52e-4 -3e-3 -0.0069-9e-3zm0.0069 9e-3c0.0061 7e-3 7e-3 9e-3 0.01061 0.0135 0.0022 2e-3 5e-3 6e-3 0.0069 7e-3 0.01 7e-3 -0.0058-9e-3 -0.0175-0.0208zm-6.9543 0.0415c0.02521-0.0116 0.04508 0.0529 0.08062 0.21024 0.0642 0.28426 0.23126 0.40392 0.23126 0.1656 0-0.0675 0.08159-0.14372 0.18087-0.16923 0.09928-0.0255 0.18034-0.01 0.18034 0.0343 0 0.0442-0.03328 0.0805-0.07373 0.0805s-0.13709 0.12962-0.21482 0.28811c-0.16451 0.3354-0.85948 1.1301-0.98817 1.1301-0.04835 0-0.06251-0.0401-0.03183-0.0888 0.08181-0.13-0.1425-0.10682-0.43919 0.0452-0.29971 0.1535-0.28037 0.14944-0.35803 0.0732-0.13484-0.13246-0.03602-0.20894 0.45032-0.34782 0.62539-0.17858 1.1105-0.63601 1.0428-0.98373-0.03166-0.16267-0.06349-0.18966-0.11988-0.10226-0.0946 0.14661-0.09211 4e-3 0.0042-0.23568 0.02331-0.0581 0.04004-0.0927 0.05516-0.0997zm4.4507 0.0228c0.01508 2e-3 0.03545 0.0167 0.06153 0.0426 0.19422 0.193 0.19657 0.92548 0.0037 1.1348-0.15741 0.17085-0.15311 0.18064 0.14162 0.35715 0.28844 0.17303 0.29214 0.18111 0.07744 0.1791-0.4463-5e-3 -0.73969-0.4199-0.4307-0.60945 0.16153-0.0991 0.17724-0.1764 0.13366-0.64838-0.03137-0.33985-0.03246-0.46036 0.01273-0.45578zm-5.9136 0.0576c0.0066-4e-3 0.01643 0.0615 0.03607 0.19207 0.02165 0.14393 0.11676 0.35822 0.21111 0.47604 0.09435 0.11781 0.144 0.25933 0.11033 0.31458-0.03367 0.0553 0.01033 0.0431 0.0976-0.0265s0.21953-0.24248 0.29438-0.38467c0.16682-0.31687 0.25167-0.26217 0.16867 0.10902-0.03386 0.15143-0.16283 0.3404-0.28643 0.41997-0.2463 0.15854-0.73185 0.21947-0.80624 0.10122-0.02582-0.0411-0.11172-0.0747-0.19095-0.0747-0.12356 0-0.11938 0.0285 0.02811 0.1983 0.1695 0.19517 0.16921 0.19605-0.0032 0.0665-0.1591-0.11959-0.16901-0.11734-0.11351 0.028 0.04092 0.10669 0.02727 0.13981-0.04137 0.0981-0.07007-0.0426-0.08804 0.0115-0.05675 0.17235 0.02513 0.12915 0.0104 0.23515-0.03236 0.23515-0.06774 0-0.10832-0.11636-0.09441-0.26942 0.0024-0.0263-0.11065-0.12385-0.25089-0.21647-0.31287-0.20656-0.58542-0.6314-0.45563-0.71016 0.05043-0.0305 0.09176-2e-3 0.09176 0.0628 0 0.13921 0.61696 0.73427 0.68848 0.66395 0.05861-0.0576-0.25462-0.37778-0.42911-0.43865-0.06826-0.0238-0.09438-0.0742-0.05835-0.11213 0.03603-0.038 0.13103-0.0153 0.21164 0.0504 0.08061 0.0657 0.26187 0.11074 0.40259 0.10019 0.14072-0.0106 0.28286 0.024 0.31613 0.0768 0.03837 0.061 0.1085 0.0295 0.19095-0.0862 0.09635-0.13513 0.10542-0.22681 0.03554-0.35508-0.05185-0.0952-0.08807-0.30552-0.08062-0.46721 0.0067-0.14669 0.0098-0.2202 0.01644-0.22426zm8.2491 0.20972c0.0025 7e-3 0.0053 0.0128 8e-3 0.0192-0.0015-5e-3 -3e-3 -0.01-0.0048-0.0145-6.79e-4 -2e-3 -0.0023-4e-3 -0.0032-5e-3zm-7.0105 0.29694c0.05257 0 0.07099 0.0401 0.04031 0.0888-0.03068 0.0488-0.07411 0.0888-0.09601 0.0888-0.02189 0-0.03978-0.0401-0.03978-0.0888 0-0.0488 0.04291-0.0888 0.09548-0.0888zm-1.43 0.27254c0.01169 2.6e-4 0.02116 4e-3 0.02811 0.0104 0.02779 0.0273-0.02237 0.0773-0.11139 0.11057-0.12864 0.0481-0.13887 0.0378-0.05039-0.0498 0.04592-0.0455 0.09859-0.0721 0.13367-0.0711zm6.8626 0.21855c0.01014-2e-3 0.01937-1e-3 0.02705 2e-3 0.01025 5e-3 0.01774 0.0146 0.02281 0.0296 0.01846 0.0544 0.07482 0.0741 0.12518 0.0436 0.05353-0.0325 0.04905 0.0227-0.01061 0.13238-0.05636 0.10326-0.14659 0.18792-0.2005 0.18792-0.0637 0-0.05809-0.0474 0.01591-0.13497 0.09687-0.11463 0.0882-0.12561-0.05675-0.0722-0.15457 0.057-0.15831 0.0477-0.03872-0.0966 0.0449-0.0541 0.08521-0.0855 0.11563-0.0919zm-9.1025 0.12666c-4.21e-4 5.3e-4 -9.91e-4 8e-4 -0.0016 2e-3 -0.0018 3e-3 -0.0042 5e-3 -0.0058 8e-3 -0.0018 4e-3 0.0043-5e-3 0.0074-9e-3 -6e-6 -2.6e-4 6e-6 -7.9e-4 0-1e-3zm-0.0854 0.1329c-7.8e-5 5.3e-4 -4.59e-4 5.3e-4 -5.29e-4 1e-3 -1.12e-4 -1.9e-4 6.33e-4 2e-3 5.29e-4 2e-3 -6.08e-4 -1e-3 0.0033 5e-3 0.0027 3e-3 -0.0012-2e-3 -0.0017-4e-3 -0.0027-6e-3zm0.08009 0.0322c-8.29e-4 3e-3 -0.0013 7e-3 -0.0021 0.0104 4.75e-4 -4e-3 0.0014-2e-3 0.0021-8e-3 7.7e-5 -5.3e-4 -7.3e-5 -1e-3 0-2e-3zm-0.0053 0.0223c-0.0018 7e-3 -0.0031 0.0145-0.0048 0.0218-4.24e-4 8e-4 -3.99e-4 1e-3 -0.0011 3e-3 -2.77e-4 5.3e-4 -2.72e-4 5.3e-4 -5.3e-4 1e-3v5.3e-4c5.9e-5 7.9e-4 -4.5e-5 1e-3 0 2e-3 2.46e-4 3e-3 3.89e-4 3e-3 5.3e-4 5e-3 0.0099-0.0245 7e-3 -0.0256 0.0058-0.0327zm-0.0069 0.0275c-0.0015 6e-3 -0.0027 0.0105-0.0037 0.015 7.3e-4 -1e-3 2e-3 -3e-3 0.0027-4e-3 4.35e-4 -2e-3 5.62e-4 -2e-3 0.0011-5e-3 3.53e-4 -2e-3 1.36e-4 -4e-3 0-6e-3zm0.07267 0.4262c-0.0025 5e-3 -4.94e-4 2e-3 -0.0027 7e-3 -1.87e-4 1e-3 -3.45e-4 2e-3 -5.3e-4 3e-3 2.6e-4 5.3e-4 8.1e-4 1e-3 0.0011 2e-3 9.05e-4 -5e-3 0.0039-0.015 0.0021-0.0114zm4.4391 0.0815c0.13359-6e-3 0.26848 0.0296 0.29916 0.0784 0.03068 0.0487 0.04292 0.0839 0.02758 0.0779s-0.1497-0.0407-0.29863-0.0779l-0.27051-0.068zm6.1115 4e-3c0.0011 5e-3 0.0018 9e-3 0.0032 0.014 0.0011 4e-3 -0.0011-7e-3 -0.0016-0.0109-6.1e-5 -1.5e-4 -4.62e-4 -1e-3 -5.43e-4 -2e-3 -8.8e-5 -2.1e-4 -9.51e-4 -1e-3 -0.0011-2e-3zm8e-3 0.0275c1e-3 6e-3 0.0013 0.0118 0.0021 0.0177-4.08e-4 -8e-4 9.5e-4 2e-3 5.43e-4 1e-3 1e-3 2e-3 5e-5 -1e-4 0.0011 2e-3 -9.23e-4 -6e-3 -0.0018-0.0121-0.0027-0.0182-3.53e-4 -8e-4 -7.06e-4 -2e-3 -0.0011-3e-3zm-2.8643 0.0135c0.04475-6e-3 0.06736 7e-3 0.06736 0.0394 0 0.0546-0.08106 0.11984-0.18034 0.14536-0.21632 0.0556-0.24094 0.20349-0.03395 0.20349 0.11124 0 0.12251 0.0282 0.04721 0.11732-0.0795 0.0941-0.04151 0.11005 0.19201 0.082 0.2352-0.0282 0.26478-0.015 0.15541 0.0685-0.11614 0.0886-0.11263 0.0963 0.02281 0.0535 0.08687-0.0274 0.15806-0.0114 0.15806 0.0358s0.04663 0.0862 0.10396 0.0862c0.0578 0 0.02795-0.085-0.06736-0.19051-0.12664-0.13968-0.13633-0.17911-0.0366-0.14847 0.07447 0.0228 0.20227 0.17807 0.2843 0.34521 0.16437 0.33491 0.08994 0.52535-0.20527 0.52535-0.09321 0-0.1692 0.0347-0.1692 0.0768 0 0.10354-0.72687 0.0997-0.93088-5e-3v5.3e-4c-0.11018-0.0567-0.20663-0.0499-0.29385 0.0213-0.10312 0.084-0.12942 0.078-0.12942-0.0306 0-0.4166 0.35869-0.57547 0.54156-0.23983 0.09939 0.18252 0.36122 0.24679 0.36122 0.0888 0-0.0487-0.07119-0.0896-0.15806-0.0903-0.13498-1e-3 -0.13855-0.0138-0.02281-0.0872 0.11571-0.0734 0.11269-0.0862-0.02228-0.0872-0.08687-8e-4 -0.15806-0.0346-0.15806-0.0753 0-0.16871 0.26323-0.0569 0.36068 0.15314 0.09679 0.20865 0.1132 0.21409 0.19732 0.0664 0.06739-0.11826 0.15468-0.1465 0.33098-0.10642 0.36584 0.0832 0.04637-0.10694-0.3697-0.22011-0.19396-0.0528-0.33894-0.14742-0.33894-0.22166 0-0.0713-0.05751-0.12978-0.12836-0.12978-0.171 0-0.68371 0.61786-0.68371 0.82384 0 0.0966-0.04101 0.13719-0.10025 0.10123-0.18147-0.11017-0.0055-0.77242 0.26256-0.9884 0.134-0.10798 0.29669-0.19734 0.36122-0.19934 0.06452-2e-3 0.23703-0.0642 0.38349-0.13861 0.0873-0.0444 0.15416-0.0692 0.19891-0.0753zm2.8701 0.0275c5.7e-4 4e-3 1e-3 9e-3 0.0016 0.0135 3.53e-4 -1e-3 7.33e-4 -5e-3 5.43e-4 -0.01-6.24e-4 -1e-3 -0.0013-2e-3 -0.0021-4e-3zm-2.4468 6e-3c0.05257 0 0.09548 0.0394 0.09548 0.0883 0 0.0488-0.01789 0.0888-0.03978 0.0888-0.0219 0-0.0648-0.0401-0.09548-0.0888-0.03068-0.0488-0.01279-0.0883 0.03978-0.0883zm-3.9049 0.27617c0.18963 6e-3 0.27313 0.0285 0.18565 0.0509-0.08748 0.0224-0.13296 0.082-0.10131 0.13237 0.03731 0.0594-0.01798 0.0686-0.157 0.0265-0.12175-0.0369-0.1818-0.031-0.13897 0.013 0.04147 0.0426 0.20412 0.0855 0.36122 0.0955 0.62748 0.0397 0.64778 0.0512 0.60998 0.35196-0.0072 0.0573 0.03472 0.13316 0.09335 0.16872 0.06386 0.0388 0.0824 0.0266 0.04668-0.0301-0.0328-0.0521-0.0093-0.11125 0.05198-0.13134 0.08146-0.0267 0.06701-0.10319-0.05357-0.28396-0.11474-0.17203-0.12766-0.23507-0.04296-0.20764 0.30287 0.0982 0.38495 0.86862 0.0854 0.80152-0.05441-0.0122-0.10062 0.0273-0.10237 0.0883-0.0018 0.0609-0.05762 0.0146-0.12412-0.10331l-0.12094-0.21439-0.10449 0.19207c-0.08038 0.14749-0.18781 0.19259-0.46252 0.19259-0.22466 0-0.35896-0.0415-0.36069-0.11109-0.0015-0.0615-0.04389-0.042-0.09494 0.0441-0.09363 0.15791-0.26362 0.21291-0.26362 0.0851 0-0.0387-0.12864-0.1086-0.2859-0.15521-0.19384-0.0575-0.29513-0.14924-0.31507-0.28448-0.01618-0.10969 0.01351-0.19934 0.0663-0.19934 0.0528 0 0.27312-0.11951 0.48958-0.26579 0.28214-0.19072 0.49118-0.26296 0.73834-0.25593zm4.0004 2e-3c0.08534 0 0.06869 0.0283-0.04509 0.0763-0.09929 0.042-0.24166 0.0763-0.31613 0.0763-0.08534 0-0.0687-0.0283 0.04509-0.0763 0.09929-0.042 0.24166-0.0763 0.31613-0.0763zm2.4155 0.15937c3.54e-4 2e-3 7.88e-4 5e-3 0.0011 7e-3l5.43e-4 -5.4e-4c-7.61e-4 -3e-3 -9.78e-4 -4e-3 -0.0016-7e-3zm-0.0016 5e-3c2.2e-4 1e-3 3.53e-4 2e-3 5.43e-4 4e-3l5.43e-4 -5.3e-4c-2.49e-4 -8e-4 -6.51e-4 -2e-3 -0.0011-3e-3zm-6.7506 0.14275c-0.10159-0.01-0.27056 0.1166-0.44714 0.33847-0.12851 0.16151-0.12086 0.16746 0.15011 0.11472 0.19612-0.0381 0.31962-0.0151 0.39463 0.0737 0.13561 0.16053 0.23427 0.16448 0.29385 0.0119 0.06056-0.15501-0.24682-0.3378-0.45139-0.26838-0.1442 0.049-0.14316 0.0405 0.01008-0.0768 0.0944-0.0723 0.13441-0.15365 0.08911-0.18117-0.01158-7e-3 -0.02474-0.0111-0.03925-0.0125zm6.2754 0.0104c4.62e-4 2e-3 5.7e-4 3e-3 0.0011 5e-3 -3.53e-4 -2e-3 -7.6e-4 -4e-3 -0.0011-5e-3zm-5.6394 0.1131c-0.10333 0-0.18034 0.0589-0.18034 0.13809 0 0.0847 0.0432 0.11416 0.11245 0.0758 0.09026-0.05 0.09026-0.0384 0 0.0571-0.06205 0.0657-0.11245 0.15102-0.11245 0.19 0 0.1634 0.19136 0.0537 0.27264-0.15626 0.11679-0.30153 0.11614-0.30472-0.09229-0.30472zm-1.4549 0.17754c-0.04964 0-0.06516 0.0395-0.03448 0.0883s0.09675 0.0888 0.1464 0.0888c0.04963 0 0.06516-0.0401 0.03448-0.0888-0.03068-0.0488-0.09675-0.0883-0.1464-0.0883zm7.6327 0.0903c0.0012 6e-3 5e-3 0.024 0.0037 0.0171-8.15e-4 -5e-3 -0.0016-9e-3 -0.0027-0.014-2.47e-4 -1e-3 -0.0013-4e-3 -0.0011-3e-3zm-1.7297 0.0317c0.0095-9e-3 0.02219 3e-3 0.0366 0.0384h-5.43e-4c0.02611 0.064 0.0231 0.14032-0.0069 0.16975-0.02999 0.0295-0.05111-0.0229-0.04721-0.11628 0.0022-0.0516 0.0085-0.0826 0.01804-0.0919zm-8.6734 0.13082-5.3e-4 5.3e-4c0.0026 2e-3 0.0047 4e-3 0.0064 5e-3 -3.12e-4 -1e-3 -2.4e-4 -2e-3 -5.29e-4 -3e-3 -0.0019-1e-3 -0.0047-2e-3 -0.0053-3e-3zm0.14109 0.12926 5.3e-4 5.3e-4zm0.4132 0.19208c-0.01532-1e-3 -0.02878 2e-3 -0.03978 8e-3 -0.1309 0.0795-0.09122 0.19975 0.07797 0.23672 0.21729 0.0475 0.24886 7e-3 0.11563-0.15107-0.04676-0.0554-0.10785-0.0909-0.15382-0.094zm8.0884 0.0462c0.05257 0 0.09548 0.0401 0.09548 0.0888 0 0.0488-0.01789 0.0888-0.03978 0.0888s-0.0648-0.0401-0.09548-0.0888c-0.03068-0.0488-0.01279-0.0888 0.03978-0.0888zm-1.2242 0.0311c0.03289-6e-3 0.05623 0.0125 0.05623 0.0504 0 0.0608 0.07541 0.0635 0.22596 7e-3 0.12411-0.0462 0.22543-0.0502 0.22543-8e-3 0 0.0419-0.09145 0.10035-0.20315 0.12978v5.3e-4c-0.27501 0.0724-0.31942 0.0689-0.37978-0.027-0.02855-0.0454-0.01067-0.10745 0.03978-0.13808 0.01261-8e-3 0.02457-0.0125 0.03554-0.0145zm-8.6686 0.15677c0.0013 5e-3 0.0012 8e-3 0.0021 0.0125 2.9e-4 1e-3 0.0019 5e-3 0.0016 4e-3 -0.0028-0.0127-0.0013-7e-3 -0.0037-0.0166zm-0.06896 0.0228c-0.0013 3e-3 -0.0013 1e-3 -0.0027 4e-3 -9.32e-4 2e-3 0.0022-2e-3 0.0042-4e-3 -5.31e-4 -1e-5 -0.0011 1e-5 -0.0016 0zm11.442 9e-3c-3.5e-5 2.6e-4 4.5e-5 5.3e-4 0 1e-3 1.2e-4 -2.7e-4 3.8e-4 -8e-4 5.43e-4 -1e-3zm-0.0048 0.0285c-5.44e-4 4e-3 -6.25e-4 0.012-0.0027 0.0203-5.16e-4 2e-3 1e-3 -4e-3 0.0016-6e-3 4.89e-4 -5e-3 8.97e-4 -0.0115 0.0011-0.014zm-0.54527 0.0374c-5.16e-4 2.7e-4 -0.0038 3e-3 -0.0048 4e-3 -4.07e-4 5.3e-4 -6.52e-4 1e-3 -0.0011 2e-3 8.15e-4 -1e-3 0.0081-7e-3 0.0058-6e-3zm-0.95634 3e-3c0.01173 5e-3 0.0031 0.0367-0.02069 0.0976-0.03127 0.08-0.09306 0.14535-0.13738 0.14535-0.11607 0-0.09987-0.0514 0.05675-0.1791 0.05747-0.0469 0.08958-0.0687 0.10131-0.0639zm1.4958 0c-6.51e-4 2e-3 -0.0015 3e-3 -0.0021 5e-3v5.4e-4c-1.82e-4 1e-3 -3.53e-4 2e-3 -5.43e-4 4e-3 -4.35e-4 3e-3 0.0037-0.012 0.0027-9e-3zm-0.5527 8e-3c-5.16e-4 8e-4 -0.0016 8e-4 -0.0021 2e-3 -3.81e-4 1e-3 -6.52e-4 2e-3 -0.0011 3e-3h5.43e-4l5.43e-4 -5.3e-4c7.6e-4 -1e-3 0.0014-3e-3 0.0021-4e-3zm-9.0733 0.0929c-0.0046 2.7e-4 -0.0052 8e-4 -0.0085 1e-3 -0.0013 2e-3 -0.0019 3e-3 -0.0032 5e-3 0.01277-2e-3 0.01918-2e-3 0.02387-3e-3 -5.13e-4 -2.6e-4 -0.0011-1e-3 -0.0016-2e-3 -0.0023-5.3e-4 -1e-3 -8e-4 -0.01061-1e-3zm-0.01008 2e-3c-0.0027 1.4e-4 -0.0049 5.3e-4 -0.0074 1e-3 0.0011 1e-3 0.0021 2e-3 0.0032 3e-3 0.0016-2e-3 0.0024-2e-3 0.0042-4e-3zm5.9953 0.14068c0.04964 0 0.11572 0.0401 0.1464 0.0888 0.03068 0.0488 0.01517 0.0888-0.03448 0.0888-0.04964 0-0.11572-0.04-0.1464-0.0888s-0.01517-0.0888 0.03448-0.0888zm-7.5675 0.0129c-8.61e-4 2.6e-4 -0.0018-7e-5 -0.0027 5.3e-4 -0.0044 3e-3 -0.01227 9e-3 -9e-3 7e-3 0.0039-2e-3 0.0078-5e-3 0.01167-7e-3zm10.486 0.0301c7.61e-4 1e-3 0.0015 2e-3 0.0042 5e-3 1.03e-4 -5.3e-4 -1.08e-4 -5.3e-4 0-1e-3v-5.3e-4c-4.35e-4 -5.3e-4 -0.0012-1e-3 -0.0016-2e-3 -7.88e-4 -8e-4 -0.0019-1e-3 -0.0027-2e-3zm0.0313 0.0343c2.06e-4 5.4e-4 3.26e-4 1e-3 5.43e-4 2e-3l5.43e-4 5.3e-4c5.98e-4 5.3e-4 4.89e-4 5.3e-4 0.0011 1e-3 -2.48e-4 -5.3e-4 -1.18e-4 -1e-3 -5.43e-4 -2e-3 -3.53e-4 -5.3e-4 -7.06e-4 -1e-3 -0.0011-2e-3zm0.0058 5e-3c1.46e-4 2.7e-4 3.81e-4 8e-4 5.43e-4 1e-3l5.44e-4 -5.4e-4c-2.37e-4 -2.6e-4 -8.15e-4 -9e-5 -0.0011-5.3e-4zm-3.1899 0.0509 0.06471 0.22166c0.04389 0.14966 0.01068 0.31699-0.1029 0.51497-0.09252 0.16127-0.16867 0.33087-0.16867 0.37688 0 0.14051 0.33145 0.0929 0.46306-0.0664 0.06814-0.0826 0.08307-0.12611 0.03342-0.0971-0.05465 0.032-0.09017-0.10156-0.09017-0.33795 0-0.48142 0.07424-0.49823 0.21164-0.0478 0.12048 0.395 0.12847 0.54875 0.03554 0.68731-0.09783 0.14593-0.39664 0.20166-0.65348 0.122-0.12411-0.0385-0.3494-0.0739-0.50125-0.0789-0.15185-5e-3 -0.35371-0.0645-0.4482-0.13238-0.14597-0.10484-0.15381-0.14464-0.05145-0.26579 0.06625-0.0784 0.19693-0.14275 0.29014-0.14275 0.09321 0 0.1692-0.0489 0.1692-0.1085s0.06425-0.0181 0.14268 0.0919l0.14268 0.19987 0.15966-0.20246c0.08774-0.11134 0.19174-0.32195 0.23126-0.46825zm-5.6818 0.11109-5.29e-4 5.3e-4c5.08e-4 -7e-5 0.0011 6e-5 0.0016 0v-5.3e-4zm-1.5011 0.10382c-0.0017 1e-3 -0.0036 2e-3 -0.0053 3e-3 -6.38e-4 5.3e-4 -0.0015 5.3e-4 -0.0021 1e-3l-5.3e-4 5.3e-4c-3.94e-4 2.7e-4 -6.57e-4 -2e-4 -0.0011 5.4e-4 -5.13e-4 5.3e-4 -5.24e-4 1e-3 -0.0011 2e-3 -0.0034 3e-3 -0.0034 5e-3 -0.0074 9e-3 -6.41e-4 1.7e-4 0.0048-1e-3 0.0042-1e-3l5.29e-4 -5.3e-4h5.3e-4c0.0015-2e-3 0.0032-3e-3 0.0048-5e-3 0.0024-3e-3 0.0051-6e-3 0.0074-9e-3zm-0.01326 0.0145-0.0058 3e-3c-4.02e-4 5.3e-4 -1.49e-4 5.3e-4 -5.3e-4 1e-3 0.0011-2.6e-4 0.0021-7.9e-4 0.0032-1e-3 1e-3 -1e-3 0.0022-2e-3 0.0032-3e-3zm-0.0058 3e-3c9.12e-4 -1e-3 6.98e-4 -1e-3 0.0016-2e-3 6.41e-4 -1.7e-4 -5e-3 1e-3 -0.0042 1e-3 -0.0022 2e-3 -0.0024 2e-3 -0.0042 4e-3 0.0014-5.3e-4 0.0028-1e-3 0.0042-2e-3zm1.5801-9e-3c0.0013 1e-3 0.0024 2e-3 0.0037 4e-3 -3.9e-5 2.6e-4 -0.0015-4e-3 -0.0016-4e-3 -7.09e-4 1e-5 -0.0014 0-0.0021 0zm0.0854 3e-3c-0.01184 0.0109-0.02303 0.0223-0.03554 0.0327-2.6e-5 2.6e-4 -5.05e-4 7.9e-4 -5.29e-4 1e-3 0.01223-0.0111 0.02497-0.0218 0.036069-0.0337zm-0.06683 4e-3c0.0021 5e-3 0.0038 0.0104 0.0058 0.0156h5.29e-4c-0.0014-4e-3 -0.0017-6e-3 -0.0042-0.013-0.0013-1e-3 -8.72e-4 -1e-3 -0.0021-3e-3zm0.0085 0.0104c0.0015 4e-3 8.18e-4 5e-3 0.0027 0.01 8.94e-4 -1e-3 0.0018-2e-3 0.0027-4e-3 -0.0022-2e-3 -0.0025-3e-3 -0.0053-6e-3zm-1.7164 0.054c-0.0062 5e-3 -0.0065 5e-3 -0.01114 9e-3 0.0046-2e-3 0.0025-2e-3 0.0064-3e-3h5.29e-4l5.3e-4 -5.3e-4c2e-3 -3e-3 0.0017-2e-3 0.0037-5e-3zm-8e-3 4e-3c4e-3 -3e-3 -0.01274 7e-3 -0.01803 0.0109 3e-3 -1e-3 0.0018-7.9e-4 9e-3 -4e-3 0.0036-3e-3 0.01-7e-3 9e-3 -7e-3zm-0.01379 0.0119c-1.7e-5 -1.1e-4 -0.0036 2e-3 -0.0042 2e-3 1.1e-4 -2e-5 2e-3 -5.4e-4 0.0021-5.4e-4 0.0014-1e-3 8.94e-4 -5.3e-4 0.0021-2e-3zm1.7939 0.29486c9.45e-4 4e-3 0.0022 8e-3 0.0032 0.0125 3.94e-4 5.3e-4 6.65e-4 1e-3 0.0011 2e-3 0.0025 4e-3 -0.0053-0.0194-0.0042-0.0145zm7.8905 0.0945c0.0244 5.3e-4 0.02683 0.0353 0.0037 0.0945-0.06001 0.15359-0.12465 0.18203-0.12465 0.0545 0-0.0459 0.04004-0.10774 0.08911-0.13757 0.01279-8e-3 0.02369-0.0116 0.03183-0.0114zm-3.1072 0.2434c-0.03136-1e-3 -0.06714 4e-3 -0.09972 0.0171-0.07199 0.0283-0.05051 0.0495 0.05463 0.0535 0.09515 4e-3 0.14881-0.0173 0.11881-0.0467-0.015-0.0148-0.04237-0.0226-0.07373-0.0239zm-3.9532 0.0701c-1e-3 2e-3 -0.0022 3e-3 -0.0032 5e-3 -1.67e-4 5.3e-4 -3.53e-4 1e-3 -5.43e-4 2e-3 0.0014-2e-3 0.0023-3e-3 0.0032-5e-3 2.42e-4 -5.3e-4 -3.9e-5 -1e-3 5.44e-4 -2e-3zm7.6274 0.61983c-6.52e-4 2e-3 -4.07e-4 4e-3 -0.0016 7e-3 -0.0038 8e-3 -0.0038 6e-3 0.0016-7e-3zm-3.7044 0.22997c0.56612-2.7e-4 1.1208 0.0211 1.1208 0.0649 0 0.0374-0.05039 0.0712-0.11245 0.0742-0.06205 3e-3 -0.03192 0.0389 0.06736 0.0789 0.16848 0.0678 0.1643 0.0789-0.06736 0.16871-0.13651 0.0529-0.24824 0.15947-0.24824 0.23672 0 0.0772-0.03899 0.11708-0.08646 0.0882-0.04747-0.0288-0.06351-0.1111-0.03554-0.18273 0.05443-0.13933-0.04109-0.16861-0.20315-0.0623v-1e-3c-0.05461 0.0358-0.11541 0.10742-0.13526 0.15885-0.0247 0.064-0.1016 0.0605-0.24346-0.0104-0.20439-0.10227-0.20321-0.10454 0.09017-0.17546 0.62279-0.1505 0.76772-0.21369 0.39781-0.17391-0.19314 0.0208-0.41766 2e-3 -0.49912-0.0405-0.08147-0.0423-0.28929-0.0444-0.46146-5e-3l-0.31295 0.0721 0.4063 0.0239c0.39755 0.0234 0.39872 0.0249 0.07214 0.0587-0.26816 0.0277-0.32264 0.0637-0.27794 0.18429 0.04942 0.13333 0.03505 0.132-0.13207-0.0119-0.10345-0.0891-0.27958-0.14887-0.39092-0.1329-0.11134 0.016-0.21638-0.0121-0.23392-0.0623-0.01754-0.0503 0.07648-0.10025 0.20952-0.1111 0.33295-0.0271 0.39028-0.10797 0.07638-0.10797-0.14066 0-0.22553-0.0299-0.1883-0.0665 0.04468-0.0437 0.62202-0.0656 1.1881-0.0659zm1.4258 0.16716c0.03289 1e-3 0.05622 0.0364 0.05622 0.0934 0 0.1557-0.05417 0.17852-0.13154 0.0555-0.02856-0.0454-0.01067-0.10744 0.03978-0.13808 0.01261-8e-3 0.02458-0.0113 0.03554-0.0109zm-4.7743 0.15781c0.0012 5e-3 0.0026 0.01 0.0037 0.015v5.3e-4c4.89e-4 2e-3 0.0011 4e-3 0.0016 6e-3 0.0053 3e-3 0.01123 7e-3 0.01804 0.0119-0.0077-0.0114-0.01566-0.0222-0.02334-0.0337zm0.01962 0.0794c3.81e-4 1e-3 2.99e-4 3e-3 5.44e-4 4e-3v5.3e-4c3.53e-4 1e-3 8.69e-4 2e-3 0.0011 3e-3l5.43e-4 5.3e-4c-1e-3 -4e-3 -0.0014-5e-3 -0.0021-8e-3zm6.9464 0.0524c-0.0032 9e-3 -0.0063 0.018-0.0095 0.027 0.0017-4e-3 0.0033-7e-3 0.0048-0.0114 2e-3 -5e-3 0.0068-0.0207 0.0048-0.0156zm-7.2731 0.37325c6.25e-4 1e-3 9.51e-4 3e-3 0.0016 4e-3 2.58e-4 2.5e-4 -3e-5 7.9e-4 5.43e-4 1e-3 3.53e-4 2.7e-4 6.79e-4 8e-4 0.0011 1e-3 -6.52e-4 -2e-3 -0.0015-3e-3 -0.0021-5e-3 -4.62e-4 -5.4e-4 -5.98e-4 -1e-3 -0.0011-2e-3zm0.0042 5e-3c1.29e-4 2.3e-4 -1.3e-4 8e-4 0 1e-3 3.8e-4 1e-3 -1.28e-4 5.3e-4 5.43e-4 2e-3 3.53e-4 5.3e-4 -1.24e-4 2e-3 5.43e-4 3e-3 2.72e-4 2.7e-4 7.61e-4 5.4e-4 0.0011 1e-3 -5.44e-4 -1e-3 6.7e-5 -2e-3 -5.44e-4 -3e-3 -3.26e-4 -2e-3 1.19e-4 -8e-4 -5.43e-4 -3e-3 -2.71e-4 -2.5e-4 -7.87e-4 2e-5 -0.0011-5.3e-4zm0.0011 5.3e-4c2.99e-4 1e-3 7.61e-4 2e-3 0.0011 4e-3 7.34e-4 5.3e-4 0.0014 1e-3 0.0021 2e-3 -1.39e-4 -8e-4 -3.81e-4 -2e-3 -5.44e-4 -3e-3 -9.23e-4 -8e-4 -0.0017-2e-3 -0.0027-3e-3zm0.0011 4e-3c2e-4 1e-3 -1.83e-4 8e-4 0 2e-3v5.3e-4c3.26e-4 2e-3 7.88e-4 2e-3 0.0011 4e-3 -7.88e-4 -2e-3 -0.0014-3e-3 -0.0021-5e-3l-5.43e-4 -5.3e-4c4.9e-5 5.3e-4 -4.8e-5 1e-3 0 2e-3 4.07e-4 8e-4 6.25e-4 2e-3 0.0011 3e-3 1.26e-4 4e-5 5.16e-4 2e-3 5.43e-4 2e-3 1.7e-5 -9e-5 0.0011 1e-3 0.0011 1e-3 7.4e-5 5.3e-4 -7.2e-5 5.3e-4 0 1e-3 2.31e-4 5.3e-4 8.41e-4 1e-3 0.0011 2e-3 -1.18e-4 -2.6e-4 7.9e-5 -7.9e-4 0-1e-3 -2.15e-4 -8e-4 -3.26e-4 -2e-3 -5.44e-4 -3e-3 -7.33e-4 -2e-3 -2.71e-4 -2e-3 -0.0011-4e-3 -2.1e-4 -8e-4 -3.26e-4 -2e-3 -5.43e-4 -3e-3zm3.8174 3e-3c0.07739 0 0.14056 0.0401 0.14056 0.0888 0 0.0488-0.03815 0.0888-0.08487 0.0888-0.04671 0-0.10988-0.0401-0.14056-0.0888-0.03067-0.0488 0.0075-0.0888 0.08487-0.0888zm-3.8126 0.027c2e-4 1e-3 8.69e-4 5e-3 0.0011 6e-3 9.77e-4 2e-3 0.0022 3e-3 0.0032 5e-3 -2.99e-4 -2e-3 -7.88e-4 -3e-3 -0.0011-5e-3 -0.0011-2e-3 -0.0021-4e-3 -0.0032-5e-3zm5.3068 0.41634c0.04965 0 0.0907 0.0401 0.0907 0.0888 0 0.0488-0.04106 0.0888-0.0907 0.0888-0.04965 0-0.09017-0.04-0.09017-0.0888s0.04052-0.0888 0.09017-0.0888zm-3.9856 0.0883v5.3e-4c-2.2e-5 0 0.0011 5.3e-4 0.0011 5.3e-4 -5.16e-4 -5.3e-4 2.72e-4 -5.3e-4 -5.43e-4 -1e-3zm0.0042 1e-3c5.7e-4 5.3e-4 1e-3 1e-3 0.0016 2e-3 5e-5 2e-5 0.0031 1e-3 0.0032 1e-3 -2.4e-4 -2.7e-4 -0.0013-1e-3 -0.0016-2e-3 -9.51e-4 -2.5e-4 -0.0023-8e-4 -0.0032-1e-3zm0.0785 0.055c9.23e-4 2e-3 0.0017 3e-3 0.0032 6e-3 0.0019 1e-3 3e-3 2e-3 0.0048 3e-3 -5.7e-4 -1e-3 -0.0011-3e-3 -0.0016-4e-3 -0.0022-2e-3 -0.0042-3e-3 -0.0064-5e-3zm-0.02016 0.0104c-1.06e-4 -5e-5 0.0022 3e-3 0.0021 3e-3 0.0013 1e-3 0.0024 2e-3 0.0037 4e-3 0.0013 1e-3 -0.0012-2e-3 -0.0027-5e-3l-5.43e-4 -5.3e-4c-8.69e-4 -5.3e-4 -0.0018-1e-3 -0.0027-2e-3zm-0.8545 0.40439c6.24e-4 2e-3 4.07e-4 2e-3 0.0011 4e-3 0.0012 3e-3 9.23e-4 3e-3 0.0021 6e-3 0.0011 2e-3 0.0012 2e-3 0.0027 5e-3 -5.98e-4 -3e-3 -0.0015-5e-3 -0.0021-8e-3 -9.77e-4 -2e-3 -0.0028-4e-3 -0.0037-7e-3zm6.1529 0.0836c-0.0044 3e-3 -0.0051 6e-3 -9e-3 9e-3 0.0039-3e-3 0.0079-6e-3 0.01167-9e-3 -8.96e-4 0-0.0018-1e-5 -0.0027 0zm0.01697 1e-3c-0.0027 3e-3 -0.0053 7e-3 -8e-3 0.01 0.0013-1e-3 0.0024-2e-3 0.0037-4e-3 5e-3 -7e-3 -0.0012 2e-3 0.0042-6e-3zm-0.05622 0.0208c-9.78e-4 5.3e-4 -0.0022 1e-3 -0.0032 2e-3 -5.97e-4 7.9e-4 -5.16e-4 2.6e-4 -0.0027 4e-3 3.25e-4 -4e-5 7.33e-4 4e-5 0.0011 0 0.0017-2e-3 0.0028-2e-3 0.0037-4e-3 6.25e-4 -1e-3 5.7e-4 -2e-3 0.0011-3e-3zm-4.2418 0.1521c9.78e-4 2e-3 0.0017 5e-3 0.0027 7e-3 -1.36e-4 -2.7e-4 1.41e-4 -8e-4 0-1e-3 -8.14e-4 -2e-3 -0.0017-4e-3 -0.0027-6e-3zm-0.67947 0.19208c-0.0014 1e-3 -0.0018 2e-3 -0.0032 3e-3 3.8e-4 2.6e-4 0.0027 8e-4 0.0032 1e-3 9.24e-4 -8e-4 0.0023-2e-3 0.0032-3e-3 -1e-3 -5.3e-4 -0.0021-1e-3 -0.0032-2e-3zm0.19095 0.0379c0.0011 7.9e-4 0.0011 7.9e-4 0.0021 2e-3 1.93e-4 1.3e-4 8.42e-4 8e-4 0.0011 1e-3 4.07e-4 2.7e-4 6.79e-4 -6e-5 0.0011 5.3e-4l5.43e-4 5.4e-4c0.0012 5.3e-4 0.0025 1e-3 0.0037 2e-3 -2.35e-4 -5.3e-4 -2.98e-4 -1e-3 -5.43e-4 -2e-3h-5.43e-4c-0.0011-1.4e-4 -0.0021-2.6e-4 -0.0032-5.3e-4 -3.26e-4 -5.3e-4 -7.33e-4 -1e-3 -0.0011-2e-3 -0.0011-2.7e-4 -0.0021-8e-4 -0.0032-1e-3zm0.01432 4e-3c1.48e-4 1e-3 -1.5e-4 2e-3 0 3e-3h5.43e-4c0.0012 8e-5 0.0042 5.3e-4 0.0053 5.3e-4 -2.65e-4 -5.3e-4 -7.87e-4 -1e-3 -0.0011-2e-3 -0.0015-5.3e-4 -0.0028-1e-3 -0.0042-2e-3zm0.0048 2e-3c0.0014 5.3e-4 0.0023 1e-3 0.0037 2e-3 7.88e-4 3e-5 0.0036 5.4e-4 0.0042 5.4e-4 -8.96e-4 -5.4e-4 -0.0017-1e-3 -0.0027-2e-3 -2e-3 -5.3e-4 -0.0038-2e-3 -0.0058-2e-3 1.69e-4 2.7e-4 3.53e-4 8e-4 5.43e-4 1e-3zm0.0037 2e-3c-4.89e-4 -1e-5 -0.0021-5.3e-4 -0.0027-5.3e-4 4.34e-4 1e-3 0.0012 2e-3 0.0016 3e-3 0.0065 3e-3 0.01309 5e-3 0.01963 8e-3l5.43e-4 -5.3e-4c-2.6e-4 -2.7e-4 6.8e-5 -8e-4 -5.43e-4 -1e-3h-5.44e-4l-5.43e-4 -5.3e-4c-9.23e-4 -5.3e-4 -0.0012-5.3e-4 -0.0021-1e-3 -0.0065-3e-3 -0.0096-4e-3 -0.01538-7e-3zm4.5473 0.0286c-3.26e-4 7.9e-4 1.4e-5 7.9e-4 -5.43e-4 2e-3 4.07e-4 -1.7e-4 6.52e-4 -2.7e-4 0.0011-5.3e-4 4.5e-5 -2.7e-4 -4.7e-5 -8e-4 0-1e-3z" fill="#fff" stroke-width=".089457"/>
</svg>
