<?xml version="1.0" encoding="UTF-8"?>
<svg viewBox="0 0 48 48" xmlns="http://www.w3.org/2000/svg">
    <path d="M24 2.298A21.714 21.714 0 0 0 7.113 10.39l5.93 10.273A11.46 11.46 0 0 1 24 12.553h18.43A21.714 21.714 0 0 0 24 2.298zM4.86 13.778A21.714 21.714 0 0 0 2.286 24.01 21.714 21.714 0 0 0 20.652 45.44l5.933-10.278a11.46 11.46 0 0 1-2.585.31 11.46 11.46 0 0 1-9.84-5.61l-.01.005zm27.51 2.42a11.46 11.46 0 0 1 3.09 7.814 11.46 11.46 0 0 1-1.564 5.757l.01.006-9.196 15.926a21.714 21.714 0 0 0 21.004-21.69 21.714 21.714 0 0 0-1.458-7.814z" fill="#fff"/>
    <circle cx="24" cy="24" r="7.815" fill="#fff"/>
</svg>
