<?xml version="1.0" encoding="UTF-8"?>
<svg viewBox="0 0 48 48" xmlns="http://www.w3.org/2000/svg">
    <defs>
        <style>.cls-1{fill:#2b2b2b;}.cls-2{fill:#fff;}</style>
    </defs>
    <g data-name="Layer 2">
        <rect class="cls-1" x="-393.85" y="-350.1" width="674.7" height="426.15"/>
        <rect class="cls-1" x="-338.51" y="-350.1" width="674.7" height="426.15"/>
        <rect class="cls-1" x="-393.85" y="-296.7" width="674.7" height="426.15"/>
        <rect class="cls-1" x="-338.51" y="-296.7" width="674.7" height="426.15"/>
        <rect class="cls-1" x="-393.85" y="-405.17" width="674.7" height="426.15"/>
        <rect class="cls-1" x="-338.51" y="-405.17" width="674.7" height="426.15"/>
        <rect class="cls-1" x="-393.01" y="-352.25" width="674.7" height="426.15"/>
    </g>
    <g data-name="Layer 1">
        <path class="cls-2" d="M24,2A22,22,0,1,0,46,24,22,22,0,0,0,24,2ZM10.71,15.58h17v2.9h-17Zm11,13.83h-11v-2.9h11ZM10.71,24v-2.9h17V24Zm26.58-5.47h-4V31a4.49,4.49,0,1,1-4.48-4.49,4.35,4.35,0,0,1,1.58.3V15.58h6.89Z"/>
    </g>
</svg>
