<?xml version="1.0" encoding="UTF-8" standalone="no"?>
<svg xmlns="http://www.w3.org/2000/svg" version="1.1" viewBox="0 0 48 48">
  <path
     style="fill:#ffffff;"
     d="M 13.466797 5 C 8.8100968 5 5 8.8089968 5 13.466797 L 5 34.533203 C 5 39.191003 8.8100968 43.001953 13.466797 43.001953 L 34.533203 43.001953 C 39.189903 43.001953 43 39.191003 43 34.533203 L 43 13.466797 C 43 8.8089968 39.189903 5 34.533203 5 L 13.466797 5 z M 24.119141 8.0390625 L 24.857422 8.0390625 L 24.857422 12.970703 L 24.119141 12.970703 L 24.119141 12.576172 C 23.886525 12.86689 23.537829 13.054687 23.058594 13.054688 C 22.114126 13.054687 21.371094 12.333483 21.371094 11.330078 C 21.371094 10.32709 22.113917 9.6035156 23.058594 9.6035156 C 23.537829 9.6035156 23.886525 9.796759 24.119141 10.087891 L 24.119141 8.0390625 z M 37.664062 8.6972656 L 38.404297 8.6972656 L 38.404297 9.6894531 L 39.697266 9.6894531 L 39.697266 10.339844 L 38.404297 10.339844 L 38.404297 11.767578 C 38.404297 12.209402 38.643307 12.380859 38.939453 12.380859 C 39.168313 12.380859 39.420034 12.281509 39.621094 12.158203 L 39.912109 12.730469 C 39.640409 12.908745 39.299753 13.054688 38.876953 13.054688 C 38.112219 13.054688 37.664062 12.654241 37.664062 11.78125 L 37.664062 8.6972656 z M 9.8574219 9.6035156 C 10.361528 9.6035156 10.82139 9.7830203 11.121094 10.128906 L 10.648438 10.617188 C 10.412686 10.40171 10.162049 10.279297 9.8378906 10.279297 C 9.2706666 10.279297 8.8398438 10.710396 8.8398438 11.330078 C 8.8398437 11.949761 9.2704576 12.380859 9.8378906 12.380859 C 10.162049 12.380859 10.450956 12.234476 10.666016 12.039062 L 11.121094 12.53125 C 10.814283 12.877144 10.361528 13.054687 9.8574219 13.054688 C 8.7823299 13.054688 8.0820312 12.312583 8.0820312 11.330078 C 8.0820313 10.347781 8.7823299 9.6035156 9.8574219 9.6035156 z M 13.304688 9.6035156 C 14.348012 9.6035159 15.124791 10.347154 15.125 11.330078 C 15.125 12.312374 14.348012 13.054687 13.304688 13.054688 C 12.261154 13.054688 11.490234 12.312583 11.490234 11.330078 C 11.490234 10.347781 12.261154 9.6035156 13.304688 9.6035156 z M 29.335938 9.6035156 C 29.561447 9.6035156 29.734796 9.6322656 29.904297 9.6972656 L 29.728516 10.404297 C 29.573647 10.325497 29.348126 10.285156 29.167969 10.285156 C 28.699183 10.285156 28.363281 10.607988 28.363281 11.166016 L 28.363281 12.96875 L 27.626953 12.96875 L 27.626953 9.6894531 L 28.357422 9.6894531 L 28.357422 10.060547 C 28.57917 9.7489338 28.923374 9.6035156 29.335938 9.6035156 z M 31.810547 9.6035156 C 32.755223 9.6035156 33.404803 10.302285 33.408203 11.326172 C 33.408203 11.418762 33.401201 11.51141 33.394531 11.59375 L 30.898438 11.59375 C 30.997498 12.18271 31.423109 12.429687 31.902344 12.429688 C 32.240923 12.429688 32.60052 12.297927 32.878906 12.082031 L 33.246094 12.59375 C 32.833738 12.936299 32.368216 13.054687 31.857422 13.054688 C 30.845866 13.054688 30.128906 12.370894 30.128906 11.330078 C 30.128906 10.303056 30.816547 9.6035156 31.810547 9.6035156 z M 35.712891 9.6035156 C 36.216998 9.6035156 36.674905 9.7830093 36.974609 10.128906 L 36.501953 10.617188 C 36.266202 10.401708 36.015773 10.279297 35.691406 10.279297 C 35.123974 10.279297 34.695312 10.710396 34.695312 11.330078 C 34.695313 11.949761 35.123974 12.380859 35.691406 12.380859 C 36.015773 12.380859 36.30468 12.234476 36.519531 12.039062 L 36.974609 12.53125 C 36.668007 12.877144 36.216788 13.054687 35.712891 13.054688 C 34.637381 13.054688 33.935547 12.312583 33.935547 11.330078 C 33.935547 10.347781 34.637381 9.6035156 35.712891 9.6035156 z M 17.388672 9.6113281 C 17.824225 9.6113281 18.076776 9.7739203 18.279297 9.9902344 C 18.522363 9.7686954 18.830914 9.6113281 19.271484 9.6113281 C 20.304149 9.6113281 20.724818 10.294162 20.724609 11.292969 L 20.724609 12.970703 L 19.974609 12.970703 L 19.974609 11.191406 C 19.974609 10.684792 19.782696 10.310547 19.271484 10.310547 C 18.987872 10.310547 18.825295 10.453109 18.683594 10.605469 L 18.683594 12.970703 L 17.935547 12.970703 L 17.935547 11.189453 C 17.935547 10.682839 17.732695 10.310547 17.287109 10.310547 C 16.978209 10.310547 16.776201 10.453109 16.644531 10.605469 L 16.644531 12.970703 L 15.894531 12.970703 L 15.894531 9.6855469 L 16.644531 9.6855469 L 16.644531 9.9257812 C 16.786233 9.7784363 17.075173 9.6113281 17.388672 9.6113281 z M 25.871094 9.6894531 L 26.611328 9.6894531 L 26.611328 12.96875 L 25.871094 12.96875 L 25.871094 9.6894531 z M 31.796875 10.240234 C 31.271869 10.240234 30.980094 10.569801 30.902344 11.048828 L 32.654297 11.048828 C 32.573414 10.538873 32.26566 10.240234 31.796875 10.240234 z M 13.304688 10.279297 C 12.701723 10.279297 12.247838 10.710813 12.248047 11.330078 C 12.248047 11.949969 12.701724 12.380859 13.304688 12.380859 C 13.907442 12.380859 14.367188 11.949969 14.367188 11.330078 C 14.367188 10.710604 13.90744 10.279297 13.304688 10.279297 z M 23.146484 10.279297 C 22.511753 10.279297 22.128697 10.755121 22.128906 11.330078 C 22.128906 11.905034 22.511962 12.380859 23.146484 12.380859 C 23.756343 12.380859 24.166016 11.929278 24.166016 11.330078 C 24.166016 10.730877 23.756553 10.279297 23.146484 10.279297 z M 26.115234 14.480469 A 13.505783 13.505783 0 0 1 35.59375 18.572266 L 31.306641 22.738281 A 7.5284919 7.5284919 0 0 0 23.082031 21.005859 A 7.5284919 7.5284919 0 0 0 18.378906 27.970703 A 7.5284919 7.5284919 0 0 0 23.056641 34.951172 A 7.5284919 7.5284919 0 0 0 31.287109 33.251953 L 35.558594 37.431641 A 13.505783 13.505783 0 0 1 20.792969 40.484375 A 13.505783 13.505783 0 0 1 12.402344 27.958984 A 13.505783 13.505783 0 0 1 20.839844 15.464844 A 13.505783 13.505783 0 0 1 26.115234 14.480469 z "
     id="path2" />
</svg>
