<?xml version="1.0" encoding="UTF-8" standalone="no"?>
<svg xmlns="http://www.w3.org/2000/svg" version="1.1" viewBox="0 0 48 48">
  <path
     style="fill:#ffffff;stroke-width:0.86448002"
     d="M 13.466797 5 C 8.8100969 5 5 8.8089969 5 13.466797 L 5 34.533203 C 5 39.191003 8.8100969 43.001953 13.466797 43.001953 L 34.533203 43.001953 C 39.189903 43.001953 43 39.191003 43 34.533203 L 43 13.466797 C 43 8.8089969 39.189903 5 34.533203 5 L 13.466797 5 z M 24.119141 8.0390625 L 24.857422 8.0390625 L 24.857422 12.970703 L 24.119141 12.970703 L 24.119141 12.576172 C 23.886525 12.86689 23.537829 13.054688 23.058594 13.054688 C 22.114126 13.054687 21.371094 12.333483 21.371094 11.330078 C 21.371094 10.32709 22.113917 9.6035156 23.058594 9.6035156 C 23.537829 9.6035156 23.886525 9.7967594 24.119141 10.087891 L 24.119141 8.0390625 z M 37.664062 8.6972656 L 38.404297 8.6972656 L 38.404297 9.6894531 L 39.697266 9.6894531 L 39.697266 10.339844 L 38.404297 10.339844 L 38.404297 11.767578 C 38.404297 12.209402 38.643307 12.380859 38.939453 12.380859 C 39.168313 12.380859 39.420034 12.281513 39.621094 12.158203 L 39.912109 12.730469 C 39.640409 12.908745 39.299753 13.054688 38.876953 13.054688 C 38.112219 13.054688 37.664062 12.654241 37.664062 11.78125 L 37.664062 8.6972656 z M 9.8574219 9.6035156 C 10.361528 9.6035156 10.82139 9.7830201 11.121094 10.128906 L 10.648438 10.617188 C 10.412687 10.40171 10.162049 10.279297 9.8378906 10.279297 C 9.2706666 10.279297 8.8398438 10.710396 8.8398438 11.330078 C 8.8398437 11.949761 9.2704576 12.380859 9.8378906 12.380859 C 10.162049 12.380859 10.450956 12.234476 10.666016 12.039062 L 11.121094 12.53125 C 10.814283 12.877144 10.361528 13.054688 9.8574219 13.054688 C 8.7823299 13.054688 8.0820312 12.312583 8.0820312 11.330078 C 8.0820313 10.347781 8.7823299 9.6035156 9.8574219 9.6035156 z M 13.304688 9.6035156 C 14.348012 9.6035159 15.124791 10.347154 15.125 11.330078 C 15.125 12.312374 14.348012 13.054688 13.304688 13.054688 C 12.261155 13.054688 11.490234 12.312583 11.490234 11.330078 C 11.490234 10.347781 12.261154 9.6035156 13.304688 9.6035156 z M 29.335938 9.6035156 C 29.561448 9.6035156 29.734796 9.6322656 29.904297 9.6972656 L 29.728516 10.404297 C 29.573647 10.325501 29.348126 10.285156 29.167969 10.285156 C 28.699183 10.285156 28.363281 10.607988 28.363281 11.166016 L 28.363281 12.96875 L 27.626953 12.96875 L 27.626953 9.6894531 L 28.357422 9.6894531 L 28.357422 10.060547 C 28.57917 9.7489339 28.923374 9.6035156 29.335938 9.6035156 z M 31.810547 9.6035156 C 32.755223 9.6035156 33.404803 10.302285 33.408203 11.326172 C 33.408203 11.418758 33.401231 11.51141 33.394531 11.59375 L 30.898438 11.59375 C 30.997502 12.18271 31.423109 12.429688 31.902344 12.429688 C 32.240923 12.429688 32.60052 12.297927 32.878906 12.082031 L 33.246094 12.59375 C 32.833738 12.936299 32.368216 13.054688 31.857422 13.054688 C 30.845866 13.054688 30.128906 12.370894 30.128906 11.330078 C 30.128906 10.303056 30.816547 9.6035156 31.810547 9.6035156 z M 35.712891 9.6035156 C 36.216998 9.6035156 36.674905 9.7830091 36.974609 10.128906 L 36.501953 10.617188 C 36.266202 10.401709 36.015773 10.279297 35.691406 10.279297 C 35.123974 10.279297 34.695312 10.710396 34.695312 11.330078 C 34.695313 11.949761 35.123974 12.380859 35.691406 12.380859 C 36.015773 12.380859 36.30468 12.234476 36.519531 12.039062 L 36.974609 12.53125 C 36.668007 12.877144 36.216788 13.054688 35.712891 13.054688 C 34.637381 13.054688 33.935547 12.312583 33.935547 11.330078 C 33.935547 10.347781 34.637381 9.6035156 35.712891 9.6035156 z M 17.388672 9.6113281 C 17.824225 9.6113281 18.076776 9.7739203 18.279297 9.9902344 C 18.522363 9.7686954 18.830914 9.6113281 19.271484 9.6113281 C 20.304149 9.6113281 20.724818 10.294162 20.724609 11.292969 L 20.724609 12.970703 L 19.974609 12.970703 L 19.974609 11.191406 C 19.974609 10.684792 19.782696 10.310547 19.271484 10.310547 C 18.987872 10.310547 18.825295 10.453109 18.683594 10.605469 L 18.683594 12.970703 L 17.935547 12.970703 L 17.935547 11.189453 C 17.935547 10.682839 17.732695 10.310547 17.287109 10.310547 C 16.978209 10.310547 16.776201 10.453109 16.644531 10.605469 L 16.644531 12.970703 L 15.894531 12.970703 L 15.894531 9.6855469 L 16.644531 9.6855469 L 16.644531 9.9257812 C 16.786233 9.7784363 17.075173 9.6113281 17.388672 9.6113281 z M 25.871094 9.6894531 L 26.611328 9.6894531 L 26.611328 12.96875 L 25.871094 12.96875 L 25.871094 9.6894531 z M 31.796875 10.240234 C 31.271869 10.240234 30.980094 10.569801 30.902344 11.048828 L 32.654297 11.048828 C 32.573414 10.53887 32.26566 10.240234 31.796875 10.240234 z M 13.304688 10.279297 C 12.701724 10.279297 12.247838 10.710813 12.248047 11.330078 C 12.248047 11.949969 12.701724 12.380859 13.304688 12.380859 C 13.907442 12.380859 14.367188 11.949969 14.367188 11.330078 C 14.367188 10.710604 13.907441 10.279297 13.304688 10.279297 z M 23.146484 10.279297 C 22.511753 10.279297 22.128697 10.755121 22.128906 11.330078 C 22.128906 11.905034 22.511962 12.380859 23.146484 12.380859 C 23.756343 12.380859 24.166016 11.929278 24.166016 11.330078 C 24.166016 10.730877 23.756553 10.279297 23.146484 10.279297 z M 14.46875 14.570312 C 15.062711 14.565812 15.747081 14.570312 16.533203 14.570312 L 31.464844 14.570312 C 37.813274 14.570312 37.466797 14.282748 37.466797 20.572266 L 37.466797 35.503906 C 37.466797 41.733643 37.873083 41.503906 31.464844 41.503906 L 16.533203 41.503906 C 10.304281 41.503906 10.533203 41.733658 10.533203 35.503906 L 10.533203 20.572266 C 10.533203 15.068952 10.310959 14.601176 14.46875 14.570312 z M 14.488281 17.917969 C 14.061699 17.917969 13.714844 18.266667 13.714844 18.693359 L 13.714844 20.625 C 13.714844 21.051677 14.061713 21.400391 14.488281 21.400391 L 16.417969 21.400391 C 16.844551 21.400391 17.195312 21.051691 17.195312 20.625 L 17.195312 18.693359 C 17.195312 18.266681 16.844565 17.917969 16.417969 17.917969 L 14.488281 17.917969 z M 18.798828 17.917969 C 18.677363 17.917969 18.565499 17.951643 18.462891 18.001953 C 18.139433 18.095343 17.896484 18.381766 17.896484 18.734375 L 17.896484 20.666016 C 17.896484 21.092694 18.245279 21.441406 18.671875 21.441406 L 20.603516 21.441406 C 20.72438 21.441406 20.83332 21.407282 20.935547 21.357422 C 21.260051 21.264682 21.505859 20.978342 21.505859 20.625 L 21.505859 18.693359 C 21.505859 18.266681 21.157065 17.917968 20.730469 17.917969 L 18.798828 17.917969 z M 23.109375 17.917969 C 22.682793 17.917969 22.333984 18.266667 22.333984 18.693359 L 22.333984 20.625 C 22.333984 21.051677 22.682779 21.400391 23.109375 21.400391 L 25.041016 21.400391 C 25.467598 21.400391 25.814453 21.051703 25.814453 20.625 L 25.814453 18.693359 C 25.814453 18.266681 25.467586 17.917969 25.041016 17.917969 L 23.109375 17.917969 z M 27.417969 17.917969 C 26.991386 17.917969 26.644531 18.266667 26.644531 18.693359 L 26.644531 20.625 C 26.644531 21.051677 26.991399 21.400391 27.417969 21.400391 L 29.349609 21.400391 C 29.776191 21.400391 30.125 21.051703 30.125 20.625 L 30.125 18.693359 C 30.125 18.266681 29.776206 17.917969 29.349609 17.917969 L 27.417969 17.917969 z M 31.730469 17.917969 C 31.303887 17.917969 30.953125 18.266667 30.953125 18.693359 L 30.953125 20.625 C 30.953125 21.051677 31.303873 21.400391 31.730469 21.400391 L 33.660156 21.400391 C 34.086738 21.400391 34.435547 21.051691 34.435547 20.625 L 34.435547 18.693359 C 34.435547 18.266681 34.086753 17.917969 33.660156 17.917969 L 31.730469 17.917969 z M 31.730469 22.083984 C 31.303887 22.083984 30.953125 22.432684 30.953125 22.859375 L 30.953125 24.789062 C 30.953125 25.21574 31.303873 25.564453 31.730469 25.564453 L 33.660156 25.564453 C 34.086738 25.564453 34.435547 25.215754 34.435547 24.789062 L 34.435547 22.859375 C 34.435547 22.432698 34.086753 22.083984 33.660156 22.083984 L 31.730469 22.083984 z M 14.488281 22.185547 C 14.061698 22.185547 13.714844 22.534246 13.714844 22.960938 L 13.714844 24.892578 C 13.714844 25.319255 14.061712 25.667969 14.488281 25.667969 L 16.417969 25.667969 C 16.84455 25.667969 17.193359 25.319269 17.193359 24.892578 L 17.193359 22.960938 C 17.193359 22.53426 16.844564 22.185547 16.417969 22.185547 L 14.488281 22.185547 z M 23.109375 22.185547 C 22.682791 22.185547 22.333984 22.534246 22.333984 22.960938 L 22.333984 24.892578 C 22.333984 25.319255 22.682779 25.666016 23.109375 25.666016 L 25.041016 25.666016 C 25.467584 25.666016 25.814453 25.319255 25.814453 24.892578 L 25.814453 22.960938 C 25.814453 22.53426 25.467584 22.185547 25.041016 22.185547 L 23.109375 22.185547 z M 27.337891 26.445312 C 26.911309 26.445312 26.5625 26.79401 26.5625 27.220703 L 26.5625 29.152344 C 26.5625 29.579022 26.911295 29.927734 27.337891 29.927734 L 29.269531 29.927734 C 29.696099 29.927734 30.042969 29.579036 30.042969 29.152344 L 30.042969 27.220703 C 30.042969 26.794024 29.696099 26.445312 29.269531 26.445312 L 27.337891 26.445312 z M 23.054688 26.453125 C 22.628107 26.453125 22.279297 26.801826 22.279297 27.228516 L 22.279297 29.15625 C 22.279297 29.582927 22.628093 29.933594 23.054688 29.933594 L 24.984375 29.933594 C 25.410958 29.933594 25.761719 29.58294 25.761719 29.15625 L 25.761719 27.228516 C 25.761719 26.80184 25.410971 26.453125 24.984375 26.453125 L 23.054688 26.453125 z M 14.488281 26.455078 C 14.061699 26.455078 13.714844 26.803778 13.714844 27.230469 L 13.714844 29.158203 C 13.714844 29.584879 14.061712 29.935547 14.488281 29.935547 L 16.417969 29.935547 C 16.844552 29.935547 17.193359 29.584894 17.193359 29.158203 L 17.193359 27.230469 C 17.193359 26.803792 16.844565 26.455078 16.417969 26.455078 L 14.488281 26.455078 z M 20.701172 26.474609 L 18.771484 26.476562 C 18.344902 26.476562 17.996094 26.825263 17.996094 27.251953 L 17.996094 29.181641 C 17.996094 29.60832 18.344888 29.958984 18.771484 29.958984 L 20.701172 29.958984 C 21.12774 29.958984 21.478516 29.608333 21.478516 29.181641 L 21.478516 27.251953 C 21.478516 26.825276 21.127754 26.474609 20.701172 26.474609 z M 23.109375 30.720703 C 22.682793 30.720697 22.333984 31.069404 22.333984 31.496094 L 22.333984 33.423828 C 22.333984 33.850505 22.682778 34.201172 23.109375 34.201172 L 25.041016 34.201172 C 25.467583 34.201172 25.814453 33.850519 25.814453 33.423828 L 25.814453 31.496094 C 25.814453 31.069417 25.467583 30.720709 25.041016 30.720703 L 23.109375 30.720703 z M 27.308594 30.720703 C 26.882011 30.720697 26.533203 31.069404 26.533203 31.496094 L 26.533203 33.423828 C 26.533203 33.850505 26.881998 34.201172 27.308594 34.201172 L 29.236328 34.201172 C 29.662912 34.201172 30.011719 33.850519 30.011719 33.423828 L 30.011719 31.496094 C 30.011719 31.069417 29.662926 30.720709 29.236328 30.720703 L 27.308594 30.720703 z M 14.488281 30.722656 C 14.061712 30.722656 13.714844 31.071357 13.714844 31.498047 L 13.714844 33.429688 C 13.714844 33.856364 14.061712 34.203125 14.488281 34.203125 L 16.417969 34.203125 C 16.84455 34.203125 17.193359 33.856364 17.193359 33.429688 L 17.193359 31.498047 C 17.193359 31.071371 16.844564 30.722656 16.417969 30.722656 L 14.488281 30.722656 z M 31.699219 30.75 C 31.272637 30.75 30.923828 31.098699 30.923828 31.525391 L 30.923828 33.455078 C 30.923828 33.881758 31.272623 34.230469 31.699219 34.230469 L 33.630859 34.230469 C 34.057441 34.230469 34.40625 33.881771 34.40625 33.455078 L 34.40625 31.525391 C 34.40625 31.098712 34.057455 30.75 33.630859 30.75 L 31.699219 30.75 z M 18.671875 30.818359 C 18.245291 30.818359 17.896484 31.168998 17.896484 31.595703 L 17.896484 33.523438 C 17.896484 33.950116 18.245278 34.298828 18.671875 34.298828 L 20.603516 34.298828 C 21.030099 34.298828 21.376953 33.950143 21.376953 33.523438 L 21.376953 31.595703 C 21.376953 31.169024 21.030084 30.818359 20.603516 30.818359 L 18.671875 30.818359 z M 27.376953 35.115234 C 26.950371 35.115234 26.601563 35.465888 26.601562 35.892578 L 26.601562 37.822266 C 26.601562 38.248942 26.950356 38.597656 27.376953 38.597656 L 29.308594 38.597656 C 29.735176 38.597656 30.083984 38.248956 30.083984 37.822266 L 30.083984 35.892578 C 30.083984 35.465902 29.735189 35.115234 29.308594 35.115234 L 27.376953 35.115234 z M 31.689453 35.115234 C 31.262871 35.115234 30.912109 35.465888 30.912109 35.892578 L 30.912109 37.822266 C 30.912109 38.248942 31.262856 38.597656 31.689453 38.597656 L 33.617188 38.597656 C 34.04377 38.597656 34.392578 38.248956 34.392578 37.822266 L 34.392578 35.892578 C 34.392578 35.465902 34.043784 35.115234 33.617188 35.115234 L 31.689453 35.115234 z M 18.671875 35.160156 C 18.245306 35.160156 17.896484 35.508856 17.896484 35.935547 L 17.896484 37.863281 C 17.896484 38.289959 18.245279 38.640625 18.671875 38.640625 L 20.603516 38.640625 C 21.030099 38.640625 21.376953 38.289972 21.376953 37.863281 L 21.376953 35.935547 C 21.376953 35.50887 21.030086 35.160156 20.603516 35.160156 L 18.671875 35.160156 z "
     id="path2" />
</svg>
