<?xml version="1.0" encoding="UTF-8" standalone="no"?>
<svg xmlns="http://www.w3.org/2000/svg" version="1.1" viewBox="0 0 48 48">
  <path
     style="fill:#ffffff;"
     d="M 7,5 C 5.892,5 5,5.892 5,7 v 34 c 0,1.108 0.892,2 2,2 h 34 c 1.108,0 2,-0.892 2,-2 V 7 C 43,5.892 42.108,5 41,5 Z m 17.122071,1.992187 h 0.738281 v 4.931641 h -0.738281 v -0.394531 c -0.232616,0.290718 -0.581312,0.478511 -1.060547,0.478516 -0.944468,-6e-6 -1.6875,-0.721205 -1.6875,-1.72461 0,-1.0029885 0.742823,-1.7265629 1.6875,-1.7265629 0.479235,0 0.827931,0.1932366 1.060547,0.4843754 z m 13.544921,0.6582031 h 0.740235 v 0.9921875 h 1.292969 v 0.6503909 h -1.292969 v 1.4277345 c 0,0.441824 0.23901,0.613281 0.535156,0.613281 0.22886,0 0.480581,-0.09935 0.681641,-0.222656 l 0.291015,0.572266 c -0.2717,0.178276 -0.612356,0.324216 -1.035156,0.324219 -0.764734,-1e-6 -1.212891,-0.400447 -1.212891,-1.273438 z m -27.80664,0.90625 c 0.504106,0 0.963968,0.1795083 1.263672,0.5253904 l -0.472656,0.488282 c -0.235753,-0.215483 -0.486389,-0.337891 -0.8105473,-0.337891 -0.567224,0 -0.9980471,0.431099 -0.9980468,1.0507815 -3e-7,0.619683 0.4306138,1.050781 0.9980468,1.050781 0.3241583,0 0.6130653,-0.146383 0.8281253,-0.341797 l 0.455078,0.492188 c -0.306811,0.345894 -0.759566,0.523435 -1.2636721,0.523438 -1.075092,-1e-6 -1.7753905,-0.742105 -1.7753907,-1.72461 3e-7,-0.9822975 0.7002987,-1.7265629 1.7753908,-1.7265629 z m 3.447266,0 c 1.043324,3e-7 1.820103,0.7436384 1.820312,1.7265629 0,0.982296 -0.776989,1.724605 -1.820312,1.72461 -1.043539,-1e-6 -1.814454,-0.742105 -1.814454,-1.72461 0,-0.9822975 0.770916,-1.7265629 1.814454,-1.7265629 z m 16.03125,0 c 0.225509,0 0.398858,0.02875 0.568359,0.09375 l -0.175781,0.7070314 c -0.154869,-0.078801 -0.38039,-0.119141 -0.560547,-0.119141 -0.468786,0 -0.804688,0.322832 -0.804688,0.8808605 v 1.802734 H 27.629883 V 8.6425776 h 0.730469 V 9.0136715 C 28.5821,8.7020566 28.926304,8.5566401 29.338868,8.5566401 Z m 2.474609,0 c 0.944676,0 1.594256,0.6987694 1.597656,1.7226569 0,0.09259 -0.007,0.185238 -0.01367,0.267578 H 30.90137 c 0.09906,0.58896 0.524671,0.835935 1.003906,0.835938 0.338579,-1e-6 0.698176,-0.131761 0.976562,-0.347657 l 0.367186,0.511719 c -0.412356,0.342549 -0.877878,0.460933 -1.388672,0.460938 -1.011556,-1e-6 -1.728516,-0.683794 -1.728516,-1.72461 0,-1.0270225 0.687641,-1.7265629 1.681641,-1.7265629 z m 3.902344,0 c 0.504107,0 0.962014,0.1794972 1.261718,0.5253904 l -0.472656,0.488282 c -0.235751,-0.215483 -0.48618,-0.337891 -0.810547,-0.337891 -0.567432,0 -0.996094,0.431099 -0.996094,1.0507815 10e-7,0.619683 0.428662,1.050781 0.996094,1.050781 0.324367,0 0.613274,-0.146383 0.828125,-0.341797 l 0.455078,0.492188 c -0.306602,0.345894 -0.757821,0.523435 -1.261718,0.523438 -1.07551,-1e-6 -1.777344,-0.742105 -1.777344,-1.72461 0,-0.9822975 0.701834,-1.7265629 1.777344,-1.7265629 z m -18.324219,0.00781 c 0.435553,0 0.688104,0.1625922 0.890625,0.3789063 0.243066,-0.221539 0.551617,-0.3789063 0.992187,-0.3789063 1.032665,0 1.453334,0.6828339 1.453125,1.6816419 v 1.677734 h -0.75 v -1.779297 c 0,-0.506615 -0.191913,-0.88086 -0.703125,-0.88086 -0.283612,0 -0.446189,0.142562 -0.58789,0.294922 v 2.365235 h -0.748047 v -1.78125 c 0,-0.506615 -0.202852,-0.878907 -0.648438,-0.878907 -0.3089,0 -0.510908,0.142562 -0.642578,0.294922 v 2.365235 h -0.75 V 8.6386714 h 0.75 v 0.2402343 c 0.141702,-0.1473449 0.430642,-0.3144531 0.744141,-0.3144531 z m 8.482422,0.078127 h 0.740234 v 3.2792974 h -0.740234 z m 5.925781,0.5507809 c -0.525006,0 -0.816781,0.329567 -0.894531,0.8085945 h 1.751953 C 32.576344,9.4919975 32.26859,9.1933585 31.799805,9.1933585 Z m -18.492187,0.039063 c -0.60297,0 -1.05685,0.431516 -1.056641,1.0507815 0,0.619891 0.453674,1.050781 1.056641,1.050781 0.60275,0 1.062495,-0.43089 1.0625,-1.050781 0,-0.6194745 -0.459748,-1.0507815 -1.0625,-1.0507815 z m 9.841796,0 c -0.634731,0 -1.017787,0.475824 -1.017578,1.0507815 0,0.574956 0.383056,1.050781 1.017578,1.050781 0.609859,0 1.019532,-0.451581 1.019532,-1.050781 0,-0.5992015 -0.409463,-1.0507815 -1.019532,-1.0507815 z m 16.235352,7.3886725 c 1.08958,-2.71e-4 1.972927,0.883076 1.972656,1.972656 2.71e-4,1.08958 -0.883076,1.972927 -1.972656,1.972656 C 38.752779,20.565665 38.15943,20.26209 37.789062,19.75 l -4.566406,1.773438 c 0.0093,0.07322 0.01452,0.146903 0.01563,0.220703 2.71e-4,1.08958 -0.883076,1.972927 -1.972656,1.972656 -0.26822,-0.0011 -0.533391,-0.05695 -0.779297,-0.164063 l -7.884766,10.058594 c 0.260527,0.342593 0.401827,0.761007 0.402344,1.191406 2.72e-4,1.089581 -0.883075,1.972928 -1.972656,1.972657 -1.089581,2.71e-4 -1.972928,-0.883076 -1.972656,-1.972657 5.7e-4,-0.236212 0.04357,-0.4704 0.126953,-0.691406 L 9.7714844,27.480469 C 9.4165671,27.780861 8.9669265,27.946166 8.5019531,27.947266 7.4123724,27.947537 6.529025,27.06419 6.5292969,25.974609 c -2.713e-4,-1.08958 0.8830759,-1.972927 1.9726562,-1.972656 1.0895801,-2.71e-4 1.9729269,0.883076 1.9726559,1.972656 -8.04e-4,0.235555 -0.0438,0.469061 -0.126953,0.689453 l 9.41211,6.628907 c 0.355977,-0.299415 0.80633,-0.463368 1.271484,-0.462891 0.269536,5.93e-4 0.53609,0.05643 0.783203,0.164063 l 7.884766,-10.054688 c -0.262731,-0.34316 -0.405464,-0.763124 -0.40625,-1.195312 -2.72e-4,-1.089581 0.883075,-1.972928 1.972656,-1.972657 0.63338,10e-4 1.227728,0.306188 1.597656,0.820313 l 4.5625,-1.773438 c -0.0089,-0.07455 -0.01339,-0.149539 -0.01367,-0.224609 -2.71e-4,-1.089581 0.883076,-1.972928 1.972657,-1.972656 z m 0.002,1.177734 c -0.439023,0 -0.794922,0.355899 -0.794922,0.794922 0,0.439023 0.355899,0.794922 0.794922,0.794922 0.439023,0 0.794922,-0.355899 0.794922,-0.794922 0,-0.439023 -0.355899,-0.794922 -0.794922,-0.794922 z m -8.119141,3.150391 c -0.439023,0 -0.794922,0.355899 -0.794922,0.794922 0,0.439023 0.355899,0.794921 0.794922,0.794921 0.439023,10e-7 0.794922,-0.355898 0.794922,-0.794921 0,-0.439023 -0.355899,-0.794922 -0.794922,-0.794922 z M 21.1875,23.75 c 0.651751,9.2e-4 1.198957,0.490919 1.271484,1.138672 l 4.16211,0.628906 -0.587891,0.720703 -3.738281,-0.564453 c -0.22898,0.394997 -0.650854,0.6383 -1.107422,0.638672 -0.155653,-7.7e-4 -0.309865,-0.02989 -0.455078,-0.08594 l -3.363281,4.154297 -0.621094,-0.503906 3.361328,-4.152344 v -0.002 C 19.97691,25.516367 19.906417,25.276405 19.90625,25.03125 19.90625,24.323635 20.479885,23.75 21.1875,23.75 Z M 8.5039062,25.179688 c -0.4390228,-10e-7 -0.7949213,0.355898 -0.7949218,0.794921 -1e-7,0.439023 0.3558987,0.794922 0.7949218,0.794922 0.4390233,0 0.794922,-0.355899 0.7949219,-0.794922 -5e-7,-0.439023 -0.355899,-0.794921 -0.7949219,-0.794921 z m 21.3281248,0.867187 8.376953,1.357422 c 0.221438,-0.421664 0.658493,-0.685703 1.134766,-0.685547 0.707615,0 1.28125,0.573635 1.28125,1.28125 0,0.707615 -0.573635,1.28125 -1.28125,1.28125 -0.631848,-0.0014 -1.168322,-0.463277 -1.263672,-1.087891 l -8.826172,-1.43164 z M 8.5390625,31.3125 c 0.7076144,0 1.28125,0.573635 1.28125,1.28125 -4.27e-4,0.101375 -0.012883,0.202341 -0.037109,0.300781 l 2.2246085,1.361328 c 0.23173,-0.198693 0.526783,-0.308126 0.832032,-0.308593 0.147958,8.2e-4 0.294658,0.02725 0.433594,0.07813 l 1.59375,-2.007813 0.626953,0.498047 -1.589844,2.001953 c 0.140927,0.210352 0.216365,0.457743 0.216797,0.710938 0,0.707615 -0.573635,1.28125 -1.28125,1.28125 -0.707615,0 -1.28125,-0.573635 -1.28125,-1.28125 5e-5,-0.0973 0.01119,-0.194283 0.0332,-0.289063 L 9.3632812,33.574219 C 9.132502,33.768356 8.8406386,33.874865 8.5390625,33.875 c -0.7076148,0 -1.28125,-0.573635 -1.28125,-1.28125 0,-0.707615 0.5736352,-1.28125 1.28125,-1.28125 z m 12.4941405,2.695312 c -0.439023,0 -0.794922,0.355899 -0.794922,0.794922 0,0.439023 0.355899,0.794922 0.794922,0.794922 0.439023,0 0.794922,-0.355899 0.794922,-0.794922 0,-0.439023 -0.355899,-0.794922 -0.794922,-0.794922 z"
     id="path2" />
</svg>
