<?xml version="1.0" encoding="UTF-8" standalone="no"?>
<svg xmlns="http://www.w3.org/2000/svg" version="1.1" viewBox="0 0 48 48">
  <path
     style="fill:#ffffff;"
     d="M 7,5 C 5.892,5 5,5.892 5,7 v 34 c 0,1.108 0.892,2 2,2 h 34 c 1.108,0 2,-0.892 2,-2 V 7 C 43,5.892 42.108,5 41,5 Z m 17.122071,1.9921875 h 0.738281 v 4.9316405 h -0.738281 v -0.394531 c -0.232616,0.290717 -0.581312,0.478513 -1.060547,0.478516 -0.944468,-3e-6 -1.6875,-0.721204 -1.6875,-1.72461 0,-1.002988 0.742823,-1.7265624 1.6875,-1.7265624 0.479235,0 0.827931,0.1932426 1.060547,0.4843754 z m 13.544921,0.6582031 h 0.740235 v 0.9921875 h 1.292969 V 9.292969 h -1.292969 v 1.427734 c 0,0.441823 0.23901,0.613282 0.535156,0.613282 0.22886,0 0.480581,-0.09935 0.681641,-0.222657 l 0.291015,0.572266 c -0.2717,0.178275 -0.612356,0.324219 -1.035156,0.324219 -0.764734,0 -1.212891,-0.400447 -1.212891,-1.273438 z m -27.80664,0.90625 c 0.504106,0 0.963968,0.1795052 1.263672,0.5253904 L 10.651368,9.570313 C 10.415615,9.354833 10.164979,9.232422 9.8408207,9.232422 c -0.567224,0 -0.9980469,0.431099 -0.9980468,1.050781 -2e-7,0.619684 0.4306138,1.050782 0.9980468,1.050782 0.3241583,0 0.6130653,-0.146383 0.8281253,-0.341797 l 0.455078,0.492187 c -0.306811,0.345895 -0.759566,0.523435 -1.2636721,0.523438 -1.075092,0 -1.7753906,-0.742104 -1.7753907,-1.72461 3e-7,-0.982297 0.7002987,-1.7265624 1.7753908,-1.7265624 z m 3.447266,0 c 1.043324,3e-7 1.820103,0.7436384 1.820312,1.7265624 0,0.982296 -0.776989,1.724607 -1.820312,1.72461 -1.043536,0 -1.814454,-0.742104 -1.814454,-1.72461 0,-0.982297 0.770918,-1.7265624 1.814454,-1.7265624 z m 16.03125,0 c 0.225509,0 0.398858,0.02875 0.568359,0.09375 L 29.731446,9.357422 c -0.154869,-0.078801 -0.38039,-0.119141 -0.560547,-0.119141 -0.468786,0 -0.804688,0.322832 -0.804688,0.88086 v 1.802734 H 27.629883 V 8.6425781 h 0.730469 V 9.013672 C 28.5821,8.7020586 28.926304,8.5566406 29.338868,8.5566406 Z m 2.474609,0 c 0.944676,0 1.594256,0.6987694 1.597656,1.7226564 0,0.09259 -0.007,0.185237 -0.01367,0.267578 H 30.90137 c 0.09906,0.58896 0.524671,0.835935 1.003906,0.835938 0.338579,0 0.698176,-0.13176 0.976562,-0.347657 l 0.367186,0.511719 c -0.412356,0.342548 -0.877878,0.460935 -1.388672,0.460938 -1.011556,0 -1.728516,-0.683794 -1.728516,-1.72461 0,-1.027022 0.687641,-1.7265624 1.681641,-1.7265624 z m 3.902344,0 c 0.504107,0 0.962014,0.1794942 1.261718,0.5253904 l -0.472656,0.488282 c -0.235751,-0.215482 -0.48618,-0.337891 -0.810547,-0.337891 -0.567432,0 -0.996094,0.431099 -0.996094,1.050781 10e-7,0.619684 0.428662,1.050782 0.996094,1.050782 0.324367,0 0.613274,-0.146383 0.828125,-0.341797 l 0.455078,0.492187 c -0.306602,0.345895 -0.757821,0.523435 -1.261718,0.523438 -1.07551,0 -1.777344,-0.742104 -1.777344,-1.72461 0,-0.982297 0.701834,-1.7265624 1.777344,-1.7265624 z m -18.324219,0.00781 c 0.435553,0 0.688104,0.1625922 0.890625,0.3789063 0.243066,-0.221539 0.551617,-0.3789063 0.992187,-0.3789063 1.032665,0 1.453334,0.6828339 1.453125,1.6816404 v 1.677735 h -0.75 v -1.779297 c 0,-0.5066145 -0.191913,-0.8808595 -0.703125,-0.8808595 -0.283612,0 -0.446189,0.142562 -0.58789,0.294922 v 2.3652345 h -0.748047 v -1.78125 c 0,-0.5066145 -0.202852,-0.8789065 -0.648438,-0.8789065 -0.3089,0 -0.510908,0.142562 -0.642578,0.294922 v 2.3652345 h -0.75 V 8.6386719 h 0.75 v 0.2402343 c 0.141702,-0.1473449 0.430642,-0.3144531 0.744141,-0.3144531 z m 8.482422,0.078127 h 0.740234 v 3.2792969 h -0.740234 z m 5.925781,0.5507809 c -0.525006,0 -0.816781,0.329567 -0.894531,0.808594 h 1.751953 C 32.576344,9.491998 32.26859,9.193359 31.799805,9.193359 Z M 13.307618,9.232422 c -0.602967,0 -1.05685,0.431516 -1.056641,1.050781 0,0.61989 0.453676,1.050782 1.056641,1.050782 0.602752,0 1.062499,-0.430892 1.0625,-1.050782 0,-0.619474 -0.459748,-1.050781 -1.0625,-1.050781 z m 9.841796,0 c -0.634731,0 -1.017787,0.475824 -1.017578,1.050781 0,0.574956 0.383056,1.050782 1.017578,1.050782 0.609859,0 1.019532,-0.451583 1.019532,-1.050782 0,-0.599201 -0.409463,-1.050781 -1.019532,-1.050781 z m 2.96582,4.759766 c 3.576707,0.05488 6.985558,1.52645 9.478516,4.091797 L 31.306641,22.25 c -2.133996,-2.196546 -5.385891,-2.881521 -8.22461,-1.732422 -2.83822,1.149144 -4.697725,3.90282 -4.703125,6.964844 -0.0051,3.061495 1.844209,5.821199 4.677735,6.980469 2.833761,1.160062 6.08782,0.488246 8.230468,-1.699219 l 4.271485,4.179688 c -3.842906,3.925973 -9.68096,5.132967 -14.765625,3.052734 -5.083743,-2.080378 -8.401085,-7.032458 -8.390625,-12.525391 0.01001,-5.493034 3.345904,-10.432788 8.4375,-12.49414 1.674915,-0.677696 3.468784,-1.012425 5.27539,-0.984375 z"
     id="path2" />
</svg>
