<?xml version="1.0" encoding="UTF-8" standalone="no"?>
<svg xmlns="http://www.w3.org/2000/svg" version="1.1" viewBox="0 0 48 48">
  <path
     style="fill:#ffffff;"
     d="M 7,5 C 5.892,5 5,5.892 5,7 v 34 c 0,1.108 0.892,2 2,2 h 34 c 1.108,0 2,-0.892 2,-2 V 7 C 43,5.892 42.108,5 41,5 Z m 17.122071,1.9921875 h 0.738281 v 4.9316405 h -0.738281 v -0.394531 c -0.232616,0.290717 -0.581312,0.478516 -1.060547,0.478516 -0.944468,-3e-6 -1.6875,-0.721204 -1.6875,-1.72461 0,-1.002988 0.742823,-1.7265624 1.6875,-1.7265624 0.479235,0 0.827931,0.193243 1.060547,0.4843754 z m 13.544921,0.6582031 h 0.740235 v 0.9921875 h 1.292969 V 9.292969 h -1.292969 v 1.427734 c 0,0.441823 0.23901,0.613282 0.535156,0.613282 0.22886,0 0.480581,-0.09935 0.681641,-0.222657 l 0.291015,0.572266 c -0.2717,0.178275 -0.612356,0.324219 -1.035156,0.324219 -0.764734,0 -1.212891,-0.400447 -1.212891,-1.273438 z m -27.8066402,0.90625 c 0.5041062,0 0.9639682,0.179505 1.2636722,0.5253904 L 10.651368,9.570313 C 10.415615,9.354833 10.164979,9.232422 9.8408205,9.232422 c -0.567224,0 -0.9980469,0.431099 -0.9980468,1.050781 -2e-7,0.619684 0.4306138,1.050782 0.9980468,1.050782 0.3241585,0 0.6130655,-0.146383 0.8281255,-0.341797 l 0.455078,0.492187 c -0.306811,0.345895 -0.759566,0.523438 -1.2636722,0.523438 -1.075092,0 -1.7753906,-0.742104 -1.7753907,-1.72461 2e-7,-0.982297 0.7002987,-1.7265624 1.7753907,-1.7265624 z m 3.4472662,0 c 1.043324,3e-7 1.820103,0.7436384 1.820312,1.7265624 0,0.982296 -0.776989,1.72461 -1.820312,1.72461 -1.043534,0 -1.814454,-0.742104 -1.814454,-1.72461 0,-0.982297 0.770918,-1.7265624 1.814454,-1.7265624 z m 16.03125,0 c 0.225509,0 0.398858,0.02875 0.568359,0.09375 L 29.731446,9.357422 c -0.154869,-0.078801 -0.38039,-0.119141 -0.560547,-0.119141 -0.468786,0 -0.804688,0.322832 -0.804688,0.88086 v 1.802734 H 27.629883 V 8.6425781 h 0.730469 V 9.013672 C 28.5821,8.7020587 28.926304,8.5566406 29.338868,8.5566406 Z m 2.474609,0 c 0.944676,0 1.594256,0.6987694 1.597656,1.7226564 0,0.09258 -0.007,0.185237 -0.01367,0.267578 H 30.90137 c 0.09906,0.58896 0.524671,0.835938 1.003906,0.835938 0.338579,0 0.698176,-0.13176 0.976562,-0.347657 l 0.367188,0.511719 c -0.412356,0.342548 -0.877878,0.460938 -1.388672,0.460938 -1.011556,0 -1.728516,-0.683794 -1.728516,-1.72461 0,-1.027022 0.687641,-1.7265624 1.681641,-1.7265624 z m 3.902344,0 c 0.504107,0 0.962014,0.179494 1.261718,0.5253904 l -0.472656,0.488282 c -0.235751,-0.215481 -0.48618,-0.337891 -0.810547,-0.337891 -0.567432,0 -0.996094,0.431099 -0.996094,1.050781 10e-7,0.619684 0.428662,1.050782 0.996094,1.050782 0.324367,0 0.613274,-0.146383 0.828125,-0.341797 l 0.455078,0.492187 c -0.306602,0.345895 -0.757821,0.523438 -1.261718,0.523438 -1.07551,0 -1.777344,-0.742104 -1.777344,-1.72461 0,-0.982297 0.701834,-1.7265624 1.777344,-1.7265624 z m -18.324219,0.00781 c 0.435553,0 0.688104,0.1625922 0.890625,0.3789063 0.243066,-0.221539 0.551617,-0.3789063 0.992187,-0.3789063 1.032665,0 1.453334,0.6828339 1.453125,1.6816414 v 1.677734 h -0.75 v -1.779295 c 0,-0.506614 -0.191913,-0.880859 -0.703125,-0.880859 -0.283612,0 -0.446189,0.142562 -0.58789,0.294922 v 2.365234 h -0.748047 v -1.78125 c 0,-0.506614 -0.202852,-0.878906 -0.648438,-0.878906 -0.3089,0 -0.510908,0.142562 -0.642578,0.294922 v 2.365234 h -0.75 V 8.6386719 h 0.75 v 0.2402343 c 0.141702,-0.1473449 0.430642,-0.3144531 0.744141,-0.3144531 z m 8.482422,0.078125 h 0.740234 v 3.2792974 h -0.740234 z m 5.925781,0.5507809 c -0.525006,0 -0.816781,0.329567 -0.894531,0.8085945 h 1.751953 C 32.576344,9.491995 32.26859,9.193359 31.799805,9.193359 Z m -18.492187,0.039063 c -0.602966,0 -1.05685,0.431516 -1.056641,1.0507815 0,0.61989 0.453676,1.050781 1.056641,1.050781 0.602752,0 1.062499,-0.430891 1.0625,-1.050781 0,-0.6194745 -0.459748,-1.0507815 -1.0625,-1.0507815 z m 9.841796,0 c -0.634731,0 -1.017787,0.475824 -1.017578,1.0507815 0,0.574956 0.383056,1.050781 1.017578,1.050781 0.609859,0 1.019532,-0.451582 1.019532,-1.050781 0,-0.5992015 -0.409463,-1.0507815 -1.019532,-1.0507815 z m -8.676758,4.8339845 c 0.593961,-0.0045 1.278331,0 2.064453,0 H 31.46875 c 6.34843,0 6.001953,-0.287564 6.001953,6.001953 V 35 c 0,6.229737 0.406286,6 -6.001953,6 H 16.537109 c -6.228922,0 -6,0.229752 -6,-6 V 20.06836 c 0,-5.503314 -0.222244,-5.971083 3.935547,-6.001954 z m 0.01953,3.347656 c -0.426582,0 -0.773437,0.348698 -0.773437,0.77539 v 1.931641 c 0,0.426677 0.346869,0.775391 0.773437,0.775391 h 1.929688 c 0.426582,0 0.777343,-0.3487 0.777343,-0.775391 V 18.18945 c 0,-0.426678 -0.350747,-0.77539 -0.777343,-0.77539 z m 4.310547,0 c -0.121465,0 -0.233329,0.03367 -0.335937,0.08398 -0.323458,0.09339 -0.566407,0.379813 -0.566407,0.732422 v 1.931641 c 0,0.426678 0.348795,0.77539 0.775391,0.77539 h 1.931641 c 0.120864,0 0.229804,-0.03412 0.332031,-0.08398 0.324504,-0.09274 0.570312,-0.37908 0.570312,-0.732422 V 18.18945 c 0,-0.426678 -0.348794,-0.775391 -0.77539,-0.77539 z m 4.310547,0 c -0.426582,0 -0.775391,0.348698 -0.775391,0.77539 v 1.931641 c 0,0.426677 0.348795,0.775391 0.775391,0.775391 h 1.931641 c 0.426582,0 0.773437,-0.348688 0.773437,-0.775391 V 18.18945 c 0,-0.426678 -0.346867,-0.77539 -0.773437,-0.77539 z m 4.308594,0 c -0.426583,0 -0.773438,0.348698 -0.773438,0.77539 v 1.931641 c 0,0.426677 0.346868,0.775391 0.773438,0.775391 h 1.93164 c 0.426582,0 0.775391,-0.348688 0.775391,-0.775391 V 18.18945 c 0,-0.426678 -0.348794,-0.77539 -0.775391,-0.77539 z m 4.3125,0 c -0.426582,0 -0.777344,0.348698 -0.777344,0.77539 v 1.931641 c 0,0.426677 0.350748,0.775391 0.777344,0.775391 h 1.929687 c 0.426582,0 0.775391,-0.3487 0.775391,-0.775391 V 18.18945 c 0,-0.426678 -0.348794,-0.77539 -0.775391,-0.77539 z m 0,4.166015 c -0.426582,0 -0.777344,0.3487 -0.777344,0.775391 v 1.929687 c 0,0.426678 0.350748,0.775391 0.777344,0.775391 h 1.929687 c 0.426582,0 0.775391,-0.348699 0.775391,-0.775391 v -1.929687 c 0,-0.426677 -0.348794,-0.775391 -0.775391,-0.775391 z m -17.242188,0.101563 c -0.426583,0 -0.773437,0.348699 -0.773437,0.775391 v 1.93164 c 0,0.426677 0.346868,0.775391 0.773437,0.775391 h 1.929688 c 0.426581,0 0.77539,-0.3487 0.77539,-0.775391 v -1.93164 c 0,-0.426678 -0.348795,-0.775391 -0.77539,-0.775391 z m 8.621094,0 c -0.426584,0 -0.775391,0.348699 -0.775391,0.775391 v 1.93164 c 0,0.426677 0.348795,0.773438 0.775391,0.773438 h 1.931641 c 0.426568,0 0.773437,-0.346761 0.773437,-0.773438 v -1.93164 c 0,-0.426678 -0.346869,-0.775391 -0.773437,-0.775391 z m 4.228516,4.259765 c -0.426582,0 -0.775391,0.348698 -0.775391,0.775391 v 1.931641 c 0,0.426678 0.348795,0.77539 0.775391,0.77539 h 1.93164 c 0.426568,0 0.773438,-0.348698 0.773438,-0.77539 v -1.931641 c 0,-0.426679 -0.34687,-0.775391 -0.773438,-0.775391 z m -4.283203,0.0078 c -0.426582,0 -0.775391,0.348701 -0.775391,0.775391 v 1.927734 c 0,0.426677 0.348796,0.777344 0.775391,0.777344 h 1.929687 c 0.426583,0 0.777344,-0.350654 0.777344,-0.777344 V 26.72461 c 0,-0.426676 -0.350748,-0.775391 -0.777344,-0.775391 z m -8.566407,0.002 c -0.426582,0 -0.773437,0.3487 -0.773437,0.775391 v 1.927734 c 0,0.426676 0.346868,0.777344 0.773437,0.777344 h 1.929688 c 0.426583,0 0.77539,-0.350653 0.77539,-0.777344 v -1.927734 c 0,-0.426677 -0.348794,-0.775391 -0.77539,-0.775391 z m 6.212891,0.01953 -1.929688,0.002 C 18.348808,25.972656 18,26.321357 18,26.748047 v 1.929688 c 0,0.426679 0.348794,0.777343 0.77539,0.777343 h 1.929688 c 0.426568,0 0.777344,-0.350651 0.777344,-0.777343 v -1.929688 c 0,-0.426677 -0.350762,-0.777344 -0.777344,-0.777344 z m 2.408203,4.246094 c -0.426582,-6e-6 -0.775391,0.348701 -0.775391,0.775391 v 1.927734 c 0,0.426677 0.348794,0.777344 0.775391,0.777344 h 1.931641 c 0.426567,0 0.773437,-0.350653 0.773437,-0.777344 v -1.927734 c 0,-0.426677 -0.34687,-0.775385 -0.773437,-0.775391 z m 4.199219,0 c -0.426583,-6e-6 -0.775391,0.348701 -0.775391,0.775391 v 1.927734 c 0,0.426677 0.348795,0.777344 0.775391,0.777344 h 1.927734 c 0.426584,0 0.775391,-0.350653 0.775391,-0.777344 v -1.927734 c 0,-0.426677 -0.348793,-0.775385 -0.775391,-0.775391 z m -12.820313,0.002 c -0.426569,0 -0.773437,0.348701 -0.773437,0.775391 v 1.931641 c 0,0.426676 0.346868,0.773437 0.773437,0.773437 h 1.929688 c 0.426581,0 0.77539,-0.346761 0.77539,-0.773437 v -1.931641 c 0,-0.426676 -0.348795,-0.775391 -0.77539,-0.775391 z m 17.210938,0.02734 c -0.426582,0 -0.775391,0.348699 -0.775391,0.775391 v 1.929687 c 0,0.42668 0.348795,0.775391 0.775391,0.775391 h 1.93164 c 0.426582,0 0.775391,-0.348698 0.775391,-0.775391 v -1.929687 c 0,-0.426679 -0.348795,-0.775391 -0.775391,-0.775391 z m -13.027344,0.06836 c -0.426584,0 -0.775391,0.350639 -0.775391,0.777344 v 1.927735 c 0,0.426678 0.348794,0.77539 0.775391,0.77539 h 1.931641 c 0.426583,0 0.773437,-0.348686 0.773437,-0.77539 v -1.927735 c 0,-0.426679 -0.346869,-0.777344 -0.773437,-0.777344 z m 8.705078,4.296875 c -0.426582,0 -0.775389,0.350654 -0.775391,0.777344 v 1.929688 c 0,0.426676 0.348794,0.77539 0.775391,0.77539 H 29.3125 c 0.426582,0 0.77539,-0.3487 0.77539,-0.77539 v -1.929688 c 0,-0.426676 -0.348795,-0.777344 -0.77539,-0.777344 z m 4.3125,0 c -0.426582,0 -0.777344,0.350654 -0.777344,0.777344 v 1.929688 c 0,0.426676 0.350747,0.77539 0.777344,0.77539 h 1.927735 c 0.426582,0 0.77539,-0.3487 0.77539,-0.77539 v -1.929688 c 0,-0.426676 -0.348794,-0.777344 -0.77539,-0.777344 z m -13.017578,0.04492 c -0.426569,0 -0.775391,0.3487 -0.775391,0.775391 v 1.927734 c 0,0.426678 0.348795,0.777344 0.775391,0.777344 h 1.931641 c 0.426583,0 0.773437,-0.350653 0.773437,-0.777344 v -1.927734 c 0,-0.426677 -0.346867,-0.775391 -0.773437,-0.775391 z"
     id="path2" />
</svg>
