<?xml version="1.0" encoding="UTF-8" standalone="no"?>
<svg
   xmlns="http://www.w3.org/2000/svg"
   version="1.1"
   viewBox="0 0 48 48">
  <path
     style="fill:#ffffff;stroke-width:0.86448002"
     d="M 13.466797 5 C 8.8100953 5 5 8.8089953 5 13.466797 L 5 34.533203 C 5 39.191003 8.8100953 43.001953 13.466797 43.001953 L 34.533203 43.001953 C 39.189903 43.001953 43 39.191003 43 34.533203 L 43 13.466797 C 43 8.8089953 39.189903 5 34.533203 5 L 13.466797 5 z M 24.119141 8.0390625 L 24.857422 8.0390625 L 24.857422 12.970703 L 24.119141 12.970703 L 24.119141 12.576172 C 23.886525 12.86689 23.537829 13.054684 23.058594 13.054688 C 22.114126 13.054683 21.371094 12.333483 21.371094 11.330078 C 21.371094 10.32709 22.113917 9.6035156 23.058594 9.6035156 C 23.537829 9.6035156 23.886525 9.796753 24.119141 10.087891 L 24.119141 8.0390625 z M 37.664062 8.6972656 L 38.404297 8.6972656 L 38.404297 9.6894531 L 39.697266 9.6894531 L 39.697266 10.339844 L 38.404297 10.339844 L 38.404297 11.767578 C 38.404297 12.209402 38.643307 12.380859 38.939453 12.380859 C 39.168313 12.380859 39.420034 12.281509 39.621094 12.158203 L 39.912109 12.730469 C 39.640409 12.908745 39.299753 13.054685 38.876953 13.054688 C 38.112219 13.054688 37.664062 12.654241 37.664062 11.78125 L 37.664062 8.6972656 z M 9.8574219 9.6035156 C 10.361528 9.6035156 10.82139 9.7830234 11.121094 10.128906 L 10.648438 10.617188 C 10.412686 10.401706 10.162049 10.279297 9.8378906 10.279297 C 9.2706666 10.279297 8.8398436 10.710396 8.8398438 11.330078 C 8.8398435 11.949761 9.2704576 12.380859 9.8378906 12.380859 C 10.162049 12.380859 10.450956 12.234476 10.666016 12.039062 L 11.121094 12.53125 C 10.814283 12.877144 10.361528 13.054685 9.8574219 13.054688 C 8.7823299 13.054688 8.0820314 12.312583 8.0820312 11.330078 C 8.0820315 10.347781 8.7823299 9.6035156 9.8574219 9.6035156 z M 13.304688 9.6035156 C 14.348012 9.6035159 15.124791 10.347154 15.125 11.330078 C 15.125 12.312374 14.348011 13.054684 13.304688 13.054688 C 12.26115 13.054688 11.490234 12.312583 11.490234 11.330078 C 11.490234 10.347781 12.26115 9.6035156 13.304688 9.6035156 z M 29.335938 9.6035156 C 29.561447 9.6035156 29.734796 9.6322656 29.904297 9.6972656 L 29.728516 10.404297 C 29.573647 10.325497 29.348126 10.285156 29.167969 10.285156 C 28.699183 10.285156 28.363281 10.607988 28.363281 11.166016 L 28.363281 12.96875 L 27.626953 12.96875 L 27.626953 9.6894531 L 28.357422 9.6894531 L 28.357422 10.060547 C 28.57917 9.7489323 28.923374 9.6035156 29.335938 9.6035156 z M 31.810547 9.6035156 C 32.755223 9.6035156 33.404803 10.302285 33.408203 11.326172 C 33.408203 11.418762 33.401201 11.51141 33.394531 11.59375 L 30.898438 11.59375 C 30.997498 12.18271 31.423109 12.429685 31.902344 12.429688 C 32.240923 12.429688 32.60052 12.297927 32.878906 12.082031 L 33.246094 12.59375 C 32.833738 12.936299 32.368216 13.054684 31.857422 13.054688 C 30.845866 13.054688 30.128906 12.370894 30.128906 11.330078 C 30.128906 10.303056 30.816547 9.6035156 31.810547 9.6035156 z M 35.712891 9.6035156 C 36.216998 9.6035156 36.674905 9.7830123 36.974609 10.128906 L 36.501953 10.617188 C 36.266202 10.401706 36.015773 10.279297 35.691406 10.279297 C 35.123974 10.279297 34.695312 10.710396 34.695312 11.330078 C 34.695313 11.949761 35.123974 12.380859 35.691406 12.380859 C 36.015773 12.380859 36.30468 12.234476 36.519531 12.039062 L 36.974609 12.53125 C 36.668007 12.877144 36.216788 13.054685 35.712891 13.054688 C 34.637381 13.054688 33.935547 12.312583 33.935547 11.330078 C 33.935547 10.347781 34.637381 9.6035156 35.712891 9.6035156 z M 17.388672 9.6113281 C 17.824225 9.6113281 18.076776 9.7739203 18.279297 9.9902344 C 18.522363 9.7686954 18.830914 9.6113281 19.271484 9.6113281 C 20.304149 9.6113281 20.724818 10.294162 20.724609 11.292969 L 20.724609 12.970703 L 19.974609 12.970703 L 19.974609 11.191406 C 19.974609 10.684792 19.782696 10.310547 19.271484 10.310547 C 18.987872 10.310547 18.825295 10.453109 18.683594 10.605469 L 18.683594 12.970703 L 17.935547 12.970703 L 17.935547 11.189453 C 17.935547 10.682839 17.732695 10.310547 17.287109 10.310547 C 16.978209 10.310547 16.776201 10.453109 16.644531 10.605469 L 16.644531 12.970703 L 15.894531 12.970703 L 15.894531 9.6855469 L 16.644531 9.6855469 L 16.644531 9.9257812 C 16.786233 9.7784363 17.075173 9.6113281 17.388672 9.6113281 z M 25.871094 9.6894531 L 26.611328 9.6894531 L 26.611328 12.96875 L 25.871094 12.96875 L 25.871094 9.6894531 z M 31.796875 10.240234 C 31.271869 10.240234 30.980094 10.569801 30.902344 11.048828 L 32.654297 11.048828 C 32.573414 10.538873 32.26566 10.240234 31.796875 10.240234 z M 13.304688 10.279297 C 12.701719 10.279297 12.247838 10.710813 12.248047 11.330078 C 12.248047 11.949969 12.701721 12.380859 13.304688 12.380859 C 13.907438 12.380859 14.367184 11.949969 14.367188 11.330078 C 14.367188 10.710604 13.90744 10.279297 13.304688 10.279297 z M 23.146484 10.279297 C 22.511753 10.279297 22.128697 10.755121 22.128906 11.330078 C 22.128906 11.905034 22.511962 12.380859 23.146484 12.380859 C 23.756343 12.380859 24.166016 11.929278 24.166016 11.330078 C 24.166016 10.730877 23.756553 10.279297 23.146484 10.279297 z M 39.384766 16.621094 A 1.972165 1.972165 0 0 1 41.357422 18.59375 A 1.972165 1.972165 0 0 1 39.384766 20.566406 A 1.972165 1.972165 0 0 1 37.789062 19.75 L 33.222656 21.523438 A 1.972165 1.972165 0 0 1 33.238281 21.744141 A 1.972165 1.972165 0 0 1 31.265625 23.716797 A 1.972165 1.972165 0 0 1 30.486328 23.552734 L 22.601562 33.611328 A 1.972165 1.972165 0 0 1 23.003906 34.802734 A 1.972165 1.972165 0 0 1 21.03125 36.775391 A 1.972165 1.972165 0 0 1 19.058594 34.802734 A 1.972165 1.972165 0 0 1 19.185547 34.111328 L 9.7714844 27.480469 A 1.972165 1.972165 0 0 1 8.5019531 27.947266 A 1.972165 1.972165 0 0 1 6.5292969 25.974609 A 1.972165 1.972165 0 0 1 8.5019531 24.001953 A 1.972165 1.972165 0 0 1 10.474609 25.974609 A 1.972165 1.972165 0 0 1 10.347656 26.664062 L 19.759766 33.292969 A 1.972165 1.972165 0 0 1 21.03125 32.830078 A 1.972165 1.972165 0 0 1 21.814453 32.994141 L 29.699219 22.939453 A 1.972165 1.972165 0 0 1 29.292969 21.744141 A 1.972165 1.972165 0 0 1 31.265625 19.771484 A 1.972165 1.972165 0 0 1 32.863281 20.591797 L 37.425781 18.818359 A 1.972165 1.972165 0 0 1 37.412109 18.59375 A 1.972165 1.972165 0 0 1 39.384766 16.621094 z M 39.386719 17.798828 A 0.79492188 0.79492188 0 0 0 38.591797 18.59375 A 0.79492188 0.79492188 0 0 0 39.386719 19.388672 A 0.79492188 0.79492188 0 0 0 40.181641 18.59375 A 0.79492188 0.79492188 0 0 0 39.386719 17.798828 z M 31.267578 20.949219 A 0.79492188 0.79492188 0 0 0 30.472656 21.744141 A 0.79492188 0.79492188 0 0 0 31.267578 22.539062 A 0.79492188 0.79492188 0 0 0 32.0625 21.744141 A 0.79492188 0.79492188 0 0 0 31.267578 20.949219 z M 21.1875 23.75 A 1.28125 1.28125 0 0 1 22.458984 24.888672 L 26.621094 25.517578 L 26.033203 26.238281 L 22.294922 25.673828 A 1.28125 1.28125 0 0 1 21.1875 26.3125 A 1.28125 1.28125 0 0 1 20.732422 26.226562 L 17.369141 30.380859 L 16.748047 29.876953 L 20.109375 25.724609 A 1.28125 1.28125 0 0 1 20.109375 25.722656 A 1.28125 1.28125 0 0 1 19.90625 25.03125 A 1.28125 1.28125 0 0 1 21.1875 23.75 z M 8.5039062 25.179688 A 0.79492188 0.79492188 0 0 0 7.7089844 25.974609 A 0.79492188 0.79492188 0 0 0 8.5039062 26.769531 A 0.79492188 0.79492188 0 0 0 9.2988281 25.974609 A 0.79492188 0.79492188 0 0 0 8.5039062 25.179688 z M 29.832031 26.046875 L 38.208984 27.404297 A 1.28125 1.28125 0 0 1 39.34375 26.71875 A 1.28125 1.28125 0 0 1 40.625 28 A 1.28125 1.28125 0 0 1 39.34375 29.28125 A 1.28125 1.28125 0 0 1 38.080078 28.193359 L 29.253906 26.761719 L 29.832031 26.046875 z M 8.5390625 31.3125 A 1.28125 1.28125 0 0 1 9.8203125 32.59375 A 1.28125 1.28125 0 0 1 9.7832031 32.894531 L 12.007812 34.255859 A 1.28125 1.28125 0 0 1 12.839844 33.947266 A 1.28125 1.28125 0 0 1 13.273438 34.025391 L 14.867188 32.017578 L 15.494141 32.515625 L 13.904297 34.517578 A 1.28125 1.28125 0 0 1 14.121094 35.228516 A 1.28125 1.28125 0 0 1 12.839844 36.509766 A 1.28125 1.28125 0 0 1 11.558594 35.228516 A 1.28125 1.28125 0 0 1 11.591797 34.939453 L 9.3632812 33.574219 A 1.28125 1.28125 0 0 1 8.5390625 33.875 A 1.28125 1.28125 0 0 1 7.2578125 32.59375 A 1.28125 1.28125 0 0 1 8.5390625 31.3125 z M 21.033203 34.007812 A 0.79492188 0.79492188 0 0 0 20.238281 34.802734 A 0.79492188 0.79492188 0 0 0 21.033203 35.597656 A 0.79492188 0.79492188 0 0 0 21.828125 34.802734 A 0.79492188 0.79492188 0 0 0 21.033203 34.007812 z "
     id="path2" />
</svg>
