<?xml version="1.0" encoding="UTF-8"?>
<svg width="48" height="48" version="1.1" viewBox="0 0 12.7 12.7" xmlns="http://www.w3.org/2000/svg">
    <defs>
        <style>.cls-1{fill:#fff;}</style>
        <style>.cls-1{fill:#fff;}</style>
    </defs>
    <path d="m10.338 11.726c0.16489-0.1878 0.24378-0.35958 0.24358-0.5304-3.18e-4 -0.31028-0.2459-0.73119-0.46759-0.80155-0.1437-0.04561-0.63221-0.8528-0.63221-1.0446 0-0.036168 0.13944-0.16977 0.30985-0.29691l0.30985-0.23116-0.72183-0.73652-0.2586 0.19725c-0.94382 0.71989-2.2637 0.63327-3.1004-0.20348-1.4226-1.4226-0.52838-3.8067 1.4966-3.9903 0.53349-0.04837 1.0931 0.11283 1.5562 0.44832l0.31014 0.22467 0.3438-0.35335 0.3438-0.35335-0.29467-0.25732c-0.16207-0.14153-0.29467-0.29611-0.29467-0.34352 0-0.20416 0.20063-0.49661 0.43594-0.63544 0.52221-0.30811 0.5266-1.112 0.00783-1.4284-0.3918-0.23889-0.72651-0.19863-1.0516 0.1265-0.2661 0.2661-0.276 0.29595-0.2338 0.70481 0.024605 0.23847 0.00553 0.52891-0.043121 0.65792l-0.087177 0.23096-0.59446-0.041979c-0.32695-0.023092-0.61785-0.064073-0.64645-0.09107-0.028582-0.026997-0.083032-0.20821-0.12096-0.40269-0.050941-0.26119-0.040093-0.41187 0.04151-0.57654 0.14911-0.30088 0.068303-0.74028-0.18223-0.9908-0.28016-0.28016-0.87945-0.28594-1.1718-0.011294-0.3747 0.35201-0.33636 1.0439 0.0727 1.3119 0.12034 0.078851 0.20142 0.25063 0.26297 0.55706 0.048935 0.24368 0.080137 0.45008 0.069335 0.45867-0.010813 0.00865-0.16771 0.10783-0.34869 0.22052-0.30622 0.19069-0.34438 0.19691-0.55005 0.08964-0.2814-0.14678-0.37194-0.1452-0.7037 0.012231-0.49939 0.23698-0.65147 0.85758-0.30969 1.2638 0.17397 0.20675 0.18247 0.25324 0.10163 0.55608-0.08415 0.31526-0.10204 0.33046-0.38875 0.33046-0.19788 0-0.31638-0.041258-0.34689-0.12077-0.12971-0.33802-0.89207-0.45731-1.229-0.19231-0.23831 0.18745-0.40312 0.63116-0.32746 0.88154 0.16256 0.53792 0.78505 0.81818 1.2332 0.55522 0.17982-0.10551 0.35678-0.14086 0.59119-0.11807 0.28674 0.027874 0.34084 0.062223 0.37859 0.24031 0.024222 0.11428 0.1105 0.39169 0.19171 0.61647l0.14766 0.40869-0.38 0.31816c-0.29431 0.24641-0.44577 0.31816-0.67163 0.31816-0.42557 0-0.82595 0.41227-0.82595 0.85047 0 0.61752 0.61904 1.0315 1.1893 0.79528 0.2488-0.10306 0.53862-0.4848 0.53915-0.71016 1.646e-4 -0.06887 0.1796-0.2764 0.39875-0.46119l0.39846-0.33598 0.21052 0.19717c0.11578 0.10844 0.36191 0.27306 0.54694 0.36582 0.32295 0.1619 0.3316 0.17553 0.21609 0.34044-0.16848 0.24055-0.15164 0.70445 0.03417 0.94066 0.24235 0.3081 0.57814 0.41564 0.94999 0.30423 0.38461-0.11523 0.58495-0.40372 0.58495-0.84233 0-0.32318 0.00673-0.33159 0.30516-0.37931 0.16784-0.026842 0.31393-0.038783 0.32465-0.026536 0.010693 0.012247 0.127 0.23678 0.25841 0.49899 0.16291 0.32506 0.21625 0.51256 0.16767 0.58934-0.16122 0.25477-0.080653 0.63207 0.19351 0.90624 0.22461 0.22461 1.0064 0.23003 1.2177-0.01058z" fill="#fff" stroke-width=".02079"/>
</svg>
