<?xml version="1.0" encoding="UTF-8"?>
<svg viewBox="0 0 48 48" xmlns="http://www.w3.org/2000/svg">
    <defs>
        <style>.cls-1{fill:#fff;}</style>
    </defs>
    <g data-name="Layer 1">
        <path class="cls-1" d="M30.16,25.82a7.48,7.48,0,0,1-.94,1.53l1.14,1.13a1.6,1.6,0,0,1,2,.65,1.58,1.58,0,0,1,0,1.7,1.64,1.64,0,0,1-2.56.28,1.6,1.6,0,0,1-.36-1.78L28.29,28.2a6.5,6.5,0,0,1-3.58,1.5v2A2,2,0,0,1,26,34a2,2,0,0,1-1.54,1.54,2,2,0,0,1-1.18-3.88v-2a7.08,7.08,0,0,1-3.58-1.5l-1.14,1.13a1.62,1.62,0,0,1-2.35,2,1.61,1.61,0,0,1-.29-2.54,1.65,1.65,0,0,1,1.79-.37l1.14-1.13a6.41,6.41,0,0,1-1.51-3.55h-2a2,2,0,0,1-3.86-.29,2,2,0,0,1,2-2.46,2.06,2.06,0,0,1,1.91,1.29h2a7,7,0,0,1,1.51-3.55l-1.14-1.13a1.6,1.6,0,0,1-2-.65,1.58,1.58,0,0,1,0-1.7,1.64,1.64,0,0,1,2.56-.28,1.6,1.6,0,0,1,.36,1.78l1.14,1.13a6.5,6.5,0,0,1,3.58-1.5v-2a2,2,0,0,1,.28-3.84,2,2,0,0,1,1.18,3.88v2a7.17,7.17,0,0,1,3.58,1.5l1.14-1.13a1.58,1.58,0,0,1,.65-2,1.6,1.6,0,0,1,1.71,0,1.62,1.62,0,0,1,.28,2.54,1.65,1.65,0,0,1-1.79.37l-1.14,1.13a6.15,6.15,0,0,1,1,1.57,1.05,1.05,0,0,0,1,.65h7.19a1.09,1.09,0,0,0,1.1-1.09v-8c0-2-.82-2.63-2.44-3.31-2.2-.93-9.31-3.56-11.51-4.33A5.42,5.42,0,0,0,24,4a4.94,4.94,0,0,0-1.54.28c-2.2.73-9.31,3.44-11.51,4.33-1.58.64-2.44,1.33-2.44,3.31V28c0,7,3.66,9.5,14.23,15.6A2.54,2.54,0,0,0,24,44a3.26,3.26,0,0,0,1.26-.36C36,37.86,39.47,35,39.47,28V26.26a1.09,1.09,0,0,0-1.1-1.09H31.09A1.13,1.13,0,0,0,30.16,25.82Z"/>
    </g>
</svg>
