<?xml version="1.0" encoding="UTF-8"?>
<svg version="1.1" viewBox="0 0 48 48" xmlns="http://www.w3.org/2000/svg">
    <path d="m7 5c-1.108 0-2 0.892-2 2v34c0 1.108 0.892 2 2 2h34c1.108 0 2-0.892 2-2v-34c0-1.108-0.892-2-2-2h-34zm9.9824 2.9336a2.4407 2.4407 0 0 1 2.4414 2.4414 2.4407 2.4407 0 0 1 -2.4414 2.4414 2.4407 2.4407 0 0 1 -2.4395 -2.4414 2.4407 2.4407 0 0 1 2.4395 -2.4414zm7.0176 0a2.4407 2.4407 0 0 1 2.4414 2.4414 2.4407 2.4407 0 0 1 -2.4414 2.4414 2.4407 2.4407 0 0 1 -2.4414 -2.4414 2.4407 2.4407 0 0 1 2.4414 -2.4414zm7.0176 0a2.4407 2.4407 0 0 1 2.4395 2.4414 2.4407 2.4407 0 0 1 -2.4395 2.4414 2.4407 2.4407 0 0 1 -2.4414 -2.4414 2.4407 2.4407 0 0 1 2.4414 -2.4414zm-20.643 6.6094a2.4407 2.4407 0 0 1 2.4414 2.4395 2.4407 2.4407 0 0 1 -2.4414 2.4414 2.4407 2.4407 0 0 1 -2.4414 -2.4414 2.4407 2.4407 0 0 1 2.4414 -2.4395zm27.25 0a2.4407 2.4407 0 0 1 2.4414 2.4395 2.4407 2.4407 0 0 1 -2.4414 2.4414 2.4407 2.4407 0 0 1 -2.4414 -2.4414 2.4407 2.4407 0 0 1 2.4414 -2.4395zm-20.262 1.2734h13.273c0.85738 0 1.5469 0.68949 1.5469 1.5469v13.273c0 0.85738-0.68949 1.5469-1.5469 1.5469h-13.273c-0.85738 0-1.5469-0.68949-1.5469-1.5469v-13.273c0-0.85738 0.68949-1.5469 1.5469-1.5469zm-6.9883 5.7422a2.4407 2.4407 0 0 1 2.4414 2.4414 2.4407 2.4407 0 0 1 -2.4414 2.4414 2.4407 2.4407 0 0 1 -2.4414 -2.4414 2.4407 2.4407 0 0 1 2.4414 -2.4414zm27.25 0a2.4407 2.4407 0 0 1 2.4414 2.4414 2.4407 2.4407 0 0 1 -2.4414 2.4414 2.4407 2.4407 0 0 1 -2.4414 -2.4414 2.4407 2.4407 0 0 1 2.4414 -2.4414zm-27.25 7.0176a2.4407 2.4407 0 0 1 2.4414 2.4414 2.4407 2.4407 0 0 1 -2.4414 2.4395 2.4407 2.4407 0 0 1 -2.4414 -2.4395 2.4407 2.4407 0 0 1 2.4414 -2.4414zm27.25 0a2.4407 2.4407 0 0 1 2.4414 2.4414 2.4407 2.4407 0 0 1 -2.4414 2.4395 2.4407 2.4407 0 0 1 -2.4414 -2.4395 2.4407 2.4407 0 0 1 2.4414 -2.4414zm-20.643 6.6074a2.4407 2.4407 0 0 1 2.4414 2.4414 2.4407 2.4407 0 0 1 -2.4414 2.4414 2.4407 2.4407 0 0 1 -2.4395 -2.4414 2.4407 2.4407 0 0 1 2.4395 -2.4414zm7.0176 0a2.4407 2.4407 0 0 1 2.4414 2.4414 2.4407 2.4407 0 0 1 -2.4414 2.4414 2.4407 2.4407 0 0 1 -2.4414 -2.4414 2.4407 2.4407 0 0 1 2.4414 -2.4414zm7.0176 0a2.4407 2.4407 0 0 1 2.4395 2.4414 2.4407 2.4407 0 0 1 -2.4395 2.4414 2.4407 2.4407 0 0 1 -2.4414 -2.4414 2.4407 2.4407 0 0 1 2.4414 -2.4414z" fill="#fff"/>
</svg>
