<?xml version="1.0" encoding="UTF-8"?>
<svg viewBox="0 0 48 48" xmlns="http://www.w3.org/2000/svg">
    <path d="m7.229 6.4184 26.14 0.051304c2.3417-0.011066 3.4565 0.79772 4.2116 1.2545 0.29323 0.17738 0.5655 0.35478 0.60502 0.39423 0.03953 0.039443 0.15951 0.13928 0.26661 0.22186 0.42954 0.33118 1.2077 1.0472 1.2077 1.1112 0 0.011358 0.07432 0.098076 0.16516 0.19268 0.89543 0.93261 1.7116 2.514 2.0238 3.9212 0.05496 0.24774 0.12446 0.55854 0.15445 0.69067 0.08904 0.39228 0.12486 1.697 0.0643 2.3423-0.20325 2.1654-1.124 4.1342-2.6585 5.6845-0.57573 0.58166-0.72735 0.70856-1.4449 1.2092-0.586 0.40889-0.58415 0.3929-0.08097 0.70158 0.21419 0.1314 0.89758 0.65669 1.2777 0.98213 0.14229 0.12181 0.70505 0.75312 1.0311 1.1567 0.71554 0.88567 1.4734 2.5015 1.6879 3.5987 0.03874 0.19819 0.09414 0.45494 0.12311 0.57055 0.09518 0.37984 0.1354 1.9245 0.06569 2.5224-0.16106 1.3813-0.70906 2.9202-1.4329 4.0239-1.1821 1.8025-2.9977 3.2051-4.9397 3.8162-0.18167 0.05718-0.38437 0.12542-0.45043 0.15166-0.14189 0.05635-1.0512 0.20762-1.7717 0.29472l-26.245 0.061551zm19.241 30.058c0.48799-0.05791 1.003-0.19435 1.4486-0.29972 1.3811-0.37628 2.7702-1.1104 3.6485-1.5689 0.42043-0.3427 0.9635-0.67666 1.3205-0.99802 0.22129-0.20955 0.38249-0.3204 0.8681-0.75424l-5.0724-4.9963c-1.9333 1.4477-2.7501 1.8334-5.4606 1.3813-3.1031-0.9564-4.8957-5.0427-3.6371-7.6974 1.257-2.2875 3.4947-3.2403 5.7205-3.2361 1.6548 0.22289 2.2115 0.88395 3.3847 1.6245l4.9174-5.165c-0.47499-0.32988-1.3615-1.1374-2.1005-1.6216-5.9298-3.4712-13.101-2.1897-17.119 3.2499-1.219 1.681-1.9515 3.4448-2.3043 5.5486-0.41505 3.4054 0.66444 7.3414 2.5747 9.7919 0.65436 0.83252 1.6129 1.7611 2.4901 2.4032 2.9656 1.9474 6.0069 2.7507 9.3212 2.3377z" fill="#fff"/>
</svg>
