<?xml version="1.0" encoding="UTF-8"?>
<svg version="1.1" viewBox="0 0 48 48" xmlns="http://www.w3.org/2000/svg">
    <path d="m24 2c-12.15 0-22 9.8497-22 22 0 12.15 9.8497 22 22 22 12.15 0 22-9.8497 22-22 0-12.15-9.8497-22-22-22zm-11.884 11h23.767c1.0339 0 1.8664 0.76656 1.8664 1.7188-1e-6 0.95219-0.83259 1.7188-1.8664 1.7188h-23.767c-1.0339 0-1.8664-0.76656-1.8664-1.7188 0-0.95219 0.83259-1.7188 1.8664-1.7188zm-0.04297 6.1875h3.5181c1.0102 0 1.8235 0.76656 1.8235 1.7188-1e-6 0.95219-0.81324 1.7188-1.8235 1.7188h-3.5181c-1.0102 0-1.8235-0.76656-1.8235-1.7188s0.81324-1.7188 1.8235-1.7188zm22.544 0h1.3562c0.9834 0 1.7751 0.76656 1.7751 1.7188s-0.79174 1.7188-1.7751 1.7188h-1.3562c-0.9834 0-1.7751-0.76656-1.7751-1.7188s0.79174-1.7188 1.7751-1.7188zm-5.2825 0.12891c0.43955-2.05e-4 0.8799 0.16823 1.2166 0.50489 0.6733 0.6733 0.67393 1.7564 0 2.4304l-5.9297 5.9297c-0.16833 0.16833-0.36245 0.29455-0.56933 0.37866-0.20696 0.0843-0.42745 0.12612-0.64721 0.12622-0.21978-1.01e-4 -0.44025-0.04192-0.64721-0.12622-0.2069-0.08411-0.401-0.21033-0.56933-0.37866l-3.416-3.416c-0.67393-0.67393-0.6733-1.7571 0-2.4304s1.7564-0.67393 2.4304 0l2.2022 2.2022 4.7131-4.7158c0.33696-0.33696 0.777-0.50468 1.2165-0.50489zm-17.263 6.0585h3.5181c1.0102 0 1.8235 0.76656 1.8235 1.7188 0 0.95219-0.81324 1.7188-1.8235 1.7188h-3.5181c-1.0102 0-1.8235-0.76656-1.8235-1.7188 0-0.95219 0.81324-1.7188 1.8235-1.7188zm19.352 0h4.8098c0.8388 0 1.5147 0.67584 1.5147 1.5147v0.40821c0 0.8388-0.67584 1.5147-1.5147 1.5147h-4.8098c-0.8388 0-1.5147-0.67584-1.5147-1.5147v-0.40821c0-0.8388 0.67584-1.5147 1.5147-1.5147zm-19.352 6.875h3.5181c1.0102 0 1.8235 0.76656 1.8235 1.7188 0 0.95219-0.81324 1.7188-1.8235 1.7188h-3.5181c-1.0102 0-1.8235-0.76656-1.8235-1.7188-1e-6 -0.95219 0.81324-1.7188 1.8235-1.7188zm9.5122 0h4.8286c0.95308 0 1.7215 0.76656 1.7215 1.7188 0 0.95219-0.76836 1.7188-1.7215 1.7188h-4.8286c-0.95308-1e-6 -1.7215-0.76656-1.7215-1.7188 0-0.95219 0.76836-1.7188 1.7215-1.7188zm10.823 0h3.5181c1.0102 0 1.8235 0.76656 1.8235 1.7188 0 0.95219-0.81324 1.7188-1.8235 1.7188h-3.5181c-1.0102 0-1.8235-0.76656-1.8235-1.7188 1e-6 -0.95219 0.81324-1.7188 1.8235-1.7188z" fill="#fff" stroke-width="1.375"/>
</svg>
