<?xml version="1.0" encoding="UTF-8"?>
<svg viewBox="0 0 48 48" xmlns="http://www.w3.org/2000/svg">
    <path d="m22.303 42.663c-4.4437-0.40553-8.3377-2.2276-11.486-5.3745-4.9408-4.9381-6.658-11.903-4.5989-18.654 1.4416-4.7262 5.0589-8.9811 9.5513-11.235 4.2878-2.1511 9.5278-2.5647 14.118-1.1146 1.5279 0.48266 4.0253 1.7816 4.0253 2.0936l-5.3555 3.9511c-4.1691-1.6818-10.85-0.26728-13.816 2.9256-1.8326 1.9726-3.0082 4.7336-3.3256 7.8105-0.41189 3.9922 1.526 8.3052 4.8594 10.815 1.2509 0.94186 2.6247 1.6276 4.1811 2.0872 0.9596 0.28332 1.5557 0.36387 3.1078 0.41996 2.6219 0.2803 5.6837-0.99428 6.6401-1.4423l3.3507 4.816c-3.3859 2.4581-8.9169 3.0822-11.252 2.9015zm9.7393-8.7316 10.143-7.3719c0.29304-0.07663 0.29664 0.06214 0.03401 1.3106-0.46332 2.2026-1.502 4.6-2.9148 6.7276-0.74289 1.1188-3.5703 4.069-3.8991 4.0684zm-1.419-1.9153-3.7662-5.1581 14.136-10.092c0.14912 0 0.3169 0.18449 0.44993 0.49473 0.3837 0.89482 0.94899 3.3704 1.1141 4.8788 0.13998 1.279 0.13529 1.5226-0.0343 1.781zm-8.3661-11.91 13.614-10.332c0.78479 0 4.4843 4.401 4.2384 5.0419l-14.368 9.9978z" fill="#fff"/>
</svg>
