<?xml version="1.0" encoding="UTF-8"?>
<svg version="1.1" viewBox="0 0 48 48" xmlns="http://www.w3.org/2000/svg">
    <g fill="#fff">
        <path d="m7 5c-1.108 0-2 0.892-2 2v34c0 1.108 0.892 2 2 2h34c1.108 0 2-0.892 2-2v-34c0-1.108-0.892-2-2-2zm1.1191 1.25h31.762c1.0351 0 1.8691 0.83404 1.8691 1.8691v15.881h-35.5v-15.881c0-1.0351 0.83404-1.8691 1.8691-1.8691zm14.627 20.033h2.6875c2.431 0 4.3867 2.7363 4.3867 6.1348v1.6562c0 0.06086-0.01002 0.11748-0.01172 0.17773h0.01172v0.89648c0 0.03482-0.0036 0.06691-0.0039 0.10156l-0.20117 0.14453c-0.82865 0.59868-1.6557 1.0953-2.334 1.4355-0.33912 0.17011-0.64113 0.30136-0.88281 0.38672-0.24169 0.08536-0.43248 0.11818-0.48438 0.11719h-3.666c-0.06225 0-0.27901-0.04268-0.54297-0.14062s-0.58741-0.24457-0.9375-0.42383c-0.70018-0.35851-1.5096-0.85271-2.2012-1.3711l-0.20508-0.15234c-0.0004 -0.03333-0.0039-0.06417-0.0039-0.09766v-0.89648h0.01367c-0.0018-0.06029-0.01367-0.11683-0.01367-0.17773v-1.6562c0-3.3984 1.9577-6.1348 4.3887-6.1348zm-0.027344 1.4043c-1.5581 0-2.8125 0.88503-2.8125 1.9844v0.9375c0 1.6187 1.3659 2.9219 3.0625 2.9219h2.25c1.6966 0 3.0625-1.3032 3.0625-2.9219v-0.9375c0-1.0993-1.2544-1.9844-2.8125-1.9844zm-1.9004 6.6973 0.72656 1.3789h1.457l-0.72656-1.3789zm5.0898 0-0.72656 1.3789h1.457l0.72656-1.3789zm3.8672 1.7441c-0.20928 2.3299-1.1481 4.0801-2.2832 4.0801h-6.8066c-1.1345 0-2.0732-1.7482-2.2832-4.0762 0.6668 0.47787 1.3893 0.92409 2.0449 1.2598 0.36868 0.18877 0.71321 0.34554 1.0137 0.45703 0.30046 0.11148 0.54489 0.18359 0.78711 0.18359h3.6523c0.22578 0.0043 0.45196-0.0572 0.73242-0.15625s0.60402-0.24186 0.96289-0.42188c0.64701-0.32456 1.4076-0.78652 2.1797-1.3262zm-9.0762 4.2324h6.8281v0.82617h-6.8281z"/>
        <path d="m16.119 8.0156c-1.0915 0-1.9707 0.87729-1.9707 1.9688v9.8965c0 1.0915 0.87924 1.9707 1.9707 1.9707h15.852c1.0915 0 1.9688-0.87924 1.9688-1.9707v-9.8965c0-1.0915-0.87729-1.9688-1.9688-1.9688zm1.5898 1.3867h12.672c0.87246 0 1.5742 0.70371 1.5742 1.5762v7.9102c0 0.87246-0.70176 1.5742-1.5742 1.5742h-12.672c-0.87246 0-1.5742-0.70176-1.5742-1.5742v-7.9102c0-0.87246 0.70176-1.5762 1.5742-1.5762z" fill="#fff"/>
        <g>
            <path d="m19.04 12.265v5.2832h0.71912q1.2295 0 1.879-0.67852 0.64952-0.67852 0.64952-1.9718 0-1.2874-0.64952-1.9602-0.64372-0.67272-1.879-0.67272zm-2.0124-1.6876h2.1226q1.7746 0 2.6387 0.28417 0.8699 0.27837 1.4904 0.95109 0.55094 0.58573 0.8177 1.3512 0.26677 0.76551 0.26677 1.734 0 0.98009-0.26677 1.7514-0.26677 0.76551-0.8177 1.3512-0.62633 0.67272-1.502 0.95689-0.8757 0.27837-2.6271 0.27837h-2.1226z"/>
            <path d="m27.918 13.929q0.47554 0 0.71912-0.23197 0.24937-0.23197 0.24937-0.68432 0-0.44655-0.24937-0.67852-0.24357-0.23777-0.71912-0.23777h-1.1077v1.8326zm0.06959 3.787q0.60893 0 0.91049-0.28417 0.30736-0.28417 0.30736-0.8583 0-0.56253-0.30736-0.8409-0.30156-0.28417-0.91049-0.28417h-1.1773v2.2675zm1.8674-3.1142q0.64952 0.20878 1.0033 0.77131t0.35376 1.3802q0 1.2527-0.76551 1.8674-0.75971 0.61473-2.3139 0.61473h-3.3346v-8.6584h3.0156q1.6238 0 2.3487 0.54514 0.73072 0.54514 0.73072 1.7456 0 0.63213-0.26677 1.0787-0.26097 0.44075-0.77131 0.65532z"/>
        </g>
    </g>
</svg>
