<?xml version="1.0" encoding="UTF-8"?>
<svg version="1.1" viewBox="0 0 48 48" xmlns="http://www.w3.org/2000/svg">
    <path d="m23.938 7.25a16.688 16.688 0 0 0-0.072266 0.0019531l0.089844 16.031a0.85938 0.85938 0 0 1 0.83203 0.85742 0.85938 0.85938 0 0 1-0.85938 0.85938 0.85938 0.85938 0 0 1-0.85938-0.85938 0.85938 0.85938 0 0 1 0.67188-0.83789l-3.166-15.691a16.688 16.688 0 0 0-13.324 16.326 16.688 16.688 0 0 0 16.688 16.688 16.688 16.688 0 0 0 16.688-16.688 16.688 16.688 0 0 0-16.688-16.688z" fill="#fff" stroke-width=".75852"/>
</svg>
