<?xml version="1.0" encoding="UTF-8"?>
<svg width="48" height="48" viewBox="0 0 12.7 12.7" xmlns="http://www.w3.org/2000/svg">
    <path d="m7.6457 1.3233a3.6777 3.6777 0 0 0-2.5468 1.0769 3.6777 3.6777 0 0 0-0.24422 4.9246l-0.51545 0.51545-0.10401-0.10401-2.9123 2.9128 0.72807 0.72806 2.9128-2.9128-0.10401-0.10401 0.512-0.51201a3.6777 3.6777 0 0 0 4.9281-0.24709 3.6777 3.6777 0 0 0 0-5.201 3.6777 3.6777 0 0 0-2.6543-1.0769zm0.09884 0.58843a3.0893 3.0893 0 0 1 2.1394 0.90448 3.0893 3.0893 0 0 1 0 4.3684 3.0893 3.0893 0 0 1-4.369 0 3.0893 3.0893 0 0 1 0-4.3684 3.0893 3.0893 0 0 1 2.2296-0.90448zm-1.8773 1.5343-0.16492 0.76369h0.60567c0.47262 0 0.60682-0.22415 0.60682-0.43213 0-0.14653-0.08951-0.33156-0.46661-0.33156zm1.5647 0-0.16492 0.76311h0.60509c0.47285 1.3e-4 0.60682-0.22357 0.60682-0.43155 0-0.14653-0.08962-0.33156-0.46661-0.33156zm1.4268 0.68266-0.1655 0.7637h0.60509c0.47285 0 0.60797-0.22371 0.60797-0.43155 0-0.14665-0.08985-0.33215-0.46661-0.33215zm-3.2007 0.46604-0.16492 0.76426h0.60509c0.47274 0 0.60739-0.22416 0.60739-0.43155 0-0.14653-0.09008-0.33271-0.46718-0.33271zm1.5642 0-0.16492 0.76426h0.60509c0.47285 0 0.60739-0.22416 0.60739-0.43155 0-0.14653-0.08985-0.33271-0.46661-0.33271zm1.4107 0.73094-0.16492 0.76369h0.60509c0.47274 0 0.60739-0.22417 0.60739-0.43155 0-0.14665-0.08962-0.33214-0.4666-0.33214zm-1.6354 0.46545-0.16492 0.7637h0.60509c0.47285 1.1e-4 0.60682-0.2236 0.60682-0.43098 0-0.14722-0.08928-0.33272-0.46603-0.33272z" fill="#fff"/>
</svg>
