<?xml version="1.0" encoding="UTF-8" standalone="no"?>
<!-- Created with Inkscape (http://www.inkscape.org/) -->

<svg
   xmlns:dc="http://purl.org/dc/elements/1.1/"
   xmlns:cc="http://creativecommons.org/ns#"
   xmlns:rdf="http://www.w3.org/1999/02/22-rdf-syntax-ns#"
   xmlns:svg="http://www.w3.org/2000/svg"
   xmlns="http://www.w3.org/2000/svg"
   xmlns:sodipodi="http://sodipodi.sourceforge.net/DTD/sodipodi-0.dtd"
   xmlns:inkscape="http://www.inkscape.org/namespaces/inkscape"
   width="48"
   height="48"
   viewBox="0 0 12.7 12.7"
   version="1.1"
   id="svg74"
   sodipodi:docname="dimmer_48x48.svg"
   inkscape:version="0.92.3 (2405546, 2018-03-11)">
  <defs
     id="defs68" />
  <sodipodi:namedview
     id="base"
     pagecolor="#ffffff"
     bordercolor="#666666"
     borderopacity="1.0"
     inkscape:pageopacity="0.0"
     inkscape:pageshadow="2"
     inkscape:zoom="7.9195959"
     inkscape:cx="23.117057"
     inkscape:cy="7.7883612"
     inkscape:document-units="mm"
     inkscape:current-layer="layer1"
     showgrid="false"
     units="px"
     inkscape:pagecheckerboard="true"
     inkscape:window-width="2560"
     inkscape:window-height="1385"
     inkscape:window-x="1920"
     inkscape:window-y="27"
     inkscape:window-maximized="1" />
  <metadata
     id="metadata71">
    <rdf:RDF>
      <cc:Work
         rdf:about="">
        <dc:format>image/svg+xml</dc:format>
        <dc:type
           rdf:resource="http://purl.org/dc/dcmitype/StillImage" />
        <dc:title></dc:title>
      </cc:Work>
    </rdf:RDF>
  </metadata>
  <g
     inkscape:label="Layer 1"
     inkscape:groupmode="layer"
     id="layer1">
    <path
       style="fill:#ffffff;stroke-width:0.08808564"
       d="m 5.588821,11.77036 c -0.157349,-0.0961 -0.28609,-0.21227 -0.28609,-0.25824 0,-0.046 -0.108934,-0.0961 -0.242076,-0.11148 l -0.242076,-0.0279 -0.02542,-0.87828 c -0.017,-0.5874499 -0.06534,-0.9230999 -0.145972,-1.0136499 -0.0663,-0.0745 -0.147052,-0.37336 -0.179445,-0.66424 -0.08654,-0.77708 -0.355937,-1.54378 -0.960119,-2.73245 L 2.97,5.0263901 v -1.01365 c 0,-0.94159 0.01765,-1.04721 0.248277,-1.48573 0.322107,-0.61245 0.906829,-1.1753 1.537208,-1.47968 0.43016,-0.20771003 0.641395,-0.24828003 1.454689,-0.27938003 0.8221,-0.0314 1.025552,-0.01 1.49647,0.16087 0.921704,0.33357003 1.4511172,0.79584003 1.9198132,1.67633003 0.185952,0.34933 0.209701,0.50874 0.209701,1.40759 v 1.01365 l -0.494947,0.96959 c -0.6181722,1.21097 -0.9156172,2.03962 -0.9963302,2.77565 -0.0345,0.31463 -0.109204,0.62789 -0.166004,0.69614 -0.0568,0.0682 -0.123079,0.52478 -0.147286,1.0145199 l -0.04401,0.89045 -0.242076,0.0279 c -0.133142,0.0153 -0.242076,0.0655 -0.242076,0.11148 0,0.20447 -0.580631,0.4329 -1.100346,0.4329 -0.371592,0 -0.612977,-0.0518 -0.814256,-0.17466 z m 0.596675,-0.0657 c -0.11967,-0.0224 -0.296837,-0.0964 -0.393705,-0.16429 -0.15666,-0.10987 -0.08911,-0.12352 0.611286,-0.12352 0.700393,0 0.767946,0.0136 0.611286,0.12352 -0.09687,0.0679 -0.274035,0.14187 -0.393705,0.16429 -0.214844,0.0402 -0.214598,0.0409 0.01959,0.0528 0.140133,0.007 0.338219,-0.077 0.484153,-0.20557 L 7.371385,11.33432 H 6.403081 5.434777 l 0.246985,0.21757 c 0.145933,0.12856 0.344019,0.21266 0.484152,0.20557 0.234184,-0.0118 0.23443,-0.0125 0.01959,-0.0528 z m -1.036813,-0.5225 c -0.06052,-0.0245 -0.110035,-0.11718 -0.110035,-0.20606 0,-0.0889 0.04952,-0.18473 0.110035,-0.21301 0.08803,-0.0411 0.08803,-0.0617 0,-0.10283 -0.158452,-0.074 -0.135345,-0.30656 0.04401,-0.44289 0.146713,-0.11152 0.146713,-0.11723 0,-0.1199 -0.166849,-0.003 -0.21753,-0.3091599 -0.06382,-0.3854899 0.04963,-0.0247 0.03972,-0.0346 -0.02201,-0.0221 -0.07842,0.0159 -0.115632,0.23301 -0.123506,0.7205799 -0.01203,0.74495 0.0064,0.83399 0.170514,0.82309 0.07559,-0.005 0.07415,-0.0194 -0.0052,-0.0514 z M 7.81152,10.44724 c 0,-0.5246399 -0.03207,-0.7410399 -0.112236,-0.7572999 -0.06173,-0.0125 -0.07163,-0.003 -0.02201,0.022 0.15371,0.0763 0.10303,0.3824499 -0.06382,0.3854899 -0.146713,0.003 -0.146713,0.008 0,0.1199 0.08473,0.0644 0.154049,0.18213 0.154049,0.26162 0,0.0795 -0.06932,0.1458 -0.154049,0.14734 -0.146713,0.003 -0.146713,0.008 0,0.1199 0.169944,0.12917 0.204639,0.36635 0.06382,0.43628 -0.04963,0.0246 -0.03972,0.0346 0.02201,0.022 0.08016,-0.0163 0.112236,-0.23266 0.112236,-0.7573 z M 6.958499,10.73371 C 6.933029,10.60128 6.82333,10.57946 6.183008,10.57946 c -0.640322,0 -0.750021,0.0218 -0.775491,0.15425 -0.02651,0.13783 0.05606,0.15425 0.775491,0.15425 0.719434,0 0.801999,-0.0164 0.775491,-0.15425 z m 0.412882,-0.59497 c 0,-0.1633899 -0.0671,-0.1781399 -0.916651,-0.2015699 -0.929978,-0.0256 -1.131551,0.0303 -1.033259,0.2867899 0.04583,0.11957 0.198908,0.13731 1.001999,0.1161 0.880892,-0.0233 0.947911,-0.0375 0.947911,-0.20132 z"
       id="path87"
       inkscape:connector-curvature="0" />
  </g>
</svg>
