<?xml version="1.0" encoding="UTF-8" standalone="no"?>
<!-- Created with Inkscape (http://www.inkscape.org/) -->

<svg
   xmlns:dc="http://purl.org/dc/elements/1.1/"
   xmlns:cc="http://creativecommons.org/ns#"
   xmlns:rdf="http://www.w3.org/1999/02/22-rdf-syntax-ns#"
   xmlns:svg="http://www.w3.org/2000/svg"
   xmlns="http://www.w3.org/2000/svg"
   xmlns:sodipodi="http://sodipodi.sourceforge.net/DTD/sodipodi-0.dtd"
   xmlns:inkscape="http://www.inkscape.org/namespaces/inkscape"
   width="48"
   height="48"
   viewBox="0 0 12.7 12.7"
   version="1.1"
   id="svg74"
   sodipodi:docname="dimmer.svg"
   inkscape:version="0.92.3 (2405546, 2018-03-11)">
  <defs
     id="defs68" />
  <sodipodi:namedview
     id="base"
     pagecolor="#000000"
     bordercolor="#666666"
     borderopacity="1.0"
     inkscape:pageopacity="0"
     inkscape:pageshadow="2"
     inkscape:zoom="1.4142136"
     inkscape:cx="-256.50121"
     inkscape:cy="211.58357"
     inkscape:document-units="mm"
     inkscape:current-layer="layer1"
     showgrid="false"
     units="px"
     inkscape:pagecheckerboard="true"
     inkscape:window-width="2560"
     inkscape:window-height="1385"
     inkscape:window-x="1920"
     inkscape:window-y="27"
     inkscape:window-maximized="1" />
  <metadata
     id="metadata71">
    <rdf:RDF>
      <cc:Work
         rdf:about="">
        <dc:format>image/svg+xml</dc:format>
        <dc:type
           rdf:resource="http://purl.org/dc/dcmitype/StillImage" />
        <dc:title></dc:title>
      </cc:Work>
    </rdf:RDF>
  </metadata>
  <g
     inkscape:label="Layer 1"
     inkscape:groupmode="layer"
     id="layer1">
    <path
       id="path87"
       style="fill:#ffffff;stroke-width:0.09565824"
       d="m 6.6979822,0.26582345 c -0.812022,0.01985 -1.686326,-0.02016 -2.392352,0.453442 -0.759137,0.46874405 -1.424383,1.19037205 -1.644287,2.07135105 -0.07357,0.701198 -0.02887,1.408813 -0.04097,2.11288 0.692863,1.390107 1.524063,2.769621 1.662245,4.350344 0.04661,0.167997 0.05837,0.387403 0.186315,0.515172 0.0045,0.0028 0.02602,0.04786 0.06959,0.05949 -7.75e-4,0.0016 0.05159,0.0373 0.0679,0.03928 0.0073,0.0053 0.0144,0.01125 0.02525,0.01459 0.01345,0.0085 0.04846,0.02571 0.06566,0.02974 -0.01779,-0.0069 0.02617,0.009 0.01235,0.009 0.02584,0.01351 0.0015,-0.01024 0.02413,0.0067 0.0076,-0.0042 0.05463,0.01494 0.06342,0.01515 0.03479,0.01379 0.0075,-0.0016 0.06173,0.01852 -0.03485,-0.01661 0.0081,-0.0045 0.02694,0.0011 -0.0043,-0.01605 0.08537,0.02553 0.130757,0.01122 -0.334312,0.1741365 0.03362,0.4880695 0.125707,0.5050705 -0.305558,0.128822 -0.285933,0.499619 -0.08362,0.633583 -0.265845,0.102418 -0.186648,0.443718 0.01908,0.546599 0.0314,0.06682 0.08096,0.130971 0.07801,0.227843 0.01435,0.108806 0.189313,0.290046 0.331102,0.352989 0.606978,0.302877 1.39417,0.244871 1.967532,-0.110555 0.10255,-0.03987 0.09912,-0.195204 0.115044,-0.216619 0.03569,-0.07031 0.04094,-0.09444 0.06173,-0.142542 0.0182,-0.03051 0.03192,-0.06928 0.05275,-0.108871 0.04516,-0.07369 0.02828,-0.0482 0.131319,-0.138053 0.117664,-0.187594 -0.09393,-0.41167 -0.246924,-0.530885 0.407458,0.03923 0.315447,-0.429493 0.02974,-0.536498 -0.03727,-0.07969 0.289178,-0.06565 0.252536,-0.251974 0.0098,-0.07294 0.01225,-0.0809 -0.03255,-0.152644 -0.01402,-0.03698 -0.02686,-0.04009 -0.09596,-0.1010135 0.01382,0.03488 0.154128,-0.0259 0.103821,0.0017 0.06249,-0.03468 0.143977,-0.04979 0.205956,-0.08081 0.0324,-0.0045 0.102279,-0.05824 0.145909,-0.08193 -0.04525,0.0023 0.04656,-0.009 0.06173,-0.03479 0.19991,-0.156571 0.190373,-0.535953 0.241312,-0.791278 0.184442,-1.467708 0.974818,-2.745779 1.5977068,-4.059094 -0.01756,-0.745367 0.04948,-1.49835 -0.06678,-2.236902 C 9.6699432,1.6666315 8.8653422,0.82748945 7.8568422,0.48746645 c -0.36752,-0.151547 -0.760349,-0.234515 -1.158857,-0.22167 z m 1.212731,9.71980805 c 0.0053,-0.0032 0.0075,-0.0053 -0.009,0.0034 -0.0046,0.0041 0.0037,-1.93e-4 0.009,-0.0034 z m -3.133684,0.07801 -0.0011,0.0011 z m 1.011264,0.170601 c 0.512221,0.0075 1.037652,-0.02795 1.539905,0.08081 0.2467,0.488739 -0.671362,0.302379 -0.95739,0.3586 -0.322888,-0.0327 -1.256539,0.187749 -1.046058,-0.354111 0.14043,-0.0773 0.308207,-0.07445 0.463543,-0.0853 z m 0.58027,0.689703 c 0.325575,0.0065 0.758886,0.07498 0.466349,0.317072 -0.503168,0.03196 -1.021543,0.06106 -1.519702,-0.02133 -0.237028,-0.393353 0.627628,-0.25107 0.794645,-0.285645 0.05381,-0.0074 0.150183,-0.01228 0.258708,-0.0101 z m 1.673468,0.0926 0.0017,0.0017 z m -0.06229,0.560067 -0.0034,0.0011 z m -0.07127,0.02638 -0.0011,5.75e-4 z m -2.611216,0.15096 h 2.103339 c -0.269607,0.248316 -0.587205,0.549438 -0.987694,0.442218 0.234039,0.01086 1.032565,-0.367645 0.384415,-0.348499 -0.354999,0.03993 -0.948867,-0.10446 -1.163907,0.09035 0.176393,0.19912 0.998014,0.295671 0.333908,0.263759 -0.275913,-0.05683 -0.464615,-0.274412 -0.670061,-0.44783 z"
       inkscape:connector-curvature="0" />
  </g>
</svg>
