<?xml version="1.0" encoding="UTF-8"?>
<svg width="48" height="48" version="1.1" viewBox="0 0 12.7 12.7" xmlns="http://www.w3.org/2000/svg">
    <path d="m6.698 0.26582c-0.81202 0.01985-1.6863-0.02016-2.3924 0.45344-0.75914 0.46874-1.4244 1.1904-1.6443 2.0714-0.07357 0.7012-0.02887 1.4088-0.04097 2.1129 0.69286 1.3901 1.5241 2.7696 1.6622 4.3503 0.04661 0.168 0.05837 0.3874 0.18632 0.51517 0.0045 0.0028 0.02602 0.04786 0.06959 0.05949-7.75e-4 0.0016 0.05159 0.0373 0.0679 0.03928 0.0073 0.0053 0.0144 0.01125 0.02525 0.01459 0.01345 0.0085 0.04846 0.02571 0.06566 0.02974-0.01779-0.0069 0.02617 9e-3 0.01235 9e-3 0.02584 0.01351 0.0015-0.01024 0.02413 0.0067 0.0076-0.0042 0.05463 0.01494 0.06342 0.01515 0.03479 0.01379 0.0075-0.0016 0.06173 0.01852-0.03485-0.01661 0.0081-0.0045 0.02694 0.0011-0.0043-0.01605 0.08537 0.02553 0.13076 0.01122-0.33431 0.17414 0.03362 0.48807 0.12571 0.50507-0.30556 0.12882-0.28593 0.49962-0.08362 0.63358-0.26584 0.10242-0.18665 0.44372 0.01908 0.5466 0.0314 0.06682 0.08096 0.13097 0.07801 0.22784 0.01435 0.10881 0.18931 0.29005 0.3311 0.35299 0.60698 0.30288 1.3942 0.24487 1.9675-0.11056 0.10255-0.03987 0.09912-0.1952 0.11504-0.21662 0.03569-0.07031 0.04094-0.09444 0.06173-0.14254 0.0182-0.03051 0.03192-0.06928 0.05275-0.10887 0.04516-0.07369 0.02828-0.0482 0.13132-0.13805 0.11766-0.18759-0.09393-0.41167-0.24692-0.53088 0.40746 0.03923 0.31545-0.42949 0.02974-0.5365-0.03727-0.07969 0.28918-0.06565 0.25254-0.25197 0.0098-0.07294 0.01225-0.0809-0.03255-0.15264-0.01402-0.03698-0.02686-0.04009-0.09596-0.10101 0.01382 0.03488 0.15413-0.0259 0.10382 0.0017 0.06249-0.03468 0.14398-0.04979 0.20596-0.08081 0.0324-0.0045 0.10228-0.05824 0.14591-0.08193-0.04525 0.0023 0.04656-9e-3 0.06173-0.03479 0.19991-0.15657 0.19037-0.53595 0.24131-0.79128 0.18444-1.4677 0.97482-2.7458 1.5977-4.0591-0.01756-0.74537 0.04948-1.4984-0.06678-2.2369-0.34187-1.0005-1.1465-1.8396-2.155-2.1797-0.36752-0.15155-0.76035-0.23452-1.1589-0.22167zm1.2127 9.7198c0.0053-0.0032 0.0075-0.0053-9e-3 0.0034-0.0046 0.0041 0.0037-1.93e-4 9e-3 -0.0034zm-3.1337 0.07801-0.0011 0.0011zm1.0113 0.1706c0.51222 0.0075 1.0377-0.02795 1.5399 0.08081 0.2467 0.48874-0.67136 0.30238-0.95739 0.3586-0.32289-0.0327-1.2565 0.18775-1.0461-0.35411 0.14043-0.0773 0.30821-0.07445 0.46354-0.0853zm0.58027 0.6897c0.32558 0.0065 0.75889 0.07498 0.46635 0.31707-0.50317 0.03196-1.0215 0.06106-1.5197-0.02133-0.23703-0.39335 0.62763-0.25107 0.79464-0.28564 0.05381-0.0074 0.15018-0.01228 0.25871-0.0101zm1.6735 0.0926 0.0017 0.0017zm-0.06229 0.56007-0.0034 0.0011zm-0.07127 0.02638-0.0011 5.75e-4zm-2.6112 0.15096h2.1033c-0.26961 0.24832-0.5872 0.54944-0.98769 0.44222 0.23404 0.01086 1.0326-0.36764 0.38442-0.3485-0.355 0.03993-0.94887-0.10446-1.1639 0.09035 0.17639 0.19912 0.99801 0.29567 0.33391 0.26376-0.27591-0.05683-0.46462-0.27441-0.67006-0.44783z" fill="#fff" stroke-width=".095658"/>
</svg>
