<?xml version="1.0" encoding="UTF-8"?>
<svg version="1.1" viewBox="0 0 48 48" xmlns="http://www.w3.org/2000/svg">
    <defs>
        <mask id="mask4591" maskUnits="userSpaceOnUse">
            <rect x="4" y="8" width="40" height="32" rx="2" fill="#fff"/>
            <path d="m18.553 16 0.02542 18.2c1.7694-0.17522 2.6976 0.14906 2.7431-2.5234l0.03596-14.31c-0.01971-1.1229-1.2675-1.1307-2.8045-1.3663z"/>
            <path d="m22.195 19.246-0.05085 11.669c0.22291 2.7332-0.62662 5.7375 6.1271 0.73729 4.963-3.6521 5.0436-9.4537 0.05085-13.093-6.9656-5.5267-5.9923-1.5352-6.1271 0.68644z"/>
            <path d="m16.431 7.9826 2.9842 1.9056 22.599-0.00231c1.3 0.053408 1.9646 0.35365 1.9967 1.8968l8.466-5.4481-9.9072-1.6958z"/>
        </mask>
    </defs>
    <rect x="4" y="8" width="40" height="32" rx="2" fill="#fff" mask="url(#mask4591)"/>
</svg>
