<?xml version="1.0" encoding="UTF-8"?>
<svg version="1.1" viewBox="0 0 48 48" xmlns="http://www.w3.org/2000/svg">
    <path d="m24 2a22 22 0 0 0-22 22 22 22 0 0 0 22 22 22 22 0 0 0 22-22 22 22 0 0 0-22-22zm-4.084 11.213 0.25781 0.30664c-4.6233 1.3356-6.7559 3.3652-6.7559 3.3652s0.56527-0.30749 1.5156-0.74414c2.7483-1.2072 4.9311-1.5421 5.8301-1.6191 0.15411-0.02569 0.28339-0.050781 0.4375-0.050781 1.5668-0.20548 3.3382-0.25626 5.1875-0.050781 2.4401 0.28254 5.0592 1.0008 7.7305 2.4648 0 0-2.028-1.9261-6.3945-3.2617l0.35938-0.41016s3.5181-0.076733 7.2168 2.6973c0 0 3.6992 6.702 3.6992 14.973 0 1e-6 -2.1829 3.7245-7.8594 3.9043 0 0-0.92476-1.104-1.6953-2.0801 3.3648-0.95035 4.6484-3.0566 4.6484-3.0566-1.0531 0.6935-2.0541 1.1817-2.9531 1.5156-1.2843 0.53939-2.5174 0.89999-3.7246 1.1055-2.4658 0.46233-4.726 0.33225-6.6523-0.027343-1.4641-0.28254-2.7223-0.69255-3.7754-1.1035-0.59076-0.23117-1.2329-0.51346-1.875-0.87305-0.077055-0.051366-0.15536-0.077536-0.23242-0.12891-0.051369-0.02568-0.075872-0.050482-0.10156-0.076172-0.46233-0.25685-0.71875-0.4375-0.71875-0.4375s1.2321 2.0552 4.4941 3.0312c-0.77056 0.97604-1.7207 2.1309-1.7207 2.1309-5.6764-0.1798-7.834-3.9043-7.834-3.9043 0-8.2706 3.6992-14.973 3.6992-14.973 3.6987-2.774 7.2168-2.6973 7.2168-2.6973zm-0.71875 9.5801c-1.4641 0-2.6211 1.2848-2.6211 2.8516 0 1.5668 1.1827 2.8496 2.6211 2.8496 1.4641 0 2.6191-1.2828 2.6191-2.8496 0.025685-1.5668-1.1551-2.8516-2.6191-2.8516zm9.375 0c-1.4641 0-2.6191 1.2848-2.6191 2.8516 0 1.5668 1.1808 2.8496 2.6191 2.8496 1.4641 0 2.6191-1.2828 2.6191-2.8496 0-1.5668-1.1551-2.8516-2.6191-2.8516z" fill="#fff"/>
</svg>
