<?xml version="1.0" encoding="UTF-8"?>
<svg version="1.1" viewBox="0 0 48 48" xmlns="http://www.w3.org/2000/svg">
    <path d="m15.25 4c-0.6925 0-1.25 0.5575-1.25 1.25v18.75h-2v1h-7v2h7v1h2v14.75c0 0.6925 0.5575 1.25 1.25 1.25h17.5c0.6925 0 1.25-0.5575 1.25-1.25v-14.75h2v-1h7v-2h-7v-1h-2v-18.75c0-0.6925-0.5575-1.25-1.25-1.25h-17.5zm0.75 2h16.09c0.554 0 1 0.446 1 1s-0.446 1-1 1h-16.09c-0.554 0-1-0.446-1-1s0.446-1 1-1zm0 4h16.09c0.554 0 1 0.446 1 1s-0.446 1-1 1h-16.09c-0.554 0-1-0.446-1-1s0.446-1 1-1zm0 4h16.09c0.554 0 1 0.446 1 1s-0.446 1-1 1h-16.09c-0.554 0-1-0.446-1-1s0.446-1 1-1zm0 4h16.09c0.554 0 1 0.446 1 1s-0.446 1-1 1h-16.09c-0.554 0-1-0.446-1-1s0.446-1 1-1zm0 5h16c0.554 0 1 0.446 1 1v18c0 0.554-0.446 1-1 1h-16c-0.554 0-1-0.446-1-1v-18c0-0.554 0.446-1 1-1zm0.9004 1c-0.4986 0-0.9004 0.4018-0.9004 0.9004v16.2c0 0.4986 0.4018 0.9004 0.9004 0.9004h14.2c0.4986 0 0.9004-0.4018 0.9004-0.9004v-16.2c0-0.4986-0.4018-0.9004-0.9004-0.9004h-14.2z" fill="#fff"/>
</svg>
