<?xml version="1.0" encoding="UTF-8"?>
<svg version="1.1" viewBox="0 0 48 48" xmlns="http://www.w3.org/2000/svg">
    <defs>
        <style>.cls-1{fill:#fff;}</style>
    </defs>
    <path class="cls-1" d="m12.617 7.2386c-1.4821 0.69342-1.4761 1.2261-1.4999 2.7826v9.5234c0.01483 3.0445 0.69343 3.2677 3.5713 3.2737h18.452c1.0029-0.0032 2.3362 0.12201 3.0534-0.72317 0.5714-0.66963 0.51188-1.7202 0.51783-2.5505v-8.9281c-0.0064-3.1993-0.79758-3.5653-3.8689-3.5713h-13.095c-1.8749 0-5.4581-0.15773-7.1306 0.19344zm3.9016 3.2588c1.4523-0.33034 3.482-0.17856 5.0146-0.17856h8.3329c1.9672 0.03872 2.3422 0.41367 2.3808 2.3808v4.1665c-0.0032 0.86602 0.13392 2.1249-0.68746 2.6725-0.66068 0.43747-2.9136 0.30355-3.7766 0.30355h-9.2258c-0.75592-0.0032-1.9285 0.09521-2.4999-0.47617-0.48808-0.4851-0.46426-1.2678-0.47617-1.9047-0.01776-1.0178-0.11012-5.5473 0.17856-6.2051 0.24106-0.55354 0.34819-0.47319 0.75888-0.75889zm-3.9135 14.276c-0.72021 0.28868-1.0773 0.39283-1.5714 1.0595-0.64282 0.87197-1.9553 7.0681-2.3362 8.5918-0.26785 1.0744-0.83925 2.7767-0.20535 3.7855 0.68747 1.1041 2.3868 0.97318 3.5177 0.97614h23.808c1.2827-0.0032 3.104 0.11012 3.8064-1.2291 0.53272-1.0178-0.36008-3.5861-0.64282-4.723-0.40771-1.6279-1.3095-6.9104-2.36-7.8419-0.96423-0.85413-2.2826-0.78569-3.482-0.78865h-13.095c-1.9166 0-5.7408-0.13989-7.4401 0.16963zm3.9016 2.2767h13.062c0.68152-0.0624 1.6725-0.11012 2.2529 0.28271 0.94637 0.64284 1.2618 3.8242 1.4463 5.0087 0.24404 0.96127 0.73508 2.5624 0 3.351-0.66662 0.622-1.991 0.51783-2.8064 0.51783h-13.392c-0.57736-0.0032-1.497 0.02387-2.0148-0.22022-1.5952-0.74401-0.51783-3.7915-0.24702-5.1367 0.29761-1.488 0.21427-3.0296 1.6993-3.8034z"/>
</svg>
