<?xml version="1.0" encoding="UTF-8"?>
<svg viewBox="0 0 48 48" xmlns="http://www.w3.org/2000/svg">
    <defs>
        <style>.a{fill:none;stroke:#fff;stroke-linecap:round;stroke-linejoin:round;}.b{fill:#fff;}</style>
    </defs>
    <path class="a" d="M13.52,41a2.42,2.42,0,0,0,.5-.6l8.67-15a2.69,2.69,0,0,0,0-2.66L14,7.65a2.42,2.42,0,0,0-.5-.6"/>
    <path class="a" d="M13,40.35a2.68,2.68,0,0,0,2.31,1.33H32.67A2.68,2.68,0,0,0,35,40.35l8.66-15a2.64,2.64,0,0,0,0-2.66L35,7.65a2.68,2.68,0,0,0-2.31-1.33H15.33A2.68,2.68,0,0,0,13,7.65l-4,7,4.65,8.05a2.64,2.64,0,0,1,0,2.66L9,33.38Z"/>
    <path class="a" d="m33.81 23.33-4.33-7.5a1.31 1.31 0 0 0-1.15-0.66h-8.66a1.31 1.31 0 0 0-1 0.5l4 7a2.69 2.69 0 0 1 0 2.66l-4 7a1.31 1.31 0 0 0 1 0.5h8.66a1.31 1.31 0 0 0 1.15-0.66l4.33-7.5a1.34 1.34 0 0 0 0-1.34z"/>
    <path class="b" d="M32.67,8.32a.68.68,0,0,1,.57.33l8.67,15a.65.65,0,0,1,0,.66l-8.67,15a.68.68,0,0,1-.57.33H15.33a.68.68,0,0,1-.57-.33l-3.45-6,4.07-7.05a4.67,4.67,0,0,0,0-4.66l-4.07-7.05,3.45-6a.68.68,0,0,1,.57-.33H32.67m0-2H15.33A2.68,2.68,0,0,0,13,7.65l-4,7,4.65,8.05a2.64,2.64,0,0,1,0,2.66L9,33.38l4,7a2.68,2.68,0,0,0,2.31,1.33H32.67A2.68,2.68,0,0,0,35,40.35l8.66-15a2.64,2.64,0,0,0,0-2.66L35,7.65a2.68,2.68,0,0,0-2.31-1.33Z"/>
</svg>
