<?xml version="1.0" encoding="UTF-8"?>
<svg version="1.1" viewBox="0 0 48 48" xmlns="http://www.w3.org/2000/svg">
    <path d="m7 5c-1.108 0-2 0.892-2 2v34c0 1.108 0.892 2 2 2h34c1.108 0 2-0.892 2-2v-34c0-1.108-0.892-2-2-2h-34zm16.916 2.8496c8.9426 1.2797 10.566 6.8012 10.541 10.432-0.25712-0.58392-0.77464-1.4327-1.3633-2.2266-0.93592-1.2622-2.6019-2.1714-4.0137-2.8105-1.1189-0.50657-2.2077-0.77281-2.9141-0.91992v22.479h-0.001954a4.4321 6.4023 76.596 0 1 -5.0449 5.0391 4.4321 6.4023 76.596 0 1 -7.4492 -2.6035 4.4321 6.4023 76.596 0 1 4.918 -5.9004 4.4321 6.4023 76.596 0 1 5.3242 0.31836 4.4321 6.4023 76.596 0 0 0.003907 0.001953v-23.809z" fill="#fff"/>
</svg>
