<?xml version="1.0" encoding="UTF-8"?>
<svg viewBox="0 0 48 48" xmlns="http://www.w3.org/2000/svg">
    <defs>
        <style>.cls-1{fill:#fff;}</style>
    </defs>
    <g data-name="Layer 1">
        <polygon class="cls-1" points="21.84 33.15 26.16 33.15 24 28.52"/>
        <path class="cls-1" d="M43.12,19.43H34.47L25.93,5.09a2.25,2.25,0,0,0-3.86,0L13.53,19.43H4.88a3.42,3.42,0,0,0-3.31,4.32L6.42,41.69a3.14,3.14,0,0,0,3,2.31H38.56a3.14,3.14,0,0,0,3-2.31l4.85-17.94A3.42,3.42,0,0,0,43.12,19.43ZM24,10.62l5.25,8.81H18.75ZM34,41H30.7a1.36,1.36,0,0,1-1.24-.8l-1.55-3.32H20.09l-1.55,3.32a1.36,1.36,0,0,1-1.24.8H14a.82.82,0,0,1-.74-1.18l7.81-16.09A1.31,1.31,0,0,1,22.24,23h3.52a1.31,1.31,0,0,1,1.17.73l7.81,16.09A.82.82,0,0,1,34,41Z"/>
    </g>
</svg>
