<?xml version="1.0" encoding="UTF-8"?>
<svg version="1.1" viewBox="0 0 48 48" xmlns="http://www.w3.org/2000/svg">
    <path d="m7 5c-1.108 0-2 0.892-2 2v34c0 1.108 0.892 2 2 2h34c1.108 0 2-0.892 2-2v-34c0-1.108-0.892-2-2-2h-34zm17.535 4.0137c0.78944-0.083972 1.6072 0.31206 1.9824 0.94336 0.22785 0.38336 0.32798 0.80544 0.36133 1.25 0.71089-0.001319 1.4214 0.024663 2.1016 0.11133h0.001953c3.0269 0.32915 6.2164 2.7335 7.8359 5.041 0.7672 1.0931 0.92411 2.4395 0.69922 3.6582-0.22489 1.2187-0.82398 2.357-1.8066 3.0605-0.6336 0.45363-1.2302 0.43239-1.7578 0.45703-0.036021 0.00168-0.031271-0.001193-0.066406 0 0.029236 2.5407 0.099921 5.2266-1.0879 7.8301l-0.005859 0.013672-0.007813 0.013672c-1.058 2.1161-2.1013 2.949-3.0566 3.9043-0.62558 0.62558-1.5416 1.0967-2.5527 1.498l0.38672 1.4082-1.6953 0.46484-0.36133-1.3164c-0.70109 0.1864-1.3893 0.31055-2.0098 0.31055-2.4676-0.001866-4.5225-0.33405-6.2988-1.2773-1.7763-0.94329-3.214-2.4765-4.498-4.6914l-0.015625-0.027343-0.013672-0.027344c-1.8041-3.6891-1.7763-8.734 0.19531-13.436-0.23886 0.012466-0.47452 0.018615-0.70703 0-0.18349-0.014692-0.36654-0.034609-0.5957-0.13086-0.22916-0.096248-0.58161-0.36466-0.66602-0.7832-0.32833-1.628 0.028867-3.1486 0.93555-4.291s2.2955-1.9047 3.959-2.3105l0.037109-0.007812 0.037109-0.00586c0.30074-0.046512 0.58376-0.072136 0.84961-0.082031 0.79756-0.029685 1.4474 0.086776 2.0117 0.24219 0.74976 0.20648 1.3361 0.44193 2.1973 0.55469 0.34563 0.042177 0.85089 0.041623 1.4512 0.019531 0.047358-0.33619 0.11122-0.69286 0.27734-1.082 0.26767-0.62708 0.98545-1.217 1.8828-1.3125zm0.40625 1.7363c-0.026819-0.01156-0.079841-0.003056-0.21875 0.011719-0.44482 0.047311-0.36722 0.052666-0.45312 0.25391-0.01349 0.031609-0.026752 0.158-0.039062 0.20312l0.81055-0.041016c-0.02149-0.083019-0.012827-0.28468-0.035157-0.32226-0.037016-0.062285-0.037633-0.093909-0.064453-0.10547zm-8.1387 1.5977c-0.19164 0.008874-0.40058 0.029587-0.63476 0.064453-1.3641 0.34088-2.371 0.9389-2.959 1.6797-0.50165 0.63206-0.67644 1.4108-0.5957 2.3496 0.1694-0.00235 0.31162 0.001365 0.53906-0.015625 0.36013-0.02689 0.75874-0.065284 1.1367-0.083984 0.37798-0.0187 0.70542-0.045033 1.1191 0.070312 1.6516 0.46046 3.5451 0.2524 5.4941-0.035156 1.949-0.28756 3.9409-0.66429 5.8477-0.26562 3.3963 0.71009 5.399 3.0254 6.7402 5.668 0.13995 0.0036 0.17674 0.011453 0.38086 0.001953 0.41139-0.01921 0.89149-0.18461 0.81641-0.13086 0.49433-0.35393 0.94649-1.1108 1.1016-1.9512 0.15508-0.84036 0.02177-1.7166-0.41016-2.332-1.2852-1.8312-4.453-4.0768-6.5996-4.3047h-0.009766l-0.009765-0.001953c-1.2484-0.15931-2.7853-0.097206-4.2305-0.009766-1.4452 0.08743-2.7712 0.20982-3.8184 0.082031h-0.003907-0.001953c-1.0754-0.1394-1.8163-0.43028-2.4453-0.60352-0.46441-0.1279-0.88211-0.20826-1.457-0.18164zm8.4492 5.3613c-1.2079-0.030613-2.6096 0.18728-4.0938 0.40625-1.9788 0.29192-4.1182 0.57641-6.2207-0.009765 0.005843 0.00163-0.088799-0.001402-0.10156-0.001953-2.1283 4.4925-2.1912 9.4465-0.59375 12.736 1.1709 2.0101 2.3556 3.2362 3.7793 3.9922 1.4321 0.7605 3.166 1.0725 5.4766 1.0742 0.61966-3.35e-4 1.7311-0.24732 2.7344-0.62305 1.004-0.37599 1.9473-0.92194 2.2539-1.2285 1.0401-1.0401 1.7807-1.5657 2.7168-3.4297 1.075-2.364 0.92402-5.0239 0.91797-7.8496-1.1913-2.4803-2.8067-4.3321-5.7305-4.9434-0.35574-0.074376-0.73603-0.11284-1.1387-0.12305z" fill="#fff"/>
</svg>
