<?xml version="1.0" encoding="UTF-8"?>
<svg viewBox="0 0 48 48" xmlns="http://www.w3.org/2000/svg">
    <path d="m31.302 35.237-0.62174-2.8208c-0.03567-0.16563-0.12486-0.29049-0.26501-0.37203-0.15289-0.08409-0.30832-0.09428-0.46121-0.03567l-0.08918 0.03567-0.21404 0.05351c-0.09428 0.02293-0.20385 0.05096-0.32871 0.07899-0.12486 0.03058-0.26756 0.05861-0.43573 0.08919-0.16563 0.03058-0.3389 0.05606-0.52237 0.07899-0.18347 0.02293-0.37967 0.04332-0.59372 0.06115-0.21404 0.01784-0.42554 0.02548-0.63958 0.02548-1.5009 0-2.8539-0.40515-4.0515-1.2155-1.2002-0.81031-2.0844-1.906-2.6526-3.2896h6.8647c0.12996 0 0.24972-0.04332 0.35419-0.1325 0.10702-0.08919 0.17072-0.19876 0.19621-0.32871l0.42554-1.9875c0.03567-0.17582 0-0.33635-0.10702-0.47905-0.11722-0.1427-0.26756-0.21404-0.44338-0.21404h-8.1387c-0.03567-0.80521-0.03567-1.4244 0-1.8627h8.656c0.31852 0 0.50963-0.15289 0.56823-0.46121l0.42554-2.0207c0.03567-0.16563-0.0051-0.31852-0.12486-0.46121-0.10702-0.1427-0.25481-0.21404-0.44338-0.21404h-8.3018c0.59117-1.325 1.4779-2.3647 2.6603-3.1215 1.1823-0.7568 2.5176-1.1339 4.0082-1.1339 0.04841-0.02293 0.22169-0.01784 0.52237 0.01784 0.30068 0.03567 0.47395 0.05096 0.51472 0.04332 0.04077-0.0051 0.19621 0.01274 0.46121 0.05351s0.40006 0.06116 0.40006 0.06116l0.31087 0.06115c0.08919 0.01784 0.15798 0.03313 0.20385 0.04332l0.07135 0.01784c0.15289 0.04842 0.29558 0.03313 0.42554-0.04332 0.12995-0.07644 0.21404-0.19111 0.24972-0.34655l0.76189-2.8208c0.03567-0.15289 0.01784-0.29558-0.05351-0.42554-0.10702-0.1427-0.22424-0.23188-0.35419-0.26501-1.0881-0.27265-2.2347-0.4077-3.44-0.4077-2.6501 0-5.0173 0.7568-7.1042 2.2704-2.0869 1.5136-3.5266 3.5113-4.3191 5.9958h-1.7378c-0.16563 0-0.30068 0.05351-0.4077 0.16053-0.10702 0.10702-0.16053 0.24207-0.16053 0.4077v2.0283c0 0.16563 0.05351 0.30068 0.16053 0.4077 0.10702 0.10702 0.24207 0.16053 0.4077 0.16053h1.1874c-0.03567 0.56824-0.04077 1.1874-0.01784 1.8627h-1.1696c-0.15289 0-0.28794 0.05606-0.40006 0.16818-0.11212 0.11212-0.16818 0.24462-0.16818 0.40006v2.0054c0 0.15289 0.05606 0.28539 0.16818 0.40006 0.11212 0.11212 0.24462 0.16818 0.40006 0.16818h1.6843c0.74406 2.6118 2.1532 4.6911 4.2223 6.2353 2.0691 1.5365 4.4873 2.3086 7.252 2.3086 0.22424 0 0.45357-0.0051 0.6829-0.01784 0.23188-0.01274 0.44592-0.03058 0.64723-0.05351s0.40006-0.05096 0.59372-0.07899c0.19366-0.03058 0.37203-0.05861 0.53256-0.08918 0.16053-0.02803 0.31087-0.05861 0.45102-0.08919 0.1427-0.03058 0.2701-0.06115 0.38222-0.09683 0.11212-0.03567 0.2064-0.06116 0.28284-0.07899 0.07644-0.01784 0.14015-0.03822 0.18601-0.06116l0.08918-0.01784c0.12996-0.04841 0.23188-0.1325 0.30068-0.25736 0.0739-0.12486 0.09173-0.25736 0.05606-0.40006zm14.698-11.237a22 22 0 0 1-22 22 22 22 0 0 1-22-22 22 22 0 0 1 22-22 22 22 0 0 1 22 22z" fill="#fff"/>
</svg>
