<?xml version="1.0" encoding="UTF-8"?>
<svg viewBox="0 0 48 48" xmlns="http://www.w3.org/2000/svg">
    <defs>
        <style>.cls-1{fill:#fff;}</style>
    </defs>
    <g data-name="Layer 1">
        <path class="cls-1" d="M17.88,21.24c0-.3-.33-.54-.73-.54s-.73.24-.73.54.32.55.73.55S17.88,21.55,17.88,21.24Z"/>
        <path class="cls-1" d="M30.18,20.7c-.4,0-.73.24-.73.54s.33.55.73.55.73-.24.73-.55S30.58,20.7,30.18,20.7Z"/>
        <path class="cls-1" d="M9.91,29.74c0,2.1-3.87,3-6.28-2.83-.93-2.27-1.17-9.63,1.65-12.28a15.4,15.4,0,0,1,8.91-4.19.2.2,0,0,1,.15.34C9.08,16.42,9.91,27.69,9.91,29.74Z"/>
        <path class="cls-1" d="M33.66,10.78a.2.2,0,0,1,.15-.34,15.4,15.4,0,0,1,8.91,4.19c2.82,2.65,2.58,10,1.65,12.28-2.41,5.87-6.28,4.93-6.28,2.83S38.92,16.42,33.66,10.78Z"/>
        <path class="cls-1" d="M32.37,11.12A6.84,6.84,0,0,0,29.54,9.3a17.5,17.5,0,0,0-11.08,0,6.84,6.84,0,0,0-2.83,1.82c-2.83,2.76-4.39,7.82-4.53,14.7A4,4,0,0,0,11.7,28c.55.9,1.14,1.69,1.68,2.42.94,1.26,1.69,2.26,1.69,3.18,0,2.76,2.2,6,8.93,6s8.93-3.26,8.93-6c0-.92.75-1.92,1.69-3.18.54-.73,1.13-1.52,1.68-2.42a4,4,0,0,0,.6-2.16C36.76,18.94,35.2,13.88,32.37,11.12ZM17.53,19.68c1.09,0,2,1.39,2,3.11s-.89,3.1-2,3.1-2-1.39-2-3.1S16.44,19.68,17.53,19.68Zm9.9,17.87a3.88,3.88,0,0,1-3.43-2,3.88,3.88,0,0,1-3.43,2c-3.5,0-4.17-3.92-4.2-4.08a.52.52,0,0,1,.09-.38.5.5,0,0,1,.33-.2l.58-.08a.49.49,0,0,1,.37.09.47.47,0,0,1,.19.33c0,.11.44,2.74,2.64,2.74a2.46,2.46,0,0,0,2.27-1.6A4.7,4.7,0,0,1,19,30.72a1.94,1.94,0,0,1,.32-1.65c1.34-1.72,4.57-1.64,4.71-1.64s3.37-.08,4.71,1.64A1.94,1.94,0,0,1,29,30.72a4.7,4.7,0,0,1-3.87,3.65A2.46,2.46,0,0,0,27.43,36c2.2,0,2.62-2.63,2.64-2.74a.47.47,0,0,1,.19-.33.49.49,0,0,1,.37-.09l.58.08a.5.5,0,0,1,.33.2.52.52,0,0,1,.09.38C31.6,33.63,30.93,37.55,27.43,37.55Zm3-11.66c-1.09,0-2-1.39-2-3.1s.89-3.11,2-3.11,2,1.39,2,3.11S31.56,25.89,30.47,25.89Z"/>
    </g>
</svg>
