<?xml version="1.0" encoding="UTF-8" standalone="no"?>
<!-- Created with Inkscape (http://www.inkscape.org/) -->

<svg
   xmlns:dc="http://purl.org/dc/elements/1.1/"
   xmlns:cc="http://creativecommons.org/ns#"
   xmlns:rdf="http://www.w3.org/1999/02/22-rdf-syntax-ns#"
   xmlns:svg="http://www.w3.org/2000/svg"
   xmlns="http://www.w3.org/2000/svg"
   xmlns:sodipodi="http://sodipodi.sourceforge.net/DTD/sodipodi-0.dtd"
   xmlns:inkscape="http://www.inkscape.org/namespaces/inkscape"
   width="48"
   height="48"
   viewBox="0 0 12.7 12.7"
   version="1.1"
   id="svg8"
   inkscape:version="0.92.3 (2405546, 2018-03-11)"
   sodipodi:docname="Episodes_48x48.svg">
  <defs
     id="defs2" />
  <sodipodi:namedview
     id="base"
     pagecolor="#ffffff"
     bordercolor="#666666"
     borderopacity="1.0"
     inkscape:pageopacity="0.0"
     inkscape:pageshadow="2"
     inkscape:zoom="22.627417"
     inkscape:cx="21.291646"
     inkscape:cy="22.575226"
     inkscape:document-units="mm"
     inkscape:current-layer="layer1"
     showgrid="false"
     units="px"
     inkscape:pagecheckerboard="true"
     inkscape:window-width="2560"
     inkscape:window-height="1385"
     inkscape:window-x="1920"
     inkscape:window-y="27"
     inkscape:window-maximized="1" />
  <metadata
     id="metadata5">
    <rdf:RDF>
      <cc:Work
         rdf:about="">
        <dc:format>image/svg+xml</dc:format>
        <dc:type
           rdf:resource="http://purl.org/dc/dcmitype/StillImage" />
        <dc:title></dc:title>
      </cc:Work>
    </rdf:RDF>
  </metadata>
  <g
     inkscape:label="Layer 1"
     inkscape:groupmode="layer"
     id="layer1">
    <path
       style="fill:#ffffff;stroke-width:0.08825877"
       d="m 2.995727,12.61324 c 0,-0.18556 0.6575649,-0.35404 1.4472203,-0.3708 0.4437742,-0.009 -0.1748108,-0.0392 -1.3746344,-0.0661 C 0.63821839,12.12174 0.59792487,12.11164 0.21127078,11.45724 0.04230515,11.17127 0.03334937,10.97471 0.00892076,7.01628 -0.01369182,3.3523 9.6331856e-5,2.8309 0.12812868,2.49635 0.34523554,1.92919 0.57118487,1.82449 1.6891359,1.773 L 2.6458046,1.7289 2.2903929,1.30072 C 1.9152307,0.84875 1.8450163,0.59252 2.0724829,0.5055 2.217423,0.45 2.3222381,0.5402 3.0092304,1.31132 c 0.3457449,0.38807 0.4598035,0.46164 0.71578,0.46164 0.2876611,0 0.3372513,-0.049 0.8968079,-0.88687 0.4167524,-0.624 0.6365969,-0.87837 0.7417288,-0.85818 0.264102,0.0507 0.2137095,0.29918 -0.197671,0.97468 -0.2212323,0.36328 -0.4022413,0.68522 -0.4022413,0.71543 0,0.0302 1.5653463,0.0549 3.4785462,0.0549 3.461866,0 3.479949,9.5e-4 3.770777,0.19827 0.160726,0.10905 0.375443,0.31024 0.477147,0.44708 0.181678,0.24443 0.184919,0.32398 0.184919,4.5383 v 4.2895 l -0.205859,0.28772 c -0.396823,0.55464 -0.543169,0.58718 -2.8879802,0.64199 -1.1668193,0.0273 -1.7584015,0.0573 -1.3146274,0.0666 0.7896846,0.0167 1.4472203,0.18512 1.4472203,0.37072 0,0.0556 -1.2090661,0.0869 -3.3590253,0.0869 -2.1499592,0 -3.3590254,-0.0313 -3.3590254,-0.0869 z m 3.5686425,-1.49593 c 0.2096753,-0.20509 0.1195308,-0.35583 -0.2127959,-0.35583 -0.278209,0 -0.5941424,0.34946 -0.4809721,0.532 0.081666,0.13173 0.4832313,0.0298 0.693768,-0.17617 z M 0.36888198,6.40819 0.38806507,2.84204 0.64822609,2.57133 C 0.7913151,2.42244 1.0498717,2.26144 1.2227963,2.21355 1.4124351,2.16105 3.4879513,2.12625 6.452914,2.12595 l 4.91571,-4.9e-4 0.319203,0.21594 c 0.194425,0.13154 0.34096,0.18086 0.374858,0.12618 0.03061,-0.0494 0.114623,-0.0672 0.186693,-0.0396 0.23173,0.0887 0.0727,-0.16067 -0.235105,-0.36858 L 11.720731,1.86113 6.319584,1.86213 C 0.51171127,1.86313 0.66451818,1.85163 0.30819101,2.32982 0.12754606,2.57224 0.12225141,2.67655 0.09796119,6.47157 0.07521824,10.02407 0.08514572,10.34755 0.21137406,10.16934 0.33056694,10.00106 0.35235825,9.48068 0.36888499,6.40789 Z M 11.633632,9.92294 C 11.820077,9.79275 11.821441,9.77771 11.687561,9.32811 11.282554,7.96804 10.132871,6.34535 9.0451152,5.5985 8.7808528,5.41706 8.5646384,5.23297 8.5646384,5.18941 8.5646384,5.14581 8.766456,4.737 9.0131206,4.28085 9.2597863,3.8247 9.4352459,3.40897 9.4030297,3.35701 9.3101727,3.20722 9.1612536,3.37761 8.6487492,4.22025 8.391421,4.64332 8.1684249,5.00535 8.1532017,5.02476 8.1379796,5.04416 7.8166002,4.96496 7.4390282,4.84866 6.8371845,4.66334 6.5890328,4.63816 5.4266016,4.64449 4.2736307,4.65049 4.0051236,4.68079 3.3682049,4.87439 L 2.6357397,5.09706 2.1004432,4.18407 C 1.8060304,3.68193 1.5313743,3.27109 1.4900951,3.27109 c -0.2125232,0 -0.141974,0.2616 0.2960292,1.09772 l 0.481631,0.9194 -0.3652759,0.24053 C 1.7015773,5.66103 1.3084804,5.98648 1.0289297,6.25197 L 0.52065603,6.73469 v 1.21456 c 0,1.33011 0.0624127,1.61194 0.42267278,1.90854 l 0.24029309,0.19784 5.1293639,4.4e-4 c 4.4404522,3.5e-4 5.1550552,-0.0175 5.3206462,-0.13313 z M 8.1465202,8.05085 C 7.9226226,8.01345 7.5922884,7.63775 7.5922884,7.42056 7.5922884,7.20442 7.8465049,6.8839 8.0916113,6.791 8.2425269,6.7338 8.3991965,6.747 8.6099167,6.8348 9.3511872,7.14357 8.954004,8.18585 8.1465202,8.05084 Z M 8.7217603,7.80439 C 9.1434453,7.50994 8.8565744,6.8821 8.3018812,6.88545 8.027561,6.88745 7.9146084,6.95825 7.7792017,7.21456 c -0.1090428,0.20642 -0.01437,0.51554 0.202,0.65957 0.1643348,0.10939 0.5338575,0.0746 0.7405586,-0.0697 z M 2.023377,7.85349 C 1.6870441,7.51819 1.9052641,6.81537 2.3548594,6.78587 c 0.5367725,-0.0352 0.8471234,0.19774 0.8471234,0.63584 0,0.54214 -0.7809292,0.82823 -1.1786058,0.43178 z M 2.9298507,7.78739 C 3.284441,7.39204 3.0608944,6.88413 2.5322974,6.88413 c -0.5202277,0 -0.7857225,0.52762 -0.4510222,0.89632 0.1868752,0.20585 0.666646,0.20978 0.8485755,0.007 z M 12.099101,6.23153 12.100405,3.06745 11.877733,2.77641 C 11.742689,2.5999 11.525274,2.44944 11.325262,2.39406 10.834315,2.25814 1.6309118,2.27897 1.236049,2.41686 1.0704416,2.47466 0.85166211,2.63388 0.7498734,2.77058 0.57890724,3.00019 0.56268234,3.15465 0.53696817,4.7974 L 0.50913113,6.57566 0.93474605,6.17022 C 1.2655757,5.85512 1.9318356,5.3244 2.0885744,5.25115 2.1001264,5.24615 1.909919,4.86743 1.6658946,4.41043 1.186196,3.51206 1.1415635,3.22703 1.4805908,3.22703 c 0.1705129,0 0.297041,0.15276 0.6933579,0.83716 0.2666309,0.46044 0.4967327,0.84949 0.5113381,0.86456 0.01461,0.0151 0.2992633,-0.0548 0.6325727,-0.15524 C 4.5556793,4.40046 6.4774891,4.39345 7.5569435,4.75801 7.8437784,4.85491 8.0891174,4.90694 8.1021404,4.87367 8.1946865,4.6373 9.0865669,3.31184 9.201853,3.23935 9.3042734,3.17495 9.3858742,3.18255 9.4867885,3.26605 9.613781,3.37112 9.5787029,3.47547 9.1427754,4.28927 L 8.657348,5.19548 9.0308707,5.41402 c 0.9952053,0.58226 2.3012873,2.35752 2.7584983,3.74942 0.109785,0.33423 0.177777,0.43759 0.231858,0.35249 0.04209,-0.0662 0.07713,-1.54425 0.07788,-3.2845 z"
       id="path21"
       inkscape:connector-curvature="0" />
  </g>
</svg>
