<?xml version="1.0" encoding="UTF-8"?>
<svg width="48" height="48" version="1.1" viewBox="0 0 12.7 12.7" xmlns="http://www.w3.org/2000/svg">
    <path d="m2.6458 2.4893c-0.87948 0-1.5875 0.70802-1.5875 1.5875v5.2917c0 0.86883 0.69132 1.5691 1.556 1.5859v-2.8629a3.4813 3.4813 0 0 1 0.66042-2.0319l-0.48783-0.48059c-0.22352-0.22353-0.22722-0.58267-0.006718-0.80254l-0.00103-0.0031c0.10993-0.10994 0.25322-0.16444 0.39843-0.1633 0.14521 0.00115 0.29253 0.058366 0.40979 0.17105l0.48421 0.48162a3.4813 3.4813 0 0 1 2.0242-0.65216 3.4813 3.4813 0 0 1 2.0242 0.65422l0.48576-0.48369c0.2327-0.22537 0.58628-0.22762 0.80615-0.00775l0.00103 0.0031c0.22051 0.21987 0.21682 0.579-0.00672 0.80254l-0.48782 0.48059a3.4813 3.4813 0 0 1 0.65836 2.0319v2.8644h0.47749c0.87948 0 1.5875-0.70802 1.5875-1.5875v-5.2917c0-0.87948-0.70802-1.5875-1.5875-1.5875zm1.9839 5.0529a0.64129 0.64129 0 0 0-0.6413 0.6413 0.64129 0.64129 0 0 0 0.6413 0.6413 0.64129 0.64129 0 0 0 0.6413-0.6413 0.64129 0.64129 0 0 0-0.6413-0.6413zm2.9316 0a0.64129 0.64129 0 0 0-0.6413 0.6413 0.64129 0.64129 0 0 0 0.6413 0.6413 0.64129 0.64129 0 0 0 0.6413-0.6413 0.64129 0.64129 0 0 0-0.6413-0.6413z" fill="#fff" stroke-width=".26458"/>
    <rect x="2.1794" y="9.8144" width="7.9766" height="1.1416" rx=".45649" fill="#fff" style="paint-order:stroke markers fill"/>
    <rect transform="rotate(30)" x="4.9737" y="-2.1303" width=".92604" height="4.2664" rx=".45649" fill="#fff" style="paint-order:stroke markers fill"/>
    <path d="m3.0184 1.2728c-0.08764-0.00613-0.1778 0.013044-0.25993 0.060461l-0.01137 0.0062c-0.21901 0.12645-0.29336 0.40472-0.16692 0.62373l1.0599 1.8361h1.0692l-1.327-2.2991c-0.07903-0.13688-0.21774-0.21717-0.3638-0.22738z" fill="#fff" style="paint-order:stroke markers fill"/>
</svg>
