<?xml version="1.0" encoding="UTF-8"?>
<svg width="48" height="48" version="1.1" viewBox="0 0 12.7 12.7" xmlns="http://www.w3.org/2000/svg">
    <path d="m2.9957 12.613c0-0.18556 0.65756-0.35404 1.4472-0.3708 0.44377-9e-3 -0.17481-0.0392-1.3746-0.0661-2.4301-0.0546-2.4704-0.0647-2.857-0.7191-0.16897-0.28597-0.17792-0.48253-0.20235-4.441-0.022613-3.664-0.0088244-4.1854 0.11921-4.5199 0.21711-0.56716 0.44306-0.67186 1.561-0.72335l0.95667-0.0441-0.35541-0.42818c-0.37516-0.45197-0.44538-0.7082-0.21791-0.79522 0.14494-0.0555 0.24976 0.0347 0.93675 0.80582 0.34574 0.38807 0.4598 0.46164 0.71578 0.46164 0.28766 0 0.33725-0.049 0.89681-0.88687 0.41675-0.624 0.6366-0.87837 0.74173-0.85818 0.2641 0.0507 0.21371 0.29918-0.19767 0.97468-0.22123 0.36328-0.40224 0.68522-0.40224 0.71543 0 0.0302 1.5653 0.0549 3.4785 0.0549 3.4619 0 3.4799 9.5e-4 3.7708 0.19827 0.16073 0.10905 0.37544 0.31024 0.47715 0.44708 0.18168 0.24443 0.18492 0.32398 0.18492 4.5383v4.2895l-0.20586 0.28772c-0.39682 0.55464-0.54317 0.58718-2.888 0.64199-1.1668 0.0273-1.7584 0.0573-1.3146 0.0666 0.78968 0.0167 1.4472 0.18512 1.4472 0.37072 0 0.0556-1.2091 0.0869-3.359 0.0869s-3.359-0.0313-3.359-0.0869zm3.5686-1.4959c0.20968-0.20509 0.11953-0.35583-0.2128-0.35583-0.27821 0-0.59414 0.34946-0.48097 0.532 0.081666 0.13173 0.48323 0.0298 0.69377-0.17617zm-6.1955-4.7091 0.019183-3.5662 0.26016-0.27071c0.14309-0.14889 0.40165-0.30989 0.57457-0.35778 0.18964-0.0525 2.2652-0.0873 5.2301-0.0876l4.9157-4.9e-4 0.3192 0.21594c0.19442 0.13154 0.34096 0.18086 0.37486 0.12618 0.03061-0.0494 0.11462-0.0672 0.18669-0.0396 0.23173 0.0887 0.0727-0.16067-0.2351-0.36858l-0.29354-0.19827-5.4011 1e-3c-5.8079 1e-3 -5.6551-0.0105-6.0114 0.46769-0.18064 0.24242-0.18594 0.34673-0.21023 4.1418-0.022743 3.5525-0.012815 3.876 0.11341 3.6978 0.11919-0.16828 0.14098-0.68866 0.15751-3.7614zm11.265 3.5148c0.18644-0.13019 0.18781-0.14523 0.053929-0.59483-0.40501-1.3601-1.5547-2.9828-2.6424-3.7296-0.26426-0.18144-0.48048-0.36553-0.48048-0.40909 0-0.0436 0.20182-0.45241 0.44848-0.90856 0.24667-0.45615 0.42213-0.87188 0.38991-0.92384-0.092857-0.14979-0.24178 0.0206-0.75428 0.86324-0.25733 0.42307-0.48032 0.7851-0.49555 0.80451-0.015222 0.0194-0.3366-0.0598-0.71417-0.1761-0.60184-0.18532-0.85-0.2105-2.0124-0.20417-1.153 6e-3 -1.4215 0.0363-2.0584 0.2299l-0.73247 0.22267-0.5353-0.91299c-0.29441-0.50214-0.56907-0.91298-0.61035-0.91298-0.21252 0-0.14197 0.2616 0.29603 1.0977l0.48163 0.9194-0.36528 0.24053c-0.2009 0.13229-0.594 0.45774-0.87355 0.72323l-0.50827 0.48272v1.2146c0 1.3301 0.062413 1.6119 0.42267 1.9085l0.24029 0.19784 5.1294 4.4e-4c4.4405 3.5e-4 5.1551-0.0175 5.3206-0.13313zm-3.4871-1.8721c-0.2239-0.0374-0.55423-0.4131-0.55423-0.63029 0-0.21614 0.25422-0.53666 0.49932-0.62956 0.15092-0.0572 0.30759-0.044 0.51831 0.0438 0.74127 0.30877 0.34409 1.351-0.4634 1.216zm0.57524-0.24646c0.42168-0.29445 0.13481-0.92229-0.41988-0.91894-0.27432 2e-3 -0.38727 0.0728-0.52268 0.32911-0.10904 0.20642-0.01437 0.51554 0.202 0.65957 0.16433 0.10939 0.53386 0.0746 0.74056-0.0697zm-6.6984 0.0491c-0.33633-0.3353-0.11811-1.0381 0.33148-1.0676 0.53677-0.0352 0.84712 0.19774 0.84712 0.63584 0 0.54214-0.78093 0.82823-1.1786 0.43178zm0.90647-0.0661c0.35459-0.39535 0.13104-0.90326-0.39755-0.90326-0.52023 0-0.78572 0.52762-0.45102 0.89632 0.18688 0.20585 0.66665 0.20978 0.84858 7e-3zm9.1693-1.5559 0.001304-3.1641-0.22267-0.29104c-0.13504-0.17651-0.35246-0.32697-0.55247-0.38235-0.49095-0.13592-9.6944-0.11509-10.089 0.0228-0.16561 0.0578-0.38439 0.21702-0.48618 0.35372-0.17097 0.22961-0.18719 0.38407-0.21291 2.0268l-0.027837 1.7783 0.42561-0.40544c0.33083-0.3151 0.99709-0.84582 1.1538-0.91907 0.011552-5e-3 -0.17866-0.38372-0.42268-0.84072-0.4797-0.89837-0.52433-1.1834-0.1853-1.1834 0.17051 0 0.29704 0.15276 0.69336 0.83716 0.26663 0.46044 0.49673 0.84949 0.51134 0.86456 0.01461 0.0151 0.29926-0.0548 0.63257-0.15524 1.2378-0.37305 3.1596-0.38006 4.2391-0.0155 0.28683 0.0969 0.53217 0.14893 0.5452 0.11566 0.092546-0.23637 0.98443-1.5618 1.0997-1.6343 0.10242-0.0644 0.18402-0.0568 0.28494 0.0267 0.12699 0.10507 0.091914 0.20942-0.34401 1.0232l-0.48543 0.90621 0.37352 0.21854c0.99521 0.58226 2.3013 2.3575 2.7585 3.7494 0.10978 0.33423 0.17778 0.43759 0.23186 0.35249 0.04209-0.0662 0.07713-1.5442 0.07788-3.2845z" fill="#fff" stroke-width=".088259"/>
</svg>
