<?xml version="1.0" encoding="UTF-8"?>
<svg viewBox="0 0 48 48" xmlns="http://www.w3.org/2000/svg">
    <defs>
        <style>.cls-1{fill:#fff;}</style>
    </defs>
    <g data-name="Layer 1">
        <path class="cls-1" d="M31.38,20.49a3.26,3.26,0,0,0-2.75,1.22,6,6,0,0,0-.92,3.64A6,6,0,0,0,28.63,29a3.19,3.19,0,0,0,2.73,1.22q3.66,0,3.66-4.86C35,22.11,33.8,20.49,31.38,20.49Z"/>
        <path class="cls-1" d="M41,5H7A2,2,0,0,0,5,7V41a2,2,0,0,0,2,2H41a2,2,0,0,0,2-2V7A2,2,0,0,0,41,5ZM21.63,15.57H14.15v4.52h7v3.58h-7V29h7.48v3.6H9.78V12H21.63ZM38.14,36H34.23l-2.64-3.23h-.23a6.56,6.56,0,0,1-5.08-1.92,7.86,7.86,0,0,1-1.77-5.52,7.76,7.76,0,0,1,1.77-5.49,6.68,6.68,0,0,1,5.1-1.9,6.53,6.53,0,0,1,5.08,1.92,7.82,7.82,0,0,1,1.76,5.49,9.08,9.08,0,0,1-.9,4.26,5.45,5.45,0,0,1-2.65,2.52Z"/>
    </g>
</svg>
