<svg xmlns="http://www.w3.org/2000/svg" width="192" height="192" viewBox="0 0 192 192">
    <path d="M18.418 27.932a9.746 9.746 0 0 0-9.768 9.765v28.21h174.7V53.7a9.742 9.742 0 0 0-9.768-9.763h-43.94c-8.795-.48-15.328-2.353-15.328-2.353s-30.23-7.436-40.826-10.94C65.332 27.944 64 27.93 62.78 27.93H18.418zM8.65 81.87v72.432a9.746 9.746 0 0 0 9.768 9.765h155.164a9.746 9.746 0 0 0 9.768-9.765V81.87H8.65zm138.352 21.442c2.08 0 4.222.16 6.422.483 2.2.304 4.474.77 6.826 1.396v8.02c-2.08-.93-4.11-1.63-6.09-2.103-1.98-.474-3.85-.71-5.61-.71-2.334 0-4.06.32-5.177.963s-1.676 1.642-1.676 2.996c0 1.015.373 1.81 1.117 2.384.762.56 2.132 1.04 4.112 1.447l4.162.835c4.213.847 7.208 2.135 8.984 3.86 1.777 1.727 2.666 4.18 2.666 7.36 0 4.18-1.245 7.293-3.732 9.34-2.47 2.03-6.25 3.045-11.344 3.045a38.97 38.97 0 0 1-7.232-.686 44.78 44.78 0 0 1-7.26-2.03v-8.245c2.42 1.286 4.755 2.258 7.006 2.918 2.267.644 4.45.966 6.547.966 2.132 0 3.764-.357 4.898-1.067 1.138-.712 1.705-1.727 1.705-3.046 0-1.185-.39-2.1-1.168-2.743-.76-.64-2.292-1.215-4.593-1.722l-3.78-.837c-3.79-.813-6.565-2.107-8.325-3.884-1.744-1.776-2.616-4.172-2.616-7.183 0-3.774 1.218-6.675 3.654-8.706 2.437-2.03 5.94-3.043 10.508-3.043zM98.35 104h26.37v7.385h-16.6v7.056h15.61v7.387h-15.61v8.68h17.157v7.385H98.35V104z" fill="#fff" paint-order="fill markers stroke"/>
</svg>
