<?xml version="1.0" encoding="UTF-8"?>
<svg viewBox="0 0 48 48" xmlns="http://www.w3.org/2000/svg">
    <path d="M4.604 6.983a2.437 2.437 0 0 0-2.442 2.442v7.052h43.675v-3.052a2.436 2.436 0 0 0-2.442-2.44H32.41c-2.198-.12-3.832-.59-3.832-.59S21.02 8.538 18.372 7.662c-2.04-.674-2.372-.677-2.677-.677H4.605zM2.162 20.468v18.108a2.437 2.437 0 0 0 2.442 2.44h38.791a2.437 2.437 0 0 0 2.442-2.44V20.468zm34.588 5.36c.52 0 1.056.04 1.606.12a14.2 14.2 0 0 1 1.706.35v2.005a8.674 8.674 0 0 0-1.522-.526 6.033 6.033 0 0 0-1.403-.177c-.583 0-1.015.08-1.294.24-.28.16-.42.41-.42.75a.71.71 0 0 0 .28.596c.19.14.533.26 1.028.36l1.042.21c1.053.212 1.802.534 2.246.965.444.433.666 1.046.666 1.84 0 1.046-.31 1.824-.933 2.336-.616.508-1.56.76-2.835.76a9.742 9.742 0 0 1-1.808-.17 11.195 11.195 0 0 1-1.815-.508v-2.06c.605.32 1.19.564 1.752.73.567.16 1.112.24 1.637.24.534 0 .942-.09 1.225-.267a.848.848 0 0 0 .426-.76c0-.296-.096-.525-.29-.686-.19-.16-.574-.304-1.15-.43l-.944-.21c-.947-.203-1.64-.526-2.08-.97-.437-.445-.655-1.044-.655-1.796 0-.944.305-1.67.914-2.177.61-.506 1.485-.76 2.627-.76zM24.587 26h6.593v1.847h-4.15v1.764h3.902v1.847H27.03v2.17h4.29v1.847h-6.733z" fill="#fff" paint-order="fill markers stroke"/>
</svg>
