<?xml version="1.0" encoding="UTF-8"?>
<svg version="1.1" viewBox="0 0 48 48" xmlns="http://www.w3.org/2000/svg">
    <path d="m7.1387 5.0488c-1.05 0-1.8926 1.2839-1.8926 2.8789v33.121c0 1.595 0.84258 2.8789 1.8926 2.8789h33.721c1.05 0 1.8945-1.2839 1.8945-2.8789v-33.121c0-1.595-0.84258-2.8789-1.8926-2.8789h-33.723zm8.6641 3.0156l0.001954 0.0019531a2.514 2.514 0 0 1 2.5117 2.5137 2.514 2.514 0 0 1 -2.5117 2.5117 2.514 2.514 0 0 1 -2.5176 -2.5117 2.514 2.514 0 0 1 2.5156 -2.5156zm16.395 0v0.0019531a2.514 2.514 0 0 1 2.5156 2.5137 2.514 2.514 0 0 1 -2.5156 2.5117 2.514 2.514 0 0 1 -2.5117 -2.5117 2.514 2.514 0 0 1 2.5117 -2.5156zm-16.969 11.34c2.1349 0 3.7307 0.38818 4.7871 1.1621 1.0638 0.76586 1.5957 1.9229 1.5957 3.4707 0 1.0561-0.2516 1.9224-0.75781 2.5996-0.50622 0.66912-1.2557 1.14-2.2461 1.4141 1.1078 0.31441 1.9473 0.86254 2.5195 1.6445 0.57958 0.77393 0.87109 1.7617 0.87109 2.9629 0 1.7897-0.62389 3.1527-1.8711 4.0879-1.2472 0.9271-3.0673 1.3906-5.459 1.3906-0.8437 0-1.6919-0.077296-2.543-0.23047-0.8437-0.14511-1.6788-0.36578-2.5078-0.66406v-3.5918c0.79234 0.43533 1.5778 0.76646 2.3555 0.99219 0.785 0.21767 1.5549 0.32617 2.3105 0.32617 1.1225 0 1.98-0.21335 2.5742-0.64062 0.60159-0.42727 0.90234-1.0398 0.90234-1.8379 0-0.8223-0.30756-1.4441-0.92383-1.8633-0.60893-0.42727-1.5112-0.64062-2.707-0.64062h-1.6953v-3h1.7832c1.0638 0 1.8561-0.18019 2.377-0.54297 0.52089-0.37084 0.78125-0.9319 0.78125-1.6816 0-0.69331-0.25355-1.2285-0.75977-1.6074s-1.2201-0.56836-2.1445-0.56836c-0.68229-1e-6 -1.3733 0.08461-2.0703 0.25391-0.69697 0.1693-1.3904 0.41947-2.0801 0.75v-3.4102c0.83636-0.25798 1.6666-0.45109 2.4883-0.58008 0.82169-0.12899 1.6276-0.19531 2.4199-0.19531zm16.398 0c2.1569 0 3.8223 0.81489 4.9961 2.4434 1.1738 1.6204 1.7598 3.9307 1.7598 6.9297 0 2.9909-0.58593 5.2993-1.7598 6.9277-1.1738 1.6204-2.8392 2.4316-4.9961 2.4316-2.1643 0-3.834-0.81124-5.0078-2.4316-1.1738-1.6285-1.7617-3.9368-1.7617-6.9277 0-2.999 0.58788-5.3093 1.7617-6.9297 1.1738-1.6285 2.8436-2.4434 5.0078-2.4434zm0 3.1816c-0.90972-1e-6 -1.5604 0.46353-1.9492 1.3906-0.38883 0.91904-0.58203 2.5064-0.58203 4.7637 0 2.2815 0.1932 3.891 0.58203 4.8262 0.38883 0.93516 1.0395 1.4023 1.9492 1.4023 0.90239 0 1.5467-0.46718 1.9355-1.4023 0.38883-0.93516 0.58398-2.5447 0.58398-4.8262 0-2.2573-0.19515-3.8446-0.58398-4.7637-0.3815-0.9271-1.0258-1.3906-1.9355-1.3906z" fill="#fff"/>
</svg>
