<?xml version="1.0" encoding="UTF-8"?>
<svg enable-background="new 0 0 2289.75 2130" version="1.1" viewBox="0 0 48 48" xml:space="preserve" xmlns="http://www.w3.org/2000/svg"><path d="m14.108 3.5349c-1.0359 0-1.8756 0.8398-1.8756 1.8756v6.3104h12.45c1.0345 0 1.8723 0.8412 1.8756 1.8757v21.83c-0.0034 1.0345-0.84115 1.8723-1.8756 1.8756h-12.45v5.2872c0 1.0359 0.83975 1.8756 1.8756 1.8756h30.016c1.0359 0 1.8756-0.8397 1.8756-1.8756v-37.179c0-1.0358-0.83975-1.8756-1.8756-1.8756h-14.496zm-10.233 9.2093c-1.0359 0-1.8756 0.8398-1.8756 1.8756v18.76c0 1.0359 0.83975 1.8756 1.8756 1.8756h18.76c1.0359 0 1.8756-0.8397 1.8756-1.8756v-18.76c0-1.0358-0.83971-1.8756-1.8756-1.8756zm4.2639 5.1582h2.9081l1.9728 3.8884c0.18215 0.3694 0.30698 0.6436 0.37452 0.8247h0.02556c0.12961-0.2947 0.26606-0.5808 0.40932-0.8585l2.1089-3.8525h2.6697l-3.7073 6.0444 3.8014 6.1477h-2.8405l-2.2788-4.268c-0.10734-0.1816-0.19839-0.3724-0.27214-0.57h-0.03378c-0.06676 0.1936-0.15531 0.379-0.264 0.5526l-2.3464 4.2854h-2.8579l3.9457-6.114z" fill="#fff"/></svg>
