<?xml version="1.0" encoding="UTF-8"?>
<svg version="1.1" viewBox="0 0 48 48" xmlns="http://www.w3.org/2000/svg">
    <path d="m24 2a22 22 0 0 0-22 22 22 22 0 0 0 22 22 22 22 0 0 0 22-22 22 22 0 0 0-22-22zm0 0.31055a16.488 16.488 0 0 1 16.488 16.488c0 9.592-7.8006 17.079-16.488 26.891-8.3184-9.394-15.818-16.657-16.441-25.678a16.488 16.488 0 0 1-0.0078126-0.095703c-0.02354-0.36968-0.039062-0.74128-0.039062-1.1172a16.488 16.488 0 0 1 16.488-16.488zm0 8.5645a7.9257 7.9257 0 0 0-7.9258 7.9238 7.9257 7.9257 0 0 0 7.9258 7.9258 7.9257 7.9257 0 0 0 7.9258-7.9258 7.9257 7.9257 0 0 0-7.9258-7.9238z" fill="#fff"/>
</svg>
