<?xml version="1.0" encoding="UTF-8"?>
<svg viewBox="0 0 48 48" xmlns="http://www.w3.org/2000/svg">
    <defs>
        <style>.cls-1{fill:#fff;fill-rule:evenodd;}</style>
    </defs>
    <g data-name="Layer 1">
        <path class="cls-1" d="M24,46A22,22,0,1,0,2,24,22,22,0,0,0,24,46Zm0-18.27A3.74,3.74,0,1,1,27.73,24,3.73,3.73,0,0,1,24,27.73Zm9.4,12.5-6.54-11.3a5.76,5.76,0,0,0,2.08-2.08A5.62,5.62,0,0,0,29.71,24v0H42.77v0Zm0-32.49L26.85,19.05A5.58,5.58,0,0,0,24,18.28a5.77,5.77,0,0,0-2.87.77L14.61,7.74ZM5.23,24H18.29a5.75,5.75,0,0,0,2.86,5l-6.53,11.3Z"/>
    </g>
</svg>
