<?xml version="1.0" encoding="UTF-8"?>
<svg version="1.1" viewBox="0 0 48 48" xmlns="http://www.w3.org/2000/svg">
    <path d="m24 2a22 22 0 0 0-22 22 22 22 0 0 0 22 22 22 22 0 0 0 22-22 22 22 0 0 0-22-22zm0 4a18 18 0 0 1 18 18 18 18 0 0 1-18 18 18 18 0 0 1-18-18 18 18 0 0 1 18-18z" fill="#fff"/>
    <path d="m17.23 10.461a0.77 0.77 0 0 0-0.76953 0.76953 0.77 0.77 0 0 0 0.22656 0.54297l-0.001953 0.001953 1.9844 1.9844a9 9 0 0 0-3.6699 7.2402v1.4492a1.8 1.8 0 0 1-1.8008 1.8008 1.8 1.8 0 0 1-1.7988-1.8008 1.375 1.375 0 0 0-1.375-1.375 1.375 1.375 0 0 0-1.375 1.375 1.375 1.375 0 0 0 0.0058594 0.11523 4.55 4.55 0 0 0 4.543 4.4355 4.55 4.55 0 0 0 1.8008-0.37305v3.8262 1.4629 2.3184a1.5 1.418 0 0 0 1.5 1.418 1.5 1.418 0 0 0 1.5-1.418v-2.3184h0.001953a1 0.94536 0 0 1-0.001953-0.044922 1 0.94536 0 0 1 1-0.94531 1 0.94536 0 0 1 1 0.94531 1 0.94536 0 0 1-0.001953 0.044922h0.001953v5.1543h0.015625a1.5 1.418 0 0 0 1.4844 1.2305 1.5 1.418 0 0 0 1.4844-1.2305h0.015625v-5.1543h0.001953a1 0.94536 0 0 1-0.001953-0.044922 1 0.94536 0 0 1 1-0.94531 1 0.94536 0 0 1 1 0.94531 1 0.94536 0 0 1-0.001953 0.044922h0.001953v5.1543h0.015625a1.5 1.418 0 0 0 1.4844 1.2305 1.5 1.418 0 0 0 1.4844-1.2305h0.015625v-5.1543h0.001953a1 0.94536 0 0 1-0.001953-0.044922 1 0.94536 0 0 1 1-0.94531 1 0.94536 0 0 1 1 0.94531 1 0.94536 0 0 1-0.001953 0.044922h0.001953v2.3184a1.5 1.418 0 0 0 1.5 1.418 1.5 1.418 0 0 0 1.5-1.418v-2.3184-1.4629-9.4531a9 9 0 0 0-3.6699-7.2402l1.9844-1.9844-0.001953-0.001953a0.77 0.77 0 0 0 0.22656-0.54297 0.77 0.77 0 0 0-0.76953-0.76953 0.77 0.77 0 0 0-0.54492 0.22461 0.77 0.77 0 0 0-0.007812 0.007812l-2.2441 2.2441a9 9 0 0 0-3.9727-0.9375 9 9 0 0 0-3.9785 0.93164l-2.2383-2.2383a0.77 0.77 0 0 0-0.007812-0.007812 0.77 0.77 0 0 0-0.54492-0.22461zm3.4453 7.4844c1.0718 0.043168 2.2141 0.19922 3.3242 0.19922s2.2239-0.15837 3.3242-0.19922c1.6557-0.061461 3 1.3431 3 3 0 1.6569-1.5933 2.8541-3 3-1.1067 0.11481-2.2233 0.11146-3.3359 0.11133-1.1048-1.3e-4 -2.2138 0.004892-3.3125-0.11133-1.4064-0.14877-3-1.3431-3-3s1.3445-3.0667 3-3z" fill="#fff" style="paint-order:normal"/>
    <ellipse cx="20.3" cy="21" rx="1.3" ry="1.6" fill="#fff" style="paint-order:normal"/>
    <ellipse cx="27.7" cy="21" rx="1.3" ry="1.6" fill="#fff" style="paint-order:normal"/>
</svg>
