<?xml version="1.0" encoding="UTF-8"?>
<svg viewBox="0 0 48 48" xmlns="http://www.w3.org/2000/svg">
    <defs>
        <style>.cls-1{fill:#fff;}</style>
    </defs>
    <g data-name="Layer 1">
        <path class="cls-1" d="M42.9,11.87l-2.32-1.75,2-2.48H39.44l.11-2.82L37.29,6.54,35.54,4l-.91,3-2.83-1,.74,2.86-2.63.76,2.49,1.74-2,2.4,2.95,0,.08.69-1.86,3.29L25.7,14.61l-2,3.18a8.19,8.19,0,0,0-3-.59,7,7,0,0,0-.92.06,1.65,1.65,0,0,0-1.24.8l-.86,1.43-.3,0a12.29,12.29,0,1,0,9.82,4.94L27.87,23a1.68,1.68,0,0,0,0-1.53,8.14,8.14,0,0,0-2.69-2.93l1.13-1.78,5.91,3.1,2.52-4.46.86-.61,1.83,2.56.86-2.92,2.9,1-1-2.73Zm-4,1.27-1.54-.5-.4,1.5-.84-1.25-1.43.86.15-1.57-1.47.09,1-1.38L33,10.14l1.46-.44-.33-1.31,1.35.47.42-1.59.92,1.21L38,7.64V9.12l1.46.11-.85,1.19,1.17.87-1.38.47Z"/>
    </g>
</svg>
