<?xml version="1.0" encoding="UTF-8"?>
<svg viewBox="0 0 48 48" xmlns="http://www.w3.org/2000/svg">
    <path d="M43.777 3.75a1.97 1.97 0 0 0-1.395.58l-2.43 2.42H8.047l-2.43-2.42a1.968 1.968 0 0 0-2.79 0 1.97 1.97 0 0 0 0 2.79L5.25 9.55v31.7c0 1.494 1.493 3 3 3h31.5c1.507 0 3-1.506 3-3V9.55l2.423-2.428a1.97 1.97 0 0 0 0-2.79 1.968 1.968 0 0 0-1.395-.582zm-27.67 9.915a3.945 3.945 0 1 1 0 7.89 3.945 3.945 0 0 1 0-7.89zm15.785 0a3.945 3.945 0 1 1 0 7.89 3.945 3.945 0 0 1 0-7.89z" fill="#fff" opacity=".96" paint-order="markers fill stroke"/>
</svg>
