<?xml version="1.0" encoding="UTF-8"?>
<svg viewBox="0 0 48 48" xmlns="http://www.w3.org/2000/svg">
    <defs>
        <style>.cls-1{fill:#fff;}</style>
    </defs>
    <g data-name="Layer 1">
        <path class="cls-1" d="M8.68,24.55a3.09,3.09,0,0,0-2.89,2.89L5.9,41.1A3.12,3.12,0,0,0,8.79,44H39.21a3.1,3.1,0,0,0,2.89-2.9L42,27.44a3.12,3.12,0,0,0-2.9-2.89Z"/>
        <path class="cls-1" d="M43.09,4a1.88,1.88,0,0,0-1.34.56L39.4,6.9H8.6L6.25,4.56A1.9,1.9,0,0,0,3.56,7.25L5.9,9.6v8.52A3.12,3.12,0,0,0,8.79,21H39.21a3.12,3.12,0,0,0,2.89-2.9V9.6l2.34-2.34A1.91,1.91,0,0,0,43.09,4ZM16.38,10.46c5.08,0,5.08,7.61,0,7.61S11.3,10.46,16.38,10.46Zm15.24,0c5.08,0,5.08,7.61,0,7.61S26.54,10.46,31.62,10.46Z"/>
    </g>
</svg>
