<svg width="32" height="32" viewBox="0 0 32 32" xmlns="http://www.w3.org/2000/svg">
    <path d="M29.185 2.5c-.336 0-.673.13-.93.387L26.635 4.5H5.365l-1.62-1.613a1.312 1.312 0 0 0-1.86 0 1.313 1.313 0 0 0 0 1.86L3.5 6.367V27.5c0 .996.996 2 2 2h21c1.005 0 2-1.004 2-2V6.366l1.616-1.618a1.313 1.313 0 0 0 0-1.86 1.312 1.312 0 0 0-.93-.388zM10.738 9.11a2.63 2.63 0 1 1 0 5.26 2.63 2.63 0 0 1 0-5.26zm10.524 0a2.63 2.63 0 1 1 0 5.26 2.63 2.63 0 0 1 0-5.26z" fill="#fff" opacity=".96" paint-order="markers fill stroke"/>
</svg>
