<?xml version="1.0" encoding="UTF-8"?>
<svg data-name="Layer 1" viewBox="0 0 48 48" xmlns="http://www.w3.org/2000/svg">
    <defs>
        <style>.cls-1{fill:#fff;}</style>
    </defs>
    <path class="cls-1" d="m20.85 16.92 3.51-6.6-0.12-0.13-10.78 5.26v0.17z"/>
    <path class="cls-1" d="M19.85,18.81l-6.72-1.19a.8.8,0,0,1-.08.16l4.74,4.9Z"/>
    <path class="cls-1" d="M18.27,26.1l-3.2,6,.12.13,6.13-3Z"/>
    <path class="cls-1" d="M11.59,19.19l-.16.08L13.1,31.14h.09l.08,0,3.51-6.6Z"/>
    <polygon class="cls-1" points="19.27 24.22 23.24 28.33 28.37 25.82 27.57 20.17 21.95 19.18"/>
    <path class="cls-1" d="M36.74,19.72l.09-.15L28.5,10.94l-.16.08,1,7.41Z"/>
    <path class="cls-1" d="m27.28 18.05-1-6.75h-0.09-0.09l-3.2 6z"/>
    <path class="cls-1" d="M16.08,34.08l0,.17,11.8,2.09.09-.16L22.8,30.8Z"/>
    <path class="cls-1" d="M30.59,27l1,7.41h.08l.09,0,5.63-10.59-.12-.13Z"/>
    <path class="cls-1" d="M24,2A22,22,0,1,0,46,24,22,22,0,0,0,24,2ZM39.31,24.82l-.09,0L33.59,35.39a3.52,3.52,0,0,1,1,3.16,3.56,3.56,0,0,1-7-.22L15.75,36.25a3.56,3.56,0,1,1-4.66-4.83L9.42,19.55H9.33a3.56,3.56,0,1,1,3.24-5.92L23.35,8.37a3.51,3.51,0,0,1,0-1.21A3.56,3.56,0,1,1,30,9.53l8.33,8.63a3.56,3.56,0,1,1,1,6.66Z"/>
    <path class="cls-1" d="M24.72,29.86l4.74,4.91.16-.08-.95-6.75Z"/>
    <path class="cls-1" d="M36.39,21.72l-6.71-1.18.61,4.35,6.13-3Z"/>
</svg>
