<?xml version="1.0" encoding="UTF-8"?>
<svg version="1.1" viewBox="0 0 48 48" xmlns="http://www.w3.org/2000/svg">
    <path d="m4.7311 2.1346c-0.23688-0.013005-0.511 0.053296-0.76675 0.1909-0.033304 0.017828-0.065734 0.036875-0.097815 0.056794-0.32659 0.2036-0.56017 0.49498-0.62002 0.77621l-1.5161 7.1106c-0.028595 0.13469-0.016567 0.26024 0.036285 0.36602v0.0016l0.0063 0.0095c3.4616 5.1458 7.0041 10.374 10.529 15.581l-4.8387 8.3806a1.6157 1.6157 0 0 0 -0.21456 0.80777 1.5426 0.9625 0 0 0 0.44964 0.68155l15.21 9.4881a1.5426 0.9625 0 0 0 2.1819 0l15.209-9.4881a1.5426 0.9625 0 0 0 0.45121 -0.68155 1.6157 1.6157 0 0 0 -0.21456 -0.80777l-4.8387-8.3806c3.5253-5.2072 7.0678-10.435 10.529-15.581l0.0063-0.0095v-0.0016c0.05285-0.10578 0.06488-0.23133 0.03628-0.36602l-1.5161-7.1105c-0.05985-0.28123-0.29343-0.57261-0.62002-0.77621-0.03209-0.01992-0.06451-0.038967-0.09782-0.056794-0.341-0.18347-0.71401-0.24067-0.9892-0.15146l-6.9165 2.2419c-0.13688 0.044742-0.24174 0.12317-0.30607 0.22876h-0.0016c-2.3935 5.0697-5.0381 10.483-7.77 16.046h-8.1044c-2.732-5.563-5.3766-10.977-7.77-16.046h-0.0016c-0.064297-0.10559-0.16916-0.18402-0.30604-0.22876l-6.9165-2.2419c-0.068798-0.022302-0.14349-0.035106-0.22245-0.039443z" fill="#fff"/>
</svg>
