<?xml version="1.0" encoding="UTF-8"?>
<svg width="48" height="48" version="1.1" viewBox="0 0 12.7 12.7" xmlns="http://www.w3.org/2000/svg">
    <path d="m5.4336 7.5229h2.2813l0.66642 0.43196h-3.0484l-1.3681 4.2292c-1.5117-0.58572-2.9107-1.944-3.4973-3.4706-0.62564-1.479-0.62564-3.3372 0.013592-4.8221 0.59931-1.5274 2.0388-2.9061 3.5708-3.4727 1.2054-0.49907 2.8186-0.55174 4.097-0.15928 1.4671 0.42007 2.8521 1.4717 3.6579 2.8445 0.90045 1.5053 1.1532 3.4179 0.6061 5.1364-0.34574 1.14-1.0589 2.2316-2.0392 3.0127l-1.6841-2.8059 2.3441 1.3069c0.01315 0 0.01998-0.01444 0.01315-0.028037l-3.0704-2.6508 3.9709 0.60611c0.01359 0 0.0191-0.00634 0.0191-0.013154l-0.025483-0.01998-3.7445-1.3129 3.891-0.93996c0.01318 0 0.01318-0.012303 0.0064-0.019096l-3.9913 0.25994 3.1252-2.3662c0.0068-0.01274-0.0204-0.019096-0.02719-0.00595l-3.5105 1.7801 1.9381-3.4192c0-0.00551 0-0.019946-0.012329-0.01274l-2.5323 2.9715 0.4859-3.9042c0-0.007247-0.013587-0.013591-0.026776-0.007247l-1.1646 3.7913-1.0198-3.9047c-0.0068-0.006383-0.020791-0.013591-0.027188 0l0.28079 4.0503-2.4049-3.1299c-0.00809-0.00724-0.013999 0-0.020796 0.00636l1.8192 3.4638-3.4387-1.8791c-0.00638 0-0.019538 0.00724-0.019538 0.01315l3.0577 2.5115-3.9034-0.412c-0.014 0.00724-0.014 0.019096 0 0.025485l3.7844 1.1073-3.7645 1.106c-0.007247 0.00555-0.007247 0.019536 0 0.025482l3.8834-0.45235-3.0513 2.5918c-0.00638 0-0.01315 0.013154 0 0.020789l0.040776-0.01359 2.444-1.2798 0.57383-0.91235h0.65198l-0.45235-0.31983 1.5121-2.4257-0.89195 2.8653 0.00167 0.00135" fill="#fff"/>
</svg>
