<?xml version="1.0" encoding="UTF-8"?>
<svg version="1.1" viewBox="0 0 48 48" xmlns="http://www.w3.org/2000/svg">
    <defs>
        <style>.cls-1{fill:#fff;}</style>
    </defs>
    <path d="m17.272 13.351v21.298h4.347v-8.5078h6.456v-4.0427h-6.456v-4.7659h9.1094v-3.9818zm6.7283-11.351a22 22 0 0 0-22 22 22 22 0 0 0 22 22 22 22 0 0 0 22-22 22 22 0 0 0-22-22zm0 4.5833a17.417 17.417 0 0 1 17.417 17.417 17.417 17.417 0 0 1-17.417 17.417 17.417 17.417 0 0 1-17.417-17.417 17.417 17.417 0 0 1 17.417-17.417z" fill="#fff" stroke-width=".93617"/>
</svg>
