<?xml version="1.0" encoding="UTF-8"?>
<svg data-name="Layer 1" viewBox="0 0 48 48" xmlns="http://www.w3.org/2000/svg">
    <defs>
        <style>.cls-1{fill:#fff;}</style>
    </defs>
    <path class="cls-1" d="M24,2A22,22,0,1,0,46,24,22,22,0,0,0,24,2ZM40.2,25.87H25.9v9.4l4.43-4.42A1.9,1.9,0,1,1,33,33.53L25.34,41.2a1.88,1.88,0,0,1-2.68,0h0L15,33.53a1.9,1.9,0,1,1,2.69-2.68l4.43,4.42v-9.4H7.8A1.9,1.9,0,0,1,5.9,24,17.75,17.75,0,0,1,23.63,6.24h.74A17.75,17.75,0,0,1,42.1,24,1.9,1.9,0,0,1,40.2,25.87Z"/>
    <path class="cls-1" d="m24.37 10h-0.74a13.94 13.94 0 0 0-13.8 12h28.34a13.94 13.94 0 0 0-13.8-12z"/>
</svg>
