<?xml version="1.0" encoding="UTF-8"?>
<svg data-name="Layer 1" viewBox="0 0 48 48" xmlns="http://www.w3.org/2000/svg">
    <defs>
        <style>.cls-1{fill:#fff;}</style>
    </defs>
    <path class="cls-1" d="M33.32,29.13a9.72,9.72,0,0,0,.55-2.91,6.79,6.79,0,0,0-2.21-5.35l-.22-.18s0,0,0,0,0,0,0,0a5.66,5.66,0,0,0-1.75-.79,7.84,7.84,0,0,1,2,7.69A7.61,7.61,0,0,1,29,31.65a15.06,15.06,0,0,0,4.31-2.45Z"/>
    <path class="cls-1" d="M17.15,21.51a6.13,6.13,0,0,0-5.33-.07,3.87,3.87,0,0,0,3.31,1.74.64.64,0,0,1,.46.21.62.62,0,0,1,.16.49,6.1,6.1,0,0,0,0,1.59c.48-1,2-2.95,6.14-3a1.65,1.65,0,0,0,.42-.26A9.14,9.14,0,0,1,17.15,21.51Z"/>
    <path class="cls-1" d="M32.3,19.78l.2.17a8.05,8.05,0,0,1,2.61,6.3A9.69,9.69,0,0,1,35,27.5a10.48,10.48,0,0,0,2.78-8.44v0h0v-.12h0c0-.09-.07-.17-.1-.26l-.12-.25a2.56,2.56,0,0,1-.11-.24l-.12-.24-.12-.24-.12-.22c0-.08-.09-.16-.13-.24L36.81,17l-.13-.23-.13-.2-.14-.22-.12-.19-.15-.23L36,15.75l-.15-.22a1.83,1.83,0,0,1-.13-.16l-.16-.23L35.44,15c0-.08-.11-.15-.17-.23l-.11-.14L35,14.39l-.1-.13-.2-.24-.09-.1-.22-.26,0,0c-.3-.35-.61-.7-.92-1A42,42,0,0,1,30.52,9c-.22-.3-.43-.63-.64-1s-.29-.45-.43-.69l-.13-.24,0,0A9,9,0,0,0,28,11.16a8.14,8.14,0,0,0,2.6,6.47A10.25,10.25,0,0,1,32.3,19.78Z"/>
    <path class="cls-1" d="M26.9,10a11.07,11.07,0,0,1,.41-1.58A12.58,12.58,0,0,0,24.13,15a9.27,9.27,0,0,1,3.61.76A9.13,9.13,0,0,1,26.9,10Z"/>
    <path class="cls-1" d="m17.27 14.07a11.8 11.8 0 0 0-2 1.54 8.56 8.56 0 0 1 2 0.43 9.27 9.27 0 0 1 0-1.97z"/>
    <path class="cls-1" d="M24,2A22,22,0,1,0,46,24,22,22,0,0,0,24,2ZM41.94,27.1l-.06.5v0a18.11,18.11,0,0,1-36-3.06v-.12a.28.28,0,0,0,0-.09,16.07,16.07,0,0,1,.41-3.67,15.33,15.33,0,0,1,2.45-5.52,15.85,15.85,0,0,1,1.7-2,13.84,13.84,0,0,1,1.79-1.54h0a1.75,1.75,0,0,1,1-.43.73.73,0,0,1,.25,0,.64.64,0,0,1,.38.45.5.5,0,0,1,0,.17A14.3,14.3,0,0,0,14.1,15a12.59,12.59,0,0,1,3.76-2.7.62.62,0,0,1,.86.73,7.48,7.48,0,0,0,0,3.73l.31.25c.26.22.52.48,1.05,1l.19.18a14.59,14.59,0,0,0,3.26,2c.92.45,1.14.56,1.16,1v.07a2.85,2.85,0,0,1-1.06,1.54,2.84,2.84,0,0,1-1.67,1c-3.95,0-5,2-5.14,2.46a6.79,6.79,0,0,0,3.77,5.09h0l.25.12.47.19a7.16,7.16,0,0,0,2.09.4,6.61,6.61,0,0,0,3.81-12.38.62.62,0,0,1-.34-.65.62.62,0,0,1,.51-.52,5.91,5.91,0,0,1,2.34.09A8.18,8.18,0,0,0,24,16.26l-.47,0h-.1a7.85,7.85,0,0,0-2.14.45.64.64,0,0,1-.2,0,.62.62,0,0,1-.59-.42.61.61,0,0,1,.38-.79,10,10,0,0,1,1.94-.46,13.68,13.68,0,0,1,1.43-4.5,12.82,12.82,0,0,1,4.84-5.18.47.47,0,0,1,.15-.06h.34a.67.67,0,0,1,.53.55,3.28,3.28,0,0,0,.2.52h0a3.24,3.24,0,0,0,.17.32l.4.65a26.17,26.17,0,0,0,2,2.68c.48.58,1,1.14,1.45,1.68l.43.49,0,0,.42.48,0,0c.28.32.56.65.83,1v0a.64.64,0,0,1,.17-.6.61.61,0,0,1,.72-.11,10.23,10.23,0,0,1,3.8,4.74A18.44,18.44,0,0,1,42,26.92Z"/>
    <path class="cls-1" d="M23.42,38.65h.51a14.38,14.38,0,0,0,13.36-8.14,15.73,15.73,0,0,0,1.37-6.73,13.94,13.94,0,0,1-4.45,6.3.78.78,0,0,1-.2.11,14.46,14.46,0,0,1-8.92,3.41,10.23,10.23,0,0,1-5.17-1.18l-.23-.12a8.65,8.65,0,0,1-5.23-7.91,5.08,5.08,0,0,1-4.06-3,.65.65,0,0,1,.22-.74,7.18,7.18,0,0,1,7.06-.31,8,8,0,0,0,4.57.62,12.83,12.83,0,0,1-2.95-1.88l-.19-.19c-.49-.48-.75-.74-1-.93s-.26-.21-.4-.3l-.35-.23a7.62,7.62,0,0,0-3.45-.69h-.1a.67.67,0,0,1-.51-.24A7,7,0,0,1,12.58,13a12.23,12.23,0,0,0-1.13,1A14.42,14.42,0,0,0,9.9,15.85l-.05.06a14.08,14.08,0,0,0-2.22,5v.11c0,.16-.18.91-.2,1.05v0a20.82,20.82,0,0,0-.24,2.23,3.31,3.31,0,0,0,.06.48v0A17,17,0,0,0,23.42,38.65Z"/>
    <path class="cls-1" d="m38.43 16.18a16.15 16.15 0 0 1 0.65 2.67 2.34 2.34 0 0 1 0 0.26 16.52 16.52 0 0 1-0.66 11.89 15.64 15.64 0 0 1-14.48 8.9h-0.56a18.36 18.36 0 0 1-11.38-4.4 17.69 17.69 0 0 1-3.1-3.38 16.93 16.93 0 0 0 15.1 9.3 16.8 16.8 0 0 0 16.62-14l0.08-0.42v-0.19a17.32 17.32 0 0 0-1.09-8.47 11.18 11.18 0 0 0-1.18-2.16z"/>
</svg>
