<?xml version="1.0" encoding="UTF-8"?>
<svg data-name="Layer 1" viewBox="0 0 48 48" xmlns="http://www.w3.org/2000/svg">
    <defs>
        <style>.cls-1{fill:#fff;}</style>
    </defs>
    <path class="cls-1" d="M24,2A22,22,0,1,0,46,24,22,22,0,0,0,24,2Zm0,40.67C19.51,42.67,6,39.6,6,24a14.86,14.86,0,0,1,6.84-12.57A12,12,0,0,0,13.44,16h.06a14.87,14.87,0,0,1,4.29-3.39,10.77,10.77,0,0,0-.22,2.1,9.27,9.27,0,0,0,.27,2.21,3.52,3.52,0,0,1,.41.36,9.29,9.29,0,0,0,2.2,1.9C22.53,20.38,24,21.07,24,21.07h0s-1,2-2.21,2c-4.94,0-5.93,3.21-5.93,3.21s1,6.64,8,6.64c2.58,0,7.68-1.42,7.68-7.39a7.4,7.4,0,0,0-3.87-6.6,6.24,6.24,0,0,1,4.7,1.37A9.56,9.56,0,0,0,24,15.36l-.59,0a13.24,13.24,0,0,1,6.22-10,20,20,0,0,0,3.13,4.78c2.18,2.47,5,5.45,6.16,8.52a20.55,20.55,0,0,0-1.73-5.33S42,16.15,42,24.78A18.16,18.16,0,0,1,24,42.67Z"/>
</svg>
