<?xml version="1.0" encoding="UTF-8"?>
<svg data-name="Layer 1" viewBox="0 0 48 48" xmlns="http://www.w3.org/2000/svg">
    <defs>
        <style>.cls-1{fill:#fff;}</style>
    </defs>
    <path class="cls-1" d="m31.5 26.14h-15a1.08 1.08 0 0 0 0 2.15h15a1.08 1.08 0 0 0 0-2.15z"/>
    <path class="cls-1" d="m31.5 30.43h-15a1.07 1.07 0 0 0 0 2.14h15a1.07 1.07 0 0 0 0-2.14z"/>
    <path class="cls-1" d="m31.5 21.86h-15a1.07 1.07 0 0 0 0 2.14h15a1.07 1.07 0 0 0 0-2.14z"/>
    <path class="cls-1" d="m31.5 17.57h-15a1.07 1.07 0 0 0 0 2.14h15a1.07 1.07 0 0 0 0-2.14z"/>
    <path class="cls-1" d="M24,2A22,22,0,1,0,46,24,22,22,0,0,0,24,2ZM36.86,36.86A2,2,0,0,1,34.71,39H13.29a2,2,0,0,1-2.15-2.14V13.29a2,2,0,0,1,2.15-2.15h2.14A2,2,0,0,1,17.57,9a2,2,0,0,1,2.14,2.14h8.58a2.14,2.14,0,0,1,4.28,0h2.14a2,2,0,0,1,2.15,2.15Z"/>
</svg>
