<?xml version="1.0" encoding="UTF-8"?>
<svg version="1.1" viewBox="0 0 48 48" xmlns="http://www.w3.org/2000/svg">
    <g transform="translate(-.59648 -.35433)" fill="#fff">
        <path transform="translate(.59628 .35411)" d="m23.402 1.6465c-5.8133 0.0060292-11.628 2.0849-15.506 6.416l-0.85156 0.95117c-0.6443-0.82664-0.96011-1.5453-1.1738-2.9316-2.0252 1.9409-2.5437 5.1419-2.3301 8.1504 4.5e-4 0.0063-4.4e-4 0.01127 0 0.01758-1.3979 2.9358-2.1276 6.1449-2.1367 9.3965 0.00817 0.77287 0.057068 1.5448 0.14648 2.3125 2.47e-4 0.03032-0.00225 0.05343-0.00195 0.08398 0.09089 7.8737 7.2 19.497 20.217 20.26 14.421 0.8445 25.635-8.7585 24.785-28.42l-0.5332 3.4238c-0.20149-1.5162-0.82666-6.2482-1.459-8.0371-1.343-3.7995-2.185-4.2528-2.3125-4.2656 0.47048 1.2913 0.82069 2.5599 0.78516 3.75-0.615-1.4932-1.3796-2.689-2.1726-3.5443-0.54392-0.58471-1.2277-1.2146-1.8274-1.7409-1.8152-1.4162-2.6474-1.9861-4.5754-2.9444-3.7778-1.7572-7.294-2.8644-11.052-2.8778zm2e-3 1.791c2.2503 0.00774 4.4835 0.39128 6.6074 1.1348 0 0 0.0013-1.834e-4 2e-3 0 0.98044 0.28782 2.168 1 2.168 1-0.75944-0.087133-1.4584-0.14197-1.9941-0.14648-0.99617-0.00837-1.5375 0.084259-1.3672 0.12891 4.3543 0.88106 6.0776 1.7064 6.4746 2.2949-1.6198 0.032982-3.1794 0.2279-4.6465 0.66797 5.9241 1.2555 9.2743 4.9854 10.291 9.7031-0.98174-1.9109-1.746-2.167-2.1152-2.3105 0.2802 0.85294 1.0176 4.2846-0.16211 8.9922-0.57757-1.2678-1.0904-1.696-1.6348-1.8789 0.56919 5.1738-0.68638 9.0373-2.3262 10.016 0.1883-1.1748 1.1234-4.2168 0.56445-3.5234-5.543 8.5375-11.382 6.9673-18.021 2.3496 1.9584 0.48622 4.9256 0.44065 6.8984-0.90625 0.57858-0.36024 0.99952-0.69552 1.5117-1.043 0.51222-0.34742 1.2425-0.72032 1.459-0.67774 1.8498 0.36382 1.5901-1.0883 1.1797-1.4023-0.69127-0.92259-2.5133-1.779-4.4336-1.2305-1.8763 0.5246-3.2268 1.9709-6.3184 0.37891-1.6693-1.0538-2.3774-1.9552-2.4453-3.0684s0.74747-2.1717 1.8926-2.0566c1.0634 0.19134 0.52294-0.48542 1.7949 0.03125 0.12161-0.22066-0.09357-1.4886-0.58398-2.6484 1.7514-2.8439 4.5949-1.7078 4.2617-3.4277 0.38747-1.3592-1.7124-1.3844-3-1.2129-0.7199-0.02341-1.2644-0.04269-2.7168-2.2324 0.82184-3.2974 1.8858-3.469 3.1406-4.4883-0.20186-0.51761-5.0585 0.70882-6.1152 2.6094-3.8293-0.39295-4.6312 0.40727-5.2696 0.17578-0.095334-0.10467-0.15372-0.17077-0.24219-0.26758 0.32886-0.37975 0.68531-0.79247 0.98242-1.1309 3.7735-3.7266 8.8606-5.8205 14.164-5.8301z" fill="#fff"/>
    </g>
</svg>
