<?xml version="1.0" encoding="UTF-8"?>
<svg data-name="Layer 1" viewBox="0 0 48 48" xmlns="http://www.w3.org/2000/svg">
    <defs>
        <style>.cls-1{fill:#fff;}</style>
    </defs>
    <path class="cls-1" d="m24 2a22 22 0 1 0 22 22 22 22 0 0 0-22-22zm16.4 26.48c-0.74 0.83-1.22 1.37-2 2.17a1.81 1.81 0 0 1-2.55 0.09 1.93 1.93 0 0 1-0.3-0.35 1.81 1.81 0 0 1 0.19-2.22c0.72-0.77 1.19-1.3 1.91-2.11a3.48 3.48 0 0 0 0.17-3.91l-0.16-0.21a136 136 0 0 0-11.59-11.65 3.47 3.47 0 0 0-4.15 0 137.36 137.36 0 0 0-11.63 11.64 3.45 3.45 0 0 0 0 4.14c3.79 4.26 11.9 11.84 12 11.93a3.54 3.54 0 0 0 3.71-0.3c1.48-1.33 2.89-2.58 4.3-3.93l-4.52-4.77a3.4 3.4 0 0 1 0.22-5h0.06a3.63 3.63 0 0 0 1.3-3 3.39 3.39 0 0 0-0.18-1 3.4 3.4 0 0 0-6.4 0 3.1 3.1 0 0 0-0.18 1 3.66 3.66 0 0 0 1.3 3 3.4 3.4 0 0 1 0.25 5l-1.76 1.81a1.81 1.81 0 0 1-2.6-2.51l1.38-1.41a0.32 0.32 0 0 0 0-0.45 7.25 7.25 0 0 1-2.2-5.5 7.42 7.42 0 0 1 0.37-2 7 7 0 0 1 13.23 0 7.42 7.42 0 0 1 0.37 2 7.22 7.22 0 0 1-2.24 5.53 0.33 0.33 0 0 0 0 0.45l5 5.23a2.42 2.42 0 0 1 0.71 1.73 2.38 2.38 0 0 1-0.72 1.72c-0.82 0.81-1.66 1.6-2.51 2.38l-0.13 0.14-2.59 2.35a6.69 6.69 0 0 1-4.46 1.53 6.7 6.7 0 0 1-4.47-1.6c-3.9-3.47-11.77-11.75-11.94-11.94a7.05 7.05 0 0 1 0-8.91 139.9 139.9 0 0 1 11.94-11.95 7 7 0 0 1 8.92 0 141.49 141.49 0 0 1 11.95 11.94 7.05 7.05 0 0 1 0 8.92 0 0 0 0 1 0 0.02z"/>
</svg>
