<?xml version="1.0" encoding="UTF-8"?>
<svg version="1.1" viewBox="0 0 48 48" xmlns="http://www.w3.org/2000/svg">
    <path d="m31.721 1.0719c-1.6351 2.0276-2.8478 4.4129-3.435 6.9258v0.00781c-0.34295 2.6437-0.05038 4.4644 0.8965 6.5999 0.79435 1.651 2.0285 3.0192 3.3745 4.1858 1.7536 1.6081 2.4455 4.6643 2.4668 6.6018 0 5.65-4.581 10.23-10.23 10.23-0.77092 3.27e-4 -1.5394-0.08615-2.291-0.2578-0.9279-0.1768-1.711-0.4572-2.381-0.7832-1.202-0.7874-2.361-1.67-3.174-2.865 2.0611 0.68515 4.8143 0.70179 6.5922-0.23442 1.003-0.556 1.759-1.02 2.379-1.232 0.3313-0.10752 0.61271-0.1346 1.0157-0.0684 0.7838 0.2612 1.407-0.4971 0.8477-1.283-0.5485-0.785-1.976-1.909-4.096-1.598-1.621 0.2361-3.106 1.388-5.23 0.2734-0.98949-0.54197-1.8597-1.4462-2.4159-2.1918-0.2014-0.3174-0.3571-0.6616-0.4141-1.027-0.11371-0.77264 0.12587-1.3805 0.64846-1.9238 0.22539-0.21028 0.46919-0.28339 0.75001-0.36132 0.2406 0.104 0.7727 0.3741 1.053 0.5391 0.3647 0.2305 0.4805 0.4355 0.4805 0.4355 0.39182-1.0464 0.40098-1.8786 0.37107-2.8829 0.16584-0.2305 0.36727-0.37355 0.6271-0.5235 0.5601-0.3312 1.17-0.6169 1.838-0.918 0.5541-0.2402 1.158-0.4918 1.254-0.5469 0.42002-0.2577 0.75958-0.63116 1.0332-1.0117 0.21988-0.36079 0.31739-0.75965 0.3613-1.207-0.0011-0.27666-0.20031-0.40424-0.3828-0.47651-0.48492-0.1736-1.0114-0.24201-1.4649-0.3223-0.61928-0.07771-1.1976-0.1418-1.7261-0.20119-1.1539-0.2846-1.6344-0.63867-2.0898-1.9429 0.56289-1.756 1.3989-2.9596 3.3881-3.9337 0.1311-0.05527-0.5607-0.3179-1.172-0.2539-2.0117 0.088579-3.5906 0.83672-4.8541 2.0778-1.927-0.6955-3.622-0.7415-5.057-0.4297-0.0035-0.0032-0.0082-0.0085-0.01172-0.01172l0.01367-0.0039c-1.3938-1.4313-1.9115-2.4594-2.0413-4.4258 0 0-0.01951 0.0117-0.02344 0.01367v-0.02148c-1.023 0.9734-1.9372 2.3363-2.3928 3.7178-0.39926 1.4336-0.54149 2.5076-0.61332 3.8141-0.6058 0.6917-1.018 1.278-1.174 1.582-0.7836 1.21-1.648 3.097-2.484 6.08 0.37222-0.81516 0.81737-1.595 1.33-2.33-0.6956 1.584-1.368 4.071-1.502 7.9 0.16887-0.7928 0.38475-1.5748 0.6465-2.342-0.1201 2.554 0.1766 5.719 1.791 9.291 0.9586 2.101 3.165 6.37 8.557 9.699 0 0 1.834 1.365 4.986 2.389 1.8333 0.54811 4.8223 1.0899 6.9592 1.1035 3.8992-0.0332 8.6436-0.5822 10.879-3.5913-1.4549 1.0027-3.625 1.4541-5.2361 1.1914 0.3426-0.0761 12.44-2.814 13.08-9.734-0.58352 1.8488-2.5332 3.0361-3.6878 3.5817 4.818-4.756 7.253-10.53 6.219-17 0 0 0.4145 3.332-1.158 6.74 0.50573-2.4856 0.59565-4.4825 0.30659-6.8261-0.1667-1.157-0.4598-2.346-0.9082-3.553-2.069-5.978-6.537-10.74-6.537-12.39-0.4335 0.5048-0.7712 1.258-0.9629 2.16-2.7845-1.9487-4.7693-4.2165-4.9982-6.4348z" fill="#fff"/>
</svg>
