<?xml version="1.0" encoding="UTF-8"?>
<svg viewBox="0 0 48 48" xmlns="http://www.w3.org/2000/svg">
    <defs>
        <style>.cls-1{fill:#fff;}</style>
    </defs>
    <g data-name="Layer 1">
        <circle class="cls-1" cx="25.65" cy="22.35" r="1.18"/>
        <path class="cls-1" d="M26.53,11.25,25.86,15a5.09,5.09,0,0,1-.2.89,2.31,2.31,0,0,1-.28.54,4.91,4.91,0,0,1-.61.67L5.46,36.43a1.1,1.1,0,0,0,0,1.54L10,42.54a1.1,1.1,0,0,0,1.54,0L30.88,23.23a4.91,4.91,0,0,1,.67-.61,2.31,2.31,0,0,1,.54-.28,5.09,5.09,0,0,1,.89-.2l3.77-.67a11.55,11.55,0,0,0,4.94-2.94L29.47,6.31A11.55,11.55,0,0,0,26.53,11.25ZM24.34,21A1.85,1.85,0,0,1,27,23.66l-2.62,2.62a1.85,1.85,0,0,1-2.62-2.62Z"/>
        <path class="cls-1" d="M45,15a2.48,2.48,0,0,0,0-1.89,6,6,0,0,0-1.4-1.67l-7-7a6,6,0,0,0-1.67-1.4,2.48,2.48,0,0,0-1.89,0,15,15,0,0,0-2.45,2.17L42.78,17.45A15,15,0,0,0,45,15Z"/>
    </g>
</svg>
