<?xml version="1.0" encoding="UTF-8"?>
<svg viewBox="0 0 48 48" xmlns="http://www.w3.org/2000/svg">
    <defs>
        <style>.cls-1{fill:#fff;}</style>
    </defs>
    <g data-name="Layer 1">
        <path class="cls-1" d="M20,4.25a.41.41,0,0,1,.34-.7C27.59,4.62,37.64,14.3,37.64,25.93c0,12.06-8.84,18.91-9.8,18-.66-.66,4.6-4.24,2.94-5.89-1-1-3.83,3.15-5.27,1.71-1.73-1.73,3.73-10.38-.69-14.8,0,0-7.06,7.12-7.06,12.54S23,43.3,22.49,44.36,10.36,41.75,10.36,31.07c0-9.67,11.1-19.83,11.1-23.39A5,5,0,0,0,20,4.25Z"/>
    </g>
</svg>
