<?xml version="1.0" encoding="UTF-8"?>
<svg version="1.1" viewBox="0 0 48 48" xmlns="http://www.w3.org/2000/svg">
    <path d="m24 2a22 22 0 0 0 -22 22 22 22 0 0 0 22 22 22 22 0 0 0 22 -22 22 22 0 0 0 -22 -22zm-4.3047 5.3359a4.6883 4.6883 0 0 1 4.6875 4.6875 4.6883 4.6883 0 0 1 -2.9492 4.3496v5.7891c1.1477-1.1084 2.4598-1.8723 3.75-2.332 1.426-0.50814 2.8153-0.7167 3.9805-0.79102a4.6883 4.6883 0 0 1 4.3418 -2.9277 4.6883 4.6883 0 0 1 4.6875 4.6875 4.6883 4.6883 0 0 1 -4.6875 4.6895 4.6883 4.6883 0 0 1 -4.3535 -2.9609c-0.84539 0.068602-1.8252 0.22979-2.8027 0.57812-2.5471 0.90764-4.916 2.6329-4.916 8.1836v0.33398a4.6883 4.6883 0 0 1 2.9492 4.3516 4.6883 4.6883 0 0 1 -4.6875 4.6895 4.6883 4.6883 0 0 1 -4.6895 -4.6895 4.6883 4.6883 0 0 1 2.9492 -4.3477v-15.252a4.6883 4.6883 0 0 1 -2.9492 -4.3516 4.6883 4.6883 0 0 1 4.6895 -4.6875zm0 2.6758a2.0108 2.0108 0 0 0 -2.0117 2.0117 2.0108 2.0108 0 0 0 2.0117 2.0098 2.0108 2.0108 0 0 0 2.0098 -2.0098 2.0108 2.0108 0 0 0 -2.0098 -2.0117zm13.811 8.7773a2.0108 2.0108 0 0 0 -2.0098 2.0098 2.0108 2.0108 0 0 0 2.0098 2.0117 2.0108 2.0108 0 0 0 2.0117 -2.0117 2.0108 2.0108 0 0 0 -2.0117 -2.0098zm-13.811 15.176a2.0108 2.0108 0 0 0 -2.0117 2.0098 2.0108 2.0108 0 0 0 2.0117 2.0117 2.0108 2.0108 0 0 0 2.0098 -2.0117 2.0108 2.0108 0 0 0 -2.0098 -2.0098z" fill="#fff"/>
</svg>
