<?xml version="1.0" encoding="UTF-8"?>
<svg version="1.1" viewBox="0 0 48 48" xmlns="http://www.w3.org/2000/svg">
    <path d="m13.741 44c-1.926-0.07342-1.7514-1.6037-1.7514-2.3977-1.2742 0-2.3969-1.0285-2.3969-2.4584v-19.157h28.815v19.157c0 1.4292-1.0903 2.4584-2.4079 2.4584 0 0.9147 0.16118 2.3224-1.724 2.3977h-2.1433c-1.9079-0.07583-1.7421-1.6037-1.7421-2.3977h-12.793c0 0.79403 0.23853 2.3219-1.7368 2.3977zm2.2327-15.287v-5.4403s0-0.87791-0.79278-0.87791c-0.78347 0-0.78347 0.87791-0.78347 0.87791v5.4403s0 0.89738 0.78347 0.89738c0.79278 0 0.79278-0.89738 0.79278-0.89738zm-6.381-10.321v-12.255c0-1.0678 1.1895-2.1373 2.1446-2.1373l24.309-1e-7c1.2953 0 2.361 1.0533 2.361 2.3781v12.014zm6.381-8.7705s3.2e-5 -0.87709-0.79278-0.87709c-0.78347 0-0.78347 0.87709-0.78347 0.87709v5.4997s0 0.86778 0.78347 0.86778c0.79278 0 0.79278-0.86778 0.79278-0.86778z" fill="#fff"/>
</svg>
