<?xml version="1.0" encoding="UTF-8"?>
<svg viewBox="0 0 48 48" xmlns="http://www.w3.org/2000/svg">
    <path d="m4.4277 9.4609v25.344l0.5-1.0684v-23.775h38.197l0.017578 16.77 0.61719-0.35352-0.13867-16.916h-39.193zm5.9902 2.8477a2.9462 2.9462 0 0 0-2.9473 2.9473 2.9462 2.9462 0 0 0 2.9473 2.9453 2.9462 2.9462 0 0 0 2.9453-2.9453 2.9462 2.9462 0 0 0-2.9453-2.9473zm4.0938 7.3105-10.457 16.631-0.023438 1.9512 39.857 0.003906 0.035156-11.396-5.1758 3.3066-9.584-9.1953-10.848 7.9727-3.8047-9.2734z" fill="#fff"/>
</svg>
