<?xml version="1.0" encoding="UTF-8"?>
<svg version="1.1" viewBox="0 0 48 48" xmlns="http://www.w3.org/2000/svg">
    <defs>
        <mask id="mask2959" maskUnits="userSpaceOnUse">
            <rect x="5" y="5" width="38" height="38" rx="2" fill="#fff"/>
            <path d="m34.423 28.416a10.438 10.375 0 0 1-10.436 10.375 10.438 10.375 0 0 1-10.439-10.372 10.438 10.375 0 0 1 10.432-10.378 10.438 10.375 0 0 1 10.443 10.368l-10.437 0.0069z" stroke="#000" stroke-linecap="round" stroke-linejoin="round" stroke-width="2" style="paint-order:stroke fill markers"/>
            <path d="m24.824 16.131c-0.26719-3.7944 3.8155-6.8088 5.4274-5.8283 0.92247 0.59961-0.59924 5.9476-5.8961 5.5939" stroke="#000" stroke-linejoin="round" stroke-width="1px" style="paint-order:normal"/>
            <path d="m23.275 15.742c-5.1204 0.26117-8.1978-5.0947-6.9666-6.7955 0.92229-1.0701 7.0544 1.2151 6.7434 7.3832" stroke="#000" stroke-linejoin="round" stroke-width="1.2089px" style="paint-order:normal"/>
        </mask>
    </defs>
    <rect x="5" y="5" width="38" height="38" rx="2" fill="#fff" mask="url(#mask2959)"/>
    <path d="m20.754 20.148a0.70709 0.67084 0 0 1-0.70698 0.67084 0.70709 0.67084 0 0 1-0.70721-0.67062 0.70709 0.67084 0 0 1 0.70674-0.67106 0.70709 0.67084 0 0 1 0.70745 0.67039l-0.70709 4.44 10-4z" fill="none" stroke="#fff" stroke-linecap="round" stroke-linejoin="round" stroke-width=".81517" style="paint-order:stroke fill markers"/>
    <path d="m19.572 33.46a0.70709 0.67084 0 0 1-0.70698 0.67084 0.70709 0.67084 0 0 1-0.70721-0.67062 0.70709 0.67084 0 0 1 0.70674-0.67106 0.70709 0.67084 0 0 1 0.70745 0.67039l-0.70709 4.45 10-4z" fill="none" stroke="#fff" stroke-linecap="round" stroke-linejoin="round" stroke-width=".81517" style="paint-order:stroke fill markers"/>
    <path d="m24.888 37.57a9.1368 9.1908 0 0 1-9.6484-6.7341 9.1368 9.1908 0 0 1 4.9134-10.729 9.1368 9.1908 0 0 1 11.358 2.9999 9.1368 9.1908 0 0 1-0.96022 11.773" fill="none" stroke="#fff" stroke-linecap="round" stroke-linejoin="round" stroke-width=".7" style="paint-order:stroke fill markers"/>
    <path d="m29.23 26.224a0.70709 0.67084 0 0 1-0.70698 0.67084 0.70709 0.67084 0 0 1-0.70721-0.67062 0.70709 0.67084 0 0 1 0.70674-0.67106 0.70709 0.67084 0 0 1 0.70745 0.67039l-0.70709 4.45 10-4z" fill="none" stroke="#fff" stroke-linecap="round" stroke-linejoin="round" stroke-width=".81517" style="paint-order:stroke fill markers"/>
    <path d="m23.986 28.416 6.6246 6.5927" fill="none" stroke="#fff" stroke-linecap="round" stroke-width="2"/>
    <path d="m24.861 35.365a7.0226 7.0511 0 0 1-7.6632-4.8764 7.0226 7.0511 0 0 1 3.5217-8.3952 7.0226 7.0511 0 0 1 8.8287 2.0981 7.0226 7.0511 0 0 1-0.59986 9.0896" fill="none" stroke="#fff" stroke-linecap="round" stroke-linejoin="round" stroke-width=".7" style="paint-order:stroke fill markers"/>
    <path d="m24.897 33.276a5.0174 4.9154 0 0 1-5.6199-3.0602 5.0174 4.9154 0 0 1 2.0678-5.9644 5.0174 4.9154 0 0 1 6.3598 0.92602 5.0174 4.9154 0 0 1 0.20788 6.2957" fill="none" stroke="#fff" stroke-linecap="round" stroke-linejoin="round" stroke-width=".7" style="paint-order:stroke fill markers"/>
    <path d="m25.273 28.416a1.2879 1.2427 0 0 1-1.2877 1.2427 1.2879 1.2427 0 0 1-1.2881-1.2422 1.2879 1.2427 0 0 1 1.2872-1.2431 1.2879 1.2427 0 0 1 1.2885 1.2418l-1.2879 8.24 10-4z" fill="none" stroke="#fff" stroke-linecap="round" stroke-linejoin="round" stroke-width="1.4973" style="paint-order:stroke fill markers"/>
</svg>
