<?xml version="1.0" encoding="UTF-8"?>
<svg version="1.1" viewBox="0 0 48 48" xmlns="http://www.w3.org/2000/svg">
    <rect x="8" y="4" width="32" height="40" rx="2" display="none" fill="#fff"/>
    <path d="m8 7.9475v16.935l0.58984-0.028114 0.66016-0.030122 0.21289-0.65264c0.39533-1.2109 1.1623-4.0991 1.5117-5.6931 0.91737-4.1851 1.444-8.423 1.6113-12.969l0.05469-1.5101h-2.3203c-2.3203 0-2.3203 0-2.3203 3.9475zm5.4277-3.9475-0.05273 1.8374c-0.16672 5.8873-1.2159 12.379-2.8926 17.882-0.16087 0.528-0.29297 1.0036-0.29297 1.0583 0 0.05463 0.19043 0.10041 0.42383 0.10041 0.4088 0 0.44284-0.0251 0.93359-0.68276 1.9557-2.6208 3.5123-5.6139 4.6172-8.88 0.68357-2.0207 1.2923-4.5596 1.5781-6.5807 0.13163-0.93085 0.3485-3.5781 0.34961-4.2572l2e-3 -0.47794zm5.4883 0-0.05469 1.3414c-0.28106 6.7363-2.4561 13.411-6.0898 18.692-0.27837 0.40459-0.48403 0.73698-0.45703 0.73698 0.02699 0 0.44443-0.24886 0.92774-0.55224 3.678-2.3087 6.5357-5.8563 8.3574-10.372 1.1197-2.7756 1.7917-5.8173 1.9355-8.7715l0.05273-1.0744zm5.5176 0v0.50003c0 0.81774 0.23181 2.9692 0.43945 4.0805 1.0897 5.8321 3.8902 10.881 7.875 14.197 0.66585 0.55418 2.7568 1.9813 2.9121 1.9881 0.03476 0.0015-0.2592-0.47822-0.65234-1.0663-3.263-4.8811-5.2201-10.633-5.793-17.021-0.048238-0.53783-0.089444-1.3806-0.089844-1.8736v-0.80526zm5.4512 0 0.05664 1.1306c0.34635 7.1227 2.6655 13.922 6.4922 19.039 0.51211 0.68481 0.54281 0.70887 0.95312 0.70887 0.23339 0 0.42383-0.04414 0.42383-0.0984 0-0.05419-0.19781-0.77102-0.43945-1.5924-0.89346-3.0372-1.6937-6.7795-2.0781-9.7174-0.09776-0.74697-0.21716-1.6516-0.26562-2.0101-0.16787-1.2419-0.34323-3.703-0.40039-5.6228l-0.05469-1.8374zm5.4766 0 0.05469 1.4559c0.1958 5.1332 0.79652 9.6664 1.8789 14.169 0.38999 1.6225 1.0121 3.8741 1.3379 4.8456l0.13672 0.40765h1.2305v-16.929c0-3.9009 0-3.9492-2.3193-3.9492zm-27.361 25.985v14.015h0.64844c0.39443 0 1.2059-0.07095 1.8027-0.15864 1.871-0.27488 3.4759-0.71993 4.7773-1.3234l0.5918-0.27311-0.54687-0.84743c-2.0304-3.1459-3.0863-6.4669-3.3945-10.679l-0.05273-0.73297h-1.9473zm28.186 0-0.09961 1.0583c-0.17046 1.8123-0.18317 1.9006-0.41406 3.0704-0.50935 2.5808-1.4876 5.0176-2.8848 7.1891l-0.60547 0.94182 0.5918 0.27311c1.7821 0.82627 4.4563 1.4314 6.4922 1.4679l0.73438 0.012049v-14.013h-1.873z" fill="#fff"/>
</svg>
