<?xml version="1.0" encoding="UTF-8"?>
<svg width="48" height="48" version="1.1" viewBox="0 0 12.7 12.7" xmlns="http://www.w3.org/2000/svg">
    <g>
        <g transform="matrix(.26458 0 0 .26458 -49.134 -230.67)">
            <path d="m187.7 890.8c0-9.879 5.5472-12.209 14.869-12.209h15.568c11.745 0 13.376 4.2383 13.376 10.81v1.0734h-10.163c0-3.3553-1.9114-3.7743-5.2182-3.7743h-11.233c-5.2217 0-6.5721 1.2569-6.5721 7.0361v4.1933c0 5.7826 1.3504 7.0396 6.5721 7.0396h11.046c2.7043 0 5.4052-0.41899 5.4052-3.6808v-0.97993h-12.864v-6.9911h23.214v9.602c0 9.692-5.0347 10.159-16.687 10.159h-12.445c-9.3215 0-14.869-2.3304-14.869-12.209z" fill="#fff"/>
        </g>
    </g>
</svg>
