<?xml version="1.0" encoding="UTF-8"?>
<svg version="1.1" viewBox="0 0 48 48" xmlns="http://www.w3.org/2000/svg">
    <path d="m24 3.6305a22 22 0 0 0 -22 22 22 22 0 0 0 1.1914 7.0742h6.1836a16.261 16.261 0 0 1 -1.6348 -7.0742 16.261 16.261 0 0 1 16.26 -16.26 16.261 16.261 0 0 1 16.26 16.26 16.261 16.261 0 0 1 -1.6426 7.0742h6.1855a22 22 0 0 0 1.1973 -7.0742 22 22 0 0 0 -22 -22z" fill="#fff"/>
    <rect transform="rotate(-8.3553)" x="-1.9688" y="28.171" width="9.8205" height="16.657" ry="2" fill="#fff"/>
    <rect transform="matrix(-.98939 -.14531 -.14531 .98939 0 0)" x="-49.459" y="21.196" width="9.8205" height="16.657" ry="2" fill="#fff"/>
</svg>
