<?xml version="1.0" encoding="UTF-8" standalone="no"?>
<svg xmlns="http://www.w3.org/2000/svg" version="1.1" viewBox="0 0 48 48">
  <path
    style="fill:#ffffff;"
     d="M 24 2 A 22 22 0 0 0 2 24 A 22 22 0 0 0 24 46 A 22 22 0 0 0 46 24 A 22 22 0 0 0 24 2 z M 13.378906 18.501953 C 15.361709 18.501953 16.898923 19.393528 17.728516 21.191406 L 15.349609 22.1875 C 15.002876 21.270582 14.277573 20.660156 13.265625 20.660156 C 11.619282 20.660156 10.765625 22.203182 10.765625 23.703125 C 10.765625 25.203069 11.655777 26.720703 13.304688 26.720703 C 14.388552 26.720703 15.22611 26.153854 15.333984 25.046875 L 13.279297 25.046875 L 13.279297 23.074219 L 18.25 23.074219 C 18.224316 24.4817 18.108675 25.69303 17.263672 26.884766 C 16.323638 28.199785 14.903353 28.775391 13.292969 28.775391 C 10.26226 28.775391 8.1542969 26.720776 8.1542969 23.6875 C 8.1542969 20.556623 10.273713 18.501953 13.378906 18.501953 z M 19.539062 18.783203 L 22.021484 18.783203 L 23.992188 23.96875 L 26.070312 18.783203 L 28.583984 18.783203 L 30.052734 28.486328 L 27.53125 28.486328 L 26.824219 22.894531 L 26.794922 22.894531 L 24.464844 28.486328 L 23.460938 28.486328 L 21.236328 22.894531 L 21.210938 22.894531 L 20.398438 28.486328 L 17.888672 28.486328 L 19.539062 18.783203 z M 30.052734 18.783203 L 33.115234 18.783203 L 34.681641 21.09375 L 36.138672 18.783203 L 38.931641 18.783203 L 36.195312 23.341797 L 39.664062 28.472656 L 36.931641 28.472656 L 34.861328 25.552734 L 33.115234 28.472656 L 30.052734 28.472656 L 33.28125 23.335938 L 30.052734 18.783203 z "
     id="circle2" />
</svg>
