<?xml version="1.0" encoding="UTF-8" standalone="no"?>
<!-- Created with Inkscape (http://www.inkscape.org/) -->

<svg
   xmlns:dc="http://purl.org/dc/elements/1.1/"
   xmlns:cc="http://creativecommons.org/ns#"
   xmlns:rdf="http://www.w3.org/1999/02/22-rdf-syntax-ns#"
   xmlns:svg="http://www.w3.org/2000/svg"
   xmlns="http://www.w3.org/2000/svg"
   xmlns:sodipodi="http://sodipodi.sourceforge.net/DTD/sodipodi-0.dtd"
   xmlns:inkscape="http://www.inkscape.org/namespaces/inkscape"
   id="SVGRoot"
   version="1.1"
   viewBox="0 0 48 48"
   height="48px"
   width="48px"
   sodipodi:docname="googlefi.svg"
   inkscape:version="0.92.4 (5da689c313, 2019-01-14)"
   enable-background="new">
  <defs
     id="defs3732">
    <filter
       inkscape:collect="always"
       style="color-interpolation-filters:sRGB"
       id="filter1015">
      <feBlend
         inkscape:collect="always"
         mode="overlay"
         in2="BackgroundImage"
         id="feBlend1017" />
    </filter>
  </defs>
  <sodipodi:namedview
     id="base"
     pagecolor="#000000"
     bordercolor="#666666"
     borderopacity="1.0"
     inkscape:pageopacity="0"
     inkscape:pageshadow="2"
     inkscape:zoom="10.666667"
     inkscape:cx="19.532003"
     inkscape:cy="17.477531"
     inkscape:document-units="px"
     inkscape:current-layer="layer2"
     showgrid="false"
     inkscape:window-width="1366"
     inkscape:window-height="704"
     inkscape:window-x="0"
     inkscape:window-y="27"
     inkscape:window-maximized="1"
     inkscape:grid-bbox="true" />
  <metadata
     id="metadata3735">
    <rdf:RDF>
      <cc:Work
         rdf:about="">
        <dc:format>image/svg+xml</dc:format>
        <dc:type
           rdf:resource="http://purl.org/dc/dcmitype/StillImage" />
        <dc:title />
      </cc:Work>
    </rdf:RDF>
  </metadata>
  <g
     inkscape:groupmode="layer"
     id="layer2"
     inkscape:label="Layer 2"
     style="display:inline;opacity:1;filter:url(#filter1015)">
    <path
       style="opacity:1;fill:#ffffff"
       d="M 24,2 A 22,22 0 0 0 2,24 22,22 0 0 0 24,46 22,22 0 0 0 46,24 22,22 0 0 0 24,2 Z m -8.625,8.03125 a 3.9374998,3.9374998 0 0 1 0.03906,0.002 h 17.154297 a 3.9374998,3.9374998 0 0 1 0.05664,-0.002 3.9374998,3.9374998 0 0 1 3.9375,3.9375 3.9374998,3.9374998 0 0 1 -3.9375,3.9375 h -17.25 -0.1875 v -0.0098 a 3.9374998,3.9374998 0 0 1 -3.75,-3.927734 3.9374998,3.9374998 0 0 1 3.75,-3.931641 v -0.0039 h 0.130859 a 3.9374998,3.9374998 0 0 1 0.05664,-0.002 z m 0.09375,10.359375 a 3.9843748,3.9843748 0 0 1 0.630859,0.05273 h 5.394532 A 3.9843748,3.9843748 0 0 1 22.125,20.390625 3.9843748,3.9843748 0 0 1 26.109375,24.375 3.9843748,3.9843748 0 0 1 22.125,28.359375 3.9843748,3.9843748 0 0 1 21.511719,28.306641 h -2.109375 v 5.015625 a 3.9843748,3.9843748 0 0 1 0.05078,0.615234 3.9843748,3.9843748 0 0 1 -3.984375,3.984375 3.9843748,3.9843748 0 0 1 -3.960938,-3.599609 h -0.09375 v -9.957032 h 0.07031 a 3.9843748,3.9843748 0 0 1 3.984375,-3.974609 z m 17.0625,0.04687 a 3.9374998,3.9374998 0 0 1 3.931641,3.751953 h 0.02734 v 9.958985 h -0.02734 A 3.9374998,3.9374998 0 0 1 32.53125,37.96875 3.9374998,3.9374998 0 0 1 28.597656,34.148438 h -0.11914 v -9.958985 h 0.125 A 3.9374998,3.9374998 0 0 1 32.53125,20.4375 Z"
       id="circle1027"
       inkscape:connector-curvature="0" />
  </g>
</svg>
