<?xml version="1.0" encoding="UTF-8" standalone="no"?>
<!-- Created with Inkscape (http://www.inkscape.org/) -->

<svg
   xmlns:dc="http://purl.org/dc/elements/1.1/"
   xmlns:cc="http://creativecommons.org/ns#"
   xmlns:rdf="http://www.w3.org/1999/02/22-rdf-syntax-ns#"
   xmlns:svg="http://www.w3.org/2000/svg"
   xmlns="http://www.w3.org/2000/svg"
   xmlns:sodipodi="http://sodipodi.sourceforge.net/DTD/sodipodi-0.dtd"
   xmlns:inkscape="http://www.inkscape.org/namespaces/inkscape"
   id="SVGRoot"
   version="1.1"
   viewBox="0 0 48 48"
   height="48px"
   width="48px"
   sodipodi:docname="googlefi.svg"
   inkscape:version="0.92.4 (5da689c313, 2019-01-14)">
  <defs
     id="defs3732" />
  <sodipodi:namedview
     id="base"
     pagecolor="#000000"
     bordercolor="#666666"
     borderopacity="1.0"
     inkscape:pageopacity="0"
     inkscape:pageshadow="2"
     inkscape:zoom="21.333334"
     inkscape:cx="19.27073"
     inkscape:cy="19.29321"
     inkscape:document-units="px"
     inkscape:current-layer="layer2"
     showgrid="false"
     inkscape:window-width="1366"
     inkscape:window-height="704"
     inkscape:window-x="0"
     inkscape:window-y="27"
     inkscape:window-maximized="1"
     inkscape:grid-bbox="true" />
  <metadata
     id="metadata3735">
    <rdf:RDF>
      <cc:Work
         rdf:about="">
        <dc:format>image/svg+xml</dc:format>
        <dc:type
           rdf:resource="http://purl.org/dc/dcmitype/StillImage" />
        <dc:title></dc:title>
      </cc:Work>
    </rdf:RDF>
  </metadata>
  <g
     inkscape:groupmode="layer"
     id="layer2"
     inkscape:label="Layer 2"
     style="display:inline">
    <path
       style="fill:#ffffff;opacity:1"
       d="M 24 2 A 22 22 0 0 0 2 24 A 22 22 0 0 0 24 46 A 22 22 0 0 0 46 24 A 22 22 0 0 0 24 2 z M 15.558594 9.8789062 A 4.093318 4.093318 0 0 1 16.214844 9.9375 L 32.101562 9.9375 A 4.093318 4.093318 0 0 1 32.4375 9.921875 A 4.093318 4.093318 0 0 1 36.53125 14.015625 A 4.093318 4.093318 0 0 1 32.4375 18.109375 A 4.093318 4.093318 0 0 1 31.755859 18.046875 L 15.929688 18.046875 A 4.093318 4.093318 0 0 1 15.558594 18.066406 A 4.093318 4.093318 0 0 1 11.464844 13.972656 A 4.093318 4.093318 0 0 1 15.558594 9.8789062 z M 15.421875 20.28125 A 4.093318 4.093318 0 0 1 16.103516 20.34375 L 21.328125 20.34375 A 4.093318 4.093318 0 0 1 22.03125 20.28125 A 4.093318 4.093318 0 0 1 26.125 24.375 A 4.093318 4.093318 0 0 1 22.03125 28.46875 A 4.093318 4.093318 0 0 1 21.349609 28.40625 L 19.546875 28.40625 L 19.546875 33.695312 A 4.093318 4.093318 0 0 1 19.5625 34.03125 A 4.093318 4.093318 0 0 1 15.46875 38.125 A 4.093318 4.093318 0 0 1 11.375 34.03125 A 4.093318 4.093318 0 0 1 11.390625 33.734375 L 11.390625 25.078125 A 4.093318 4.093318 0 0 1 11.328125 24.375 A 4.093318 4.093318 0 0 1 15.421875 20.28125 z M 32.53125 20.28125 A 4.093318 4.093318 0 0 1 36.625 24.375 A 4.093318 4.093318 0 0 1 36.609375 24.671875 L 36.609375 33.601562 A 4.093318 4.093318 0 0 1 36.625 33.9375 A 4.093318 4.093318 0 0 1 32.53125 38.03125 A 4.093318 4.093318 0 0 1 28.4375 33.9375 A 4.093318 4.093318 0 0 1 28.453125 33.640625 L 28.453125 24.710938 A 4.093318 4.093318 0 0 1 28.4375 24.375 A 4.093318 4.093318 0 0 1 32.53125 20.28125 z "
       id="circle855" />
  </g>
</svg>
