<?xml version="1.0" encoding="UTF-8"?>
<svg version="1.1" viewBox="0 0 48 48" xmlns="http://www.w3.org/2000/svg">
    <path d="m6 13.681c-1.108 0-2 0.892-2 2v25.123c0 1.108 0.892 2 2 2h36c1.108 0 2-0.892 2-2v-25.123c0-1.108-0.892-2-2-2zm9.2969 4.4531a1.1342 1.0217 0 0 1 0.5332 0.13672l8.7363 4.543 2.0566 1.0703-2.6797 3.0762-9.1504-8.7324a1.1342 1.0217 0 0 1 0.50391 -0.09375zm-0.93164 0.40039 8.4609 9.709-8.4609 9.709a1.1342 1.0217 0 0 1 -0.23633 -0.625v-18.17a1.1342 1.0217 0 0 1 0.23633 -0.62305zm14.35 6.4375 4.5879 2.3867a1.1342 1.0217 0 0 1 0 1.7695l-4.5898 2.3867-3.4258-3.2715zm-4.7734 4.5566 2.6797 3.0742-2.0566 1.0684-8.7363 4.5449a1.1342 1.0217 0 0 1 -1.0352 0.04102z" fill="#fff" stroke-width=".954"/>
    <path d="m17.666 5.1958c-3.2365 0-5.9043 2.6678-5.9043 5.9043v3.3926h4v-3.3926c0-1.0897 0.8146-1.9043 1.9043-1.9043h12.668c1.0897 0 1.9043 0.8146 1.9043 1.9043v3.3926h4v-3.3926c0-3.2365-2.6678-5.9043-5.9043-5.9043z" fill="#fff"/>
</svg>
