<?xml version="1.0" encoding="UTF-8"?>
<svg version="1.1" viewBox="0 0 48 48" xmlns="http://www.w3.org/2000/svg" xmlns:osb="http://www.openswatchbook.org/uri/2009/osb">
    <path d="m32.107 36.929c-0.7978 0.71979-1.6495 1.3209-2.5604 1.7499l-0.21106 0.83992c-0.19239 0.76973-14.148 0.76973-14.346 0l-0.20898-0.81838c-0.85156-0.40409-1.6511-0.96164-2.4043-1.6211a16.891 2.6976 0 0 0-6.3633 2.1094 16.891 2.6976 0 0 0 16.891 2.6972 16.891 2.6976 0 0 0 16.891-2.6972 16.891 2.6976 0 0 0-7.6875-2.2597z" fill="#fff"/>
    <path d="m37.238 26.695c4.216-2.8999 4.3574 0.68135 1.3581 2.7321-0.48257 0.32991-1.3418 0.6346-2.5753 0.72554 0.62743-1.3067 1.0248-2.7988 1.2172-3.4576zm-31.023-6.8447c-0.25812 6.3164 3.23 15.784 8.9437 18.495l0.19925 0.77674c0.18745 0.7308 13.437 0.7308 13.62 0l0.19925-0.79732c2.0965-0.98732 3.8927-2.8875 5.3161-5.2089 0 0 2.7854-0.18824 4.2588-0.9401 6.8766-3.5092 6.6594-11.528-0.82157-8.7425 0.1825-1.256 0.25796-2.4685 0.21712-3.583 0 1.2809-7.1482 2.3191-15.966 2.3191-8.8179 0-15.966-1.0382-15.966-2.3191z" fill="#fff"/>
    <ellipse cx="22.182" cy="19.24" rx="15.966" ry="2.319" fill="#fff"/>
    <path d="m23.787 2.6329c-15.899 10.006 9.7293 7.0572-3.7133 14.394 18.582-7.5894-8.5818-4.8379 3.7133-14.394z" fill="#fff"/>
    <path d="m32.107 36.929c-0.7978 0.71979-1.6495 1.3209-2.5604 1.7499l-0.21106 0.83992c-0.19239 0.76973-14.148 0.76973-14.346 0l-0.20898-0.81838c-0.85156-0.40409-1.6511-0.96164-2.4043-1.6211a16.891 2.6976 0 0 0-6.3633 2.1094 16.891 2.6976 0 0 0 16.891 2.6972 16.891 2.6976 0 0 0 16.891-2.6972 16.891 2.6976 0 0 0-7.6875-2.2597z" fill="#fff"/>
    <path d="m37.238 26.695c4.216-2.8999 4.3574 0.68135 1.3581 2.7321-0.48257 0.32991-1.3418 0.6346-2.5753 0.72554 0.62743-1.3067 1.0248-2.7988 1.2172-3.4576zm-31.023-6.8447c-0.25812 6.3164 3.23 15.784 8.9437 18.495l0.19925 0.77674c0.18745 0.7308 13.437 0.7308 13.62 0l0.19925-0.79732c2.0965-0.98732 3.8927-2.8875 5.3161-5.2089 0 0 2.7854-0.18824 4.2588-0.9401 6.8766-3.5092 6.6594-11.528-0.82157-8.7425 0.1825-1.256 0.25796-2.4685 0.21712-3.583 0 1.2809-7.1482 2.3191-15.966 2.3191-8.8179 0-15.966-1.0382-15.966-2.3191z" fill="#fff"/>
    <ellipse cx="22.182" cy="19.24" rx="15.966" ry="2.319" fill="#fff"/>
    <path d="m23.787 2.6329c-15.899 10.006 9.7293 7.0572-3.7133 14.394 18.582-7.5894-8.5818-4.8379 3.7133-14.394z" fill="#fff"/>
</svg>
