<?xml version="1.0" encoding="UTF-8"?>
<svg enable-background="new" version="1.1" viewBox="0 0 48 48" xmlns="http://www.w3.org/2000/svg">
    <defs>
        <style>.a{fill:#3396cd;}.b{fill:#fff;}</style>
    </defs>
    <g transform="matrix(1.1618 0 0 1.1618 -3.8599 -4.467)" fill="#fff">
        <path class="st0" d="m20.935 28.879c-0.05559-2.5124-1.8343-3.8408-4.0131-3.8408-1.195 0-2.2734 0.4002-3.0071 1.1784-0.7337-0.77817-1.812-1.1784-3.0071-1.1784-2.1789 0-3.9575 1.334-4.0131 3.8464v0.01667 5.7307c0 0.52804 0.42799 0.95048 0.95048 0.95048h0.90045c0.088934 0 0.16119-0.07226 0.16119-0.16119v-6.5255c0.038911-1.2395 0.91713-1.8954 2.001-1.8954 1.0839 0 1.9621 0.65588 2.001 1.8954v5.7307c0 0.52804 0.42799 0.95048 0.95048 0.95048h0.90045c0.08893 0 0.16119-0.07226 0.16119-0.16119v-6.5255c0.03892-1.2395 0.91713-1.8954 2.001-1.8954 1.0839 0 1.9621 0.65588 2.001 1.8954v5.7307c0 0.52804 0.42799 0.95048 0.95048 0.95048h0.90045c0.08894 0 0.16119-0.07226 0.16119-0.16119v-6.5255c0.0054 0.0054 0 0 0-0.0054zm20.271-3.6796h-1.5285c-0.42243 0-0.81708 0.21122-1.0561 0.56139l-1.6897 2.5013c-0.22233 0.32794-0.70035 0.32794-0.92268 0l-1.6897-2.5013c-0.23345-0.35018-0.63365-0.56139-1.0561-0.56139h-1.5285c-0.0945 0-0.15008 0.10561-0.10004 0.18342l3.0126 4.4689c0.21678 0.32238 0.21678 0.74482 0 1.0672l-3.0126 4.4689c-0.05559 0.07782 0.0054 0.18343 0.10004 0.18343h1.5285c0.42243 0 0.81708-0.21122 1.0561-0.56139l1.6897-2.5013c0.22233-0.32794 0.70035-0.32794 0.92268 0l1.6897 2.5013c0.23345 0.35018 0.63365 0.56139 1.0561 0.56139h1.5285c0.0945 0 0.15008-0.10561 0.10004-0.18343l-3.0182-4.4634c-0.21678-0.32239-0.21678-0.74482 0-1.0672l3.0126-4.4689c0.05559-0.07782 0-0.18898-0.0945-0.18898zm-10.261 0h-0.90045c-0.45578 0-0.83931 0.32238-0.9338 0.75038-0.8004-0.61142-1.8065-0.92268-2.8903-0.92268-2.6347 0-4.7746 1.8343-4.7746 5.2971s2.1344 5.2971 4.7746 5.2971c1.0783 0 2.0733-0.30571 2.8737-0.90601 0.04447 0.48358 0.45023 0.8671 0.95048 0.8671h0.90045c0.08894 0 0.16119-0.07226 0.16119-0.16119v-10.061c-0.0054-0.08894-0.07226-0.16119-0.16119-0.16119zm-4.7246 8.4542c-1.573 0-2.8514-1.1506-2.8514-3.3239 0-2.1733 1.2784-3.3239 2.8514-3.3239s2.8514 1.1506 2.8514 3.3239c0 2.1733-1.2784 3.3239-2.8514 3.3239z" stroke-width=".055583"/>
        <path d="m19.465 24.055h-2.9515v-4.2089h-1.9094v4.2089h-3.0271v-10.857h3.0213v4.0517h1.9094v-4.0517h2.9515v10.857zm13.529 0.04657c3.0213 0 5.4896-2.5149 5.4896-5.5769 0-3.1086-2.4683-5.5129-5.4896-5.5129-3.0621 0-4.6106 2.2238-4.9831 3.1319 0-1.3447-1.3447-2.9515-2.9049-2.9515h-5.0413v10.863h4.6921c1.9094 0 3.2542-1.63 3.2542-3.0621 0.42496 0.88486 1.9269 3.1086 4.9831 3.1086zm-8.6099-4.4126c0.43661 0 0.78589 0.42496 0.78589 0.90814 0 0.50646-0.34929 0.93143-0.78589 0.93143h-1.5019v-1.8396zm0-4.075c0.43661 0 0.78589 0.42496 0.78589 0.90814s-0.34929 0.90814-0.78589 0.90814h-1.5019v-1.8163zm1.9851 2.9107c0.34928-0.02328 0.91978-0.42496 1.1352-0.66364-0.0815 0.29107-0.0815 1.2109 0 1.5019-0.23868-0.35511-0.78589-0.77425-1.1352-0.83828zm3.8712 0c0-1.531 1.2458-2.7652 2.7768-2.7594 1.5369 0.01165 2.7594 1.2632 2.7419 2.8001-0.02328 1.5136-1.2458 2.7302-2.7594 2.7302-1.5252 0-2.7594-1.2341-2.7594-2.771zm2.7535 2.1772c1.1759 0 2.1656-0.96636 2.1656-2.1772 0-1.2109-0.98964-2.1656-2.1656-2.1656-1.2109 0-2.1772 0.95471-2.1772 2.1656 0 1.2109 0.96636 2.1772 2.1772 2.1772z" stroke-width=".058214"/>
    </g>
    <style type="text/css">.st0{fill:url(#XMLID_5_);}
	.st1{clip-path:url(#XMLID_6_);fill:url(#SVGID_1_);}
	.st2{clip-path:url(#XMLID_6_);fill:url(#SVGID_2_);}
	.st3{clip-path:url(#XMLID_6_);fill:url(#SVGID_3_);}</style>
</svg>
