<?xml version="1.0" encoding="UTF-8"?>
<svg version="1.1" viewBox="0 0 48 48" xmlns="http://www.w3.org/2000/svg">
    <path d="m7 5c-1.108 0-2 0.892-2 2v34c0 1.108 0.892 2 2 2h34c1.108 0 2-0.892 2-2v-34c0-1.108-0.892-2-2-2h-34zm0.43555 7.9082h7.6309v7.9512h2.2012v5.9688h-2.2012v8.2637h-7.6309v-22.184zm11.248 0h7.6309v5.9141c0.83784 0.56206 1.4747 1.4765 1.6875 2.5762 0.80808-0.25017 1.5666-0.3512 2.2441-0.31055-0.054627-2.3485-0.058594-5.0414-0.058594-8.1797h7.1328l-0.017578 6.123h3.2617v6.6152h-3.2617s-0.001131 3.348 3.2617 3.4551v5.9902c-6.5465 0-8.9595-1.6592-9.8516-7.4062-1.2458 0.4716-2.8054 0.78195-4.3984 1.209v6.1973h-7.6309v-22.184zm7.6309 15.986v-10.072c-1.2812-0.8595-3.0385-0.88693-4.5098 0.5625-1.8647 1.837 0.29612 5.2896 2.0742 10.314 0.78626-0.33691 1.6125-0.58406 2.4355-0.80469zm4.3984-1.209c1.3309-0.50384 2.3011-1.2036 2.4805-2.5059 0.35526-2.5786-0.93074-3.9708-2.9473-4.0918 0.06129 2.635 0.19083 4.8197 0.4668 6.5977z" fill="#fff"/>
</svg>
