<?xml version="1.0" encoding="UTF-8"?>
<svg version="1.1" viewBox="0 0 48 48" xmlns="http://www.w3.org/2000/svg">
    <path d="m28.741 8.4219c-7.0845-0.21884-10.635 5.6621-10.635 5.6621s-6.6061-1.9039-9.2188 4.8027c3.6266-3.9228 8.0117-2.2559 8.0117-2.2559-0.21564 0.32436-0.3895 0.83814-0.50586 1.4746 0.9891-0.88813 2.2917-1.5383 3.9395-1.7988 1.8554-4.1698 5.992-7.3907 11.66-7.3828-1.1563-0.31517-2.2399-0.47069-3.252-0.50195zm4.1465 0.70312c-8.7925 0.16767-11.402 7.6543-11.402 7.6543-7.4171 0.31728-8.9652 7.8624-6.2832 11.773-0.75216-7.3739 5.4805-8.668 5.4805-8.668s-1.0108 5.0492 2.6484 9.4141c0.79009-0.50538 1.5738-1.0439 2.3574-1.5938-0.99772-3.0039-0.24028-6.6865 3.2363-8.8984 0 0 6.1658-2.7154 3.9629-9.6816zm-7.1992 18.58c0.66581 2.0046 2.1058 3.71 4.0684 4.4629 1.178 0.45193 2.3477 0.83948 3.7031 2.5586 0.03799 0.0482 0.09659 0.04631 0.15625 0.03125 0 0 3.9455-1.1674 5.5586 2.9902-3.2288-2.7793-8.4005-0.70691-8.0918 4.0645-2.8588-3.6471 0.95312-6.3281 0.95312-6.3281 0.03371-0.03693 0.06917-0.11009 0.03516-0.14648-1.7636-1.887-3.5305-2.1931-4.0586-2.4531-2.0907-1.0294-3.5859-2.2789-4.6816-3.5859-0.20984 0.13422-0.41943 0.2716-0.63086 0.39844 1.2942 1.3223 2.9643 2.4766 5.0664 3.3535-2.86-0.21924-5.0555-1.1512-6.7344-2.4629-1.2214 0.55723-2.4896 0.91435-3.8496 0.9082-5.6436-0.02551-15.182-7.4961-15.182-7.4961 0 12.15 9.8497 22 22 22 12.15 0 22-9.8497 22-22 0 0-9.3497-0.80553-13.836 0.26562-2.3356 0.55766-4.4157 1.9934-6.4766 3.4395zm-4.6562 2.8828c0.56493-0.25773 1.1195-0.56162 1.668-0.89062-2.4455-2.4985-3.5219-5.6079-3.4434-8.6582-0.81795 0.3977-1.8238 1.0387-2.6523 2.1387 0.57496 2.629 1.9171 5.4487 4.4277 7.4102z" fill="#fff"/>
</svg>
