<?xml version="1.0" encoding="UTF-8"?>
<svg version="1.1" viewBox="0 0 48 48" xmlns="http://www.w3.org/2000/svg">
    <path d="m20.069 2.0943c-8.6687 0.18759-17.75 4.2629-18.014 17.646 1.1598-2.9624 14.779-16.236 17.631-3.4355v4.6191c0.52253 5.9415 4.4646 7.8162 4.3008 9.8652 0.06852 1.0411 2.5353 2.3619 2.7383 5.1172 0.09829 0.69445 3.2644 1.0827 3.6055-0.8457-4.8878-10.411-4.1962-14.021-3.5488-17.686 0.56834-1.5757 1.5918-2.7682 3.0977-3.2656 1.3679-0.35727 2.4514 3.2814 3.6621 5.125 0.91316 0.70147 2.1766 0.58568 3.4355 0.94141 1.932 1.0881 2.8529 0.6412 3.7227-0.57226 0.06225-1.8158 1.5082-3.246 2.252-4.0254l1.5723-4.7363c1.0164-2.0059 1.2813-3.5606 1.4219-5.041-1.5075 0.14676-3.0159 0.6317-4.5234 1.6641-0.99682-0.60651-2.3985-0.94308-3.9238-1.1973-0.28566-1.7384-1.0499-2.6421-2.043-3.1426l-1.125 2.3105c-2.5915-1.7775-8.3305-3.4702-14.262-3.3418zm-11.725 12.828c-1.382 0.98124-2.652 2.1005-3.6855 3.166 0.29032 0.13698 0.57107 0.32106 0.83398 0.46875 1.2248 0.82898 2.2742 2.0706 3.8008 2.3281 0.51004 0.09664 1.0818 0.05734 1.4688-0.32812 0.45168-0.40166 0.02271-0.98176-0.34375-1.2637-0.41523-0.34971-0.8902-0.62256-1.375-0.86328-0.73287-1.0197-0.74518-2.2923-0.69922-3.5078zm19.342 3.8477c-0.51239 2.4702-0.61625 5.3057 1.8398 10.418 0.83811-0.73002 1.5694-1.5262 2.043-2.4141 0.79577-1.4071 0.26317-2.9527-0.36914-4.332-0.52318-0.95396-0.58569-2.0918-1.6543-2.8418-0.53653-0.39462-1.1756-0.64714-1.8594-0.83008zm-23.445 0.019531c-0.79355 0.83688-1.4325 1.6177-1.8203 2.2227a20.404 20.404 0 0 0 -0.36719 3.4883 20.404 20.404 0 0 0 7.9043 16.113c8.2081 7.1832 23.828 6.7525 28.262 0.58203 0.36629-1.6779 0.52436-2.8397 0.58594-4.5215a20.404 20.404 0 0 0 4.0566 -12.174 20.404 20.404 0 0 0 -0.71875 -5.2168c-0.36025 0.46261-0.70574 0.97561-0.92774 1.5742a19.176 18.603 0 0 1 0.41797 3.6426 19.176 18.603 0 0 1 -1.9609 8.1426c-0.31274-0.51722-0.93545-0.81893-1.5195-0.4043-1.0595 0.66827-1.4543 1.9132-1.8301 3.0352-0.66611 1.137-2.0423 1.504-3.1914 1.9648-1.3095 0.4224-2.6901 1.4273-2.7344 2.9258 0.66888 0.01233 1.3391 0.0053 2.0078-0.02539-15.749 8.2877-22.21-11.536-23.641-14.213-1.5619-2.8053-3.4383-1.1613-3.7227 0.4043-0.33258 2.2891-0.2454 4.3511 0.14648 6.2168a19.176 18.603 0 0 1 -1.9062 -8.0469 19.176 18.603 0 0 1 0.95898 -5.7109zm9.2715 0.31055c-0.18281 0.24315-0.24964 0.5448-0.19141 0.82812 0.36283 0.82862 1.153 1.461 1.7168 2.1934 0.8993 0.96309 0.88384 2.2222 1.1719 3.3691 0.23755 1.0095 0.65284 2.268 1.9785 2.5723 0.99544 0.23062 1.8399-0.22661 2.6855-0.62891-0.10607-0.15487-0.20444-0.33086-0.30664-0.49609-0.88167-1.1152-1.7632-2.4931-2.2441-4.3555-0.21319-0.01402-0.42395-0.05366-0.61914-0.12305-1.9045-0.56309-2.9053-2.1611-4.1914-3.3594z" fill="#fff"/>
</svg>
