<?xml version="1.0" encoding="UTF-8"?>
<svg viewBox="0 0 48 48" xmlns="http://www.w3.org/2000/svg">
    <defs>
        <style>.cls-1{fill:#2b2b2b;}.cls-2{fill:#fff;}</style>
    </defs>
    <g data-name="Layer 2">
        <rect class="cls-1" x="-281.64" y="-350.1" width="674.7" height="426.15"/>
        <rect class="cls-1" x="-226.29" y="-350.1" width="674.7" height="426.15"/>
        <rect class="cls-1" x="-281.64" y="-296.7" width="674.7" height="426.15"/>
        <rect class="cls-1" x="-226.29" y="-296.7" width="674.7" height="426.15"/>
        <rect class="cls-1" x="-281.64" y="-405.17" width="674.7" height="426.15"/>
        <rect class="cls-1" x="-226.29" y="-405.17" width="674.7" height="426.15"/>
        <rect class="cls-1" x="-280.8" y="-352.25" width="674.7" height="426.15"/>
    </g>
    <g data-name="Layer 1">
        <path class="cls-2" d="M24,2A22,22,0,1,0,46,24,22,22,0,0,0,24,2ZM36.5,26.5h-5v5h5v5h-5v-5h-5v5h-5v-5h-5v5h-5v-5h5v-5h-5v-10h5v-5h15v5h5Z"/>
        <rect class="cls-2" x="26.5" y="16.5" width="5" height="5"/>
        <rect class="cls-2" x="16.5" y="16.5" width="5" height="5"/>
    </g>
</svg>
