<?xml version="1.0" encoding="UTF-8"?>
<svg viewBox="0 0 48 48" xmlns="http://www.w3.org/2000/svg">
    <path d="m30.125 24.992 4.3194 5.746c0.35819 0.47696 0.37851 1.2697 0.04496 1.7641l-0.21839 0.32267c-0.33244 0.49327-1.0011 1.1793-1.485 1.5247l-0.5194 0.36793c-0.48309 0.34457-1.2656 0.332-1.7373-0.02866l-5.7047-4.3576c-0.47172-0.36088-1.2447-0.36088-1.7167 0l-5.7045 4.3576c-0.47226 0.36088-1.2588 0.37858-1.7454 0.04115l-0.37716-0.26074c-0.4869-0.33935-1.1651-1.0172-1.504-1.5061l-0.32541-0.47013c-0.33894-0.48805-0.32432-1.2778 0.03225-1.7548l4.3254-5.7487c0.35656-0.47718 0.35656-1.2547 0-1.7314l-4.3254-5.7503c-0.35655-0.47696-0.3701-1.264-0.02845-1.7519l0.36767-0.52332c0.34031-0.48783 1.0212-1.1616 1.5111-1.4963l0.32107-0.22003c0.4896-0.33634 1.2761-0.31423 1.7484 0.04477l5.7045 4.3578c0.47199 0.36066 1.245 0.36066 1.7167 0l5.7047-4.3578c0.47171-0.35927 1.2745-0.40732 1.7861-0.10374l0.59662 0.35515c0.51128 0.30328 1.1637 0.97948 1.4512 1.5018l0.21025 0.38247c0.28612 0.52082 0.22922 1.3379-0.12897 1.8148l-4.3194 5.749c-0.35818 0.47667-0.35818 1.2558 0 1.7314zm-6.0884-22.939c-12.066 0-21.848 9.8551-21.848 22.012 0 12.158 9.7814 22.014 21.848 22.014 12.067 0 21.848-9.8565 21.848-22.014 0-12.156-9.7814-22.012-21.848-22.012z" fill="#fff" fill-rule="evenodd"/>
</svg>
