<?xml version="1.0" encoding="UTF-8"?>
<svg viewBox="0 0 48 48" xmlns="http://www.w3.org/2000/svg">
    <defs>
        <style>.cls-1{fill:#fff;}</style>
    </defs>
    <g data-name="Layer 1">
        <path class="cls-1" d="M35.25,30.32a.57.57,0,1,0-1,.6l3.94,6.35a.57.57,0,0,0,.49.27.67.67,0,0,0,.3-.08.59.59,0,0,0,.18-.79Z"/>
        <path class="cls-1" d="M24,31.37a.57.57,0,0,0-.57.57v7.22a.57.57,0,0,0,1.14,0V31.94A.57.57,0,0,0,24,31.37Z"/>
        <path class="cls-1" d="M12.32,30.13a.58.58,0,0,0-.79.19L7.59,36.67a.57.57,0,0,0,.18.79.64.64,0,0,0,.3.08.55.55,0,0,0,.48-.27l3.95-6.35A.59.59,0,0,0,12.32,30.13Z"/>
        <path class="cls-1" d="M22.27,15.27a.74.74,0,1,0-.74.74A.74.74,0,0,0,22.27,15.27Z"/>
        <path class="cls-1" d="M25.2,16.71A2.91,2.91,0,0,1,24,17a3.17,3.17,0,0,1-1.2-.3A.57.57,0,0,0,22,17a.58.58,0,0,0,.24.77,4.26,4.26,0,0,0,1.73.44,4.26,4.26,0,0,0,1.73-.44.57.57,0,0,0-.53-1Z"/>
        <path class="cls-1" d="M26.47,14.53a.74.74,0,1,0,.74.74A.74.74,0,0,0,26.47,14.53Z"/>
        <path class="cls-1" d="M33.59,17.09a9.62,9.62,0,0,0-19.18,0C7.26,18.2,3,20.37,3,23c0,4.26,10.82,6.55,21,6.55S45,27.21,45,23C45,20.37,40.74,18.2,33.59,17.09ZM24,21.87c-4.6,0-8.49-1.81-8.49-4a8.49,8.49,0,1,1,17,0C32.49,20.06,28.6,21.87,24,21.87Z"/>
    </g>
</svg>
