<?xml version="1.0" encoding="UTF-8"?>
<svg version="1.1" viewBox="0 0 48 48" xmlns="http://www.w3.org/2000/svg">
    <path d="m7 5c-1.108 0-2 0.892-2 2v34c0 1.108 0.892 2 2 2h34c1.108 0 2-0.892 2-2v-34c0-1.108-0.892-2-2-2h-34zm27.852 2.9141h3.5762c0.9194 0 1.6582 0.7388 1.6582 1.6582v3.5762c0 0.9194-0.7388 1.6582-1.6582 1.6582h-3.5762c-0.9194 0-1.6582-0.7388-1.6582-1.6582v-3.5762c0-0.9194 0.7388-1.6582 1.6582-1.6582zm-10.852 6.8926a9.1924 9.1924 0 0 1 9.1934 9.1934 9.1924 9.1924 0 0 1 -9.1934 9.1934 9.1924 9.1924 0 0 1 -9.1934 -9.1934 9.1924 9.1924 0 0 1 9.1934 -9.1934z" fill="#fff"/>
</svg>
