<?xml version="1.0" encoding="UTF-8"?>
<svg viewBox="0 0 48 48" xmlns="http://www.w3.org/2000/svg">
    <defs>
        <style>.cls-1{fill:#fff;}</style>
    </defs>
    <g data-name="Layer 1">
        <path class="cls-1" d="M8.5,8.5h31v31H8.5ZM5,41a2,2,0,0,0,2,2H41a2,2,0,0,0,2-2V7a2,2,0,0,0-2-2H7A2,2,0,0,0,5,7Z"/>
        <path class="cls-1" d="M24,35.75a1.25,1.25,0,0,1-1-.49L15.25,25.15a1.25,1.25,0,0,1,1-2h3.08l-6.81-8.88a1.25,1.25,0,0,1,1-2h21a1.25,1.25,0,0,1,1,2l-6.81,8.88h3.08a1.25,1.25,0,0,1,1,2L25,35.26A1.25,1.25,0,0,1,24,35.75ZM18.78,25.64,24,32.45l5.22-6.81H26.15a1.26,1.26,0,0,1-1-2L32,14.75H16l6.82,8.88a1.26,1.26,0,0,1-1,2Z"/>
    </g>
</svg>
