<?xml version="1.0" encoding="UTF-8"?>
<svg version="1.1" viewBox="0 0 48 48" xmlns="http://www.w3.org/2000/svg">
    <path d="m13.092 4c-0.60436 0-1.0918 0.446-1.0918 1v38c0 0.554 0.48743 1 1.0918 1h21.816c0.60436 0 1.0918-0.446 1.0918-1v-38c0-0.554-0.48743-1-1.0918-1h-21.816zm7.6074 1.4004h6.6016v0.59961h-6.6016v-0.59961zm-6.6992 1.5996h20v35h-20v-35z" fill="#fff" stroke-width=".86603"/>
    <path d="m25.16 17-2.4613 0.23881v10.272l2.4353-0.37159v-4.3795l3.2735 4.8574 2.5663-0.82296-3.352-4.6715 3.3782-4.4061-2.6186-0.61023-3.2474 4.4059zm-5.5792 2.5031c-0.02779 0.0029-0.05464 0.01534-0.07551 0.03666l-0.96603 0.97892c-0.04061 0.0413-0.04827 0.1053-0.01832 0.15528l1.131 1.888c-0.2006 0.3418-0.36138 0.71032-0.47628 1.0991l-2.0764 0.43773c-0.05776 0.01214-0.09939 0.064-0.09939 0.12409v1.3844c0 0.05854 0.03952 0.10926 0.09519 0.1229l2.0153 0.49926c0.10747 0.45026 0.27401 0.87707 0.49412 1.2694l-1.1665 1.8029c-0.03255 0.05036-0.02574 0.11676 0.01631 0.15921l0.96569 0.97892c0.04062 0.04107 0.10402 0.04909 0.15355 0.0189l1.828-1.1252c0.35906 0.21 0.7463 0.37526 1.1556 0.48733l0.4265 2.0784c0.01202 0.05889 0.06337 0.10074 0.12226 0.10074h1.3661c0.05743 0 0.10755-0.03972 0.12126-0.09682l0.50235-2.0826c0.42188-0.1154 0.82089-0.28739 1.1887-0.50693l1.8014 1.1971c0.04953 0.03307 0.11504 0.02642 0.15708-0.01619l0.96603-0.97892c0.04087-0.04142 0.04817-0.10543 0.01816-0.15528l-0.65759-1.0984-0.21275 0.06818c-0.03101 0.0098-0.06483-0.0017-0.08308-0.02915 0 0-0.41944-0.62233-0.96115-1.4258-0.64758 1.2845-1.9651 2.1644-3.4865 2.1644-2.1616 0-3.9141-1.7762-3.9141-3.9672 0-1.6117 0.9485-2.9978 2.3101-3.6187v-1.0234c-0.24781 0.08787-0.48738 0.1938-0.71493 0.31943-1.73e-4 -1.74e-4 -3.27e-4 -6.48e-4 -9.17e-4 -9.27e-4l-1.8438-1.2256c-0.02483-0.01647-0.0536-0.02303-0.0814-0.02011z" fill="#fcfcfc" stroke-width=".086689"/>
</svg>
