<?xml version="1.0" encoding="UTF-8"?>
<svg version="1.1" viewBox="0 0 48 48" xmlns="http://www.w3.org/2000/svg">
    <path d="m24 2a22 22 0 0 0-22 22 22 22 0 0 0 22 22 22 22 0 0 0 22-22 22 22 0 0 0-22-22zm7.25 9a6.75 6.75 0 0 1 6.75 6.75 6.75 6.75 0 0 1-6.75 6.75 6.75 6.75 0 0 1-3.0293-0.7207l-1.2207 1.2207 9 9v3h-3l-9-9v3h-3v3h-3l-3 3h-3v-3l9-9-9-9v-3h3l9 9 1.2246-1.2246a6.75 6.75 0 0 1-0.72461-3.0254 6.75 6.75 0 0 1 6.75-6.75zm2.75 5a2 2 0 0 0-2 2 2 2 0 0 0 2 2 2 2 0 0 0 2-2 2 2 0 0 0-2-2z" fill="#fff"/>
</svg>
