<?xml version="1.0" encoding="UTF-8"?>
<svg version="1.1" viewBox="0 0 48 48" xmlns="http://www.w3.org/2000/svg">
    <path d="m7 5c-1.11 0-2 0.892-2 2v34c0 1.11 0.892 2 2 2h34c1.11 0 2-0.892 2-2v-34c0-1.11-0.892-2-2-2h-34zm6.71 4l2.72 2.72a12 12 0 0 1 1.58 -1.11 12 12 0 0 1 6.28 -1.6 12 12 0 0 1 5.72 1.6 12 12 0 0 1 1.59 1.1l2.7-2.7 1.41 1.41-2.69 2.69a12 12 0 0 1 2.93 6.9h-2.34a9.67 9.67 0 0 0 -4.78 -7.37 9.67 9.67 0 0 0 -9.67 0 9.67 9.67 0 0 0 -4.77 7.37h-2.34a12 12 0 0 1 2.93 -6.9l-2.69-2.69 1.41-1.41zm6.29 6a1.5 1.5 0 0 1 1.5 1.5 1.5 1.5 0 0 1 -1.5 1.5 1.5 1.5 0 0 1 -1.5 -1.5 1.5 1.5 0 0 1 1.5 -1.5zm8 0a1.5 1.5 0 0 1 1.5 1.5 1.5 1.5 0 0 1 -1.5 1.5 1.5 1.5 0 0 1 -1.5 -1.5 1.5 1.5 0 0 1 1.5 -1.5zm-16 6.5h24v3h-24v-3zm0 4.5h8.88a4 4 0 0 0 -0.883 2.5 4 4 0 0 0 0.0371 0.5h-8.04v-3zm15.1 0h8.88v3h-8.04a4 4 0 0 0 0.0352 -0.5 4 4 0 0 0 -0.879 -2.5zm-3.12 0.268a2.25 2.25 0 0 1 2.25 2.25 2.25 2.25 0 0 1 -0.879 1.78l1.06 3.7h-4.86l1.06-3.7a2.25 2.25 0 0 1 -0.879 -1.78 2.25 2.25 0 0 1 2.25 -2.25zm-12 4.23h9.15l-0.9 3h-8.25v-3zm14.8 0h9.15v3h-8.25l-0.9-3zm-14.8 4.5h24v3h-24v-3z" fill="#fff"/>
</svg>
