<?xml version="1.0" encoding="UTF-8"?>
<svg width="48" height="48" version="1.1" viewBox="0 0 12.7 12.7" xmlns="http://www.w3.org/2000/svg">
    <g>
        <path d="m0 11.741v-1.3921c0.52926-0.2183 1.3256-0.49536 1.9617-0.49799-0.19799-0.16785-0.29302-0.34731-0.40556-0.51469 0.11356-0.044387 0.18626-0.067542 0.24657-0.11926-0.3951 0.074806-0.47618 0.051044-0.56934 0.0015255 0.069701-0.20373 0.065515-0.44643-0.04307-1.2807-0.23315-1.7913 0.096622-2.5394 0.47025-3.1759 0.38393-0.65402 0.85439-0.91124 0.94308-0.97549-0.012096-0.10105 0.13213-0.29922 0.17168-0.36027 0.18214 0.00227 0.31323 0.064871 0.4752 0.15013-0.064171-0.086777-0.10076-0.086902-0.094832-0.12133l0.10773-0.19475s-0.20252-0.017812-0.21258-0.040564c-0.00582-0.013157 0.00836-0.048344 0.00836-0.048344s0.076855 0.00741 0.084575-0.034084c-0.10804-0.012172-0.15879 0.011566-0.17474-0.057246l0.051643-0.017471s-0.00124-0.24383-0.02485-0.40084c-0.05934-0.39467-0.023237-0.61582 0.094419-0.92082 0.10779-0.27942 0.23824-0.51848 0.48973-0.6396 0.052379-0.089249 0.30418-0.35159 0.62186-0.29763 0.11695-0.042714 0.36608-0.085878 0.54258 0.11505 0.098808-0.08672 0.17265-0.10915 0.27472-0.093211-0.087081 0.016077-0.11758 0.031534-0.15476 0.063446 0.49298-0.010263 0.64412 0.18404 0.74273 0.41177 0.36508 0.38866 0.61578 0.72306 0.53361 1.2164l-0.032902-0.1727c0.00608 0.13633-0.00492 0.28835-0.054689 0.35672 0.00466-0.10627-0.013483-0.13718-0.013483-0.13718s-0.025343 0.20765-0.18933 0.33764c0.038385-0.077321 0.068063-0.13105 0.068622-0.15849-0.028298 0.069938-0.10699 0.10916-0.10699 0.10916s0.05318-0.098408 0.037539-0.14391c0 0-0.067776 0.090917-0.11551 0.14468-0.084244 0.091877-0.16357 0.26796-0.047471 0.5805 0.036812 0.099095-0.048518 0.17049-0.16911 0.17049-0.030776 0-0.082107-0.00308-0.082107-0.00308s-0.00161 0.045615-0.00161 0.08407c0 0.080702 0.00477 0.084724-0.023014 0.12456-0.020227 0.028993-0.055268 0.014088-0.078281 0.037262-0.031792 0.032014-0.00499 0.062248-0.037216 0.094388-0.060475 0.060315-0.082881 0.013577-0.13348 0.068628-0.044389 0.048292 0.011112 0.14511-0.1006 0.21405-0.18738 0.11562-0.5706-0.038492-0.83573-0.23768-0.04888 0.034417-0.072765 0.074896-0.11239 0.11568 0 0 0.072157 0.064035 0.10317 0.089026 0.1305 0.10515 0.09809 0.15458 0.23661 0.45026 0.094747 0.20224 0.25115 0.50801 0.3526 0.66434 0.040163 0.061892 0.079487 0.083338 0.14045 0.1566 0.067549 0.081179 0.11427 0.1432 0.11435 0.18162 9.05e-5 0.041039 0.06147 0.060473 0.10049 0.089324 0.039022 0.02885 0.05849 0.076516 0.066506 0.1166 0.011238 0.056189 0.00869 0.068546 0.039767 0.073921 0.2235 0.038652 0.26144 0.28473 0.22926 0.31946l-0.15077 0.16274 0.077302-0.039037 0.077303-0.039037c0.11232 0.098377 0.13418 0.13191 0.20169 0.17712 0.036882-8.992e-4 0.18427-0.092291 0.39092-0.17523 0.64765-0.25994 1.0268-0.54442 1.0676-0.62881 0.029919-0.061843 0.053652-0.14059 0.067336-0.20901l-0.13425-0.00175-0.040696-0.039398 1.3205-1.5976 0.85003 0.011519 0.045212 0.069647c-0.32905 0.37952-0.93925 1.0931-0.93925 1.0931 0.00392 0.101-0.062103 0.25084-0.148 0.33989 0.073731 0.1507-0.041804 0.25507-0.097656 0.33816 0.11801 0.13874-0.22156 0.42297-0.60863 0.56051-0.08809 0.031301-0.15944 0.058281-0.21776 0.096289-0.07627 0.049703-0.13956 0.12904-0.27447 0.2519-0.15089 0.13741-0.19327 0.19618-0.30149 0.25511 0.14674 0.11291 0.21235 0.31286 0.294 0.46924 0.045136 0.1868 0.20069 0.37377 0.22931 0.41428 0.04156 0.058833 0.089719 0.19139 0.16746 0.33043 0.028921 0.051729 0.079405 0.1197 0.11075 0.17106 0.0497 0.081426 0.067912 0.19833 0.11589 0.24803 0.16614 0.043182 0.3384 0.46236 0.32721 0.58226-0.075111 0.07184-0.11293 0.088213-0.19179 0.16309 0.058153-0.0028 0.09265-0.02417 0.14263-0.038849 0 0 0.24498 0.5212 0.32422 0.61877 0.17215 0.21196 0.25431 0.36625 0.70351 0.65109 0.40914 0.25944 0.57103 0.37262 0.87737 0.4564 0.20302 0.05552 0.26863 0.09781 0.33352 0.09652 0.12118-0.0024 0.23776-0.07056 0.24759 0.09142 0.0093 0.15319-0.12207 0.22693-0.25052 0.2541 0.93804 0.16763 1.9159 0.12884 2.5878-0.61988 0 0.30188 0.0087 0.79204 1e-5 0.99864 0 0.54846-0.43045 0.94464-0.88778 0.94464l-5.4002-0.008798c-3.1147 2e-3 -5.4979 0.008397-5.561 0.0088-0.40695 0-0.851-0.39804-0.851-0.95931zm7.6551-1.1495c0.0041117-0.090208-0.45205-0.62144-0.59794-0.81889-0.073847 0.065195-0.11328 0.10528-0.15877 0.12039-0.16086-0.024716-0.18395-0.11403-0.26296-0.22673-0.059999-0.085592-0.12552-0.16138-0.15186-0.23557-0.014934-0.042068 0.023268-0.10954-0.0041193-0.1591-0.026585-0.04811-0.14311-0.20471-0.29658-0.35627-0.11765-0.11618-0.14956-0.22844-0.22272-0.35938l-0.041289 0.063015c-0.022709 0.034658-0.052323 0.060519-0.065281 0.063015-0.073498 0.014159-0.14058 0.088216-0.24222 0.15557-0.091933 0.060915-0.17369 0.1055-0.25132 0.14137-0.13554 0.062625-0.17122 0.095164-0.42965 0.33541-0.49459 0.42212-0.63961 0.47609-0.9543 0.68292 1.5702 0.25228 2.4177 0.62145 3.6486 0.95698-0.026862-0.13474-0.014786-0.22921 0.030448-0.36273zm-2.8157-3.4978-0.069277-0.058457s-0.11258 0.085609-0.14225 0.07254c-0.095357-0.041994-0.31518-0.27911-0.31417-0.32007 3.813e-4 -0.0154-3.616e-4 -0.039459-3.616e-4 -0.039459s-0.083522 0.015493-0.093378-0.00582c-0.015262-0.033001-0.043572-0.018684-0.043572-0.018684-0.12229 0.62071-0.1381 0.76146-0.10297 0.79661 0.040806 0.040824 0.23363-0.081311 0.76598-0.42665z" fill="#fff" stroke-width=".024805"/>
    </g>
</svg>
