<?xml version="1.0" encoding="UTF-8" standalone="no"?>
<!-- Created with Inkscape (http://www.inkscape.org/) -->

<svg
   xmlns:dc="http://purl.org/dc/elements/1.1/"
   xmlns:cc="http://creativecommons.org/ns#"
   xmlns:rdf="http://www.w3.org/1999/02/22-rdf-syntax-ns#"
   xmlns:svg="http://www.w3.org/2000/svg"
   xmlns="http://www.w3.org/2000/svg"
   xmlns:sodipodi="http://sodipodi.sourceforge.net/DTD/sodipodi-0.dtd"
   xmlns:inkscape="http://www.inkscape.org/namespaces/inkscape"
   id="SVGRoot"
   version="1.1"
   viewBox="0 0 48 48"
   height="48px"
   width="48px"
   sodipodi:docname="kusc.svg"
   inkscape:version="0.92.4 (5da689c313, 2019-01-14)">
  <defs
     id="defs3732" />
  <sodipodi:namedview
     id="base"
     pagecolor="#000000"
     bordercolor="#666666"
     borderopacity="1.0"
     inkscape:pageopacity="0"
     inkscape:pageshadow="2"
     inkscape:zoom="30.16989"
     inkscape:cx="18.347952"
     inkscape:cy="25.668623"
     inkscape:document-units="px"
     inkscape:current-layer="layer3"
     showgrid="false"
     inkscape:window-width="1366"
     inkscape:window-height="704"
     inkscape:window-x="0"
     inkscape:window-y="27"
     inkscape:window-maximized="1"
     inkscape:grid-bbox="true" />
  <metadata
     id="metadata3735">
    <rdf:RDF>
      <cc:Work
         rdf:about="">
        <dc:format>image/svg+xml</dc:format>
        <dc:type
           rdf:resource="http://purl.org/dc/dcmitype/StillImage" />
        <dc:title />
      </cc:Work>
    </rdf:RDF>
  </metadata>
  <g
     inkscape:groupmode="layer"
     id="layer3"
     inkscape:label="Layer 3"
     style="display:inline">
    <text
       xml:space="preserve"
       style="font-style:normal;font-weight:normal;font-size:40px;line-height:1.25;font-family:sans-serif;letter-spacing:0px;word-spacing:0px;fill:#000000;fill-opacity:1;stroke:none"
       x="8.0625"
       y="22.875002"
       id="text58"><tspan
         sodipodi:role="line"
         id="tspan56"
         x="8.0625"
         y="58.265625" /></text>
    <g
       id="g428">
      <path
         style="display:inline;fill:#ffffff"
         d="M 24,2 C 11.849736,2 2,11.849736 2,24 2,36.150264 11.849736,46 24,46 36.150264,46 46,36.150264 46,24 46,11.849736 36.150264,2 24,2 Z M 6.9121094,15.818359 H 9.65625 v 7.667969 l 3.158203,-3.720703 c 1.439852,0.0039 3.006943,-0.02496 4.353516,0.01563 1.189854,0 1.922044,-0.04492 2.089843,-0.04492 0.122037,0 0.136719,0.02991 0.136719,0.08984 v 0.390625 c 0,0.07492 -0.01431,0.103515 -0.121093,0.103515 h -0.763672 c -0.442382,0 -0.701913,0.285593 -0.732422,0.615235 -0.01525,0.134854 -0.0293,1.183095 -0.0293,1.947265 v 0.990235 c 0,0.794138 0.06092,2.696301 0.07617,3.175781 0.01525,0.689252 0.137426,1.392897 0.488281,1.902344 0.564418,0.809122 1.539064,1.080078 2.423828,1.080078 0.869509,0 1.755154,-0.284804 2.289063,-0.824219 0.594927,-0.629317 0.792968,-1.527922 0.792968,-2.636719 v -3.207031 c 0,-1.138764 -0.03041,-2.008219 -0.07617,-2.382812 -0.04576,-0.389577 -0.288929,-0.660157 -0.685547,-0.660157 h -0.671875 c -0.09153,0 -0.107422,-0.04422 -0.107422,-0.11914 v -0.359375 c 0,-0.07492 0.01589,-0.105469 0.107422,-0.105469 0.152545,0 0.854898,0.04492 1.876953,0.04492 1.052563,0 1.540443,-0.04492 1.677734,-0.04492 0.137291,0 0.152344,0.06052 0.152344,0.105469 v 0.330078 c 0,0.03275 -0.0074,0.05478 -0.01367,0.07813 0.546663,-0.488826 1.293318,-0.693359 2.101563,-0.693359 0.869508,0 1.541453,0.25513 1.800781,0.375 0.137291,0.07492 0.21279,0.05929 0.289062,-0.01563 l 0.199219,-0.179688 c 0.07627,-0.05993 0.120993,-0.08984 0.197266,-0.08984 0.07627,0 0.123046,0.121006 0.123046,0.25586 10e-7,0.524431 0.197637,2.051217 0.212891,2.380859 0,0.07492 -0.01515,0.10611 -0.07617,0.121094 l -0.183593,0.04492 c -0.04576,0.01498 -0.07459,2.9e-5 -0.08984,-0.04492 -0.122037,-0.434529 -0.32183,-1.019762 -0.947266,-1.664063 -0.411873,-0.434528 -0.945146,-0.644531 -1.662109,-0.644531 -1.357655,0 -1.845703,0.989736 -1.845703,1.753906 0,0.419545 0.09129,0.913158 0.472656,1.302735 0.442382,0.434528 1.295899,0.765537 1.738281,0.90039 1.052564,0.329643 1.907868,0.582903 2.457031,1.242188 0.396619,0.464496 0.671875,1.050136 0.671875,2.039062 0,1.768082 -1.099681,3.28125 -3.113281,3.28125 -1.067818,0 -1.815599,-0.314801 -2.425781,-0.779296 -0.183055,-0.134854 -0.273337,-0.179688 -0.349609,-0.179688 -0.09153,0 -0.152614,0.104069 -0.244141,0.253906 -0.09153,0.164821 -0.168609,0.179688 -0.275391,0.179688 -0.09153,0 -0.167228,-0.07346 -0.136718,-0.238282 0.06102,-0.374593 0.214001,-2.278362 0.259765,-2.71289 0.01525,-0.0899 0.04445,-0.08984 0.105469,-0.08984 l 0.228516,0.01563 c 0.06102,0 0.0918,0.02924 0.0918,0.119141 0.01525,0.479479 0.04738,0.97411 0.550782,1.738281 0.457636,0.704236 1.295765,1.109375 2.134765,1.109375 0.915273,0 2.074219,-0.55576 2.074219,-1.904297 0,-1.543325 -1.129246,-2.111705 -2.349609,-2.53125 -0.472891,-0.164821 -1.570617,-0.540575 -2.226563,-1.214844 -0.5034,-0.494463 -0.761719,-1.198573 -0.761719,-2.1875 0,-0.729041 0.448361,-1.438626 0.908203,-1.876953 -0.0036,3.14e-4 -0.0039,0.0039 -0.0078,0.0039 h -0.625 c -0.564418,0 -0.610486,0.419805 -0.65625,0.59961 -0.03051,0.149837 -0.03125,2.278509 -0.03125,2.488281 0,0.209772 -0.03041,2.83165 -0.07617,3.416016 -0.09153,1.228666 -0.426995,2.173358 -1.28125,2.892578 -0.610182,0.554398 -1.540042,0.898437 -2.867187,0.898437 -0.793237,0 -1.557147,-0.10468 -2.060547,-0.314453 C 17.365035,29.89622 16.831963,29.236944 16.587891,28.292969 16.404836,27.6187 16.34375,26.615214 16.34375,24.652344 v -3.566406 c 0,-0.524431 -0.107187,-0.765626 -0.580078,-0.765626 h -0.261719 l -3.693359,4.09961 4.523437,5.486328 H 13.005859 L 9.65625,25.677734 V 29.90625 H 6.9121094 Z m 30.4218746,3.738282 c 1.388164,0 2.532868,0.50956 3.082032,0.824218 0.198309,0.11987 0.274178,0.104887 0.304687,0 l 0.121094,-0.433593 c 0.03051,-0.0899 0.06193,-0.08984 0.199219,-0.08984 0.137291,0 0.167968,0.02851 0.167968,0.238281 0,0.284691 0.304587,2.488659 0.38086,2.908203 0.01525,0.07492 4.71e-4,0.133454 -0.06055,0.148438 l -0.228516,0.06055 c -0.07627,0.01498 -0.10658,7.29e-4 -0.152343,-0.119141 -0.213564,-0.494463 -0.550716,-1.215074 -1.191407,-1.859375 -0.640691,-0.644301 -1.449188,-1.152344 -2.654297,-1.152344 -2.730563,0 -3.827754,2.382687 -3.8125,4.570313 0,0.869057 0.27499,2.561008 1.464844,3.849609 1.037309,1.138764 1.90568,1.259766 2.927734,1.259766 1.723764,0 3.06587,-0.930354 3.767579,-1.904297 0.04576,-0.07492 0.07728,-0.08987 0.123047,-0.04492 l 0.197265,0.150391 c 0.04576,0.02997 0.07701,0.05985 0.03125,0.134765 -0.915273,1.303586 -2.395984,2.517578 -4.546875,2.517578 -1.800036,0 -2.944102,-0.5548 -3.859375,-1.378906 -1.098327,-1.018894 -1.630859,-2.756873 -1.630859,-4.195312 0,-1.393488 0.45636,-2.831939 1.554687,-3.970704 0.777982,-0.809121 2.151708,-1.513671 3.814453,-1.513671 z"
         id="circle856"
         inkscape:connector-curvature="0"
         sodipodi:nodetypes="ssssscccccssssscssccscsscssssssssscscccsccccccsscccsscscsccccccssccscsscsccsccsssccccccccscccssccccssccsccccscscs" />
      <g
         id="g408" />
    </g>
  </g>
</svg>
