<?xml version="1.0" encoding="UTF-8" standalone="no"?>
<!-- Created with Inkscape (http://www.inkscape.org/) -->

<svg
   xmlns:dc="http://purl.org/dc/elements/1.1/"
   xmlns:cc="http://creativecommons.org/ns#"
   xmlns:rdf="http://www.w3.org/1999/02/22-rdf-syntax-ns#"
   xmlns:svg="http://www.w3.org/2000/svg"
   xmlns="http://www.w3.org/2000/svg"
   xmlns:sodipodi="http://sodipodi.sourceforge.net/DTD/sodipodi-0.dtd"
   xmlns:inkscape="http://www.inkscape.org/namespaces/inkscape"
   id="SVGRoot"
   version="1.1"
   viewBox="0 0 48 48"
   height="48px"
   width="48px"
   sodipodi:docname="kusc.svg"
   inkscape:version="0.92.4 (5da689c313, 2019-01-14)">
  <defs
     id="defs3732" />
  <sodipodi:namedview
     id="base"
     pagecolor="#000000"
     bordercolor="#666666"
     borderopacity="1.0"
     inkscape:pageopacity="0"
     inkscape:pageshadow="2"
     inkscape:zoom="10.666667"
     inkscape:cx="13.010416"
     inkscape:cy="20.760416"
     inkscape:document-units="px"
     inkscape:current-layer="layer3"
     showgrid="false"
     inkscape:window-width="1366"
     inkscape:window-height="704"
     inkscape:window-x="0"
     inkscape:window-y="27"
     inkscape:window-maximized="1"
     inkscape:grid-bbox="true" />
  <metadata
     id="metadata3735">
    <rdf:RDF>
      <cc:Work
         rdf:about="">
        <dc:format>image/svg+xml</dc:format>
        <dc:type
           rdf:resource="http://purl.org/dc/dcmitype/StillImage" />
        <dc:title></dc:title>
      </cc:Work>
    </rdf:RDF>
  </metadata>
  <g
     inkscape:groupmode="layer"
     id="layer3"
     inkscape:label="Layer 3"
     style="display:inline">
    <text
       xml:space="preserve"
       style="font-style:normal;font-weight:normal;font-size:40px;line-height:1.25;font-family:sans-serif;letter-spacing:0px;word-spacing:0px;fill:#000000;fill-opacity:1;stroke:none"
       x="8.0625"
       y="22.875002"
       id="text58"><tspan
         sodipodi:role="line"
         id="tspan56"
         x="8.0625"
         y="58.265625" /></text>
    <g
       id="g428">
      <path
         style="display:inline;fill:#ffffff"
         d="M 24 2 C 11.849736 2 2 11.849736 2 24 C 2 36.150264 11.849736 46 24 46 C 36.150264 46 46 36.150264 46 24 C 46 11.849736 36.150264 2 24 2 z M 6.9121094 15.818359 L 9.65625 15.818359 L 9.65625 23.486328 L 12.814453 19.765625 L 14.962891 19.765625 C 14.981725 19.746069 15.015899 19.736328 15.078125 19.736328 C 15.23067 19.736328 15.978114 19.78125 17.167969 19.78125 C 18.357823 19.78125 19.090013 19.736328 19.257812 19.736328 C 19.379849 19.736328 19.394531 19.766237 19.394531 19.826172 L 19.394531 20.216797 C 19.394531 20.291716 19.380219 20.320312 19.273438 20.320312 L 18.509766 20.320312 C 18.067384 20.320312 17.807853 20.605905 17.777344 20.935547 C 17.762089 21.070401 17.748047 22.118642 17.748047 22.882812 L 17.748047 23.873047 C 17.748047 24.667185 17.808964 26.569348 17.824219 27.048828 C 17.839473 27.73808 17.961645 28.441725 18.3125 28.951172 C 18.876918 29.760294 19.851564 30.03125 20.736328 30.03125 C 21.605837 30.03125 22.491482 29.746446 23.025391 29.207031 C 23.620318 28.577714 23.818359 27.679109 23.818359 26.570312 L 23.818359 23.363281 C 23.818359 22.224517 23.787951 21.355062 23.742188 20.980469 C 23.696424 20.590892 23.453259 20.320312 23.056641 20.320312 L 22.384766 20.320312 C 22.293238 20.320312 22.277344 20.276091 22.277344 20.201172 L 22.277344 19.841797 C 22.277344 19.766878 22.293238 19.736328 22.384766 19.736328 C 22.537311 19.736328 23.239664 19.78125 24.261719 19.78125 C 25.314282 19.78125 25.802162 19.736328 25.939453 19.736328 C 26.076744 19.736328 26.091797 19.796846 26.091797 19.841797 L 26.091797 20.171875 C 26.091797 20.204626 26.084386 20.226652 26.078125 20.25 C 26.624788 19.761174 27.371443 19.556641 28.179688 19.556641 C 29.049196 19.556641 29.721141 19.811771 29.980469 19.931641 C 30.11776 20.006559 30.193259 19.990934 30.269531 19.916016 L 30.46875 19.736328 C 30.545023 19.676393 30.589743 19.646484 30.666016 19.646484 C 30.742288 19.646484 30.789062 19.76749 30.789062 19.902344 C 30.789063 20.426775 30.986699 21.953561 31.001953 22.283203 C 31.001953 22.358122 30.986799 22.389313 30.925781 22.404297 L 30.742188 22.449219 C 30.696424 22.464202 30.667598 22.449248 30.652344 22.404297 C 30.530307 21.969768 30.330514 21.384535 29.705078 20.740234 C 29.293205 20.305706 28.759932 20.095703 28.042969 20.095703 C 26.685314 20.095703 26.197266 21.085439 26.197266 21.849609 C 26.197266 22.269154 26.288558 22.762767 26.669922 23.152344 C 27.112304 23.586872 27.965821 23.917881 28.408203 24.052734 C 29.460767 24.382377 30.316071 24.635637 30.865234 25.294922 C 31.261853 25.759418 31.537109 26.345058 31.537109 27.333984 C 31.537109 29.102066 30.437428 30.615234 28.423828 30.615234 C 27.35601 30.615234 26.608229 30.300433 25.998047 29.835938 C 25.814992 29.701084 25.72471 29.65625 25.648438 29.65625 C 25.556909 29.65625 25.495824 29.760319 25.404297 29.910156 C 25.31277 30.074977 25.235688 30.089844 25.128906 30.089844 C 25.037379 30.089844 24.961678 30.016384 24.992188 29.851562 C 25.053206 29.476969 25.206189 27.5732 25.251953 27.138672 C 25.267208 27.048769 25.296404 27.048828 25.357422 27.048828 L 25.585938 27.064453 C 25.646956 27.064453 25.677734 27.093691 25.677734 27.183594 C 25.692989 27.663073 25.725116 28.157704 26.228516 28.921875 C 26.686152 29.626111 27.524281 30.03125 28.363281 30.03125 C 29.278554 30.03125 30.4375 29.47549 30.4375 28.126953 C 30.4375 26.583628 29.308254 26.015248 28.087891 25.595703 C 27.615 25.430882 26.517274 25.055128 25.861328 24.380859 C 25.357928 23.886396 25.099609 23.182286 25.099609 22.193359 C 25.099609 21.464318 25.54797 20.754733 26.007812 20.316406 C 26.004205 20.31672 26.003925 20.320312 26 20.320312 L 25.375 20.320312 C 24.810582 20.320312 24.764514 20.740117 24.71875 20.919922 C 24.688241 21.069759 24.6875 23.198431 24.6875 23.408203 C 24.6875 23.617975 24.657092 26.239853 24.611328 26.824219 C 24.519801 28.052885 24.184333 28.997577 23.330078 29.716797 C 22.719896 30.271195 21.790036 30.615234 20.462891 30.615234 C 19.669654 30.615234 18.905744 30.510554 18.402344 30.300781 C 17.365035 29.89622 16.831963 29.236944 16.587891 28.292969 C 16.404836 27.6187 16.34375 26.615214 16.34375 24.652344 L 16.34375 21.085938 C 16.34375 20.561507 16.236563 20.320312 15.763672 20.320312 L 15.501953 20.320312 L 11.808594 24.419922 L 16.332031 29.90625 L 13.005859 29.90625 L 9.65625 25.677734 L 9.65625 29.90625 L 6.9121094 29.90625 L 6.9121094 15.818359 z M 37.333984 19.556641 C 38.722148 19.556641 39.866852 20.066201 40.416016 20.380859 C 40.614325 20.500729 40.690194 20.485746 40.720703 20.380859 L 40.841797 19.947266 C 40.872306 19.857363 40.903725 19.857422 41.041016 19.857422 C 41.178307 19.857422 41.208984 19.885931 41.208984 20.095703 C 41.208984 20.380394 41.513571 22.584362 41.589844 23.003906 C 41.605098 23.078825 41.590315 23.13736 41.529297 23.152344 L 41.300781 23.212891 C 41.224509 23.227874 41.194201 23.21362 41.148438 23.09375 C 40.934874 22.599287 40.597722 21.878676 39.957031 21.234375 C 39.31634 20.590074 38.507843 20.082031 37.302734 20.082031 C 34.572171 20.082031 33.47498 22.464718 33.490234 24.652344 C 33.490234 25.521401 33.765224 27.213352 34.955078 28.501953 C 35.992387 29.640717 36.860758 29.761719 37.882812 29.761719 C 39.606576 29.761719 40.948682 28.831365 41.650391 27.857422 C 41.696154 27.782503 41.727674 27.767549 41.773438 27.8125 L 41.970703 27.962891 C 42.016467 27.992858 42.047717 28.022738 42.001953 28.097656 C 41.08668 29.401242 39.605969 30.615234 37.455078 30.615234 C 35.655042 30.615234 34.510976 30.060434 33.595703 29.236328 C 32.497376 28.217434 31.964844 26.479455 31.964844 25.041016 C 31.964844 23.647528 32.421204 22.209077 33.519531 21.070312 C 34.297513 20.261191 35.671239 19.556641 37.333984 19.556641 z "
         id="circle856" />
      <g
         id="g408" />
    </g>
  </g>
</svg>
