<?xml version="1.0" encoding="UTF-8"?>
<svg data-name="Layer 1" viewBox="0 0 48 48" xmlns="http://www.w3.org/2000/svg">
    <defs>
        <style>.cls-1{fill:#fff;}</style>
    </defs>
    <path class="cls-1" d="M24,1.83a22,22,0,1,0,22,22A22,22,0,0,0,24,1.83Zm8.89,13.84c3.47,0,5.58,1.26,5.86,4.31l-3.41.42c-.16-1.48-1-2.08-2.67-2.08s-2.41.68-2.41,1.84.45,1.63,1.94,2l2.18.5c2.92.67,4.49,2.13,4.49,4.87a.5.5,0,0,0,0,.17H35.42c0-.94-.59-1.68-2.32-2.09L30.79,25c-2.85-.68-4-2.15-4-4.47C26.83,16.83,29.83,15.67,32.89,15.67ZM8.35,23.74v-.3c0-5.36,2.6-8.52,7.57-8.54v2.73c-2,.1-4,1.62-4,5.7,0,.13,0,.31,0,.41ZM14.82,32c-3.58-.6-5.59-3.17-5.69-7.52h3.59a5.23,5.23,0,0,0,2.1,4.33Zm2.71,1c-.31,0-.6,0-.94,0a10.28,10.28,0,0,1-1.41-.1V29.94a3.42,3.42,0,0,0,1.57.36,6.81,6.81,0,0,0,.78-.05Zm.37-1V29.25a6.9,6.9,0,0,0,3.26-1.84l1.08,3A7.73,7.73,0,0,1,17.9,32.09Zm13.72.11c-5.74-.05-7.75-2.69-8.83-6l-1.1-3.41c-.81-2.49-1.77-4.42-4.77-4.42h-.17V15.71h.07c4.52,0,6.81,1.6,8.24,6l1.12,3.39c.79,2.41,2.15,4.18,5.44,4.3Zm.95.78H32.4V30.21h.25c2.3,0,3.51-.5,3.51-1.77h3.49C39.57,31.72,36.73,33,32.57,33Z"/>
</svg>
