<?xml version="1.0" encoding="UTF-8"?>
<svg version="1.1" viewBox="0 0 48 48" xmlns="http://www.w3.org/2000/svg">
    <path d="m24 2a22 22 0 0 0-22 22 22 22 0 0 0 22 22 22 22 0 0 0 22-22 22 22 0 0 0-22-22zm14.85 10.658c0.48764-1.7e-4 0.88298 0.39518 0.88281 0.88281 4.6e-5 0.005208 4.6e-5 20.913 0 20.918 1.72e-4 0.48764-0.39518 0.88298-0.88281 0.88281-0.48764 1.73e-4 -0.88298-0.39518-0.88281-0.88281-4.6e-5 -0.00521-4.6e-5 -20.913 0-20.918-1.72e-4 -0.48764 0.39518-0.88299 0.88281-0.88281zm-26.75 7.4844a3.8343 3.8343 0 0 1 3.834 3.834 3.8343 3.8343 0 0 1-3.834 3.834 3.8343 3.8343 0 0 1-3.834-3.834 3.8343 3.8343 0 0 1 3.834-3.834zm9.7441 0a3.8343 3.8343 0 0 1 3.834 3.834 3.8343 3.8343 0 0 1-3.834 3.834 3.8343 3.8343 0 0 1-3.834-3.834 3.8343 3.8343 0 0 1 3.834-3.834zm9.7441 0a3.8343 3.8343 0 0 1 3.834 3.834 3.8343 3.8343 0 0 1-3.834 3.834 3.8343 3.8343 0 0 1-3.834-3.834 3.8343 3.8343 0 0 1 3.834-3.834z" fill="#fff"/>
</svg>
