<?xml version="1.0" encoding="UTF-8"?>
<svg version="1.1" viewBox="0 0 48 48" xmlns="http://www.w3.org/2000/svg">
    <path d="m24 2a22 22 0 0 0-22 22 22 22 0 0 0 22 22 22 22 0 0 0 22-22 22 22 0 0 0-22-22zm0 6.0273a0.75008 0.75008 0 0 1 0.21289 0.03125l13.174 3.9199a0.75008 0.75008 0 0 1 0.53516 0.71875v12.971c0 3.7836-1.5158 6.8459-3.9883 9.1738-2.4724 2.3279-5.8697 3.9581-9.7207 5.0996a0.75008 0.75008 0 0 1-0.21289 0.03125 0.75008 0.75008 0 0 1-0.21289-0.03125c-3.851-1.1415-7.2483-2.7717-9.7207-5.0996-2.4724-2.3279-3.9883-5.3903-3.9883-9.1738v-12.971a0.75008 0.75008 0 0 1 0.53516-0.71875l13.174-3.9199a0.75008 0.75008 0 0 1 0.21289-0.03125zm0 1.5332-12.422 3.6953v12.412c0 3.3923 1.2907 5.9872 3.5156 8.082 2.1777 2.0504 5.298 3.5734 8.9043 4.668h0.001953 0.001953c3.6064-1.0946 6.7266-2.6176 8.9043-4.668 2.2249-2.0949 3.5156-4.6898 3.5156-8.082v-12.412l-12.422-3.6953zm8.0723 8.2754c0.26503-9.2e-5 0.47861 0.21544 0.47852 0.48047 2.5e-5 0.0028 2.5e-5 11.364 0 11.367 9.4e-5 0.26503-0.21348 0.48056-0.47852 0.48047-0.26503 9.7e-5 -0.48056-0.21544-0.48047-0.48047-2.5e-5 -0.0028-2.5e-5 -11.364 0-11.367-9.3e-5 -0.26503 0.21544-0.48057 0.48047-0.48047zm-14.539 4.0684a2.084 2.084 0 0 1 2.084 2.082 2.084 2.084 0 0 1-2.084 2.084 2.084 2.084 0 0 1-2.084-2.084 2.084 2.084 0 0 1 2.084-2.082zm5.2949 0a2.084 2.084 0 0 1 2.084 2.082 2.084 2.084 0 0 1-2.084 2.084 2.084 2.084 0 0 1-2.084-2.084 2.084 2.084 0 0 1 2.084-2.082zm5.2969 0a2.084 2.084 0 0 1 2.084 2.082 2.084 2.084 0 0 1-2.084 2.084 2.084 2.084 0 0 1-2.084-2.084 2.084 2.084 0 0 1 2.084-2.082z" fill="#fff"/>
</svg>
