<?xml version="1.0" encoding="UTF-8"?>
<svg viewBox="0 0 48 48" xmlns="http://www.w3.org/2000/svg">
    <defs>
        <style>.cls-1{fill:#fff;}</style>
    </defs>
    <g data-name="Layer 1">
        <path class="cls-1" d="m17.39 19.91a7.78 7.78 0 1 0 0 8.18 7.73 7.73 0 0 1 0-8.18z"/>
        <path class="cls-1" d="m30.61 19.91a7.77 7.77 0 0 0-13.22 0 7.79 7.79 0 0 1 0 8.18 7.77 7.77 0 0 0 13.22 0 7.79 7.79 0 0 1 0-8.18z"/>
        <path class="cls-1" d="m37.22 16.22a7.78 7.78 0 0 0-6.61 3.69 7.73 7.73 0 0 1 0 8.18 7.78 7.78 0 1 0 6.61-11.87z"/>
    </g>
</svg>
