<?xml version="1.0" encoding="UTF-8"?>
<svg enable-background="new" version="1.1" viewBox="0 0 48 48" xmlns="http://www.w3.org/2000/svg">
    <defs>
        <style>.a{fill:#3396cd;}.b{fill:#fff;}</style>
    </defs>
    <g fill="#fff">
        <path d="m43.9 31.372v-10.376s-0.03098-0.50286-0.60823-1.0733c-0.57725-0.57049-1.4669-0.42934-1.4669-0.42934l-15.098 2.8623h-5.3667l-15.242-2.6476s-0.73003-0.21901-1.3596 0.25045c-0.62954 0.46946-0.85868 1.3238-0.85868 1.3238l0.14311 9.9463s4.8842 10.046 20.036 10.018c15.152-0.0283 19.821-9.8748 19.821-9.8748z"/>
        <path d="m36.761 17.44s-4.2832-6.3092-12.801-6.2742c-8.518 0.03501-12.548 6.2742-12.548 6.2742s4.6328 0.70747 6.5271 1.2144c1.8943 0.50688 4.8574 1.6191 4.8574 1.6191l2.3781 0.05059s3.7295-1.4754 5.667-1.9733c1.9374-0.49792 5.92-0.91076 5.92-0.91076z"/>
        <path d="m29.07 11.166v-3.4407l3.4407 1.4167 3.0359-1.4167 0.05059 7.3367s-1.1806-1.393-3.0865-2.4793c-1.9059-1.0863-3.4407-1.4167-3.4407-1.4167z"/>
        <path d="m22.855 21.359 2.3256-0.01789s4.1532-1.2995 6.2834-1.8116c2.1302-0.5121 6.4858-1.255 6.4858-1.255s0.85256-0.27027 1.8215-0.0253c0.96897 0.24497 1.4167 0.96136 1.4167 0.96136l-14.635 2.7829-5.1736 0.0506-14.863-2.6437s0.47888-0.80509 1.4926-1.0879c1.0138-0.28277 2.0113-0.05059 2.0113-0.05059s4.478 0.70054 6.62 1.2197c2.142 0.51914 6.2152 1.8775 6.2152 1.8775z"/>
    </g>
</svg>
