<?xml version="1.0" encoding="UTF-8"?>
<svg viewBox="0 0 48 48" xmlns="http://www.w3.org/2000/svg">
    <defs>
        <style>.cls-1{fill:#fff;}</style>
    </defs>
    <g data-name="Layer 1">
        <path class="cls-1" d="M22.84,7.81,36.19,21.16v19H11.81V7.81h11M23.38,4H9.88A1.85,1.85,0,0,0,8,5.88V42.13C8,43.43,8.57,44,9.88,44H38.12c1.31,0,1.88-.57,1.88-1.87V20.68a2.55,2.55,0,0,0-.7-1.8L25.12,4.7A2.56,2.56,0,0,0,23.38,4Z"/>
        <path class="cls-1" d="M31,4h-.2a1.34,1.34,0,0,0-.47,2.13l7.53,7.58A1.33,1.33,0,0,0,40,12.85V5.28A1.32,1.32,0,0,0,38.74,4H31Z"/>
    </g>
</svg>
