<?xml version="1.0" encoding="UTF-8"?>
<svg version="1.1" viewBox="0 0 48 48" xmlns="http://www.w3.org/2000/svg">
    <path d="m24 7.6836a20.403 15.566 0 0 0-20.402 15.566 20.403 15.566 0 0 0 20.402 15.566 20.403 15.566 0 0 0 20.402-15.566 20.403 15.566 0 0 0-20.402-15.566zm-15.539 10.826h2.3691v7.1094h3.9512v2.3711h-6.3203v-2.3711zm7.6035 0h6.3203v2.3711h-1.9766v4.7383h1.9766v2.3711h-6.3203v-2.3711h1.9746v-4.7383h-1.9746zm7.6035 0h2.3691l3.5293 5.2383v-5.2383h2.3691v9.4805h-2.3691l-3.5293-5.2363v5.2363h-2.3691v-8.7539zm9.5508 0h6.3203v2.3711h-3.9492v1.1836h2.3691v2.3711h-2.3691v1.1836h3.9492v2.3711h-6.3203v-7.1094z" fill="#fff"/>
    <path d="m23.836 40.427c-7.5e-5 1.3718-0.05261 2.9621-0.05261 2.9621-0.01716 0.96615 0.53668 1.0036 1.2426 1.0084 1.3578 0.0091 4.3505-1.5907 7.1733-3.9652 5.949-5.0041 9.48-9.412 9.48-9.412l-6.268 0.10524s-13.241 4.526-13.481 7.6096c2.1051 0.10558 1.906 0.32011 1.9059 1.6919z" fill="#fff"/>
</svg>
