<?xml version="1.0" encoding="UTF-8"?>
<svg viewBox="0 0 48 48" xmlns="http://www.w3.org/2000/svg">
    <defs>
        <style>.a{fill:none;stroke:#fff;stroke-linecap:round;stroke-linejoin:round;stroke-width:1.59px;}.b{fill:#fff;}</style>
    </defs>
    <polyline class="a" points="32.42 11.62 28.24 12.6 37.35 17.67"/>
    <line class="a" x1="29.76" x2="28.24" y1="16.51" y2="12.6"/>
    <path class="b" d="M24.27,23a11.5,11.5,0,0,1-1-14.24c-3.56,0-10.79,0-11.79,0-1.34,0-5.57,1.1-5.71,1.71C5.54,11.54,5.05,35.17,5,39.16a.57.57,0,0,0,.51.59C12.52,39.87,22.82,43,31,43c1.79,0,8,.24,8-2.66,0-1.6-1.42-3.37-1.44-5.09,0-.7-.26-6.6-.26-9.41a11.51,11.51,0,0,1-12.38-2.19Zm-.79,1.18a.49.49,0,0,1-.11.67c-.51.36-1,.72-1.58,1.08a.56.56,0,0,1-.27.08.48.48,0,0,1-.27-.87c.54-.36,1.06-.72,1.56-1.07A.48.48,0,0,1,23.48,24.15Zm-.15,9.77c.56-.07.91-.14.92-.14a.49.49,0,0,1,.56.38.49.49,0,0,1-.38.56s-.37.07-1,.15h-.07a.47.47,0,0,1-.47-.41A.49.49,0,0,1,23.33,33.92Zm-3.2-12.6c.51-.22,1.06-.48,1.68-.81a.48.48,0,0,1,.65.21.48.48,0,0,1-.2.64c-.65.34-1.23.61-1.76.84a.57.57,0,0,1-.18,0,.45.45,0,0,1-.44-.29A.47.47,0,0,1,20.13,21.32Zm-3.95,1a.48.48,0,0,1,.6-.31l.2,0a4.88,4.88,0,0,0,1.43-.13.48.48,0,0,1,.21.93,6.07,6.07,0,0,1-1.34.17l-.38,0a2.27,2.27,0,0,1-.41-.08A.48.48,0,0,1,16.18,22.3ZM12.73,19a.42.42,0,0,1-.28.1.49.49,0,0,1-.39-.2,4.3,4.3,0,0,1-.55-.94.48.48,0,1,1,.9-.31,3.24,3.24,0,0,0,.43.69A.47.47,0,0,1,12.73,19Zm-2.08-1.89a2.44,2.44,0,1,1,2.43-2.44A2.44,2.44,0,0,1,10.65,17.15Zm2.69,2.62a.48.48,0,0,1,.68,0,15.59,15.59,0,0,0,1.32,1.28.48.48,0,0,1,.06.67.5.5,0,0,1-.37.17.51.51,0,0,1-.31-.11,19.41,19.41,0,0,1-1.41-1.36A.49.49,0,0,1,13.34,19.77ZM14.62,33.2a.48.48,0,0,1-.34.14.51.51,0,0,1-.34-.14,5,5,0,0,1-.51-.63,1.22,1.22,0,0,1-.2-.67,1.87,1.87,0,0,1,.31-.95.47.47,0,0,1,.66-.15.48.48,0,0,1,.15.66.92.92,0,0,0-.16.44.28.28,0,0,0,0,.15,3.35,3.35,0,0,0,.39.47A.48.48,0,0,1,14.62,33.2Zm.27-3.06a.49.49,0,0,1,.06-.68c.42-.35.93-.73,1.55-1.17a.48.48,0,0,1,.66.11.49.49,0,0,1-.11.67c-.6.42-1.08.79-1.49,1.13a.5.5,0,0,1-.3.11A.48.48,0,0,1,14.89,30.14Zm2.81,4.73h-.09a9.06,9.06,0,0,1-1.92-.54.48.48,0,1,1,.36-.88,7.88,7.88,0,0,0,1.73.48.48.48,0,0,1,.39.55A.47.47,0,0,1,17.7,34.87Zm.64-6.79a.48.48,0,0,1-.26-.88l1.38-.91.21-.14a.48.48,0,0,1,.66.14.47.47,0,0,1-.13.66l-.22.14L18.61,28A.53.53,0,0,1,18.34,28.08Zm3.17,7c-.37,0-.76,0-1.16,0l-.78,0a.48.48,0,1,1,0-1c.65,0,1.27,0,1.85,0a.46.46,0,0,1,.5.46A.48.48,0,0,1,21.51,35.05Zm9.06,4.14s-2-2.53-3.26-3.94c-.9,1.47-2.09,3.49-2.09,3.49l-2.79-.46s2.2-2.75,3.48-4.37a13.58,13.58,0,0,0-2.86-2V30.11c.89,0,2.47.92,4.06,2.29,1-1.22,2.79-3.28,2.79-3.28l2.25.7s-2.37,2.24-3.7,3.82l.6.62c2.11,2.33,3.75,4.26,3.75,4.26Z"/>
    <path class="b" d="m32.8 5a10.23 10.23 0 1 0 10.2 10.23 10.23 10.23 0 0 0-10.2-10.23zm0 18.22a8 8 0 1 1 8-8 8 8 0 0 1-8 8z"/>
</svg>
