<?xml version="1.0" encoding="UTF-8"?>
<svg version="1.1" viewBox="0 0 48 48" xmlns="http://www.w3.org/2000/svg">
    <defs>
        <style>.cls-1{fill:#fff;}</style>
    </defs>
    <path class="cls-1" d="m41.106 19.135c4.186-9.1571-3.4468-16.836-11.987-11.865-0.12455 2.8078 5.1932 10.857 11.987 11.865zm-14.399-8.7374s-0.91517 2.3854-0.77979 3.13l-10.026 6.6174c-1.0722 0.83665-0.02436 2.2121 0.9991 1.6137 0 0 7.0587-5.1417 9.2654-6.2167 0.21661 2.3989 1.3836 4.2645 3.5199 5.4152l-15.95 20.001c-0.50632 0.88268 0.69315 1.7897 1.3403 1.0722l16.246-19.979c0.41426 0.3899 5.2527 0.47924 6.7582-0.55235l-8.1391 18.125c-0.3574 1.0235 0.89621 1.5136 1.3619 0.81228l8.9432-20.291c-5.9567-1.9278-10.798-7.1752-12.152-12.352l-21.94 10.151c-0.93142 0.51716-0.2491 2.0849 0.81228 1.6137 0 0 17.694-8.6075 19.741-9.1598z"/>
</svg>
