<?xml version="1.0" encoding="UTF-8" standalone="no"?>
<svg xmlns="http://www.w3.org/2000/svg" version="1.1" viewBox="0 0 48 48">
  <path
     style="fill:#ffffff;"
     d="M 24 2 A 22 22 0 0 0 2 24 A 22 22 0 0 0 24 46 A 22 22 0 0 0 46 24 A 22 22 0 0 0 24 2 z M 24.003906 9.2480469 C 33.147283 9.2491574 41.442751 14.081793 43.277344 21.105469 C 44.194641 24.617307 43.477897 28.161298 41.373047 31.095703 C 39.268198 34.030109 36.246129 36.582505 32 37.886719 C 30.916544 38.219987 29.518108 35.677018 30.601562 35.34375 C 34.540439 34.13391 37.143498 32.694062 38.996094 30.111328 C 40.84869 27.528593 41.51865 24.553016 40.732422 21.542969 C 39.159966 15.522876 32.540544 10.450219 24 10.449219 C 15.459456 10.448181 8.8426402 15.515376 7.2675781 21.535156 C 6.480047 24.545046 7.1544074 27.526237 9.0058594 30.109375 C 10.857312 32.692513 13.460105 34.13296 17.398438 35.34375 C 18.481836 35.677206 17.083398 38.220175 16 37.886719 C 11.754407 36.581466 8.7247148 34.030666 6.6210938 31.095703 C 4.5174725 28.16074 3.8097184 24.613143 4.7285156 21.101562 C 6.5661102 14.078402 14.86053 9.2469364 24.003906 9.2480469 z M 24 13.916016 C 24.370749 13.916016 24.741498 14.099629 24.953125 14.466797 C 28.128123 18.491204 30.598645 22.941581 33.152344 27.365234 C 33.576127 28.098846 31.448781 29.016035 30.601562 29.015625 L 23.96875 25.734375 L 17.398438 29.015625 C 16.551219 29.016035 14.423873 28.098846 14.847656 27.365234 C 17.174732 22.793909 20.096138 18.639851 23.046875 14.466797 C 23.258502 14.099629 23.629251 13.916016 24 13.916016 z M 24 15.912109 L 20.853516 21.363281 L 17.703125 26.816406 L 24 24.003906 L 30.296875 26.816406 L 27.148438 21.363281 L 24 15.912109 z M 24 28.46875 L 24.595703 30.279297 L 26.40625 30.875 L 24.595703 31.470703 L 24 33.28125 L 23.404297 31.470703 L 21.59375 30.875 L 23.404297 30.279297 L 24 28.46875 z M 24 34.173828 L 24.910156 36.482422 L 27.21875 37.392578 L 24.910156 38.304688 L 24 40.611328 L 23.089844 38.304688 L 20.78125 37.392578 L 23.089844 36.482422 L 24 34.173828 z "
     id="circle2" />
</svg>
