<?xml version="1.0" encoding="UTF-8"?>
<svg viewBox="0 0 48 48" xmlns="http://www.w3.org/2000/svg">
    <defs>
        <style>.cls-1{fill:#fff;}</style>
    </defs>
    <g data-name="Layer 1">
        <path class="cls-1" d="M43.11,21.79,26,7.22a3.06,3.06,0,0,0-4,0L18.73,10h-10v8.54L4.89,21.79a2.51,2.51,0,0,0,1.63,4.43H8.71V39.85a1.67,1.67,0,0,0,1.67,1.67H37.62a1.67,1.67,0,0,0,1.67-1.67V26.22h2.19A2.51,2.51,0,0,0,43.11,21.79Zm-11.47.7a1.07,1.07,0,0,1-1.07,1.07H26.68a.45.45,0,0,1-.11,0l-2.05,2.06s0,.07,0,.11v6h0l2.07,2.08H29.2a1.07,1.07,0,0,1,1.07,1.07v2.58a1.07,1.07,0,0,1-1.07,1.07H26.62a1.06,1.06,0,0,1-1.06-1.07V34.89h0l-2.08-2.07H17.43a1.07,1.07,0,0,1-1.07-1.07v-6a1.07,1.07,0,0,1,1.07-1.07h5.93l2.26-2.25V18.6a1.05,1.05,0,0,1,1.06-1.06h3.89a1.06,1.06,0,0,1,1.07,1.06Z"/>
    </g>
</svg>
