<?xml version="1.0" encoding="UTF-8"?>
<svg data-name="Layer 1" viewBox="0 0 48 48" xmlns="http://www.w3.org/2000/svg">
    <defs>
        <style>.cls-1{fill:#fff;}</style>
    </defs>
    <path class="cls-1" d="M24,2A22,22,0,1,0,46,24,22,22,0,0,0,24,2ZM36.46,27l-4.2-4.19L35.13,20ZM31,15.17a3.12,3.12,0,0,1,3.65,2.47l.2,1.08L31.57,22l-4.24-4.3,2.37-2.31Zm-8.78,7.5,4.29-4.25,4.29,4.3L26.49,27Zm.25,5.57a1.25,1.25,0,0,1-.69.54h-.1a1.11,1.11,0,0,1-.49-2.17h.09a1.12,1.12,0,0,1,1.29.79A1.2,1.2,0,0,1,22.5,28.24Zm-1.88-15,2.08-.4a3.25,3.25,0,0,1,3.79,2.57l-1.33.24a1.88,1.88,0,0,0-2.22-1.48l-2.07.4a1.87,1.87,0,0,0-1.48,2.22L18.06,17A3.23,3.23,0,0,1,20.62,13.2Zm7.21,2.51L21.51,22l-4.14-4.25ZM13.77,18.42,16.13,18l4.64,4.69-4.29,4.24-5.23-5.28A3.1,3.1,0,0,1,13.77,18.42Zm-2.22,5,4.19,4.19-2.81,2.81ZM17,35.2a3.14,3.14,0,0,1-3.65-2.47l-.2-1,3.31-3.3,5,5,.74.79Zm8.63-1.68h0L23.44,34,22.2,32.73,25,30l1.53-1.58,4.1,4.14Zm8.59-1.68-2.47.5-4.54-4.59,4.29-4.24,5.23,5.22A3.06,3.06,0,0,1,34.24,31.84Z"/>
</svg>
