<?xml version="1.0" encoding="UTF-8"?>
<svg viewBox="0 0 48 48" xmlns="http://www.w3.org/2000/svg">
    <path d="m13.293 35.653c1.315-0.34251 2.6351-0.97226 3.0354-1.4481 0.51919-0.61702 1.5335-2.641 2.1468-4.2837 0.9965-2.6691 1.413-4.2425 2.048-7.7362 0.23026-1.2668 0.48698-2.3254 0.57049-2.3523 0.08352-0.02693 0.80663 1.2641 1.6069 2.8689 1.6744 3.3577 1.9209 3.6997 2.6667 3.6997 0.73449 0 2.3048-1.2315 5.6229-4.4099l1.3285-1.2725 0.05657 5.2516c0.05422 5.0337 0.071 5.2879 0.40462 6.1281 0.19143 0.48207 0.52515 1.0158 0.7416 1.1861 0.76026 0.59802 1.7126 0.29837 2.1907-0.68929 0.27681-0.57181 0.35002-1.3266 0.63969-6.5955 0.41727-7.5898 0.43166-9.2162 0.09125-10.314-0.34406-1.11-1.0957-2.2245-1.8262-2.708-0.72863-0.48218-0.64197-0.54519-2.5641 1.8642-1.4447 1.8109-2.4354 2.9263-4.5324 5.1027l-1.0779 1.1186-1.3591-3.1082c-1.5678-3.5855-2.8177-6.1805-3.3096-6.8713-0.18874-0.26505-0.65603-0.68033-1.0384-0.92284-1.2243-0.77645-3.1588-0.52682-3.696 0.47694-0.12007 0.22435-0.14031 1.0279-0.06672 2.6481 0.15757 3.4687-0.18748 6.4695-1.2423 10.804-0.70809 2.9096-1.5138 5.1857-3.6459 10.299-0.3051 0.73174-0.55472 1.3688-0.55472 1.4156 0 0.15916 0.85082 0.086 1.7631-0.15161zm32.707-11.653a22 22 0 0 1-22 22 22 22 0 0 1-22-22 22 22 0 0 1 22-22 22 22 0 0 1 22 22z" fill="#fff"/>
</svg>
