<?xml version="1.0" encoding="UTF-8"?>
<svg width="48" height="48" viewBox="0 0 12.7 12.7" xmlns="http://www.w3.org/2000/svg">
    <path d="m1.8521 1.3229c-0.29316 0-0.52917 0.23601-0.52917 0.52917v8.9958c0 0.29316 0.23601 0.52917 0.52917 0.52917h8.9958c0.29316 0 0.52917-0.23601 0.52917-0.52917v-8.9958c0-0.29316-0.23601-0.52917-0.52917-0.52917zm1.0382 1.1601h6.9195c0.22551 0 0.40721 0.1817 0.40721 0.40721v6.9195c0 0.22551-0.1817 0.40721-0.40721 0.40721h-6.9195c-0.22551 0-0.40721-0.1817-0.40721-0.40721v-6.9195c0-0.22551 0.1817-0.40721 0.40721-0.40721zm0.26407 0.29507c-0.2083 0-0.3762 0.1679-0.3762 0.3762v6.3913c0 0.20829 0.16791 0.3762 0.3762 0.3762h6.3913c0.2083 0 0.3762-0.16792 0.3762-0.3762v-6.3913c0-0.2083-0.16791-0.3762-0.3762-0.3762zm0.54984 0.79375h1.0583l0.60151 1.3358h0.23823l0.85369-1.3358h1.0583v3.9688h-1.0583v-2.3869l-0.85369 1.249h-0.23823l-0.60151-1.2697v2.4076h-1.0583z" fill="#fff" stroke-width=".18799"/>
</svg>
