<?xml version="1.0" encoding="UTF-8"?>
<svg version="1.1" viewBox="0 0 48 48" xmlns="http://www.w3.org/2000/svg">
    <path d="m10.146 4.2344c-6.4306 6.11-8.9536 13.731-6.4375 19.311a21.334 15.559 0 0 0 -0.95508 4.6016 21.334 15.559 0 0 0 21.334 15.559 21.334 15.559 0 0 0 21.334 -15.559 21.334 15.559 0 0 0 -1.0996 -4.8711c2.3155-5.5536-0.23357-13.029-6.5605-19.041-2.1991 1.1851-7.9276 4.9945-10.223 8.5781a21.334 15.559 0 0 0 -3.4512 -0.22461 21.334 15.559 0 0 0 -3.707 0.24023c-2.2882-3.5883-8.032-7.4069-10.234-8.5938zm0 14.781h6.2207v2.0723h-6.2207zm8.8535 0h19.766v1.9844h-19.766zm-8.8535 4h6.2207v2.0723h-6.2207zm8.8535 0h19.766v1.9844h-19.766zm-8.8535 4h6.2207v2.0723h-6.2207zm8.8535 0h19.766v1.9844h-19.766zm-8.8535 4h6.2207v2.0723h-6.2207zm8.8535 0h19.766v1.9844h-19.766z" fill="#fff"/>
</svg>
