<?xml version="1.0" encoding="UTF-8"?>
<svg viewBox="0 0 48 48" xmlns="http://www.w3.org/2000/svg">
    <path d="m24 2c-12.15 0-22 9.8497-22 22 0.00735 3.2694 0.74329 6.4961 2.1543 9.4453 0.2991-0.48694 0.66045-1.0539 0.90625-1.4375 0.42177-0.65827 0.76562-1.2341 0.76562-1.2793 0-0.04524-0.57999-0.03366-1.2891 0.02539-1.1998 0.09994-1.3008 0.08482-1.457-0.20703-0.33487-0.62571-0.22385-0.71448 0.94531-0.75977 0.61097-0.02367 1.5251-0.11599 2.0312-0.20508 0.81365-0.14321 1.0262-0.26295 1.8398-1.0352 0.50614-0.48036 1.2837-1.1361 1.7266-1.457 0.77992-0.56513 1.0908-1.0184 0.53711-0.7832-1.1885 0.5048-2.3457 0.70186-3.875 0.65625-1.5212-0.045365-1.6858-0.082642-2.877-0.66016-1.1269-0.54637-1.2616-0.65878-1.2617-1.0352-1.37e-4 -0.5613 0.2179-0.54057 1.5332 0.14648 0.98614 0.51512 1.2237 0.57477 2.5508 0.63281 1.5736 0.06882 3.381-0.27993 3.5352-0.68164 0.043503-0.11336-0.10114-0.52582-0.32031-0.91797-0.46477-0.83157-0.4824-1.0207-0.1543-1.5762 0.23658-0.4005 0.22738-0.42934-0.32031-1.0215-0.30971-0.33485-0.72427-0.92464-0.92188-1.3105-0.33033-0.64512-0.4261-0.71568-1.1816-0.88476-1.5015-0.33603-2.3335-1.528-2.3164-3.3203 0.025019-2.629 1.8619-4.9662 5.1875-6.6035 3.2816-1.6157 5.4985-1.5368 7.6523 0.27539 0.63199 0.53172 0.95805 0.67672 2.0566 0.91016 0.71803 0.15258 1.338 0.30873 1.377 0.34766 0.03893 0.03893 0.02336 0.31768-0.0332 0.61914-0.0701 0.37371-0.38538 0.84856-0.99219 1.4941l-0.89062 0.94727 0.36524 0.79883c0.4679 1.022 0.61261 2.5338 0.35742 3.7363-0.19382 0.91333-0.19142 0.92863 0.19727 1.2344 0.21629 0.17013 0.47331 0.54982 0.57031 0.84375 0.097 0.29393 0.21491 0.53516 0.26367 0.53516 0.19274 0 4.9854-2.5527 6.8359-3.6406 1.8354-1.079 1.958-1.1807 1.8828-1.5566-0.20747-1.037-1.1936-7.8582-1.1426-7.9023 0.03181-0.027509 1.355 0.048573 2.9395 0.16992l2.8809 0.2207 0.79102-0.39453c0.66023-0.32901 1.0044-0.39453 2.0703-0.39453 1.3228 0 2.2762 0.26082 2.4316 0.66602 0.04644 0.12102 0.20064 0.18977 0.34375 0.15234 0.05927-0.015498 0.14194 0.00739 0.23242 0.046875-4.1495-4.3636-9.9062-6.8357-15.928-6.8398zm15.928 6.8398c0.24698 0.26743 0.48729 0.54095 0.7207 0.82031l0.17383-0.029297-0.43359-0.45312c-0.15476-0.16153-0.31918-0.27604-0.46094-0.33789zm0.7207 0.82031-0.45313 0.076172c-0.58519 0.098866-0.62695 0.1389-0.62695 0.60937 0 0.27729-0.04164 0.71796-0.09375 0.97852l-0.0957 0.47461 1.5781 0.04297c0.76219 0.02121 1.2219 0.06455 1.4551 0.13281-0.53617-0.80956-1.1253-1.5827-1.7637-2.3145zm1.7637 2.3145c0.04198 0.06099 0.08364 0.12219 0.125 0.18359 0.0491-0.02281 0.07111-0.04821 0.06055-0.08008-0.01334-0.04023-0.08427-0.07387-0.18555-0.10352zm0.125 0.18359c-0.17849 0.08293-0.78966 0.11133-2.1875 0.11133-1.6291 0-2.3145-0.05268-2.3145-0.17578 0-0.09614-0.09708-0.25009-0.2168-0.34375-0.11972-0.09366-0.69175-0.56468-1.2715-1.0449l-1.0547-0.87305-3.0508-0.23633c-1.6773-0.13064-3.071-0.21607-3.0977-0.18945-0.02661 0.026621 0.37739 2.8039 0.89648 6.1719l0.94336 6.123-0.39062 5.2148c-0.2145 2.8681-0.33254 5.2511-0.26367 5.2949 0.06886 0.04385 1.6306-0.01409 3.4707-0.12891 3.2235-0.20112 5.9119-0.13488 9.5879 0.23438l0.74023 0.07422c0.22864-0.35705 0.23906-0.81743 0.30664-1.1035-0.0024-0.21089 0.13679-2.3838 0.30859-4.8301 0.27572-3.926 0.30429-7.6114 0.07813-8.877-0.57818-1.9117-1.414-3.7357-2.4844-5.4219zm1.4141 21.396c-0.01884-0.20166-0.30435-0.27845-0.67578-0.32399-3.2192-0.39475-5.5687-0.44017-9.6699-0.18555-2.3029 0.14297-4.2049 0.23644-4.2266 0.20898-0.02169-0.02745 0.15637-2.4995 0.39648-5.4941 0.24011-2.9946 0.41936-5.5933 0.39844-5.7754-0.03449-0.30009-0.18883-0.22982-1.6484 0.75-2.1336 1.4323-3.5206 2.5556-4.2402 3.4336-0.66628 0.81289-0.62051 0.24802-0.43359 5.1973 0.10268 2.7188-0.05907 7.537-0.41016 12.154l-0.17773 2.4434c0.24522 0.01648 0.4907 0.028851 0.73633 0.037107 8.5739-0.01048 16.361-4.6596 19.951-12.446zm-26.359 11.487-0.015625-5.041c-0.0094-2.7524-0.05156-5.0377-0.09375-5.0781-0.09124-0.08753-7.0508 1.0664-7.1738 1.1895-0.12934 0.12934 0.25039 0.11049 3.6055-0.17188 1.7066-0.14363 3.1352-0.23005 3.1738-0.19141 0.03865 0.03865-0.09622 1.1397-0.29883 2.4453-0.20261 1.3056-0.45437 3.2186-0.55859 4.252-0.19557 1.9391-0.28266 2.1154-0.875 1.7402-0.25289-0.16018-0.1746-1.2474 0.35938-4.9004 0.19295-1.32 0.30724-2.4451 0.25391-2.502-0.11344-0.121-6.52 0.40994-6.7637 0.56055-0.090684 0.05604-0.39474 0.44206-0.67578 0.85938l-0.50977 0.75977c-0.020033-0.01613-0.074536-0.0091-0.125-0.0039 2.6391 2.8475 5.9848 4.9459 9.6973 6.082zm-4.0098-35.51c-2.6191 0.12734-6.4387 2.46-7.6113 4.748-0.50588 0.9871-0.58952 2.6383-0.17383 3.4531 0.36999 0.72525 0.5854 0.92427 1.1035 1.0195 0.21089 0.03877 0.41876 0.07882 0.46094 0.08984 0.042181 0.01101 0.35203-0.05566 0.68945-0.14844 0.8238-0.22652 2.0952-1.169 4.2168-3.125 1.8357-1.6923 3.6913-3.034 4.957-3.584l0.74024-0.32031-0.85742-0.69922c-1.203-0.97983-1.994-1.3537-3.0176-1.4277-0.16279-0.011775-0.3332-0.014349-0.50781-0.0058594zm20.158 2.2773c1.9427 0 2.3008 0.0362 2.3008 0.23047 0 0.19428-0.35804 0.23047-2.3008 0.23047-1.9427 0-2.3008-0.0362-2.3008-0.23047 0-0.19427 0.35804-0.23047 2.3008-0.23047zm0.47266 1.9941c1.7825 0 2.2991 0.04369 2.25 0.19141-0.04623 0.1391-0.6802 0.20358-2.3125 0.23438-1.9335 0.03648-2.25 0.0098-2.25-0.19141 0-0.19962 0.34039-0.23438 2.3125-0.23438zm6.4297 0c1.9427 0 2.3008 0.0362 2.3008 0.23047 0 0.19428-0.35804 0.23047-2.3008 0.23047-1.9427 0-2.3008-0.0362-2.3008-0.23047 0-0.19428 0.35803-0.23047 2.3008-0.23047zm-6.1348 1.9941c1.4315 0 2.3008 0.05887 2.3008 0.1543 0 0.09544-0.86928 0.15234-2.3008 0.15234-1.4315 0-2.3008-0.05692-2.3008-0.15234 0-0.09544 0.86929-0.1543 2.3008-0.1543zm6.2891 0c1.4315 0 2.2988 0.05887 2.2988 0.1543 0 0.09544-0.86733 0.15234-2.2988 0.15234s-2.3008-0.05692-2.3008-0.15234c0-0.09544 0.86928-0.1543 2.3008-0.1543zm-22.963 0.89844c-0.33683-0.01804-0.68501 0.10781-0.94336 0.38281-0.4505 0.47954-0.69877 1.3801-0.48828 1.7734 0.28056 0.52422 1.4307 0.53631 2.1543 0.02344 0.51558-0.36545 0.58099-1.0972 0.15234-1.6992-0.21382-0.30028-0.53817-0.46243-0.875-0.48047zm16.93 0.97656c1.6323 0.0308 2.2663 0.09527 2.3125 0.23438 0.0491 0.14772-0.46559 0.19141-2.248 0.19141-1.9721 0-2.3145-0.03476-2.3145-0.23438 0-0.20125 0.31649-0.22788 2.25-0.19141zm6.1855 0.11914c1.4315 0 2.3008 0.05692 2.3008 0.15234 0 0.09544-0.86929 0.1543-2.3008 0.1543-1.4315 0-2.3008-0.05887-2.3008-0.1543 0-0.09544 0.86928-0.15234 2.3008-0.15234zm-5.8281 1.8398c1.9427 0 2.3008 0.0362 2.3008 0.23047 0 0.19428-0.35804 0.23047-2.3008 0.23047-1.9427 0-2.3008-0.0362-2.3008-0.23047 0-0.19427 0.35804-0.23047 2.3008-0.23047zm6.0332 0.03516c1.9335-0.03648 2.25-0.0098 2.25 0.19141 0 0.19962-0.34234 0.23438-2.3145 0.23438-1.7825 0-2.2991-0.04369-2.25-0.19141 0.04623-0.1391 0.68215-0.20358 2.3145-0.23438zm-21.828 1.3203c-0.29222-0.0056-0.97275 0.1619-2.3906 0.57031-1.3438 0.38708-3.4074 0.909-4.5859 1.1602-1.1785 0.25116-2.1838 0.52361-2.2344 0.60547-0.05059 0.08185 0.09992 0.54383 0.33594 1.0273 0.23602 0.48351 0.4317 0.97235 0.43359 1.0859 0.0063 0.3737 1.3682 0.11007 3.2773-0.63477 1.9532-0.76202 3.7691-1.8065 4.8164-2.7695 0.69252-0.63676 0.71602-0.68096 0.52344-0.98438-0.02388-0.03762-0.07837-0.0587-0.17578-0.06055zm16.102 0.63867c1.4315 0 2.3008 0.05887 2.3008 0.1543 0 0.09544-0.86929 0.15234-2.3008 0.15234s-2.3008-0.05692-2.3008-0.15234c0-0.09544 0.86928-0.1543 2.3008-0.1543zm5.8281 0c1.9427 0 2.3008 0.03619 2.3008 0.23047 0 0.19428-0.35804 0.23047-2.3008 0.23047s-2.3008-0.0362-2.3008-0.23047c0-0.19428 0.35804-0.23047 2.3008-0.23047zm-5.9805 1.9941c1.4315 0 2.2988 0.05692 2.2988 0.15234 0 0.09544-0.86733 0.1543-2.2988 0.1543-1.4315 0-2.3008-0.05887-2.3008-0.1543 0-0.09544 0.86928-0.15234 2.3008-0.15234zm5.8281 0c1.4315 0 2.3008 0.05692 2.3008 0.15234 0 0.09544-0.86928 0.1543-2.3008 0.1543s-2.3008-0.05887-2.3008-0.1543c0-0.09544 0.86929-0.15234 2.3008-0.15234zm-6.0586 1.916c1.6837 0 2.2906 0.05147 2.3379 0.19336 0.04932 0.14794-0.48376 0.19141-2.3379 0.19141-1.8541 0-2.3892-0.04347-2.3398-0.19141 0.04729-0.14188 0.65613-0.19336 2.3398-0.19336zm5.9043 0.07813c1.4315 0 2.3008 0.05692 2.3008 0.15234 0 0.09543-0.86929 0.1543-2.3008 0.1543-1.4315 0-2.3008-0.05887-2.3008-0.1543 0-0.09544 0.86928-0.15234 2.3008-0.15234zm-0.15234 1.8398c1.9427 0 2.2988 0.03619 2.2988 0.23047 0 0.19428-0.35608 0.23047-2.2988 0.23047-1.9427 0-2.3008-0.0362-2.3008-0.23047 0-0.19428 0.35803-0.23047 2.3008-0.23047zm-5.9062 0.07617c1.6837 0 2.2925 0.05147 2.3398 0.19336 0.04932 0.14794-0.48572 0.19141-2.3398 0.19141-1.8541 0-2.3872-0.04348-2.3379-0.19141 0.04729-0.14189 0.65418-0.19336 2.3379-0.19336zm-0.23047 1.918c1.9427 0 2.3008 0.03619 2.3008 0.23047 0 0.1938-0.34541 0.23047-2.1973 0.23047-1.2091 0-2.2445-0.04727-2.3008-0.10352-0.29431-0.29431 0.09506-0.35742 2.1973-0.35742zm5.9824 0c1.9427 0 2.3008 0.03619 2.3008 0.23047 0 0.1938-0.34736 0.23047-2.1992 0.23047-1.2091 0-2.2445-0.04727-2.3008-0.10352-0.29431-0.29431 0.09701-0.35742 2.1992-0.35742zm-30.439 9.3555c0.16354 0 0.18731 0.23502 0.11719 1.1113-0.10071 1.2586-0.10203 1.269-0.29883 1.002-0.22451-0.30462-0.069066-2.1133 0.18164-2.1133zm1.7871 0c0.10847 0 0.12578 0.48598 0.05078 1.4961-0.1168 1.5729-0.15412 1.7246-0.41016 1.7246-0.09894 0-0.12682-0.27437-0.07422-0.72852 0.04641-0.40069 0.12775-1.1243 0.17969-1.6094 0.05193-0.48505 0.16559-0.88281 0.25391-0.88281zm1.7246 0c0.17275 0 0.20375 0.18709 0.14648 0.88281-0.13742 1.6695-0.23238 2.1855-0.39844 2.1855-0.11386 0-0.13426-0.37126-0.06641-1.1738 0.05456-0.6454 0.09961-1.335 0.09961-1.5332 0-0.20991 0.09117-0.36133 0.21875-0.36133zm-5.3965 0.04883c0.026761-0.02299 0.070146-0.0021 0.13086 0.05859 0.092267 0.09227 0.14228 0.28467 0.11328 0.42774-0.028996 0.14306-0.10275 0.20638-0.16602 0.14258-0.063271-0.0638-0.11523-0.25621-0.11523-0.42774 0-0.11287 0.010348-0.17818 0.037109-0.20117z" fill="#fff"/>
</svg>
