<svg xmlns="http://www.w3.org/2000/svg" width="48" height="48" viewBox="0 0 48 48">
    <path d="M4.814 5.35A2.15 2.15 0 0 0 2.66 7.508V32.29a2.15 2.15 0 0 0 2.154 2.153H7.79c.01.062.02.126.02.19v8.016l8.89-8.206h26.486a2.15 2.15 0 0 0 2.155-2.155V7.505a2.15 2.15 0 0 0-2.154-2.154H4.814zm8.86 10.902a3.644 3.644 0 0 1 3.645 3.645 3.644 3.644 0 0 1-3.645 3.644 3.644 3.644 0 0 1-3.645-3.643 3.644 3.644 0 0 1 3.645-3.645zm10.326 0a3.644 3.644 0 0 1 3.644 3.645A3.644 3.644 0 0 1 24 23.54a3.644 3.644 0 0 1-3.644-3.643A3.644 3.644 0 0 1 24 16.252zm10.326 0a3.644 3.644 0 0 1 3.644 3.645 3.644 3.644 0 0 1-3.644 3.644 3.644 3.644 0 0 1-3.645-3.643 3.644 3.644 0 0 1 3.646-3.645z" fill="#fff"/>
</svg>
