<?xml version="1.0" encoding="UTF-8"?>
<svg viewBox="0 0 48 48" xmlns="http://www.w3.org/2000/svg">
    <defs>
        <style>.cls-1{fill:#fff;}</style>
    </defs>
    <g data-name="Layer 1">
        <path class="cls-1" d="M34.14,32.11a.76.76,0,0,0-1.09,0l-1.77,1.76-1.76-1.76a.76.76,0,0,0-1.09,0,.77.77,0,0,0,0,1.09L30.19,35l-1.76,1.77a.77.77,0,0,0,0,1.09.76.76,0,0,0,.54.23.78.78,0,0,0,.55-.23l1.76-1.77,1.77,1.77a.76.76,0,0,0,1.09,0,.77.77,0,0,0,0-1.09L32.37,35l1.77-1.76A.77.77,0,0,0,34.14,32.11Z"/>
        <path class="cls-1" d="m13.25 21.7 2.45-2.28 2.73 2.69 8.08-7.46 8.24 7.89v-13.16h-21.5zm7.15-10.07a2.44 2.44 0 1 1-2.4 2.43 2.43 2.43 0 0 1 2.4-2.43z"/>
        <path class="cls-1" d="M38,4H10A2,2,0,0,0,8,6V42a2,2,0,0,0,2,2H38a2,2,0,0,0,2-2V6A2,2,0,0,0,38,4ZM11.9,40.36A1.35,1.35,0,1,1,13.25,39,1.35,1.35,0,0,1,11.9,40.36Zm0-4A1.35,1.35,0,1,1,13.25,35,1.34,1.34,0,0,1,11.9,36.31Zm0-4.05a1.35,1.35,0,1,1,1.35-1.34A1.34,1.34,0,0,1,11.9,32.26Zm8.77,7.42h-5.4A.67.67,0,0,1,14.6,39a.68.68,0,0,1,.67-.68h5.4a.68.68,0,0,1,.67.68A.67.67,0,0,1,20.67,39.68Zm0-4h-5.4a.68.68,0,0,1,0-1.35h5.4a.68.68,0,0,1,0,1.35Zm0-4.05h-5.4a.68.68,0,0,1,0-1.35h5.4a.68.68,0,0,1,0,1.35Zm10.61,9.54A6.17,6.17,0,1,1,37.45,35,6.16,6.16,0,0,1,31.28,41.13Zm6.17-16.57a2.23,2.23,0,0,1-2.23,2.23H12.78a2.23,2.23,0,0,1-2.23-2.23V9a2.22,2.22,0,0,1,2.23-2.22H35.22A2.22,2.22,0,0,1,37.45,9Z"/>
    </g>
</svg>
