<?xml version="1.0" encoding="UTF-8" standalone="no"?>
<svg
   xmlns:dc="http://purl.org/dc/elements/1.1/"
   xmlns:cc="http://creativecommons.org/ns#"
   xmlns:rdf="http://www.w3.org/1999/02/22-rdf-syntax-ns#"
   xmlns:svg="http://www.w3.org/2000/svg"
   xmlns="http://www.w3.org/2000/svg"
   xmlns:sodipodi="http://sodipodi.sourceforge.net/DTD/sodipodi-0.dtd"
   xmlns:inkscape="http://www.inkscape.org/namespaces/inkscape"
   version="1.1"
   viewBox="0 0 48 48"
   id="svg90"
   sodipodi:docname="microg.svg"
   inkscape:version="0.92.3 (2405546, 2018-03-11)">
  <metadata
     id="metadata96">
    <rdf:RDF>
      <cc:Work
         rdf:about="">
        <dc:format>image/svg+xml</dc:format>
        <dc:type
           rdf:resource="http://purl.org/dc/dcmitype/StillImage" />
        <dc:title />
      </cc:Work>
    </rdf:RDF>
  </metadata>
  <defs
     id="defs94" />
  <sodipodi:namedview
     pagecolor="#ffffff"
     bordercolor="#666666"
     borderopacity="1"
     objecttolerance="10"
     gridtolerance="10"
     guidetolerance="10"
     inkscape:pageopacity="0"
     inkscape:pageshadow="2"
     inkscape:window-width="2560"
     inkscape:window-height="1385"
     id="namedview92"
     showgrid="true"
     inkscape:zoom="16"
     inkscape:cx="37.04316"
     inkscape:cy="25.228107"
     inkscape:window-x="1920"
     inkscape:window-y="27"
     inkscape:window-maximized="1"
     inkscape:current-layer="svg90"
     inkscape:pagecheckerboard="true"
     showguides="false">
    <inkscape:grid
       type="xygrid"
       id="grid52" />
  </sodipodi:namedview>
  <path
     style="fill:#ffffff;stroke-width:1.04999995"
     d="M 19.794922 3 C 19.269922 3 18.839859 3.3893125 18.755859 3.8828125 L 17.96875 9.4472656 A 15.54 15.54 0 0 0 14.419922 11.515625 L 9.1894531 9.40625 A 1.05 1.05 0 0 0 7.9082031 9.8574219 L 3.7089844 17.132812 C 3.4464844 17.584312 3.5619375 18.151063 3.9609375 18.476562 L 8.3925781 21.953125 A 16.485 16.485 0 0 0 8.2441406 24 C 8.2441406 24.693 8.3085781 25.376828 8.3925781 26.048828 L 3.9609375 29.523438 C 3.5619375 29.838438 3.4464844 30.405188 3.7089844 30.867188 L 7.9082031 38.144531 C 8.1707031 38.596031 8.7169531 38.784703 9.1894531 38.595703 L 14.419922 36.484375 C 15.501422 37.313875 16.68775 38.017234 17.96875 38.552734 L 18.755859 44.119141 C 18.839859 44.612641 19.269922 45 19.794922 45 L 28.195312 45 C 28.720312 45 29.150375 44.612641 29.234375 44.119141 L 30.021484 38.552734 A 15.54 15.54 0 0 0 33.570312 36.484375 L 38.800781 38.595703 A 1.05 1.05 0 0 0 40.080078 38.144531 L 44.28125 30.867188 C 44.54375 30.415688 44.428297 29.848937 44.029297 29.523438 L 39.597656 26.048828 C 39.681656 25.376828 39.744141 24.693 39.744141 24 C 39.744141 23.307 39.681656 22.625125 39.597656 21.953125 L 44.039062 18.476562 C 44.438063 18.161562 44.553516 17.594812 44.291016 17.132812 L 40.091797 9.8574219 C 39.829297 9.4059219 39.283047 9.21725 38.810547 9.40625 L 33.582031 11.515625 C 32.500531 10.686125 31.314203 9.9827656 30.033203 9.4472656 L 29.244141 3.8828125 C 29.149641 3.3893125 28.720312 3 28.195312 3 L 19.794922 3 z M 23.585938 11.160156 C 24.276771 11.13994 24.966768 11.175624 25.650391 11.265625 C 28.384879 11.625627 31.004849 12.86032 33.054688 14.910156 L 29.177734 18.787109 C 30.515954 20.11781 31.345703 21.960759 31.345703 24 C 31.345703 26.033268 30.521159 27.871474 29.189453 29.201172 L 33.054688 33.066406 C 28.955014 37.16608 22.577695 38.006329 17.556641 35.107422 C 12.535587 32.208515 10.073634 26.266274 11.574219 20.666016 C 12.455269 17.37789 14.608588 14.5712 17.556641 12.869141 C 19.439536 11.78205 21.513438 11.220804 23.585938 11.160156 z M 23.755859 16.650391 C 23.692447 16.652336 23.629816 16.668273 23.566406 16.671875 C 23.66914 16.665962 23.771168 16.657913 23.875 16.65625 C 23.835143 16.65682 23.795726 16.649167 23.755859 16.650391 z M 24.867188 16.705078 C 24.926587 16.712088 24.984015 16.724007 25.042969 16.732422 C 24.98413 16.723758 24.926219 16.712303 24.867188 16.705078 z M 22.757812 16.761719 C 22.678932 16.77513 22.60009 16.780834 22.521484 16.796875 C 22.598925 16.781164 22.679503 16.774979 22.757812 16.761719 z M 21.576172 17.064453 C 21.450739 17.108174 21.324967 17.150326 21.201172 17.201172 C 21.323819 17.150786 21.450288 17.108297 21.576172 17.064453 z M 21.066406 17.257812 C 20.885598 17.336286 20.707582 17.423617 20.53125 17.517578 C 20.705517 17.424378 20.884074 17.337022 21.066406 17.257812 z M 20.470703 17.548828 C 20.416251 17.578486 20.360599 17.603613 20.306641 17.634766 C 20.085938 17.762188 19.878721 17.9072 19.675781 18.056641 C 19.929567 17.871822 20.193783 17.700254 20.470703 17.548828 z M 19.652344 18.070312 C 19.394852 18.261416 19.14869 18.465487 18.917969 18.685547 C 19.148862 18.465137 19.394299 18.259681 19.652344 18.070312 z M 16.957031 21.898438 C 16.937062 21.963484 16.906351 22.023865 16.888672 22.089844 C 16.755422 22.587137 16.694456 23.08659 16.666016 23.583984 C 16.699019 23.000798 16.795716 22.436927 16.957031 21.898438 z M 16.65625 24.236328 C 16.660903 24.381672 16.664508 24.52585 16.677734 24.669922 C 16.664826 24.526877 16.660868 24.381638 16.65625 24.236328 z M 16.8125 25.556641 C 16.835812 25.663591 16.866486 25.767432 16.894531 25.873047 C 16.866886 25.767791 16.835547 25.663696 16.8125 25.556641 z M 17.146484 26.662109 C 17.169258 26.720307 17.186679 26.780299 17.210938 26.837891 C 17.18696 26.780544 17.16904 26.720186 17.146484 26.662109 z M 17.673828 27.742188 C 17.710317 27.803342 17.746848 27.863699 17.785156 27.923828 C 17.74717 27.863785 17.710105 27.803394 17.673828 27.742188 z M 18.425781 28.791016 C 18.433976 28.800453 18.442925 28.80896 18.451172 28.818359 C 18.442993 28.808953 18.433913 28.800464 18.425781 28.791016 z M 20.708984 30.552734 C 20.773404 30.584863 20.837339 30.618339 20.902344 30.648438 C 20.837057 30.617906 20.773224 30.585081 20.708984 30.552734 z "
     id="path88" />
  <ellipse
     style="fill:#ffffff"
     id="path28"
     ry="7.3583298"
     rx="7.5130095"
     cy="23.995224"
     cx="24.026875" />
  <ellipse
     style="fill:#ffffff"
     id="path30"
     cx="24.19631"
     cy="26.123884"
     rx="0.15467961"
     ry="0.26516503" />
  <path
     style="color:#000000;font-style:normal;font-variant:normal;font-weight:normal;font-stretch:normal;font-size:medium;line-height:normal;font-family:sans-serif;font-variant-ligatures:normal;font-variant-position:normal;font-variant-caps:normal;font-variant-numeric:normal;font-variant-alternates:normal;font-feature-settings:normal;text-indent:0;text-align:start;text-decoration:none;text-decoration-line:none;text-decoration-style:solid;text-decoration-color:#000000;letter-spacing:normal;word-spacing:normal;text-transform:none;writing-mode:lr-tb;direction:ltr;text-orientation:mixed;dominant-baseline:auto;baseline-shift:baseline;text-anchor:start;white-space:normal;shape-padding:0;clip-rule:nonzero;display:inline;overflow:visible;visibility:visible;opacity:1;isolation:auto;mix-blend-mode:normal;color-interpolation:sRGB;color-interpolation-filters:linearRGB;solid-color:#000000;solid-opacity:1;vector-effect:none;fill:#ffffff;fill-opacity:1;fill-rule:nonzero;stroke:none;stroke-width:1px;stroke-linecap:butt;stroke-linejoin:miter;stroke-miterlimit:4;stroke-dasharray:none;stroke-dashoffset:0;stroke-opacity:1;color-rendering:auto;image-rendering:auto;shape-rendering:auto;text-rendering:auto;enable-background:accumulate"
     d="m 18,9.7910156 -0.908203,0.4179684 6.455078,14 0.90625,-0.417968 z"
     id="path54"
     inkscape:connector-curvature="0" />
  <path
     style="color:#000000;font-style:normal;font-variant:normal;font-weight:normal;font-stretch:normal;font-size:medium;line-height:normal;font-family:sans-serif;font-variant-ligatures:normal;font-variant-position:normal;font-variant-caps:normal;font-variant-numeric:normal;font-variant-alternates:normal;font-feature-settings:normal;text-indent:0;text-align:start;text-decoration:none;text-decoration-line:none;text-decoration-style:solid;text-decoration-color:#000000;letter-spacing:normal;word-spacing:normal;text-transform:none;writing-mode:lr-tb;direction:ltr;text-orientation:mixed;dominant-baseline:auto;baseline-shift:baseline;text-anchor:start;white-space:normal;shape-padding:0;clip-rule:nonzero;display:inline;overflow:visible;visibility:visible;opacity:1;isolation:auto;mix-blend-mode:normal;color-interpolation:sRGB;color-interpolation-filters:linearRGB;solid-color:#000000;solid-opacity:1;vector-effect:none;fill:#ffffff;fill-opacity:1;fill-rule:nonzero;stroke:none;stroke-width:1px;stroke-linecap:butt;stroke-linejoin:miter;stroke-miterlimit:4;stroke-dasharray:none;stroke-dashoffset:0;stroke-opacity:1;color-rendering:auto;image-rendering:auto;shape-rendering:auto;text-rendering:auto;enable-background:accumulate"
     d="m 10.105469,20.511719 -0.2109378,0.976562 13.9999998,3 0.210938,-0.976562 z"
     id="path58"
     inkscape:connector-curvature="0" />
  <path
     style="color:#000000;font-style:normal;font-variant:normal;font-weight:normal;font-stretch:normal;font-size:medium;line-height:normal;font-family:sans-serif;font-variant-ligatures:normal;font-variant-position:normal;font-variant-caps:normal;font-variant-numeric:normal;font-variant-alternates:normal;font-feature-settings:normal;text-indent:0;text-align:start;text-decoration:none;text-decoration-line:none;text-decoration-style:solid;text-decoration-color:#000000;letter-spacing:normal;word-spacing:normal;text-transform:none;writing-mode:lr-tb;direction:ltr;text-orientation:mixed;dominant-baseline:auto;baseline-shift:baseline;text-anchor:start;white-space:normal;shape-padding:0;clip-rule:nonzero;display:inline;overflow:visible;visibility:visible;opacity:1;isolation:auto;mix-blend-mode:normal;color-interpolation:sRGB;color-interpolation-filters:linearRGB;solid-color:#000000;solid-opacity:1;vector-effect:none;fill:#ffffff;fill-opacity:1;fill-rule:nonzero;stroke:none;stroke-width:1px;stroke-linecap:butt;stroke-linejoin:miter;stroke-miterlimit:4;stroke-dasharray:none;stroke-dashoffset:0;stroke-opacity:1;color-rendering:auto;image-rendering:auto;shape-rendering:auto;text-rendering:auto;enable-background:accumulate"
     d="m 23.554688,23.771484 -6.46875,12.625 0.890624,0.457032 6.46875,-12.625 z"
     id="path66"
     inkscape:connector-curvature="0" />
</svg>
