<?xml version="1.0" encoding="UTF-8"?>
<svg version="1.1" viewBox="0 0 48 48" xmlns="http://www.w3.org/2000/svg">
    <g>
        <path d="m24.467 3.7637v17.513c-1.8523-1.0481-3.9483-1.6008-6.0818-1.6036-6.7867 0-12.288 5.4459-12.288 12.164s5.5017 12.164 12.288 12.164c6.753-0.0026 12.239-5.3988 12.283-12.083l0.06758 0.10656v-17.016l4.8863 2.82c4.5745 3.4661 2.7429 8.6609 2.5055 11.171 1.6445-1.9178 2.9244-5.0619 3.3996-8.4522-0.1015-6.1613-3.2579-8.4821-6.1754-11.103-3.7473-1.6726-7.2707-3.7497-10.885-5.679zm-6.0766 22.321a5.7221 5.7221 0 0 1 5.7232 5.7206 5.7221 5.7221 0 0 1-5.7232 5.7232 5.7221 5.7221 0 0 1-5.7232-5.7232 5.7221 5.7221 0 0 1 5.7232-5.7206z" fill="#fff"/>
    </g>
</svg>
