<?xml version="1.0" encoding="UTF-8"?>
<svg viewBox="0 0 48 48" xmlns="http://www.w3.org/2000/svg">
    <defs>
        <style>.cls-1{fill:#f0f9ff;}.cls-2{fill:none;stroke:#fff;stroke-linecap:round;}</style>
    </defs>
    <g data-name="Layer 1">
        <path class="cls-1" d="M36.44,17.78C36.44,9.62,30.87,3,24,3S11.56,9.62,11.56,17.78c0,6.56,3.6,12.11,8.57,14h0c1.95.74,1.79,3,1.56,4.62l-1,4.71a3.37,3.37,0,1,0,6.68,0l-1-4.71c-.23-1.6-.39-3.88,1.56-4.62h0C32.84,29.89,36.44,24.34,36.44,17.78ZM24,29.14c-5.1,0-9.24-5.08-9.24-11.36S18.9,6.41,24,6.41s9.24,5.09,9.24,11.37S29.1,29.14,24,29.14Z"/>
        <line class="cls-2" x1="22.29" x2="19.34" y1="10.77" y2="13.72"/>
        <line class="cls-2" x1="25.99" x2="19.63" y1="11.06" y2="17.41"/>
    </g>
</svg>
