<?xml version="1.0" encoding="UTF-8"?>
<svg version="1.1" viewBox="0 0 48 48" xmlns="http://www.w3.org/2000/svg">
    <g fill="#fff">
        <path d="m17.807 14.711c-7.3548 0-13.317 5.9623-13.317 13.317s5.9623 13.317 13.317 13.317c5.3291 0.04847 10.082-0.16921 15.965-0.05388 4.4919-4.16e-4 8.1333-3.6418 8.1337-8.1337 6.1e-4 -4.4927-3.641-8.1351-8.1337-8.1356-0.98737 9.28e-4 -1.9663 0.18161-2.889 0.5332-1.1879-6.2863-6.6781-10.84-13.076-10.844z"/>
        <path d="m33.238 7.1284a10.255 10.255 0 0 0-9.6924 6.941c4.1901 1.6233 7.4068 5.3084 8.2823 9.9414 0.92265-0.3516 1.9016-0.53228 2.889-0.5332 1.9207 1.78e-4 3.6823 0.67018 5.0738 1.7835a10.255 10.255 0 0 0 3.7027-7.8773 10.255 10.255 0 0 0-10.255-10.255z"/>
    </g>
</svg>
