<?xml version="1.0" encoding="UTF-8"?>
<svg viewBox="0 0 48 48" xmlns="http://www.w3.org/2000/svg">
    <path d="m22.447 43.967-0.76319-0.79596-0.0026-0.21055 1.494-1.4841h0.8601l2.1135-0.22584 2.6703-0.68655 1.2325-0.53947 1.8211-0.91884 1.26-0.84958 1.6433-1.2369 2.3675-2.3727 1.4903-2.2286 1.0054-2.0849 0.62411-1.8516 0.30414-1.4458 0.1116-1.2959 0.1116-1.2959-0.22051-2.7301-0.20884-0.96393-0.20884-0.96393-0.45466-1.3274-0.45465-1.3274-1.151-2.3064-0.55335-0.83656-0.55342-0.83656-0.99632-1.0478-0.9963-1.0478-1.6547-1.2915-1.9405-1.1817-2.3731-1.0192-2.2595-0.58439-1.3352-0.24285-2.2595-0.12793v-3.1838l1.9203-0.059326 2.5161 0.4249 2.753 0.82485 2.773 1.3382 1.5406 0.95147 2.0541 1.5332 2.986 2.9977 1.3659 2.0541 1.237 2.5676 0.8301 2.3278 0.21359 0.83655 0.21359 0.83655 0.19678 1.3375 0.19678 1.3375-0.0032 2.9784-0.30275 2.1301-0.2555 1.0107-0.25549 1.0107-0.47602 1.3132-0.47601 1.3132-1.0278 2.0547-1.0693 1.6433-0.55312 0.66327-0.55312 0.66326-1.9035 1.8881-1.5967 1.2896-2.1568 1.4182-2.4649 1.1947-1.8215 0.63982-2.0044 0.5176-2.2337 0.29728-1.6034 0.0038zm-1.1767-4.5066-0.35946-0.04523-1.6433-0.2985-1.6433-0.53065-1.6433-0.79074-2.1568-1.4318-1.632-1.493-1.1029-1.2509-1.319-1.9666-0.89879-1.9361-0.4343-1.3352-0.49716-2.0712-0.25475-2.3069 0.1199-2.2977 0.3372-1.5406 0.62307-1.9514 0.98083-1.9514 1.3049-1.8411 1.9702-1.9777 2.0353-1.4458 1.8487-1.0356 2.61-1.043h0.43305l1.7327 1.0588-0.0028 0.12228-1.0756 1.9465-0.51352 0.1434-1.9821 0.61812-1.8179 1.03-0.71893 0.57322-0.71893 0.57322-1.4046 1.5859-0.89413 1.3446-1.0389 2.1473-0.44443 1.6433-0.018 4.0055 0.37691 1.7138 0.41382 1.2646 0.92412 1.8487 0.49944 0.67478 0.49943 0.67478 1.8053 1.7361 1.4379 0.95234 1.5406 0.83011 1.9344 0.63172 1.9684 0.32364 2.5676-0.10636 1.9905-0.52672 1.8427-0.79444 1.7128-1.1434 1.4379-1.2456 1.2463-1.4336 0.96428-1.7031 0.83601-2.1328 0.14655-0.70284 0.14655-0.70284 0.10629-1.0358 0.10629-1.0358-0.11198-1.0464-0.11205-1.0464-0.31992-1.3015-0.25575-0.63305-0.25575-0.63305-0.39991-0.77028-0.39997-0.77028-1.3579-1.8065-1.3349-1.3349-1.4689-1.037-1.5489-0.78335-2.0458-0.62587-1.6433-0.21678-1.1297-0.04968-0.04768-3.1637 2.4099 0.12762 2.0541 0.50576 1.8487 0.65108 2.0202 1.0342 1.5491 1.1114 1.3318 1.1714 1.5723 1.9514 0.99427 1.6981 0.90601 2.0587 0.4952 1.7088 0.12428 1.0673 0.12428 1.0673-0.05949 1.6946-0.0595 1.6946-0.32964 1.8487-0.50742 1.685-0.69511 1.624-1.0688 1.7235-1.4515 1.7099-1.5176 1.3983-1.5797 1.1289-1.6433 0.94549-2.2332 0.83998-1.7723 0.40894-4.0055 0.07076-0.35946-0.04524zm0.15406-5.4175-0.82163-0.13568-1.163-0.33952-1.3643-0.61213-1.1679-0.77389-1.3643-1.2858-1.0248-1.4873-0.26125-0.5184-0.26125-0.5184-0.35535-1.0735-0.35535-1.0735-0.11022-0.66758-0.11022-0.66758-0.04955-0.51913-0.04955-0.51914 0.13962-0.19526 1.5961-1.1881 0.2716-0.10424 1.0769 1.5578 0.18632 0.89482 0.18631 0.89482 0.27827 0.77028 0.27827 0.77028 1.1254 1.7022 1.2098 1.0068 1.3034 0.62204 1.2175 0.32877 2.0541 0.11438 1.4302-0.22408 1.8564-0.90786 1.0323-0.89097 0.85758-1.0101 0.36758-0.74392 0.36758-0.74392 0.16225-0.75643 0.16225-0.75643 0.0048-1.9514-0.16027-0.73588-0.16027-0.73587-0.37035-0.7595-0.37035-0.7595-0.80696-0.97653-1.1047-0.90945-1.5219-0.70238-1.2678-0.32785-1.2484-0.13048v-3.2573h0.78684l2.1402 0.38942 1.4379 0.54492 1.5044 0.81133 1.2294 0.946 1.3434 1.5706 0.60372 1.2325 0.60372 1.2325 0.26842 0.97569 0.26842 0.97569 0.05026 1.3352 0.05025 1.3352-0.63069 2.4649-0.93682 1.9399-0.90161 1.2635-1.5831 1.4784-1.3888 0.82506-1.7948 0.70461-1.562 0.32279-2.3622 0.08431z" fill="#fff" stroke-width=".1027"/>
</svg>
