<?xml version="1.0" encoding="UTF-8"?>
<svg version="1.1" viewBox="0 0 48 48" xmlns="http://www.w3.org/2000/svg">
    <defs>
        <style>.cls-1{fill:#fff;}</style>
    </defs>
    <path class="cls-1" d="m24 2a22 22 0 0 0-22 22 22 22 0 0 0 22 22 22 22 0 0 0 22-22 22 22 0 0 0-22-22zm-1.1152 7.6406h2.498v1.498c3.1316 0.49196 5.5599 2.4328 5.7422 5.7441l-3.9941 0.5c-0.38957-1.3186-0.68173-1.644-1.748-2.498l0.021485 6.2109c3.7859 0.079897 6.4858 3.4346 6.4707 7.2754-0.047444 3.9732-2.6639 6.4503-6.4922 6.9922v2.9961h-2.498v-2.9961c-4.0506-0.1998-6.2078-3.1666-6.7422-6.9824l4.2227-0.2832c0.32713 1.2611 1.2035 2.7031 2.5195 3.5098l-0.021485-6.6777c-3.5636-0.62183-5.9727-3.4389-5.9727-7.5469 0.044958-3.6935 2.4954-5.7472 5.9941-6.2441v-1.498zm0 5.2441c-2.6696 0.93397-2.6596 4.1753 0 5.2441v-5.2441zm2.498 10.738v6.2441c0.61431-0.23723 1.1283-0.41364 1.6152-0.89063 1.2636-1.2336 1.6811-4.3796-1.6152-5.3535z"/>
</svg>
