<?xml version="1.0" encoding="UTF-8"?>
<svg version="1.1" viewBox="0 0 48 48" xmlns="http://www.w3.org/2000/svg">
    <path d="m17.511 6.4331-0.29327 5.8788c-2.3846 0.36341-4.7871 0.18192-8.2358 0.15544l0.17255 4.1768h7.3992c0.02024 1.9863-0.163 4.022-0.20789 5.0227-12.039 5.6271-12.127 23.341 0.9415 15.882l0.43093 2.5009c0.90943-0.31589 4.109-1.7345 4.109-1.7345 0.15894-1.4005-0.2372-2.2355-0.45585-4.0692 0.18189-0.351 3.4947-3.8171 4.8828-6.1146 0.66052-1.0945 1.9085-3.7781 3.0516-5.2936 1.5955-0.3191 7.0541 2.4633 6.6521 7.2082-0.4595 5.4501-7.4732 7.5594-12.065 7.6583 0.24889 1.1838 1.5279 2.9298 2.3007 3.7717 2.8439 0.45612 6.1283-0.89922 8.2295-2.0135 6.8159-3.6568 8.6092-12.885 2.2337-17.908-1.7104-1.3498-3.9313-2.0582-6.0628-2.3581l0.57817-2.0782-4.5656-1.0176-0.62074 2.8222-4.9211 0.91187c0-0.93495-0.21454-2.6748 0.14787-3.8431 4.1409-0.40899 7.2341-0.73569 11.934-1.9006l-0.31911-4.1482s-7.2029 1.8535-11.177 2.0182l0.42273-5.0537zm6.6492 16.593c-0.84242 1.7614-3.1556 5.2692-3.1556 5.2692 0-0.94452-0.68088-3.6608-0.19266-4.3564 1.0073-0.55631 2.0131-0.80992 3.3482-0.91278zm-7.9256 3.51 0.47135 5.9617c-1.6116 1.9914-3.8696 3.2044-5.0704 2.2552-0.97295-3.1531 3.3038-7.2321 4.5991-8.2169z" fill="#fff"/>
</svg>
