<?xml version="1.0" encoding="UTF-8"?>
<svg viewBox="0 0 48 48" xmlns="http://www.w3.org/2000/svg">
    <defs>
        <style>.a{fill:#fff;}</style>
    </defs>
    <path class="a" d="M42.58,37l-2.74-3.4.86.06-1.6-2.47,1.17.16L38.85,29.5h1.39l-1.85-2,1.73.22-1.7-2.07h.77s-.82-1.34-1.06-1.37S31,22.22,28.37,20.25s-6.73-6.32-9.21-6.73c-1.67-.27-10.95.18-11.29.18h0a.85.85,0,0,0-.53-.59,1.34,1.34,0,0,0-1.81.58c-.33.7-.5,2,.17,2.43a1.22,1.22,0,0,0,.51.19h0c.21.15,6.24,8.55,8.33,10.4a33.19,33.19,0,0,0,3.13,2.41,26.72,26.72,0,0,0,3.65.58c3.55,0,8-3.45,8.22-3.58s1.67.82,1.54,1-1.11-.32-1.23-.27S26.46,30.53,22,30.53s-4.37-1.4-4.37-1.4l-.75,1.32L18.44,32a.65.65,0,0,1,0,.87l-3.56,4.27a.85.85,0,0,0,0,1.09C16.18,39.79,20.4,44,28.48,44a18.61,18.61,0,0,0,14.07-5.89A.86.86,0,0,0,42.58,37Z"/>
    <path class="a" d="M39.68,21.26c.33-.61,6.73-10.32-1.06-15-5.65-3.4-9.26-2.5-11.85-.34l0,0c-1.34-.55-3,.38-3.69,2.07a3.76,3.76,0,0,0-.12,2.61l-.05.08L17,11s5.83,2.07,7.33,3.7A25,25,0,0,0,31,19.84a65.59,65.59,0,0,0,9.05,3.33S39.36,21.86,39.68,21.26ZM27.2,9.74a2.23,2.23,0,0,1-2.67,1.54,2.22,2.22,0,0,1-.82-3,2.23,2.23,0,0,1,2.67-1.54A2.22,2.22,0,0,1,27.2,9.74Z"/>
</svg>
