<?xml version="1.0" encoding="UTF-8"?>
<svg version="1.1" viewBox="0 0 48 48" xmlns="http://www.w3.org/2000/svg">
    <path d="m26.693 37.768c2.5446-0.38212 4.8493-1.2118 6.914-2.4889 0.89097-0.55113 1.9075-1.3127 1.9702-1.4761l0.01222-5.4697c3.78e-4 -0.1691-0.4839 0.25404-0.80632 0.65071-1.1409 1.4037-2.4029 2.3204-3.812 2.769-1.2106 0.38543-1.8444 0.49555-2.4789 0.43069-0.7288-0.0745-1.8742-0.33229-2.4657-0.55492-0.58925-0.2218-0.83782-0.23346-1.3569-0.06367-0.52428 0.17148-0.86105 0.09475-1.2803-0.29174-0.38822-0.35785-0.65705-0.8569-0.65705-1.2198 0-0.31046 0.3013-0.91401 0.59466-1.1912 0.8443-0.79772 2.1775-0.25147 2.437 0.9985 0.0861 0.41476 0.1024 0.43512 0.49046 0.61278 0.63828 0.29222 1.4287 0.42249 2.5633 0.42249 1.4995 0 2.1195-0.19039 3.4399-1.0563 1.2298-0.80646 2.5254-2.2984 3.1157-3.5876 0.23373-0.51052 0.33522-1.4913 0.17439-1.6851l-22.757-0.0143 0.03669 9.25c0.35039 0.32531 1.7927 1.4215 2.7204 1.9386 1.9259 1.0736 4.5272 1.8746 6.951 2.1405 0.89604 0.09831 3.1961 0.03572 4.1939-0.11412zm-14.565-15.609c0.07799-0.81397 0.4145-2.2353 0.71094-3.0029 0.14451-0.37418 0.26274-0.69912 0.26274-0.72209-1.1218-0.1025-2.1405 0.62277-2.9046 1.2009-1.0496 0.98434-1.5066 2.0074-1.5794 3.5353-0.033661 0.70714-0.012448 0.96776 0.12208 1.4998 0.31577 1.2487 0.97881 2.2244 1.9682 2.8963 0.50905 0.34568 1.2139 0.76499 1.3336 0.72804-0.02675-2.1438-0.01027-3.9325 0.08631-6.1353zm25.246 5.5028c1.642-0.95628 2.4448-2.405 2.4448-4.4116 0-0.51924-0.04719-1.0492-0.11818-1.3273-0.33804-1.3241-1.3387-2.5567-2.581-3.1793-0.45648-0.22878-1.4842-0.47058-1.5825-0.37232-0.03508 0.03508 0.05415 0.41237 0.19829 0.83844 0.57688 1.7052 0.61799 2.056 0.6461 5.5122 0.01389 1.7086 0.04046 3.1503 0.05905 3.2037 0.06005 0.17259 0.30103 0.10448 0.93343-0.26382zm-1.79-4.5286c0.06854-0.1109-0.10519-1.7542-0.24668-2.3333-0.16263-0.66565-0.66315-1.9999-1.0051-2.6795-0.62247-1.2369-2.1755-3.0067-3.3668-3.8368-0.32015-0.22307-0.60694-0.45-0.63731-0.50427 0.4262-1.2533 1.2379-2.5005 1.7796-3.7669 0.08016-0.59759-0.42819-1.0962-1.0069-0.98766-0.14839 0.027836-0.33576 0.12156-0.41638 0.20827-0.74167 1.2592-1.2808 2.4264-2.1016 3.6301-0.09279 0.01322-0.61702-0.09961-1.165-0.25073-1.3542-0.37345-1.9732-0.46136-3.2486-0.46136-1.2907 7e-6 -2.2639 0.15073-3.4508 0.53445-0.46293 0.14965-0.89116 0.25311-0.95162 0.22991-0.75596-1.1729-1.418-2.5543-2.186-3.7792-0.22293-0.11931-0.6302-0.095693-0.85162 0.049382-0.27809 0.18221-0.46123 0.60358-0.40126 0.92323 0.02685 0.14313 0.43037 0.98806 0.89671 1.8776 0.46634 0.88956 0.84788 1.6809 0.84788 1.7586 0 0.08799-0.2708 0.34184-0.7184 0.67342-0.9067 0.67168-2.1505 1.9617-2.7274 2.8286-0.96743 1.454-1.7097 3.6874-1.7614 5.3001-0.0083 0.2563-0.01077 0.50968-0.0057 0.56307l22.724 0.02279zm-17.142-4.2415c-0.24943-0.13533-0.5254-0.63292-0.52296-0.94294 0.0025-0.31545 0.26519-0.84457 0.49365-0.99427 0.70628-0.46277 1.601 0.08029 1.601 0.97176 0 0.83454-0.8503 1.3569-1.5717 0.96545zm10.449-0.03033c-0.35262-0.215-0.5145-0.56661-0.47071-1.0224 0.09817-1.0217 1.2245-1.4207 1.8171-0.64376 0.38893 0.50992 0.32546 1.2316-0.14298 1.6257-0.29089 0.24477-0.83813 0.26314-1.2034 0.04041zm-21.891-13.861h34c1.108 0 2 0.892 2 2v34c0 1.108-0.892 2-2 2h-34c-1.108 0-2-0.892-2-2v-34c0-1.108 0.892-2 2-2z" fill="#fff"/>
</svg>
