<?xml version="1.0" encoding="UTF-8" standalone="no"?>
<svg xmlns="http://www.w3.org/2000/svg" viewBox="0 0 48 48" version="1.1">
  <path
     style="fill:#ffffff;"
     d="M 9.1171875 5 C 8.5051658 4.9858093 8.0005301 5.4897817 8 6.1171875 L 8 24 L 8 41.882812 C 8.0007525 42.743156 8.9093513 43.281072 9.6367188 42.851562 L 24.746094 33.910156 L 39.857422 24.96875 C 40.584026 24.537911 40.584026 23.462089 39.857422 23.03125 L 24.746094 14.089844 L 9.6367188 5.1484375 C 9.4782243 5.054833 9.3000671 5.0042506 9.1171875 5 z M 19.242188 15.867188 L 20.791016 15.9375 L 20.791016 16.037109 C 20.734607 16.709802 20.849139 17.095911 21.058594 17.4375 C 21.272178 17.785827 21.624261 18.106897 22.056641 18.492188 C 22.921313 19.262709 24.06427 20.425705 24.03125 22.583984 L 22.478516 22.5625 C 22.504101 20.890375 21.871163 20.405812 21.023438 19.650391 C 20.947367 19.582604 20.870266 19.469427 20.791016 19.398438 L 20.791016 30.376953 L 20.785156 30.376953 A 3.4059845 2.8989448 0 0 1 20.785156 30.388672 A 3.4059845 2.8989448 0 0 1 17.380859 33.287109 A 3.4059845 2.8989448 0 0 1 13.974609 30.388672 A 3.4059845 2.8989448 0 0 1 17.380859 27.490234 A 3.4059845 2.8989448 0 0 1 19.238281 27.960938 L 19.238281 15.9375 L 19.255859 15.9375 C 19.257939 15.90872 19.239487 15.896268 19.242188 15.867188 z "
     id="path849" />
</svg>
