<?xml version="1.0" encoding="UTF-8"?>
<svg viewBox="0 0 48 48" xmlns="http://www.w3.org/2000/svg">
    <path d="m6.2956 39.944c-2.313-1.5692-0.80378-4.8022 1.9037-4.078 0.6133 0.16404 0.77681 0.09422 3.5906-1.5332 0.6288-0.36368 0.87256-0.50147 1.1624-0.6571 1.5374-0.82549 1.8321-1.6242 1.8321-4.9654 0-2.8044-0.0061-2.8431-0.54996-3.5108-1.5834-1.9437-0.10996-4.5189 2.1875-3.8233 0.51454 0.15579 1.0573 0.05821 1.5751-0.28317 0.10907-0.07191 0.25185-0.1536 0.3173-0.18152 0.06545-0.02792 0.28383-0.14974 0.4853-0.27071 0.20147-0.12097 0.93303-0.54121 1.6257-0.93387 2.4934-1.4135 2.6007-1.6329 2.6316-5.3825 0.02567-3.1134 0.06458-2.8818-0.62123-3.6952-1.6077-1.9067 0.36362-4.6365 2.5882-3.5841 1.464 0.69261 1.7233 2.2999 0.59684 3.7002-0.4845 0.60227-0.4845 0.60227-0.4845 3.4822 0 3.6895 0.12832 4.033 1.8848 5.0467 0.46856 0.27041 0.95902 0.55425 1.0899 0.63074 2.7831 1.6265 2.9073 1.6759 3.7017 1.4698 2.2488-0.58326 3.8599 2.0477 2.2722 3.7106-0.67373 0.70566-0.65918 0.62567-0.65918 3.6247 0 2.6574 0 2.6574 0.19831 3.1133 0.37259 0.85667 0.95546 1.5045 1.701 1.8907 0.13333 0.06905 0.37628 0.20292 0.53988 0.29747 0.16361 0.09455 0.41348 0.23901 0.55527 0.32102 2.8138 1.6274 2.9773 1.6972 3.5906 1.5332 2.3274-0.62249 4.0471 1.9599 2.4343 3.6556-1.3017 1.3685-3.5582 0.67335-3.937-1.213-0.05125-0.25521-0.46242-0.75147-0.74096-0.8943-0.11906-0.06106-0.3414-0.18388-0.4941-0.27295-0.46579-0.2717-2.798-1.6182-3.0936-1.7861-0.1527-0.08673-0.31333-0.18031-0.35696-0.20795-0.67328-0.42657-2.2576-0.30006-3.2064 0.25604-0.26987 0.15817-0.50303 0.28758-0.51813 0.28758-0.0151 0-0.25413 0.14225-0.53119 0.3161-0.27706 0.17386-0.61083 0.37019-0.74171 0.43628-0.13088 0.0661-0.38076 0.20335-0.55527 0.30501-0.17451 0.10166-0.44883 0.26037-0.60959 0.3527-1.0049 0.57717-1.1 0.68064-1.3747 1.4972-0.74426 2.2116-3.5453 2.2135-4.3477 3e-3 -0.10494-0.28909-0.25091-0.61737-0.32439-0.72952-0.13897-0.2121-0.88259-0.7086-1.6727-1.1168-0.13088-0.06762-0.36949-0.20082-0.53024-0.29598-1.5289-0.90518-2.3886-1.3642-2.7221-1.4533-0.66241-0.17708-1.9195-0.09963-2.3004 0.14172-0.04363 0.02764-0.20426 0.12122-0.35696 0.20795-0.29561 0.1679-2.6279 1.5144-3.0936 1.7861-0.1527 0.08907-0.37504 0.2119-0.4941 0.27295-0.27853 0.14283-0.6897 0.63909-0.74096 0.8943-0.31563 1.5715-2.1808 2.467-3.4065 1.6354zm1.6983-1.4399c0.26132-0.29763 0.30135-0.49474 0.15758-0.77587-0.37556-0.73438-1.4979-0.50758-1.4979 0.30268 0 0.7141 0.86167 1.0183 1.3403 0.47318zm16.613 0.11831c0.42121-0.33132 0.34953-1.0392-0.13045-1.2883-0.54801-0.2844-1.0854 0.05534-1.0854 0.68617 0 0.6395 0.71699 0.99458 1.2159 0.60215zm16.718-0.06979c0.17167-0.17167 0.23187-0.30713 0.23187-0.52171 0-0.81027-1.1223-1.0371-1.4979-0.30268-0.3725 0.72838 0.67797 1.4124 1.266 0.82439zm-18.333-2.7772c0.05217-0.09748 0.08212-1.1783 0.08212-2.964 0-3.93 0.0067-3.9175-3.0143-5.6488-0.58899-0.33752-1.2137-0.69848-1.3882-0.80213-1.9564-1.162-1.889-1.2606-1.8501 2.7068 0.03365 3.4307 0.16941 3.7266 2.2479 4.8993 0.99659 0.56231 1.1114 0.62833 1.929 1.1095 0.278 0.16361 0.52307 0.29747 0.5446 0.29747 0.02153 0 0.14128 0.07273 0.26611 0.16162 0.50821 0.36188 1.058 0.47353 1.1829 0.24022zm3.0327-0.04057c0.14411-0.06618 0.36911-0.18506 0.49999-0.26417 0.37338-0.22568 1.0681-0.62452 2.5873-1.4853 2.1585-1.223 2.2514-1.4398 2.2514-5.2512 0-3.586 0.08278-3.4567-1.5865-2.4793-0.39266 0.2299-0.83885 0.48476-0.99155 0.56634-0.1527 0.08159-0.42042 0.23662-0.59493 0.34453-0.17451 0.10791-0.42439 0.24899-0.55527 0.31353-0.13088 0.06453-0.30936 0.16225-0.39662 0.21715-0.08726 0.0549-0.34344 0.21642-0.5693 0.35894-1.3523 0.85334-1.5328 1.4153-1.5328 4.7723 0 3.35-0.0094 3.3194 0.88818 2.9072zm-1.2029-9.1277c0.23856-0.06602 0.49694-0.13551 0.57419-0.15441 0.07725-0.0189 0.23788-0.10186 0.35696-0.18435 0.11908-0.08249 0.27006-0.17282 0.3355-0.20074 0.06545-0.02792 0.28382-0.14974 0.4853-0.27071 0.20147-0.12097 0.92909-0.54121 1.6169-0.93387 2.4288-1.3865 2.4873-1.2179-1.1321-3.2606-0.16271-0.09183-0.42077-0.24324-0.57347-0.33648-0.1527-0.09323-0.36687-0.21269-0.47594-0.26546-0.10907-0.05277-0.28755-0.15546-0.39662-0.22821-0.46738-0.31176-1.4901-0.45653-2.1418-0.30317-0.19633 0.0462-0.41579 0.09613-0.4877 0.11094-0.0719 0.01481-0.60734 0.30216-1.1899 0.63855-0.58252 0.3364-1.1841 0.67971-1.3368 0.76292-0.1527 0.08321-0.40903 0.23016-0.56962 0.32654-0.16059 0.09639-0.49971 0.29158-0.75358 0.43377-1.1783 0.65989-1.1579 1.0172 0.09368 1.6485 0.13088 0.06602 0.41645 0.2262 0.6346 0.35597 0.21814 0.12976 0.46801 0.27341 0.55527 0.31922 0.08726 0.0458 0.30143 0.16941 0.47595 0.27467 0.17451 0.10526 0.47793 0.28223 0.67426 0.39325 0.19633 0.11102 0.4105 0.23455 0.47594 0.2745 0.35465 0.2165 0.76081 0.44017 0.83156 0.45792 0.04437 0.01113 0.25916 0.07207 0.4773 0.1354 0.52046 0.15112 0.93908 0.15278 1.47 0.0059zm-8.4704-2.578c0.34202-0.37538 0.26031-0.92224-0.17113-1.1453-0.93013-0.48099-1.6551 0.76386-0.76725 1.3175 0.32001 0.19956 0.65583 0.13795 0.93838-0.17216zm16.658 0c0.68276-0.74936-0.38099-1.7161-1.0986-0.99843-0.3939 0.3939-0.33552 0.8621 0.14477 1.1612 0.33598 0.20921 0.66632 0.15285 0.95387-0.16274zm-8.7142-14.195c0.83169-0.31621 0.64049-1.5103-0.24183-1.5103-0.77233 0-1.0261 1.1104-0.33196 1.4524 0.31447 0.15495 0.31777 0.15529 0.57379 0.057953z" fill="#fff" stroke-width=".079324"/>
</svg>
