<?xml version="1.0" encoding="UTF-8"?>
<svg viewBox="0 0 48 48" xmlns="http://www.w3.org/2000/svg">
  <path
     style="fill:#ffffff;stroke-width:0.07932432"
     d="m 6.2956335,39.943777 c -2.3130041,-1.569178 -0.8037792,-4.802171 1.9037036,-4.078031 0.6133046,0.164035 0.7768111,0.09422 3.5905629,-1.533157 0.628805,-0.363679 0.872556,-0.501471 1.162389,-0.657095 1.537385,-0.825494 1.832105,-1.624246 1.832105,-4.965389 0,-2.804438 -0.0061,-2.84309 -0.54996,-3.510792 -1.583357,-1.943736 -0.109957,-4.518872 2.187525,-3.823251 0.514538,0.155789 1.057314,0.05821 1.57507,-0.283169 0.109071,-0.07191 0.251854,-0.1536 0.317298,-0.18152 0.06545,-0.02792 0.283827,-0.149739 0.485298,-0.270712 0.201472,-0.120971 0.933033,-0.541212 1.625689,-0.933866 2.493383,-1.413457 2.600695,-1.632938 2.631597,-5.382495 0.02567,-3.113364 0.06458,-2.881847 -0.621232,-3.695181 -1.607711,-1.9066506 0.363623,-4.6365082 2.588205,-3.5840923 1.464024,0.6926069 1.723284,2.2999346 0.596835,3.7001933 -0.484502,0.60227 -0.484502,0.60227 -0.484502,3.482243 0,3.689452 0.128319,4.033039 1.884759,5.046709 0.468564,0.270414 0.959021,0.554247 1.089905,0.630742 2.783057,1.626535 2.907316,1.675876 3.701712,1.469836 2.248765,-0.583255 3.859851,2.047746 2.2722,3.710638 -0.67373,0.705657 -0.659181,0.625672 -0.659181,3.624717 0,2.657365 0,2.657365 0.19831,3.113329 0.372591,0.856671 0.955456,1.50452 1.701028,1.890671 0.13333,0.06905 0.376276,0.202915 0.539883,0.297467 0.163606,0.09455 0.413479,0.239009 0.555272,0.321017 2.813751,1.627375 2.977259,1.697192 3.590564,1.533157 2.327428,-0.622492 4.047078,1.959915 2.434268,3.655554 -1.301695,1.368545 -3.558189,0.673348 -3.937037,-1.212951 -0.05125,-0.255208 -0.462425,-0.751469 -0.740957,-0.894297 -0.119057,-0.06106 -0.341404,-0.183876 -0.494103,-0.272947 -0.465792,-0.271696 -2.798041,-1.618226 -3.093648,-1.786126 -0.152701,-0.08673 -0.313331,-0.180308 -0.356959,-0.20795 -0.673276,-0.426572 -2.257561,-0.300064 -3.2064,0.256035 -0.269874,0.158171 -0.503032,0.287582 -0.518128,0.287582 -0.0151,0 -0.254133,0.142247 -0.531191,0.316103 -0.277059,0.173857 -0.610829,0.370186 -0.741714,0.436283 -0.130885,0.0661 -0.380756,0.203352 -0.555272,0.305007 -0.174513,0.101656 -0.448827,0.26037 -0.60959,0.3527 -1.004943,0.577168 -1.099951,0.680636 -1.374736,1.497159 -0.744256,2.211555 -3.545297,2.213513 -4.347656,0.003 -0.104935,-0.289091 -0.250909,-0.617373 -0.324387,-0.729517 -0.138973,-0.212101 -0.882588,-0.708603 -1.672684,-1.116831 -0.130885,-0.06762 -0.369491,-0.200818 -0.530236,-0.295984 -1.528941,-0.905181 -2.388628,-1.364164 -2.722061,-1.453297 -0.662408,-0.177075 -1.919474,-0.09963 -2.300406,0.141719 -0.04363,0.02764 -0.20426,0.121219 -0.356958,0.20795 -0.29561,0.167901 -2.627858,1.514431 -3.09365,1.786127 -0.152699,0.08907 -0.375045,0.211895 -0.494102,0.272946 -0.278533,0.142829 -0.6897038,0.639089 -0.7409592,0.894297 -0.3156277,1.57153 -2.180758,2.466969 -3.4064693,1.635428 z m 1.698313,-1.439878 C 8.2552679,38.206271 8.2953013,38.009164 8.151529,37.728033 7.7759662,36.993658 6.6536507,37.220448 6.6536507,38.030714 c 0,0.714096 0.8616744,1.018306 1.3402958,0.473185 z m 16.6130155,0.11831 c 0.421213,-0.331325 0.349532,-1.039236 -0.130449,-1.288323 -0.548014,-0.284395 -1.085431,0.05534 -1.085431,0.68617 0,0.639497 0.716991,0.99458 1.21588,0.602153 z m 16.717522,-0.06979 c 0.171666,-0.171666 0.231868,-0.307127 0.231868,-0.52171 0,-0.810266 -1.122312,-1.037056 -1.497877,-0.30268 -0.3725,0.728385 0.677974,1.412424 1.266009,0.82439 z M 22.991669,35.775185 c 0.05217,-0.09748 0.08212,-1.178303 0.08212,-2.964004 0,-3.930014 0.0067,-3.917537 -3.014324,-5.64875 -0.588986,-0.337523 -1.213665,-0.698484 -1.388178,-0.802134 -1.956419,-1.161988 -1.889038,-1.260567 -1.850131,2.706768 0.03365,3.430653 0.169411,3.72656 2.24787,4.899296 0.996588,0.562307 1.111374,0.628329 1.929028,1.109521 0.278003,0.163607 0.523073,0.297467 0.544601,0.297467 0.02153,0 0.141279,0.07273 0.266114,0.161619 0.508212,0.36188 1.058036,0.473534 1.1829,0.240217 z m 3.032732,-0.04057 c 0.144112,-0.06618 0.369109,-0.18506 0.499991,-0.264171 0.373376,-0.22568 1.068147,-0.624519 2.587337,-1.485272 2.158508,-1.222984 2.251448,-1.439762 2.251448,-5.251242 0,-3.586019 0.08278,-3.456656 -1.586487,-2.479293 -0.392656,0.229902 -0.838853,0.484756 -0.991551,0.566341 -0.1527,0.08159 -0.420422,0.236624 -0.594934,0.34453 -0.174513,0.107906 -0.424387,0.248993 -0.555272,0.313529 -0.130882,0.06453 -0.309364,0.162251 -0.396619,0.217147 -0.08726,0.0549 -0.343445,0.216421 -0.5693,0.358944 -1.352295,0.853338 -1.532797,1.415322 -1.532797,4.772286 0,3.349998 -0.0094,3.319387 0.888184,2.907201 z m -1.202936,-9.127662 c 0.238558,-0.06602 0.496942,-0.135507 0.574186,-0.154408 0.07725,-0.0189 0.237879,-0.101857 0.356961,-0.184348 0.119083,-0.08249 0.270056,-0.172824 0.3355,-0.200745 0.06545,-0.02792 0.283825,-0.149739 0.485297,-0.270712 0.20147,-0.120971 0.92909,-0.541212 1.616925,-0.933867 2.428775,-1.386477 2.48732,-1.217867 -1.132138,-3.260609 -0.162706,-0.09183 -0.420766,-0.243243 -0.573466,-0.336483 -0.152698,-0.09323 -0.366873,-0.212692 -0.475944,-0.265456 -0.109073,-0.05277 -0.287552,-0.15546 -0.396623,-0.228214 -0.467376,-0.311756 -1.490142,-0.456532 -2.141755,-0.303173 -0.19633,0.0462 -0.415791,0.09613 -0.487699,0.110937 -0.0719,0.01481 -0.607344,0.302157 -1.189864,0.638552 -0.582519,0.336395 -1.184063,0.679709 -1.336762,0.762923 -0.152699,0.08321 -0.40903,0.230158 -0.569624,0.326545 -0.160594,0.09639 -0.499706,0.291581 -0.753581,0.433768 -1.178251,0.65989 -1.157946,1.017223 0.09368,1.648536 0.130885,0.06602 0.416454,0.226203 0.634595,0.355967 0.218142,0.129764 0.468014,0.273414 0.55527,0.31922 0.08726,0.0458 0.301433,0.169408 0.475946,0.274672 0.174513,0.105263 0.477928,0.282226 0.674257,0.393248 0.196326,0.111025 0.410503,0.234548 0.475945,0.274499 0.354648,0.216504 0.76081,0.440167 0.831556,0.457919 0.04437,0.01113 0.259155,0.07207 0.477295,0.135402 0.520459,0.151117 0.939083,0.152776 1.470045,0.0059 z m -8.470416,-2.57804 c 0.34202,-0.375383 0.260311,-0.922241 -0.171132,-1.145349 -0.930128,-0.480988 -1.655062,0.76386 -0.76725,1.317513 0.320009,0.199561 0.655832,0.137948 0.938382,-0.172164 z m 16.658108,0 c 0.68276,-0.749364 -0.380987,-1.716085 -1.098639,-0.998432 -0.393899,0.393897 -0.335525,0.862101 0.14477,1.161177 0.335985,0.209213 0.666322,0.152852 0.953869,-0.162745 z M 24.294982,9.8340833 c 0.831692,-0.3162096 0.640493,-1.5103304 -0.24183,-1.5103304 -0.772331,0 -1.026119,1.1103508 -0.331963,1.4523841 0.314474,0.1549531 0.317771,0.1552862 0.573793,0.057953 z"
     id="path828" />
</svg>
