<?xml version="1.0" encoding="UTF-8" standalone="no"?>
<!DOCTYPE svg PUBLIC "-//W3C//DTD SVG 1.1//EN" "http://www.w3.org/Graphics/SVG/1.1/DTD/svg11.dtd">
<svg width="100%" height="100%" viewBox="0 0 48 48" version="1.1" xmlns="http://www.w3.org/2000/svg" xmlns:xlink="http://www.w3.org/1999/xlink" xml:space="preserve" xmlns:serif="http://www.serif.com/" style="clip-rule:evenodd;stroke-linejoin:round;stroke-miterlimit:2;">
    <path d="M30.704,13.692L42.585,25.479C42.585,29.652 42.585,33.826 42.585,38C42.585,38.209 42.552,38.419 42.487,38.618C42.41,38.856 42.287,39.079 42.128,39.272C41.905,39.542 41.612,39.752 41.284,39.874C41.064,39.956 40.832,39.998 40.598,40L9.557,40C9.323,39.999 9.09,39.959 8.87,39.879C8.719,39.823 8.575,39.749 8.442,39.659L7.73,39.684C6.64,39.858 5.755,39.092 5.755,37.975L5.755,15.187C5.755,14.069 6.64,13.02 7.73,12.845L36.197,8.289C37.405,8.095 37.534,8.876 37.534,10.1L17.454,12.807C17.454,12.821 17.452,12.834 17.45,12.847L40.007,10.464L40.007,12.905L25.071,13.692L30.704,13.692ZM10.003,13.634C9.727,13.635 9.463,13.635 9.212,13.636C8.066,13.653 7.145,14.589 7.146,15.736C7.15,20.598 7.16,32.819 7.163,37.818C7.164,38.362 7.403,38.878 7.818,39.231C7.944,39.338 8.083,39.426 8.23,39.495C8.141,39.416 8.058,39.329 7.984,39.234C7.839,39.05 7.727,38.841 7.655,38.618C7.59,38.419 7.557,38.209 7.557,38C7.557,30.564 7.557,23.128 7.557,15.692C7.557,15.482 7.59,15.273 7.655,15.074C7.732,14.836 7.855,14.613 8.014,14.42C8.237,14.15 8.531,13.94 8.859,13.818C9.078,13.736 9.31,13.694 9.544,13.692L9.557,13.692L9.452,13.692L10.003,13.634ZM28.149,22.718L28.149,20.929L20.029,20.929L20.029,22.065L23.573,26.882L19.994,31.389L19.994,32.628L28.184,32.628L28.149,30.736L23.263,30.736L26.05,26.985L26.05,26.565L23.263,22.718L28.149,22.718ZM31.081,14.177C30.974,13.999 30.849,13.836 30.704,13.692C30.848,13.887 30.973,14.042 31.081,14.177C32.947,17.282 29.333,25.152 33.44,25.469C34.597,25.75 36.214,25.615 37.999,25.479L33.704,25.479L33.688,25.475C32.411,25.205 31.888,24.078 31.704,23.479C31.704,15.002 31.958,15.272 31.081,14.177ZM41.69,23.552L30.704,13.692L41.69,13.692L41.69,23.552Z" style="fill:white;"/>
</svg>
