<?xml version="1.0" encoding="UTF-8"?>
<svg version="1.1" viewBox="0 0 48 48" xmlns="http://www.w3.org/2000/svg">
    <defs>
        <style>.cls-1{fill:#fff;}</style>
    </defs>
    <path d="m10.297 5.7578c-4.0828 0.0064-4.8724 0.78418-4.8789 4.8008v29.443h2.2773v-32.004h12.361c3.8323 0.0256 2.1211 1.4786 4.2715 2.8516 1.1158 0.71371 2.5828 0.66477 3.8613 0.66797h14.639v-2.5605h-14.639c-0.74175 0-1.8402 0.07069-2.4746-0.32617-0.75801-0.4737-1.0036-1.4654-1.6348-2.0703-0.83925-0.80013-1.9571-0.78993-3.0469-0.80273h-10.736zm5.7227 10.24v2.2402h24.514v14.082c-0.0062 3.8598-1.5331 5.435-5.2754 5.4414h-22.031v2.2402h22.031c2.5259-0.0032 4.7164-0.24921 6.3145-2.5664 0.99606-1.4434 1.1235-3.089 1.1328-4.7949v-12.162c-0.0062-3.8982-1.0144-4.4741-4.6543-4.4805h-22.031z" fill="#fff" stroke-width="1.0239"/>
</svg>
