<?xml version="1.0" encoding="UTF-8"?>
<svg width="48" height="48" version="1.1" viewBox="0 0 12.7 12.7" xmlns="http://www.w3.org/2000/svg">
    <defs>
        <style>.cls-1{fill:#fff;}</style>
        <style>.cls-1{fill:#fff;}</style>
    </defs>
    <path d="m6.35 0.52917a5.8208 5.8208 0 0 0-5.8208 5.8208 5.8208 5.8208 0 0 0 5.8208 5.8208 5.8208 5.8208 0 0 0 5.8208-5.8208 5.8208 5.8208 0 0 0-5.8208-5.8208zm1.5989 4.6659h0.40514v0.40514h0.36484v0.36484h-0.36484v0.4284c0 0.41978 0.00285 0.43124 0.11886 0.54725 0.065162 0.065162 0.15627 0.11886 0.20257 0.11886 0.073996 0 0.084233 0.024434 0.084233 0.20257 0 0.2023-1.614e-4 0.20257-0.13384 0.20257-0.078006 0-0.21139-0.049158-0.31884-0.11731-0.12263-0.077771-0.21353-0.17678-0.2713-0.29611-0.080263-0.1658-0.086816-0.24372-0.086816-1.018zm-3.2076 0.3607c0.48702 7.4e-4 0.93286 0.37846 0.97048 0.89865l0.01757 0.2403h-0.75448c-0.45876 0-0.75499 0.014941-0.75499 0.038757 0 0.080757 0.2794 0.31468 0.40618 0.34003 0.15595 0.03119 0.41494-0.030426 0.48576-0.11576 0.05388-0.064917 0.52658-0.089516 0.52658-0.027389 0 0.075149-0.30364 0.3805-0.45527 0.45785-0.18012 0.091893-0.52209 0.1332-0.67955 0.081649-0.53414-0.17489-0.83087-0.69342-0.68833-1.2025 0.06884-0.24587 0.35247-0.55947 0.58704-0.64906 0.11224-0.04286 0.22661-0.0627 0.339-0.06253zm4.9325 9.999e-4c0.6605-0.03586 1.2291 0.64845 0.97255 1.3203-0.1654 0.4331-0.72909 0.72048-1.1576 0.59014-0.52629-0.16009-0.83082-0.69099-0.68833-1.1999 0.068839-0.24587 0.35247-0.55947 0.58704-0.64906 0.095984-0.03666 0.19193-0.05637 0.28629-0.0615zm-6.9391 0.0093c0.26353-0.02973 0.54016 0.0599 0.72864 0.28009 0.19382 0.22644 0.22996 0.39385 0.22996 1.0661v0.59273h-0.44597v-0.60978c0-0.45413-0.01507-0.63921-0.05891-0.72399-0.11993-0.23192-0.48264-0.26432-0.67438-0.06046-0.09345 0.099363-0.09822 0.13135-0.11059 0.74879l-0.01292 0.64544h-0.39998v-0.66198c0-0.6152 7e-3 -0.67539 0.09457-0.84129 0.13555-0.25675 0.38604-0.4059 0.64957-0.43563zm4.1558 1e-3c0.31717 0.02294 0.58596 0.18569 0.75344 0.4563 0.12057 0.19481 0.12263 0.20874 0.13539 0.81959l0.01292 0.62167h-0.185c-0.17346 0-0.18552-0.00673-0.18552-0.10749 0-0.10381-0.00243-0.10512-0.078031-0.03669-0.1682 0.15222-0.52981 0.22076-0.77308 0.14676-0.71408-0.21721-0.95243-1.0341-0.46095-1.5808 0.22706-0.25255 0.44942-0.34333 0.78083-0.31936zm-0.065112 0.39894c-0.37927-0.0075-0.6825 0.3812-0.50229 0.78858 0.13726 0.31029 0.52035 0.42354 0.80719 0.23875 0.34005-0.21908 0.31986-0.76408-0.03514-0.95446-0.0906-0.04859-0.18223-0.07113-0.26975-0.07286zm-2.1084 1e-3c-0.08793 0.0051-0.17386 0.03313-0.2496 0.08527-0.07574 0.05214-0.16454 0.13588-0.1974 0.18604l-0.05994 0.091467h0.53175c0.29252 0 0.53175-0.014637 0.53175-0.032556 0-0.017918-0.06276-0.093548-0.13953-0.16795-0.11875-0.1151-0.27047-0.17075-0.41703-0.16226zm4.9883 0.0016c-0.15738 0.0092-0.3071 0.08626-0.41445 0.22273-0.13021 0.16554-0.14638 0.34479-0.050643 0.56121 0.13823 0.31249 0.5204 0.42625 0.80822 0.24081 0.35005-0.22553 0.31593-0.78398-0.05891-0.96635-0.092528-0.04502-0.18979-0.06389-0.28422-0.05839z" color="#000000" fill="#fff" stroke-width=".26458" style="-inkscape-stroke:none"/>
</svg>
