<?xml version="1.0" encoding="UTF-8"?>
<svg viewBox="0 0 48 48" xmlns="http://www.w3.org/2000/svg">
    <defs>
        <style>.cls-1{fill:#fff;}</style>
    </defs>
    <g data-name="Layer 1">
        <path class="cls-1" d="m20.55 25.35a1.66 1.66 0 1 0 1.65 1.65 1.66 1.66 0 0 0-1.65-1.65z"/>
        <path class="cls-1" d="M37.09,20.68A13.29,13.29,0,0,0,14.92,14a.86.86,0,0,1-.14.13h3.28a1.56,1.56,0,0,1,0,3.12h-4.8a10.26,10.26,0,1,0,0,20.51H36.45a8.54,8.54,0,0,0,.64-17Zm-6.6,7.71h0v1.66a1.39,1.39,0,0,1-2.77,0V28.39H24.73a4.42,4.42,0,1,1,0-2.76h5.76a1.38,1.38,0,0,1,0,2.76Z"/>
    </g>
</svg>
