<?xml version="1.0" encoding="UTF-8"?>
<svg viewBox="0 0 48 48" xmlns="http://www.w3.org/2000/svg">
    <defs>
        <style>.a{fill:#fff;}</style>
    </defs>
    <path class="a" d="M8,6V42a2,2,0,0,0,2,2h1.41V4H10A2,2,0,0,0,8,6Z"/>
    <path class="a" d="M38,4H13.41V44H38a2,2,0,0,0,2-2V6A2,2,0,0,0,38,4ZM23.92,21.24a.41.41,0,0,0-.33.42c.14,2.2.88,13.6.88,13.87s.27,1.89-1.76,1.89A1.55,1.55,0,0,1,21,35.53c0-.27.74-11.67.87-13.87a.4.4,0,0,0-.32-.42,2.72,2.72,0,0,1-2.3-2.66c0-2,.46-6.11.62-7.53a.57.57,0,0,1,.69-.49.59.59,0,0,1,.44.58v5.44a.62.62,0,0,0,.73.61.65.65,0,0,0,.52-.64v-5.5a.5.5,0,0,1,.5-.5.51.51,0,0,1,.51.5v5.53a.62.62,0,0,0,.73.61.64.64,0,0,0,.52-.64V11.11a.57.57,0,0,1,.63-.56.59.59,0,0,1,.5.53c.17,1.45.62,5.5.62,7.5A2.72,2.72,0,0,1,23.92,21.24ZM34.21,35.48c0,.91-.37,2-1.73,2a1.58,1.58,0,0,1-1.77-1.65c0-.48.72-7.3,1-10a1.26,1.26,0,0,0-.81-1.29,2,2,0,0,1-1.34-2.05c0-8.31,2.05-11.8,4.19-11.8.46,0,.44.56.44.56Z"/>
</svg>
