<?xml version="1.0" encoding="UTF-8"?>
<svg data-name="Layer 1" viewBox="0 0 48 48" xmlns="http://www.w3.org/2000/svg">
    <defs>
        <style>.cls-1{fill:#fff;}</style>
    </defs>
    <path class="cls-1" d="m24.56 21.31a2.69 2.69 0 1 0 2.69 2.69 2.69 2.69 0 0 0-2.69-2.69z"/>
    <path class="cls-1" d="M24,2A22,22,0,1,0,46,24,22,22,0,0,0,24,2ZM17.62,29.26H15.25l-2.5-3.46c-.46-.64-1.36-2-1.63-2.45a26,26,0,0,1,.09,2.71v3.2H8.43V18.79H11l2.3,3.09c.48.65,1.41,2,1.63,2.47-.07-.46-.09-1.85-.09-2.71V18.79h2.79Zm6.94.22A5.48,5.48,0,1,1,30,24,5.48,5.48,0,0,1,24.56,29.48Zm10.68-.06a8.34,8.34,0,0,1-4.41-1.27l1.41-2.27a6.32,6.32,0,0,0,3.06,1c1,0,1.37-.18,1.37-.67s-.38-.63-1.78-1c-2.53-.58-3.74-1.27-3.74-3.36s1.6-3.31,4.13-3.31a6.94,6.94,0,0,1,4.17,1.21L38,22.11a5.05,5.05,0,0,0-2.91-1c-.87,0-1.08.27-1.08.64s.37.57,1.72.89c2.63.62,3.8,1.43,3.8,3.39C39.57,28.43,37.76,29.42,35.24,29.42Z"/>
</svg>
