<?xml version="1.0" encoding="UTF-8"?>
<svg viewBox="0 0 48 48" xmlns="http://www.w3.org/2000/svg">
    <defs>
        <style>.cls-1{fill:#fff;fill-rule:evenodd;}</style>
    </defs>
    <g data-name="Layer 1">
        <path class="cls-1" d="M38.54,41.79,37.3,32.43,40.38,24A12.33,12.33,0,0,0,35.76,9.57a2.53,2.53,0,0,0,.18-.37,3.13,3.13,0,0,0-5.88-2.14,2.79,2.79,0,0,0-.1.39,12.36,12.36,0,0,0-12.79,8.06L14.09,24l-7,6.37a.77.77,0,0,0,.26,1.3l3.46,1.26h0L27,38.79h0a3.13,3.13,0,1,0,5.88,2.14h0l1.14.42h0l3.47,1.26A.77.77,0,0,0,38.54,41.79Z"/>
    </g>
</svg>
