<?xml version="1.0" encoding="UTF-8"?>
<svg enable-background="new" version="1.1" viewBox="0 0 48 48" xmlns="http://www.w3.org/2000/svg" xmlns:xlink="http://www.w3.org/1999/xlink">
    <defs>
        <style>.a{fill:#3396cd;}.b{fill:#fff;}</style>
    </defs>
    <g>
        <g transform="matrix(.040409 0 0 .040409 1.8563 8.2372)" clip-rule="evenodd" fill="#fff" fill-rule="evenodd" image-rendering="optimizeQuality" shape-rendering="geometricPrecision">
            <path d="m397.27 234.55v-71.004c6.89-0.48742 13.854-0.85553 20.952-1.0789 194.19-6.103 321.59 166.86 321.59 166.86s-137.6 191.12-285.14 191.12c-21.251 0-40.266-3.4247-57.41-9.1798v-215.31c75.599 9.1316 90.798 42.528 136.26 118.29l101.08-85.228s-73.787-96.779-198.18-96.779c-13.536 0-26.471 0.95454-39.169 2.3102zm0-234.55v106.06c6.9687-0.55089 13.947-0.99262 20.952-1.2465 270.05-9.0986 445.99 221.47 445.99 221.47s-202.09 245.74-412.62 245.74c-19.291 0-37.354-1.7796-54.325-4.7854v65.556c14.516 1.8456 29.548 2.9322 45.239 2.9322 195.92 0 337.61-100.05 474.81-218.47 22.729 18.215 115.86 62.522 135.01 81.941-130.46 109.2-434.46 197.22-606.81 197.22-16.608 0-32.581-1.0002-48.253-2.5082v92.134h744.65v-786.04zm0 511.26v55.973c-181.21-32.307-231.5-220.67-231.5-220.67s87-96.396 231.5-112.02v61.411c-0.1117 0-0.18532-0.0279-0.28433-0.0279-75.823-9.1088-135.07 61.743-135.07 61.743s33.193 119.26 135.35 153.59zm-321.84-172.86s107.4-158.47 321.84-174.86v-57.486c-237.52 19.063-443.21 220.23-443.21 220.23s116.49 336.79 443.21 367.62v-61.114c-239.75-30.165-321.84-294.39-321.84-294.39z" fill="#fff" fill-rule="evenodd" stroke-width="2.5387"/>
        </g>
    </g>
</svg>
