<?xml version="1.0" encoding="UTF-8" standalone="no"?>
<svg
   xmlns:dc="http://purl.org/dc/elements/1.1/"
   xmlns:cc="http://creativecommons.org/ns#"
   xmlns:rdf="http://www.w3.org/1999/02/22-rdf-syntax-ns#"
   xmlns:svg="http://www.w3.org/2000/svg"
   xmlns="http://www.w3.org/2000/svg"
   xmlns:sodipodi="http://sodipodi.sourceforge.net/DTD/sodipodi-0.dtd"
   xmlns:inkscape="http://www.inkscape.org/namespaces/inkscape"
   viewBox="0 0 192 192"
   height="192"
   width="192"
   version="1.1"
   id="svg9408"
   sodipodi:docname="odyssey.svg"
   inkscape:version="0.92.1 r">
  <metadata
     id="metadata9414">
    <rdf:RDF>
      <cc:Work
         rdf:about="">
        <dc:format>image/svg+xml</dc:format>
        <dc:type
           rdf:resource="http://purl.org/dc/dcmitype/StillImage" />
        <dc:title></dc:title>
      </cc:Work>
    </rdf:RDF>
  </metadata>
  <defs
     id="defs9412" />
  <sodipodi:namedview
     pagecolor="#ffffff"
     bordercolor="#666666"
     borderopacity="1"
     objecttolerance="10"
     gridtolerance="10"
     guidetolerance="10"
     inkscape:pageopacity="0"
     inkscape:pageshadow="2"
     inkscape:window-width="640"
     inkscape:window-height="480"
     id="namedview9410"
     showgrid="false"
     inkscape:pagecheckerboard="true"
     inkscape:zoom="2.6000906"
     inkscape:cx="19.949672"
     inkscape:cy="79.975321"
     inkscape:current-layer="svg9408"
     inkscape:object-paths="true"
     inkscape:snap-intersection-paths="true"
     inkscape:snap-smooth-nodes="true"
     inkscape:snap-midpoints="true"
     inkscape:snap-object-midpoints="true"
     inkscape:snap-center="true"
     inkscape:snap-text-baseline="true"
     inkscape:snap-nodes="true"
     inkscape:snap-bbox="true"
     inkscape:bbox-paths="true"
     inkscape:bbox-nodes="true"
     inkscape:snap-bbox-edge-midpoints="true"
     inkscape:snap-bbox-midpoints="true" />
  <path
     style="fill:#ffffff"
     d="M 96 8.2949219 A 87.705 87.705 0 0 0 8.2949219 96 A 87.705 87.705 0 0 0 96 183.70508 A 87.705 87.705 0 0 0 183.70508 96 A 87.705 87.705 0 0 0 96 8.2949219 z M 134.19336 50.080078 C 136.38757 50.120147 138.69775 50.363402 141.16992 50.830078 C 143.65886 64.015017 139.80524 72.581363 132.53125 83.630859 C 128.51703 89.728621 122.10604 96.682973 114.74414 103.58203 C 115.53486 103.98375 116.38839 104.56637 117.25586 105.44141 C 117.72961 105.91929 118.20565 106.48171 118.67773 107.14062 C 121.95536 111.71535 117.07863 121.68154 111.30859 128.57227 C 105.53855 135.46298 81.017578 152 81.017578 152 C 81.017578 152 96.929155 127.78238 98.996094 122.95117 C 99.883564 120.87686 99.600417 118.72637 99.091797 117.08398 C 96.758448 118.95537 94.427485 120.78824 92.130859 122.52344 L 69.476562 99.869141 C 71.212051 97.57213 73.044286 95.239984 74.916016 92.90625 C 73.272946 92.396834 71.121933 92.114171 69.046875 93.001953 C 64.215686 95.0689 40 110.98242 40 110.98242 C 40 110.98242 56.537011 86.46144 63.427734 80.691406 C 70.318464 74.921365 80.284643 70.044641 84.859375 73.322266 C 85.51829 73.794348 86.080735 74.270363 86.558594 74.744141 C 87.433628 75.611606 88.016246 76.465143 88.417969 77.255859 C 95.317031 69.893955 102.27138 63.482968 108.36914 59.46875 C 117.34685 53.558628 124.68509 49.906444 134.19336 50.080078 z M 118.56641 64.859375 A 8.7004576 8.7004576 0 0 0 112.28711 67.408203 A 8.7004576 8.7004576 0 0 0 112.28711 79.712891 A 8.7004576 8.7004576 0 0 0 124.5918 79.712891 A 8.7004576 8.7004576 0 0 0 124.5918 67.408203 A 8.7004576 8.7004576 0 0 0 118.56641 64.859375 z M 70.121094 112.63086 C 72.487647 112.63124 74.854694 113.53415 76.660156 115.33984 C 80.271617 118.95077 80.272334 124.80591 76.662109 128.41797 L 76.660156 128.41992 C 74.172025 130.8106 70.096045 130.68245 66.402344 131.41406 C 60.303832 132.78946 50.269531 141.73047 50.269531 141.73047 C 50.269531 141.73047 59.212481 131.69813 60.587891 125.59961 C 61.331855 122.14096 60.627909 118.73325 63.580078 115.33984 L 63.582031 115.33789 C 65.388149 113.53267 67.754542 112.63048 70.121094 112.63086 z "
     id="path9961" />
</svg>
