<svg xmlns="http://www.w3.org/2000/svg" viewBox="0 0 192 192" height="192" width="192">
    <path d="M96 8.295A87.705 87.705 0 0 0 8.295 96 87.705 87.705 0 0 0 96 183.705 87.705 87.705 0 0 0 183.705 96 87.705 87.705 0 0 0 96 8.295zm38.193 41.785c2.195.04 4.505.283 6.977.75 2.49 13.185-1.365 21.75-8.64 32.8-4.013 6.1-10.424 13.053-17.786 19.952.79.402 1.644.984 2.512 1.86.474.477.95 1.04 1.422 1.7 3.277 4.573-1.6 14.54-7.37 21.43C105.54 135.462 81.02 152 81.02 152s15.91-24.218 17.978-29.05c.888-2.073.604-4.224.096-5.866a307.12 307.12 0 0 1-6.96 5.44L69.476 99.868a307.024 307.024 0 0 1 5.44-6.964c-1.644-.51-3.795-.792-5.87.096C64.217 95.07 40 110.982 40 110.982s16.537-24.52 23.428-30.29c6.89-5.77 16.857-10.647 21.43-7.37.66.472 1.223.948 1.7 1.422.876.868 1.458 1.72 1.86 2.512 6.9-7.362 13.853-13.773 19.95-17.787 8.98-5.91 16.317-9.564 25.825-9.39zm-15.627 14.78a8.7 8.7 0 0 0-6.28 2.548 8.7 8.7 0 0 0 0 12.305 8.7 8.7 0 0 0 12.306 0 8.7 8.7 0 0 0 0-12.305 8.7 8.7 0 0 0-6.026-2.55zM70.12 112.63a9.22 9.22 0 0 1 6.54 2.71 9.25 9.25 0 0 1 .002 13.078l-.002.002c-2.488 2.39-6.564 2.262-10.258 2.994-6.098 1.375-16.132 10.316-16.132 10.316s8.942-10.032 10.318-16.13c.744-3.46.04-6.867 2.992-10.26l.002-.002a9.218 9.218 0 0 1 6.54-2.707z" fill="#fff"/>
</svg>
