<?xml version="1.0" encoding="UTF-8"?>
<svg version="1.1" viewBox="0 0 48 48" xmlns="http://www.w3.org/2000/svg">
    <path d="m27.081 12.61-8.4407 3c-1.1447 0.50435-1.6374 1.305-1.7288 2.2881v11.492c0.0191 0.71664-0.47449 1.3051-1.2203 1.8305l-3.752 1.6897c-1.0053 0.17066-1.6204-0.38351-1.6378-1.1812v-16.576c0.6763-1.9265 1.5613-2.274 2.339-2.7966l10.616-5.8599c2.0662-0.44443 3.5825 0.61069 3.8246 2.7073z" fill="#fff"/>
    <path d="m26.085 6.5339c0.53329 0.52108 1.2296 0.77259 1.4746 2.4153v28.322c-0.08603 1.4475-0.76985 2.1136-1.5 2.7458l9.4322-2.6695c0.77423-0.225 1.8515-1.7174 1.9068-2.339v-22.831c-0.10797-1.9642-1.2656-2.4575-2.1864-2.822z" fill="#fff"/>
    <path d="m22.148 39.641c1.513 0.72807 1.9986 0.90758 3.2539 0.43146 0.79957-0.6002 1.6528-1.6431 1.6899-2.8404l0.01798-4.1887h-10.463c-1.3995 0.47572-2.2303 1.9672-0.66516 3.0921z" fill="#fff"/>
</svg>
