<?xml version="1.0" encoding="UTF-8"?>
<svg viewBox="0 0 48 48" xmlns="http://www.w3.org/2000/svg">
    <defs>
        <style>.cls-1{fill:#2b2b2b;}.cls-2{fill:#fff;}</style>
    </defs>
    <g data-name="Layer 2">
        <rect class="cls-1" x="-281.64" y="-293.85" width="674.7" height="426.15"/>
        <rect class="cls-1" x="-226.29" y="-293.85" width="674.7" height="426.15"/>
        <rect class="cls-1" x="-281.64" y="-240.44" width="674.7" height="426.15"/>
        <rect class="cls-1" x="-226.29" y="-240.44" width="674.7" height="426.15"/>
        <rect class="cls-1" x="-281.64" y="-348.91" width="674.7" height="426.15"/>
        <rect class="cls-1" x="-226.29" y="-348.91" width="674.7" height="426.15"/>
        <rect class="cls-1" x="-280.8" y="-296" width="674.7" height="426.15"/>
    </g>
    <g data-name="Layer 1">
        <path class="cls-2" d="m24 2a22 22 0 1 0 22 22 22 22 0 0 0-22-22zm-6.63 14.34h4.26a2 2 0 0 1 0 4.07h-4.26a2 2 0 0 1 0-4.07zm0 5.63h12.27a2 2 0 0 1 0 4.06h-12.27a2 2 0 0 1 0-4.06zm-4.77 9.69a2 2 0 1 1 2-2 2 2 0 0 1-2 2zm0-5.63a2 2 0 1 1 2-2 2 2 0 0 1-2 1.97zm0-5.62a2 2 0 1 1 2-2 2 2 0 0 1-2 2zm25.49 11.25h-20.72a2 2 0 0 1 0-4.07h20.72a2 2 0 0 1 0 4.07z"/>
    </g>
</svg>
