<?xml version="1.0" encoding="UTF-8"?>
<svg viewBox="0 0 48 48" xmlns="http://www.w3.org/2000/svg">
    <defs>
        <style>.a,.b{fill:#fff;}.b{fill-rule:evenodd;}</style>
    </defs>
    <circle class="a" cx="22.17" cy="13.68" r=".93"/>
    <path class="b" d="M27.49,26.84c1,1,3.59,3.18,6.07,3.18,3.2,0,7.27-2.89,7.27-6.06,0-3.64-3.9-6.54-3.9-9.74,0-1.67,1.5-3.33,2.5-4.24a.56.56,0,0,0-.29-1c-1.22-.17-3-.16-3.93,1.06-2.17,2.94-2,5.28-.57,7.74s2.92,3.7,2.92,5.61-2.13,3-3.68,3a5.08,5.08,0,0,1-4.77-4.92A5.52,5.52,0,0,1,30.62,18a9.32,9.32,0,0,0,.65-.9,7.68,7.68,0,0,0,1.32-4.56,8.56,8.56,0,1,0-15.43,5.07h0c.77,1.39,2.4,2.29,2.4,4.14s-1.91,3.64-5.49,3.64-4.21-2.07-4.21-3.64,1.23-3.42,3-3.42,1.88,1.88,1.88,2.31a7.19,7.19,0,0,1-.42,1.51.2.2,0,0,0,.28.24,3.65,3.65,0,0,0,2.24-3.3,3.91,3.91,0,0,0-4-3.89c-2.12,0-5.61,2.12-5.61,6.81s4.52,6.67,7.18,6.67c2.42,0,5.77-2.05,6.84-3.46.1-.14.11-.16.18-.15s.05.09,0,.18a3.53,3.53,0,0,1-1.07,2.23c-1.14,1-7.22,2.79-7.22,6.68s6.19,4.86,6.19,6.46c0,1.31-1.7,2.23-2.86,2.39a.24.24,0,0,0-.09.44,3.24,3.24,0,0,0,1.72.52c1.34,0,4.39-1.14,4.39-4.07A3.65,3.65,0,0,0,19,36.17c-.9,0-2.54-.79-2.54-1.65s.6-1.77,2.43-2.39a10.89,10.89,0,0,0,4.8-3.48.34.34,0,0,1,.59,0,7.58,7.58,0,0,0,2.51,3c1.8,1.07,4.47,2.71,4.47,4.58s-1.66,2.24-2.67,2.24a3.14,3.14,0,0,1-3-2.93c0-1.3,1.15-1.26,1.92-1.08A.36.36,0,0,0,27.9,34a2.08,2.08,0,0,0-1.85-1c-1.84,0-3.31,1-3.31,3.61S25.62,41,28.46,41s6-1.76,6-4.22-2.95-4.94-4.41-6-2.71-1.74-3-3.73A.26.26,0,0,1,27.49,26.84Zm-4.68-9.2a4.32,4.32,0,1,1,4.32-4.31A4.31,4.31,0,0,1,22.81,17.64Z"/>
</svg>
