<?xml version="1.0" encoding="UTF-8"?>
<svg viewBox="0 0 48 48" xmlns="http://www.w3.org/2000/svg">
    <defs>
        <style>.cls-1{fill:#fff;}</style>
    </defs>
    <g data-name="Layer 1">
        <path class="cls-1" d="M41,5H7A2,2,0,0,0,5,7V41a2,2,0,0,0,2,2H41a2,2,0,0,0,2-2V7A2,2,0,0,0,41,5ZM36.78,17.34,33,21.11l-1.26,1.26a2.15,2.15,0,0,1-3,0,6.66,6.66,0,0,0-9.42,0,2.15,2.15,0,0,1-3,0L15,21.11l-3.77-3.77a2.16,2.16,0,0,1,0-3.05,18.08,18.08,0,0,1,25.56,0A2.16,2.16,0,0,1,36.78,17.34Z"/>
        <path class="cls-1" d="M12.74,15.82c1.68,1.67,3.35,3.35,5,5a8.7,8.7,0,0,1,2.6-1.79l-2-3.17a1.08,1.08,0,0,1,.34-1.49,1.07,1.07,0,0,1,1.48.34L22.5,18.4a9.5,9.5,0,0,1,1.5-.13,8.79,8.79,0,0,1,6.23,2.58c1.68-1.68,3.35-3.36,5-5a15.91,15.91,0,0,0-22.52,0Z"/>
    </g>
</svg>
