<svg xmlns="http://www.w3.org/2000/svg" width="192" height="192" viewBox="0 0 192 192">
    <path d="M96 15.693A64.7 64.7 0 0 0 56.39 29.28l-7.08-7.082-.083-.083-.006.005a8.138 8.138 0 0 0-5.742-2.39 8.138 8.138 0 0 0-8.14 8.14 8.138 8.138 0 0 0 2.39 5.747l-.006.006 7.195 7.195a64.7 64.7 0 0 0-13.61 39.578v95.91h45.42l7.675-31.213.652-2.67a23.337 23.337 0 0 1-12.525-20.667A23.337 23.337 0 0 1 95.864 98.42a23.337 23.337 0 0 1 23.337 23.336 23.337 23.337 0 0 1-12.526 20.667l.655 2.67 7.677 31.214H160.7v-95.91a64.7 64.7 0 0 0-13.58-39.61l7.08-7.08.083-.084-.004-.006a8.138 8.138 0 0 0 2.39-5.745 8.138 8.138 0 0 0-8.14-8.14 8.138 8.138 0 0 0-5.75 2.388l-.004-.005-7.196 7.196A64.7 64.7 0 0 0 96 15.697z" fill="#fff"/>
</svg>
