<?xml version="1.0" encoding="UTF-8"?>
<svg data-name="Layer 1" viewBox="0 0 48 48" xmlns="http://www.w3.org/2000/svg">
    <defs>
        <style>.cls-1{fill:#fff;}</style>
    </defs>
    <polygon class="cls-1" points="19.33 31.61 28.67 34.89 28.67 16.39 19.33 13.11"/>
    <path class="cls-1" d="M24,2A22,22,0,1,0,46,24,22,22,0,0,0,24,2ZM38,34.3a.76.76,0,0,1-.56.74l-8.77,3-9.34-3.27L11,38l-.25,0a.77.77,0,0,1-.78-.78V13.7a.76.76,0,0,1,.56-.74l8.77-3,9.34,3.27L37,10.05l.25-.05a.77.77,0,0,1,.78.78Z"/>
</svg>
