<?xml version="1.0" encoding="UTF-8"?>
<svg version="1.1" viewBox="0 0 48 48" xmlns="http://www.w3.org/2000/svg">
    <path d="m24 2a22 22 0 0 0 -22 22 22 22 0 0 0 22 22 22 22 0 0 0 22 -22 22 22 0 0 0 -22 -22zm-3.225 1.832h0.0098c0.07974 0.06098 0.1589 0.1222 0.2246 0.1738 2.739 2.144 3.663 4.668 2.781 7.586-3.008-1.245-4.028-3.774-3.059-7.586 0.0094-0.0516 0.0289-0.1129 0.04297-0.1738zm6.844 3.969c-0.2486 2.106-1.263 3.369-3.045 3.791-0.2533-1.914 0.7653-3.186 3.045-3.791zm-7.326 3.898 0.0039 0.0039c1.251 0.2717 2.548 0.5352 3.893 0.6387h0.0059c1.138 0.08392 2.304 0.05953 3.508-0.1699 0.122 2.256 1.074 3.799 2.861 4.625 1.318 0.6801 2.532 1.581 3.648 2.697 2.821 2.821 4.232 6.227 4.232 10.22v0.0098c0 3.992-1.409 7.396-4.232 10.21-2.772 2.772-6.107 4.186-10.02 4.232v-0.0059h-0.1875c-3.987 0-7.391-1.407-10.21-4.23-2.819-2.819-4.232-6.225-4.232-10.22 0-3.987 1.413-7.391 4.232-10.21 1.084-1.084 2.255-1.961 3.508-2.627 0.1407-0.07974 0.2851-0.1503 0.4258-0.2207 1.632-0.91 2.493-2.349 2.572-4.324zm3.699 6.906c-6.358 0-11.52 5.166-11.52 11.52 0 6.357 5.165 11.52 11.52 11.52h0.01561c0.06876-0.0021 0.1364-0.0045 0.2051-0.0078l0.4766-0.02344v-22.97l-0.4707-0.0293c-0.06871 0-0.1383 0-0.207-0.0098h-0.0098zm-0.3027 1.061v2.52c-4.326 0.1617-7.795 3.719-7.795 8.084 0 4.364 3.47 7.92 7.795 8.082v2.238c-5.668-0.17-10.22-4.752-10.22-10.46 0-5.71 4.55-10.29 10.22-10.46zm0 3.564v2.238c-2.564 0.1587-4.606 2.292-4.605 4.895 0 2.602 2.042 4.734 4.605 4.893v2.051c-3.776-0.1675-6.794-3.219-6.795-7.037 0-3.819 3.018-6.871 6.795-7.039zm0 3.283v7.697c-2.014-0.1619-3.605-1.791-3.605-3.848s1.591-3.688 3.605-3.85z" fill="#fff"/>
</svg>
