<?xml version="1.0" encoding="UTF-8"?>
<svg version="1.1" viewBox="0 0 48 48" xmlns="http://www.w3.org/2000/svg">
    <path d="m24 2a22 22 0 0 0 -22 22 22 22 0 0 0 22 22 22 22 0 0 0 22 -22 22 22 0 0 0 -22 -22zm-11.959 7.7188c0.57833 0.009113 1.2802 0.18117 2.0879 0.51562 2.9116 1.2061 6.816 4.4856 7.6562 7.9746 0.6948-0.06267 1.4272-0.099609 2.207-0.099609 0.77953 0 1.5122 0.036939 2.207 0.099609 0.84028-3.4887 4.745-6.7685 7.6562-7.9746 1.6157-0.66922 2.8031-0.68678 3.4375-0.052734 1.8535 1.8535 1.4843 9.6169-0.93164 12.914 0.12278 1.4161 0.50786 6.816-0.57031 8.5605-1.1642 1.8826-5.7367 3.8191-7 4.3262 0.013429 0.89848-0.024957 2.9558-0.61328 3.7715-0.81598 1.1328-3.1662 1.623-4.1855 1.623-1.019 0-3.3689-0.4902-4.1855-1.623-0.58768-0.81534-0.62934-2.8576-0.61719-3.75-1.2595-0.51063-5.8322-2.4644-6.9961-4.3477-1.0779-1.7445-0.69309-7.1431-0.57031-8.5605-1.0529-1.4328-1.7948-3.7987-2.0234-6.5312-0.18833-2.2535-0.016464-5.2765 1.0898-6.3828 0.31686-0.31718 0.77323-0.472 1.3516-0.46289zm0.09375 0.9668c-0.39516-0.023421-0.64668 0.054884-0.76562 0.17383-0.68585 0.68617-1.0277 3.0517-0.8125 5.625 0.24428 2.9212 1.0805 5.3555 2.2363 6.5117 0.18737 0.18705 0.18737 0.49069 0 0.67773-0.073541 0.073539-0.16644 0.11096-0.26172 0.12695-0.15508 2.2206-0.26044 6.1589 0.47656 7.3516 0.84796 1.3714 4.3058 3.0305 6.1875 3.8184v-1.5762c0.042698-0.79285 0.10213-0.90738 0.43945-0.95508 0.14448-0.02043 0.28224 0.014128 0.39453 0.068359 0.077008 0.085106 0.125 0.19656 0.125 0.32031v3.3223c0 0.02526-0.00266 0.050238-0.005859 0.074218 0.002557 1.1185 0.12348 2.5358 0.43555 2.9688 0.39648 0.55028 1.6125 0.98153 2.6133 1.1484-0.34251-0.31628-0.6799-0.75485-0.86914-1.1973-0.037165-0.15092-0.078888-0.30045-0.09375-0.45508-0.01788-0.18609-0.02919-0.3251-0.03125-0.44336 0.042973-0.2393 0.13656-0.43661 0.2793-0.58789l0.001953-0.001953c0.068533-0.050818 0.13724-0.099452 0.24023-0.16406 0.18722-0.11744 0.40518-0.19794 0.63477-0.25195 0.19876-0.037644 0.40804-0.060546 0.63281-0.060546 0.22696 0 0.44028 0.024079 0.64062 0.0625 0.36677 0.088276 0.68918 0.25181 0.89258 0.48828 0.086918 0.10104 0.14048 0.20372 0.19726 0.30664 0.052464 0.14311 0.087891 0.29916 0.087891 0.48633 0 0.62158-0.51629 1.3515-1.0215 1.8184 1.0008-0.16754 2.2152-0.59848 2.6113-1.1484 0.31367-0.43549 0.43392-1.8729 0.43359-3.002-1e-3 -0.01375-0.005859-0.026945-0.005859-0.041015v-2.3925l0.033203-1.0898c0.025804-0.071512 0.064906-0.13636 0.11914-0.1875l0.29102-0.041016c0.13353-0.018881 0.2426-0.013347 0.33203 0.019531 0.11013 0.087904 0.18555 0.21738 0.18555 0.36914v2.1211c1.8833-0.78113 5.3386-2.4261 6.1855-3.7969 0.73764-1.1933 0.63391-5.1313 0.47852-7.3516-0.094963-0.015988-0.18818-0.053413-0.26172-0.12695-0.05292-0.052918-0.08634-0.11544-0.10938-0.18164-0.006748-0.13918 0.012788-0.28587 0.064453-0.42774 0.01579-0.022548 0.024805-0.048208 0.044922-0.068359 2.5771-2.5774 2.8671-10.693 1.4238-12.137-0.23789-0.23789-1.0075-0.31222-2.3926 0.26172-3.0312 1.2556-7.2305 4.8803-7.2305 8.418 0 0.26507-0.21572 0.47852-0.48047 0.47852s-0.47852-0.21345-0.47852-0.47852c0-0.1263 0.004672-0.25261 0.013672-0.37891-0.6478-0.05724-1.3305-0.091797-2.0547-0.091797-0.72422 0-1.4072 0.034247-2.0547 0.091797 0.00927 0.1263 0.013672 0.25229 0.013672 0.37891 0 0.26507-0.2154 0.47852-0.48047 0.47852-0.17853 0-0.32758-0.10155-0.41016-0.24609-0.027029-0.068979-0.045395-0.18567-0.070313-0.27148-0.030638-3.5259-4.2085-7.1279-7.2285-8.3789-0.69304-0.28713-1.2318-0.41213-1.627-0.43555zm4.4492 16.398c3.6447 0 3.8635 1.88e-4 5.1719 2.4961 0.0742 0.14133 0.072514 0.3108-0.003906 0.45117-0.076418 0.14037-0.21772 0.23302-0.37695 0.24805-0.008633 6.4e-4 -0.21265 0.019531-0.52344 0.019531-0.79328 0-2.2506-0.1253-3.0938-0.9707-0.33317-0.33445-0.5391-0.74031-0.61328-1.2129-0.0307-0.0023-0.059077-0.005612-0.085937-0.007812-0.56786-0.048281-0.94352-0.080128-0.95312-0.5332-0.002877-0.12886 0.046548-0.2533 0.13672-0.3457 0.090167-0.092084 0.21294-0.14453 0.3418-0.14453zm15.189 0c0.12886 0 0.25163 0.052442 0.3418 0.14453 0.09017 0.092405 0.13992 0.21685 0.13672 0.3457-0.009592 0.45339-0.38526 0.48492-0.95312 0.5332-0.02718 2e-3 -0.054917 0.005212-0.085937 0.007812-0.073861 0.47194-0.27979 0.87844-0.61328 1.2129-0.84316 0.84508-2.3008 0.9707-3.0938 0.9707-0.31111 0-0.51709-0.018569-0.52539-0.019531-0.15923-0.015028-0.29922-0.10768-0.375-0.24805-0.07642-0.14037-0.078086-0.30985-0.003907-0.45117 1.3084-2.4959 1.5275-2.4961 5.1719-2.4961z" fill="#fff"/>
</svg>
