<?xml version="1.0" encoding="UTF-8"?>
<svg version="1.1" viewBox="0 0 48 48" xmlns="http://www.w3.org/2000/svg">
    <g fill="#fff">
        <path d="m7 7v6h2.75c0.0062-0.0061 0.0114-0.0135 0.0176-0.0195 0.928-0.904 2-1.653 3.236-2.01v-3.9727zm7 0v3.7832c0.1655-0.01582 0.33-0.0332 0.5-0.0332 1.853 0 3.4453 0.97287 4.736 2.231 0.0062 0.0061 0.01136 0.01345 0.01758 0.01953h0.746v-6zm13 7-6 0.002v1.0664c0.5364 0.7518 1 1.5422 1.457 2.3262 0.5 0.91 0.9243 1.7805 1.297 2.6055h3.2461zm-20 0.002v2.615c0.542-0.906 1.141-1.8 1.822-2.615zm5.45 0c-0.3123 0.2162-0.6261 0.4624-0.9414 0.7695-1 1-1.9832 2.4-2.7812 3.8379-0.2631 0.473-0.479 0.931-0.705 1.393h5v-6zm1.551 0v6h6v-1.856c-0.743-1.27-1.6-2.491-2.508-3.375-0.3153-0.3071-0.6291-0.5533-0.941-0.7695zm-6.461 7c-0.2 0.445-0.3773 0.85914-0.53516 1.2441v4.7559h6v-6zm13.46 0v6l2.02-2.02c-0.112-0.308-0.213-0.594-0.213-0.594s-0.494-1.5-1.3457-3.383zm3.184 0c0.379 0.906 0.624 1.56 0.793 2.02l2.02-2.02z"/>
        <path d="m41 41v-6h-2.75c-0.0062 0.0061-0.0114 0.0135-0.0176 0.0195-0.928 0.904-2 1.653-3.236 2.01v3.9727zm-7 0v-3.7832c-0.1655 0.01582-0.33 0.0332-0.5 0.0332-1.853 0-3.4453-0.97287-4.736-2.231-0.0062-0.0061-0.01136-0.01345-0.01758-0.01953h-0.746v6zm-13-7 6 0.002v-1.0664c-0.5364-0.7518-1-1.5422-1.457-2.3262-0.5-0.91-0.9243-1.7805-1.297-2.6055h-3.2461zm20-0.002v-2.615c-0.542 0.906-1.141 1.8-1.822 2.615zm-5.45 0c0.3123-0.2162 0.6261-0.4624 0.9414-0.7695 1-1 1.9832-2.4 2.7812-3.8379 0.2631-0.473 0.479-0.931 0.705-1.393h-5v6zm-1.551 0v-6h-6v1.856c0.743 1.27 1.6 2.491 2.508 3.375 0.3153 0.3071 0.6291 0.5533 0.941 0.7695zm6.461-7c0.2-0.445 0.3773-0.85914 0.53516-1.2441v-4.7559h-6v6zm-13.46 0v-6l-2.02 2.02c0.112 0.308 0.213 0.594 0.213 0.594s0.494 1.5 1.3457 3.383zm-3.184 0c-0.379-0.906-0.624-1.56-0.793-2.02l-2.02 2.02z"/>
    </g>
    <g fill="#fff">
        <path d="m5 41h1v1h1v1c-1.113 0-2-0.8925-2-2z"/>
        <path d="m5 7h1v-1h1v-1c-1.113 0-2 0.8925-2 2z"/>
        <path d="m43 7h-1v-1h-1v-1c1.113 0 2 0.8925 2 2z"/>
        <path d="m43 41h-1v1h-1v1c1.113 0 2-0.8925 2-2z"/>
        <rect x="5" y="35" width="1" height="6"/>
        <rect x="42" y="7" width="1" height="6"/>
        <rect x="5" y="28" width="1" height="6"/>
        <rect x="42" y="14" width="1" height="6"/>
        <rect x="5" y="7" width="1" height="6"/>
        <rect x="42" y="35" width="1" height="6"/>
        <rect x="7" y="42" width="6" height="1"/>
        <rect x="35" y="5" width="6" height="1"/>
        <rect x="14" y="42" width="6" height="1"/>
        <rect x="28" y="5" width="6" height="1"/>
        <rect x="21" y="42" width="6" height="1"/>
        <rect x="21" y="5" width="6" height="1"/>
        <rect x="28" y="42" width="6" height="1"/>
        <rect x="14" y="5" width="6" height="1"/>
        <rect x="35" y="42" width="6" height="1"/>
        <rect x="7" y="5" width="6" height="1"/>
        <path d="m6 25c-0.1615 0.46-0.46 1.21-0.8164 2.06h0.8164z"/>
        <path d="m5 14v6h0.2461c0.231-0.5121 0.4714-1.028 0.7539-1.582v-4.418z"/>
        <path d="m42 23c0.1615-0.46 0.46-1.21 0.8164-2.062h-0.8164z"/>
        <path d="m43 34v-6h-0.2461c-0.231 0.5121-0.4714 1.028-0.7539 1.582v4.418z"/>
        <rect x="7" y="35" width="6" height="6"/>
        <rect x="35" y="7" width="6" height="6"/>
        <rect x="7" y="28" width="6" height="6"/>
        <rect x="28" y="7" width="6" height="6"/>
        <rect x="35" y="14" width="6" height="6"/>
        <rect x="14" y="35" width="6" height="6"/>
        <rect x="14" y="28" width="6" height="6"/>
        <rect x="28" y="14" width="6" height="6"/>
        <rect x="14" y="21" width="6" height="6"/>
        <rect x="28" y="21" width="6" height="6"/>
        <rect x="21" y="35" width="6" height="6"/>
        <rect x="21" y="7" width="6" height="6"/>
    </g>
</svg>
