<?xml version="1.0" encoding="UTF-8" standalone="no"?>
<!-- Created with Inkscape (http://www.inkscape.org/) -->

<svg
   xmlns:dc="http://purl.org/dc/elements/1.1/"
   xmlns:cc="http://creativecommons.org/ns#"
   xmlns:rdf="http://www.w3.org/1999/02/22-rdf-syntax-ns#"
   xmlns:svg="http://www.w3.org/2000/svg"
   xmlns="http://www.w3.org/2000/svg"
   xmlns:sodipodi="http://sodipodi.sourceforge.net/DTD/sodipodi-0.dtd"
   xmlns:inkscape="http://www.inkscape.org/namespaces/inkscape"
   id="SVGRoot"
   version="1.1"
   viewBox="0 0 48 48"
   height="48px"
   width="48px"
   sodipodi:docname="overdrive.svg"
   inkscape:version="0.92.4 (5da689c313, 2019-01-14)">
  <defs
     id="defs3732" />
  <sodipodi:namedview
     id="base"
     pagecolor="#000000"
     bordercolor="#666666"
     borderopacity="1.0"
     inkscape:pageopacity="0"
     inkscape:pageshadow="2"
     inkscape:zoom="7.5424726"
     inkscape:cx="28.265241"
     inkscape:cy="17.130776"
     inkscape:document-units="px"
     inkscape:current-layer="layer2"
     showgrid="false"
     inkscape:window-width="1366"
     inkscape:window-height="704"
     inkscape:window-x="0"
     inkscape:window-y="27"
     inkscape:window-maximized="1"
     inkscape:grid-bbox="true" />
  <metadata
     id="metadata3735">
    <rdf:RDF>
      <cc:Work
         rdf:about="">
        <dc:format>image/svg+xml</dc:format>
        <dc:type
           rdf:resource="http://purl.org/dc/dcmitype/StillImage" />
        <dc:title></dc:title>
      </cc:Work>
    </rdf:RDF>
  </metadata>
  <g
     inkscape:groupmode="layer"
     id="layer2"
     inkscape:label="Layer 2"
     style="display:inline;opacity:0.96">
    <path
       style="opacity:1;fill:#ffffff;fill-opacity:1;fill-rule:nonzero;stroke:none;stroke-width:1.54174268;stroke-miterlimit:4;stroke-dasharray:none;stroke-opacity:1"
       d="M 27.140688,7.3591287 A 16.079394,20.583845 70.505474 0 0 11.923354,12.394152 16.079394,20.583845 70.505474 0 0 7.8925663,35.92681 16.079394,20.583845 70.505474 0 0 36.075778,35.605394 16.079394,20.583845 70.505474 0 0 40.108102,12.072735 16.079394,20.583845 70.505474 0 0 27.140688,7.3591287 Z m -1.199547,5.4271823 a 10.701034,13.159851 65.550776 0 1 8.226127,3.163422 10.701034,13.159851 65.550776 0 1 -2.557497,15.781737 10.701034,13.159851 65.550776 0 1 -17.880945,0.215304 10.701034,13.159851 65.550776 0 1 2.557496,-15.783275 10.701034,13.159851 65.550776 0 1 9.654819,-3.377188 z"
       id="path917"
       inkscape:connector-curvature="0" />
  </g>
</svg>
