<?xml version="1.0" encoding="UTF-8"?>
<svg width="192" height="192" version="1.1" viewBox="0 0 50.8 50.8" xmlns="http://www.w3.org/2000/svg">
    <g fill="#fff">
        <path transform="scale(.26458)" d="m31.748 35.438c-4.1877 0-7.5586 3.3709-7.5586 7.5586v83.15c0 4.1877 3.3709 7.5586 7.5586 7.5586h128.5c4.1877 0 7.5586-3.3709 7.5586-7.5586v-83.15c0-4.1877-3.3709-7.5586-7.5586-7.5586h-128.5zm11.338 16.133h105.83c4.1877 0 7.5586 2.8662 7.5586 6.4258s-3.3709 6.4258-7.5586 6.4258h-105.83c-4.1877 0-7.5586-2.8662-7.5586-6.4258s3.3709-6.4258 7.5586-6.4258zm0 26.576h105.83c4.1877 0 7.5586 2.8662 7.5586 6.4258 0 3.5596-3.3709 6.4238-7.5586 6.4238h-105.83c-4.1877 0-7.5586-2.8643-7.5586-6.4238 0-3.5596 3.3709-6.4258 7.5586-6.4258zm0 26.574h37.797c4.1877 0 7.5586 2.8662 7.5586 6.4258 0 3.5596-3.3709 6.4258-7.5586 6.4258h-37.797c-4.1877 0-7.5586-2.8662-7.5586-6.4258 0-3.5596 3.3709-6.4258 7.5586-6.4258z" stroke-width="3.3638"/>
        <path d="m14.268 35.376 15.021 9.0623c2.5901 1.4569 3.3246 1.6079 2.3746-0.24244-1.1044-2.1512-4.5731-8.8198-4.5731-8.8198z"/>
    </g>
</svg>
