<?xml version="1.0" encoding="UTF-8"?>
<svg viewBox="0 0 48 48" xmlns="http://www.w3.org/2000/svg">
    <path d="m21.234 10.598c-0.1291-0.0058-0.21691 0.05095-0.27204 0.10118-0.05513 0.05024-0.08911 0.10054-0.11446 0.17085v0.0017c-0.01503 0.04185 0.0098 0.06886 0.01327 0.11114-0.02582 0.04008-0.07673 0.10999-0.0763 0.2372 3.65e-4 0.10221 0.06577 0.1259 0.11611 0.17915-0.07393 0.03532-0.1013 0.10264-0.13436 0.16754-0.07696 0.04086-0.18958 0.08587-0.31848 0.13934-0.05674-0.02054-0.12289-0.04318-0.19574-0.02654-0.09985 0.02282-0.12026 0.06727-0.1609 0.10948-0.03159-2e-3 -0.05637-0.01018-0.09787 0.0017-0.07386 0.02107-0.14378 0.07854-0.17915 0.13104-0.04922 0.07307-0.04463 0.11629-0.05308 0.1692-0.05738-0.01818-0.08818-0.04436-0.22725-0.03152-0.03634 0.0034-0.04379 0.03178-0.07465 0.04645-0.03992-0.01511-0.03204-0.04043-0.09289-0.03815-0.22258 0.0081-0.31493 0.09907-0.30522 0.09621 0.05678-0.01674 0.04229-8e-3 -0.01493-0.0066s-0.21502 0.01355-0.32014 0.15261c-0.04218 0.05582-0.02342 0.12201-0.02488 0.19242-0.04625-0.02768-0.08213-0.06489-0.13934-0.06967-0.06149-0.0052-0.15835 0.01161-0.23057 0.06801-0.07221 0.0564-0.10177 0.1287-0.11446 0.17417-8.49e-4 0.0031 7.82e-4 2e-3 0 5e-3 -0.0014-4.1e-5 -2e-3 -0.0016-0.0033-0.0016-0.07839-0.0019-0.22375 0.01924-0.31351 0.16256-0.04662 0.07445-0.05364 0.12256-0.06967 0.17915-0.0064 1.88e-4 -0.03637 9.34e-4 -0.05142 0.0033-0.06635 0.01033-0.06889 0.03107-0.1045 0.05308-0.01811-0.0075-0.01841-0.01335-0.0481-0.01991-0.0831-0.01835-0.26211 0.02275-0.33839 0.11611-0.08044 0.09836-0.07279 0.17819-0.0763 0.25214-0.05745-0.05075-0.08308-0.1029-0.19905-0.141-0.05921-0.01945-0.18106-0.02738-0.27868 0.0365-0.03286 0.0215-0.02733 0.04078-0.04645 0.06469-0.08054 0.02886-0.17769 0.04241-0.23223 0.08957-0.0054 0.0047 5e-6 0.0053-5e-3 0.01-0.02645 0.0031-0.05996-0.0037-0.07797 0.0017-3.93e-4 -9e-6 -0.0061 9.2e-5 -0.0083 0-0.0043-1.84e-4 -0.0076-0.0012-0.01659-0.0017-0.02696-0.0013-0.06963-0.0032-0.11943-0.0017-0.0996 0.0031-0.23752 0.01655-0.38152 0.1045-0.08416 0.05137-0.13973 0.13718-0.16256 0.19905-0.0042 0.01157-2e-3 0.01461-5e-3 0.02488-0.05086 0.0439-0.07804 0.07986-0.09455 0.10948-0.06107 0.02112-0.12635 0.03158-0.1692 0.09123-0.03019 0.04179-0.02707 0.08106-0.03649 0.12441l-0.0033 0.0033c-0.0101-0.0048-0.01-0.01378-0.02156-0.01824-0.0021-8.06e-4 -0.0013 7.69e-4 -0.0033 0-0.01824-0.06203-0.0386-0.13302-0.1045-0.18744-0.09851-0.08134-0.18964-0.1085-0.29858-0.11611-0.10894-0.0076-0.27677 0.01308-0.38815 0.17251-0.06391 0.09149-0.04824 0.22068-0.02488 0.30687-0.01937 0.02282-0.02844 4e-3 -0.04645 0.03815-0.04441 0.08433-0.04277 0.19231-0.02156 0.25877 0.02121 0.06646 0.04984 0.10309 0.07465 0.13104 0.0496 0.0559 0.08755 0.07881 0.13602 0.10284 0.0156 0.0077 0.01243-3.42e-4 0.02654 5e-3 0.0087 0.01521-0.0039 0.01352 0.0083 0.02986 0.02206 0.0296 0.02972 0.01849 0.05143 0.03649-0.0056 0.01655-0.01243 0.0096-0.01659 0.02986-0.01302 0.06342-0.06843 0.2113 0.06469 0.39313 0.05159 0.07043 0.0909 0.08193 0.13436 0.10782 0.01688 0.07055 0.04083 0.14838 0.08294 0.18578h0.0017c0.06219 0.05511 0.0902 0.0343 0.14266 0.04478 0.01125 0.01901 0.0046 0.03311 0.02156 0.05142 0.01263 0.01335 0.04279 0.03956 0.04313 0.03981 3.49e-4 2.58e-4 0.06101 0.03468 0.06138 0.03484 1.91e-4 8.3e-5 0.02426 4e-3 0.03981 0.0066 0.01813 0.01783 0.01152 0.02491 0.03981 0.04313 0.03377 0.02158 0.04303 0.01803 0.06967 0.0282 0.02611 0.04966 0.07438 0.08727 0.12109 0.11777 0.0056 0.0314-0.01423 0.06048 0 0.08626 0.0275 0.04987 0.05641 0.03767 0.09123 0.06635-0.0088 0.01446-0.01641 0.01713-0.02488 0.03317v0.0017c-0.02131 0.04072-6.36e-4 0.03756-0.0066 0.06967-0.03235 0.03197-0.07231 0.03922-0.08792 0.08294-0.02266 0.06316-0.0056 0.07297-5e-3 0.11446-0.01804 0.0077-0.02659 0.0059-0.04976 0.01991-0.063 0.03809-0.15034 0.12891-0.17583 0.24052-0.0348 0.15233 0.01676 0.28082 0.06636 0.36327 0.04959 0.08245 0.10451 0.13846 0.14929 0.18081 0.06833 0.0646 0.09418 0.04501 0.14597 0.05806-0.0078 0.05315-0.02706 0.09021 5e-3 0.18744 0.01604 0.04866 0.07386 0.05967 0.11943 0.09787-4e-3 0.05413-0.03083 0.15688 0.07962 0.34503 0.02742 0.04671 0.06357 0.05342 0.09953 0.07962-0.0048 0.03033-0.0175 0.02719-0.01493 0.06967 0.0054 0.09306 0.01373 0.23746 0.14266 0.37986 0.09183 0.10156 0.18186 0.1052 0.23389 0.11114 0.0088 0.0076 0.02315 0.02168 0.01824 0.01327-0.03514-0.06032-0.01916-0.06061-0.01328-5e-3 0.0059 0.05564 0.01585 0.20183 0.15261 0.31351 0.17815 0.14554 0.36869 0.15379 0.50593 0.15427 0.01853 5.7e-5 0.03984-0.0016 0.06469-0.0066 0.01287-0.0026 0.02544-0.0082 0.04313-0.01493 0.015 0.01913 0.0062 0.01863 0.0564 0.05971 1e-3 0.07562-0.03162 0.06767 0.03815 0.15427 0.06119 0.07592 0.10498 0.08777 0.14431 0.1045 0.0091 0.04108 0.0174 0.09995 0.08128 0.18247 0.06224 0.08045 0.111 0.09976 0.14929 0.11943 0.0013 0.05137-0.01339 0.08783 0.04313 0.17086 0.09363 0.13739 0.21803 0.19951 0.34337 0.23057 0.07371 0.01827 0.07281-6e-3 0.11611-0.01493 0.06045 0.04449 0.11655 0.09028 0.14763 0.13602-0.0069 0.04231-0.02551 0.10914 0.0017 0.22725 0.02689 0.11698 0.10065 0.18375 0.13934 0.21398 0.03869 0.03023 0.05713 0.0396 0.04645 0.03152-5.9e-5 -4.4e-5 0.02946 0.03 0.08294 0.0763 0.05347 0.04631 0.15036 0.12098 0.2936 0.13104 0.04754 0.0033 0.11273-0.027 0.17251-0.0564 0.0076 0.0063 0.0031 0.0088 0.01161 0.01493 0.0073 0.0053 0.0198 3.59e-4 0.0282 5e-3 0.01784 0.07071 0.02722 0.15099 0.12275 0.2372 0.06151 0.05553 0.13096 0.04911 0.19905 0.0564 0.01103 0.03589-0.0013 0.04534 0.02986 0.09289 0.02083 0.03182 0.04755 0.02756 0.07465 0.0481 0.0052 0.06218 7e-3 0.15495 0.09621 0.26043 0.06112 0.07233 0.15108 0.11244 0.21232 0.12441 0.04247 0.0083 0.06292 0.0058 0.08626 5e-3 -0.0063 4.97e-4 -0.02287-7e-3 0.03815 0.04645-0.01152-0.01011-0.01437-0.01676 0.01 0.01493 0.02432 0.0317 0.07199 0.08633 0.1327 0.1327 0.02782 0.02125 0.03286 0.0066 0.05806 0.01824-0.0036 0.01204-0.0182 0.01606-0.01991 0.0282-0.01472 0.10593 0.07186 0.23545 0.141 0.29692 0.0077 0.01932-0.0057 0.03384 0.0066 0.05142 0.01374 0.01955 0.0315 0.01811 0.0481 0.03317 2.81e-4 1e-3 0.0016 0.0082 0.0017 0.0083 3.58e-4 7.03e-4 0.10544 0.11896 0.10616 0.11943 3.6e-4 2.4e-4 0.06091 0.03134 0.06138 0.03152 4.6e-4 1.76e-4 0.03717 0.01346 0.05308 0.01659h0.0017c0.24475 0.04762 0.44248 0.03742 0.59384 0.06138 0.0027 0.0044 0.0098 0.01645 0.01 0.01659 4.96e-4 6.48e-4 0.11546 0.09258 0.11612 0.09289 6.58e-4 3.09e-4 0.16171 0.02828 0.16256 0.0282 4.24e-4 -4e-5 0.06256-0.01147 0.06303-0.01161 4.77e-4 -1.45e-4 0.03361-0.01205 0.04645-0.01824 0.07191-0.03488 0.06967-0.06124 0.09621-0.09787 0.05386-0.01068 0.10215 3.74e-4 0.14597-0.03815 0.01536-0.01354 0.0066-0.02794 0.01824-0.04313 0.03277-0.0094 0.05856 0.0059 0.08792-0.01493 0.03681-0.02616 0.01889-0.0499 0.04313-0.07797 0.06938 0.03099 0.10978 0.08205 0.22394 0.06304 0.02561-0.0042 0.01547-0.01618 0.03649-0.02322 0.01937 0.02566 5.37e-4 0.03669 0.03317 0.06138h0.0017c0.09754 0.07373 0.19763 0.08096 0.26872 0.07464 0.07109-0.0063 0.12552-0.02554 0.17915-0.05474 0.13481-0.07352 0.19724-0.17444 0.21896-0.31351v-0.0017h0.0017c0.01091-0.07256 0.0035-0.05501 0.0033-0.06801-1.26e-4 -0.013-0.0013-0.02627-0.0017-0.04147-7.66e-4 -0.0304-1e-3 -0.06702-0.0017-0.10284-5.56e-4 -0.03269-5.33e-4 -0.06397 0-0.08626 0.0044-0.0025-0.0021 0.0013 0.0033-0.0017 0.04775-0.02616 0.14675-0.0739 0.2173-0.1974 3.76e-4 -6.57e-4 -3.7e-4 -1e-3 0-0.0017 0.04622 0.02045 0.05605 0.03765 0.15261 0.04313 0.14493 0.0082 0.22722-0.05204 0.28863-0.1128 0.0614-0.06076 0.12089-0.13893 0.11611-0.28199v-0.0034c-0.0022-0.05336-0.03113-0.07471-0.05142-0.11446 0.02189-0.0375 0.04434-0.05714 0.0564-0.13436 0.01459-0.09326-0.0098-0.12529-0.02654-0.16754 0.01663-0.02754 0.02663-0.05419 0.03649-0.10616 6.7e-4 5.9e-4 1e-3 0.0011 0.0017 0.0017 0.08837 0.07628 0.26151 0.09209 0.34337 0.06303 0.04543-0.01613 0.05361-0.02809 0.07465-0.04313 0.01173 0.0023 0.01174 0.0051 0.02654 0.0066 0.06843 0.0072 0.19073-0.01893 0.26872-0.08792h0.0017c0.01203-0.01094 0.0083-0.02298 0.01824-0.03483 0.0347 0.02772 0.06754 0.06078 0.14431 0.09123 0.06268 0.02491 0.08287 0.01107 0.12275 0.01 0.01365 0.03039 0.0019 0.04018 0.03484 0.0763 0.07745 0.08476 0.16569 0.10524 0.20237 0.1128 0.03668 0.0076 0.04178 0.01006 0.0066-0.0017 0.07866 0.02621 0.08429 0.01811 0.10284 0.01991 0.01856 0.0018 0.03307 0.0032 0.04645 5e-3 0.02676 0.0034 0.04552 0.01214 0.03152 5e-3 -0.01475-0.0076 0.0014-1.82e-4 0.03815 0.03649 0.03683 0.03667 0.09503 0.10196 0.20237 0.15261 0.12655 0.05974 0.26866 0.08532 0.42962 0.02986 0.04237-0.0146 0.05635-0.04321 0.08626-0.06801 0.02169 0.03942 0.0025 0.05807 0.05971 0.09787 0.02685 0.01866 0.05061 0.0015 0.08128 0.01 0.0041 0.0087-0.0035 0.01488 0.0017 0.02322 0.08419 0.13754 0.1917 0.19126 0.25379 0.22725 0.09068 0.05255 0.218 0.1461 0.41304 0.18247 0.2596 0.04844 0.51861 0.05623 0.76636 0.0481 7e-3 -2.27e-4 0.01269-0.0091 0.01991-0.01 0.03467 0.0071 0.07318 0.03024 0.1045 0.0282 0.066-0.0043 0.13286-0.0201 0.20403-0.07796 0.07886-0.06422 0.16454-0.14436 0.23555-0.25379 0.0035-0.0054 0.0018-0.0048 5e-3 -0.01 0.0027-2.32e-4 0.0039 2e-3 0.0066 0.0017 0.0078-8.37e-4 0.0075-7e-3 0.01493-0.0083 0.03021 0.02267 0.02659 0.04013 0.0763 0.05806 0.05593 0.02016 0.05311-0.0022 0.09289-0.0017 0.01423 0.05988-9.34e-4 0.10029 0.07464 0.17251 0.07863 0.07516 0.21854 0.07773 0.30522 0.06304 0.045 0.03744 0.09833 0.08995 0.22228 0.10616 0.06152 0.0081 0.0676-0.0135 0.11114-0.02156-0.0054 0.04647-0.01687 0.08604 5e-3 0.16422 0.03989 0.14301 0.14013 0.20535 0.21232 0.23555 0.07219 0.0302 0.13682 0.04347 0.23223 0.02322 0.20017-0.04291 0.26314-0.16239 0.29858-0.29029 0.04488-0.16284 0.03194-0.21542 0.02488-0.22559 0.03375-0.03661 0.07408-0.0498 0.08792-0.10284 0.0113-0.04324-0.0061-0.06596-0.01-0.10284 0.026-0.0239 0.04704-0.03587 0.08128-0.08957 0.0083-0.01305-9.35e-4 -0.02137 5e-3 -0.03484 0.01405-7.61e-4 0.0041 0.0245 0.08626-0.0564 0.04661-0.04583 0.04725-0.12063 0.05806-0.19076 0.03271-0.01176 0.03268 0.01236 0.07132-0.01659 0.0477-0.03575 0.03082-0.0437 0.05308-0.07465 0.02791 0.0098 0.0464 0.0162 0.09953 0.04147 0.01999 0.03315 0.04723 0.08837 0.14266 0.14597 0.167 0.10075 0.29588 0.0729 0.42465-0.0066 0.02088-0.01288 0.01062-0.01556 0.02654-0.0282 0.05906 0.03457 0.13959 0.07391 0.23886 0.06303 0.25871-0.02832 0.34056-0.15402 0.39977-0.21232 0.04133 0.0017 0.07667 0.01043 0.12109-0.0033 0.07848-0.02429 0.13847-0.06803 0.18578-0.11446 0.0934-0.09166 0.12594-0.17311 0.15095-0.22394 0.03098 0.0051 0.05975 0.01046 0.11611 0.0066 0.07572-0.0052 0.19566-0.04125 0.27536-0.12773 0.11572-0.12562 0.13366-0.26911 0.141-0.36493 0.03656 0.0042 0.03506 0.02502 0.0846 0.01327v0.0017c0.12023-0.02837 0.22643-0.08951 0.31185-0.1974 0.0372-0.04694 0.05881-0.1236 0.09123-0.18412l0.06138-0.02156 0.03484-0.17417c0.02484-0.12345-0.0054-0.15023-0.02488-0.19242 0.03183-0.03286 0.05326-0.016 0.07464-0.13934 0.0352-0.20225 0.0096-0.28963 5e-3 -0.3301 0.02806-0.02338 0.04204-0.0197 0.07465-0.07962 7.78e-4 -0.0014-7.53e-4 -0.0019 0-0.0033 0.11849-0.0366 0.25338-0.05574 0.45119-0.17583 0.17658-0.10725 0.20095-0.25077 0.22228-0.35498 0.05842-0.04979 0.1366-0.10466 0.15261-0.13104 0.03052-0.05019 0.02851-0.06848 0.03484-0.09621 0.0014-8.29e-4 -0.0068 0.0079 0.01493-0.01 0.03321-0.02724 0.09558-0.08654 0.14431-0.17915 0.05451-0.01072 0.09006-0.02 0.11777-0.0365 0.05242 0.03175 0.11435 0.08144 0.24882 0.05971 0.15035-0.0243 0.23187-0.11277 0.26872-0.15095 0.01648-0.01707-2e-3 -0.0036 0.0017-0.0066 0.03831-0.0013 0.05799 0.0095 0.12275-0.02322 0.0107-0.0054 0.0395-0.02301 0.03981-0.02322 3.1e-4 -2.18e-4 0.05788-0.05287 0.05806-0.05308 1.81e-4 -2.11e-4 0.06131-0.11259 0.06138-0.1128 6.1e-5 -2.04e-4 5e-3 -0.16734 5e-3 -0.16754-3e-6 -1.3e-5 -0.0028-0.0072-0.0033-0.0083 0.01097-0.03897 0.03539-0.04061 0.02986-0.09455-0.01119-0.11108-0.05977-0.13163-0.10119-0.17251-0.0081-0.0235-0.01608-0.08787-0.0282-0.18247-0.01212-0.09459-0.03042-0.22828-0.12109-0.36327-0.06182-0.09206-0.19842-0.15294-0.28199-0.15593-0.03565-0.0013-0.04475 0.0058-0.06801 0.01-0.01796-0.0173-0.01927-0.03877-0.04147-0.05143-0.08939-0.05095-0.11944-0.03607-0.16754-0.03649-0.03698-0.05621-0.06416-0.12403-0.08626-0.19574 0.03363-0.05392 0.07521-0.12521 0.06469-0.22228-0.01028-0.09573-0.07819-0.16398-0.1327-0.21232 0.0055-0.05267 0.03105-0.07418-5e-3 -0.15427-0.07348-0.16329-0.20584-0.19856-0.2936-0.20901-0.0642-0.0076-0.13467 0.02311-0.20735 0.0564-0.03396-0.02234-0.04767-0.04269-0.10118-0.06138-0.12566-0.04394-0.25526-0.05248-0.38318-0.04478-0.0058-0.0046-0.0038-0.01252-0.01-0.01659-0.07034-0.04686-0.09291-0.02418-0.14431-0.0282-0.01718-0.0365 0.0095-0.04402-0.03317-0.0846-0.09374-0.0892-0.19787-0.10187-0.27204-0.09953-0.0086 2.71e-4 -0.015 0.0059-0.02322 0.0066-0.01189-0.02428-0.0014-0.03144-0.02156-0.05806-0.09648-0.12675-0.22011-0.19009-0.36862-0.20729-0.12037-0.01392-0.21221 0.03144-0.26706 0.06967-0.05486 0.03823-0.08525 0.07517-0.11114 0.10948h-0.0017v0.0016c-0.0443 0.05925-0.04767 0.10607-0.05474 0.15758-0.0049 0.0037-0.01517 0.0045-0.01991 0.0083-4e-3 -0.0034-0.0024-0.0085-0.0066-0.01161-0.03889-0.02903-0.04584-0.015-0.07797-0.02654-0.0023-5e-3 9.34e-4 -0.0031-0.0017-0.0083-0.04781-0.09683-0.10308-0.20447-0.18247-0.31185-0.0059-0.0079-0.02074-0.02065-0.0282-0.02986 0.03493-0.01755 0.06778-0.01504 0.09621-0.04645 0.14818-0.16344 0.14204-0.31682 0.06303-0.47939-0.01614-0.03328-0.02518-0.01381-0.04313-0.03649 0.01705-0.064 0.03209-0.15023-0.0033-0.2372-0.04987-0.12262-0.13617-0.1932-0.22062-0.23886-0.08445-0.04566-0.17363-0.07161-0.28199-0.06469-0.06208 4e-3 -0.17502 0.04146-0.24052 0.12938-0.03125 0.04194-0.02148 0.06782-0.02986 0.1045-0.11158-0.0025-0.22523 0.0028-0.34005 0.03484-0.03187 0.0089-0.02658 0.01723-0.04976 0.0282-0.01431-0.0031-0.02461-0.01253-0.0365-0.01328-0.01532-0.05762 0.01065-0.09633-0.04147-0.15261-0.08527-0.09205-0.24947-0.1229-0.3301-0.10782-0.01888 0.0036-0.01881 0.0074-0.03317 0.01161-0.0051-0.02398 2e-3 -0.039-0.01161-0.06636-0.03616-0.07318-0.11219-0.13415-0.17245-0.15758-0.09364-0.03637-0.12145-0.0054-0.17749 0.0083-0.02936-0.03321-0.02037-0.05443-0.08957-0.08294-0.09674-0.03995-0.15428-0.02539-0.1974-0.01991-0.0312-0.02263-0.09056-0.07197-0.20237-0.09123-0.0308-0.0053-0.04108 0.0162-0.06967 0.01991-0.0346-0.02986-0.0654-0.06387-0.14929-0.09289-0.12215-0.04229-0.22066-0.01106-0.28531 0.02156-0.06466 0.03262-0.10985 0.07117-0.15261 0.13436-0.01486 0.02201-0.04574 0.06219-0.07464 0.12938-0.0289 0.06719-0.06281 0.18629-0.01 0.31849 0.03887 0.09708 0.12537 0.16536 0.18081 0.19242 0.0043 0.0021 0.0042 0.0014 0.0083 0.0033 0.01189 0.05487 0.04021 0.15171 0.10284 0.25213-0.0049 0.0025-0.0049-0.0011-0.01 0.0016-0.02528 0.01386-0.02996 0.03603-0.04976 0.05474-0.01737 0.0017-0.0299-0.0098-0.04645-5e-3 -0.16187 0.04771-0.22991 0.14935-0.27536 0.22725-0.04148 0.07118-0.04694 0.11496-0.05474 0.15095-0.02589 0.01237-0.0345 0.0094-0.06635 0.03815-2.87e-4 -0.0027 2.79e-4 -4.41e-4 0-0.0033-0.0062-0.0641-0.01032-0.1713-0.07962-0.29526-0.11617-0.20788-0.27096-0.38312-0.43294-0.53081-0.04355-0.03973-0.08254-0.03644-0.12773-0.04976-0.01164-0.05746-0.0069-0.10711-0.08128-0.18578-0.05395-0.057-0.10754-0.05416-0.16422-0.07132 0.02827-6e-3 0.02795 0.01071 0.06138-5e-3 0.14704-0.06909 0.22206-0.17846 0.2654-0.3019 0.0053-0.01502-0.0027-0.03283 0-0.04976 0.0065-0.0113 0.0182-9e-3 0.02322-0.02156 0.0052-0.01298-0.0033-0.0188 0-0.03152 0.01671-0.01324 0.01905 7.06e-4 0.03649-0.01824v-0.0016c0.0596-0.06499 0.08671-0.1594 0.08626-0.22394-4.53e-4 -0.06453-0.01702-0.10604-0.02986-0.13602-0.02568-0.05996-0.04802-0.08447-0.06635-0.10616-0.06727-0.07965-0.15579-0.25459-0.37488-0.37986-0.16686-0.09539-0.36192-0.1343-0.57228-0.05971-0.04627 0.01641-0.05888 0.06426-0.09455 0.10119-0.06882-0.03102-0.10785-0.07578-0.22559-0.06303-0.0356 0.0038-0.03907 0.0283-0.06801 0.03981-0.03813-0.04104-0.04044-0.09058-0.10284-0.11611-0.13693-0.05604-0.18793-0.0048-0.2654 0.02322-4e-3 -0.02161-0.0018-0.03293-0.01-0.05971-0.02296-0.0753-0.08095-0.18647-0.19076-0.25213-0.10318-0.06169-0.237-0.06237-0.31517-0.04147-0.07301 0.01952-0.11251 0.04444-0.14431 0.06304-0.04087-0.03295-0.10148-0.08958-0.21896-0.1327-0.10953-0.0402-0.18555-0.02443-0.22394-0.01991 0.0057 4.17e-4 1.33e-4 -0.0017-0.04645-0.03152-0.04448-0.02848-0.14659-0.06088-0.25213-0.07796-0.01068-0.02864-4e-3 -0.04463-0.03317-0.08128-0.06794-0.08538-0.10635-0.09142-0.09623-0.0846-0.06329-0.04261-0.07499-0.03042-0.10616-0.03483-0.0031-0.0032-0.0093-0.01433-0.0066-0.0083-2e-3 -0.0046-0.0025-2e-3 -0.0033-0.0066 0.02984-0.04042 0.06123-0.04085 0.06801-0.12607 0.01393-0.1739-0.05737-0.28366-0.15427-0.37157-0.01688-0.01528-0.03269-0.0076-0.05143-0.01825-0.01191-0.01932-0.01218-0.03529-0.03152-0.05474-0.05051-0.0508-0.12852-0.08501-0.1891-0.09289-0.02032-0.0027-0.01361 0.0086-0.03152 0.0083-0.06821-0.06098-0.15657-0.11593-0.22062-0.11611-0.07949-2.3e-4 -0.12458 0.02035-0.1609 0.03815-0.0085 0.0042-0.01225 0.01258-0.01991 0.01659-0.07983-0.02076-0.16425-0.05571-0.23389-0.05474-0.17754 0.0025-0.26438 0.08957-0.32014 0.14431-0.0567 0.05561-0.15633 0.14546-0.14266 0.34171 0.0064 0.09251 0.05263 0.13698 0.09289 0.18412-0.0057 0.01715-0.01248 0.02092-0.01659 0.04147-0.08182-0.01469-0.14654-0.04671-0.27038 0-0.06063 0.02286-0.08087 0.07332-0.11943 0.11777 0.0096-0.07584 0.02741-0.15846-0.01991-0.24218-0.02183-0.03862-0.07889-0.05773-0.12441-0.08957-0.01932-0.20146-0.13182-0.3122-0.22394-0.37322-0.02131-0.01411-0.0419 1e-3 -0.06636-0.0066-0.0013-0.0011-3.55e-4 -0.0023-0.0017-0.0033-0.0079-0.023-0.0022-0.0384-0.01824-0.06303-0.04635-0.07133-0.13123-0.12176-0.19242-0.13768-0.03245-0.0084-0.07634-0.01578-0.1327-0.0066-0.02818 0.0046-0.08726 0.02788-0.08792 0.0282-5.2e-4 2.52e-4 -0.04246 0.02894-0.06303 0.04313-0.0086-0.0043-2e-3 -0.0059-0.01161-0.0099-0.09055-0.03837-0.13236-0.02301-0.17417-0.01659-0.04432-0.03797-0.06175-0.07999-0.16422-0.0846zm0.17251 0.08957c0.0091 0.0021 5.38e-4 -2e-3 0.01161 0.0017 0.10414 0.03475 0.11074 0.0764 0.08957 0.05142-0.0078-0.0092-0.07543-0.02989-0.10118-0.05308zm0.48105 0.0846c0.0025 6.26e-4 6.12e-4 -7.53e-4 0.0033 0 0.0041 0.0011 0.01181 0.0099 0.01659 0.01161-0.0018 1.13e-4 -0.0067-0.0035-0.0083-0.0033-0.0027-0.0025-0.0079-0.0052-0.01161-0.0083zm-0.47607 0.0282c-2e-3 0.0024-0.01507 0.0064-0.01659 0.0083-7.44e-4 -7.45e-4 -0.0026-9.86e-4 -0.0033-0.0017 2e-3 -0.0014-7.18e-4 -7.6e-5 0.0017-0.0017 3e-3 -2e-3 0.01434-0.0028 0.01824-5e-3zm-0.02156 0.0066c0.0013 0.0014 0.0019 0.0015 0.0033 0.0033-0.0018 0.0021-0.01872 0.0088-0.01991 0.0099-0.0065 0.0066 5.37e-4 -0.0018 0.01659-0.01327zm0.33176 0.03815c0.0033 0.0031 0.01407 0.0055 0.01659 0.0083 0.0282 0.03137 0.03113 0.04209 0.0282 0.03649-0.0014-0.0026-0.04051-0.03338-0.04478-0.04479zm1.6322 0.21236c-4.24e-4 0.04464-0.02361 0.11819-0.02156 0.12938 0.0042 0.02342-0.02528-0.02216 0.01991-0.12773 3.27e-4 -7.63e-4 0.0014-9e-4 0.0017-0.0017zm-1.7716 0.01493c-4.71e-4 0.0034 0.0014 0.0309 0 0.04147-1.9e-5 -3.72e-4 -0.0016-0.0013-0.0017-0.0017-0.0018-0.04027 0.0028-0.04804 0.0017-0.03981zm1.7882 0.40972c-0.02091 0.01171-0.0294 0.02404-0.06138 0.03152-0.0076 0.0018-0.01519-0.0043-0.02322-0.0033 0.0301-0.01281 0.06412-0.01319 0.0846-0.0282zm0.30687 0.0066c0.01219 2e-3 0.02122 0.0025 0.03317 0.0033 0.0019 0.0962 0.0063 0.19104 0.03981 0.26706 0.05763 0.1308 0.12955 0.20045 0.20569 0.26043 0.01496 0.0118 0.02283 0.0077 0.03815 0.01659-5.65e-4 0.04829-0.0026 0.09806 0.01659 0.17417 0.04138 0.16536 0.14504 0.21147 0.22228 0.23886 0.07753 0.0275 0.17436 0.05437 0.31019-0.0365 0.03079-0.02059 0.01672-0.0238 0.03649-0.04313 0.037 0.02297 0.05353 0.04352 0.12275 0.06303 0.09408 0.02652 0.14504 0.01325 0.18081 0.0083 4.05e-4 0.0019 0.0099 0.0069 0.05474 0.04147 0.05566 0.04297 0.14955 0.12 0.3019 0.141 0.08955 0.01235 0.09497-0.02331 0.14929-0.04147 0.0025 0.0096 1.55e-4 0.01276 0.0033 0.02322 0.02269 0.07507 0.08145 0.18586 0.19076 0.25214 0.07551 0.04578 0.14971 0.03621 0.22062 0.03484 8.5e-5 -2e-6 -8.4e-5 0.0017 0 0.0016 0.0075 0.09002 0.05702 0.17344 0.1045 0.22062 0.04777 0.04747 0.09224 0.06945 0.12938 0.0846 0.07429 0.0303 0.12617 0.03585 0.18247 0.03649 0.17722 2e-3 0.26544-0.08309 0.33673-0.19242 0.02231 0.01269 0.02762 0.0348 0.05308 0.04147 0.11167 0.02923 0.19992 4e-3 0.26706-0.0282 0.0573-0.02748 0.10206-0.07125 0.14431-0.12607 0.0066 0.0066 0.02445 0.02821 0.03317 0.03815-2e-3 0.01047-0.0038 0.01797-5e-3 0.0282-0.02012 0.02503-0.04645 0.02819-0.05806 0.05971-0.03719 0.0075-0.04433-0.01576-0.08792 0.01-0.03587 0.02117-0.04088 0.05195-0.06469 0.08128-0.0068 0.0025-0.0098-0.0031-0.01659 0-0.10178 0.04603-0.20095 0.11636-0.27204 0.24052-0.0014 0.0025 0.0014 0.0041 0 0.0066-0.0082 0.0096-0.0332 0.01246-0.03981 0.02156-0.0425 0.05857-0.06967 0.11615-0.06967 0.21232-2.67e-4 0.05953-0.0221 0.19707 0.11446 0.34668h0.0017c0.02804 0.03059 0.06234 0.01706 0.09953 0.03317 0.0062 0.0099-0.0056-6e-3 -0.0017 5e-3 0.0096 0.02657 0.01592 0.05209 0.03649 0.09621 0.01028 0.02206 0.01113 0.04793 0.07962 0.1128 0.01712 0.01622 0.0755 0.05268 0.0763 0.05308 7.98e-4 4.01e-4 0.14687 0.03319 0.14763 0.03317 2.91e-4 -5e-6 0.03249-0.0098 0.06138-0.01824 0.01429 0.02404 7.05e-4 0.03287 0.02322 0.05806 0.06609 0.07399 0.15745 0.09635 0.22062 0.1045 0.0979 0.09775 0.19316 0.19838 0.25379 0.30687-0.01073-0.01919-0.0024-0.0053 0.0033 0.05308 0.0057 0.05835 0.0073 0.1592 0.06635 0.28199 0.08369 0.17435 0.21464 0.23348 0.28697 0.27204 0.02051 0.01094 0.06619 0.03939 0.13768 0.06801 0.07149 0.02862 0.1917 0.06191 0.32678 0.01493 0.17264-0.06005 0.22907-0.20986 0.24882-0.26209 0.01015-0.02683-0.0076 0.0017-0.0083 0.0033 0.04507-0.01877 0.07803-0.01405 0.12938-0.08626 0.03939-0.05539 0.04265-0.08752 0.05474-0.12773 0.06006-0.0082 0.14057-0.02366 0.21066-0.10616 0.01359-0.0159 0.0019-0.0137 0.01161-0.0282 0.0025-2.49e-4 4e-3 -0.0014 0.0066-0.0017 0.07633 0.0197 0.1607 0.05389 0.21232 0.0365 0.0397-0.01338 0.07909-0.03146 0.12441-0.07299 0.04532-0.04152 0.1028-0.12034 0.10782-0.22725 0.0042-0.09867 0.0266-0.27806-0.06801-0.47939 0.01265 0.0049 0.0056 0.01259 0.01991 0.01659 0.03151 0.0088 0.02825-7e-3 0.05474-5e-3 0.06827 0.08724 0.14738 0.19601 0.32014 0.25379 0.01307 0.0044 0.01735-0.0028 0.02986 0 0.0024 0.01512-4e-3 0.01316 0 0.02986 0.0037 0.01417 0.02117 0.06053 0.02156 0.06138 1.99e-4 4.32e-4 0.04459 0.07109 0.04478 0.07132 1e-4 1.17e-4 0.05796 0.05301 0.05806 0.05308 9.9e-5 7e-5 0.10274 0.04808 0.10284 0.0481 1e-4 2.5e-5 0.13426 5e-3 0.13436 5e-3 3.8e-5 -8e-6 0.02105-0.0078 0.03981-0.01493 0.04661 0.02067 0.09517 0.04794 0.13436 0.0481 0.15701 6.58e-4 0.24848-0.07911 0.28697-0.10948 0.03849-0.03037 0.0455-0.02019-0.01493-0.0033 0.01074-3e-3 0.02497-1e-3 0.03649-0.0033-0.03458 0.03616-0.07656 0.05555-0.09621 0.1045-0.04156 0.10356-0.02506 0.23874 0.01493 0.31683 0.03999 0.07808 0.08565 0.11708 0.12109 0.14763 0.07088 0.0611 0.12401 0.09863 0.11446 0.08957 0.0368 0.0349 0.1416 0.03394 0.21564 0.05806 0.02661 0.04412 0.05223 0.08387 0.07962 0.13934-0.03622-0.07325-0.0232-0.08933-0.01991-0.05308 0.0033 0.03625 0.01085 0.16189 0.12772 0.26043 0.04752 0.0401 0.06352 0.02553 0.10284 0.03815 0.0098 0.01676-0.0059 0.01339 0.0083 0.03152l0.0017 0.0016c0.04875 0.06056 0.12692 0.1665 0.30522 0.20237 0.15905 0.03203 0.28319-0.0117 0.38815-0.08128 0.06383-0.04229 0.06736-0.07062 0.08957-0.10782 0.04658 0.0094 0.10207-0.0087 0.16256-0.02156 0.07779 0.05859 0.14993 0.12624 0.26706 0.12275 8e-3 -2.38e-4 0.01004 0.0089 0.01824 0.0083 0.0021-1.45e-4 0.0028-0.0031 5e-3 -0.0033 0.03847 0.0211 0.04861 0.0097 0.08128 0.01659 0.0071 0.013-0.0044 0.0093 5e-3 0.02322 0.06633 0.0983 0.15831 0.18424 0.3019 0.22559 0.0143 0.0042 0.03047 0.0076 0.04976 0.01 0.0193 0.0024 0.06589 0.0017 0.06636 0.0016 9.35e-4 -7.8e-5 0.15361-0.05593 0.15427-0.0564 3.71e-4 -2.59e-4 0.02674-0.03035 0.05308-0.05971 7e-3 0.0048-0.0029-0.0013 0.01328 0.01161 0.03894 0.03118 0.10713 0.08822 0.21896 0.12607-0.0042 0.03277-0.02622 0.04974-0.01991 0.0846 0.03953 0.21846 0.12584 0.4399 0.28033 0.62702 0.08555 0.10368 0.16543 0.09384 0.24052 0.10284 0.01135 0.02029-0.0054 0.01671 0.01327 0.03981 0.10378 0.12809 0.20157 0.12734 0.2737 0.12938 0.0061 0.0585 0.01576 0.13102 0.04147 0.22062-0.04152-0.02027-0.05105-0.04461-0.13104-0.04645-0.0801-0.0019-0.09501 0.02333-0.13768 0.04313-0.02976-0.01423-0.03996-0.03677-0.07797-0.04147-0.18129-0.02231-0.28025 0.05666-0.33342 0.09123-0.08478 0.05518-0.17533 0.13084-0.1891 0.30687l-0.0017 0.0017v0.0017c-0.0016 0.02296 0.0088 0.01238 0.01 0.03152-0.02477 0.02184-0.04052 0.02788-0.07132 0.07132-0.01933 0.02725-0.01338 0.03371-0.02322 0.0564-0.02898 0.0022-0.04632-0.0076-0.08128 0.0066-0.08138 0.03322-0.14142 0.10715-0.16588 0.15593-0.05381 0.1077-0.02212 0.15818-5e-3 0.20901-0.10219 0.04387-0.26343 0.06629-0.48934 0.18578-0.0767 0.04056-0.10149 0.1402-0.12607 0.22228 0.0036-0.0082-0.0014-0.0097 0.0033-0.01824 0.04126-0.07583 0.06602-0.07341 0.03484-0.05143s-0.13743 0.08531-0.17251 0.24052c-0.05429 0.24006-0.0053 0.38435-0.01 0.41138 0.02043-0.11786 0.03958-0.10762-0.03484 0.0033-0.07484 0.11168-0.06162 0.21671-0.05142 0.27038 0.0074 0.03894 0.01445 0.05566 0.02156 0.07464-0.0048 0.01145-0.01288 0.02494-0.02156 0.03981-0.0303-0.0039-0.02339-0.01906-0.06469-0.01328-0.10806 0.01515-0.1738 0.02445-0.25877 0.06304-0.04248 0.01929-0.09584 0.05111-0.141 0.10948-0.04516 0.05837-0.06349 0.13316-0.06636 0.14763-0.01819 0.09192-0.01435 0.14323-0.01493 0.19242-0.07064-0.0097-0.12112-0.04247-0.23886 0.03152-0.13546 0.08512-0.19133 0.1993-0.22559 0.2654-0.02155 0.04157-0.02026 0.0404-0.02654 0.05143-0.04945 0.0054-0.09196-0.0054-0.13436 0.01991-0.13736 0.08229-0.14438 0.09834-0.1609 0.11943-0.0082-0.0067-0.0084-0.0094-0.01824-0.01659-0.05181-0.03801-0.14369-0.08599-0.25545-0.08294-0.08336 0.0023-0.15233 0.0435-0.20569 0.08128-0.01627-0.0115-0.01104-0.01927-0.03152-0.02986-0.11272-0.05829-0.29179-0.18129-0.55569-0.15592-0.10492 0.01007-0.2025 0.07768-0.24882 0.1327-0.02953 0.03508-0.03654 0.05443-0.0481 0.07797-0.05439 0.01742-0.11276 0.03023-0.15924 0.0846-0.08453 0.09887-0.10508 0.18906-0.11777 0.25877-5.62e-4 0.0031-0.0012 0.0053-0.0017 0.0083-0.02836 0.02055-0.0091-0.01071-0.05474 0.03815-0.02876 0.03074-0.01355 0.06493-0.02654 0.1045 0.0028-0.0052-0.0015-0.0082 0.0017-0.01327 0.01449-0.02273 0.0071-0.01078-0.0282 0.02156-0.01066 0.0098-0.0296 0.04605-0.04478 0.06138-0.17221-0.06044-0.30619 2e-3 -0.36659 0.0282-0.03695-0.03273-0.07952-0.07993-0.19408-0.10782-0.0086-0.0021-0.01 0.0048-0.01824 0.0033-0.02039-0.05276 1.57e-4 -0.0849-0.06303-0.13934-0.07941-0.0684-0.19039-0.09067-0.25711-0.08791-0.02944 0.0012-0.03722 6e-3 -0.0564 0.01-0.03651-0.04053-0.05897-0.08508-0.1609-0.11446-0.06185-0.01784-0.14966-0.01594-0.21564 0.01161-0.0019 7.89e-4 -0.0014 0.0025-0.0033 0.0033-0.02641-0.0062-0.06416-0.01323-0.06469-0.01327-6.59e-4 -4.6e-5 -0.10388 0.0098-0.1045 0.01-6.24e-4 1.66e-4 -0.09229 0.04107-0.09289 0.04147-5.97e-4 3.96e-4 -0.0462 0.03615-0.06138 0.05308-0.01517 0.01693-0.02653 0.03309-0.03484 0.04645-0.01661 0.02671-0.024 0.04588-0.02986 0.06137-0.0314 0.08304-0.03437 0.09727-0.03484 0.10616-0.05305-0.0052-0.11854 0.02515-0.17915 0.05474-0.17965 0.0011-0.35908-7.13e-4 -0.52417-0.03152-0.03252-6e-3 -0.10772-0.04597-0.2173-0.10948-0.02014-0.01168-0.0084-0.0014-0.01493-0.0066-0.0087-0.04081 0.01384-0.07273-0.01161-0.10616-0.03903-0.05148-0.11535-0.10347-0.18744-0.11943-3.8e-4 -3.27e-4 -0.0013 3.28e-4 -0.0017 0-0.01887-0.01616-0.0035-0.02529-0.02986-0.03981-0.02053-0.01128-0.03349 0.0025-0.05474-0.0033-0.02071-0.02759-2e-3 -0.03773-0.03981-0.06469-0.02997-0.02133-0.03096 6.75e-4 -0.05806-0.01-0.04049-0.04764-0.08634-0.09944-0.13436-0.11612-0.1559-0.05405-0.29338-0.0317-0.41801 0.0282-0.04061 0.01951-0.02144 0.03221-0.04645 0.05474-0.03498-0.03548-0.08497-0.0928-0.18247-0.14266-0.09412-0.0481-0.17115-0.0589-0.22891-0.06635-0.0088-0.01345-0.0013-0.01384-0.01327-0.0282-0.06783-0.08079-0.15024-0.1364-0.25379-0.16588-0.06883-0.01959-0.08849-0.0074-0.12275-0.0033-0.0057-4e-3 0.0026-1.92e-4 -0.01824-0.01659-0.0388-0.03052-0.10499-0.08638-0.21564-0.12109-0.05217-0.01636-0.05328 0.0073-0.09289 0.01-0.03577-0.02848-0.09512-0.06702-0.18412-0.07132-0.09174-0.0044-0.18252 0.04124-0.22891 0.08128-0.09036-0.06097-0.1612-0.06603-0.22891-0.06469-0.01181-0.01193-0.0149-0.02876-0.0282-0.03815h-0.0017c-0.14236-0.09962-0.25999-0.08429-0.31019-0.0846h-0.0017c-0.02455 0-0.06201-4.21e-4 -0.12109 0.01493-0.05908 0.01535-0.16209 0.05813-0.22559 0.17085-0.06224 0.11048-0.09312 0.22885-0.09289 0.35332 2.73e-4 0.19337 0.04043 0.26763 0.0481 0.28033-0.02167 0.03403-0.04394 0.05019-0.05142 0.1327-0.0068 0.07864 0.01071 0.09654 0.02488 0.13436-0.0022 0.0035-0.0041 0.01592-0.0066 0.01991-0.08798-0.01969-0.22443-0.03378-0.3583 0.04645-0.10708 0.06418-0.17023 0.22042-0.17085 0.3019-1.43e-4 0.0187 0.0037 0.01871 5e-3 0.03317-0.03426 0.01973-0.05781 0.02515-0.1045 0.07464-0.12901 0.13678-0.12097 0.23569-0.10782 0.20569-0.01522 0.03475-0.01006 0.03828-0.01327 0.05474-0.02278-0.0033-0.04695-0.0195-0.06636-0.01824-0.08792 0.0056-0.08667 0.04466-0.1327 0.07796-0.02235-0.03745-0.02883-0.07049-0.09621-0.11612-0.11818-0.08-0.20342-0.06941-0.28531-0.05142-0.08189 0.018-0.20035 0.06-0.25877 0.22228-0.0085 0.02361 0.0057 0.03895 0.0033 0.06303-0.01063 0.0048-0.01783-0.0028-0.0282 0.0033-0.02785 0.01651-0.02253 0.04671-0.04313 0.07132-0.03897-0.01688-0.05922-0.04047-0.10948-0.04976-0.16144-0.02939-0.26975-0.03206-0.39147-0.03981 0.01-0.06519 0.01855-0.1372-0.0282-0.22394-0.02786-0.05186-0.07822-0.06062-0.12607-0.08957-0.01603-0.04116-0.03113-0.09785-0.11777-0.16256-0.08048-0.06018-0.11937-0.04964-0.16588-0.05308-0.0096-0.01279-0.03728-0.05551-0.09123-0.10284 6.14e-4 5.39e-4 -0.04554-0.08913-0.20403-0.16256-0.03649-0.01691-0.03296-0.0019-0.06138-0.0083-0.0058-0.04451 0.0026-0.06964-0.03317-0.13768-0.02298-0.04371-0.06145-0.04595-0.09787-0.07299-0.01032-0.06399-0.02568-0.18476-0.15593-0.28199-0.06306-0.04704-0.12089-0.03596-0.18247-0.03981-0.01098-0.05146-0.01022-0.09251-0.06303-0.17085-0.01005-0.0149-0.03937-0.04766-0.03981-0.0481-4.47e-4 -4.45e-4 -0.06256-0.04949-0.06303-0.04976-3.73e-4 -2.19e-4 -0.0365-0.0085-0.06967-0.01659-0.01995-0.02672-0.0088-0.03858-0.04478-0.06636-0.06389-0.04932-0.17644-0.07391-0.24218-0.06636-0.02149 0.0025-0.01935 0.0048-0.03317 0.0083-0.0082-0.0015 0.0074 0.0013-0.0066-0.0017-0.02396-5e-3 -0.09402 0.02348-0.14431 0.02654 0.0042-0.06822 0.0183-0.13887-0.03981-0.24218-0.11229-0.19971-0.27794-0.3338-0.43958-0.43128-0.07301-0.04406-0.15417-0.04305-0.21564-0.03815-0.0075-0.04438 0.01099-0.06102-0.0282-0.11943-0.06929-0.10348-0.14475-0.13522-0.18412-0.15592-9e-3 -0.04071-0.01765-0.10536-0.0846-0.19076-0.0469-0.05982-0.07467-0.06103-0.1128-0.08128 1.57e-4 -0.05777 0.01352-0.11231-0.04478-0.18744-0.04064-0.05121-0.0931-0.06721-0.141-0.08626 0.0088-0.0028-0.02289-0.08565-0.20071-0.18247-0.11474-0.06248-0.25386-0.10602-0.42631-0.05971-0.0095-0.033 0.0033-0.03851-0.02156-0.08128-0.07186-0.12322-0.16763-0.19092-0.24716-0.23886-0.03131-0.01887-0.03134-0.0076-0.0564-0.01659 0.02231-0.06162 0.06548-0.15585 5e-3 -0.29194-0.04255-0.09578-0.13078-0.1505-0.19076-0.17749 4e-3 -0.02313 0.01511-0.02929-0.01659-0.16588-0.0014-0.0062-6.6e-4 -0.01889-0.01824-0.06801-0.01172-0.03275-0.06124-0.07919-0.10284-0.12275 7e-3 -0.0721 0.02856-0.14526-0.03981-0.25545-0.04012-0.06464-0.0981-0.09103-0.15095-0.11943 0.0041-0.0058 0.0059-4.37e-4 0.01-0.0066 0.0582-0.08968 0.03725-0.13864 0.03484-0.20071 0.01639-0.01513 0.03233-0.0094 0.04645-0.02986 0.04103-0.05937 0.01519-0.07128 0.01991-0.11777 0.01169-0.02214 0.03153-0.04728 0.05971-0.07797 0.0141-0.01534 0.02841-0.03045 0.05308-0.06138 0.01233-0.01547 0.02872-0.03296 0.0481-0.07299 0.01924-0.03974 0.0499-0.11711 0.02322-0.22394 0.01212 0.04759 8e-3 0.041 0.0033-0.0017-0.0047-0.04265-0.02395-0.16137-0.13436-0.24716-0.02463-0.01914-0.02654-0.0096-0.0481-0.02156-0.01537-0.06529-0.01261-0.15381-0.03152-0.17749-0.03412-0.04275-0.05243-0.0556-0.04478-0.0481 0.0076 0.0074-0.0059-0.0098-0.04147-0.04313-0.02269-0.02128-0.08806-0.04431-0.14266-0.06801-0.0017-0.0015 1.22e-4 -0.0035-0.0017-5e-3v-0.0017c-0.09017-0.07636-0.17268-0.08848-0.21232-0.09787-0.02114-0.03214-0.02795-0.06079-0.09455-0.10118-1.29e-4 -7.8e-5 -0.01354-0.0049-0.01824-0.0066-0.01661-0.01765-0.01396-0.03993-0.03484-0.05308-0.01564-0.0099-0.01523 5.19e-4 -0.02986-0.0066 0.07819-0.03401 0.1711-0.07639 0.20403-0.15592 0.04006-0.09682 0.02491-0.15383 0.01991-0.2173 0.0037-0.0041 0.0116-0.0041 0.01493-0.0083 0.04197-0.05391 0.03868-0.11293 0.04478-0.17086 6.65e-4 -4e-4 1e-3 4.1e-4 0.0017 0 0.04939-0.03017 0.11401-0.09535 0.141-0.17251 3.66e-4 -1e-3 -3.57e-4 -6.25e-4 0-0.0016 0.02493-0.02171 0.02802-0.03345 0.04313-0.05308 0.04211-0.01338 0.08738-0.02787 0.08791-0.0282 4.47e-4 -2.77e-4 0.04083-0.02935 0.0564-0.04478s0.02815-0.03033 0.03815-0.04478c0.05123-0.07375 0.03612-0.0935 0.04313-0.13934 0.0068-7.33e-4 0.0057-0.0014 0.01327-0.0017 0.02229-6.86e-4 0.04556-0.0012 0.06967 0 0.01205 5.82e-4 0.0234 0.0013 0.03982 0.0017 0.0052 1.19e-4 0.02391-0.0021 0.02986-0.0017 0.07249 0.04359 0.19838 0.08684 0.29526 0.05143 0.0725-0.02651 0.11382-0.08246 0.15095-0.13104 5.32e-4 7.1e-5 0.10556-0.0048 0.10616-5e-3 2.34e-4 -4.9e-5 0.01826-0.0064 0.02986-0.01 0.0303 0.03002 0.05481 0.05615 0.10118 0.09289 0.01317 0.01044 0.02645 0.02266 0.06303 0.04147 0.0091 0.0047 0.02064 0.0095 0.03484 0.01493 0.01419 0.0053 0.05414 0.01482 0.05474 0.01493 5.97e-4 1.1e-4 0.09241 0.0034 0.09289 0.0033 4.79e-4 -5.5e-5 0.13068-0.04456 0.13104-0.04478 3.18e-4 -1.99e-4 0.07475-0.0774 0.09289-0.09621 0.01184-0.0065 0.01217 3.45e-4 0.02488-0.0083 0.07262-0.04932 0.16386-0.12109 0.21398-0.26706 0.01125-0.03278 0.0019-0.03586 0.0066-0.06303 0.02502 0.0097 0.03784 0.01779 0.08294 0.02654 0.03925 0.0076 0.09113 0.01403 0.15924 0.0016 0.06811-0.01238 0.15714-0.0548 0.21564-0.12441 0.07109-0.08458 0.08486-0.15416 0.10616-0.22394 0.02265-0.0029 0.05154 0.0093 0.07299 0.0033 0.07283-0.02037 0.15195-0.05976 0.21564-0.15427 0.06787 0.02905 0.14398 0.06836 0.25379 0.03152 0.20122-0.06743 0.28603-0.2088 0.34171-0.3019 0.02454-0.04099-0.0036-0.07709-0.0017-0.12607 0.02657-0.02525 0.04402-0.04878 0.06635-0.09953 0.03378-0.01361 0.0861-0.03088 0.07132-0.03317 0.04678 0.02959 0.05174 0.06582 0.14763 0.06138 0.05686-0.0026 0.07656-0.04335 0.12109-0.07132 0.01702 0.0089 0.04823 0.02511 0.19076 0.03815 0.02666 0.0026 0.12512-0.03385 0.21066-0.06469 0.02071-0.0031 0.04936-0.0098 0.04976-0.01 2.12e-4 -5.8e-5 0.01772-0.0086 0.02654-0.01327 0.01163-9e-3 0.0129 0.0029 0.02488-0.0083h0.0017c0.0031-0.0029 2e-3 -0.0054 5e-3 -0.0083 0.03214-0.01728 0.06426-0.03446 0.06469-0.03484 4.14e-4 -3.59e-4 0.03263-0.03225 0.04478-0.0481 0.01215-0.01586 0.02218-0.03016 0.02986-0.04478v-0.0016c0.02688-0.05126 0.01855-0.069 0.02654-0.10782 0.02487-0.01368 0.02377-0.02071 0.04147-0.03484 0.0082 0.0025 0.0027 0.0043 0.01161 0.0066 0.08114 0.0209 0.17261 0.0014 0.22394-0.02322 0.02711-0.01304 0.03248-0.02077 0.04645-0.03152 0.1317-0.05828 0.32301-0.10437 0.52915-0.24052 0.04176-0.02755 0.03509-0.06275 0.05806-0.09953 0.01145-2.94e-4 0.0058-6.9e-5 0.01991 0 0.07904 3.88e-4 0.20319 0.0065 0.34834-0.0564 0.10518-0.04556 0.11854-0.11662 0.15095-0.18247 0.0254 0.03063 0.06794 0.04059 0.10616 0.06303-6.43e-4 0.04999-0.02254 0.08702 0 0.141 0.04259 0.10209 0.1431 0.18176 0.2173 0.21066 0.0742 0.0289 0.12605 0.03085 0.16256 0.03317 0.01723 0.0011-6e-3 -0.0053 5e-3 -0.0033 0.03266 0.03444 0.04495 0.07307 0.09455 0.09123 0.04168 0.01526 0.09805 0.03604 0.17915 0.04478 0.08109 0.0087 0.2062 0.0031 0.32014-0.08294 0.09535-0.07205 0.07081-0.11286 0.08792-0.17583 0.0088 0.0016-0.0024 8.45e-4 0.0083 0.0033 0.09019 0.02093 0.26044 0.07434 0.45616-0.02322 0.11208-0.0559 0.19897-0.23834 0.19408-0.33507-0.0049-0.09673-0.02894-0.13825-0.04313-0.17085-0.0035-0.0079 4.11e-4 0.01029-0.0017 0.0033 0.0037-0.0056 0.0059-0.01978 0.01-0.02654 0.0068 1.73e-4 0.03354 0.0014 0.02156 0-0.01823-0.0021 1.66e-4 0.0043 0.05474 5e-3 0.01297 1.51e-4 0.04164-0.0092 0.06138-0.01161zm-3.6958 0.55569c0.01814-0.0014 0.03364-0.0013 0.0481 0 0.0095 8.32e-4 0.01367 0.0036 0.02156 5e-3 -0.03106-0.01028-0.08888 0.0088-0.14266 0.01161 0.0025-0.0014 0.01338-0.0066 0.01327-0.0066-4.96e-4 1.38e-4 0.04157-0.0086 0.05971-0.01zm0.18744 0.19076c0.0015 0.0014 0.03662 0.01847 0.04147 0.02488-1e-3 -5.02e-4 -0.0041 4.99e-4 -5e-3 0-0.03495-0.01898-0.04014-0.02836-0.03649-0.02488zm6.7463 0.36327c0.0058 0.0077 0.02472 0.0153 0.0282 0.02156 0.02175 0.03924 0.02123 0.05139 0.01991 0.04645-7.81e-4 -0.0029-0.0443-0.04921-0.0481-0.06801zm0.19076 0.04147c-2.33e-4 -0.0078 6e-3 0.0016-0.0083 0.05143-3.41e-4 0.0012-0.0029 0.0037-0.0033 5e-3 -0.0023-0.0097 0.01171-0.05314 0.01161-0.0564zm-8.4183 0.29526c-2.47e-4 -0.0033 0.0014-4e-3 0.0017 0.02156 4.3e-5 0.0062-0.01068 0.02269-0.01161 0.03152-0.0027-0.01028 0.01096-0.04883 0.01-0.05308zm8.3437 0.31517c0.01284 0.03222 0.0087 0.07205 0.02322 0.09289-0.0081-0.01403-0.01632-0.0171-0.02322-0.03649-0.0058-0.0162 0.0025-0.03718 0-0.0564zm-0.141 0.06967c-4.85e-4 -9.1e-5 0.03933 0.0089 0.05474 0.01493 0.0124 0.0048 0.01711 0.0099 0.02654 0.01493-0.01613-0.01356-0.05466-0.01661-0.08128-0.02986zm0.45782 0.09787c7.95e-4 -9e-3 0.0029-2e-3 -0.0083 0.03317-0.0016 0.0051-0.01536 0.015-0.01824 0.02156 1.2e-5 -0.01178 0.02622-0.05103 0.02654-0.05474zm1.468 0.04645c-0.01248-3e-3 -0.0073-0.0049 0.02322 0.01 0.0027 0.0014 0.0084 0.0097 0.01161 0.01161-0.0065-8.49e-4 -0.03161-0.02081-0.03484-0.02156zm-12.079 0.15427c0.0019 0.0014 0.0083 3.12e-4 0.01 0.0016 0.04545 0.03774 0.04604 0.04944 0.04313 0.04478-0.0015-0.0024-0.04847-0.03384-0.05308-0.04645zm0.70166 0.02488c0.0033 2e-3 0.05468 0.0084 0.06304 0.01659-2e-3 -3.01e-4 -0.0065 0.0037-0.0083 0.0033-0.05855-0.01293-0.06237-0.02452-0.05474-0.01991zm-1.0998 0.03981c-6.77e-4 0.0054-0.01755 0.02888-0.01824 0.03152-0.0026 0.01-0.0037 0.0025 0.01327-0.0282 5.69e-4 -1e-3 0.0043-0.0022 5e-3 -0.0033zm10.467 0.01161c0.0028 2e-3 0.02454 0.01313 0.03152 0.01824-2.48e-4 -1.15e-4 -0.0014 1.12e-4 -0.0017 0-0.0356-0.0167-0.03775-0.02391-0.02986-0.01824zm4.215 0.30356c0.0073 3e-3 0.02452-0.0014 0.02986 0.0017 0.04426 0.02559 0.05081 0.03927 0.0481 0.03649-0.0017-0.0018-0.06534-0.02274-0.07797-0.03815zm0.38318 0.07299c-6.2e-4 -8.29e-4 -2e-3 -0.0048 0.02156 0.01161 0.0028 2e-3 0.0067 0.01226 0.01 0.01493-0.0069-0.0018-0.02809-0.02547-0.03152-0.02654zm-16.677 0.06967c-3e-3 0.0012-0.02544 0.02328-0.03152 0.02488 2e-3 -0.0017 0.0048-0.0086 0.0066-0.01 0.02993-0.02189 0.03622-0.01952 0.02488-0.01493zm1.2391 0.03152c-0.0016-0.0059 0.0037 0.0012 5e-3 0.03649 1.22e-4 0.0035-0.0048 0.01238-5e-3 0.01659-0.0036-9e-3 6.87e-4 -0.05051 0-0.05308zm-1.1081 0.07299c-0.03204 0.0022 8.49e-4 -0.0199 0.09455 0.02654 2e-3 9.34e-4 0.0032 0.0025 5e-3 0.0033-0.03046-0.0013-0.0883-0.03063-0.09953-0.02986zm-0.21564 0.36161c-1.23e-4 0.0032 0.01814 0.0487 0.01659 0.06138-0.0019-0.0066-0.01231-0.018-0.01327-0.02322-0.0065-0.03559-0.0031-0.04483-0.0033-0.03815zm14.138 0.0083c8.35e-4 0.0023 0.0235 0.03097 0.02488 0.03815-7.83e-4 -1e-3 -0.0042-0.0023-5e-3 -0.0033-0.0219-0.03172-0.02218-0.04114-0.01991-0.03484zm0.31848 0.05143c7.15e-4 -0.0041 0.0014 0.0078-0.01327 0.04147-0.0011 0.0025-0.0069 0.0071-0.0083 0.01 6.39e-4 -0.01063 0.02121-0.0494 0.02156-0.05142zm-0.63531 0.19739c-1e-3 -0.0011 0.05591 0.02866 0.06967 0.04478-3e-3 -0.0015-0.01068-1.43e-4 -0.01328-0.0017-0.04443-0.02595-0.05517-0.04182-0.0564-0.04313zm3.8401 0.25711c0.02692 0.01018 0.02017 0.0088 0.02654 0.01328 6.17e-4 0.0019 0.0027 0.0031 0.0033 5e-3 -0.0027-0.0032-0.03742-0.01013-0.04313-0.01659 3e-3 8.49e-4 0.0107-0.0026 0.01328-0.0017zm-1.0284 0.29029c-3.15e-4 0.0025 0.02669 0.06877 0.02322 0.09289-0.0037-0.01259-0.02213-0.03061-0.02322-0.03981-0.0054-0.04573 4.58e-4 -0.05674 0-0.05308zm2.0934 0.1045c5.08e-4 9.34e-4 0.0033 0.0066 0.0033 0.0066-3e-6 -1e-5 -2e-5 0.0047 0 5e-3 -0.0021-0.0027-0.0012-0.0091-0.0033-0.01161zm-0.75308 0.04478c-4.8e-4 3e-3 0.01761 0.05936 0.01327 0.07465-0.0014-0.0063-0.01271-0.01644-0.01327-0.02156-0.0052-0.04806 9.34e-4 -0.05873 0-0.05308zm-16.616 0.0282c1e-3 2e-3 4e-3 0.0029 5e-3 5e-3 0.0037 8e-3 4.92e-4 0.01067 0.0033 0.01824-9.35e-4 -0.0076-0.0068-0.01507-0.0083-0.02322zm17.994 0.13602c-6.91e-4 0.0094 0.0034 0.01135 0.0017 0.02156-3.36e-4 2e-3 -0.0029 3e-3 -0.0033 5e-3 -9.35e-4 -0.0093 0.0031-0.01795 0.0017-0.02654zm-0.03484 0.99858c8.3e-5 2e-3 0.02408 0.0527 0.02322 0.06801-2e-3 -5e-3 -0.01197-0.01232-0.01328-0.01659-0.01268-0.04168-0.0101-0.05474-0.01-0.05143zm-17.935 0.36825c0.0042 5.21e-4 0.01018 0.01207 0.01493 0.01328-0.01897 7e-3 -0.0882-0.01189-0.08957-0.01161-2e-3 4.07e-4 0.0092-0.0099 0.07464-0.0017zm18.96 0.42465c5e-6 2.8e-5 -2e-6 0.0017 0 0.0017-0.01541 0.08035-0.04611 0.1047-0.02654 0.07962 6e-3 -0.0077 0.01378-0.06256 0.02654-0.08128zm-1.4465 0.32512c0.0084 0.01009 0.01696 0.06106 0.01824 0.06303 0.0025 0.0038-0.0063-0.0031-0.01991-0.04313-0.0014-0.0039 0.0029-0.0151 0.0017-0.01991zm-0.17583 0.5756c0.0078 0.0029 0.03504-0.0029 0.04645 0-0.0063-9.34e-4 -0.02183 0.0042-0.02654 0.0033-0.06053-0.01233-0.04506-0.01254-0.01991-0.0033zm-16.029 0.72989c0.02234-1e-3 0.08293 0.02493 0.0846 0.02488 0.0023-7.8e-5 -0.0117 0.0033-0.05308-5e-3 -0.0076-0.0015-0.02167-0.01658-0.03152-0.01991zm0.91067 0.86422c0.0088-0.0039 0.0038 3.03e-4 -0.03152 0.0066-0.0016 2.91e-4 -0.0065-0.0019-0.0083-0.0017 0.0053-0.0032 0.03729-0.0039 0.03981-5e-3zm5.8721 0.15758c0.0466 0.0049 0.05632 0.01364 0.05143 0.01161-0.0023-9.34e-4 -0.05047-0.0025-0.05971-0.0083 2e-3 1.18e-4 0.0064-0.0035 0.0083-0.0033zm-4.9631 0.52418c0.0037-0.0015-0.0102 0.01032-0.06469 0.01659-0.0026 3.03e-4 -0.0071-0.0035-0.01-0.0033 0.02272-0.0071 0.07172-0.01206 0.07465-0.01327zm6.2287 0.01493c-0.0021 0.0072-0.02868 0.03017-0.02986 0.03317-0.0039 0.0099-0.0041 0.0052 0.01327-0.02156 2e-3 -0.0031 0.01366-0.0077 0.01659-0.01161zm4.5169 0.17251c-0.02298-0.03387-0.01699-0.04668 0.01824 0.03815 3.49e-4 1e-3 0.0025 0.01084 5e-3 0.01824-0.0088-0.01647-0.01781-0.04842-0.02322-0.0564zm-4.3145 0.01327c0.0021 0.01586 0.01678 0.03023 0.02156 0.0481-3e-3 -0.0048-0.01073-0.0051-0.01327-0.01-0.0089-0.01688-0.0034-0.02314-0.0083-0.03815zm5.8638 0.07797v0.0017c-0.0014 8.49e-4 -0.0035-8.4e-4 -5e-3 0 4.18e-4 -2.72e-4 0.0046-0.0014 5e-3 -0.0017zm-11.62 0.04645c-0.0084 4.97e-4 -0.0017-0.0031 0.03152 0.0033 4.55e-4 8.8e-5 0.0012 0.0015 0.0017 0.0017-0.0048 9.35e-4 -0.03085-0.0051-0.03317-5e-3zm9.9377 0.11611c-0.0066 0.0014-0.01806 0.01269-0.02322 0.01328-0.03857 0.0043-0.04641 6.93e-4 -0.03815 0.0017 0.0036 4.17e-4 0.04929-0.01752 0.06138-0.01493zm-2.1896 0.15593c0.02501 0.02183 0.10776 0.02697 0.16422 0.04976-0.0023 2.32e-4 -0.01169 0.0016-0.01161 0.0017 6.59e-4 4.6e-5 -0.05561-0.0078-0.0763-0.01493-0.0207-0.0071-0.03767-0.01478-0.04976-0.02156-0.09681-0.05431-0.05423-0.03909-0.02654-0.01493zm-1.4365 0.03317c0.01947-2.95e-4 0.03818 0.0076 0.05474 5e-3 -0.01728-4.36e-4 -0.02421 0.0061-0.04478 0.0017-0.0038-8.31e-4 -6e-3 -0.0056-0.01-0.0066zm2.1564 0.12109c0.0038-0.0017 0.02747 7.18e-4 0.02986 0 0.0118-0.0036 9e-3 1.91e-4 -0.02654 0.0017-7.08e-4 2.9e-5 -0.0025-0.0017-0.0033-0.0017zm-1.1711 0.0564c5.15e-4 0.0012 0.0388 0.0418 0.04313 0.0564-0.0025-0.0029-0.0112-0.0056-0.01328-0.0083-0.02802-0.03588-0.03069-0.05011-0.02986-0.0481zm-6.6185 0.24882c-6e-3 -3.54e-4 0.0037-0.0016 0.03981 0.0083 0.0059 0.0016 0.01733 0.0153 0.02488 0.01825 4.51e-4 6.74e-4 0.0012 1e-3 0.0017 0.0017-0.01576-1.42e-4 -0.06319-0.02801-0.06636-0.0282zm2.2974 0.09123c-7.09e-4 0.0076 0.0055 0.0013-0.01 0.03649 0.04744-0.10824 0.06233-0.10308-0.0083-0.0282-0.01518 0.01609 0.0072-0.0012 0.01824-0.0083zm-2.0204 0.12773c3e-3 0.0033 0.01332 0.01502 0.01328 0.01493-3.58e-4 -7.04e-4 0.03157 0.12365 0.03152 0.12275-2.5e-5 -4.7e-4 -0.0024 0.02094-0.0033 0.03815 0.0077-0.03683-0.02169-0.10773-0.04147-0.17583zm0.76802 0.15592c0.0016 0.0013 0.01 0.0083 0.01 0.0083-5.6e-5 -7.4e-5 0.0042 7e-3 5e-3 0.0083-9e-3 -0.0064-0.0021-0.0011-0.0083-0.0066-0.0014-0.0035-5e-3 -0.0064-0.0066-0.01zm-1.0318 0.03815c-0.0019 0.0011-0.0031 0.0074-5e-3 0.0083-0.04755 0.02473-0.06042 0.02088-0.05474 0.01991 0.0028-4.81e-4 0.04748-0.02848 0.05971-0.0282zm0.4963 2.6924-2.1211 2.3047c-0.09243 0.25193 0.86029 0.04438 1.1895 0.11133l2.8145-2.416zm9.7383 0.52734-0.74414 3.8574c-0.43835-0.86159-1.3969-1.3224-2.3438-1.2227-2.5798 0.23946-4.0634 3.2409-3.5488 5.5996 0.32496 1.9688 3.0038 2.556 4.3613 1.2734 0.73249-0.95469 0.45825-0.14836 0.32812 0.49414h2.3203l1.9492-10.002zm-20.178 0.39648c-0.85937 0.0052-1.7206 0.0288-2.5781 0.0078l-1.8691 9.5977h2.4746l0.64258-3.3301c0.73509-0.0049 1.4704 0.01214 2.2051-0.01563 1.6787 0.04001 3.3921-1.0288 3.7578-2.7285 0.49902-1.4915-0.44391-3.2423-2.0625-3.4258-0.85254-0.09731-1.7109-0.11064-2.5703-0.10547zm0.7832 1.7578c0.94684 0.0099 1.8067 0.77299 1.2988 1.8086-0.52774 1.2091-1.9943 0.86189-3.0527 0.91602l0.52734-2.6816h0.82031c0.13508-0.03069 0.27099-0.04438 0.40625-0.04297zm8.0684 0.46094c-0.86626 0.0068-1.7491 0.15605-2.5762 0.29492-0.64584 0.0079-0.39961 0.87913-0.60352 1.3145-0.39266 1.1033 1.2434-0.26514 1.8672-0.0293 0.85734-0.14097 2.5927-0.07578 2.2441 1.1973-1.1693 0.01389-2.3666-0.08096-3.4961 0.28711-1.4381 0.33326-2.4043 1.9557-1.8438 3.3555 0.75176 1.5689 3.0895 1.4148 4.207 0.33398 0.69343-0.9453 0.28588 0.16909 0.24024 0.63281h2.3008l0.80469-4.1074c0.19498-0.93015 0.23319-2.1187-0.66211-2.7129-0.76492-0.43673-1.6162-0.57317-2.4824-0.56641zm14.418 0.1875 1.7422 7.2891c-0.29947 0.84643-1.0738 1.4046-1.9883 1.2402-0.63085-0.17153-0.39335 0.67209-0.54883 1.0566-0.3296 0.67927 0.45636 0.40545 0.86328 0.45508 1.1986 0.11438 2.4825-0.29724 3.084-1.418 1.7274-2.842 3.3436-5.753 5.0254-8.623h-2.4629l-2.5508 4.9883-0.99024-4.9883zm-5.3965 1.5098c0.5124-3.3e-5 0.96503 0.27945 1.1152 0.9707 0.14282 1.3126-0.41114 3.1892-1.9785 3.2344-1.3749 0.06472-1.2993-1.5848-1.0488-2.4902 0.04067-0.93812 1.0581-1.7148 1.9121-1.7148zm-9.9805 2.3867c0.16291-0.0161 0.3351 7.38e-4 0.50977 0.0625h1.1055c-0.07544 0.97081-0.81676 1.9621-1.8711 1.8965-1.6014-0.06805-0.88449-1.8463 0.25586-1.959zm-12.469-24.082h36c1.108 0 2 0.892 2 2v28c0 1.108-0.892 2-2 2h-36c-1.108 0-2-0.892-2-2v-28c0-1.108 0.892-2 2-2z" fill="#fff"/>
</svg>
