<?xml version="1.0" encoding="UTF-8" standalone="no"?>
<!DOCTYPE svg PUBLIC "-//W3C//DTD SVG 1.1//EN" "http://www.w3.org/Graphics/SVG/1.1/DTD/svg11.dtd">
<svg width="100%" height="100%" viewBox="0 0 48 48" version="1.1" xmlns="http://www.w3.org/2000/svg" xmlns:xlink="http://www.w3.org/1999/xlink" xml:space="preserve" xmlns:serif="http://www.serif.com/" style="clip-rule:evenodd;">
    <circle id="path4677" cx="24" cy="23.326" r="8.949" style="fill:none;stroke:white;stroke-width:1px;"/>
    <path d="M24.969,17.844C26.455,17.844 27.82,18.664 28.519,19.975C28.555,20.043 28.591,20.111 28.627,20.179C29.198,21.251 29.196,22.537 28.623,23.607C28.589,23.67 28.556,23.732 28.522,23.795C27.821,25.104 26.457,25.92 24.973,25.92L22.776,25.92C22.776,25.92 22.776,27.08 22.776,27.955C22.776,28.207 22.676,28.45 22.497,28.628C22.318,28.807 22.076,28.907 21.823,28.907C21.512,28.907 21.166,28.907 20.855,28.907C20.602,28.907 20.36,28.807 20.181,28.628C20.003,28.45 19.902,28.207 19.902,27.955C19.902,26.045 19.902,21.732 19.902,19.404C19.902,18.543 20.601,17.844 21.463,17.844L24.969,17.844ZM25.288,20.748L22.687,20.748L22.687,23.063L25.319,23.063C25.95,23.063 26.461,22.552 26.461,21.921C26.461,21.61 26.337,21.312 26.117,21.092C25.897,20.872 25.599,20.748 25.288,20.748Z" style="fill:white;"/>
    <path id="path46771" serif:id="path4677" d="M13.304,16.849C15.524,13.772 20.223,11.116 24,11.116C28.089,11.116 32.942,13.885 34.796,17.225C34.862,17.343 34.925,17.459 34.986,17.57C36.633,16.826 38.444,17.614 39.636,19.152C40.751,20.59 41.313,22.658 40.667,24.548C43.18,27.531 43.49,30.336 42.415,32.373C41.33,34.433 38.778,35.773 35.427,35.72L15.017,35.72C9.796,35.72 4.45,31.845 4.45,26.624C4.45,22.137 8.372,17.684 13.15,16.853C13.202,16.844 13.254,16.843 13.304,16.849ZM36.25,18.352C36.282,18.441 36.31,18.538 36.335,18.64C36.548,19.541 36.524,21.014 36.284,21.97C36.152,22.501 35.928,22.887 35.697,23.06C35.512,23.199 35.26,23.203 35.072,23.071C34.883,22.94 34.8,22.702 34.865,22.481C35.293,21.047 35.353,20.424 33.864,17.743C32.171,14.694 27.732,12.183 24,12.183C20.155,12.183 15.262,15.18 13.607,18.38C12.563,20.605 12.439,22.392 12.425,22.693C12.432,22.733 12.435,22.774 12.432,22.815C12.409,23.229 12.08,23.313 12.047,23.322C11.916,23.361 11.785,23.353 11.654,23.286C11.621,23.269 11.47,23.204 11.397,23.007C11.384,22.98 11.371,22.952 11.36,22.921C11.234,22.579 10.891,20.997 11.185,19.512C11.26,19.133 11.376,18.761 11.543,18.415C8.112,19.787 5.516,23.185 5.516,26.624C5.516,31.282 10.359,34.653 15.017,34.653C17.675,34.653 32.452,34.653 35.435,34.653C38.314,34.699 40.542,33.641 41.472,31.876C42.338,30.234 42.033,28.036 40.189,25.653C39.942,26.002 39.861,26.159 39.815,26.247C39.724,26.42 39.686,26.474 39.526,26.592C39.423,26.668 39.207,26.796 38.654,27.189C38.601,27.228 38.546,27.267 38.49,27.305C38.249,27.471 37.92,27.412 37.751,27.173C37.583,26.934 37.639,26.603 37.877,26.433L38.026,26.327C40.524,24.491 40.157,21.565 38.793,19.805C38.117,18.934 37.193,18.329 36.25,18.352ZM11.374,22.698L11.374,22.698ZM11.377,22.679L11.377,22.679Z" style="fill:white;"/>
</svg>
