<?xml version="1.0" encoding="UTF-8"?>
<svg data-name="Layer 1" viewBox="0 0 48 48" xmlns="http://www.w3.org/2000/svg">
    <defs>
        <style>.cls-1{fill:#fff;}</style>
    </defs>
    <path class="cls-1" d="m21.2 17h-3.5v8.4h2.1v-2.8h1.4a2.1 2.1 0 0 0 2.1-2.1v-1.4a2.1 2.1 0 0 0-2.1-2.1zm0 3.5h-1.4v-1.4h1.4z"/>
    <polygon class="cls-1" points="31.7 25.4 33.8 25.4 33.8 22.6 35.9 22.6 35.9 20.5 33.8 20.5 33.8 19.1 35.9 19.1 35.9 17 31.7 17"/>
    <path class="cls-1" d="m28.2 17h-3.5v8.4h3.5a2.1 2.1 0 0 0 2.1-2.1v-4.2a2.1 2.1 0 0 0-2.1-2.1zm0 6.3h-1.4v-4.2h1.4z"/>
    <path class="cls-1" d="M24,2A22,22,0,1,0,46,24,22,22,0,0,0,24,2Zm8.4,36H12.8A2.81,2.81,0,0,1,10,35.2V15.6h2.8V35.2H32.4ZM38,29.6a2.81,2.81,0,0,1-2.8,2.8H18.4a2.81,2.81,0,0,1-2.8-2.8V12.8A2.81,2.81,0,0,1,18.4,10H35.2A2.81,2.81,0,0,1,38,12.8Z"/>
</svg>
