<?xml version="1.0" encoding="UTF-8"?>
<svg viewBox="0 0 48 48" xmlns="http://www.w3.org/2000/svg">
    <defs>
        <style>.cls-1{fill:#fff;}</style>
    </defs>
    <g data-name="Layer 1">
        <path class="cls-1" d="M40.9,15.55C40.9,9.83,34.9,4,29,4a1.92,1.92,0,0,0-1.9,1.73L25.51,22a15.47,15.47,0,0,1-5.38-4.44,7,7,0,0,1,.75-.6c.59-.39-1.11-3.87-1.81-4.72s-2,.68-6.67,3.57-5.87,5.94-5.07,6.8,3.71-.41,5.31-1.38,4.58-.07,4.86-.05c.08,0,.2-.16.34-.4,1.65,1.87,4.26,4.28,7.29,5.13L24.08,36.77a8.75,8.75,0,0,1-1.16-.14c-.69-.13-2,3.53-2.05,4.63s1.87.91,7.24,2.19,8,.09,8.39-1.23c.29-1.08-2.91-2.33-4.73-2.78s-3.29-3.18-3.47-3.39c0,0-.16,0-.31,0l1-9.9C36.67,25.41,40.9,20.35,40.9,15.55ZM30.71,8.09c3.26.95,6.37,4.39,6.37,7.46,0,2.86-2.65,5.87-7.74,6.68Z"/>
    </g>
</svg>
