<?xml version="1.0" encoding="UTF-8"?>
<svg viewBox="0 0 48 48" xmlns="http://www.w3.org/2000/svg">
    <defs>
        <style>.a{fill:#fff;}</style>
    </defs>
    <path class="a" d="M24,43.12H17a12,12,0,0,1-12-12,1.39,1.39,0,0,1,0-.35L8.25,15.55a1.72,1.72,0,0,1,1.68-1.36h8.59a1.72,1.72,0,0,1,0,3.43h-7.2L8.43,31.28A8.59,8.59,0,0,0,17,39.69h7a1.72,1.72,0,0,1,0,3.43Z"/>
    <path class="a" d="M24,37.55H17.47a6.46,6.46,0,0,1-6.21-4.72H6.71a1.72,1.72,0,0,1,0-3.43h6a1.72,1.72,0,0,1,1.71,1.71,3,3,0,0,0,3,3H24a1.72,1.72,0,0,1,0,3.43Z"/>
    <path class="a" d="M24,31.84a1.7,1.7,0,0,1-1.71-1.71V6.59a1.71,1.71,0,0,1,3.42,0V30.13A1.7,1.7,0,0,1,24,31.84Z"/>
    <path class="a" d="M24,31.84a1.69,1.69,0,0,1-1.12-.41L12.61,22.58A1.72,1.72,0,0,1,14.85,20l10.27,8.85a1.71,1.71,0,0,1-1.12,3Z"/>
    <path class="a" d="M31,43.12H24a1.72,1.72,0,0,1,0-3.43h7a8.59,8.59,0,0,0,8.58-8.41L36.68,17.62h-7.2a1.72,1.72,0,0,1,0-3.43h8.59a1.72,1.72,0,0,1,1.68,1.36L43,30.76a1.39,1.39,0,0,1,0,.35A12,12,0,0,1,31,43.12Z"/>
    <path class="a" d="m30.53 37.55h-6.53a1.72 1.72 0 0 1 0-3.43h6.53a3 3 0 0 0 3-3 1.72 1.72 0 0 1 1.71-1.71h6a1.72 1.72 0 0 1 0 3.43h-4.5a6.46 6.46 0 0 1-6.21 4.71z"/>
    <path class="a" d="M24,31.84a1.71,1.71,0,0,1-1.12-3L33.15,20a1.72,1.72,0,1,1,2.24,2.6L25.12,31.43A1.69,1.69,0,0,1,24,31.84Z"/>
</svg>
