<?xml version="1.0" encoding="UTF-8"?>
<svg viewBox="0 0 48 48" xmlns="http://www.w3.org/2000/svg">
    <defs>
        <style>.cls-1{fill:#fff;}</style>
    </defs>
    <g data-name="Layer 1">
        <path class="cls-1" d="M10.51,15.4H9.73v2.41h.57a1.9,1.9,0,0,0,1.19-.31,1.32,1.32,0,0,0,.06-1.81A1.57,1.57,0,0,0,10.51,15.4Z"/>
        <path class="cls-1" d="M30.75,19.52a.85.85,0,0,0-.36.75c0,.47.28.71.82.71a1.28,1.28,0,0,0,.94-.34,1.16,1.16,0,0,0,.36-.9v-.51l-.66,0A2.09,2.09,0,0,0,30.75,19.52Z"/>
        <path class="cls-1" d="M24,6.5C13,6.5,4,12.14,4,19.1c0,4.73,4.15,8.85,10.28,11l-.35,11.4,9.41-9.83.66,0c11,0,20-5.64,20-12.59S35.05,6.5,24,6.5Zm-11.2,12a3.52,3.52,0,0,1-2.33.69H9.73v2.89H8V14H10.6a3.41,3.41,0,0,1,2.25.64,2.31,2.31,0,0,1,.77,1.89A2.47,2.47,0,0,1,12.8,18.53Zm3.35,3.58h-1.7V15.9h1.7ZM16,14.91a.94.94,0,0,1-.69.22c-.61,0-.92-.28-.92-.83s.31-.83.92-.83.92.27.92.83A.78.78,0,0,1,16,14.91Zm4,5.94a2.94,2.94,0,0,0,.91-.13,3.2,3.2,0,0,0,.83-.41v1.45a2.41,2.41,0,0,1-.83.36,4.48,4.48,0,0,1-1.06.1Q17,22.22,17,19a3.42,3.42,0,0,1,.78-2.42A3,3,0,0,1,20,15.78a4.36,4.36,0,0,1,1.94.43l-.5,1.31q-.4-.16-.75-.27a2.74,2.74,0,0,0-.69-.1c-.88,0-1.32.63-1.32,1.88S19.12,20.85,20,20.85Zm7.32.74a3.48,3.48,0,0,1-2.21.63,5.15,5.15,0,0,1-2.3-.49v-1.6a9,9,0,0,0,1.4.52,4.08,4.08,0,0,0,1,.15,1.47,1.47,0,0,0,.87-.22.74.74,0,0,0,.3-.64.8.8,0,0,0-.13-.43,1.41,1.41,0,0,0-.4-.35,8.52,8.52,0,0,0-1.05-.55,4.91,4.91,0,0,1-1.11-.68,2.43,2.43,0,0,1-.6-.75,2.08,2.08,0,0,1-.22-1,2.09,2.09,0,0,1,.73-1.69,3,3,0,0,1,2-.62,4.83,4.83,0,0,1,1.21.15,8.76,8.76,0,0,1,1.2.43l-.56,1.33a9.28,9.28,0,0,0-1.07-.37,3.44,3.44,0,0,0-.84-.1,1.14,1.14,0,0,0-.75.22.81.81,0,0,0-.15,1,1.12,1.12,0,0,0,.33.32,9.73,9.73,0,0,0,1.09.57,4.63,4.63,0,0,1,1.57,1.09,2.17,2.17,0,0,1,.42,1.35A2.12,2.12,0,0,1,27.32,21.59Zm6.87.52H33l-.33-.84h0a2.28,2.28,0,0,1-.88.74,2.8,2.8,0,0,1-1.18.21,1.9,1.9,0,0,1-1.4-.51,1.92,1.92,0,0,1-.52-1.45,1.64,1.64,0,0,1,.69-1.46,4,4,0,0,1,2.09-.52l1.08,0V18a.85.85,0,0,0-1-.94,4.39,4.39,0,0,0-1.75.45l-.56-1.15a5.09,5.09,0,0,1,2.38-.56,2.9,2.9,0,0,1,1.91.55A2,2,0,0,1,34.19,18Zm4.11.8a3.08,3.08,0,0,1-1,1.45,2.63,2.63,0,0,1-1.57.48,4.12,4.12,0,0,1-.86-.09V23.4a2.86,2.86,0,0,0,.67.08,1.19,1.19,0,0,0,.79-.28,1.75,1.75,0,0,0,.52-.83l.1-.3L34.45,15.9h1.86l1.17,3.5a4.94,4.94,0,0,1,.21,1.07h0A4.52,4.52,0,0,1,38,19.4l1.15-3.5h1.82Z"/>
    </g>
</svg>
