<?xml version="1.0" encoding="UTF-8"?>
<svg viewBox="0 0 48 48" xmlns="http://www.w3.org/2000/svg">
    <path d="m17.129 39.991c0.20338-0.05121 0.39183-0.12878 0.41878-0.17239 0.02694-0.04361 2e-3 -0.24615-0.05483-0.45011-0.08141-0.29075-0.13258-0.35839-0.23696-0.31317-0.37683 0.16326-0.97224 0.21115-1.286 0.10345-0.5981-0.20529-0.66756-0.39443-0.69769-1.8996l-0.02641-1.3209h2.1672v-0.82916h-2.1558v-0.5785c0-0.53237-0.0173-0.58983-0.21685-0.72058-0.19435-0.12734-0.2395-0.12939-0.43531-0.01979-0.2002 0.11207-0.2205 0.17232-0.24282 0.72058-0.0238 0.58445-0.02937 0.59829-0.24222 0.59829-0.25694 0-0.52112 0.21368-0.52112 0.42151 0 0.22104 0.23046 0.40765 0.50342 0.40765h0.24283v1.3708c0 1.4936 0.06155 1.7783 0.48116 2.2258 0.47692 0.5086 1.3821 0.68791 2.3027 0.45611zm4.7822-0.10689c0.45343-0.18647 0.47677-0.1884 0.47677-0.0395 0 0.13262 0.06345 0.15658 0.41458 0.15658h0.41458v-4.2981l-0.26948-0.1652c-0.52754-0.32342-1.1423-0.47019-1.9693-0.47019-0.74786 0-0.81496 0.01499-1.3267 0.29674-0.60164 0.33126-1.076 0.87577-1.2401 1.4236-0.23984 0.80053-0.06134 1.7593 0.45312 2.4338 0.61171 0.802 1.9822 1.1 3.0464 0.66231zm-1.5976-0.75215c-1.2606-0.40227-1.4896-2.1701-0.37916-2.9273 0.52294-0.35657 1.1237-0.39514 1.9788-0.12706l0.39592 0.12413-0.02281 1.2986-0.02282 1.2986-0.37312 0.18295c-0.49462 0.24253-1.1051 0.30063-1.5768 0.15009zm7.8841 0.81896c0.75218-0.22246 0.75101-0.22119 0.6033-0.65469-0.06989-0.20511-0.1434-0.37293-0.16335-0.37293-0.01996 0-0.2683 0.07858-0.55189 0.17463-1.3712 0.4644-2.63-0.27398-2.63-1.5427 0-1.3899 1.4569-2.0795 2.9937-1.417 0.1043 0.04496 0.15562-0.02292 0.23696-0.31346 0.05711-0.20396 0.08158-0.40685 0.05439-0.45085-0.11257-0.18215-1.1151-0.36982-1.7668-0.33075-0.75784 0.04544-1.302 0.28479-1.7832 0.78433-0.47314 0.49121-0.64349 0.94859-0.64349 1.7277 0 0.48925 0.04423 0.76126 0.16855 1.0365 0.2873 0.636 0.9446 1.199 1.652 1.415 0.36653 0.1119 1.3661 0.08149 1.8298-0.05567zm10.338-0.10238c0.34867-0.18044 0.35239-0.1806 0.35239-0.01485 0 0.14574 0.05389 0.16752 0.41458 0.16752h0.41458v-4.3141l-0.26948-0.1644c-0.53576-0.32686-1.0665-0.45485-1.8863-0.45494-0.67677-6.3e-5 -0.85293 0.03053-1.2509 0.21714-0.53664 0.25166-0.99078 0.67591-1.2565 1.1738-0.15622 0.29272-0.18689 0.47945-0.18689 1.1379 0 0.65954 0.03001 0.84167 0.18445 1.1194 0.32608 0.58633 0.81371 1.0197 1.398 1.2425 0.48709 0.18571 1.6313 0.1254 2.0861-0.10996zm-1.6376-0.691c-1.2545-0.35649-1.5642-2.0209-0.53394-2.8701 0.55816-0.46008 1.5401-0.51553 2.2959-0.12964l0.22802 0.11641v1.1941c0 1.1916-5.01e-4 1.1945-0.2187 1.3662-0.24868 0.19562-0.95035 0.42411-1.2681 0.41295-0.11713-0.0042-0.34356-0.04459-0.50318-0.08993zm-27.279-2.5286c0-3.0216-0.014286-3.3881-0.13722-3.5239-0.16841-0.18609-0.46982-0.19607-0.64455-0.021362-0.11421 0.11422-0.1303 0.54936-0.1303 3.5239v3.3936h0.91207zm2.7362 0.98432c0-1.7468-0.02673-2.4147-0.09949-2.4875-0.14227-0.14227-0.48358-0.12279-0.66095 0.03773-0.14011 0.1268-0.15163 0.31589-0.15163 2.4875v2.3503h0.91207zm18.656 1.767v-0.621l0.82098-0.90654 1.5846 2.1485h0.54333c0.41232 0 0.52845-0.02502 0.48158-0.10364-0.03395-0.05701-0.48391-0.67348-0.99989-1.3699-0.51598-0.69647-0.93662-1.2935-0.93476-1.3267 0.0042-0.0725 0.23016-0.33605 1.1457-1.3354l0.69303-0.75644h-1.1711l-1.0076 1.0986c-0.55418 0.60426-1.041 1.1111-1.0817 1.1263-0.04236 0.01579-0.07413-0.87478-0.07413-2.077 0-2.2599-0.0082-2.3037-0.42646-2.3037-0.48068 0-0.48561 0.03773-0.48561 3.7082v3.3396h0.91207zm-18.624-5.9175c0.86053-1.1515 0.94216-1.3802 0.61632-1.7271-0.22592-0.24048-0.66663-0.25706-0.8902-0.0335-0.16135 0.16135-0.22181 0.39287-0.49394 1.8914-0.13217 0.72786-0.14271 0.93517-0.04751 0.93517 0.01039 0 0.37721-0.4797 0.81534-1.066zm14.544 0.8658c0.2644-0.13849 2.1307-2.1079 2.0623-2.1763-0.02578-0.02578-0.76716 0.2297-1.6475 0.56779-1.7946 0.68926-1.8278 0.71941-1.3839 1.2561 0.3761 0.45462 0.61088 0.54001 0.96899 0.35244zm-0.64671-5.2417c1.5294-0.25418 2.7233-0.72463 4.0079-1.5794 1.4507-0.96523 2.7582-2.4428 3.5331-3.9928 1.1377-2.2758 1.157-5.1047 0.0508-7.4449-0.49256-1.042-0.94275-1.678-1.8505-2.6145-1.5148-1.5627-3.1253-2.4857-5.2783-3.0251-1.1594-0.29048-3.2836-0.36508-4.5355-0.15928-2.0432 0.33587-4.1147 1.3037-5.543 2.5899l-0.5362 0.48285 0.37037-0.53371c1.3847-1.9953 3.5523-3.3286 6.1269-3.7687 1.0228-0.17484 2.7329-0.17545 3.4988-0.00104 0.32004 0.072793 0.59948 0.11477 0.62096 0.093288 0.06642-0.066433 0.3796-1.2325 0.34131-1.2708-0.13729-0.13729-1.5049-0.28971-2.5893-0.28858-3.028 0.00312-5.6509 0.95167-7.8388 2.8347-1.1395 0.98073-2.1547 2.6531-2.6123 4.3032-0.31962 1.1525-0.37542 3.0062-0.12675 4.2104 0.18362 0.88918 0.46997 1.7596 0.57889 1.7596 0.0349 0 0.27789-0.75557 0.54002-1.679 0.83307-2.9349 1.6747-4.3341 3.3797-5.6189 2.1108-1.5905 5.028-2.2423 7.6075-1.6996 1.9795 0.41639 3.6207 1.3227 4.9891 2.755 0.99271 1.039 1.5479 1.9697 1.9106 3.2022 0.1862 0.6329 0.18714 0.65573 0.04882 1.1831-0.39919 1.522-1.1194 2.743-2.2716 3.8511-1.2793 1.2303-2.5679 1.9391-4.3303 2.3818-0.78972 0.19837-1.0286 0.22073-2.3309 0.21809-1.3528-0.0026-1.5164-0.02027-2.4174-0.25915-1.0784-0.28592-2.1114-0.73838-2.8847-1.2635-0.28312-0.19226-0.53104-0.3333-0.55092-0.31341-0.01991 0.0199-0.12482 0.34114-0.23319 0.71391l-0.19704 0.67775 0.55211 0.32245c1.8057 1.0546 4.1473 1.5911 6.4125 1.4693 1.7718-0.09528 3.1517-0.46127 4.6285-1.2277 1.0105-0.52443 1.7091-1.0499 2.5093-1.8875 0.3511-0.36749 0.63837-0.64687 0.63837-0.62084 0 0.11485-0.63456 1.1145-0.99516 1.5677-1.3687 1.7203-3.238 2.8338-5.5138 3.2846-0.84166 0.16672-2.9769 0.14851-3.8023-0.0324-0.35831-0.07855-0.68214-0.14281-0.71963-0.14281-0.06074 0-0.2189 0.46401-0.37204 1.0914-0.05286 0.2166-0.04179 0.22346 0.58656 0.36326 1.3699 0.30477 3.027 0.32942 4.5976 0.0684zm-8.7864-7.2697 0.62461-2.1719 0.99225-0.04637c1.2092-0.05653 1.6711-0.22894 2.2384-0.83536 0.57042-0.60982 0.89262-1.3594 0.89262-2.0765 0-0.62237-0.10544-0.84757-0.55364-1.1824-0.21717-0.16226-0.33684-0.17095-2.3537-0.17095h-2.1249l-0.23046 0.7877c-0.12675 0.43323-0.23128 0.81484-0.23227 0.84802-1e-3 0.0332 0.67511 0.07049 1.5025 0.08291 1.3304 0.02001 1.5149 0.03944 1.5961 0.16842 0.06989 0.11095 0.06138 0.20018-0.03557 0.37312l-0.12742 0.2273-3.2107 0.08296-0.62051 2.1499c-0.61446 2.1289-0.61914 2.1524-0.47944 2.4118 0.1819 0.33777 1.3771 1.6385 1.4455 1.5731 0.02866-0.0274 0.33316-1.0272 0.6767-2.2217zm6.3957-1.55c0.30768-1.0717 0.58263-2.0511 0.61101-2.1766l0.05157-0.22802h-1.0845c-0.59648 0-1.0845 0.01166-1.0845 0.026 0 0.02485-1.1161 3.9203-1.2108 4.2259-0.04252 0.13713 0.03215 0.14592 1.056 0.12437l1.1017-0.02317zm4.5912 1.8648c0.2718-0.06885 0.79673-0.27327 1.1665-0.45424 1.4502-0.70973 2.52-2.3655 2.52-3.9004 0-0.77189-0.20633-1.3055-0.69298-1.7921-0.63291-0.63291-0.90796-0.69298-3.1727-0.69298h-1.8455l-0.21731 0.72551c-0.11952 0.39904-0.23538 0.78814-0.25747 0.86469-0.03653 0.12664 0.12052 0.14156 1.7448 0.16583l1.785 0.02668 0.27091 0.27126c0.24477 0.24509 0.27039 0.31709 0.26557 0.74625-0.0091 0.80967-0.5695 1.6935-1.3395 2.1126-0.35921 0.19551-1.4813 0.45592-1.5723 0.3649-0.02808-0.02808 0.26779-1.1292 0.68846-2.5622 0.03901-0.13295-0.04788-0.1451-1.0374-0.1451h-1.08l-0.16426 0.55967c-0.09034 0.30783-0.35503 1.2313-0.58819 2.0522-0.23316 0.82087-0.44317 1.5578-0.4667 1.6376-0.0398 0.13499 0.08052 0.1451 1.7281 0.1451 1.3058 0 1.9006-0.03288 2.265-0.1252zm-3.4294-5.9277c0.12661-0.43323 0.23103-0.81569 0.23202-0.84989 1e-3 -0.03423-0.48167-0.06218-1.0726-0.06218h-1.0744l-0.17382 0.60114c-0.09561 0.33063-0.20911 0.70932-0.25226 0.84153-0.04313 0.13221-0.07843 0.25456-0.07843 0.27189 0 0.0173 0.49258 0.0211 1.0946 0.0083l1.0946-0.02312zm-18.056-11.204h34c1.108 0 2 0.892 2 2v34c0 1.108-0.892 2-2 2h-34c-1.108 0-2-0.892-2-2v-34c0-1.108 0.892-2 2-2z" fill="#fff"/>
</svg>
