<?xml version="1.0" encoding="UTF-8"?>
<svg viewBox="0 0 48 48" xmlns="http://www.w3.org/2000/svg">
    <defs>
        <style>.cls-1{fill:#fff;}.cls-2{fill:none;stroke:#fff;stroke-linecap:round;}</style>
    </defs>
    <g data-name="Layer 1">
        <path class="cls-1" d="M35.81,24c0,3.3-5.29,6-11.81,6s-11.81-2.67-11.81-6C10.88,24,5,26.93,5,27.9V41a2,2,0,0,0,2,2H41a2,2,0,0,0,2-2V27.9C43,26.93,37.12,24,35.81,24Z"/>
        <line class="cls-2" x1="24" x2="24" y1="14.79" y2="9.38"/>
        <line class="cls-2" x1="32.05" x2="34.76" y1="16.77" y2="12.09"/>
        <line class="cls-2" x1="15.95" x2="13.24" y1="16.77" y2="12.09"/>
        <path class="cls-1" d="M24,17.55c-5.79,0-10.49,3.53-10.49,6.28s4.7,5,10.49,5,10.49-2.23,10.49-5S29.79,17.55,24,17.55Zm-4.25,3.06c-.86.27-1.68.11-1.83-.36s.43-1.07,1.29-1.34,1.68-.12,1.83.35S20.61,20.33,19.75,20.61Z"/>
    </g>
</svg>
