<?xml version="1.0" encoding="UTF-8"?>
<svg viewBox="0 0 48 48" xmlns="http://www.w3.org/2000/svg">
    <defs>
        <style>.cls-1{fill:#fff;}</style>
    </defs>
    <g data-name="Layer 1">
        <path class="cls-1" d="M24,2a22,22,0,0,0-8,42.49,21.25,21.25,0,0,1,.08-6.31c.4-1.72,2.58-10.94,2.58-10.94A7.94,7.94,0,0,1,18,24c0-3.06,1.77-5.34,4-5.34,1.88,0,2.78,1.41,2.78,3.1,0,1.89-1.2,4.71-1.82,7.32a3.2,3.2,0,0,0,3.26,4C30.09,33,33.1,28.91,33.1,23c0-5.27-3.79-9-9.19-9A9.52,9.52,0,0,0,14,23.55a8.55,8.55,0,0,0,1.64,5,.64.64,0,0,1,.15.63c-.16.7-.54,2.19-.61,2.5s-.32.49-.73.29C11.67,30.71,10,26.7,10,23.47c0-6.94,5-13.31,14.54-13.31,7.63,0,13.56,5.44,13.56,12.7,0,7.59-4.78,13.69-11.42,13.69a5.88,5.88,0,0,1-5-2.53l-1.37,5.23A25,25,0,0,1,17.49,45,22,22,0,1,0,24,2"/>
    </g>
</svg>
