<?xml version="1.0" encoding="UTF-8"?>
<svg enable-background="new 0 0 48 48" version="1.1" viewBox="0 0 48 48" xml:space="preserve" xmlns="http://www.w3.org/2000/svg">
<style type="text/css">
	.st0{fill:#FFFFFF;}
</style>

<path class="st0" d="m42.7 15.1c-3.1-6.2-9.5-10-16.8-9.8-6.9 0.1-14.6 3.6-22.2 10.2-0.1 0.1-0.2 0.3-0.1 0.5l2.2 4.8c0.1 0.1 0.2 0.2 0.3 0.2h0.3l1.2-0.7c0.1-0.1 0.2-0.2 0.2-0.4v-2.4c0.5-1 1.3-2.2 2.8-3.1v26.4h-0.6c-0.1 0-0.2 0-0.3 0.1s-0.1 0.2-0.1 0.3v1c0 0.2 0.2 0.4 0.4 0.4h6.9c0.2 0 0.4-0.2 0.4-0.4v-1c0-0.2-0.2-0.4-0.4-0.4h-0.6v-6c16.1 3.5 22.8-1.5 25.4-4.8 3.2-4 3.6-9.7 1-14.9zm-7.3 13.9c-2.2 2.4-7.6 5.8-19.1 2v-19.9c3.3-1.6 6.4-2.3 9.2-2.3h0.1c5.2 0 9.5 2.8 11.5 7.4 2 4.5 1.3 9.6-1.7 12.8z"/>
</svg>
