<?xml version="1.0" encoding="UTF-8"?>
<svg viewBox="0 0 48 48" xmlns="http://www.w3.org/2000/svg">
    <defs>
        <style>.a{fill:#fff;}</style>
    </defs>
    <path class="a" d="m44.17 30.81a1 1 0 0 0-1.17-0.08 16 16 0 0 1-17.62-26.73 1 1 0 0 0-0.55-2h-0.28-0.55a22 22 0 1 0 20.48 30 1.06 1.06 0 0 0-0.31-1.19zm-30.88 6.66a7 7 0 1 1 7-6.95 7 7 0 0 1-7 6.95z"/>
    <path class="a" d="M14.51,29.73a1.4,1.4,0,0,0-.42-.42V25.92a.8.8,0,0,0-.8-.8.79.79,0,0,0-.79.8v3.39a1.43,1.43,0,0,0-.66,1.21,1.46,1.46,0,0,0,2.67.8H17.9a.79.79,0,0,0,.79-.8.79.79,0,0,0-.79-.79Z"/>
</svg>
