<?xml version="1.0" encoding="UTF-8"?>
<svg version="1.1" viewBox="0 0 48 48" xmlns="http://www.w3.org/2000/svg">
    <path d="m24 2a22 22 0 0 0-22 22 22 22 0 0 0 22 22 22 22 0 0 0 22-22 22 22 0 0 0-22-22zm0 12.123c11.197 0 11.716 0.002242 11.887 0.039062 0.76714 0.16543 1.3479 0.7113 1.5879 1.4902l0.050782 0.16016 0.005859 4.7676c0.0064 5.134 0.008047 5.1178-0.10352 5.9766-0.69486 5.3517-4.4998 9.7779-9.6855 11.27-1.2848 0.36958-2.7537 0.55714-4.0957 0.52148-3.4829-0.09254-6.7649-1.5044-9.2246-3.9668-2.1259-2.1283-3.4629-4.8458-3.8496-7.8242-0.1115-0.85873-0.11027-0.84254-0.10352-5.9766l0.005859-4.7676 0.048829-0.16016c0.23996-0.77894 0.8227-1.3248 1.5898-1.4902 0.17083-0.03684 0.68981-0.039062 11.887-0.039062zm-6.6953 6.8164c-0.56139-0.02564-1.0031 0.16158-1.4219 0.59961-0.32236 0.3372-0.46094 0.68094-0.46094 1.1484 0 0.37637 0.1023 0.70264 0.32031 1.0195 0.049469 0.07192 1.5799 1.6142 3.6328 3.6641 3.3414 3.3365 3.5532 3.5462 3.6992 3.6211 0.34701 0.17794 0.57294 0.22726 0.97852 0.2168 0.22412-0.0058 0.33983-0.018674 0.45703-0.052734 0.0861-0.02503 0.22611-0.079183 0.31055-0.12109 0.14632-0.07263 0.32268-0.24712 3.7793-3.7051 3.5663-3.5677 3.6277-3.6306 3.7129-3.7988 0.13627-0.26901 0.17941-0.43265 0.19141-0.72656 0.01198-0.29328-0.014689-0.45639-0.11914-0.72656-0.09398-0.24304-0.2145-0.42064-0.44922-0.6543-0.32927-0.32779-0.64441-0.46565-1.1035-0.48438-0.38422-0.01568-0.72492 0.075424-1.0371 0.27539-0.10257 0.0657-0.87632 0.82606-2.9531 2.9004-1.7972 1.795-2.8261 2.8075-2.8477 2.8027-0.01856-0.0041-1.3066-1.264-2.8613-2.7988-1.5547-1.5348-2.8753-2.8276-2.9355-2.873-0.259-0.1953-0.53811-0.29045-0.89258-0.30664z" fill="#fff"/>
</svg>
