<?xml version="1.0" encoding="UTF-8"?>
<svg data-name="Layer 1" viewBox="0 0 48 48" xmlns="http://www.w3.org/2000/svg">
    <defs>
        <style>.cls-1{fill:#fff;}</style>
    </defs>
    <path class="cls-1" d="M24,2A22,22,0,1,0,46,24,22,22,0,0,0,24,2Zm8.43,22H29.69a.28.28,0,0,1-.28-.27,5.41,5.41,0,1,0-5.68,5.68.28.28,0,0,1,.27.28v2.74a.29.29,0,0,1-.29.29,8.72,8.72,0,1,1,9-9A.29.29,0,0,1,32.43,24Zm6.26,0h-3a.58.58,0,0,1-.57-.54A11.11,11.11,0,1,0,23.46,35.1a.58.58,0,0,1,.54.57v3a.56.56,0,0,1-.59.57A15.27,15.27,0,1,1,39.26,23.41.56.56,0,0,1,38.69,24Z"/>
</svg>
