<?xml version="1.0" encoding="UTF-8"?>
<svg width="48" height="48" version="1.1" viewBox="0 0 12.7 12.7" xmlns="http://www.w3.org/2000/svg">
    <defs>
        <style>.cls-1{fill:#fff;}</style>
        <style>.cls-1{fill:#fff;}</style>
    </defs>
    <path d="m5.8034 2.5667c-1.5363-2.316e-4 -2.7818 1.2112-2.7819 2.7057 2.7e-6 0.054495 0.013733 0.1053 0.017039 0.15901-0.17155-0.36233-0.30103-0.79518-0.36532-1.3193-0.078449-0.63958-0.12615-0.90409-0.12615-0.90409l-0.99476 0.1866s0.041856 1.5553 0.69121 2.7885c0.66772 1.268 1.967 2.2142 3.6821 2.2142 3.383 0 4.453-2.2611 4.6059-2.5546 0.51588-0.99031 0.61631-2.2248 0.61631-2.2248l-1.1564-0.31932-1.025-0.29304s0.028608 0.00304-0.053885 0.59265c-0.01653 0.11725 9.028e-4 1.003-0.34692 1.8634 0.00457-0.063675 0.019579-0.1244 0.019835-0.18922-9.37e-5 -1.4945-1.2456-2.7059-2.7819-2.7057zm0 0.87518c1.0392 1.118e-4 1.8816 0.81958 1.8818 1.8305-1.679e-4 1.0109-0.84258 1.8304-1.8818 1.8305-1.0392-1.145e-4 -1.8816-0.81959-1.8818-1.8305 1.705e-4 -1.0109 0.84258-1.8304 1.8818-1.8305zm-2.661 5.3221-1.4113 1.3693h1.3417l1.3758-1.3693zm1.7648 0-1.4113 1.3693h1.3404l1.3758-1.3693zm1.5808 0 1.3759 1.3693h1.3404l-1.4113-1.3693zm1.7635 0 1.3772 1.3693h1.3404l-1.4113-1.3693z" fill="#fff" stroke-width=".43208"/>
</svg>
