<?xml version="1.0" encoding="UTF-8"?>
<svg enable-background="new 0 0 1881.25 1750" version="1.1" viewBox="0 0 48 48" xml:space="preserve" xmlns="http://www.w3.org/2000/svg"><path d="m26.424 4.4248a19.575 19.575 0 0 0-14.811 6.793h13.26c1.0345 3e-3 1.8716 0.84248 1.875 1.877v21.83c-3e-3 1.0345-0.84052 1.8716-1.875 1.875h-13.229a19.575 19.575 0 0 0 14.779 6.7754 19.575 19.575 0 0 0 19.576-19.574 19.575 19.575 0 0 0-19.576-19.576zm-22.561 7.8125c-1.0326 0-1.8633 0.83261-1.8633 1.8652v18.791c0 1.0326 0.83066 1.8633 1.8633 1.8633h18.791c1.0326 0 1.8652-0.83066 1.8652-1.8633v-18.791c0-1.0326-0.83262-1.8652-1.8652-1.8652zm4.8691 5.2012h4.6953c1.4089 0 2.4863 0.32285 3.2344 0.9707 0.74812 0.64788 1.123 1.5864 1.123 2.8144a3.9964 3.9964 0 0 1-0.55469 2.1035 3.7507 3.7507 0 0 1-1.5781 1.4336 5.2422 5.2422 0 0 1-2.373 0.51172h-2.2441v4.2832h-2.3027zm2.3027 1.875 2e-3 4.1074h1.9805a2.5291 2.5291 0 0 0 1.75-0.53516 2.0094 2.0094 0 0 0 0.5918-1.5684c0-1.3352-0.75689-2.0039-2.2695-2.0039z" fill="#fff"/></svg>
