<?xml version="1.0" encoding="UTF-8"?>
<svg width="48" height="48" version="1.1" viewBox="0 0 12.7 12.7" xmlns="http://www.w3.org/2000/svg">
    <g>
        <path d="m6.6943 11.929c-0.039376-7e-3 -0.21979-0.03296-0.40092-0.05756-1.0703-0.16296-2.303-0.37716-2.3196-0.52633-0.030045-0.26895 1.3029-0.49553 2.5917-0.20053 1.0372 0.23742 1.6189 0.26372 2.0825 0.13386 0.20274-0.05679 0.35693-0.09498 0.43096-0.06252 0.14596 0.064-0.17582 0.32912-0.75688 0.53133-0.43312 0.15072-1.2884 0.24252-1.6277 0.18175zm-3.998-1.1696c-0.062709-0.16342 0.63412-0.60034 1.2373-0.77583 0.78688-0.22892 1.9554-0.29599 3.4331-0.19706 1.6484 0.11036 2.3636-0.069058 3.2499-0.81526 0.68642-0.57791 0.90858-0.6668 0.74557-0.29829-0.23996 0.54247-1.0062 1.1912-1.7682 1.4968-0.87948 0.35283-1.7245 0.43633-3.9737 0.39267-1.7224-0.03344-2.1231-0.0079-2.6368 0.16814-0.23537 0.08065-0.26621 0.08374-0.28729 0.02879zm-0.93718-0.95152c-0.19345-0.028123-0.39894-0.16831-0.45274-0.35555-0.086617-0.30149 0.027211-0.626 0.32311-0.72087 0.26178-0.08393 4.2248-1.2065 4.3967-1.256 0.43505-0.12528 0.70188 0.12336 0.75521 0.38841 0.056691 0.28172 0.022222 0.57818-0.39779 0.68574-0.25362 0.064946-1.0031 0.27463-2.2368 0.63241-2.3088 0.66958-2.2156 0.65086-2.3877 0.62584zm-0.11345-1.3572c-0.23408-0.097631 0.34884-2.085 0.93595-2.723 1.3293-1.0602 3.1904-1.8676 4.8766-1.8293-0.20696 0.78845-0.25715 1.4786-0.25743 2.2041-2.1397 0.27696-3.8654 1.0193-5.215 2.1173-0.2486 0.20751-0.25534 0.26618-0.34016 0.2308zm1.3467-3.4686c-0.031643-0.08246 0.0096935-0.15516 0.2815-0.49608 1.3328-1.6717 3.0422-3.03 5.022-3.9905 0.7209-0.34974 0.88072-0.35828 0.63048-5.6652e-4 -0.61419 0.87796-1.0033 1.7396-1.3735 3.0354-1.7189 0.078687-3.1207 0.59558-4.2039 1.3671-0.21703 0.15457-0.32574 0.16506-0.35658 0.084693z" fill="#fff" stroke-width=".028637"/>
    </g>
</svg>
