<?xml version="1.0" encoding="UTF-8"?>
<svg viewBox="0 0 48 48" xmlns="http://www.w3.org/2000/svg">
    <defs>
        <style>.cls-1{fill:#fff;}</style>
    </defs>
    <g data-name="Layer 1">
        <polygon class="cls-1" points="24 33.54 31.71 28.74 27.47 26.19 42.67 17.57 42.67 12.62 45 11.28 45 4.85 26.2 15.73 24 14.46 21.8 15.73 3 4.85 3 11.28 5.33 12.62 5.33 17.57 20.53 26.19 16.29 28.74"/>
        <polygon class="cls-1" points="21.8 10.88 24 9.6 26.2 10.88 31.02 8.08 24 4.03 16.98 8.08"/>
        <polygon class="cls-1" points="36.26 26.04 36.26 31.08 24 38.15 11.74 31.08 11.74 26.04 6.7 23.18 6.7 33.99 24 43.97 41.3 33.99 41.3 23.18"/>
    </g>
</svg>
