<?xml version="1.0" encoding="UTF-8"?>
<svg enable-background="new 0 0 48 48" version="1.1" viewBox="0 0 48 48" xml:space="preserve" xmlns="http://www.w3.org/2000/svg">
<style type="text/css">
	.st0{fill:#FFFFFF;}
</style>
	<path class="st0" d="m40 42.6c-0.2 0.9-1 1.6-2 1.6h-28c-1.1 0-2-0.9-2-2v-13c5 2.8 10 6.1 15 8.9 0.4 0.2 1.3 0.4 2.1 0 5.4-2.8 10.8-6.6 14.9-8.9v13.4z"/>
	<path class="st0" d="m40 17c-0.4-4.3-5-11-13.1-12.5-0.8-0.1-1.9-0.2-3-0.2-1 0-2 0.1-2.8 0.2-7.2 1.5-12.5 8.2-12.9 12.4-0.1 0.7-0.1 1.6-0.2 2.5v7.1c0.1 0.2 0.3 0.4 0.7 0.7 0 0 9.2 6 12.8 8.2 1 0.6 2.5 1.9 5.1 0.2 1-0.6 12.9-8.5 12.9-8.5 0.4-0.3 0.4-0.6 0.4-0.6s0.2-8.3 0.1-9.5zm-6.9 5.1h-18.2v-5.2c0-0.2 0-0.4 0.1-0.6 2.4-5.3 8.9-5.6 8.9-5.6 1.1-0.1 2.6 0.3 2.6 0.3 5.7 1.6 6.3 5 6.5 5.9v0.4 4.8z"/>
</svg>
