<?xml version="1.0" encoding="UTF-8"?>
<svg viewBox="0 0 48 48" xmlns="http://www.w3.org/2000/svg">
    <defs>
        <style>.cls-1{fill:#2b2b2b;}.cls-2{fill:#fff;}</style>
    </defs>
    <g data-name="Layer 2">
        <rect class="cls-1" x="-338.46" y="-350.1" width="674.7" height="426.15"/>
        <rect class="cls-1" x="-283.11" y="-350.1" width="674.7" height="426.15"/>
        <rect class="cls-1" x="-338.46" y="-296.7" width="674.7" height="426.15"/>
        <rect class="cls-1" x="-283.11" y="-296.7" width="674.7" height="426.15"/>
        <rect class="cls-1" x="-338.46" y="-405.17" width="674.7" height="426.15"/>
        <rect class="cls-1" x="-283.11" y="-405.17" width="674.7" height="426.15"/>
        <rect class="cls-1" x="-337.62" y="-352.25" width="674.7" height="426.15"/>
    </g>
    <g data-name="Layer 1">
        <path class="cls-2" d="M25.09,19V11.74H22.91V19a1.37,1.37,0,0,1-.22.74l-5,7.86H30.32l-5-7.86A1.37,1.37,0,0,1,25.09,19Z"/>
        <path class="cls-2" d="M24,2A22,22,0,1,0,46,24,22,22,0,0,0,24,2ZM38.28,36.29a1.36,1.36,0,0,1-1.2.71H10.92a1.36,1.36,0,0,1-1.15-2.1l10.4-16.32V11.74h-1a1.37,1.37,0,1,1,0-2.74h9.58a1.37,1.37,0,1,1,0,2.74h-1v6.84L38.23,34.9A1.36,1.36,0,0,1,38.28,36.29Z"/>
    </g>
</svg>
