<?xml version="1.0" encoding="UTF-8"?>
<svg viewBox="0 0 48 48" xmlns="http://www.w3.org/2000/svg">
    <path d="m26.281 30.119v2.0469h2.0469v-2.0469zm-2.0469-2.0488v2.0488h2.0469v-2.0488zm8.2031-14.352v2.0469h2.0469v-2.0469zm-4.1014-4.1025v10.251h10.251v-10.251zm8.2038 8.2038h-6.1566v-6.1566h6.1566zm-8.204 14.354v2.0469h2.0469v-2.0469zm-6.1484-2.0547v6.1562h2.0469v-2.0547h2.0469v-2.0469h-2.0469v-2.0547zm10.251 8.2029v-4.1019h-2.0547v2.0547h-6.1491v2.0472zm4.1019-6.1491h-2.0547v-2.0547h2.0547v-4.1019h2.0472v-4.0943h-2.0472v2.0472h-2.0547v4.1019h-6.1491v2.0472h4.1019v4.1019h4.1019zm-26.659-10.251v2.0469h2.0469v-2.0469zm26.658 8.1973v2.0469h2.0488v-2.0469zm-22.557 2.0547v2.0469h2.0488v-2.0469zm-4.1011 6.1482h10.251v-10.251h-10.251zm2.0472-8.2038h6.1566v6.1566h-6.1566zm20.51-8.1962h-4.1019v2.0472h2.0472v2.0472h2.0547v-2.0472zm-18.456-8.2032v2.0469h2.0488v-2.0469zm6.1499-4.1025h-10.251v10.251h10.251zm-2.0472 8.2038h-6.1566v-6.1566h6.1566zm6.1492 4.1018v2.0469h2.0469v-2.0469zm2.0469 4.0938v2.0488h2.0469v-2.0488zm-2.047 7.05e-4v-2.0472h-6.1491v-2.0472h-4.1019v2.0472h2.0472v2.0472h6.1566v2.0547h2.0472zm-2.0472-8.1962v4.1019h2.0472v-2.0547h2.0472v-6.1491h-2.0472v-2.0547h2.0472v-2.0472h-4.0943v6.1491h2.0472v2.0547zm-10.259 6.1487v2.0469h2.0488v-2.0469zm22.557 12.307v2.0469h2.0488v-2.0469zm2.0547-2.0547v2.0469h2.0488v-2.0469zm9.4609-10.221a22 22 0 0 1-22 22 22 22 0 0 1-22-22 22 22 0 0 1 22-22 22 22 0 0 1 22 22z" fill="#fff" stroke-width=".75541"/>
</svg>
