<?xml version="1.0" encoding="UTF-8"?>
<svg viewBox="0 0 48 48" xmlns="http://www.w3.org/2000/svg">
  <path
     id="rect48"
     style="fill:#ffffff;stroke-width:0.75541466"
     d="m 26.28125,30.119141 v 2.046875 h 2.046875 v -2.046875 z m -2.046875,-2.048829 v 2.048829 H 26.28125 V 28.070312 Z M 32.4375,13.71875 v 2.046875 h 2.046875 V 13.71875 Z M 28.336136,9.6162782 V 19.867255 H 38.587112 V 9.6162782 Z m 8.203803,8.2038028 h -6.15663 v -6.156629 h 6.15663 z m -8.204001,14.353747 v 2.046875 h 2.046874 V 32.173828 Z M 22.1875,30.119141 v 2.054687 2.046875 2.054688 h 2.046875 v -2.054688 h 2.046875 v -2.046875 h -2.046875 v -2.054687 z m 10.250537,8.202894 v -2.047174 -2.054728 h -2.054728 v 2.054728 h -6.149075 v 2.047174 z m 4.101902,-6.149076 h -2.054728 v -2.054727 h 2.054728 V 28.071058 26.01633 h 2.047173 v -2.047174 -2.047173 h -2.047173 v 2.047173 h -2.054728 v 2.047174 2.054728 h -6.149075 v 2.047174 h 4.101901 v 2.054727 2.047174 h 4.101902 z M 9.8808594,21.921875 v 2.046875 h 2.0468746 v -2.046875 z m 26.6582026,8.197266 v 2.046875 h 2.048829 v -2.046875 z m -22.55664,2.054687 v 2.046875 H 16.03125 V 32.173828 Z M 9.881356,38.322035 H 20.132333 V 28.071058 H 9.881356 Z m 2.047174,-8.203803 h 6.156629 v 6.156629 H 11.92853 Z m 20.509507,-8.196249 h -4.101901 v 2.047173 h 2.047173 v 2.047174 h 2.054728 V 23.969156 Z M 13.982422,13.71875 v 2.046875 H 16.03125 V 13.71875 Z M 20.132333,9.6162782 H 9.881356 V 19.867255 H 20.132333 Z M 18.085159,17.820081 H 11.92853 v -6.156629 h 6.156629 z m 6.149216,4.101794 v 2.046875 h 2.046875 v -2.046875 z m 2.046875,4.09375 v 2.048828 h 2.046875 v -2.048828 z m -2.047016,7.05e-4 v -2.047174 h -6.149075 v -2.047173 h -4.101902 v 2.047173 h 2.047174 v 2.047174 h 6.156629 v 2.054728 h 2.047174 z M 22.18706,17.820081 v 4.101902 h 2.047174 v -2.054728 h 2.047174 V 13.71818 h -2.047174 v -2.054728 h 2.047174 V 9.6162782 H 22.18706 v 6.1490748 h 2.047174 v 2.054728 z M 11.927734,23.96875 v 2.046875 h 2.048828 V 23.96875 Z m 22.556641,12.306641 v 2.046875 h 2.048828 v -2.046875 z m 2.054687,-2.054688 v 2.046875 h 2.048829 V 34.220703 Z M 46,24 A 22,22 0 0 1 24,46 22,22 0 0 1 2,24 22,22 0 0 1 24,2 22,22 0 0 1 46,24 Z" />
</svg>
