<?xml version="1.0" encoding="UTF-8"?>
<svg data-name="Layer 1" viewBox="0 0 48 48" xmlns="http://www.w3.org/2000/svg">
    <defs>
        <style>.cls-1{fill:#fff;}</style>
    </defs>
    <path class="cls-1" d="M24,2A22,22,0,1,0,46,24,22,22,0,0,0,24,2Zm3.68,20.16h3.67v3.68H29.51V24H27.68Zm-16.55-11h9.19v9.19H11.13Zm9.19,25.74H11.13V27.68h9.19ZM36.87,24v1.84H35v3.67h1.84v1.84H35v1.84h1.84V35H35v1.84H33.19V35H35V33.19H31.35v3.68H24V35H22.16V29.51H24V27.68H22.16V25.84H16.65V24H14.81v1.84H13V24H11.13V22.16H13V24h1.84V22.16h3.68V24H24V22.16H22.16V18.49H24V16.65H22.16V11.13h3.68V13H24v1.84h1.84v5.51H24v1.84h1.84V24H24v3.68h1.84V25.84h1.84v1.84h5.51V24H35V22.16h1.84Zm0-3.68H27.68V11.13h9.19Z"/>
    <polygon class="cls-1" points="31.35 29.51 27.68 29.51 27.68 31.35 29.51 31.35 29.51 33.19 31.35 33.19 31.35 31.35"/>
    <rect class="cls-1" x="33.19" y="29.51" width="1.84" height="1.84"/>
    <polygon class="cls-1" points="29.51 33.19 27.68 33.19 27.68 31.35 25.84 31.35 25.84 33.19 24 33.19 24 35.03 29.51 35.03"/>
    <path class="cls-1" d="M18.49,29.51H13V35h5.52Zm-1.84,3.68H14.81V31.35h1.84Z"/>
    <rect class="cls-1" x="24" y="29.51" width="1.84" height="1.84"/>
    <path class="cls-1" d="M13,18.49h5.52V13H13Zm1.84-3.68h1.84v1.84H14.81Z"/>
    <rect class="cls-1" x="25.84" y="27.68" width="1.84" height="1.84"/>
    <path class="cls-1" d="M35,13H29.51v5.52H35Zm-1.84,3.68H31.35V14.81h1.84Z"/>
</svg>
