<?xml version="1.0" encoding="UTF-8"?>
<svg viewBox="0 0 48 48" xmlns="http://www.w3.org/2000/svg">
    <defs>
        <style>.cls-1{fill:#fff;}</style>
    </defs>
    <g data-name="Layer 1">
        <path class="cls-1" d="M18.42,5.62,27.12,5V17.88h9A7.62,7.62,0,0,1,44,25.72a7,7,0,0,1-4.47,6.68H33.6s4-1.76,4-4.57c0-2.31-1.84-4.14-5.2-4.24S18.42,23,18.42,23Z"/>
        <path class="cls-1" d="M6.45,21.36l5.39.3a8.7,8.7,0,0,0-1.17,3.45c0,3.82,5.89,7.29,12,7.29A16.05,16.05,0,0,0,27,32L27.75,43S4,40.29,4,27.66C4,22.84,6.45,21.36,6.45,21.36Z"/>
    </g>
</svg>
