<?xml version="1.0" encoding="UTF-8"?>
<svg viewBox="0 0 48 48" xmlns="http://www.w3.org/2000/svg">
    <path d="m7 5c-1.108 0-2 0.892-2 2v34c0 1.108 0.892 2 2 2h34c1.108 0 2-0.892 2-2v-34c0-1.108-0.892-2-2-2h-34zm6.2441 2.5645c1.0036 0.01652 2.0511 0.40324 3.0938 1.2617l6.332 6.1133-1.4922 1.3477 2.8398 2.793 2.9375-2.8633-1.1797-1.4219 5.7773-5.7285c4.9593-4.8148 10.956 3.8755 9.9199 7.7031l-1.7578-1.3477-5.4648 5.4648-1.8301-1.4922v-3.6602l-1.4199 1.2031v4.6719l-2.2637 2.1895 11.775 11.773-4.9863 4.9336-11.893-11.916-11.508 11.676-4.9102-5.0059 11.746-11.58-2.3105-2.3105v-4.5996l-1.1797-0.88867v3.5137l-1.9023 1.5898-5.3184-5.7305-1.7324 1.4434c0.13181-4.551 3.1424-9.1918 6.7266-9.1328z" fill="#fff"/>
</svg>
