<?xml version="1.0" encoding="UTF-8"?>
<svg version="1.1" viewBox="0 0 48 48" xmlns="http://www.w3.org/2000/svg">
    <defs>
        <style>.cls-1{fill:#fff;}</style>
    </defs>
    <path d="m19.612 18.889c-1.3846 0.05217-2.9861 0.64066-3.6243 1.971-0.43796 0.91226-0.29889 2.9442-0.29889 4.0153 1.245-0.83384-0.04771-2.4464 1.0807-4.0089 1.3961-1.9336 2.9997-1.0123 4.8471-1.5362-0.42171-0.31054-1.1736-0.47231-2.0044-0.44104zm-1.2452-6.0614c-4.3719 0.0082-7.2599 2.8975-7.2675 7.2675v16.448c0 0.48388-0.02201 1.0691 0.12332 1.53 0.71721 2.2874 2.9444 2.1027 4.8492 2.1027l-1.3398 3.825h19.125l-1.3377-3.825c2.6909-0.0031 4.0114-0.73529 4.0152-3.6327v-16.448c-0.0082-4.37-2.8956-7.2599-7.2675-7.2675zm0.63333 4.2201h9.6315c2.9644 0 5.3508 2.3051 5.3508 5.169v5.0833c0 0.85639-0.95458 1.5467-2.1403 1.5467h-16.052c-1.1858 0-2.1403-0.6903-2.1403-1.5467 0-1.7141 0.01981-3.4305 0-5.0833 0-2.8639 2.3865-5.169 5.3508-5.169zm-1.9731 14.491c1.7732 0 3.2105 1.4373 3.2105 3.2105s-1.4373 3.2105-3.2105 3.2105-3.2105-1.4373-3.2105-3.2105 1.4373-3.2105 3.2105-3.2105zm13.77 0c1.7732 0 3.2105 1.4373 3.2105 3.2105s-1.4373 3.2105-3.2105 3.2105-3.2105-1.4373-3.2105-3.2105 1.4373-3.2105 3.2105-3.2105zm-10.328 8.6366h7.4598c0.29262 0.0031 0.80605-0.01756 1.0681 0.1087 0.59669 0.2888 1.1103 2.1204 1.2269 2.7611h-11.858c0.11091-0.60818 0.60322-2.3181 1.089-2.6796 0.27159-0.20269 0.69051-0.18445 1.0137-0.19021zm16.312-35.642c-0.62586-0.027733-1.2644 0.016494-1.7579 0.081511-2.1917 0.28496-3.2627 0.44047-5.355 1.3796-0.87784 0.39589-2.1803 1.1849-3.06 1.3628-2.1382 0.43223-2.2136-1.1969-4.7802-1.323 0.46281 0.69424 1.6759 2.5124 2.3013 2.9179 0.49341 0.3213 0.95763 0.33024 1.5237 0.33024 2.754 0.00652 4.392-1.6484 6.6927-2.6754l-0.3825-0.57271 6.5025-1.1475c-0.44562-0.22568-1.0588-0.3255-1.6847-0.35324zm-16.688-0.533c-2.6759 0.00389-5.1146 1.9524-7.255 3.3715l-2.8238 1.8226c-0.27158 0.25626-0.6442 0.73419-0.40132 1.1224 0.57568 0.92756 3.0051-0.38672 3.6076-0.79217 2.3256-1.5587 5.2968-4.1307 8.2248-4.2493 0.81663-0.032498 1.3148 0.080654 2.1027 0.18394-0.70189-0.87592-1.2107-1.0964-2.295-1.3335-0.39182-0.086063-0.77778-0.12596-1.1601-0.12541z" fill="#fff" stroke-width="1.0702"/>
</svg>
