<?xml version="1.0" encoding="UTF-8"?>
<svg viewBox="0 0 48 48" xmlns="http://www.w3.org/2000/svg">
    <path d="m13.195 7.5391c-1.8139-0.029861-3.4758 1.1269-4.6992 2.8574-1.2234 1.7305-2.0119 4.0382-2.0781 6.3242l-0.0039 0.10938 1.7812-1.4844 5.3184 5.7305 1.957-1.6348v-3.4355l1.0801 0.8125v4.5957l2.2891 2.2891-11.746 11.58 4.9805 5.0781 11.51-11.676 11.891 11.914 5.0586-5.0039-11.775-11.773 2.2422-2.168v-4.6699l1.3203-1.1172v3.5742l1.8828 1.5371 5.4668-5.4668 1.7812 1.3672 0.01953-0.07227c0.26333-0.97324 0.07855-2.2431-0.41797-3.5273-0.49652-1.2842-1.3066-2.5833-2.3066-3.6133-1-1.03-2.1893-1.7905-3.4473-1.9902-1.258-0.19977-2.5813 0.16647-3.8301 1.3789h-2e-3l-5.8086 5.7617 1.1797 1.4199-2.8711 2.7969-2.7656-2.7207 1.4922-1.3477-6.373-6.1523v-0.00195c-1.0496-0.86425-2.1092-1.2548-3.125-1.2715zm-2e-3 0.099609c0.9913 0.016318 2.0269 0.39728 3.0625 1.25l6.291 6.0723-1.4922 1.3477 2.9121 2.8652 3.0059-2.9297-1.1797-1.4219 5.7441-5.6973v0.00195c1.2308-1.1949 2.5174-1.5486 3.7461-1.3535 1.2287 0.19512 2.4031 0.9437 3.3926 1.9629 0.98952 1.0192 1.7937 2.3088 2.2852 3.5801 0.47867 1.2381 0.64396 2.4492 0.41797 3.3809l-1.7188-1.3184-5.4629 5.4648-1.7773-1.4492v-3.7441l-1.5195 1.2871v4.6738l-2.2852 2.2109 11.775 11.773-4.9141 4.8633-11.895-11.916-11.506 11.674-4.8398-4.9316 11.746-11.582-2.332-2.3301v-4.6055l-1.2792-0.96289v3.5898l-1.8477 1.5449-5.3184-5.7305-1.6641 1.3867c0.09101-2.2226 0.84728-4.4603 2.0352-6.1406 1.2109-1.7129 2.8469-2.8455 4.6172-2.8164z" fill="#fff"/>
    <path d="m36.045 22.868c-0.1133-0.09715-0.26152-0.15131-0.41413-0.14964h-13.33c-0.35552-0.87998-0.88609-1.6874-1.5775-2.3788-1.3512-1.3512-3.1495-2.0955-5.0596-2.0978-1.9095 9.15e-4 -3.7064 0.74483-5.0584 2.0968-1.3526 1.3526-2.0942 3.1475-2.096 5.0592-0.00105 3.947 3.2076 7.1565 7.1545 7.1551 1.9136 2.46e-4 3.7093-0.74138 5.0612-2.0933 0.69156-0.69156 1.2194-1.4984 1.576-2.3803l4.381 0.0017c0.18106-0.0011 0.34893-0.07351 0.47434-0.20736l1.1514-1.2351 1.1573 1.2352c0.12251 0.12987 0.29086 0.20712 0.47215 0.20552 0.17791 0.0017 0.35053-0.07334 0.47108-0.20409l1.1568-1.2386 1.152 1.2379c0.12256 0.13005 0.29412 0.20457 0.47208 0.20629 0.18088-0.0013 0.33527-0.05915 0.47452-0.20718l1.1541-1.2353 1.1551 1.2351c0.12554 0.13955 0.30885 0.21122 0.49412 0.20695 0.16692-0.0079 0.31882-0.07417 0.43378-0.18913 0.01651-0.01651 0.03274-0.03414 0.0481-0.05249l1.6286-2.0354c0.22055-0.27458 0.17993-0.67577-0.08943-0.90261zm-21.603 2.5302c-4.57e-4 1.1248-0.91032 2.0345-2.034 2.034-1.1246 5.9e-5 -2.0342-0.9095-2.0336-2.0336-2.56e-4 -1.1233 0.90867-2.0332 2.0338-2.0341 1.1233 8.3e-5 2.0331 0.91062 2.0338 2.0338z" fill="#fff"/>
</svg>
