<?xml version="1.0" encoding="UTF-8"?>
<svg version="1.1" viewBox="0 0 48 48" xmlns="http://www.w3.org/2000/svg">
    <path d="m6 26.037v14.068c0 1.0497 0.84505 1.8947 1.8947 1.8947h32.211c1.0497 0 1.8947-0.84505 1.8947-1.8947v-32.211c0-1.0497-0.84505-1.8947-1.8947-1.8947h-18v2.8421h17.053v30.316h-30.316" fill="#fff" stroke-width=".94737"/>
    <path d="m9.7895 25.895h-2.3974l-0.029735 2.3571h12.808l0.03979-2.3571zm19.654-1.4324v3.7895h11.192v-3.7895zm-7.3383-17.1v14.464h3.7895v-14.465z" fill="#fff" stroke-width=".94737"/>
    <path d="m26.921 23.436v5.8415h-5.8415l0.07863-3.3831h-3.7895l-0.07863 7.1716h13.42v-13.418l-8.6049 0.11632v3.7257m-16.105 2.4039h3.7895v13.557h-3.7895zm32.211-17.346h3.7895v30.903h-3.7895z" fill="#fff" stroke-width=".94737"/>
    <path d="m38.813 6v3.7895h-16.708v-3.7895zm0.63853 32.211v3.7895h-30.903v-3.7895z" fill="#fff" stroke-width=".94737"/>
    <g>
        <path d="m7 4.1111v1.1111h-1.1111v1.1111h-1.1111v16.667h1.1111v1.1111h2.2222v-1.1111h1.1111v-5.5556h1.1111v-1.1111h3.3333v1.1111h1.1111v1.1111h1.1111v4.4444h1.1111v1.1111h2.2222v-1.1111h1.1111v-6.6667h-1.1111v-1.1111h-1.1111v-2.2222h1.1111v-1.1111h1.1111v-5.5556h-1.1111v-1.1111h-1.1111v-1.1111zm3.3333 3.3333h5.5556v1.1111h1.1111v2.2222h-1.1111v1.1111h-5.5556v-1.1111h-1.1111v-2.2222h1.1111z" fill="#fff"/>
    </g>
</svg>
