<?xml version="1.0" encoding="UTF-8"?>
<svg viewBox="0 0 48 48" xmlns="http://www.w3.org/2000/svg">
    <defs>
        <style>.cls-1{fill:#fff;}</style>
    </defs>
    <g data-name="Layer 1">
        <path class="cls-1" d="M19.69,30.92H22V27.35h1.74l2.5,3.53H29L26.27,27a3.56,3.56,0,0,0,2.49-3.44,1.62,1.62,0,0,0,0-.22,3.8,3.8,0,0,0-4.12-3.44H19.69ZM22,22.05h2.33c1.17,0,2,.6,2,1.55s-.8,1.56-2,1.56H22Z"/>
        <path class="cls-1" d="M45.38,29.27,39.83,8.57a.82.82,0,0,0-.14-.26V8.23a.89.89,0,0,0-.33-.18L18.61,2.52a.9.9,0,0,0-.4,0,1,1,0,0,0-.35.2L2.7,17.92a.67.67,0,0,0-.19.31v.11a1.4,1.4,0,0,0,0,.29v.07l5.6,20.76a.69.69,0,0,0,.19.33.84.84,0,0,0,.35.21L29.4,45.5h.23a.71.71,0,0,0,.28-.06H30l.18-.12L45.3,30.17a.94.94,0,0,0,.2-.35v-.06A1,1,0,0,0,45.38,29.27Zm-6.73-1.58L22.29,11.31l16-1.51Zm-.75,1.64L14.62,35.57l3.12-11.65,3.12-11.65,8.52,8.53ZM34.38,8.47,21.05,9.72l-1.39-5.2ZM18,5l1.39,5.2L7.25,15.74Zm1.11,7.19-6,22.37L4.51,18.87ZM5.93,25l6.35,11.48-2.87,1.5ZM17.8,40.69l-6.63-1.77,2.27-1.19,8,4Zm11.45,3L15.81,37l21.77-5.84ZM35,38l5-7.43,2.57-.1Zm5.34-9.13-.25-13.12,3.47,13Z"/>
    </g>
</svg>
