<?xml version="1.0" encoding="UTF-8"?>
<svg version="1.1" viewBox="0 0 48 48" xmlns="http://www.w3.org/2000/svg">
    <g fill="#fff" stroke-width="0">
        <path d="m19.51 3a8.5 8.5 0 0 1 2.486 6 8.5 8.5 0 0 1 -8.5 8.5 8.5 8.5 0 0 1 -6 -2.486v24c0 3.324 2.676 6 6 6s6-2.676 6-6v-6.611l-0.92-1.314 0.0098-8e-3a8.5 8.5 0 0 1 -1.547 -4.869 8.5 8.5 0 0 1 8.5 -8.5 8.5 8.5 0 0 1 6.955 3.631l0.0078-6e-3 4.662 6.66a15 15 0 0 0 3.832 -9.982 15 15 0 0 0 -15 -15z" style="paint-order:markers fill stroke"/>
        <path d="m13.5 3a6 6 0 0 0 -6 6 6 6 0 0 0 6 6 6 6 0 0 0 6 -6 6 6 0 0 0 -6 -6zm12.04 17.2a6 6 0 0 0 -6 6 6 6 0 0 0 1.092 3.439l-0.0078 0.0039 8.975 12.81 0.0059-0.0039a6 6 0 0 0 4.908 2.562 6 6 0 0 0 6 -6 6 6 0 0 0 -1.092 -3.438l0.0059-0.0039-8.973-12.82-0.0059 0.0039a6 6 0 0 0 -4.908 -2.562z" style="paint-order:markers fill stroke"/>
    </g>
</svg>
