<?xml version="1.0" encoding="UTF-8"?>
<svg viewBox="0 0 48 48" xmlns="http://www.w3.org/2000/svg">
    <defs>
        <style>.a{fill:#fff;}</style>
    </defs>
    <path class="a" d="M24,4S12.45,6.09,8.36,6.09V26.62C8.36,36,22.26,44,24,44s15.64-8,15.64-17.38V6.09C35.55,6.09,24,4,24,4ZM34.08,34.85c-.6.48-2.73.84-4.65-1.29-.41-.45-.77-.91-1.13-1.36-.05,1-.1,2.2-.09,2.32s.23.15.35.15c.79,0,.69.89.18.89H25.52c-.55,0-1.14.1-1.14-.34,0-.91,2.3-.42,2.66-.68s.35-2.12.43-3.38a8.16,8.16,0,0,0-3.76-2.95c-2.77-1-3.25-.72-3.13-.32s.64,1,.48,1.76-.33,1.48-.91,1.55c-.54,1-1.73,3.06-1.82,3.2s1.13.13,1.52.14c.79,0,.69,1,.18,1H14.77c-.55,0-1.14.1-1.14-.34,0-.7,3.3-.55,3.66-.81a17.93,17.93,0,0,0,2.17-3.53,3,3,0,0,1-.36-1.31,2.37,2.37,0,0,0-.6-1.68,7.1,7.1,0,0,1-1.64-2.6c-.32-1-.32-2-.68-2.28a4.62,4.62,0,0,1-1.8-4.09c0-3.35,1.41-4.38,1.41-5.06a8.36,8.36,0,0,1,.76-2.93,18.28,18.28,0,0,1,1.14-2.78,2.67,2.67,0,0,1,2.65-1.52,3.56,3.56,0,0,1,2.11.63,17.44,17.44,0,0,1,5.13,0,.22.22,0,0,1,0,.42A10,10,0,0,0,24.89,9.1a10.53,10.53,0,0,0-1.36,1.48c-.06,1.26-.26.78-.26,1.53s4.44,3.36,5.08,5.16a9.69,9.69,0,0,1,.6,3.16c.08.6,1.32,2.12,1.36,2.69s-.48,1.2-.36,1.8.76,1,.88,1.48-.36,1.52,0,2.24,3.13,3,3.25,3.64S34.68,34.36,34.08,34.85Z"/>
</svg>
