<?xml version="1.0" encoding="UTF-8"?>
<svg enable-background="new" version="1.1" viewBox="0 0 48 48" xmlns="http://www.w3.org/2000/svg" xmlns:xlink="http://www.w3.org/1999/xlink">
    <defs>
        <style>.a{fill:#3396cd;}.b{fill:#fff;}</style>
        <clipPath id="clipPath3017">
            <path d="m430.31 715.04h163.69v76.96h-163.69v-76.96z"/>
        </clipPath>
    </defs>
    <g>
        <g transform="matrix(.056421 0 0 -.056421 -23.051 71.353)" fill="#fff">
            <g transform="matrix(6.0463 0 0 6.0463 -2261.9 -3724.7)" fill="#fff">
                <g clip-path="url(#clipPath3017)" fill="#fff">
                    <g transform="translate(466.88 761.87)">
                        <path d="m0 0c0 3.755-3.021 6.779-6.715 6.779h-3.33v-13.498h3.33c3.694 0 6.715 3.026 6.715 6.719m15.148-26.909h-12.224l-9.705 13.468h-3.264v-13.439h-10.773v40.374h15.433c8.897 0 16.159-6.05 16.159-13.494 0-4.54-2.784-8.595-7.021-11.076l11.395-15.833" fill="#fff"/>
                    </g>
                    <g transform="translate(494.18 759.45)">
                        <path d="m0 0c-2.845 0-5.265-3.867-5.265-8.654s2.42-8.659 5.265-8.659c2.911 0 5.327 3.872 5.327 8.659s-2.416 8.654-5.327 8.654m16.582-8.654c0-9.145-7.437-16.468-16.582-16.468-9.142 0-16.524 7.323-16.524 16.468 0 9.138 7.382 16.465 16.524 16.465 9.145 0 16.582-7.327 16.582-16.465" fill="#fff"/>
                    </g>
                    <g transform="translate(536.04 766.59)">
                        <path d="m0 0-12.41-12.408v12.449h-10.771v-31.639h10.771v12.834l12.956-12.834h13.557l-16.464 16.466 13.637 13.632v-18.776c0-6.234 3.749-11.987 13.19-11.987 4.482 0 8.595 2.542 10.594 4.842l4.843-4.177h2.299v31.598h-10.771v-20.458c-1.213-2.117-2.903-3.448-5.515-3.448-2.65 0-3.866 1.571-3.866 6.596v17.31z" fill="#fff"/>
                    </g>
                </g>
            </g>
        </g>
    </g>
</svg>
