<?xml version="1.0" encoding="UTF-8"?>
<svg version="1.1" viewBox="0 0 48 48" xmlns="http://www.w3.org/2000/svg">
    <g fill="#fff">
        <path d="m7.991 28.964c-1.5674-0.01931-1.5863 1.218-1.5863 1.218l0.07753 8.878c0.012792 1.4697 1.227 2.9126 2.7913 2.9076l14.212-0.0452 15.23 0.04848c1.5644 0.0051 2.7785-1.4379 2.7913-2.9076l0.07753-8.878s-0.02209-1.2373-1.5895-1.218c-1.4852 0.01827-1.5314 1.2438-1.5314 1.2438l-0.1357 7.3402c-0.0066 0.3371 0.0813 1.1728-1.3181 1.176l-12.868 0.02263-13.162-0.02585c-1.3995-0.003292-1.3119-0.83888-1.3181-1.176l-0.1357-7.3402s-0.049401-1.2255-1.5346-1.2438z"/>
        <path d="m8.0282 19.575c-1.5674 0.01931-1.5863-1.218-1.5863-1.218l0.07753-8.878c0.01279-1.4697 1.227-2.9126 2.7913-2.9077l14.212 0.04522 15.23-0.048476c1.5644-0.00502 2.7785 1.4379 2.7913 2.9077l0.07753 8.878s-0.02209 1.2373-1.5895 1.218c-1.4852-0.01827-1.5314-1.2438-1.5314-1.2438l-0.13569-7.3402c-0.0066-0.3371 0.0813-1.1728-1.3181-1.176l-12.868-0.022626-13.162 0.02585c-1.3995 0.0032856-1.3119 0.83888-1.3181 1.176l-0.1357 7.3402s-0.049401 1.2255-1.5346 1.2438z"/>
        <path d="m23.263 22.674v0.0034h-16.092c-1.114-8.61e-4 -1.0431 2.9749 0 2.9593h17.504v-0.0034h16.095c1.0431 0.01556 1.114-2.9602 0-2.9593z"/>
    </g>
</svg>
