<?xml version="1.0" encoding="UTF-8"?>
<svg viewBox="0 0 48 48" xmlns="http://www.w3.org/2000/svg">
    <defs>
        <style>.cls-1{fill:#2b2b2b;}.cls-2{fill:#fff;}</style>
    </defs>
    <g data-name="Layer 2">
        <rect class="cls-1" x="-112.04" y="-350.1" width="674.7" height="426.15"/>
        <rect class="cls-1" x="-56.69" y="-350.1" width="674.7" height="426.15"/>
        <rect class="cls-1" x="-112.04" y="-296.7" width="674.7" height="426.15"/>
        <rect class="cls-1" x="-56.69" y="-296.7" width="674.7" height="426.15"/>
        <rect class="cls-1" x="-112.04" y="-405.17" width="674.7" height="426.15"/>
        <rect class="cls-1" x="-56.69" y="-405.17" width="674.7" height="426.15"/>
        <rect class="cls-1" x="-111.2" y="-352.25" width="674.7" height="426.15"/>
    </g>
    <g data-name="Layer 1">
        <path class="cls-2" d="M24,2A22,22,0,1,0,46,24,22,22,0,0,0,24,2ZM8.83,33l8.06-9L8.83,15h5.56l8.06,9-8.06,9Zm27.83,0H25a2.51,2.51,0,0,1,0-5H36.66a2.51,2.51,0,1,1,0,5Z"/>
    </g>
</svg>
