<?xml version="1.0" encoding="UTF-8"?>
<svg viewBox="0 0 48 48" xmlns="http://www.w3.org/2000/svg">
    <defs>
        <style>.a{fill:#fff;}</style>
    </defs>
    <path class="a" d="M42,8H38.46V5h-2V8H11.54V5h-2V8H6a2,2,0,0,0-2,2V38a2,2,0,0,0,2,2H42a2,2,0,0,0,2-2V10A2,2,0,0,0,42,8ZM40,36H8V15H40Z"/>
    <path class="a" d="M18.83,22A8.41,8.41,0,0,0,16,23a8.4,8.4,0,0,0-2.81-1c-1.15,0-3.15.87-3.15,4.29s1.93,6,4.07,6c1.1,0,1.35-.49,1.89-.49s.78.49,1.88.49c2.15,0,4.07-2.58,4.07-6S20,22,18.83,22Z"/>
    <path class="a" d="m15.52 21.45a3.11 3.11 0 0 0 0 0.32 3.16 3.16 0 0 0 0.32 0 3 3 0 0 0 3-3 3.16 3.16 0 0 0 0-0.32h-0.32a3 3 0 0 0-3 3z"/>
    <path class="a" d="M33.05,23.35a3.29,3.29,0,0,0-4.66,0,2.77,2.77,0,0,0-.25.29l1.44,1.44a.41.41,0,0,1,0,.61.39.39,0,0,1-.3.13.4.4,0,0,1-.31-.13l-1.33-1.33A68.83,68.83,0,0,0,24,31.64a.59.59,0,0,0,.78.78c1-.45,2.51-1.12,3.95-1.83l-1.43-1.43a.43.43,0,0,1,0-.61.42.42,0,0,1,.62,0l1.63,1.63A16.63,16.63,0,0,0,33.05,28,3.28,3.28,0,0,0,33.05,23.35Z"/>
    <path class="a" d="M37.93,22.73a2.11,2.11,0,0,0-.19-.23,2.67,2.67,0,0,0-3.55-.22,2.65,2.65,0,0,0-.14-3.56,2.13,2.13,0,0,0-.22-.18,3.17,3.17,0,0,0-.21,4.36A3.11,3.11,0,0,0,37.93,22.73Z"/>
</svg>
