<?xml version="1.0" encoding="UTF-8"?>
<svg data-name="Layer 1" viewBox="0 0 48 48" xmlns="http://www.w3.org/2000/svg">
    <defs>
        <style>.cls-1{fill:#fff;}</style>
    </defs>
    <circle class="cls-1" cx="20.26" cy="32.63" r="1.47"/>
    <polygon class="cls-1" points="27.97 31.81 30 35.19 32.02 31.81 30 28.43"/>
    <path class="cls-1" d="M19.79,11.89A2.1,2.1,0,0,0,18,13a2.08,2.08,0,0,0-1.78-1.08A1.88,1.88,0,0,0,14.3,13.8c0,2.1,1.15,2.42,3.7,4.85,2.55-2.43,3.7-2.75,3.7-4.85A1.88,1.88,0,0,0,19.79,11.89Z"/>
    <polygon class="cls-1" points="16.92 35.04 19.18 35.04 18.05 33.05"/>
    <circle class="cls-1" cx="15.75" cy="32.63" r="1.47"/>
    <path class="cls-1" d="M24,2A22,22,0,1,0,46,24,22,22,0,0,0,24,2Zm-.66,36.81a.73.73,0,0,1-.73.73H13.39a.73.73,0,0,1-.73-.73v-14a.73.73,0,0,1,.73-.73h9.22a.72.72,0,0,1,.73.73Zm0-16.55a.72.72,0,0,1-.73.73H13.39a.73.73,0,0,1-.73-.73v-14a.73.73,0,0,1,.73-.73h9.22a.73.73,0,0,1,.73.73Zm12,16.55a.73.73,0,0,1-.73.73H25.39a.73.73,0,0,1-.73-.73v-14a.72.72,0,0,1,.73-.73h9.22a.73.73,0,0,1,.73.73Zm0-16.55a.73.73,0,0,1-.73.73H25.39a.72.72,0,0,1-.73-.73v-14a.73.73,0,0,1,.73-.73h9.22a.73.73,0,0,1,.73.73Z"/>
    <polygon class="cls-1" points="29.23 18.65 30.87 18.65 30.05 17.21"/>
    <path class="cls-1" d="m30 11.89c-2 1.95-3 2.21-3 3.91a1.52 1.52 0 0 0 1.55 1.55 1.68 1.68 0 0 0 1.45-0.88 1.7 1.7 0 0 0 1.45 0.88 1.52 1.52 0 0 0 1.55-1.55c0-1.7-0.92-1.96-3-3.91z"/>
    <circle class="cls-1" cx="18.05" cy="29.9" r="1.47"/>
</svg>
