<?xml version="1.0" encoding="UTF-8"?>
<svg version="1.1" viewBox="0 0 48 48" xmlns="http://www.w3.org/2000/svg">
    <defs>
        <style>.cls-1{fill:#fff;}</style>
    </defs>
    <path class="cls-1" d="m39.787 36.955a2.3328 2.2325 0 0 1-2.3328 2.2325 2.3328 2.2325 0 0 1-2.3328-2.2325 2.3328 2.2325 0 0 1 2.3328-2.2325 2.3328 2.2325 0 0 1 2.3328 2.2325zm-24.387 0a2.3328 2.2325 0 0 1-2.3328 2.2325 2.3328 2.2325 0 0 1-2.3328-2.2325 2.3328 2.2325 0 0 1 2.3328-2.2325 2.3328 2.2325 0 0 1 2.3328 2.2325zm-10.112-28.034v2.8788h2.8788l2.303 19 31.321-5.7461 0.92121-4.6176-1.7121-8.4365-30.53-0.19989v-2.8788zm8.7121 18.466-2 0.35265-1.4861-13.74 3.4861 0.058874zm5-13.387v12.505l-3 0.49474v-13zm2 12.153v-12.153h3v11.624zm8-12.153v10.742l-3 0.52898v-11.271zm2 10.389v-10.389h3v9.8604zm8-10.389v8.9787l-3 0.52898v-9.5077zm3.7121 19.679v-2.303l-32.242 2.3e-5v2.303z"/>
</svg>
