<?xml version="1.0" encoding="UTF-8"?>
<svg data-name="Layer 1" viewBox="0 0 48 48" xmlns="http://www.w3.org/2000/svg">
    <defs>
        <style>.cls-1{fill:#fff;}</style>
    </defs>
    <path class="cls-1" d="M24,2A22,22,0,1,0,46,24,22,22,0,0,0,24,2Zm-.08,29.59-2.87,3.59a.18.18,0,0,1-.32-.12V30.5a.11.11,0,0,1,.14-.1l3,1.05A.09.09,0,0,1,23.92,31.59Zm6.21-.25a.14.14,0,0,1-.18.1l-8.88-2.8a.34.34,0,0,1-.16-.54l7.55-9.22a0,0,0,0,0-.07-.07l-10.46,9a.37.37,0,0,1-.35.06L10.29,25a.14.14,0,0,1,0-.25L34.06,12.82a.16.16,0,0,1,.23.18Z"/>
</svg>
