<?xml version="1.0" encoding="UTF-8"?>
<svg width="48" height="48" version="1.1" viewBox="0 0 12.7 12.7" xmlns="http://www.w3.org/2000/svg">
    <path d="m10.099 12.692c-0.90358-0.1543-1.5971-0.73681-1.8135-1.5233-0.070233-0.25518-0.084078-0.57828-0.03495-0.81568 0.021785-0.10527 0.041488-0.20411 0.043784-0.21965 0.00374-0.0253-4.1849-2.226-4.2857-2.2518-0.02238-0.00571-0.077564 0.020965-0.12989 0.062789-0.21796 0.17421-0.50938 0.31618-0.84689 0.41258-0.20075 0.057337-0.23498 0.060601-0.62566 0.059659-0.38217-9.208e-4 -0.42918-0.0053983-0.62438-0.059468-0.73314-0.20307-1.2996-0.69633-1.5256-1.3285-0.39324-1.0999 0.28183-2.2463 1.5256-2.5908 0.1952-0.054069 0.24221-0.058546 0.62438-0.059468 0.39068-9.421e-4 0.42491 0.00232 0.62566 0.059659 0.35804 0.10226 0.60598 0.22497 0.87616 0.43362l0.16315 0.12599 2.1137-1.1012c1.1625-0.60566 2.123-1.1045 2.1345-1.1086 0.011443-0.0040917 0.0043204-0.059656-0.015827-0.12348-0.10773-0.34126-0.11094-0.70874-0.0092801-1.0624 0.21261-0.73959 0.8669-1.3082 1.7047-1.4815 0.27454-0.056779 0.73403-0.052155 1.0126 0.010191 0.50158 0.11225 0.96634 0.38559 1.2722 0.74822 0.15858 0.18801 0.33614 0.52345 0.39961 0.75496 0.0696 0.25386 0.07488 0.66671 0.01169 0.91445-0.19296 0.75656-0.81902 1.3385-1.6635 1.5462-0.24404 0.060024-0.80889 0.065655-1.053 0.010498-0.39146-0.088454-0.75815-0.2649-1.0294-0.49533l-0.1563-0.13277-2.1247 1.1049c-1.1686 0.60772-2.1224 1.1165-2.1197 1.1307 0.00274 0.014166 0.02702 0.10232 0.053955 0.19589 0.10164 0.35309 0.082296 0.79612-0.049759 1.1397-0.04196 0.10918-0.044795 0.13417-0.017748 0.15645 0.017703 0.014587 0.966 0.51148 2.1073 1.1042l2.0751 1.0777 0.19205-0.16591c0.30333-0.26205 0.65642-0.43726 1.0691-0.53051 0.2441-0.055157 0.80895-0.049525 1.053 0.0105 0.84449 0.20771 1.4706 0.78961 1.6635 1.5462 0.06319 0.24774 0.05791 0.6606-0.01169 0.91446-0.06347 0.23151-0.24103 0.56695-0.39961 0.75496-0.30334 0.35962-0.7721 0.63675-1.26 0.74492-0.26332 0.05838-0.68214 0.07242-0.92467 0.03101z" fill="#fff" stroke-width=".022411"/>
</svg>
