<?xml version="1.0" encoding="UTF-8"?>
<svg version="1.1" viewBox="0 0 48 48" xmlns="http://www.w3.org/2000/svg">
    <g>
        <path d="m14.626 13.805c-6.7483-0.2233-10.737 5.3096-10.767 10.038-0.029631 4.7287 3.6557 9.5332 8.3263 10.333 3.2612 0.55855 5.7923-0.29631 6.5102-1.0121 0.8156-0.81319 0.30202-2.361-1.1984-1.8659-1.1534 0.38054-2.3978 0.81038-3.7037 0.61708-5.9369-0.87872-7.691-4.329-7.6859-7.9682 0.00506-3.6392 2.2448-7.7381 7.6757-7.8121 5.4955-0.0749 7.5746 3.0098 8.9781 7.4567 1.8137 5.7466 4.4333 10.613 10.819 10.611 6.2746-0.0021 10.503-3.578 10.767-10.038 0.24152-5.9225-3.6535-9.5332-8.3241-10.333-3.2612-0.55856-5.7945 0.29414-6.5124 1.0099-0.8156 0.81319-0.29986 2.361 1.2006 1.8659 1.1534-0.38054 2.3956-0.90196 3.7015-0.70867 5.9369 0.87872 7.5035 4.4227 7.4984 8.0619-0.0052 3.6392-1.9645 7.5928-7.3944 7.7184-5.7835 0.13372-8.0032-3.5525-9.3622-8.3425-1.4402-5.0762-4.3966-9.428-10.528-9.6309z" fill="#fff"/>
    </g>
</svg>
