<?xml version="1.0" encoding="UTF-8" standalone="no"?>
<!-- Created with Inkscape (http://www.inkscape.org/) -->

<svg
   xmlns:dc="http://purl.org/dc/elements/1.1/"
   xmlns:cc="http://creativecommons.org/ns#"
   xmlns:rdf="http://www.w3.org/1999/02/22-rdf-syntax-ns#"
   xmlns:svg="http://www.w3.org/2000/svg"
   xmlns="http://www.w3.org/2000/svg"
   xmlns:sodipodi="http://sodipodi.sourceforge.net/DTD/sodipodi-0.dtd"
   xmlns:inkscape="http://www.inkscape.org/namespaces/inkscape"
   width="48"
   height="48"
   viewBox="0 0 12.7 12.7"
   version="1.1"
   id="svg8"
   inkscape:version="0.92.3 (2405546, 2018-03-11)"
   sodipodi:docname="sharetoclipboard.svg">
  <defs
     id="defs2" />
  <sodipodi:namedview
     id="base"
     pagecolor="#ffffff"
     bordercolor="#666666"
     borderopacity="1.0"
     inkscape:pageopacity="0.0"
     inkscape:pageshadow="2"
     inkscape:zoom="7.9195959"
     inkscape:cx="50.571555"
     inkscape:cy="34.097879"
     inkscape:document-units="mm"
     inkscape:current-layer="svg8"
     showgrid="false"
     units="px"
     inkscape:pagecheckerboard="true"
     inkscape:window-width="1376"
     inkscape:window-height="706"
     inkscape:window-x="2532"
     inkscape:window-y="246"
     inkscape:window-maximized="0" />
  <metadata
     id="metadata5">
    <rdf:RDF>
      <cc:Work
         rdf:about="">
        <dc:format>image/svg+xml</dc:format>
        <dc:type
           rdf:resource="http://purl.org/dc/dcmitype/StillImage" />
        <dc:title />
      </cc:Work>
    </rdf:RDF>
  </metadata>
  <g
     inkscape:label="Layer 1"
     inkscape:groupmode="layer"
     id="layer1"
     transform="translate(-0.10022607,-0.03340869)">
    <path
       style="fill:#ffffff;stroke-width:0.02241067"
       d="M 10.098913,12.691803 C 9.1953349,12.5375 8.5018595,11.954994 8.2853829,11.168471 c -0.070233,-0.255178 -0.084078,-0.578284 -0.03495,-0.815675 0.021785,-0.105269 0.041488,-0.204109 0.043784,-0.219646 0.00374,-0.0253 -4.184851,-2.2260494 -4.285712,-2.2517831 -0.02238,-0.00571 -0.077564,0.020965 -0.1298909,0.062789 C 3.660655,8.1183639 3.3692309,8.2603366 3.0317252,8.3567334 2.8309753,8.4140707 2.7967479,8.4173345 2.4060683,8.4163924 2.0238934,8.4154716 1.976887,8.4109941 1.781686,8.3569248 1.0485454,8.1538503 0.48211995,7.6605986 0.25609525,7.0284181 -0.13714861,5.9285334 0.53792612,4.7820813 1.781686,4.4375689 c 0.195201,-0.054069 0.2422074,-0.058546 0.6243823,-0.059468 0.3906796,-9.421e-4 0.424907,0.00232 0.6256569,0.059659 0.3580384,0.1022613 0.6059802,0.2249695 0.8761629,0.4336196 L 4.0710332,4.9973697 6.1847121,3.8961756 C 7.3472356,3.290519 8.3077534,2.791634 8.3191961,2.7875426 8.3306387,2.7834509 8.3235165,2.7278867 8.3033687,2.6640665 8.195636,2.3228102 8.1924261,1.9553261 8.2940886,1.6016751 8.5066943,0.86208953 9.1609853,0.29347413 9.9987808,0.12020263 c 0.2745372,-0.056779 0.7340272,-0.052155 1.0126052,0.010191 0.501581,0.1122538 0.966337,0.3855885 1.27222,0.7482241 0.158584,0.18800697 0.336138,0.52344827 0.39961,0.75495687 0.0696,0.2538569 0.07488,0.6667142 0.01169,0.9144549 C 12.501942,3.30459 11.875884,3.8864857 11.031392,4.0942001 10.787357,4.1542241 10.222506,4.1598551 9.9784058,4.1046981 9.5869429,4.0162442 9.2202555,3.8398027 8.9489866,3.6093666 L 8.7926856,3.4765929 6.6680248,4.5815343 C 5.4994612,5.1892521 4.5456059,5.6980661 4.5483466,5.712232 c 0.00274,0.014166 0.02702,0.1023156 0.053955,0.1958878 0.1016378,0.3530944 0.082296,0.796118 -0.049759,1.13973 -0.04196,0.1091821 -0.044795,0.1341686 -0.017748,0.1564547 0.017703,0.014587 0.9659999,0.5114838 2.1073273,1.1042148 l 2.0751394,1.077693 0.1920458,-0.165909 c 0.3033347,-0.262052 0.6564206,-0.43726 1.0690977,-0.530508 0.2441002,-0.055157 0.8089512,-0.049525 1.0529862,0.0105 0.844492,0.207714 1.47055,0.78961 1.663514,1.5461707 0.06319,0.247741 0.05791,0.660598 -0.01169,0.914455 -0.06347,0.231508 -0.241026,0.56695 -0.39961,0.754957 -0.303341,0.359622 -0.772103,0.636753 -1.260022,0.744922 -0.263325,0.05838 -0.682144,0.07242 -0.924671,0.03101 z"
       id="path3711"
       inkscape:connector-curvature="0" />
  </g>
</svg>
