<?xml version="1.0" encoding="UTF-8"?>
<svg version="1.1" viewBox="0 0 48 48" xmlns="http://www.w3.org/2000/svg">
    <path d="m24 2c-12.15 0-22 9.8497-22 22s9.8497 22 22 22 22-9.8497 22-22-9.8497-22-22-22zm-0.06445 8.5918c1.0049 5.74e-4 1.6558 0.03915 2.873 0.63281 1.2173 0.59366 4.601 3.9892 5.334 5.2715s0.78776 1.4939 0.78906 1.6367-0.30742 0.6212-0.68555 1.0645l-0.6875 0.80664-1.2148-1.1484-1.2168-1.1465-0.91016 0.73242c-0.88241 0.70988-0.93944 0.72185-1.7246 0.34961-0.73746-0.34963-0.89061-0.34619-1.6895 0.03516l-0.87891 0.41992-0.44727-0.73828-0.44726-0.73633-0.66211 0.61328c-0.73831 0.68533-1.1193 0.74568-2.0391 0.32617-0.48756-0.22238-0.71665-0.2129-1.0176 0.03711-0.4653 0.38657-0.46737 0.38428-0.98242-0.85938l-0.40625-0.98438-1.1211 1.0996c-1.0635 1.0448-1.1396 1.0795-1.5527 0.66602-0.41309-0.41353-0.51954-0.27438 0.31055-1.8672s4.2548-4.978 5.5-5.582 2.3745-0.62919 2.877-0.62891c0.50243 2.88e-4 0-5e-6 0-5e-6zm-3.5777 10.043c0.25605-0.0062 0.4733 0.91944 0.29106 1.1271s-0.34831 0.27125-0.58212 0.05467 0.03501-1.1756 0.29106-1.1818zm6.758 0.05078c0.24941 0.0066 0.50358 0.90888 0.32257 1.1734-0.18101 0.26454-0.46287 0.25133-0.66856 0s0.05909-1.1576 0.34598-1.1734zm3.7045 2.2754 2.3594 3.0391 0.91406-0.51367 0.91602-0.51562c-0.50454 5.7859-3.6531 10.887-8.1641 12.199-1.571 0.41876-4.3919 0.41369-5.9121-0.0098-5.8501-2.2959-8.1696-7.193-7.7852-12.303 0.89659 0.55471 1.6025 0.39336 3.1621-0.7207 0.87353-0.624 1.6431-1.1328 1.7109-1.1328s0.25905 0.42133 0.42383 0.9375c0.31807 0.9964 0.73828 1.6305 0.73828 1.1133 0-0.41755 0.90268-0.37523 1.5879 0.07422 0.53334 0.34983 0.61841 0.32575 1.2891-0.375 0.39459-0.4123 0.84989-0.75 1.0117-0.75s0.6062 0.45198 0.98828 1.0039l0.69531 1.0039 0.82227-0.62891c1.0193-0.77825 1.0472-0.77737 1.8984 0.03906l0.69531 0.66602 0.56641-0.72852c0.31179-0.40119 0.90778-1.1053 1.3242-1.5645z" fill="#fff"/>
</svg>
