<?xml version="1.0" encoding="UTF-8"?>
<svg version="1.1" viewBox="0 0 48 48" xmlns="http://www.w3.org/2000/svg">
    <path d="m24 2a22 22 0 0 0-22 22 22 22 0 0 0 22 22 22 22 0 0 0 22-22 22 22 0 0 0-22-22zm-3.5332 18.084 0.14062 0.45117c-0.36082 0.27679-0.65636 0.69917-0.88867 1.2676-0.22984 0.56841-0.35666 1.2058-0.37891 1.9102l-0.003906 0.31445c0 0.95394 0.17498 1.7825 0.52344 2.4844 0.21006 0.42013 0.4589 0.74908 0.74805 0.98633l-0.14062 0.41797c-0.32869-0.18288-0.64237-0.48795-0.94141-0.91797-0.58324-0.84026-0.875-1.8467-0.875-3.0156 0-0.55853 0.07437-1.0934 0.22266-1.6074 0.15075-0.51404 0.37531-0.98221 0.67188-1.4023s0.60307-0.71568 0.92188-0.88867zm6.9473 0c0.32622 0.18041 0.6356 0.4817 0.92969 0.9043 0.29656 0.4226 0.51825 0.88738 0.66406 1.3965 0.14828 0.5091 0.22266 1.054 0.22266 1.6348 0 0.55111-0.07294 1.0813-0.21875 1.5879-0.14334 0.50416-0.36503 0.96894-0.66406 1.3965-0.29656 0.42754-0.60738 0.7317-0.93359 0.91211l-0.14453-0.41797c0.38059-0.29162 0.68618-0.74453 0.91602-1.3574 0.23231-0.61537 0.35053-1.2981 0.35547-2.0469v-0.11719c0-0.51898-0.05337-1.0024-0.16211-1.4473-0.10874-0.44732-0.2618-0.84777-0.45703-1.2012-0.19277-0.3534-0.41015-0.62846-0.65234-0.82617l0.14453-0.41797zm-3.8633 0.51172c0.29162 0.53134 0.54384 1.1258 0.75391 1.7832l-0.64648 0.28125c-0.17052-0.6302-0.4084-1.2356-0.71484-1.8164l0.60742-0.24805zm-11.783 0.18164h0.65234l2.2539 5.8594h-0.65234l-2.2539-5.8594zm23.746 0h0.58594l-2.25 5.8594h-0.58984l2.2539-5.8594zm-9.5488 0.013672 0.65625 0.20508c-0.22736 1.4087-0.63069 2.5357-1.209 3.3809-0.56347 0.83532-1.4206 1.4913-2.5723 1.9707l-0.44141-0.52148c1.3098-0.49921 2.2385-1.2825 2.7871-2.3477 0.34352-0.66232 0.60383-1.5581 0.7793-2.6875zm-17.305 0.027343h2.4922v0.5293h-2.4922v-0.5293zm28.187 0h2.4922v0.5293h-2.4922v-0.5293zm-15.086 0.21875c0.29903 0.54123 0.55309 1.13 0.76562 1.7676l-0.65234 0.29687c-0.20265-0.68704-0.44431-1.2896-0.72852-1.8086l0.61524-0.25586zm-7.0137 5.1367h3.3945v0.56055h-3.3945v-0.56055zm15.035 0h3.3945v0.56055h-3.3945v-0.56055z" fill="#fff"/>
</svg>
