<?xml version="1.0" encoding="UTF-8"?>
<svg version="1.1" viewBox="0 0 48 48" xmlns="http://www.w3.org/2000/svg">
    <path d="m24 2a22 22 0 0 0-22 22 22 22 0 0 0 22 22 22 22 0 0 0 22-22 22 22 0 0 0-22-22zm0 9a13 13 0 0 1 1.2969 0.064453 13 13 0 0 1 0.037109 0.005859l-6.8379 11.785-4.2812-7.3984a13 13 0 0 1 9.7852-4.457zm2.5059 0.25391a13 13 0 0 1 8.752 6.2461 13 13 0 0 1 0.59375 1.1562 13 13 0 0 1 0.013672 0.033203l-13.627-0.027344 4.2676-7.4082zm-13.037 5.125 6.7891 11.814-8.5488 0.009766a13 13 0 0 1 1.0332-10.703 13 13 0 0 1 0.70312-1.0918 13 13 0 0 1 0.023438-0.029297zm22.822 3.418a13 13 0 0 1-1.0332 10.703 13 13 0 0 1-0.70312 1.0918 13 13 0 0 1-0.023438 0.029297l-6.7891-11.814 8.5488-0.009766zm-6.7871 5.3477 4.2812 7.3984a13 13 0 0 1-9.7852 4.457 13 13 0 0 1-1.2969-0.064453 13 13 0 0 1-0.037109-0.005859l6.8379-11.785zm-17.369 4.1641 13.625 0.029297-4.2656 7.4082a13 13 0 0 1-8.752-6.2461 13 13 0 0 1-0.59375-1.1562 13 13 0 0 1-0.013672-0.035156z" fill="#fff"/>
</svg>
