<?xml version="1.0" encoding="UTF-8"?>
<svg viewBox="0 0 48 48" xmlns="http://www.w3.org/2000/svg">
    <defs>
        <style>.cls-1{fill:#2b2b2b;}.cls-2{fill:#fff;}</style>
    </defs>
    <g data-name="Layer 2">
        <rect class="cls-1" x="-112.04" y="-293.85" width="674.7" height="426.15"/>
        <rect class="cls-1" x="-56.69" y="-293.85" width="674.7" height="426.15"/>
        <rect class="cls-1" x="-112.04" y="-240.44" width="674.7" height="426.15"/>
        <rect class="cls-1" x="-56.69" y="-240.44" width="674.7" height="426.15"/>
        <rect class="cls-1" x="-112.04" y="-348.91" width="674.7" height="426.15"/>
        <rect class="cls-1" x="-56.69" y="-348.91" width="674.7" height="426.15"/>
        <rect class="cls-1" x="-111.2" y="-296" width="674.7" height="426.15"/>
    </g>
    <g data-name="Layer 1">
        <path class="cls-2" d="M24,2A22,22,0,1,0,46,24,22,22,0,0,0,24,2ZM20,35.35a1.83,1.83,0,0,1-2.6,0L8,26l2.6-2.59,8,8.05L37.4,12.7,40,15.3Z"/>
    </g>
</svg>
