<?xml version="1.0" encoding="UTF-8"?>
<svg version="1.1" viewBox="0 0 48 48" xmlns="http://www.w3.org/2000/svg">
    <path d="m24 2c-12.15 0-22 9.8497-22 22s9.8497 22 22 22 22-9.8497 22-22-9.8497-22-22-22zm5 11c0.5-0.5 1 0 1 0l4.5 4.5s0.5 0.5 0 1l-2 2-5.5-5.5zm-3 3 5.5 5.5-1 1-5.5-5.5zm-1.5 1.5 1.5 1.5-10 10h-1l-0.84375 3.6562 0.84375 0.84375 4.5-1 10-10 0.75 0.75-10 10-3.375 0.75h18.125v1h-22v-1l1.5-6.5zm2 2 2 2-10 10-0.0078-0.0078c-0.25313 0.21157-0.57244 0.32768-0.90234 0.32812-0.77884 8.6e-5 -1.4102-0.63131-1.4102-1.4102 4.43e-4 -0.32991 0.11655-0.64921 0.32812-0.90234l0.0039-0.0059c0.05498-0.06527 0.11578-0.12541 0.18164-0.17969z" fill="#fff"/>
</svg>
