<?xml version="1.0" encoding="UTF-8"?>
<svg version="1.1" viewBox="0 0 48 48" xmlns="http://www.w3.org/2000/svg">
    <path d="m23.922 1.8789c-12.15 0-22 9.8497-22 22 0 12.15 9.8497 22 22 22s22-9.8497 22-22-9.8497-22-22-22zm0.07617 7.3418h0.003955c7.6114 5.149e-4 13.783 6.1678 13.789 13.779v8.5039c-0.003173 2.9806-1.9444 5.6126-4.791 6.4961 0 0.554-0.446 1-1 1h-2c-0.554 0-1-0.446-1-1v-13c0-0.554 0.446-1 1-1h2c0.554 0 1 0.446 1 1 0.94596 0.29629 1.8158 0.79555 2.5488 1.4629v-3.4629c-0.0051-2.0092-0.53422-3.9824-1.5352-5.7246l-1.2559 0.89844c3e-6 0-0.81926 0.58547-1.4336-0.4043l-0.0078 0.0098c-1.6857-2.3671-4.4105-3.7746-7.3164-3.7793-2.9059 0.0047-5.6307 1.4122-7.3164 3.7793l-0.0078-0.0098c-0.61433 0.98977-1.4336 0.4043-1.4336 0.4043l-1.2559-0.89844c-1.001 1.7422-1.5301 3.7154-1.5352 5.7246v3.4629c0.733-0.66734 1.6029-1.1666 2.5488-1.4629 0-0.554 0.446-1 1-1h2c0.554 0 1 0.446 1 1v13c0 0.554-0.446 1-1 1h-2c-0.554 0-1-0.446-1-1-2.8466-0.88345-4.7878-3.5155-4.791-6.4961v-8.5039c0.0059-7.6115 6.1776-13.779 13.789-13.779zm0.001955 2.2285c-3.7275 0.0059-7.223 1.8104-9.3867 4.8457l1.2559 0.89648c1.875-2.6275 4.9029-4.1884 8.1309-4.1914 3.2279 3e-3 6.2559 1.5639 8.1309 4.1914l1.2559-0.89648c-2.1637-3.0353-5.6592-4.8398-9.3867-4.8457z" fill="#fff"/>
    <rect x="30.25" y="25.25" width="1.5" height="12.5" rx=".375" fill="#fff" fill-rule="evenodd" stroke-width=".55902"/>
    <rect x="16.25" y="25.25" width="1.5" height="12.5" rx=".375" fill="#fff" fill-rule="evenodd" stroke-width=".55902"/>
</svg>
