<?xml version="1.0" encoding="UTF-8"?>
<svg data-name="Layer 1" viewBox="0 0 48 48" xmlns="http://www.w3.org/2000/svg">
    <defs>
        <style>.cls-1{fill:#fff;}</style>
    </defs>
    <path class="cls-1" d="M38,4H10A2,2,0,0,0,8,6V42a2,2,0,0,0,2,2H38a2,2,0,0,0,2-2V6A2,2,0,0,0,38,4ZM12.5,26.75a3.81,3.81,0,0,1-1-3.05c.13-1,3.45-8,4.12-9.45a.55.55,0,0,1,.49-.32h0a.56.56,0,0,1,.49.33l4.1,9.29a.54.54,0,0,1,0,.22,4.63,4.63,0,0,1-4.63,4.63A4.92,4.92,0,0,1,12.5,26.75Zm18.81,9.43a.54.54,0,0,1-.49.32.64.64,0,0,1-.23,0l-6.48-3-6.49,3a.59.59,0,0,1-.23,0,.54.54,0,0,1-.22-1l6.39-3V13.8l-9.33-1.22a.55.55,0,0,1-.47-.61.56.56,0,0,1,.61-.47L34,14.06a.54.54,0,0,1,.47.61.55.55,0,0,1-.54.47h-.07l-9.19-1.2V32.51l6.4,3A.54.54,0,0,1,31.31,36.18Zm.56-5.68a4.92,4.92,0,0,1-3.65-1.65,3.81,3.81,0,0,1-1-3.05c.13-1,3.45-8,4.12-9.46a.54.54,0,0,1,.49-.31h0a.56.56,0,0,1,.49.33l4.1,9.29a.54.54,0,0,1,0,.22A4.64,4.64,0,0,1,31.87,30.5Z"/>
</svg>
