<?xml version="1.0" encoding="UTF-8"?>
<svg version="1.1" viewBox="0 0 48 48" xmlns="http://www.w3.org/2000/svg">
    <path d="m7 5c-1.108 0-2 0.892-2 2v34c0 1.108 0.892 2 2 2h34c1.108 0 2-0.892 2-2v-34c0-1.108-0.892-2-2-2h-34zm18.238 8.3867 13.137 7.8066-6.3184 3.543a4.5763 4.5763 0 0 0-2.5215-0.76172 4.5763 4.5763 0 0 0-2.5098 0.75 4.6271 4.6271 0 0 0 0.10352-0.95312 4.6271 4.6271 0 0 0-1.9727-3.7871l0.082031-6.5977zm-3.4238 6.8496a4.6271 4.6271 0 0 1 4.627 4.6289 4.6271 4.6271 0 0 1-0.10352 0.95312 4.5763 4.5763 0 0 1 2.5098-0.75 4.5763 4.5763 0 0 1 4.5762 4.5762 4.5763 4.5763 0 0 1-4.5762 4.5762 4.5763 4.5763 0 0 1-0.039062-0.001953h-13.906a4.5763 4.5763 0 0 1-0.054688 0.001953 4.5763 4.5763 0 0 1-4.5762-4.5762 4.5763 4.5763 0 0 1 4.5762-4.5762 4.5763 4.5763 0 0 1 2.4336 0.70703 4.6271 4.6271 0 0 1-0.095703-0.91016 4.6271 4.6271 0 0 1 4.6289-4.6289z" fill="#fff"/>
</svg>
