<?xml version="1.0" encoding="UTF-8"?>
<svg version="1.1" viewBox="0 0 48 48" xmlns="http://www.w3.org/2000/svg">
    <path d="m28.469 2.0703c-3.7274-0.02373-7.0624 0.61179-12.408 2.3672-8.3861 2.7537-12.735 6.6175-13.811 12.27-0.68046 3.5752 0.032083 8.5912 2.1211 14.93 2.9211 8.8631 6.4722 12.934 12.354 14.156 1.4636 0.30418 6.2804 0.07551 8.5605-0.40625 4.6911-0.99114 10.265-2.9432 13.143-4.6016 6.0106-3.4639 8.261-8.1421 7.3926-15.365-0.26648-2.2166-1.4551-7.0536-2.4141-9.8262-2.5633-7.4107-5.8281-11.418-10.557-12.959-1.445-0.47086-2.0555-0.54965-4.3809-0.56445zm-2.8926 7.9219a2.2407 2.2407 0 0 1 2.2168 1.5625l0.9707 2.916 2.918-0.9707a2.2414 2.2414 0 0 1 1.4141 4.2539l-2.916 0.9707 1.9238 5.7812 2.918-0.9707a2.2412 2.2412 0 0 1 1.4141 4.252l-2.916 0.97266 0.9707 2.916a2.2407 2.2407 0 1 1-4.252 1.4141l-0.9707-2.916-5.7832 1.9258 0.9707 2.916a2.2407 2.2407 0 1 1-4.252 1.4141l-0.9707-2.916-2.918 0.9707a2.2412 2.2412 0 0 1-1.416-4.252l2.9199-0.97266-1.9258-5.7812-2.918 0.9707a2.2412 2.2412 0 0 1-1.416-4.252l2.9199-0.97266-0.9707-2.916a2.2407 2.2407 0 0 1 1.373-2.8516 2.2407 2.2407 0 0 1 2.877 1.4375l0.9707 2.916 5.7832-1.9258-0.9707-2.916a2.2407 2.2407 0 0 1 1.377-2.8516 2.2407 2.2407 0 0 1 0.6582-0.125zm0.35156 10.146-5.7832 1.9258 1.9238 5.7812 5.7832-1.9258-1.9238-5.7812z" fill="#fff" stroke-width=".20785"/>
</svg>
