<?xml version="1.0" encoding="UTF-8"?>
<svg viewBox="0 0 48 48" xmlns="http://www.w3.org/2000/svg">
    <defs>
        <style>.cls-1{fill:#fff;}</style>
    </defs>
    <g data-name="Layer 1">
        <path class="cls-1" d="M7,5A2,2,0,0,0,5,7V41a2,2,0,0,0,2,2h8.44a19.49,19.49,0,0,1-.36-5.5,15.13,15.13,0,0,1,6.48-11.12,23,23,0,0,1,4.53-2.49c.43-.18.86-.36,1.29-.51l1.29-.44h0a8.09,8.09,0,1,1,1,5.09l-.15,0-1.07.35c-.39.15-.78.32-1.17.49a16.9,16.9,0,0,0-2.78,1.58,9.6,9.6,0,0,0-4.39,7.43A15.73,15.73,0,0,0,20.64,43H41a2,2,0,0,0,2-2V32.56a10.6,10.6,0,0,0,0-17.12V7a2,2,0,0,0-2-2Z"/>
    </g>
</svg>
