<?xml version="1.0" encoding="UTF-8"?>
<svg version="1.1" viewBox="0 0 48 48" xmlns="http://www.w3.org/2000/svg">
    <path d="m19.795 3c-0.525 0-0.95506 0.38931-1.0391 0.88281l-0.78711 5.5645c-1.2693 0.52942-2.4626 1.2249-3.5488 2.0684l-5.2305-2.1094c-0.47996-0.18312-1.0222 0.0075759-1.2812 0.45117l-4.1992 7.2754c-0.2625 0.4515-0.14705 1.0183 0.25195 1.3438l4.4316 3.4766c-0.091487 0.67878-0.14202 1.362-0.14844 2.0469 0 0.693 0.064438 1.3768 0.14844 2.0488l-4.4316 3.4746c-0.399 0.315-0.51445 0.88175-0.25195 1.3438l4.1992 7.2773c0.2625 0.4515 0.80875 0.64017 1.2812 0.45117l5.2305-2.1113c1.0815 0.8295 2.2678 1.5329 3.5488 2.0684l0.78711 5.5664c0.084 0.4935 0.51406 0.88086 1.0391 0.88086h8.4004c0.525 0 0.95506-0.38736 1.0391-0.88086l0.78711-5.5664c1.2693-0.52942 2.4626-1.2249 3.5488-2.0684l5.2305 2.1113c0.47996 0.18312 1.0202-0.0076 1.2793-0.45117l4.2012-7.2773c0.2625-0.4515 0.14705-1.0183-0.25195-1.3438l-4.4316-3.4746c0.084-0.672 0.14648-1.3558 0.14648-2.0488s-0.06249-1.3749-0.14648-2.0469l4.4414-3.4766c0.399-0.315 0.51445-0.88175 0.25195-1.3438l-4.1992-7.2754c-0.2625-0.4515-0.80875-0.64017-1.2812-0.45117l-5.2285 2.1094c-1.0815-0.8295-2.2678-1.5329-3.5488-2.0684l-0.78906-5.5645c-0.0945-0.4935-0.52383-0.88281-1.0488-0.88281h-8.4004zm-0.22461 9.998h3.5723v2.5586h1.7148v-2.5586h3.5723v2.5723c2.185 0.078951 3.9225 1.8157 4.0039 4h2.5664v3.5742h-2.5508v1.7109h2.5508v3.5742h-2.5859c-0.18136 2.0853-1.8698 3.7166-3.9844 3.793v2.7793h-3.5723v-2.7656h-1.7148v2.7656h-3.5723v-2.8027c-2.011-0.17824-3.5887-1.7575-3.7637-3.7695h-2.8066v-3.5742h2.7695v-1.7109h-2.7695v-3.5742h2.7871c0.07868-2.11 1.7028-3.7922 3.7832-3.9766v-2.5957zm0.73242 5.3359c-1.0201 0-1.8438 0.81974-1.8438 1.8398v7.4629c0 1.0201 0.82365 1.8418 1.8438 1.8418h7.3945c1.0201 0 1.8418-0.82169 1.8418-1.8418v-7.4629c0-1.0201-0.8217-1.8398-1.8418-1.8398h-7.3945zm1.3223 1.6445h4.75c0.9007 0 1.625 0.7243 1.625 1.625v4.791c0 0.9007-0.7243 1.627-1.625 1.627h-4.75c-0.9007 0-1.625-0.72626-1.625-1.627v-4.791c0-0.9007 0.7243-1.625 1.625-1.625z" fill="#fff" stroke-width="1.05"/>
</svg>
