<?xml version="1.0" encoding="UTF-8"?>
<svg viewBox="0 0 48 48" xmlns="http://www.w3.org/2000/svg">
    <defs>
        <style>.cls-1{fill:#fff;}</style>
    </defs>
    <g data-name="Layer 1">
        <path class="cls-1" d="M15.37,5.74a1,1,0,0,0-1.35,0C7.53,11.36,4,17.6,4,24H4c0,6.38,3.5,12.65,10,18.29a1,1,0,0,0,1.35,0c6.52-5.64,10-11.91,10-18.3S21.87,11.36,15.37,5.74Z"/>
        <path class="cls-1" d="M42,25.59H27.82a24.46,24.46,0,0,1-8.91,16.92H42a2,2,0,0,0,2-2V27.63A2,2,0,0,0,42,25.59Z"/>
    </g>
</svg>
