<?xml version="1.0" encoding="UTF-8"?>
<svg data-name="Layer 1" viewBox="0 0 48 48" xmlns="http://www.w3.org/2000/svg">
    <defs>
        <style>.cls-1{fill:#fff;}</style>
    </defs>
    <path class="cls-1" d="M30.6,34.72H29.52L29.28,34h-.75l1.12,3.06h.76L31.55,34h-.72Zm-.55,1.69-.37-1.16h.76Z"/>
    <path class="cls-1" d="m26.59 17.44a4.06 4.06 0 0 0-3.47 2.1 4.06 4.06 0 0 0-3.47-2.1 3.65 3.65 0 0 0-3.71 3.71c0 4.09 2.22 4.71 7.18 9.41 4.95-4.7 7.18-5.32 7.18-9.41a3.65 3.65 0 0 0-3.71-3.71z"/>
    <path class="cls-1" d="M17,14h.76l-1.12-3.06h-.76L14.68,14h.73l.23-.71h1.08ZM15.8,12.75l.38-1.16.37,1.16Z"/>
    <path class="cls-1" d="M24,2A22,22,0,1,0,46,24,22,22,0,0,0,24,2Zm9.48,35.58A1.41,1.41,0,0,1,32.07,39H14.17a1.41,1.41,0,0,1-1.41-1.42V10.42A1.41,1.41,0,0,1,14.17,9h17.9a1.41,1.41,0,0,1,1.41,1.42Z"/>
</svg>
