<svg xmlns="http://www.w3.org/2000/svg" width="48" height="48" viewBox="0 0 48 48">
    <path d="M4.604 6.983a2.437 2.437 0 0 0-2.442 2.442v7.053h43.676v-3.053a2.436 2.436 0 0 0-2.442-2.44H32.41c-2.198-.12-3.832-.59-3.832-.59S21.02 8.538 18.372 7.662c-2.04-.674-2.372-.677-2.677-.677H13.22zM2.162 20.468v18.108a2.437 2.437 0 0 0 2.442 2.44h38.792a2.437 2.437 0 0 0 2.44-2.44V20.467zm30.846 2.44a5.595 5.595 0 0 1 4.85 2.82l-2.562 2.56a5.595 5.595 0 0 1 2.56 4.694 5.595 5.595 0 0 1-5.594 5.595 5.595 5.595 0 0 1-4.85-2.82l2.562-2.56a5.595 5.595 0 0 1-2.562-4.695 5.595 5.595 0 0 1 5.595-5.595z" fill="#fff"/>
</svg>
