<?xml version="1.0" encoding="UTF-8"?>
<svg version="1.1" viewBox="0 0 48 48" xmlns="http://www.w3.org/2000/svg">
    <path d="m24.004 5.0918c-10.503 0-19.348 8.4395-19.019 18.838.12534 3.962 1.7571 7.7199 2.7161 10.766l2.2985 7.2998c.21695.68898.94856 1.0686 1.6375.85165l5.6229-1.7723c.68898-.21696 1.0686-.94527.85165-1.6342l-2.2985-7.2998c-.21696-.68898-.94527-1.0686-1.6342-.85165l-3.8538 1.2101c-1.6379-2.5637-2.5079-5.5351-2.5089-8.5691.0008283-8.855 7.2481-16.033 16.188-16.033s16.187 7.1783 16.188 16.033c-.00062 3.0034-.85284 5.9464-2.4596 8.4935l-3.8735-1.2199c-.68898-.21696-1.4206.16267-1.6375.85165l-2.2985 7.2998c-.21696.68898.16267 1.4173.85165 1.6342l5.6261 1.7723c.68898.21696 1.4173-.16267 1.6342-.85165l2.2985-7.2998c1.1133-3.5357 2.6812-7.3077 2.6898-10.68.026432-10.404-8.5156-18.838-19.019-18.838z" fill="#fff"/>
</svg>
