<?xml version="1.0" encoding="UTF-8"?>
<svg version="1.1" viewBox="0 0 48 48" xmlns="http://www.w3.org/2000/svg">
    <path d="m13.861 31.096c-0.9557 0.09602-2.0169 1.1535-2.4609 1.8359-1.2546 1.9286-1.1398 3.2503-1.6426 5.291 1.9193-0.0886 4.6262-0.7277 6.0645-2.0508 0.86388-0.7954 1.5313-1.7903 0.94141-2.9297-1.2343 0.77205-2.4247 1.7573-3.8926 2.0234l0.75781-1.7129 0.92969-1.5566c0.19299-0.40473 0.23079-0.75906-0.29688-0.87891-0.13017-0.02938-0.26386-0.0352-0.40039-0.02148zm15.323-20.16c-0.90818 0.1585-2.4855 1.3593-3.082 1.7598-2.2664 1.5208-4.6509 3.6911-6.4238 5.7598-0.70825 0.82654-1.746 1.9577-2.1367 2.957-1.2561-0.45763-2.4428-0.36049-3.7363-0.14258-3.4104 0.57439-7.2503 2.8684-8.248 6.3691l4.0469-0.72852c1.4881-0.1105 3.0847 0.50905 4.5137 0.72852l-0.4668 1.2441 2.334 1.4023c1.8554-2.4516 5.3081-5.3555 8.25-6.3828-1.0678 2.4204-1.5271 3.2368-3.2891 5.293l-1.6914 1.8613c-0.22262 0.21479-0.85205 0.7411-0.97656 0.9668l1.1641 2.2539s0.87825-0.12706 1.2129-0.25781c0.24128 1.5612 0.77152 2.3321 0.7793 4.2031 0.0076 1.6063-0.28274 2.8417-0.7793 4.3594 1.2126-0.34713 2.223-1.1537 3.1133-2.0254 1.8772-1.8414 3.2384-4.4856 3.2695-7.1582 0.01102-0.97598 0.07386-2.0095-0.15625-2.959 1.0102-0.53236 1.9431-1.3994 2.8008-2.1543 2.0858-1.8367 3.945-3.9416 5.5-6.25 0.41715-0.61794 1.9131-2.7689 1.8633-3.4258-0.0327-0.42492-0.47211-0.92505-0.73828-1.2441l-2.4219-2.6465-2.8008-2.6387c-0.34867-0.30973-1.1286-1.034-1.5566-1.1445-0.09767-0.02529-0.21401-0.02264-0.34375 0zm-0.22266 5.0059c1.7259 0 3.125 1.3991 3.125 3.125s-1.3991 3.125-3.125 3.125-3.125-1.3991-3.125-3.125 1.3991-3.125 3.125-3.125zm8.4431-7.7519c-0.4265 0.025489-0.85749 0.1041-1.1836 0.15625-1.9161 0.32688-4.0351 0.96591-5.7598 1.8594l2.9434 2.8672 4.2168 4.4492c0.99309-1.2546 1.8818-4.8985 2.0234-6.5391 0.10273-1.1768 0.18185-2.0016-1.0898-2.6367-0.30274-0.1541-0.72389-0.18174-1.1504-0.15625z" fill="#fff"/>
</svg>
