<?xml version="1.0" encoding="UTF-8"?>
<svg version="1.1" viewBox="0 0 48 48" xmlns="http://www.w3.org/2000/svg">
    <path d="m24 2a22 22 0 0 0-22 22 22 22 0 0 0 22 22 22 22 0 0 0 22-22 22 22 0 0 0-22-22zm0.025391 2.2598h0.001953c0.36914 0.0043079 0.73982 0.039328 0.96875 0.10547 1.3767 0.39777 2.4393 1.53 2.7246 2.9043 0.0738 0.35538 0.086706 0.53884 0.066406 0.95508-0.03102 0.63242-0.10688 0.92264-0.38672 1.498-0.45892 0.94359-1.2195 1.6064-2.2383 1.9512-0.38641 0.13077-0.48246 0.14603-1.0723 0.16016-0.57333 0.013723-0.69646 0.003193-1.0547-0.091796-1.3379-0.35479-2.3673-1.3771-2.7559-2.7363-0.14392-0.50657-0.14571-1.4116-0.001953-1.9141 0.20005-0.69915 0.58737-1.3269 1.1367-1.8438 0.48374-0.45513 0.95534-0.71296 1.6523-0.9043 0.22227-0.061029 0.58986-0.08806 0.95898-0.083984zm-0.035157 9.916c7.2284-7.1e-4 8.1497 0.007163 8.457 0.070313 1.4656 0.30122 2.6369 1.4935 2.9375 2.9922 0.0552 0.27589 0.070546 0.57461 0.060546 1.2988l-0.013671 0.93945-8.7695 0.021485-8.7695 0.023437v1.1191 1.1172l8.7695 0.023438 8.7695 0.021484v4.5195 4.5176l-0.10156 0.34961c-0.38055 1.3129-1.3323 2.2752-2.6504 2.6797l-0.33594 0.10352-8.2305 0.00586c-4.5278 0.00308-8.2842-0.003142-8.3457-0.013672-1.2054-0.20641-2.2403-0.9591-2.7949-2.0312-0.35922-0.69441-0.40202-0.92892-0.40234-2.166l-0.001953-1.0742 8.748-0.023437 8.7461-0.021484v-1.1191-1.1172l-8.7461-0.023437-8.748-0.021484-0.011718-4.3848c-0.01075-3.8684-0.004427-4.4284 0.058593-4.7441 0.2993-1.4999 1.4717-2.6818 2.9727-3 0.24231-0.05142 1.6695-0.061852 8.4023-0.0625z" fill="#fff"/>
</svg>
