<?xml version="1.0" encoding="UTF-8"?>
<svg viewBox="0 0 48 48" xmlns="http://www.w3.org/2000/svg">
    <defs>
        <style>.a{fill:#fff;}</style>
    </defs>
    <path class="a" d="M38.32,4H21.21a3,3,0,0,0-3,3v.29a3.56,3.56,0,0,0-3.56,3.55v3.71c0,2.9-1.54,5.45-3.33,8.42C9.16,26.54,6.7,30.62,6.7,36.18c0,3.75,2.42,5.45,4.67,5.45s4.79-1.87,4.79-5.45V17.78h2.07V44H41.3V7A3,3,0,0,0,38.32,4ZM11.37,40.14c-1.58,0-3.18-1.22-3.18-4,0-5.15,2.25-8.86,4.42-12.46.63-1,1.25-2.07,1.78-3.1a.15.15,0,0,1,.28.07V36.18C14.67,38.9,13,40.14,11.37,40.14Zm26-17.61H22V8H37.37Z"/>
    <path class="a" d="M30.65,20.3a5,5,0,0,0,3.56-1.47l-.8-.79a3.86,3.86,0,0,1-2.76,1.14,3.9,3.9,0,0,1-3.44-2.07h3.55V16h-4a3.74,3.74,0,0,1,0-1.44h4V13.43H27.21a3.9,3.9,0,0,1,3.44-2.07,3.86,3.86,0,0,1,2.76,1.14l.8-.79A5,5,0,0,0,26,13.43H24.19v1.12h1.5a5.66,5.66,0,0,0-.07.72,5.66,5.66,0,0,0,.07.72h-1.5v1.12H26A5,5,0,0,0,30.65,20.3Z"/>
</svg>
