<?xml version="1.0" encoding="UTF-8"?>
<svg version="1.1" viewBox="0 0 48 48" xmlns="http://www.w3.org/2000/svg">
    <path d="M7 5c-1.108 0-2 .892-2 2v34c0 1.108.892 2 2 2h34c1.108 0 2-.892 2-2V7c0-1.108-.892-2-2-2H7zm1 3h32v32H8V8z" fill="#fff"/>
    <path d="M6.438 24.488v4h13.52v-4zM29.746 24.488v4H41.56v-4zM22 6.438v15.268h4V6.437z" fill="#fff"/>
    <path d="M16.917 19.405V33.57h14.166V19.407H18.022zm4 4h6.166v6.166h-6.166zM5 7.69h4V40.31H5zM39 7.69h4V40.31h-4z" fill="#fff"/>
    <path d="M39.636 5v4H7.013V5zM40.31 39v4H7.69v-4z" fill="#fff"/>
    <rect x="21" y="36" width="4" height="2" fill="#fff"/>
    <rect x="23" y="33" width="2" height="3" fill="#fff"/>
    <rect x="13" y="20" width="4" height="2" fill="#fff"/>
    <rect x="11" y="18" width="2" height="2" fill="#fff"/>
    <rect x="9" y="14" width="2" height="4" fill="#fff"/>
    <rect x="11" y="14" width="4" height="2" fill="#fff"/>
    <rect x="15" y="16" width="2" height="2" fill="#fff"/>
    <rect x="17" y="18" width="2" height="2" fill="#fff"/>
    <rect x="31" y="20" width="2" height="2" fill="#fff"/>
    <rect x="33" y="18" width="2" height="2" fill="#fff"/>
    <rect x="35" y="14" width="2" height="4" fill="#fff"/>
    <rect x="33" y="12" width="2" height="2" fill="#fff"/>
    <rect x="31" y="14" width="2" height="2" fill="#fff"/>
    <rect x="29" y="16" width="2.083" height="3.407" fill="#fff"/>
    <rect x="27" y="18" width="2" height="2" fill="#fff"/>
</svg>
