<?xml version="1.0" encoding="UTF-8"?>
<svg data-name="Layer 1" viewBox="0 0 48 48" xmlns="http://www.w3.org/2000/svg">
    <defs>
        <style>.cls-1{fill:#fff;}</style>
    </defs>
    <path class="cls-1" d="m31.5 20.33h-15a1.07 1.07 0 0 0 0 2.14h15a1.07 1.07 0 0 0 0-2.14z"/>
    <path class="cls-1" d="M29,24.61H16.5a1.08,1.08,0,0,0,0,2.15H29a1.08,1.08,0,0,0,0-2.15Z"/>
    <path class="cls-1" d="m31.5 28.9h-15a1.07 1.07 0 0 0 0 2.14h15a1.07 1.07 0 0 0 0-2.14z"/>
    <path class="cls-1" d="M24,33.18H16.5a1.08,1.08,0,0,0,0,2.15H24a1.08,1.08,0,0,0,0-2.15Z"/>
    <path class="cls-1" d="M24,2A22,22,0,1,0,46,24,22,22,0,0,0,24,2ZM36.86,36.44a2.14,2.14,0,0,1-2.15,2.14H13.29a2.14,2.14,0,0,1-2.15-2.14v-19a.4.4,0,0,1,.4-.4H36.46a.4.4,0,0,1,.4.4Zm0-21.15a.4.4,0,0,1-.4.4H11.54a.4.4,0,0,1-.4-.4V12.86a2.14,2.14,0,0,1,2.15-2.14h.81a1.33,1.33,0,0,1,2.66,0H31.24a1.33,1.33,0,0,1,2.66,0h.81a2.14,2.14,0,0,1,2.15,2.14Z"/>
</svg>
