<?xml version="1.0" encoding="UTF-8"?>
<svg data-name="Layer 1" viewBox="0 0 48 48" xmlns="http://www.w3.org/2000/svg">
    <defs>
        <style>.cls-1{fill:#fff;}</style>
    </defs>
    <path class="cls-1" d="M24,2A22,22,0,1,0,46,24,22,22,0,0,0,24,2Zm6.85,23.89H23.49a1.89,1.89,0,1,1,0-3.78h7.36c1,0-.29.84-.29,1.89S31.9,25.89,30.85,25.89Zm3.92,9.94A1.89,1.89,0,0,1,32.22,33,12.21,12.21,0,1,0,24,36.21a2.24,2.24,0,1,0,0-4.47,7.9,7.9,0,0,1,0-15.8,1.9,1.9,0,0,1,0,3.79A4.11,4.11,0,0,0,24,28,6,6,0,1,1,24,40a16,16,0,1,1,10.77-4.17Z"/>
</svg>
