<?xml version="1.0" encoding="UTF-8"?>
<svg version="1.1" viewBox="0 0 48 48" xmlns="http://www.w3.org/2000/svg">
    <g fill="#fff">
        <path d="m24 2a22 22 0 0 0 -21.96 20.8l10.65 3.877a7.25 7.25 0 0 1 4.195 -1.424l5.152-7.639a9 9 0 0 1 8.955 -8.115 9 9 0 0 1 9 9 9 9 0 0 1 -8.098 8.945l-7.658 5.166a7.25 7.25 0 0 1 -7.244 7.139 7.25 7.25 0 0 1 -7.041 -5.557l-6.492-2.363a22 22 0 0 0 20.53 14.17 22 22 0 0 0 22 -22 22 22 0 0 0 -22 -22z"/>
        <path d="m31 11.5a7 7 0 0 0 -7 7 7 7 0 0 0 0 0.1348l-6.109 8.443a5.5 5.5 0 0 0 -0.8906 -0.07812 5.5 5.5 0 0 0 -2.18 0.4512l3.547 1.291-2e-3 0.0039a4 4 0 0 1 2.635 3.754 4 4 0 0 1 -4 4 4 4 0 0 1 -1.365 -0.2461l-2e-3 0.0039-3.541-1.289a5.5 5.5 0 0 0 4.908 3.031 5.5 5.5 0 0 0 5.5 -5.5 5.5 5.5 0 0 0 -0.07422 -0.8926l8.441-6.113a7 7 0 0 0 0.1328 0.005859 7 7 0 0 0 7 -7 7 7 0 0 0 -7 -7zm0 2.5a4.5 4.5 0 0 1 4.5 4.5 4.5 4.5 0 0 1 -4.5 4.5 4.5 4.5 0 0 1 -4.5 -4.5 4.5 4.5 0 0 1 4.5 -4.5z" fill-rule="evenodd" stroke-width="0"/>
        <path d="m2.014 24.38a22 22 0 0 0 0.8281 5.623l13.3 4.842 2e-3 -0.0039a2.5 2.5 0 0 0 0.8535 0.1543 2.5 2.5 0 0 0 2.5 -2.5 2.5 2.5 0 0 0 -1.658 -2.352v-2e-3z" fill-rule="evenodd" stroke-width="0"/>
    </g>
</svg>
