<?xml version="1.0" encoding="UTF-8"?>
<svg version="1.1" viewBox="0 0 48 48" xmlns="http://www.w3.org/2000/svg">
    <path d="m6.7449 4.8983c-1.112 0-2.0072 0.89522-2.0072 2.0072v34.122c0 1.112 0.89523 2.0072 2.0072 2.0072h34.122c1.112 0 2.0072-0.89522 2.0072-2.0072v-34.122c0-1.112-0.89522-2.0072-2.0072-2.0072zm1.0171 0.53752 32.499 0.058941c2.3942 0.063782 2.1784 1.6485 2.1784 1.6485l-0.11774 4.239v23.727c-3.0419 1.7662-4.9651 2.4726-8.2425 2.4726-2.1587 0.13738-4.3175-0.4317-7.3594-1.8839l-0.23548-1.0008-0.64763 0.94204-0.35322-1.001-0.17668 0.70657 0.35321 1.0008 0.64763-0.94204 0.23548 1.001c3.0419 1.4522 5.2006 2.0213 7.3594 1.8839 3.2774 0 5.2006-0.70653 8.2425-2.4728l0.11902 4.7344c0 1.0804-0.86974 1.9501-1.9501 1.9501h-33.152c-1.0804 0-1.9502-0.86974-1.9502-1.9501l0.13611-12.918 0.58869-1.7662 0.94204 2.5904 0.14092-0.80494-0.90628-2.492-0.58869 1.7662-0.058796-19.605c0.078501-1.938 2.2961-1.8841 2.2961-1.8841zm-0.74233 22.215 0.035758 0.09851 0.26954-1.5405-0.034063-0.10798zm0.3053-1.442 0.31915 1.0106 0.52989-1.0008 0.23548 1.1186 0.41215 0.58883-0.23548 0.35322 0.47095 0.23547v0.70643l0.47095-0.9419 0.23562 0.11774-0.13456-0.67279-0.39533 0.79052v-0.70657l-0.47095-0.23548 0.23548-0.35321-0.41215-0.58869-0.23548-1.1187-0.52989 1.001-0.35321-1.1187zm2.3042 1.5153 0.075763-0.15152 0.23548 0.11774-0.17343-0.86657-0.17993 0.69003zm0.13781-0.90034 0.17328-0.66417 0.23548 0.70657 0.30798-0.10261 0.22205-0.7217-0.35321 0.11774-0.23562-0.70642-0.35321 1.3541zm0.71675-0.06021-0.01343 0.04367 0.04226-0.0052 0.01653-0.05357zm0.02884 0.03846-0.21908 0.7118 0.47109-0.05894 0.17668-0.70643zm0.25201 0.65286-0.17668 0.70657 0.29442 0.0588 0.05879 0.8243 0.64763-1.8839 0.05894 0.82416 0.41215 0.17668-0.23548 0.47095 0.29427 0.11774 0.05894 0.52989 0.23548 0.23548 0.12622-0.75703-0.18502-0.18502-0.05894-0.52975-0.29427-0.11774 0.23548-0.47109-0.41215-0.17654-0.0588-0.82431-0.64763 1.8839-0.05894-0.82416zm1.7747 1.3036 0.05046 0.05061 0.09894-0.5935-0.04014-0.11307zm0.1494-0.5429 0.60749 1.7121 0.52989-1.2363 0.11774 1.0008 0.23548-0.41215 0.17668 0.88311 0.1371-0.90445-0.1371-0.68523-0.23548 0.41215-0.11774-1.0008-0.52989 1.2363-0.64763-1.825zm1.8044 1.0431 0.03958 0.19802 0.16014-1.0564-0.0424-0.18007zm0.19972-0.85837 0.42855 1.8218 0.41215-0.8243 0.35321 1.5897 0.16381-0.76438-0.34035-1.5317-0.41215 0.82416-0.47095-2.0017zm1.3577 1.8227 0.01286 0.05781 0.01456-0.06813-0.01456-0.04961zm0.02742-0.01033 0.27972 0.95123 0.11774 0.4711 0.58883-0.4711v0.35336l-0.11774 0.41201 0.29427 0.29442 0.35336-0.76537 0.35321 0.76537 0.23548-0.29442 0.17668 0.4711 0.12608-0.84127-0.12608-0.33625-0.23548 0.29441-0.35321-0.76537-0.35321 0.76537-0.29442-0.29441 0.11774-0.41215v-0.35321l-0.58869 0.47095-0.11774-0.47095-0.29442-1.0008zm2.4076 1.3464 0.05061 0.1347 0.05428-0.36198-0.05442-0.10898zm0.10488-0.22728 0.35774 0.71533 0.35321-0.76551 0.11774 1.7663 0.52989-1.1187 0.41215 0.58883 0.23548-0.23548v0.76537l0.23548-0.29441 0.29441 0.94204 0.29442-0.58883 0.23547 0.47109 0.17668-0.41215 0.29427 0.8831 0.17668-0.11774 0.47095 0.94204 0.23561-0.29441 0.29428 0.58869 0.29441-0.29428 0.23548 0.47095 0.58884-0.47095-0.11774 0.88311 0.82417 0.29427 0.17668-0.70642-0.82417-0.29441 0.11774-0.88311-0.58883 0.47095-0.23548-0.47095-0.29427 0.29442-0.29441-0.58883-0.23548 0.29441-0.47109-0.94204-0.17654 0.11774-0.29442-0.88311-0.17667 0.41215-0.23548-0.47095-0.29442 0.58869-0.29427-0.94204-0.23548 0.29441v-0.76537l-0.23562 0.23548-0.41201-0.58869-0.52989 1.1186-0.11774-1.7662-0.35335 0.76537-0.41201-0.8243zm16.49-22.343a7.832 8.1496 42.937 0 1 0.97682 1.6304 7.832 8.1496 42.937 0 1-4.1921 10.668 7.832 8.1496 42.937 0 1-5.7984 0.41116 7.8005 7.8005 0 0 0 4.6859 1.5764 7.8005 7.8005 0 0 0 7.8007-7.8005 7.8005 7.8005 0 0 0-3.4729-6.4852zm-21.725 0.56819a0.41212 0.41212 0 0 0-0.41215 0.41215 0.41212 0.41212 0 0 0 0.41215 0.41215 0.41212 0.41212 0 0 0 0.41215-0.41215 0.41212 0.41212 0 0 0-0.41215-0.41215zm2.7083 1.7074a0.7065 0.7065 0 0 0-0.70643 0.70657 0.7065 0.7065 0 0 0 0.70643 0.70642 0.7065 0.7065 0 0 0 0.70657-0.70642 0.7065 0.7065 0 0 0-0.70657-0.70657zm-6.5645 0.94204a0.85369 0.85369 0 0 0-0.8537 0.8537 0.85369 0.85369 0 0 0 0.8537 0.85356 0.85369 0.85369 0 0 0 0.85371-0.85356 0.85369 0.85369 0 0 0-0.85371-0.8537zm6.9619 4.9075a0.40587 0.40587 0 0 0-0.40593 0.40593 0.40587 0.40587 0 0 0 0.40593 0.4058 0.40587 0.40587 0 0 0 0.40579-0.4058 0.40587 0.40587 0 0 0-0.40579-0.40593zm-1.0451 1.2154a0.471 0.471 0 0 0-0.47095 0.47095 0.471 0.471 0 0 0 0.47095 0.47109 0.471 0.471 0 0 0 0.47109-0.47109 0.471 0.471 0 0 0-0.47109-0.47095zm2.929 0.29442a0.30909 0.30909 0 0 0-0.30911 0.30912 0.30909 0.30909 0 0 0 0.30911 0.30912 0.30909 0.30909 0 0 0 0.30912-0.30912 0.30909 0.30909 0 0 0-0.30912-0.30912zm-4.342 0.58869a0.52987 0.52987 0 0 0-0.52989 0.52989 0.52987 0.52987 0 0 0 0.52989 0.52989 0.52987 0.52987 0 0 0 0.52989-0.52989 0.52987 0.52987 0 0 0-0.52989-0.52989zm7.904 3.1793a0.54459 0.54459 0 0 0-0.54459 0.54459 0.54459 0.54459 0 0 0 0.54459 0.54459 0.54459 0.54459 0 0 0 0.54459-0.54459 0.54459 0.54459 0 0 0-0.54459-0.54459zm-6.9031 3.1792a0.471 0.471 0 0 0-0.47095 0.47095 0.471 0.471 0 0 0 0.47095 0.4711 0.471 0.471 0 0 0 0.47109-0.4711 0.471 0.471 0 0 0-0.47109-0.47095z" fill="#fff" stroke-width=".97505"/>
</svg>
