<?xml version="1.0" encoding="UTF-8"?>
<svg viewBox="0 0 48 48" xmlns="http://www.w3.org/2000/svg">
    <defs>
        <style>.cls-1{fill:#fff;fill-rule:evenodd;}</style>
    </defs>
    <g data-name="Layer 1">
        <path class="cls-1" d="M44.5,19.32c-.36-1.59,0-3.43-.67-4.87s-2.39-2.31-3.39-3.56S39,7.8,37.72,6.8s-3.14-1-4.6-1.75-2.63-2.14-4.22-2.5S25.65,3,24,3s-3.36-.78-4.9-.43-2.79,1.81-4.22,2.51-3.35.74-4.6,1.74S8.57,9.63,7.56,10.89,4.88,13,4.17,14.45s-.31,3.28-.67,4.87S2,22.35,2,24s1.15,3.14,1.5,4.68,0,3.43.67,4.87,2.39,2.31,3.39,3.56S9,40.2,10.28,41.2s3.14,1,4.6,1.75,2.63,2.14,4.22,2.5S22.35,45,24,45s3.36.78,4.9.43,2.79-1.81,4.22-2.51,3.35-.74,4.6-1.74,1.71-2.83,2.72-4.09,2.68-2.1,3.39-3.56.31-3.28.67-4.87S46,25.65,46,24,44.85,20.86,44.5,19.32ZM17.5,35.5a1.7,1.7,0,0,1-1.2.5H12V31.7a1.7,1.7,0,0,1,.5-1.2L26.74,16.25l5,5ZM35.61,17.39l-2.44,2.44-5-5,2.44-2.44a1.29,1.29,0,0,1,.93-.39,1.31,1.31,0,0,1,1,.39l3.12,3.12A1.33,1.33,0,0,1,35.61,17.39Z"/>
    </g>
</svg>
