<?xml version="1.0" encoding="UTF-8"?>
<svg data-name="Layer 1" viewBox="0 0 48 48" xmlns="http://www.w3.org/2000/svg">
    <defs>
        <style>.cls-1{fill:#fff;}</style>
    </defs>
    <path class="cls-1" d="M24,2A22,22,0,1,0,46,24,22,22,0,0,0,24,2Zm-2.54,9.13h1.05v4.06a1.6,1.6,0,0,0,.37,1.17,1.51,1.51,0,0,0,1.13.38c1,0,1.48-.52,1.48-1.56v-4h1.05v4.15a2.51,2.51,0,0,1-.3,1.25,2.11,2.11,0,0,1-.88.82,3.12,3.12,0,0,1-1.38.28A2.59,2.59,0,0,1,22.12,17a2.28,2.28,0,0,1-.66-1.73Zm-9.77,5.22a4.65,4.65,0,0,0,.93.33,4.5,4.5,0,0,0,.92.11,1.45,1.45,0,0,0,.92-.23.77.77,0,0,0,.3-.64.78.78,0,0,0-.28-.61,4,4,0,0,0-1.12-.59,3.09,3.09,0,0,1-1.24-.81,1.73,1.73,0,0,1-.36-1.1,1.53,1.53,0,0,1,.57-1.26,2.38,2.38,0,0,1,1.54-.46,4.48,4.48,0,0,1,1.83.4l-.33.86A4,4,0,0,0,13.84,12a1.14,1.14,0,0,0-.77.22.72.72,0,0,0-.27.58.83.83,0,0,0,.11.43,1,1,0,0,0,.35.34,6.55,6.55,0,0,0,.86.41,4.76,4.76,0,0,1,1,.55,1.54,1.54,0,0,1,.48.58,1.73,1.73,0,0,1,.16.75,1.61,1.61,0,0,1-.62,1.34,2.68,2.68,0,0,1-1.71.49,4,4,0,0,1-1.78-.34Zm3.93,20.43-2-2.9-.62.5v2.4h-1V30.37h1v3.06l.86-1,1.73-2h1.2l-2.41,2.81,2.47,3.6Zm10.92-2.26a2.5,2.5,0,0,1-.3,1.24,2.11,2.11,0,0,1-.88.82,3.12,3.12,0,0,1-1.38.29,2.59,2.59,0,0,1-1.86-.63,2.31,2.31,0,0,1-.66-1.74V30.37h1.05v4.05a1.6,1.6,0,0,0,.37,1.17A1.47,1.47,0,0,0,24,36c1,0,1.48-.52,1.48-1.56v-4h1.05ZM38.42,19.65H29.27v8.7h9.15v.92H29.27v9.15h-.92V29.27h-8.7v9.15h-.92V29.27H9.58v-.92h9.15v-8.7H9.58v-.92h9.15V9.58h.92v9.15h8.7V9.58h.92v9.15h9.15ZM36.89,24a3.51,3.51,0,0,1-.78,2.43,2.84,2.84,0,0,1-2.22.87,2.86,2.86,0,0,1-2.23-.86A3.53,3.53,0,0,1,30.88,24a3.49,3.49,0,0,1,.78-2.44,2.88,2.88,0,0,1,2.24-.85,2.85,2.85,0,0,1,2.21.86A3.52,3.52,0,0,1,36.89,24Z"/>
    <path class="cls-1" d="M19.65,28.35h8.7v-8.7h-8.7Zm1.74-7.56h2a3.29,3.29,0,0,1,2.39.83,3.1,3.1,0,0,1,.85,2.32,3.23,3.23,0,0,1-.88,2.43,3.55,3.55,0,0,1-2.54.84h-1.8Z"/>
    <path class="cls-1" d="M32.47,22.21A2.83,2.83,0,0,0,32,24a2.83,2.83,0,0,0,.48,1.79,1.94,1.94,0,0,0,2.83,0,2.84,2.84,0,0,0,.48-1.8,2.83,2.83,0,0,0-.48-1.79,1.64,1.64,0,0,0-1.4-.61A1.7,1.7,0,0,0,32.47,22.21Z"/>
    <path class="cls-1" d="M25.5,24c0-1.53-.72-2.3-2.15-2.3h-.91v4.65h.75A2.06,2.06,0,0,0,25.5,24Z"/>
</svg>
