<?xml version="1.0" encoding="UTF-8"?>
<svg version="1.1" viewBox="0 0 48 48" xmlns="http://www.w3.org/2000/svg">
    <path d="m7 5c-1.108 0-2 0.892-2 2v34c0 1.108 0.892 2 2 2h34c1.108 0 2-0.892 2-2v-34c0-1.108-0.892-2-2-2h-34zm14.734 4.2266c0.13037 0.0025543 0.26237 0.018627 0.39453 0.048828 1.0573 0.24161 1.7097 1.3066 1.4629 2.3867l-1.127 4.9336 6.6074 0.013672 1.3301-5.8203c0.24684-1.0802 1.2982-1.7553 2.3555-1.5137 1.0573 0.24161 1.7097 1.3066 1.4629 2.3867l-1.1328 4.9551 5.0605 0.009765c1.108 0.002093 1.9981 0.87642 1.9961 1.9609-0.002048 1.0845-0.89591 1.9552-2.0039 1.9531l-5.9473-0.011719-1.5684 6.8672 4.7266 0.009766c1.108 0.002093 1.9981 0.87641 1.9961 1.9609-0.002048 1.0845-0.89591 1.9552-2.0039 1.9531l-5.6133-0.009765-1.3027 5.6973c-0.24684 1.0802-1.2962 1.7553-2.3535 1.5137-1.0573-0.24161-1.7097-1.3066-1.4629-2.3867l1.1035-4.832-6.6074-0.013672-1.3066 5.7188c-0.24684 1.0802-1.2962 1.7553-2.3535 1.5137-1.0573-0.24161-1.7097-1.3066-1.4629-2.3867l1.1094-4.8516-5.75-0.011719c-1.108-0.002093-1.9981-0.87641-1.9961-1.9609 0.0020486-1.0845 0.89591-1.9552 2.0039-1.9531l6.6348 0.011719 1.5703-6.8672-5.416-0.009765c-1.108-0.002093-1.9981-0.87641-1.9961-1.9609 0.002049-1.0845 0.89591-1.9572 2.0039-1.9551l6.3027 0.011719 1.3242-5.7988c0.21598-0.94514 1.0464-1.5804 1.959-1.5625zm-0.16406 11.283-1.5684 6.8672 6.6074 0.013672 1.5684-6.8691-6.6074-0.011718z" fill="#fff"/>
</svg>
