<?xml version="1.0" encoding="UTF-8"?>
<svg viewBox="0 0 48 48" xmlns="http://www.w3.org/2000/svg">
    <defs>
        <style>.a{fill:#fff;}</style>
    </defs>
    <path class="a" d="M41,5H35.18l-4,4.76h8L24.39,25.26h7.15L12,39.31l8.21-11.78H15.28L27,12.11H19.53L25,5H7A2,2,0,0,0,5,7V41a2,2,0,0,0,2,2H41a2,2,0,0,0,2-2V7A2,2,0,0,0,41,5ZM10,23.81a4.71,4.71,0,0,1-1.15-.38L9,22.08a5.33,5.33,0,0,0,2.61.66,3.44,3.44,0,0,0,2.1-.59,2.22,2.22,0,0,0,.93-1.64,1.44,1.44,0,0,0-.29-1.09A5.59,5.59,0,0,0,13,18.31,4.26,4.26,0,0,1,11.44,17a2.59,2.59,0,0,1-.29-1.59A3.49,3.49,0,0,1,12.46,13,4.4,4.4,0,0,1,15.31,12a6.5,6.5,0,0,1,1.44.15,5.91,5.91,0,0,1,1.37.51l-.65,1.19a4.19,4.19,0,0,0-1.12-.47,4.28,4.28,0,0,0-1.17-.18,2.77,2.77,0,0,0-1.77.55,2.1,2.1,0,0,0-.81,1.49,1.68,1.68,0,0,0,.06.73,1.26,1.26,0,0,0,.36.57,5.67,5.67,0,0,0,1,.76,7.72,7.72,0,0,1,1.45,1.09,2.43,2.43,0,0,1,.52.87,2.65,2.65,0,0,1,.08,1.11A3.58,3.58,0,0,1,14.71,23a5.13,5.13,0,0,1-3.22.92A8,8,0,0,1,10,23.81Zm28.33,2.81H33.86l-1.34,4.21h4.17L36.31,32H32.12L30.54,37H29.18l3.73-11.56h5.81Z"/>
</svg>
