<?xml version="1.0" encoding="UTF-8"?>
<svg version="1.1" viewBox="0 0 48 48" xmlns="http://www.w3.org/2000/svg">
    <path d="m15.75 37.963c-1.7183-0.84826-3.5249-2.1628-3.5865-2.5919-0.0287-0.20021 1.7181-2.3855 1.7181-2.3855l1.9972-2.2972c0.22694-0.26103 0.17991-0.2588 1.6636 0.73095 1.0845 0.72348 3.0761 1.6653 4.0712 1.9254 1.9798 0.51738 4.389 0.38218 5.7034-0.32009 1.0658-0.56941 1.627-1.8072 1.3058-2.8795-0.3043-1.0156-1.2863-1.7652-3.3225-2.5361-1.7804-0.674-6.4781-2.6675-7.2907-3.1508-3.1329-1.8632-4.7512-4.6218-4.7774-7.7701-0.0057-1.61 0.33204-2.8517 1.167-4.2911 0.60001-1.0343 2.1621-2.5997 3.2308-3.2376 4.5761-2.7314 11.223-2.351 15.847 0.90692 0.96536 0.6801 1.5682 1.2685 1.5682 1.5307 0 0.29131-3.205 4.275-3.4882 4.3358-0.11843 0.0254-0.53845-0.16836-0.93338-0.43058-1.6881-1.1208-2.9914-1.6059-4.9879-1.8566-1.3777-0.17298-3.1848-0.0084-3.9522 0.67162-2.9206 2.588 1.0518 4.4421 2.8617 5.2453 6.1467 2.7124 11.358 3.6425 11.507 10.37 0.1092 4.9515-4.8379 8.876-8.4384 9.6156-4.0826 0.83855-8.5884 0.03206-11.864-1.5848z" fill="#fff" stroke-width=".13636"/>
</svg>
