<svg xmlns="http://www.w3.org/2000/svg" width="48" height="48" viewBox="0 0 48 48">
    <path d="M24.013 4.5c-10.75 0-19.5 8.75-19.5 19.5s8.75 19.5 19.5 19.5 19.5-8.75 19.5-19.5-8.75-19.5-19.5-19.5zm0 3.27A16.2 16.2 0 0 1 40.24 24c0 8.985-7.245 16.23-16.227 16.23A16.203 16.203 0 0 1 7.783 24c0-8.985 7.245-16.23 16.23-16.23z" fill="#fff"/>
    <path d="M38.87 14.936l-12.307 10.22 2.09 2.515L40.96 17.45z" fill="#fff"/>
    <path d="M28.948 25.48l-2.685 1.865 7.773 11.2 2.685-1.866z" fill="#fff"/>
    <path d="M27.46 24.785L6.653 26.708l.3 3.255L27.76 28.04z" fill="#fff"/>
    <path d="M10.104 23.883c-2.484-1.443-5.663-.637-7.11 1.793-1.443 2.484-.635 5.662 1.792 7.11 2.486 1.443 5.666.634 7.11-1.793 1.443-2.418.635-5.598-1.792-7.11zm28.58 9.28c-2.486-1.444-5.663-.638-7.11 1.792-1.445 2.484-.637 5.662 1.792 7.11 2.485 1.443 5.664.634 7.11-1.793 1.44-2.418.634-5.598-1.794-7.11zM30.91 21.96c-2.484-1.443-5.66-.637-7.11 1.793-1.44 2.484-.634 5.66 1.794 7.11 2.486 1.443 5.664.634 7.11-1.794 1.443-2.422.635-5.602-1.794-7.11zM43.218 11.7c-2.484-1.44-5.66-.634-7.11 1.796-1.443 2.484-.635 5.66 1.794 7.11 2.48 1.443 5.66.634 7.104-1.794 1.443-2.415.636-5.595-1.793-7.104z" fill="#fff"/>
</svg>
