<?xml version="1.0" encoding="UTF-8"?>
<svg version="1.1" viewBox="0 0 48 48" xmlns="http://www.w3.org/2000/svg">
    <path d="m24 2a22 22 0 0 0-22 22 22 22 0 0 0 22 22 22 22 0 0 0 22-22 22 22 0 0 0-22-22zm9.8094 13.234c0.73985-0.02704 1.3003 0.64225 1.0001 1.8459l-3.609 17.007c-0.25201 1.2085-0.98202 1.4975-1.9938 0.93923l-8.8662-6.5502 10.202-9.2061c0.44772-0.39736-0.09781-0.59101-0.69216-0.2306l-12.59 7.9428-5.4381-1.6973c-1.1744-0.35959-1.183-1.1668 0.26354-1.747l21.191-8.1712c0.18148-0.08241 0.36173-0.12589 0.53246-0.13213z" fill="#fff" stroke-width=".18333"/>
</svg>
