<svg xmlns="http://www.w3.org/2000/svg" width="48" height="48" viewBox="0 0 48 48">
    <path d="M24.003 4.622c-3.89.002-7.76 1.567-10.592 4.29-2.83 2.72-4.586 6.572-4.8 10.532v14.98h3.68V19.42a.572.553 0 0 1 0-.045c.51-6.088 5.9-11.2 11.716-11.2 5.812 0 11.2 5.113 11.71 11.2a.572.553 0 0 1-.004.122V34.42h3.68V19.497a.572.553 0 0 1-.005-.048c-.212-3.96-1.967-7.814-4.796-10.536-2.83-2.723-6.695-4.29-10.584-4.294z" fill="#fff"/>
    <rect ry="1.57" y="26.53" x="6.227" height="13.848" width="10.425" fill="#fff"/>
    <rect ry=".843" y="23.63" x="14.832" height="19.749" width="4.509" fill="#fff"/>
    <rect ry=".843" y="23.63" x="28.66" height="19.749" width="4.509" fill="#fff"/>
    <rect ry="1.57" y="26.426" x="31.348" height="13.848" width="10.425" fill="#fff"/>
</svg>
