<?xml version="1.0" encoding="UTF-8" standalone="no"?>
<svg xmlns="http://www.w3.org/2000/svg" viewBox="0 0 48 48" version="1.1">
  <path
     style="fill:#ffffff;"
     d="m 15.390619,35.959415 h 24.797938 v 2.474874 H 15.390619 Z M 7.7605925,34.688831 h 5.3098335 v 5.309834 H 7.7605925 Z m 7.6300285,-6.166916 h 24.797938 v 2.474874 H 15.390621 Z M 7.7605925,27.251333 h 5.3098335 v 5.309834 H 7.7605925 Z m 9e-7,-4.259146 H 40.18856 v 2.265625 H 7.7605934 Z M 7,5 C 5.892,5 5,5.892 5,7 v 34 c 0,1.108 0.892,2 2,2 h 34 c 1.108,0 2,-0.892 2,-2 V 7 C 43,5.892 42.108,5 41,5 Z M 7.7597656,8.203125 H 40.189453 V 10.46875 H 7.7597656 Z m 0,4.287109 h 5.3105464 v 5.310547 H 7.7597656 Z m 7.6308594,1.269532 h 24.798828 v 2.476562 H 15.390625 Z m -9.3867188,6.24414 H 8.765625 40 42 v 2 V 40 c 0,1.108 -0.892,2 -2,2 H 8.0039062 c -1.1080001,0 -1.9999999,-0.892 -2,-2 V 22.8125 Z"
     id="rect873-3" />
</svg>
