<?xml version="1.0" encoding="UTF-8"?>
<svg version="1.1" viewBox="0 0 48 48" xmlns="http://www.w3.org/2000/svg">
    <path d="m24 2a22 22 0 0 0 -22 22 22 22 0 0 0 22 22 22 22 0 0 0 22 -22 22 22 0 0 0 -22 -22zm9.432 7.088c1.686-0.0085 2.952 0.08134 3.26 0.3887 0.8196 0.8196 0 2.384 0 10.65 0 0.7057-0.804 1.457-1.533 1.457-0.7639 0-1.562-0.4847-1.562-1.457 0-4.783 1.383-5.709-0.4141-7.408-1.742-1.647-7.193 0-7.193 0s-0.4738 22 0.1758 22.65c0.8056 0.8056 3.672 0.1758 3.672 0.1758 0.9693-0.07529 1.459 1.08 1.459 1.826 0 0.7292-0.4868 1.535-1.459 1.535 0 0-3.872-0.6157-5.824-0.6172-1.982-0.0016-5.914 0.6172-5.914 0.6172-0.9722 0-1.457-0.806-1.457-1.535 0-0.7465 0.4848-1.826 1.457-1.826 0 0 3.192 0.8109 3.762-0.1758 0.4474-0.775 0.1504-22.65 0.1504-22.65s-5.451-1.647-7.193 0c-1.797 1.699-0.416 2.637-0.416 7.408 0 0.9724-0.7967 1.457-1.561 1.457-0.7292 0-1.535-0.7513-1.535-1.457 0 0-0.8122-9.842 0-10.65 0.8122-0.8122 8.46-0.08789 12.69-0.08789 2.646 0 6.623-0.2866 9.434-0.3008z" fill="#fff"/>
</svg>
