<?xml version="1.0" encoding="UTF-8"?>
<svg version="1.1" viewBox="0 0 48 48" xmlns="http://www.w3.org/2000/svg">
    <path d="m18.27 4.9414c-5.7028 0-10.433 3.4822-10.433 8.0987 0.10096 6.1488-0.022851 11.488-0.022851 17.226 0 4.6165 2.55 8.3329 5.7182 8.3329h1.4224l-2.8863 3.0751v1.2673h23.931v-1.2673l-2.6044-3.0751h1.0526c2.9571 0 5.3469-3.2502 5.6562-7.4355 0.13908-6.179 0.06206-12.739 0.06206-18.1 0-4.6165-4.5906-8.1219-10.293-8.1219zm-6.2096 8.0976h9.9313v9.9313h-9.9313zm14.007 0h9.9313v9.9313h-9.9313zm6.9415 15.903c1.6091 5.71e-4 2.913 1.3056 2.9121 2.9147-5.72e-4 1.6081-1.304 2.9116-2.9121 2.9121-1.6091 8.56e-4 -2.9142-1.303-2.9147-2.9121-8.6e-4 -1.6101 1.3046-2.9156 2.9147-2.9147zm-17.879 0.06982c1.6101-8.59e-4 2.9156 1.3046 2.9147 2.9147-5.72e-4 1.6091-1.3056 2.913-2.9147 2.9121-1.6081-5.72e-4 -2.9116-1.304-2.9121-2.9121-8.56e-4 -1.6091 1.303-2.9142 2.9121-2.9147z" fill="#fff"/>
</svg>
