<?xml version="1.0" encoding="UTF-8"?>
<svg version="1.1" viewBox="0 0 48 48" xmlns="http://www.w3.org/2000/svg">
    <defs>
        <mask id="mask-2" x="101" y="88" width="594" height="419" maskUnits="userSpaceOnUse">
            <g class="st3" filter="url(#Adobe_OpacityMaskFilter)">
                <path class="st0" d="M 76,64.4 C 76,17.8 282.9,0 397.5,0 510.6,0 719,17.8 719,64.4 V 719 H 76 Z" fill="#fff"/>
            </g>
        </mask>
    </defs>
    <style type="text/css">.st0{fill:#FFFFFF;}.st1{fill:#0061DC;}.st2{fill:#007AFF;}.st3{filter:url(#Adobe_OpacityMaskFilter);}.st4{opacity:0.9807;mask:url(#mask-2);fill:#FFFFFF;enable-background:new    ;}.st5{filter:url(#filter-4);}.st6{fill:#F3F3F3;}.st7{fill:none;stroke:#FFFFFF;stroke-width:5;}.st8{filter:url(#filter-7);}</style>
    <rect x="8.143" y="39.216" width="7.9408" height="4.7842" fill="#fff" stroke-width=".049322"/>
    <rect x="31.916" y="39.216" width="7.9408" height="4.7842" fill="#fff" stroke-width=".049322"/>
    <path class="st1" d="m5.6276 10.658h1.233v8.1381c-1.3613 0-2.4661-1.1295-2.4661-2.5253v-4.3502c0-0.69544 0.5524-1.2626 1.233-1.2626z" fill="#fff" stroke-width=".049322"/>
    <path class="st1" d="m42.372 10.658h-1.233v8.1381c1.3613 0 2.4661-1.1295 2.4661-2.5253v-4.3502c0-0.69544-0.5524-1.2626-1.233-1.2626z" fill="#fff" stroke-width=".049322"/>
    <path d="m24 4c-5.6523 0-15.857 0.87795-15.857 3.1763v32.286h31.714v-32.286c0-2.2984-10.279-3.1763-15.857-3.1763zm0.02466 4.3403c6.3625 0 11.063 0.43892 14.106 1.3169 0.32059 0.09371 0.54254 0.38968 0.54254 0.73001v17.854c0 0.41924-0.33537 0.75957-0.74474 0.75957h-27.808c-0.40937 0-0.74474-0.34034-0.74474-0.75957v-17.854c0-0.33539 0.22195-0.63629 0.54254-0.73001 3.0432-0.87793 7.7435-1.3169 14.106-1.3169zm-10.703 23.354a2.4908 2.5647 0 0 1 2.4908 2.5647 2.4908 2.5647 0 0 1-2.4908 2.5647 2.4908 2.5647 0 0 1-2.4908-2.5647 2.4908 2.5647 0 0 1 2.4908-2.5647zm21.406 0a2.4908 2.5647 0 0 1 2.4908 2.5647 2.4908 2.5647 0 0 1-2.4908 2.5647 2.4908 2.5647 0 0 1-2.4908-2.5647 2.4908 2.5647 0 0 1 2.4908-2.5647z" fill="#fff" stroke-width=".049322"/>
</svg>
