<?xml version="1.0" encoding="UTF-8"?>
<svg viewBox="0 0 48 48" xmlns="http://www.w3.org/2000/svg">
    <defs>
        <style>.cls-1{fill:#fff;}</style>
    </defs>
    <g data-name="Layer 1">
        <path class="cls-1" d="M44.67,29.34c-.91-2.66-6.09-11.72-8.11-14.83-2-3.35-4.4-4.74-7.92-4.67-2.88-.09-19.24.64-24.81,1.58-1.21.21-1,1.84-.13,1.89,1.47.09,6.91.3,9.35.53a4.73,4.73,0,0,1,4,2.9c1,2,3.52,8.23,4.44,10.61a4.64,4.64,0,0,1,.09,3.72c-.4.7-1.64,1.39-3.51,1.06-1.57-.27-11.91-2.52-12.93-2.76-1.3-.29-1.73,2.11-.34,2.59,1.9.66,10.63,3.7,17.71,5.64,3.61,1,5.63.5,8.32,0,3.38-.66,8.11-1.62,11-2.41A4.24,4.24,0,0,0,44.67,29.34ZM29.18,34.88a2.2,2.2,0,1,1,2.2-2.2A2.2,2.2,0,0,1,29.18,34.88Zm8.1-9.55c-1.52.38-6.83,1.16-9,1.39-2.33.34-3.65-.1-4.4-1.81-.63-1.13-3.2-7.75-3.63-8.72-.77-2.05.18-2.64,1.48-2.77,1-.12,5.86-.53,7.61-.69,2.64-.2,4,.82,5.3,3.09,1.47,2.5,2.83,4.82,4,6.87C39.29,23.84,38.74,25,37.28,25.33Zm3.54,7.08a2,2,0,1,1,2-2A2,2,0,0,1,40.82,32.41Z"/>
    </g>
</svg>
