<?xml version="1.0" encoding="UTF-8"?>
<svg viewBox="0 0 48 48" xmlns="http://www.w3.org/2000/svg">
    <path d="m30.474 20.392h-5.3245v-4.4688h5.3245v-5.3245h5.2264l0.05055 5.2769 5.372 0.0505v4.4658h-5.4196v5.0392h-5.2294zm-24.245-4.4688h15.973v4.4688h-15.973zm4.9917-5.3245v3.7557h5.6573v-3.7557zm0.33278 0.33278h4.9917v3.0901h-4.9917zm-0.33278 11.362 5.7e-4 4.0884c2.85e-4 2.8314 0.03698 4.6177 0.16398 5.8816 0.127 1.2639 0.34868 2.0127 0.7118 2.7321 0.77722 1.5397 2.3045 2.4667 4.4513 2.735l0.0019 1.9e-4 0.0085 0.0011h0.01022c1.783 0.20073 4.2162 0.0092 6.0883-0.58924l0.11569-0.03714v-4.7503l-0.24271 0.12554c-1.1344 0.5866-2.6666 0.56268-4.0114 0.42452-0.85054-0.2602-1.3374-0.86709-1.54-1.9634-0.02421-0.13096-0.05515-0.66772-0.07298-1.4487-0.01783-0.78095-0.02786-1.8273-0.02786-3.0574v-4.1423zm0.33278 0.33278h4.9917v3.8095c0 1.2319 0.0099 2.2801 0.02786 3.065 0.01792 0.78493 0.03862 1.2856 0.07855 1.5016 0.21784 1.1784 0.81337 1.9347 1.782 2.2262l0.01504 0.0046 0.0156 0.0017c1.2839 0.13315 2.7652 0.17414 3.9759-0.35265v3.9722c-1.8037 0.554-4.1585 0.73903-5.8504 0.54597-2.85e-4 -3.3e-5 -4.76e-4 -1.52e-4 -7.61e-4 -1.9e-4 -2.0732-0.25934-3.4721-1.1225-4.195-2.5545-0.34623-0.68588-0.55313-1.3763-0.67763-2.6154-0.1245-1.2391-0.16203-3.0198-0.1623-5.8483zm18.563 4.6067 0.05218 2.7636c0.04092 2.1636 0.08269 2.7516 0.24884 3.4589 0.30293 1.2895 0.8456 2.2767 1.6847 2.9815 0.8391 0.70475 1.964 1.1219 3.4136 1.3096l0.0013 1.9e-4h0.0013c1.793 0.20465 4.2033-0.0706 5.9598-0.57494l0.12034-0.03454v-4.782l-0.24272 0.12554c-0.81211 0.41996-1.7307 0.50459-2.7027 0.55488-0.74016 0.0012-1.2776-0.09783-1.6806-0.31328-0.40331-0.2156-0.68619-0.5475-0.92016-1.0611-0.09407-0.2065-0.14048-0.34184-0.17568-0.6559-0.03519-0.31406-0.05334-0.79981-0.07577-1.6565l-0.05385-2.062zm0.33909 0.33612 4.967 0.04735 0.04568 1.7412c0.02246 0.85796 0.03968 1.3463 0.07762 1.6849s0.10233 0.53458 0.20353 0.75674c0.25424 0.5581 0.59248 0.96353 1.0661 1.2167 0.47364 0.2532 1.0688 0.35403 1.8394 0.35265h0.0043l0.0041-1.91e-4c0.89474-0.04613 1.7798-0.13281 2.6024-0.49248v4.0039c-1.7004 0.47059-4.0214 0.72889-5.7093 0.53631h-3.81e-4c-1.4079-0.18256-2.464-0.58223-3.24-1.234-0.77649-0.65216-1.2833-1.5619-1.5748-2.8026-0.15971-0.67985-0.19906-1.2287-0.23993-3.3893z" fill="#fff"/>
</svg>
