<?xml version="1.0" encoding="UTF-8"?>
<svg version="1.1" viewBox="0 0 48 48" xmlns="http://www.w3.org/2000/svg">
    <defs>
        <style>.cls-1{fill:#2b2b2b;}.cls-2{fill:#fff;}</style>
    </defs>
    <path d="m21.66 7.3761v2.3931h-2.4101v2.3569h9.5v-2.3569h-2.4101v-2.3931zm7.0899 4.75v2.3739h2.3739v2.3761h2.3761v4.75h4.75v-2.3761h-2.3761v-4.75h-2.3739v-2.3739zm4.75 9.5h-2.3761v2.3739h-2.3739v2.3739h2.3739v2.3761h2.3761v2.3527h2.3739v-2.3527h4.75v-4.75h-7.1239zm-2.3761 7.1239h-2.3739v-2.3761h-9.5v2.3761h-2.3739v4.75h14.248zm-14.248 0v-2.3761h2.3739v-2.3739h-2.3739v-2.3739h-2.3761v2.3739h-7.1239v4.75h4.75v2.3527h2.3739v-2.3527zm-2.3761-7.1239v-4.75h2.3761v-2.3761h2.3739v-2.3739h-4.75v2.3739h-2.3739v4.75h-2.3761v2.3761zm4.75-7.1261v2.3761h-2.3739v4.75h2.3739v2.3739h9.5v-2.3739h2.3739v-4.75h-2.3739v-2.3761zm-14.25 16.624v2.3761h2.3399v2.3739h2.4101v2.3761h7.1261v2.3739h14.248v-2.3739h7.1261v-2.3909h2.3718v-2.3718h2.3782v-2.3633h-4.75v2.3761h-4.75v2.3739h-19v-2.3739h-4.75v-2.3761z" fill="#fff" stroke-width="1.0881"/>
</svg>
