<?xml version="1.0" encoding="UTF-8"?>
<svg version="1.1" viewBox="0 0 48 48" xmlns="http://www.w3.org/2000/svg">
    <path d="m7 5c-1.108 0-2 0.892-2 2v34c0 1.108 0.892 2 2 2h34c1.108 0 2-0.892 2-2v-34c0-1.108-0.892-2-2-2h-34zm24.158 13.299h3s-8.575 2.6678-8.3457 4.5234c0.2239 1.8119 10.031 2.3748 15.287 4.8691v12.459c0 0.54273-0.40649 0.94922-0.94922 0.94922h-31.311c13.52-4.5663 20.007-6.566 21.486-9.4102 1.6124-3.1008-8.7915-5.2088-8.3574-8.4336s9.1895-4.957 9.1895-4.957z" fill="#fff"/>
</svg>
