<?xml version="1.0" encoding="UTF-8"?>
<svg version="1.1" viewBox="0 0 48 48" xmlns="http://www.w3.org/2000/svg">
    <path d="m17.852 6.768a8.8491 8.8491 0 0 0 -7.332 3.9082c-1.8246-0.0013-3.65-0.000647 -5.4746-0.002 1.3326 1.3916 2.6655 2.7822 3.998 4.1738a8.8491 8.8491 0 0 0 -0.039063 0.76953c-1.2649 13.512 2.1091 23.833 12.871 25.422 7.5148 0.76184 13.67-0.98437 13.67-0.98437-8.3028-1.026-10.223-5.5117-10.223-5.5117 12.362-6.8122 17.633-18.605 17.633-18.605-7.7034 1.5078-16.412 1.3477-16.412 1.3477h-0.0039a8.8491 8.8491 0 0 0 0.16211 -1.668 8.8491 8.8491 0 0 0 -8.8496 -8.8496z" fill="#fff"/>
</svg>
