<?xml version="1.0" encoding="UTF-8"?>
<svg data-name="Layer 1" viewBox="0 0 48 48" xmlns="http://www.w3.org/2000/svg">
    <defs>
        <style>.cls-1{fill:#fff;}</style>
    </defs>
    <path class="cls-1" d="m24 2a22 22 0 1 0 22 22 22 22 0 0 0-22-22zm12.48 17.1v0.78c0 8-6.07 17.18-17.18 17.18a16.85 16.85 0 0 1-9.24-2.73 10 10 0 0 0 1.44 0.09 12.14 12.14 0 0 0 7.5-2.58 6 6 0 0 1-5.64-4.2 5.45 5.45 0 0 0 1.14 0.12 5.93 5.93 0 0 0 1.59-0.22 6 6 0 0 1-4.85-5.92v-0.08a5.9 5.9 0 0 0 2.73 0.75 6 6 0 0 1-2.69-5 6.1 6.1 0 0 1 0.81-3 17.14 17.14 0 0 0 12.46 6.31 5.22 5.22 0 0 1-0.17-1.38 6 6 0 0 1 10.47-4.22 12.39 12.39 0 0 0 3.84-1.47 6.09 6.09 0 0 1-2.69 3.39 12.45 12.45 0 0 0 3.47-1 12.31 12.31 0 0 1-2.99 3.18z"/>
</svg>
