<?xml version="1.0" encoding="UTF-8"?>
<svg version="1.1" viewBox="0 0 48 48" xmlns="http://www.w3.org/2000/svg">
    <path d="m24 2a22 22 0 0 0-22 22 22 22 0 0 0 22 22 22 22 0 0 0 22-22 22 22 0 0 0-22-22zm0 5.2227c8.982 0 16.262 7.2797 16.262 16.262v9.1465c0 2.2436-1.8209 4.0645-4.0645 4.0645-2.2436 0-4.0645-1.8209-4.0645-4.0645v-6.0996c0-2.2436 1.8209-4.0645 4.0645-4.0645 0.73377 0 1.4143 0.21082 2.0098 0.55273-0.24971-7.6412-6.5044-13.766-14.207-13.766-7.7027 1e-7 -13.957 6.1244-14.207 13.766 0.59547-0.34192 1.276-0.55273 2.0098-0.55273 2.2436 0 4.0645 1.817 4.0645 4.0645v6.0996c0 2.2436-1.8209 4.0645-4.0645 4.0645-2.2436 0-4.0645-1.8209-4.0645-4.0645v-9.1465c1e-7 -8.982 7.2797-16.262 16.262-16.262zm-12.197 17.279c-1.1218 0-2.0332 0.91142-2.0332 2.0332v6.0996c1e-7 1.1218 0.91142 2.0332 2.0332 2.0332 1.1218 0 2.0312-0.91142 2.0312-2.0332v-6.0996c0-1.1218-0.90946-2.0332-2.0312-2.0332zm24.398 0c-1.1218 0-2.0312 0.91142-2.0312 2.0332v6.0996c0 1.1218 0.90946 2.0332 2.0312 2.0332s2.0332-0.91142 2.0332-2.0332v-6.0996c0-1.1218-0.91142-2.0332-2.0332-2.0332z" fill="#fff"/>
</svg>
