<?xml version="1.0" encoding="UTF-8"?>
<svg width="48" height="48" version="1.1" viewBox="0 0 12.7 12.7" xmlns="http://www.w3.org/2000/svg">
    <defs>
        <filter id="filter90" color-interpolation-filters="sRGB">
            <feColorMatrix result="fbSourceGraphic" values="1 0 0 0 0 0 1 0 0 0 0 0 1 0 0 -0.21 -0.72 -0.07 2 0 "/>
            <feColorMatrix in="fbSourceGraphic" result="fbSourceGraphicAlpha" values="0 0 0 -1 0 0 0 0 -1 0 0 0 0 -1 0 0 0 0 1 0"/>
            <feColorMatrix in="fbSourceGraphic" result="color2" values="1 0 0 0 0 0 1 0 0 0 0 0 1 0 0 -0.21 -0.72 -0.07 2 0 "/>
        </filter>
    </defs>
    <path d="m12.434 0.67368c-0.03306 0-0.11578 0.06606-0.14884 0.099122-0.13225 0.13225-0.2645 0.28103-0.41328 0.41328-0.2645 0.2645-0.54559 0.51266-0.81009 0.77715-0.28103 0.2645-0.54527 0.54553-0.80976 0.82655-0.16531 0.16531-0.31422 0.29737-0.463 0.46268-0.19837 0.2149-0.38015 0.44634-0.59505 0.66124-0.2149 0.19837-0.44634 0.38015-0.66124 0.59505l-1.0083 1.0087c-0.14878 0.16531-0.31422 0.31383-0.463 0.47914-0.19837 0.19837-0.38022 0.41347-0.57859 0.61184-0.14878 0.14878-0.33069 0.28096-0.47947 0.42974l-1.1901 1.1901-0.76036 0.76069c-0.099186 0.099187-0.099186 0.14878 0 0.24797 0.033064 0.033064 0.082527 0.06606 0.11559 0.099122-0.033064 0.033064-0.033189 0.066124-0.049721 0.082655l0.033258 0.032933c0.16531 0.16531 0.33069 0.31416 0.47947 0.47947 0.066124 0.049596 0.16518 0.099315 0.11559 0.21503l0.032933 0.03293c0.28103 0.2645 0.39675 0.39668 0.66124 0.67771 0.04959 0.06612 0.066317 0.04959 0.11591 0 0.066125-0.06612 0.69418-0.67777 0.77683-0.7439 0 0.01653-0.47947 0.61184-0.47947 0.61184-0.049596 0.06612-0.16512 0.21478-0.21471 0.2809 0 0.01653 0.11559 0.01646 0.11559 0.01646 0.033064-0.03306 0.066318-0.04959 0.11591-0.08265-0.033064 0.11572-0.18184 0.14897 0 0.28122 0.099187 0.09919 0.21471 0.19818 0.29737 0.29737 0.099186 0.11572 0.14878 0.09919 0.24797 0 1.9672-1.9672 4.0337-3.984 6.0009-5.9512 0.03307-0.033062 0.0494-0.099251 0.0494-0.14884v-1.1901l-0.34709 0.29769-0.29737 0.23118c0.08266-0.099187 0.46261-0.44621 0.5618-0.52887 0.09919-0.082655 0.09919-0.16525 0.08266-0.26443-0.03306 0.016532-0.04933 0.032933-0.06587 0.032933 0.01653-0.066124 0.04959-0.13212 0.08266-0.19824-0.01653 0-0.01673-0.016463-0.03326-0.016463l-0.19825 0.14852c-0.0066 0-0.02993 0.017963-0.05134 0.03487l0.21665-0.21665c0.03306-0.016532 0.0494-0.066059 0.0494-0.099121v-1.1242c0-0.033064 5.4e-5 -0.082526-0.01646-0.11559-0.52899 0.39675-0.14872-0.29756-0.01646-0.41328 0.01653-0.049596 0.03293-0.099251 0.03293-0.14884 0-0.13225-0.01653-0.26456 0-0.39681 0.01653-0.19837 0-0.39668 0-0.59505-2.3e-5 -0.04959-0.01641-0.18178-0.03293-0.18178zm-12.067 0.010009c-0.007241 2.5804e-4 -0.013308 0.002312-0.017432 0.006454-0.033064 0.016532-0.049721 0.06606-0.049721 0.099122v1.5705c0 0.049596 0.016663 0.099251 0.049721 0.14884 0.04959 0.066124 0.11572 0.13244 0.16531 0.19857 0 0.016532-0.016463 0.01647-0.016463 0.01647l-0.14885-0.14884c0 0.016532-0.016463 0.01647-0.016463 0.01647 0.04959 0.066125 0.082462 0.13244 0.13206 0.19857l-0.01647 0.016463c-0.04959-0.049596-0.082784-0.11572-0.13238-0.16531-0.033064 0.14878 3.3052e-4 0.2479 0.099444 0.34709 0.066124 0.066124 0.11565 0.14884 0.18178 0.2315l-0.01647 0.01647c-0.082655-0.099187-0.1821-0.18171-0.26476-0.2809-0.016532 0.016532-0.016463 0.032933-0.016463 0.032933v2.4632c0 0.033062-5.435e-5 0.049658 0.016463 0.066189l0.33062 0.33062c0.016532-0.033062 0.049659-0.066124 0.066189-0.082655l1.769-1.769c0.13225-0.11572 0.13219-0.11572 0.016463-0.24797-0.066124-0.066124-0.11565-0.14884-0.18178-0.2315h0.016463c0.11572 0.11572 0.2149 0.21497 0.33062 0.31415l0.44621-0.44621-0.032933-0.033258c-0.89268-0.87615-1.7688-1.752-2.645-2.6282-0.012396-0.024798-0.043523-0.040487-0.06522-0.039712zm6.0522 0.30931c-0.067804-0.010846-0.11649 0.079491-0.10203 0.093956-0.14878 0.13225-0.31422 0.28096-0.463 0.42974-0.099186 0.082655-0.18171 0.1985-0.2809 0.29769-0.18184 0.18184-0.38028 0.33056-0.56212 0.5124-0.16531 0.14878-0.29743 0.33069-0.44621 0.47947-0.13225 0.13225-0.29749 0.26456-0.42974 0.39681-1.2398 1.2564-2.4964 2.5126-3.7527 3.7524-0.033064 0.033064-0.032933 0.06606-0.032933 0.099122 0.033064 0.14878 0.016463 0.29775 0.016463 0.44653 0 0.033064-0.016532 0.34696 0 0.38002 1.6696-1.4217 1.0415-0.82636 0.066189 0.28122 0 0.016532-0.016463 0.01647-0.016463 0.01647-0.066124 0.082655-0.066188 0.26456-0.066188 0.39681-0.016532 1.0911 0 2.0331 0 3.1076 0 0.04959-0.016726 0.08285 0.049396 0.11591 0.04959 0.03307 0.082849-0.01666 0.11591-0.04972 0.77696-0.77696 1.5539-1.5703 2.3308-2.3473 0.16531-0.14878 0.31422-0.31416 0.463-0.47947 0.13225-0.14878 0.24777-0.28103 0.38002-0.41328 0.049596-0.04959 0.11565-0.082785 0.18178-0.13238 0.36368-0.29756 0.64484-0.66118 0.95893-1.0083 0.18184-0.19837 0.39668-0.39668 0.59505-0.59505 0.11572-0.11572 0.28109-0.2149 0.39681-0.33062 0.92574-0.90921 1.8514-1.8184 2.7606-2.7441 0.099186-0.099186 0.1985-0.19844 0.29769-0.31416 0.082656-0.066124 0.016532-0.04959 0-0.082656-0.016532-0.033064-0.049659-0.066059-0.066188-0.099121-0.066125-0.099186-0.098993-0.11578-0.21471-0.066189-0.016532-0.016532-0.033189-0.016726-0.049721-0.033258-0.04959-0.2149-0.2149-0.39655-0.33062-0.46268-0.082656-0.082656-0.06606-0.16538-0.18178-0.14884-0.016532-0.016532-0.016726-0.049659-0.033258-0.06619-0.016532-0.016532-0.049334-6.37e-5 -0.065866 0.016463-0.04959 0.049596-0.33069 0.33075-0.39681 0.38034-0.082655 0.066125 0.099058-0.18197 0.11559-0.21503v-0.016463c0.016532-0.049596 0.16525-0.16518 0.18178-0.19824l-0.01647-0.06619c-0.04959 0.033064-0.099251 0.099251-0.14884 0.14885l-0.16531 0.099121c0.033064-0.049596 0.13225-0.18191 0.16531-0.2315 0.033064-0.04959 0.082913-0.082526 0.099444-0.11559-0.016532-0.033064-0.066188-0.04959-0.066188-0.082656-0.033065-0.082655-0.11591-0.16525-0.19857-0.18178-0.11572-0.016532-0.24771-0.016788-0.23118-0.1821 0-0.016532-0.016788-0.016401-0.016788-0.032933-0.066124-0.099186-0.11565-0.21497-0.18178-0.31416-0.016532-0.016532-0.049659-0.032933-0.066189-0.032933-0.099186 0-0.19824 0.016463-0.2809 0.016463 0.016532-0.033064 0.032933-0.082784 0.032933-0.13238 0-0.049596 3.305e-4 -0.14872-0.065866-0.18178l-0.2315 0.13238-0.01647-0.2315c-0.010334-0.006185-0.020662-0.009753-0.030346-0.011302zm5.7168 5.6648c-0.03306 0.016531-0.033 0.016595-0.09912 0.066189l-2.4135 2.4135v0.033258c0.54553 0.52899 1.0911 1.0743 1.6366 1.6199 0.31409 0.31409 0.64452 0.62831 0.95861 0.95893 0.0496 0.04959 0.14904 0.09919 0.1821 0.08266 0.03306 0 0.0164-0.01653 0.03293-0.16531v-0.34709c0-0.01653 5.4e-5 -0.04966-0.01646-0.06619-0.04959-0.06612-0.13244-0.13212-0.19857-0.19824-0.06612-0.08265-0.14859-0.14884-0.21471-0.2315 0.01653 0-0.26443-0.29769-0.26443-0.29769 0.13225 0.11572 0.61139 0.51266 0.72711 0.61184v-2.5459c0-0.016532-0.03287-0.066125-0.0494-0.082656-0.04959-0.04959-0.31428-0.38015-0.36388-0.42974 0 0 0.21503 0.19831 0.21503 0.18178 0.04959 0.033064 0.13218 0.14872 0.18178 0.18178 0.01653-0.016532 0.01646-0.032933 0.01646-0.032933v-1.4219c-0.11572-0.09919-0.2149-0.21491-0.33062-0.33062z" fill="#fff" filter="url(#filter90)" stroke-width=".16531"/>
</svg>
