<?xml version="1.0" encoding="UTF-8"?>
<svg version="1.1" viewBox="0 0 48 48" xmlns="http://www.w3.org/2000/svg">
    <defs>
        <mask id="mask930" maskUnits="userSpaceOnUse">
            <g>
                <circle cx="24" cy="24" r="22" fill="#fff"/>
                <rect x="29.426" y="1.4043" width="1.0213" height="45.319" fill="#010101" style="paint-order:normal"/>
                <path d="m33.828 18.098 1.8279 0.04513 0.15797 8.2822c0.10654 4.1442 6.1081 4.1426 6.0932 0.09027l0.02257-8.3724 1.8956 0.02257-0.04513 8.4627c0.04177 6.2918-10.001 6.1333-9.9747-0.1354z" fill="#010101"/>
                <path d="m20.537 25.526-0.0066 0.87432 1.9023 0.01128c0.47952 0.0013 0.83067 0.38823 0.8408 0.94896l-0.10429 1.6474c-0.64307 2.7553-8.022 2.4823-8.1386-4.1816 0.05576-5.6095 7.2611-7.9059 9.072-3.0917l0.49648-0.02257-0.02257-2.4147c-7.0337-3.4163-11.75 1.7548-11.803 5.6644 0.02967 5.2214 6.1319 8.3778 11.983 5.3936l0.02941-3.2255c0.0099-0.57744-0.05166-0.68905 0.52679-0.69958l0.76866 0.01322 0.0066-0.87238z" fill="#010101"/>
                <path d="m6.1787 18.152-0.00991 0.82337 1.2186 0.01459c0.3 0.01 0.72574 0.13676 0.73674 0.85732l-0.022567 11.566c-0.018602 2.1219-0.90931 3.8782-1.9408 1.6361-0.46334-1.0196-2.6449-0.15422-1.1171 1.5007 0.86391 0.80164 4.62 0.95634 4.7617-3.1594l-0.033851-11.825c0.014819-0.42309 0.095396-0.56781 0.73344-0.57546l1.1769-0.0017 6.89 10-4-0.83728z" fill="#010101"/>
            </g>
        </mask>
    </defs>
    <circle cx="24" cy="24" r="22" fill="#fff" mask="url(#mask930)"/>
</svg>
