<?xml version="1.0" encoding="UTF-8"?>
<svg version="1.1" viewBox="0 0 48 48" xmlns="http://www.w3.org/2000/svg">
    <defs>
        <style>.cls-1{fill:#fff;}</style>
    </defs>
    <path class="cls-1" d="m7 5c-1.108 0-2 0.892-2 2v34c0 1.108 0.892 2 2 2h34c1.108 0 2-0.892 2-2v-34c0-1.108-0.892-2-2-2h-34zm9.6055 2.1445h2.8926v2.3594h-2.8926v-2.3594zm11.598 3.3047c1.0453 0 1.8362 0.3217 2.375 0.96289 0.5442 0.64119 0.81641 1.5738 0.81641 2.7969v5.5117h-2.9082v-4.2187c0-0.78128-0.018923-1.3208-0.05664-1.6172-0.03233-0.29635-0.091524-0.5142-0.17774-0.6543-0.11315-0.18859-0.26696-0.33512-0.46094-0.4375-0.19398-0.10776-0.41621-0.16016-0.66406-0.16016-0.60348 0-1.077 0.23435-1.4219 0.70313-0.34484 0.46338-0.51758 1.1072-0.51758 1.9316v4.4531h-2.8926v-9.0527h2.8926v1.3262c0.43644-0.52804 0.9003-0.91621 1.3906-1.1641 0.49032-0.25324 1.0323-0.38086 1.625-0.38086zm-11.598 0.21875h2.8926v9.0527h-2.8926v-9.0527zm2.2129 12.1h10.363v1.8984h-10.363v-1.8984zm0 3.6777h10.363v1.9141h-10.363v-1.9141zm-2.1328 4.9629c0.47416 0 0.94044 0.042696 1.3984 0.12891 0.46338 0.080823 0.92482 0.20406 1.3828 0.37109v2.3594c-0.39334-0.26941-0.79073-0.46834-1.1895-0.59766-0.39334-0.12932-0.80285-0.19336-1.2285-0.19336-0.80823 0-1.438 0.23678-1.8906 0.71094-0.44722 0.46877-0.67188 1.1267-0.67188 1.9727s0.22466 1.5063 0.67188 1.9805c0.45261 0.46877 1.0824 0.70312 1.8906 0.70312 0.45261 0 0.88104-0.068421 1.2852-0.20312 0.4095-0.1347 0.78797-0.33364 1.1328-0.59766v2.3672c-0.45261 0.16703-0.91404 0.29222-1.3828 0.37305-0.46338 0.086211-0.92967 0.12891-1.3984 0.12891-1.6326 0-2.9087-0.41679-3.8301-1.252-0.92138-0.84056-1.3828-2.0075-1.3828-3.5s0.46144-2.657 1.3828-3.4922c0.92138-0.84056 2.1975-1.2598 3.8301-1.2598zm10.936 0c0.62503 0 1.1767 0.14943 1.6562 0.45117 0.47955 0.30174 0.84394 0.72533 1.0918 1.2695 0.3664-0.56037 0.79968-0.98638 1.3008-1.2773 0.50649-0.29635 1.0625-0.44336 1.666-0.44336 1.0399 0 1.8308 0.31974 2.375 0.96094 0.5442 0.64119 0.81641 1.5738 0.81641 2.7969v5.5117h-2.9102v-4.7207c0.005388-0.070046 0.007812-0.14136 0.007812-0.2168 0.005388-0.075434 0.009766-0.18413 0.009766-0.32422 0-0.64119-0.094617-1.1051-0.2832-1.3906-0.18859-0.29096-0.49378-0.43555-0.91406-0.43555-0.54959 0-0.97561 0.22513-1.2773 0.67773-0.29635 0.45261-0.45016 1.1081-0.46094 1.9648v4.4453h-2.9082v-4.7207c0-1.0022-0.087345-1.6461-0.25977-1.9316-0.17242-0.29096-0.47809-0.43555-0.91992-0.43555-0.55498 0-0.98342 0.2295-1.2852 0.6875-0.30174 0.45261-0.45312 1.1013-0.45312 1.9473v4.4531h-2.9102v-9.0527h2.9102v1.3262c0.35562-0.51188 0.76271-0.89762 1.2207-1.1562 0.46338-0.25863 0.97236-0.38672 1.5273-0.38672z"/>
</svg>
