<?xml version="1.0" encoding="UTF-8"?>
<svg width="48" height="48" viewBox="0 0 12.7 12.7" xmlns="http://www.w3.org/2000/svg">
    <path d="m1.8521 1.3229c-0.29316 0-0.52917 0.23601-0.52917 0.52917v6.4523l1.0997 0.51263-0.082166 0.17673-1.0175-0.47439v2.3285c4e-7 0.29316 0.23601 0.52917 0.52917 0.52917h8.9958c0.29316 0 0.52917-0.23601 0.52917-0.52917v-2.3285l-1.0175 0.47439-0.08217-0.17673 1.0997-0.51263v-6.4523c0-0.29316-0.23601-0.52917-0.52917-0.52917zm1.8728 1.7317a0.68189 0.68189 0 0 1 0.68161 0.68213 0.68189 0.68189 0 0 1-0.68161 0.68161 0.68189 0.68189 0 0 1-0.68213-0.68161 0.68189 0.68189 0 0 1 0.68213-0.68213zm1.8102 4.809 0.066663 0.18345-3.1125 1.1327-0.066663-0.18345zm4.6757 1.1302 0.06666 0.18294-3.1125 1.1327-0.06666-0.18294z" fill="#fff" stroke-width=".26458"/>
</svg>
