<?xml version="1.0" encoding="UTF-8"?>
<svg version="1.1" viewBox="0 0 48 48" xmlns="http://www.w3.org/2000/svg">
    <path d="m8.1191 5.5645c-1.0351 0-1.8691 0.83404-1.8691 1.8691v31.764c0 1.0351 0.83404 1.8672 1.8691 1.8672h31.762c1.0351 0 1.8691-0.83208 1.8691-1.8672v-31.764c0-1.0351-0.83404-1.8691-1.8691-1.8691zm10.449 5.5918c0.39686 0.02 1.2016 0.18322 1.2949 1.168 0.15588 1.6625 0.73047 4.1484 0.73047 4.1484s0.41046 1.2227-0.38086 1.9863c-0.38282 0.36913-1.2684 1.2871-2.3652 2.4082a19.33 19.33 0 0 0 3.5977 5.0137c1.4581 1.4593 3.1637 2.6583 5.0078 3.582 1.1235-1.0988 2.0441-1.9855 2.4141-2.3691 0.38152-0.39566 0.87814-0.49182 1.2793-0.48828 0.40116 0.0035 0.70703 0.10742 0.70703 0.10742s2.486 0.57459 4.1484 0.73047c1.3124 0.12445 1.1641 1.5137 1.1641 1.5137v5.5918c-0.12382 0.86611-0.91602 0.89258-0.91602 0.89258-5.2085 0.39232-10.603-2.5361-11.389-2.9785l-0.0059 0.0059a23.339 23.339 0 0 1 -0.16602 -0.09766c-0.01152-0.0066-0.12891-0.06836-0.12891-0.06836l0.0039-0.0039a23.339 23.339 0 0 1 -8.5547 -8.541l-0.0078 0.0078s-0.06029-0.11246-0.06641-0.12305a23.339 23.339 0 0 1 -0.04102 -0.06641l0.0039-0.0039c-0.30134-0.52707-3.4378-6.1418-3.0352-11.496 0 0 0.0252-0.79094 0.89258-0.91602h5.5918s0.08842-0.01058 0.2207-0.0039z" fill="#fff" stroke-width=".93421"/>
    <path transform="matrix(.82294 0 0 .70562 5.0399 12.84)" d="m19.728 40-13.478 7.7817v-15.563z" fill="#fff"/>
</svg>
