<?xml version="1.0" encoding="UTF-8" standalone="no"?>
<svg xmlns="http://www.w3.org/2000/svg" viewBox="0 0 48 48" version="1.1">
  <path
     style="fill:#ffffff;"
     d="m 32.960064,20.369831 c -2.324239,4.044447 -4.650746,8.08606 -6.971582,12.132209 -0.431045,0.751493 -1.057762,1.206358 -1.917582,1.268747 -0.963613,0.06976 -1.720209,-0.336896 -2.205702,-1.172896 -1.470657,-2.534657 -2.924866,-5.079522 -4.385314,-7.619851 -0.888178,-1.546089 -1.77976,-3.08991 -2.663969,-4.637702 -0.892149,-1.561403 0.114,-3.459133 1.90397,-3.551014 0.945463,-0.04877 1.674269,0.387373 2.15409,1.209761 0.655641,1.124686 1.299373,2.256178 1.948208,3.384268 0.46791,0.812746 0.926179,1.631164 1.407701,2.435403 0.696478,1.167224 1.720777,1.825702 3.083672,1.907374 1.929492,0.115128 3.721164,-1.284061 3.952,-3.339463 0.01758,-0.154269 0.02893,-0.307404 0.03573,-0.386239 -0.01021,-0.665284 -0.134417,-1.225641 -0.398149,-1.754239 -0.720298,-1.445701 0.04707,-3.065522 1.613582,-3.413194 1.275553,-0.282447 2.595344,0.656776 2.764359,1.953881 0.07373,0.57 -0.03857,1.092358 -0.321015,1.582955 M 23.998161,5.0006699 c -8.325779,0 -12.954879,-9.322e-4 -15.9779122,3.022095 -3.0230275,3.0224571 -3.0220955,7.6521301 -3.0220955,15.9779091 0,8.325206 -9.32e-4,12.954878 3.0220955,15.977905 3.0230332,3.023026 7.6521332,3.022095 15.9779122,3.022095 8.325779,0 12.955452,9.5e-4 15.977905,-3.022095 3.023027,-3.023027 3.022095,-7.652699 3.022095,-15.977905 0,-8.325779 9.32e-4,-12.955452 -3.022095,-15.9779091 C 36.953613,4.9997377 32.32394,5.0006699 23.998161,5.0006699 Z m -0.157714,4.7500004 c 3.606312,0 7.21227,1.3768757 9.963866,4.1307417 5.503195,5.507731 5.503194,14.436805 0,19.94397 -5.503194,5.507729 -14.424541,5.50773 -19.927734,0 -5.5032016,-5.507165 -5.5032016,-14.436239 0,-19.94397 2.751597,-2.753866 6.357554,-4.1307417 9.963868,-4.1307417 z"
     id="path816" />
</svg>
