<?xml version="1.0" encoding="UTF-8"?>
<svg enable-background="new 0 0 48 48" version="1.1" viewBox="0 0 48 48" xml:space="preserve" xmlns="http://www.w3.org/2000/svg">
<style type="text/css">
	.st0{fill:#FFFFFF;}
</style>

<g transform="matrix(1.5003 0 0 1.5002 -48.312 -91.513)">
	<path class="st0" d="m60.9 70.2c0.2-0.6 0-1.1-0.9-1.1h-2.9c-0.7 0-1.1 0.4-1.3 0.8 0 0-1.5 3.6-3.6 6-0.7 0.7-1 0.9-1.4 0.9-0.2 0-0.5-0.2-0.5-0.8v-5.8c0-0.7-0.2-1.1-0.8-1.1h-4.5c-0.5 0-0.7 0.3-0.7 0.7 0 0.7 1.1 0.9 1.2 2.8v4.3c0 0.9-0.2 1.1-0.5 1.1-1 0-3.4-3.6-4.8-7.8-0.3-0.8-0.6-1.1-1.3-1.1h-2.9c-0.8 0-1 0.4-1 0.8 0 0.8 1 4.6 4.6 9.7 2.4 3.5 5.8 5.3 8.9 5.3 1.9 0 2.1-0.4 2.1-1.1v-2.6c0-0.8 0.2-1 0.8-1 0.4 0 1.2 0.2 2.9 1.9 2 2 2.3 2.9 3.4 2.9h2.9c0.8 0 1.2-0.4 1-1.2-0.3-0.8-1.2-2-2.5-3.4-0.7-0.8-1.7-1.7-2-2.1-0.4-0.6-0.3-0.8 0-1.3-0.1-0.1 3.4-5.1 3.8-6.8z"/>
</g>
</svg>
