<?xml version="1.0" encoding="UTF-8"?>
<svg viewBox="0 0 48 48" xmlns="http://www.w3.org/2000/svg">
    <defs>
        <style>.cls-1{fill:#fff;}</style>
    </defs>
    <g data-name="Layer 1">
        <polygon class="cls-1" points="21.29 26.39 26.71 26.39 24 21.61"/>
        <path class="cls-1" d="M39.3,9.74,26.18,4.43a5.74,5.74,0,0,0-4.36,0L8.35,9.74A2.1,2.1,0,0,0,7,11.68v12.8C7,35.93,18.94,44,24,44s16.6-8.07,16.6-19.52V11.68A2.09,2.09,0,0,0,39.3,9.74ZM31.93,29.27a2.11,2.11,0,0,1-1.82,1.05H17.89a2.11,2.11,0,0,1-1.83-3.15l6.1-10.78a2.12,2.12,0,0,1,3.68,0l6.1,10.78A2.1,2.1,0,0,1,31.93,29.27Z"/>
    </g>
</svg>
