<?xml version="1.0" encoding="UTF-8"?>
<svg viewBox="0 0 48 48" xmlns="http://www.w3.org/2000/svg">
    <defs>
        <style>.a{fill:#fff;}</style>
    </defs>
    <path class="a" d="M41.43,35.2a8.55,8.55,0,0,1-1.11-2.05,9,9,0,0,1-.7-5,1.27,1.27,0,0,0-1.17.69,3.93,3.93,0,0,0-4.07-2.66l-1.69.14a8.58,8.58,0,0,0-1.33.22,10.31,10.31,0,0,1-2,.34c-1.81,0-.6-1.73-1.4-1.73a2.23,2.23,0,0,0-2.05,2.2c-.16,2.59-1.73,3-2.58,3a.65.65,0,0,0-.54.21c-.15.15-2.37,2.89-3.12,3.77h-.73c-.44,0-.6.82-.6,1.4l1.08-.35a.5.5,0,0,0,.36-.41l.21,0a32.8,32.8,0,0,1,3.2-2.85,16.14,16.14,0,0,0,5.48-2.29A2.63,2.63,0,0,1,28,31.05c-.33.33-.22.51,0,.77a25.4,25.4,0,0,1,2.37,2.54,2.17,2.17,0,0,0-.21.69c0,.24.57.79,1.13.92,0,0,0-1.08-.05-1.21s-.05-.33-.21-.43a1.44,1.44,0,0,1,.14-.25l-1.79-2.62a14.22,14.22,0,0,0,2.08-2.83c1.65.42,3.8,1.83,5.9,1.6,0,0,1.15,1.83,1.74,2.92a9.17,9.17,0,0,1,1.27,2,.53.53,0,0,1,.45.25,3.31,3.31,0,0,0,0,.37,1.16,1.16,0,0,0,.15.56h1.5c-.13-.18-.61-.78-.67-.86A.7.7,0,0,0,41.43,35.2Z"/>
    <path class="a" d="M44.55,28.16c0-.06,0-.17-.22-.17H40.08a1.31,1.31,0,0,0,1.16,1.68,9.61,9.61,0,0,0,2.43-.7l-.06.28a16.31,16.31,0,0,1,.3,2.66,1.18,1.18,0,0,0-.7.13,1.42,1.42,0,0,0-.44,1.28l1.11-.46c.27-.13.33-.21.33-.45s.39-.43.39-.43C44.65,31.8,44.44,30,44.55,28.16Z"/>
    <path class="a" d="M7.09,32.38c.12.19.76-.16,1.29-.47a2.2,2.2,0,0,0,.3.31c-.22.4-.42.72-.43.75-.32.54-.82,1.36-.59,1.49s.67-.7,1-1.25c0,0,.21-.35.43-.75a2.58,2.58,0,0,0,.42.13v.84c0,.65,0,1.59.24,1.59s.24-1,.24-1.59V32.6a2.24,2.24,0,0,0,.45-.09c.21.38.38.67.4.7.32.55.77,1.38,1,1.25s-.27-1-.59-1.49l-.4-.69a1.32,1.32,0,0,0,.35-.32l.66.39c.54.32,1.36.81,1.49.59s-.71-.67-1.25-1c0,0-.29-.16-.64-.36a2.9,2.9,0,0,0,.14-.48h.74c.64,0,1.58,0,1.58-.24s-1-.24-1.58-.24H11.6a2,2,0,0,0-.13-.5c.54-.34,1.09-.71,1-.85s-.69.14-1.25.45a1.62,1.62,0,0,0-.37-.37c.21-.34.35-.61.37-.63.32-.54.82-1.36.59-1.49s-.67.71-1,1.25c0,0-.18.29-.37.65A1.66,1.66,0,0,0,10,29c0-.56-.08-1.09-.22-1.09s-.21.55-.23,1.13A1.82,1.82,0,0,0,8,30.84a2,2,0,0,0,.15.69C7.61,31.83,7,32.2,7.09,32.38Z"/>
    <path class="a" d="M10.41,25.31a5.55,5.55,0,0,0-6.1,4.94,7.23,7.23,0,0,0,0,1.52c.21-.05.42-.05.42-.47a6.72,6.72,0,0,1,.09-1.13,11.07,11.07,0,0,0,1.83-.8l.53-.32c.38-.25.78-.6.8-.61l.43-.39A4.36,4.36,0,0,0,9.63,26.1a5.16,5.16,0,0,1,.68,0,4.75,4.75,0,0,1,4.22,5.21,4.8,4.8,0,0,1-5.21,4.27c-2.59-.25-3.17-1.47-3.62-.89a6.4,6.4,0,0,0,3.54,1.63,5.55,5.55,0,1,0,1.17-11Z"/>
    <path class="a" d="M16.8,15.51l.16.16a2.38,2.38,0,0,1,.76-.08.45.45,0,0,0,.46-.43V15c5-.69,12,6.34,15.67,6.34l.13-.14c-2.95,0-10.7-7.5-16.06-6.39l-.52,0c-.13,0-.31.3-.79.3a13.54,13.54,0,0,1-1.78-.33s-.19-.42-.22-.5.06-.21.16-.21l.38,0c.08,0,.12,0,.15-.13s.08-.22.14-.46.07-.42.07-.42h.8c.06,0,.09,0,.08-.1s-.23-.48-.87-.51l.05-.72c-.27-.08-1.46-.19-1.63.42l-.06.32c-.5.05-.89.15-.92.3s.7.39,1,.43c0,0-.37.63-.61.68h0a5.5,5.5,0,0,0-1.71,1.62c-.12.15-.64.88-.93,1.33l0,.83a1,1,0,0,0,1,1.07l1.62.05,1.3,1.36.9-1.81c.24-.51.2-1-.9-1.14-.31,0-.66,0-.93-.06l.48-.82.67.44,2.44.14a.25.25,0,0,0,.25-.24l0-.31c2.8-1.08,8.54,7.23,14.77,5.56l-.08-.06c-6.62.45-11.63-6.79-14.75-5.77h-.47a1,1,0,0,0-.61.19l-.69-.13-.32-.34.56,0Z"/>
    <path class="a" d="M18.82,17.56a.44.44,0,0,0-.38-.13l-3.51,3.5-5-.14,0-4.27,0-2.2c-.46-.07-1.4-.21-2.71-.37l0-1.5-3.19-.11c-.21-.41-.09-.69-.59-.72l-.11,4.21,1,.07-1-.07-.36,9.28,0,1.1a11.68,11.68,0,0,0,4.46-1.47l0-.38s.35-3,.42-5.41A1.07,1.07,0,0,0,7,18.49c-.51,0-.85.17-.85.49s.08.23.08.34a2.37,2.37,0,0,0-.09.59c0,.39.09.79.25.82s.61-.1.76.29a1.18,1.18,0,0,1-.52,1.26,4.33,4.33,0,0,1-2.42.85l.07-5.78,2.85,0a1.68,1.68,0,0,0,1.31-1.1l.68.09c0,.49-.18,5.62-.2,6.63a3.73,3.73,0,0,1-.15,1.64,3.65,3.65,0,0,1,1.05-.07h1.33c3.06.1,4-.58,5.08-1.5.66-.57,2.47-2.33,2.47-2.33H17.6a.74.74,0,0,0-.4.14.58.58,0,0,1-.4.14L16,21l2.83-2.83A.41.41,0,0,0,18.82,17.56Z"/>
    <path class="a" d="M19.93,27.2a3.11,3.11,0,0,0,3.31-1.1h0c.89-1.32,2.62-1.22,3.42-1.12l.32-.37a5.47,5.47,0,0,0-2.81-.79c-2.35,0-3.22,1.36-4.9,1.38a2.82,2.82,0,0,1-1.83-.83l-.08.08A3.46,3.46,0,0,0,19.93,27.2Z"/>
    <path class="a" d="M44.3,21.32a4.11,4.11,0,0,0-.1-.41h0c-4.6.18-5.58,3.54-6.09,4.48a3.92,3.92,0,0,1,2,2.39S41,23.85,41.76,23a2.23,2.23,0,0,1,1.83-1c.08.14.67,1.73.71,1.79.11.31-.17.47-.36.26s-.64.21-.64.21a.49.49,0,0,0,.23.54.4.4,0,0,0,.33,0l.42.17a1.69,1.69,0,0,1,.37-.41A.72.72,0,0,0,45,24,12.13,12.13,0,0,1,44.3,21.32Z"/>
    <path class="a" d="M44.05,20.3a2.6,2.6,0,0,0-.2-1.11c-.07-.11-.28-.14-.53.37-.1.18-.19.11-.21,0,0-.24.06-.7-.58-.72-1.29,0-3.19,1.16-4.82.11a3.54,3.54,0,0,0,1.12,1.22,6.59,6.59,0,0,0-.75-.05c-2,0-2.45,2.39-5,1.7a2.88,2.88,0,0,0,2.55,1.24,3.58,3.58,0,0,1-2,.29c-2.09-.51-5.33-.23-6.46,1.28l.1,0A8.88,8.88,0,0,1,33,24.14a5.12,5.12,0,0,0,4-1.28,8.63,8.63,0,0,1,2.84-2.34C41.88,20,42.87,19.43,44.05,20.3Z"/>
</svg>
