<?xml version="1.0" encoding="UTF-8"?>
<svg version="1.1" viewBox="0 0 48 48" xmlns="http://www.w3.org/2000/svg">
    <path d="M23.616 5.337A26.361 26.361 0 005.36 13.053l3.518 3.518a21.387 21.387 0 0130.244 0l3.518-3.518a26.361 26.361 0 00-19.024-7.716zm.085 5.966a20.393 20.393 0 00-14.12 5.971l3.515 3.518a15.419 15.419 0 0121.808 0l3.515-3.518a20.393 20.393 0 00-14.718-5.97zm.088 5.969a14.424 14.424 0 00-9.987 4.223l3.515 3.518a9.45 9.45 0 0113.366 0l3.515-3.518a14.424 14.424 0 00-10.409-4.223zm.087 5.969a8.455 8.455 0 00-5.856 2.475L24 31.693l5.98-5.977a8.455 8.455 0 00-6.104-2.475zm-9.992 7.013a6.206 6.206 0 00-6.206 6.206 6.206 6.206 0 006.206 6.206 6.206 6.206 0 006.206-6.206 6.206 6.206 0 00-6.206-6.206zm24.074 2.16c-.944 0-1.71.316-2.3.95-.587.633-.88 1.43-.88 2.388v1.416c0 .961.294 1.759.884 2.393.59.63 1.356.945 2.296.945.965 0 1.75-.315 2.351-.945.605-.634.907-1.432.907-2.393v-1.416c0-.958-.302-1.755-.907-2.388-.605-.634-1.39-.95-2.351-.95zm-24.682.113h1.249l2.71 7.866H15.88l-.599-1.837h-2.788l-.606 1.837h-1.355zm7.765 0v5.18c0 .875.279 1.56.84 2.058.563.493 1.29.74 2.183.74.908 0 1.648-.247 2.22-.74.577-.497.866-1.183.866-2.058v-5.18h-1.313v5.18c0 .558-.162.99-.486 1.297-.324.303-.754.453-1.287.453-.515 0-.928-.15-1.242-.453-.313-.306-.47-.74-.47-1.297v-5.18zm7 0v1.054h2.393v6.812h1.314V33.58h2.43v-1.054zm9.917.967c.598 0 1.072.211 1.422.633.349.421.523.959.523 1.614v1.427c0 .666-.174 1.208-.523 1.63-.346.421-.82.632-1.422.632-.576 0-1.031-.21-1.366-.632-.335-.425-.502-.968-.502-1.63V35.74c0-.655.166-1.193.497-1.614.335-.422.791-.633 1.371-.633zm-24.077.863l-1.027 3.101h2.07l-1.01-3.1z" fill="#fff"/>
</svg>
