<?xml version="1.0" encoding="UTF-8" standalone="no"?>
<svg
   xmlns:dc="http://purl.org/dc/elements/1.1/"
   xmlns:cc="http://creativecommons.org/ns#"
   xmlns:rdf="http://www.w3.org/1999/02/22-rdf-syntax-ns#"
   xmlns:svg="http://www.w3.org/2000/svg"
   xmlns="http://www.w3.org/2000/svg"
   id="svg5104"
   version="1.1"
   viewBox="0 0 48 48"
   height="48"
   width="48">
  <metadata
     id="metadata5110">
    <rdf:RDF>
      <cc:Work
         rdf:about="">
        <dc:format>image/svg+xml</dc:format>
        <dc:type
           rdf:resource="http://purl.org/dc/dcmitype/StillImage" />
        <dc:title></dc:title>
      </cc:Work>
    </rdf:RDF>
  </metadata>
  <defs
     id="defs5108" />
  <path
     style="fill:#ffffff;stroke-width:1.1875;paint-order:markers fill stroke"
     d="M 8.5625,5 C 6.588875,5 5,6.588875 5,8.5625 v 30.875 C 5,41.411125 6.588875,43 8.5625,43 h 30.875 C 41.411125,43 43,41.411125 43,39.4375 V 8.5625 C 43,6.588875 41.411125,5 39.4375,5 Z m 23.82125,9.933438 h 5.985 l 0.06175,0.05937 v 0.57 c 0,0.15675 -0.08312,0.2375 -0.241063,0.2375 -0.787312,0.03563 -1.365625,0.222063 -1.745625,0.554563 -0.376437,0.334875 -0.66975,0.795625 -0.881125,1.3965 0,0 -4.874687,12.2075 -6.543125,16.26875 -0.6365,1.33 -1.2635,1.208875 -1.8145,-0.03563 -0.751687,-1.698125 -2.11375,-4.975625 -3.180125,-7.546563 -1.136437,2.573313 -2.603,5.86625 -3.437812,7.558438 -0.744563,1.416687 -1.357313,1.231437 -1.845375,0.03562 -1.693375,-4.373562 -5.170375,-12.053125 -6.80675,-16.36375 -0.300437,-0.790875 -0.529625,-1.300312 -0.744563,-1.502187 -0.217312,-0.198313 -0.665,-0.318251 -1.350187,-0.358626 -0.252937,-0.0285 -0.377625,-0.095 -0.377625,-0.201875 v -0.598499 l 0.05937,-0.05937 c 1.11625,-0.0083 6.5075,0 6.5075,0 l 0.06294,0.05937 v 0.569999 c 0,0.157938 -0.09025,0.23275 -0.273125,0.23275 l -0.676875,0.03325 c -0.581875,0.02613 -0.874,0.217313 -0.874,0.57 0,0.16625 0.05938,0.43225 0.197125,0.790875 1.303875,3.479375 5.806875,13.87 5.806875,13.87 l 0.162687,0.0475 2.904625,-6.34125 -0.581875,-1.406 -1.995,-4.292812 c 0,0 -0.385937,-0.858563 -0.516562,-1.143563 -0.876375,-1.9 -0.857375,-2.002125 -1.74325,-2.131562 -0.249375,-0.03563 -0.376438,-0.07125 -0.376438,-0.205438 v -0.602062 l 0.07481,-0.05937 h 5.16325 l 0.136563,0.0475 v 0.599687 c 0,0.136563 -0.08906,0.206625 -0.273125,0.206625 l -0.374063,0.05938 c -0.946437,0.07838 -0.790875,0.502313 -0.162687,1.87625 l 1.911875,4.286875 2.117312,-4.6265 c 0.35625,-0.846687 0.285,-1.05925 0.13775,-1.255187 -0.08313,-0.10925 -0.36575,-0.287375 -0.9785,-0.3135 l -0.241062,-0.02612 a 0.273125,0.273125 0 0 1 -0.173375,-0.0665 0.201875,0.201875 0 0 1 -0.08313,-0.168625 v -0.57 l 0.076,-0.05937 c 1.49625,-0.01187 4.865187,0 4.865187,0 l 0.05937,0.06175 v 0.57 c 0,0.157937 -0.08075,0.235125 -0.239875,0.235125 -0.78375,0.03919 -0.94525,0.127062 -1.231437,0.5795 a 25.65,25.65 0 0 0 -0.787313,1.37275 l -2.752625,5.6335 -0.07838,0.17575 3.365375,7.53825 0.20425,0.05938 5.29625,-13.763125 c 0.18525,-0.553375 0.15675,-0.94525 -0.07956,-1.175625 -0.2375,-0.225625 -0.40375,-0.361 -1.02125,-0.388313 l -0.495187,-0.02969 a 0.2755,0.2755 0 0 1 -0.17575,-0.06769 0.201875,0.201875 0 0 1 -0.08313,-0.16625 v -0.578312 l 0.076,-0.05937 z"
     id="path6049" />
</svg>
