<?xml version="1.0" encoding="UTF-8"?>
<svg viewBox="0 0 48 48" xmlns="http://www.w3.org/2000/svg">
    <path d="M8.563 5A3.555 3.555 0 0 0 5 8.563v30.874A3.555 3.555 0 0 0 8.563 43h30.874A3.555 3.555 0 0 0 43 39.437V8.564A3.555 3.555 0 0 0 39.437 5zm23.82 9.933h5.986l.06.06v.57c0 .157-.083.237-.24.237-.788.036-1.366.222-1.746.555-.377.335-.67.795-.88 1.396 0 0-4.876 12.21-6.544 16.27-.637 1.33-1.264 1.21-1.815-.036-.752-1.698-2.114-4.975-3.18-7.546-1.136 2.573-2.603 5.866-3.438 7.558-.744 1.417-1.357 1.232-1.845.036-1.694-4.374-5.17-12.053-6.807-16.364-.3-.79-.53-1.3-.745-1.502-.217-.198-.665-.318-1.35-.36-.253-.027-.377-.094-.377-.2v-.6l.06-.058c1.115-.01 6.506 0 6.506 0l.062.06v.57c0 .157-.09.232-.273.232l-.678.033c-.58.026-.874.217-.874.57 0 .166.06.432.198.79 1.303 3.48 5.806 13.87 5.806 13.87l.163.048 2.905-6.34-.582-1.406-1.995-4.293s-.386-.857-.517-1.142c-.876-1.9-.857-2.002-1.743-2.132-.25-.035-.376-.07-.376-.205V15l.074-.06h5.165l.136.047v.6c0 .136-.088.206-.272.206l-.374.06c-.946.078-.79.502-.163 1.876l1.913 4.286 2.118-4.627c.357-.848.286-1.06.138-1.256-.083-.11-.365-.287-.978-.314l-.24-.026a.273.273 0 0 1-.175-.066.202.202 0 0 1-.083-.17v-.57l.076-.058c1.496-.012 4.865 0 4.865 0l.06.062v.57c0 .158-.08.235-.24.235-.784.04-.945.127-1.232.58a25.65 25.65 0 0 0-.786 1.372l-2.752 5.633-.08.175 3.367 7.54.203.058 5.296-13.763c.184-.554.156-.945-.08-1.176-.238-.225-.404-.36-1.022-.388l-.495-.03a.276.276 0 0 1-.176-.07.202.202 0 0 1-.083-.165v-.578l.076-.06z" fill="#fff"/>
</svg>
