<?xml version="1.0" encoding="UTF-8"?>
<svg viewBox="0 0 48 48" xmlns="http://www.w3.org/2000/svg">
    <path d="m47.959 23.29s1.1103-23.289-24.486-23.289c-22.637 0-23.344 22.341-23.344 22.341s-3.3297 25.659 23.865 25.659c26.083 0 23.964-24.71 23.964-24.71zm-31.648-8.138c4.8027-2.9382 10.938-1.1424 13.237 3.2761 0.43572 0.83741 0.4911 2.1265 0.21515 3.0051-0.95272 3.0329-3.2022 4.7339-6.2898 5.4564 0.91026-0.7793 1.6349-1.663 1.8654-2.884a4.2243 4.2243 0 0 0-0.72679-3.3529 4.2815 4.2815 0 0 0-4.9297-1.5022c-1.9009 0.72175-2.9422 2.4566-2.7545 4.5892 0.17437 1.981 1.6774 3.2648 4.4897 3.7524-0.42031 0.22246-0.74404 0.3863-1.0608 0.56275a10.227 10.227 0 0 0-3.287 2.8588c-0.28542 0.38535-0.48166 0.41639-0.91631 0.1506-5.654-3.4576-6.0174-12.135 0.15716-15.912zm-4.2318 21.365c-0.90829 0.23056-1.7885 0.57187-2.7169 0.87639 0.45415-3.0641 4.0423-5.886 7.0767-5.5641a7.8209 7.8209 0 0 0-1.4787 4.1428c-1.0083 0.1857-1.9585 0.31063-2.8811 0.5448zm19.326-29.916c0.89757 0.033 1.7968 0.0194 2.695 0.0406a4.6483 4.6483 0 0 1 0.66678 0.0928 6.497 6.497 0 0 1-0.6777 0.8693c-0.32112 0.29921-0.68391 0.59176-1.1466 0.13696-0.11128-0.10941-0.37417-0.0843-0.56778-0.0868-0.89316-0.0118-1.7875-0.0402-2.6793-6e-3a16.646 16.646 0 0 0-2.308 0.23567c-0.14299 0.0257-0.35678 0.50103-0.29105 0.67631 0.15509 0.41364 0.38132 0.8698 0.71646 1.1344 1.2384 0.97759 2.5555 1.8553 3.7996 2.8262 1.2089 0.94345 2.3342 1.9772 3.02 3.4004 0.89348 1.8544 0.91951 3.7988 0.5342 5.7519-0.64324 3.2604-2.2933 5.9617-4.9651 7.9237-1.0766 0.79055-2.4096 1.2392-3.6427 1.8072-1.0845 0.49959-2.2008 0.92984-3.2878 1.4241-1.9598 0.89111-3.0612 3.0184-2.7372 5.23 0.29736 2.0296 2.0779 3.7233 4.1175 4.0729 2.4467 0.41946 4.9713-1.1706 5.5698-3.6576 0.67306-2.7964-0.84636-5.2932-3.6904-6.05-0.12523-0.0333-0.25094-0.0649-0.51218-0.1323 0.76077-0.33992 1.4178-0.5821 2.0245-0.9159q1.5874-0.87348 3.1169-1.8499c0.29987-0.19183 0.46188-0.19192 0.71762 0.0291 1.956 1.6912 3.1228 3.7948 3.45 6.3742 0.54151 4.2694-1.4795 8.1916-5.2915 10.202-5.8975 3.1102-13.114-0.42983-14.417-6.9682-1.1158-5.6004 2.8368-10.68 7.5938-11.661 2.0459-0.42182 3.9168-1.2735 5.3711-2.8491 0.93842-1.0166 1.3933-1.8889 1.5483-2.2825a6.3303 6.3303 0 0 0 0.43537-2.315 5.4187 5.4187 0 0 0-0.47446-1.9837c-0.49663-1.132-2.3992-2.9328-2.8702-3.3126l-4.4799-3.5073c-0.15802-0.13-0.3359-0.12058-0.72126-0.0944-0.45777 0.0311-1.628 0.0958-2.1329-0.0365 0.40848-0.30914 1.5221-0.75921 2.0003-1.1211-1.4517-0.98074-3.1088-0.62651-4.6305-0.91936 0.35187-0.65533 2.0929-1.6624 3.0832-1.7746a14.645 14.645 0 0 0-0.27001-1.645c-0.06044-0.22266-0.30899-0.43852-0.52582-0.56566-0.52575-0.30826-1.0831-0.56266-1.6878-0.86923a3.5097 3.5097 0 0 1 1.8131-0.56087 6.7705 6.7705 0 0 1 1.8157 0.1769c1.0787 0.24647 1.9398 0.0855 2.798-0.64768-0.67551-0.27203-1.3509-0.52054-2.0061-0.8145a19.686 19.686 0 0 1-1.8846-0.98531c1.6995 0.23607 3.3433 0.87334 5.0811 0.64054q0.02219-0.11848 0.04436-0.23695c-1.2991-0.30239-2.5982-0.60475-4.0366-0.93958 2.4064-0.22029 4.6467-0.25663 6.7681 0.77666 0.59695 0.29076 1.2216 0.53143 1.7937 0.86353 0.27908 0.16198 0.46697 0.48126 0.69593 0.72951 0.18186 0.19719 0.32792 0.46137 0.55135 0.58022 0.84799 0.45093 1.7814 0.46863 2.7324 0.44605 0.0071-0.1083 0.01378-0.20982 0.02093-0.31892 0.95712 0.29908 2.0344 1.4028 2.0326 2.2089-1.5506 0-3.0998-6e-3 -4.6489 9e-3 -0.16557 1e-3 -0.33001 0.12249-0.49497 0.18807 0.15678 0.0913 0.31084 0.2559 0.47076 0.26178z" fill="#fff"/>
    <path d="m29.405 4.3055a0.23689 0.23689 0 0 0-0.03029 0.37897 0.35721 0.35721 0 0 0 0.49158 0.1315c0.14925-0.0753 0.29565-0.15542 0.476-0.25064-0.14526-0.124-0.26179-0.22635-0.38171-0.32518-0.21088-0.17376-0.38576-0.0645-0.55558 0.0653z" fill="#fff"/>
</svg>
