<?xml version="1.0" encoding="UTF-8"?>
<svg version="1.1" viewBox="0 0 48 48" xmlns="http://www.w3.org/2000/svg">
    <path d="m24 2a22 22 0 0 0 -22 22 22 22 0 0 0 22 22 22 22 0 0 0 22 -22 22 22 0 0 0 -22 -22zm0 11.543c1.8429 0 3.3516 1.5109 3.3516 3.3535v9.1406h0.001954v0.5c-4.21e-4 1.9756-0.81029 3.7229-2.0117 5.1113 0.94289 0.59789 2.0252 0.99414 3.2266 0.99414 3.3839 0 6.1066-2.7235 6.1074-6.1074v-11.791h1.8125v11.793c-9.26e-4 4.3638-3.5558 7.9199-7.9199 7.9199-1.7132 0-3.2725-0.59354-4.5684-1.5215-1.2954 0.92783-2.8533 1.5215-4.5664 1.5215-4.3641 0-7.9209-3.556-7.9219-7.9199v-11.793h1.8125v11.791c8e-4 3.3837 2.7254 6.1074 6.1094 6.1074 1.2012 0 2.2823-0.39449 3.2246-0.99219-1.2023-1.3887-2.0113-3.1371-2.0117-5.1133v-9.6406c0-1.8429 1.5106-3.3535 3.3535-3.3535zm0 1.8145c-0.86307 0-1.5391 0.67599-1.5391 1.5391v9.6387c3.57e-4 1.5203 0.62375 2.8475 1.5391 3.9141 0.91307-1.0642 1.5342-2.3881 1.5371-3.9043v-9.6484c0-0.86354-0.67403-1.5391-1.5371-1.5391z" fill="#fff"/>
</svg>
