<?xml version="1.0" encoding="UTF-8"?>
<svg version="1.1" viewBox="0 0 48 48" xmlns="http://www.w3.org/2000/svg">
    <path d="m24 2a22 22 0 0 0-22 22 22 22 0 0 0 22 22 22 22 0 0 0 22-22 22 22 0 0 0-22-22zm-0.91406 2.7168c1.2016 0.02217 2.3548 0.21525 3.4688 0.75781 0.50151 0.24427 1.0252 0.4456 1.5059 0.72461 0.23446 0.13608 0.39159 0.40278 0.58398 0.61133 0.15278 0.16566 0.27713 0.38843 0.46484 0.48828 0.71242 0.37886 1.496 0.39397 2.2949 0.375 0.00597-0.090985 0.009625-0.17592 0.015625-0.26758 0.8041 0.25126 1.7105 1.1782 1.709 1.8555-1.3027 0-2.6029-0.0047875-3.9043 0.0078124-0.1391 8.401e-4 -0.27938 0.10115-0.41797 0.15625 0.13125 0.076435 0.26264 0.2148 0.39648 0.2207 0.75353 0.02762 1.5096 0.015403 2.2637 0.033203a3.9052 3.9052 0 0 1 0.56055 0.078125 5.4583 5.4583 0 0 1-0.56836 0.73047c-0.26978 0.25137-0.57417 0.49732-0.96289 0.11524-0.093489-0.09192-0.31586-0.070166-0.47852-0.072266-0.75037-0.0099-1.5008-0.034589-2.25-0.005859a13.985 13.985 0 0 0-1.9414 0.19726c-0.12013 0.021591-0.29936 0.42306-0.24414 0.57031 0.1303 0.34751 0.32196 0.72888 0.60352 0.95117 1.0404 0.8213 2.1482 1.5593 3.1934 2.375 1.0156 0.79262 1.959 1.6598 2.5352 2.8555 0.75064 1.5579 0.77293 3.1912 0.44922 4.832-0.5404 2.7391-1.9272 5.0099-4.1719 6.6582-0.90448 0.66416-2.0246 1.0423-3.0605 1.5195-0.91112 0.41972-1.8485 0.78007-2.7617 1.1953-1.6465 0.74864-2.573 2.5365-2.3008 4.3945 0.24982 1.7051 1.7474 3.1282 3.4609 3.4219 2.0555 0.3524 4.1749-0.98483 4.6777-3.0742 0.56546-2.3493-0.70831-4.4462-3.0977-5.082-0.10521-0.027979-0.21217-0.054708-0.43164-0.11133 0.63914-0.28558 1.1915-0.4891 1.7012-0.76953 0.88908-0.48922 1.7625-1.0078 2.6191-1.5547 0.25193-0.16116 0.38671-0.16029 0.60156 0.025391 1.6433 1.4208 2.6235 3.1865 2.8984 5.3535 0.45494 3.5868-1.2408 6.8833-4.4434 8.5723-4.9546 2.613-11.019-0.36047-12.113-5.8535-0.93741-4.705 2.3824-8.9727 6.3789-9.7969 1.7188-0.35438 3.2899-1.0708 4.5117-2.3945 0.78839-0.85407 1.1725-1.5873 1.3027-1.918a5.3182 5.3182 0 0 0 0.36523-1.9434 4.5524 4.5524 0 0 0-0.39844-1.668c-0.41723-0.95102-2.0164-2.4641-2.4121-2.7832l-3.7637-2.9473c-0.13276-0.10921-0.28172-0.10012-0.60547-0.078125-0.38458 0.02612-1.3688 0.079898-1.793-0.03125 0.34317-0.25972 1.2799-0.63737 1.6816-0.94141-1.2196-0.82395-2.6122-0.52545-3.8906-0.77148 0.29561-0.55056 1.7579-1.3979 2.5898-1.4922a12.304 12.304 0 0 0-0.22656-1.3809c-0.050777-0.18706-0.25924-0.36975-0.44141-0.47656-0.4417-0.25898-0.90994-0.47096-1.418-0.72852a2.9486 2.9486 0 0 1 1.5234-0.47266 5.6881 5.6881 0 0 1 1.5234 0.15039c0.90624 0.20707 1.6306 0.071041 2.3516-0.54492-0.56751-0.22854-1.1331-0.43663-1.6836-0.68359a16.539 16.539 0 0 1-1.584-0.83008c1.4278 0.19833 2.8096 0.73464 4.2695 0.53906 0.01243-0.066359 0.022737-0.13287 0.035156-0.19922-1.0914-0.25405-2.1802-0.50776-3.3887-0.78906 0.75813-0.069402 1.4958-0.11682 2.2168-0.10352zm4.6582 2.877c-0.07671 0.018331-0.15133 0.068527-0.22266 0.12305a0.19902 0.19902 0 0 0-0.023437 0.31836 0.3001 0.3001 0 0 0 0.41211 0.11133c0.12539-0.063261 0.24887-0.13094 0.40039-0.21094-0.12204-0.10418-0.21957-0.19041-0.32031-0.27344-0.088584-0.07302-0.16938-0.086689-0.24609-0.068359zm-7.2441 8.0332c2.9635-0.10722 5.8147 1.403 7.1426 3.9551 0.36606 0.70353 0.41347 1.7873 0.18164 2.5254-0.8004 2.548-2.6912 3.977-5.2852 4.584 0.76473-0.65471 1.3747-1.398 1.5684-2.4238a3.5489 3.5489 0 0 0-0.61133-2.8164 3.597 3.597 0 0 0-4.1426-1.2617c-1.597 0.60636-2.4702 2.0638-2.3125 3.8555 0.14649 1.6643 1.4088 2.7427 3.7715 3.1523-0.35311 0.18689-0.62451 0.32442-0.89062 0.47266a8.592 8.592 0 0 0-2.7617 2.4023c-0.23979 0.32374-0.40437 0.3483-0.76953 0.125-4.7501-2.9048-5.0565-10.194 0.13086-13.367 1.2609-0.77139 2.6315-1.1544 3.9785-1.2031zm-4.3535 15.193c0.16221-0.003136 0.32309 0.002629 0.48242 0.019532a6.5705 6.5705 0 0 0-1.2422 3.4805c-0.8471 0.15601-1.6448 0.26225-2.4199 0.45898-0.76308 0.1937-1.5032 0.48049-2.2832 0.73633 0.3577-2.4133 3.0298-4.6483 5.4629-4.6953z" fill="#fff"/>
</svg>
