<?xml version="1.0" encoding="UTF-8"?>
<svg enable-background="new 0 0 1881.25 1750" version="1.1" viewBox="0 0 48 48" xml:space="preserve" xmlns="http://www.w3.org/2000/svg"><path d="m14.109 3.5352c-1.0359 0-1.877 0.84115-1.877 1.877v6.3086h12.451c1.0345 0 1.8716 0.84245 1.875 1.877v21.83c-3e-3 1.0345-0.84052 1.8717-1.875 1.875h-12.451v5.2871c0 1.0359 0.84107 1.875 1.877 1.875h30.016c1.0359 0 1.875-0.8391 1.875-1.875v-37.178c0-1.0358-0.83912-1.877-1.875-1.877h-14.496zm-10.232 9.209c-1.0359 0-1.877 0.84116-1.877 1.877v18.76c0 1.0359 0.84107 1.875 1.877 1.875h18.76c1.0359 0 1.875-0.8391 1.875-1.875v-18.76c0-1.0358-0.83912-1.877-1.875-1.877zm14.877 5.1582h2.3223l-2.8672 12.197h-2.7129l-1.9434-8.0781c-0.05628-0.23229-0.1208-0.53666-0.19141-0.91016-0.0706-0.37349-0.11543-0.64646-0.13281-0.81836h-0.0332c-0.0223 0.1985-0.06731 0.49387-0.13281 0.88477-0.0655 0.3909-0.11668 0.67958-0.15625 0.86719l-1.8281 8.0527h-2.7598l-2.8809-12.191h2.3633l1.7773 8.5293c0.03991 0.17499 0.07838 0.40866 0.11523 0.69727 0.03666 0.28958 0.061 0.53996 0.07227 0.75585h0.04297c0.01625-0.20457 0.04971-0.45163 0.10156-0.74023 0.05186-0.2886 0.09905-0.53127 0.14062-0.73047l1.9727-8.5117h2.5508l2.0469 8.3828c0.1189 0.52129 0.20311 1.0498 0.25391 1.582h0.0352c0.0381-0.5156 0.10929-1.0287 0.21289-1.5352z" fill="#fff"/></svg>
