<?xml version="1.0" encoding="UTF-8"?>
<svg viewBox="0 0 48 48" xmlns="http://www.w3.org/2000/svg">
    <defs>
        <style>.cls-1{fill:#fff;}</style>
    </defs>
    <g data-name="Layer 1">
        <path class="cls-1" d="M32.69,39.83a2.58,2.58,0,0,1-4.66,0l-3.2-6.74a.54.54,0,0,1,0-.43l2.31-4.85a.49.49,0,0,1,.89,0l2.33,4.9,8-16.86H31.91l-5,9.53,0,0-.58,1.11L24,31.37l0,0-4,8.5a2.58,2.58,0,0,1-4.66,0L3.25,14.38A2.58,2.58,0,0,1,5.58,10.7H17.64a2.58,2.58,0,0,1,2.28,1.37l3.25,6.15a.5.5,0,0,1,0,.46l-2.35,4.48a.49.49,0,0,1-.87,0l-3.86-7.31H9.65l8,16.86.81-1.7,0,0,3.24-6.83,4-7.59,0,0,2.4-4.53a2.57,2.57,0,0,1,2.28-1.37H42.42a2.58,2.58,0,0,1,2.33,3.68Z"/>
    </g>
</svg>
