<?xml version="1.0" encoding="UTF-8" standalone="no"?>
<svg
   xmlns:dc="http://purl.org/dc/elements/1.1/"
   xmlns:cc="http://creativecommons.org/ns#"
   xmlns:rdf="http://www.w3.org/1999/02/22-rdf-syntax-ns#"
   xmlns:svg="http://www.w3.org/2000/svg"
   xmlns="http://www.w3.org/2000/svg"
   width="48"
   height="48"
   viewBox="0 0 48 48"
   version="1.1"
   id="svg5059">
  <metadata
     id="metadata5065">
    <rdf:RDF>
      <cc:Work
         rdf:about="">
        <dc:format>image/svg+xml</dc:format>
        <dc:type
           rdf:resource="http://purl.org/dc/dcmitype/StillImage" />
        <dc:title></dc:title>
      </cc:Work>
    </rdf:RDF>
  </metadata>
  <defs
     id="defs5063" />
  <path
     id="path4601"
     d="M 24 2 A 22 22 0 0 0 2 24 A 22 22 0 0 0 24 46 A 22 22 0 0 0 46 24 A 22 22 0 0 0 24 2 z M 33.435547 9.1796875 A 1.6631909 1.4981156 0 0 1 34.173828 9.3164062 L 20.757812 22.119141 L 16.828125 17.611328 L 19.84375 16.041016 L 32.654297 9.3808594 A 1.6631909 1.4981156 0 0 1 33.435547 9.1796875 z M 34.800781 9.765625 A 1.6631909 1.4981156 0 0 1 35.146484 10.677734 L 35.146484 24.003906 L 35.146484 37.322266 A 1.6631909 1.4981156 0 0 1 34.798828 38.238281 L 22.396484 24.001953 L 34.800781 9.765625 z M 13.759766 19.207031 L 18.787109 24.001953 L 13.761719 28.796875 L 7.0332031 25.298828 A 1.6631909 1.4981156 0 0 1 7.0332031 22.705078 L 13.759766 19.207031 z M 20.757812 25.884766 L 34.171875 38.683594 A 1.6631909 1.4981156 0 0 1 32.654297 38.623047 L 19.84375 31.958984 L 16.830078 30.392578 L 20.757812 25.884766 z "
     style="fill:#ffffff" />
</svg>
