<?xml version="1.0" encoding="UTF-8"?>
<svg version="1.1" viewBox="0 0 48 48" xmlns="http://www.w3.org/2000/svg">
    <path d="m7 5c-1.108 0-2 0.892-2 2v16.441h3v-15.441h32v15.4h3v-16.4c0-1.108-0.892-2-2-2zm33 22.367v12.633h-32v-12.592h-3v13.592c0 1.108 0.892 2 2 2h34c1.108 0 2-0.892 2-2v-13.633z" fill="#fff"/>
    <path d="m5 7.6895v15.752h4v-15.752zm34 0v15.713h4v-15.713zm-22.082 11.715v14.166h14.164v-14.164h-13.061zm4 4h6.1641v6.166h-6.1641zm18.082 3.9629v12.943h4v-12.943zm-34 0.039062v12.904h4v-12.904z" fill="#fff"/>
    <path d="m39.636 5v4h-32.623v-4zm0.674 34v4h-32.62v-4z" fill="#fff"/>
    <path d="m22 6.438v15.268h4v-15.269z" fill="#fff"/>
    <path d="m6.438 19.423v4h13.52v-4zm23.308 0v4h11.814v-4z" fill="#fff"/>
    <rect x="9.0786" y="23.19" width="2.0169" height="4.3696" fill="#fff"/>
    <rect x="12.906" y="23.362" width="2.0169" height="4.1179" fill="#fff"/>
    <path d="m36.712 25.451 0.05085 12.125h-3.661v-10.142l-2.0494 0.03595-0.01592-1.9884c1.8916-0.04117 3.7836-0.03009 5.6755-0.03009z" fill="#fff"/>
    <rect x="36.661" y="23.339" width="2.4407" height="4.5367" fill="#fff"/>
    <path d="m6.438 27.423v4h13.52v-4zm23.308 0v4h11.814v-4z" fill="#fff"/>
</svg>
