<?xml version="1.0" encoding="UTF-8"?>
<svg viewBox="0 0 48 48" xmlns="http://www.w3.org/2000/svg">
    <defs>
        <style>.cls-1{fill:#fff;}</style>
    </defs>
    <g data-name="Layer 1">
        <path class="cls-1" d="M39.48,9.74,26.36,4.43a5.77,5.77,0,0,0-4.37,0L8.52,9.74a2.09,2.09,0,0,0-1.3,1.94v12.8c0,11.45,11.9,19.52,17,19.52s16.6-8.07,16.6-19.52V11.68A2.09,2.09,0,0,0,39.48,9.74ZM35,33.62A1.39,1.39,0,0,1,33.53,35,22.3,22.3,0,0,1,13,14.47,1.39,1.39,0,0,1,14.38,13h3a2.74,2.74,0,0,1,2.7,2.35,14.67,14.67,0,0,0,.52,2.2,1.61,1.61,0,0,1-.41,1.6L18.5,20.87a19.74,19.74,0,0,0,8.59,8.61l1.81-1.8a1.38,1.38,0,0,1,1.42-.34,15,15,0,0,0,2.31.56A2.86,2.86,0,0,1,35,30.63Z"/>
    </g>
</svg>
