<?xml version="1.0" encoding="UTF-8"?>
<svg enable-background="new" version="1.1" viewBox="0 0 48 48" xmlns="http://www.w3.org/2000/svg">
    <defs>
        <style>.a{fill:#3396cd;}.b{fill:#fff;}</style>
    </defs>
    <g>
        <g transform="matrix(.20858 0 0 .20858 -135.25 4.0001)" fill="#fff">
            <path d="m735.14 63.36c-0.039-1.66 0.376-3.3 1.202-4.74 0.825-1.441 2.029-2.629 3.481-3.434 1.452-0.806 3.098-1.199 4.757-1.136 1.998 0.141 3.88 0.997 5.3 2.41 12.022 11.707 18.95 27.7 19.266 44.478s-6.004 33.02-17.576 45.172c-2.47 2.49-5.73 4.47-9.32 4.6-1.325 0.113-2.657-0.134-3.854-0.715s-2.215-1.474-2.946-2.585c-0.565-1.029-0.906-2.167-0.999-3.337s0.064-2.347 0.459-3.453c0.977-2.76 2.567-5.263 4.65-7.32 6.124-6.68 10.119-15.038 11.47-24 1.154-7.243 0.569-14.657-1.707-21.629s-6.178-13.304-11.383-18.471c-0.829-0.74-1.503-1.638-1.984-2.64s-0.758-2.09-0.816-3.2z"/>
            <path d="m761 33.47c1.26-4.12 5.7-7.16 10-6.31 3.12 0.57 5.25 3.14 7.36 5.29 17.317 18.011 27.044 42.02 27.147 67.005 0.102 24.985-9.428 49.073-26.597 67.225-3.79 3.83-10.18 5.28-15 2.52-1.211-0.631-2.186-1.638-2.777-2.869s-0.768-2.621-0.503-3.961c0.78-3.61 3.89-5.92 6.28-8.48 7.632-8.279 13.405-18.096 16.93-28.79 4.14-12.567 5.123-25.963 2.86-39-2.895-16.801-11.123-32.233-23.46-44-1.166-1.062-2.002-2.439-2.404-3.965-0.403-1.525-0.356-3.135 0.134-4.635z"/>
            <path d="m785.49 9.35c-0.036-1.639 0.369-3.257 1.173-4.686 0.803-1.429 1.976-2.616 3.395-3.436s3.033-1.245 4.672-1.228c2.034 0.063 3.97 0.892 5.42 2.32 18.368 17.329 31.291 39.644 37.18 64.2 1.919 8.035 3.094 16.23 3.51 24.48 0.902 17.489-1.727 34.982-7.729 51.434-6.003 16.452-15.258 31.527-27.211 44.326-2.68 2.82-6.34 5.17-10.38 5-1.221-0.014-2.417-0.347-3.47-0.966-1.052-0.619-1.925-1.503-2.53-2.564-0.586-1.173-0.908-2.461-0.945-3.772-0.036-1.311 0.215-2.614 0.735-3.818 0.918-2.168 2.234-4.146 3.88-5.83 8.614-9.2 15.619-19.785 20.72-31.31 8.644-19.62 11.58-41.287 8.47-62.5-3.634-25.16-15.678-48.366-34.16-65.82-1.636-1.512-2.616-3.605-2.73-5.83z"/>
            <path d="m689.16 79.81q0-7.12 4-10.6t12.8-3.48q8.82 0 12.87 3.56t4.05 10.52q0 13.93-16.92 13.93-16.79 0-16.8-13.93zm0 46.25q0-7.12 4-10.6t12.8-3.49q8.82 0 12.87 3.57t4.05 10.52q0 13.94-16.92 13.93-16.79 0.01-16.8-13.93z"/>
        </g>
    </g>
</svg>
