<?xml version="1.0" encoding="UTF-8"?>
<svg enable-background="new 0 0 1881.25 1750" version="1.1" viewBox="0 0 48 48" xml:space="preserve" xmlns="http://www.w3.org/2000/svg"><path d="m6.4779 4.5451c-1.0621 0-1.916 0.85391-1.916 1.916v26.007h-2.5619v1.4087c0 0.7806 0.85392 1.4107 1.916 1.4107h4.3669v-25.706c0-1.2755 1.0268-2.3043 2.3023-2.3043h19.114c1.2755 0 2.3023 1.0288 2.3023 2.3043v25.706h12.08c1.0621 0 1.9179-0.63013 1.9179-1.4107v-1.4087h-2.5619v-26.007c0-1.0621-0.8559-1.916-1.9179-1.916zm5.7063 5.0227c-1.0621 0-1.916 0.85589-1.916 1.918v30.051c0 1.0621 0.85391 1.918 1.916 1.918h15.916c1.0621 0 1.918-0.85589 1.9179-1.918v-30.051c0-1.0621-0.85588-1.918-1.9179-1.918zm2.7521 1.8407a1.0145 1.0145 0 0 1 1.0145 1.0145 1.0145 1.0145 0 0 1-1.0145 1.0145 1.0145 1.0145 0 0 1-1.0145-1.0145 1.0145 1.0145 0 0 1 1.0145-1.0145zm3.396 0h5.0723c0.56201 0 1.0145 0.45245 1.0145 1.0145 0 0.56201-0.45245 1.0145-1.0145 1.0145h-5.0723c-0.56201 0-1.0145-0.45245-1.0145-1.0145 0-0.562 0.45245-1.0145 1.0145-1.0145z" fill="#fff"/></svg>
