<?xml version="1.0" encoding="UTF-8"?>
<svg width="48" height="48" version="1.1" viewBox="0 0 12.7 12.7" xmlns="http://www.w3.org/2000/svg">
    <g>
        <g transform="matrix(.26458 0 0 .26458 -49.134 -230.67)">
            <g transform="translate(25.456 -72.832)">
                <path d="m179.33 944.66a1.1087 1.1087 0 0 0-1.0985 0.96053l-0.85119 6.2369a18.096 18.096 0 0 0-4.2403 2.4547l-5.8334-2.3844a1.1087 1.1087 0 0 0-1.3822 0.47115l-4.9197 8.5223a1.1087 1.1087 0 0 0 0.28373 1.4317l5.0187 3.8889a18.096 18.096 0 0 0-0.15359 2.3558 18.096 18.096 0 0 0 0.17181 2.4677l-5.0369 3.902a1.1087 1.1087 0 0 0-0.28373 1.4317l4.9197 8.5223a1.1087 1.1087 0 0 0 1.3822 0.47115l5.9427-2.4286a18.096 18.096 0 0 0 4.1128 2.3662l0.86941 6.3696a1.1087 1.1087 0 0 0 1.0985 0.96053h9.8395a1.1087 1.1087 0 0 0 1.0985-0.96053l0.86943-6.3696a18.096 18.096 0 0 0 4.1154-2.3662l5.9401 2.4286a1.1087 1.1087 0 0 0 1.3822-0.47115l2.4599-4.2612 2.4599-4.2612a1.1087 1.1087 0 0 0-0.28373-1.4317l-5.0343-3.8994a18.096 18.096 0 0 0 0.16919-2.4703 18.096 18.096 0 0 0-0.15618-2.3558l5.0213-3.8889a1.1087 1.1087 0 0 0 0.28373-1.4317l-2.4599-4.2612-2.4599-4.2612a1.1087 1.1087 0 0 0-1.3822-0.47115l-5.836 2.3844a18.096 18.096 0 0 0-4.2378-2.4547l-0.85119-6.2369a1.1087 1.1087 0 0 0-1.0985-0.96053h-4.9197zm0.19262 16.93 11.87 7.0698-11.87 7.1115z" fill="#fff"/>
            </g>
        </g>
    </g>
</svg>
