<?xml version="1.0" encoding="UTF-8"?>
<svg viewBox="0 0 48 48" xmlns="http://www.w3.org/2000/svg">
    <defs>
        <style>.a{fill:#fff;fill-rule:evenodd;}</style>
    </defs>
    <path class="a" d="m24 2a22 22 0 1 0 22 22 22 22 0 0 0-22-22zm-18 24a2 2 0 1 1 2-2 2 2 0 0 1-2 2zm18-22a2 2 0 1 1-2 2 2 2 0 0 1 2-2zm-14.14 5.86a2 2 0 1 1 0 2.83 2 2 0 0 1 0-2.83zm2.83 28.28a2 2 0 1 1 0-2.83 2 2 0 0 1 0 2.83zm11.31 5.86a2 2 0 1 1 2-2 2 2 0 0 1-2 2zm0-6a14 14 0 1 1 14-14 14 14 0 0 1-14 14zm14.14 0.14a2 2 0 1 1 0-2.83 2 2 0 0 1 0 2.83zm0-25.45a2 2 0 1 1 0-2.83 2 2 0 0 1 0 2.83zm3.86 13.31a2 2 0 1 1 2-2 2 2 0 0 1-2 2z"/>
    <polygon class="a" points="27.61 15.54 24.59 22.62 21.57 15.54 16.47 15.54 22.04 28.6 19.89 33.64 24.99 33.64 32.71 15.54"/>
</svg>
