<?xml version="1.0" encoding="UTF-8"?>
<svg viewBox="0 0 48 48" xmlns="http://www.w3.org/2000/svg">
    <path d="m24 2c-12.15 0-22 9.8497-22 22s9.8497 22 22 22c2.4347-0.0091 4.851-0.42225 7.1504-1.2227-0.02396-0.10153-0.03082-0.23316 0.0039-0.43555l-0.28711-3.3789s-1.1253-8.1014-2.0898-11.516c-0.4518-1.5993-0.99319-3.5883-1.2031-4.4199-0.20994-0.83163-0.42022-1.6554-0.4668-1.8301-0.04986-0.18702-0.91345 0.57865-2.1016 1.8613-1.1099 1.1983-3.1252 3.2811-4.4766 4.627-1.3513 1.3459-2.9467 3.0325-3.5469 3.748-1.8945 2.2587-4.7512 3.1022-5.916 1.748-0.71238-0.82818-1.0982-2.3408-0.93945-3.6855 0.23879-2.023 2.9873-8.1754 5.1035-11.422 1.3177-2.0215 4.123-6.9794 4.123-7.2871 0-0.09672-0.21366-0.40192-0.47461-0.67969-0.67918-0.72296-0.84552-2.0119-0.32617-2.5313 0.8821-0.8821 2.9583 0.36743 3.2793 1.9727 0.07532 0.37662 0.21412 0.68359 0.30664 0.68359 0.26956 0 0.92135-1.6442 1.1484-2.8945 0.32283-1.7775 1.2606-2.1462 2.5215-0.99219 0.8239 0.7541 0.67664 1.692-0.34961 2.2324-0.28787 0.1516-0.70051 0.54702-0.91797 0.87891-0.38132 0.58197-0.37773 0.61933 0.14062 1.0391 0.61332 0.49663 1.4263 0.56589 1.8359 0.15625 0.16613-0.16613 0.2793-0.96789 0.2793-1.9785 0-1.388 0.08457-1.7818 0.46484-2.1621 0.59799-0.59799 1.406-0.593 2.1797 0.015625 0.80647 0.63437 0.81832 1.6602 0.0293 2.4492-0.65644 0.65644-1.5117 2.217-1.5117 2.7598 0 0.61805 0.704 0.39246 1.8066-0.57812 1.3981-1.2306 4.0774-2.1199 4.6523-1.5449 0.31238 0.31238 0.32599 0.50673 0.08984 1.2949-0.15297 0.51057-0.58999 1.2404-0.9707 1.6211-0.44426 0.44426-0.69138 0.92755-0.68945 1.3496 0.0054 1.1766 0.91868 3.6549 1.5273 4.1465 0.37681 0.30433 0.61496 0.78112 0.68945 1.377 0.06264 0.50099 0.21492 1.0315 0.33789 1.1797 0.14532 0.1751 0.12992 0.36227-0.04297 0.53516-0.19957 0.19957-0.16989 0.30435 0.12109 0.41602 0.21331 0.08185 0.38867 0.34035 0.38867 0.57422s0.12159 0.7199 0.26953 1.0801c0.14794 0.36017 0.24484 0.83664 0.2168 1.0605-0.02806 0.2239 0.07299 0.4082 0.22266 0.4082 0.14968 0 0.2127 0.15398 0.14062 0.3418-0.07207 0.18782-0.02809 0.4047 0.09766 0.48242 0.12575 0.07772 0.20527 0.26378 0.17774 0.41406-0.0897 0.48961 0.31017 1.8248 0.89258 2.9844 0.31362 0.62442 0.60895 1.3364 0.65625 1.582 0.0473 0.2456 0.2029 0.6648 0.3457 0.93164 0.14281 0.26683 0.19519 0.58864 0.11719 0.71484-0.078 0.1262 0.02559 0.29248 0.23047 0.37109 0.27695 0.10627 0.34836 0.37572 0.28125 1.0469-0.05637 0.56372 0.02646 0.9986 0.21875 1.1582 0.16936 0.14056 0.37069 0.63658 0.44727 1.1035 0.08284 0.3695 0.10883 0.67702 0.11328 0.95312 3.6613-4.0373 5.6936-9.29 5.7031-14.74 0-12.15-9.8497-22-22-22zm15.607 37.48c-26.405 5.6797-13.202 2.8398 0 0zm0 0c-0.01868-0.06573-0.04046-0.11928-0.05273-0.20312-0.94636-2.8363-2.0202-5.2748-2.0352-4.7891-0.03367 1.095-0.24501 1.4727-0.82617 1.4727-0.57744 0-1.9964-0.43212-2.2949-0.69922-0.10503-0.09397 0.04309-1.0224 0.32812-2.0625 0.51682-1.8858 0.51936-1.8906 1.2949-1.8906 0.42773 0 0.77566-0.02659 0.77148-0.05859-0.0042-0.03199-0.20709-0.6342-0.44922-1.3379-0.42867-1.2458-0.46563-1.28-1.3887-1.3496-1.191-0.08988-1.2873-0.65744-0.14844-0.87109 0.5614-0.10532 0.75941-0.24921 0.66992-0.48242-0.08843-0.23046-0.34872-0.29316-0.85547-0.20508-0.80979 0.14076-1.4575-0.15568-1.2109-0.55469 0.08791-0.14225 0.5099-0.25781 0.9375-0.25781h0.77734l-0.67578-2.2695c-0.3718-1.2475-1.0284-3.3143-1.459-4.5938-1.2308-3.657-1.2447-3.9049-0.27734-4.7852 0.74972-0.68223 1.4976-2.1841 1.2246-2.457-0.06381-0.06381-0.53231-0.0027-1.043 0.13476-0.71024 0.19125-1.0163 0.43544-1.3027 1.0391-0.20594 0.434-0.375 0.89263-0.375 1.0195 0 0.12691-0.15769 0.29159-0.34961 0.36523-0.46653 0.17902-0.45832-0.52341 0.01367-1.1973 0.52269-0.74624 0.24656-0.64076-1.0879 0.41406-0.64744 0.51178-1.3554 0.93164-1.5742 0.93164-0.51978 0-0.95703-0.45099-0.95703-0.98633 0-0.59477 1.0132-2.529 1.6035-3.0625 0.91419-0.82612 0.43813-2.1249-0.71875-1.9609-0.49924 0.07077-0.53818 0.19455-0.58203 1.7871-0.05224 1.8973-0.43054 2.7327-1.3398 2.9609-0.81343 0.20416-2.209-0.32213-2.4902-0.93945-0.31592-0.69338 0.28409-1.8834 1.2168-2.4141 0.84114-0.47853 0.86999-1.0664 0.08008-1.584-0.51198-0.33546-0.63245-0.34584-0.81055-0.064453-0.11507 0.1818-0.21203 0.59225-0.2168 0.91211-0.0101 0.67778-0.78766 2.4831-1.3262 3.0781-0.61588 0.68054-0.9953 0.47565-1.584-0.85547-0.54468-1.2316-1.096-1.7578-1.8418-1.7578-0.55074 0-0.43837 0.42472 0.27539 1.0391 0.36153 0.31118 0.55019 0.63436 0.43359 0.74414-0.11347 0.10684-0.25343 0.06423-0.31055-0.0957-0.05712-0.15993-0.21784-0.29102-0.35742-0.29102-0.13958 0-0.02624 0.24294 0.25195 0.53906 0.27819 0.29612 0.50586 0.66621 0.50586 0.82226 0 0.15606-0.39191 1.0024-0.87109 1.8809l-0.87109 1.5957 0.46289 0.51367c0.38713 0.42778 0.62688 0.48825 1.4531 0.375 0.74971-0.10276 0.98828-0.05666 0.98828 0.18555 0 0.76666-1.9399 0.82163-2.75 0.07813-0.3775-0.34645-0.60386-0.42871-0.66992-0.24414-0.0549 0.15337-0.84325 1.4623-1.752 2.9082-2.3865 3.7973-5.4101 10.385-4.9688 10.826 0.06496 0.06496 0.45176-0.16287 0.85938-0.50586 0.89748-0.75518 1.321-0.52047 0.95508 0.5293-0.20138 0.57766-0.16956 0.76224 0.18164 1.0801 0.2374 0.21484 0.48246 0.28529 0.55859 0.16211 0.20225-0.32724 0.97792-0.47862 1.332-0.25977 0.24403 0.15082 0.19639 0.31554-0.22461 0.76367-0.51683 0.55014-0.52288 0.59597-0.15234 1.3125 0.37904 0.73297 0.39047 0.73694 0.88867 0.31445 1.5571-1.3204 2.0215-2.3922 2.0215-4.6719 0-1.6616 0.36264-2.1487 1.2891-1.7266 0.31795 0.14487 0.69911 0.52591 0.8457 0.84766 0.1466 0.32174 0.33818 0.58594 0.42578 0.58594 0.22916 0 4.4633-4.4036 6.5996-6.8633 1.0001-1.1515 1.9117-2.1273 2.0273-2.1699 0.39318-0.14501 0.21322 0.38908-0.36328 1.0742-0.53792 0.63929-0.5613 0.77008-0.35352 2.0527 0.1221 0.75368 0.45076 2.1087 0.73047 3.0117 0.49037 1.5832 0.54692 1.6569 1.5742 2.0703 1.0564 0.42507 1.8789 0.98783 1.8789 1.2832 0 0.21052-1.5584 0.9375-2.0098 0.9375-0.25567 0-0.3173 0.12182-0.20312 0.40625 0.08987 0.2239 0.39036 1.4549 0.66602 2.7344l0.5 2.3262 1.0176 0.04687c0.55882 0.02573 1.0685 0.09784 1.1328 0.16211 0.06427 0.06427 0.04497 0.5-0.04297 0.96875-0.15886 0.84681-0.16706 0.85162-1.0957 0.70312-0.92277-0.14756-0.93363-0.14134-0.80859 0.49609 0.06797 0.34651 0.64312 4.626 0.80859 5.9863 2.8135-1.1201 5.3655-2.809 7.4961-4.9609zm-7.4961 4.9609c-21.408 2.3724-10.704 1.1862 0 0zm-9.1641-27.314c0.17841 0.03995 0.3761 0.16455 0.44336 0.33984 0.146 0.38047 1.4999 1.2779 1.9297 1.2793 0.14782 5.01e-4 0.71448-0.37028 1.2578-0.82422 0.72986-0.60978 1.0535-0.75704 1.2422-0.5625 0.18734 0.19313-0.01658 0.50567-0.76367 1.1738-1.1425 1.0218-1.7994 1.1249-3.0234 0.47266-0.69503-0.37033-1.3924-1.2133-1.416-1.7129-0.0076-0.16194 0.15167-0.20596 0.33008-0.16602zm-4.6953 9.5391c0.41028-0.0047 0.85261 0.06009 1.0723 0.19922 0.17632 0.11168 0.24807 0.32064 0.16016 0.46289-0.19863 0.32139-0.52301 0.33262-0.71289 0.02539-0.07907-0.12794-0.45796-0.23242-0.8418-0.23242-0.40601 0-0.63833-0.09709-0.55469-0.23242 0.08818-0.14268 0.46667-0.21793 0.87695-0.22266zm0.16992 1.6191c-0.12794 0-0.23242 0.16186-0.23242 0.36133s0.10448 0.29782 0.23242 0.21875c0.12794-0.07907 0.23242-0.24093 0.23242-0.36133 0-0.12039-0.10448-0.21875-0.23242-0.21875zm11.572 0.94727c-0.08909 0.0225-0.10317 0.12898-0.03125 0.31641 0.07055 0.18384 0.28646 0.27487 0.47852 0.20117 0.28407-0.109 0.29147-0.17203 0.03906-0.33203-0.23192-0.14701-0.39724-0.20805-0.48633-0.18555zm-11.062 0.01367c-0.11202 0.01321-0.29139 0.12736-0.45703 0.30078-0.38388 0.40192-0.37684 0.40701 0.14258 0.14062 0.29883-0.15325 0.47836-0.34195 0.40039-0.41992-0.01949-0.01949-0.0486-0.02589-0.08594-0.02148zm0.27734 0.54492c-0.34717 0.10245-1.252 1.0172-1.252 1.3281 0 0.16358 0.33489-0.03801 0.74414-0.44727 0.40926-0.40926 0.68653-0.80175 0.61719-0.87109-0.02258-0.02258-0.05978-0.0244-0.10938-0.0098zm17.182 2.4473c-0.62868 0-0.70824 0.08717-0.83984 0.91016-0.08005 0.50059-0.20722 1.0688-0.28125 1.2617-0.0913 0.2379 0.04113 0.38317 0.4082 0.45312 0.29765 0.05673 0.60594 0.11734 0.68555 0.13477 0.07961 0.01743 0.21076-0.36006 0.29102-0.83984 0.08026-0.47979 0.2101-1.1086 0.28906-1.3965 0.12564-0.45806 0.05575-0.52344-0.55273-0.52344z" fill="#fff"/>
</svg>
