<?xml version="1.0" encoding="UTF-8"?>
<svg width="48" height="48" version="1.1" viewBox="0 0 12.7 12.7" xmlns="http://www.w3.org/2000/svg">
    <path d="m6.35 0.52917a5.8208 5.8208 0 0 0-5.8208 5.8208 5.8208 5.8208 0 0 0 5.8208 5.8208 5.8208 5.8208 0 0 0 5.8208-5.8208 5.8208 5.8208 0 0 0-5.8208-5.8208zm-3.4546 2.5905h2.265v0.20929c0 0.064911-0.018087 0.12414-0.054777 0.17777l-1.571 2.2185h1.5896v0.45475h-2.328v-0.22428c0-0.028222 0.00459-0.054699 0.01447-0.080099 0.00988-0.026811 0.02272-0.051836 0.038241-0.074414l1.5751-2.2288h-1.5286zm3.5817 0.88263c0.15663 0 0.29764 0.025821 0.42323 0.078031 0.12559 0.052211 0.23304 0.12625 0.32194 0.22221 0.0889 0.095955 0.15652 0.21245 0.20309 0.34933 0.047978 0.13547 0.07183 0.28735 0.07183 0.45527 0 0.16933-0.023852 0.32135-0.07183 0.45682-0.046567 0.13547-0.11419 0.25131-0.20309 0.34727-0.0889 0.095955-0.19636 0.17-0.32194 0.22221-0.12559 0.0508-0.2666 0.076481-0.42323 0.076481-0.15804 0-0.30088-0.02568-0.42788-0.076481-0.12559-0.052211-0.23253-0.12625-0.32143-0.22221-0.0889-0.095955-0.15769-0.2118-0.20567-0.34727-0.046567-0.13547-0.069763-0.28749-0.069763-0.45682 0-0.16792 0.023196-0.3198 0.069763-0.45527 0.047978-0.13688 0.11677-0.25338 0.20567-0.34933 0.0889-0.095956 0.19584-0.17 0.32143-0.22221 0.127-0.052211 0.26984-0.078031 0.42788-0.078031zm2.4004 0c0.15663 0 0.29764 0.025821 0.42323 0.078031 0.12559 0.052211 0.23253 0.12625 0.32143 0.22221 0.0889 0.095955 0.15704 0.21245 0.20361 0.34933 0.047978 0.13547 0.07183 0.28735 0.07183 0.45527 0 0.16933-0.023852 0.32135-0.07183 0.45682-0.046567 0.13547-0.11471 0.25131-0.20361 0.34727-0.0889 0.095955-0.19584 0.17-0.32143 0.22221-0.12559 0.0508-0.2666 0.076481-0.42323 0.076481-0.15804 0-0.30088-0.02568-0.42788-0.076481-0.12559-0.052211-0.23253-0.12625-0.32143-0.22221-0.0889-0.095955-0.15769-0.2118-0.20567-0.34727-0.046566-0.13547-0.069763-0.28749-0.069763-0.45682 0-0.16792 0.023196-0.3198 0.069763-0.45527 0.047978-0.13688 0.11677-0.25338 0.20567-0.34933 0.0889-0.095956 0.19584-0.17 0.32143-0.22221 0.127-0.052211 0.26984-0.078031 0.42788-0.078031zm-2.4004 0.29611c-0.10724 0-0.2012 0.018605-0.28164 0.055294-0.079022 0.036689-0.14533 0.089502-0.19895 0.15865-0.052211 0.069144-0.091528 0.1542-0.11834 0.2558-0.0254 0.10019-0.03824 0.21406-0.03824 0.34106 0 0.254 0.052157 0.45227 0.15658 0.5948 0.10583 0.14111 0.2661 0.21136 0.48059 0.21136 0.21167 0 0.36945-0.070246 0.47387-0.21136 0.10442-0.14252 0.15658-0.3408 0.15658-0.5948 0-0.25541-0.052157-0.45434-0.15658-0.59686-0.10442-0.14252-0.26221-0.21394-0.47387-0.21394zm2.4004 0c-0.10724 0-0.2012 0.018605-0.28164 0.055294-0.079022 0.036689-0.14533 0.089502-0.19895 0.15865-0.052211 0.069144-0.092045 0.1542-0.11886 0.2558-0.0254 0.10019-0.037724 0.21406-0.037724 0.34106 0 0.254 0.052158 0.45227 0.15658 0.5948 0.10583 0.14111 0.2661 0.21136 0.48059 0.21136 0.21167 0 0.36945-0.070246 0.47387-0.21136 0.10442-0.14252 0.15658-0.3408 0.15658-0.5948 0-0.25541-0.052158-0.45434-0.15658-0.59686-0.10442-0.14252-0.26221-0.21394-0.47387-0.21394zm-5.6663 2.4076h0.19017v0.73897h0.62012v0.27285h-0.62012v1.2867c0 0.090311 0.021884 0.15728 0.065629 0.20102 0.043744 0.043744 0.10035 0.065629 0.1695 0.065629 0.039511 0 0.07358-0.00459 0.1018-0.01447 0.029633-0.01129 0.054798-0.023474 0.075964-0.036174 0.021167-0.0127 0.038599-0.023712 0.05271-0.03359 0.015523-0.01129 0.029019-0.017052 0.040308-0.017052 0.019756 0 0.037704 0.011668 0.053227 0.035657l0.11007 0.18035c-0.064911 0.060678-0.14341 0.10838-0.23513 0.14366-0.091722 0.033867-0.18634 0.050643-0.2837 0.050643-0.16933 0-0.29999-0.047049-0.39171-0.14159-0.090311-0.094544-0.13539-0.23096-0.13539-0.40876v-1.3121h-0.25838c-0.022577 0-0.041322-0.00642-0.056844-0.019121-0.015523-0.01411-0.023254-0.03534-0.023254-0.063562v-0.15038l0.3514-0.044442 0.086816-0.66249c0.00423-0.021167 0.013277-0.037943 0.027388-0.050643 0.015523-0.01411 0.035439-0.021188 0.059428-0.021188zm4.394 0.65836c0.045155 0 0.088269 0.00511 0.12919 0.014986 0.042333 0.00988 0.079682 0.025342 0.11214 0.046509l-0.027389 0.28112c-0.00847 0.035278-0.029695 0.053227-0.063562 0.053227-0.019756 0-0.048716-0.00445-0.086816-0.01292s-0.081213-0.012401-0.12919-0.012401c-0.067733 0-0.12828 0.0097-0.1819 0.029456-0.052211 0.019756-0.099777 0.049372-0.14211 0.088883-0.040922 0.0381-0.078271 0.086322-0.11214 0.14418-0.032455 0.056445-0.062072 0.12093-0.088883 0.1943v1.355h-0.37879v-2.1441h0.21601c0.040922 0 0.069227 0.00773 0.08475 0.023254 0.015523 0.015523 0.025879 0.041999 0.031523 0.080099l0.025321 0.32608c0.067732-0.14676 0.15133-0.26077 0.25011-0.34261 0.098778-0.083256 0.21921-0.12506 0.36174-0.12506zm-2.3265 0.00414c0.12841 0 0.2474 0.021884 0.35605 0.065629 0.11007 0.042333 0.20416 0.10471 0.28319 0.18655 0.080433 0.080433 0.14346 0.1803 0.18862 0.30024 0.045156 0.11853 0.067696 0.25429 0.067696 0.40669 0 0.059267-0.00642 0.098584-0.019122 0.11834-0.0127 0.019756-0.036552 0.029455-0.07183 0.029455h-1.433c0.00423 0.13547 0.022323 0.25328 0.054777 0.35347 0.033867 0.10019 0.080776 0.18445 0.14004 0.25218 0.059267 0.066322 0.12951 0.11651 0.21136 0.15038 0.081844 0.032456 0.17384 0.048576 0.27544 0.048576 0.094544 0 0.17566-0.010872 0.2434-0.03204 0.069144-0.022577 0.12838-0.04643 0.17777-0.07183s0.090534-0.048597 0.12299-0.069763c0.033867-0.022577 0.062311-0.034107 0.0863-0.034107 0.031044 0 0.055414 0.012184 0.072347 0.036174l0.10594 0.13746c-0.046566 0.056445-0.10252 0.10598-0.16743 0.14831-0.064911 0.040922-0.13502 0.074992-0.20981 0.1018-0.073378 0.026811-0.14939 0.046211-0.22841 0.058911-0.079022 0.01411-0.15752 0.021188-0.23513 0.021188-0.14817 0-0.28472-0.024508-0.41031-0.073897-0.12418-0.0508-0.23229-0.12419-0.32401-0.22014-0.090311-0.097366-0.16107-0.21715-0.21187-0.35967-0.0508-0.14252-0.075964-0.30659-0.075964-0.49144 0-0.14958 0.02254-0.28927 0.067696-0.4191 0.046567-0.12982 0.11288-0.24187 0.19895-0.33641 0.086078-0.095956 0.19105-0.17065 0.31523-0.22428 0.12418-0.055033 0.26387-0.082682 0.4191-0.082682zm3.715 0c0.15663 0 0.29764 0.026337 0.42323 0.078548s0.23304 0.12625 0.32194 0.22221c0.0889 0.095955 0.15652 0.21246 0.20309 0.34933 0.047978 0.13547 0.07183 0.28683 0.07183 0.45475 0 0.16933-0.023852 0.32187-0.07183 0.45734-0.046567 0.13547-0.11419 0.25131-0.20309 0.34727-0.0889 0.095956-0.19636 0.17-0.32194 0.22221-0.12559 0.0508-0.2666 0.075964-0.42323 0.075964-0.15804 0-0.30088-0.025165-0.42788-0.075964-0.12559-0.052215-0.23253-0.12626-0.32143-0.22221-0.0889-0.095955-0.15718-0.2118-0.20516-0.34727-0.046567-0.13547-0.07028-0.288-0.07028-0.45734 0-0.16792 0.023715-0.31929 0.07028-0.45475 0.047978-0.13688 0.11626-0.25338 0.20516-0.34933 0.0889-0.095955 0.19584-0.17 0.32143-0.22221 0.127-0.052211 0.26984-0.078548 0.42788-0.078548zm-3.7062 0.2775c-0.18062 0-0.32411 0.052813-0.42995 0.15865-0.10442 0.10442-0.16942 0.24988-0.19482 0.43615h1.1731c0-0.087489-0.01284-0.1673-0.038241-0.23926-0.02399-0.073378-0.060026-0.13641-0.108-0.18862-0.046567-0.053622-0.10383-0.094251-0.17157-0.12247-0.067733-0.029633-0.1444-0.044442-0.23048-0.044442zm3.7062 0.019121c-0.10724 0-0.2012 0.01809-0.28164 0.054777-0.079022 0.036689-0.14533 0.089502-0.19895 0.15865-0.052211 0.069144-0.091528 0.15472-0.11834 0.25632-0.0254 0.10019-0.038241 0.21355-0.038241 0.34055 0 0.254 0.052157 0.45227 0.15658 0.5948 0.10583 0.14111 0.2661 0.21187 0.48059 0.21187 0.21167 0 0.36945-0.070762 0.47387-0.21187 0.10442-0.14252 0.15658-0.3408 0.15658-0.5948 0-0.25541-0.052157-0.45434-0.15658-0.59686-0.10442-0.14252-0.26221-0.21342-0.47387-0.21342z" fill="#fff" stroke-width=".13229"/>
</svg>
