<?xml version="1.0" encoding="UTF-8"?>
<!-- Created with Inkscape (http://www.inkscape.org/) -->
<svg id="svg8" width="32" height="32" version="1.1" viewBox="0 0 8.4666659 8.4666659" xmlns="http://www.w3.org/2000/svg">
 <g id="layer1" transform="translate(0 -288.53)" fill="#00bbd5" stroke-width="0">
  <path id="rect5090" transform="matrix(.26458 0 0 .26458 0 288.53)" d="m5 2.5v27c0 1.0027 0.50282 1.5 1.5 1.5h19c0.99733 0 1.5-0.49723 1.5-1.5v-8.5h-2v6h-18v-22h18v2h2v-4.5c0-0.99718-0.50282-1.5-1.5-1.5h-19c-1 0-1.5 0.5-1.5 1.5z" style="paint-order:markers fill stroke"/>
  <circle id="path5140" cx="6.8792" cy="292.24" r="1.3229" style="paint-order:markers fill stroke"/>
  <path id="path5142" d="m5.5562 293.56s-1e-6 -1.3229-5e-7 -1.3229 1.3229 1.3229 1.3229 1.3229z" fill-rule="evenodd"/>
 </g>
</svg>
