<?xml version="1.0" encoding="UTF-8"?>
<svg id="svg4270" width="32" height="32" version="1.1" viewBox="0 0 32 32" xmlns="http://www.w3.org/2000/svg">
 <path id="rect4917" d="m0 3v26c0 2 1 3 3 3h26c2 0 3-1 3-3v-26c0-2-1-3-3-3h-26c-2 0-3 1-3 3zm16 1c6.7656 1.483e-4 12 5.2344 12 12 3.2e-5 6.7656-5.2344 12-12 12-6.7657 3.1e-5 -12-5.2343-12-12-3.15e-5 -6.7657 5.2343-12 12-12zm1 1.5c-5.4994 8.98e-5 -10.5 4.5006-10.5 10-9e-5 5.4994 4.5006 9.9999 10 10 5.4995 8.9e-5 10-4.5005 10-10 9e-5 -5.4995-4.0005-10-9.5-10zm0 1.5c4.2808-3.69e-5 8 3.7192 8 8 3.6e-5 4.2808-3.7192 8-8 8-4.2806-1.43e-4 -7.5-3.7194-7.5-8-3.6e-5 -4.2806 3.2194-7.9999 7.5-8zm-1.5 2v6h1.5v-6zm1.5 6-0.5 1 4.5 2 0.5-1z" fill="#ffd201" opacity=".96" stroke-opacity="0" style="paint-order:markers fill stroke"/>
</svg>
