<?xml version="1.0" encoding="UTF-8"?>
<svg id="svg5702" width="32" height="32" version="1.1" viewBox="0 0 32 32" xmlns="http://www.w3.org/2000/svg">
 <g id="layer1">
  <path id="amaze_file_manager" d="m3 7v18c0 1.5085 0.5 2 2 2h22c1.5034 0 2-0.49664 2-2v-15c0-1.4974-0.49664-2-2-2h-8l-8-3h-6c-1.5026 0-2 0.50336-2 2zm18 4c2.7614 0 5 2.2386 5 5s-2.2386 5-5 5-5-2.2386-5-5 2.2386-5 5-5zm0 2c-1.6569 0-3 1.3431-3 3s1.3431 3 3 3 3-1.3431 3-3-1.3431-3-3-3zm-5 6 2 2-4 4-2-2z" fill="#36a0f4"/>
 </g>
</svg>
