<?xml version="1.0" encoding="UTF-8"?>
<svg id="svg4634" width="32" height="32" version="1.1" viewBox="0 0 8.4666665 8.4666669" xmlns="http://www.w3.org/2000/svg">
 <g id="layer1" transform="translate(0 -288.53)">
  <rect id="rect5226" x=".1323" y="288.67" width="8.2021" height="8.2021" ry=".9282" fill="none" stroke="#dafc1f" stroke-width=".26458" style="paint-order:normal"/>
  <path id="path4595" d="m3.9489 290.44c-0.060145-7e-5 -0.11716 0.0268-0.15538 0.0733l-0.97097 1.1816c-0.072553 0.0883-0.056974 0.2192 0.034267 0.288l0.11222 0.0845c0.086022 0.0649 0.20788 0.0504 0.27623-0.033l0.8687-1.0583 0.59613 1e-3 -1.9699 2.3843-1.3775-0.0175c-0.10985-2e-3 -0.2005 0.0856-0.20351 0.1954l-0.00837 0.3118c-0.00308 0.11297 0.087607 0.20624 0.20063 0.20636l1.8004 3e-3c0.060057 2e-4 0.11706-0.0265 0.15538-0.0727l0.78552-0.94979 0.93462 0.93383-0.38504 1.7743c-0.022882 0.10505 0.040983 0.20949 0.14491 0.23699l0.24798 0.0654c0.11105 0.0292 0.22397-0.0404 0.24771-0.15275l0.49909-2.3678c0.013961-0.0663-0.0064-0.1351-0.054146-0.1831l-0.82606-0.82973 0.86007-1.033 0.64662 0.65838c0.083699 0.0851 0.22268 0.0789 0.29846-0.0134l0.92467-1.1263c0.071607-0.0871 0.057555-0.21604-0.031125-0.28565l-0.13157-0.10305c-0.085952-0.0675-0.21006-0.0539-0.27936 0.0306l-0.66728 0.81247-0.96234-0.95555c-0.037627-0.0374-0.088493-0.0584-0.14151-0.0584z" color="#000000" color-rendering="auto" dominant-baseline="auto" fill="#dafc1f" fill-rule="evenodd" image-rendering="auto" shape-rendering="auto" solid-color="#000000" style="font-feature-settings:normal;font-variant-alternates:normal;font-variant-caps:normal;font-variant-ligatures:normal;font-variant-numeric:normal;font-variant-position:normal;isolation:auto;mix-blend-mode:normal;paint-order:normal;shape-padding:0;text-decoration-color:#000000;text-decoration-line:none;text-decoration-style:solid;text-indent:0;text-orientation:mixed;text-transform:none;white-space:normal"/>
  <circle id="path4624" cx="6.0692" cy="289.92" r=".59481" fill="#dafc1f" style="paint-order:markers stroke fill"/>
 </g>
</svg>
