<?xml version="1.0" encoding="UTF-8"?>
<!-- Created with Inkscape (http://www.inkscape.org/) -->
<svg id="svg2" width="32" height="32" version="1.1" viewBox="0 0 32 32" xmlns="http://www.w3.org/2000/svg">
 <path id="path5077" d="m16 2c-4.1421-6e-7 -7.5 3.3579-7.5 7.5 2.978e-4 0.16682 0.00616 0.33358 0.01758 0.5h-0.01758v4h-2c-1.5 0-2 0.50085-2 2v12c0 1.5089 0.5 1.9996 2 1.9996h19c1.5 0 2-0.50043 2-2v-12c0-1.4987-0.5-2-2-2h-2v-4h-0.02539c0.014025-0.16634 0.022493-0.3331 0.02539-0.5 0-4.1421-3.3579-7.5-7.5-7.5zm0 2.5c2.7614-3e-7 5 2.2386 5 5-0.0015 0.6302-0.12209 1.2544-0.35547 1.8398l0.01172-0.0059c-0.72829 2.3927-3.5498 4.8065-5.5234 6.6661l0.70117-3.5078c-2.6934-0.089476-4.8313-2.2974-4.834-4.9922 0-2.7614 2.2386-5 5-5zm4.7988 14.002c0.07052 0.0076 0.14092 0.02976 0.20703 0.06641 0.26443 0.14658 0.35947 0.47776 0.21289 0.74219l-1.2773 2.3027c1.9174 1.2408 3.0554 3.4016 3.0586 5.8867h-14c0.0032-2.4851 1.1412-4.6459 3.0586-5.8867l-1.2773-2.3027c-0.14658-0.26443-0.05154-0.59561 0.21289-0.74219 0.06611-0.03664 0.13653-0.05687 0.20703-0.06445 0.21149-0.02276 0.42522 0.07902 0.53516 0.27734l1.2832 2.3164c0.88083-0.38216 1.8801-0.59762 2.9805-0.59766 1.1004 6.5e-5 2.0996 0.21548 2.9805 0.59766l1.2832-2.3164c0.10993-0.19832 0.32358-0.30201 0.53516-0.2793zm-8.2988 4.8477c-0.35929-2.16e-4 -0.65061 0.2911-0.65039 0.65039-2.16e-4 0.35929 0.2911 0.65061 0.65039 0.65039 0.35929 2.17e-4 0.65061-0.2911 0.65039-0.65039 2.16e-4 -0.35929-0.2911-0.65061-0.65039-0.65039zm7 0c-0.35929-2.16e-4 -0.65061 0.2911-0.65039 0.65039-2.16e-4 0.35929 0.2911 0.65061 0.65039 0.65039 0.35929 2.16e-4 0.65061-0.2911 0.65039-0.65039 2.16e-4 -0.35929-0.2911-0.65061-0.65039-0.65039z" fill="#414141" stroke-width="0" style="paint-order:markers fill stroke"/>
 <rect id="rect4487" x="195" y="-53" width="71.717" height="42.476" rx="5.405e-8" fill="#fff" stroke-width="0" style="paint-order:markers fill stroke"/>
</svg>
