<?xml version="1.0" encoding="UTF-8"?>
<!-- Created with Inkscape (http://www.inkscape.org/) -->
<svg id="svg2" width="32" height="32" version="1.1" viewBox="0 0 32 32" xmlns="http://www.w3.org/2000/svg">
 <rect id="rect8566" x="2" y="26" width="4" height="4" fill="#6a6a6a" stroke-width="0" style="paint-order:markers fill stroke"/>
 <rect id="rect8566-3" x="8" y="26" width="16" height="4" fill="#6a6a6a" stroke-width="0" style="paint-order:markers fill stroke"/>
 <rect id="rect8566-5" x="26" y="26" width="4" height="4" fill="#6a6a6a" stroke-width="0" style="paint-order:markers fill stroke"/>
 <rect id="rect8566-35" x="2" y="20" width="4" height="4" fill="#6a6a6a" stroke-width="0" style="paint-order:markers fill stroke"/>
 <rect id="rect8566-62" x="8" y="20" width="4" height="4" fill="#6a6a6a" stroke-width="0" style="paint-order:markers fill stroke"/>
 <rect id="rect8566-9" x="14" y="20" width="4" height="4" fill="#6a6a6a" stroke-width="0" style="paint-order:markers fill stroke"/>
 <rect id="rect8566-1" x="20" y="20" width="4" height="4" fill="#6a6a6a" stroke-width="0" style="paint-order:markers fill stroke"/>
 <rect id="rect8566-2" x="26" y="20" width="4" height="4" fill="#6a6a6a" stroke-width="0" style="paint-order:markers fill stroke"/>
 <path id="path8631" d="m8 2v11l8 6 8-6v-11h-16zm4.5 1h1l1.5 5h-1l-0.29688-1h-1.4062l-0.29688 1h-1l1.5-5zm6.5 0a2 2.5 0 0 1 2 2.5 2 2.5 0 0 1 -2 2.5 2 2.5 0 0 1 -2 -2.5 2 2.5 0 0 1 2 -2.5zm0 1a1 1.5 0 0 0 -1 1.5 1 1.5 0 0 0 1 1.5 1 1.5 0 0 0 1 -1.5 1 1.5 0 0 0 -1 -1.5zm-6 0.62891l-0.40625 1.3711h0.8125l-0.40625-1.3711zm-0.5 4.3711h1c0.55228 0 1.5 0.44772 1.5 1h-2.5c-0.27614 0-0.5 0.22386-0.5 0.5s0.22386 0.5 0.5 0.5h1c0.82843 0 1.5 0.67157 1.5 1.5s-0.67157 1.5-1.5 1.5h-1c-0.55228 0-1.5-0.44772-1.5-1h2.5c0.27614 0 0.5-0.22386 0.5-0.5s-0.22386-0.5-0.5-0.5h-1c-0.82843 0-1.5-0.67157-1.5-1.5s0.67157-1.5 1.5-1.5zm4.5 0h2.5c0.82843 0 1.5 0.67157 1.5 1.5s-0.67157 1.5-1.5 1.5h-1.5v2h-1v-5zm1 1v1h1.5a0.5 0.5 0 0 0 0.5 -0.5 0.5 0.5 0 0 0 -0.5 -0.5h-1.5z" fill="#6a6a6a" fill-rule="evenodd" stroke-width="0"/>
 <rect id="rect8566-35-0" x="2" y="14" width="4" height="4" fill="#6a6a6a" stroke-width="0" style="paint-order:markers fill stroke"/>
 <path id="rect8566-35-9" d="m8 15v3h4z" fill="#6a6a6a" stroke-width="0" style="paint-order:markers fill stroke"/>
 <path id="rect8566-35-9-6" d="m24 15-4 3h4z" fill="#6a6a6a" stroke-width="0" style="paint-order:markers fill stroke"/>
 <rect id="rect8566-35-9-0" x="26" y="14" width="4" height="4" fill="#6a6a6a" stroke-width="0" style="paint-order:markers fill stroke"/>
</svg>
