<?xml version="1.0" encoding="UTF-8"?>
<!-- Created with Inkscape (http://www.inkscape.org/) -->
<svg id="svg2" width="32" height="32" version="1.1" viewBox="0 0 32 32" xmlns="http://www.w3.org/2000/svg">
 <rect id="rect8566" x="1.5" y="25.5" width="5" height="5" fill="#6a6a6a" stroke-width="0" style="paint-order:markers fill stroke"/>
 <rect id="rect8566-3" x="7.4971" y="25.5" width="17" height="5" fill="#6a6a6a" stroke-width="0" style="paint-order:markers fill stroke"/>
 <rect id="rect8566-5" x="25.5" y="25.5" width="5" height="5" fill="#6a6a6a" stroke-width="0" style="paint-order:markers fill stroke"/>
 <rect id="rect8566-35" x="1.5" y="19.5" width="5" height="5" fill="#6a6a6a" stroke-width="0" style="paint-order:markers fill stroke"/>
 <rect id="rect8566-62" x="7.5" y="19.5" width="5" height="5" fill="#6a6a6a" stroke-width="0" style="paint-order:markers fill stroke"/>
 <rect id="rect8566-9" x="13.5" y="19.5" width="5" height="5" fill="#6a6a6a" stroke-width="0" style="paint-order:markers fill stroke"/>
 <rect id="rect8566-1" x="19.5" y="19.5" width="5" height="5" fill="#6a6a6a" stroke-width="0" style="paint-order:markers fill stroke"/>
 <rect id="rect8566-2" x="25.5" y="19.5" width="5" height="5" fill="#6a6a6a" stroke-width="0" style="paint-order:markers fill stroke"/>
 <path id="path8631" d="m9.9844 2c-1.0993 0-1.9844 0.89374-1.9844 2.0039v6.9961c0 2 1 2.75 2 3.5l6 4.5 6-4.5c1-0.75002 2-1.5169 2-3.5v-6.9961c0-1.1102-0.88503-2.0039-1.9844-2.0039zm2.5156 1h1l1.5 5h-1l-0.29688-1h-1.4062l-0.29688 1h-1zm6.5 0c1.1046 0 2 1.1193 2 2.5s-0.89543 2.5-2 2.5-2-1.1193-2-2.5 0.89543-2.5 2-2.5zm0 1c-0.55228-4e-7 -1 0.67157-1 1.5s0.44772 1.5 1 1.5c0.55228 4e-7 1-0.67157 1-1.5s-0.44772-1.5-1-1.5zm-6 0.62891-0.40625 1.3711h0.8125zm-0.5 4.3711h1c0.55228 0 1.5 0.44772 1.5 1h-2.5c-0.27614 0-0.5 0.22386-0.5 0.5s0.22386 0.5 0.5 0.5h1c0.82843 0 1.5 0.67157 1.5 1.5s-0.67157 1.5-1.5 1.5h-1c-0.55228 0-1.5-0.44772-1.5-1h2.5c0.27614 0 0.5-0.22386 0.5-0.5s-0.22386-0.5-0.5-0.5h-1c-0.82843 0-1.5-0.67157-1.5-1.5s0.67157-1.5 1.5-1.5zm4.5 0h2.5c0.82843 0 1.5 0.67157 1.5 1.5s-0.67157 1.5-1.5 1.5h-1.5v2h-1zm1 1v1h1.5c0.27614 0 0.5-0.22386 0.5-0.5s-0.22386-0.5-0.5-0.5z" fill="#6a6a6a" fill-rule="evenodd" stroke-width="0"/>
 <rect id="rect8566-35-0" x="1.5" y="13.5" width="5" height="5" fill="#6a6a6a" stroke-width="0" style="paint-order:markers fill stroke"/>
 <path id="rect8566-35-9" d="m7.5 13.6v4.9h5v-1.1z" fill="#6a6a6a" stroke-width="0" style="paint-order:markers fill stroke"/>
 <rect id="rect8566-35-9-0" x="25.5" y="13.5" width="5" height="5" fill="#6a6a6a" stroke-width="0" style="paint-order:markers fill stroke"/>
 <path id="rect8566-35-9-3" d="m24.5 13.6v4.9h-5v-1.1z" fill="#6a6a6a" stroke-width="0" style="paint-order:markers fill stroke"/>
</svg>
