<?xml version="1.0" encoding="UTF-8"?>
<!-- Created with Inkscape (http://www.inkscape.org/) -->
<svg id="svg2" width="32" height="32" version="1.1" viewBox="0 0 32 32" xmlns="http://www.w3.org/2000/svg">
 <path id="rect4142" d="m29.185 2.5c-0.33638 0-0.67268 0.12894-0.93039 0.38668l-1.6184 1.6133h-21.272l-1.6182-1.6133c-0.25776-0.25775-0.5942-0.38652-0.93055-0.38652-0.33639 0-0.67266 0.12877-0.93039 0.38652-0.51551 0.51551-0.51551 1.3457 0 1.8612l1.6156 1.6182v23.134h25v-23.134l1.6156-1.6182c0.51549-0.51549 0.51549-1.3455 0-1.861-0.25774-0.25774-0.5942-0.38669-0.93055-0.38669zm-18.447 6.6093c1.4531 0 2.631 1.178 2.631 2.631 0 1.4531-1.1779 2.631-2.631 2.631s-2.631-1.1779-2.631-2.631c0-1.453 1.1779-2.631 2.631-2.631zm10.524 0c1.4531 0 2.631 1.178 2.631 2.631 0 1.4531-1.1779 2.631-2.631 2.631s-2.631-1.1779-2.631-2.631c0-1.453 1.1779-2.631 2.631-2.631z" fill="#b4ec13" opacity=".96" stroke-width=".082219" style="paint-order:markers fill stroke"/>
</svg>
