<?xml version="1.0" encoding="UTF-8"?>
<!-- Generator: Adobe Illustrator 18.1.1, SVG Export Plug-In . SVG Version: 6.00 Build 0)  -->
<svg id="Layer_1" width="32" height="32" enable-background="new 0 0 117.3 117.3" version="1.1" viewBox="0 0 31.999999 31.999999" xml:space="preserve" xmlns="http://www.w3.org/2000/svg"><g id="g4502" transform="translate(-1.2944)"><g id="g4512"><circle id="circle14" cx="17.723" cy="16" r="11.91" fill="none" stroke="#1ca5d5" stroke-miterlimit="10" stroke-width="2.1803"/><path id="path18" d="m27.271 13.856c1.7079 0.5814 3.5612-0.32704 4.1426-2.0349 0.5814-1.7079-0.32704-3.5612-2.0349-4.1426-1.7079-0.5814-3.5612 0.32704-4.1426 2.0349-0.58132 1.7079 0.32704 3.5612 2.0349 4.1426z" fill="#1ca5d5" stroke-width=".27254"/><line id="line20" x1="28.325" x2="20.121" y1="10.795" y2="17.608" fill="none" stroke="#1ca5d5" stroke-miterlimit="10" stroke-width="2.1803"/><path id="path24" d="m22.056 24.785c-0.14535 1.7806 1.1628 3.3794 2.9796 3.5612 1.8169 0.14535 3.3795-1.1628 3.5612-2.9796 0.14535-1.7806-1.1628-3.3795-2.9796-3.5612-1.8169-0.14535-3.4157 1.1628-3.5612 2.9796z" fill="#1ca5d5" stroke-width=".27254"/><line id="line26" x1="25.299" x2="20.121" y1="25.075" y2="17.608" fill="none" stroke="#1ca5d5" stroke-miterlimit="10" stroke-width="2.1803"/><path id="path28" d="m17.391 19.384c0.98113 1.5262 3.0162 1.9623 4.5058 0.98113 1.5262-0.98113 1.9623-3.0162 0.98113-4.5058-0.98113-1.5262-3.0162-1.9623-4.5058-0.98113-1.5262 0.9448-1.9623 2.9796-0.98113 4.5058z" fill="#1ca5d5" stroke-width=".27254"/><path id="path32" d="m7.9205 16.091c-1.5625-0.90845-3.5612-0.39973-4.4696 1.1265-0.90845 1.5625-0.39973 3.5612 1.1265 4.4696 1.5625 0.90845 3.5612 0.39973 4.4696-1.1265 0.90836-1.5262 0.39973-3.5247-1.1265-4.4696z" fill="#1ca5d5" stroke-width=".27254"/><line id="line34" x1="6.249" x2="20.121" y1="18.889" y2="17.608" fill="none" stroke="#1ca5d5" stroke-miterlimit="10" stroke-width="2.1803"/></g></g></svg>
