<?xml version="1.0" encoding="UTF-8"?>
<svg id="svg4211" width="32" height="32" version="1.1" viewBox="0 0 32 32" xmlns="http://www.w3.org/2000/svg">
 <g id="layer4" transform="translate(-4 -167.8)">
  <g id="g3" transform="matrix(.23018 0 0 .23018 6.5 170.3)">
   <g id="g12" transform="translate(-7.6213,9.3)">
    <path id="circle10" transform="translate(7.6213,-9.3)" d="m58.65 0a58.65 58.65 0 0 0 -58.65 58.65 58.65 58.65 0 0 0 58.65 58.65 58.65 58.65 0 0 0 58.65 -58.65 58.65 58.65 0 0 0 -58.65 -58.65zm0.06445 11.77c15.242 0 28.796 7.3364 37.324 18.662 0.59455-0.1062 1.202-0.15944 1.8164-0.14258 0.88367 0.02424 1.7789 0.18047 2.6602 0.48047 4.7 1.6 7.1996 6.6984 5.5996 11.398-0.50416 1.481-1.3564 2.7417-2.4336 3.7266 1.1208 4.0037 1.7344 8.2169 1.7344 12.574 0 11.223-3.9789 21.531-10.598 29.592 0.62829 1.3721 0.92714 2.912 0.79688 4.5078-0.5 5-4.8008 8.6012-9.8008 8.2012-1.6015-0.16015-3.0564-0.72347-4.2852-1.5723-6.7515 3.7959-14.531 5.9707-22.814 5.9707-18.783 0-34.994-11.144-42.402-27.164-1.4639-0.04647-2.9398-0.44538-4.2969-1.2344-4.2-2.5-5.5996-8.0008-3.0996-12.301 0.8013-1.3462 1.918-2.3905 3.1973-3.125-0.05809-0.95174-0.09766-1.9089-0.09766-2.875 0-25.756 20.943-46.699 46.699-46.699zm0 6c-22.514 0-40.699 18.186-40.699 40.699 0 0.59481 0.01979 1.1849 0.04492 1.7734 1.0814 0.17234 2.1501 0.54311 3.1543 1.127 1.5795 0.9778 2.7632 2.3647 3.4922 3.9395l34.154-3.1543c0.54176-2.1248 1.8525-4.0464 3.8535-5.2852 1.5375-1.0125 3.2863-1.4764 5.0137-1.4395 1.5237 0.03256 3.0258 0.46476 4.3574 1.2441l17.127-14.227c-0.71244-1.8842-0.79837-4.0198-0.09766-6.0781 0.38065-1.1182 0.96312-2.1076 1.6875-2.9512-7.443-9.5272-19.033-15.648-32.088-15.648zm34.375 29.258-17.117 14.217c1.0802 2.8129 0.62155 5.9974-1.1328 8.4238l9.3105 13.424c1.0322-0.29015 2.1322-0.41295 3.2656-0.32227 1.1652 0.11652 2.2503 0.45219 3.2305 0.94922 5.4874-6.9349 8.7695-15.7 8.7695-25.25 0-3.5364-0.45115-6.9653-1.2949-10.234-1.1226 0.06331-2.2756-0.07996-3.4062-0.46484-0.57669-0.19632-1.1181-0.44768-1.625-0.74219zm-33.686 21.104-34.109 3.1504c-0.20342 0.82189-0.52722 1.6253-0.98047 2.3867-0.59978 1.0076-1.3747 1.8493-2.2617 2.5195 6.5763 13.612 20.504 22.98 36.662 22.98 6.9759 0 13.535-1.7484 19.268-4.8281-0.32416-1.0655-0.46257-2.2027-0.36719-3.3711 0.13352-1.669 0.72069-3.1752 1.6191-4.4355l-9.3164-13.438c-3.647 0.99799-7.721-0.43289-9.9023-3.8262-0.23706-0.36876-0.43379-0.7513-0.61133-1.1387z" fill="#1ca5d5"/>
   </g>
  </g>
 </g>
</svg>
