<?xml version="1.0" encoding="UTF-8"?>
<svg id="svg4187" width="32" height="32" version="1.1" viewBox="0 0 32 32.000001" xmlns="http://www.w3.org/2000/svg">
 <g id="layer1" transform="translate(0 -1020.4)" fill="#c30c04" stroke-width="0">
  <path id="path4157" d="m16 1020.4c-6.0124 0-11 4.9876-11 11 7.2e-5 6.5972 6 9.0902 6 12.51v0.9898h10v-0.9898c0-3.4071 5.9997-5.913 6-12.51-3.9e-5 -6.0123-4.9877-11-11-11zm-2.3808 1.9167 1.5439 1.7003-3.4016 2.5734-1.3495 3.4401-3.0499-1.6803c0.97737-2.8939 3.327-5.2046 6.2571-6.0335zm6.3808 0.8417c1.1226 0.5893 2.0752 1.365 2.8734 2.3488-1.4849 0.1102-2.8151 0.1113-4.2999 0.2224 0.48928-0.9046 0.95331-1.6799 1.4266-2.5712zm3.3361 2.9586c1.054 1.5253 1.6639 3.3239 1.6639 5.283-3.1e-5 2.7521-1.0838 4.899-3.0182 6.527l-0.36425-4.8552-3.0374-0.8861-0.89432-3.4209zm-12.924 3.914 4.7177 1.369-4.5514 7.1514c-0.61976-0.4438-1.1794-0.9632-1.6653-1.5457l-0.67456-5.6057z" opacity=".96" style="paint-order:markers fill stroke"/>
  <path id="rect4138" d="m11 1046.4h10v2.5h-10z" opacity=".96" style="paint-order:markers fill stroke"/>
  <path id="rect4138-3" d="m11 1049.9h10v2.5h-10z" opacity=".96" style="paint-order:markers fill stroke"/>
 </g>
</svg>
