<?xml version="1.0" encoding="UTF-8" standalone="no"?>
<svg
   xmlns:dc="http://purl.org/dc/elements/1.1/"
   xmlns:cc="http://creativecommons.org/ns#"
   xmlns:rdf="http://www.w3.org/1999/02/22-rdf-syntax-ns#"
   xmlns:svg="http://www.w3.org/2000/svg"
   xmlns="http://www.w3.org/2000/svg"
   id="svg6171"
   version="1.1"
   viewBox="0 0 192 192"
   height="192"
   width="192">
  <metadata
     id="metadata6177">
    <rdf:RDF>
      <cc:Work
         rdf:about="">
        <dc:format>image/svg+xml</dc:format>
        <dc:type
           rdf:resource="http://purl.org/dc/dcmitype/StillImage" />
        <dc:title></dc:title>
      </cc:Work>
    </rdf:RDF>
  </metadata>
  <defs
     id="defs6175" />
  <path
     style="fill:#ffffff"
     id="path6728"
     d="M 18.418,27.932 A 9.746,9.746 0 0 0 8.65,37.697 v 28.21 h 174.7 V 53.7 a 9.742,9.742 0 0 0 -9.768,-9.763 h -43.94 c -8.795,-0.48 -15.328,-2.353 -15.328,-2.353 0,0 -30.23,-7.436 -40.826,-10.94 C 65.332,27.944 64,27.93 62.78,27.93 H 18.418 Z" />
  <path
     style="fill:#ffffff"
     id="path6767"
     d="M 8.6503906 81.869141 L 8.6503906 154.30273 A 9.746 9.746 0 0 0 18.417969 164.06641 L 173.58203 164.06641 A 9.746 9.746 0 0 0 183.34961 154.30273 L 183.34961 81.869141 L 8.6503906 81.869141 z M 138.49805 91.398438 A 23.616005 23.616005 0 0 1 162.11328 115.01367 A 23.616005 23.616005 0 0 1 138.49805 138.63281 A 23.616005 23.616005 0 0 1 125.72852 134.84375 L 107.20117 153.36914 C 106.41133 154.15898 105.37646 154.54511 104.3457 154.53711 A 1.6993578 1.6993578 0 0 1 103.87891 154.49414 C 103.03139 154.38692 102.20822 154.02266 101.55469 153.36914 L 100.14453 151.95898 C 99.491671 151.30613 99.127208 150.4833 99.019531 149.63672 A 1.6963643 1.6963643 0 0 1 98.976562 149.16992 C 98.967448 148.1379 99.353712 147.10331 100.14453 146.3125 L 118.68164 127.77539 A 23.616005 23.616005 0 0 1 114.88086 115.01367 A 23.616005 23.616005 0 0 1 138.49805 91.398438 z M 138.49219 100.15625 L 138.49023 100.1582 A 14.858156 14.858156 0 0 1 138.49609 100.1582 L 138.49219 100.15625 z M 138.49805 100.1582 L 138.5 100.16016 A 14.858156 14.858156 0 0 0 123.64062 115.01758 A 14.858156 14.858156 0 0 0 127.83789 125.36719 A 14.858156 14.858156 0 0 0 138.49805 129.87305 A 14.858156 14.858156 0 0 0 153.35352 115.01562 A 14.858156 14.858156 0 0 0 138.49805 100.1582 z " />
  <path
     id="path6763"
     d="m 139.21289,99.402344 -0.002,0.002 a 14.89,14.89 0 0 1 0.006,0 z" />
</svg>
