<svg xmlns="http://www.w3.org/2000/svg" viewBox="0 0 192 192" height="192" width="192">
    <path d="M96 9.193a86.857 86.857 0 0 0-67.55 32.37L52.173 82.65A45.838 45.838 0 0 1 96 50.213h73.715A86.857 86.857 0 0 0 96 9.193zM19.438 55.11A86.857 86.857 0 0 0 9.143 96.05a86.857 86.857 0 0 0 73.466 85.71l23.733-41.112A45.838 45.838 0 0 1 96 141.888a45.838 45.838 0 0 1-39.36-22.445l-.044.026zm110.04 9.68a45.838 45.838 0 0 1 12.36 31.26 45.838 45.838 0 0 1-6.256 23.028l.04.024-36.782 63.705a86.857 86.857 0 0 0 84.017-86.756 86.857 86.857 0 0 0-5.832-31.26z" fill="#fff" paint-order="fill markers stroke"/>
    <circle cx="96" cy="96" r="31.259" fill="#fff" paint-order="fill markers stroke"/>
</svg>
