<svg xmlns="http://www.w3.org/2000/svg" viewBox="0 0 192 192" height="192" width="192">
    <path d="M96 7.78A88.22 88.22 0 0 0 7.78 96 88.22 88.22 0 0 0 96 184.22 88.22 88.22 0 0 0 184.22 96 88.22 88.22 0 0 0 96 7.78zm18.947 28.51c3.654.134 6.94 2.566 9.448 6.45 4.755 7.367-.282 5.034 6.246 1.957 6.53-3.077 12.845 6.05 12.845 6.05s5.518 6.938 3.198 17.636c-4.197 19.358-40.19 24.056-40.19 24.056-7.74-9.887-9.83-41.12-1.956-50.355 3.305-3.876 6.608-5.646 9.678-5.793.248-.012.494-.013.737-.004zm-52.164 8.464a24.43 24.43 0 0 1 5.6.566C87.74 49.518 92.44 85.51 92.44 85.51c-9.885 7.74-41.12 9.83-50.352 1.957-8.858-7.553-6.714-15.106.652-19.862 7.367-4.755 5.034.282 1.957-6.246-3.077-6.53 6.05-12.845 6.05-12.845s4.58-3.643 12.036-3.764zM85.51 99.56c7.74 9.885 9.83 41.12 1.957 50.352-7.553 8.858-15.106 6.714-19.862-.652-4.755-7.367.282-5.034-6.246-1.957-6.53 3.077-12.845-6.05-12.845-6.05s-5.517-6.94-3.197-17.637C49.518 104.26 85.51 99.56 85.51 99.56zm43.28 0c8.833-.008 17.083 1.53 21.122 4.973 8.858 7.553 6.714 15.106-.652 19.862-7.367 4.755-5.034-.282-1.957 6.246 3.077 6.53-6.05 12.845-6.05 12.845s-6.938 5.518-17.636 3.198c-19.358-4.197-24.056-40.19-24.056-40.19 5.56-4.352 17.88-6.917 29.23-6.93z" fill="#fff"/>
</svg>
