<svg xmlns="http://www.w3.org/2000/svg" viewBox="0 0 192 192" height="192" width="192">
    <path d="M96 10.886A85.114 85.114 0 0 0 10.886 96 85.114 85.114 0 0 0 96 181.114 85.114 85.114 0 0 0 181.114 96 85.114 85.114 0 0 0 96 10.886zM59.217 64.602a11.63 11.63 0 0 1 11.63 11.634 11.63 11.63 0 0 1-11.63 11.624 11.63 11.63 0 0 1-11.63-11.624 11.63 11.63 0 0 1 11.63-11.646zm36.783 0a11.63 11.63 0 0 1 11.63 11.634A11.63 11.63 0 0 1 96 87.86a11.63 11.63 0 0 1-11.63-11.624A11.63 11.63 0 0 1 96 64.59zm36.783 0a11.63 11.63 0 0 1 11.63 11.634 11.63 11.63 0 0 1-11.63 11.624 11.63 11.63 0 0 1-11.63-11.624 11.63 11.63 0 0 1 11.63-11.646zm-73.566 39.534a11.63 11.63 0 0 1 11.63 11.624 11.63 11.63 0 0 1-11.63 11.635 11.63 11.63 0 0 1-11.63-11.63 11.63 11.63 0 0 1 11.63-11.625zm36.783 0a11.63 11.63 0 0 1 11.63 11.624A11.63 11.63 0 0 1 96 127.395a11.63 11.63 0 0 1-11.63-11.63A11.63 11.63 0 0 1 96 104.14zm36.783 0a11.63 11.63 0 0 1 11.63 11.624 11.63 11.63 0 0 1-11.63 11.635 11.63 11.63 0 0 1-11.63-11.63 11.63 11.63 0 0 1 11.63-11.625z" fill="#fff"/>
</svg>
