<svg xmlns="http://www.w3.org/2000/svg" viewBox="0 0 192 192" height="192" width="192">
    <path d="M96 12.14A83.862 83.862 0 0 0 12.14 96 83.862 83.862 0 0 0 96 179.86 83.862 83.862 0 0 0 179.86 96 83.862 83.862 0 0 0 96 12.14zM59.766 57.917h72.468c6.965 0 12.57 5.606 12.57 12.57v51.024a12.54 12.54 0 0 1-12.57 12.57H59.766a12.542 12.542 0 0 1-12.57-12.57V70.49c0-6.964 5.605-12.57 12.57-12.57z" fill="#fff"/>
    <path d="M57.45 69.932v11.45L96 103.642l38.55-22.26v-11.45L96 92.19z" fill="#fff"/>
</svg>
