<svg xmlns="http://www.w3.org/2000/svg" viewBox="0 0 192 192" height="192" width="192">
    <path d="M19.257 30.108a8.6 8.6 0 0 0-8.622 8.623v99.13a8.6 8.6 0 0 0 8.622 8.616h11.9c.048.247.078.502.078.756V179.3l35.568-32.82h105.94a8.6 8.6 0 0 0 8.622-8.62V38.728a8.6 8.6 0 0 0-8.622-8.615H19.257zm35.44 43.604a14.577 14.577 0 0 1 14.58 14.578 14.577 14.577 0 0 1-14.578 14.577A14.577 14.577 0 0 1 40.12 88.29 14.577 14.577 0 0 1 54.7 73.712zm41.303 0a14.577 14.577 0 0 1 14.577 14.578A14.577 14.577 0 0 1 96 102.867 14.577 14.577 0 0 1 81.423 88.29 14.577 14.577 0 0 1 96 73.712zm41.302 0A14.577 14.577 0 0 1 151.88 88.29a14.577 14.577 0 0 1-14.578 14.577 14.577 14.577 0 0 1-14.577-14.577 14.577 14.577 0 0 1 14.577-14.578z" fill="#fff"/>
</svg>
