<svg xmlns="http://www.w3.org/2000/svg" viewBox="0 0 192 192" height="192" width="192">
    <path d="M96.014 18.487c-15.563.01-31.045 6.268-42.37 17.158C42.32 46.53 35.29 61.935 34.44 77.775v59.917h14.72V77.686a2.286 2.213 0 0 1 .006-.18c2.04-24.35 23.6-44.8 46.85-44.8s44.805 20.452 46.844 44.8a2.286 2.213 0 0 1-.02.49v59.698h14.72V77.99a2.286 2.213 0 0 1-.023-.194c-.848-15.84-7.87-31.245-19.187-42.133-11.312-10.89-26.78-17.156-42.335-17.176z" fill="#fff"/>
    <rect ry="6.279" y="106.121" x="25.248" height="55.392" width="41.699" fill="#fff"/>
    <rect ry="3.371" y="94.519" x="59.327" height="78.994" width="18.035" fill="#fff"/>
    <rect ry="6.279" y="106.121" x="-166.752" height="55.392" width="41.699" transform="scale(-1 1)" fill="#fff"/>
    <rect ry="3.371" y="94.519" x="114.638" height="78.994" width="18.035" fill="#fff"/>
</svg>
