<?xml version="1.0" encoding="UTF-8"?>
<svg id="acrobat-reader--top" width="32" height="32" fill="#d90a0a" stroke-linejoin="round" stroke-opacity="0" stroke-width="0" version="1.1" viewBox="0 0 32 32" xmlns="http://www.w3.org/2000/svg">
 <g id="acrobat-reader--layer1" transform="translate(0 -1020.4)">
  <path id="acrobat-reader" class="acrobat-reader" d="m0 1023.4v26c0 2 1 3 3 3h26c2 0 3-1 3-3v-26c0-2-1-3-3-3h-26c-2 0-3 1-3 3zm14.521-0.011c1.0234 0.024 2.2224 0.4677 3.0307 1.561 0.48887 0.6611 0.6024 1.3932 0.6756 2.0703 0.0732 0.677 0.0664 1.3205 0.07328 1.7002 0.01612 0.8895-0.11279 1.2354-0.24101 1.8388-0.15331 0.7214-0.38191 1.4831-0.71541 2.4605-0.11719 0.3434-0.26408 0.749-0.40917 1.1483 0.12936 0.1681 0.24149 0.3396 0.37486 0.5061 0.99416 1.2414 2.0855 2.4382 3.151 3.5115 1.622-0.3211 2.9272-0.5335 4.0498-0.3872 0.78023 0.1018 1.3511 0.1786 1.8785 0.3245 0.52739 0.1458 1.0128 0.389 1.4291 0.728 0.81765 0.666 1.2787 1.6357 1.1809 2.5584-0.03659 0.3455-0.12164 0.7805-0.38291 1.1496-0.26126 0.3692-0.5678 0.5896-0.98396 0.8887l-0.31768 0.152c-0.9046 0.25-1.5741 0.2261-2.5016 0.1365l-0.22577-0.049c-0.7609-0.2583-1.1648-0.4975-2.0988-0.9796l-0.17155-0.1123c-0.75356-0.6112-1.6058-1.3848-2.48-2.2251-1.0087 0.1906-1.9495 0.4179-3.3289 0.7164-1.3794 0.2984-2.4013 0.4748-3.301 0.6662-0.40029 0.7542-0.82657 1.2961-1.3523 2.1009-0.3824 0.5855-0.90912 1.2532-1.383 1.8514-0.47384 0.5982-0.92882 1.1962-0.97294 1.2703h-0.00722c-0.18237 0.2026-0.56578 0.6591-0.98946 1.1122-0.22175 0.2372-0.45198 0.4711-0.68873 0.6778-0.23675 0.2066-0.43488 0.3992-0.8535 0.5366l-0.057609 0.017c-1.4859 0.3908-2.7621-0.4614-3.4127-1.3725l-0.00589-0.01c-0.22548-0.3226-0.41796-0.7228-0.47398-1.156-0.056023-0.433 0.00437-0.8382 0.1042-1.2876 0.27816-1.2525 1.246-2.0175 2.2691-2.7752 0.96374-0.7139 1.1408-0.8699 2.7863-1.638 0.9946-0.4643 2.0701-0.8416 3.6376-1.2224 0.02047-0.036 0.03142-0.059 0.05253-0.096 0.69754-1.2439 1.7498-2.939 2.303-4.1066 0.19383-0.4091 0.34161-0.7888 0.4977-1.1737-1.6349-2.2456-2.9315-4.5728-3.2361-6.7885l-0.0029-0.024c-0.10376-0.9229-0.08138-1.5651 0.11182-2.1217 0.19321-0.5564 0.52632-0.8907 0.71668-1.1198 0.54551-0.6564 1.4236-1.0539 2.2716-1.034zm-0.40917 1.9858c-0.02058 0-0.03705 0-0.0521 0.011-0.06019 0.027-0.09639 0.1086-0.26982 0.3173-0.25582 0.3078-0.32001 0.3677-0.3647 0.4964-0.04425 0.1275-0.09831 0.4625-0.01441 1.2245 0.18317 1.3176 0.99326 2.9982 2.1026 4.7258 0.26789-0.8019 0.47041-1.4623 0.58622-2.0073 0.15373-0.7233 0.21108-0.6536 0.19781-1.3859-0.0078-0.4312-0.0056-0.9977-0.06227-1.5215-0.05664-0.5238-0.21175-0.9827-0.29438-1.0945-0.33477-0.4527-1.1027-0.7408-1.4668-0.7492-0.20234 0-0.30041-0.02-0.36215-0.017zm1.8883 11.025s-1.5157 2.174-2 3c1.399-0.2316 2.1991-0.4255 4-1zm7.8712 3.3653c-0.41727 0-0.94482 0.074-1.5659 0.1753 0.42114 0.3783 0.82908 0.7329 1.2046 1.0395 0.7971 0.4138 1.1141 0.5888 1.6252 0.7705 0.67649 0.066 0.98417 0.068 1.48-0.054 0.17329-0.1378 0.36372-0.2931 0.36554-0.2956 0.0025 0-6.5e-4 0.051 0.02626-0.2038 0.02941-0.2777 0.01754-0.4097-0.45407-0.7937-0.22827-0.186-0.3708-0.26-0.69762-0.3503-0.77172-0.1854-1.3016-0.2202-1.984-0.288zm-13.871 2.6347s-1.4351 0.6893-2 1-0.45771 0.2085-1.4245 0.9246-1.3857 1.1675-1.5062 1.5999 0.00647 0.7781 0.2807 1.1255c0.27422 0.3474 0.63069 0.3901 0.93725 0.3216 0.30656-0.069 0.45821-0.3429 0.75124-0.6563s0.76959-0.874 1.0217-1.1492h0.00427c0.24188-0.3394 0.48727-0.6678 0.83656-1.1088 0.5456-0.6871 1.099-2.0573 1.099-2.0573z"/>
 </g>
</svg>
