<svg width="32" height="32" fill="#d90a0a" stroke-linejoin="round" stroke-opacity="0" stroke-width="0" viewBox="0 0 32 32" xmlns="http://www.w3.org/2000/svg">
    <path class="acrobat-reader" d="M0 0v32h32V0zm14.52 2.99a3.875 3.875 0 0 1 3.032 1.56c.49.66.602 1.393.675 2.07.073.677.067 1.32.074 1.7.017.89-.112 1.236-.24 1.84-.154.72-.382 1.482-.716 2.46-.117.343-.264.748-.41 1.148.13.168.242.34.376.506a44.893 44.893 0 0 0 3.15 3.51c1.623-.32 2.928-.532 4.05-.386.78.102 1.352.18 1.88.325.527.146 1.012.39 1.428.728.818.667 1.28 1.636 1.18 2.56-.035.345-.12.78-.382 1.15-.26.368-.568.588-.984.887l-.317.152c-.905.25-1.574.226-2.502.136l-.226-.05c-.76-.257-1.165-.497-2.1-.98l-.17-.11a41.03 41.03 0 0 1-2.48-2.226c-1.01.19-1.95.418-3.33.716-1.378.3-2.4.475-3.3.666-.4.755-.827 1.297-1.352 2.1-.383.587-.91 1.255-1.383 1.853-.474.598-.93 1.196-.973 1.27H9.49c-.183.203-.566.66-.99 1.112-.222.237-.452.47-.69.678-.235.207-.434.4-.852.537l-.058.017c-1.486.39-2.762-.463-3.412-1.374l-.006-.01c-.226-.322-.418-.723-.474-1.156-.056-.433.004-.838.104-1.287.278-1.253 1.246-2.018 2.27-2.776.963-.714 1.14-.87 2.785-1.638.994-.465 2.07-.842 3.637-1.223.02-.036.03-.06.052-.096.697-1.243 1.75-2.938 2.302-4.106.194-.41.342-.788.498-1.173-1.635-2.245-2.93-4.572-3.236-6.788l-.003-.024c-.103-.923-.08-1.565.113-2.12.193-.558.526-.892.717-1.12a2.942 2.942 0 0 1 2.27-1.035zm-.408 1.984c-.02 0-.037 0-.052.01-.06.03-.097.11-.27.32-.256.307-.32.367-.365.495-.044.127-.098.462-.014 1.224.184 1.317.994 2.998 2.103 4.726.268-.802.47-1.463.587-2.008.153-.723.21-.653.197-1.386-.007-.43-.005-.997-.062-1.52-.056-.525-.212-.984-.294-1.096-.334-.452-1.102-.74-1.466-.75-.202 0-.3-.02-.362-.016zM16 16s-1.516 2.174-2 3c1.4-.23 2.2-.425 4-1zm7.87 3.366c-.416 0-.943.074-1.565.175.422.38.83.734 1.205 1.04.797.414 1.114.59 1.625.77.677.067.984.07 1.48-.053.174-.138.364-.293.366-.296.003.002 0 .053.027-.202.03-.278.018-.41-.454-.794-.228-.186-.37-.26-.698-.35-.77-.186-1.3-.22-1.984-.288zM10 22s-1.435.69-2 1-.457.21-1.424.925-1.386 1.168-1.506 1.6.006.778.28 1.126c.275.348.63.39.938.322.306-.07.458-.343.75-.656s.77-.874 1.023-1.15h.005c.242-.34.487-.667.836-1.108C9.448 23.37 10 22 10 22z"/>
</svg>
