<svg width="32" height="32" viewBox="0 0 32 32" xmlns="http://www.w3.org/2000/svg">
    <path d="M0 3v26c0 2 1 3 3 3h26c2 0 3-1 3-3V3c0-2-1-3-3-3H3C1 0 0 1 0 3zm14.52-.01a3.875 3.875 0 0 1 3.032 1.56c.49.66.602 1.393.675 2.07.073.677.067 1.32.074 1.7.02.89-.11 1.236-.24 1.84-.15.72-.38 1.482-.713 2.46-.117.343-.264.75-.41 1.148.13.168.242.34.376.506a44.893 44.893 0 0 0 3.15 3.512c1.624-.32 2.93-.534 4.05-.387.78.1 1.353.174 1.88.32.528.146 1.013.39 1.43.73.817.665 1.28 1.635 1.18 2.56-.036.343-.12.78-.383 1.15-.26.366-.57.59-.985.886l-.317.152c-.905.25-1.574.225-2.502.135l-.226-.05c-.76-.257-1.165-.496-2.1-.978l-.17-.113a41.03 41.03 0 0 1-2.48-2.225c-1.01.19-1.95.417-3.33.716-1.378.298-2.4.474-3.3.666-.4.753-.827 1.295-1.352 2.1-.383.585-.91 1.253-1.383 1.85-.474.6-.93 1.197-.973 1.27h-.01c-.183.204-.566.66-.99 1.114-.222.237-.452.47-.69.677-.235.208-.434.4-.852.538l-.058.018c-1.486.39-2.762-.463-3.412-1.374l-.006-.01c-.226-.323-.418-.723-.474-1.156-.056-.432.004-.838.104-1.287.278-1.253 1.246-2.018 2.27-2.775.963-.714 1.14-.87 2.785-1.638.992-.465 2.07-.842 3.635-1.223.02-.036.03-.06.052-.096.697-1.243 1.75-2.938 2.302-4.105.193-.41.34-.79.497-1.174-1.635-2.245-2.93-4.57-3.236-6.787l-.002-.024c-.104-.924-.08-1.567.112-2.123.193-.557.526-.89.717-1.12a2.942 2.942 0 0 1 2.27-1.034zm-.408 1.985c-.02 0-.037 0-.052.01-.06.028-.097.11-.27.318-.256.308-.32.368-.365.497-.044.127-.098.462-.014 1.224.187 1.318.997 2.998 2.106 4.726.268-.802.47-1.462.587-2.007.154-.724.21-.654.198-1.386-.006-.432-.004-.998-.06-1.522-.057-.524-.213-.983-.295-1.094-.334-.45-1.102-.74-1.466-.75-.203 0-.3-.02-.363-.013zM16 16s-1.516 2.174-2 3c1.4-.232 2.2-.426 4-1zm7.87 3.365c-.416 0-.943.074-1.565.175.422.38.83.733 1.205 1.04.797.414 1.114.59 1.625.77.677.066.984.068 1.48-.054.174-.137.364-.293.366-.295.006 0 0 .055.03-.2.03-.28.018-.41-.454-.794-.228-.186-.37-.26-.698-.35-.77-.185-1.3-.22-1.984-.288zM10 22s-1.435.69-2 1-.457.208-1.424.924-1.386 1.168-1.506 1.6.006.778.28 1.126c.275.347.63.39.938.32.306-.068.458-.34.75-.655s.77-.874 1.023-1.15h.008c.242-.338.487-.667.836-1.108C9.448 23.37 10 22 10 22z" fill="#d90a0a"/>
</svg>
