<svg width="32" height="32" viewBox="0 0 8.4666665 8.4666669" xmlns="http://www.w3.org/2000/svg">
    <path d="M4.233.53a3.704 3.704 0 1 0 0 7.408 3.704 3.704 0 0 0 0-7.408zm.205.59a3.01 3.01 0 0 1 3.01 3.012 3.01 3.01 0 0 1-3.01 3.01 3.01 3.01 0 0 1-3.01-3.01 3.01 3.01 0 0 1 3.01-3.01zm.193.4a2.344 2.344 0 0 0-2.343 2.344A2.344 2.344 0 0 0 4.63 6.208a2.344 2.344 0 0 0 2.344-2.344A2.344 2.344 0 0 0 4.63 1.52zm-.49.755h.38V3.92h-.38zm.476 1.85l1.366.832-.178.327-1.367-.833z" fill="#ffd201" paint-order="markers fill stroke"/>
</svg>
