<svg xmlns="http://www.w3.org/2000/svg" width="32" height="32" viewBox="0 0 8.4666665 8.4666669">
    <path d="M4.233.53a3.704 3.704 0 0 0 0 7.408 3.704 3.704 0 0 0 0-7.408zm.205.59a3.01 3.01 0 0 1 3.01 3.012 3.01 3.01 0 0 1-3.01 3.01 3.01 3.01 0 0 1-3.01-3.01 3.01 3.01 0 0 1 3.01-3.01V1.12z" fill="#ffd201"/>
    <path d="M4.63 1.52a2.344 2.344 0 0 0-2.34 2.344 2.344 2.344 0 0 0 2.34 2.344 2.344 2.344 0 0 0 2.347-2.344A2.344 2.344 0 0 0 4.63 1.52zm-.186.755h.38V3.92h-.38V2.275z" fill="#ffd201"/>
</svg>
