<?xml version="1.0" encoding="UTF-8"?>
<svg id="svg826" width="32" height="32" version="1.1" viewBox="0 0 8.4666665 8.4666669" xmlns="http://www.w3.org/2000/svg">
 <g id="layer1" transform="translate(0 -288.53)">
  <path id="path1484" d="m4.2333 289.06c-2.0458-2e-5 -3.7042 1.6583-3.7042 3.7042-9.6e-6 2.0458 1.6584 3.7042 3.7042 3.7042 2.0458-4e-5 3.7042-1.6584 3.7042-3.7042 9.1e-6 -2.0458-1.6584-3.7041-3.7042-3.7042zm0.20434 0.59117a3.011 3.011 0 0 1 3.0108 3.0108 3.011 3.011 0 0 1 -3.0108 3.0114 3.011 3.011 0 0 1 -3.0108 -3.0114 3.011 3.011 0 0 1 3.0108 -3.0108zm0.19312 0.39923a2.3437 2.3437 0 0 0 -2.344 2.3435 2.3437 2.3437 0 0 0 2.344 2.344 2.3437 2.3437 0 0 0 2.3435 -2.344 2.3437 2.3437 0 0 0 -2.3435 -2.3435zm-0.49196 0.75418h0.38211v1.6448h-0.38211zm0.47719 1.8503 1.366 0.83213-0.17836 0.3266-1.3666-0.83214z" fill="#ffd201" stroke-width="0" style="paint-order:markers fill stroke"/>
 </g>
</svg>
