<?xml version="1.0" encoding="UTF-8"?>
<svg id="svg4187" width="32" height="32" version="1.1" viewBox="0 0 32 32" xmlns="http://www.w3.org/2000/svg">
 <path id="path4721" d="m12 25c0.08916 1.981 1.86 3.9988 4 4 2.1391-0.0024 3.9109-2.0198 4-4z" fill="#fff" opacity=".96" stroke-width="0" style="paint-order:markers fill stroke"/>
 <path id="path4719" d="m16 3c-1.2226 0-2.5938 0.52008-2.5938 2.0762v0.66406s-6.4062 2.7402-6.4062 7.7598c0 5.0195-0.042969 4 0 7 3-2.5762 3.9261-2.2786 4.0977-3.9102 0.0074-0.07006 0.01373-0.14059 0.01953-0.21094 0.0015-0.01821 0.0025-0.03648 0.0039-0.05469 0.0071-0.09206 0.01268-0.1844 0.01758-0.27734 0.01011-0.19247 0.01623-0.38754 0.01953-0.58594 0.01152-0.67306-0.0032-1.389 0.02539-2.209 0.11765-3.372 2.2531-4.6406 4.8164-4.6406s4.4475 1.2583 4.4648 4.6406c0.0041 0.80358 0.0016 1.4952 0.04297 2.1406 0.0049 0.07606 0.0094 0.15168 0.01563 0.22656 0.0015 0.01812 0.0023 0.03666 0.0039 0.05469 0.01005 0.11341 0.0213 0.22455 0.03516 0.33594 0.0016 0.01279 0.0042 0.02627 0.0059 0.03906 0.01255 0.09737 0.02698 0.19461 0.04297 0.29102 4e-3 0.02425 0.0075 0.04809 0.01172 0.07227 0.01905 0.1084 0.04032 0.21622 0.06445 0.32422 0.34027 1.5227 1.3125 1.1875 4.3125 3.7637 0.03087-3.6024 0-2 0-7s-6.4062-7.7598-6.4062-7.7598v-0.66406c0-1.5561-1.3712-2.0762-2.5938-2.0762zm-1.6426 8.3809c-0.81573-7e-6 -1.4766 0.87786-1.4766 1.9609 2.5e-5 1.083 0.6609 1.9609 1.4766 1.9609 0.81566 1e-5 1.4765-0.87796 1.4766-1.9609 7.6e-5 -1.0831-0.66083-1.9609-1.4766-1.9609zm3.1758 0.08594c-0.80033-1.3e-5 -1.4492 0.83733-1.4492 1.8711 5e-6 1.0338 0.64889 1.8711 1.4492 1.8711 0.80033 1.3e-5 1.4492-0.83733 1.4492-1.8711-6e-6 -1.0338-0.64889-1.8711-1.4492-1.8711zm-3.127 1.4082c0.4224 8.7e-5 0.76567 0.34322 0.76562 0.76562-8.5e-5 0.42231-0.34331 0.76358-0.76562 0.76367-0.4224 4.2e-5 -0.76359-0.34127-0.76367-0.76367-4.2e-5 -0.42249 0.34118-0.76567 0.76367-0.76562zm3.127 0.14062c0.3427 2e-5 0.62108 0.27839 0.62109 0.62109 1.05e-4 0.34279-0.2783 0.62107-0.62109 0.62109-0.34279-2e-5 -0.6212-0.27831-0.62109-0.62109 1.7e-5 -0.3427 0.27839-0.62107 0.62109-0.62109zm-1.4746 2.4922c-1.874 0-3.7723 0.24173-3.9238 0.72461-0.30311 0.96575 3.1388 3.2513 3.8477 3.2227 0.70888-0.02867 3.9502-2.2569 3.8496-3.2227-0.05029-0.48288-1.8995-0.72461-3.7734-0.72461zm2.7148 3.002c-1.1317 0.8454-2.3387 1.5248-2.7871 1.543-0.44682 0.01807-1.7077-0.6548-2.8711-1.5039-2.0325 0.95747-2.7596 2.1206-4.1152 3.0273-1.3557 0.90676-4 2.4238-4 2.4238h22s-2.6237-1.5092-3.9981-2.4219-2.1525-2.125-4.2285-3.0684z" fill="#fff" fill-rule="evenodd" stroke-width="0"/>
</svg>
