<svg width="32" height="32" viewBox="0 0 32 32" xmlns="http://www.w3.org/2000/svg">
    <path d="M12 25c.09 1.98 1.86 4 4 4 2.14-.002 3.91-2.02 4-4z" fill="#fff" paint-order="markers fill stroke"/>
    <path d="M16 3c-1.223 0-2.594.52-2.594 2.076v.664S7 8.48 7 13.5s-.043 4 0 7c3-2.576 3.926-2.28 4.098-3.91l.02-.21c0-.02.002-.038.003-.056a14.035 14.035 0 0 0 .04-.863c.01-.67 0-1.38.03-2.2.12-3.37 2.26-4.64 4.82-4.64s4.45 1.26 4.468 4.64c.004.807 0 1.498.043 2.14l.015.23.005.055c.01.113.02.224.034.336l.007.04a9.2 9.2 0 0 0 .046.29 7.426 7.426 0 0 0 .077.396c.33 1.518 1.3 1.184 4.3 3.758.03-3.602 0-2 0-7s-6.405-7.76-6.405-7.76V5.08C18.595 3.52 17.225 3 16 3zm-1.643 8.38c-.815 0-1.476.88-1.476 1.962 0 1.083.67 1.96 1.48 1.96.82 0 1.48-.877 1.48-1.96s-.66-1.96-1.47-1.96zm3.176.087c-.8 0-1.45.837-1.45 1.87 0 1.035.65 1.872 1.45 1.872.8 0 1.45-.84 1.45-1.88 0-1.038-.65-1.87-1.45-1.87zm-3.127 1.408a.765.765 0 1 1 .002 1.53.765.765 0 0 1-.002-1.53zm3.127.14a.622.622 0 1 1 0 1.244.622.622 0 0 1 0-1.25zM16.06 15.51c-1.875 0-3.774.242-3.925.724-.303.966 3.14 3.252 3.848 3.223.708-.028 3.95-2.257 3.85-3.223-.05-.482-1.9-.724-3.774-.724zm2.713 3.002c-1.13.845-2.338 1.525-2.787 1.543-.447.018-1.707-.655-2.87-1.504-2.033.96-2.76 2.12-4.116 3.03C7.644 22.49 5 24 5 24h22s-2.624-1.51-3.998-2.422-2.153-2.125-4.23-3.068z" fill="#fff"/>
</svg>
