<svg width="32" height="32" viewBox="0 0 32 32" xmlns="http://www.w3.org/2000/svg">
    <path d="M12 25c.09 1.98 1.86 4 4 4 2.14-.002 3.91-2.02 4-4z" fill="#fff" opacity=".96" paint-order="markers fill stroke"/>
    <path d="M16 3c-1.223 0-2.594.52-2.594 2.076v.664S7 8.48 7 13.5s-.043 4 0 7c3-2.576 3.926-2.28 4.098-3.91l.02-.21c0-.02.002-.038.003-.056.008-.092.014-.184.02-.277.01-.193.015-.388.018-.586.012-.672-.003-1.388.026-2.208.117-3.372 2.253-4.64 4.816-4.64s4.448 1.258 4.465 4.64c.004.804 0 1.495.043 2.14l.015.227.004.054c.01.113.022.224.035.336.002.013.005.026.006.04.013.096.027.193.043.29.005.024.01.048.013.072.02.108.04.216.065.324C21.028 18.26 22 17.924 25 20.5c.03-3.602 0-2 0-7s-6.406-7.76-6.406-7.76v-.664C18.594 3.52 17.224 3 16 3zm-1.643 8.38c-.815 0-1.476.88-1.476 1.962 0 1.083.662 1.96 1.477 1.96.816 0 1.477-.877 1.477-1.96s-.66-1.96-1.477-1.96zm3.176.087c-.8 0-1.45.837-1.45 1.87 0 1.035.65 1.872 1.45 1.872.8 0 1.45-.838 1.45-1.872 0-1.034-.65-1.87-1.45-1.87zm-3.127 1.408a.765.765 0 1 1 .002 1.53.765.765 0 0 1-.002-1.53zm3.127.14a.622.622 0 1 1 0 1.244.622.622 0 0 1 0-1.244zM16.06 15.51c-1.875 0-3.774.242-3.925.724-.303.966 3.14 3.252 3.848 3.223.708-.028 3.95-2.257 3.85-3.223-.05-.482-1.9-.724-3.774-.724zm2.713 3.002c-1.13.845-2.338 1.525-2.787 1.543-.447.018-1.707-.655-2.87-1.504-2.033.956-2.76 2.12-4.116 3.026C7.644 22.483 5 24 5 24h22s-2.624-1.51-3.998-2.422-2.153-2.125-4.23-3.068z" fill="#fff" fill-rule="evenodd"/>
</svg>
