<?xml version="1.0" encoding="UTF-8"?>
<svg id="svg4634" width="32" height="32" version="1.1" viewBox="0 0 8.4666665 8.4666669" xmlns="http://www.w3.org/2000/svg">
 <g id="layer1" transform="translate(0 -288.53)">
  <path id="rect5226" d="m-3.6667e-7 288.53v8.4667h8.4667v-8.4667zm6.0694 0.79065a0.59481 0.59481 0 0 1 0.5948 0.5948 0.59481 0.59481 0 0 1 -0.5948 0.59479 0.59481 0.59481 0 0 1 -0.5948 -0.59479 0.59481 0.59481 0 0 1 0.5948 -0.5948zm-2.1203 1.1172 1.4692 1e-3c0.05302 0 0.10397 0.021 0.14159 0.0584l0.96222 0.9555 0.66766-0.81235c0.06931-0.0845 0.1931-0.098 0.27905-0.0305l0.13178 0.10283c0.08868 0.0696 0.10261 0.19867 0.03101 0.28577l-0.92449 1.126c-0.07577 0.0923-0.21499 0.0985-0.29869 0.0134l-0.64647-0.65836-0.8599 1.033 0.82579 0.82993c0.04775 0.048 0.06822 0.11663 0.05426 0.18293l-0.4992 2.3678c-0.02374 0.11235-0.13648 0.18217-0.24753 0.15297l-0.24805-0.0656c-0.10393-0.0275-0.16809-0.13163-0.14521-0.23668l0.38551-1.7746-0.93483-0.93379-0.78548 0.94981c-0.03832 0.0462-0.09549 0.0731-0.15555 0.0729l-1.8004-3e-3c-0.11302-1.2e-4 -0.20358-0.0932-0.2005-0.20618l0.0083-0.31213c3e-3 -0.1098 0.09376-0.19734 0.20361-0.19534l1.3777 0.0176 1.9699-2.3844-0.59635-1e-3 -0.86868 1.0583c-0.06835 0.0834-0.19045 0.098-0.27647 0.0331l-0.11214-0.0842c-0.09124-0.0688-0.10666-0.20005-0.03411-0.28835l0.971-1.1813c0.03822-0.0465 0.0954-0.0734 0.15555-0.0734z" fill="#dafc1f" stroke-width="0" style="paint-order:normal"/>
 </g>
</svg>
