<svg width="32" height="32" viewBox="0 0 8.4666665 8.4666669" xmlns="http://www.w3.org/2000/svg">
    <path d="M0 0v8.467h8.467V0zm6.07.79a.595.595 0 0 1 .594.595.595.595 0 0 1-.595.595.595.595 0 0 1-.595-.595A.595.595 0 0 1 6.07.79zM3.95 1.91h1.468a.2.2 0 0 1 .142.06l.962.955.668-.813a.2.2 0 0 1 .28-.03l.13.103a.2.2 0 0 1 .032.286l-.925 1.124a.2.2 0 0 1-.3.014l-.645-.658-.86 1.033.826.83a.2.2 0 0 1 .054.182l-.5 2.368a.2.2 0 0 1-.247.153l-.248-.065a.2.2 0 0 1-.145-.236l.386-1.775-.935-.935-.786.95a.202.202 0 0 1-.155.073l-1.8-.003a.2.2 0 0 1-.2-.206l.007-.313a.2.2 0 0 1 .203-.195l1.377.017 1.97-2.385h-.596L3.244 3.5a.2.2 0 0 1-.275.033l-.113-.084a.2.2 0 0 1-.034-.287l.97-1.182a.2.2 0 0 1 .156-.072z" fill="#dafc1f"/>
</svg>
