<svg xmlns="http://www.w3.org/2000/svg" width="32" height="32" viewBox="0 0 8.4666665 8.4666669">
    <path d="M3.772 1.984a.2.2 0 0 0-.156.073l-.97 1.182a.2.2 0 0 0 .033.287l.11.084a.2.2 0 0 0 .274-.034l.87-1.058h.595L2.56 4.905l-1.38-.016a.2.2 0 0 0-.204.194l-.01.31a.2.2 0 0 0 .2.207H2.97a.2.2 0 0 0 .155-.07l.786-.95.935.934-.385 1.774a.2.2 0 0 0 .144.237l.248.065a.2.2 0 0 0 .248-.153l.5-2.368a.2.2 0 0 0-.054-.185l-.826-.83.86-1.033.647.658a.2.2 0 0 0 .297-.012l.928-1.128a.2.2 0 0 0-.03-.285l-.133-.103a.2.2 0 0 0-.28.03l-.67.813-.96-.955a.2.2 0 0 0-.145-.06z" style="font-variant-ligatures:normal;font-variant-position:normal;font-variant-caps:normal;font-variant-numeric:normal;font-variant-alternates:normal;font-feature-settings:normal;text-indent:0;text-decoration-line:none;text-decoration-style:solid;text-decoration-color:#000;text-transform:none;text-orientation:mixed;shape-padding:0;isolation:auto;mix-blend-mode:normal" color="#000" white-space="normal" fill="#dafc1f" fill-rule="evenodd"/>
    <circle cx="5.891" cy="1.464" r=".595" fill="#dafc1f" paint-order="markers stroke fill"/>
</svg>
