<svg width="32" height="32" viewBox="0 0 8.4666665 8.4666669" xmlns="http://www.w3.org/2000/svg">
    <path d="M0 .8v6.88c0 .528.265.793.794.793h6.88c.528 0 .793-.265.793-.794V.8c0-.53-.265-.794-.794-.794H.793C.266.006 0 .27 0 .8zM6.07.797a.595.595 0 1 1 0 1.19.595.595 0 0 1 0-1.19zM3.95 1.914h1.468a.2.2 0 0 1 .142.06l.962.955.668-.813a.2.2 0 0 1 .28-.03l.13.102a.2.2 0 0 1 .032.285L6.707 3.6a.2.2 0 0 1-.3.014l-.645-.658-.86 1.033.826.83A.2.2 0 0 1 5.782 5l-.5 2.368a.2.2 0 0 1-.247.153l-.248-.066a.2.2 0 0 1-.145-.237l.386-1.774-.935-.934-.786.95a.202.202 0 0 1-.155.073l-1.8-.003a.2.2 0 0 1-.2-.207l.007-.312a.2.2 0 0 1 .203-.195l1.377.018L4.71 2.45h-.596l-.87 1.058a.2.2 0 0 1-.275.034l-.113-.085a.2.2 0 0 1-.034-.288l.97-1.182a.2.2 0 0 1 .156-.074z" fill="#dafc1f"/>
</svg>
