<svg xmlns="http://www.w3.org/2000/svg" viewBox="0 0 32 32" height="32" width="32">
    <path style="font-variant-ligatures:normal;font-variant-position:normal;font-variant-caps:normal;font-variant-numeric:normal;font-variant-alternates:normal;font-feature-settings:normal;text-indent:0;text-decoration-line:none;text-decoration-style:solid;text-decoration-color:#000;text-transform:none;text-orientation:mixed;shape-padding:0;isolation:auto;mix-blend-mode:normal" d="M14.26 7.544a.752.752 0 0 0-.588.274l-3.647 4.445a.752.752 0 0 0 .124 1.07l.41.317a.752.752 0 0 0 1.02-.13l3.27-3.98h2.24L9.7 18.527l-5.19-.056a.752.752 0 0 0-.765.73l-.038 1.168a.752.752 0 0 0 .752.778h6.78a.752.752 0 0 0 .58-.262l2.956-3.57 3.523 3.51-1.448 6.67a.752.752 0 0 0 .545.89l.935.247a.752.752 0 0 0 .932-.576l1.88-8.902a.752.752 0 0 0-.2-.702l-3.105-3.12 3.234-3.883 2.436 2.48a.752.752 0 0 0 1.12-.047l3.486-4.24A.752.752 0 0 0 28 8.55l-.515-.38a.752.752 0 0 0-1.053.112l-2.52 3.062-3.61-3.59a.752.752 0 0 0-.544-.227z" color="#000" white-space="normal" fill="#dafc1f" fill-rule="evenodd"/>
    <circle r="2.237" cy="5.589" cx="22.226" fill="#dafc1f" paint-order="markers stroke fill"/>
</svg>
