<?xml version="1.0" encoding="UTF-8"?>
<svg id="svg2" width="32" height="32" version="1.1" viewBox="0 0 32 32" xmlns="http://www.w3.org/2000/svg">
 <g id="layer1" transform="translate(0,-68)">
  <path id="ankidroid" d="m5.5 72.625v22.75c0 1.75 0.875 2.625 2.625 2.625h15.75c1.75 0 2.625-0.875 2.625-2.625v-22.75c0-1.75-0.875-2.625-2.625-2.625h-15.75c-1.75 0-2.625 0.875-2.625 2.625zm15.042 1.2618 0.50247 2.5208 2.3614 1.0151-2.242 1.2568-0.23572 2.5596-1.8882-1.7438-2.507 0.56634 1.0754-2.3346-1.3141-2.2093 2.5524 0.30137zm-8.9383 10.701 3.0447 2.0529 3.4171-1.3439-1.0121 3.5305 2.3345 2.8347-3.6701 0.12831-1.9747 3.0961-1.2562-3.4505-3.5549-0.92142 2.8937-2.2612z" fill="#4c5051"/>
 </g>
</svg>
