<?xml version="1.0" encoding="UTF-8"?>
<!-- Created with Inkscape (http://www.inkscape.org/) -->
<svg id="svg2" width="32" height="32" version="1.1" viewBox="0 0 32 32" xmlns="http://www.w3.org/2000/svg">
 <path id="path5077" d="m16 2a7.5 7.5 0 0 0 -7.5 7.5 7.5 7.5 0 0 0 0.01758 0.5h-0.01758v4h-4v16h23v-16h-4v-4h-0.02539a7.5 7.5 0 0 0 0.02539 -0.5 7.5 7.5 0 0 0 -7.5 -7.5zm0 2.5a5 5 0 0 1 5 5 5 5 0 0 1 -0.35547 1.8398l0.01172-0.0059c-0.72829 2.3927-3.5498 4.8065-5.5234 6.6661l0.70117-3.5078a5 5 0 0 1 -4.834 -4.9922 5 5 0 0 1 5 -5zm4.7988 14.002c0.07052 0.0076 0.14092 0.02976 0.20703 0.06641 0.26443 0.14658 0.35947 0.47776 0.21289 0.74219l-1.2773 2.3027c1.9174 1.2408 3.0554 3.4016 3.0586 5.8867h-14c0.0032-2.4851 1.1412-4.6459 3.0586-5.8867l-1.2773-2.3027c-0.14658-0.26443-0.05154-0.59561 0.21289-0.74219 0.06611-0.03664 0.13653-0.05687 0.20703-0.06445 0.21149-0.02276 0.42522 0.07902 0.53516 0.27734l1.2832 2.3164c0.88083-0.38216 1.8801-0.59762 2.9805-0.59766 1.1004 6.5e-5 2.0996 0.21548 2.9805 0.59766l1.2832-2.3164c0.10993-0.19832 0.32358-0.30201 0.53516-0.2793zm-8.2988 4.8477a0.65 0.65 0 0 0 -0.65039 0.65039 0.65 0.65 0 0 0 0.65039 0.65039 0.65 0.65 0 0 0 0.65039 -0.65039 0.65 0.65 0 0 0 -0.65039 -0.65039zm7 0a0.65 0.65 0 0 0 -0.65039 0.65039 0.65 0.65 0 0 0 0.65039 0.65039 0.65 0.65 0 0 0 0.65039 -0.65039 0.65 0.65 0 0 0 -0.65039 -0.65039z" fill="#414141" stroke-width="0" style="paint-order:markers fill stroke"/>
 <rect id="rect4487" x="195" y="-53" width="71.717" height="42.476" rx="5.405e-8" fill="#fff" stroke-width="0" style="paint-order:markers fill stroke"/>
</svg>
