<svg width="32" height="32" viewBox="0 0 32 32" xmlns="http://www.w3.org/2000/svg">
    <path fill="#6a6a6a" paint-order="markers fill stroke" d="M2 26h4v4H2zm6 0h16v4H8zm18 0h4v4h-4zM2 20h4v4H2zm6 0h4v4H8zm6 0h4v4h-4zm6 0h4v4h-4zm6 0h4v4h-4z"/>
    <path d="M9.984 2A1.99 1.99 0 0 0 8 4.004V11c0 2 1 2.75 2 3.5l6 4.5 6-4.5c1-.75 2-1.517 2-3.5V4.004A1.99 1.99 0 0 0 22.016 2H9.986zM12.5 3h1L15 8h-1l-.297-1h-1.406L12 8h-1l1.5-5zM19 3a2 2.5 0 0 1 2 2.5A2 2.5 0 0 1 19 8a2 2.5 0 0 1-2-2.5A2 2.5 0 0 1 19 3zm0 1a1 1.5 0 0 0-1 1.5A1 1.5 0 0 0 19 7a1 1.5 0 0 0 1-1.5A1 1.5 0 0 0 19 4zm-6 .63L12.594 6h.812L13 4.63zM12.5 9h1c.552 0 1.5.448 1.5 1h-2.5a.5.5 0 0 0 0 1h1a1.5 1.5 0 0 1 0 3h-1c-.552 0-1.5-.448-1.5-1h2.5a.5.5 0 0 0 0-1h-1a1.5 1.5 0 0 1 0-3zM17 9h2.5a1.5 1.5 0 0 1 0 3H18v2h-1V9zm1 1v1h1.5a.5.5 0 0 0 .5-.5.5.5 0 0 0-.5-.5H18z" fill="#6a6a6a"/>
    <path fill="#6a6a6a" paint-order="markers fill stroke" d="M2 14h4v4H2zm6 1v3h4zm16 0l-4 3h4zm2-1h4v4h-4z"/>
</svg>
