<svg width="32" height="32" viewBox="0 0 32 32" xmlns="http://www.w3.org/2000/svg">
    <path fill="#6a6a6a" paint-order="markers fill stroke" d="M2 26h4v4H2zM8 26h16v4H8zM26 26h4v4h-4zM2 20h4v4H2zM8 20h4v4H8zM14 20h4v4h-4zM20 20h4v4h-4zM26 20h4v4h-4z"/>
    <path d="M8 2v11l8 6 8-6V2H8zm4.5 1h1L15 8h-1l-.297-1h-1.406L12 8h-1l1.5-5zM19 3a2 2.5 0 0 1 2 2.5A2 2.5 0 0 1 19 8a2 2.5 0 0 1-2-2.5A2 2.5 0 0 1 19 3zm0 1a1 1.5 0 0 0-1 1.5A1 1.5 0 0 0 19 7a1 1.5 0 0 0 1-1.5A1 1.5 0 0 0 19 4zm-6 .63L12.594 6h.812L13 4.63zM12.5 9h1c.552 0 1.5.448 1.5 1h-2.5a.5.5 0 0 0 0 1h1a1.5 1.5 0 0 1 0 3h-1c-.552 0-1.5-.448-1.5-1h2.5a.5.5 0 0 0 0-1h-1a1.5 1.5 0 0 1 0-3zM17 9h2.5a1.5 1.5 0 0 1 0 3H18v2h-1V9zm1 1v1h1.5a.5.5 0 0 0 .5-.5.5.5 0 0 0-.5-.5H18z" fill="#6a6a6a" fill-rule="evenodd"/>
    <path fill="#6a6a6a" paint-order="markers fill stroke" d="M2 14h4v4H2zM8 15v3h4zM24 15l-4 3h4zM26 14h4v4h-4z"/>
</svg>
