<svg xmlns="http://www.w3.org/2000/svg" viewBox="0 0 32 32" height="32" width="32">
    <path d="M2.88 5.34v21.32c0 1.64.82 2.46 2.46 2.46h21.32c1.64 0 2.46-.82 2.46-2.46V5.34c0-1.64-.82-2.46-2.46-2.46H5.34c-1.64 0-2.46.82-2.46 2.46zM17.64 7.8l2.87 2.87V9.03h2.05v3.69L25.84 16l-1.45 1.45L16 9.06l-8.39 8.39L6.16 16l8.2-8.2C16 6.16 16 6.16 17.64 7.8zm-8.2 9.43h2.05v5.74h9.02v-5.74h2.05v6.97c0 .412-.408.82-.82.82H10.26c-.41 0-.82-.377-.82-.787z" fill="#4685ed" paint-order="markers fill stroke"/>
</svg>
