<svg xmlns="http://www.w3.org/2000/svg" viewBox="0 0 192 192" height="192" width="192">
    <path d="M26.824 31.03v9.492H16.43a8.037 8.037 0 0 0-8.054 8.053v104.342a8.037 8.037 0 0 0 8.053 8.053h159.14a8.037 8.037 0 0 0 8.05-8.053V48.575a8.037 8.037 0 0 0-8.056-8.053H61.82V31.03zM162.33 53.54a8.274 8.274 0 1 1 .003 16.55 8.274 8.274 0 0 1-.004-16.55zM96 67.923c21.123 0 38.247 17.125 38.248 38.248.002 21.13-17.123 38.26-38.248 38.26-21.125 0-38.25-17.13-38.248-38.253C57.752 85.054 74.877 67.93 96 67.93z" fill="#b3b3b3" paint-order="fill markers stroke"/>
</svg>
