<?xml version="1.0" encoding="UTF-8"?>
<svg version="1.1" viewBox="0 0 32 32" xmlns="http://www.w3.org/2000/svg">
 <g transform="translate(0,-352)">
  <path transform="translate(0,352)" d="m10 2c-2 0-5 0.428-5 3v2 5 9.5c0 0.831 0.669 1.5 1.5 1.5h2.5v-13c0-0.554 0.446-1 1-1s1 0.446 1 1v13h4v-14c0-0.554 0.446-1 1-1s1 0.446 1 1v14h4v-12c0-0.554 0.446-1 1-1s1 0.446 1 1v1 11h2.5c0.831 0 1.5-0.669 1.5-1.5v-9.5-3.5-2.5c0-2-2-3.344-3.576-3.344s-2.626 1.304-4.932 1.344c-3.116-0.1254-6.492-2-8.492-2zm-3.5 23c-0.831 0-1.5 0.669-1.5 1.5v3c0 0.831 0.669 1.5 1.5 1.5h19c0.831 0 1.5-0.669 1.5-1.5v-3c0-0.831-0.669-1.5-1.5-1.5h-19z" fill="#fff" stroke-width="0" style="paint-order:markers fill stroke"/>
 </g>
</svg>
