<?xml version="1.0" encoding="UTF-8"?>
<svg version="1.1" viewBox="0 0 32 32" xmlns="http://www.w3.org/2000/svg">
 <g transform="translate(0,-352)">
  <path transform="translate(0,352)" d="m10 2c-2 0-5 0.428-5 3v2 3 11.25c0 0.9695 0.7805 1.75 1.75 1.75h1.75v-1.75-10.75a1.5 1.5 0 0 1 1.5 -1.5 1.5 1.5 0 0 1 1.5 1.5v12.5h3v-13.5a1.5 1.5 0 0 1 1.5 -1.5 1.5 1.5 0 0 1 1.5 1.5v13.5h3v-12a1.5 1.5 0 0 1 1.5 -1.5 1.5 1.5 0 0 1 1.5 1.5v10.25 1.75h1.75c0.9695 0 1.75-0.7805 1.75-1.75v-12.5-1.75-1c0-2-2-3.344-3.576-3.344s-2.626 1.304-4.932 1.344c-3.116-0.1254-6.492-2-8.492-2zm-3.5 23c-0.831 0-1.5 0.669-1.5 1.5v3c0 0.831 0.669 1.5 1.5 1.5h19c0.831 0 1.5-0.669 1.5-1.5v-3c0-0.831-0.669-1.5-1.5-1.5h-19z" fill="#618f30" stroke-width="0" style="paint-order:markers fill stroke"/>
 </g>
</svg>
