<?xml version="1.0" encoding="UTF-8"?>
<!-- Created with Inkscape (http://www.inkscape.org/) -->
<svg id="svg2" width="32" height="32" version="1.1" viewBox="0 0 32 32" xmlns="http://www.w3.org/2000/svg">
 <path id="path5380" d="m16 2a14 14 0 0 0 -14 14 14 14 0 0 0 14 14 14 14 0 0 0 14 -14 14 14 0 0 0 -14 -14zm-1.5996 6.9004h3.1992v4.8965l4.6582-1.5117 0.99024 3.043-4.6582 1.5137 2.8789 3.9609-2.5918 1.8828-2.877-3.9629-2.877 3.9629-2.5918-1.8828 2.8789-3.9609-4.6582-1.5137 0.99023-3.043 4.6582 1.5117v-4.8965z" fill="#207be6" stroke-width="0" style="paint-order:markers fill stroke"/>
</svg>
