<?xml version="1.0" encoding="UTF-8"?>
<svg version="1.1" viewBox="0 0 32 32" xmlns="http://www.w3.org/2000/svg">
 <g transform="translate(0,-160)">
  <path transform="translate(0,160)" d="m3 0c-1.662 0-3 1.338-3 3v26c0 1.662 1.338 3 3 3h26c1.662 0 3-1.338 3-3v-26c0-1.662-1.338-3-3-3h-26zm11.7 5.451c0.4307 0.004458 0.8672 0.03214 1.305 0.07812l6 0.6309v5.34h3v2h-3v8.5c0 2 1 2 2 2h1v2.5h-2c-2 0-4.5-0.5-4.5-4.5v-14h-2.5c-3 0-3.5 0-3.5 3.5h3.5v2h-3.5v13h-3.5v-13h-2.5v-2h2.5v-1.5c0-3.5 2.681-4.58 5.695-4.549z" fill="#47ab67" stroke-width="0" style="paint-order:markers fill stroke"/>
 </g>
</svg>
