<?xml version="1.0" encoding="UTF-8"?>
<svg version="1.1" viewBox="0 0 32 32" xmlns="http://www.w3.org/2000/svg" xmlns:xlink="http://www.w3.org/1999/xlink">
 <g transform="translate(0,-352)">
  <path transform="translate(0,352)" d="m3.016 0c-1.671 0-3.016 1.344-3.016 3.016v25.97c0 1.671 1.344 3.016 3.016 3.016h25.97c1.671 0 3.016-1.344 3.016-3.016v-25.97c0-1.671-1.344-3.016-3.016-3.016h-25.97zm12.98 4.4l10 5.777v11.55l-10 5.777-10-5.777v-11.55l10-5.777zm0 2.311l-7 4.045 7 4.045h0.001953l7.018-4.035-7.02-4.055zm7.98 4.609l0.01953 0.03516v-0.02344l-0.01953-0.01172zm-15.98 1.168v8.09l7 4.043v-8.09l-7-4.043zm16 0.02148l-7 4.023v8.088l7-4.043v-8.068z" fill="#21eafe" style="paint-order:markers fill stroke"/>
 </g>
</svg>
