<?xml version="1.0" encoding="UTF-8"?>
<svg version="1.1" viewBox="0 0 32 32" xmlns="http://www.w3.org/2000/svg">
 <g transform="translate(0,-352)">
  <path transform="translate(0,352)" d="m16 2c-6.627 0-12 5.373-12 12s5.373 12 12 12c0.01413 0-0.01412 4 0 4 9 0 12-9.387 12-16 0-6.627-5.373-12-12-12zm0 8.301a2.5 2.5 0 0 1 2.5 2.5 2.5 2.5 0 0 1 -1.191 2.127l1.191 3.572h-5l1.191-3.574a2.5 2.5 0 0 1 -1.191 -2.125 2.5 2.5 0 0 1 2.5 -2.5z" color="#000000" color-rendering="auto" dominant-baseline="auto" fill="#2491e9" image-rendering="auto" shape-rendering="auto" solid-color="#000000" style="font-feature-settings:normal;font-variant-alternates:normal;font-variant-caps:normal;font-variant-east-asian:normal;font-variant-ligatures:normal;font-variant-numeric:normal;font-variant-position:normal;isolation:auto;mix-blend-mode:normal;paint-order:markers fill stroke;shape-padding:0;text-decoration-color:#000000;text-decoration-line:none;text-decoration-style:solid;text-indent:0;text-orientation:mixed;text-transform:none;white-space:normal"/>
 </g>
</svg>
