<svg viewBox="0 0 32 32" xmlns="http://www.w3.org/2000/svg">
    <path d="M16 2C9.373 2 4 7.373 4 14s5.373 12 12 12c.014 0-.014 4 0 4 9 0 12-9.387 12-16 0-6.627-5.373-12-12-12zm0 8.3a2.5 2.5 0 0 1 2.5 2.5 2.5 2.5 0 0 1-1.19 2.128L18.5 18.5h-5l1.19-3.574A2.5 2.5 0 0 1 13.5 12.8a2.5 2.5 0 0 1 2.5-2.5z" color="#000" fill="#2491e9" solid-color="#000000" style="font-feature-settings:normal;font-variant-alternates:normal;font-variant-caps:normal;font-variant-east-asian:normal;font-variant-ligatures:normal;font-variant-numeric:normal;font-variant-position:normal;isolation:auto;mix-blend-mode:normal;shape-padding:0;text-decoration-color:#000;text-decoration-line:none;text-decoration-style:solid;text-indent:0;text-orientation:mixed;text-transform:none" paint-order="markers fill stroke" white-space="normal"/>
</svg>
