<svg xmlns="http://www.w3.org/2000/svg" viewBox="0 0 32 32" height="32" width="32">
    <path d="M9.977 2.2a7.544 7.46 0 0 0-7.544 7.46 7.544 7.46 0 0 0 1.124 3.91 12.862 13.342 7.774 0 0 4.83 12.994 12.862 13.342 7.774 0 0 10.18 2.4 7.544 7.46 0 0 0 3.456.836 7.544 7.46 0 0 0 7.544-7.46 7.544 7.46 0 0 0-.863-3.46 12.862 13.342 7.774 0 0-4.682-13.653 12.862 13.342 7.774 0 0-10.764-2.273A7.544 7.46 0 0 0 9.976 2.2zm5.888 4.02c.163 0 .322.002.48.01l.076.003.076.01c2.415.317 4.61 1.382 6.348 3.176a1.868 1.868 0 1 1-2.683 2.597c-1.176-1.214-2.416-1.82-4.056-2.053-.61-.02-1.395.133-1.877.403-.49.274-.66.455-.7.966-.05.858.013.897.383 1.196.372.302 1.38.73 2.967 1.134l.005.002h.003c1.4.368 2.9.653 4.3 1.448 1.395.79 2.61 2.537 2.503 4.542-.058 1.857-1.13 3.455-2.514 4.306-1.392.855-3.023 1.14-4.66 1.085h-.023c-3.277-.15-5.543-1.897-6.797-3.505a1.868 1.868 0 1 1 2.946-2.295c.776.998 1.924 1.968 4.01 2.07 1.07.033 2.03-.206 2.567-.537.54-.33.727-.567.742-1.25v-.034l.002-.035c.05-.83.01-.74-.616-1.096-.625-.355-1.923-.7-3.404-1.085-1.742-.443-3.183-.875-4.388-1.85-1.21-.98-1.86-2.66-1.76-4.33v-.014l.002-.013c.134-1.823 1.32-3.248 2.61-3.966 1.123-.627 2.326-.875 3.458-.886z" fill="#00c3ff"/>
</svg>
