<svg width="32" height="32" viewBox="0 0 32 32" xmlns="http://www.w3.org/2000/svg">
    <path d="M9.453 1a8.2 8.11 0 0 0-8.2 8.11 8.2 8.11 0 0 0 1.222 4.25 13.98 14.502 7.774 0 0 5.25 14.123A13.98 14.502 7.774 0 0 18.79 30.09a8.2 8.11 0 0 0 3.757.91 8.2 8.11 0 0 0 8.2-8.11 8.2 8.11 0 0 0-.938-3.76A13.98 14.502 7.774 0 0 24.72 4.29a13.98 14.502 7.774 0 0-11.7-2.47A8.2 8.11 0 0 0 9.452 1zm6.4 4.37c.177-.002.35.002.522.01l.083.004.08.01c2.625.345 5.01 1.503 6.9 3.453a2.03 2.03 0 1 1-2.916 2.825c-1.28-1.32-2.627-1.98-4.41-2.232-.662-.02-1.516.145-2.04.438-.534.298-.717.495-.762 1.05-.053.933.015.975.417 1.3.406.33 1.5.796 3.226 1.234l.006.002h.003c1.523.4 3.153.71 4.675 1.574 1.515.858 2.837 2.758 2.72 4.937-.064 2.018-1.23 3.755-2.733 4.68-1.513.93-3.286 1.24-5.065 1.18h-.025c-3.564-.164-6.028-2.062-7.39-3.81a2.03 2.03 0 1 1 3.202-2.495c.844 1.085 2.092 2.14 4.36 2.25 1.164.036 2.206-.223 2.79-.583.586-.36.79-.618.806-1.36V19.8l.003-.038c.054-.902.01-.807-.67-1.193s-2.09-.76-3.7-1.18c-1.894-.48-3.46-.95-4.77-2.01-1.315-1.066-2.02-2.89-1.913-4.706v-.015l.002-.015C9.4 8.662 10.69 7.113 12.09 6.333c1.222-.682 2.53-.952 3.76-.963z" fill="#00c3ff"/>
</svg>
