<?xml version="1.0" encoding="UTF-8"?>
<svg enable-background="new 0 0 256 256" version="1.1" viewBox="0 0 32 32" xml:space="preserve" xmlns="http://www.w3.org/2000/svg"><g transform="matrix(.17647 0 0 .17647 -64.936 -70.354)" fill="#00c3ff"><g transform="translate(1.4306,8.5e-4)" fill="#00c3ff"><path transform="translate(372.21,404.34)" d="m47.9 0a46.467 45.962 0 0 0 -46.467 45.963 46.467 45.962 0 0 0 6.9258 24.074 79.22 82.176 7.7744 0 0 29.74 80.035 79.22 82.176 7.7744 0 0 62.713 14.773 46.467 45.962 0 0 0 21.287 5.1543 46.467 45.962 0 0 0 46.467 -45.963 46.467 45.962 0 0 0 -5.3145 -21.293 79.22 82.176 7.7744 0 0 -28.812 -84.094 79.22 82.176 7.7744 0 0 -66.303 -13.998 46.467 45.962 0 0 0 -20.236 -4.6523zm36.271 24.762c0.99516-9e-3 1.9805 0.01217 2.9551 0.06055l0.46484 0.02148 0.46094 0.06055c14.869 1.9492 28.381 8.5098 39.09 19.564a11.501 11.501 0 1 1 -16.52 16.004c-7.2484-7.4823-14.883-11.219-24.994-12.648-3.7473-0.11665-8.584 0.82536-11.555 2.4824-3.0256 1.6877-4.0633 2.8057-4.3164 5.9512-0.30167 5.2868 0.08135 5.5249 2.3613 7.375 2.3 1.8664 8.4984 4.5008 18.279 6.9844l0.03711 0.0098 0.03906 0.0098c8.6322 2.2549 17.864 4.02 26.492 8.9102 8.5832 4.8649 16.075 15.63 15.41 27.977-0.36026 11.439-6.9738 21.28-15.486 26.518-8.5707 5.2735-18.618 7.035-28.703 6.6934l-0.06836-2e-3 -0.06836-4e-3c-20.196-0.92504-34.162-11.682-41.881-21.594a11.501 11.501 0 1 1 18.146 -14.133c4.7876 6.1479 11.86 12.132 24.713 12.744 6.596 0.2126 12.499-1.2583 15.809-3.2949 3.3208-2.0433 4.4676-3.5014 4.5684-7.709l4e-3 -0.21094 0.0137-0.21094c0.31028-5.1159 0.0661-4.5731-3.7988-6.7637s-11.832-4.2809-20.963-6.666c-10.73-2.7264-19.615-5.3758-27.037-11.398-7.44-6.0374-11.432-16.39-10.832-26.662l0.0039-0.08789 0.0078-0.08984c0.83058-11.238 8.1441-20.014 16.064-24.432 6.9303-3.8657 14.337-5.3961 21.303-5.459z" fill="#00c3ff"/></g></g></svg>
