<svg xmlns="http://www.w3.org/2000/svg" viewBox="0 0 32 32" height="32" width="32">
    <path d="M9.977 2.2a7.544 7.46 0 0 0-7.544 7.46 7.544 7.46 0 0 0 1.124 3.91 12.862 13.342 7.774 0 0 4.83 12.994 12.862 13.342 7.774 0 0 10.18 2.4 7.544 7.46 0 0 0 3.456.836 7.544 7.46 0 0 0 7.544-7.46 7.544 7.46 0 0 0-.863-3.46 12.862 13.342 7.774 0 0-4.682-13.653 12.862 13.342 7.774 0 0-10.764-2.273A7.544 7.46 0 0 0 9.976 2.2zm5.888 4.02c.163 0 .322.002.48.01l.076.003.08.01c2.418.317 4.61 1.382 6.35 3.176a1.868 1.868 0 1 1-2.682 2.59c-1.177-1.21-2.417-1.82-4.057-2.05-.61-.02-1.395.133-1.877.403-.49.274-.66.455-.7.966-.05.86.013.897.383 1.196.372.302 1.38.73 2.967 1.134l.003.007h.003c1.4.368 2.9.653 4.3 1.448 1.394.79 2.61 2.538 2.502 4.543-.06 1.857-1.13 3.455-2.513 4.306-1.393.855-3.024 1.14-4.66 1.085h-.024c-3.276-.15-5.542-1.9-6.796-3.507a1.868 1.868 0 1 1 2.946-2.296c.777.998 1.925 1.968 4.01 2.07 1.07.033 2.03-.206 2.568-.537.54-.33.727-.567.74-1.25v-.034l.004-.035c.05-.83.01-.74-.614-1.095-.626-.353-1.924-.7-3.405-1.083-1.74-.442-3.183-.874-4.388-1.85-1.21-.98-1.86-2.66-1.76-4.33v-.013l.002-.014c.134-1.823 1.32-3.248 2.61-3.966 1.123-.627 2.326-.875 3.458-.886z" fill="#00c3ff"/>
</svg>
