<svg width="32" height="32" viewBox="0 0 32 32" xmlns="http://www.w3.org/2000/svg">
    <path d="M16 2.5A13.5 13.5 0 0 0 2.5 16 13.5 13.5 0 0 0 16 29.5 13.5 13.5 0 0 0 29.5 16 13.5 13.5 0 0 0 16 2.5zm.015 2.71c3.508 0 6.628 1.688 8.59 4.295a2.055 2.055 0 0 1 1.032.078 2.065 2.065 0 0 1 .728 3.48 10.718 10.718 0 0 1-2.04 9.707c.145.316.213.67.184 1.037a2.086 2.086 0 0 1-2.26 1.888 2.096 2.096 0 0 1-.987-.362 10.682 10.682 0 0 1-5.25 1.375c-4.325 0-8.056-2.566-9.76-6.253a2.095 2.095 0 0 1-.99-.284c-.967-.572-1.29-1.84-.714-2.83.185-.31.442-.55.736-.72a11.2 11.2 0 0 1-.022-.66c0-5.93 4.82-10.75 10.75-10.75zm0 1.38a9.357 9.357 0 0 0-9.358 9.777c.25.04.495.125.726.26.364.224.636.543.804.906l7.862-.726a1.99 1.99 0 0 1 .883-1.217c.353-.233.756-.34 1.154-.33.35.006.695.106 1.002.285l3.94-3.275a2.063 2.063 0 0 1 .367-2.078 9.344 9.344 0 0 0-7.385-3.602zm7.912 6.735l-3.94 3.272a2.06 2.06 0 0 1-.26 1.94l2.143 3.09a2.14 2.14 0 0 1 .75-.075c.27.027.52.104.745.22a9.33 9.33 0 0 0 2.02-5.813 9.38 9.38 0 0 0-.3-2.36 2.066 2.066 0 0 1-1.158-.278zm-7.754 4.858l-7.85.725a2.02 2.02 0 0 1-.747 1.13 9.357 9.357 0 0 0 8.44 5.29 9.343 9.343 0 0 0 4.434-1.113 2.08 2.08 0 0 1-.085-.776 2.02 2.02 0 0 1 .373-1.025l-2.144-3.093a2.07 2.07 0 0 1-2.42-1.143z" fill="#1ca5d5"/>
</svg>
