<svg width="32" height="32" viewBox="0 0 31.999999 31.999999" xmlns="http://www.w3.org/2000/svg">
    <g transform="translate(-1.294)">
        <circle cx="17.723" cy="16" r="11.91" fill="none" stroke="#1ca5d5" stroke-miterlimit="10" stroke-width="2.18"/>
        <path d="M27.27 13.856a3.26 3.26 0 0 0 4.144-2.035A3.26 3.26 0 0 0 29.38 7.68a3.26 3.26 0 0 0-4.144 2.035 3.26 3.26 0 0 0 2.035 4.143z" fill="#1ca5d5"/>
        <path fill="none" stroke="#1ca5d5" stroke-miterlimit="10" stroke-width="2.18" d="M28.325 10.795l-8.204 6.813"/>
        <path d="M22.056 24.785a3.314 3.314 0 0 0 2.98 3.56 3.293 3.293 0 0 0 3.56-2.978 3.314 3.314 0 0 0-2.98-3.562c-1.816-.145-3.414 1.163-3.56 2.98z" fill="#1ca5d5"/>
        <path fill="none" stroke="#1ca5d5" stroke-miterlimit="10" stroke-width="2.18" d="M25.3 25.075l-5.18-7.467"/>
        <path d="M17.39 19.384c.982 1.526 3.017 1.962 4.507.98 1.526-.98 1.962-3.015.98-4.505-.98-1.527-3.015-1.963-4.505-.982-1.526.945-1.962 2.98-.98 4.506zM7.92 16.09c-1.562-.907-3.56-.4-4.47 1.128-.908 1.562-.4 3.56 1.127 4.47 1.563.908 3.562.4 4.47-1.127.908-1.526.4-3.524-1.127-4.47z" fill="#1ca5d5"/>
        <path fill="none" stroke="#1ca5d5" stroke-miterlimit="10" stroke-width="2.18" d="M6.25 18.89l13.87-1.282"/>
    </g>
</svg>
