<svg xmlns="http://www.w3.org/2000/svg" width="32" height="32" viewBox="0 0 32 32">
    <circle cx="16.429" cy="16" r="11.91" stroke-miterlimit="10" fill="none" stroke="#1ca5d5" stroke-width="2.18"/>
    <path d="M25.976 13.856a3.26 3.26 0 0 0 4.144-2.035 3.26 3.26 0 0 0-2.034-4.14 3.26 3.26 0 0 0-4.144 2.04 3.26 3.26 0 0 0 2.035 4.142z" fill="#1ca5d5"/>
    <path stroke-miterlimit="10" d="M27.03 10.795l-8.203 6.813" fill="none" stroke="#1ca5d5" stroke-width="2.18"/>
    <path d="M20.762 24.785a3.314 3.314 0 0 0 2.98 3.56 3.293 3.293 0 0 0 3.56-2.978 3.314 3.314 0 0 0-2.98-3.562c-1.816-.145-3.414 1.163-3.56 2.98z" fill="#1ca5d5"/>
    <path stroke-miterlimit="10" d="M24.006 25.075l-5.18-7.467" fill="none" stroke="#1ca5d5" stroke-width="2.18"/>
    <path d="M16.096 19.384c.982 1.526 3.017 1.962 4.507.98 1.526-.98 1.962-3.015.98-4.505-.98-1.53-3.015-1.968-4.505-.987-1.526.945-1.962 2.98-.98 4.506zm-9.47-3.294c-1.562-.907-3.56-.4-4.47 1.128-.908 1.562-.4 3.56 1.127 4.47 1.563.908 3.562.4 4.47-1.127.908-1.52.4-3.52-1.127-4.47z" fill="#1ca5d5"/>
    <path stroke-miterlimit="10" d="M4.956 18.89l13.87-1.282" fill="none" stroke="#1ca5d5" stroke-width="2.18"/>
</svg>
