<svg width="32" height="32" viewBox="0 0 32 32" xmlns="http://www.w3.org/2000/svg">
    <path d="M16 4.5A11 8.5 0 0 0 5 13a11 8.5 0 0 0 3.045 5.865L5.96 22.87l6.15-1.93a11 8.5 0 0 0 3.89.56A11 8.5 0 0 0 27 13a11 8.5 0 0 0-11-8.5zM16 7a3 3 0 0 1 3 3v2.504h1V18h-8v-5.496h1V10a3 3 0 0 1 3-3zm0 1a2 2 0 0 0-2 2v2.504h4V10a2 2 0 0 0-2-2z" fill="#4b4b4b" fill-rule="evenodd"/>
    <circle cx="9.75" cy="26.25" r="1.75" fill="#4b4b4b" paint-order="markers fill stroke"/>
    <circle cx="16" cy="26.25" r="1.75" fill="#4b4b4b" paint-order="markers fill stroke"/>
    <circle cx="22.25" cy="26.25" r="1.75" fill="#4b4b4b" paint-order="markers fill stroke"/>
</svg>
