<?xml version="1.0" encoding="UTF-8"?>
<!-- Created with Inkscape (http://www.inkscape.org/) -->
<svg id="svg2" width="32" height="32" version="1.1" viewBox="0 0 32 32" xmlns="http://www.w3.org/2000/svg">
 <path id="rect4576" d="m0 3v26c0 2 1 3 3 3h26c2 0 3-1 3-3v-26c0-2-1-3-3-3h-26c-2 0-3 1-3 3zm16 1.5c6.0751 0 11 3.8056 11 8.5s-4.9249 8.5-11 8.5c-1.3301-0.0036-2.6483-0.19347-3.8906-0.56055l-6.1504 1.9316 2.0859-4.0059c-1.9527-1.58-3.0432-3.6804-3.0449-5.8652 0-4.6944 4.9249-8.5 11-8.5zm0 2.5c-1.6569 0-3 1.3431-3 3v2.5039h-1v5.4961h8v-5.4961h-1v-2.5039c0-1.6569-1.3431-3-3-3zm0 1c1.1046 0 2 0.89543 2 2v2.5039h-4v-2.5039c0-1.1046 0.89543-2 2-2zm-6.25 16.5c0.9665 0 1.75 0.7835 1.75 1.75s-0.7835 1.75-1.75 1.75-1.75-0.7835-1.75-1.75 0.7835-1.75 1.75-1.75zm6.25 0c0.9665 0 1.75 0.7835 1.75 1.75s-0.7835 1.75-1.75 1.75-1.75-0.7835-1.75-1.75 0.7835-1.75 1.75-1.75zm6.25 0c0.9665 0 1.75 0.7835 1.75 1.75s-0.7835 1.75-1.75 1.75-1.75-0.7835-1.75-1.75 0.7835-1.75 1.75-1.75z" fill="#4b4b4b" stroke-width="0" style="paint-order:markers fill stroke"/>
</svg>
