<svg width="32" height="32" viewBox="0 0 32 32" xmlns="http://www.w3.org/2000/svg">
    <path d="M0 3v26c0 2 1 3 3 3h26c2 0 3-1 3-3V3c0-2-1-3-3-3H3C1 0 0 1 0 3zm16 1.5c6.075 0 11 3.806 11 8.5s-4.925 8.5-11 8.5a13.904 13.904 0 0 1-3.89-.56l-6.15 1.93 2.085-4.005C6.092 17.285 5.002 15.185 5 13c0-4.694 4.925-8.5 11-8.5zM16 7a3 3 0 0 0-3 3v2.504h-1V18h8v-5.496h-1V10a3 3 0 0 0-3-3zm0 1a2 2 0 0 1 2 2v2.504h-4V10a2 2 0 0 1 2-2zM9.75 24.5a1.75 1.75 0 1 1 0 3.5 1.75 1.75 0 0 1 0-3.5zm6.25 0a1.75 1.75 0 1 1 0 3.5 1.75 1.75 0 0 1 0-3.5zm6.25 0a1.75 1.75 0 1 1 0 3.5 1.75 1.75 0 0 1 0-3.5z" fill="#4b4b4b" paint-order="markers fill stroke"/>
</svg>
