<?xml version="1.0" encoding="UTF-8"?>
<svg version="1.1" viewBox="0 0 32 32" xmlns="http://www.w3.org/2000/svg">
<!-- Stolen from Twelf Icon Template :D See https://gitlab.com/xphnx/twelf_cm12_theme for more details. Twelf Icon Theme, including this one, is licenced under GNU GPL.-->
 <title>Twelf Icon Template</title>
 <flowRoot transform="matrix(2.075 0 0 2.075 28.03 -11.92)" fill="#ffffff" font-family="Roboto" font-size="3.75px" letter-spacing="0px" stroke-width="1px" word-spacing="0px" style="line-height:125%" xml:space="preserve"><flowRegion fill="#ffffff"><rect x="10.66" y="11.24" width="4.49" height="5.051" fill="#fff"/></flowRegion><flowPara>your</flowPara></flowRoot>
 <path d="m3 0c-1.662 0-3 1.338-3 3v26c0 1.662 1.338 3 3 3h26c1.662 0 3-1.338 3-3v-26c0-1.662-1.338-3-3-3h-26zm15.58 8.133c1.955-0.03822 3.267 0.738 4.398 2.598 1.122 1.725 4.002 6.761 4.506 8.234 0.508 1.323-0.04889 2.799-1.611 3.23-1.591 0.441-4.215 0.9759-6.092 1.342-1.494 0.2912-2.618 0.5689-4.623 0.01758-3.931-1.081-8.782-2.768-9.836-3.133-0.7679-0.2654-0.5307-1.603 0.1914-1.438 0.5654 0.1294 6.307 1.38 7.18 1.533 1.039 0.1827 1.726-0.2016 1.949-0.5898 0.2982-0.5194 0.2368-1.323-0.05078-2.07-0.507-1.318-1.888-4.759-2.463-5.891-0.5751-1.131-1.365-1.531-2.205-1.609-1.353-0.1269-4.378-0.2426-5.195-0.293-0.4576-0.02818-0.5997-0.9345 0.07617-1.049 3.088-0.5224 12.18-0.9319 13.78-0.8828zm0.9297 1.6c-0.1622-0.006927-0.3343-0.00266-0.5176 0.01172-0.9718 0.08421-3.657 0.3097-4.229 0.377-0.7189 0.0719-1.25 0.4032-0.8184 1.539 0.2353 0.5394 1.666 4.215 2.012 4.846 0.417 0.949 1.151 1.193 2.445 1.006 1.187-0.1303 4.132-0.5622 4.975-0.7754 0.8148-0.2061 1.119-0.8249 0.7617-1.467-0.6337-1.138-1.386-2.425-2.205-3.811-0.6375-1.107-1.288-1.678-2.424-1.727zm5.838 8.736c-0.6079 0-1.102 0.4917-1.102 1.1 0 0.6079 0.4938 1.102 1.102 1.102s1.1-0.4937 1.1-1.102c0-0.6079-0.4917-1.1-1.1-1.1zm-6.467 1.129c-0.6753 0-1.223 0.5474-1.223 1.223 0 0.6753 0.5474 1.223 1.223 1.223 0.6753 0 1.223-0.5474 1.223-1.223 0-0.6753-0.5473-1.223-1.223-1.223z" fill="#f24236" stroke-width="0" style="paint-order:markers fill stroke"/>
 <g transform="translate(0 5.05)" display="none" fill="none">
  <rect transform="rotate(90)" x="7.334" y="-19.62" width="12.28" height="12.28" display="inline" stroke="#000" stroke-width=".06598"/>
  <rect x="6.773" y="8.112" width="13.4" height="10.73" stroke="#5261ff" stroke-linecap="round" stroke-linejoin="round" stroke-width=".06524"/>
  <rect transform="rotate(90)" x="6.773" y="-18.84" width="13.4" height="10.73" display="inline" stroke="#0f0" stroke-linecap="round" stroke-linejoin="round" stroke-width=".06524"/>
 </g>
</svg>
