<?xml version="1.0" encoding="UTF-8" standalone="no"?>
<!-- Created with Inkscape (http://www.inkscape.org/) -->

<svg
   xmlns:dc="http://purl.org/dc/elements/1.1/"
   xmlns:cc="http://creativecommons.org/ns#"
   xmlns:rdf="http://www.w3.org/1999/02/22-rdf-syntax-ns#"
   xmlns:svg="http://www.w3.org/2000/svg"
   xmlns="http://www.w3.org/2000/svg"
   xmlns:sodipodi="http://sodipodi.sourceforge.net/DTD/sodipodi-0.dtd"
   xmlns:inkscape="http://www.inkscape.org/namespaces/inkscape"
   id="svg2"
   width="32"
   height="32"
   version="1.1"
   sodipodi:docname="transportr.round.svg"
   inkscape:version="0.92+devel unknown">
  <metadata
     id="metadata78">
    <rdf:RDF>
      <cc:Work
         rdf:about="">
        <dc:format>image/svg+xml</dc:format>
        <dc:type
           rdf:resource="http://purl.org/dc/dcmitype/StillImage" />
        <dc:title>Twelf Icon Template</dc:title>
      </cc:Work>
    </rdf:RDF>
  </metadata>
  <sodipodi:namedview
     pagecolor="#404040"
     bordercolor="#666666"
     inkscape:document-rotation="0"
     borderopacity="1"
     objecttolerance="10"
     gridtolerance="10"
     guidetolerance="10"
     inkscape:pageopacity="0"
     inkscape:pageshadow="2"
     inkscape:window-width="1366"
     inkscape:window-height="704"
     id="namedview76"
     showgrid="true"
     inkscape:snap-bbox="true"
     inkscape:snap-global="true"
     inkscape:zoom="8"
     inkscape:cx="11.609981"
     inkscape:cy="13.37033"
     inkscape:window-x="0"
     inkscape:window-y="27"
     inkscape:window-maximized="1"
     inkscape:current-layer="svg2"
     inkscape:bbox-paths="true"
     inkscape:bbox-nodes="true"
     inkscape:snap-bbox-edge-midpoints="true"
     inkscape:snap-bbox-midpoints="true"
     inkscape:snap-intersection-paths="true"
     inkscape:snap-smooth-nodes="true"
     inkscape:snap-midpoints="true">
    <inkscape:grid
       type="xygrid"
       id="grid4344" />
  </sodipodi:namedview>
  <title
     id="title3766">Twelf Icon Template</title>
  <defs
     id="defs4">
    <filter
       id="filter6206-7"
       color-interpolation-filters="sRGB">
      <feGaussianBlur
         id="feGaussianBlur6208-9"
         stdDeviation="0.658125" />
    </filter>
  </defs>
  <flowRoot
     xml:space="preserve"
     style="line-height:125%;fill:#ffffff;fill-opacity:1"
     word-spacing="0px"
     stroke-width="1px"
     letter-spacing="0px"
     font-size="3.75px"
     font-family="Roboto"
     fill="#000000"
     id="flowRoot4698"
     transform="matrix(2.0747244,0,0,2.0747244,28.030875,-11.922054)"><flowRegion
       style="fill:#ffffff;fill-opacity:1"
       id="flowRegion4700"><rect
         style="fill:#ffffff;fill-opacity:1"
         height="5.0512"
         width="4.49"
         y="11.235"
         x="10.664"
         id="rect4702" /></flowRegion><flowPara
       id="flowPara4704">your</flowPara></flowRoot>  <path
     style="fill:#f24236;fill-opacity:1;stroke:#f24236;stroke-width:0;stroke-linecap:round;stroke-linejoin:round;stroke-opacity:1;paint-order:markers fill stroke"
     d="M 3 0 C 1.338 0 0 1.338 0 3 L 0 29 C 0 30.662 1.338 32 3 32 L 29 32 C 30.662 32 32 30.662 32 29 L 32 3 C 32 1.338 30.662 0 29 0 L 3 0 z M 18.576172 8.1328125 C 20.531598 8.0945918 21.843534 8.8708527 22.974609 10.730469 C 24.096207 12.455886 26.976351 17.490982 27.480469 18.964844 C 27.988478 20.287657 27.431579 21.76395 25.869141 22.195312 C 24.277754 22.636272 21.654443 23.171202 19.777344 23.537109 C 18.283137 23.8283 17.159255 24.106026 15.154297 23.554688 C 11.223392 22.473539 6.3727704 20.786291 5.3183594 20.421875 C 4.5504833 20.156507 4.7876679 18.819134 5.5097656 18.984375 C 6.0751915 19.113776 11.817129 20.364198 12.689453 20.517578 C 13.728439 20.700301 14.41574 20.316009 14.638672 19.927734 C 14.93687 19.408361 14.875455 18.605108 14.587891 17.857422 C 14.08091 16.539237 12.700145 13.097925 12.125 11.966797 C 11.549925 10.835653 10.760144 10.436212 9.9199219 10.357422 C 8.566601 10.230488 5.5417782 10.114793 4.7246094 10.064453 C 4.2669699 10.036276 4.1249262 9.1299547 4.8007812 9.015625 C 7.8891166 8.4932184 16.978941 8.0836928 18.576172 8.1328125 z M 19.505859 9.7324219 C 19.343634 9.7254952 19.171608 9.7297622 18.988281 9.7441406 C 18.016482 9.8283461 15.331397 10.053854 14.759766 10.121094 C 14.040822 10.192994 13.510043 10.524247 13.941406 11.660156 C 14.176728 12.199531 15.607185 15.875388 15.953125 16.505859 C 16.370125 17.454846 17.104367 17.69864 18.398438 17.511719 C 19.585335 17.38139 22.530118 16.949541 23.373047 16.736328 C 24.187853 16.530262 24.492395 15.911398 24.134766 15.269531 C 23.501023 14.131479 22.74869 12.844972 21.929688 11.458984 C 21.292169 10.351837 20.641435 9.7809086 19.505859 9.7324219 z M 25.34375 18.46875 C 24.735818 18.46875 24.242188 18.960496 24.242188 19.568359 C 24.242188 20.176223 24.735938 20.669922 25.34375 20.669922 C 25.951562 20.669922 26.443359 20.176223 26.443359 19.568359 C 26.443359 18.960496 25.951682 18.46875 25.34375 18.46875 z M 18.876953 19.597656 C 18.201681 19.597656 17.654297 20.145041 17.654297 20.820312 C 17.654297 21.495584 18.201681 22.042969 18.876953 22.042969 C 19.552277 22.042969 20.099609 21.495584 20.099609 20.820312 C 20.099609 20.145041 19.552294 19.597656 18.876953 19.597656 z "
     id="rect4442" />
  <g
     id="layer3"
     display="none"
     fill="none"
     transform="translate(0,5.0499992)">
    <rect
       id="rect4387-7-8"
       transform="rotate(90)"
       x="7.3341999"
       y="-19.615999"
       width="12.282"
       height="12.282"
       display="inline"
       stroke="#000"
       stroke-width=".065984" />
    <rect
       id="rect3862"
       x="6.7726002"
       y="8.1120005"
       width="13.405"
       height="10.726"
       stroke="#5261ff"
       stroke-linecap="round"
       stroke-linejoin="round"
       stroke-width=".06524" />
    <rect
       id="rect3862-6"
       transform="rotate(90)"
       x="6.7726002"
       y="-18.837999"
       width="13.405"
       height="10.726"
       display="inline"
       stroke="#0f0"
       stroke-linecap="round"
       stroke-linejoin="round"
       stroke-width=".06524" />
  </g>
</svg>
