<svg viewBox="0 0 32 32" xmlns="http://www.w3.org/2000/svg">
    <path d="M3 0C1.338 0 0 1.338 0 3v26c0 1.662 1.338 3 3 3h26c1.662 0 3-1.338 3-3V3c0-1.662-1.338-3-3-3H3zm15.58 8.133c1.955-.038 3.267.738 4.398 2.598 1.122 1.73 4.002 6.767 4.506 8.24.508 1.323-.05 2.8-1.61 3.23-1.592.44-4.216.976-6.093 1.34-1.49.29-2.612.57-4.62.02-3.93-1.08-8.78-2.77-9.833-3.134-.768-.266-.53-1.603.19-1.438.567.13 6.308 1.38 7.18 1.533 1.04.18 1.727-.203 1.95-.59.3-.52.237-1.324-.05-2.07-.507-1.32-1.888-4.76-2.463-5.89-.575-1.133-1.365-1.533-2.205-1.61-1.354-.13-4.38-.244-5.196-.294-.46-.028-.6-.935.074-1.05 3.088-.522 12.18-.93 13.78-.882zm.93 1.6a4.29 4.29 0 0 0-.518.012c-.972.084-3.657.31-4.23.377-.718.072-1.25.403-.817 1.54.235.538 1.666 4.214 2.012 4.845.417.95 1.15 1.193 2.445 1.006 1.187-.13 4.132-.562 4.975-.776.815-.206 1.12-.825.76-1.467a178.076 178.076 0 0 0-2.204-3.81c-.637-1.108-1.288-1.68-2.424-1.728zm5.838 8.736a1.1 1.1 0 1 0-.002 2.2 1.1 1.1 0 0 0 .002-2.2zm-6.467 1.123a1.223 1.223 0 1 0 0 2.446 1.223 1.223 0 0 0 0-2.446z" fill="#f24236" paint-order="markers fill stroke"/>
</svg>
