<svg xmlns="http://www.w3.org/2000/svg" width="32" height="32" viewBox="0 0 32 32">
    <path d="M16 2.5A13.5 13.5 0 0 0 2.5 16 13.5 13.5 0 0 0 16 29.5 13.5 13.5 0 0 0 29.5 16 13.5 13.5 0 0 0 16 2.5zm-3.354 6.205c.16-.006.807.012.872.7.093.998.44 2.49.44 2.49s.245.735-.23 1.193c-.213.205-.812.815-1.42 1.437a11.577 11.577 0 0 0 2.16 3.014 11.58 11.58 0 0 0 3.007 2.154c.625-.612 1.24-1.216 1.445-1.43.458-.474 1.19-.228 1.19-.228s1.492.346 2.49.44c.787.074.7.908.7.908v3.353c-.076.52-.55.535-.55.535-2.933.22-6.072-1.367-6.836-1.783h-.002a14 14 0 0 1-.035-.02l-.14-.08a14 14 0 0 1-5.13-5.125l-.003.004-.053-.093a14 14 0 0 1-.012-.022h.002c-.312-.557-2.052-3.826-1.82-6.898 0 0 .016-.474.536-.55h3.353l.035-.003z" fill="#4bc75a"/>
    <path d="M3 29l13-3.24L6.24 16z" fill="#4bc75a"/>
</svg>
