<svg xmlns="http://www.w3.org/2000/svg" width="32" height="32" viewBox="0 0 32 32">
    <path d="M16 2.5A13.5 13.5 0 0 0 2.5 16 13.5 13.5 0 0 0 16 29.5 13.5 13.5 0 0 0 29.5 16 13.5 13.5 0 0 0 16 2.5zm-3.354 6.205c.16-.006.807.012.872.7.093.998.44 2.49.44 2.49s.245.735-.23 1.193c-.213.205-.812.815-1.42 1.437a11.577 11.577 0 0 0 2.16 3.014 11.58 11.58 0 0 0 3.007 2.15 89.66 89.66 0 0 0 1.445-1.43c.458-.476 1.19-.23 1.19-.23s1.492.346 2.49.44c.787.074.7.91.7.91v3.352c-.076.52-.55.535-.55.535-2.933.22-6.072-1.368-6.836-1.784h-.002a14 14 0 0 1-.035-.02l-.14-.08a14 14 0 0 1-5.13-5.125l-.003.004-.053-.093a14 14 0 0 1-.01-.02c-.31-.558-2.05-3.827-1.82-6.9 0 0 .02-.473.54-.55h3.355l.036-.002z" fill="#4bc75a"/>
    <path d="M3 29l13-3.24L6.24 16z" fill="#4bc75a"/>
</svg>
