<svg viewBox="0 0 32 32" xmlns="http://www.w3.org/2000/svg">
    <path d="M3 0C1.338 0 0 1.338 0 3v26c0 1.662 1.338 3 3 3h26c1.662 0 3-1.338 3-3V3c0-1.662-1.338-3-3-3H3zm20.06 8.365h5.04l.052.05v.48c0 .132-.07.2-.203.2-.662.03-1.15.187-1.468.467-.318.282-.565.67-.743 1.176 0 0-4.105 10.28-5.51 13.7-.536 1.12-1.064 1.018-1.528-.03-.633-1.43-1.78-4.19-2.678-6.355-.957 2.167-2.192 4.94-2.895 6.365-.627 1.193-1.143 1.037-1.554.03-1.426-3.683-4.354-10.15-5.732-13.78-.254-.666-.447-1.095-.628-1.265-.183-.167-.56-.268-1.137-.302-.213-.025-.318-.08-.318-.17v-.505l.05-.05c.94-.007 5.48 0 5.48 0l.053.05v.48c0 .133-.077.196-.23.196l-.57.028c-.492.022-.737.183-.737.48 0 .14.05.364.166.666 1.098 2.93 4.89 11.68 4.89 11.68l.137.04 2.446-5.34-.49-1.184-1.68-3.615s-.325-.723-.435-.963c-.738-1.6-.722-1.686-1.468-1.795-.21-.03-.317-.06-.317-.172v-.508l.063-.05h4.348l.115.04v.506c0 .115-.074.174-.228.174l-.316.05c-.797.067-.666.424-.137 1.58l1.61 3.61 1.783-3.895c.3-.713.24-.892.115-1.057-.07-.092-.308-.242-.824-.264l-.203-.022a.23.23 0 0 1-.145-.057.17.17 0 0 1-.07-.142v-.48l.064-.05c1.26-.01 4.097 0 4.097 0l.05.052v.48c0 .133-.068.198-.202.198-.66.033-.796.107-1.037.488a21.6 21.6 0 0 0-.663 1.156l-2.318 4.744-.066.148 2.835 6.348.172.05 4.46-11.59c.156-.466.132-.796-.067-.99-.2-.19-.34-.304-.858-.327l-.418-.024a.232.232 0 0 1-.148-.057.17.17 0 0 1-.07-.14V8.41l.064-.05z" fill="#fff" paint-order="markers fill stroke"/>
</svg>
