<svg viewBox="0 0 32 32" xmlns="http://www.w3.org/2000/svg">
    <path d="M3 0C1.338 0 0 1.338 0 3v26c0 1.662 1.338 3 3 3h26c1.662 0 3-1.338 3-3V3c0-1.662-1.338-3-3-3H3zm20.06 8.365h5.04l.052.05v.48c0 .132-.07.2-.203.2-.667.03-1.15.187-1.47.467-.32.282-.568.67-.746 1.176 0 0-4.105 10.28-5.51 13.7-.536 1.12-1.064 1.018-1.528-.03-.634-1.43-1.78-4.19-2.68-6.355-.956 2.167-2.19 4.94-2.894 6.365-.627 1.193-1.143 1.037-1.554.03-1.427-3.683-4.355-10.15-5.733-13.78-.253-.666-.446-1.095-.627-1.265-.182-.167-.56-.268-1.136-.302-.213-.02-.318-.08-.318-.17v-.5l.05-.05c.94-.006 5.48 0 5.48 0l.053.05v.48c0 .134-.077.197-.23.197l-.57.028c-.49.023-.737.184-.737.48 0 .14.05.365.166.667 1.1 2.93 4.89 11.68 4.89 11.68l.137.04 2.446-5.34-.49-1.184-1.68-3.615s-.326-.722-.436-.962c-.74-1.6-.724-1.685-1.47-1.794-.21-.03-.317-.06-.317-.173v-.51l.064-.05h4.35l.114.04v.505c0 .115-.076.174-.23.174l-.316.05c-.796.063-.665.42-.136 1.58l1.61 3.61 1.783-3.9c.3-.712.24-.89.117-1.056-.07-.092-.308-.242-.824-.264l-.203-.02a.23.23 0 0 1-.146-.057.17.17 0 0 1-.07-.142v-.48l.064-.05c1.26-.01 4.097 0 4.097 0l.05.054v.48c0 .133-.067.198-.2.198-.66.034-.797.108-1.038.49a21.6 21.6 0 0 0-.663 1.155l-2.32 4.744-.065.148 2.832 6.348.172.05 4.46-11.59c.155-.466.13-.796-.068-.99-.2-.19-.34-.304-.86-.327l-.417-.027a.232.232 0 0 1-.147-.057.17.17 0 0 1-.07-.14v-.49l.063-.05z" fill="#fff" paint-order="markers fill stroke"/>
</svg>
