<?xml version="1.0" encoding="UTF-8"?>
<svg version="1.1" viewBox="0 0 32 32" xmlns="http://www.w3.org/2000/svg">
 <path d="m3 0c-1.662 0-3 1.338-3 3v26c0 1.662 1.338 3 3 3h26c1.662 0 3-1.338 3-3v-26c0-1.662-1.338-3-3-3h-26zm20.06 8.365h5.041l0.05078 0.04883v0.4824c0 0.1309-0.06858 0.1973-0.2031 0.1973-0.6603 0.03199-1.15 0.1886-1.467 0.4688-0.3178 0.2821-0.5643 0.6698-0.7422 1.176 0 0-4.104 10.28-5.508 13.7-0.5373 1.12-1.065 1.018-1.529-0.03125-0.6335-1.429-1.781-4.189-2.678-6.354-0.957 2.167-2.192 4.939-2.895 6.365-0.6267 1.193-1.142 1.037-1.553 0.03125-1.426-3.684-4.354-10.15-5.732-13.78-0.2549-0.6678-0.4475-1.096-0.6289-1.266-0.1823-0.1677-0.5605-0.2688-1.137-0.3027-0.2116-0.0252-0.3164-0.08076-0.3164-0.1719v-0.5039l0.05078-0.05078c0.9383-0.00582 5.479 0 5.479 0l0.05273 0.05078v0.4805c0 0.1328-0.07716 0.1953-0.2285 0.1953l-0.5723 0.02734c-0.4904 0.02229-0.7363 0.1829-0.7363 0.4805 0 0.1386 0.05183 0.3636 0.166 0.666 1.098 2.929 4.889 11.68 4.889 11.68l0.1387 0.03906 2.445-5.34c-0.1269-0.3077-0.4902-1.184-0.4902-1.184l-1.68-3.615s-0.3249-0.7225-0.4355-0.9629c-0.7382-1.601-0.7226-1.686-1.469-1.795-0.2089-0.03005-0.3164-0.05847-0.3164-0.1719v-0.5078l0.0625-0.04883c1.348-0.00194 4.348-0.001953 4.348-0.001953l0.1152 0.04102v0.5059c0 0.1153-0.07539 0.1738-0.2285 0.1738l-0.3164 0.04883c-0.7966 0.06785-0.666 0.4257-0.1367 1.58l1.611 3.611 1.783-3.895c0.2983-0.7124 0.2383-0.8919 0.1152-1.057-0.07081-0.09208-0.3082-0.2414-0.8242-0.2637l-0.2031-0.02344c-0.05134 0-0.09957-0.01884-0.1465-0.05664-0.04603-0.03586-0.06836-0.08345-0.06836-0.1426v-0.4805l0.0625-0.04883c1.262-0.00969 4.098 0 4.098 0l0.05078 0.05078v0.4805c0 0.1328-0.06858 0.1973-0.2031 0.1973-0.6603 0.03392-0.7955 0.1074-1.037 0.4883-0.1319 0.2074-0.3921 0.6542-0.6621 1.156l-2.318 4.744s-0.06399 0.1429-0.06641 0.1484l2.834 6.348 0.1719 0.05078 4.461-11.59c0.1549-0.4672 0.1308-0.7974-0.06836-0.9922-0.2-0.189-0.3405-0.3029-0.8574-0.3262l-0.418-0.02344c-0.05134 0-0.1015-0.01982-0.1484-0.05859-0.04603-0.03586-0.06836-0.08344-0.06836-0.1406v-0.4824l0.0625-0.04883z" fill="#fff" stroke-width="0" style="paint-order:markers fill stroke"/>
</svg>
