<svg xmlns="http://www.w3.org/2000/svg" viewBox="0 0 32 32" height="32" width="32">
    <path d="M16 1.6c-5.41 0-9.9 4.49-9.9 9.9 0 5.937 5.4 8.18 5.4 11.26v.89h9v-.89c0-3.067 5.4-5.323 5.4-11.26 0-5.41-4.49-9.9-9.9-9.9zm-2.143 1.726l1.39 1.53-3.063 2.316-1.213 3.098h.01l4.243 1.232-4.1 6.435a8.07 8.07 0 0 1-1.5-1.388L9.02 11.5l1.955-1.23-2.74-1.516c.88-2.605 2.99-4.686 5.628-5.432zm5.743.754a8.177 8.177 0 0 1 2.586 2.117c-1.337.1-2.534.1-3.87.2.44-.812.858-1.51 1.284-2.313V4.08zm3.002 2.666A8.294 8.294 0 0 1 24.1 11.5c0 2.477-.975 4.41-2.715 5.873l-.328-4.37-2.735-.796-.804-3.078 5.084-2.39zM11.5 24.776h9v2.25h-9zm0 3.374h9v2.25h-9z" fill="#c30c04"/>
</svg>
