<svg width="32" height="32" viewBox="0 0 32 32.000001" xmlns="http://www.w3.org/2000/svg">
    <g fill="#c30c04" stroke-width="0">
        <path d="M16 0C9.988 0 5 4.988 5 11c0 6.597 6 9.09 6 12.51v.99h10v-.99c0-3.407 6-5.913 6-12.51 0-6.012-4.988-11-11-11zm-2.38 1.917l1.543 1.7L11.76 6.19l-1.348 3.44-3.05-1.68c.977-2.894 3.327-5.204 6.257-6.033zm6.38.84a9.085 9.085 0 0 1 2.873 2.35c-1.485.11-2.815.112-4.3.223.49-.905.954-1.68 1.427-2.572zm3.336 2.96A9.216 9.216 0 0 1 25 11c0 2.752-1.084 4.9-3.018 6.527l-.364-4.855-3.038-.886-.894-3.42zM10.412 9.63L15.13 11l-4.552 7.15a8.965 8.965 0 0 1-1.665-1.544L8.24 11zM11 26h10v2.5H11zM11 29.5h10V32H11z" opacity=".96" paint-order="markers fill stroke"/>
    </g>
</svg>
