<?xml version="1.0" encoding="UTF-8" standalone="no"?>
<svg
   xmlns:dc="http://purl.org/dc/elements/1.1/"
   xmlns:cc="http://creativecommons.org/ns#"
   xmlns:rdf="http://www.w3.org/1999/02/22-rdf-syntax-ns#"
   xmlns:svg="http://www.w3.org/2000/svg"
   xmlns="http://www.w3.org/2000/svg"
   viewBox="0 0 48 48"
   version="1.1"
   id="svg4193">
  <metadata
     id="metadata8">
    <rdf:RDF>
      <cc:Work
         rdf:about="">
        <dc:format>image/svg+xml</dc:format>
        <dc:type
           rdf:resource="http://purl.org/dc/dcmitype/StillImage" />
        <dc:title></dc:title>
      </cc:Work>
    </rdf:RDF>
  </metadata>
  <defs
     id="defs6" />
  <path
     d="m7 5c-1.108 0-2 0.892-2 2v34c0 1.11 0.892 2 2 2h34c1.11 0 2-0.89 2-2v-34c0-1.108-0.89-2-2-2h-34zm9 2h7v7h-7v-7zm-9 9h7v7h-7v-7zm9 0h7v7h-7v-7zm9 0h7v7h-7v-7zm9 0h7v7h-7v-7zm-9 9h7v7h-7v-7zm0 9h7v7h-7v-7z"
     fill="#fff"
     id="rect4195" />
</svg>
