<?xml version="1.0" encoding="UTF-8" standalone="no"?>
<svg xmlns="http://www.w3.org/2000/svg" version="1.1" viewBox="0 0 48 48"><path d="m7 5c-1.108 0-2 0.892-2 2v34c0 1.11 0.892 2 2 2h34c1.11 0 2-0.89 2-2v-34c0-1.108-0.89-2-2-2h-34zm15.24 3.498c1.22 0.029 2.64 0.557 3.61 1.862 0.58 0.78 0.72 1.66 0.8 2.46 0.09 0.81 0.08 1.58 0.09 2.03 0.02 1.06-0.13 1.47-0.29 2.19-0.18 0.86-0.45 1.77-0.85 2.93-0.14 0.41-0.31 0.89-0.48 1.37 0.15 0.2 0.28 0.4 0.44 0.6 1.19 1.48 2.49 2.91 3.75 4.18 1.94-0.38 3.49-0.63 4.83-0.46 0.93 0.13 1.61 0.22 2.24 0.39s1.2 0.46 1.7 0.87c0.97 0.79 1.52 1.95 1.4 3.04-0.04 0.42-0.14 0.93-0.45 1.37s-0.68 0.71-1.17 1.06l-0.38 0.18c-1.08 0.3-1.88 0.27-2.98 0.17l-0.27-0.06c-0.91-0.31-1.39-0.6-2.5-1.17l-0.2-0.13c-0.9-0.73-1.92-1.65-2.96-2.65-1.2 0.23-2.32 0.49-3.96 0.85-1.65 0.36-2.86 0.57-3.94 0.79-0.47 0.9-0.98 1.55-1.61 2.51-0.45 0.69-1.08 1.49-1.65 2.2-0.56 0.71-1.1 1.43-1.15 1.51h-0.01c-0.22 0.25-0.68 0.79-1.18 1.33-0.27 0.28-0.54 0.56-0.82 0.81-0.29 0.24-0.52 0.47-1.02 0.64l-0.07 0.02c-1.77 0.46-3.287-0.55-4.062-1.64l-0.006-0.01c-0.269-0.38-0.5-0.86-0.567-1.38-0.066-0.51 0.005-1 0.123-1.53 0.332-1.49 1.482-2.4 2.702-3.3 1.15-0.86 1.36-1.04 3.32-1.96 1.19-0.55 2.47-1 4.34-1.45 0.02-0.05 0.03-0.07 0.06-0.12 0.83-1.48 2.08-3.5 2.74-4.89 0.23-0.49 0.41-0.94 0.59-1.4-1.94-2.67-3.49-5.45-3.85-8.09l-0.01-0.02c-0.12-1.1-0.09-1.87 0.14-2.53s0.63-1.06 0.85-1.336c0.65-0.782 1.7-1.256 2.71-1.232v-0.004zm-0.49 2.362c-0.02 0-0.04 0-0.06 0.02-0.07 0.03-0.12 0.13-0.32 0.37-0.31 0.37-0.38 0.44-0.44 0.6-0.05 0.15-0.11 0.55-0.01 1.45 0.21 1.57 1.18 3.58 2.5 5.64 0.32-0.96 0.56-1.75 0.7-2.4 0.18-0.86 0.25-0.78 0.23-1.65-0.01-0.51 0-1.19-0.07-1.81-0.07-0.63-0.25-1.17-0.35-1.3-0.4-0.54-1.31-0.89-1.75-0.9-0.24 0-0.36-0.02-0.43-0.02zm2.25 13.14s-1.81 2.59-2.38 3.57c1.66-0.27 2.62-0.5 4.76-1.19l-2.38-2.38zm9.38 4.01c-0.5 0-1.13 0.09-1.87 0.21 0.5 0.45 0.99 0.87 1.44 1.23 0.95 0.5 1.32 0.71 1.93 0.92 0.81 0.08 1.18 0.08 1.77-0.06 0.2-0.17 0.43-0.35 0.43-0.35 0.01 0 0 0.06 0.03-0.25 0.04-0.33 0.02-0.48-0.54-0.94-0.27-0.22-0.44-0.31-0.83-0.42-0.92-0.22-1.55-0.26-2.36-0.34zm-16.53 3.13s-1.71 0.83-2.38 1.2-0.54 0.24-1.7 1.1c-1.15 0.85-1.65 1.39-1.79 1.91-0.15 0.51 0.01 0.92 0.33 1.34 0.33 0.41 0.75 0.46 1.12 0.38 0.36-0.09 0.55-0.41 0.9-0.78 0.35-0.38 0.91-1.05 1.21-1.37h0.01c0.29-0.41 0.58-0.8 0.99-1.32 0.65-0.82 1.31-2.46 1.31-2.46z" fill="#fff"/></svg>
