<svg xmlns="http://www.w3.org/2000/svg" width="48" height="48" viewBox="0 0 48 48">
    <path d="M4.32 8.01v31.98c0 2.46 1.23 3.69 3.69 3.69h31.98c2.46 0 3.69-1.23 3.69-3.69V8.01c0-2.46-1.23-3.69-3.69-3.69H8.01c-2.46 0-3.69 1.23-3.69 3.69zm17.86-.012c1.472.03 2.85.738 3.73 1.92.6.81.74 1.71.83 2.544.2 1.457.043 3.134-.205 4.356-.185.885-.468 1.82-.878 3.024-.162.473-.33.944-.504 1.413 1.428 1.7 3.027 3.537 4.494 5.083 3.297-.237 6.5-.64 8.676.744 1.005.818 1.785 1.94 1.66 3.08-.147 1.19-.776 2.078-1.683 2.503-1.46.547-2.56.49-3.746.152-2.394-.847-4.244-2.398-5.84-3.947a803.16 803.16 0 0 1-4.14.764c-1.87.306-2.845.47-3.98.677-1.16 1.897-2.11 3.607-3.25 5.316-1.437 2.073-3.21 3.555-4.578 4.05-1.727.514-3.363-.37-4.162-1.49l-.003-.014c-.71-.984-.824-1.708-.455-3 1.226-2.914 4.356-4.554 6.217-5.427 1.218-.57 2.544-1.035 4.47-1.5a150.704 150.704 0 0 0 3.506-6.612c-2.01-2.76-3.605-5.62-3.98-8.346-.13-1-.096-1.865.134-2.64.618-1.636 2.08-2.576 3.687-2.65zm-1.37 4.962c.227 1.62 1.192 3.82 2.688 5.88.666-2.155.96-4.226.793-6.12-.2-1.424-1.09-2.446-2.165-2.268-1.352.25-1.48 1.346-1.316 2.508zm3.14 10.576s-1.707 3.09-2.302 4.104c2.073-.402 3.09-.545 5.187-.875zm7.477 4.912c1.212 1.15 2.54 1.91 3.81 2.272.97.23 2.174-.082 2.314-.808.116-.77-.576-1.198-1.415-1.41-1.316-.307-3.364-.237-4.708-.054zm-13.78 2.55s-2.793 1.23-3.487 1.612c-.695.38-.96.57-1.752 1.137-1.543 1.1-2.49 2.474-1.508 3.353 1.36 1.138 3.448-1.418 4.58-2.94.676-.953 1.273-1.954 2.168-3.16z" fill="#fff"/>
</svg>
