<svg xmlns="http://www.w3.org/2000/svg" width="48" height="48" viewBox="0 0 48 48">
    <path d="M24 3.11a20.89 20.89 0 0 0 0 41.78 20.89 20.89 0 0 0 0-41.78zm1.155 3.326a16.977 16.977 0 0 1 16.98 16.994 16.977 16.977 0 0 1-16.98 16.976A16.977 16.977 0 0 1 8.18 23.426 16.977 16.977 0 0 1 25.156 6.45z" fill="#fff"/>
    <path d="M26.24 8.692a13.22 13.22 0 0 0-13.2 13.22 13.22 13.22 0 0 0 13.2 13.216 13.22 13.22 0 0 0 13.236-13.22A13.22 13.22 0 0 0 26.238 8.69zm-1.05 4.26h2.144v9.276H25.19z" fill="#fff"/>
</svg>
