<svg xmlns="http://www.w3.org/2000/svg" width="48" height="48" viewBox="0 0 48 48">
    <path d="M4.604 6.983a2.437 2.437 0 0 0-2.442 2.442v7.052h43.675v-3.052a2.436 2.436 0 0 0-2.442-2.44H32.41c-2.198-.12-3.832-.59-3.832-.59S21.02 8.538 18.372 7.662c-2.04-.674-2.372-.677-2.677-.677H4.605zM2.163 20.468v18.108a2.437 2.437 0 0 0 2.44 2.44h38.793a2.437 2.437 0 0 0 2.44-2.44V20.468zm32.462 2.382a5.904 5.904 0 0 1 5.903 5.904 5.904 5.904 0 0 1-5.903 5.905 5.904 5.904 0 0 1-3.193-.95L26.8 38.344a.995.995 0 0 1-.714.292.425.425 0 0 1-.116-.01.99.99 0 0 1-.58-.282l-.354-.353a.99.99 0 0 1-.28-.58.424.424 0 0 1-.012-.117.993.993 0 0 1 .292-.714l4.634-4.636a5.904 5.904 0 0 1-.95-3.19 5.904 5.904 0 0 1 5.905-5.904zm-.002 2.19zm.002 0a3.715 3.715 0 0 0-3.715 3.715 3.715 3.715 0 0 0 1.05 2.587 3.715 3.715 0 0 0 2.665 1.127 3.715 3.715 0 0 0 3.713-3.716 3.715 3.715 0 0 0-3.713-3.714z" fill="#fff"/>
</svg>
