<svg xmlns="http://www.w3.org/2000/svg" width="48" height="48" viewBox="0 0 48 48">
    <path d="M18 37.5c.135 2.97 2.79 6 6 6 3.21-.003 5.865-3.03 6-6z" fill="#fff"/>
    <path d="M24 4.5c-1.835 0-3.89.78-3.89 3.114v.996s-9.61 4.11-9.61 11.64-.064 6 0 10.5c4.5-3.864 5.89-3.42 6.147-5.865l.03-.315c0-.03.003-.057.005-.084a21.053 21.053 0 0 0 .06-1.295c.015-1.004 0-2.07.045-3.3.18-5.058 3.382-6.96 7.227-6.96 3.844 0 6.675 1.887 6.7 6.96.005 1.206 0 2.242.063 3.21l.023.34.007.083c.015.17.03.336.054.504l.012.06a13.8 13.8 0 0 0 .064.435 11.14 11.14 0 0 0 .116.594c.495 2.277 1.95 1.776 6.45 5.637.045-5.403 0-3 0-10.5s-9.61-11.64-9.61-11.64v-.996C27.893 5.28 25.837 4.5 24 4.5zm-2.465 12.57c-1.222 0-2.214 1.32-2.214 2.943.002 1.624 1.007 2.94 2.22 2.94 1.232 0 2.22-1.315 2.22-2.94 0-1.624-.99-2.94-2.21-2.94zm4.764.13c-1.2 0-2.176 1.256-2.176 2.806 0 1.552.975 2.808 2.175 2.808 1.2 0 2.174-1.26 2.174-2.82 0-1.55-.975-2.805-2.175-2.805zm-4.69 2.113a1.148 1.148 0 1 1 .002 2.295 1.148 1.148 0 0 1-.003-2.295zm4.69.21a.933.933 0 1 1 0 1.866.938.938 0 0 1 0-1.877zm-2.21 3.742c-2.813 0-5.66.363-5.888 1.086-.454 1.45 4.71 4.88 5.772 4.835 1.062-.042 5.925-3.385 5.775-4.834-.076-.722-2.85-1.085-5.662-1.085zm4.07 4.503c-1.696 1.268-3.508 2.287-4.18 2.314-.672.027-2.562-.982-4.306-2.256-3.05 1.44-4.14 3.18-6.174 4.545-2.034 1.36-6 3.63-6 3.63h33s-3.936-2.265-5.997-3.633c-2.06-1.368-3.23-3.188-6.345-4.602z" fill="#fff"/>
</svg>
