<svg xmlns="http://www.w3.org/2000/svg" width="48" height="48" viewBox="0 0 48 48">
    <path d="M3 39h6v6H3zm9 0h24v6H12zm27 0h6v6h-6zM3 30h6v6H3zm9 0h6v6h-6zm9 0h6v6h-6zm9 0h6v6h-6zm9 0h6v6h-6z" fill="#fff"/>
    <path d="M14.976 3A2.985 2.985 0 0 0 12 6.006V16.5c0 3 1.5 4.125 3 5.25l9 6.75 9-6.75c1.5-1.125 3-2.276 3-5.25V6.006A2.985 2.985 0 0 0 33.024 3H14.98zm3.774 1.5h1.5L22.5 12H21l-.446-1.5h-2.108L18 12h-1.5zm9.75 0a3 3.75 0 0 1 3 3.75 3 3.75 0 0 1-3 3.75 3 3.75 0 0 1-3-3.75 3 3.75 0 0 1 3-3.75zm0 1.5A1.5 2.25 0 0 0 27 8.25a1.5 2.25 0 0 0 1.5 2.25A1.5 2.25 0 0 0 30 8.25 1.5 2.25 0 0 0 28.5 6zm-9 .945L18.89 9h1.22zm-.75 6.555h1.5c.828 0 2.25.672 2.25 1.5h-3.75a.75.75 0 0 0 0 1.5h1.5a2.25 2.25 0 0 1 0 4.5h-1.5c-.828 0-2.25-.672-2.25-1.5h3.75a.75.75 0 0 0 0-1.5h-1.5a2.25 2.25 0 0 1 0-4.5zm6.75 0h3.75a2.25 2.25 0 0 1 0 4.5H27v3h-1.5zM27 15v1.5h2.25a.75.75 0 0 0 .75-.75.75.75 0 0 0-.75-.75z" fill="#fff"/>
    <path d="M3 21h6v6H3zm9 1.5V27h6zm24 0L30 27h6zm3-1.5h6v6h-6z" fill="#fff"/>
</svg>
