<?xml version="1.0" encoding="UTF-8" standalone="no"?>
<svg
   xmlns:dc="http://purl.org/dc/elements/1.1/"
   xmlns:cc="http://creativecommons.org/ns#"
   xmlns:rdf="http://www.w3.org/1999/02/22-rdf-syntax-ns#"
   xmlns:svg="http://www.w3.org/2000/svg"
   xmlns="http://www.w3.org/2000/svg"
   xmlns:sodipodi="http://sodipodi.sourceforge.net/DTD/sodipodi-0.dtd"
   xmlns:inkscape="http://www.inkscape.org/namespaces/inkscape"
   id="svg5104"
   version="1.1"
   viewBox="0 0 48 48"
   height="48"
   width="48"
   inkscape:version="0.91 r13725"
   sodipodi:docname="facebook.svg">
  <sodipodi:namedview
     pagecolor="#404040"
     bordercolor="#666666"
     borderopacity="1"
     objecttolerance="10"
     gridtolerance="10"
     guidetolerance="10"
     inkscape:pageopacity="0"
     inkscape:pageshadow="2"
     inkscape:window-width="1366"
     inkscape:window-height="704"
     id="namedview6"
     showgrid="true"
     inkscape:zoom="8"
     inkscape:cx="-0.44397181"
     inkscape:cy="28.129501"
     inkscape:window-x="0"
     inkscape:window-y="27"
     inkscape:window-maximized="1"
     inkscape:current-layer="svg5104">
    <inkscape:grid
       type="xygrid"
       id="grid4134" />
    <sodipodi:guide
       position="0,28.75"
       orientation="0,1"
       id="guide4163"
       inkscape:label=""
       inkscape:color="rgb(0,0,255)" />
    <sodipodi:guide
       position="28.75,0"
       orientation="1,0"
       id="guide4167"
       inkscape:label=""
       inkscape:color="rgb(0,0,255)" />
  </sodipodi:namedview>
  <metadata
     id="metadata5110">
    <rdf:RDF>
      <cc:Work
         rdf:about="">
        <dc:format>image/svg+xml</dc:format>
        <dc:type
           rdf:resource="http://purl.org/dc/dcmitype/StillImage" />
        <dc:title></dc:title>
      </cc:Work>
    </rdf:RDF>
  </metadata>
  <defs
     id="defs5108" />
  <path
     style="fill:#ffffff;stroke-width:1.0;paint-order:markers fill stroke"
     d="M 8.5,5.0 C 6.5,5.0 5.0,6.5 5.0,8.5 l 0,31 c 0,2.0 1.5,3.5 3.5,3.5 l 13,0 L 21.5,30 17,30 l 0,-6 4.5,0 0,-4.75 C 21.5,15.25 24.75,12 28.75,12 l 3.75,0 0,6 -3.75,0 C 28.1,18 27.5,18.6 27.5,19.25 L 27.5,24 l 5,0 0,6 -5,0 0,13.0 12,0 c 2.0,0.0 3.5,-1.5 3.5,-3.5 l 0,-31 C 43.0,6.5 41.5,5.0 39.5,5.0 Z"
     id="path5704"
     inkscape:connector-curvature="0"
     sodipodi:nodetypes="cccccccccssccsscccccccccc" />
</svg>
