<?xml version="1.0" encoding="UTF-8" standalone="no"?>
<svg
   xmlns:dc="http://purl.org/dc/elements/1.1/"
   xmlns:cc="http://creativecommons.org/ns#"
   xmlns:rdf="http://www.w3.org/1999/02/22-rdf-syntax-ns#"
   xmlns:svg="http://www.w3.org/2000/svg"
   xmlns="http://www.w3.org/2000/svg"
   id="svg5104"
   version="1.1"
   viewBox="0 0 48 48"
   height="48"
   width="48">
  <metadata
     id="metadata5110">
    <rdf:RDF>
      <cc:Work
         rdf:about="">
        <dc:format>image/svg+xml</dc:format>
        <dc:type
           rdf:resource="http://purl.org/dc/dcmitype/StillImage" />
        <dc:title></dc:title>
      </cc:Work>
    </rdf:RDF>
  </metadata>
  <defs
     id="defs5108" />
  <path
     style="fill:#ffffff;stroke-width:1.1875;paint-order:markers fill stroke"
     d="m 8.5624999,5.0000005 c -1.9736251,0 -3.5625001,1.5888744 -3.5625001,3.5624994 V 39.4375 c 0,1.973625 1.588875,3.5625 3.5625001,3.5625 H 39.4375 C 41.411125,43 43,41.411125 43,39.4375 V 8.5624999 C 43,6.5888749 41.411125,5.0000005 39.4375,5.0000005 Z M 22.456249,11.471875 c 0.510626,0.0059 1.029563,0.03919 1.549688,0.095 l 7.125,0.748125 v 6.34125 h 3.5625 v 2.375 h -3.5625 V 31.125 c 0,2.375 1.1875,2.375 2.375,2.375 h 1.1875 v 2.96875 h -2.375 c -2.375,0 -5.34375,-0.59375 -5.34375,-5.34375 V 14.5 h -2.96875 c -3.5625,0 -4.15625,0 -4.15625,4.15625 h 4.15625 v 2.375 h -4.15625 v 15.4375 h -4.15625 v -15.4375 h -2.96875 v -2.375 h 2.96875 V 16.875 c 0,-4.15625 3.1825,-5.43875 6.762812,-5.403125 z"
     id="path5822" />
</svg>
