<svg xmlns="http://www.w3.org/2000/svg" width="48" height="48" viewBox="0 0 48 48">
    <path d="M8.562 5A3.555 3.555 0 0 0 5 8.562v30.876A3.555 3.555 0 0 0 8.562 43h30.876A3.555 3.555 0 0 0 43 39.437V8.563A3.555 3.555 0 0 0 39.437 5zm13.894 6.472c.51.006 1.03.04 1.55.095l7.125.748v6.34h3.563v2.376H31.13v10.095c0 2.375 1.188 2.375 2.376 2.375h1.187v2.97h-2.375c-2.375 0-5.343-.595-5.343-5.345V14.5h-2.97c-3.562 0-4.155 0-4.155 4.156h4.156v2.375H19.85v15.44h-4.157V21.03h-2.968v-2.374h2.968v-1.78c0-4.157 3.183-5.44 6.763-5.404z" fill="#fff"/>
</svg>
