<?xml version="1.0" encoding="UTF-8" standalone="no"?>
<!-- Created with Inkscape (http://www.inkscape.org/) -->
<svg xmlns="http://www.w3.org/2000/svg" height="48" width="48" version="1.1" viewBox="0 0 48 48.000001"><g transform="translate(0 -1004)"><path fill="#fff" d="m7 1009c-1.108 0-2 0.892-2 2v34c0 1.108 0.892 2 2 2h34c1.108 0 2-0.892 2-2v-34c0-1.108-0.892-2-2-2h-34zm17 6 11.26 6.5v13l-11.26 6.5-11.26-6.5v-13l11.26-6.5zm0 2-8.525 4.922l8.52 5 8.53-5-8.53-5zm-9.525 6.654v9.846l8.525 4.922v-9.844l-8.525-4.924zm19.05 0-8.525 4.924v9.844l8.525-4.922v-9.846z"/></g></svg>
