<svg xmlns="http://www.w3.org/2000/svg" shape-rendering="crispEdges" viewBox="0 0 48 48" height="48" width="48">
    <path d="M24 2A22 22 0 0 0 2 24a22 22 0 0 0 22 22 22 22 0 0 0 22-22A22 22 0 0 0 24 2zM11.166 12.035l.8 1.328c.847 1.404 3.86 2.28 4.55 2.37a10.32 10.32 0 0 1 1.787.372c2.803.947 2.545 1.81 1.908 2.79-.77 1.193-2.91 1.112-4.62.566-1.71-.544-2.913-2.582-3.37-3.492-.453-.91-1.053-2.367-1.053-3.932zm25.682 0c0 1.565-.602 3.022-1.057 3.932-.453.91-1.654 2.948-3.365 3.494-1.71.548-3.853.63-4.625-.563-.638-.982-.896-1.844 1.907-2.79a10.34 10.34 0 0 1 1.79-.372c.69-.09 3.702-.967 4.548-2.37l.803-1.33zM21.305 22.207c1.474.164 1.637.55 1.91 1.568.273 1.02-.746 1.07-.746 1.07-1.64.256-1.86.875-2.77 1.858-.91.983-2.51 2.622-5.896 2.04-3.386-.583-5.426-5.534-5.426-5.534 2.62 3.71 4.606 3.912 6.335 3.676 1.73-.237 2.856-1.6 3.474-2.42.618-.82 1.64-2.424 3.115-2.26zm5.39 0c1.475-.164 2.497 1.44 3.116 2.26.62.82 1.747 2.183 3.476 2.42 1.73.236 3.715.035 6.336-3.678 0 0-2.04 4.95-5.425 5.53-3.385.584-4.986-1.055-5.896-2.04-.91-.98-1.13-1.6-2.77-1.855 0 0-1.017-.05-.744-1.07s.436-1.405 1.91-1.57zm-4.916 4.48c.517.974 2.22 1.016 2.22 1.016s1.7-.042 2.22-1.015c0 1.974.255 4.512 0 6.732-.255 2.22-2.22 8.3-2.22 8.3s-1.967-6.08-2.22-8.3c-.257-2.22 0-4.758 0-6.733z" fill="#fff"/>
</svg>
