<svg xmlns="http://www.w3.org/2000/svg" width="48" height="48" viewBox="0 0 48 48">
    <path d="M24 3C14.06 3 6 11.06 6 21s8.06 18 18 18c.02 0-.02 6 0 6 13.5 0 18-14.08 18-24 0-9.94-8.06-18-18-18zm0 12.45a3.75 3.75 0 0 1 3.75 3.75 3.75 3.75 0 0 1-1.785 3.192l1.785 5.358h-7.5l1.785-5.36a3.75 3.75 0 0 1-1.785-3.19A3.75 3.75 0 0 1 24 15.45z" style="font-variant-ligatures:normal;font-variant-position:normal;font-variant-caps:normal;font-variant-numeric:normal;font-variant-alternates:normal;font-feature-settings:normal;text-indent:0;text-decoration-line:none;text-decoration-style:solid;text-decoration-color:#000;text-transform:none;text-orientation:mixed;shape-padding:0;isolation:auto;mix-blend-mode:normal" color="#000" white-space="normal" fill="#fff" paint-order="markers fill stroke"/>
</svg>
