<svg xmlns="http://www.w3.org/2000/svg" width="48" height="48" viewBox="0 0 48 48">
    <path d="M24 6.375a16.5 12.75 0 0 0-16.5 12.75 16.5 12.75 0 0 0 4.567 8.797L8.94 33.93l9.225-2.895a16.5 12.75 0 0 0 5.835.84 16.5 12.75 0 0 0 16.5-12.75A16.5 12.75 0 0 0 24 6.375zm0 3.75a4.5 4.5 0 0 1 4.5 4.5v3.75h.64a.86.86 0 0 1 .86.86v6.53a.86.86 0 0 1-.86.86H18.86a.86.86 0 0 1-.86-.86v-6.53a.86.86 0 0 1 .86-.86h.64v-3.75a4.5 4.5 0 0 1 4.5-4.5zm0 1.5a3 3 0 0 0-3 3v3.75h6v-3.75a3 3 0 0 0-3-3z" fill="#fff"/>
    <circle cx="14.625" cy="39" r="2.625" fill="#fff"/>
    <circle cx="24" cy="39" r="2.625" fill="#fff"/>
    <circle cx="33.375" cy="39" r="2.625" fill="#fff"/>
</svg>
