<?xml version="1.0" encoding="UTF-8" standalone="no"?>
<svg
   xmlns:dc="http://purl.org/dc/elements/1.1/"
   xmlns:cc="http://creativecommons.org/ns#"
   xmlns:rdf="http://www.w3.org/1999/02/22-rdf-syntax-ns#"
   xmlns:svg="http://www.w3.org/2000/svg"
   xmlns="http://www.w3.org/2000/svg"
   id="svg5104"
   version="1.1"
   viewBox="0 0 48 48"
   height="48"
   width="48">
  <metadata
     id="metadata5110">
    <rdf:RDF>
      <cc:Work
         rdf:about="">
        <dc:format>image/svg+xml</dc:format>
        <dc:type
           rdf:resource="http://purl.org/dc/dcmitype/StillImage" />
        <dc:title></dc:title>
      </cc:Work>
    </rdf:RDF>
  </metadata>
  <defs
     id="defs5108" />
  <path
     style="fill:#ffffff;stroke-width:1.1875;paint-order:markers fill stroke"
     d="M 8.5625,5 C 6.588875,5 5,6.588875 5,8.5625 v 30.875 C 5,41.411125 6.588875,43 8.5625,43 h 30.875 C 41.411125,43 43,41.411125 43,39.4375 V 8.5625 C 43,6.588875 41.411125,5 39.4375,5 Z m 18.50125,9.657937 c 2.321562,-0.04512 3.879562,0.876375 5.222625,3.085125 1.332375,2.050813 4.752375,8.031063 5.350875,9.78025 0.60325,1.571063 -0.05937,3.325 -1.911875,3.835625 -1.8905,0.5225 -5.0065,1.159 -7.235438,1.593625 -1.77175,0.344375 -3.1065,0.676875 -5.48625,0.02137 -4.666875,-1.2825 -10.429812,-3.287 -11.681437,-3.720437 -0.912,-0.315875 -0.629375,-1.903563 0.225625,-1.707625 0.673312,0.154375 7.49075,1.63875 8.52625,1.820437 1.235,0.216125 2.050812,-0.239875 2.315625,-0.700625 0.35625,-0.6175 0.281437,-1.571062 -0.05937,-2.458125 -0.602063,-1.565125 -2.242,-5.6525 -2.924813,-6.994375 -0.684,-1.34425 -1.622125,-1.81925 -2.619625,-1.911875 -1.606687,-0.150812 -5.198875,-0.288562 -6.169062,-0.347937 -0.54625,-0.03325 -0.7125,-1.110313 0.08788,-1.246875 3.667,-0.619875 14.46375,-1.104375 16.36375,-1.047375 z m 1.104375,1.9 A 5.094375,5.094375 0 0 0 27.553,16.572187 c -1.15425,0.09975 -4.342688,0.368125 -5.023125,0.447688 -0.852625,0.0855 -1.484375,0.478562 -0.970188,1.82875 0.279063,0.638875 1.978375,5.004125 2.38925,5.753437 0.495188,1.128125 1.365625,1.416688 2.903438,1.194625 1.409562,-0.154375 4.90675,-0.667375 5.907812,-0.9215 0.967813,-0.244625 1.33,-0.979687 0.9025,-1.742062 a 211.46525,211.46525 0 0 0 -2.61725,-4.524375 c -0.756437,-1.31575 -1.5295,-1.995 -2.8785,-2.052 z m 6.932625,10.374 a 1.3062506,1.3062506 0 1 0 -0.0024,2.6125 1.3062506,1.3062506 0 0 0 0.0024,-2.6125 z m -7.679563,1.338313 a 1.4523125,1.4523125 0 1 0 0,2.904625 1.4523125,1.4523125 0 0 0 0,-2.904625 z"
     id="path5970" />
</svg>
