<svg xmlns="http://www.w3.org/2000/svg" width="48" height="48" viewBox="0 0 48 48">
    <path d="M8.563 5A3.555 3.555 0 0 0 5 8.563v30.874A3.555 3.555 0 0 0 8.563 43h30.874A3.555 3.555 0 0 0 43 39.437V8.564A3.555 3.555 0 0 0 39.437 5zm18.5 9.658c2.322-.045 3.88.876 5.223 3.085 1.333 2.05 4.753 8.03 5.35 9.78.604 1.57-.058 3.325-1.91 3.836-1.89.52-5.007 1.158-7.236 1.593-1.772.344-3.107.676-5.486.02-4.667-1.282-10.43-3.286-11.682-3.72-.912-.315-.63-1.903.226-1.707.673.154 7.49 1.64 8.526 1.82 1.235.216 2.05-.24 2.316-.7.356-.618.28-1.57-.06-2.458-.602-1.566-2.242-5.653-2.924-6.995-.684-1.344-1.623-1.82-2.62-1.912-1.607-.15-5.2-.287-6.17-.347-.545-.033-.712-1.11.09-1.247 3.666-.62 14.463-1.104 16.363-1.047zm1.105 1.9a5.094 5.094 0 0 0-.615.014c-1.154.1-4.343.368-5.023.448-.853.085-1.485.478-.97 1.83.28.637 1.978 5.003 2.39 5.752.494 1.128 1.365 1.417 2.902 1.195 1.41-.155 4.907-.668 5.908-.922.968-.244 1.33-.98.903-1.742a211.465 211.465 0 0 0-2.618-4.524c-.756-1.317-1.53-1.996-2.878-2.053zM35.1 26.932a1.306 1.306 0 1 0-.002 2.612 1.306 1.306 0 0 0 .003-2.612zm-7.68 1.338a1.452 1.452 0 1 0 0 2.905 1.452 1.452 0 0 0 0-2.905z" fill="#fff"/>
</svg>
