<svg xmlns="http://www.w3.org/2000/svg" width="48" height="48" viewBox="0 0 48 48">
    <path d="M24 3.75A20.25 20.25 0 0 0 3.75 24 20.25 20.25 0 0 0 24 44.25 20.25 20.25 0 0 0 44.25 24 20.25 20.25 0 0 0 24 3.75zm-5.03 9.308c.24-.01 1.21.018 1.307 1.05.14 1.497.66 3.735.66 3.735s.367 1.102-.345 1.79c-.32.307-1.218 1.222-2.13 2.155a17.366 17.366 0 0 0 3.24 4.52 17.37 17.37 0 0 0 4.51 3.23c.938-.92 1.86-1.825 2.168-2.146.687-.71 1.785-.342 1.785-.342s2.238.52 3.735.66c1.18.11 1.05 1.362 1.05 1.362v5.03a.89.89 0 0 1-.825.802c-4.4.33-9.108-2.05-10.254-2.673h-.002a21 21 0 0 1-.053-.03l-.21-.12a21 21 0 0 1-7.695-7.687l-.004.006-.08-.14a21 21 0 0 1-.015-.033c-.464-.836-3.074-5.74-2.73-10.347 0 0 .028-.71.808-.825h5.03l.054-.005z" fill="#fff"/>
    <path d="M4.5 43.5L24 38.64 9.36 24z" fill="#fff"/>
</svg>
