<svg id="Layer_1" data-name="Layer 1" xmlns="http://www.w3.org/2000/svg" xmlns:xlink="http://www.w3.org/1999/xlink" viewBox="0 0 2221.38 622.64"><defs><style>.cls-1{isolation:isolate;}.cls-2,.cls-4{fill:#fff;}.cls-3{fill:none;}.cls-4{fill-rule:evenodd;}</style></defs><g id="Layer_1-2" data-name="Layer 1"><image class="cls-1" width="5166" height="1448" transform="scale(0.43)" xlink:href="45EF7095.png"/></g><path class="cls-2" d="M962.7,275.7h-44V298h40.1v18H918.7v45.2H898.2V257.6h64.5Z" transform="translate(0.14 0.41)"/><path class="cls-2" d="M1050.9,305a21.79,21.79,0,0,0-7.8-4.6,31,31,0,0,0-9.8-1.5,26.49,26.49,0,0,0-11.3,2.3,16.85,16.85,0,0,0-9.8,13,75.74,75.74,0,0,0-.7,11.4v35.8H991.2V283.7h20.3v12.1a21.94,21.94,0,0,1,9.2-10.3,28,28,0,0,1,14.4-3.6,32.31,32.31,0,0,1,8.2,1,38.52,38.52,0,0,1,7.6,2.9V305Z" transform="translate(0.14 0.41)"/><path class="cls-2" d="M1063.4,322.4c0-12.5,3.2-22.5,9.7-29.8s15.2-11,26.2-11,19.8,3.7,26.3,11,9.7,17.3,9.7,29.8-3.2,22.5-9.7,29.8-15.3,11-26.3,11-19.7-3.7-26.2-11S1063.4,335,1063.4,322.4Zm36-24.2a12.71,12.71,0,0,0-11.4,6.4c-2.8,4.3-4.2,10.2-4.2,17.9s1.4,13.6,4.2,17.9,6.6,6.4,11.4,6.4a13,13,0,0,0,11.5-6.4c2.8-4.3,4.2-10.2,4.2-17.9s-1.4-13.6-4.2-17.9A13,13,0,0,0,1099.4,298.2Z" transform="translate(0.14 0.41)"/><path class="cls-2" d="M1210.9,285.9v17.8a44.26,44.26,0,0,0-11.7-5.4,42.41,42.41,0,0,0-12.2-1.8c-4.5,0-8,.7-10.3,2a6.43,6.43,0,0,0-3.5,5.9c0,3.7,4.9,6.7,14.8,9l.8.2,5.8,1.4c7.4,1.8,12.8,4.6,16.3,8.5s5.2,9.2,5.2,15.9c0,8-2.6,14-7.9,18s-13.1,6-23.7,6a89.29,89.29,0,0,1-14.4-1.2,104,104,0,0,1-14.9-3.6V340.8a64.68,64.68,0,0,0,13.7,5.8,49.62,49.62,0,0,0,13.5,2q7.2,0,10.8-2.1a6.52,6.52,0,0,0,3.7-6,7.36,7.36,0,0,0-2.6-6c-1.7-1.4-5.9-2.9-12.4-4.4l-5.6-1.2c-7.8-1.8-13.4-4.5-17-8.3s-5.3-8.8-5.3-15.1c0-7.5,2.7-13.3,8.1-17.5s13-6.2,22.8-6.2a81.74,81.74,0,0,1,13.1,1.1A60.63,60.63,0,0,1,1210.9,285.9Z" transform="translate(0.14 0.41)"/><path class="cls-2" d="M1275.5,261.5v22.1h26.6v15.6h-26.6V336c0,3.5.8,6,2.5,7.5s4.5,2.3,8.4,2.3H1302v15.6h-17.1c-11.7,0-19.5-1.9-23.7-5.6s-6.2-10.6-6.2-20.7V299.3h-19.8V283.7H1255V261.6h20.5Z" transform="translate(0.14 0.41)"/><path class="cls-2" d="M1910.1,133.3v-56h-39.2v99.5a124.1,124.1,0,0,0,18.6-12c13.7-10.7,20.6-21.2,20.6-31.5Zm16.8-67.2v67.2a41.11,41.11,0,0,1-2.9,14.9,56.93,56.93,0,0,1-7.3,13.1,88,88,0,0,1-10.3,11.2,122.42,122.42,0,0,1-11.1,9c-3.4,2.4-6.9,4.7-10.6,6.8s-6.3,3.6-7.8,4.3-2.8,1.3-3.7,1.7a5.54,5.54,0,0,1-4.6,0c-.9-.4-2.2-1-3.7-1.7s-4.2-2.2-7.8-4.3-7.2-4.4-10.6-6.8a122.42,122.42,0,0,1-11.1-9,76.34,76.34,0,0,1-10.3-11.2,56.93,56.93,0,0,1-7.3-13.1,39.11,39.11,0,0,1-2.9-14.9V66.1a5.82,5.82,0,0,1,5.6-5.6h100.8a5.82,5.82,0,0,1,5.6,5.6Z" transform="translate(0.14 0.41)"/><path class="cls-2" d="M491.1,59.9c-3.6,0-6.5,4.4-6.5,10V184.4c0,5.5,2.9,10,6.5,10H607.6c3.6,0,6.5-4.4,6.5-10V69.8c0-5.5-2.9-10-6.5-10H491.1Zm30,10.4a8.7,8.7,0,1,1-8.7,8.7h0a8.71,8.71,0,0,1,8.7-8.7Zm56.6,0a8.71,8.71,0,0,1,8.7,8.7h0a8.71,8.71,0,0,1-8.7,8.7h0a8.7,8.7,0,0,1,0-17.4Zm-58.1,42.4c7.4,0,13,1.2,16.7,3.7s5.6,6.1,5.6,11a12.55,12.55,0,0,1-2.7,8.3,15,15,0,0,1-7.8,4.5,15.79,15.79,0,0,1,8.8,5.2,14.51,14.51,0,0,1,3,9.4c0,5.7-2.2,10-6.5,13s-10.7,4.4-19.1,4.4a53.39,53.39,0,0,1-8.9-.7,66.25,66.25,0,0,1-8.8-2.1V158a49.48,49.48,0,0,0,8.2,3.2,32.09,32.09,0,0,0,8.1,1c3.9,0,6.9-.7,9-2a6.95,6.95,0,0,0,0-11.7c-2.1-1.4-5.3-2-9.5-2h-5.9V137H516c3.7,0,6.5-.6,8.3-1.7A6,6,0,0,0,527,130a5.92,5.92,0,0,0-2.6-5.1,13.42,13.42,0,0,0-7.5-1.8,35.29,35.29,0,0,0-7.2.8,36.61,36.61,0,0,0-7.3,2.4V115.5a63.94,63.94,0,0,1,8.7-1.8,30.88,30.88,0,0,1,8.5-1Zm52.1,1h14.1v47.2h13.1v10.2H558.8V160.9h13.1V123.8l-13.4,2.8V116.5l13.2-2.8Z" transform="translate(0.14 0.41)"/><path class="cls-2" d="M1856.5,439.8l-9.5,9.8h-37.1a6.23,6.23,0,0,0-6.2,6.2v80a6.23,6.23,0,0,0,6.2,6.2h122a6.23,6.23,0,0,0,6.2-6.2v-80a6.23,6.23,0,0,0-6.2-6.2h-37.1l-9.5-9.8Zm65.2,19.8c8.8-.4,8.8,13,0,12.7C1913.6,471.9,1913.6,459.9,1921.7,459.6Zm-50.8,11a29.3,29.3,0,1,1-29.3,29.3,29.28,29.28,0,0,1,29.3-29.3Z" transform="translate(0.14 0.41)"/><path class="cls-2" d="M1391.1,60.3a7.13,7.13,0,0,0-7.1,7.1v3.4h-11.1c-5.4,0-9.7,4.1-9.7,9.1V185.5c0,5,4.3,9.1,9.7,9.1H1445c5.4,0,9.7-4.1,9.7-9.1v-7h33.7c5,0,9.1-4.3,9.1-9.7V96.7c0-5.4-4.1-9.7-9.1-9.7h-33.7V80c0-5-4.3-9.1-9.7-9.1h-11.3V67.5a7.13,7.13,0,0,0-7.1-7.1l-35.5-.1ZM1412.6,99h10.9v10.9h-10.9Zm21.1,0h10.9v10.9h-10.9Zm21.3,0h10.9v10.9H1455Zm21.2,0h10.9v10.9h-10.9Zm-63.6,56.6h10.9v10.9h-10.9Zm21.1,0h10.9v10.9h-10.9Zm21.3,0h10.9v10.9H1455Zm21.2,0h10.9v10.9h-10.9Z" transform="translate(0.14 0.41)"/><path class="cls-2" d="M750.9,64.9a27.15,27.15,0,1,1-38.4,38.4v76.8a19.2,19.2,0,1,0,38.4,0V158.9l-2.9-4.2a27.21,27.21,0,0,1,44.6-31.2l14.9,21.3a47.87,47.87,0,0,0-35.7-79.9Z" transform="translate(0.14 0.41)"/><path class="cls-2" d="M770.2,119.9A19.2,19.2,0,0,0,751,139.1a18.93,18.93,0,0,0,3.5,11l28.7,41a19.47,19.47,0,0,0,15.7,8.2,19.16,19.16,0,0,0,15.7-30.2l-28.7-41a19.2,19.2,0,0,0-15.7-8.2Z" transform="translate(0.14 0.41)"/><circle class="cls-2" cx="731.84" cy="84.51" r="19.2"/><path class="cls-2" d="M1650.7,416.3a72,72,0,1,0,72,72A72,72,0,0,0,1650.7,416.3Zm0,130.8a58.9,58.9,0,1,1,58.9-58.9A58.94,58.94,0,0,1,1650.7,547.1Z" transform="translate(0.14 0.41)"/><path class="cls-2" d="M1627.5,463.7l13.6-8,4.2-7.8-6.8-7.4h0a49.38,49.38,0,0,0-34.7,32.8l18.4,8-13,6.8,3.8,31.7a46.39,46.39,0,0,0,7.5,7.2l25.3-38.3-23.6-7.5Z" transform="translate(0.14 0.41)"/><path class="cls-2" d="M1672.6,444.2l-8.2,13.2,23.9-.9A49.59,49.59,0,0,0,1672.6,444.2Z" transform="translate(0.14 0.41)"/><path class="cls-2" d="M1660.1,474.2l3.8,18.6,16.4,4.7,2.5,28a49,49,0,0,0,8.3-65.2Z" transform="translate(0.14 0.41)"/><path class="cls-2" d="M1430.5,416.3a72,72,0,1,0,72,72A72,72,0,0,0,1430.5,416.3Zm0,55.2a16.7,16.7,0,1,1,0,33.4Zm0,44.6a27.9,27.9,0,1,0,0-55.8V449.4a38.8,38.8,0,0,1,0,77.6Zm0,33V538.2a49.9,49.9,0,1,0,0-99.8V427.5a60.8,60.8,0,0,1,0,121.6Z" transform="translate(0.14 0.41)"/><path class="cls-2" d="M769.9,420.2a65.59,65.59,0,0,0-9.4.7c-24.2,5.1-42.1,27.6-43.4,41.8-.3,2.4-.3,5.4-.7,8.4v21.5l51.4,32.8a5.16,5.16,0,0,0,5.1.2l51-32.7c.1-3.6.6-26.1.3-29.9-1.3-14.5-16.8-37-44.1-42.1a75.41,75.41,0,0,0-10.2-.7Zm0,21.5a33.21,33.21,0,0,1,8.8,1c19.2,5.4,21.2,16.8,21.9,19.9v17.5h-61V462.6a4.65,4.65,0,0,1,.3-2c8.1-17.9,30-18.9,30-18.9Zm-53.6,62.8v43.3a6.7,6.7,0,0,0,6.7,6.7h94.3a6.8,6.8,0,0,0,6.7-5.4V504.6l-50.9,32.7a4.83,4.83,0,0,1-5.4,0l-51.4-32.8Z" transform="translate(0.14 0.41)"/><path class="cls-2" d="M549.6,236.6a72,72,0,1,0,72,72A72,72,0,0,0,549.6,236.6Zm-16.3,25.9a15.16,15.16,0,0,1,5.9,1.8c24.7,13.1,41.6,30,54.7,54.7,4,7.6.8,13-3,14.7s-11.1,1.5-13.5-3.1a120.24,120.24,0,0,0-49.7-49.7c-4.6-2.5-4.8-9.7-3.1-13.5a8.37,8.37,0,0,1,7.2-4.8A6.18,6.18,0,0,1,533.3,262.5Zm-13.2,29.4a5.25,5.25,0,0,1,3.3.8,107.86,107.86,0,0,1,42.1,42.1,6.15,6.15,0,0,1-2.8,8.6c-4,1.9-7.8.1-9-2.1a94.35,94.35,0,0,0-36.8-36.8c-2.2-1.2-4-5-2.1-9A6,6,0,0,1,520.1,291.9Zm-9.8,25a5.2,5.2,0,0,1,2.5.7,79.85,79.85,0,0,1,27.7,27.7,4.47,4.47,0,0,1-1.5,6.4c-2.6,1.4-5.9.4-6.9-1.3a70.65,70.65,0,0,0-24.3-24.3c-1.7-1-2.7-4.3-1.3-6.9A4.12,4.12,0,0,1,510.3,316.9Z" transform="translate(0.14 0.41)"/><path class="cls-2" d="M713.8,249.4a6.27,6.27,0,0,0-6.3,6.3V363.6a6.27,6.27,0,0,0,6.3,6.3h26.8a62.25,62.25,0,0,1-1.1-17.5c1.4-16.1,10.2-27.9,20.6-35.3a72.26,72.26,0,0,1,14.3-7.9c1.4-.6,2.7-1.1,4.1-1.6l4.1-1.4h0a25.82,25.82,0,1,1,3.2,16.1l-.5.1-3.4,1.1c-1.2.5-2.5,1-3.7,1.6a54.12,54.12,0,0,0-8.8,5c-7.6,5.5-13,12.4-13.9,23.6a48.23,48.23,0,0,0,1.7,16.1h64.6a6.27,6.27,0,0,0,6.3-6.3V336.7a33.71,33.71,0,0,0,0-54.4V255.5a6.27,6.27,0,0,0-6.3-6.3Z" transform="translate(0.14 0.41)"/><path class="cls-2" d="M110,415.4,88.9,436.5H59.1v29.8L38,487.3l21.1,21.1v29.8H88.9L110,559.3l21.1-21.1h29.8V508.4L182,487.3l-21.1-21.1V436.4H131.1Zm0,19.6v13.1h0A39.25,39.25,0,0,1,144,507l-8.5-4.9A29.32,29.32,0,0,0,110.1,458v13l-18-18L110,435ZM76,467.7l8.5,4.9a29.32,29.32,0,0,0,25.4,44.1V503.6l18,18-18,18V526.5A39.11,39.11,0,0,1,76,467.7Z" transform="translate(0.14 0.41)"/><path class="cls-2" d="M110,236.6a72,72,0,0,0-72,72h0a72,72,0,0,0,72,72h0a70.68,70.68,0,0,0,31.9-7.6,34.74,34.74,0,0,1,9.6-2.6c12.1-.9,20.6,4.9,30.5,10.2-5.3-9.9-11.1-18.4-10.2-30.5a35.14,35.14,0,0,1,2.4-8.9h0A72,72,0,0,0,110,236.6Zm0,22.4a49.51,49.51,0,0,1,49.5,49.6h0a49.09,49.09,0,0,1-5.4,22.5h0a22.89,22.89,0,0,0-1.6,6.1c-.6,8.3,3.4,14.2,7,21-6.8-3.6-12.7-7.6-21-7a26.52,26.52,0,0,0-6.6,1.8,49.51,49.51,0,0,1-71.6-44.3h0A49.76,49.76,0,0,1,110,259Z" transform="translate(0.14 0.41)"/><path class="cls-2" d="M2090,416.3A72,72,0,0,0,2026.9,523l-8.9,37.3,37.3-8.9A72,72,0,1,0,2090,416.3ZM2054,449h19.6a3.55,3.55,0,0,1,3.3,3.3,35.06,35.06,0,0,0,2.2,13.1c1.1,3.3,1.1,4.9-2.2,8.2l-6.9,6.9a63.2,63.2,0,0,0,11.8,16,65,65,0,0,0,16,11.8l6.9-6.9c3.3-3.3,4.9-3.3,8.2-2.2a34.79,34.79,0,0,0,13.1,2.2,3.55,3.55,0,0,1,3.3,3.3v19.6a3.55,3.55,0,0,1-3.3,3.3,78.39,78.39,0,0,1-75.3-75.3A3.63,3.63,0,0,1,2054,449Z" transform="translate(0.14 0.41)"/><path class="cls-2" d="M1042.9,92.8a5,5,0,0,0,6.2-1.2l4.1-6.5a4.8,4.8,0,0,0-1.2-6.2l-33.8-21.8a4.92,4.92,0,0,0-6.2,1.2l-4.1,6.5a4.92,4.92,0,0,0,1.2,6.2l3,2.1-5.9,9.4a68.15,68.15,0,0,0-16.8-2.4,63.16,63.16,0,1,0,44.8,18.5l5.3-8Zm-2.9,50.6a50.86,50.86,0,0,1-2.1,14.5,42.46,42.46,0,0,1-18.2,4.1,45.09,45.09,0,0,1-28.8-11.2,78.5,78.5,0,0,0-13.6-9.4,77.27,77.27,0,0,0-36.3-10,50.21,50.21,0,0,1,99,12Z" transform="translate(0.14 0.41)"/><path class="cls-2" d="M1427,372.2a70.09,70.09,0,0,1-10.2-.8l1-6.4a56.16,56.16,0,0,0,9.2.7,59.49,59.49,0,0,0,9.4-.7l1,6.4A71.74,71.74,0,0,1,1427,372.2Zm16-1.9-1.5-6.3a61.85,61.85,0,0,0,17.2-7.1l3.3,5.5A65.93,65.93,0,0,1,1443,370.3Zm23.8-11.1L1463,354a60.75,60.75,0,0,0,13.1-13.2l5.2,3.8A64.81,64.81,0,0,1,1466.8,359.2Zm17.6-19.2a.1.1,0,0,1,.1-.1l-5.5-3.3v-.1a63.82,63.82,0,0,0,7.1-17.1l6.3,1.5a68,68,0,0,1-8,19.1Zm9.1-24.7-6.4-1a56.16,56.16,0,0,0,.7-9.2,59.49,59.49,0,0,0-.7-9.4l6.4-1a71.74,71.74,0,0,1,.8,10.4A70.09,70.09,0,0,1,1493.5,315.3Zm-132.8,0a66.71,66.71,0,0,1,0-20.6l6.4,1a62.13,62.13,0,0,0,0,18.6Zm125.4-24.7a61.85,61.85,0,0,0-7.1-17.2l5.5-3.3a68.85,68.85,0,0,1,7.9,19Zm-118,0-6.3-1.5a65.35,65.35,0,0,1,7.9-18.9v-.1l5.5,3.4h0A57.94,57.94,0,0,0,1368.1,290.6Zm108-21.4a62.57,62.57,0,0,0-13.1-13.1l3.8-5.2a69.22,69.22,0,0,1,14.6,14.5Zm-98-.1-5.2-3.8a66.47,66.47,0,0,1,14.5-14.5l3.8,5.2A62.57,62.57,0,0,0,1378.1,269.1Zm80.5-16h0a57.42,57.42,0,0,0-17.2-7.1l1.5-6.3a67.11,67.11,0,0,1,19,7.9h0Zm-63.1,0-3.3-5.5a68.85,68.85,0,0,1,19-7.9l1.5,6.3A61.85,61.85,0,0,0,1395.5,253.1Zm22.3-8.1-1-6.4a71.46,71.46,0,0,1,10.3-.8,69,69,0,0,1,10.2.8l-1,6.4a57,57,0,0,0-9.2-.7A58.24,58.24,0,0,0,1417.8,245Z" transform="translate(0.14 0.41)"/><path class="cls-2" d="M1411,370.3a67.87,67.87,0,0,1-15.7-6l-7,1.6-1.4-6.3,9.4-2.1,1.1.6a60.19,60.19,0,0,0,15.2,6Z" transform="translate(0.14 0.41)"/><path class="cls-2" d="M1372.6,345.2l-6.3-1.5,1.6-6.9a68.16,68.16,0,0,1-6.1-15.7l6.3-1.5a60.19,60.19,0,0,0,6,15.2l.6,1.1Z" transform="translate(0.14 0.41)"/><path class="cls-2" d="M1362.1,361.8l3-12.7,6.3,1.5-3.1,13.3,13.3-3,1.4,6.3-12.7,2.9A6.94,6.94,0,0,1,1362.1,361.8Z" transform="translate(0.14 0.41)"/><path class="cls-2" d="M1427,250.1a54.76,54.76,0,0,0-54.8,54.8,53.89,53.89,0,0,0,8.6,29.4l-5.2,22.2,22.3-5.1A54.82,54.82,0,1,0,1427,250.1Z" transform="translate(0.14 0.41)"/><path class="cls-2" d="M1684.9,263.7a7.1,7.1,0,1,0,7.1,7.1,7.13,7.13,0,0,0-7.1-7.1Z" transform="translate(0.14 0.41)"/><path class="cls-2" d="M1699.8,354.2h-98.4V255.8h98.4Zm4.8-109.5H1596.7a6.27,6.27,0,0,0-6.3,6.3V359a6.27,6.27,0,0,0,6.3,6.3h107.9a6.27,6.27,0,0,0,6.3-6.3V251.1a6.3,6.3,0,0,0-6.3-6.4Z" transform="translate(0.14 0.41)"/><path class="cls-2" d="M1650.7,274.1Z" transform="translate(0.14 0.41)"/><path class="cls-2" d="M1650.7,274.1a31,31,0,1,0,31,31A31,31,0,0,0,1650.7,274.1Zm0,50.8a19.9,19.9,0,1,1,19.9-19.9A19.89,19.89,0,0,1,1650.7,324.9Z" transform="translate(0.14 0.41)"/><line class="cls-3" x1="1590.54" y1="326.01" x2="1601.64" y2="326.01"/><path class="cls-2" d="M163,65H55.1a6.27,6.27,0,0,0-6.3,6.3V179.2a6.27,6.27,0,0,0,6.3,6.3H141l-3.6-12.6,32,25.3V71.3A6.42,6.42,0,0,0,163,65Zm-34.8,89.2s-2.5-3-4.5-5.6c9-2.5,12.5-8.2,12.5-8.2a37.5,37.5,0,0,1-7.9,4.1,51.35,51.35,0,0,1-10,3,48.05,48.05,0,0,1-17.8-.1,61.41,61.41,0,0,1-10.1-3,43.76,43.76,0,0,1-5-2.3l-.6-.3c-.1-.1-.2-.1-.3-.2-1.2-.7-1.9-1.2-1.9-1.2s3.3,5.5,12.1,8.1l-4.6,5.7c-15.2-.5-21-10.5-21-10.5,0-22.2,9.9-40.2,9.9-40.2,9.9-7.4,19.4-7.2,19.4-7.2l.7.8c-12.4,3.6-18.1,9-18.1,9s1.5-.8,4.1-2a52.38,52.38,0,0,1,15.6-4.3,4.87,4.87,0,0,1,1.2-.1,53.6,53.6,0,0,1,13.9-.1,57.15,57.15,0,0,1,20.7,6.6s-5.4-5.2-17.2-8.8l1-1.1s9.4-.2,19.4,7.2c0,0,9.9,18,9.9,40.2C149.3,143.7,143.4,153.7,128.2,154.2Z" transform="translate(0.14 0.41)"/><path class="cls-2" d="M96.4,122c-3.9,0-7,3.4-7,7.6s3.2,7.6,7,7.6,7-3.4,7-7.6A7.23,7.23,0,0,0,96.4,122Z" transform="translate(0.14 0.41)"/><ellipse class="cls-2" cx="121.74" cy="130.11" rx="7" ry="7.6"/><path class="cls-2" d="M329.8,382.5c-17.9,0-72-12.3-72-74.7,0-34.7,27.3-50.2,27.3-50.2-.3,11.7,2.5,18.3,2.5,18.3h.2a59.9,59.9,0,0,1,17.1-13.5,41.92,41.92,0,0,0-.9,8.4,35.81,35.81,0,0,0,1.1,8.8,10.7,10.7,0,0,1,1.6,1.4c2.2,2.2,4.1,4.9,8.8,7.6,8.3,4.9,14,7.6,14,7.6h0s-4.1,8-8.8,8C301,304.2,297,317,297,317s3.9,26.5,31.9,26.5c10.3,0,30.7-5.7,30.7-29.5a29.69,29.69,0,0,0-15.4-26.4c2.8-.7,11.7-.3,18.8,5.5a38.09,38.09,0,0,0-33.4-19.8,19.27,19.27,0,0,0-2.4.1A52.9,52.9,0,0,1,352,233.3a77.84,77.84,0,0,0,12.5,19.1c8.7,9.8,19.8,21.8,24.6,34a83,83,0,0,0-6.9-21.3s19.5,11.4,19.5,45.8C401.8,346,372.9,382.5,329.8,382.5Z" transform="translate(0.14 0.41)"/><path class="cls-2" d="M1156.9,474.5a7,7,0,0,0,7,7h87.4a7,7,0,0,0,7-7,50.58,50.58,0,0,0-17.6-38.4l12.6-12.6a4.74,4.74,0,0,0-6.7-6.7l-13.8,13.8a50.3,50.3,0,0,0-25.3-6.7,51.62,51.62,0,0,0-25.3,6.7l-13.8-13.8a4.74,4.74,0,0,0-6.7,6.7l12.6,12.6A50.93,50.93,0,0,0,1156.9,474.5Zm71.4-19.9a7.1,7.1,0,1,1-7.1,7.1A7.13,7.13,0,0,1,1228.3,454.6Zm-41.4,0a7.1,7.1,0,1,1-7.1,7.1A7.13,7.13,0,0,1,1186.9,454.6Z" transform="translate(0.14 0.41)"/><polygon class="cls-2" points="1199.44 530.71 1216.04 530.71 1207.74 516.01 1199.44 530.71"/><path class="cls-2" d="M1251.3,489h-87.4a7,7,0,0,0-7,7v14.4a50.7,50.7,0,0,0,101.4,0V496A7.09,7.09,0,0,0,1251.3,489Zm-17.2,51.9a7.05,7.05,0,0,1-6.1,3.5h-40.8a7.05,7.05,0,0,1-6.1-3.5,6.77,6.77,0,0,1,0-7l20.4-36a7.15,7.15,0,0,1,6.1-3.6,7,7,0,0,1,6.1,3.6l20.4,36A7,7,0,0,1,1234.1,540.9Z" transform="translate(0.14 0.41)"/><path class="cls-2" d="M1038.6,433.3h-3.7a6,6,0,0,0-12,0h-65a6,6,0,0,0-12,0h-3.7a9.6,9.6,0,0,0-9.6,9.6v10.9a1.79,1.79,0,0,0,1.8,1.8h111.8a1.79,1.79,0,0,0,1.8-1.8V442.9A9.31,9.31,0,0,0,1038.6,433.3Z" transform="translate(0.14 0.41)"/><path class="cls-2" d="M1046.4,461.8H934.7a1.79,1.79,0,0,0-1.8,1.8v85a9.6,9.6,0,0,0,9.6,9.6h96.1a9.6,9.6,0,0,0,9.6-9.6v-85A1.79,1.79,0,0,0,1046.4,461.8Zm-55.9,81.8H956.9a4.8,4.8,0,1,1,0-9.6h33.6a4.8,4.8,0,0,1,0,9.6Zm33.7-19.2H956.9a4.8,4.8,0,1,1,0-9.6h67.3a4.8,4.8,0,0,1,0,9.6Zm-72.1-24a4.51,4.51,0,0,1,4.8-4.8h56.3a4.8,4.8,0,0,1,0,9.6H956.9A4.51,4.51,0,0,1,952.1,500.4Zm72.1-14.4H956.9a4.8,4.8,0,1,1,0-9.6h67.3a4.51,4.51,0,0,1,4.8,4.8A4.57,4.57,0,0,1,1024.2,486Z" transform="translate(0.14 0.41)"/><path class="cls-2" d="M369.6,127.8H356.7a1.32,1.32,0,0,1-1.3-1.3,25.57,25.57,0,1,0-26.8,26.8,1.32,1.32,0,0,1,1.3,1.3v12.9a1.24,1.24,0,0,1-1.4,1.3A41.11,41.11,0,1,1,371,126.3,1.52,1.52,0,0,1,369.6,127.8Zm29.5,0H384.8a2.73,2.73,0,0,1-2.7-2.6,52.38,52.38,0,1,0-54.9,54.9,2.74,2.74,0,0,1,2.6,2.7V197a2.78,2.78,0,0,1-2.8,2.7,72,72,0,1,1,74.8-74.8A2.74,2.74,0,0,1,399.1,127.8Z" transform="translate(0.14 0.41)"/><path class="cls-2" d="M270.4,416.3l123.2,71.1-84.8,48.9V510.8l40.5-23.4-56.9-32.8v91.2l-22.1,12.7Z" transform="translate(0.14 0.41)"/><path class="cls-2" d="M551.1,417.3h-3a71.51,71.51,0,0,0-71.4,71.4,7.6,7.6,0,0,0,7.6,7.6H542v37.9l-17.8-17.8a7.64,7.64,0,1,0-10.8,10.8l30.9,30.9h0a7.55,7.55,0,0,0,5.4,2.2,8,8,0,0,0,5.4-2.2L586,527.2a7.64,7.64,0,1,0-10.8-10.8l-17.8,17.8V496.3H615a7.6,7.6,0,0,0,7.6-7.6A71.59,71.59,0,0,0,551.1,417.3ZM492.6,481a56.11,56.11,0,0,1,55.6-48.4h3A56.26,56.26,0,0,1,606.8,481Z" transform="translate(0.14 0.41)"/><path class="cls-2" d="M1919.2,330a12.5,12.5,0,0,1-12.5,12.5,19.42,19.42,0,0,1-2.4-.2,12.65,12.65,0,0,1,.3,2.8,12.5,12.5,0,0,1-12.5,12.5,12.24,12.24,0,0,1-9.1-4,12.47,12.47,0,0,1-24.4,0,12.5,12.5,0,0,1-21.3-11.3,9.74,9.74,0,0,1-2.4.2,12.5,12.5,0,0,1-12.5-12.5v-.5h-15.8v31.1a6.81,6.81,0,0,0,6.8,6.8h114.8a6.81,6.81,0,0,0,6.8-6.8V329.5h-15.9A.9.9,0,0,1,1919.2,330Z" transform="translate(0.14 0.41)"/><path class="cls-2" d="M1922.9,269.4l9-8.9a10.44,10.44,0,0,0,.1-14.8h0a10.56,10.56,0,0,0-14.9.1l-9,8.9a64.83,64.83,0,0,0-37.3-12.1,64,64,0,0,0-37.3,12l-8.9-8.9a10.92,10.92,0,0,0-7.6-3.1h0a10.21,10.21,0,0,0-7.3,3h0a10.44,10.44,0,0,0,.1,14.8l9,8.9a64.59,64.59,0,0,0-12.2,37.5V320H1935V306.9A63.79,63.79,0,0,0,1922.9,269.4ZM1854,293.6a10.1,10.1,0,1,1-10.1-10.1,10.07,10.07,0,0,1,10.1,10.1Zm43.9,10.1h0a10.1,10.1,0,1,1,10.1-10.1A10.07,10.07,0,0,1,1897.9,303.7Z" transform="translate(0.14 0.41)"/><path class="cls-2" d="M1714.1,92.2h-60.7c-7.2-.4-21.7-15.5-30-15.5h-36.3a8,8,0,0,0-8,8h0v21.8a1.32,1.32,0,0,0,1.3,1.3h140.3a1.32,1.32,0,0,0,1.3-1.3v-6.2A7.78,7.78,0,0,0,1714.1,92.2Z" transform="translate(0.14 0.41)"/><path class="cls-2" d="M1665.3,157.8a4,4,0,1,0,4,4A4,4,0,0,0,1665.3,157.8Z" transform="translate(0.14 0.41)"/><path class="cls-2" d="M1688.4,157.8a4,4,0,1,0,4,4A4,4,0,0,0,1688.4,157.8Z" transform="translate(0.14 0.41)"/><path class="cls-2" d="M1720.8,120.7H1580.5a1.32,1.32,0,0,0-1.3,1.3v58a8,8,0,0,0,8,8h126.9a8,8,0,0,0,8-8h0V122.1A1.35,1.35,0,0,0,1720.8,120.7Zm-19.5,52.1h-48.9a3.84,3.84,0,0,1-3.9-3.9,28,28,0,0,1,9.8-21.4l-7.1-7.1a2.62,2.62,0,0,1,3.7-3.7l7.7,7.7a28.06,28.06,0,0,1,28.2,0l7.7-7.7a2.62,2.62,0,0,1,3.7,3.7l-7.1,7.1a28.31,28.31,0,0,1,9.8,21.4A3.49,3.49,0,0,1,1701.3,172.8Z" transform="translate(0.14 0.41)"/><path id="path2" class="cls-2" d="M2136.9,271.8a7.51,7.51,0,1,0-2.2,5.4,7.32,7.32,0,0,0,2.2-5.4Zm17.8-22.8c0,13.2-2,24.5-6,34.1s-10.7,19.1-20.1,28.6c-4.3,4.2-9.4,8.9-15.4,13.9l-1.6,30a3,3,0,0,1-1.3,2.1l-30.4,17.7a2.78,2.78,0,0,1-3.1-.4l-5.1-5.1a2.35,2.35,0,0,1-.6-2.5l6.7-21.9-22.2-22.3-21.9,6.7a1.48,1.48,0,0,1-.7.1,2.41,2.41,0,0,1-1.8-.7l-5.1-5.1a2.45,2.45,0,0,1-.4-3.1l17.7-30.4a3,3,0,0,1,2.1-1.3l30-1.6c5.1-6,9.7-11.2,13.9-15.4,9.9-9.9,19.4-16.7,28.3-20.4s20.3-5.6,34.1-5.6a3.16,3.16,0,0,1,2.9,2.6Z" transform="translate(0.14 0.41)"/><path class="cls-2" d="M1148,136.9h-.7v.7a62.05,62.05,0,0,0,62,62h.7v-.7A62.05,62.05,0,0,0,1148,136.9Z" transform="translate(0.14 0.41)"/><path class="cls-2" d="M1227,135.4a11,11,0,0,0-.2-1.8c.5.3.9.7,1.4,1a17,17,0,0,0,17-29.4,11.11,11.11,0,0,0-1.6-.7,11.11,11.11,0,0,0,1.6-.7,17,17,0,1,0-18.4-28.4,11,11,0,0,0,.2-1.8,17,17,0,1,0-34,0,11,11,0,0,0,.2,1.8c-.5-.3-.9-.7-1.4-1a17,17,0,1,0-17,29.4,11.11,11.11,0,0,0,1.6.7,11.11,11.11,0,0,0-1.6.7,17,17,0,1,0,18.4,28.4,11,11,0,0,0-.2,1.8,17,17,0,1,0,34,0Zm-34-30.9a17,17,0,1,1,17,17A17,17,0,0,1,1193,104.5Z" transform="translate(0.14 0.41)"/><path class="cls-2" d="M1273,137h-.7a62.05,62.05,0,0,0-62,62v.7h.7a62.05,62.05,0,0,0,62-62Z" transform="translate(0.14 0.41)"/><path class="cls-2" d="M2099.9,179.7a4.91,4.91,0,0,0-4.9-4.9h-9.8a4.91,4.91,0,0,0-4.9,4.9v11.5a9.8,9.8,0,0,0,19.6,0V179.7Z" transform="translate(0.14 0.41)"/><path class="cls-2" d="M2142.5,79.6h-26.3V73h11.5a4.91,4.91,0,0,0,4.9-4.9V61.5a4.91,4.91,0,0,0-4.9-4.9H2108a4.91,4.91,0,0,0-4.9,4.9v6.6A4.91,4.91,0,0,0,2108,73h1.6v6.6h-39.4V73h1.6a4.91,4.91,0,0,0,4.9-4.9V61.5a4.91,4.91,0,0,0-4.9-4.9h-19.7a4.91,4.91,0,0,0-4.9,4.9v6.6a4.91,4.91,0,0,0,4.9,4.9h11.5v6.6h-26.3a9.82,9.82,0,0,0-9.8,9.8v55.8a9.82,9.82,0,0,0,9.8,9.8h105a9.82,9.82,0,0,0,9.8-9.8V89.4A9.4,9.4,0,0,0,2142.5,79.6ZM2141.2,98l-51.1,27.3L2038.9,98a4.07,4.07,0,0,1,3.8-7.2L2090,116l47.3-25.2a4.09,4.09,0,0,1,3.9,7.2Z" transform="translate(0.14 0.41)"/><path class="cls-4" d="M2041.9,161.6l16.6,24.6a9.92,9.92,0,0,0,8.5,4.9h6.6V179.6a11.57,11.57,0,0,1,11.5-11.5h9.8a11.57,11.57,0,0,1,11.5,11.5v11.5h6.6a9.79,9.79,0,0,0,8.5-4.9h0l16.6-24.6Z" transform="translate(0.14 0.41)"/></svg>