<?xml version="1.0" encoding="utf-8"?>
<!-- Generator: Adobe Illustrator 24.2.1, SVG Export Plug-In . SVG Version: 6.00 Build 0)  -->
<svg version="1.1" id="Layer_1" xmlns="http://www.w3.org/2000/svg" xmlns:xlink="http://www.w3.org/1999/xlink" x="0px" y="0px"
	 viewBox="0 0 2200 616" style="enable-background:new 0 0 2200 616;" xml:space="preserve">
<style type="text/css">
	.st0{fill:#FFFFFF;}
	.st1{fill:none;}
	.st2{fill-rule:evenodd;clip-rule:evenodd;fill:#FFFFFF;}
</style>
<g id="Layer_1_1_">
	
		<image style="overflow:visible;enable-background:new    ;" width="5166" height="1448" xlink:href="45EF7095.png"  transform="matrix(0.43 0 0 0.43 -0.14 -0.41)">
	</image>
</g>
<g>
	<g>
		<path class="st0" d="M962.7,275.7h-44V298h40.1v18h-40.1v45.2h-20.5V257.6h64.5V275.7z"/>
		<path class="st0" d="M1050.9,305c-2.2-2-4.8-3.6-7.8-4.6c-3-1-6.3-1.5-9.8-1.5c-4.3,0-8.1,0.8-11.3,2.3c-3.2,1.5-5.7,3.7-7.5,6.6
			c-1.1,1.8-1.9,3.9-2.3,6.4c-0.4,2.5-0.7,6.3-0.7,11.4v35.8h-20.3v-77.7h20.3v12.1c2-4.4,5-7.9,9.2-10.3c4.1-2.4,8.9-3.6,14.4-3.6
			c2.8,0,5.5,0.3,8.2,1c2.7,0.7,5.2,1.7,7.6,2.9V305z"/>
		<path class="st0" d="M1063.4,322.4c0-12.5,3.2-22.5,9.7-29.8c6.5-7.3,15.2-11,26.2-11c11,0,19.8,3.7,26.3,11
			c6.5,7.3,9.7,17.3,9.7,29.8c0,12.5-3.2,22.5-9.7,29.8c-6.5,7.3-15.3,11-26.3,11c-11,0-19.7-3.7-26.2-11
			C1066.7,344.9,1063.4,335,1063.4,322.4z M1099.4,298.2c-4.9,0-8.7,2.1-11.4,6.4c-2.8,4.3-4.2,10.2-4.2,17.9s1.4,13.6,4.2,17.9
			c2.8,4.3,6.6,6.4,11.4,6.4c4.9,0,8.7-2.1,11.5-6.4c2.8-4.3,4.2-10.2,4.2-17.9s-1.4-13.6-4.2-17.9
			C1108.1,300.3,1104.3,298.2,1099.4,298.2z"/>
		<path class="st0" d="M1210.9,285.9v17.8c-3.7-2.4-7.6-4.2-11.7-5.4c-4-1.2-8.1-1.8-12.2-1.8c-4.5,0-8,0.7-10.3,2
			c-2.3,1.3-3.5,3.3-3.5,5.9c0,3.7,4.9,6.7,14.8,9l0.8,0.2l5.8,1.4c7.4,1.8,12.8,4.6,16.3,8.5c3.4,3.9,5.2,9.2,5.2,15.9
			c0,8-2.6,14-7.9,18c-5.2,4-13.1,6-23.7,6c-4.7,0-9.5-0.4-14.4-1.2c-4.9-0.8-9.9-2-14.9-3.6v-17.8c4.5,2.5,9.1,4.5,13.7,5.8
			c4.6,1.3,9.1,2,13.5,2c4.8,0,8.4-0.7,10.8-2.1c2.5-1.4,3.7-3.4,3.7-6c0-2.6-0.9-4.6-2.6-6c-1.7-1.4-5.9-2.9-12.4-4.4l-5.6-1.2
			c-7.8-1.8-13.4-4.5-17-8.3c-3.6-3.7-5.3-8.8-5.3-15.1c0-7.5,2.7-13.3,8.1-17.5c5.4-4.2,13-6.2,22.8-6.2c4.4,0,8.8,0.4,13.1,1.1
			C1202.5,283.4,1206.8,284.5,1210.9,285.9z"/>
		<path class="st0" d="M1275.5,261.5v22.1h26.6v15.6h-26.6v36.8c0,3.5,0.8,6,2.5,7.5c1.7,1.5,4.5,2.3,8.4,2.3h15.6v15.6h-17.1
			c-11.7,0-19.5-1.9-23.7-5.6c-4.1-3.7-6.2-10.6-6.2-20.7v-35.8h-19.8v-15.6h19.8v-22.1H1275.5z"/>
	</g>
	<path class="st0" d="M1910.1,133.3v-56h-39.2v99.5c6.9-3.7,13.2-7.7,18.6-12C1903.2,154.1,1910.1,143.6,1910.1,133.3L1910.1,133.3z
		 M1926.9,66.1v67.2c0,5-1,10-2.9,14.9c-2,4.9-4.4,9.3-7.3,13.1c-2.9,3.8-6.3,7.5-10.3,11.2c-4,3.6-7.7,6.6-11.1,9
		c-3.4,2.4-6.9,4.7-10.6,6.8c-3.7,2.1-6.3,3.6-7.8,4.3c-1.5,0.8-2.8,1.3-3.7,1.7c-0.7,0.3-1.5,0.5-2.3,0.5c-0.8,0-1.6-0.2-2.3-0.5
		c-0.9-0.4-2.2-1-3.7-1.7c-1.5-0.8-4.2-2.2-7.8-4.3c-3.7-2.1-7.2-4.4-10.6-6.8c-3.4-2.4-7.1-5.4-11.1-9c-4-3.6-7.4-7.3-10.3-11.2
		c-2.9-3.8-5.3-8.2-7.3-13.1c-2-4.9-2.9-9.9-2.9-14.9V66.1c0-1.5,0.6-2.8,1.7-3.9c1.1-1.1,2.4-1.7,3.9-1.7h100.8
		c1.5,0,2.8,0.6,3.9,1.7C1926.3,63.3,1926.9,64.6,1926.9,66.1L1926.9,66.1z"/>
	<path class="st0" d="M491.1,59.9c-3.6,0-6.5,4.4-6.5,10v114.5c0,5.5,2.9,10,6.5,10h116.5c3.6,0,6.5-4.4,6.5-10V69.8
		c0-5.5-2.9-10-6.5-10H491.1z M521.1,70.3c4.8,0,8.7,3.9,8.7,8.7c0,4.8-3.9,8.7-8.7,8.7c-4.8,0-8.7-3.9-8.7-8.7c0,0,0,0,0,0
		C512.4,74.2,516.3,70.3,521.1,70.3C521.1,70.3,521.1,70.3,521.1,70.3L521.1,70.3z M577.7,70.3c4.8,0,8.7,3.9,8.7,8.7c0,0,0,0,0,0
		c0,4.8-3.9,8.7-8.7,8.7l0,0c-4.8,0-8.7-3.9-8.7-8.7C569,74.2,572.9,70.3,577.7,70.3L577.7,70.3L577.7,70.3z M519.6,112.7
		c7.4,0,13,1.2,16.7,3.7c3.7,2.4,5.6,6.1,5.6,11c0,3.4-0.9,6.1-2.7,8.3c-1.8,2.1-4.4,3.6-7.8,4.5c3.9,1,6.8,2.7,8.8,5.2
		c2,2.5,3,5.6,3,9.4c0,5.7-2.2,10-6.5,13c-4.4,2.9-10.7,4.4-19.1,4.4c-3,0-5.9-0.2-8.9-0.7c-3-0.5-5.9-1.2-8.8-2.1v-11.4
		c2.8,1.4,5.5,2.4,8.2,3.2c2.7,0.7,5.4,1,8.1,1c3.9,0,6.9-0.7,9-2c2.1-1.4,3.2-3.3,3.2-5.8c0-2.6-1.1-4.6-3.2-5.9
		c-2.1-1.4-5.3-2-9.5-2h-5.9v-9.5h6.2c3.7,0,6.5-0.6,8.3-1.7c1.8-1.2,2.7-3,2.7-5.3c0-2.2-0.9-3.9-2.6-5.1c-1.8-1.2-4.3-1.8-7.5-1.8
		c-2.4,0-4.8,0.3-7.2,0.8c-2.4,0.5-4.8,1.3-7.3,2.4v-10.8c2.8-0.8,5.8-1.4,8.7-1.8C513.9,112.9,516.8,112.7,519.6,112.7L519.6,112.7
		z M571.7,113.7h14.1v47.2h13.1v10.2h-40.1v-10.2h13.1v-37.1l-13.4,2.8v-10.1L571.7,113.7L571.7,113.7z"/>
	<path class="st0" d="M1856.5,439.8l-9.5,9.8c0,0-25.5,0-37.1,0c-3.4,0-6.2,2.8-6.2,6.2v80c0,3.4,2.8,6.2,6.2,6.2h122
		c3.4,0,6.2-2.8,6.2-6.2v-80c0-3.4-2.8-6.2-6.2-6.2h-37.1l-9.5-9.8H1856.5z M1921.7,459.6c8.8-0.4,8.8,13,0,12.7
		C1913.6,471.9,1913.6,459.9,1921.7,459.6z M1870.9,470.6c16.2,0,29.3,13.1,29.3,29.3c0,16.2-13.1,29.3-29.3,29.3
		c-16.2,0-29.3-13.1-29.3-29.3C1841.6,483.7,1854.7,470.6,1870.9,470.6L1870.9,470.6z"/>
	<path class="st0" d="M1391.1,60.3c-3.9,0-7.1,3.2-7.1,7.1v3.4h-11.1c-5.4,0-9.7,4.1-9.7,9.1v105.6c0,5,4.3,9.1,9.7,9.1h72.1
		c5.4,0,9.7-4.1,9.7-9.1v-7h33.7c5,0,9.1-4.3,9.1-9.7V96.7c0-5.4-4.1-9.7-9.1-9.7h-33.7v-7c0-5-4.3-9.1-9.7-9.1h-11.3v-3.4
		c0-3.9-3.2-7.1-7.1-7.1L1391.1,60.3L1391.1,60.3z M1412.6,99h10.9v10.9h-10.9V99z M1433.7,99h10.9v10.9h-10.9V99z M1455,99h10.9
		v10.9H1455C1455,109.9,1455,99,1455,99z M1476.2,99h10.9v10.9h-10.9V99z M1412.6,155.6h10.9v10.9h-10.9V155.6z M1433.7,155.6h10.9
		v10.9h-10.9V155.6z M1455,155.6h10.9v10.9H1455V155.6z M1476.2,155.6h10.9v10.9h-10.9V155.6z"/>
	<g>
		<path class="st0" d="M750.9,64.9c5.1,5.1,8,12,8,19.2c0,15-12.2,27.2-27.2,27.2c-7.2,0-14.1-2.9-19.2-8v76.8
			c0,10.6,8.6,19.2,19.2,19.2s19.2-8.6,19.2-19.2v-21.2l-2.9-4.2c-3.2-4.6-4.9-10-4.9-15.6c0-15,12.2-27.2,27.2-27.2
			c8.9,0,17.2,4.3,22.3,11.6l14.9,21.3c7.9-8.8,12.2-20.1,12.3-31.9c0-26.5-21.5-48-48-48L750.9,64.9z"/>
		<path class="st0" d="M770.2,119.9c-10.6,0-19.2,8.6-19.2,19.2c0,3.9,1.2,7.8,3.5,11l28.7,41c3.6,5.1,9.4,8.1,15.7,8.2
			c10.6,0,19.2-8.6,19.2-19.2c0-3.9-1.2-7.7-3.5-11l-28.7-41C782.3,123,776.5,119.9,770.2,119.9L770.2,119.9z"/>
		<circle class="st0" cx="731.7" cy="84.1" r="19.2"/>
	</g>
	<g>
		<path class="st0" d="M1650.7,416.3c-39.8,0-72,32.2-72,72s32.2,72,72,72s72-32.2,72-72S1690.4,416.3,1650.7,416.3z M1650.7,547.1
			c-32.5,0-58.9-26.4-58.9-58.9s26.4-58.9,58.9-58.9c32.5,0,58.9,26.4,58.9,58.9S1683.2,547.1,1650.7,547.1z"/>
		<path class="st0" d="M1627.5,463.7l13.6-8l4.2-7.8l-6.8-7.4h0c-16.4,4.2-29.5,16.6-34.7,32.8l18.4,8l-13,6.8l3.8,31.7
			c2.2,2.7,4.8,5.1,7.5,7.2l25.3-38.3l-23.6-7.5L1627.5,463.7z"/>
		<path class="st0" d="M1672.6,444.2l-8.2,13.2l23.9-0.9C1684,451.4,1678.6,447.2,1672.6,444.2z"/>
		<path class="st0" d="M1660.1,474.2l3.8,18.6l16.4,4.7l2.5,28c10.8-9.3,17-22.9,17.1-37.2c0-10-3.1-19.8-8.8-28L1660.1,474.2z"/>
	</g>
	<path class="st0" d="M1430.5,416.3c-39.8,0-72,32.2-72,72s32.2,72,72,72s72-32.2,72-72S1470.2,416.3,1430.5,416.3z M1430.5,471.5
		c9.2,0,16.7,7.5,16.7,16.7c0,9.2-7.5,16.7-16.7,16.7V471.5z M1430.5,516.1c15.4,0,27.9-12.5,27.9-27.9c0-15.4-12.5-27.9-27.9-27.9
		v-10.9c21.4,0,38.8,17.4,38.8,38.8c0,21.4-17.4,38.8-38.8,38.8V516.1z M1430.5,549.1v-10.9c27.6,0,49.9-22.4,49.9-49.9
		c0-27.6-22.4-49.9-49.9-49.9v-10.9c33.6,0,60.8,27.2,60.8,60.8C1491.3,521.8,1464,549.1,1430.5,549.1z"/>
	<path class="st0" d="M769.9,420.2c-3.4,0-6.7,0.3-9.4,0.7c-24.2,5.1-42.1,27.6-43.4,41.8c-0.3,2.4-0.3,5.4-0.7,8.4v21.5l51.4,32.8
		c1.5,1,3.5,1,5.1,0.2l51-32.7c0.1-3.6,0.6-26.1,0.3-29.9c-1.3-14.5-16.8-37-44.1-42.1C777.3,420.5,773.6,420.2,769.9,420.2
		L769.9,420.2z M769.9,441.7c3.7-0.3,8.8,1,8.8,1c19.2,5.4,21.2,16.8,21.9,19.9v1.3v16.2h-61v-17.5c0-0.7,0-1.3,0.3-2
		C748,442.7,769.9,441.7,769.9,441.7L769.9,441.7z M716.3,504.5v43.3c0,3.7,3,6.7,6.7,6.7h94.3c3.4,0,6.1-2.4,6.7-5.4v-44.5
		l-50.9,32.7c-1.7,1.1-3.8,1.1-5.4,0L716.3,504.5L716.3,504.5z"/>
	<path class="st0" d="M549.6,236.6c-39.8,0-72,32.2-72,72s32.2,72,72,72s72-32.2,72-72S589.4,236.6,549.6,236.6z M533.3,262.5
		c1.8,0.1,3.7,0.7,5.9,1.8c24.7,13.1,41.6,30,54.7,54.7c4,7.6,0.8,13-3,14.7c-3.8,1.7-11.1,1.5-13.5-3.1
		c-11.3-21.2-28.6-38.5-49.7-49.7c-4.6-2.5-4.8-9.7-3.1-13.5c1-2.4,3.6-4.5,7.2-4.8C532.1,262.5,532.7,262.5,533.3,262.5z
		 M520.1,291.9c1.2-0.1,2.4,0.2,3.3,0.8c17.7,9.8,32.3,24.4,42.1,42.1c1.4,2.5,1.1,6.8-2.8,8.6c-4,1.9-7.8,0.1-9-2.1
		c-8.6-15.5-21.3-28.2-36.8-36.8c-2.2-1.2-4-5-2.1-9C516,293,518.1,292,520.1,291.9z M510.3,316.9c0.9,0,1.8,0.3,2.5,0.7
		c11.4,6.8,20.9,16.3,27.7,27.7c1.2,2,1.1,5-1.5,6.4c-2.6,1.4-5.9,0.4-6.9-1.3c-6-10-14.4-18.4-24.3-24.3c-1.7-1-2.7-4.3-1.3-6.9
		C507.3,317.6,508.8,316.9,510.3,316.9z"/>
	<path class="st0" d="M713.8,249.4c-3.5,0-6.3,2.8-6.3,6.3v107.9c0,3.5,2.8,6.3,6.3,6.3h26.8c-1.2-6.2-1.6-12-1.1-17.5
		c1.4-16.1,10.2-27.9,20.6-35.3c4.6-3.3,9.5-5.9,14.3-7.9c1.4-0.6,2.7-1.1,4.1-1.6l4.1-1.4l0,0c1.6-12.6,12.4-22.3,25.5-22.3
		c14.3,0,25.7,11.5,25.7,25.7c0,14.3-11.5,25.7-25.7,25.7c-9.6,0-17.9-5.2-22.3-13l-0.5,0.1l-3.4,1.1c-1.2,0.5-2.5,1-3.7,1.6
		c-3.1,1.4-6.1,3.1-8.8,5c-7.6,5.5-13,12.4-13.9,23.6c-0.4,4.5,0.1,9.9,1.7,16.1h64.6c3.5,0,6.3-2.8,6.3-6.3v-26.8
		c8.3-6.2,13.8-16,13.8-27.2c0-11.1-5.5-21-13.8-27.2v-26.8c0-3.5-2.8-6.3-6.3-6.3L713.8,249.4z"/>
	<path class="st0" d="M110,415.4l-21.1,21.1H59.1v29.8L38,487.3l21.1,21.1v29.8h29.8l21.1,21.1l21.1-21.1h29.8v-29.8l21.1-21.1
		l-21.1-21.1v-29.8h-29.8L110,415.4z M110,435v13.1h0c14,0,27,7.5,34,19.6c7,12.1,7,27.1,0,39.3l-8.5-4.9c2.6-4.5,4-9.5,4-14.7
		c0-16.3-13.2-29.4-29.4-29.4V471l-18-18L110,435L110,435z M76,467.7l8.5,4.9c-2.6,4.5-4,9.5-4,14.7c0,16.3,13.2,29.4,29.4,29.4
		v-13.1l18,18l-18,18v-13.1c-14,0-27-7.5-34-19.6C69,494.8,69,479.9,76,467.7L76,467.7z"/>
	<path class="st0" d="M110,236.6c-39.8,0-72,32.2-72,72c0,0,0,0,0,0c0,39.8,32.2,72,72,72c0,0,0,0,0,0c11.1,0,22-2.6,31.9-7.6
		c4.1-1.6,7.5-2.5,9.6-2.6c12.1-0.9,20.6,4.9,30.5,10.2c-5.3-9.9-11.1-18.4-10.2-30.5c0.1-2,1-5.1,2.4-8.9v0
		c5.1-10.1,7.8-21.3,7.8-32.6C182,268.8,149.7,236.6,110,236.6z M110,259c27.4,0,49.5,22.2,49.5,49.6l0,0c0,7.8-1.8,15.5-5.4,22.5v0
		c-1,2.6-1.5,4.7-1.6,6.1c-0.6,8.3,3.4,14.2,7,21c-6.8-3.6-12.7-7.6-21-7c-1.4,0.1-3.7,0.7-6.6,1.8c-6.8,3.4-14.4,5.2-22,5.2
		c-27.4,0-49.6-22.2-49.6-49.5c0,0,0,0,0,0C60.4,281.2,82.6,259,110,259C110,259,110,259,110,259z"/>
	<path class="st0" d="M2090,416.3c-39.9,0-72,32.2-72,72c0,12.5,3.2,24.3,8.9,34.7l-8.9,37.3l37.3-8.9c10.3,5.6,22.1,8.9,34.7,8.9
		c39.9,0,72-32.2,72-72S2129.8,416.3,2090,416.3z M2054,449h19.6c1.6,0,3.3,1.6,3.3,3.3c0,3.3,0,6.5,2.2,13.1
		c1.1,3.3,1.1,4.9-2.2,8.2l-6.9,6.9c3.4,6.4,6.9,11.1,11.8,16c4.9,4.9,9.7,8.4,16,11.8l6.9-6.9c3.3-3.3,4.9-3.3,8.2-2.2
		c6.5,2.2,9.8,2.2,13.1,2.2c1.6,0,3.3,1.6,3.3,3.3v19.6c0,1.6-1.6,3.3-3.3,3.3c-19.6-0.8-38.3-9-52.4-22.9
		c-13.9-13.9-22.1-32.7-22.9-52.4C2050.8,450.6,2052.4,449,2054,449z"/>
	<g>
		<path class="st0" d="M1042.9,92.8c2.1,1.1,4.7,0.6,6.2-1.2l4.1-6.5c1.2-2.1,0.7-4.7-1.2-6.2l-33.8-21.8c-2.1-1.1-4.7-0.7-6.2,1.2
			l-4.1,6.5c-1.1,2.1-0.7,4.7,1.2,6.2l3,2.1l-5.9,9.4c-5.5-1.5-11.1-2.3-16.8-2.4c-34.9,0-63.2,28.3-63.2,63.3s28.3,63.2,63.3,63.2
			c34.9,0,63.2-28.3,63.2-63.3c0-16.8-6.7-32.8-18.5-44.7l5.3-8L1042.9,92.8z M1040,143.4c0,4.9-0.7,9.8-2.1,14.5
			c-5.7,2.7-11.9,4.1-18.2,4.1c-10.6-0.2-20.8-4.2-28.8-11.2c-4.2-3.6-8.8-6.8-13.6-9.4c-11.1-6.3-23.6-9.7-36.3-10
			c6.6-27,33.8-43.5,60.7-36.9C1024.2,99.9,1040.1,120.2,1040,143.4z"/>
	</g>
	<g>
		<path class="st0" d="M1427,372.2c-3.4,0-6.8-0.3-10.2-0.8l1-6.4c3,0.5,6.1,0.7,9.2,0.7c3.1,0,6.3-0.2,9.4-0.7l1,6.4
			C1434,371.9,1430.5,372.2,1427,372.2z M1443,370.3l-1.5-6.3c6.1-1.5,11.9-3.9,17.2-7.1l3.3,5.5
			C1456.1,366,1449.7,368.7,1443,370.3z M1466.8,359.2l-3.8-5.2c5-3.7,9.4-8.1,13.1-13.2l5.2,3.8
			C1477.2,350.3,1472.3,355.2,1466.8,359.2z M1484.4,340c0,0,0-0.1,0.1-0.1l-5.5-3.3c0,0,0,0,0-0.1c3.2-5.4,5.6-11.1,7.1-17.1
			l6.3,1.5C1490.7,327.6,1488.1,334,1484.4,340L1484.4,340z M1493.5,315.3l-6.4-1c0.5-3,0.7-6.1,0.7-9.2c0-3.1-0.2-6.3-0.7-9.4
			l6.4-1c0.5,3.4,0.8,6.9,0.8,10.4C1494.3,308.5,1494,311.9,1493.5,315.3z M1360.7,315.3c-0.5-3.4-0.8-6.9-0.8-10.3
			c0-3.4,0.3-6.9,0.8-10.3l6.4,1c-0.5,3.1-0.7,6.2-0.7,9.3c0,3.1,0.2,6.2,0.7,9.3L1360.7,315.3z M1486.1,290.6
			c-1.5-6.1-3.9-11.9-7.1-17.2l5.5-3.3c3.6,5.9,6.2,12.3,7.9,19L1486.1,290.6z M1368.1,290.6l-6.3-1.5c1.6-6.7,4.3-13,7.9-18.9
			l0-0.1l5.5,3.4l0,0C1371.9,278.9,1369.5,284.6,1368.1,290.6z M1476.1,269.2c-3.7-5-8.1-9.4-13.1-13.1l3.8-5.2
			c5.6,4.1,10.5,9,14.6,14.5L1476.1,269.2z M1378.1,269.1l-5.2-3.8c4.1-5.6,9-10.5,14.5-14.5l3.8,5.2
			C1386.2,259.7,1381.8,264.1,1378.1,269.1z M1458.6,253.1L1458.6,253.1c-5.4-3.3-11.1-5.7-17.2-7.1l1.5-6.3c6.7,1.6,13,4.3,19,7.9
			l0,0L1458.6,253.1z M1395.5,253.1l-3.3-5.5c5.9-3.6,12.3-6.2,19-7.9l1.5,6.3C1406.6,247.5,1400.8,249.9,1395.5,253.1z M1417.8,245
			l-1-6.4c3.4-0.5,6.9-0.8,10.3-0.8c3.4,0,6.9,0.3,10.2,0.8l-1,6.4c-3-0.5-6.2-0.7-9.2-0.7C1424,244.3,1420.9,244.5,1417.8,245z"/>
		<g>
			<g>
				<path class="st0" d="M1411,370.3c-5.5-1.3-10.7-3.4-15.7-6l-7,1.6l-1.4-6.3l9.4-2.1l1.1,0.6c4.8,2.7,9.9,4.7,15.2,6L1411,370.3z
					"/>
			</g>
			<g>
				<path class="st0" d="M1372.6,345.2l-6.3-1.5l1.6-6.9c-2.7-5-4.7-10.2-6.1-15.7l6.3-1.5c1.3,5.3,3.3,10.4,6,15.2l0.6,1.1
					L1372.6,345.2z"/>
			</g>
		</g>
		<g>
			<g>
				<path class="st0" d="M1362.1,361.8l3-12.7l6.3,1.5l-3.1,13.3l13.3-3l1.4,6.3l-12.7,2.9C1365.3,371.1,1361,366.7,1362.1,361.8z"
					/>
			</g>
		</g>
		<path class="st0" d="M1427,250.1c-30.3,0-54.8,24.5-54.8,54.8c0,10.8,3.1,20.9,8.6,29.4l-5.2,22.2l22.3-5.1
			c8.4,5.3,18.4,8.3,29.1,8.3c30.3,0,54.8-24.5,54.8-54.8C1481.8,274.6,1457.3,250.1,1427,250.1z"/>
	</g>
	<g>
		<path class="st0" d="M1684.9,263.7c-3.9,0-7.1,3.2-7.1,7.1c0,3.9,3.2,7.1,7.1,7.1c3.9,0,7.1-3.2,7.1-7.1
			S1688.8,263.7,1684.9,263.7L1684.9,263.7z"/>
		<path class="st0" d="M1699.8,354.2h-98.4v-98.4h98.4V354.2z M1704.6,244.7h-107.9c-3.5,0-6.3,2.8-6.3,6.3V359
			c0,3.5,2.8,6.3,6.3,6.3h107.9c3.5,0,6.3-2.8,6.3-6.3V251.1C1711,247.6,1708.1,244.7,1704.6,244.7L1704.6,244.7z"/>
		<g>
			<polygon class="st0" points="1650.7,274.1 1650.7,274.1 1650.7,274.1 			"/>
			<path class="st0" d="M1650.7,274.1c-17.1,0-31,13.9-31,31s13.9,31,31,31s31-13.9,31-31S1667.8,274.1,1650.7,274.1z M1650.7,324.9
				c-11,0-19.9-8.9-19.9-19.9c0-11,8.9-19.9,19.9-19.9c11,0,19.9,8.9,19.9,19.9C1670.5,316,1661.6,324.9,1650.7,324.9z"/>
		</g>
		<line class="st1" x1="1590.4" y1="325.6" x2="1601.5" y2="325.6"/>
	</g>
	<g>
		<path class="st0" d="M163,65H55.1c-3.5,0-6.3,2.8-6.3,6.3v107.9c0,3.5,2.8,6.3,6.3,6.3h59.5H141l-3.6-12.6l32,25.3v-37.9v-89
			C169.3,67.8,166.5,65,163,65z M128.2,154.2c0,0-2.5-3-4.5-5.6c9-2.5,12.5-8.2,12.5-8.2c-2.8,1.9-5.5,3.2-7.9,4.1
			c-3.4,1.4-6.8,2.4-10,3c-6.6,1.2-12.7,0.9-17.8-0.1c-3.9-0.8-7.3-1.9-10.1-3c-1.6-0.6-3.3-1.4-5-2.3c-0.2-0.1-0.4-0.2-0.6-0.3
			c-0.1-0.1-0.2-0.1-0.3-0.2c-1.2-0.7-1.9-1.2-1.9-1.2s3.3,5.5,12.1,8.1c-2.1,2.6-4.6,5.7-4.6,5.7c-15.2-0.5-21-10.5-21-10.5
			c0-22.2,9.9-40.2,9.9-40.2c9.9-7.4,19.4-7.2,19.4-7.2l0.7,0.8c-12.4,3.6-18.1,9-18.1,9s1.5-0.8,4.1-2c7.4-3.2,13.2-4.1,15.6-4.3
			c0.4-0.1,0.8-0.1,1.2-0.1c4.2-0.6,9-0.7,13.9-0.1c6.5,0.8,13.6,2.7,20.7,6.6c0,0-5.4-5.2-17.2-8.8l1-1.1c0,0,9.4-0.2,19.4,7.2
			c0,0,9.9,18,9.9,40.2C149.3,143.7,143.4,153.7,128.2,154.2z"/>
		<path class="st0" d="M96.4,122c-3.9,0-7,3.4-7,7.6c0,4.2,3.2,7.6,7,7.6c3.9,0,7-3.4,7-7.6C103.5,125.5,100.4,122,96.4,122z"/>
		<ellipse class="st0" cx="121.6" cy="129.7" rx="7" ry="7.6"/>
	</g>
	<path class="st0" d="M329.8,382.5c-17.9,0-72-12.3-72-74.7c0-34.7,27.3-50.2,27.3-50.2c-0.3,11.7,2.5,18.3,2.5,18.3
		c0.1,0,0.1,0,0.2,0c2.8-3.3,8.5-8.9,17.1-13.5c0,0-0.9,3.9-0.9,8.4c0,3.8,0.6,6.8,1.1,8.8c0.6,0.4,1.1,0.9,1.6,1.4
		c2.2,2.2,4.1,4.9,8.8,7.6c8.3,4.9,14,7.6,14,7.6s0,0,0,0l0,0c0,0-4.1,8-8.8,8c-19.7,0-23.7,12.8-23.7,12.8s3.9,26.5,31.9,26.5
		c10.3,0,30.7-5.7,30.7-29.5c0-19-15.4-26.4-15.4-26.4c2.8-0.7,11.7-0.3,18.8,5.5c-6.5-11.8-19-19.8-33.4-19.8c-0.8,0-1.6,0-2.4,0.1
		c2.6-28,24.8-40.1,24.8-40.1s4,9.5,12.5,19.1c8.7,9.8,19.8,21.8,24.6,34c-1.8-11.2-6.9-21.3-6.9-21.3s19.5,11.4,19.5,45.8
		C401.8,346,372.9,382.5,329.8,382.5z"/>
	<g>
		<path class="st0" d="M1156.9,474.5c0,3.9,3.1,7,7,7h87.4c3.9,0,7-3.1,7-7c0-15.3-6.8-29.1-17.6-38.4l12.6-12.6
			c1.9-1.9,1.9-4.9,0-6.7c-1.9-1.9-4.9-1.9-6.7,0l-13.8,13.8c-7.4-4.3-16.1-6.7-25.3-6.7c-9.2,0-17.8,2.5-25.3,6.7l-13.8-13.8
			c-1.9-1.9-4.9-1.9-6.7,0c-1.9,1.9-1.9,4.9,0,6.7l12.6,12.6C1163.7,445.4,1156.9,459.1,1156.9,474.5z M1228.3,454.6
			c3.9,0,7.1,3.2,7.1,7.1c0,3.9-3.2,7.1-7.1,7.1c-3.9,0-7.1-3.2-7.1-7.1C1221.2,457.8,1224.4,454.6,1228.3,454.6z M1186.9,454.6
			c3.9,0,7.1,3.2,7.1,7.1c0,3.9-3.2,7.1-7.1,7.1c-3.9,0-7.1-3.2-7.1-7.1C1179.8,457.8,1183,454.6,1186.9,454.6z"/>
		<polygon class="st0" points="1199.3,530.3 1215.9,530.3 1207.6,515.6 		"/>
		<path class="st0" d="M1251.3,489h-87.4c-3.9,0-7,3.1-7,7v14.4c0,28,22.7,50.7,50.7,50.7c28,0,50.7-22.7,50.7-50.7V496
			C1258.3,492.2,1255.1,489,1251.3,489z M1234.1,540.9c-1.3,2.2-3.6,3.5-6.1,3.5h-40.8c-2.5,0-4.8-1.3-6.1-3.5c-1.3-2.2-1.3-4.8,0-7
			l20.4-36c1.3-2.2,3.6-3.6,6.1-3.6c2.5,0,4.9,1.4,6.1,3.6l20.4,36C1235.4,536.1,1235.3,538.7,1234.1,540.9z"/>
	</g>
	<g>
		<path class="st0" d="M1038.6,433.3h-3.7c0-3.2-2.7-5.8-6-5.8c-3.3,0-6,2.6-6,5.8h-65c0-3.2-2.7-5.8-6-5.8c-3.3,0-6,2.6-6,5.8h-3.7
			c-5.3,0-9.6,4.3-9.6,9.6v10.9c0,1,0.8,1.8,1.8,1.8h111.8c1,0,1.8-0.8,1.8-1.8v-10.9C1048.2,437.6,1043.9,433.3,1038.6,433.3z"/>
		<path class="st0" d="M1046.4,461.8H934.7c-1,0-1.8,0.8-1.8,1.8v85c0,5.3,4.3,9.6,9.6,9.6h96.1c5.3,0,9.6-4.3,9.6-9.6v-85
			C1048.2,462.6,1047.4,461.8,1046.4,461.8z M990.5,543.6h-33.6c-2.9,0-4.8-1.9-4.8-4.8s1.9-4.8,4.8-4.8h33.6c2.9,0,4.8,1.9,4.8,4.8
			S993.4,543.6,990.5,543.6z M1024.2,524.4h-67.3c-2.9,0-4.8-1.9-4.8-4.8c0-2.9,1.9-4.8,4.8-4.8h67.3c2.9,0,4.8,1.9,4.8,4.8
			C1029,522.5,1027.1,524.4,1024.2,524.4z M952.1,500.4c0-2.9,1.9-4.8,4.8-4.8h56.3c2.9,0,4.8,1.9,4.8,4.8c0,2.9-1.9,4.8-4.8,4.8
			h-56.3C954,505.2,952.1,503.3,952.1,500.4z M1024.2,486h-67.3c-2.9,0-4.8-1.9-4.8-4.8c0-2.9,1.9-4.8,4.8-4.8h67.3
			c2.9,0,4.8,1.9,4.8,4.8C1029,484,1027.1,486,1024.2,486z"/>
	</g>
	<path class="st0" d="M369.6,127.8h-12.9c-0.7,0-1.3-0.6-1.3-1.3c-0.7-13.6-12-24.5-25.9-24.3c-13.7,0.2-25,11.4-25.2,25.2
		c-0.2,13.8,10.6,25.2,24.3,25.9c0.7,0,1.3,0.6,1.3,1.3v12.9c0,0.8-0.6,1.4-1.4,1.3c-22.1-0.7-39.7-18.8-39.7-41.1
		c0-22.7,18.4-41.1,41.1-41.1c22.2,0,40.4,17.7,41.1,39.7C371,127.1,370.3,127.8,369.6,127.8z M399.1,127.8h-14.3
		c-1.4,0-2.6-1.1-2.7-2.6c-1.3-27.7-24.3-49.8-52.3-49.8c-29,0-52.4,23.4-52.4,52.4c0,28.1,22.1,51,49.8,52.3
		c1.4,0.1,2.6,1.2,2.6,2.7V197c0,1.5-1.3,2.7-2.8,2.7c-38.5-1.5-69.2-33.1-69.2-72c0-39.7,32.3-72,72-72c38.8,0,70.5,30.7,72,69.2
		C401.9,126.5,400.6,127.8,399.1,127.8z"/>
	<path class="st0" d="M270.4,416.3l123.2,71.1l-84.8,48.9v-25.5l40.5-23.4l-56.9-32.8v91.2l-22.1,12.7L270.4,416.3z"/>
	<path class="st0" d="M551.1,417.3h-3c-39.3,0-71.4,32-71.4,71.4c0,4.2,3.4,7.6,7.6,7.6H542v37.9l-17.8-17.8c-3-3-7.8-3-10.8,0
		c-3,3-3,7.8,0,10.8l30.9,30.9l0,0c1.4,1.4,3.3,2.2,5.4,2.2c2.1,0,4-0.9,5.4-2.2l30.9-30.9c3-3,3-7.8,0-10.8c-3-3-7.8-3-10.8,0
		l-17.8,17.8v-37.9h57.6c4.2,0,7.6-3.4,7.6-7.6C622.5,449.3,590.5,417.3,551.1,417.3z M492.6,481c3.7-27.3,27.2-48.4,55.6-48.4h3
		c28.3,0,51.8,21.1,55.6,48.4H492.6z"/>
	<g>
		<path class="st0" d="M1919.2,330c0,6.9-5.6,12.5-12.5,12.5c-0.8,0-1.6-0.1-2.4-0.2c0.2,0.9,0.3,1.8,0.3,2.8
			c0,6.9-5.6,12.5-12.5,12.5c-3.6,0-6.8-1.5-9.1-4c-1.2,5.6-6.2,9.9-12.2,9.9c-6,0-11-4.2-12.2-9.9c-2.3,2.4-5.5,4-9.1,4
			c-6.9,0-12.5-5.6-12.5-12.5c0-1,0.1-1.9,0.3-2.8c-0.8,0.2-1.6,0.2-2.4,0.2c-6.9,0-12.5-5.6-12.5-12.5c0-0.2,0-0.3,0-0.5h-15.8
			v31.1c0,3.7,3,6.8,6.8,6.8h114.8c3.7,0,6.8-3,6.8-6.8v-31.1h-15.9C1919.2,329.7,1919.2,329.8,1919.2,330z"/>
		<path class="st0" d="M1922.9,269.4l9-8.9c4.1-4.1,4.2-10.7,0.1-14.8l0,0c-4.1-4.1-10.6-4-14.9,0.1l-9,8.9
			c-10.9-7.8-23.9-12-37.3-12.1c-13.4,0-26.4,4.2-37.3,12l-8.9-8.9c-2.2-2.1-4.9-3.1-7.6-3.1l0,0c-2.7,0-5.3,1-7.3,3l0,0
			c-4.1,4.1-4,10.7,0.1,14.8l9,8.9c-7.9,10.9-12.1,24-12.2,37.5V320H1935v-13.1C1935,293.4,1930.8,280.3,1922.9,269.4z M1854,293.6
			c0,5.6-4.5,10.1-10.1,10.1c-5.6,0-10.1-4.5-10.1-10.1c0-5.6,4.5-10.1,10.1-10.1C1849.4,283.4,1854,288,1854,293.6
			C1854,293.6,1854,293.6,1854,293.6z M1897.9,303.7C1897.9,303.7,1897.9,303.7,1897.9,303.7c-5.6,0-10.1-4.5-10.1-10.1
			c0-5.6,4.5-10.1,10.1-10.1c5.6,0,10.1,4.5,10.1,10.1C1908,299.2,1903.5,303.7,1897.9,303.7z"/>
	</g>
	<g>
		<path class="st0" d="M1714.1,92.2h-60.7c-7.2-0.4-21.7-15.5-30-15.5h-36.3v0c-4.4,0-8,3.6-8,8c0,0,0,0,0,0v21.8
			c0,0.7,0.6,1.3,1.3,1.3h140.3c0.7,0,1.3-0.6,1.3-1.3v-6.2C1722.1,95.7,1718.6,92.2,1714.1,92.2z"/>
		<g>
			<path class="st0" d="M1665.3,157.8c-2.2,0-4,1.8-4,4s1.8,4,4,4c2.2,0,4-1.8,4-4S1667.5,157.8,1665.3,157.8z"/>
			<path class="st0" d="M1688.4,157.8c-2.2,0-4,1.8-4,4s1.8,4,4,4c2.2,0,4-1.8,4-4S1690.6,157.8,1688.4,157.8z"/>
			<path class="st0" d="M1720.8,120.7h-140.3c-0.7,0-1.3,0.6-1.3,1.3V180c0,4.4,3.6,8,8,8c0,0,0,0,0,0h126.9c4.4,0,8-3.6,8-8
				c0,0,0,0,0,0v-57.9C1722.1,121.3,1721.5,120.7,1720.8,120.7z M1701.3,172.8h-48.9c-2.2,0-3.9-1.7-3.9-3.9
				c0-8.6,3.8-16.3,9.8-21.4l-7.1-7.1c-1-1-1-2.7,0-3.7c1-1,2.7-1,3.7,0l7.7,7.7c4.2-2.4,9-3.8,14.1-3.8s10,1.4,14.1,3.8l7.7-7.7
				c1-1,2.7-1,3.7,0c1,1,1,2.7,0,3.7l-7.1,7.1c6,5.2,9.8,12.9,9.8,21.4C1705.2,171.1,1703.4,172.8,1701.3,172.8z"/>
		</g>
	</g>
	<path id="path2_1_" class="st0" d="M2136.9,271.8c0-2.1-0.7-3.9-2.2-5.4c-1.5-1.5-3.3-2.2-5.4-2.2c-2.1,0-3.9,0.7-5.4,2.2
		c-1.5,1.5-2.2,3.3-2.2,5.4c0,2.1,0.7,3.9,2.2,5.4c1.5,1.5,3.3,2.2,5.4,2.2c2.1,0,3.9-0.7,5.4-2.2
		C2136.2,275.7,2136.9,273.9,2136.9,271.8L2136.9,271.8z M2154.7,249c0,13.2-2,24.5-6,34.1c-4,9.6-10.7,19.1-20.1,28.6
		c-4.3,4.2-9.4,8.9-15.4,13.9l-1.6,30c-0.1,0.8-0.5,1.5-1.3,2.1l-30.4,17.7c-0.4,0.2-0.8,0.3-1.3,0.3c-0.6,0-1.2-0.2-1.8-0.7
		l-5.1-5.1c-0.7-0.7-0.9-1.6-0.6-2.5l6.7-21.9l-22.2-22.3l-21.9,6.7c-0.2,0.1-0.4,0.1-0.7,0.1c-0.7,0-1.3-0.2-1.8-0.7l-5.1-5.1
		c-0.9-1-1-2-0.4-3.1l17.7-30.4c0.5-0.7,1.2-1.2,2.1-1.3l30-1.6c5.1-6,9.7-11.2,13.9-15.4c9.9-9.9,19.4-16.7,28.3-20.4
		s20.3-5.6,34.1-5.6c0.7,0,1.4,0.3,1.9,0.8S2154.7,248.3,2154.7,249L2154.7,249z"/>
	<g>
		<path class="st0" d="M1148,136.9c-0.2,0-0.4,0-0.7,0c0,0.2,0,0.4,0,0.7c0,34.2,27.8,62,62,62c0.2,0,0.4,0,0.7,0c0-0.2,0-0.4,0-0.7
			C1210,164.7,1182.2,136.9,1148,136.9z"/>
		<path class="st0" d="M1227,135.4c0-0.6-0.1-1.2-0.2-1.8c0.5,0.3,0.9,0.7,1.4,1c8.1,4.7,18.5,1.9,23.2-6.2
			c4.7-8.1,1.9-18.5-6.2-23.2c-0.5-0.3-1.1-0.5-1.6-0.7c0.5-0.2,1.1-0.4,1.6-0.7c8.1-4.7,10.9-15.1,6.2-23.2
			c-4.7-8.1-15.1-10.9-23.2-6.2c-0.5,0.3-1,0.7-1.4,1c0.1-0.6,0.2-1.2,0.2-1.8c0-9.4-7.6-17-17-17c-9.4,0-17,7.6-17,17
			c0,0.6,0.1,1.2,0.2,1.8c-0.5-0.3-0.9-0.7-1.4-1c-8.1-4.7-18.5-1.9-23.2,6.2c-4.7,8.1-1.9,18.5,6.2,23.2c0.5,0.3,1.1,0.5,1.6,0.7
			c-0.5,0.2-1.1,0.4-1.6,0.7c-8.1,4.7-10.9,15.1-6.2,23.2c4.7,8.1,15.1,10.9,23.2,6.2c0.5-0.3,1-0.7,1.4-1c-0.1,0.6-0.2,1.2-0.2,1.8
			c0,9.4,7.6,17,17,17C1219.3,152.4,1227,144.8,1227,135.4z M1193,104.5c0-9.4,7.6-17,17-17c9.4,0,17,7.6,17,17s-7.6,17-17,17
			C1200.6,121.5,1193,113.9,1193,104.5z"/>
		<path class="st0" d="M1273,137c-0.2,0-0.4,0-0.7,0c-34.2,0-62,27.8-62,62c0,0.2,0,0.4,0,0.7c0.2,0,0.4,0,0.7,0
			c34.2,0,62-27.8,62-62C1273,137.4,1273,137.2,1273,137z"/>
	</g>
	<g>
		<g>
			<path class="st0" d="M2099.9,179.7c0-2.7-2.2-4.9-4.9-4.9h-9.8c-2.7,0-4.9,2.2-4.9,4.9v11.5c0,5.4,4.4,9.8,9.8,9.8
				c5.4,0,9.8-4.4,9.8-9.8V179.7z"/>
		</g>
		<path class="st0" d="M2142.5,79.6h-26.3V73h11.5c2.7,0,4.9-2.2,4.9-4.9v-6.6c0-2.7-2.2-4.9-4.9-4.9h-19.7c-2.7,0-4.9,2.2-4.9,4.9
			v6.6c0,2.7,2.2,4.9,4.9,4.9h1.6v6.6h-39.4V73h1.6c2.7,0,4.9-2.2,4.9-4.9v-6.6c0-2.7-2.2-4.9-4.9-4.9h-19.7c-2.7,0-4.9,2.2-4.9,4.9
			v6.6c0,2.7,2.2,4.9,4.9,4.9h11.5v6.6h-26.3c-5.4,0-9.8,4.4-9.8,9.8v55.8c0,5.4,4.4,9.8,9.8,9.8h105c5.4,0,9.8-4.4,9.8-9.8V89.4
			C2152.4,84,2148,79.6,2142.5,79.6z M2141.2,98l-51.1,27.3L2038.9,98c-2-1.1-2.8-3.6-1.7-5.5c1.1-2,3.6-2.8,5.5-1.7L2090,116
			l47.3-25.2c2-1.1,4.5-0.3,5.5,1.7C2143.9,94.4,2143.2,96.9,2141.2,98z"/>
		<g>
			<path class="st2" d="M2041.9,161.6l16.6,24.6c1.7,2.9,4.9,4.9,8.5,4.9h6.6v-11.5c0-6.3,5.2-11.5,11.5-11.5h9.8
				c6.3,0,11.5,5.2,11.5,11.5v11.5h6.6c3.7,0,6.8-2,8.5-4.9h0l16.6-24.6H2041.9z"/>
		</g>
	</g>
</g>
</svg>
