<svg xmlns="http://www.w3.org/2000/svg" width="192" height="192" viewBox="0 0 192 192">
    <path d="M18.418 27.932a9.746 9.746 0 0 0-9.768 9.765v28.21h174.7V53.7a9.742 9.742 0 0 0-9.768-9.763h-43.94c-8.795-.48-15.328-2.353-15.328-2.353s-30.23-7.436-40.826-10.94C65.332 27.944 64 27.93 62.78 27.93H18.418zM8.65 81.87v72.432a9.746 9.746 0 0 0 9.768 9.765h155.164a9.746 9.746 0 0 0 9.768-9.765V81.87H8.65zm130.053 12a20.94 20.94 0 0 1 20.942 20.94 20.94 20.94 0 0 1-20.942 20.94 20.94 20.94 0 0 1-11.693-3.59l-19.438 19.438a1.602 1.602 0 0 1-2.27 0l-3.388-3.39a1.6 1.6 0 0 1 0-2.267l19.432-19.43a20.94 20.94 0 0 1-3.582-11.7 20.94 20.94 0 0 1 20.94-20.94zm0 6.935A14.006 14.006 0 0 0 124.7 114.81a14.006 14.006 0 0 0 3.956 9.756 14.006 14.006 0 0 0 10.047 4.248 14.006 14.006 0 0 0 14.006-14.005 14.006 14.006 0 0 0-14.01-14.007z" fill="#fff" paint-order="fill markers stroke"/>
</svg>
