<svg xmlns="http://www.w3.org/2000/svg" viewBox="0 0 32 32" height="32" width="32">
    <path style="font-variant-ligatures:normal;font-variant-position:normal;font-variant-caps:normal;font-variant-numeric:normal;font-variant-alternates:normal;font-feature-settings:normal;text-indent:0;text-decoration-line:none;text-decoration-style:solid;text-decoration-color:#000;text-transform:none;text-orientation:mixed;shape-padding:0;isolation:auto;mix-blend-mode:normal" d="M14.26 7.544a.752.752 0 0 0-.588.274l-3.647 4.445a.752.752 0 0 0 .124 1.07l.413.317a.752.752 0 0 0 1.023-.13l3.27-3.98h2.238l-7.392 8.987-5.19-.056a.752.752 0 0 0-.766.726l-.038 1.166a.752.752 0 0 0 .752.778h6.783a.752.752 0 0 0 .583-.263l2.956-3.572 3.523 3.512-1.448 6.67a.752.752 0 0 0 .545.89l.933.246a.752.752 0 0 0 .932-.576l1.88-8.903a.752.752 0 0 0-.2-.704l-3.105-3.12 3.234-3.884 2.436 2.48a.752.752 0 0 0 1.117-.048l3.484-4.24a.752.752 0 0 0-.112-1.08l-.515-.38a.752.752 0 0 0-1.053.113l-2.52 3.062-3.61-3.59a.752.752 0 0 0-.544-.227z" color="#000" white-space="normal" fill="#fff" fill-rule="evenodd"/>
    <circle r="2.237" cy="5.589" cx="22.226" fill="#fff" paint-order="markers stroke fill"/>
</svg>
