<svg xmlns="http://www.w3.org/2000/svg" width="32" height="32" viewBox="0 0 8.4666665 8.4666669">
    <path d="M3.772 1.984a.2.2 0 0 0-.156.073l-.97 1.182a.2.2 0 0 0 .033.285l.11.084a.2.2 0 0 0 .272-.035l.87-1.058h.595L2.56 4.905 1.18 4.89a.2.2 0 0 0-.204.193l-.01.31a.2.2 0 0 0 .2.207H2.97a.2.2 0 0 0 .155-.07l.786-.95.937.934-.385 1.774a.2.2 0 0 0 .145.237l.248.065a.2.2 0 0 0 .248-.153l.5-2.368a.2.2 0 0 0-.053-.187l-.826-.83.86-1.033.648.66a.2.2 0 0 0 .297-.013l.927-1.128a.2.2 0 0 0-.03-.287L7.29 2.15a.2.2 0 0 0-.28.03l-.67.814-.96-.955a.2.2 0 0 0-.145-.06z" style="font-variant-ligatures:normal;font-variant-position:normal;font-variant-caps:normal;font-variant-numeric:normal;font-variant-alternates:normal;font-feature-settings:normal;text-indent:0;text-decoration-line:none;text-decoration-style:solid;text-decoration-color:#000;text-transform:none;text-orientation:mixed;shape-padding:0;isolation:auto;mix-blend-mode:normal" color="#000" white-space="normal" fill="#fff" fill-rule="evenodd"/>
    <circle cx="5.891" cy="1.464" r=".595" fill="#fff" paint-order="markers stroke fill"/>
</svg>
