<svg width="32" height="32" viewBox="0 0 32 32" xmlns="http://www.w3.org/2000/svg">
    <path fill="#fff" paint-order="markers fill stroke" d="M1.5 25.5h5v5h-5zm5.997 0h17v5h-17zm18.003 0h5v5h-5zm-24-6h5v5h-5zm6 0h5v5h-5zm6 0h5v5h-5zm6 0h5v5h-5zm6 0h5v5h-5z"/>
    <path d="M9.984 2A1.99 1.99 0 0 0 8 4.004V11c0 2 1 2.75 2 3.5l6 4.5 6-4.5c1-.75 2-1.517 2-3.5V4.004A1.99 1.99 0 0 0 22.016 2zM12.5 3h1L15 8h-1l-.297-1h-1.406L12 8h-1zM19 3c1.105 0 2 1.12 2 2.5S20.105 8 19 8s-2-1.12-2-2.5.895-2.5 2-2.5zm0 1c-.552 0-1 .672-1 1.5S18.448 7 19 7s1-.672 1-1.5S19.552 4 19 4zm-6 .63L12.594 6h.812zM12.5 9h1c.552 0 1.5.448 1.5 1h-2.5a.5.5 0 0 0 0 1h1a1.5 1.5 0 0 1 0 3h-1c-.552 0-1.5-.448-1.5-1h2.5a.5.5 0 0 0 0-1h-1a1.5 1.5 0 0 1 0-3zM17 9h2.5a1.5 1.5 0 0 1 0 3H18v2h-1zm1 1v1h1.5a.5.5 0 0 0 0-1z" fill="#fff"/>
    <path fill="#fff" paint-order="markers fill stroke" d="M1.5 13.5h5v5h-5zm6 .1v4.9h5v-1.1zm18-.1h5v5h-5zm-1 .1v4.9h-5v-1.1z"/>
</svg>
