<svg xmlns="http://www.w3.org/2000/svg" viewBox="0 0 192 192" height="192" width="192">
    <path d="M28.554 18.238c-4.2 0-7.57 5.142-7.57 11.526v132.472c0 6.384 3.37 11.526 7.57 11.526h134.888c4.2 0 7.574-5.142 7.574-11.526V29.764c0-6.384-3.37-11.526-7.57-11.526zm34.657 12.07a10.055 10.055 0 0 1 10.053 10.055 10.055 10.055 0 0 1-10.05 10.05A10.055 10.055 0 0 1 53.15 40.36 10.055 10.055 0 0 1 63.21 30.3zm65.576 0a10.055 10.055 0 0 1 10.06 10.055 10.055 10.055 0 0 1-10.06 10.05 10.055 10.055 0 0 1-10.05-10.054 10.055 10.055 0 0 1 10.05-10.06zm-67.273 49.02c8.626 0 15.075 1.43 19.343 4.276 4.294 2.812 6.448 7.068 6.448 12.76 0 3.885-1.026 7.07-3.066 9.562-2.052 2.462-5.07 4.195-9.07 5.206 4.475 1.15 7.865 3.17 10.183 6.042 2.34 2.85 3.51 6.48 3.51 10.9 0 6.58-2.517 11.59-7.56 15.028-5.04 3.41-12.39 5.115-22.056 5.115a63.462 63.462 0 0 1-10.27-.836 64.69 64.69 0 0 1-10.14-2.45v-13.21c3.204 1.598 6.373 2.814 9.516 3.65 3.175.798 6.288 1.197 9.347 1.197 4.533 0 8-.786 10.4-2.356 2.433-1.572 3.65-3.826 3.65-6.763 0-3.02-1.248-5.3-3.737-6.84-2.462-1.574-6.106-2.364-10.944-2.364h-6.84v-11.02h7.2c4.295 0 7.495-.673 9.6-2.007 2.105-1.368 3.154-3.42 3.154-6.183 0-2.546-1.018-4.522-3.067-5.912-2.052-1.394-4.94-2.09-8.67-2.09-2.76 0-5.55.31-8.362.935-2.817.62-5.614 1.54-8.403 2.755V82.18a77.132 77.132 0 0 1 10.05-2.13 69.135 69.135 0 0 1 9.786-.72zm60.255 1.206h16.28v54.57h15.124v11.817h-46.437v-11.816h15.125V92.18l-15.524 3.204V83.73l15.43-3.204z" fill="#fff"/>
</svg>
