<svg xmlns="http://www.w3.org/2000/svg" viewBox="0 0 192 192" height="192" width="192">
    <path d="M40.52 15.773A11.94 11.94 0 0 0 28.556 27.74v136.52a11.94 11.94 0 0 0 11.966 11.967h110.96a11.94 11.94 0 0 0 11.965-11.967V27.74a11.94 11.94 0 0 0-11.966-11.967H40.52zM96 56.385a20.125 20.125 0 0 1 20.125 20.125A20.125 20.125 0 0 1 96 96.635 20.125 20.125 0 0 1 75.875 76.51 20.125 20.125 0 0 1 96 56.385zm0 47.32a41.065 13.688 0 0 1 41.064 13.69v18.22H54.936v-18.22A41.065 13.688 0 0 1 96 103.705z" fill="#fff"/>
</svg>
