<svg xmlns="http://www.w3.org/2000/svg" width="32" height="32" viewBox="0 0 32 32">
    <rect x="4.25" y="13.934" width="23.5" height="15.98" ry="1.88" fill="#fff" paint-order="markers fill stroke"/>
    <path d="M6.13 5.004c-1.042 0-1.88.838-1.88 1.88v4.23c0 1.04.838 1.88 1.88 1.88h19.74c1.042 0 1.88-.84 1.88-1.88v-4.23c0-1.042-.838-1.88-1.88-1.88zm3.76 2.35a1.88 1.88 0 0 1 1.88 1.88 1.88 1.88 0 0 1-1.88 1.88 1.88 1.88 0 0 1-1.88-1.88 1.88 1.88 0 0 1 1.88-1.88zm12.22 0a1.88 1.88 0 0 1 1.88 1.88 1.88 1.88 0 0 1-1.88 1.88 1.88 1.88 0 0 1-1.88-1.88 1.88 1.88 0 0 1 1.88-1.88z" fill="#fff" paint-order="markers fill stroke"/>
    <rect transform="rotate(37.577)" x="24.063" y="-16.343" width="1.814" height="6.58" ry=".907" fill="#fff" paint-order="markers fill stroke"/>
    <rect transform="rotate(142.423)" x="-1.298" y="-9.752" width="1.814" height="6.58" ry=".907" fill="#fff" paint-order="markers fill stroke"/>
</svg>
