<svg xmlns="http://www.w3.org/2000/svg" viewBox="0 0 192 192" height="192" width="192">
    <path d="M31.496 12.234A12.33 12.33 0 0 0 19.14 24.59v129.006a12.33 12.33 0 0 0 12.356 12.355h13.86l2.394 2.667c11.427 11.452 28.398 18.16 48.016 17.994 8.013-.027 17.674-1.78 26.296-4.923 8.626-3.145 16.01-7.663 22-12.895l3.042-2.84h13.4A12.33 12.33 0 0 0 172.86 153.6V24.59A12.33 12.33 0 0 0 160.5 12.234zm42.24 16.6l6.045 8.45 10.25-1.7-1.7 10.25 8.453 6.045-8.452 6.042 1.704 10.25-10.25-1.7-6.044 8.45-6.046-8.45-10.25 1.7 1.703-10.25-8.454-6.045 8.453-6.046-1.704-10.25 10.25 1.7zm75.2 64.287v.064h.002v45.843s-2.214 15.803-17.46 26.987a47.156 47.156 0 0 1-3.058 2.084 50.54 50.54 0 0 1-5.314 2.865 55.983 55.983 0 0 1-6.145 2.423 64.19 64.19 0 0 1-7.03 1.865 75.89 75.89 0 0 1-7.98 1.2 92.018 92.018 0 0 1-8.99.428c-2.106 0-4.124-.09-6.054-.262h-.002a61.785 61.785 0 0 1-1.9-.2 55.38 55.38 0 0 1-7.047-1.3 47.89 47.89 0 0 1-6.19-2.023 44.71 44.71 0 0 1-2.788-1.244 42.79 42.79 0 0 1-2.597-1.38 41.61 41.61 0 0 1-4.64-3.106 40.997 40.997 0 0 1-1.636-1.348c-11.076-9.49-14.468-22.434-15.438-27.7-.024-.124-.033-.19-.054-.306a47.63 47.63 0 0 1-.332-2.15v-30.454c34.452 0 44.67 23.06 47.568 33.776v-.06s6.502-45.997 57.09-45.997z" fill="#fff" paint-order="fill markers stroke"/>
    <path d="M350.455 65.854h-.746l.37.52z" opacity=".428" fill="#0ff"/>
</svg>
