<svg xmlns="http://www.w3.org/2000/svg" width="192" height="192" viewBox="0 0 192 192">
    <path d="M96 8.063A87.938 87.938 0 0 0 8.062 96 87.938 87.938 0 0 0 96 183.938 87.938 87.938 0 0 0 183.938 96 87.938 87.938 0 0 0 96 8.062zM77.463 39.52v.003a24.636 24.636 0 0 1 22.955 15.694 19.475 19.475 0 0 1 13.414-5.37c10.754 0 19.473 8.72 19.473 19.473 0 .627-.03 1.253-.09 1.877a17.597 17.597 0 0 1 7.892-1.877c9.72 0 17.598 7.88 17.598 17.6-.007 7.746-4.084 12.772-11.498 17.13l-.996.464h-46.185l-2.515 11.783 19.72 1.61-23.834 45.58 7.338-37.02-18.185-1.022 4.386-20.93H45.238l-2.07-1.025c-7.2-4.228-9.864-8.89-9.873-16.1 0-9.463 7.67-17.132 17.13-17.132 1.098.002 2.19.11 3.266.322a24.637 24.637 0 0 1-.86-6.422c0-13.605 11.028-24.636 24.633-24.637z" fill="#fff"/>
</svg>
