<svg xmlns="http://www.w3.org/2000/svg" width="192" height="192" viewBox="0 0 192 192">
    <path d="M59.09 13.444a12.004 12.004 0 0 0-12.03 12.032v35.702H4.893l20.07 34.764v70.582a12.005 12.005 0 0 0 12.03 12.032h93.83c6.666 0 12.03-5.367 12.03-12.032v-35.702h12.155c6.664 0 12.03-5.367 12.03-12.03V48.208l20.07-34.766H146.62zm2.916 13.73h101.052l-9.75 16.888v71.815c-.048.67-.545 1.216-1.216 1.216h-9.238V73.21a12.005 12.005 0 0 0-12.03-12.032H60.79V28.39c0-.672.544-1.216 1.216-1.216zM74.684 37.66a2.543 2.543 0 0 0-2.55 2.55v7.93a2.543 2.543 0 0 0 2.55 2.55h64.73a2.544 2.544 0 0 0 2.552-2.55v-7.93a2.544 2.544 0 0 0-2.553-2.55zM63.47 96.925a8.73 8.73 0 1 1 0 17.458 8.73 8.73 0 0 1 0-17.458zm40.877 0a8.73 8.73 0 1 1 0 17.458 8.73 8.73 0 0 1 0-17.458zm-50.46 33.43h60.042a31.35 31.35 0 0 1-30.03 22.387 31.35 31.35 0 0 1-30.015-22.388z" fill="#fff"/>
</svg>
