<svg xmlns="http://www.w3.org/2000/svg" viewBox="0 0 192 192" height="192" width="192">
    <path d="M18.418 27.93A9.747 9.747 0 0 0 8.65 37.7v28.21h174.7V53.7a9.742 9.742 0 0 0-9.768-9.762H129.64c-8.794-.48-15.327-2.354-15.327-2.354s-30.23-7.436-40.824-10.94c-8.16-2.7-9.49-2.713-10.71-2.713h-9.9zM8.65 81.87v72.432a9.747 9.747 0 0 0 9.768 9.766h155.164a9.747 9.747 0 0 0 9.767-9.768V81.87zm121.894 19.82h37.24v21.28h-18.62v10.64h-18.62v10.64h-37.24v-21.28h18.62v-10.64h18.62z" fill="#fff" paint-order="fill markers stroke"/>
</svg>
