<svg xmlns="http://www.w3.org/2000/svg" viewBox="0 0 32 32" height="32" width="32">
    <path d="M16 3C8.833 3 3 8.833 3 16s5.833 13 13 13 13-5.833 13-13S23.167 3 16 3zm0 2.18c5.99 0 10.818 4.83 10.818 10.82S21.988 26.82 16 26.82c-5.99 0-10.82-4.83-10.82-10.82S10.01 5.18 16 5.18z" style="line-height:normal;font-variant-ligatures:normal;font-variant-position:normal;font-variant-caps:normal;font-variant-numeric:normal;font-variant-alternates:normal;font-feature-settings:normal;text-indent:0;text-align:start;text-decoration-line:none;text-decoration-style:solid;text-decoration-color:#000;text-transform:none;text-orientation:mixed;shape-padding:0;isolation:auto;mix-blend-mode:normal" color="#000" font-weight="400" font-family="sans-serif" white-space="normal" overflow="visible" fill="#fff"/>
    <path d="M25.904 9.957L17.7 16.77l1.394 1.677 8.203-6.814z" style="line-height:normal;font-variant-ligatures:normal;font-variant-position:normal;font-variant-caps:normal;font-variant-numeric:normal;font-variant-alternates:normal;font-feature-settings:normal;text-indent:0;text-align:start;text-decoration-line:none;text-decoration-style:solid;text-decoration-color:#000;text-transform:none;text-orientation:mixed;shape-padding:0;isolation:auto;mix-blend-mode:normal" color="#000" font-weight="400" font-family="sans-serif" white-space="normal" overflow="visible" fill="#fff"/>
    <path d="M19.29 16.986L17.5 18.23l5.182 7.467 1.79-1.244z" style="line-height:normal;font-variant-ligatures:normal;font-variant-position:normal;font-variant-caps:normal;font-variant-numeric:normal;font-variant-alternates:normal;font-feature-settings:normal;text-indent:0;text-align:start;text-decoration-line:none;text-decoration-style:solid;text-decoration-color:#000;text-transform:none;text-orientation:mixed;shape-padding:0;isolation:auto;mix-blend-mode:normal" color="#000" font-weight="400" font-family="sans-serif" white-space="normal" overflow="visible" fill="#fff"/>
    <path d="M18.297 16.523l-13.87 1.282.2 2.17 13.87-1.282z" style="line-height:normal;font-variant-ligatures:normal;font-variant-position:normal;font-variant-caps:normal;font-variant-numeric:normal;font-variant-alternates:normal;font-feature-settings:normal;text-indent:0;text-align:start;text-decoration-line:none;text-decoration-style:solid;text-decoration-color:#000;text-transform:none;text-orientation:mixed;shape-padding:0;isolation:auto;mix-blend-mode:normal" color="#000" font-weight="400" font-family="sans-serif" white-space="normal" overflow="visible" fill="#fff"/>
    <path d="M6.727 15.922c-1.656-.962-3.775-.425-4.74 1.195-.962 1.656-.423 3.775 1.195 4.74 1.657.962 3.777.423 4.74-1.195.962-1.612.423-3.732-1.195-4.74zm19.053 6.186c-1.657-.962-3.775-.425-4.74 1.195-.963 1.656-.424 3.775 1.195 4.74 1.657.962 3.776.423 4.74-1.195.96-1.612.423-3.732-1.196-4.74zm-5.182-7.468c-1.656-.962-3.774-.425-4.74 1.195-.96 1.656-.423 3.774 1.196 4.74 1.657.962 3.776.423 4.74-1.196.962-1.613.423-3.733-1.196-4.74zm8.205-6.84c-1.656-.96-3.774-.423-4.74 1.197-.962 1.656-.423 3.774 1.196 4.74 1.655.962 3.774.423 4.737-1.196.962-1.61.424-3.73-1.195-4.737z" fill="#fff"/>
</svg>
