<svg xmlns="http://www.w3.org/2000/svg" viewBox="0 0 192 192" height="192" width="192">
    <path d="M96.013 19.38c-15.383.01-30.687 6.196-41.882 16.96C42.94 47.1 35.99 62.327 35.15 77.986v59.225H49.7V77.897a2.26 2.187 0 0 1 .006-.177c2.016-24.07 23.326-44.285 46.31-44.285 22.98 0 44.288 20.217 46.303 44.284a2.26 2.187 0 0 1-.02.484v59.01h14.55V78.197a2.26 2.187 0 0 1-.022-.192c-.838-15.657-7.78-30.884-18.966-41.647C126.68 25.595 111.39 19.4 96.014 19.38z" fill="#fff"/>
    <rect ry="6.207" y="106.103" x="26.064" height="54.753" width="41.218" fill="#fff"/>
    <rect ry="3.332" y="94.34" x="59.75" height="78.083" width="17.827" fill="#fff"/>
    <rect ry="6.207" y="106.004" x="-165.936" height="54.753" width="41.218" transform="scale(-1 1)" fill="#fff"/>
    <rect ry="3.332" y="94.536" x="114.423" height="78.083" width="17.827" fill="#fff"/>
</svg>
