<?xml version="1.0" encoding="UTF-8" standalone="no"?>
<svg
   xmlns:dc="http://purl.org/dc/elements/1.1/"
   xmlns:cc="http://creativecommons.org/ns#"
   xmlns:rdf="http://www.w3.org/1999/02/22-rdf-syntax-ns#"
   xmlns:svg="http://www.w3.org/2000/svg"
   xmlns="http://www.w3.org/2000/svg"
   xmlns:sodipodi="http://sodipodi.sourceforge.net/DTD/sodipodi-0.dtd"
   xmlns:inkscape="http://www.inkscape.org/namespaces/inkscape"
   viewBox="0 0 192 192"
   height="192"
   width="192"
   version="1.1"
   id="svg8551"
   sodipodi:docname="timber.svg"
   inkscape:version="0.92.1 r">
  <metadata
     id="metadata8557">
    <rdf:RDF>
      <cc:Work
         rdf:about="">
        <dc:format>image/svg+xml</dc:format>
        <dc:type
           rdf:resource="http://purl.org/dc/dcmitype/StillImage" />
        <dc:title></dc:title>
      </cc:Work>
    </rdf:RDF>
  </metadata>
  <defs
     id="defs8555" />
  <sodipodi:namedview
     pagecolor="#ffffff"
     bordercolor="#666666"
     borderopacity="1"
     objecttolerance="10"
     gridtolerance="10"
     guidetolerance="10"
     inkscape:pageopacity="0"
     inkscape:pageshadow="2"
     inkscape:window-width="640"
     inkscape:window-height="480"
     id="namedview8553"
     showgrid="false"
     inkscape:pagecheckerboard="true"
     inkscape:zoom="3.6770833"
     inkscape:cx="48.407932"
     inkscape:cy="96"
     inkscape:current-layer="svg8551" />
  <path
     d="M 96.01315,18.486665 C 80.450694,18.496782 64.968159,24.754947 53.64256,35.644518 42.321007,46.530043 35.289929,61.934679 34.44013,77.776355 V 137.69226 H 49.159868 V 77.686317 a 2.2863649,2.2125132 0 0 1 0.0061,-0.179065 c 2.039519,-24.350797 23.598118,-44.801623 46.850247,-44.801623 23.248075,0 44.804655,20.452849 46.843165,44.800611 a 2.2863649,2.2125132 0 0 1 -0.0202,0.489647 v 59.698403 h 14.71974 V 77.989817 a 2.2863649,2.2125132 0 0 1 -0.0223,-0.19424 C 156.68882,61.955924 149.66583,46.551288 138.34934,35.662728 127.0379,24.774169 111.56953,18.506899 96.014161,18.486665 Z"
     id="path8541"
     inkscape:connector-curvature="0"
     style="fill:#ffffff;stroke-width:1.01166582" />
  <rect
     ry="6.2794099"
     y="106.22136"
     x="25.248133"
     height="55.391739"
     width="41.698841"
     id="rect8543"
     style="fill:#ffffff;stroke-width:1.01166582" />
  <rect
     ry="3.3708706"
     y="94.321136"
     x="59.32711"
     height="78.993904"
     width="18.034967"
     id="rect8545"
     style="fill:#ffffff;stroke-width:1.01166582" />
  <rect
     ry="6.2794099"
     y="106.12122"
     x="-166.75186"
     height="55.391739"
     width="41.698841"
     transform="scale(-1,1)"
     id="rect8547"
     style="fill:#ffffff;stroke-width:1.01166582" />
  <rect
     ry="3.3708706"
     y="94.519432"
     x="114.63792"
     height="78.993904"
     width="18.034967"
     id="rect8549"
     style="fill:#ffffff;stroke-width:1.01166582" />
</svg>
