<svg xmlns="http://www.w3.org/2000/svg" viewBox="0 0 32 32" height="32" width="32">
    <path d="M2.88 5.34v21.32c0 1.64.82 2.46 2.46 2.46h21.32c1.64 0 2.46-.82 2.46-2.46V5.34c0-1.64-.82-2.46-2.46-2.46H5.34c-1.64 0-2.46.82-2.46 2.46zm12.3.718v4.733L11.9 12.69 7.8 10.32zm1.64 0l7.38 4.26-4.1 2.368-3.28-1.898zM6.98 11.74l4.1 2.367v3.788l-4.1 2.37zm18.04 0v8.52l-4.1-2.367v-3.788zm-9.02.472l3.28 1.895v3.788L16 19.79l-3.28-1.895v-3.788zm-4.1 7.102l3.28 1.898v4.734L7.8 21.683zm8.2 0l4.1 2.37-7.38 4.262v-4.734z" fill="#fff" paint-order="markers fill stroke"/>
</svg>
