<svg xmlns="http://www.w3.org/2000/svg" width="32" height="32" viewBox="0 0 32 32">
    <path d="M16 1.6c-5.41 0-9.9 4.49-9.9 9.9 0 5.937 5.4 8.18 5.4 11.26v.89h9v-.89c0-3.067 5.4-5.323 5.4-11.26 0-5.41-4.49-9.9-9.9-9.9zm-2.142 1.725l1.39 1.53-3.064 2.316-1.213 3.098-2.743-1.512c.88-2.605 2.994-4.684 5.63-5.43zm5.742.756a8.177 8.177 0 0 1 2.586 2.117c-1.337.1-2.534.1-3.87.2.44-.813.858-1.51 1.284-2.314zm3.002 2.666A8.294 8.294 0 0 1 24.1 11.5c0 2.477-.976 4.41-2.716 5.874l-.328-4.37-2.734-.797-.805-3.078zm-11.63 3.522l4.245 1.233-4.097 6.436a8.07 8.07 0 0 1-1.498-1.39L9.016 11.5zM11.5 25h9v2.25h-9zm0 3.15h9v2.25h-9z" fill="#fff" paint-order="markers fill stroke"/>
</svg>
